# Object13.bmd — MU geometry at action 0 key 0, exported for MU2
# 1 mesh(es)

g top02_R
# texture: top02_R.jpg
v 223.2162 -0.0309 7.2469
v 135.7427 444.9507 -174.3937
v 223.2162 444.9507 7.2469
v 135.7427 -0.0309 -174.3938
v -60.8085 444.9507 -219.2553
v -60.8085 -0.0309 -219.2553
v -218.4303 444.9507 -93.556
v -218.4303 -0.0309 -93.5561
v -218.4303 444.9507 108.0499
v -218.4303 -0.0309 108.0498
v -60.8085 444.9507 233.7491
v -60.8085 -0.0309 233.7491
v 135.7427 444.9507 188.8875
v 135.7427 -0.0309 188.8875
v 223.2162 444.9507 7.2469
v 107.7066 467.4296 -139.2375
v 178.2497 467.4296 7.2469
v 135.7427 444.9507 -174.3937
v -50.8025 467.4296 -175.4161
v -60.8085 444.9507 -219.2553
v -177.9169 467.4296 -74.0458
v -218.4303 444.9507 -93.556
v -177.9169 467.4296 88.5396
v -218.4303 444.9507 108.0499
v -50.8025 467.4296 189.9099
v -60.8085 444.9507 233.7491
v 107.7066 467.4296 153.7313
v 135.7427 444.9507 188.8875
v 178.2497 467.4296 7.2469
v 107.7066 541.4374 -139.2375
v 178.2497 541.4374 7.2469
v 107.7066 467.4296 -139.2375
v -50.8025 541.4374 -175.4162
v -50.8025 467.4296 -175.4161
v -177.9169 541.4374 -74.0458
v -177.9169 467.4296 -74.0458
v -177.9169 541.4374 88.5396
v -177.9169 467.4296 88.5396
v -50.8025 541.4373 189.9099
v -50.8025 467.4296 189.9099
v 107.7066 541.4374 153.7313
v 107.7066 467.4296 153.7313
v 178.2497 541.4374 7.2469
v 10.0375 638.2053 -16.7644
v 21.6007 638.2052 7.2469
v 107.7066 541.4374 -139.2375
v -15.9448 638.2053 -22.6947
v -50.8025 541.4374 -175.4162
v -36.781 638.2052 -6.0784
v -177.9169 541.4374 -74.0458
v -36.781 638.2052 20.5722
v -177.9169 541.4374 88.5396
v -15.9448 638.2052 37.1885
v -50.8025 541.4373 189.9099
v 10.0375 638.2052 31.2582
v 107.7066 541.4374 153.7313
v 21.6007 638.2052 7.2469
v 10.0375 707.4135 -16.7644
v 21.6007 707.4135 7.2469
v 10.0375 638.2053 -16.7644
v -15.9448 707.4135 -22.6947
v -15.9448 638.2053 -22.6947
v -36.781 707.4135 -6.0784
v -36.781 638.2052 -6.0784
v -36.781 707.4135 20.5722
v -36.781 638.2052 20.5722
v -15.9448 707.4135 37.1885
v -15.9448 638.2052 37.1885
v 10.0375 707.4135 31.2582
v 10.0375 638.2052 31.2582
v 21.6007 707.4135 7.2469
v -4.5374 743.0035 1.512
v -1.7756 743.0035 7.2469
v 10.0375 707.4135 -16.7644
v -10.7431 743.0035 0.0956
v -15.9448 707.4135 -22.6947
v -15.7196 743.0035 4.0643
v -36.781 707.4135 -6.0784
v -15.7196 743.0035 10.4295
v -36.781 707.4135 20.5722
v -10.7431 743.0035 14.3982
v -15.9448 707.4135 37.1885
v -4.5374 743.0035 12.9818
v 10.0375 707.4135 31.2582
v -1.7756 743.0035 7.2469
v -4.5374 743.0035 1.512
v -9.1108 873.4653 7.2469
v -10.7431 743.0035 0.0956
v -15.7196 743.0035 4.0643
v -15.7196 743.0035 10.4295
v -10.7431 743.0035 14.3982
v -4.5374 743.0035 12.9818
v 203.2759 406.6216 -14.0674
v 418.5009 406.9999 2.1316
v 418.5009 406.9999 -14.0674
v 203.2759 406.6216 2.1316
v 418.5009 406.9999 -14.0674
v 418.5009 -0.0309 2.1316
v 418.5009 -0.0309 -14.0674
v 418.5009 406.9999 2.1316
v 384.0332 -0.0645 -14.0674
v 379.7642 101.2925 2.1316
v 379.7642 101.2925 -14.0674
v 384.0332 -0.0645 2.1316
v 379.7642 101.2925 -14.0674
v 365.0921 229.2509 2.1316
v 365.0921 229.2509 -14.0674
v 379.7642 101.2925 2.1316
v 365.0921 229.2509 -14.0674
v 313.7833 325.6 2.1316
v 313.7833 325.6 -14.0674
v 365.0921 229.2509 2.1316
v 313.7833 325.6 -14.0674
v 203.2265 382.2441 2.1316
v 203.2265 382.2441 -14.0674
v 313.7833 325.6 2.1316
v 203.2265 382.2441 -14.0674
v 203.2759 406.6216 2.1316
v 203.2759 406.6216 -14.0674
v 203.2265 382.2441 2.1316
v 203.2265 382.2441 -14.0674
v 203.2759 406.6216 -14.0674
v 418.5009 406.9999 -14.0674
v 313.7833 325.6 -14.0674
v 418.5009 -0.0309 -14.0674
v 384.0332 -0.0645 -14.0674
v 379.7642 101.2925 -14.0674
v 365.0921 229.2509 -14.0674
v 203.2265 382.2441 2.1316
v 418.5009 406.9999 2.1316
v 203.2759 406.6216 2.1316
v 313.7833 325.6 2.1316
v 384.0332 -0.0645 2.1316
v 418.5009 -0.0309 2.1316
v 379.7642 101.2925 2.1316
v 365.0921 229.2509 2.1316
v 411.6711 -0.0309 -4.432899
v 411.6711 565.1823 -4.432899
v 427.7148 565.1823 -32.2213
v 427.7148 -0.0309 -32.2213
v 459.8021 565.1823 -32.2213
v 459.8021 -0.0309 -32.2213
v 475.8457 565.1823 -4.432899
v 475.8457 -0.0309 -4.432899
v 459.8021 565.1823 23.3555
v 459.8021 -0.0309 23.3555
v 427.7148 565.1823 23.3555
v 427.7148 -0.0309 23.3555
v 411.6711 565.1823 -4.432899
v 432.6938 585.1252 -23.5973
v 427.7148 565.1823 -32.2213
v 421.6293 585.1252 -4.432899
v 427.7148 565.1823 -32.2213
v 454.823 585.1252 -23.5973
v 459.8021 565.1823 -32.2213
v 432.6938 585.1252 -23.5973
v 459.8021 565.1823 -32.2213
v 465.8876 585.1252 -4.432899
v 475.8457 565.1823 -4.432899
v 454.823 585.1252 -23.5973
v 475.8457 565.1823 -4.432899
v 454.823 585.1252 14.7315
v 459.8021 565.1823 23.3555
v 465.8876 585.1252 -4.432899
v 459.8021 565.1823 23.3555
v 432.6938 585.1252 14.7315
v 427.7148 565.1823 23.3555
v 454.823 585.1252 14.7315
v 427.7148 565.1823 23.3555
v 421.6293 585.1252 -4.432899
v 411.6711 565.1823 -4.432899
v 432.6938 585.1252 14.7315
v 421.6293 585.1252 -4.432899
v 432.6938 655.1293 -23.5973
v 432.6938 585.1252 -23.5973
v 421.6293 655.1293 -4.432899
v 432.6938 585.1252 -23.5973
v 454.823 655.1293 -23.5973
v 454.823 585.1252 -23.5973
v 432.6938 655.1293 -23.5973
v 454.823 585.1252 -23.5973
v 465.8876 655.1293 -4.432899
v 465.8876 585.1252 -4.432899
v 454.823 655.1293 -23.5973
v 465.8876 585.1252 -4.432899
v 454.823 655.1293 14.7315
v 454.823 585.1252 14.7315
v 465.8876 655.1293 -4.432899
v 454.823 585.1252 14.7315
v 432.6938 655.1293 14.7315
v 432.6938 585.1252 14.7315
v 454.823 655.1293 14.7315
v 432.6938 585.1252 14.7315
v 421.6293 655.1293 -4.432899
v 421.6293 585.1252 -4.432899
v 432.6938 655.1293 14.7315
v 438.5881 686.4088 -4.432899
v 443.7585 800.0212 -4.432899
v 441.1733 686.4088 -8.910599
v 441.1733 686.4088 -8.910599
v 443.7585 800.0212 -4.432899
v 446.3437 686.4088 -8.910599
v 446.3437 686.4088 -8.910599
v 443.7585 800.0212 -4.432899
v 448.9289 686.4088 -4.432899
v 448.9289 686.4088 -4.432899
v 443.7585 800.0212 -4.432899
v 446.3437 686.4088 0.0448
v 446.3437 686.4088 0.0448
v 443.7585 800.0212 -4.432899
v 441.1733 686.4088 0.0448
v 441.1733 686.4088 0.0448
v 443.7585 800.0212 -4.432899
v 438.5881 686.4088 -4.432899
v 421.6293 655.1293 -4.432899
v 441.1733 686.4088 -8.910599
v 432.6938 655.1293 -23.5973
v 438.5881 686.4088 -4.432899
v 432.6938 655.1293 -23.5973
v 446.3437 686.4088 -8.910599
v 454.823 655.1293 -23.5973
v 441.1733 686.4088 -8.910599
v 454.823 655.1293 -23.5973
v 448.9289 686.4088 -4.432899
v 465.8876 655.1293 -4.432899
v 446.3437 686.4088 -8.910599
v 465.8876 655.1293 -4.432899
v 446.3437 686.4088 0.0448
v 454.823 655.1293 14.7315
v 448.9289 686.4088 -4.432899
v 454.823 655.1293 14.7315
v 441.1733 686.4088 0.0448
v 432.6938 655.1293 14.7315
v 446.3437 686.4088 0.0448
v 432.6938 655.1293 14.7315
v 438.5881 686.4088 -4.432899
v 421.6293 655.1293 -4.432899
v 441.1733 686.4088 0.0448
v -30.4252 406.6216 -205.1399
v -14.2261 406.9999 -420.3648
v -30.4251 406.9999 -420.3648
v -14.2262 406.6216 -205.1399
v -30.4251 406.9999 -420.3648
v -14.2261 -0.0309 -420.3648
v -30.4251 -0.0309 -420.3648
v -14.2261 406.9999 -420.3648
v -30.4251 -0.0645 -385.8971
v -14.2261 101.2925 -381.6281
v -30.4251 101.2925 -381.6281
v -14.2261 -0.0645 -385.8971
v -30.4251 101.2925 -381.6281
v -14.2261 229.2509 -366.956
v -30.4251 229.2509 -366.956
v -14.2261 101.2925 -381.6281
v -30.4251 229.2509 -366.956
v -14.2261 325.5999 -315.6472
v -30.4251 325.5999 -315.6472
v -14.2261 229.2509 -366.956
v -30.4251 325.5999 -315.6472
v -14.2262 382.2441 -205.0905
v -30.4252 382.2441 -205.0905
v -14.2261 325.5999 -315.6472
v -30.4252 382.2441 -205.0905
v -14.2262 406.6216 -205.1399
v -30.4252 406.6216 -205.1399
v -14.2262 382.2441 -205.0905
v -30.4252 382.2441 -205.0905
v -30.4252 406.6216 -205.1399
v -30.4251 406.9999 -420.3648
v -30.4251 325.5999 -315.6472
v -30.4251 -0.0309 -420.3648
v -30.4251 -0.0645 -385.8971
v -30.4251 101.2925 -381.6281
v -30.4251 229.2509 -366.956
v -14.2262 382.2441 -205.0905
v -14.2261 406.9999 -420.3648
v -14.2262 406.6216 -205.1399
v -14.2261 325.5999 -315.6472
v -14.2261 -0.0645 -385.8971
v -14.2261 -0.0309 -420.3648
v -14.2261 101.2925 -381.6281
v -14.2261 229.2509 -366.956
v -20.7906 -0.0309 -413.5351
v -20.7906 565.1822 -413.5351
v -48.579 565.1822 -429.5787
v -48.579 -0.0309 -429.5787
v -48.579 565.1822 -461.666
v -48.579 -0.0309 -461.666
v -20.7906 565.1822 -477.7097
v -20.7906 -0.0309 -477.7097
v 6.997799 565.1822 -461.666
v 6.997799 -0.0309 -461.666
v 6.997799 565.1822 -429.5787
v 6.997799 -0.0309 -429.5787
v -20.7906 565.1822 -413.5351
v -39.955 585.1252 -434.5578
v -48.579 565.1822 -429.5787
v -20.7906 585.1252 -423.4932
v -48.579 565.1822 -429.5787
v -39.955 585.1252 -456.687
v -48.579 565.1822 -461.666
v -39.955 585.1252 -434.5578
v -48.579 565.1822 -461.666
v -20.7906 585.1252 -467.7515
v -20.7906 565.1822 -477.7097
v -39.955 585.1252 -456.687
v -20.7906 565.1822 -477.7097
v -1.6262 585.1252 -456.687
v 6.997799 565.1822 -461.666
v -20.7906 585.1252 -467.7515
v 6.997799 565.1822 -461.666
v -1.6262 585.1252 -434.5578
v 6.997799 565.1822 -429.5787
v -1.6262 585.1252 -456.687
v 6.997799 565.1822 -429.5787
v -20.7906 585.1252 -423.4932
v -20.7906 565.1822 -413.5351
v -1.6262 585.1252 -434.5578
v -20.7906 585.1252 -423.4932
v -39.955 655.1292 -434.5578
v -39.955 585.1252 -434.5578
v -20.7906 655.1292 -423.4932
v -39.955 585.1252 -434.5578
v -39.955 655.1292 -456.687
v -39.955 585.1252 -456.687
v -39.955 655.1292 -434.5578
v -39.955 585.1252 -456.687
v -20.7906 655.1292 -467.7515
v -20.7906 585.1252 -467.7515
v -39.955 655.1292 -456.687
v -20.7906 585.1252 -467.7515
v -1.6262 655.1292 -456.687
v -1.6262 585.1252 -456.687
v -20.7906 655.1292 -467.7515
v -1.6262 585.1252 -456.687
v -1.6262 655.1292 -434.5578
v -1.6262 585.1252 -434.5578
v -1.6262 655.1292 -456.687
v -1.6262 585.1252 -434.5578
v -20.7906 655.1292 -423.4932
v -20.7906 585.1252 -423.4932
v -1.6262 655.1292 -434.5578
v -20.7906 686.4087 -440.452
v -20.7906 800.0211 -445.6224
v -25.2683 686.4087 -443.0372
v -25.2683 686.4087 -443.0372
v -20.7906 800.0211 -445.6224
v -25.2683 686.4087 -448.2076
v -25.2683 686.4087 -448.2076
v -20.7906 800.0211 -445.6224
v -20.7906 686.4087 -450.7928
v -20.7906 686.4087 -450.7928
v -20.7906 800.0211 -445.6224
v -16.3129 686.4087 -448.2076
v -16.3129 686.4087 -448.2076
v -20.7906 800.0211 -445.6224
v -16.3129 686.4087 -443.0372
v -16.3129 686.4087 -443.0372
v -20.7906 800.0211 -445.6224
v -20.7906 686.4087 -440.452
v -20.7906 655.1292 -423.4932
v -25.2683 686.4087 -443.0372
v -39.955 655.1292 -434.5578
v -20.7906 686.4087 -440.452
v -39.955 655.1292 -434.5578
v -25.2683 686.4087 -448.2076
v -39.955 655.1292 -456.687
v -25.2683 686.4087 -443.0372
v -39.955 655.1292 -456.687
v -20.7906 686.4087 -450.7928
v -20.7906 655.1292 -467.7515
v -25.2683 686.4087 -448.2076
v -20.7906 655.1292 -467.7515
v -16.3129 686.4087 -448.2076
v -1.6262 655.1292 -456.687
v -20.7906 686.4087 -450.7928
v -1.6262 655.1292 -456.687
v -16.3129 686.4087 -443.0372
v -1.6262 655.1292 -434.5578
v -16.3129 686.4087 -448.2076
v -1.6262 655.1292 -434.5578
v -20.7906 686.4087 -440.452
v -20.7906 655.1292 -423.4932
v -16.3129 686.4087 -443.0372
v 12.2035 406.6216 219.6337
v -3.9956 406.9999 434.8586
v 12.2034 406.9999 434.8586
v -3.9955 406.6216 219.6337
v 12.2034 406.9999 434.8586
v -3.9956 -0.0309 434.8586
v 12.2034 -0.0309 434.8586
v -3.9956 406.9999 434.8586
v 12.2034 -0.0645 400.3909
v -3.9956 101.2925 396.1219
v 12.2034 101.2925 396.1219
v -3.9956 -0.0645 400.3909
v 12.2034 101.2925 396.1219
v -3.9956 229.2509 381.4498
v 12.2034 229.2509 381.4498
v -3.9956 101.2925 396.1219
v 12.2034 229.2509 381.4498
v -3.9956 325.5999 330.141
v 12.2034 325.5999 330.141
v -3.9956 229.2509 381.4498
v 12.2034 325.5999 330.141
v -3.9955 382.2441 219.5842
v 12.2035 382.2441 219.5842
v -3.9956 325.5999 330.141
v 12.2035 382.2441 219.5842
v -3.9955 406.6216 219.6337
v 12.2035 406.6216 219.6337
v -3.9955 382.2441 219.5842
v 12.2035 382.2441 219.5842
v 12.2035 406.6216 219.6337
v 12.2034 406.9999 434.8586
v 12.2034 325.5999 330.141
v 12.2034 -0.0309 434.8586
v 12.2034 -0.0645 400.3909
v 12.2034 101.2925 396.1219
v 12.2034 229.2509 381.4498
v -3.9955 382.2441 219.5842
v -3.9956 406.9999 434.8586
v -3.9955 406.6216 219.6337
v -3.9956 325.5999 330.141
v -3.9956 -0.0645 400.3909
v -3.9956 -0.0309 434.8586
v -3.9956 101.2925 396.1219
v -3.9956 229.2509 381.4498
v 2.5689 -0.0309 428.0288
v 2.5689 565.1822 428.0288
v 30.3573 565.1822 444.0725
v 30.3573 -0.0309 444.0725
v 30.3573 565.1822 476.1598
v 30.3573 -0.0309 476.1598
v 2.5689 565.1822 492.2034
v 2.5689 -0.0309 492.2034
v -25.2195 565.1822 476.1598
v -25.2195 -0.0309 476.1598
v -25.2195 565.1822 444.0725
v -25.2195 -0.0309 444.0725
v 2.5689 565.1822 428.0288
v 21.7333 585.1252 449.0515
v 30.3573 565.1822 444.0725
v 2.5689 585.1252 437.987
v 30.3573 565.1822 444.0725
v 21.7333 585.1252 471.1808
v 30.3573 565.1822 476.1598
v 21.7333 585.1252 449.0515
v 30.3573 565.1822 476.1598
v 2.5689 585.1252 482.2453
v 2.5689 565.1822 492.2034
v 21.7333 585.1252 471.1808
v 2.5689 565.1822 492.2034
v -16.5955 585.1252 471.1808
v -25.2195 565.1822 476.1598
v 2.5689 585.1252 482.2453
v -25.2195 565.1822 476.1598
v -16.5955 585.1252 449.0515
v -25.2195 565.1822 444.0725
v -16.5955 585.1252 471.1808
v -25.2195 565.1822 444.0725
v 2.5689 585.1252 437.987
v 2.5689 565.1822 428.0288
v -16.5955 585.1252 449.0515
v 2.5689 585.1252 437.987
v 21.7333 655.1292 449.0515
v 21.7333 585.1252 449.0515
v 2.5689 655.1292 437.987
v 21.7333 585.1252 449.0515
v 21.7333 655.1292 471.1808
v 21.7333 585.1252 471.1808
v 21.7333 655.1292 449.0515
v 21.7333 585.1252 471.1808
v 2.5689 655.1292 482.2453
v 2.5689 585.1252 482.2453
v 21.7333 655.1292 471.1808
v 2.5689 585.1252 482.2453
v -16.5955 655.1292 471.1808
v -16.5955 585.1252 471.1808
v 2.5689 655.1292 482.2453
v -16.5955 585.1252 471.1808
v -16.5955 655.1292 449.0515
v -16.5955 585.1252 449.0515
v -16.5955 655.1292 471.1808
v -16.5955 585.1252 449.0515
v 2.5689 655.1292 437.987
v 2.5689 585.1252 437.987
v -16.5955 655.1292 449.0515
v 2.5689 686.4087 454.9458
v 2.5689 800.0212 460.1161
v 7.0466 686.4087 457.531
v 7.0466 686.4087 457.531
v 2.5689 800.0212 460.1161
v 7.0466 686.4087 462.7014
v 7.0466 686.4087 462.7014
v 2.5689 800.0212 460.1161
v 2.5689 686.4087 465.2866
v 2.5689 686.4087 465.2866
v 2.5689 800.0212 460.1161
v -1.9088 686.4087 462.7014
v -1.9088 686.4087 462.7014
v 2.5689 800.0212 460.1161
v -1.9088 686.4087 457.531
v -1.9088 686.4087 457.531
v 2.5689 800.0212 460.1161
v 2.5689 686.4087 454.9458
v 2.5689 655.1292 437.987
v 7.0466 686.4087 457.531
v 21.7333 655.1292 449.0515
v 2.5689 686.4087 454.9458
v 21.7333 655.1292 449.0515
v 7.0466 686.4087 462.7014
v 21.7333 655.1292 471.1808
v 7.0466 686.4087 457.531
v 21.7333 655.1292 471.1808
v 2.5689 686.4087 465.2866
v 2.5689 655.1292 482.2453
v 7.0466 686.4087 462.7014
v 2.5689 655.1292 482.2453
v -1.9088 686.4087 462.7014
v -16.5955 655.1292 471.1808
v 2.5689 686.4087 465.2866
v -16.5955 655.1292 471.1808
v -1.9088 686.4087 457.531
v -16.5955 655.1292 449.0515
v -1.9088 686.4087 462.7014
v -16.5955 655.1292 449.0515
v 2.5689 686.4087 454.9458
v 2.5689 655.1292 437.987
v -1.9088 686.4087 457.531
v -221.4976 406.6216 -14.0674
v -436.7226 406.9999 -14.0674
v -436.7226 406.9999 2.1316
v -221.4976 406.6216 2.1316
v -436.7226 406.9999 -14.0674
v -436.7226 -0.0309 -14.0674
v -436.7226 -0.0309 2.1316
v -436.7226 406.9999 2.1316
v -402.2549 -0.0645 -14.0674
v -397.9859 101.2925 -14.0674
v -397.9859 101.2925 2.1316
v -402.2549 -0.0645 2.1316
v -397.9859 101.2925 -14.0674
v -383.3138 229.2509 -14.0674
v -383.3138 229.2509 2.1316
v -397.9859 101.2925 2.1316
v -383.3138 229.2509 -14.0674
v -332.005 325.6 -14.0674
v -332.005 325.6 2.1316
v -383.3138 229.2509 2.1316
v -332.005 325.6 -14.0674
v -221.4482 382.2441 -14.0674
v -221.4482 382.2441 2.1316
v -332.005 325.6 2.1316
v -221.4482 382.2441 -14.0674
v -221.4976 406.6216 -14.0674
v -221.4976 406.6216 2.1316
v -221.4482 382.2441 2.1316
v -221.4482 382.2441 -14.0674
v -436.7226 406.9999 -14.0674
v -221.4976 406.6216 -14.0674
v -332.005 325.6 -14.0674
v -402.2549 -0.0645 -14.0674
v -436.7226 -0.0309 -14.0674
v -397.9859 101.2925 -14.0674
v -383.3138 229.2509 -14.0674
v -221.4482 382.2441 2.1316
v -221.4976 406.6216 2.1316
v -436.7226 406.9999 2.1316
v -332.005 325.6 2.1316
v -436.7226 -0.0309 2.1316
v -402.2549 -0.0645 2.1316
v -397.9859 101.2925 2.1316
v -383.3138 229.2509 2.1316
v -429.8928 -0.0309 -4.432899
v -445.9365 565.1823 -32.2213
v -429.8928 565.1823 -4.432899
v -445.9365 -0.0309 -32.2213
v -478.0238 565.1823 -32.2213
v -478.0238 -0.0309 -32.2213
v -494.0674 565.1823 -4.432899
v -494.0674 -0.0309 -4.432899
v -478.0238 565.1823 23.3555
v -478.0238 -0.0309 23.3555
v -445.9365 565.1823 23.3555
v -445.9365 -0.0309 23.3555
v -429.8928 565.1823 -4.432899
v -445.9365 565.1823 -32.2213
v -450.9155 585.1252 -23.5973
v -439.851 585.1252 -4.432899
v -445.9365 565.1823 -32.2213
v -478.0238 565.1823 -32.2213
v -473.0447 585.1252 -23.5973
v -450.9155 585.1252 -23.5973
v -478.0238 565.1823 -32.2213
v -494.0674 565.1823 -4.432899
v -484.1093 585.1252 -4.432899
v -473.0447 585.1252 -23.5973
v -494.0674 565.1823 -4.432899
v -478.0238 565.1823 23.3555
v -473.0447 585.1252 14.7315
v -484.1093 585.1252 -4.432899
v -478.0238 565.1823 23.3555
v -445.9365 565.1823 23.3555
v -450.9155 585.1252 14.7315
v -473.0447 585.1252 14.7315
v -445.9365 565.1823 23.3555
v -429.8928 565.1823 -4.432899
v -439.851 585.1252 -4.432899
v -450.9155 585.1252 14.7315
v -439.851 585.1252 -4.432899
v -450.9155 585.1252 -23.5973
v -450.9155 655.1293 -23.5973
v -439.851 655.1293 -4.432899
v -450.9155 585.1252 -23.5973
v -473.0447 585.1252 -23.5973
v -473.0447 655.1293 -23.5973
v -450.9155 655.1293 -23.5973
v -473.0447 585.1252 -23.5973
v -484.1093 585.1252 -4.432899
v -484.1093 655.1293 -4.432899
v -473.0447 655.1293 -23.5973
v -484.1093 585.1252 -4.432899
v -473.0447 585.1252 14.7315
v -473.0447 655.1293 14.7315
v -484.1093 655.1293 -4.432899
v -473.0447 585.1252 14.7315
v -450.9155 585.1252 14.7315
v -450.9155 655.1293 14.7315
v -473.0447 655.1293 14.7315
v -450.9155 585.1252 14.7315
v -439.851 585.1252 -4.432899
v -439.851 655.1293 -4.432899
v -450.9155 655.1293 14.7315
v -456.8098 686.4088 -4.432899
v -459.395 686.4088 -8.910599
v -461.9801 800.0212 -4.432899
v -459.395 686.4088 -8.910599
v -464.5653 686.4088 -8.910599
v -461.9801 800.0212 -4.432899
v -464.5653 686.4088 -8.910599
v -467.1505 686.4088 -4.432899
v -461.9801 800.0212 -4.432899
v -467.1505 686.4088 -4.432899
v -464.5653 686.4088 0.0448
v -461.9801 800.0212 -4.432899
v -464.5653 686.4088 0.0448
v -459.395 686.4088 0.0448
v -461.9801 800.0212 -4.432899
v -459.395 686.4088 0.0448
v -456.8098 686.4088 -4.432899
v -461.9801 800.0212 -4.432899
v -439.851 655.1293 -4.432899
v -450.9155 655.1293 -23.5973
v -459.395 686.4088 -8.910599
v -456.8098 686.4088 -4.432899
v -450.9155 655.1293 -23.5973
v -473.0447 655.1293 -23.5973
v -464.5653 686.4088 -8.910599
v -459.395 686.4088 -8.910599
v -473.0447 655.1293 -23.5973
v -484.1093 655.1293 -4.432899
v -467.1505 686.4088 -4.432899
v -464.5653 686.4088 -8.910599
v -484.1093 655.1293 -4.432899
v -473.0447 655.1293 14.7315
v -464.5653 686.4088 0.0448
v -467.1505 686.4088 -4.432899
v -473.0447 655.1293 14.7315
v -450.9155 655.1293 14.7315
v -459.395 686.4088 0.0448
v -464.5653 686.4088 0.0448
v -450.9155 655.1293 14.7315
v -439.851 655.1293 -4.432899
v -456.8098 686.4088 -4.432899
v -459.395 686.4088 0.0448
vn 0.98736 0 -0.158494
vn 0.739528 0 -0.673126
vn 0.98736 0 0.158494
vn 0.491685 0 -0.870773
vn -0.065198 0 -0.997872
vn -0.374217 0 -0.927341
vn -0.820807 0 -0.571205
vn -0.958345 0 -0.285613
vn -0.958345 0 0.285613
vn -0.820807 0 0.571205
vn -0.374217 0 0.927341
vn -0.065198 0 0.997872
vn 0.491685 0 0.870773
vn 0.739528 0 0.673126
vn 0.445986 0.892172 -0.071598
vn 0.333991 0.892176 -0.304092
vn 0.445986 0.892172 0.071598
vn 0.222096 0.892185 -0.393293
vn -0.0294 0.892193 -0.450697
vn -0.168995 0.892174 -0.418888
vn -0.370786 0.892166 -0.25799
vn -0.432886 0.892171 -0.128996
vn -0.432886 0.892171 0.128996
vn -0.370786 0.892166 0.25799
vn -0.168995 0.892174 0.418888
vn -0.0294 0.892193 0.450697
vn 0.222096 0.892185 0.393293
vn 0.333991 0.892176 0.304092
vn 0.98736 0 -0.158494
vn 0.739528 0 -0.673126
vn 0.98736 0 0.158494
vn 0.491685 0 -0.870773
vn -0.065198 0 -0.997872
vn -0.374217 0 -0.927341
vn -0.820807 0 -0.571205
vn -0.958345 0 -0.285613
vn -0.958345 0 0.285613
vn -0.820807 0 0.571205
vn -0.374217 0 0.927341
vn -0.065198 0 0.997872
vn 0.491685 0 0.870773
vn 0.739528 0 0.673126
vn 0.523674 0.847758 -0.084096
vn 0.392193 0.847785 -0.356994
vn 0.523674 0.847758 0.084096
vn 0.260795 0.847783 -0.461791
vn -0.034598 0.847749 -0.529268
vn -0.198487 0.847744 -0.491867
vn -0.435368 0.847738 -0.302978
vn -0.508278 0.847764 -0.151494
vn -0.508278 0.847764 0.151494
vn -0.435368 0.847738 0.302978
vn -0.198487 0.847744 0.491867
vn -0.034598 0.847749 0.529268
vn 0.260795 0.847783 0.461791
vn 0.392193 0.847785 0.356994
vn 0.98736 0 -0.158494
vn 0.739528 0 -0.673126
vn 0.98736 0 0.158494
vn 0.491685 0 -0.870773
vn -0.065198 0 -0.997872
vn -0.374217 0 -0.927341
vn -0.820807 0 -0.571205
vn -0.958345 0 -0.285613
vn -0.958345 0 0.285613
vn -0.820807 0 0.571205
vn -0.374217 0 0.927341
vn -0.065198 0 0.997872
vn 0.491685 0 0.870773
vn 0.739528 0 0.673126
vn 0.828408 0.544105 -0.133001
vn 0.62048 0.544083 -0.564782
vn 0.828408 0.544105 0.133001
vn 0.412505 0.544106 -0.730608
vn -0.054702 0.544116 -0.837225
vn -0.314012 0.54412 -0.778029
vn -0.688705 0.544104 -0.479204
vn -0.804088 0.544092 -0.239596
vn -0.804088 0.544092 0.239596
vn -0.688705 0.544104 0.479204
vn -0.314012 0.54412 0.778029
vn -0.054702 0.544116 0.837225
vn 0.412505 0.544106 0.730608
vn 0.62048 0.544083 0.564782
vn 0.998425 0.056101 -0
vn 0.622503 0.0561 -0.780604
vn 0 1 -0
vn -0.222197 0.056099 -0.973387
vn -0.899541 0.056103 -0.43322
vn -0.899541 0.056103 0.43322
vn -0.222197 0.056099 0.973387
vn 0.622503 0.0561 0.780604
vn -0.0018 0.999999 -0
vn -0.0018 0.999999 -0
vn -0.0018 0.999999 -0
vn -0.0018 0.999999 -0
vn 1 0 -0
vn 1 0 -0
vn 1 0 -0
vn 1 0 -0
vn -0.999113 -0.042101 -0
vn -0.999113 -0.042101 -0
vn -0.999113 -0.042101 -0
vn -0.999113 -0.042101 -0
vn -0.993492 -0.113899 -0
vn -0.993492 -0.113899 -0
vn -0.993492 -0.113899 -0
vn -0.993492 -0.113899 -0
vn -0.882652 -0.470028 -0
vn -0.882652 -0.470028 -0
vn -0.882652 -0.470028 -0
vn -0.882652 -0.470028 -0
vn -0.455992 -0.889984 -0
vn -0.455992 -0.889984 -0
vn -0.455992 -0.889984 -0
vn -0.455992 -0.889984 -0
vn -0.999998 0.002 -0
vn -0.999998 0.002 -0
vn -0.999998 0.002 -0
vn -0.999998 0.002 -0
vn 0 0 -1
vn 0 0 -1
vn 0 0 -1
vn 0 0 -1
vn 0 0 -1
vn 0 0 -1
vn 0 0 -1
vn 0 0 -1
vn 0 0 1
vn 0 0 1
vn 0 0 1
vn 0 0 1
vn 0 0 1
vn 0 0 1
vn 0 0 1
vn 0 0 1
vn -0.981978 0 -0.188996
vn -0.981978 0 0.188996
vn -0.654694 0 -0.755894
vn -0.327306 0 -0.944918
vn 0.327306 0 -0.944918
vn 0.654694 0 -0.755894
vn 0.981978 0 -0.188996
vn 0.981978 0 0.188996
vn 0.654694 0 0.755894
vn 0.327306 0 0.944918
vn -0.327306 0 0.944918
vn -0.654694 0 0.755894
vn -0.794906 0.396903 -0.458904
vn -0.794906 0.396903 -0.458904
vn -0.794906 0.396903 -0.458904
vn -0.794906 0.396903 -0.458904
vn 0 0.396886 -0.917868
vn 0 0.396886 -0.917868
vn 0 0.396886 -0.917868
vn 0 0.396886 -0.917868
vn 0.794906 0.396903 -0.458904
vn 0.794906 0.396903 -0.458904
vn 0.794906 0.396903 -0.458904
vn 0.794906 0.396903 -0.458904
vn 0.794906 0.396903 0.458904
vn 0.794906 0.396903 0.458904
vn 0.794906 0.396903 0.458904
vn 0.794906 0.396903 0.458904
vn 0 0.396886 0.917868
vn 0 0.396886 0.917868
vn 0 0.396886 0.917868
vn 0 0.396886 0.917868
vn -0.794906 0.396903 0.458904
vn -0.794906 0.396903 0.458904
vn -0.794906 0.396903 0.458904
vn -0.794906 0.396903 0.458904
vn -0.866019 0 -0.500011
vn -0.866019 0 -0.500011
vn -0.866019 0 -0.500011
vn -0.866019 0 -0.500011
vn 0 0 -1
vn 0 0 -1
vn 0 0 -1
vn 0 0 -1
vn 0.866019 0 -0.500011
vn 0.866019 0 -0.500011
vn 0.866019 0 -0.500011
vn 0.866019 0 -0.500011
vn 0.866019 0 0.500011
vn 0.866019 0 0.500011
vn 0.866019 0 0.500011
vn 0.866019 0 0.500011
vn 0 0 1
vn 0 0 1
vn 0 0 1
vn 0 0 1
vn -0.866019 0 0.500011
vn -0.866019 0 0.500011
vn -0.866019 0 0.500011
vn -0.866019 0 0.500011
vn -0.86537 0.039399 -0.499583
vn -0.86537 0.039399 -0.499583
vn -0.86537 0.039399 -0.499583
vn 0 0.039401 -0.999224
vn 0 0.039401 -0.999224
vn 0 0.039401 -0.999224
vn 0.86537 0.039399 -0.499583
vn 0.86537 0.039399 -0.499583
vn 0.86537 0.039399 -0.499583
vn 0.86537 0.039399 0.499583
vn 0.86537 0.039399 0.499583
vn 0.86537 0.039399 0.499583
vn 0 0.039401 0.999224
vn 0 0.039401 0.999224
vn 0 0.039401 0.999224
vn -0.86537 0.039399 0.499583
vn -0.86537 0.039399 0.499583
vn -0.86537 0.039399 0.499583
vn -0.783912 0.425006 -0.452607
vn -0.783912 0.425006 -0.452607
vn -0.783912 0.425006 -0.452607
vn -0.783912 0.425006 -0.452607
vn 0 0.424998 -0.905195
vn 0 0.424998 -0.905195
vn 0 0.424998 -0.905195
vn 0 0.424998 -0.905195
vn 0.783912 0.425006 -0.452607
vn 0.783912 0.425006 -0.452607
vn 0.783912 0.425006 -0.452607
vn 0.783912 0.425006 -0.452607
vn 0.783912 0.425006 0.452607
vn 0.783912 0.425006 0.452607
vn 0.783912 0.425006 0.452607
vn 0.783912 0.425006 0.452607
vn 0 0.424998 0.905195
vn 0 0.424998 0.905195
vn 0 0.424998 0.905195
vn 0 0.424998 0.905195
vn -0.783912 0.425006 0.452607
vn -0.783912 0.425006 0.452607
vn -0.783912 0.425006 0.452607
vn -0.783912 0.425006 0.452607
vn 0 0.999999 0.0018
vn 0 0.999999 0.0018
vn 0 0.999999 0.0018
vn 0 0.999999 0.0018
vn 0 0 -1
vn 0 0 -1
vn 0 0 -1
vn 0 0 -1
vn 0 -0.042101 0.999113
vn 0 -0.042101 0.999113
vn 0 -0.042101 0.999113
vn 0 -0.042101 0.999113
vn 0 -0.113899 0.993492
vn 0 -0.113899 0.993492
vn 0 -0.113899 0.993492
vn 0 -0.113899 0.993492
vn 0 -0.470028 0.882652
vn 0 -0.470028 0.882652
vn 0 -0.470028 0.882652
vn 0 -0.470028 0.882652
vn 0 -0.889984 0.455992
vn 0 -0.889984 0.455992
vn 0 -0.889984 0.455992
vn 0 -0.889984 0.455992
vn 0 0.002 0.999998
vn 0 0.002 0.999998
vn 0 0.002 0.999998
vn 0 0.002 0.999998
vn -1 0 -0
vn -1 0 -0
vn -1 0 -0
vn -1 0 -0
vn -1 0 -0
vn -1 0 -0
vn -1 0 -0
vn -1 0 -0
vn 1 0 -0
vn 1 0 -0
vn 1 0 -0
vn 1 0 -0
vn 1 0 -0
vn 1 0 -0
vn 1 0 -0
vn 1 0 -0
vn -0.188996 0 0.981978
vn 0.188996 0 0.981978
vn -0.755894 0 0.654694
vn -0.944918 0 0.327306
vn -0.944918 0 -0.327306
vn -0.755894 0 -0.654694
vn -0.188996 0 -0.981978
vn 0.188996 0 -0.981978
vn 0.755894 0 -0.654694
vn 0.944918 0 -0.327306
vn 0.944918 0 0.327306
vn 0.755894 0 0.654694
vn -0.458904 0.396903 0.794906
vn -0.458904 0.396903 0.794906
vn -0.458904 0.396903 0.794906
vn -0.458904 0.396903 0.794906
vn -0.917868 0.396886 -0
vn -0.917868 0.396886 -0
vn -0.917868 0.396886 -0
vn -0.917868 0.396886 -0
vn -0.458904 0.396903 -0.794906
vn -0.458904 0.396903 -0.794906
vn -0.458904 0.396903 -0.794906
vn -0.458904 0.396903 -0.794906
vn 0.458904 0.396903 -0.794906
vn 0.458904 0.396903 -0.794906
vn 0.458904 0.396903 -0.794906
vn 0.458904 0.396903 -0.794906
vn 0.917868 0.396886 -0
vn 0.917868 0.396886 -0
vn 0.917868 0.396886 -0
vn 0.917868 0.396886 -0
vn 0.458904 0.396903 0.794906
vn 0.458904 0.396903 0.794906
vn 0.458904 0.396903 0.794906
vn 0.458904 0.396903 0.794906
vn -0.500011 0 0.866019
vn -0.500011 0 0.866019
vn -0.500011 0 0.866019
vn -0.500011 0 0.866019
vn -1 0 -0
vn -1 0 -0
vn -1 0 -0
vn -1 0 -0
vn -0.500011 0 -0.866019
vn -0.500011 0 -0.866019
vn -0.500011 0 -0.866019
vn -0.500011 0 -0.866019
vn 0.500011 0 -0.866019
vn 0.500011 0 -0.866019
vn 0.500011 0 -0.866019
vn 0.500011 0 -0.866019
vn 1 0 -0
vn 1 0 -0
vn 1 0 -0
vn 1 0 -0
vn 0.500011 0 0.866019
vn 0.500011 0 0.866019
vn 0.500011 0 0.866019
vn 0.500011 0 0.866019
vn -0.499583 0.039399 0.86537
vn -0.499583 0.039399 0.86537
vn -0.499583 0.039399 0.86537
vn -0.999224 0.039401 -0
vn -0.999224 0.039401 -0
vn -0.999224 0.039401 -0
vn -0.499583 0.039399 -0.86537
vn -0.499583 0.039399 -0.86537
vn -0.499583 0.039399 -0.86537
vn 0.499583 0.039399 -0.86537
vn 0.499583 0.039399 -0.86537
vn 0.499583 0.039399 -0.86537
vn 0.999224 0.039401 -0
vn 0.999224 0.039401 -0
vn 0.999224 0.039401 -0
vn 0.499583 0.039399 0.86537
vn 0.499583 0.039399 0.86537
vn 0.499583 0.039399 0.86537
vn -0.452607 0.425006 0.783912
vn -0.452607 0.425006 0.783912
vn -0.452607 0.425006 0.783912
vn -0.452607 0.425006 0.783912
vn -0.905195 0.424998 -0
vn -0.905195 0.424998 -0
vn -0.905195 0.424998 -0
vn -0.905195 0.424998 -0
vn -0.452607 0.425006 -0.783912
vn -0.452607 0.425006 -0.783912
vn -0.452607 0.425006 -0.783912
vn -0.452607 0.425006 -0.783912
vn 0.452607 0.425006 -0.783912
vn 0.452607 0.425006 -0.783912
vn 0.452607 0.425006 -0.783912
vn 0.452607 0.425006 -0.783912
vn 0.905195 0.424998 -0
vn 0.905195 0.424998 -0
vn 0.905195 0.424998 -0
vn 0.905195 0.424998 -0
vn 0.452607 0.425006 0.783912
vn 0.452607 0.425006 0.783912
vn 0.452607 0.425006 0.783912
vn 0.452607 0.425006 0.783912
vn 0 0.999999 -0.0018
vn 0 0.999999 -0.0018
vn 0 0.999999 -0.0018
vn 0 0.999999 -0.0018
vn 0 0 1
vn 0 0 1
vn 0 0 1
vn 0 0 1
vn 0 -0.042101 -0.999113
vn 0 -0.042101 -0.999113
vn 0 -0.042101 -0.999113
vn 0 -0.042101 -0.999113
vn 0 -0.113899 -0.993492
vn 0 -0.113899 -0.993492
vn 0 -0.113899 -0.993492
vn 0 -0.113899 -0.993492
vn 0 -0.470028 -0.882652
vn 0 -0.470028 -0.882652
vn 0 -0.470028 -0.882652
vn 0 -0.470028 -0.882652
vn 0 -0.889984 -0.455992
vn 0 -0.889984 -0.455992
vn 0 -0.889984 -0.455992
vn 0 -0.889984 -0.455992
vn 0 0.002 -0.999998
vn 0 0.002 -0.999998
vn 0 0.002 -0.999998
vn 0 0.002 -0.999998
vn 1 0 -0
vn 1 0 -0
vn 1 0 -0
vn 1 0 -0
vn 1 0 -0
vn 1 0 -0
vn 1 0 -0
vn 1 0 -0
vn -1 0 -0
vn -1 0 -0
vn -1 0 -0
vn -1 0 -0
vn -1 0 -0
vn -1 0 -0
vn -1 0 -0
vn -1 0 -0
vn 0.188996 0 -0.981978
vn -0.188996 0 -0.981978
vn 0.755894 0 -0.654694
vn 0.944918 0 -0.327306
vn 0.944918 0 0.327306
vn 0.755894 0 0.654694
vn 0.188996 0 0.981978
vn -0.188996 0 0.981978
vn -0.755894 0 0.654694
vn -0.944918 0 0.327306
vn -0.944918 0 -0.327306
vn -0.755894 0 -0.654694
vn 0.458904 0.396903 -0.794906
vn 0.458904 0.396903 -0.794906
vn 0.458904 0.396903 -0.794906
vn 0.458904 0.396903 -0.794906
vn 0.917868 0.396886 -0
vn 0.917868 0.396886 -0
vn 0.917868 0.396886 -0
vn 0.917868 0.396886 -0
vn 0.458904 0.396903 0.794906
vn 0.458904 0.396903 0.794906
vn 0.458904 0.396903 0.794906
vn 0.458904 0.396903 0.794906
vn -0.458904 0.396903 0.794906
vn -0.458904 0.396903 0.794906
vn -0.458904 0.396903 0.794906
vn -0.458904 0.396903 0.794906
vn -0.917868 0.396886 -0
vn -0.917868 0.396886 -0
vn -0.917868 0.396886 -0
vn -0.917868 0.396886 -0
vn -0.458904 0.396903 -0.794906
vn -0.458904 0.396903 -0.794906
vn -0.458904 0.396903 -0.794906
vn -0.458904 0.396903 -0.794906
vn 0.500011 0 -0.866019
vn 0.500011 0 -0.866019
vn 0.500011 0 -0.866019
vn 0.500011 0 -0.866019
vn 1 0 -0
vn 1 0 -0
vn 1 0 -0
vn 1 0 -0
vn 0.500011 0 0.866019
vn 0.500011 0 0.866019
vn 0.500011 0 0.866019
vn 0.500011 0 0.866019
vn -0.500011 0 0.866019
vn -0.500011 0 0.866019
vn -0.500011 0 0.866019
vn -0.500011 0 0.866019
vn -1 0 -0
vn -1 0 -0
vn -1 0 -0
vn -1 0 -0
vn -0.500011 0 -0.866019
vn -0.500011 0 -0.866019
vn -0.500011 0 -0.866019
vn -0.500011 0 -0.866019
vn 0.499583 0.039399 -0.86537
vn 0.499583 0.039399 -0.86537
vn 0.499583 0.039399 -0.86537
vn 0.999224 0.039401 -0
vn 0.999224 0.039401 -0
vn 0.999224 0.039401 -0
vn 0.499583 0.039399 0.86537
vn 0.499583 0.039399 0.86537
vn 0.499583 0.039399 0.86537
vn -0.499583 0.039399 0.86537
vn -0.499583 0.039399 0.86537
vn -0.499583 0.039399 0.86537
vn -0.999224 0.039401 -0
vn -0.999224 0.039401 -0
vn -0.999224 0.039401 -0
vn -0.499583 0.039399 -0.86537
vn -0.499583 0.039399 -0.86537
vn -0.499583 0.039399 -0.86537
vn 0.452607 0.425006 -0.783912
vn 0.452607 0.425006 -0.783912
vn 0.452607 0.425006 -0.783912
vn 0.452607 0.425006 -0.783912
vn 0.905195 0.424998 -0
vn 0.905195 0.424998 -0
vn 0.905195 0.424998 -0
vn 0.905195 0.424998 -0
vn 0.452607 0.425006 0.783912
vn 0.452607 0.425006 0.783912
vn 0.452607 0.425006 0.783912
vn 0.452607 0.425006 0.783912
vn -0.452607 0.425006 0.783912
vn -0.452607 0.425006 0.783912
vn -0.452607 0.425006 0.783912
vn -0.452607 0.425006 0.783912
vn -0.905195 0.424998 -0
vn -0.905195 0.424998 -0
vn -0.905195 0.424998 -0
vn -0.905195 0.424998 -0
vn -0.452607 0.425006 -0.783912
vn -0.452607 0.425006 -0.783912
vn -0.452607 0.425006 -0.783912
vn -0.452607 0.425006 -0.783912
vn 0.0018 0.999999 -0
vn 0.0018 0.999999 -0
vn 0.0018 0.999999 -0
vn 0.0018 0.999999 -0
vn -1 0 -0
vn -1 0 -0
vn -1 0 -0
vn -1 0 -0
vn 0.999113 -0.042101 -0
vn 0.999113 -0.042101 -0
vn 0.999113 -0.042101 -0
vn 0.999113 -0.042101 -0
vn 0.993492 -0.113899 -0
vn 0.993492 -0.113899 -0
vn 0.993492 -0.113899 -0
vn 0.993492 -0.113899 -0
vn 0.882652 -0.470028 -0
vn 0.882652 -0.470028 -0
vn 0.882652 -0.470028 -0
vn 0.882652 -0.470028 -0
vn 0.455992 -0.889984 -0
vn 0.455992 -0.889984 -0
vn 0.455992 -0.889984 -0
vn 0.455992 -0.889984 -0
vn 0.999998 0.002 -0
vn 0.999998 0.002 -0
vn 0.999998 0.002 -0
vn 0.999998 0.002 -0
vn 0 0 -1
vn 0 0 -1
vn 0 0 -1
vn 0 0 -1
vn 0 0 -1
vn 0 0 -1
vn 0 0 -1
vn 0 0 -1
vn 0 0 1
vn 0 0 1
vn 0 0 1
vn 0 0 1
vn 0 0 1
vn 0 0 1
vn 0 0 1
vn 0 0 1
vn 0.981978 0 -0.188996
vn 0.654694 0 -0.755894
vn 0.981978 0 0.188996
vn 0.327306 0 -0.944918
vn -0.327306 0 -0.944918
vn -0.654694 0 -0.755894
vn -0.981978 0 -0.188996
vn -0.981978 0 0.188996
vn -0.654694 0 0.755894
vn -0.327306 0 0.944918
vn 0.327306 0 0.944918
vn 0.654694 0 0.755894
vn 0.794906 0.396903 -0.458904
vn 0.794906 0.396903 -0.458904
vn 0.794906 0.396903 -0.458904
vn 0.794906 0.396903 -0.458904
vn 0 0.396886 -0.917868
vn 0 0.396886 -0.917868
vn 0 0.396886 -0.917868
vn 0 0.396886 -0.917868
vn -0.794906 0.396903 -0.458904
vn -0.794906 0.396903 -0.458904
vn -0.794906 0.396903 -0.458904
vn -0.794906 0.396903 -0.458904
vn -0.794906 0.396903 0.458904
vn -0.794906 0.396903 0.458904
vn -0.794906 0.396903 0.458904
vn -0.794906 0.396903 0.458904
vn 0 0.396886 0.917868
vn 0 0.396886 0.917868
vn 0 0.396886 0.917868
vn 0 0.396886 0.917868
vn 0.794906 0.396903 0.458904
vn 0.794906 0.396903 0.458904
vn 0.794906 0.396903 0.458904
vn 0.794906 0.396903 0.458904
vn 0.866019 0 -0.500011
vn 0.866019 0 -0.500011
vn 0.866019 0 -0.500011
vn 0.866019 0 -0.500011
vn 0 0 -1
vn 0 0 -1
vn 0 0 -1
vn 0 0 -1
vn -0.866019 0 -0.500011
vn -0.866019 0 -0.500011
vn -0.866019 0 -0.500011
vn -0.866019 0 -0.500011
vn -0.866019 0 0.500011
vn -0.866019 0 0.500011
vn -0.866019 0 0.500011
vn -0.866019 0 0.500011
vn 0 0 1
vn 0 0 1
vn 0 0 1
vn 0 0 1
vn 0.866019 0 0.500011
vn 0.866019 0 0.500011
vn 0.866019 0 0.500011
vn 0.866019 0 0.500011
vn 0.86537 0.039399 -0.499583
vn 0.86537 0.039399 -0.499583
vn 0.86537 0.039399 -0.499583
vn 0 0.039401 -0.999224
vn 0 0.039401 -0.999224
vn 0 0.039401 -0.999224
vn -0.86537 0.039399 -0.499583
vn -0.86537 0.039399 -0.499583
vn -0.86537 0.039399 -0.499583
vn -0.86537 0.039399 0.499583
vn -0.86537 0.039399 0.499583
vn -0.86537 0.039399 0.499583
vn 0 0.039401 0.999224
vn 0 0.039401 0.999224
vn 0 0.039401 0.999224
vn 0.86537 0.039399 0.499583
vn 0.86537 0.039399 0.499583
vn 0.86537 0.039399 0.499583
vn 0.783912 0.425006 -0.452607
vn 0.783912 0.425006 -0.452607
vn 0.783912 0.425006 -0.452607
vn 0.783912 0.425006 -0.452607
vn 0 0.424998 -0.905195
vn 0 0.424998 -0.905195
vn 0 0.424998 -0.905195
vn 0 0.424998 -0.905195
vn -0.783912 0.425006 -0.452607
vn -0.783912 0.425006 -0.452607
vn -0.783912 0.425006 -0.452607
vn -0.783912 0.425006 -0.452607
vn -0.783912 0.425006 0.452607
vn -0.783912 0.425006 0.452607
vn -0.783912 0.425006 0.452607
vn -0.783912 0.425006 0.452607
vn 0 0.424998 0.905195
vn 0 0.424998 0.905195
vn 0 0.424998 0.905195
vn 0 0.424998 0.905195
vn 0.783912 0.425006 0.452607
vn 0.783912 0.425006 0.452607
vn 0.783912 0.425006 0.452607
vn 0.783912 0.425006 0.452607
vt 0.7393 0.0005
vt 0.6492 0.5094
vt 0.7393 0.5094
vt 0.6492 0.0005
vt 0.4468 0.5094
vt 0.4468 0.0005
vt 0.2844 0.5094
vt 0.2844 0.0005
vt 0.2844 0.5094
vt 0.2844 0.0005
vt 0.4468 0.5094
vt 0.4468 0.0005
vt 0.6492 0.5094
vt 0.6492 0.0005
vt 0.7393 0.5094
vt 0.6203 0.5351
vt 0.693 0.5351
vt 0.6492 0.5094
vt 0.4571 0.5351
vt 0.4468 0.5094
vt 0.3261 0.5351
vt 0.2844 0.5094
vt 0.3261 0.5351
vt 0.2844 0.5094
vt 0.4571 0.5351
vt 0.4468 0.5094
vt 0.6203 0.5351
vt 0.6492 0.5094
vt 0.693 0.5351
vt 0.6203 0.6198
vt 0.693 0.6198
vt 0.6203 0.5351
vt 0.4571 0.6198
vt 0.4571 0.5351
vt 0.3261 0.6198
vt 0.3261 0.5351
vt 0.3261 0.6198
vt 0.3261 0.5351
vt 0.4571 0.6198
vt 0.4571 0.5351
vt 0.6203 0.6198
vt 0.6203 0.5351
vt 0.693 0.6198
vt 0.5197 0.7304
vt 0.5316 0.7304
vt 0.6203 0.6198
vt 0.493 0.7304
vt 0.4571 0.6198
vt 0.4715 0.7304
vt 0.3261 0.6198
vt 0.4715 0.7304
vt 0.3261 0.6198
vt 0.493 0.7304
vt 0.4571 0.6198
vt 0.5197 0.7304
vt 0.6203 0.6198
vt 0.5316 0.7304
vt 0.5197 0.8096
vt 0.5316 0.8096
vt 0.5197 0.7304
vt 0.493 0.8096
vt 0.493 0.7304
vt 0.4715 0.8096
vt 0.4715 0.7304
vt 0.4715 0.8096
vt 0.4715 0.7304
vt 0.493 0.8096
vt 0.493 0.7304
vt 0.5197 0.8096
vt 0.5197 0.7304
vt 0.5316 0.8096
vt 0.5047 0.8503
vt 0.5076 0.8503
vt 0.5197 0.8096
vt 0.4983 0.8503
vt 0.493 0.8096
vt 0.4932 0.8503
vt 0.4715 0.8096
vt 0.4932 0.8503
vt 0.4715 0.8096
vt 0.4983 0.8503
vt 0.493 0.8096
vt 0.5047 0.8503
vt 0.5197 0.8096
vt 0.5076 0.8503
vt 0.5047 0.8503
vt 0.5 0.9995
vt 0.4983 0.8503
vt 0.4932 0.8503
vt 0.4932 0.8503
vt 0.4983 0.8503
vt 0.5047 0.8503
vt 0.7188 0.4656
vt 0.9404 0.466
vt 0.9404 0.466
vt 0.7188 0.4656
vt 0.9404 0.466
vt 0.9404 0.0005
vt 0.9404 0.0005
vt 0.9404 0.466
vt 0.9049 0.0005
vt 0.9005 0.1164
vt 0.9005 0.1164
vt 0.9049 0.0005
vt 0.9005 0.1164
vt 0.8854 0.2628
vt 0.8854 0.2628
vt 0.9005 0.1164
vt 0.8854 0.2628
vt 0.8326 0.3729
vt 0.8326 0.3729
vt 0.8854 0.2628
vt 0.8326 0.3729
vt 0.7187 0.4377
vt 0.7187 0.4377
vt 0.8326 0.3729
vt 0.7187 0.4377
vt 0.7188 0.4656
vt 0.7188 0.4656
vt 0.7187 0.4377
vt 0.7187 0.4377
vt 0.7188 0.4656
vt 0.9404 0.466
vt 0.8326 0.3729
vt 0.9404 0.0005
vt 0.9049 0.0005
vt 0.9005 0.1164
vt 0.8854 0.2628
vt 0.7187 0.4377
vt 0.9404 0.466
vt 0.7188 0.4656
vt 0.8326 0.3729
vt 0.9049 0.0005
vt 0.9404 0.0005
vt 0.9005 0.1164
vt 0.8854 0.2628
vt 0.9334 0.0005
vt 0.9334 0.6469
vt 0.9499 0.6469
vt 0.9499 0.0005
vt 0.983 0.6469
vt 0.983 0.0005
vt 0.9995 0.6469
vt 0.9995 0.0005
vt 0.983 0.6469
vt 0.983 0.0005
vt 0.9499 0.6469
vt 0.9499 0.0005
vt 0.9334 0.6469
vt 0.9551 0.6697
vt 0.9499 0.6469
vt 0.9437 0.6697
vt 0.9499 0.6469
vt 0.9778 0.6697
vt 0.983 0.6469
vt 0.9551 0.6697
vt 0.983 0.6469
vt 0.9892 0.6697
vt 0.9995 0.6469
vt 0.9778 0.6697
vt 0.9995 0.6469
vt 0.9778 0.6697
vt 0.983 0.6469
vt 0.9892 0.6697
vt 0.983 0.6469
vt 0.9551 0.6697
vt 0.9499 0.6469
vt 0.9778 0.6697
vt 0.9499 0.6469
vt 0.9437 0.6697
vt 0.9334 0.6469
vt 0.9551 0.6697
vt 0.9437 0.6697
vt 0.9551 0.7498
vt 0.9551 0.6697
vt 0.9437 0.7498
vt 0.9551 0.6697
vt 0.9778 0.7498
vt 0.9778 0.6697
vt 0.9551 0.7498
vt 0.9778 0.6697
vt 0.9892 0.7498
vt 0.9892 0.6697
vt 0.9778 0.7498
vt 0.9892 0.6697
vt 0.9778 0.7498
vt 0.9778 0.6697
vt 0.9892 0.7498
vt 0.9778 0.6697
vt 0.9551 0.7498
vt 0.9551 0.6697
vt 0.9778 0.7498
vt 0.9551 0.6697
vt 0.9437 0.7498
vt 0.9437 0.6697
vt 0.9551 0.7498
vt 0.9611 0.7856
vt 0.9665 0.9155
vt 0.9638 0.7856
vt 0.9638 0.7856
vt 0.9665 0.9155
vt 0.9691 0.7856
vt 0.9691 0.7856
vt 0.9665 0.9155
vt 0.9718 0.7856
vt 0.9718 0.7856
vt 0.9665 0.9155
vt 0.9691 0.7856
vt 0.9691 0.7856
vt 0.9665 0.9155
vt 0.9638 0.7856
vt 0.9638 0.7856
vt 0.9665 0.9155
vt 0.9611 0.7856
vt 0.9437 0.7498
vt 0.9638 0.7856
vt 0.9551 0.7498
vt 0.9611 0.7856
vt 0.9551 0.7498
vt 0.9691 0.7856
vt 0.9778 0.7498
vt 0.9638 0.7856
vt 0.9778 0.7498
vt 0.9718 0.7856
vt 0.9892 0.7498
vt 0.9691 0.7856
vt 0.9892 0.7498
vt 0.9691 0.7856
vt 0.9778 0.7498
vt 0.9718 0.7856
vt 0.9778 0.7498
vt 0.9638 0.7856
vt 0.9551 0.7498
vt 0.9691 0.7856
vt 0.9551 0.7498
vt 0.9611 0.7856
vt 0.9437 0.7498
vt 0.9638 0.7856
vt 0.478 0.4656
vt 0.4947 0.466
vt 0.478 0.466
vt 0.4947 0.4656
vt 0.478 0.466
vt 0.4947 0.0005
vt 0.478 0.0005
vt 0.4947 0.466
vt 0.478 0.0005
vt 0.4947 0.1164
vt 0.478 0.1164
vt 0.4947 0.0005
vt 0.478 0.1164
vt 0.4947 0.2628
vt 0.478 0.2628
vt 0.4947 0.1164
vt 0.478 0.2628
vt 0.4947 0.3729
vt 0.478 0.3729
vt 0.4947 0.2628
vt 0.478 0.3729
vt 0.4947 0.4377
vt 0.478 0.4377
vt 0.4947 0.3729
vt 0.478 0.4377
vt 0.4947 0.4656
vt 0.478 0.4656
vt 0.4947 0.4377
vt 0.478 0.4377
vt 0.478 0.4656
vt 0.478 0.466
vt 0.478 0.3729
vt 0.478 0.0005
vt 0.478 0.0005
vt 0.478 0.1164
vt 0.478 0.2628
vt 0.4947 0.4377
vt 0.4947 0.466
vt 0.4947 0.4656
vt 0.4947 0.3729
vt 0.4947 0.0005
vt 0.4947 0.0005
vt 0.4947 0.1164
vt 0.4947 0.2628
vt 0.488 0.0005
vt 0.488 0.6469
vt 0.4593 0.6469
vt 0.4593 0.0005
vt 0.4593 0.6469
vt 0.4593 0.0005
vt 0.488 0.6469
vt 0.488 0.0005
vt 0.5166 0.6469
vt 0.5166 0.0005
vt 0.5166 0.6469
vt 0.5166 0.0005
vt 0.488 0.6469
vt 0.4682 0.6697
vt 0.4593 0.6469
vt 0.488 0.6697
vt 0.4593 0.6469
vt 0.4682 0.6697
vt 0.4593 0.6469
vt 0.4682 0.6697
vt 0.4593 0.6469
vt 0.488 0.6697
vt 0.488 0.6469
vt 0.4682 0.6697
vt 0.488 0.6469
vt 0.5077 0.6697
vt 0.5166 0.6469
vt 0.488 0.6697
vt 0.5166 0.6469
vt 0.5077 0.6697
vt 0.5166 0.6469
vt 0.5077 0.6697
vt 0.5166 0.6469
vt 0.488 0.6697
vt 0.488 0.6469
vt 0.5077 0.6697
vt 0.488 0.6697
vt 0.4682 0.7498
vt 0.4682 0.6697
vt 0.488 0.7498
vt 0.4682 0.6697
vt 0.4682 0.7498
vt 0.4682 0.6697
vt 0.4682 0.7498
vt 0.4682 0.6697
vt 0.488 0.7498
vt 0.488 0.6697
vt 0.4682 0.7498
vt 0.488 0.6697
vt 0.5077 0.7498
vt 0.5077 0.6697
vt 0.488 0.7498
vt 0.5077 0.6697
vt 0.5077 0.7498
vt 0.5077 0.6697
vt 0.5077 0.7498
vt 0.5077 0.6697
vt 0.488 0.7498
vt 0.488 0.6697
vt 0.5077 0.7498
vt 0.488 0.7856
vt 0.488 0.9155
vt 0.4834 0.7856
vt 0.4834 0.7856
vt 0.488 0.9155
vt 0.4834 0.7856
vt 0.4834 0.7856
vt 0.488 0.9155
vt 0.488 0.7856
vt 0.488 0.7856
vt 0.488 0.9155
vt 0.4926 0.7856
vt 0.4926 0.7856
vt 0.488 0.9155
vt 0.4926 0.7856
vt 0.4926 0.7856
vt 0.488 0.9155
vt 0.488 0.7856
vt 0.488 0.7498
vt 0.4834 0.7856
vt 0.4682 0.7498
vt 0.488 0.7856
vt 0.4682 0.7498
vt 0.4834 0.7856
vt 0.4682 0.7498
vt 0.4834 0.7856
vt 0.4682 0.7498
vt 0.488 0.7856
vt 0.488 0.7498
vt 0.4834 0.7856
vt 0.488 0.7498
vt 0.4926 0.7856
vt 0.5077 0.7498
vt 0.488 0.7856
vt 0.5077 0.7498
vt 0.4926 0.7856
vt 0.5077 0.7498
vt 0.4926 0.7856
vt 0.5077 0.7498
vt 0.488 0.7856
vt 0.488 0.7498
vt 0.4926 0.7856
vt 0.522 0.4656
vt 0.5053 0.466
vt 0.522 0.466
vt 0.5053 0.4656
vt 0.522 0.466
vt 0.5053 0.0005
vt 0.522 0.0005
vt 0.5053 0.466
vt 0.522 0.0005
vt 0.5053 0.1164
vt 0.522 0.1164
vt 0.5053 0.0005
vt 0.522 0.1164
vt 0.5053 0.2628
vt 0.522 0.2628
vt 0.5053 0.1164
vt 0.522 0.2628
vt 0.5053 0.3729
vt 0.522 0.3729
vt 0.5053 0.2628
vt 0.522 0.3729
vt 0.5053 0.4377
vt 0.522 0.4377
vt 0.5053 0.3729
vt 0.522 0.4377
vt 0.5053 0.4656
vt 0.522 0.4656
vt 0.5053 0.4377
vt 0.522 0.4377
vt 0.522 0.4656
vt 0.522 0.466
vt 0.522 0.3729
vt 0.522 0.0005
vt 0.522 0.0005
vt 0.522 0.1164
vt 0.522 0.2628
vt 0.5053 0.4377
vt 0.5053 0.466
vt 0.5053 0.4656
vt 0.5053 0.3729
vt 0.5053 0.0005
vt 0.5053 0.0005
vt 0.5053 0.1164
vt 0.5053 0.2628
vt 0.512 0.0005
vt 0.512 0.6469
vt 0.5407 0.6469
vt 0.5407 0.0005
vt 0.5407 0.6469
vt 0.5407 0.0005
vt 0.512 0.6469
vt 0.512 0.0005
vt 0.4834 0.6469
vt 0.4834 0.0005
vt 0.4834 0.6469
vt 0.4834 0.0005
vt 0.512 0.6469
vt 0.5318 0.6697
vt 0.5407 0.6469
vt 0.512 0.6697
vt 0.5407 0.6469
vt 0.5318 0.6697
vt 0.5407 0.6469
vt 0.5318 0.6697
vt 0.5407 0.6469
vt 0.512 0.6697
vt 0.512 0.6469
vt 0.5318 0.6697
vt 0.512 0.6469
vt 0.4923 0.6697
vt 0.4834 0.6469
vt 0.512 0.6697
vt 0.4834 0.6469
vt 0.4923 0.6697
vt 0.4834 0.6469
vt 0.4923 0.6697
vt 0.4834 0.6469
vt 0.512 0.6697
vt 0.512 0.6469
vt 0.4923 0.6697
vt 0.512 0.6697
vt 0.5318 0.7498
vt 0.5318 0.6697
vt 0.512 0.7498
vt 0.5318 0.6697
vt 0.5318 0.7498
vt 0.5318 0.6697
vt 0.5318 0.7498
vt 0.5318 0.6697
vt 0.512 0.7498
vt 0.512 0.6697
vt 0.5318 0.7498
vt 0.512 0.6697
vt 0.4923 0.7498
vt 0.4923 0.6697
vt 0.512 0.7498
vt 0.4923 0.6697
vt 0.4923 0.7498
vt 0.4923 0.6697
vt 0.4923 0.7498
vt 0.4923 0.6697
vt 0.512 0.7498
vt 0.512 0.6697
vt 0.4923 0.7498
vt 0.512 0.7856
vt 0.512 0.9155
vt 0.5166 0.7856
vt 0.5166 0.7856
vt 0.512 0.9155
vt 0.5166 0.7856
vt 0.5166 0.7856
vt 0.512 0.9155
vt 0.512 0.7856
vt 0.512 0.7856
vt 0.512 0.9155
vt 0.5074 0.7856
vt 0.5074 0.7856
vt 0.512 0.9155
vt 0.5074 0.7856
vt 0.5074 0.7856
vt 0.512 0.9155
vt 0.512 0.7856
vt 0.512 0.7498
vt 0.5166 0.7856
vt 0.5318 0.7498
vt 0.512 0.7856
vt 0.5318 0.7498
vt 0.5166 0.7856
vt 0.5318 0.7498
vt 0.5166 0.7856
vt 0.5318 0.7498
vt 0.512 0.7856
vt 0.512 0.7498
vt 0.5166 0.7856
vt 0.512 0.7498
vt 0.5074 0.7856
vt 0.4923 0.7498
vt 0.512 0.7856
vt 0.4923 0.7498
vt 0.5074 0.7856
vt 0.4923 0.7498
vt 0.5074 0.7856
vt 0.4923 0.7498
vt 0.512 0.7856
vt 0.512 0.7498
vt 0.5074 0.7856
vt 0.2812 0.4656
vt 0.0596 0.466
vt 0.0596 0.466
vt 0.2812 0.4656
vt 0.0596 0.466
vt 0.0596 0.0005
vt 0.0596 0.0005
vt 0.0596 0.466
vt 0.0951 0.0005
vt 0.0995 0.1164
vt 0.0995 0.1164
vt 0.0951 0.0005
vt 0.0995 0.1164
vt 0.1146 0.2628
vt 0.1146 0.2628
vt 0.0995 0.1164
vt 0.1146 0.2628
vt 0.1674 0.3729
vt 0.1674 0.3729
vt 0.1146 0.2628
vt 0.1674 0.3729
vt 0.2813 0.4377
vt 0.2813 0.4377
vt 0.1674 0.3729
vt 0.2813 0.4377
vt 0.2812 0.4656
vt 0.2812 0.4656
vt 0.2813 0.4377
vt 0.2813 0.4377
vt 0.0596 0.466
vt 0.2812 0.4656
vt 0.1674 0.3729
vt 0.0951 0.0005
vt 0.0596 0.0005
vt 0.0995 0.1164
vt 0.1146 0.2628
vt 0.2813 0.4377
vt 0.2812 0.4656
vt 0.0596 0.466
vt 0.1674 0.3729
vt 0.0596 0.0005
vt 0.0951 0.0005
vt 0.0995 0.1164
vt 0.1146 0.2628
vt 0.0666 0.0005
vt 0.0501 0.6469
vt 0.0666 0.6469
vt 0.0501 0.0005
vt 0.017 0.6469
vt 0.017 0.0005
vt 0.0005 0.6469
vt 0.0005 0.0005
vt 0.017 0.6469
vt 0.017 0.0005
vt 0.0501 0.6469
vt 0.0501 0.0005
vt 0.0666 0.6469
vt 0.0501 0.6469
vt 0.0449 0.6697
vt 0.0563 0.6697
vt 0.0501 0.6469
vt 0.017 0.6469
vt 0.0222 0.6697
vt 0.0449 0.6697
vt 0.017 0.6469
vt 0.0005 0.6469
vt 0.0108 0.6697
vt 0.0222 0.6697
vt 0.0005 0.6469
vt 0.017 0.6469
vt 0.0222 0.6697
vt 0.0108 0.6697
vt 0.017 0.6469
vt 0.0501 0.6469
vt 0.0449 0.6697
vt 0.0222 0.6697
vt 0.0501 0.6469
vt 0.0666 0.6469
vt 0.0563 0.6697
vt 0.0449 0.6697
vt 0.0563 0.6697
vt 0.0449 0.6697
vt 0.0449 0.7498
vt 0.0563 0.7498
vt 0.0449 0.6697
vt 0.0222 0.6697
vt 0.0222 0.7498
vt 0.0449 0.7498
vt 0.0222 0.6697
vt 0.0108 0.6697
vt 0.0108 0.7498
vt 0.0222 0.7498
vt 0.0108 0.6697
vt 0.0222 0.6697
vt 0.0222 0.7498
vt 0.0108 0.7498
vt 0.0222 0.6697
vt 0.0449 0.6697
vt 0.0449 0.7498
vt 0.0222 0.7498
vt 0.0449 0.6697
vt 0.0563 0.6697
vt 0.0563 0.7498
vt 0.0449 0.7498
vt 0.0389 0.7856
vt 0.0362 0.7856
vt 0.0335 0.9155
vt 0.0362 0.7856
vt 0.0309 0.7856
vt 0.0335 0.9155
vt 0.0309 0.7856
vt 0.0282 0.7856
vt 0.0335 0.9155
vt 0.0282 0.7856
vt 0.0309 0.7856
vt 0.0335 0.9155
vt 0.0309 0.7856
vt 0.0362 0.7856
vt 0.0335 0.9155
vt 0.0362 0.7856
vt 0.0389 0.7856
vt 0.0335 0.9155
vt 0.0563 0.7498
vt 0.0449 0.7498
vt 0.0362 0.7856
vt 0.0389 0.7856
vt 0.0449 0.7498
vt 0.0222 0.7498
vt 0.0309 0.7856
vt 0.0362 0.7856
vt 0.0222 0.7498
vt 0.0108 0.7498
vt 0.0282 0.7856
vt 0.0309 0.7856
vt 0.0108 0.7498
vt 0.0222 0.7498
vt 0.0309 0.7856
vt 0.0282 0.7856
vt 0.0222 0.7498
vt 0.0449 0.7498
vt 0.0362 0.7856
vt 0.0309 0.7856
vt 0.0449 0.7498
vt 0.0563 0.7498
vt 0.0389 0.7856
vt 0.0362 0.7856
f 1/1/1 3/3/3 2/2/2
f 1/1/1 2/2/2 4/4/4
f 4/4/4 2/2/2 5/5/5
f 4/4/4 5/5/5 6/6/6
f 6/6/6 5/5/5 7/7/7
f 6/6/6 7/7/7 8/8/8
f 8/8/8 7/7/7 9/9/9
f 8/8/8 9/9/9 10/10/10
f 10/10/10 9/9/9 11/11/11
f 10/10/10 11/11/11 12/12/12
f 12/12/12 11/11/11 13/13/13
f 12/12/12 13/13/13 14/14/14
f 14/14/14 13/13/13 3/3/3
f 14/14/14 3/3/3 1/1/1
f 15/15/15 17/17/17 16/16/16
f 15/15/15 16/16/16 18/18/18
f 18/18/18 16/16/16 19/19/19
f 18/18/18 19/19/19 20/20/20
f 20/20/20 19/19/19 21/21/21
f 20/20/20 21/21/21 22/22/22
f 22/22/22 21/21/21 23/23/23
f 22/22/22 23/23/23 24/24/24
f 24/24/24 23/23/23 25/25/25
f 24/24/24 25/25/25 26/26/26
f 26/26/26 25/25/25 27/27/27
f 26/26/26 27/27/27 28/28/28
f 28/28/28 27/27/27 17/17/17
f 28/28/28 17/17/17 15/15/15
f 29/29/29 31/31/31 30/30/30
f 29/29/29 30/30/30 32/32/32
f 32/32/32 30/30/30 33/33/33
f 32/32/32 33/33/33 34/34/34
f 34/34/34 33/33/33 35/35/35
f 34/34/34 35/35/35 36/36/36
f 36/36/36 35/35/35 37/37/37
f 36/36/36 37/37/37 38/38/38
f 38/38/38 37/37/37 39/39/39
f 38/38/38 39/39/39 40/40/40
f 40/40/40 39/39/39 41/41/41
f 40/40/40 41/41/41 42/42/42
f 42/42/42 41/41/41 31/31/31
f 42/42/42 31/31/31 29/29/29
f 43/43/43 45/45/45 44/44/44
f 43/43/43 44/44/44 46/46/46
f 46/46/46 44/44/44 47/47/47
f 46/46/46 47/47/47 48/48/48
f 48/48/48 47/47/47 49/49/49
f 48/48/48 49/49/49 50/50/50
f 50/50/50 49/49/49 51/51/51
f 50/50/50 51/51/51 52/52/52
f 52/52/52 51/51/51 53/53/53
f 52/52/52 53/53/53 54/54/54
f 54/54/54 53/53/53 55/55/55
f 54/54/54 55/55/55 56/56/56
f 56/56/56 55/55/55 45/45/45
f 56/56/56 45/45/45 43/43/43
f 57/57/57 59/59/59 58/58/58
f 57/57/57 58/58/58 60/60/60
f 60/60/60 58/58/58 61/61/61
f 60/60/60 61/61/61 62/62/62
f 62/62/62 61/61/61 63/63/63
f 62/62/62 63/63/63 64/64/64
f 64/64/64 63/63/63 65/65/65
f 64/64/64 65/65/65 66/66/66
f 66/66/66 65/65/65 67/67/67
f 66/66/66 67/67/67 68/68/68
f 68/68/68 67/67/67 69/69/69
f 68/68/68 69/69/69 70/70/70
f 70/70/70 69/69/69 59/59/59
f 70/70/70 59/59/59 57/57/57
f 71/71/71 73/73/73 72/72/72
f 71/71/71 72/72/72 74/74/74
f 74/74/74 72/72/72 75/75/75
f 74/74/74 75/75/75 76/76/76
f 76/76/76 75/75/75 77/77/77
f 76/76/76 77/77/77 78/78/78
f 78/78/78 77/77/77 79/79/79
f 78/78/78 79/79/79 80/80/80
f 80/80/80 79/79/79 81/81/81
f 80/80/80 81/81/81 82/82/82
f 82/82/82 81/81/81 83/83/83
f 82/82/82 83/83/83 84/84/84
f 84/84/84 83/83/83 73/73/73
f 84/84/84 73/73/73 71/71/71
f 85/85/85 87/87/87 86/86/86
f 86/86/86 87/87/87 88/88/88
f 88/88/88 87/87/87 89/89/89
f 89/89/89 87/87/87 90/90/90
f 90/90/90 87/87/87 91/91/91
f 91/91/91 87/87/87 92/92/92
f 92/92/92 87/87/87 85/85/85
f 93/93/93 95/95/95 94/94/94
f 93/93/93 94/94/94 96/96/96
f 97/97/97 99/99/99 98/98/98
f 97/97/97 98/98/98 100/100/100
f 101/101/101 103/103/103 102/102/102
f 101/101/101 102/102/102 104/104/104
f 105/105/105 107/107/107 106/106/106
f 105/105/105 106/106/106 108/108/108
f 109/109/109 111/111/111 110/110/110
f 109/109/109 110/110/110 112/112/112
f 113/113/113 115/115/115 114/114/114
f 113/113/113 114/114/114 116/116/116
f 117/117/117 119/119/119 118/118/118
f 117/117/117 118/118/118 120/120/120
f 121/121/121 123/123/123 122/122/122
f 124/124/124 123/123/123 121/121/121
f 123/123/123 126/126/126 125/125/125
f 123/123/123 127/127/127 126/126/126
f 123/123/123 128/128/128 127/127/127
f 124/124/124 128/128/128 123/123/123
f 129/129/129 131/131/131 130/130/130
f 132/132/132 129/129/129 130/130/130
f 130/130/130 134/134/134 133/133/133
f 130/130/130 133/133/133 135/135/135
f 130/130/130 135/135/135 136/136/136
f 132/132/132 130/130/130 136/136/136
f 137/137/137 139/139/139 138/138/138
f 137/137/137 140/140/140 139/139/139
f 140/140/140 141/141/141 139/139/139
f 140/140/140 142/142/142 141/141/141
f 142/142/142 143/143/143 141/141/141
f 142/142/142 144/144/144 143/143/143
f 144/144/144 145/145/145 143/143/143
f 144/144/144 146/146/146 145/145/145
f 146/146/146 147/147/147 145/145/145
f 146/146/146 148/148/148 147/147/147
f 148/148/148 138/138/138 147/147/147
f 148/148/148 137/137/137 138/138/138
f 149/149/149 151/151/151 150/150/150
f 150/150/150 152/152/152 149/149/149
f 153/153/153 155/155/155 154/154/154
f 154/154/154 156/156/156 153/153/153
f 157/157/157 159/159/159 158/158/158
f 158/158/158 160/160/160 157/157/157
f 161/161/161 163/163/163 162/162/162
f 162/162/162 164/164/164 161/161/161
f 165/165/165 167/167/167 166/166/166
f 166/166/166 168/168/168 165/165/165
f 169/169/169 171/171/171 170/170/170
f 170/170/170 172/172/172 169/169/169
f 173/173/173 175/175/175 174/174/174
f 174/174/174 176/176/176 173/173/173
f 177/177/177 179/179/179 178/178/178
f 178/178/178 180/180/180 177/177/177
f 181/181/181 183/183/183 182/182/182
f 182/182/182 184/184/184 181/181/181
f 185/185/185 187/187/187 186/186/186
f 186/186/186 188/188/188 185/185/185
f 189/189/189 191/191/191 190/190/190
f 190/190/190 192/192/192 189/189/189
f 193/193/193 195/195/195 194/194/194
f 194/194/194 196/196/196 193/193/193
f 197/197/197 199/199/199 198/198/198
f 200/200/200 202/202/202 201/201/201
f 203/203/203 205/205/205 204/204/204
f 206/206/206 208/208/208 207/207/207
f 209/209/209 211/211/211 210/210/210
f 212/212/212 214/214/214 213/213/213
f 215/215/215 217/217/217 216/216/216
f 216/216/216 218/218/218 215/215/215
f 219/219/219 221/221/221 220/220/220
f 220/220/220 222/222/222 219/219/219
f 223/223/223 225/225/225 224/224/224
f 224/224/224 226/226/226 223/223/223
f 227/227/227 229/229/229 228/228/228
f 228/228/228 230/230/230 227/227/227
f 231/231/231 233/233/233 232/232/232
f 232/232/232 234/234/234 231/231/231
f 235/235/235 237/237/237 236/236/236
f 236/236/236 238/238/238 235/235/235
f 239/239/239 241/241/241 240/240/240
f 239/239/239 240/240/240 242/242/242
f 243/243/243 245/245/245 244/244/244
f 243/243/243 244/244/244 246/246/246
f 247/247/247 249/249/249 248/248/248
f 247/247/247 248/248/248 250/250/250
f 251/251/251 253/253/253 252/252/252
f 251/251/251 252/252/252 254/254/254
f 255/255/255 257/257/257 256/256/256
f 255/255/255 256/256/256 258/258/258
f 259/259/259 261/261/261 260/260/260
f 259/259/259 260/260/260 262/262/262
f 263/263/263 265/265/265 264/264/264
f 263/263/263 264/264/264 266/266/266
f 267/267/267 269/269/269 268/268/268
f 270/270/270 269/269/269 267/267/267
f 269/269/269 272/272/272 271/271/271
f 269/269/269 273/273/273 272/272/272
f 269/269/269 274/274/274 273/273/273
f 270/270/270 274/274/274 269/269/269
f 275/275/275 277/277/277 276/276/276
f 278/278/278 275/275/275 276/276/276
f 276/276/276 280/280/280 279/279/279
f 276/276/276 279/279/279 281/281/281
f 276/276/276 281/281/281 282/282/282
f 278/278/278 276/276/276 282/282/282
f 283/283/283 285/285/285 284/284/284
f 283/283/283 286/286/286 285/285/285
f 286/286/286 287/287/287 285/285/285
f 286/286/286 288/288/288 287/287/287
f 288/288/288 289/289/289 287/287/287
f 288/288/288 290/290/290 289/289/289
f 290/290/290 291/291/291 289/289/289
f 290/290/290 292/292/292 291/291/291
f 292/292/292 293/293/293 291/291/291
f 292/292/292 294/294/294 293/293/293
f 294/294/294 284/284/284 293/293/293
f 294/294/294 283/283/283 284/284/284
f 295/295/295 297/297/297 296/296/296
f 296/296/296 298/298/298 295/295/295
f 299/299/299 301/301/301 300/300/300
f 300/300/300 302/302/302 299/299/299
f 303/303/303 305/305/305 304/304/304
f 304/304/304 306/306/306 303/303/303
f 307/307/307 309/309/309 308/308/308
f 308/308/308 310/310/310 307/307/307
f 311/311/311 313/313/313 312/312/312
f 312/312/312 314/314/314 311/311/311
f 315/315/315 317/317/317 316/316/316
f 316/316/316 318/318/318 315/315/315
f 319/319/319 321/321/321 320/320/320
f 320/320/320 322/322/322 319/319/319
f 323/323/323 325/325/325 324/324/324
f 324/324/324 326/326/326 323/323/323
f 327/327/327 329/329/329 328/328/328
f 328/328/328 330/330/330 327/327/327
f 331/331/331 333/333/333 332/332/332
f 332/332/332 334/334/334 331/331/331
f 335/335/335 337/337/337 336/336/336
f 336/336/336 338/338/338 335/335/335
f 339/339/339 341/341/341 340/340/340
f 340/340/340 342/342/342 339/339/339
f 343/343/343 345/345/345 344/344/344
f 346/346/346 348/348/348 347/347/347
f 349/349/349 351/351/351 350/350/350
f 352/352/352 354/354/354 353/353/353
f 355/355/355 357/357/357 356/356/356
f 358/358/358 360/360/360 359/359/359
f 361/361/361 363/363/363 362/362/362
f 362/362/362 364/364/364 361/361/361
f 365/365/365 367/367/367 366/366/366
f 366/366/366 368/368/368 365/365/365
f 369/369/369 371/371/371 370/370/370
f 370/370/370 372/372/372 369/369/369
f 373/373/373 375/375/375 374/374/374
f 374/374/374 376/376/376 373/373/373
f 377/377/377 379/379/379 378/378/378
f 378/378/378 380/380/380 377/377/377
f 381/381/381 383/383/383 382/382/382
f 382/382/382 384/384/384 381/381/381
f 385/385/385 387/387/387 386/386/386
f 385/385/385 386/386/386 388/388/388
f 389/389/389 391/391/391 390/390/390
f 389/389/389 390/390/390 392/392/392
f 393/393/393 395/395/395 394/394/394
f 393/393/393 394/394/394 396/396/396
f 397/397/397 399/399/399 398/398/398
f 397/397/397 398/398/398 400/400/400
f 401/401/401 403/403/403 402/402/402
f 401/401/401 402/402/402 404/404/404
f 405/405/405 407/407/407 406/406/406
f 405/405/405 406/406/406 408/408/408
f 409/409/409 411/411/411 410/410/410
f 409/409/409 410/410/410 412/412/412
f 413/413/413 415/415/415 414/414/414
f 416/416/416 415/415/415 413/413/413
f 415/415/415 418/418/418 417/417/417
f 415/415/415 419/419/419 418/418/418
f 415/415/415 420/420/420 419/419/419
f 416/416/416 420/420/420 415/415/415
f 421/421/421 423/423/423 422/422/422
f 424/424/424 421/421/421 422/422/422
f 422/422/422 426/426/426 425/425/425
f 422/422/422 425/425/425 427/427/427
f 422/422/422 427/427/427 428/428/428
f 424/424/424 422/422/422 428/428/428
f 429/429/429 431/431/431 430/430/430
f 429/429/429 432/432/432 431/431/431
f 432/432/432 433/433/433 431/431/431
f 432/432/432 434/434/434 433/433/433
f 434/434/434 435/435/435 433/433/433
f 434/434/434 436/436/436 435/435/435
f 436/436/436 437/437/437 435/435/435
f 436/436/436 438/438/438 437/437/437
f 438/438/438 439/439/439 437/437/437
f 438/438/438 440/440/440 439/439/439
f 440/440/440 430/430/430 439/439/439
f 440/440/440 429/429/429 430/430/430
f 441/441/441 443/443/443 442/442/442
f 442/442/442 444/444/444 441/441/441
f 445/445/445 447/447/447 446/446/446
f 446/446/446 448/448/448 445/445/445
f 449/449/449 451/451/451 450/450/450
f 450/450/450 452/452/452 449/449/449
f 453/453/453 455/455/455 454/454/454
f 454/454/454 456/456/456 453/453/453
f 457/457/457 459/459/459 458/458/458
f 458/458/458 460/460/460 457/457/457
f 461/461/461 463/463/463 462/462/462
f 462/462/462 464/464/464 461/461/461
f 465/465/465 467/467/467 466/466/466
f 466/466/466 468/468/468 465/465/465
f 469/469/469 471/471/471 470/470/470
f 470/470/470 472/472/472 469/469/469
f 473/473/473 475/475/475 474/474/474
f 474/474/474 476/476/476 473/473/473
f 477/477/477 479/479/479 478/478/478
f 478/478/478 480/480/480 477/477/477
f 481/481/481 483/483/483 482/482/482
f 482/482/482 484/484/484 481/481/481
f 485/485/485 487/487/487 486/486/486
f 486/486/486 488/488/488 485/485/485
f 489/489/489 491/491/491 490/490/490
f 492/492/492 494/494/494 493/493/493
f 495/495/495 497/497/497 496/496/496
f 498/498/498 500/500/500 499/499/499
f 501/501/501 503/503/503 502/502/502
f 504/504/504 506/506/506 505/505/505
f 507/507/507 509/509/509 508/508/508
f 508/508/508 510/510/510 507/507/507
f 511/511/511 513/513/513 512/512/512
f 512/512/512 514/514/514 511/511/511
f 515/515/515 517/517/517 516/516/516
f 516/516/516 518/518/518 515/515/515
f 519/519/519 521/521/521 520/520/520
f 520/520/520 522/522/522 519/519/519
f 523/523/523 525/525/525 524/524/524
f 524/524/524 526/526/526 523/523/523
f 527/527/527 529/529/529 528/528/528
f 528/528/528 530/530/530 527/527/527
f 531/531/531 533/533/533 532/532/532
f 531/531/531 534/534/534 533/533/533
f 535/535/535 537/537/537 536/536/536
f 535/535/535 538/538/538 537/537/537
f 539/539/539 541/541/541 540/540/540
f 539/539/539 542/542/542 541/541/541
f 543/543/543 545/545/545 544/544/544
f 543/543/543 546/546/546 545/545/545
f 547/547/547 549/549/549 548/548/548
f 547/547/547 550/550/550 549/549/549
f 551/551/551 553/553/553 552/552/552
f 551/551/551 554/554/554 553/553/553
f 555/555/555 557/557/557 556/556/556
f 555/555/555 558/558/558 557/557/557
f 559/559/559 561/561/561 560/560/560
f 562/562/562 559/559/559 560/560/560
f 560/560/560 564/564/564 563/563/563
f 560/560/560 563/563/563 565/565/565
f 560/560/560 565/565/565 566/566/566
f 562/562/562 560/560/560 566/566/566
f 567/567/567 569/569/569 568/568/568
f 570/570/570 569/569/569 567/567/567
f 569/569/569 572/572/572 571/571/571
f 569/569/569 573/573/573 572/572/572
f 569/569/569 574/574/574 573/573/573
f 570/570/570 574/574/574 569/569/569
f 575/575/575 577/577/577 576/576/576
f 575/575/575 576/576/576 578/578/578
f 578/578/578 576/576/576 579/579/579
f 578/578/578 579/579/579 580/580/580
f 580/580/580 579/579/579 581/581/581
f 580/580/580 581/581/581 582/582/582
f 582/582/582 581/581/581 583/583/583
f 582/582/582 583/583/583 584/584/584
f 584/584/584 583/583/583 585/585/585
f 584/584/584 585/585/585 586/586/586
f 586/586/586 585/585/585 577/577/577
f 586/586/586 577/577/577 575/575/575
f 587/587/587 589/589/589 588/588/588
f 589/589/589 587/587/587 590/590/590
f 591/591/591 593/593/593 592/592/592
f 593/593/593 591/591/591 594/594/594
f 595/595/595 597/597/597 596/596/596
f 597/597/597 595/595/595 598/598/598
f 599/599/599 601/601/601 600/600/600
f 601/601/601 599/599/599 602/602/602
f 603/603/603 605/605/605 604/604/604
f 605/605/605 603/603/603 606/606/606
f 607/607/607 609/609/609 608/608/608
f 609/609/609 607/607/607 610/610/610
f 611/611/611 613/613/613 612/612/612
f 613/613/613 611/611/611 614/614/614
f 615/615/615 617/617/617 616/616/616
f 617/617/617 615/615/615 618/618/618
f 619/619/619 621/621/621 620/620/620
f 621/621/621 619/619/619 622/622/622
f 623/623/623 625/625/625 624/624/624
f 625/625/625 623/623/623 626/626/626
f 627/627/627 629/629/629 628/628/628
f 629/629/629 627/627/627 630/630/630
f 631/631/631 633/633/633 632/632/632
f 633/633/633 631/631/631 634/634/634
f 635/635/635 637/637/637 636/636/636
f 638/638/638 640/640/640 639/639/639
f 641/641/641 643/643/643 642/642/642
f 644/644/644 646/646/646 645/645/645
f 647/647/647 649/649/649 648/648/648
f 650/650/650 652/652/652 651/651/651
f 653/653/653 655/655/655 654/654/654
f 655/655/655 653/653/653 656/656/656
f 657/657/657 659/659/659 658/658/658
f 659/659/659 657/657/657 660/660/660
f 661/661/661 663/663/663 662/662/662
f 663/663/663 661/661/661 664/664/664
f 665/665/665 667/667/667 666/666/666
f 667/667/667 665/665/665 668/668/668
f 669/669/669 671/671/671 670/670/670
f 671/671/671 669/669/669 672/672/672
f 673/673/673 675/675/675 674/674/674
f 675/675/675 673/673/673 676/676/676
