# Monster60.bmd — MU geometry at action 0 key 0, exported for MU2
# 2 mesh(es)

g npc_b1
# texture: npc_b1.jpg
v 15.0004 178.943 7.478502
v 35.36708 171.743 -2.364719
v 20.00351 182.9277 -5.669797
v 8.124913 168.5185 -25.8768
v 27.5676 168.3665 -6.567394
v 6.026711 190.9431 -20.8499
v 3.790099 172.952 17.8786
v -7.971401 170.5157 18.327
v -9.526902 162.0975 22.8843
v 12.1167 165.0896 22.9674
v 15.0004 178.943 7.478502
v -8.089101 147.5224 19.4133
v 7.655894 149.2731 27.6624
v 39.94582 114.4933 46.96542
v 36.57921 113.1536 40.99511
v 38.84783 108.2563 41.21024
v 38.51504 106.6383 27.98987
v 28.5863 153.9659 -8.891591
v -6.293701 137.5097 19.1529
v 9.940696 131.7503 18.9716
v 23.3808 139.902 8.334506
v 23.6528 133.2303 8.079008
v 23.3808 139.902 8.334506
v 23.6528 133.2303 8.079008
v 22.9167 138.9557 -11.64379
v 9.111913 146.7861 -27.8704
v -6.577103 125.2551 19.8517
v 15.52059 125.2189 17.7388
v 15.52059 125.2189 17.7388
v 20.2829 130.3105 6.112306
v 23.6528 133.2303 8.079008
v 22.9167 138.9557 -11.64379
v 23.6528 133.2303 8.079008
v 20.2829 130.3105 6.112306
v 15.1367 136.1566 -7.901094
v 3.451809 139.3421 -17.2121
v 9.111913 146.7861 -27.8704
v -7.924203 118.1828 19.933
v 12.3825 128.5184 14.83941
v 21.3097 115.9661 10.53441
v 20.2829 130.3105 6.112306
v 15.1367 136.1566 -7.901094
v 20.2829 130.3105 6.112306
v 21.3097 115.9661 10.53441
v 18.6077 119.5328 -2.910894
v 3.451809 139.3421 -17.2121
v 4.059405 118.7581 -13.0447
v 12.3825 128.5184 14.83941
v -7.924203 118.1828 19.933
v -4.666409 100.3127 20.7318
v 18.35719 102.8156 16.65691
v 18.35719 102.8156 16.65691
v 25.8742 101.928 0.567406
v 25.8742 101.928 0.567406
v 17.294 103.6109 -12.4263
v 4.059405 118.7581 -13.0447
v 18.6077 119.5328 -2.910894
v 17.294 103.6109 -12.4263
v 4.757306 101.7626 -20.4175
v 19.3163 165.8725 19.6837
v 47.26309 109.4393 41.44524
v 17.01989 154.7135 23.28721
v 17.01989 154.7135 23.28721
v 23.3808 139.902 8.334506
v 24.66679 147.5839 12.55771
v 28.5863 153.9659 -8.891591
v 27.0235 158.9214 -3.851894
v 27.2612 166.646 -1.679394
v 27.2612 166.646 -1.679394
v 19.3163 165.8725 19.6837
v 29.27337 161.7118 13.61741
v 35.37005 156.1687 -7.51122
v 35.36708 171.743 -2.364719
v 35.36708 171.743 -2.364719
v 27.5676 168.3665 -6.567394
v 35.7317 136.5429 8.119502
v 40.9093 140.576 17.25881
v 44.47115 136.2025 -0.11516
v 51.86211 142.0805 8.760303
v 36.20861 131.6104 12.2342
v 39.54394 143.5194 20.56452
v 49.94205 125.6006 5.904905
v 55.92487 138.6898 13.28797
v 38.54515 123.315 24.41391
v 43.04092 133.994 30.2718
v 50.46529 118.3935 17.61248
v 58.23772 132.7174 24.55238
v 41.89506 115.9404 35.26247
v 45.10909 124.9787 40.40783
v 50.35672 111.4301 31.03623
v 58.01548 124.4462 35.28057
v 36.30997 6.996647 34.28295
v 26.87497 8.354042 39.66365
v 27.37193 -0.603008 41.22927
v 16.87582 5.833912 38.42426
v 1.564418 87.58391 1.789335
v 4.757306 101.7626 -20.4175
v 16.2947 82.52419 -10.7899
v 26.6965 84.94099 2.321906
v 2.637187 75.96849 8.407502
v 1.564418 87.58391 1.789335
v 2.637187 75.96849 8.407502
v -4.666409 100.3127 20.7318
v 26.6965 84.94099 2.321906
v 16.56609 85.19359 20.91561
v 14.1734 62.87119 -1.067599
v 26.43909 63.63918 6.511406
v 5.011985 60.60838 8.243402
v 26.43909 63.63918 6.511406
v 16.79708 65.70759 21.35091
v 5.011985 60.60838 8.243402
v 30.22239 64.88068 4.500906
v 12.22939 51.1708 -12.09171
v 13.2957 63.82088 -5.9582
v 35.03829 46.2969 3.230302
v -1.698217 44.49229 9.319098
v 0.652988 60.69828 6.891001
v 16.91648 67.73518 24.97941
v 19.67958 52.28329 27.53011
v 29.92749 50.1544 5.564703
v 16.46509 39.32439 -1.567505
v 13.39929 53.6862 -5.538207
v 27.25459 35.34389 8.534502
v 3.306882 48.84669 9.976799
v 8.377581 37.95619 11.3702
v 18.79799 54.49239 23.17321
v 20.22908 27.97709 18.2606
v 18.64919 17.40599 2.084298
v 27.50428 23.07989 10.4143
v 12.67458 22.24649 12.8505
v 31.83041 16.31295 11.23583
v 21.78215 -0.21834 1.07777
v 12.39626 15.15032 15.37725
v 22.86128 20.53725 22.43559
v 25.07398 15.18285 32.76456
v 34.44528 11.39739 24.94863
v 15.01114 10.23466 29.08995
v 37.0534 -0.426773 33.97668
v 16.5492 -0.423941 38.30664
v 32.52283 -0.272465 9.154747
v 12.01864 -0.269627 13.48471
v 34.79532 -0.064758 21.52971
v 14.29113 -0.061922 25.85978
v 48.94022 117.2186 37.37771
v 48.26521 121.8707 39.75663
v 53.83496 115.0766 33.81859
v 56.13979 121.5458 36.62839
v -3.518611 84.98419 27.18951
v 15.00169 88.33419 29.96371
v -2.416417 68.4377 34.70961
v 16.34938 73.98779 34.91012
v 25.2982 83.03299 -12.08239
v 6.731005 79.26089 -20.1772
v 27.7993 57.30959 -12.72129
v 9.807304 49.70229 -21.6665
v -7.971401 170.5157 18.327
v 3.790099 172.952 17.8786
v -2.239196 178.5996 2.293397
v 15.0004 178.943 7.478502
v -2.239196 178.5996 2.293397
v 20.00351 182.9277 -5.669797
v -2.239196 178.5996 2.293397
v 6.026711 190.9431 -20.8499
v -2.239196 178.5996 2.293397
v 14.1734 62.87119 -1.067599
v 26.43909 63.63918 6.511406
v 30.22239 64.88068 4.500906
v 30.22239 64.88068 4.500906
v 13.2957 63.82088 -5.9582
v 14.1734 62.87119 -1.067599
v 5.011985 60.60838 8.243402
v 14.1734 62.87119 -1.067599
v 13.2957 63.82088 -5.9582
v 0.652988 60.69828 6.891001
v 26.43909 63.63918 6.511406
v 16.79708 65.70759 21.35091
v 16.91648 67.73518 24.97941
v 30.22239 64.88068 4.500906
v 16.79708 65.70759 21.35091
v 5.011985 60.60838 8.243402
v 0.652988 60.69828 6.891001
v 0.652988 60.69828 6.891001
v 16.91648 67.73518 24.97941
v 16.79708 65.70759 21.35091
v 33.10347 114.4116 35.01221
v 33.31497 114.9603 42.08199
v 30.55359 109.1691 39.05462
v 26.988 117.2615 41.07579
v 25.01563 113.125 38.91338
v 26.83692 116.8697 36.02598
v 23.10483 121.6517 38.30904
v 25.01563 113.125 38.91338
v 26.988 117.2615 41.07579
v 26.83692 116.8697 36.02598
v 43.60771 114.1692 34.37578
v 43.90789 115.0526 41.40829
v 43.46922 108.5234 38.66904
v 33.3787 115.6003 41.789
v 32.94002 109.071 39.04968
v 33.0784 114.7169 34.75644
v 30.33856 112.2082 38.76665
v 32.94002 109.071 39.04968
v 33.3787 115.6003 41.789
v 33.0784 114.7169 34.75644
v 35.5934 112.2474 24.5142
v 33.60538 113.8139 31.14144
v 31.94388 107.5138 28.33532
v 27.88883 115.6173 27.91551
v 26.70196 111.1172 25.9111
v 29.30884 114.4983 23.18168
v 25.03052 119.3589 23.4615
v 26.70196 111.1172 25.9111
v 27.88883 115.6173 27.91551
v 29.30884 114.4983 23.18168
v 45.70626 113.2541 27.98468
v 43.56687 114.21 34.68065
v 44.34798 107.6445 32.10961
v 33.51992 114.2754 31.46128
v 34.30104 107.7097 28.8903
v 35.65931 113.3192 24.7653
v 31.82528 110.7214 27.6693
v 34.30104 107.7097 28.8903
v 33.51992 114.2754 31.46128
v 35.65931 113.3192 24.7653
v 35.34505 115.5262 43.04046
v 38.12738 119.6508 48.0975
v 34.88581 113.5886 49.84943
v 31.72502 121.9528 48.32071
v 29.40955 117.6226 49.57207
v 29.73765 119.0066 44.70845
v 26.77096 124.747 45.21295
v 29.40955 117.6226 49.57207
v 31.72502 121.9528 48.32071
v 29.73765 119.0066 44.70845
v 45.05233 113.8149 39.00693
v 47.91176 117.836 44.10413
v 46.82449 110.9175 45.23528
v 38.27425 119.9605 47.83456
v 37.18707 113.042 48.96572
v 35.41491 115.9393 42.73735
v 34.50758 116.0098 48.12753
v 37.18707 113.042 48.96572
v 38.27425 119.9605 47.83456
v 35.41491 115.9393 42.73735
v -18.78609 178.5354 -4.806106
v -14.26069 182.5145 -18.12811
v -36.63013 172.1991 -6.402987
v -19.17009 167.8027 -23.56101
v -16.7476 172.7043 10.41119
v -26.2283 164.6271 9.025392
v -18.78609 178.5354 -4.806106
v -25.4884 148.8733 15.61129
v -58.24958 107.6691 -5.515506
v -54.13557 100.1724 -5.201494
v -53.0971 104.4501 -2.071242
v -41.69202 95.49416 -4.317979
v -18.15129 153.4022 -25.88521
v -20.3507 131.9884 10.86569
v -26.56129 140.2947 -5.029806
v -26.7674 133.6268 -5.413206
v -26.7674 133.6268 -5.413206
v -26.56129 140.2947 -5.029806
v -16.19609 139.2633 -22.1101
v -24.6645 125.5349 6.985394
v -24.6645 125.5349 6.985394
v -26.7674 133.6268 -5.413206
v -22.90879 130.6502 -5.445605
v -16.19609 139.2633 -22.1101
v -22.90879 130.6502 -5.445605
v -26.7674 133.6268 -5.413206
v -11.36679 136.365 -14.9933
v -20.4498 128.7765 6.053595
v -22.90879 130.6502 -5.445605
v -24.24149 115.4167 -6.027805
v -11.36679 136.365 -14.9933
v -24.24149 115.4167 -6.027805
v -22.90879 130.6502 -5.445605
v -13.61259 119.1442 -14.626
v -20.4498 128.7765 6.053595
v -22.73962 100.2452 9.357397
v -22.73962 100.2452 9.357397
v -26.82554 98.96391 -7.900387
v -26.82554 98.96391 -7.900387
v -15.98463 101.3992 -18.93812
v -15.98463 101.3992 -18.93812
v -13.61259 119.1442 -14.626
v -29.6529 165.2819 1.87879
v -53.2312 102.7281 -13.25885
v -29.96969 154.1467 6.202096
v -29.96969 154.1467 6.202096
v -28.78669 146.9392 -6.877706
v -26.56129 140.2947 -5.029806
v -20.29589 158.3506 -21.0569
v -18.15129 153.4022 -25.88521
v -22.03779 166.0514 -19.60421
v -22.03779 166.0514 -19.60421
v -29.6529 165.2819 1.87879
v -36.48874 153.6814 0.686197
v -25.97181 164.5249 -16.22899
v -36.63013 172.1991 -6.402987
v -36.63013 172.1991 -6.402987
v -19.17009 167.8027 -23.56101
v -24.92211 139.2453 -18.81606
v -35.46584 136.0281 -16.56263
v -25.94881 145.0234 -29.29754
v -38.7345 143.4025 -27.93744
v -25.40395 134.2962 -18.01165
v -36.83841 141.0322 -11.21279
v -29.70331 130.7842 -33.30761
v -42.93414 138.8137 -28.60619
v -31.37739 121.3304 -13.673
v -41.79215 127.9809 -9.689461
v -34.44591 119.1244 -27.75443
v -49.1573 128.3317 -24.21231
v -37.63396 109.7077 -10.66199
v -46.12449 115.2939 -6.763554
v -39.81306 106.9663 -20.53821
v -52.41235 116.2045 -19.12395
v -34.42348 7.697481 9.799965
v -27.58857 0.099827 18.82521
v -26.70213 9.05629 17.43867
v -16.72332 6.535282 18.8301
v -13.77322 80.42813 -17.02847
v -26.72102 81.94622 -6.257779
v -3.752637 74.70766 4.533397
v -3.752637 74.70766 4.533397
v -26.72102 81.94622 -6.257779
v -20.5313 82.76184 13.97671
v -12.17681 60.89055 -6.978631
v -25.72571 60.68117 -1.992319
v -4.904908 59.21685 3.978786
v -25.72571 60.68117 -1.992319
v -19.40218 63.30835 14.45665
v -4.904908 59.21685 3.978786
v -29.1157 61.66086 -4.720929
v -10.41821 61.94979 -11.60205
v -6.071826 57.49874 -19.0292
v -30.17477 45.3432 -11.95416
v -0.383008 59.64002 3.519178
v 4.29274 45.79871 2.24712
v -20.38927 65.28619 17.97863
v -21.35496 44.74216 16.04674
v -26.43726 48.77483 -7.403996
v -8.971422 57.58331 -12.5308
v -10.05448 42.464 -13.82034
v -21.71551 34.2088 -8.326847
v -1.460845 49.10505 2.886889
v -4.60149 37.85972 -0.265694
v -20.04604 48.33942 12.88661
v -15.53264 24.90726 0.244945
v -8.826164 20.45856 -17.39441
v -20.06005 22.05917 -10.23672
v -6.122551 22.15179 -4.554632
v -24.13063 17.00577 -11.30555
v -11.79815 0.470503 -18.51193
v -6.430581 15.84357 -2.275414
v -18.365 21.23347 1.832429
v -23.1762 15.88263 11.23852
v -30.20597 12.09506 1.264753
v -12.50581 10.93276 10.29489
v -35.06328 0.274048 9.314087
v -16.37819 0.277334 18.80302
v -24.26317 0.419636 -13.48973
v -5.578081 0.422926 -4.000896
v -29.66085 0.631605 -2.124577
v -10.97577 0.634991 7.364357
v -44.48263 109.4337 -13.62202
v -46.98598 112.5873 -10.22429
v -45.25263 108.7585 -19.95959
v -50.8223 113.1428 -17.76569
v -21.20761 81.8224 20.9428
v -19.85991 67.476 25.88931
v -13.73489 79.49759 -22.5412
v -11.2338 53.77419 -23.18021
v -2.239196 178.5996 2.293397
v -16.7476 172.7043 10.41119
v -2.239196 178.5996 2.293397
v -18.78609 178.5354 -4.806106
v -2.239196 178.5996 2.293397
v -14.26069 182.5145 -18.12811
v -12.17681 60.89055 -6.978631
v -29.1157 61.66086 -4.720929
v -25.72571 60.68117 -1.992319
v -10.41821 61.94979 -11.60205
v -4.904908 59.21685 3.978786
v -10.41821 61.94979 -11.60205
v -12.17681 60.89055 -6.978631
v -0.383008 59.64002 3.519178
v -25.72571 60.68117 -1.992319
v -20.38927 65.28619 17.97863
v -19.40218 63.30835 14.45665
v -29.1157 61.66086 -4.720929
v -19.40218 63.30835 14.45665
v -0.383008 59.64002 3.519178
v -4.904908 59.21685 3.978786
v -20.38927 65.28619 17.97863
v -46.95268 104.947 1.277198
v -52.1432 100.7051 3.599144
v -53.71938 107.0157 0.767326
v -51.39281 104.5347 9.176745
v -52.51858 109.0422 7.154068
v -47.68525 107.5647 7.518205
v -49.04045 112.7269 11.1955
v -52.51858 109.0422 7.154068
v -51.39281 104.5347 9.176745
v -47.68525 107.5647 7.518205
v -45.61217 105.3635 -8.677164
v -51.03305 100.8319 -9.314434
v -52.23997 107.8226 -9.270555
v -52.0634 100.5882 1.182627
v -53.27031 107.5788 1.226495
v -46.64245 105.1198 1.819963
v -51.29539 103.3587 4.085157
v -53.27031 107.5788 1.226495
v -52.0634 100.5882 1.182627
v -46.64245 105.1198 1.819963
v -37.07342 100.5585 -0.780394
v -41.98641 96.76516 2.654706
v -43.28503 103.5243 0.936149
v -39.07276 99.7556 8.031154
v -40.0004 104.5835 6.803666
v -35.56346 102.4651 5.577519
v -34.97207 107.2695 9.887445
v -40.0004 104.5835 6.803666
v -39.07276 99.7556 8.031154
v -35.56346 102.4651 5.577519
v -39.4379 103.2134 -10.50559
v -44.7774 98.57978 -9.917992
v -45.90294 105.4682 -8.649114
v -42.37428 97.09982 0.247935
v -43.49989 103.9883 1.516748
v -37.03478 101.7336 -0.339658
v -40.71176 99.54832 3.064178
v -43.49989 103.9883 1.516748
v -42.37428 97.09982 0.247935
v -37.03478 101.7336 -0.339658
v -54.98465 106.6961 -0.832423
v -62.06204 106.346 -1.172311
v -58.70563 112.2787 -3.13817
v -61.48444 109.2606 4.952317
v -59.0871 113.4983 3.548129
v -56.42921 109.5107 5.195095
v -55.97815 114.6509 9.117083
v -59.0871 113.4983 3.548129
v -61.48444 109.2606 4.952317
v -56.42921 109.5107 5.195095
v -49.94632 106.3137 -9.711877
v -56.20166 105.1953 -12.86581
v -53.72665 111.804 -12.13969
v -61.05047 105.9854 -3.529097
v -58.57534 112.594 -2.802912
v -54.79512 107.1037 -0.375168
v -60.16642 108.0918 -0.142071
v -58.57534 112.594 -2.802912
v -61.05047 105.9854 -3.529097
v -54.79512 107.1037 -0.375168
v 37.0534 -0.426773 33.97668
v 16.5492 -0.423941 38.30664
v 14.29113 -0.061922 25.85978
v 34.79532 -0.064758 21.52971
v 34.79532 -0.064758 21.52971
v 14.29113 -0.061922 25.85978
v 12.01864 -0.269627 13.48471
v 32.52283 -0.272465 9.154747
v -16.37819 0.277334 18.80302
v -35.06328 0.274048 9.314087
v -29.66085 0.631605 -2.124577
v -10.97577 0.634991 7.364357
v -10.97577 0.634991 7.364357
v -29.66085 0.631605 -2.124577
v -24.26317 0.419636 -13.48973
v -5.578081 0.422926 -4.000896
v 32.52283 -0.272465 9.154747
v 12.01864 -0.269627 13.48471
v 21.78215 -0.21834 1.07777
v 37.0534 -0.426773 33.97668
v 27.37193 -0.603008 41.22927
v 16.5492 -0.423941 38.30664
v -16.37819 0.277334 18.80302
v -27.58857 0.099827 18.82521
v -35.06328 0.274048 9.314087
v -24.26317 0.419636 -13.48973
v -11.79815 0.470503 -18.51193
v -5.578081 0.422926 -4.000896
v 8.852604 176.7392 8.597204
v 8.852608 184.0025 -5.596001
v 8.852603 183.859 9.431004
v 8.852608 189.3291 -4.152101
v -1.312589 187.2151 -11.8423
v -1.312596 177.1135 9.497501
v -1.312596 187.0341 9.284502
v 6.812908 201.5023 -1.112801
v 6.812903 199.6074 8.095201
v -1.312592 201.9525 -8.459205
v -1.312598 201.2222 12.2446
v -1.312598 205.0785 6.0059
v -1.312491 179.0461 -5.800303
v -1.312487 193.8545 -18.78611
v 0.60181 194.6862 -12.6782
v -1.31249 191.631 -5.576803
v -1.312489 215.6434 -12.11941
v 2.819907 207.7874 -5.875702
v -1.312493 204.5407 -1.293702
v -1.312497 223.8732 16.8966
v 0.601798 216.9903 18.1031
v -1.312501 213.6139 18.3444
v -1.312512 214.5809 47.64391
v -11.47769 184.0025 -5.596004
v -11.4777 183.859 9.431
v -11.47769 189.3291 -4.152104
v -11.4777 176.7392 8.597198
v -9.438098 199.6074 8.095199
v -9.438092 201.5023 -1.112804
v -1.312491 179.0461 -5.800303
v -3.226891 194.6862 -12.6782
v -1.312487 193.8545 -18.78611
v -1.31249 191.631 -5.576803
v -5.444995 207.7874 -5.875704
v -1.312489 215.6434 -12.11941
v -1.312493 204.5407 -1.293702
v -3.226903 216.9903 18.1031
v -1.312497 223.8732 16.8966
v -1.312501 213.6139 18.3444
v -1.312512 214.5809 47.64391
v -1.31249 186.4536 -11.922
v -1.312484 192.9754 -27.5426
v 2.819913 194.5662 -20.9041
v -1.312489 196.4578 -17.5851
v -1.312486 213.2308 -24.27461
v 0.601812 211.9958 -19.68421
v -1.312493 211.1739 -17.53311
v -1.312493 229.5161 -9.705905
v -1.31249 186.4536 -11.922
v -5.444988 194.5662 -20.9041
v -1.312484 192.9754 -27.5426
v -1.312489 196.4578 -17.5851
v -3.226888 211.9958 -19.68421
v -1.312486 213.2308 -24.27461
v -1.312493 211.1739 -17.53311
v -1.312493 229.5161 -9.705905
v 27.338 173.3365 20.73961
v 29.1724 185.4236 11.3038
v 25.6641 195.6426 15.6385
v 27.338 173.3365 20.73961
v 25.6641 195.6426 15.6385
v 26.6538 173.0969 -1.516194
v 48.19189 157.9037 9.060314
v 48.19189 157.9037 9.060314
v 42.7229 162.501 6.558212
v 39.17441 183.3585 -4.144094
v 27.41061 191.5255 -2.397298
v 21.86011 202.1572 -1.848101
v 21.86011 202.1572 -1.848101
v 53.6479 155.7335 -5.580284
v 53.6479 155.7335 -5.580284
v 46.88371 161.6464 -4.625288
v 24.46411 184.3425 -15.3504
v 19.54341 194.2372 -19.0119
v 19.54341 194.2372 -19.0119
v 43.4836 156.8227 -17.59389
v 43.4836 156.8227 -17.59389
v 39.13711 161.6777 -13.74129
v 19.68071 171.5784 -22.6093
v 19.68071 171.5784 -22.6093
v -26.63928 172.8138 -24.32992
v -29.92588 185.6301 -16.36521
v -25.58898 195.465 -20.83641
v -26.63928 172.8138 -24.32992
v -25.58898 195.465 -20.83641
v -29.82478 174.398 -2.34831
v -49.39737 158.359 -15.24202
v -49.39737 158.359 -15.24202
v -44.38618 163.1535 -12.20792
v -42.47888 184.8223 -2.774313
v -30.48669 192.8357 -3.105307
v -24.78919 203.3947 -3.539904
v -24.78919 203.3947 -3.539904
v -57.33507 157.3868 -1.645223
v -57.33507 157.3868 -1.645223
v -50.43237 163.2114 -1.88552
v -29.92139 186.7415 10.70049
v -25.5831 196.9099 14.3489
v -25.5831 196.9099 14.3489
v -49.39288 159.4704 11.82358
v -49.39288 159.4704 11.82358
v -44.38278 164 8.404884
v -26.63199 174.6214 19.68809
v -26.63199 174.6214 19.68809
vn 0.327989 0.738277 0.589382
vn 0.913796 0.377103 -0.150902
vn 0.695869 0.517577 -0.497877
vn 0.330009 0.231206 -0.915225
vn 0.838868 0.049498 -0.542079
vn 0.3296 0.2358 -0.9142
vn 0.037898 0.568869 0.821555
vn -0.301902 0.496403 0.813904
vn -0.331695 0.272795 0.903084
vn 0.108401 0.382406 0.917614
vn 0.327989 0.738277 0.589382
vn -0.341198 0.0193 0.939793
vn 0.106602 -0.141203 0.984224
vn -0.187271 -0.001229 0.982308
vn -0.925629 0.372548 -0.066472
vn -0.464954 -0.761782 0.451117
vn -0.091564 -0.837718 -0.538372
vn 0.985635 -0.039501 -0.164206
vn -0.29209 -0.149295 0.944666
vn 0.340699 -0.0772 0.936998
vn 0.820227 -0.202707 0.534918
vn 0.872908 0.0089 0.487805
vn 0.820227 -0.202707 0.534918
vn 0.872908 0.0089 0.487805
vn 0.86914 -0.250012 -0.42672
vn 0.337494 -0.064999 -0.939081
vn -0.25801 0.0039 0.966135
vn 0.263993 0.079098 0.961276
vn 0.67042 -0.740322 -0.049601
vn 0.528607 -0.813311 -0.243103
vn 0.692804 -0.708204 -0.135901
vn 0.280007 -0.863922 -0.418611
vn 0.692804 -0.708204 -0.135901
vn 0.528607 -0.813311 -0.243103
vn 0.114998 -0.895286 -0.430393
vn 0.121696 -0.868574 -0.480385
vn 0.132303 -0.84422 -0.519412
vn -0.296494 0.022 0.954781
vn 0.442388 0.168896 0.880777
vn 0.956394 0.175599 0.233399
vn 0.973398 0.1282 0.1899
vn 0.886781 0.0002 -0.46219
vn 0.973398 0.1282 0.1899
vn 0.956394 0.175599 0.233399
vn 0.804926 0.166905 -0.569418
vn 0.294113 -0.121305 -0.948041
vn 0.293406 0.189004 -0.937118
vn 0.442388 0.168896 0.880777
vn -0.296494 0.022 0.954781
vn -0.239703 0.086201 0.967012
vn 0.600424 0.211409 0.771231
vn 0.600424 0.211409 0.771231
vn 0.978152 0.108895 -0.177091
vn 0.978152 0.108895 -0.177091
vn 0.416378 -0.028298 -0.908751
vn 0.293406 0.189004 -0.937118
vn 0.804926 0.166905 -0.569418
vn 0.416378 -0.028298 -0.908751
vn 0.256606 -0.177804 -0.950021
vn 0.539927 0.39242 0.744638
vn 0.400756 -0.808721 0.43054
vn 0.590496 -0.100199 0.800796
vn 0.590496 -0.100199 0.800796
vn 0.820227 -0.202707 0.534918
vn 0.577603 -0.815004 0.0463
vn 0.985635 -0.039501 -0.164206
vn 0.918023 -0.291507 -0.268807
vn 0.829882 -0.080598 -0.552088
vn 0.829882 -0.080598 -0.552088
vn 0.539927 0.39242 0.744638
vn 0.719799 -0.108131 0.68571
vn -0.086628 -0.100012 -0.991208
vn 0.913796 0.377103 -0.150902
vn 0.913796 0.377103 -0.150902
vn 0.838868 0.049498 -0.542079
vn -0.872783 -0.48743 -0.025732
vn -0.291759 0.809628 0.509293
vn 0.12813 -0.45152 -0.883013
vn 0.772263 0.328919 -0.543527
vn -0.833331 -0.327652 -0.445201
vn -0.493869 0.869532 -0.002592
vn 0.230756 -0.576825 -0.783597
vn 0.81219 0.570667 -0.121186
vn -0.921319 -0.388701 -0.009125
vn -0.411619 0.65133 0.637447
vn 0.263827 -0.834096 -0.484437
vn 0.907383 0.368964 0.201301
vn -0.590874 -0.548577 0.59155
vn -0.113291 0.218322 0.969278
vn 0.349819 -0.887932 -0.298671
vn 0.87494 -0.046503 0.481993
vn 0.740037 0.36348 0.565887
vn 0.244474 0.580969 0.776342
vn 0.186456 0.098064 0.977557
vn -0.636794 0.320903 0.701081
vn 0.154297 -0.782913 -0.602694
vn 0.256606 -0.177804 -0.950021
vn 0.033099 -0.231989 -0.972155
vn 0.988821 -0.073202 -0.129903
vn -0.954378 -0.298593 0.0021
vn 0.154297 -0.782913 -0.602694
vn -0.954378 -0.298593 0.0021
vn -0.239703 0.086201 0.967012
vn 0.988821 -0.073202 -0.129903
vn 0.392798 -0.034 0.918996
vn 0.275894 -0.344892 -0.89718
vn 0.996194 -0.029 0.0822
vn -0.93678 -0.223195 -0.269495
vn 0.996194 -0.029 0.0822
vn -0.266803 -0.0426 0.962809
vn -0.93678 -0.223195 -0.269495
vn 0.822172 0.320289 -0.470584
vn 0.094502 0.379106 -0.920515
vn -0.462406 0.275104 -0.842911
vn 0.961219 0.261705 0.087002
vn -0.957877 0.212295 -0.193396
vn -0.949642 0.080904 0.302713
vn 0.482208 0.199603 0.853015
vn -0.286292 0.208094 0.935272
vn 0.869533 -0.184007 -0.458317
vn -0.283292 -0.328891 -0.900875
vn -0.138997 -0.291294 -0.946482
vn 0.990895 -0.088799 -0.101199
vn -0.915458 -0.371283 0.155193
vn -0.926778 -0.321393 0.194395
vn 0.490978 -0.127694 0.861763
vn -0.126203 0.108802 0.98602
vn 0.187007 -0.0071 -0.982333
vn 0.938153 0.346083 -0.009799
vn -0.992279 -0.103398 -0.068499
vn 0.858169 0.425052 -0.287885
vn -0.409323 0.032023 -0.911828
vn -0.951538 0.239256 0.193217
vn 0.095356 0.78269 0.615064
vn 0.097355 0.856137 0.507495
vn 0.856605 0.505825 0.10183
vn -0.850261 0.398508 0.343872
vn 0.979809 0.081704 0.182481
vn -0.735337 0.025694 0.677215
vn 0.846622 0.100954 -0.522532
vn -0.995217 0.039066 -0.089541
vn 0.982227 0.074627 -0.172227
vn -0.982255 0.02207 0.186247
vn -0.822847 -0.479568 0.304857
vn -0.329711 0.334941 0.882669
vn 0.434619 -0.890601 -0.13393
vn 0.989167 0.093358 0.113279
vn -0.286516 0.36712 0.884947
vn -0.115199 0.444197 0.888492
vn -0.284095 0.335494 0.898184
vn -0.103398 0.315493 0.943278
vn 0.393613 0.093303 -0.914529
vn 0.247789 0.080596 -0.965456
vn 0.422596 0.063499 -0.904091
vn 0.253092 0.061798 -0.965467
vn -0.156198 0.903287 0.399594
vn -0.152693 0.90876 0.388383
vn -0.143004 0.920825 0.36281
vn -0.114899 0.940493 0.319798
vn -0.143004 0.920825 0.36281
vn -0.050201 0.929612 0.365105
vn -0.143004 0.920825 0.36281
vn -0.162905 0.893528 0.418413
vn -0.143004 0.920825 0.36281
vn -0.196196 0.955383 0.220796
vn -0.196196 0.955383 0.220796
vn -0.196196 0.955383 0.220796
vn -0.196201 0.955404 0.220701
vn -0.196201 0.955404 0.220701
vn -0.196201 0.955404 0.220701
vn -0.041101 0.97942 0.197604
vn -0.041101 0.97942 0.197604
vn -0.041101 0.97942 0.197604
vn -0.041101 0.97942 0.197604
vn -0.475787 0.774379 -0.417089
vn -0.475787 0.774379 -0.417089
vn -0.475787 0.774379 -0.417089
vn -0.475787 0.774379 -0.417089
vn 0.168205 0.858122 -0.485112
vn 0.168205 0.858122 -0.485112
vn 0.168205 0.858122 -0.485112
vn 0.16819 0.858148 -0.485071
vn 0.16819 0.858148 -0.485071
vn 0.16819 0.858148 -0.485071
vn 0.327492 -0.241648 -0.913431
vn 0.712712 0.579765 0.394861
vn 0.024544 -0.849877 0.526409
vn -0.105175 0.14115 0.984386
vn -0.519605 -0.742381 -0.422944
vn 0.220761 0.795432 -0.564405
vn -0.854664 0.518973 -0.014716
vn -0.97547 -0.215298 0.045882
vn 0.14174 0.614469 0.776105
vn 0.092524 0.48685 -0.868572
vn 0.462345 -0.133768 -0.876552
vn 0.55254 0.771127 0.316327
vn 0.482123 -0.715189 0.506026
vn 0.04229 0.124509 0.991317
vn -0.061857 -0.920369 -0.386128
vn 0.019468 0.795846 -0.605187
vn -0.996063 -0.072114 0.051561
vn -0.769892 -0.628308 0.111783
vn -0.810799 0.258963 0.524922
vn -0.854651 0.129924 -0.502685
vn 0.595129 -0.352833 -0.722033
vn 0.552792 0.666434 0.500286
vn -0.135381 -0.763199 0.631823
vn -0.40518 0.275206 0.871832
vn -0.359656 -0.821248 -0.442945
vn 0.380575 0.716674 -0.584416
vn -0.810749 0.46661 -0.3535
vn -0.940778 -0.256662 -0.221498
vn -0.108243 0.72591 0.679219
vn 0.35429 0.361486 -0.862442
vn 0.737344 -0.119824 -0.664805
vn 0.380763 0.798415 0.466426
vn 0.310336 -0.687911 0.656103
vn -0.301587 0.134771 0.943866
vn 0.110096 -0.925508 -0.362372
vn 0.19149 0.790695 -0.581492
vn -0.950693 -0.117471 -0.287027
vn -0.736036 -0.66217 -0.140651
vn -0.950576 0.225734 0.213189
vn -0.637941 0.086093 -0.765258
vn -0.018223 -0.726574 -0.686847
vn 0.762281 0.593361 -0.258554
vn 0.282777 -0.443247 0.850629
vn 0.257871 0.647846 0.716797
vn -0.581689 -0.772002 0.256226
vn -0.065843 0.342953 -0.937042
vn -0.835564 0.549269 0.01166
vn -0.869162 -0.019569 0.49414
vn 0.373124 0.902186 0.216425
vn -0.274156 -0.057303 -0.959977
vn 0.107611 -0.591586 -0.799028
vn 0.589496 0.74386 -0.314908
vn 0.673067 -0.454365 0.583553
vn 0.403089 0.566847 0.718473
vn -0.153216 -0.975244 0.159452
vn -0.249789 0.408382 -0.877969
vn -0.899377 0.100195 0.425536
vn -0.638259 -0.388554 0.664569
vn -0.568327 0.584769 0.578836
vn -0.986131 -0.00275 -0.165946
vn -0.478012 0.763919 0.433511
vn -0.3535 0.588401 -0.727201
vn -0.859977 0.508967 0.037318
vn -0.504621 0.163407 -0.847736
vn -0.568763 0.561564 0.600961
vn -0.680485 0.372892 0.630786
vn -0.478012 0.763919 0.433511
vn -0.680502 -0.1191 0.723002
vn -0.972896 0.197911 0.119603
vn -0.651937 -0.701173 0.288679
vn 0.050391 0.192803 0.979943
vn 0.32865 -0.944079 -0.026538
vn -0.676847 -0.057804 -0.733851
vn -0.769995 -0.0682 0.634395
vn -0.971796 -0.217599 -0.0909
vn -0.997777 0.041299 -0.052299
vn -0.997777 0.041299 -0.052299
vn -0.971796 -0.217599 -0.0909
vn -0.489093 -0.287496 -0.823489
vn -0.704279 0.128596 0.698179
vn -0.566808 -0.730611 -0.380706
vn -0.542687 -0.698483 -0.466489
vn -0.348495 -0.80639 -0.477794
vn -0.046198 -0.861366 -0.50588
vn -0.348495 -0.80639 -0.477794
vn -0.542687 -0.698483 -0.466489
vn 0.102195 -0.895157 -0.433879
vn -0.865975 0.053798 0.497185
vn -0.94758 0.094598 -0.305194
vn -0.942334 0.124605 -0.310612
vn -0.50098 0.052498 -0.863865
vn -0.942334 0.124605 -0.310612
vn -0.94758 0.094598 -0.305194
vn -0.362791 0.097297 -0.926777
vn -0.865975 0.053798 0.497185
vn -0.839565 0.144904 0.523578
vn -0.839565 0.144904 0.523578
vn -0.886228 0.0701 -0.457915
vn -0.886228 0.0701 -0.457915
vn 0.014799 -0.040511 -0.99907
vn 0.014799 -0.040511 -0.99907
vn -0.362791 0.097297 -0.926777
vn -0.712369 0.381783 0.588874
vn -0.552642 -0.610801 -0.567018
vn -0.907728 -0.161305 0.387312
vn -0.907728 -0.161305 0.387312
vn -0.626201 -0.757101 -0.1862
vn -0.971796 -0.217599 -0.0909
vn -0.825671 -0.153095 -0.542982
vn -0.676847 -0.057804 -0.733851
vn -0.857817 -0.182904 -0.48031
vn -0.857817 -0.182904 -0.48031
vn -0.712369 0.381783 0.588874
vn -0.764329 -0.316547 0.561782
vn -0.17186 0.345159 -0.922675
vn -0.859977 0.508967 0.037318
vn -0.859977 0.508967 0.037318
vn -0.504621 0.163407 -0.847736
vn 0.85403 -0.4268 0.297446
vn -0.980508 0.195667 -0.017847
vn 0.705191 -0.15452 -0.691975
vn -0.291154 0.337755 -0.895071
vn 0.987892 0.080844 0.132415
vn 0.114812 0.842045 0.527046
vn 0.506129 -0.104571 -0.856095
vn -0.673264 0.49377 -0.550371
vn 0.815673 -0.280651 0.505878
vn -0.295815 0.328523 0.896976
vn 0.377945 -0.549541 -0.745092
vn -0.911086 0.178927 -0.371359
vn 0.27708 -0.711893 0.645318
vn -0.559264 -0.225869 0.797626
vn 0.224804 -0.685781 -0.69222
vn -0.907941 -0.314527 -0.276977
vn -0.861238 0.363664 0.354989
vn -0.433144 0.09836 0.895942
vn -0.437017 0.581254 0.686411
vn 0.433728 0.321084 0.841894
vn 0.177889 -0.224301 -0.958147
vn -0.935183 -0.144397 -0.323392
vn 0.927971 -0.240693 0.284494
vn 0.927971 -0.240693 0.284494
vn -0.935183 -0.144397 -0.323392
vn -0.602881 -0.087885 0.792976
vn -0.065999 -0.355492 -0.932346
vn -0.987765 -0.102894 -0.117194
vn 0.985529 -0.15111 -0.076801
vn -0.987765 -0.102894 -0.117194
vn 0.072802 -0.032189 0.996827
vn 0.985529 -0.15111 -0.076801
vn -0.732075 0.485182 -0.47819
vn 0.535703 0.723192 -0.435909
vn 0.028301 0.797556 -0.60258
vn -0.989868 0.128599 -0.060199
vn 0.828988 0.131901 0.54349
vn 0.867511 0.465204 0.176097
vn -0.657606 -0.096089 0.747209
vn 0.0398 -0.00459 0.999197
vn -0.711127 -0.120709 -0.692624
vn 0.376607 0.05189 -0.924919
vn 0.513308 0.01809 -0.858014
vn -0.91682 -0.161904 -0.365005
vn 0.918675 -0.295893 0.261696
vn 0.912483 -0.260696 0.315297
vn -0.620798 -0.456989 0.637002
vn -0.0729 -0.09179 0.993106
vn 0.0319 0.189791 -0.981306
vn -0.877785 0.420994 -0.2286
vn 0.987698 -0.033702 0.1527
vn -0.752059 0.457055 -0.474877
vn 0.625145 0.021333 -0.780217
vn 0.870158 0.222877 0.43949
vn -0.224122 0.803602 0.551355
vn -0.225233 0.856352 0.464683
vn -0.853688 0.505939 -0.123462
vn 0.732347 0.39863 0.552053
vn -0.993639 0.081894 -0.077299
vn 0.535072 0.025803 0.844412
vn -0.682511 0.100741 -0.723899
vn 0.984494 0.038978 0.171035
vn -0.904179 0.074611 -0.420587
vn 0.900582 0.022083 0.434125
vn 0.591731 -0.506893 0.626828
vn -0.389562 -0.06687 0.91857
vn 0.066603 -0.767894 -0.637105
vn -0.824734 -0.03508 -0.564431
vn -0.417206 0.350005 0.838711
vn -0.447608 0.253605 0.857515
vn 0.102899 0.089199 -0.990684
vn 0.077903 0.032301 -0.996438
vn -0.143004 0.920825 0.36281
vn -0.151796 0.908778 0.388691
vn -0.143004 0.920825 0.36281
vn -0.137305 0.940237 0.311612
vn -0.143004 0.920825 0.36281
vn -0.215803 0.927612 0.304904
vn 0.077306 0.965027 0.250494
vn 0.077306 0.965027 0.250494
vn 0.077306 0.965027 0.250494
vn 0.077306 0.965027 0.250494
vn -0.071498 0.977834 0.196794
vn -0.071498 0.977834 0.196794
vn -0.071498 0.977834 0.196794
vn -0.071498 0.977834 0.196794
vn 0.490507 0.8113 -0.318113
vn 0.490507 0.8113 -0.318113
vn 0.490507 0.8113 -0.318113
vn 0.490507 0.8113 -0.318113
vn -0.1315 0.84812 -0.513226
vn -0.1315 0.84812 -0.513226
vn -0.1315 0.84812 -0.513226
vn -0.1315 0.84812 -0.513226
vn 0.852893 -0.433901 -0.290352
vn -0.696434 -0.715471 -0.055504
vn -0.228081 0.651797 -0.723284
vn 0.228741 -0.81663 0.5299
vn -0.934071 0.351272 0.064176
vn 0.732495 0.654175 -0.188433
vn 0.089049 0.503131 0.85961
vn -0.6175 0.768219 -0.168917
vn -0.13438 -0.200557 0.970422
vn 0.956609 0.287004 -0.050283
vn 0.857919 -0.288631 -0.42505
vn -0.61297 -0.541613 -0.575259
vn -0.098547 0.864916 -0.492147
vn 0.17011 -0.985406 -0.006195
vn -0.934271 0.346611 -0.083659
vn 0.764143 0.63876 0.089839
vn -0.139627 -0.139819 0.980283
vn -0.51428 0.302877 0.80236
vn -0.303063 -0.648002 0.698747
vn 0.454272 -0.056448 0.889073
vn 0.653959 -0.500904 -0.56695
vn -0.787466 -0.608109 0.100506
vn -0.319178 0.759232 -0.567179
vn 0.238234 -0.897866 0.370246
vn -0.808518 0.457607 0.369993
vn 0.742023 0.572986 -0.347978
vn 0.410111 0.378633 0.829727
vn -0.509961 0.855877 0.086106
vn 0.118979 -0.298807 0.946868
vn 0.935057 0.165929 -0.313267
vn 0.675328 -0.205138 -0.708414
vn -0.765751 -0.495499 -0.410007
vn -0.251287 0.911054 -0.326857
vn 0.158656 -0.971001 -0.178845
vn -0.91132 0.31785 0.261663
vn 0.752672 0.653166 -0.082817
vn 0.183241 -0.2561 0.949124
vn -0.228467 0.189374 0.954956
vn -0.06225 -0.734706 0.675524
vn 0.71619 -0.140137 0.683691
vn 0.506564 -0.859359 -0.069958
vn -0.892581 -0.181426 -0.412776
vn 0.459361 0.632679 -0.623462
vn -0.47709 -0.775279 0.413918
vn -0.52791 0.829695 -0.181433
vn 0.977154 0.100432 0.187305
vn 0.02128 0.393745 0.918974
vn 0.024985 0.976066 -0.216037
vn -0.574173 -0.045033 0.817495
vn 0.89064 -0.322637 0.320417
vn 0.691238 -0.707701 -0.146114
vn -0.533796 -0.173946 -0.827529
vn 0.53192 0.769326 -0.353835
vn -0.348873 -0.931566 -0.102334
vn -0.532881 0.773905 -0.342212
vn 0.881768 0.157669 0.444552
vn -0.544632 -0.004104 0.838665
vn -0.554885 0.559777 0.615429
vn -0.818058 -0.367705 0.442237
vn -0.002523 -0.242429 0.970166
vn -0.006036 -0.999591 -0.02794
vn -0.006036 -0.999591 -0.02794
vn -0.006036 -0.999591 -0.02794
vn -0.006036 -0.999591 -0.02794
vn 0.003266 -0.999864 0.016159
vn 0.003266 -0.999864 0.016159
vn 0.003266 -0.999864 0.016159
vn 0.003266 -0.999864 0.016159
vn 0.012934 -0.999601 -0.025118
vn 0.012934 -0.999601 -0.025118
vn 0.012934 -0.999601 -0.025118
vn 0.012934 -0.999601 -0.025118
vn -0.007466 -0.999858 0.015081
vn -0.007466 -0.999858 0.015081
vn -0.007466 -0.999858 0.015081
vn -0.007466 -0.999858 0.015081
vn -0.001235 -0.999986 -0.00514
vn -0.001235 -0.999986 -0.00514
vn -0.001235 -0.999986 -0.00514
vn -0.007336 -0.999394 -0.03404
vn -0.007336 -0.999394 -0.03404
vn -0.007336 -0.999394 -0.03404
vn 0.015734 -0.999404 -0.030718
vn 0.015734 -0.999404 -0.030718
vn 0.015734 -0.999404 -0.030718
vn 0.002334 -0.999988 -0.004318
vn 0.002334 -0.999988 -0.004318
vn 0.002334 -0.999988 -0.004318
vn 0.462584 -0.042199 0.885571
vn 0.951407 0.080601 -0.297202
vn 0.883352 0.056203 0.465328
vn 0.843876 0.187295 -0.502786
vn 0 0.242794 -0.970078
vn -0 0.021499 0.999769
vn -0 -0.050102 0.998744
vn 0.811379 0.563485 -0.155396
vn 0.608922 0.428516 0.667524
vn 0 0.638294 -0.769793
vn -0 0.397296 0.917691
vn -0 0.985043 0.172308
vn 0.992479 -0.122398 -0.0021
vn 0.954623 -0.068602 -0.289807
vn 0.989379 -0.061099 -0.131897
vn 0.928789 -0.149998 0.338897
vn 0.932728 0.197306 -0.301809
vn 0.99551 -0.047801 0.081701
vn 0.827294 -0.421397 0.371497
vn 0.94917 0.31449 -0.013099
vn 0.967671 -0.215894 0.130396
vn 0.867472 -0.483485 0.117196
vn 0.99186 -0.114895 0.054898
vn -0.951407 0.080601 -0.297202
vn -0.883353 0.056203 0.465327
vn -0.843876 0.187295 -0.502786
vn -0.462585 -0.042199 0.88557
vn -0.608922 0.428516 0.667524
vn -0.811379 0.563486 -0.155396
vn -0.992479 -0.122397 -0.0021
vn -0.989379 -0.061099 -0.131897
vn -0.954623 -0.068602 -0.289807
vn -0.92879 -0.149998 0.338896
vn -0.99551 -0.0478 0.081701
vn -0.932728 0.197306 -0.301809
vn -0.827294 -0.421397 0.371497
vn -0.967671 -0.215894 0.130396
vn -0.94917 0.31449 -0.0131
vn -0.867472 -0.483485 0.117196
vn -0.99186 -0.114895 0.054898
vn 0.946254 -0.20569 0.249588
vn 0.838065 -0.313387 -0.446581
vn 0.997801 -0.0114 0.0653
vn 0.698125 0.130805 0.703926
vn 0.899684 0.169497 -0.402293
vn 0.944684 0.044899 0.324895
vn 0.764603 -0.127801 0.631703
vn 0.986132 0.0136 0.165406
vn -0.946255 -0.20569 0.249588
vn -0.997801 -0.0114 0.0653
vn -0.838065 -0.313387 -0.446582
vn -0.698126 0.130805 0.703926
vn -0.944684 0.044899 0.324894
vn -0.899684 0.169497 -0.402293
vn -0.764604 -0.127801 0.631703
vn -0.986132 0.0136 0.165405
vn 0.81563 0.450117 0.363514
vn 0.839358 0.40958 0.357382
vn 0.938859 0.319586 0.128095
vn -0.873877 -0.485087 0.032099
vn -0.989209 -0.113701 0.092401
vn -0.840376 -0.514885 0.169295
vn -0.567285 -0.823079 -0.026999
vn 0.615118 0.782823 0.093903
vn 0.758691 0.577693 0.301097
vn 0.809863 0.562674 -0.165892
vn 0.819904 0.547602 -0.167001
vn 0.869488 0.462893 -0.172398
vn -0.971229 -0.158205 0.178005
vn -0.523107 -0.842811 0.126602
vn 0.612183 0.778278 -0.139696
vn 0.804784 0.570088 -0.165297
vn 0.660708 0.368604 -0.653908
vn 0.833903 0.295401 -0.466202
vn -0.95946 -0.106895 0.260789
vn -0.512411 -0.810417 0.284006
vn 0.534932 0.764445 -0.359821
vn 0.601819 0.541717 -0.586819
vn 0.635803 0.408802 -0.654703
vn -0.825282 -0.473989 0.306993
vn -0.73447 0.417683 -0.534879
vn -0.759427 0.377714 -0.52972
vn -0.898308 0.306603 -0.314703
vn 0.85993 -0.484817 0.159606
vn 0.98871 -0.119501 0.090401
vn 0.850328 -0.525817 0.021401
vn 0.543467 -0.817251 0.191689
vn -0.579422 0.771629 -0.26241
vn -0.687578 0.549982 -0.474085
vn -0.819088 0.573191 -0.0234
vn -0.829395 0.558197 -0.0228
vn -0.880204 0.474202 -0.0193
vn 0.985282 -0.170797 0.0069
vn 0.526294 -0.84959 0.0348
vn -0.617113 0.786216 -0.032201
vn -0.813863 0.580574 -0.023699
vn -0.759277 0.419887 0.497185
vn -0.898203 0.331401 0.288801
vn 0.988687 -0.126498 -0.080599
vn 0.543416 -0.830224 -0.124204
vn -0.579367 0.790554 0.198389
vn -0.687424 0.587021 0.427615
vn -0.734304 0.460102 0.499103
vn 0.85988 -0.496289 -0.119597
vt 0.9021 0.8237
vt 0.9894 0.7629
vt 0.9039 0.8546
vt 0.7774 0.7618
vt 0.9499 0.7436
vt 0.7774 0.9012
vt 0.693 0.7857
vt 0.7685 0.7675
vt 0.7685 0.7046
vt 0.6275 0.7269
vt 0.6442 0.8328
vt 0.7685 0.5992
vt 0.6466 0.6099
vt 0.0568 0.5638
vt 0.0452 0.5424
vt 0.0216 0.574
vt 0.029 0.5686
vt 0.9499 0.646
vt 0.7685 0.5437
vt 0.6601 0.4998
vt 0.5898 0.551
vt 0.5881 0.5023
vt 0.9567 0.5484
vt 0.9584 0.5029
vt 0.9178 0.5303
vt 0.7774 0.602
vt 0.7685 0.4549
vt 0.6247 0.4509
vt 0.6247 0.4509
vt 0.6139 0.456
vt 0.5881 0.5023
vt 0.9178 0.5303
vt 0.9584 0.5029
vt 0.9325 0.4822
vt 0.8726 0.5143
vt 0.7853 0.5317
vt 0.7774 0.602
vt 0.7685 0.385
vt 0.651 0.4137
vt 0.601 0.372
vt 0.6139 0.456
vt 0.8726 0.5143
vt 0.9325 0.4822
vt 0.9416 0.374
vt 0.8963 0.4093
vt 0.7853 0.5317
vt 0.7853 0.4065
vt 0.2572 0.4275
vt 0.1369 0.3912
vt 0.1369 0.3011
vt 0.2679 0.3025
vt 0.6376 0.2563
vt 0.576 0.2754
vt 0.9666 0.2838
vt 0.9181 0.3148
vt 0.4072 0.3302
vt 0.5016 0.3321
vt 0.5189 0.2669
vt 0.4072 0.2466
vt 0.5884 0.7338
vt 0.0577 0.6253
vt 0.5957 0.6511
vt 0.6052 0.6448
vt 0.5989 0.5602
vt 0.5799 0.6124
vt 0.6062 0.6493
vt 0.6039 0.6845
vt 0.9594 0.7305
vt 0.5961 0.741
vt 0.5974 0.7286
vt 0.522 0.677
vt 0.51 0.6752
vt 0.514 0.7762
vt 0.51 0.7806
vt 0.6062 0.7553
vt 0.4288 0.6118
vt 0.4108 0.6619
vt 0.4119 0.6611
vt 0.3957 0.7326
vt 0.3726 0.5893
vt 0.3539 0.6519
vt 0.3572 0.6558
vt 0.3411 0.7401
vt 0.2281 0.5519
vt 0.2157 0.6184
vt 0.2224 0.6115
vt 0.2069 0.6976
vt 0.1295 0.5378
vt 0.1194 0.5903
vt 0.1185 0.5758
vt 0.1153 0.6722
vt 0.0445 0.7393
vt 0.0022 0.754
vt 0.0147 0.7064
vt 0.0405 0.7343
vt 0.7774 0.1825
vt 0.7774 0.2854
vt 0.9225 0.1711
vt 0.983 0.1682
vt 0.8209 0.0967
vt 0.7685 0.1593
vt 0.7252 0.0674
vt 0.7685 0.2543
vt 0.5695 0.1517
vt 0.6422 0.1234
vt 0.9135 0.0263
vt 0.9793 0.0274
vt 0.8344 0.0194
vt 0.5614 0.0053
vt 0.6296 0.0098
vt 0.6999 0.0118
vt 0.1889 0.9934
vt 0.3016 0.9369
vt 0.257 0.9924
vt 0.2058 0.915
vt 0.1956 0.8922
vt 0.1963 0.9652
vt 0.0806 0.9852
vt 0.0762 0.9225
vt 0.1934 0.9286
vt 0.2484 0.8818
vt 0.2629 0.9444
vt 0.1883 0.8627
vt 0.186 0.9121
vt 0.1823 0.8663
vt 0.0995 0.9341
vt 0.1434 0.8237
vt 0.2412 0.7867
vt 0.1858 0.8093
vt 0.1818 0.7996
vt 0.1766 0.7796
vt 0.2428 0.7229
vt 0.1726 0.7746
vt 0.1016 0.8067
vt 0.0422 0.7836
vt 0.098 0.7584
vt 0.0941 0.7533
vt 0.0454 0.7072
vt 0.0415 0.7072
vt 0.1874 0.7079
vt 0.1835 0.7079
vt 0.1166 0.7088
vt 0.1127 0.7088
vt 0.1026 0.5858
vt 0.105 0.5983
vt 0.1045 0.6102
vt 0.1026 0.6483
vt 0.1369 0.1936
vt 0.2679 0.1944
vt 0.1369 0.0095
vt 0.2679 0.0328
vt 0.5189 0.1517
vt 0.4072 0.1448
vt 0.5189 0.0325
vt 0.4072 0.0058
vt 0.7676 0.7724
vt 0.7171 0.7868
vt 0.7537 0.8002
vt 0.6755 0.8308
vt 0.7082 0.8265
vt 0.674 0.8766
vt 0.7385 0.8553
vt 0.7636 0.9068
vt 0.7636 0.8627
vt 0.8594 0.5394
vt 0.8566 0.533
vt 0.8556 0.534
vt 0.8556 0.534
vt 0.8596 0.5428
vt 0.8594 0.5394
vt 0.8618 0.5337
vt 0.8594 0.5394
vt 0.8596 0.5428
vt 0.8629 0.535
vt 0.8566 0.533
vt 0.8593 0.5228
vt 0.8594 0.52
vt 0.8556 0.534
vt 0.8593 0.5228
vt 0.8618 0.5337
vt 0.8629 0.535
vt 0.8629 0.535
vt 0.8594 0.52
vt 0.8593 0.5228
vt 0.4303 0.4763
vt 0.4303 0.4763
vt 0.4179 0.5388
vt 0.3555 0.4815
vt 0.3466 0.5261
vt 0.3555 0.4815
vt 0.3021 0.4471
vt 0.3466 0.5261
vt 0.3555 0.4815
vt 0.3555 0.4815
vt 0.366 0.4524
vt 0.366 0.4524
vt 0.3685 0.5058
vt 0.4302 0.502
vt 0.4307 0.5562
vt 0.4302 0.502
vt 0.4582 0.5336
vt 0.4307 0.5562
vt 0.4302 0.502
vt 0.4302 0.502
vt 0.4396 0.4799
vt 0.4135 0.4758
vt 0.4141 0.5403
vt 0.3467 0.4822
vt 0.3472 0.5282
vt 0.3654 0.4851
vt 0.3062 0.4498
vt 0.3472 0.5282
vt 0.3467 0.4822
vt 0.3654 0.4851
vt 0.3659 0.4524
vt 0.366 0.4524
vt 0.3685 0.5058
vt 0.4302 0.502
vt 0.4307 0.5562
vt 0.4302 0.502
vt 0.4581 0.5336
vt 0.4307 0.5562
vt 0.4302 0.502
vt 0.4302 0.502
vt 0.3963 0.4755
vt 0.4401 0.4823
vt 0.4057 0.5414
vt 0.372 0.4885
vt 0.3475 0.5307
vt 0.3407 0.4836
vt 0.3136 0.4533
vt 0.3475 0.5307
vt 0.372 0.4885
vt 0.3407 0.4836
vt 0.3661 0.4524
vt 0.366 0.4524
vt 0.3688 0.5057
vt 0.4302 0.502
vt 0.4307 0.5562
vt 0.4302 0.502
vt 0.4581 0.5337
vt 0.4307 0.5562
vt 0.4302 0.502
vt 0.4302 0.502
vt 0.9021 0.8237
vt 0.9039 0.8546
vt 0.9894 0.7629
vt 0.9499 0.7436
vt 0.693 0.7857
vt 0.6275 0.7269
vt 0.6442 0.8328
vt 0.6466 0.6099
vt 0.0568 0.5638
vt 0.0216 0.574
vt 0.0452 0.5424
vt 0.029 0.5686
vt 0.9499 0.646
vt 0.6601 0.4998
vt 0.5898 0.551
vt 0.5881 0.5023
vt 0.9584 0.5029
vt 0.9567 0.5484
vt 0.9178 0.5303
vt 0.6247 0.4509
vt 0.6247 0.4509
vt 0.5881 0.5023
vt 0.6139 0.456
vt 0.9178 0.5303
vt 0.9325 0.4822
vt 0.9584 0.5029
vt 0.8726 0.5143
vt 0.651 0.4137
vt 0.6139 0.456
vt 0.601 0.372
vt 0.8726 0.5143
vt 0.9416 0.374
vt 0.9325 0.4822
vt 0.8963 0.4093
vt 0.0303 0.4227
vt 0.0177 0.3025
vt 0.6376 0.2563
vt 0.576 0.2754
vt 0.9666 0.2838
vt 0.9181 0.3148
vt 0.2956 0.2669
vt 0.3128 0.3321
vt 0.5884 0.7338
vt 0.0577 0.6253
vt 0.5957 0.6511
vt 0.6052 0.6448
vt 0.5799 0.6124
vt 0.5989 0.5602
vt 0.6039 0.6845
vt 0.6062 0.6493
vt 0.9594 0.7305
vt 0.5961 0.741
vt 0.5974 0.7286
vt 0.522 0.677
vt 0.51 0.6752
vt 0.514 0.7762
vt 0.51 0.7806
vt 0.6062 0.7553
vt 0.4288 0.6118
vt 0.4108 0.6619
vt 0.4119 0.6611
vt 0.3957 0.7326
vt 0.3726 0.5893
vt 0.3539 0.6519
vt 0.3572 0.6558
vt 0.3411 0.7401
vt 0.2281 0.5519
vt 0.2157 0.6184
vt 0.2224 0.6115
vt 0.2069 0.6976
vt 0.1295 0.5378
vt 0.1194 0.5903
vt 0.1185 0.5758
vt 0.1153 0.6722
vt 0.0445 0.7393
vt 0.0147 0.7064
vt 0.0022 0.754
vt 0.0405 0.7343
vt 0.9225 0.1711
vt 0.983 0.1682
vt 0.8209 0.0967
vt 0.7252 0.0674
vt 0.5695 0.1517
vt 0.6422 0.1234
vt 0.9135 0.0263
vt 0.9793 0.0274
vt 0.8344 0.0194
vt 0.5614 0.0053
vt 0.6296 0.0098
vt 0.6999 0.0118
vt 0.1889 0.9934
vt 0.257 0.9924
vt 0.3016 0.9369
vt 0.2058 0.915
vt 0.1963 0.9652
vt 0.1956 0.8922
vt 0.0806 0.9852
vt 0.0762 0.9225
vt 0.1934 0.9286
vt 0.2629 0.9444
vt 0.2484 0.8818
vt 0.1883 0.8627
vt 0.186 0.9121
vt 0.1823 0.8663
vt 0.0995 0.9341
vt 0.1434 0.8237
vt 0.2412 0.7867
vt 0.1858 0.8093
vt 0.1818 0.7996
vt 0.1766 0.7796
vt 0.2428 0.7229
vt 0.1726 0.7746
vt 0.1016 0.8067
vt 0.0422 0.7836
vt 0.098 0.7584
vt 0.0941 0.7533
vt 0.0454 0.7072
vt 0.0415 0.7072
vt 0.1874 0.7079
vt 0.1835 0.7079
vt 0.1166 0.7088
vt 0.1127 0.7088
vt 0.1026 0.5858
vt 0.105 0.5983
vt 0.1045 0.6102
vt 0.1026 0.6483
vt 0.0177 0.1944
vt 0.0177 0.0328
vt 0.2956 0.1517
vt 0.2956 0.0325
vt 0.7536 0.8002
vt 0.717 0.7868
vt 0.7081 0.8265
vt 0.6754 0.8308
vt 0.7384 0.8553
vt 0.6739 0.8766
vt 0.8594 0.5394
vt 0.8556 0.534
vt 0.8566 0.533
vt 0.8596 0.5428
vt 0.8618 0.5337
vt 0.8596 0.5428
vt 0.8594 0.5394
vt 0.8629 0.535
vt 0.8566 0.533
vt 0.8594 0.52
vt 0.8593 0.5228
vt 0.8556 0.534
vt 0.8593 0.5228
vt 0.8629 0.535
vt 0.8618 0.5337
vt 0.8594 0.52
vt 0.4298 0.4764
vt 0.4173 0.5389
vt 0.4298 0.4764
vt 0.346 0.5262
vt 0.3549 0.4816
vt 0.3549 0.4816
vt 0.3015 0.4472
vt 0.3549 0.4816
vt 0.346 0.5262
vt 0.3549 0.4816
vt 0.366 0.4524
vt 0.3685 0.5058
vt 0.366 0.4524
vt 0.4307 0.5562
vt 0.4302 0.502
vt 0.4302 0.502
vt 0.4582 0.5336
vt 0.4302 0.502
vt 0.4307 0.5562
vt 0.4302 0.502
vt 0.439 0.48
vt 0.4135 0.5404
vt 0.4129 0.4759
vt 0.3466 0.5284
vt 0.3461 0.4823
vt 0.3648 0.4852
vt 0.3056 0.4499
vt 0.3461 0.4823
vt 0.3466 0.5284
vt 0.3648 0.4852
vt 0.3659 0.4524
vt 0.3685 0.5058
vt 0.366 0.4524
vt 0.4307 0.5562
vt 0.4302 0.502
vt 0.4302 0.502
vt 0.4581 0.5336
vt 0.4302 0.502
vt 0.4307 0.5562
vt 0.4302 0.502
vt 0.3957 0.4756
vt 0.4052 0.5415
vt 0.4395 0.4824
vt 0.3469 0.5308
vt 0.3715 0.4886
vt 0.3401 0.4837
vt 0.313 0.4534
vt 0.3715 0.4886
vt 0.3469 0.5308
vt 0.3401 0.4837
vt 0.3661 0.4524
vt 0.3688 0.5057
vt 0.366 0.4524
vt 0.4307 0.5562
vt 0.4302 0.502
vt 0.4302 0.502
vt 0.4581 0.5337
vt 0.4302 0.502
vt 0.4307 0.5562
vt 0.4302 0.502
vt 0.0454 0.7072
vt 0.0415 0.7072
vt 0.1127 0.7088
vt 0.1166 0.7088
vt 0.1166 0.7088
vt 0.1127 0.7088
vt 0.1835 0.7079
vt 0.1874 0.7079
vt 0.0415 0.7072
vt 0.0454 0.7072
vt 0.1166 0.7088
vt 0.1127 0.7088
vt 0.1127 0.7088
vt 0.1166 0.7088
vt 0.1874 0.7079
vt 0.1835 0.7079
vt 0.1874 0.7079
vt 0.1835 0.7079
vt 0.2428 0.7229
vt 0.0454 0.7072
vt 0.0147 0.7064
vt 0.0415 0.7072
vt 0.0415 0.7072
vt 0.0147 0.7064
vt 0.0454 0.7072
vt 0.1874 0.7079
vt 0.2428 0.7229
vt 0.1835 0.7079
vt 0.4281 0.3528
vt 0.5343 0.4137
vt 0.4373 0.4268
vt 0.5229 0.4599
vt 0.5836 0.4416
vt 0.365 0.3403
vt 0.3316 0.39
vt 0.4988 0.5655
vt 0.4221 0.5466
vt 0.5569 0.5694
vt 0.3577 0.5
vt 0.4426 0.5965
vt 0.6012 0.5949
vt 0.5873 0.5049
vt 0.6115 0.5157
vt 0.6287 0.5446
vt 0.6545 0.4397
vt 0.6631 0.4715
vt 0.6731 0.4953
vt 0.7171 0.4089
vt 0.7128 0.4323
vt 0.7184 0.4552
vt 0.7808 0.3935
vt 0.5343 0.4137
vt 0.4373 0.4268
vt 0.5229 0.4599
vt 0.4281 0.3528
vt 0.4221 0.5466
vt 0.4988 0.5655
vt 0.6012 0.5949
vt 0.6115 0.5157
vt 0.5873 0.5049
vt 0.6287 0.5446
vt 0.6631 0.4715
vt 0.6545 0.4397
vt 0.6731 0.4953
vt 0.7128 0.4323
vt 0.7171 0.4089
vt 0.7184 0.4552
vt 0.7808 0.3935
vt 0.6526 0.5552
vt 0.6303 0.4925
vt 0.6581 0.5016
vt 0.6743 0.5017
vt 0.6853 0.4184
vt 0.6996 0.4341
vt 0.7058 0.4424
vt 0.7735 0.3866
vt 0.6526 0.5552
vt 0.6581 0.5016
vt 0.6303 0.4925
vt 0.6743 0.5017
vt 0.6996 0.4341
vt 0.6853 0.4184
vt 0.7058 0.4424
vt 0.7735 0.3866
vt 0.5097 0.8736
vt 0.4384 0.9078
vt 0.3581 0.8883
vt 0.7339 0.8059
vt 0.7334 0.8085
vt 0.7246 0.8188
vt 0.7482 0.8109
vt 0.6641 0.9078
vt 0.6129 0.9308
vt 0.4341 0.9877
vt 0.3929 0.9877
vt 0.3068 0.9877
vt 0.733 0.8188
vt 0.7505 0.8188
vt 0.7325 0.9877
vt 0.6634 0.9877
vt 0.4384 0.9078
vt 0.3581 0.8884
vt 0.7334 0.8292
vt 0.7482 0.8268
vt 0.6641 0.9078
vt 0.6129 0.9309
vt 0.5097 0.8737
vt 0.7339 0.8318
vt 0.5097 0.8736
vt 0.4384 0.9078
vt 0.3581 0.8883
vt 0.7339 0.8059
vt 0.7334 0.8085
vt 0.7246 0.8188
vt 0.7482 0.8109
vt 0.6641 0.9078
vt 0.6129 0.9308
vt 0.4341 0.9877
vt 0.3929 0.9877
vt 0.3068 0.9877
vt 0.733 0.8188
vt 0.7505 0.8188
vt 0.7325 0.9877
vt 0.6634 0.9877
vt 0.4384 0.9078
vt 0.3581 0.8884
vt 0.7334 0.8292
vt 0.7482 0.8268
vt 0.6641 0.9078
vt 0.6129 0.9309
vt 0.5097 0.8737
vt 0.7339 0.8318
f 1/1/1 3/3/3 2/2/2
f 4/4/4 5/5/5 3/3/3
f 3/3/3 6/6/6 4/4/4
f 7/7/7 9/9/9 8/8/8
f 9/9/9 7/7/7 10/10/10
f 11/11/11 10/10/10 7/7/7
f 10/10/10 12/12/12 9/9/9
f 12/12/12 10/10/10 13/13/13
f 14/14/14 16/16/16 15/15/15
f 17/17/17 15/15/15 16/16/16
f 4/4/4 18/18/18 5/5/5
f 13/13/13 19/19/19 12/12/12
f 19/19/19 13/13/13 20/20/20
f 21/21/21 20/20/20 13/13/13
f 20/20/20 21/21/21 22/22/22
f 18/18/18 24/24/24 23/23/23
f 24/24/24 18/18/18 25/25/25
f 26/26/26 25/25/25 18/18/18
f 18/18/18 4/4/4 26/26/26
f 20/20/20 27/27/27 19/19/19
f 27/27/27 20/20/20 28/28/28
f 22/22/22 28/28/28 20/20/20
f 29/29/29 31/31/31 30/30/30
f 32/32/32 34/34/34 33/33/33
f 34/34/34 32/32/32 35/35/35
f 36/36/36 35/35/35 32/32/32
f 32/32/32 37/37/37 36/36/36
f 28/28/28 38/38/38 27/27/27
f 39/39/39 41/41/41 40/40/40
f 42/42/42 44/44/44 43/43/43
f 44/44/44 42/42/42 45/45/45
f 46/46/46 45/45/45 42/42/42
f 45/45/45 46/46/46 47/47/47
f 48/48/48 50/50/50 49/49/49
f 50/50/50 48/48/48 51/51/51
f 40/40/40 52/52/52 39/39/39
f 52/52/52 40/40/40 53/53/53
f 45/45/45 54/54/54 44/44/44
f 54/54/54 45/45/45 55/55/55
f 56/56/56 58/58/58 57/57/57
f 58/58/58 56/56/56 59/59/59
f 11/11/11 60/60/60 10/10/10
f 14/14/14 61/61/61 16/16/16
f 17/17/17 16/16/16 61/61/61
f 3/3/3 5/5/5 2/2/2
f 10/10/10 62/62/62 13/13/13
f 62/62/62 10/10/10 60/60/60
f 63/63/63 65/65/65 64/64/64
f 21/21/21 13/13/13 62/62/62
f 64/64/64 67/67/67 66/66/66
f 67/67/67 64/64/64 65/65/65
f 18/18/18 68/68/68 5/5/5
f 69/69/69 66/66/66 67/67/67
f 70/70/70 71/71/71 63/63/63
f 65/65/65 63/63/63 71/71/71
f 65/65/65 72/72/72 67/67/67
f 67/67/67 72/72/72 69/69/69
f 73/73/73 71/71/71 70/70/70
f 60/60/60 11/11/11 74/74/74
f 69/69/69 73/73/73 75/75/75
f 73/73/73 69/69/69 72/72/72
f 71/71/71 76/76/76 65/65/65
f 76/76/76 71/71/71 77/77/77
f 65/65/65 78/78/78 72/72/72
f 78/78/78 65/65/65 76/76/76
f 73/73/73 77/77/77 71/71/71
f 77/77/77 73/73/73 79/79/79
f 72/72/72 79/79/79 73/73/73
f 79/79/79 72/72/72 78/78/78
f 77/77/77 80/80/80 76/76/76
f 80/80/80 77/77/77 81/81/81
f 76/76/76 82/82/82 78/78/78
f 82/82/82 76/76/76 80/80/80
f 79/79/79 81/81/81 77/77/77
f 81/81/81 79/79/79 83/83/83
f 78/78/78 83/83/83 79/79/79
f 83/83/83 78/78/78 82/82/82
f 81/81/81 84/84/84 80/80/80
f 84/84/84 81/81/81 85/85/85
f 80/80/80 86/86/86 82/82/82
f 86/86/86 80/80/80 84/84/84
f 83/83/83 85/85/85 81/81/81
f 85/85/85 83/83/83 87/87/87
f 82/82/82 87/87/87 83/83/83
f 87/87/87 82/82/82 86/86/86
f 85/85/85 88/88/88 84/84/84
f 88/88/88 85/85/85 89/89/89
f 84/84/84 90/90/90 86/86/86
f 90/90/90 84/84/84 88/88/88
f 87/87/87 89/89/89 85/85/85
f 89/89/89 87/87/87 91/91/91
f 86/86/86 91/91/91 87/87/87
f 91/91/91 86/86/86 90/90/90
f 92/92/92 94/94/94 93/93/93
f 95/95/95 93/93/93 94/94/94
f 96/96/96 55/55/55 97/97/97
f 54/54/54 55/55/55 98/98/98
f 98/98/98 99/99/99 54/54/54
f 55/55/55 96/96/96 100/100/100
f 100/100/100 98/98/98 55/55/55
f 101/101/101 103/103/103 102/102/102
f 52/52/52 53/53/53 104/104/104
f 104/104/104 105/105/105 52/52/52
f 103/103/103 52/52/52 105/105/105
f 105/105/105 102/102/102 103/103/103
f 99/99/99 98/98/98 106/106/106
f 106/106/106 107/107/107 99/99/99
f 98/98/98 100/100/100 108/108/108
f 108/108/108 106/106/106 98/98/98
f 105/105/105 104/104/104 109/109/109
f 109/109/109 110/110/110 105/105/105
f 102/102/102 105/105/105 110/110/110
f 110/110/110 111/111/111 102/102/102
f 112/112/112 114/114/114 113/113/113
f 113/113/113 115/115/115 112/112/112
f 114/114/114 117/117/117 116/116/116
f 116/116/116 113/113/113 114/114/114
f 118/118/118 112/112/112 115/115/115
f 115/115/115 119/119/119 118/118/118
f 117/117/117 118/118/118 119/119/119
f 119/119/119 116/116/116 117/117/117
f 120/120/120 122/122/122 121/121/121
f 121/121/121 123/123/123 120/120/120
f 122/122/122 124/124/124 121/121/121
f 125/125/125 121/121/121 124/124/124
f 126/126/126 120/120/120 123/123/123
f 123/123/123 127/127/127 126/126/126
f 124/124/124 126/126/126 127/127/127
f 127/127/127 125/125/125 124/124/124
f 123/123/123 121/121/121 128/128/128
f 128/128/128 129/129/129 123/123/123
f 121/121/121 125/125/125 130/130/130
f 130/130/130 128/128/128 121/121/121
f 127/127/127 123/123/123 129/129/129
f 127/127/127 130/130/130 125/125/125
f 128/128/128 131/131/131 129/129/129
f 131/131/131 128/128/128 132/132/132
f 130/130/130 132/132/132 128/128/128
f 132/132/132 130/130/130 133/133/133
f 129/129/129 134/134/134 127/127/127
f 134/134/134 129/129/129 131/131/131
f 127/127/127 133/133/133 130/130/130
f 133/133/133 127/127/127 134/134/134
f 131/131/131 135/135/135 134/134/134
f 135/135/135 131/131/131 136/136/136
f 134/134/134 137/137/137 133/133/133
f 137/137/137 134/134/134 135/135/135
f 136/136/136 93/93/93 135/135/135
f 93/93/93 136/136/136 92/92/92
f 135/135/135 95/95/95 137/137/137
f 95/95/95 135/135/135 93/93/93
f 94/94/94 92/92/92 138/138/138
f 94/94/94 139/139/139 95/95/95
f 132/132/132 140/140/140 131/131/131
f 132/132/132 133/133/133 141/141/141
f 131/131/131 142/142/142 136/136/136
f 142/142/142 131/131/131 140/140/140
f 137/137/137 141/141/141 133/133/133
f 141/141/141 137/137/137 143/143/143
f 136/136/136 138/138/138 92/92/92
f 138/138/138 136/136/136 142/142/142
f 95/95/95 143/143/143 137/137/137
f 143/143/143 95/95/95 139/139/139
f 89/89/89 144/144/144 88/88/88
f 144/144/144 89/89/89 145/145/145
f 88/88/88 146/146/146 90/90/90
f 146/146/146 88/88/88 144/144/144
f 91/91/91 145/145/145 89/89/89
f 145/145/145 91/91/91 147/147/147
f 90/90/90 147/147/147 91/91/91
f 147/147/147 90/90/90 146/146/146
f 145/145/145 15/15/15 144/144/144
f 15/15/15 145/145/145 14/14/14
f 144/144/144 17/17/17 146/146/146
f 17/17/17 144/144/144 15/15/15
f 147/147/147 14/14/14 145/145/145
f 14/14/14 147/147/147 61/61/61
f 17/17/17 61/61/61 147/147/147
f 147/147/147 146/146/146 17/17/17
f 148/148/148 50/50/50 149/149/149
f 51/51/51 149/149/149 50/50/50
f 150/150/150 149/149/149 151/151/151
f 149/149/149 150/150/150 148/148/148
f 152/152/152 58/58/58 153/153/153
f 59/59/59 153/153/153 58/58/58
f 154/154/154 152/152/152 155/155/155
f 153/153/153 155/155/155 152/152/152
f 156/156/156 158/158/158 157/157/157
f 157/157/157 160/160/160 159/159/159
f 159/159/159 162/162/162 161/161/161
f 161/161/161 164/164/164 163/163/163
f 165/165/165 167/167/167 166/166/166
f 168/168/168 170/170/170 169/169/169
f 171/171/171 173/173/173 172/172/172
f 173/173/173 171/171/171 174/174/174
f 175/175/175 177/177/177 176/176/176
f 177/177/177 175/175/175 178/178/178
f 179/179/179 181/181/181 180/180/180
f 182/182/182 184/184/184 183/183/183
f 185/185/185 187/187/187 186/186/186
f 187/187/187 189/189/189 188/188/188
f 187/187/187 188/188/188 186/186/186
f 186/186/186 188/188/188 190/190/190
f 186/186/186 190/190/190 185/185/185
f 185/185/185 190/190/190 189/189/189
f 185/185/185 189/189/189 187/187/187
f 191/191/191 193/193/193 192/192/192
f 191/191/191 194/194/194 193/193/193
f 191/191/191 192/192/192 194/194/194
f 195/195/195 197/197/197 196/196/196
f 197/197/197 199/199/199 198/198/198
f 197/197/197 198/198/198 196/196/196
f 196/196/196 198/198/198 200/200/200
f 196/196/196 200/200/200 195/195/195
f 195/195/195 200/200/200 199/199/199
f 195/195/195 199/199/199 197/197/197
f 201/201/201 203/203/203 202/202/202
f 201/201/201 204/204/204 203/203/203
f 201/201/201 202/202/202 204/204/204
f 205/205/205 207/207/207 206/206/206
f 207/207/207 209/209/209 208/208/208
f 207/207/207 208/208/208 206/206/206
f 206/206/206 208/208/208 210/210/210
f 206/206/206 210/210/210 205/205/205
f 205/205/205 210/210/210 209/209/209
f 205/205/205 209/209/209 207/207/207
f 211/211/211 213/213/213 212/212/212
f 211/211/211 214/214/214 213/213/213
f 211/211/211 212/212/212 214/214/214
f 215/215/215 217/217/217 216/216/216
f 217/217/217 219/219/219 218/218/218
f 217/217/217 218/218/218 216/216/216
f 216/216/216 218/218/218 220/220/220
f 216/216/216 220/220/220 215/215/215
f 215/215/215 220/220/220 219/219/219
f 215/215/215 219/219/219 217/217/217
f 221/221/221 223/223/223 222/222/222
f 221/221/221 224/224/224 223/223/223
f 221/221/221 222/222/222 224/224/224
f 225/225/225 227/227/227 226/226/226
f 227/227/227 229/229/229 228/228/228
f 227/227/227 228/228/228 226/226/226
f 226/226/226 228/228/228 230/230/230
f 226/226/226 230/230/230 225/225/225
f 225/225/225 230/230/230 229/229/229
f 225/225/225 229/229/229 227/227/227
f 231/231/231 233/233/233 232/232/232
f 231/231/231 234/234/234 233/233/233
f 231/231/231 232/232/232 234/234/234
f 235/235/235 237/237/237 236/236/236
f 237/237/237 239/239/239 238/238/238
f 237/237/237 238/238/238 236/236/236
f 236/236/236 238/238/238 240/240/240
f 236/236/236 240/240/240 235/235/235
f 235/235/235 240/240/240 239/239/239
f 235/235/235 239/239/239 237/237/237
f 241/241/241 243/243/243 242/242/242
f 241/241/241 244/244/244 243/243/243
f 241/241/241 242/242/242 244/244/244
f 245/245/245 247/247/247 246/246/246
f 4/4/4 246/246/246 248/248/248
f 246/246/246 4/4/4 6/6/6
f 249/249/249 8/8/8 9/9/9
f 9/9/9 250/250/250 249/249/249
f 251/251/251 249/249/249 250/250/250
f 250/250/250 9/9/9 12/12/12
f 12/12/12 252/252/252 250/250/250
f 253/253/253 255/255/255 254/254/254
f 256/256/256 254/254/254 255/255/255
f 4/4/4 248/248/248 257/257/257
f 252/252/252 12/12/12 19/19/19
f 19/19/19 258/258/258 252/252/252
f 259/259/259 252/252/252 258/258/258
f 258/258/258 260/260/260 259/259/259
f 257/257/257 262/262/262 261/261/261
f 261/261/261 263/263/263 257/257/257
f 26/26/26 257/257/257 263/263/263
f 257/257/257 26/26/26 4/4/4
f 258/258/258 19/19/19 27/27/27
f 27/27/27 264/264/264 258/258/258
f 260/260/260 258/258/258 264/264/264
f 265/265/265 267/267/267 266/266/266
f 268/268/268 270/270/270 269/269/269
f 269/269/269 271/271/271 268/268/268
f 36/36/36 268/268/268 271/271/271
f 268/268/268 36/36/36 37/37/37
f 264/264/264 27/27/27 38/38/38
f 272/272/272 274/274/274 273/273/273
f 275/275/275 277/277/277 276/276/276
f 276/276/276 278/278/278 275/275/275
f 46/46/46 275/275/275 278/278/278
f 278/278/278 47/47/47 46/46/46
f 279/279/279 49/49/49 50/50/50
f 50/50/50 280/280/280 279/279/279
f 274/274/274 272/272/272 281/281/281
f 281/281/281 282/282/282 274/274/274
f 278/278/278 276/276/276 283/283/283
f 283/283/283 284/284/284 278/278/278
f 56/56/56 286/286/286 285/285/285
f 285/285/285 59/59/59 56/56/56
f 251/251/251 250/250/250 287/287/287
f 253/253/253 254/254/254 288/288/288
f 256/256/256 288/288/288 254/254/254
f 246/246/246 247/247/247 248/248/248
f 250/250/250 252/252/252 289/289/289
f 289/289/289 287/287/287 250/250/250
f 290/290/290 292/292/292 291/291/291
f 259/259/259 289/289/289 252/252/252
f 292/292/292 294/294/294 293/293/293
f 293/293/293 291/291/291 292/292/292
f 257/257/257 248/248/248 295/295/295
f 296/296/296 293/293/293 294/294/294
f 297/297/297 290/290/290 298/298/298
f 291/291/291 298/298/298 290/290/290
f 291/291/291 293/293/293 299/299/299
f 293/293/293 296/296/296 299/299/299
f 300/300/300 297/297/297 298/298/298
f 287/287/287 301/301/301 251/251/251
f 296/296/296 302/302/302 300/300/300
f 300/300/300 299/299/299 296/296/296
f 298/298/298 291/291/291 303/303/303
f 303/303/303 304/304/304 298/298/298
f 291/291/291 299/299/299 305/305/305
f 305/305/305 303/303/303 291/291/291
f 300/300/300 298/298/298 304/304/304
f 304/304/304 306/306/306 300/300/300
f 299/299/299 300/300/300 306/306/306
f 306/306/306 305/305/305 299/299/299
f 304/304/304 303/303/303 307/307/307
f 307/307/307 308/308/308 304/304/304
f 303/303/303 305/305/305 309/309/309
f 309/309/309 307/307/307 303/303/303
f 306/306/306 304/304/304 308/308/308
f 308/308/308 310/310/310 306/306/306
f 305/305/305 306/306/306 310/310/310
f 310/310/310 309/309/309 305/305/305
f 308/308/308 307/307/307 311/311/311
f 311/311/311 312/312/312 308/308/308
f 307/307/307 309/309/309 313/313/313
f 313/313/313 311/311/311 307/307/307
f 310/310/310 308/308/308 312/312/312
f 312/312/312 314/314/314 310/310/310
f 309/309/309 310/310/310 314/314/314
f 314/314/314 313/313/313 309/309/309
f 312/312/312 311/311/311 315/315/315
f 315/315/315 316/316/316 312/312/312
f 311/311/311 313/313/313 317/317/317
f 317/317/317 315/315/315 311/311/311
f 314/314/314 312/312/312 316/316/316
f 316/316/316 318/318/318 314/314/314
f 313/313/313 314/314/314 318/318/318
f 318/318/318 317/317/317 313/313/313
f 319/319/319 321/321/321 320/320/320
f 322/322/322 320/320/320 321/321/321
f 96/96/96 97/97/97 284/284/284
f 283/283/283 323/323/323 284/284/284
f 323/323/323 283/283/283 324/324/324
f 284/284/284 325/325/325 96/96/96
f 325/325/325 284/284/284 323/323/323
f 101/101/101 326/326/326 103/103/103
f 281/281/281 327/327/327 282/282/282
f 327/327/327 281/281/281 328/328/328
f 103/103/103 328/328/328 281/281/281
f 328/328/328 103/103/103 326/326/326
f 324/324/324 329/329/329 323/323/323
f 329/329/329 324/324/324 330/330/330
f 323/323/323 331/331/331 325/325/325
f 331/331/331 323/323/323 329/329/329
f 328/328/328 332/332/332 327/327/327
f 332/332/332 328/328/328 333/333/333
f 326/326/326 333/333/333 328/328/328
f 333/333/333 326/326/326 334/334/334
f 335/335/335 337/337/337 336/336/336
f 337/337/337 335/335/335 338/338/338
f 336/336/336 340/340/340 339/339/339
f 340/340/340 336/336/336 337/337/337
f 341/341/341 338/338/338 335/335/335
f 338/338/338 341/341/341 342/342/342
f 339/339/339 342/342/342 341/341/341
f 342/342/342 339/339/339 340/340/340
f 343/343/343 345/345/345 344/344/344
f 345/345/345 343/343/343 346/346/346
f 344/344/344 345/345/345 347/347/347
f 348/348/348 347/347/347 345/345/345
f 349/349/349 346/346/346 343/343/343
f 346/346/346 349/349/349 350/350/350
f 347/347/347 350/350/350 349/349/349
f 350/350/350 347/347/347 348/348/348
f 346/346/346 351/351/351 345/345/345
f 351/351/351 346/346/346 352/352/352
f 345/345/345 353/353/353 348/348/348
f 353/353/353 345/345/345 351/351/351
f 350/350/350 352/352/352 346/346/346
f 350/350/350 348/348/348 353/353/353
f 351/351/351 352/352/352 354/354/354
f 354/354/354 355/355/355 351/351/351
f 353/353/353 351/351/351 355/355/355
f 355/355/355 356/356/356 353/353/353
f 352/352/352 350/350/350 357/357/357
f 357/357/357 354/354/354 352/352/352
f 350/350/350 353/353/353 356/356/356
f 356/356/356 357/357/357 350/350/350
f 354/354/354 357/357/357 358/358/358
f 358/358/358 359/359/359 354/354/354
f 357/357/357 356/356/356 360/360/360
f 360/360/360 358/358/358 357/357/357
f 359/359/359 358/358/358 321/321/321
f 321/321/321 319/319/319 359/359/359
f 358/358/358 360/360/360 322/322/322
f 322/322/322 321/321/321 358/358/358
f 320/320/320 361/361/361 319/319/319
f 320/320/320 322/322/322 362/362/362
f 355/355/355 354/354/354 363/363/363
f 355/355/355 364/364/364 356/356/356
f 354/354/354 359/359/359 365/365/365
f 365/365/365 363/363/363 354/354/354
f 360/360/360 356/356/356 364/364/364
f 364/364/364 366/366/366 360/360/360
f 359/359/359 319/319/319 361/361/361
f 361/361/361 365/365/365 359/359/359
f 322/322/322 360/360/360 366/366/366
f 366/366/366 362/362/362 322/322/322
f 316/316/316 315/315/315 367/367/367
f 367/367/367 368/368/368 316/316/316
f 315/315/315 317/317/317 369/369/369
f 369/369/369 367/367/367 315/315/315
f 318/318/318 316/316/316 368/368/368
f 368/368/368 370/370/370 318/318/318
f 317/317/317 318/318/318 370/370/370
f 370/370/370 369/369/369 317/317/317
f 368/368/368 367/367/367 255/255/255
f 255/255/255 253/253/253 368/368/368
f 367/367/367 369/369/369 256/256/256
f 256/256/256 255/255/255 367/367/367
f 370/370/370 368/368/368 253/253/253
f 253/253/253 288/288/288 370/370/370
f 256/256/256 370/370/370 288/288/288
f 370/370/370 256/256/256 369/369/369
f 148/148/148 371/371/371 50/50/50
f 280/280/280 50/50/50 371/371/371
f 150/150/150 372/372/372 371/371/371
f 371/371/371 148/148/148 150/150/150
f 373/373/373 153/153/153 285/285/285
f 59/59/59 285/285/285 153/153/153
f 374/374/374 155/155/155 373/373/373
f 153/153/153 373/373/373 155/155/155
f 156/156/156 376/376/376 375/375/375
f 376/376/376 378/378/378 377/377/377
f 378/378/378 380/380/380 379/379/379
f 380/380/380 163/163/163 164/164/164
f 381/381/381 383/383/383 382/382/382
f 382/382/382 384/384/384 381/381/381
f 385/385/385 387/387/387 386/386/386
f 386/386/386 388/388/388 385/385/385
f 389/389/389 391/391/391 390/390/390
f 390/390/390 392/392/392 389/389/389
f 393/393/393 395/395/395 394/394/394
f 394/394/394 396/396/396 393/393/393
f 397/397/397 399/399/399 398/398/398
f 398/398/398 401/401/401 400/400/400
f 398/398/398 399/399/399 401/401/401
f 399/399/399 402/402/402 401/401/401
f 399/399/399 397/397/397 402/402/402
f 397/397/397 400/400/400 402/402/402
f 397/397/397 398/398/398 400/400/400
f 403/403/403 405/405/405 404/404/404
f 403/403/403 404/404/404 406/406/406
f 403/403/403 406/406/406 405/405/405
f 407/407/407 409/409/409 408/408/408
f 408/408/408 411/411/411 410/410/410
f 408/408/408 409/409/409 411/411/411
f 409/409/409 412/412/412 411/411/411
f 409/409/409 407/407/407 412/412/412
f 407/407/407 410/410/410 412/412/412
f 407/407/407 408/408/408 410/410/410
f 413/413/413 415/415/415 414/414/414
f 413/413/413 414/414/414 416/416/416
f 413/413/413 416/416/416 415/415/415
f 417/417/417 419/419/419 418/418/418
f 418/418/418 421/421/421 420/420/420
f 418/418/418 419/419/419 421/421/421
f 419/419/419 422/422/422 421/421/421
f 419/419/419 417/417/417 422/422/422
f 417/417/417 420/420/420 422/422/422
f 417/417/417 418/418/418 420/420/420
f 423/423/423 425/425/425 424/424/424
f 423/423/423 424/424/424 426/426/426
f 423/423/423 426/426/426 425/425/425
f 427/427/427 429/429/429 428/428/428
f 428/428/428 431/431/431 430/430/430
f 428/428/428 429/429/429 431/431/431
f 429/429/429 432/432/432 431/431/431
f 429/429/429 427/427/427 432/432/432
f 427/427/427 430/430/430 432/432/432
f 427/427/427 428/428/428 430/430/430
f 433/433/433 435/435/435 434/434/434
f 433/433/433 434/434/434 436/436/436
f 433/433/433 436/436/436 435/435/435
f 437/437/437 439/439/439 438/438/438
f 438/438/438 441/441/441 440/440/440
f 438/438/438 439/439/439 441/441/441
f 439/439/439 442/442/442 441/441/441
f 439/439/439 437/437/437 442/442/442
f 437/437/437 440/440/440 442/442/442
f 437/437/437 438/438/438 440/440/440
f 443/443/443 445/445/445 444/444/444
f 443/443/443 444/444/444 446/446/446
f 443/443/443 446/446/446 445/445/445
f 447/447/447 449/449/449 448/448/448
f 448/448/448 451/451/451 450/450/450
f 448/448/448 449/449/449 451/451/451
f 449/449/449 452/452/452 451/451/451
f 449/449/449 447/447/447 452/452/452
f 447/447/447 450/450/450 452/452/452
f 447/447/447 448/448/448 450/450/450
f 453/453/453 455/455/455 454/454/454
f 453/453/453 454/454/454 456/456/456
f 453/453/453 456/456/456 455/455/455
f 457/457/457 459/459/459 458/458/458
f 457/457/457 460/460/460 459/459/459
f 461/461/461 463/463/463 462/462/462
f 461/461/461 464/464/464 463/463/463
f 465/465/465 467/467/467 466/466/466
f 465/465/465 468/468/468 467/467/467
f 469/469/469 471/471/471 470/470/470
f 469/469/469 472/472/472 471/471/471
f 473/473/473 475/475/475 474/474/474
f 476/476/476 478/478/478 477/477/477
f 479/479/479 481/481/481 480/480/480
f 482/482/482 484/484/484 483/483/483
f 485/485/485 487/487/487 486/486/486
f 487/487/487 488/488/488 486/486/486
f 486/486/486 488/488/488 489/489/489
f 490/490/490 491/491/491 485/485/485
f 491/491/491 487/487/487 485/485/485
f 487/487/487 493/493/493 492/492/492
f 487/487/487 492/492/492 488/488/488
f 488/488/488 492/492/492 494/494/494
f 488/488/488 494/494/494 489/489/489
f 491/491/491 495/495/495 493/493/493
f 491/491/491 493/493/493 487/487/487
f 496/496/496 492/492/492 493/493/493
f 496/496/496 494/494/494 492/492/492
f 496/496/496 493/493/493 495/495/495
f 497/497/497 499/499/499 498/498/498
f 497/497/497 500/500/500 499/499/499
f 499/499/499 502/502/502 501/501/501
f 499/499/499 501/501/501 498/498/498
f 500/500/500 503/503/503 502/502/502
f 500/500/500 502/502/502 499/499/499
f 502/502/502 505/505/505 504/504/504
f 502/502/502 504/504/504 501/501/501
f 503/503/503 506/506/506 505/505/505
f 503/503/503 505/505/505 502/502/502
f 507/507/507 504/504/504 505/505/505
f 507/507/507 505/505/505 506/506/506
f 508/508/508 510/510/510 509/509/509
f 511/511/511 508/508/508 509/509/509
f 508/508/508 489/489/489 510/510/510
f 511/511/511 509/509/509 491/491/491
f 490/490/490 511/511/511 491/491/491
f 509/509/509 513/513/513 512/512/512
f 509/509/509 510/510/510 513/513/513
f 510/510/510 494/494/494 513/513/513
f 510/510/510 489/489/489 494/494/494
f 491/491/491 512/512/512 495/495/495
f 491/491/491 509/509/509 512/512/512
f 496/496/496 512/512/512 513/513/513
f 496/496/496 513/513/513 494/494/494
f 496/496/496 495/495/495 512/512/512
f 514/514/514 516/516/516 515/515/515
f 514/514/514 515/515/515 517/517/517
f 515/515/515 519/519/519 518/518/518
f 515/515/515 516/516/516 519/519/519
f 517/517/517 518/518/518 520/520/520
f 517/517/517 515/515/515 518/518/518
f 518/518/518 522/522/522 521/521/521
f 518/518/518 519/519/519 522/522/522
f 520/520/520 521/521/521 523/523/523
f 520/520/520 518/518/518 521/521/521
f 524/524/524 521/521/521 522/522/522
f 524/524/524 523/523/523 521/521/521
f 525/525/525 527/527/527 526/526/526
f 525/525/525 528/528/528 527/527/527
f 527/527/527 530/530/530 529/529/529
f 527/527/527 529/529/529 526/526/526
f 528/528/528 531/531/531 530/530/530
f 528/528/528 530/530/530 527/527/527
f 532/532/532 529/529/529 530/530/530
f 532/532/532 530/530/530 531/531/531
f 533/533/533 535/535/535 534/534/534
f 533/533/533 534/534/534 536/536/536
f 534/534/534 538/538/538 537/537/537
f 534/534/534 535/535/535 538/538/538
f 536/536/536 537/537/537 539/539/539
f 536/536/536 534/534/534 537/537/537
f 540/540/540 537/537/537 538/538/538
f 540/540/540 539/539/539 537/537/537
f 541/541/541 543/543/543 542/542/542
f 544/544/544 546/546/546 545/545/545
f 544/544/544 547/547/547 546/546/546
f 541/541/541 549/549/549 548/548/548
f 542/542/542 550/550/550 549/549/549
f 541/541/541 542/542/542 549/549/549
f 543/543/543 552/552/552 551/551/551
f 542/542/542 543/543/543 551/551/551
f 545/545/545 546/546/546 553/553/553
f 546/546/546 547/547/547 554/554/554
f 549/549/549 556/556/556 555/555/555
f 548/548/548 549/549/549 555/555/555
f 549/549/549 550/550/550 556/556/556
f 550/550/550 542/542/542 551/551/551
f 551/551/551 558/558/558 557/557/557
f 551/551/551 552/552/552 558/558/558
f 553/553/553 546/546/546 559/559/559
f 546/546/546 554/554/554 560/560/560
f 555/555/555 562/562/562 561/561/561
f 555/555/555 556/556/556 562/562/562
f 556/556/556 550/550/550 562/562/562
f 550/550/550 551/551/551 557/557/557
f 563/563/563 557/557/557 558/558/558
f 564/564/564 559/559/559 546/546/546
f 564/564/564 546/546/546 560/560/560
f 563/563/563 561/561/561 562/562/562
f 563/563/563 562/562/562 557/557/557
f 562/562/562 550/550/550 557/557/557
f 565/565/565 567/567/567 566/566/566
f 568/568/568 570/570/570 569/569/569
f 568/568/568 571/571/571 570/570/570
f 565/565/565 573/573/573 572/572/572
f 566/566/566 574/574/574 573/573/573
f 565/565/565 566/566/566 573/573/573
f 567/567/567 576/576/576 575/575/575
f 566/566/566 567/567/567 575/575/575
f 569/569/569 570/570/570 577/577/577
f 570/570/570 571/571/571 578/578/578
f 573/573/573 580/580/580 579/579/579
f 572/572/572 573/573/573 579/579/579
f 573/573/573 574/574/574 580/580/580
f 574/574/574 566/566/566 575/575/575
f 575/575/575 582/582/582 581/581/581
f 575/575/575 576/576/576 582/582/582
f 577/577/577 570/570/570 583/583/583
f 570/570/570 578/578/578 584/584/584
f 579/579/579 586/586/586 585/585/585
f 579/579/579 580/580/580 586/586/586
f 580/580/580 574/574/574 586/586/586
f 574/574/574 575/575/575 581/581/581
f 587/587/587 581/581/581 582/582/582
f 588/588/588 583/583/583 570/570/570
f 588/588/588 570/570/570 584/584/584
f 587/587/587 585/585/585 586/586/586
f 587/587/587 586/586/586 581/581/581
f 586/586/586 574/574/574 581/581/581

g bons
# texture: bons.jpg
v -1.614097 199.615 11.2076
v -7.645 197.1652 10.1442
v -6.9176 197.1945 11.9357
v -3.7086 197.1945 14.6283
v 0.480401 197.1945 14.6283
v 3.689401 197.1945 11.9356
v 4.416803 197.1652 10.1442
v -10.854 191.7925 10.521
v -9.739498 192.2379 12.6097
v -4.8231 192.2531 17.56371
v 1.5949 192.2531 17.56371
v 6.511303 192.2379 12.6096
v 7.625802 191.7925 10.521
v -9.426997 186.1959 10.6025
v -8.484699 184.6876 15.4846
v -9.479699 191.0351 16.1071
v -7.757699 186.9521 16.8413
v -2.788699 186.662 16.6176
v -0.439499 186.662 16.6176
v 4.5295 186.9521 16.84131
v 6.2514 191.0351 16.1071
v 5.256401 184.6876 15.4846
v 6.198803 186.1959 10.6024
v -1.614096 175.2738 9.160501
v -3.771198 175.1171 16.1798
v -6.595497 176.0244 11.9628
v 0.543002 175.1171 16.1798
v 3.367202 176.0245 11.9628
v -7.840797 180.6732 11.8848
v -3.680599 180.8637 16.7934
v 0.452401 180.8637 16.79341
v 4.612602 180.6732 11.8848
v -1.614096 181.2943 9.317901
vn 0.0063 0.919901 0.3921
vn -0.72088 0.630983 0.286692
vn -0.594635 0.648438 0.475328
vn -0.1911 0.6442 0.7406
vn 0.342319 0.631036 0.69614
vn 0.643103 0.645503 0.412002
vn 0.65719 0.709889 0.253296
vn -0.943027 0.089303 0.320509
vn -0.864035 0.299412 0.404716
vn -0.298495 0.282695 0.911583
vn 0.207105 0.329608 0.921122
vn 0.851372 0.291091 0.436386
vn 0.875209 0.265303 0.404504
vn -0.914399 -0.299 -0.2729
vn -0.752276 -0.31589 0.578182
vn -0.541509 0.169103 0.823513
vn -0.602895 -0.223098 0.765993
vn -0.134295 -0.177793 0.974861
vn 0.023698 -0.115294 0.993049
vn 0.262293 -0.195995 0.944875
vn 0.749924 0.193406 0.632621
vn 0.770101 -0.2656 0.580001
vn 0.97094 -0.23561 -0.042002
vn -0.100794 -0.725257 -0.68106
vn -0.309702 -0.640103 0.703103
vn -0.862061 -0.498477 0.091496
vn 0.503813 -0.646217 0.573215
vn 0.715671 -0.468081 -0.518379
vn -0.932018 -0.338407 -0.129703
vn -0.436715 -0.025801 0.89923
vn 0.293803 -0.124601 0.94771
vn 0.943668 -0.330889 0.0016
vn 0.102404 -0.135005 -0.985539
vt 0.5868 0.7126
vt 0.4967 0.6814
vt 0.5075 0.6817
vt 0.5555 0.6817
vt 0.6181 0.6817
vt 0.6661 0.6817
vt 0.677 0.6814
vt 0.4487 0.6129
vt 0.4654 0.6186
vt 0.5389 0.6188
vt 0.6348 0.6188
vt 0.7083 0.6186
vt 0.725 0.6129
vt 0.47 0.5416
vt 0.4841 0.5223
vt 0.4692 0.6032
vt 0.495 0.5512
vt 0.5693 0.5475
vt 0.6044 0.5475
vt 0.6787 0.5512
vt 0.7044 0.6032
vt 0.6896 0.5223
vt 0.7036 0.5416
vt 0.5868 0.4024
vt 0.5546 0.4004
vt 0.5124 0.4119
vt 0.6191 0.4004
vt 0.6613 0.4119
vt 0.4937 0.4712
vt 0.5559 0.4736
vt 0.6177 0.4736
vt 0.6799 0.4712
vt 0.5868 0.4791
f 589/589/589 591/591/591 590/590/590
f 589/589/589 592/592/592 591/591/591
f 589/589/589 593/593/593 592/592/592
f 589/589/589 594/594/594 593/593/593
f 589/589/589 595/595/595 594/594/594
f 590/590/590 597/597/597 596/596/596
f 590/590/590 591/591/591 597/597/597
f 591/591/591 598/598/598 597/597/597
f 591/591/591 592/592/592 598/598/598
f 592/592/592 599/599/599 598/598/598
f 592/592/592 593/593/593 599/599/599
f 593/593/593 600/600/600 599/599/599
f 593/593/593 594/594/594 600/600/600
f 594/594/594 601/601/601 600/600/600
f 594/594/594 595/595/595 601/601/601
f 596/596/596 603/603/603 602/602/602
f 596/596/596 597/597/597 603/603/603
f 604/604/604 606/606/606 605/605/605
f 604/604/604 598/598/598 606/606/606
f 598/598/598 607/607/607 606/606/606
f 598/598/598 599/599/599 607/607/607
f 599/599/599 608/608/608 607/607/607
f 599/599/599 609/609/609 608/608/608
f 600/600/600 611/611/611 610/610/610
f 600/600/600 601/601/601 611/611/611
f 612/612/612 614/614/614 613/613/613
f 612/612/612 613/613/613 615/615/615
f 612/612/612 615/615/615 616/616/616
f 606/606/606 617/617/617 603/603/603
f 617/617/617 606/606/606 618/618/618
f 607/607/607 618/618/618 606/606/606
f 618/618/618 607/607/607 619/619/619
f 610/610/610 619/619/619 607/607/607
f 619/619/619 610/610/610 620/620/620
f 618/618/618 614/614/614 617/617/617
f 614/614/614 618/618/618 613/613/613
f 617/617/617 612/612/612 621/621/621
f 612/612/612 617/617/617 614/614/614
f 619/619/619 613/613/613 618/618/618
f 613/613/613 619/619/619 615/615/615
f 621/621/621 616/616/616 620/620/620
f 616/616/616 621/621/621 612/612/612
f 620/620/620 615/615/615 619/619/619
f 615/615/615 620/620/620 616/616/616
f 611/611/611 620/620/620 610/610/610
f 620/620/620 611/611/611 621/621/621
f 603/603/603 617/617/617 602/602/602
f 602/602/602 617/617/617 621/621/621
f 598/598/598 604/604/604 597/597/597
f 599/599/599 600/600/600 609/609/609
f 597/597/597 605/605/605 603/603/603
f 605/605/605 597/597/597 604/604/604
f 606/606/606 603/603/603 605/605/605
f 607/607/607 608/608/608 610/610/610
f 610/610/610 609/609/609 600/600/600
f 609/609/609 610/610/610 608/608/608
