# Monster31.bmd — MU geometry at action 0 key 0, exported for MU2
# 1 mesh(es)

g wwo
# texture: wwo.jpg
v -1.733944 178.6949 30.36865
v 6.014655 175.488 31.08243
v -1.734028 153.5753 20.69242
v 6.173666 153.7097 27.69899
v -1.784572 147.4661 80.8183
v 3.765125 152.8743 83.718
v -1.734178 154.4636 87.09824
v -1.734165 148.4058 72.29047
v 9.023231 155.987 73.75782
v 1.526022 164.1397 82.10919
v -1.734175 160.2561 80.84921
v 9.698126 162.2267 78.36475
v 1.862829 165.1497 72.9008
v -1.734174 165.507 75.93901
v 7.954933 162.5951 68.07562
v 9.374254 150.5181 43.88159
v -1.734038 143.1137 36.05748
v 13.93785 173.1923 37.74876
v 9.374245 151.5525 55.43335
v -1.734152 145.2058 54.03917
v 14.49224 160.0278 58.15936
v 11.59164 180.2429 47.34426
v 9.374241 155.2805 61.44254
v -1.734156 147.9871 60.70387
v 11.51754 163.7589 60.87426
v 8.462539 177.2944 53.9324
v 9.121435 154.6697 67.61643
v -1.734161 148.0969 67.7467
v 8.555534 170.0918 60.09835
v -1.734055 178.897 44.50813
v 4.688941 178.5817 49.76192
v -1.734065 170.7139 61.85703
v 3.249538 172.3624 55.88973
v 18.01205 154.6205 49.55413
v 12.80756 160.439 37.86019
v 20.47784 161.5568 56.4551
v 21.85214 176.6644 48.19942
v 31.09145 159.2386 46.53397
v 28.53875 156.2787 52.91116
v 29.67974 160.455 56.97604
v 32.61794 168.9973 51.59418
v 41.91544 156.1278 55.12168
v 37.89294 154.7143 56.94958
v 38.66374 157.0038 59.82007
v 40.32014 162.284 59.52281
v 43.13983 150.7354 66.5858
v 58.62883 108.6698 4.357466
v 60.24927 111.8909 -2.426918
v 65.15092 115.107 2.908923
v 53.10817 108.5125 -3.084039
v 51.90115 113.8392 -6.205006
v 58.96104 116.5807 -4.998753
v 65.21522 120.6843 1.809391
v 50.95317 108.9286 4.533277
v 53.53131 111.4392 11.60354
v 52.45805 118.6641 12.35911
v 49.15286 114.4535 3.500712
v 60.58736 114.2043 9.327669
v 59.39244 119.5324 9.999396
v 48.91835 123.2987 -3.145641
v 51.28121 126.1202 1.140466
v 46.6708 123.1917 -4.287264
v 39.9949 140.363 -6.556949
v 41.6632 142.265 -5.935506
v 45.01285 144.4628 -2.289089
v 44.9393 123.531 1.832634
v 47.01598 125.8781 7.460437
v 40.28374 142.3391 3.484035
v 38.52229 140.6474 -1.35143
v 49.19003 125.1576 6.299459
v 41.89423 143.8459 2.097326
v 44.00244 152.3699 -8.539007
v 48.94043 156.3209 -4.735765
v 34.92136 149.5955 -8.912476
v 30.89493 156.0925 -12.65314
v 42.25925 159.5102 -11.95642
v 51.25574 168.2591 -7.1519
v 33.14265 149.7606 -2.990258
v 35.07386 151.5541 2.504768
v 30.9501 158.6464 3.805511
v 28.23422 156.3969 -4.155054
v 44.2298 154.1041 0.558817
v 42.63465 162.0792 1.097483
v 37.30755 165.1533 -11.59361
v 44.66158 172.639 -7.824143
v 27.83106 163.1298 -12.28633
v 34.58288 173.0553 -7.616183
v 25.67281 163.1973 -5.41968
v 28.20835 165.7112 0.83038
v 37.60934 167.2184 -1.100282
v 74.99017 79.60491 31.05264
v 72.00921 86.14246 34.90437
v 80.20824 82.33489 33.94886
v 80.0695 86.70061 38.82224
v 70.86897 78.50674 39.10941
v 75.14577 88.84425 40.02814
v 69.97886 85.31017 40.64241
v 85.90923 73.37801 42.64508
v 81.2133 66.89678 38.00028
v 82.96191 81.38009 50.06939
v 71.69842 73.73161 45.52072
v 75.8106 84.70453 53.68013
v 61.90533 68.27123 38.48104
v 64.86854 66.73479 33.82064
v 64.52505 76.44908 37.96933
v 59.28316 83.16339 48.33179
v 58.89002 76.22849 46.22042
v 64.67564 81.13029 43.23864
v 51.84494 85.79977 33.83828
v 54.02264 76.48551 27.36742
v 26.23207 61.74297 13.71596
v 28.15343 60.62275 6.12921
v 34.55038 64.54851 9.79476
v 19.92508 59.38549 6.858898
v 17.52089 61.85567 2.781893
v 28.01975 63.4343 1.850727
v 36.18195 68.44337 6.527838
v 18.64043 63.93462 13.74549
v 22.65914 68.68848 19.31515
v 21.00939 73.72558 18.67525
v 15.88179 67.66012 11.56873
v 30.34073 68.06509 16.0942
v 30.81059 72.93031 14.56554
v 25.45178 71.97971 -0.187485
v 30.7932 75.14944 2.703262
v 18.76977 70.98009 0.418049
v 18.1463 75.9955 -2.351831
v 26.49108 77.10255 -3.693939
v 31.95525 80.00253 -1.497814
v 17.653 74.6265 5.976166
v 20.96735 78.45531 10.42684
v 20.01729 82.35271 6.160013
v 16.52977 79.01446 2.575634
v 27.20924 77.95982 7.819666
v 27.99656 82.21918 3.165327
v 25.99776 82.24552 -13.11963
v 33.28418 86.66167 -9.132103
v 16.01608 81.96302 -9.299799
v 11.45799 87.73258 -17.0993
v 22.63181 86.69341 -23.15425
v 31.18629 93.24242 -16.22881
v 13.87878 86.05107 -2.322075
v 18.43042 89.97766 1.654917
v 14.96882 99.36848 -1.163153
v 9.636699 93.81768 -7.357695
v 28.23342 89.50514 -2.989395
v 26.22855 98.14581 -7.01692
v 20.53902 91.60055 -23.09171
v 27.48937 96.65026 -18.28273
v 12.2908 92.07451 -18.88543
v 18.13454 98.02402 -16.09372
v 11.17659 97.1776 -10.86924
v 15.25369 101.8188 -5.44552
v 23.42665 100.7246 -10.35583
v -9.482645 175.488 31.08242
v -9.641735 153.7097 27.69898
v -1.683771 147.4661 80.8183
v -7.233475 152.8743 83.71798
v -12.49147 155.987 73.7578
v -4.994378 164.1397 82.10919
v -13.16647 162.2267 78.36473
v -5.331071 165.1496 72.90079
v -11.42317 162.5951 68.07561
v -12.84244 150.5181 43.88157
v -17.40585 173.1922 37.74878
v -12.84245 151.5525 55.43333
v -17.96046 160.0277 58.15933
v -15.05966 180.2429 47.34424
v -12.84246 155.2805 61.44252
v -14.98576 163.7589 60.87424
v -11.93066 177.2944 53.93238
v -12.58966 154.6697 67.61642
v -12.02376 170.0918 60.09834
v -8.15696 178.5817 49.76191
v -6.717662 172.3624 55.88972
v -21.48015 154.6205 49.55418
v -16.27564 160.439 37.86017
v -23.94596 161.5567 56.45506
v -25.32016 176.6645 48.19948
v -34.55965 159.2386 46.53392
v -32.00695 156.2787 52.91112
v -33.14786 160.4549 56.97604
v -36.08606 168.9971 51.59417
v -45.38366 156.1277 55.12175
v -41.36116 154.7143 56.94965
v -42.13196 157.0037 59.82013
v -43.78837 162.2838 59.52279
v -46.60816 150.7354 66.58582
v -69.41062 100.3658 31.41841
v -74.12819 108.0943 33.43553
v -73.35497 104.603 26.36074
v -68.44569 99.96956 22.20488
v -66.18752 103.2949 18.18464
v -70.17607 107.3317 22.34113
v -71.1627 111.7865 31.36825
v -62.8099 99.06885 27.70645
v -60.94199 101.2115 35.11303
v -56.46306 105.9647 34.51015
v -58.9851 102.2286 25.19318
v -67.35588 105.5687 36.69094
v -62.52169 108.5639 35.52191
v -63.20041 114.1516 20.93684
v -63.82169 116.957 26.62173
v -61.531 112.3036 18.74359
v -53.41616 125.7169 13.82118
v -55.40412 125.7019 16.16483
v -55.93249 128.0878 20.99957
v -57.00189 111.5847 23.16361
v -55.45563 113.6345 29.07129
v -48.29168 126.5419 22.64549
v -48.30903 126.875 16.68579
v -58.38002 114.9276 29.23753
v -51.30442 126.3618 23.22425
v -49.82738 140.7405 10.89722
v -51.21214 145.1308 16.66504
v -48.96572 133.891 9.693727
v -42.97097 142.6153 2.46349
v -48.73505 153.6082 6.713265
v -54.61059 157.875 17.44718
v -45.3661 130.8586 14.60431
v -43.05706 134.5134 19.6392
v -34.3768 143.2175 16.71787
v -36.50447 141.4039 8.472147
v -45.16831 141.4264 18.87552
v -42.07293 154.6808 18.1854
v -43.09455 158.073 4.53466
v -48.38522 160.9025 13.5489
v -38.596 148.812 1.236509
v -34.57645 158.4753 5.756559
v -33.40509 147.6579 6.0876
v -31.90189 149.8897 12.7638
v -37.7392 158.9352 13.75655
v -64.47135 85.46372 67.77007
v -65.44379 88.06014 73.71855
v -58.14746 90.48948 68.87108
v -60.95316 91.10415 77.37873
v -56.45934 81.99773 70.39639
v -56.18161 92.27649 74.89877
v -53.08154 88.08475 71.37975
v -65.80636 78.08533 83.13772
v -67.32722 72.34918 76.03734
v -56.72496 83.68591 86.8797
v -53.92326 75.9882 75.09198
v -48.48734 85.15441 84.59583
v -53.26546 71.16817 62.77865
v -58.85288 71.15161 61.49772
v -53.35137 79.49645 64.93153
v -41.02438 82.87965 68.99873
v -43.93591 76.64301 66.68929
v -48.71431 82.78706 69.09946
v -44.97076 87.91137 53.78522
v -53.20856 80.72601 50.05983
v -34.90032 50.40899 -8.444434
v -42.36866 55.61362 -11.53899
v -35.83669 52.8026 -15.92101
v -27.90156 50.35096 -15.03015
v -24.78261 53.97152 -17.41079
v -34.90731 57.0997 -18.54756
v -43.2417 60.68637 -12.9564
v -27.24355 51.41626 -6.771622
v -31.6273 53.88063 -0.102387
v -29.53636 58.47524 1.63615
v -23.94302 55.3308 -6.873562
v -38.81718 55.62636 -3.978798
v -38.71024 60.70272 -3.310019
v -31.4569 65.32022 -16.47582
v -36.89557 67.64073 -13.01599
v -25.01447 63.32852 -15.73845
v -23.64568 68.91977 -16.01884
v -31.62095 71.52401 -17.52679
v -37.10543 73.90656 -14.81824
v -24.40629 64.15549 -9.076582
v -28.00886 66.16489 -3.743889
v -26.19425 71.33235 -5.818239
v -22.50356 69.38194 -10.14613
v -33.85181 67.58916 -6.879959
v -33.67301 73.46219 -9.309133
v -29.45502 80.01953 -23.74538
v -36.8735 83.24971 -18.94661
v -20.14282 76.91975 -19.50516
v -14.13948 84.79131 -23.61543
v -24.41941 87.78209 -30.5418
v -33.33673 91.8678 -22.3065
v -18.68944 77.42489 -11.28308
v -23.44154 79.87495 -6.449327
v -18.9385 89.06929 -4.632576
v -13.23056 85.98264 -12.08292
v -32.51971 82.61603 -11.73738
v -29.34453 91.82178 -11.46487
v -21.99728 91.91119 -28.18671
v -29.14989 95.32738 -22.34683
v -14.39437 89.54939 -23.43615
v -20.10961 94.47705 -18.92018
v -14.0191 90.66423 -13.94099
v -18.44882 93.09542 -7.456491
v -25.92638 95.18282 -13.09862
v 31.75673 -0.389077 -0.538925
v 22.95193 -0.714785 -0.214632
v 29.38792 7.353823 -1.111532
v 22.76172 10.17662 0.316963
v 26.71562 -2.070482 6.960575
v 18.65282 5.554212 1.389561
v 19.69252 -0.893889 4.920368
v 33.85722 11.85253 8.263077
v 40.63252 3.130636 9.291286
v 21.73071 13.34982 10.46497
v 27.36562 0.369423 13.82288
v 14.50261 7.437909 13.27927
v 37.46721 7.182339 28.80639
v 42.36921 3.069542 27.241
v 31.51911 -0.447168 28.63009
v 18.1035 5.696817 31.73588
v 25.1706 9.206627 31.04749
v 23.977 0.665022 28.11799
v 25.5841 -2.577674 42.69909
v 37.975 -2.12656 40.49789
v -38.83297 -0.933952 -51.46745
v -36.42316 6.80905 -51.83145
v -30.08986 -1.259551 -50.37704
v -29.94676 9.631852 -49.83084
v -34.46457 -2.615353 -43.55704
v -25.94696 5.009453 -48.40424
v -27.29037 -1.43865 -44.97744
v -41.69247 11.30765 -42.88195
v -48.53167 2.585843 -42.44825
v -29.80407 12.80495 -39.63154
v -35.71017 -0.175353 -36.77754
v -22.84877 6.893152 -36.19804
v -47.07928 6.637442 -22.73154
v -51.82618 2.524639 -24.71814
v -41.13838 -0.992058 -22.38874
v -28.04458 5.152048 -18.12553
v -35.02478 8.661747 -19.42724
v -33.58038 0.120145 -22.24154
v -36.39648 -4.372759 -8.063828
v -48.55858 -3.922062 -11.29864
v 48.66418 157.707 -4.53393
v 45.11879 156.9301 -2.644358
v 57.96269 121.1917 2.850411
v 60.41516 121.9803 0.006254
v 46.15992 160.0659 -8.264709
v 59.18748 119.4828 -0.481457
v 41.3123 159.019 -7.88883
v 57.08611 118.7919 -0.217346
v 41.34905 159.3903 -6.111091
v 55.23719 121.508 1.075197
v 29.34033 40.03465 -0.62501
v 23.48925 38.71837 3.287995
v 26.45991 7.032993 7.55412
v 30.33309 7.312714 2.157576
v 26.31012 45.227 -3.384957
v 26.75174 5.444263 1.067596
v 17.92438 45.40133 -1.218151
v 22.97088 5.298351 2.006402
v 18.55897 44.01628 1.565582
v 21.83122 7.998604 5.50296
v 34.13476 52.29766 11.67513
v 25.28465 47.38569 12.69456
v 31.19769 57.83595 4.687513
v 18.79415 52.8165 15.36155
v 19.6048 59.25312 7.278811
v 34.63451 57.21635 13.23917
v 26.91986 55.76129 21.91726
v 19.91301 58.06461 16.73809
v 26.7387 63.19567 14.50463
v 73.74434 83.39168 36.47859
v 76.84373 82.51239 30.5367
v 79.71005 88.09702 33.52852
v 70.93034 78.86008 30.32072
v 68.9304 79.75706 25.78425
v 76.47549 84.41724 26.05984
v 80.13268 91.54282 29.87719
v 67.23779 82.68211 34.80521
v 67.70253 88.30899 38.86411
v 64.81183 91.81331 36.68516
v 64.21886 84.63364 31.50617
v 74.26142 90.07161 37.37147
v 73.18055 94.06225 34.78051
v 71.87218 90.34795 21.58101
v 74.17535 94.83534 23.985
v 67.12067 87.41322 21.40747
v 65.17754 91.35313 17.53004
v 69.21855 93.84908 17.6777
v 71.17729 97.66538 19.72215
v 64.15356 90.48428 25.0109
v 64.52708 95.00568 28.2723
v 62.97162 97.81032 23.36843
v 62.65404 93.96499 20.59473
v 69.79726 96.42197 27.07289
v 67.45386 99.01486 22.34834
v 67.93341 96.66499 13.35316
v 70.14911 100.9818 15.66577
v 63.36242 93.84178 13.18609
v 59.6993 97.08624 4.802567
v 66.2664 101.1423 5.042413
v 69.44938 107.3441 8.364855
v 60.50802 96.79612 16.65271
v 60.86732 101.1457 19.79026
v 56.11478 107.5796 14.29038
v 55.59862 101.3307 9.782691
v 65.93732 102.5083 18.63635
v 63.39865 109.5369 12.63262
v 64.03493 104.0722 2.720047
v 66.59361 109.0576 5.390874
v 58.75604 100.8118 2.527257
v 59.99065 107.5072 4.611008
v 55.45966 104.2237 6.530567
v 55.87458 109.2469 10.15403
v 61.72972 110.8203 8.821429
v -4.681942 161.2584 45.2257
v -9.653889 161.4157 12.26482
v -0.539036 151.3705 15.50433
v -1.098782 176.6395 11.62788
v 8.220564 161.9167 12.9492
v -6.157921 154.346 -8.758307
v 0.274084 148.6329 -6.195609
v -0.398234 174.0974 -7.274863
v 6.54708 154.8156 -8.186795
v -5.429821 143.1898 -22.66998
v 0.884529 140.1615 -15.93754
v 1.266551 144.8273 -29.33163
v 7.508107 143.6827 -22.07706
v -5.532843 104.554 -33.67126
v -0.924343 106.8481 -29.09026
v -0.64944 103.7062 -38.23106
v 3.902658 106.6454 -33.62775
v 0.141557 82.1436 -20.82575
v 2.974001 142.6779 -15.01023
v 27.497 131.2851 -13.95272
v 17.25368 135.075 -4.783935
v 5.546904 141.666 -21.89837
v 32.7439 147.7489 -15.52286
v 4.454947 149.4437 -20.90167
v 22.76302 146.1278 -3.767515
v 3.237969 150.0857 -16.07833
v 31.42011 115.0846 1.594302
v 22.11381 120.1524 0.856998
v 35.63679 120.5758 3.487462
v 27.59187 125.3426 2.721467
v 22.32287 111.4479 12.9438
v 16.32325 114.8715 8.066363
v 25.08545 113.4769 16.32471
v 19.18451 118.6988 13.70519
v 7.325941 110.157 22.11013
v -35.99876 40.29415 -33.32693
v -34.65085 8.306221 -45.12782
v -30.81685 36.47158 -30.19436
v -37.6618 11.92775 -49.82044
v -32.54501 45.83255 -32.25124
v -33.97195 10.67334 -51.34235
v -24.58183 43.98203 -29.38607
v -30.3776 9.675816 -50.20937
v -25.6408 41.3377 -27.98721
v -29.7578 9.824451 -45.69168
v -42.49862 43.90362 -16.91399
v -33.94367 38.47437 -17.82333
v -38.4953 52.11111 -19.09023
v -27.88752 40.83838 -11.7845
v -27.41622 50.74656 -14.78819
v -43.18972 47.11339 -12.90038
v -36.88673 40.32608 -5.748891
v -29.15956 44.48162 -7.80989
v -35.52821 50.58588 -7.520667
v -58.0537 87.35885 72.72416
v -64.37119 92.50603 72.88919
v -64.42363 85.78665 71.10016
v -60.35133 80.80051 68.47163
v -62.08455 79.92422 63.82277
v -67.28062 86.28617 67.17659
v -67.21366 94.85979 69.45929
v -54.56615 84.57113 67.65414
v -52.04933 90.98668 68.58157
v -51.49178 92.92118 63.96304
v -54.70306 84.7353 62.77956
v -57.78206 93.93552 71.18813
v -58.80637 96.68369 67.2888
v -67.09611 89.42747 59.02055
v -67.05401 94.82671 60.45805
v -63.82388 85.42107 56.90841
v -65.08852 87.52069 52.23162
v -67.87149 90.92805 54.02792
v -67.83567 95.51994 55.25046
v -59.17539 88.45088 56.25153
v -57.15312 93.60593 56.99682
v -59.41514 94.4817 52.30672
v -61.13506 90.09741 51.67285
v -61.75951 95.97536 59.09121
v -63.33279 96.49678 54.08797
v -70.47529 92.49689 48.98302
v -70.43479 97.69101 50.36596
v -67.32741 88.64265 46.95118
v -70.54976 88.50662 37.79542
v -75.07231 94.04379 40.7145
v -75.01408 101.5059 42.70121
v -62.52928 91.31023 44.58049
v -60.91 96.51657 47.03619
v -61.33022 99.81863 37.91748
v -64.12527 92.69405 36.88752
v -65.34141 98.79603 49.05108
v -67.69667 103.0935 40.81218
v -75.08835 95.57807 36.6398
v -75.04157 101.5765 38.23682
v -71.453 91.12696 34.29328
v -70.86349 98.21683 34.00981
v -66.28853 94.49299 33.56346
v -64.0418 100.2202 34.3914
v -69.15945 102.8526 36.71835
v 5.228852 153.7018 -6.098662
v 39.36312 157.1873 -0.030952
v 21.9966 155.4968 7.402541
v 5.246035 160.8042 -8.852124
v 36.95708 176.1623 4.0244
v 0.051762 170.5417 -7.589282
v 21.94159 171.8109 9.740502
v 1.530052 169.4637 -2.892751
v 41.40712 139.1761 23.5961
v 28.21283 140.2711 18.666
v 42.55315 147.9887 27.08215
v 30.98654 149.4117 22.62053
v 28.66708 126.8815 33.82811
v 21.61591 128.4979 28.48979
v 29.45255 130.6001 38.98137
v 20.81684 133.8828 32.93023
v 5.960808 111.8156 36.31827
v -0.139843 107.8283 -28.99636
v 19.25696 90.3152 -27.14695
v 13.08076 101.9264 -21.63455
v 0.333459 102.4676 -34.10806
v 28.78386 99.99459 -32.77395
v -0.194441 108.6478 -39.22665
v 21.79306 108.7547 -27.20425
v 2.129459 112.8055 -34.11156
v 24.22145 92.08499 -3.836746
v 17.01315 99.1272 -7.195545
v 30.23666 95.6358 -5.48774
v 24.09405 101.9498 -8.717544
v 17.32915 98.7458 7.692656
v 11.71275 101.1021 1.826658
v 21.28355 100.9982 9.263657
v 16.83175 105.8662 4.220253
v 5.204747 108.3138 16.18076
v -1.556846 142.5509 -15.18371
v -16.12856 134.1393 -6.062096
v -25.41337 129.8022 -15.97848
v -3.535311 141.4114 -22.24607
v -31.43738 145.95 -17.98013
v -2.959367 149.236 -21.18557
v -22.30893 144.8646 -5.493262
v -2.152302 149.9347 -16.28466
v -20.56325 118.9563 -0.776968
v -29.60074 113.3744 -0.742091
v -34.25018 118.617 0.811647
v -26.44939 123.8279 0.652308
v -15.05426 113.9921 6.865039
v -21.2082 110.2277 11.27708
v -24.33006 112.0919 14.43267
v -18.5476 117.6412 12.26051
v -6.906717 109.7581 21.56513
v -5.098859 153.4124 -6.494044
v -22.92331 154.2377 5.682664
v -39.73839 154.9702 -3.059594
v -5.302889 160.5086 -9.255942
v -38.71404 174.0414 1.127152
v -0.772928 170.5186 -7.620879
v -23.95946 170.5244 7.983006
v -2.543056 169.3495 -3.048724
v -29.12068 138.6642 16.47089
v -42.57106 136.8224 20.38071
v -44.47115 145.5496 23.75023
v -32.69517 147.6268 20.18229
v -22.64557 127.2574 26.79516
v -29.9826 125.2376 31.58256
v -31.36621 128.8955 36.65277
v -22.49052 132.6689 31.27205
v -6.725967 111.46 35.83251
v -2.016343 107.6642 -28.99636
v -14.01135 99.5561 -21.63446
v -18.07744 87.0488 -27.14696
v -1.551641 102.3027 -34.10806
v -29.14035 94.9269 -32.77386
v -2.104941 108.4807 -39.22666
v -23.77695 104.7679 -27.20416
v -5.115541 112.1717 -34.11156
v -17.39795 96.11661 -7.195553
v -23.27395 87.9296 -3.836754
v -29.81435 90.3819 -5.487757
v -24.86135 97.66669 -8.717457
v -12.52105 98.9818 1.826653
v -17.64295 95.6861 7.692751
v -21.92845 97.2175 9.263655
v -18.38965 102.7847 4.220354
v -7.364255 107.214 16.18076
v 29.19367 47.97005 10.60793
v 25.85229 47.9753 12.96998
v 27.57457 9.646954 12.36506
v 29.76854 10.11609 9.251818
v 27.09135 51.4962 7.624562
v 27.7757 8.187527 8.711141
v 22.24711 51.85603 8.692062
v 25.61518 8.104229 9.247578
v 22.62261 51.92393 10.46809
v 24.87914 11.00837 11.11574
v -37.48783 40.48923 -19.65527
v -36.45864 7.853909 -39.86018
v -34.54172 38.85682 -17.33146
v -38.15327 10.1923 -42.38721
v -34.93079 44.86967 -19.82123
v -36.11705 8.726727 -43.68673
v -30.30067 44.11707 -18.16839
v -34.0631 8.156727 -43.03934
v -30.9397 43.20947 -16.73046
v -33.59461 9.425575 -39.77803
vn 0 0.810101 -0.586291
vn 0.412714 0.727367 -0.548274
vn 0.000001 -0.122214 -0.992504
vn 0.765574 -0.319871 -0.558193
vn 0.542096 -0.795207 0.27162
vn 0.664601 -0.310175 0.679777
vn -0.000001 0.031699 0.999498
vn 0 -0.999831 -0.018369
vn 0.743379 -0.658159 0.119227
vn 0.040899 0.832049 0.553193
vn -0.000001 0.838572 0.544791
vn 0.929799 0.224582 0.29161
vn 0.277104 0.866761 0.414654
vn -0.000001 0.867697 0.497095
vn 0.838918 0.489286 0.238361
vn 0.667729 -0.740336 -0.077717
vn 0 -0.982913 -0.18407
vn 0.714905 0.333979 -0.614304
vn 0.645422 -0.692388 0.322536
vn 0 -0.936159 0.351576
vn 0.621632 -0.243372 0.744542
vn 0.279995 0.911965 0.299872
vn 0.816235 -0.515505 0.260799
vn 0 -0.993417 0.114552
vn 0.851832 0.069524 0.519181
vn 0.315513 0.704927 0.63524
vn 0.885779 -0.463826 0.016139
vn 0 -0.994809 0.101757
vn 0.452519 0.664286 0.594938
vn -0 0.996072 0.088551
vn -0.063299 0.943477 0.325337
vn -0.000001 0.854686 0.519145
vn 0.083695 0.820392 0.565643
vn 0.278414 -0.955001 0.102268
vn 0.699503 -0.226468 -0.677797
vn 0.072003 -0.020846 0.997187
vn 0.665695 0.743049 -0.068771
vn 0.539313 -0.36682 -0.758014
vn -0.057701 -0.978649 0.197272
vn -0.303017 -0.132624 0.943712
vn 0.51452 0.853919 0.078047
vn 0.566301 -0.578806 -0.58676
vn -0.427479 -0.876477 0.221474
vn -0.642012 -0.128873 0.755786
vn 0.43981 0.755251 0.485966
vn -0.478001 -0.588626 0.651947
vn 0.408764 -0.897445 0.165846
vn 0.594018 -0.491065 -0.637179
vn 0.90662 -0.418201 0.056107
vn -0.076102 -0.887411 -0.454653
vn -0.472446 -0.31497 -0.823158
vn 0.410392 0.130071 -0.902585
vn 0.815007 0.56365 -0.134398
vn -0.763506 -0.627467 0.152786
vn -0.051427 -0.631983 0.773274
vn -0.410289 0.059874 0.909988
vn -0.931527 -0.345233 0.114334
vn 0.62824 -0.215941 0.747452
vn 0.467751 0.473516 0.746319
vn 0.449089 0.329477 -0.83052
vn 0.722434 0.674197 -0.153454
vn -0.383262 -0.154601 -0.910609
vn -0.3593 -0.426305 -0.830161
vn 0.642239 -0.129541 -0.755479
vn 0.998924 0.031017 -0.034485
vn -0.92276 -0.369266 0.110254
vn -0.294915 0.232687 0.926759
vn -0.304475 -0.08079 0.949088
vn -0.904415 -0.412942 0.107301
vn 0.50884 0.627219 0.589643
vn 0.684122 0.159963 0.71161
vn 0.516887 -0.328616 -0.790468
vn 0.967894 -0.25034 0.022607
vn -0.418956 -0.541381 -0.72896
vn -0.469341 -0.422631 -0.775308
vn 0.281683 -0.064769 -0.957319
vn 0.946323 0.310961 -0.088183
vn -0.836144 -0.537863 0.107547
vn -0.376715 -0.250741 0.891748
vn -0.439779 -0.105031 0.891944
vn -0.881193 -0.466019 0.07953
vn 0.563542 -0.010382 0.826022
vn 0.3328 0.296621 0.895131
vn 0.092798 0.264611 -0.95988
vn 0.278025 0.940953 -0.193158
vn -0.536099 0.256216 -0.804333
vn -0.360982 0.916936 -0.170061
vn -0.9997 0.022027 0.010697
vn -0.494727 0.556305 0.66766
vn 0.141826 0.602331 0.785546
vn -0.031348 -0.161056 -0.986447
vn -0.402049 0.627497 -0.666787
vn 0.698745 0.385905 -0.602356
vn 0.561737 0.802815 -0.199848
vn -0.889957 -0.313846 -0.330875
vn -0.303885 0.932666 0.194393
vn -0.91919 0.348885 0.182673
vn 0.874545 -0.269305 0.403293
vn 0.004247 -0.824601 -0.5657
vn 0.829621 -0.043594 0.556623
vn -0.931269 -0.327593 -0.159443
vn -0.200081 0.96286 0.181297
vn -0.53749 -0.624325 0.566854
vn 0.282293 -0.237665 -0.929423
vn -0.285568 0.668919 0.686293
vn -0.448497 0.467268 0.761913
vn -0.424183 -0.899529 -0.104478
vn 0.303389 0.540478 -0.784754
vn -0.727124 0.37614 -0.574291
vn -0.933855 -0.304863 -0.187011
vn 0.171363 -0.807033 0.565096
vn 0.369609 -0.883754 -0.287
vn 0.732353 -0.612772 0.296935
vn -0.256041 -0.961641 0.098438
vn -0.632007 -0.539918 -0.555928
vn 0.336799 -0.499972 -0.797868
vn 0.973324 0.019989 -0.228565
vn -0.659912 -0.525273 0.537219
vn -0.071207 -0.332935 0.940258
vn -0.331929 0.481231 0.81132
vn -0.967118 -0.049731 0.249417
vn 0.606261 -0.078408 0.791391
vn 0.636716 0.520683 0.568755
vn 0.276375 -0.379437 -0.882975
vn 0.962015 0.074669 -0.262586
vn -0.654048 -0.269505 -0.706816
vn -0.621974 -0.617121 -0.481986
vn 0.287193 -0.720012 -0.631745
vn 0.97996 -0.198568 -0.015799
vn -0.984139 0.135544 0.114453
vn -0.371255 0.7329 0.570112
vn -0.303713 0.536039 0.787668
vn -0.954908 -0.095796 0.281023
vn 0.567382 0.678893 0.466028
vn 0.558412 0.544281 0.626047
vn 0.272165 -0.796578 -0.539805
vn 0.994468 -0.046971 -0.093958
vn -0.607732 -0.729634 -0.313522
vn -0.774912 -0.453928 -0.439842
vn 0.177316 -0.475604 -0.861603
vn 0.889182 0.285016 -0.35794
vn -0.904523 -0.196454 0.378476
vn -0.18581 0.349727 0.918241
vn -0.261664 0.615253 0.743637
vn -0.978178 0.0842 0.18994
vn 0.621966 0.486772 0.61336
vn 0.640108 0.656551 0.399001
vn -0.054488 0.244289 -0.96817
vn 0.354845 0.72086 -0.595355
vn -0.654391 0.351194 -0.669653
vn -0.226123 0.814065 -0.534945
vn -0.828999 0.528248 -0.183617
vn -0.29827 0.954293 -0.018948
vn 0.377306 0.926053 0.008107
vn -0.412713 0.727367 -0.548275
vn -0.765573 -0.319871 -0.558194
vn -0.542096 -0.795208 0.271619
vn -0.664602 -0.310176 0.679776
vn -0.743379 -0.658159 0.119225
vn -0.040901 0.832048 0.553193
vn -0.9298 0.224581 0.291609
vn -0.277106 0.866761 0.414654
vn -0.838919 0.489285 0.23836
vn -0.667728 -0.740337 -0.077718
vn -0.714904 0.333978 -0.614305
vn -0.645422 -0.692388 0.322535
vn -0.621694 -0.243358 0.744495
vn -0.279996 0.911965 0.299871
vn -0.816235 -0.515506 0.260797
vn -0.851833 0.069523 0.51918
vn -0.315514 0.704927 0.635239
vn -0.885779 -0.463827 0.016138
vn -0.452483 0.664273 0.594979
vn 0.063298 0.943477 0.325337
vn -0.083697 0.820392 0.565643
vn -0.278414 -0.955001 0.102268
vn -0.699502 -0.226468 -0.677798
vn -0.072005 -0.020846 0.997186
vn -0.665695 0.743048 -0.068772
vn -0.539312 -0.36682 -0.758015
vn 0.057702 -0.978649 0.197272
vn 0.303016 -0.132624 0.943712
vn -0.514521 0.853919 0.078046
vn -0.566299 -0.578806 -0.586761
vn 0.427397 -0.876514 0.221484
vn 0.642011 -0.128872 0.755787
vn -0.439811 0.755251 0.485965
vn 0.478 -0.588625 0.651948
vn -0.469047 -0.811066 0.349524
vn -0.864923 0.004195 0.501887
vn -0.927165 -0.12315 -0.353834
vn -0.400981 -0.848245 -0.34597
vn -0.109025 -0.330203 -0.937593
vn -0.733445 0.362181 -0.575224
vn -0.56585 0.783966 0.255363
vn 0.352487 -0.930583 -0.098832
vn 0.204653 -0.743736 0.636375
vn 0.785353 -0.149914 0.600622
vn 0.737108 -0.579011 -0.348452
vn -0.142402 0.006406 0.989788
vn 0.08493 0.504726 0.859092
vn -0.723413 0.418649 -0.549006
vn -0.584455 0.765955 0.267818
vn -0.03975 -0.116063 -0.992446
vn -0.173032 -0.32939 -0.928204
vn -0.845234 0.258491 -0.46772
vn -0.754492 0.528352 0.389342
vn 0.800463 -0.428163 -0.419447
vn 0.836873 0.046118 0.545451
vn 0.739453 -0.185128 0.647253
vn 0.701624 -0.621004 -0.349396
vn 0.063185 0.558086 0.827374
vn -0.038743 0.388957 0.920441
vn -0.876056 0.007925 -0.482145
vn -0.864516 0.010234 0.502502
vn -0.256515 -0.413127 -0.8738
vn -0.104486 -0.379693 -0.919193
vn -0.723501 0.114404 -0.680777
vn -0.781594 0.469971 0.410169
vn 0.638951 -0.696056 -0.327486
vn 0.661183 -0.28962 0.692068
vn 0.782561 -0.247849 0.571113
vn 0.682523 -0.624174 -0.380224
vn -0.016673 0.144738 0.98933
vn 0.219783 0.263578 0.939267
vn -0.377167 0.504633 -0.776589
vn -0.100781 0.994311 -0.03447
vn 0.271201 0.013442 -0.962429
vn 0.618461 0.663429 -0.421151
vn 0.826008 -0.319672 -0.464241
vn 0.964067 0.139983 0.225788
vn 0.44078 0.634273 0.635146
vn -0.68431 0.073074 -0.725521
vn -0.792823 0.600324 0.105085
vn -0.01158 0.712073 -0.70201
vn -0.320466 0.890532 0.322884
vn 0.314332 -0.334919 -0.888271
vn 0.578524 0.815648 -0.005364
vn 0.849122 0.17942 -0.49679
vn -0.487875 -0.622831 0.611604
vn -0.309189 -0.763653 -0.566777
vn 0.087425 -0.300839 0.949659
vn 0.108227 -0.561088 -0.82065
vn 0.132171 0.959159 0.250091
vn 0.656631 -0.738323 0.153999
vn -0.947329 0.099511 -0.30441
vn -0.508875 0.106741 0.854197
vn 0.929688 0.101995 0.353945
vn 0.273085 -0.951885 -0.139067
vn -0.734175 0.592583 -0.331411
vn 0.212421 0.407617 -0.888102
vn 0.444077 -0.365606 -0.818003
vn -0.30687 -0.940523 0.145766
vn -0.809649 -0.5834 -0.064134
vn -0.391037 -0.629729 -0.671216
vn 0.16805 -0.939002 -0.300058
vn 0.660758 -0.3339 -0.672242
vn -0.259815 -0.075417 -0.962709
vn -0.928427 0.235499 -0.287339
vn 0.53886 -0.77972 0.318852
vn -0.083766 -0.700484 0.708735
vn 0.251764 0.053572 0.966305
vn 0.917206 -0.27019 0.292798
vn -0.713564 -0.324141 0.621095
vn -0.668605 0.311817 0.675084
vn -0.179518 0.060889 -0.981869
vn -0.908504 0.29748 -0.293472
vn 0.72332 -0.030299 -0.689848
vn 0.63499 -0.432947 -0.639801
vn -0.250122 -0.348945 -0.903148
vn -0.980447 -0.049138 -0.190547
vn 0.966322 -0.049244 0.252579
vn 0.342516 0.375789 0.861084
vn 0.231267 0.116324 0.965911
vn 0.897364 -0.323324 0.300334
vn -0.574246 0.488342 0.657088
vn -0.597417 0.299275 0.743994
vn -0.253506 -0.458134 -0.851967
vn -0.972792 0.121733 -0.19712
vn 0.589293 -0.602705 -0.538034
vn 0.792293 -0.322768 -0.517777
vn -0.091797 -0.046923 -0.994672
vn -0.807828 0.517488 -0.282173
vn 0.826754 -0.448178 0.340021
vn 0.08312 -0.090971 0.992379
vn 0.201608 0.211214 0.956422
vn 0.946234 -0.126193 0.297855
vn -0.662692 0.26086 0.701991
vn -0.638576 0.505251 0.580467
vn 0.205152 0.616521 -0.760141
vn -0.215082 0.941643 -0.258937
vn 0.76454 0.513015 -0.390249
vn 0.357343 0.9274 -0.110615
vn 0.883202 0.448004 0.138732
vn 0.367893 0.829645 0.419934
vn -0.305124 0.87781 0.369255
vn 0.545499 -0.424598 -0.722598
vn -0.299702 -0.508205 -0.807407
vn 0.251704 0.512908 -0.820713
vn -0.397788 0.573582 -0.716079
vn 0.059802 -0.995523 0.073202
vn -0.920267 -0.133296 -0.367888
vn -0.672223 -0.730226 0.122004
vn 0.248195 0.967281 -0.052599
vn 0.928844 -0.340315 -0.146406
vn -0.034201 0.997527 0.061401
vn 0.022501 -0.876919 0.480111
vn -0.981489 -0.1284 -0.142099
vn 0.179506 0.925534 0.333412
vn 0.810032 -0.586222 -0.0139
vn -0.94323 -0.099104 0.31701
vn -0.881534 0.28941 0.373014
vn 0.756132 0.563825 0.332215
vn 0.055998 -0.99836 -0.011899
vn 0.083499 -0.301199 0.949899
vn 0.299612 0.311315 0.90184
vn -0.480483 -0.424586 -0.767374
vn -0.179205 0.512916 -0.839526
vn 0.36891 -0.508213 -0.77822
vn 0.458687 0.573584 -0.678681
vn -0.066002 -0.99552 0.067701
vn 0.94882 -0.133303 -0.286306
vn 0.659018 -0.73022 0.180205
vn -0.242598 0.967293 -0.074099
vn -0.912546 -0.340318 -0.226812
vn 0.028701 0.997524 0.064202
vn -0.064302 -0.876922 0.476312
vn 0.990139 -0.128405 -0.056002
vn -0.214104 0.913817 0.345107
vn -0.799425 -0.592519 -0.099204
vn 0.920163 -0.095596 0.379685
vn 0.848278 0.286293 0.445489
vn -0.788329 0.54992 0.27591
vn -0.047298 -0.998064 -0.040399
vn -0.181896 -0.334492 0.924678
vn -0.367206 0.281204 0.886614
vn 0.817738 0.342622 0.462508
vn -0.339693 0.03011 0.940054
vn 0.253001 -0.30784 0.917183
vn 0.997969 0.016398 -0.061553
vn 0.479045 -0.001241 -0.87779
vn 0.48985 -0.590767 -0.641125
vn -0.452474 -0.33448 -0.826674
vn -0.643611 -0.764109 -0.043613
vn -0.934932 -0.324388 0.143789
vn -0.772615 -0.360761 0.522416
vn 0.978067 -0.092725 0.186512
vn 0.031575 -0.332393 0.942612
vn 0.252671 -0.556527 0.791477
vn 0.854967 -0.380197 -0.352819
vn 0.368215 0.168272 -0.914387
vn 0.104885 -0.669533 -0.73534
vn -0.828464 0.032631 -0.559091
vn -0.760397 -0.642857 -0.092364
vn -0.856027 -0.306998 0.415896
vn -0.659343 -0.24302 0.711483
vn 0.917096 -0.368842 0.151295
vn -0.010487 -0.697374 0.716631
vn 0.586671 0.562517 -0.582573
vn -0.859743 -0.277203 0.428953
vn -0.615288 0.667901 -0.418723
vn 0.894287 0.143953 0.423708
vn -0.002427 -0.035458 0.999368
vn -0.728128 0.477682 0.491579
vn 0.070182 0.978922 0.191798
vn 0.324941 -0.570767 0.754081
vn 0.735194 -0.67411 -0.071168
vn 0.845865 -0.168566 0.50606
vn 0.084008 -0.970115 0.227638
vn -0.24053 -0.826768 -0.508528
vn 0.672036 -0.429093 -0.603529
vn 0.916549 0.390631 -0.0857
vn -0.565141 -0.651123 0.506611
vn -0.196092 -0.150131 0.969025
vn -0.665954 0.418601 0.617478
vn -0.91056 -0.401185 0.099655
vn 0.385621 0.349195 0.854025
vn 0.246548 0.816228 0.522481
vn 0.571425 -0.275092 -0.773174
vn 0.770887 0.551518 -0.318687
vn -0.323375 -0.637439 -0.699357
vn -0.246836 -0.818359 -0.519
vn 0.662192 -0.412871 -0.625331
vn 0.902097 0.415029 -0.118207
vn -0.960151 -0.272717 -0.061123
vn -0.732882 0.561287 0.384502
vn -0.671819 0.425946 0.605994
vn -0.910706 -0.400923 0.099374
vn 0.158337 0.934064 0.320086
vn 0.236768 0.832568 0.500771
vn 0.713071 -0.511355 -0.479632
vn 0.960297 0.27201 0.061973
vn -0.176922 -0.915677 -0.36088
vn -0.262633 -0.785954 -0.559733
vn 0.653495 -0.397302 -0.64428
vn 0.892846 0.428969 -0.137155
vn -0.853669 -0.478201 0.206334
vn -0.594242 0.306028 0.74379
vn -0.687267 0.457323 0.564377
vn -0.927639 -0.369008 0.057616
vn 0.293208 0.717701 0.631613
vn 0.228482 0.846654 0.480596
vn 0.358261 -0.015753 -0.933489
vn 0.320113 0.69322 -0.645735
vn -0.403639 -0.063678 -0.9127
vn -0.319347 0.573207 -0.75462
vn -0.931419 0.010772 -0.36379
vn -0.668924 0.712865 -0.210629
vn 0.011408 0.999818 -0.015277
vn -0.068364 -0.22377 0.972242
vn -0.999955 -0.009089 -0.002615
vn -0.190119 -0.960871 0.201451
vn 0.331863 0.942222 0.045661
vn 0.964556 -0.206277 0.164563
vn -0.976097 -0.175297 -0.128471
vn 0.022639 -0.90704 0.420435
vn -0.029234 0.815364 -0.57821
vn 0.983783 -0.111342 0.140617
vn -0.996069 -0.036904 -0.080529
vn -0.014231 -0.665874 0.745929
vn 0.000933 0.552844 -0.833284
vn 0.9956 -0.076353 0.054332
vn -0.97347 -0.112596 0.199194
vn 0.186198 0.0645 0.980393
vn -0.157503 -0.284605 -0.945618
vn 0.989064 -0.085197 -0.120395
vn 0.119095 -0.865367 0.486782
vn -0.599046 -0.734805 0.318129
vn 0.070348 -0.773953 -0.629324
vn -0.835749 -0.438361 0.3307
vn 0.015965 -0.431618 -0.901915
vn 0.77138 0.554297 -0.312615
vn 0.198274 0.904774 -0.376924
vn -0.112051 0.644459 0.756384
vn -0.356445 0.579351 0.733007
vn 0.187022 -0.847316 -0.49707
vn -0.912619 -0.385247 -0.136786
vn 0.918688 0.180345 0.351409
vn -0.130288 0.744182 0.655148
vn 0.0531 -0.966591 -0.250764
vn -0.847835 0.177231 -0.499765
vn 0.631369 -0.367318 0.682972
vn -0.14095 0.870856 0.470896
vn -0.481941 -0.58585 0.651547
vn -0.995727 -0.090519 -0.018288
vn -0.373773 -0.878895 0.296376
vn -0.176286 -0.800106 0.573371
vn -0.794817 -0.035087 -0.605835
vn -0.224488 0.686307 -0.691801
vn 0.002074 -0.127305 -0.991862
vn 0.903666 0.264366 -0.336894
vn 0.760507 -0.546754 -0.350271
vn 0.780873 -0.56531 0.265822
vn 0.542308 -0.66066 0.519067
vn -0.932338 -0.303319 -0.196837
vn -0.103454 -0.976937 0.186795
vn -0.487446 0.844026 -0.223642
vn 0.782806 -0.54849 0.293893
vn 0.676828 0.727321 0.113615
vn -0.946862 -0.037008 0.319504
vn -0.148921 -0.591012 0.792797
vn 0.649253 0.04898 0.758994
vn -0.090562 0.703286 0.705115
vn 0.292328 -0.248197 0.923549
vn -0.252669 0.195696 0.947556
vn -0.577846 -0.454352 0.677981
vn 0.096181 -0.820054 0.564146
vn -0.185101 -0.96429 -0.189428
vn -0.90366 -0.382796 0.192004
vn -0.714979 0.578392 0.392769
vn 0.756524 -0.61886 0.211385
vn 0.816604 0.063943 0.573646
vn 0.909048 0.378186 -0.174952
vn 0.720342 -0.583011 -0.375775
vn 0.321125 0.648783 0.689898
vn 0.190513 0.959724 0.206483
vn -0.949721 -0.310156 -0.042817
vn -0.772532 0.628669 0.089272
vn -0.262681 -0.852011 -0.452853
vn -0.214213 -0.953498 -0.212023
vn -0.907045 -0.380495 0.18026
vn -0.715373 0.578812 0.391432
vn 0.634412 -0.510864 -0.58012
vn 0.786212 0.434937 -0.438978
vn 0.892839 0.404849 -0.19732
vn 0.721227 -0.583725 -0.372956
vn 0.112615 0.993222 -0.028791
vn 0.1876 0.962742 0.194769
vn -0.839445 -0.419436 0.345552
vn -0.62782 0.5053 0.592042
vn -0.200641 -0.979524 -0.016599
vn -0.220764 -0.940676 -0.257666
vn -0.918725 -0.368822 0.141122
vn -0.733767 0.5944 0.329051
vn 0.750211 -0.608613 -0.258408
vn 0.919029 0.394186 -0.001765
vn 0.879429 0.409287 -0.243081
vn 0.688036 -0.555713 -0.466679
vn 0.237788 0.902198 0.359856
vn 0.174341 0.972316 0.155586
vn -0.908331 -0.166627 -0.383628
vn -0.678106 0.557839 -0.478527
vn -0.348469 -0.403458 -0.846044
vn -0.296769 0.251758 -0.921166
vn 0.412789 -0.327284 -0.849995
vn 0.333842 0.433577 -0.836995
vn -0.016057 0.928154 -0.37185
vn -0.168817 -0.981785 -0.087169
vn 0.592686 -0.460578 -0.660751
vn -0.538078 -0.822252 0.185401
vn 0.250201 0.047158 -0.967045
vn 0.412956 0.909474 -0.04821
vn -0.110664 0.972966 -0.20271
vn -0.554959 0.478774 0.680292
vn -0.573961 0.205118 0.792777
vn 0.656751 -0.677993 -0.330158
vn -0.665653 -0.584649 -0.463779
vn 0.578416 0.451553 0.679364
vn -0.656649 0.544012 0.522363
vn 0.515648 -0.805354 -0.292425
vn -0.573678 -0.115272 -0.810929
vn 0.46868 -0.163239 0.868155
vn -0.677282 0.653265 0.338427
vn -0.374074 -0.92732 -0.012056
vn -0.545386 -0.196695 0.814779
vn -0.210799 -0.974694 0.0744
vn -0.729536 0.120006 0.673333
vn -0.285603 -0.81381 -0.506107
vn 0.742778 0.029699 -0.66888
vn 0.302302 0.293801 -0.906805
vn 0.155093 0.987355 0.032799
vn 0.096702 0.94182 0.321907
vn -0.214711 -0.929747 0.299115
vn -0.99376 0.063798 0.091496
vn 0.981344 -0.015801 0.191609
vn 0.222608 0.973937 -0.043502
vn -0.305501 -0.887103 0.346001
vn -0.843903 0.198801 -0.498302
vn 0.628112 -0.164603 0.760514
vn 0.2459 0.963102 -0.1094
vn -0.474112 0.080002 0.876822
vn 0.613122 -0.700885 0.364475
vn 0.831232 -0.391638 0.394553
vn 0.021304 -0.775336 -0.63119
vn 0.077129 -0.429888 -0.899582
vn -0.774999 0.51098 -0.371856
vn -0.21912 0.893086 -0.392918
vn 0.017678 0.648103 0.761348
vn 0.266369 0.596775 0.756907
vn 0.940536 -0.333247 -0.065867
vn -0.100851 -0.855387 -0.508078
vn -0.951479 0.127951 0.279851
vn 0.038074 0.748885 0.661606
vn 0.872309 0.225433 -0.433886
vn 0.02037 -0.967497 -0.252063
vn -0.660208 -0.403511 0.633486
vn 0.055636 0.876365 0.478423
vn 0.462774 -0.559406 0.687681
vn 0.229667 -0.970609 -0.071914
vn 0.567479 -0.79126 0.227761
vn -0.513772 -0.491641 -0.703084
vn -0.177815 0.035109 -0.983438
vn -0.45828 0.885056 -0.081577
vn 0.071215 0.978074 -0.195705
vn 0.473637 0.507641 0.7197
vn 0.499331 0.235178 0.833882
vn 0.730796 -0.545469 -0.410366
vn -0.590641 -0.71296 -0.37793
vn -0.652947 0.417044 0.632245
vn 0.583421 0.578764 0.569783
vn 0.639497 -0.08128 -0.764485
vn -0.445971 -0.832292 -0.329242
vn -0.52376 -0.191135 0.830147
vn 0.611856 0.689383 0.387794
vn 0.425211 -0.904903 0.018601
vn 0.571322 -0.099004 0.814732
vn 0.697633 0.244812 0.673332
vn 0.376801 -0.923302 0.0744
vn 0.422615 -0.751826 -0.506117
vn -0.736665 -0.099695 -0.668869
vn -0.348708 0.236806 -0.906822
vn -0.324206 0.945418 0.032801
vn -0.258804 0.910713 0.321905
vn 0.967583 0.235396 0.091499
vn 0.372914 -0.878332 0.299111
vn -0.963706 -0.185901 0.191601
vn -0.388302 0.920505 -0.0435
vn 0.796583 0.342292 -0.498289
vn 0.454892 -0.820586 0.345994
vn -0.590013 -0.271106 0.760517
vn -0.40939 0.905777 -0.109397
vn 0.453013 0.161105 0.876826
vn 0.93542 0.015641 0.353193
vn -0.191369 -0.016948 0.981372
vn 0.259489 -0.504652 0.823402
vn 0.937571 -0.26463 -0.225682
vn 0.339491 -0.005801 -0.940591
vn 0.197002 -0.602065 -0.773762
vn -0.635003 -0.058113 -0.770321
vn -0.848771 -0.528486 -0.017044
vn -0.963202 -0.057201 0.262621
vn -0.773429 -0.196685 0.602597
vn -0.977901 -0.099083 0.1841
vn -0.384945 -0.853582 0.351019
vn 0.040736 -0.583244 0.811275
vn -0.894781 -0.003904 -0.446488
vn -0.193436 0.555341 -0.808813
vn -0.082585 -0.041646 -0.995714
vn 0.743629 0.326367 -0.583524
vn 0.837373 -0.503335 -0.213215
vn 0.911976 -0.283786 0.296252
vn 0.67188 -0.571922 0.470619
vt 0.5537 0.984
vt 0.5785 0.921
vt 0.6464 0.7277
vt 0.6116 0.6908
vt 0.0702 0.5722
vt 0.065 0.6067
vt 0.0101 0.6382
vt 0.1382 0.5515
vt 0.168 0.5931
vt 0.0713 0.7384
vt 0.07 0.71
vt 0.1404 0.6946
vt 0.1609 0.7618
vt 0.117 0.7739
vt 0.2319 0.7201
vt 0.4399 0.6186
vt 0.5031 0.5727
vt 0.5468 0.7836
vt 0.3549 0.5714
vt 0.3229 0.5443
vt 0.3831 0.6697
vt 0.4454 0.9091
vt 0.2973 0.6027
vt 0.2591 0.5643
vt 0.3154 0.7308
vt 0.3695 0.8785
vt 0.2371 0.5878
vt 0.1817 0.555
vt 0.3108 0.8107
vt 0.4182 0.9458
vt 0.3941 0.9118
vt 0.252 0.851
vt 0.3295 0.8601
vt 0.4207 0.624
vt 0.5372 0.7224
vt 0.4199 0.6653
vt 0.4789 0.7777
vt 0.5364 0.6154
vt 0.4313 0.5999
vt 0.397 0.6348
vt 0.4862 0.7246
vt 0.4981 0.531
vt 0.4307 0.5441
vt 0.4063 0.5618
vt 0.4159 0.6133
vt 0.3913 0.4781
vt 0.4607 0.5273
vt 0.4341 0.532
vt 0.3914 0.5093
vt 0.4982 0.5661
vt 0.5111 0.6018
vt 0.4293 0.5583
vt 0.3748 0.5293
vt 0.5196 0.5774
vt 0.4981 0.5662
vt 0.5077 0.6059
vt 0.5381 0.6166
vt 0.4341 0.532
vt 0.4293 0.5583
vt 0.4482 0.6205
vt 0.4139 0.6023
vt 0.4997 0.6479
vt 0.5012 0.704
vt 0.4574 0.6807
vt 0.4282 0.6651
vt 0.5169 0.6571
vt 0.4986 0.6492
vt 0.5012 0.704
vt 0.5158 0.7117
vt 0.4482 0.6205
vt 0.4574 0.6807
vt 0.4414 0.7368
vt 0.3952 0.7173
vt 0.5073 0.7642
vt 0.5307 0.8462
vt 0.4336 0.8211
vt 0.3438 0.7562
vt 0.5252 0.7731
vt 0.5095 0.7643
vt 0.5359 0.8465
vt 0.557 0.86
vt 0.4418 0.7368
vt 0.4336 0.8211
vt 0.4568 0.8728
vt 0.3824 0.8145
vt 0.5355 0.8909
vt 0.5045 0.9201
vt 0.5573 0.9014
vt 0.5355 0.8909
vt 0.4568 0.8728
vt 0.7632 1.0011
vt 0.6438 0.9995
vt 0.6995 0.9975
vt 0.6208 0.9696
vt 0.7012 0.904
vt 0.5281 0.9775
vt 0.5462 0.9453
vt 0.7497 0.8527
vt 0.8298 0.8386
vt 0.5426 0.8328
vt 0.6825 0.8124
vt 0.3721 0.8303
vt 0.7491 0.5991
vt 0.7904 0.6119
vt 0.7087 0.6121
vt 0.3761 0.5961
vt 0.5371 0.578
vt 0.5351 0.636
vt 0.5188 0.4677
vt 0.7291 0.4826
vt 0.4467 0.627
vt 0.4923 0.6412
vt 0.5605 0.6443
vt 0.3899 0.6404
vt 0.3742 0.666
vt 0.5048 0.667
vt 0.5919 0.671
vt 0.3558 0.6443
vt 0.3899 0.6482
vt 0.3742 0.676
vt 0.3307 0.671
vt 0.4923 0.6474
vt 0.5048 0.675
vt 0.4839 0.7166
vt 0.5413 0.7192
vt 0.4007 0.7159
vt 0.4038 0.7663
vt 0.5094 0.7681
vt 0.5703 0.7712
vt 0.3722 0.719
vt 0.4007 0.7222
vt 0.4038 0.7717
vt 0.3708 0.7686
vt 0.4839 0.7216
vt 0.5094 0.7724
vt 0.5342 0.8201
vt 0.6124 0.8239
vt 0.4017 0.8168
vt 0.3727 0.8708
vt 0.5256 0.8729
vt 0.6115 0.8777
vt 0.3568 0.819
vt 0.4017 0.8228
vt 0.3727 0.8795
vt 0.3242 0.8747
vt 0.5342 0.8249
vt 0.526 0.8801
vt 0.5024 0.8984
vt 0.5745 0.9033
vt 0.3901 0.8962
vt 0.4553 0.9121
vt 0.3549 0.8995
vt 0.3902 0.9032
vt 0.5033 0.9045
vt 0.5785 0.921
vt 0.6116 0.6908
vt 0.0702 0.5722
vt 0.065 0.6067
vt 0.168 0.5931
vt 0.0713 0.7384
vt 0.1404 0.6946
vt 0.1609 0.7618
vt 0.2319 0.7201
vt 0.4399 0.6186
vt 0.5468 0.7836
vt 0.3549 0.5714
vt 0.3831 0.6697
vt 0.4454 0.9091
vt 0.2973 0.6027
vt 0.3154 0.7308
vt 0.3695 0.8785
vt 0.2371 0.5878
vt 0.3108 0.8107
vt 0.3941 0.9118
vt 0.3295 0.8601
vt 0.4207 0.624
vt 0.5372 0.7224
vt 0.4199 0.6653
vt 0.4789 0.7777
vt 0.5364 0.6154
vt 0.4313 0.5999
vt 0.397 0.6348
vt 0.4862 0.7246
vt 0.4981 0.531
vt 0.4307 0.5441
vt 0.4063 0.5618
vt 0.4159 0.6133
vt 0.3913 0.4781
vt 0.4607 0.5273
vt 0.3914 0.5093
vt 0.4341 0.532
vt 0.4982 0.5661
vt 0.5111 0.6018
vt 0.4293 0.5583
vt 0.3748 0.5293
vt 0.5196 0.5774
vt 0.4981 0.5662
vt 0.5077 0.6059
vt 0.5381 0.6166
vt 0.4341 0.532
vt 0.4293 0.5583
vt 0.4482 0.6205
vt 0.4139 0.6023
vt 0.4997 0.6479
vt 0.5012 0.704
vt 0.4574 0.6807
vt 0.4282 0.6651
vt 0.5169 0.6571
vt 0.4986 0.6492
vt 0.5012 0.704
vt 0.5158 0.7117
vt 0.4482 0.6205
vt 0.4574 0.6807
vt 0.4414 0.7368
vt 0.3952 0.7173
vt 0.5073 0.7642
vt 0.5307 0.8462
vt 0.4336 0.8211
vt 0.3438 0.7562
vt 0.5252 0.7731
vt 0.5095 0.7643
vt 0.5359 0.8465
vt 0.557 0.86
vt 0.4418 0.7368
vt 0.4336 0.8211
vt 0.4568 0.8728
vt 0.3824 0.8145
vt 0.5355 0.8909
vt 0.5045 0.9201
vt 0.5573 0.9014
vt 0.5355 0.8909
vt 0.4568 0.8728
vt 0.7632 1.0011
vt 0.6995 0.9975
vt 0.6438 0.9995
vt 0.6208 0.9696
vt 0.7012 0.904
vt 0.5281 0.9775
vt 0.5462 0.9453
vt 0.7497 0.8527
vt 0.8298 0.8386
vt 0.5426 0.8328
vt 0.6825 0.8124
vt 0.3721 0.8303
vt 0.7491 0.5991
vt 0.7904 0.6119
vt 0.7087 0.6121
vt 0.3761 0.5961
vt 0.5371 0.578
vt 0.5351 0.636
vt 0.5188 0.4677
vt 0.7291 0.4826
vt 0.4467 0.627
vt 0.5605 0.6443
vt 0.4923 0.6412
vt 0.3899 0.6404
vt 0.3742 0.666
vt 0.5048 0.667
vt 0.5919 0.671
vt 0.3558 0.6443
vt 0.3899 0.6482
vt 0.3742 0.676
vt 0.3307 0.671
vt 0.4923 0.6474
vt 0.5048 0.675
vt 0.4839 0.7166
vt 0.5413 0.7192
vt 0.4007 0.7159
vt 0.4038 0.7663
vt 0.5094 0.7681
vt 0.5703 0.7712
vt 0.3722 0.719
vt 0.4007 0.7222
vt 0.4038 0.7717
vt 0.3708 0.7686
vt 0.4839 0.7216
vt 0.5094 0.7724
vt 0.5342 0.8201
vt 0.6124 0.8239
vt 0.4017 0.8168
vt 0.3727 0.8708
vt 0.5256 0.8729
vt 0.6115 0.8777
vt 0.3568 0.819
vt 0.4017 0.8228
vt 0.3727 0.8795
vt 0.3242 0.8747
vt 0.5342 0.8249
vt 0.526 0.8801
vt 0.5024 0.8984
vt 0.5745 0.9033
vt 0.3901 0.8962
vt 0.4553 0.9121
vt 0.3549 0.8995
vt 0.3902 0.9032
vt 0.5033 0.9045
vt 0.7632 1.0011
vt 0.6438 0.9995
vt 0.6995 0.9975
vt 0.6208 0.9696
vt 0.7012 0.904
vt 0.5281 0.9775
vt 0.5462 0.9453
vt 0.7497 0.8527
vt 0.8298 0.8386
vt 0.5426 0.8328
vt 0.6825 0.8124
vt 0.3721 0.8303
vt 0.7491 0.5991
vt 0.7904 0.6119
vt 0.7087 0.6121
vt 0.3761 0.5961
vt 0.5371 0.578
vt 0.5351 0.636
vt 0.5188 0.4677
vt 0.7291 0.4826
vt 0.7632 1.0011
vt 0.6995 0.9975
vt 0.6438 0.9995
vt 0.6208 0.9696
vt 0.7012 0.904
vt 0.5281 0.9775
vt 0.5462 0.9453
vt 0.7497 0.8527
vt 0.8298 0.8386
vt 0.5426 0.8328
vt 0.6825 0.8124
vt 0.3721 0.8303
vt 0.7491 0.5991
vt 0.7904 0.6119
vt 0.7087 0.6121
vt 0.3761 0.5961
vt 0.5371 0.578
vt 0.5351 0.636
vt 0.5188 0.4677
vt 0.7291 0.4826
vt 0.5298 0.8117
vt 0.4499 0.8015
vt 0.4579 0.59
vt 0.5186 0.5942
vt 0.5048 0.8311
vt 0.4793 0.5824
vt 0.4012 0.8349
vt 0.4325 0.5824
vt 0.3999 0.8219
vt 0.4104 0.6011
vt 0.5298 0.8117
vt 0.4499 0.8015
vt 0.4579 0.59
vt 0.5186 0.5942
vt 0.5048 0.8311
vt 0.4793 0.5824
vt 0.4012 0.8349
vt 0.4325 0.5824
vt 0.3999 0.8219
vt 0.4104 0.6011
vt 0.5555 0.8707
vt 0.4475 0.8364
vt 0.544 0.9198
vt 0.3667 0.8793
vt 0.4024 0.9343
vt 0.559 0.9071
vt 0.4436 0.8932
vt 0.3781 0.9181
vt 0.4662 0.9559
vt 0.5693 0.5662
vt 0.5872 0.597
vt 0.6367 0.6119
vt 0.513 0.5747
vt 0.4784 0.6034
vt 0.5731 0.6319
vt 0.6362 0.6509
vt 0.4883 0.5672
vt 0.513 0.5747
vt 0.4784 0.6034
vt 0.4469 0.5939
vt 0.5872 0.597
vt 0.5731 0.6319
vt 0.5157 0.6851
vt 0.5554 0.6971
vt 0.4561 0.6672
vt 0.4167 0.73
vt 0.4674 0.7453
vt 0.5012 0.7555
vt 0.4362 0.6612
vt 0.4561 0.6672
vt 0.4167 0.73
vt 0.3998 0.7249
vt 0.5157 0.6851
vt 0.4674 0.7453
vt 0.4256 0.8081
vt 0.4639 0.8196
vt 0.3683 0.7908
vt 0.307 0.8523
vt 0.3894 0.8771
vt 0.4443 0.8937
vt 0.3491 0.7851
vt 0.3683 0.7908
vt 0.307 0.8523
vt 0.2795 0.8441
vt 0.4256 0.8081
vt 0.3894 0.8771
vt 0.3612 0.9041
vt 0.4053 0.9174
vt 0.2949 0.8841
vt 0.3246 0.9088
vt 0.2729 0.8775
vt 0.2949 0.8841
vt 0.3612 0.9041
vt 0.0202 0.727
vt 0.0795 0.649
vt 0.089 0.6837
vt 0.0597 0.606
vt 0.0795 0.649
vt 0.1603 0.6054
vt 0.1692 0.65
vt 0.1512 0.5607
vt 0.1597 0.6052
vt 0.2585 0.605
vt 0.2414 0.6487
vt 0.2745 0.5774
vt 0.2577 0.6047
vt 0.3519 0.6345
vt 0.3368 0.6643
vt 0.3642 0.6038
vt 0.346 0.6325
vt 0.438 0.7039
vt 0.91 0.8078
vt 0.9394 0.6262
vt 0.9023 0.6469
vt 0.9415 0.8102
vt 0.9938 0.6186
vt 0.9881 0.8085
vt 0.933 0.6337
vt 0.9411 0.8094
vt 0.9334 0.3671
vt 0.8867 0.4038
vt 0.9815 0.3662
vt 0.9329 0.3747
vt 0.9203 0.1787
vt 0.8819 0.1937
vt 0.9564 0.1684
vt 0.9174 0.18
vt 0.9029 0.0013
vt 0.5298 0.8117
vt 0.4579 0.59
vt 0.4499 0.8015
vt 0.5186 0.5942
vt 0.5048 0.8311
vt 0.4793 0.5824
vt 0.4012 0.8349
vt 0.4325 0.5824
vt 0.3999 0.8219
vt 0.4104 0.6011
vt 0.5555 0.8707
vt 0.4475 0.8364
vt 0.544 0.9198
vt 0.3667 0.8793
vt 0.4024 0.9343
vt 0.559 0.9071
vt 0.4436 0.8932
vt 0.3781 0.9181
vt 0.4662 0.9559
vt 0.5693 0.5662
vt 0.6367 0.6119
vt 0.5872 0.597
vt 0.513 0.5747
vt 0.4784 0.6034
vt 0.5731 0.6319
vt 0.6362 0.6509
vt 0.4883 0.5672
vt 0.513 0.5747
vt 0.4784 0.6034
vt 0.4469 0.5939
vt 0.5872 0.597
vt 0.5731 0.6319
vt 0.5157 0.6851
vt 0.5554 0.6971
vt 0.4561 0.6672
vt 0.4167 0.73
vt 0.4674 0.7453
vt 0.5012 0.7555
vt 0.4362 0.6612
vt 0.4561 0.6672
vt 0.4167 0.73
vt 0.3998 0.7249
vt 0.5157 0.6851
vt 0.4674 0.7453
vt 0.4256 0.8081
vt 0.4639 0.8196
vt 0.3683 0.7908
vt 0.307 0.8523
vt 0.3894 0.8771
vt 0.4443 0.8937
vt 0.3491 0.7851
vt 0.3683 0.7908
vt 0.307 0.8523
vt 0.2795 0.8441
vt 0.4256 0.8081
vt 0.3894 0.8771
vt 0.3612 0.9041
vt 0.4053 0.9174
vt 0.2949 0.8841
vt 0.3246 0.9088
vt 0.2729 0.8775
vt 0.2949 0.8841
vt 0.3612 0.9041
vt 0.91 0.8078
vt 0.9394 0.6262
vt 0.9023 0.6469
vt 0.9415 0.8102
vt 0.9938 0.6186
vt 0.9881 0.8085
vt 0.933 0.6337
vt 0.9411 0.8094
vt 0.9334 0.3671
vt 0.8867 0.4038
vt 0.9815 0.3662
vt 0.9329 0.3747
vt 0.9203 0.1787
vt 0.8819 0.1937
vt 0.9564 0.1684
vt 0.9174 0.18
vt 0.9029 0.0013
vt 0.91 0.8078
vt 0.9394 0.6262
vt 0.9023 0.6469
vt 0.9415 0.8102
vt 0.9938 0.6186
vt 0.9881 0.8085
vt 0.933 0.6337
vt 0.9411 0.8094
vt 0.9334 0.3671
vt 0.8867 0.4038
vt 0.9815 0.3662
vt 0.9329 0.3747
vt 0.9203 0.1787
vt 0.8819 0.1937
vt 0.9564 0.1684
vt 0.9174 0.18
vt 0.9029 0.0013
vt 0.91 0.8078
vt 0.9023 0.6469
vt 0.9394 0.6262
vt 0.9415 0.8102
vt 0.9938 0.6186
vt 0.9881 0.8085
vt 0.933 0.6337
vt 0.9411 0.8094
vt 0.8867 0.4038
vt 0.9334 0.3671
vt 0.9815 0.3662
vt 0.9329 0.3747
vt 0.8819 0.1937
vt 0.9203 0.1787
vt 0.9564 0.1684
vt 0.9174 0.18
vt 0.9029 0.0013
vt 0.91 0.8078
vt 0.9023 0.6469
vt 0.9394 0.6262
vt 0.9415 0.8102
vt 0.9938 0.6186
vt 0.9881 0.8085
vt 0.933 0.6337
vt 0.9411 0.8094
vt 0.8867 0.4038
vt 0.9334 0.3671
vt 0.9815 0.3662
vt 0.9329 0.3747
vt 0.8819 0.1937
vt 0.9203 0.1787
vt 0.9564 0.1684
vt 0.9174 0.18
vt 0.9029 0.0013
vt 0.91 0.8078
vt 0.9023 0.6469
vt 0.9394 0.6262
vt 0.9415 0.8102
vt 0.9938 0.6186
vt 0.9881 0.8085
vt 0.933 0.6337
vt 0.9411 0.8094
vt 0.8867 0.4038
vt 0.9334 0.3671
vt 0.9815 0.3662
vt 0.9329 0.3747
vt 0.8819 0.1937
vt 0.9203 0.1787
vt 0.9564 0.1684
vt 0.9174 0.18
vt 0.9029 0.0013
vt 0.5298 0.8117
vt 0.4499 0.8015
vt 0.4579 0.59
vt 0.5186 0.5942
vt 0.5048 0.8311
vt 0.4793 0.5824
vt 0.4012 0.8349
vt 0.4325 0.5824
vt 0.3999 0.8219
vt 0.4104 0.6011
vt 0.5298 0.8117
vt 0.4579 0.59
vt 0.4499 0.8015
vt 0.5186 0.5942
vt 0.5048 0.8311
vt 0.4793 0.5824
vt 0.4012 0.8349
vt 0.4325 0.5824
vt 0.3999 0.8219
vt 0.4104 0.6011
f 1/1/1 3/3/3 2/2/2
f 4/4/4 2/2/2 3/3/3
f 5/5/5 7/7/7 6/6/6
f 8/8/8 5/5/5 9/9/9
f 6/6/6 9/9/9 5/5/5
f 6/6/6 7/7/7 10/10/10
f 11/11/11 10/10/10 7/7/7
f 9/9/9 6/6/6 12/12/12
f 10/10/10 12/12/12 6/6/6
f 10/10/10 11/11/11 13/13/13
f 14/14/14 13/13/13 11/11/11
f 12/12/12 10/10/10 15/15/15
f 13/13/13 15/15/15 10/10/10
f 4/4/4 17/17/17 16/16/16
f 18/18/18 2/2/2 4/4/4
f 16/16/16 17/17/17 19/19/19
f 20/20/20 19/19/19 17/17/17
f 19/19/19 21/21/21 16/16/16
f 2/2/2 18/18/18 22/22/22
f 19/19/19 20/20/20 23/23/23
f 24/24/24 23/23/23 20/20/20
f 21/21/21 19/19/19 25/25/25
f 23/23/23 25/25/25 19/19/19
f 22/22/22 21/21/21 26/26/26
f 25/25/25 26/26/26 21/21/21
f 23/23/23 24/24/24 27/27/27
f 28/28/28 27/27/27 24/24/24
f 25/25/25 23/23/23 15/15/15
f 27/27/27 15/15/15 23/23/23
f 26/26/26 25/25/25 29/29/29
f 15/15/15 29/29/29 25/25/25
f 27/27/27 28/28/28 9/9/9
f 8/8/8 9/9/9 28/28/28
f 15/15/15 27/27/27 12/12/12
f 9/9/9 12/12/12 27/27/27
f 1/1/1 2/2/2 30/30/30
f 30/30/30 2/2/2 31/31/31
f 22/22/22 31/31/31 2/2/2
f 30/30/30 31/31/31 32/32/32
f 33/33/33 32/32/32 31/31/31
f 29/29/29 33/33/33 26/26/26
f 33/33/33 29/29/29 13/13/13
f 15/15/15 13/13/13 29/29/29
f 32/32/32 33/33/33 14/14/14
f 13/13/13 14/14/14 33/33/33
f 34/34/34 35/35/35 16/16/16
f 16/16/16 21/21/21 34/34/34
f 36/36/36 34/34/34 21/21/21
f 22/22/22 18/18/18 37/37/37
f 35/35/35 37/37/37 18/18/18
f 21/21/21 22/22/22 36/36/36
f 37/37/37 36/36/36 22/22/22
f 35/35/35 34/34/34 38/38/38
f 39/39/39 38/38/38 34/34/34
f 34/34/34 36/36/36 39/39/39
f 40/40/40 39/39/39 36/36/36
f 36/36/36 41/41/41 40/40/40
f 41/41/41 36/36/36 37/37/37
f 37/37/37 35/35/35 41/41/41
f 38/38/38 41/41/41 35/35/35
f 38/38/38 39/39/39 42/42/42
f 43/43/43 42/42/42 39/39/39
f 39/39/39 40/40/40 43/43/43
f 44/44/44 43/43/43 40/40/40
f 40/40/40 45/45/45 44/44/44
f 45/45/45 40/40/40 41/41/41
f 41/41/41 38/38/38 45/45/45
f 42/42/42 45/45/45 38/38/38
f 42/42/42 43/43/43 46/46/46
f 43/43/43 44/44/44 46/46/46
f 44/44/44 45/45/45 46/46/46
f 45/45/45 42/42/42 46/46/46
f 31/31/31 26/26/26 33/33/33
f 31/31/31 22/22/22 26/26/26
f 35/35/35 18/18/18 4/4/4
f 4/4/4 16/16/16 35/35/35
f 4/4/4 3/3/3 17/17/17
f 47/47/47 49/49/49 48/48/48
f 47/47/47 48/48/48 50/50/50
f 51/51/51 48/48/48 52/52/52
f 51/51/51 50/50/50 48/48/48
f 53/53/53 48/48/48 49/49/49
f 53/53/53 52/52/52 48/48/48
f 47/47/47 50/50/50 54/54/54
f 47/47/47 54/54/54 55/55/55
f 56/56/56 54/54/54 57/57/57
f 56/56/56 55/55/55 54/54/54
f 51/51/51 54/54/54 50/50/50
f 51/51/51 57/57/57 54/54/54
f 47/47/47 55/55/55 58/58/58
f 47/47/47 58/58/58 49/49/49
f 53/53/53 58/58/58 59/59/59
f 53/53/53 49/49/49 58/58/58
f 56/56/56 58/58/58 55/55/55
f 56/56/56 59/59/59 58/58/58
f 53/53/53 60/60/60 52/52/52
f 53/53/53 61/61/61 60/60/60
f 51/51/51 60/60/60 62/62/62
f 51/51/51 52/52/52 60/60/60
f 63/63/63 60/60/60 64/64/64
f 63/63/63 62/62/62 60/60/60
f 65/65/65 60/60/60 61/61/61
f 65/65/65 64/64/64 60/60/60
f 51/51/51 66/66/66 57/57/57
f 51/51/51 62/62/62 66/66/66
f 56/56/56 66/66/66 67/67/67
f 56/56/56 57/57/57 66/66/66
f 68/68/68 66/66/66 69/69/69
f 68/68/68 67/67/67 66/66/66
f 63/63/63 66/66/66 62/62/62
f 63/63/63 69/69/69 66/66/66
f 56/56/56 70/70/70 59/59/59
f 56/56/56 67/67/67 70/70/70
f 53/53/53 70/70/70 61/61/61
f 53/53/53 59/59/59 70/70/70
f 65/65/65 70/70/70 71/71/71
f 65/65/65 61/61/61 70/70/70
f 68/68/68 70/70/70 67/67/67
f 68/68/68 71/71/71 70/70/70
f 65/65/65 72/72/72 64/64/64
f 65/65/65 73/73/73 72/72/72
f 63/63/63 72/72/72 74/74/74
f 63/63/63 64/64/64 72/72/72
f 75/75/75 72/72/72 76/76/76
f 75/75/75 74/74/74 72/72/72
f 77/77/77 72/72/72 73/73/73
f 77/77/77 76/76/76 72/72/72
f 63/63/63 78/78/78 69/69/69
f 63/63/63 74/74/74 78/78/78
f 68/68/68 78/78/78 79/79/79
f 68/68/68 69/69/69 78/78/78
f 80/80/80 78/78/78 81/81/81
f 80/80/80 79/79/79 78/78/78
f 75/75/75 78/78/78 74/74/74
f 75/75/75 81/81/81 78/78/78
f 68/68/68 82/82/82 71/71/71
f 68/68/68 79/79/79 82/82/82
f 65/65/65 82/82/82 73/73/73
f 65/65/65 71/71/71 82/82/82
f 77/77/77 82/82/82 83/83/83
f 77/77/77 73/73/73 82/82/82
f 80/80/80 82/82/82 79/79/79
f 80/80/80 83/83/83 82/82/82
f 77/77/77 84/84/84 76/76/76
f 77/77/77 85/85/85 84/84/84
f 75/75/75 84/84/84 86/86/86
f 75/75/75 76/76/76 84/84/84
f 87/87/87 86/86/86 84/84/84
f 87/87/87 84/84/84 85/85/85
f 75/75/75 88/88/88 81/81/81
f 75/75/75 86/86/86 88/88/88
f 80/80/80 88/88/88 89/89/89
f 80/80/80 81/81/81 88/88/88
f 87/87/87 89/89/89 88/88/88
f 87/87/87 88/88/88 86/86/86
f 80/80/80 90/90/90 83/83/83
f 80/80/80 89/89/89 90/90/90
f 77/77/77 90/90/90 85/85/85
f 77/77/77 83/83/83 90/90/90
f 87/87/87 85/85/85 90/90/90
f 87/87/87 90/90/90 89/89/89
f 91/91/91 93/93/93 92/92/92
f 93/93/93 94/94/94 92/92/92
f 95/95/95 91/91/91 92/92/92
f 94/94/94 96/96/96 92/92/92
f 96/96/96 97/97/97 92/92/92
f 97/97/97 95/95/95 92/92/92
f 93/93/93 91/91/91 98/98/98
f 99/99/99 98/98/98 91/91/91
f 94/94/94 93/93/93 100/100/100
f 98/98/98 100/100/100 93/93/93
f 91/91/91 95/95/95 99/99/99
f 101/101/101 99/99/99 95/95/95
f 96/96/96 94/94/94 102/102/102
f 100/100/100 102/102/102 94/94/94
f 97/97/97 96/96/96 101/101/101
f 102/102/102 101/101/101 96/96/96
f 95/95/95 97/97/97 101/101/101
f 101/101/101 100/100/100 98/98/98
f 98/98/98 99/99/99 103/103/103
f 104/104/104 103/103/103 99/99/99
f 99/99/99 101/101/101 104/104/104
f 105/105/105 104/104/104 101/101/101
f 102/102/102 100/100/100 106/106/106
f 107/107/107 106/106/106 100/100/100
f 101/101/101 102/102/102 108/108/108
f 106/106/106 108/108/108 102/102/102
f 101/101/101 98/98/98 105/105/105
f 103/103/103 105/105/105 98/98/98
f 100/100/100 101/101/101 107/107/107
f 108/108/108 107/107/107 101/101/101
f 108/108/108 106/106/106 109/109/109
f 107/107/107 108/108/108 109/109/109
f 106/106/106 107/107/107 109/109/109
f 105/105/105 103/103/103 110/110/110
f 104/104/104 105/105/105 110/110/110
f 103/103/103 104/104/104 110/110/110
f 111/111/111 113/113/113 112/112/112
f 111/111/111 112/112/112 114/114/114
f 115/115/115 112/112/112 116/116/116
f 115/115/115 114/114/114 112/112/112
f 117/117/117 112/112/112 113/113/113
f 117/117/117 116/116/116 112/112/112
f 111/111/111 114/114/114 118/118/118
f 111/111/111 118/118/118 119/119/119
f 120/120/120 118/118/118 121/121/121
f 120/120/120 119/119/119 118/118/118
f 115/115/115 118/118/118 114/114/114
f 115/115/115 121/121/121 118/118/118
f 111/111/111 119/119/119 122/122/122
f 111/111/111 122/122/122 113/113/113
f 117/117/117 122/122/122 123/123/123
f 117/117/117 113/113/113 122/122/122
f 120/120/120 122/122/122 119/119/119
f 120/120/120 123/123/123 122/122/122
f 117/117/117 124/124/124 116/116/116
f 117/117/117 125/125/125 124/124/124
f 115/115/115 124/124/124 126/126/126
f 115/115/115 116/116/116 124/124/124
f 127/127/127 124/124/124 128/128/128
f 127/127/127 126/126/126 124/124/124
f 129/129/129 124/124/124 125/125/125
f 129/129/129 128/128/128 124/124/124
f 115/115/115 130/130/130 121/121/121
f 115/115/115 126/126/126 130/130/130
f 120/120/120 130/130/130 131/131/131
f 120/120/120 121/121/121 130/130/130
f 132/132/132 130/130/130 133/133/133
f 132/132/132 131/131/131 130/130/130
f 127/127/127 130/130/130 126/126/126
f 127/127/127 133/133/133 130/130/130
f 120/120/120 134/134/134 123/123/123
f 120/120/120 131/131/131 134/134/134
f 117/117/117 134/134/134 125/125/125
f 117/117/117 123/123/123 134/134/134
f 129/129/129 134/134/134 135/135/135
f 129/129/129 125/125/125 134/134/134
f 132/132/132 134/134/134 131/131/131
f 132/132/132 135/135/135 134/134/134
f 129/129/129 136/136/136 128/128/128
f 129/129/129 137/137/137 136/136/136
f 127/127/127 136/136/136 138/138/138
f 127/127/127 128/128/128 136/136/136
f 139/139/139 136/136/136 140/140/140
f 139/139/139 138/138/138 136/136/136
f 141/141/141 136/136/136 137/137/137
f 141/141/141 140/140/140 136/136/136
f 127/127/127 142/142/142 133/133/133
f 127/127/127 138/138/138 142/142/142
f 132/132/132 142/142/142 143/143/143
f 132/132/132 133/133/133 142/142/142
f 144/144/144 142/142/142 145/145/145
f 144/144/144 143/143/143 142/142/142
f 139/139/139 142/142/142 138/138/138
f 139/139/139 145/145/145 142/142/142
f 132/132/132 146/146/146 135/135/135
f 132/132/132 143/143/143 146/146/146
f 129/129/129 146/146/146 137/137/137
f 129/129/129 135/135/135 146/146/146
f 141/141/141 146/146/146 147/147/147
f 141/141/141 137/137/137 146/146/146
f 144/144/144 146/146/146 143/143/143
f 144/144/144 147/147/147 146/146/146
f 141/141/141 148/148/148 140/140/140
f 141/141/141 149/149/149 148/148/148
f 139/139/139 148/148/148 150/150/150
f 139/139/139 140/140/140 148/148/148
f 151/151/151 150/150/150 148/148/148
f 151/151/151 148/148/148 149/149/149
f 139/139/139 152/152/152 145/145/145
f 139/139/139 150/150/150 152/152/152
f 144/144/144 152/152/152 153/153/153
f 144/144/144 145/145/145 152/152/152
f 151/151/151 153/153/153 152/152/152
f 151/151/151 152/152/152 150/150/150
f 144/144/144 154/154/154 147/147/147
f 144/144/144 153/153/153 154/154/154
f 141/141/141 154/154/154 149/149/149
f 141/141/141 147/147/147 154/154/154
f 151/151/151 149/149/149 154/154/154
f 151/151/151 154/154/154 153/153/153
f 1/1/1 155/155/155 3/3/3
f 156/156/156 3/3/3 155/155/155
f 157/157/157 158/158/158 7/7/7
f 8/8/8 159/159/159 157/157/157
f 158/158/158 157/157/157 159/159/159
f 158/158/158 160/160/160 7/7/7
f 11/11/11 7/7/7 160/160/160
f 159/159/159 161/161/161 158/158/158
f 160/160/160 158/158/158 161/161/161
f 160/160/160 162/162/162 11/11/11
f 14/14/14 11/11/11 162/162/162
f 161/161/161 163/163/163 160/160/160
f 162/162/162 160/160/160 163/163/163
f 156/156/156 164/164/164 17/17/17
f 165/165/165 156/156/156 155/155/155
f 164/164/164 166/166/166 17/17/17
f 20/20/20 17/17/17 166/166/166
f 166/166/166 164/164/164 167/167/167
f 155/155/155 168/168/168 165/165/165
f 166/166/166 169/169/169 20/20/20
f 24/24/24 20/20/20 169/169/169
f 167/167/167 170/170/170 166/166/166
f 169/169/169 166/166/166 170/170/170
f 168/168/168 171/171/171 167/167/167
f 170/170/170 167/167/167 171/171/171
f 169/169/169 172/172/172 24/24/24
f 28/28/28 24/24/24 172/172/172
f 170/170/170 163/163/163 169/169/169
f 172/172/172 169/169/169 163/163/163
f 171/171/171 173/173/173 170/170/170
f 163/163/163 170/170/170 173/173/173
f 172/172/172 159/159/159 28/28/28
f 8/8/8 28/28/28 159/159/159
f 163/163/163 161/161/161 172/172/172
f 159/159/159 172/172/172 161/161/161
f 1/1/1 30/30/30 155/155/155
f 30/30/30 174/174/174 155/155/155
f 168/168/168 155/155/155 174/174/174
f 30/30/30 32/32/32 174/174/174
f 175/175/175 174/174/174 32/32/32
f 173/173/173 171/171/171 175/175/175
f 175/175/175 162/162/162 173/173/173
f 163/163/163 173/173/173 162/162/162
f 32/32/32 14/14/14 175/175/175
f 162/162/162 175/175/175 14/14/14
f 176/176/176 164/164/164 177/177/177
f 164/164/164 176/176/176 167/167/167
f 178/178/178 167/167/167 176/176/176
f 168/168/168 179/179/179 165/165/165
f 177/177/177 165/165/165 179/179/179
f 167/167/167 178/178/178 168/168/168
f 179/179/179 168/168/168 178/178/178
f 177/177/177 180/180/180 176/176/176
f 181/181/181 176/176/176 180/180/180
f 176/176/176 181/181/181 178/178/178
f 182/182/182 178/178/178 181/181/181
f 178/178/178 182/182/182 183/183/183
f 183/183/183 179/179/179 178/178/178
f 179/179/179 183/183/183 177/177/177
f 180/180/180 177/177/177 183/183/183
f 180/180/180 184/184/184 181/181/181
f 185/185/185 181/181/181 184/184/184
f 181/181/181 185/185/185 182/182/182
f 186/186/186 182/182/182 185/185/185
f 182/182/182 186/186/186 187/187/187
f 187/187/187 183/183/183 182/182/182
f 183/183/183 187/187/187 180/180/180
f 184/184/184 180/180/180 187/187/187
f 184/184/184 188/188/188 185/185/185
f 185/185/185 188/188/188 186/186/186
f 186/186/186 188/188/188 187/187/187
f 187/187/187 188/188/188 184/184/184
f 174/174/174 175/175/175 171/171/171
f 174/174/174 171/171/171 168/168/168
f 177/177/177 156/156/156 165/165/165
f 156/156/156 177/177/177 164/164/164
f 156/156/156 17/17/17 3/3/3
f 189/189/189 191/191/191 190/190/190
f 189/189/189 192/192/192 191/191/191
f 193/193/193 194/194/194 191/191/191
f 193/193/193 191/191/191 192/192/192
f 195/195/195 190/190/190 191/191/191
f 195/195/195 191/191/191 194/194/194
f 189/189/189 196/196/196 192/192/192
f 189/189/189 197/197/197 196/196/196
f 198/198/198 199/199/199 196/196/196
f 198/198/198 196/196/196 197/197/197
f 193/193/193 192/192/192 196/196/196
f 193/193/193 196/196/196 199/199/199
f 189/189/189 200/200/200 197/197/197
f 189/189/189 190/190/190 200/200/200
f 195/195/195 201/201/201 200/200/200
f 195/195/195 200/200/200 190/190/190
f 198/198/198 197/197/197 200/200/200
f 198/198/198 200/200/200 201/201/201
f 195/195/195 194/194/194 202/202/202
f 195/195/195 202/202/202 203/203/203
f 193/193/193 204/204/204 202/202/202
f 193/193/193 202/202/202 194/194/194
f 205/205/205 206/206/206 202/202/202
f 205/205/205 202/202/202 204/204/204
f 207/207/207 203/203/203 202/202/202
f 207/207/207 202/202/202 206/206/206
f 193/193/193 199/199/199 208/208/208
f 193/193/193 208/208/208 204/204/204
f 198/198/198 209/209/209 208/208/208
f 198/198/198 208/208/208 199/199/199
f 210/210/210 211/211/211 208/208/208
f 210/210/210 208/208/208 209/209/209
f 205/205/205 204/204/204 208/208/208
f 205/205/205 208/208/208 211/211/211
f 198/198/198 201/201/201 212/212/212
f 198/198/198 212/212/212 209/209/209
f 195/195/195 203/203/203 212/212/212
f 195/195/195 212/212/212 201/201/201
f 207/207/207 213/213/213 212/212/212
f 207/207/207 212/212/212 203/203/203
f 210/210/210 209/209/209 212/212/212
f 210/210/210 212/212/212 213/213/213
f 207/207/207 206/206/206 214/214/214
f 207/207/207 214/214/214 215/215/215
f 205/205/205 216/216/216 214/214/214
f 205/205/205 214/214/214 206/206/206
f 217/217/217 218/218/218 214/214/214
f 217/217/217 214/214/214 216/216/216
f 219/219/219 215/215/215 214/214/214
f 219/219/219 214/214/214 218/218/218
f 205/205/205 211/211/211 220/220/220
f 205/205/205 220/220/220 216/216/216
f 210/210/210 221/221/221 220/220/220
f 210/210/210 220/220/220 211/211/211
f 222/222/222 223/223/223 220/220/220
f 222/222/222 220/220/220 221/221/221
f 217/217/217 216/216/216 220/220/220
f 217/217/217 220/220/220 223/223/223
f 210/210/210 213/213/213 224/224/224
f 210/210/210 224/224/224 221/221/221
f 207/207/207 215/215/215 224/224/224
f 207/207/207 224/224/224 213/213/213
f 219/219/219 225/225/225 224/224/224
f 219/219/219 224/224/224 215/215/215
f 222/222/222 221/221/221 224/224/224
f 222/222/222 224/224/224 225/225/225
f 219/219/219 218/218/218 226/226/226
f 219/219/219 226/226/226 227/227/227
f 217/217/217 228/228/228 226/226/226
f 217/217/217 226/226/226 218/218/218
f 229/229/229 226/226/226 228/228/228
f 229/229/229 227/227/227 226/226/226
f 217/217/217 223/223/223 230/230/230
f 217/217/217 230/230/230 228/228/228
f 222/222/222 231/231/231 230/230/230
f 222/222/222 230/230/230 223/223/223
f 229/229/229 230/230/230 231/231/231
f 229/229/229 228/228/228 230/230/230
f 222/222/222 225/225/225 232/232/232
f 222/222/222 232/232/232 231/231/231
f 219/219/219 227/227/227 232/232/232
f 219/219/219 232/232/232 225/225/225
f 229/229/229 232/232/232 227/227/227
f 229/229/229 231/231/231 232/232/232
f 233/233/233 235/235/235 234/234/234
f 234/234/234 235/235/235 236/236/236
f 237/237/237 235/235/235 233/233/233
f 236/236/236 235/235/235 238/238/238
f 238/238/238 235/235/235 239/239/239
f 239/239/239 235/235/235 237/237/237
f 234/234/234 240/240/240 233/233/233
f 241/241/241 233/233/233 240/240/240
f 236/236/236 242/242/242 234/234/234
f 240/240/240 234/234/234 242/242/242
f 233/233/233 241/241/241 237/237/237
f 243/243/243 237/237/237 241/241/241
f 238/238/238 244/244/244 236/236/236
f 242/242/242 236/236/236 244/244/244
f 239/239/239 243/243/243 238/238/238
f 244/244/244 238/238/238 243/243/243
f 237/237/237 243/243/243 239/239/239
f 243/243/243 240/240/240 242/242/242
f 240/240/240 245/245/245 241/241/241
f 246/246/246 241/241/241 245/245/245
f 241/241/241 246/246/246 243/243/243
f 247/247/247 243/243/243 246/246/246
f 244/244/244 248/248/248 242/242/242
f 249/249/249 242/242/242 248/248/248
f 243/243/243 250/250/250 244/244/244
f 248/248/248 244/244/244 250/250/250
f 243/243/243 247/247/247 240/240/240
f 245/245/245 240/240/240 247/247/247
f 242/242/242 249/249/249 243/243/243
f 250/250/250 243/243/243 249/249/249
f 250/250/250 251/251/251 248/248/248
f 249/249/249 251/251/251 250/250/250
f 248/248/248 251/251/251 249/249/249
f 247/247/247 252/252/252 245/245/245
f 246/246/246 252/252/252 247/247/247
f 245/245/245 252/252/252 246/246/246
f 253/253/253 255/255/255 254/254/254
f 253/253/253 256/256/256 255/255/255
f 257/257/257 258/258/258 255/255/255
f 257/257/257 255/255/255 256/256/256
f 259/259/259 254/254/254 255/255/255
f 259/259/259 255/255/255 258/258/258
f 253/253/253 260/260/260 256/256/256
f 253/253/253 261/261/261 260/260/260
f 262/262/262 263/263/263 260/260/260
f 262/262/262 260/260/260 261/261/261
f 257/257/257 256/256/256 260/260/260
f 257/257/257 260/260/260 263/263/263
f 253/253/253 264/264/264 261/261/261
f 253/253/253 254/254/254 264/264/264
f 259/259/259 265/265/265 264/264/264
f 259/259/259 264/264/264 254/254/254
f 262/262/262 261/261/261 264/264/264
f 262/262/262 264/264/264 265/265/265
f 259/259/259 258/258/258 266/266/266
f 259/259/259 266/266/266 267/267/267
f 257/257/257 268/268/268 266/266/266
f 257/257/257 266/266/266 258/258/258
f 269/269/269 270/270/270 266/266/266
f 269/269/269 266/266/266 268/268/268
f 271/271/271 267/267/267 266/266/266
f 271/271/271 266/266/266 270/270/270
f 257/257/257 263/263/263 272/272/272
f 257/257/257 272/272/272 268/268/268
f 262/262/262 273/273/273 272/272/272
f 262/262/262 272/272/272 263/263/263
f 274/274/274 275/275/275 272/272/272
f 274/274/274 272/272/272 273/273/273
f 269/269/269 268/268/268 272/272/272
f 269/269/269 272/272/272 275/275/275
f 262/262/262 265/265/265 276/276/276
f 262/262/262 276/276/276 273/273/273
f 259/259/259 267/267/267 276/276/276
f 259/259/259 276/276/276 265/265/265
f 271/271/271 277/277/277 276/276/276
f 271/271/271 276/276/276 267/267/267
f 274/274/274 273/273/273 276/276/276
f 274/274/274 276/276/276 277/277/277
f 271/271/271 270/270/270 278/278/278
f 271/271/271 278/278/278 279/279/279
f 269/269/269 280/280/280 278/278/278
f 269/269/269 278/278/278 270/270/270
f 281/281/281 282/282/282 278/278/278
f 281/281/281 278/278/278 280/280/280
f 283/283/283 279/279/279 278/278/278
f 283/283/283 278/278/278 282/282/282
f 269/269/269 275/275/275 284/284/284
f 269/269/269 284/284/284 280/280/280
f 274/274/274 285/285/285 284/284/284
f 274/274/274 284/284/284 275/275/275
f 286/286/286 287/287/287 284/284/284
f 286/286/286 284/284/284 285/285/285
f 281/281/281 280/280/280 284/284/284
f 281/281/281 284/284/284 287/287/287
f 274/274/274 277/277/277 288/288/288
f 274/274/274 288/288/288 285/285/285
f 271/271/271 279/279/279 288/288/288
f 271/271/271 288/288/288 277/277/277
f 283/283/283 289/289/289 288/288/288
f 283/283/283 288/288/288 279/279/279
f 286/286/286 285/285/285 288/288/288
f 286/286/286 288/288/288 289/289/289
f 283/283/283 282/282/282 290/290/290
f 283/283/283 290/290/290 291/291/291
f 281/281/281 292/292/292 290/290/290
f 281/281/281 290/290/290 282/282/282
f 293/293/293 290/290/290 292/292/292
f 293/293/293 291/291/291 290/290/290
f 281/281/281 287/287/287 294/294/294
f 281/281/281 294/294/294 292/292/292
f 286/286/286 295/295/295 294/294/294
f 286/286/286 294/294/294 287/287/287
f 293/293/293 294/294/294 295/295/295
f 293/293/293 292/292/292 294/294/294
f 286/286/286 289/289/289 296/296/296
f 286/286/286 296/296/296 295/295/295
f 283/283/283 291/291/291 296/296/296
f 283/283/283 296/296/296 289/289/289
f 293/293/293 296/296/296 291/291/291
f 293/293/293 295/295/295 296/296/296
f 297/297/297 299/299/299 298/298/298
f 299/299/299 300/300/300 298/298/298
f 301/301/301 297/297/297 298/298/298
f 300/300/300 302/302/302 298/298/298
f 302/302/302 303/303/303 298/298/298
f 303/303/303 301/301/301 298/298/298
f 299/299/299 297/297/297 304/304/304
f 305/305/305 304/304/304 297/297/297
f 300/300/300 299/299/299 306/306/306
f 304/304/304 306/306/306 299/299/299
f 297/297/297 301/301/301 305/305/305
f 307/307/307 305/305/305 301/301/301
f 302/302/302 300/300/300 308/308/308
f 306/306/306 308/308/308 300/300/300
f 303/303/303 302/302/302 307/307/307
f 308/308/308 307/307/307 302/302/302
f 301/301/301 303/303/303 307/307/307
f 307/307/307 306/306/306 304/304/304
f 304/304/304 305/305/305 309/309/309
f 310/310/310 309/309/309 305/305/305
f 305/305/305 307/307/307 310/310/310
f 311/311/311 310/310/310 307/307/307
f 308/308/308 306/306/306 312/312/312
f 313/313/313 312/312/312 306/306/306
f 307/307/307 308/308/308 314/314/314
f 312/312/312 314/314/314 308/308/308
f 307/307/307 304/304/304 311/311/311
f 309/309/309 311/311/311 304/304/304
f 306/306/306 307/307/307 313/313/313
f 314/314/314 313/313/313 307/307/307
f 314/314/314 312/312/312 315/315/315
f 313/313/313 314/314/314 315/315/315
f 312/312/312 313/313/313 315/315/315
f 311/311/311 309/309/309 316/316/316
f 310/310/310 311/311/311 316/316/316
f 309/309/309 310/310/310 316/316/316
f 317/317/317 319/319/319 318/318/318
f 318/318/318 319/319/319 320/320/320
f 321/321/321 319/319/319 317/317/317
f 320/320/320 319/319/319 322/322/322
f 322/322/322 319/319/319 323/323/323
f 323/323/323 319/319/319 321/321/321
f 318/318/318 324/324/324 317/317/317
f 325/325/325 317/317/317 324/324/324
f 320/320/320 326/326/326 318/318/318
f 324/324/324 318/318/318 326/326/326
f 317/317/317 325/325/325 321/321/321
f 327/327/327 321/321/321 325/325/325
f 322/322/322 328/328/328 320/320/320
f 326/326/326 320/320/320 328/328/328
f 323/323/323 327/327/327 322/322/322
f 328/328/328 322/322/322 327/327/327
f 321/321/321 327/327/327 323/323/323
f 327/327/327 324/324/324 326/326/326
f 324/324/324 329/329/329 325/325/325
f 330/330/330 325/325/325 329/329/329
f 325/325/325 330/330/330 327/327/327
f 331/331/331 327/327/327 330/330/330
f 328/328/328 332/332/332 326/326/326
f 333/333/333 326/326/326 332/332/332
f 327/327/327 334/334/334 328/328/328
f 332/332/332 328/328/328 334/334/334
f 327/327/327 331/331/331 324/324/324
f 329/329/329 324/324/324 331/331/331
f 326/326/326 333/333/333 327/327/327
f 334/334/334 327/327/327 333/333/333
f 334/334/334 335/335/335 332/332/332
f 333/333/333 335/335/335 334/334/334
f 332/332/332 335/335/335 333/333/333
f 331/331/331 336/336/336 329/329/329
f 330/330/330 336/336/336 331/331/331
f 329/329/329 336/336/336 330/330/330
f 337/337/337 339/339/339 338/338/338
f 340/340/340 339/339/339 337/337/337
f 341/341/341 340/340/340 337/337/337
f 342/342/342 340/340/340 341/341/341
f 343/343/343 342/342/342 341/341/341
f 344/344/344 342/342/342 343/343/343
f 345/345/345 344/344/344 343/343/343
f 346/346/346 344/344/344 345/345/345
f 338/338/338 346/346/346 345/345/345
f 339/339/339 346/346/346 338/338/338
f 339/339/339 340/340/340 342/342/342
f 342/342/342 344/344/344 339/339/339
f 339/339/339 344/344/344 346/346/346
f 347/347/347 349/349/349 348/348/348
f 350/350/350 349/349/349 347/347/347
f 351/351/351 350/350/350 347/347/347
f 352/352/352 350/350/350 351/351/351
f 353/353/353 352/352/352 351/351/351
f 354/354/354 352/352/352 353/353/353
f 355/355/355 354/354/354 353/353/353
f 356/356/356 354/354/354 355/355/355
f 348/348/348 356/356/356 355/355/355
f 349/349/349 356/356/356 348/348/348
f 357/357/357 348/348/348 358/358/358
f 347/347/347 348/348/348 357/357/357
f 359/359/359 351/351/351 357/357/357
f 351/351/351 347/347/347 357/357/357
f 360/360/360 353/353/353 361/361/361
f 355/355/355 353/353/353 360/360/360
f 358/358/358 355/355/355 360/360/360
f 348/348/348 355/355/355 358/358/358
f 362/362/362 358/358/358 363/363/363
f 357/357/357 358/358/358 362/362/362
f 359/359/359 357/357/357 362/362/362
f 363/363/363 360/360/360 364/364/364
f 358/358/358 360/360/360 363/363/363
f 361/361/361 353/353/353 351/351/351
f 361/361/361 351/351/351 359/359/359
f 361/361/361 364/364/364 360/360/360
f 365/365/365 363/363/363 364/364/364
f 365/365/365 362/362/362 363/363/363
f 365/365/365 359/359/359 362/362/362
f 361/361/361 365/365/365 364/364/364
f 359/359/359 365/365/365 361/361/361
f 349/349/349 350/350/350 352/352/352
f 352/352/352 354/354/354 349/349/349
f 349/349/349 354/354/354 356/356/356
f 366/366/366 368/368/368 367/367/367
f 366/366/366 367/367/367 369/369/369
f 370/370/370 367/367/367 371/371/371
f 370/370/370 369/369/369 367/367/367
f 372/372/372 367/367/367 368/368/368
f 372/372/372 371/371/371 367/367/367
f 366/366/366 369/369/369 373/373/373
f 366/366/366 373/373/373 374/374/374
f 375/375/375 373/373/373 376/376/376
f 375/375/375 374/374/374 373/373/373
f 370/370/370 373/373/373 369/369/369
f 370/370/370 376/376/376 373/373/373
f 366/366/366 374/374/374 377/377/377
f 366/366/366 377/377/377 368/368/368
f 372/372/372 377/377/377 378/378/378
f 372/372/372 368/368/368 377/377/377
f 375/375/375 377/377/377 374/374/374
f 375/375/375 378/378/378 377/377/377
f 372/372/372 379/379/379 371/371/371
f 372/372/372 380/380/380 379/379/379
f 370/370/370 379/379/379 381/381/381
f 370/370/370 371/371/371 379/379/379
f 382/382/382 379/379/379 383/383/383
f 382/382/382 381/381/381 379/379/379
f 384/384/384 379/379/379 380/380/380
f 384/384/384 383/383/383 379/379/379
f 370/370/370 385/385/385 376/376/376
f 370/370/370 381/381/381 385/385/385
f 375/375/375 385/385/385 386/386/386
f 375/375/375 376/376/376 385/385/385
f 387/387/387 385/385/385 388/388/388
f 387/387/387 386/386/386 385/385/385
f 382/382/382 385/385/385 381/381/381
f 382/382/382 388/388/388 385/385/385
f 375/375/375 389/389/389 378/378/378
f 375/375/375 386/386/386 389/389/389
f 372/372/372 389/389/389 380/380/380
f 372/372/372 378/378/378 389/389/389
f 384/384/384 389/389/389 390/390/390
f 384/384/384 380/380/380 389/389/389
f 387/387/387 389/389/389 386/386/386
f 387/387/387 390/390/390 389/389/389
f 384/384/384 391/391/391 383/383/383
f 384/384/384 392/392/392 391/391/391
f 382/382/382 391/391/391 393/393/393
f 382/382/382 383/383/383 391/391/391
f 394/394/394 391/391/391 395/395/395
f 394/394/394 393/393/393 391/391/391
f 396/396/396 391/391/391 392/392/392
f 396/396/396 395/395/395 391/391/391
f 382/382/382 397/397/397 388/388/388
f 382/382/382 393/393/393 397/397/397
f 387/387/387 397/397/397 398/398/398
f 387/387/387 388/388/388 397/397/397
f 399/399/399 397/397/397 400/400/400
f 399/399/399 398/398/398 397/397/397
f 394/394/394 397/397/397 393/393/393
f 394/394/394 400/400/400 397/397/397
f 387/387/387 401/401/401 390/390/390
f 387/387/387 398/398/398 401/401/401
f 384/384/384 401/401/401 392/392/392
f 384/384/384 390/390/390 401/401/401
f 396/396/396 401/401/401 402/402/402
f 396/396/396 392/392/392 401/401/401
f 399/399/399 401/401/401 398/398/398
f 399/399/399 402/402/402 401/401/401
f 396/396/396 403/403/403 395/395/395
f 396/396/396 404/404/404 403/403/403
f 394/394/394 403/403/403 405/405/405
f 394/394/394 395/395/395 403/403/403
f 406/406/406 405/405/405 403/403/403
f 406/406/406 403/403/403 404/404/404
f 394/394/394 407/407/407 400/400/400
f 394/394/394 405/405/405 407/407/407
f 399/399/399 407/407/407 408/408/408
f 399/399/399 400/400/400 407/407/407
f 406/406/406 408/408/408 407/407/407
f 406/406/406 407/407/407 405/405/405
f 399/399/399 409/409/409 402/402/402
f 399/399/399 408/408/408 409/409/409
f 396/396/396 409/409/409 404/404/404
f 396/396/396 402/402/402 409/409/409
f 406/406/406 404/404/404 409/409/409
f 406/406/406 409/409/409 408/408/408
f 410/410/410 412/412/412 411/411/411
f 410/410/410 411/411/411 413/413/413
f 410/410/410 413/413/413 414/414/414
f 410/410/410 414/414/414 412/412/412
f 412/412/412 416/416/416 415/415/415
f 412/412/412 415/415/415 411/411/411
f 411/411/411 415/415/415 417/417/417
f 411/411/411 417/417/417 413/413/413
f 413/413/413 417/417/417 418/418/418
f 413/413/413 418/418/418 414/414/414
f 414/414/414 418/418/418 416/416/416
f 414/414/414 416/416/416 412/412/412
f 416/416/416 420/420/420 419/419/419
f 416/416/416 419/419/419 415/415/415
f 415/415/415 419/419/419 421/421/421
f 415/415/415 421/421/421 417/417/417
f 417/417/417 421/421/421 422/422/422
f 417/417/417 422/422/422 418/418/418
f 418/418/418 422/422/422 420/420/420
f 418/418/418 420/420/420 416/416/416
f 420/420/420 424/424/424 423/423/423
f 420/420/420 423/423/423 419/419/419
f 419/419/419 423/423/423 425/425/425
f 419/419/419 425/425/425 421/421/421
f 421/421/421 425/425/425 426/426/426
f 421/421/421 426/426/426 422/422/422
f 422/422/422 426/426/426 424/424/424
f 422/422/422 424/424/424 420/420/420
f 424/424/424 427/427/427 423/423/423
f 423/423/423 427/427/427 425/425/425
f 425/425/425 427/427/427 426/426/426
f 426/426/426 427/427/427 424/424/424
f 428/428/428 430/430/430 429/429/429
f 428/428/428 429/429/429 431/431/431
f 431/431/431 429/429/429 432/432/432
f 431/431/431 432/432/432 433/433/433
f 433/433/433 432/432/432 434/434/434
f 433/433/433 434/434/434 435/435/435
f 435/435/435 434/434/434 430/430/430
f 435/435/435 430/430/430 428/428/428
f 430/430/430 437/437/437 436/436/436
f 430/430/430 436/436/436 429/429/429
f 429/429/429 436/436/436 438/438/438
f 429/429/429 438/438/438 432/432/432
f 432/432/432 438/438/438 439/439/439
f 432/432/432 439/439/439 434/434/434
f 434/434/434 439/439/439 437/437/437
f 434/434/434 437/437/437 430/430/430
f 437/437/437 441/441/441 440/440/440
f 437/437/437 440/440/440 436/436/436
f 436/436/436 440/440/440 442/442/442
f 436/436/436 442/442/442 438/438/438
f 438/438/438 442/442/442 443/443/443
f 438/438/438 443/443/443 439/439/439
f 439/439/439 443/443/443 441/441/441
f 439/439/439 441/441/441 437/437/437
f 441/441/441 444/444/444 440/440/440
f 440/440/440 444/444/444 442/442/442
f 442/442/442 444/444/444 443/443/443
f 443/443/443 444/444/444 441/441/441
f 445/445/445 447/447/447 446/446/446
f 448/448/448 445/445/445 446/446/446
f 449/449/449 445/445/445 448/448/448
f 450/450/450 449/449/449 448/448/448
f 451/451/451 449/449/449 450/450/450
f 452/452/452 451/451/451 450/450/450
f 453/453/453 451/451/451 452/452/452
f 454/454/454 453/453/453 452/452/452
f 447/447/447 453/453/453 454/454/454
f 446/446/446 447/447/447 454/454/454
f 455/455/455 456/456/456 447/447/447
f 445/445/445 455/455/455 447/447/447
f 457/457/457 455/455/455 449/449/449
f 449/449/449 455/455/455 445/445/445
f 458/458/458 459/459/459 451/451/451
f 453/453/453 458/458/458 451/451/451
f 456/456/456 458/458/458 453/453/453
f 447/447/447 456/456/456 453/453/453
f 460/460/460 461/461/461 456/456/456
f 455/455/455 460/460/460 456/456/456
f 457/457/457 460/460/460 455/455/455
f 461/461/461 462/462/462 458/458/458
f 456/456/456 461/461/461 458/458/458
f 459/459/459 449/449/449 451/451/451
f 459/459/459 457/457/457 449/449/449
f 459/459/459 458/458/458 462/462/462
f 463/463/463 462/462/462 461/461/461
f 463/463/463 461/461/461 460/460/460
f 463/463/463 460/460/460 457/457/457
f 459/459/459 462/462/462 463/463/463
f 457/457/457 459/459/459 463/463/463
f 446/446/446 450/450/450 448/448/448
f 450/450/450 446/446/446 452/452/452
f 446/446/446 454/454/454 452/452/452
f 464/464/464 466/466/466 465/465/465
f 464/464/464 467/467/467 466/466/466
f 468/468/468 469/469/469 466/466/466
f 468/468/468 466/466/466 467/467/467
f 470/470/470 465/465/465 466/466/466
f 470/470/470 466/466/466 469/469/469
f 464/464/464 471/471/471 467/467/467
f 464/464/464 472/472/472 471/471/471
f 473/473/473 474/474/474 471/471/471
f 473/473/473 471/471/471 472/472/472
f 468/468/468 467/467/467 471/471/471
f 468/468/468 471/471/471 474/474/474
f 464/464/464 475/475/475 472/472/472
f 464/464/464 465/465/465 475/475/475
f 470/470/470 476/476/476 475/475/475
f 470/470/470 475/475/475 465/465/465
f 473/473/473 472/472/472 475/475/475
f 473/473/473 475/475/475 476/476/476
f 470/470/470 469/469/469 477/477/477
f 470/470/470 477/477/477 478/478/478
f 468/468/468 479/479/479 477/477/477
f 468/468/468 477/477/477 469/469/469
f 480/480/480 481/481/481 477/477/477
f 480/480/480 477/477/477 479/479/479
f 482/482/482 478/478/478 477/477/477
f 482/482/482 477/477/477 481/481/481
f 468/468/468 474/474/474 483/483/483
f 468/468/468 483/483/483 479/479/479
f 473/473/473 484/484/484 483/483/483
f 473/473/473 483/483/483 474/474/474
f 485/485/485 486/486/486 483/483/483
f 485/485/485 483/483/483 484/484/484
f 480/480/480 479/479/479 483/483/483
f 480/480/480 483/483/483 486/486/486
f 473/473/473 476/476/476 487/487/487
f 473/473/473 487/487/487 484/484/484
f 470/470/470 478/478/478 487/487/487
f 470/470/470 487/487/487 476/476/476
f 482/482/482 488/488/488 487/487/487
f 482/482/482 487/487/487 478/478/478
f 485/485/485 484/484/484 487/487/487
f 485/485/485 487/487/487 488/488/488
f 482/482/482 481/481/481 489/489/489
f 482/482/482 489/489/489 490/490/490
f 480/480/480 491/491/491 489/489/489
f 480/480/480 489/489/489 481/481/481
f 492/492/492 493/493/493 489/489/489
f 492/492/492 489/489/489 491/491/491
f 494/494/494 490/490/490 489/489/489
f 494/494/494 489/489/489 493/493/493
f 480/480/480 486/486/486 495/495/495
f 480/480/480 495/495/495 491/491/491
f 485/485/485 496/496/496 495/495/495
f 485/485/485 495/495/495 486/486/486
f 497/497/497 498/498/498 495/495/495
f 497/497/497 495/495/495 496/496/496
f 492/492/492 491/491/491 495/495/495
f 492/492/492 495/495/495 498/498/498
f 485/485/485 488/488/488 499/499/499
f 485/485/485 499/499/499 496/496/496
f 482/482/482 490/490/490 499/499/499
f 482/482/482 499/499/499 488/488/488
f 494/494/494 500/500/500 499/499/499
f 494/494/494 499/499/499 490/490/490
f 497/497/497 496/496/496 499/499/499
f 497/497/497 499/499/499 500/500/500
f 494/494/494 493/493/493 501/501/501
f 494/494/494 501/501/501 502/502/502
f 492/492/492 503/503/503 501/501/501
f 492/492/492 501/501/501 493/493/493
f 504/504/504 501/501/501 503/503/503
f 504/504/504 502/502/502 501/501/501
f 492/492/492 498/498/498 505/505/505
f 492/492/492 505/505/505 503/503/503
f 497/497/497 506/506/506 505/505/505
f 497/497/497 505/505/505 498/498/498
f 504/504/504 505/505/505 506/506/506
f 504/504/504 503/503/503 505/505/505
f 497/497/497 500/500/500 507/507/507
f 497/497/497 507/507/507 506/506/506
f 494/494/494 502/502/502 507/507/507
f 494/494/494 507/507/507 500/500/500
f 504/504/504 507/507/507 502/502/502
f 504/504/504 506/506/506 507/507/507
f 508/508/508 510/510/510 509/509/509
f 508/508/508 509/509/509 511/511/511
f 511/511/511 509/509/509 512/512/512
f 511/511/511 512/512/512 513/513/513
f 513/513/513 512/512/512 514/514/514
f 513/513/513 514/514/514 515/515/515
f 515/515/515 514/514/514 510/510/510
f 515/515/515 510/510/510 508/508/508
f 510/510/510 517/517/517 516/516/516
f 510/510/510 516/516/516 509/509/509
f 509/509/509 516/516/516 518/518/518
f 509/509/509 518/518/518 512/512/512
f 512/512/512 518/518/518 519/519/519
f 512/512/512 519/519/519 514/514/514
f 514/514/514 519/519/519 517/517/517
f 514/514/514 517/517/517 510/510/510
f 517/517/517 521/521/521 520/520/520
f 517/517/517 520/520/520 516/516/516
f 516/516/516 520/520/520 522/522/522
f 516/516/516 522/522/522 518/518/518
f 518/518/518 522/522/522 523/523/523
f 518/518/518 523/523/523 519/519/519
f 519/519/519 523/523/523 521/521/521
f 519/519/519 521/521/521 517/517/517
f 521/521/521 524/524/524 520/520/520
f 520/520/520 524/524/524 522/522/522
f 522/522/522 524/524/524 523/523/523
f 523/523/523 524/524/524 521/521/521
f 525/525/525 527/527/527 526/526/526
f 525/525/525 526/526/526 528/528/528
f 528/528/528 526/526/526 529/529/529
f 528/528/528 529/529/529 530/530/530
f 530/530/530 529/529/529 531/531/531
f 530/530/530 531/531/531 532/532/532
f 532/532/532 531/531/531 527/527/527
f 532/532/532 527/527/527 525/525/525
f 527/527/527 534/534/534 533/533/533
f 527/527/527 533/533/533 526/526/526
f 526/526/526 533/533/533 535/535/535
f 526/526/526 535/535/535 529/529/529
f 529/529/529 535/535/535 536/536/536
f 529/529/529 536/536/536 531/531/531
f 531/531/531 536/536/536 534/534/534
f 531/531/531 534/534/534 527/527/527
f 534/534/534 538/538/538 537/537/537
f 534/534/534 537/537/537 533/533/533
f 533/533/533 537/537/537 539/539/539
f 533/533/533 539/539/539 535/535/535
f 535/535/535 539/539/539 540/540/540
f 535/535/535 540/540/540 536/536/536
f 536/536/536 540/540/540 538/538/538
f 536/536/536 538/538/538 534/534/534
f 538/538/538 541/541/541 537/537/537
f 537/537/537 541/541/541 539/539/539
f 539/539/539 541/541/541 540/540/540
f 540/540/540 541/541/541 538/538/538
f 542/542/542 544/544/544 543/543/543
f 542/542/542 545/545/545 544/544/544
f 545/545/545 546/546/546 544/544/544
f 545/545/545 547/547/547 546/546/546
f 547/547/547 548/548/548 546/546/546
f 547/547/547 549/549/549 548/548/548
f 549/549/549 543/543/543 548/548/548
f 549/549/549 542/542/542 543/543/543
f 543/543/543 551/551/551 550/550/550
f 543/543/543 544/544/544 551/551/551
f 544/544/544 552/552/552 551/551/551
f 544/544/544 546/546/546 552/552/552
f 546/546/546 553/553/553 552/552/552
f 546/546/546 548/548/548 553/553/553
f 548/548/548 550/550/550 553/553/553
f 548/548/548 543/543/543 550/550/550
f 550/550/550 555/555/555 554/554/554
f 550/550/550 551/551/551 555/555/555
f 551/551/551 556/556/556 555/555/555
f 551/551/551 552/552/552 556/556/556
f 552/552/552 557/557/557 556/556/556
f 552/552/552 553/553/553 557/557/557
f 553/553/553 554/554/554 557/557/557
f 553/553/553 550/550/550 554/554/554
f 554/554/554 555/555/555 558/558/558
f 555/555/555 556/556/556 558/558/558
f 556/556/556 557/557/557 558/558/558
f 557/557/557 554/554/554 558/558/558
f 559/559/559 561/561/561 560/560/560
f 559/559/559 562/562/562 561/561/561
f 562/562/562 563/563/563 561/561/561
f 562/562/562 564/564/564 563/563/563
f 564/564/564 565/565/565 563/563/563
f 564/564/564 566/566/566 565/565/565
f 566/566/566 560/560/560 565/565/565
f 566/566/566 559/559/559 560/560/560
f 560/560/560 568/568/568 567/567/567
f 560/560/560 561/561/561 568/568/568
f 561/561/561 569/569/569 568/568/568
f 561/561/561 563/563/563 569/569/569
f 563/563/563 570/570/570 569/569/569
f 563/563/563 565/565/565 570/570/570
f 565/565/565 567/567/567 570/570/570
f 565/565/565 560/560/560 567/567/567
f 567/567/567 572/572/572 571/571/571
f 567/567/567 568/568/568 572/572/572
f 568/568/568 573/573/573 572/572/572
f 568/568/568 569/569/569 573/573/573
f 569/569/569 574/574/574 573/573/573
f 569/569/569 570/570/570 574/574/574
f 570/570/570 571/571/571 574/574/574
f 570/570/570 567/567/567 571/571/571
f 571/571/571 572/572/572 575/575/575
f 572/572/572 573/573/573 575/575/575
f 573/573/573 574/574/574 575/575/575
f 574/574/574 571/571/571 575/575/575
f 576/576/576 578/578/578 577/577/577
f 576/576/576 579/579/579 578/578/578
f 579/579/579 580/580/580 578/578/578
f 579/579/579 581/581/581 580/580/580
f 581/581/581 582/582/582 580/580/580
f 581/581/581 583/583/583 582/582/582
f 583/583/583 577/577/577 582/582/582
f 583/583/583 576/576/576 577/577/577
f 577/577/577 585/585/585 584/584/584
f 577/577/577 578/578/578 585/585/585
f 578/578/578 586/586/586 585/585/585
f 578/578/578 580/580/580 586/586/586
f 580/580/580 587/587/587 586/586/586
f 580/580/580 582/582/582 587/587/587
f 582/582/582 584/584/584 587/587/587
f 582/582/582 577/577/577 584/584/584
f 584/584/584 589/589/589 588/588/588
f 584/584/584 585/585/585 589/589/589
f 585/585/585 590/590/590 589/589/589
f 585/585/585 586/586/586 590/590/590
f 586/586/586 591/591/591 590/590/590
f 586/586/586 587/587/587 591/591/591
f 587/587/587 588/588/588 591/591/591
f 587/587/587 584/584/584 588/588/588
f 588/588/588 589/589/589 592/592/592
f 589/589/589 590/590/590 592/592/592
f 590/590/590 591/591/591 592/592/592
f 591/591/591 588/588/588 592/592/592
f 593/593/593 595/595/595 594/594/594
f 596/596/596 595/595/595 593/593/593
f 597/597/597 596/596/596 593/593/593
f 598/598/598 596/596/596 597/597/597
f 599/599/599 598/598/598 597/597/597
f 600/600/600 598/598/598 599/599/599
f 601/601/601 600/600/600 599/599/599
f 602/602/602 600/600/600 601/601/601
f 594/594/594 602/602/602 601/601/601
f 595/595/595 602/602/602 594/594/594
f 595/595/595 596/596/596 598/598/598
f 598/598/598 600/600/600 595/595/595
f 595/595/595 600/600/600 602/602/602
f 603/603/603 605/605/605 604/604/604
f 606/606/606 603/603/603 604/604/604
f 607/607/607 603/603/603 606/606/606
f 608/608/608 607/607/607 606/606/606
f 609/609/609 607/607/607 608/608/608
f 610/610/610 609/609/609 608/608/608
f 611/611/611 609/609/609 610/610/610
f 612/612/612 611/611/611 610/610/610
f 605/605/605 611/611/611 612/612/612
f 604/604/604 605/605/605 612/612/612
f 604/604/604 608/608/608 606/606/606
f 608/608/608 604/604/604 610/610/610
f 604/604/604 612/612/612 610/610/610
