# Monster12.bmd — MU geometry at action 0 key 0, exported for MU2
# 2 mesh(es)

g boss
# texture: boss.jpg
v -2.283852 175.1992 9.782659
v 0.535547 177.8217 7.085753
v -2.28385 181.8254 6.545072
v 0.458448 174.9374 7.417251
v 6.472352 175.5826 2.189727
v 5.967952 181.8206 -7.313627
v 5.967952 181.8238 1.925573
v -2.283749 185.2509 -2.695213
v -2.283749 183.8618 -13.80304
v 7.983453 153.6097 3.016613
v 7.983456 153.6057 -8.538488
v -4.76827 152.2525 -20.38601
v 6.472352 175.5826 2.189727
v -2.283848 175.376 0.664995
v -0.730469 149.7544 1.184883
v 7.983453 153.6097 3.016613
v 0.25081 149.8041 6.830102
v 14.688 156.3479 4.148944
v 12.81703 160.5601 -10.95546
v 2.444586 138.5812 14.18735
v 10.32036 147.7485 13.89312
v 25.90658 154.8774 2.438479
v 26.9434 163.0778 -12.44305
v 13.98443 131.9293 17.26804
v 19.20088 140.9521 15.46074
v 25.58791 152.7558 10.84521
v 33.28017 149.0716 7.814156
v 29.48294 155.738 -18.72608
v 17.66725 124.9552 4.827847
v 26.27909 139.0815 11.3143
v 14.34098 139.2202 -8.467216
v 2.834059 126.7054 11.12292
v -3.664582 149.2145 -15.41821
v 12.81703 160.5601 -10.95546
v 10.76146 155.7566 -18.16329
v 11.5465 140.0468 -27.92523
v 26.9434 163.0778 -12.44305
v 19.01788 152.0139 -26.37856
v 29.48294 155.738 -18.72608
v 28.64102 149.0971 -21.13345
v 19.63114 138.3278 -26.35221
v 13.84622 124.3562 -16.89464
v 14.34098 139.2202 -8.467216
v -6.591051 140.6858 -35.62434
v -4.646493 125.6151 -31.3687
v -3.664582 149.2145 -15.41821
v 3.43675 115.0637 9.359365
v 12.80583 118.5192 2.027558
v 9.90484 118.0823 -14.45663
v -0.624438 114.7824 -13.5719
v 9.708278 106.043 -12.56129
v -0.193235 103.3947 -12.55595
v 16.8779 120.2232 -6.267982
v 21.07092 124.1509 -8.330366
v 21.07092 124.1509 -8.330366
v 16.8779 120.2232 -6.267982
v 15.61955 104.4002 -2.673495
v 11.32053 107.8998 7.108339
v 15.61955 104.4002 -2.673495
v 0.892124 96.49014 11.35748
v 28.75447 141.887 -27.82172
v 38.88411 140.1612 -20.96946
v 48.19048 127.2211 -13.63214
v 28.75447 141.887 -27.82172
v 22.23164 158.0347 -31.13404
v 35.48895 154.9968 -29.32393
v 42.4926 148.2686 -25.49175
v 38.88411 140.1612 -20.96946
v 46.18175 143.4692 -8.7577
v 49.75958 137.3044 -5.268914
v 26.51506 171.5176 -24.65765
v 38.20854 165.3811 -21.12049
v 49.06095 154.8146 -15.1034
v 46.18175 143.4692 -8.7577
v 38.71543 152.1214 0.337391
v 48.0218 139.1812 7.674623
v 22.06296 169.9948 -9.827276
v 35.32017 166.9569 -8.017073
v 42.32383 160.2287 -4.184902
v 38.71543 152.1214 0.337391
v 28.51591 158.8011 2.310497
v 28.51591 158.8011 2.310497
v 48.19048 127.2211 -13.63214
v 26.51506 171.5176 -24.65765
v 22.23164 158.0347 -31.13404
v 28.75447 141.887 -27.82172
v 48.0218 139.1812 7.674623
v 28.51591 158.8011 2.310497
v 49.75958 137.3044 -5.268914
v 28.58916 14.35407 -23.44842
v 21.40865 26.46468 -16.99522
v 21.41129 14.68673 -25.34949
v 30.14665 38.0063 -6.565464
v 20.1274 38.0566 -6.362009
v 18.8686 48.3997 2.845053
v 32.33993 46.25117 4.007486
v 17.95964 55.67668 4.065543
v 29.16268 59.60059 4.795299
v 13.18107 71.45024 4.222466
v 23.06308 85.68239 9.715102
v 19.62921 15.39838 -28.08567
v 22.11878 30.82653 -25.75255
v 23.22028 16.27031 -31.9956
v 15.03979 43.67652 -12.71562
v 20.8806 50.85917 -20.14545
v 22.57783 56.27251 -12.40138
v 15.20991 54.47742 -5.804452
v 16.43372 76.47547 -13.89798
v 11.46946 68.96532 -8.855603
v 31.44095 29.30277 -20.51757
v 31.34284 16.73778 -29.18358
v 35.70383 41.80182 -13.18908
v 39.48314 54.21862 -5.607546
v 34.99606 59.71712 -2.550765
v 29.99098 74.15234 -2.252261
v 31.71999 90.79002 -5.248401
v 23.06308 85.68239 9.715102
v 21.27197 105.4056 -1.974645
v 17.68818 95.53221 7.418222
v 31.71999 90.79002 -5.248401
v 29.56237 17.30024 -31.92269
v 30.43037 47.28404 -19.41628
v 32.47596 58.36046 -12.62278
v 26.22766 72.01578 -12.31157
v 11.25699 87.02728 -19.24758
v 23.31815 88.87836 -14.56439
v 23.31815 88.87836 -14.56439
v 13.00482 96.78036 -19.55003
v 20.88973 97.71938 -13.19348
v 11.25699 87.02728 -19.24758
v 22.7652 -0.550659 -35.91233
v 33.67881 -0.549648 -33.14922
v 16.422 -0.549427 -30.20317
v 31.71999 90.79002 -5.248401
v 21.27197 105.4056 -1.974645
v 25.01314 8.214869 -12.78658
v 35.47209 -0.53918 -1.384491
v 32.22183 7.927063 -9.960415
v 25.7477 -0.540627 -1.582081
v 39.18431 -0.541418 -9.695988
v 36.44067 6.582201 -15.78503
v 28.51331 133.1714 52.09866
v 33.9921 120.5604 51.67437
v 31.94523 132.7268 56.19096
v 36.29881 123.3695 55.74792
v 21.07742 155.2969 -3.376855
v 17.45784 152.1817 2.858877
v 28.61435 140.5621 4.534254
v 25.58506 156.442 -13.08086
v 35.51715 145.5741 -7.569404
v 21.3656 144.4487 -22.17729
v 32.17307 132.1095 -10.92822
v 20.09497 136.354 -0.953126
v 25.42346 128.9981 2.864983
v 17.74766 138.6797 -21.10376
v 28.8033 128.9819 -9.534042
v 36.64182 129.097 7.847685
v 40.48982 128.3846 1.08449
v 37.61839 123.1783 -4.392987
v 31.8975 123.2553 4.07053
v 34.30509 121.0808 -3.499269
v 35.22792 136.5769 15.42739
v 46.61718 131.2307 11.31365
v 45.52484 120.1134 14.71342
v 31.98128 124.2416 19.38419
v 39.76019 116.3904 17.33039
v 39.78691 136.0151 36.82137
v 46.58628 133.6252 35.74574
v 46.16886 127.1314 37.44703
v 38.9034 128.9137 38.68582
v 44.07364 125.054 38.27388
v 40.58139 138.3048 41.75991
v 46.70459 137.1994 41.2774
v 49.73972 128.9913 44.19571
v 44.19992 125.0418 46.55251
v 41.78917 140.0092 52.53309
v 47.74123 140.3769 49.76927
v 50.59846 130.3516 51.62795
v 46.76173 127.2944 54.21807
v 40.46235 136.9257 53.67044
v 44.23935 127.1801 52.82109
v 33.72296 139.9777 54.20667
v 32.80134 136.7674 55.10905
v 35.65565 139.7742 55.16677
v 34.76884 133.54 44.35268
v 36.25042 139.1196 45.64622
v 38.05898 138.067 48.70563
v -19.13237 158.0441 -5.26603
v -15.04465 154.0065 9.443531
v -6.347734 146.436 16.86126
v -33.11917 158.3482 -1.747424
v -25.80757 150.8052 11.64748
v -13.01041 138.4156 21.1968
v -6.185678 130.341 20.85989
v -22.30559 148.9845 19.37385
v -37.1952 151.5708 -1.91526
v -29.91694 144.0951 19.06796
v -20.71039 135.3813 19.68196
v -12.80993 122.5553 10.25501
v -16.45314 136.7953 -2.983612
v -18.97129 153.4152 -12.86868
v -19.13237 158.0441 -5.26603
v -20.6649 137.5103 -22.18924
v -28.8756 148.2424 -17.84992
v -33.11917 158.3482 -1.747424
v -35.55346 144.0421 -9.702042
v -37.1952 151.5708 -1.91526
v -16.63084 121.9563 -11.4674
v -27.35832 134.6275 -17.98455
v -16.45314 136.7953 -2.983612
v -8.287952 116.8582 5.783792
v -11.18894 116.4213 -10.70039
v -9.884385 106.043 -10.84715
v -15.16762 117.6997 -0.561537
v -20.35796 120.8884 -0.952892
v -20.35796 120.8884 -0.952892
v -15.16762 117.6997 -0.561537
v -13.98895 104.4002 -0.08309
v -13.98895 104.4002 -0.08309
v -8.071695 107.8998 8.804937
v -36.30765 147.6466 -12.98011
v -51.50014 124.47 -7.858527
v -44.60252 140.589 -7.155322
v -36.30765 147.6466 -12.98011
v -43.77217 157.8221 -5.220207
v -31.38004 163.5041 -6.773376
v -49.46476 149.0701 -5.249922
v -44.60252 140.589 -7.155322
v -51.63443 127.3475 5.017113
v -49.18103 134.8802 5.484942
v -45.07591 160.8404 7.883796
v -34.72179 169.7322 7.087588
v -53.87339 147.1206 7.814384
v -49.18103 134.8802 5.484942
v -47.1833 121.5812 16.0177
v -40.28568 137.7001 16.7209
v -39.45535 154.9333 18.65592
v -27.0632 160.6153 17.10285
v -45.14784 146.1812 18.62617
v -40.28568 137.7001 16.7209
v -30.20269 143.5612 20.78588
v -30.20269 143.5612 20.78588
v -51.50014 124.47 -7.858527
v -31.38004 163.5041 -6.773376
v -34.72179 169.7322 7.087588
v -36.30765 147.6466 -12.98011
v -47.1833 121.5812 16.0177
v -30.20269 143.5612 20.78588
v -27.0632 160.6153 17.10285
v -51.63443 127.3475 5.017113
v -19.24513 15.83991 16.40915
v -12.5928 16.32937 13.12987
v -13.04545 29.95554 17.88761
v -21.66235 43.07719 26.36782
v -11.86151 44.19098 24.598
v -10.73662 56.82341 30.29807
v -23.37251 53.75912 34.58652
v -10.39955 63.84446 27.43447
v -21.56838 67.77953 28.53599
v -7.406287 77.1032 18.11188
v -17.41498 92.25606 17.34145
v -11.395 16.39626 10.01051
v -15.65023 15.73682 6.785372
v -15.78502 31.50917 8.597685
v -8.752938 48.21917 16.11589
v -16.71428 52.32605 8.327662
v -18.33657 55.55881 14.73834
v -9.622504 57.45069 19.37644
v -14.82825 71.62428 1.406382
v -8.160096 67.91847 8.35422
v -23.82135 30.63248 15.75859
v -23.20079 16.1772 10.896
v -28.70766 44.22029 20.18587
v -33.06956 57.85149 24.7797
v -28.76379 64.03795 23.82094
v -25.3779 76.24184 15.27013
v -29.45518 88.66512 4.4158
v -17.41498 92.25606 17.34145
v -14.25869 95.5321 10.21322
v -19.4191 105.4056 1.585358
v -29.45518 88.66512 4.4158
v -21.9825 16.10089 7.813919
v -25.37691 48.17255 11.82356
v -28.23474 57.40753 15.73413
v -23.55337 68.93535 7.32005
v -22.98952 81.85027 -4.115726
v -12.0193 77.50826 -9.740235
v -22.98952 81.85027 -4.115726
v -20.9907 97.71936 -9.529423
v -14.32927 96.78035 -17.15861
v -12.0193 77.50826 -9.740235
v -15.12897 -0.391131 4.147099
v -7.890756 -0.389786 8.668056
v -25.39698 -0.390149 8.76345
v -29.45518 88.66512 4.4158
v -19.4191 105.4056 1.585358
v -13.32717 8.37438 27.31187
v -19.9357 8.086554 31.34695
v -21.64737 -0.3797 40.35689
v -12.10503 -0.38112 38.47369
v -25.10177 6.741683 26.34342
v -26.74647 -0.381947 32.81627
v -24.09196 82.62419 36.81446
v -26.71503 78.44151 38.89957
v -28.74598 74.93179 26.40284
v -30.47412 72.78542 31.11575
v -24.04752 145.3325 13.1092
v -29.01636 127.7472 11.50538
v -19.01601 139.8229 15.56265
v -30.61933 151.1504 6.883399
v -38.61749 137.6392 6.098889
v -27.9794 147.6238 -8.11609
v -35.50826 129.451 -5.172443
v -25.76857 120.0591 2.728096
v -21.73305 129.0226 3.398202
v -31.78176 126.7134 -6.476179
v -23.9663 143.0145 -11.30577
v -35.61425 115.3608 8.356631
v -40.81725 118.0968 3.208969
v -38.9931 117.631 -4.652876
v -31.5641 113.7106 1.161307
v -35.4763 115.9948 -5.71646
v -34.74942 112.0478 18.78904
v -46.05029 110.7794 12.01408
v -43.80254 101.6395 5.103626
v -30.21814 102.0086 11.23656
v -37.54845 98.06063 3.683311
v -37.15796 94.08687 31.05279
v -43.83115 92.70138 28.4738
v -42.7646 87.56258 24.26742
v -35.56772 88.51639 26.45626
v -40.44917 85.93361 23.09516
v -37.63953 91.40019 35.82909
v -43.10233 90.33846 34.35332
v -45.79393 82.83762 29.76773
v -39.77115 79.30516 28.00988
v -37.92186 83.66182 43.6049
v -43.54624 85.31075 41.95657
v -46.61013 77.64904 35.56612
v -41.7396 74.20404 34.37397
v -35.88945 81.7798 40.95593
v -39.03189 75.84456 32.9986
v -29.75193 83.2963 44.59661
v -31.5617 82.17317 44.99911
v -28.5089 80.79469 42.55559
v -31.26213 87.23161 33.55708
v -33.02573 89.31063 38.80749
v -34.44515 86.02673 39.7767
v 6.779352 152.3054 -41.26783
v 35.4296 140.0257 -35.11711
v 2.786274 134.2358 -25.66024
v 31.68201 151.2681 -44.17445
v 47.77665 147.8551 -42.48294
v 44.13375 156.0665 -48.84808
v 53.78102 156.7538 -49.27444
v 56.17027 169.7434 -57.93329
v 50.02842 168.7023 -57.33085
v 50.30256 178.6804 -62.4122
v 46.75722 179.1506 -62.84499
v 52.10305 188.2859 -68.82185
v 7.889168 155.8601 -35.62902
v 35.4296 140.0257 -35.11711
v 32.4242 153.6454 -40.40334
v 2.786274 134.2358 -25.66024
v 47.77665 147.8551 -42.48294
v 44.65606 157.7395 -46.19407
v 53.78102 156.7538 -49.27444
v 56.17027 169.7434 -57.93329
v 50.37451 169.8109 -55.57223
v 50.30256 178.6804 -62.4122
v 46.98589 179.8829 -61.68325
v 52.10305 188.2859 -68.82185
v 6.779352 152.3054 -41.26783
v 32.4242 153.6454 -40.40334
v 31.68201 151.2681 -44.17445
v 7.889168 155.8601 -35.62902
v 44.65606 157.7395 -46.19407
v 44.13375 156.0665 -48.84808
v 50.37451 169.8109 -55.57223
v 50.02842 168.7023 -57.33085
v 46.98589 179.8829 -61.68325
v 46.75722 179.1506 -62.84499
v 52.10305 188.2859 -68.82185
v 9.537182 114.1033 -37.31504
v 14.67488 133.4065 -23.03851
v -2.108896 126.5353 -28.03358
v 21.78089 123.5169 -30.50611
v 27.3743 133.8308 -24.02295
v 41.79425 128.6603 -30.91807
v 37.66917 122.3847 -34.5962
v 46.86382 118.2814 -42.09261
v 45.61739 113.9462 -44.88128
v 50.54543 101.5502 -60.31821
v 8.625341 118.9504 -42.0189
v 14.67488 133.4065 -23.03851
v 21.1392 126.928 -33.81644
v -2.108896 126.5353 -28.03358
v 27.3743 133.8308 -24.02295
v 41.79425 128.6603 -30.91807
v 37.24392 124.6449 -36.78973
v 46.86382 118.2814 -42.09261
v 45.33653 115.4393 -46.3303
v 50.54543 101.5502 -60.31821
v 9.537182 114.1033 -37.31504
v 21.1392 126.928 -33.81644
v 21.78089 123.5169 -30.50611
v 8.625341 118.9504 -42.0189
v 37.24392 124.6449 -36.78973
v 37.66917 122.3847 -34.5962
v 45.33653 115.4393 -46.3303
v 45.61739 113.9462 -44.88128
v 50.54543 101.5502 -60.31821
v -2.108896 126.5353 -28.03358
v 8.625341 118.9504 -42.0189
v 9.537182 114.1033 -37.31504
v -22.60603 149.9915 -36.03508
v -10.80745 133.1654 -23.23957
v -45.18955 133.6774 -20.76091
v -46.52955 145.1094 -30.24698
v -60.35023 139.3406 -23.22836
v -60.40333 147.8346 -30.23264
v -69.59656 147.0383 -27.30411
v -76.75336 159.2762 -34.26306
v -70.69537 159.1958 -35.83298
v -74.20725 168.8758 -40.24014
v -71.14066 169.8667 -41.85034
v -79.53303 177.9202 -45.3808
v -22.23935 153.4875 -30.26395
v -46.28421 147.4474 -26.38737
v -45.18955 133.6774 -20.76091
v -10.80745 133.1654 -23.23957
v -60.23077 149.4801 -27.51646
v -60.35023 139.3406 -23.22836
v -69.59656 147.0383 -27.30411
v -70.58105 160.2862 -34.03319
v -76.75336 159.2762 -34.26306
v -71.06511 170.587 -40.66133
v -74.20725 168.8758 -40.24014
v -79.53303 177.9202 -45.3808
v -22.60603 149.9915 -36.03508
v -46.52955 145.1094 -30.24698
v -46.28421 147.4474 -26.38737
v -22.23935 153.4875 -30.26395
v -60.40333 147.8346 -30.23264
v -60.23077 149.4801 -27.51646
v -70.69537 159.1958 -35.83298
v -70.58105 160.2862 -34.03319
v -71.14066 169.8667 -41.85034
v -71.06511 170.587 -40.66133
v -79.53303 177.9202 -45.3808
v -18.00952 111.9342 -32.40972
v -5.915807 126.2355 -27.35567
v -20.80209 130.6129 -16.72091
v -28.4508 119.5615 -21.5611
v -32.97607 129.0785 -13.27608
v -47.92392 121.5954 -14.94157
v -44.41005 115.9213 -19.98
v -54.88269 110.2693 -23.9742
v -54.02638 106.0998 -27.13721
v -62.01037 92.68687 -40.27496
v -19.51374 116.7345 -37.00808
v -29.50936 122.9397 -24.79719
v -20.80209 130.6129 -16.72091
v -5.915807 126.2355 -27.35567
v -32.97607 129.0785 -13.27608
v -45.11152 118.1599 -22.12435
v -47.92392 121.5954 -14.94157
v -54.48972 107.5785 -28.55372
v -54.88269 110.2693 -23.9742
v -62.01037 92.68687 -40.27496
v -18.00952 111.9342 -32.40972
v -28.4508 119.5615 -21.5611
v -29.50936 122.9397 -24.79719
v -19.51374 116.7345 -37.00808
v -44.41005 115.9213 -19.98
v -45.11152 118.1599 -22.12435
v -54.02638 106.0998 -27.13721
v -54.48972 107.5785 -28.55372
v -62.01037 92.68687 -40.27496
v -5.915807 126.2355 -27.35567
v -18.00952 111.9342 -32.40972
v -19.51374 116.7345 -37.00808
v 2.786274 134.2358 -25.66024
v 7.889168 155.8601 -35.62902
v 6.779352 152.3054 -41.26783
v -10.80745 133.1654 -23.23957
v -22.60603 149.9915 -36.03508
v -22.23935 153.4875 -30.26395
v -5.103151 177.8217 7.085752
v -5.026052 174.9374 7.417251
v -11.03995 175.5825 2.189723
v -10.53555 181.8237 1.925569
v -10.53555 181.8206 -7.313633
v -12.55115 153.6097 3.016707
v -12.55114 153.6057 -8.538495
v -11.03995 175.5825 2.189723
v -12.55115 153.6097 3.016707
v 6.472352 175.5826 2.189727
v 0.535547 177.8217 7.085753
v -2.283848 175.376 0.664995
v -2.283848 175.376 0.664995
v -5.103151 177.8217 7.085752
v -11.03995 175.5825 2.189723
v -5.168633 148.9452 1.964634
v -0.283856 149.362 3.719047
v -2.318749 165.2306 2.585598
v -6.006748 165.2301 1.145897
v 3.569181 149.6332 0.408665
v 1.230652 165.2301 1.145899
v 1.080793 94.3349 -16.12238
v -0.430167 83.31348 -13.46843
v 4.507472 83.74548 -13.46843
v 4.394635 84.48784 8.768414
v -0.448066 84.06416 8.768413
v 4.507472 83.74548 -13.46843
v -0.430167 83.31348 -13.46843
v -0.430167 83.31348 -13.46843
v 4.507472 83.74548 -13.46843
v 4.394635 84.48784 8.768414
v -0.448066 84.06416 8.768413
v 5.603851 179.5396 -3.16464
v 19.32085 171.6245 -8.461704
v 1.375855 169.3088 -9.437811
v 18.67615 178.2944 -4.392906
v 26.68556 175.2894 -5.938667
v 25.72445 180.1294 -2.916237
v 30.76866 179.4866 -2.731214
v 33.32445 185.6385 2.220763
v 30.05815 185.7857 1.859713
v 31.07176 189.9008 5.945794
v 29.30155 190.5453 6.13607
v 32.97974 194.4499 9.606325
v 5.802752 177.2662 -0.443054
v 19.32085 171.6245 -8.461704
v 18.80925 176.774 -2.572881
v 1.375855 169.3088 -9.437811
v 26.68556 175.2894 -5.938667
v 25.81805 179.0594 -1.635268
v 30.76866 179.4866 -2.731214
v 33.32445 185.6385 2.220763
v 30.12025 185.0767 2.708457
v 31.07176 189.9008 5.945794
v 29.34255 190.0769 6.696832
v 32.97974 194.4499 9.606325
v 5.603851 179.5396 -3.16464
v 18.80925 176.774 -2.572881
v 18.67615 178.2944 -4.392906
v 5.802752 177.2662 -0.443054
v 25.81805 179.0594 -1.635268
v 25.72445 180.1294 -2.916237
v 30.12025 185.0767 2.708457
v 30.05815 185.7857 1.859713
v 29.34255 190.0769 6.696832
v 29.30155 190.5453 6.13607
v 32.97974 194.4499 9.606325
v -10.13105 179.5396 -3.164544
v -5.903147 169.3088 -9.437813
v -23.84805 171.6244 -8.461617
v -23.20345 178.2944 -4.392919
v -31.21285 175.2893 -5.938684
v -30.25175 180.1294 -2.916153
v -35.29596 179.4866 -2.731133
v -37.85175 185.6385 2.220843
v -34.58545 185.7856 1.859794
v -35.59905 189.9007 5.945873
v -33.82886 190.5452 6.136152
v -37.50706 194.4499 9.606405
v -10.33005 177.2662 -0.443059
v -23.33655 176.774 -2.572793
v -23.84805 171.6244 -8.461617
v -5.903147 169.3088 -9.437813
v -30.34535 179.0594 -1.635284
v -31.21285 175.2893 -5.938684
v -35.29596 179.4866 -2.731133
v -34.64745 185.0766 2.708539
v -37.85175 185.6385 2.220843
v -33.86986 190.0769 6.696914
v -35.59905 189.9007 5.945873
v -37.50706 194.4499 9.606405
v -10.13105 179.5396 -3.164544
v -23.20345 178.2944 -4.392919
v -23.33655 176.774 -2.572793
v -10.33005 177.2662 -0.443059
v -30.25175 180.1294 -2.916153
v -30.34535 179.0594 -1.635284
v -34.58545 185.7856 1.859794
v -34.64745 185.0766 2.708539
v -33.82886 190.5452 6.136152
v -33.86986 190.0769 6.696914
v -37.50706 194.4499 9.606405
v 5.404153 165.1643 0.098322
v 7.611557 171.7047 -11.40644
v -1.203945 167.9137 -7.72143
v 11.71855 169.2552 -5.236588
v 14.53516 172.4293 -11.20739
v 22.70986 170.6407 -7.433064
v 20.58345 168.7782 -3.842721
v 26.05795 166.0568 -0.73188
v 25.47265 164.8004 1.813055
v 29.06675 158.102 9.96827
v 5.568954 162.1835 -2.128448
v 7.611557 171.7047 -11.40644
v 11.83465 167.1574 -6.803764
v -1.203945 167.9137 -7.72143
v 14.53516 172.4293 -11.20739
v 22.70986 170.6407 -7.433064
v 20.66035 167.3881 -4.881141
v 26.05795 166.0568 -0.73188
v 25.52345 163.8822 1.127071
v 29.06675 158.102 9.96827
v 5.404153 165.1643 0.098322
v 11.83465 167.1574 -6.803764
v 11.71855 169.2552 -5.236588
v 5.568954 162.1835 -2.128448
v 20.66035 167.3881 -4.881141
v 20.58345 168.7782 -3.842721
v 25.52345 163.8822 1.127071
v 25.47265 164.8004 1.813055
v 29.06675 158.102 9.96827
v -9.931448 165.1643 0.098319
v -3.323345 167.9137 -7.72143
v -12.13884 171.7047 -11.40644
v -16.24585 169.2552 -5.236596
v -19.06244 172.4293 -11.20729
v -27.23715 170.6407 -7.432978
v -25.11085 168.778 -3.842734
v -30.58535 166.0568 -0.731796
v -30.00005 164.8004 1.813039
v -33.59415 158.102 9.968253
v -10.09635 162.1835 -2.128453
v -16.36195 167.1574 -6.803673
v -12.13884 171.7047 -11.40644
v -3.323345 167.9137 -7.72143
v -19.06244 172.4293 -11.20729
v -25.18775 167.3881 -4.881155
v -27.23715 170.6407 -7.432978
v -30.05085 163.8822 1.127156
v -30.58535 166.0568 -0.731796
v -33.59415 158.102 9.968253
v -9.931448 165.1643 0.098319
v -16.24585 169.2552 -5.236596
v -16.36195 167.1574 -6.803673
v -10.09635 162.1835 -2.128453
v -25.11085 168.778 -3.842734
v -25.18775 167.3881 -4.881155
v -30.00005 164.8004 1.813039
v -30.05085 163.8822 1.127156
v -33.59415 158.102 9.968253
v 3.569181 149.6332 0.408665
v -1.978886 149.1165 -5.114726
v -2.457447 165.2282 -4.122002
v 1.230652 165.2301 1.145899
v -5.168633 148.9452 1.964634
v -6.006748 165.2301 1.145897
v -2.31275 181.0116 -2.65395
v -8.200249 178.6197 -3.691226
v -7.49015 178.6503 2.244665
v -4.357552 178.6513 4.873266
v -0.268151 178.6513 4.87327
v 2.86445 178.6503 2.244666
v 3.574651 178.6197 -3.691223
v -10.58815 173.3749 -3.321616
v -10.24495 173.8119 2.904334
v -5.445551 173.8284 7.740531
v 0.819749 173.8284 7.740534
v 5.619249 173.8119 2.904339
v 5.962452 173.3749 -3.321612
v -9.939848 167.9115 -3.24013
v -9.020051 166.4422 5.713478
v -9.99135 172.6389 6.319039
v -8.31035 168.6532 7.037116
v -3.459551 168.37 6.818816
v -1.166251 168.37 6.818817
v 3.68455 168.6532 7.037021
v 5.36555 172.6389 6.318945
v 4.39415 166.4422 5.713382
v 5.314253 167.9115 -3.240226
v -2.312947 157.2502 -0.457047
v -4.418749 157.0995 6.395306
v -7.175748 157.9839 2.278398
v -0.207149 157.0995 6.395308
v 2.549953 157.984 2.278301
v -8.391449 162.522 2.200632
v -4.33025 162.7097 6.992369
v -0.29565 162.7097 6.99237
v 3.765652 162.522 2.200534
v -2.312846 163.126 -4.492577
vn -0 0.286128 0.958192
vn 0.552317 0.248483 0.79574
vn -0 0.665279 0.746595
vn 0.655376 0.068957 0.752149
vn 0.959176 0.084591 0.269864
vn 0.879612 0.439143 -0.182854
vn 0.655375 0.596538 0.463277
vn -0 0.996791 0.080053
vn 0 0.602409 -0.798188
vn 0.997553 0.069795 -0.004024
vn 0.853827 0.105027 -0.509852
vn -0.186604 0.189994 -0.963889
vn -0.178906 0.02184 0.983624
vn -0 0.019745 0.999805
vn 0.171464 0.047812 0.98403
vn -0.1858 0.024139 0.982291
vn 0.005044 0.903775 0.427979
vn -0.088842 0.897349 0.432287
vn -0.369967 0.9274 -0.055253
vn 0.157195 0.193657 0.968394
vn -0.180892 0.515056 0.837852
vn 0.437394 0.837264 0.328138
vn 0.194526 0.971159 -0.137878
vn 0.173362 -0.375629 0.910411
vn 0.223227 0.116918 0.967729
vn 0.236217 0.695463 0.678626
vn 0.891419 0.122238 0.436382
vn 0.935839 0.296745 -0.190127
vn 0.752016 -0.526132 0.397061
vn 0.823053 -0.439279 0.360026
vn 0.926938 -0.358302 -0.111378
vn 0.190706 -0.456134 0.869237
vn -0.152405 0.868413 -0.471839
vn -0.369967 0.9274 -0.055253
vn -0.357195 0.698265 -0.620353
vn 0.14685 0.108691 -0.983169
vn 0.194526 0.971159 -0.137878
vn 0.168606 0.493494 -0.85325
vn 0.935839 0.296745 -0.190127
vn 0.779685 -0.222703 -0.58523
vn 0.741332 -0.46754 -0.481491
vn 0.67247 -0.408954 -0.61688
vn 0.926938 -0.358302 -0.111378
vn -0.190619 0.461997 -0.866154
vn -0.08296 -0.651597 -0.754015
vn -0.152405 0.868413 -0.471839
vn 0.186314 -0.185509 0.964818
vn 0.836683 -0.220519 0.501332
vn 0.488024 -0.514968 -0.704727
vn -0.145665 -0.290266 -0.945795
vn 0.384217 0.42891 -0.817566
vn -0.083788 0.263044 -0.961139
vn 0.898454 -0.418857 -0.131677
vn 0.908344 -0.331266 -0.255291
vn 0.908344 -0.331266 -0.255291
vn 0.898454 -0.418857 -0.131677
vn 0.726786 0.419151 0.544145
vn 0.692203 -0.012101 0.721602
vn 0.726786 0.419151 0.544145
vn -0.002586 0.026118 0.999656
vn 0.549746 -0.076291 -0.831841
vn 0.751143 0.134656 -0.64626
vn 0.7078 0.113681 -0.697206
vn 0.057297 -0.50109 -0.863496
vn -0.412036 0.33184 -0.848592
vn 0.434908 0.182931 -0.881698
vn 0.678618 -0.317069 -0.66253
vn 0.610744 -0.575318 -0.54406
vn 0.8746 0.460347 -0.152168
vn 0.870141 0.344771 -0.35212
vn -0.994555 -0.100303 -0.028294
vn 0.604136 0.677125 -0.420145
vn 0.970106 0.225023 -0.09088
vn 0.949841 -0.31183 -0.023762
vn 0.687246 0.66282 0.297258
vn 0.75401 0.621653 0.21217
vn -0.318023 0.841606 0.436532
vn 0.364101 0.867651 0.338545
vn 0.653866 0.552498 0.516918
vn 0.709027 0.126316 0.693776
vn 0.539164 0.674066 0.504913
vn -0.331065 0.190107 0.924259
vn -0.717359 -0.17627 0.674036
vn -0.994555 -0.100303 -0.028294
vn -0.412036 0.33184 -0.848592
vn 0.057297 -0.50109 -0.863496
vn -0.740281 -0.652851 -0.160531
vn -0.331065 0.190107 0.924259
vn -0.860845 -0.446617 0.243884
vn 0.356533 0.001522 0.934282
vn -0.524036 -0.532965 0.66433
vn -0.69748 -0.060905 0.714011
vn 0.446757 -0.649002 0.615796
vn -0.486296 -0.616233 0.619494
vn -0.590265 -0.520549 0.616941
vn 0.448221 -0.442327 0.776817
vn -0.5359 -0.114352 0.836501
vn 0.407251 0.118614 0.905581
vn -0.658365 -0.350598 0.666061
vn 0.552318 0.063304 0.831226
vn -0.985691 0.079142 -0.148832
vn -0.422317 0.295907 -0.856789
vn -0.428656 0.422084 -0.798811
vn -0.996211 -0.036091 -0.079124
vn -0.39137 0.476155 -0.787468
vn -0.358646 0.066144 -0.931127
vn -0.942848 -0.237184 -0.234053
vn -0.256926 -0.288873 -0.922248
vn -0.804959 -0.41832 -0.420773
vn 0.982226 -0.179875 0.053634
vn 0.94574 0.324438 0.017791
vn 0.95937 -0.106161 -0.261416
vn 0.994052 -0.032499 0.10395
vn 0.880666 0.442863 0.168226
vn 0.992512 0.120423 0.020449
vn 0.944975 0.279688 -0.169699
vn 0.552318 0.063304 0.831226
vn 0.539143 0.775761 0.327902
vn 0.306181 0.601283 0.738046
vn 0.944975 0.279688 -0.169699
vn 0.288576 0.449485 -0.845392
vn 0.55499 0.36204 -0.748942
vn 0.563126 0.246218 -0.788838
vn 0.637756 0.080981 -0.765969
vn -0.1496 -0.277236 -0.949084
vn 0.614321 0.07732 -0.785259
vn 0.614321 0.07732 -0.785259
vn 0.166265 0.225214 -0.960018
vn 0.717533 0.379704 -0.583928
vn -0.1496 -0.277236 -0.949084
vn -0.252703 -0.194743 -0.947743
vn 0.784165 -0.399193 -0.47511
vn -0.716512 -0.697192 -0.023106
vn 0.944975 0.279688 -0.169699
vn 0.539143 0.775761 0.327902
vn -0.313005 0.753751 0.577831
vn 0.225655 0.512287 0.828638
vn 0.409905 0.786109 0.462613
vn -0.771717 -0.22787 0.593741
vn 0.816989 -0.553236 0.162659
vn 0.889745 0.452794 0.057725
vn -0.778765 0.612504 0.135512
vn -0.660293 -0.73197 -0.168028
vn -0.31776 0.081284 0.944681
vn 0.208654 -0.648617 0.731956
vn 0.626437 0.592413 0.50658
vn -0.21445 0.113391 0.970131
vn 0.233894 0.393904 0.888894
vn 0.761244 0.638905 0.11094
vn 0.899369 0.426962 -0.094017
vn 0.631803 -0.046254 -0.773748
vn 0.575529 -0.271379 -0.77144
vn -0.786679 -0.603603 0.129613
vn -0.721339 -0.525601 0.451014
vn -0.000495 -0.744198 -0.667959
vn -0.323458 -0.754574 -0.570958
vn 0.000795 0.494969 0.868911
vn 0.843835 0.508032 -0.172761
vn 0.45209 -0.154047 -0.878569
vn -0.820008 -0.341861 0.45904
vn -0.444034 -0.638221 -0.628894
vn -0.475151 0.870973 -0.125049
vn 0.809041 0.514182 -0.284728
vn 0.844957 -0.532815 -0.04643
vn -0.939963 -0.270212 0.208458
vn -0.032034 -0.985135 0.168767
vn -0.382027 0.84651 -0.370779
vn 0.810044 0.537833 -0.23359
vn 0.911703 -0.407396 -0.053156
vn -0.792704 -0.463669 0.395768
vn 0.05305 -0.984416 0.167665
vn -0.293592 0.955911 -0.006266
vn 0.628988 0.678407 -0.379656
vn 0.921661 -0.338213 -0.190142
vn -0.156889 -0.94725 0.279472
vn -0.726602 0.684223 -0.062352
vn 0.67187 0.712946 -0.200743
vn 0.951828 -0.305776 -0.022885
vn -0.053012 -0.977148 0.205845
vn -0.043127 0.571289 0.819615
vn 0.45078 -0.357313 0.818
vn -0.270827 0.948346 0.165203
vn -0.923364 0.109832 0.36788
vn 0.58827 -0.056848 0.806664
vn -0.62749 -0.776338 0.059633
vn -0.490869 0.824974 -0.280118
vn 0.818971 0.344324 0.459051
vn 0.183259 0.970964 -0.153768
vn 0.094524 0.911788 0.399635
vn 0.377022 0.558988 0.738503
vn -0.374989 0.926312 -0.036463
vn -0.41989 0.769757 0.480797
vn 0.107404 0.107798 0.988354
vn 0.208696 -0.372847 0.904119
vn -0.091627 0.669647 0.737006
vn -0.982299 0.121919 0.142215
vn -0.695108 -0.002693 0.7189
vn -0.572734 -0.54919 0.608578
vn -0.480999 -0.623225 0.616628
vn -0.843074 -0.497682 0.203814
vn 0.012281 0.72736 -0.686147
vn 0.183259 0.970964 -0.153768
vn -0.489977 0.058545 -0.869767
vn -0.523873 0.438982 -0.729967
vn -0.374989 0.926312 -0.036463
vn -0.88975 -0.354162 -0.287949
vn -0.982299 0.121919 0.142215
vn -0.772965 -0.522775 -0.359487
vn -0.78145 -0.587451 -0.210324
vn -0.843074 -0.497682 0.203814
vn -0.570242 -0.331528 0.751607
vn -0.615925 -0.602103 -0.508043
vn -0.520549 0.428596 -0.738468
vn -0.814173 -0.554187 0.173205
vn -0.879322 -0.472036 0.063044
vn -0.879322 -0.472036 0.063044
vn -0.814173 -0.554187 0.173205
vn -0.62178 0.418903 0.661748
vn -0.62178 0.418903 0.661748
vn -0.557126 -0.011661 0.830346
vn -0.714961 0.332775 -0.614892
vn -0.847757 0.378932 -0.371105
vn -0.879741 0.358669 -0.31211
vn -0.223421 0.095635 -0.970019
vn -0.625261 0.587094 -0.514169
vn 0.201009 0.827428 -0.524365
vn -0.792941 0.021115 -0.608932
vn -0.68955 -0.241972 -0.68262
vn -0.940349 0.334366 0.062792
vn -0.905883 0.308869 0.289787
vn -0.710492 0.682603 0.171039
vn 0.96753 0.102627 -0.230983
vn -0.975274 0.070108 0.209583
vn -0.917412 -0.392472 -0.065732
vn -0.715458 0.24475 0.654383
vn -0.633515 0.238992 0.735895
vn -0.318421 0.431656 0.843968
vn 0.369056 0.467569 0.803229
vn -0.547992 0.028747 0.835989
vn -0.544396 -0.422423 0.724701
vn -0.444124 0.151529 0.883059
vn 0.517132 -0.332656 0.788616
vn 0.854718 -0.413587 0.313692
vn 0.201009 0.827428 -0.524365
vn 0.96753 0.102627 -0.230983
vn -0.223421 0.095635 -0.970019
vn 0.714762 -0.301959 -0.630822
vn 0.517132 -0.332656 0.788616
vn 0.369056 0.467569 0.803229
vn 0.911982 -0.353768 -0.207695
vn -0.200069 0.235317 0.951104
vn 0.802902 0.218243 0.554724
vn 0.697101 -0.262999 0.666995
vn -0.240304 -0.48508 0.840804
vn 0.665751 -0.359018 0.654126
vn 0.752396 -0.258191 0.606001
vn -0.247438 -0.241961 0.938206
vn 0.705309 0.343713 0.62
vn -0.222965 0.597158 0.770512
vn 0.815251 0.051272 0.576834
vn -0.37324 0.513766 0.772487
vn 0.926241 0.131474 -0.35326
vn 0.22792 0.214371 -0.949789
vn 0.231608 0.076859 -0.969768
vn 0.964959 0.042937 -0.258864
vn 0.185168 0.26538 -0.946196
vn 0.150668 -0.454405 -0.877961
vn 0.894561 -0.346007 -0.282912
vn 0.091716 -0.746252 -0.659315
vn 0.741814 -0.595471 -0.308425
vn -0.922729 -0.254518 0.289468
vn -0.968988 0.218976 0.114508
vn -0.961485 -0.272984 -0.032043
vn -0.948557 -0.100861 0.300112
vn -0.869589 0.482273 0.10596
vn -0.974236 0.133533 0.181753
vn -0.984067 0.163962 -0.068764
vn -0.37324 0.513766 0.772487
vn -0.173782 0.601195 0.779978
vn -0.473983 0.775737 0.416621
vn -0.984067 0.163962 -0.068764
vn -0.483434 0.154915 -0.861565
vn -0.714886 0.072619 -0.69546
vn -0.736119 -0.206429 -0.644605
vn -0.786347 -0.331572 -0.521266
vn -0.767117 -0.345561 -0.540481
vn -0.018942 -0.748703 -0.662635
vn -0.767117 -0.345561 -0.540481
vn -0.808137 0.379508 -0.450432
vn -0.329954 0.225087 -0.91677
vn -0.018942 -0.748703 -0.662635
vn 0.084292 -0.194742 -0.977226
vn 0.701617 -0.69719 -0.147175
vn -0.854753 -0.399195 -0.331725
vn -0.984067 0.163962 -0.068764
vn -0.473983 0.775737 0.416621
vn 0.408586 0.753751 0.514701
vn -0.323348 0.786108 0.526764
vn -0.078337 0.512287 0.855234
vn 0.863095 -0.227868 0.450715
vn -0.866205 0.452791 0.211349
vn -0.776331 -0.553238 0.302055
vn 0.741924 0.366852 0.561221
vn 0.461134 -0.650339 0.603668
vn 0.665672 -0.153194 -0.730351
vn -0.034929 -0.992558 -0.11666
vn -0.525264 0.071085 0.847965
vn -0.050156 -0.244229 0.96842
vn 0.416874 -0.439848 0.795456
vn -0.745465 0.316295 0.586719
vn -0.915814 0.244283 0.318763
vn -0.783506 0.309091 -0.539056
vn -0.718287 0.138158 -0.681892
vn 0.824866 -0.560638 -0.072673
vn 0.821482 -0.424272 -0.380999
vn 0.222902 -0.212995 -0.951288
vn -0.113611 -0.20204 -0.972765
vn 0.168254 -0.113348 0.979205
vn -0.882491 0.363921 0.297945
vn -0.626641 0.314494 -0.713032
vn 0.914823 -0.402736 0.030055
vn 0.322647 -0.066593 -0.944174
vn 0.3941 0.672027 0.626949
vn -0.869117 0.431497 0.241757
vn -0.803111 -0.380949 -0.458138
vn 0.973355 -0.210612 -0.090682
vn 0.122064 -0.71213 -0.691355
vn 0.279694 0.842252 0.460851
vn -0.86941 0.382358 0.312935
vn -0.884081 -0.31593 -0.344367
vn 0.859877 -0.49229 -0.13514
vn 0.03746 -0.721253 -0.691658
vn 0.191246 0.598771 0.777752
vn -0.714449 0.608403 0.345556
vn -0.917352 -0.117392 -0.380373
vn 0.257984 -0.760214 -0.596255
vn 0.641809 0.556117 0.52803
vn -0.700949 0.540303 0.465557
vn -0.937592 -0.279572 -0.206785
vn 0.15168 -0.742905 -0.651985
vn 0.185728 -0.316068 0.93038
vn -0.222215 -0.955195 0.195506
vn 0.213648 0.461051 0.861271
vn -0.501375 -0.7493 0.432634
vn 0.943821 -0.115565 0.309591
vn 0.686785 -0.428851 -0.586868
vn 0.398119 0.770539 0.497765
vn -0.79413 -0.263446 0.54768
vn -0.111716 -0.641125 -0.759262
vn -0.092635 -0.640134 -0.762658
vn -0.108583 -0.636008 -0.764005
vn -0.073486 -0.636814 -0.767508
vn -0.032251 -0.624829 -0.780095
vn -0.006375 -0.588843 -0.808222
vn 0.005661 -0.583016 -0.812441
vn 0.002143 -0.524388 -0.851477
vn 0.017307 -0.490878 -0.871057
vn 0.021693 -0.489706 -0.871618
vn 0.037822 -0.507271 -0.860956
vn 0.027131 -0.558389 -0.829136
vn 0.20328 0.382771 0.901201
vn 0.225476 0.388591 0.893397
vn 0.250947 0.402129 0.880522
vn 0.19686 0.371794 0.907202
vn 0.29123 0.411415 0.863668
vn 0.317262 0.44767 0.836024
vn 0.328767 0.451946 0.829251
vn 0.326044 0.512987 0.794066
vn 0.339995 0.542494 0.768182
vn 0.344001 0.542809 0.766174
vn 0.359423 0.522757 0.773008
vn 0.349407 0.473848 0.808321
vn -0.026456 0.848009 -0.529321
vn -0.174124 0.84812 -0.500373
vn -0.321268 0.828343 -0.45895
vn -0.026456 0.848009 -0.529321
vn -0.648465 0.695043 -0.310496
vn -0.811811 0.552635 -0.188567
vn -0.974363 0.218389 0.054063
vn -0.984233 0.031147 0.174113
vn -0.985616 0.053346 0.16036
vn -0.982725 0.160409 0.09231
vn -0.887218 0.448519 -0.108055
vn 0.008667 -0.596082 0.802877
vn 0.033271 -0.585228 0.810186
vn 0.004626 -0.595423 0.803399
vn 0.107047 -0.58233 0.805874
vn 0.125134 -0.575777 0.807974
vn 0.213969 -0.598123 0.772312
vn 0.27413 -0.594529 0.755902
vn 0.40356 -0.590161 0.699178
vn 0.450219 -0.570987 0.686495
vn 0.547674 -0.558267 0.62321
vn -0.152357 0.809084 -0.567601
vn -0.125048 0.818686 -0.56046
vn -0.04687 0.821619 -0.568107
vn -0.163391 0.809265 -0.564263
vn -0.028364 0.825466 -0.563739
vn 0.058737 0.799717 -0.597497
vn 0.117942 0.789914 -0.601769
vn 0.22133 0.758592 -0.612822
vn 0.256207 0.757527 -0.600426
vn 0.320668 0.729102 -0.604634
vn 0.671981 -0.446799 -0.590603
vn 0.415824 -0.591873 -0.69049
vn 0.082881 -0.685925 -0.722937
vn 0.671981 -0.446799 -0.590603
vn -0.464509 -0.660191 -0.590236
vn -0.687793 -0.568001 -0.452013
vn -0.893201 -0.388203 -0.226913
vn -0.912973 -0.359306 -0.19334
vn -0.959049 -0.268351 -0.090624
vn -0.799696 -0.488786 -0.348676
vn -0.799696 -0.488786 -0.348676
vn -0.799696 -0.488786 -0.348676
vn -0.059693 -0.637029 -0.768526
vn -0.065001 -0.632576 -0.771766
vn -0.078696 -0.639036 -0.76514
vn -0.098614 -0.638792 -0.763033
vn -0.142974 -0.633548 -0.760378
vn -0.182072 -0.602679 -0.776935
vn -0.195561 -0.598861 -0.776609
vn -0.214591 -0.541455 -0.812882
vn -0.24045 -0.511175 -0.825157
vn -0.244886 -0.510698 -0.824147
vn -0.253513 -0.530212 -0.809077
vn -0.224928 -0.578237 -0.784251
vn 0.062725 0.371703 0.92623
vn 0.008507 0.383038 0.923693
vn 0.038589 0.373874 0.926676
vn 0.072401 0.361993 0.929365
vn -0.075143 0.41677 0.905901
vn -0.036025 0.385645 0.921944
vn -0.088781 0.419066 0.903605
vn -0.133883 0.505179 0.852567
vn -0.107591 0.47884 0.871284
vn -0.14724 0.48286 0.863231
vn -0.138333 0.504828 0.852064
vn -0.118513 0.436991 0.891624
vn -0.285782 0.827588 -0.483143
vn 0.014625 0.854793 -0.518764
vn -0.138985 0.850887 -0.50663
vn -0.285782 0.827588 -0.483143
vn 0.603947 0.664119 -0.440676
vn 0.389086 0.776745 -0.495256
vn 0.967351 0.184824 -0.173412
vn 0.888597 0.365088 -0.27768
vn 0.91827 0.310103 -0.246206
vn 0.960546 0.206597 -0.186199
vn 0.71727 0.574864 -0.393771
vn 0.357911 -0.56858 0.740686
vn 0.361737 -0.567302 0.739807
vn 0.335873 -0.561408 0.756313
vn 0.265564 -0.569852 0.777653
vn 0.248621 -0.566054 0.785984
vn 0.157429 -0.602575 0.78238
vn 0.095487 -0.608596 0.787714
vn -0.044615 -0.625452 0.778986
vn -0.095127 -0.613931 0.783607
vn -0.209108 -0.61786 0.757973
vn -0.176307 0.807198 -0.563336
vn -0.276164 0.803563 -0.527276
vn -0.200628 0.812735 -0.547001
vn -0.164962 0.809142 -0.563984
vn -0.292403 0.804674 -0.51672
vn -0.435676 0.746319 -0.503185
vn -0.380817 0.765104 -0.519224
vn -0.558389 0.693412 -0.455392
vn -0.53055 0.699386 -0.478932
vn -0.615348 0.655395 -0.437955
vn -0.757753 -0.559384 -0.336006
vn -0.220812 -0.709839 -0.668858
vn -0.532571 -0.666555 -0.521606
vn -0.757753 -0.559384 -0.336006
vn 0.568633 -0.469064 -0.675748
vn 0.32822 -0.597767 -0.7314
vn 0.834456 -0.221705 -0.50451
vn 0.808994 -0.254164 -0.530028
vn 0.898611 -0.12207 -0.421423
vn 0.6958 -0.371023 -0.614983
vn 0.6958 -0.371023 -0.614983
vn 0.6958 -0.371023 -0.614983
vn -0.968795 0.245216 0.036118
vn -0.968795 0.245216 0.036118
vn -0.968795 0.245216 0.036118
vn 0.873208 0.390265 -0.291893
vn 0.873208 0.390265 -0.291893
vn 0.873208 0.390265 -0.291893
vn -0.552318 0.248483 0.79574
vn -0.655376 0.068957 0.752148
vn -0.959176 0.084591 0.269864
vn -0.655376 0.596538 0.463277
vn -0.879612 0.439143 -0.182854
vn -0.997553 0.069795 -0.004024
vn -0.853827 0.105027 -0.509852
vn 0.178905 0.02184 0.983624
vn 0.185799 0.024239 0.982289
vn -0.042898 -0.927238 0.372007
vn -0.042898 -0.927238 0.372007
vn -0.042898 -0.927238 0.372007
vn 0.042898 -0.927238 0.372007
vn 0.042898 -0.927238 0.372007
vn 0.042898 -0.927238 0.372007
vn -0.69285 0.011764 0.720986
vn 0.308187 0.093937 0.946677
vn -0.174798 0.053139 0.983169
vn -0.99433 0.049869 -0.09392
vn 0.944482 0.123473 -0.304481
vn 0.812635 0.064403 0.579203
vn 0.003426 -0.032269 -0.999473
vn 0.510086 -0.600634 -0.615672
vn -0.455223 -0.566756 -0.686702
vn -0.299158 -0.705442 0.642539
vn 0.464155 -0.486161 0.740411
vn -0.455223 -0.566756 -0.686702
vn 0.510086 -0.600634 -0.615672
vn 0.510086 -0.600634 -0.615672
vn -0.455223 -0.566756 -0.686702
vn -0.299158 -0.705442 0.642539
vn 0.464155 -0.486161 0.740411
vn -0.026501 0.523826 -0.851413
vn -0.0071 0.523628 -0.851917
vn -0.0221 0.529217 -0.848199
vn 0.0128 0.525512 -0.85069
vn 0.056399 0.5331 -0.84417
vn 0.089503 0.565732 -0.819717
vn 0.102507 0.569254 -0.815747
vn 0.110398 0.624723 -0.773003
vn 0.131302 0.650653 -0.747937
vn 0.135803 0.650758 -0.747042
vn 0.1484 0.632135 -0.760515
vn 0.128399 0.588419 -0.798296
vn 0.071604 -0.754918 0.651898
vn 0.0952 -0.750078 0.654462
vn 0.1235 -0.738672 0.662655
vn 0.063399 -0.762769 0.643556
vn 0.166689 -0.727723 0.665308
vn 0.199894 -0.695541 0.69012
vn 0.212693 -0.690039 0.691816
vn 0.220905 -0.63746 0.738137
vn 0.241409 -0.606762 0.757339
vn 0.245705 -0.605552 0.756925
vn 0.258112 -0.621173 0.739948
vn 0.238405 -0.667571 0.705346
vn 0.132097 0.765504 0.629725
vn -0.0179 0.766719 0.641733
vn -0.171109 0.749957 0.638973
vn 0.132097 0.765504 0.629725
vn -0.528504 0.6321 0.566686
vn -0.721165 0.504839 0.474403
vn -0.948964 0.204475 0.24012
vn -0.99411 0.035536 0.102388
vn -0.991353 0.055544 0.118887
vn -0.968347 0.152176 0.197857
vn -0.817284 0.411431 0.40345
vn 0.026501 0.523826 -0.851413
vn 0.022201 0.529216 -0.848197
vn 0.0071 0.523628 -0.851917
vn -0.0128 0.525512 -0.85069
vn -0.056399 0.5331 -0.84417
vn -0.089502 0.565732 -0.819717
vn -0.102506 0.569254 -0.815747
vn -0.110398 0.624723 -0.773003
vn -0.131302 0.650653 -0.747938
vn -0.135803 0.650758 -0.747042
vn -0.148399 0.632135 -0.760515
vn -0.128399 0.588419 -0.798296
vn -0.071604 -0.754918 0.651898
vn -0.1235 -0.738672 0.662655
vn -0.095201 -0.750078 0.654462
vn -0.063399 -0.762769 0.643556
vn -0.199894 -0.695541 0.69012
vn -0.166689 -0.727723 0.665308
vn -0.212693 -0.690039 0.691816
vn -0.241409 -0.606762 0.757338
vn -0.220905 -0.63746 0.738137
vn -0.258112 -0.621173 0.739948
vn -0.245799 -0.605537 0.756907
vn -0.238405 -0.667571 0.705346
vn -0.132098 0.765504 0.629725
vn 0.171108 0.749957 0.638973
vn 0.0179 0.766719 0.641733
vn -0.132098 0.765504 0.629725
vn 0.721165 0.504839 0.474403
vn 0.528504 0.6321 0.566686
vn 0.99411 0.035536 0.102389
vn 0.948964 0.204475 0.240121
vn 0.968347 0.152176 0.197857
vn 0.991353 0.055544 0.118888
vn 0.817317 0.411448 0.403367
vn -0.1779 0.869757 0.460299
vn -0.154098 0.879843 0.44959
vn -0.181892 0.869418 0.459378
vn -0.080797 0.888821 0.451076
vn -0.062899 0.893229 0.44518
vn 0.0288 0.878269 0.477299
vn 0.090996 0.872932 0.47928
vn 0.228306 0.84099 0.490522
vn 0.2778 0.834466 0.475913
vn 0.385512 0.789091 0.478243
vn 0.0122 -0.699154 -0.714867
vn 0.0385 -0.688552 -0.724164
vn 0.116797 -0.682027 -0.721941
vn 0.0008 -0.697992 -0.716105
vn 0.134494 -0.674918 -0.725532
vn 0.223901 -0.687841 -0.690466
vn 0.282003 -0.679541 -0.677273
vn 0.383001 -0.666623 -0.639472
vn 0.415014 -0.647942 -0.638698
vn 0.476795 -0.635902 -0.606874
vn 0.728283 -0.383795 0.56772
vn 0.483079 -0.506731 0.714044
vn 0.154701 -0.585729 0.795607
vn 0.728283 -0.383795 0.56772
vn -0.403792 -0.56174 0.72208
vn -0.639997 -0.482291 0.598163
vn -0.867077 -0.328062 0.374903
vn -0.890132 -0.303293 0.340116
vn -0.94627 -0.225513 0.23177
vn 0.177899 0.869757 0.460299
vn 0.181891 0.869418 0.459378
vn 0.154098 0.879843 0.44959
vn 0.080797 0.888821 0.451076
vn 0.062898 0.89323 0.44518
vn -0.0288 0.878269 0.477299
vn -0.090997 0.872932 0.47928
vn -0.228306 0.84099 0.490522
vn -0.277801 0.834466 0.475913
vn -0.385513 0.78909 0.478243
vn -0.0122 -0.699154 -0.714867
vn -0.116796 -0.682027 -0.721941
vn -0.0385 -0.688552 -0.724165
vn -0.0008 -0.697992 -0.716105
vn -0.134493 -0.674918 -0.725532
vn -0.282003 -0.679541 -0.677273
vn -0.223901 -0.687841 -0.690466
vn -0.414987 -0.648 -0.638656
vn -0.383001 -0.666623 -0.639472
vn -0.476794 -0.635902 -0.606874
vn -0.728283 -0.383795 0.567719
vn -0.154701 -0.585729 0.795607
vn -0.483079 -0.506731 0.714044
vn -0.728283 -0.383795 0.567719
vn 0.639997 -0.482291 0.598164
vn 0.403792 -0.56174 0.72208
vn 0.890131 -0.303293 0.340117
vn 0.867077 -0.328062 0.374904
vn 0.94627 -0.225513 0.231771
vn 0.944482 0.123473 -0.304481
vn -0.593409 0.00733 -0.804868
vn 0.426278 0.064685 -0.902276
vn 0.812635 0.064403 0.579203
vn -0.69285 0.011764 0.720986
vn -0.99433 0.049869 -0.09392
vn -0 0.983454 0.181159
vn -0.758379 0.649302 0.057174
vn -0.576321 0.730853 0.365661
vn -0.164998 0.75221 0.637931
vn 0.309904 0.739116 0.598053
vn 0.654518 0.715604 0.24396
vn 0.689482 0.720009 0.07875
vn -0.996795 0.05512 0.05798
vn -0.923216 0.288892 0.253404
vn -0.294885 0.299898 0.907251
vn 0.200392 0.349003 0.915445
vn 0.898605 0.318006 0.302292
vn 0.958817 0.276927 0.063106
vn -0.916902 -0.37365 -0.140272
vn -0.803629 -0.346946 0.483537
vn -0.539171 0.167376 0.825397
vn -0.601683 -0.23893 0.762161
vn -0.133701 -0.192366 0.972173
vn 0.025099 -0.128255 0.991424
vn 0.263993 -0.21807 0.93955
vn 0.750225 0.189125 0.633557
vn 0.775735 -0.297321 0.556628
vn 0.946035 -0.312142 -0.087095
vn -0.141296 -0.851953 -0.504194
vn -0.296884 -0.645622 0.703585
vn -0.854175 -0.511052 0.095973
vn 0.496509 -0.654715 0.569936
vn 0.723311 -0.615717 -0.312592
vn -0.880606 -0.473497 0.018263
vn -0.436381 -0.026588 0.899369
vn 0.291493 -0.13897 0.946425
vn 0.908229 -0.401772 0.117043
vn 0.137498 -0.623456 -0.769673
vt -0.0033 0.8873
vt 0.0082 0.8921
vt 0.0207 0.9683
vt 0.0147 0.8863
vt 0.0486 0.8763
vt 0.1424 0.9683
vt 0.0681 0.9683
vt 0.1052 0.9975
vt 0.1945 0.9857
vt 0.0921 0.7116
vt 0.1789 0.7116
vt 0.2521 0.7124
vt 0.0486 0.8763
vt 0.0506 0.8745
vt 0.0926 0.7224
vt 0.0921 0.7116
vt 0.7348 0.4439
vt 0.8395 0.4785
vt 0.8473 0.5075
vt 0.7348 0.3704
vt 0.7935 0.425
vt 0.9169 0.4634
vt 0.9464 0.5164
vt 0.8058 0.3217
vt 0.8483 0.3768
vt 0.9035 0.4493
vt 0.9574 0.422
vt 0.9774 0.4752
vt 0.8421 0.2762
vt 0.9003 0.3615
vt 0.8433 0.3702
vt 0.7348 0.2946
vt 0.7289 0.4486
vt 0.6299 0.5139
vt 0.6368 0.4841
vt 0.6291 0.3815
vt 0.5214 0.523
vt 0.5803 0.4558
vt 0.4857 0.4722
vt 0.5214 0.4226
vt 0.5831 0.3658
vt 0.6345 0.2765
vt 0.6335 0.373
vt 0.7289 0.3959
vt 0.7289 0.2957
vt 0.7348 0.4439
vt 0.7348 0.22
vt 0.8091 0.2378
vt 0.6637 0.2373
vt 0.7289 0.2211
vt 0.6692 0.1687
vt 0.7287 0.152
vt 0.8477 0.2472
vt 0.8807 0.2703
vt 0.6004 0.2706
vt 0.6296 0.2469
vt 0.6385 0.1502
vt 0.8021 0.1684
vt 0.8376 0.1529
vt 0.7346 0.1024
vt 0.7766 0.7238
vt 0.7028 0.68
vt 0.7328 0.5646
vt 0.7766 0.7238
vt 0.7311 0.8367
vt 0.7028 0.7985
vt 0.7028 0.7387
vt 0.7028 0.68
vt 0.6437 0.6511
vt 0.6437 0.5994
vt 0.6431 0.8899
vt 0.6437 0.8295
vt 0.6437 0.7357
vt 0.6437 0.6511
vt 0.703 0.68
vt 0.733 0.5646
vt 0.7313 0.8367
vt 0.703 0.7985
vt 0.703 0.7387
vt 0.703 0.68
vt 0.7768 0.7238
vt 0.7768 0.7238
vt 0.7944 0.9261
vt 0.7727 0.9873
vt 0.7944 0.9772
vt 0.8034 0.9556
vt 0.7511 0.9261
vt 0.7421 0.9556
vt 0.7727 0.9318
vt 0.1554 0.1161
vt 0.1828 0.202
vt 0.1962 0.1086
vt 0.119 0.2989
vt 0.1586 0.3017
vt 0.1392 0.3898
vt 0.0836 0.3786
vt 0.1343 0.4355
vt 0.1014 0.4455
vt 0.142 0.5425
vt 0.0763 0.6215
vt 0.2208 0.1045
vt 0.2484 0.1998
vt 0.2366 0.0968
vt 0.2314 0.3152
vt 0.2822 0.3324
vt 0.2396 0.428
vt 0.2102 0.4286
vt 0.2499 0.5646
vt 0.2269 0.525
vt 0.1826 0.2056
vt 0.1958 0.1067
vt 0.1646 0.2992
vt 0.1463 0.3932
vt 0.1401 0.4361
vt 0.1476 0.535
vt 0.1622 0.6377
vt 0.8392 0.0015
vt 0.8761 0.1585
vt 0.8458 0.089
vt 0.9347 0.0175
vt 0.2199 0.1017
vt 0.2368 0.3123
vt 0.2169 0.4278
vt 0.2156 0.5234
vt 0.2853 0.6373
vt 0.2498 0.6341
vt 0.5847 0.0117
vt 0.6454 0.0846
vt 0.6008 0.0854
vt 0.6462 0.0148
vt 0.2484 0.0004
vt 0.2067 0.0004
vt 0.219 0.0004
vt 0.5527 0.0153
vt 0.6044 0.1402
vt 0.0882 0.0769
vt -0.0002 0.0004
vt 0.0533 0.075
vt 0.0204 0.0004
vt 0.0397 0.0004
vt 0.0877 0.0662
vt 0.3577 0.534
vt 0.4327 0.5306
vt 0.3703 0.5387
vt 0.4267 0.5374
vt 0.3474 0.9823
vt 0.3258 0.9671
vt 0.3494 0.8977
vt 0.3911 0.9955
vt 0.3943 0.9239
vt 0.4668 0.981
vt 0.4465 0.8907
vt 0.3868 0.913
vt 0.3885 0.8675
vt 0.4771 0.9667
vt 0.4481 0.8845
vt 0.3548 0.8326
vt 0.3894 0.8349
vt 0.4394 0.8339
vt 0.3885 0.8302
vt 0.4406 0.8322
vt 0.3416 0.7658
vt 0.3955 0.7783
vt 0.4478 0.7712
vt 0.3946 0.7588
vt 0.4521 0.7667
vt 0.3709 0.6659
vt 0.3995 0.6666
vt 0.4305 0.6635
vt 0.4038 0.6629
vt 0.4356 0.6629
vt 0.3629 0.6415
vt 0.3836 0.6392
vt 0.4321 0.6289
vt 0.4379 0.6255
vt 0.3602 0.5908
vt 0.3728 0.598
vt 0.4294 0.5938
vt 0.4352 0.5873
vt 0.372 0.5837
vt 0.4286 0.5803
vt 0.3404 0.59
vt 0.3539 0.5888
vt 0.3465 0.5842
vt 0.3721 0.6378
vt 0.3489 0.627
vt 0.3593 0.6124
vt 0.8478 0.5075
vt 0.84 0.4785
vt 0.794 0.425
vt 0.9468 0.5164
vt 0.9174 0.4634
vt 0.8487 0.3768
vt 0.8063 0.3217
vt 0.904 0.4493
vt 0.9779 0.4752
vt 0.9579 0.422
vt 0.9008 0.3615
vt 0.8426 0.2762
vt 0.8437 0.3702
vt 0.6363 0.4841
vt 0.6294 0.5139
vt 0.6286 0.3815
vt 0.5798 0.4558
vt 0.5209 0.523
vt 0.5209 0.4226
vt 0.4853 0.4722
vt 0.634 0.2765
vt 0.5826 0.3658
vt 0.633 0.373
vt 0.8096 0.2378
vt 0.6632 0.2373
vt 0.6688 0.1687
vt 0.8481 0.2472
vt 0.8812 0.2703
vt 0.5999 0.2706
vt 0.6291 0.2469
vt 0.6381 0.1502
vt 0.838 0.1529
vt 0.8026 0.1684
vt 0.7766 0.7238
vt 0.7328 0.5646
vt 0.7028 0.68
vt 0.7766 0.7238
vt 0.7028 0.7985
vt 0.7311 0.8367
vt 0.7028 0.7387
vt 0.7028 0.68
vt 0.6437 0.5994
vt 0.6437 0.6511
vt 0.6437 0.8295
vt 0.6431 0.8899
vt 0.6437 0.7357
vt 0.6437 0.6511
vt 0.733 0.5646
vt 0.703 0.68
vt 0.703 0.7985
vt 0.7313 0.8367
vt 0.703 0.7387
vt 0.703 0.68
vt 0.7768 0.7238
vt 0.7768 0.7238
vt 0.7944 0.9261
vt 0.7944 0.9772
vt 0.7727 0.9873
vt 0.8034 0.9556
vt 0.7511 0.9261
vt 0.7421 0.9556
vt 0.7511 0.9772
vt 0.7727 0.9318
vt 0.1554 0.1161
vt 0.1962 0.1086
vt 0.1828 0.202
vt 0.119 0.2989
vt 0.1586 0.3017
vt 0.1392 0.3898
vt 0.0836 0.3786
vt 0.1343 0.4355
vt 0.1014 0.4455
vt 0.142 0.5425
vt 0.0763 0.6215
vt 0.2208 0.1045
vt 0.2366 0.0968
vt 0.2484 0.1998
vt 0.2314 0.3152
vt 0.2822 0.3324
vt 0.2396 0.428
vt 0.2102 0.4286
vt 0.2499 0.5646
vt 0.2269 0.525
vt 0.1826 0.2056
vt 0.1958 0.1067
vt 0.1646 0.2992
vt 0.1463 0.3932
vt 0.1401 0.4361
vt 0.1476 0.535
vt 0.1622 0.6377
vt 0.8395 0.0015
vt 0.846 0.089
vt 0.8764 0.1585
vt 0.935 0.0175
vt 0.2199 0.1017
vt 0.2368 0.3123
vt 0.2169 0.4278
vt 0.2156 0.5234
vt 0.2498 0.6341
vt 0.2853 0.6373
vt 0.5844 0.0117
vt 0.6005 0.0855
vt 0.6451 0.0846
vt 0.646 0.0148
vt 0.2484 0.0004
vt 0.219 0.0004
vt 0.2067 0.0004
vt 0.5524 0.0153
vt 0.6042 0.1402
vt 0.0882 0.0769
vt 0.0533 0.075
vt -0.0002 0.0004
vt 0.0204 0.0004
vt 0.0877 0.0662
vt 0.0397 0.0004
vt 0.3577 0.534
vt 0.3703 0.5386
vt 0.4327 0.5306
vt 0.4267 0.5374
vt 0.3474 0.9823
vt 0.3494 0.8976
vt 0.3258 0.967
vt 0.3911 0.9955
vt 0.3943 0.9238
vt 0.4668 0.9809
vt 0.4465 0.8907
vt 0.3885 0.8674
vt 0.3868 0.9129
vt 0.4481 0.8845
vt 0.4771 0.9666
vt 0.3548 0.8325
vt 0.3894 0.8348
vt 0.4394 0.8339
vt 0.3885 0.8302
vt 0.4406 0.8322
vt 0.3416 0.7658
vt 0.3955 0.7783
vt 0.4478 0.7711
vt 0.3946 0.7588
vt 0.4521 0.7666
vt 0.3709 0.6659
vt 0.3995 0.6666
vt 0.4305 0.6635
vt 0.4038 0.6628
vt 0.4356 0.6629
vt 0.3629 0.6414
vt 0.3836 0.6402
vt 0.4321 0.6288
vt 0.4379 0.6255
vt 0.3602 0.5907
vt 0.3728 0.599
vt 0.4294 0.5927
vt 0.4352 0.5873
vt 0.372 0.5847
vt 0.4286 0.5802
vt 0.3404 0.59
vt 0.3465 0.5841
vt 0.3539 0.5888
vt 0.3721 0.6377
vt 0.3489 0.627
vt 0.3593 0.6124
vt 0.3772 0.5004
vt 0.2917 0.3704
vt 0.2862 0.5413
vt 0.362 0.3451
vt 0.3132 0.2926
vt 0.367 0.2753
vt 0.3508 0.2326
vt 0.4269 0.1731
vt 0.4332 0.2023
vt 0.4819 0.1621
vt 0.4927 0.1752
vt 0.5547 0.1462
vt 0.4003 0.4901
vt 0.2917 0.3704
vt 0.3774 0.3381
vt 0.2862 0.5413
vt 0.3132 0.2926
vt 0.3779 0.2704
vt 0.3508 0.2326
vt 0.4269 0.1731
vt 0.4404 0.1991
vt 0.4819 0.1621
vt 0.4975 0.1731
vt 0.5547 0.1462
vt 0.3772 0.5004
vt 0.3774 0.3381
vt 0.362 0.3451
vt 0.4003 0.4901
vt 0.3779 0.2704
vt 0.367 0.2753
vt 0.4404 0.1991
vt 0.4332 0.2023
vt 0.4975 0.1731
vt 0.4927 0.1752
vt 0.5547 0.1462
vt 0.4032 0.4945
vt 0.2822 0.4506
vt 0.2787 0.5463
vt 0.387 0.3736
vt 0.2881 0.3661
vt 0.3476 0.2257
vt 0.396 0.251
vt 0.4248 0.1654
vt 0.4539 0.1968
vt 0.5384 0.144
vt 0.383 0.4997
vt 0.2822 0.4506
vt 0.3735 0.3826
vt 0.2787 0.5463
vt 0.2881 0.3661
vt 0.3476 0.2257
vt 0.3822 0.2448
vt 0.4248 0.1654
vt 0.4366 0.2007
vt 0.5384 0.144
vt 0.4032 0.4945
vt 0.3735 0.3826
vt 0.387 0.3736
vt 0.383 0.4997
vt 0.3822 0.2448
vt 0.396 0.251
vt 0.4366 0.2007
vt 0.4539 0.1968
vt 0.5384 0.144
vt 0.2787 0.5463
vt 0.383 0.4997
vt 0.4032 0.4945
vt 0.3769 0.4996
vt 0.2859 0.5405
vt 0.2914 0.3696
vt 0.3617 0.3442
vt 0.3129 0.2918
vt 0.3667 0.2745
vt 0.3505 0.2318
vt 0.4267 0.1723
vt 0.4329 0.2015
vt 0.4816 0.1612
vt 0.4924 0.1744
vt 0.5544 0.1454
vt 0.4 0.4893
vt 0.3771 0.3373
vt 0.2914 0.3696
vt 0.2859 0.5405
vt 0.3776 0.2696
vt 0.3129 0.2918
vt 0.3505 0.2318
vt 0.4401 0.1983
vt 0.4267 0.1723
vt 0.4972 0.1722
vt 0.4816 0.1612
vt 0.5544 0.1454
vt 0.3769 0.4996
vt 0.3617 0.3442
vt 0.3771 0.3373
vt 0.4 0.4893
vt 0.3667 0.2745
vt 0.3776 0.2696
vt 0.4329 0.2015
vt 0.4401 0.1983
vt 0.4924 0.1744
vt 0.4972 0.1722
vt 0.5544 0.1454
vt 0.4029 0.4932
vt 0.2784 0.545
vt 0.2819 0.4493
vt 0.3867 0.3723
vt 0.2877 0.3648
vt 0.3472 0.2244
vt 0.3956 0.2497
vt 0.4245 0.1641
vt 0.4535 0.1955
vt 0.5381 0.1427
vt 0.3827 0.4984
vt 0.3732 0.3813
vt 0.2819 0.4493
vt 0.2784 0.545
vt 0.2877 0.3648
vt 0.3818 0.2435
vt 0.3472 0.2244
vt 0.4363 0.1994
vt 0.4245 0.1641
vt 0.5381 0.1427
vt 0.4029 0.4932
vt 0.3867 0.3723
vt 0.3732 0.3813
vt 0.3827 0.4984
vt 0.3956 0.2497
vt 0.3818 0.2435
vt 0.4535 0.1955
vt 0.4363 0.1994
vt 0.5381 0.1427
vt 0.2784 0.545
vt 0.4029 0.4932
vt 0.3827 0.4984
vt 0.2862 0.5413
vt 0.4003 0.4901
vt 0.3772 0.5004
vt 0.2859 0.5405
vt 0.3769 0.4996
vt 0.4 0.4893
vt 0.0082 0.8921
vt 0.0147 0.8863
vt 0.0486 0.8763
vt 0.0681 0.9683
vt 0.1424 0.9683
vt 0.0921 0.7116
vt 0.1789 0.7116
vt 0.0486 0.8763
vt 0.0921 0.7116
vt 0.0486 0.8763
vt 0.0082 0.8921
vt 0.0506 0.8745
vt 0.0506 0.8745
vt 0.0082 0.8921
vt 0.0486 0.8763
vt 0.6988 0.4639
vt 0.7349 0.4639
vt 0.7349 0.5361
vt 0.7055 0.5361
vt 0.7709 0.4639
vt 0.7642 0.5361
vt 0.7287 0.0842
vt 0.7377 0.0009
vt 0.7371 0.0009
vt 0.7367 0.0056
vt 0.7373 0.0056
vt 0.7439 0.0128
vt 0.7137 0.0128
vt 0.2747 0.6239
vt 0.2747 0.6239
vt 0.1059 0.6288
vt 0.1059 0.6288
vt 0.3772 0.5004
vt 0.2917 0.3704
vt 0.2862 0.5413
vt 0.362 0.3451
vt 0.3132 0.2926
vt 0.367 0.2753
vt 0.3508 0.2326
vt 0.4269 0.1731
vt 0.4332 0.2023
vt 0.4819 0.1621
vt 0.4927 0.1752
vt 0.5547 0.1462
vt 0.4003 0.4901
vt 0.2917 0.3704
vt 0.3774 0.3381
vt 0.2862 0.5413
vt 0.3132 0.2926
vt 0.3779 0.2704
vt 0.3508 0.2326
vt 0.4269 0.1731
vt 0.4404 0.1991
vt 0.4819 0.1621
vt 0.4975 0.1731
vt 0.5547 0.1462
vt 0.3772 0.5004
vt 0.3774 0.3381
vt 0.362 0.3451
vt 0.4003 0.4901
vt 0.3779 0.2704
vt 0.367 0.2753
vt 0.4404 0.1991
vt 0.4332 0.2023
vt 0.4975 0.1731
vt 0.4927 0.1752
vt 0.5547 0.1462
vt 0.3769 0.4996
vt 0.2859 0.5405
vt 0.2914 0.3696
vt 0.3617 0.3442
vt 0.3129 0.2918
vt 0.3667 0.2745
vt 0.3505 0.2318
vt 0.4267 0.1723
vt 0.4329 0.2015
vt 0.4816 0.1612
vt 0.4924 0.1744
vt 0.5544 0.1454
vt 0.4 0.4893
vt 0.3771 0.3373
vt 0.2914 0.3696
vt 0.2859 0.5405
vt 0.3776 0.2696
vt 0.3129 0.2918
vt 0.3505 0.2318
vt 0.4401 0.1983
vt 0.4267 0.1723
vt 0.4972 0.1722
vt 0.4816 0.1612
vt 0.5544 0.1454
vt 0.3769 0.4996
vt 0.3617 0.3442
vt 0.3771 0.3373
vt 0.4 0.4893
vt 0.3667 0.2745
vt 0.3776 0.2696
vt 0.4329 0.2015
vt 0.4401 0.1983
vt 0.4924 0.1744
vt 0.4972 0.1722
vt 0.5544 0.1454
vt 0.4032 0.4945
vt 0.2822 0.4506
vt 0.2787 0.5463
vt 0.387 0.3736
vt 0.2881 0.3661
vt 0.3476 0.2257
vt 0.396 0.251
vt 0.4248 0.1654
vt 0.4539 0.1968
vt 0.5384 0.144
vt 0.383 0.4997
vt 0.2822 0.4506
vt 0.3735 0.3826
vt 0.2787 0.5463
vt 0.2881 0.3661
vt 0.3476 0.2257
vt 0.3822 0.2448
vt 0.4248 0.1654
vt 0.4366 0.2007
vt 0.5384 0.144
vt 0.4032 0.4945
vt 0.3735 0.3826
vt 0.387 0.3736
vt 0.383 0.4997
vt 0.3822 0.2448
vt 0.396 0.251
vt 0.4366 0.2007
vt 0.4539 0.1968
vt 0.5384 0.144
vt 0.4029 0.4932
vt 0.2784 0.545
vt 0.2819 0.4493
vt 0.3867 0.3723
vt 0.2877 0.3648
vt 0.3472 0.2244
vt 0.3956 0.2497
vt 0.4245 0.1641
vt 0.4535 0.1955
vt 0.5381 0.1427
vt 0.3827 0.4984
vt 0.3732 0.3813
vt 0.2819 0.4493
vt 0.2784 0.545
vt 0.2877 0.3648
vt 0.3818 0.2435
vt 0.3472 0.2244
vt 0.4363 0.1994
vt 0.4245 0.1641
vt 0.5381 0.1427
vt 0.4029 0.4932
vt 0.3867 0.3723
vt 0.3732 0.3813
vt 0.3827 0.4984
vt 0.3956 0.2497
vt 0.3818 0.2435
vt 0.4535 0.1955
vt 0.4363 0.1994
vt 0.5381 0.1427
vt 0.6988 0.4639
vt 0.7349 0.4639
vt 0.7349 0.5361
vt 0.7055 0.5361
vt 0.7709 0.4639
vt 0.7642 0.5361
vt 0.9357 1.004
vt 0.887 0.9873
vt 0.8929 0.9875
vt 0.9188 0.9875
vt 0.9526 0.9875
vt 0.9785 0.9875
vt 0.9843 0.9873
vt 0.8686 0.9534
vt 0.8779 0.9587
vt 0.9098 0.9538
vt 0.9616 0.9538
vt 0.9903 0.9537
vt 1.0041 0.9507
vt 0.8726 0.9126
vt 0.8802 0.9023
vt 0.8797 0.9505
vt 0.8861 0.9177
vt 0.9262 0.9158
vt 0.9452 0.9158
vt 0.9852 0.9177
vt 0.9886 0.9455
vt 0.9911 0.9023
vt 0.9987 0.9126
vt 0.9357 0.8382
vt 0.9183 0.8371
vt 0.8955 0.8433
vt 0.9531 0.8371
vt 0.9759 0.8433
vt 0.8854 0.875
vt 0.919 0.8763
vt 0.9523 0.8763
vt 0.9859 0.875
vt 0.9357 0.8792
f 1/1/1 3/3/3 2/2/2
f 1/1/1 2/2/2 4/4/4
f 5/5/5 7/7/7 6/6/6
f 8/8/8 7/7/7 3/3/3
f 8/8/8 6/6/6 7/7/7
f 8/8/8 9/9/9 6/6/6
f 6/6/6 10/10/10 5/5/5
f 10/10/10 6/6/6 11/11/11
f 9/9/9 11/11/11 6/6/6
f 11/11/11 9/9/9 12/12/12
f 13/13/13 15/15/15 14/14/14
f 15/15/15 13/13/13 16/16/16
f 17/17/17 19/19/19 18/18/18
f 17/17/17 21/21/21 20/20/20
f 17/17/17 18/18/18 21/21/21
f 18/18/18 23/23/23 22/22/22
f 18/18/18 19/19/19 23/23/23
f 20/20/20 25/25/25 24/24/24
f 20/20/20 21/21/21 25/25/25
f 21/21/21 26/26/26 25/25/25
f 21/21/21 18/18/18 26/26/26
f 18/18/18 22/22/22 26/26/26
f 22/22/22 28/28/28 27/27/27
f 22/22/22 23/23/23 28/28/28
f 24/24/24 30/30/30 29/29/29
f 24/24/24 25/25/25 30/30/30
f 25/25/25 27/27/27 30/30/30
f 25/25/25 26/26/26 27/27/27
f 26/26/26 22/22/22 27/27/27
f 31/31/31 27/27/27 28/28/28
f 31/31/31 29/29/29 30/30/30
f 31/31/31 30/30/30 27/27/27
f 24/24/24 32/32/32 20/20/20
f 29/29/29 32/32/32 24/24/24
f 33/33/33 35/35/35 34/34/34
f 33/33/33 36/36/36 35/35/35
f 35/35/35 38/38/38 37/37/37
f 35/35/35 37/37/37 34/34/34
f 36/36/36 38/38/38 35/35/35
f 38/38/38 40/40/40 39/39/39
f 38/38/38 39/39/39 37/37/37
f 36/36/36 42/42/42 41/41/41
f 36/36/36 41/41/41 40/40/40
f 36/36/36 40/40/40 38/38/38
f 43/43/43 39/39/39 40/40/40
f 43/43/43 41/41/41 42/42/42
f 43/43/43 40/40/40 41/41/41
f 44/44/44 45/45/45 36/36/36
f 45/45/45 42/42/42 36/36/36
f 19/19/19 17/17/17 46/46/46
f 29/29/29 47/47/47 32/32/32
f 47/47/47 29/29/29 48/48/48
f 45/45/45 49/49/49 42/42/42
f 49/49/49 45/45/45 50/50/50
f 50/50/50 51/51/51 49/49/49
f 51/51/51 50/50/50 52/52/52
f 29/29/29 53/53/53 48/48/48
f 53/53/53 29/29/29 54/54/54
f 49/49/49 55/55/55 42/42/42
f 55/55/55 49/49/49 56/56/56
f 51/51/51 56/56/56 49/49/49
f 56/56/56 51/51/51 57/57/57
f 48/48/48 59/59/59 58/58/58
f 59/59/59 48/48/48 53/53/53
f 42/42/42 55/55/55 43/43/43
f 54/54/54 29/29/29 31/31/31
f 58/58/58 60/60/60 47/47/47
f 48/48/48 58/58/58 47/47/47
f 61/61/61 63/63/63 62/62/62
f 64/64/64 66/66/66 65/65/65
f 64/64/64 67/67/67 66/66/66
f 64/64/64 68/68/68 67/67/67
f 62/62/62 70/70/70 69/69/69
f 62/62/62 63/63/63 70/70/70
f 65/65/65 72/72/72 71/71/71
f 65/65/65 66/66/66 72/72/72
f 66/66/66 73/73/73 72/72/72
f 66/66/66 67/67/67 73/73/73
f 67/67/67 74/74/74 73/73/73
f 67/67/67 68/68/68 74/74/74
f 69/69/69 76/76/76 75/75/75
f 69/69/69 70/70/70 76/76/76
f 71/71/71 78/78/78 77/77/77
f 71/71/71 72/72/72 78/78/78
f 72/72/72 79/79/79 78/78/78
f 72/72/72 73/73/73 79/79/79
f 73/73/73 80/80/80 79/79/79
f 73/73/73 74/74/74 80/80/80
f 81/81/81 75/75/75 76/76/76
f 82/82/82 77/77/77 78/78/78
f 82/82/82 78/78/78 79/79/79
f 82/82/82 79/79/79 80/80/80
f 83/83/83 85/85/85 84/84/84
f 85/85/85 83/83/83 86/86/86
f 87/87/87 84/84/84 88/88/88
f 82/82/82 71/71/71 77/77/77
f 83/83/83 84/84/84 89/89/89
f 89/89/89 84/84/84 87/87/87
f 90/90/90 92/92/92 91/91/91
f 91/91/91 93/93/93 90/90/90
f 93/93/93 91/91/91 94/94/94
f 93/93/93 94/94/94 95/95/95
f 95/95/95 96/96/96 93/93/93
f 96/96/96 95/95/95 97/97/97
f 97/97/97 98/98/98 96/96/96
f 98/98/98 97/97/97 99/99/99
f 99/99/99 100/100/100 98/98/98
f 101/101/101 103/103/103 102/102/102
f 102/102/102 104/104/104 101/101/101
f 104/104/104 102/102/102 105/105/105
f 104/104/104 105/105/105 106/106/106
f 106/106/106 107/107/107 104/104/104
f 107/107/107 106/106/106 108/108/108
f 108/108/108 109/109/109 107/107/107
f 90/90/90 93/93/93 110/110/110
f 110/110/110 111/111/111 90/90/90
f 112/112/112 110/110/110 93/93/93
f 93/93/93 96/96/96 113/113/113
f 113/113/113 112/112/112 93/93/93
f 96/96/96 98/98/98 114/114/114
f 114/114/114 113/113/113 96/96/96
f 98/98/98 100/100/100 115/115/115
f 115/115/115 114/114/114 98/98/98
f 116/116/116 115/115/115 100/100/100
f 117/117/117 119/119/119 118/118/118
f 118/118/118 120/120/120 117/117/117
f 121/121/121 122/122/122 102/102/102
f 102/102/102 103/103/103 121/121/121
f 105/105/105 102/102/102 122/122/122
f 122/122/122 123/123/123 106/106/106
f 106/106/106 105/105/105 122/122/122
f 123/123/123 124/124/124 108/108/108
f 108/108/108 106/106/106 123/123/123
f 124/124/124 126/126/126 125/125/125
f 125/125/125 108/108/108 124/124/124
f 127/127/127 129/129/129 128/128/128
f 128/128/128 130/130/130 127/127/127
f 119/119/119 59/59/59 118/118/118
f 128/128/128 129/129/129 51/51/51
f 131/131/131 133/133/133 132/132/132
f 101/101/101 104/104/104 91/91/91
f 91/91/91 92/92/92 101/101/101
f 94/94/94 91/91/91 104/104/104
f 104/104/104 107/107/107 95/95/95
f 95/95/95 94/94/94 104/104/104
f 97/97/97 95/95/95 107/107/107
f 107/107/107 109/109/109 99/99/99
f 99/99/99 97/97/97 107/107/107
f 122/122/122 121/121/121 111/111/111
f 111/111/111 110/110/110 122/122/122
f 110/110/110 112/112/112 122/122/122
f 123/123/123 122/122/122 112/112/112
f 112/112/112 113/113/113 123/123/123
f 113/113/113 114/114/114 123/123/123
f 124/124/124 123/123/123 114/114/114
f 114/114/114 115/115/115 124/124/124
f 126/126/126 124/124/124 115/115/115
f 115/115/115 116/116/116 126/126/126
f 129/129/129 127/127/127 134/134/134
f 134/134/134 135/135/135 129/129/129
f 51/51/51 129/129/129 135/135/135
f 135/135/135 57/57/57 51/51/51
f 136/136/136 138/138/138 137/137/137
f 137/137/137 139/139/139 136/136/136
f 138/138/138 141/141/141 140/140/140
f 140/140/140 137/137/137 138/138/138
f 121/121/121 103/103/103 131/131/131
f 131/131/131 132/132/132 121/121/121
f 101/101/101 92/92/92 133/133/133
f 111/111/111 121/121/121 132/132/132
f 90/90/90 136/136/136 92/92/92
f 136/136/136 90/90/90 138/138/138
f 111/111/111 138/138/138 90/90/90
f 138/138/138 111/111/111 141/141/141
f 92/92/92 139/139/139 133/133/133
f 139/139/139 92/92/92 136/136/136
f 132/132/132 141/141/141 111/111/111
f 141/141/141 132/132/132 140/140/140
f 101/101/101 131/131/131 103/103/103
f 131/131/131 101/101/101 133/133/133
f 142/142/142 144/144/144 143/143/143
f 145/145/145 143/143/143 144/144/144
f 146/146/146 148/148/148 147/147/147
f 149/149/149 148/148/148 146/146/146
f 148/148/148 149/149/149 150/150/150
f 151/151/151 150/150/150 149/149/149
f 150/150/150 151/151/151 152/152/152
f 147/147/147 154/154/154 153/153/153
f 154/154/154 147/147/147 148/148/148
f 153/153/153 156/156/156 155/155/155
f 156/156/156 153/153/153 154/154/154
f 155/155/155 152/152/152 151/151/151
f 152/152/152 155/155/155 156/156/156
f 150/150/150 157/157/157 148/148/148
f 157/157/157 150/150/150 158/158/158
f 152/152/152 158/158/158 150/150/150
f 158/158/158 152/152/152 159/159/159
f 148/148/148 160/160/160 154/154/154
f 160/160/160 148/148/148 157/157/157
f 154/154/154 161/161/161 156/156/156
f 161/161/161 154/154/154 160/160/160
f 156/156/156 159/159/159 152/152/152
f 159/159/159 156/156/156 161/161/161
f 158/158/158 162/162/162 157/157/157
f 162/162/162 158/158/158 163/163/163
f 159/159/159 163/163/163 158/158/158
f 163/163/163 159/159/159 164/164/164
f 157/157/157 165/165/165 160/160/160
f 165/165/165 157/157/157 162/162/162
f 161/161/161 164/164/164 159/159/159
f 164/164/164 161/161/161 166/166/166
f 163/163/163 167/167/167 162/162/162
f 167/167/167 163/163/163 168/168/168
f 164/164/164 168/168/168 163/163/163
f 168/168/168 164/164/164 169/169/169
f 162/162/162 170/170/170 165/165/165
f 170/170/170 162/162/162 167/167/167
f 166/166/166 169/169/169 164/164/164
f 169/169/169 166/166/166 171/171/171
f 160/160/160 166/166/166 161/161/161
f 160/160/160 165/165/165 166/166/166
f 165/165/165 171/171/171 166/166/166
f 165/165/165 170/170/170 171/171/171
f 168/168/168 172/172/172 167/167/167
f 172/172/172 168/168/168 173/173/173
f 169/169/169 173/173/173 168/168/168
f 173/173/173 169/169/169 174/174/174
f 170/170/170 175/175/175 171/171/171
f 171/171/171 174/174/174 169/169/169
f 174/174/174 171/171/171 175/175/175
f 173/173/173 176/176/176 172/172/172
f 176/176/176 173/173/173 177/177/177
f 174/174/174 177/177/177 173/173/173
f 177/177/177 174/174/174 178/178/178
f 172/172/172 179/179/179 175/175/175
f 179/179/179 172/172/172 176/176/176
f 175/175/175 178/178/178 174/174/174
f 178/178/178 175/175/175 179/179/179
f 176/176/176 177/177/177 180/180/180
f 178/178/178 180/180/180 177/177/177
f 180/180/180 178/178/178 181/181/181
f 179/179/179 181/181/181 178/178/178
f 180/180/180 142/142/142 176/176/176
f 142/142/142 180/180/180 144/144/144
f 181/181/181 144/144/144 180/180/180
f 144/144/144 181/181/181 145/145/145
f 176/176/176 143/143/143 179/179/179
f 143/143/143 176/176/176 142/142/142
f 179/179/179 145/145/145 181/181/181
f 145/145/145 179/179/179 143/143/143
f 172/172/172 175/175/175 170/170/170
f 182/182/182 184/184/184 183/183/183
f 167/167/167 185/185/185 170/170/170
f 185/185/185 167/167/167 186/186/186
f 172/172/172 186/186/186 167/167/167
f 186/186/186 172/172/172 187/187/187
f 170/170/170 187/187/187 172/172/172
f 187/187/187 170/170/170 185/185/185
f 186/186/186 183/183/183 185/185/185
f 183/183/183 186/186/186 182/182/182
f 185/185/185 184/184/184 187/187/187
f 184/184/184 185/185/185 183/183/183
f 187/187/187 182/182/182 186/186/186
f 182/182/182 187/187/187 184/184/184
f 137/137/137 140/140/140 139/139/139
f 140/140/140 133/133/133 139/139/139
f 140/140/140 132/132/132 133/133/133
f 17/17/17 189/189/189 188/188/188
f 17/17/17 20/20/20 190/190/190
f 17/17/17 190/190/190 189/189/189
f 189/189/189 192/192/192 191/191/191
f 189/189/189 191/191/191 188/188/188
f 20/20/20 194/194/194 193/193/193
f 20/20/20 193/193/193 190/190/190
f 190/190/190 193/193/193 195/195/195
f 190/190/190 195/195/195 189/189/189
f 189/189/189 195/195/195 192/192/192
f 192/192/192 197/197/197 196/196/196
f 192/192/192 196/196/196 191/191/191
f 194/194/194 199/199/199 198/198/198
f 194/194/194 198/198/198 193/193/193
f 193/193/193 198/198/198 197/197/197
f 193/193/193 197/197/197 195/195/195
f 195/195/195 197/197/197 192/192/192
f 200/200/200 196/196/196 197/197/197
f 200/200/200 198/198/198 199/199/199
f 200/200/200 197/197/197 198/198/198
f 194/194/194 20/20/20 32/32/32
f 199/199/199 194/194/194 32/32/32
f 33/33/33 202/202/202 201/201/201
f 33/33/33 203/203/203 44/44/44
f 33/33/33 201/201/201 203/203/203
f 201/201/201 205/205/205 204/204/204
f 201/201/201 202/202/202 205/205/205
f 203/203/203 201/201/201 204/204/204
f 204/204/204 207/207/207 206/206/206
f 204/204/204 205/205/205 207/207/207
f 203/203/203 209/209/209 208/208/208
f 203/203/203 206/206/206 209/209/209
f 203/203/203 204/204/204 206/206/206
f 210/210/210 206/206/206 207/207/207
f 210/210/210 208/208/208 209/209/209
f 210/210/210 209/209/209 206/206/206
f 44/44/44 203/203/203 45/45/45
f 45/45/45 203/203/203 208/208/208
f 188/188/188 46/46/46 17/17/17
f 199/199/199 32/32/32 47/47/47
f 47/47/47 211/211/211 199/199/199
f 45/45/45 208/208/208 212/212/212
f 212/212/212 50/50/50 45/45/45
f 50/50/50 212/212/212 213/213/213
f 213/213/213 52/52/52 50/50/50
f 199/199/199 211/211/211 214/214/214
f 214/214/214 215/215/215 199/199/199
f 212/212/212 208/208/208 216/216/216
f 216/216/216 217/217/217 212/212/212
f 213/213/213 212/212/212 217/217/217
f 217/217/217 218/218/218 213/213/213
f 211/211/211 220/220/220 219/219/219
f 219/219/219 214/214/214 211/211/211
f 208/208/208 210/210/210 216/216/216
f 215/215/215 200/200/200 199/199/199
f 220/220/220 47/47/47 60/60/60
f 211/211/211 47/47/47 220/220/220
f 221/221/221 223/223/223 222/222/222
f 224/224/224 226/226/226 225/225/225
f 224/224/224 225/225/225 227/227/227
f 224/224/224 227/227/227 228/228/228
f 223/223/223 230/230/230 229/229/229
f 223/223/223 229/229/229 222/222/222
f 226/226/226 232/232/232 231/231/231
f 226/226/226 231/231/231 225/225/225
f 225/225/225 231/231/231 233/233/233
f 225/225/225 233/233/233 227/227/227
f 227/227/227 233/233/233 234/234/234
f 227/227/227 234/234/234 228/228/228
f 230/230/230 236/236/236 235/235/235
f 230/230/230 235/235/235 229/229/229
f 232/232/232 238/238/238 237/237/237
f 232/232/232 237/237/237 231/231/231
f 231/231/231 237/237/237 239/239/239
f 231/231/231 239/239/239 233/233/233
f 233/233/233 239/239/239 240/240/240
f 233/233/233 240/240/240 234/234/234
f 241/241/241 235/235/235 236/236/236
f 242/242/242 237/237/237 238/238/238
f 242/242/242 239/239/239 237/237/237
f 242/242/242 240/240/240 239/239/239
f 243/243/243 245/245/245 244/244/244
f 244/244/244 246/246/246 243/243/243
f 247/247/247 248/248/248 245/245/245
f 248/248/248 249/249/249 245/245/245
f 243/243/243 250/250/250 245/245/245
f 250/250/250 247/247/247 245/245/245
f 251/251/251 253/253/253 252/252/252
f 253/253/253 251/251/251 254/254/254
f 254/254/254 255/255/255 253/253/253
f 254/254/254 256/256/256 255/255/255
f 256/256/256 254/254/254 257/257/257
f 257/257/257 258/258/258 256/256/256
f 258/258/258 257/257/257 259/259/259
f 259/259/259 260/260/260 258/258/258
f 260/260/260 259/259/259 261/261/261
f 262/262/262 264/264/264 263/263/263
f 264/264/264 262/262/262 265/265/265
f 265/265/265 266/266/266 264/264/264
f 265/265/265 267/267/267 266/266/266
f 267/267/267 265/265/265 268/268/268
f 268/268/268 269/269/269 267/267/267
f 269/269/269 268/268/268 270/270/270
f 251/251/251 271/271/271 254/254/254
f 271/271/271 251/251/251 272/272/272
f 273/273/273 254/254/254 271/271/271
f 254/254/254 274/274/274 257/257/257
f 274/274/274 254/254/254 273/273/273
f 257/257/257 275/275/275 259/259/259
f 275/275/275 257/257/257 274/274/274
f 259/259/259 276/276/276 261/261/261
f 276/276/276 259/259/259 275/275/275
f 277/277/277 261/261/261 276/276/276
f 278/278/278 280/280/280 279/279/279
f 280/280/280 278/278/278 281/281/281
f 282/282/282 264/264/264 283/283/283
f 264/264/264 282/282/282 263/263/263
f 266/266/266 283/283/283 264/264/264
f 283/283/283 267/267/267 284/284/284
f 267/267/267 283/283/283 266/266/266
f 284/284/284 269/269/269 285/285/285
f 269/269/269 284/284/284 267/267/267
f 285/285/285 287/287/287 286/286/286
f 287/287/287 285/285/285 269/269/269
f 288/288/288 290/290/290 289/289/289
f 290/290/290 288/288/288 291/291/291
f 279/279/279 280/280/280 219/219/219
f 290/290/290 213/213/213 289/289/289
f 292/292/292 294/294/294 293/293/293
f 262/262/262 253/253/253 265/265/265
f 253/253/253 262/262/262 252/252/252
f 255/255/255 265/265/265 253/253/253
f 265/265/265 256/256/256 268/268/268
f 256/256/256 265/265/265 255/255/255
f 258/258/258 268/268/268 256/256/256
f 268/268/268 260/260/260 270/270/270
f 260/260/260 268/268/268 258/258/258
f 283/283/283 272/272/272 282/282/282
f 272/272/272 283/283/283 271/271/271
f 271/271/271 283/283/283 273/273/273
f 284/284/284 273/273/273 283/283/283
f 273/273/273 284/284/284 274/274/274
f 274/274/274 284/284/284 275/275/275
f 285/285/285 275/275/275 284/284/284
f 275/275/275 285/285/285 276/276/276
f 286/286/286 276/276/276 285/285/285
f 276/276/276 286/286/286 277/277/277
f 289/289/289 295/295/295 288/288/288
f 295/295/295 289/289/289 296/296/296
f 213/213/213 296/296/296 289/289/289
f 296/296/296 213/213/213 218/218/218
f 297/297/297 299/299/299 298/298/298
f 299/299/299 297/297/297 300/300/300
f 298/298/298 302/302/302 301/301/301
f 302/302/302 298/298/298 299/299/299
f 282/282/282 292/292/292 263/263/263
f 292/292/292 282/282/282 294/294/294
f 262/262/262 293/293/293 252/252/252
f 272/272/272 294/294/294 282/282/282
f 251/251/251 252/252/252 297/297/297
f 297/297/297 298/298/298 251/251/251
f 272/272/272 251/251/251 298/298/298
f 298/298/298 301/301/301 272/272/272
f 252/252/252 293/293/293 300/300/300
f 300/300/300 297/297/297 252/252/252
f 294/294/294 272/272/272 301/301/301
f 301/301/301 302/302/302 294/294/294
f 262/262/262 263/263/263 292/292/292
f 292/292/292 293/293/293 262/262/262
f 303/303/303 305/305/305 304/304/304
f 306/306/306 304/304/304 305/305/305
f 307/307/307 309/309/309 308/308/308
f 310/310/310 307/307/307 308/308/308
f 308/308/308 311/311/311 310/310/310
f 312/312/312 310/310/310 311/311/311
f 311/311/311 313/313/313 312/312/312
f 309/309/309 315/315/315 314/314/314
f 314/314/314 308/308/308 309/309/309
f 315/315/315 317/317/317 316/316/316
f 316/316/316 314/314/314 315/315/315
f 317/317/317 312/312/312 313/313/313
f 313/313/313 316/316/316 317/317/317
f 311/311/311 308/308/308 318/318/318
f 318/318/318 319/319/319 311/311/311
f 313/313/313 311/311/311 319/319/319
f 319/319/319 320/320/320 313/313/313
f 308/308/308 314/314/314 321/321/321
f 321/321/321 318/318/318 308/308/308
f 314/314/314 316/316/316 322/322/322
f 322/322/322 321/321/321 314/314/314
f 316/316/316 313/313/313 320/320/320
f 320/320/320 322/322/322 316/316/316
f 319/319/319 318/318/318 323/323/323
f 323/323/323 324/324/324 319/319/319
f 320/320/320 319/319/319 324/324/324
f 324/324/324 325/325/325 320/320/320
f 318/318/318 321/321/321 326/326/326
f 326/326/326 323/323/323 318/318/318
f 322/322/322 320/320/320 325/325/325
f 325/325/325 327/327/327 322/322/322
f 324/324/324 323/323/323 328/328/328
f 328/328/328 329/329/329 324/324/324
f 325/325/325 324/324/324 329/329/329
f 329/329/329 330/330/330 325/325/325
f 323/323/323 326/326/326 331/331/331
f 331/331/331 328/328/328 323/323/323
f 327/327/327 325/325/325 330/330/330
f 330/330/330 332/332/332 327/327/327
f 321/321/321 322/322/322 327/327/327
f 321/321/321 327/327/327 326/326/326
f 326/326/326 327/327/327 332/332/332
f 326/326/326 332/332/332 331/331/331
f 329/329/329 328/328/328 333/333/333
f 333/333/333 334/334/334 329/329/329
f 330/330/330 329/329/329 334/334/334
f 334/334/334 335/335/335 330/330/330
f 331/331/331 332/332/332 336/336/336
f 332/332/332 330/330/330 335/335/335
f 335/335/335 336/336/336 332/332/332
f 334/334/334 333/333/333 337/337/337
f 337/337/337 338/338/338 334/334/334
f 335/335/335 334/334/334 338/338/338
f 338/338/338 339/339/339 335/335/335
f 333/333/333 336/336/336 340/340/340
f 340/340/340 337/337/337 333/333/333
f 336/336/336 335/335/335 339/339/339
f 339/339/339 340/340/340 336/336/336
f 337/337/337 341/341/341 338/338/338
f 339/339/339 338/338/338 341/341/341
f 341/341/341 342/342/342 339/339/339
f 340/340/340 339/339/339 342/342/342
f 341/341/341 337/337/337 303/303/303
f 303/303/303 304/304/304 341/341/341
f 342/342/342 341/341/341 304/304/304
f 304/304/304 306/306/306 342/342/342
f 337/337/337 340/340/340 305/305/305
f 305/305/305 303/303/303 337/337/337
f 340/340/340 342/342/342 306/306/306
f 306/306/306 305/305/305 340/340/340
f 333/333/333 331/331/331 336/336/336
f 343/343/343 345/345/345 344/344/344
f 328/328/328 331/331/331 346/346/346
f 346/346/346 347/347/347 328/328/328
f 333/333/333 328/328/328 347/347/347
f 347/347/347 348/348/348 333/333/333
f 331/331/331 333/333/333 348/348/348
f 348/348/348 346/346/346 331/331/331
f 347/347/347 346/346/346 345/345/345
f 345/345/345 343/343/343 347/347/347
f 346/346/346 348/348/348 344/344/344
f 344/344/344 345/345/345 346/346/346
f 348/348/348 347/347/347 343/343/343
f 343/343/343 344/344/344 348/348/348
f 299/299/299 300/300/300 302/302/302
f 302/302/302 300/300/300 293/293/293
f 302/302/302 293/293/293 294/294/294
f 59/59/59 60/60/60 58/58/58
f 220/220/220 60/60/60 219/219/219
f 349/349/349 351/351/351 350/350/350
f 350/350/350 352/352/352 349/349/349
f 352/352/352 350/350/350 353/353/353
f 353/353/353 354/354/354 352/352/352
f 354/354/354 353/353/353 355/355/355
f 354/354/354 355/355/355 356/356/356
f 356/356/356 357/357/357 354/354/354
f 357/357/357 356/356/356 358/358/358
f 358/358/358 359/359/359 357/357/357
f 359/359/359 358/358/358 360/360/360
f 361/361/361 363/363/363 362/362/362
f 362/362/362 364/364/364 361/361/361
f 363/363/363 366/366/366 365/365/365
f 365/365/365 362/362/362 363/363/363
f 367/367/367 365/365/365 366/366/366
f 366/366/366 369/369/369 368/368/368
f 368/368/368 367/367/367 366/366/366
f 369/369/369 371/371/371 370/370/370
f 370/370/370 368/368/368 369/369/369
f 372/372/372 370/370/370 371/371/371
f 373/373/373 375/375/375 374/374/374
f 374/374/374 376/376/376 373/373/373
f 375/375/375 378/378/378 377/377/377
f 377/377/377 374/374/374 375/375/375
f 378/378/378 380/380/380 379/379/379
f 379/379/379 377/377/377 378/378/378
f 380/380/380 382/382/382 381/381/381
f 381/381/381 379/379/379 380/380/380
f 383/383/383 381/381/381 382/382/382
f 384/384/384 386/386/386 385/385/385
f 385/385/385 387/387/387 384/384/384
f 387/387/387 385/385/385 388/388/388
f 387/387/387 388/388/388 389/389/389
f 389/389/389 390/390/390 387/387/387
f 390/390/390 389/389/389 391/391/391
f 391/391/391 392/392/392 390/390/390
f 392/392/392 391/391/391 393/393/393
f 394/394/394 396/396/396 395/395/395
f 395/395/395 397/397/397 394/394/394
f 398/398/398 395/395/395 396/396/396
f 396/396/396 400/400/400 399/399/399
f 399/399/399 398/398/398 396/396/396
f 400/400/400 402/402/402 401/401/401
f 401/401/401 399/399/399 400/400/400
f 403/403/403 401/401/401 402/402/402
f 404/404/404 406/406/406 405/405/405
f 405/405/405 407/407/407 404/404/404
f 406/406/406 409/409/409 408/408/408
f 408/408/408 405/405/405 406/406/406
f 409/409/409 411/411/411 410/410/410
f 410/410/410 408/408/408 409/409/409
f 412/412/412 410/410/410 411/411/411
f 33/33/33 44/44/44 36/36/36
f 413/413/413 415/415/415 414/414/414
f 416/416/416 418/418/418 417/417/417
f 418/418/418 416/416/416 419/419/419
f 419/419/419 420/420/420 418/418/418
f 420/420/420 419/419/419 421/421/421
f 421/421/421 422/422/422 420/420/420
f 421/421/421 423/423/423 422/422/422
f 423/423/423 421/421/421 424/424/424
f 424/424/424 425/425/425 423/423/423
f 425/425/425 424/424/424 426/426/426
f 426/426/426 427/427/427 425/425/425
f 428/428/428 430/430/430 429/429/429
f 430/430/430 428/428/428 431/431/431
f 429/429/429 433/433/433 432/432/432
f 433/433/433 429/429/429 430/430/430
f 434/434/434 432/432/432 433/433/433
f 432/432/432 436/436/436 435/435/435
f 436/436/436 432/432/432 434/434/434
f 435/435/435 438/438/438 437/437/437
f 438/438/438 435/435/435 436/436/436
f 439/439/439 437/437/437 438/438/438
f 440/440/440 442/442/442 441/441/441
f 442/442/442 440/440/440 443/443/443
f 441/441/441 445/445/445 444/444/444
f 445/445/445 441/441/441 442/442/442
f 444/444/444 447/447/447 446/446/446
f 447/447/447 444/444/444 445/445/445
f 446/446/446 449/449/449 448/448/448
f 449/449/449 446/446/446 447/447/447
f 450/450/450 448/448/448 449/449/449
f 451/451/451 453/453/453 452/452/452
f 453/453/453 451/451/451 454/454/454
f 454/454/454 455/455/455 453/453/453
f 454/454/454 456/456/456 455/455/455
f 456/456/456 454/454/454 457/457/457
f 457/457/457 458/458/458 456/456/456
f 458/458/458 457/457/457 459/459/459
f 459/459/459 460/460/460 458/458/458
f 461/461/461 463/463/463 462/462/462
f 463/463/463 461/461/461 464/464/464
f 465/465/465 462/462/462 463/463/463
f 462/462/462 467/467/467 466/466/466
f 467/467/467 462/462/462 465/465/465
f 466/466/466 469/469/469 468/468/468
f 469/469/469 466/466/466 467/467/467
f 470/470/470 468/468/468 469/469/469
f 471/471/471 473/473/473 472/472/472
f 473/473/473 471/471/471 474/474/474
f 472/472/472 476/476/476 475/475/475
f 476/476/476 472/472/472 473/473/473
f 475/475/475 478/478/478 477/477/477
f 478/478/478 475/475/475 476/476/476
f 479/479/479 477/477/477 478/478/478
f 480/480/480 482/482/482 481/481/481
f 483/483/483 485/485/485 484/484/484
f 486/486/486 488/488/488 487/487/487
f 2/2/2 7/7/7 5/5/5
f 2/2/2 3/3/3 7/7/7
f 1/1/1 489/489/489 3/3/3
f 1/1/1 490/490/490 489/489/489
f 491/491/491 493/493/493 492/492/492
f 8/8/8 3/3/3 492/492/492
f 8/8/8 492/492/492 493/493/493
f 8/8/8 493/493/493 9/9/9
f 493/493/493 491/491/491 494/494/494
f 494/494/494 495/495/495 493/493/493
f 9/9/9 493/493/493 495/495/495
f 495/495/495 12/12/12 9/9/9
f 496/496/496 14/14/14 15/15/15
f 15/15/15 497/497/497 496/496/496
f 489/489/489 491/491/491 492/492/492
f 489/489/489 492/492/492 3/3/3
f 498/498/498 500/500/500 499/499/499
f 501/501/501 503/503/503 502/502/502
f 504/504/504 506/506/506 505/505/505
f 506/506/506 504/504/504 507/507/507
f 505/505/505 509/509/509 508/508/508
f 509/509/509 505/505/505 506/506/506
f 290/290/290 52/52/52 213/213/213
f 290/290/290 291/291/291 510/510/510
f 290/290/290 510/510/510 52/52/52
f 52/52/52 128/128/128 51/51/51
f 52/52/52 510/510/510 128/128/128
f 510/510/510 130/130/130 128/128/128
f 511/511/511 513/513/513 512/512/512
f 511/511/511 514/514/514 513/513/513
f 510/510/510 516/516/516 515/515/515
f 291/291/291 516/516/516 510/510/510
f 287/287/287 269/269/269 517/517/517
f 518/518/518 108/108/108 125/125/125
f 269/269/269 270/270/270 517/517/517
f 518/518/518 109/109/109 108/108/108
f 510/510/510 515/515/515 130/130/130
f 519/519/519 99/99/99 518/518/518
f 518/518/518 99/99/99 109/109/109
f 517/517/517 260/260/260 520/520/520
f 260/260/260 517/517/517 270/270/270
f 60/60/60 279/279/279 219/219/219
f 279/279/279 60/60/60 278/278/278
f 60/60/60 119/119/119 117/117/117
f 119/119/119 60/60/60 59/59/59
f 60/60/60 513/513/513 514/514/514
f 117/117/117 513/513/513 60/60/60
f 519/519/519 100/100/100 99/99/99
f 520/520/520 260/260/260 261/261/261
f 60/60/60 514/514/514 278/278/278
f 521/521/521 523/523/523 522/522/522
f 522/522/522 524/524/524 521/521/521
f 524/524/524 522/522/522 525/525/525
f 525/525/525 526/526/526 524/524/524
f 526/526/526 525/525/525 527/527/527
f 526/526/526 527/527/527 528/528/528
f 528/528/528 529/529/529 526/526/526
f 529/529/529 528/528/528 530/530/530
f 530/530/530 531/531/531 529/529/529
f 531/531/531 530/530/530 532/532/532
f 533/533/533 535/535/535 534/534/534
f 534/534/534 536/536/536 533/533/533
f 535/535/535 538/538/538 537/537/537
f 537/537/537 534/534/534 535/535/535
f 539/539/539 537/537/537 538/538/538
f 538/538/538 541/541/541 540/540/540
f 540/540/540 539/539/539 538/538/538
f 541/541/541 543/543/543 542/542/542
f 542/542/542 540/540/540 541/541/541
f 544/544/544 542/542/542 543/543/543
f 545/545/545 547/547/547 546/546/546
f 546/546/546 548/548/548 545/545/545
f 547/547/547 550/550/550 549/549/549
f 549/549/549 546/546/546 547/547/547
f 550/550/550 552/552/552 551/551/551
f 551/551/551 549/549/549 550/550/550
f 552/552/552 554/554/554 553/553/553
f 553/553/553 551/551/551 552/552/552
f 555/555/555 553/553/553 554/554/554
f 556/556/556 558/558/558 557/557/557
f 558/558/558 556/556/556 559/559/559
f 559/559/559 560/560/560 558/558/558
f 560/560/560 559/559/559 561/561/561
f 561/561/561 562/562/562 560/560/560
f 561/561/561 563/563/563 562/562/562
f 563/563/563 561/561/561 564/564/564
f 564/564/564 565/565/565 563/563/563
f 565/565/565 564/564/564 566/566/566
f 566/566/566 567/567/567 565/565/565
f 568/568/568 570/570/570 569/569/569
f 570/570/570 568/568/568 571/571/571
f 569/569/569 573/573/573 572/572/572
f 573/573/573 569/569/569 570/570/570
f 574/574/574 572/572/572 573/573/573
f 572/572/572 576/576/576 575/575/575
f 576/576/576 572/572/572 574/574/574
f 575/575/575 578/578/578 577/577/577
f 578/578/578 575/575/575 576/576/576
f 579/579/579 577/577/577 578/578/578
f 580/580/580 582/582/582 581/581/581
f 582/582/582 580/580/580 583/583/583
f 581/581/581 585/585/585 584/584/584
f 585/585/585 581/581/581 582/582/582
f 584/584/584 587/587/587 586/586/586
f 587/587/587 584/584/584 585/585/585
f 586/586/586 589/589/589 588/588/588
f 589/589/589 586/586/586 587/587/587
f 590/590/590 588/588/588 589/589/589
f 591/591/591 593/593/593 592/592/592
f 592/592/592 594/594/594 591/591/591
f 594/594/594 592/592/592 595/595/595
f 594/594/594 595/595/595 596/596/596
f 596/596/596 597/597/597 594/594/594
f 597/597/597 596/596/596 598/598/598
f 598/598/598 599/599/599 597/597/597
f 599/599/599 598/598/598 600/600/600
f 601/601/601 603/603/603 602/602/602
f 602/602/602 604/604/604 601/601/601
f 605/605/605 602/602/602 603/603/603
f 603/603/603 607/607/607 606/606/606
f 606/606/606 605/605/605 603/603/603
f 607/607/607 609/609/609 608/608/608
f 608/608/608 606/606/606 607/607/607
f 610/610/610 608/608/608 609/609/609
f 611/611/611 613/613/613 612/612/612
f 612/612/612 614/614/614 611/611/611
f 613/613/613 616/616/616 615/615/615
f 615/615/615 612/612/612 613/613/613
f 616/616/616 618/618/618 617/617/617
f 617/617/617 615/615/615 616/616/616
f 619/619/619 617/617/617 618/618/618
f 620/620/620 622/622/622 621/621/621
f 622/622/622 620/620/620 623/623/623
f 623/623/623 624/624/624 622/622/622
f 623/623/623 625/625/625 624/624/624
f 625/625/625 623/623/623 626/626/626
f 626/626/626 627/627/627 625/625/625
f 627/627/627 626/626/626 628/628/628
f 628/628/628 629/629/629 627/627/627
f 630/630/630 632/632/632 631/631/631
f 632/632/632 630/630/630 633/633/633
f 634/634/634 631/631/631 632/632/632
f 631/631/631 636/636/636 635/635/635
f 636/636/636 631/631/631 634/634/634
f 635/635/635 638/638/638 637/637/637
f 638/638/638 635/635/635 636/636/636
f 639/639/639 637/637/637 638/638/638
f 640/640/640 642/642/642 641/641/641
f 642/642/642 640/640/640 643/643/643
f 641/641/641 645/645/645 644/644/644
f 645/645/645 641/641/641 642/642/642
f 644/644/644 647/647/647 646/646/646
f 647/647/647 644/644/644 645/645/645
f 648/648/648 646/646/646 647/647/647
f 649/649/649 651/651/651 650/650/650
f 651/651/651 649/649/649 652/652/652
f 650/650/650 654/654/654 653/653/653
f 654/654/654 650/650/650 651/651/651
f 655/655/655 657/657/657 656/656/656
f 655/655/655 658/658/658 657/657/657
f 655/655/655 659/659/659 658/658/658
f 655/655/655 660/660/660 659/659/659
f 655/655/655 661/661/661 660/660/660
f 656/656/656 663/663/663 662/662/662
f 656/656/656 657/657/657 663/663/663
f 657/657/657 664/664/664 663/663/663
f 657/657/657 658/658/658 664/664/664
f 658/658/658 665/665/665 664/664/664
f 658/658/658 659/659/659 665/665/665
f 659/659/659 666/666/666 665/665/665
f 659/659/659 660/660/660 666/666/666
f 660/660/660 667/667/667 666/666/666
f 660/660/660 661/661/661 667/667/667
f 662/662/662 669/669/669 668/668/668
f 662/662/662 663/663/663 669/669/669
f 670/670/670 672/672/672 671/671/671
f 670/670/670 664/664/664 672/672/672
f 664/664/664 673/673/673 672/672/672
f 664/664/664 665/665/665 673/673/673
f 665/665/665 674/674/674 673/673/673
f 665/665/665 675/675/675 674/674/674
f 666/666/666 677/677/677 676/676/676
f 666/666/666 667/667/667 677/677/677
f 678/678/678 680/680/680 679/679/679
f 678/678/678 679/679/679 681/681/681
f 678/678/678 681/681/681 682/682/682
f 672/672/672 683/683/683 669/669/669
f 683/683/683 672/672/672 684/684/684
f 673/673/673 684/684/684 672/672/672
f 684/684/684 673/673/673 685/685/685
f 676/676/676 685/685/685 673/673/673
f 685/685/685 676/676/676 686/686/686
f 684/684/684 680/680/680 683/683/683
f 680/680/680 684/684/684 679/679/679
f 683/683/683 678/678/678 687/687/687
f 678/678/678 683/683/683 680/680/680
f 685/685/685 679/679/679 684/684/684
f 679/679/679 685/685/685 681/681/681
f 687/687/687 682/682/682 686/686/686
f 682/682/682 687/687/687 678/678/678
f 686/686/686 681/681/681 685/685/685
f 681/681/681 686/686/686 682/682/682
f 677/677/677 686/686/686 676/676/676
f 686/686/686 677/677/677 687/687/687
f 669/669/669 683/683/683 668/668/668
f 668/668/668 683/683/683 687/687/687
f 664/664/664 670/670/670 663/663/663
f 665/665/665 666/666/666 675/675/675
f 663/663/663 671/671/671 669/669/669
f 671/671/671 663/663/663 670/670/670
f 672/672/672 669/669/669 671/671/671
f 673/673/673 674/674/674 676/676/676
f 676/676/676 675/675/675 666/666/666
f 675/675/675 676/676/676 674/674/674

g boss_eye
# texture: boss_eye.jpg
v -10.14635 167.4465 6.728133
v -2.250551 167.4469 7.942035
v -2.250551 174.6157 8.838161
v -10.14635 174.6153 7.624159
v 5.64515 167.4465 6.728136
v 5.645148 174.6153 7.624166
vn -0.1508 -0.122561 0.980938
vn 0.050798 -0.123853 0.991
vn -0.050798 -0.123853 0.991
vn -0.1508 -0.122561 0.980938
vn 0.150799 -0.122561 0.980938
vn 0.150799 -0.122561 0.980938
vt 0.9873 0.0077
vt 0.0066 0.0077
vt 0.0066 0.9729
vt 0.9873 0.9729
vt 0.9877 0.0077
vt 0.9877 0.9729
f 688/688/688 690/690/690 689/689/689
f 690/690/690 688/688/688 691/691/691
f 689/689/689 693/693/693 692/692/692
f 693/693/693 689/689/689 690/690/690
