# Monster17.bmd — MU geometry at action 0 key 0, exported for MU2
# 1 mesh(es)

g w_merchant_a
# texture: w_merchant_a.jpg
v -6.107752 113.6542 -27.03315
v -10.81032 125.3476 -23.89783
v -3.789579 130.8783 -23.02479
v 0.280953 114.8711 -28.93036
v 17.86567 118.2866 -18.8801
v -7.425938 105.2245 1.162523
v -14.53009 127.6497 8.979063
v -21.01223 119.5157 -11.22969
v -15.71149 107.6955 -13.833
v -10.81032 125.3476 -23.89783
v -6.107752 113.6542 -27.03315
v -11.98656 131.5627 -19.6043
v -7.165022 144.088 -23.9963
v 8.150848 147.2572 -8.364889
v -14.64845 127.9043 9.098043
v -22.36524 131.6211 -11.23799
v -11.98656 131.5627 -19.6043
v -36.5434 132.8913 -25.56285
v -28.08223 142.8709 -15.13316
v -11.23705 152.2521 -19.04695
v -28.09336 137.1857 -33.37271
v -14.13535 134.6875 9.211428
v -25.8032 137.5141 -9.610663
v -34.82824 126.4987 -17.10377
v -28.08223 142.8709 -15.13316
v -36.5434 132.8913 -25.56285
v -21.70261 153.6806 -11.61667
v -13.20841 153.2138 -2.199292
v -9.201424 155.1643 -3.711641
v -0.986458 155.4445 -0.087298
v -11.00826 144.4406 7.389589
v -14.42034 146.721 1.824818
v -13.20841 153.2138 -2.199292
v -21.70261 153.6806 -11.61667
v -14.94065 107.1607 -13.26787
v -6.343019 106.8289 -16.94517
v 6.695498 106.7596 -19.84282
v -1.891378 104.6017 12.1113
v -16.53806 107.1801 4.679422
v -14.94065 107.1607 -13.26787
v -22.37142 130.3302 -35.05225
v -21.94582 124.032 -25.96452
v -21.94582 124.032 -25.96452
v -28.95168 119.9808 -19.11629
v 22.78488 113.2165 -1.469968
v 20.49944 127.3596 4.992964
v 17.82787 122.3481 10.21182
v 3.101904 117.0017 16.32733
v 5.647077 106.1504 12.25348
v 17.82787 122.3481 10.21182
v 20.39965 141.4502 9.067858
v 14.23382 129.0535 11.84745
v 4.140029 129.0847 20.55552
v 14.23382 129.0535 11.84745
v 16.39971 147.63 12.25372
v 18.62318 147.3062 15.84427
v 31.11823 137.1326 20.43128
v 31.22948 135.063 8.325733
v 2.504772 134.8051 24.34529
v 18.62318 147.3062 15.84427
v 23.31888 134.5121 27.33534
v 31.11823 137.1326 20.43128
v 1.102997 154.1785 8.648914
v -1.2616 152.0706 12.13111
v 6.529018 150.979 22.2476
v -6.000931 145.9153 11.92397
v -1.2616 152.0706 12.13111
v 6.529018 150.979 22.2476
v 22.91953 106.2111 -3.154332
v 16.40495 106.1268 -10.87969
v 14.70337 106.9817 13.07475
v 22.91953 106.2111 -3.154332
v 27.87377 126.7118 7.076823
v 20.52575 124.8255 15.13177
v 20.52575 124.8255 15.13177
v 20.12367 126.2693 25.62682
v -12.36981 81.32933 -13.50017
v -29.18587 70.57353 5.677347
v -20.85514 87.81759 -8.766265
v -21.35925 63.81075 -1.866508
v -22.6875 78.3796 20.09976
v -4.739499 81.68252 29.4434
v -15.73333 98.40903 4.159985
v -20.85514 87.81759 -8.766265
v -29.18587 70.57353 5.677347
v -5.774446 102.9265 -20.74174
v -14.11258 102.9628 -13.41039
v 7.290976 102.117 -22.61336
v 4.74001 84.7317 -26.98027
v -15.34245 101.5501 3.73381
v 4.320064 91.17449 9.440114
v -1.772965 97.43221 10.83739
v -14.11258 102.9628 -13.41039
v 36.6644 69.02065 -8.960474
v 20.87654 88.52679 -20.64373
v 28.81487 91.39482 -12.27804
v 29.89824 67.53105 -19.72615
v 12.26195 64.06886 -25.40702
v 28.55175 67.52049 6.631295
v 28.81487 91.39482 -12.27804
v 21.25498 93.15531 3.701106
v 36.6644 69.02065 -8.960474
v 17.71579 102.2014 -14.47841
v 21.14926 101.8745 -4.008262
v 13.49359 101.0088 11.45233
v 21.14926 101.8745 -4.008262
v 9.921334 65.07077 14.38697
v -2.949008 58.80997 -3.17054
v -41.58807 109.3816 -37.86087
v -38.50574 115.7561 -38.99693
v -33.96423 118.4764 -43.85303
v -38.87048 104.9837 -41.87543
v -25.14074 116.162 -41.7847
v -29.77533 102.6355 -39.92772
v -25.26747 111.757 -36.27196
v -27.54329 105.2093 -34.42453
v -27.54329 105.2093 -34.42453
v -25.26747 111.757 -36.27196
v -29.84275 109.4737 -30.08212
v -29.94366 110.3955 -29.55475
v -38.66624 111.7879 -32.15043
v -39.03873 112.7437 -31.50256
v -38.50574 115.7561 -38.99693
v -41.58807 109.3816 -37.86087
v 41.22897 116.5572 15.5794
v 40.6617 117.5804 22.66729
v 42.40613 112.557 27.5207
v 43.30458 107.1519 23.93996
v 33.43536 112.6691 12.16865
v 35.34138 103.1216 20.42234
v 29.1939 111.1407 17.59871
v 29.87786 105.8655 22.54659
v 27.73303 113.0889 25.24917
v 29.1939 111.1407 17.59871
v 29.87786 105.8655 22.54659
v 28.12048 112.0784 26.37864
v 35.52653 116.9769 28.65992
v 36.08363 116.1086 29.89638
v 40.6617 117.5804 22.66729
v 42.40613 112.557 27.5207
v 9.921334 65.07077 14.38697
v -0.722304 79.54778 7.942392
v 28.55175 67.52049 6.631295
v 36.6644 69.02065 -8.960474
v -4.739499 81.68252 29.4434
v -2.949008 58.80997 -3.17054
v 12.26195 64.06886 -25.40702
v 29.89824 67.53105 -19.72615
v -22.6875 78.3796 20.09976
v -29.18587 70.57353 5.677347
v -21.35925 63.81075 -1.866508
v 2.504772 134.8051 24.34529
v 29.42848 136.429 28.11863
v 21.19614 154.8622 17.63065
v 6.529018 150.979 22.2476
v 36.99118 136.4983 22.72294
v 35.26281 137.433 13.64267
v 16.39971 147.63 12.25372
v -25.8032 137.5141 -9.610663
v -32.98716 148.6504 -12.78678
v -39.81865 128.2373 -20.14802
v -21.70261 153.6806 -11.61667
v -41.56327 131.6568 -28.60824
v -34.73943 136.8623 -32.16521
v -11.23705 152.2521 -19.04695
v 9.071773 74.99426 -7.096029
v 18.90739 53.33352 -17.43002
v 13.7689 52.73135 -4.413263
v 12.60987 75.24735 -19.06384
v 30.91331 55.21653 -16.98866
v 25.16819 77.91766 -18.45547
v 37.16471 57.71927 -2.891022
v 29.49112 79.46313 -6.114614
v 29.49112 79.46313 -6.114614
v 29.90417 53.91836 7.45597
v 37.16471 57.71927 -2.891022
v 23.79234 79.74607 1.788744
v 17.89786 52.03539 7.021086
v 10.97117 77.15578 6.028207
v 13.7689 52.73135 -4.413263
v 9.071773 74.99426 -7.096029
v 20.86077 48.6969 -17.50967
v 18.49742 42.25697 -10.09231
v 32.25306 50.79163 -16.89692
v 35.86388 45.80027 -8.902267
v 33.81556 37.95259 -0.755076
v 35.86388 45.80027 -8.902267
v 22.43092 35.81614 -1.365581
v 18.49742 42.25697 -10.09231
v -1.581315 78.16073 6.239805
v -6.418397 60.81009 20.39687
v -10.21525 53.84812 8.850576
v -3.890977 71.57951 -4.112202
v -22.21114 54.94986 7.187261
v -16.45621 73.39647 -6.117971
v -29.86669 64.41978 16.97515
v -22.01174 81.21658 2.901728
v -22.01174 81.21658 2.901728
v -29.86669 64.41978 16.97515
v -23.67649 67.37408 28.25245
v -17.14326 86.13638 9.76557
v -11.68091 66.27583 29.92109
v -4.807448 87.06821 15.76748
v -6.418397 60.81009 20.39687
v -1.581315 78.16073 6.239805
v -11.99647 50.42173 10.74756
v -10.42202 48.80627 20.59573
v -23.40021 51.82857 9.1594
v -27.83625 51.38179 18.2142
v -26.64618 48.90872 29.37785
v -27.83625 51.38179 18.2142
v -15.24998 47.46666 30.98845
v -10.42202 48.80627 20.59573
v 18.49742 42.25697 -10.09231
v 22.41784 46.89425 -27.06598
v 18.97193 34.58561 -18.67953
v 20.86077 48.6969 -17.50967
v 33.53764 49.1564 -26.37721
v 32.25306 50.79163 -16.89692
v 32.25306 50.79163 -16.89692
v 38.22027 38.60426 -17.42091
v 33.53764 49.1564 -26.37721
v 35.86388 45.80027 -8.902267
v 36.15629 28.73915 -6.380221
v 33.81556 37.95267 -0.755019
v 25.15348 26.65941 -6.963903
v 22.43092 35.81614 -1.365581
v 20.38913 36.09749 -17.0048
v 26.31504 28.85987 -29.67701
v 24.24316 23.55958 -26.3891
v 22.72421 45.48481 -24.64196
v 34.19781 30.34981 -29.25887
v 31.35537 47.113 -24.18622
v 31.35537 47.113 -24.18622
v 34.67353 38.94734 -16.15272
v 34.19781 30.34981 -29.25887
v 24.51217 31.08483 -7.231466
v 29.69193 16.90163 -38.46745
v 27.56938 13.87298 -33.50757
v 37.09734 18.27571 -38.09087
v 39.82208 16.29196 -32.79282
v 37.09734 18.27571 -38.09087
v 37.4859 10.74043 -24.72964
v 32.80859 32.65168 -6.792179
v 30.51103 10.46753 -24.44146
v 26.26318 0.677195 -33.09836
v 26.74945 0.153892 -38.74489
v 35.17933 0.154184 -41.81313
v 39.36085 0.678285 -37.86557
v 44.6162 0.778891 -26.9958
v 30.10366 0.778501 -21.71358
v 39.36085 0.678285 -37.86557
v 35.17933 0.154184 -41.81313
v 44.6162 0.778891 -26.9958
v 46.01921 8.157002 -12.35419
v 38.85395 9.047211 -7.521437
v 39.65006 1.000111 -3.300644
v 47.34237 0.792801 -8.395197
v -10.42202 48.80627 20.59573
v -9.900054 37.82277 17.14566
v -12.48156 43.91964 3.366184
v -11.99647 50.42173 10.74756
v -11.99647 50.42173 10.74756
v -12.48156 43.91964 3.366184
v -23.62389 45.52578 1.782166
v -23.40021 51.82857 9.1594
v -29.19528 40.72516 14.40759
v -27.83625 51.38179 18.2142
v -28.29493 37.9908 29.07695
v -26.64618 48.90872 29.37785
v -17.28164 36.58757 30.64672
v -15.24998 47.46666 30.98845
v -11.50252 39.88501 17.67273
v -14.22066 24.10738 15.72523
v -15.95219 26.86083 10.01421
v -13.0436 43.92211 6.130268
v -13.0436 43.92211 6.130268
v -15.95219 26.86083 10.01421
v -23.84262 27.86611 8.889505
v -21.68276 45.01908 4.898771
v -25.81189 41.88354 15.63858
v -16.64313 40.29243 28.21087
v -16.68167 11.96312 14.30127
v -18.26526 11.91237 8.320538
v -18.26526 11.91237 8.320538
v -25.67577 12.82649 7.26343
v -28.95391 13.64715 12.55582
v -27.4831 13.12148 22.49821
v -24.94741 41.34898 27.02713
v -20.58064 13.46448 23.52023
v -15.49378 -0.543098 15.16091
v -24.40985 -1.066105 6.446127
v -15.98005 -1.066401 9.514402
v -28.59141 -0.542003 10.3937
v -33.84675 -0.441502 21.2635
v -19.33426 -0.441795 26.54565
v -15.98005 -1.066401 9.514402
v -15.49378 -0.543098 15.16091
v -35.24989 6.936604 35.90511
v -28.88079 -0.220191 44.95866
v -28.08453 7.826909 40.73779
v -36.57298 -0.427496 39.86409
v -38.5987 74.93781 -18.08711
v -47.62959 74.68399 -10.86003
v -39.93804 72.71783 -18.01456
v -42.53082 79.78057 -25.41935
v -45.28931 84.83952 -20.3974
v -48.07291 87.17497 -18.70439
v -50.34156 81.76648 -17.77682
v -46.34165 77.028 -10.42911
v -52.08906 79.23798 -18.5561
v -47.15592 96.00167 -20.36637
v -45.83535 89.78273 -28.24803
v -44.44019 77.2064 -25.72025
v -39.72375 87.95482 -26.74308
v -37.77408 90.36362 -21.7887
v -37.77408 90.36362 -21.7887
v -46.99287 83.36304 -12.91763
v -45.44153 83.84129 -12.49948
v -46.68918 84.85419 -11.9983
v -47.11396 83.76947 -13.61368
v -39.8565 94.25162 -18.35979
v -43.97285 102.6064 -31.02673
v -41.34129 97.38821 -35.8287
v -35.40696 95.79036 -34.5063
v -33.06178 99.11536 -28.1614
v -37.77408 90.36362 -21.7887
v -33.06178 99.11536 -28.1614
v -35.55147 103.6365 -24.24897
v -41.48588 105.2342 -25.5714
v -41.56023 121.5274 -44.3027
v -40.2664 105.0322 -43.29683
v -30.50832 101.9175 -40.78405
v -35.40696 95.79036 -34.5063
v -30.50832 101.9175 -40.78405
v -27.54608 105.17 -34.19241
v -30.61423 111.95 -28.38139
v -40.37231 115.0647 -30.8943
v -27.54608 105.17 -34.19241
v 31.40308 80.74553 50.5244
v 25.6109 86.05955 57.76481
v 30.81364 81.92883 48.29272
v 30.22932 96.48663 50.0183
v 31.83802 93.13277 48.52407
v 37.75576 88.51753 47.25728
v 31.51206 93.88385 54.71249
v 24.52321 87.34703 55.64392
v 40.3942 95.65816 41.82019
v 35.78555 103.0418 46.9953
v 33.05694 92.70108 57.21615
v 38.87847 87.35445 50.04118
v 34.93731 92.73575 39.66603
v 30.05644 95.30798 41.59211
v 34.93731 92.73575 39.66603
v 24.17466 93.21543 52.23482
v 24.64337 91.71715 51.62747
v 25.47809 92.26003 52.97593
v 26.06066 92.72117 52.64066
v 29.09685 99.99834 44.47159
v 41.24807 100.9453 31.48462
v 39.70715 107.2313 35.39944
v 36.02439 98.25946 29.24448
v 41.24807 100.9453 31.48462
v 40.3942 95.65816 41.82019
v 29.86868 101.8191 31.74429
v 28.85309 107.278 35.07807
v 34.07669 109.9638 37.31824
v 44.62024 107.0496 23.31612
v 44.87643 123.1156 19.24249
v 35.85279 102.2095 20.00791
v 44.62024 107.0496 23.31612
v 29.07552 105.5954 22.3333
v 27.0838 113.6251 26.88342
v 35.85124 118.4652 30.19165
v 44.87643 123.1156 19.24249
v -9.05669 154.2626 -5.030037
v -13.42465 152.1365 -3.381408
v -18.69397 154.131 4.775923
v -15.84447 155.2203 -0.447378
v -0.101654 154.5682 -1.079202
v -9.65497 155.6326 -3.696576
v -0.101654 154.5682 -1.079202
v -14.74573 145.0586 1.005201
v -11.02631 142.5729 7.071228
v -9.654984 148.4755 12.62434
v -16.05648 150.0366 10.87423
v -0.401604 150.8903 12.2399
v 2.176117 153.188 8.444078
v -3.469172 155.2207 -0.447371
v -0.615975 154.131 4.775932
v 2.176117 153.188 8.444078
v -0.101654 154.5682 -1.079202
v -9.65497 155.6326 -3.696576
v -3.469172 155.2207 -0.447371
v -5.567915 144.1804 12.01422
v -3.257381 150.0366 10.87414
v -13.00079 147.4566 18.57964
v -9.644289 146.6346 19.50114
v -9.644283 155.3462 16.48053
v -13.65968 155.3462 15.34433
v -6.287588 147.4566 18.57964
v -5.628583 155.3462 15.34433
v -1.81918 158.43 12.96963
v -2.548676 166.4799 12.90652
v -5.488879 162.6099 16.07832
v -8.063284 158.354 19.52232
v -10.79148 158.354 19.52232
v -13.79978 162.6099 16.07831
v -17.49468 158.43 12.96962
v -9.55526 177.3044 -2.318405
v -9.555273 175.6243 16.3228
v -3.635672 176.3458 13.3779
v -9.55526 177.3044 -2.318405
v -1.278367 175.1827 6.738402
v -3.500063 176.7838 0.076499
v -3.635672 176.3458 13.3779
v -1.316378 165.8146 13.11602
v 0.917429 170.1934 7.074711
v -1.278367 175.1827 6.738402
v -1.316366 170.227 0.071609
v -3.500063 176.7838 0.076499
v -1.316366 170.227 0.071609
v -9.555258 171.3157 -5.722897
v 1.048321 153.2135 6.675935
v 0.843531 163.2223 0.40462
v 0.843531 163.2223 0.40462
v -9.555264 163.9607 -5.866387
v -1.316366 170.227 0.071609
v -0.792484 152.4881 13.61744
v 2.272362 150.2682 14.40776
v 0.294624 145.4989 -2.123555
v 0.294624 145.4989 -2.123555
v -9.848072 142.1703 -10.06286
v -8.06328 164.5863 18.53261
v -10.79648 164.5863 18.53261
v -9.55526 177.3044 -2.318405
v -15.47487 176.3459 13.37789
v -17.83216 175.1827 6.738393
v -15.61046 176.7838 0.076492
v -20.02797 170.1933 7.0748
v -17.79427 165.8147 13.11611
v -17.79416 170.227 0.0716
v -9.555258 171.3157 -5.722897
v -20.15898 153.2135 6.675923
v -19.95407 163.2223 0.404609
v -9.555264 163.9607 -5.866387
v -18.31818 152.4882 13.61743
v -15.03389 151.9243 -6.351422
v -19.37467 145.4989 -2.123565
v -9.848072 142.1703 -10.06286
v -16.76167 166.4799 12.90651
v -5.507263 175.3595 1.100099
v 6.796629 181.1511 13.4499
v 8.879036 182.0743 6.272298
v -5.507372 175.3595 11.0402
v 10.82803 174.8005 13.80261
v -2.934675 165.7581 11.04012
v 12.91043 175.7237 6.625009
v -2.93467 165.7581 1.100114
v 14.49683 194.9877 24.78588
v 8.879036 182.0743 6.272298
v 6.796629 181.1511 13.4499
v 10.82803 174.8005 13.80261
v 12.91043 175.7237 6.625009
v -13.36516 175.3595 1.100095
v -27.75156 182.0743 6.272278
v -25.66917 181.1512 13.44988
v -13.36517 175.3595 11.0402
v -29.70057 174.8006 13.80269
v -15.93787 165.7581 11.04021
v -31.78297 175.7238 6.625085
v -15.93787 165.7581 1.100108
v -33.36937 194.9876 24.78595
v -25.66917 181.1512 13.44988
v -27.75156 182.0743 6.272278
v -29.70057 174.8006 13.80269
v -31.78297 175.7238 6.625085
vn -0.486185 -0.089094 -0.869302
vn -0.583988 0.051194 -0.810146
vn 0.227128 0.255076 -0.939867
vn 0.156988 -0.075003 -0.984748
vn 0.742371 0.279677 -0.608824
vn -0.687312 -0.47781 0.547084
vn -0.715601 -0.391321 0.578605
vn -0.964238 -0.200249 -0.173624
vn -0.90154 -0.405349 -0.151388
vn -0.583988 0.051194 -0.810146
vn -0.486185 -0.089094 -0.869302
vn -0.903398 0.225206 -0.364903
vn 0.555496 0.758173 -0.341466
vn 0.670876 0.537553 -0.510845
vn -0.726584 -0.375286 0.575531
vn -0.792196 -0.587704 -0.164409
vn -0.903398 0.225206 -0.364903
vn -0.853489 0.520444 -0.026366
vn -0.821815 0.538705 0.185516
vn 0.121674 0.971662 -0.202652
vn -0.055473 0.768619 -0.637297
vn -0.737727 0.233827 0.633312
vn -0.948533 -0.003023 0.316665
vn -0.743479 -0.197052 0.639069
vn -0.821815 0.538705 0.185516
vn -0.853489 0.520444 -0.026366
vn -0.408728 0.855694 0.317378
vn -0.648682 0.564886 0.510015
vn -0.090153 0.995749 -0.018885
vn 0.355536 0.914905 -0.191162
vn -0.708092 0.342345 0.61758
vn -0.771526 0.360073 0.524495
vn -0.648682 0.564886 0.510015
vn -0.408728 0.855694 0.317378
vn -0.818179 -0.408106 -0.405009
vn -0.341795 -0.086637 -0.935773
vn 0.234389 0.37084 -0.898632
vn -0.279522 -0.083408 0.95651
vn -0.854051 -0.214217 0.474034
vn -0.818179 -0.408106 -0.405009
vn 0.831436 0.439495 -0.339938
vn 0.891564 -0.434505 0.127744
vn 0.891564 -0.434505 0.127744
vn 0.33272 -0.712669 0.617577
vn 0.978443 0.206506 0.00215
vn 0.989163 0.14142 -0.039462
vn 0.68903 -0.071985 0.721149
vn -0.034722 -0.321431 0.946296
vn -0.135711 -0.474095 0.869952
vn 0.68903 -0.071985 0.721149
vn 0.862787 0.323926 -0.388163
vn 0.667145 -0.703877 0.243873
vn -0.198681 -0.741867 0.640437
vn 0.667145 -0.703877 0.243873
vn 0.525377 0.837408 -0.150756
vn 0.696854 0.7123 0.083811
vn 0.740941 0.641908 0.197386
vn 0.575861 0.477293 -0.663759
vn -0.54147 0.055635 0.838877
vn 0.696854 0.7123 0.083811
vn 0.28565 0.14065 0.947957
vn 0.740941 0.641908 0.197386
vn 0.163082 0.974138 0.156395
vn -0.575285 0.557323 0.598697
vn -0.28114 0.864293 0.417083
vn -0.628088 0.34598 0.696996
vn -0.575285 0.557323 0.598697
vn -0.28114 0.864293 0.417083
vn 0.959236 -0.270295 -0.082505
vn 0.77577 -0.008616 -0.630958
vn 0.480103 -0.21061 0.851554
vn 0.959236 -0.270295 -0.082505
vn -0.177722 -0.306959 -0.934982
vn -0.653443 -0.708841 -0.265627
vn -0.653443 -0.708841 -0.265627
vn -0.579744 -0.619162 0.529656
vn -0.522955 -0.226915 -0.821601
vn -0.784242 -0.615631 -0.077217
vn -0.898562 0.203939 -0.388582
vn -0.488897 -0.833448 -0.257574
vn -0.811716 -0.155307 0.563025
vn -0.245544 0.07385 0.966568
vn -0.718627 0.537818 0.440825
vn -0.898562 0.203939 -0.388582
vn -0.784242 -0.615631 -0.077217
vn -0.328929 0.435111 -0.838143
vn -0.85106 0.245753 -0.464007
vn 0.262332 0.311116 -0.913449
vn 0.065256 -0.028899 -0.99745
vn -0.879216 -0.199488 0.432648
vn 0.023644 -0.040499 0.9989
vn -0.254893 -0.253384 0.933181
vn -0.85106 0.245753 -0.464007
vn 0.831569 -0.468437 -0.298429
vn 0.73111 0.277654 -0.623208
vn 0.913249 0.40438 -0.049528
vn 0.676222 -0.552549 -0.487252
vn 0.398079 -0.898291 -0.18603
vn 0.755083 -0.425162 0.499086
vn 0.913249 0.40438 -0.049528
vn 0.534102 0.258608 0.804896
vn 0.831569 -0.468437 -0.298429
vn 0.673169 0.446417 -0.589538
vn 0.961642 0.27144 -0.039561
vn 0.533915 -0.235199 0.812168
vn 0.961642 0.27144 -0.039561
vn 0.033686 -0.454129 0.890299
vn 0.048898 -0.977556 0.204922
vn -0.763934 0.367336 -0.530537
vn -0.81403 0.336389 -0.473495
vn -0.325928 0.10464 -0.939586
vn -0.029466 0.199665 -0.979421
vn 0.65216 -0.314898 -0.689584
vn 0.766875 -0.115492 -0.631319
vn 0.912442 -0.379806 0.152307
vn 0.985473 0.090471 -0.14373
vn 0.985473 0.090471 -0.14373
vn 0.912442 -0.379806 0.152307
vn 0.178555 -0.923728 0.338889
vn 0.07269 0.523321 -0.84903
vn -0.554226 -0.563342 -0.612763
vn 0.34705 0.753867 -0.55789
vn -0.81403 0.336389 -0.473495
vn -0.763934 0.367336 -0.530537
vn 0.892921 -0.022751 -0.449638
vn 0.847277 0.523262 0.091207
vn 0.885158 0.446881 0.129585
vn 0.743688 -0.151766 -0.651073
vn -0.016409 -0.636843 -0.770819
vn -0.192019 -0.556177 -0.808576
vn -0.771324 -0.54493 -0.328801
vn -0.539693 -0.393555 -0.744208
vn -0.59964 -0.615867 0.511019
vn -0.771324 -0.54493 -0.328801
vn -0.539693 -0.393555 -0.744208
vn 0.554743 0.315827 -0.769749
vn 0.985808 0.144665 -0.085179
vn -0.007406 0.652574 -0.757689
vn 0.847277 0.523262 0.091207
vn 0.885158 0.446881 0.129585
vn 0.033686 -0.454129 0.890299
vn -0.032886 -0.799513 0.599748
vn 0.755083 -0.425162 0.499086
vn 0.831569 -0.468437 -0.298429
vn -0.245544 0.07385 0.966568
vn 0.048898 -0.977556 0.204922
vn 0.398079 -0.898291 -0.18603
vn 0.676222 -0.552549 -0.487252
vn -0.811716 -0.155307 0.563025
vn -0.784242 -0.615631 -0.077217
vn -0.488897 -0.833448 -0.257574
vn -0.231996 0.244642 0.94145
vn 0.45161 0.584977 0.673685
vn 0.616435 0.631467 0.470381
vn 0.332628 0.942672 -0.027001
vn 0.673468 0.667441 0.317749
vn 0.249051 0.588028 -0.769543
vn 0.282355 0.958376 -0.042334
vn -0.814983 -0.245812 0.524766
vn -0.667047 0.711867 0.219759
vn -0.821664 0.071062 0.565525
vn -0.252179 0.89003 0.379806
vn -0.880058 0.473798 -0.03185
vn -0.358353 0.749585 -0.556512
vn 0.180256 0.98145 0.065291
vn -0.956785 -0.241116 -0.162559
vn -0.51365 -0.268453 -0.814921
vn -0.95612 -0.28762 -0.055766
vn -0.332442 -0.161611 -0.929174
vn 0.585736 -0.001135 -0.810501
vn 0.711339 0.159245 -0.684572
vn 0.986238 0.155239 0.056875
vn 0.888932 0.340119 0.306789
vn 0.888932 0.340119 0.306789
vn 0.409542 0.145197 0.900663
vn 0.986238 0.155239 0.056875
vn 0.364969 0.226414 0.903069
vn -0.554885 -0.145263 0.819147
vn -0.735612 -0.141379 0.662485
vn -0.95612 -0.28762 -0.055766
vn -0.956785 -0.241116 -0.162559
vn -0.723013 0.017509 -0.690613
vn -0.934637 -0.353424 -0.039315
vn 0.360213 0.359428 -0.860847
vn 0.971517 0.125756 -0.200847
vn 0.748443 -0.345689 0.565979
vn 0.971517 0.125756 -0.200847
vn -0.314703 -0.622909 0.716203
vn -0.934637 -0.353424 -0.039315
vn 0.969475 -0.232881 0.076709
vn 0.9576 -0.221749 0.183931
vn 0.60656 -0.596198 -0.525959
vn 0.425502 -0.625693 -0.653801
vn -0.489847 -0.434879 -0.755599
vn -0.639172 -0.286573 -0.713677
vn -0.988738 0.072352 -0.131009
vn -0.917025 0.398779 -0.006384
vn -0.917025 0.398779 -0.006384
vn -0.988738 0.072352 -0.131009
vn -0.530156 0.494273 0.688933
vn -0.455507 0.663482 0.593552
vn 0.45983 0.28651 0.840517
vn 0.665476 0.290695 0.687487
vn 0.9576 -0.221749 0.183931
vn 0.969475 -0.232881 0.076709
vn 0.771598 -0.405529 -0.490085
vn 0.932066 -0.258574 0.253759
vn -0.289694 -0.297887 -0.909583
vn -0.94778 -0.081992 -0.308206
vn -0.80354 -0.003319 0.595242
vn -0.94778 -0.081992 -0.308206
vn 0.25086 -0.067541 0.965664
vn 0.932066 -0.258574 0.253759
vn -0.998406 -0.000081 -0.056432
vn -0.839163 0.493249 -0.229154
vn -0.979002 -0.187376 0.080287
vn -0.523385 0.819911 -0.231979
vn 0.223317 0.963993 -0.144387
vn 0.655465 0.747285 -0.109228
vn 0.655465 0.747285 -0.109228
vn 0.946581 0.318518 0.050304
vn 0.223317 0.963993 -0.144387
vn 0.972035 0.19038 0.137493
vn 0.808405 -0.163746 0.565393
vn 0.426895 -0.38929 0.81622
vn -0.316029 -0.561942 0.764426
vn -0.714349 -0.478512 0.510619
vn -0.960246 -0.149396 -0.235816
vn -0.564946 0.299356 -0.76891
vn -0.966544 -0.155589 -0.203922
vn -0.367193 0.196009 -0.909258
vn 0.532644 0.451959 -0.715558
vn 0.610175 0.322496 -0.723659
vn 0.610175 0.322496 -0.723659
vn 0.984122 0.177434 0.004524
vn 0.532644 0.451959 -0.715558
vn -0.756691 -0.538106 0.371296
vn -0.587513 0.392125 -0.707861
vn -0.993546 -0.096071 -0.060303
vn 0.472015 0.558318 -0.682263
vn 0.958775 0.277714 -0.060216
vn 0.472015 0.558318 -0.682263
vn 0.737293 0.19924 0.645525
vn 0.458693 -0.503951 0.731871
vn -0.798333 -0.181218 0.574304
vn -0.583983 -0.785184 0.206036
vn -0.861815 -0.326401 -0.388249
vn 0.030797 -0.636891 -0.770339
vn 0.678117 -0.540497 -0.498017
vn 0.84885 -0.49181 -0.193847
vn -0.561608 -0.790504 0.244335
vn 0.678117 -0.540497 -0.498017
vn 0.030797 -0.636891 -0.770339
vn 0.84885 -0.49181 -0.193847
vn 0.776175 0.54348 0.319659
vn 0.018093 0.820094 0.571943
vn -0.316212 0.107199 0.942613
vn 0.688251 -0.668092 0.282778
vn 0.998533 0.032985 0.042944
vn 0.965422 -0.059633 0.253782
vn 0.85607 0.359089 -0.371753
vn 0.540535 0.618662 -0.570157
vn 0.540535 0.618662 -0.570157
vn 0.85607 0.359089 -0.371753
vn -0.21222 0.740858 -0.637254
vn -0.644239 0.545882 -0.535695
vn -0.948392 0.24064 -0.20651
vn -0.982458 0.173364 -0.068716
vn -0.864616 0.096796 0.493021
vn -0.511525 0.054141 0.857561
vn 0.233595 -0.074626 0.969466
vn 0.656855 -0.107398 0.746329
vn 0.981303 -0.188795 -0.037417
vn 0.984094 -0.177535 -0.00636
vn 0.644171 -0.098785 -0.758475
vn 0.463697 -0.271096 -0.8435
vn 0.463697 -0.271096 -0.8435
vn 0.644171 -0.098785 -0.758475
vn -0.453594 -0.008362 -0.891169
vn -0.52891 -0.128584 -0.83888
vn -0.97977 0.093915 -0.176723
vn 0.714693 -0.226741 0.661667
vn 0.989851 -0.110051 0.089906
vn 0.656756 -0.132074 -0.742448
vn 0.656756 -0.132074 -0.742448
vn -0.403205 0.019977 -0.914892
vn -0.938788 0.182299 -0.292308
vn -0.780276 0.595106 0.192401
vn -0.533206 -0.089184 0.841271
vn 0.784181 0.202535 0.586549
vn 0.58839 -0.781896 0.206001
vn -0.049461 -0.612293 -0.789082
vn 0.866659 -0.301012 -0.397861
vn -0.688869 -0.536574 -0.487389
vn -0.862189 -0.477708 -0.168601
vn 0.568167 -0.784967 0.247009
vn 0.866659 -0.301012 -0.397861
vn 0.58839 -0.781896 0.206001
vn -0.759103 0.585001 0.285547
vn 0.315344 0.119799 0.941386
vn 0.002145 0.869583 0.493782
vn -0.688263 -0.668088 0.282758
vn 0.890693 0.147469 0.430022
vn -0.175068 -0.805439 0.566233
vn 0.55976 -0.775318 -0.292492
vn 0.921474 -0.385715 0.04593
vn -0.161356 -0.962072 0.21996
vn -0.513547 -0.09314 0.852991
vn 0.047682 0.566819 0.822461
vn -0.170084 0.41372 0.894376
vn -0.988456 -0.020936 0.150056
vn -0.817479 0.368744 0.442444
vn -0.513637 -0.282337 -0.810224
vn -0.043543 -0.647762 -0.760598
vn 0.664445 -0.506868 -0.549179
vn 0.839559 -0.47042 0.271746
vn 0.839559 -0.47042 0.271746
vn -0.259387 -0.954653 0.146137
vn 0.55981 -0.452136 0.694396
vn -0.64263 0.153771 0.750587
vn -0.939387 -0.340232 -0.042359
vn 0.211191 0.371733 0.903999
vn -0.986143 0.10027 -0.132169
vn -0.59945 -0.457407 -0.65684
vn 0.458002 -0.777036 -0.431798
vn 0.879638 -0.360154 0.310687
vn 0.839559 -0.47042 0.271746
vn 0.879638 -0.360154 0.310687
vn 0.44338 0.256928 0.858721
vn -0.579827 0.527053 0.621302
vn -0.802357 0.567392 -0.185172
vn -0.333539 -0.076742 -0.939608
vn 0.412829 -0.494067 -0.76516
vn 0.458002 -0.777036 -0.431798
vn 0.412829 -0.494067 -0.76516
vn 0.957726 0.16397 -0.236378
vn 0.731071 0.352336 0.58429
vn -0.029066 0.847463 0.530058
vn 0.957726 0.16397 -0.236378
vn 0.316433 -0.936014 -0.154106
vn -0.366252 -0.623131 0.691063
vn -0.61155 -0.367469 -0.700695
vn -0.366106 0.344938 0.864283
vn 0.073028 -0.749266 0.658231
vn -0.239688 -0.822782 -0.515345
vn -0.817285 0.57606 -0.014123
vn -0.905586 0.390414 0.165803
vn 0.957464 -0.287914 -0.01918
vn 0.218477 0.726062 0.651999
vn 0.168418 0.410961 0.895961
vn 0.804842 -0.583416 0.108882
vn 0.0303 -0.843869 -0.535694
vn -0.671165 -0.687382 -0.277568
vn 0.0303 -0.843869 -0.535694
vn -0.551555 0.470525 0.688763
vn -0.817617 -0.545785 -0.183362
vn 0.143846 -0.67809 0.720765
vn 0.318515 0.269246 0.908876
vn -0.841224 0.502441 0.199736
vn 0.917272 -0.398069 -0.012382
vn 0.825257 0.298951 0.479145
vn -0.00379 -0.911737 -0.410757
vn 0.917272 -0.398069 -0.012382
vn 0.957464 -0.287914 -0.01918
vn -0.838068 -0.501332 -0.215193
vn -0.912595 0.267291 0.309396
vn -0.005452 0.723912 0.689871
vn 0.866501 -0.129171 -0.482174
vn 0.681111 0.701267 0.210508
vn 0.222341 -0.674662 -0.703844
vn 0.866501 -0.129171 -0.482174
vn -0.587565 -0.088547 -0.804318
vn -0.961543 0.257142 -0.096505
vn -0.391031 0.897368 0.204512
vn 0.681111 0.701267 0.210508
vn -0.321021 0.569754 -0.756522
vn -0.874962 0.065494 -0.479741
vn -0.989079 0.0107 -0.146998
vn -0.511797 0.074199 -0.855896
vn 0.406671 0.647798 -0.644187
vn 0.253111 -0.082205 -0.963939
vn 0.406671 0.647798 -0.644187
vn -0.918259 -0.273972 0.285901
vn -0.638556 -0.122178 0.759815
vn -0.109098 -0.80338 0.585387
vn -0.833118 -0.409208 0.372108
vn 0.485244 0.489989 0.724188
vn 0.776141 0.629698 0.032965
vn 0.831695 0.065998 -0.551296
vn 0.953337 0.102404 0.284011
vn 0.776141 0.629698 0.032965
vn 0.406671 0.647798 -0.644187
vn 0.253111 -0.082205 -0.963939
vn 0.831695 0.065998 -0.551296
vn -0.195428 0.1297 0.972104
vn 0.747157 -0.127192 0.652364
vn -0.607003 -0.079599 0.790703
vn 0.030001 -0.681033 0.731638
vn -0.0361 -0.245293 0.968777
vn -0.634964 -0.14159 0.759456
vn 0.6458 -0.6705 0.365202
vn 0.590681 -0.070997 0.803776
vn 0.453624 -0.107805 0.884649
vn 0.451803 0.038001 0.891308
vn 0.715809 0.011001 0.69821
vn 0.421013 -0.303909 0.854628
vn -0.326314 -0.215207 0.920438
vn -0.685723 0.022202 0.727524
vn -0.433722 -0.112904 0.893945
vn 0.000001 0.987342 -0.158608
vn -0.0005 0.669717 0.742616
vn 0.626087 0.599188 0.498989
vn 0.000001 0.987342 -0.158608
vn 0.704784 0.709084 -0.0219
vn 0.594318 0.620017 -0.512216
vn 0.626087 0.599188 0.498989
vn 0.592286 0.075499 0.802183
vn 0.972669 0.218093 0.079698
vn 0.704784 0.709084 -0.0219
vn 0.782695 0.227097 -0.579496
vn 0.594318 0.620017 -0.512216
vn 0.782695 0.227097 -0.579496
vn 0.000001 0.267488 -0.963561
vn 0.875991 0.181698 0.446796
vn 0.903971 0.247491 -0.348689
vn 0.903971 0.247491 -0.348689
vn -0.002899 0.118098 -0.992998
vn 0.782695 0.227097 -0.579496
vn 0.395499 0.050101 0.917099
vn 0.256784 0.240362 0.936103
vn 0.719779 0.093496 -0.687879
vn 0.719779 0.093496 -0.687879
vn -0.011899 0.189192 -0.981868
vn 0.373697 0.1533 0.914795
vn -0.411893 0.157699 0.897483
vn 0.000001 0.987342 -0.158608
vn -0.624792 0.597693 0.502392
vn -0.704784 0.709084 -0.021901
vn -0.594317 0.620018 -0.512216
vn -0.972668 0.218094 0.079697
vn -0.576186 0.0749 0.813879
vn -0.782694 0.227098 -0.579497
vn 0.000001 0.267488 -0.963561
vn -0.982547 0.039803 0.181708
vn -0.862738 0.128605 -0.489023
vn -0.002899 0.118098 -0.992998
vn -0.333888 0.0485 0.941364
vn -0.676459 0.160691 -0.718736
vn -0.597404 0.116 -0.793507
vn -0.011899 0.189192 -0.981868
vn -0.424607 0.056502 0.903613
vn -0.248407 0.864826 -0.436315
vn -0.450301 0.780303 0.434
vn 0.065401 0.498002 -0.864706
vn -0.337211 0.357213 0.871027
vn 0.091798 -0.419094 0.90329
vn 0.409796 -0.783092 0.467797
vn 0.592803 -0.697205 -0.403101
vn 0.478511 -0.283908 -0.830918
vn 0.500719 0.683826 0.530719
vn -0.057697 0.826968 -0.55928
vn -0.899936 0.172808 0.400315
vn 0.298694 -0.497389 0.814485
vn 0.981216 0.083301 -0.174002
vn 0.248408 0.864826 -0.436315
vn -0.0654 0.498002 -0.864706
vn 0.450301 0.780303 0.434001
vn 0.33721 0.357213 0.871027
vn -0.0918 -0.419094 0.90329
vn -0.409797 -0.783092 0.467797
vn -0.592803 -0.697204 -0.403102
vn -0.47851 -0.283907 -0.830918
vn -0.500719 0.683826 0.530719
vn 0.899936 0.172807 0.400316
vn 0.057699 0.826968 -0.55928
vn -0.298695 -0.497389 0.814485
vn -0.981224 0.083202 -0.174005
vt 0.5112 0.6907
vt 0.4839 0.7657
vt 0.4469 0.7825
vt 0.4869 0.676
vt 0.3108 0.6795
vt 0.3209 0.7432
vt 0.3196 0.895
vt 0.1686 0.815
vt 0.1551 0.7402
vt 0.1406 0.7946
vt 0.1125 0.716
vt 0.4673 0.8122
vt 0.4754 0.8602
vt 0.3095 0.8794
vt 0.3196 0.897
vt 0.1558 0.8876
vt 0.1576 0.8433
vt 0.6011 0.8265
vt 0.5338 1.0139
vt 0.4701 0.9253
vt 0.5624 0.8176
vt 0.3196 0.935
vt 0.1455 0.9333
vt 0.0599 0.8543
vt 0.0974 0.9483
vt 0.0201 0.8583
vt 0.4784 0.9877
vt 0.396 0.9902
vt 0.3841 0.9883
vt 0.3095 0.9782
vt 0.3196 0.9679
vt 0.2567 0.9773
vt 0.2309 0.9905
vt 0.1462 0.9878
vt 0.4914 0.6568
vt 0.4213 0.6522
vt 0.3108 0.6505
vt 0.3209 0.6785
vt 0.163 0.6934
vt 0.1328 0.6805
vt 0.5178 0.7735
vt 0.4871 0.773
vt 0.1373 0.8022
vt 0.1058 0.8086
vt 0.4392 0.6808
vt 0.4582 0.7734
vt 0.4781 0.7637
vt 0.1809 0.8105
vt 0.1538 0.7451
vt 0.1462 0.7925
vt 0.4751 0.8602
vt 0.467 0.8122
vt 0.1559 0.8876
vt 0.1577 0.8433
vt 0.4713 0.9102
vt 0.5335 1.0139
vt 0.6011 0.8265
vt 0.5624 0.8176
vt 0.144 0.9333
vt 0.0975 0.9483
vt 0.0597 0.8543
vt 0.0199 0.8583
vt 0.3849 0.9883
vt 0.3969 0.9902
vt 0.4801 0.9877
vt 0.2566 0.9773
vt 0.2297 0.9905
vt 0.1442 0.9878
vt 0.5011 0.6586
vt 0.4223 0.6522
vt 0.1596 0.6998
vt 0.1226 0.6823
vt 0.5177 0.7735
vt 0.487 0.773
vt 0.1371 0.8022
vt 0.1056 0.8086
vt 0.4362 0.5402
vt 0.5439 0.3961
vt 0.5366 0.5484
vt 0.4798 0.3964
vt 0.0974 0.3941
vt 0.3087 0.3999
vt 0.1343 0.5851
vt 0.097 0.567
vt 0.0631 0.3946
vt 0.4242 0.6191
vt 0.5067 0.6239
vt 0.3108 0.6123
vt 0.3095 0.5249
vt 0.1479 0.6466
vt 0.3209 0.5903
vt 0.3209 0.6188
vt 0.1159 0.646
vt 0.5439 0.3961
vt 0.4362 0.5402
vt 0.539 0.5484
vt 0.4798 0.3964
vt 0.3229 0.396
vt 0.0972 0.3941
vt 0.0943 0.567
vt 0.1382 0.587
vt 0.0628 0.3946
vt 0.4266 0.6191
vt 0.5076 0.6239
vt 0.1477 0.6495
vt 0.1146 0.646
vt 0.3067 0.3999
vt 0.3205 0.396
vt 0.619 0.6548
vt 0.6189 0.7091
vt 0.5843 0.6897
vt 0.5976 0.6447
vt 0.5388 0.6766
vt 0.5504 0.6305
vt 0.5224 0.6734
vt 0.5314 0.6312
vt 0.0918 0.6537
vt 0.101 0.6979
vt 0.0841 0.7105
vt 0.0722 0.6666
vt 0.011 0.7191
vt -0.0026 0.6764
vt -0.0083 0.7151
vt -0.0246 0.6733
vt 0.5847 0.6897
vt 0.6193 0.7091
vt 0.6194 0.6548
vt 0.5979 0.6447
vt 0.5392 0.6766
vt 0.5508 0.6305
vt 0.5228 0.6734
vt 0.5318 0.6312
vt 0.0835 0.7105
vt 0.1004 0.6979
vt 0.0911 0.6537
vt 0.0715 0.6666
vt 0.0104 0.7191
vt -0.0033 0.6764
vt -0.009 0.7151
vt 0.3268 0.6733
vt 0.3648 0.7764
vt 0.3645 0.7811
vt 0.3688 0.7785
vt 0.3704 0.7829
vt 0.3643 0.7764
vt 0.3643 0.788
vt 0.3649 0.788
vt 0.3688 0.7864
vt 0.3603 0.7785
vt 0.3587 0.7829
vt 0.3603 0.7864
vt 0.4623 0.8452
vt 0.5711 0.8895
vt 0.5152 0.9857
vt 0.4107 0.9682
vt 0.6166 0.9419
vt 0.5711 0.8895
vt 0.4607 0.8458
vt 0.467 0.8452
vt 0.5176 0.9857
vt 0.5735 0.8895
vt 0.4146 0.9682
vt 0.6191 0.9419
vt 0.5735 0.8895
vt 0.4753 0.8971
vt 0.3211 0.386
vt 0.3597 0.3076
vt 0.3251 0.3141
vt 0.3462 0.3854
vt 0.4531 0.3055
vt 0.4567 0.3878
vt 0.5092 0.318
vt 0.501 0.3907
vt 0.1227 0.381
vt 0.172 0.305
vt 0.1143 0.3255
vt 0.1682 0.3893
vt 0.2679 0.3073
vt 0.2818 0.3868
vt 0.3034 0.3214
vt 0.3076 0.3761
vt 0.3679 0.224
vt 0.3439 0.2248
vt 0.457 0.224
vt 0.4803 0.2275
vt 0.1679 0.2156
vt 0.144 0.2307
vt 0.2595 0.2154
vt 0.2842 0.228
vt 0.3179 0.386
vt 0.3219 0.3141
vt 0.3565 0.3076
vt 0.343 0.3854
vt 0.4499 0.3055
vt 0.4535 0.3878
vt 0.506 0.318
vt 0.4978 0.3907
vt 0.1263 0.381
vt 0.1179 0.3255
vt 0.1755 0.305
vt 0.1718 0.3893
vt 0.2715 0.3073
vt 0.2854 0.3868
vt 0.307 0.3214
vt 0.3112 0.3761
vt 0.3647 0.224
vt 0.3407 0.2248
vt 0.4538 0.224
vt 0.4771 0.2275
vt 0.1715 0.2156
vt 0.1475 0.2307
vt 0.263 0.2154
vt 0.2877 0.228
vt 0.8978 0.2885
vt 0.9512 0.2148
vt 0.9079 0.214
vt 0.9453 0.2885
vt 0.9872 0.2148
vt 0.9902 0.2885
vt 0.5506 0.2885
vt 0.6204 0.2141
vt 0.5476 0.2148
vt 0.6338 0.2885
vt 0.7271 0.2137
vt 0.7281 0.2884
vt 0.8155 0.2137
vt 0.8209 0.2884
vt 0.9118 0.2143
vt 0.9454 0.1682
vt 0.9185 0.156
vt 0.9498 0.2148
vt 0.9851 0.1684
vt 0.9821 0.2148
vt 0.5425 0.2148
vt 0.6091 0.2143
vt 0.5455 0.1684
vt 0.8286 0.2143
vt 0.9501 0.0722
vt 0.929 0.0747
vt 0.9841 0.0722
vt 0.6025 0.0756
vt 0.5445 0.0722
vt 0.6974 0.0751
vt 0.7294 0.2143
vt 0.853 0.0814
vt 0.9249 0.006
vt 0.9456 0.0033
vt 0.9859 0.0033
vt 0.9975 0.0061
vt 0.9968 0.0066
vt 0.8689 0.0066
vt 0.6033 0.0061
vt 0.5463 0.0033
vt 0.6835 0.0066
vt 0.7583 0.0458
vt 0.7916 0.0506
vt 0.7909 0.0078
vt 0.7624 0.0067
vt 0.9212 0.2936
vt 0.9305 0.2134
vt 0.9701 0.2136
vt 0.9647 0.294
vt 0.5735 0.294
vt 0.5789 0.2136
vt 0.61 0.2136
vt 0.6128 0.294
vt 0.6441 0.2135
vt 0.6563 0.2936
vt 0.7417 0.2134
vt 0.7425 0.2933
vt 0.8225 0.2134
vt 0.8275 0.2933
vt 0.934 0.2135
vt 0.9402 0.1446
vt 0.9647 0.1582
vt 0.9688 0.2136
vt 0.5776 0.2136
vt 0.5736 0.1582
vt 0.6081 0.1584
vt 0.6054 0.2136
vt 0.6338 0.2135
vt 0.8345 0.2135
vt 0.9497 0.0788
vt 0.9691 0.076
vt 0.5779 0.076
vt 0.6072 0.076
vt 0.6277 0.0798
vt 0.7145 0.0792
vt 0.7437 0.2135
vt 0.8568 0.0862
vt 0.5548 0.0026
vt 0.6088 -0.0005
vt 0.5738 -0.0005
vt 0.6285 0.0026
vt 0.7018 0.0032
vt 0.8713 0.0032
vt 0.965 -0.0005
vt 0.946 0.0026
vt 0.7702 0.0467
vt 0.8 0.0045
vt 0.8006 0.052
vt 0.7739 0.0033
vt 0.7385 0.3004
vt 0.8217 0.2977
vt 0.7499 0.2985
vt 0.7233 0.3554
vt 0.8306 0.3751
vt 0.8408 0.3955
vt 0.8326 0.353
vt 0.8315 0.298
vt 0.8201 0.355
vt 0.8146 0.4175
vt 0.7383 0.4163
vt 0.7418 0.3558
vt 0.6847 0.413
vt 0.6447 0.4202
vt 0.8902 0.4098
vt 0.8615 0.3509
vt 0.8691 0.3532
vt 0.8658 0.3571
vt 0.8594 0.3545
vt 0.8546 0.4102
vt 0.7652 0.4964
vt 0.711 0.4788
vt 0.675 0.4728
vt 0.6491 0.4751
vt 0.6345 0.4202
vt 0.9287 0.4814
vt 0.8633 0.4917
vt 0.8201 0.4977
vt 0.7451 0.5854
vt 0.7069 0.5255
vt 0.6648 0.5123
vt 0.9971 0.479
vt 0.992 0.5831
vt 0.9506 0.585
vt 0.8847 0.5908
vt 0.8173 0.5916
vt 0.6233 0.5871
vt 0.8055 0.2888
vt 0.7391 0.288
vt 0.8174 0.2909
vt 0.7192 0.3773
vt 0.7298 0.3691
vt 0.8333 0.3485
vt 0.7277 0.346
vt 0.7289 0.2884
vt 0.8175 0.4122
vt 0.7466 0.4222
vt 0.7408 0.3481
vt 0.8139 0.3489
vt 0.8648 0.4043
vt 0.6788 0.3915
vt 0.6453 0.3904
vt 0.7044 0.3502
vt 0.701 0.3461
vt 0.7089 0.3437
vt 0.7111 0.3475
vt 0.7161 0.4146
vt 0.8462 0.4777
vt 0.7894 0.4896
vt 0.6416 0.4574
vt 0.6211 0.4637
vt 0.6228 0.3983
vt 0.6789 0.4599
vt 0.6981 0.4707
vt 0.7225 0.4909
vt 0.8732 0.5884
vt 0.8105 0.5937
vt 0.6409 0.5118
vt 0.6253 0.5257
vt 0.6578 0.5139
vt 0.685 0.5308
vt 0.731 0.5865
vt 0.6346 0.5867
vt 0.0869 0.0342
vt 0.1353 0.0361
vt 0.1345 0.065
vt 0.0695 0.0725
vt 0.0343 0.0271
vt 0.0309 0.0682
vt 0.0332 0.0242
vt 0.2046 0.0077
vt 0.2714 -0.0011
vt 0.2713 0.0257
vt 0.2045 0.0365
vt 0.4096 0.0361
vt 0.4573 0.0386
vt 0.472 0.0718
vt 0.4104 0.065
vt 0.5281 0.0299
vt 0.4573 0.0386
vt 0.472 0.0718
vt 0.5278 0.0754
vt 0.3388 0.0077
vt 0.3387 0.0365
vt 0.2526 0.0186
vt 0.2719 0.0129
vt 0.2717 0.0426
vt 0.2423 0.0426
vt 0.2911 0.0186
vt 0.3011 0.0426
vt 0.3349 0.064
vt 0.3309 0.1199
vt 0.3003 0.093
vt 0.2805 0.0635
vt 0.2656 0.0635
vt 0.2433 0.093
vt 0.2086 0.064
vt 0.4605 0.2097
vt 0.2723 0.2039
vt 0.5304 0.2053
vt 0.4755 0.2044
vt 0.5304 0.2053
vt 0.5291 0.2054
vt 0.3216 0.2039
vt 0.3369 0.1153
vt 0.3897 0.1766
vt 0.388 0.2067
vt 0.4609 0.1768
vt 0.4755 0.2044
vt 0.5258 0.1768
vt 0.4609 0.1768
vt 0.3934 0.0586
vt 0.4532 0.1257
vt 0.5283 0.1238
vt 0.4532 0.1257
vt 0.5293 0.1754
vt 0.3371 0.0536
vt 0.4125 0.0313
vt 0.4732 0.0021
vt 0.528 0.0007
vt 0.4732 0.0021
vt 0.281 0.1068
vt 0.2651 0.1068
vt 0.0296 0.2079
vt 0.223 0.2039
vt 0.1568 0.2067
vt 0.0725 0.2111
vt 0.1551 0.1766
vt 0.2078 0.1153
vt 0.077 0.1797
vt 0.0287 0.1772
vt 0.1514 0.0586
vt 0.0964 0.1267
vt 0.0287 0.1232
vt 0.2076 0.0536
vt 0.1323 0.0313
vt 0.0766 0.005
vt 0.0303 -0.0037
vt 0.2125 0.1199
vt 0.6745 0.9561
vt 0.7975 0.9507
vt 0.8133 0.9622
vt 0.6745 0.9561
vt 0.8222 0.8501
vt 0.694 0.8367
vt 0.838 0.8615
vt 0.694 0.8367
vt 0.8875 0.9754
vt 0.8133 0.9622
vt 0.7975 0.9507
vt 0.8222 0.8501
vt 0.838 0.8615
vt 0.6748 0.9561
vt 0.8136 0.9622
vt 0.7978 0.9507
vt 0.6748 0.9561
vt 0.8225 0.8501
vt 0.6943 0.8367
vt 0.8383 0.8615
vt 0.6943 0.8367
vt 0.8878 0.9754
vt 0.7978 0.9507
vt 0.8136 0.9622
vt 0.8225 0.8501
vt 0.8383 0.8615
f 1/1/1 3/3/3 2/2/2
f 1/1/1 4/4/4 3/3/3
f 4/4/4 5/5/5 3/3/3
f 6/6/6 8/8/8 7/7/7
f 6/6/6 9/9/9 8/8/8
f 9/9/9 10/10/10 8/8/8
f 9/9/9 11/11/11 10/10/10
f 2/2/2 13/13/13 12/12/12
f 2/2/2 3/3/3 13/13/13
f 3/3/3 14/14/14 13/13/13
f 3/3/3 5/5/5 14/14/14
f 7/7/7 16/16/16 15/15/15
f 7/7/7 8/8/8 16/16/16
f 8/8/8 17/17/17 16/16/16
f 8/8/8 10/10/10 17/17/17
f 18/18/18 20/20/20 19/19/19
f 18/18/18 21/21/21 20/20/20
f 13/13/13 14/14/14 20/20/20
f 15/15/15 23/23/23 22/22/22
f 15/15/15 16/16/16 23/23/23
f 24/24/24 25/25/25 23/23/23
f 24/24/24 26/26/26 25/25/25
f 27/27/27 29/29/29 28/28/28
f 27/27/27 20/20/20 29/29/29
f 20/20/20 30/30/30 29/29/29
f 20/20/20 14/14/14 30/30/30
f 22/22/22 32/32/32 31/31/31
f 22/22/22 23/23/23 32/32/32
f 23/23/23 33/33/33 32/32/32
f 23/23/23 34/34/34 33/33/33
f 4/4/4 1/1/1 35/35/35
f 35/35/35 36/36/36 4/4/4
f 5/5/5 4/4/4 36/36/36
f 36/36/36 37/37/37 5/5/5
f 9/9/9 6/6/6 38/38/38
f 38/38/38 39/39/39 9/9/9
f 11/11/11 9/9/9 39/39/39
f 39/39/39 40/40/40 11/11/11
f 20/20/20 21/21/21 13/13/13
f 23/23/23 16/16/16 24/24/24
f 12/12/12 13/13/13 41/41/41
f 41/41/41 42/42/42 12/12/12
f 16/16/16 17/17/17 43/43/43
f 43/43/43 44/44/44 16/16/16
f 21/21/21 41/41/41 13/13/13
f 24/24/24 16/16/16 44/44/44
f 45/45/45 47/47/47 46/46/46
f 5/5/5 45/45/45 46/46/46
f 48/48/48 6/6/6 7/7/7
f 49/49/49 6/6/6 48/48/48
f 50/50/50 49/49/49 48/48/48
f 51/51/51 47/47/47 52/52/52
f 46/46/46 47/47/47 51/51/51
f 14/14/14 46/46/46 51/51/51
f 5/5/5 46/46/46 14/14/14
f 53/53/53 7/7/7 15/15/15
f 48/48/48 7/7/7 53/53/53
f 54/54/54 48/48/48 53/53/53
f 50/50/50 48/48/48 54/54/54
f 55/55/55 57/57/57 56/56/56
f 58/58/58 57/57/57 55/55/55
f 14/14/14 51/51/51 55/55/55
f 59/59/59 15/15/15 22/22/22
f 53/53/53 15/15/15 59/59/59
f 60/60/60 61/61/61 59/59/59
f 62/62/62 61/61/61 60/60/60
f 63/63/63 65/65/65 64/64/64
f 55/55/55 65/65/65 63/63/63
f 30/30/30 55/55/55 63/63/63
f 14/14/14 55/55/55 30/30/30
f 66/66/66 22/22/22 31/31/31
f 59/59/59 22/22/22 66/66/66
f 67/67/67 59/59/59 66/66/66
f 68/68/68 59/59/59 67/67/67
f 47/47/47 45/45/45 69/69/69
f 70/70/70 69/69/69 45/45/45
f 45/45/45 5/5/5 70/70/70
f 37/37/37 70/70/70 5/5/5
f 6/6/6 49/49/49 38/38/38
f 71/71/71 38/38/38 49/49/49
f 49/49/49 50/50/50 71/71/71
f 72/72/72 71/71/71 50/50/50
f 58/58/58 55/55/55 51/51/51
f 53/53/53 59/59/59 61/61/61
f 51/51/51 52/52/52 73/73/73
f 74/74/74 73/73/73 52/52/52
f 54/54/54 53/53/53 75/75/75
f 76/76/76 75/75/75 53/53/53
f 73/73/73 58/58/58 51/51/51
f 53/53/53 61/61/61 76/76/76
f 77/77/77 79/79/79 78/78/78
f 80/80/80 77/77/77 78/78/78
f 81/81/81 83/83/83 82/82/82
f 84/84/84 83/83/83 81/81/81
f 85/85/85 84/84/84 81/81/81
f 86/86/86 87/87/87 79/79/79
f 77/77/77 86/86/86 79/79/79
f 88/88/88 86/86/86 77/77/77
f 89/89/89 88/88/88 77/77/77
f 90/90/90 92/92/92 91/91/91
f 83/83/83 90/90/90 91/91/91
f 93/93/93 90/90/90 83/83/83
f 84/84/84 93/93/93 83/83/83
f 36/36/36 35/35/35 87/87/87
f 86/86/86 36/36/36 87/87/87
f 37/37/37 36/36/36 86/86/86
f 88/88/88 37/37/37 86/86/86
f 39/39/39 38/38/38 92/92/92
f 90/90/90 39/39/39 92/92/92
f 40/40/40 39/39/39 90/90/90
f 93/93/93 40/40/40 90/90/90
f 94/94/94 96/96/96 95/95/95
f 94/94/94 95/95/95 97/97/97
f 97/97/97 95/95/95 89/89/89
f 97/97/97 89/89/89 98/98/98
f 99/99/99 101/101/101 100/100/100
f 99/99/99 100/100/100 102/102/102
f 96/96/96 104/104/104 103/103/103
f 96/96/96 103/103/103 95/95/95
f 95/95/95 103/103/103 88/88/88
f 95/95/95 88/88/88 89/89/89
f 91/91/91 92/92/92 105/105/105
f 91/91/91 105/105/105 101/101/101
f 101/101/101 105/105/105 106/106/106
f 101/101/101 106/106/106 100/100/100
f 104/104/104 69/69/69 70/70/70
f 104/104/104 70/70/70 103/103/103
f 103/103/103 70/70/70 37/37/37
f 103/103/103 37/37/37 88/88/88
f 92/92/92 38/38/38 71/71/71
f 92/92/92 71/71/71 105/105/105
f 105/105/105 71/71/71 72/72/72
f 105/105/105 72/72/72 106/106/106
f 99/99/99 107/107/107 101/101/101
f 82/82/82 91/91/91 107/107/107
f 101/101/101 107/107/107 91/91/91
f 91/91/91 82/82/82 83/83/83
f 108/108/108 98/98/98 89/89/89
f 80/80/80 108/108/108 89/89/89
f 77/77/77 80/80/80 89/89/89
f 109/109/109 111/111/111 110/110/110
f 109/109/109 112/112/112 111/111/111
f 112/112/112 113/113/113 111/111/111
f 112/112/112 114/114/114 113/113/113
f 114/114/114 115/115/115 113/113/113
f 114/114/114 116/116/116 115/115/115
f 117/117/117 119/119/119 118/118/118
f 117/117/117 120/120/120 119/119/119
f 120/120/120 121/121/121 119/119/119
f 120/120/120 122/122/122 121/121/121
f 122/122/122 123/123/123 121/121/121
f 122/122/122 124/124/124 123/123/123
f 110/110/110 21/21/21 18/18/18
f 110/110/110 111/111/111 21/21/21
f 111/111/111 41/41/41 21/21/21
f 111/111/111 113/113/113 41/41/41
f 113/113/113 42/42/42 41/41/41
f 113/113/113 115/115/115 42/42/42
f 118/118/118 44/44/44 43/43/43
f 118/118/118 119/119/119 44/44/44
f 119/119/119 24/24/24 44/44/44
f 119/119/119 121/121/121 24/24/24
f 121/121/121 26/26/26 24/24/24
f 121/121/121 123/123/123 26/26/26
f 125/125/125 127/127/127 126/126/126
f 128/128/128 127/127/127 125/125/125
f 129/129/129 128/128/128 125/125/125
f 130/130/130 128/128/128 129/129/129
f 131/131/131 130/130/130 129/129/129
f 132/132/132 130/130/130 131/131/131
f 133/133/133 135/135/135 134/134/134
f 136/136/136 135/135/135 133/133/133
f 137/137/137 136/136/136 133/133/133
f 138/138/138 136/136/136 137/137/137
f 139/139/139 138/138/138 137/137/137
f 140/140/140 138/138/138 139/139/139
f 58/58/58 126/126/126 57/57/57
f 125/125/125 126/126/126 58/58/58
f 73/73/73 125/125/125 58/58/58
f 129/129/129 125/125/125 73/73/73
f 74/74/74 129/129/129 73/73/73
f 131/131/131 129/129/129 74/74/74
f 76/76/76 134/134/134 75/75/75
f 133/133/133 134/134/134 76/76/76
f 61/61/61 133/133/133 76/76/76
f 137/137/137 133/133/133 61/61/61
f 62/62/62 137/137/137 61/61/61
f 139/139/139 137/137/137 62/62/62
f 141/141/141 143/143/143 142/142/142
f 142/142/142 143/143/143 144/144/144
f 141/141/141 142/142/142 145/145/145
f 142/142/142 147/147/147 146/146/146
f 142/142/142 144/144/144 148/148/148
f 142/142/142 148/148/148 147/147/147
f 145/145/145 142/142/142 149/149/149
f 142/142/142 150/150/150 149/149/149
f 150/150/150 142/142/142 151/151/151
f 142/142/142 146/146/146 151/151/151
f 152/152/152 154/154/154 153/153/153
f 154/154/154 152/152/152 155/155/155
f 156/156/156 153/153/153 154/154/154
f 156/156/156 154/154/154 157/157/157
f 157/157/157 155/155/155 158/158/158
f 155/155/155 157/157/157 154/154/154
f 159/159/159 161/161/161 160/160/160
f 160/160/160 162/162/162 159/159/159
f 163/163/163 160/160/160 161/161/161
f 163/163/163 164/164/164 160/160/160
f 164/164/164 165/165/165 162/162/162
f 162/162/162 160/160/160 164/164/164
f 166/166/166 168/168/168 167/167/167
f 166/166/166 167/167/167 169/169/169
f 169/169/169 167/167/167 170/170/170
f 169/169/169 170/170/170 171/171/171
f 171/171/171 170/170/170 172/172/172
f 171/171/171 172/172/172 173/173/173
f 174/174/174 176/176/176 175/175/175
f 174/174/174 175/175/175 177/177/177
f 177/177/177 175/175/175 178/178/178
f 177/177/177 178/178/178 179/179/179
f 179/179/179 178/178/178 180/180/180
f 179/179/179 180/180/180 181/181/181
f 182/182/182 168/168/168 183/183/183
f 168/168/168 182/182/182 167/167/167
f 184/184/184 167/167/167 182/182/182
f 167/167/167 184/184/184 170/170/170
f 185/185/185 170/170/170 184/184/184
f 170/170/170 185/185/185 172/172/172
f 186/186/186 176/176/176 187/187/187
f 176/176/176 186/186/186 175/175/175
f 188/188/188 175/175/175 186/186/186
f 175/175/175 188/188/188 178/178/178
f 189/189/189 178/178/178 188/188/188
f 178/178/178 189/189/189 180/180/180
f 190/190/190 192/192/192 191/191/191
f 190/190/190 193/193/193 192/192/192
f 193/193/193 194/194/194 192/192/192
f 193/193/193 195/195/195 194/194/194
f 195/195/195 196/196/196 194/194/194
f 195/195/195 197/197/197 196/196/196
f 198/198/198 200/200/200 199/199/199
f 198/198/198 201/201/201 200/200/200
f 201/201/201 202/202/202 200/200/200
f 201/201/201 203/203/203 202/202/202
f 203/203/203 204/204/204 202/202/202
f 203/203/203 205/205/205 204/204/204
f 206/206/206 207/207/207 191/191/191
f 191/191/191 192/192/192 206/206/206
f 208/208/208 206/206/206 192/192/192
f 192/192/192 194/194/194 208/208/208
f 209/209/209 208/208/208 194/194/194
f 194/194/194 196/196/196 209/209/209
f 210/210/210 211/211/211 199/199/199
f 199/199/199 200/200/200 210/210/210
f 212/212/212 210/210/210 200/200/200
f 200/200/200 202/202/202 212/212/212
f 213/213/213 212/212/212 202/202/202
f 202/202/202 204/204/204 213/213/213
f 214/214/214 216/216/216 215/215/215
f 214/214/214 215/215/215 217/217/217
f 217/217/217 215/215/215 218/218/218
f 217/217/217 218/218/218 219/219/219
f 220/220/220 222/222/222 221/221/221
f 220/220/220 221/221/221 223/223/223
f 223/223/223 221/221/221 224/224/224
f 223/223/223 224/224/224 225/225/225
f 225/225/225 224/224/224 226/226/226
f 225/225/225 226/226/226 227/227/227
f 227/227/227 226/226/226 216/216/216
f 227/227/227 216/216/216 214/214/214
f 228/228/228 230/230/230 229/229/229
f 228/228/228 229/229/229 231/231/231
f 231/231/231 229/229/229 232/232/232
f 231/231/231 232/232/232 233/233/233
f 234/234/234 236/236/236 235/235/235
f 237/237/237 230/230/230 228/228/228
f 230/230/230 239/239/239 238/238/238
f 230/230/230 238/238/238 229/229/229
f 229/229/229 238/238/238 240/240/240
f 229/229/229 240/240/240 232/232/232
f 236/236/236 242/242/242 241/241/241
f 236/236/236 241/241/241 235/235/235
f 235/235/235 241/241/241 243/243/243
f 235/235/235 243/243/243 244/244/244
f 244/244/244 243/243/243 245/245/245
f 244/244/244 245/245/245 237/237/237
f 237/237/237 245/245/245 239/239/239
f 237/237/237 239/239/239 230/230/230
f 246/246/246 248/248/248 247/247/247
f 246/246/246 249/249/249 248/248/248
f 246/246/246 250/250/250 249/249/249
f 246/246/246 251/251/251 250/250/250
f 239/239/239 247/247/247 238/238/238
f 247/247/247 239/239/239 246/246/246
f 238/238/238 248/248/248 240/240/240
f 248/248/248 238/238/238 247/247/247
f 242/242/242 252/252/252 241/241/241
f 252/252/252 242/242/242 253/253/253
f 241/241/241 254/254/254 243/243/243
f 254/254/254 241/241/241 252/252/252
f 255/255/255 257/257/257 256/256/256
f 257/257/257 255/255/255 258/258/258
f 245/245/245 246/246/246 239/239/239
f 246/246/246 245/245/245 251/251/251
f 243/243/243 256/256/256 245/245/245
f 256/256/256 243/243/243 255/255/255
f 251/251/251 258/258/258 254/254/254
f 258/258/258 251/251/251 257/257/257
f 254/254/254 255/255/255 243/243/243
f 255/255/255 254/254/254 258/258/258
f 245/245/245 257/257/257 251/251/251
f 257/257/257 245/245/245 256/256/256
f 259/259/259 261/261/261 260/260/260
f 259/259/259 262/262/262 261/261/261
f 263/263/263 265/265/265 264/264/264
f 263/263/263 266/266/266 265/265/265
f 266/266/266 267/267/267 265/265/265
f 266/266/266 268/268/268 267/267/267
f 268/268/268 269/269/269 267/267/267
f 268/268/268 270/270/270 269/269/269
f 270/270/270 271/271/271 269/269/269
f 270/270/270 272/272/272 271/271/271
f 272/272/272 260/260/260 271/271/271
f 272/272/272 259/259/259 260/260/260
f 273/273/273 275/275/275 274/274/274
f 273/273/273 276/276/276 275/275/275
f 277/277/277 279/279/279 278/278/278
f 277/277/277 280/280/280 279/279/279
f 280/280/280 281/281/281 279/279/279
f 282/282/282 273/273/273 274/274/274
f 274/274/274 284/284/284 283/283/283
f 274/274/274 275/275/275 284/284/284
f 278/278/278 286/286/286 285/285/285
f 278/278/278 279/279/279 286/286/286
f 279/279/279 287/287/287 286/286/286
f 279/279/279 281/281/281 287/287/287
f 281/281/281 288/288/288 287/287/287
f 281/281/281 289/289/289 288/288/288
f 289/289/289 290/290/290 288/288/288
f 289/289/289 282/282/282 290/290/290
f 282/282/282 283/283/283 290/290/290
f 282/282/282 274/274/274 283/283/283
f 291/291/291 293/293/293 292/292/292
f 291/291/291 292/292/292 294/294/294
f 291/291/291 294/294/294 295/295/295
f 291/291/291 295/295/295 296/296/296
f 283/283/283 284/284/284 297/297/297
f 297/297/297 298/298/298 283/283/283
f 285/285/285 286/286/286 292/292/292
f 292/292/292 293/293/293 285/285/285
f 286/286/286 287/287/287 294/294/294
f 294/294/294 292/292/292 286/286/286
f 287/287/287 288/288/288 295/295/295
f 295/295/295 294/294/294 287/287/287
f 299/299/299 301/301/301 300/300/300
f 300/300/300 302/302/302 299/299/299
f 290/290/290 283/283/283 298/298/298
f 298/298/298 296/296/296 290/290/290
f 288/288/288 290/290/290 301/301/301
f 301/301/301 299/299/299 288/288/288
f 296/296/296 295/295/295 302/302/302
f 302/302/302 300/300/300 296/296/296
f 295/295/295 288/288/288 299/299/299
f 299/299/299 302/302/302 295/295/295
f 290/290/290 296/296/296 300/300/300
f 300/300/300 301/301/301 290/290/290
f 303/303/303 305/305/305 304/304/304
f 306/306/306 308/308/308 307/307/307
f 306/306/306 309/309/309 308/308/308
f 303/303/303 304/304/304 310/310/310
f 311/311/311 313/313/313 312/312/312
f 311/311/311 314/314/314 313/313/313
f 314/314/314 315/315/315 313/313/313
f 314/314/314 306/306/306 315/315/315
f 306/306/306 316/316/316 315/315/315
f 306/306/306 307/307/307 317/317/317
f 318/318/318 320/320/320 319/319/319
f 318/318/318 321/321/321 320/320/320
f 308/308/308 312/312/312 322/322/322
f 308/308/308 309/309/309 312/312/312
f 309/309/309 311/311/311 312/312/312
f 312/312/312 324/324/324 323/323/323
f 312/312/312 313/313/313 324/324/324
f 313/313/313 325/325/325 324/324/324
f 313/313/313 315/315/315 325/325/325
f 315/315/315 326/326/326 325/325/325
f 315/315/315 327/327/327 326/326/326
f 317/317/317 329/329/329 328/328/328
f 317/317/317 322/322/322 329/329/329
f 322/322/322 330/330/330 329/329/329
f 322/322/322 312/312/312 330/330/330
f 312/312/312 323/323/323 330/330/330
f 323/323/323 332/332/332 331/331/331
f 323/323/323 324/324/324 332/332/332
f 324/324/324 333/333/333 332/332/332
f 324/324/324 325/325/325 333/333/333
f 334/334/334 336/336/336 335/335/335
f 334/334/334 328/328/328 336/336/336
f 328/328/328 337/337/337 336/336/336
f 328/328/328 329/329/329 337/337/337
f 329/329/329 338/338/338 337/337/337
f 329/329/329 330/330/330 338/338/338
f 330/330/330 331/331/331 338/338/338
f 330/330/330 323/323/323 331/331/331
f 307/307/307 308/308/308 321/321/321
f 321/321/321 318/318/318 307/307/307
f 317/317/317 307/307/307 318/318/318
f 318/318/318 319/319/319 317/317/317
f 322/322/322 317/317/317 319/319/319
f 319/319/319 320/320/320 322/322/322
f 308/308/308 322/322/322 320/320/320
f 320/320/320 321/321/321 308/308/308
f 314/314/314 311/311/311 304/304/304
f 304/304/304 305/305/305 314/314/314
f 306/306/306 314/314/314 305/305/305
f 305/305/305 303/303/303 306/306/306
f 309/309/309 306/306/306 303/303/303
f 303/303/303 310/310/310 309/309/309
f 311/311/311 309/309/309 310/310/310
f 310/310/310 304/304/304 311/311/311
f 331/331/331 339/339/339 338/338/338
f 338/338/338 336/336/336 337/337/337
f 331/331/331 332/332/332 339/339/339
f 332/332/332 333/333/333 339/339/339
f 340/340/340 342/342/342 341/341/341
f 343/343/343 345/345/345 344/344/344
f 346/346/346 345/345/345 343/343/343
f 341/341/341 342/342/342 347/347/347
f 348/348/348 350/350/350 349/349/349
f 351/351/351 350/350/350 348/348/348
f 352/352/352 351/351/351 348/348/348
f 345/345/345 351/351/351 352/352/352
f 353/353/353 345/345/345 354/354/354
f 344/344/344 345/345/345 353/353/353
f 355/355/355 357/357/357 356/356/356
f 358/358/358 357/357/357 355/355/355
f 349/349/349 343/343/343 359/359/359
f 346/346/346 343/343/343 349/349/349
f 350/350/350 346/346/346 349/349/349
f 360/360/360 349/349/349 361/361/361
f 348/348/348 349/349/349 360/360/360
f 362/362/362 364/364/364 363/363/363
f 354/354/354 364/364/364 362/362/362
f 365/365/365 354/354/354 362/362/362
f 353/353/353 354/354/354 365/365/365
f 366/366/366 353/353/353 365/365/365
f 359/359/359 353/353/353 366/366/366
f 367/367/367 359/359/359 366/366/366
f 349/349/349 359/359/359 367/367/367
f 361/361/361 349/349/349 367/367/367
f 368/368/368 361/361/361 369/369/369
f 360/360/360 361/361/361 368/368/368
f 370/370/370 363/363/363 371/371/371
f 362/362/362 363/363/363 370/370/370
f 372/372/372 362/362/362 370/370/370
f 365/365/365 362/362/362 372/372/372
f 373/373/373 365/365/365 372/372/372
f 366/366/366 365/365/365 373/373/373
f 374/374/374 366/366/366 373/373/373
f 367/367/367 366/366/366 374/374/374
f 369/369/369 367/367/367 374/374/374
f 361/361/361 367/367/367 369/369/369
f 343/343/343 344/344/344 358/358/358
f 357/357/357 358/358/358 344/344/344
f 344/344/344 353/353/353 357/357/357
f 356/356/356 357/357/357 353/353/353
f 353/353/353 359/359/359 356/356/356
f 355/355/355 356/356/356 359/359/359
f 359/359/359 343/343/343 355/355/355
f 358/358/358 355/355/355 343/343/343
f 350/350/350 351/351/351 341/341/341
f 340/340/340 341/341/341 351/351/351
f 351/351/351 345/345/345 340/340/340
f 342/342/342 340/340/340 345/345/345
f 345/345/345 346/346/346 342/342/342
f 347/347/347 342/342/342 346/346/346
f 346/346/346 350/350/350 347/347/347
f 341/341/341 347/347/347 350/350/350
f 372/372/372 375/375/375 374/374/374
f 372/372/372 374/374/374 373/373/373
f 371/371/371 375/375/375 372/372/372
f 370/370/370 371/371/371 372/372/372
f 376/376/376 378/378/378 377/377/377
f 378/378/378 376/376/376 379/379/379
f 380/380/380 379/379/379 376/376/376
f 379/379/379 382/382/382 381/381/381
f 383/383/383 385/385/385 384/384/384
f 385/385/385 383/383/383 386/386/386
f 387/387/387 389/389/389 388/388/388
f 389/389/389 387/387/387 390/390/390
f 391/391/391 393/393/393 392/392/392
f 393/393/393 391/391/391 394/394/394
f 384/384/384 396/396/396 395/395/395
f 396/396/396 384/384/384 385/385/385
f 395/395/395 390/390/390 387/387/387
f 390/390/390 395/395/395 396/396/396
f 397/397/397 399/399/399 398/398/398
f 399/399/399 397/397/397 400/400/400
f 398/398/398 402/402/402 401/401/401
f 402/402/402 398/398/398 399/399/399
f 386/386/386 398/398/398 385/385/385
f 398/398/398 386/386/386 397/397/397
f 385/385/385 401/401/401 396/396/396
f 401/401/401 385/385/385 398/398/398
f 396/396/396 402/402/402 403/403/403
f 402/402/402 396/396/396 401/401/401
f 403/403/403 405/405/405 404/404/404
f 405/405/405 403/403/403 402/402/402
f 406/406/406 402/402/402 399/399/399
f 407/407/407 399/399/399 400/400/400
f 406/406/406 399/399/399 407/407/407
f 408/408/408 400/400/400 409/409/409
f 400/400/400 397/397/397 386/386/386
f 400/400/400 386/386/386 409/409/409
f 410/410/410 412/412/412 411/411/411
f 413/413/413 414/414/414 412/412/412
f 413/413/413 415/415/415 414/414/414
f 416/416/416 418/418/418 417/417/417
f 416/416/416 419/419/419 418/418/418
f 419/419/419 420/420/420 418/418/418
f 419/419/419 421/421/421 420/420/420
f 415/415/415 423/423/423 422/422/422
f 415/415/415 413/413/413 423/423/423
f 417/417/417 418/418/418 424/424/424
f 418/418/418 425/425/425 424/424/424
f 418/418/418 420/420/420 425/425/425
f 422/422/422 427/427/427 426/426/426
f 428/428/428 423/423/423 427/427/427
f 424/424/424 429/429/429 417/417/417
f 430/430/430 425/425/425 431/431/431
f 425/425/425 430/430/430 424/424/424
f 432/432/432 427/427/427 433/433/433
f 427/427/427 432/432/432 426/426/426
f 434/434/434 407/407/407 435/435/435
f 434/434/434 406/406/406 407/407/407
f 411/411/411 434/434/434 435/435/435
f 436/436/436 411/411/411 437/437/437
f 436/436/436 437/437/437 438/438/438
f 436/436/436 438/438/438 439/439/439
f 437/437/437 441/441/441 440/440/440
f 437/437/437 440/440/440 438/438/438
f 438/438/438 440/440/440 442/442/442
f 438/438/438 442/442/442 439/439/439
f 439/439/439 442/442/442 443/443/443
f 439/439/439 443/443/443 436/436/436
f 441/441/441 444/444/444 440/440/440
f 440/440/440 444/444/444 445/445/445
f 440/440/440 445/445/445 442/442/442
f 442/442/442 445/445/445 446/446/446
f 442/442/442 446/446/446 443/443/443
f 444/444/444 441/441/441 447/447/447
f 448/448/448 449/449/449 445/445/445
f 445/445/445 444/444/444 448/448/448
f 449/449/449 450/450/450 446/446/446
f 446/446/446 445/445/445 449/449/449
f 434/434/434 416/416/416 417/417/417
f 434/434/434 411/411/411 416/416/416
f 435/435/435 437/437/437 411/411/411
f 435/435/435 441/441/441 437/437/437
f 408/408/408 409/409/409 451/451/451
f 390/390/390 396/396/396 403/403/403
f 409/409/409 386/386/386 378/378/378
f 386/386/386 377/377/377 378/378/378
f 386/386/386 383/383/383 377/377/377
f 417/417/417 403/403/403 404/404/404
f 417/417/417 429/429/429 403/403/403
f 409/409/409 441/441/441 451/451/451
f 441/441/441 409/409/409 447/447/447
f 405/405/405 406/406/406 434/434/434
f 405/405/405 402/402/402 406/406/406
f 407/407/407 408/408/408 435/435/435
f 407/407/407 400/400/400 408/408/408
f 404/404/404 405/405/405 434/434/434
f 435/435/435 408/408/408 451/451/451
f 452/452/452 454/454/454 453/453/453
f 452/452/452 453/453/453 455/455/455
f 455/455/455 453/453/453 456/456/456
f 455/455/455 456/456/456 457/457/457
f 457/457/457 456/456/456 458/458/458
f 457/457/457 458/458/458 459/459/459
f 459/459/459 458/458/458 454/454/454
f 459/459/459 454/454/454 452/452/452
f 460/460/460 462/462/462 461/461/461
f 460/460/460 463/463/463 462/462/462
f 460/460/460 464/464/464 463/463/463
f 460/460/460 461/461/461 464/464/464
f 465/465/465 467/467/467 466/466/466
f 465/465/465 468/468/468 467/467/467
f 468/468/468 469/469/469 467/467/467
f 468/468/468 470/470/470 469/469/469
f 470/470/470 471/471/471 469/469/469
f 470/470/470 472/472/472 471/471/471
f 472/472/472 466/466/466 471/471/471
f 472/472/472 465/465/465 466/466/466
f 473/473/473 475/475/475 474/474/474
f 473/473/473 474/474/474 476/476/476
f 473/473/473 476/476/476 477/477/477
f 473/473/473 477/477/477 475/475/475
