# Monster02.bmd — MU bind-pose geometry, exported for MU2
# 3 mesh(es)

g hound_head01
# texture: hound_head01.jpg
v 11.47494 162.2312 53.82581
v 7.717046 170.7676 44.1701
v 24.01077 177.454 46.55061
v 21.97113 162.1984 64.49596
v 9.772582 137.5851 106.028
v 11.9748 144.0659 86.40794
v 8.847813 153.8529 93.98611
v 7.307786 139.6657 107.3822
v 15.01632 158.465 82.44866
v 10.68284 166.2229 83.9924
v 21.97113 162.1984 64.49596
v 10.43445 169.9733 73.64211
v 24.01077 177.454 46.55061
v 11.32037 181.2614 62.29742
v -1.084086 174.5301 39.74708
v 1.264274 184.8463 43.82358
v 1.264274 184.8463 43.82358
v 1.264283 191.6772 63.17788
v 1.264255 176.2699 74.01082
v 1.264241 169.0034 86.0125
v 1.264215 155.5993 95.25496
v 9.843303 150.538 104.505
v 8.891397 146.8011 107.3755
v 9.425698 146.1122 106.2288
v 10.34391 149.6277 103.4392
v 1.264182 138.106 111.4976
v 1.264171 131.6736 111.3847
v 7.717046 170.7676 44.1701
v 11.47494 162.2312 53.82581
v 13.42282 157.4718 37.01987
v 11.81445 169.5092 31.20427
v 3.338027 149.4364 48.60574
v 2.53124 146.892 38.18782
v -1.084086 174.5301 39.74708
v -2.151353 171.5082 26.39065
v -3.430627 164.5148 6.215093
v 11.81445 169.5092 31.20427
v 22.2442 172.8181 9.475922
v 23.24303 189.8041 6.749095
v 14.15914 202.8178 18.01749
v -3.430627 164.5148 6.215093
v 7.880582 179.8873 9.134875
v 8.815119 202.8214 1.450565
v 7.416293 189.4243 3.629458
v 21.28332 195.5174 0.497955
v 19.34588 196.4852 -35.23196
v 17.92253 187.8696 -27.36533
v 26.10796 193.5138 -27.81888
v 41.42543 157.9018 -49.21946
v 37.91943 166.325 -39.07336
v 46.8633 163.9333 -42.61958
v 59.14459 145.9716 -29.22041
v -6.586839 159.7555 55.82919
v -21.48224 177.4541 46.55061
v -7.402522 168.6952 45.84715
v -19.44267 162.1985 64.49596
v -7.24422 137.5851 106.028
v -6.319388 153.853 93.98602
v -9.446406 144.0659 86.40794
v -4.779418 139.6657 107.3822
v -8.154368 166.223 83.9924
v -12.48788 158.465 82.44866
v -7.905959 169.9734 73.64211
v -19.44267 162.1985 64.49596
v -8.791839 181.2615 62.29742
v -21.48224 177.4541 46.55061
v -7.314898 150.538 104.505
v -6.897307 146.1122 106.2288
v -6.363006 146.8011 107.3755
v -7.815497 149.6277 103.4392
v -7.402522 168.6952 45.84715
v -10.76762 154.1561 39.70304
v -6.586839 159.7555 55.82919
v -13.70784 166.0109 34.03516
v -13.70784 166.0109 34.03516
v -35.1045 181.8066 13.22089
v -29.06314 165.7855 15.16683
v -27.60402 197.0934 22.64978
v -17.51861 176.4059 11.95211
v -26.14754 198.0291 5.328464
v -20.8024 185.5564 6.759429
v -36.12687 187.6483 6.865779
v -42.25074 188.0423 -28.39978
v -36.93012 180.3511 -21.28119
v -46.22011 183.5999 -19.79639
v -55.74995 144.5822 -38.44096
v -52.51198 153.9298 -29.04289
v -61.04354 149.1428 -30.65076
v -64.92592 128.9655 -15.45875
v -9.446406 144.0659 86.40794
v -12.48788 158.465 82.44866
v 15.01632 158.465 82.44866
v 11.9748 144.0659 86.40794
v -19.44267 162.1985 64.49596
v 21.97113 162.1984 64.49596
v 11.47494 162.2312 53.82581
v -6.586839 159.7555 55.82919
v 1.264171 131.6736 111.3847
v -7.24422 137.5851 106.028
v 9.772582 137.5851 106.028
v 7.307757 125.8881 96.57921
v 10.68279 144.684 71.83582
v 11.97479 141.1624 84.7022
v 9.772572 133.9814 104.077
v 21.97113 160.9696 64.61512
v 15.01632 155.6944 81.26237
v 1.264148 121.4091 99.26772
v 1.264191 142.5054 70.13023
v 3.338027 149.4364 48.60574
v 1.26416 127.8815 109.218
v -4.779443 125.8881 96.57921
v -9.446412 141.1624 84.7022
v -8.154406 144.684 71.83582
v -7.244228 133.9814 104.077
v -19.44267 160.9696 64.61512
v -12.48788 155.6945 81.26237
v -9.446412 141.1624 84.7022
v -7.244228 133.9814 104.077
v 1.26416 127.8815 109.218
v 9.772572 133.9814 104.077
v 11.97479 141.1624 84.7022
v -19.44267 160.9696 64.61512
v -12.48788 155.6945 81.26237
v 21.97113 160.9696 64.61512
v 15.01632 155.6944 81.26237
vn 0.789129 -0.488019 -0.372978
vn 0.895944 0.279981 -0.344811
vn 0.799418 -0.112237 -0.590198
vn 0.877365 -0.43058 0.211733
vn 0.791018 -0.533881 0.298767
vn 0.947352 -0.320117 0.006961
vn 0.808416 0.433855 0.397787
vn 0.893588 -0.049614 0.446139
vn 0.791223 -0.49667 -0.356772
vn 0.669004 0.528752 0.522355
vn 0.877365 -0.43058 0.211733
vn 0.66869 0.582669 0.4619
vn 0.799418 -0.112237 -0.590198
vn 0.67058 0.679708 0.297186
vn -0.173441 0.79519 -0.581026
vn 0.000002 0.851283 -0.524707
vn 0.000002 0.851283 -0.524707
vn 0.000001 0.848232 0.529625
vn 0.000001 0.81439 0.580318
vn 0.000001 0.684607 0.728913
vn 0.000001 0.746853 0.66499
vn 0.689319 0.554279 0.466492
vn 0.344892 0.354368 0.86918
vn 0.885267 -0.133468 0.445521
vn 0.998166 -0.060307 0.005256
vn 0 0.081399 0.996682
vn -0.000001 -0.597051 0.802204
vn 0.895944 0.279981 -0.344811
vn 0.789129 -0.488019 -0.372978
vn 0.978467 -0.009499 0.206186
vn 0.409911 0.813106 0.413318
vn 0.089695 -0.934075 -0.345627
vn 0.163451 -0.932976 0.320687
vn -0.173441 0.79519 -0.581026
vn -0.151095 0.976141 -0.155948
vn -0.172426 0.834627 -0.523132
vn 0.409911 0.813106 0.413318
vn 0.519912 -0.000177 -0.85422
vn 0.881944 -0.230283 -0.411272
vn 0.140624 0.834688 0.532467
vn -0.172426 0.834627 -0.523132
vn -0.903616 0.116939 -0.412073
vn -0.425583 0.902915 0.060194
vn -0.626279 -0.60647 -0.489866
vn 0.991966 -0.068359 -0.106442
vn -0.404342 0.548815 -0.731648
vn -0.311324 -0.913134 0.26318
vn 0.810877 0.319886 0.490053
vn -0.498749 -0.588933 -0.635931
vn -0.093663 -0.353332 0.930798
vn 0.835273 0.541383 -0.096038
vn 0.897474 0.224609 0.379593
vn -0.73306 -0.607401 -0.306084
vn -0.799419 -0.112234 -0.590198
vn -0.990537 0.021406 -0.135566
vn -0.608304 -0.787738 0.097131
vn -0.860596 -0.28294 0.423462
vn -0.808414 0.433859 0.397786
vn -0.713886 -0.59584 -0.367889
vn -0.893588 -0.04961 0.446139
vn -0.669002 0.528755 0.522355
vn -0.993974 -0.03623 0.103459
vn -0.668688 0.582671 0.461899
vn -0.608304 -0.787738 0.097131
vn -0.670578 0.67971 0.297186
vn -0.799419 -0.112234 -0.590198
vn -0.689317 0.554282 0.466491
vn -0.885267 -0.133465 0.445521
vn -0.344891 0.354369 0.869179
vn -0.998166 -0.060303 0.005256
vn -0.990537 0.021406 -0.135566
vn -0.872574 -0.263215 0.411501
vn -0.73306 -0.607401 -0.306084
vn -0.512446 0.686681 0.515624
vn -0.512446 0.686681 0.515624
vn -0.856017 -0.468501 -0.2185
vn -0.672294 -0.163589 -0.721983
vn -0.239504 0.782584 0.57463
vn 0.729376 0.340769 -0.593201
vn 0.17281 0.984936 -0.006178
vn 0.64436 -0.432306 -0.630803
vn -0.936871 -0.33274 0.107501
vn 0.076633 0.614741 -0.784997
vn 0.591947 -0.789325 0.162991
vn -0.741591 0.107093 0.66225
vn 0.488433 -0.453622 -0.745426
vn 0.382213 -0.288105 0.878015
vn -0.949501 0.296748 0.101925
vn -0.8214 -0.010993 0.570247
vn -0.713886 -0.59584 -0.367889
vn -0.993974 -0.03623 0.103459
vn 0.791223 -0.49667 -0.356772
vn 0.947352 -0.320117 0.006961
vn -0.608304 -0.787738 0.097131
vn 0.877365 -0.43058 0.211733
vn 0.789129 -0.488019 -0.372978
vn -0.73306 -0.607401 -0.306084
vn -0.000001 -0.597051 0.802204
vn -0.860596 -0.28294 0.423462
vn 0.791018 -0.533881 0.298767
vn 0.789215 -0.613809 0.019465
vn 0.631502 -0.624969 -0.458932
vn 0.539176 0.688029 0.485701
vn 0.865719 -0.027045 0.499798
vn 0.965506 -0.086673 -0.24553
vn 0.741209 0.42344 0.520872
vn -0.000002 -0.953344 -0.301888
vn -0.000001 -0.752233 -0.658898
vn 0.089695 -0.934075 -0.345627
vn 0 0.044852 0.998994
vn -0.789217 -0.613806 0.019465
vn -0.403391 0.73569 0.544093
vn -0.631505 -0.624966 -0.458932
vn -0.86572 -0.027042 0.499798
vn -0.965507 -0.086669 -0.245531
vn -0.741207 0.423443 0.520872
vn -0.403391 0.73569 0.544093
vn -0.86572 -0.027042 0.499798
vn 0 0.044852 0.998994
vn 0.865719 -0.027045 0.499798
vn 0.539176 0.688029 0.485701
vn -0.965507 -0.086669 -0.245531
vn -0.741207 0.423443 0.520872
vn 0.965506 -0.086673 -0.24553
vn 0.741209 0.42344 0.520872
vt 0.702 0.6613
vt 0.844 0.5767
vt 0.9216 0.7435
vt 0.6495 0.7146
vt 0.0992 0.7737
vt 0.3281 0.7008
vt 0.3296 0.8346
vt 0.1224 0.8097
vt 0.4637 0.8089
vt 0.5022 0.8921
vt 0.6581 0.7216
vt 0.6252 0.8568
vt 0.9312 0.7424
vt 0.8091 0.8853
vt 0.9214 0.5321
vt 0.9975 0.8141
vt 0.9956 0.7931
vt 0.8621 0.9842
vt 0.6648 0.9183
vt 0.5022 0.9223
vt 0.3197 0.862
vt 0.1882 0.8751
vt 0.1357 0.8597
vt 0.1418 0.8454
vt 0.2414 0.8569
vt 0.0513 0.799
vt 0.0084 0.7548
vt 0.8437 0.5855
vt 0.7061 0.6461
vt 0.7312 0.4746
vt 0.8696 0.4826
vt 0.6153 0.5418
vt 0.6268 0.4156
vt 0.9332 0.5552
vt 0.9443 0.4969
vt 0.967 0.4004
vt 0.0177 0.3859
vt 0.1509 0.2277
vt 0.3173 0.3375
vt 0.3735 0.5262
vt 0.1523 0.1458
vt 0.2439 0.2912
vt 0.4979 0.3806
vt 0.3677 0.3094
vt 0.4158 0.3242
vt 0.682 0.0374
vt 0.5533 0.0447
vt 0.5898 0.0785
vt 0.5487 0.1824
vt 0.5523 0.2383
vt 0.5468 0.2202
vt 0.4354 0.2165
vt 0.702 0.6613
vt 0.9216 0.7435
vt 0.844 0.5767
vt 0.6495 0.7146
vt 0.0992 0.7737
vt 0.3296 0.8346
vt 0.3281 0.7008
vt 0.1224 0.8097
vt 0.5022 0.8921
vt 0.4637 0.8089
vt 0.6252 0.8568
vt 0.6581 0.7216
vt 0.8091 0.8853
vt 0.9312 0.7424
vt 0.1882 0.8751
vt 0.1418 0.8454
vt 0.1357 0.8597
vt 0.2414 0.8569
vt 0.8437 0.5855
vt 0.7312 0.4746
vt 0.7061 0.6461
vt 0.8696 0.4826
vt 0.0177 0.3859
vt 0.3173 0.3375
vt 0.1509 0.2277
vt 0.3735 0.5262
vt 0.2439 0.2912
vt 0.4979 0.3806
vt 0.3677 0.3094
vt 0.4158 0.3242
vt 0.682 0.0374
vt 0.5533 0.0447
vt 0.5898 0.0785
vt 0.5487 0.1824
vt 0.5523 0.2383
vt 0.5468 0.2202
vt 0.4354 0.2165
vt 0.2146 0.1166
vt 0.2904 0.1306
vt 0.2904 0.0039
vt 0.2146 0.0179
vt 0.3992 0.1304
vt 0.3992 0.0041
vt 0.4286 0.025
vt 0.4286 0.1095
vt 0.0358 0.0673
vt 0.0866 0.1225
vt 0.0866 0.012
vt 0.0996 0.6369
vt 0.4596 0.6296
vt 0.3289 0.6645
vt 0.089 0.732
vt 0.6417 0.7018
vt 0.4621 0.764
vt 0.0431 0.6068
vt 0.4596 0.585
vt 0.6102 0.5548
vt -0.0015 0.725
vt 0.0996 0.6369
vt 0.3289 0.6645
vt 0.4596 0.6296
vt 0.089 0.732
vt 0.6417 0.7018
vt 0.4621 0.764
vt 0.2125 0.1166
vt 0.0845 0.1225
vt 0.0337 0.0673
vt 0.0845 0.012
vt 0.2125 0.0179
vt 0.3948 0.1304
vt 0.2884 0.1306
vt 0.3948 0.0041
vt 0.2884 0.0039
f 1/1/1 3/3/3 2/2/2
f 3/3/3 1/1/1 4/4/4
f 5/5/5 7/7/7 6/6/6
f 7/7/7 5/5/5 8/8/8
f 6/6/6 10/10/10 9/9/9
f 10/10/10 6/6/6 7/7/7
f 9/9/9 12/12/12 11/11/11
f 12/12/12 9/9/9 10/10/10
f 11/11/11 14/14/14 13/13/13
f 14/14/14 11/11/11 12/12/12
f 15/15/15 3/3/3 16/16/16
f 3/3/3 15/15/15 2/2/2
f 17/17/17 14/14/14 18/18/18
f 14/14/14 17/17/17 13/13/13
f 18/18/18 12/12/12 19/19/19
f 12/12/12 18/18/18 14/14/14
f 19/19/19 10/10/10 20/20/20
f 10/10/10 19/19/19 12/12/12
f 20/20/20 7/7/7 21/21/21
f 7/7/7 20/20/20 10/10/10
f 22/22/22 24/24/24 23/23/23
f 24/24/24 22/22/22 25/25/25
f 26/26/26 5/5/5 27/27/27
f 5/5/5 26/26/26 8/8/8
f 8/8/8 25/25/25 7/7/7
f 25/25/25 8/8/8 24/24/24
f 21/21/21 23/23/23 26/26/26
f 23/23/23 21/21/21 22/22/22
f 7/7/7 22/22/22 21/21/21
f 22/22/22 7/7/7 25/25/25
f 26/26/26 24/24/24 8/8/8
f 24/24/24 26/26/26 23/23/23
f 28/28/28 30/30/30 29/29/29
f 30/30/30 28/28/28 31/31/31
f 29/29/29 33/33/33 32/32/32
f 33/33/33 29/29/29 30/30/30
f 34/34/34 31/31/31 28/28/28
f 31/31/31 34/34/34 35/35/35
f 35/35/35 36/36/36 31/31/31
f 37/37/37 39/39/39 38/38/38
f 39/39/39 37/37/37 40/40/40
f 38/38/38 42/42/42 41/41/41
f 42/42/42 38/38/38 39/39/39
f 42/42/42 43/43/43 40/40/40
f 43/43/43 42/42/42 44/44/44
f 40/40/40 45/45/45 39/39/39
f 45/45/45 40/40/40 43/43/43
f 39/39/39 44/44/44 42/42/42
f 44/44/44 39/39/39 45/45/45
f 44/44/44 46/46/46 43/43/43
f 46/46/46 44/44/44 47/47/47
f 43/43/43 48/48/48 45/45/45
f 48/48/48 43/43/43 46/46/46
f 45/45/45 47/47/47 44/44/44
f 47/47/47 45/45/45 48/48/48
f 47/47/47 49/49/49 46/46/46
f 49/49/49 47/47/47 50/50/50
f 46/46/46 51/51/51 48/48/48
f 51/51/51 46/46/46 49/49/49
f 48/48/48 50/50/50 47/47/47
f 50/50/50 48/48/48 51/51/51
f 50/50/50 52/52/52 49/49/49
f 49/49/49 52/52/52 51/51/51
f 51/51/51 52/52/52 50/50/50
f 37/37/37 42/42/42 40/40/40
f 42/42/42 37/37/37 41/41/41
f 53/53/53 55/55/55 54/54/54
f 54/54/54 56/56/56 53/53/53
f 57/57/57 59/59/59 58/58/58
f 58/58/58 60/60/60 57/57/57
f 59/59/59 62/62/62 61/61/61
f 61/61/61 58/58/58 59/59/59
f 62/62/62 64/64/64 63/63/63
f 63/63/63 61/61/61 62/62/62
f 64/64/64 66/66/66 65/65/65
f 65/65/65 63/63/63 64/64/64
f 15/15/15 16/16/16 54/54/54
f 54/54/54 55/55/55 15/15/15
f 17/17/17 18/18/18 65/65/65
f 65/65/65 66/66/66 17/17/17
f 18/18/18 19/19/19 63/63/63
f 63/63/63 65/65/65 18/18/18
f 19/19/19 20/20/20 61/61/61
f 61/61/61 63/63/63 19/19/19
f 20/20/20 21/21/21 58/58/58
f 58/58/58 61/61/61 20/20/20
f 67/67/67 69/69/69 68/68/68
f 68/68/68 70/70/70 67/67/67
f 26/26/26 27/27/27 57/57/57
f 57/57/57 60/60/60 26/26/26
f 60/60/60 58/58/58 70/70/70
f 70/70/70 68/68/68 60/60/60
f 21/21/21 26/26/26 69/69/69
f 69/69/69 67/67/67 21/21/21
f 58/58/58 21/21/21 67/67/67
f 67/67/67 70/70/70 58/58/58
f 26/26/26 60/60/60 68/68/68
f 68/68/68 69/69/69 26/26/26
f 71/71/71 73/73/73 72/72/72
f 72/72/72 74/74/74 71/71/71
f 73/73/73 32/32/32 33/33/33
f 33/33/33 72/72/72 73/73/73
f 34/34/34 71/71/71 74/74/74
f 74/74/74 35/35/35 34/34/34
f 35/35/35 74/74/74 36/36/36
f 75/75/75 77/77/77 76/76/76
f 76/76/76 78/78/78 75/75/75
f 77/77/77 41/41/41 79/79/79
f 79/79/79 76/76/76 77/77/77
f 79/79/79 78/78/78 80/80/80
f 80/80/80 81/81/81 79/79/79
f 78/78/78 76/76/76 82/82/82
f 82/82/82 80/80/80 78/78/78
f 76/76/76 79/79/79 81/81/81
f 81/81/81 82/82/82 76/76/76
f 81/81/81 80/80/80 83/83/83
f 83/83/83 84/84/84 81/81/81
f 80/80/80 82/82/82 85/85/85
f 85/85/85 83/83/83 80/80/80
f 82/82/82 81/81/81 84/84/84
f 84/84/84 85/85/85 82/82/82
f 84/84/84 83/83/83 86/86/86
f 86/86/86 87/87/87 84/84/84
f 83/83/83 85/85/85 88/88/88
f 88/88/88 86/86/86 83/83/83
f 85/85/85 84/84/84 87/87/87
f 87/87/87 88/88/88 85/85/85
f 87/87/87 86/86/86 89/89/89
f 86/86/86 88/88/88 89/89/89
f 88/88/88 87/87/87 89/89/89
f 75/75/75 78/78/78 79/79/79
f 79/79/79 41/41/41 75/75/75
f 90/90/90 92/92/92 91/91/91
f 92/92/92 90/90/90 93/93/93
f 91/91/91 92/92/92 94/94/94
f 92/92/92 95/95/95 94/94/94
f 95/95/95 96/96/96 94/94/94
f 96/96/96 97/97/97 94/94/94
f 98/98/98 100/100/100 99/99/99
f 100/100/100 90/90/90 99/99/99
f 90/90/90 100/100/100 93/93/93
f 101/101/101 103/103/103 102/102/102
f 103/103/103 101/101/101 104/104/104
f 102/102/102 105/105/105 1/1/1
f 105/105/105 102/102/102 106/106/106
f 107/107/107 102/102/102 108/108/108
f 102/102/102 107/107/107 101/101/101
f 108/108/108 1/1/1 109/109/109
f 1/1/1 108/108/108 102/102/102
f 110/110/110 101/101/101 107/107/107
f 101/101/101 110/110/110 104/104/104
f 111/111/111 113/113/113 112/112/112
f 112/112/112 114/114/114 111/111/111
f 113/113/113 53/53/53 115/115/115
f 115/115/115 116/116/116 113/113/113
f 107/107/107 108/108/108 113/113/113
f 113/113/113 111/111/111 107/107/107
f 108/108/108 109/109/109 53/53/53
f 53/53/53 113/113/113 108/108/108
f 110/110/110 107/107/107 111/111/111
f 111/111/111 114/114/114 110/110/110
f 106/106/106 102/102/102 103/103/103
f 112/112/112 113/113/113 116/116/116
f 117/117/117 119/119/119 118/118/118
f 119/119/119 121/121/121 120/120/120
f 121/121/121 119/119/119 117/117/117
f 97/97/97 123/123/123 122/122/122
f 123/123/123 97/97/97 117/117/117
f 124/124/124 125/125/125 96/96/96
f 125/125/125 121/121/121 96/96/96
f 96/96/96 121/121/121 117/117/117
f 96/96/96 117/117/117 97/97/97

g hound_head02
# texture: hound_head02.jpg
v 11.47494 162.2312 53.82581
v 7.717046 170.7676 44.1701
v 32.65438 184.1534 45.91879
v 21.97113 162.1984 64.49596
v 11.97482 153.9754 77.66876
v 15.01633 162.8951 76.38711
v 10.68285 170.653 77.93092
v 8.847803 147.2874 85.74255
v 21.97113 162.1984 64.49596
v 13.91915 173.2305 72.59508
v 32.65438 184.1534 45.91879
v 15.14168 189.2679 53.31161
v -1.084086 174.5301 39.74708
v 1.264291 194.3548 42.15543
v 1.264334 215.5202 20.43314
v 1.264373 235.4924 1.335442
v 9.475833 215.4539 29.4016
v 1.264291 194.3548 42.15543
v 1.264283 192.5394 70.60435
v 1.264264 181.9197 73.10388
v 1.264249 173.4336 79.95094
v 1.26423 163.901 86.3409
v 7.717046 170.7676 44.1701
v 11.47494 162.2312 53.82581
v 13.42282 157.4718 37.01987
v 11.81445 169.5092 31.20427
v 3.338027 149.4364 48.60574
v 2.53124 146.892 38.18782
v -1.084086 174.5301 39.74708
v -2.151353 171.5082 26.39065
v -3.430627 164.5148 6.215093
v 11.81445 169.5092 31.20427
v 28.54181 143.3559 15.69178
v 44.52123 191.1891 21.30689
v 30.06946 201.0782 31.19467
v -3.430627 164.5148 6.215093
v 7.880582 179.8873 9.134875
v 19.40979 209.2091 -2.392095
v 17.08768 186.9699 1.224959
v 40.10688 197.0844 -3.973256
v 43.91879 175.175 -28.98363
v 41.18518 157.0104 -24.0414
v 53.99592 169.3271 -28.15738
v 46.0536 170.8773 -52.35628
v 49.31529 158.0579 -55.77645
v 58.19581 166.5197 -56.10022
v 22.07446 194.2693 -76.72494
v -6.586839 159.7555 55.82919
v -30.12584 184.1536 45.91878
v -7.402522 168.6952 45.84715
v -19.44267 162.1985 64.49596
v -9.446387 153.9754 77.66876
v -8.154355 170.6531 77.93092
v -12.48787 162.8952 76.3871
v -6.319401 147.2875 85.74255
v -11.39065 173.2306 72.59508
v -19.44267 162.1985 64.49596
v -12.61312 189.268 53.31161
v -30.12584 184.1536 45.91878
v -6.947169 215.4539 29.4016
v -7.402522 168.6952 45.84715
v -10.76762 154.1561 39.70304
v -6.586839 159.7555 55.82919
v -13.70784 166.0109 34.03516
v -13.70784 166.0109 34.03516
v -52.33566 177.9131 32.05007
v -20.08728 161.6382 11.78585
v -39.25731 191.5757 38.88425
v -17.51861 176.4059 11.95211
v -38.62831 201.2539 4.045382
v -29.75532 180.5493 6.420703
v -55.19382 184.0217 6.597308
v -58.33171 161.1598 -17.64221
v -49.87021 144.5296 -13.94172
v -66.06857 152.8701 -14.84006
v -64.22358 155.7618 -40.12455
v -64.61623 142.4416 -43.13939
v -75.28059 148.2244 -41.29528
v -53.15268 183.958 -68.38083
v -9.446387 153.9754 77.66876
v -12.48787 162.8952 76.3871
v 15.01633 162.8951 76.38711
v 11.97482 153.9754 77.66876
v -19.44267 162.1985 64.49596
v 21.97113 162.1984 64.49596
v 11.47494 162.2312 53.82581
v -6.586839 159.7555 55.82919
v 7.307794 144.0659 83.28358
v 8.847788 140.6904 75.1646
v 11.97481 151.3792 76.32441
v 10.68279 141.6935 59.8889
v 21.97113 160.9696 64.61512
v 15.01633 160.3392 75.36378
v 1.264186 140.6197 92.17873
v 1.264179 136.3805 74.65974
v 1.264186 139.515 58.18331
v 3.338027 149.4364 48.60574
v -4.779407 144.0659 83.28358
v -9.446391 151.3793 76.32441
v -6.319412 140.6904 75.1646
v -8.15441 141.6936 59.8889
v -19.44267 160.9696 64.61512
v -12.48787 160.3393 75.36378
v -19.44267 160.9696 64.61512
v -12.48787 160.3393 75.36378
v -9.446391 151.3793 76.32441
v 21.97113 160.9696 64.61512
v 15.01633 160.3392 75.36378
v 11.97481 151.3792 76.32441
v -6.319401 147.2875 85.74255
v 8.847803 147.2874 85.74255
v -4.779407 144.0659 83.28358
v 7.307794 144.0659 83.28358
v 1.264186 140.6197 92.17873
v 9.475818 208.8989 50.70682
v 1.264331 216.746 47.3487
v 1.264311 204.4016 36.01307
v -6.947183 208.8989 50.70682
vn 0.794193 -0.010073 -0.607583
vn 0.896885 0.271108 -0.349424
vn 0.792912 -0.184821 -0.58063
vn 0.787973 -0.521147 0.327879
vn 0.820493 -0.540602 -0.185853
vn 0.749805 -0.659343 0.055317
vn 0.558515 0.342993 0.75526
vn 0.74189 -0.331588 0.582794
vn 0.787973 -0.521147 0.327879
vn 0.676189 0.410011 0.612095
vn 0.792912 -0.184821 -0.58063
vn 0.872028 0.451899 0.188027
vn -0.173637 0.759148 -0.627332
vn -0.255288 0.356944 -0.898565
vn 0.152897 -0.805515 -0.57251
vn -0.577516 0.750451 -0.3214
vn 0.987888 -0.018743 -0.154031
vn -0.255288 0.356944 -0.898565
vn 0.071202 0.533089 0.843058
vn 0.000001 0.539564 0.841945
vn 0.000001 0.491264 0.871011
vn 0 0.305456 0.952206
vn 0.896885 0.271108 -0.349424
vn 0.794193 -0.010073 -0.607583
vn 0.978467 -0.009499 0.206186
vn 0.342548 0.77755 0.527329
vn -0.076897 -0.225 -0.97132
vn 0.163451 -0.932976 0.320687
vn -0.173637 0.759148 -0.627332
vn -0.151095 0.976141 -0.155948
vn -0.172426 0.834627 -0.523132
vn 0.342548 0.77755 0.527329
vn 0.374571 -0.586757 -0.717923
vn 0.808895 -0.576259 -0.116685
vn -0.044228 0.792221 0.608629
vn -0.172426 0.834627 -0.523132
vn -0.742464 0.305703 -0.596065
vn -0.239429 0.759109 -0.605333
vn -0.333405 -0.737339 -0.587514
vn 0.930441 0.236373 0.280013
vn -0.350844 0.727169 -0.590029
vn -0.517106 -0.777662 0.357552
vn 0.986218 0.164856 -0.014008
vn -0.820658 0.553462 0.142126
vn -0.044052 -0.987199 -0.153288
vn 0.789674 0.58493 -0.185126
vn -0.579872 0.78768 -0.208107
vn -0.854509 -0.12853 -0.503283
vn -0.792913 -0.184817 -0.580631
vn -0.990055 0.01247 -0.140128
vn -0.54569 -0.802743 0.24047
vn -0.439196 -0.605597 -0.663596
vn -0.558514 0.342995 0.755259
vn -0.847671 -0.247312 0.469352
vn -0.669616 -0.039105 0.741677
vn -0.676187 0.410014 0.612095
vn -0.54569 -0.802743 0.24047
vn -0.671898 0.572972 0.469315
vn -0.792913 -0.184817 -0.580631
vn -0.842536 -0.415488 -0.342787
vn -0.990055 0.01247 -0.140128
vn -0.872574 -0.263215 0.411501
vn -0.854509 -0.12853 -0.503283
vn -0.415164 0.673693 0.611373
vn -0.415164 0.673693 0.611373
vn -0.632008 -0.77376 0.043137
vn -0.56201 -0.234645 -0.79315
vn -0.038123 0.793058 0.607952
vn 0.48817 0.474383 -0.732564
vn -0.107069 0.777251 -0.620014
vn 0.382933 -0.639152 -0.666969
vn -0.876931 -0.011359 0.480483
vn 0.00941 0.776548 -0.629987
vn 0.769604 -0.601295 0.214833
vn -0.973588 -0.10377 0.20337
vn 0.654597 0.755672 -0.021507
vn 0.270883 -0.944032 -0.18822
vn -0.937397 0.348204 0.006437
vn 0.290708 0.907009 -0.30467
vn -0.439196 -0.605597 -0.663596
vn -0.847671 -0.247312 0.469352
vn 0.749805 -0.659343 0.055317
vn 0.820493 -0.540602 -0.185853
vn -0.54569 -0.802743 0.24047
vn 0.787973 -0.521147 0.327879
vn 0.794193 -0.010073 -0.607583
vn -0.854509 -0.12853 -0.503283
vn 0.662929 0.325309 0.674314
vn 0.774871 -0.598277 0.204058
vn 0.508726 0.444336 0.737403
vn 0.766785 -0.58123 -0.272419
vn 0.908225 0.318071 -0.271954
vn 0.620593 0.36408 0.694486
vn -0.000002 -0.763529 0.645774
vn -0.000002 -0.999943 0.01064
vn -0.000001 -0.39697 -0.917832
vn -0.076897 -0.225 -0.97132
vn -0.507732 0.454299 0.731998
vn -0.517811 0.495385 0.697471
vn -0.774873 -0.598274 0.204058
vn -0.766787 -0.581227 -0.272419
vn -0.908223 0.318074 -0.271954
vn -0.620592 0.364083 0.694485
vn -0.908223 0.318074 -0.271954
vn -0.620592 0.364083 0.694485
vn -0.517811 0.495385 0.697471
vn 0.908225 0.318071 -0.271954
vn 0.620593 0.36408 0.694486
vn 0.508726 0.444336 0.737403
vn -0.669616 -0.039105 0.741677
vn 0.74189 -0.331588 0.582794
vn -0.507732 0.454299 0.731998
vn 0.662929 0.325309 0.674314
vn -0.000002 -0.763529 0.645774
vn 0.986732 0.133833 0.091922
vn 0.158609 0.741221 0.652253
vn -0.006101 -0.654294 -0.756216
vn -0.987742 0.155696 0.011138
vt 0.2823 0.6425
vt 0.3816 0.6256
vt 0.3494 0.7744
vt 0.316 0.6197
vt 0.125 0.6952
vt 0.1891 0.7584
vt 0.2127 0.7952
vt 0.04 0.7051
vt 0.2657 0.6958
vt 0.2572 0.8156
vt 0.4901 0.7436
vt 0.3528 0.8159
vt 0.4684 0.5736
vt 0.5423 0.7841
vt 0.8148 0.853
vt 0.9857 0.8903
vt 0.7542 0.9078
vt 0.5652 0.8072
vt 0.3867 0.9796
vt 0.2963 0.8927
vt 0.2087 0.8628
vt 0.1073 0.8405
vt 0.3899 0.6145
vt 0.2902 0.6684
vt 0.3187 0.4727
vt 0.4337 0.4926
vt 0.234 0.534
vt 0.2429 0.4283
vt 0.4539 0.5899
vt 0.4924 0.4563
vt 0.5166 0.4155
vt 0.5139 0.651
vt 0.5954 0.5344
vt 0.6155 0.7183
vt 0.6451 0.8223
vt 0.5963 0.4657
vt 0.6523 0.5715
vt 0.8459 0.6556
vt 0.7135 0.5565
vt 0.7624 0.5771
vt 0.7489 0.2827
vt 0.6332 0.2154
vt 0.7016 0.2557
vt 0.8248 0.0977
vt 0.7669 0.0027
vt 0.8029 0.0476
vt 0.9376 0.0604
vt 0.2823 0.6425
vt 0.3494 0.7744
vt 0.3816 0.6256
vt 0.316 0.6197
vt 0.125 0.6952
vt 0.2127 0.7952
vt 0.1891 0.7584
vt 0.04 0.7051
vt 0.2572 0.8156
vt 0.2657 0.6958
vt 0.3528 0.8159
vt 0.4901 0.7436
vt 0.7542 0.9078
vt 0.3899 0.6145
vt 0.3187 0.4727
vt 0.2902 0.6684
vt 0.4337 0.4926
vt 0.5139 0.651
vt 0.6155 0.7183
vt 0.5954 0.5344
vt 0.6451 0.8223
vt 0.6523 0.5715
vt 0.8459 0.6556
vt 0.7135 0.5565
vt 0.7624 0.5771
vt 0.7489 0.2827
vt 0.6332 0.2154
vt 0.7016 0.2557
vt 0.8248 0.0977
vt 0.7669 0.0027
vt 0.8029 0.0476
vt 0.9376 0.0604
vt 0.277 0.2858
vt 0.3622 0.2884
vt 0.3622 0.0063
vt 0.277 0.0089
vt 0.4871 0.2889
vt 0.4871 0.0058
vt 0.5485 0.0846
vt 0.5485 0.21
vt 0.0736 0.6321
vt 0.1016 0.5616
vt 0.1384 0.6456
vt 0.1778 0.5427
vt 0.2209 0.651
vt 0.1792 0.6712
vt 0.0143 0.6575
vt 0.0632 0.5541
vt 0.1837 0.4569
vt 0.2348 0.5435
vt 0.0736 0.6321
vt 0.1384 0.6456
vt 0.1016 0.5616
vt 0.1778 0.5427
vt 0.2209 0.651
vt 0.1792 0.6712
vt 0.478 0.2889
vt 0.3579 0.2884
vt 0.2728 0.2858
vt 0.478 0.0058
vt 0.3579 0.0063
vt 0.2728 0.0089
vt 0.1351 0.2842
vt 0.1351 0.0105
vt 0.1373 0.2564
vt 0.1373 0.0383
vt 0.0135 0.1473
vt 0.5926 0.8895
vt 0.6398 0.9959
vt 0.6557 0.8547
vt 0.5926 0.8895
f 126/126/126 128/128/128 127/127/127
f 128/128/128 126/126/126 129/129/129
f 130/130/130 132/132/132 131/131/131
f 132/132/132 130/130/130 133/133/133
f 131/131/131 135/135/135 134/134/134
f 135/135/135 131/131/131 132/132/132
f 134/134/134 137/137/137 136/136/136
f 137/137/137 134/134/134 135/135/135
f 138/138/138 128/128/128 139/139/139
f 128/128/128 138/138/138 127/127/127
f 140/140/140 142/142/142 141/141/141
f 137/137/137 143/143/143 136/136/136
f 144/144/144 135/135/135 145/145/145
f 135/135/135 144/144/144 137/137/137
f 145/145/145 132/132/132 146/146/146
f 132/132/132 145/145/145 135/135/135
f 146/146/146 133/133/133 147/147/147
f 133/133/133 146/146/146 132/132/132
f 148/148/148 150/150/150 149/149/149
f 150/150/150 148/148/148 151/151/151
f 149/149/149 153/153/153 152/152/152
f 153/153/153 149/149/149 150/150/150
f 154/154/154 151/151/151 148/148/148
f 151/151/151 154/154/154 155/155/155
f 155/155/155 156/156/156 151/151/151
f 157/157/157 159/159/159 158/158/158
f 159/159/159 157/157/157 160/160/160
f 158/158/158 162/162/162 161/161/161
f 162/162/162 158/158/158 159/159/159
f 162/162/162 163/163/163 160/160/160
f 163/163/163 162/162/162 164/164/164
f 160/160/160 165/165/165 159/159/159
f 165/165/165 160/160/160 163/163/163
f 159/159/159 164/164/164 162/162/162
f 164/164/164 159/159/159 165/165/165
f 164/164/164 166/166/166 163/163/163
f 166/166/166 164/164/164 167/167/167
f 163/163/163 168/168/168 165/165/165
f 168/168/168 163/163/163 166/166/166
f 165/165/165 167/167/167 164/164/164
f 167/167/167 165/165/165 168/168/168
f 167/167/167 169/169/169 166/166/166
f 169/169/169 167/167/167 170/170/170
f 166/166/166 171/171/171 168/168/168
f 171/171/171 166/166/166 169/169/169
f 168/168/168 170/170/170 167/167/167
f 170/170/170 168/168/168 171/171/171
f 170/170/170 172/172/172 169/169/169
f 169/169/169 172/172/172 171/171/171
f 171/171/171 172/172/172 170/170/170
f 157/157/157 162/162/162 160/160/160
f 162/162/162 157/157/157 161/161/161
f 173/173/173 175/175/175 174/174/174
f 174/174/174 176/176/176 173/173/173
f 177/177/177 179/179/179 178/178/178
f 178/178/178 180/180/180 177/177/177
f 179/179/179 182/182/182 181/181/181
f 181/181/181 178/178/178 179/179/179
f 182/182/182 184/184/184 183/183/183
f 183/183/183 181/181/181 182/182/182
f 138/138/138 139/139/139 174/174/174
f 174/174/174 175/175/175 138/138/138
f 140/140/140 141/141/141 185/185/185
f 183/183/183 184/184/184 143/143/143
f 144/144/144 145/145/145 181/181/181
f 181/181/181 183/183/183 144/144/144
f 145/145/145 146/146/146 178/178/178
f 178/178/178 181/181/181 145/145/145
f 146/146/146 147/147/147 180/180/180
f 180/180/180 178/178/178 146/146/146
f 186/186/186 188/188/188 187/187/187
f 187/187/187 189/189/189 186/186/186
f 188/188/188 152/152/152 153/153/153
f 153/153/153 187/187/187 188/188/188
f 154/154/154 186/186/186 189/189/189
f 189/189/189 155/155/155 154/154/154
f 155/155/155 189/189/189 156/156/156
f 190/190/190 192/192/192 191/191/191
f 191/191/191 193/193/193 190/190/190
f 192/192/192 161/161/161 194/194/194
f 194/194/194 191/191/191 192/192/192
f 194/194/194 193/193/193 195/195/195
f 195/195/195 196/196/196 194/194/194
f 193/193/193 191/191/191 197/197/197
f 197/197/197 195/195/195 193/193/193
f 191/191/191 194/194/194 196/196/196
f 196/196/196 197/197/197 191/191/191
f 196/196/196 195/195/195 198/198/198
f 198/198/198 199/199/199 196/196/196
f 195/195/195 197/197/197 200/200/200
f 200/200/200 198/198/198 195/195/195
f 197/197/197 196/196/196 199/199/199
f 199/199/199 200/200/200 197/197/197
f 199/199/199 198/198/198 201/201/201
f 201/201/201 202/202/202 199/199/199
f 198/198/198 200/200/200 203/203/203
f 203/203/203 201/201/201 198/198/198
f 200/200/200 199/199/199 202/202/202
f 202/202/202 203/203/203 200/200/200
f 202/202/202 201/201/201 204/204/204
f 201/201/201 203/203/203 204/204/204
f 203/203/203 202/202/202 204/204/204
f 190/190/190 193/193/193 194/194/194
f 194/194/194 161/161/161 190/190/190
f 205/205/205 207/207/207 206/206/206
f 207/207/207 205/205/205 208/208/208
f 206/206/206 207/207/207 209/209/209
f 207/207/207 210/210/210 209/209/209
f 210/210/210 211/211/211 209/209/209
f 211/211/211 212/212/212 209/209/209
f 213/213/213 215/215/215 214/214/214
f 216/216/216 217/217/217 126/126/126
f 217/217/217 216/216/216 218/218/218
f 219/219/219 214/214/214 220/220/220
f 214/214/214 219/219/219 213/213/213
f 220/220/220 216/216/216 221/221/221
f 216/216/216 220/220/220 214/214/214
f 221/221/221 126/126/126 222/222/222
f 126/126/126 221/221/221 216/216/216
f 223/223/223 225/225/225 224/224/224
f 226/226/226 173/173/173 227/227/227
f 227/227/227 228/228/228 226/226/226
f 219/219/219 220/220/220 225/225/225
f 225/225/225 223/223/223 219/219/219
f 220/220/220 221/221/221 226/226/226
f 226/226/226 225/225/225 220/220/220
f 221/221/221 222/222/222 173/173/173
f 173/173/173 226/226/226 221/221/221
f 218/218/218 216/216/216 215/215/215
f 216/216/216 214/214/214 215/215/215
f 224/224/224 225/225/225 226/226/226
f 224/224/224 226/226/226 228/228/228
f 212/212/212 230/230/230 229/229/229
f 230/230/230 212/212/212 231/231/231
f 232/232/232 233/233/233 211/211/211
f 233/233/233 234/234/234 211/211/211
f 211/211/211 234/234/234 231/231/231
f 211/211/211 231/231/231 212/212/212
f 133/133/133 180/180/180 147/147/147
f 235/235/235 236/236/236 205/205/205
f 236/236/236 208/208/208 205/205/205
f 234/234/234 237/237/237 231/231/231
f 237/237/237 234/234/234 238/238/238
f 238/238/238 239/239/239 237/237/237
f 144/144/144 240/240/240 137/137/137
f 240/240/240 144/144/144 241/241/241
f 137/137/137 242/242/242 143/143/143
f 242/242/242 137/137/137 240/240/240
f 143/143/143 243/243/243 183/183/183
f 243/243/243 143/143/143 242/242/242
f 183/183/183 241/241/241 144/144/144
f 241/241/241 183/183/183 243/243/243
f 241/241/241 142/142/142 240/240/240
f 142/142/142 241/241/241 141/141/141
f 240/240/240 140/140/140 242/242/242
f 140/140/140 240/240/240 142/142/142
f 242/242/242 185/185/185 243/243/243
f 185/185/185 242/242/242 140/140/140
f 243/243/243 141/141/141 241/241/241
f 141/141/141 243/243/243 185/185/185

g hound_lower
# texture: hound_lower.jpg
v 11.63714 146.1153 36.27553
v 3.33134 142.123 39.50785
v 4.157693 131.0702 33.29934
v 22.99915 0.777987 11.92089
v 28.15111 0.778358 -6.145501
v 40.83231 0.779013 7.848639
v 11.81445 169.5092 31.20427
v 13.42282 157.4718 37.01987
v 19.83503 157.5071 25.4782
v 22.2442 172.8181 9.475922
v 21.06069 136.0369 29.2789
v 19.83503 157.5071 25.4782
v -0.000003 110.8095 15.16751
v -1.9604 98.59686 2.290528
v 22.84949 100.2653 17.75361
v 13.42282 157.4718 37.01987
v 2.53124 146.892 38.18782
v 25.08772 140.8657 22.53161
v 25.40224 139.2302 -2.453979
v 17.67417 135.3529 -3.235192
v 5.780591 115.4853 28.67166
v 16.21305 126.9365 19.39982
v -3.430627 164.5148 6.215093
v 25.40224 139.2302 -2.453979
v 17.67417 135.3529 -3.235192
v -3.429759 156.079 -4.201802
v 0.000002 132.4093 -15.53761
v -0.000005 123.9865 18.08261
v 13.4337 123.1266 6.526313
v 22.7308 120.9913 -1.948311
v 0.000005 116.3742 -15.5371
v 0.352598 116.7147 12.6626
v 15.79728 119.6403 9.717005
v 22.7308 120.9913 -1.948311
v 29.88144 106.2302 0.41076
v 4.529475 98.37277 -13.22563
v 29.88144 106.2302 0.41076
v 31.00506 164.6263 26.97144
v 23.57087 168.4944 0.834099
v 31.00506 164.6263 26.97144
v 41.95243 152.2489 5.201519
v 35.6012 158.7066 1.953547
v 34.66293 138.5914 9.412105
v 41.95243 152.2489 5.201519
v 43.67035 138.8812 -12.37228
v 39.70078 142.9173 -14.40221
v 39.73808 132.6076 -7.639954
v 43.67035 138.8812 -12.37228
v 32.85201 136.3562 -11.82064
v 32.85201 136.3562 -11.82064
v 43.67035 138.8812 -12.37228
v 42.50774 134.4984 -18.32696
v 39.70078 142.9173 -14.40221
v 32.85201 136.3562 -11.82064
v 50.623 127.1132 -9.198545
v 46.0678 124.4099 -17.17345
v 39.73808 132.6076 -7.639954
v 40.87269 128.4082 -1.663979
v 35.75156 122.7504 -11.5997
v 49.65258 111.2342 1.479362
v 48.50092 108.7077 -2.075182
v 44.34423 113.7413 4.474424
v 41.66422 108.9709 0.670549
v 50.41031 107.4708 4.18985
v 54.79994 101.1138 8.052547
v 49.00349 97.81075 1.047298
v 45.70031 107.6164 11.75139
v 41.27714 100.6657 5.16805
v 48.8705 75.55173 27.53132
v 41.99464 85.84903 20.19951
v 39.28668 75.39754 8.031251
v 21.91202 66.0993 4.988969
v 16.16117 69.49603 14.13509
v 27.1468 77.52983 22.37907
v 39.28668 75.39754 8.031251
v 17.53012 63.7243 15.71733
v 16.16117 69.49603 14.13509
v 32.86008 65.83612 10.17324
v 29.96283 66.28286 26.22215
v 32.86008 65.83612 10.17324
v 17.53012 63.7243 15.71733
v 24.78226 47.32103 -5.08264
v 19.39526 46.03352 16.54279
v 37.48478 48.49161 9.684551
v 32.37383 48.30233 29.46441
v 37.48478 48.49161 9.684551
v 19.39526 46.03352 16.54279
v 30.59209 16.98889 5.335875
v 27.44408 13.00924 11.6431
v 39.11583 12.67552 8.601912
v 35.15912 23.77308 19.76572
v 39.11583 12.67552 8.601912
v 27.44408 13.00924 11.6431
v 28.15111 0.778358 -6.145501
v 22.99915 0.777987 11.92089
v 40.83231 0.779013 7.848639
v 45.35595 0.779204 22.51721
v 38.74504 0.778805 28.38925
v 27.52279 0.778177 26.58947
v 39.11583 12.67552 8.601912
v 35.15912 23.77308 19.76572
v 39.2829 14.55733 31.32021
v 42.95098 12.08287 23.3857
v 27.44408 13.00924 11.6431
v 31.27922 12.4166 26.42689
v 22.99915 0.777987 11.92089
v 27.52279 0.778177 26.58947
v 40.83231 0.779013 7.848639
v 45.35595 0.779204 22.51721
v 47.05873 11.5015 45.93864
v 38.74504 0.778805 28.38925
v 43.78802 0.779009 46.74234
v 55.69219 0.779698 43.00645
v 43.78802 0.779009 46.74234
v 55.69219 0.779698 43.00645
v 37.6766 12.46177 47.55874
v 29.18021 0.778177 48.339
v 41.06947 0.778853 47.06789
v 29.18021 0.778177 48.339
v 41.06947 0.778853 47.06789
v 58.84153 0.779874 66.78733
v 58.84153 0.779874 66.78733
v 37.21105 0.778626 72.41647
v 37.21105 0.778626 72.41647
v -1.9604 98.59686 2.290528
v -6.230438 143.6663 38.25737
v -3.254121 1.144514 -24.55208
v -21.21854 1.145337 -27.99953
v -9.033418 1.144828 -42.42769
v -13.70784 166.0109 34.03516
v -19.2857 152.1449 29.81741
v -10.76762 154.1561 39.70304
v -29.06314 165.7855 15.16683
v -13.91144 131.2434 33.15794
v -19.2857 152.1449 29.81741
v -19.9937 94.22876 8.829722
v -10.76762 154.1561 39.70304
v -20.43101 134.6265 27.58046
v -32.09605 129.9143 6.075161
v -17.54258 130.5258 0.670981
v -9.062062 123.4721 22.20329
v -17.54258 130.5258 0.670981
v -32.09605 129.9143 6.075161
v -8.207076 120.1603 8.926664
v -22.19043 119.8797 -3.618063
v -16.0374 115.9823 7.911389
v -22.19043 119.8797 -3.618063
v -26.65956 104.2253 -6.708561
v 0.671063 105.0085 -18.65999
v -26.65956 104.2253 -6.708561
v -28.63567 158.9558 32.28257
v -24.79965 158.4869 5.108057
v -28.63567 158.9558 32.28257
v -44.78386 146.5779 14.03438
v -38.00449 151.328 9.128674
v -39.37301 132.3293 19.04382
v -44.78386 146.5779 14.03438
v -51.46993 131.9463 -1.18721
v -47.23276 134.9151 -4.253235
v -47.98192 125.5949 3.783733
v -51.46993 131.9463 -1.18721
v -41.29025 127.4986 -1.743057
v -41.29025 127.4986 -1.743057
v -51.80909 127.1741 -7.002895
v -60.26263 121.5678 3.038623
v -57.05742 117.9503 -5.225624
v -49.77855 121.109 9.62566
v -60.26263 121.5678 3.038623
v -46.75266 114.4573 -0.550554
v -46.75266 114.4573 -0.550554
v -61.26225 105.9336 14.06929
v -60.9386 103.1883 10.50512
v -55.32343 107.4388 16.49811
v -61.26225 105.9336 14.06929
v -53.9452 102.1994 12.61769
v -53.9452 102.1994 12.61769
v -62.44839 102.4162 16.95109
v -62.44839 102.4162 16.95109
v -67.93958 96.12231 19.77719
v -61.51009 92.0468 13.80774
v -59.01223 102.4027 24.20754
v -67.93958 96.12231 19.77719
v -54.21096 94.79206 18.70818
v -54.21096 94.79206 18.70818
v -66.03418 71.72844 41.44073
v -66.03418 71.72844 41.44073
v -61.51009 92.0468 13.80774
v -57.69267 81.12494 34.42701
v -57.69267 81.12494 34.42701
v -30.78016 71.51413 -9.90022
v -11.80985 66.39575 -13.29446
v -7.497748 67.5616 -2.887338
v -20.3713 70.82128 5.878222
v -30.78016 71.51413 -9.90022
v -7.497748 67.5616 -2.887338
v -7.876507 61.4949 -3.337766
v -22.86423 62.91748 -9.936929
v -21.32996 58.55708 5.70896
v -22.86423 62.91748 -9.936929
v -7.876507 61.4949 -3.337766
v -11.65002 51.6535 -25.00068
v -6.448714 44.43359 -8.236451
v -24.10391 46.1835 -16.33188
v -20.56602 40.35535 2.927248
v -24.10391 46.1835 -16.33188
v -6.448714 44.43359 -8.236451
v -11.1166 19.26178 -29.19224
v -7.706156 13.37572 -24.67458
v -19.47693 13.04186 -27.3066
v -17.95755 20.19631 -14.11142
v -19.47693 13.04186 -27.3066
v -7.706156 13.37572 -24.67458
v -9.033418 1.144828 -42.42769
v -3.254121 1.144514 -24.55208
v -21.21854 1.145337 -27.99953
v -25.22753 1.145473 -13.18202
v -18.41562 1.145147 -7.544247
v -7.263108 1.144651 -9.734579
v -19.47693 13.04186 -27.3066
v -18.8511 14.92367 -4.596304
v -17.95755 20.19631 -14.11142
v -22.79382 12.44917 -12.39798
v -11.02304 12.78303 -9.765958
v -7.706156 13.37572 -24.67458
v -7.263108 1.144651 -9.734579
v -3.254121 1.144514 -24.55208
v -21.21854 1.145337 -27.99953
v -25.22753 1.145473 -13.18202
v -26.11202 11.86775 10.28458
v -22.81515 1.145293 10.97364
v -18.41562 1.145147 -7.544247
v -34.84245 1.145845 7.65546
v -22.81515 1.145293 10.97364
v -34.84245 1.145845 7.65546
v -16.67907 12.82812 11.57629
v -8.160511 1.144627 12.05956
v -20.0869 1.145168 11.20413
v -8.160511 1.144627 12.05956
v -20.0869 1.145168 11.20413
v -37.15998 1.14598 31.53176
v -37.15998 1.14598 31.53176
v -15.34622 1.144979 36.40262
v -15.34622 1.144979 36.40262
vn 0.575813 -0.15819 0.802132
vn 0.137908 -0.225736 0.964378
vn 0.163243 -0.505228 0.847406
vn -0.611613 -0.791133 0.006234
vn -0.655613 0.029466 -0.754522
vn 0.69342 -0.521936 -0.496741
vn 0.81835 0.288397 0.497122
vn 0.676128 -0.137674 0.723807
vn 0.597022 0.270718 0.755166
vn 0.250607 0.936273 0.246148
vn 0.692134 -0.309932 0.651838
vn 0.597022 0.270718 0.755166
vn 0.0028 -0.0099 0.999947
vn -0.215795 -0.870581 0.442177
vn 0.280612 0.230512 0.93173
vn 0.676128 -0.137674 0.723807
vn 0.147078 -0.314015 0.937957
vn 0.679639 -0.619974 0.392074
vn -0.302039 -0.34706 -0.887875
vn 0.937342 -0.03595 -0.346551
vn 0.173631 -0.773824 0.609137
vn 0.787168 -0.590673 0.177401
vn -0.16513 0.533434 -0.829567
vn -0.302039 -0.34706 -0.887875
vn 0.937342 -0.03595 -0.346551
vn -0.170978 0.643932 -0.745733
vn 0 -0.0087 -0.999962
vn 0.0017 -0.49083 0.871254
vn 0.817911 -0.563927 0.114051
vn 0.865439 0.369142 -0.338747
vn 0 0.254892 -0.96697
vn 0.0074 -0.121003 0.992625
vn 0.676711 0.311737 0.666995
vn 0.865439 0.369142 -0.338747
vn 0.890698 0.338571 -0.303361
vn -0.148573 -0.440132 -0.885556
vn 0.890698 0.338571 -0.303361
vn 0.632221 0.423271 0.648952
vn 0.347717 0.783591 -0.514858
vn 0.632221 0.423271 0.648952
vn 0.941479 0.23305 0.243527
vn 0.461209 0.69671 -0.549437
vn 0.363127 -0.837448 0.408435
vn 0.941479 0.23305 0.243527
vn 0.951191 0.308474 0.008852
vn -0.134571 0.729614 -0.670488
vn 0.225282 -0.802315 0.552755
vn 0.951191 0.308474 0.008852
vn -0.959841 -0.075264 -0.27026
vn -0.959841 -0.075264 -0.27026
vn 0.951191 0.308474 0.008852
vn 0.528396 0.011339 -0.848923
vn -0.134571 0.729614 -0.670488
vn -0.959841 -0.075264 -0.27026
vn 0.928674 0.349682 0.123643
vn 0.398967 -0.333331 -0.854234
vn 0.225282 -0.802315 0.552755
vn -0.236301 0.399169 0.885904
vn -0.876826 -0.442799 -0.187367
vn 0.986883 0.136348 0.086433
vn 0.573894 -0.30604 -0.759595
vn -0.047634 0.569522 0.820595
vn -0.937028 -0.262675 -0.230174
vn 0.829882 0.518527 0.205976
vn 0.96761 0.251681 -0.01967
vn 0.024635 -0.566607 -0.82362
vn 0.013014 0.649397 0.760338
vn -0.994648 -0.066797 -0.078825
vn 0.784643 -0.528683 0.323775
vn -0.797278 -0.595623 0.097887
vn 0.92156 -0.171862 -0.348126
vn -0.177861 -0.187517 -0.966024
vn -0.895142 -0.235417 0.37855
vn 0.112354 0.271282 0.95592
vn 0.92156 -0.171862 -0.348126
vn -0.965374 -0.043413 0.257231
vn -0.895142 -0.235417 0.37855
vn 0.945591 -0.121527 -0.301809
vn 0.166909 0.037788 0.985248
vn 0.945591 -0.121527 -0.301809
vn -0.965374 -0.043413 0.257231
vn -0.365895 -0.022654 -0.930381
vn -0.95846 -0.154952 0.239466
vn 0.942624 0.184411 -0.278304
vn 0.375501 -0.058398 0.924981
vn 0.942624 0.184411 -0.278304
vn -0.95846 -0.154952 0.239466
vn -0.404312 -0.096912 -0.909473
vn -0.967818 0.208255 0.141271
vn 0.848572 0.241756 -0.470617
vn 0.391663 0.56722 0.724474
vn 0.848572 0.241756 -0.470617
vn -0.967818 0.208255 0.141271
vn -0.655613 0.029466 -0.754522
vn -0.611613 -0.791133 0.006234
vn 0.69342 -0.521936 -0.496741
vn 0.903983 -0.322043 -0.281253
vn 0.167003 -0.985133 0.040297
vn -0.790712 -0.587658 0.171561
vn 0.848572 0.241756 -0.470617
vn 0.391663 0.56722 0.724474
vn 0.046978 0.946719 0.318617
vn 0.830565 0.525074 -0.185633
vn -0.967818 0.208255 0.141271
vn -0.754416 0.603937 0.257133
vn -0.611613 -0.791133 0.006234
vn -0.790712 -0.587658 0.171561
vn 0.69342 -0.521936 -0.496741
vn 0.903983 -0.322043 -0.281253
vn 0.395164 0.910426 0.122354
vn 0.167003 -0.985133 0.040297
vn -0.790703 -0.450543 0.414488
vn 0.63176 -0.750277 -0.19484
vn -0.790703 -0.450543 0.414488
vn 0.63176 -0.750277 -0.19484
vn 0.359247 0.901098 0.242826
vn -0.955132 -0.202965 0.215703
vn 0.613976 -0.789279 0.008488
vn -0.955132 -0.202965 0.215703
vn 0.613976 -0.789279 0.008488
vn -0.014237 -0.169499 0.985428
vn -0.014237 -0.169499 0.985428
vn 0.383976 -0.322692 0.86512
vn 0.383976 -0.322692 0.86512
vn -0.215795 -0.870581 0.442177
vn -0.326454 -0.281861 0.90221
vn 0.611466 -0.791126 -0.015114
vn -0.710328 -0.521943 -0.472239
vn 0.628882 0.029473 -0.776942
vn -0.73872 0.074974 0.66983
vn -0.470522 0.124393 0.873576
vn -0.443025 -0.291073 0.847942
vn -0.431463 0.842783 0.321801
vn -0.427752 -0.463432 0.776053
vn -0.470522 0.124393 0.873576
vn -0.388522 -0.120657 0.913506
vn -0.443025 -0.291073 0.847942
vn -0.389467 -0.766514 0.510658
vn 0.096659 -0.492242 -0.865075
vn -0.945816 -0.29407 -0.137675
vn -0.544488 -0.773201 0.325106
vn -0.945816 -0.29407 -0.137675
vn 0.096659 -0.492242 -0.865075
vn -0.594118 -0.757471 0.27067
vn -0.890198 0.321641 -0.322636
vn -0.769913 -0.019662 0.637846
vn -0.890198 0.321641 -0.322636
vn -0.912021 0.27801 -0.301544
vn 0.294208 -0.110268 -0.949359
vn -0.912021 0.27801 -0.301544
vn -0.441981 0.60302 0.664093
vn -0.284272 0.774491 -0.565114
vn -0.441981 0.60302 0.664093
vn -0.838357 0.431724 0.332826
vn -0.41492 0.707374 -0.572244
vn -0.433085 -0.704365 0.562413
vn -0.838357 0.431724 0.332826
vn -0.871349 0.481671 0.093509
vn 0.151579 0.613813 -0.774763
vn -0.27055 -0.680428 0.681044
vn -0.871349 0.481671 0.093509
vn 0.879052 -0.284102 -0.382825
vn 0.879052 -0.284102 -0.382825
vn -0.594339 0.099022 -0.798096
vn -0.831771 0.519526 0.195577
vn -0.532281 -0.263865 -0.804395
vn 0.38838 0.359504 0.84848
vn -0.831771 0.519526 0.195577
vn 0.757781 -0.60209 -0.251507
vn 0.757781 -0.60209 -0.251507
vn -0.931833 0.320444 0.170304
vn -0.689431 -0.202936 -0.695344
vn 0.22937 0.561375 0.795141
vn -0.931833 0.320444 0.170304
vn 0.846116 -0.437072 -0.30505
vn 0.846116 -0.437072 -0.30505
vn -0.69605 0.667895 0.263499
vn -0.69605 0.667895 0.263499
vn -0.940849 0.29807 -0.161111
vn 0.04617 -0.621205 -0.782287
vn -0.070582 0.701126 0.709535
vn -0.940849 0.29807 -0.161111
vn 0.990959 -0.122173 0.055453
vn 0.990959 -0.122173 0.055453
vn -0.849035 -0.464408 0.251922
vn -0.849035 -0.464408 0.251922
vn 0.04617 -0.621205 -0.782287
vn 0.742024 -0.626641 0.238161
vn 0.742024 -0.626641 0.238161
vn -0.844858 -0.190666 -0.499862
vn 0.290371 0.125506 -0.948648
vn 0.891644 -0.204443 0.403948
vn -0.232994 -0.06462 0.970329
vn -0.844858 -0.190666 -0.499862
vn 0.891644 -0.204443 0.403948
vn 0.944137 0.00718 0.329475
vn -0.880321 -0.160256 -0.44649
vn -0.245397 -0.310908 0.918214
vn -0.880321 -0.160256 -0.44649
vn 0.944137 0.00718 0.329475
vn 0.398964 0.339203 -0.851921
vn 0.960017 -0.05663 0.274154
vn -0.922779 0.123711 -0.36493
vn -0.427061 -0.413047 0.80437
vn -0.922779 0.123711 -0.36493
vn 0.960017 -0.05663 0.274154
vn 0.451031 0.308918 -0.837341
vn 0.972157 0.208266 0.10741
vn -0.855186 0.265731 -0.445022
vn -0.544962 0.233452 0.805306
vn -0.855186 0.265731 -0.445022
vn 0.972157 0.208266 0.10741
vn 0.628882 0.029473 -0.776942
vn 0.611466 -0.791126 -0.015114
vn -0.710328 -0.521943 -0.472239
vn -0.913244 -0.322053 -0.249535
vn -0.165486 -0.985134 0.0461
vn 0.796224 -0.587649 0.143862
vn -0.855186 0.265731 -0.445022
vn -0.035839 0.946718 0.320063
vn -0.544962 0.233452 0.805306
vn -0.836543 0.525065 -0.156535
vn 0.762923 0.603945 0.23065
vn 0.972157 0.208266 0.10741
vn 0.796224 -0.587649 0.143862
vn 0.611466 -0.791126 -0.015114
vn -0.710328 -0.521943 -0.472239
vn -0.913244 -0.322053 -0.249535
vn -0.390663 0.910422 0.13607
vn 0.804691 -0.450535 0.386642
vn -0.165486 -0.985134 0.0461
vn -0.638167 -0.750284 -0.172675
vn 0.804691 -0.450535 0.386642
vn -0.638167 -0.750284 -0.172675
vn -0.350563 0.901094 0.255216
vn 0.96208 -0.202954 0.18224
vn -0.613298 -0.789286 0.029908
vn 0.96208 -0.202954 0.18224
vn -0.613298 -0.789286 0.029908
vn 0.048619 -0.169499 0.984331
vn 0.048619 -0.169499 0.984331
vn -0.353549 -0.322696 0.877993
vn -0.353549 -0.322696 0.877993
vt 0.3235 0.9513
vt 0.2778 0.9513
vt 0.2778 0.8862
vt 0.7585 0.8429
vt 0.7771 0.8726
vt 0.8006 0.8447
vt 0.6674 1.0056
vt 0.6707 1.0067
vt 0.6341 0.9479
vt 0.6042 0.9323
vt 0.3672 0.8862
vt 0.3778 0.9446
vt 0.2778 0.6242
vt 0.2778 0.561
vt 0.3517 0.5371
vt 0.3396 1.0029
vt 0.2778 0.9813
vt 0.3942 0.874
vt 0.4115 0.7619
vt 0.3678 0.7441
vt 0.2778 0.8121
vt 0.3424 0.8121
vt 0.73 0.8891
vt 0.6018 0.7637
vt 0.6437 0.7458
vt 0.73 0.8143
vt 0.73 0.7453
vt 0.2778 0.697
vt 0.3331 0.7435
vt 0.621 0.6707
vt 0.73 0.6559
vt 0.2796 0.6568
vt 0.3424 0.6568
vt 0.3915 0.6697
vt 0.6014 0.5812
vt 0.7078 0.5841
vt 0.4119 0.5808
vt 0.5776 0.98
vt 0.5859 0.8901
vt 0.4367 0.9764
vt 0.5192 0.8444
vt 0.54 0.8565
vt 0.4451 0.8065
vt 0.4976 0.8419
vt 0.5084 0.7221
vt 0.5213 0.7297
vt 0.4794 0.7155
vt 0.5089 0.7207
vt 0.4534 0.7134
vt 0.5616 0.7148
vt 0.5009 0.7189
vt 0.489 0.7016
vt 0.4855 0.7259
vt 0.4379 0.7121
vt 0.5358 0.6437
vt 0.5014 0.6503
vt 0.4674 0.7141
vt 0.4886 0.637
vt 0.4469 0.6341
vt 0.5259 0.546
vt 0.5144 0.5424
vt 0.5008 0.5532
vt 0.4786 0.5402
vt 0.5292 0.5221
vt 0.5517 0.482
vt 0.5107 0.4841
vt 0.5093 0.5079
vt 0.4733 0.4914
vt 0.5133 0.3213
vt 0.4773 0.3884
vt 0.5895 0.3972
vt 0.6728 0.371
vt 0.3008 0.3862
vt 0.3494 0.4067
vt 0.4244 0.3984
vt 0.7077 0.3521
vt 0.708 0.3849
vt 0.6287 0.3529
vt 0.3497 0.3367
vt 0.3835 0.3544
vt 0.301 0.3537
vt 0.661 0.2882
vt 0.7129 0.256
vt 0.6193 0.2572
vt 0.3436 0.2357
vt 0.3933 0.2595
vt 0.2957 0.2583
vt 0.6686 0.1069
vt 0.6943 0.0759
vt 0.6362 0.0741
vt 0.3508 0.1191
vt 0.3756 0.0779
vt 0.3151 0.0798
vt 0.6767 0.0077
vt 0.7157 0.0077
vt 0.6275 0.0077
vt 0.8052 0.818
vt 0.788 0.8098
vt 0.7632 0.8162
vt 0.5007 0.0312
vt 0.4661 0.1033
vt 0.4927 0.1517
vt 0.5041 0.1128
vt 0.4992 0.037
vt 0.5025 0.1186
vt 0.5568 0.0339
vt 0.5574 0.1156
vt 0.5568 0.0281
vt 0.5573 0.1098
vt 0.5077 0.2359
vt 0.5575 0.135
vt 0.5582 0.2367
vt 0.8209 0.7795
vt 0.7924 0.7765
vt 0.5581 0.2274
vt 0.5031 0.2362
vt 0.5582 0.2322
vt 0.7861 0.7768
vt 0.7586 0.778
vt 0.5582 0.236
vt 0.559 0.3561
vt 0.8189 0.7374
vt 0.5591 0.3668
vt 0.7676 0.734
vt 0.73 0.5612
vt 0.2321 0.9513
vt 0.7582 0.8429
vt 0.8003 0.8448
vt 0.7768 0.8727
vt 0.7926 1.0056
vt 0.826 0.9479
vt 0.7893 1.0067
vt 0.8558 0.9323
vt 0.1883 0.8862
vt 0.1777 0.9446
vt 0.2039 0.5371
vt 0.2159 1.0029
vt 0.1614 0.874
vt 0.144 0.7619
vt 0.1877 0.7441
vt 0.2131 0.8121
vt 0.8164 0.7458
vt 0.8583 0.7637
vt 0.2224 0.7435
vt 0.8391 0.6707
vt 0.2131 0.6568
vt 0.164 0.6697
vt 0.8586 0.5812
vt 0.7522 0.5841
vt 0.1437 0.5808
vt 0.8824 0.98
vt 0.8742 0.8901
vt 0.1189 0.9764
vt 0.9408 0.8444
vt 0.9201 0.8565
vt 0.1104 0.8065
vt 0.0579 0.8419
vt 0.9517 0.7221
vt 0.9387 0.7297
vt 0.0761 0.7155
vt 0.0466 0.7207
vt 0.1021 0.7134
vt 0.8985 0.7148
vt 0.9417 0.7036
vt 0.9812 0.6417
vt 0.9521 0.6487
vt 0.0574 0.6336
vt 0.0159 0.6408
vt 0.0941 0.6306
vt 0.9061 0.6314
vt 0.9728 0.5369
vt 0.9631 0.5331
vt 0.0467 0.5447
vt 0.0245 0.537
vt 0.0662 0.5308
vt 0.9329 0.5307
vt 0.9757 0.5113
vt 0.0216 0.5116
vt 0.9946 0.4684
vt 0.96 0.4706
vt 0.0392 0.4965
vt 0.0018 0.469
vt 0.0709 0.479
vt 0.9284 0.4784
vt 0.9621 0.2962
vt 0.0357 0.2983
vt 0.038 0.4712
vt 0.0673 0.3696
vt 0.9318 0.3681
vt 0.8706 0.3972
vt 0.7872 0.371
vt 0.2548 0.3862
vt 0.2061 0.4067
vt 0.1312 0.3984
vt 0.7521 0.3849
vt 0.7523 0.3521
vt 0.8314 0.3529
vt 0.2059 0.3367
vt 0.1721 0.3544
vt 0.2545 0.3537
vt 0.7991 0.2882
vt 0.7472 0.256
vt 0.8408 0.2572
vt 0.2119 0.2357
vt 0.1622 0.2595
vt 0.2599 0.2583
vt 0.7914 0.1069
vt 0.7658 0.0759
vt 0.8238 0.0741
vt 0.2048 0.1191
vt 0.18 0.0779
vt 0.2405 0.0798
vt 0.7833 0.0077
vt 0.7444 0.0077
vt 0.8326 0.0077
vt 0.8051 0.8181
vt 0.7878 0.8098
vt 0.763 0.8162
vt 0.5007 0.0312
vt 0.4927 0.1517
vt 0.4661 0.1033
vt 0.5041 0.1128
vt 0.5025 0.1186
vt 0.4992 0.037
vt 0.5574 0.1156
vt 0.5568 0.0339
vt 0.5568 0.0281
vt 0.5573 0.1098
vt 0.5077 0.2359
vt 0.5582 0.2367
vt 0.5575 0.135
vt 0.8208 0.7796
vt 0.7924 0.7766
vt 0.5581 0.2274
vt 0.5031 0.2362
vt 0.5582 0.2322
vt 0.7861 0.7768
vt 0.7585 0.778
vt 0.5582 0.236
vt 0.559 0.3561
vt 0.819 0.7376
vt 0.5591 0.3668
vt 0.7677 0.734
f 244/244/244 246/246/246 245/245/245
f 247/247/247 249/249/249 248/248/248
f 250/250/250 252/252/252 251/251/251
f 252/252/252 250/250/250 253/253/253
f 244/244/244 254/254/254 246/246/246
f 254/254/254 244/244/244 255/255/255
f 256/256/256 258/258/258 257/257/257
f 259/259/259 245/245/245 260/260/260
f 245/245/245 259/259/259 244/244/244
f 255/255/255 261/261/261 254/254/254
f 255/255/255 244/244/244 259/259/259
f 262/262/262 263/263/263 261/261/261
f 264/264/264 246/246/246 265/265/265
f 266/266/266 268/268/268 267/267/267
f 268/268/268 266/266/266 269/269/269
f 254/254/254 265/265/265 246/246/246
f 261/261/261 265/265/265 254/254/254
f 265/265/265 261/261/261 263/263/263
f 268/268/268 269/269/269 270/270/270
f 265/265/265 271/271/271 264/264/264
f 263/263/263 272/272/272 265/265/265
f 271/271/271 265/265/265 272/272/272
f 270/270/270 273/273/273 268/268/268
f 273/273/273 270/270/270 274/274/274
f 275/275/275 271/271/271 276/276/276
f 263/263/263 276/276/276 272/272/272
f 276/276/276 263/263/263 277/277/277
f 272/272/272 276/276/276 271/271/271
f 274/274/274 278/278/278 273/273/273
f 278/278/278 274/274/274 279/279/279
f 276/276/276 256/256/256 275/275/275
f 256/256/256 276/276/276 258/258/258
f 277/277/277 258/258/258 276/276/276
f 258/258/258 277/277/277 280/280/280
f 253/253/253 281/281/281 252/252/252
f 281/281/281 253/253/253 282/282/282
f 261/261/261 255/255/255 283/283/283
f 282/282/282 284/284/284 281/281/281
f 284/284/284 282/282/282 285/285/285
f 283/283/283 286/286/286 261/261/261
f 286/286/286 283/283/283 287/287/287
f 262/262/262 261/261/261 286/286/286
f 267/267/267 285/285/285 282/282/282
f 285/285/285 288/288/288 284/284/284
f 288/288/288 285/285/285 289/289/289
f 287/287/287 290/290/290 286/286/286
f 290/290/290 287/287/287 291/291/291
f 286/286/286 292/292/292 262/262/262
f 292/292/292 286/286/286 290/290/290
f 267/267/267 289/289/289 285/285/285
f 289/289/289 267/267/267 293/293/293
f 294/294/294 296/296/296 295/295/295
f 297/297/297 295/295/295 296/296/296
f 295/295/295 298/298/298 294/294/294
f 298/298/298 295/295/295 299/299/299
f 294/294/294 301/301/301 300/300/300
f 301/301/301 294/294/294 298/298/298
f 300/300/300 302/302/302 297/297/297
f 302/302/302 300/300/300 301/301/301
f 297/297/297 299/299/299 295/295/295
f 299/299/299 297/297/297 302/302/302
f 299/299/299 303/303/303 298/298/298
f 303/303/303 299/299/299 304/304/304
f 298/298/298 305/305/305 301/301/301
f 305/305/305 298/298/298 303/303/303
f 301/301/301 306/306/306 302/302/302
f 306/306/306 301/301/301 305/305/305
f 302/302/302 304/304/304 299/299/299
f 304/304/304 302/302/302 306/306/306
f 304/304/304 307/307/307 303/303/303
f 305/305/305 303/303/303 307/307/307
f 304/304/304 308/308/308 307/307/307
f 308/308/308 304/304/304 309/309/309
f 307/307/307 310/310/310 305/305/305
f 310/310/310 307/307/307 308/308/308
f 305/305/305 311/311/311 306/306/306
f 311/311/311 305/305/305 310/310/310
f 306/306/306 309/309/309 304/304/304
f 309/309/309 306/306/306 311/311/311
f 309/309/309 312/312/312 308/308/308
f 308/308/308 312/312/312 310/310/310
f 310/310/310 312/312/312 309/309/309
f 310/310/310 313/313/313 311/311/311
f 311/311/311 313/313/313 309/309/309
f 309/309/309 313/313/313 310/310/310
f 279/279/279 314/314/314 278/278/278
f 314/314/314 279/279/279 315/315/315
f 258/258/258 316/316/316 257/257/257
f 316/316/316 258/258/258 317/317/317
f 280/280/280 317/317/317 258/258/258
f 317/317/317 280/280/280 318/318/318
f 315/315/315 320/320/320 319/319/319
f 315/315/315 321/321/321 314/314/314
f 318/318/318 322/322/322 317/317/317
f 322/322/322 318/318/318 323/323/323
f 317/317/317 324/324/324 316/316/316
f 324/324/324 317/317/317 322/322/322
f 319/319/319 325/325/325 315/315/315
f 325/325/325 319/319/319 326/326/326
f 315/315/315 327/327/327 321/321/321
f 327/327/327 315/315/315 325/325/325
f 323/323/323 328/328/328 322/322/322
f 328/328/328 323/323/323 329/329/329
f 322/322/322 330/330/330 324/324/324
f 330/330/330 322/322/322 328/328/328
f 326/326/326 331/331/331 325/325/325
f 331/331/331 326/326/326 332/332/332
f 325/325/325 333/333/333 327/327/327
f 333/333/333 325/325/325 331/331/331
f 329/329/329 334/334/334 328/328/328
f 334/334/334 329/329/329 335/335/335
f 328/328/328 336/336/336 330/330/330
f 336/336/336 328/328/328 334/334/334
f 332/332/332 337/337/337 331/331/331
f 337/337/337 332/332/332 338/338/338
f 331/331/331 339/339/339 333/333/333
f 339/339/339 331/331/331 337/337/337
f 340/340/340 249/249/249 341/341/341
f 247/247/247 341/341/341 249/249/249
f 341/341/341 247/247/247 342/342/342
f 343/343/343 345/345/345 344/344/344
f 345/345/345 343/343/343 346/346/346
f 344/344/344 348/348/348 347/347/347
f 348/348/348 344/344/344 345/345/345
f 347/347/347 350/350/350 349/349/349
f 350/350/350 347/347/347 348/348/348
f 351/351/351 346/346/346 343/343/343
f 346/346/346 351/351/351 352/352/352
f 346/346/346 353/353/353 345/345/345
f 345/345/345 355/355/355 354/354/354
f 355/355/355 345/345/345 353/353/353
f 341/341/341 356/356/356 340/340/340
f 356/356/356 341/341/341 357/357/357
f 352/352/352 353/353/353 346/346/346
f 353/353/353 352/352/352 358/358/358
f 345/345/345 359/359/359 348/348/348
f 348/348/348 360/360/360 350/350/350
f 360/360/360 348/348/348 359/359/359
f 342/342/342 361/361/361 341/341/341
f 361/361/361 342/342/342 362/362/362
f 354/354/354 359/359/359 345/345/345
f 359/359/359 354/354/354 363/363/363
f 353/353/353 364/364/364 355/355/355
f 357/357/357 365/365/365 356/356/356
f 358/358/358 364/364/364 353/353/353
f 359/359/359 366/366/366 360/360/360
f 362/362/362 367/367/367 361/361/361
f 363/363/363 366/366/366 359/359/359
f 368/368/368 320/320/320 279/279/279
f 279/279/279 320/320/320 315/315/315
f 266/266/266 282/282/282 253/253/253
f 282/282/282 266/266/266 267/267/267
f 369/369/369 245/245/245 246/246/246
f 370/370/370 372/372/372 371/371/371
f 373/373/373 375/375/375 374/374/374
f 374/374/374 376/376/376 373/373/373
f 369/369/369 246/246/246 377/377/377
f 377/377/377 378/378/378 369/369/369
f 256/256/256 257/257/257 379/379/379
f 380/380/380 260/260/260 245/245/245
f 245/245/245 369/369/369 380/380/380
f 378/378/378 377/377/377 381/381/381
f 378/378/378 380/380/380 369/369/369
f 382/382/382 381/381/381 383/383/383
f 264/264/264 384/384/384 246/246/246
f 266/266/266 386/386/386 385/385/385
f 385/385/385 269/269/269 266/266/266
f 377/377/377 246/246/246 384/384/384
f 381/381/381 377/377/377 384/384/384
f 384/384/384 383/383/383 381/381/381
f 385/385/385 270/270/270 269/269/269
f 384/384/384 264/264/264 271/271/271
f 383/383/383 384/384/384 387/387/387
f 271/271/271 387/387/387 384/384/384
f 270/270/270 385/385/385 388/388/388
f 388/388/388 274/274/274 270/270/270
f 383/383/383 387/387/387 389/389/389
f 389/389/389 390/390/390 383/383/383
f 387/387/387 271/271/271 389/389/389
f 274/274/274 388/388/388 391/391/391
f 391/391/391 392/392/392 274/274/274
f 390/390/390 389/389/389 379/379/379
f 379/379/379 393/393/393 390/390/390
f 376/376/376 374/374/374 394/394/394
f 394/394/394 395/395/395 376/376/376
f 381/381/381 396/396/396 378/378/378
f 395/395/395 394/394/394 397/397/397
f 397/397/397 398/398/398 395/395/395
f 396/396/396 381/381/381 399/399/399
f 399/399/399 400/400/400 396/396/396
f 382/382/382 399/399/399 381/381/381
f 386/386/386 395/395/395 398/398/398
f 398/398/398 397/397/397 401/401/401
f 401/401/401 402/402/402 398/398/398
f 400/400/400 399/399/399 403/403/403
f 403/403/403 404/404/404 400/400/400
f 399/399/399 382/382/382 405/405/405
f 405/405/405 403/403/403 399/399/399
f 386/386/386 398/398/398 402/402/402
f 402/402/402 406/406/406 386/386/386
f 401/401/401 407/407/407 402/402/402
f 406/406/406 402/402/402 407/407/407
f 407/407/407 401/401/401 408/408/408
f 408/408/408 409/409/409 407/407/407
f 404/404/404 403/403/403 410/410/410
f 410/410/410 411/411/411 404/404/404
f 403/403/403 405/405/405 412/412/412
f 412/412/412 410/410/410 403/403/403
f 406/406/406 407/407/407 409/409/409
f 409/409/409 413/413/413 406/406/406
f 409/409/409 408/408/408 414/414/414
f 414/414/414 415/415/415 409/409/409
f 411/411/411 410/410/410 416/416/416
f 416/416/416 417/417/417 411/411/411
f 410/410/410 412/412/412 418/418/418
f 418/418/418 416/416/416 410/410/410
f 413/413/413 409/409/409 415/415/415
f 415/415/415 419/419/419 413/413/413
f 415/415/415 414/414/414 420/420/420
f 416/416/416 421/421/421 417/417/417
f 415/415/415 420/420/420 422/422/422
f 422/422/422 423/423/423 415/415/415
f 421/421/421 416/416/416 424/424/424
f 424/424/424 425/425/425 421/421/421
f 416/416/416 418/418/418 426/426/426
f 426/426/426 424/424/424 416/416/416
f 419/419/419 415/415/415 423/423/423
f 423/423/423 427/427/427 419/419/419
f 423/423/423 422/422/422 428/428/428
f 425/425/425 424/424/424 429/429/429
f 424/424/424 430/430/430 429/429/429
f 424/424/424 426/426/426 431/431/431
f 427/427/427 423/423/423 432/432/432
f 430/430/430 424/424/424 431/431/431
f 392/392/392 391/391/391 433/433/433
f 433/433/433 434/434/434 392/392/392
f 379/379/379 257/257/257 435/435/435
f 435/435/435 436/436/436 379/379/379
f 393/393/393 379/379/379 436/436/436
f 436/436/436 437/437/437 393/393/393
f 434/434/434 439/439/439 438/438/438
f 434/434/434 433/433/433 440/440/440
f 437/437/437 436/436/436 441/441/441
f 441/441/441 442/442/442 437/437/437
f 436/436/436 435/435/435 443/443/443
f 443/443/443 441/441/441 436/436/436
f 439/439/439 434/434/434 444/444/444
f 444/444/444 445/445/445 439/439/439
f 434/434/434 440/440/440 446/446/446
f 446/446/446 444/444/444 434/434/434
f 442/442/442 441/441/441 447/447/447
f 447/447/447 448/448/448 442/442/442
f 441/441/441 443/443/443 449/449/449
f 449/449/449 447/447/447 441/441/441
f 445/445/445 444/444/444 450/450/450
f 450/450/450 451/451/451 445/445/445
f 444/444/444 446/446/446 452/452/452
f 452/452/452 450/450/450 444/444/444
f 448/448/448 447/447/447 453/453/453
f 453/453/453 454/454/454 448/448/448
f 447/447/447 449/449/449 455/455/455
f 455/455/455 453/453/453 447/447/447
f 451/451/451 450/450/450 456/456/456
f 456/456/456 457/457/457 451/451/451
f 450/450/450 452/452/452 458/458/458
f 458/458/458 456/456/456 450/450/450
f 459/459/459 460/460/460 371/371/371
f 370/370/370 371/371/371 460/460/460
f 460/460/460 461/461/461 370/370/370
f 462/462/462 464/464/464 463/463/463
f 463/463/463 465/465/465 462/462/462
f 464/464/464 467/467/467 466/466/466
f 466/466/466 463/463/463 464/464/464
f 467/467/467 469/469/469 468/468/468
f 468/468/468 466/466/466 467/467/467
f 470/470/470 462/462/462 465/465/465
f 465/465/465 471/471/471 470/470/470
f 465/465/465 463/463/463 472/472/472
f 463/463/463 474/474/474 473/473/473
f 473/473/473 472/472/472 463/463/463
f 460/460/460 459/459/459 475/475/475
f 475/475/475 476/476/476 460/460/460
f 471/471/471 465/465/465 472/472/472
f 472/472/472 477/477/477 471/471/471
f 463/463/463 466/466/466 478/478/478
f 466/466/466 468/468/468 479/479/479
f 479/479/479 478/478/478 466/466/466
f 461/461/461 460/460/460 480/480/480
f 480/480/480 481/481/481 461/461/461
f 474/474/474 463/463/463 478/478/478
f 478/478/478 482/482/482 474/474/474
f 472/472/472 473/473/473 483/483/483
f 476/476/476 475/475/475 484/484/484
f 477/477/477 472/472/472 483/483/483
f 478/478/478 479/479/479 485/485/485
f 481/481/481 480/480/480 486/486/486
f 482/482/482 478/478/478 485/485/485
f 368/368/368 392/392/392 438/438/438
f 392/392/392 434/434/434 438/438/438
f 266/266/266 376/376/376 395/395/395
f 395/395/395 386/386/386 266/266/266
f 271/271/271 275/275/275 389/389/389
f 256/256/256 379/379/379 389/389/389
f 275/275/275 256/256/256 389/389/389
f 274/274/274 392/392/392 279/279/279
f 392/392/392 368/368/368 279/279/279
