# Monster63.bmd — MU geometry at action 0 key 0, exported for MU2
# 4 mesh(es)

g bsh01
# texture: bsh01.jpg
v 32.1343 144.801 6.999213
v 29.0766 142.4752 0.739911
v 34.64561 141.8997 -1.325488
v 21.7103 152.0312 10.40061
v 26.5793 155.5074 14.54551
v 32.7597 157.6698 11.36781
v 29.13501 166.7371 1.298808
v 27.82351 168.0509 8.621208
v 34.0711 156.356 4.045311
v 24.26611 163.2608 -2.846093
v 29.20221 152.8798 -0.09949
v 18.08571 161.0984 0.331606
v 23.0218 150.7174 3.07811
v 16.77421 162.4122 7.654107
v 21.6431 165.8884 11.79891
v 22.75261 176.6949 -1.688995
v 21.4215 178.0282 5.742806
v 20.02461 169.9498 -4.922096
v 14.12731 165.684 -1.258196
v 12.79621 167.0173 6.173604
v 17.3624 172.6165 9.941504
v 16.3246 177.0717 5.332203
v 14.0504 177.3347 11.578
v 15.15831 173.4722 1.516603
v 10.0565 169.1582 3.383202
v 7.7823 169.4212 9.629002
v 10.6099 173.9982 14.0082
v 37.4895 146.8302 1.046912
v 28.05359 117.0972 36.42981
v 27.70049 116.8549 38.11241
v 23.9879 120.6731 41.76941
v 23.9392 121.6862 40.21541
v 35.891 143.2221 2.685213
v 37.43871 148.6913 4.577513
v 39.6087 142.9691 13.91191
v 38.1474 135.1965 11.27502
v 27.07141 143.2697 4.277911
v 26.5185 136.6605 12.76651
v 32.27081 149.4057 6.863213
v 33.0352 146.2299 15.17891
v 26.6761 147.8854 7.202111
v 26.1134 145.0102 15.27241
v 39.6431 133.2823 26.54382
v 35.866 128.3036 25.95262
v 31.81999 129.6393 28.54922
v 36.65269 136.6799 28.65742
v 31.0668 133.9542 29.63292
v 41.9494 128.4866 32.60351
v 39.1586 133.8207 36.26261
v 38.55939 124.0272 35.49691
v 34.3278 120.2556 35.80391
v 35.9688 129.1809 40.22791
v 31.9553 123.7571 38.23441
v 25.9947 130.5992 36.60171
v 25.3264 129.286 35.72281
v 25.4069 128.4039 36.90121
v 26.0752 129.7171 37.78011
v 36.03749 119.0526 40.29471
v 32.98079 123.4899 44.85841
v 31.6278 125.9083 40.20641
v 30.0261 130.6859 32.17341
v 30.6439 133.3947 33.36511
v 30.5606 128.9583 34.93851
v 31.1783 131.667 36.13021
v 40.67211 146.4692 -0.920288
v 23.8224 150.6989 5.57311
v 33.8173 155.7984 6.043911
v 27.87871 139.9419 -1.522989
v 34.9276 152.2796 11.93241
v 41.7824 142.9504 4.968215
v 24.9327 147.1801 11.46161
v 28.989 136.423 4.365613
v 37.90411 135.9812 -3.196486
v 33.99591 147.5338 -19.78629
v -21.50928 148.0699 -22.40741
v -17.48017 148.9869 -30.58981
v -14.80068 148.9683 -25.25791
v -20.69988 150.0438 -8.749412
v -27.97538 149.8675 -8.824312
v -31.37898 153.8572 -13.87092
v -31.76999 163.059 -6.464914
v -27.89799 167.225 -11.43651
v -27.50698 158.0232 -18.84252
v -20.62239 167.4012 -11.36161
v -20.23138 158.1994 -18.76761
v -17.21879 163.4115 -6.315009
v -16.82778 154.2097 -13.72111
v -21.09079 159.2456 -1.34341
v -28.36639 159.0693 -1.418313
v -30.91449 172.0059 1.783988
v -26.98469 176.234 -3.26191
v -20.00069 173.5024 -5.936408
v -15.55199 166.7531 -6.379905
v -18.17309 167.0562 0.818595
v -27.86039 165.0461 4.155289
v -21.07919 176.9108 -1.194807
v -18.80509 176.6479 -7.440607
v -15.38439 173.1037 -9.588406
v -12.582 168.8851 -4.847904
v -14.8562 169.1481 1.397894
v -19.9327 173.6297 2.903196
v -22.65817 152.1519 -29.49561
v -25.90197 110.1682 -7.225525
v -27.27717 111.2811 0.170275
v -26.54337 109.2312 -5.912125
v -26.68247 112.8779 -0.564724
v -21.19707 148.31 -28.32871
v -30.40497 142.8631 -23.28171
v -25.32918 152.2578 -26.53141
v -25.10507 137.1792 -26.29941
v -15.67328 148.2504 -21.27141
v -17.94978 138.6228 -17.00881
v -27.44898 145.6674 -17.04911
v -23.12068 152.2384 -21.28131
v -22.00298 145.0081 -12.65451
v -18.68828 151.1111 -17.70231
v -34.47307 128.6103 -17.47582
v -29.63557 124.6778 -16.74222
v -28.64688 124.9998 -11.86211
v -34.68877 130.9176 -13.05052
v -30.21878 128.4303 -9.387917
v -38.02406 121.2455 -16.13313
v -39.95927 124.5872 -10.24083
v -35.68836 116.2094 -13.14443
v -31.45976 112.99 -11.14952
v -38.33537 118.9018 -6.710226
v -32.35027 115.2079 -6.896824
v -29.38487 122.4556 -2.030022
v -28.37037 120.4002 -2.054222
v -27.92677 121.7158 -2.549721
v -29.82848 121.14 -1.534522
v -34.69696 109.6615 -9.437927
v -36.65627 111.8191 -3.006229
v -34.00657 116.2814 -4.722424
v -29.78277 124.2169 -7.74052
v -31.86887 126.0697 -6.576821
v -31.19567 121.4122 -6.713923
v -33.28177 123.265 -5.550223
v -23.71817 152.4821 -33.08671
v -25.98478 158.2116 -21.06351
v -16.61328 154.5427 -16.07991
v -11.72268 147.7859 -26.70771
v -26.76187 146.6546 -30.83611
v -29.02848 152.3841 -18.81281
v -19.65698 148.7151 -13.82921
v -14.76637 141.9583 -24.45701
v -16.73227 144.2997 -35.74901
v -8.150875 162.2366 -41.096
v 12.2448 138.1214 -5.132496
v 1.979403 134.3301 -12.2421
v 0.387303 133.9693 -6.303098
v 13.1183 134.4859 6.884903
v 7.104998 133.8803 12.9423
v 8.742896 121.8304 17.1474
v 15.9375 125.1955 9.304604
v -5.879903 132.8602 17.084
v -5.843904 119.7635 15.678
v 16.3979 121.6143 -6.761795
v 2.200503 118.0362 -13.759
v -2.592003 107.3128 7.750598
v 0.847894 111.52 16.3889
v -4.834905 110.7847 14.9473
v 19.9992 96.8463 22.2616
v 8.742896 121.8304 17.1474
v 21.3371 114.4264 6.882705
v -1.236701 107.8844 2.4997
v 1.891502 113.549 -11.0894
v 10.6007 109.6755 -9.229396
v 5.307502 100.1398 -1.937297
v 5.539302 91.95891 16.4497
v 22.2364 96.7974 1.625205
v 7.598308 73.72681 10.9521
v 10.41031 76.98161 20.2996
v 23.7328 73.68271 9.843003
v 13.012 76.05331 1.277804
v 13.06421 100.4053 -6.179695
v 18.977 77.56241 19.2086
v 21.2116 77.32721 2.897305
v 13.168 60.68952 20.2894
v 8.927205 70.50961 14.792
v 9.831207 58.30292 10.487
v 22.0286 62.00801 19.4572
v 27.5956 57.80711 11.6942
v 23.4819 68.94382 16.441
v 11.75121 56.31702 6.897102
v 13.96661 67.45461 3.464902
v 14.13581 58.72612 -3.386496
v 21.19291 68.35322 3.707104
v 26.08541 58.31012 4.902404
v 22.13651 59.25042 -4.407093
v 12.96011 52.20612 17.5254
v 10.72721 49.60072 13.3035
v 12.30761 36.88892 8.5457
v 16.47651 27.52982 16.3646
v 22.9325 53.98252 17.1358
v 23.37711 28.43922 15.9047
v 26.69291 39.27812 6.463805
v 11.45901 50.13182 6.744301
v 14.81831 47.42772 -2.514097
v 15.70981 37.09022 1.526703
v 23.03211 37.64732 0.801106
v 26.73681 52.30182 4.620805
v 22.45101 47.94912 -3.491495
v 16.00161 26.97923 21.8144
v 15.37771 21.22283 13.9342
v 15.55361 18.51292 10.3372
v 26.25001 22.73722 8.203004
v 23.37711 28.43922 15.9047
v 27.01281 27.48192 20.9069
v 27.01281 27.48192 20.9069
v 26.86401 15.99552 9.525604
v 26.25001 22.73722 8.203004
v 17.47122 15.05192 6.334903
v 16.45441 24.72093 2.538003
v 16.98152 19.08623 -2.674097
v 23.39261 25.58183 2.491505
v 22.19791 19.53903 -3.271996
v 23.11641 0.360027 40.69369
v 21.90411 7.728523 32.3063
v 16.72161 0.108025 21.0969
v 25.36961 15.31492 18.4248
v 28.25471 7.879023 29.1478
v 14.45562 0.107727 8.633702
v 15.33742 -0.269573 1.776105
v 15.03101 12.87152 11.4196
v 26.01742 0.151022 -0.825894
v 23.02032 14.36432 2.609707
v 17.08601 14.26382 16.2562
v 20.34401 14.84902 19.5376
v 31.69541 0.105722 19.9053
v 30.11941 0.390026 38.2769
v 16.4091 80.63392 31.4392
v 16.4091 80.63392 31.4392
v 10.41031 76.98161 20.2996
v 7.598308 73.72681 10.9521
v 18.977 77.56241 19.2086
v 16.4091 80.63392 31.4392
v 23.7328 73.68271 9.843003
v 16.47651 27.52982 16.3646
v 16.00161 26.97923 21.8144
v 26.01742 0.151022 -0.825894
v 14.45562 0.107727 8.633702
v 15.33742 -0.269573 1.776105
v 16.72161 0.108025 21.0969
v 31.69541 0.105722 19.9053
v 30.11941 0.390026 38.2769
v 23.11641 0.360027 40.69369
v 16.4091 80.63392 31.4392
v -10.408 138.2994 -11.1941
v -17.2196 134.7244 -1.233305
v -19.3454 119.2863 9.621196
v -15.0446 134.0544 7.015194
v -22.1468 121.7459 -0.899904
v -13.9659 118.864 -14.8976
v -10.5144 110.4909 13.3444
v -24.69851 94.5976 14.8877
v -19.3454 119.2863 9.621196
v -24.1355 111.8271 -0.929405
v -5.800696 108.1899 -13.624
v -5.775401 98.57779 -6.049702
v -9.08651 90.655 12.1528
v -22.81661 94.10759 -5.778305
v -13.62231 75.42789 15.38241
v -8.814915 72.24939 6.858102
v -24.37571 71.06029 2.615498
v -12.3572 74.05759 -3.748103
v -12.5443 98.24089 -11.7332
v -21.82532 75.39229 12.6211
v -20.78101 74.77638 -3.799504
v -14.15311 56.94199 11.8724
v -8.547312 58.03999 2.9119
v -10.70291 68.3755 10.454
v -22.75672 57.46419 9.294499
v -24.78002 64.78429 8.014597
v -25.81781 55.24109 -0.431204
v -9.324711 57.04309 -1.437702
v -9.984409 62.19269 -10.93971
v -12.74301 68.38079 -2.150204
v -19.91331 68.35899 -3.443206
v -23.08821 57.95349 -6.249706
v -17.58111 62.11619 -13.69881
v -11.89511 49.78179 7.046902
v -6.750311 38.10019 -5.312201
v -8.434513 48.85029 2.953502
v -10.67891 26.40319 -1.589897
v -17.39642 26.64149 -3.454201
v -21.73981 50.47969 4.734199
v -20.61571 39.40609 -10.1104
v -7.916811 51.27079 -3.187701
v -8.654812 40.05389 -12.6223
v -8.815811 51.16309 -13.3608
v -15.66281 39.99329 -14.93241
v -22.59501 52.28339 -8.301805
v -16.06591 51.11129 -15.99091
v -11.21791 24.27399 3.450405
v -6.751814 19.45529 -9.710398
v -8.015015 21.29868 -5.296698
v -17.60812 23.27718 -12.8732
v -21.73401 23.80998 0.056501
v -17.39642 26.64149 -3.454201
v -21.73401 23.80998 0.056501
v -17.60812 23.27718 -12.8732
v -17.46732 16.93838 -13.4207
v -7.568713 15.99309 -14.0714
v -5.847515 24.16168 -21.7307
v -7.384113 27.96198 -15.22
v -14.21232 28.02428 -16.7218
v -10.83361 24.19608 -23.43671
v -21.91722 1.313284 17.65991
v -10.66802 1.054285 0.386107
v -18.57402 8.678886 9.869812
v -23.89072 8.828683 5.17531
v -18.32722 16.26078 -4.437897
v -5.253318 1.049482 -11.0659
v -4.330114 0.669886 -17.9179
v -6.528114 13.81429 -8.527897
v -11.96461 15.30458 -19.1057
v -13.97271 1.090279 -23.1955
v -9.764716 15.20839 -4.388395
v -13.76092 15.79489 -2.062094
v -24.82322 1.052382 -4.640396
v -28.05603 1.34288 13.51301
v -23.04732 72.0537 26.8766
v -23.04732 72.0537 26.8766
v -8.814915 72.24939 6.858102
v -13.62231 75.42789 15.38241
v -21.82532 75.39229 12.6211
v -24.37571 71.06029 2.615498
v -23.04732 72.0537 26.8766
v -11.21791 24.27399 3.450405
v -10.67891 26.40319 -1.589897
v -13.97271 1.090279 -23.1955
v -4.330114 0.669886 -17.9179
v -5.253318 1.049482 -11.0659
v -10.66802 1.054285 0.386107
v -24.82322 1.052382 -4.640396
v -28.05603 1.34288 13.51301
v -21.91722 1.313284 17.65991
v -23.04732 72.0537 26.8766
v 12.16389 124.7266 16.6511
v 20.3723 130.2565 -3.082595
v 23.4447 149.1399 -0.580494
v 11.2408 151.9297 23.0056
v -5.701303 123.9574 16.56259
v -7.408502 142.5543 17.6496
v -8.722502 153.2998 20.907
v 18.1278 170.6065 21.2359
v 4.707796 174.1412 17.0937
v 1.890298 167.0432 19.6671
v 28.223 185.0755 15.48841
v 12.1695 181.2709 10.4069
v 20.3723 130.2565 -3.082595
v 2.298004 136.7211 -13.1227
v 2.132105 140.9493 -12.2109
v 23.4447 149.1399 -0.580494
v 13.04041 173.5953 -5.837798
v 12.1695 181.2709 10.4069
v 28.223 185.0755 15.48841
v 8.286006 163.5742 -6.507599
v 28.788 172.9119 1.714805
v -1.378497 204.4073 -1.055403
v -1.378501 205.9907 15.6176
v 4.484201 204.6161 10.5779
v 6.525804 199.8652 -0.4575
v 4.484208 198.559 -5.035901
v -1.378394 200.0045 -8.242103
v -1.378504 202.4433 24.7082
v 7.874398 191.7384 19.3817
v 10.6223 187.108 3.795501
v 5.845907 192.1254 -7.204802
v -1.378492 192.1646 -11.4752
v 4.707796 174.1412 17.0937
v 12.1695 181.2709 10.4069
v 13.04041 173.5953 -5.837798
v 3.193609 171.5381 -12.5413
v -1.906403 172.9056 20.0994
v 1.890298 167.0432 19.6671
v -8.457602 165.493 19.7033
v -8.722502 153.2998 20.907
v 8.286006 163.5742 -6.507599
v 2.132105 140.9493 -12.2109
v 11.2408 151.9297 23.0056
v 23.4447 149.1399 -0.580494
v 28.788 172.9119 1.714805
v 18.1278 170.6065 21.2359
v 28.223 185.0755 15.48841
v -1.906403 172.9056 20.0994
v 7.874398 191.7384 19.3817
v 4.787902 194.6797 4.0334
v -1.378495 181.1785 -0.156301
v -8.457602 165.493 19.7033
v -21.2935 124.9896 7.698093
v -19.48229 148.6221 -16.18851
v -18.46769 130.5618 -13.4759
v -25.3376 151.4885 9.705896
v -29.87599 170.0275 3.781993
v -16.3964 166.8226 13.01819
v -17.05379 173.8787 9.181396
v -34.22858 184.3222 -7.21861
v -18.62879 180.8994 -0.791106
v -18.46769 130.5618 -13.4759
v -19.48229 148.6221 -16.18851
v -8.700291 173.333 -13.7425
v -34.22858 184.3222 -7.21861
v -18.62879 180.8994 -0.791106
v -4.413692 163.4209 -11.1251
v -25.55699 172.2564 -18.04471
v -7.241099 204.6161 10.5779
v -9.282794 199.8652 -0.457404
v -7.241091 198.559 -5.035803
v -10.6315 191.7383 19.3817
v -13.3793 187.108 3.795496
v -8.602792 192.1253 -7.204804
v -18.62879 180.8994 -0.791106
v -17.05379 173.8787 9.181396
v -8.700291 173.333 -13.7425
v -13.8897 172.761 15.74239
v -16.3964 166.8226 13.01819
v -4.413692 163.4209 -11.1251
v -25.3376 151.4885 9.705896
v -25.55699 172.2564 -18.04471
v -19.48229 148.6221 -16.18851
v -29.87599 170.0275 3.781993
v -34.22858 184.3222 -7.21861
v -13.8897 172.761 15.74239
v -7.544796 194.6797 4.033396
v -10.6315 191.7383 19.3817
v -1.378504 202.4433 24.7082
v -1.474702 203.348 22.111
v 4.787902 194.6797 4.0334
vn 0.278798 -0.688996 0.668996
vn -0.549904 -0.833205 -0.0581
vn 0.106003 -0.564317 -0.818724
vn -0.683108 -0.508706 0.524006
vn 0.083602 -0.061002 0.99463
vn 0.843545 0.201887 0.497668
vn 0.843208 0.342203 -0.414604
vn 0.665695 0.523796 0.531496
vn 0.804291 0.305496 -0.509694
vn 0.196199 -0.196899 -0.960592
vn 0.054502 -0.024101 -0.998223
vn -0.630203 -0.580603 -0.515503
vn -0.724383 -0.384391 -0.572287
vn -0.817689 -0.374495 0.437194
vn -0.174298 0.181697 0.967784
vn 0.258803 0.82681 -0.499406
vn 0.377191 0.781682 0.496689
vn -0.168907 0.217909 -0.961242
vn -0.617961 -0.577064 -0.533967
vn -0.410315 -0.782629 0.468117
vn 0.128806 -0.067803 0.989349
vn -0.293586 0.913857 -0.280487
vn 0.440813 0.557317 0.703621
vn -0.546395 0.554596 -0.627595
vn -0.767865 0.034698 -0.639671
vn -0.414304 -0.886309 0.206902
vn 0.335504 -0.485807 0.807111
vn 0.981211 0.0402 -0.188702
vn -0.573503 -0.356002 -0.737805
vn -0.0121 -0.999576 0.0265
vn -0.684676 -0.56528 0.460084
vn -0.720084 0.641086 -0.265495
vn 0.737358 -0.405877 -0.539969
vn 0.723401 0.669701 0.167901
vn 0.936002 0.341201 0.0865
vn 0.497891 -0.704687 -0.505491
vn -0.532804 -0.634705 -0.559705
vn -0.784199 -0.567699 -0.2505
vn -0.041099 0.938985 0.341494
vn 0.116303 0.868522 0.481812
vn -0.929954 0.362582 0.060997
vn -0.775392 0.506895 0.376596
vn 0.991518 0.085601 -0.097802
vn 0.242698 -0.825291 -0.509895
vn -0.873098 -0.442999 -0.2036
vn 0.33821 0.835325 0.433413
vn -0.57702 0.735826 0.354412
vn 0.970575 -0.235594 0.049799
vn 0.369578 0.804553 0.464873
vn 0.879674 -0.471386 0.062998
vn 0.042599 -0.785188 -0.617791
vn 0.304888 0.394884 0.866666
vn -0.87269 0.102499 -0.477395
vn -0.663068 0.681768 0.309085
vn -0.85183 0.191607 -0.487517
vn -0.724819 -0.686117 0.062302
vn -0.113197 -0.0016 0.993571
vn 0.486775 -0.812258 0.321384
vn 0.0998 0.418101 0.902902
vn -0.706583 0.653185 0.272194
vn -0.772418 -0.345508 -0.532912
vn -0.496967 0.856744 -0.137891
vn -0.537405 -0.800108 0.266503
vn -0.290795 0.63489 0.715788
vn 0.65617 0.609672 -0.44468
vn -0.859312 0.330405 -0.390406
vn -0.068798 0.988276 0.136297
vn -0.820969 -0.207892 -0.531781
vn 0.550008 0.758511 0.349505
vn 0.966298 -0.2047 0.1561
vn -0.750233 0.495622 0.437619
vn -0.639305 -0.768906 0.0086
vn 0.444596 -0.840893 -0.308597
vn 0.135695 -0.165294 -0.976865
vn -0.276092 -0.954275 -0.114597
vn 0.68212 0.159105 -0.713721
vn 0.731606 -0.679205 0.058601
vn 0.381586 -0.771972 0.508382
vn -0.576501 -0.739002 0.348601
vn -0.936805 -0.194201 -0.291002
vn -0.999375 0.035199 -0.0032
vn -0.498505 0.565306 -0.657207
vn -0.401911 0.607518 -0.68512
vn 0.423102 0.466602 -0.776703
vn 0.565299 0.649199 -0.508899
vn 0.98451 -0.163502 -0.0633
vn 0.989413 0.124302 0.074901
vn 0.5552 -0.505201 0.660701
vn -0.515105 -0.544805 0.661706
vn -0.731502 0.447201 0.514701
vn -0.677111 0.413807 -0.60851
vn 0.0034 0.141295 -0.989962
vn 0.835247 -0.418673 -0.356477
vn 0.556896 -0.479497 0.678196
vn -0.1313 -0.128399 0.982993
vn -0.380988 0.742176 0.551382
vn -0.356818 0.909845 -0.211811
vn -0.504111 -0.518311 -0.690815
vn 0.198295 -0.750279 -0.630683
vn 0.384792 -0.756586 0.52869
vn -0.062898 0.035999 0.997371
vn -0.614881 0.140096 -0.776077
vn 0.975497 0.0467 -0.214999
vn 0.428585 -0.662276 0.614578
vn 0.339102 -0.903703 -0.261401
vn 0.463584 0.738576 0.489484
vn -0.084999 -0.1744 -0.980999
vn -0.855322 0.202905 -0.476713
vn -0.860427 0.475115 -0.184206
vn 0.173803 -0.440607 -0.880714
vn 0.937675 -0.283492 -0.200994
vn 0.918111 -0.343204 0.198203
vn -0.667213 0.55561 0.496109
vn -0.493972 0.69136 0.52727
vn 0.173601 0.339603 0.924409
vn 0.521484 0.360689 0.773277
vn -0.705192 0.043299 -0.707693
vn 0.403603 -0.530403 -0.745505
vn 0.91593 -0.246508 0.316711
vn -0.793195 0.526796 0.305498
vn -0.0399 0.538795 0.841492
vn -0.662504 -0.305103 -0.684106
vn -0.826224 0.477314 0.299208
vn -0.518331 -0.520232 -0.678742
vn 0.601106 -0.429404 -0.674006
vn -0.865497 -0.0549 0.497897
vn 0.885693 0.362398 0.290199
vn 0.070198 0.518188 0.852381
vn 0.732526 -0.591521 0.336912
vn 0.844079 0.445189 0.298893
vn -0.497498 -0.433299 0.751497
vn -0.262991 -0.903771 -0.337689
vn -0.741171 -0.043999 0.669873
vn 0.135598 0.512696 0.847795
vn 0.998489 -0.021199 0.0507
vn 0.14459 0.855347 0.497469
vn 0.517582 -0.801171 0.300389
vn -0.421097 0.271297 0.865492
vn -0.432003 0.697105 -0.572204
vn -0.370703 0.828105 0.420503
vn 0.744824 0.526817 0.409514
vn 0.985332 0.105404 0.134205
vn -0.729663 -0.318184 -0.60527
vn -0.870117 0.486009 0.081801
vn 0.123298 0.300795 0.945685
vn 0.729723 -0.64772 0.219007
vn 0.144795 -0.645776 -0.749672
vn 0.528998 0.275099 -0.802796
vn 0.740059 0.597467 -0.308783
vn 0.215403 0.551608 -0.805811
vn -0.0078 0.998257 0.058497
vn 0.788701 0.352901 0.503401
vn 0.30001 0.194807 0.933833
vn 0.35159 0.277192 0.894175
vn 0.89452 0.339508 0.290807
vn -0.257615 -0.103806 0.960656
vn -0.262912 0.023101 0.964543
vn 0.753701 0.1225 -0.6457
vn 0.269795 -0.156697 -0.950082
vn -0.046498 -0.912963 0.405384
vn -0.445302 -0.220901 0.867703
vn -0.1613 -0.580399 0.798198
vn 0.469598 0.0749 0.879697
vn 0.35159 0.277192 0.894175
vn 0.950577 0.243694 0.192396
vn 0.1649 -0.863297 -0.476998
vn 0.234611 -0.745935 -0.623329
vn -0.084698 -0.414093 -0.906285
vn -0.767171 -0.358986 -0.53158
vn -0.946084 -0.272196 0.175597
vn 0.879686 -0.0186 -0.475192
vn -0.950766 -0.302889 -0.065598
vn -0.595885 -0.168096 0.78528
vn 0.99247 0.111597 -0.050498
vn -0.36591 -0.36161 -0.857524
vn 0.220908 -0.237108 -0.946033
vn 0.555698 -0.1587 0.816097
vn 0.645119 -0.124804 -0.753821
vn -0.489697 -0.306898 0.816095
vn -0.976859 -0.213791 -0.0064
vn -0.997686 -0.032899 -0.059499
vn 0.625514 -0.175504 0.760217
vn 0.970746 0.055903 0.233511
vn 0.918719 0.150503 0.365108
vn -0.934219 0.066702 -0.350407
vn -0.679818 0.193405 -0.707419
vn -0.680098 0.1134 -0.724298
vn 0.56219 0.199496 -0.802586
vn 0.906547 0.190489 -0.376678
vn 0.37791 0.40261 -0.83372
vn -0.670592 -0.168698 0.722391
vn -0.968656 -0.128994 0.21229
vn -0.987965 -0.152594 0.025299
vn -0.70492 -0.0154 0.70912
vn 0.341312 -0.138205 0.929734
vn 0.779993 -0.046 0.624095
vn 0.979492 -0.0565 -0.193398
vn -0.954954 -0.073196 -0.287586
vn -0.513023 -0.264412 -0.816636
vn -0.566106 -0.194702 -0.801009
vn 0.467499 -0.2272 -0.854298
vn 0.932874 0.003 -0.36019
vn 0.482701 -0.1165 -0.868002
vn -0.481987 -0.36729 0.795479
vn -0.915699 -0.2395 0.3227
vn -0.977121 -0.160803 0.139203
vn 0.614994 0.725893 -0.307997
vn 0.169503 0.98552 -0.0043
vn 0.325407 0.94392 -0.055901
vn 0.885489 -0.128999 0.446395
vn 0.973531 0.120504 -0.194206
vn 0.984012 0.001 -0.178102
vn -0.866986 -0.069999 -0.493392
vn -0.755471 0.130395 -0.642076
vn -0.592178 -0.414084 -0.691274
vn 0.601911 0.081301 -0.794414
vn 0.47999 0.123897 -0.868481
vn -0.478787 0.624082 0.617482
vn -0.302111 0.752726 0.584921
vn -0.951865 0.138995 0.27319
vn 0.5336 0.4073 0.7412
vn 0.710409 0.629508 0.314704
vn -0.995843 0.089704 0.015801
vn -0.721766 0.287787 -0.62947
vn -0.997829 0.063302 -0.018201
vn 0.345105 0.285104 -0.894214
vn 0.229905 -0.47501 -0.849417
vn -0.875907 0.271702 0.398703
vn -0.5006 0.4368 0.747399
vn 0.963641 0.264311 -0.039201
vn 0.535308 0.69411 0.481307
vn 0.080599 -0.120098 0.989485
vn 0.315605 0.948317 -0.033
vn -0.890172 0.131996 0.436086
vn -0.079898 -0.933677 0.349091
vn 0.198408 0.959641 -0.199308
vn 0.315605 0.948317 -0.033
vn 0.476908 0.870915 -0.118602
vn -0.124306 0.988244 0.089004
vn -0.076198 0.985973 0.148496
vn 0.019101 -0.999624 0.0197
vn 0.0288 -0.999114 0.0307
vn 0.054301 -0.99661 0.061801
vn 0.003 -0.999979 0.0058
vn 0.0004 -0.999978 0.0067
vn 0.0045 -0.999907 0.0129
vn 0.0078 -0.999917 0.0103
vn 0.080599 -0.120098 0.989485
vn -0.478811 0.594914 -0.645615
vn -0.938381 0.342893 0.043199
vn -0.743573 0.253891 0.618578
vn -0.738388 0.183297 0.648989
vn -0.941281 0.274194 -0.196996
vn -0.403612 0.057402 -0.913128
vn 0.0519 -0.1281 0.990402
vn -0.693808 0.045701 0.718708
vn -0.743573 0.253891 0.618578
vn -0.982301 0.1233 -0.141
vn 0.522762 -0.424369 -0.739345
vn 0.903896 -0.338898 -0.260999
vn 0.854163 -0.118695 0.506278
vn -0.750911 -0.078601 -0.65571
vn 0.335598 -0.0714 0.939296
vn 0.966737 -0.218408 0.133105
vn -0.971605 0.03 -0.234701
vn 0.566295 -0.324597 -0.757593
vn 0.0437 -0.286101 -0.957203
vn -0.693881 -0.185895 0.695681
vn -0.469601 -0.1748 -0.865402
vn 0.36231 -0.485014 0.795923
vn 0.979034 0.097204 0.179007
vn 0.971073 -0.127496 0.201895
vn -0.724191 -0.466794 0.507593
vn -0.986838 -0.060403 0.150006
vn -0.992335 -0.123405 -0.0066
vn 0.958626 0.273108 -0.080302
vn 0.780591 0.403095 -0.477694
vn 0.794318 0.405109 -0.45271
vn -0.439 0.2405 -0.865701
vn -0.83006 0.19499 -0.522475
vn -0.2681 0.593201 -0.759102
vn 0.531003 -0.305702 0.790305
vn 0.97333 -0.040501 0.225807
vn 0.913549 -0.079804 0.398822
vn 0.539609 -0.152903 0.827915
vn -0.86869 -0.319797 0.378296
vn -0.49098 -0.451782 0.74487
vn -0.894896 -0.1027 -0.434298
vn 0.990799 0.1238 -0.0547
vn 0.740687 0.122498 -0.660588
vn 0.70507 0.055398 -0.70697
vn -0.238694 -0.0062 -0.971075
vn -0.827009 0.0096 -0.562107
vn -0.270198 0.100999 -0.957493
vn 0.442379 -0.495577 0.747465
vn 0.952365 -0.079597 0.29439
vn 0.889623 -0.124803 0.439312
vn -0.659276 0.712674 -0.239691
vn -0.469528 0.874052 0.124807
vn -0.33701 0.914928 0.222107
vn -0.905595 -0.393698 0.157799
vn -0.913292 -0.0469 -0.404597
vn -0.895736 0.106604 -0.431617
vn 0.95466 0.0112 -0.297488
vn 0.795278 -0.062798 -0.602983
vn 0.827798 0.398899 -0.394499
vn -0.434707 0.255004 -0.863715
vn -0.312999 0.3602 -0.878799
vn 0.30269 0.62428 0.720176
vn 0.848735 0.139006 0.510222
vn 0.140604 0.75292 0.642917
vn -0.767508 0.629707 0.120001
vn -0.759506 0.248402 0.601205
vn 0.957821 0.089702 0.273006
vn 0.860134 0.287511 -0.421316
vn 0.968537 0.063203 0.240709
vn 0.087299 -0.253497 -0.963389
vn -0.101796 0.284791 -0.953169
vn 0.742918 0.271807 0.611715
vn 0.312999 0.353299 0.881596
vn -0.920595 0.264398 -0.287399
vn -0.641527 0.694329 0.326114
vn -0.261095 -0.387592 0.884082
vn -0.135898 0.807291 0.574294
vn 0.779034 -0.299313 0.550925
vn 0.564571 0.542372 0.622168
vn -0.555929 0.818643 0.144107
vn -0.89023 0.454515 0.030101
vn -0.135898 0.807291 0.574294
vn -0.131099 0.895889 0.424495
vn -0.0732 0.921506 0.381403
vn -0.0237 -0.999615 0.0144
vn -0.068599 -0.996583 0.045999
vn -0.0359 -0.999102 0.0225
vn -0.0045 -0.999977 0.0051
vn -0.0023 -0.999975 0.0067
vn -0.0078 -0.999901 0.0117
vn -0.0104 -0.999912 0.0082
vn -0.261095 -0.387592 0.884082
vn 0.756622 -0.0066 0.653819
vn 0.874399 0.2457 -0.418399
vn 0.850311 -0.0336 -0.525207
vn 0.057999 -0.072399 0.995688
vn -0.299613 -0.137906 0.944041
vn -0.334086 -0.198692 0.921362
vn -0.339792 -0.077798 0.937277
vn -0.151896 0.33339 0.930472
vn -0.232011 0.575726 0.784035
vn -0.131697 0.233594 0.963374
vn -0.084202 0.99073 0.106603
vn -0.238909 0.970635 0.028101
vn 0.874399 0.2457 -0.418399
vn 0.25029 0.274089 -0.928563
vn 0.299793 0.089698 -0.949778
vn 0.850311 -0.0336 -0.525207
vn 0.266098 0.582695 -0.767893
vn -0.238909 0.970635 0.028101
vn -0.084202 0.99073 0.106603
vn 0.415189 -0.0105 -0.909675
vn 0.407517 0.211209 -0.888437
vn 0 0.936078 -0.351792
vn -0 0.992158 0.124995
vn 0.710051 0.698452 0.089394
vn 0.792285 0.52589 -0.309394
vn 0.572898 0.536898 -0.619297
vn 0 0.654317 -0.75622
vn -0 0.875184 0.483791
vn 0.873529 0.158005 0.460415
vn 0.956033 0.28461 -0.070702
vn 0.772096 0.288598 -0.566197
vn 0.094 0.292299 -0.951696
vn 0.546026 -0.080004 0.83394
vn 0.966278 0.114998 0.230395
vn 0.778772 0.136495 -0.612278
vn 0.333189 -0.045398 -0.941767
vn 0.284892 -0.027199 0.958174
vn 0.129898 0.072299 0.988888
vn -0.341881 0.013399 0.939648
vn -0.341197 0.099699 0.93469
vn 0.667203 -0.129101 -0.733603
vn 0.322509 -0.021401 -0.946325
vn 0.854462 -0.255789 0.45218
vn 0.851234 -0.23661 0.468419
vn 0.845349 -0.309218 0.435626
vn 0.84032 -0.344908 0.418211
vn 0.818912 -0.413106 0.398406
vn -0.769901 0.514901 0.377
vn -0.976906 -0.126501 0.172201
vn -0.961465 -0.137295 0.238191
vn -0.082902 0.796213 0.59931
vn -0.284597 0.644692 0.709491
vn -0.991235 -0.016301 0.131104
vn -0.368181 -0.066797 -0.927352
vn -0.568509 0.217104 -0.793513
vn -0.659475 -0.071997 0.748271
vn -0.488816 0.329111 0.807926
vn -0.523087 0.228494 0.821079
vn -0.338097 0.574395 0.745494
vn -0.025001 0.991445 0.128106
vn 0.144904 0.97513 0.167705
vn -0.568509 0.217104 -0.793513
vn -0.368181 -0.066797 -0.927352
vn 0.276804 0.582809 -0.764012
vn -0.025001 0.991445 0.128106
vn 0.144904 0.97513 0.167705
vn 0.263014 -0.009 -0.96475
vn 0.253599 0.209299 -0.944395
vn -0.710052 0.698452 0.089394
vn -0.792285 0.52589 -0.309394
vn -0.572897 0.536898 -0.619298
vn -0.903487 0.357795 0.235996
vn -0.875066 0.426084 -0.229591
vn -0.767876 0.275391 -0.578382
vn -0.770325 0.61482 -0.169106
vn -0.909448 0.138492 0.392077
vn -0.365801 0.233201 -0.901003
vn -0.825013 0.054201 0.562509
vn -0.736187 0.061399 0.673988
vn -0.058197 -0.118395 -0.99126
vn -0.939669 -0.277391 -0.200194
vn -0.920933 -0.330512 -0.206508
vn -0.948026 -0.258307 -0.185805
vn -0.905084 -0.365994 -0.216497
vn -0.874547 -0.433524 -0.217312
vn 0.665867 0.192291 0.720865
vn 0.839557 -0.342782 0.421479
vn 0.890926 -0.444313 0.094003
vn 0.0093 -0.998926 0.045401
vn 0.035199 -0.943364 -0.329887
vn -0.961465 -0.137295 0.238191
vt 0.8557 0.0109
vt 0.9013 0.0252
vt 0.9469 0.032
vt 0.8101 0.0486
vt 0.7645 0.0554
vt 0.8101 0.0621
vt 0.9013 0.1093
vt 0.8101 0.1093
vt 0.9013 0.0621
vt 0.9469 0.1026
vt 0.9469 0.0554
vt 0.9013 0.0958
vt 0.9013 0.0486
vt 0.8101 0.0958
vt 0.7645 0.1026
vt 0.9177 0.1718
vt 0.7937 0.1718
vt 0.9798 0.1498
vt 0.9177 0.134
vt 0.7937 0.134
vt 0.7316 0.1498
vt 0.9095 0.1968
vt 0.8019 0.1968
vt 0.9633 0.1826
vt 0.9095 0.1573
vt 0.8019 0.1573
vt 0.748 0.1826
vt 0.9013 0.0368
vt 0.6573 0.0211
vt 0.6447 0.0188
vt 0.5475 0.012
vt 0.5475 0.0146
vt 0.6814 0.2767
vt 0.6127 0.2803
vt 0.6169 0.2234
vt 0.7188 0.2172
vt 0.6127 0.2792
vt 0.6169 0.2266
vt 0.5536 0.2776
vt 0.5278 0.2328
vt 0.5333 0.2783
vt 0.4977 0.2367
vt 0.6269 0.1445
vt 0.6654 0.1388
vt 0.6037 0.1351
vt 0.5518 0.1469
vt 0.5404 0.1418
vt 0.6492 0.1237
vt 0.5406 0.1244
vt 0.6553 0.0922
vt 0.6686 0.0695
vt 0.5415 0.0893
vt 0.5935 0.0687
vt 0.4892 0.0847
vt 0.5069 0.0816
vt 0.5082 0.075
vt 0.4904 0.0781
vt 0.6581 0.0608
vt 0.5511 0.0585
vt 0.5509 0.0691
vt 0.5498 0.1075
vt 0.5132 0.1142
vt 0.551 0.094
vt 0.5144 0.1007
vt 0.6611 0.3068
vt 0.4961 0.293
vt 0.4961 0.293
vt 0.6611 0.3068
vt 0.4961 0.2576
vt 0.7004 0.2637
vt 0.4961 0.2576
vt 0.7004 0.2637
vt 0.7832 0.2769
vt 0.7647 0.3725
vt 0.8557 0.0109
vt 0.9469 0.032
vt 0.9013 0.0252
vt 0.8101 0.0486
vt 0.7645 0.0554
vt 0.8101 0.0621
vt 0.8101 0.1093
vt 0.9013 0.1093
vt 0.9013 0.0621
vt 0.9469 0.1026
vt 0.9469 0.0554
vt 0.9013 0.0958
vt 0.9013 0.0486
vt 0.8101 0.0958
vt 0.7645 0.1026
vt 0.7937 0.1718
vt 0.9177 0.1718
vt 0.9798 0.1498
vt 0.9177 0.134
vt 0.7937 0.134
vt 0.7316 0.1498
vt 0.8019 0.1968
vt 0.9095 0.1968
vt 0.9633 0.1826
vt 0.9095 0.1573
vt 0.8019 0.1573
vt 0.748 0.1826
vt 0.9013 0.0368
vt 0.6573 0.0211
vt 0.5475 0.012
vt 0.6447 0.0188
vt 0.5475 0.0146
vt 0.6814 0.2767
vt 0.6169 0.2234
vt 0.6127 0.2803
vt 0.7188 0.2172
vt 0.6127 0.2792
vt 0.6169 0.2266
vt 0.5278 0.2328
vt 0.5536 0.2776
vt 0.4977 0.2367
vt 0.5333 0.2783
vt 0.6269 0.1445
vt 0.6654 0.1388
vt 0.6037 0.1351
vt 0.5518 0.1469
vt 0.5404 0.1418
vt 0.6492 0.1237
vt 0.5406 0.1244
vt 0.6553 0.0922
vt 0.6686 0.0695
vt 0.5415 0.0893
vt 0.5935 0.0687
vt 0.4892 0.0847
vt 0.5082 0.075
vt 0.5069 0.0816
vt 0.4904 0.0781
vt 0.6581 0.0608
vt 0.5511 0.0585
vt 0.5509 0.0691
vt 0.5498 0.1075
vt 0.5132 0.1142
vt 0.551 0.094
vt 0.5144 0.1007
vt 0.6611 0.3068
vt 0.4961 0.293
vt 0.4961 0.293
vt 0.6611 0.3068
vt 0.7004 0.2637
vt 0.4961 0.2576
vt 0.4961 0.2576
vt 0.7004 0.2637
vt 0.7832 0.2769
vt 0.7647 0.3725
vt 0.1556 0.717
vt 0.0103 0.6949
vt 0.0103 0.7221
vt 0.2196 0.6956
vt 0.1514 0.7034
vt 0.2018 0.6376
vt 0.2814 0.6529
vt 0.0103 0.7273
vt 0.0103 0.6354
vt 0.2208 0.6359
vt 0.0103 0.6244
vt 0.0078 0.5681
vt 0.0619 0.5875
vt 0.0103 0.5882
vt 0.2732 0.4846
vt 0.242 0.6752
vt 0.3243 0.5941
vt 0.0103 0.5711
vt 0.0103 0.6008
vt 0.1041 0.5766
vt 0.081 0.5339
vt 0.0513 0.4696
vt 0.3411 0.5079
vt 0.0909 0.3835
vt 0.1201 0.4204
vt 0.3509 0.3816
vt 0.1948 0.4062
vt 0.2125 0.5391
vt 0.2592 0.4231
vt 0.3233 0.4092
vt 0.161 0.3066
vt 0.1047 0.3628
vt 0.1257 0.3038
vt 0.3043 0.3128
vt 0.4034 0.2945
vt 0.3341 0.3511
vt 0.1629 0.2966
vt 0.2061 0.3567
vt 0.2205 0.3181
vt 0.3212 0.3601
vt 0.392 0.3036
vt 0.3504 0.3206
vt 0.1618 0.2655
vt 0.1337 0.2563
vt 0.1663 0.1951
vt 0.2171 0.1391
vt 0.3221 0.2736
vt 0.3284 0.1432
vt 0.4004 0.2072
vt 0.1577 0.265
vt 0.2284 0.2591
vt 0.2338 0.202
vt 0.3523 0.2045
vt 0.4022 0.2728
vt 0.3523 0.2615
vt 0.1993 0.1314
vt 0.2033 0.1091
vt 0.2121 0.0987
vt 0.388 0.1205
vt 0.3284 0.1432
vt 0.377 0.1332
vt 0.377 0.1332
vt 0.3936 0.0855
vt 0.388 0.1205
vt 0.2537 0.0806
vt 0.2423 0.1374
vt 0.2598 0.1131
vt 0.3534 0.1408
vt 0.3443 0.1152
vt 0.2471 0.0037
vt 0.2514 0.0423
vt 0.2005 0.0024
vt 0.345 0.0819
vt 0.3608 0.043
vt 0.1995 0.0025
vt 0.2326 0.0005
vt 0.2008 0.0692
vt 0.4091 0.0027
vt 0.352 0.077
vt 0.2198 0.0765
vt 0.2623 0.0795
vt 0.4412 0.0024
vt 0.3649 0.0039
vt 0.1401 0.3564
vt 0.1271 0.4431
vt 0.1201 0.4204
vt 0.0909 0.3835
vt 0.2592 0.4231
vt 0.2617 0.4488
vt 0.3509 0.3816
vt 0.2171 0.1391
vt 0.1993 0.1314
vt 0.4091 0.0027
vt 0.1995 0.0025
vt 0.2326 0.0005
vt 0.2005 0.0024
vt 0.4412 0.0024
vt 0.3649 0.0039
vt 0.2471 0.0037
vt 0.2893 0.3632
vt 0.1556 0.717
vt 0.2196 0.6956
vt 0.2018 0.6376
vt 0.1514 0.7034
vt 0.2814 0.6529
vt 0.2208 0.6359
vt 0.0619 0.5875
vt 0.2732 0.4846
vt 0.242 0.6752
vt 0.3243 0.5941
vt 0.1041 0.5766
vt 0.081 0.5339
vt 0.0513 0.4696
vt 0.3411 0.5079
vt 0.1201 0.4204
vt 0.0909 0.3835
vt 0.3509 0.3816
vt 0.1948 0.4062
vt 0.2125 0.5391
vt 0.2592 0.4231
vt 0.3233 0.4092
vt 0.161 0.3066
vt 0.1257 0.3038
vt 0.1047 0.3628
vt 0.3043 0.3128
vt 0.3341 0.3511
vt 0.4034 0.2945
vt 0.1629 0.2966
vt 0.2205 0.3181
vt 0.2061 0.3567
vt 0.3212 0.3601
vt 0.392 0.3036
vt 0.3504 0.3206
vt 0.1618 0.2655
vt 0.1663 0.1951
vt 0.1337 0.2563
vt 0.2171 0.1391
vt 0.3284 0.1432
vt 0.3221 0.2736
vt 0.4004 0.2072
vt 0.1577 0.265
vt 0.2338 0.202
vt 0.2284 0.2591
vt 0.3523 0.2045
vt 0.4022 0.2728
vt 0.3523 0.2615
vt 0.1993 0.1314
vt 0.2121 0.0987
vt 0.2033 0.1091
vt 0.388 0.1205
vt 0.377 0.1332
vt 0.3284 0.1432
vt 0.377 0.1332
vt 0.388 0.1205
vt 0.3936 0.0855
vt 0.2537 0.0806
vt 0.2598 0.1131
vt 0.2423 0.1374
vt 0.3534 0.1408
vt 0.3443 0.1152
vt 0.2471 0.0037
vt 0.2005 0.0024
vt 0.2514 0.0423
vt 0.3608 0.043
vt 0.345 0.0819
vt 0.1995 0.0025
vt 0.2326 0.0005
vt 0.2008 0.0692
vt 0.352 0.077
vt 0.4091 0.0027
vt 0.2198 0.0765
vt 0.2623 0.0795
vt 0.4412 0.0024
vt 0.3649 0.0039
vt 0.1401 0.3564
vt 0.1271 0.4431
vt 0.0909 0.3835
vt 0.1201 0.4204
vt 0.2592 0.4231
vt 0.3509 0.3816
vt 0.2617 0.4488
vt 0.1993 0.1314
vt 0.2171 0.1391
vt 0.4091 0.0027
vt 0.2326 0.0005
vt 0.1995 0.0025
vt 0.2005 0.0024
vt 0.4412 0.0024
vt 0.3649 0.0039
vt 0.2471 0.0037
vt 0.2893 0.3632
vt 0.6591 0.7241
vt 0.7896 0.7222
vt 0.7963 0.8238
vt 0.6964 0.8502
vt 0.4657 0.7204
vt 0.4657 0.8061
vt 0.4657 0.8516
vt 0.7459 0.9288
vt 0.6202 0.9529
vt 0.6025 0.8942
vt 0.8292 0.9933
vt 0.6721 0.9901
vt 0.1948 0.7258
vt 0.4162 0.7247
vt 0.4162 0.795
vt 0.1688 0.837
vt 0.2686 0.9506
vt 0.1937 0.9922
vt 0.0405 0.9975
vt 0.3435 0.8799
vt 0.1036 0.942
vt 0.7587 0.7122
vt 0.5269 0.6878
vt 0.6014 0.6661
vt 0.7488 0.6729
vt 0.8211 0.6693
vt 0.877 0.6947
vt 0.425 0.6562
vt 0.5001 0.6201
vt 0.7587 0.615
vt 0.8472 0.6318
vt 0.9419 0.6571
vt 0.6469 0.559
vt 0.7518 0.5983
vt 0.8971 0.5545
vt 0.9947 0.5517
vt 0.5059 0.5471
vt 0.5895 0.5003
vt 0.4817 0.4897
vt 0.5506 0.4577
vt 0.9152 0.4881
vt 0.946 0.4011
vt 0.6124 0.4329
vt 0.8557 0.4245
vt 0.8598 0.5107
vt 0.6723 0.5031
vt 0.76 0.5578
vt 0.8171 0.4675
vt 0.8278 0.5026
vt 0.7042 0.5127
vt 0.6586 0.469
vt 0.836 0.4427
vt 0.6591 0.7241
vt 0.7963 0.8238
vt 0.7896 0.7222
vt 0.6964 0.8502
vt 0.7459 0.9288
vt 0.6025 0.8942
vt 0.6202 0.9529
vt 0.8292 0.9933
vt 0.6721 0.9901
vt 0.1948 0.7258
vt 0.1688 0.837
vt 0.2686 0.9506
vt 0.0405 0.9975
vt 0.1937 0.9922
vt 0.3435 0.8799
vt 0.1036 0.942
vt 0.6014 0.6661
vt 0.7488 0.6729
vt 0.8211 0.6693
vt 0.5001 0.6201
vt 0.7587 0.615
vt 0.8472 0.6318
vt 0.7518 0.5983
vt 0.6469 0.559
vt 0.8971 0.5545
vt 0.5059 0.5471
vt 0.5895 0.5003
vt 0.9152 0.4881
vt 0.6124 0.4329
vt 0.8598 0.5107
vt 0.8557 0.4245
vt 0.6723 0.5031
vt 0.76 0.5578
vt 0.8171 0.4675
vt 0.7042 0.5127
vt 0.8278 0.5026
vt 0.8171 0.4675
vt 0.836 0.4427
vt 0.8278 0.5026
f 1/1/1 3/3/3 2/2/2
f 1/1/1 2/2/2 4/4/4
f 1/1/1 4/4/4 5/5/5
f 6/6/6 8/8/8 7/7/7
f 6/6/6 7/7/7 9/9/9
f 9/9/9 7/7/7 10/10/10
f 9/9/9 10/10/10 11/11/11
f 11/11/11 10/10/10 12/12/12
f 11/11/11 12/12/12 13/13/13
f 13/13/13 12/12/12 14/14/14
f 13/13/13 14/14/14 4/4/4
f 4/4/4 14/14/14 15/15/15
f 4/4/4 15/15/15 5/5/5
f 5/5/5 15/15/15 8/8/8
f 5/5/5 8/8/8 6/6/6
f 8/8/8 17/17/17 16/16/16
f 8/8/8 16/16/16 7/7/7
f 7/7/7 16/16/16 18/18/18
f 7/7/7 18/18/18 10/10/10
f 10/10/10 18/18/18 19/19/19
f 10/10/10 19/19/19 12/12/12
f 12/12/12 19/19/19 20/20/20
f 12/12/12 20/20/20 14/14/14
f 14/14/14 20/20/20 21/21/21
f 14/14/14 21/21/21 15/15/15
f 15/15/15 21/21/21 17/17/17
f 15/15/15 17/17/17 8/8/8
f 17/17/17 23/23/23 22/22/22
f 17/17/17 22/22/22 16/16/16
f 16/16/16 22/22/22 24/24/24
f 16/16/16 24/24/24 18/18/18
f 18/18/18 24/24/24 25/25/25
f 18/18/18 25/25/25 19/19/19
f 19/19/19 25/25/25 26/26/26
f 19/19/19 26/26/26 20/20/20
f 20/20/20 26/26/26 27/27/27
f 20/20/20 27/27/27 21/21/21
f 21/21/21 27/27/27 23/23/23
f 21/21/21 23/23/23 17/17/17
f 28/28/28 1/1/1 6/6/6
f 3/3/3 1/1/1 28/28/28
f 1/1/1 5/5/5 6/6/6
f 29/29/29 31/31/31 30/30/30
f 31/31/31 29/29/29 32/32/32
f 33/33/33 35/35/35 34/34/34
f 35/35/35 33/33/33 36/36/36
f 37/37/37 36/36/36 33/33/33
f 36/36/36 37/37/37 38/38/38
f 34/34/34 40/40/40 39/39/39
f 40/40/40 34/34/34 35/35/35
f 39/39/39 42/42/42 41/41/41
f 42/42/42 39/39/39 40/40/40
f 41/41/41 38/38/38 37/37/37
f 38/38/38 41/41/41 42/42/42
f 43/43/43 36/36/36 44/44/44
f 36/36/36 43/43/43 35/35/35
f 38/38/38 44/44/44 36/36/36
f 44/44/44 38/38/38 45/45/45
f 35/35/35 46/46/46 40/40/40
f 46/46/46 35/35/35 43/43/43
f 40/40/40 47/47/47 42/42/42
f 47/47/47 40/40/40 46/46/46
f 42/42/42 45/45/45 38/38/38
f 45/45/45 42/42/42 47/47/47
f 44/44/44 48/48/48 43/43/43
f 49/49/49 43/43/43 48/48/48
f 43/43/43 49/49/49 46/46/46
f 47/47/47 46/46/46 49/49/49
f 44/44/44 50/50/50 48/48/48
f 50/50/50 44/44/44 51/51/51
f 48/48/48 52/52/52 49/49/49
f 52/52/52 48/48/48 50/50/50
f 45/45/45 51/51/51 44/44/44
f 51/51/51 45/45/45 53/53/53
f 54/54/54 56/56/56 55/55/55
f 56/56/56 54/54/54 57/57/57
f 51/51/51 58/58/58 50/50/50
f 50/50/50 59/59/59 52/52/52
f 59/59/59 50/50/50 58/58/58
f 60/60/60 52/52/52 59/59/59
f 51/51/51 30/30/30 58/58/58
f 30/30/30 51/51/51 29/29/29
f 58/58/58 31/31/31 59/59/59
f 31/31/31 58/58/58 30/30/30
f 53/53/53 29/29/29 51/51/51
f 29/29/29 53/53/53 32/32/32
f 59/59/59 32/32/32 60/60/60
f 32/32/32 59/59/59 31/31/31
f 60/60/60 32/32/32 53/53/53
f 47/47/47 61/61/61 45/45/45
f 61/61/61 47/47/47 62/62/62
f 45/45/45 63/63/63 53/53/53
f 63/63/63 45/45/45 61/61/61
f 53/53/53 64/64/64 60/60/60
f 64/64/64 53/53/53 63/63/63
f 62/62/62 55/55/55 61/61/61
f 55/55/55 62/62/62 54/54/54
f 61/61/61 56/56/56 63/63/63
f 56/56/56 61/61/61 55/55/55
f 63/63/63 57/57/57 64/64/64
f 57/57/57 63/63/63 56/56/56
f 64/64/64 54/54/54 62/62/62
f 54/54/54 64/64/64 57/57/57
f 52/52/52 60/60/60 64/64/64
f 52/52/52 64/64/64 49/49/49
f 49/49/49 64/64/64 47/47/47
f 64/64/64 62/62/62 47/47/47
f 65/65/65 67/67/67 66/66/66
f 65/65/65 66/66/66 68/68/68
f 65/65/65 70/70/70 69/69/69
f 65/65/65 69/69/69 67/67/67
f 67/67/67 69/69/69 71/71/71
f 67/67/67 71/71/71 66/66/66
f 66/66/66 71/71/71 72/72/72
f 66/66/66 72/72/72 68/68/68
f 70/70/70 73/73/73 72/72/72
f 72/72/72 73/73/73 68/68/68
f 65/65/65 73/73/73 70/70/70
f 68/68/68 74/74/74 65/65/65
f 73/73/73 65/65/65 74/74/74
f 73/73/73 74/74/74 68/68/68
f 13/13/13 3/3/3 11/11/11
f 3/3/3 13/13/13 2/2/2
f 4/4/4 2/2/2 13/13/13
f 6/6/6 9/9/9 28/28/28
f 11/11/11 28/28/28 9/9/9
f 28/28/28 11/11/11 3/3/3
f 75/75/75 77/77/77 76/76/76
f 75/75/75 78/78/78 77/77/77
f 75/75/75 79/79/79 78/78/78
f 80/80/80 82/82/82 81/81/81
f 80/80/80 83/83/83 82/82/82
f 83/83/83 84/84/84 82/82/82
f 83/83/83 85/85/85 84/84/84
f 85/85/85 86/86/86 84/84/84
f 85/85/85 87/87/87 86/86/86
f 87/87/87 88/88/88 86/86/86
f 87/87/87 78/78/78 88/88/88
f 78/78/78 89/89/89 88/88/88
f 78/78/78 79/79/79 89/89/89
f 79/79/79 81/81/81 89/89/89
f 79/79/79 80/80/80 81/81/81
f 81/81/81 91/91/91 90/90/90
f 81/81/81 82/82/82 91/91/91
f 82/82/82 92/92/92 91/91/91
f 82/82/82 84/84/84 92/92/92
f 84/84/84 93/93/93 92/92/92
f 84/84/84 86/86/86 93/93/93
f 86/86/86 94/94/94 93/93/93
f 86/86/86 88/88/88 94/94/94
f 88/88/88 95/95/95 94/94/94
f 88/88/88 89/89/89 95/95/95
f 89/89/89 90/90/90 95/95/95
f 89/89/89 81/81/81 90/90/90
f 90/90/90 97/97/97 96/96/96
f 90/90/90 91/91/91 97/97/97
f 91/91/91 98/98/98 97/97/97
f 91/91/91 92/92/92 98/98/98
f 92/92/92 99/99/99 98/98/98
f 92/92/92 93/93/93 99/99/99
f 93/93/93 100/100/100 99/99/99
f 93/93/93 94/94/94 100/100/100
f 94/94/94 101/101/101 100/100/100
f 94/94/94 95/95/95 101/101/101
f 95/95/95 96/96/96 101/101/101
f 95/95/95 90/90/90 96/96/96
f 102/102/102 80/80/80 75/75/75
f 76/76/76 102/102/102 75/75/75
f 75/75/75 80/80/80 79/79/79
f 103/103/103 105/105/105 104/104/104
f 104/104/104 106/106/106 103/103/103
f 107/107/107 109/109/109 108/108/108
f 108/108/108 110/110/110 107/107/107
f 111/111/111 107/107/107 110/110/110
f 110/110/110 112/112/112 111/111/111
f 109/109/109 114/114/114 113/113/113
f 113/113/113 108/108/108 109/109/109
f 114/114/114 116/116/116 115/115/115
f 115/115/115 113/113/113 114/114/114
f 116/116/116 111/111/111 112/112/112
f 112/112/112 115/115/115 116/116/116
f 117/117/117 118/118/118 110/110/110
f 110/110/110 108/108/108 117/117/117
f 112/112/112 110/110/110 118/118/118
f 118/118/118 119/119/119 112/112/112
f 108/108/108 113/113/113 120/120/120
f 120/120/120 117/117/117 108/108/108
f 113/113/113 115/115/115 121/121/121
f 121/121/121 120/120/120 113/113/113
f 115/115/115 112/112/112 119/119/119
f 119/119/119 121/121/121 115/115/115
f 118/118/118 117/117/117 122/122/122
f 123/123/123 122/122/122 117/117/117
f 117/117/117 120/120/120 123/123/123
f 121/121/121 123/123/123 120/120/120
f 118/118/118 122/122/122 124/124/124
f 124/124/124 125/125/125 118/118/118
f 122/122/122 123/123/123 126/126/126
f 126/126/126 124/124/124 122/122/122
f 119/119/119 118/118/118 125/125/125
f 125/125/125 127/127/127 119/119/119
f 128/128/128 130/130/130 129/129/129
f 129/129/129 131/131/131 128/128/128
f 125/125/125 124/124/124 132/132/132
f 124/124/124 126/126/126 133/133/133
f 133/133/133 132/132/132 124/124/124
f 134/134/134 133/133/133 126/126/126
f 125/125/125 132/132/132 105/105/105
f 105/105/105 103/103/103 125/125/125
f 132/132/132 133/133/133 104/104/104
f 104/104/104 105/105/105 132/132/132
f 127/127/127 125/125/125 103/103/103
f 103/103/103 106/106/106 127/127/127
f 133/133/133 134/134/134 106/106/106
f 106/106/106 104/104/104 133/133/133
f 134/134/134 127/127/127 106/106/106
f 121/121/121 119/119/119 135/135/135
f 135/135/135 136/136/136 121/121/121
f 119/119/119 127/127/127 137/137/137
f 137/137/137 135/135/135 119/119/119
f 127/127/127 134/134/134 138/138/138
f 138/138/138 137/137/137 127/127/127
f 136/136/136 135/135/135 130/130/130
f 130/130/130 128/128/128 136/136/136
f 135/135/135 137/137/137 129/129/129
f 129/129/129 130/130/130 135/135/135
f 137/137/137 138/138/138 131/131/131
f 131/131/131 129/129/129 137/137/137
f 138/138/138 136/136/136 128/128/128
f 128/128/128 131/131/131 138/138/138
f 126/126/126 138/138/138 134/134/134
f 126/126/126 123/123/123 138/138/138
f 123/123/123 121/121/121 138/138/138
f 138/138/138 121/121/121 136/136/136
f 139/139/139 141/141/141 140/140/140
f 139/139/139 142/142/142 141/141/141
f 139/139/139 144/144/144 143/143/143
f 139/139/139 140/140/140 144/144/144
f 140/140/140 145/145/145 144/144/144
f 140/140/140 141/141/141 145/145/145
f 141/141/141 146/146/146 145/145/145
f 141/141/141 142/142/142 146/146/146
f 143/143/143 146/146/146 147/147/147
f 146/146/146 142/142/142 147/147/147
f 139/139/139 143/143/143 147/147/147
f 142/142/142 139/139/139 148/148/148
f 147/147/147 148/148/148 139/139/139
f 147/147/147 142/142/142 148/148/148
f 87/87/87 85/85/85 76/76/76
f 76/76/76 77/77/77 87/87/87
f 78/78/78 87/87/87 77/77/77
f 80/80/80 102/102/102 83/83/83
f 85/85/85 83/83/83 102/102/102
f 102/102/102 76/76/76 85/85/85
f 149/149/149 151/151/151 150/150/150
f 152/152/152 154/154/154 153/153/153
f 154/154/154 152/152/152 155/155/155
f 153/153/153 157/157/157 156/156/156
f 157/157/157 153/153/153 154/154/154
f 150/150/150 158/158/158 149/149/149
f 158/158/158 150/150/150 159/159/159
f 149/149/149 155/155/155 152/152/152
f 155/155/155 149/149/149 158/158/158
f 160/160/160 162/162/162 161/161/161
f 163/163/163 161/161/161 164/164/164
f 154/154/154 155/155/155 165/165/165
f 154/154/154 161/161/161 157/157/157
f 166/166/166 168/168/168 167/167/167
f 169/169/169 160/160/160 170/170/170
f 159/159/159 168/168/168 158/158/158
f 158/158/158 165/165/165 155/155/155
f 165/165/165 158/158/158 171/171/171
f 170/170/170 173/173/173 172/172/172
f 165/165/165 163/163/163 164/164/164
f 163/163/163 165/165/165 174/174/174
f 175/175/175 176/176/176 169/169/169
f 176/176/176 171/171/171 158/158/158
f 158/158/158 168/168/168 176/176/176
f 174/174/174 177/177/177 163/163/163
f 165/165/165 171/171/171 174/174/174
f 172/172/172 175/175/175 169/169/169
f 169/169/169 170/170/170 172/172/172
f 178/178/178 174/174/174 171/171/171
f 179/179/179 181/181/181 180/180/180
f 182/182/182 184/184/184 183/183/183
f 185/185/185 187/187/187 186/186/186
f 186/186/186 180/180/180 181/181/181
f 188/188/188 189/189/189 174/174/174
f 189/189/189 188/188/188 190/190/190
f 191/191/191 193/193/193 192/192/192
f 193/193/193 191/191/191 194/194/194
f 183/183/183 196/196/196 195/195/195
f 196/196/196 183/183/183 197/197/197
f 198/198/198 200/200/200 199/199/199
f 200/200/200 198/198/198 193/193/193
f 201/201/201 197/197/197 202/202/202
f 202/202/202 203/203/203 201/201/201
f 204/204/204 206/206/206 205/205/205
f 205/205/205 194/194/194 204/204/204
f 207/207/207 209/209/209 208/208/208
f 210/210/210 212/212/212 211/211/211
f 213/213/213 215/215/215 214/214/214
f 214/214/214 193/193/193 206/206/206
f 216/216/216 211/211/211 212/212/212
f 211/211/211 216/216/216 217/217/217
f 218/218/218 220/220/220 219/219/219
f 211/211/211 222/222/222 221/221/221
f 223/223/223 224/224/224 213/213/213
f 213/213/213 225/225/225 223/223/223
f 211/211/211 227/227/227 226/226/226
f 219/219/219 220/220/220 228/228/228
f 228/228/228 229/229/229 219/219/219
f 230/230/230 222/222/222 211/211/211
f 222/222/222 230/230/230 231/231/231
f 222/222/222 231/231/231 219/219/219
f 219/219/219 221/221/221 222/222/222
f 232/232/232 180/180/180 172/172/172
f 169/169/169 168/168/168 166/166/166
f 160/160/160 169/169/169 166/166/166
f 157/157/157 161/161/161 162/162/162
f 167/167/167 168/168/168 159/159/159
f 160/160/160 161/161/161 170/170/170
f 169/169/169 176/176/176 168/168/168
f 178/178/178 171/171/171 176/176/176
f 233/233/233 235/235/235 234/234/234
f 236/236/236 238/238/238 237/237/237
f 173/173/173 163/163/163 177/177/177
f 236/236/236 233/233/233 234/234/234
f 178/178/178 176/176/176 175/175/175
f 188/188/188 174/174/174 178/178/178
f 186/186/186 190/190/190 188/188/188
f 186/186/186 187/187/187 190/190/190
f 186/186/186 181/181/181 185/185/185
f 175/175/175 180/180/180 186/186/186
f 175/175/175 172/172/172 180/180/180
f 175/175/175 188/188/188 178/178/178
f 188/188/188 175/175/175 186/186/186
f 198/198/198 187/187/187 185/185/185
f 198/198/198 199/199/199 187/187/187
f 192/192/192 193/193/193 198/198/198
f 181/181/181 191/191/191 192/192/192
f 181/181/181 179/179/179 191/191/191
f 181/181/181 192/192/192 198/198/198
f 181/181/181 198/198/198 185/185/185
f 195/195/195 194/194/194 191/191/191
f 195/195/195 196/196/196 194/194/194
f 182/182/182 183/183/183 195/195/195
f 179/179/179 182/182/182 195/195/195
f 179/179/179 195/195/195 191/191/191
f 202/202/202 197/197/197 183/183/183
f 189/189/189 203/203/203 202/202/202
f 189/189/189 190/190/190 203/203/203
f 183/183/183 174/174/174 189/189/189
f 183/183/183 184/184/184 174/174/174
f 183/183/183 189/189/189 202/202/202
f 199/199/199 201/201/201 203/203/203
f 199/199/199 200/200/200 201/201/201
f 190/190/190 187/187/187 203/203/203
f 203/203/203 187/187/187 199/199/199
f 193/193/193 214/214/214 200/200/200
f 205/205/205 206/206/206 193/193/193
f 193/193/193 194/194/194 205/205/205
f 208/208/208 240/240/240 239/239/239
f 208/208/208 209/209/209 240/240/240
f 196/196/196 197/197/197 212/212/212
f 197/197/197 216/216/216 212/212/212
f 197/197/197 201/201/201 216/216/216
f 214/214/214 217/217/217 216/216/216
f 214/214/214 215/215/215 217/217/217
f 214/214/214 216/216/216 200/200/200
f 200/200/200 216/216/216 201/201/201
f 213/213/213 214/214/214 206/206/206
f 225/225/225 213/213/213 206/206/206
f 228/228/228 223/223/223 225/225/225
f 228/228/228 220/220/220 223/223/223
f 206/206/206 229/229/229 228/228/228
f 206/206/206 204/204/204 229/229/229
f 225/225/225 206/206/206 228/228/228
f 221/221/221 219/219/219 229/229/229
f 210/210/210 211/211/211 221/221/221
f 221/221/221 229/229/229 204/204/204
f 221/221/221 204/204/204 210/210/210
f 227/227/227 211/211/211 217/217/217
f 213/213/213 226/226/226 227/227/227
f 213/213/213 224/224/224 226/226/226
f 217/217/217 215/215/215 227/227/227
f 227/227/227 215/215/215 213/213/213
f 241/241/241 243/243/243 242/242/242
f 244/244/244 245/245/245 241/241/241
f 244/244/244 241/241/241 242/242/242
f 230/230/230 211/211/211 226/226/226
f 244/244/244 246/246/246 245/245/245
f 218/218/218 219/219/219 231/231/231
f 246/246/246 244/244/244 247/247/247
f 180/180/180 232/232/232 179/179/179
f 248/248/248 184/184/184 182/182/182
f 248/248/248 174/174/174 184/184/184
f 182/182/182 179/179/179 248/248/248
f 163/163/163 173/173/173 161/161/161
f 170/170/170 161/161/161 173/173/173
f 249/249/249 150/150/150 151/151/151
f 250/250/250 252/252/252 251/251/251
f 251/251/251 253/253/253 250/250/250
f 252/252/252 156/156/156 157/157/157
f 157/157/157 251/251/251 252/252/252
f 150/150/150 249/249/249 254/254/254
f 254/254/254 159/159/159 150/150/150
f 249/249/249 250/250/250 253/253/253
f 253/253/253 254/254/254 249/249/249
f 160/160/160 255/255/255 162/162/162
f 256/256/256 257/257/257 255/255/255
f 251/251/251 258/258/258 253/253/253
f 251/251/251 157/157/157 255/255/255
f 166/166/166 167/167/167 259/259/259
f 260/260/260 261/261/261 160/160/160
f 159/159/159 254/254/254 259/259/259
f 254/254/254 253/253/253 258/258/258
f 258/258/258 262/262/262 254/254/254
f 261/261/261 264/264/264 263/263/263
f 258/258/258 257/257/257 256/256/256
f 256/256/256 265/265/265 258/258/258
f 266/266/266 260/260/260 267/267/267
f 267/267/267 254/254/254 262/262/262
f 254/254/254 267/267/267 259/259/259
f 265/265/265 256/256/256 268/268/268
f 258/258/258 265/265/265 262/262/262
f 264/264/264 260/260/260 266/266/266
f 260/260/260 264/264/264 261/261/261
f 269/269/269 262/262/262 265/265/265
f 270/270/270 272/272/272 271/271/271
f 273/273/273 275/275/275 274/274/274
f 276/276/276 278/278/278 277/277/277
f 278/278/278 271/271/271 272/272/272
f 279/279/279 265/265/265 280/280/280
f 280/280/280 281/281/281 279/279/279
f 282/282/282 284/284/284 283/283/283
f 283/283/283 285/285/285 282/282/282
f 275/275/275 287/287/287 286/286/286
f 286/286/286 288/288/288 275/275/275
f 289/289/289 291/291/291 290/290/290
f 290/290/290 283/283/283 289/289/289
f 292/292/292 293/293/293 288/288/288
f 293/293/293 292/292/292 294/294/294
f 295/295/295 297/297/297 296/296/296
f 297/297/297 295/295/295 285/285/285
f 298/298/298 300/300/300 299/299/299
f 301/301/301 303/303/303 302/302/302
f 304/304/304 306/306/306 305/305/305
f 306/306/306 296/296/296 283/283/283
f 307/307/307 302/302/302 303/303/303
f 303/303/303 308/308/308 307/307/307
f 309/309/309 311/311/311 310/310/310
f 303/303/303 313/313/313 312/312/312
f 314/314/314 304/304/304 315/315/315
f 304/304/304 314/314/314 316/316/316
f 303/303/303 318/318/318 317/317/317
f 311/311/311 319/319/319 310/310/310
f 319/319/319 311/311/311 320/320/320
f 321/321/321 303/303/303 312/312/312
f 312/312/312 322/322/322 321/321/321
f 312/312/312 311/311/311 322/322/322
f 311/311/311 312/312/312 313/313/313
f 323/323/323 264/264/264 272/272/272
f 260/260/260 166/166/166 259/259/259
f 160/160/160 166/166/166 260/260/260
f 157/157/157 162/162/162 255/255/255
f 167/167/167 159/159/159 259/259/259
f 160/160/160 261/261/261 255/255/255
f 260/260/260 259/259/259 267/267/267
f 269/269/269 267/267/267 262/262/262
f 324/324/324 326/326/326 325/325/325
f 327/327/327 329/329/329 328/328/328
f 263/263/263 268/268/268 256/256/256
f 327/327/327 326/326/326 324/324/324
f 269/269/269 266/266/266 267/267/267
f 279/279/279 269/269/269 265/265/265
f 278/278/278 279/279/279 281/281/281
f 278/278/278 281/281/281 277/277/277
f 278/278/278 276/276/276 271/271/271
f 266/266/266 278/278/278 272/272/272
f 266/266/266 272/272/272 264/264/264
f 266/266/266 269/269/269 279/279/279
f 279/279/279 278/278/278 266/266/266
f 289/289/289 276/276/276 277/277/277
f 289/289/289 277/277/277 291/291/291
f 284/284/284 289/289/289 283/283/283
f 271/271/271 284/284/284 282/282/282
f 271/271/271 282/282/282 270/270/270
f 271/271/271 289/289/289 284/284/284
f 271/271/271 276/276/276 289/289/289
f 287/287/287 282/282/282 285/285/285
f 287/287/287 285/285/285 286/286/286
f 273/273/273 287/287/287 275/275/275
f 270/270/270 287/287/287 273/273/273
f 270/270/270 282/282/282 287/287/287
f 293/293/293 275/275/275 288/288/288
f 280/280/280 293/293/293 294/294/294
f 280/280/280 294/294/294 281/281/281
f 275/275/275 280/280/280 265/265/265
f 275/275/275 265/265/265 274/274/274
f 275/275/275 293/293/293 280/280/280
f 291/291/291 294/294/294 292/292/292
f 291/291/291 292/292/292 290/290/290
f 281/281/281 294/294/294 277/277/277
f 294/294/294 291/291/291 277/277/277
f 283/283/283 290/290/290 306/306/306
f 297/297/297 283/283/283 296/296/296
f 283/283/283 297/297/297 285/285/285
f 300/300/300 331/331/331 330/330/330
f 300/300/300 330/330/330 299/299/299
f 286/286/286 302/302/302 288/288/288
f 288/288/288 302/302/302 307/307/307
f 288/288/288 307/307/307 292/292/292
f 306/306/306 307/307/307 308/308/308
f 306/306/306 308/308/308 305/305/305
f 306/306/306 290/290/290 307/307/307
f 290/290/290 292/292/292 307/307/307
f 304/304/304 296/296/296 306/306/306
f 316/316/316 296/296/296 304/304/304
f 319/319/319 316/316/316 314/314/314
f 319/319/319 314/314/314 310/310/310
f 296/296/296 319/319/319 320/320/320
f 296/296/296 320/320/320 295/295/295
f 316/316/316 319/319/319 296/296/296
f 313/313/313 320/320/320 311/311/311
f 301/301/301 313/313/313 303/303/303
f 313/313/313 295/295/295 320/320/320
f 313/313/313 301/301/301 295/295/295
f 317/317/317 308/308/308 303/303/303
f 304/304/304 317/317/317 318/318/318
f 304/304/304 318/318/318 315/315/315
f 308/308/308 317/317/317 305/305/305
f 317/317/317 304/304/304 305/305/305
f 332/332/332 334/334/334 333/333/333
f 335/335/335 332/332/332 336/336/336
f 335/335/335 334/334/334 332/332/332
f 321/321/321 318/318/318 303/303/303
f 335/335/335 336/336/336 337/337/337
f 309/309/309 322/322/322 311/311/311
f 337/337/337 338/338/338 335/335/335
f 272/272/272 270/270/270 323/323/323
f 339/339/339 273/273/273 274/274/274
f 339/339/339 274/274/274 265/265/265
f 273/273/273 339/339/339 270/270/270
f 256/256/256 255/255/255 263/263/263
f 261/261/261 263/263/263 255/255/255
f 340/340/340 342/342/342 341/341/341
f 342/342/342 340/340/340 343/343/343
f 344/344/344 343/343/343 340/340/340
f 343/343/343 344/344/344 345/345/345
f 343/343/343 345/345/345 346/346/346
f 347/347/347 349/349/349 348/348/348
f 349/349/349 343/343/343 346/346/346
f 343/343/343 349/349/349 347/347/347
f 347/347/347 348/348/348 350/350/350
f 351/351/351 350/350/350 348/348/348
f 352/352/352 354/354/354 353/353/353
f 354/354/354 352/352/352 355/355/355
f 356/356/356 358/358/358 357/357/357
f 359/359/359 355/355/355 360/360/360
f 360/360/360 356/356/356 359/359/359
f 355/355/355 359/359/359 354/354/354
f 356/356/356 360/360/360 358/358/358
f 361/361/361 363/363/363 362/362/362
f 361/361/361 364/364/364 363/363/363
f 361/361/361 365/365/365 364/364/364
f 361/361/361 366/366/366 365/365/365
f 363/363/363 368/368/368 367/367/367
f 362/362/362 363/363/363 367/367/367
f 363/363/363 369/369/369 368/368/368
f 363/363/363 364/364/364 369/369/369
f 364/364/364 370/370/370 369/369/369
f 364/364/364 365/365/365 370/370/370
f 365/365/365 371/371/371 370/370/370
f 365/365/365 366/366/366 371/371/371
f 368/368/368 373/373/373 372/372/372
f 368/368/368 369/369/369 373/373/373
f 369/369/369 374/374/374 373/373/373
f 369/369/369 370/370/370 374/374/374
f 371/371/371 375/375/375 374/374/374
f 370/370/370 371/371/371 374/374/374
f 376/376/376 372/372/372 377/377/377
f 372/372/372 376/376/376 368/368/368
f 378/378/378 377/377/377 379/379/379
f 377/377/377 378/378/378 376/376/376
f 380/380/380 375/375/375 381/381/381
f 375/375/375 380/380/380 374/374/374
f 382/382/382 384/384/384 383/383/383
f 384/384/384 382/382/382 385/385/385
f 385/385/385 386/386/386 384/384/384
f 387/387/387 389/389/389 388/388/388
f 389/389/389 391/391/391 390/390/390
f 391/391/391 389/389/389 387/387/387
f 392/392/392 394/394/394 393/393/393
f 393/393/393 395/395/395 392/392/392
f 344/344/344 392/392/392 395/395/395
f 395/395/395 345/345/345 344/344/344
f 395/395/395 346/346/346 345/345/345
f 396/396/396 398/398/398 397/397/397
f 397/397/397 346/346/346 395/395/395
f 395/395/395 396/396/396 397/397/397
f 396/396/396 399/399/399 398/398/398
f 400/400/400 398/398/398 399/399/399
f 401/401/401 353/353/353 354/354/354
f 354/354/354 402/402/402 401/401/401
f 403/403/403 405/405/405 404/404/404
f 406/406/406 407/407/407 402/402/402
f 407/407/407 406/406/406 403/403/403
f 402/402/402 354/354/354 406/406/406
f 403/403/403 404/404/404 407/407/407
f 361/361/361 362/362/362 408/408/408
f 361/361/361 408/408/408 409/409/409
f 361/361/361 409/409/409 410/410/410
f 361/361/361 410/410/410 366/366/366
f 408/408/408 367/367/367 411/411/411
f 362/362/362 367/367/367 408/408/408
f 408/408/408 411/411/411 412/412/412
f 408/408/408 412/412/412 409/409/409
f 409/409/409 412/412/412 413/413/413
f 409/409/409 413/413/413 410/410/410
f 410/410/410 413/413/413 371/371/371
f 410/410/410 371/371/371 366/366/366
f 411/411/411 415/415/415 414/414/414
f 411/411/411 414/414/414 412/412/412
f 412/412/412 414/414/414 416/416/416
f 412/412/412 416/416/416 413/413/413
f 371/371/371 416/416/416 375/375/375
f 413/413/413 416/416/416 371/371/371
f 417/417/417 418/418/418 415/415/415
f 415/415/415 411/411/411 417/417/417
f 378/378/378 379/379/379 418/418/418
f 418/418/418 417/417/417 378/378/378
f 419/419/419 381/381/381 375/375/375
f 375/375/375 416/416/416 419/419/419
f 420/420/420 422/422/422 421/421/421
f 421/421/421 423/423/423 420/420/420
f 423/423/423 421/421/421 424/424/424
f 425/425/425 427/427/427 426/426/426
f 426/426/426 390/390/390 391/391/391
f 391/391/391 425/425/425 426/426/426
f 428/428/428 426/426/426 427/427/427
f 429/429/429 426/426/426 428/428/428
f 428/428/428 388/388/388 389/389/389
f 429/429/429 428/428/428 389/389/389
f 428/428/428 430/430/430 426/426/426

g bons
# texture: bons.jpg
v -1.6358 196.4173 9.869199
v -5.690199 194.6911 9.375398
v -5.201098 194.8679 10.5668
v -3.0439 195.104 12.3615
v -0.227698 195.1042 12.3615
v 1.929599 194.8679 10.5668
v 2.418602 194.6911 9.375299
v -7.847499 191.1432 10.098
v -7.098299 191.6234 11.451
v -3.793102 192.0682 14.7516
v 0.521499 192.0682 14.7516
v 3.826701 191.6234 11.451
v 4.575901 191.1432 10.0979
v -6.888198 187.4201 10.6434
v -6.2547 186.8432 14.0297
v -6.923598 191.1286 13.8877
v -5.766 188.4716 14.7353
v -2.4255 188.2587 14.6117
v -0.8461 188.2587 14.6116
v 2.494298 188.4716 14.7353
v 3.652 191.1286 13.8876
v 2.983099 186.8432 14.0297
v 3.616601 187.4201 10.6433
v -1.635799 180.0139 10.6407
v -3.086 180.5253 15.3329
v -4.984599 180.7599 12.4426
v -0.1857 180.5253 15.3329
v 1.713 180.7599 12.4426
v -5.821799 183.8517 11.9827
v -3.025 184.4093 15.2376
v -0.246601 184.4093 15.2376
v 2.5502 183.8517 11.9826
v -1.635799 184.0404 10.2173
vn -0 0.972331 0.233607
vn -0.695897 0.694197 0.183899
vn -0.574586 0.734482 0.361091
vn -0.187592 0.765668 0.615274
vn 0.327693 0.746585 0.578989
vn 0.619095 0.722994 0.306598
vn 0.628108 0.76461 0.144402
vn -0.942202 0.1432 0.3029
vn -0.858684 0.372793 0.351693
vn -0.294903 0.415404 0.860507
vn 0.200404 0.465209 0.862217
vn 0.848782 0.357692 0.389392
vn 0.870527 0.33271 0.362612
vn -0.907944 -0.353117 -0.225711
vn -0.751314 -0.259205 0.606911
vn -0.539185 0.273392 0.796578
vn -0.601683 -0.137696 0.786777
vn -0.133706 -0.064203 0.988939
vn 0.025099 0.0019 0.999683
vn 0.26401 -0.093904 0.959938
vn 0.750188 0.269996 0.60359
vn 0.765103 -0.218501 0.605703
vn 0.962903 -0.269801 -0.0051
vn -0.094898 -0.812285 -0.575489
vn -0.296915 -0.548527 0.781639
vn -0.854198 -0.494199 0.161599
vn 0.496521 -0.574925 0.650329
vn 0.708558 -0.546368 -0.446573
vn -0.924315 -0.371106 -0.089002
vn -0.436388 0.090698 0.895176
vn 0.291489 -0.014499 0.956464
vn 0.930621 -0.363108 0.045801
vn 0.103399 -0.274596 -0.955984
vt 0.5868 0.7126
vt 0.4967 0.6814
vt 0.5075 0.6817
vt 0.5555 0.6817
vt 0.6181 0.6817
vt 0.6661 0.6817
vt 0.677 0.6814
vt 0.4487 0.6129
vt 0.4654 0.6186
vt 0.5389 0.6188
vt 0.6348 0.6188
vt 0.7083 0.6186
vt 0.725 0.6129
vt 0.47 0.5416
vt 0.4841 0.5223
vt 0.4692 0.6032
vt 0.495 0.5512
vt 0.5693 0.5475
vt 0.6044 0.5475
vt 0.6787 0.5512
vt 0.7044 0.6032
vt 0.6896 0.5223
vt 0.7036 0.5416
vt 0.5868 0.4024
vt 0.5546 0.4004
vt 0.5124 0.4119
vt 0.6191 0.4004
vt 0.6613 0.4119
vt 0.4937 0.4712
vt 0.5559 0.4736
vt 0.6177 0.4736
vt 0.6799 0.4712
vt 0.5868 0.4791
f 431/431/431 433/433/433 432/432/432
f 431/431/431 434/434/434 433/433/433
f 431/431/431 435/435/435 434/434/434
f 431/431/431 436/436/436 435/435/435
f 431/431/431 437/437/437 436/436/436
f 432/432/432 439/439/439 438/438/438
f 432/432/432 433/433/433 439/439/439
f 433/433/433 440/440/440 439/439/439
f 433/433/433 434/434/434 440/440/440
f 434/434/434 441/441/441 440/440/440
f 434/434/434 435/435/435 441/441/441
f 435/435/435 442/442/442 441/441/441
f 435/435/435 436/436/436 442/442/442
f 436/436/436 443/443/443 442/442/442
f 436/436/436 437/437/437 443/443/443
f 438/438/438 445/445/445 444/444/444
f 438/438/438 439/439/439 445/445/445
f 446/446/446 448/448/448 447/447/447
f 446/446/446 440/440/440 448/448/448
f 440/440/440 449/449/449 448/448/448
f 440/440/440 441/441/441 449/449/449
f 441/441/441 450/450/450 449/449/449
f 441/441/441 451/451/451 450/450/450
f 442/442/442 453/453/453 452/452/452
f 442/442/442 443/443/443 453/453/453
f 454/454/454 456/456/456 455/455/455
f 454/454/454 455/455/455 457/457/457
f 454/454/454 457/457/457 458/458/458
f 448/448/448 459/459/459 445/445/445
f 459/459/459 448/448/448 460/460/460
f 449/449/449 460/460/460 448/448/448
f 460/460/460 449/449/449 461/461/461
f 452/452/452 461/461/461 449/449/449
f 461/461/461 452/452/452 462/462/462
f 460/460/460 456/456/456 459/459/459
f 456/456/456 460/460/460 455/455/455
f 459/459/459 454/454/454 463/463/463
f 454/454/454 459/459/459 456/456/456
f 461/461/461 455/455/455 460/460/460
f 455/455/455 461/461/461 457/457/457
f 463/463/463 458/458/458 462/462/462
f 458/458/458 463/463/463 454/454/454
f 462/462/462 457/457/457 461/461/461
f 457/457/457 462/462/462 458/458/458
f 453/453/453 462/462/462 452/452/452
f 462/462/462 453/453/453 463/463/463
f 445/445/445 459/459/459 444/444/444
f 444/444/444 459/459/459 463/463/463
f 440/440/440 446/446/446 439/439/439
f 441/441/441 442/442/442 451/451/451
f 439/439/439 447/447/447 445/445/445
f 447/447/447 439/439/439 446/446/446
f 448/448/448 445/445/445 447/447/447
f 449/449/449 450/450/450 452/452/452
f 452/452/452 451/451/451 442/442/442
f 451/451/451 452/452/452 450/450/450

g bsh02
# texture: bsh02.tga
v -12.27461 74.94281 15.25661
v -10.15671 49.88012 15.82422
v 8.406988 76.81611 20.79822
v 10.52498 51.75331 21.36583
v -14.3926 100.0056 14.6891
v 6.289093 101.8789 20.23071
v -15.5048 124.3603 13.33119
v 5.257094 124.1971 18.8869
v 20.8167 116.9931 10.3106
v 20.3723 130.2565 -3.082595
v 12.16389 124.7266 16.6511
v 37.76979 42.22099 -2.816767
v 49.06219 1.409184 -12.12715
v 39.95799 42.21508 -9.121172
v 29.6389 88.46568 -5.713976
v 25.5992 88.51338 -16.50878
v 10.1951 88.64388 -26.31159
v 1.254505 88.71418 -28.70399
v 2.298004 136.7211 -13.1227
v 24.97059 88.47818 7.735922
v 31.5041 42.31498 -31.71097
v 17.1874 42.43369 -39.24677
v 1.008902 1.834885 -54.01646
v 0.979005 42.56108 -43.58398
v 41.5589 1.487583 -25.92166
v 36.7139 1.555084 -45.12356
v 21.7737 1.671585 -48.45996
v -24.3429 114.2026 2.087396
v -21.2935 124.9896 7.698093
v -18.46769 130.5618 -13.4759
v -35.0468 42.79349 -22.30198
v -33.794 42.79498 -28.85668
v -40.7783 2.115593 -36.16798
v -25.8778 88.90218 -20.56989
v -16.9868 88.84828 -27.90449
v -28.5506 88.89899 -6.585993
v -15.18799 42.68219 -44.20548
v 1.254505 88.71418 -28.70399
v 2.298004 136.7211 -13.1227
v 0.979005 42.56108 -43.58398
v -27.3884 2.029789 -44.37147
v -13.6009 1.950787 -58.58757
v 1.008902 1.834885 -54.01646
vn -0.258808 0 0.965929
vn -0.258808 0 0.965929
vn -0.258808 0 0.965929
vn -0.258808 0 0.965929
vn -0.259805 0.029301 0.965217
vn -0.26009 0.0153 0.965463
vn -0.258008 0.042001 0.965229
vn -0.260188 0.043998 0.964555
vn 0.907692 0.269097 0.321997
vn 0.874399 0.2457 -0.418399
vn 0.756622 -0.0066 0.653819
vn 0.928715 0.183503 0.322205
vn 0.971845 0.22251 -0.077503
vn 0.976966 0.210893 -0.032599
vn 0.977832 0.206307 -0.035801
vn 0.747656 0.289083 -0.597864
vn 0.397803 0.308902 -0.863906
vn 0.064604 0.313316 -0.947449
vn 0.25029 0.274089 -0.928563
vn 0.932878 0.158196 0.323593
vn 0.775577 0.273592 -0.568883
vn 0.311209 0.276508 -0.909226
vn 0.265808 0.239407 -0.933826
vn 0.187897 0.286795 -0.939385
vn 0.914219 0.202304 -0.351107
vn 0.596209 0.285604 -0.75031
vn 0.233089 0.239288 -0.942555
vn -0.962203 0.239301 -0.130001
vn -0.991235 -0.016301 0.131104
vn -0.568509 0.217104 -0.793513
vn -0.962714 0.198303 -0.184003
vn -0.826913 0.225104 -0.515309
vn -0.799886 0.236496 -0.551591
vn -0.838615 0.236704 -0.490609
vn -0.344815 0.298213 -0.89004
vn -0.961129 0.206206 -0.183606
vn -0.383707 0.282705 -0.879117
vn 0.064604 0.313316 -0.947449
vn 0.25029 0.274089 -0.928563
vn 0.187897 0.286795 -0.939385
vn -0.613637 0.214313 -0.759947
vn -0.137496 0.291391 -0.946671
vn 0.265808 0.239407 -0.933826
vt 0.0094 0.7159
vt 0.0094 0.5767
vt 0.3146 0.7159
vt 0.3146 0.5767
vt 0.0094 0.8551
vt 0.3146 0.8551
vt 0.0094 0.9943
vt 0.3146 0.9943
vt 0.3895 0.8362
vt 0.5723 0.9562
vt 0.4364 0.9289
vt 0.1578 0.3019
vt 0.0272 0.0005
vt 0.2505 0.3019
vt 0.4137 0.6435
vt 0.5322 0.6435
vt 0.8917 0.6435
vt 0.9875 0.6435
vt 0.9875 0.9995
vt 0.3088 0.6435
vt 0.4883 0.3019
vt 0.814 0.3019
vt 0.9875 0.0005
vt 0.9875 0.3019
vt 0.2505 0.0005
vt 0.4496 0.0005
vt 0.7654 0.0005
vt 0.3951 0.8362
vt 0.4381 0.9289
vt 0.5677 0.9562
vt 0.1424 0.3043
vt 0.2268 0.3019
vt 0.0005 0.0005
vt 0.4019 0.6435
vt 0.526 0.6435
vt 0.3096 0.6435
vt 0.4803 0.3019
vt 0.9001 0.6435
vt 0.9995 0.9995
vt 0.8982 0.3019
vt 0.2328 0.0005
vt 0.44 0.0005
vt 0.8989 0.0005
f 464/464/464 466/466/466 465/465/465
f 467/467/467 465/465/465 466/466/466
f 468/468/468 469/469/469 464/464/464
f 466/466/466 464/464/464 469/469/469
f 470/470/470 471/471/471 468/468/468
f 469/469/469 468/468/468 471/471/471
f 472/472/472 474/474/474 473/473/473
f 475/475/475 477/477/477 476/476/476
f 478/478/478 473/473/473 479/479/479
f 480/480/480 482/482/482 481/481/481
f 472/472/472 478/478/478 483/483/483
f 472/472/472 473/473/473 478/478/478
f 477/477/477 478/478/478 484/484/484
f 479/479/479 473/473/473 480/480/480
f 480/480/480 473/473/473 482/482/482
f 485/485/485 487/487/487 486/486/486
f 484/484/484 480/480/480 485/485/485
f 483/483/483 477/477/477 475/475/475
f 483/483/483 478/478/478 477/477/477
f 484/484/484 479/479/479 480/480/480
f 478/478/478 479/479/479 484/484/484
f 477/477/477 484/484/484 488/488/488
f 476/476/476 477/477/477 488/488/488
f 488/488/488 484/484/484 489/489/489
f 480/480/480 487/487/487 485/485/485
f 480/480/480 481/481/481 487/487/487
f 484/484/484 485/485/485 489/489/489
f 489/489/489 485/485/485 490/490/490
f 490/490/490 485/485/485 486/486/486
f 491/491/491 493/493/493 492/492/492
f 494/494/494 496/496/496 495/495/495
f 497/497/497 498/498/498 493/493/493
f 491/491/491 499/499/499 497/497/497
f 491/491/491 497/497/497 493/493/493
f 495/495/495 500/500/500 497/497/497
f 498/498/498 501/501/501 493/493/493
f 501/501/501 502/502/502 493/493/493
f 500/500/500 503/503/503 501/501/501
f 499/499/499 494/494/494 495/495/495
f 499/499/499 495/495/495 497/497/497
f 500/500/500 501/501/501 498/498/498
f 497/497/497 500/500/500 498/498/498
f 495/495/495 504/504/504 500/500/500
f 496/496/496 504/504/504 495/495/495
f 504/504/504 505/505/505 500/500/500
f 500/500/500 505/505/505 503/503/503
f 505/505/505 506/506/506 503/503/503

g bsh03
# texture: bsh03.tga
v -56.01889 148.4608 -14.01781
v -12.3979 181.9902 -2.013305
v -17.6389 175.8832 10.15099
v -50.77788 154.5678 -26.18221
v -48.95829 145.8132 -21.04621
v -19.45849 184.6377 5.014995
v -10.5783 173.2356 3.122695
v -57.83849 157.2153 -19.15382
v -50.56558 117.575 -30.43801
v -4.83009 178.2757 -7.367703
v -13.7428 170.4095 1.205395
v -37.78098 154.9907 -38.79621
v -41.64468 115.7803 -35.33151
v -13.75109 180.0704 -2.474205
v -4.821894 168.6148 -3.688203
v -50.57378 127.236 -34.11751
v -28.50398 124.6688 -42.87341
v 4.566109 178.774 -8.667002
v -6.186993 169.9657 -3.769403
v -9.495981 163.0466 -38.6258
v -18.28178 123.7035 -44.4142
v -5.656094 179.7392 -7.126202
v 4.035206 169.0004 -5.3102
v -29.53688 156.4141 -42.04901
v -56.98029 157.2723 -9.886913
v -12.75529 183.3686 -0.780906
v -16.67179 177.532 10.17899
v -53.06379 163.1088 -20.84682
v -52.56689 154.5331 -17.48581
v -17.16859 186.1078 6.817993
v -12.2584 174.7928 2.580096
v -57.47709 165.8481 -13.24792
v -49.74678 150.7193 -22.31941
v -9.721195 181.281 -3.939703
v -16.39939 174.3128 4.858594
v -46.94058 128.1381 -31.33261
v -46.17889 119.6709 -27.76441
v -17.161 182.78 1.290393
v -8.959595 172.8138 -0.371403
v -50.50838 159.1866 -25.88762
v -42.60208 122.0434 -35.12661
v -2.120491 178.6024 -7.782602
v -11.38549 170.6307 -2.936005
v -27.63749 160.9789 -38.83431
v -30.03448 150.5252 -37.87271
v -10.81629 179.67 -4.821605
v -2.689692 169.5631 -5.897001
v -38.16108 160.6322 -36.79731
v -2.779089 105.7115 -25.4612
v 6.351807 179.0629 -7.2559
v -3.882994 170.7908 -6.016302
v 22.92161 115.8532 -31.07189
v 8.194206 104.325 -23.78999
v -2.897388 179.8766 -7.517603
v 5.366207 169.9771 -5.7546
v 3.549313 112.6892 -32.5545
v 50.80549 150.1095 24.89011
v 9.843304 182.0095 6.027102
v 6.132696 175.9517 18.7536
v 70.64578 134.8327 18.93482
v 49.98239 147.3551 14.99311
v 10.6664 184.7639 15.9241
v 5.309601 173.1973 8.8566
v 71.46899 137.5871 28.83182
v 54.0967 148.6996 6.490713
v 7.585604 178.1606 -2.9028
v 8.9519 170.5042 9.423702
v 52.7304 156.356 -5.835787
v 52.2506 124.885 -7.048684
v 11.18111 180.147 6.549201
v 5.356405 168.5178 -0.0284
v 72.45559 137.0078 10.38752
v 48.696 126.0044 -14.72859
v 1.316311 178.3963 -9.9116
v 6.421503 169.9009 0.774601
v 31.18141 163.5321 -23.83669
v 41.9752 124.7647 -22.44279
v 8.037106 179.636 -2.1974
v -0.299294 168.6612 -6.939702
v 48.5621 157.5677 -13.61319
v 64.92439 137.5098 35.39872
v 9.311901 183.3751 7.194201
v 5.364998 177.5615 18.1474
v 68.87128 143.3234 24.44562
v 66.46288 134.7483 26.75692
v 7.773401 186.1365 15.8361
v 6.9035 174.8001 9.505501
v 67.33278 146.0848 33.08741
v 51.3275 152.2679 14.49201
v 9.058104 181.2493 2.840301
v 8.584099 174.4173 13.9058
v 51.8014 159.0999 3.426511
v 49.06 150.6225 5.727016
v 11.3255 182.8947 11.6053
v 6.316702 172.7719 5.1408
v 70.19859 139.4107 18.96282
v 51.0166 152.9619 -2.226887
v 5.801004 178.4109 -4.955901
v 9.805601 170.7038 4.734901
v 45.02771 162.0101 -12.38479
v 46.35241 151.6818 -10.05508
v 10.46521 179.691 2.872402
v 5.141403 169.4237 -3.0933
v 51.6762 161.9491 -4.089488
v 36.06311 156.8654 -17.36939
v -0.932392 178.6147 -9.971502
v 6.102604 170.6798 -2.428699
v 16.13301 160.6546 -27.0262
v 26.88151 157.1664 -23.5598
v 6.203005 179.6965 -4.262801
v -1.032795 169.598 -8.137503
v 33.12561 167.935 -19.91849
vn -0.624288 0.772185 0.118298
vn -0.624288 0.772185 0.118298
vn -0.624288 0.772185 0.118298
vn -0.624288 0.772185 0.118298
vn -0.291814 -0.373718 0.880443
vn -0.291814 -0.373718 0.880443
vn -0.291814 -0.373718 0.880443
vn -0.291814 -0.373718 0.880443
vn -0.819296 0.545497 0.176599
vn -0.819296 0.545497 0.176599
vn -0.749289 0.633191 -0.193998
vn -0.766519 0.375909 0.520712
vn -0.301005 -0.329705 0.894813
vn -0.301005 -0.329705 0.894813
vn -0.301005 -0.329705 0.894813
vn -0.301005 -0.329705 0.894813
vn -0.829484 0.552389 -0.082599
vn -0.829484 0.552389 -0.082599
vn -0.686096 0.636797 -0.351798
vn -0.889737 0.412817 0.194808
vn -0.628086 -0.334492 0.702584
vn -0.628086 -0.334492 0.702584
vn -0.55599 -0.375793 0.741387
vn -0.694883 -0.290393 0.657883
vn -0.52621 0.814415 0.244605
vn -0.52621 0.814415 0.244605
vn -0.52621 0.814415 0.244605
vn -0.52621 0.814415 0.244605
vn -0.224898 -0.426895 0.875889
vn -0.224898 -0.426895 0.875889
vn -0.224898 -0.426895 0.875889
vn -0.224898 -0.426895 0.875889
vn -0.341498 0.771996 -0.536098
vn -0.341498 0.771996 -0.536098
vn -0.635803 0.762403 0.1204
vn 0.129695 0.381885 -0.915065
vn -0.4098 -0.2222 0.884699
vn -0.4098 -0.2222 0.884699
vn -0.211793 -0.327889 0.92067
vn -0.58662 -0.105004 0.803027
vn -0.833103 0.545002 0.0944
vn -0.833103 0.545002 0.0944
vn -0.708989 0.64279 -0.290096
vn -0.813202 0.353001 0.462701
vn -0.508002 -0.484902 0.711902
vn -0.508002 -0.484902 0.711902
vn -0.508002 -0.484902 0.711902
vn -0.508002 -0.484902 0.711902
vn -0.318695 0.260396 -0.911387
vn -0.318695 0.260396 -0.911387
vn -0.32889 0.260692 -0.907673
vn -0.308492 0.260094 -0.914978
vn -0.756889 -0.247196 0.604991
vn -0.756889 -0.247196 0.604991
vn -0.483328 -0.254114 0.837747
vn -0.932781 -0.208396 0.294094
vn 0.517501 0.816302 0.256601
vn 0.517501 0.816302 0.256601
vn 0.386704 0.783809 0.485905
vn 0.611781 0.790975 0.0091
vn -0.485292 -0.527391 0.697388
vn -0.485292 -0.527391 0.697388
vn -0.334891 -0.373489 0.865075
vn -0.599569 -0.642066 0.477775
vn 0.412377 0.793656 0.447275
vn 0.412377 0.793656 0.447275
vn 0.412377 0.793656 0.447275
vn 0.412377 0.793656 0.447275
vn -0.310602 -0.438402 0.843404
vn -0.310602 -0.438402 0.843404
vn -0.229089 -0.389782 0.891958
vn -0.38851 -0.482012 0.785319
vn 0.677487 0.569989 0.464891
vn 0.677487 0.569989 0.464891
vn 0.738911 0.653009 0.166103
vn 0.548395 0.429996 0.717194
vn 0.036902 -0.325716 0.944747
vn 0.036902 -0.325716 0.944747
vn -0.0425 -0.368899 0.928497
vn 0.116101 -0.279803 0.953011
vn 0.359099 0.764598 0.535199
vn 0.359099 0.764598 0.535199
vn 0.359099 0.764598 0.535199
vn 0.359099 0.764598 0.535199
vn -0.490927 -0.395721 0.776142
vn -0.490927 -0.395721 0.776142
vn -0.490927 -0.395721 0.776142
vn -0.490927 -0.395721 0.776142
vn 0.394396 0.774293 0.494896
vn 0.394396 0.774293 0.494896
vn 0.394396 0.774293 0.494896
vn 0.394396 0.774293 0.494896
vn -0.444317 -0.634724 0.632224
vn -0.444317 -0.634724 0.632224
vn -0.238001 -0.436402 0.867703
vn -0.58959 -0.745888 0.309895
vn 0.415711 0.787321 0.455312
vn 0.415711 0.787321 0.455312
vn 0.415878 0.787659 0.454576
vn 0.41541 0.787018 0.456111
vn -0.0582 -0.478797 0.875995
vn -0.0582 -0.478797 0.875995
vn -0.0582 -0.478797 0.875995
vn -0.0582 -0.478797 0.875995
vn 0.494586 0.866075 -0.072798
vn 0.494586 0.866075 -0.072798
vn 0.526494 0.782592 0.332197
vn 0.377609 0.800619 -0.465211
vn 0.266691 -0.473985 0.839174
vn 0.266691 -0.473985 0.839174
vn 0.241693 -0.493687 0.835379
vn 0.291494 -0.453791 0.842084
vt 0.9916 0.9959
vt 0.0005 0.0066
vt 0.9916 0.0066
vt 0.0005 0.9959
vt 0.9916 0.9959
vt 0.0005 0.0066
vt 0.9916 0.0066
vt 0.0005 0.9959
vt 0.9916 0.9959
vt 0.0005 0.0066
vt 0.9916 0.0066
vt 0.0005 0.9959
vt 0.9916 0.9959
vt 0.0005 0.0066
vt 0.9916 0.0066
vt 0.0005 0.9959
vt 0.9916 0.9959
vt 0.0005 0.0066
vt 0.9916 0.0066
vt 0.0005 0.9959
vt 0.9916 0.9959
vt 0.0005 0.0066
vt 0.9916 0.0066
vt 0.0005 0.9959
vt 0.9916 0.9959
vt 0.0005 0.0066
vt 0.9916 0.0066
vt 0.0005 0.9959
vt 0.9916 0.9959
vt 0.0005 0.0066
vt 0.9916 0.0066
vt 0.0005 0.9959
vt 0.9916 0.9959
vt 0.0005 0.0066
vt 0.9916 0.0066
vt 0.0005 0.9959
vt 0.9916 0.9959
vt 0.0005 0.0066
vt 0.9916 0.0066
vt 0.0005 0.9959
vt 0.9916 0.9959
vt 0.0005 0.0066
vt 0.9916 0.0066
vt 0.0005 0.9959
vt 0.9916 0.9959
vt 0.0005 0.0066
vt 0.9916 0.0066
vt 0.0005 0.9959
vt 0.9916 0.9959
vt 0.0005 0.0066
vt 0.9916 0.0066
vt 0.0005 0.9959
vt 0.9837 0.0066
vt 0.0005 0.9959
vt 0.9837 0.9959
vt 0.0005 0.0066
vt 0.9916 0.9959
vt 0.0005 0.0066
vt 0.9916 0.0066
vt 0.0005 0.9959
vt 0.9916 0.9959
vt 0.0005 0.0066
vt 0.9916 0.0066
vt 0.0005 0.9959
vt 0.9916 0.9959
vt 0.0005 0.0066
vt 0.9916 0.0066
vt 0.0005 0.9959
vt 0.9916 0.9959
vt 0.0005 0.0066
vt 0.9916 0.0066
vt 0.0005 0.9959
vt 0.9916 0.9959
vt 0.0005 0.0066
vt 0.9916 0.0066
vt 0.0005 0.9959
vt 0.9916 0.9959
vt 0.0005 0.0066
vt 0.9916 0.0066
vt 0.0005 0.9959
vt 0.9916 0.9959
vt 0.0005 0.0066
vt 0.9916 0.0066
vt 0.0005 0.9959
vt 0.9916 0.9959
vt 0.0005 0.0066
vt 0.9916 0.0066
vt 0.0005 0.9959
vt 0.9916 0.9959
vt 0.0005 0.0066
vt 0.9916 0.0066
vt 0.0005 0.9959
vt 0.9916 0.9959
vt 0.0005 0.0066
vt 0.9916 0.0066
vt 0.0005 0.9959
vt 0.9916 0.9959
vt 0.0005 0.0066
vt 0.9916 0.0066
vt 0.0005 0.9959
vt 0.9916 0.9959
vt 0.0005 0.0066
vt 0.9916 0.0066
vt 0.0005 0.9959
vt 0.9916 0.9959
vt 0.0005 0.0066
vt 0.9916 0.0066
vt 0.0005 0.9959
vt 0.9837 0.0066
vt 0.0005 0.9959
vt 0.9837 0.9959
vt 0.0005 0.0066
f 507/507/507 509/509/509 508/508/508
f 508/508/508 510/510/510 507/507/507
f 511/511/511 513/513/513 512/512/512
f 512/512/512 514/514/514 511/511/511
f 515/515/515 517/517/517 516/516/516
f 516/516/516 518/518/518 515/515/515
f 519/519/519 521/521/521 520/520/520
f 520/520/520 522/522/522 519/519/519
f 523/523/523 525/525/525 524/524/524
f 524/524/524 526/526/526 523/523/523
f 527/527/527 529/529/529 528/528/528
f 528/528/528 530/530/530 527/527/527
f 531/531/531 533/533/533 532/532/532
f 532/532/532 534/534/534 531/531/531
f 535/535/535 537/537/537 536/536/536
f 536/536/536 538/538/538 535/535/535
f 539/539/539 541/541/541 540/540/540
f 540/540/540 542/542/542 539/539/539
f 543/543/543 545/545/545 544/544/544
f 544/544/544 546/546/546 543/543/543
f 547/547/547 549/549/549 548/548/548
f 548/548/548 550/550/550 547/547/547
f 551/551/551 553/553/553 552/552/552
f 552/552/552 554/554/554 551/551/551
f 555/555/555 557/557/557 556/556/556
f 556/556/556 558/558/558 555/555/555
f 559/559/559 561/561/561 560/560/560
f 560/560/560 562/562/562 559/559/559
f 563/563/563 565/565/565 564/564/564
f 564/564/564 566/566/566 563/563/563
f 567/567/567 569/569/569 568/568/568
f 568/568/568 570/570/570 567/567/567
f 571/571/571 573/573/573 572/572/572
f 572/572/572 574/574/574 571/571/571
f 575/575/575 577/577/577 576/576/576
f 576/576/576 578/578/578 575/575/575
f 579/579/579 581/581/581 580/580/580
f 580/580/580 582/582/582 579/579/579
f 583/583/583 585/585/585 584/584/584
f 584/584/584 586/586/586 583/583/583
f 587/587/587 589/589/589 588/588/588
f 588/588/588 590/590/590 587/587/587
f 591/591/591 593/593/593 592/592/592
f 592/592/592 594/594/594 591/591/591
f 595/595/595 597/597/597 596/596/596
f 596/596/596 598/598/598 595/595/595
f 599/599/599 601/601/601 600/600/600
f 600/600/600 602/602/602 599/599/599
f 603/603/603 605/605/605 604/604/604
f 604/604/604 606/606/606 603/603/603
f 607/607/607 609/609/609 608/608/608
f 608/608/608 610/610/610 607/607/607
f 611/611/611 613/613/613 612/612/612
f 612/612/612 614/614/614 611/611/611
f 615/615/615 617/617/617 616/616/616
f 616/616/616 618/618/618 615/615/615
