# Monster53.bmd — MU geometry at action 0 key 0, exported for MU2
# 2 mesh(es)

g iui01
# texture: iui01.tga
v 18.80645 147.8784 21.83056
v -0.000057 149.5753 26.85745
v 17.17655 141.5323 16.1141
v -0.000055 159.645 27.01342
v 17.11586 164.8845 16.06674
v 0.00005 168.2375 21.1686
v 18.51116 138.6981 7.557762
v 25.67896 145.7036 9.035875
v -0.000051 146.9967 20.74505
v 10.74437 137.3843 15.73025
v 16.35628 132.4239 7.15202
v 13.06458 126.7235 15.40142
v 17.81348 124.6891 7.622955
v -0.00012 131.5568 22.98458
v 43.90755 177.4083 15.01142
v 12.51056 174.3139 14.12318
v 12.51056 174.3139 14.12318
v 0.000062 167.5961 9.310851
v 0.00005 168.2375 21.1686
v 16.4871 115.4022 17.38239
v 22.332 117.176 7.081018
v -0.000099 115.5239 23.22029
v -0.000084 100.3023 12.1356
v 6.678111 106.8298 19.54552
v -0.000089 107.6345 23.53689
v 45.88667 180.5487 -4.769597
v 10.81917 158.2463 -7.861837
v 22.48668 172.5502 -14.41775
v 56.46379 131.5833 12.05741
v 53.664 139.9987 2.351882
v 50.71289 140.7905 10.07894
v 58.64761 130.9973 6.339379
v 49.75059 138.1271 -0.165242
v 53.96931 130.2943 1.703453
v 49.82562 131.4062 12.55316
v 45.96707 139.1423 9.741339
v 53.42528 141.162 0.509125
v 48.31998 146.6027 3.696676
v 51.35599 134.2339 -1.197111
v 41.14538 145.1154 5.178196
v 57.09458 145.6765 9.005724
v 49.48686 153.3641 -16.3005
v 47.39898 137.6627 -16.69088
v 35.55476 150.2851 -9.295645
v 44.47377 151.0089 -18.54408
v 31.46877 154.4487 -13.94356
v 38.64977 156.5058 -9.806121
v 36.10686 148.7569 -21.9152
v 42.55038 143.0491 -14.02982
v 37.86628 148.7816 -6.114544
v 24.97916 161.8759 -8.062748
v 34.70267 167.0212 1.030936
v 34.45778 153.3858 3.365004
v 23.90078 158.7773 3.953398
v 48.31998 146.6027 3.696676
v 53.42528 141.162 0.509125
v 57.09458 145.6765 9.005724
v 57.07936 124.3205 12.16233
v 58.68548 123.8895 7.956771
v 55.59562 126.4949 3.219929
v 51.78607 127.5172 13.19455
v 55.49141 121.9896 11.8406
v 57.09753 121.5586 7.635035
v 5.631851 177.5939 18.05815
v 6.746676 180.9696 -1.159891
v 10.50537 184.4994 6.697072
v 8.094456 183.1648 17.57076
v 8.878387 195.0488 2.530478
v 6.240364 190.3986 17.63164
v 3.365084 199.5478 5.753224
v 6.746689 191.3878 -2.292298
v 0.000191 201.3163 1.795128
v 0.000176 201.8916 15.15954
v 2.283801 212.3625 3.112005
v 0.000323 225.4836 -6.71356
v 0.000195 190.8972 -9.05528
v 0.000323 212.5476 -14.3284
v 0.000156 189.2579 23.44215
v 0.000045 175.1194 20.51557
v 8.887087 179.7539 -10.30814
v 13.84857 178.4746 7.267242
v 0.000193 180.8421 -15.53489
v 36.5531 117.1578 10.3252
v 35.03781 104.6248 19.74576
v 34.21812 95.60799 10.60515
v 35.45471 105.0753 -1.923372
v 28.43129 124.2445 4.062809
v 24.8448 123.0567 14.22299
v 27.36761 98.94326 32.44096
v 27.06683 88.6106 35.99797
v 26.24744 79.59715 26.86071
v 25.94503 83.29488 16.57767
v 22.93861 102.0879 -7.033758
v 27.3329 112.162 -8.18571
v 19.78468 132.8729 -3.934175
v 18.68669 120.7949 -16.17802
v 20.27096 184.0241 -10.24504
v 17.39193 160.6782 -7.257939
v 64.34009 165.4316 -34.50387
v 44.9789 189.6233 -23.59013
v 75.53769 182.6237 -40.31789
v 69.68672 195.2226 -36.9352
v 100.2456 188.2229 -53.66298
v 94.39454 200.8217 -50.28039
v 114.7588 185.1956 -61.60262
v 125.5313 206.9511 -67.11258
v 18.49633 186.7696 -12.37868
v 16.57061 183.523 -11.3834
v 12.74042 160.423 -9.675532
v 65.57799 165.5263 -38.32368
v 74.67538 179.9557 -43.03399
v 99.38326 185.5549 -56.37901
v 113.8965 182.5275 -64.31872
v 115.8222 185.7741 -65.314
v 126.5947 207.5296 -70.82397
v 123.7566 209.6966 -69.24623
v 92.62002 203.5673 -52.41394
v 67.91208 197.9681 -39.06885
v 43.20427 192.3689 -25.72378
v 18.4914 186.7697 -12.38779
v 16.56569 183.5232 -11.3925
v 74.67051 179.9558 -43.04305
v 99.37833 185.555 -56.38812
v 113.8915 182.5277 -64.32775
v 115.8173 185.7743 -65.32311
v 126.5897 207.5298 -70.833
v 123.7518 209.6967 -69.25529
v 92.61504 203.5674 -52.4231
v 67.90717 197.9683 -39.07796
v 43.19922 192.369 -25.73286
v 17.62904 184.1017 -15.10381
v 13.24418 160.8 -14.88615
v 61.69828 165.5092 -39.36268
v 72.89581 182.7014 -45.17662
v 97.6037 188.3006 -58.52177
v 112.1169 185.2732 -66.46135
v 122.8894 207.0286 -71.97136
v 91.75267 200.8994 -55.13913
v 67.04485 195.3001 -41.79405
v 42.33692 189.7009 -28.44895
v 18.80311 149.2864 -16.29809
v 42.56644 140.0963 -29.36582
v 73.72742 142.5233 -46.27033
v 66.32977 130.9061 -42.43356
v 97.49064 133.3332 -59.33804
v 90.0931 121.7159 -55.50129
v 112.2521 134.1917 -67.35063
v 120.1574 111.0525 -72.01849
v 19.32557 146.6336 -13.48221
v 17.83066 150.1336 -12.61348
v 75.84174 145.0987 -44.23661
v 99.60519 135.9085 -57.30424
v 114.3665 136.7671 -65.31682
v 115.8614 133.2671 -66.18555
v 123.7692 110.1278 -70.84885
v 120.6799 108.3998 -69.20267
v 90.61568 119.0631 -52.68532
v 66.85229 128.2533 -39.61764
v 43.08897 137.4435 -26.55002
v 75.84672 145.0986 -44.22745
v 99.61005 135.9084 -57.29518
v 114.3714 136.7669 -65.3077
v 115.8663 133.2669 -66.17644
v 120.6849 108.3996 -69.19366
v 90.62066 119.0629 -52.6763
v 66.85728 128.2532 -39.60861
v 43.09395 137.4433 -26.54087
v 19.33056 146.6335 -13.47318
v 21.44499 149.2088 -11.43936
v 17.83565 150.1335 -12.60445
v 76.36929 142.4457 -41.4116
v 100.1326 133.2555 -54.47933
v 114.8939 134.1141 -62.49191
v 122.7993 110.975 -67.15973
v 92.73504 121.6383 -50.64252
v 68.97165 130.8284 -37.57482
v 45.20831 140.0186 -24.50709
v 10.37328 109.7157 -20.70331
v 9.394201 91.46823 -21.25709
v -0.000002 89.90476 -22.5868
v 0.000078 107.6532 -23.96446
v 11.47798 119.3538 -15.98184
v 18.614 110.2936 -12.29676
v 13.26642 76.22134 -16.20331
v 8.657839 64.45962 -17.26042
v 0.000032 62.87399 -18.53987
v -0.000026 117.2574 -19.81852
v 11.48258 132.4921 -6.34458
v -0.000024 130.5702 -9.949388
v 49.94867 121.8045 11.97066
v 54.25019 120.1906 6.733557
v 52.64392 120.6216 10.93911
v 52.99631 120.9867 3.990932
v 49.82562 131.4062 12.55316
v 44.03204 134.6628 8.141653
v 53.96931 130.2943 1.703453
v 46.04653 137.7856 1.364825
v 49.75059 138.1271 -0.165242
v 44.15466 138.2932 6.318082
v 45.96707 139.1423 9.741339
v 40.188 129.8478 13.3418
v 41.71981 128.8583 14.62028
v 40.43859 130.7884 15.58125
v 41.74599 135.1077 2.679319
v 51.35599 134.2339 -1.197111
v 41.14538 145.1154 5.178196
v 34.01138 137.4361 -13.68272
v 47.39898 137.6627 -16.69088
v 35.55476 150.2851 -9.295645
v 35.07937 140.2529 -18.52706
v 36.10686 148.7569 -21.9152
v 42.55038 143.0491 -14.02982
v 30.02357 147.528 -9.129597
v 31.46877 154.4487 -13.94356
v 37.86628 148.7816 -6.114544
v 25.70588 151.8033 -2.506765
v 24.97916 161.8759 -8.062748
v 34.45778 153.3858 3.365004
v 23.90078 158.7773 3.953398
v 55.59562 126.4949 3.219929
v 51.78607 127.5172 13.19455
v 57.09753 121.5586 7.635035
v 55.49141 121.9896 11.8406
v 45.92458 131.4898 13.79516
v 42.82131 133.0636 10.81062
v 43.23447 133.9283 13.6888
v 27.06683 88.6106 35.99797
v 27.36761 98.94326 32.44096
v 29.16141 109.1725 6.219374
v 25.94503 83.29488 16.57767
v 26.24744 79.59715 26.86071
v 24.8448 123.0567 14.22299
v 22.93861 102.0879 -7.033758
v 19.78468 132.8729 -3.934175
v 18.68669 120.7949 -16.17802
v 8.657839 64.45962 -17.26042
v 13.26642 76.22134 -16.20331
v -0.00001 105.5933 -17.41265
v 18.614 110.2936 -12.29676
v 11.48258 132.4921 -6.34458
v 0.000032 62.87399 -18.53987
v -0.000024 130.5702 -9.949388
v 43.90755 177.4083 15.01142
v 25.67896 145.7036 9.035875
v 26.51936 169.0323 4.212819
v 42.63236 185.7524 6.149412
v 45.88667 180.5487 -4.769597
v 10.81917 158.2463 -7.861837
v 15.26211 110.8475 32.23109
v 17.36178 135.7227 12.15917
v 6.678111 106.8298 19.54552
v 16.4871 115.4022 17.38239
v 24.9559 113.6687 13.35108
v 22.332 117.176 7.081018
v 7.224112 98.95869 -3.28079
v 4.488227 85.43523 26.72666
v 1.443009 102.8716 16.52708
v 14.69711 105.4292 -8.720263
v 23.48082 93.11665 12.11493
v 21.60873 83.14622 27.16
v 10.61133 79.17281 14.94719
v -0.000084 100.3023 12.1356
v 12.82944 71.37529 45.10928
v 13.43943 91.47552 40.21254
v 1.574338 73.22818 30.60168
v 11.53495 63.44477 38.40886
v 23.43084 69.03999 30.26882
v 10.95044 72.1021 22.25708
v 10.23404 67.66899 18.52331
v 3.66565 52.20377 30.16806
v 7.230264 39.64546 39.55735
v 17.46526 49.5246 30.40597
v 9.661648 57.29523 19.34007
v 9.282556 49.00961 23.47394
v 2.451567 34.48217 31.64143
v 6.810361 48.09745 55.22314
v 7.230264 39.64546 39.55735
v 13.06507 34.77955 31.72147
v 6.810361 48.09745 55.22314
v 13.65277 27.8111 34.65067
v 13.06507 34.77955 31.72147
v 7.830673 25.86606 27.17193
v 2.201572 27.51467 34.57642
v 7.707767 31.5181 18.89652
v 7.063164 36.28518 25.07972
v 2.451567 34.48217 31.64143
v 8.111797 6.806471 64.60586
v 8.116384 19.98908 61.79285
v 3.048485 15.9369 51.95326
v 13.67689 16.11985 51.95769
v 7.955076 27.25723 53.86275
v 8.57528 14.88802 23.42385
v 9.506991 1.385609 26.07725
v 3.077685 12.74601 31.85537
v 15.00738 12.65228 31.63567
v 7.464772 32.43952 47.60329
v 3.077685 12.74601 31.85537
v 9.506991 1.385609 26.07725
v 15.00738 12.65228 31.63567
v 3.048485 15.9369 51.95326
v 13.67689 16.11985 51.95769
v 8.111797 6.806471 64.60586
v 6.678111 106.8298 19.54552
v 17.36178 135.7227 12.15917
v 16.4871 115.4022 17.38239
v 24.9559 113.6687 13.35108
v 14.43778 17.05765 37.45171
v 1.895884 16.95802 37.69423
v 1.895884 16.95802 37.69423
v 14.43778 17.05765 37.45171
v 17.04636 164.8801 16.18262
v 43.90755 177.4083 15.01142
v 13.40017 172.7549 -0.840437
v 22.48668 172.5502 -14.41775
v 42.63236 185.7524 6.149412
v 45.88667 180.5487 -4.769597
v 10.81917 158.2463 -7.861837
v 15.51487 144.3434 -9.362904
v 0.000075 152.5047 -14.42704
v 18.51116 138.6981 7.557762
v 25.67896 145.7036 9.035875
v -0.000036 135.967 -8.017902
v 22.48668 172.5502 -14.41775
v 9.467575 168.8332 -10.73634
v 0.000075 168.7 -13.54648
v 9.172573 132.3541 -1.972119
v -0.000022 126.8367 -9.708289
v 16.35628 132.4239 7.15202
v 13.40017 172.7549 -0.840437
v 12.44115 174.3096 14.23904
v 17.04636 164.8801 16.18262
v 13.28918 125.9906 -4.807996
v 17.81348 124.6891 7.622955
v 12.03237 177.4553 -2.851026
v 0.000077 174.288 -7.527294
v 14.69711 105.4292 -8.720263
v -0.000005 110.4947 -12.38326
v 22.332 117.176 7.081018
v -0.000088 99.11272 -4.636636
v 7.224112 98.95869 -3.28079
v -0.000084 100.3023 12.1356
v 0.000077 174.288 -7.527294
v 0.000062 167.5961 9.310851
v 12.03237 177.4553 -2.851026
v 12.44115 174.3096 14.23904
v -18.80646 147.8783 21.83057
v -17.17655 141.5323 16.1141
v -17.11564 164.8845 16.06681
v -25.67884 145.7035 9.035871
v -18.51114 138.698 7.557767
v -10.74443 137.3843 15.73026
v -16.35623 132.424 7.152087
v -13.06462 126.7235 15.40143
v -17.81352 124.6891 7.623024
v -43.90725 177.4082 15.01148
v -12.51035 174.3139 14.12315
v -12.51035 174.3139 14.12315
v -16.4872 115.4021 17.3824
v -22.33201 117.1759 7.081031
v -6.678191 106.8298 19.54552
v -45.88633 180.5486 -4.76954
v -22.48632 172.5502 -14.41778
v -10.81893 158.2463 -7.86176
v -56.12162 122.1527 17.217
v -50.75594 128.3437 9.825055
v -53.66549 122.8422 4.319435
v -58.27464 118.0815 13.14282
v -49.67591 119.945 3.401708
v -53.56759 114.8153 9.819148
v -49.48218 122.5401 17.54953
v -45.94566 126.9984 10.46022
v -50.1455 130.8623 6.836542
v -52.9862 125.4904 1.460766
v -48.80009 120.0426 -1.365744
v -43.1187 130.7865 9.38587
v -58.92269 126.3839 9.827288
v -50.46482 142.5387 -10.78508
v -43.91881 128.5788 -14.43409
v -37.32841 141.0415 -1.962275
v -43.89362 143.5897 -12.87794
v -38.43913 151.8657 -6.378525
v -31.64493 150.6561 -11.40776
v -35.80502 142.6083 -17.3559
v -39.40562 137.3149 -7.594049
v -35.21982 145.4006 -1.715613
v -35.73784 164.9394 1.707131
v -26.44894 160.3511 -8.110304
v -31.74683 152.4404 6.098099
v -22.90893 160.0301 3.827781
v -50.1455 130.8623 6.836542
v -58.92269 126.3839 9.827288
v -52.9862 125.4904 1.460766
v -56.43539 116.4978 21.80624
v -58.01897 113.5035 18.80979
v -55.03609 112.7186 13.4005
v -51.28019 119.8203 20.50756
v -54.75186 114.522 22.95515
v -56.33547 111.5278 19.95871
v -5.631549 177.5938 18.05815
v -10.50503 184.4993 6.697057
v -6.746225 180.9696 -1.159906
v -8.094145 183.1647 17.57076
v -8.877916 195.0488 2.530458
v -6.240036 190.3986 17.63162
v -3.364616 199.5478 5.753216
v -6.746214 191.3878 -2.292211
v -2.283197 212.3625 3.111999
v -8.886715 179.7539 -10.30816
v -13.84824 178.4746 7.26721
v -35.41072 120.7527 10.02938
v -32.7766 100.4568 17.17525
v -32.74661 112.0018 22.85305
v -35.451 105.2822 2.42118
v -23.43532 127.3422 10.51976
v -28.08802 125.1896 0.968809
v -23.70711 110.6588 35.84389
v -22.89749 102.0759 42.56577
v -22.92748 90.53519 36.89016
v -23.75919 90.62282 25.99031
v -23.5051 100.494 -2.684003
v -28.12821 109.7192 -6.639381
v -20.44642 130.4967 -10.28319
v -20.48671 115.0321 -17.88854
v -20.30936 183.9479 -10.20464
v -64.37856 165.3555 -34.46365
v -17.43045 160.602 -7.21747
v -45.01722 189.5473 -23.54985
v -75.57609 182.5477 -40.27773
v -69.72496 195.1466 -36.89514
v -100.2838 188.147 -53.62291
v -94.43273 200.7459 -50.24028
v -114.797 185.1197 -61.56258
v -125.5694 206.8753 -67.07275
v -16.60907 183.4468 -11.34295
v -18.53483 186.6935 -12.33819
v -12.77887 160.3467 -9.635101
v -74.71371 179.8797 -42.99375
v -65.61627 165.4502 -38.28347
v -99.42146 185.4789 -56.33904
v -113.9346 182.4516 -64.27872
v -115.8603 185.6982 -65.27396
v -126.6328 207.4538 -70.78402
v -123.7948 209.6209 -69.2063
v -92.65812 203.4915 -52.3739
v -67.95037 197.8921 -39.02873
v -43.24258 192.2928 -25.68348
v -16.60414 183.447 -11.35206
v -18.5299 186.6936 -12.3473
v -74.70872 179.8797 -43.0029
v -99.41647 185.4791 -56.34808
v -113.9297 182.4518 -64.28783
v -115.8554 185.6983 -65.28312
v -126.6278 207.4539 -70.79311
v -123.7898 209.621 -69.21545
v -92.65318 203.4916 -52.38302
v -67.94544 197.8923 -39.03784
v -43.23766 192.2929 -25.69259
v -17.66754 184.0255 -15.06345
v -13.28273 160.7238 -14.84575
v -72.93414 182.6252 -45.13649
v -61.73662 165.4331 -39.32242
v -97.64187 188.2246 -58.48167
v -112.155 185.1973 -66.42134
v -122.9275 206.9529 -71.93143
v -91.79087 200.8235 -55.099
v -67.08313 195.2242 -41.75382
v -42.37527 189.6249 -28.40862
v -18.84155 149.2101 -16.25769
v -42.60485 140.02 -29.3255
v -73.76569 142.4472 -46.23006
v -66.36809 130.8298 -42.39324
v -97.52898 133.257 -59.29787
v -90.13141 121.6396 -55.46105
v -112.2903 134.1156 -67.31048
v -120.1956 110.9763 -71.97852
v -17.86922 150.0574 -12.57311
v -19.36407 146.5574 -13.44178
v -75.88017 145.0225 -44.19632
v -99.64336 135.8323 -57.2641
v -114.4047 136.691 -65.27678
v -115.8995 133.1909 -66.14548
v -123.8074 110.0516 -70.8089
v -120.7181 108.3235 -69.16257
v -90.65393 118.9868 -52.64525
v -66.89069 128.1769 -39.57739
v -43.12743 137.3672 -26.50954
v -75.88506 145.0224 -44.18726
v -99.64835 135.8322 -57.25507
v -114.4096 136.6908 -65.26768
v -115.9044 133.1908 -66.13638
v -120.7232 108.3234 -69.15353
v -90.65887 118.9867 -52.63615
v -66.89561 128.1769 -39.56829
v -43.13237 137.3671 -26.50056
v -19.36907 146.5572 -13.43274
v -17.87415 150.0572 -12.564
v -21.48349 149.1326 -11.39893
v -76.40756 142.3695 -41.37135
v -100.1709 133.1794 -54.43915
v -114.9322 134.038 -62.45176
v -122.8375 110.8988 -67.11976
v -92.77328 121.562 -50.60233
v -69.01003 130.7522 -37.53447
v -45.2468 139.9424 -24.46674
v -10.37302 109.7157 -20.70328
v -9.394003 91.4682 -21.25695
v -18.61381 110.2937 -12.2967
v -11.47792 119.3538 -15.98181
v -13.26628 76.22131 -16.20327
v -8.657671 64.45961 -17.2604
v -11.48252 132.4921 -6.344547
v -49.20638 114.6406 23.03294
v -51.84946 112.9846 23.02177
v -53.43307 109.9904 20.02533
v -52.21107 108.9591 17.34733
v -49.48218 122.5401 17.54953
v -53.56759 114.8153 9.819148
v -43.82518 122.557 11.92545
v -45.96211 120.7465 4.721852
v -49.67591 119.945 3.401708
v -44.09689 124.2732 8.251114
v -45.94566 126.9984 10.46022
v -39.78883 122.1241 18.89137
v -40.08002 124.24 20.0749
v -41.27938 122.0881 20.54583
v -48.80009 120.0426 -1.365744
v -40.4702 122.0635 4.522348
v -43.1187 130.7865 9.38587
v -43.91881 128.5788 -14.43409
v -31.57281 130.7336 -8.843034
v -37.32841 141.0415 -1.962275
v -35.80502 142.6083 -17.3559
v -32.20021 135.3916 -12.9085
v -39.40562 137.3149 -7.594049
v -31.64493 150.6561 -11.40776
v -27.83212 145.3281 -5.909402
v -35.21982 145.4006 -1.715613
v -26.44894 160.3511 -8.110304
v -23.81773 151.6835 -0.982467
v -31.74683 152.4404 6.098099
v -22.90893 160.0301 3.827781
v -55.03609 112.7186 13.4005
v -51.28019 119.8203 20.50756
v -56.33547 111.5278 19.95871
v -54.75186 114.522 22.95515
v -45.589 123.5034 18.3757
v -42.55134 122.9939 14.98053
v -43.00224 125.4401 16.71684
v -22.89749 102.0759 42.56577
v -28.38881 111.6951 8.051249
v -23.70711 110.6588 35.84389
v -23.75919 90.62282 25.99031
v -22.92748 90.53519 36.89016
v -23.43532 127.3422 10.51976
v -23.5051 100.494 -2.684003
v -20.44642 130.4967 -10.28319
v -20.48671 115.0321 -17.88854
v -8.657671 64.45961 -17.2604
v -13.26628 76.22131 -16.20327
v -18.61381 110.2937 -12.2967
v -11.48252 132.4921 -6.344547
v -43.90725 177.4082 15.01148
v -26.51914 169.0323 4.212778
v -25.67884 145.7035 9.035871
v -42.63204 185.7523 6.149377
v -45.88633 180.5486 -4.76954
v -10.81893 158.2463 -7.86176
v -11.84851 121.5503 30.45413
v -6.678191 106.8298 19.54552
v -16.37843 138.4446 3.618932
v -16.4872 115.4021 17.3824
v -22.33201 117.1759 7.081031
v -23.51441 118.1977 12.81767
v -7.44289 98.42596 0.239878
v 0.342001 108.5277 16.92617
v -1.382086 95.50974 32.5753
v -15.5319 102.9044 -6.226279
v -21.90819 98.36232 18.30063
v -18.33008 93.87854 35.51578
v -8.629978 85.84915 24.23218
v -7.317372 76.50409 51.45338
v 2.007618 87.98974 40.42122
v -8.940596 105.8638 44.15733
v -19.86448 83.87546 40.21462
v -7.257473 74.96764 41.10442
v -8.39389 91.226 28.88361
v -8.103773 81.59776 33.46222
v -1.031273 72.29166 26.6037
v -4.964067 57.3322 25.94095
v -14.78348 69.37483 26.78436
v -7.61058 73.95613 20.23932
v -8.169287 82.89244 22.62978
v -0.185269 57.64297 16.49502
v -4.964067 57.3322 25.94095
v -4.544161 55.27006 43.62144
v -10.79877 57.84064 16.73122
v -4.544161 55.27006 43.62144
v -10.79877 57.84064 16.73122
v -11.38647 50.45234 15.13376
v -5.564368 53.14867 7.891823
v -5.441478 62.52512 4.355004
v 0.064637 50.25209 14.90283
v -4.796876 62.88356 12.15428
v -0.185269 57.64297 16.49502
v -5.845732 16.06483 27.62379
v -0.782445 30.80126 22.49639
v -5.850342 28.47671 32.88079
v -11.41075 30.94851 22.60512
v -5.68895 38.979 30.55369
v -6.308962 46.30579 -1.475082
v -0.811457 39.71505 4.202999
v -7.240751 33.7234 -7.046289
v -12.74116 39.7643 3.969284
v -5.198558 46.8144 28.39866
v -0.811457 39.71505 4.202999
v -12.74116 39.7643 3.969284
v -7.240751 33.7234 -7.046289
v -0.782445 30.80126 22.49639
v -5.845732 16.06483 27.62379
v -11.41075 30.94851 22.60512
v -6.678191 106.8298 19.54552
v -16.4872 115.4021 17.3824
v -16.37843 138.4446 3.618932
v -23.51441 118.1977 12.81767
v -12.17156 40.03699 11.26025
v 0.370346 39.81627 11.40185
v 0.370346 39.81627 11.40185
v -12.17156 40.03699 11.26025
v -17.04615 164.8802 16.18268
v -13.39983 172.7549 -0.840459
v -43.90725 177.4082 15.01148
v -22.48632 172.5502 -14.41778
v -42.63204 185.7523 6.149377
v -45.88633 180.5486 -4.76954
v -10.81893 158.2463 -7.86176
v -15.51473 144.3434 -9.362803
v -18.51114 138.698 7.557767
v -25.67884 145.7035 9.035871
v -22.48632 172.5502 -14.41778
v -9.467325 168.8331 -10.73632
v -9.172531 132.354 -1.972113
v -16.35623 132.424 7.152087
v -13.39983 172.7549 -0.840459
v -17.04615 164.8802 16.18268
v -12.44085 174.3096 14.23902
v -13.28912 125.9906 -4.807987
v -17.81352 124.6891 7.623024
v -12.03203 177.4553 -2.851045
v -15.5319 102.9044 -6.226279
v -22.33201 117.1759 7.081031
v -7.44289 98.42596 0.239878
v -12.03203 177.4553 -2.851045
v -12.44085 174.3096 14.23902
vn 0.561288 -0.171287 0.809701
vn -0.000001 -0.6125 0.790471
vn 0.422506 -0.690039 0.587652
vn -0.000001 0.309967 0.950747
vn 0.467611 0.253223 0.846888
vn -0.000001 0.465303 0.885152
vn 0.86803 -0.494439 -0.045333
vn 0.874267 -0.374548 0.308822
vn -0.000001 -0.535492 0.844541
vn 0.647112 0.115573 0.753584
vn 0.996434 0.044133 0.07192
vn 0.689001 0.184886 0.700782
vn 0.911414 0.40692 0.061156
vn 0 0.180051 0.983657
vn -0.257205 0.477364 0.84022
vn 0.329389 0.342214 0.879996
vn -0.458093 0.887608 -0.047977
vn 0 0.992691 0.120682
vn 0 0.998542 -0.053981
vn 0.588072 0.393746 0.706495
vn 0.883815 0.461141 -0.07887
vn 0 0.04568 0.998956
vn -0.278209 -0.927661 0.24909
vn -0.288595 0.348182 0.891898
vn 0.000001 -0.494212 0.869342
vn 0.313304 0.202484 -0.927815
vn 0.680601 -0.229037 -0.695935
vn -0.018898 0.536019 -0.843995
vn 0.571974 0.331244 0.750415
vn 0.836663 0.437982 -0.328889
vn 0.868667 -0.031866 0.494371
vn 0.952967 0.145539 -0.265844
vn 0.145478 0.130151 -0.980763
vn 0.011922 -0.519774 -0.854221
vn -0.548108 -0.419833 0.723407
vn -0.481921 0.505551 0.715661
vn 0.995747 -0.091832 0.00736
vn 0.0832 0.130546 0.987945
vn 0.551998 -0.832813 -0.041487
vn 0.0272 0.034637 0.99903
vn 0.385305 0.90065 0.200922
vn 0.665998 0.543746 -0.510674
vn 0.47529 -0.474558 -0.740874
vn -0.686798 0.726844 -0.002438
vn 0.16909 0.57348 -0.80158
vn -0.538785 0.415842 -0.732657
vn 0.842541 0.536115 -0.052023
vn -0.375305 0.060794 -0.924906
vn 0.517497 0.615289 0.594657
vn 0.453098 -0.633653 0.627046
vn -0.615822 0.55869 -0.555544
vn 0.352988 0.849984 0.391059
vn 0.373098 -0.532406 0.75983
vn -0.719782 0.059419 0.691653
vn -0.414598 -0.717184 0.560139
vn -0.414598 -0.717184 0.560139
vn -0.414598 -0.717184 0.560139
vn 0.69037 -0.13011 0.711661
vn 0.948291 -0.277995 -0.153177
vn -0.12315 -0.394884 -0.91044
vn -0.599199 0.01719 0.800416
vn 0.389369 -0.587093 0.709728
vn 0.635892 -0.750109 -0.181598
vn 0.8125 -0.44553 0.375962
vn 0.756924 -0.649717 -0.070244
vn 0.99632 -0.011845 -0.084891
vn 0.814806 -0.007708 0.579683
vn 0.874726 0.478823 -0.074716
vn 0.7839 0.420048 0.457232
vn 0.885245 0.465124 0.000366
vn 0.739213 0.429532 -0.518717
vn 0.000001 0.626558 -0.779375
vn -0 0.681396 0.731915
vn 0.993095 0.117035 -0.00813
vn 0 0.804263 0.594273
vn 0.000002 0.640293 -0.768131
vn 0.000001 -0.392537 -0.919736
vn -0.000001 0.188604 0.982053
vn -0.000001 -0.165772 0.986164
vn 0.759011 0.46341 -0.457334
vn 0.863157 0.459102 -0.210204
vn 0.000002 0.541681 -0.840584
vn 0.894959 0.390776 0.215273
vn 0.942623 -0.027859 0.332694
vn 0.859595 -0.466135 -0.20932
vn 0.813204 -0.068235 -0.577965
vn 0.74569 0.636727 -0.196279
vn 0.525782 0.741511 0.416792
vn 0.690443 0.370042 0.621577
vn 0.917068 -0.055744 0.394815
vn 0.912165 -0.407214 0.046171
vn 0.649192 -0.637452 -0.414976
vn 0.468821 -0.508108 -0.722519
vn 0.717876 0.137198 -0.682518
vn 0.785419 0.575181 -0.228655
vn 0.703279 0.047679 -0.709313
vn 0.020722 0.274303 0.96142
vn 0.129818 -0.099438 0.986539
vn 0.673115 -0.074806 0.735745
vn 0.378051 0.362288 0.851953
vn 0.5887 -0.356439 0.725523
vn 0.378051 0.362288 0.851953
vn 0.417467 -0.400896 0.815478
vn 0.380805 0.362906 0.850463
vn 0.72895 -0.382894 0.567472
vn 0.619953 0.401348 0.674225
vn -0.285971 0.746433 0.600882
vn -0.599408 0.351511 0.719132
vn -0.812107 -0.165394 0.559577
vn 0.878243 -0.052235 -0.475353
vn 0.606292 -0.791414 0.077932
vn 0.173557 -0.929038 0.326752
vn 0.532051 -0.832551 0.154212
vn 0.845262 -0.501035 -0.185733
vn 0.968494 0.242695 -0.055852
vn 0.254621 0.944265 0.208643
vn 0.039937 0.902417 0.42901
vn 0.0303 0.900432 0.433941
vn 0.029998 0.900696 0.433413
vn -0.543045 0.839334 -0.024911
vn -0.917434 0.373009 0.138489
vn 0.165884 -0.767703 -0.618963
vn -0.172422 -0.920795 -0.349867
vn 0.066661 -0.911477 -0.405914
vn 0.556989 -0.491337 -0.669591
vn 0.675292 0.046316 -0.736094
vn 0.017562 0.904233 -0.426679
vn -0.324672 0.913751 -0.244229
vn -0.335162 0.911569 -0.238134
vn -0.335449 0.911301 -0.238754
vn -0.709683 0.469196 -0.525552
vn -0.806024 -0.012807 -0.591744
vn -0.247578 0.042209 -0.967948
vn -0.208957 -0.287151 -0.934817
vn -0.420712 -0.369108 -0.82871
vn -0.16816 -0.511713 -0.842539
vn -0.129817 0.137193 -0.982001
vn -0.49895 0.389423 -0.774209
vn -0.504512 0.388201 -0.771212
vn -0.499196 0.402937 -0.767102
vn -0.782397 -0.360515 -0.507823
vn -0.551584 -0.34946 -0.757386
vn -0.255621 0.334754 -0.906972
vn -0.551584 -0.34946 -0.757386
vn -0.413239 0.400536 -0.817805
vn -0.548906 -0.350475 -0.758861
vn -0.040796 0.331998 -0.942398
vn -0.27747 -0.426738 -0.860759
vn -0.629975 -0.719617 -0.292031
vn -0.912428 -0.379351 -0.153517
vn 0.3315 0.731196 -0.596204
vn -0.074506 0.921959 -0.380053
vn 0.250273 0.774339 -0.581174
vn 0.61652 0.390266 -0.68381
vn 0.776471 -0.245335 -0.580434
vn -0.146144 -0.951911 -0.269273
vn -0.440134 -0.872876 -0.210642
vn -0.449192 -0.869542 -0.205239
vn -0.449132 -0.869555 -0.205317
vn 0.683841 0.712491 0.157222
vn 0.305513 0.910619 0.278273
vn 0.47917 0.870955 0.108785
vn 0.914356 0.382348 -0.133278
vn 0.226698 -0.898854 0.375059
vn -0.073764 -0.884428 0.460811
vn -0.083736 -0.880361 0.466854
vn -0.083524 -0.880234 0.467131
vn -0.227526 -0.8236 0.519534
vn -0.081023 -0.495255 0.864961
vn -0.3723 -0.395269 0.839735
vn 0.692688 0.255135 0.674603
vn 0.510045 0.362501 0.78003
vn 0.67316 0.47435 0.567317
vn 0.736804 -0.182155 0.651107
vn 0.336329 -0.37739 0.862821
vn 0.330918 -0.375376 0.865787
vn 0.322146 -0.404939 0.855714
vn 0.497307 0.100488 -0.861736
vn 0.370987 -0.090184 -0.924249
vn -0.000001 -0.067392 -0.997727
vn -0.000002 0.256709 -0.966489
vn 0.426471 0.426327 -0.797727
vn 0.732373 0.207311 -0.648577
vn 0.67861 -0.064175 -0.73169
vn 0.363479 -0.146053 -0.920082
vn -0.000001 -0.149486 -0.988764
vn -0.000002 0.531445 -0.847093
vn 0.377204 0.549098 -0.745794
vn -0.000002 0.595557 -0.803313
vn -0.532164 -0.739631 0.412004
vn 0.003915 -0.994869 -0.101101
vn 0.09562 -0.93713 0.335626
vn -0.39729 -0.526609 -0.751561
vn -0.548108 -0.419833 0.723407
vn -0.771891 -0.55265 -0.314265
vn 0.011922 -0.519774 -0.854221
vn -0.643393 -0.418817 -0.640811
vn 0.145478 0.130151 -0.980763
vn -0.192082 -0.923307 -0.332578
vn -0.481921 0.505551 0.715661
vn -0.961057 -0.05327 -0.271167
vn 0.036326 -0.997839 -0.054757
vn -0.407414 0.023376 0.912944
vn -0.483677 -0.709167 0.512971
vn 0.551998 -0.832813 -0.041487
vn 0.0272 0.034637 0.99903
vn -0.700377 -0.626457 -0.342089
vn 0.47529 -0.474558 -0.740874
vn -0.686798 0.726844 -0.002438
vn -0.588808 -0.795843 -0.141209
vn -0.375305 0.060794 -0.924906
vn 0.517497 0.615289 0.594657
vn -0.708389 -0.705116 0.031565
vn -0.538785 0.415842 -0.732657
vn 0.453098 -0.633653 0.627046
vn -0.821645 -0.569916 0.009802
vn -0.615822 0.55869 -0.555544
vn 0.373098 -0.532406 0.75983
vn -0.719782 0.059419 0.691653
vn -0.12315 -0.394884 -0.91044
vn -0.599199 0.01719 0.800416
vn 0.635892 -0.750109 -0.181598
vn 0.389369 -0.587093 0.709728
vn 0.506255 -0.527898 0.681931
vn -0.683752 -0.242414 -0.688272
vn -0.546181 0.71201 0.441281
vn -0.998093 0.050739 -0.035154
vn -0.988598 -0.104553 -0.108366
vn -0.991073 -0.037162 0.128038
vn -0.960111 0.198261 0.197178
vn -0.991221 0.125887 0.040415
vn -0.959916 -0.278032 -0.035487
vn -0.921795 0.120407 0.368506
vn -0.937622 -0.286726 0.196605
vn -0.921471 -0.115921 0.370748
vn -0.1475 -0.027373 0.988683
vn -0.200703 -0.05036 0.978357
vn 0.000002 -0.146573 0.9892
vn -0.214904 -0.191498 0.957677
vn -0.212211 -0.29298 0.932271
vn 0.000001 -0.026423 0.999651
vn 0.000002 -0.286306 0.958138
vn 0.611499 -0.363138 -0.702993
vn 0.627896 -0.17915 -0.757398
vn 0.728085 -0.573228 -0.375902
vn 0.722243 -0.688987 -0.060519
vn 0.583389 -0.762076 0.280885
vn 0.705049 -0.595941 -0.384397
vn -0.142509 0.560724 0.815647
vn 0.013199 0.627261 0.778698
vn -0.288595 0.348182 0.891898
vn 0.588072 0.393746 0.706495
vn 0.968097 0.226274 0.107654
vn 0.883815 0.461141 -0.07887
vn -0.231999 -0.848811 -0.475075
vn -0.99878 -0.048661 -0.008436
vn -0.937413 0.264706 0.226247
vn 0.573814 -0.221391 -0.788495
vn 0.85168 -0.385905 -0.354568
vn 0.985466 -0.162694 -0.048856
vn 0.039701 -0.756448 -0.652848
vn -0.278209 -0.927661 0.24909
vn -0.035301 -0.259578 0.965077
vn 0.0329 0.379183 0.924737
vn -0.995477 0.092106 -0.023277
vn -0.072602 -0.270226 0.960056
vn 0.990816 -0.069168 -0.116187
vn -0.069698 0.020725 -0.997353
vn -0.0276 0.353538 -0.935013
vn -0.995331 -0.011654 -0.095814
vn -0.132304 0.772418 0.621182
vn 0.944175 -0.301802 -0.132099
vn -0.120702 -0.258535 -0.958431
vn -0.107405 -0.278303 -0.954469
vn -0.925472 0.284168 -0.250498
vn -0.0481 0.982609 0.179347
vn -0.132304 0.772418 0.621182
vn 0.928779 0.267445 -0.256598
vn -0.0481 0.982609 0.179347
vn 0.998079 0.060101 -0.015049
vn 0.928779 0.267445 -0.256598
vn 0.283196 -0.206706 -0.936522
vn -0.995124 -0.004878 -0.098515
vn -0.056601 -0.114286 -0.991834
vn -0.110502 0.188824 -0.975774
vn -0.925472 0.284168 -0.250498
vn -0.019599 0.20867 0.97779
vn -0.025201 0.505624 0.862386
vn -0.936808 0.20844 0.280971
vn 0.924696 0.249146 0.287862
vn -0.038902 0.770783 0.635909
vn -0.2787 0.070866 -0.95776
vn -0.0245 -0.194378 -0.980621
vn -0.897403 -0.048815 -0.438502
vn 0.874789 0.118493 -0.469791
vn -0.0407 0.14131 0.989129
vn 0.0122 -0.701549 0.712517
vn 0.0129 -0.447521 0.894181
vn 0.0091 -0.638868 0.769263
vn 0.0163 -0.938791 -0.344103
vn 0.013101 -0.96799 -0.250646
vn 0.014201 -0.808142 -0.588817
vn 0.0041 -0.249107 -0.968467
vn -0.231689 -0.232814 -0.94452
vn -0.231689 -0.232814 -0.94452
vn -0.454406 -0.20333 -0.867279
vn 0.995308 0.084769 0.046659
vn -0.998703 0.014515 -0.0488
vn 0.014701 -0.98725 0.158498
vn 0.010301 -0.917649 0.397259
vn 0.372393 0.870149 0.322745
vn -0.257205 0.477364 0.84022
vn 0.302485 0.951085 0.062777
vn -0.018898 0.536019 -0.843995
vn -0.346511 0.937852 -0.019107
vn 0.313304 0.202484 -0.927815
vn 0.680601 -0.229037 -0.695935
vn 0.562371 -0.289379 -0.774596
vn 0.000001 -0.10947 -0.99399
vn 0.86803 -0.494439 -0.045333
vn 0.874267 -0.374548 0.308822
vn 0.000001 -0.648022 -0.761622
vn -0.018898 0.536019 -0.843995
vn 0.097503 0.660548 -0.744426
vn 0.000001 0.608655 -0.793435
vn 0.753388 -0.056287 -0.655162
vn -0.019102 0.279439 -0.959973
vn 0.996434 0.044133 0.07192
vn 0.302485 0.951085 0.062777
vn 0.92989 0.367222 0.021285
vn 0.372393 0.870149 0.322745
vn 0.679877 0.441412 -0.585596
vn 0.911414 0.40692 0.061156
vn 0.749202 0.468204 -0.468489
vn 0.000001 0.953203 -0.302333
vn 0.573814 -0.221391 -0.788495
vn -0.066098 -0.404057 -0.912343
vn 0.883815 0.461141 -0.07887
vn -0.058099 -0.904882 -0.421679
vn -0.231999 -0.848811 -0.475075
vn -0.278209 -0.927661 0.24909
vn 0 0.883646 0.468155
vn 0 0.992691 0.120682
vn -0.507908 0.84231 0.1804
vn -0.5186 0.838602 0.166737
vn -0.56129 -0.171287 0.8097
vn -0.422507 -0.690039 0.587652
vn -0.467612 0.253223 0.846887
vn -0.874268 -0.374548 0.30882
vn -0.86803 -0.494438 -0.045334
vn -0.647112 0.115572 0.753584
vn -0.996434 0.044131 0.071921
vn -0.689001 0.184885 0.700782
vn -0.911415 0.406918 0.061156
vn 0.257204 0.477364 0.84022
vn -0.32939 0.342214 0.879996
vn 0.458094 0.887608 -0.047977
vn -0.495599 0.477075 0.725797
vn -0.864068 0.481038 -0.14829
vn -0.743994 0.242542 0.622613
vn -0.313302 0.202484 -0.927816
vn 0.018901 0.535967 -0.844027
vn -0.6806 -0.229036 -0.695936
vn -0.585855 0.705442 0.398906
vn -0.419215 0.80418 0.421371
vn -0.868289 0.112277 0.483185
vn -0.957982 -0.081817 -0.274911
vn -0.33425 -0.820182 0.464305
vn 0.010309 -0.937005 -0.349163
vn 0.564396 0.136368 0.814163
vn 0.506807 0.82752 0.241572
vn -0.427121 0.666039 0.611523
vn -0.897577 -0.342646 -0.2774
vn -0.311285 -0.936583 0.16098
vn 0.375595 0.278567 0.883928
vn -0.651584 0.686199 0.323373
vn -0.781217 0.465817 -0.415589
vn -0.239191 -0.396853 -0.886169
vn 0.438698 0.814162 0.380375
vn -0.34281 0.671748 -0.656685
vn -0.948491 0.316028 0.02218
vn 0.305913 0.369301 -0.877516
vn 0.313298 0.113415 -0.942858
vn 0.363793 0.461205 0.809287
vn -0.184392 -0.579523 0.793822
vn -0.494822 0.811932 0.309706
vn 0.369298 0.558048 -0.743102
vn -0.1141 -0.438792 0.891315
vn 0.77373 0.3533 0.525853
vn 0.522728 -0.725096 0.448321
vn 0.522728 -0.725096 0.448321
vn 0.522728 -0.725096 0.448321
vn -0.684909 0.3155 0.65678
vn -0.935842 -0.344281 0.075305
vn 0.140158 -0.869292 -0.474012
vn 0.597352 0.528665 0.603063
vn -0.365225 -0.0344 0.930284
vn -0.604107 -0.722093 0.3371
vn -0.812502 -0.445528 0.37596
vn -0.99632 -0.011843 -0.084894
vn -0.756926 -0.649715 -0.070246
vn -0.814807 -0.007707 0.579681
vn -0.874725 0.478825 -0.074718
vn -0.7839 0.420049 0.45723
vn -0.885244 0.465126 0.000364
vn -0.739211 0.429534 -0.518718
vn -0.993094 0.117037 -0.008132
vn -0.759009 0.463412 -0.457335
vn -0.863197 0.459026 -0.210207
vn -0.872328 0.460022 0.165604
vn -0.87069 -0.489583 0.04698
vn -0.90186 0.104707 0.419148
vn -0.8686 -0.236928 -0.435201
vn -0.488569 0.849214 0.200342
vn -0.770506 0.552865 -0.317271
vn -0.625911 0.569923 0.532376
vn -0.869527 0.098406 0.483982
vn -0.896793 -0.348489 0.272614
vn -0.680904 -0.723897 -0.1111
vn -0.535673 -0.707447 -0.461057
vn -0.787544 -0.079746 -0.611077
vn -0.812617 0.484982 -0.323183
vn -0.774697 -0.173355 -0.608105
vn -0.020725 0.274302 0.96142
vn -0.673117 -0.074807 0.735743
vn -0.129775 -0.099377 0.986551
vn -0.378053 0.362287 0.851953
vn -0.588702 -0.35644 0.725521
vn -0.378053 0.362287 0.851953
vn -0.417469 -0.400897 0.815476
vn -0.380807 0.362905 0.850462
vn -0.728951 -0.382895 0.56747
vn -0.619954 0.401347 0.674224
vn 0.599406 0.35151 0.719134
vn 0.285927 0.74639 0.600955
vn 0.812106 -0.165395 0.559579
vn -0.606128 -0.791605 0.077269
vn -0.878081 -0.052245 -0.475651
vn -0.173558 -0.929038 0.326751
vn -0.532248 -0.832325 0.154749
vn -0.845266 -0.501004 -0.185799
vn -0.968452 0.242753 -0.056316
vn -0.254369 0.94444 0.208159
vn -0.039688 0.902675 0.428488
vn -0.030205 0.90053 0.433744
vn -0.03015 0.900563 0.433678
vn 0.917434 0.373009 0.138492
vn 0.543013 0.83936 -0.024741
vn -0.165459 -0.767467 -0.619369
vn 0.172665 -0.920571 -0.350337
vn -0.066971 -0.91164 -0.405497
vn -0.557206 -0.491331 -0.669414
vn -0.675083 0.046311 -0.736287
vn -0.017298 0.904077 -0.427019
vn 0.324797 0.91361 -0.244589
vn 0.335422 0.911353 -0.238596
vn 0.335444 0.911338 -0.238623
vn 0.709685 0.469197 -0.52555
vn 0.806026 -0.012806 -0.591742
vn 0.208959 -0.287149 -0.934816
vn 0.247581 0.04221 -0.967948
vn 0.420714 -0.369106 -0.82871
vn 0.168111 -0.511788 -0.842503
vn 0.129819 0.137195 -0.982
vn 0.498952 0.389425 -0.774207
vn 0.504514 0.388202 -0.77121
vn 0.499198 0.402939 -0.7671
vn 0.782399 -0.360514 -0.507821
vn 0.551586 -0.349458 -0.757385
vn 0.255624 0.334755 -0.906971
vn 0.551586 -0.349458 -0.757385
vn 0.413241 0.400537 -0.817803
vn 0.548908 -0.350474 -0.75886
vn 0.040799 0.332 -0.942397
vn 0.277472 -0.426737 -0.860759
vn 0.912429 -0.379351 -0.153515
vn 0.630023 -0.71955 -0.292093
vn -0.331235 0.731039 -0.596544
vn 0.074547 0.921897 -0.380196
vn -0.250315 0.774377 -0.581105
vn -0.616413 0.390266 -0.683906
vn -0.776499 -0.245396 -0.58037
vn 0.145983 -0.951975 -0.269134
vn 0.440139 -0.872841 -0.210775
vn 0.449198 -0.869508 -0.205372
vn 0.44928 -0.869416 -0.205581
vn -0.683667 0.71276 0.156757
vn -0.305363 0.910749 0.278009
vn -0.47917 0.870955 0.108785
vn -0.914353 0.382379 -0.133212
vn -0.226855 -0.898709 0.375312
vn 0.073763 -0.884428 0.46081
vn 0.083785 -0.880391 0.466789
vn 0.083685 -0.880294 0.466989
vn 0.227629 -0.823697 0.519335
vn 0.372298 -0.39527 0.839736
vn 0.081021 -0.495256 0.864961
vn -0.69269 0.255134 0.674601
vn -0.510047 0.362499 0.780029
vn -0.673161 0.474349 0.567316
vn -0.736805 -0.182156 0.651105
vn -0.336331 -0.377392 0.862819
vn -0.33092 -0.375377 0.865785
vn -0.322148 -0.404941 0.855713
vn -0.497309 0.100487 -0.861734
vn -0.370989 -0.090185 -0.924248
vn -0.732375 0.20731 -0.648575
vn -0.426475 0.426326 -0.797726
vn -0.678612 -0.064176 -0.731688
vn -0.363395 -0.146059 -0.920115
vn -0.377208 0.549097 -0.745793
vn 0.562057 -0.307783 0.7677
vn -0.056886 -0.530885 0.845533
vn 0.037448 -0.843438 0.535921
vn 0.419398 -0.865276 -0.274597
vn 0.564396 0.136368 0.814163
vn 0.010309 -0.937005 -0.349163
vn 0.79441 -0.602665 0.075554
vn 0.398119 -0.872435 0.283478
vn -0.33425 -0.820182 0.464305
vn 0.916237 -0.072631 0.393999
vn 0.506807 0.82752 0.241572
vn 0.962656 -0.177828 -0.204134
vn 0.405294 0.596943 0.692384
vn 0.00508 -0.818162 0.574965
vn -0.311285 -0.936583 0.16098
vn 0.42241 -0.749692 0.509443
vn 0.375595 0.278567 0.883928
vn -0.239191 -0.396853 -0.886169
vn 0.918272 -0.295295 -0.263777
vn 0.438698 0.814162 0.380375
vn 0.313298 0.113415 -0.942858
vn 0.86846 -0.490572 -0.071527
vn 0.363793 0.461205 0.809287
vn 0.305913 0.369301 -0.877516
vn 0.859568 -0.51092 0.010177
vn -0.184392 -0.579523 0.793822
vn 0.369298 0.558048 -0.743102
vn 0.930897 -0.361304 -0.053759
vn -0.1141 -0.438792 0.891315
vn 0.77373 0.3533 0.525853
vn 0.140158 -0.869292 -0.474012
vn 0.597352 0.528665 0.603063
vn -0.604107 -0.722093 0.3371
vn -0.365225 -0.0344 0.930284
vn -0.484503 -0.008972 0.874743
vn 0.693743 -0.593669 -0.407772
vn 0.51587 0.849907 -0.107406
vn 0.988077 0.013744 -0.153347
vn 0.999448 -0.015102 0.02959
vn 0.972956 -0.156654 -0.169751
vn 0.972874 0.2305 0.019668
vn 0.98822 0.109804 -0.106602
vn 0.954414 -0.295658 -0.040995
vn 0.953866 0.214464 0.210106
vn 0.956806 -0.226764 0.181937
vn 0.956838 -0.007724 0.290518
vn 0.147502 -0.027373 0.988683
vn 0.200706 -0.05036 0.978356
vn 0.214907 -0.191498 0.957676
vn 0.212215 -0.29298 0.93227
vn -0.611492 -0.363228 -0.702953
vn -0.728085 -0.573228 -0.375903
vn -0.627895 -0.17915 -0.757399
vn -0.722243 -0.688987 -0.06052
vn -0.58339 -0.762042 0.280978
vn -0.705048 -0.595941 -0.384398
vn -0.050201 0.889609 0.453956
vn -0.743994 0.242542 0.622613
vn 0.190307 0.844954 0.499837
vn -0.495599 0.477075 0.725797
vn -0.864068 0.481038 -0.14829
vn -0.951065 0.272035 0.146536
vn 0.144897 -0.92143 -0.360516
vn 0.133594 0.60201 -0.787234
vn 0.993697 -0.064681 -0.091558
vn -0.641112 -0.393615 -0.65882
vn -0.879193 -0.461987 -0.116567
vn -0.985513 -0.138189 0.098323
vn -0.098399 -0.92844 -0.358214
vn 0.1233 -0.494263 0.860524
vn 0.994818 0.070258 0.073488
vn 0.033001 0.553507 0.832191
vn -0.980695 -0.071906 0.181842
vn 0.177004 -0.832548 0.524913
vn -0.117605 0.961171 0.24964
vn 0.094903 -0.901331 -0.422606
vn 0.983075 0.080004 -0.164814
vn 0.223594 0.155377 0.962218
vn -0.96359 -0.178802 -0.198809
vn -0.0348 0.425347 -0.904361
vn -0.0174 0.437954 -0.898829
vn 0.928294 0.369691 -0.039984
vn 0.223594 0.155377 0.962218
vn 0.0481 0.701999 0.710552
vn -0.926299 0.374033 -0.045489
vn 0.0481 0.701999 0.710552
vn -0.926299 0.374033 -0.045489
vn -0.99808 0.057832 0.022184
vn -0.283108 0.367764 -0.885776
vn 0.056602 0.475347 -0.877976
vn 0.995115 0.052543 -0.08358
vn 0.0435 0.778323 -0.626355
vn 0.928294 0.369691 -0.039984
vn 0.0196 -0.389881 0.920657
vn 0.936833 0.009595 0.349645
vn 0.0252 -0.08049 0.996437
vn -0.9247 0.039056 0.378688
vn 0.0389 0.266663 0.963005
vn 0.278688 0.607425 -0.743887
vn 0.8974 0.211458 -0.387246
vn 0.0245 0.403212 -0.914778
vn -0.874788 0.366529 -0.316864
vn 0.040701 -0.451503 0.891341
vn -0.012199 -0.983367 0.18122
vn -0.009199 -0.964577 0.263641
vn -0.012999 -0.879454 0.475806
vn -0.0163 -0.571647 -0.820338
vn -0.0142 -0.324248 -0.945866
vn -0.0131 -0.649201 -0.760504
vn -0.24969 -0.495688 -0.831834
vn 0.0433 -0.512451 -0.857624
vn 0.0433 -0.512451 -0.857624
vn 0.332595 -0.484766 -0.808939
vn -0.995303 0.042677 0.086894
vn 0.998703 0.03987 -0.031658
vn -0.0147 -0.899623 -0.436421
vn -0.010299 -0.979537 -0.200999
vn -0.372393 0.870149 0.322744
vn -0.302485 0.951085 0.062776
vn 0.257204 0.477364 0.84022
vn 0.018901 0.535967 -0.844027
vn 0.346511 0.937851 -0.019107
vn -0.313302 0.202484 -0.927816
vn -0.6806 -0.229036 -0.695936
vn -0.56237 -0.289379 -0.774597
vn -0.86803 -0.494438 -0.045334
vn -0.874268 -0.374548 0.30882
vn 0.018901 0.535967 -0.844027
vn -0.097502 0.660547 -0.744426
vn -0.753389 -0.056288 -0.655162
vn -0.996434 0.044131 0.071921
vn -0.302485 0.951085 0.062776
vn -0.372393 0.870149 0.322744
vn -0.92989 0.367222 0.021284
vn -0.684596 0.412834 -0.600747
vn -0.911415 0.406918 0.061156
vn -0.749201 0.468205 -0.46849
vn -0.641112 -0.393615 -0.65882
vn -0.864068 0.481038 -0.14829
vn 0.144897 -0.92143 -0.360516
vn 0.507908 0.84231 0.1804
vn 0.5186 0.838602 0.166737
vt 0.4045 0.8624
vt 0.2435 0.8747
vt 0.3905 0.8275
vt 0.2435 0.9227
vt 0.3899 0.9385
vt 0.2435 0.9587
vt 0.4023 0.8068
vt 0.4642 0.8413
vt 0.2435 0.8573
vt 0.3349 0.7845
vt 0.3837 0.7643
vt 0.355 0.7334
vt 0.3963 0.7269
vt 0.2435 0.7535
vt 0.6212 0.9971
vt 0.3502 0.9817
vt 0.6518 0.4683
vt 0.6322 0.4726
vt 0.6322 0.4588
vt 0.3855 0.6781
vt 0.4361 0.6909
vt 0.2435 0.6762
vt 0.2435 0.6077
vt 0.3008 0.6359
vt 0.2435 0.6382
vt 0.6383 0.9955
vt 0.354 0.8859
vt 0.4363 0.9494
vt 0.8591 0.0835
vt 0.9224 0.1359
vt 0.851 0.1359
vt 0.9119 0.0835
vt 0.9362 0.1364
vt 0.9399 0.0928
vt 0.8396 0.0928
vt 0.8446 0.1364
vt 0.9211 0.1546
vt 0.8513 0.1546
vt 0.9606 0.1553
vt 0.8211 0.1553
vt 0.882 0.1174
vt 0.8815 0.2503
vt 0.9718 0.234
vt 0.8099 0.234
vt 0.8855 0.2885
vt 0.941 0.3386
vt 0.8865 0.3454
vt 0.9412 0.2863
vt 0.8408 0.2863
vt 0.8414 0.3386
vt 0.9691 0.3918
vt 0.8841 0.4191
vt 0.822 0.3909
vt 0.8944 0.4282
vt 0.8513 0.1546
vt 0.9211 0.1546
vt 0.882 0.1174
vt 0.868 0.0507
vt 0.9068 0.0507
vt 0.9357 0.0716
vt 0.8435 0.0716
vt 0.8698 0.0426
vt 0.9087 0.0426
vt 0.4458 0.7391
vt 0.5629 0.7566
vt 0.5124 0.7664
vt 0.4458 0.7585
vt 0.5324 0.8042
vt 0.4415 0.7835
vt 0.5101 0.8188
vt 0.5642 0.793
vt 0.5336 0.8261
vt 0.4506 0.8241
vt 0.5195 0.8639
vt 0.5731 0.9123
vt 0.6063 0.7934
vt 0.6272 0.8699
vt 0.4062 0.7778
vt 0.432 0.7298
vt 0.6201 0.7552
vt 0.5121 0.7454
vt 0.6519 0.7605
vt 0.7123 0.5687
vt 0.7266 0.5118
vt 0.8107 0.5118
vt 0.825 0.5687
vt 0.7123 0.5987
vt 0.6708 0.5679
vt 0.6956 0.4608
vt 0.7266 0.4251
vt 0.8107 0.4251
vt 0.8417 0.4608
vt 0.8665 0.5679
vt 0.825 0.5987
vt 0.7123 0.637
vt 0.825 0.637
vt 0.9287 0.8188
vt 0.7995 0.8394
vt 0.7925 0.6665
vt 0.9429 0.7282
vt 0.8818 0.6207
vt 0.9571 0.6376
vt 0.8959 0.53
vt 0.9713 0.547
vt 0.8686 0.4789
vt 0.9839 0.4331
vt 0.9444 0.8196
vt 0.9274 0.8276
vt 0.7996 0.8488
vt 0.7911 0.6572
vt 0.8662 0.6199
vt 0.8803 0.5293
vt 0.853 0.4781
vt 0.8699 0.4701
vt 0.9853 0.4244
vt 0.9995 0.4339
vt 0.9869 0.5478
vt 0.9727 0.6384
vt 0.9585 0.729
vt 0.9444 0.8196
vt 0.9274 0.8276
vt 0.8662 0.6199
vt 0.8803 0.5293
vt 0.853 0.4781
vt 0.8699 0.4701
vt 0.9853 0.4244
vt 0.9995 0.4339
vt 0.9869 0.5478
vt 0.9727 0.6384
vt 0.9585 0.729
vt 0.9287 0.8188
vt 0.7995 0.8394
vt 0.7925 0.6665
vt 0.8818 0.6207
vt 0.8959 0.53
vt 0.8686 0.4789
vt 0.9839 0.4331
vt 0.9713 0.547
vt 0.9571 0.6376
vt 0.9429 0.7282
vt 0.7312 0.8259
vt 0.6625 0.7434
vt 0.6542 0.6307
vt 0.5938 0.661
vt 0.5855 0.5482
vt 0.525 0.5786
vt 0.5799 0.4949
vt 0.4435 0.474
vt 0.717 0.8296
vt 0.7378 0.8338
vt 0.6684 0.627
vt 0.5997 0.5445
vt 0.5941 0.4912
vt 0.5732 0.4869
vt 0.4369 0.466
vt 0.4293 0.4777
vt 0.5108 0.5823
vt 0.5796 0.6647
vt 0.6483 0.7471
vt 0.6684 0.627
vt 0.5997 0.5445
vt 0.5941 0.4912
vt 0.5732 0.4869
vt 0.4293 0.4777
vt 0.5108 0.5823
vt 0.5796 0.6647
vt 0.6483 0.7471
vt 0.717 0.8296
vt 0.7312 0.8259
vt 0.7378 0.8338
vt 0.6542 0.6307
vt 0.5855 0.5482
vt 0.5799 0.4949
vt 0.4435 0.474
vt 0.525 0.5786
vt 0.5938 0.661
vt 0.6625 0.7434
vt 0.5275 0.4003
vt 0.5352 0.3451
vt 0.5907 0.3413
vt 0.5894 0.3963
vt 0.518 0.4264
vt 0.4774 0.3964
vt 0.5128 0.2952
vt 0.5403 0.2601
vt 0.5918 0.2562
vt 0.5864 0.4227
vt 0.5119 0.4598
vt 0.5803 0.4565
vt 0.7563 0.0518
vt 0.6997 0.0431
vt 0.7388 0.0431
vt 0.6822 0.0518
vt 0.7696 0.0943
vt 0.7543 0.1225
vt 0.6689 0.0943
vt 0.6963 0.1401
vt 0.6733 0.1379
vt 0.7422 0.1401
vt 0.7652 0.1379
vt 0.8038 0.1026
vt 0.8086 0.0941
vt 0.8218 0.1037
vt 0.7193 0.1532
vt 0.6492 0.1568
vt 0.7893 0.1568
vt 0.7193 0.2398
vt 0.638 0.2355
vt 0.8005 0.2355
vt 0.7193 0.2784
vt 0.6689 0.2878
vt 0.7696 0.2878
vt 0.7193 0.3408
vt 0.6692 0.3401
vt 0.7693 0.3401
vt 0.7193 0.384
vt 0.6413 0.3933
vt 0.7889 0.3925
vt 0.7193 0.4298
vt 0.673 0.0732
vt 0.7655 0.0732
vt 0.6997 0.0441
vt 0.7388 0.0441
vt 0.7912 0.099
vt 0.7781 0.1147
vt 0.8006 0.1145
vt 0.619 0.4425
vt 0.6097 0.4531
vt 0.6315 0.4813
vt 0.6533 0.4531
vt 0.6441 0.4425
vt 0.6023 0.4851
vt 0.6607 0.4851
vt 0.6147 0.5057
vt 0.6483 0.5057
vt 0.6313 0.439
vt 0.6229 0.4498
vt 0.6455 0.4776
vt 0.612 0.4808
vt 0.6226 0.5003
vt 0.6471 0.4378
vt 0.6436 0.4993
vt 0.6375 0.4864
vt 0.6383 0.4529
vt 0.6532 0.4788
vt 0.6554 0.4945
vt 0.6745 0.4862
vt 0.6732 0.4627
vt 0.1263 0.4721
vt 0.0978 0.6259
vt 0.1668 0.5556
vt 0.179 0.5935
vt 0.2197 0.5484
vt 0.2665 0.6038
vt 0.4214 0.55
vt 0.3197 0.401
vt 0.2785 0.4945
vt 0.4115 0.5925
vt 0.3524 0.4819
vt 0.3215 0.3962
vt 0.4265 0.4212
vt 0.2359 0.5302
vt 0.2517 0.3216
vt 0.1956 0.3782
vt 0.3777 0.3383
vt 0.3218 0.2898
vt 0.3753 0.3294
vt 0.4242 0.3723
vt 0.4841 0.3274
vt 0.4138 0.2405
vt 0.3518 0.1773
vt 0.4086 0.2344
vt 0.4941 0.2775
vt 0.4726 0.2344
vt 0.6334 0.4869
vt 0.6403 0.4566
vt 0.6409 0.4766
vt 0.6502 0.4868
vt 0.2059 0.2045
vt 0.4112 0.1227
vt 0.4257 0.1584
vt 0.4777 0.1222
vt 0.4123 0.1262
vt 0.5396 0.1559
vt 0.4799 0.1736
vt 0.4268 0.1615
vt 0.1881 0.0005
vt 0.1922 0.0653
vt 0.2819 0.0564
vt 0.2816 0.0528
vt 0.2487 0.1064
vt 0.526 0.073
vt 0.5237 0.0064
vt 0.4576 0.0581
vt 0.4596 0.0528
vt 0.2942 0.1364
vt 0.6344 0.4911
vt 0.6445 0.5002
vt 0.6532 0.4914
vt 0.6343 0.467
vt 0.6511 0.467
vt 0.6423 0.4541
vt 0.1668 0.5556
vt 0.0978 0.6259
vt 0.179 0.5935
vt 0.2197 0.5484
vt 0.4035 0.0691
vt 0.4016 0.0737
vt 0.6325 0.4835
vt 0.6523 0.4837
vt 0.6916 0.8477
vt 0.9228 0.8682
vt 0.6601 0.9369
vt 0.7201 0.9995
vt 0.8989 0.9183
vt 0.9221 0.9645
vt 0.1422 0.8868
vt 0.1011 0.8195
vt 0.2386 0.854
vt 0.0623 0.8069
vt 0.0005 0.8414
vt 0.2362 0.7877
vt 0.0668 0.9503
vt 0.1573 0.9348
vt 0.2401 0.9318
vt 0.1497 0.7678
vt 0.2381 0.7445
vt 0.0813 0.7643
vt 0.1167 0.9617
vt 0.114 0.9818
vt 0.0717 0.9385
vt 0.1168 0.7384
vt 0.0689 0.7269
vt 0.1305 0.9824
vt 0.237 0.9786
vt 0.1071 0.6765
vt 0.2371 0.667
vt 0.0301 0.691
vt 0.232 0.609
vt 0.1609 0.6312
vt 0.2193 0.6077
vt 0.6321 0.4945
vt 0.6321 0.4725
vt 0.651 0.4888
vt 0.6517 0.4682
vt 0.4045 0.8624
vt 0.3905 0.8275
vt 0.3899 0.9385
vt 0.4642 0.8413
vt 0.4023 0.8068
vt 0.3349 0.7845
vt 0.3837 0.7643
vt 0.355 0.7334
vt 0.3963 0.7269
vt 0.6212 0.9971
vt 0.3502 0.9817
vt 0.6518 0.4683
vt 0.3855 0.6781
vt 0.4361 0.6909
vt 0.3008 0.6359
vt 0.6383 0.9955
vt 0.4363 0.9494
vt 0.354 0.8859
vt 0.8591 0.0835
vt 0.851 0.1359
vt 0.9224 0.1359
vt 0.9119 0.0835
vt 0.9362 0.1364
vt 0.9399 0.0928
vt 0.8396 0.0928
vt 0.8446 0.1364
vt 0.8513 0.1546
vt 0.9211 0.1546
vt 0.9606 0.1553
vt 0.8211 0.1553
vt 0.882 0.1174
vt 0.8815 0.2503
vt 0.9718 0.234
vt 0.8099 0.234
vt 0.8855 0.2885
vt 0.8865 0.3454
vt 0.941 0.3386
vt 0.9412 0.2863
vt 0.8408 0.2863
vt 0.8414 0.3386
vt 0.8841 0.4191
vt 0.9691 0.3918
vt 0.822 0.3909
vt 0.8944 0.4282
vt 0.8513 0.1546
vt 0.882 0.1174
vt 0.9211 0.1546
vt 0.868 0.0507
vt 0.9068 0.0507
vt 0.9357 0.0716
vt 0.8435 0.0716
vt 0.8698 0.0426
vt 0.9087 0.0426
vt 0.4458 0.7391
vt 0.5124 0.7664
vt 0.5629 0.7566
vt 0.4458 0.7585
vt 0.5324 0.8042
vt 0.4415 0.7835
vt 0.5101 0.8188
vt 0.5642 0.793
vt 0.5195 0.8639
vt 0.6201 0.7552
vt 0.5121 0.7454
vt 0.7123 0.5687
vt 0.8107 0.5118
vt 0.7266 0.5118
vt 0.825 0.5687
vt 0.6708 0.5679
vt 0.7123 0.5987
vt 0.6956 0.4608
vt 0.7266 0.4251
vt 0.8107 0.4251
vt 0.8417 0.4608
vt 0.8665 0.5679
vt 0.825 0.5987
vt 0.7123 0.637
vt 0.825 0.637
vt 0.9287 0.8188
vt 0.7925 0.6665
vt 0.7995 0.8394
vt 0.9429 0.7282
vt 0.8818 0.6207
vt 0.9571 0.6376
vt 0.8959 0.53
vt 0.9713 0.547
vt 0.8686 0.4789
vt 0.9839 0.4331
vt 0.9274 0.8276
vt 0.9444 0.8196
vt 0.7996 0.8488
vt 0.8662 0.6199
vt 0.7911 0.6572
vt 0.8803 0.5293
vt 0.853 0.4781
vt 0.8699 0.4701
vt 0.9853 0.4244
vt 0.9995 0.4339
vt 0.9869 0.5478
vt 0.9727 0.6384
vt 0.9585 0.729
vt 0.9274 0.8276
vt 0.9444 0.8196
vt 0.8662 0.6199
vt 0.8803 0.5293
vt 0.853 0.4781
vt 0.8699 0.4701
vt 0.9853 0.4244
vt 0.9995 0.4339
vt 0.9869 0.5478
vt 0.9727 0.6384
vt 0.9585 0.729
vt 0.9287 0.8188
vt 0.7995 0.8394
vt 0.8818 0.6207
vt 0.7925 0.6665
vt 0.8959 0.53
vt 0.8686 0.4789
vt 0.9839 0.4331
vt 0.9713 0.547
vt 0.9571 0.6376
vt 0.9429 0.7282
vt 0.7312 0.8259
vt 0.6625 0.7434
vt 0.6542 0.6307
vt 0.5938 0.661
vt 0.5855 0.5482
vt 0.525 0.5786
vt 0.5799 0.4949
vt 0.4435 0.474
vt 0.7378 0.8338
vt 0.717 0.8296
vt 0.6684 0.627
vt 0.5997 0.5445
vt 0.5941 0.4912
vt 0.5732 0.4869
vt 0.4369 0.466
vt 0.4293 0.4777
vt 0.5108 0.5823
vt 0.5796 0.6647
vt 0.6483 0.7471
vt 0.6684 0.627
vt 0.5997 0.5445
vt 0.5941 0.4912
vt 0.5732 0.4869
vt 0.4293 0.4777
vt 0.5108 0.5823
vt 0.5796 0.6647
vt 0.6483 0.7471
vt 0.717 0.8296
vt 0.7378 0.8338
vt 0.7312 0.8259
vt 0.6542 0.6307
vt 0.5855 0.5482
vt 0.5799 0.4949
vt 0.4435 0.474
vt 0.525 0.5786
vt 0.5938 0.661
vt 0.6625 0.7434
vt 0.5275 0.4003
vt 0.5352 0.3451
vt 0.4774 0.3964
vt 0.518 0.4264
vt 0.5128 0.2952
vt 0.5403 0.2601
vt 0.5119 0.4598
vt 0.7563 0.0518
vt 0.7388 0.0431
vt 0.6997 0.0431
vt 0.6822 0.0518
vt 0.7696 0.0943
vt 0.6689 0.0943
vt 0.7543 0.1225
vt 0.6963 0.1401
vt 0.6733 0.1379
vt 0.7422 0.1401
vt 0.7652 0.1379
vt 0.8038 0.1026
vt 0.8218 0.1037
vt 0.8086 0.0941
vt 0.6492 0.1568
vt 0.7193 0.1532
vt 0.7893 0.1568
vt 0.638 0.2355
vt 0.7193 0.2398
vt 0.8005 0.2355
vt 0.6689 0.2878
vt 0.7193 0.2784
vt 0.7696 0.2878
vt 0.6692 0.3401
vt 0.7193 0.3408
vt 0.7693 0.3401
vt 0.6413 0.3933
vt 0.7193 0.384
vt 0.7889 0.3925
vt 0.7193 0.4298
vt 0.673 0.0732
vt 0.7655 0.0732
vt 0.6997 0.0441
vt 0.7388 0.0441
vt 0.7912 0.099
vt 0.7781 0.1147
vt 0.8006 0.1145
vt 0.619 0.4425
vt 0.6315 0.4813
vt 0.6097 0.4531
vt 0.6533 0.4531
vt 0.6441 0.4425
vt 0.6023 0.4851
vt 0.6607 0.4851
vt 0.6147 0.5057
vt 0.6483 0.5057
vt 0.6313 0.439
vt 0.6229 0.4498
vt 0.612 0.4808
vt 0.6226 0.5003
vt 0.6375 0.4864
vt 0.6532 0.4788
vt 0.6383 0.4529
vt 0.6554 0.4945
vt 0.6745 0.4862
vt 0.6732 0.4627
vt 0.1263 0.4721
vt 0.1668 0.5556
vt 0.0978 0.6259
vt 0.179 0.5935
vt 0.2665 0.6038
vt 0.2197 0.5484
vt 0.4214 0.55
vt 0.2785 0.4945
vt 0.3197 0.401
vt 0.4115 0.5925
vt 0.3524 0.4819
vt 0.3215 0.3962
vt 0.4265 0.4212
vt 0.2517 0.3216
vt 0.3777 0.3383
vt 0.1956 0.3782
vt 0.3753 0.3294
vt 0.3218 0.2898
vt 0.4841 0.3274
vt 0.4242 0.3723
vt 0.4138 0.2405
vt 0.3518 0.1773
vt 0.4086 0.2344
vt 0.4726 0.2344
vt 0.4941 0.2775
vt 0.6334 0.4869
vt 0.6409 0.4766
vt 0.6403 0.4566
vt 0.6502 0.4868
vt 0.2059 0.2045
vt 0.4257 0.1584
vt 0.4112 0.1227
vt 0.4777 0.1222
vt 0.5396 0.1559
vt 0.4123 0.1262
vt 0.4799 0.1736
vt 0.4268 0.1615
vt 0.1881 0.0005
vt 0.2819 0.0564
vt 0.1922 0.0653
vt 0.2816 0.0528
vt 0.2487 0.1064
vt 0.526 0.073
vt 0.4576 0.0581
vt 0.5237 0.0064
vt 0.4596 0.0528
vt 0.2942 0.1364
vt 0.6344 0.4911
vt 0.6532 0.4914
vt 0.6445 0.5002
vt 0.6343 0.467
vt 0.6423 0.4541
vt 0.6511 0.467
vt 0.1668 0.5556
vt 0.179 0.5935
vt 0.0978 0.6259
vt 0.2197 0.5484
vt 0.4035 0.0691
vt 0.4016 0.0737
vt 0.6325 0.4835
vt 0.6523 0.4837
vt 0.6916 0.8477
vt 0.6601 0.9369
vt 0.9228 0.8682
vt 0.7201 0.9995
vt 0.8989 0.9183
vt 0.9221 0.9645
vt 0.1422 0.8868
vt 0.1011 0.8195
vt 0.0623 0.8069
vt 0.0005 0.8414
vt 0.0668 0.9503
vt 0.1573 0.9348
vt 0.1497 0.7678
vt 0.0813 0.7643
vt 0.1167 0.9617
vt 0.0717 0.9385
vt 0.114 0.9818
vt 0.1168 0.7384
vt 0.0689 0.7269
vt 0.1305 0.9824
vt 0.1071 0.6765
vt 0.0301 0.691
vt 0.1609 0.6312
vt 0.651 0.4888
vt 0.6517 0.4682
f 1/1/1 3/3/3 2/2/2
f 4/4/4 1/1/1 2/2/2
f 4/4/4 6/6/6 5/5/5
f 3/3/3 8/8/8 7/7/7
f 3/3/3 1/1/1 8/8/8
f 3/3/3 9/9/9 2/2/2
f 9/9/9 3/3/3 10/10/10
f 7/7/7 10/10/10 3/3/3
f 10/10/10 7/7/7 11/11/11
f 4/4/4 5/5/5 1/1/1
f 8/8/8 1/1/1 5/5/5
f 11/11/11 12/12/12 10/10/10
f 12/12/12 11/11/11 13/13/13
f 10/10/10 14/14/14 9/9/9
f 14/14/14 10/10/10 12/12/12
f 8/8/8 5/5/5 15/15/15
f 16/16/16 5/5/5 6/6/6
f 17/17/17 19/19/19 18/18/18
f 13/13/13 20/20/20 12/12/12
f 20/20/20 13/13/13 21/21/21
f 12/12/12 22/22/22 14/14/14
f 22/22/22 12/12/12 20/20/20
f 23/23/23 25/25/25 24/24/24
f 20/20/20 24/24/24 22/22/22
f 22/22/22 24/24/24 25/25/25
f 26/26/26 28/28/28 27/27/27
f 29/29/29 31/31/31 30/30/30
f 29/29/29 30/30/30 32/32/32
f 32/32/32 30/30/30 33/33/33
f 32/32/32 33/33/33 34/34/34
f 35/35/35 36/36/36 31/31/31
f 35/35/35 31/31/31 29/29/29
f 31/31/31 38/38/38 37/37/37
f 31/31/31 37/37/37 30/30/30
f 30/30/30 37/37/37 39/39/39
f 30/30/30 39/39/39 33/33/33
f 36/36/36 40/40/40 38/38/38
f 36/36/36 38/38/38 31/31/31
f 41/41/41 42/42/42 37/37/37
f 42/42/42 43/43/43 37/37/37
f 38/38/38 44/44/44 41/41/41
f 44/44/44 42/42/42 41/41/41
f 45/45/45 47/47/47 46/46/46
f 45/45/45 46/46/46 48/48/48
f 49/49/49 50/50/50 47/47/47
f 49/49/49 47/47/47 45/45/45
f 47/47/47 52/52/52 51/51/51
f 47/47/47 51/51/51 46/46/46
f 50/50/50 53/53/53 47/47/47
f 53/53/53 52/52/52 47/47/47
f 52/52/52 54/54/54 51/51/51
f 53/53/53 54/54/54 52/52/52
f 55/55/55 57/57/57 56/56/56
f 43/43/43 39/39/39 37/37/37
f 44/44/44 38/38/38 40/40/40
f 43/43/43 42/42/42 45/45/45
f 45/45/45 48/48/48 43/43/43
f 45/45/45 44/44/44 49/49/49
f 44/44/44 45/45/45 42/42/42
f 32/32/32 58/58/58 29/29/29
f 58/58/58 32/32/32 59/59/59
f 34/34/34 59/59/59 32/32/32
f 59/59/59 34/34/34 60/60/60
f 29/29/29 61/61/61 35/35/35
f 61/61/61 29/29/29 58/58/58
f 59/59/59 62/62/62 58/58/58
f 62/62/62 59/59/59 63/63/63
f 60/60/60 63/63/63 59/59/59
f 61/61/61 58/58/58 62/62/62
f 64/64/64 66/66/66 65/65/65
f 64/64/64 67/67/67 66/66/66
f 67/67/67 68/68/68 66/66/66
f 67/67/67 69/69/69 68/68/68
f 69/69/69 70/70/70 68/68/68
f 66/66/66 68/68/68 71/71/71
f 68/68/68 72/72/72 71/71/71
f 73/73/73 74/74/74 70/70/70
f 73/73/73 75/75/75 74/74/74
f 76/76/76 71/71/71 72/72/72
f 70/70/70 72/72/72 68/68/68
f 74/74/74 72/72/72 70/70/70
f 72/72/72 74/74/74 77/77/77
f 75/75/75 77/77/77 74/74/74
f 67/67/67 78/78/78 69/69/69
f 79/79/79 78/78/78 67/67/67
f 67/67/67 64/64/64 79/79/79
f 69/69/69 73/73/73 70/70/70
f 73/73/73 69/69/69 78/78/78
f 80/80/80 66/66/66 71/71/71
f 66/66/66 80/80/80 81/81/81
f 76/76/76 80/80/80 71/71/71
f 80/80/80 76/76/76 82/82/82
f 83/83/83 85/85/85 84/84/84
f 83/83/83 86/86/86 85/85/85
f 83/83/83 88/88/88 87/87/87
f 83/83/83 89/89/89 88/88/88
f 83/83/83 84/84/84 89/89/89
f 84/84/84 90/90/90 89/89/89
f 84/84/84 91/91/91 90/90/90
f 84/84/84 85/85/85 91/91/91
f 85/85/85 92/92/92 91/91/91
f 85/85/85 93/93/93 92/92/92
f 85/85/85 86/86/86 93/93/93
f 86/86/86 94/94/94 93/93/93
f 86/86/86 87/87/87 94/94/94
f 86/86/86 83/83/83 87/87/87
f 87/87/87 88/88/88 95/95/95
f 93/93/93 94/94/94 96/96/96
f 94/94/94 95/95/95 96/96/96
f 94/94/94 87/87/87 95/95/95
f 97/97/97 99/99/99 98/98/98
f 97/97/97 100/100/100 99/99/99
f 100/100/100 101/101/101 99/99/99
f 100/100/100 102/102/102 101/101/101
f 102/102/102 103/103/103 101/101/101
f 102/102/102 104/104/104 103/103/103
f 104/104/104 105/105/105 103/103/103
f 104/104/104 106/106/106 105/105/105
f 97/97/97 108/108/108 107/107/107
f 97/97/97 109/109/109 108/108/108
f 97/97/97 98/98/98 109/109/109
f 99/99/99 111/111/111 110/110/110
f 99/99/99 101/101/101 111/111/111
f 101/101/101 112/112/112 111/111/111
f 101/101/101 103/103/103 112/112/112
f 103/103/103 113/113/113 112/112/112
f 103/103/103 105/105/105 113/113/113
f 105/105/105 114/114/114 113/113/113
f 105/105/105 115/115/115 114/114/114
f 105/105/105 106/106/106 115/115/115
f 106/106/106 116/116/116 115/115/115
f 106/106/106 117/117/117 116/116/116
f 106/106/106 104/104/104 117/117/117
f 104/104/104 118/118/118 117/117/117
f 104/104/104 102/102/102 118/118/118
f 102/102/102 119/119/119 118/118/118
f 102/102/102 100/100/100 119/119/119
f 100/100/100 107/107/107 119/119/119
f 100/100/100 97/97/97 107/107/107
f 107/107/107 121/121/121 120/120/120
f 107/107/107 108/108/108 121/121/121
f 108/108/108 109/109/109 121/121/121
f 110/110/110 111/111/111 122/122/122
f 111/111/111 123/123/123 122/122/122
f 111/111/111 112/112/112 123/123/123
f 112/112/112 124/124/124 123/123/123
f 112/112/112 113/113/113 124/124/124
f 113/113/113 125/125/125 124/124/124
f 113/113/113 114/114/114 125/125/125
f 114/114/114 126/126/126 125/125/125
f 114/114/114 115/115/115 126/126/126
f 115/115/115 127/127/127 126/126/126
f 115/115/115 116/116/116 127/127/127
f 116/116/116 128/128/128 127/127/127
f 116/116/116 117/117/117 128/128/128
f 117/117/117 129/129/129 128/128/128
f 117/117/117 118/118/118 129/129/129
f 118/118/118 130/130/130 129/129/129
f 118/118/118 119/119/119 130/130/130
f 119/119/119 120/120/120 130/130/130
f 119/119/119 107/107/107 120/120/120
f 120/120/120 121/121/121 131/131/131
f 121/121/121 132/132/132 131/131/131
f 121/121/121 109/109/109 132/132/132
f 110/110/110 134/134/134 133/133/133
f 110/110/110 122/122/122 134/134/134
f 122/122/122 135/135/135 134/134/134
f 122/122/122 123/123/123 135/135/135
f 123/123/123 136/136/136 135/135/135
f 123/123/123 124/124/124 136/136/136
f 124/124/124 125/125/125 136/136/136
f 125/125/125 137/137/137 136/136/136
f 125/125/125 126/126/126 137/137/137
f 126/126/126 127/127/127 137/137/137
f 127/127/127 138/138/138 137/137/137
f 127/127/127 128/128/128 138/138/138
f 128/128/128 139/139/139 138/138/138
f 128/128/128 129/129/129 139/139/139
f 129/129/129 140/140/140 139/139/139
f 129/129/129 130/130/130 140/140/140
f 130/130/130 131/131/131 140/140/140
f 130/130/130 120/120/120 131/131/131
f 137/137/137 135/135/135 136/136/136
f 137/137/137 138/138/138 135/135/135
f 138/138/138 134/134/134 135/135/135
f 138/138/138 139/139/139 134/134/134
f 139/139/139 133/133/133 134/134/134
f 139/139/139 140/140/140 133/133/133
f 140/140/140 132/132/132 133/133/133
f 140/140/140 131/131/131 132/132/132
f 141/141/141 133/133/133 132/132/132
f 141/141/141 142/142/142 133/133/133
f 142/142/142 143/143/143 133/133/133
f 142/142/142 144/144/144 143/143/143
f 144/144/144 145/145/145 143/143/143
f 144/144/144 146/146/146 145/145/145
f 146/146/146 147/147/147 145/145/145
f 146/146/146 148/148/148 147/147/147
f 141/141/141 150/150/150 149/149/149
f 141/141/141 109/109/109 150/150/150
f 141/141/141 132/132/132 109/109/109
f 133/133/133 151/151/151 110/110/110
f 133/133/133 143/143/143 151/151/151
f 143/143/143 152/152/152 151/151/151
f 143/143/143 145/145/145 152/152/152
f 145/145/145 153/153/153 152/152/152
f 145/145/145 147/147/147 153/153/153
f 147/147/147 154/154/154 153/153/153
f 147/147/147 155/155/155 154/154/154
f 147/147/147 148/148/148 155/155/155
f 148/148/148 156/156/156 155/155/155
f 148/148/148 157/157/157 156/156/156
f 148/148/148 146/146/146 157/157/157
f 146/146/146 158/158/158 157/157/157
f 146/146/146 144/144/144 158/158/158
f 144/144/144 159/159/159 158/158/158
f 144/144/144 142/142/142 159/159/159
f 142/142/142 149/149/149 159/159/159
f 142/142/142 141/141/141 149/149/149
f 110/110/110 151/151/151 160/160/160
f 151/151/151 161/161/161 160/160/160
f 151/151/151 152/152/152 161/161/161
f 152/152/152 162/162/162 161/161/161
f 152/152/152 153/153/153 162/162/162
f 153/153/153 163/163/163 162/162/162
f 153/153/153 154/154/154 163/163/163
f 154/154/154 155/155/155 163/163/163
f 155/155/155 156/156/156 164/164/164
f 156/156/156 165/165/165 164/164/164
f 156/156/156 157/157/157 165/165/165
f 157/157/157 166/166/166 165/165/165
f 157/157/157 158/158/158 166/166/166
f 158/158/158 167/167/167 166/166/166
f 158/158/158 159/159/159 167/167/167
f 159/159/159 168/168/168 167/167/167
f 159/159/159 149/149/149 168/168/168
f 168/168/168 170/170/170 169/169/169
f 110/110/110 171/171/171 99/99/99
f 110/110/110 160/160/160 171/171/171
f 160/160/160 172/172/172 171/171/171
f 160/160/160 161/161/161 172/172/172
f 161/161/161 173/173/173 172/172/172
f 161/161/161 162/162/162 173/173/173
f 162/162/162 163/163/163 173/173/173
f 163/163/163 174/174/174 173/173/173
f 163/163/163 155/155/155 174/174/174
f 155/155/155 164/164/164 174/174/174
f 164/164/164 175/175/175 174/174/174
f 164/164/164 165/165/165 175/175/175
f 165/165/165 176/176/176 175/175/175
f 165/165/165 166/166/166 176/176/176
f 166/166/166 177/177/177 176/176/176
f 166/166/166 167/167/167 177/177/177
f 167/167/167 169/169/169 177/177/177
f 167/167/167 168/168/168 169/169/169
f 174/174/174 172/172/172 173/173/173
f 174/174/174 175/175/175 172/172/172
f 175/175/175 171/171/171 172/172/172
f 175/175/175 176/176/176 171/171/171
f 176/176/176 99/99/99 171/171/171
f 176/176/176 177/177/177 99/99/99
f 177/177/177 98/98/98 99/99/99
f 177/177/177 169/169/169 98/98/98
f 178/178/178 180/180/180 179/179/179
f 178/178/178 181/181/181 180/180/180
f 178/178/178 183/183/183 182/182/182
f 178/178/178 184/184/184 183/183/183
f 178/178/178 179/179/179 184/184/184
f 179/179/179 185/185/185 184/184/184
f 179/179/179 186/186/186 185/185/185
f 179/179/179 180/180/180 186/186/186
f 181/181/181 182/182/182 187/187/187
f 181/181/181 178/178/178 182/182/182
f 182/182/182 183/183/183 188/188/188
f 187/187/187 188/188/188 189/189/189
f 187/187/187 182/182/182 188/188/188
f 190/190/190 192/192/192 191/191/191
f 190/190/190 191/191/191 193/193/193
f 194/194/194 196/196/196 195/195/195
f 196/196/196 197/197/197 195/195/195
f 196/196/196 198/198/198 197/197/197
f 197/197/197 199/199/199 195/195/195
f 195/195/195 199/199/199 200/200/200
f 201/201/201 203/203/203 202/202/202
f 198/198/198 205/205/205 204/204/204
f 198/198/198 204/204/204 197/197/197
f 197/197/197 204/204/204 199/199/199
f 199/199/199 204/204/204 206/206/206
f 199/199/199 206/206/206 200/200/200
f 205/205/205 208/208/208 207/207/207
f 205/205/205 207/207/207 204/204/204
f 204/204/204 207/207/207 209/209/209
f 204/204/204 209/209/209 206/206/206
f 208/208/208 211/211/211 210/210/210
f 208/208/208 210/210/210 207/207/207
f 207/207/207 210/210/210 212/212/212
f 207/207/207 212/212/212 209/209/209
f 211/211/211 214/214/214 213/213/213
f 211/211/211 213/213/213 210/210/210
f 210/210/210 213/213/213 215/215/215
f 210/210/210 215/215/215 212/212/212
f 214/214/214 217/217/217 216/216/216
f 214/214/214 216/216/216 213/213/213
f 213/213/213 216/216/216 218/218/218
f 213/213/213 218/218/218 215/215/215
f 217/217/217 219/219/219 216/216/216
f 216/216/216 219/219/219 218/218/218
f 194/194/194 220/220/220 196/196/196
f 220/220/220 194/194/194 221/221/221
f 222/222/222 192/192/192 223/223/223
f 192/192/192 222/222/222 191/191/191
f 221/221/221 193/193/193 220/220/220
f 193/193/193 221/221/221 190/190/190
f 193/193/193 191/191/191 222/222/222
f 222/222/222 220/220/220 193/193/193
f 223/223/223 190/190/190 221/221/221
f 190/190/190 223/223/223 192/192/192
f 195/195/195 224/224/224 194/194/194
f 224/224/224 195/195/195 225/225/225
f 200/200/200 225/225/225 195/195/195
f 225/225/225 200/200/200 226/226/226
f 224/224/224 226/226/226 200/200/200
f 200/200/200 194/194/194 224/224/224
f 225/225/225 202/202/202 224/224/224
f 202/202/202 225/225/225 201/201/201
f 224/224/224 203/203/203 226/226/226
f 203/203/203 224/224/224 202/202/202
f 226/226/226 201/201/201 225/225/225
f 201/201/201 226/226/226 203/203/203
f 227/227/227 229/229/229 228/228/228
f 230/230/230 229/229/229 231/231/231
f 228/228/228 229/229/229 232/232/232
f 233/233/233 229/229/229 230/230/230
f 232/232/232 229/229/229 234/234/234
f 235/235/235 229/229/229 233/233/233
f 227/227/227 231/231/231 229/229/229
f 234/234/234 229/229/229 235/235/235
f 236/236/236 238/238/238 237/237/237
f 237/237/237 238/238/238 239/239/239
f 239/239/239 238/238/238 240/240/240
f 236/236/236 241/241/241 238/238/238
f 240/240/240 238/238/238 242/242/242
f 243/243/243 245/245/245 244/244/244
f 246/246/246 245/245/245 243/243/243
f 247/247/247 245/245/245 246/246/246
f 244/244/244 245/245/245 248/248/248
f 248/248/248 245/245/245 247/247/247
f 249/249/249 251/251/251 250/250/250
f 252/252/252 254/254/254 253/253/253
f 255/255/255 257/257/257 256/256/256
f 258/258/258 253/253/253 254/254/254
f 253/253/253 258/258/258 259/259/259
f 257/257/257 249/249/249 256/256/256
f 253/253/253 249/249/249 250/250/250
f 249/249/249 253/253/253 260/260/260
f 261/261/261 259/259/259 258/258/258
f 253/253/253 259/259/259 260/260/260
f 256/256/256 261/261/261 255/255/255
f 262/262/262 257/257/257 255/255/255
f 261/261/261 260/260/260 259/259/259
f 263/263/263 265/265/265 264/264/264
f 263/263/263 267/267/267 266/266/266
f 265/265/265 269/269/269 268/268/268
f 268/268/268 256/256/256 265/265/265
f 268/268/268 267/267/267 260/260/260
f 267/267/267 268/268/268 269/269/269
f 266/266/266 270/270/270 265/265/265
f 270/270/270 266/266/266 271/271/271
f 266/266/266 267/267/267 272/272/272
f 270/270/270 274/274/274 273/273/273
f 273/273/273 265/265/265 270/270/270
f 274/274/274 272/272/272 273/273/273
f 267/267/267 273/273/273 272/272/272
f 275/275/275 277/277/277 276/276/276
f 278/278/278 276/276/276 277/277/277
f 279/279/279 281/281/281 280/280/280
f 282/282/282 284/284/284 283/283/283
f 285/285/285 270/270/270 286/286/286
f 284/284/284 280/280/280 281/281/281
f 281/281/281 285/285/285 284/284/284
f 287/287/287 289/289/289 288/288/288
f 290/290/290 288/288/288 291/291/291
f 292/292/292 294/294/294 293/293/293
f 295/295/295 292/292/292 293/293/293
f 288/288/288 289/289/289 291/291/291
f 291/291/291 296/296/296 280/280/280
f 288/288/288 290/290/290 287/287/287
f 264/264/264 256/256/256 249/249/249
f 260/260/260 264/264/264 249/249/249
f 262/262/262 251/251/251 257/257/257
f 261/261/261 258/258/258 255/255/255
f 268/268/268 260/260/260 261/261/261
f 261/261/261 256/256/256 268/268/268
f 265/265/265 273/273/273 269/269/269
f 265/265/265 263/263/263 266/266/266
f 272/272/272 271/271/271 266/266/266
f 267/267/267 269/269/269 273/273/273
f 270/270/270 285/285/285 274/274/274
f 270/270/270 271/271/271 286/286/286
f 271/271/271 272/272/272 281/281/281
f 272/272/272 285/285/285 281/281/281
f 272/272/272 274/274/274 285/285/285
f 284/284/284 285/285/285 286/286/286
f 283/283/283 284/284/284 286/286/286
f 286/286/286 279/279/279 283/283/283
f 279/279/279 280/280/280 296/296/296
f 296/296/296 283/283/283 279/279/279
f 282/282/282 280/280/280 284/284/284
f 297/297/297 299/299/299 298/298/298
f 300/300/300 302/302/302 301/301/301
f 256/256/256 264/264/264 265/265/265
f 264/264/264 267/267/267 263/263/263
f 264/264/264 260/260/260 267/267/267
f 257/257/257 251/251/251 249/249/249
f 303/303/303 305/305/305 304/304/304
f 306/306/306 304/304/304 305/305/305
f 290/290/290 291/291/291 280/280/280
f 280/280/280 307/307/307 290/290/290
f 291/291/291 289/289/289 283/283/283
f 308/308/308 283/283/283 289/289/289
f 296/296/296 291/291/291 283/283/283
f 309/309/309 301/301/301 310/310/310
f 301/301/301 309/309/309 300/300/300
f 283/283/283 292/292/292 282/282/282
f 292/292/292 283/283/283 294/294/294
f 282/282/282 295/295/295 280/280/280
f 295/295/295 282/282/282 292/292/292
f 308/308/308 294/294/294 283/283/283
f 310/310/310 297/297/297 309/309/309
f 297/297/297 310/310/310 299/299/299
f 280/280/280 295/295/295 307/307/307
f 311/311/311 313/313/313 312/312/312
f 314/314/314 315/315/315 313/313/313
f 315/315/315 312/312/312 313/313/313
f 315/315/315 314/314/314 316/316/316
f 317/317/317 319/319/319 318/318/318
f 320/320/320 321/321/321 318/318/318
f 319/319/319 322/322/322 318/318/318
f 319/319/319 317/317/317 323/323/323
f 319/319/319 323/323/323 324/324/324
f 319/319/319 324/324/324 325/325/325
f 322/322/322 326/326/326 318/318/318
f 326/326/326 322/322/322 327/327/327
f 326/326/326 328/328/328 320/320/320
f 320/320/320 318/318/318 326/326/326
f 329/329/329 331/331/331 330/330/330
f 318/318/318 321/321/321 317/317/317
f 329/329/329 324/324/324 323/323/323
f 327/327/327 332/332/332 326/326/326
f 326/326/326 333/333/333 328/328/328
f 333/333/333 326/326/326 332/332/332
f 329/329/329 334/334/334 324/324/324
f 324/324/324 335/335/335 325/325/325
f 335/335/335 324/324/324 334/334/334
f 334/334/334 329/329/329 330/330/330
f 327/327/327 336/336/336 332/332/332
f 336/336/336 327/327/327 337/337/337
f 332/332/332 338/338/338 333/333/333
f 338/338/338 332/332/332 336/336/336
f 339/339/339 340/340/340 337/337/337
f 337/337/337 340/340/340 336/336/336
f 341/341/341 340/340/340 339/339/339
f 342/342/342 344/344/344 343/343/343
f 344/344/344 345/345/345 343/343/343
f 109/109/109 169/169/169 170/170/170
f 109/109/109 98/98/98 169/169/169
f 346/346/346 2/2/2 347/347/347
f 4/4/4 2/2/2 346/346/346
f 4/4/4 348/348/348 6/6/6
f 347/347/347 350/350/350 349/349/349
f 347/347/347 349/349/349 346/346/346
f 347/347/347 2/2/2 9/9/9
f 9/9/9 351/351/351 347/347/347
f 350/350/350 347/347/347 351/351/351
f 351/351/351 352/352/352 350/350/350
f 4/4/4 346/346/346 348/348/348
f 349/349/349 348/348/348 346/346/346
f 352/352/352 351/351/351 353/353/353
f 353/353/353 354/354/354 352/352/352
f 351/351/351 9/9/9 14/14/14
f 14/14/14 353/353/353 351/351/351
f 349/349/349 355/355/355 348/348/348
f 356/356/356 6/6/6 348/348/348
f 357/357/357 18/18/18 19/19/19
f 354/354/354 353/353/353 358/358/358
f 358/358/358 359/359/359 354/354/354
f 353/353/353 14/14/14 22/22/22
f 22/22/22 358/358/358 353/353/353
f 23/23/23 360/360/360 25/25/25
f 358/358/358 22/22/22 360/360/360
f 22/22/22 25/25/25 360/360/360
f 361/361/361 363/363/363 362/362/362
f 364/364/364 366/366/366 365/365/365
f 364/364/364 367/367/367 366/366/366
f 367/367/367 368/368/368 366/366/366
f 367/367/367 369/369/369 368/368/368
f 370/370/370 365/365/365 371/371/371
f 370/370/370 364/364/364 365/365/365
f 365/365/365 373/373/373 372/372/372
f 365/365/365 366/366/366 373/373/373
f 366/366/366 374/374/374 373/373/373
f 366/366/366 368/368/368 374/374/374
f 371/371/371 372/372/372 375/375/375
f 371/371/371 365/365/365 372/372/372
f 376/376/376 373/373/373 377/377/377
f 377/377/377 373/373/373 378/378/378
f 372/372/372 376/376/376 379/379/379
f 379/379/379 376/376/376 377/377/377
f 380/380/380 382/382/382 381/381/381
f 380/380/380 383/383/383 382/382/382
f 384/384/384 381/381/381 385/385/385
f 384/384/384 380/380/380 381/381/381
f 381/381/381 387/387/387 386/386/386
f 381/381/381 382/382/382 387/387/387
f 385/385/385 381/381/381 388/388/388
f 388/388/388 381/381/381 386/386/386
f 386/386/386 387/387/387 389/389/389
f 388/388/388 386/386/386 389/389/389
f 390/390/390 392/392/392 391/391/391
f 378/378/378 373/373/373 374/374/374
f 379/379/379 375/375/375 372/372/372
f 378/378/378 380/380/380 377/377/377
f 380/380/380 378/378/378 383/383/383
f 380/380/380 384/384/384 379/379/379
f 379/379/379 377/377/377 380/380/380
f 367/367/367 364/364/364 393/393/393
f 393/393/393 394/394/394 367/367/367
f 369/369/369 367/367/367 394/394/394
f 394/394/394 395/395/395 369/369/369
f 364/364/364 370/370/370 396/396/396
f 396/396/396 393/393/393 364/364/364
f 394/394/394 393/393/393 397/397/397
f 397/397/397 398/398/398 394/394/394
f 395/395/395 394/394/394 398/398/398
f 396/396/396 397/397/397 393/393/393
f 399/399/399 401/401/401 400/400/400
f 399/399/399 400/400/400 402/402/402
f 402/402/402 400/400/400 403/403/403
f 402/402/402 403/403/403 404/404/404
f 404/404/404 403/403/403 405/405/405
f 400/400/400 406/406/406 403/403/403
f 403/403/403 406/406/406 72/72/72
f 73/73/73 405/405/405 407/407/407
f 73/73/73 407/407/407 75/75/75
f 76/76/76 72/72/72 406/406/406
f 405/405/405 403/403/403 72/72/72
f 407/407/407 405/405/405 72/72/72
f 72/72/72 77/77/77 407/407/407
f 75/75/75 407/407/407 77/77/77
f 402/402/402 404/404/404 78/78/78
f 79/79/79 402/402/402 78/78/78
f 402/402/402 79/79/79 399/399/399
f 404/404/404 405/405/405 73/73/73
f 73/73/73 78/78/78 404/404/404
f 408/408/408 406/406/406 400/400/400
f 400/400/400 409/409/409 408/408/408
f 76/76/76 406/406/406 408/408/408
f 408/408/408 82/82/82 76/76/76
f 410/410/410 412/412/412 411/411/411
f 410/410/410 411/411/411 413/413/413
f 410/410/410 415/415/415 414/414/414
f 410/410/410 414/414/414 416/416/416
f 410/410/410 416/416/416 412/412/412
f 412/412/412 416/416/416 417/417/417
f 412/412/412 417/417/417 418/418/418
f 412/412/412 418/418/418 411/411/411
f 411/411/411 418/418/418 419/419/419
f 411/411/411 419/419/419 420/420/420
f 411/411/411 420/420/420 413/413/413
f 413/413/413 420/420/420 421/421/421
f 413/413/413 421/421/421 415/415/415
f 413/413/413 415/415/415 410/410/410
f 415/415/415 422/422/422 414/414/414
f 420/420/420 423/423/423 421/421/421
f 421/421/421 423/423/423 422/422/422
f 421/421/421 422/422/422 415/415/415
f 424/424/424 426/426/426 425/425/425
f 424/424/424 425/425/425 427/427/427
f 427/427/427 425/425/425 428/428/428
f 427/427/427 428/428/428 429/429/429
f 429/429/429 428/428/428 430/430/430
f 429/429/429 430/430/430 431/431/431
f 431/431/431 430/430/430 432/432/432
f 431/431/431 432/432/432 433/433/433
f 424/424/424 435/435/435 434/434/434
f 424/424/424 434/434/434 436/436/436
f 424/424/424 436/436/436 426/426/426
f 425/425/425 438/438/438 437/437/437
f 425/425/425 437/437/437 428/428/428
f 428/428/428 437/437/437 439/439/439
f 428/428/428 439/439/439 430/430/430
f 430/430/430 439/439/439 440/440/440
f 430/430/430 440/440/440 432/432/432
f 432/432/432 440/440/440 441/441/441
f 432/432/432 441/441/441 442/442/442
f 432/432/432 442/442/442 433/433/433
f 433/433/433 442/442/442 443/443/443
f 433/433/433 443/443/443 444/444/444
f 433/433/433 444/444/444 431/431/431
f 431/431/431 444/444/444 445/445/445
f 431/431/431 445/445/445 429/429/429
f 429/429/429 445/445/445 446/446/446
f 429/429/429 446/446/446 427/427/427
f 427/427/427 446/446/446 435/435/435
f 427/427/427 435/435/435 424/424/424
f 435/435/435 448/448/448 447/447/447
f 435/435/435 447/447/447 434/434/434
f 434/434/434 447/447/447 436/436/436
f 438/438/438 449/449/449 437/437/437
f 437/437/437 449/449/449 450/450/450
f 437/437/437 450/450/450 439/439/439
f 439/439/439 450/450/450 451/451/451
f 439/439/439 451/451/451 440/440/440
f 440/440/440 451/451/451 452/452/452
f 440/440/440 452/452/452 441/441/441
f 441/441/441 452/452/452 453/453/453
f 441/441/441 453/453/453 442/442/442
f 442/442/442 453/453/453 454/454/454
f 442/442/442 454/454/454 443/443/443
f 443/443/443 454/454/454 455/455/455
f 443/443/443 455/455/455 444/444/444
f 444/444/444 455/455/455 456/456/456
f 444/444/444 456/456/456 445/445/445
f 445/445/445 456/456/456 457/457/457
f 445/445/445 457/457/457 446/446/446
f 446/446/446 457/457/457 448/448/448
f 446/446/446 448/448/448 435/435/435
f 448/448/448 458/458/458 447/447/447
f 447/447/447 458/458/458 459/459/459
f 447/447/447 459/459/459 436/436/436
f 438/438/438 461/461/461 460/460/460
f 438/438/438 460/460/460 449/449/449
f 449/449/449 460/460/460 462/462/462
f 449/449/449 462/462/462 450/450/450
f 450/450/450 462/462/462 463/463/463
f 450/450/450 463/463/463 451/451/451
f 451/451/451 463/463/463 452/452/452
f 452/452/452 463/463/463 464/464/464
f 452/452/452 464/464/464 453/453/453
f 453/453/453 464/464/464 454/454/454
f 454/454/454 464/464/464 465/465/465
f 454/454/454 465/465/465 455/455/455
f 455/455/455 465/465/465 466/466/466
f 455/455/455 466/466/466 456/456/456
f 456/456/456 466/466/466 467/467/467
f 456/456/456 467/467/467 457/457/457
f 457/457/457 467/467/467 458/458/458
f 457/457/457 458/458/458 448/448/448
f 464/464/464 463/463/463 462/462/462
f 464/464/464 462/462/462 465/465/465
f 465/465/465 462/462/462 460/460/460
f 465/465/465 460/460/460 466/466/466
f 466/466/466 460/460/460 461/461/461
f 466/466/466 461/461/461 467/467/467
f 467/467/467 461/461/461 459/459/459
f 467/467/467 459/459/459 458/458/458
f 468/468/468 459/459/459 461/461/461
f 468/468/468 461/461/461 469/469/469
f 469/469/469 461/461/461 470/470/470
f 469/469/469 470/470/470 471/471/471
f 471/471/471 470/470/470 472/472/472
f 471/471/471 472/472/472 473/473/473
f 473/473/473 472/472/472 474/474/474
f 473/473/473 474/474/474 475/475/475
f 468/468/468 477/477/477 476/476/476
f 468/468/468 476/476/476 436/436/436
f 468/468/468 436/436/436 459/459/459
f 461/461/461 438/438/438 478/478/478
f 461/461/461 478/478/478 470/470/470
f 470/470/470 478/478/478 479/479/479
f 470/470/470 479/479/479 472/472/472
f 472/472/472 479/479/479 480/480/480
f 472/472/472 480/480/480 474/474/474
f 474/474/474 480/480/480 481/481/481
f 474/474/474 481/481/481 482/482/482
f 474/474/474 482/482/482 475/475/475
f 475/475/475 482/482/482 483/483/483
f 475/475/475 483/483/483 484/484/484
f 475/475/475 484/484/484 473/473/473
f 473/473/473 484/484/484 485/485/485
f 473/473/473 485/485/485 471/471/471
f 471/471/471 485/485/485 486/486/486
f 471/471/471 486/486/486 469/469/469
f 469/469/469 486/486/486 477/477/477
f 469/469/469 477/477/477 468/468/468
f 438/438/438 487/487/487 478/478/478
f 478/478/478 487/487/487 488/488/488
f 478/478/478 488/488/488 479/479/479
f 479/479/479 488/488/488 489/489/489
f 479/479/479 489/489/489 480/480/480
f 480/480/480 489/489/489 490/490/490
f 480/480/480 490/490/490 481/481/481
f 481/481/481 490/490/490 482/482/482
f 482/482/482 491/491/491 483/483/483
f 483/483/483 491/491/491 492/492/492
f 483/483/483 492/492/492 484/484/484
f 484/484/484 492/492/492 493/493/493
f 484/484/484 493/493/493 485/485/485
f 485/485/485 493/493/493 494/494/494
f 485/485/485 494/494/494 486/486/486
f 486/486/486 494/494/494 495/495/495
f 486/486/486 495/495/495 477/477/477
f 495/495/495 497/497/497 496/496/496
f 438/438/438 425/425/425 498/498/498
f 438/438/438 498/498/498 487/487/487
f 487/487/487 498/498/498 499/499/499
f 487/487/487 499/499/499 488/488/488
f 488/488/488 499/499/499 500/500/500
f 488/488/488 500/500/500 489/489/489
f 489/489/489 500/500/500 490/490/490
f 490/490/490 500/500/500 501/501/501
f 490/490/490 501/501/501 482/482/482
f 482/482/482 501/501/501 491/491/491
f 491/491/491 501/501/501 502/502/502
f 491/491/491 502/502/502 492/492/492
f 492/492/492 502/502/502 503/503/503
f 492/492/492 503/503/503 493/493/493
f 493/493/493 503/503/503 504/504/504
f 493/493/493 504/504/504 494/494/494
f 494/494/494 504/504/504 497/497/497
f 494/494/494 497/497/497 495/495/495
f 501/501/501 500/500/500 499/499/499
f 501/501/501 499/499/499 502/502/502
f 502/502/502 499/499/499 498/498/498
f 502/502/502 498/498/498 503/503/503
f 503/503/503 498/498/498 425/425/425
f 503/503/503 425/425/425 504/504/504
f 504/504/504 425/425/425 426/426/426
f 504/504/504 426/426/426 497/497/497
f 505/505/505 506/506/506 180/180/180
f 505/505/505 180/180/180 181/181/181
f 505/505/505 508/508/508 507/507/507
f 505/505/505 507/507/507 509/509/509
f 505/505/505 509/509/509 506/506/506
f 506/506/506 509/509/509 510/510/510
f 506/506/506 510/510/510 186/186/186
f 506/506/506 186/186/186 180/180/180
f 181/181/181 187/187/187 508/508/508
f 181/181/181 508/508/508 505/505/505
f 508/508/508 511/511/511 507/507/507
f 187/187/187 189/189/189 511/511/511
f 187/187/187 511/511/511 508/508/508
f 512/512/512 514/514/514 513/513/513
f 512/512/512 515/515/515 514/514/514
f 516/516/516 518/518/518 517/517/517
f 517/517/517 518/518/518 519/519/519
f 517/517/517 519/519/519 520/520/520
f 519/519/519 518/518/518 521/521/521
f 518/518/518 522/522/522 521/521/521
f 523/523/523 525/525/525 524/524/524
f 520/520/520 527/527/527 526/526/526
f 520/520/520 519/519/519 527/527/527
f 519/519/519 521/521/521 527/527/527
f 521/521/521 528/528/528 527/527/527
f 521/521/521 522/522/522 528/528/528
f 526/526/526 530/530/530 529/529/529
f 526/526/526 527/527/527 530/530/530
f 527/527/527 531/531/531 530/530/530
f 527/527/527 528/528/528 531/531/531
f 529/529/529 533/533/533 532/532/532
f 529/529/529 530/530/530 533/533/533
f 530/530/530 534/534/534 533/533/533
f 530/530/530 531/531/531 534/534/534
f 532/532/532 536/536/536 535/535/535
f 532/532/532 533/533/533 536/536/536
f 533/533/533 537/537/537 536/536/536
f 533/533/533 534/534/534 537/537/537
f 535/535/535 539/539/539 538/538/538
f 535/535/535 536/536/536 539/539/539
f 536/536/536 540/540/540 539/539/539
f 536/536/536 537/537/537 540/540/540
f 538/538/538 539/539/539 541/541/541
f 539/539/539 540/540/540 541/541/541
f 516/516/516 517/517/517 542/542/542
f 542/542/542 543/543/543 516/516/516
f 544/544/544 545/545/545 513/513/513
f 513/513/513 514/514/514 544/544/544
f 543/543/543 542/542/542 515/515/515
f 515/515/515 512/512/512 543/543/543
f 515/515/515 544/544/544 514/514/514
f 544/544/544 515/515/515 542/542/542
f 545/545/545 543/543/543 512/512/512
f 512/512/512 513/513/513 545/545/545
f 518/518/518 516/516/516 546/546/546
f 546/546/546 547/547/547 518/518/518
f 522/522/522 518/518/518 547/547/547
f 547/547/547 548/548/548 522/522/522
f 546/546/546 522/522/522 548/548/548
f 522/522/522 546/546/546 516/516/516
f 547/547/547 546/546/546 525/525/525
f 525/525/525 523/523/523 547/547/547
f 546/546/546 548/548/548 524/524/524
f 524/524/524 525/525/525 546/546/546
f 548/548/548 547/547/547 523/523/523
f 523/523/523 524/524/524 548/548/548
f 549/549/549 551/551/551 550/550/550
f 552/552/552 553/553/553 550/550/550
f 551/551/551 554/554/554 550/550/550
f 555/555/555 552/552/552 550/550/550
f 554/554/554 556/556/556 550/550/550
f 557/557/557 555/555/555 550/550/550
f 549/549/549 550/550/550 553/553/553
f 556/556/556 557/557/557 550/550/550
f 558/558/558 559/559/559 238/238/238
f 559/559/559 560/560/560 238/238/238
f 560/560/560 561/561/561 238/238/238
f 558/558/558 238/238/238 241/241/241
f 561/561/561 242/242/242 238/238/238
f 562/562/562 564/564/564 563/563/563
f 565/565/565 562/562/562 563/563/563
f 566/566/566 565/565/565 563/563/563
f 564/564/564 567/567/567 563/563/563
f 567/567/567 566/566/566 563/563/563
f 568/568/568 570/570/570 569/569/569
f 571/571/571 573/573/573 572/572/572
f 574/574/574 576/576/576 575/575/575
f 577/577/577 572/572/572 573/573/573
f 573/573/573 578/578/578 577/577/577
f 575/575/575 576/576/576 568/568/568
f 573/573/573 570/570/570 568/568/568
f 568/568/568 579/579/579 573/573/573
f 580/580/580 577/577/577 578/578/578
f 573/573/573 579/579/579 578/578/578
f 576/576/576 574/574/574 580/580/580
f 262/262/262 574/574/574 575/575/575
f 580/580/580 578/578/578 579/579/579
f 581/581/581 583/583/583 582/582/582
f 581/581/581 585/585/585 584/584/584
f 582/582/582 587/587/587 586/586/586
f 587/587/587 582/582/582 576/576/576
f 587/587/587 579/579/579 584/584/584
f 584/584/584 586/586/586 587/587/587
f 585/585/585 582/582/582 588/588/588
f 588/588/588 589/589/589 585/585/585
f 585/585/585 590/590/590 584/584/584
f 588/588/588 592/592/592 591/591/591
f 592/592/592 588/588/588 582/582/582
f 591/591/591 592/592/592 590/590/590
f 584/584/584 590/590/590 592/592/592
f 593/593/593 595/595/595 594/594/594
f 596/596/596 594/594/594 595/595/595
f 597/597/597 599/599/599 598/598/598
f 600/600/600 602/602/602 601/601/601
f 603/603/603 604/604/604 588/588/588
f 601/601/601 598/598/598 599/599/599
f 598/598/598 601/601/601 603/603/603
f 605/605/605 607/607/607 606/606/606
f 608/608/608 609/609/609 607/607/607
f 610/610/610 612/612/612 611/611/611
f 613/613/613 612/612/612 610/610/610
f 607/607/607 609/609/609 606/606/606
f 609/609/609 599/599/599 614/614/614
f 607/607/607 605/605/605 608/608/608
f 583/583/583 568/568/568 576/576/576
f 579/579/579 568/568/568 583/583/583
f 262/262/262 575/575/575 569/569/569
f 580/580/580 574/574/574 577/577/577
f 587/587/587 580/580/580 579/579/579
f 580/580/580 587/587/587 576/576/576
f 582/582/582 586/586/586 592/592/592
f 582/582/582 585/585/585 581/581/581
f 590/590/590 585/585/585 589/589/589
f 584/584/584 592/592/592 586/586/586
f 588/588/588 591/591/591 603/603/603
f 588/588/588 604/604/604 589/589/589
f 589/589/589 598/598/598 590/590/590
f 590/590/590 598/598/598 603/603/603
f 590/590/590 603/603/603 591/591/591
f 601/601/601 604/604/604 603/603/603
f 602/602/602 604/604/604 601/601/601
f 604/604/604 602/602/602 597/597/597
f 597/597/597 614/614/614 599/599/599
f 614/614/614 597/597/597 602/602/602
f 600/600/600 601/601/601 599/599/599
f 615/615/615 617/617/617 616/616/616
f 618/618/618 620/620/620 619/619/619
f 576/576/576 582/582/582 583/583/583
f 583/583/583 581/581/581 584/584/584
f 583/583/583 584/584/584 579/579/579
f 575/575/575 568/568/568 569/569/569
f 621/621/621 623/623/623 622/622/622
f 624/624/624 622/622/622 623/623/623
f 608/608/608 599/599/599 609/609/609
f 599/599/599 608/608/608 625/625/625
f 609/609/609 602/602/602 606/606/606
f 626/626/626 606/606/606 602/602/602
f 614/614/614 602/602/602 609/609/609
f 627/627/627 628/628/628 620/620/620
f 620/620/620 618/618/618 627/627/627
f 602/602/602 600/600/600 610/610/610
f 610/610/610 611/611/611 602/602/602
f 600/600/600 599/599/599 613/613/613
f 613/613/613 610/610/610 600/600/600
f 626/626/626 602/602/602 611/611/611
f 628/628/628 627/627/627 615/615/615
f 615/615/615 616/616/616 628/628/628
f 599/599/599 625/625/625 613/613/613
f 629/629/629 631/631/631 630/630/630
f 632/632/632 630/630/630 633/633/633
f 633/633/633 630/630/630 631/631/631
f 633/633/633 634/634/634 632/632/632
f 635/635/635 636/636/636 319/319/319
f 637/637/637 636/636/636 638/638/638
f 319/319/319 636/636/636 322/322/322
f 319/319/319 639/639/639 635/635/635
f 319/319/319 640/640/640 639/639/639
f 319/319/319 325/325/325 640/640/640
f 322/322/322 636/636/636 641/641/641
f 641/641/641 327/327/327 322/322/322
f 641/641/641 637/637/637 642/642/642
f 637/637/637 641/641/641 636/636/636
f 643/643/643 645/645/645 644/644/644
f 636/636/636 635/635/635 638/638/638
f 643/643/643 639/639/639 640/640/640
f 327/327/327 641/641/641 646/646/646
f 641/641/641 642/642/642 647/647/647
f 647/647/647 646/646/646 641/641/641
f 643/643/643 640/640/640 648/648/648
f 640/640/640 325/325/325 335/335/335
f 335/335/335 648/648/648 640/640/640
f 648/648/648 645/645/645 643/643/643
f 327/327/327 646/646/646 649/649/649
f 649/649/649 337/337/337 327/327/327
f 646/646/646 647/647/647 650/650/650
f 650/650/650 649/649/649 646/646/646
f 339/339/339 337/337/337 651/651/651
f 337/337/337 649/649/649 651/651/651
f 341/341/341 339/339/339 651/651/651
f 342/342/342 343/343/343 652/652/652
f 652/652/652 343/343/343 653/653/653
f 436/436/436 496/496/496 497/497/497
f 436/436/436 497/497/497 426/426/426

g iui02
# texture: iui02.jpg
v 68.94082 190.0772 -39.27566
v 59.94871 160.2181 -34.8631
v 85.438 160.1055 -48.72437
v 85.72404 188.3963 -48.42817
v 62.77772 137.7591 -36.76001
v 85.15195 131.8147 -49.02057
v 110.6412 131.7021 -62.88184
v 110.9273 159.9929 -62.58559
v 111.2134 188.2837 -62.2894
v 62.17996 138.0386 -37.86153
v 59.3509 160.4975 -35.96466
v 84.84018 160.3849 -49.82594
v 84.55413 132.0941 -50.12213
v 68.34299 190.3566 -40.37722
v 85.12623 188.6758 -49.52973
v 110.6156 188.5632 -63.39096
v 110.3295 160.2724 -63.68716
v 110.0434 131.9815 -63.9834
v -68.45192 189.4773 -38.95674
v -84.9492 159.5057 -48.40545
v -59.45982 159.6183 -34.5442
v -85.23524 187.7965 -48.10921
v -62.28894 137.1593 -36.44105
v -84.66316 131.2149 -48.70169
v -110.1525 131.1022 -62.56298
v -110.4385 159.3931 -62.26678
v -110.7245 187.684 -61.97055
v -61.69113 137.4388 -37.54261
v -84.35131 159.7852 -49.50705
v -58.86206 159.8977 -35.64572
v -84.06532 131.4943 -49.80324
v -67.85416 189.7568 -40.05825
v -84.63737 188.076 -49.21082
v -110.1267 187.9634 -63.07211
v -109.8407 159.6726 -63.36831
v -109.5546 131.3818 -63.66454
vn 0.400972 -0.068488 0.913527
vn 0.400972 -0.068488 0.913527
vn 0.400972 -0.068488 0.913527
vn 0.400972 -0.068488 0.913527
vn 0.400972 -0.068488 0.913527
vn 0.400972 -0.068488 0.913527
vn 0.400972 -0.068488 0.913527
vn 0.400972 -0.068488 0.913527
vn 0.400972 -0.068488 0.913527
vn -0.400972 0.068488 -0.913527
vn -0.400972 0.068488 -0.913527
vn -0.400972 0.068488 -0.913527
vn -0.400972 0.068488 -0.913527
vn -0.400972 0.068488 -0.913527
vn -0.400972 0.068488 -0.913527
vn -0.400972 0.068488 -0.913527
vn -0.400972 0.068488 -0.913527
vn -0.400972 0.068488 -0.913527
vn -0.400975 -0.06849 0.913526
vn -0.400975 -0.06849 0.913526
vn -0.400975 -0.06849 0.913526
vn -0.400975 -0.06849 0.913526
vn -0.400975 -0.06849 0.913526
vn -0.400975 -0.06849 0.913526
vn -0.400975 -0.06849 0.913526
vn -0.400975 -0.06849 0.913526
vn -0.400975 -0.06849 0.913526
vn 0.400975 0.06849 -0.913526
vn 0.400975 0.06849 -0.913526
vn 0.400975 0.06849 -0.913526
vn 0.400975 0.06849 -0.913526
vn 0.400975 0.06849 -0.913526
vn 0.400975 0.06849 -0.913526
vn 0.400975 0.06849 -0.913526
vn 0.400975 0.06849 -0.913526
vn 0.400975 0.06849 -0.913526
vt 0.0035 0.0005
vt 0.3117 0.0005
vt 0.6591 0.6594
vt 0.0035 0.6618
vt 0.991 0.0005
vt 0.991 0.7126
vt 0.991 0.9995
vt 0.2624 0.9995
vt 0.0035 0.9995
vt 0.003 0.0005
vt 0.6883 0.0005
vt 0.41 0.6087
vt 0.003 0.4155
vt 0.9906 0.0005
vt 0.9906 0.3937
vt 0.9906 0.9995
vt 0.6133 0.9995
vt 0.003 0.9995
vt 0.0035 0.0005
vt 0.6591 0.6594
vt 0.3117 0.0005
vt 0.0035 0.6618
vt 0.991 0.0005
vt 0.991 0.7126
vt 0.991 0.9995
vt 0.2624 0.9995
vt 0.0035 0.9995
vt 0.003 0.0005
vt 0.41 0.6087
vt 0.6883 0.0005
vt 0.003 0.4155
vt 0.9906 0.0005
vt 0.9906 0.3937
vt 0.9906 0.9995
vt 0.6133 0.9995
vt 0.003 0.9995
f 654/654/654 656/656/656 655/655/655
f 654/654/654 657/657/657 656/656/656
f 658/658/658 656/656/656 659/659/659
f 658/658/658 655/655/655 656/656/656
f 660/660/660 656/656/656 661/661/661
f 660/660/660 659/659/659 656/656/656
f 662/662/662 656/656/656 657/657/657
f 662/662/662 661/661/661 656/656/656
f 663/663/663 665/665/665 664/664/664
f 663/663/663 666/666/666 665/665/665
f 667/667/667 665/665/665 668/668/668
f 667/667/667 664/664/664 665/665/665
f 669/669/669 665/665/665 670/670/670
f 669/669/669 668/668/668 665/665/665
f 671/671/671 665/665/665 666/666/666
f 671/671/671 670/670/670 665/665/665
f 672/672/672 674/674/674 673/673/673
f 672/672/672 673/673/673 675/675/675
f 676/676/676 677/677/677 673/673/673
f 676/676/676 673/673/673 674/674/674
f 678/678/678 679/679/679 673/673/673
f 678/678/678 673/673/673 677/677/677
f 680/680/680 675/675/675 673/673/673
f 680/680/680 673/673/673 679/679/679
f 681/681/681 683/683/683 682/682/682
f 681/681/681 682/682/682 684/684/684
f 685/685/685 686/686/686 682/682/682
f 685/685/685 682/682/682 683/683/683
f 687/687/687 688/688/688 682/682/682
f 687/687/687 682/682/682 686/686/686
f 689/689/689 684/684/684 682/682/682
f 689/689/689 682/682/682 688/688/688
