# Monster47.bmd — MU geometry at action 0 key 0, exported for MU2
# 3 mesh(es)

g kni00
# texture: kni00.jpg
v 3.408704 121.0749 -17.1787
v 4.274409 132.6206 -13.78
v 18.3735 132.6375 -5.105396
v 22.0632 125.791 -8.602993
v 4.95511 141.9443 -15.9613
v 21.8669 143.1899 -5.498596
v 5.425611 169.1019 -18.1563
v 22.70351 167.768 -8.113896
v -7.621601 130.0789 19.0224
v 7.903997 131.5126 17.0821
v 11.0096 142.3416 17.083
v -8.313001 138.7503 20.6366
v 7.224597 162.4224 22.19121
v -7.047897 165.2816 16.277
v -8.3561 150.6966 20.3588
v 15.4464 132.4216 8.493305
v 17.7111 124.6629 6.548304
v 18.3582 143.1234 11.45871
v 21.0645 151.8601 4.867105
v 17.7111 124.6629 6.548304
v 15.4464 132.4216 8.493305
v 9.986496 123.0389 12.6731
v 18.3582 143.1234 11.45871
v 21.0645 151.8601 4.867105
v 11.32521 163.0841 -0.537893
v 12.6638 168.8954 17.67201
v 7.477501 171.8815 9.307801
v -4.754898 170.9315 9.783098
v 29.1855 169.662 -0.468294
v 12.02731 174.7946 -3.538798
v 29.1855 169.662 -0.468294
v 12.02731 174.7946 -3.538798
v 33.7954 158.3931 1.793904
v 25.3919 160.5323 12.3156
v 15.87182 144.2201 22.0823
v 21.11492 136.8332 17.6269
v 9.756521 133.2612 12.8097
v 25.3919 160.5323 12.3156
v 17.27241 167.122 3.122206
v 6.098819 133.6267 23.02279
v 15.87182 144.2201 22.0823
v 3.36142 132.3764 18.5112
v 9.756521 133.2612 12.8097
v 12.54531 133.0221 27.10949
v 16.05742 128.7124 20.81139
v 9.402519 128.5048 15.47129
v 12.54531 133.0221 27.10949
v 9.402519 128.5048 15.47129
v -1.198288 178.3285 -14.8003
v -4.872504 119.7935 13.704
v -9.618706 89.169 17.9987
v 23.6425 92.913 18.2498
v 12.1537 108.7473 15.1607
v -5.014704 105.232 14.2342
v 30.3559 88.7435 4.203907
v 22.40009 108.623 3.945306
v 22.63551 78.634 -16.11739
v 12.501 77.70241 -21.9484
v 10.8319 103.6493 -18.6164
v 23.2413 104.3916 -11.85099
v 4.266305 103.6494 -20.3769
v 4.266305 103.6494 -20.3769
v 10.8319 103.6493 -18.6164
v 12.501 77.70241 -21.9484
v 5.211803 77.70241 -23.903
v -4.754898 170.9315 9.783098
v 7.477501 171.8815 9.307801
v 7.513604 179.0735 2.553801
v -1.198296 178.3014 6.084999
v 12.02731 174.7946 -3.538798
v 7.451407 182.5967 -5.805801
v 12.02731 174.7946 -3.538798
v 22.70351 167.768 -8.113896
v -1.198288 178.3285 -14.8003
v 7.451407 182.5967 -5.805801
v 8.422031 94.40243 39.00518
v 8.410332 93.58863 40.76698
v 2.368532 91.32323 44.64428
v 1.372932 92.12333 43.04758
v 17.47911 130.4596 19.71969
v 19.09191 147.7221 26.12059
v 8.932119 126.0556 33.44219
v 13.95082 119.3442 29.02009
v 9.404219 128.5055 15.48359
v 4.185625 118.7624 20.04779
v 5.372019 136.3899 22.24609
v 1.841723 127.914 29.10489
v 1.796621 133.0697 18.6622
v -2.288974 125.8417 22.8663
v 4.064528 112.0263 39.52009
v 4.509726 106.9789 34.88169
v -0.914574 106.8276 33.21029
v -1.326073 114.162 38.87219
v -4.465172 110.4936 34.05939
v 4.904127 111.5456 38.35698
v -2.18107 110.8426 42.52958
v 7.857727 106.9727 41.46719
v 10.24763 103.4018 42.71828
v 0.97333 106.4844 46.80949
v 5.138031 102.6257 45.15059
v -4.681267 96.93533 42.97918
v -3.540567 95.78492 41.99168
v -2.666169 95.65903 43.26329
v -3.806867 96.80943 44.25068
v 10.58093 101.3353 44.46259
v 4.22543 99.71823 49.47678
v 2.869831 102.1483 47.65548
v -2.663269 100.5818 38.07488
v -5.309468 102.1657 39.43888
v -0.816169 100.737 41.06258
v -3.462369 102.3208 42.42659
v 5.372019 136.3899 22.24609
v 17.47911 130.4596 19.71969
v 9.404219 128.5055 15.48359
v 1.796621 133.0697 18.6622
v 19.09191 147.7221 26.12059
v 23.2413 104.3916 -11.85099
v 22.63551 78.634 -16.11739
v 22.0632 125.791 -8.602993
v -1.9947 99.7094 6.256499
v 3.944303 97.9931 -13.4372
v 6.536608 77.69092 -2.781094
v 6.986307 75.79082 13.6123
v 18.3764 100.4906 -9.412994
v 19.31801 79.93752 -4.773489
v 19.5876 99.8598 6.021506
v 26.0955 78.19471 7.903804
v 17.5518 96.84711 16.652
v -1.9947 99.7094 6.256499
v 6.986307 75.79082 13.6123
v 20.1159 76.29451 20.2618
v 19.5876 99.8598 6.021506
v 26.0955 78.19471 7.903804
v 23.5768 51.48701 4.102007
v 14.7156 50.35023 5.408604
v 26.3221 57.56651 10.2618
v 12.74051 55.93211 12.2452
v 21.0589 61.21571 20.0144
v 26.3221 57.56651 10.2618
v 12.74051 55.93211 12.2452
v 26.12871 53.65101 10.1886
v 13.68941 51.87491 12.0374
v 21.8888 52.28961 19.9076
v 26.12871 53.65101 10.1886
v 13.68941 51.87491 12.0374
v 26.12871 53.65101 10.1886
v 21.8888 52.28961 19.9076
v 13.68941 51.87491 12.0374
v 26.12871 53.65101 10.1886
v 13.68941 51.87491 12.0374
v 14.7156 50.35023 5.408604
v 23.5768 51.48701 4.102007
v 32.39632 -0.886483 6.872004
v 20.65132 -0.769279 1.926505
v 27.68302 -0.770182 0.688605
v 18.33282 -0.884777 9.347699
v 26.23481 -0.785481 33.64409
v 33.95111 -0.789184 30.91049
v 18.33282 -0.884777 9.347699
v 26.23481 -0.785481 33.64409
v 26.09521 5.222518 32.84679
v 33.81151 5.218814 30.11319
v 33.95111 -0.789184 30.91049
v 32.39632 -0.886483 6.872004
v 27.65122 11.19561 0.499606
v 30.65431 15.99332 7.453103
v 27.68302 -0.770182 0.688605
v 20.61942 11.19652 1.737405
v 20.65132 -0.769279 1.926505
v 19.54551 14.47231 9.1081
v 26.12031 14.41821 14.381
v 30.65431 15.99332 7.453103
v 27.65122 11.19561 0.499606
v 26.90341 20.63811 0.904005
v 19.90481 19.67992 1.946704
v 20.61942 11.19652 1.737405
v 19.54551 14.47231 9.1081
v 26.77291 29.78541 1.043203
v 30.90291 46.25641 12.0609
v 17.65851 28.53741 2.401104
v 12.67401 43.76051 14.7767
v 19.54551 14.47231 9.1081
v 22.336 50.57521 22.2103
v 12.67401 43.76051 14.7767
v 26.12031 14.41821 14.381
v 30.90291 46.25641 12.0609
v 30.65431 15.99332 7.453103
v 23.69271 45.69241 -0.859191
v 15.76711 44.60721 0.321503
v 22.88791 54.65851 1.979104
v 29.1901 53.65191 15.6674
v 14.96231 53.57331 3.159904
v 13.33891 51.48151 18.029
v 21.1779 64.38971 27.1329
v 13.33891 51.48151 18.029
v 29.1901 53.65191 15.6674
v 29.1901 53.65191 15.6674
v 22.88791 54.65851 1.979104
v 21.1779 64.38971 27.1329
v 14.96231 53.57331 3.159904
v 13.33891 51.48151 18.029
v 10.32831 171.5429 -0.720091
v 15.65211 176.3994 -4.739893
v 39.3764 165.0443 -6.990795
v 32.4294 180.293 -2.344293
v 9.380813 167.6784 7.276409
v 8.372313 155.226 21.6832
v 18.10851 173.0399 9.247305
v 21.31731 151.1672 27.4664
v 30.4937 173.7275 10.3742
v 10.32831 171.5429 -0.720091
v 15.60091 174.4993 0.643707
v 29.8668 174.3697 0.527006
v 31.53541 144.1395 19.4856
v 37.4111 163.8011 7.416002
v 38.3346 153.8203 4.529403
v 38.764 163.4128 -1.553895
v 39.51381 157.5739 -3.489096
v 10.32831 171.5429 -0.720091
v 15.60091 174.4993 0.643707
v 15.65211 176.3994 -4.739893
v 39.51381 157.5739 -3.489096
v 39.51381 157.5739 -3.489096
v 39.3764 165.0443 -6.990795
v 38.764 163.4128 -1.553895
v 29.8668 174.3697 0.527006
v 32.4294 180.293 -2.344293
v 8.372313 155.226 21.6832
v 9.380813 167.6784 7.276409
v 31.53541 144.1395 19.4856
v 21.31731 151.1672 27.4664
v 38.3346 153.8203 4.529403
v -12.09999 132.27 -16.1854
v -17.03379 125.791 -19.08681
v -14.74919 142.7483 -18.8119
v -14.23419 167.3225 -21.54411
v -20.9134 141.9566 5.475994
v -18.3025 131.1965 7.553697
v -21.7213 162.0733 11.6667
v -18.58549 132.0112 -3.880404
v -20.8462 124.663 -3.790804
v -22.94899 142.6252 -3.560306
v -20.97569 151.3531 -10.4184
v -20.8462 124.663 -3.790804
v -18.58549 132.0112 -3.880404
v -17.2223 123.0389 5.376996
v -22.94899 142.6252 -3.560306
v -20.93979 157.2107 2.38039
v -20.97569 151.3531 -10.4184
v -13.843 171.6243 1.555795
v -23.12479 168.4638 4.659594
v -29.66649 172.2295 -5.400612
v -9.141392 174.5393 -11.2355
v -9.141392 174.5393 -11.2355
v -29.66649 172.2295 -5.400612
v -33.02029 165.6779 -15.35981
v -41.84839 137.7971 -6.395219
v -38.61539 158.7781 -5.016416
v -43.45168 134.4543 -16.53072
v -30.07808 129.4469 -12.32902
v -38.61539 158.7781 -5.016416
v -37.20369 129.3013 -8.514218
v -27.19149 162.3018 2.121289
v -41.84839 137.7971 -6.395219
v -32.39609 129.8231 -10.96912
v -30.07808 129.4469 -12.32902
v -42.41359 124.6996 -5.303821
v -37.69679 118.0505 -7.33322
v -31.12759 122.1343 -10.94122
v -42.41359 124.6996 -5.303821
v -31.12759 122.1343 -10.94122
v 5.5147 91.57241 24.01769
v -20.3434 108.7474 6.446594
v -26.2725 89.3193 8.708294
v -23.6037 108.6231 -8.390606
v -29.6645 85.1893 -6.496308
v -13.76969 78.634 -25.8795
v -2.299394 103.6494 -22.1375
v -2.077492 77.7024 -25.85769
v -16.42879 104.3917 -22.4886
v -2.077492 77.7024 -25.85769
v -2.299394 103.6494 -22.1375
v -9.910194 179.0735 2.553797
v -13.843 171.6243 1.555795
v -9.847991 182.5967 -5.805803
v -9.141392 174.5393 -11.2355
v -14.23419 167.3225 -21.54411
v 5.425611 169.1019 -18.1563
v -9.141392 174.5393 -11.2355
v -9.847991 182.5967 -5.805803
v -16.42879 104.3917 -22.4886
v -13.76969 78.634 -25.8795
v -17.03379 125.791 -19.08681
v -3.638201 99.7094 5.8158
v -4.086802 76.3016 -8.754702
v 1.072902 97.99321 -14.2072
v -7.647303 73.7369 7.160798
v -16.3534 77.6234 -13.24521
v -13.43639 100.4907 -17.9436
v -25.3603 74.8679 -2.246607
v -22.2073 99.8599 -5.185805
v -17.0538 93.0103 6.477897
v -7.647303 73.7369 7.160798
v -3.638201 99.7094 5.8158
v -21.83701 72.9597 11.0212
v -22.2073 99.8599 -5.185805
v -25.3603 74.8679 -2.246607
v -19.8978 48.60471 -6.055305
v -11.4139 48.1104 -3.005905
v -24.32111 54.20849 -0.445309
v -11.3229 53.5591 4.212196
v -21.4417 57.8743 10.2506
v -24.32111 54.20849 -0.445309
v -11.3229 53.5591 4.212196
v -23.75071 51.1127 -0.524007
v -11.82071 50.2449 3.745797
v -21.33561 46.8931 8.997095
v -23.75071 51.1127 -0.524007
v -11.82071 50.2449 3.745797
v -23.75071 51.1127 -0.524007
v -11.82071 50.2449 3.745797
v -21.33561 46.8931 8.997095
v -23.75071 51.1127 -0.524007
v -11.4139 48.1104 -3.005905
v -11.82071 50.2449 3.745797
v -19.8978 48.60471 -6.055305
v -21.06761 -0.220507 -18.18461
v -14.91621 -0.158705 -22.94051
v -8.443207 -0.157405 -19.92751
v -8.121712 -0.217805 -12.15861
v -22.03342 0.081794 9.269003
v -28.78122 0.066793 4.634195
v -8.121712 -0.217805 -12.15861
v -21.67272 6.083295 8.491398
v -22.03342 0.081794 9.269003
v -28.42052 6.068192 3.856697
v -28.78122 0.066793 4.634195
v -21.06761 -0.220507 -18.18461
v -20.2097 16.618 -16.13301
v -14.79731 11.80519 -23.20131
v -14.91621 -0.158705 -22.94051
v -8.324305 11.8065 -20.18831
v -8.443207 -0.157405 -19.92751
v -9.569208 15.902 -12.2956
v -16.91791 13.22359 -9.156107
v -20.2097 16.618 -16.13301
v -16.21671 23.6826 -19.6939
v -14.79731 11.80519 -23.20131
v -9.513205 23.2316 -17.27631
v -8.324305 11.8065 -20.18831
v -9.569208 15.902 -12.2956
v -27.26471 43.0365 -2.369307
v -17.9036 32.136 -16.62731
v -9.173407 31.5486 -13.4789
v -9.804307 41.8617 3.927597
v -9.569208 15.902 -12.2956
v -9.804307 41.8617 3.927597
v -21.88641 44.4343 10.4437
v -16.91791 13.22359 -9.156107
v -27.26471 43.0365 -2.369307
v -20.2097 16.618 -16.13301
v -17.6717 47.926 -12.53311
v -10.0802 47.4152 -9.795304
v -27.776 48.8177 3.709293
v -19.2096 55.3322 -6.886909
v -11.6181 54.8214 -4.149103
v -12.59301 47.7961 9.184896
v -12.59301 47.7961 9.184896
v -24.44321 55.641 19.6243
v -27.776 48.8177 3.709293
v -27.776 48.8177 3.709293
v -24.44321 55.641 19.6243
v -19.2096 55.3322 -6.886909
v -11.6181 54.8214 -4.149103
v -12.59301 47.7961 9.184896
v -20.8975 162.9945 8.635492
v -28.26479 176.893 -17.40101
v -20.1194 171.0486 7.019094
v -30.22379 182.6361 -1.105311
v -27.2769 156.7629 9.13269
v -33.4026 165.0144 7.346388
v -38.71689 141.8532 5.897586
v -40.14449 172.1698 -0.301015
v -49.51429 144.157 -3.879921
v -20.8975 162.9945 8.635492
v -24.7321 167.7083 7.420691
v -31.18239 175.7643 -2.430112
v -40.02989 169.7695 -12.52232
v -46.66959 147.5593 -17.94482
v -37.21788 163.8955 -20.67042
v -32.68489 173.4143 -16.42171
v -30.91798 170.1841 -21.40602
v -20.8975 162.9945 8.635492
v -20.1194 171.0486 7.019094
v -24.7321 167.7083 7.420691
v -30.91798 170.1841 -21.40602
v -30.91798 170.1841 -21.40602
v -32.68489 173.4143 -16.42171
v -28.26479 176.893 -17.40101
v -31.18239 175.7643 -2.430112
v -30.22379 182.6361 -1.105311
v -38.71689 141.8532 5.897586
v -46.66959 147.5593 -17.94482
v -27.2769 156.7629 9.13269
v -49.51429 144.157 -3.879921
v -37.21788 163.8955 -20.67042
v -19.14 131.6074 34.40818
v -27.0508 132.9975 38.07068
v -20.1504 130.9044 35.90848
v -26.9306 134.1699 36.39988
v -38.96899 117.201 -9.30482
v -39.98029 127.0067 4.24448
v -54.57038 124.5593 -15.93972
v -35.57659 118.6652 5.146781
v -31.22779 122.1582 -10.87602
v -25.09209 124.2056 -0.818316
v -35.10589 132.5877 0.045183
v -38.24599 130.8127 -10.83312
v -28.06709 133.473 -3.109415
v -32.24429 131.522 -11.19362
v -32.16669 127.5095 18.24989
v -26.4335 123.7293 18.07538
v -22.6661 127.8724 17.13629
v -30.4802 132.8364 16.57079
v -23.7499 132.6593 15.49939
v -23.12669 125.1424 18.69768
v -31.17519 126.824 19.40088
v -22.2776 123.8498 24.77358
v -20.83829 123.5244 28.94098
v -30.90519 124.5553 25.88488
v -26.26399 125.2473 29.41098
v -32.0878 135.1586 30.78308
v -30.5587 134.5013 32.51517
v -30.47829 135.746 31.59808
v -32.1682 133.9139 31.70028
v -21.448 123.2876 31.58608
v -29.3524 124.4911 33.64098
v -29.53259 125.1655 30.38927
v -27.8483 135.2793 25.94247
v -30.91109 135.0746 24.54667
v -28.2431 132.2375 27.66108
v -31.30579 132.0328 26.26528
v -38.24599 130.8127 -10.83312
v -31.22779 122.1582 -10.87602
v -38.96899 117.201 -9.30482
v -32.24429 131.522 -11.19362
v -54.57038 124.5593 -15.93972
vn 0.258903 0.258002 -0.930808
vn 0.342084 -0.068697 -0.937155
vn 0.903101 0.0717 -0.4234
vn 0.924524 0.329109 -0.192205
vn 0.33971 -0.144104 -0.929425
vn 0.844383 -0.324094 -0.426591
vn 0.399122 0.146308 -0.90515
vn 0.572415 0.229406 -0.78722
vn -0.309021 -0.290319 0.905661
vn 0.51451 -0.182603 0.837816
vn 0.47889 -0.039599 0.876982
vn -0.339391 -0.088497 0.936473
vn 0.41801 0.079902 0.904922
vn -0.258796 0.676688 0.689288
vn -0.341892 0.022199 0.939477
vn 0.873366 -0.043898 0.485082
vn 0.795488 0.101599 0.597391
vn 0.823948 0.001 0.566665
vn 0.749311 -0.615309 -0.244803
vn 0.795488 0.101599 0.597391
vn 0.873366 -0.043898 0.485082
vn 0.269204 -0.118902 0.955715
vn 0.823948 0.001 0.566665
vn 0.749311 -0.615309 -0.244803
vn 0.846528 -0.203007 0.492116
vn 0.517105 0.358104 0.777409
vn -0.0335 0.887495 0.459598
vn -0.225009 0.77303 0.593123
vn 0.718721 0.68362 0.126904
vn 0.247689 0.968757 0.012699
vn 0.718721 0.68362 0.126904
vn 0.247689 0.968757 0.012699
vn 0.980759 -0.187892 0.052998
vn 0.134 0.624303 0.769604
vn 0.31089 0.337589 0.888471
vn 0.872554 -0.48713 -0.036802
vn 0.064703 -0.509825 -0.857842
vn 0.134 0.624303 0.769604
vn -0.392097 0.187599 0.900593
vn -0.585577 0.555478 0.590377
vn 0.31089 0.337589 0.888471
vn -0.97164 0.119905 -0.203808
vn 0.064703 -0.509825 -0.857842
vn 0.450684 0.139796 0.88167
vn 0.776397 -0.531498 -0.338699
vn -0.0126 -0.48759 -0.872982
vn 0.450684 0.139796 0.88167
vn -0.0126 -0.48759 -0.872982
vn -0.042899 0.808679 -0.586685
vn -0.252389 -0.23379 0.938958
vn -0.065599 0.214197 0.974585
vn 0.564235 0.416525 0.712844
vn 0.314912 0.270911 0.909636
vn -0.251406 0.169504 0.952924
vn 0.962206 0.269701 -0.0377
vn 0.900088 0.294296 0.321296
vn 0.661177 0.110996 -0.741974
vn 0.483793 0.141998 -0.863586
vn 0.416692 0.182296 -0.890582
vn 0.793117 0.193804 -0.577412
vn 0.254402 0.186701 -0.948906
vn 0.256489 0.139294 -0.956457
vn 0.256489 0.139294 -0.956457
vn 0.256489 0.139294 -0.956457
vn 0.256489 0.139294 -0.956457
vn -0.165401 0.477901 0.862701
vn 0.723791 0.510994 0.463694
vn 0.574703 0.416402 0.704504
vn 0.032601 0.43562 0.89954
vn 0.739513 0.629511 -0.238404
vn 0.950028 0.279209 -0.139604
vn 0.739513 0.629511 -0.238404
vn 0.450277 0.853956 -0.260787
vn 0.212298 0.572294 -0.792092
vn 0.950028 0.279209 -0.139604
vn 0.0316 -0.431201 -0.901702
vn 0.840201 -0.539901 -0.0507
vn 0.144898 -0.945287 0.292296
vn -0.958612 -0.115802 -0.260104
vn 0.936074 -0.298492 0.186195
vn -0.0857 0.435098 0.896295
vn 0.36071 0.307509 0.880526
vn 0.889985 -0.455892 0.0094
vn 0.227602 -0.545806 -0.806408
vn -0.078601 -0.55651 -0.827115
vn -0.730888 0.59519 0.333995
vn -0.662217 0.535414 0.524214
vn -0.770724 0.107003 -0.62812
vn -0.954502 0.1344 -0.266201
vn 0.488605 0.188002 0.852009
vn 0.681826 -0.349313 -0.642724
vn -0.029 -0.745111 -0.66631
vn -0.427914 0.60282 0.673422
vn -0.992208 0.095601 -0.079901
vn 0.635475 0.701872 0.321788
vn -0.453012 0.396211 0.798622
vn 0.717194 0.603995 0.347597
vn 0.838836 -0.183508 -0.512522
vn -0.276314 0.395219 0.876044
vn -0.350294 -0.62369 -0.698789
vn -0.876218 -0.376108 0.301306
vn -0.447612 -0.76062 -0.470213
vn 0.376285 -0.917662 0.127695
vn -0.037599 -0.107598 0.993483
vn 0.812639 0.019901 0.582428
vn -0.325995 0.0127 0.945286
vn -0.906118 -0.357907 0.225505
vn 0.085604 -0.621731 -0.778539
vn -0.961062 -0.160294 -0.225091
vn 0.809099 -0.555699 0.1912
vn -0.688004 -0.090801 0.720004
vn 0.093099 0.586895 -0.804293
vn 0.088098 0.537289 -0.838784
vn 0.148804 0.68652 -0.711721
vn 0.101702 0.677115 -0.728816
vn -0.0242 0.349595 -0.936588
vn 0.793117 0.193804 -0.577412
vn 0.661177 0.110996 -0.741974
vn 0.924524 0.329109 -0.192205
vn -0.946098 -0.2076 0.248599
vn -0.291401 -0.388401 -0.874203
vn -0.644297 -0.417598 -0.640697
vn -0.838484 -0.180996 0.51399
vn 0.821692 0.0065 -0.569894
vn 0.550133 -0.211513 -0.807847
vn 0.944497 0.251299 0.2116
vn 0.992384 0.106498 0.061899
vn 0.025501 0.177208 0.983843
vn -0.946098 -0.2076 0.248599
vn -0.838484 -0.180996 0.51399
vn 0.2991 0.0938 0.949601
vn 0.944497 0.251299 0.2116
vn 0.992384 0.106498 0.061899
vn 0.512288 -0.203396 -0.834381
vn -0.886766 -0.325887 -0.327788
vn 0.999976 0.0019 0.0067
vn -0.831833 -0.210108 0.51372
vn 0.194991 -0.032799 0.980257
vn 0.999976 0.0019 0.0067
vn -0.831833 -0.210108 0.51372
vn 0.998724 -0.049501 0.01
vn -0.838105 -0.176101 0.516303
vn 0.581189 -0.025 0.813385
vn 0.998724 -0.049501 0.01
vn -0.838105 -0.176101 0.516303
vn 0.156493 -0.976755 0.146493
vn 0.128906 -0.988244 -0.082204
vn 0.153004 -0.984725 0.083102
vn 0.156493 -0.976755 0.146493
vn 0.153004 -0.984725 0.083102
vn 0.167195 -0.95157 0.257992
vn 0.161594 -0.949264 0.26979
vn -0.0011 -0.99998 -0.0063
vn -0.003 -0.99986 -0.016499
vn -0.003 -0.99986 -0.016499
vn -0.0012 -0.99998 -0.0063
vn 0.0008 -0.999992 0.0039
vn 0.0009 -0.999992 0.004
vn -0.949965 0.150895 0.27349
vn -0.130306 0.127505 0.983241
vn -0.499902 0.524102 0.689503
vn 0.679815 0.47401 0.559613
vn 0.833207 0.0917 0.545305
vn 0.947795 0.056699 -0.313798
vn 0.420404 0.0432 -0.906308
vn 0.925306 0.242201 -0.291802
vn 0.171495 -0.0151 -0.985069
vn -0.61499 -0.026599 -0.788087
vn -0.829562 0.019499 -0.558075
vn -0.999444 -0.031801 0.01
vn -0.356703 0.726605 0.587204
vn 0.925306 0.242201 -0.291802
vn 0.420404 0.0432 -0.906308
vn 0.319301 0.0402 -0.946801
vn -0.708503 -0.0956 -0.699203
vn -0.61499 -0.026599 -0.788087
vn -0.999444 -0.031801 0.01
vn 0.457795 -0.0173 -0.88889
vn 0.874806 0.194301 -0.443803
vn -0.580602 -0.1226 -0.804904
vn -0.979098 -0.1028 -0.1755
vn -0.536902 -0.250801 0.805503
vn 0.150503 -0.265405 0.952318
vn -0.442799 -0.306799 0.842498
vn 0.442891 -0.171697 0.879982
vn 0.773381 -0.105598 0.625085
vn 0.842542 -0.087805 0.531426
vn 0.299287 0.185492 -0.935959
vn -0.699099 -0.0061 -0.714999
vn 0.49351 0.631813 -0.597712
vn 0.763204 0.567103 -0.309701
vn -0.610826 0.501822 -0.612426
vn -0.968426 0.221606 -0.114203
vn -0.059398 -0.331286 0.941659
vn -0.454596 -0.312197 0.834192
vn 0.719373 -0.170894 0.673275
vn 0.763204 0.567103 -0.309701
vn 0.49351 0.631813 -0.597712
vn -0.170198 0.947185 -0.271796
vn -0.610826 0.501822 -0.612426
vn -0.968426 0.221606 -0.114203
vn -0.367393 -0.632389 -0.681988
vn -0.119004 -0.052002 -0.991531
vn -0.179196 -0.182797 -0.966682
vn 0.061699 0.316495 -0.946586
vn -0.541491 0.724788 0.425993
vn -0.264398 0.650396 0.712095
vn -0.315011 0.86673 0.386713
vn 0.449202 0.409603 0.794005
vn 0.408385 0.763373 0.500483
vn -0.535828 0.789341 0.299716
vn -0.268307 0.933825 0.236606
vn 0.26619 0.960367 0.082697
vn 0.824091 0.096399 0.558194
vn 0.899512 0.197703 0.389605
vn 0.958918 0.0067 0.283605
vn 0.896557 0.435179 0.082496
vn 0.985989 0.0609 0.155298
vn -0.523579 0.804968 0.279089
vn -0.266591 0.909667 0.318489
vn -0.269297 0.810992 0.519395
vn -0.367393 -0.632389 -0.681988
vn 0.987355 0.081796 0.135794
vn 0.960015 0.219304 0.174003
vn 0.865852 0.237515 0.440327
vn 0.091699 0.632398 0.769197
vn 0.464189 0.43549 0.771283
vn -0.438388 -0.876977 -0.196795
vn -0.400275 -0.725255 -0.560165
vn -0.430587 -0.828775 -0.357389
vn -0.395197 -0.878694 0.267798
vn -0.412289 -0.76258 -0.498487
vn -0.418592 0.082898 -0.904383
vn -0.661311 0.352906 -0.661911
vn -0.425007 -0.319006 -0.847115
vn -0.201396 0.456591 -0.866582
vn -0.90771 -0.139002 0.395904
vn -0.925299 -0.0997 0.365899
vn -0.827598 0.1193 0.548498
vn -0.988012 0.055901 -0.143902
vn -0.98222 0.161803 0.095202
vn -0.96637 -0.177895 -0.185695
vn -0.414388 -0.415188 -0.809877
vn -0.98222 0.161803 0.095202
vn -0.988012 0.055901 -0.143902
vn -0.732522 -0.098903 0.67352
vn -0.96637 -0.177895 -0.185695
vn -0.702195 -0.323798 0.634095
vn -0.414388 -0.415188 -0.809877
vn -0.288407 0.884421 0.366908
vn -0.522507 0.613608 0.592007
vn -0.560532 0.817447 0.132608
vn -0.2815 0.9557 -0.086
vn -0.2815 0.9557 -0.086
vn -0.560532 0.817447 0.132608
vn -0.782941 0.229712 -0.578131
vn -0.776796 0.178599 0.603896
vn -0.749902 0.2605 0.608101
vn -0.561879 -0.182793 -0.806771
vn 0.714502 -0.584702 -0.384201
vn -0.749902 0.2605 0.608101
vn 0.193291 -0.158493 0.968256
vn -0.367003 -0.079601 0.926808
vn -0.776796 0.178599 0.603896
vn 0.28269 -0.313689 0.906469
vn 0.714502 -0.584702 -0.384201
vn -0.863505 -0.242702 0.442102
vn -0.43271 -0.397809 -0.809018
vn 0.87123 -0.209307 -0.444015
vn -0.863505 -0.242702 0.442102
vn 0.87123 -0.209307 -0.444015
vn -0.399592 0.288594 0.870081
vn -0.734742 0.251414 0.630036
vn -0.847432 0.292111 0.443317
vn -0.974143 0.198288 -0.108294
vn -0.922998 0.1586 -0.3506
vn -0.266706 0.102402 -0.958322
vn 0.084799 0.182296 -0.97958
vn 0.0132 0.141997 -0.989779
vn -0.449975 0.153492 -0.879752
vn 0.256489 0.139294 -0.956457
vn 0.256489 0.139294 -0.956457
vn -0.651082 0.440388 0.618183
vn -0.925814 0.305405 0.222703
vn -0.8712 0.3741 -0.3179
vn -0.779506 0.301602 -0.549005
vn 0.118199 0.413297 -0.902893
vn 0.118199 0.413297 -0.902893
vn -0.779506 0.301602 -0.549005
vn -0.8712 0.3741 -0.3179
vn -0.449975 0.153492 -0.879752
vn -0.266706 0.102402 -0.958322
vn -0.661311 0.352906 -0.661911
vn 0.801682 -0.106498 0.588187
vn 0.834603 -0.296101 -0.464502
vn 0.639273 -0.300887 -0.70767
vn 0.706534 -0.109005 0.699234
vn -0.305497 -0.192698 -0.932491
vn -0.538976 -0.084596 -0.838063
vn -0.980283 -0.0002 -0.197597
vn -0.977547 0.189909 0.091304
vn -0.198299 0.198199 0.959893
vn 0.706534 -0.109005 0.699234
vn 0.801682 -0.106498 0.588187
vn -0.402195 0.086199 0.911487
vn -0.977547 0.189909 0.091304
vn -0.980283 -0.0002 -0.197597
vn -0.322303 -0.225403 -0.91941
vn 0.957654 -0.249388 -0.143893
vn -0.976222 -0.097902 -0.193405
vn 0.721985 -0.175097 0.669387
vn -0.388685 -0.112596 0.914465
vn -0.976222 -0.097902 -0.193405
vn 0.721985 -0.175097 0.669387
vn -0.966288 -0.173198 -0.190498
vn 0.712778 -0.164695 0.681779
vn -0.730164 -0.162092 0.663767
vn -0.966288 -0.173198 -0.190498
vn 0.712778 -0.164695 0.681779
vn -0.089998 -0.993973 0.062598
vn -0.0465 -0.996291 -0.072399
vn 0.085301 -0.902712 -0.421705
vn -0.089998 -0.993973 0.062598
vn -0.168605 -0.939428 0.298409
vn -0.0465 -0.996291 -0.072399
vn -0.165692 -0.936456 0.309186
vn -0.0006 -0.999999 0.0014
vn 0.0039 -0.999961 -0.0079
vn 0.0039 -0.999961 -0.0079
vn -0.0005 -0.999999 0.0015
vn -0.005 -0.999929 0.0108
vn -0.0052 -0.999928 0.0108
vn 0.844344 0.165109 0.509727
vn 0.319298 0.561496 0.763395
vn -0.127796 0.134996 0.98257
vn -0.758724 0.510516 0.404613
vn -0.945502 0.0971 0.310801
vn -0.837898 0.0545 -0.543099
vn -0.820031 0.282711 -0.497619
vn -0.1924 0.1531 -0.9693
vn 0.0888 -0.0226 -0.995793
vn 0.799387 0.070299 -0.59669
vn 0.950026 0.023201 -0.311308
vn 0.964555 0.043998 0.260188
vn 0.286002 0.709005 0.644605
vn -0.820031 0.282711 -0.497619
vn -0.117899 0.302599 -0.945798
vn -0.1924 0.1531 -0.9693
vn 0.84353 0.195807 -0.500117
vn 0.799387 0.070299 -0.59669
vn 0.964555 0.043998 0.260188
vn -0.790488 0.236697 -0.564892
vn -0.260507 0.246307 -0.933525
vn 0.740994 0.238598 -0.627694
vn 0.99532 0.079802 0.054501
vn 0.40532 -0.456323 0.79214
vn 0.318506 -0.53221 0.784415
vn -0.281202 -0.601303 0.747904
vn -0.566091 -0.522392 0.63769
vn -0.845993 -0.408897 0.342197
vn -0.89736 -0.367184 0.244789
vn -0.138495 0.469382 -0.872067
vn 0.814205 0.328502 -0.478703
vn -0.782524 0.547917 -0.295709
vn -0.479099 0.741199 -0.4702
vn 0.610069 0.753262 -0.245788
vn 0.909662 0.357885 0.210792
vn 0.3326 -0.533001 0.778002
vn -0.0646 -0.6344 0.770301
vn -0.790929 -0.480317 0.379114
vn -0.782524 0.547917 -0.295709
vn 0.0325 0.994889 0.095599
vn -0.479099 0.741199 -0.4702
vn 0.610069 0.753262 -0.245788
vn 0.909662 0.357885 0.210792
vn 0.815899 -0.438299 -0.377099
vn 0.950701 0.1033 -0.2924
vn 0.936057 0.243489 -0.253988
vn 0.788011 0.604208 -0.118201
vn -0.177504 0.080502 0.980822
vn -0.256611 0.328613 0.908936
vn -0.553211 0.081801 0.829016
vn -0.683077 0.622979 0.381187
vn -0.937525 0.279708 0.206905
vn -0.072698 0.176194 0.981667
vn -0.149799 0.457897 0.876294
vn -0.261194 0.835879 0.482788
vn -0.772208 0.520905 -0.363804
vn -0.879823 0.343309 -0.328709
vn -0.692624 0.450116 -0.56362
vn -0.515216 0.804025 -0.296809
vn -0.59521 0.55111 -0.58481
vn -0.061197 0.20209 0.977453
vn -0.391287 0.266391 0.880869
vn -0.221501 0.412102 0.883804
vn 0.815899 -0.438299 -0.377099
vn -0.579979 0.574279 -0.577779
vn -0.804307 0.513505 -0.299003
vn -0.610592 0.647492 -0.455995
vn -0.766324 0.250708 0.591518
vn -0.926077 0.315492 0.206995
vn 0.435699 -0.831598 -0.344399
vn 0.571109 -0.734612 -0.366306
vn 0.729518 -0.569014 -0.379509
vn 0.0047 -0.972178 -0.234195
vn 0.683002 -0.625301 -0.377501
vn 0.618063 0.785053 -0.041097
vn 0.0248 0.220801 0.975004
vn 0.741898 -0.161399 0.650798
vn -0.582001 0.768001 -0.267301
vn -0.38249 -0.874177 0.299192
vn -0.89288 0.073898 0.44419
vn -0.762493 0.516395 0.389796
vn -0.155098 -0.949688 0.272097
vn 0.710101 -0.656301 -0.255
vn 0.880892 -0.401096 -0.251298
vn -0.322282 0.944249 0.067296
vn -0.214701 0.970202 -0.1123
vn 0.543496 0.801195 -0.250398
vn 0.682616 0.521912 -0.511511
vn -0.682205 -0.319202 0.657804
vn 0.266398 -0.590896 0.761495
vn 0.988881 0.113998 0.095498
vn -0.452601 0.710601 0.538701
vn 0.123001 0.990808 -0.0563
vn -0.441987 -0.884375 0.150096
vn -0.960536 -0.191007 0.202207
vn -0.446601 -0.893803 0.0408
vn 0.995482 0.0069 -0.094698
vn -0.791309 -0.611407 -0.0033
vn 0.230595 0.97288 -0.0182
vn -0.836359 0.495876 0.233688
vn 0.304511 0.181607 0.935036
vn 0.0091 0.949113 0.314804
vn -0.627662 -0.561166 0.539568
vn 0.276308 -0.844424 0.458914
vn -0.83689 -0.428895 0.340096
vn -0.81421 0.552707 0.177702
vn 0.774013 0.58211 0.249104
vn -0.574007 0.75441 -0.318404
vn 0.6005 -0.3059 0.7388
vn -0.984702 -0.0138 0.1737
vn 0.051098 -0.090796 -0.994558
vn -0.094602 -0.071802 -0.992923
vn 0.105596 -0.116496 -0.987562
vn -0.055199 -0.039799 -0.997682
vn 0.338808 -0.122703 -0.93282
vt 0.4999 0.6688
vt 0.4999 0.7432
vt 0.3414 0.7418
vt 0.2824 0.6903
vt 0.4999 0.7886
vt 0.3095 0.7928
vt 0.4777 0.9293
vt 0.3079 0.9118
vt 0.5115 0.7243
vt 0.6365 0.7318
vt 0.6391 0.7704
vt 0.5115 0.7658
vt 0.6507 0.8798
vt 0.5146 0.895
vt 0.5209 0.7974
vt 0.2868 0.7414
vt 0.2577 0.6977
vt 0.2852 0.7891
vt 0.2814 0.8325
vt 0.7146 0.684
vt 0.6771 0.738
vt 0.6277 0.6739
vt 0.7148 0.7891
vt 0.7279 0.7866
vt 0.7156 0.8675
vt 0.6862 0.912
vt 0.5737 0.9403
vt 0.5084 0.9324
vt 0.2281 0.9273
vt 0.3896 0.955
vt 0.7719 0.9273
vt 0.6052 0.9601
vt 0.2276 0.8853
vt 0.1438 0.8615
vt 0.08 0.749
vt 0.134 0.7338
vt 0.2195 0.7033
vt 0.8562 0.8615
vt 0.7724 0.8891
vt 0.8691 0.7052
vt 0.919 0.7565
vt 0.8303 0.6948
vt 0.7805 0.7033
vt 0.07 0.6817
vt 0.1373 0.6798
vt 0.2074 0.6758
vt 0.9123 0.7325
vt 0.7926 0.6877
vt 0.4777 0.9909
vt 0.5094 0.6601
vt 0.5094 0.4926
vt 0.6558 0.4954
vt 0.657 0.598
vt 0.5094 0.5806
vt 0.7339 0.4942
vt 0.7184 0.5999
vt 0.1835 0.494
vt 0.374 0.4739
vt 0.3932 0.589
vt 0.2154 0.6032
vt 0.4984 0.597
vt 0.4984 0.597
vt 0.3932 0.589
vt 0.374 0.4739
vt 0.4953 0.4728
vt 0.5084 0.9324
vt 0.5737 0.9403
vt 0.5543 0.9849
vt 0.5084 0.9829
vt 0.6052 0.9601
vt 0.5849 0.9927
vt 0.3896 0.955
vt 0.3079 0.9118
vt 0.4777 0.9909
vt 0.4151 0.9927
vt 0.9568 0.4396
vt 0.9728 0.4395
vt 0.9821 0.4343
vt 0.9628 0.4342
vt 0.8715 0.6899
vt 0.9846 0.7741
vt 0.9887 0.6339
vt 0.9178 0.6233
vt 0.7968 0.6749
vt 0.8062 0.618
vt 0.8835 0.6897
vt 0.915 0.638
vt 0.8206 0.6757
vt 0.8356 0.6316
vt 0.9635 0.5613
vt 0.918 0.5472
vt 0.8914 0.54
vt 0.9519 0.562
vt 0.9008 0.5478
vt 0.9737 0.5402
vt 0.9749 0.541
vt 0.9794 0.5108
vt 0.9584 0.4862
vt 0.9906 0.5094
vt 0.9557 0.4851
vt 0.8922 0.4918
vt 0.8828 0.4876
vt 0.8938 0.4828
vt 0.9032 0.487
vt 0.9806 0.4808
vt 0.9943 0.4804
vt 0.9655 0.4867
vt 0.8855 0.5128
vt 0.8949 0.5205
vt 0.9131 0.5035
vt 0.9225 0.5112
vt 0.5003 0.02
vt 0.5047 0.0506
vt 0.4312 0.0454
vt 0.4457 0.023
vt 0.6115 0.0236
vt 0.7874 0.5849
vt 0.8234 0.4766
vt 0.7394 0.6912
vt 0.4888 0.4737
vt 0.4246 0.4708
vt 0.4331 0.4179
vt 0.4897 0.4182
vt 0.3214 0.4783
vt 0.3312 0.4169
vt 0.2732 0.4752
vt 0.2909 0.4194
vt 0.6468 0.474
vt 0.5098 0.4774
vt 0.5103 0.4182
vt 0.6385 0.4044
vt 0.7252 0.4783
vt 0.7161 0.4194
vt 0.3599 0.2884
vt 0.4079 0.2867
vt 0.3219 0.3105
vt 0.4557 0.3117
vt 0.6271 0.3258
vt 0.6924 0.3105
vt 0.5599 0.3143
vt 0.3151 0.2874
vt 0.4512 0.287
vt 0.6232 0.2872
vt 0.6849 0.2874
vt 0.5488 0.287
vt 0.6849 0.2874
vt 0.6232 0.2872
vt 0.5488 0.287
vt 0.3151 0.2874
vt 0.4512 0.287
vt 0.4079 0.2867
vt 0.3599 0.2884
vt 0.5807 0.0038
vt 0.624 0.0549
vt 0.624 0.0209
vt 0.5807 0.072
vt 0.4224 0.0549
vt 0.4309 0.0164
vt 0.7882 0.1223
vt 0.8259 0.0033
vt 0.8425 0.0457
vt 0.9167 0.0475
vt 0.9373 0.0039
vt 0.9551 0.1582
vt 0.9244 0.2003
vt 0.9029 0.1343
vt 0.9136 0.1676
vt 0.8259 0.2003
vt 0.8352 0.1671
vt 0.7973 0.1783
vt 0.8497 0.0996
vt 0.3046 0.0981
vt 0.3399 0.0761
vt 0.3657 0.1206
vt 0.4164 0.1211
vt 0.4164 0.0761
vt 0.4604 0.0971
vt 0.3542 0.1573
vt 0.2871 0.2463
vt 0.428 0.1579
vt 0.4778 0.2463
vt 0.5611 0.0857
vt 0.6301 0.2295
vt 0.5388 0.1973
vt 0.6218 0.0833
vt 0.7173 0.1938
vt 0.6825 0.0857
vt 0.3607 0.242
vt 0.4215 0.2426
vt 0.3349 0.2872
vt 0.2915 0.2878
vt 0.4215 0.2872
vt 0.4648 0.2878
vt 0.626 0.2841
vt 0.5279 0.2547
vt 0.7324 0.2516
vt 0.5368 0.0143
vt 0.6049 0.0249
vt 0.4927 0.0354
vt 0.6049 0.046
vt 0.5368 0.0565
vt 0.5001 0.0066
vt 0.4311 0.0125
vt 0.4311 0.0641
vt 0.3732 0.0383
vt 0.7322 0.2996
vt 0.7719 0.2009
vt 0.7983 0.3182
vt 0.9005 0.1791
vt 0.9005 0.3295
vt 0.7306 0.3453
vt 0.7719 0.3549
vt 0.9005 0.377
vt 0.7732 0.2009
vt 0.7996 0.3182
vt 0.7335 0.2996
vt 0.7732 0.3549
vt 0.7319 0.3453
vt 0.7306 0.3453
vt 0.7719 0.3549
vt 0.7591 0.3837
vt 0.5001 0.0701
vt 0.7319 0.3453
vt 0.7626 0.3837
vt 0.7732 0.3549
vt 0.9005 0.377
vt 0.9005 0.4224
vt 0.6393 0.0131
vt 0.5399 0.0068
vt 0.6393 0.0635
vt 0.6427 0.0383
vt 0.5399 0.0698
vt 0.3414 0.7418
vt 0.2824 0.6903
vt 0.3095 0.7928
vt 0.3079 0.9118
vt 0.6391 0.7704
vt 0.6365 0.7318
vt 0.6507 0.8798
vt 0.2868 0.7414
vt 0.2577 0.6977
vt 0.2852 0.7891
vt 0.2814 0.8325
vt 0.7146 0.684
vt 0.6771 0.738
vt 0.6277 0.6739
vt 0.7148 0.7891
vt 0.7156 0.8675
vt 0.7279 0.7866
vt 0.5737 0.9403
vt 0.6862 0.912
vt 0.2281 0.9273
vt 0.3896 0.955
vt 0.6052 0.9601
vt 0.7719 0.9273
vt 0.2276 0.8853
vt 0.08 0.749
vt 0.1438 0.8615
vt 0.134 0.7338
vt 0.2195 0.7033
vt 0.8562 0.8615
vt 0.8691 0.7052
vt 0.7724 0.8891
vt 0.919 0.7565
vt 0.8303 0.6948
vt 0.7805 0.7033
vt 0.07 0.6817
vt 0.1373 0.6798
vt 0.2074 0.6758
vt 0.9123 0.7325
vt 0.7926 0.6877
vt 0.5094 0.4926
vt 0.657 0.598
vt 0.6558 0.4954
vt 0.7184 0.5999
vt 0.7339 0.4942
vt 0.1835 0.494
vt 0.3932 0.589
vt 0.374 0.4739
vt 0.2154 0.6032
vt 0.374 0.4739
vt 0.3932 0.589
vt 0.5543 0.9849
vt 0.5737 0.9403
vt 0.5849 0.9927
vt 0.6052 0.9601
vt 0.3079 0.9118
vt 0.4777 0.9293
vt 0.3896 0.955
vt 0.4151 0.9927
vt 0.7874 0.5849
vt 0.8234 0.4766
vt 0.7394 0.6912
vt 0.4888 0.4737
vt 0.4331 0.4179
vt 0.4246 0.4708
vt 0.4897 0.4182
vt 0.3312 0.4169
vt 0.3214 0.4783
vt 0.2909 0.4194
vt 0.2732 0.4752
vt 0.6468 0.474
vt 0.5103 0.4182
vt 0.5098 0.4774
vt 0.6385 0.4044
vt 0.7252 0.4783
vt 0.7161 0.4194
vt 0.3599 0.2884
vt 0.4079 0.2867
vt 0.3219 0.3105
vt 0.4557 0.3117
vt 0.6271 0.3258
vt 0.6924 0.3105
vt 0.5599 0.3143
vt 0.3151 0.2874
vt 0.4512 0.287
vt 0.6232 0.2872
vt 0.6849 0.2874
vt 0.5488 0.287
vt 0.6849 0.2874
vt 0.5488 0.287
vt 0.6232 0.2872
vt 0.3151 0.2874
vt 0.4079 0.2867
vt 0.4512 0.287
vt 0.3599 0.2884
vt 0.5807 0.0038
vt 0.624 0.0209
vt 0.624 0.0549
vt 0.5807 0.072
vt 0.4224 0.0549
vt 0.4309 0.0164
vt 0.7882 0.1223
vt 0.8425 0.0457
vt 0.8259 0.0033
vt 0.9167 0.0475
vt 0.9373 0.0039
vt 0.9551 0.1582
vt 0.9029 0.1343
vt 0.9244 0.2003
vt 0.9136 0.1676
vt 0.8259 0.2003
vt 0.8352 0.1671
vt 0.7973 0.1783
vt 0.8497 0.0996
vt 0.3046 0.0981
vt 0.3657 0.1206
vt 0.3399 0.0761
vt 0.4164 0.1211
vt 0.4164 0.0761
vt 0.4604 0.0971
vt 0.2871 0.2463
vt 0.3542 0.1573
vt 0.428 0.1579
vt 0.4778 0.2463
vt 0.5611 0.0857
vt 0.5388 0.1973
vt 0.6301 0.2295
vt 0.6218 0.0833
vt 0.7173 0.1938
vt 0.6825 0.0857
vt 0.3607 0.242
vt 0.4215 0.2426
vt 0.2915 0.2878
vt 0.3349 0.2872
vt 0.4215 0.2872
vt 0.4648 0.2878
vt 0.5279 0.2547
vt 0.626 0.2841
vt 0.7324 0.2516
vt 0.5368 0.0143
vt 0.4927 0.0354
vt 0.6049 0.0249
vt 0.6049 0.046
vt 0.5368 0.0565
vt 0.5001 0.0066
vt 0.4311 0.0641
vt 0.4311 0.0125
vt 0.3732 0.0383
vt 0.7322 0.2996
vt 0.7983 0.3182
vt 0.7719 0.2009
vt 0.9005 0.3295
vt 0.9005 0.1791
vt 0.7306 0.3453
vt 0.7719 0.3549
vt 0.9005 0.377
vt 0.7996 0.3182
vt 0.7732 0.2009
vt 0.7335 0.2996
vt 0.7732 0.3549
vt 0.7319 0.3453
vt 0.7306 0.3453
vt 0.7591 0.3837
vt 0.7719 0.3549
vt 0.5001 0.0701
vt 0.7319 0.3453
vt 0.7732 0.3549
vt 0.7626 0.3837
vt 0.9005 0.377
vt 0.9005 0.4224
vt 0.6393 0.0131
vt 0.6393 0.0635
vt 0.5399 0.0068
vt 0.6427 0.0383
vt 0.5399 0.0698
vt 0.9568 0.4396
vt 0.9821 0.4343
vt 0.9728 0.4395
vt 0.9628 0.4342
vt 0.8715 0.6899
vt 0.9887 0.6339
vt 0.9846 0.7741
vt 0.9178 0.6233
vt 0.7968 0.6749
vt 0.8062 0.618
vt 0.915 0.638
vt 0.8835 0.6897
vt 0.8356 0.6316
vt 0.8206 0.6757
vt 0.9635 0.5613
vt 0.918 0.5472
vt 0.8914 0.54
vt 0.9519 0.562
vt 0.9008 0.5478
vt 0.9737 0.5402
vt 0.9749 0.541
vt 0.9794 0.5108
vt 0.9584 0.4862
vt 0.9906 0.5094
vt 0.9557 0.4851
vt 0.8922 0.4918
vt 0.8938 0.4828
vt 0.8828 0.4876
vt 0.9032 0.487
vt 0.9806 0.4808
vt 0.9943 0.4804
vt 0.9655 0.4867
vt 0.8855 0.5128
vt 0.8949 0.5205
vt 0.9131 0.5035
vt 0.9225 0.5112
vt 0.5003 0.02
vt 0.4312 0.0454
vt 0.5047 0.0506
vt 0.4457 0.023
vt 0.6115 0.0236
f 1/1/1 3/3/3 2/2/2
f 3/3/3 1/1/1 4/4/4
f 2/2/2 6/6/6 5/5/5
f 6/6/6 2/2/2 3/3/3
f 5/5/5 8/8/8 7/7/7
f 8/8/8 5/5/5 6/6/6
f 9/9/9 11/11/11 10/10/10
f 11/11/11 9/9/9 12/12/12
f 13/13/13 15/15/15 14/14/14
f 4/4/4 16/16/16 3/3/3
f 16/16/16 4/4/4 17/17/17
f 3/3/3 18/18/18 6/6/6
f 18/18/18 3/3/3 16/16/16
f 19/19/19 6/6/6 18/18/18
f 20/20/20 10/10/10 21/21/21
f 10/10/10 20/20/20 22/22/22
f 21/21/21 11/11/11 23/23/23
f 11/11/11 21/21/21 10/10/10
f 23/23/23 25/25/25 24/24/24
f 25/25/25 23/23/23 11/11/11
f 14/14/14 27/27/27 26/26/26
f 27/27/27 14/14/14 28/28/28
f 29/29/29 30/30/30 8/8/8
f 26/26/26 32/32/32 31/31/31
f 32/32/32 26/26/26 27/27/27
f 6/6/6 33/33/33 8/8/8
f 19/19/19 33/33/33 6/6/6
f 11/11/11 13/13/13 25/25/25
f 25/25/25 13/13/13 26/26/26
f 14/14/14 26/26/26 13/13/13
f 33/33/33 35/35/35 34/34/34
f 35/35/35 33/33/33 36/36/36
f 19/19/19 36/36/36 33/33/33
f 36/36/36 19/19/19 37/37/37
f 38/38/38 40/40/40 39/39/39
f 40/40/40 38/38/38 41/41/41
f 39/39/39 42/42/42 25/25/25
f 42/42/42 39/39/39 40/40/40
f 25/25/25 43/43/43 24/24/24
f 43/43/43 25/25/25 42/42/42
f 36/36/36 44/44/44 35/35/35
f 44/44/44 36/36/36 45/45/45
f 37/37/37 45/45/45 36/36/36
f 45/45/45 37/37/37 46/46/46
f 40/40/40 41/41/41 47/47/47
f 42/42/42 48/48/48 43/43/43
f 7/7/7 8/8/8 49/49/49
f 22/22/22 50/50/50 9/9/9
f 10/10/10 22/22/22 9/9/9
f 13/13/13 11/11/11 15/15/15
f 11/11/11 12/12/12 15/15/15
f 51/51/51 53/53/53 52/52/52
f 53/53/53 51/51/51 54/54/54
f 52/52/52 56/56/56 55/55/55
f 56/56/56 52/52/52 53/53/53
f 54/54/54 22/22/22 53/53/53
f 22/22/22 54/54/54 50/50/50
f 53/53/53 20/20/20 56/56/56
f 20/20/20 53/53/53 22/22/22
f 57/57/57 59/59/59 58/58/58
f 59/59/59 57/57/57 60/60/60
f 60/60/60 1/1/1 59/59/59
f 1/1/1 60/60/60 4/4/4
f 1/1/1 61/61/61 59/59/59
f 62/62/62 64/64/64 63/63/63
f 62/62/62 65/65/65 64/64/64
f 66/66/66 68/68/68 67/67/67
f 68/68/68 66/66/66 69/69/69
f 67/67/67 71/71/71 70/70/70
f 71/71/71 67/67/67 68/68/68
f 72/72/72 74/74/74 73/73/73
f 74/74/74 72/72/72 75/75/75
f 39/39/39 25/25/25 26/26/26
f 33/33/33 34/34/34 29/29/29
f 29/29/29 8/8/8 33/33/33
f 31/31/31 38/38/38 39/39/39
f 31/31/31 39/39/39 26/26/26
f 76/76/76 78/78/78 77/77/77
f 78/78/78 76/76/76 79/79/79
f 80/80/80 82/82/82 81/81/81
f 82/82/82 80/80/80 83/83/83
f 84/84/84 83/83/83 80/80/80
f 83/83/83 84/84/84 85/85/85
f 81/81/81 87/87/87 86/86/86
f 87/87/87 81/81/81 82/82/82
f 86/86/86 89/89/89 88/88/88
f 89/89/89 86/86/86 87/87/87
f 88/88/88 85/85/85 84/84/84
f 85/85/85 88/88/88 89/89/89
f 90/90/90 83/83/83 91/91/91
f 83/83/83 90/90/90 82/82/82
f 85/85/85 91/91/91 83/83/83
f 91/91/91 85/85/85 92/92/92
f 82/82/82 93/93/93 87/87/87
f 93/93/93 82/82/82 90/90/90
f 87/87/87 94/94/94 89/89/89
f 94/94/94 87/87/87 93/93/93
f 89/89/89 92/92/92 85/85/85
f 92/92/92 89/89/89 94/94/94
f 91/91/91 95/95/95 90/90/90
f 96/96/96 90/90/90 95/95/95
f 90/90/90 96/96/96 93/93/93
f 94/94/94 93/93/93 96/96/96
f 91/91/91 97/97/97 95/95/95
f 97/97/97 91/91/91 98/98/98
f 95/95/95 99/99/99 96/96/96
f 99/99/99 95/95/95 97/97/97
f 92/92/92 98/98/98 91/91/91
f 98/98/98 92/92/92 100/100/100
f 101/101/101 103/103/103 102/102/102
f 103/103/103 101/101/101 104/104/104
f 98/98/98 105/105/105 97/97/97
f 97/97/97 106/106/106 99/99/99
f 106/106/106 97/97/97 105/105/105
f 107/107/107 99/99/99 106/106/106
f 98/98/98 77/77/77 105/105/105
f 77/77/77 98/98/98 76/76/76
f 105/105/105 78/78/78 106/106/106
f 78/78/78 105/105/105 77/77/77
f 100/100/100 76/76/76 98/98/98
f 76/76/76 100/100/100 79/79/79
f 106/106/106 79/79/79 107/107/107
f 79/79/79 106/106/106 78/78/78
f 107/107/107 79/79/79 100/100/100
f 94/94/94 108/108/108 92/92/92
f 108/108/108 94/94/94 109/109/109
f 92/92/92 110/110/110 100/100/100
f 110/110/110 92/92/92 108/108/108
f 100/100/100 111/111/111 107/107/107
f 111/111/111 100/100/100 110/110/110
f 109/109/109 102/102/102 108/108/108
f 102/102/102 109/109/109 101/101/101
f 108/108/108 103/103/103 110/110/110
f 103/103/103 108/108/108 102/102/102
f 110/110/110 104/104/104 111/111/111
f 104/104/104 110/110/110 103/103/103
f 111/111/111 101/101/101 109/109/109
f 101/101/101 111/111/111 104/104/104
f 99/99/99 107/107/107 111/111/111
f 99/99/99 111/111/111 96/96/96
f 96/96/96 111/111/111 94/94/94
f 111/111/111 109/109/109 94/94/94
f 112/112/112 114/114/114 113/113/113
f 112/112/112 115/115/115 114/114/114
f 116/116/116 112/112/112 113/113/113
f 117/117/117 55/55/55 56/56/56
f 117/117/117 118/118/118 55/55/55
f 119/119/119 56/56/56 20/20/20
f 119/119/119 117/117/117 56/56/56
f 120/120/120 122/122/122 121/121/121
f 122/122/122 120/120/120 123/123/123
f 121/121/121 125/125/125 124/124/124
f 125/125/125 121/121/121 122/122/122
f 124/124/124 127/127/127 126/126/126
f 127/127/127 124/124/124 125/125/125
f 128/128/128 130/130/130 129/129/129
f 130/130/130 128/128/128 131/131/131
f 132/132/132 131/131/131 128/128/128
f 131/131/131 132/132/132 133/133/133
f 122/122/122 134/134/134 125/125/125
f 134/134/134 122/122/122 135/135/135
f 125/125/125 136/136/136 127/127/127
f 136/136/136 125/125/125 134/134/134
f 123/123/123 135/135/135 122/122/122
f 135/135/135 123/123/123 137/137/137
f 133/133/133 138/138/138 131/131/131
f 138/138/138 133/133/133 139/139/139
f 131/131/131 140/140/140 130/130/130
f 140/140/140 131/131/131 138/138/138
f 134/134/134 141/141/141 136/136/136
f 135/135/135 137/137/137 142/142/142
f 139/139/139 143/143/143 138/138/138
f 143/143/143 139/139/139 144/144/144
f 138/138/138 145/145/145 140/140/140
f 145/145/145 138/138/138 143/143/143
f 146/146/146 148/148/148 147/147/147
f 149/149/149 151/151/151 150/150/150
f 149/149/149 152/152/152 151/151/151
f 153/153/153 155/155/155 154/154/154
f 153/153/153 154/154/154 156/156/156
f 153/153/153 156/156/156 157/157/157
f 153/153/153 157/157/157 158/158/158
f 159/159/159 161/161/161 160/160/160
f 160/160/160 161/161/161 162/162/162
f 160/160/160 162/162/162 163/163/163
f 163/163/163 162/162/162 164/164/164
f 164/164/164 166/166/166 165/165/165
f 164/164/164 165/165/165 167/167/167
f 167/167/167 165/165/165 168/168/168
f 167/167/167 168/168/168 169/169/169
f 169/169/169 168/168/168 170/170/170
f 169/169/169 170/170/170 159/159/159
f 159/159/159 170/170/170 171/171/171
f 159/159/159 171/171/171 161/161/161
f 161/161/161 171/171/171 162/162/162
f 162/162/162 171/171/171 166/166/166
f 162/162/162 166/166/166 164/164/164
f 172/172/172 174/174/174 173/173/173
f 173/173/173 174/174/174 175/175/175
f 173/173/173 175/175/175 176/176/176
f 176/176/176 175/175/175 177/177/177
f 172/172/172 179/179/179 178/178/178
f 172/172/172 178/178/178 174/174/174
f 174/174/174 178/178/178 180/180/180
f 174/174/174 180/180/180 175/175/175
f 175/175/175 180/180/180 181/181/181
f 175/175/175 181/181/181 177/177/177
f 182/182/182 184/184/184 183/183/183
f 182/182/182 183/183/183 185/185/185
f 185/185/185 183/183/183 186/186/186
f 185/185/185 186/186/186 187/187/187
f 179/179/179 188/188/188 178/178/178
f 178/178/178 188/188/188 189/189/189
f 178/178/178 189/189/189 180/180/180
f 180/180/180 189/189/189 181/181/181
f 179/179/179 191/191/191 190/190/190
f 179/179/179 190/190/190 188/188/188
f 188/188/188 190/190/190 192/192/192
f 188/188/188 192/192/192 189/189/189
f 189/189/189 192/192/192 193/193/193
f 189/189/189 193/193/193 181/181/181
f 184/184/184 195/195/195 194/194/194
f 184/184/184 194/194/194 183/183/183
f 183/183/183 194/194/194 196/196/196
f 183/183/183 196/196/196 186/186/186
f 197/197/197 199/199/199 198/198/198
f 198/198/198 199/199/199 200/200/200
f 200/200/200 199/199/199 201/201/201
f 202/202/202 204/204/204 203/203/203
f 205/205/205 203/203/203 204/204/204
f 206/206/206 208/208/208 207/207/207
f 207/207/207 210/210/210 209/209/209
f 210/210/210 207/207/207 208/208/208
f 211/211/211 212/212/212 208/208/208
f 208/208/208 206/206/206 211/211/211
f 208/208/208 213/213/213 210/210/210
f 213/213/213 208/208/208 212/212/212
f 209/209/209 215/215/215 214/214/214
f 215/215/215 209/209/209 210/210/210
f 216/216/216 214/214/214 215/215/215
f 210/210/210 217/217/217 215/215/215
f 217/217/217 210/210/210 213/213/213
f 215/215/215 218/218/218 216/216/216
f 218/218/218 215/215/215 217/217/217
f 219/219/219 221/221/221 220/220/220
f 202/202/202 222/222/222 204/204/204
f 223/223/223 225/225/225 224/224/224
f 226/226/226 220/220/220 221/221/221
f 221/221/221 227/227/227 226/226/226
f 225/225/225 226/226/226 227/227/227
f 227/227/227 224/224/224 225/225/225
f 228/228/228 230/230/230 229/229/229
f 230/230/230 228/228/228 231/231/231
f 229/229/229 230/230/230 232/232/232
f 202/202/202 232/232/232 222/222/222
f 232/232/232 202/202/202 229/229/229
f 1/1/1 2/2/2 233/233/233
f 233/233/233 234/234/234 1/1/1
f 2/2/2 5/5/5 235/235/235
f 235/235/235 233/233/233 2/2/2
f 5/5/5 7/7/7 236/236/236
f 236/236/236 235/235/235 5/5/5
f 9/9/9 238/238/238 237/237/237
f 237/237/237 12/12/12 9/9/9
f 239/239/239 14/14/14 15/15/15
f 234/234/234 233/233/233 240/240/240
f 240/240/240 241/241/241 234/234/234
f 233/233/233 235/235/235 242/242/242
f 242/242/242 240/240/240 233/233/233
f 243/243/243 242/242/242 235/235/235
f 244/244/244 245/245/245 238/238/238
f 238/238/238 246/246/246 244/244/244
f 245/245/245 247/247/247 237/237/237
f 237/237/237 238/238/238 245/245/245
f 247/247/247 249/249/249 248/248/248
f 248/248/248 237/237/237 247/247/247
f 14/14/14 251/251/251 250/250/250
f 250/250/250 28/28/28 14/14/14
f 252/252/252 236/236/236 253/253/253
f 251/251/251 255/255/255 254/254/254
f 254/254/254 250/250/250 251/251/251
f 235/235/235 236/236/236 256/256/256
f 243/243/243 235/235/235 256/256/256
f 237/237/237 248/248/248 239/239/239
f 248/248/248 251/251/251 239/239/239
f 14/14/14 239/239/239 251/251/251
f 256/256/256 258/258/258 257/257/257
f 257/257/257 259/259/259 256/256/256
f 243/243/243 256/256/256 259/259/259
f 259/259/259 260/260/260 243/243/243
f 261/261/261 263/263/263 262/262/262
f 262/262/262 264/264/264 261/261/261
f 263/263/263 248/248/248 265/265/265
f 265/265/265 262/262/262 263/263/263
f 248/248/248 249/249/249 266/266/266
f 266/266/266 265/265/265 248/248/248
f 259/259/259 257/257/257 267/267/267
f 267/267/267 268/268/268 259/259/259
f 260/260/260 259/259/259 268/268/268
f 268/268/268 269/269/269 260/260/260
f 262/262/262 270/270/270 264/264/264
f 265/265/265 266/266/266 271/271/271
f 49/49/49 253/253/253 236/236/236
f 246/246/246 9/9/9 50/50/50
f 238/238/238 9/9/9 246/246/246
f 239/239/239 15/15/15 237/237/237
f 237/237/237 15/15/15 12/12/12
f 272/272/272 274/274/274 273/273/273
f 273/273/273 54/54/54 272/272/272
f 274/274/274 276/276/276 275/275/275
f 275/275/275 273/273/273 274/274/274
f 54/54/54 273/273/273 246/246/246
f 246/246/246 50/50/50 54/54/54
f 273/273/273 275/275/275 244/244/244
f 244/244/244 246/246/246 273/273/273
f 277/277/277 279/279/279 278/278/278
f 278/278/278 280/280/280 277/277/277
f 280/280/280 278/278/278 1/1/1
f 1/1/1 234/234/234 280/280/280
f 1/1/1 278/278/278 61/61/61
f 62/62/62 282/282/282 281/281/281
f 62/62/62 281/281/281 65/65/65
f 66/66/66 284/284/284 283/283/283
f 283/283/283 69/69/69 66/66/66
f 284/284/284 286/286/286 285/285/285
f 285/285/285 283/283/283 284/284/284
f 287/287/287 288/288/288 74/74/74
f 74/74/74 290/290/290 289/289/289
f 263/263/263 251/251/251 248/248/248
f 256/256/256 252/252/252 258/258/258
f 252/252/252 256/256/256 236/236/236
f 255/255/255 263/263/263 261/261/261
f 255/255/255 251/251/251 263/263/263
f 291/291/291 275/275/275 276/276/276
f 291/291/291 276/276/276 292/292/292
f 293/293/293 244/244/244 275/275/275
f 293/293/293 275/275/275 291/291/291
f 294/294/294 296/296/296 295/295/295
f 295/295/295 297/297/297 294/294/294
f 296/296/296 299/299/299 298/298/298
f 298/298/298 295/295/295 296/296/296
f 299/299/299 301/301/301 300/300/300
f 300/300/300 298/298/298 299/299/299
f 302/302/302 304/304/304 303/303/303
f 303/303/303 305/305/305 302/302/302
f 306/306/306 302/302/302 305/305/305
f 305/305/305 307/307/307 306/306/306
f 295/295/295 298/298/298 308/308/308
f 308/308/308 309/309/309 295/295/295
f 298/298/298 300/300/300 310/310/310
f 310/310/310 308/308/308 298/298/298
f 297/297/297 295/295/295 309/309/309
f 309/309/309 311/311/311 297/297/297
f 307/307/307 305/305/305 312/312/312
f 312/312/312 313/313/313 307/307/307
f 305/305/305 303/303/303 314/314/314
f 314/314/314 312/312/312 305/305/305
f 308/308/308 310/310/310 315/315/315
f 309/309/309 316/316/316 311/311/311
f 313/313/313 312/312/312 317/317/317
f 317/317/317 318/318/318 313/313/313
f 312/312/312 314/314/314 319/319/319
f 319/319/319 317/317/317 312/312/312
f 320/320/320 322/322/322 321/321/321
f 323/323/323 325/325/325 324/324/324
f 323/323/323 324/324/324 326/326/326
f 327/327/327 329/329/329 328/328/328
f 327/327/327 330/330/330 329/329/329
f 327/327/327 331/331/331 330/330/330
f 327/327/327 332/332/332 331/331/331
f 333/333/333 335/335/335 334/334/334
f 335/335/335 336/336/336 334/334/334
f 335/335/335 337/337/337 336/336/336
f 337/337/337 338/338/338 336/336/336
f 338/338/338 340/340/340 339/339/339
f 338/338/338 341/341/341 340/340/340
f 341/341/341 342/342/342 340/340/340
f 341/341/341 343/343/343 342/342/342
f 343/343/343 344/344/344 342/342/342
f 343/343/343 333/333/333 344/344/344
f 333/333/333 345/345/345 344/344/344
f 333/333/333 334/334/334 345/345/345
f 334/334/334 336/336/336 345/345/345
f 336/336/336 339/339/339 345/345/345
f 336/336/336 338/338/338 339/339/339
f 346/346/346 348/348/348 347/347/347
f 348/348/348 349/349/349 347/347/347
f 348/348/348 350/350/350 349/349/349
f 350/350/350 351/351/351 349/349/349
f 346/346/346 353/353/353 352/352/352
f 346/346/346 347/347/347 353/353/353
f 347/347/347 354/354/354 353/353/353
f 347/347/347 349/349/349 354/354/354
f 349/349/349 355/355/355 354/354/354
f 349/349/349 351/351/351 355/355/355
f 356/356/356 358/358/358 357/357/357
f 356/356/356 359/359/359 358/358/358
f 359/359/359 360/360/360 358/358/358
f 359/359/359 361/361/361 360/360/360
f 352/352/352 353/353/353 362/362/362
f 353/353/353 363/363/363 362/362/362
f 353/353/353 354/354/354 363/363/363
f 354/354/354 355/355/355 363/363/363
f 352/352/352 365/365/365 364/364/364
f 352/352/352 362/362/362 365/365/365
f 362/362/362 366/366/366 365/365/365
f 362/362/362 363/363/363 366/366/366
f 363/363/363 367/367/367 366/366/366
f 363/363/363 355/355/355 367/367/367
f 357/357/357 369/369/369 368/368/368
f 357/357/357 358/358/358 369/369/369
f 358/358/358 370/370/370 369/369/369
f 358/358/358 360/360/360 370/370/370
f 371/371/371 373/373/373 372/372/372
f 373/373/373 374/374/374 372/372/372
f 374/374/374 375/375/375 372/372/372
f 376/376/376 378/378/378 377/377/377
f 379/379/379 377/377/377 378/378/378
f 380/380/380 382/382/382 381/381/381
f 382/382/382 384/384/384 383/383/383
f 383/383/383 381/381/381 382/382/382
f 385/385/385 381/381/381 386/386/386
f 381/381/381 385/385/385 380/380/380
f 381/381/381 383/383/383 387/387/387
f 387/387/387 386/386/386 381/381/381
f 384/384/384 389/389/389 388/388/388
f 388/388/388 383/383/383 384/384/384
f 390/390/390 388/388/388 389/389/389
f 383/383/383 388/388/388 391/391/391
f 391/391/391 387/387/387 383/383/383
f 388/388/388 390/390/390 392/392/392
f 392/392/392 391/391/391 388/388/388
f 393/393/393 395/395/395 394/394/394
f 376/376/376 377/377/377 396/396/396
f 397/397/397 399/399/399 398/398/398
f 400/400/400 394/394/394 395/395/395
f 394/394/394 400/400/400 401/401/401
f 398/398/398 401/401/401 400/400/400
f 401/401/401 398/398/398 399/399/399
f 402/402/402 404/404/404 403/403/403
f 403/403/403 405/405/405 402/402/402
f 404/404/404 406/406/406 403/403/403
f 376/376/376 396/396/396 406/406/406
f 406/406/406 404/404/404 376/376/376
f 407/407/407 409/409/409 408/408/408
f 408/408/408 410/410/410 407/407/407
f 411/411/411 413/413/413 412/412/412
f 412/412/412 414/414/414 411/411/411
f 415/415/415 411/411/411 414/414/414
f 414/414/414 416/416/416 415/415/415
f 413/413/413 418/418/418 417/417/417
f 417/417/417 412/412/412 413/413/413
f 418/418/418 420/420/420 419/419/419
f 419/419/419 417/417/417 418/418/418
f 420/420/420 415/415/415 416/416/416
f 416/416/416 419/419/419 420/420/420
f 421/421/421 422/422/422 414/414/414
f 414/414/414 412/412/412 421/421/421
f 416/416/416 414/414/414 422/422/422
f 422/422/422 423/423/423 416/416/416
f 412/412/412 417/417/417 424/424/424
f 424/424/424 421/421/421 412/412/412
f 417/417/417 419/419/419 425/425/425
f 425/425/425 424/424/424 417/417/417
f 419/419/419 416/416/416 423/423/423
f 423/423/423 425/425/425 419/419/419
f 422/422/422 421/421/421 426/426/426
f 427/427/427 426/426/426 421/421/421
f 421/421/421 424/424/424 427/427/427
f 425/425/425 427/427/427 424/424/424
f 422/422/422 426/426/426 428/428/428
f 428/428/428 429/429/429 422/422/422
f 426/426/426 427/427/427 430/430/430
f 430/430/430 428/428/428 426/426/426
f 423/423/423 422/422/422 429/429/429
f 429/429/429 431/431/431 423/423/423
f 432/432/432 434/434/434 433/433/433
f 433/433/433 435/435/435 432/432/432
f 429/429/429 428/428/428 436/436/436
f 428/428/428 430/430/430 437/437/437
f 437/437/437 436/436/436 428/428/428
f 438/438/438 437/437/437 430/430/430
f 429/429/429 436/436/436 409/409/409
f 409/409/409 407/407/407 429/429/429
f 436/436/436 437/437/437 408/408/408
f 408/408/408 409/409/409 436/436/436
f 431/431/431 429/429/429 407/407/407
f 407/407/407 410/410/410 431/431/431
f 437/437/437 438/438/438 410/410/410
f 410/410/410 408/408/408 437/437/437
f 438/438/438 431/431/431 410/410/410
f 425/425/425 423/423/423 439/439/439
f 439/439/439 440/440/440 425/425/425
f 423/423/423 431/431/431 441/441/441
f 441/441/441 439/439/439 423/423/423
f 431/431/431 438/438/438 442/442/442
f 442/442/442 441/441/441 431/431/431
f 440/440/440 439/439/439 434/434/434
f 434/434/434 432/432/432 440/440/440
f 439/439/439 441/441/441 433/433/433
f 433/433/433 434/434/434 439/439/439
f 441/441/441 442/442/442 435/435/435
f 435/435/435 433/433/433 441/441/441
f 442/442/442 440/440/440 432/432/432
f 432/432/432 435/435/435 442/442/442
f 430/430/430 442/442/442 438/438/438
f 430/430/430 427/427/427 442/442/442
f 427/427/427 425/425/425 442/442/442
f 442/442/442 425/425/425 440/440/440
f 443/443/443 445/445/445 444/444/444
f 443/443/443 444/444/444 446/446/446
f 447/447/447 445/445/445 443/443/443

g kni01
# texture: kni01.jpg
v -1.312392 202.2057 -5.787303
v -1.31239 197.3706 -12.392
v -10.24739 198.3634 -8.049605
v -10.24739 198.3314 -1.437305
v -1.312398 198.3314 3.721298
v 7.622606 198.3314 -1.437301
v 7.622607 198.3634 -8.049602
v -1.312388 190.9327 -16.9351
v -12.99619 180.5627 -8.307405
v -12.99619 176.4329 6.046696
v -1.312398 191.5077 9.621597
v 10.3714 176.4329 6.046702
v 10.37141 180.5627 -8.3074
v -8.579297 173.3564 10.9938
v 5.954501 173.3564 10.9938
v -1.312399 182.9756 15.0591
v -1.312387 177.6142 -19.0528
v -15.80199 175.3016 -9.854506
v -18.34159 173.5393 0.188894
v -1.312399 182.9756 15.0591
v -8.579297 173.3564 10.9938
v 5.954501 173.3564 10.9938
v 15.71681 173.5393 0.188803
v 13.17721 175.3016 -9.854499
v -1.337093 188.8359 -7.198003
v 10.38351 210.2679 -7.198
v 17.58691 202.559 -7.197999
v -1.337088 214.8394 -7.198004
v -13.05759 210.2679 -7.198007
v -20.26099 202.559 -7.198008
v 17.58691 202.559 -7.197999
v 10.38351 210.2679 -7.198
v -1.337091 189.6693 -4.840403
v -1.337088 214.8394 -7.198004
v -13.05759 210.2679 -7.198007
v -20.26099 202.559 -7.198008
v 17.58691 202.559 -7.197999
v -1.337091 189.6693 -4.840403
v -1.337093 188.8359 -7.198003
v -1.337091 189.6693 -4.840403
v -20.26099 202.559 -7.198008
v -1.337093 188.8359 -7.198003
vn 0 0.996898 -0.0787
vn 0 0.702894 -0.711294
vn -0.613196 0.607096 -0.505397
vn -0.715248 0.59984 0.358624
vn -0 0.816938 0.576726
vn 0.715248 0.599841 0.358624
vn 0.613196 0.607096 -0.505396
vn 0 0.323897 -0.946092
vn -0.866528 0.366612 -0.338711
vn -0.782286 0.323894 0.532091
vn -0 0.545621 0.838032
vn 0.782286 0.323894 0.532091
vn 0.866528 0.366612 -0.338711
vn -0.519301 -0.0652 0.852101
vn 0.5193 -0.0652 0.852101
vn -0 0.215003 0.976614
vn 0 0.384921 -0.92295
vn -0.731895 0.519896 -0.440497
vn -0.837163 0.468479 0.282287
vn -0 0.215003 0.976614
vn -0.519301 -0.0652 0.852101
vn 0.5193 -0.0652 0.852101
vn 0.837163 0.468479 0.282288
vn 0.731895 0.519897 -0.440497
vn 0 -0 -1
vn 0 -0 -1
vn 0 -0 -1
vn 0 -0 -1
vn 0 -0 -1
vn 0 -0 -1
vn 0.075701 0.070801 0.994614
vn 0.056097 0.081996 0.995053
vn -0 0.082102 0.996624
vn -0 0.093304 0.995638
vn -0.056098 0.081996 0.995053
vn -0.075701 0.070801 0.994614
vn 0.564406 -0.778309 0.275103
vn 0.564406 -0.778309 0.275103
vn 0.564406 -0.778309 0.275103
vn -0.564406 -0.778309 0.275103
vn -0.564406 -0.778309 0.275103
vn -0.564406 -0.778309 0.275103
vt 0.8005 0.5928
vt 0.8814 0.5353
vt 0.814 0.5466
vt 0.7329 0.5028
vt 0.6528 0.5486
vt 0.7329 0.5028
vt 0.814 0.5466
vt 0.9737 0.4644
vt 0.8397 0.336
vt 0.6364 0.2766
vt 0.5631 0.4586
vt 0.6364 0.2766
vt 0.8397 0.336
vt 0.635 0.6865
vt 0.8007 0.6865
vt 0.7179 0.8522
vt 0.977 0.3767
vt 0.8539 0.3029
vt 0.7217 0.2722
vt 0.4929 0.3462
vt 0.5693 0.2274
vt 0.5693 0.2274
vt 0.7217 0.2722
vt 0.8539 0.3029
vt 0.4586 0.0072
vt 0.5836 0.2085
vt 0.6605 0.1361
vt 0.4586 0.2514
vt 0.3335 0.2085
vt 0.2566 0.1361
vt 0.6605 0.1361
vt 0.5836 0.2085
vt 0.4586 0.0151
vt 0.4586 0.2514
vt 0.3335 0.2085
vt 0.2566 0.1361
vt 0.6605 0.1361
vt 0.4586 0.0151
vt 0.4586 0.0072
vt 0.4586 0.0151
vt 0.2566 0.1361
vt 0.4586 0.0072
f 448/448/448 450/450/450 449/449/449
f 448/448/448 451/451/451 450/450/450
f 448/448/448 452/452/452 451/451/451
f 448/448/448 453/453/453 452/452/452
f 448/448/448 454/454/454 453/453/453
f 448/448/448 449/449/449 454/454/454
f 450/450/450 456/456/456 455/455/455
f 449/449/449 450/450/450 455/455/455
f 451/451/451 457/457/457 456/456/456
f 450/450/450 451/451/451 456/456/456
f 451/451/451 458/458/458 457/457/457
f 451/451/451 452/452/452 458/458/458
f 453/453/453 459/459/459 458/458/458
f 452/452/452 453/453/453 458/458/458
f 453/453/453 460/460/460 459/459/459
f 453/453/453 454/454/454 460/460/460
f 449/449/449 455/455/455 454/454/454
f 454/454/454 455/455/455 460/460/460
f 461/461/461 463/463/463 462/462/462
f 456/456/456 464/464/464 455/455/455
f 464/464/464 456/456/456 465/465/465
f 466/466/466 465/465/465 456/456/456
f 467/467/467 468/468/468 457/457/457
f 457/457/457 458/458/458 467/467/467
f 459/459/459 467/467/467 458/458/458
f 467/467/467 459/459/459 469/469/469
f 459/459/459 460/460/460 470/470/470
f 464/464/464 471/471/471 460/460/460
f 460/460/460 455/455/455 464/464/464
f 457/457/457 466/466/466 456/456/456
f 457/457/457 468/468/468 466/466/466
f 459/459/459 470/470/470 469/469/469
f 471/471/471 470/470/470 460/460/460
f 472/472/472 474/474/474 473/473/473
f 472/472/472 473/473/473 475/475/475
f 472/472/472 475/475/475 476/476/476
f 472/472/472 476/476/476 477/477/477
f 478/478/478 480/480/480 479/479/479
f 479/479/479 480/480/480 481/481/481
f 481/481/481 480/480/480 482/482/482
f 482/482/482 480/480/480 483/483/483
f 484/484/484 486/486/486 485/485/485
f 487/487/487 489/489/489 488/488/488

g kni02
# texture: kni02.jpg
v -1.314791 204.114 -6.039703
v -1.314797 199.2587 2.916897
v 5.818505 199.3491 -2.362901
v 5.818507 200.3309 -7.131402
v -1.314889 202.3501 -10.6134
v -1.314797 196.1799 7.819397
v 10.1584 187.6822 4.871701
v 10.15841 183.4729 -11.1049
v -1.314889 192.3236 -16.6882
v -1.314798 170.407 15.0867
v 5.821201 172.9074 11.5349
v -1.314799 186.4587 14.8027
v -1.314801 199.1513 8.897396
v -1.314801 187.1105 16.608
v 13.8873 176.0643 3.829902
v -1.314887 179.245 -18.76781
v -1.314889 192.3236 -16.6882
v 11.27671 178.1367 -14.4895
v 10.15841 183.4729 -11.1049
v 11.27671 178.1367 -14.4895
v 10.1584 187.6822 4.871701
v -1.314797 196.1799 7.819397
v -1.314801 199.1513 8.897396
v -1.314801 187.1105 16.608
v -1.314799 186.4587 14.8027
v 16.81421 170.2414 -12.0009
v 5.425211 170.5923 -18.5457
v -0.111001 165.2929 17.7413
v 11.8257 174.0059 10.7963
v 13.8873 176.0643 3.829902
v 5.821201 172.9074 11.5349
v 16.81421 170.2414 -12.0009
v 11.27671 178.1367 -14.4895
v 5.64591 153.6453 -18.5906
v 13.51031 159.0787 -12.8229
v -8.448192 199.3491 -2.362906
v -8.448194 200.3309 -7.131405
v -12.78809 187.6823 4.871695
v -12.78809 183.4729 -11.10491
v -8.450796 172.9074 11.5349
v -16.51699 176.0643 3.829895
v -13.90639 178.1367 -14.48951
v -12.78809 183.4729 -11.10491
v -13.90639 178.1367 -14.48951
v -12.78809 187.6823 4.871695
v -7.496988 169.9482 -20.84031
v -13.523 165.1311 12.8648
v -16.51699 176.0643 3.829895
v -18.39499 173.6414 -0.191704
v -8.450796 172.9074 11.5349
v -13.90639 178.1367 -14.48951
v -7.496988 169.9482 -20.84031
v -4.199791 158.8652 -19.2621
v 5.64591 153.6454 -18.5906
vn -0 0.993202 0.1164
vn -0 0.863521 0.504312
vn 0.677706 0.666607 0.310403
vn 0.683699 0.632099 -0.3647
vn 0 0.77215 -0.635441
vn -0 0.784775 0.61978
vn 0.809625 0.349411 0.471615
vn 0.931549 0.304516 -0.19871
vn 0 0.467695 -0.88389
vn -0 0.017701 0.999843
vn 0.582682 0.105097 0.805876
vn -0 0.101999 0.994785
vn -0 0.539306 0.84211
vn -0 0.539306 0.84211
vn 0.942059 0.265988 0.204391
vn 0.1131 0.1933 -0.974599
vn 0 0.395488 -0.918471
vn 0.700308 0.068901 -0.710508
vn 0.658403 0.496702 -0.565502
vn 0.957562 0.26799 -0.106096
vn 0.417883 -0.590676 -0.690272
vn 0 0.34102 -0.940056
vn 0 0.34102 -0.940056
vn -0 -0.940573 0.339591
vn -0 -0.940573 0.339591
vn 0.630003 0.168901 -0.758003
vn 0.337711 0.120304 -0.93353
vn 0.095101 0.738507 0.667506
vn 0.779324 0.62662 0.0011
vn 0.601537 -0.012401 0.798749
vn 0.673278 0.074998 0.735576
vn 0.630003 0.168901 -0.758003
vn 0.700308 0.068901 -0.710508
vn 0.575799 -0.0638 -0.815098
vn 0.645134 -0.135607 -0.751939
vn -0.677707 0.666606 0.310403
vn -0.683699 0.632099 -0.3647
vn -0.809625 0.349411 0.471614
vn -0.931549 0.304516 -0.198711
vn -0.582683 0.105097 0.805876
vn -0.942059 0.265988 0.204391
vn -0.689298 0.314199 -0.652799
vn -0.658402 0.496702 -0.565503
vn -0.957562 0.267989 -0.106096
vn -0.417883 -0.590676 -0.690272
vn -0.196404 0.0016 -0.980522
vn -0.758188 0.279295 0.58919
vn -0.808731 0.433516 0.397515
vn -0.990533 0.136804 -0.011401
vn -0.513291 0.458792 0.725287
vn -0.689298 0.314199 -0.652799
vn -0.196404 0.0016 -0.980522
vn -0.0086 -0.143502 -0.989613
vn 0.083596 -0.069797 -0.994052
vt 0.4951 0.9995
vt 0.2912 0.8768
vt 0.4114 0.8791
vt 0.5199 0.9039
vt 0.5656 0.9525
vt 0.2192 0.8208
vt 0.2408 0.5675
vt 0.5985 0.478
vt 0.6841 0.7089
vt 0.036 0.148
vt 0.0951 0.2111
vt 0.0306 0.5438
vt 0.169 0.9079
vt 0.0014 0.5699
vt 0.2705 0.2909
vt 0.9896 0.6546
vt 0.9896 0.9826
vt 0.714 0.6254
vt 0.7384 0.7492
vt 0.638 0.3408
vt 0.2408 0.5675
vt 0.2192 0.8208
vt 0.169 0.9079
vt 0.0014 0.5699
vt 0.0306 0.5438
vt 0.7065 0.4315
vt 0.9896 0.4469
vt 0.0409 0.0247
vt 0.2585 0.2164
vt 0.2705 0.2909
vt 0.0951 0.2111
vt 0.7108 0.155
vt 0.638 0.3408
vt 0.9896 0.0005
vt 0.7831 0.138
vt 0.4114 0.8791
vt 0.5199 0.9039
vt 0.2408 0.5675
vt 0.5985 0.478
vt 0.0951 0.2111
vt 0.2705 0.2909
vt 0.7149 0.6254
vt 0.7393 0.7492
vt 0.638 0.3408
vt 0.2408 0.5675
vt 0.7074 0.4315
vt 0.0409 0.0247
vt 0.2705 0.2909
vt 0.2585 0.2164
vt 0.0951 0.2111
vt 0.638 0.3408
vt 0.7108 0.155
vt 0.7841 0.138
vt 0.9896 0.0005
f 490/490/490 492/492/492 491/491/491
f 490/490/490 493/493/493 492/492/492
f 490/490/490 494/494/494 493/493/493
f 492/492/492 496/496/496 495/495/495
f 491/491/491 492/492/492 495/495/495
f 492/492/492 497/497/497 496/496/496
f 492/492/492 493/493/493 497/497/497
f 494/494/494 498/498/498 493/493/493
f 493/493/493 498/498/498 497/497/497
f 499/499/499 501/501/501 500/500/500
f 496/496/496 503/503/503 502/502/502
f 501/501/501 496/496/496 500/500/500
f 496/496/496 497/497/497 504/504/504
f 505/505/505 507/507/507 506/506/506
f 508/508/508 506/506/506 507/507/507
f 496/496/496 504/504/504 500/500/500
f 509/509/509 504/504/504 497/497/497
f 510/510/510 512/512/512 511/511/511
f 510/510/510 514/514/514 513/513/513
f 515/515/515 505/505/505 516/516/516
f 505/505/505 515/515/515 507/507/507
f 517/517/517 519/519/519 518/518/518
f 519/519/519 517/517/517 520/520/520
f 518/518/518 522/522/522 521/521/521
f 522/522/522 518/518/518 519/519/519
f 515/515/515 516/516/516 523/523/523
f 523/523/523 524/524/524 515/515/515
f 490/490/490 491/491/491 525/525/525
f 490/490/490 525/525/525 526/526/526
f 490/490/490 526/526/526 494/494/494
f 525/525/525 495/495/495 527/527/527
f 491/491/491 495/495/495 525/525/525
f 525/525/525 527/527/527 528/528/528
f 525/525/525 528/528/528 526/526/526
f 494/494/494 526/526/526 498/498/498
f 526/526/526 528/528/528 498/498/498
f 499/499/499 529/529/529 501/501/501
f 527/527/527 502/502/502 503/503/503
f 501/501/501 529/529/529 527/527/527
f 527/527/527 530/530/530 528/528/528
f 506/506/506 532/532/532 531/531/531
f 531/531/531 505/505/505 506/506/506
f 527/527/527 529/529/529 530/530/530
f 533/533/533 528/528/528 530/530/530
f 534/534/534 511/511/511 512/512/512
f 534/534/534 513/513/513 514/514/514
f 535/535/535 516/516/516 505/505/505
f 505/505/505 531/531/531 535/535/535
f 536/536/536 538/538/538 537/537/537
f 537/537/537 539/539/539 536/536/536
f 538/538/538 541/541/541 540/540/540
f 540/540/540 537/537/537 538/538/538
f 542/542/542 543/543/543 535/535/535
f 516/516/516 535/535/535 543/543/543
