# Monster26.bmd — MU geometry at action 0 key 0, exported for MU2
# 1 mesh(es)

g ston1
# texture: ston1.jpg
v 9.365586 182.3643 34.0813
v 43.42749 196.0892 22.29911
v 20.87119 228.0003 33.613
v 43.42749 196.0892 22.29911
v 60.82549 220.295 -0.840385
v 63.36679 278.6623 15.82183
v 63.36679 278.6623 15.82183
v 20.87119 228.0003 33.613
v 63.36679 278.6623 15.82183
v 24.9039 281.9874 20.18691
v -37.51411 215.0577 37.09529
v -35.96369 274.1477 32.0584
v -35.96369 274.1477 32.0584
v -76.6048 268.3481 30.3714
v -12.4014 170.5995 19.4814
v -57.4482 206.5582 18.23549
v -12.4014 170.5995 19.4814
v -57.4482 206.5582 18.23549
v -28.1847 169.5419 -6.563808
v 13.09419 162.5047 8.743996
v -12.4014 170.5995 19.4814
v -28.1847 169.5419 -6.563808
v -5.551203 155.3282 -15.56131
v 13.09419 162.5047 8.743996
v 21.2507 156.3093 -25.6347
v 38.65719 173.2448 -11.4937
v 38.65719 173.2448 -11.4937
v 38.65719 173.2448 -11.4937
v 51.31039 195.5304 -34.32499
v 60.73989 252.5426 -17.98678
v 35.9166 195.155 -51.85189
v 39.41451 226.5701 -33.98209
v 51.31039 195.5304 -34.32499
v 39.41451 226.5701 -33.98209
v 60.73989 252.5426 -17.98678
v 36.8027 259.8055 -26.10468
v 54.6062 295.7621 -11.28938
v -12.06088 315.2431 3.510712
v 54.6062 295.7621 -11.28938
v 3.766305 293.3962 -29.68408
v 3.766305 293.3962 -29.68408
v -27.70079 293.6899 -22.94879
v -76.6048 268.3481 30.3714
v -59.14531 285.6754 3.813705
v -73.07898 239.4745 1.29179
v -59.14531 285.6754 3.813705
v -27.70079 293.6899 -22.94879
v -48.2626 255.3077 -21.8889
v -73.07898 239.4745 1.29179
v -47.89349 222.1523 -26.4132
v -45.5082 194.06 -17.22881
v -27.04919 168.8976 -38.20331
v -47.89349 222.1523 -26.4132
v -31.52869 196.802 -43.39601
v -27.04919 168.8976 -38.20331
v -31.52869 196.802 -43.39601
v -11.49699 177.8573 -52.19711
v 3.449003 161.9375 -48.8129
v 35.5114 170.1739 -49.98889
v 3.449003 161.9375 -48.8129
v 11.59001 184.4874 -60.01489
v 11.59001 184.4874 -60.01489
v 35.5114 170.1739 -49.98889
v 35.9166 195.155 -51.85189
v 54.6062 295.7621 -11.28938
v -59.14531 285.6754 3.813705
v -76.6048 268.3481 30.3714
v -11.49699 177.8573 -52.19711
v -27.04919 168.8976 -38.20331
v 35.5114 170.1739 -49.98889
v 21.2507 156.3093 -25.6347
v -6.153693 238.1525 -47.8735
v -19.17079 269.3272 -41.6943
v 15.48571 257.7489 -43.22018
v -29.41589 231.535 -39.7467
v -7.765592 203.4301 -48.588
v 14.18361 213.5343 -45.7102
v 77.31779 234.4147 13.80236
v 98.49775 234.4718 43.87163
v 94.25876 229.6252 9.912355
v 77.31779 234.4147 13.80236
v 94.25876 229.6252 9.912355
v 70.71017 206.7957 2.546009
v 77.31779 234.4147 13.80236
v 70.71017 206.7957 2.546009
v 58.78389 199.5799 31.61399
v 89.3186 213.2858 56.64932
v 98.49775 234.4718 43.87163
v 106.0082 200.4535 61.23314
v 114.672 203.2567 29.39935
v 114.672 203.2567 29.39935
v 102.0952 160.4756 -1.424351
v 70.71017 206.7957 2.546009
v 102.0952 160.4756 -1.424351
v 76.37239 131.1663 7.729361
v 58.78389 199.5799 31.61399
v 78.88189 146.4561 43.5261
v 89.3186 213.2858 56.64932
v 78.88189 146.4561 43.5261
v 106.0082 200.4535 61.23314
v 58.78389 199.5799 31.61399
v 89.3186 213.2858 56.64932
v 111.3674 132.3606 27.61567
v 102.0952 160.4756 -1.424351
v 114.672 203.2567 29.39935
v 76.37239 131.1663 7.729361
v 78.88189 146.4561 43.5261
v 106.0082 200.4535 61.23314
v -75.57689 223.6516 24.76729
v -92.71043 220.9151 19.86602
v -97.47948 219.9958 54.08736
v -75.57689 223.6516 24.76729
v -70.67828 198.0353 8.861656
v -92.71043 220.9151 19.86602
v -75.57689 223.6516 24.76729
v -60.06818 184.9229 36.33424
v -70.67828 198.0353 8.861656
v -90.18505 196.2561 63.00863
v -97.47948 219.9958 54.08736
v -115.4701 193.1356 34.07995
v -107.8683 184.1114 65.01668
v -105.1964 155.6438 -3.699821
v -115.4701 193.1356 34.07995
v -70.67828 198.0353 8.861656
v -81.89565 123.3243 0.425613
v -105.1964 155.6438 -3.699821
v -60.06818 184.9229 36.33424
v -84.23795 132.1993 38.33648
v -90.18505 196.2561 63.00863
v -107.8683 184.1114 65.01668
v -84.23795 132.1993 38.33648
v -60.06818 184.9229 36.33424
v -90.18505 196.2561 63.00863
v -117.2239 123.6237 19.74833
v -115.4701 193.1356 34.07995
v -105.1964 155.6438 -3.699821
v -81.89565 123.3243 0.425613
v -84.23795 132.1993 38.33648
v -107.8683 184.1114 65.01668
v 102.8099 70.68906 28.78028
v 111.1376 74.89839 50.04682
v 115.8021 59.0375 30.97295
v 102.8099 70.68906 28.78028
v 115.8021 59.0375 30.97295
v 90.06738 41.95161 33.09036
v 102.8099 70.68906 28.78028
v 90.06738 41.95161 33.09036
v 71.42059 57.34507 67.6515
v 89.95435 65.64619 80.361
v 111.1376 74.89839 50.04682
v 102.491 53.25363 99.28571
v 124.1425 34.91797 62.03561
v 124.1425 34.91797 62.03561
v 97.93878 3.627991 43.36923
v 90.06738 41.95161 33.09036
v 97.93878 3.627991 43.36923
v 64.35953 -2.774933 71.57417
v 71.42059 57.34507 67.6515
v 66.66051 16.10563 93.88453
v 89.95435 65.64619 80.361
v 66.66051 16.10563 93.88453
v 102.491 53.25363 99.28571
v 71.42059 57.34507 67.6515
v 89.95435 65.64619 80.361
v 98.93155 -6.35527 96.16994
v 97.93878 3.627991 43.36923
v 124.1425 34.91797 62.03561
v 64.35953 -2.774933 71.57417
v 66.66051 16.10563 93.88453
v 102.491 53.25363 99.28571
v -102.3647 64.61954 29.13489
v -114.1186 52.07449 32.85429
v -110.799 70.28154 50.01873
v -102.3647 64.61954 29.13489
v -86.80258 37.88172 36.18458
v -114.1186 52.07449 32.85429
v -102.3647 64.61954 29.13489
v -69.32956 58.65115 68.47168
v -86.80258 37.88172 36.18458
v -88.42965 66.45105 80.64912
v -110.799 70.28154 50.01873
v -119.6543 30.76549 66.49197
v -99.44736 55.02706 101.0694
v -90.73429 0.315445 50.6632
v -119.6543 30.76549 66.49197
v -86.80258 37.88172 36.18458
v -56.33696 0.272171 78.60782
v -90.73429 0.315445 50.6632
v -69.32956 58.65115 68.47168
v -60.20508 21.14495 98.82858
v -88.42965 66.45105 80.64912
v -99.44736 55.02706 101.0694
v -60.20508 21.14495 98.82858
v -69.32956 58.65115 68.47168
v -88.42965 66.45105 80.64912
v -90.07761 -3.945602 104.2354
v -119.6543 30.76549 66.49197
v -90.73429 0.315445 50.6632
v -56.33696 0.272171 78.60782
v -60.20508 21.14495 98.82858
v -99.44736 55.02706 101.0694
v 53.52226 296.761 27.63292
v 93.43204 275.619 50.97387
v 67.89077 288.2058 5.578819
v 53.52226 296.761 27.63292
v 67.89077 288.2058 5.578819
v 21.87477 282.7211 9.929907
v 53.52226 296.761 27.63292
v 21.87477 282.7211 9.929907
v 19.8163 254.2951 49.18507
v 83.14924 249.7079 67.69743
v 93.43204 275.619 50.97387
v 99.20894 227.8418 53.71296
v 107.1374 244.756 7.935624
v 107.1374 244.756 7.935624
v 44.40029 255.2031 -18.74579
v 21.87477 282.7211 9.929907
v 44.40029 255.2031 -18.74579
v 9.865672 233.6376 7.908484
v 19.8163 254.2951 49.18507
v 34.10251 206.5857 42.40809
v 83.14924 249.7079 67.69743
v 34.10251 206.5857 42.40809
v 99.20894 227.8418 53.71296
v 19.8163 254.2951 49.18507
v 83.14924 249.7079 67.69743
v 52.04848 205.0991 -2.7324
v 44.40029 255.2031 -18.74579
v 107.1374 244.756 7.935624
v 9.865672 233.6376 7.908484
v 34.10251 206.5857 42.40809
v 99.20894 227.8418 53.71296
v 90.29666 42.27143 48.54822
v 87.58869 41.01589 27.83069
v 123.0141 48.2749 53.52578
v 90.29666 42.27143 48.54822
v 123.0141 48.2749 53.52578
v 95.19251 71.70403 83.3764
v 90.29666 42.27143 48.54822
v 95.19251 71.70403 83.3764
v 77.8588 105.8524 40.5821
v 80.41638 95.23683 15.41223
v 87.58869 41.01589 27.83069
v 99.51701 120.648 -3.425476
v 127.7225 119.467 11.71993
v 127.7225 119.467 11.71993
v 128.3869 131.5031 40.74806
v 95.19251 71.70403 83.3764
v 128.3869 131.5031 40.74806
v 96.48766 138.7956 50.29287
v 77.8588 105.8524 40.5821
v 81.04076 139.0396 19.26046
v 80.41638 95.23683 15.41223
v 81.04076 139.0396 19.26046
v 99.51701 120.648 -3.425476
v 77.8588 105.8524 40.5821
v 80.41638 95.23683 15.41223
v 110.0374 156.0631 22.08137
v 128.3869 131.5031 40.74806
v 127.7225 119.467 11.71993
v 96.48766 138.7956 50.29287
v 81.04076 139.0396 19.26046
v 99.51701 120.648 -3.425476
v -1.458097 197.4398 -63.87691
v 38.13541 185.9395 -44.23549
v 15.35811 181.7614 -76.8604
v -1.458097 197.4398 -63.87691
v 15.35811 181.7614 -76.8604
v -45.8058 175.8952 -63.85982
v -1.458097 197.4398 -63.87691
v -45.8058 175.8952 -63.85982
v -35.81691 176.6225 -23.20031
v 20.0937 172.9302 -18.66078
v 38.13541 185.9395 -44.23549
v 53.65761 151.8396 -19.97728
v 46.18002 151.8754 -60.34899
v 46.18002 151.8754 -60.34899
v -15.52679 144.7712 -73.34961
v -45.8058 175.8952 -63.85982
v -15.52679 144.7712 -73.34961
v -53.4544 141.4008 -39.31381
v -35.81691 176.6225 -23.20031
v -12.8549 143.4445 -6.751698
v 20.0937 172.9302 -18.66078
v -12.8549 143.4445 -6.751698
v 53.65761 151.8396 -19.97728
v -35.81691 176.6225 -23.20031
v 20.0937 172.9302 -18.66078
v 6.415311 122.9836 -39.3138
v -15.52679 144.7712 -73.34961
v 46.18002 151.8754 -60.34899
v -53.4544 141.4008 -39.31381
v -12.8549 143.4445 -6.751698
v 53.65761 151.8396 -19.97728
v -60.6985 283.2974 40.80339
v -77.25289 271.1453 22.24798
v -88.62181 254.2651 71.81908
v -60.6985 283.2974 40.80339
v -31.3956 276.3473 16.2043
v -77.25289 271.1453 22.24798
v -60.6985 283.2974 40.80339
v -14.34441 250.1442 53.29729
v -31.3956 276.3473 16.2043
v -69.30621 231.7969 85.19388
v -88.62181 254.2651 71.81908
v -104.1172 220.0054 32.08466
v -82.66861 206.5083 74.53817
v -52.85009 243.7136 -7.495412
v -104.1172 220.0054 32.08466
v -31.3956 276.3473 16.2043
v -9.322504 231.2284 10.32659
v -52.85009 243.7136 -7.495412
v -14.34441 250.1442 53.29729
v -18.57721 200.2807 48.61548
v -69.30621 231.7969 85.19388
v -82.66861 206.5083 74.53817
v -18.57721 200.2807 48.61548
v -14.34441 250.1442 53.29729
v -69.30621 231.7969 85.19388
v -45.21799 193.6078 8.519674
v -104.1172 220.0054 32.08466
v -52.85009 243.7136 -7.495412
v -9.322504 231.2284 10.32659
v -18.57721 200.2807 48.61548
v -82.66861 206.5083 74.53817
v -86.16826 39.8398 51.05296
v -119.2527 43.16092 56.11623
v -83.6098 36.61745 30.52999
v -86.16826 39.8398 51.05296
v -93.50012 72.25703 82.65399
v -119.2527 43.16092 56.11623
v -86.16826 39.8398 51.05296
v -80.14955 103.0875 36.07956
v -93.50012 72.25703 82.65399
v -81.96521 89.61401 12.24845
v -83.6098 36.61745 30.52999
v -131.4691 108.6235 7.089392
v -103.7088 110.8755 -8.74181
v -132.9509 123.6089 34.67904
v -131.4691 108.6235 7.089392
v -93.50012 72.25703 82.65399
v -101.8071 134.9354 42.65536
v -132.9509 123.6089 34.67904
v -80.14955 103.0875 36.07956
v -86.84958 133.31 11.42552
v -81.96521 89.61401 12.24845
v -103.7088 110.8755 -8.74181
v -86.84958 133.31 11.42552
v -80.14955 103.0875 36.07956
v -81.96521 89.61401 12.24845
v -117.3432 147.6606 13.08595
v -131.4691 108.6235 7.089392
v -132.9509 123.6089 34.67904
v -101.8071 134.9354 42.65536
v -86.84958 133.31 11.42552
v -103.7088 110.8755 -8.74181
v 50.82952 119.3408 -46.77777
v 68.29902 117.857 -31.93893
v 60.61003 107.6828 -52.22385
v 50.82952 119.3408 -46.77777
v 60.61003 107.6828 -52.22385
v 36.23882 101.3236 -41.76057
v 50.82952 119.3408 -46.77777
v 36.23882 101.3236 -41.76057
v 38.8476 112.6412 -2.504063
v 61.9946 112.676 1.327938
v 68.29902 117.857 -31.93893
v 78.74269 98.61572 10.00806
v 76.91432 84.80349 -33.22416
v 76.91432 84.80349 -33.22416
v 40.03204 70.87135 -42.02282
v 36.23882 101.3236 -41.76057
v 40.03204 70.87135 -42.02282
v 22.76321 70.91067 -4.75642
v 38.8476 112.6412 -2.504063
v 38.4413 81.20885 15.6624
v 61.9946 112.676 1.327938
v 38.4413 81.20885 15.6624
v 78.74269 98.61572 10.00806
v 38.8476 112.6412 -2.504063
v 61.9946 112.676 1.327938
v 62.59121 57.25437 0.410366
v 40.03204 70.87135 -42.02282
v 76.91432 84.80349 -33.22416
v 22.76321 70.91067 -4.75642
v 38.4413 81.20885 15.6624
v 78.74269 98.61572 10.00806
v 28.10363 51.82923 -67.06467
v 46.78552 50.67027 -44.54477
v 39.81123 45.18363 -82.03673
v 28.10363 51.82923 -67.06467
v 39.81123 45.18363 -82.03673
v 18.81811 30.00239 -67.29761
v 28.10363 51.82923 -67.06467
v 18.81811 30.00239 -67.29761
v 22.46788 29.73682 1.608707
v 45.19278 34.63112 6.873234
v 46.78552 50.67027 -44.54477
v 65.58867 23.47668 13.2424
v 62.9012 22.79573 -63.35319
v 62.9012 22.79573 -63.35319
v 29.75289 2.985558 -82.96863
v 18.81811 30.00239 -67.29761
v 29.75289 2.985558 -82.96863
v 16.70985 -1.34404 -21.93172
v 22.46788 29.73682 1.608707
v 31.38444 -4.605541 15.38696
v 45.19278 34.63112 6.873234
v 31.38444 -4.605541 15.38696
v 65.58867 23.47668 13.2424
v 22.46788 29.73682 1.608707
v 45.19278 34.63112 6.873234
v 58.95856 -5.153364 -21.97572
v 29.75289 2.985558 -82.96863
v 62.9012 22.79573 -63.35319
v 16.70985 -1.34404 -21.93172
v 31.38444 -4.605541 15.38696
v 65.58867 23.47668 13.2424
v -48.0582 114.9247 -35.1939
v -57.83869 102.1476 -36.71577
v -65.52777 118.1618 -20.63653
v -48.0582 114.9247 -35.1939
v -33.46753 99.38447 -24.78739
v -57.83869 102.1476 -36.71577
v -48.0582 114.9247 -35.1939
v -36.07626 122.4247 8.951317
v -33.46753 99.38447 -24.78739
v -59.22329 123.6577 12.57969
v -65.52777 118.1618 -20.63653
v -74.14293 86.36787 -11.50762
v -75.97142 113.0222 25.22594
v -37.26073 70.38135 -15.50156
v -74.14293 86.36787 -11.50762
v -33.46753 99.38447 -24.78739
v -19.99178 82.08739 19.87864
v -37.26073 70.38135 -15.50156
v -36.07626 122.4247 8.951317
v -35.66998 98.26106 36.0462
v -59.22329 123.6577 12.57969
v -75.97142 113.0222 25.22594
v -35.66998 98.26106 36.0462
v -36.07626 122.4247 8.951317
v -59.22329 123.6577 12.57969
v -59.81992 70.73544 29.06162
v -74.14293 86.36787 -11.50762
v -37.26073 70.38135 -15.50156
v -19.99178 82.08739 19.87864
v -35.66998 98.26106 36.0462
v -75.97142 113.0222 25.22594
v -25.36213 54.49581 -24.39765
v -37.06976 47.85017 -39.36965
v -44.04414 53.33687 -1.877762
v -25.36213 54.49581 -24.39765
v -16.07667 32.66908 -24.6306
v -37.06976 47.85017 -39.36965
v -25.36213 54.49581 -24.39765
v -19.72648 32.4034 44.27572
v -16.07667 32.66908 -24.6306
v -42.4514 37.2977 49.54022
v -44.04414 53.33687 -1.877762
v -60.15977 25.46233 -20.68625
v -62.84724 26.14316 55.90942
v -27.01142 5.652224 -40.30167
v -60.15977 25.46233 -20.68625
v -16.07667 32.66908 -24.6306
v -13.96844 1.322533 20.73532
v -27.01142 5.652224 -40.30167
v -19.72648 32.4034 44.27572
v -28.64309 -1.939049 58.05394
v -42.4514 37.2977 49.54022
v -62.84724 26.14316 55.90942
v -28.64309 -1.939049 58.05394
v -19.72648 32.4034 44.27572
v -42.4514 37.2977 49.54022
v -56.21714 -2.486853 20.69117
v -60.15977 25.46233 -20.68625
v -27.01142 5.652224 -40.30167
v -13.96844 1.322533 20.73532
v -28.64309 -1.939049 58.05394
v -62.84724 26.14316 55.90942
v -5.546379 161.6973 -64.76537
v 23.31811 166.7336 -47.81061
v 18.21233 147.9105 -71.68166
v -5.546379 161.6973 -64.76537
v 18.21233 147.9105 -71.68166
v -3.737282 128.0032 -54.60682
v -5.546379 161.6973 -64.76537
v -3.737282 128.0032 -54.60682
v -0.893799 141.5892 -21.99776
v 28.0629 155.0866 -21.172
v 23.31811 166.7336 -47.81061
v 64.4218 143.5023 -17.90716
v 61.92322 131.438 -50.70368
v 61.92322 131.438 -50.70368
v 41.70553 103.8816 -54.69559
v -3.737282 128.0032 -54.60682
v 41.70553 103.8816 -54.69559
v 27.33052 98.31046 -22.77379
v -0.893799 141.5892 -21.99776
v 43.02969 123.0577 13.30391
v 28.0629 155.0866 -21.172
v 43.02969 123.0577 13.30391
v 64.4218 143.5023 -17.90716
v -0.893799 141.5892 -21.99776
v 28.0629 155.0866 -21.172
v 71.40341 85.23152 -6.81041
v 41.70553 103.8816 -54.69559
v 61.92322 131.438 -50.70368
v 27.33052 98.31046 -22.77379
v 43.02969 123.0577 13.30391
v 64.4218 143.5023 -17.90716
v 27.16028 1.747215 -52.30569
v 45.44239 9.908028 -63.55941
v 37.22387 7.493568 -41.26855
v 27.16028 1.747215 -52.30569
v 37.22387 7.493568 -41.26855
v 13.91038 19.32511 -47.23373
v 27.16028 1.747215 -52.30569
v 13.91038 19.32511 -47.23373
v 18.0685 26.7104 -73.78299
v 41.3039 27.52195 -76.47077
v 45.44239 9.908028 -63.55941
v 68.67052 62.88808 -48.69964
v 63.67839 49.02561 -10.39967
v 63.67839 49.02561 -10.39967
v 40.23369 55.92982 0.58293
v 13.91038 19.32511 -47.23373
v 40.23369 55.92982 0.58293
v 27.83042 91.51257 -28.08492
v 18.0685 26.7104 -73.78299
v 43.68343 78.02513 -53.85816
v 41.3039 27.52195 -76.47077
v 43.68343 78.02513 -53.85816
v 68.67052 62.88808 -48.69964
v 18.0685 26.7104 -73.78299
v 41.3039 27.52195 -76.47077
v 52.63681 86.55423 -14.23545
v 40.23369 55.92982 0.58293
v 63.67839 49.02561 -10.39967
v 27.83042 91.51257 -28.08492
v 43.68343 78.02513 -53.85816
v 68.67052 62.88808 -48.69964
v 8.317589 149.5193 -65.53932
v -15.44094 134.26 -67.79102
v -20.5469 159.6111 -51.01414
v 8.317589 149.5193 -65.53932
v 6.508545 120.7003 -45.34157
v -15.44094 134.26 -67.79102
v 8.317589 149.5193 -65.53932
v 3.665092 143.8134 -18.62615
v 6.508545 120.7003 -45.34157
v -25.2916 156.8906 -22.0682
v -20.5469 159.6111 -51.01414
v -59.15191 125.1843 -42.71016
v -61.65056 146.9111 -15.3402
v -38.93414 97.76369 -37.87305
v -59.15191 125.1843 -42.71016
v 6.508545 120.7003 -45.34157
v -24.55922 102.4679 -5.811943
v -38.93414 97.76369 -37.87305
v 3.665092 143.8134 -18.62615
v -40.25842 137.2671 20.7028
v -25.2916 156.8906 -22.0682
v -61.65056 146.9111 -15.3402
v -40.25842 137.2671 20.7028
v 3.665092 143.8134 -18.62615
v -25.2916 156.8906 -22.0682
v -68.63203 95.04488 13.44393
v -59.15191 125.1843 -42.71016
v -38.93414 97.76369 -37.87305
v -24.55922 102.4679 -5.811943
v -40.25842 137.2671 20.7028
v -61.65056 146.9111 -15.3402
v -24.38902 1.401291 -2.544418
v -34.45261 10.42282 6.025794
v -42.67105 5.461578 -15.83962
v -24.38902 1.401291 -2.544418
v -11.13899 19.67345 -3.460885
v -34.45261 10.42282 6.025794
v -24.38902 1.401291 -2.544418
v -15.29714 18.02903 -30.96909
v -11.13899 19.67345 -3.460885
v -38.53264 17.92294 -33.77475
v -42.67105 5.461578 -15.83962
v -60.90708 59.7328 21.72058
v -65.89922 60.39486 -19.00555
v -37.46229 69.83159 29.86295
v -60.90708 59.7328 21.72058
v -11.13899 19.67345 -3.460885
v -25.05904 94.16534 -8.813122
v -37.46229 69.83159 29.86295
v -15.29714 18.02903 -30.96909
v -40.91211 73.0336 -28.80371
v -38.53264 17.92294 -33.77475
v -65.89922 60.39486 -19.00555
v -40.91211 73.0336 -28.80371
v -15.29714 18.02903 -30.96909
v -38.53264 17.92294 -33.77475
v -49.86546 93.97749 5.895911
v -60.90708 59.7328 21.72058
v -37.46229 69.83159 29.86295
v -25.05904 94.16534 -8.813122
v -40.91211 73.0336 -28.80371
v -65.89922 60.39486 -19.00555
v -0.371812 286.5981 53.32372
v 25.46528 265.0758 53.82922
v 6.84159 284.8189 31.07622
v -0.371812 286.5981 53.32372
v 6.84159 284.8189 31.07622
v -27.83271 271.0304 43.86321
v -0.371812 286.5981 53.32372
v -27.83271 271.0304 43.86321
v -15.32911 242.9978 71.21081
v 18.53279 237.6626 64.50301
v 25.46528 265.0758 53.82922
v 37.24419 224.0146 44.37852
v 26.32269 252.4025 17.44232
v 26.32269 252.4025 17.44232
v -13.2655 269.725 22.30431
v -27.83271 271.0304 43.86321
v -13.2655 269.725 22.30431
v -30.2308 229.3947 37.5261
v -15.32911 242.9978 71.21081
v -0.711803 208.2427 56.2321
v 18.53279 237.6626 64.50301
v -0.711803 208.2427 56.2321
v 37.24419 224.0146 44.37852
v -15.32911 242.9978 71.21081
v 18.53279 237.6626 64.50301
v 4.185296 218.3078 18.27511
v -13.2655 269.725 22.30431
v 26.32269 252.4025 17.44232
v -30.2308 229.3947 37.5261
v -0.711803 208.2427 56.2321
v 37.24419 224.0146 44.37852
v -13.36231 262.3288 73.48069
v 6.327693 261.3791 47.0698
v -28.92191 224.2544 79.50298
v -13.36231 262.3288 73.48069
v -28.92191 224.2544 79.50298
v 7.165677 221.6525 109.1579
v -13.36231 262.3288 73.48069
v 7.165677 221.6525 109.1579
v 28.48168 231.9906 89.67891
v 24.14359 233.5886 58.4901
v 6.327693 261.3791 47.0698
v 15.74899 213.0143 37.33339
v -19.99251 210.3385 56.46698
v -19.99251 210.3385 56.46698
v -11.81562 198.9391 111.3318
v 7.165677 221.6525 109.1579
v -11.81562 198.9391 111.3318
v 9.333295 187.4567 112.9965
v 28.48168 231.9906 89.67891
v 33.71368 202.8765 80.0493
v 24.14359 233.5886 58.4901
v 33.71368 202.8765 80.0493
v 15.74899 213.0143 37.33339
v 28.48168 231.9906 89.67891
v 24.14359 233.5886 58.4901
v 3.828183 182.1273 90.94429
v -11.81562 198.9391 111.3318
v -19.99251 210.3385 56.46698
v 9.333295 187.4567 112.9965
v 33.71368 202.8765 80.0493
v 15.74899 213.0143 37.33339
vn 0.135296 -0.450486 0.882472
vn 0.661919 -0.387211 0.641819
vn 0.196696 0.072498 0.977781
vn 0.661919 -0.387211 0.641819
vn 0.963402 -0.249701 0.0975
vn 0.783472 0.229792 0.57738
vn 0.783472 0.229792 0.57738
vn 0.196696 0.072498 0.977781
vn 0.783472 0.229792 0.57738
vn 0.181393 0.537279 0.823668
vn -0.227006 -0.213406 0.950224
vn -0.058202 0.450012 0.891124
vn -0.058202 0.450012 0.891124
vn -0.770022 0.176505 0.613117
vn -0.328392 -0.757681 0.563985
vn -0.766213 -0.543509 0.342806
vn -0.328392 -0.757681 0.563985
vn -0.766213 -0.543509 0.342806
vn -0.654218 -0.74622 0.123103
vn 0.284609 -0.855529 0.432514
vn -0.328392 -0.757681 0.563985
vn -0.654218 -0.74622 0.123103
vn -0.233298 -0.96989 0.069899
vn 0.284609 -0.855529 0.432514
vn 0.331597 -0.943093 -0.0249
vn 0.768794 -0.621195 0.151899
vn 0.768794 -0.621195 0.151899
vn 0.768794 -0.621195 0.151899
vn 0.88621 -0.125701 -0.445905
vn 0.788795 0.124599 -0.601896
vn 0.4507 0.2275 -0.863199
vn 0.46228 0.24829 -0.851263
vn 0.88621 -0.125701 -0.445905
vn 0.46228 0.24829 -0.851263
vn 0.788795 0.124599 -0.601896
vn 0.445089 0.269793 -0.853878
vn 0.565816 0.746321 -0.35051
vn -0.102799 0.983585 0.148298
vn 0.565816 0.746321 -0.35051
vn 0.142703 0.58591 -0.797713
vn 0.142703 0.58591 -0.797713
vn -0.443207 0.600109 -0.66591
vn -0.770022 0.176505 0.613117
vn -0.706301 0.679101 -0.1999
vn -0.91104 -0.078803 -0.404718
vn -0.706301 0.679101 -0.1999
vn -0.443207 0.600109 -0.66591
vn -0.665207 0.205202 -0.717908
vn -0.91104 -0.078803 -0.404718
vn -0.735502 -0.0353 -0.676602
vn -0.862574 -0.408788 -0.298091
vn -0.648323 -0.625823 -0.433616
vn -0.735502 -0.0353 -0.676602
vn -0.606525 -0.050902 -0.793433
vn -0.648323 -0.625823 -0.433616
vn -0.606525 -0.050902 -0.793433
vn -0.373996 -0.165798 -0.91249
vn -0.1146 -0.769402 -0.628401
vn 0.596586 -0.552187 -0.582387
vn -0.1146 -0.769402 -0.628401
vn -0.0188 0.0254 -0.999501
vn -0.0188 0.0254 -0.999501
vn 0.596586 -0.552187 -0.582387
vn 0.4507 0.2275 -0.863199
vn 0.565816 0.746321 -0.35051
vn -0.706301 0.679101 -0.1999
vn -0.770022 0.176505 0.613117
vn -0.373996 -0.165798 -0.91249
vn -0.648323 -0.625823 -0.433616
vn 0.596586 -0.552187 -0.582387
vn 0.331597 -0.943093 -0.0249
vn -0.075 0.0717 -0.994602
vn -0.288892 0.289392 -0.912575
vn 0.314907 0.234805 -0.91962
vn -0.466722 0.090704 -0.879741
vn -0.199002 0.165002 -0.966009
vn 0.150697 0.251395 -0.956081
vn -0.586757 0.80108 -0.118268
vn 0.413922 0.831582 0.370324
vn 0.467869 0.549144 -0.692487
vn -0.586757 0.80108 -0.118268
vn 0.467869 0.549144 -0.692487
vn -0.488402 0.174521 -0.854989
vn -0.586757 0.80108 -0.118268
vn -0.488402 0.174521 -0.854989
vn -0.975859 0.111976 0.187513
vn -0.494215 0.330801 0.803942
vn 0.413922 0.831582 0.370324
vn 0.505841 0.059073 0.860602
vn 0.970305 0.208521 -0.12259
vn 0.970305 0.208521 -0.12259
vn 0.495953 -0.083449 -0.86433
vn -0.488402 0.174521 -0.854989
vn 0.495953 -0.083449 -0.86433
vn -0.605706 -0.63796 -0.475528
vn -0.975859 0.111976 0.187513
vn -0.450617 -0.440085 0.776705
vn -0.494215 0.330801 0.803942
vn -0.450617 -0.440085 0.776705
vn 0.505841 0.059073 0.860602
vn -0.975859 0.111976 0.187513
vn -0.494215 0.330801 0.803942
vn 0.758668 -0.631779 0.15899
vn 0.495953 -0.083449 -0.86433
vn 0.970305 0.208521 -0.12259
vn -0.605706 -0.63796 -0.475528
vn -0.450617 -0.440085 0.776705
vn 0.505841 0.059073 0.860602
vn 0.645682 0.762852 0.033941
vn -0.408903 0.696435 -0.589726
vn -0.362722 0.781897 0.507022
vn 0.645682 0.762852 0.033941
vn 0.521881 0.285482 -0.803829
vn -0.408903 0.696435 -0.589726
vn 0.645682 0.762852 0.033941
vn 0.97612 0.003292 0.217208
vn 0.521881 0.285482 -0.803829
vn 0.495468 0.145466 0.856359
vn -0.362722 0.781897 0.507022
vn -0.949241 0.299465 -0.096245
vn -0.522738 -0.055822 0.850664
vn -0.477835 0.108049 -0.871779
vn -0.949241 0.299465 -0.096245
vn 0.521881 0.285482 -0.803829
vn 0.570525 -0.587781 -0.573599
vn -0.477835 0.108049 -0.871779
vn 0.97612 0.003292 0.217208
vn 0.397245 -0.603013 0.691789
vn 0.495468 0.145466 0.856359
vn -0.522738 -0.055822 0.850664
vn 0.397245 -0.603013 0.691789
vn 0.97612 0.003292 0.217208
vn 0.495468 0.145466 0.856359
vn -0.806002 -0.590934 0.034039
vn -0.949241 0.299465 -0.096245
vn -0.477835 0.108049 -0.871779
vn 0.570525 -0.587781 -0.573599
vn 0.397245 -0.603013 0.691789
vn -0.522738 -0.055822 0.850664
vn -0.27836 0.767727 -0.577158
vn 0.587683 0.804771 0.083501
vn 0.657901 0.050475 -0.751411
vn -0.27836 0.767727 -0.577158
vn 0.657901 0.050475 -0.751411
vn -0.490607 -0.088448 -0.86688
vn -0.27836 0.767727 -0.577158
vn -0.490607 -0.088448 -0.86688
vn -0.890082 0.443593 -0.10478
vn -0.41121 0.825531 0.38653
vn 0.587683 0.804771 0.083501
vn 0.352804 0.443714 0.823801
vn 0.995418 -0.082444 0.048437
vn 0.995418 -0.082444 0.048437
vn 0.301402 -0.670374 -0.678053
vn -0.490607 -0.088448 -0.86688
vn 0.301402 -0.670374 -0.678053
vn -0.829012 -0.504314 -0.241675
vn -0.890082 0.443593 -0.10478
vn -0.692342 0.087366 0.716261
vn -0.41121 0.825531 0.38653
vn -0.692342 0.087366 0.716261
vn 0.352804 0.443714 0.823801
vn -0.890082 0.443593 -0.10478
vn -0.41121 0.825531 0.38653
vn 0.343994 -0.74361 0.573334
vn 0.301402 -0.670374 -0.678053
vn 0.995418 -0.082444 0.048437
vn -0.829012 -0.504314 -0.241675
vn -0.692342 0.087366 0.716261
vn 0.352804 0.443714 0.823801
vn 0.194156 0.724019 -0.661891
vn -0.669043 -0.094883 -0.737142
vn -0.662989 0.74855 0.010916
vn 0.194156 0.724019 -0.661891
vn 0.48601 -0.133961 -0.863626
vn -0.669043 -0.094883 -0.737142
vn 0.194156 0.724019 -0.661891
vn 0.840697 0.51351 -0.171861
vn 0.48601 -0.133961 -0.863626
vn 0.332694 0.898335 0.286895
vn -0.662989 0.74855 0.010916
vn -0.981781 -0.172437 0.079826
vn -0.384355 0.494085 0.77984
vn -0.242404 -0.765738 -0.595723
vn -0.981781 -0.172437 0.079826
vn 0.48601 -0.133961 -0.863626
vn 0.871505 -0.445172 -0.205671
vn -0.242404 -0.765738 -0.595723
vn 0.840697 0.51351 -0.171861
vn 0.689302 0.230799 0.686727
vn 0.332694 0.898335 0.286895
vn -0.384355 0.494085 0.77984
vn 0.689302 0.230799 0.686727
vn 0.840697 0.51351 -0.171861
vn 0.332694 0.898335 0.286895
vn -0.261946 -0.706904 0.657017
vn -0.981781 -0.172437 0.079826
vn -0.242404 -0.765738 -0.595723
vn 0.871505 -0.445172 -0.205671
vn 0.689302 0.230799 0.686727
vn -0.384355 0.494085 0.77984
vn -0.147245 0.903183 0.403211
vn 0.70864 0.605369 0.362433
vn 0.308996 0.78826 -0.532136
vn -0.147245 0.903183 0.403211
vn 0.308996 0.78826 -0.532136
vn -0.645294 0.684217 -0.33977
vn -0.147245 0.903183 0.403211
vn -0.645294 0.684217 -0.33977
vn -0.711912 0.232773 0.66257
vn 0.030773 0.128608 0.991218
vn 0.70864 0.605369 0.362433
vn 0.70824 -0.540183 0.454531
vn 0.842035 0.023813 -0.538897
vn 0.842035 0.023813 -0.538897
vn -0.120038 0.146743 -0.981864
vn -0.645294 0.684217 -0.33977
vn -0.120038 0.146743 -0.981864
vn -0.908794 -0.259274 -0.326911
vn -0.711912 0.232773 0.66257
vn -0.381315 -0.740266 0.553719
vn 0.030773 0.128608 0.991218
vn -0.381315 -0.740266 0.553719
vn 0.70824 -0.540183 0.454531
vn -0.711912 0.232773 0.66257
vn 0.030773 0.128608 0.991218
vn 0.056675 -0.838962 -0.541231
vn -0.120038 0.146743 -0.981864
vn 0.842035 0.023813 -0.538897
vn -0.908794 -0.259274 -0.326911
vn -0.381315 -0.740266 0.553719
vn 0.70824 -0.540183 0.454531
vn -0.742283 -0.603645 0.290911
vn -0.093287 -0.703542 -0.704505
vn 0.743237 -0.640969 0.191722
vn -0.742283 -0.603645 0.290911
vn 0.743237 -0.640969 0.191722
vn -0.198828 -0.057187 0.978365
vn -0.742283 -0.603645 0.290911
vn -0.198828 -0.057187 0.978365
vn -0.969857 0.06626 0.234492
vn -0.93704 -0.102127 -0.333955
vn -0.093287 -0.703542 -0.704505
vn -0.167113 0.121705 -0.978397
vn 0.797174 0.004935 -0.60373
vn 0.797174 0.004935 -0.60373
vn 0.799632 0.385933 0.460048
vn -0.198828 -0.057187 0.978365
vn 0.799632 0.385933 0.460048
vn -0.361523 0.647789 0.670574
vn -0.969857 0.06626 0.234492
vn -0.854163 0.475749 -0.209924
vn -0.93704 -0.102127 -0.333955
vn -0.854163 0.475749 -0.209924
vn -0.167113 0.121705 -0.978397
vn -0.969857 0.06626 0.234492
vn -0.93704 -0.102127 -0.333955
vn 0.255652 0.92987 -0.264544
vn 0.799632 0.385933 0.460048
vn 0.797174 0.004935 -0.60373
vn -0.361523 0.647789 0.670574
vn -0.854163 0.475749 -0.209924
vn -0.167113 0.121705 -0.978397
vn -0.045998 0.997162 -0.059598
vn 0.638103 0.769903 -0.0086
vn 0.226993 0.365589 -0.902673
vn -0.045998 0.997162 -0.059598
vn 0.226993 0.365589 -0.902673
vn -0.669404 0.402203 -0.624605
vn -0.045998 0.997162 -0.059598
vn -0.669404 0.402203 -0.624605
vn -0.4932 0.6205 0.6097
vn 0.128701 0.656003 0.743704
vn 0.638103 0.769903 -0.0086
vn 0.757983 -0.145297 0.635886
vn 0.708277 -0.30199 -0.638079
vn 0.708277 -0.30199 -0.638079
vn -0.1498 -0.512201 -0.845701
vn -0.669404 0.402203 -0.624605
vn -0.1498 -0.512201 -0.845701
vn -0.823703 -0.559802 0.0902
vn -0.4932 0.6205 0.6097
vn -0.1448 -0.276999 0.949897
vn 0.128701 0.656003 0.743704
vn -0.1448 -0.276999 0.949897
vn 0.757983 -0.145297 0.635886
vn -0.4932 0.6205 0.6097
vn 0.128701 0.656003 0.743704
vn 0.107097 -0.993874 -0.027299
vn -0.1498 -0.512201 -0.845701
vn 0.708277 -0.30199 -0.638079
vn -0.823703 -0.559802 0.0902
vn -0.1448 -0.276999 0.949897
vn 0.757983 -0.145297 0.635886
vn 0.0238 0.923108 0.383804
vn -0.589114 0.683817 -0.430511
vn -0.72957 0.438082 0.525178
vn 0.0238 0.923108 0.383804
vn 0.382125 0.803752 -0.45603
vn -0.589114 0.683817 -0.430511
vn 0.0238 0.923108 0.383804
vn 0.768719 0.40501 0.495013
vn 0.382125 0.803752 -0.45603
vn 0.160195 0.143695 0.97657
vn -0.72957 0.438082 0.525178
vn -0.923033 -0.181506 -0.339213
vn -0.449212 -0.674818 0.585516
vn -0.135796 0.144996 -0.980069
vn -0.923033 -0.181506 -0.339213
vn 0.382125 0.803752 -0.45603
vn 0.848898 -0.0549 -0.525698
vn -0.135796 0.144996 -0.980069
vn 0.768719 0.40501 0.495013
vn 0.651604 -0.620104 0.436903
vn 0.160195 0.143695 0.97657
vn -0.449212 -0.674818 0.585516
vn 0.651604 -0.620104 0.436903
vn 0.768719 0.40501 0.495013
vn 0.160195 0.143695 0.97657
vn 0.0171 -0.8436 -0.5367
vn -0.923033 -0.181506 -0.339213
vn -0.135796 0.144996 -0.980069
vn 0.848898 -0.0549 -0.525698
vn 0.651604 -0.620104 0.436903
vn -0.449212 -0.674818 0.585516
vn 0.801617 -0.494256 0.336336
vn -0.674098 -0.685161 0.275948
vn 0.153253 -0.763336 -0.62756
vn 0.801617 -0.494256 0.336336
vn 0.215746 0.068468 0.974046
vn -0.674098 -0.685161 0.275948
vn 0.801617 -0.494256 0.336336
vn 0.961493 0.184526 0.203668
vn 0.215746 0.068468 0.974046
vn 0.938293 -0.046743 -0.34267
vn 0.153253 -0.763336 -0.62756
vn -0.801289 -0.137329 -0.582303
vn 0.141993 0.030749 -0.98939
vn -0.827865 0.354454 0.434745
vn -0.801289 -0.137329 -0.582303
vn 0.215746 0.068468 0.974046
vn 0.304378 0.748402 0.589278
vn -0.827865 0.354454 0.434745
vn 0.961493 0.184526 0.203668
vn 0.800503 0.530443 -0.278971
vn 0.938293 -0.046743 -0.34267
vn 0.141993 0.030749 -0.98939
vn 0.800503 0.530443 -0.278971
vn 0.961493 0.184526 0.203668
vn 0.938293 -0.046743 -0.34267
vn -0.349176 0.866771 -0.356069
vn -0.801289 -0.137329 -0.582303
vn -0.827865 0.354454 0.434745
vn 0.304378 0.748402 0.589278
vn 0.800503 0.530443 -0.278971
vn 0.141993 0.030749 -0.98939
vn -0.206613 0.914182 -0.348688
vn 0.681878 0.710429 -0.174164
vn 0.246408 0.138936 -0.959156
vn -0.206613 0.914182 -0.348688
vn 0.246408 0.138936 -0.959156
vn -0.798852 0.209498 -0.563868
vn -0.206613 0.914182 -0.348688
vn -0.798852 0.209498 -0.563868
vn -0.664992 0.672878 0.32407
vn 0.062097 0.853817 0.516857
vn 0.681878 0.710429 -0.174164
vn 0.77358 0.241906 0.58571
vn 0.858826 -0.268371 -0.436342
vn 0.858826 -0.268371 -0.436342
vn -0.222696 -0.622841 -0.749984
vn -0.798852 0.209498 -0.563868
vn -0.222696 -0.622841 -0.749984
vn -0.937239 -0.318419 0.142103
vn -0.664992 0.672878 0.32407
vn -0.281506 0.054351 0.958019
vn 0.062097 0.853817 0.516857
vn -0.281506 0.054351 0.958019
vn 0.77358 0.241906 0.58571
vn -0.664992 0.672878 0.32407
vn 0.062097 0.853817 0.516857
vn 0.280413 -0.914693 0.291042
vn -0.222696 -0.622841 -0.749984
vn 0.858826 -0.268371 -0.436342
vn -0.937239 -0.318419 0.142103
vn -0.281506 0.054351 0.958019
vn 0.77358 0.241906 0.58571
vn -0.47052 0.880049 -0.064229
vn 0.464805 0.885069 0.024713
vn 0.086098 0.57792 -0.811539
vn -0.47052 0.880049 -0.064229
vn 0.086098 0.57792 -0.811539
vn -0.926247 0.165758 -0.338513
vn -0.47052 0.880049 -0.064229
vn -0.926247 0.165758 -0.338513
vn -0.822104 0.403209 0.401955
vn -0.135598 0.763777 0.631077
vn 0.464805 0.885069 0.024713
vn 0.828678 0.245698 0.502917
vn 0.928165 0.035799 -0.370443
vn 0.928165 0.035799 -0.370443
vn -0.164802 -0.625156 -0.762903
vn -0.926247 0.165758 -0.338513
vn -0.164802 -0.625156 -0.762903
vn -0.810479 -0.585622 0.013071
vn -0.822104 0.403209 0.401955
vn -0.286903 -0.403795 0.868698
vn -0.135598 0.763777 0.631077
vn -0.286903 -0.403795 0.868698
vn 0.828678 0.245698 0.502917
vn -0.822104 0.403209 0.401955
vn -0.135598 0.763777 0.631077
vn 0.497216 -0.867093 -0.03045
vn -0.164802 -0.625156 -0.762903
vn 0.928165 0.035799 -0.370443
vn -0.810479 -0.585622 0.013071
vn -0.286903 -0.403795 0.868698
vn 0.828678 0.245698 0.502917
vn 0.206594 0.758999 -0.617447
vn -0.246392 -0.168383 -0.954431
vn -0.68187 0.620221 -0.387788
vn 0.206594 0.758999 -0.617447
vn 0.798857 0.022385 -0.601105
vn -0.246392 -0.168383 -0.954431
vn 0.206594 0.758999 -0.617447
vn 0.665038 0.740471 0.097089
vn 0.798857 0.022385 -0.601105
vn -0.06212 0.972705 0.223575
vn -0.68187 0.620221 -0.387788
vn -0.858798 -0.391515 -0.330428
vn -0.773585 0.413129 0.48051
vn 0.222726 -0.826318 -0.517293
vn -0.858798 -0.391515 -0.330428
vn 0.798857 0.022385 -0.601105
vn 0.937223 -0.257918 0.234718
vn 0.222726 -0.826318 -0.517293
vn 0.665038 0.740471 0.097089
vn 0.281591 0.351538 0.89282
vn -0.06212 0.972705 0.223575
vn -0.773585 0.413129 0.48051
vn 0.281591 0.351538 0.89282
vn 0.665038 0.740471 0.097089
vn -0.06212 0.972705 0.223575
vn -0.280404 -0.777603 0.562767
vn -0.858798 -0.391515 -0.330428
vn 0.222726 -0.826318 -0.517293
vn 0.937223 -0.257918 0.234718
vn 0.281591 0.351538 0.89282
vn -0.773585 0.413129 0.48051
vn 0.470496 0.880063 -0.064208
vn -0.086133 0.57788 -0.811564
vn -0.464867 0.885034 0.024767
vn 0.470496 0.880063 -0.064208
vn 0.926252 0.165687 -0.338533
vn -0.086133 0.57788 -0.811564
vn 0.470496 0.880063 -0.064208
vn 0.822061 0.403225 0.402026
vn 0.926252 0.165687 -0.338533
vn 0.135578 0.763806 0.631046
vn -0.464867 0.885034 0.024767
vn -0.928173 0.03579 -0.370424
vn -0.828702 0.245655 0.502898
vn 0.164846 -0.625171 -0.762881
vn -0.928173 0.03579 -0.370424
vn 0.926252 0.165687 -0.338533
vn 0.810456 -0.585653 0.013106
vn 0.164846 -0.625171 -0.762881
vn 0.822061 0.403225 0.402026
vn 0.286885 -0.403784 0.868709
vn 0.135578 0.763806 0.631046
vn -0.828702 0.245655 0.502898
vn 0.286885 -0.403784 0.868709
vn 0.822061 0.403225 0.402026
vn 0.135578 0.763806 0.631046
vn -0.497258 -0.867071 -0.030385
vn -0.928173 0.03579 -0.370424
vn 0.164846 -0.625171 -0.762881
vn 0.810456 -0.585653 0.013106
vn 0.286885 -0.403784 0.868709
vn -0.828702 0.245655 0.502898
vn -0.675695 0.712437 -0.189394
vn 0.308897 0.93231 -0.188096
vn 0.122804 0.117248 -0.985481
vn -0.675695 0.712437 -0.189394
vn 0.122804 0.117248 -0.985481
vn -0.731034 -0.53578 -0.422527
vn -0.675695 0.712437 -0.189394
vn -0.731034 -0.53578 -0.422527
vn -0.824832 0.115493 0.553456
vn -0.138906 0.830726 0.539073
vn 0.308897 0.93231 -0.188096
vn 0.689669 0.661464 0.294657
vn 0.769393 0.205728 -0.60474
vn 0.769393 0.205728 -0.60474
vn 0.047499 -0.688424 -0.723751
vn -0.731034 -0.53578 -0.422527
vn 0.047499 -0.688424 -0.723751
vn -0.581613 -0.785184 0.212632
vn -0.824832 0.115493 0.553456
vn -0.145796 0.151271 0.977681
vn -0.138906 0.830726 0.539073
vn -0.145796 0.151271 0.977681
vn 0.689669 0.661464 0.294657
vn -0.824832 0.115493 0.553456
vn -0.138906 0.830726 0.539073
vn 0.718998 -0.683198 0.127608
vn 0.047499 -0.688424 -0.723751
vn 0.769393 0.205728 -0.60474
vn -0.581613 -0.785184 0.212632
vn -0.145796 0.151271 0.977681
vn 0.689669 0.661464 0.294657
vn -0.303991 -0.90892 -0.285403
vn 0.679818 -0.683919 -0.264768
vn 0.103899 -0.803128 0.586677
vn -0.303991 -0.90892 -0.285403
vn 0.103899 -0.803128 0.586677
vn -0.872074 -0.333902 0.357765
vn -0.303991 -0.90892 -0.285403
vn -0.872074 -0.333902 0.357765
vn -0.69141 -0.010981 -0.72238
vn 0.208799 -0.179036 -0.961431
vn 0.679818 -0.683919 -0.264768
vn 0.903888 0.212686 -0.371148
vn 0.811151 -0.291743 0.506874
vn 0.811151 -0.291743 0.506874
vn -0.287812 -0.113642 0.950921
vn -0.872074 -0.333902 0.357765
vn -0.287812 -0.113642 0.950921
vn -0.738394 0.670215 0.074743
vn -0.69141 -0.010981 -0.72238
vn 0.135405 0.706993 -0.694138
vn 0.208799 -0.179036 -0.961431
vn 0.135405 0.706993 -0.694138
vn 0.903888 0.212686 -0.371148
vn -0.69141 -0.010981 -0.72238
vn 0.208799 -0.179036 -0.961431
vn 0.536903 0.760799 0.364581
vn -0.287812 -0.113642 0.950921
vn 0.811151 -0.291743 0.506874
vn -0.738394 0.670215 0.074743
vn 0.135405 0.706993 -0.694138
vn 0.903888 0.212686 -0.371148
vn 0.675656 0.617312 -0.403009
vn -0.122785 -0.197165 -0.972651
vn -0.308873 0.826521 -0.470596
vn 0.675656 0.617312 -0.403009
vn 0.731052 -0.641109 -0.233546
vn -0.122785 -0.197165 -0.972651
vn 0.675656 0.617312 -0.403009
vn 0.824854 0.283039 0.489393
vn 0.731052 -0.641109 -0.233546
vn 0.138904 0.957752 0.251826
vn -0.308873 0.826521 -0.470596
vn -0.769401 0.00603 -0.638737
vn -0.689682 0.720455 0.072684
vn -0.047496 -0.880437 -0.471779
vn -0.769401 0.00603 -0.638737
vn 0.731052 -0.641109 -0.233546
vn 0.581571 -0.679149 0.447809
vn -0.047496 -0.880437 -0.471779
vn 0.824854 0.283039 0.489393
vn 0.145762 0.449832 0.881138
vn 0.138904 0.957752 0.251826
vn -0.689682 0.720455 0.072684
vn 0.145762 0.449832 0.881138
vn 0.824854 0.283039 0.489393
vn 0.138904 0.957752 0.251826
vn -0.719015 -0.608872 0.335101
vn -0.769401 0.00603 -0.638737
vn -0.047496 -0.880437 -0.471779
vn 0.581571 -0.679149 0.447809
vn 0.145762 0.449832 0.881138
vn -0.689682 0.720455 0.072684
vn 0.304 -0.952329 0.025576
vn -0.103916 -0.568818 0.815872
vn -0.679884 -0.73278 -0.028132
vn 0.304 -0.952329 0.025576
vn 0.87209 -0.19954 0.446814
vn -0.103916 -0.568818 0.815872
vn 0.304 -0.952329 0.025576
vn 0.691447 -0.245075 -0.679588
vn 0.87209 -0.19954 0.446814
vn -0.208744 -0.481802 -0.851054
vn -0.679884 -0.73278 -0.028132
vn -0.811168 -0.111201 0.574143
vn -0.903902 0.080543 -0.420087
vn 0.287836 0.201585 0.936223
vn -0.811168 -0.111201 0.574143
vn 0.87209 -0.19954 0.446814
vn 0.73837 0.658152 -0.147124
vn 0.287836 0.201585 0.936223
vn 0.691447 -0.245075 -0.679588
vn -0.135357 0.442985 -0.886252
vn -0.208744 -0.481802 -0.851054
vn -0.903902 0.080543 -0.420087
vn -0.135357 0.442985 -0.886252
vn 0.691447 -0.245075 -0.679588
vn -0.208744 -0.481802 -0.851054
vn -0.536929 0.837976 0.097489
vn -0.811168 -0.111201 0.574143
vn 0.287836 0.201585 0.936223
vn 0.73837 0.658152 -0.147124
vn -0.135357 0.442985 -0.886252
vn -0.903902 0.080543 -0.420087
vn 0.0418 0.73451 0.677309
vn 0.807905 0.473303 0.351103
vn 0.1663 0.903898 -0.394099
vn 0.0418 0.73451 0.677309
vn 0.1663 0.903898 -0.394099
vn -0.807025 0.590518 -0.0004
vn 0.0418 0.73451 0.677309
vn -0.807025 0.590518 -0.0004
vn -0.449399 -0.0244 0.892998
vn 0.392388 -0.038999 0.918973
vn 0.807905 0.473303 0.351103
vn 0.893913 -0.429606 0.127902
vn 0.618795 0.239998 -0.747993
vn 0.618795 0.239998 -0.747993
vn -0.422198 0.304599 -0.853797
vn -0.807025 0.590518 -0.0004
vn -0.422198 0.304599 -0.853797
vn -0.907549 -0.36408 -0.209289
vn -0.449399 -0.0244 0.892998
vn -0.065404 -0.87705 0.475927
vn 0.392388 -0.038999 0.918973
vn -0.065404 -0.87705 0.475927
vn 0.893913 -0.429606 0.127902
vn -0.449399 -0.0244 0.892998
vn 0.392388 -0.038999 0.918973
vn -0.0319 -0.599006 -0.800109
vn -0.422198 0.304599 -0.853797
vn 0.618795 0.239998 -0.747993
vn -0.907549 -0.36408 -0.209289
vn -0.065404 -0.87705 0.475927
vn 0.893913 -0.429606 0.127902
vn 0.0498 0.909004 0.413802
vn -0.237797 0.569294 -0.786992
vn -0.967724 0.234306 0.092802
vn 0.0498 0.909004 0.413802
vn -0.967724 0.234306 0.092802
vn -0.054101 0.424706 0.903713
vn 0.0498 0.909004 0.413802
vn -0.054101 0.424706 0.903713
vn 0.78617 0.433284 0.440684
vn 0.889166 0.432683 -0.148894
vn -0.237797 0.569294 -0.786992
vn 0.431599 -0.382198 -0.817097
vn -0.773477 -0.410788 -0.482686
vn -0.773477 -0.410788 -0.482686
vn -0.729395 -0.399397 0.555396
vn -0.054101 0.424706 0.903713
vn -0.729395 -0.399397 0.555396
vn 0.449092 -0.420993 0.788087
vn 0.78617 0.433284 0.440684
vn 0.930338 -0.361215 -0.063202
vn 0.889166 0.432683 -0.148894
vn 0.930338 -0.361215 -0.063202
vn 0.431599 -0.382198 -0.817097
vn 0.78617 0.433284 0.440684
vn 0.889166 0.432683 -0.148894
vn -0.105894 -0.984545 -0.139492
vn -0.729395 -0.399397 0.555396
vn -0.773477 -0.410788 -0.482686
vn 0.449092 -0.420993 0.788087
vn 0.930338 -0.361215 -0.063202
vn 0.431599 -0.382198 -0.817097
vt 0.5565 0.0625
vt 1.0246 0.229
vt 0.7629 0.5856
vt 0.229 0.9371
vt 0.3372 0.5905
vt 0.8143 0.5065
vt 1.3587 0.8143
vt 0.2371 0.8782
vt -0.3587 0.5065
vt 0.1019 0.476
vt 0.0287 0.4727
vt 0.8629 0.5359
vt 0.1371 0.917
vt -0.3587 0.8788
vt 0.2931 -0.1313
vt -0.1978 0.3147
vt 1.1313 0.8783
vt 0.6853 0.6421
vt 1.2373 0.5576
vt 0.6038 -0.2905
vt 0.2931 0.8783
vt 0.1369 0.5576
vt 0.4021 0.5511
vt 0.6038 0.8327
vt 0.7333 0.4802
vt 0.9143 0.6109
vt 0.9143 -0.2484
vt -0.2484 0.6109
vt -0.0196 0.3064
vt 0.5899 0.2531
vt -0.1516 0.0611
vt 0.2678 0.143
vt -0.0904 -0.0196
vt -0.0225 0.2678
vt -0.3409 0.5899
vt -0.0736 0.6604
vt -0.3184 0.1736
vt 0.4782 0.1766
vt -0.3184 0.9732
vt 0.2727 0.8672
vt 0.2727 0.0007
vt 0.6609 0.0212
vt 0.1212 0.4684
vt -0.0184 0.1866
vt 0.3643 0.2904
vt 1.0877 1.0184
vt 0.6609 0.9256
vt 0.964 0.7
vt 1.317 0.6357
vt 0.9999 0.3009
vt 0.9852 0.308
vt 1.3762 0.201
vt 0.6991 0.0872
vt 1.0739 0.0229
vt 0.8072 -0.3762
vt 0.815 -0.0739
vt 0.5881 -0.3447
vt 0.5652 0.1611
vt 0.9279 0.1763
vt 0.4348 -0.5262
vt 0.3006 -0.3156
vt 0.6994 -0.0406
vt 0.0721 -0.4464
vt 0.0614 -0.1516
vt 0.9732 0.1736
vt 1.0877 0.1866
vt 1.3587 0.4684
vt 0.4119 0.0329
vt 0.1928 0.201
vt -0.4464 0.1763
vt -0.507 0.4802
vt 0.445 0.3596
vt 0.5666 0.7068
vt 0.163 0.5377
vt 0.7458 0.3375
vt 0.5127 -0.0396
vt 0.2652 0.0825
vt 0.9995 0.1855
vt 0.7974 0.4654
vt 0.7647 0.0005
vt 0.4745 0.9995
vt 0.3305 0.7647
vt 0.9009 0.7577
vt 0.4745 0.1855
vt 0.9009 0.1857
vt 0.8079 0.7651
vt 0.2938 0.8298
vt 0.1225 0.4654
vt 0.3103 0.811
vt 0.3197 0.2358
vt 0.0696 0.3197
vt 0.646 0.2964
vt 0.2423 0.1857
vt 0.7036 0.0505
vt 0.7043 0.5355
vt 0.2443 0.7651
vt 0.7249 0.9995
vt 0.7062 0.6384
vt 0.3776 0.2751
vt 0.9995 0.3103
vt 0.1921 0.7557
vt 0.6384 0.8298
vt 0.5343 0.5355
vt 0.354 0.0505
vt 0.9304 0.2358
vt 0.0005 0.5355
vt 0.3776 0.9995
vt 0.9995 0.811
vt 0.9995 0.1855
vt 0.7647 0.0005
vt 0.7974 0.4654
vt 0.4745 0.9995
vt 0.9009 0.7577
vt 0.3305 0.7647
vt 0.4745 0.1855
vt 0.8079 0.7651
vt 0.9009 0.1857
vt 0.2938 0.8298
vt 0.1225 0.4654
vt 0.3197 0.2358
vt 0.3103 0.811
vt 0.646 0.2964
vt 0.0696 0.3197
vt 0.2423 0.1857
vt 0.7043 0.5355
vt 0.7036 0.0505
vt 0.2443 0.7651
vt 0.7249 0.9995
vt 0.7062 0.6384
vt 0.9995 0.3103
vt 0.3776 0.2751
vt 0.1921 0.7557
vt 0.6384 0.8298
vt 0.5343 0.5355
vt 0.9304 0.2358
vt 0.354 0.0505
vt 0.0005 0.5355
vt 0.3776 0.9995
vt 0.9995 0.811
vt 0.9995 0.1855
vt 0.7974 0.4654
vt 0.7647 0.0005
vt 0.4745 0.9995
vt 0.3305 0.7647
vt 0.9009 0.7577
vt 0.4745 0.1855
vt 0.9009 0.1857
vt 0.8079 0.7651
vt 0.2938 0.8298
vt 0.1225 0.4654
vt 0.3103 0.811
vt 0.3197 0.2358
vt 0.0696 0.3197
vt 0.646 0.2964
vt 0.2423 0.1857
vt 0.7036 0.0505
vt 0.7043 0.5355
vt 0.2443 0.7651
vt 0.7249 0.9995
vt 0.7062 0.6384
vt 0.3776 0.2751
vt 0.9995 0.3103
vt 0.1921 0.7557
vt 0.6384 0.8298
vt 0.5343 0.5355
vt 0.354 0.0505
vt 0.9304 0.2358
vt 0.0005 0.5355
vt 0.3776 0.9995
vt 0.9995 0.811
vt 0.9995 0.1855
vt 0.7647 0.0005
vt 0.7974 0.4654
vt 0.4745 0.9995
vt 0.9009 0.7577
vt 0.3305 0.7647
vt 0.4745 0.1855
vt 0.8079 0.7651
vt 0.9009 0.1857
vt 0.2938 0.8298
vt 0.1225 0.4654
vt 0.3197 0.2358
vt 0.3103 0.811
vt 0.646 0.2964
vt 0.0696 0.3197
vt 0.2423 0.1857
vt 0.7043 0.5355
vt 0.7036 0.0505
vt 0.2443 0.7651
vt 0.7249 0.9995
vt 0.7062 0.6384
vt 0.9995 0.3103
vt 0.3776 0.2751
vt 0.1921 0.7557
vt 0.6384 0.8298
vt 0.5343 0.5355
vt 0.9304 0.2358
vt 0.354 0.0505
vt 0.0005 0.5355
vt 0.3776 0.9995
vt 0.9995 0.811
vt 0.9995 0.1855
vt 0.7974 0.4654
vt 0.7647 0.0005
vt 0.4745 0.9995
vt 0.3305 0.7647
vt 0.9009 0.7577
vt 0.4745 0.1855
vt 0.9009 0.1857
vt 0.8079 0.7651
vt 0.2938 0.8298
vt 0.1225 0.4654
vt 0.3103 0.811
vt 0.3197 0.2358
vt 0.0696 0.3197
vt 0.646 0.2964
vt 0.2423 0.1857
vt 0.7036 0.0505
vt 0.7043 0.5355
vt 0.2443 0.7651
vt 0.7249 0.9995
vt 0.7062 0.6384
vt 0.3776 0.2751
vt 0.9995 0.3103
vt 0.1921 0.7557
vt 0.6384 0.8298
vt 0.5343 0.5355
vt 0.354 0.0505
vt 0.9304 0.2358
vt 0.0005 0.5355
vt 0.3776 0.9995
vt 0.9995 0.811
vt 0.9995 0.1855
vt 0.7974 0.4654
vt 0.7647 0.0005
vt 0.4745 0.9995
vt 0.3305 0.7647
vt 0.9009 0.7577
vt 0.4745 0.1855
vt 0.9009 0.1857
vt 0.8079 0.7651
vt 0.2938 0.8298
vt 0.1225 0.4654
vt 0.3103 0.811
vt 0.3197 0.2358
vt 0.0696 0.3197
vt 0.646 0.2964
vt 0.2423 0.1857
vt 0.7036 0.0505
vt 0.7043 0.5355
vt 0.2443 0.7651
vt 0.7249 0.9995
vt 0.7062 0.6384
vt 0.3776 0.2751
vt 0.9995 0.3103
vt 0.1921 0.7557
vt 0.6384 0.8298
vt 0.5343 0.5355
vt 0.354 0.0505
vt 0.9304 0.2358
vt 0.0005 0.5355
vt 0.3776 0.9995
vt 0.9995 0.811
vt 0.9995 0.1855
vt 0.7974 0.4654
vt 0.7647 0.0005
vt 0.4745 0.9995
vt 0.3305 0.7647
vt 0.9009 0.7577
vt 0.4745 0.1855
vt 0.9009 0.1857
vt 0.8079 0.7651
vt 0.2938 0.8298
vt 0.1225 0.4654
vt 0.3103 0.811
vt 0.3197 0.2358
vt 0.0696 0.3197
vt 0.646 0.2964
vt 0.2423 0.1857
vt 0.7036 0.0505
vt 0.7043 0.5355
vt 0.2443 0.7651
vt 0.7249 0.9995
vt 0.7062 0.6384
vt 0.3776 0.2751
vt 0.9995 0.3103
vt 0.1921 0.7557
vt 0.6384 0.8298
vt 0.5343 0.5355
vt 0.354 0.0505
vt 0.9304 0.2358
vt 0.0005 0.5355
vt 0.3776 0.9995
vt 0.9995 0.811
vt 0.9995 0.1855
vt 0.7647 0.0005
vt 0.7974 0.4654
vt 0.4745 0.9995
vt 0.9009 0.7577
vt 0.3305 0.7647
vt 0.4745 0.1855
vt 0.8079 0.7651
vt 0.9009 0.1857
vt 0.2938 0.8298
vt 0.1225 0.4654
vt 0.3197 0.2358
vt 0.3103 0.811
vt 0.646 0.2964
vt 0.0696 0.3197
vt 0.2423 0.1857
vt 0.7043 0.5355
vt 0.7036 0.0505
vt 0.2443 0.7651
vt 0.7249 0.9995
vt 0.7062 0.6384
vt 0.9995 0.3103
vt 0.3776 0.2751
vt 0.1921 0.7557
vt 0.6384 0.8298
vt 0.5343 0.5355
vt 0.9304 0.2358
vt 0.354 0.0505
vt 0.0005 0.5355
vt 0.3776 0.9995
vt 0.9995 0.811
vt 0.9995 0.1855
vt 0.7647 0.0005
vt 0.7974 0.4654
vt 0.4745 0.9995
vt 0.9009 0.7577
vt 0.3305 0.7647
vt 0.4745 0.1855
vt 0.8079 0.7651
vt 0.9009 0.1857
vt 0.2938 0.8298
vt 0.1225 0.4654
vt 0.3197 0.2358
vt 0.3103 0.811
vt 0.646 0.2964
vt 0.0696 0.3197
vt 0.2423 0.1857
vt 0.7043 0.5355
vt 0.7036 0.0505
vt 0.2443 0.7651
vt 0.7249 0.9995
vt 0.7062 0.6384
vt 0.9995 0.3103
vt 0.3776 0.2751
vt 0.1921 0.7557
vt 0.6384 0.8298
vt 0.5343 0.5355
vt 0.9304 0.2358
vt 0.354 0.0505
vt 0.0005 0.5355
vt 0.3776 0.9995
vt 0.9995 0.811
vt 0.9995 0.1855
vt 0.7974 0.4654
vt 0.7647 0.0005
vt 0.4745 0.9995
vt 0.3305 0.7647
vt 0.9009 0.7577
vt 0.4745 0.1855
vt 0.9009 0.1857
vt 0.8079 0.7651
vt 0.2938 0.8298
vt 0.1225 0.4654
vt 0.3103 0.811
vt 0.3197 0.2358
vt 0.0696 0.3197
vt 0.646 0.2964
vt 0.2423 0.1857
vt 0.7036 0.0505
vt 0.7043 0.5355
vt 0.2443 0.7651
vt 0.7249 0.9995
vt 0.7062 0.6384
vt 0.3776 0.2751
vt 0.9995 0.3103
vt 0.1921 0.7557
vt 0.6384 0.8298
vt 0.5343 0.5355
vt 0.354 0.0505
vt 0.9304 0.2358
vt 0.0005 0.5355
vt 0.3776 0.9995
vt 0.9995 0.811
vt 0.9995 0.1855
vt 0.7974 0.4654
vt 0.7647 0.0005
vt 0.4745 0.9995
vt 0.3305 0.7647
vt 0.9009 0.7577
vt 0.4745 0.1855
vt 0.9009 0.1857
vt 0.8079 0.7651
vt 0.2938 0.8298
vt 0.1225 0.4654
vt 0.3103 0.811
vt 0.3197 0.2358
vt 0.0696 0.3197
vt 0.646 0.2964
vt 0.2423 0.1857
vt 0.7036 0.0505
vt 0.7043 0.5355
vt 0.2443 0.7651
vt 0.7249 0.9995
vt 0.7062 0.6384
vt 0.3776 0.2751
vt 0.9995 0.3103
vt 0.1921 0.7557
vt 0.6384 0.8298
vt 0.5343 0.5355
vt 0.354 0.0505
vt 0.9304 0.2358
vt 0.0005 0.5355
vt 0.3776 0.9995
vt 0.9995 0.811
vt 0.9995 0.1855
vt 0.7647 0.0005
vt 0.7974 0.4654
vt 0.4745 0.9995
vt 0.9009 0.7577
vt 0.3305 0.7647
vt 0.4745 0.1855
vt 0.8079 0.7651
vt 0.9009 0.1857
vt 0.2938 0.8298
vt 0.1225 0.4654
vt 0.3197 0.2358
vt 0.3103 0.811
vt 0.646 0.2964
vt 0.0696 0.3197
vt 0.2423 0.1857
vt 0.7043 0.5355
vt 0.7036 0.0505
vt 0.2443 0.7651
vt 0.7249 0.9995
vt 0.7062 0.6384
vt 0.9995 0.3103
vt 0.3776 0.2751
vt 0.1921 0.7557
vt 0.6384 0.8298
vt 0.5343 0.5355
vt 0.9304 0.2358
vt 0.354 0.0505
vt 0.0005 0.5355
vt 0.3776 0.9995
vt 0.9995 0.811
vt 0.9995 0.1855
vt 0.7647 0.0005
vt 0.7974 0.4654
vt 0.4745 0.9995
vt 0.9009 0.7577
vt 0.3305 0.7647
vt 0.4745 0.1855
vt 0.8079 0.7651
vt 0.9009 0.1857
vt 0.2938 0.8298
vt 0.1225 0.4654
vt 0.3197 0.2358
vt 0.3103 0.811
vt 0.646 0.2964
vt 0.0696 0.3197
vt 0.2423 0.1857
vt 0.7043 0.5355
vt 0.7036 0.0505
vt 0.2443 0.7651
vt 0.7249 0.9995
vt 0.7062 0.6384
vt 0.9995 0.3103
vt 0.3776 0.2751
vt 0.1921 0.7557
vt 0.6384 0.8298
vt 0.5343 0.5355
vt 0.9304 0.2358
vt 0.354 0.0505
vt 0.0005 0.5355
vt 0.3776 0.9995
vt 0.9995 0.811
vt 0.9995 0.1855
vt 0.7974 0.4654
vt 0.7647 0.0005
vt 0.4745 0.9995
vt 0.3305 0.7647
vt 0.9009 0.7577
vt 0.4745 0.1855
vt 0.9009 0.1857
vt 0.8079 0.7651
vt 0.2938 0.8298
vt 0.1225 0.4654
vt 0.3103 0.811
vt 0.3197 0.2358
vt 0.0696 0.3197
vt 0.646 0.2964
vt 0.2423 0.1857
vt 0.7036 0.0505
vt 0.7043 0.5355
vt 0.2443 0.7651
vt 0.7249 0.9995
vt 0.7062 0.6384
vt 0.3776 0.2751
vt 0.9995 0.3103
vt 0.1921 0.7557
vt 0.6384 0.8298
vt 0.5343 0.5355
vt 0.354 0.0505
vt 0.9304 0.2358
vt 0.0005 0.5355
vt 0.3776 0.9995
vt 0.9995 0.811
vt 0.9995 0.1855
vt 0.7974 0.4654
vt 0.7647 0.0005
vt 0.4745 0.9995
vt 0.3305 0.7647
vt 0.9009 0.7577
vt 0.4745 0.1855
vt 0.9009 0.1857
vt 0.8079 0.7651
vt 0.2938 0.8298
vt 0.1225 0.4654
vt 0.3103 0.811
vt 0.3197 0.2358
vt 0.0696 0.3197
vt 0.646 0.2964
vt 0.2423 0.1857
vt 0.7036 0.0505
vt 0.7043 0.5355
vt 0.2443 0.7651
vt 0.7249 0.9995
vt 0.7062 0.6384
vt 0.3776 0.2751
vt 0.9995 0.3103
vt 0.1921 0.7557
vt 0.6384 0.8298
vt 0.5343 0.5355
vt 0.354 0.0505
vt 0.9304 0.2358
vt 0.0005 0.5355
vt 0.3776 0.9995
vt 0.9995 0.811
vt 0.9995 0.1855
vt 0.7647 0.0005
vt 0.7974 0.4654
vt 0.4745 0.9995
vt 0.9009 0.7577
vt 0.3305 0.7647
vt 0.4745 0.1855
vt 0.8079 0.7651
vt 0.9009 0.1857
vt 0.2938 0.8298
vt 0.1225 0.4654
vt 0.3197 0.2358
vt 0.3103 0.811
vt 0.646 0.2964
vt 0.0696 0.3197
vt 0.2423 0.1857
vt 0.7043 0.5355
vt 0.7036 0.0505
vt 0.2443 0.7651
vt 0.7249 0.9995
vt 0.7062 0.6384
vt 0.9995 0.3103
vt 0.3776 0.2751
vt 0.1921 0.7557
vt 0.6384 0.8298
vt 0.5343 0.5355
vt 0.9304 0.2358
vt 0.354 0.0505
vt 0.0005 0.5355
vt 0.3776 0.9995
vt 0.9995 0.811
vt 0.9995 0.1855
vt 0.7647 0.0005
vt 0.7974 0.4654
vt 0.4745 0.9995
vt 0.9009 0.7577
vt 0.3305 0.7647
vt 0.4745 0.1855
vt 0.8079 0.7651
vt 0.9009 0.1857
vt 0.2938 0.8298
vt 0.1225 0.4654
vt 0.3197 0.2358
vt 0.3103 0.811
vt 0.646 0.2964
vt 0.0696 0.3197
vt 0.2423 0.1857
vt 0.7043 0.5355
vt 0.7036 0.0505
vt 0.2443 0.7651
vt 0.7249 0.9995
vt 0.7062 0.6384
vt 0.9995 0.3103
vt 0.3776 0.2751
vt 0.1921 0.7557
vt 0.6384 0.8298
vt 0.5343 0.5355
vt 0.9304 0.2358
vt 0.354 0.0505
vt 0.0005 0.5355
vt 0.3776 0.9995
vt 0.9995 0.811
vt 0.9995 0.1855
vt 0.7974 0.4654
vt 0.7647 0.0005
vt 0.4745 0.9995
vt 0.3305 0.7647
vt 0.9009 0.7577
vt 0.4745 0.1855
vt 0.9009 0.1857
vt 0.8079 0.7651
vt 0.2938 0.8298
vt 0.1225 0.4654
vt 0.3103 0.811
vt 0.3197 0.2358
vt 0.0696 0.3197
vt 0.646 0.2964
vt 0.2423 0.1857
vt 0.7036 0.0505
vt 0.7043 0.5355
vt 0.2443 0.7651
vt 0.7249 0.9995
vt 0.7062 0.6384
vt 0.3776 0.2751
vt 0.9995 0.3103
vt 0.1921 0.7557
vt 0.6384 0.8298
vt 0.5343 0.5355
vt 0.354 0.0505
vt 0.9304 0.2358
vt 0.0005 0.5355
vt 0.3776 0.9995
vt 0.9995 0.811
vt 0.9995 0.1855
vt 0.7974 0.4654
vt 0.7647 0.0005
vt 0.4745 0.9995
vt 0.3305 0.7647
vt 0.9009 0.7577
vt 0.4745 0.1855
vt 0.9009 0.1857
vt 0.8079 0.7651
vt 0.2938 0.8298
vt 0.1225 0.4654
vt 0.3103 0.811
vt 0.3197 0.2358
vt 0.0696 0.3197
vt 0.646 0.2964
vt 0.2423 0.1857
vt 0.7036 0.0505
vt 0.7043 0.5355
vt 0.2443 0.7651
vt 0.7249 0.9995
vt 0.7062 0.6384
vt 0.3776 0.2751
vt 0.9995 0.3103
vt 0.1921 0.7557
vt 0.6384 0.8298
vt 0.5343 0.5355
vt 0.354 0.0505
vt 0.9304 0.2358
vt 0.0005 0.5355
vt 0.3776 0.9995
vt 0.9995 0.811
f 1/1/1 3/3/3 2/2/2
f 4/4/4 6/6/6 5/5/5
f 2/2/2 3/3/3 7/7/7
f 8/8/8 10/10/10 9/9/9
f 1/1/1 11/11/11 3/3/3
f 8/8/8 12/12/12 10/10/10
f 3/3/3 11/11/11 13/13/13
f 11/11/11 14/14/14 13/13/13
f 1/1/1 15/15/15 11/11/11
f 11/11/11 16/16/16 14/14/14
f 11/11/11 15/15/15 16/16/16
f 17/17/17 19/19/19 18/18/18
f 1/1/1 20/20/20 15/15/15
f 21/21/21 23/23/23 22/22/22
f 21/21/21 24/24/24 23/23/23
f 24/24/24 25/25/25 23/23/23
f 1/1/1 2/2/2 20/20/20
f 24/24/24 26/26/26 25/25/25
f 20/20/20 2/2/2 27/27/27
f 4/4/4 5/5/5 28/28/28
f 5/5/5 30/30/30 29/29/29
f 29/29/29 32/32/32 31/31/31
f 33/33/33 35/35/35 34/34/34
f 35/35/35 36/36/36 34/34/34
f 10/10/10 38/38/38 37/37/37
f 39/39/39 40/40/40 36/36/36
f 37/37/37 38/38/38 41/41/41
f 38/38/38 42/42/42 41/41/41
f 43/43/43 45/45/45 44/44/44
f 46/46/46 48/48/48 47/47/47
f 46/46/46 49/49/49 48/48/48
f 49/49/49 50/50/50 48/48/48
f 19/19/19 52/52/52 51/51/51
f 51/51/51 54/54/54 53/53/53
f 51/51/51 52/52/52 54/54/54
f 55/55/55 57/57/57 56/56/56
f 25/25/25 59/59/59 58/58/58
f 60/60/60 61/61/61 57/57/57
f 58/58/58 59/59/59 62/62/62
f 63/63/63 64/64/64 61/61/61
f 36/36/36 35/35/35 39/39/39
f 37/37/37 9/9/9 10/10/10
f 65/65/65 30/30/30 6/6/6
f 30/30/30 5/5/5 6/6/6
f 42/42/42 38/38/38 66/66/66
f 66/66/66 12/12/12 67/67/67
f 66/66/66 38/38/38 12/12/12
f 38/38/38 10/10/10 12/12/12
f 53/53/53 45/45/45 51/51/51
f 51/51/51 18/18/18 19/19/19
f 51/51/51 45/45/45 18/18/18
f 45/45/45 43/43/43 18/18/18
f 68/68/68 69/69/69 58/58/58
f 58/58/58 23/23/23 25/25/25
f 58/58/58 69/69/69 23/23/23
f 69/69/69 22/22/22 23/23/23
f 31/31/31 70/70/70 29/29/29
f 29/29/29 28/28/28 5/5/5
f 29/29/29 70/70/70 28/28/28
f 70/70/70 71/71/71 28/28/28
f 72/72/72 74/74/74 73/73/73
f 73/73/73 40/40/40 47/47/47
f 73/73/73 74/74/74 40/40/40
f 74/74/74 36/36/36 40/40/40
f 72/72/72 73/73/73 75/75/75
f 75/75/75 48/48/48 50/50/50
f 75/75/75 73/73/73 48/48/48
f 73/73/73 47/47/47 48/48/48
f 72/72/72 75/75/75 76/76/76
f 76/76/76 56/56/56 57/57/57
f 76/76/76 75/75/75 56/56/56
f 75/75/75 50/50/50 56/56/56
f 72/72/72 76/76/76 77/77/77
f 77/77/77 61/61/61 64/64/64
f 77/77/77 76/76/76 61/61/61
f 76/76/76 57/57/57 61/61/61
f 72/72/72 77/77/77 74/74/74
f 74/74/74 34/34/34 36/36/36
f 74/74/74 77/77/77 34/34/34
f 77/77/77 64/64/64 34/34/34
f 78/78/78 80/80/80 79/79/79
f 81/81/81 83/83/83 82/82/82
f 84/84/84 86/86/86 85/85/85
f 84/84/84 87/87/87 86/86/86
f 84/84/84 88/88/88 87/87/87
f 79/79/79 90/90/90 89/89/89
f 82/82/82 92/92/92 91/91/91
f 93/93/93 95/95/95 94/94/94
f 96/96/96 97/97/97 95/95/95
f 98/98/98 100/100/100 99/99/99
f 90/90/90 79/79/79 80/80/80
f 92/92/92 82/82/82 83/83/83
f 95/95/95 93/93/93 96/96/96
f 99/99/99 101/101/101 98/98/98
f 89/89/89 102/102/102 79/79/79
f 103/103/103 105/105/105 104/104/104
f 103/103/103 104/104/104 106/106/106
f 103/103/103 106/106/106 107/107/107
f 103/103/103 107/107/107 108/108/108
f 103/103/103 108/108/108 105/105/105
f 109/109/109 111/111/111 110/110/110
f 112/112/112 114/114/114 113/113/113
f 115/115/115 117/117/117 116/116/116
f 115/115/115 116/116/116 118/118/118
f 115/115/115 118/118/118 119/119/119
f 111/111/111 121/121/121 120/120/120
f 114/114/114 123/123/123 122/122/122
f 124/124/124 126/126/126 125/125/125
f 127/127/127 125/125/125 128/128/128
f 129/129/129 131/131/131 130/130/130
f 120/120/120 110/110/110 111/111/111
f 122/122/122 113/113/113 114/114/114
f 125/125/125 127/127/127 124/124/124
f 131/131/131 129/129/129 132/132/132
f 121/121/121 111/111/111 133/133/133
f 134/134/134 136/136/136 135/135/135
f 134/134/134 137/137/137 136/136/136
f 134/134/134 138/138/138 137/137/137
f 134/134/134 139/139/139 138/138/138
f 134/134/134 135/135/135 139/139/139
f 140/140/140 142/142/142 141/141/141
f 143/143/143 145/145/145 144/144/144
f 146/146/146 148/148/148 147/147/147
f 146/146/146 149/149/149 148/148/148
f 146/146/146 150/150/150 149/149/149
f 141/141/141 152/152/152 151/151/151
f 144/144/144 154/154/154 153/153/153
f 155/155/155 157/157/157 156/156/156
f 158/158/158 159/159/159 157/157/157
f 160/160/160 162/162/162 161/161/161
f 152/152/152 141/141/141 142/142/142
f 154/154/154 144/144/144 145/145/145
f 157/157/157 155/155/155 158/158/158
f 161/161/161 163/163/163 160/160/160
f 151/151/151 164/164/164 141/141/141
f 165/165/165 167/167/167 166/166/166
f 165/165/165 166/166/166 168/168/168
f 165/165/165 168/168/168 169/169/169
f 165/165/165 169/169/169 170/170/170
f 165/165/165 170/170/170 167/167/167
f 171/171/171 173/173/173 172/172/172
f 174/174/174 176/176/176 175/175/175
f 177/177/177 179/179/179 178/178/178
f 177/177/177 178/178/178 180/180/180
f 177/177/177 180/180/180 181/181/181
f 173/173/173 183/183/183 182/182/182
f 176/176/176 185/185/185 184/184/184
f 186/186/186 188/188/188 187/187/187
f 189/189/189 187/187/187 190/190/190
f 191/191/191 193/193/193 192/192/192
f 182/182/182 172/172/172 173/173/173
f 184/184/184 175/175/175 176/176/176
f 187/187/187 189/189/189 186/186/186
f 193/193/193 191/191/191 194/194/194
f 183/183/183 173/173/173 195/195/195
f 196/196/196 198/198/198 197/197/197
f 196/196/196 199/199/199 198/198/198
f 196/196/196 200/200/200 199/199/199
f 196/196/196 201/201/201 200/200/200
f 196/196/196 197/197/197 201/201/201
f 202/202/202 204/204/204 203/203/203
f 205/205/205 207/207/207 206/206/206
f 208/208/208 210/210/210 209/209/209
f 208/208/208 211/211/211 210/210/210
f 208/208/208 212/212/212 211/211/211
f 203/203/203 214/214/214 213/213/213
f 206/206/206 216/216/216 215/215/215
f 217/217/217 219/219/219 218/218/218
f 220/220/220 221/221/221 219/219/219
f 222/222/222 224/224/224 223/223/223
f 214/214/214 203/203/203 204/204/204
f 216/216/216 206/206/206 207/207/207
f 219/219/219 217/217/217 220/220/220
f 223/223/223 225/225/225 222/222/222
f 213/213/213 226/226/226 203/203/203
f 227/227/227 229/229/229 228/228/228
f 227/227/227 228/228/228 230/230/230
f 227/227/227 230/230/230 231/231/231
f 227/227/227 231/231/231 232/232/232
f 227/227/227 232/232/232 229/229/229
f 233/233/233 235/235/235 234/234/234
f 236/236/236 238/238/238 237/237/237
f 239/239/239 241/241/241 240/240/240
f 239/239/239 242/242/242 241/241/241
f 239/239/239 243/243/243 242/242/242
f 234/234/234 245/245/245 244/244/244
f 237/237/237 247/247/247 246/246/246
f 248/248/248 250/250/250 249/249/249
f 251/251/251 252/252/252 250/250/250
f 253/253/253 255/255/255 254/254/254
f 245/245/245 234/234/234 235/235/235
f 247/247/247 237/237/237 238/238/238
f 250/250/250 248/248/248 251/251/251
f 254/254/254 256/256/256 253/253/253
f 244/244/244 257/257/257 234/234/234
f 258/258/258 260/260/260 259/259/259
f 258/258/258 259/259/259 261/261/261
f 258/258/258 261/261/261 262/262/262
f 258/258/258 262/262/262 263/263/263
f 258/258/258 263/263/263 260/260/260
f 264/264/264 266/266/266 265/265/265
f 267/267/267 269/269/269 268/268/268
f 270/270/270 272/272/272 271/271/271
f 270/270/270 273/273/273 272/272/272
f 270/270/270 274/274/274 273/273/273
f 265/265/265 276/276/276 275/275/275
f 268/268/268 278/278/278 277/277/277
f 279/279/279 281/281/281 280/280/280
f 282/282/282 283/283/283 281/281/281
f 284/284/284 286/286/286 285/285/285
f 276/276/276 265/265/265 266/266/266
f 278/278/278 268/268/268 269/269/269
f 281/281/281 279/279/279 282/282/282
f 285/285/285 287/287/287 284/284/284
f 275/275/275 288/288/288 265/265/265
f 289/289/289 291/291/291 290/290/290
f 289/289/289 290/290/290 292/292/292
f 289/289/289 292/292/292 293/293/293
f 289/289/289 293/293/293 294/294/294
f 289/289/289 294/294/294 291/291/291
f 295/295/295 297/297/297 296/296/296
f 298/298/298 300/300/300 299/299/299
f 301/301/301 303/303/303 302/302/302
f 301/301/301 302/302/302 304/304/304
f 301/301/301 304/304/304 305/305/305
f 297/297/297 307/307/307 306/306/306
f 300/300/300 309/309/309 308/308/308
f 310/310/310 312/312/312 311/311/311
f 313/313/313 311/311/311 314/314/314
f 315/315/315 317/317/317 316/316/316
f 306/306/306 296/296/296 297/297/297
f 308/308/308 299/299/299 300/300/300
f 311/311/311 313/313/313 310/310/310
f 317/317/317 315/315/315 318/318/318
f 307/307/307 297/297/297 319/319/319
f 320/320/320 322/322/322 321/321/321
f 320/320/320 323/323/323 322/322/322
f 320/320/320 324/324/324 323/323/323
f 320/320/320 325/325/325 324/324/324
f 320/320/320 321/321/321 325/325/325
f 326/326/326 328/328/328 327/327/327
f 329/329/329 331/331/331 330/330/330
f 332/332/332 334/334/334 333/333/333
f 332/332/332 333/333/333 335/335/335
f 332/332/332 335/335/335 336/336/336
f 328/328/328 338/338/338 337/337/337
f 331/331/331 340/340/340 339/339/339
f 341/341/341 343/343/343 342/342/342
f 344/344/344 342/342/342 345/345/345
f 346/346/346 348/348/348 347/347/347
f 337/337/337 327/327/327 328/328/328
f 339/339/339 330/330/330 331/331/331
f 342/342/342 344/344/344 341/341/341
f 348/348/348 346/346/346 349/349/349
f 338/338/338 328/328/328 350/350/350
f 351/351/351 353/353/353 352/352/352
f 351/351/351 354/354/354 353/353/353
f 351/351/351 355/355/355 354/354/354
f 351/351/351 356/356/356 355/355/355
f 351/351/351 352/352/352 356/356/356
f 357/357/357 359/359/359 358/358/358
f 360/360/360 362/362/362 361/361/361
f 363/363/363 365/365/365 364/364/364
f 363/363/363 366/366/366 365/365/365
f 363/363/363 367/367/367 366/366/366
f 358/358/358 369/369/369 368/368/368
f 361/361/361 371/371/371 370/370/370
f 372/372/372 374/374/374 373/373/373
f 375/375/375 376/376/376 374/374/374
f 377/377/377 379/379/379 378/378/378
f 369/369/369 358/358/358 359/359/359
f 371/371/371 361/361/361 362/362/362
f 374/374/374 372/372/372 375/375/375
f 378/378/378 380/380/380 377/377/377
f 368/368/368 381/381/381 358/358/358
f 382/382/382 384/384/384 383/383/383
f 382/382/382 383/383/383 385/385/385
f 382/382/382 385/385/385 386/386/386
f 382/382/382 386/386/386 387/387/387
f 382/382/382 387/387/387 384/384/384
f 388/388/388 390/390/390 389/389/389
f 391/391/391 393/393/393 392/392/392
f 394/394/394 396/396/396 395/395/395
f 394/394/394 397/397/397 396/396/396
f 394/394/394 398/398/398 397/397/397
f 389/389/389 400/400/400 399/399/399
f 392/392/392 402/402/402 401/401/401
f 403/403/403 405/405/405 404/404/404
f 406/406/406 407/407/407 405/405/405
f 408/408/408 410/410/410 409/409/409
f 400/400/400 389/389/389 390/390/390
f 402/402/402 392/392/392 393/393/393
f 405/405/405 403/403/403 406/406/406
f 409/409/409 411/411/411 408/408/408
f 399/399/399 412/412/412 389/389/389
f 413/413/413 415/415/415 414/414/414
f 413/413/413 414/414/414 416/416/416
f 413/413/413 416/416/416 417/417/417
f 413/413/413 417/417/417 418/418/418
f 413/413/413 418/418/418 415/415/415
f 419/419/419 421/421/421 420/420/420
f 422/422/422 424/424/424 423/423/423
f 425/425/425 427/427/427 426/426/426
f 425/425/425 426/426/426 428/428/428
f 425/425/425 428/428/428 429/429/429
f 421/421/421 431/431/431 430/430/430
f 424/424/424 433/433/433 432/432/432
f 434/434/434 436/436/436 435/435/435
f 437/437/437 435/435/435 438/438/438
f 439/439/439 441/441/441 440/440/440
f 430/430/430 420/420/420 421/421/421
f 432/432/432 423/423/423 424/424/424
f 435/435/435 437/437/437 434/434/434
f 441/441/441 439/439/439 442/442/442
f 431/431/431 421/421/421 443/443/443
f 444/444/444 446/446/446 445/445/445
f 444/444/444 447/447/447 446/446/446
f 444/444/444 448/448/448 447/447/447
f 444/444/444 449/449/449 448/448/448
f 444/444/444 445/445/445 449/449/449
f 450/450/450 452/452/452 451/451/451
f 453/453/453 455/455/455 454/454/454
f 456/456/456 458/458/458 457/457/457
f 456/456/456 457/457/457 459/459/459
f 456/456/456 459/459/459 460/460/460
f 452/452/452 462/462/462 461/461/461
f 455/455/455 464/464/464 463/463/463
f 465/465/465 467/467/467 466/466/466
f 468/468/468 466/466/466 469/469/469
f 470/470/470 472/472/472 471/471/471
f 461/461/461 451/451/451 452/452/452
f 463/463/463 454/454/454 455/455/455
f 466/466/466 468/468/468 465/465/465
f 472/472/472 470/470/470 473/473/473
f 462/462/462 452/452/452 474/474/474
f 475/475/475 477/477/477 476/476/476
f 475/475/475 478/478/478 477/477/477
f 475/475/475 479/479/479 478/478/478
f 475/475/475 480/480/480 479/479/479
f 475/475/475 476/476/476 480/480/480
f 481/481/481 483/483/483 482/482/482
f 484/484/484 486/486/486 485/485/485
f 487/487/487 489/489/489 488/488/488
f 487/487/487 490/490/490 489/489/489
f 487/487/487 491/491/491 490/490/490
f 482/482/482 493/493/493 492/492/492
f 485/485/485 495/495/495 494/494/494
f 496/496/496 498/498/498 497/497/497
f 499/499/499 500/500/500 498/498/498
f 501/501/501 503/503/503 502/502/502
f 493/493/493 482/482/482 483/483/483
f 495/495/495 485/485/485 486/486/486
f 498/498/498 496/496/496 499/499/499
f 502/502/502 504/504/504 501/501/501
f 492/492/492 505/505/505 482/482/482
f 506/506/506 508/508/508 507/507/507
f 506/506/506 507/507/507 509/509/509
f 506/506/506 509/509/509 510/510/510
f 506/506/506 510/510/510 511/511/511
f 506/506/506 511/511/511 508/508/508
f 512/512/512 514/514/514 513/513/513
f 515/515/515 517/517/517 516/516/516
f 518/518/518 520/520/520 519/519/519
f 518/518/518 521/521/521 520/520/520
f 518/518/518 522/522/522 521/521/521
f 513/513/513 524/524/524 523/523/523
f 516/516/516 526/526/526 525/525/525
f 527/527/527 529/529/529 528/528/528
f 530/530/530 531/531/531 529/529/529
f 532/532/532 534/534/534 533/533/533
f 524/524/524 513/513/513 514/514/514
f 526/526/526 516/516/516 517/517/517
f 529/529/529 527/527/527 530/530/530
f 533/533/533 535/535/535 532/532/532
f 523/523/523 536/536/536 513/513/513
f 537/537/537 539/539/539 538/538/538
f 537/537/537 538/538/538 540/540/540
f 537/537/537 540/540/540 541/541/541
f 537/537/537 541/541/541 542/542/542
f 537/537/537 542/542/542 539/539/539
f 543/543/543 545/545/545 544/544/544
f 546/546/546 548/548/548 547/547/547
f 549/549/549 551/551/551 550/550/550
f 549/549/549 550/550/550 552/552/552
f 549/549/549 552/552/552 553/553/553
f 545/545/545 555/555/555 554/554/554
f 548/548/548 557/557/557 556/556/556
f 558/558/558 560/560/560 559/559/559
f 561/561/561 559/559/559 562/562/562
f 563/563/563 565/565/565 564/564/564
f 554/554/554 544/544/544 545/545/545
f 556/556/556 547/547/547 548/548/548
f 559/559/559 561/561/561 558/558/558
f 565/565/565 563/563/563 566/566/566
f 555/555/555 545/545/545 567/567/567
f 568/568/568 570/570/570 569/569/569
f 568/568/568 571/571/571 570/570/570
f 568/568/568 572/572/572 571/571/571
f 568/568/568 573/573/573 572/572/572
f 568/568/568 569/569/569 573/573/573
f 574/574/574 576/576/576 575/575/575
f 577/577/577 579/579/579 578/578/578
f 580/580/580 582/582/582 581/581/581
f 580/580/580 581/581/581 583/583/583
f 580/580/580 583/583/583 584/584/584
f 576/576/576 586/586/586 585/585/585
f 579/579/579 588/588/588 587/587/587
f 589/589/589 591/591/591 590/590/590
f 592/592/592 590/590/590 593/593/593
f 594/594/594 596/596/596 595/595/595
f 585/585/585 575/575/575 576/576/576
f 587/587/587 578/578/578 579/579/579
f 590/590/590 592/592/592 589/589/589
f 596/596/596 594/594/594 597/597/597
f 586/586/586 576/576/576 598/598/598
f 599/599/599 601/601/601 600/600/600
f 599/599/599 602/602/602 601/601/601
f 599/599/599 603/603/603 602/602/602
f 599/599/599 604/604/604 603/603/603
f 599/599/599 600/600/600 604/604/604
f 605/605/605 607/607/607 606/606/606
f 608/608/608 610/610/610 609/609/609
f 611/611/611 613/613/613 612/612/612
f 611/611/611 614/614/614 613/613/613
f 611/611/611 615/615/615 614/614/614
f 606/606/606 617/617/617 616/616/616
f 609/609/609 619/619/619 618/618/618
f 620/620/620 622/622/622 621/621/621
f 623/623/623 624/624/624 622/622/622
f 625/625/625 627/627/627 626/626/626
f 617/617/617 606/606/606 607/607/607
f 619/619/619 609/609/609 610/610/610
f 622/622/622 620/620/620 623/623/623
f 626/626/626 628/628/628 625/625/625
f 616/616/616 629/629/629 606/606/606
f 630/630/630 632/632/632 631/631/631
f 630/630/630 631/631/631 633/633/633
f 630/630/630 633/633/633 634/634/634
f 630/630/630 634/634/634 635/635/635
f 630/630/630 635/635/635 632/632/632
f 636/636/636 638/638/638 637/637/637
f 639/639/639 641/641/641 640/640/640
f 642/642/642 644/644/644 643/643/643
f 642/642/642 645/645/645 644/644/644
f 642/642/642 646/646/646 645/645/645
f 637/637/637 648/648/648 647/647/647
f 640/640/640 650/650/650 649/649/649
f 651/651/651 653/653/653 652/652/652
f 654/654/654 655/655/655 653/653/653
f 656/656/656 658/658/658 657/657/657
f 648/648/648 637/637/637 638/638/638
f 650/650/650 640/640/640 641/641/641
f 653/653/653 651/651/651 654/654/654
f 657/657/657 659/659/659 656/656/656
f 647/647/647 660/660/660 637/637/637
f 661/661/661 663/663/663 662/662/662
f 661/661/661 662/662/662 664/664/664
f 661/661/661 664/664/664 665/665/665
f 661/661/661 665/665/665 666/666/666
f 661/661/661 666/666/666 663/663/663
