# Monster36.bmd — MU geometry at action 0 key 0, exported for MU2
# 2 mesh(es)

g gp01
# texture: gp01.jpg
v 4.406371 160.0679 9.991315
v -8.785536 153.1424 5.920419
v 5.921865 156.8798 6.424359
v -13.11528 162.95 8.824523
v -1.960253 172.323 10.31196
v 4.406371 160.0679 9.991315
v 8.525262 165.4508 6.984677
v -1.960253 172.323 10.31196
v -13.78705 168.8965 7.184115
v 5.921865 156.8798 6.424359
v 12.37998 155.2903 -4.474747
v 12.15369 160.3164 -2.736021
v 21.94222 60.82211 20.65353
v 25.31247 70.68044 23.81386
v 30.17886 70.19887 26.07522
v 34.14064 64.82541 27.13691
v 12.15369 160.3164 -2.736021
v 12.61793 163.3452 -13.1112
v 13.55714 173.0381 -9.168343
v 12.37998 155.2903 -4.474747
v 1.063372 173.667 -20.92595
v 2.645849 180.083 -12.67535
v -3.451858 145.8327 0.088071
v 5.709958 146.9502 -0.553482
v 5.709958 146.9502 -0.553482
v 8.236391 149.2088 3.8392
v 6.273984 145.0621 -16.4813
v 8.761848 145.1129 -6.450527
v 8.236391 149.2088 3.8392
v 16.14927 168.387 -0.249453
v -2.871651 181.7395 2.012165
v -7.42278 179.8432 3.460118
v 7.210107 173.3711 9.08302
v -2.871651 181.7395 2.012165
v 16.14927 168.387 -0.249453
v 13.32766 183.3647 -1.359691
v 8.308585 186.4581 -3.509223
v -2.871651 181.7395 2.012165
v 4.54885 145.8096 5.466858
v 10.94266 143.604 4.309106
v -3.451858 145.8327 0.088071
v -5.499027 143.5847 4.714732
v 3.913516 139.8609 -9.913782
v 12.02464 139.2681 -4.019656
v 5.114375 135.8186 -10.0945
v 10.94266 143.604 4.309106
v 1.192463 172.4105 1.597586
v 3.892114 181.258 5.24393
v 17.12063 169.1618 2.575588
v 2.66783 162.7465 9.2716
v 7.210107 173.3711 9.08302
v 1.192463 172.4105 1.597586
v 9.321535 173.3874 12.37438
v 3.892114 181.258 5.24393
v 13.32766 183.3647 -1.359691
v 17.12063 169.1618 2.575588
v 2.66783 162.7465 9.2716
v 16.14927 168.387 -0.249453
v 7.850415 160.3547 1.035936
v 1.192463 172.4105 1.597586
v 9.264824 165.8282 14.56821
v 17.12063 169.1618 2.575588
v 17.08727 162.2582 7.962044
v 17.08727 162.2582 7.962044
v 8.574999 148.7557 13.34026
v 4.082893 152.2647 16.97711
v 9.435431 154.757 20.57615
v 4.082893 152.2647 16.97711
v 13.87346 151.9331 16.08794
v 13.87346 151.9331 16.08794
v 7.584234 148.3409 13.89289
v 5.855164 154.729 15.96773
v 9.086336 153.3832 21.73074
v 5.855164 154.729 15.96773
v 11.71787 147.6231 19.41557
v 11.71787 147.6231 19.41557
v 2.264109 144.7587 15.56389
v 0.185759 153.3541 18.71257
v 4.201903 151.2634 25.67473
v 0.185759 153.3541 18.71257
v 7.748814 144.1875 23.1603
v 7.748814 144.1875 23.1603
v -8.399977 139.5985 22.97679
v -9.348856 145.209 25.04932
v -7.211073 143.589 29.17975
v -9.348856 145.209 25.04932
v -4.708952 139.5853 27.77794
v -4.708952 139.5853 27.77794
v -7.061955 189.7502 -1.209593
v -7.42278 179.8432 3.460118
v -7.327195 192.9169 -10.6124
v -7.42278 179.8432 3.460118
v -7.844964 178.9878 -7.929889
v -7.327195 192.9169 -10.6124
v -1.373568 184.3486 -7.883272
v -4.815812 183.778 -15.46743
v -1.373568 184.3486 -7.883272
v -4.815812 183.778 -15.46743
v -13.89089 192.1709 -15.95765
v -2.871651 181.7395 2.012165
v -7.42278 179.8432 3.460118
v -11.00511 175.3546 -0.710958
v -13.78705 168.8965 7.184115
v 5.977376 138.7918 11.56403
v 13.14022 138.7892 7.835021
v -6.987273 136.4987 10.65416
v 16.08185 131.357 -0.525836
v 13.14022 138.7892 7.835021
v -2.401215 128.7747 15.44068
v -3.479156 126.0514 9.483157
v 0.413002 120.1652 9.361223
v 5.836169 122.3502 24.08639
v 5.977376 138.7918 11.56403
v -2.401215 128.7747 15.44068
v 14.11992 130.9763 13.24448
v -3.479156 126.0514 9.483157
v 4.095485 122.7298 -2.13543
v 12.96821 121.0531 0.204929
v 0.413002 120.1652 9.361223
v 6.834907 125.052 -8.002398
v 14.11992 130.9763 13.24448
v 14.11992 130.9763 13.24448
v 15.81967 121.152 18.56462
v 16.08185 131.357 -0.525836
v 0.413002 120.1652 9.361223
v 3.164767 113.2905 13.71294
v 7.608739 101.953 20.44699
v 14.11992 130.9763 13.24448
v 15.81967 121.152 18.56462
v 7.608739 101.953 20.44699
v 12.96821 121.0531 0.204929
v 16.96923 115.3651 8.596268
v 3.164767 113.2905 13.71294
v 0.413002 120.1652 9.361223
v 7.067632 110.407 28.97713
v 15.60554 106.5703 25.65615
v 15.62933 100.9884 19.84045
v 15.60554 106.5703 25.65615
v 13.44693 94.91424 29.60216
v 8.522221 100.3545 21.65234
v 10.64674 91.96596 22.54804
v 8.541997 100.8944 33.43915
v 15.67679 103.7672 26.89297
v 20.87832 96.53558 27.76966
v 10.64674 91.96596 22.54804
v 19.48568 96.16372 17.61592
v 8.522221 100.3545 21.65234
v 15.67679 103.7672 26.89297
v 20.87832 96.53558 27.76966
v 16.20961 82.61579 23.68485
v 17.64674 84.93951 30.05207
v 22.33523 85.82463 26.74102
v 22.50294 82.67023 22.18639
v 16.20961 82.61579 23.68485
v 22.33523 85.82463 26.74102
v 16.98122 77.30721 35.60577
v 17.85796 73.39484 26.99212
v 25.81069 75.95899 31.1969
v 24.29182 74.31229 23.5346
v 17.85796 73.39484 26.99212
v 25.81069 75.95899 31.1969
v 25.26213 52.70329 20.97501
v 21.94222 60.82211 20.65353
v 30.74642 54.97919 30.84546
v 21.94222 60.82211 20.65353
v 25.31247 70.68044 23.81386
v 30.17886 70.19887 26.07522
v 30.17886 70.19887 26.07522
v 34.14064 64.82541 27.13691
v 37.63092 57.77406 27.70917
v 42.1488 49.07001 30.54528
v 34.75427 29.25912 34.76445
v 26.71393 43.16945 22.30857
v 25.49294 52.55099 28.53712
v 37.63092 57.77406 27.70917
v 36.71192 47.10101 31.51406
v 27.41699 43.73888 27.15239
v 34.75427 29.25912 34.76445
v 25.26213 52.70329 20.97501
v 26.71393 43.16945 22.30857
v 27.08385 28.52831 29.68292
v 27.08385 28.52831 29.68292
v 47.84248 28.38057 44.43522
v 42.1488 49.07001 30.54528
v 47.84248 28.38057 44.43522
v -4.654782 195.5301 3.627037
v -7.639786 198.8523 -4.492992
v -9.096813 202.1307 7.982662
v -4.654782 195.5301 3.627037
v -9.096813 202.1307 7.982662
v -8.097621 208.3059 10.39111
v -8.097621 208.3059 10.39111
v -7.1928 193.4036 10.47581
v -6.967118 189.0048 5.181459
v -4.752399 195.6009 -8.378128
v -7.742523 198.7002 -18.90188
v -7.967288 203.8927 -7.28596
v -14.76363 206.8837 -13.40093
v -14.41883 204.1278 9.440491
v -14.41883 204.1278 9.440491
v -14.65849 208.5442 13.08182
v -14.65849 208.5442 13.08182
v -13.6923 193.108 16.89575
v -13.20577 184.118 9.31074
v -13.24519 183.8608 2.233017
v -14.43988 199.3104 -30.86357
v -7.967288 203.8927 -7.28596
v -10.86103 198.6717 -11.9799
v -14.76363 206.8837 -13.40093
v -7.639786 198.8523 -4.492992
v -10.86103 198.6717 -11.9799
v -11.00511 175.3546 -0.710958
v 2.645849 180.083 -12.67535
v 1.063372 173.667 -20.92595
v 3.517164 180.4465 -21.65705
v 1.877256 176.7424 -23.79615
v -4.815812 183.778 -15.46743
v -0.362967 182.6526 -22.68852
v 7.978518 181.4637 -36.64999
v 9.618425 185.1679 -34.51097
v 5.738294 187.3739 -35.54236
v 15.5088 184.3569 -51.12791
v 16.54095 186.0479 -50.70746
v 15.10415 187.0689 -51.705
v 22.98245 181.5614 -62.81947
v 8.761848 145.1129 -6.450527
v 5.90758 137.5945 -12.31468
v 8.786215 138.8376 -13.12684
v 3.913516 139.8609 -9.913782
v 6.273984 145.0621 -16.4813
v 7.746784 139.0176 -16.18928
v 10.65498 129.679 -16.83996
v 13.18845 130.5675 -16.88354
v 11.97597 130.2806 -19.42418
v 14.53682 119.9254 -18.98943
v 13.32766 183.3647 -1.359691
v 8.308585 186.4581 -3.509223
v 8.513755 192.1017 0.086083
v 7.572917 191.0393 -4.45205
v 3.892114 181.258 5.24393
v 2.819871 190.865 2.29622
v 6.499797 199.9508 -7.294327
v 7.253695 201.385 -4.157056
v 3.84019 201.8255 -3.622921
v 10.12465 207.4583 -16.64811
v 10.71673 208.7504 -15.40822
v 9.347079 209.5395 -16.23398
v 18.36714 208.0515 -30.08049
v -0.315329 186.5355 0.074096
v -0.315329 186.5355 0.074096
v 3.892114 181.258 5.24393
v 3.065639 200.3241 -6.664991
v 8.738383 208.2328 -17.43348
v -27.82873 142.0447 35.97976
v -28.1315 138.4225 27.87268
v -29.15218 136.7089 29.96472
v -29.261 139.5589 36.25122
v -27.82873 142.0447 35.97976
v -29.261 139.5589 36.25122
v -19.98935 136.1734 36.40105
v -16.61007 138.5365 36.01759
v -12.80436 134.6183 35.40649
v -8.841792 140.6779 33.36692
v -7.61832 135.3935 29.69351
v -8.841792 140.6779 33.36692
v -29.15218 136.7089 29.96472
v -28.1315 138.4225 27.87268
v -18.69191 134.8119 26.90759
v -21.56618 133.2152 29.42666
v -14.40571 131.7533 28.39885
v -10.92363 136.9535 24.25688
v -10.92363 136.9535 24.25688
v -17.65102 136.6741 31.46265
v -18.69191 134.8119 26.90759
v -16.61007 138.5365 36.01759
v -23.03149 143.5327 32.32031
v -22.44647 144.5795 34.88068
v -20.26044 145.7717 33.89377
v -20.84546 144.7249 31.33341
v -13.28095 145.5557 32.38708
v -16.52731 141.9163 34.61685
v -17.22672 140.6648 31.55591
v -13.9805 144.3042 29.32615
v -20.40181 153.3349 -4.257293
v -16.89358 150.6875 -6.679744
v -22.6981 166.6947 -1.598815
v -21.77323 157.2277 -10.41726
v -20.40181 153.3349 -4.257293
v -22.6981 166.6947 -1.598815
v -16.89358 150.6875 -6.679744
v -13.37372 153.3881 -17.39781
v -10.10317 149.1883 -17.38799
v -10.81078 66.35628 29.77689
v -21.81488 70.48724 22.92072
v -17.88862 73.31036 25.29616
v -22.88073 63.83443 22.37276
v -13.37372 153.3881 -17.39781
v -13.62563 165.6605 -24.78081
v -6.250962 158.224 -23.94862
v -10.10317 149.1883 -17.38799
v -8.843026 176.965 -19.27405
v -7.252513 143.4322 -7.998557
v -7.252513 143.4322 -7.998557
v -12.79471 143.5009 -8.23992
v -3.012428 141.9173 -13.21312
v -12.79471 143.5009 -8.23992
v -20.22807 158.514 -21.14279
v -19.15962 177.3188 -7.342888
v -17.67733 177.0601 -2.429547
v -19.15962 177.3188 -7.342888
v -25.99477 164.3593 -9.988171
v -20.22807 158.514 -21.14279
v -23.91272 173.2576 -22.74872
v -21.21683 178.4448 -20.46726
v -19.15962 177.3188 -7.342888
v -11.24509 141.523 -3.604456
v -12.16178 137.3334 -8.9609
v -4.128128 134.8842 -13.29695
v -12.16178 137.3334 -8.9609
v -24.23247 158.8525 -13.03022
v -24.49277 173.5542 -11.05897
v -18.03825 167.7122 -25.21021
v -28.06801 153.8515 -23.74189
v -24.23247 158.8525 -13.03022
v -25.99477 164.3593 -9.988171
v -24.49277 173.5542 -11.05897
v -30.82551 166.3799 -22.14301
v -23.91272 173.2576 -22.74872
v -18.03825 167.7122 -25.21021
v -28.06801 153.8515 -23.74189
v -18.14587 154.8425 -24.72899
v -20.22807 158.514 -21.14279
v -24.23247 158.8525 -13.03022
v -30.92745 161.2076 -28.07541
v -21.1209 163.374 -32.16383
v -18.03825 167.7122 -25.21021
v -21.1209 163.374 -32.16383
v -25.9011 148.4543 -38.34911
v -31.75347 148.2303 -34.96992
v -33.45278 154.1162 -38.17654
v -31.75347 148.2303 -34.96992
v -27.0365 154.6959 -40.6883
v -27.0365 154.6959 -40.6883
v -25.02131 150.61 -37.56035
v -27.31954 157.1503 -37.7754
v -33.40617 154.6241 -39.20211
v -27.31954 157.1503 -37.7754
v -31.07821 148.357 -40.07845
v -31.07821 148.357 -40.07845
v -25.45689 149.1066 -31.12009
v -28.94134 157.8112 -31.57071
v -36.27329 154.2849 -33.23802
v -28.94134 157.8112 -31.57071
v -33.79013 146.4677 -34.5415
v -33.79013 146.4677 -34.5415
v -30.49435 147.8942 -18.14108
v -32.8543 153.4314 -18.80706
v -37.13018 151.071 -19.44035
v -32.8543 153.4314 -18.80706
v -35.829 146.4723 -20.62964
v -35.829 146.4723 -20.62964
v -20.14766 188.9561 -1.107782
v -20.4129 192.1229 -10.5107
v -17.67733 177.0601 -2.429547
v -17.67733 177.0601 -2.429547
v -20.4129 192.1229 -10.5107
v -12.7065 181.2728 -14.39239
v -12.7065 181.2728 -14.39239
v -19.15962 177.3188 -7.342888
v -17.67733 177.0601 -2.429547
v -14.12818 133.335 0.016403
v -14.11932 131.3909 -7.821425
v -5.652272 125.4583 -13.0087
v -14.11932 131.3909 -7.821425
v -10.93757 133.9784 11.29877
v -5.7339 124.3963 11.62521
v -21.33355 125.7204 14.05662
v -10.93757 133.9784 11.29877
v -14.12818 133.335 0.016403
v -17.64477 125.6271 -1.658385
v -4.323726 116.0189 -1.416677
v -5.7339 124.3963 11.62521
v -17.64477 125.6271 -1.658385
v -17.64477 125.6271 -1.658385
v -5.652272 125.4583 -13.0087
v -21.39547 117.8893 5.674187
v -9.670937 118.1854 16.06326
v -5.7339 124.3963 11.62521
v -15.73979 107.9143 23.2263
v -17.64477 125.6271 -1.658385
v -21.39547 117.8893 5.674187
v -15.73979 107.9143 23.2263
v -12.51888 110.7739 3.493295
v -4.323726 116.0189 -1.416677
v -5.7339 124.3963 11.62521
v -9.670937 118.1854 16.06326
v -24.13527 116.5051 22.73446
v -24.91637 107.855 17.91677
v -19.05089 102.3434 18.36536
v -24.91637 107.855 17.91677
v -24.14296 99.59227 26.61516
v -16.08265 98.53485 26.15817
v -16.68566 106.8296 23.60522
v -26.81142 107.222 29.64977
v -25.32671 106.0607 19.72733
v -26.43192 97.18022 19.5332
v -16.08265 98.53485 26.15817
v -17.10777 97.62795 15.28633
v -16.68566 106.8296 23.60522
v -26.43192 97.18022 19.5332
v -25.32671 106.0607 19.72733
v -16.98432 87.64924 26.7545
v -23.66884 88.87359 28.10558
v -23.25249 87.24464 22.54673
v -18.60184 84.47467 21.35461
v -16.98432 87.64924 26.7545
v -23.25249 87.24464 22.54673
v -25.94247 82.63555 34.84772
v -17.97234 78.87194 31.30033
v -25.86594 76.97062 26.65523
v -18.23694 76.37606 24.3801
v -17.97234 78.87194 31.30033
v -25.86594 76.97062 26.65523
v -10.15553 57.62053 30.32251
v -10.81078 66.35628 29.77689
v -21.61238 56.43921 30.49231
v -10.81078 66.35628 29.77689
v -17.88862 73.31036 25.29616
v -21.81488 70.48724 22.92072
v -21.81488 70.48724 22.92072
v -22.88073 63.83443 22.37276
v -22.8282 55.94749 22.53461
v -22.78719 45.66817 20.88855
v -7.175256 48.2705 30.39587
v -5.483866 32.47398 17.38638
v -16.61605 56.86984 34.19028
v -22.8282 55.94749 22.53461
v -20.32509 45.18348 26.18749
v -5.483866 32.47398 17.38638
v -11.47722 46.68613 32.2024
v -10.15553 57.62053 30.32251
v 0.981943 35.76748 23.09052
v -7.175256 48.2705 30.39587
v 0.981943 35.76748 23.09052
v -15.29424 25.11564 6.652731
v -22.78719 45.66817 20.88855
v -15.29424 25.11564 6.652731
v -23.16068 194.4071 3.770864
v -19.48233 201.5005 8.06342
v -20.72549 198.0583 -4.391307
v -23.16068 194.4071 3.770864
v -21.18333 207.512 10.49289
v -19.48233 201.5005 8.06342
v -20.2785 192.6096 10.5775
v -21.18333 207.512 10.49289
v -20.05272 188.2108 5.283155
v -23.25841 194.478 -8.234328
v -20.82822 197.9061 -18.80016
v -21.053 203.0987 -7.184175
v -21.053 203.0987 -7.184175
v -20.72549 198.0583 -4.391307
v -8.843026 176.965 -19.27405
v -2.002873 178.9484 -24.82755
v 4.09839 183.6697 -37.68139
v 14.07205 185.3778 -52.1255
v -3.012428 141.9173 -13.21312
v 4.868192 137.7743 -15.37718
v 9.270429 129.5042 -19.13388
v -23.91272 173.2576 -22.74872
v -26.42912 182.6181 -19.98347
v -21.21683 178.4448 -20.46726
v -21.90428 183.0391 -21.38231
v -24.49277 173.5542 -11.05897
v -25.33991 183.2223 -13.87744
v -26.01106 192.3568 -23.26273
v -22.56846 192.0615 -23.98968
v -25.16797 193.9526 -20.28385
v -21.12296 200.1091 -33.69528
v -19.35685 199.4569 -33.58075
v -20.17025 201.5284 -33.18723
v -12.09547 199.7838 -47.57669
v -20.51455 181.0533 -11.52737
v -20.51455 181.0533 -11.52737
v -24.49277 173.5542 -11.05897
v -21.76852 193.584 -20.92846
v -18.42445 200.8607 -33.03444
v -21.55881 151.3569 -1.786176
v -20.36048 143.4225 -3.204545
v -19.78224 143.7492 -6.0177
v -21.43195 149.3095 0.237763
v -21.55881 151.3569 -1.786176
v -30.6435 147.8827 -3.011611
v -21.43195 149.3095 0.237763
v -32.81765 149.4689 -5.212809
v -37.31633 147.0316 -7.220318
v -35.75432 151.8039 -12.82091
v -37.78737 145.9271 -14.88149
v -35.75432 151.8039 -12.82091
v -20.36048 143.4225 -3.204545
v -29.15929 141 -9.224224
v -19.78224 143.7492 -6.0177
v -27.94279 141.2913 -6.034934
v -34.50226 140.517 -10.30595
v -32.09609 143.335 -16.83222
v -32.09609 143.335 -16.83222
v -30.9885 145.2345 -7.218532
v -29.15929 141 -9.224224
v -32.81765 149.4689 -5.212809
v -23.89842 149.7273 -4.714294
v -25.31505 153.103 -6.042957
v -24.92659 152.1075 -3.586859
v -24.28687 150.7227 -7.170329
v -29.54343 153.9723 -11.73454
v -30.35507 151.421 -7.088264
v -29.1258 148.5754 -8.436148
v -28.31423 151.1267 -13.0823
vn -0.013598 -0.385747 0.922505
vn -0.234082 -0.65603 0.717517
vn 0.132963 -0.616091 0.776372
vn -0.464361 -0.139891 0.874528
vn 0.403429 0.261771 0.876767
vn 0.719315 -0.172359 0.672963
vn 0.583848 0.370924 0.722175
vn -0.203965 0.340918 0.9177
vn -0.535372 0.30957 0.785839
vn 0.824195 -0.230748 0.517164
vn 0.884214 -0.069075 0.461946
vn 0.954869 -0.215431 0.204487
vn 0.428561 0.13976 -0.892638
vn 0.428583 0.139669 -0.892642
vn 0.428583 0.139669 -0.892642
vn 0.428583 0.139669 -0.892642
vn 0.954869 -0.215431 0.204487
vn 0.926379 0.163934 -0.339039
vn 0.821073 0.115921 -0.558929
vn 0.884214 -0.069075 0.461946
vn 0.518675 -0.11967 -0.846555
vn 0.659275 0.659201 -0.361678
vn -0.201795 -0.701923 0.683069
vn 0.126507 -0.572171 0.810318
vn 0.476943 -0.477181 0.738122
vn 0.72903 0.163075 0.664772
vn 0.535168 -0.304525 -0.787947
vn 0.939881 -0.341294 -0.011894
vn 0.72903 0.163075 0.664772
vn 0.767637 -0.559763 -0.312088
vn -0.035449 0.658914 0.751383
vn -0.196772 0.578415 0.791655
vn -0.334968 0.136895 0.932232
vn -0.267137 0.868639 0.417257
vn 0.767637 -0.559763 -0.312088
vn 0.803209 0.592879 -0.057878
vn 0.28547 0.393736 -0.873773
vn -0.267137 0.868639 0.417257
vn 0.053562 0.448946 0.891952
vn 0.733175 0.550993 0.398574
vn -0.118784 -0.80176 0.585723
vn -0.534729 0.292763 0.792688
vn 0.535993 -0.384393 -0.751634
vn 0.836161 0.267523 -0.478818
vn 0.494494 0.017241 -0.86901
vn 0.733175 0.550993 0.398574
vn -0.40146 -0.242435 0.883207
vn -0.142676 0.408937 0.901341
vn 0.97376 -0.077129 0.21411
vn -0.997419 0.045392 0.055633
vn -0.334968 0.136895 0.932232
vn -0.40146 -0.242435 0.883207
vn 0.093975 0.401225 0.911146
vn -0.142676 0.408937 0.901341
vn 0.803209 0.592879 -0.057878
vn 0.97376 -0.077129 0.21411
vn -0.997419 0.045392 0.055633
vn 0.767637 -0.559763 -0.312088
vn 0.105781 -0.517825 -0.848922
vn -0.40146 -0.242435 0.883207
vn 0.030742 0.415966 0.90886
vn 0.97376 -0.077129 0.21411
vn 0.988819 -0.146889 0.025725
vn 0.988819 -0.146889 0.025725
vn -0.149485 -0.830454 -0.536656
vn -0.133126 0.099905 0.986051
vn 0.065878 0.543778 0.83664
vn -0.133126 0.099905 0.986051
vn 0.942801 -0.322953 0.082631
vn 0.942801 -0.322953 0.082631
vn 0.595983 -0.71284 -0.36968
vn 0.18578 0.848496 -0.49552
vn 0.612085 0.489955 0.620723
vn 0.18578 0.848496 -0.49552
vn 0.770187 -0.526401 0.360158
vn 0.770187 -0.526401 0.360158
vn -0.123912 -0.532953 -0.837023
vn -0.615966 0.740236 -0.26951
vn 0.231654 0.572721 0.786338
vn -0.615966 0.740236 -0.26951
vn 0.611328 -0.687174 0.392519
vn 0.611328 -0.687174 0.392519
vn -0.424569 0.157512 -0.891589
vn -0.806997 0.586562 0.068568
vn 0.231598 0.429795 0.872719
vn -0.806997 0.586562 0.068568
vn 0.611639 -0.786719 0.0835
vn 0.611639 -0.786719 0.0835
vn 0.855125 -0.469755 0.219296
vn 0.216199 0.718506 0.661065
vn 0.919963 -0.268881 -0.285257
vn 0.216199 0.718506 0.661065
vn 0.517678 -0.713145 -0.472688
vn 0.919963 -0.268881 -0.285257
vn 0.617822 0.785277 -0.040444
vn 0.051072 0.849398 -0.525276
vn 0.617822 0.785277 -0.040444
vn 0.051072 0.849398 -0.525276
vn 0.043827 -0.214213 -0.975803
vn -0.267137 0.868639 0.417257
vn 0.216199 0.718506 0.661065
vn -0.494953 0.227647 0.83857
vn -0.467174 0.75792 0.45531
vn 0.122932 0.612496 0.780856
vn 0.800215 0.50674 0.320735
vn -0.509786 0.489916 0.707179
vn 0.936206 0.058125 -0.346611
vn 0.800215 0.50674 0.320735
vn -0.848942 -0.085248 0.521565
vn -0.09446 -0.734608 0.671884
vn -0.793427 -0.53065 -0.298136
vn 0.163159 0.489763 0.856453
vn 0.122932 0.612496 0.780856
vn -0.848942 -0.085248 0.521565
vn 0.697917 0.455603 0.552574
vn -0.09446 -0.734608 0.671884
vn 0.258825 -0.96291 0.076255
vn 0.003304 -0.743165 -0.6691
vn -0.793427 -0.53065 -0.298136
vn 0.491378 -0.562861 -0.664632
vn 0.697917 0.455603 0.552574
vn 0.697917 0.455603 0.552574
vn 0.911558 0.220258 0.347202
vn 0.936206 0.058125 -0.346611
vn -0.793427 -0.53065 -0.298136
vn -0.779136 -0.521733 -0.347481
vn -0.678517 -0.616736 -0.399064
vn 0.697917 0.455603 0.552574
vn 0.911558 0.220258 0.347202
vn -0.678517 -0.616736 -0.399064
vn 0.003304 -0.743165 -0.6691
vn 0.776432 -0.408464 -0.479907
vn -0.779136 -0.521733 -0.347481
vn -0.793427 -0.53065 -0.298136
vn -0.499787 0.203044 0.842013
vn 0.756479 0.291411 0.585508
vn 0.701635 -0.036464 -0.711603
vn 0.756479 0.291411 0.585508
vn -0.481944 -0.244777 0.841317
vn -0.763401 -0.558011 -0.325335
vn -0.69096 -0.31892 -0.648741
vn -0.357953 -0.15923 0.920063
vn 0.783731 0.300356 0.543647
vn 0.840014 0.355152 0.410175
vn -0.69096 -0.31892 -0.648741
vn 0.405214 0.20684 -0.890516
vn -0.763401 -0.558011 -0.325335
vn 0.783731 0.300356 0.543647
vn 0.840014 0.355152 0.410175
vn -0.881378 -0.310623 -0.355929
vn -0.201784 0.153186 0.967377
vn 0.80237 0.332538 0.495602
vn 0.680689 -0.014983 -0.73242
vn -0.881378 -0.310623 -0.355929
vn 0.80237 0.332538 0.495602
vn -0.456684 0.107083 0.883161
vn -0.91978 -0.264908 -0.289533
vn 0.843743 0.432356 0.318065
vn 0.280401 0.140118 -0.949601
vn -0.91978 -0.264908 -0.289533
vn 0.843743 0.432356 0.318065
vn -0.955368 -0.288383 0.064089
vn -0.492938 -0.012022 -0.869982
vn 0.114001 -0.001016 0.99348
vn -0.492938 -0.012022 -0.869982
vn 0.481488 0.068122 -0.873801
vn 0.717637 0.529986 -0.451787
vn 0.717637 0.529986 -0.451787
vn 0.645143 0.362844 0.67241
vn 0.45001 0.083147 -0.889144
vn 0.521235 -0.204662 -0.828509
vn 0.539515 -0.365077 -0.758711
vn 0.528653 -0.263648 -0.806855
vn -0.854488 -0.316314 0.412064
vn 0.222912 0.290664 0.930497
vn -0.201274 0.2524 0.946458
vn -0.68995 -0.045715 0.722412
vn -0.535675 0.188163 0.823193
vn 0.468902 0.020194 -0.883019
vn -0.987237 -0.113478 0.111746
vn -0.8456 0.105571 0.523274
vn 0.537624 -0.368462 -0.758417
vn 0.53789 -0.362804 -0.760952
vn -0.000837 0.443293 0.896376
vn -0.327216 0.397215 0.857409
vn 0.996986 -0.046755 0.061905
vn 0.801003 0.598661 0.000035
vn 0.802769 0.593331 0.059329
vn -0.283499 0.38791 -0.877015
vn -0.201973 0.48139 -0.852919
vn -0.310613 0.388592 -0.867477
vn 0.708333 0.123441 0.695001
vn 0.83778 -0.210617 0.503751
vn 0.790576 -0.571142 0.220876
vn 0.989936 0.059885 -0.128219
vn 0.918342 0.147014 -0.367471
vn 0.645258 0.753533 0.125819
vn -0.059218 0.990954 0.120432
vn -0.058957 0.988934 0.136136
vn -0.044429 0.634085 -0.771986
vn -0.039163 0.537563 -0.842313
vn -0.006935 0.239421 0.970891
vn 0.02644 -0.314528 0.94888
vn 0.058307 -0.906847 0.417407
vn 0.062 -0.98116 0.182979
vn 0.063183 0.373775 -0.925365
vn 0.186333 -0.611182 -0.769244
vn 0.399476 -0.866636 -0.298933
vn 0.088131 -0.78072 -0.618636
vn 0.109781 -0.476287 -0.87241
vn 0.025751 0.868111 -0.495703
vn -0.494953 0.227647 0.83857
vn 0.659275 0.659201 -0.361678
vn 0.518675 -0.11967 -0.846555
vn 0.958079 0.185528 0.218323
vn 0.441234 -0.810482 -0.385267
vn 0.051072 0.849398 -0.525276
vn -0.280167 0.959333 0.034451
vn 0.328431 -0.935588 -0.129646
vn 0.849436 0.224287 0.477654
vn -0.245264 0.968968 -0.030767
vn 0.22322 -0.972202 0.070678
vn 0.824845 0.419775 0.378708
vn -0.091684 0.952494 -0.290429
vn 0.528401 -0.201744 -0.824677
vn 0.939881 -0.341294 -0.011894
vn -0.133343 -0.786038 0.603626
vn 0.909064 -0.068868 0.410926
vn 0.535993 -0.384393 -0.751634
vn 0.535168 -0.304525 -0.787947
vn 0.385339 0.369576 -0.845534
vn -0.331937 -0.486876 0.807941
vn 0.925512 0.252249 0.282485
vn 0.419017 0.282463 -0.862925
vn 0.217206 -0.972722 0.081452
vn 0.803209 0.592879 -0.057878
vn 0.28547 0.393736 -0.873773
vn 0.920065 0.305264 0.245549
vn 0.482064 -0.158428 -0.861693
vn -0.142676 0.408937 0.901341
vn -0.376927 0.405789 0.832624
vn 0.523597 -0.449902 -0.723488
vn 0.836584 0.20397 0.508452
vn -0.490721 0.739305 0.461108
vn 0.405123 -0.876218 -0.260994
vn 0.721215 0.447624 0.52866
vn -0.298632 0.952139 0.065204
vn 0.631031 0.09728 -0.769634
vn -0.880356 -0.022693 -0.47377
vn -0.880356 -0.022693 -0.47377
vn -0.142676 0.408937 0.901341
vn -0.861754 -0.215726 -0.459177
vn -0.881869 0.007084 -0.471441
vn -0.37064 0.89226 0.257875
vn -0.289481 0.636624 -0.71478
vn -0.827885 -0.370189 -0.421386
vn -0.615344 -0.459281 0.640635
vn -0.37064 0.89226 0.257875
vn -0.615344 -0.459281 0.640635
vn -0.081125 -0.503059 0.860436
vn 0.032572 0.392645 0.919113
vn 0.354329 -0.48116 0.801833
vn 0.415042 0.394181 0.819976
vn 0.803746 -0.547172 0.233657
vn 0.415042 0.394181 0.819976
vn -0.827885 -0.370189 -0.421386
vn -0.289481 0.636624 -0.71478
vn -0.300569 -0.200714 -0.932401
vn -0.333289 -0.941299 -0.053615
vn 0.057705 -0.978497 -0.198025
vn 0.270893 -0.639563 -0.719428
vn 0.270893 -0.639563 -0.719428
vn -0.481769 0.787406 -0.384565
vn -0.300569 -0.200714 -0.932401
vn 0.032572 0.392645 0.919113
vn -0.733298 0.088755 -0.674089
vn -0.543608 -0.250519 0.801081
vn -0.202885 0.935282 0.289974
vn -0.289204 0.758108 -0.584494
vn 0.304892 0.902023 0.305606
vn -0.431503 0.121573 0.893882
vn -0.846647 -0.413191 -0.335353
vn -0.272629 0.374112 -0.886405
vn -0.600077 -0.544843 0.585708
vn -0.453609 -0.77533 0.439435
vn -0.959466 -0.158665 0.232918
vn -0.962589 -0.268163 -0.038874
vn -0.789803 -0.581948 -0.193774
vn -0.796247 0.180165 0.577523
vn -0.684272 -0.640168 -0.349223
vn -0.489842 -0.607512 -0.625287
vn -0.727094 -0.506455 -0.463506
vn 0.524952 -0.013976 -0.851017
vn 0.524952 -0.013976 -0.851017
vn 0.524969 -0.014073 -0.851005
vn 0.524952 -0.013976 -0.851017
vn -0.489842 -0.607512 -0.625287
vn 0.060325 -0.046508 -0.997095
vn -0.179571 -0.136281 -0.97426
vn -0.727094 -0.506455 -0.463506
vn -0.239101 0.415369 -0.877667
vn -0.495696 -0.74101 0.452979
vn -0.622201 -0.775537 0.106807
vn -0.916945 -0.283658 -0.280625
vn -0.257681 -0.666349 -0.6997
vn -0.916945 -0.283658 -0.280625
vn -0.074921 -0.839689 -0.537876
vn -0.854747 0.436484 0.280873
vn -0.787992 0.417896 0.452142
vn -0.563863 0.788142 0.246761
vn -0.61164 0.089781 0.786025
vn -0.074921 -0.839689 -0.537876
vn -0.458322 0.397839 -0.794774
vn 0.441569 0.436086 -0.784122
vn -0.563863 0.788142 0.246761
vn -0.926369 0.182919 0.329214
vn -0.850843 0.121033 -0.511289
vn -0.066891 0.022376 -0.997509
vn -0.850843 0.121033 -0.511289
vn -0.597235 -0.723164 -0.346906
vn -0.797174 0.265 0.542483
vn 0.284961 0.597466 -0.749555
vn -0.438616 -0.714079 0.545626
vn -0.597235 -0.723164 -0.346906
vn -0.61164 0.089781 0.786025
vn -0.797174 0.265 0.542483
vn -0.856817 0.403951 -0.32045
vn -0.458322 0.397839 -0.794774
vn 0.284961 0.597466 -0.749555
vn -0.438616 -0.714079 0.545626
vn 0.848974 -0.521443 -0.085676
vn -0.074921 -0.839689 -0.537876
vn -0.597235 -0.723164 -0.346906
vn -0.896283 0.417485 -0.149612
vn 0.400119 0.576647 -0.712309
vn 0.284961 0.597466 -0.749555
vn 0.400119 0.576647 -0.712309
vn 0.402059 -0.886601 -0.228665
vn -0.704956 -0.374257 -0.602469
vn -0.862622 0.50573 -0.010979
vn -0.704956 -0.374257 -0.602469
vn 0.43061 0.400227 -0.808946
vn 0.43061 0.400227 -0.808946
vn 0.250254 -0.830079 -0.49834
vn 0.398103 0.687625 -0.607196
vn -0.694781 0.300596 -0.653392
vn 0.398103 0.687625 -0.607196
vn -0.517998 -0.620753 -0.58851
vn -0.517998 -0.620753 -0.58851
vn 0.888805 -0.436413 0.139887
vn 0.304386 0.915949 0.261508
vn -0.860575 0.436623 -0.262242
vn 0.304386 0.915949 0.261508
vn -0.429005 -0.867332 -0.252368
vn -0.429005 -0.867332 -0.252368
vn 0.82705 -0.55037 -0.114377
vn 0.285727 0.93899 0.191461
vn -0.856018 0.516396 -0.023857
vn 0.285727 0.93899 0.191461
vn -0.486036 -0.849421 -0.205553
vn -0.486036 -0.849421 -0.205553
vn -0.79936 -0.547085 0.248437
vn -0.846495 -0.373857 -0.379048
vn -0.980143 0.153989 0.124928
vn -0.980143 0.153989 0.124928
vn -0.846495 -0.373857 -0.379048
vn -0.553262 0.207468 -0.806758
vn -0.553262 0.207468 -0.806758
vn -0.563863 0.788142 0.246761
vn -0.980143 0.153989 0.124928
vn -0.84226 0.538549 0.023716
vn -0.794758 0.101065 -0.598452
vn -0.194161 -0.414472 -0.889109
vn -0.794758 0.101065 -0.598452
vn 0.076167 0.563105 0.822868
vn 0.747477 -0.069222 0.660671
vn -0.884777 0.466003 0.003228
vn 0.076167 0.563105 0.822868
vn -0.84226 0.538549 0.023716
vn -0.898691 0.102488 -0.426441
vn 0.679754 -0.732481 0.037497
vn 0.747477 -0.069222 0.660671
vn -0.898691 0.102488 -0.426441
vn -0.898691 0.102488 -0.426441
vn -0.194161 -0.414472 -0.889109
vn -0.786428 -0.291001 -0.544839
vn 0.769625 -0.020648 0.638163
vn 0.747477 -0.069222 0.660671
vn 0.757799 -0.218201 0.614922
vn -0.898691 0.102488 -0.426441
vn -0.786428 -0.291001 -0.544839
vn 0.757799 -0.218201 0.614922
vn 0.084916 -0.862075 -0.499615
vn 0.679754 -0.732481 0.037497
vn 0.747477 -0.069222 0.660671
vn 0.769625 -0.020648 0.638163
vn -0.51091 0.583197 0.631547
vn -0.927309 -0.111173 -0.357407
vn 0.271213 -0.443338 -0.854339
vn -0.927309 -0.111173 -0.357407
vn -0.423756 0.032949 0.905177
vn 0.953474 0.122171 0.275611
vn 0.740013 -0.176105 0.649129
vn -0.581462 0.041098 0.812535
vn -0.896347 -0.158394 -0.414094
vn -0.823492 -0.096795 -0.55901
vn 0.953474 0.122171 0.275611
vn 0.497272 0.14592 -0.855236
vn 0.740013 -0.176105 0.649129
vn -0.823492 -0.096795 -0.55901
vn -0.896347 -0.158394 -0.414094
vn 0.789074 0.187475 0.584992
vn -0.768549 0.23002 0.597012
vn -0.877255 -0.128755 -0.462436
vn 0.313155 -0.358403 -0.879478
vn 0.789074 0.187475 0.584992
vn -0.877255 -0.128755 -0.462436
vn -0.57399 0.292788 0.764729
vn 0.728555 0.222538 0.647831
vn -0.772416 -0.049967 -0.633148
vn 0.629721 -0.007176 -0.776789
vn 0.728555 0.222538 0.647831
vn -0.772416 -0.049967 -0.633148
vn 0.446652 0.130846 0.885088
vn 0.966941 0.225568 -0.11893
vn -0.867523 -0.24691 0.431787
vn 0.966941 0.225568 -0.11893
vn 0.476245 -0.20168 -0.855871
vn -0.066595 0.138841 -0.988073
vn -0.066595 0.138841 -0.988073
vn -0.960078 -0.023038 -0.278783
vn 0.519735 0.036964 -0.853528
vn 0.42855 0.395387 -0.812413
vn 0.391788 0.479983 -0.784932
vn 0.322594 0.620003 -0.715213
vn 0.145355 -0.033484 0.988813
vn -0.966121 -0.082773 0.244456
vn -0.680049 -0.479667 0.554485
vn -0.225132 -0.734701 0.639945
vn -0.122262 -0.470242 0.874028
vn 0.510058 0.092279 -0.855176
vn 0.143665 -0.532328 0.834259
vn 0.446429 -0.013724 0.894714
vn 0.314196 0.623365 -0.716029
vn 0.324094 0.615633 -0.718303
vn -0.875317 -0.299933 0.37929
vn -0.536218 -0.65392 0.533722
vn -0.982948 -0.166865 0.077263
vn -0.867606 0.491972 0.072279
vn -0.840033 0.542388 0.01262
vn 0.220872 0.418531 -0.880936
vn 0.247895 0.422463 -0.871822
vn 0.129031 0.501488 -0.855489
vn -0.798254 -0.309855 0.516509
vn -0.707234 0.037461 0.705987
vn -0.712267 -0.662287 0.23249
vn -0.991783 -0.060387 -0.11278
vn -0.92443 0.092634 -0.369929
vn -0.729632 0.670074 0.136521
vn -0.053799 -0.665357 -0.744584
vn -0.022097 -0.485631 -0.873884
vn -0.239101 0.415369 -0.877667
vn -0.657568 -0.252903 -0.709679
vn -0.838654 -0.233865 -0.491901
vn -0.822811 -0.027437 -0.567653
vn -0.257681 -0.666349 -0.6997
vn -0.696012 -0.504462 -0.510966
vn -0.722066 -0.194953 -0.663788
vn -0.458322 0.397839 -0.794774
vn -0.710026 -0.137087 -0.690703
vn 0.441569 0.436086 -0.784122
vn 0.561604 -0.136848 -0.816011
vn -0.797174 0.265 0.542483
vn -0.678194 0.323984 0.659611
vn -0.850525 -0.253948 -0.460563
vn 0.543657 -0.44449 -0.711945
vn -0.454811 0.749037 0.481758
vn -0.912249 0.004296 -0.409613
vn 0.380263 -0.882972 -0.275246
vn -0.294678 0.953214 0.067445
vn 0.324102 0.013968 -0.945919
vn 0.770702 0.425424 0.474377
vn 0.770702 0.425424 0.474377
vn -0.797174 0.265 0.542483
vn 0.825497 0.242168 0.509814
vn 0.757847 0.452146 0.470353
vn 0.617113 0.786812 0.009871
vn 0.707656 -0.659211 0.254293
vn 0.824805 0.065974 -0.561555
vn 0.104124 -0.087257 0.990729
vn 0.617113 0.786812 0.009871
vn -0.45505 0.122792 0.881959
vn 0.104124 -0.087257 0.990729
vn -0.167477 0.82188 0.544486
vn -0.938281 0.200949 0.28151
vn -0.672871 0.728613 0.127941
vn -0.869571 -0.46663 -0.161567
vn -0.672871 0.728613 0.127941
vn 0.707656 -0.659211 0.254293
vn 0.675755 -0.648915 -0.349664
vn 0.824805 0.065974 -0.561555
vn -0.051308 -0.856536 0.51353
vn -0.578275 -0.801718 -0.151149
vn 0.265581 -0.797664 -0.541478
vn 0.265581 -0.797664 -0.541478
vn 0.972079 0.168343 0.163471
vn 0.675755 -0.648915 -0.349664
vn -0.167477 0.82188 0.544486
vn 0.871186 -0.49095 0.001964
vn 0.519347 0.848126 0.104694
vn -0.138727 0.090889 0.986151
vn 0.891597 0.208967 -0.40173
vn 0.161822 0.979693 -0.11839
vn -0.054671 0.467405 0.882351
vn 0.444236 -0.826971 0.344635
vn 0.794413 -0.324664 -0.513324
vt 0.3508 0.8796
vt 0.2416 0.8755
vt 0.3411 0.8423
vt 0.2416 0.9228
vt 0.3309 0.9375
vt 0.3508 0.8796
vt 0.3777 0.8887
vt 0.3309 0.9375
vt 0.2416 0.951
vt 0.3411 0.8423
vt 0.3395 0.7732
vt 0.3544 0.8083
vt 0.6302 0.3431
vt 0.5806 0.4103
vt 0.541 0.3978
vt 0.5197 0.3506
vt 0.0957 0.7956
vt 0.1417 0.7693
vt 0.1067 0.8326
vt 0.1085 0.7613
vt 0.221 0.836
vt 0.1727 0.8965
vt 0.2416 0.7999
vt 0.2929 0.7689
vt 0.2929 0.7689
vt 0.3324 0.7131
vt 0.221 0.7385
vt 0.1715 0.707
vt 0.1047 0.7025
vt 0.4074 0.8469
vt 0.3092 0.9926
vt 0.2797 0.9927
vt 0.3919 0.9388
vt 0.3092 0.9926
vt 0.068 0.8334
vt 0.0644 0.9188
vt 0.0969 0.9453
vt 0.1525 0.9832
vt 0.3068 0.6842
vt 0.3425 0.6722
vt 0.2416 0.7999
vt 0.2416 0.6715
vt 0.221 0.6821
vt 0.1531 0.659
vt 0.221 0.6549
vt 0.097 0.6661
vt 0.4054 0.8999
vt 0.3683 0.9786
vt 0.0439 0.8748
vt 0.117 0.108
vt 0.115 0.0304
vt 0.1245 0.0395
vt 0.0679 0.0767
vt 0.0626 0.0145
vt 0.0039 0.0436
vt 0.0108 0.0596
vt 0.1416 0.1095
vt 0.1775 0.0375
vt 0.1766 0.0887
vt 0.1348 0.0361
vt 0.07 0.116
vt 0.2386 0.0577
vt 0.2364 0.1095
vt 0.0132 0.108
vt 0.1775 0.1887
vt 0.148 0.1866
vt 0.0718 0.1839
vt 0.1101 0.18
vt 0.2123 0.1866
vt 0.0396 0.18
vt 0.1774 0.2069
vt 0.148 0.2048
vt 0.072 0.2009
vt 0.1101 0.197
vt 0.2123 0.2048
vt 0.0396 0.197
vt 0.1764 0.2451
vt 0.1389 0.242
vt 0.0713 0.2371
vt 0.12 0.2317
vt 0.2219 0.242
vt 0.0291 0.2317
vt 0.1769 0.3277
vt 0.1541 0.3239
vt 0.0737 0.3133
vt 0.1034 0.3081
vt 0.205 0.3239
vt 0.0476 0.3081
vt 0.2966 0.371
vt 0.2679 0.3162
vt 0.3756 0.3113
vt 0.2578 0.7468
vt 0.2578 0.7468
vt 0.2578 0.7468
vt 0.1734 0.9527
vt 0.221 0.9327
vt 0.3331 0.2723
vt 0.3605 0.2467
vt 0.375 0.2702
vt 0.2902 0.2903
vt 0.2797 0.9927
vt 0.2416 0.9621
vt 0.2416 0.951
vt 0.3278 0.6152
vt 0.3628 0.6269
vt 0.2416 0.6026
vt 0.1296 0.5935
vt 0.0904 0.6292
vt 0.2644 0.5336
vt 0.2416 0.533
vt 0.2415 0.4937
vt 0.8213 0.8148
vt 0.807 0.9753
vt 0.7426 0.892
vt 0.3748 0.5528
vt 0.221 0.5263
vt 0.221 0.54
vt 0.1655 0.5216
vt 0.2107 0.4879
vt 0.221 0.5744
vt 0.0961 0.5458
vt 0.577 0.9156
vt 0.5659 0.8297
vt 0.6055 0.9471
vt 0.7194 0.8512
vt 0.7414 0.7868
vt 0.7751 0.6822
vt 0.8546 0.9116
vt 0.8666 0.8232
vt 0.6501 0.6927
vt 0.6523 0.891
vt 0.6068 0.8229
vt 0.6812 0.7943
vt 0.7014 0.8568
vt 0.8238 0.713
vt 0.8621 0.6954
vt 0.6025 0.6864
vt 0.5701 0.7054
vt 0.838 0.5985
vt 0.7838 0.6576
vt 0.7849 0.5891
vt 0.83 0.6471
vt 0.8621 0.6659
vt 0.8875 0.6015
vt 0.6411 0.6022
vt 0.5922 0.6258
vt 0.6422 0.6687
vt 0.5701 0.6769
vt 0.5467 0.6142
vt 0.8096 0.5076
vt 0.849 0.5152
vt 0.8717 0.5187
vt 0.5822 0.5156
vt 0.6185 0.523
vt 0.5613 0.5338
vt 0.8495 0.4511
vt 0.8148 0.4305
vt 0.893 0.4324
vt 0.5817 0.4493
vt 0.6137 0.4481
vt 0.5417 0.45
vt 0.8077 0.2539
vt 0.7968 0.3224
vt 0.8887 0.2626
vt 0.6302 0.3431
vt 0.5806 0.4103
vt 0.541 0.3978
vt 0.8937 0.3788
vt 0.907 0.3301
vt 0.5059 0.2916
vt 0.4803 0.2167
vt 0.5475 0.0637
vt 0.6217 0.2016
vt 0.8375 0.254
vt 0.918 0.2695
vt 0.9109 0.1834
vt 0.8309 0.1748
vt 0.8867 0.0348
vt 0.6202 0.2765
vt 0.806 0.1767
vt 0.8105 0.0468
vt 0.6176 0.0753
vt 0.4278 0.0258
vt 0.9458 0.1923
vt 0.9989 0.008
vt 0.3397 0.4147
vt 0.3904 0.3762
vt 0.3835 0.4554
vt 0.3397 0.4147
vt 0.3835 0.4554
vt 0.3854 0.4717
vt 0.3854 0.4717
vt 0.3041 0.458
vt 0.2889 0.4111
vt 0.3867 0.3331
vt 0.4106 0.2853
vt 0.4226 0.3423
vt 0.4841 0.3758
vt 0.4134 0.4807
vt 0.4134 0.4807
vt 0.4377 0.5337
vt 0.4377 0.5337
vt 0.2848 0.4996
vt 0.23 0.3948
vt 0.2622 0.3737
vt 0.4426 0.1952
vt 0.4226 0.3423
vt 0.4221 0.3147
vt 0.4841 0.3758
vt 0.3904 0.3762
vt 0.4221 0.3147
vt 0.2363 0.2963
vt 0.7215 0.5909
vt 0.6858 0.55
vt 0.7427 0.5275
vt 0.7099 0.505
vt 0.7658 0.6085
vt 0.7735 0.5428
vt 0.7176 0.3297
vt 0.7523 0.3281
vt 0.7871 0.3264
vt 0.6993 0.1393
vt 0.7133 0.1318
vt 0.7274 0.1242
vt 0.6275 0.0005
vt 0.7524 0.427
vt 0.7141 0.3754
vt 0.7485 0.3568
vt 0.7111 0.429
vt 0.7851 0.4302
vt 0.783 0.3383
vt 0.7039 0.1948
vt 0.724 0.1826
vt 0.7465 0.1651
vt 0.6423 0.0232
vt 0.7073 0.5242
vt 0.7066 0.4711
vt 0.7409 0.4317
vt 0.7108 0.415
vt 0.7493 0.5599
vt 0.7784 0.4614
vt 0.7375 0.3231
vt 0.7609 0.3285
vt 0.7836 0.3316
vt 0.7288 0.1852
vt 0.7399 0.1809
vt 0.7448 0.1707
vt 0.6528 0.0437
vt 0.76 0.4887
vt 0.1361 0.9916
vt 0.1017 0.9684
vt 0.7606 0.3273
vt 0.7341 0.1754
vt 0.1503 0.4717
vt 0.2078 0.463
vt 0.2011 0.4725
vt 0.1569 0.4812
vt 0.1075 0.4462
vt 0.0955 0.455
vt 0.0997 0.4066
vt 0.1143 0.3791
vt 0.0997 0.3728
vt 0.1143 0.3344
vt 0.0781 0.3364
vt 0.1441 0.352
vt 0.0571 0.4469
vt 0.0445 0.438
vt 0.0419 0.3791
vt 0.0555 0.4066
vt 0.0555 0.3728
vt 0.0419 0.3344
vt 0.2102 0.352
vt 0.1772 0.3999
vt 0.2102 0.3999
vt 0.1441 0.3999
vt 0.1627 0.4054
vt 0.1441 0.4054
vt 0.1441 0.3895
vt 0.1627 0.3895
vt 0.1441 0.355
vt 0.1441 0.386
vt 0.1663 0.386
vt 0.1663 0.355
vt 0.3508 0.8796
vt 0.3411 0.8423
vt 0.3309 0.9375
vt 0.3777 0.8887
vt 0.3508 0.8796
vt 0.3309 0.9375
vt 0.3411 0.8423
vt 0.3544 0.8083
vt 0.3395 0.7732
vt 0.6302 0.3431
vt 0.541 0.3978
vt 0.5806 0.4103
vt 0.5197 0.3506
vt 0.0957 0.7956
vt 0.1067 0.8326
vt 0.1417 0.7693
vt 0.1085 0.7613
vt 0.1727 0.8965
vt 0.2929 0.7689
vt 0.2929 0.7689
vt 0.3324 0.7131
vt 0.1715 0.707
vt 0.1047 0.7025
vt 0.4074 0.8469
vt 0.3092 0.9926
vt 0.2797 0.9927
vt 0.3092 0.9926
vt 0.3919 0.9388
vt 0.068 0.8334
vt 0.0644 0.9188
vt 0.0969 0.9453
vt 0.1525 0.9832
vt 0.3068 0.6842
vt 0.3425 0.6722
vt 0.1531 0.659
vt 0.097 0.6661
vt 0.4054 0.8999
vt 0.3683 0.9786
vt 0.0439 0.8748
vt 0.117 0.108
vt 0.1245 0.0395
vt 0.115 0.0304
vt 0.0626 0.0145
vt 0.0679 0.0767
vt 0.0039 0.0436
vt 0.0108 0.0596
vt 0.1416 0.1095
vt 0.1766 0.0887
vt 0.1775 0.0375
vt 0.1348 0.0361
vt 0.07 0.116
vt 0.2364 0.1095
vt 0.2386 0.0577
vt 0.0132 0.108
vt 0.1775 0.1887
vt 0.148 0.1866
vt 0.0718 0.1839
vt 0.1101 0.18
vt 0.2123 0.1866
vt 0.0396 0.18
vt 0.1774 0.2069
vt 0.148 0.2048
vt 0.072 0.2009
vt 0.1101 0.197
vt 0.2123 0.2048
vt 0.0396 0.197
vt 0.1764 0.2451
vt 0.1389 0.242
vt 0.0713 0.2371
vt 0.12 0.2317
vt 0.2219 0.242
vt 0.0291 0.2317
vt 0.1769 0.3277
vt 0.1541 0.3239
vt 0.0737 0.3133
vt 0.1034 0.3081
vt 0.205 0.3239
vt 0.0476 0.3081
vt 0.2966 0.371
vt 0.3756 0.3113
vt 0.2679 0.3162
vt 0.2578 0.7468
vt 0.2578 0.7468
vt 0.1734 0.9527
vt 0.3331 0.2723
vt 0.2902 0.2903
vt 0.2797 0.9927
vt 0.3278 0.6152
vt 0.3628 0.6269
vt 0.1296 0.5935
vt 0.0904 0.6292
vt 0.2644 0.5336
vt 0.2415 0.4937
vt 0.8213 0.8148
vt 0.7426 0.892
vt 0.807 0.9753
vt 0.3748 0.5528
vt 0.1655 0.5216
vt 0.2107 0.4879
vt 0.0961 0.5458
vt 0.577 0.9156
vt 0.6055 0.9471
vt 0.5659 0.8297
vt 0.7414 0.7868
vt 0.7194 0.8512
vt 0.7751 0.6822
vt 0.8546 0.9116
vt 0.8666 0.8232
vt 0.6501 0.6927
vt 0.6068 0.8229
vt 0.6523 0.891
vt 0.7014 0.8568
vt 0.6812 0.7943
vt 0.8238 0.713
vt 0.8621 0.6954
vt 0.6025 0.6864
vt 0.5701 0.7054
vt 0.838 0.5985
vt 0.7849 0.5891
vt 0.7838 0.6576
vt 0.83 0.6471
vt 0.8621 0.6659
vt 0.8875 0.6015
vt 0.6411 0.6022
vt 0.5922 0.6258
vt 0.6422 0.6687
vt 0.5467 0.6142
vt 0.5701 0.6769
vt 0.8096 0.5076
vt 0.849 0.5152
vt 0.8717 0.5187
vt 0.5822 0.5156
vt 0.6185 0.523
vt 0.5613 0.5338
vt 0.8495 0.4511
vt 0.8148 0.4305
vt 0.893 0.4324
vt 0.5817 0.4493
vt 0.6137 0.4481
vt 0.5417 0.45
vt 0.8077 0.2539
vt 0.7968 0.3224
vt 0.8887 0.2626
vt 0.6302 0.3431
vt 0.5806 0.4103
vt 0.541 0.3978
vt 0.8937 0.3788
vt 0.907 0.3301
vt 0.5059 0.2916
vt 0.4803 0.2167
vt 0.6217 0.2016
vt 0.5475 0.0637
vt 0.8375 0.254
vt 0.918 0.2695
vt 0.9109 0.1834
vt 0.8867 0.0348
vt 0.8309 0.1748
vt 0.6202 0.2765
vt 0.8105 0.0468
vt 0.806 0.1767
vt 0.6176 0.0753
vt 0.4278 0.0258
vt 0.9458 0.1923
vt 0.9989 0.008
vt 0.3397 0.4147
vt 0.3835 0.4554
vt 0.3904 0.3762
vt 0.3397 0.4147
vt 0.3854 0.4717
vt 0.3835 0.4554
vt 0.3041 0.458
vt 0.3854 0.4717
vt 0.2889 0.4111
vt 0.3867 0.3331
vt 0.4106 0.2853
vt 0.4226 0.3423
vt 0.4226 0.3423
vt 0.3904 0.3762
vt 0.7215 0.5909
vt 0.7427 0.5275
vt 0.7523 0.3281
vt 0.7133 0.1318
vt 0.7524 0.427
vt 0.7485 0.3568
vt 0.724 0.1826
vt 0.7073 0.5242
vt 0.7409 0.4317
vt 0.7066 0.4711
vt 0.7108 0.415
vt 0.7493 0.5599
vt 0.7784 0.4614
vt 0.7609 0.3285
vt 0.7375 0.3231
vt 0.7836 0.3316
vt 0.7399 0.1809
vt 0.7288 0.1852
vt 0.7448 0.1707
vt 0.6528 0.0437
vt 0.76 0.4887
vt 0.1361 0.9916
vt 0.1017 0.9684
vt 0.7606 0.3273
vt 0.7341 0.1754
vt 0.1503 0.4717
vt 0.2011 0.4725
vt 0.2078 0.463
vt 0.1569 0.4812
vt 0.1075 0.4462
vt 0.0997 0.4066
vt 0.0955 0.455
vt 0.1143 0.3791
vt 0.0997 0.3728
vt 0.1143 0.3344
vt 0.0781 0.3364
vt 0.1441 0.352
vt 0.0571 0.4469
vt 0.0419 0.3791
vt 0.0445 0.438
vt 0.0555 0.4066
vt 0.0555 0.3728
vt 0.0419 0.3344
vt 0.2102 0.352
vt 0.1772 0.3999
vt 0.2102 0.3999
vt 0.1441 0.3999
vt 0.1627 0.4054
vt 0.1441 0.3895
vt 0.1441 0.4054
vt 0.1627 0.3895
vt 0.1441 0.355
vt 0.1441 0.386
vt 0.1663 0.386
vt 0.1663 0.355
f 1/1/1 3/3/3 2/2/2
f 4/4/4 1/1/1 2/2/2
f 5/5/5 7/7/7 6/6/6
f 4/4/4 9/9/9 8/8/8
f 10/10/10 12/12/12 11/11/11
f 10/10/10 6/6/6 12/12/12
f 13/13/13 15/15/15 14/14/14
f 13/13/13 16/16/16 15/15/15
f 17/17/17 19/19/19 18/18/18
f 20/20/20 17/17/17 18/18/18
f 21/21/21 18/18/18 22/22/22
f 3/3/3 23/23/23 2/2/2
f 23/23/23 3/3/3 24/24/24
f 11/11/11 25/25/25 10/10/10
f 25/25/25 11/11/11 26/26/26
f 27/27/27 28/28/28 21/21/21
f 18/18/18 29/29/29 20/20/20
f 29/29/29 18/18/18 28/28/28
f 4/4/4 8/8/8 1/1/1
f 6/6/6 30/30/30 12/12/12
f 30/30/30 6/6/6 7/7/7
f 31/31/31 8/8/8 32/32/32
f 5/5/5 34/34/34 33/33/33
f 19/19/19 17/17/17 35/35/35
f 36/36/36 37/37/37 19/19/19
f 38/38/38 22/22/22 37/37/37
f 26/26/26 39/39/39 25/25/25
f 39/39/39 26/26/26 40/40/40
f 25/25/25 42/42/42 41/41/41
f 42/42/42 25/25/25 39/39/39
f 43/43/43 44/44/44 28/28/28
f 44/44/44 43/43/43 45/45/45
f 28/28/28 46/46/46 29/29/29
f 46/46/46 28/28/28 44/44/44
f 30/30/30 7/7/7 47/47/47
f 48/48/48 33/33/33 34/34/34
f 7/7/7 5/5/5 47/47/47
f 19/19/19 37/37/37 22/22/22
f 36/36/36 19/19/19 49/49/49
f 50/50/50 52/52/52 51/51/51
f 51/51/51 54/54/54 53/53/53
f 33/33/33 47/47/47 5/5/5
f 35/35/35 49/49/49 19/19/19
f 55/55/55 53/53/53 54/54/54
f 53/53/53 55/55/55 56/56/56
f 57/57/57 59/59/59 58/58/58
f 58/58/58 60/60/60 57/57/57
f 61/61/61 50/50/50 51/51/51
f 51/51/51 53/53/53 61/61/61
f 58/58/58 63/63/63 62/62/62
f 63/63/63 58/58/58 59/59/59
f 56/56/56 61/61/61 53/53/53
f 61/61/61 56/56/56 64/64/64
f 57/57/57 65/65/65 59/59/59
f 65/65/65 57/57/57 66/66/66
f 67/67/67 68/68/68 50/50/50
f 50/50/50 61/61/61 67/67/67
f 59/59/59 69/69/69 63/63/63
f 69/69/69 59/59/59 65/65/65
f 64/64/64 67/67/67 61/61/61
f 67/67/67 64/64/64 70/70/70
f 66/66/66 71/71/71 65/65/65
f 71/71/71 66/66/66 72/72/72
f 73/73/73 74/74/74 68/68/68
f 68/68/68 67/67/67 73/73/73
f 65/65/65 75/75/75 69/69/69
f 75/75/75 65/65/65 71/71/71
f 70/70/70 73/73/73 67/67/67
f 73/73/73 70/70/70 76/76/76
f 72/72/72 77/77/77 71/71/71
f 77/77/77 72/72/72 78/78/78
f 79/79/79 80/80/80 74/74/74
f 74/74/74 73/73/73 79/79/79
f 71/71/71 81/81/81 75/75/75
f 81/81/81 71/71/71 77/77/77
f 76/76/76 79/79/79 73/73/73
f 79/79/79 76/76/76 82/82/82
f 78/78/78 83/83/83 77/77/77
f 83/83/83 78/78/78 84/84/84
f 85/85/85 86/86/86 80/80/80
f 80/80/80 79/79/79 85/85/85
f 77/77/77 87/87/87 81/81/81
f 87/87/87 77/77/77 83/83/83
f 82/82/82 85/85/85 79/79/79
f 85/85/85 82/82/82 88/88/88
f 89/89/89 91/91/91 90/90/90
f 92/92/92 94/94/94 93/93/93
f 38/38/38 95/95/95 22/22/22
f 96/96/96 22/22/22 95/95/95
f 97/97/97 99/99/99 98/98/98
f 99/99/99 97/97/97 91/91/91
f 97/97/97 90/90/90 91/91/91
f 97/97/97 100/100/100 90/90/90
f 32/32/32 8/8/8 9/9/9
f 101/101/101 103/103/103 102/102/102
f 40/40/40 104/104/104 39/39/39
f 104/104/104 40/40/40 105/105/105
f 39/39/39 106/106/106 42/42/42
f 106/106/106 39/39/39 104/104/104
f 45/45/45 107/107/107 44/44/44
f 44/44/44 108/108/108 46/46/46
f 108/108/108 44/44/44 107/107/107
f 109/109/109 111/111/111 110/110/110
f 110/110/110 106/106/106 109/109/109
f 112/112/112 114/114/114 113/113/113
f 104/104/104 105/105/105 115/115/115
f 104/104/104 109/109/109 106/106/106
f 116/116/116 118/118/118 117/117/117
f 118/118/118 116/116/116 119/119/119
f 117/117/117 118/118/118 120/120/120
f 107/107/107 121/121/121 108/108/108
f 122/122/122 124/124/124 123/123/123
f 114/114/114 126/126/126 125/125/125
f 126/126/126 114/114/114 127/127/127
f 128/128/128 112/112/112 113/113/113
f 112/112/112 128/128/128 129/129/129
f 130/130/130 132/132/132 131/131/131
f 131/131/131 134/134/134 133/133/133
f 132/132/132 123/123/123 124/124/124
f 124/124/124 131/131/131 132/132/132
f 135/135/135 127/127/127 114/114/114
f 114/114/114 112/112/112 135/135/135
f 136/136/136 135/135/135 112/112/112
f 112/112/112 129/129/129 136/136/136
f 130/130/130 137/137/137 132/132/132
f 131/131/131 133/133/133 130/130/130
f 137/137/137 138/138/138 123/123/123
f 123/123/123 132/132/132 137/137/137
f 139/139/139 141/141/141 140/140/140
f 140/140/140 142/142/142 139/139/139
f 143/143/143 139/139/139 142/142/142
f 139/139/139 143/143/143 144/144/144
f 145/145/145 146/146/146 137/137/137
f 137/137/137 147/147/147 145/145/145
f 137/137/137 149/149/149 148/148/148
f 149/149/149 137/137/137 146/146/146
f 139/139/139 150/150/150 141/141/141
f 150/150/150 139/139/139 151/151/151
f 144/144/144 151/151/151 139/139/139
f 151/151/151 144/144/144 152/152/152
f 145/145/145 153/153/153 146/146/146
f 153/153/153 145/145/145 154/154/154
f 153/153/153 155/155/155 149/149/149
f 149/149/149 146/146/146 153/153/153
f 156/156/156 157/157/157 150/150/150
f 150/150/150 151/151/151 156/156/156
f 152/152/152 156/156/156 151/151/151
f 156/156/156 152/152/152 158/158/158
f 154/154/154 159/159/159 153/153/153
f 159/159/159 154/154/154 160/160/160
f 153/153/153 161/161/161 155/155/155
f 161/161/161 153/153/153 159/159/159
f 162/162/162 163/163/163 157/157/157
f 158/158/158 164/164/164 156/156/156
f 165/165/165 166/166/166 159/159/159
f 159/159/159 160/160/160 165/165/165
f 167/167/167 159/159/159 166/166/166
f 168/168/168 169/169/169 158/158/158
f 161/161/161 159/159/159 167/167/167
f 13/13/13 170/170/170 16/16/16
f 171/171/171 173/173/173 172/172/172
f 174/174/174 162/162/162 157/157/157
f 157/157/157 156/156/156 174/174/174
f 169/169/169 164/164/164 158/158/158
f 164/164/164 169/169/169 175/175/175
f 176/176/176 178/178/178 177/177/177
f 174/174/174 156/156/156 164/164/164
f 170/170/170 13/13/13 179/179/179
f 177/177/177 181/181/181 180/180/180
f 178/178/178 181/181/181 177/177/177
f 173/173/173 182/182/182 172/172/172
f 172/172/172 183/183/183 171/171/171
f 184/184/184 185/185/185 176/176/176
f 176/176/176 185/185/185 178/178/178
f 142/142/142 140/140/140 127/127/127
f 127/127/127 135/135/135 142/142/142
f 136/136/136 142/142/142 135/135/135
f 142/142/142 136/136/136 143/143/143
f 137/137/137 130/130/130 147/147/147
f 137/137/137 148/148/148 138/138/138
f 186/186/186 188/188/188 187/187/187
f 189/189/189 191/191/191 190/190/190
f 186/186/186 193/193/193 192/192/192
f 186/186/186 194/194/194 193/193/193
f 186/186/186 89/89/89 194/194/194
f 186/186/186 91/91/91 89/89/89
f 195/195/195 196/196/196 91/91/91
f 188/188/188 197/197/197 187/187/187
f 197/197/197 199/199/199 198/198/198
f 197/197/197 188/188/188 199/199/199
f 190/190/190 201/201/201 200/200/200
f 190/190/190 191/191/191 201/201/201
f 192/192/192 203/203/203 202/202/202
f 192/192/192 193/193/193 203/203/203
f 194/194/194 204/204/204 203/203/203
f 193/193/193 194/194/194 203/203/203
f 194/194/194 205/205/205 204/204/204
f 194/194/194 89/89/89 205/205/205
f 196/196/196 206/206/206 99/99/99
f 91/91/91 196/196/196 99/99/99
f 207/207/207 209/209/209 208/208/208
f 210/210/210 207/207/207 208/208/208
f 91/91/91 186/186/186 195/195/195
f 187/187/187 195/195/195 186/186/186
f 195/195/195 187/187/187 196/196/196
f 206/206/206 196/196/196 211/211/211
f 187/187/187 211/211/211 196/196/196
f 45/45/45 120/120/120 107/107/107
f 118/118/118 107/107/107 120/120/120
f 90/90/90 212/212/212 89/89/89
f 89/89/89 212/212/212 205/205/205
f 179/179/179 171/171/171 170/170/170
f 171/171/171 179/179/179 173/173/173
f 174/174/174 180/180/180 162/162/162
f 180/180/180 174/174/174 177/177/177
f 175/175/175 176/176/176 164/164/164
f 176/176/176 175/175/175 184/184/184
f 164/164/164 177/177/177 174/174/174
f 177/177/177 164/164/164 176/176/176
f 213/213/213 215/215/215 214/214/214
f 215/215/215 216/216/216 214/214/214
f 217/217/217 218/218/218 215/215/215
f 217/217/217 215/215/215 213/213/213
f 215/215/215 220/220/220 219/219/219
f 215/215/215 219/219/219 216/216/216
f 218/218/218 221/221/221 220/220/220
f 218/218/218 220/220/220 215/215/215
f 220/220/220 223/223/223 222/222/222
f 220/220/220 222/222/222 219/219/219
f 221/221/221 224/224/224 223/223/223
f 221/221/221 223/223/223 220/220/220
f 225/225/225 222/222/222 223/223/223
f 225/225/225 223/223/223 224/224/224
f 21/21/21 28/28/28 18/18/18
f 18/18/18 19/19/19 22/22/22
f 226/226/226 228/228/228 227/227/227
f 226/226/226 227/227/227 229/229/229
f 230/230/230 231/231/231 228/228/228
f 230/230/230 228/228/228 226/226/226
f 228/228/228 233/233/233 232/232/232
f 228/228/228 232/232/232 227/227/227
f 231/231/231 234/234/234 233/233/233
f 231/231/231 233/233/233 228/228/228
f 233/233/233 235/235/235 232/232/232
f 234/234/234 235/235/235 233/233/233
f 236/236/236 238/238/238 237/237/237
f 238/238/238 239/239/239 237/237/237
f 240/240/240 241/241/241 238/238/238
f 240/240/240 238/238/238 236/236/236
f 238/238/238 243/243/243 242/242/242
f 238/238/238 242/242/242 239/239/239
f 241/241/241 244/244/244 243/243/243
f 241/241/241 243/243/243 238/238/238
f 243/243/243 246/246/246 245/245/245
f 243/243/243 245/245/245 242/242/242
f 244/244/244 247/247/247 246/246/246
f 244/244/244 246/246/246 243/243/243
f 248/248/248 245/245/245 246/246/246
f 248/248/248 246/246/246 247/247/247
f 237/237/237 239/239/239 249/249/249
f 38/38/38 37/37/37 250/250/250
f 240/240/240 249/249/249 241/241/241
f 251/251/251 38/38/38 250/250/250
f 249/249/249 242/242/242 252/252/252
f 249/249/249 239/239/239 242/242/242
f 241/241/241 252/252/252 244/244/244
f 241/241/241 249/249/249 252/252/252
f 252/252/252 245/245/245 253/253/253
f 252/252/252 242/242/242 245/245/245
f 244/244/244 253/253/253 247/247/247
f 244/244/244 252/252/252 253/253/253
f 248/248/248 253/253/253 245/245/245
f 248/248/248 247/247/247 253/253/253
f 254/254/254 256/256/256 255/255/255
f 256/256/256 254/254/254 257/257/257
f 258/258/258 260/260/260 259/259/259
f 260/260/260 258/258/258 261/261/261
f 261/261/261 262/262/262 260/260/260
f 261/261/261 263/263/263 262/262/262
f 264/264/264 262/262/262 263/263/263
f 84/84/84 265/265/265 83/83/83
f 263/263/263 85/85/85 264/264/264
f 85/85/85 263/263/263 86/86/86
f 266/266/266 268/268/268 267/267/267
f 268/268/268 266/266/266 269/269/269
f 268/268/268 269/269/269 270/270/270
f 270/270/270 271/271/271 268/268/268
f 264/264/264 88/88/88 271/271/271
f 88/88/88 264/264/264 85/85/85
f 83/83/83 272/272/272 87/87/87
f 255/255/255 273/273/273 254/254/254
f 273/273/273 255/255/255 274/274/274
f 275/275/275 254/254/254 273/273/273
f 274/274/274 83/83/83 273/273/273
f 83/83/83 274/274/274 272/272/272
f 276/276/276 278/278/278 277/277/277
f 278/278/278 276/276/276 279/279/279
f 275/275/275 280/280/280 265/265/265
f 280/280/280 275/275/275 281/281/281
f 273/273/273 281/281/281 275/275/275
f 281/281/281 273/273/273 282/282/282
f 83/83/83 282/282/282 273/273/273
f 282/282/282 83/83/83 283/283/283
f 282/282/282 277/277/277 281/281/281
f 277/277/277 282/282/282 276/276/276
f 281/281/281 278/278/278 280/280/280
f 278/278/278 281/281/281 277/277/277
f 280/280/280 279/279/279 283/283/283
f 279/279/279 280/280/280 278/278/278
f 283/283/283 276/276/276 282/282/282
f 276/276/276 283/283/283 279/279/279
f 265/265/265 280/280/280 83/83/83
f 83/83/83 280/280/280 283/283/283
f 269/269/269 259/259/259 260/260/260
f 259/259/259 269/269/269 266/266/266
f 271/271/271 270/270/270 264/264/264
f 264/264/264 270/270/270 262/262/262
f 270/270/270 260/260/260 262/262/262
f 269/269/269 260/260/260 270/270/270
f 284/284/284 2/2/2 285/285/285
f 4/4/4 2/2/2 284/284/284
f 286/286/286 288/288/288 287/287/287
f 4/4/4 289/289/289 9/9/9
f 290/290/290 292/292/292 291/291/291
f 290/290/290 291/291/291 288/288/288
f 293/293/293 295/295/295 294/294/294
f 293/293/293 294/294/294 296/296/296
f 297/297/297 299/299/299 298/298/298
f 300/300/300 299/299/299 297/297/297
f 21/21/21 301/301/301 299/299/299
f 285/285/285 2/2/2 23/23/23
f 23/23/23 302/302/302 285/285/285
f 292/292/292 290/290/290 303/303/303
f 303/303/303 304/304/304 292/292/292
f 27/27/27 21/21/21 305/305/305
f 299/299/299 300/300/300 306/306/306
f 306/306/306 305/305/305 299/299/299
f 4/4/4 284/284/284 289/289/289
f 288/288/288 291/291/291 307/307/307
f 307/307/307 287/287/287 288/288/288
f 308/308/308 309/309/309 289/289/289
f 286/286/286 311/311/311 310/310/310
f 298/298/298 312/312/312 297/297/297
f 313/313/313 298/298/298 314/314/314
f 315/315/315 314/314/314 301/301/301
f 304/304/304 303/303/303 316/316/316
f 316/316/316 317/317/317 304/304/304
f 303/303/303 41/41/41 42/42/42
f 42/42/42 316/316/316 303/303/303
f 43/43/43 305/305/305 318/318/318
f 318/318/318 45/45/45 43/43/43
f 305/305/305 306/306/306 319/319/319
f 319/319/319 318/318/318 305/305/305
f 307/307/307 320/320/320 287/287/287
f 321/321/321 310/310/310 311/311/311
f 287/287/287 320/320/320 286/286/286
f 298/298/298 301/301/301 314/314/314
f 313/313/313 322/322/322 298/298/298
f 323/323/323 325/325/325 324/324/324
f 325/325/325 327/327/327 326/326/326
f 311/311/311 286/286/286 320/320/320
f 312/312/312 298/298/298 322/322/322
f 328/328/328 326/326/326 327/327/327
f 327/327/327 329/329/329 328/328/328
f 330/330/330 332/332/332 331/331/331
f 332/332/332 330/330/330 333/333/333
f 334/334/334 325/325/325 323/323/323
f 325/325/325 334/334/334 327/327/327
f 332/332/332 336/336/336 335/335/335
f 335/335/335 331/331/331 332/332/332
f 329/329/329 327/327/327 334/334/334
f 334/334/334 337/337/337 329/329/329
f 330/330/330 331/331/331 338/338/338
f 338/338/338 339/339/339 330/330/330
f 340/340/340 323/323/323 341/341/341
f 323/323/323 340/340/340 334/334/334
f 331/331/331 335/335/335 342/342/342
f 342/342/342 338/338/338 331/331/331
f 337/337/337 334/334/334 340/340/340
f 340/340/340 343/343/343 337/337/337
f 339/339/339 338/338/338 344/344/344
f 344/344/344 345/345/345 339/339/339
f 346/346/346 341/341/341 347/347/347
f 341/341/341 346/346/346 340/340/340
f 338/338/338 342/342/342 348/348/348
f 348/348/348 344/344/344 338/338/338
f 343/343/343 340/340/340 346/346/346
f 346/346/346 349/349/349 343/343/343
f 345/345/345 344/344/344 350/350/350
f 350/350/350 351/351/351 345/345/345
f 352/352/352 347/347/347 353/353/353
f 347/347/347 352/352/352 346/346/346
f 344/344/344 348/348/348 354/354/354
f 354/354/354 350/350/350 344/344/344
f 349/349/349 346/346/346 352/352/352
f 352/352/352 355/355/355 349/349/349
f 351/351/351 350/350/350 356/356/356
f 356/356/356 357/357/357 351/351/351
f 358/358/358 353/353/353 359/359/359
f 353/353/353 358/358/358 352/352/352
f 350/350/350 354/354/354 360/360/360
f 360/360/360 356/356/356 350/350/350
f 355/355/355 352/352/352 358/358/358
f 358/358/358 361/361/361 355/355/355
f 362/362/362 364/364/364 363/363/363
f 365/365/365 93/93/93 366/366/366
f 315/315/315 301/301/301 367/367/367
f 96/96/96 367/367/367 301/301/301
f 368/368/368 98/98/98 99/99/99
f 99/99/99 363/363/363 368/368/368
f 368/368/368 363/363/363 364/364/364
f 368/368/368 364/364/364 369/369/369
f 309/309/309 9/9/9 289/289/289
f 370/370/370 102/102/102 103/103/103
f 317/317/317 316/316/316 371/371/371
f 371/371/371 372/372/372 317/317/317
f 316/316/316 42/42/42 106/106/106
f 106/106/106 371/371/371 316/316/316
f 45/45/45 318/318/318 373/373/373
f 318/318/318 319/319/319 374/374/374
f 374/374/374 373/373/373 318/318/318
f 375/375/375 110/110/110 376/376/376
f 110/110/110 375/375/375 106/106/106
f 377/377/377 379/379/379 378/378/378
f 371/371/371 380/380/380 372/372/372
f 371/371/371 106/106/106 375/375/375
f 116/116/116 117/117/117 381/381/381
f 381/381/381 382/382/382 116/116/116
f 117/117/117 120/120/120 381/381/381
f 373/373/373 374/374/374 383/383/383
f 384/384/384 386/386/386 385/385/385
f 378/378/378 388/388/388 387/387/387
f 387/387/387 389/389/389 378/378/378
f 390/390/390 379/379/379 377/377/377
f 377/377/377 391/391/391 390/390/390
f 392/392/392 394/394/394 393/393/393
f 394/394/394 396/396/396 395/395/395
f 393/393/393 385/385/385 386/386/386
f 385/385/385 393/393/393 394/394/394
f 397/397/397 378/378/378 389/389/389
f 378/378/378 397/397/397 377/377/377
f 398/398/398 377/377/377 397/397/397
f 377/377/377 398/398/398 391/391/391
f 392/392/392 393/393/393 399/399/399
f 394/394/394 392/392/392 396/396/396
f 399/399/399 386/386/386 400/400/400
f 386/386/386 399/399/399 393/393/393
f 401/401/401 403/403/403 402/402/402
f 403/403/403 401/401/401 404/404/404
f 405/405/405 404/404/404 401/401/401
f 401/401/401 406/406/406 405/405/405
f 407/407/407 399/399/399 408/408/408
f 399/399/399 407/407/407 409/409/409
f 399/399/399 411/411/411 410/410/410
f 410/410/410 408/408/408 399/399/399
f 401/401/401 402/402/402 412/412/412
f 412/412/412 413/413/413 401/401/401
f 406/406/406 401/401/401 413/413/413
f 413/413/413 414/414/414 406/406/406
f 407/407/407 408/408/408 415/415/415
f 415/415/415 416/416/416 407/407/407
f 415/415/415 410/410/410 417/417/417
f 410/410/410 415/415/415 408/408/408
f 418/418/418 412/412/412 419/419/419
f 412/412/412 418/418/418 413/413/413
f 414/414/414 413/413/413 418/418/418
f 418/418/418 420/420/420 414/414/414
f 416/416/416 415/415/415 421/421/421
f 421/421/421 422/422/422 416/416/416
f 415/415/415 417/417/417 423/423/423
f 423/423/423 421/421/421 415/415/415
f 424/424/424 419/419/419 425/425/425
f 420/420/420 418/418/418 426/426/426
f 427/427/427 421/421/421 428/428/428
f 421/421/421 427/427/427 422/422/422
f 429/429/429 428/428/428 421/421/421
f 430/430/430 420/420/420 431/431/431
f 423/423/423 429/429/429 421/421/421
f 293/293/293 296/296/296 432/432/432
f 433/433/433 435/435/435 434/434/434
f 436/436/436 419/419/419 424/424/424
f 419/419/419 436/436/436 418/418/418
f 431/431/431 420/420/420 426/426/426
f 426/426/426 437/437/437 431/431/431
f 438/438/438 440/440/440 439/439/439
f 436/436/436 426/426/426 418/418/418
f 432/432/432 441/441/441 293/293/293
f 440/440/440 443/443/443 442/442/442
f 439/439/439 440/440/440 442/442/442
f 434/434/434 435/435/435 444/444/444
f 435/435/435 433/433/433 445/445/445
f 446/446/446 438/438/438 447/447/447
f 438/438/438 439/439/439 447/447/447
f 404/404/404 389/389/389 403/403/403
f 389/389/389 404/404/404 397/397/397
f 398/398/398 397/397/397 404/404/404
f 404/404/404 405/405/405 398/398/398
f 399/399/399 409/409/409 392/392/392
f 399/399/399 400/400/400 411/411/411
f 448/448/448 450/450/450 449/449/449
f 451/451/451 453/453/453 452/452/452
f 448/448/448 455/455/455 454/454/454
f 448/448/448 454/454/454 456/456/456
f 448/448/448 456/456/456 362/362/362
f 448/448/448 362/362/362 363/363/363
f 457/457/457 363/363/363 458/458/458
f 449/449/449 450/450/450 459/459/459
f 459/459/459 198/198/198 199/199/199
f 459/459/459 199/199/199 449/449/449
f 453/453/453 200/200/200 201/201/201
f 453/453/453 201/201/201 452/452/452
f 455/455/455 202/202/202 203/203/203
f 455/455/455 203/203/203 454/454/454
f 456/456/456 203/203/203 204/204/204
f 454/454/454 203/203/203 456/456/456
f 456/456/456 204/204/204 205/205/205
f 456/456/456 205/205/205 362/362/362
f 458/458/458 99/99/99 206/206/206
f 363/363/363 99/99/99 458/458/458
f 460/460/460 208/208/208 209/209/209
f 461/461/461 208/208/208 460/460/460
f 363/363/363 457/457/457 448/448/448
f 450/450/450 448/448/448 457/457/457
f 457/457/457 458/458/458 450/450/450
f 206/206/206 211/211/211 458/458/458
f 450/450/450 458/458/458 211/211/211
f 45/45/45 373/373/373 120/120/120
f 381/381/381 120/120/120 373/373/373
f 364/364/364 362/362/362 212/212/212
f 362/362/362 205/205/205 212/212/212
f 441/441/441 432/432/432 433/433/433
f 433/433/433 434/434/434 441/441/441
f 436/436/436 424/424/424 443/443/443
f 443/443/443 440/440/440 436/436/436
f 437/437/437 426/426/426 438/438/438
f 438/438/438 446/446/446 437/437/437
f 426/426/426 436/436/436 440/440/440
f 440/440/440 438/438/438 426/426/426
f 462/462/462 214/214/214 463/463/463
f 463/463/463 214/214/214 216/216/216
f 217/217/217 463/463/463 218/218/218
f 217/217/217 462/462/462 463/463/463
f 463/463/463 219/219/219 464/464/464
f 463/463/463 216/216/216 219/219/219
f 218/218/218 464/464/464 221/221/221
f 218/218/218 463/463/463 464/464/464
f 464/464/464 222/222/222 465/465/465
f 464/464/464 219/219/219 222/222/222
f 221/221/221 465/465/465 224/224/224
f 221/221/221 464/464/464 465/465/465
f 225/225/225 465/465/465 222/222/222
f 225/225/225 224/224/224 465/465/465
f 21/21/21 299/299/299 305/305/305
f 299/299/299 301/301/301 298/298/298
f 466/466/466 227/227/227 467/467/467
f 466/466/466 229/229/229 227/227/227
f 230/230/230 467/467/467 231/231/231
f 230/230/230 466/466/466 467/467/467
f 467/467/467 232/232/232 468/468/468
f 467/467/467 227/227/227 232/232/232
f 231/231/231 468/468/468 234/234/234
f 231/231/231 467/467/467 468/468/468
f 468/468/468 232/232/232 235/235/235
f 234/234/234 468/468/468 235/235/235
f 469/469/469 471/471/471 470/470/470
f 470/470/470 471/471/471 472/472/472
f 473/473/473 470/470/470 474/474/474
f 473/473/473 469/469/469 470/470/470
f 470/470/470 476/476/476 475/475/475
f 470/470/470 472/472/472 476/476/476
f 474/474/474 475/475/475 477/477/477
f 474/474/474 470/470/470 475/475/475
f 475/475/475 479/479/479 478/478/478
f 475/475/475 476/476/476 479/479/479
f 477/477/477 478/478/478 480/480/480
f 477/477/477 475/475/475 478/478/478
f 481/481/481 478/478/478 479/479/479
f 481/481/481 480/480/480 478/478/478
f 471/471/471 482/482/482 472/472/472
f 315/315/315 483/483/483 314/314/314
f 473/473/473 474/474/474 482/482/482
f 484/484/484 483/483/483 315/315/315
f 482/482/482 485/485/485 476/476/476
f 482/482/482 476/476/476 472/472/472
f 474/474/474 477/477/477 485/485/485
f 474/474/474 485/485/485 482/482/482
f 485/485/485 486/486/486 479/479/479
f 485/485/485 479/479/479 476/476/476
f 477/477/477 480/480/480 486/486/486
f 477/477/477 486/486/486 485/485/485
f 481/481/481 479/479/479 486/486/486
f 481/481/481 486/486/486 480/480/480
f 487/487/487 489/489/489 488/488/488
f 488/488/488 490/490/490 487/487/487
f 491/491/491 493/493/493 492/492/492
f 492/492/492 494/494/494 491/491/491
f 494/494/494 492/492/492 495/495/495
f 494/494/494 495/495/495 496/496/496
f 497/497/497 496/496/496 495/495/495
f 357/357/357 356/356/356 498/498/498
f 496/496/496 497/497/497 358/358/358
f 358/358/358 359/359/359 496/496/496
f 499/499/499 501/501/501 500/500/500
f 500/500/500 502/502/502 499/499/499
f 500/500/500 503/503/503 502/502/502
f 503/503/503 500/500/500 504/504/504
f 497/497/497 504/504/504 361/361/361
f 361/361/361 358/358/358 497/497/497
f 356/356/356 360/360/360 505/505/505
f 489/489/489 487/487/487 506/506/506
f 506/506/506 507/507/507 489/489/489
f 508/508/508 506/506/506 487/487/487
f 507/507/507 506/506/506 356/356/356
f 356/356/356 505/505/505 507/507/507
f 509/509/509 511/511/511 510/510/510
f 510/510/510 512/512/512 509/509/509
f 508/508/508 498/498/498 513/513/513
f 513/513/513 514/514/514 508/508/508
f 506/506/506 508/508/508 514/514/514
f 514/514/514 515/515/515 506/506/506
f 356/356/356 506/506/506 515/515/515
f 515/515/515 516/516/516 356/356/356
f 515/515/515 514/514/514 511/511/511
f 511/511/511 509/509/509 515/515/515
f 514/514/514 513/513/513 510/510/510
f 510/510/510 511/511/511 514/514/514
f 513/513/513 516/516/516 512/512/512
f 512/512/512 510/510/510 513/513/513
f 516/516/516 515/515/515 509/509/509
f 509/509/509 512/512/512 516/516/516
f 498/498/498 356/356/356 513/513/513
f 356/356/356 516/516/516 513/513/513
f 502/502/502 492/492/492 493/493/493
f 493/493/493 499/499/499 502/502/502
f 504/504/504 497/497/497 503/503/503
f 497/497/497 495/495/495 503/503/503
f 503/503/503 495/495/495 492/492/492
f 502/502/502 503/503/503 492/492/492

g gp02
# texture: gp02.tga
v 22.98245 181.5614 -62.81947
v 15.5088 184.3569 -51.12791
v 14.53682 119.9254 -18.98943
v 7.978518 181.4637 -36.64999
v 11.97597 130.2806 -19.42418
v 1.877256 176.7424 -23.79615
v 7.746784 139.0176 -16.18928
v 1.063372 173.667 -20.92595
v 6.273984 145.0621 -16.4813
v 18.36714 208.0515 -30.08049
v 10.12465 207.4583 -16.64811
v 13.52403 189.9356 -15.54534
v 6.499797 199.9508 -7.294327
v 7.572917 191.0393 -4.45205
v 8.308585 186.4581 -3.509223
v 13.55714 173.0381 -9.168343
v -12.09547 199.7838 -47.57669
v -14.9274 182.2137 -31.88634
v -19.35685 199.4569 -33.58075
v -22.56846 192.0615 -23.98968
v -21.90428 183.0391 -21.38231
v -21.21683 178.4448 -20.46726
v -13.62563 165.6605 -24.78081
vn 0.844065 0.229123 0.484828
vn 0.844065 0.229123 0.484828
vn 0.844089 0.229133 0.48478
vn 0.844065 0.229123 0.484828
vn 0.844089 0.229133 0.48478
vn 0.844065 0.229123 0.484828
vn 0.844089 0.229133 0.48478
vn 0.844065 0.229123 0.484828
vn 0.844089 0.229133 0.48478
vn 0.83226 0.194136 0.519282
vn 0.841869 0.195039 0.503207
vn 0.861291 0.206035 0.464466
vn 0.858299 0.220183 0.463511
vn 0.865696 0.237218 0.440794
vn 0.877349 0.197594 0.437283
vn 0.886771 0.164723 0.431862
vn -0.853777 -0.263428 -0.449078
vn -0.825818 -0.251871 -0.504565
vn -0.845023 -0.26286 -0.465662
vn -0.829246 -0.237833 -0.505753
vn -0.820412 -0.220375 -0.527598
vn -0.807136 -0.259589 -0.530232
vn -0.79397 -0.2915 -0.533516
vt 0.972 0.1725
vt 0.816 0.3751
vt 0.3166 0.0367
vt 0.5465 0.534
vt 0.2255 0.2033
vt 0.2815 0.6439
vt 0.073 0.3178
vt 0.1981 0.6392
vt 0.0206 0.4153
vt 0.7557 0.8083
vt 0.5609 0.9599
vt 0.3253 0.7611
vt 0.3132 0.9827
vt 0.1586 0.8934
vt 0.1089 0.8487
vt 0.043 0.6337
vt 0.7557 0.8083
vt 0.3253 0.7611
vt 0.5609 0.9599
vt 0.3132 0.9827
vt 0.1586 0.8934
vt 0.1089 0.8487
vt 0.043 0.6337
f 517/517/517 519/519/519 518/518/518
f 518/518/518 521/521/521 520/520/520
f 518/518/518 519/519/519 521/521/521
f 521/521/521 522/522/522 520/520/520
f 521/521/521 523/523/523 522/522/522
f 522/522/522 525/525/525 524/524/524
f 522/522/522 523/523/523 525/525/525
f 526/526/526 528/528/528 527/527/527
f 527/527/527 528/528/528 529/529/529
f 528/528/528 530/530/530 529/529/529
f 528/528/528 531/531/531 530/530/530
f 528/528/528 532/532/532 531/531/531
f 533/533/533 535/535/535 534/534/534
f 535/535/535 536/536/536 534/534/534
f 534/534/534 536/536/536 537/537/537
f 534/534/534 537/537/537 538/538/538
f 534/534/534 538/538/538 539/539/539
