# SteelDoor01.bmd — MU bind-pose geometry, exported for MU2
# 2 mesh(es)

g steel_barred_b
# texture: steel_barred_b.jpg
v 146.2348 356.4765 -0.043701
v 146.2348 331.9572 -6.704701
v 152.8957 331.9572 -0.0437
v 139.5738 331.9572 -0.043701
v 146.2348 331.9572 6.617199
v 146.2348 319.2233 -0.043701
v 5.256302 161.19 0.112887
v 146.0048 165.8307 -4.527801
v 5.256302 165.8307 -4.527813
v 146.0049 161.19 0.112899
v 146.0048 170.4713 0.112899
v 5.256302 170.4713 0.112887
v 146.0049 165.8306 4.753499
v 5.256302 165.8307 4.753587
v 5.256302 65.67499 0.492587
v 146.0049 70.3157 -4.148101
v 5.256302 70.3157 -4.148113
v 146.0049 65.67499 0.492599
v 146.0049 74.95639 0.492599
v 5.256302 74.9563 0.492587
v 146.0049 70.3157 5.133199
v 5.256302 70.3157 5.133187
v 141.3393 325.6844 0.112899
v 145.98 0.529999 -4.527801
v 145.98 325.6844 -4.527801
v 141.3393 0.529999 0.112899
v 150.6206 0.529999 0.1129
v 150.6206 325.6844 0.1129
v 145.98 0.529999 4.753499
v 145.98 325.6844 4.753599
v 5.256302 211.3636 0.112887
v 146.0049 216.0042 -4.527801
v 5.256302 216.0042 -4.527813
v 146.0049 211.3636 0.112899
v 146.0049 220.6449 0.112899
v 5.256302 220.6449 0.112887
v 146.0049 216.0042 4.753499
v 5.256302 216.0042 4.753587
v 0.557007 276.2223 0.112887
v 5.197693 0.453095 -4.527813
v 5.197693 276.2223 -4.527813
v 0.557007 0.453095 0.112887
v 9.838303 0.453095 0.112888
v 9.838394 276.2223 0.112888
v 5.197693 0.453095 4.753587
v 5.197693 276.2223 4.753587
v 5.110703 306 -0.043713
v 5.110703 281.4807 -6.704713
v 11.7717 281.4807 -0.043712
v -1.550201 281.4807 -0.043713
v 5.110703 281.4807 6.617287
v 5.110703 268.7469 -0.043713
vn 0 1 -0
vn 0 -0.115797 -0.993273
vn 0.993273 -0.115797 0
vn -0.993273 -0.115797 -0
vn -0 -0.115797 0.993273
vn 0 -1 -0
vn 0 -0.948693 -0.316198
vn 0 -0.316198 -0.948693
vn 0 0.316198 -0.948693
vn -0 -0.948693 0.316198
vn 0 0.948693 -0.316198
vn -0 0.948693 0.316198
vn -0 0.316198 0.948693
vn -0 -0.316198 0.948693
vn 0 -0.948693 -0.316198
vn 0 -0.316198 -0.948693
vn 0 0.316198 -0.948693
vn -0 -0.948693 0.316198
vn 0 0.948693 -0.316198
vn -0 0.948693 0.316198
vn -0 0.316198 0.948693
vn -0 -0.316198 0.948693
vn -0.948693 0 -0.316198
vn -0.316198 0 -0.948693
vn 0.316198 0 -0.948693
vn -0.948693 0 0.316198
vn 0.948693 0 -0.316198
vn 0.948693 0 0.316198
vn 0.316198 0 0.948693
vn -0.316198 0 0.948693
vn 0 -0.948693 -0.316198
vn 0 -0.316198 -0.948693
vn 0 0.316198 -0.948693
vn -0 -0.948693 0.316198
vn 0 0.948693 -0.316198
vn -0 0.948693 0.316198
vn -0 0.316198 0.948693
vn -0 -0.316198 0.948693
vn -0.948693 0 -0.316198
vn -0.316198 0 -0.948693
vn 0.316198 0 -0.948693
vn -0.948693 0 0.316198
vn 0.948693 0 -0.316198
vn 0.948693 0 0.316198
vn 0.316198 0 0.948693
vn -0.316198 0 0.948693
vn 0 1 -0
vn 0 -0.115797 -0.993273
vn 0.993273 -0.115797 0
vn -0.993273 -0.115797 -0
vn -0 -0.115797 0.993273
vn 0 -1 -0
vt 0.7687 0.9742
vt 0.7687 0.5279
vt 0.8813 0.5279
vt 0.6561 0.5279
vt 0.7687 0.5279
vt 0.7687 0.2451
vt 0.1258 0.9942
vt 0.2649 0.0051
vt 0.2649 0.9942
vt 0.1258 0.0051
vt 0.404 0.0051
vt 0.404 0.9942
vt 0.2649 0.0051
vt 0.2649 0.9942
vt 0.1217 0.9942
vt 0.2608 0.0051
vt 0.2608 0.9942
vt 0.1217 0.0051
vt 0.3999 0.0051
vt 0.3999 0.9942
vt 0.2608 0.0051
vt 0.2608 0.9942
vt 0.1183 0.9903
vt 0.2594 -0.0003
vt 0.2594 0.9903
vt 0.1183 -0.0003
vt 0.4004 -0.0003
vt 0.4004 0.9903
vt 0.2594 -0.0003
vt 0.2594 0.9903
vt 0.1162 0.9942
vt 0.2553 0.0051
vt 0.2553 0.9942
vt 0.1162 0.0051
vt 0.3944 0.0051
vt 0.3944 0.9942
vt 0.2553 0.0051
vt 0.2553 0.9942
vt 0.1177 0.9899
vt 0.2588 0.0024
vt 0.2588 0.9899
vt 0.1177 0.0024
vt 0.3998 0.0024
vt 0.3998 0.9899
vt 0.2588 0.0024
vt 0.2588 0.9899
vt 0.7727 0.9864
vt 0.7727 0.5401
vt 0.8853 0.5401
vt 0.6601 0.5401
vt 0.7727 0.5401
vt 0.7727 0.2572
f 1/1/1 3/3/3 2/2/2
f 1/1/1 2/2/2 4/4/4
f 1/1/1 4/4/4 5/5/5
f 1/1/1 5/5/5 3/3/3
f 6/6/6 2/2/2 3/3/3
f 6/6/6 4/4/4 2/2/2
f 6/6/6 5/5/5 4/4/4
f 6/6/6 3/3/3 5/5/5
f 7/7/7 9/9/9 8/8/8
f 8/8/8 10/10/10 7/7/7
f 9/9/9 12/12/12 11/11/11
f 11/11/11 8/8/8 9/9/9
f 12/12/12 14/14/14 13/13/13
f 13/13/13 11/11/11 12/12/12
f 14/14/14 7/7/7 10/10/10
f 10/10/10 13/13/13 14/14/14
f 15/15/15 17/17/17 16/16/16
f 16/16/16 18/18/18 15/15/15
f 17/17/17 20/20/20 19/19/19
f 19/19/19 16/16/16 17/17/17
f 20/20/20 22/22/22 21/21/21
f 21/21/21 19/19/19 20/20/20
f 22/22/22 15/15/15 18/18/18
f 18/18/18 21/21/21 22/22/22
f 23/23/23 25/25/25 24/24/24
f 24/24/24 26/26/26 23/23/23
f 25/25/25 28/28/28 27/27/27
f 27/27/27 24/24/24 25/25/25
f 28/28/28 30/30/30 29/29/29
f 29/29/29 27/27/27 28/28/28
f 30/30/30 23/23/23 26/26/26
f 26/26/26 29/29/29 30/30/30
f 31/31/31 33/33/33 32/32/32
f 32/32/32 34/34/34 31/31/31
f 33/33/33 36/36/36 35/35/35
f 35/35/35 32/32/32 33/33/33
f 36/36/36 38/38/38 37/37/37
f 37/37/37 35/35/35 36/36/36
f 38/38/38 31/31/31 34/34/34
f 34/34/34 37/37/37 38/38/38
f 39/39/39 41/41/41 40/40/40
f 40/40/40 42/42/42 39/39/39
f 41/41/41 44/44/44 43/43/43
f 43/43/43 40/40/40 41/41/41
f 44/44/44 46/46/46 45/45/45
f 45/45/45 43/43/43 44/44/44
f 46/46/46 39/39/39 42/42/42
f 42/42/42 45/45/45 46/46/46
f 47/47/47 49/49/49 48/48/48
f 47/47/47 48/48/48 50/50/50
f 47/47/47 50/50/50 51/51/51
f 47/47/47 51/51/51 49/49/49
f 52/52/52 48/48/48 49/49/49
f 52/52/52 50/50/50 48/48/48
f 52/52/52 51/51/51 50/50/50
f 52/52/52 49/49/49 51/51/51

g steel_barred_door
# texture: steel_barred_door.tga
v 5.256302 0.529694 0.368687
v 146.0049 325.712 0.368599
v 146.0049 0.529694 0.368699
v 5.256302 325.712 0.368587
vn -0 0 1
vn -0 0 1
vn -0 0 1
vn -0 0 1
vt 0.0005 0.0005
vt 0.9995 0.9995
vt 0.9995 0.0005
vt 0.0005 0.9995
f 53/53/53 55/55/55 54/54/54
f 54/54/54 56/56/56 53/53/53
