# Tree02.bmd — MU bind-pose geometry, exported for MU2
# 2 mesh(es)

g tree
# texture: tree.jpg
v 183.287 -4.3811 -78.4984
v 186.0332 -4.3811 -97.9388
v 176.1172 13.6681 -83.6288
v -121.1654 1.2015 -173.2943
v -122.4161 -1.0513 -140.1656
v -90.8694 14.1927 -109.78
v -188.5129 -2.1559 -13.8394
v -207.511 -0.5055 0.0011
v -178.0677 7.7913 -8.6758
v -174.1264 0.1922 149.9023
v -131.7712 0.1922 145.0491
v -126.5996 10.5682 123.4592
v 132.0458 -2.4391 104.8746
v 159.1029 -2.4391 93.6426
v 133.9588 12.3331 94.1951
v 70.4637 86.2088 4.4962
v 61.2528 148.0255 -45.2453
v 74.7606 143.3457 20.1107
v 41.8527 114.8211 -55.0794
v 1.7407 167.577 -75.1438
v 41.8527 114.8211 -55.0794
v -18.4997 117.5318 -78.8866
v 1.7407 167.577 -75.1438
v -58.9662 146.9886 -47.068
v -81.8175 115.3214 -41.3332
v -75.1448 144.0679 17.8374
v -67.0775 99.1108 34.2517
v -34.6218 137.2343 70.6991
v -34.1338 110.893 65.7992
v 32.0923 131.6336 71.7109
v 24.47 86.0532 65.6279
v 25.4045 236.4718 -75.8259
v 65.8424 236.4721 -25.3369
v 61.2528 148.0255 -45.2453
v -39.2906 236.4722 -75.6646
v 25.4045 236.4718 -75.8259
v -79.5012 236.4727 -24.9834
v -64.948 236.473 38.0539
v -6.5897 236.4726 65.9788
v 51.6098 236.4722 37.7449
v 18.5372 318.6491 -66.6212
v 63.212 312.6726 -22.2485
v -23.8892 312.6727 -75.3882
v 18.5372 318.6491 -66.6212
v -77.3243 312.6718 -5.8865
v -56.2736 312.6726 53.4541
v 3.2217 312.6727 74.0229
v 56.3978 312.6727 40.3322
v 18.8923 368.8468 -64.1888
v 66.1973 356.5881 -30.9891
v 69.53338 579.5489 -247.0533
v 55.20736 588.4769 -246.3868
v 66.61717 587.2385 -238.5756
v 58.28016 557.1609 -235.923
v -73.0842 356.6767 -14.7683
v -40.0729 367.5672 -67.7322
v -52.2273 356.6655 44.037
v 6.7271 356.6259 64.4189
v 71.8243 364.8498 31.0343
v 36.4732 402.451 -53.1072
v 62.0484 402.4338 -0
v 18.8923 368.8468 -64.1888
v -20.9934 402.4897 -66.2237
v 36.4732 402.451 -53.1072
v -77.6124 396.9041 1.0202
v -245.1765 545.0378 143.9841
v -242.3005 544.366 151.7209
v -240.3047 545.355 147.1442
v -247.306 544.0516 148.8864
v -20.9935 402.4897 66.2237
v -58.7803 386.5461 42.146
v 35.90969 401.4541 53.1072
v 50.3144 457.0542 -29.45
v 31.1016 457.2767 27.7634
v 6.3838 457.0838 -47.0725
v 6.3838 457.0838 -47.0725
v -49.68081 457.1215 -35.5932
v -75.66171 457.1389 15.3971
v -26.745 469.1949 62.2259
v 3.4985 457.0857 62.4314
v 271.2298 708.9268 -41.41012
v 277.4942 708.9246 -38.75092
v 277.2139 700.4722 -41.12241
v -28.2024 497.3953 -0
v 50.3144 457.0542 -29.45
v 267.2435 708.9241 -35.89452
v 273.0575 717.1452 -36.94552
v -30.2636 30.883 93.1874
v -10.3466 34.4583 124.05
v -5.872 44.9965 103.4069
v 22.2572 35.0547 108.1513
v 24.2848 49.2073 59.0459
v 40.5751 -0.1849 157.7375
v 13.3943 28.4478 151.6057
v -73.2075 49.2073 34.9089
v -103.0794 -4.9307 90.4303
v -87.338 31.7581 96.9705
v -75.5894 31.7581 102.6279
v -83.5905 -4.9307 132.9992
v 79.7385 49.2073 0.0001
v 90.6276 23.9157 66.3139
v 100.9144 -3.4129 67.0578
v 85.1309 23.9157 89.1799
v 86.36 -3.4129 98.8832
v 117.3033 41.5291 -45.1141
v 120.0154 26.0142 -62.701
v 120.8043 0.2969 -41.6125
v 49.4493 49.2063 -62.9065
v 120.485 0.2969 -73.8619
v 164.6282 12.8236 -65.9316
v 160.5937 12.8236 -72.2192
v 173.9221 -5.2257 -64.7766
v 160.2734 -5.2257 -77.4155
v 12.5872 22.251 -129.2061
v -11.4674 22.2513 -115.4735
v 30.5724 -3.559 -102.8251
v 12.5872 22.251 -129.2061
v -18.6229 49.206 -78.4434
v -7.2455 -3.5592 -111.4567
v -16.1004 0.2937 -169.855
v 30.5724 -3.559 -102.8251
v -54.9206 18.0795 -89.1514
v -89.4097 34.5076 -81.1823
v -49.3495 1.8739 -84.9475
v -73.2075 49.2073 -34.9089
v -87.3586 1.8744 -59.6374
v -112.1431 33.5496 -17.7654
v -114.3216 38.7849 21.1496
v -104.3861 6.7824 -5.6788
v -110.0914 24.5512 34.1985
v -153.7059 17.3836 -17.8665
v -151.3824 17.3836 -6.9877
v -138.9446 -0.3409 -24.2713
v -140.3718 -0.341 10.074
v 6.3838 457.0838 -47.0725
v -49.68081 457.1215 -35.5932
v -122.1058 567.7751 13.9341
v -106.9313 561.0737 6.390802
v -49.68081 457.1215 -35.5932
v -75.66171 457.1389 15.3971
v -131.2284 548.5869 43.6503
v -122.1058 567.7751 13.9341
v -26.745 469.1949 62.2259
v -106.9314 561.0738 64.47771
v -28.2024 497.3953 -0
v -101.4304 563.0295 25.9692
v -129.8763 598.5152 32.7425
v -116.3281 599.7621 33.9534
v -129.8762 598.5151 56.15931
v -167.1052 683.8471 235.6721
v -156.9931 685.1274 229.2639
v -164.2335 701.1273 235.8779
v 31.1016 457.2767 27.7634
v 50.3144 457.0542 -29.45
v 78.09828 525.9547 4.010406
v 96.17659 520.4681 15.0411
v -26.745 469.1949 62.2259
v 3.4985 457.0857 62.4314
v 19.1672 525.9413 49.6103
v 19.05571 528.6541 45.2251
v 50.3144 457.0542 -29.45
v -28.2024 497.3953 -0
v 44.95159 535.0363 -6.694786
v 78.09828 525.9547 4.010406
v 169.8881 597.2047 -20.97671
v 136.7891 571.0779 15.67359
v 103.7401 578.7315 -10.7352
v 169.8881 597.2047 -20.97671
v 79.1142 580.426 23.87521
v 114.3287 573.9044 29.89439
v 206.087 614.4459 -18.39841
v 206.1917 609.8569 0.764595
v 184.5814 613.3607 -7.105606
v 261.9391 694.373 -100.6292
v 268.251 695.7535 -104.5845
v 241.1087 666.9678 -107.344
v 174.9442 618.4409 11.3491
v 192.332 612.4948 14.00401
v 174.9442 618.4409 11.3491
v 249.1041 645.8177 -14.87022
v 249.7019 645.8096 -2.254524
v 184.5814 613.3607 -7.105606
v 236.3048 645.8145 -7.941513
v 227.7794 645.8082 3.854301
v 240.212 645.8061 6.078285
v -73.0842 356.6767 -14.7683
v -52.2273 356.6655 44.037
v -187.8192 419.7461 89.9931
v -187.532 430.4522 95.82329
v -77.6124 396.9041 1.0202
v -158.1408 432.9674 84.7854
v -58.7803 386.5461 42.146
v -168.2307 421.2171 101.3548
v -191.9051 462.972 89.0392
v -197.5352 450.122 101.9312
v -205.6522 452.0313 80.12109
v -211.6058 449.0653 93.76999
v -329.6013 536.449 52.20209
v -326.4362 541.9608 44.65228
v -322.8486 527.649 48.93929
v -218.962 502.4778 99.6644
v -221.8773 492.3719 106.335
v -226.0785 493.3601 95.04661
v -229.1599 491.8249 102.1109
v 18.5372 318.6491 -66.6212
v -23.8892 312.6727 -75.3882
v 34.44087 395.2834 -173.1225
v 34.44087 395.2834 -173.1225
v 57.97658 385.0087 -153.7424
v 18.8923 368.8468 -64.1888
v 42.92307 404.8092 -142.213
v -40.0729 367.5672 -67.7322
v 42.92307 404.8092 -142.213
v 16.43287 411.3697 -159.4793
v 49.46607 454.4077 -164.2363
v 32.94187 500.6259 -175.8442
v 59.26097 444.8634 -176.6209
v 42.57967 430.9039 -188.3724
v 52.07687 502.1873 -177.6393
v 62.18728 494.1291 -186.324
v 49.07697 508.6864 -205.6427
v 40.25597 515.7556 -189.9354
v -205.6522 452.0313 80.12109
v -187.532 430.4522 95.82329
v -245.5126 456.225 62.7066
v -248.1649 474.4788 60.40118
v -211.6058 449.0653 93.76999
v -247.7946 465.8357 71.63349
v -211.6058 449.0653 93.76999
v 206.087 614.4459 -18.39841
v 169.8881 597.2047 -20.97671
v 219.1602 637.4807 -102.7789
v 246.945 644.3251 -103.1531
v 184.5814 613.3607 -7.105606
v 238.1737 646.8608 -92.41061
v -4.223236 629.3679 -103.0016
v -0.217819 627.312 -111.6202
v -7.462814 618.8766 -115.4066
v 32.94187 500.6259 -175.8442
v 52.07687 502.1873 -177.6393
v 22.67667 560.8934 -136.6301
v 14.18947 542.233 -143.8153
v 40.25597 515.7556 -189.9354
v 15.52007 561.0961 -146.366
v 238.1737 646.8608 -92.41061
v 219.1602 637.4807 -102.7789
v -131.2284 548.5869 43.6503
v -106.9314 561.0738 64.47771
v -139.6313 624.0911 148.6943
v -155.6445 612.6721 148.014
v -129.8762 598.5151 56.15931
v -156.4908 626.2567 139.0288
v -138.8183 644.5776 191.1113
v -154.1658 641.771 196.1908
v -152.8402 649.316 186.0247
v -189.7395 721.693 81.358
v -189.7394 721.6929 89.9069
v -195.0092 737.9134 83.1896
v -149.7251 667.528 37.2556
v -142.4313 668.4576 45.13041
v -149.7257 667.529 56.38611
v -54.05382 594.9855 -218.3808
v -51.96873 590.7581 -221.0431
v -59.09624 592.1387 -219.7113
v -59.25562 597.4535 -216.5405
v -52.22693 599.3571 -215.9125
v -47.72302 595.2194 -218.6955
v 5.6595 358.4456 -31.5639
v -16.7418 393.6088 -10.3586
v -14.8613 423.7778 -15.587
v 5.200001 404.9159 -34.8668
v -20.8443 393.6131 14.0862
v -19.9292 435.5349 7.7065
v -98.69341 560.9873 336.3114
v -90.50671 562.0228 337.5157
v -90.77662 567.0804 332.3271
v -98.96332 566.0449 331.1229
v 218.5907 509.4061 220.6729
v 221.4032 513.1736 213.5725
v 219.1179 518.5093 215.3307
v 214.6638 519.0144 220.1523
v 23.4199 392.4726 -3.8847
v 5.6595 358.4456 -31.5639
v 5.200001 404.9159 -34.8668
v 28.808 423.5785 -6.199
v 5.200001 404.9159 -34.8668
v -14.8613 423.7778 -15.587
v -20.05441 481.8806 -57.24827
v 4.987274 479.1125 -64.68948
v -19.9292 435.5349 7.7065
v -20.05171 493.2987 -35.24036
v 12.9105 435.5127 13.2019
v -6.970612 494.3839 -36.76758
v 28.808 423.5785 -6.199
v 9.05719 488.8191 -44.13409
v 28.808 423.5785 -6.199
v 4.987274 479.1125 -64.68948
v -20.8443 393.6131 14.0862
v 11.6256 372.8409 33.1573
v 1.161901 435.0243 149.6432
v -32.71341 431.3198 124.8517
v -19.9292 435.5349 7.7065
v -32.7938 449.4429 123.0834
v 12.9105 435.5127 13.2019
v -3.440399 453.1505 127.3988
v -27.33569 485.4178 221.0006
v -49.9146 482.5621 217.6794
v -28.08011 499.3669 206.691
v -50.65901 496.5113 203.3697
v -50.65901 496.5113 203.3697
v -51.4804 495.0479 233.5004
v -66.2326 493.1821 231.3304
v -51.9621 515.1215 224.1572
v -51.9621 515.1215 224.1572
v -66.71431 513.2556 221.9871
v -165.6011 560.5759 181.3211
v -165.3744 556.3295 185.6768
v -172.0989 561.802 190.5181
v -172.2484 564.6039 187.6437
v -41.4966 501.6361 -103.5547
v -27.87453 498.8945 -106.1092
v -41.79224 511.6828 -97.50906
v -28.36693 515.3192 -96.31008
v -19.76534 507.4156 -101.6252
v -43.85532 513.705 -136.5776
v -30.24184 511.0677 -139.1215
v -44.15953 523.8561 -130.5215
v -111.896 582.0151 -145.963
v -107.314 583.2564 -145.5539
v -108.1219 587.4108 -156.8209
v -112.7039 586.1697 -157.2301
v -22.13263 519.5889 -134.6375
v -30.73421 527.4925 -129.3224
v -19.76534 507.4156 -101.6252
v -22.13263 519.5889 -134.6375
v -51.96873 590.7581 -221.0431
v -41.79224 511.6828 -97.50906
v -28.36693 515.3192 -96.31008
v -67.75633 548.7305 -127.2995
v -67.75633 548.7305 -127.2995
v -72.35593 542.1713 -130.349
v -44.15953 523.8561 -130.5215
v -73.14243 546.2155 -141.3165
v -30.73421 527.4925 -129.3224
v -68.68213 547.4236 -140.9182
v -107.314 583.2564 -145.5539
v -111.896 582.0151 -145.963
v -108.1219 587.4108 -156.8209
v -112.7039 586.1697 -157.2301
v 11.6256 372.8409 33.1573
v 23.4199 392.4726 -3.8847
v 112.6083 400.4764 61.9731
v 112.6083 400.4764 61.9731
v 101.8016 389.2183 85.5559
v 28.808 423.5785 -6.199
v 91.307 398.5985 61.8382
v 12.9105 435.5127 13.2019
v 73.05169 397.2112 73.7859
v 153.2681 424.3978 109.4378
v 144.553 415.3187 128.4561
v 91.307 398.5985 61.8382
v 141.9131 436.0098 109.329
v 127.1908 434.8909 118.9641
v 164.4863 434.242 122.4384
v 155.7713 425.1629 141.4568
v 252.7601 508.9199 59.059
v 251.0118 513.0024 60.4045
v 255.6813 513.6863 63.5201
v 257.4302 509.6038 62.17509
v 138.4093 444.7352 131.9648
v 153.1313 445.8541 122.3296
v 153.1313 445.8541 122.3296
v 164.4863 434.242 122.4384
v 206.7102 451.2412 86.0575
v 199.1402 458.9825 85.98499
v 153.2681 424.3978 109.4378
v 141.9131 436.0098 109.329
v 191.6613 452.4198 77.3179
v 191.6613 452.4198 77.3179
v 199.2313 444.6784 77.3904
v 153.2681 424.3978 109.4378
v 199.2313 444.6784 77.3904
v 206.7102 451.2412 86.0575
v 190.9627 465.9538 156.8259
v 187.3092 461.0563 166.0586
v 187.9855 472.8894 159.1062
v 182.1862 473.5456 165.3665
v -74.81131 534.4704 271.5458
v -89.71101 532.5859 269.354
v -75.30251 543.6756 262.103
v -90.20221 541.791 259.9112
v -75.30251 543.6756 262.103
v -66.71431 513.2556 221.9871
v -90.20221 541.791 259.9112
v -90.50671 562.0228 337.5157
v -98.69341 560.9873 336.3114
v -74.81131 534.4704 271.5458
v -50.65901 496.5113 203.3697
v -49.9146 482.5621 217.6794
v -105.9827 508.8351 190.4132
v -106.2885 514.5654 184.5349
v -66.2326 493.1821 231.3304
v -115.0574 516.22 196.9464
v -66.71431 513.2556 221.9871
v -115.2545 530.9609 193.0734
v -66.71431 513.2556 221.9871
v -115.2545 530.9609 193.0734
v 19.8567 87.9817 32.3071
v 44.6652 4.9366 44.6311
v 47.1918 1.8231 34.9788
v 48.5419 50.8123 27.1645
v 38.4778 75.471 -12.2668
v 60.8167 19.9646 10.2465
v 48.0432 0.8569 -19.5548
v 102.8616 0.8042 2.5252
v 91.0838 0.826901 20.374
v -2.7891 0.1349 -53.2222
v 3.2777 49.8876 -45.0903
v 34.8952 2.2505 -52.2582
v 32.7405 0.1283 -62.4064
v 49.436 36.7805 -51.6137
v 56.1399 1.083 -48.3465
v 49.5423 1.3244 -85.6177
v -39.8424 76.8303 -20.5966
v 3.2777 49.8876 -45.0903
v -25.3162 24.3867 -61.3201
v -37.3554 24.4783 -57.504
v -2.7891 0.1349 -53.2222
v -30.6342 0.4408 -71.704
v -41.8178 0.136 -20.4718
v -44.715 0.4412 -52.5303
v -58.8765 0.8382 -81.6072
v -29.061 57.63029 27.2796
v -35.4 33.6942 -12.991
v -43.2134 34.9418 9.9938
v -62.3833 0.3317 2.2014
v -30.7067 0.136 33.1555
v -48.1461 1.8467 21.0261
v -82.4932 1.0867 19.0946
v -0.3255 42.4512 54.8915
v 15.2457 42.4512 50.3479
v -38.5889 1.9682 64.0857
v 22.8365 1.9682 59.8913
v -41.092 0.6783 106.3533
vn 0.813905 0.425602 0.395502
vn 0.316019 0.689942 -0.651239
vn 0.168297 0.923282 -0.345293
vn 0.147797 0.917284 -0.369793
vn -0.535328 0.833343 0.137707
vn -0.466208 0.877416 -0.113102
vn -0.375793 0.577089 -0.725086
vn -0.2828 0.958201 -0.0433
vn -0.371293 0.925681 0.072499
vn -0.070702 0.937725 0.340109
vn 0.129504 0.881224 0.454613
vn 0.111498 0.767489 0.631291
vn 0.085802 0.490309 0.867315
vn 0.506821 0.861336 0.035101
vn 0.464702 0.884803 0.0343
vn 0.944365 0.243591 0.220992
vn 0.717215 -0.0072 -0.696815
vn 0.985673 0.005 0.168595
vn 0.644035 0.241313 -0.725939
vn -0.064199 0.033199 -0.997385
vn 0.644035 0.241313 -0.725939
vn -0.211907 0.187006 -0.959231
vn -0.064199 0.033199 -0.997385
vn -0.8151 0.2019 -0.543
vn -0.786972 0.187593 -0.587779
vn -0.919001 0.1505 0.3644
vn -0.896226 0.260007 0.35941
vn -0.347712 0.042602 0.936633
vn -0.202206 0.31901 0.925929
vn 0.472482 0.0114 0.881267
vn 0.411913 0.228807 0.882029
vn 0.522391 0.0059 -0.852686
vn 0.983543 0.051402 -0.173208
vn 0.717215 -0.0072 -0.696815
vn -0.362399 -0.0246 -0.931698
vn 0.522391 0.0059 -0.852686
vn -0.962635 -0.079703 -0.258809
vn -0.807298 -0.077 0.585099
vn -0.042299 -0.047499 0.997975
vn 0.757237 0.0034 0.653132
vn 0.676666 -0.243488 -0.694865
vn 0.937891 -0.0393 -0.344697
vn -0.530422 -0.172807 -0.829934
vn 0.676666 -0.243488 -0.694865
vn -0.981949 0.103995 -0.157992
vn -0.717403 0.0878 0.691103
vn 0.0798 0.0056 0.996795
vn 0.844506 -0.118801 0.522204
vn 0.749879 0.253493 -0.611083
vn 0.917952 -0.0094 -0.396579
vn 0.86271 0.087301 -0.498106
vn -0.67651 0.218703 -0.70321
vn 0.339706 0.796613 0.500008
vn -0.025599 -0.49068 -0.870964
vn -0.86934 -0.035702 -0.492923
vn -0.7176 0.4523 -0.5296
vn -0.527517 -0.227107 0.818626
vn 0.030399 0.072998 0.996869
vn 0.820505 0.091901 0.564204
vn 0.562379 0.181693 -0.80667
vn 0.955385 0.293896 0.0294
vn 0.749879 0.253493 -0.611083
vn -0.220201 0.230201 -0.947903
vn 0.562379 0.181693 -0.80667
vn -0.75689 0.402495 -0.514893
vn -0.310104 0.876211 -0.368905
vn -0.0123 0.284104 0.958715
vn 0.739494 0.656895 0.147099
vn -0.988288 0.152598 -0.0012
vn -0.161204 -0.028001 0.986524
vn -0.251088 0.324485 0.911957
vn 0.599582 0.202094 0.774377
vn 0.695991 0.310196 -0.647592
vn 0.948373 -0.129996 0.289292
vn 0.092803 0.458515 -0.883828
vn 0.092803 0.458515 -0.883828
vn -0.69321 0.018 -0.720511
vn -0.90047 -0.247992 0.357288
vn -0.267798 0.397197 0.877792
vn 0.38962 0.0074 0.920946
vn -0.320992 0.149696 -0.935177
vn 0.9638 0.2596 0.0608
vn 0.759865 -0.270188 -0.591273
vn 0.142294 0.945963 -0.291389
vn 0.695991 0.310196 -0.647592
vn -0.839492 0.349097 -0.416396
vn -0.301603 0.942111 0.146502
vn -0.185693 0.425784 0.885566
vn -0.449498 0.436098 0.779596
vn 0.241693 0.783777 0.572083
vn 0.6445 0.683 0.3437
vn 0.680185 0.333693 0.652685
vn 0.482404 0.576604 0.659405
vn 0.0191 0.829893 0.557595
vn -0.741636 0.326416 0.586028
vn -0.876996 0.312498 -0.364998
vn -0.536321 0.724529 0.432917
vn -0.029002 0.633935 0.772843
vn 0.148301 0.712903 0.685403
vn 0.947777 0.254894 0.191695
vn 0.835696 0.529098 -0.147199
vn 0.688774 0.425084 -0.587278
vn 0.306013 0.675929 0.670429
vn -0.272908 0.186306 0.943828
vn 0.743806 0.605105 0.283902
vn 0.223392 0.606478 -0.763073
vn 0.666908 0.118801 0.735609
vn 0.351415 0.24741 -0.902937
vn -0.0001 0.358597 -0.933492
vn 0.518033 0.826952 0.218614
vn -0.120799 0.708597 -0.695197
vn 0.579512 0.293406 0.760315
vn -0.429201 0.268101 -0.862502
vn 0.3562 0.481999 -0.800499
vn -0.91696 0.22529 -0.329286
vn 0.830516 0.087302 -0.550111
vn 0.3562 0.481999 -0.800499
vn -0.814606 -0.082601 -0.574104
vn -0.987104 -0.155701 0.0372
vn -0.313497 0.661894 -0.680894
vn 0.830516 0.087302 -0.550111
vn 0.203806 0.517715 -0.830924
vn -0.873866 0.415884 -0.25179
vn 0.500814 0.0074 -0.865524
vn -0.996562 -0.043698 -0.070397
vn -0.922982 0.320594 0.212896
vn -0.399315 0.472417 -0.785729
vn -0.613675 0.664273 0.426783
vn 0.061699 -0.273894 -0.959779
vn -0.607989 0.387093 0.693187
vn -0.4124 0.7781 -0.4738
vn -0.569907 0.648908 0.504107
vn 0.067998 0.073598 -0.994967
vn -0.378416 0.590125 0.71313
vn 0.092803 0.458515 -0.883828
vn -0.69321 0.018 -0.720511
vn -0.730587 0.045699 -0.681288
vn 0.329583 0.683064 -0.651766
vn -0.69321 0.018 -0.720511
vn -0.90047 -0.247992 0.357288
vn -0.813695 -0.571096 0.108399
vn -0.730587 0.045699 -0.681288
vn -0.267798 0.397197 0.877792
vn 0.695394 0.294097 0.655694
vn 0.142294 0.945963 -0.291389
vn 0.740424 0.647921 -0.178806
vn -0.579409 0.162802 -0.798612
vn 0.814006 0.446603 -0.371403
vn -0.780123 0.471414 0.411312
vn -0.60457 -0.39718 0.690466
vn 0.693485 -0.222095 0.685385
vn 0.648096 0.755896 -0.092699
vn 0.948373 -0.129996 0.289292
vn 0.695991 0.310196 -0.647592
vn 0.395288 -0.388888 -0.832174
vn 0.717194 -0.647595 0.257398
vn -0.267798 0.397197 0.877792
vn 0.38962 0.0074 0.920946
vn 0.064503 0.190108 0.979642
vn -0.546373 0.771161 0.326784
vn 0.695991 0.310196 -0.647592
vn 0.142294 0.945963 -0.291389
vn -0.299694 0.54379 -0.783885
vn 0.395288 -0.388888 -0.832174
vn 0.128399 -0.324599 -0.937096
vn 0.555019 -0.711524 0.430915
vn -0.314315 0.554926 -0.770236
vn 0.128399 -0.324599 -0.937096
vn -0.411008 0.822616 0.392908
vn 0.191801 0.0213 0.981203
vn 0.447694 -0.664092 -0.598792
vn 0.568603 -0.767704 0.295502
vn -0.282404 0.921011 -0.268303
vn -0.62427 0.659668 0.41848
vn 0.989498 0.03 -0.1414
vn -0.367509 0.296407 -0.881521
vn -0.33408 0.867448 0.368678
vn 0.27971 -0.144605 0.949132
vn -0.33408 0.867448 0.368678
vn 0.268295 -0.548289 -0.792084
vn 0.772424 -0.457214 0.440814
vn -0.282404 0.921011 -0.268303
vn -0.613485 0.379791 -0.692383
vn -0.646528 0.757633 0.089404
vn 0.289186 0.21309 0.933255
vn -0.86934 -0.035702 -0.492923
vn -0.527517 -0.227107 0.818626
vn -0.625774 -0.736069 0.258089
vn -0.476607 -0.124102 -0.870313
vn -0.75689 0.402495 -0.514893
vn 0.446085 0.849372 -0.282091
vn -0.251088 0.324485 0.911957
vn 0.320005 0.085901 0.943514
vn 0.67588 0.712579 -0.188195
vn 0.121702 -0.03 0.992113
vn -0.0822 0.0205 -0.996405
vn -0.627897 0.0009 0.778296
vn -0.774024 -0.454014 0.441314
vn 0.1195 0.880102 -0.459501
vn -0.479502 -0.485502 -0.731003
vn 0.714219 0.685818 -0.139804
vn 0.297913 -0.259512 0.918641
vn -0.551362 0.248983 -0.796246
vn -0.842392 -0.503195 0.192798
vn 0.676666 -0.243488 -0.694865
vn -0.530422 -0.172807 -0.829934
vn -0.297199 -0.501197 -0.812696
vn -0.297199 -0.501197 -0.812696
vn 0.958857 -0.242689 -0.147294
vn 0.749879 0.253493 -0.611083
vn 0.397906 0.622509 0.67391
vn -0.7176 0.4523 -0.5296
vn 0.397906 0.622509 0.67391
vn -0.927749 0.36778 0.063397
vn 0.367598 0.243299 0.897595
vn -0.886678 -0.202495 0.41569
vn 0.997021 -0.051301 -0.057601
vn -0.203593 -0.262291 -0.943267
vn 0.689206 0.365703 0.625505
vn 0.981858 -0.178492 -0.063997
vn -0.142595 -0.353588 -0.924469
vn -0.912581 0.338893 -0.228795
vn -0.0822 0.0205 -0.996405
vn -0.476607 -0.124102 -0.870313
vn -0.359289 -0.805775 -0.470785
vn 0.453498 0.718097 -0.527898
vn -0.627897 0.0009 0.778296
vn -0.268912 0.062403 0.961141
vn -0.627897 0.0009 0.778296
vn 0.447694 -0.664092 -0.598792
vn 0.128399 -0.324599 -0.937096
vn -0.909372 -0.101597 -0.403387
vn 0.954412 -0.170502 -0.245003
vn -0.282404 0.921011 -0.268303
vn 0.086898 0.552487 0.82898
vn -0.206094 0.035899 0.977873
vn 0.398108 0.705014 -0.586912
vn -0.819818 0.267106 -0.506511
vn -0.886678 -0.202495 0.41569
vn 0.689206 0.365703 0.625505
vn 0.821479 -0.043399 0.568585
vn -0.883606 -0.412203 0.222102
vn -0.912581 0.338893 -0.228795
vn 0.109699 0.558096 -0.822494
vn 0.086898 0.552487 0.82898
vn -0.909372 -0.101597 -0.403387
vn -0.813695 -0.571096 0.108399
vn 0.695394 0.294097 0.655694
vn 0.99278 0.083098 0.086498
vn -0.521509 -0.798313 0.301205
vn -0.780123 0.471414 0.411312
vn -0.508913 0.77762 -0.369209
vn 0.977355 -0.078796 0.196391
vn -0.572614 -0.589814 0.569414
vn -0.455885 0.696377 -0.554282
vn -0.851104 -0.132501 -0.508002
vn -0.834018 -0.526612 0.164604
vn -0.062698 0.82388 0.563286
vn -0.536096 -0.108199 -0.837194
vn 0.852948 0.516029 -0.078704
vn -0.195901 -0.136301 0.971105
vn -0.061504 0.510032 -0.857954
vn 0.289091 -0.131196 -0.948269
vn -0.485914 -0.154604 -0.860224
vn -0.7979 0.5269 -0.2928
vn 0.0374 0.998804 -0.0315
vn 0.644492 0.564893 -0.515293
vn -0.30529 -0.077897 -0.949068
vn -0.931195 -0.0176 -0.364098
vn -0.917646 -0.119593 -0.378978
vn 0.171106 -0.316211 -0.933131
vn -0.852133 -0.51172 0.109604
vn -0.91445 0.383821 0.128307
vn -0.8144 0.0768 0.5752
vn 0.4298 -0.4486 0.7836
vn 0.437787 0.807276 0.395788
vn -0.474187 0.880275 -0.0162
vn 0.363403 -0.205402 0.908707
vn 0.988091 -0.143199 -0.0563
vn 0.6926 0.6866 -0.2211
vn -0.412899 0.888298 0.2011
vn 0.774164 -0.076296 -0.628371
vn -0.30529 -0.077897 -0.949068
vn 0.171106 -0.316211 -0.933131
vn 0.898226 0.34391 -0.273708
vn 0.171106 -0.316211 -0.933131
vn -0.917646 -0.119593 -0.378978
vn -0.846002 -0.484901 -0.2217
vn 0.496195 -0.491795 -0.715492
vn -0.91445 0.383821 0.128307
vn -0.789933 0.46672 0.397717
vn 0.432503 0.818106 0.379003
vn 0.264795 0.831185 0.488891
vn 0.898226 0.34391 -0.273708
vn 0.880265 0.474081 -0.019499
vn 0.898226 0.34391 -0.273708
vn 0.496195 -0.491795 -0.715492
vn -0.852133 -0.51172 0.109604
vn 0.582594 -0.776892 0.238797
vn 0.647986 -0.588188 0.48389
vn -0.761585 -0.614888 0.204696
vn -0.91445 0.383821 0.128307
vn -0.729029 0.623325 -0.282811
vn 0.432503 0.818106 0.379003
vn 0.62348 0.748676 -0.225293
vn 0.510807 -0.348005 0.78611
vn -0.488392 -0.853285 0.182697
vn 0.574285 0.781979 -0.242294
vn -0.156903 0.418808 -0.894417
vn -0.156903 0.418808 -0.894417
vn 0.543412 -0.321607 0.775417
vn -0.461921 -0.536925 0.705933
vn 0.522996 0.850193 -0.060399
vn 0.522996 0.850193 -0.060399
vn -0.260905 0.767914 -0.585011
vn -0.396283 -0.081996 -0.91446
vn -0.600694 -0.673293 -0.431096
vn -0.760975 -0.642579 -0.089497
vn 0.165898 0.740293 0.651494
vn -0.750245 -0.65424 -0.095406
vn 0.373591 -0.786182 -0.492289
vn -0.894814 0.0109 0.446307
vn 0.387596 0.86949 0.306197
vn 0.969525 0.169904 -0.176505
vn -0.780695 -0.586396 -0.215999
vn 0.299281 -0.78565 -0.541466
vn -0.988931 -0.148205 0.0072
vn -0.829362 0.234589 0.507077
vn -0.106001 0.597403 0.794905
vn 0.285995 0.957383 -0.040299
vn -0.323688 -0.157494 -0.932964
vn 0.97946 0.123495 -0.159394
vn 0.668583 0.742781 -0.035699
vn 0.969525 0.169904 -0.176505
vn 0.97946 0.123495 -0.159394
vn 0.289091 -0.131196 -0.948269
vn -0.894814 0.0109 0.446307
vn 0.387596 0.86949 0.306197
vn 0.171603 0.732114 0.659213
vn 0.171603 0.732114 0.659213
vn -0.734076 -0.508483 0.450086
vn -0.988931 -0.148205 0.0072
vn -0.279391 -0.619879 -0.733275
vn 0.668583 0.742781 -0.035699
vn 0.574974 0.392883 -0.717668
vn -0.106001 0.597403 0.794905
vn -0.829362 0.234589 0.507077
vn 0.285995 0.957383 -0.040299
vn -0.323688 -0.157494 -0.932964
vn 0.582594 -0.776892 0.238797
vn 0.774164 -0.076296 -0.628371
vn 0.624792 -0.098999 -0.77449
vn 0.624792 -0.098999 -0.77449
vn 0.143402 -0.978414 0.148802
vn 0.898226 0.34391 -0.273708
vn 0.0049 0.9285 -0.3713
vn 0.432503 0.818106 0.379003
vn -0.425596 0.722994 0.544195
vn 0.4458 -0.735499 -0.5102
vn 0.0759 -0.826297 0.558098
vn 0.0049 0.9285 -0.3713
vn -0.267597 0.784091 -0.559994
vn -0.766839 0.560729 0.312316
vn 0.876762 -0.473779 -0.082596
vn 0.102203 -0.74902 0.654617
vn 0.469375 -0.086495 -0.878753
vn -0.254605 0.442009 -0.860118
vn 0.080797 0.996661 -0.0118
vn 0.953809 -0.058801 0.294603
vn -0.731002 0.587501 0.347101
vn 0.0054 0.991733 -0.128204
vn 0.0054 0.991733 -0.128204
vn 0.876762 -0.473779 -0.082596
vn 0.794305 -0.282002 0.538103
vn -0.124799 0.810991 0.571594
vn 0.4458 -0.735499 -0.5102
vn -0.267597 0.784091 -0.559994
vn -0.701401 0.3525 -0.619501
vn -0.701401 0.3525 -0.619501
vn 0.207903 -0.732709 -0.648008
vn 0.4458 -0.735499 -0.5102
vn 0.207903 -0.732709 -0.648008
vn 0.794305 -0.282002 0.538103
vn 0.873815 -0.108902 -0.473908
vn 0.186206 -0.689521 0.699921
vn 0.078698 0.741178 -0.66668
vn -0.813795 0.519097 0.261298
vn 0.709557 -0.395976 0.582865
vn -0.632907 -0.752508 0.182102
vn 0.6093 0.785301 -0.1098
vn -0.731048 0.474666 -0.490165
vn 0.6093 0.785301 -0.1098
vn -0.260905 0.767914 -0.585011
vn -0.731048 0.474666 -0.490165
vn 0.4298 -0.4486 0.7836
vn -0.8144 0.0768 0.5752
vn 0.709557 -0.395976 0.582865
vn -0.156903 0.418808 -0.894417
vn -0.488392 -0.853285 0.182697
vn -0.419401 -0.846202 -0.328701
vn 0.149296 0.006 -0.988774
vn -0.461921 -0.536925 0.705933
vn -0.458815 -0.391513 0.797626
vn -0.260905 0.767914 -0.585011
vn 0.229697 0.871888 0.432494
vn -0.260905 0.767914 -0.585011
vn 0.229697 0.871888 0.432494
vn 0.493869 0.441772 0.748953
vn 0.707379 0.309891 0.635281
vn 0.607115 0.220806 0.763319
vn 0.789197 0.482698 0.379699
vn 0.901621 0.41431 -0.124203
vn 0.706091 0.629292 -0.324696
vn 0.847206 0.418703 -0.327002
vn 0.382301 0.908002 -0.1714
vn 0.619191 0.729889 0.289596
vn 0.2157 0.502399 -0.837299
vn 0.121994 0.351381 -0.92825
vn -0.324603 0.646507 -0.690407
vn -0.158705 0.972632 -0.169706
vn 0.383412 0.533616 -0.753823
vn 0.986074 0.154196 0.062298
vn -0.086996 0.901859 -0.423181
vn -0.83582 0.40031 -0.375709
vn 0.121994 0.351381 -0.92825
vn 0.0024 0.543921 -0.839133
vn -0.820582 0.511889 -0.254195
vn 0.2157 0.502399 -0.837299
vn 0.3657 0.2501 -0.896501
vn -0.96105 0.125993 -0.245987
vn -0.908362 0.330986 0.255589
vn -0.3666 0.744699 -0.557699
vn -0.869123 0.356809 0.342509
vn -0.852417 0.52021 -0.052601
vn -0.711232 0.538524 0.45182
vn -0.86793 0.30241 -0.394013
vn -0.889484 0.163297 0.426793
vn -0.296106 0.341507 0.892017
vn -0.751183 0.658685 -0.043099
vn -0.252699 0.652298 0.714598
vn 0.422302 0.379902 0.823004
vn -0.847402 0.497901 0.184401
vn 0.540879 0.287689 0.79037
vn 0.0169 0.746579 0.665082
vt 0.8086 -0.7628
vt 0.8214 -0.7628
vt 0.8145 -0.6718
vt 0.0953 -0.7346
vt 0.113 -0.746
vt 0.1081 -0.6691
vt 0.2425 -0.7516
vt 0.2542 -0.7432
vt 0.2468 -0.7014
vt 0.3689 -0.7397
vt 0.3894 -0.7397
vt 0.3805 -0.6874
vt 0.6431 -0.753
vt 0.6643 -0.753
vt 0.6519 -0.6785
vt 0.7299 -0.306
vt 0.8349 0.0056
vt 0.7018 -0.018
vt 0.8774 -0.1618
vt 0.9813 0.1042
vt -0.1226 -0.1618
vt 0.0257 -0.1481
vt -0.0187 0.1042
vt 0.1429 0.0004
vt 0.1789 -0.1593
vt 0.3017 -0.0143
vt 0.342 -0.241
vt 0.4436 -0.0488
vt 0.441 -0.1816
vt 0.574 -0.077
vt 0.5656 -0.3068
vt 0.9324 0.4516
vt 0.7931 0.4516
vt -0.1651 0.0056
vt 0.0694 0.4516
vt -0.0676 0.4516
vt 0.208 0.4516
vt 0.3515 0.4516
vt 0.4998 0.4516
vt 0.6486 0.4516
vt 0.9383 0.8659
vt 0.7881 0.8358
vt 0.0387 0.8358
vt -0.0617 0.8659
vt 0.2486 0.8358
vt 0.3881 0.8358
vt 0.5194 0.8358
vt 0.6502 0.8358
vt 0.9352 1.1191
vt 0.8041 1.0574
vt 0.8054 2.1307
vt 0.8458 2.1944
vt 0.7197 2.1594
vt 0.8423 1.857
vt 0.2274 1.0574
vt 0.0784 1.1124
vt 0.381 1.0574
vt 0.5299 1.0574
vt 0.6699 1.0574
vt 0.8835 1.2886
vt 0.7378 1.2886
vt -0.0648 1.1191
vt 0.0372 1.2886
vt -0.1165 1.2886
vt 0.264 1.2602
vt 0.5042 1.2891
vt 0.4892 1.2882
vt 0.5032 1.2751
vt 0.4875 1.303
vt 0.4682 1.2886
vt 0.3672 1.208
vt 0.601 1.2886
vt 0.8141 1.5639
vt 0.6646 1.5639
vt 0.9526 1.5639
vt -0.0474 1.5639
vt 0.1526 1.5639
vt 0.2962 1.5639
vt 0.4535 1.6249
vt 0.5233 1.5639
vt 0.9577 1.852
vt 0.9429 1.8841
vt 0.9299 1.8409
vt 0.2877 1.767
vt -0.1859 1.5639
vt 0.9618 1.8316
vt 0.9686 1.902
vt 0.4623 -0.585
vt 0.4953 -0.567
vt 0.5009 -0.5138
vt 0.5395 -0.5639
vt 0.5711 -0.4926
vt 0.5447 -0.7416
vt 0.5201 -0.5973
vt 0.3363 -0.4926
vt 0.3743 -0.7656
vt 0.3935 -0.5806
vt 0.4093 -0.5806
vt 0.419 -0.7656
vt 0.7403 -0.4926
vt 0.6489 -0.6201
vt 0.6557 -0.7579
vt 0.6226 -0.6201
vt 0.6159 -0.7579
vt 0.7996 -0.5313
vt 0.8178 -0.6095
vt 0.7943 -0.7392
vt 0.8774 -0.4926
vt 0.8288 -0.7392
vt 0.8042 -0.676
vt 0.8107 -0.676
vt 0.8007 -0.767
vt 0.815 -0.767
vt -0.0243 -0.6285
vt 0.0072 -0.6285
vt 0.9422 -0.7586
vt 0.9757 -0.6285
vt 0.0261 -0.4926
vt 0.0011 -0.7586
vt 0.0093 -0.7392
vt -0.0578 -0.7586
vt 0.0833 -0.6495
vt 0.132 -0.5667
vt 0.0785 -0.7312
vt 0.1834 -0.4926
vt 0.1558 -0.7312
vt 0.2312 -0.5715
vt 0.2882 -0.5451
vt 0.2493 -0.7065
vt 0.3079 -0.6169
vt 0.2364 -0.653
vt 0.2481 -0.653
vt 0.2273 -0.7424
vt 0.2681 -0.7424
vt 0.7943 -1.3408
vt 0.9775 -1.0148
vt 0.9514 0.3106
vt 0.9062 0.1604
vt -0.0225 -1.0148
vt 0.2411 -0.7217
vt 0.205 0.3121
vt -0.0486 0.3106
vt 0.4722 -0.7422
vt 0.4628 0.3411
vt 0.7024 -0.7252
vt 0.8138 0.207
vt 0.8707 0.6307
vt 0.793 0.5734
vt 0.6435 0.7035
vt 0.2437 1.3881
vt 0.2408 1.3484
vt 0.2132 1.4566
vt 0.6865 -0.5294
vt 0.871 -0.5228
vt 0.8307 -0.0399
vt 0.7242 0.0255
vt 0.4407 -0.8574
vt 0.5287 -0.7624
vt 0.4925 -0.1389
vt 0.3835 -0.3294
vt -0.129 -0.5228
vt 0.2108 -0.7256
vt 0.1286 -0.1647
vt -0.1693 -0.0399
vt 0.896 0.7816
vt 0.7094 0.4833
vt 0.0609 0.352
vt -0.104 0.7816
vt 0.3235 0.2344
vt 0.5185 0.3824
vt 0.8559 1.052
vt 0.7878 1.03
vt -0.1449 0.9367
vt 0.4795 1.1427
vt 0.4897 1.187
vt 0.6115 0.9534
vt -0.2608 0.9125
vt 0.7307 0.9721
vt 0.7392 0.9125
vt 0.8331 1.4271
vt 0.7945 1.4302
vt 0.8551 0.9367
vt 0.8268 1.3616
vt 0.7856 1.318
vt 0.7686 1.3816
vt 0.0069 -0.2254
vt 0.2589 -0.2132
vt 0.1998 0.6052
vt 0.2234 0.6442
vt -0.085 -0.0658
vt 0.2589 0.5109
vt 0.37 -0.1044
vt 0.2647 0.5472
vt 0.2159 0.7432
vt 0.2449 0.7517
vt 0.1286 0.7542
vt 0.1828 0.7934
vt 0.2551 1.2922
vt 0.0832 1.3163
vt 0.1942 1.2019
vt 0.5505 0.9853
vt 0.3022 0.9799
vt 0.1047 0.9812
vt 0.201 1.0015
vt 0.5093 -1.2042
vt 0.3339 -1.2674
vt -0.0524 0.0269
vt 0.9476 0.0269
vt 0.7998 -0.1325
vt 0.4903 -0.7472
vt 0.6787 -0.0191
vt 0.3628 -0.8103
vt -0.3213 -0.0191
vt 0.168 0.0925
vt 0.6609 0.5538
vt 0.453 1.02
vt 0.777 0.5339
vt 0.9202 0.4396
vt 0.5935 1.0649
vt 0.695 1.0419
vt 0.7995 1.253
vt 0.4947 1.2353
vt -0.188 -0.0651
vt 0.6188 -0.3372
vt 0.1564 0.252
vt 0.0504 0.3798
vt 0.5694 -0.0664
vt 0.2251 0.3079
vt -0.4306 -0.0664
vt 0.2342 -0.0758
vt 0.0146 -0.2338
vt -0.2574 0.6725
vt 0.627 0.7608
vt 0.1331 -0.1848
vt -0.3804 0.6984
vt 0.0297 0.8874
vt -0.0015 0.8571
vt 0.1006 0.8208
vt 0.4244 0.1572
vt 0.5559 0.1413
vt 0.5079 0.5025
vt 0.3994 0.4173
vt 0.2106 0.185
vt 0.3083 0.4904
vt 0.6196 0.6984
vt 0.7426 0.6725
vt 0.1874 -0.1604
vt 0.2108 -0.0391
vt 0.2218 0.6779
vt 0.2286 0.6489
vt 0.1107 0.1053
vt 0.1921 0.6619
vt 0.2693 0.9695
vt 0.2603 1.0034
vt 0.2315 0.9829
vt 0.768 1.9786
vt 0.7346 2.0052
vt 0.7696 2.1283
vt 0.82 1.2442
vt 0.7855 1.2377
vt 0.7706 1.3038
vt 0.6461 1.2745
vt 0.7425 1.2702
vt 0.5581 1.2781
vt 0.5553 1.2811
vt 0.6337 1.275
vt 0.7074 1.2683
vt -0.0691 1.0666
vt 0.1764 1.2438
vt 0.1085 1.3959
vt -0.0599 1.3009
vt 0.3985 1.2438
vt 0.372 1.4552
vt 0.9802 1.564
vt 0.9492 1.5634
vt 0.9368 1.5476
vt 0.965 1.5482
vt 0.3922 1.5905
vt 0.3674 1.5893
vt 0.3588 1.5887
vt 0.3688 1.5785
vt 0.7427 1.2382
vt 0.9309 1.0666
vt 0.9401 1.3009
vt 0.7542 1.3951
vt 0.0672 -0.0961
vt 0.2323 -0.0924
vt 0.4244 0.252
vt -0.2484 0.2412
vt 0.3598 -0.1451
vt 0.4879 0.1969
vt 0.541 -0.2099
vt 0.5465 0.1892
vt 0.8595 -0.1874
vt 0.6396 0.1817
vt -0.1405 -0.1874
vt 0.7516 0.2412
vt 0.2451 -0.3286
vt 0.4008 -0.3051
vt 0.4778 0.3646
vt 0.3033 0.2737
vt -0.0313 -0.2885
vt 0.2289 0.2962
vt 0.726 -0.2946
vt 0.5657 0.2942
vt 0.5475 0.8175
vt 0.2644 0.819
vt 0.7042 0.7739
vt -0.0441 0.7754
vt 0.9559 0.7754
vt 0.1847 0.9169
vt 0.1266 0.9179
vt 0.8823 0.9071
vt -0.1177 0.9071
vt 0.9756 0.9081
vt 0.0758 1.3488
vt 0.1511 1.3048
vt 0.2771 1.3951
vt 0.1926 1.4242
vt 0.302 0.5235
vt 0.2222 0.5083
vt 0.3866 0.5292
vt 0.4863 0.5176
vt 0.5916 0.5046
vt 0.2055 0.6948
vt 0.0595 0.6796
vt 0.3264 0.7006
vt 0.9588 1.0204
vt 0.9126 0.991
vt 0.944 1.0395
vt 0.9686 1.0688
vt 0.8773 0.676
vt 0.538 0.6889
vt -0.4084 0.5046
vt -0.1227 0.676
vt -0.2575 1.2702
vt 0.4178 0.0296
vt 0.4843 -0.0563
vt 0.9095 0.4755
vt -0.0905 0.4755
vt 0.1892 0.4821
vt 0.1065 0.1715
vt 0.067 0.5292
vt -0.0352 0.0856
vt 0.0289 0.5007
vt -0.0874 0.991
vt -0.0412 1.0204
vt -0.056 1.0395
vt -0.0314 1.0688
vt 0.4695 -0.4635
vt 0.1331 -0.5004
vt -0.136 0.1682
vt 0.864 0.1682
vt 0.732 0.1722
vt 0.1729 -0.404
vt -0.0609 0.1662
vt 0.2422 -0.3795
vt 0.5432 0.1323
vt 0.8153 0.6422
vt 0.7095 0.6454
vt 0.9391 0.1662
vt 0.8386 0.6406
vt 0.6248 0.6132
vt 0.8039 0.7794
vt 0.7028 0.7826
vt 0.1601 1.4593
vt 0.1767 1.4566
vt 0.221 1.4951
vt 0.2194 1.4978
vt 0.6184 0.7504
vt 0.8152 0.7778
vt 0.3284 -0.3144
vt 0.5398 -0.3049
vt 0.8181 0.3835
vt -0.1159 0.3772
vt -0.0937 -0.4397
vt 0.1383 -0.4493
vt -0.0748 0.2872
vt 0.9252 0.2872
vt 0.8697 0.2936
vt 0.9063 -0.4397
vt -0.1303 0.2936
vt -0.1819 0.3835
vt 0.7073 1.1552
vt 0.6139 1.1567
vt 0.5115 1.1544
vt 0.4715 1.1411
vt -0.047 1.1876
vt 0.0075 1.1886
vt -0.0703 1.1588
vt 0.9774 1.1598
vt 0.9297 1.1588
vt -0.0244 0.9081
vt -0.0226 1.1598
vt -0.0508 1.5634
vt -0.0198 1.564
vt 0.953 1.1876
vt -0.089 -0.2602
vt -0.0871 -0.4049
vt 0.0963 0.3877
vt 0.0549 0.4472
vt 0.5597 -0.2097
vt 0.1404 0.5097
vt -0.2765 -0.0366
vt -0.0206 0.6274
vt 0.7235 -0.0366
vt 0.9794 0.6274
vt 0.5974 -0.2971
vt 0.627 -0.7158
vt 0.6476 -0.7315
vt 0.6653 -0.4845
vt 0.7746 -0.3602
vt 0.714 -0.64
vt 0.7908 -0.7364
vt 0.7387 -0.7366
vt 0.7091 -0.7365
vt 0.9877 -0.74
vt 0.9617 -0.4892
vt 0.8851 -0.7293
vt 0.9042 -0.74
vt 0.8601 -0.5552
vt 0.8459 -0.7352
vt 0.9031 -0.734
vt 0.1814 -0.3533
vt -0.0383 -0.4892
vt 0.0515 -0.6177
vt 0.0849 -0.6173
vt -0.0123 -0.74
vt 0.0555 -0.7385
vt 0.1853 -0.74
vt 0.1082 -0.7385
vt 0.0957 -0.7365
vt 0.4035 -0.4501
vt 0.2084 -0.5708
vt 0.3127 -0.5645
vt 0.2711 -0.739
vt 0.4105 -0.74
vt 0.3396 -0.7314
vt 0.2994 -0.7352
vt 0.5163 -0.5267
vt 0.5593 -0.5267
vt 0.431 -0.7308
vt 0.5673 -0.7308
vt 0.4522 -0.7373
f 1/1/1 3/3/3 2/2/2
f 4/4/4 6/6/6 5/5/5
f 7/7/7 9/9/9 8/8/8
f 10/10/10 12/12/12 11/11/11
f 13/13/13 15/15/15 14/14/14
f 16/16/16 18/18/18 17/17/17
f 16/16/16 17/17/17 19/19/19
f 19/19/19 17/17/17 20/20/20
f 21/21/21 23/23/23 22/22/22
f 22/22/22 23/23/23 24/24/24
f 22/22/22 24/24/24 25/25/25
f 25/25/25 24/24/24 26/26/26
f 25/25/25 26/26/26 27/27/27
f 27/27/27 26/26/26 28/28/28
f 27/27/27 28/28/28 29/29/29
f 29/29/29 28/28/28 30/30/30
f 29/29/29 30/30/30 31/31/31
f 31/31/31 30/30/30 18/18/18
f 31/31/31 18/18/18 16/16/16
f 18/18/18 33/33/33 32/32/32
f 18/18/18 32/32/32 17/17/17
f 34/34/34 36/36/36 35/35/35
f 34/34/34 35/35/35 23/23/23
f 23/23/23 35/35/35 37/37/37
f 23/23/23 37/37/37 24/24/24
f 24/24/24 37/37/37 38/38/38
f 24/24/24 38/38/38 26/26/26
f 26/26/26 38/38/38 39/39/39
f 26/26/26 39/39/39 28/28/28
f 28/28/28 39/39/39 40/40/40
f 28/28/28 40/40/40 30/30/30
f 30/30/30 40/40/40 33/33/33
f 30/30/30 33/33/33 18/18/18
f 33/33/33 42/42/42 41/41/41
f 33/33/33 41/41/41 32/32/32
f 36/36/36 44/44/44 43/43/43
f 36/36/36 43/43/43 35/35/35
f 35/35/35 43/43/43 45/45/45
f 35/35/35 45/45/45 37/37/37
f 37/37/37 45/45/45 46/46/46
f 37/37/37 46/46/46 38/38/38
f 38/38/38 46/46/46 47/47/47
f 38/38/38 47/47/47 39/39/39
f 39/39/39 47/47/47 48/48/48
f 39/39/39 48/48/48 40/40/40
f 40/40/40 48/48/48 42/42/42
f 40/40/40 42/42/42 33/33/33
f 42/42/42 50/50/50 49/49/49
f 42/42/42 49/49/49 41/41/41
f 51/51/51 53/53/53 52/52/52
f 51/51/51 52/52/52 54/54/54
f 43/43/43 56/56/56 55/55/55
f 43/43/43 55/55/55 45/45/45
f 45/45/45 55/55/55 57/57/57
f 45/45/45 57/57/57 46/46/46
f 46/46/46 57/57/57 58/58/58
f 46/46/46 58/58/58 47/47/47
f 47/47/47 58/58/58 59/59/59
f 47/47/47 59/59/59 48/48/48
f 48/48/48 59/59/59 50/50/50
f 48/48/48 50/50/50 42/42/42
f 50/50/50 61/61/61 60/60/60
f 50/50/50 60/60/60 49/49/49
f 62/62/62 64/64/64 63/63/63
f 62/62/62 63/63/63 56/56/56
f 56/56/56 63/63/63 65/65/65
f 56/56/56 65/65/65 55/55/55
f 66/66/66 68/68/68 67/67/67
f 66/66/66 67/67/67 69/69/69
f 57/57/57 71/71/71 70/70/70
f 57/57/57 70/70/70 58/58/58
f 58/58/58 70/70/70 72/72/72
f 58/58/58 72/72/72 59/59/59
f 59/59/59 72/72/72 61/61/61
f 59/59/59 61/61/61 50/50/50
f 61/61/61 74/74/74 73/73/73
f 61/61/61 73/73/73 60/60/60
f 60/60/60 73/73/73 75/75/75
f 64/64/64 76/76/76 63/63/63
f 63/63/63 76/76/76 77/77/77
f 63/63/63 77/77/77 65/65/65
f 65/65/65 77/77/77 78/78/78
f 65/65/65 78/78/78 71/71/71
f 71/71/71 78/78/78 79/79/79
f 71/71/71 79/79/79 70/70/70
f 70/70/70 79/79/79 80/80/80
f 70/70/70 80/80/80 72/72/72
f 72/72/72 80/80/80 74/74/74
f 72/72/72 74/74/74 61/61/61
f 81/81/81 83/83/83 82/82/82
f 84/84/84 76/76/76 85/85/85
f 81/81/81 87/87/87 86/86/86
f 81/81/81 82/82/82 87/87/87
f 29/29/29 89/89/89 88/88/88
f 89/89/89 29/29/29 90/90/90
f 31/31/31 90/90/90 29/29/29
f 90/90/90 31/31/31 91/91/91
f 92/92/92 91/91/91 31/31/31
f 91/91/91 92/92/92 93/93/93
f 91/91/91 94/94/94 90/90/90
f 90/90/90 94/94/94 89/89/89
f 89/89/89 94/94/94 93/93/93
f 93/93/93 94/94/94 91/91/91
f 27/27/27 96/96/96 95/95/95
f 96/96/96 27/27/27 97/97/97
f 29/29/29 97/97/97 27/27/27
f 97/97/97 29/29/29 98/98/98
f 88/88/88 98/98/98 29/29/29
f 98/98/98 88/88/88 99/99/99
f 98/98/98 12/12/12 97/97/97
f 97/97/97 10/10/10 96/96/96
f 10/10/10 97/97/97 12/12/12
f 99/99/99 12/12/12 98/98/98
f 12/12/12 99/99/99 11/11/11
f 100/100/100 101/101/101 16/16/16
f 101/101/101 100/100/100 102/102/102
f 16/16/16 103/103/103 31/31/31
f 103/103/103 16/16/16 101/101/101
f 31/31/31 104/104/104 92/92/92
f 104/104/104 31/31/31 103/103/103
f 101/101/101 15/15/15 103/103/103
f 103/103/103 13/13/13 104/104/104
f 13/13/13 103/103/103 15/15/15
f 102/102/102 15/15/15 101/101/101
f 15/15/15 102/102/102 14/14/14
f 19/19/19 105/105/105 16/16/16
f 105/105/105 19/19/19 106/106/106
f 16/16/16 107/107/107 100/100/100
f 107/107/107 16/16/16 105/105/105
f 108/108/108 106/106/106 19/19/19
f 106/106/106 108/108/108 109/109/109
f 106/106/106 110/110/110 105/105/105
f 110/110/110 106/106/106 111/111/111
f 105/105/105 112/112/112 107/107/107
f 112/112/112 105/105/105 110/110/110
f 109/109/109 111/111/111 106/106/106
f 111/111/111 109/109/109 113/113/113
f 111/111/111 3/3/3 110/110/110
f 110/110/110 1/1/1 112/112/112
f 1/1/1 110/110/110 3/3/3
f 113/113/113 3/3/3 111/111/111
f 3/3/3 113/113/113 2/2/2
f 22/22/22 114/114/114 21/21/21
f 114/114/114 22/22/22 115/115/115
f 19/19/19 116/116/116 108/108/108
f 116/116/116 19/19/19 117/117/117
f 118/118/118 115/115/115 22/22/22
f 115/115/115 118/118/118 119/119/119
f 115/115/115 120/120/120 114/114/114
f 114/114/114 120/120/120 121/121/121
f 119/119/119 120/120/120 115/115/115
f 25/25/25 122/122/122 22/22/22
f 122/122/122 25/25/25 123/123/123
f 22/22/22 124/124/124 118/118/118
f 124/124/124 22/22/22 122/122/122
f 125/125/125 123/123/123 25/25/25
f 123/123/123 125/125/125 126/126/126
f 123/123/123 6/6/6 122/122/122
f 122/122/122 4/4/4 124/124/124
f 4/4/4 122/122/122 6/6/6
f 126/126/126 6/6/6 123/123/123
f 6/6/6 126/126/126 5/5/5
f 27/27/27 127/127/127 25/25/25
f 127/127/127 27/27/27 128/128/128
f 25/25/25 129/129/129 125/125/125
f 129/129/129 25/25/25 127/127/127
f 95/95/95 128/128/128 27/27/27
f 128/128/128 95/95/95 130/130/130
f 128/128/128 131/131/131 127/127/127
f 131/131/131 128/128/128 132/132/132
f 127/127/127 133/133/133 129/129/129
f 133/133/133 127/127/127 131/131/131
f 130/130/130 132/132/132 128/128/128
f 132/132/132 130/130/130 134/134/134
f 132/132/132 9/9/9 131/131/131
f 131/131/131 7/7/7 133/133/133
f 7/7/7 131/131/131 9/9/9
f 134/134/134 9/9/9 132/132/132
f 9/9/9 134/134/134 8/8/8
f 135/135/135 137/137/137 136/136/136
f 137/137/137 135/135/135 138/138/138
f 139/139/139 141/141/141 140/140/140
f 141/141/141 139/139/139 142/142/142
f 140/140/140 144/144/144 143/143/143
f 144/144/144 140/140/140 141/141/141
f 145/145/145 138/138/138 135/135/135
f 138/138/138 145/145/145 146/146/146
f 143/143/143 146/146/146 145/145/145
f 146/146/146 143/143/143 144/144/144
f 146/146/146 147/147/147 138/138/138
f 147/147/147 146/146/146 148/148/148
f 138/138/138 147/147/147 137/137/137
f 142/142/142 149/149/149 141/141/141
f 149/149/149 137/137/137 147/147/147
f 150/150/150 152/152/152 151/151/151
f 144/144/144 148/148/148 146/146/146
f 148/148/148 144/144/144 149/149/149
f 153/153/153 155/155/155 154/154/154
f 155/155/155 153/153/153 156/156/156
f 157/157/157 159/159/159 158/158/158
f 159/159/159 157/157/157 160/160/160
f 158/158/158 156/156/156 153/153/153
f 156/156/156 158/158/158 159/159/159
f 161/161/161 163/163/163 162/162/162
f 163/163/163 161/161/161 164/164/164
f 162/162/162 160/160/160 157/157/157
f 160/160/160 162/162/162 163/163/163
f 156/156/156 165/165/165 155/155/155
f 165/165/165 156/156/156 166/166/166
f 164/164/164 167/167/167 163/163/163
f 167/167/167 164/164/164 168/168/168
f 163/163/163 169/169/169 160/160/160
f 169/169/169 163/163/163 167/167/167
f 160/160/160 170/170/170 159/159/159
f 170/170/170 160/160/160 169/169/169
f 159/159/159 166/166/166 156/156/156
f 166/166/166 159/159/159 170/170/170
f 166/166/166 171/171/171 165/165/165
f 171/171/171 166/166/166 172/172/172
f 168/168/168 173/173/173 167/167/167
f 174/174/174 176/176/176 175/175/175
f 167/167/167 177/177/177 169/169/169
f 177/177/177 167/167/167 173/173/173
f 169/169/169 178/178/178 170/170/170
f 178/178/178 169/169/169 179/179/179
f 170/170/170 172/172/172 166/166/166
f 172/172/172 170/170/170 178/178/178
f 172/172/172 180/180/180 171/171/171
f 180/180/180 172/172/172 181/181/181
f 171/171/171 183/183/183 182/182/182
f 183/183/183 171/171/171 180/180/180
f 182/182/182 184/184/184 179/179/179
f 184/184/184 182/182/182 183/183/183
f 179/179/179 185/185/185 178/178/178
f 185/185/185 179/179/179 184/184/184
f 178/178/178 181/181/181 172/172/172
f 181/181/181 178/178/178 185/185/185
f 181/181/181 83/83/83 180/180/180
f 83/83/83 181/181/181 82/82/82
f 180/180/180 81/81/81 183/183/183
f 81/81/81 180/180/180 83/83/83
f 183/183/183 86/86/86 184/184/184
f 86/86/86 183/183/183 81/81/81
f 184/184/184 87/87/87 185/185/185
f 87/87/87 184/184/184 86/86/86
f 185/185/185 82/82/82 181/181/181
f 82/82/82 185/185/185 87/87/87
f 186/186/186 188/188/188 187/187/187
f 188/188/188 186/186/186 189/189/189
f 190/190/190 189/189/189 186/186/186
f 189/189/189 190/190/190 191/191/191
f 192/192/192 191/191/191 190/190/190
f 191/191/191 192/192/192 193/193/193
f 187/187/187 193/193/193 192/192/192
f 193/193/193 187/187/187 188/188/188
f 193/193/193 194/194/194 191/191/191
f 194/194/194 193/193/193 195/195/195
f 191/191/191 196/196/196 189/189/189
f 196/196/196 191/191/191 194/194/194
f 189/189/189 197/197/197 188/188/188
f 198/198/198 200/200/200 199/199/199
f 188/188/188 195/195/195 193/193/193
f 195/195/195 188/188/188 197/197/197
f 195/195/195 201/201/201 194/194/194
f 201/201/201 195/195/195 202/202/202
f 194/194/194 203/203/203 196/196/196
f 203/203/203 194/194/194 201/201/201
f 196/196/196 204/204/204 197/197/197
f 204/204/204 196/196/196 203/203/203
f 197/197/197 202/202/202 195/195/195
f 202/202/202 197/197/197 204/204/204
f 202/202/202 68/68/68 201/201/201
f 68/68/68 202/202/202 67/67/67
f 201/201/201 66/66/66 203/203/203
f 66/66/66 201/201/201 68/68/68
f 203/203/203 69/69/69 204/204/204
f 69/69/69 203/203/203 66/66/66
f 204/204/204 67/67/67 202/202/202
f 67/67/67 204/204/204 69/69/69
f 205/205/205 207/207/207 206/206/206
f 208/208/208 205/205/205 209/209/209
f 210/210/210 209/209/209 205/205/205
f 209/209/209 210/210/210 211/211/211
f 212/212/212 211/211/211 210/210/210
f 213/213/213 212/212/212 214/214/214
f 206/206/206 214/214/214 212/212/212
f 214/214/214 206/206/206 207/207/207
f 214/214/214 215/215/215 213/213/213
f 215/215/215 214/214/214 216/216/216
f 211/211/211 217/217/217 209/209/209
f 217/217/217 211/211/211 215/215/215
f 209/209/209 218/218/218 208/208/208
f 218/218/218 209/209/209 217/217/217
f 207/207/207 216/216/216 214/214/214
f 216/216/216 208/208/208 218/218/218
f 216/216/216 219/219/219 215/215/215
f 215/215/215 220/220/220 217/217/217
f 220/220/220 215/215/215 219/219/219
f 217/217/217 221/221/221 218/218/218
f 221/221/221 217/217/217 220/220/220
f 218/218/218 222/222/222 216/216/216
f 222/222/222 218/218/218 221/221/221
f 222/222/222 53/53/53 219/219/219
f 53/53/53 222/222/222 52/52/52
f 219/219/219 51/51/51 220/220/220
f 51/51/51 219/219/219 53/53/53
f 220/220/220 54/54/54 221/221/221
f 54/54/54 220/220/220 51/51/51
f 221/221/221 52/52/52 222/222/222
f 52/52/52 221/221/221 54/54/54
f 223/223/223 225/225/225 224/224/224
f 225/225/225 223/223/223 226/226/226
f 224/224/224 228/228/228 227/227/227
f 228/228/228 224/224/224 225/225/225
f 229/229/229 226/226/226 223/223/223
f 226/226/226 229/229/229 228/228/228
f 228/228/228 199/199/199 226/226/226
f 199/199/199 228/228/228 198/198/198
f 226/226/226 200/200/200 225/225/225
f 200/200/200 226/226/226 199/199/199
f 225/225/225 198/198/198 228/228/228
f 198/198/198 225/225/225 200/200/200
f 230/230/230 232/232/232 231/231/231
f 232/232/232 230/230/230 233/233/233
f 231/231/231 235/235/235 234/234/234
f 235/235/235 231/231/231 232/232/232
f 234/234/234 233/233/233 230/230/230
f 236/236/236 238/238/238 237/237/237
f 239/239/239 241/241/241 240/240/240
f 241/241/241 239/239/239 242/242/242
f 243/243/243 242/242/242 239/239/239
f 242/242/242 243/243/243 244/244/244
f 240/240/240 244/244/244 243/243/243
f 244/244/244 240/240/240 241/241/241
f 241/241/241 237/237/237 244/244/244
f 237/237/237 241/241/241 236/236/236
f 244/244/244 238/238/238 242/242/242
f 238/238/238 244/244/244 237/237/237
f 242/242/242 236/236/236 241/241/241
f 236/236/236 242/242/242 238/238/238
f 234/234/234 245/245/245 233/233/233
f 245/245/245 175/175/175 233/233/233
f 175/175/175 245/245/245 174/174/174
f 233/233/233 176/176/176 246/246/246
f 176/176/176 233/233/233 175/175/175
f 246/246/246 174/174/174 245/245/245
f 174/174/174 246/246/246 176/176/176
f 247/247/247 249/249/249 248/248/248
f 249/249/249 247/247/247 250/250/250
f 248/248/248 252/252/252 251/251/251
f 252/252/252 248/248/248 249/249/249
f 251/251/251 250/250/250 247/247/247
f 250/250/250 251/251/251 252/252/252
f 250/250/250 253/253/253 249/249/249
f 253/253/253 250/250/250 254/254/254
f 249/249/249 255/255/255 252/252/252
f 255/255/255 249/249/249 253/253/253
f 252/252/252 254/254/254 250/250/250
f 254/254/254 252/252/252 255/255/255
f 254/254/254 151/151/151 253/253/253
f 151/151/151 254/254/254 150/150/150
f 253/253/253 152/152/152 255/255/255
f 152/152/152 253/253/253 151/151/151
f 255/255/255 150/150/150 254/254/254
f 150/150/150 255/255/255 152/152/152
f 256/256/256 258/258/258 257/257/257
f 148/148/148 259/259/259 147/147/147
f 259/259/259 148/148/148 260/260/260
f 147/147/147 261/261/261 149/149/149
f 261/261/261 147/147/147 259/259/259
f 149/149/149 260/260/260 148/148/148
f 260/260/260 149/149/149 261/261/261
f 259/259/259 257/257/257 261/261/261
f 257/257/257 259/259/259 256/256/256
f 261/261/261 258/258/258 260/260/260
f 258/258/258 261/261/261 257/257/257
f 260/260/260 256/256/256 259/259/259
f 256/256/256 260/260/260 258/258/258
f 262/262/262 264/264/264 263/263/263
f 262/262/262 265/265/265 264/264/264
f 262/262/262 266/266/266 265/265/265
f 262/262/262 267/267/267 266/266/266
f 262/262/262 263/263/263 267/267/267
f 268/268/268 270/270/270 269/269/269
f 270/270/270 268/268/268 271/271/271
f 269/269/269 273/273/273 272/272/272
f 273/273/273 269/269/269 270/270/270
f 274/274/274 276/276/276 275/275/275
f 276/276/276 274/274/274 277/277/277
f 278/278/278 280/280/280 279/279/279
f 280/280/280 278/278/278 281/281/281
f 282/282/282 284/284/284 283/283/283
f 284/284/284 282/282/282 285/285/285
f 286/286/286 288/288/288 287/287/287
f 288/288/288 286/286/286 289/289/289
f 287/287/287 291/291/291 290/290/290
f 291/291/291 287/287/287 288/288/288
f 290/290/290 293/293/293 292/292/292
f 293/293/293 290/290/290 291/291/291
f 292/292/292 295/295/295 294/294/294
f 295/295/295 292/292/292 293/293/293
f 296/296/296 289/289/289 286/286/286
f 297/297/297 294/294/294 295/295/295
f 298/298/298 300/300/300 299/299/299
f 300/300/300 298/298/298 301/301/301
f 302/302/302 301/301/301 298/298/298
f 301/301/301 302/302/302 303/303/303
f 299/299/299 305/305/305 304/304/304
f 305/305/305 299/299/299 300/300/300
f 304/304/304 303/303/303 302/302/302
f 303/303/303 304/304/304 305/305/305
f 301/301/301 306/306/306 300/300/300
f 306/306/306 301/301/301 307/307/307
f 300/300/300 308/308/308 305/305/305
f 308/308/308 300/300/300 306/306/306
f 305/305/305 309/309/309 303/303/303
f 310/310/310 305/305/305 308/308/308
f 303/303/303 307/307/307 301/301/301
f 307/307/307 303/303/303 309/309/309
f 307/307/307 311/311/311 306/306/306
f 311/311/311 307/307/307 312/312/312
f 306/306/306 313/313/313 308/308/308
f 314/314/314 306/306/306 311/311/311
f 308/308/308 315/315/315 310/310/310
f 315/315/315 308/308/308 313/313/313
f 316/316/316 318/318/318 317/317/317
f 318/318/318 316/316/316 319/319/319
f 297/297/297 320/320/320 288/288/288
f 320/320/320 289/289/289 321/321/321
f 288/288/288 322/322/322 291/291/291
f 322/322/322 288/288/288 320/320/320
f 291/291/291 323/323/323 293/293/293
f 323/323/323 291/291/291 322/322/322
f 293/293/293 324/324/324 295/295/295
f 324/324/324 293/293/293 323/323/323
f 295/295/295 321/321/321 289/289/289
f 321/321/321 295/295/295 324/324/324
f 321/321/321 325/325/325 320/320/320
f 325/325/325 321/321/321 326/326/326
f 320/320/320 327/327/327 322/322/322
f 327/327/327 320/320/320 325/325/325
f 328/328/328 330/330/330 329/329/329
f 330/330/330 328/328/328 331/331/331
f 323/323/323 332/332/332 324/324/324
f 332/332/332 323/323/323 333/333/333
f 334/334/334 326/326/326 321/321/321
f 326/326/326 334/334/334 335/335/335
f 326/326/326 264/264/264 325/325/325
f 264/264/264 326/326/326 336/336/336
f 325/325/325 265/265/265 327/327/327
f 265/265/265 325/325/325 264/264/264
f 327/327/327 266/266/266 333/333/333
f 266/266/266 327/327/327 265/265/265
f 333/333/333 267/267/267 332/332/332
f 267/267/267 333/333/333 266/266/266
f 335/335/335 336/336/336 326/326/326
f 263/263/263 332/332/332 267/267/267
f 337/337/337 339/339/339 338/338/338
f 340/340/340 337/337/337 341/341/341
f 342/342/342 341/341/341 337/337/337
f 341/341/341 342/342/342 343/343/343
f 338/338/338 345/345/345 344/344/344
f 345/345/345 338/338/338 340/340/340
f 344/344/344 343/343/343 342/342/342
f 343/343/343 344/344/344 345/345/345
f 341/341/341 346/346/346 340/340/340
f 346/346/346 341/341/341 347/347/347
f 340/340/340 348/348/348 345/345/345
f 330/330/330 339/339/339 329/329/329
f 345/345/345 349/349/349 343/343/343
f 349/349/349 345/345/345 348/348/348
f 343/343/343 347/347/347 341/341/341
f 347/347/347 343/343/343 349/349/349
f 350/350/350 352/352/352 351/351/351
f 353/353/353 350/350/350 354/354/354
f 351/351/351 356/356/356 355/355/355
f 356/356/356 351/351/351 352/352/352
f 355/355/355 358/358/358 357/357/357
f 358/358/358 355/355/355 356/356/356
f 357/357/357 354/354/354 350/350/350
f 354/354/354 357/357/357 358/358/358
f 354/354/354 359/359/359 353/353/353
f 359/359/359 354/354/354 360/360/360
f 353/353/353 362/362/362 361/361/361
f 362/362/362 353/353/353 359/359/359
f 361/361/361 363/363/363 358/358/358
f 363/363/363 361/361/361 362/362/362
f 358/358/358 360/360/360 354/354/354
f 360/360/360 358/358/358 363/363/363
f 360/360/360 364/364/364 359/359/359
f 364/364/364 360/360/360 365/365/365
f 366/366/366 368/368/368 367/367/367
f 368/368/368 366/366/366 369/369/369
f 362/362/362 370/370/370 363/363/363
f 370/370/370 362/362/362 371/371/371
f 363/363/363 365/365/365 360/360/360
f 365/365/365 363/363/363 370/370/370
f 372/372/372 374/374/374 373/373/373
f 374/374/374 372/372/372 375/375/375
f 376/376/376 378/378/378 377/377/377
f 379/379/379 381/381/381 380/380/380
f 373/373/373 380/380/380 381/381/381
f 380/380/380 373/373/373 374/374/374
f 377/377/377 375/375/375 372/372/372
f 375/375/375 377/377/377 378/378/378
f 382/382/382 367/367/367 378/378/378
f 367/367/367 382/382/382 366/366/366
f 378/378/378 368/368/368 375/375/375
f 368/368/368 378/378/378 367/367/367
f 375/375/375 369/369/369 383/383/383
f 369/369/369 375/375/375 368/368/368
f 383/383/383 366/366/366 382/382/382
f 366/366/366 383/383/383 369/369/369
f 365/365/365 384/384/384 364/364/364
f 384/384/384 365/365/365 385/385/385
f 364/364/364 386/386/386 371/371/371
f 386/386/386 364/364/364 384/384/384
f 371/371/371 387/387/387 370/370/370
f 387/387/387 371/371/371 386/386/386
f 370/370/370 385/385/385 365/365/365
f 385/385/385 370/370/370 387/387/387
f 385/385/385 279/279/279 384/384/384
f 279/279/279 385/385/385 278/278/278
f 384/384/384 280/280/280 386/386/386
f 280/280/280 384/384/384 279/279/279
f 386/386/386 281/281/281 387/387/387
f 281/281/281 386/386/386 280/280/280
f 387/387/387 278/278/278 385/385/385
f 278/278/278 387/387/387 281/281/281
f 312/312/312 388/388/388 311/311/311
f 388/388/388 312/312/312 389/389/389
f 311/311/311 390/390/390 314/314/314
f 390/390/390 311/311/311 388/388/388
f 313/313/313 391/391/391 315/315/315
f 391/391/391 313/313/313 392/392/392
f 393/393/393 389/389/389 312/312/312
f 389/389/389 393/393/393 394/394/394
f 389/389/389 395/395/395 388/388/388
f 395/395/395 389/389/389 396/396/396
f 397/397/397 276/276/276 392/392/392
f 276/276/276 397/397/397 275/275/275
f 392/392/392 277/277/277 391/391/391
f 277/277/277 392/392/392 276/276/276
f 394/394/394 396/396/396 389/389/389
f 274/274/274 391/391/391 277/277/277
f 398/398/398 400/400/400 399/399/399
f 400/400/400 398/398/398 401/401/401
f 399/399/399 403/403/403 402/402/402
f 403/403/403 399/399/399 400/400/400
f 404/404/404 401/401/401 398/398/398
f 401/401/401 404/404/404 405/405/405
f 402/402/402 407/407/407 406/406/406
f 405/405/405 402/402/402 403/403/403
f 401/401/401 317/317/317 400/400/400
f 317/317/317 401/401/401 316/316/316
f 400/400/400 318/318/318 403/403/403
f 318/318/318 400/400/400 317/317/317
f 403/403/403 319/319/319 405/405/405
f 319/319/319 403/403/403 318/318/318
f 405/405/405 316/316/316 401/401/401
f 316/316/316 405/405/405 319/319/319
f 408/408/408 410/410/410 409/409/409
f 410/410/410 408/408/408 411/411/411
f 412/412/412 411/411/411 408/408/408
f 411/411/411 412/412/412 413/413/413
f 414/414/414 413/413/413 412/412/412
f 413/413/413 414/414/414 415/415/415
f 413/413/413 416/416/416 411/411/411
f 411/411/411 416/416/416 410/410/410
f 415/415/415 416/416/416 413/413/413
f 417/417/417 419/419/419 418/418/418
f 419/419/419 417/417/417 420/420/420
f 418/418/418 421/421/421 412/412/412
f 421/421/421 418/418/418 419/419/419
f 412/412/412 422/422/422 414/414/414
f 422/422/422 412/412/412 421/421/421
f 419/419/419 423/423/423 421/421/421
f 421/421/421 423/423/423 422/422/422
f 420/420/420 423/423/423 419/419/419
f 424/424/424 426/426/426 425/425/425
f 426/426/426 424/424/424 427/427/427
f 425/425/425 429/429/429 428/428/428
f 429/429/429 425/425/425 426/426/426
f 430/430/430 427/427/427 424/424/424
f 427/427/427 430/430/430 431/431/431
f 427/427/427 432/432/432 426/426/426
f 426/426/426 432/432/432 429/429/429
f 431/431/431 432/432/432 427/427/427
f 433/433/433 434/434/434 424/424/424
f 434/434/434 433/433/433 435/435/435
f 424/424/424 436/436/436 430/430/430
f 436/436/436 424/424/424 434/434/434
f 437/437/437 435/435/435 433/433/433
f 435/435/435 437/437/437 438/438/438
f 435/435/435 439/439/439 434/434/434
f 434/434/434 439/439/439 436/436/436
f 438/438/438 439/439/439 435/435/435
f 408/408/408 440/440/440 433/433/433
f 440/440/440 408/408/408 441/441/441
f 433/433/433 442/442/442 437/437/437
f 442/442/442 433/433/433 440/440/440
f 409/409/409 441/441/441 408/408/408
f 441/441/441 409/409/409 443/443/443
f 441/441/441 444/444/444 440/440/440
f 440/440/440 444/444/444 442/442/442
f 443/443/443 444/444/444 441/441/441

g Tree_a
# texture: Tree_a.tga
v 290.5363 634.7802 -82.28392
v 187.6458 538.1411 -103.2738
v 85.137 637.3676 -57.08601
v 187.9572 733.9473 -36.02281
v 268.0543 585.3657 -158.67
v 265.5989 475.2423 -67.84631
v 284.698 608.4612 53.5243
v 305.7446 677.2512 -46.27272
v 330.5331 671.6675 121.6704
v 279.1537 602.5129 7.89901
v 221.553 649.87 -71.2122
v 246.9618 746.4666 30.71738
v 182.3096 619.8527 -94.63581
v 85.66079 523.2363 -135.7204
v -24.01191 622.4962 -110.8993
v 72.57909 719.0337 -69.75499
v -9.170242 693.6183 -340.3005
v -86.53961 596.9498 -269.4767
v -109.5254 696.3115 -159.2749
v -32.08405 792.739 -230.0884
v 65.72667 583.0367 -224.4538
v -18.55574 580.1925 -339.5821
v -76.92102 712.6061 -300.1256
v 7.361366 715.4504 -184.9973
v -38.9726 607.4158 -93.24041
v -62.65662 510.7705 -195.5384
v -147.1737 610.0133 -269.73
v -123.636 706.8023 -167.3762
v -152.1511 681.2168 -214.63
v -121.4117 584.4077 -114.2697
v -31.79189 683.5334 -46.1591
v -62.68198 780.4394 -146.4622
v -169.463 561.3279 -239.9472
v -287.4622 558.4849 -159.7332
v -250.1816 690.8063 -99.97208
v -132.186 693.8731 -180.183
v -245.2656 556.2633 -113.9838
v -115.3508 583.7087 -166.2813
v -154.5337 727.0022 -187.9694
v -284.4075 699.3308 -135.689
v -273.4921 518.2898 11.0561
v -207.4864 421.5841 -70.5369
v -201.0309 520.7658 -182.8667
v -267.0486 617.3608 -101.2702
v -220.5865 624.8635 -178.3654
v -310.3777 579.1429 -77.30449
v -271.0376 694.6554 9.907307
v -181.2464 740.376 -91.15359
v -76.64323 647.5173 -201.0714
v -154.1132 550.9081 -130.1406
v -177.031 650.0889 -19.96569
v -99.70628 746.8553 -90.84099
v -259.3698 579.3148 -15.85979
v -232.8592 576.3354 124.3345
v -163.3282 708.8321 114.0021
v -189.8388 711.8115 -26.19219
v -312.6905 509.9702 25.29471
v -182.9245 537.667 -26.9452
v -222.0393 680.7796 -48.66018
v -351.9131 653.1083 3.620213
v -314.5721 616.5302 -14.60838
v -264.9834 559.3272 -135.481
v -300.1848 684.8375 -209.5184
v -349.8498 742.1286 -88.6165
v -195.1982 641.8301 17.1216
v -238.6041 573.8444 -100.5668
v -350.7478 672.0992 -116.111
v -307.3959 740.153 1.598114
v -285.855 459.509 -49.677
v -217.9578 488.8724 -171.7175
v -302.1087 611.7168 -188.9492
v -369.9629 582.1817 -66.92609
v -272.0198 607.5027 -186.8807
v -350.72 510.9642 -117.3095
v -375.4961 609.8393 -7.576485
v -296.9453 706.6059 -77.09009
v -126.8645 605.4446 79.10461
v -168.7436 537.8223 -39.38329
v -280.0283 636.7832 -56.62149
v -238.2569 704.4025 61.90661
v -264.8034 558.9768 232.9628
v -195.2832 500.0235 123.1458
v -206.197 628.694 47.02681
v -275.7896 687.5536 156.8383
v -272.6898 626.2137 87.14182
v -146.974 637.1165 153.796
v -138.5492 781.5607 114.279
v -264.2651 770.6579 47.62481
v -325.1641 475.7903 81.82291
v -218.3605 453.4477 173.7974
v -182.937 599.0796 168.0354
v -289.7243 621.165 75.98482
v -349.045 463.599 23.67161
v -272.9928 460.5995 144.3792
v -211.9068 592.8705 109.1789
v -287.9549 595.7974 -11.54499
v -206.5358 477.8219 297.6374
v -100.5004 496.3543 391.3348
v -57.22031 619.7918 317.9407
v -163.2556 601.2593 224.2433
v -177.2001 433.8416 332.9797
v -51.4702 444.5859 399.6332
v -42.8632 589.0191 360.1154
v -168.5931 578.2748 293.4618
v -106.6509 499.4778 145.944
v -196.0915 408.7995 210.3176
v -252.2653 521.6735 291.4422
v -162.8468 612.4102 227.12
v -116.3471 638.0321 302.0183
v -143.5619 541.4391 200.5527
v -230.6532 640.5228 129.3462
v -203.5608 737.1495 230.8125
v -257.067 509.6244 -98.6396
v -181.022 506.6507 22.0851
v -119.9971 639.1039 -13.10509
v -196.0452 642.0308 -133.829
v -106.5463 561.3741 46.0958
v -130.2302 464.7288 -56.2023
v -214.7473 563.9716 -130.3939
v -191.1415 660.5797 -28.06689
v -172.6428 605.0016 86.06911
v -103.1451 546.0486 -23.7076
v -114.127 674.9415 -99.79948
v -183.7196 733.8011 10.01191
v 82.90599 609.9677 94.7369
v 36.7804 496.6261 37.5326
v -59.6208 564.6949 75.1213
v 17.59571 670.2005 132.3256
v 358.0844 680.9462 -221.5912
v 255.1938 584.3073 -242.5811
v 152.6147 683.4744 -196.32
v 255.5052 780.1133 -175.3301
v 105.2984 684.0485 -140.008
v 207.3781 587.3629 -115.5586
v 311.5253 686.5653 -158.0899
v 209.4457 783.2509 -182.5393
v 57.73627 762.3015 -113.8623
v 171.5434 682.3259 -145.7682
v 249.2981 806.2163 -178.9648
v 135.491 886.192 -147.0589
v 84.64238 702.1829 -277.9358
v 76.51978 654.1151 -143.8104
v 133.3089 783.671 -93.941
v 141.4315 831.7388 -228.0665
v 367.7552 795.0874 -85.67754
v 324.3395 727.0795 -203.3896
v 212.2334 825.5075 -218.9081
v 255.6491 893.5154 -101.196
v 400.3659 693.3943 -35.94585
v 374.9572 596.7977 -137.8754
v 289.1011 696.0361 -210.5195
v 314.5099 792.6327 -108.59
v 412.7369 564.1924 12.7767
v 469.6263 542.3672 -96.61846
v 384.4504 665.7916 -99.47894
v 352.7068 647.0803 38.39198
v 300.2072 748.9212 53.62988
v 256.7914 680.9133 -64.08221
v 144.6853 779.3414 -79.6007
v 188.101 847.3493 38.1114
v 200.52 539.2148 -19.37692
v 186.4722 465.725 71.48989
v 242.6745 532.0062 189.4995
v 234.8397 660.3812 127.656
v 173.5459 516.6302 179.8154
v 273.7364 415.0969 184.1733
v 379.5665 520.2048 199.9533
v 279.376 621.7382 195.5954
v 185.4637 445.1517 232.5245
v 261.5695 450.8973 111.9383
v 169.3691 581.9488 59.90319
v 126.033 579.3025 201.4079
v 24.92571 413.1569 330.5062
v 82.2255 446.1611 208.5069
v 8.637596 565.5526 191.319
v -59.2533 536.1041 313.3426
v 53.27599 586.8541 120.8865
v 7.035999 468.7921 75.4012
v -86.9854 567.4372 54.9131
v -8.31649 677.5667 100.439
v -30.06291 539.3699 -154.1045
v -32.5576 429.3556 -63.2377
v 5.187004 521.2881 49.1031
v 7.681702 631.3024 -41.7637
v 180.8097 723.7339 21.89921
v 230.4209 666.4022 -99.00552
v 195.2599 792.0369 -173.0078
v 145.6487 849.3685 -52.103
v 40.8476 539.3096 260.252
v -37.9133 429.3592 214.7373
v -154.5674 521.3712 194.267
v -75.82101 631.3283 239.8144
v -25.2978 565.6659 12.4318
v -83.7385 446.4849 64.841
v -125.6572 521.1673 187.9877
v -67.25788 640.4195 135.5795
v -92.87901 519.6389 151.7853
v -151.3121 400.4431 204.1771
v -193.2205 475.0308 327.2975
v -134.8091 594.2557 274.9554
v -216.6458 578.6696 16.36501
v -306.437 532.949 117.4259
v -267.0969 648.4615 204.6377
v -177.3057 694.1821 103.5768
v -298.792 630.2567 48.38011
v -268.1373 533.7908 148.7947
v -178.5427 632.9008 216.9615
v -209.3229 729.4793 116.5479
v -237.0367 515.2863 -100.6111
v -354.8898 512.1539 -20.45389
v -317.6871 644.5838 39.3371
v -199.6916 647.6505 -40.87379
v -1.8095 536.9632 -85.15759
v -86.09452 534.0975 -200.2834
v -144.4683 666.6774 -160.8747
v -60.18898 669.6055 -45.74619
v 370.7133 487.7373 148.7519
v 376.1112 537.9214 15.2657
v 300.6614 660.2356 58.19871
v 295.2636 610.0515 191.6849
v 336.8196 585.2729 -17.42374
v 258.0859 475.2473 -62.95263
v 141.4401 567.2836 -83.4407
v 220.1205 677.254 -37.85651
v 244.8886 588.5408 19.7784
v 339.6078 566.9003 -112.6694
v 255.3881 689.8204 -129.8266
v 187.5069 660.343 -7.80471
v 250.1403 663.3366 -77.51012
v 380.0396 690.8894 -129.7897
v 340.9502 834.0649 -151.4573
v 211.0509 806.512 -99.1777
v 289.4829 671.4365 -91.80092
v 355.5453 574.819 -173.4525
v 361.9442 674.0731 -285.7216
v 295.8817 770.6906 -204.0701
v -127.6927 688.0527 -122.1877
v -171.0304 619.886 -239.9029
v -283.2423 718.3218 -255.4202
v -239.8904 786.3755 -137.7111
v -5.339035 671.5397 -216.2246
v -108.5465 574.9623 -235.4493
v -210.3426 674.2405 -187.4284
v -107.1925 770.9775 -168.2413
v 7.427593 545.4882 -109.2993
v 106.5875 454.6831 -61.4674
v 204.7477 567.5626 -50.71161
v 105.5355 658.3395 -98.48879
v 37.47247 585.4693 -293.3994
v 35.01599 475.3973 -202.5738
v 72.7606 567.3298 -90.23311
v 75.16278 677.3549 -181.0021
v 188.8843 588.5248 25.42829
v 315.7599 491.5519 48.1981
v 421.59 596.6598 63.978
v 336.1173 658.2357 36.24067
v 91.95619 527.4634 -127.6938
v 43.64111 524.5734 6.557697
v 109.0183 656.9619 32.93579
v 157.2502 659.8615 -101.2279
v -190.3703 620.0187 22.22321
v -108.2535 523.3668 -43.1415
v -77.6368 622.5322 -151.4259
v -159.9024 719.2916 -86.00479
v -257.9478 574.0098 161.5997
v -175.8271 477.3251 96.1947
v -145.2104 576.4905 -12.0898
v -227.4079 673.069 53.30441
v -259.4646 521.8333 -43.51189
v -152.6698 499.5194 48.4833
v -117.2656 645.1738 42.66061
v -224.093 667.3781 -49.32309
v 170.4815 634.7525 -163.7463
v 194.539 631.7418 -23.11091
v 264.3643 764.1734 -32.22042
v 240.3069 767.184 -172.8558
v 257.2198 579.2096 -145.6467
v 121.3642 576.3263 -189.248
v 97.29228 708.7204 -122.9982
v 233.1479 711.6036 -79.39691
v 207.3008 523.7596 -93.47701
v 239.0444 542.4709 -231.3479
v 153.8685 665.8952 -234.2083
v 122.1249 647.184 -96.33749
v 159.4982 573.6174 -266.9949
v 111.2148 570.6152 -132.7784
v 176.4838 703.0275 -106.286
v 224.7983 706.0276 -240.5353
v 121.7747 499.3242 7.590191
v 30.069 406.0796 71.9638
v -23.8306 521.6229 153.0711
v 65.61002 612.3012 88.69751
v 209.6371 665.8539 86.35269
v 287.9972 528.6529 -34.14521
v 294.3961 627.9069 -146.4143
v 228.3337 724.5244 -64.76272
v 227.4872 521.6067 96.5493
v 303.593 527.3524 -24.0369
v 284.9492 591.1761 -79.38612
v 185.8257 607.9044 21.80878
v 262.7456 582.8969 -25.49343
v 404.1365 579.9731 -44.63024
v 397.4002 712.449 -114.6407
v 256.0093 715.3727 -95.50382
v 310.8717 494.3974 -14.61941
v 197.8649 466.0025 -26.9952
v 125.0082 567.676 55.7761
v 297.8222 591.1967 99.2065
v -60.146 499.4466 30.0368
v 36.4278 408.1255 77.8687
v 100.2534 534.9164 88.5928
v 38.04411 612.3198 40.761
v 98.4366 553.4658 277.2659
v -1.06159 446.7206 176.8687
v -127.2022 518.6244 214.474
v -50.0125 624.1172 271.7378
v -55.71311 500.6631 382.5258
v 43.4587 483.9457 281.2755
v -10.99651 603.1114 208.2628
v -110.1683 619.8288 309.5131
v 107.882 509.3789 21.53279
v 177.6885 506.4095 -102.9034
v 117.6678 638.8924 -139.6209
v 47.9319 641.8516 -15.2592
v 40.3083 463.3372 160.8689
v 88.2212 479.1776 36.4327
v 50.1647 592.8405 -0.359306
v -19.6417 595.8099 124.077
vn -0.111205 0.323013 -0.939838
vn -0.111198 0.322594 -0.939983
vn -0.111205 0.323013 -0.939838
vn -0.111204 0.323312 -0.939736
vn -0.975825 0.211905 0.053501
vn -0.994424 0.079402 0.069402
vn -0.975825 0.211905 0.053501
vn -0.939496 0.340599 0.0366
vn 0.830339 0.251012 -0.497524
vn 0.844629 0.193607 -0.499117
vn 0.830339 0.251012 -0.497524
vn 0.813107 0.307603 -0.494204
vn 0.078503 0.323012 -0.943134
vn 0.078498 0.322592 -0.943278
vn 0.078503 0.323012 -0.943134
vn 0.0785 0.3234 -0.943001
vn -0.825767 0.322687 -0.462582
vn -0.825952 0.322081 -0.462673
vn -0.825767 0.322687 -0.462582
vn -0.825555 0.323382 -0.462475
vn 0.706986 0.469291 -0.52909
vn 0.706986 0.469291 -0.52909
vn 0.706986 0.469291 -0.52909
vn 0.706986 0.469291 -0.52909
vn 0.809177 0.322291 -0.491286
vn 0.809302 0.321801 -0.491401
vn 0.809177 0.322291 -0.491286
vn 0.809043 0.322717 -0.491226
vn -0.772614 0.321406 0.54751
vn -0.772376 0.32219 0.547383
vn -0.772614 0.321406 0.54751
vn -0.772808 0.320603 0.547706
vn -0.504486 0.469087 -0.72488
vn -0.504117 0.469416 -0.724924
vn -0.504486 0.469087 -0.72488
vn -0.504892 0.468793 -0.724788
vn 0.321806 0.227304 0.919116
vn 0.321992 0.227195 0.919078
vn 0.321806 0.227304 0.919116
vn 0.321589 0.227393 0.91917
vn 0.885492 0.321997 0.334997
vn 0.88557 0.321789 0.334989
vn 0.885492 0.321997 0.334997
vn 0.885413 0.322205 0.335005
vn -0.731683 0.551587 -0.40049
vn -0.731683 0.551587 -0.40049
vn -0.731683 0.551587 -0.40049
vn -0.731683 0.551587 -0.40049
vn -0.826061 0.322085 -0.462478
vn -0.825849 0.32278 -0.462371
vn -0.82606 0.322085 -0.462478
vn -0.826245 0.321479 -0.462569
vn -0.866371 0.468184 0.173794
vn -0.866371 0.468184 0.173794
vn -0.866371 0.468184 0.173794
vn -0.866371 0.468184 0.173794
vn 0.321597 0.227298 0.919191
vn 0.3215 0.2274 0.919199
vn 0.321597 0.227298 0.919191
vn 0.321597 0.227298 0.919191
vn 0.907582 0.370793 0.196996
vn 0.907634 0.370714 0.196907
vn 0.907582 0.370793 0.196996
vn 0.907497 0.370999 0.196999
vn 0.590084 0.585485 -0.555885
vn 0.590084 0.585485 -0.555885
vn 0.590084 0.585485 -0.555885
vn 0.589985 0.585585 -0.555886
vn 0.676919 0.534915 0.505614
vn 0.677187 0.534789 0.50539
vn 0.676919 0.534915 0.505614
vn 0.67667 0.535076 0.505778
vn -0.817957 0.322722 -0.476233
vn -0.817718 0.323507 -0.47611
vn -0.817957 0.322722 -0.476233
vn -0.818162 0.321985 -0.476378
vn 0.60243 0.582929 -0.545227
vn 0.602564 0.582565 -0.545467
vn 0.60243 0.582929 -0.545227
vn 0.602291 0.583292 -0.544992
vn 0.870071 0.30379 0.388187
vn 0.870259 0.303386 0.388082
vn 0.870071 0.30379 0.388187
vn 0.869916 0.304206 0.388207
vn -0.469893 0.258296 0.844087
vn -0.469893 0.258296 0.844087
vn -0.469893 0.258296 0.844087
vn -0.469893 0.258296 0.844087
vn -0.619974 0.181392 0.763367
vn -0.619801 0.181 0.763601
vn -0.619974 0.181392 0.763367
vn -0.620194 0.181798 0.763092
vn -0.741591 0.469994 0.478694
vn -0.74151 0.469906 0.478906
vn -0.741591 0.469994 0.478694
vn -0.741592 0.470195 0.478495
vn -0.603906 0.553005 0.574006
vn -0.603906 0.553005 0.574006
vn -0.603906 0.553005 0.574006
vn -0.603906 0.553005 0.574006
vn -0.469586 0.258893 0.844076
vn -0.469586 0.258893 0.844076
vn -0.469586 0.258893 0.844076
vn -0.469586 0.258893 0.844076
vn -0.683413 0.170203 -0.709914
vn -0.683425 0.170106 -0.709926
vn -0.683413 0.170203 -0.709914
vn -0.683413 0.170203 -0.709914
vn 0.791305 0.322902 -0.519203
vn 0.791403 0.322501 -0.519302
vn 0.791305 0.322902 -0.519203
vn 0.791206 0.323302 -0.519104
vn -0.741979 0.469186 0.478886
vn -0.742013 0.469108 0.478909
vn -0.741979 0.469186 0.478886
vn -0.742014 0.469209 0.478809
vn 0.809203 0.322201 -0.491302
vn 0.809302 0.321801 -0.491401
vn 0.809203 0.322201 -0.491302
vn 0.809038 0.322675 -0.491262
vn 0.870097 0.303699 0.388199
vn 0.870285 0.303295 0.388093
vn 0.870097 0.303699 0.388199
vn 0.869909 0.304103 0.388304
vn -0.0311 0.4782 -0.8777
vn -0.0232 0.4579 -0.888701
vn -0.0311 0.4782 -0.8777
vn -0.038999 0.498193 -0.866189
vn -0.1116 0.322999 -0.939796
vn -0.1116 0.322999 -0.939796
vn -0.1116 0.322999 -0.939796
vn -0.1116 0.322999 -0.939796
vn 0.078802 0.321807 0.94352
vn 0.078802 0.321807 0.94352
vn 0.078802 0.321807 0.94352
vn 0.078802 0.321807 0.94352
vn 0.308708 0.060602 0.949224
vn 0.308708 0.060602 0.949224
vn 0.308708 0.060602 0.949224
vn 0.308708 0.060602 0.949224
vn -0.923787 0.374795 0.078399
vn -0.923787 0.374795 0.078399
vn -0.923787 0.374795 0.078399
vn -0.923787 0.374795 0.078399
vn 0.590616 0.585016 -0.555815
vn 0.590616 0.585016 -0.555815
vn 0.590616 0.585016 -0.555815
vn 0.590616 0.585016 -0.555815
vn 0.800384 0.322594 -0.50529
vn 0.800384 0.322594 -0.50529
vn 0.800384 0.322594 -0.50529
vn 0.800384 0.322594 -0.50529
vn 0.800901 0.5303 0.2781
vn 0.782465 0.546875 0.297786
vn 0.800901 0.5303 0.2781
vn 0.818603 0.513102 0.258101
vn 0.590616 0.585016 -0.555815
vn 0.590616 0.585016 -0.555815
vn 0.590616 0.585016 -0.555815
vn 0.590616 0.585016 -0.555815
vn -0.953 0.2274 0.2002
vn -0.891118 0.410208 0.194004
vn -0.953 0.2274 0.2002
vn -0.97936 0.035999 0.198892
vn -0.096298 -0.052299 0.993978
vn -0.096298 -0.052299 0.993978
vn -0.096298 -0.052299 0.993978
vn -0.096298 -0.052299 0.993978
vn 0.760363 0.541674 0.358383
vn 0.64489 0.62709 0.436893
vn 0.760363 0.541674 0.358383
vn 0.855482 0.441691 0.270295
vn 0.697413 0.52251 0.490509
vn 0.717025 0.510318 0.474817
vn 0.697413 0.52251 0.490509
vn 0.677285 0.534288 0.505789
vn 0.40641 0.134603 -0.903722
vn 0.395996 0.190898 -0.89819
vn 0.40641 0.134603 -0.903722
vn 0.415485 0.077797 -0.906267
vn -0.967664 0.173294 0.183293
vn -0.967664 0.173294 0.183293
vn -0.967664 0.173294 0.183293
vn -0.967664 0.173294 0.183293
vn 0.90787 0.370088 0.196993
vn 0.90787 0.370088 0.196993
vn 0.90787 0.370088 0.196993
vn 0.90787 0.370088 0.196993
vn 0.300795 0.172897 -0.937885
vn 0.300806 0.172703 -0.937918
vn 0.300795 0.172897 -0.937885
vn 0.300785 0.173091 -0.937853
vn -0.868521 0.233306 -0.43731
vn -0.86846 0.233589 -0.43728
vn -0.868521 0.233306 -0.437311
vn -0.868523 0.233106 -0.437412
vn -0.868498 0.233599 -0.437199
vn -0.868498 0.233599 -0.437199
vn -0.868498 0.233599 -0.437199
vn -0.868498 0.233599 -0.437199
vn -0.731683 0.551587 -0.40049
vn -0.731683 0.551587 -0.40049
vn -0.731683 0.551587 -0.40049
vn -0.731683 0.551587 -0.40049
vn -0.773033 0.322414 0.546323
vn -0.772885 0.322994 0.54619
vn -0.773033 0.322414 0.546323
vn -0.773178 0.321791 0.546485
vn -0.504981 0.469183 -0.724473
vn -0.505214 0.469013 -0.724421
vn -0.504981 0.469183 -0.724473
vn -0.504711 0.46941 -0.724515
vn 0.707119 0.468613 -0.529514
vn 0.707173 0.468682 -0.52938
vn 0.707119 0.468613 -0.529514
vn 0.707081 0.468588 -0.529586
vn 0.863433 0.459718 0.207708
vn 0.863433 0.459718 0.207708
vn 0.863433 0.459718 0.207708
vn 0.863433 0.459718 0.207708
vn 0.300904 0.173102 -0.937813
vn 0.300988 0.172693 -0.937861
vn 0.300904 0.173102 -0.937813
vn 0.300888 0.173393 -0.937764
vn 0.654026 0.604324 0.455018
vn 0.7185 0.5515 0.4238
vn 0.654026 0.604324 0.455018
vn 0.584291 0.65239 0.482692
vn 0.321798 0.226999 0.919194
vn 0.321798 0.226999 0.919194
vn 0.321798 0.226999 0.919194
vn 0.321798 0.226999 0.919194
vn 0.885382 0.322094 0.335193
vn 0.885382 0.322094 0.335193
vn 0.885382 0.322094 0.335193
vn 0.885382 0.322094 0.335193
vn 0.590121 0.585321 -0.556019
vn 0.590222 0.585122 -0.556121
vn 0.590121 0.585321 -0.556019
vn 0.589985 0.585585 -0.555886
vn -0.127493 0.322483 -0.93795
vn -0.127501 0.322902 -0.937805
vn -0.127493 0.322483 -0.93795
vn -0.127502 0.322005 -0.938113
vn -0.297895 0.169197 0.939484
vn -0.297908 0.169505 0.939425
vn -0.297895 0.169197 0.939485
vn -0.29791 0.168906 0.939532
vn -0.967712 0.172802 0.183502
vn -0.967678 0.172996 0.183496
vn -0.967712 0.172802 0.183502
vn -0.967768 0.172494 0.183494
vn -0.166197 0.110498 0.979882
vn -0.164002 0.017 0.986314
vn -0.166197 0.110498 0.979882
vn -0.166895 0.202894 0.964873
vn -0.834028 0.469415 -0.28991
vn -0.833895 0.469597 -0.289998
vn -0.834028 0.469415 -0.28991
vn -0.834176 0.469286 -0.289692
vn 0.791913 0.322205 0.518708
vn 0.791923 0.322009 0.518815
vn 0.791913 0.322205 0.518708
vn 0.791799 0.3225 0.518699
vn 0.791928 0.322312 0.518619
vn 0.792064 0.321885 0.518676
vn 0.791928 0.322312 0.518618
vn 0.791804 0.322802 0.518503
vn -0.619826 0.181208 0.763531
vn -0.619826 0.181208 0.763531
vn -0.619826 0.181208 0.763532
vn -0.619789 0.181097 0.763587
vn -0.868817 0.469009 0.158703
vn -0.868817 0.469009 0.158703
vn -0.868817 0.469009 0.158703
vn -0.868817 0.469009 0.158703
vn 0.260808 0.469514 -0.843526
vn 0.260808 0.469514 -0.843526
vn 0.260808 0.469514 -0.843526
vn 0.260808 0.469514 -0.843526
vn 0.792476 0.552883 0.257492
vn 0.792476 0.552883 0.257492
vn 0.792476 0.552883 0.257492
vn 0.792476 0.552883 0.257492
vn -0.834215 0.469208 -0.289705
vn -0.834269 0.469183 -0.289589
vn -0.834215 0.469208 -0.289705
vn -0.834176 0.469286 -0.289692
vn -0.682297 0.175099 -0.709797
vn -0.681289 0.180197 -0.709489
vn -0.682297 0.175099 -0.709797
vn -0.683388 0.169997 -0.709987
vn 0.903503 0.328301 0.275501
vn 0.918225 0.269307 0.290408
vn 0.903503 0.328301 0.275501
vn 0.885226 0.386112 0.259408
vn 0.626701 0.632701 0.454901
vn 0.671213 0.587812 0.451609
vn 0.626701 0.632701 0.454901
vn 0.579694 0.675093 0.456295
vn 0.127994 0.468476 0.874156
vn 0.127994 0.468476 0.874156
vn 0.127994 0.468476 0.874156
vn 0.127994 0.468476 0.874156
vn -0.0033 0.688465 -0.725263
vn -0.064101 0.602009 -0.795912
vn -0.0033 0.688464 -0.725263
vn 0.057599 0.763789 -0.642891
vn -0.371577 0.175089 0.911743
vn -0.361213 0.103404 0.926733
vn -0.371577 0.175089 0.911743
vn -0.379891 0.245794 0.891778
vn 0.162701 0.490002 -0.856403
vn 0.120698 0.618089 -0.776787
vn 0.162701 0.490002 -0.856403
vn 0.200611 0.349918 -0.915048
vn 0.620682 0.595883 0.509585
vn 0.620682 0.595883 0.509585
vn 0.620682 0.595883 0.509585
vn 0.620682 0.595883 0.509585
vn 0.775216 0.46861 0.423609
vn 0.775184 0.46859 0.423691
vn 0.775216 0.46861 0.423609
vn 0.775293 0.468496 0.423596
vn 0.807026 0.435314 0.399013
vn 0.836672 0.400887 0.373188
vn 0.807026 0.435314 0.399013
vn 0.77522 0.468512 0.423711
vt 0 0
vt 1 0
vt 1 1
vt 0 1
vt 0 0
vt 1 0
vt 1 1
vt 0 1
vt 0 0
vt 1 0
vt 1 1
vt 0 1
vt 0 0
vt 1 0
vt 1 1
vt 0 1
vt 0 0
vt 1 0
vt 1 1
vt 0 1
vt 0 0
vt 1 0
vt 1 1
vt 0 1
vt 0 0
vt 1 0
vt 1 1
vt 0 1
vt 0 0
vt 1 0
vt 1 1
vt 0 1
vt 0 0
vt 1 0
vt 1 1
vt 0 1
vt 0 0
vt 1 0
vt 1 1
vt 0 1
vt 0 0
vt 1 0
vt 1 1
vt 0 1
vt 0 0
vt 1 0
vt 1 1
vt 0 1
vt 0 0
vt 1 0
vt 1 1
vt 0 1
vt 0 0
vt 1 0
vt 1 1
vt 0 1
vt 0 0
vt 1 0
vt 1 1
vt 0 1
vt 0 0
vt 1 0
vt 1 1
vt 0 1
vt 0 0
vt 1 0
vt 1 1
vt 0 1
vt 0 0
vt 1 0
vt 1 1
vt 0 1
vt 0 0
vt 1 0
vt 1 1
vt 0 1
vt 0 0
vt 1 0
vt 1 1
vt 0 1
vt 0 0
vt 1 0
vt 1 1
vt 0 1
vt 0 0
vt 1 0
vt 1 1
vt 0 1
vt 0 0
vt 1 0
vt 1 1
vt 0 1
vt 0 0
vt 1 0
vt 1 1
vt 0 1
vt 0 0
vt 1 0
vt 1 1
vt 0 1
vt 0 0
vt 1 0
vt 1 1
vt 0 1
vt 0 0
vt 1 0
vt 1 1
vt 0 1
vt 0 0
vt 1 0
vt 1 1
vt 0 1
vt 0 0
vt 1 0
vt 1 1
vt 0 1
vt 0 0
vt 1 0
vt 1 1
vt 0 1
vt 0 0
vt 1 0
vt 1 1
vt 0 1
vt 0 0
vt 1 0
vt 1 1
vt 0 1
vt 0 0
vt 1 0
vt 1 1
vt 0 1
vt 0 0
vt 1 0
vt 1 1
vt 0 1
vt 0 0
vt 1 0
vt 1 1
vt 0 1
vt 0 0
vt 1 0
vt 1 1
vt 0 1
vt 0 0
vt 1 0
vt 1 1
vt 0 1
vt 0 0
vt 1 0
vt 1 1
vt 0 1
vt 0 0
vt 1 0
vt 1 1
vt 0 1
vt 0 0
vt 1 0
vt 1 1
vt 0 1
vt 0 0
vt 1 0
vt 1 1
vt 0 1
vt 0 0
vt 1 0
vt 1 1
vt 0 1
vt 0 0
vt 1 0
vt 1 1
vt 0 1
vt 0 0
vt 1 0
vt 1 1
vt 0 1
vt 0 0
vt 1 0
vt 1 1
vt 0 1
vt 0 0
vt 1 0
vt 1 1
vt 0 1
vt 0 0
vt 1 0
vt 1 1
vt 0 1
vt 0 0
vt 1 0
vt 1 1
vt 0 1
vt 0 0
vt 1 0
vt 1 1
vt 0 1
vt 0 0
vt 1 0
vt 1 1
vt 0 1
vt 0 0
vt 1 0
vt 1 1
vt 0 1
vt 0 0
vt 1 0
vt 1 1
vt 0 1
vt 0 0
vt 1 0
vt 1 1
vt 0 1
vt 0 0
vt 1 0
vt 1 1
vt 0 1
vt 0 0
vt 1 0
vt 1 1
vt 0 1
vt 0 0
vt 1 0
vt 1 1
vt 0 1
vt 0 0
vt 1 0
vt 1 1
vt 0 1
vt 0 0
vt 1 0
vt 1 1
vt 0 1
vt 0 0
vt 1 0
vt 1 1
vt 0 1
vt 0 0
vt 1 0
vt 1 1
vt 0 1
vt 0 0
vt 1 0
vt 1 1
vt 0 1
vt 0 0
vt 1 0
vt 1 1
vt 0 1
vt 0 0
vt 1 0
vt 1 1
vt 0 1
vt 0 0
vt 1 0
vt 1 1
vt 0 1
vt 0 0
vt 1 0
vt 1 1
vt 0 1
vt 0 0
vt 1 0
vt 1 1
vt 0 1
vt 0 0
vt 1 0
vt 1 1
vt 0 1
vt 0 0
vt 1 0
vt 1 1
vt 0 1
vt 0 0
vt 1 0
vt 1 1
vt 0 1
vt 0 0
vt 1 0
vt 1 1
vt 0 1
vt 0 0
vt 1 0
vt 1 1
vt 0 1
vt 0 0
vt 1 0
vt 1 1
vt 0 1
vt 0 0
vt 1 0
vt 1 1
vt 0 1
vt 0 0
vt 1 0
vt 1 1
vt 0 1
vt 0 0
vt 1 0
vt 1 1
vt 0 1
vt 0 0
vt 1 0
vt 1 1
vt 0 1
vt 0 0
vt 1 0
vt 1 1
vt 0 1
vt 0 0
vt 1 0
vt 1 1
vt 0 1
vt 0 0
vt 1 0
vt 1 1
vt 0 1
vt 0 0
vt 1 0
vt 1 1
vt 0 1
vt 0 0
vt 1 0
vt 1 1
vt 0 1
vt 0 0
vt 1 0
vt 1 1
vt 0 1
f 445/445/445 447/447/447 446/446/446
f 447/447/447 445/445/445 448/448/448
f 449/449/449 451/451/451 450/450/450
f 451/451/451 449/449/449 452/452/452
f 453/453/453 455/455/455 454/454/454
f 455/455/455 453/453/453 456/456/456
f 457/457/457 459/459/459 458/458/458
f 459/459/459 457/457/457 460/460/460
f 461/461/461 463/463/463 462/462/462
f 463/463/463 461/461/461 464/464/464
f 465/465/465 467/467/467 466/466/466
f 467/467/467 465/465/465 468/468/468
f 469/469/469 471/471/471 470/470/470
f 471/471/471 469/469/469 472/472/472
f 473/473/473 475/475/475 474/474/474
f 475/475/475 473/473/473 476/476/476
f 477/477/477 479/479/479 478/478/478
f 479/479/479 477/477/477 480/480/480
f 481/481/481 483/483/483 482/482/482
f 483/483/483 481/481/481 484/484/484
f 485/485/485 487/487/487 486/486/486
f 487/487/487 485/485/485 488/488/488
f 489/489/489 491/491/491 490/490/490
f 491/491/491 489/489/489 492/492/492
f 493/493/493 495/495/495 494/494/494
f 495/495/495 493/493/493 496/496/496
f 497/497/497 499/499/499 498/498/498
f 499/499/499 497/497/497 500/500/500
f 501/501/501 503/503/503 502/502/502
f 503/503/503 501/501/501 504/504/504
f 505/505/505 507/507/507 506/506/506
f 507/507/507 505/505/505 508/508/508
f 509/509/509 511/511/511 510/510/510
f 511/511/511 509/509/509 512/512/512
f 513/513/513 515/515/515 514/514/514
f 515/515/515 513/513/513 516/516/516
f 517/517/517 519/519/519 518/518/518
f 519/519/519 517/517/517 520/520/520
f 521/521/521 523/523/523 522/522/522
f 523/523/523 521/521/521 524/524/524
f 525/525/525 527/527/527 526/526/526
f 527/527/527 525/525/525 528/528/528
f 529/529/529 531/531/531 530/530/530
f 531/531/531 529/529/529 532/532/532
f 533/533/533 535/535/535 534/534/534
f 535/535/535 533/533/533 536/536/536
f 537/537/537 539/539/539 538/538/538
f 539/539/539 537/537/537 540/540/540
f 541/541/541 543/543/543 542/542/542
f 543/543/543 541/541/541 544/544/544
f 545/545/545 547/547/547 546/546/546
f 547/547/547 545/545/545 548/548/548
f 549/549/549 551/551/551 550/550/550
f 551/551/551 549/549/549 552/552/552
f 553/553/553 555/555/555 554/554/554
f 555/555/555 553/553/553 556/556/556
f 557/557/557 559/559/559 558/558/558
f 559/559/559 557/557/557 560/560/560
f 561/561/561 563/563/563 562/562/562
f 563/563/563 561/561/561 564/564/564
f 565/565/565 567/567/567 566/566/566
f 567/567/567 565/565/565 568/568/568
f 569/569/569 571/571/571 570/570/570
f 571/571/571 569/569/569 572/572/572
f 573/573/573 575/575/575 574/574/574
f 575/575/575 573/573/573 576/576/576
f 577/577/577 579/579/579 578/578/578
f 579/579/579 577/577/577 580/580/580
f 581/581/581 583/583/583 582/582/582
f 583/583/583 581/581/581 584/584/584
f 585/585/585 587/587/587 586/586/586
f 587/587/587 585/585/585 588/588/588
f 589/589/589 591/591/591 590/590/590
f 591/591/591 589/589/589 592/592/592
f 593/593/593 595/595/595 594/594/594
f 595/595/595 593/593/593 596/596/596
f 597/597/597 599/599/599 598/598/598
f 599/599/599 597/597/597 600/600/600
f 601/601/601 603/603/603 602/602/602
f 603/603/603 601/601/601 604/604/604
f 605/605/605 607/607/607 606/606/606
f 607/607/607 605/605/605 608/608/608
f 609/609/609 611/611/611 610/610/610
f 611/611/611 609/609/609 612/612/612
f 613/613/613 615/615/615 614/614/614
f 615/615/615 613/613/613 616/616/616
f 617/617/617 619/619/619 618/618/618
f 619/619/619 617/617/617 620/620/620
f 621/621/621 623/623/623 622/622/622
f 623/623/623 621/621/621 624/624/624
f 625/625/625 627/627/627 626/626/626
f 627/627/627 625/625/625 628/628/628
f 629/629/629 631/631/631 630/630/630
f 631/631/631 629/629/629 632/632/632
f 633/633/633 635/635/635 634/634/634
f 635/635/635 633/633/633 636/636/636
f 637/637/637 639/639/639 638/638/638
f 639/639/639 637/637/637 640/640/640
f 641/641/641 643/643/643 642/642/642
f 643/643/643 641/641/641 644/644/644
f 645/645/645 647/647/647 646/646/646
f 647/647/647 645/645/645 648/648/648
f 649/649/649 651/651/651 650/650/650
f 651/651/651 649/649/649 652/652/652
f 653/653/653 655/655/655 654/654/654
f 655/655/655 653/653/653 656/656/656
f 657/657/657 659/659/659 658/658/658
f 659/659/659 657/657/657 660/660/660
f 661/661/661 663/663/663 662/662/662
f 663/663/663 661/661/661 664/664/664
f 665/665/665 667/667/667 666/666/666
f 667/667/667 665/665/665 668/668/668
f 669/669/669 671/671/671 670/670/670
f 671/671/671 669/669/669 672/672/672
f 673/673/673 675/675/675 674/674/674
f 675/675/675 673/673/673 676/676/676
f 677/677/677 679/679/679 678/678/678
f 679/679/679 677/677/677 680/680/680
f 681/681/681 683/683/683 682/682/682
f 683/683/683 681/681/681 684/684/684
f 685/685/685 687/687/687 686/686/686
f 687/687/687 685/685/685 688/688/688
f 689/689/689 691/691/691 690/690/690
f 691/691/691 689/689/689 692/692/692
f 693/693/693 695/695/695 694/694/694
f 695/695/695 693/693/693 696/696/696
f 697/697/697 699/699/699 698/698/698
f 699/699/699 697/697/697 700/700/700
f 701/701/701 703/703/703 702/702/702
f 703/703/703 701/701/701 704/704/704
f 705/705/705 707/707/707 706/706/706
f 707/707/707 705/705/705 708/708/708
f 709/709/709 711/711/711 710/710/710
f 711/711/711 709/709/709 712/712/712
f 713/713/713 715/715/715 714/714/714
f 715/715/715 713/713/713 716/716/716
f 717/717/717 719/719/719 718/718/718
f 719/719/719 717/717/717 720/720/720
f 721/721/721 723/723/723 722/722/722
f 723/723/723 721/721/721 724/724/724
f 725/725/725 727/727/727 726/726/726
f 727/727/727 725/725/725 728/728/728
f 729/729/729 731/731/731 730/730/730
f 731/731/731 729/729/729 732/732/732
f 733/733/733 735/735/735 734/734/734
f 735/735/735 733/733/733 736/736/736
f 737/737/737 739/739/739 738/738/738
f 739/739/739 737/737/737 740/740/740
f 741/741/741 743/743/743 742/742/742
f 743/743/743 741/741/741 744/744/744
f 745/745/745 747/747/747 746/746/746
f 747/747/747 745/745/745 748/748/748
f 749/749/749 751/751/751 750/750/750
f 751/751/751 749/749/749 752/752/752
f 753/753/753 755/755/755 754/754/754
f 755/755/755 753/753/753 756/756/756
f 757/757/757 759/759/759 758/758/758
f 759/759/759 757/757/757 760/760/760
f 761/761/761 763/763/763 762/762/762
f 763/763/763 761/761/761 764/764/764
f 765/765/765 767/767/767 766/766/766
f 767/767/767 765/765/765 768/768/768
f 769/769/769 771/771/771 770/770/770
f 771/771/771 769/769/769 772/772/772
