# Tree12.bmd — MU bind-pose geometry, exported for MU2
# 2 mesh(es)

g tree_01
# texture: tree_01.jpg
v 18.9795 55.68069 -4.7188
v 0.4581 180.0875 -15.3459
v 13.877 157.2136 0.5828
v 5.5722 47.023 -22.4787
v -10.3998 147.4544 -4.0571
v -16.1213 27.9327 -16.0603
v -10.3998 139.511 4.7613
v -16.1213 45.0825 2.8266
v 0.4581 175.2563 8.7778
v 5.5722 71.5379 10.8443
v 13.877 157.2136 0.5828
v 18.9795 55.68069 -4.7188
v -17.4032 233.4554 -10.5801
v 1.4181 230.1695 -17.0209
v 1.1619 237.5731 3.2677
v -16.3831 230.8083 -1.9315
v 11.6413 226.7431 -6.1466
v 11.6413 226.7431 -6.1466
v -57.7081 366.8223 -0.9511
v -48.5266 356.986 5.2914
v -61.8289 354.8817 1.1086
v -59.9105 349.9038 9.4436
v -56.6661 364.1186 12.993
v -62.8381 432.056 -3.7291
v -62.8381 432.056 2.7376
v -68.7479 428.7215 0.6189
v -50.3287 490.0803 -26.5009
v -62.8381 432.056 2.7376
v -62.8381 432.056 -3.7291
v -68.7479 428.7215 0.6189
v 23.2617 0.891001 -10.3401
v -2.3006 0.1893 -35.1068
v -20.2064 0.1893 -12.4033
v -19.7842 0.1893 15.4935
v 12.7677 0.1893 21.129
v 23.2617 0.891001 -10.3401
v 56.2386 277.577 -50.7177
v 127.6561 384.9612 -7.7644
v 123.0663 369.9458 -3.9838
v 63.3458 299.7835 -55.5817
v 117.4304 382.9178 -11.1092
v 63.3458 299.7835 -55.5817
v 46.0673 292.3295 -59.4879
v 117.4304 382.9178 -11.1092
v 111.3288 377.7696 -5.2145
v 51.6246 306.1514 -45.8052
v 51.6246 306.1514 -45.8052
v 119.8384 381.4902 3.6887
v 111.3288 377.7696 -5.2145
v 31.6295 275.4571 -34.8244
v 133.2711 427.7744 30.4388
v 124.9821 424.3791 35.5288
v 126.4926 431.9428 29.8918
v 140.5938 467.0845 70.0582
v 12.8617 203.42 -3.3173
v 50.3996 269.258 -41.6551
v 31.6295 275.4571 -34.8244
v 11.6413 226.7431 -6.1466
v 24.5379 271.0684 -42.3112
v 1.4181 230.1695 -17.0209
v 44.321 283.2455 -59.6435
v -0.4257 207.4401 -21.4823
v -0.4257 207.4401 -21.4823
v 44.321 283.2455 -59.6435
v 43.8515 263.856 -53.4016
v 18.951 205.9104 -13.6347
v 50.3996 269.258 -41.6551
v 12.8617 203.42 -3.3173
v 56.2386 277.577 -50.7177
v 100.8398 312.6526 -106.4117
v 103.1859 328.1758 -110.8008
v 63.3458 299.7835 -55.5817
v 92.8162 326.5149 -107.7691
v 46.0673 292.3295 -59.4879
v 88.3741 316.7863 -110.157
v 66.8161 312.871 -75.747
v 97.8533 315.3371 -118.5143
v 64.4732 290.3216 -69.6659
v 95.6394 367.6139 -161.3794
v 98.566 373.3217 -158.0626
v 90.964 373.4362 -159.9667
v 109.4877 425.5376 -193.622
v 46.0673 292.3295 -59.4879
v 56.2386 277.577 -50.7177
v 24.5379 271.0684 -42.3112
v 24.5379 271.0684 -42.3112
v -57.9386 307.1412 48.2994
v -102.5407 335.4821 54.7827
v -110.1918 337.0493 61.8624
v -69.4725 309.927 58.3571
v -107.9186 327.4036 61.2305
v -107.9186 327.4036 61.2305
v -63.8224 294.4763 55.1952
v -106.6162 324.0734 54.6564
v -75.9636 301.5161 50.5188
v -111.4959 333.4778 51.5458
v -66.3581 303.6989 39.6639
v -66.3581 303.6989 39.6639
v -111.4959 333.4778 51.5458
v -142.4023 332.9768 93.655
v -141.021 334.1872 98.2875
v -110.1918 337.0493 61.8624
v -141.021 334.1872 98.2875
v -143.7462 328.0516 96.6582
v -142.4023 332.9768 93.655
v -106.6162 324.0734 54.6564
v -182.8996 373.499 110.4792
v -182.8996 373.499 110.4792
v -28.8212 300.0828 13.051
v -55.7342 305.1734 38.931
v -43.7258 290.4986 9.518
v -58.3804 285.5884 32.8083
v -33.5318 265.1293 5.777
v -58.4793 293.8037 52.792
v -23.9499 261.8072 9.236
v -49.0526 296.9263 44.0205
v -23.8752 282.9268 19.9462
v -75.1786 346.4697 128.4211
v -65.7789 345.0741 123.8763
v -73.3623 336.7791 127.1266
v -66.6218 333.9829 128.4363
v -71.1372 306.4763 75.7133
v -65.8659 343.9406 133.4956
v -59.8086 308.2251 65.8799
v -73.4478 334.8536 163.4854
v -69.5668 334.1599 166.4815
v -72.6348 329.0653 166.9852
v -84.4423 348.382 196.2651
v 18.951 205.9104 -13.6347
v -0.4257 207.4401 -21.4823
v 18.951 205.9104 -13.6347
v 12.8617 203.42 -3.3173
v -23.9499 261.8072 9.236
v -33.5318 265.1293 5.777
v -23.8752 282.9268 19.9462
v -43.7258 290.4986 9.518
v -28.8212 300.0828 13.051
v 97.0569 357.0995 -13.267
v 95.3157 358.1009 -20.1357
v 146.732 397.9037 -26.5034
v 147.9412 397.2083 -21.7335
v 205.5208 411.6928 -46.6086
v 95.3157 358.1009 -20.1357
v 93.9344 360.7493 -16.0576
v 145.7728 399.7429 -23.6713
v 146.732 397.9037 -26.5034
v 205.5208 411.6928 -46.6086
v 93.9344 360.7493 -16.0576
v 97.0569 357.0995 -13.267
v 147.9412 397.2083 -21.7335
v 145.7728 399.7429 -23.6713
v 205.5208 411.6928 -46.6086
v 138.9939 389.5362 -19.6292
v 141.7842 391.5389 -23.3734
v 160.3972 435.5167 12.1282
v 141.7842 391.5389 -23.3734
v 138.6113 392.1992 -22.432
v 160.3972 435.5167 12.1282
v 138.6113 392.1992 -22.432
v 138.9939 389.5362 -19.6292
v 160.3972 435.5167 12.1282
v 129.7614 383.9456 -20.8554
v 126.4087 381.0022 -22.6638
v 145.1286 414.0074 -61.6011
v 126.4087 381.0022 -22.6638
v 126.6717 384.7474 -21.3983
v 145.1286 414.0074 -61.6011
v 126.6717 384.7474 -21.3983
v 129.7614 383.9456 -20.8554
v 145.1286 414.0074 -61.6011
v 53.9975 286.2537 -62.4436
v 44.1067 287.6957 -59.9363
v 34.9372 345.0118 -133.9758
v 41.8058 344.0104 -135.717
v 5.9855 364.868 -218.6316
v 44.1067 287.6957 -59.9363
v 49.9792 291.5094 -57.9472
v 39.0153 347.6602 -132.5945
v 34.9372 345.0118 -133.9758
v 5.9855 364.868 -218.6316
v 49.9792 291.5094 -57.9472
v 53.9975 286.2537 -62.4436
v 41.8058 344.0104 -135.717
v 39.0153 347.6602 -132.5945
v 5.9855 364.868 -218.6316
v 44.836 332.9625 -122.8329
v 39.4444 335.8465 -126.8509
v 90.5666 399.1744 -153.6537
v 39.4444 335.8465 -126.8509
v 40.8 336.7971 -122.282
v 90.5666 399.1744 -153.6537
v 40.8 336.7971 -122.282
v 44.836 332.9625 -122.8329
v 90.5666 399.1744 -153.6537
v 43.0702 324.912 -109.538
v 40.4661 320.6736 -104.7103
v -15.6035 368.201 -131.6668
v 40.4661 320.6736 -104.7103
v 42.2885 326.0667 -105.089
v -15.6035 368.201 -131.6668
v 42.2885 326.0667 -105.089
v 43.0702 324.912 -109.538
v -15.6035 368.201 -131.6668
v -31.6177 289.7536 -4.5085
v -40.5226 291.1956 0.4734
v -68.5424 348.5117 -68.6701
v -62.3585 347.5103 -72.1297
v -118.4181 368.368 -142.9481
v -40.5226 291.1956 0.4734
v -34.3354 295.0093 0.8748
v -64.2458 351.1601 -68.3913
v -68.5424 348.5117 -68.6701
v -118.4181 368.368 -142.9481
v -34.3354 295.0093 0.8748
v -31.6177 289.7536 -4.5085
v -62.3585 347.5103 -72.1297
v -64.2458 351.1601 -68.3913
v -118.4181 368.368 -142.9481
v -56.097 336.4625 -60.4688
v -62.3448 339.3465 -62.9546
v -19.9016 402.6744 -102.0754
v -62.3448 339.3465 -62.9546
v -59.8529 340.297 -58.8922
v -19.9016 402.6744 -102.0754
v -59.8529 340.297 -58.8922
v -56.097 336.4625 -60.4688
v -19.9016 402.6744 -102.0754
v -54.3616 328.412 -47.17
v -55.6274 324.1736 -41.8327
v -116.7634 371.701 -53.3589
v -55.6274 324.1736 -41.8327
v -53.9652 329.5666 -42.6702
v -116.7634 371.701 -53.3589
v -53.9652 329.5666 -42.6702
v -54.3616 328.412 -47.17
v -116.7634 371.701 -53.3589
v -67.4726 380.1086 3.2492
v -65.4239 380.9878 9.124
v -109.9108 415.9366 18.6286
v -111.3335 415.326 14.5489
v -159.7952 428.0441 40.7138
v -65.4239 380.9878 9.124
v -64.5277 383.3133 5.4511
v -109.2885 417.5516 16.078
v -109.9108 415.9366 18.6286
v -159.7952 428.0441 40.7138
v -64.5277 383.3133 5.4511
v -67.4726 380.1086 3.2492
v -111.3335 415.326 14.5489
v -109.2885 417.5516 16.078
v -159.7952 428.0441 40.7138
v -103.6683 408.5895 12.0235
v -105.8225 410.3481 15.5121
v -124.8202 448.9627 -14.117
v -105.8225 410.3481 15.5121
v -103.1192 410.9277 14.4459
v -124.8202 448.9627 -14.117
v -103.1192 410.9277 14.4459
v -103.6683 408.5895 12.0235
v -124.8202 448.9627 -14.117
v -95.4987 403.6806 12.3896
v -92.4277 401.0963 13.7148
v -105.8224 430.0764 49.2061
v -92.4277 401.0963 13.7148
v -92.7546 404.3848 12.628
v -105.8224 430.0764 49.2061
v -92.7546 404.3848 12.628
v -95.4987 403.6806 12.3896
v -105.8224 430.0764 49.2061
v -65.5739 293.8481 41.4198
v -56.3854 295.2902 45.8568
v -96.9528 352.6062 108.4684
v -103.3337 351.6048 105.3872
v -129.1903 372.4624 191.9283
v -56.3854 295.2902 45.8568
v -59.6054 299.1039 40.5583
v -99.1889 355.2547 104.7889
v -96.9528 352.6062 108.4684
v -129.1903 372.4624 191.9283
v -59.6054 299.1039 40.5583
v -65.5739 293.8481 41.4198
v -103.3337 351.6048 105.3872
v -99.1889 355.2547 104.7889
v -129.1903 372.4624 191.9283
v -97.3732 340.557 93.5696
v -95.8258 343.4409 100.1133
v -152.2161 406.7689 87.7847
v -95.8258 343.4409 100.1133
v -93.9274 344.3915 95.7419
v -152.2161 406.7689 87.7847
v -93.9274 344.3915 95.7419
v -97.3732 340.557 93.5696
v -152.2161 406.7689 87.7847
v -87.4748 332.5064 84.5202
v -82.3767 328.2681 82.4958
v -56.7522 375.7954 139.1866
v -82.3767 328.2681 82.4958
v -84.0161 333.6611 81.6145
v -56.7522 375.7954 139.1866
v -84.0161 333.6611 81.6145
v -87.4748 332.5064 84.5202
v -56.7522 375.7954 139.1866
v -1.8198 210.4693 -3.5037
v 7.814899 211.9113 -6.8636
v 23.4025 269.2274 66.095
v 16.7117 268.226 68.4282
v 59.6222 289.0836 147.9054
v 7.814899 211.9113 -6.8636
v 1.7914 215.7251 -8.3333
v 19.2195 271.8759 65.0744
v 23.4025 269.2274 66.095
v 59.6222 289.0836 147.9054
v 1.7914 215.7251 -8.3333
v -1.8198 210.4693 -3.5037
v 16.7117 268.226 68.4282
v 19.2195 271.8759 65.0744
v 59.6222 289.0836 147.9054
v 12.5702 257.1782 55.8572
v 18.2915 260.0621 59.3901
v -30.3002 323.3901 90.5464
v 18.2915 260.0621 59.3901
v 16.5428 261.0128 54.9567
v -30.3002 323.3901 90.5464
v 16.5428 261.0128 54.9567
v 12.5702 257.1782 55.8572
v -30.3002 323.3901 90.5464
v 13.1705 249.1276 42.4591
v 15.3439 244.8893 37.4227
v 73.5496 292.4166 59.3899
v 15.3439 244.8893 37.4227
v 13.5615 250.2824 37.9588
v 73.5496 292.4166 59.3899
v 13.5615 250.2824 37.9588
v 13.1705 249.1276 42.4591
v 73.5496 292.4166 59.3899
vn 0.993277 0.094898 -0.066298
vn -0.026699 -0.086797 -0.995868
vn 0.854695 0.006 0.519097
vn 0.140004 0.153204 -0.978227
vn -0.890527 -0.017001 -0.454614
vn -0.874351 0.128493 -0.467974
vn -0.847587 0.033599 0.529592
vn -0.860796 0.1092 0.497098
vn 0.119502 0.054901 0.991315
vn 0.212696 0.123498 0.969283
vn 0.854695 0.006 0.519097
vn 0.993277 0.094898 -0.066298
vn -0.826705 -0.187701 -0.530403
vn -0.610811 0.194903 -0.767413
vn 0.429811 0.118403 0.895122
vn -0.877848 -0.270815 0.395022
vn 0.487198 0.539397 0.686797
vn 0.487198 0.539397 0.686797
vn 0.171202 0.134502 -0.976012
vn 0.954822 0.287507 0.075202
vn -0.73911 -0.136502 -0.659609
vn -0.958458 -0.195292 0.207891
vn 0.246511 0.168708 0.954343
vn 0.507209 -0.108902 -0.854915
vn 0.328688 0.220792 0.918267
vn -0.971826 0.029801 -0.233806
vn -0.258193 0.261693 -0.929975
vn 0.328688 0.220792 0.918267
vn 0.507209 -0.108902 -0.854915
vn -0.971826 0.029801 -0.233806
vn 0.914268 0.092597 -0.394386
vn -0.263986 0.18279 -0.947048
vn -0.96396 0.086796 -0.25149
vn -0.697794 0.186498 0.691594
vn 0.650813 0.132903 0.747515
vn 0.914268 0.092597 -0.394386
vn 0.88026 -0.44148 0.173892
vn 0.724014 0.120302 -0.679213
vn 0.602331 -0.58693 0.541028
vn 0.525918 0.757026 -0.387713
vn -0.274602 0.610603 -0.742804
vn 0.525918 0.757026 -0.387713
vn -0.631981 0.595482 -0.495985
vn -0.274602 0.610603 -0.742804
vn -0.911387 0.407094 0.060399
vn -0.787896 0.610497 0.0807
vn -0.787896 0.610497 0.0807
vn -0.529602 -0.174501 0.830103
vn -0.911387 0.407094 0.060399
vn -0.006 0.300609 0.953729
vn 0.997531 -0.065402 -0.025601
vn -0.405498 -0.460897 0.789396
vn -0.430387 0.68418 -0.588783
vn 0.1756 0.959702 -0.219401
vn 0.541996 0.070799 0.837394
vn 0.891473 -0.278092 0.357689
vn -0.006 0.300609 0.953729
vn 0.487198 0.539397 0.686797
vn -0.859698 0.503799 -0.0843
vn -0.610811 0.194903 -0.767413
vn -0.589523 -0.044402 -0.806531
vn -0.431307 -0.266605 -0.861914
vn -0.431307 -0.266605 -0.861914
vn -0.589523 -0.044402 -0.806531
vn 0.175309 -0.549429 -0.816943
vn 0.825118 -0.404209 -0.394709
vn 0.891473 -0.278092 0.357689
vn 0.541996 0.070799 0.837394
vn 0.88026 -0.44148 0.173892
vn 0.820686 -0.513591 -0.250396
vn 0.584736 0.49063 0.646039
vn 0.525918 0.757026 -0.387713
vn -0.499301 0.812501 0.3009
vn -0.631981 0.595482 -0.495985
vn -0.821295 -0.438797 -0.364598
vn -0.482477 -0.42088 -0.768164
vn -0.191498 -0.749592 -0.633593
vn 0.106204 -0.786629 -0.608223
vn 0.242099 -0.577597 -0.779596
vn 0.952686 0.182197 0.243297
vn -0.775718 0.512312 0.368509
vn 0.58809 -0.189897 -0.786187
vn -0.631981 0.595482 -0.495985
vn 0.88026 -0.44148 0.173892
vn -0.859698 0.503799 -0.0843
vn -0.859698 0.503799 -0.0843
vn 0.437703 0.889407 -0.131801
vn -0.0011 0.875681 -0.482889
vn 0.589782 0.187994 0.785376
vn -0.581278 0.300788 0.756071
vn 0.163402 -0.433506 0.886212
vn 0.163402 -0.433506 0.886212
vn -0.450081 -0.775767 0.442281
vn -0.570803 -0.796004 -0.201401
vn -0.666489 -0.64619 -0.371794
vn -0.521515 -0.0142 -0.853124
vn -0.383099 0.529899 -0.756599
vn -0.383099 0.529899 -0.756599
vn -0.521515 -0.0142 -0.853124
vn -0.521213 0.465312 -0.715418
vn 0.578377 0.620675 0.529379
vn 0.589782 0.187994 0.785376
vn 0.578377 0.620675 0.529379
vn 0.229703 -0.793109 0.564106
vn -0.521213 0.465312 -0.715418
vn -0.570803 -0.796004 -0.201401
vn 0.0327 0.76069 -0.648291
vn 0.0327 0.76069 -0.648291
vn 0.50009 0.793283 0.347293
vn 0.504405 0.860009 0.077201
vn -0.990586 -0.0156 -0.135998
vn -0.705989 -0.68309 -0.186997
vn -0.77243 -0.627524 -0.097804
vn 0.167299 -0.805495 0.568497
vn 0.005 -0.516488 0.85628
vn 0.797703 -0.0372 0.601902
vn 0.651991 0.178198 0.73699
vn -0.796801 0.580301 -0.1684
vn 0.355402 0.931905 0.0724
vn -0.828199 -0.555299 0.0757
vn 0.82213 -0.56702 -0.050902
vn 0.789614 -0.444208 0.423308
vn 0.974597 -0.1058 0.1974
vn 0.965581 0.0229 0.259095
vn -0.483096 0.875094 0.0288
vn 0.799402 0.526501 0.289401
vn -0.570106 -0.817908 0.077501
vn 0.485706 0.821211 0.299504
vn 0.825118 -0.404209 -0.394709
vn -0.431307 -0.266605 -0.861914
vn 0.825118 -0.404209 -0.394709
vn 0.541996 0.070799 0.837394
vn 0.005 -0.516488 0.85628
vn -0.77243 -0.627524 -0.097804
vn 0.651991 0.178198 0.73699
vn -0.990586 -0.0156 -0.135998
vn 0.50009 0.793283 0.347293
vn 0.571122 -0.77913 -0.25841
vn 0.571122 -0.77913 -0.25841
vn 0.446076 -0.862553 -0.238787
vn 0.377802 -0.897704 -0.226701
vn 0.1647 -0.9692 -0.1831
vn -0.54269 0.608489 -0.578989
vn -0.54269 0.608489 -0.578989
vn -0.487479 0.647572 -0.585675
vn -0.458895 0.666093 -0.587993
vn -0.370198 0.716795 -0.590896
vn -0.223304 0.464208 0.857115
vn -0.223304 0.464208 0.857115
vn -0.1036 0.546698 0.830896
vn -0.0413 0.584293 0.810491
vn 0.142701 0.675303 0.723604
vn 0.779993 -0.558295 0.282697
vn 0.779993 -0.558295 0.282697
vn 0.779993 -0.558295 0.282697
vn -0.0895 0.648303 -0.756104
vn -0.0895 0.648303 -0.756104
vn -0.0895 0.648303 -0.756104
vn -0.92359 0.206998 0.322697
vn -0.92359 0.206998 0.322697
vn -0.92359 0.206998 0.322697
vn 0.708684 -0.668385 -0.225895
vn 0.708684 -0.668385 -0.225895
vn 0.708684 -0.668385 -0.225895
vn -0.936609 0.169402 -0.306703
vn -0.936609 0.169402 -0.306703
vn -0.936609 0.169402 -0.306703
vn 0.095401 0.783512 0.614009
vn 0.095401 0.783512 0.614009
vn 0.095401 0.783512 0.614009
vn -0.25841 -0.77913 -0.571122
vn -0.25841 -0.77913 -0.571122
vn -0.238798 -0.862591 -0.445996
vn -0.226701 -0.897704 -0.377802
vn -0.1831 -0.9692 -0.1647
vn -0.578989 0.608489 0.54269
vn -0.578989 0.608489 0.54269
vn -0.585675 0.647572 0.487479
vn -0.587993 0.666093 0.458895
vn -0.590896 0.716795 0.370198
vn 0.857115 0.464208 0.223304
vn 0.857115 0.464208 0.223304
vn 0.830896 0.546698 0.1036
vn 0.810491 0.584293 0.0413
vn 0.723604 0.675303 -0.142701
vn 0.282697 -0.558295 -0.779993
vn 0.282697 -0.558295 -0.779993
vn 0.282697 -0.558295 -0.779993
vn -0.756104 0.648303 0.0895
vn -0.756104 0.648303 0.0895
vn -0.756104 0.648303 0.0895
vn 0.322697 0.206998 0.92359
vn 0.322697 0.206998 0.92359
vn 0.322697 0.206998 0.92359
vn -0.225895 -0.668385 -0.708684
vn -0.225895 -0.668385 -0.708684
vn -0.225895 -0.668385 -0.708684
vn -0.306703 0.169402 0.936609
vn -0.306703 0.169402 0.936609
vn -0.306703 0.169402 0.936609
vn 0.614004 0.783505 -0.095501
vn 0.614004 0.783505 -0.095501
vn 0.614004 0.783505 -0.095501
vn -0.397409 -0.779118 -0.484811
vn -0.397409 -0.779118 -0.484811
vn -0.346096 -0.862589 -0.368995
vn -0.316703 -0.897707 -0.306303
vn -0.219499 -0.969197 -0.1117
vn -0.418784 0.608477 0.674074
vn -0.418784 0.608477 0.674074
vn -0.439489 0.647583 0.622484
vn -0.449207 0.66611 0.595409
vn -0.474914 0.716821 0.510515
vn 0.885708 0.464204 -0.0061
vn 0.885708 0.464204 -0.0061
vn 0.829396 0.546697 -0.114999
vn 0.793584 0.584289 -0.169797
vn 0.662012 0.675312 -0.325106
vn 0.071099 -0.558294 -0.826591
vn 0.071099 -0.558294 -0.826591
vn 0.071099 -0.558294 -0.826591
vn -0.707198 0.648298 0.282099
vn -0.707198 0.648298 0.282099
vn -0.707198 0.648298 0.282099
vn 0.550783 0.206993 0.808574
vn 0.550783 0.206993 0.808574
vn 0.550783 0.206993 0.808574
vn -0.401617 -0.668428 -0.626026
vn -0.401617 -0.668428 -0.626026
vn -0.401617 -0.668428 -0.626026
vn -0.053799 0.169396 0.984079
vn -0.053799 0.169396 0.984079
vn -0.053799 0.169396 0.984079
vn 0.568399 0.783499 -0.2511
vn 0.568399 0.783499 -0.2511
vn 0.568399 0.783499 -0.2511
vn -0.546492 -0.779088 0.307195
vn -0.546492 -0.779088 0.307195
vn -0.42349 -0.862579 0.276793
vn -0.356695 -0.897688 0.258697
vn -0.148102 -0.969213 0.196703
vn 0.591088 0.608487 0.529489
vn 0.591088 0.608487 0.529489
vn 0.53667 0.647563 0.540969
vn 0.508385 0.666081 0.545784
vn 0.420293 0.716787 0.55639
vn 0.147802 0.464205 -0.873309
vn 0.147802 0.464205 -0.873309
vn 0.030799 0.546683 -0.836773
vn -0.0295 0.584301 -0.811001
vn -0.205203 0.675311 -0.708412
vn -0.801681 -0.558287 -0.213595
vn -0.801681 -0.558287 -0.213595
vn -0.801681 -0.558287 -0.213595
vn 0.154993 0.648271 0.745467
vn 0.154993 0.648271 0.745467
vn 0.154993 0.648271 0.745467
vn 0.891927 0.207006 -0.402012
vn 0.891927 0.207006 -0.402012
vn 0.891927 0.207006 -0.402012
vn -0.686293 -0.668393 0.286797
vn -0.686293 -0.668393 0.286797
vn -0.686293 -0.668393 0.286797
vn 0.959779 0.169396 0.223895
vn 0.959779 0.169396 0.223895
vn 0.959779 0.169396 0.223895
vn -0.148597 0.783482 -0.603386
vn -0.148597 0.783482 -0.603386
vn -0.148597 0.783482 -0.603386
vn -0.169204 -0.779116 0.603613
vn -0.169204 -0.779116 0.603613
vn -0.103796 -0.862567 0.495181
vn -0.069201 -0.897715 0.435107
vn 0.0343 -0.969194 0.243899
vn 0.792372 0.608478 -0.043598
vn 0.792372 0.608478 -0.043598
vn 0.761985 0.647588 0.003
vn 0.745395 0.666096 0.0265
vn 0.690605 0.716805 0.096201
vn -0.513017 0.464215 -0.722024
vn -0.513017 0.464215 -0.722024
vn -0.569886 0.546687 -0.613485
vn -0.59431 0.58431 -0.55261
vn -0.64602 0.67532 -0.355811
vn -0.717911 -0.558309 0.415807
vn -0.717911 -0.558309 0.415807
vn -0.717911 -0.558309 0.415807
vn 0.636704 0.648305 0.417503
vn 0.636704 0.648305 0.417503
vn 0.636704 0.648305 0.417503
vn 0.34642 0.207012 -0.914953
vn 0.34642 0.207012 -0.914953
vn 0.34642 0.207012 -0.914953
vn -0.282494 -0.668385 0.688084
vn -0.282494 -0.668385 0.688084
vn -0.282494 -0.668385 0.688084
vn 0.83701 0.169402 -0.520306
vn 0.83701 0.169402 -0.520306
vn 0.83701 0.169402 -0.520306
vn -0.531699 0.783499 -0.321599
vn -0.531699 0.783499 -0.321599
vn -0.531699 0.783499 -0.321599
vn 0.307195 -0.779088 0.546492
vn 0.307195 -0.779088 0.546492
vn 0.276793 -0.862579 0.42349
vn 0.258706 -0.897721 0.356608
vn 0.196703 -0.969213 0.148102
vn 0.529489 0.608487 -0.591088
vn 0.529489 0.608487 -0.591088
vn 0.540969 0.647563 -0.53667
vn 0.545784 0.666081 -0.508385
vn 0.55639 0.716787 -0.420293
vn -0.873309 0.464205 -0.147802
vn -0.873309 0.464205 -0.147802
vn -0.836773 0.546683 -0.030799
vn -0.811001 0.584301 0.0295
vn -0.708412 0.675311 0.205203
vn -0.213595 -0.558287 0.801681
vn -0.213595 -0.558287 0.801681
vn -0.213595 -0.558287 0.801681
vn 0.745467 0.648271 -0.154993
vn 0.745467 0.648271 -0.154993
vn 0.745467 0.648271 -0.154993
vn -0.402012 0.207006 -0.891927
vn -0.402012 0.207006 -0.891927
vn -0.402012 0.207006 -0.891927
vn 0.286797 -0.668393 0.686293
vn 0.286797 -0.668393 0.686293
vn 0.286797 -0.668393 0.686293
vn 0.223895 0.169396 -0.959779
vn 0.223895 0.169396 -0.959779
vn 0.223895 0.169396 -0.959779
vn -0.603386 0.783482 0.148597
vn -0.603386 0.783482 0.148597
vn -0.603386 0.783482 0.148597
vt -0.1697 -0.8105
vt 0.0643 -0.1225
vt -0.4311 -0.2207
vt 0.0047 -0.8445
vt 0.2732 -0.2507
vt 0.1431 -0.9195
vt 0.3498 -0.2819
vt 0.2512 -0.8522
vt 0.46 -0.1415
vt 0.4856 -0.7483
vt 0.5689 -0.2207
vt 0.8303 -0.8105
vt 0.1206 0.5199
vt 0.0117 0.4491
vt -0.0146 0.4875
vt 0.1648 0.5034
vt 0.9356 0.4023
vt -0.0644 0.4023
vt 0.1076 1.3145
vt 0.1043 1.238
vt 0.1775 1.2655
vt 0.253 1.2347
vt 0.3209 1.2977
vt -0.1123 1.6612
vt -0.1659 1.6612
vt -0.0716 1.6612
vt 0.8493 2.0285
vt 0.8341 1.6612
vt 0.8877 1.6612
vt 0.9284 1.6612
vt -0.192 -1.0285
vt -0.0041 -1.0285
vt 0.1446 -1.0285
vt 0.2945 -1.0285
vt 0.5064 -1.0285
vt 0.808 -1.0285
vt 0.8706 -0.4271
vt 0.7908 0.8243
vt 0.762 0.7139
vt 0.9568 -0.2591
vt 0.7918 0.7815
vt -0.0432 -0.2591
vt 0.0021 -0.3557
vt -0.2082 0.7815
vt -0.2799 0.7719
vt -0.0472 -0.1433
vt 0.9528 -0.1433
vt 0.7096 0.8648
vt 0.7201 0.7719
vt 0.7434 -0.3512
vt 0.6023 1.4518
vt 0.5918 1.4519
vt 0.5658 1.4832
vt 0.4917 2.305
vt -0.3701 -0.3687
vt -0.2199 0.1451
vt 0.0852 0.102
vt 0.2212 -0.3032
vt 0.026 0.0745
vt 0.0334 -0.289
vt -0.052 0.2488
vt -0.1817 -0.3423
vt 0.8183 -0.3423
vt 0.948 0.2488
vt 0.8803 0.1246
vt 0.6727 -0.3092
vt 0.7801 0.1451
vt 0.6299 -0.3687
vt 0.8146 0.2326
vt 0.8185 0.7103
vt 0.8362 0.8144
vt 0.8662 0.3899
vt 0.8662 0.7645
vt 0.9774 0.304
vt 0.8685 0.703
vt 0.9291 0.5247
vt 0.8485 0.7466
vt 0.861 0.3775
vt 0.9295 1.1371
vt 0.9319 1.1693
vt 0.9435 1.1506
vt 0.9606 1.5825
vt -0.0226 0.304
vt -0.1854 0.2326
vt 0.771 -0.4405
vt -0.229 -0.4405
vt 0.6166 0.2012
vt 0.8903 0.5911
vt 0.9084 0.7183
vt 0.7045 0.387
vt 0.9341 0.6625
vt -0.0659 0.6625
vt 0.3594 0.2623
vt -0.0627 0.563
vt 0.01 0.2868
vt -0.0841 0.5835
vt -0.2066 0.1194
vt 0.7934 0.1194
vt 0.9159 0.5835
vt 0.9918 1.236
vt 0.9927 1.2914
vt -0.0916 0.7183
vt -0.0073 1.2914
vt 0.0086 1.2595
vt -0.0082 1.236
vt 0.9373 0.563
vt 0.9696 1.8722
vt -0.0304 1.8722
vt 0.5353 -0.9819
vt 0.6453 0.0688
vt 0.4745 -0.9963
vt 0.3291 -0.0714
vt 0.3785 -1.1873
vt 0.414 0.2064
vt 0.3965 -1.2007
vt 0.5152 0.069
vt 0.4563 -0.9868
vt 0.5814 1.4153
vt 0.5706 1.3121
vt 0.5233 1.3533
vt 0.5058 1.3283
vt 0.3912 0.5938
vt 0.5423 1.4261
vt 0.5251 0.4295
vt 0.3929 2.1562
vt 0.3991 2.1729
vt 0.3809 2.1728
vt 0.3907 2.6605
vt -0.1266 0.2347
vt -0.0275 0.2982
vt 0.8734 0.2347
vt 0.8528 0.2395
vt 0.2511 0.683
vt 0.2263 0.7274
vt 0.4122 0.7903
vt 0.2527 0.8858
vt 0.3547 0.8918
vt 1.1403 0.2335
vt 1.1529 0.2925
vt 1.6225 0.1573
vt 1.6138 0.1163
vt 2.2111 0.1011
vt 1.1529 0.2925
vt 1.1246 0.2662
vt 1.6029 0.1389
vt 1.6225 0.1573
vt 2.2111 0.1011
vt 1.1246 0.2662
vt 1.1403 0.2335
vt 1.6138 0.1163
vt 1.6029 0.1389
vt 2.2111 0.1011
vt 1.528 0.1322
vt 1.5672 0.1509
vt 1.585 -0.1885
vt 1.5672 0.1509
vt 1.536 0.1551
vt 1.585 -0.1885
vt 1.536 0.1551
vt 1.528 0.1322
vt 1.585 -0.1885
vt 1.4533 0.1747
vt 1.4316 0.2006
vt 1.75 0.4327
vt 1.4316 0.2006
vt 1.4288 0.1899
vt 1.75 0.4327
vt 1.4288 0.1899
vt 1.4533 0.1747
vt 1.75 0.4327
vt 0.9665 0.7656
vt 0.871 0.7818
vt 1.0899 1.3835
vt 1.1563 1.3723
vt 1.1808 2.1377
vt 0.871 0.7818
vt 0.9137 0.7455
vt 1.1196 1.3583
vt 1.0899 1.3835
vt 1.1808 2.1377
vt 0.9137 0.7455
vt 0.9665 0.7656
vt 1.1563 1.3723
vt 1.1196 1.3583
vt 1.1808 2.1377
vt 1.1306 1.2624
vt 1.1002 1.3126
vt 1.6495 1.3354
vt 1.1002 1.3126
vt 1.0935 1.2727
vt 1.6495 1.3354
vt 1.0935 1.2727
vt 1.1306 1.2624
vt 1.6495 1.3354
vt 1.0618 1.1666
vt 1.0199 1.1389
vt 0.6442 1.5469
vt 1.0199 1.1389
vt 1.0371 1.1352
vt 0.6442 1.5469
vt 1.0371 1.1352
vt 1.0618 1.1666
vt 0.6442 1.5469
vt -0.006 0.6272
vt -0.103 0.6209
vt -0.0665 1.2525
vt 0.0008 1.2569
vt -0.1981 2.0019
vt -0.103 0.6209
vt -0.0512 0.5956
vt -0.0305 1.235
vt -0.0665 1.2525
vt -0.1981 2.0019
vt -0.0512 0.5956
vt -0.006 0.6272
vt 0.0008 1.2569
vt -0.0305 1.235
vt -0.1981 2.0019
vt 0.0079 1.1449
vt -0.036 1.1864
vt 0.488 1.3349
vt -0.036 1.1864
vt -0.0309 1.1462
vt 0.488 1.3349
vt -0.0309 1.1462
vt 0.0079 1.1449
vt 0.488 1.3349
vt -0.0306 1.0365
vt -0.0631 1
vt -0.5446 1.3076
vt -0.0631 1
vt -0.0453 1.0005
vt -0.5446 1.3076
vt -0.0453 1.0005
vt -0.0306 1.0365
vt -0.5446 1.3076
vt -0.3469 0.6961
vt -0.3528 0.6436
vt -0.7752 0.73
vt -0.7711 0.7664
vt -1.2949 0.739
vt -0.3528 0.6436
vt -0.3303 0.6686
vt -0.7596 0.7473
vt -0.7752 0.73
vt -1.2949 0.739
vt -0.3303 0.6686
vt -0.3469 0.6961
vt -0.7711 0.7664
vt -0.7596 0.7473
vt -1.2949 0.739
vt -0.6947 0.7584
vt -0.7274 0.7393
vt -0.7721 1.035
vt -0.7274 0.7393
vt -0.6998 0.7378
vt -0.7721 1.035
vt -0.6998 0.7378
vt -0.6947 0.7584
vt -0.7721 1.035
vt -0.6257 0.7263
vt -0.6045 0.7051
vt -0.8631 0.4804
vt -0.6045 0.7051
vt -0.6029 0.7146
vt -0.8631 0.4804
vt -0.6029 0.7146
vt -0.6257 0.7263
vt -0.8631 0.4804
vt -0.4842 0.396
vt -0.4227 0.329
vt -1.0251 -0.0067
vt -1.0678 0.0398
vt -1.6395 -0.5324
vt -0.4227 0.329
vt -0.4292 0.3813
vt -1.0296 0.0296
vt -1.0251 -0.0067
vt -1.6395 -0.5324
vt -0.4292 0.3813
vt -0.4842 0.396
vt -1.0678 0.0398
vt -1.0296 0.0296
vt -1.6395 -0.5324
vt -0.9687 0.1093
vt -0.9817 0.0535
vt -1.419 0.3502
vt -0.9817 0.0535
vt -0.9477 0.0802
vt -1.419 0.3502
vt -0.9477 0.0802
vt -0.9687 0.1093
vt -1.419 0.3502
vt -0.8468 0.1433
vt -0.7946 0.1406
vt -0.8016 -0.3867
vt -0.7946 0.1406
vt -0.8053 0.1533
vt -0.8016 -0.3867
vt -0.8053 0.1533
vt -0.8468 0.1433
vt -0.8016 -0.3867
vt 0.2472 0.5128
vt 0.3439 0.5041
vt 0.1848 -0.1123
vt 0.1176 -0.1063
vt 0.1681 -0.8707
vt 0.3439 0.5041
vt 0.2978 0.5369
vt 0.1528 -0.0895
vt 0.1848 -0.1123
vt 0.1681 -0.8707
vt 0.2978 0.5369
vt 0.2472 0.5128
vt 0.1176 -0.1063
vt 0.1528 -0.0895
vt 0.1681 -0.8707
vt 0.1325 0.0051
vt 0.1676 -0.0425
vt -0.3774 -0.1078
vt 0.1676 -0.0425
vt 0.1704 -0.0022
vt -0.3774 -0.1078
vt 0.1704 -0.0022
vt 0.1325 0.0051
vt -0.3774 -0.1078
vt 0.1916 0.1059
vt 0.2306 0.1368
vt 0.6448 -0.2405
vt 0.2306 0.1368
vt 0.2131 0.1391
vt 0.6448 -0.2405
vt 0.2131 0.1391
vt 0.1916 0.1059
vt 0.6448 -0.2405
f 1/1/1 3/3/3 2/2/2
f 1/1/1 2/2/2 4/4/4
f 4/4/4 2/2/2 5/5/5
f 4/4/4 5/5/5 6/6/6
f 6/6/6 5/5/5 7/7/7
f 6/6/6 7/7/7 8/8/8
f 8/8/8 7/7/7 9/9/9
f 8/8/8 9/9/9 10/10/10
f 10/10/10 9/9/9 11/11/11
f 10/10/10 11/11/11 12/12/12
f 2/2/2 14/14/14 13/13/13
f 2/2/2 13/13/13 5/5/5
f 7/7/7 16/16/16 15/15/15
f 7/7/7 15/15/15 9/9/9
f 9/9/9 15/15/15 17/17/17
f 9/9/9 17/17/17 11/11/11
f 18/18/18 20/20/20 19/19/19
f 18/18/18 19/19/19 14/14/14
f 14/14/14 19/19/19 21/21/21
f 14/14/14 21/21/21 13/13/13
f 13/13/13 21/21/21 22/22/22
f 13/13/13 22/22/22 16/16/16
f 15/15/15 23/23/23 20/20/20
f 15/15/15 20/20/20 18/18/18
f 20/20/20 25/25/25 24/24/24
f 20/20/20 24/24/24 19/19/19
f 19/19/19 24/24/24 26/26/26
f 19/19/19 26/26/26 21/21/21
f 21/21/21 26/26/26 22/22/22
f 22/22/22 26/26/26 25/25/25
f 22/22/22 25/25/25 23/23/23
f 23/23/23 25/25/25 20/20/20
f 27/27/27 29/29/29 28/28/28
f 27/27/27 30/30/30 29/29/29
f 27/27/27 28/28/28 30/30/30
f 4/4/4 31/31/31 1/1/1
f 31/31/31 4/4/4 32/32/32
f 6/6/6 32/32/32 4/4/4
f 32/32/32 6/6/6 33/33/33
f 8/8/8 33/33/33 6/6/6
f 33/33/33 8/8/8 34/34/34
f 10/10/10 34/34/34 8/8/8
f 34/34/34 10/10/10 35/35/35
f 12/12/12 35/35/35 10/10/10
f 35/35/35 12/12/12 36/36/36
f 37/37/37 39/39/39 38/38/38
f 37/37/37 38/38/38 40/40/40
f 40/40/40 38/38/38 41/41/41
f 42/42/42 44/44/44 43/43/43
f 43/43/43 44/44/44 45/45/45
f 43/43/43 45/45/45 46/46/46
f 47/47/47 49/49/49 48/48/48
f 47/47/47 48/48/48 50/50/50
f 50/50/50 48/48/48 39/39/39
f 50/50/50 39/39/39 37/37/37
f 39/39/39 52/52/52 51/51/51
f 39/39/39 51/51/51 38/38/38
f 38/38/38 51/51/51 53/53/53
f 38/38/38 53/53/53 41/41/41
f 41/41/41 53/53/53 49/49/49
f 49/49/49 53/53/53 52/52/52
f 49/49/49 52/52/52 48/48/48
f 48/48/48 52/52/52 39/39/39
f 54/54/54 51/51/51 52/52/52
f 54/54/54 53/53/53 51/51/51
f 54/54/54 52/52/52 53/53/53
f 55/55/55 57/57/57 56/56/56
f 55/55/55 58/58/58 57/57/57
f 58/58/58 59/59/59 57/57/57
f 58/58/58 60/60/60 59/59/59
f 60/60/60 61/61/61 59/59/59
f 60/60/60 62/62/62 61/61/61
f 63/63/63 65/65/65 64/64/64
f 63/63/63 66/66/66 65/65/65
f 66/66/66 67/67/67 65/65/65
f 66/66/66 68/68/68 67/67/67
f 69/69/69 71/71/71 70/70/70
f 69/69/69 72/72/72 71/71/71
f 72/72/72 73/73/73 71/71/71
f 72/72/72 74/74/74 73/73/73
f 74/74/74 75/75/75 73/73/73
f 74/74/74 76/76/76 75/75/75
f 76/76/76 77/77/77 75/75/75
f 76/76/76 78/78/78 77/77/77
f 78/78/78 70/70/70 77/77/77
f 78/78/78 69/69/69 70/70/70
f 70/70/70 80/80/80 79/79/79
f 70/70/70 71/71/71 80/80/80
f 71/71/71 81/81/81 80/80/80
f 71/71/71 73/73/73 81/81/81
f 73/73/73 75/75/75 81/81/81
f 75/75/75 79/79/79 81/81/81
f 75/75/75 77/77/77 79/79/79
f 77/77/77 70/70/70 79/79/79
f 82/82/82 79/79/79 80/80/80
f 82/82/82 80/80/80 81/81/81
f 82/82/82 81/81/81 79/79/79
f 61/61/61 83/83/83 59/59/59
f 74/74/74 64/64/64 76/76/76
f 65/65/65 76/76/76 64/64/64
f 76/76/76 65/65/65 78/78/78
f 67/67/67 78/78/78 65/65/65
f 78/78/78 67/67/67 69/69/69
f 84/84/84 56/56/56 57/57/57
f 50/50/50 85/85/85 47/47/47
f 46/46/46 86/86/86 43/43/43
f 87/87/87 89/89/89 88/88/88
f 87/87/87 90/90/90 89/89/89
f 90/90/90 91/91/91 89/89/89
f 90/90/90 93/93/93 92/92/92
f 93/93/93 94/94/94 92/92/92
f 93/93/93 95/95/95 94/94/94
f 95/95/95 96/96/96 94/94/94
f 95/95/95 97/97/97 96/96/96
f 98/98/98 88/88/88 99/99/99
f 98/98/98 87/87/87 88/88/88
f 88/88/88 101/101/101 100/100/100
f 88/88/88 89/89/89 101/101/101
f 102/102/102 104/104/104 103/103/103
f 102/102/102 92/92/92 104/104/104
f 92/92/92 94/94/94 104/104/104
f 94/94/94 105/105/105 104/104/104
f 106/106/106 99/99/99 100/100/100
f 99/99/99 88/88/88 100/100/100
f 107/107/107 100/100/100 101/101/101
f 108/108/108 103/103/103 104/104/104
f 108/108/108 104/104/104 105/105/105
f 109/109/109 110/110/110 98/98/98
f 109/109/109 98/98/98 111/111/111
f 111/111/111 98/98/98 112/112/112
f 111/111/111 112/112/112 113/113/113
f 113/113/113 112/112/112 114/114/114
f 113/113/113 114/114/114 115/115/115
f 115/115/115 114/114/114 116/116/116
f 115/115/115 116/116/116 117/117/117
f 117/117/117 116/116/116 110/110/110
f 117/117/117 110/110/110 109/109/109
f 87/87/87 119/119/119 118/118/118
f 87/87/87 118/118/118 90/90/90
f 90/90/90 118/118/118 120/120/120
f 90/90/90 120/120/120 93/93/93
f 93/93/93 120/120/120 121/121/121
f 93/93/93 121/121/121 122/122/122
f 122/122/122 121/121/121 123/123/123
f 122/122/122 123/123/123 124/124/124
f 124/124/124 123/123/123 119/119/119
f 124/124/124 119/119/119 87/87/87
f 119/119/119 126/126/126 125/125/125
f 119/119/119 125/125/125 118/118/118
f 118/118/118 125/125/125 127/127/127
f 118/118/118 127/127/127 120/120/120
f 120/120/120 127/127/127 121/121/121
f 121/121/121 127/127/127 126/126/126
f 121/121/121 126/126/126 123/123/123
f 123/123/123 126/126/126 119/119/119
f 128/128/128 125/125/125 126/126/126
f 128/128/128 127/127/127 125/125/125
f 128/128/128 126/126/126 127/127/127
f 114/114/114 112/112/112 93/93/93
f 93/93/93 122/122/122 114/114/114
f 116/116/116 114/114/114 122/122/122
f 122/122/122 124/124/124 116/116/116
f 110/110/110 116/116/116 124/124/124
f 124/124/124 87/87/87 110/110/110
f 87/87/87 98/98/98 110/110/110
f 97/97/97 95/95/95 112/112/112
f 95/95/95 93/93/93 112/112/112
f 129/129/129 2/2/2 3/3/3
f 130/130/130 2/2/2 129/129/129
f 131/131/131 11/11/11 132/132/132
f 17/17/17 132/132/132 11/11/11
f 130/130/130 14/14/14 2/2/2
f 16/16/16 5/5/5 13/13/13
f 16/16/16 7/7/7 5/5/5
f 133/133/133 15/15/15 16/16/16
f 133/133/133 16/16/16 134/134/134
f 135/135/135 15/15/15 133/133/133
f 23/23/23 137/137/137 136/136/136
f 23/23/23 15/15/15 137/137/137
f 137/137/137 15/15/15 135/135/135
f 23/23/23 136/136/136 22/22/22
f 22/22/22 136/136/136 134/134/134
f 22/22/22 134/134/134 16/16/16
f 138/138/138 140/140/140 139/139/139
f 140/140/140 138/138/138 141/141/141
f 141/141/141 142/142/142 140/140/140
f 143/143/143 145/145/145 144/144/144
f 145/145/145 143/143/143 146/146/146
f 146/146/146 147/147/147 145/145/145
f 148/148/148 150/150/150 149/149/149
f 150/150/150 148/148/148 151/151/151
f 151/151/151 152/152/152 150/150/150
f 153/153/153 155/155/155 154/154/154
f 156/156/156 158/158/158 157/157/157
f 159/159/159 161/161/161 160/160/160
f 162/162/162 164/164/164 163/163/163
f 165/165/165 167/167/167 166/166/166
f 168/168/168 170/170/170 169/169/169
f 171/171/171 173/173/173 172/172/172
f 173/173/173 171/171/171 174/174/174
f 174/174/174 175/175/175 173/173/173
f 176/176/176 178/178/178 177/177/177
f 178/178/178 176/176/176 179/179/179
f 179/179/179 180/180/180 178/178/178
f 181/181/181 183/183/183 182/182/182
f 183/183/183 181/181/181 184/184/184
f 184/184/184 185/185/185 183/183/183
f 186/186/186 188/188/188 187/187/187
f 189/189/189 191/191/191 190/190/190
f 192/192/192 194/194/194 193/193/193
f 195/195/195 197/197/197 196/196/196
f 198/198/198 200/200/200 199/199/199
f 201/201/201 203/203/203 202/202/202
f 204/204/204 206/206/206 205/205/205
f 206/206/206 204/204/204 207/207/207
f 207/207/207 208/208/208 206/206/206
f 209/209/209 211/211/211 210/210/210
f 211/211/211 209/209/209 212/212/212
f 212/212/212 213/213/213 211/211/211
f 214/214/214 216/216/216 215/215/215
f 216/216/216 214/214/214 217/217/217
f 217/217/217 218/218/218 216/216/216
f 219/219/219 221/221/221 220/220/220
f 222/222/222 224/224/224 223/223/223
f 225/225/225 227/227/227 226/226/226
f 228/228/228 230/230/230 229/229/229
f 231/231/231 233/233/233 232/232/232
f 234/234/234 236/236/236 235/235/235
f 237/237/237 239/239/239 238/238/238
f 239/239/239 237/237/237 240/240/240
f 240/240/240 241/241/241 239/239/239
f 242/242/242 244/244/244 243/243/243
f 244/244/244 242/242/242 245/245/245
f 245/245/245 246/246/246 244/244/244
f 247/247/247 249/249/249 248/248/248
f 249/249/249 247/247/247 250/250/250
f 250/250/250 251/251/251 249/249/249
f 252/252/252 254/254/254 253/253/253
f 255/255/255 257/257/257 256/256/256
f 258/258/258 260/260/260 259/259/259
f 261/261/261 263/263/263 262/262/262
f 264/264/264 266/266/266 265/265/265
f 267/267/267 269/269/269 268/268/268
f 270/270/270 272/272/272 271/271/271
f 272/272/272 270/270/270 273/273/273
f 273/273/273 274/274/274 272/272/272
f 275/275/275 277/277/277 276/276/276
f 277/277/277 275/275/275 278/278/278
f 278/278/278 279/279/279 277/277/277
f 280/280/280 282/282/282 281/281/281
f 282/282/282 280/280/280 283/283/283
f 283/283/283 284/284/284 282/282/282
f 285/285/285 287/287/287 286/286/286
f 288/288/288 290/290/290 289/289/289
f 291/291/291 293/293/293 292/292/292
f 294/294/294 296/296/296 295/295/295
f 297/297/297 299/299/299 298/298/298
f 300/300/300 302/302/302 301/301/301
f 303/303/303 305/305/305 304/304/304
f 305/305/305 303/303/303 306/306/306
f 306/306/306 307/307/307 305/305/305
f 308/308/308 310/310/310 309/309/309
f 310/310/310 308/308/308 311/311/311
f 311/311/311 312/312/312 310/310/310
f 313/313/313 315/315/315 314/314/314
f 315/315/315 313/313/313 316/316/316
f 316/316/316 317/317/317 315/315/315
f 318/318/318 320/320/320 319/319/319
f 321/321/321 323/323/323 322/322/322
f 324/324/324 326/326/326 325/325/325
f 327/327/327 329/329/329 328/328/328
f 330/330/330 332/332/332 331/331/331
f 333/333/333 335/335/335 334/334/334

g tree_04
# texture: tree_04.tga
v 115.6586 303.6025 -78.2768
v 97.6749 286.2316 -13.4477
v 136.1711 338.5401 11.2472
v 154.1548 355.911 -53.5819
v 58.6716 258.4575 -30.792
v 123.7164 275.9322 -13.7103
v 107.5134 343.1318 -20.7571
v 42.4686 325.6571 -37.8388
v 66.548 267.3883 -14.221
v 115.6804 284.1926 -60.3904
v 87.4992 347.3163 -67.405
v 38.3668 330.512 -21.2357
v 205.5963 323.2816 27.2913
v 147.0388 340.6526 60.416
v 177.631 398.3006 84.2656
v 236.1886 380.9297 51.1408
v 115.754 285.5538 45.7961
v 157.4655 309.2281 96.0719
v 174.0822 363.9013 56.5408
v 132.3707 340.2269 6.265
v 118.8402 323.9472 44.5945
v 187.7961 315.4154 45.1223
v 194.4821 366.5748 -1.418
v 125.5262 375.1066 -1.9458
v 31.2543 342.0063 58.0758
v 48.0945 359.3772 123.2113
v 79.0493 417.0251 99.8341
v 62.209 399.6542 34.6986
v 25.8757 304.2784 149.6461
v 85.2341 327.9527 122.3683
v 51.3507 382.6259 96.0864
v -8.007801 358.9515 123.3642
v 25.5137 342.6718 146.3541
v 43.8707 334.14 79.8845
v 0.6467 385.2994 61.3807
v -17.7102 393.8311 127.8504
v 38.7465 339.2957 -35.2821
v 48.919 362.136 29.547
v 116.2569 345.6782 24.7792
v 106.0844 322.8379 -40.05
v -13.9588 373.7931 41.3308
v 30.5346 320.7681 47.3867
v 76.3688 354.6932 7.6842
v 31.8755 407.7182 1.6283
v 22.575 385.6722 38.2989
v 31.3621 336.5848 -10.0871
v 69.7976 380.564 -47.7237
v 61.0106 429.6514 0.6622
v 152.2405 348.9604 -2.0992
v 91.0188 366.3314 25.7959
v 119.416 423.9794 52.2209
v 180.6378 406.6084 24.3259
v 61.1273 311.2326 8.5049
v 98.2982 334.907 62.2248
v 118.2971 389.5801 24.2923
v 81.1261 365.9057 -29.4275
v 64.3065 349.626 7.5769
v 132.9539 341.0942 14.1126
v 143.6708 392.2536 -31.6679
v 75.0233 400.7853 -38.2036
v -23.3563 358.6122 -229.7551
v -18.7904 316.1841 -174.919
v 43.1982 343.2986 -159.1013
v 38.6323 385.7266 -213.9374
v -12.0436 283.4576 -186.4128
v 55.5903 279.4419 -201.8239
v 65.022 343.7203 -177.1801
v -2.6119 347.7359 -161.769
v 9.067001 305.5518 -162.935
v 37.6966 333.3951 -219.7952
v 35.6271 396.1768 -190.0942
v 6.997499 368.3336 -133.234
v 162.7666 310.6737 -185.9995
v 134.131 320.1678 -123.4068
v 191.256 353.6552 -102.3519
v 219.8916 344.1612 -164.9446
v 81.1317 284.67 -136.0294
v 145.1478 274.4176 -111.0333
v 163.9429 337.4978 -133.2955
v 99.9268 347.7502 -158.2916
v 97.9166 317.9564 -126.2674
v 152.1589 298.5276 -165.104
v 158.5279 363.5563 -188.7406
v 104.2857 382.9851 -149.9039
v 137.7095 405.1208 -60.261
v 184.6419 386.681 -12.4562
v 223.0094 442.2957 -28.6711
v 176.0769 460.7356 -76.4759
v 134.447 330.3433 -20.907
v 181.8289 353.5114 -66.1416
v 164.0091 419.0027 -51.2643
v 116.6272 395.8345 -6.0296
v 147.5233 365.2016 -10.9605
v 132.6842 385.9042 -75.6071
v 108.8962 446.2952 -50.8071
v 123.7353 425.5926 13.8395
v 5.008699 382.4752 -141.6399
v 48.3721 370.0562 -88.7876
v 96.0969 346.528 -133.4725
v 52.7336 358.947 -186.3248
v 5.3459 385.3676 -42.4987
v 24.4506 328.9925 -78.3432
v 59.507 369.1884 -122.8776
v 40.4024 425.5636 -87.033
v 39.029 390.8321 -60.4041
v 8.0023 369.5525 -118.8207
v 41.5957 418.7502 -154.5846
v 72.6224 440.0298 -96.168
v 116.4067 355.8456 -172.5715
v 83.4469 368.2524 -112.6741
v 139.7874 400.9051 -88.4351
v 172.7472 388.4983 -148.3325
v 30.5274 333.7713 -128.1315
v 92.1605 322.6772 -98.0274
v 114.4111 384.4279 -120.8251
v 52.7779 395.522 -150.9292
v 47.5 366.9133 -118.2039
v 103.9105 344.7144 -152.1605
v 113.9355 408.6968 -177.3345
v 57.525 430.8958 -143.378
v -34.3941 347.6122 -177.2507
v -69.1072 313.4741 -127.6768
v -49.8613 361.402 -81.1957
v -15.1482 395.54 -130.7696
v -84.8722 263.0369 -165.5702
v -32.6353 281.5195 -123.6456
v -56.6543 346.7089 -122.4575
v -108.8912 328.2263 -164.3821
v -94.7403 292.7057 -143.0445
v -36.8941 324.5154 -164.7224
v -71.4115 384.6996 -168.5167
v -129.2577 352.8898 -146.8388
v 12.2383 348.907 -45.1734
v -55.8866 352.4461 -31.9654
v -44.6253 405.0374 12.0269
v 23.4996 401.4983 -1.1811
v -71.1844 300.0111 -67.2486
v -52.4001 314.3435 -1.9055
v -33.2989 378.2391 -21.4116
v -52.0831 363.9066 -86.7546
v -74.3085 337.6617 -59.653
v -8.778 335.3964 -36.6616
v 3.9034 396.7235 -66.764
v -61.6271 398.9888 -89.7553
v -127.0444 399.5806 -48.2737
v -135.1729 402.0087 20.6901
v -108.3932 466.1181 21.5893
v -100.2647 463.69 -47.3745
v -139.1915 369.5205 26.1604
v -79.028 404.277 26.7222
v -111.2619 460.4798 1.6185
v -171.4255 425.7234 1.0567
v -144.8581 407.3743 30.6328
v -104.9605 416.9244 -25.4471
v -147.8173 467.0146 -47.4072
v -187.7149 457.4646 8.6727
v -125.85 364.8241 -157.8189
v -141.0057 372.0195 -90.391
v -73.9626 363.2429 -74.3854
v -58.807 356.0475 -141.8132
v -184.956 375.8621 -99.3625
v -136.6044 327.1095 -88.7187
v -86.7597 373.592 -102.2413
v -135.1113 422.3445 -112.8852
v -172.2923 390.2932 -86.9605
v -140.3815 355.4242 -137.8903
v -99.7705 410.4608 -150.1255
v -131.6814 445.3298 -99.1958
v -32.3249 376.1357 -85.7044
v -101.2523 380.7109 -78.2173
v -92.8651 432.4815 -32.6384
v -23.9376 427.9063 -40.1254
v -114.3927 329.0489 -115.456
v -100.9482 342.1418 -48.5546
v -79.208 405.9479 -65.4106
v -92.6525 392.855 -132.312
v -117.5181 366.6412 -107.5775
v -54.2063 362.8874 -79.1961
v -38.0116 424.3865 -107.1885
v -101.3234 428.1403 -135.5698
v 30.5927 300.8936 58.137
v -29.6962 266.7556 63.4107
v -52.9318 314.6834 108.0315
v 7.357201 348.8215 102.7577
v -10.8018 216.3183 26.9767
v -9.340599 234.8009 93.9411
v -25.6898 299.9903 76.3051
v -27.151 281.5077 9.3407
v -34.4006 245.9871 33.8965
v 19.3885 277.7969 64.275
v 0.1078 337.981 35.3942
v -53.6813 306.1713 5.0157
v -82.5982 302.1884 152.5518
v -136.506 305.7275 108.8551
v -162.9674 358.3189 145.7595
v -109.0596 354.7797 189.4562
v -77.3221 253.2925 100.6621
v -115.3035 267.625 157.0534
v -88.083 331.5205 159.1475
v -50.1016 317.1881 102.7562
v -85.1488 290.9431 103.1512
v -60.639 288.6778 168.129
v -29.4279 350.0049 158.4941
v -53.9377 352.2703 93.5163
v -117.4636 381.9913 82.343
v -175.5178 384.4194 120.4453
v -158.993 448.5288 141.5378
v -100.9387 446.1007 103.4355
v -164.6905 323.8312 108.6077
v -126.4485 358.5877 155.0568
v -127.9375 414.7905 114.2278
v -166.1795 380.0341 67.7787
v -162.1525 363.7615 107.1417
v -93.5471 373.3116 101.6576
v -104.2725 423.4018 54.7117
v -172.8779 413.8518 60.1958
v -43.0797 318.1055 0.5683
v -104.4742 325.301 32.3002
v -73.6409 316.5244 93.9464
v -12.2463 309.3289 62.2145
v -138.9599 328.1288 -22.7553
v -116.0336 279.3763 21.126
v -73.6351 325.8589 50.617
v -96.5613 374.6114 6.7358
v -127.2128 343.5746 10.5383
v -67.6865 308.7056 2.2464
v -32.2096 363.7423 25.4915
v -91.7359 398.6112 33.7834
v -38.2058 329.4171 118.567
v -88.2469 333.9924 70.5781
v -117.7712 385.763 106.3007
v -67.7301 381.1878 154.2896
v -68.1669 282.3303 36.5754
v -110.7744 295.4232 89.8779
v -83.8876 359.2293 95.6971
v -41.2801 346.1364 42.3945
v -76.2112 319.9226 39.2454
v -57.2565 316.1688 105.9883
v -25.4033 377.6679 100.401
v -44.358 381.4218 33.6582
vn -0.791229 0.608922 -0.056302
vn -0.791229 0.608922 -0.056302
vn -0.791229 0.608922 -0.056302
vn -0.791229 0.608922 -0.056302
vn -0.263295 0.037599 0.963982
vn -0.263295 0.037599 0.963982
vn -0.263295 0.037599 0.963982
vn -0.263295 0.037599 0.963982
vn 0.579193 0.340896 0.740491
vn 0.579193 0.340896 0.740491
vn 0.579193 0.340896 0.740491
vn 0.579193 0.340896 0.740491
vn -0.309688 0.49918 -0.809267
vn -0.309688 0.49918 -0.809267
vn -0.309688 0.49918 -0.809267
vn -0.309688 0.49918 -0.809267
vn -0.763166 0.514577 0.390882
vn -0.763166 0.514577 0.390882
vn -0.763166 0.514577 0.390882
vn -0.763166 0.514577 0.390882
vn 0.076702 0.665418 0.74252
vn 0.076702 0.665418 0.74252
vn 0.076702 0.665418 0.74252
vn 0.076702 0.665418 0.74252
vn -0.861849 0.499171 0.089695
vn -0.861849 0.499171 0.089695
vn -0.861849 0.499171 0.089695
vn -0.861849 0.499171 0.089695
vn 0.180004 0.51461 0.838317
vn 0.180004 0.51461 0.838317
vn 0.180004 0.51461 0.838317
vn 0.180004 0.51461 0.838317
vn 0.737047 0.665442 0.118108
vn 0.737047 0.665442 0.118108
vn 0.737047 0.665442 0.118108
vn 0.737047 0.665442 0.118108
vn 0.198413 0.914257 -0.353222
vn 0.198413 0.914257 -0.353222
vn 0.198413 0.914257 -0.353222
vn 0.198413 0.914257 -0.353222
vn 0.393507 0.423407 0.816014
vn 0.393507 0.423407 0.816014
vn 0.393507 0.423407 0.816014
vn 0.393507 0.423407 0.816014
vn 0.823425 -0.31671 0.470814
vn 0.823425 -0.31671 0.470814
vn 0.823425 -0.31671 0.470814
vn 0.823425 -0.31671 0.470814
vn -0.237992 0.499183 -0.833172
vn -0.237992 0.499183 -0.833172
vn -0.237992 0.499183 -0.833172
vn -0.237992 0.499183 -0.833172
vn -0.794304 0.514603 0.322902
vn -0.794304 0.514603 0.322902
vn -0.794304 0.514603 0.322902
vn -0.794304 0.514603 0.322902
vn 0.0116 0.665399 0.746398
vn 0.0116 0.665399 0.746398
vn 0.0116 0.665399 0.746398
vn 0.0116 0.665399 0.746398
vn -0.446995 0.689092 0.570393
vn -0.446995 0.689092 0.570393
vn -0.446995 0.689092 0.570393
vn -0.446995 0.689092 0.570393
vn 0.184703 -0.375305 0.908312
vn 0.184703 -0.375305 0.908312
vn 0.184703 -0.375305 0.908312
vn 0.184703 -0.375305 0.908312
vn 0.910688 -0.151798 0.384195
vn 0.910688 -0.151798 0.384195
vn 0.910688 -0.151798 0.384195
vn 0.910688 -0.151798 0.384195
vn -0.392695 0.865489 -0.310996
vn -0.392695 0.865489 -0.310996
vn -0.392695 0.865489 -0.310996
vn -0.392695 0.865489 -0.310996
vn -0.279305 0.392507 0.876315
vn -0.279305 0.392507 0.876315
vn -0.279305 0.392507 0.876315
vn -0.279305 0.392507 0.876315
vn 0.61822 0.214307 0.756225
vn 0.61822 0.214307 0.756225
vn 0.61822 0.214307 0.756225
vn 0.61822 0.214307 0.756225
vn -0.488705 0.537506 0.687208
vn -0.488705 0.537506 0.687208
vn -0.488705 0.537506 0.687208
vn -0.488705 0.537506 0.687208
vn 0.68502 0.021001 0.728221
vn 0.68502 0.021001 0.728221
vn 0.68502 0.021001 0.728221
vn 0.68502 0.021001 0.728221
vn 0.914999 0.3947 -0.0836
vn 0.914999 0.3947 -0.0836
vn 0.914999 0.3947 -0.0836
vn 0.914999 0.3947 -0.0836
vn 0.372498 0.923794 -0.088599
vn 0.372498 0.923794 -0.088599
vn 0.372498 0.923794 -0.088599
vn 0.372498 0.923794 -0.088599
vn 0.818436 -0.084004 0.568425
vn 0.818436 -0.084004 0.568425
vn 0.818436 -0.084004 0.568425
vn 0.818436 -0.084004 0.568425
vn 0.752902 -0.636302 -0.168101
vn 0.752902 -0.636302 -0.168101
vn 0.752902 -0.636302 -0.168101
vn 0.752902 -0.636302 -0.168101
vn -0.342787 0.864467 -0.367686
vn -0.342787 0.864467 -0.367686
vn -0.342787 0.864467 -0.367686
vn -0.342787 0.864467 -0.367686
vn -0.332698 0.429798 0.839396
vn -0.332698 0.429798 0.839396
vn -0.332698 0.429798 0.839396
vn -0.332698 0.429798 0.839396
vn 0.565776 0.22359 0.793666
vn 0.565776 0.22359 0.793666
vn 0.565776 0.22359 0.793666
vn 0.565776 0.22359 0.793666
vn -0.820802 0.531801 -0.2085
vn -0.820802 0.531801 -0.2085
vn -0.820802 0.531801 -0.2085
vn -0.820802 0.531801 -0.2085
vn -0.561504 -0.221401 0.797305
vn -0.561504 -0.221401 0.797305
vn -0.561504 -0.221401 0.797305
vn -0.561504 -0.221401 0.797305
vn 0.245208 0.200407 0.948531
vn 0.245208 0.200407 0.948531
vn 0.245208 0.200407 0.948531
vn 0.245208 0.200407 0.948531
vn -0.111601 0.651604 -0.750305
vn -0.111601 0.651604 -0.750305
vn -0.111601 0.651604 -0.750305
vn -0.111601 0.651604 -0.750305
vn -0.922689 0.334396 0.191898
vn -0.922689 0.334396 0.191898
vn -0.922689 0.334396 0.191898
vn -0.922689 0.334396 0.191898
vn -0.277909 0.469015 0.838327
vn -0.277909 0.469015 0.838327
vn -0.277909 0.469015 0.838327
vn -0.277909 0.469015 0.838327
vn -0.915315 0.384006 -0.121402
vn -0.915315 0.384006 -0.121402
vn -0.915315 0.384006 -0.121402
vn -0.915315 0.384006 -0.121402
vn -0.187301 0.309101 0.932403
vn -0.187301 0.309101 0.932403
vn -0.187301 0.309101 0.932403
vn -0.187301 0.309101 0.932403
vn 0.538393 0.679292 0.498694
vn 0.538393 0.679292 0.498694
vn 0.538393 0.679292 0.498694
vn 0.538393 0.679292 0.498694
vn 0.146396 0.986573 -0.072398
vn 0.146396 0.986573 -0.072398
vn 0.146396 0.986573 -0.072398
vn 0.146396 0.986573 -0.072398
vn 0.034102 0.245311 0.968844
vn 0.034102 0.245311 0.968844
vn 0.034102 0.245311 0.968844
vn 0.034102 0.245311 0.968844
vn 0.668912 -0.347506 0.657112
vn 0.668912 -0.347506 0.657112
vn 0.668912 -0.347506 0.657112
vn 0.668912 -0.347506 0.657112
vn -0.037099 0.663689 -0.747088
vn -0.037099 0.663689 -0.747088
vn -0.037099 0.663689 -0.747088
vn -0.037099 0.663689 -0.747088
vn -0.929878 0.348192 0.118697
vn -0.929878 0.348192 0.118697
vn -0.929878 0.348192 0.118697
vn -0.929878 0.348192 0.118697
vn -0.339781 0.462275 0.819055
vn -0.339781 0.462275 0.819055
vn -0.339781 0.462275 0.819055
vn -0.339781 0.462275 0.819055
vn -0.367895 0.531793 -0.76279
vn -0.367895 0.531793 -0.76279
vn -0.367895 0.531793 -0.76279
vn -0.367895 0.531793 -0.76279
vn -0.971704 -0.221401 0.0823
vn -0.971704 -0.221401 0.0823
vn -0.971704 -0.221401 0.0823
vn -0.971704 -0.221401 0.0823
vn -0.568975 0.200391 0.797565
vn -0.568975 0.200391 0.797565
vn -0.568975 0.200391 0.797565
vn -0.568975 0.200391 0.797565
vn 0.503003 0.651604 -0.567803
vn 0.503003 0.651604 -0.567803
vn 0.503003 0.651604 -0.567803
vn 0.503003 0.651604 -0.567803
vn -0.740084 0.334393 -0.583487
vn -0.740084 0.334393 -0.583487
vn -0.740084 0.334393 -0.583487
vn -0.740084 0.334393 -0.583487
vn -0.820853 0.468973 0.325982
vn -0.820853 0.468973 0.325982
vn -0.820853 0.468973 0.325982
vn -0.820853 0.468973 0.325982
vn -0.495317 0.384013 -0.779227
vn -0.495317 0.384013 -0.779227
vn -0.495317 0.384013 -0.779227
vn -0.495317 0.384013 -0.779227
vn -0.834623 0.309109 0.455913
vn -0.834623 0.309109 0.455913
vn -0.834623 0.309109 0.455913
vn -0.834623 0.309109 0.455913
vn -0.035999 0.679289 0.732988
vn -0.035999 0.679289 0.732988
vn -0.035999 0.679289 0.732988
vn -0.035999 0.679289 0.732988
vn 0.149594 0.986563 0.065698
vn 0.149594 0.986563 0.065698
vn 0.149594 0.986563 0.065698
vn 0.149594 0.986563 0.065698
vn -0.720273 0.245291 0.648876
vn -0.720273 0.245291 0.648876
vn -0.720273 0.245291 0.648876
vn -0.720273 0.245291 0.648876
vn -0.0734 -0.347501 0.934802
vn -0.0734 -0.347501 0.934802
vn -0.0734 -0.347501 0.934802
vn -0.0734 -0.347501 0.934802
vn 0.548424 0.663729 -0.508622
vn 0.548424 0.663729 -0.508622
vn 0.548424 0.663729 -0.508622
vn 0.548424 0.663729 -0.508622
vn -0.688684 0.348192 -0.635985
vn -0.688684 0.348192 -0.635985
vn -0.688684 0.348192 -0.635985
vn -0.688684 0.348192 -0.635985
vn -0.845816 0.462309 0.266205
vn -0.845816 0.462309 0.266205
vn -0.845816 0.462309 0.266205
vn -0.845816 0.462309 0.266205
vt 0.0005 0.0005
vt 0.9995 0.0005
vt 0.9995 0.9995
vt 0.0005 0.9995
vt 0.0005 0.0005
vt 0.9995 0.0005
vt 0.9995 0.9995
vt 0.0005 0.9995
vt 0.0005 0.0005
vt 0.9995 0.0005
vt 0.9995 0.9995
vt 0.0005 0.9995
vt 0.0005 0.0005
vt 0.9995 0.0005
vt 0.9995 0.9995
vt 0.0005 0.9995
vt 0.0005 0.0005
vt 0.9995 0.0005
vt 0.9995 0.9995
vt 0.0005 0.9995
vt 0.0005 0.0005
vt 0.9995 0.0005
vt 0.9995 0.9995
vt 0.0005 0.9995
vt 0.0005 0.0005
vt 0.9995 0.0005
vt 0.9995 0.9995
vt 0.0005 0.9995
vt 0.0005 0.0005
vt 0.9995 0.0005
vt 0.9995 0.9995
vt 0.0005 0.9995
vt 0.0005 0.0005
vt 0.9995 0.0005
vt 0.9995 0.9995
vt 0.0005 0.9995
vt 0.0005 0.0005
vt 0.9995 0.0005
vt 0.9995 0.9995
vt 0.0005 0.9995
vt 0.0005 0.0005
vt 0.9995 0.0005
vt 0.9995 0.9995
vt 0.0005 0.9995
vt 0.0005 0.0005
vt 0.9995 0.0005
vt 0.9995 0.9995
vt 0.0005 0.9995
vt 0.0005 0.0005
vt 0.9995 0.0005
vt 0.9995 0.9995
vt 0.0005 0.9995
vt 0.0005 0.0005
vt 0.9995 0.0005
vt 0.9995 0.9995
vt 0.0005 0.9995
vt 0.0005 0.0005
vt 0.9995 0.0005
vt 0.9995 0.9995
vt 0.0005 0.9995
vt 0.0005 0.0005
vt 0.9995 0.0005
vt 0.9995 0.9995
vt 0.0005 0.9995
vt 0.0005 0.0005
vt 0.9995 0.0005
vt 0.9995 0.9995
vt 0.0005 0.9995
vt 0.0005 0.0005
vt 0.9995 0.0005
vt 0.9995 0.9995
vt 0.0005 0.9995
vt 0.0005 0.0005
vt 0.9995 0.0005
vt 0.9995 0.9995
vt 0.0005 0.9995
vt 0.0005 0.0005
vt 0.9995 0.0005
vt 0.9995 0.9995
vt 0.0005 0.9995
vt 0.0005 0.0005
vt 0.9995 0.0005
vt 0.9995 0.9995
vt 0.0005 0.9995
vt 0.0005 0.0005
vt 0.9995 0.0005
vt 0.9995 0.9995
vt 0.0005 0.9995
vt 0.0005 0.0005
vt 0.9995 0.0005
vt 0.9995 0.9995
vt 0.0005 0.9995
vt 0.0005 0.0005
vt 0.9995 0.0005
vt 0.9995 0.9995
vt 0.0005 0.9995
vt 0.0005 0.0005
vt 0.9995 0.0005
vt 0.9995 0.9995
vt 0.0005 0.9995
vt 0.0005 0.0005
vt 0.9995 0.0005
vt 0.9995 0.9995
vt 0.0005 0.9995
vt 0.0005 0.0005
vt 0.9995 0.0005
vt 0.9995 0.9995
vt 0.0005 0.9995
vt 0.0005 0.0005
vt 0.9995 0.0005
vt 0.9995 0.9995
vt 0.0005 0.9995
vt 0.0005 0.0005
vt 0.9995 0.0005
vt 0.9995 0.9995
vt 0.0005 0.9995
vt 0.0005 0.0005
vt 0.9995 0.0005
vt 0.9995 0.9995
vt 0.0005 0.9995
vt 0.0005 0.0005
vt 0.9995 0.0005
vt 0.9995 0.9995
vt 0.0005 0.9995
vt 0.0005 0.0005
vt 0.9995 0.0005
vt 0.9995 0.9995
vt 0.0005 0.9995
vt 0.0005 0.0005
vt 0.9995 0.0005
vt 0.9995 0.9995
vt 0.0005 0.9995
vt 0.0005 0.0005
vt 0.9995 0.0005
vt 0.9995 0.9995
vt 0.0005 0.9995
vt 0.0005 0.0005
vt 0.9995 0.0005
vt 0.9995 0.9995
vt 0.0005 0.9995
vt 0.0005 0.0005
vt 0.9995 0.0005
vt 0.9995 0.9995
vt 0.0005 0.9995
vt 0.0005 0.0005
vt 0.9995 0.0005
vt 0.9995 0.9995
vt 0.0005 0.9995
vt 0.0005 0.0005
vt 0.9995 0.0005
vt 0.9995 0.9995
vt 0.0005 0.9995
vt 0.0005 0.0005
vt 0.9995 0.0005
vt 0.9995 0.9995
vt 0.0005 0.9995
vt 0.0005 0.0005
vt 0.9995 0.0005
vt 0.9995 0.9995
vt 0.0005 0.9995
vt 0.0005 0.0005
vt 0.9995 0.0005
vt 0.9995 0.9995
vt 0.0005 0.9995
vt 0.0005 0.0005
vt 0.9995 0.0005
vt 0.9995 0.9995
vt 0.0005 0.9995
vt 0.0005 0.0005
vt 0.9995 0.0005
vt 0.9995 0.9995
vt 0.0005 0.9995
vt 0.0005 0.0005
vt 0.9995 0.0005
vt 0.9995 0.9995
vt 0.0005 0.9995
vt 0.0005 0.0005
vt 0.9995 0.0005
vt 0.9995 0.9995
vt 0.0005 0.9995
vt 0.0005 0.0005
vt 0.9995 0.0005
vt 0.9995 0.9995
vt 0.0005 0.9995
vt 0.0005 0.0005
vt 0.9995 0.0005
vt 0.9995 0.9995
vt 0.0005 0.9995
vt 0.0005 0.0005
vt 0.9995 0.0005
vt 0.9995 0.9995
vt 0.0005 0.9995
vt 0.0005 0.0005
vt 0.9995 0.0005
vt 0.9995 0.9995
vt 0.0005 0.9995
vt 0.0005 0.0005
vt 0.9995 0.0005
vt 0.9995 0.9995
vt 0.0005 0.9995
vt 0.0005 0.0005
vt 0.9995 0.0005
vt 0.9995 0.9995
vt 0.0005 0.9995
vt 0.0005 0.0005
vt 0.9995 0.0005
vt 0.9995 0.9995
vt 0.0005 0.9995
vt 0.0005 0.0005
vt 0.9995 0.0005
vt 0.9995 0.9995
vt 0.0005 0.9995
vt 0.0005 0.0005
vt 0.9995 0.0005
vt 0.9995 0.9995
vt 0.0005 0.9995
vt 0.0005 0.0005
vt 0.9995 0.0005
vt 0.9995 0.9995
vt 0.0005 0.9995
vt 0.0005 0.0005
vt 0.9995 0.0005
vt 0.9995 0.9995
vt 0.0005 0.9995
vt 0.0005 0.0005
vt 0.9995 0.0005
vt 0.9995 0.9995
vt 0.0005 0.9995
vt 0.0005 0.0005
vt 0.9995 0.0005
vt 0.9995 0.9995
vt 0.0005 0.9995
vt 0.0005 0.0005
vt 0.9995 0.0005
vt 0.9995 0.9995
vt 0.0005 0.9995
vt 0.0005 0.0005
vt 0.9995 0.0005
vt 0.9995 0.9995
vt 0.0005 0.9995
f 336/336/336 338/338/338 337/337/337
f 338/338/338 336/336/336 339/339/339
f 340/340/340 342/342/342 341/341/341
f 342/342/342 340/340/340 343/343/343
f 344/344/344 346/346/346 345/345/345
f 346/346/346 344/344/344 347/347/347
f 348/348/348 350/350/350 349/349/349
f 350/350/350 348/348/348 351/351/351
f 352/352/352 354/354/354 353/353/353
f 354/354/354 352/352/352 355/355/355
f 356/356/356 358/358/358 357/357/357
f 358/358/358 356/356/356 359/359/359
f 360/360/360 362/362/362 361/361/361
f 362/362/362 360/360/360 363/363/363
f 364/364/364 366/366/366 365/365/365
f 366/366/366 364/364/364 367/367/367
f 368/368/368 370/370/370 369/369/369
f 370/370/370 368/368/368 371/371/371
f 372/372/372 374/374/374 373/373/373
f 374/374/374 372/372/372 375/375/375
f 376/376/376 378/378/378 377/377/377
f 378/378/378 376/376/376 379/379/379
f 380/380/380 382/382/382 381/381/381
f 382/382/382 380/380/380 383/383/383
f 384/384/384 386/386/386 385/385/385
f 386/386/386 384/384/384 387/387/387
f 388/388/388 390/390/390 389/389/389
f 390/390/390 388/388/388 391/391/391
f 392/392/392 394/394/394 393/393/393
f 394/394/394 392/392/392 395/395/395
f 396/396/396 398/398/398 397/397/397
f 398/398/398 396/396/396 399/399/399
f 400/400/400 402/402/402 401/401/401
f 402/402/402 400/400/400 403/403/403
f 404/404/404 406/406/406 405/405/405
f 406/406/406 404/404/404 407/407/407
f 408/408/408 410/410/410 409/409/409
f 410/410/410 408/408/408 411/411/411
f 412/412/412 414/414/414 413/413/413
f 414/414/414 412/412/412 415/415/415
f 416/416/416 418/418/418 417/417/417
f 418/418/418 416/416/416 419/419/419
f 420/420/420 422/422/422 421/421/421
f 422/422/422 420/420/420 423/423/423
f 424/424/424 426/426/426 425/425/425
f 426/426/426 424/424/424 427/427/427
f 428/428/428 430/430/430 429/429/429
f 430/430/430 428/428/428 431/431/431
f 432/432/432 434/434/434 433/433/433
f 434/434/434 432/432/432 435/435/435
f 436/436/436 438/438/438 437/437/437
f 438/438/438 436/436/436 439/439/439
f 440/440/440 442/442/442 441/441/441
f 442/442/442 440/440/440 443/443/443
f 444/444/444 446/446/446 445/445/445
f 446/446/446 444/444/444 447/447/447
f 448/448/448 450/450/450 449/449/449
f 450/450/450 448/448/448 451/451/451
f 452/452/452 454/454/454 453/453/453
f 454/454/454 452/452/452 455/455/455
f 456/456/456 458/458/458 457/457/457
f 458/458/458 456/456/456 459/459/459
f 460/460/460 462/462/462 461/461/461
f 462/462/462 460/460/460 463/463/463
f 464/464/464 466/466/466 465/465/465
f 466/466/466 464/464/464 467/467/467
f 468/468/468 470/470/470 469/469/469
f 470/470/470 468/468/468 471/471/471
f 472/472/472 474/474/474 473/473/473
f 474/474/474 472/472/472 475/475/475
f 476/476/476 478/478/478 477/477/477
f 478/478/478 476/476/476 479/479/479
f 480/480/480 482/482/482 481/481/481
f 482/482/482 480/480/480 483/483/483
f 484/484/484 486/486/486 485/485/485
f 486/486/486 484/484/484 487/487/487
f 488/488/488 490/490/490 489/489/489
f 490/490/490 488/488/488 491/491/491
f 492/492/492 494/494/494 493/493/493
f 494/494/494 492/492/492 495/495/495
f 496/496/496 498/498/498 497/497/497
f 498/498/498 496/496/496 499/499/499
f 500/500/500 502/502/502 501/501/501
f 502/502/502 500/500/500 503/503/503
f 504/504/504 506/506/506 505/505/505
f 506/506/506 504/504/504 507/507/507
f 508/508/508 510/510/510 509/509/509
f 510/510/510 508/508/508 511/511/511
f 512/512/512 514/514/514 513/513/513
f 514/514/514 512/512/512 515/515/515
f 516/516/516 518/518/518 517/517/517
f 518/518/518 516/516/516 519/519/519
f 520/520/520 522/522/522 521/521/521
f 522/522/522 520/520/520 523/523/523
f 524/524/524 526/526/526 525/525/525
f 526/526/526 524/524/524 527/527/527
f 528/528/528 530/530/530 529/529/529
f 530/530/530 528/528/528 531/531/531
f 532/532/532 534/534/534 533/533/533
f 534/534/534 532/532/532 535/535/535
f 536/536/536 538/538/538 537/537/537
f 538/538/538 536/536/536 539/539/539
f 540/540/540 542/542/542 541/541/541
f 542/542/542 540/540/540 543/543/543
f 544/544/544 546/546/546 545/545/545
f 546/546/546 544/544/544 547/547/547
f 548/548/548 550/550/550 549/549/549
f 550/550/550 548/548/548 551/551/551
f 552/552/552 554/554/554 553/553/553
f 554/554/554 552/552/552 555/555/555
f 556/556/556 558/558/558 557/557/557
f 558/558/558 556/556/556 559/559/559
f 560/560/560 562/562/562 561/561/561
f 562/562/562 560/560/560 563/563/563
f 564/564/564 566/566/566 565/565/565
f 566/566/566 564/564/564 567/567/567
f 568/568/568 570/570/570 569/569/569
f 570/570/570 568/568/568 571/571/571
f 572/572/572 574/574/574 573/573/573
f 574/574/574 572/572/572 575/575/575
