# Tree13.bmd — MU bind-pose geometry, exported for MU2
# 2 mesh(es)

g tree_05
# texture: tree_05.tga
v 117.0275 303.8055 4.3098
v 73.3307 286.4346 55.4647
v 97.7836 338.7431 94.1151
v 141.4803 356.114 42.9602
v 51.2425 232.8257 26.0275
v 102.974 250.3004 68.9979
v 91.2673 317.5 55.7637
v 39.5357 300.0253 12.7932
v 45.447 267.5913 41.609
v 109.4881 284.3956 20.5296
v 86.9117 347.5193 2.2623
v 22.8707 330.715 23.3417
v 84.46611 323.4846 118.6031
v 17.3959 340.8556 123.8769
v 35.0426 398.5035 158.4207
v 102.1129 381.1327 153.147
v -4.779099 285.7568 97.4052
v 11.7769 309.4312 160.5986
v 43.5433 364.1043 131.7937
v 26.9873 340.4299 68.6003
v -1.4743 324.1502 97.6205
v 60.7979 315.6184 127.2408
v 86.5263 366.7778 87.8866
v 24.2541 375.3095 58.2663
v 38.9287 395.7455 107.7085
v 26.6637 413.1164 173.8583
v 64.5979 470.7644 165.7534
v 76.8629 453.3936 99.6036
v 4.2873 382.7317 188.4263
v 69.6124 406.406 188.7901
v 50.0109 461.0792 150.6508
v -15.3143 437.4048 150.287
v 5.350601 421.1251 185.2898
v 50.0789 412.5933 132.8058
v 18.7247 463.7527 97.7684
v -26.0036 472.2845 150.2524
v 29.1511 339.4987 10.7718
v 10.9725 362.3391 73.826
v 74.0163 345.8812 97.9631
v 92.1949 323.0409 34.9088
v -50.9941 373.9961 57.9325
v -13.2289 320.9711 82.2247
v 45.0901 354.8962 65.6124
v 7.324799 407.9212 41.3202
v -16.6019 385.8752 70.6245
v 11.8106 336.7878 30.4855
v 62.551 380.767 12.6186
v 34.1385 429.8544 52.7576
v 48.5303 349.1635 69.4172
v -18.7443 366.5344 68.8253
v -4.1754 424.1823 104.7757
v 63.0993 406.8114 105.3676
v 30.9297 311.4355 59.9149
v 41.915 335.11 124.3108
v 76.0711 389.7831 98.3841
v 65.0858 366.1087 33.9882
v 34.2033 349.829 60.4173
v 93.6569 341.2972 95.3523
v 122.7173 392.4566 58.3903
v 63.2637 400.9883 23.4553
v 109.6511 358.8152 -163.8766
v 90.6144 316.3871 -112.2486
v 140.1103 343.5016 -71.7154
v 159.147 385.9296 -123.3434
v 46.9901 283.6606 -147.664
v 114.8003 279.6449 -133.0478
v 112.9335 343.9233 -106.727
v 45.1233 347.9389 -121.3431
v 56.2007 305.7548 -117.4641
v 106.1781 333.5981 -156.8975
v 91.7504 396.3798 -130.8539
v 41.773 368.5366 -91.4205
v 205.2473 310.8767 -73.4114
v 152.8419 320.3708 -28.7851
v 195.7166 353.8582 14.4392
v 248.122 344.3642 -30.1872
v 110.1427 284.8729 -62.6236
v 157.5972 274.6206 -12.915
v 184.0398 337.7008 -25.1482
v 136.5853 347.9532 -74.8568
v 121.2295 318.1594 -46.6825
v 186.8027 298.7306 -58.9567
v 202.5642 363.7593 -77.687
v 136.991 383.1881 -65.4128
v 160.0978 361.0646 -35.4506
v 182.4299 342.6248 27.7098
v 224.0553 398.2395 29.2289
v 201.7233 416.6794 -33.9314
v 109.81 330.5463 64.2449
v 171.8696 353.7144 43.2728
v 149.4319 419.2056 49.2253
v 87.3723 396.0375 70.1973
v 117.4576 365.4046 78.7857
v 131.3297 386.1072 13.9247
v 99.2895 446.4982 26.348
v 85.4174 425.7956 91.209
v 43.523 382.6782 -99.8793
v 60.4872 370.2592 -33.6526
v 122.6253 346.731 -53.9816
v 105.6611 359.15 -120.2082
v 1.929699 385.5706 -9.8844
v 34.393 329.1954 -34.2966
v 84.986 369.3914 -59.8429
v 52.5227 425.7666 -35.4306
v 40.0242 391.0351 -11.8771
v 36.5923 369.7555 -77.933
v 82.1527 418.9532 -96.1488
v 85.5846 440.2328 -30.093
v 157.5562 356.0486 -80.8341
v 102.3707 368.4554 -40.478
v 143.1886 401.1081 5.3006
v 198.3741 388.7013 -35.0555
v 60.9419 333.9742 -76.8519
v 104.0779 322.8802 -23.521
v 133.8785 384.631 -34.7793
v 90.7424 395.725 -88.1102
v 72.1287 367.1163 -60.6815
v 137.6047 344.9174 -67.6165
v 157.3294 408.8998 -86.1952
v 91.8535 431.0987 -79.2603
v 22.8617 347.8152 -148.806
v -29.5499 313.6771 -118.5472
v -31.7509 361.6049 -68.2873
v 20.6607 395.743 -98.5461
v 37.2349 263.2399 -184.9407
v 66.8596 281.7225 -124.8678
v 44.5889 346.9119 -133.9419
v 14.9642 328.4293 -194.0148
v 18.7716 292.9087 -168.6959
v 80.3596 324.7184 -163.8959
v 50.6797 384.9026 -181.9224
v -10.9082 353.0928 -186.7224
v 9.306698 349.11 -9.3956
v -58.0174 352.6491 -26.2159
v -66.4031 405.2404 18.4139
v 0.921001 401.7013 35.2342
v -56.9705 300.2141 -64.6584
v -67.5613 314.5465 2.5011
v -42.0061 378.4421 -7.1049
v -31.4153 364.1096 -74.2644
v -63.012 337.8647 -59.0948
v -13.3378 335.5994 -10.5632
v 10.8773 396.9265 -32.4858
v -38.7969 399.1918 -81.0174
v -96.7657 359.9528 -107.5943
v -133.278 362.3809 -48.5271
v -109.3873 426.4903 -36.3945
v -72.875 424.0622 -95.4617
v -142.1115 348.1465 -52.0399
v -87.8223 382.903 -26.1045
v -106.4268 439.1058 -62.4788
v -160.7161 404.3494 -88.4142
v -149.1373 386.0003 -50.3813
v -89.2774 395.5504 -84.3455
v -118.8381 445.6406 -122.3602
v -178.698 436.0906 -88.396
v -72.2596 365.027 -146.4563
v -114.4915 372.2225 -91.7509
v -60.4942 363.4459 -48.9113
v -18.2623 356.2504 -103.6166
v -25.1829 375.0504 -182.6388
v 14.1403 326.2979 -152.5579
v 65.0299 372.7804 -143.7483
v 25.7067 421.5329 -173.8293
v -0.466003 390.4961 -157.4291
v 49.9789 355.6272 -190.101
v 91.9557 410.6638 -184.027
v 41.5109 445.5327 -151.3551
v -13.9521 376.3387 -64.9623
v -79.5858 380.9139 -87.3068
v -91.2468 432.6845 -42.4536
v -25.6132 428.1093 -20.1092
v -75.7573 329.2519 -126.6098
v -91.8461 342.3448 -60.2946
v -65.0192 406.1508 -66.3836
v -48.9303 393.058 -132.6988
v -81.9194 366.8442 -120.7903
v -36.5339 363.0904 -68.3113
v -10.0264 424.5895 -86.8369
v -55.412 428.3433 -139.3158
v -17.7194 301.0966 91.9923
v -74.5885 266.9586 71.2927
v -114.5046 314.8864 101.9131
v -57.6355 349.0245 122.6127
v -42.0666 216.5213 46.2574
v -69.0428 235.0039 107.5653
v -76.4069 300.1933 84.6722
v -49.4308 281.7107 23.3643
v -66.3789 246.1901 42.5556
v -30.4679 277.9998 92.8201
v -35.7366 338.1841 58.4968
v -71.6476 306.3742 8.2323
v -133.227 302.3914 171.22
v -163.617 305.9305 108.8348
v -203.1956 358.5218 131.0985
v -172.8056 354.9827 193.4836
v -133.4954 253.4955 84.9264
v -191.7502 267.8279 119.9827
v -167.965 331.7235 133.3845
v -109.7102 317.391 98.3282
v -141.6407 291.1461 83.8745
v -146.8881 288.8808 153.1228
v -114.5293 350.2079 157.581
v -109.2819 352.4732 88.3328
v -118.458 382.1943 53.8982
v -187.1758 384.6224 63.8958
v -181.1133 448.7318 89.9958
v -112.3955 446.3037 79.9982
v -197.6472 323.0049 45.9515
v -182.6184 357.7614 104.2105
v -166.7128 413.9642 66.5776
v -181.7416 379.2078 8.3186
v -203.4338 360.8587 41.6356
v -138.9385 370.4088 65.6592
v -128.8188 420.499 18.579
v -193.3141 410.9489 -5.4446
v -60.1597 318.3085 8.6821
v -129.2125 325.5039 11.4945
v -127.3208 316.7273 80.3957
v -58.268 309.5319 77.5832
v -137.1997 328.3318 -52.9769
v -134.9665 279.5793 -3.518
v -109.0038 326.0618 41.1283
v -111.237 374.8143 -8.3306
v -140.6237 343.7776 -17.8382
v -83.1703 308.9086 -0.1963
v -60.841 363.9453 35.8641
v -118.2945 398.8142 18.2222
v -105.6109 329.6201 117.685
v -130.6825 334.1953 53.044
v -172.5376 385.9659 72.9422
v -147.4659 381.3907 137.5832
v -98.1137 282.5333 30.7133
v -159.2558 295.6262 61.0151
v -137.3474 359.4323 77.6519
v -76.2052 346.3394 47.35
v -106.5327 320.1256 29.7335
v -117.5606 316.3718 98.2337
v -86.3306 377.8709 106.6316
v -75.3026 381.6247 38.1314
vn -0.693315 0.608913 -0.385408
vn -0.693315 0.608913 -0.385408
vn -0.693315 0.608913 -0.385408
vn -0.693315 0.608913 -0.385408
vn -0.646005 0.0376 0.762406
vn -0.646005 0.0376 0.762406
vn -0.646005 0.0376 0.762406
vn -0.646005 0.0376 0.762406
vn 0.211997 0.340895 0.915887
vn 0.211997 0.340895 0.915887
vn 0.211997 0.340895 0.915887
vn 0.211997 0.340895 0.915887
vn 0.061301 0.499207 -0.864312
vn 0.061301 0.499207 -0.864312
vn 0.061301 0.499207 -0.864312
vn 0.061301 0.499207 -0.864312
vn -0.856859 0.514575 0.031698
vn -0.856859 0.514575 0.031698
vn -0.856859 0.514575 0.031698
vn -0.856859 0.514575 0.031698
vn -0.244314 0.665437 0.70534
vn -0.244314 0.665437 0.70534
vn -0.244314 0.665437 0.70534
vn -0.244314 0.665437 0.70534
vn -0.819002 0.499202 -0.282901
vn -0.819002 0.499202 -0.282901
vn -0.819002 0.499202 -0.282901
vn -0.819002 0.499202 -0.282901
vn -0.191094 0.514584 0.835875
vn -0.191094 0.514584 0.835875
vn -0.191094 0.514584 0.835875
vn -0.191094 0.514584 0.835875
vn 0.618091 0.66539 0.418594
vn 0.618091 0.66539 0.418594
vn 0.618091 0.66539 0.418594
vn 0.618091 0.66539 0.418594
vn 0.329116 0.914243 -0.236311
vn 0.329116 0.914243 -0.236311
vn 0.329116 0.914243 -0.236311
vn 0.329116 0.914243 -0.236311
vn 0.0118 0.423387 0.905872
vn 0.0118 0.423387 0.905872
vn 0.0118 0.423387 0.905872
vn 0.0118 0.423387 0.905872
vn 0.547301 -0.316701 0.774702
vn 0.547301 -0.316701 0.774702
vn 0.547301 -0.316701 0.774702
vn 0.547301 -0.316701 0.774702
vn 0.136398 0.499193 -0.855688
vn 0.136398 0.499193 -0.855688
vn 0.136398 0.499193 -0.855688
vn 0.136398 0.499193 -0.855688
vn -0.856361 0.514576 -0.043098
vn -0.856361 0.514576 -0.043098
vn -0.856361 0.514576 -0.043098
vn -0.856361 0.514576 -0.043098
vn -0.304896 0.665391 0.681391
vn -0.304896 0.665391 0.681391
vn -0.304896 0.665391 0.681391
vn -0.304896 0.665391 0.681391
vn -0.646173 0.689072 0.328086
vn -0.646173 0.689072 0.328086
vn -0.646173 0.689072 0.328086
vn -0.646173 0.689072 0.328086
vn -0.216493 -0.375288 0.901271
vn -0.216493 -0.375288 0.901271
vn -0.216493 -0.375288 0.901271
vn -0.216493 -0.375288 0.901271
vn 0.662984 -0.151796 0.733083
vn 0.662984 -0.151796 0.733083
vn 0.662984 -0.151796 0.733083
vn 0.662984 -0.151796 0.733083
vn -0.224498 0.865493 -0.447797
vn -0.224498 0.865493 -0.447797
vn -0.224498 0.865493 -0.447797
vn -0.224498 0.865493 -0.447797
vn -0.623483 0.392489 0.676181
vn -0.623483 0.392489 0.676181
vn -0.623483 0.392489 0.676181
vn -0.623483 0.392489 0.676181
vn 0.240711 0.214309 0.946641
vn 0.240711 0.214309 0.946641
vn 0.240711 0.214309 0.946641
vn 0.240711 0.214309 0.946641
vn -0.733398 0.537499 0.416199
vn -0.733398 0.537499 0.416199
vn -0.733398 0.537499 0.416199
vn -0.733398 0.537499 0.416199
vn 0.313006 0.021 0.949519
vn 0.313006 0.021 0.949519
vn 0.313006 0.021 0.949519
vn 0.313006 0.021 0.949519
vn 0.864609 0.394704 0.310903
vn 0.864609 0.394704 0.310903
vn 0.864609 0.394704 0.310903
vn 0.864609 0.394704 0.310903
vn 0.375002 0.923804 0.0772
vn 0.375002 0.923804 0.0772
vn 0.375002 0.923804 0.0772
vn 0.375002 0.923804 0.0772
vn 0.50153 -0.084005 0.861052
vn 0.50153 -0.084005 0.861052
vn 0.50153 -0.084005 0.861052
vn 0.50153 -0.084005 0.861052
vn 0.753408 -0.636307 0.165802
vn 0.753408 -0.636307 0.165802
vn 0.753408 -0.636307 0.165802
vn 0.753408 -0.636307 0.165802
vn -0.155296 0.864475 -0.478086
vn -0.155296 0.864475 -0.478086
vn -0.155296 0.864475 -0.478086
vn -0.155296 0.864475 -0.478086
vn -0.656208 0.429806 0.620208
vn -0.656208 0.429806 0.620208
vn -0.656208 0.429806 0.620208
vn -0.656208 0.429806 0.620208
vn 0.177303 0.223604 0.958418
vn 0.177303 0.223604 0.958418
vn 0.177303 0.223604 0.958418
vn 0.177303 0.223604 0.958418
vn -0.655776 0.53178 -0.53588
vn -0.655776 0.53178 -0.53588
vn -0.655776 0.53178 -0.53588
vn -0.655776 0.53178 -0.53588
vn -0.845866 -0.221391 0.48528
vn -0.845866 -0.221391 0.48528
vn -0.845866 -0.221391 0.48528
vn -0.845866 -0.221391 0.48528
vn -0.1786 0.2004 0.963298
vn -0.1786 0.2004 0.963298
vn -0.1786 0.2004 0.963298
vn -0.1786 0.2004 0.963298
vn 0.215898 0.651595 -0.727195
vn 0.215898 0.651595 -0.727195
vn 0.215898 0.651595 -0.727195
vn 0.215898 0.651595 -0.727195
vn -0.917337 0.334414 -0.216009
vn -0.917337 0.334414 -0.216009
vn -0.917337 0.334414 -0.216009
vn -0.917337 0.334414 -0.216009
vn -0.606203 0.469003 0.642304
vn -0.606203 0.469003 0.642304
vn -0.606203 0.469003 0.642304
vn -0.606203 0.469003 0.642304
vn -0.778215 0.384008 -0.49691
vn -0.778215 0.384008 -0.49691
vn -0.778215 0.384008 -0.49691
vn -0.778215 0.384008 -0.49691
vn -0.563795 0.309098 0.765894
vn -0.563795 0.309098 0.765894
vn -0.563795 0.309098 0.765894
vn -0.563795 0.309098 0.765894
vn 0.277199 0.679297 0.679497
vn 0.277199 0.679297 0.679497
vn 0.277199 0.679297 0.679497
vn 0.277199 0.679297 0.679497
vn 0.163295 0.98657 -0.0037
vn 0.163295 0.98657 -0.0037
vn 0.163295 0.98657 -0.0037
vn 0.163295 0.98657 -0.0037
vn -0.378588 0.245292 0.892471
vn -0.378588 0.245292 0.892471
vn -0.378588 0.245292 0.892471
vn -0.378588 0.245292 0.892471
vn 0.328605 -0.347505 0.878213
vn 0.328605 -0.347505 0.878213
vn 0.328605 -0.347505 0.878213
vn 0.328605 -0.347505 0.878213
vn 0.282113 0.663729 -0.692731
vn 0.282113 0.663729 -0.692731
vn 0.282113 0.663729 -0.692731
vn 0.282113 0.663729 -0.692731
vn -0.892915 0.348206 -0.285405
vn -0.892915 0.348206 -0.285405
vn -0.892915 0.348206 -0.285405
vn -0.892915 0.348206 -0.285405
vn -0.654097 0.462298 0.598697
vn -0.654097 0.462298 0.598697
vn -0.654097 0.462298 0.598697
vn -0.654097 0.462298 0.598697
vn -0.011 0.531799 -0.846799
vn -0.011 0.531799 -0.846799
vn -0.011 0.531799 -0.846799
vn -0.011 0.531799 -0.846799
vn -0.915428 -0.221407 -0.33611
vn -0.915428 -0.221407 -0.33611
vn -0.915428 -0.221407 -0.33611
vn -0.915428 -0.221407 -0.33611
vn -0.852714 0.200403 0.482408
vn -0.852714 0.200403 0.482408
vn -0.852714 0.200403 0.482408
vn -0.852714 0.200403 0.482408
vn 0.695878 0.651579 -0.30199
vn 0.695878 0.651579 -0.30199
vn 0.695878 0.651579 -0.30199
vn 0.695878 0.651579 -0.30199
vn -0.424187 0.33439 -0.841575
vn -0.424187 0.33439 -0.841575
vn -0.424187 0.33439 -0.841575
vn -0.424187 0.33439 -0.841575
vn -0.881696 0.468998 -0.0515
vn -0.881696 0.468998 -0.0515
vn -0.881696 0.468998 -0.0515
vn -0.881696 0.468998 -0.0515
vn -0.119606 0.384019 -0.915546
vn -0.119606 0.384019 -0.915546
vn -0.119606 0.384019 -0.915546
vn -0.119606 0.384019 -0.915546
vn -0.949109 0.309103 0.060401
vn -0.949109 0.309103 0.060401
vn -0.949109 0.309103 0.060401
vn -0.949109 0.309103 0.060401
vn -0.342397 0.679294 0.649095
vn -0.342397 0.679294 0.649095
vn -0.342397 0.679294 0.649095
vn -0.342397 0.679294 0.649095
vn 0.107797 0.986573 0.122697
vn 0.107797 0.986573 0.122697
vn 0.107797 0.986573 0.122697
vn 0.107797 0.986573 0.122697
vn -0.927006 0.245302 0.283702
vn -0.927006 0.245302 0.283702
vn -0.927006 0.245302 0.283702
vn -0.927006 0.245302 0.283702
vn -0.461518 -0.347514 0.816232
vn -0.461518 -0.347514 0.816232
vn -0.461518 -0.347514 0.816232
vn -0.461518 -0.347514 0.816232
vn 0.712009 0.663709 -0.229203
vn 0.712009 0.663709 -0.229203
vn 0.712009 0.663709 -0.229203
vn 0.712009 0.663709 -0.229203
vn -0.355293 0.348193 -0.867484
vn -0.355293 0.348193 -0.867484
vn -0.355293 0.348193 -0.867484
vn -0.355293 0.348193 -0.867484
vn -0.879082 0.462291 -0.116198
vn -0.879082 0.462291 -0.116198
vn -0.879082 0.462291 -0.116198
vn -0.879082 0.462291 -0.116198
vt 0 0
vt 1 0
vt 1 1
vt 0 1
vt 0 0
vt 1 0
vt 1 1
vt 0 1
vt 0 0
vt 1 0
vt 1 1
vt 0 1
vt 0 0
vt 1 0
vt 1 1
vt 0 1
vt 0 0
vt 1 0
vt 1 1
vt 0 1
vt 0 0
vt 1 0
vt 1 1
vt 0 1
vt 0 0
vt 1 0
vt 1 1
vt 0 1
vt 0 0
vt 1 0
vt 1 1
vt 0 1
vt 0 0
vt 1 0
vt 1 1
vt 0 1
vt 0 0
vt 1 0
vt 1 1
vt 0 1
vt 0 0
vt 1 0
vt 1 1
vt 0 1
vt 0 0
vt 1 0
vt 1 1
vt 0 1
vt 0 0
vt 1 0
vt 1 1
vt 0 1
vt 0 0
vt 1 0
vt 1 1
vt 0 1
vt 0 0
vt 1 0
vt 1 1
vt 0 1
vt 0 0
vt 1 0
vt 1 1
vt 0 1
vt 0 0
vt 1 0
vt 1 1
vt 0 1
vt 0 0
vt 1 0
vt 1 1
vt 0 1
vt 0 0
vt 1 0
vt 1 1
vt 0 1
vt 0 0
vt 1 0
vt 1 1
vt 0 1
vt 0 0
vt 1 0
vt 1 1
vt 0 1
vt 0 0
vt 1 0
vt 1 1
vt 0 1
vt 0 0
vt 1 0
vt 1 1
vt 0 1
vt 0 0
vt 1 0
vt 1 1
vt 0 1
vt 0 0
vt 1 0
vt 1 1
vt 0 1
vt 0 0
vt 1 0
vt 1 1
vt 0 1
vt 0 0
vt 1 0
vt 1 1
vt 0 1
vt 0 0
vt 1 0
vt 1 1
vt 0 1
vt 0 0
vt 1 0
vt 1 1
vt 0 1
vt 0 0
vt 1 0
vt 1 1
vt 0 1
vt 0 0
vt 1 0
vt 1 1
vt 0 1
vt 0 0
vt 1 0
vt 1 1
vt 0 1
vt 0 0
vt 1 0
vt 1 1
vt 0 1
vt 0 0
vt 1 0
vt 1 1
vt 0 1
vt 0 0
vt 1 0
vt 1 1
vt 0 1
vt 0 0
vt 1 0
vt 1 1
vt 0 1
vt 0 0
vt 1 0
vt 1 1
vt 0 1
vt 0 0
vt 1 0
vt 1 1
vt 0 1
vt 0 0
vt 1 0
vt 1 1
vt 0 1
vt 0 0
vt 1 0
vt 1 1
vt 0 1
vt 0 0
vt 1 0
vt 1 1
vt 0 1
vt 0 0
vt 1 0
vt 1 1
vt 0 1
vt 0 0
vt 1 0
vt 1 1
vt 0 1
vt 0 0
vt 1 0
vt 1 1
vt 0 1
vt 0 0
vt 1 0
vt 1 1
vt 0 1
vt 0 0
vt 1 0
vt 1 1
vt 0 1
vt 0 0
vt 1 0
vt 1 1
vt 0 1
vt 0 0
vt 1 0
vt 1 1
vt 0 1
vt 0 0
vt 1 0
vt 1 1
vt 0 1
vt 0 0
vt 1 0
vt 1 1
vt 0 1
vt 0 0
vt 1 0
vt 1 1
vt 0 1
vt 0 0
vt 1 0
vt 1 1
vt 0 1
vt 0 0
vt 1 0
vt 1 1
vt 0 1
vt 0 0
vt 1 0
vt 1 1
vt 0 1
vt 0 0
vt 1 0
vt 1 1
vt 0 1
vt 0 0
vt 1 0
vt 1 1
vt 0 1
vt 0 0
vt 1 0
vt 1 1
vt 0 1
vt 0 0
vt 1 0
vt 1 1
vt 0 1
vt 0 0
vt 1 0
vt 1 1
vt 0 1
vt 0 0
vt 1 0
vt 1 1
vt 0 1
f 1/1/1 3/3/3 2/2/2
f 3/3/3 1/1/1 4/4/4
f 5/5/5 7/7/7 6/6/6
f 7/7/7 5/5/5 8/8/8
f 9/9/9 11/11/11 10/10/10
f 11/11/11 9/9/9 12/12/12
f 13/13/13 15/15/15 14/14/14
f 15/15/15 13/13/13 16/16/16
f 17/17/17 19/19/19 18/18/18
f 19/19/19 17/17/17 20/20/20
f 21/21/21 23/23/23 22/22/22
f 23/23/23 21/21/21 24/24/24
f 25/25/25 27/27/27 26/26/26
f 27/27/27 25/25/25 28/28/28
f 29/29/29 31/31/31 30/30/30
f 31/31/31 29/29/29 32/32/32
f 33/33/33 35/35/35 34/34/34
f 35/35/35 33/33/33 36/36/36
f 37/37/37 39/39/39 38/38/38
f 39/39/39 37/37/37 40/40/40
f 41/41/41 43/43/43 42/42/42
f 43/43/43 41/41/41 44/44/44
f 45/45/45 47/47/47 46/46/46
f 47/47/47 45/45/45 48/48/48
f 49/49/49 51/51/51 50/50/50
f 51/51/51 49/49/49 52/52/52
f 53/53/53 55/55/55 54/54/54
f 55/55/55 53/53/53 56/56/56
f 57/57/57 59/59/59 58/58/58
f 59/59/59 57/57/57 60/60/60
f 61/61/61 63/63/63 62/62/62
f 63/63/63 61/61/61 64/64/64
f 65/65/65 67/67/67 66/66/66
f 67/67/67 65/65/65 68/68/68
f 69/69/69 71/71/71 70/70/70
f 71/71/71 69/69/69 72/72/72
f 73/73/73 75/75/75 74/74/74
f 75/75/75 73/73/73 76/76/76
f 77/77/77 79/79/79 78/78/78
f 79/79/79 77/77/77 80/80/80
f 81/81/81 83/83/83 82/82/82
f 83/83/83 81/81/81 84/84/84
f 85/85/85 87/87/87 86/86/86
f 87/87/87 85/85/85 88/88/88
f 89/89/89 91/91/91 90/90/90
f 91/91/91 89/89/89 92/92/92
f 93/93/93 95/95/95 94/94/94
f 95/95/95 93/93/93 96/96/96
f 97/97/97 99/99/99 98/98/98
f 99/99/99 97/97/97 100/100/100
f 101/101/101 103/103/103 102/102/102
f 103/103/103 101/101/101 104/104/104
f 105/105/105 107/107/107 106/106/106
f 107/107/107 105/105/105 108/108/108
f 109/109/109 111/111/111 110/110/110
f 111/111/111 109/109/109 112/112/112
f 113/113/113 115/115/115 114/114/114
f 115/115/115 113/113/113 116/116/116
f 117/117/117 119/119/119 118/118/118
f 119/119/119 117/117/117 120/120/120
f 121/121/121 123/123/123 122/122/122
f 123/123/123 121/121/121 124/124/124
f 125/125/125 127/127/127 126/126/126
f 127/127/127 125/125/125 128/128/128
f 129/129/129 131/131/131 130/130/130
f 131/131/131 129/129/129 132/132/132
f 133/133/133 135/135/135 134/134/134
f 135/135/135 133/133/133 136/136/136
f 137/137/137 139/139/139 138/138/138
f 139/139/139 137/137/137 140/140/140
f 141/141/141 143/143/143 142/142/142
f 143/143/143 141/141/141 144/144/144
f 145/145/145 147/147/147 146/146/146
f 147/147/147 145/145/145 148/148/148
f 149/149/149 151/151/151 150/150/150
f 151/151/151 149/149/149 152/152/152
f 153/153/153 155/155/155 154/154/154
f 155/155/155 153/153/153 156/156/156
f 157/157/157 159/159/159 158/158/158
f 159/159/159 157/157/157 160/160/160
f 161/161/161 163/163/163 162/162/162
f 163/163/163 161/161/161 164/164/164
f 165/165/165 167/167/167 166/166/166
f 167/167/167 165/165/165 168/168/168
f 169/169/169 171/171/171 170/170/170
f 171/171/171 169/169/169 172/172/172
f 173/173/173 175/175/175 174/174/174
f 175/175/175 173/173/173 176/176/176
f 177/177/177 179/179/179 178/178/178
f 179/179/179 177/177/177 180/180/180
f 181/181/181 183/183/183 182/182/182
f 183/183/183 181/181/181 184/184/184
f 185/185/185 187/187/187 186/186/186
f 187/187/187 185/185/185 188/188/188
f 189/189/189 191/191/191 190/190/190
f 191/191/191 189/189/189 192/192/192
f 193/193/193 195/195/195 194/194/194
f 195/195/195 193/193/193 196/196/196
f 197/197/197 199/199/199 198/198/198
f 199/199/199 197/197/197 200/200/200
f 201/201/201 203/203/203 202/202/202
f 203/203/203 201/201/201 204/204/204
f 205/205/205 207/207/207 206/206/206
f 207/207/207 205/205/205 208/208/208
f 209/209/209 211/211/211 210/210/210
f 211/211/211 209/209/209 212/212/212
f 213/213/213 215/215/215 214/214/214
f 215/215/215 213/213/213 216/216/216
f 217/217/217 219/219/219 218/218/218
f 219/219/219 217/217/217 220/220/220
f 221/221/221 223/223/223 222/222/222
f 223/223/223 221/221/221 224/224/224
f 225/225/225 227/227/227 226/226/226
f 227/227/227 225/225/225 228/228/228
f 229/229/229 231/231/231 230/230/230
f 231/231/231 229/229/229 232/232/232
f 233/233/233 235/235/235 234/234/234
f 235/235/235 233/233/233 236/236/236
f 237/237/237 239/239/239 238/238/238
f 239/239/239 237/237/237 240/240/240

g tree_01
# texture: tree_01.jpg
v 25.8421 55.8837 2.0691
v -1.0346 164.4458 -8.5579
v 12.3843 141.572 7.3707
v 12.4348 47.226 -15.6908
v -11.8926 131.8127 2.7309
v -9.258801 28.1357 -9.2724
v -11.8926 123.8693 11.5493
v -9.258801 45.2854 9.6145
v -1.0346 159.6146 15.5657
v 12.4348 71.7409 17.6322
v 12.3843 141.572 7.3707
v 25.8421 55.8837 2.0691
v -10.5406 233.6583 -3.7922
v 8.2807 230.3724 -10.233
v 8.0245 237.7761 10.0556
v -9.5205 231.0113 4.8564
v 18.5038 226.9462 0.6413
v 18.5038 226.9462 0.6413
v -70.0616 339.6814 5.8368
v -60.8801 329.845 12.0794
v -74.1824 327.7407 7.8965
v -72.264 322.7628 16.2316
v -69.0196 336.9776 19.781
v -75.1916 404.9151 3.0589
v -75.1916 404.9151 9.5256
v -81.1014 401.5805 7.4068
v -62.6822 462.9393 -19.713
v -75.1916 404.9151 9.5256
v -75.1916 404.9151 3.0589
v -81.1014 401.5805 7.4068
v 30.1242 1.094 -3.5522
v 4.562 0.3923 -28.3188
v -13.3439 0.3923 -5.6154
v -12.9217 0.3923 22.2815
v 19.6303 0.3923 27.9169
v 30.1242 1.094 -3.5522
v 63.1012 277.78 -43.9298
v 134.5186 360.7477 -0.9764
v 129.9289 345.7323 2.8042
v 70.2083 299.9865 -48.7938
v 124.2929 358.7044 -4.3213
v 70.2083 299.9865 -48.7938
v 52.9298 292.5325 -52.7
v 124.2929 358.7044 -4.3213
v 118.1914 353.556 1.5734
v 58.4871 306.3544 -39.0172
v 58.4871 306.3544 -39.0172
v 126.7009 357.2767 10.4766
v 118.1914 353.556 1.5734
v 38.492 275.6601 -28.0365
v 140.1336 403.5609 37.2267
v 131.8446 400.1656 42.3167
v 133.3551 407.7293 36.6797
v 147.4563 442.8711 76.8461
v 15.6147 203.6729 3.4706
v 57.2621 269.461 -34.8671
v 38.492 275.6601 -28.0365
v 18.5038 226.9462 0.6413
v 31.4005 271.2714 -35.5232
v 8.2807 230.3724 -10.233
v 51.1836 283.4485 -52.8555
v 6.4368 207.6431 -14.6944
v 6.4368 207.6431 -14.6944
v 51.1836 283.4485 -52.8555
v 50.7141 264.059 -46.6136
v 21.7041 206.1633 -6.8468
v 57.2621 269.461 -34.8671
v 15.6147 203.6729 3.4706
v 63.1012 277.78 -43.9298
v 107.7024 288.4391 -99.6238
v 110.0484 303.9623 -104.0128
v 70.2083 299.9865 -48.7938
v 99.6787 302.3014 -100.9812
v 52.9298 292.5325 -52.7
v 95.2366 292.5728 -103.3691
v 73.6787 313.074 -68.9591
v 104.7158 291.1236 -111.7263
v 71.3358 290.5247 -62.8779
v 102.5019 343.4003 -154.5915
v 105.4286 349.1081 -151.2747
v 97.8265 349.2227 -153.1788
v 116.3502 401.3241 -186.834
v 52.9298 292.5325 -52.7
v 63.1012 277.78 -43.9298
v 31.4005 271.2714 -35.5232
v 31.4005 271.2714 -35.5232
v -70.2921 280.0002 55.0873
v -114.8942 308.3411 61.5707
v -122.5454 309.9083 68.6503
v -81.826 282.7861 65.145
v -120.2721 300.2627 68.0184
v -120.2721 300.2627 68.0184
v -76.1759 267.3354 61.9831
v -118.9698 296.9324 61.4443
v -88.3171 274.3751 57.3067
v -123.8494 306.3369 58.3337
v -78.7116 276.558 46.4518
v -78.7116 276.558 46.4518
v -123.8494 306.3369 58.3337
v -154.7558 305.8358 100.443
v -153.3745 307.0462 105.0754
v -122.5454 309.9083 68.6503
v -153.3745 307.0462 105.0754
v -156.0997 300.9106 103.4461
v -154.7558 305.8358 100.443
v -118.9698 296.9324 61.4443
v -195.2531 346.358 117.2671
v -195.2531 346.358 117.2671
v -41.1747 272.9419 19.8389
v -68.0877 278.0325 45.7189
v -56.0793 263.3576 16.306
v -70.7339 258.4474 39.5963
v -45.8853 237.9883 12.5649
v -70.8328 266.6627 59.5799
v -36.3035 234.6662 16.0239
v -61.4061 269.7853 50.8084
v -36.2287 255.7859 26.7342
v -87.5321 319.3287 135.209
v -78.1324 317.9331 130.6642
v -85.7158 309.6381 133.9146
v -78.9753 306.8419 135.2242
v -83.4907 279.3354 82.5013
v -78.2194 316.7997 140.2835
v -72.1621 281.0841 72.6678
v -85.8013 307.7126 170.2733
v -81.9203 307.0189 173.2695
v -84.9883 301.9243 173.7732
v -96.7958 321.2411 203.0531
v 21.7041 206.1633 -6.8468
v 6.4368 207.6431 -14.6944
v 21.7041 206.1633 -6.8468
v 15.6147 203.6729 3.4706
v -36.3035 234.6662 16.0239
v -45.8853 237.9883 12.5649
v -36.2287 255.7859 26.7342
v -56.0793 263.3576 16.306
v -41.1747 272.9419 19.8389
v 103.9194 332.886 -6.4791
v 102.1782 333.8874 -13.3477
v 153.5946 373.6903 -19.7154
v 154.8037 372.9948 -14.9455
v 218.8218 387.4792 8.9573
v 102.1782 333.8874 -13.3477
v 100.7969 336.5358 -9.2696
v 152.6353 375.5294 -16.8834
v 153.5946 373.6903 -19.7154
v 218.8218 387.4792 8.9573
v 100.7969 336.5358 -9.2696
v 103.9194 332.886 -6.4791
v 154.8037 372.9948 -14.9455
v 152.6353 375.5294 -16.8834
v 218.8218 387.4792 8.9573
v 145.8564 365.3227 -12.8413
v 148.6467 367.3255 -16.5854
v 167.2598 411.3032 18.9161
v 148.6467 367.3255 -16.5854
v 145.4739 367.9856 -15.6441
v 167.2598 411.3032 18.9161
v 145.4739 367.9856 -15.6441
v 145.8564 365.3227 -12.8413
v 167.2598 411.3032 18.9161
v 136.6239 359.7321 -14.0675
v 133.2713 356.7888 -15.8759
v 151.9911 389.7939 -54.8131
v 133.2713 356.7888 -15.8759
v 133.5342 360.5339 -14.6104
v 151.9911 389.7939 -54.8131
v 133.5342 360.5339 -14.6104
v 136.6239 359.7321 -14.0675
v 151.9911 389.7939 -54.8131
v 60.8601 286.4567 -55.6557
v 50.9692 287.8987 -53.1484
v 41.7997 345.2148 -127.1879
v 48.6684 344.2134 -128.9291
v 52.1955 365.071 -193.7888
v 50.9692 287.8987 -53.1484
v 56.8417 291.7124 -51.1592
v 45.8778 347.8632 -125.8065
v 41.7997 345.2148 -127.1879
v 52.1955 365.071 -193.7888
v 56.8417 291.7124 -51.1592
v 60.8601 286.4567 -55.6557
v 48.6684 344.2134 -128.9291
v 45.8778 347.8632 -125.8065
v 52.1955 365.071 -193.7888
v 51.6985 333.1655 -116.045
v 46.3069 336.0495 -120.063
v 86.7684 376.6963 -146.8658
v 46.3069 336.0495 -120.063
v 47.6625 337.0001 -115.4941
v 86.7684 376.6963 -146.8658
v 47.6625 337.0001 -115.4941
v 51.6985 333.1655 -116.045
v 86.7684 376.6963 -146.8658
v 49.9328 325.115 -102.7501
v 47.3287 320.8766 -97.9223
v -0.7375 341.06 -150.4464
v 47.3287 320.8766 -97.9223
v 49.151 326.2697 -98.301
v -0.7375 341.06 -150.4464
v 49.151 326.2697 -98.301
v 49.9328 325.115 -102.7501
v -0.7375 341.06 -150.4464
v -43.9712 262.6127 2.2794
v -52.8761 264.0547 7.2613
v -80.896 321.3708 -61.8822
v -74.712 320.3694 -65.3418
v -153.5308 341.227 -92.5468
v -52.8761 264.0547 7.2613
v -46.6889 267.8684 7.6627
v -76.5993 324.0192 -61.6034
v -80.896 321.3708 -61.8822
v -153.5308 341.227 -92.5468
v -46.6889 267.8684 7.6627
v -43.9712 262.6127 2.2794
v -74.712 320.3694 -65.3418
v -76.5993 324.0192 -61.6034
v -153.5308 341.227 -92.5468
v -68.4505 309.3215 -53.6809
v -74.6983 312.2055 -56.1666
v -32.2551 375.5334 -95.2875
v -74.6983 312.2055 -56.1666
v -72.2064 313.1561 -52.1042
v -32.2551 375.5334 -95.2875
v -72.2064 313.1561 -52.1042
v -68.4505 309.3215 -53.6809
v -32.2551 375.5334 -95.2875
v -66.7151 301.271 -40.3821
v -67.9809 297.0326 -35.0448
v -111.6951 344.56 -21.4044
v -67.9809 297.0326 -35.0448
v -66.3187 302.4257 -35.8822
v -111.6951 344.56 -21.4044
v -66.3187 302.4257 -35.8822
v -66.7151 301.271 -40.3821
v -111.6951 344.56 -21.4044
v -79.8261 352.9676 10.0371
v -77.7774 353.8468 15.9119
v -122.2643 388.7957 25.4165
v -123.687 388.1851 21.3368
v -145.06 400.9031 51.3227
v -77.7774 353.8468 15.9119
v -76.8812 356.1723 12.239
v -121.642 390.4106 22.8659
v -122.2643 388.7957 25.4165
v -145.06 400.9031 51.3227
v -76.8812 356.1723 12.239
v -79.8261 352.9676 10.0371
v -123.687 388.1851 21.3368
v -121.642 390.4106 22.8659
v -145.06 400.9031 51.3227
v -116.0218 381.4486 18.8115
v -118.176 383.2071 22.3001
v -137.1738 421.8217 -7.329
v -118.176 383.2071 22.3001
v -115.4727 383.7867 21.2338
v -137.1738 421.8217 -7.329
v -115.4727 383.7867 21.2338
v -116.0218 381.4486 18.8115
v -137.1738 421.8217 -7.329
v -107.8522 376.5397 19.1775
v -104.7812 373.9553 20.5028
v -118.1759 402.9354 55.994
v -104.7812 373.9553 20.5028
v -105.1081 377.2438 19.4159
v -118.1759 402.9354 55.994
v -105.1081 377.2438 19.4159
v -107.8522 376.5397 19.1775
v -118.1759 402.9354 55.994
v -77.9274 266.7072 48.2078
v -68.7389 268.1492 52.6448
v -109.3063 325.4653 115.2564
v -115.6872 324.4639 112.1751
v -155.7382 345.3215 172.4091
v -68.7389 268.1492 52.6448
v -71.9589 271.9629 47.3462
v -111.5424 328.1137 111.5768
v -109.3063 325.4653 115.2564
v -155.7382 345.3215 172.4091
v -71.9589 271.9629 47.3462
v -77.9274 266.7072 48.2078
v -115.6872 324.4639 112.1751
v -111.5424 328.1137 111.5768
v -155.7382 345.3215 172.4091
v -109.7267 313.4161 100.3576
v -108.1793 316.3 106.9012
v -164.5696 379.6279 94.5726
v -108.1793 316.3 106.9012
v -106.2809 317.2506 102.5299
v -164.5696 379.6279 94.5726
v -106.2809 317.2506 102.5299
v -109.7267 313.4161 100.3576
v -164.5696 379.6279 94.5726
v -99.8283 305.3654 91.3081
v -94.7302 301.1271 89.2837
v -69.1057 348.6544 145.9745
v -94.7302 301.1271 89.2837
v -96.3696 306.5202 88.4024
v -69.1057 348.6544 145.9745
v -96.3696 306.5202 88.4024
v -99.8283 305.3654 91.3081
v -69.1057 348.6544 145.9745
v 5.0428 210.6723 3.2842
v 10.568 212.1642 -0.0756
v 7.8432 280.0679 72.8829
v 1.1525 279.0665 75.2162
v 44.0629 299.9241 154.6933
v 10.568 212.1642 -0.0756
v 8.6539 215.9281 -1.5454
v 3.6602 282.7163 71.8623
v 7.8432 280.0679 72.8829
v 44.0629 299.9241 154.6933
v 8.6539 215.9281 -1.5454
v 5.0428 210.6723 3.2842
v 1.1525 279.0665 75.2162
v 3.6602 282.7163 71.8623
v 44.0629 299.9241 154.6933
v -2.9891 268.0187 62.6452
v 2.7322 270.9026 66.178
v -15.971 316.2817 127.3547
v 2.7322 270.9026 66.178
v 0.9835 271.8532 61.7446
v -15.971 316.2817 127.3547
v 0.9835 271.8532 61.7446
v -2.9891 268.0187 62.6452
v -15.971 316.2817 127.3547
v -2.3888 259.9681 49.247
v -0.2154 255.7298 44.2106
v 57.9903 303.2571 66.1779
v -0.2154 255.7298 44.2106
v -1.9978 261.1228 44.7467
v 57.9903 303.2571 66.1779
v -1.9978 261.1228 44.7467
v -2.3888 259.9681 49.247
v 57.9903 303.2571 66.1779
vn 0.988168 0.141195 -0.059898
vn -0.0056 -0.015399 -0.999866
vn 0.983978 0.030299 0.175696
vn 0.148204 0.152504 -0.977127
vn -0.898196 0.0093 -0.439498
vn -0.879071 0.096197 -0.466884
vn -0.847363 0.025999 0.530377
vn -0.844765 0.078297 0.529378
vn 0.112603 0.037701 0.992925
vn 0.241688 0.150892 0.95855
vn 0.983978 0.030299 0.175696
vn 0.988168 0.141195 -0.059898
vn -0.800492 -0.244298 -0.547295
vn -0.565208 0.221303 -0.794711
vn 0.343813 0.098704 0.933836
vn -0.837772 -0.538282 0.091597
vn 0.580521 0.677124 0.452216
vn 0.580521 0.677124 0.452216
vn 0.188495 0.228694 -0.955075
vn 0.908174 0.417688 0.027499
vn -0.691525 -0.211408 -0.690725
vn -0.952905 -0.266901 0.144001
vn 0.087301 0.153302 0.984316
vn 0.507209 -0.108902 -0.854915
vn 0.328688 0.220792 0.918267
vn -0.971826 0.029801 -0.233806
vn -0.258193 0.261693 -0.929975
vn 0.328688 0.220792 0.918267
vn 0.507209 -0.108902 -0.854915
vn -0.971826 0.029801 -0.233806
vn 0.914268 0.092597 -0.394386
vn -0.263986 0.18279 -0.947048
vn -0.96396 0.086796 -0.25149
vn -0.697794 0.186498 0.691594
vn 0.650813 0.132903 0.747515
vn 0.914268 0.092597 -0.394386
vn 0.871288 -0.469294 0.143598
vn 0.688194 0.149799 -0.709894
vn 0.572576 -0.636473 0.516778
vn 0.3298 0.7738 -0.5408
vn -0.294011 0.698125 -0.652824
vn 0.3298 0.7738 -0.5408
vn -0.541114 0.660817 -0.520113
vn -0.294011 0.698125 -0.652824
vn -0.86249 0.505294 0.0281
vn -0.7126 0.6993 0.0564
vn -0.7126 0.6993 0.0564
vn -0.527703 -0.122801 0.840505
vn -0.86249 0.505294 0.0281
vn 0.0057 0.245589 0.969357
vn 0.997531 -0.065402 -0.025601
vn -0.405498 -0.460897 0.789396
vn -0.430387 0.68418 -0.588783
vn 0.1756 0.959702 -0.219401
vn 0.830667 -0.036399 0.555578
vn 0.882898 -0.302199 0.359399
vn 0.0057 0.245589 0.969357
vn 0.580521 0.677124 0.452216
vn -0.859698 0.503799 -0.0843
vn -0.565208 0.221303 -0.794711
vn -0.589523 -0.044402 -0.806531
vn -0.356202 -0.222201 -0.907605
vn -0.356202 -0.222201 -0.907605
vn -0.589523 -0.044402 -0.806531
vn 0.183207 -0.562521 -0.80623
vn 0.82959 -0.424195 -0.363096
vn 0.882898 -0.302199 0.359399
vn 0.830667 -0.036399 0.555578
vn 0.871288 -0.469294 0.143598
vn 0.758304 -0.579803 -0.298001
vn 0.59119 0.561691 0.57879
vn 0.3298 0.7738 -0.5408
vn -0.509418 0.85903 0.050602
vn -0.541114 0.660817 -0.520113
vn -0.850702 -0.522201 -0.0601
vn -0.422796 -0.516695 -0.744493
vn -0.087597 -0.922067 -0.376987
vn -0.158501 -0.768504 -0.619903
vn 0.242099 -0.577597 -0.779596
vn 0.952686 0.182197 0.243297
vn -0.775718 0.512312 0.368509
vn 0.58809 -0.189897 -0.786187
vn -0.541114 0.660817 -0.520113
vn 0.871288 -0.469294 0.143598
vn -0.859698 0.503799 -0.0843
vn -0.859698 0.503799 -0.0843
vn 0.437703 0.889407 -0.131801
vn -0.0011 0.875681 -0.482889
vn 0.589782 0.187994 0.785376
vn -0.581278 0.300788 0.756071
vn 0.163402 -0.433506 0.886212
vn 0.163402 -0.433506 0.886212
vn -0.450081 -0.775767 0.442281
vn -0.570803 -0.796004 -0.201401
vn -0.666489 -0.64619 -0.371794
vn -0.521515 -0.0142 -0.853124
vn -0.383099 0.529899 -0.756599
vn -0.383099 0.529899 -0.756599
vn -0.521515 -0.0142 -0.853124
vn -0.521213 0.465312 -0.715418
vn 0.578377 0.620675 0.529379
vn 0.589782 0.187994 0.785376
vn 0.578377 0.620675 0.529379
vn 0.229703 -0.793109 0.564106
vn -0.521213 0.465312 -0.715418
vn -0.570803 -0.796004 -0.201401
vn 0.0327 0.76069 -0.648291
vn 0.0327 0.76069 -0.648291
vn 0.2047 0.719999 0.663099
vn 0.504405 0.860009 0.077201
vn -0.990586 -0.0156 -0.135998
vn -0.705989 -0.68309 -0.186997
vn -0.603393 -0.695292 -0.390495
vn 0.167299 -0.805495 0.568497
vn 0.180298 -0.75969 0.624792
vn 0.797703 -0.0372 0.601902
vn 0.587781 0.178094 0.789174
vn -0.796801 0.580301 -0.1684
vn 0.355402 0.931905 0.0724
vn -0.828199 -0.555299 0.0757
vn 0.82213 -0.56702 -0.050902
vn 0.789614 -0.444208 0.423308
vn 0.974597 -0.1058 0.1974
vn 0.965581 0.0229 0.259095
vn -0.483096 0.875094 0.0288
vn 0.799402 0.526501 0.289401
vn -0.570106 -0.817908 0.077501
vn 0.485706 0.821211 0.299504
vn 0.82959 -0.424195 -0.363096
vn -0.356202 -0.222201 -0.907605
vn 0.82959 -0.424195 -0.363096
vn 0.830667 -0.036399 0.555578
vn 0.180298 -0.75969 0.624792
vn -0.603393 -0.695292 -0.390495
vn 0.587781 0.178094 0.789174
vn -0.990586 -0.0156 -0.135998
vn 0.2047 0.719999 0.663099
vn 0.571122 -0.77913 -0.25841
vn 0.571122 -0.77913 -0.25841
vn 0.482978 -0.840662 -0.244989
vn 0.436101 -0.868101 -0.2371
vn 0.289604 -0.933914 -0.209603
vn -0.54269 0.608489 -0.578989
vn -0.54269 0.608489 -0.578989
vn -0.3607 0.7217 -0.5908
vn -0.2579 0.768099 -0.586099
vn 0.054497 0.845759 -0.530774
vn -0.223304 0.464208 0.857115
vn -0.223304 0.464208 0.857115
vn -0.2818 0.4189 0.863199
vn -0.310688 0.395185 0.864466
vn -0.394202 0.321101 0.861104
vn 0.779993 -0.558295 0.282697
vn 0.779993 -0.558295 0.282697
vn 0.779993 -0.558295 0.282697
vn -0.0895 0.648303 -0.756104
vn -0.0895 0.648303 -0.756104
vn -0.0895 0.648303 -0.756104
vn -0.92359 0.206998 0.322697
vn -0.92359 0.206998 0.322697
vn -0.92359 0.206998 0.322697
vn 0.708684 -0.668385 -0.225895
vn 0.708684 -0.668385 -0.225895
vn 0.708684 -0.668385 -0.225895
vn -0.936609 0.169402 -0.306703
vn -0.936609 0.169402 -0.306703
vn -0.936609 0.169402 -0.306703
vn 0.095401 0.783512 0.614009
vn 0.095401 0.783512 0.614009
vn 0.095401 0.783512 0.614009
vn -0.25841 -0.77913 -0.571122
vn -0.25841 -0.77913 -0.571122
vn -0.245995 -0.836884 -0.488991
vn -0.238715 -0.862855 -0.445529
vn -0.213593 -0.92657 -0.30959
vn -0.578989 0.608489 0.54269
vn -0.578989 0.608489 0.54269
vn -0.589998 0.688897 0.421098
vn -0.590789 0.724386 0.355293
vn -0.573776 0.805067 0.150494
vn 0.857115 0.464208 0.223304
vn 0.857115 0.464208 0.223304
vn 0.855974 0.469786 0.215893
vn 0.855403 0.472501 0.212201
vn 0.853555 0.480674 0.200989
vn 0.185691 -0.663067 -0.725163
vn 0.185691 -0.663067 -0.725163
vn 0.185691 -0.663067 -0.725163
vn -0.689524 0.722225 0.054302
vn -0.689524 0.722225 0.054302
vn -0.689524 0.722225 0.054302
vn 0.398202 0.294302 0.868805
vn 0.398202 0.294302 0.868805
vn 0.398202 0.294302 0.868805
vn 0.268486 -0.79106 -0.549672
vn 0.268486 -0.79106 -0.549672
vn 0.268486 -0.79106 -0.549672
vn -0.65594 0.271116 0.704443
vn -0.65594 0.271116 0.704443
vn -0.65594 0.271116 0.704443
vn 0.427192 0.890584 -0.156097
vn 0.427192 0.890584 -0.156097
vn 0.427192 0.890584 -0.156097
vn -0.397409 -0.779118 -0.484811
vn -0.397409 -0.779118 -0.484811
vn -0.345894 -0.862885 -0.368493
vn -0.316396 -0.89809 -0.305497
vn -0.218597 -0.969584 -0.110098
vn -0.418784 0.608477 0.674074
vn -0.418784 0.608477 0.674074
vn -0.377485 0.532678 0.757469
vn -0.354397 0.491196 0.795694
vn -0.278398 0.357897 0.891294
vn 0.885708 0.464204 -0.0061
vn 0.885708 0.464204 -0.0061
vn 0.773472 0.602278 -0.197493
vn 0.6904 0.6601 -0.296
vn 0.38428 0.750061 -0.538272
vn 0.071099 -0.558294 -0.826591
vn 0.071099 -0.558294 -0.826591
vn 0.071099 -0.558294 -0.826591
vn -0.707198 0.648298 0.282099
vn -0.707198 0.648298 0.282099
vn -0.707198 0.648298 0.282099
vn 0.550783 0.206993 0.808574
vn 0.550783 0.206993 0.808574
vn 0.550783 0.206993 0.808574
vn -0.689719 -0.478413 -0.543515
vn -0.689719 -0.478413 -0.543515
vn -0.689719 -0.478413 -0.543515
vn 0.338603 0.0416 0.940009
vn 0.338603 0.0416 0.940009
vn 0.338603 0.0416 0.940009
vn 0.616086 0.748183 -0.246294
vn 0.616086 0.748183 -0.246294
vn 0.616086 0.748183 -0.246294
vn -0.546492 -0.779088 0.307195
vn -0.546492 -0.779088 0.307195
vn -0.451908 -0.845615 0.284105
vn -0.401492 -0.874883 0.270895
vn -0.243889 -0.943057 0.22619
vn 0.591088 0.608487 0.529489
vn 0.591088 0.608487 0.529489
vn 0.653783 0.556985 0.512187
vn 0.683691 0.529593 0.502093
vn 0.765655 0.442432 0.466934
vn 0.147802 0.464205 -0.873309
vn 0.147802 0.464205 -0.873309
vn -0.025501 0.581929 -0.81284
vn -0.116701 0.633003 -0.765303
vn -0.36831 0.73212 -0.573016
vn -0.801681 -0.558287 -0.213595
vn -0.801681 -0.558287 -0.213595
vn -0.801681 -0.558287 -0.213595
vn 0.154993 0.648271 0.745467
vn 0.154993 0.648271 0.745467
vn 0.154993 0.648271 0.745467
vn 0.891927 0.207006 -0.402012
vn 0.891927 0.207006 -0.402012
vn 0.891927 0.207006 -0.402012
vn -0.686293 -0.668393 0.286797
vn -0.686293 -0.668393 0.286797
vn -0.686293 -0.668393 0.286797
vn 0.959779 0.169396 0.223895
vn 0.959779 0.169396 0.223895
vn 0.959779 0.169396 0.223895
vn -0.148597 0.783482 -0.603386
vn -0.148597 0.783482 -0.603386
vn -0.148597 0.783482 -0.603386
vn -0.169204 -0.779116 0.603613
vn -0.169204 -0.779116 0.603613
vn -0.117002 -0.847518 0.517711
vn -0.0898 -0.877498 0.471099
vn -0.0074 -0.946434 0.322812
vn 0.792372 0.608478 -0.043598
vn 0.792372 0.608478 -0.043598
vn 0.735277 0.676579 0.040099
vn 0.701991 0.707391 0.082499
vn 0.587908 0.78231 0.205803
vn -0.513017 0.464215 -0.722024
vn -0.513017 0.464215 -0.722024
vn -0.538275 0.500077 -0.678368
vn -0.5502 0.5173 -0.6555
vn -0.582595 0.565995 -0.583295
vn -0.717911 -0.558309 0.415807
vn -0.717911 -0.558309 0.415807
vn -0.717911 -0.558309 0.415807
vn 0.636704 0.648305 0.417503
vn 0.636704 0.648305 0.417503
vn 0.636704 0.648305 0.417503
vn 0.34642 0.207012 -0.914953
vn 0.34642 0.207012 -0.914953
vn 0.34642 0.207012 -0.914953
vn -0.282494 -0.668385 0.688084
vn -0.282494 -0.668385 0.688084
vn -0.282494 -0.668385 0.688084
vn 0.83701 0.169402 -0.520306
vn 0.83701 0.169402 -0.520306
vn 0.83701 0.169402 -0.520306
vn -0.531699 0.783499 -0.321599
vn -0.531699 0.783499 -0.321599
vn -0.531699 0.783499 -0.321599
vn 0.430313 -0.647819 0.628619
vn 0.524623 -0.613326 0.590425
vn 0.368504 -0.790309 0.489506
vn 0.276794 -0.86248 0.42369
vn 0.196703 -0.969213 0.148102
vn 0.744904 0.510703 -0.429302
vn 0.89778 0.354492 -0.261394
vn 0.686524 0.586321 -0.430015
vn 0.547895 0.674894 -0.494296
vn 0.55639 0.716787 -0.420293
vn -0.891472 0.303291 -0.33659
vn -0.891472 0.303291 -0.33659
vn -0.877055 0.451277 -0.164692
vn -0.850997 0.520498 -0.0699
vn -0.708412 0.675311 0.205203
vn 0.0309 -0.7982 0.6016
vn 0.0309 -0.7982 0.6016
vn 0.0309 -0.7982 0.6016
vn 0.792435 0.580226 -0.188108
vn 0.792435 0.580226 -0.188108
vn 0.792435 0.580226 -0.188108
vn -0.646275 0.543879 -0.535279
vn -0.646275 0.543879 -0.535279
vn -0.646275 0.543879 -0.535279
vn 0.286797 -0.668393 0.686293
vn 0.286797 -0.668393 0.686293
vn 0.286797 -0.668393 0.686293
vn 0.223895 0.169396 -0.959779
vn 0.223895 0.169396 -0.959779
vn 0.223895 0.169396 -0.959779
vn -0.603386 0.783482 0.148597
vn -0.603386 0.783482 0.148597
vn -0.603386 0.783482 0.148597
vt -0.1697 -0.8105
vt 0.0643 -0.1225
vt -0.4311 -0.2207
vt 0.0047 -0.8445
vt 0.2732 -0.2507
vt 0.1431 -0.9195
vt 0.3498 -0.2819
vt 0.2512 -0.8522
vt 0.46 -0.1415
vt 0.4856 -0.7483
vt 0.5689 -0.2207
vt 0.8303 -0.8105
vt 0.1206 0.5199
vt 0.0117 0.4491
vt -0.0146 0.4875
vt 0.1648 0.5034
vt 0.9356 0.4023
vt -0.0644 0.4023
vt 0.1076 1.3145
vt 0.1043 1.238
vt 0.1775 1.2655
vt 0.253 1.2347
vt 0.3209 1.2977
vt -0.1123 1.6612
vt -0.1659 1.6612
vt -0.0716 1.6612
vt 0.8493 2.0285
vt 0.8341 1.6612
vt 0.8877 1.6612
vt 0.9284 1.6612
vt -0.192 -1.0285
vt -0.0041 -1.0285
vt 0.1446 -1.0285
vt 0.2945 -1.0285
vt 0.5064 -1.0285
vt 0.808 -1.0285
vt 0.8706 -0.4271
vt 0.7908 0.8243
vt 0.762 0.7139
vt 0.9568 -0.2591
vt 0.7918 0.7815
vt -0.0432 -0.2591
vt 0.0021 -0.3557
vt -0.2082 0.7815
vt -0.2799 0.7719
vt -0.0472 -0.1433
vt 0.9528 -0.1433
vt 0.7096 0.8648
vt 0.7201 0.7719
vt 0.7434 -0.3512
vt 0.6023 1.4518
vt 0.5918 1.4519
vt 0.5658 1.4832
vt 0.4917 2.305
vt -0.3701 -0.3687
vt -0.2199 0.1451
vt 0.0852 0.102
vt 0.2212 -0.3032
vt 0.026 0.0745
vt 0.0334 -0.289
vt -0.052 0.2488
vt -0.1817 -0.3423
vt 0.8183 -0.3423
vt 0.948 0.2488
vt 0.8803 0.1246
vt 0.6727 -0.3092
vt 0.7801 0.1451
vt 0.6299 -0.3687
vt 0.8146 0.2326
vt 0.8185 0.7103
vt 0.8362 0.8144
vt 0.8662 0.3899
vt 0.8662 0.7645
vt 0.9774 0.304
vt 0.8685 0.703
vt 0.9291 0.5247
vt 0.8485 0.7466
vt 0.861 0.3775
vt 0.9295 1.1371
vt 0.9319 1.1693
vt 0.9435 1.1506
vt 0.9606 1.5825
vt -0.0226 0.304
vt -0.1854 0.2326
vt 0.771 -0.4405
vt -0.229 -0.4405
vt 0.6166 0.2012
vt 0.8903 0.5911
vt 0.9084 0.7183
vt 0.7045 0.387
vt 0.9341 0.6625
vt -0.0659 0.6625
vt 0.3594 0.2623
vt -0.0627 0.563
vt 0.01 0.2868
vt -0.0841 0.5835
vt -0.2066 0.1194
vt 0.7934 0.1194
vt 0.9159 0.5835
vt 0.9918 1.236
vt 0.9927 1.2914
vt -0.0916 0.7183
vt -0.0073 1.2914
vt 0.0086 1.2595
vt -0.0082 1.236
vt 0.9373 0.563
vt 0.9696 1.8722
vt -0.0304 1.8722
vt 0.5353 -0.9819
vt 0.6453 0.0688
vt 0.4745 -0.9963
vt 0.3291 -0.0714
vt 0.3785 -1.1873
vt 0.414 0.2064
vt 0.3965 -1.2007
vt 0.5152 0.069
vt 0.4563 -0.9868
vt 0.5814 1.4153
vt 0.5706 1.3121
vt 0.5233 1.3533
vt 0.5058 1.3283
vt 0.3912 0.5938
vt 0.5423 1.4261
vt 0.5251 0.4295
vt 0.3929 2.1562
vt 0.3991 2.1729
vt 0.3809 2.1728
vt 0.3907 2.6605
vt -0.1266 0.2347
vt -0.0275 0.2982
vt 0.8734 0.2347
vt 0.8528 0.2395
vt 0.2511 0.683
vt 0.2263 0.7274
vt 0.4122 0.7903
vt 0.2527 0.8858
vt 0.3547 0.8918
vt 1.1403 0.2335
vt 1.1529 0.2925
vt 1.6225 0.1573
vt 1.6138 0.1163
vt 2.2111 0.1011
vt 1.1529 0.2925
vt 1.1246 0.2662
vt 1.6029 0.1389
vt 1.6225 0.1573
vt 2.2111 0.1011
vt 1.1246 0.2662
vt 1.1403 0.2335
vt 1.6138 0.1163
vt 1.6029 0.1389
vt 2.2111 0.1011
vt 1.528 0.1322
vt 1.5672 0.1509
vt 1.585 -0.1885
vt 1.5672 0.1509
vt 1.536 0.1551
vt 1.585 -0.1885
vt 1.536 0.1551
vt 1.528 0.1322
vt 1.585 -0.1885
vt 1.4533 0.1747
vt 1.4316 0.2006
vt 1.75 0.4327
vt 1.4316 0.2006
vt 1.4288 0.1899
vt 1.75 0.4327
vt 1.4288 0.1899
vt 1.4533 0.1747
vt 1.75 0.4327
vt 0.9665 0.7656
vt 0.871 0.7818
vt 1.0899 1.3835
vt 1.1563 1.3723
vt 1.1808 2.1377
vt 0.871 0.7818
vt 0.9137 0.7455
vt 1.1196 1.3583
vt 1.0899 1.3835
vt 1.1808 2.1377
vt 0.9137 0.7455
vt 0.9665 0.7656
vt 1.1563 1.3723
vt 1.1196 1.3583
vt 1.1808 2.1377
vt 1.1306 1.2624
vt 1.1002 1.3126
vt 1.6495 1.3354
vt 1.1002 1.3126
vt 1.0935 1.2727
vt 1.6495 1.3354
vt 1.0935 1.2727
vt 1.1306 1.2624
vt 1.6495 1.3354
vt 1.0618 1.1666
vt 1.0199 1.1389
vt 0.6442 1.5469
vt 1.0199 1.1389
vt 1.0371 1.1352
vt 0.6442 1.5469
vt 1.0371 1.1352
vt 1.0618 1.1666
vt 0.6442 1.5469
vt -0.006 0.6272
vt -0.103 0.6209
vt -0.0665 1.2525
vt 0.0008 1.2569
vt -0.1981 2.0019
vt -0.103 0.6209
vt -0.0512 0.5956
vt -0.0305 1.235
vt -0.0665 1.2525
vt -0.1981 2.0019
vt -0.0512 0.5956
vt -0.006 0.6272
vt 0.0008 1.2569
vt -0.0305 1.235
vt -0.1981 2.0019
vt 0.0079 1.1449
vt -0.036 1.1864
vt 0.488 1.3349
vt -0.036 1.1864
vt -0.0309 1.1462
vt 0.488 1.3349
vt -0.0309 1.1462
vt 0.0079 1.1449
vt 0.488 1.3349
vt -0.0306 1.0365
vt -0.0631 1
vt -0.5446 1.3076
vt -0.0631 1
vt -0.0453 1.0005
vt -0.5446 1.3076
vt -0.0453 1.0005
vt -0.0306 1.0365
vt -0.5446 1.3076
vt -0.3469 0.6961
vt -0.3528 0.6436
vt -0.7752 0.73
vt -0.7711 0.7664
vt -1.2949 0.739
vt -0.3528 0.6436
vt -0.3303 0.6686
vt -0.7596 0.7473
vt -0.7752 0.73
vt -1.2949 0.739
vt -0.3303 0.6686
vt -0.3469 0.6961
vt -0.7711 0.7664
vt -0.7596 0.7473
vt -1.2949 0.739
vt -0.6947 0.7584
vt -0.7274 0.7393
vt -0.7721 1.035
vt -0.7274 0.7393
vt -0.6998 0.7378
vt -0.7721 1.035
vt -0.6998 0.7378
vt -0.6947 0.7584
vt -0.7721 1.035
vt -0.6257 0.7263
vt -0.6045 0.7051
vt -0.8631 0.4804
vt -0.6045 0.7051
vt -0.6029 0.7146
vt -0.8631 0.4804
vt -0.6029 0.7146
vt -0.6257 0.7263
vt -0.8631 0.4804
vt -0.4842 0.396
vt -0.4227 0.329
vt -1.0251 -0.0067
vt -1.0678 0.0398
vt -1.6395 -0.5324
vt -0.4227 0.329
vt -0.4292 0.3813
vt -1.0296 0.0296
vt -1.0251 -0.0067
vt -1.6395 -0.5324
vt -0.4292 0.3813
vt -0.4842 0.396
vt -1.0678 0.0398
vt -1.0296 0.0296
vt -1.6395 -0.5324
vt -0.9687 0.1093
vt -0.9817 0.0535
vt -1.419 0.3502
vt -0.9817 0.0535
vt -0.9477 0.0802
vt -1.419 0.3502
vt -0.9477 0.0802
vt -0.9687 0.1093
vt -1.419 0.3502
vt -0.8468 0.1433
vt -0.7946 0.1406
vt -0.8016 -0.3867
vt -0.7946 0.1406
vt -0.8053 0.1533
vt -0.8016 -0.3867
vt -0.8053 0.1533
vt -0.8468 0.1433
vt -0.8016 -0.3867
vt 0.2472 0.5128
vt 0.3439 0.5041
vt 0.1848 -0.1123
vt 0.1176 -0.1063
vt 0.1681 -0.8707
vt 0.3439 0.5041
vt 0.2978 0.5369
vt 0.1528 -0.0895
vt 0.1848 -0.1123
vt 0.1681 -0.8707
vt 0.2978 0.5369
vt 0.2472 0.5128
vt 0.1176 -0.1063
vt 0.1528 -0.0895
vt 0.1681 -0.8707
vt 0.1325 0.0051
vt 0.1676 -0.0425
vt -0.3774 -0.1078
vt 0.1676 -0.0425
vt 0.1704 -0.0022
vt -0.3774 -0.1078
vt 0.1704 -0.0022
vt 0.1325 0.0051
vt -0.3774 -0.1078
vt 0.1916 0.1059
vt 0.2306 0.1368
vt 0.6448 -0.2405
vt 0.2306 0.1368
vt 0.2131 0.1391
vt 0.6448 -0.2405
vt 0.2131 0.1391
vt 0.1916 0.1059
vt 0.6448 -0.2405
f 241/241/241 243/243/243 242/242/242
f 241/241/241 242/242/242 244/244/244
f 244/244/244 242/242/242 245/245/245
f 244/244/244 245/245/245 246/246/246
f 246/246/246 245/245/245 247/247/247
f 246/246/246 247/247/247 248/248/248
f 248/248/248 247/247/247 249/249/249
f 248/248/248 249/249/249 250/250/250
f 250/250/250 249/249/249 251/251/251
f 250/250/250 251/251/251 252/252/252
f 242/242/242 254/254/254 253/253/253
f 242/242/242 253/253/253 245/245/245
f 247/247/247 256/256/256 255/255/255
f 247/247/247 255/255/255 249/249/249
f 249/249/249 255/255/255 257/257/257
f 249/249/249 257/257/257 251/251/251
f 258/258/258 260/260/260 259/259/259
f 258/258/258 259/259/259 254/254/254
f 254/254/254 259/259/259 261/261/261
f 254/254/254 261/261/261 253/253/253
f 253/253/253 261/261/261 262/262/262
f 253/253/253 262/262/262 256/256/256
f 255/255/255 263/263/263 260/260/260
f 255/255/255 260/260/260 258/258/258
f 260/260/260 265/265/265 264/264/264
f 260/260/260 264/264/264 259/259/259
f 259/259/259 264/264/264 266/266/266
f 259/259/259 266/266/266 261/261/261
f 261/261/261 266/266/266 262/262/262
f 262/262/262 266/266/266 265/265/265
f 262/262/262 265/265/265 263/263/263
f 263/263/263 265/265/265 260/260/260
f 267/267/267 269/269/269 268/268/268
f 267/267/267 270/270/270 269/269/269
f 267/267/267 268/268/268 270/270/270
f 244/244/244 271/271/271 241/241/241
f 271/271/271 244/244/244 272/272/272
f 246/246/246 272/272/272 244/244/244
f 272/272/272 246/246/246 273/273/273
f 248/248/248 273/273/273 246/246/246
f 273/273/273 248/248/248 274/274/274
f 250/250/250 274/274/274 248/248/248
f 274/274/274 250/250/250 275/275/275
f 252/252/252 275/275/275 250/250/250
f 275/275/275 252/252/252 276/276/276
f 277/277/277 279/279/279 278/278/278
f 277/277/277 278/278/278 280/280/280
f 280/280/280 278/278/278 281/281/281
f 282/282/282 284/284/284 283/283/283
f 283/283/283 284/284/284 285/285/285
f 283/283/283 285/285/285 286/286/286
f 287/287/287 289/289/289 288/288/288
f 287/287/287 288/288/288 290/290/290
f 290/290/290 288/288/288 279/279/279
f 290/290/290 279/279/279 277/277/277
f 279/279/279 292/292/292 291/291/291
f 279/279/279 291/291/291 278/278/278
f 278/278/278 291/291/291 293/293/293
f 278/278/278 293/293/293 281/281/281
f 281/281/281 293/293/293 289/289/289
f 289/289/289 293/293/293 292/292/292
f 289/289/289 292/292/292 288/288/288
f 288/288/288 292/292/292 279/279/279
f 294/294/294 291/291/291 292/292/292
f 294/294/294 293/293/293 291/291/291
f 294/294/294 292/292/292 293/293/293
f 295/295/295 297/297/297 296/296/296
f 295/295/295 298/298/298 297/297/297
f 298/298/298 299/299/299 297/297/297
f 298/298/298 300/300/300 299/299/299
f 300/300/300 301/301/301 299/299/299
f 300/300/300 302/302/302 301/301/301
f 303/303/303 305/305/305 304/304/304
f 303/303/303 306/306/306 305/305/305
f 306/306/306 307/307/307 305/305/305
f 306/306/306 308/308/308 307/307/307
f 309/309/309 311/311/311 310/310/310
f 309/309/309 312/312/312 311/311/311
f 312/312/312 313/313/313 311/311/311
f 312/312/312 314/314/314 313/313/313
f 314/314/314 315/315/315 313/313/313
f 314/314/314 316/316/316 315/315/315
f 316/316/316 317/317/317 315/315/315
f 316/316/316 318/318/318 317/317/317
f 318/318/318 310/310/310 317/317/317
f 318/318/318 309/309/309 310/310/310
f 310/310/310 320/320/320 319/319/319
f 310/310/310 311/311/311 320/320/320
f 311/311/311 321/321/321 320/320/320
f 311/311/311 313/313/313 321/321/321
f 313/313/313 315/315/315 321/321/321
f 315/315/315 319/319/319 321/321/321
f 315/315/315 317/317/317 319/319/319
f 317/317/317 310/310/310 319/319/319
f 322/322/322 319/319/319 320/320/320
f 322/322/322 320/320/320 321/321/321
f 322/322/322 321/321/321 319/319/319
f 301/301/301 323/323/323 299/299/299
f 314/314/314 304/304/304 316/316/316
f 305/305/305 316/316/316 304/304/304
f 316/316/316 305/305/305 318/318/318
f 307/307/307 318/318/318 305/305/305
f 318/318/318 307/307/307 309/309/309
f 324/324/324 296/296/296 297/297/297
f 290/290/290 325/325/325 287/287/287
f 286/286/286 326/326/326 283/283/283
f 327/327/327 329/329/329 328/328/328
f 327/327/327 330/330/330 329/329/329
f 330/330/330 331/331/331 329/329/329
f 330/330/330 333/333/333 332/332/332
f 333/333/333 334/334/334 332/332/332
f 333/333/333 335/335/335 334/334/334
f 335/335/335 336/336/336 334/334/334
f 335/335/335 337/337/337 336/336/336
f 338/338/338 328/328/328 339/339/339
f 338/338/338 327/327/327 328/328/328
f 328/328/328 341/341/341 340/340/340
f 328/328/328 329/329/329 341/341/341
f 342/342/342 344/344/344 343/343/343
f 342/342/342 332/332/332 344/344/344
f 332/332/332 334/334/334 344/344/344
f 334/334/334 345/345/345 344/344/344
f 346/346/346 339/339/339 340/340/340
f 339/339/339 328/328/328 340/340/340
f 347/347/347 340/340/340 341/341/341
f 348/348/348 343/343/343 344/344/344
f 348/348/348 344/344/344 345/345/345
f 349/349/349 350/350/350 338/338/338
f 349/349/349 338/338/338 351/351/351
f 351/351/351 338/338/338 352/352/352
f 351/351/351 352/352/352 353/353/353
f 353/353/353 352/352/352 354/354/354
f 353/353/353 354/354/354 355/355/355
f 355/355/355 354/354/354 356/356/356
f 355/355/355 356/356/356 357/357/357
f 357/357/357 356/356/356 350/350/350
f 357/357/357 350/350/350 349/349/349
f 327/327/327 359/359/359 358/358/358
f 327/327/327 358/358/358 330/330/330
f 330/330/330 358/358/358 360/360/360
f 330/330/330 360/360/360 333/333/333
f 333/333/333 360/360/360 361/361/361
f 333/333/333 361/361/361 362/362/362
f 362/362/362 361/361/361 363/363/363
f 362/362/362 363/363/363 364/364/364
f 364/364/364 363/363/363 359/359/359
f 364/364/364 359/359/359 327/327/327
f 359/359/359 366/366/366 365/365/365
f 359/359/359 365/365/365 358/358/358
f 358/358/358 365/365/365 367/367/367
f 358/358/358 367/367/367 360/360/360
f 360/360/360 367/367/367 361/361/361
f 361/361/361 367/367/367 366/366/366
f 361/361/361 366/366/366 363/363/363
f 363/363/363 366/366/366 359/359/359
f 368/368/368 365/365/365 366/366/366
f 368/368/368 367/367/367 365/365/365
f 368/368/368 366/366/366 367/367/367
f 354/354/354 352/352/352 333/333/333
f 333/333/333 362/362/362 354/354/354
f 356/356/356 354/354/354 362/362/362
f 362/362/362 364/364/364 356/356/356
f 350/350/350 356/356/356 364/364/364
f 364/364/364 327/327/327 350/350/350
f 327/327/327 338/338/338 350/350/350
f 337/337/337 335/335/335 352/352/352
f 335/335/335 333/333/333 352/352/352
f 369/369/369 242/242/242 243/243/243
f 370/370/370 242/242/242 369/369/369
f 371/371/371 251/251/251 372/372/372
f 257/257/257 372/372/372 251/251/251
f 370/370/370 254/254/254 242/242/242
f 256/256/256 245/245/245 253/253/253
f 256/256/256 247/247/247 245/245/245
f 373/373/373 255/255/255 256/256/256
f 373/373/373 256/256/256 374/374/374
f 375/375/375 255/255/255 373/373/373
f 263/263/263 377/377/377 376/376/376
f 263/263/263 255/255/255 377/377/377
f 377/377/377 255/255/255 375/375/375
f 263/263/263 376/376/376 262/262/262
f 262/262/262 376/376/376 374/374/374
f 262/262/262 374/374/374 256/256/256
f 378/378/378 380/380/380 379/379/379
f 380/380/380 378/378/378 381/381/381
f 381/381/381 382/382/382 380/380/380
f 383/383/383 385/385/385 384/384/384
f 385/385/385 383/383/383 386/386/386
f 386/386/386 387/387/387 385/385/385
f 388/388/388 390/390/390 389/389/389
f 390/390/390 388/388/388 391/391/391
f 391/391/391 392/392/392 390/390/390
f 393/393/393 395/395/395 394/394/394
f 396/396/396 398/398/398 397/397/397
f 399/399/399 401/401/401 400/400/400
f 402/402/402 404/404/404 403/403/403
f 405/405/405 407/407/407 406/406/406
f 408/408/408 410/410/410 409/409/409
f 411/411/411 413/413/413 412/412/412
f 413/413/413 411/411/411 414/414/414
f 414/414/414 415/415/415 413/413/413
f 416/416/416 418/418/418 417/417/417
f 418/418/418 416/416/416 419/419/419
f 419/419/419 420/420/420 418/418/418
f 421/421/421 423/423/423 422/422/422
f 423/423/423 421/421/421 424/424/424
f 424/424/424 425/425/425 423/423/423
f 426/426/426 428/428/428 427/427/427
f 429/429/429 431/431/431 430/430/430
f 432/432/432 434/434/434 433/433/433
f 435/435/435 437/437/437 436/436/436
f 438/438/438 440/440/440 439/439/439
f 441/441/441 443/443/443 442/442/442
f 444/444/444 446/446/446 445/445/445
f 446/446/446 444/444/444 447/447/447
f 447/447/447 448/448/448 446/446/446
f 449/449/449 451/451/451 450/450/450
f 451/451/451 449/449/449 452/452/452
f 452/452/452 453/453/453 451/451/451
f 454/454/454 456/456/456 455/455/455
f 456/456/456 454/454/454 457/457/457
f 457/457/457 458/458/458 456/456/456
f 459/459/459 461/461/461 460/460/460
f 462/462/462 464/464/464 463/463/463
f 465/465/465 467/467/467 466/466/466
f 468/468/468 470/470/470 469/469/469
f 471/471/471 473/473/473 472/472/472
f 474/474/474 476/476/476 475/475/475
f 477/477/477 479/479/479 478/478/478
f 479/479/479 477/477/477 480/480/480
f 480/480/480 481/481/481 479/479/479
f 482/482/482 484/484/484 483/483/483
f 484/484/484 482/482/482 485/485/485
f 485/485/485 486/486/486 484/484/484
f 487/487/487 489/489/489 488/488/488
f 489/489/489 487/487/487 490/490/490
f 490/490/490 491/491/491 489/489/489
f 492/492/492 494/494/494 493/493/493
f 495/495/495 497/497/497 496/496/496
f 498/498/498 500/500/500 499/499/499
f 501/501/501 503/503/503 502/502/502
f 504/504/504 506/506/506 505/505/505
f 507/507/507 509/509/509 508/508/508
f 510/510/510 512/512/512 511/511/511
f 512/512/512 510/510/510 513/513/513
f 513/513/513 514/514/514 512/512/512
f 515/515/515 517/517/517 516/516/516
f 517/517/517 515/515/515 518/518/518
f 518/518/518 519/519/519 517/517/517
f 520/520/520 522/522/522 521/521/521
f 522/522/522 520/520/520 523/523/523
f 523/523/523 524/524/524 522/522/522
f 525/525/525 527/527/527 526/526/526
f 528/528/528 530/530/530 529/529/529
f 531/531/531 533/533/533 532/532/532
f 534/534/534 536/536/536 535/535/535
f 537/537/537 539/539/539 538/538/538
f 540/540/540 542/542/542 541/541/541
f 543/543/543 545/545/545 544/544/544
f 545/545/545 543/543/543 546/546/546
f 546/546/546 547/547/547 545/545/545
f 548/548/548 550/550/550 549/549/549
f 550/550/550 548/548/548 551/551/551
f 551/551/551 552/552/552 550/550/550
f 553/553/553 555/555/555 554/554/554
f 555/555/555 553/553/553 556/556/556
f 556/556/556 557/557/557 555/555/555
f 558/558/558 560/560/560 559/559/559
f 561/561/561 563/563/563 562/562/562
f 564/564/564 566/566/566 565/565/565
f 567/567/567 569/569/569 568/568/568
f 570/570/570 572/572/572 571/571/571
f 573/573/573 575/575/575 574/574/574
