# Waterspout01.bmd — MU bind-pose geometry, exported for MU2
# 4 mesh(es)

g stone_statue02
# texture: stone_statue02.jpg
v 159.6879 70.74341 0.595886
v 183.8594 54.8988 0.596008
v 159.2385 54.8988 -91.29031
v 138.3055 70.74341 -79.20459
v 138.3055 70.74341 -79.20459
v 159.2385 54.8988 -91.29031
v 91.97299 54.8988 -158.5558
v 79.8873 70.74341 -137.6228
v 79.8873 70.74341 -137.6228
v 91.97299 54.8988 -158.5558
v 0.0867 54.8988 -183.1767
v 0.0867 70.74341 -159.0052
v 0.0867 70.74341 -159.0052
v 0.0867 54.8988 -183.1767
v -91.79968 54.8988 -158.5558
v -79.71399 70.74341 -137.6227
v -79.71399 70.74341 -137.6227
v -91.79968 54.8988 -158.5558
v -159.0652 54.8988 -91.29031
v -138.132 70.74341 -79.20468
v -138.132 70.74341 -79.20468
v -159.0652 54.8988 -91.29031
v -183.686 54.8988 0.596008
v -159.5145 70.74341 0.595886
v -159.5145 70.74341 0.595886
v -183.686 54.8988 0.596008
v -159.0652 54.8988 92.4823
v -138.132 70.74341 80.39651
v -138.132 70.74341 80.39651
v -159.0652 54.8988 92.4823
v -91.79968 54.8988 159.7478
v -79.7139 70.74341 138.8147
v -79.7139 70.74341 138.8147
v -91.79968 54.8988 159.7478
v 0.0867 54.8988 184.3687
v 0.0867 70.74341 160.1972
v 0.0867 70.74341 160.1972
v 0.0867 54.8988 184.3687
v 91.97299 54.8988 159.7478
v 79.88739 70.74341 138.8147
v 79.88739 70.74341 138.8147
v 91.97299 54.8988 159.7478
v 159.2385 54.8988 92.4823
v 138.3055 70.74341 80.39651
v 138.3055 70.74341 80.39651
v 159.2385 54.8988 92.4823
v 183.8594 54.8988 0.596008
v 159.6879 70.74341 0.595886
v 162.7174 19.9488 0.596008
v 199.2343 -0.1378 0.595886
v 172.5536 -0.1378 -98.97791
v 140.929 19.9488 -80.7193
v 140.929 19.9488 -80.7193
v 172.5536 -0.1378 -98.97791
v 99.66049 -0.1378 -171.871
v 81.40201 19.9488 -140.2462
v 81.40201 19.9488 -140.2462
v 99.66049 -0.1378 -171.871
v 0.0867 -0.1378 -198.5517
v 0.0867 19.9488 -162.0346
v 0.0867 19.9488 -162.0346
v 0.0867 -0.1378 -198.5517
v -99.48718 -0.1378 -171.871
v -81.2287 19.9488 -140.2462
v -81.2287 19.9488 -140.2462
v -99.48718 -0.1378 -171.871
v -172.3802 -0.1378 -98.97791
v -140.7556 19.9488 -80.7193
v -140.7556 19.9488 -80.7193
v -172.3802 -0.1378 -98.97791
v -199.061 -0.1378 0.595886
v -162.544 19.9488 0.596008
v -162.544 19.9488 0.596008
v -199.061 -0.1378 0.595886
v -172.3802 -0.1378 100.1697
v -140.7556 19.9488 81.91129
v -140.7556 19.9488 81.91129
v -172.3802 -0.1378 100.1697
v -99.48709 -0.1378 173.0628
v -81.2287 19.9488 141.4383
v -81.2287 19.9488 141.4383
v -99.48709 -0.1378 173.0628
v 0.0867 -0.1378 199.7436
v 0.0867 19.9488 163.2267
v 0.0867 19.9488 163.2267
v 0.0867 -0.1378 199.7436
v 99.66049 -0.1378 173.0628
v 81.40201 19.9488 141.4383
v 81.40201 19.9488 141.4383
v 99.66049 -0.1378 173.0628
v 172.5536 -0.1378 100.1697
v 140.929 19.9488 81.91129
v 140.929 19.9488 81.91129
v 172.5536 -0.1378 100.1697
v 199.2343 -0.1378 0.595886
v 162.7174 19.9488 0.596008
v 159.6879 70.74341 0.595886
v 138.3055 70.74341 -79.20459
v 115.269 8.5373 -65.90451
v 133.0877 8.5373 0.595886
v 138.3055 70.74341 -79.20459
v 79.8873 70.74341 -137.6228
v 66.58719 8.5373 -114.5863
v 115.269 8.5373 -65.90451
v 79.8873 70.74341 -137.6228
v 0.0867 70.74341 -159.0052
v 0.0867 8.5373 -132.405
v 66.58719 8.5373 -114.5863
v 0.0867 70.74341 -159.0052
v -79.71399 70.74341 -137.6227
v -66.41382 8.5373 -114.5863
v 0.0867 8.5373 -132.405
v -79.71399 70.74341 -137.6227
v -138.132 70.74341 -79.20468
v -115.0956 8.5373 -65.90451
v -66.41382 8.5373 -114.5863
v -138.132 70.74341 -79.20468
v -159.5145 70.74341 0.595886
v -132.9143 8.5373 0.595886
v -115.0956 8.5373 -65.90451
v -159.5145 70.74341 0.595886
v -138.132 70.74341 80.39651
v -115.0956 8.5373 67.09641
v -132.9143 8.5373 0.595886
v -138.132 70.74341 80.39651
v -79.7139 70.74341 138.8147
v -66.41382 8.5373 115.7782
v -115.0956 8.5373 67.09641
v -79.7139 70.74341 138.8147
v 0.0867 70.74341 160.1972
v 0.0867 8.5373 133.597
v -66.41382 8.5373 115.7782
v 0.0867 70.74341 160.1972
v 79.88739 70.74341 138.8147
v 66.58731 8.5373 115.7782
v 0.0867 8.5373 133.597
v 79.88739 70.74341 138.8147
v 138.3055 70.74341 80.39651
v 115.269 8.5373 67.09641
v 66.58731 8.5373 115.7782
v 138.3055 70.74341 80.39651
v 159.6879 70.74341 0.595886
v 133.0877 8.5373 0.595886
v 115.269 8.5373 67.09641
vn 0.542382 0.827473 -0.145295
vn 0.542382 0.827473 -0.145295
vn 0.542382 0.827473 -0.145295
vn 0.542382 0.827473 -0.145295
vn 0.397074 0.827445 -0.397074
vn 0.397074 0.827445 -0.397074
vn 0.397074 0.827445 -0.397074
vn 0.397074 0.827445 -0.397074
vn 0.145295 0.827473 -0.542382
vn 0.145295 0.827473 -0.542382
vn 0.145295 0.827473 -0.542382
vn 0.145295 0.827473 -0.542382
vn -0.145295 0.827473 -0.542382
vn -0.145295 0.827473 -0.542382
vn -0.145295 0.827473 -0.542382
vn -0.145295 0.827473 -0.542382
vn -0.397074 0.827445 -0.397074
vn -0.397074 0.827445 -0.397074
vn -0.397074 0.827445 -0.397074
vn -0.397074 0.827445 -0.397074
vn -0.542382 0.827473 -0.145295
vn -0.542382 0.827473 -0.145295
vn -0.542382 0.827473 -0.145295
vn -0.542382 0.827473 -0.145295
vn -0.542382 0.827473 0.145295
vn -0.542382 0.827473 0.145295
vn -0.542382 0.827473 0.145295
vn -0.542382 0.827473 0.145295
vn -0.397074 0.827445 0.397074
vn -0.397074 0.827445 0.397074
vn -0.397074 0.827445 0.397074
vn -0.397074 0.827445 0.397074
vn -0.145295 0.827473 0.542382
vn -0.145295 0.827473 0.542382
vn -0.145295 0.827473 0.542382
vn -0.145295 0.827473 0.542382
vn 0.145295 0.827473 0.542382
vn 0.145295 0.827473 0.542382
vn 0.145295 0.827473 0.542382
vn 0.145295 0.827473 0.542382
vn 0.397074 0.827445 0.397074
vn 0.397074 0.827445 0.397074
vn 0.397074 0.827445 0.397074
vn 0.397074 0.827445 0.397074
vn 0.542382 0.827473 0.145295
vn 0.542382 0.827473 0.145295
vn 0.542382 0.827473 0.145295
vn 0.542382 0.827473 0.145295
vn 0.477987 0.868976 -0.128097
vn 0.477987 0.868976 -0.128097
vn 0.477987 0.868976 -0.128097
vn 0.477987 0.868976 -0.128097
vn 0.349896 0.868991 -0.349896
vn 0.349896 0.868991 -0.349896
vn 0.349896 0.868991 -0.349896
vn 0.349896 0.868991 -0.349896
vn 0.128097 0.868976 -0.477987
vn 0.128097 0.868976 -0.477987
vn 0.128097 0.868976 -0.477987
vn 0.128097 0.868976 -0.477987
vn -0.128097 0.868976 -0.477987
vn -0.128097 0.868976 -0.477987
vn -0.128097 0.868976 -0.477987
vn -0.128097 0.868976 -0.477987
vn -0.349896 0.868991 -0.349896
vn -0.349896 0.868991 -0.349896
vn -0.349896 0.868991 -0.349896
vn -0.349896 0.868991 -0.349896
vn -0.477987 0.868976 -0.128097
vn -0.477987 0.868976 -0.128097
vn -0.477987 0.868976 -0.128097
vn -0.477987 0.868976 -0.128097
vn -0.477987 0.868976 0.128097
vn -0.477987 0.868976 0.128097
vn -0.477987 0.868976 0.128097
vn -0.477987 0.868976 0.128097
vn -0.349896 0.868991 0.349896
vn -0.349896 0.868991 0.349896
vn -0.349896 0.868991 0.349896
vn -0.349896 0.868991 0.349896
vn -0.128097 0.868976 0.477987
vn -0.128097 0.868976 0.477987
vn -0.128097 0.868976 0.477987
vn -0.128097 0.868976 0.477987
vn 0.128097 0.868976 0.477987
vn 0.128097 0.868976 0.477987
vn 0.128097 0.868976 0.477987
vn 0.128097 0.868976 0.477987
vn 0.349896 0.868991 0.349896
vn 0.349896 0.868991 0.349896
vn 0.349896 0.868991 0.349896
vn 0.349896 0.868991 0.349896
vn 0.477987 0.868976 0.128097
vn 0.477987 0.868976 0.128097
vn 0.477987 0.868976 0.128097
vn 0.477987 0.868976 0.128097
vn -0.892764 0.381785 0.239191
vn -0.892764 0.381785 0.239191
vn -0.892764 0.381785 0.239191
vn -0.892764 0.381785 0.239191
vn -0.653549 0.38177 0.653549
vn -0.653549 0.38177 0.653549
vn -0.653549 0.38177 0.653549
vn -0.653549 0.38177 0.653549
vn -0.239191 0.381785 0.892764
vn -0.239191 0.381785 0.892764
vn -0.239191 0.381785 0.892764
vn -0.239191 0.381785 0.892764
vn 0.239191 0.381785 0.892764
vn 0.239191 0.381785 0.892764
vn 0.239191 0.381785 0.892764
vn 0.239191 0.381785 0.892764
vn 0.653549 0.38177 0.653549
vn 0.653549 0.38177 0.653549
vn 0.653549 0.38177 0.653549
vn 0.653549 0.38177 0.653549
vn 0.892764 0.381785 0.239191
vn 0.892764 0.381785 0.239191
vn 0.892764 0.381785 0.239191
vn 0.892764 0.381785 0.239191
vn 0.892764 0.381785 -0.239191
vn 0.892764 0.381785 -0.239191
vn 0.892764 0.381785 -0.239191
vn 0.892764 0.381785 -0.239191
vn 0.653549 0.38177 -0.653549
vn 0.653549 0.38177 -0.653549
vn 0.653549 0.38177 -0.653549
vn 0.653549 0.38177 -0.653549
vn 0.239191 0.381785 -0.892764
vn 0.239191 0.381785 -0.892764
vn 0.239191 0.381785 -0.892764
vn 0.239191 0.381785 -0.892764
vn -0.239191 0.381785 -0.892764
vn -0.239191 0.381785 -0.892764
vn -0.239191 0.381785 -0.892764
vn -0.239191 0.381785 -0.892764
vn -0.653549 0.38177 -0.653549
vn -0.653549 0.38177 -0.653549
vn -0.653549 0.38177 -0.653549
vn -0.653549 0.38177 -0.653549
vn -0.892764 0.381785 -0.239191
vn -0.892764 0.381785 -0.239191
vn -0.892764 0.381785 -0.239191
vn -0.892764 0.381785 -0.239191
vt 0.5396 0.2254
vt 0.54 0.0004
vt 0.9561 0.0007
vt 0.9563 0.2252
vt 0.9563 0.2252
vt 0.9561 0.0007
vt 0.54 0.0003
vt 0.5396 0.2255
vt 0.5396 0.2255
vt 0.54 0.0003
vt 0.9562 0.0006
vt 0.9563 0.2251
vt 0.9563 0.2251
vt 0.9562 0.0006
vt 0.54 0.0003
vt 0.5396 0.2255
vt 0.5396 0.2255
vt 0.54 0.0003
vt 0.9561 0.0007
vt 0.9563 0.2252
vt 0.9563 0.2252
vt 0.9561 0.0007
vt 0.54 0.0004
vt 0.5396 0.2254
vt 0.5396 0.2254
vt 0.54 0.0004
vt 0.9561 0.0007
vt 0.9563 0.2252
vt 0.9563 0.2252
vt 0.9561 0.0007
vt 0.54 0.0004
vt 0.5396 0.2255
vt 0.5396 0.2255
vt 0.54 0.0004
vt 0.9562 0.0007
vt 0.9563 0.2252
vt 0.9563 0.2252
vt 0.9562 0.0007
vt 0.54 0.0004
vt 0.5396 0.2255
vt 0.5396 0.2255
vt 0.54 0.0004
vt 0.9561 0.0007
vt 0.9563 0.2252
vt 0.9563 0.2252
vt 0.9561 0.0007
vt 0.54 0.0004
vt 0.5396 0.2254
vt 0.3018 0.2175
vt 0.3016 0.002
vt 0.7076 0.0019
vt 0.7076 0.2176
vt 0.7076 0.2176
vt 0.7076 0.0019
vt 0.3019 0.0018
vt 0.3018 0.2175
vt 0.3018 0.2175
vt 0.3019 0.0018
vt 0.7077 0.0019
vt 0.7077 0.2175
vt 0.7077 0.2175
vt 0.7077 0.0019
vt 0.302 0.0018
vt 0.3018 0.2175
vt 0.3018 0.2175
vt 0.302 0.0018
vt 0.7076 0.0019
vt 0.7076 0.2176
vt 0.7076 0.2176
vt 0.7076 0.0019
vt 0.3017 0.002
vt 0.3019 0.2175
vt 0.3019 0.2175
vt 0.3017 0.002
vt 0.7076 0.0019
vt 0.7076 0.2175
vt 0.7076 0.2175
vt 0.7076 0.0019
vt 0.302 0.0018
vt 0.3018 0.2175
vt 0.3018 0.2175
vt 0.302 0.0018
vt 0.7077 0.0018
vt 0.7077 0.2175
vt 0.7077 0.2175
vt 0.7077 0.0018
vt 0.3019 0.0018
vt 0.3018 0.2175
vt 0.3018 0.2175
vt 0.3019 0.0018
vt 0.7076 0.0019
vt 0.7076 0.2175
vt 0.7076 0.2175
vt 0.7076 0.0019
vt 0.3016 0.002
vt 0.3018 0.2175
vt 0.5777 0.7934
vt 0.9508 0.7943
vt 0.9512 0.533
vt 0.5776 0.5322
vt 0.9508 0.7943
vt 0.5777 0.7932
vt 0.5776 0.5324
vt 0.9512 0.533
vt 0.5777 0.7932
vt 0.9508 0.7944
vt 0.9512 0.533
vt 0.5776 0.5324
vt 0.9508 0.7944
vt 0.5777 0.7932
vt 0.5776 0.5324
vt 0.9512 0.533
vt 0.5777 0.7932
vt 0.9507 0.7943
vt 0.9512 0.533
vt 0.5776 0.5324
vt 0.9507 0.7943
vt 0.5777 0.7934
vt 0.5776 0.5322
vt 0.9512 0.533
vt 0.5777 0.7934
vt 0.9507 0.7943
vt 0.9512 0.533
vt 0.5776 0.5322
vt 0.9507 0.7943
vt 0.5777 0.7932
vt 0.5776 0.5324
vt 0.9512 0.533
vt 0.5777 0.7932
vt 0.9508 0.7944
vt 0.9512 0.533
vt 0.5776 0.5324
vt 0.9508 0.7944
vt 0.5777 0.7932
vt 0.5776 0.5324
vt 0.9512 0.533
vt 0.5777 0.7932
vt 0.9508 0.7943
vt 0.9512 0.533
vt 0.5776 0.5324
vt 0.9508 0.7943
vt 0.5777 0.7934
vt 0.5776 0.5322
vt 0.9512 0.533
f 1/1/1 3/3/3 2/2/2
f 1/1/1 4/4/4 3/3/3
f 5/5/5 7/7/7 6/6/6
f 5/5/5 8/8/8 7/7/7
f 9/9/9 11/11/11 10/10/10
f 9/9/9 12/12/12 11/11/11
f 13/13/13 15/15/15 14/14/14
f 13/13/13 16/16/16 15/15/15
f 17/17/17 19/19/19 18/18/18
f 17/17/17 20/20/20 19/19/19
f 21/21/21 23/23/23 22/22/22
f 21/21/21 24/24/24 23/23/23
f 25/25/25 27/27/27 26/26/26
f 25/25/25 28/28/28 27/27/27
f 29/29/29 31/31/31 30/30/30
f 29/29/29 32/32/32 31/31/31
f 33/33/33 35/35/35 34/34/34
f 33/33/33 36/36/36 35/35/35
f 37/37/37 39/39/39 38/38/38
f 37/37/37 40/40/40 39/39/39
f 41/41/41 43/43/43 42/42/42
f 41/41/41 44/44/44 43/43/43
f 45/45/45 47/47/47 46/46/46
f 45/45/45 48/48/48 47/47/47
f 49/49/49 51/51/51 50/50/50
f 49/49/49 52/52/52 51/51/51
f 53/53/53 55/55/55 54/54/54
f 53/53/53 56/56/56 55/55/55
f 57/57/57 59/59/59 58/58/58
f 57/57/57 60/60/60 59/59/59
f 61/61/61 63/63/63 62/62/62
f 61/61/61 64/64/64 63/63/63
f 65/65/65 67/67/67 66/66/66
f 65/65/65 68/68/68 67/67/67
f 69/69/69 71/71/71 70/70/70
f 69/69/69 72/72/72 71/71/71
f 73/73/73 75/75/75 74/74/74
f 73/73/73 76/76/76 75/75/75
f 77/77/77 79/79/79 78/78/78
f 77/77/77 80/80/80 79/79/79
f 81/81/81 83/83/83 82/82/82
f 81/81/81 84/84/84 83/83/83
f 85/85/85 87/87/87 86/86/86
f 85/85/85 88/88/88 87/87/87
f 89/89/89 91/91/91 90/90/90
f 89/89/89 92/92/92 91/91/91
f 93/93/93 95/95/95 94/94/94
f 93/93/93 96/96/96 95/95/95
f 97/97/97 99/99/99 98/98/98
f 99/99/99 97/97/97 100/100/100
f 101/101/101 103/103/103 102/102/102
f 103/103/103 101/101/101 104/104/104
f 105/105/105 107/107/107 106/106/106
f 107/107/107 105/105/105 108/108/108
f 109/109/109 111/111/111 110/110/110
f 111/111/111 109/109/109 112/112/112
f 113/113/113 115/115/115 114/114/114
f 115/115/115 113/113/113 116/116/116
f 117/117/117 119/119/119 118/118/118
f 119/119/119 117/117/117 120/120/120
f 121/121/121 123/123/123 122/122/122
f 123/123/123 121/121/121 124/124/124
f 125/125/125 127/127/127 126/126/126
f 127/127/127 125/125/125 128/128/128
f 129/129/129 131/131/131 130/130/130
f 131/131/131 129/129/129 132/132/132
f 133/133/133 135/135/135 134/134/134
f 135/135/135 133/133/133 136/136/136
f 137/137/137 139/139/139 138/138/138
f 139/139/139 137/137/137 140/140/140
f 141/141/141 143/143/143 142/142/142
f 143/143/143 141/141/141 144/144/144

g reagon_waterspout
# texture: reagon_waterspout.jpg
v 162.7174 19.9488 0.596008
v 140.929 19.9488 -80.7193
v 159.2385 54.8988 -91.29031
v 183.8594 54.8988 0.596008
v 140.929 19.9488 -80.7193
v 81.40201 19.9488 -140.2462
v 91.97299 54.8988 -158.5558
v 159.2385 54.8988 -91.29031
v 81.40201 19.9488 -140.2462
v 0.0867 19.9488 -162.0346
v 0.0867 54.8988 -183.1767
v 91.97299 54.8988 -158.5558
v 0.0867 19.9488 -162.0346
v -81.2287 19.9488 -140.2462
v -91.79968 54.8988 -158.5558
v 0.0867 54.8988 -183.1767
v -81.2287 19.9488 -140.2462
v -140.7556 19.9488 -80.7193
v -159.0652 54.8988 -91.29031
v -91.79968 54.8988 -158.5558
v -140.7556 19.9488 -80.7193
v -162.544 19.9488 0.596008
v -183.686 54.8988 0.596008
v -159.0652 54.8988 -91.29031
v -162.544 19.9488 0.596008
v -140.7556 19.9488 81.91129
v -159.0652 54.8988 92.4823
v -183.686 54.8988 0.596008
v -140.7556 19.9488 81.91129
v -81.2287 19.9488 141.4383
v -91.79968 54.8988 159.7478
v -159.0652 54.8988 92.4823
v -81.2287 19.9488 141.4383
v 0.0867 19.9488 163.2267
v 0.0867 54.8988 184.3687
v -91.79968 54.8988 159.7478
v 0.0867 19.9488 163.2267
v 81.40201 19.9488 141.4383
v 91.97299 54.8988 159.7478
v 0.0867 54.8988 184.3687
v 81.40201 19.9488 141.4383
v 140.929 19.9488 81.91129
v 159.2385 54.8988 92.4823
v 91.97299 54.8988 159.7478
v 140.929 19.9488 81.91129
v 162.7174 19.9488 0.596008
v 183.8594 54.8988 0.596008
v 159.2385 54.8988 92.4823
v 0.0867 8.5373 -132.405
v -66.41382 8.5373 -114.5863
v 0.0867 8.5373 133.597
v 66.58731 8.5373 115.7782
v 115.269 8.5373 67.09641
v 66.58719 8.5373 -114.5863
v 115.269 8.5373 -65.90451
v 133.0877 8.5373 0.595886
v -115.0956 8.5373 -65.90451
v -132.9143 8.5373 0.595886
v -115.0956 8.5373 67.09641
v -66.41382 8.5373 115.7782
v -11.1156 274.2188 -20.0654
v -17.21951 293.7367 -30.50729
v -5.45459 282.0343 -21.0777
v 3.677399 297.3238 -35.63019
v -2.782715 284.39 8.738098
v 4.151398 281.6948 8.953491
v 2.371887 288.1337 6.862305
v -0.831299 285.9793 7.945496
v -14.43341 260.8499 -30.03821
v 7.024902 262.9588 -33.05011
v 3.630402 260.9578 -15.53171
v -8.819885 260.7288 -15.20471
v 1.8508 275.9347 -22.4512
v 1.396393 289.2124 -19.42569
v 2.466187 290.7204 -11.12601
v 5.683289 278.2516 -16.90201
v -10.88199 287.6402 -17.95911
v -9.812286 289.5556 -9.462585
v -5.526611 287.3255 -10.18729
v -11.5332 277.2533 -15.47641
v -9.522705 279.4915 -4.550507
v 4.194885 279.9348 -5.183685
v 2.544312 287.1475 -6.507294
v 2.295197 286.5459 0.436401
v -8.515991 286.4236 -5.281403
v -2.858612 286.4214 0.614105
v -1.7034 287.6569 -10.66049
v -9.576294 282.1063 8.365906
v -1.053894 285.866 7.938599
v -7.578308 286.2696 0.830994
v -7.515991 288.1132 6.891693
v -4.1875 268.5428 -23.67261
v 5.909088 269.9568 -13.97839
v -6.45639 255.6079 -1.40741
v -0.271606 255.1335 -0.729889
v 0.866486 257.6508 1.893097
v -7.7211 258.3569 0.902496
v -11.35822 269.3077 -12.97202
v 1.537994 258.9288 -9.245605
v -6.819885 259.0921 -9.47879
v 3.152802 262.098 -6.426788
v -8.462006 262.4037 -6.783997
v -4.440186 285.9048 7.883209
v -14.85019 264.7716 -37.46219
v -6.461609 259.1336 -35.74258
v -9.828888 271.0181 -41.4509
v -0.909393 265.3362 -39.22879
v -15.59509 246.4645 -41.75198
v -6.6651 244.8503 -37.66809
v -11.96371 248.5294 -50.9884
v -2.180695 246.8722 -46.4119
v -18.97861 219.0423 -39.14182
v -4.002289 215.6835 -29.28839
v -11.3616 226.9786 -51.58569
v 3.622986 222.8814 -44.12698
v -26.0054 194.9079 -48.9483
v -5.128204 183.316 -40.53268
v -15.4957 208.5749 -34.38611
v -15.6427 203.8904 -61.89749
v 0.868103 181.5786 -76.21341
v -24.03241 199.3842 -74.2702
v 10.56021 192.8088 -52.6004
v -40.42349 177.2839 -70.1575
v -26.70389 198.9834 -101.278
v -41.36081 187.0335 -103.5033
v -11.44299 188.7443 -105.5421
v -25.44009 172.7457 -107.4314
v -30.86731 204.1466 -140.7165
v -25.9166 190.8883 -137.1514
v -19.9805 207.9407 -130.96
v -9.00119 197.2951 -132.641
v -1.213196 217.8978 -155.8513
v 1.028015 206.9727 -159.5605
v 2.718201 215.9435 -146.5332
v 9.399414 204.9439 -148.0943
v 31.625 218.008 -157.4702
v 33.5278 209.7174 -155.8457
v 32.49719 219.1771 -147.1157
v 32.11191 209.1195 -149.6837
v 59.19211 215.9762 -137.2444
v 60.42151 213.6317 -136.4392
v 53.39151 217.863 -137.2257
v 56.32849 213.6558 -136.0252
v 69.39969 225.0447 -114.0366
v 6.767395 206.6053 -48.41339
v 0.709808 212.2518 -37.75351
v -22.3121 205.3788 -46.4642
v -37.1347 176.6971 -61.74979
v -36.39832 192.9328 -17.68591
v -34.00562 200.469 -26.16
v -36.50891 197.1998 -14.36371
v -35.41132 195.1627 -25.95029
v -31.37851 197.1079 -29.20581
v -39.69339 199.4662 -26.02441
v -41.64648 198.0296 -17.73611
v -34.55429 201.3554 -27.7204
v -38.3717 195.4527 -29.7832
v -41.51511 192.9111 -18.63242
v -29.10721 197.9451 -34.2316
v -54.1868 185.8919 -11.11331
v -45.22629 180.3234 -11.4137
v 22.23911 219.315 -23.7735
v 25.013 222.2423 -27.3779
v 19.2308 214.2224 -31.86639
v 18.44641 212.4202 -27.2843
v 14.15381 211.3707 -30.61859
v 28.1662 216.9028 -27.3197
v 23.30991 210.4234 -30.3208
v 18.73639 209.9424 -34.15298
v 26.1839 216.1398 -22.5755
v 19.3866 207.6607 -27.32748
v 15.8465 207.1324 -32.4729
v 38.23029 217.0209 -11.59891
v 28.84909 220.8109 -8.596497
v -33.96109 120.9195 -69.96732
v -34.60278 135.5285 -70.55609
v -38.40271 121.8483 -63.50421
v -32.1684 131.6792 -76.23471
v -27.9437 138.5042 -75.28891
v -31.16019 163.7059 -62.09671
v -16.8316 160.0216 -74.87741
v -40.65491 134.2383 -76.30331
v -44.23419 123.8396 -70.1376
v -35.5097 139.937 -72.97339
v -39.93188 168.2274 -76.07251
v -34.83942 134.4981 -82.15891
v -39.79251 119.6865 -74.67831
v -32.23849 142.7543 -79.19009
v -33.2507 163.8786 -90.25821
v -51.57739 100.0051 -81.12589
v -36.3931 98.5153 -78.9693
v 11.55521 152.514 -64.4805
v 15.9968 158.8715 -65.96921
v 12.1969 143.3989 -78.36771
v 9.762512 138.0774 -74.03812
v 5.537811 138.4248 -80.91959
v 5.532013 167.2989 -60.13879
v 21.82831 152.0898 -67.37469
v 18.24899 137.7861 -76.58151
v 13.10379 140.6066 -82.54871
v 9.313416 165.3661 -78.51761
v 17.3866 147.9283 -62.84158
v 12.4335 131.93 -76.3299
v 9.832611 134.168 -84.81351
v 2.632294 162.1373 -87.2829
v 29.17139 154.1375 -38.02121
v 13.98721 156.4157 -36.72501
v -7.9021 216.8269 -71.51349
v -7.9021 232.5877 -46.84641
v 29.90131 255.8508 -66.4722
v 39.6922 235.3907 -103.9084
v 65.9231 306.6471 -36.17459
v 77.15689 282.1639 -86.83459
v 73.90839 311.2048 -34.51801
v 133.9866 305.7385 -39.22321
v 140.5061 295.9579 -70.36859
v 155.7703 295.9428 -36.45871
v 197.9187 262.9407 -93.30481
v -7.9021 229.3576 -39.91049
v 26.8139 250.8871 -56.64938
v 64.0697 303.197 -21.3797
v 75.76181 307.7546 -19.72299
v 110.8303 306.3946 -20.6376
v 29.90131 252.7828 -69.25281
v -7.9021 229.828 -49.9176
v 65.9231 303.5791 -38.9552
v 73.90839 308.1368 -37.29849
v 133.9482 302.9363 -44.2634
v 154.4665 294.3502 -40.88998
v 26.8139 247.8191 -59.42999
v -7.9021 226.5979 -42.9816
v 64.0697 299.9646 -22.54681
v 75.76181 304.5223 -20.8902
v 109.5216 303.8796 -24.3399
v -45.7056 255.8508 -66.4722
v -55.4964 235.3907 -103.9084
v -81.72742 306.6471 -36.17459
v -92.96118 282.1639 -86.83459
v -88.34631 306.6488 -36.17621
v -144.4177 261.0188 -55.49991
v -138.3767 251.0963 -86.69681
v -157.5245 240.8856 -56.49789
v -163.111 193.7404 -118.4916
v -42.6181 250.8871 -56.64938
v -79.8739 303.197 -21.3797
v -90.19971 303.1986 -21.38129
v -129.4489 272.9707 -32.80289
v -45.7056 252.7828 -69.25281
v -81.72742 303.5791 -38.9552
v -88.34631 303.5808 -38.95679
v -141.8872 258.9778 -60.26309
v -154.7289 240.5076 -60.48709
v -42.6181 247.8191 -59.42999
v -79.8739 299.9646 -22.54691
v -90.19971 299.9662 -22.54849
v -126.295 271.7779 -36.02399
vn 0.833988 -0.504493 -0.223497
vn 0.833988 -0.504493 -0.223497
vn 0.833988 -0.504493 -0.223497
vn 0.833988 -0.504493 -0.223497
vn 0.610518 -0.504515 -0.610518
vn 0.610518 -0.504515 -0.610518
vn 0.610518 -0.504515 -0.610518
vn 0.610518 -0.504515 -0.610518
vn 0.223497 -0.504493 -0.833988
vn 0.223497 -0.504493 -0.833988
vn 0.223497 -0.504493 -0.833988
vn 0.223497 -0.504493 -0.833988
vn -0.223497 -0.504493 -0.833988
vn -0.223497 -0.504493 -0.833988
vn -0.223497 -0.504493 -0.833988
vn -0.223497 -0.504493 -0.833988
vn -0.610518 -0.504515 -0.610518
vn -0.610518 -0.504515 -0.610518
vn -0.610518 -0.504515 -0.610518
vn -0.610518 -0.504515 -0.610518
vn -0.833988 -0.504493 -0.223497
vn -0.833988 -0.504493 -0.223497
vn -0.833988 -0.504493 -0.223497
vn -0.833988 -0.504493 -0.223497
vn -0.833988 -0.504493 0.223497
vn -0.833988 -0.504493 0.223497
vn -0.833988 -0.504493 0.223497
vn -0.833988 -0.504493 0.223497
vn -0.610518 -0.504515 0.610518
vn -0.610518 -0.504515 0.610518
vn -0.610518 -0.504515 0.610518
vn -0.610518 -0.504515 0.610518
vn -0.223497 -0.504493 0.833988
vn -0.223497 -0.504493 0.833988
vn -0.223497 -0.504493 0.833988
vn -0.223497 -0.504493 0.833988
vn 0.223497 -0.504493 0.833988
vn 0.223497 -0.504493 0.833988
vn 0.223497 -0.504493 0.833988
vn 0.223497 -0.504493 0.833988
vn 0.610518 -0.504515 0.610518
vn 0.610518 -0.504515 0.610518
vn 0.610518 -0.504515 0.610518
vn 0.610518 -0.504515 0.610518
vn 0.833988 -0.504493 0.223497
vn 0.833988 -0.504493 0.223497
vn 0.833988 -0.504493 0.223497
vn 0.833988 -0.504493 0.223497
vn 0 1 -0
vn 0 1 -0
vn 0 1 -0
vn 0 1 -0
vn 0 1 -0
vn 0 1 -0
vn 0 1 -0
vn 0 1 -0
vn 0 1 -0
vn 0 1 -0
vn 0 1 -0
vn 0 1 -0
vn -0.940004 -0.119901 -0.319401
vn -0.933238 -0.128705 -0.335414
vn -0.208108 0.274711 -0.938736
vn 0.352505 0.935414 0.0272
vn -0.099902 0.120903 0.987625
vn 0.370202 -0.585504 0.721205
vn 0.473393 0.719189 0.508592
vn -0.420998 0.844395 0.331298
vn -0.864373 -0.158295 -0.477285
vn 0.315189 0.300589 -0.900168
vn 0.711036 -0.696236 -0.098405
vn -0.443914 -0.896027 -0.0087
vn 0.90868 -0.0015 -0.417491
vn 0.837054 0.53477 0.115594
vn 0.571805 0.818407 -0.057
vn 0.959918 0.127302 0.249705
vn -0.491488 0.818679 0.296993
vn -0.679769 0.671269 0.295486
vn 0.102698 0.974277 0.200595
vn -0.924315 -0.187303 0.332505
vn -0.737977 -0.592782 0.32249
vn 0.80905 -0.576036 0.116707
vn 0.408187 0.875271 0.259392
vn 0.369989 0.928872 -0.017499
vn -0.438887 0.839175 0.321191
vn 0.065499 0.996589 0.050199
vn -0.075197 0.971362 0.225391
vn -0.692498 0.1156 0.712098
vn -0.194999 0.926197 0.322699
vn -0.636756 0.770546 -0.028298
vn -0.223608 0.928035 0.297911
vn -0.076902 0.33681 -0.938427
vn 0.824215 0.349306 0.445708
vn -0.569712 -0.791516 0.221205
vn 0.2456 -0.969001 -0.0268
vn 0.549296 -0.480596 0.683595
vn -0.515214 0.36571 0.77512
vn -0.731895 0.0498 0.679595
vn 0.520898 -0.836296 -0.171099
vn -0.569475 -0.796064 -0.204891
vn 0.774597 0.347099 0.528698
vn -0.805681 0.328992 0.492588
vn 0.061998 0.695777 0.715577
vn -0.985479 0.157597 0.063199
vn 0.096496 -0.574679 0.81267
vn -0.0554 0.6046 -0.7946
vn 0.972222 0.202605 -0.117203
vn -0.930486 -0.0049 0.366295
vn 0.230409 0.022401 0.972836
vn -0.319414 0.184708 -0.92944
vn 0.933306 0.215001 -0.287602
vn -0.64721 0.435007 0.62601
vn 0.415092 0.074999 0.906683
vn -0.295396 0.328596 -0.897088
vn 0.8092 0.5523 -0.2004
vn -0.882183 0.197496 0.427492
vn 0.160999 -0.516697 0.840895
vn -0.212998 -0.340797 0.915691
vn -0.21061 0.756437 -0.61923
vn 0.773485 0.562289 -0.292494
vn -0.274201 0.961204 -0.03
vn 0.973374 0.182195 -0.139096
vn -0.907016 0.269205 0.323806
vn -0.057802 0.974635 0.216208
vn -0.980316 0.135602 -0.143502
vn 0.901617 0.200404 -0.383307
vn -0.172195 -0.791076 -0.586982
vn -0.866548 0.396122 -0.303617
vn -0.086503 -0.748627 -0.657324
vn 0.047597 0.852552 0.520471
vn 0.915902 -0.320401 0.241801
vn -0.357285 0.756569 -0.547678
vn 0.0144 -0.603691 -0.797088
vn -0.0136 0.623722 0.781528
vn 0.438188 -0.687582 0.578984
vn 0.234209 0.657826 -0.715829
vn 0.381991 -0.667285 -0.639386
vn -0.218614 0.64884 0.728845
vn 0.0133 -0.756203 0.654202
vn 0.592274 0.46718 -0.656471
vn 0.536725 -0.819538 -0.200709
vn -0.187599 0.949794 0.250398
vn -0.364881 -0.57617 0.731362
vn 0.937288 -0.234697 0.257697
vn 0.815508 -0.065701 -0.575005
vn 0.452817 -0.242009 0.858131
vn -0.915984 0.154697 -0.370193
vn -0.806499 0.563899 0.1777
vn 0.798952 -0.591564 -0.108294
vn 0.592434 0.438325 0.675939
vn 0.359988 0.580481 0.730377
vn 0.533011 -0.845817 0.0222
vn 0.595279 -0.605879 0.527782
vn -0.486085 0.859474 -0.158195
vn -0.838188 0.524292 -0.150198
vn -0.725921 0.667419 -0.166105
vn -0.514995 -0.700393 -0.494195
vn -0.399878 -0.764059 -0.506273
vn -0.103101 -0.627808 -0.77151
vn -0.999875 -0.0007 0.0158
vn 0.455897 -0.880795 0.127899
vn -0.894812 0.264704 0.359505
vn 0.165205 0.820925 -0.546617
vn 0.040199 0.877175 -0.478486
vn -0.684865 0.219689 0.694764
vn -0.564415 0.200305 0.800821
vn 0.80093 -0.513219 -0.308412
vn 0.666864 -0.361781 -0.651465
vn 0.7044 -0.2794 -0.6525
vn -0.100303 -0.636621 0.764626
vn 0.024 -0.765313 0.643211
vn -0.0055 -0.991926 0.126703
vn 0.859188 -0.441794 0.258097
vn -0.587794 0.317297 0.744192
vn 0.993497 -0.112 0.0205
vn -0.036898 -0.033499 0.998758
vn -0.147392 0.008 0.989046
vn 0.881314 -0.436407 -0.181203
vn 0.914618 -0.404308 -0.003
vn -0.292002 -0.436103 0.851205
vn 0.051599 -0.995171 -0.083498
vn -0.866505 0.486603 0.111301
vn -0.939724 0.217906 -0.263507
vn -0.996637 0.065902 -0.048702
vn -0.973267 -0.216493 0.076697
vn 0.0075 -0.177305 -0.984127
vn 0.183601 -0.294002 -0.938005
vn -0.097001 0.067201 -0.993013
vn -0.516893 -0.592792 -0.617592
vn -0.821759 -0.297885 -0.485775
vn 0.823095 -0.555297 -0.118999
vn -0.995656 0.036398 0.085696
vn 0.027299 0.862283 -0.50569
vn 0.417814 0.908531 -0.0019
vn -0.837272 -0.123396 0.532682
vn -0.650878 -0.530082 0.543481
vn 0.692196 -0.387598 0.608796
vn 0.970894 -0.228399 -0.0721
vn 0.843707 0.0463 -0.534804
vn 0.820908 0.210102 -0.531005
vn 0.94865 0.253887 -0.18869
vn -0.037701 -0.762817 0.645514
vn 0.027499 -0.88807 0.458885
vn -0.0069 -0.661401 -0.750001
vn 0.402111 -0.253407 -0.879825
vn 0.947406 -0.232802 0.219602
vn -0.894701 -0.0637 0.4421
vn 0 -0.719889 -0.694089
vn 0 0.992106 0.125401
vn -0.674207 0.714108 -0.188402
vn 0.401606 -0.297304 -0.866212
vn -0.57888 0.796172 -0.176094
vn 0.448324 -0.290515 -0.845344
vn -0.154101 0.984305 -0.086
vn 0.167196 0.979576 -0.111697
vn 0.158697 -0.235696 -0.958782
vn 0.582308 -0.0241 0.812611
vn -0.207605 -0.91222 0.353208
vn 0 0.27851 0.960433
vn -0.026899 0.196891 0.980056
vn -0.613688 0.206796 0.761986
vn -0.214097 0.426695 0.878689
vn 0.182795 0.281892 0.941872
vn 0.672682 -0.717781 0.179695
vn 0 -0.99129 -0.131699
vn 0.581603 -0.795404 0.170501
vn 0.160198 -0.983288 0.086499
vn -0.149203 -0.983521 0.102102
vn -0.296908 -0.943725 0.145704
vn 0.433321 -0.844541 0.314615
vn 0 -0.93984 0.341615
vn 0.377692 -0.712385 0.591487
vn 0.193508 -0.900635 0.389115
vn -0.084902 -0.984619 0.152703
vn 0.674207 0.714108 -0.188402
vn -0.401606 -0.297304 -0.866212
vn 0.3762 0.9099 -0.1748
vn 0.111198 -0.254396 -0.960686
vn -0.388512 0.916728 -0.093103
vn -0.68957 0.708069 -0.152093
vn 0.214508 -0.216008 -0.952537
vn -0.623412 -0.381308 0.682614
vn 0.592402 -0.675202 0.439502
vn 0.026899 0.196891 0.980056
vn 0.531003 0.234401 0.814305
vn -0.166197 0.443792 0.880584
vn -0.487582 0.093397 0.868068
vn -0.672682 -0.717781 0.179695
vn -0.378991 -0.910079 0.167696
vn 0.394091 -0.915179 0.084498
vn 0.686201 -0.715001 0.1338
vn 0.723322 -0.64142 0.255708
vn -0.433321 -0.844541 0.314615
vn -0.297394 -0.747486 0.593988
vn 0.206404 -0.884117 0.419208
vn 0.584406 -0.777708 0.231602
vt 0.5637 0.5552
vt 0.6838 0.5553
vt 0.6833 0.6515
vt 0.5639 0.6517
vt 0.6838 0.5553
vt 0.5638 0.5551
vt 0.564 0.6509
vt 0.6833 0.6515
vt 0.5638 0.5551
vt 0.6844 0.555
vt 0.6839 0.6514
vt 0.564 0.6509
vt 0.6844 0.555
vt 0.5636 0.5551
vt 0.5637 0.6509
vt 0.6839 0.6514
vt 0.5636 0.5551
vt 0.6834 0.5553
vt 0.683 0.6515
vt 0.5637 0.6509
vt 0.6834 0.5553
vt 0.5635 0.5552
vt 0.5637 0.6517
vt 0.683 0.6515
vt 0.5635 0.5552
vt 0.6834 0.5553
vt 0.683 0.6515
vt 0.5637 0.6517
vt 0.6834 0.5553
vt 0.5636 0.5551
vt 0.5637 0.651
vt 0.683 0.6515
vt 0.5636 0.5551
vt 0.6844 0.555
vt 0.6839 0.6514
vt 0.5637 0.651
vt 0.6844 0.555
vt 0.5638 0.5551
vt 0.564 0.651
vt 0.6839 0.6514
vt 0.5638 0.5551
vt 0.6838 0.5553
vt 0.6833 0.6515
vt 0.564 0.651
vt 0.6838 0.5553
vt 0.5637 0.5552
vt 0.5639 0.6517
vt 0.6833 0.6515
vt 0.8386 0.3073
vt 0.7683 0.2885
vt 0.8386 0.026
vt 0.9089 0.0448
vt 0.9604 0.0963
vt 0.9089 0.2885
vt 0.9604 0.237
vt 0.9793 0.1667
vt 0.7168 0.237
vt 0.6979 0.1667
vt 0.7168 0.0963
vt 0.7683 0.0448
vt 0.1179 0.6835
vt 0.1763 0.7551
vt 0.1227 0.7144
vt 0.182 0.7783
vt 0.0074 0.7143
vt 0.0039 0.6851
vt 0.0164 0.7291
vt 0.0112 0.7206
vt 0.165 0.6291
vt 0.1794 0.6374
vt 0.1202 0.6261
vt 0.1186 0.6252
vt 0.1293 0.6903
vt 0.1421 0.7334
vt 0.0967 0.7435
vt 0.1202 0.6943
vt 0.135 0.7272
vt 0.0887 0.7389
vt 0.0922 0.7301
vt 0.1134 0.6904
vt 0.0685 0.6764
vt 0.0715 0.6782
vt 0.0746 0.7294
vt 0.0471 0.7228
vt 0.0687 0.7266
vt 0.0462 0.7224
vt 0.0944 0.7315
vt 0.0092 0.7053
vt 0.0112 0.7202
vt 0.0452 0.7218
vt 0.0162 0.729
vt 0.1624 0.6518
vt 0.0931 0.6616
vt 0.0469 0.6033
vt 0.0437 0.6014
vt 0.0311 0.6114
vt 0.0359 0.6142
vt 0.0883 0.6591
vt 0.0901 0.6181
vt 0.0912 0.6187
vt 0.0587 0.6315
vt 0.0587 0.6318
vt 0.0115 0.7203
vt 0.2283 0.6369
vt 0.2045 0.6062
vt 0.2474 0.6616
vt 0.2367 0.6392
vt 0.2488 0.5647
vt 0.2137 0.5499
vt 0.293 0.5728
vt 0.2711 0.5663
vt 0.226 0.4779
vt 0.1789 0.4646
vt 0.2855 0.5092
vt 0.2498 0.493
vt 0.2729 0.3826
vt 0.2326 0.3369
vt 0.2032 0.4366
vt 0.3348 0.4181
vt 0.4032 0.33
vt 0.3939 0.4003
vt 0.2903 0.3744
vt 0.3743 0.3131
vt 0.523 0.3987
vt 0.5337 0.3516
vt 0.5434 0.3583
vt 0.5525 0.2952
vt 0.7042 0.4318
vt 0.6946 0.3668
vt 0.665 0.4341
vt 0.673 0.3921
vt 0.7749 0.4954
vt 0.7943 0.443
vt 0.732 0.4783
vt 0.7395 0.4349
vt 0.7827 0.4958
vt 0.8381 0.4758
vt 0.8258 0.5191
vt 0.7897 0.4768
vt 0.8426 0.52
vt 0.8683 0.4921
vt 0.8425 0.5275
vt 0.8663 0.4922
vt 0.9629 0.5685
vt 0.2703 0.4288
vt 0.2193 0.4511
vt 0.261 0.424
vt 0.3341 0.3108
vt 0.1234 0.3748
vt 0.1639 0.4046
vt 0.1075 0.3917
vt 0.1629 0.3836
vt 0.1785 0.3913
vt 0.1633 0.4006
vt 0.1236 0.395
vt 0.1714 0.4081
vt 0.1812 0.3848
vt 0.1279 0.3748
vt 0.2025 0.3946
vt 0.092 0.3471
vt 0.0934 0.3251
vt 0.1525 0.4789
vt 0.1697 0.4905
vt 0.1912 0.4588
vt 0.1693 0.4517
vt 0.1852 0.4476
vt 0.1695 0.4694
vt 0.1838 0.4439
vt 0.2021 0.442
vt 0.1468 0.4664
vt 0.1695 0.433
vt 0.1941 0.4309
vt 0.0943 0.4699
vt 0.0799 0.4848
vt 0.3734 0.0907
vt 0.3762 0.1483
vt 0.3425 0.0944
vt 0.4033 0.1332
vt 0.3988 0.1601
vt 0.3357 0.2595
vt 0.3968 0.245
vt 0.4036 0.1433
vt 0.3742 0.1022
vt 0.3877 0.1657
vt 0.4025 0.2774
vt 0.4316 0.1443
vt 0.3959 0.0858
vt 0.4174 0.1769
vt 0.4704 0.2602
vt 0.4267 0.0082
vt 0.4164 0.0023
vt 0.3471 0.2154
vt 0.3542 0.2405
vt 0.4135 0.1794
vt 0.3928 0.1584
vt 0.4257 0.1598
vt 0.3264 0.2737
vt 0.361 0.2137
vt 0.405 0.1573
vt 0.4335 0.1684
vt 0.4142 0.2661
vt 0.3393 0.1973
vt 0.4038 0.1342
vt 0.4443 0.143
vt 0.4561 0.2533
vt 0.2206 0.2218
vt 0.2144 0.2308
vt 0.9905 0.7423
vt 0.9905 0.8494
vt 0.7706 0.8884
vt 0.747 0.7751
vt 0.5727 0.9476
vt 0.494 0.8
vt 0.5268 0.9548
vt 0.2557 0.9106
vt 0.2595 0.7428
vt 0.247 0.9015
vt 0.0207 0.8313
vt 0.9905 0.8795
vt 0.7884 0.9311
vt 0.6324 0.9881
vt 0.5651 0.9953
vt 0.4028 0.9552
vt 0.7706 0.8764
vt 0.9905 0.8361
vt 0.5727 0.9356
vt 0.5268 0.9427
vt 0.2559 0.8888
vt 0.2545 0.8823
vt 0.7884 0.919
vt 0.9905 0.8662
vt 0.6324 0.9831
vt 0.5651 0.9902
vt 0.4152 0.9542
vt 0.7753 0.8884
vt 0.7516 0.7751
vt 0.5774 0.9476
vt 0.4986 0.8
vt 0.5393 0.9476
vt 0.3274 0.8848
vt 0.2653 0.7444
vt 0.329 0.8805
vt 0.0201 0.8337
vt 0.793 0.9311
vt 0.637 0.9881
vt 0.5776 0.9881
vt 0.3961 0.9174
vt 0.7753 0.8764
vt 0.5774 0.9356
vt 0.5393 0.9355
vt 0.3419 0.8642
vt 0.3451 0.8632
vt 0.793 0.919
vt 0.637 0.9831
vt 0.5776 0.983
vt 0.4143 0.9034
f 145/145/145 147/147/147 146/146/146
f 147/147/147 145/145/145 148/148/148
f 149/149/149 151/151/151 150/150/150
f 151/151/151 149/149/149 152/152/152
f 153/153/153 155/155/155 154/154/154
f 155/155/155 153/153/153 156/156/156
f 157/157/157 159/159/159 158/158/158
f 159/159/159 157/157/157 160/160/160
f 161/161/161 163/163/163 162/162/162
f 163/163/163 161/161/161 164/164/164
f 165/165/165 167/167/167 166/166/166
f 167/167/167 165/165/165 168/168/168
f 169/169/169 171/171/171 170/170/170
f 171/171/171 169/169/169 172/172/172
f 173/173/173 175/175/175 174/174/174
f 175/175/175 173/173/173 176/176/176
f 177/177/177 179/179/179 178/178/178
f 179/179/179 177/177/177 180/180/180
f 181/181/181 183/183/183 182/182/182
f 183/183/183 181/181/181 184/184/184
f 185/185/185 187/187/187 186/186/186
f 187/187/187 185/185/185 188/188/188
f 189/189/189 191/191/191 190/190/190
f 191/191/191 189/189/189 192/192/192
f 193/193/193 195/195/195 194/194/194
f 193/193/193 196/196/196 195/195/195
f 193/193/193 197/197/197 196/196/196
f 193/193/193 198/198/198 197/197/197
f 199/199/199 197/197/197 198/198/198
f 199/199/199 200/200/200 197/197/197
f 201/201/201 203/203/203 202/202/202
f 201/201/201 204/204/204 203/203/203
f 194/194/194 204/204/204 201/201/201
f 194/194/194 195/195/195 204/204/204
f 205/205/205 207/207/207 206/206/206
f 206/206/206 207/207/207 208/208/208
f 209/209/209 211/211/211 210/210/210
f 211/211/211 209/209/209 212/212/212
f 213/213/213 215/215/215 214/214/214
f 215/215/215 213/213/213 216/216/216
f 217/217/217 218/218/218 208/208/208
f 219/219/219 217/217/217 220/220/220
f 217/217/217 219/219/219 218/218/218
f 208/208/208 221/221/221 206/206/206
f 222/222/222 221/221/221 223/223/223
f 206/206/206 224/224/224 205/205/205
f 224/224/224 206/206/206 221/221/221
f 224/224/224 221/221/221 222/222/222
f 225/225/225 226/226/226 224/224/224
f 220/220/220 224/224/224 226/226/226
f 220/220/220 228/228/228 227/227/227
f 228/228/228 220/220/220 226/226/226
f 223/223/223 229/229/229 222/222/222
f 230/230/230 227/227/227 228/228/228
f 230/230/230 231/231/231 227/227/227
f 222/222/222 225/225/225 224/224/224
f 225/225/225 222/222/222 229/229/229
f 225/225/225 210/210/210 226/226/226
f 210/210/210 225/225/225 209/209/209
f 209/209/209 225/225/225 232/232/232
f 226/226/226 211/211/211 228/228/228
f 211/211/211 226/226/226 210/210/210
f 212/212/212 228/228/228 211/211/211
f 228/228/228 233/233/233 230/230/230
f 233/233/233 228/228/228 212/212/212
f 234/234/234 232/232/232 225/225/225
f 232/232/232 234/234/234 235/235/235
f 205/205/205 213/213/213 236/236/236
f 214/214/214 236/236/236 213/213/213
f 217/217/217 237/237/237 220/220/220
f 215/215/215 217/217/217 214/214/214
f 217/217/217 215/215/215 237/237/237
f 238/238/238 240/240/240 239/239/239
f 240/240/240 238/238/238 241/241/241
f 224/224/224 213/213/213 205/205/205
f 213/213/213 224/224/224 242/242/242
f 220/220/220 242/242/242 224/224/224
f 237/237/237 242/242/242 220/220/220
f 213/213/213 242/242/242 216/216/216
f 216/216/216 243/243/243 215/215/215
f 243/243/243 216/216/216 244/244/244
f 215/215/215 245/245/245 237/237/237
f 245/245/245 215/215/215 243/243/243
f 246/246/246 237/237/237 245/245/245
f 237/237/237 246/246/246 242/242/242
f 242/242/242 244/244/244 216/216/216
f 244/244/244 242/242/242 246/246/246
f 244/244/244 239/239/239 243/243/243
f 239/239/239 244/244/244 238/238/238
f 243/243/243 240/240/240 245/245/245
f 240/240/240 243/243/243 239/239/239
f 245/245/245 241/241/241 246/246/246
f 241/241/241 245/245/245 240/240/240
f 246/246/246 238/238/238 244/244/244
f 238/238/238 246/246/246 241/241/241
f 230/230/230 235/235/235 234/234/234
f 235/235/235 230/230/230 247/247/247
f 234/234/234 231/231/231 230/230/230
f 231/231/231 234/234/234 229/229/229
f 231/231/231 229/229/229 223/223/223
f 247/247/247 232/232/232 235/235/235
f 209/209/209 232/232/232 247/247/247
f 247/247/247 230/230/230 233/233/233
f 220/220/220 227/227/227 219/219/219
f 231/231/231 219/219/219 227/227/227
f 231/231/231 208/208/208 218/218/218
f 223/223/223 208/208/208 231/231/231
f 221/221/221 208/208/208 223/223/223
f 231/231/231 218/218/218 219/219/219
f 225/225/225 229/229/229 234/234/234
f 212/212/212 209/209/209 233/233/233
f 233/233/233 209/209/209 247/247/247
f 217/217/217 236/236/236 214/214/214
f 217/217/217 208/208/208 207/207/207
f 205/205/205 249/249/249 248/248/248
f 249/249/249 205/205/205 236/236/236
f 205/205/205 248/248/248 207/207/207
f 250/250/250 207/207/207 248/248/248
f 217/217/217 207/207/207 251/251/251
f 250/250/250 251/251/251 207/207/207
f 249/249/249 253/253/253 252/252/252
f 249/249/249 252/252/252 248/248/248
f 248/248/248 252/252/252 254/254/254
f 248/248/248 254/254/254 250/250/250
f 250/250/250 254/254/254 255/255/255
f 250/250/250 255/255/255 251/251/251
f 251/251/251 255/255/255 253/253/253
f 251/251/251 253/253/253 249/249/249
f 253/253/253 257/257/257 256/256/256
f 253/253/253 256/256/256 252/252/252
f 252/252/252 256/256/256 258/258/258
f 252/252/252 258/258/258 254/254/254
f 254/254/254 258/258/258 259/259/259
f 254/254/254 259/259/259 255/255/255
f 255/255/255 259/259/259 257/257/257
f 255/255/255 257/257/257 253/253/253
f 260/260/260 262/262/262 261/261/261
f 263/263/263 265/265/265 264/264/264
f 263/263/263 264/264/264 266/266/266
f 236/236/236 217/217/217 249/249/249
f 251/251/251 249/249/249 217/217/217
f 267/267/267 268/268/268 265/265/265
f 268/268/268 267/267/267 269/269/269
f 265/265/265 270/270/270 264/264/264
f 270/270/270 265/265/265 268/268/268
f 271/271/271 272/272/272 269/269/269
f 272/272/272 271/271/271 273/273/273
f 269/269/269 274/274/274 268/268/268
f 274/274/274 269/269/269 272/272/272
f 268/268/268 275/275/275 270/270/270
f 275/275/275 268/268/268 274/274/274
f 270/270/270 273/273/273 271/271/271
f 273/273/273 270/270/270 275/275/275
f 273/273/273 276/276/276 272/272/272
f 276/276/276 273/273/273 277/277/277
f 272/272/272 278/278/278 274/274/274
f 278/278/278 272/272/272 276/276/276
f 274/274/274 279/279/279 275/275/275
f 279/279/279 274/274/274 278/278/278
f 275/275/275 277/277/277 273/273/273
f 277/277/277 275/275/275 279/279/279
f 277/277/277 280/280/280 276/276/276
f 280/280/280 277/277/277 281/281/281
f 276/276/276 282/282/282 278/278/278
f 282/282/282 276/276/276 280/280/280
f 278/278/278 283/283/283 279/279/279
f 283/283/283 278/278/278 282/282/282
f 279/279/279 281/281/281 277/277/277
f 281/281/281 279/279/279 283/283/283
f 281/281/281 284/284/284 280/280/280
f 284/284/284 281/281/281 285/285/285
f 280/280/280 286/286/286 282/282/282
f 286/286/286 280/280/280 284/284/284
f 282/282/282 287/287/287 283/283/283
f 287/287/287 282/282/282 286/286/286
f 283/283/283 285/285/285 281/281/281
f 285/285/285 283/283/283 287/287/287
f 285/285/285 288/288/288 284/284/284
f 284/284/284 288/288/288 286/286/286
f 286/286/286 288/288/288 287/287/287
f 287/287/287 288/288/288 285/285/285
f 289/289/289 258/258/258 266/266/266
f 263/263/263 266/266/266 258/258/258
f 266/266/266 261/261/261 290/290/290
f 257/257/257 290/290/290 261/261/261
f 257/257/257 259/259/259 290/290/290
f 289/289/289 266/266/266 290/290/290
f 291/291/291 262/262/262 260/260/260
f 258/258/258 291/291/291 263/263/263
f 260/260/260 263/263/263 291/291/291
f 261/261/261 262/262/262 257/257/257
f 257/257/257 262/262/262 256/256/256
f 260/260/260 265/265/265 263/263/263
f 265/265/265 292/292/292 267/267/267
f 265/265/265 260/260/260 292/292/292
f 256/256/256 291/291/291 258/258/258
f 258/258/258 289/289/289 259/259/259
f 293/293/293 295/295/295 294/294/294
f 294/294/294 296/296/296 293/293/293
f 294/294/294 297/297/297 296/296/296
f 297/297/297 294/294/294 256/256/256
f 256/256/256 262/262/262 297/297/297
f 295/295/295 299/299/299 298/298/298
f 298/298/298 294/294/294 295/295/295
f 294/294/294 298/298/298 300/300/300
f 294/294/294 300/300/300 256/256/256
f 299/299/299 302/302/302 301/301/301
f 301/301/301 298/298/298 299/299/299
f 298/298/298 301/301/301 303/303/303
f 303/303/303 300/300/300 298/298/298
f 300/300/300 303/303/303 291/291/291
f 291/291/291 256/256/256 300/300/300
f 302/302/302 293/293/293 296/296/296
f 296/296/296 301/301/301 302/302/302
f 301/301/301 296/296/296 297/297/297
f 297/297/297 303/303/303 301/301/301
f 303/303/303 297/297/297 262/262/262
f 262/262/262 291/291/291 303/303/303
f 299/299/299 295/295/295 304/304/304
f 302/302/302 299/299/299 304/304/304
f 295/295/295 302/302/302 304/304/304
f 295/295/295 293/293/293 305/305/305
f 293/293/293 302/302/302 305/305/305
f 302/302/302 295/295/295 305/305/305
f 306/306/306 308/308/308 307/307/307
f 308/308/308 306/306/306 309/309/309
f 308/308/308 309/309/309 310/310/310
f 310/310/310 259/259/259 308/308/308
f 259/259/259 310/310/310 290/290/290
f 307/307/307 312/312/312 311/311/311
f 312/312/312 307/307/307 308/308/308
f 308/308/308 313/313/313 312/312/312
f 308/308/308 289/289/289 313/313/313
f 289/289/289 308/308/308 259/259/259
f 311/311/311 315/315/315 314/314/314
f 315/315/315 311/311/311 312/312/312
f 312/312/312 316/316/316 315/315/315
f 316/316/316 312/312/312 313/313/313
f 313/313/313 289/289/289 316/316/316
f 314/314/314 309/309/309 306/306/306
f 309/309/309 314/314/314 315/315/315
f 315/315/315 310/310/310 309/309/309
f 310/310/310 315/315/315 316/316/316
f 316/316/316 290/290/290 310/310/310
f 290/290/290 316/316/316 289/289/289
f 311/311/311 317/317/317 307/307/307
f 314/314/314 317/317/317 311/311/311
f 307/307/307 317/317/317 314/314/314
f 307/307/307 318/318/318 306/306/306
f 306/306/306 318/318/318 314/314/314
f 314/314/314 318/318/318 307/307/307
f 319/319/319 321/321/321 320/320/320
f 320/320/320 322/322/322 319/319/319
f 320/320/320 323/323/323 322/322/322
f 323/323/323 320/320/320 324/324/324
f 324/324/324 325/325/325 323/323/323
f 321/321/321 327/327/327 326/326/326
f 326/326/326 320/320/320 321/321/321
f 320/320/320 326/326/326 328/328/328
f 320/320/320 328/328/328 329/329/329
f 329/329/329 324/324/324 320/320/320
f 327/327/327 331/331/331 330/330/330
f 330/330/330 326/326/326 327/327/327
f 326/326/326 330/330/330 332/332/332
f 332/332/332 328/328/328 326/326/326
f 328/328/328 332/332/332 333/333/333
f 333/333/333 329/329/329 328/328/328
f 331/331/331 319/319/319 322/322/322
f 322/322/322 330/330/330 331/331/331
f 330/330/330 322/322/322 323/323/323
f 323/323/323 332/332/332 330/330/330
f 332/332/332 323/323/323 325/325/325
f 325/325/325 333/333/333 332/332/332
f 327/327/327 321/321/321 334/334/334
f 331/331/331 327/327/327 334/334/334
f 321/321/321 331/331/331 334/334/334
f 321/321/321 319/319/319 335/335/335
f 319/319/319 331/331/331 335/335/335
f 331/331/331 321/321/321 335/335/335
f 336/336/336 338/338/338 337/337/337
f 338/338/338 336/336/336 339/339/339
f 338/338/338 339/339/339 340/340/340
f 340/340/340 341/341/341 338/338/338
f 341/341/341 340/340/340 325/325/325
f 337/337/337 343/343/343 342/342/342
f 343/343/343 337/337/337 338/338/338
f 338/338/338 344/344/344 343/343/343
f 338/338/338 345/345/345 344/344/344
f 345/345/345 338/338/338 341/341/341
f 342/342/342 347/347/347 346/346/346
f 347/347/347 342/342/342 343/343/343
f 343/343/343 348/348/348 347/347/347
f 348/348/348 343/343/343 344/344/344
f 344/344/344 349/349/349 348/348/348
f 349/349/349 344/344/344 345/345/345
f 346/346/346 339/339/339 336/336/336
f 339/339/339 346/346/346 347/347/347
f 347/347/347 340/340/340 339/339/339
f 340/340/340 347/347/347 348/348/348
f 348/348/348 325/325/325 340/340/340
f 325/325/325 348/348/348 349/349/349
f 342/342/342 350/350/350 337/337/337
f 346/346/346 350/350/350 342/342/342
f 337/337/337 350/350/350 346/346/346
f 337/337/337 351/351/351 336/336/336
f 336/336/336 351/351/351 346/346/346
f 346/346/346 351/351/351 337/337/337
f 270/270/270 345/345/345 264/264/264
f 270/270/270 349/349/349 345/345/345
f 270/270/270 271/271/271 349/349/349
f 325/325/325 349/349/349 271/271/271
f 324/324/324 329/329/329 267/267/267
f 267/267/267 329/329/329 269/269/269
f 329/329/329 333/333/333 269/269/269
f 333/333/333 271/271/271 269/269/269
f 325/325/325 271/271/271 333/333/333
f 264/264/264 345/345/345 341/341/341
f 264/264/264 341/341/341 266/266/266
f 341/341/341 325/325/325 261/261/261
f 341/341/341 261/261/261 266/266/266
f 260/260/260 324/324/324 267/267/267
f 324/324/324 261/261/261 325/325/325
f 261/261/261 324/324/324 260/260/260
f 352/352/352 354/354/354 353/353/353
f 354/354/354 352/352/352 355/355/355
f 355/355/355 356/356/356 354/354/354
f 356/356/356 355/355/355 357/357/357
f 357/357/357 358/358/358 356/356/356
f 357/357/357 359/359/359 358/358/358
f 359/359/359 357/357/357 360/360/360
f 360/360/360 361/361/361 359/359/359
f 361/361/361 360/360/360 362/362/362
f 353/353/353 364/364/364 363/363/363
f 364/364/364 353/353/353 354/354/354
f 354/354/354 365/365/365 364/364/364
f 365/365/365 354/354/354 356/356/356
f 356/356/356 366/366/366 365/365/365
f 366/366/366 356/356/356 358/358/358
f 358/358/358 367/367/367 366/366/366
f 367/367/367 358/358/358 359/359/359
f 359/359/359 361/361/361 367/367/367
f 352/352/352 368/368/368 355/355/355
f 368/368/368 352/352/352 369/369/369
f 355/355/355 370/370/370 357/357/357
f 370/370/370 355/355/355 368/368/368
f 371/371/371 357/357/357 370/370/370
f 357/357/357 372/372/372 360/360/360
f 372/372/372 357/357/357 371/371/371
f 360/360/360 373/373/373 362/362/362
f 373/373/373 360/360/360 372/372/372
f 369/369/369 374/374/374 368/368/368
f 374/374/374 369/369/369 375/375/375
f 368/368/368 376/376/376 370/370/370
f 376/376/376 368/368/368 374/374/374
f 370/370/370 377/377/377 371/371/371
f 377/377/377 370/370/370 376/376/376
f 371/371/371 378/378/378 372/372/372
f 378/378/378 371/371/371 377/377/377
f 373/373/373 372/372/372 378/378/378
f 362/362/362 373/373/373 361/361/361
f 361/361/361 378/378/378 367/367/367
f 378/378/378 361/361/361 373/373/373
f 367/367/367 377/377/377 366/366/366
f 377/377/377 367/367/367 378/378/378
f 366/366/366 376/376/376 365/365/365
f 376/376/376 366/366/366 377/377/377
f 365/365/365 374/374/374 364/364/364
f 374/374/374 365/365/365 376/376/376
f 364/364/364 375/375/375 363/363/363
f 375/375/375 364/364/364 374/374/374
f 352/352/352 353/353/353 379/379/379
f 379/379/379 380/380/380 352/352/352
f 380/380/380 379/379/379 381/381/381
f 381/381/381 382/382/382 380/380/380
f 382/382/382 381/381/381 383/383/383
f 382/382/382 383/383/383 384/384/384
f 384/384/384 385/385/385 382/382/382
f 385/385/385 384/384/384 386/386/386
f 386/386/386 387/387/387 385/385/385
f 353/353/353 363/363/363 388/388/388
f 388/388/388 379/379/379 353/353/353
f 379/379/379 388/388/388 389/389/389
f 389/389/389 381/381/381 379/379/379
f 381/381/381 389/389/389 390/390/390
f 390/390/390 383/383/383 381/381/381
f 383/383/383 390/390/390 391/391/391
f 391/391/391 384/384/384 383/383/383
f 384/384/384 391/391/391 386/386/386
f 352/352/352 380/380/380 392/392/392
f 392/392/392 369/369/369 352/352/352
f 380/380/380 382/382/382 393/393/393
f 393/393/393 392/392/392 380/380/380
f 394/394/394 393/393/393 382/382/382
f 382/382/382 385/385/385 395/395/395
f 395/395/395 394/394/394 382/382/382
f 385/385/385 387/387/387 396/396/396
f 396/396/396 395/395/395 385/385/385
f 369/369/369 392/392/392 397/397/397
f 397/397/397 375/375/375 369/369/369
f 392/392/392 393/393/393 398/398/398
f 398/398/398 397/397/397 392/392/392
f 393/393/393 394/394/394 399/399/399
f 399/399/399 398/398/398 393/393/393
f 394/394/394 395/395/395 400/400/400
f 400/400/400 399/399/399 394/394/394
f 396/396/396 400/400/400 395/395/395
f 387/387/387 386/386/386 396/396/396
f 386/386/386 391/391/391 400/400/400
f 400/400/400 396/396/396 386/386/386
f 391/391/391 390/390/390 399/399/399
f 399/399/399 400/400/400 391/391/391
f 390/390/390 389/389/389 398/398/398
f 398/398/398 399/399/399 390/390/390
f 389/389/389 388/388/388 397/397/397
f 397/397/397 398/398/398 389/389/389
f 388/388/388 363/363/363 375/375/375
f 375/375/375 397/397/397 388/388/388

g ston01
# texture: ston01.jpg
v -4.473785 162.7817 -37.13071
v -19.14261 150.1484 -45.77399
v -37.4577 138.2797 -26.4415
v -32.9585 113.2561 -68.41458
v -51.19589 136.1691 -47.4382
v -40.44241 77.91411 -36.44519
v -12.86841 142.3794 -17.32449
v -19.0578 86.71071 -19.00241
v 2.051605 87.7505 -12.1904
v 52.5369 134.5138 -68.26682
v 38.5968 98.36211 -14.1069
v 50.75891 94.9845 -50.91299
v 36.63611 135.5763 -80.4639
v 47.81628 107.6839 -80.06241
v 22.52289 90.6525 -87.78571
v -1.776611 87.16031 -77.54199
v -1.776611 87.16031 -77.54199
v -36.6814 67.02721 -95.9574
v -55.44119 59.7936 -74.99359
v -36.6814 67.02721 -95.9574
v -9.345398 8.5958 -120.7637
v -59.10721 8.5857 -127.7526
v -59.10721 8.5857 -127.7526
v -97.14801 8.5875 -59.6795
v -69.3175 49.3648 -41.84109
v -39.25189 49.3019 -7.264008
v -83.36151 8.5719 -12.29401
v -32.6113 8.5875 18.13831
v -21.61011 54.649 -4.133209
v 20.07681 51.164 -28.44751
v 12.58331 8.5674 -11.76959
v 50.44171 8.579 -8.447998
v 50.96219 58.1675 -32.44611
v 70.33841 71.49561 -62.11621
v 75.79941 8.5694 -42.51349
v 89.3082 8.6048 -95.82001
v 58.35721 93.21141 -99.99789
v -0.690613 62.5413 -104.9128
v 47.90509 8.5897 -128.3833
vn -0.085601 0.99431 0.063401
vn -0.338095 0.724889 -0.600191
vn -0.645798 0.465099 0.605498
vn -0.252709 0.485818 -0.836731
vn -0.84159 0.535794 -0.068199
vn -0.650369 0.22229 0.726366
vn 0.024899 0.374084 0.927061
vn -0.4393 0.2258 0.8695
vn 0.0122 0.0099 0.999877
vn 0.870279 0.486488 0.077098
vn 0.568893 0.060399 0.82019
vn 0.938748 0.219911 0.265314
vn 0.0106 0.494818 -0.868932
vn 0.718779 0.458886 -0.522284
vn -0.234595 0.516888 -0.823281
vn -0.1727 0.523401 -0.834402
vn -0.1727 0.523401 -0.834402
vn -0.267089 0.532979 -0.802868
vn -0.772474 0.430686 -0.466684
vn -0.267089 0.532979 -0.802868
vn -0.065703 0.350814 -0.934137
vn -0.507413 0.545914 -0.666717
vn -0.507413 0.545914 -0.666717
vn -0.832496 0.542798 -0.111
vn -0.79998 0.486588 0.351091
vn -0.502674 0.506073 0.700863
vn -0.667694 0.511696 0.540696
vn -0.084502 0.42631 0.900622
vn 0.122805 0.312214 0.942041
vn 0.231802 0.0383 0.972009
vn 0.333298 0.304798 0.892194
vn 0.260295 0.396893 0.880184
vn 0.644116 0.202205 0.737718
vn 0.880211 0.384705 0.277904
vn 0.843788 0.232097 0.483893
vn 0.93742 0.254906 -0.237205
vn 0.383995 0.611193 -0.692092
vn -0.195795 0.520388 -0.83118
vn 0.139 0.288299 -0.947398
vt 0.2906 0.8106
vt 0.224 0.7626
vt 0.2117 0.7174
vt 0.085 0.6223
vt 0.1473 0.7094
vt 0.1895 0.4879
vt 0.2721 0.733
vt 0.2573 0.5214
vt 0.3069 0.5253
vt 0.5599 0.7031
vt 0.3887 0.5657
vt 0.4991 0.5528
vt 0.6109 0.7072
vt 0.6011 0.6011
vt 0.6646 0.5364
vt 0.7614 0.5231
vt -0.2386 0.5231
vt -0.0591 0.4466
vt 0.0541 0.4191
vt 0.9409 0.4466
vt 0.8098 0.2244
vt 0.9128 0.2244
vt -0.0872 0.2244
vt 0.0911 0.2244
vt 0.1409 0.3794
vt 0.2296 0.3792
vt 0.1732 0.2243
vt 0.2542 0.2244
vt 0.2606 0.3995
vt 0.3671 0.3862
vt 0.3306 0.2243
vt 0.4016 0.2244
vt 0.4468 0.4129
vt 0.5461 0.4635
vt 0.501 0.2243
vt 0.6158 0.2245
vt 0.6444 0.5461
vt 0.7836 0.4295
vt 0.7014 0.2244
f 401/401/401 403/403/403 402/402/402
f 402/402/402 405/405/405 404/404/404
f 402/402/402 403/403/403 405/405/405
f 403/403/403 406/406/406 405/405/405
f 401/401/401 407/407/407 403/403/403
f 403/403/403 408/408/408 406/406/406
f 403/403/403 407/407/407 408/408/408
f 407/407/407 409/409/409 408/408/408
f 401/401/401 410/410/410 407/407/407
f 407/407/407 411/411/411 409/409/409
f 407/407/407 410/410/410 411/411/411
f 410/410/410 412/412/412 411/411/411
f 401/401/401 413/413/413 410/410/410
f 410/410/410 414/414/414 412/412/412
f 410/410/410 413/413/413 414/414/414
f 413/413/413 415/415/415 414/414/414
f 401/401/401 402/402/402 413/413/413
f 413/413/413 416/416/416 415/415/415
f 413/413/413 402/402/402 417/417/417
f 402/402/402 404/404/404 417/417/417
f 404/404/404 419/419/419 418/418/418
f 420/420/420 422/422/422 421/421/421
f 418/418/418 419/419/419 423/423/423
f 419/419/419 424/424/424 423/423/423
f 406/406/406 426/426/426 425/425/425
f 425/425/425 427/427/427 424/424/424
f 425/425/425 426/426/426 427/427/427
f 426/426/426 428/428/428 427/427/427
f 409/409/409 430/430/430 429/429/429
f 429/429/429 431/431/431 428/428/428
f 429/429/429 430/430/430 431/431/431
f 430/430/430 432/432/432 431/431/431
f 412/412/412 434/434/434 433/433/433
f 433/433/433 435/435/435 432/432/432
f 433/433/433 434/434/434 435/435/435
f 434/434/434 436/436/436 435/435/435
f 415/415/415 438/438/438 437/437/437
f 437/437/437 439/439/439 436/436/436
f 437/437/437 438/438/438 439/439/439
f 438/438/438 421/421/421 439/439/439
f 424/424/424 419/419/419 425/425/425
f 425/425/425 405/405/405 406/406/406
f 425/425/425 419/419/419 405/405/405
f 419/419/419 404/404/404 405/405/405
f 428/428/428 426/426/426 429/429/429
f 429/429/429 408/408/408 409/409/409
f 429/429/429 426/426/426 408/408/408
f 426/426/426 406/406/406 408/408/408
f 432/432/432 430/430/430 433/433/433
f 433/433/433 411/411/411 412/412/412
f 433/433/433 430/430/430 411/411/411
f 430/430/430 409/409/409 411/411/411
f 436/436/436 434/434/434 437/437/437
f 437/437/437 414/414/414 415/415/415
f 437/437/437 434/434/434 414/414/414
f 434/434/434 412/412/412 414/414/414
f 421/421/421 438/438/438 420/420/420
f 418/418/418 417/417/417 404/404/404
f 420/420/420 438/438/438 416/416/416
f 438/438/438 415/415/415 416/416/416

g ston02
# texture: ston02.jpg
v -11.95144 26.50122 129.94
v 4.860644 26.44589 105.605
v 1.285682 164.4561 86.95869
v -8.376416 167.2085 91.84928
v 21.67268 26.38139 115.6275
v 10.94778 171.5522 79.41959
v -0.528707 231.6899 63.40149
v -6.562007 231.6899 64.3086
v 5.504593 239.1991 50.07419
v -1.349605 261.5062 37.1938
v -5.741204 258.819 35.18
v 3.041997 259.3477 37.8511
v -2.269501 273.1411 7.8906
v -4.821301 273.1411 7.8906
v 0.2822 277.4191 9.125202
v -7.372999 277.4191 9.125202
v -4.425301 271.7236 -15.2574
v -6.185001 273.32 -15.3417
v -10.1328 266.7931 37.8511
v -12.59531 240.2448 60.5075
v -0.9058 273.32 -15.3417
v -2.665501 270.3493 -15.1848
v -18.03862 171.5522 83.42019
v -28.76354 26.38141 115.6276
v -86.1093 37.4527 -141.5469
v -143.4044 35.2767 -83.8798
v -126.5906 39.0606 -11.8945
v -82.6705 44.4969 -72.7469
v -166.1939 36.086 -6.2771
v -142.6695 33.615 78.10381
v -109.0278 43.3008 30.2869
v -54.0229 43.3798 -48.6652
v -101.7221 34.4614 118.8207
v -81.5437 38.3435 92.8795
v -52.5482 35.4909 34.6673
v -83.3434 36.2505 137.0846
v -31.9692 35.6843 107.5431
v -25.3127 38.8133 62.6927
v -29.9403 45.6142 153.6561
v -19.814 45.6142 -37.5108
v -2.5415 39.9405 70.3838
v -3.891201 42.5623 -32.0352
v -27.788 43.6675 -37.6532
v -30.1781 41.7366 -74.1361
v -1.6509 44.996 161.8118
v 0.0459 34.7374 115.0204
v -4.515699 37.4793 -111.52
v -6.407999 36.086 -162.2957
v 77.2479 37.4527 -139.5541
v 128.8568 39.0606 -20.6952
v 140.9418 35.2767 -83.0362
v 68.4046 44.4969 -76.2912
v 145.2122 33.6151 79.5025
v 159.3984 36.086 -2.288002
v 108.7795 43.3008 17.7145
v 61.2738 43.3799 -48.6645
v 113.033 34.4614 107.7298
v 72.3078 38.3435 87.778
v 51.1615 35.491 31.0002
v 79.5011 36.2505 137.3784
v 25.2154 35.6843 106.2151
v 16.04 38.8133 62.6927
v 32.4596 45.6142 153.0225
v 10.2937 45.6142 -36.2536
v -2.5415 39.9405 70.3838
v -3.891201 42.5623 -32.0352
v 23.3324 43.6675 -36.4004
v 21.9885 41.7366 -71.3851
v -1.6509 44.996 161.8118
v 0.0459 34.7374 115.0204
v -4.515699 37.4793 -111.52
vn 0.1165 0.232899 0.965498
vn 0.149605 0.172206 0.973634
vn 0.260998 0.276498 0.924894
vn -0.045302 0.323513 0.945139
vn -0.181495 0.197895 0.963274
vn 0.050099 0.261196 0.963985
vn 0.184499 0.505796 0.842693
vn -0.035099 0.552187 0.832981
vn 0.297196 0.449694 0.842289
vn -0.126704 0.797828 0.589421
vn 0.118304 0.793228 0.597322
vn 0.163 0.711901 0.683101
vn -0.289286 0.943056 0.164192
vn 0.300288 0.932064 0.202692
vn -0.297183 0.911549 0.284184
vn 0.42011 0.90222 0.097502
vn 0.329004 0.94211 -0.064701
vn 0.27571 0.954032 -0.117504
vn 0.481313 0.684118 0.548015
vn 0.199799 0.535296 0.820694
vn -0.4647 0.881901 -0.0794
vn -0.080798 0.992979 -0.086398
vn -0.152496 0.330292 0.931478
vn -0.236691 0.26599 0.934466
vn -0.108497 0.99397 -0.0159
vn -0.0904 0.995905 -0.001
vn -0.223903 0.974611 0.0012
vn -0.0412 0.999105 -0.0096
vn 0.0692 0.997601 0.0021
vn -0.088803 0.996037 0.0049
vn -0.124395 0.992163 0.0118
vn 0.0678 0.997698 -0.0014
vn -0.269308 0.962827 0.020901
vn 0.066599 0.99778 -0.0005
vn -0.038301 0.999232 0.0083
vn -0.110003 0.993827 0.0144
vn 0.0316 0.999308 -0.0196
vn -0.1214 0.992501 0.0143
vn 0.0061 0.999584 -0.0282
vn -0.0434 0.999008 0.01
vn 0.0016 0.999894 0.0145
vn -0.0111 0.999924 0.0054
vn -0.263908 0.964531 0.0057
vn -0.139001 0.990208 -0.0129
vn -0.0051 0.998961 -0.045298
vn -0.0031 0.999993 -0.0021
vn -0.0341 0.999292 -0.0159
vn -0.0014 0.999901 -0.014
vn 0.085599 0.996185 -0.017
vn 0.182096 0.983279 -0.0019
vn 0.095304 0.995446 -0.0023
vn 0.0139 0.999874 -0.0077
vn 0.091896 0.99576 0.0041
vn -0.099602 0.995024 0.0027
vn 0.078498 0.996876 0.0087
vn -0.091401 0.995807 0.0037
vn 0.181901 0.983204 0.0149
vn -0.064501 0.997916 -0.0019
vn 0.044799 0.99898 0.0056
vn 0.097102 0.995217 0.0107
vn -0.043499 0.998884 -0.0184
vn 0.101602 0.994721 0.0144
vn -0.0003 0.999638 -0.026901
vn 0.011 0.999882 0.0107
vn 0.0016 0.999894 0.0145
vn -0.0111 0.999924 0.0054
vn 0.242887 0.970048 0.0037
vn 0.1252 0.992102 -0.0077
vn -0.0051 0.998961 -0.045298
vn -0.0031 0.999993 -0.0021
vn -0.0341 0.999292 -0.0159
vt 0.3335 -0.0176
vt 0.6665 0.0154
vt 0.5957 0.5016
vt 0.4043 0.5041
vt 0.9995 0.0015
vt 0.7871 0.5355
vt 0.5598 0.7581
vt 0.4402 0.7569
vt 0.6793 0.8013
vt 0.5435 0.8933
vt 0.4565 0.8871
vt 0.6305 0.8852
vt 0.5253 0.9721
vt 0.4747 0.9721
vt 0.5758 0.9847
vt 0.4242 0.9847
vt 0.4826 0.9988
vt 0.4477 1.0043
vt 0.3695 0.9101
vt 0.3207 0.7906
vt 0.5523 1.0043
vt 0.5174 0.9941
vt 0.2129 0.5301
vt 0.0005 0.0015
vt 0.3335 -0.0176
vt 0.6665 0.0154
vt 0.6648 0.5016
vt 0.3337 0.5041
vt 1.1462 0.0112
vt 1.1426 0.5452
vt 0.6624 0.9523
vt 0.3544 0.9511
vt 1.1172 1.0052
vt 0.6539 1.3918
vt 0.3445 1.3807
vt 1.1101 1.3934
vt 0.6686 1.6518
vt 0.3589 1.6712
vt 1.0854 1.6741
vt -0.0301 1.7032
vt 0.3742 1.9456
vt -0.0267 2.0044
vt -0.0561 1.4182
vt -0.0449 0.9945
vt 1.0807 2.0044
vt 0.664 1.9409
vt -0.0886 0.5398
vt -0.0907 0.0112
vt 0.3335 -0.0176
vt 0.6552 0.5064
vt 0.6665 0.0154
vt 0.3488 0.5041
vt 1.1321 0.5598
vt 1.1462 0.0112
vt 0.6589 0.9523
vt 0.349 0.951
vt 1.1155 1.0052
vt 0.6506 1.3982
vt 0.3256 1.3871
vt 1.1064 1.3949
vt 0.672 1.6565
vt 0.3716 1.6808
vt 1.0874 1.6691
vt -0.0121 1.7079
vt 0.3795 1.9503
vt -0.0124 2.0042
vt -0.0588 1.4101
vt -0.0441 1.0042
vt 1.0719 1.9994
vt 0.6562 1.9359
vt -0.0885 0.5252
f 440/440/440 442/442/442 441/441/441
f 442/442/442 440/440/440 443/443/443
f 441/441/441 445/445/445 444/444/444
f 445/445/445 441/441/441 442/442/442
f 443/443/443 446/446/446 442/442/442
f 446/446/446 443/443/443 447/447/447
f 442/442/442 448/448/448 445/445/445
f 448/448/448 442/442/442 446/446/446
f 447/447/447 449/449/449 446/446/446
f 449/449/449 447/447/447 450/450/450
f 446/446/446 451/451/451 448/448/448
f 451/451/451 446/446/446 449/449/449
f 450/450/450 452/452/452 449/449/449
f 452/452/452 450/450/450 453/453/453
f 449/449/449 454/454/454 451/451/451
f 454/454/454 449/449/449 452/452/452
f 455/455/455 456/456/456 453/453/453
f 456/456/456 455/455/455 457/457/457
f 458/458/458 453/453/453 450/450/450
f 453/453/453 458/458/458 455/455/455
f 459/459/459 450/450/450 447/447/447
f 450/450/450 459/459/459 458/458/458
f 460/460/460 452/452/452 461/461/461
f 452/452/452 460/460/460 454/454/454
f 462/462/462 447/447/447 443/443/443
f 447/447/447 462/462/462 459/459/459
f 461/461/461 453/453/453 456/456/456
f 453/453/453 461/461/461 452/452/452
f 463/463/463 443/443/443 440/440/440
f 443/443/443 463/463/463 462/462/462
f 464/464/464 466/466/466 465/465/465
f 466/466/466 464/464/464 467/467/467
f 465/465/465 469/469/469 468/468/468
f 469/469/469 465/465/465 466/466/466
f 467/467/467 470/470/470 466/466/466
f 470/470/470 467/467/467 471/471/471
f 466/466/466 472/472/472 469/469/469
f 472/472/472 466/466/466 470/470/470
f 471/471/471 473/473/473 470/470/470
f 473/473/473 471/471/471 474/474/474
f 470/470/470 475/475/475 472/472/472
f 475/475/475 470/470/470 473/473/473
f 474/474/474 476/476/476 473/473/473
f 476/476/476 474/474/474 477/477/477
f 473/473/473 478/478/478 475/475/475
f 478/478/478 473/473/473 476/476/476
f 479/479/479 480/480/480 477/477/477
f 480/480/480 479/479/479 481/481/481
f 482/482/482 477/477/477 474/474/474
f 477/477/477 482/482/482 479/479/479
f 483/483/483 474/474/474 471/471/471
f 474/474/474 483/483/483 482/482/482
f 484/484/484 476/476/476 485/485/485
f 476/476/476 484/484/484 478/478/478
f 486/486/486 471/471/471 467/467/467
f 471/471/471 486/486/486 483/483/483
f 485/485/485 477/477/477 480/480/480
f 477/477/477 485/485/485 476/476/476
f 487/487/487 467/467/467 464/464/464
f 467/467/467 487/487/487 486/486/486
f 488/488/488 490/490/490 489/489/489
f 489/489/489 491/491/491 488/488/488
f 490/490/490 493/493/493 492/492/492
f 492/492/492 489/489/489 490/490/490
f 491/491/491 489/489/489 494/494/494
f 494/494/494 495/495/495 491/491/491
f 489/489/489 492/492/492 496/496/496
f 496/496/496 494/494/494 489/489/489
f 495/495/495 494/494/494 497/497/497
f 497/497/497 498/498/498 495/495/495
f 494/494/494 496/496/496 499/499/499
f 499/499/499 497/497/497 494/494/494
f 498/498/498 497/497/497 500/500/500
f 500/500/500 501/501/501 498/498/498
f 497/497/497 499/499/499 502/502/502
f 502/502/502 500/500/500 497/497/497
f 503/503/503 501/501/501 504/504/504
f 504/504/504 505/505/505 503/503/503
f 506/506/506 498/498/498 501/501/501
f 501/501/501 503/503/503 506/506/506
f 507/507/507 495/495/495 498/498/498
f 498/498/498 506/506/506 507/507/507
f 508/508/508 509/509/509 500/500/500
f 500/500/500 502/502/502 508/508/508
f 510/510/510 491/491/491 495/495/495
f 495/495/495 507/507/507 510/510/510
f 509/509/509 504/504/504 501/501/501
f 501/501/501 500/500/500 509/509/509
f 487/487/487 488/488/488 491/491/491
f 491/491/491 510/510/510 487/487/487
