# Ice01.bmd — MU geometry at action 0 key 3, exported for MU2
# 1 mesh(es)

g ice
# texture: ice.jpg
v 0.051493 -46.89427 4.876129
v 20.76769 140.4973 158.9567
v 0.051393 152.6974 221.9013
v 29.02119 -13.77057 -30.59947
v -28.91831 -13.77057 -30.59947
v 0.051393 152.6974 221.9013
v -20.66491 140.4973 158.9567
v 0.051493 -46.89427 4.876129
v 0.051393 152.6974 221.9013
v 20.76769 140.4973 158.9567
v -20.66491 140.4973 158.9567
v 20.76769 140.4973 158.9567
v 29.02119 -13.77057 -30.59947
v 0.051493 8.83963 -49.34587
v 0.051393 131.3508 109.4953
v 0.051393 131.3508 109.4953
v -28.91831 -13.77057 -30.59947
v -20.66491 140.4973 158.9567
v 0.051393 131.3508 109.4953
v 0.051493 8.83963 -49.34587
v -54.64161 -19.64777 -32.05527
v -44.427 132.8323 74.68303
v -73.23751 168.9412 88.39653
v -15.22601 -20.10577 -19.28407
v -25.78741 1.325333 -53.13757
v -73.23751 168.9412 88.39653
v -51.9795 148.1577 50.47423
v -54.64161 -19.64777 -32.05527
v -73.23751 168.9412 88.39653
v -44.427 132.8323 74.68303
v -51.9795 148.1577 50.47423
v -44.427 132.8323 74.68303
v -15.22601 -20.10577 -19.28407
v -0.144007 -3.134567 -38.60327
v -28.31741 118.3616 42.36323
v -28.31741 118.3616 42.36323
v -15.22601 -20.10577 -19.28407
v -25.78741 1.325333 -53.13757
v -0.144007 -3.134567 -38.60327
v -25.78741 1.325333 -53.13757
v -51.9795 148.1577 50.47423
v -28.31741 118.3616 42.36323
v -0.144007 -3.134567 -38.60327
v 29.88519 -46.87517 6.785629
v 76.03269 113.7378 72.49693
v 74.25719 137.3232 112.3798
v 46.1618 -29.72057 -25.31728
v 7.794593 -23.29257 -16.57397
v 74.25719 137.3232 112.3798
v 48.59629 118.3345 78.74922
v 29.88519 -46.87517 6.785629
v 74.25719 137.3232 112.3798
v 76.03269 113.7378 72.49693
v 48.59629 118.3345 78.74922
v 76.03269 113.7378 72.49693
v 46.1618 -29.72057 -25.31728
v 25.28139 -14.21828 -37.42596
v 52.9541 99.59293 46.63683
v 52.9541 99.59293 46.63683
v 46.1618 -29.72057 -25.31728
v 7.794593 -23.29257 -16.57397
v 25.28139 -14.21828 -37.42596
v 7.794593 -23.29257 -16.57397
v 48.59629 118.3345 78.74922
v 52.9541 99.59293 46.63683
v 25.28139 -14.21828 -37.42596
v 25.26079 -15.14847 -55.00987
v 16.99499 147.5921 -2.542465
v 42.7086 182.2264 -4.387466
v -7.758707 -18.65987 -40.54567
v 22.65339 -25.94318 -20.53517
v 42.7086 182.2264 -4.387466
v 38.7428 142.3838 11.76714
v 25.26079 -15.14847 -55.00987
v 42.7086 182.2264 -4.387466
v 16.99499 147.5921 -2.542465
v 38.7428 142.3838 11.76714
v 16.99499 147.5921 -2.542465
v -7.758707 -18.65987 -40.54567
v -3.172307 -24.31517 -15.13358
v 16.10389 115.8785 11.89783
v 16.10389 115.8785 11.89783
v 22.65339 -25.94318 -20.53517
v 38.7428 142.3838 11.76714
v 16.10389 115.8785 11.89783
v -3.172307 -24.31517 -15.13358
v 29.84959 -11.19948 -32.75107
v 46.2426 84.51082 -2.722763
v 55.2857 94.71683 12.53943
v 23.70019 -2.279678 -46.61996
v 13.74209 -4.128479 -32.22746
v 55.2857 94.71683 12.53943
v 39.1216 83.18883 7.569336
v 29.84959 -11.19948 -32.75107
v 55.2857 94.71683 12.53943
v 46.2426 84.51082 -2.722763
v 39.1216 83.18883 7.569336
v 46.2426 84.51082 -2.722763
v 23.70019 -2.279678 -46.61996
v 12.09949 1.629135 -43.38437
v 32.7276 75.43294 -5.545273
v 32.7276 75.43294 -5.545273
v 23.70019 -2.279678 -46.61996
v 13.74209 -4.128479 -32.22746
v 12.09949 1.629135 -43.38437
v 13.74209 -4.128479 -32.22746
v 39.1216 83.18883 7.569336
v 32.7276 75.43294 -5.545273
v 12.09949 1.629135 -43.38437
v -16.89831 -1.406174 -61.68027
v -28.12901 99.77783 -8.751266
v -36.6324 121.7207 -14.83788
v -9.280807 -4.451065 -42.45576
v 3.033693 3.273926 -57.47427
v -36.6324 121.7207 -14.83788
v -19.32291 105.3021 -19.49107
v -16.89831 -1.406174 -61.68027
v -36.6324 121.7207 -14.83788
v -28.12901 99.77783 -8.751266
v -19.32291 105.3021 -19.49107
v -28.12901 99.77783 -8.751266
v -9.280807 -4.451065 -42.45576
v 5.082993 -0.025665 -42.94656
v -13.50991 87.55833 -13.45056
v -13.50991 87.55833 -13.45056
v -9.280807 -4.451065 -42.45576
v 3.033693 3.273926 -57.47427
v 5.082993 -0.025665 -42.94656
v 3.033693 3.273926 -57.47427
v -19.32291 105.3021 -19.49107
v -13.50991 87.55833 -13.45056
v 5.082993 -0.025665 -42.94656
v 31.8246 -37.2616 -62.63644
v 97.1046 56.7849 -4.225739
v 118.4008 61.4593 32.42466
v 24.6039 -13.155 -88.06384
v 1.103396 -19.05119 -60.53773
v 118.4008 61.4593 32.42466
v 80.2993 52.5685 15.45826
v 31.8246 -37.2616 -62.63644
v 118.4008 61.4593 32.42466
v 97.1046 56.7849 -4.225739
v 80.2993 52.5685 15.45826
v 97.1046 56.7849 -4.225739
v 24.6039 -13.155 -88.06384
v 2.543796 -1.733002 -80.02473
v 65.3402 49.622 -15.41164
v 65.3402 49.622 -15.41164
v 1.103396 -19.05119 -60.53773
v 80.2993 52.5685 15.45826
v 65.3402 49.622 -15.41164
v 2.543796 -1.733002 -80.02473
v -13.218 -19.21649 -51.11093
v 32.03699 47.4021 -6.817039
v 26.5228 65.96581 16.74366
v 8.977996 -16.3542 -64.78194
v -12.0376 -1.829201 -70.70773
v 26.5228 65.96581 16.74366
v 17.0087 57.789 -11.05464
v -13.218 -19.21649 -51.11093
v 26.5228 65.96581 16.74366
v 32.03699 47.4021 -6.817039
v 17.0087 57.789 -11.05464
v 32.03699 47.4021 -6.817039
v 8.977996 -16.3542 -64.78194
v 5.482796 -2.972801 -77.61633
v 23.0702 42.2425 -29.16074
v 23.0702 42.2425 -29.16074
v 8.977996 -16.3542 -64.78194
v -12.0376 -1.829201 -70.70773
v 5.482796 -2.972801 -77.61633
v -12.0376 -1.829201 -70.70773
v 17.0087 57.789 -11.05464
v 23.0702 42.2425 -29.16074
v 5.482796 -2.972801 -77.61633
v 40.2991 -30.1515 -79.03323
v 80.0929 47.9509 -67.23953
v 98.4235 59.71761 -47.57224
v 31.0772 -15.6696 -97.52824
v 19.6746 -16.1739 -75.02133
v 98.4235 59.71761 -47.57224
v 71.9389 47.5902 -51.14474
v 40.2991 -30.1515 -79.03323
v 98.4235 59.71761 -47.57224
v 80.0929 47.9509 -67.23953
v 71.9389 47.5902 -51.14474
v 80.0929 47.9509 -67.23953
v 31.0772 -15.6696 -97.52824
v 16.5173 -7.348099 -90.57074
v 58.3641 38.56841 -68.34123
v 58.3641 38.56841 -68.34123
v 31.0772 -15.6696 -97.52824
v 19.6746 -16.1739 -75.02133
v 16.5173 -7.348099 -90.57074
v 19.6746 -16.1739 -75.02133
v 71.9389 47.5902 -51.14474
v 58.3641 38.56841 -68.34123
v 16.5173 -7.348099 -90.57074
v 7.981496 -6.737793 -97.71014
v 19.244 68.0448 -65.10654
v 28.3086 92.2943 -73.85434
v 1.660996 -13.2574 -76.66174
v 23.8135 -16.0397 -83.98744
v 28.3086 92.2943 -73.85434
v 35.0853 66.05521 -70.34525
v 7.981496 -6.737793 -97.71014
v 28.3086 92.2943 -73.85434
v 19.244 68.0448 -65.10654
v 35.0853 66.05521 -70.34525
v 19.244 68.0448 -65.10654
v 1.660996 -13.2574 -76.66174
v 15.9398 -18.0224 -69.35893
v 26.3252 47.2828 -62.75694
v 26.3252 47.2828 -62.75694
v 23.8135 -16.0397 -83.98744
v 35.0853 66.05521 -70.34525
v 26.3252 47.2828 -62.75694
v 15.9398 -18.0224 -69.35893
v 20.5998 -5.324799 -90.50363
v 31.8734 31.86 -86.73573
v 42.8156 38.0853 -83.68513
v 11.249 0.5271 -92.04834
v 14.2251 -2.608299 -81.78284
v 42.8156 38.0853 -83.68513
v 34.00159 29.6178 -79.39484
v 20.5998 -5.324799 -90.50363
v 42.8156 38.0853 -83.68513
v 31.8734 31.86 -86.73573
v 34.00159 29.6178 -79.39484
v 31.8734 31.86 -86.73573
v 11.249 0.5271 -92.04834
v 8.062296 1.555 -84.76764
v 25.1438 25.0382 -82.54704
v 25.1438 25.0382 -82.54704
v 11.249 0.5271 -92.04834
v 14.2251 -2.608299 -81.78284
v 8.062296 1.555 -84.76764
v 14.2251 -2.608299 -81.78284
v 34.00159 29.6178 -79.39484
v 25.1438 25.0382 -82.54704
v 8.062296 1.555 -84.76764
v -12.5441 -2.042702 -78.68094
v -1.426604 34.1804 -51.96085
v -8.128903 47.3535 -47.69144
v -0.076404 -4.459396 -74.97714
v -2.480204 2.607399 -85.89883
v -8.128903 47.3535 -47.69144
v -3.145604 39.2339 -59.77104
v -12.5441 -2.042702 -78.68094
v -8.128903 47.3535 -47.69144
v -1.426604 34.1804 -51.96085
v -3.145604 39.2339 -59.77104
v -1.426604 34.1804 -51.96085
v -0.076404 -4.459396 -74.97714
v 5.451396 -0.216301 -81.45995
v 2.386096 28.3978 -62.27084
v 2.386096 28.3978 -62.27084
v -0.076404 -4.459396 -74.97714
v -2.480204 2.607399 -85.89883
v 5.451396 -0.216301 -81.45995
v -2.480204 2.607399 -85.89883
v -3.145604 39.2339 -59.77104
v 2.386096 28.3978 -62.27084
v 5.451396 -0.216301 -81.45995
v -23.4882 -217.239 -254.8389
v -2.655696 -152.2752 -145.918
v -2.817796 -111.3811 -133.8235
v -14.91749 -246.5223 -236.1615
v 10.346 -228.8049 -255.9749
v -2.817796 -111.3811 -133.8235
v 15.41031 -139.6054 -160.0867
v -23.4882 -217.239 -254.8389
v -2.817796 -111.3811 -133.8235
v -2.655696 -152.2752 -145.918
v 15.41031 -139.6054 -160.0867
v -2.655696 -152.2752 -145.918
v -14.91749 -246.5223 -236.1615
v 10.9636 -248.5775 -238.9339
v 13.77911 -173.1071 -167.8575
v 13.77911 -173.1071 -167.8575
v 10.346 -228.8049 -255.9749
v 15.41031 -139.6054 -160.0867
v 13.77911 -173.1071 -167.8575
v 10.9636 -248.5775 -238.9339
v 24.7745 -225.2467 -264.5276
v 41.3815 -176.891 -188.1473
v 64.11181 -159.5986 -177.45
v 4.122304 -230.241 -249.1559
v 25.5865 -245.2237 -247.5569
v 64.11181 -159.5986 -177.45
v 56.7306 -187.6052 -187.0038
v 24.7745 -225.2467 -264.5276
v 64.11181 -159.5986 -177.45
v 41.3815 -176.891 -188.1473
v 56.7306 -187.6052 -187.0038
v 41.3815 -176.891 -188.1473
v 4.122304 -230.241 -249.1559
v 8.966205 -245.1292 -238.6261
v 37.1968 -200.066 -195.3361
v 37.1968 -200.066 -195.3361
v 4.122304 -230.241 -249.1559
v 25.5865 -245.2237 -247.5569
v 8.966205 -245.1292 -238.6261
v 25.5865 -245.2237 -247.5569
v 56.7306 -187.6052 -187.0038
v 37.1968 -200.066 -195.3361
v 8.966205 -245.1292 -238.6261
v -32.4261 -230.2641 -242.9355
v -17.8254 -215.4079 -156.9778
v -18.3813 -192.2045 -139.0177
v -24.7383 -252.59 -234.0311
v -7.823296 -235.8589 -242.4449
v -18.3813 -192.2045 -139.0177
v -5.729496 -203.4434 -162.9946
v -32.4261 -230.2641 -242.9355
v -18.3813 -192.2045 -139.0177
v -17.8254 -215.4079 -156.9778
v -5.729496 -203.4434 -162.9946
v -17.8254 -215.4079 -156.9778
v -24.7383 -252.59 -234.0311
v -6.629596 -252.5258 -235.343
v -6.464296 -223.0153 -176.3282
v -6.464296 -223.0153 -176.3282
v -24.7383 -252.59 -234.0311
v -7.823296 -235.8589 -242.4449
v -6.629596 -252.5258 -235.343
v -7.823296 -235.8589 -242.4449
v -5.729496 -203.4434 -162.9946
v -6.464296 -223.0153 -176.3282
v -6.629596 -252.5258 -235.343
v -2.441096 -262.2767 -238.7458
v 40.1068 -238.0604 -172.5226
v 42.5136 -246.0906 -146.5139
v 6.895504 -244.259 -249.4077
v -14.2871 -242.6608 -239.3636
v 42.5136 -246.0906 -146.5139
v 24.9591 -236.9176 -165.34
v -2.441096 -262.2767 -238.7458
v 42.5136 -246.0906 -146.5139
v 40.1068 -238.0604 -172.5226
v 24.9591 -236.9176 -165.34
v 40.1068 -238.0604 -172.5226
v 6.895504 -244.259 -249.4077
v -3.800796 -231.7331 -246.4731
v 24.7383 -230.5762 -186.4698
v 24.7383 -230.5762 -186.4698
v -14.2871 -242.6608 -239.3636
v 24.9591 -236.9176 -165.34
v 24.7383 -230.5762 -186.4698
v -3.800796 -231.7331 -246.4731
v -8.680995 -251.2603 -231.4758
v 3.461904 -248.6599 -194.4651
v -0.542196 -242.7244 -183.6702
v 0.960204 -256.8375 -231.3732
v 0.890804 -245.8704 -233.3195
v -0.542196 -242.7244 -183.6702
v 3.412304 -240.8173 -195.8569
v -8.680995 -251.2603 -231.4758
v -0.542196 -242.7244 -183.6702
v 3.461904 -248.6599 -194.4651
v 3.412304 -240.8173 -195.8569
v 3.461904 -248.6599 -194.4651
v 0.960204 -256.8375 -231.3732
v 6.667804 -251.4024 -232.8244
v 6.637504 -246.3135 -204.149
v 6.637504 -246.3135 -204.149
v 0.960204 -256.8375 -231.3732
v 0.890804 -245.8704 -233.3195
v 6.667804 -251.4024 -232.8244
v 0.890804 -245.8704 -233.3195
v 3.412304 -240.8173 -195.8569
v 6.637504 -246.3135 -204.149
v 6.667804 -251.4024 -232.8244
v 22.876 -252.7384 -247.3201
v 43.2379 -228.8783 -213.1768
v 56.8416 -229.1063 -205.9959
v 13.4436 -244.5004 -243.0576
v 14.8769 -256.3897 -237.4364
v 56.8416 -229.1063 -205.9959
v 44.26291 -237.3803 -209.1573
v 22.876 -252.7384 -247.3201
v 56.8416 -229.1063 -205.9959
v 43.2379 -228.8783 -213.1768
v 44.26291 -237.3803 -209.1573
v 43.2379 -228.8783 -213.1768
v 13.4436 -244.5004 -243.0576
v 8.986404 -249.0553 -235.9883
v 33.4376 -236.2516 -215.1414
v 33.4376 -236.2516 -215.1414
v 13.4436 -244.5004 -243.0576
v 14.8769 -256.3897 -237.4364
v 8.986404 -249.0553 -235.9883
v 14.8769 -256.3897 -237.4364
v 44.26291 -237.3803 -209.1573
v 33.4376 -236.2516 -215.1414
v 8.986404 -249.0553 -235.9883
v -8.9809 -58.09266 -57.88483
v -75.8983 24.37364 14.49886
v -80.6515 32.08804 56.17056
v -25.4772 -43.13626 -85.88474
v -38.8038 -73.50896 -70.24414
v -80.6515 32.08804 56.17056
v -85.4282 2.654045 25.68366
v -8.9809 -58.09266 -57.88483
v -80.6515 32.08804 56.17056
v -75.8983 24.37364 14.49886
v -85.4282 2.654045 25.68366
v -75.8983 24.37364 14.49886
v -25.4772 -43.13626 -85.88474
v -47.3347 -57.13696 -88.70824
v -80.9273 -0.968956 -8.257935
v -80.9273 -0.968956 -8.257935
v -38.8038 -73.50896 -70.24414
v -85.4282 2.654045 25.68366
v -80.9273 -0.968956 -8.257935
v -47.3347 -57.13696 -88.70824
v -47.7557 -87.90036 -67.64754
v -96.4244 -31.18696 -14.14094
v -121.2917 -33.26226 3.392761
v -36.3561 -64.52656 -71.03374
v -56.431 -71.66315 -86.32494
v -121.2917 -33.26226 3.392761
v -110.7799 -36.29036 -25.07574
v -47.7557 -87.90036 -67.64754
v -121.2917 -33.26226 3.392761
v -96.4244 -31.18696 -14.14094
v -110.7799 -36.29036 -25.07574
v -96.4244 -31.18696 -14.14094
v -36.3561 -64.52656 -71.03374
v -45.6444 -56.22316 -85.20344
v -89.7653 -33.92406 -37.68734
v -89.7653 -33.92406 -37.68734
v -36.3561 -64.52656 -71.03374
v -56.431 -71.66315 -86.32494
v -45.6444 -56.22316 -85.20344
v -56.431 -71.66315 -86.32494
v -110.7799 -36.29036 -25.07574
v -89.7653 -33.92406 -37.68734
v -45.6444 -56.22316 -85.20344
v -6.5728 -42.48376 -69.79234
v -58.2492 26.19654 -48.93104
v -65.5497 40.64774 -24.45383
v -17.7662 -36.34446 -91.56054
v -28.8147 -52.73736 -75.87484
v -65.5497 40.64774 -24.45383
v -66.15 14.47384 -37.71424
v -6.5728 -42.48376 -69.79234
v -65.5497 40.64774 -24.45383
v -58.2492 26.19654 -48.93104
v -66.15 14.47384 -37.71424
v -58.2492 26.19654 -48.93104
v -17.7662 -36.34446 -91.56054
v -33.3225 -45.69656 -91.99174
v -59.7393 4.44194 -58.19954
v -59.7393 4.44194 -58.19954
v -17.7662 -36.34446 -91.56054
v -28.8147 -52.73736 -75.87484
v -33.3225 -45.69656 -91.99174
v -28.8147 -52.73736 -75.87484
v -66.15 14.47384 -37.71424
v -59.7393 4.44194 -58.19954
v -33.3225 -45.69656 -91.99174
v -35.6556 -49.87216 -102.0577
v -103.2044 -12.07146 -73.94134
v -117.2215 10.57034 -80.07274
v -38.9111 -64.93756 -85.08934
v -24.5379 -46.56106 -82.28593
v -117.2215 10.57034 -80.07274
v -92.9261 1.069641 -71.93664
v -35.6556 -49.87216 -102.0577
v -117.2215 10.57034 -80.07274
v -103.2044 -12.07146 -73.94134
v -92.9261 1.069641 -71.93664
v -103.2044 -12.07146 -73.94134
v -38.9111 -64.93756 -85.08934
v -30.5236 -58.44886 -72.14834
v -83.088 -18.09456 -67.17534
v -83.088 -18.09456 -67.17534
v -24.5379 -46.56106 -82.28593
v -92.9261 1.069641 -71.93664
v -83.088 -18.09456 -67.17534
v -30.5236 -58.44886 -72.14834
v -33.2238 -41.42856 -90.39834
v -60.7499 -14.21416 -85.32973
v -61.9765 -3.261055 -78.52404
v -41.9465 -45.26906 -96.16324
v -40.8517 -47.80166 -85.37173
v -61.9765 -3.261055 -78.52404
v -59.967 -16.02526 -77.61274
v -33.2238 -41.42856 -90.39834
v -61.9765 -3.261055 -78.52404
v -60.7499 -14.21416 -85.32973
v -59.967 -16.02526 -77.61274
v -60.7499 -14.21416 -85.32973
v -41.9465 -45.26906 -96.16324
v -46.3049 -49.55086 -90.97744
v -59.1712 -24.43516 -83.77784
v -59.1712 -24.43516 -83.77784
v -41.9465 -45.26906 -96.16324
v -40.8517 -47.80166 -85.37173
v -46.3049 -49.55086 -90.97744
v -40.8517 -47.80166 -85.37173
v -59.967 -16.02526 -77.61274
v -59.1712 -24.43516 -83.77784
v -46.3049 -49.55086 -90.97744
v -54.2254 -69.65676 -93.74004
v -87.4889 -50.32096 -67.86844
v -102.8711 -50.06656 -67.86253
v -47.6253 -62.23286 -85.00343
v -51.6107 -56.97996 -96.47204
v -102.8711 -50.06656 -67.86253
v -90.3388 -46.56456 -76.06963
v -54.2254 -69.65676 -93.74004
v -102.8711 -50.06656 -67.86253
v -87.4889 -50.32096 -67.86844
v -90.3388 -46.56456 -76.06963
v -87.4889 -50.32096 -67.86844
v -47.6253 -62.23286 -85.00343
v -46.9097 -53.58906 -88.92274
v -77.9631 -47.07906 -75.14983
v -77.9631 -47.07906 -75.14983
v -47.6253 -62.23286 -85.00343
v -51.6107 -56.97996 -96.47204
v -46.9097 -53.58906 -88.92274
v -51.6107 -56.97996 -96.47204
v -90.3388 -46.56456 -76.06963
v -77.9631 -47.07906 -75.14983
v -46.9097 -53.58906 -88.92274
vn 0.854714 -0.382806 0.350606
vn 0.854714 -0.382806 0.350606
vn 0.851409 -0.386104 0.355004
vn 0.857957 -0.379525 0.346223
vn -0.853556 -0.38458 0.351482
vn -0.853556 -0.38458 0.351482
vn -0.849031 -0.391114 0.355213
vn -0.857992 -0.378097 0.347697
vn 0 0.981725 -0.190305
vn 0 0.98253 -0.186106
vn 0 0.98253 -0.186106
vn 0.727295 0.545196 -0.416897
vn 0.711587 0.55979 -0.424592
vn 0.727295 0.545196 -0.416897
vn 0.742503 0.530402 -0.409101
vn 0 0.983334 -0.181806
vn -0.723773 0.54858 -0.418584
vn -0.735557 0.540768 -0.408076
vn -0.723773 0.54858 -0.418584
vn -0.71173 0.556223 -0.429018
vn -0.279214 -0.538027 0.79534
vn -0.279214 -0.538027 0.79534
vn -0.293393 -0.534987 0.792281
vn -0.264903 -0.541006 0.79821
vn -0.736017 0.302907 -0.605414
vn -0.736017 0.302907 -0.605414
vn -0.768095 0.271998 -0.579696
vn -0.701992 0.332896 -0.629593
vn 0.798083 0.589588 0.124297
vn 0.795743 0.592232 0.126707
vn 0.795743 0.592232 0.126707
vn 0.853151 -0.140708 0.50233
vn 0.840786 -0.157697 0.517891
vn 0.853151 -0.140708 0.50233
vn 0.864895 -0.123599 0.486497
vn 0.793378 0.594883 0.129096
vn 0.180696 -0.80458 -0.565686
vn 0.180696 -0.80458 -0.565686
vn 0.180696 -0.80458 -0.565686
vn 0.477984 0.561481 -0.675478
vn 0.476021 0.562124 -0.676329
vn 0.477984 0.561481 -0.675478
vn 0.479901 0.560901 -0.674601
vn 0.89598 -0.362392 0.256694
vn 0.89598 -0.362392 0.256694
vn 0.897119 -0.361608 0.253805
vn 0.894803 -0.363301 0.259501
vn -0.744777 -0.202394 0.635881
vn -0.744777 -0.202394 0.635881
vn -0.695053 -0.252783 0.673055
vn -0.789698 -0.1507 0.594699
vn 0.028499 0.860959 -0.507876
vn 0.0297 0.863013 -0.504308
vn 0.0297 0.863013 -0.504308
vn 0.607326 0.365216 -0.70553
vn 0.645912 0.333706 -0.686613
vn 0.607326 0.365216 -0.70553
vn 0.566998 0.395798 -0.722397
vn 0.030799 0.86508 -0.500688
vn -0.259408 -0.786823 -0.560016
vn -0.259408 -0.786823 -0.560016
vn -0.259408 -0.786823 -0.560016
vn -0.770196 0.491898 -0.405998
vn -0.780696 0.487798 -0.390598
vn -0.770196 0.491898 -0.405998
vn -0.759475 0.495783 -0.421186
vn -0.411889 0.260593 -0.873177
vn -0.411889 0.260593 -0.873177
vn -0.413299 0.2603 -0.872599
vn -0.410489 0.260793 -0.873777
vn 0.994882 -0.097798 0.0254
vn 0.994882 -0.097798 0.0254
vn 0.995321 -0.096402 0.0066
vn 0.99409 -0.099199 0.0441
vn -0.445607 0.374106 0.813313
vn -0.443997 0.377997 0.812394
vn -0.443997 0.377997 0.812394
vn -0.978076 0.101398 0.181896
vn -0.975059 0.099896 0.198192
vn -0.978076 0.101398 0.181896
vn -0.980826 0.102903 0.165504
vn -0.442414 0.381912 0.811426
vn 0.2167 -0.2081 0.953801
vn 0.245807 -0.205306 0.947327
vn 0.2167 -0.2081 0.953801
vn 0.1874 -0.2108 0.959398
vn 0.883337 -0.0042 -0.46872
vn 0.883337 -0.0042 -0.46872
vn 0.855527 0.015801 -0.517517
vn 0.908025 -0.024301 -0.418211
vn -0.054901 -0.39271 0.918022
vn -0.054901 -0.39271 0.918022
vn 0.020101 -0.419513 0.907527
vn -0.129499 -0.363396 0.922591
vn -0.510892 0.823187 -0.247696
vn -0.508087 0.825579 -0.245494
vn -0.508087 0.825579 -0.245494
vn -0.115998 0.475592 -0.871985
vn -0.087702 0.467711 -0.87952
vn -0.115998 0.475592 -0.871985
vn -0.144103 0.483111 -0.863619
vn -0.505315 0.827924 -0.243307
vn -0.388411 -0.840923 -0.37681
vn -0.388411 -0.840923 -0.37681
vn -0.388411 -0.840923 -0.37681
vn -0.942993 0.121099 0.309998
vn -0.914591 0.085699 0.395196
vn -0.942993 0.121099 0.309998
vn -0.962621 0.155303 0.221905
vn -0.910394 -0.266598 0.316398
vn -0.910394 -0.266598 0.316398
vn -0.911185 -0.265796 0.314795
vn -0.909596 -0.267299 0.318099
vn 0.103404 0.367313 -0.924332
vn 0.103404 0.367313 -0.924332
vn 0.098495 0.366082 -0.925355
vn 0.108296 0.368586 -0.923264
vn 0.5844 0.4192 0.6948
vn 0.581973 0.422781 0.694668
vn 0.581973 0.422781 0.694668
vn 0.083399 -0.298096 0.950886
vn 0.120505 -0.285612 0.950739
vn 0.083399 -0.298096 0.950886
vn 0.046101 -0.310005 0.949617
vn 0.579601 0.4263 0.694501
vn 0.277311 -0.927736 -0.24981
vn 0.277311 -0.927736 -0.24981
vn 0.277311 -0.927736 -0.24981
vn 0.961825 0.248606 -0.114403
vn 0.953807 0.263002 -0.145201
vn 0.961825 0.248606 -0.114403
vn 0.968693 0.233798 -0.083499
vn 0.834461 -0.287087 -0.470378
vn 0.834461 -0.287087 -0.470378
vn 0.840048 -0.304017 -0.449326
vn 0.828225 -0.269908 -0.491115
vn -0.2359 -0.5673 0.789
vn -0.2359 -0.5673 0.789
vn -0.206898 -0.595193 0.776491
vn -0.264501 -0.538401 0.800102
vn -0.231707 0.972728 0.0106
vn -0.228512 0.973449 0.013401
vn -0.228512 0.973449 0.013401
vn 0.0889 0.731702 -0.675802
vn 0.115601 0.711309 -0.693308
vn 0.0889 0.731702 -0.675802
vn 0.062098 0.751081 -0.657283
vn -0.225407 0.97413 0.016201
vn -0.787706 0.503904 0.354403
vn -0.787801 0.518601 0.3323
vn -0.787706 0.503904 0.354403
vn -0.787003 0.488902 0.376301
vn 0.415588 -0.68228 0.601482
vn 0.415588 -0.68228 0.601482
vn 0.386787 -0.678177 0.624878
vn 0.443904 -0.685407 0.577206
vn -0.943238 0.23881 0.230809
vn -0.943238 0.23881 0.230809
vn -0.94426 0.193692 0.266189
vn -0.939136 0.283111 0.194607
vn 0.594203 0.693503 -0.407402
vn 0.594487 0.695485 -0.403591
vn 0.594487 0.695485 -0.403591
vn 0.936896 -0.0025 -0.349599
vn 0.947201 -0.0555 -0.3158
vn 0.936896 -0.0025 -0.349599
vn 0.922789 0.050399 -0.381995
vn 0.594784 0.697481 -0.399689
vn -0.301095 -0.699887 -0.647688
vn -0.301095 -0.699887 -0.647688
vn -0.301095 -0.699887 -0.647688
vn -0.162303 0.742214 -0.650212
vn -0.125302 0.73161 -0.670109
vn -0.162303 0.742214 -0.650212
vn -0.199001 0.751502 -0.629002
vn 0.764184 -0.303394 -0.569188
vn 0.764184 -0.303394 -0.569188
vn 0.780933 -0.316614 -0.538423
vn 0.746393 -0.289797 -0.599095
vn 0.012799 -0.351884 0.935956
vn 0.012799 -0.351884 0.935956
vn 0.053901 -0.38861 0.919824
vn -0.0282 -0.314001 0.949004
vn -0.38991 0.903623 -0.177304
vn -0.386393 0.905484 -0.175497
vn -0.386393 0.905484 -0.175497
vn -0.164997 0.53839 -0.826385
vn -0.122304 0.501915 -0.856226
vn -0.164997 0.53839 -0.826385
vn -0.207096 0.572688 -0.793183
vn -0.38299 0.907276 -0.173695
vn -0.579098 -0.753897 -0.310299
vn -0.579098 -0.753897 -0.310299
vn -0.579098 -0.753897 -0.310299
vn -0.773489 0.498993 0.390795
vn -0.784369 0.51158 0.350786
vn -0.773489 0.498993 0.390795
vn -0.761112 0.485507 0.430107
vn -0.940312 0.244703 -0.236503
vn -0.940312 0.244703 -0.236503
vn -0.931345 0.254012 -0.260913
vn -0.948518 0.235304 -0.212004
vn 0.636405 0.0456 -0.770006
vn 0.636405 0.0456 -0.770006
vn 0.603403 0.0494 -0.795905
vn 0.668311 0.041701 -0.742712
vn 0.330585 0.208491 0.920459
vn 0.330813 0.212608 0.919435
vn 0.330813 0.212608 0.919435
vn -0.428178 -0.028199 0.903254
vn -0.462077 -0.026099 0.886456
vn -0.428178 -0.028199 0.903254
vn -0.393594 -0.0303 0.918785
vn 0.330907 0.216805 0.91842
vn 0.862569 -0.191293 0.468383
vn 0.848886 -0.197997 0.490092
vn 0.862569 -0.191293 0.468383
vn 0.875684 -0.184397 0.446292
vn 0.223502 0.031 -0.97421
vn 0.223502 0.031 -0.97421
vn 0.258105 0.0196 -0.965918
vn 0.188493 0.042298 -0.981163
vn 0.684712 -0.454408 0.56981
vn 0.684712 -0.454408 0.56981
vn 0.70928 -0.473986 0.521785
vn 0.6579 -0.4334 0.6159
vn -0.535125 0.752035 0.384818
vn -0.531689 0.754584 0.384592
vn -0.531689 0.754584 0.384592
vn -0.750147 0.567335 -0.339721
vn -0.733499 0.550399 -0.398799
vn -0.750147 0.567335 -0.339721
vn -0.763753 0.581964 -0.279283
vn -0.528211 0.757116 0.384408
vn -0.520078 -0.847264 -0.107995
vn -0.520078 -0.847264 -0.107995
vn -0.520078 -0.847264 -0.107995
vn -0.377691 0.174296 0.909379
vn -0.414206 0.188203 0.890513
vn -0.377691 0.174296 0.909379
vn -0.340593 0.160097 0.92648
vn -0.368009 -0.476211 0.798619
vn -0.368009 -0.476211 0.798619
vn -0.401298 -0.460798 0.791597
vn -0.334191 -0.490887 0.804578
vn -0.690753 0.417132 -0.590645
vn -0.690753 0.417132 -0.590645
vn -0.7307 0.3876 -0.562
vn -0.648491 0.445294 -0.617392
vn 0.8987 0.431 0.0811
vn 0.896989 0.434095 0.083499
vn 0.896989 0.434095 0.083499
vn 0.847213 -0.237904 0.475007
vn 0.813083 -0.276694 0.512189
vn 0.847213 -0.237904 0.475007
vn 0.8779 -0.1982 0.4359
vn 0.895262 0.437182 0.085896
vn 0.0058 -0.839 -0.5441
vn 0.0058 -0.839 -0.5441
vn 0.0058 -0.839 -0.5441
vn 0.586559 0.484166 -0.649255
vn 0.620595 0.462796 -0.632995
vn 0.586559 0.484166 -0.649255
vn 0.551412 0.504611 -0.664314
vn -0.965758 -0.095096 0.241389
vn -0.965758 -0.095096 0.241389
vn -0.970971 -0.071398 0.228293
vn -0.959788 -0.118699 0.254397
vn 0.180897 0.718688 -0.671389
vn 0.180897 0.718688 -0.671389
vn 0.139503 0.721314 -0.678413
vn 0.222089 0.714764 -0.663166
vn 0.688494 -0.203198 0.696194
vn 0.687521 -0.199506 0.698221
vn 0.687521 -0.199506 0.698221
vn 0.0598 -0.689097 0.722197
vn 0.0222 -0.692896 0.720696
vn 0.0598 -0.689097 0.722197
vn 0.097398 -0.684283 0.722683
vn 0.686534 -0.19581 0.700235
vn 0.999429 -0.024001 -0.023801
vn 0.998877 -0.046399 -0.0096
vn 0.999429 -0.024001 -0.023801
vn 0.999277 -0.0015 -0.037999
vn -0.448889 0.795881 -0.40629
vn -0.448889 0.795881 -0.40629
vn -0.415821 0.80654 -0.420221
vn -0.481307 0.784112 -0.391806
vn 0.934232 -0.158906 -0.319311
vn 0.934232 -0.158906 -0.319311
vn 0.924778 -0.120597 -0.360891
vn 0.940634 -0.196707 -0.27661
vn -0.246897 -0.253897 0.935189
vn -0.24469 -0.250589 0.93666
vn -0.24469 -0.250589 0.93666
vn -0.850781 0.0156 0.525289
vn -0.873615 0.057501 0.483208
vn -0.850781 0.0156 0.525289
vn -0.824521 -0.026401 0.565215
vn -0.242507 -0.247207 0.938126
vn -0.376491 -0.613485 -0.694183
vn -0.376491 -0.613485 -0.694183
vn -0.376491 -0.613485 -0.694183
vn 0.267595 -0.757486 0.595489
vn 0.226202 -0.761107 0.607906
vn 0.267595 -0.757486 0.595489
vn 0.3085 -0.752399 0.582
vn -0.957407 -0.209402 0.198802
vn -0.957407 -0.209402 0.198802
vn -0.965575 -0.173296 0.193995
vn -0.947873 -0.245293 0.203394
vn 0.157495 0.915469 -0.370287
vn 0.157495 0.915469 -0.370287
vn 0.100905 0.920242 -0.378117
vn 0.213591 0.907663 -0.361285
vn 0.703435 -0.424421 0.570128
vn 0.702376 -0.421786 0.57338
vn 0.702376 -0.421786 0.57338
vn 0.097497 -0.893973 0.437387
vn 0.0345 -0.901308 0.431804
vn 0.097497 -0.893973 0.437387
vn 0.159997 -0.883085 0.441092
vn 0.701374 -0.419085 0.576579
vn -0.065002 -0.395113 -0.91633
vn -0.065002 -0.395113 -0.91633
vn -0.065002 -0.395113 -0.91633
vn 0.999605 0.0154 -0.0235
vn 0.999516 -0.0271 -0.0153
vn 0.999605 0.0154 -0.0235
vn 0.997816 0.057901 -0.031801
vn 0.759972 -0.590078 -0.27249
vn 0.759972 -0.590078 -0.27249
vn 0.748802 -0.610602 -0.257801
vn 0.770574 -0.569081 -0.28699
vn -0.752809 -0.487306 0.442505
vn -0.752809 -0.487306 0.442505
vn -0.735229 -0.523621 0.430417
vn -0.769044 -0.450126 0.453826
vn 0.20001 0.941249 0.272114
vn 0.201703 0.939813 0.275804
vn 0.201703 0.939813 0.275804
vn 0.652131 0.683133 -0.328716
vn 0.672919 0.655119 -0.34351
vn 0.652131 0.683133 -0.328716
vn 0.630378 0.710175 -0.313489
vn 0.203295 0.938379 0.279494
vn -0.585591 0.768989 0.256396
vn -0.570481 0.784974 0.241592
vn -0.585591 0.768989 0.256396
vn -0.600328 0.752435 0.271013
vn -0.52032 -0.822831 0.228509
vn -0.52032 -0.822831 0.228509
vn -0.549681 -0.801172 0.236592
vn -0.490184 -0.843373 0.220093
vn -0.548399 0.833398 -0.0686
vn -0.548399 0.833398 -0.0686
vn -0.595379 0.800571 -0.067898
vn -0.499598 0.863497 -0.0691
vn 0.946446 0.062203 0.316815
vn 0.94505 0.062903 0.320817
vn 0.94505 0.062903 0.320817
vn 0.743615 -0.659613 0.109302
vn 0.699888 -0.705887 0.108998
vn 0.743615 -0.659613 0.109302
vn 0.784298 -0.610698 0.1092
vn 0.943637 0.063603 0.324813
vn -0.083201 -0.174603 -0.981117
vn -0.083201 -0.174603 -0.981117
vn -0.083201 -0.174603 -0.981117
vn 0.721236 0.680034 -0.131807
vn 0.749409 0.647608 -0.137802
vn 0.721236 0.680034 -0.131807
vn 0.691698 0.711198 -0.1255
vn 0.333311 0.667821 -0.665521
vn 0.333311 0.667821 -0.665521
vn 0.364286 0.647275 -0.669575
vn 0.301891 0.687479 -0.66048
vn 0.525707 -0.849912 0.035801
vn 0.525707 -0.849912 0.035801
vn 0.55172 -0.833931 -0.0128
vn 0.497991 -0.863085 0.084199
vn -0.434198 0.341698 0.833496
vn -0.430389 0.342892 0.834979
vn -0.430389 0.342892 0.834979
vn -0.595713 0.775716 0.208304
vn -0.575799 0.802899 0.1543
vn -0.595713 0.775716 0.208304
vn -0.613211 0.745413 0.261405
vn -0.426492 0.344093 0.836484
vn -0.645605 -0.388603 -0.657405
vn -0.645605 -0.388603 -0.657405
vn -0.645605 -0.388603 -0.657405
vn -0.440792 -0.452192 0.775387
vn -0.471899 -0.421999 0.774098
vn -0.440792 -0.452192 0.775387
vn -0.408873 -0.481468 0.775249
vn 0.750838 0.658133 -0.055703
vn 0.750838 0.658133 -0.055703
vn 0.761788 0.64699 -0.0329
vn 0.739393 0.668694 -0.078399
vn 0.152196 -0.733181 0.662783
vn 0.152196 -0.733181 0.662783
vn 0.1924 -0.720899 0.665799
vn 0.111696 -0.744176 0.658579
vn -0.931635 0.323212 -0.166106
vn -0.931612 0.325204 -0.162302
vn -0.931612 0.325204 -0.162302
vn -0.389506 0.66731 -0.634809
vn -0.355291 0.683282 -0.637883
vn -0.389506 0.66731 -0.634809
vn -0.423194 0.650391 -0.630792
vn -0.931572 0.32719 -0.158495
vn -0.880943 -0.470823 -0.047602
vn -0.887164 -0.456282 -0.068897
vn -0.880943 -0.470823 -0.047602
vn -0.874072 -0.485084 -0.026299
vn 0.595084 -0.218894 0.773279
vn 0.595084 -0.218894 0.773279
vn 0.572103 -0.247002 0.782105
vn 0.617307 -0.190502 0.763309
vn -0.691078 -0.693778 -0.202693
vn -0.691078 -0.693778 -0.202693
vn -0.663307 -0.729407 -0.167302
vn -0.716589 -0.65589 -0.237296
vn -0.206106 0.962129 -0.178405
vn -0.208699 0.962195 -0.174999
vn -0.208699 0.962195 -0.174999
vn 0.521503 0.850104 0.0732
vn 0.561503 0.819805 0.112401
vn 0.521503 0.850104 0.0732
vn 0.479421 0.876938 0.033701
vn -0.211308 0.962237 -0.171607
vn 0.641096 -0.400298 -0.654796
vn 0.641096 -0.400298 -0.654796
vn 0.641096 -0.400298 -0.654796
vn -0.518515 0.466013 -0.71692
vn -0.487187 0.495987 -0.718781
vn -0.518515 0.466013 -0.71692
vn -0.548705 0.435204 -0.713807
vn 0.761071 0.625176 -0.172993
vn 0.761071 0.625176 -0.172993
vn 0.77109 0.621792 -0.137098
vn 0.749992 0.627693 -0.208598
vn 0.039701 -0.469911 0.881821
vn 0.039701 -0.469911 0.881821
vn 0.093802 -0.45171 0.88722
vn -0.014499 -0.486678 0.873461
vn -0.891006 0.221301 -0.396402
vn -0.891514 0.224403 -0.393506
vn -0.891514 0.224403 -0.393506
vn -0.297113 0.412718 -0.861038
vn -0.238493 0.436787 -0.867374
vn -0.297113 0.412718 -0.861038
vn -0.354503 0.387004 -0.851208
vn -0.892005 0.227501 -0.390602
vn 0.466711 -0.755118 -0.460411
vn 0.466711 -0.755118 -0.460411
vn 0.466711 -0.755118 -0.460411
vn -0.880637 -0.47372 -0.0083
vn -0.884891 -0.463096 -0.0501
vn -0.880637 -0.47372 -0.0083
vn -0.874745 -0.483425 0.033502
vn -0.562807 -0.540707 -0.625208
vn -0.562807 -0.540707 -0.625208
vn -0.559817 -0.521016 -0.64432
vn -0.565424 -0.559923 -0.605625
vn 0.464509 0.770514 -0.436508
vn 0.464509 0.770514 -0.436508
vn 0.453793 0.754588 -0.473993
vn 0.4744 0.7851 -0.3982
vn -0.2883 0.0799 0.954201
vn -0.291499 0.0826 0.952998
vn -0.291499 0.0826 0.952998
vn -0.423398 -0.638797 0.642397
vn -0.435695 -0.659192 0.612892
vn -0.423398 -0.638797 0.642397
vn -0.410571 -0.617457 0.670953
vn -0.294604 0.085201 0.951814
vn 0.417115 0.434015 0.798528
vn 0.410491 0.412791 0.813081
vn 0.417115 0.434015 0.798528
vn 0.423384 0.454883 0.783471
vn 0.349199 0.500799 -0.791998
vn 0.349199 0.500799 -0.791998
vn 0.372079 0.519571 -0.769157
vn 0.325894 0.481192 -0.813786
vn 0.531698 0.1234 0.837896
vn 0.531698 0.1234 0.837896
vn 0.572903 0.147701 0.806205
vn 0.488803 0.098601 0.866805
vn -0.986461 -0.150694 0.064697
vn -0.987026 -0.146504 0.065702
vn -0.987026 -0.146504 0.065702
vn -0.721804 -0.188601 -0.665904
vn -0.683294 -0.165699 -0.711093
vn -0.721804 -0.188601 -0.665904
vn -0.757394 -0.210798 -0.617995
vn -0.987554 -0.142393 0.066797
vn 0.515318 -0.821229 -0.245009
vn 0.515318 -0.821229 -0.245009
vn 0.515318 -0.821229 -0.245009
vn -0.574183 -0.494685 0.652381
vn -0.597007 -0.510306 0.619007
vn -0.574183 -0.494685 0.652381
vn -0.550314 -0.478112 0.684517
vn 0.0129 -0.792907 0.609206
vn 0.0129 -0.792907 0.609206
vn -0.0132 -0.808981 0.587686
vn 0.038899 -0.77579 0.629792
vn -0.496926 -0.141107 -0.856244
vn -0.496926 -0.141107 -0.856244
vn -0.497907 -0.197203 -0.844512
vn -0.494289 -0.084498 -0.865181
vn 0.015199 0.911064 0.411984
vn 0.0111 0.910577 0.41319
vn 0.0111 0.910577 0.41319
vn 0.447918 0.395316 0.801932
vn 0.454916 0.336212 0.824629
vn 0.447918 0.395316 0.801932
vn 0.439117 0.452718 0.77603
vn 0.007 0.910073 0.414388
vn 0.867537 -0.263211 -0.422018
vn 0.867537 -0.263211 -0.422018
vn 0.867537 -0.263211 -0.422018
vn 0.036298 0.922752 -0.38368
vn 0.064998 0.933368 -0.352988
vn 0.036298 0.922752 -0.38368
vn 0.0074 0.910424 -0.413611
vt 0.509 0.0347
vt 0.3881 0.5453
vt 0.5268 0.7362
vt 0.3151 0.0446
vt 0.7029 0.0446
vt 0.5268 0.7362
vt 0.6654 0.5453
vt 0.509 0.0347
vt 0.6254 0.3418
vt 0.554 0.2132
vt 0.6969 0.2132
vt 0.3881 0.5453
vt 0.3151 0.0446
vt 0.509 0.0648
vt 0.5268 0.3966
vt 0.6254 0.113
vt 0.7029 0.0446
vt 0.6654 0.5453
vt 0.5268 0.3966
vt 0.509 0.0648
vt 0.875 0.0368
vt 0.8067 0.5917
vt 0.9995 0.7352
vt 0.6113 0.0635
vt 0.6819 0.0563
vt 0.9995 0.7352
vt 0.8572 0.5866
vt 0.875 0.0368
vt 0.9615 0.583
vt 0.8459 0.502
vt 0.9355 0.448
vt 0.8067 0.5917
vt 0.6113 0.0635
vt 0.5103 0.0743
vt 0.6989 0.4752
vt 0.8365 0.357
vt 0.6113 0.0635
vt 0.6819 0.0563
vt 0.5103 0.0743
vt 0.6819 0.0563
vt 0.8572 0.5866
vt 0.6989 0.4752
vt 0.5103 0.0743
vt 0.3093 0.0367
vt 0.0005 0.5269
vt 0.0124 0.6887
vt 0.2004 0.02
vt 0.4572 0.0594
vt 0.0124 0.6887
vt 0.1841 0.5551
vt 0.3093 0.0367
vt 0.5589 0.8721
vt 0.5505 0.7211
vt 0.6382 0.7716
vt 0.0005 0.5269
vt 0.2004 0.02
vt 0.3402 0.0421
vt 0.155 0.4256
vt 0.6391 0.6628
vt 0.2004 0.02
vt 0.4572 0.0594
vt 0.3402 0.0421
vt 0.4572 0.0594
vt 0.1841 0.5551
vt 0.155 0.4256
vt 0.3402 0.0421
vt 0.3403 0.0005
vt 0.3956 0.4682
vt 0.2235 0.5729
vt 0.5613 0.0213
vt 0.3577 0.0424
vt 0.2235 0.5729
vt 0.2501 0.4833
vt 0.3403 0.0005
vt 0.2433 0.3672
vt 0.3739 0.3052
vt 0.2698 0.2501
vt 0.3956 0.4682
vt 0.5613 0.0213
vt 0.5306 0.0594
vt 0.4016 0.4004
vt 0.3838 0.1948
vt 0.3577 0.0424
vt 0.2501 0.4833
vt 0.4016 0.4004
vt 0.5306 0.0594
vt 0.3096 0.0618
vt 0.1999 0.2698
vt 0.1394 0.3354
vt 0.3507 0.0594
vt 0.4174 0.0852
vt 0.1394 0.3354
vt 0.2475 0.2882
vt 0.3096 0.0618
vt 0.6742 0.3248
vt 0.7347 0.2391
vt 0.7824 0.2632
vt 0.1999 0.2698
vt 0.3507 0.0594
vt 0.4284 0.0787
vt 0.2903 0.235
vt 0.8252 0.1937
vt 0.3507 0.0594
vt 0.4174 0.0852
vt 0.4284 0.0787
vt 0.4174 0.0852
vt 0.2475 0.2882
vt 0.2903 0.235
vt 0.4284 0.0787
vt 0.6224 0.029
vt 0.6976 0.3044
vt 0.7545 0.36
vt 0.5715 0.0617
vt 0.4891 0.0529
vt 0.7545 0.36
vt 0.6387 0.2982
vt 0.6224 0.029
vt 0.7545 0.1637
vt 0.6976 0.0912
vt 0.6387 0.083
vt 0.6976 0.3044
vt 0.5715 0.0617
vt 0.4753 0.0745
vt 0.5998 0.2557
vt 0.5998 0.0275
vt 0.5715 0.0617
vt 0.4891 0.0529
vt 0.4753 0.0745
vt 0.4891 0.0529
vt 0.6387 0.2982
vt 0.5998 0.2557
vt 0.4753 0.0745
vt 0.509 0.0347
vt 0.3881 0.5453
vt 0.5268 0.7362
vt 0.3151 0.0446
vt 0.7029 0.0446
vt 0.5268 0.7362
vt 0.6654 0.5453
vt 0.509 0.0347
vt 0.6254 0.3418
vt 0.554 0.2132
vt 0.6969 0.2132
vt 0.3881 0.5453
vt 0.3151 0.0446
vt 0.509 0.0648
vt 0.5268 0.3966
vt 0.6254 0.113
vt 0.7029 0.0446
vt 0.6654 0.5453
vt 0.5268 0.3966
vt 0.509 0.0648
vt 0.875 0.0368
vt 0.8067 0.5917
vt 0.9995 0.7352
vt 0.6113 0.0635
vt 0.6819 0.0563
vt 0.9995 0.7352
vt 0.8572 0.5866
vt 0.875 0.0368
vt 0.9615 0.583
vt 0.8459 0.502
vt 0.9355 0.448
vt 0.8067 0.5917
vt 0.6113 0.0635
vt 0.5103 0.0743
vt 0.6989 0.4752
vt 0.8365 0.357
vt 0.6113 0.0635
vt 0.6819 0.0563
vt 0.5103 0.0743
vt 0.6819 0.0563
vt 0.8572 0.5866
vt 0.6989 0.4752
vt 0.5103 0.0743
vt 0.3093 0.0367
vt 0.0005 0.5269
vt 0.0124 0.6887
vt 0.2004 0.02
vt 0.4572 0.0594
vt 0.0124 0.6887
vt 0.1841 0.5551
vt 0.3093 0.0367
vt 0.5589 0.8721
vt 0.5505 0.7211
vt 0.6382 0.7716
vt 0.0005 0.5269
vt 0.2004 0.02
vt 0.3402 0.0421
vt 0.155 0.4256
vt 0.6391 0.6628
vt 0.2004 0.02
vt 0.4572 0.0594
vt 0.3402 0.0421
vt 0.4572 0.0594
vt 0.1841 0.5551
vt 0.155 0.4256
vt 0.3402 0.0421
vt 0.3403 0.0005
vt 0.3956 0.4682
vt 0.2235 0.5729
vt 0.5613 0.0213
vt 0.3577 0.0424
vt 0.2235 0.5729
vt 0.2501 0.4833
vt 0.3403 0.0005
vt 0.2433 0.3672
vt 0.3739 0.3052
vt 0.2698 0.2501
vt 0.3956 0.4682
vt 0.5613 0.0213
vt 0.5306 0.0594
vt 0.4016 0.4004
vt 0.3838 0.1948
vt 0.3577 0.0424
vt 0.2501 0.4833
vt 0.4016 0.4004
vt 0.5306 0.0594
vt 0.3096 0.0618
vt 0.1999 0.2698
vt 0.1394 0.3354
vt 0.3507 0.0594
vt 0.4174 0.0852
vt 0.1394 0.3354
vt 0.2475 0.2882
vt 0.3096 0.0618
vt 0.6742 0.3248
vt 0.7347 0.2391
vt 0.7824 0.2632
vt 0.1999 0.2698
vt 0.3507 0.0594
vt 0.4284 0.0787
vt 0.2903 0.235
vt 0.8252 0.1937
vt 0.3507 0.0594
vt 0.4174 0.0852
vt 0.4284 0.0787
vt 0.4174 0.0852
vt 0.2475 0.2882
vt 0.2903 0.235
vt 0.4284 0.0787
vt 0.6224 0.029
vt 0.6976 0.3044
vt 0.7545 0.36
vt 0.5715 0.0617
vt 0.4891 0.0529
vt 0.7545 0.36
vt 0.6387 0.2982
vt 0.6224 0.029
vt 0.7545 0.1637
vt 0.6976 0.0912
vt 0.6387 0.083
vt 0.6976 0.3044
vt 0.5715 0.0617
vt 0.4753 0.0745
vt 0.5998 0.2557
vt 0.5998 0.0275
vt 0.5715 0.0617
vt 0.4891 0.0529
vt 0.4753 0.0745
vt 0.4891 0.0529
vt 0.6387 0.2982
vt 0.5998 0.2557
vt 0.4753 0.0745
vt 0.509 0.0347
vt 0.3881 0.5453
vt 0.5268 0.7362
vt 0.3151 0.0446
vt 0.7029 0.0446
vt 0.5268 0.7362
vt 0.6654 0.5453
vt 0.509 0.0347
vt 0.6254 0.3418
vt 0.554 0.2132
vt 0.6969 0.2132
vt 0.3881 0.5453
vt 0.3151 0.0446
vt 0.509 0.0648
vt 0.5268 0.3966
vt 0.6254 0.113
vt 0.7029 0.0446
vt 0.6654 0.5453
vt 0.5268 0.3966
vt 0.509 0.0648
vt 0.875 0.0368
vt 0.8067 0.5917
vt 0.9995 0.7352
vt 0.6113 0.0635
vt 0.6819 0.0563
vt 0.9995 0.7352
vt 0.8572 0.5866
vt 0.875 0.0368
vt 0.9615 0.583
vt 0.8459 0.502
vt 0.9355 0.448
vt 0.8067 0.5917
vt 0.6113 0.0635
vt 0.5103 0.0743
vt 0.6989 0.4752
vt 0.8365 0.357
vt 0.6113 0.0635
vt 0.6819 0.0563
vt 0.5103 0.0743
vt 0.6819 0.0563
vt 0.8572 0.5866
vt 0.6989 0.4752
vt 0.5103 0.0743
vt 0.3093 0.0367
vt 0.0005 0.5269
vt 0.0124 0.6887
vt 0.2004 0.02
vt 0.4572 0.0594
vt 0.0124 0.6887
vt 0.1841 0.5551
vt 0.3093 0.0367
vt 0.5589 0.8721
vt 0.5505 0.7211
vt 0.6382 0.7716
vt 0.0005 0.5269
vt 0.2004 0.02
vt 0.3402 0.0421
vt 0.155 0.4256
vt 0.6391 0.6628
vt 0.2004 0.02
vt 0.4572 0.0594
vt 0.3402 0.0421
vt 0.4572 0.0594
vt 0.1841 0.5551
vt 0.155 0.4256
vt 0.3402 0.0421
vt 0.3403 0.0005
vt 0.3956 0.4682
vt 0.2235 0.5729
vt 0.5613 0.0213
vt 0.3577 0.0424
vt 0.2235 0.5729
vt 0.2501 0.4833
vt 0.3403 0.0005
vt 0.2433 0.3672
vt 0.3739 0.3052
vt 0.2698 0.2501
vt 0.3956 0.4682
vt 0.5613 0.0213
vt 0.5306 0.0594
vt 0.4016 0.4004
vt 0.3838 0.1948
vt 0.3577 0.0424
vt 0.2501 0.4833
vt 0.4016 0.4004
vt 0.5306 0.0594
vt 0.3096 0.0618
vt 0.1999 0.2698
vt 0.1394 0.3354
vt 0.3507 0.0594
vt 0.4174 0.0852
vt 0.1394 0.3354
vt 0.2475 0.2882
vt 0.3096 0.0618
vt 0.6742 0.3248
vt 0.7347 0.2391
vt 0.7824 0.2632
vt 0.1999 0.2698
vt 0.3507 0.0594
vt 0.4284 0.0787
vt 0.2903 0.235
vt 0.8252 0.1937
vt 0.3507 0.0594
vt 0.4174 0.0852
vt 0.4284 0.0787
vt 0.4174 0.0852
vt 0.2475 0.2882
vt 0.2903 0.235
vt 0.4284 0.0787
vt 0.6224 0.029
vt 0.6976 0.3044
vt 0.7545 0.36
vt 0.5715 0.0617
vt 0.4891 0.0529
vt 0.7545 0.36
vt 0.6387 0.2982
vt 0.6224 0.029
vt 0.7545 0.1637
vt 0.6976 0.0912
vt 0.6387 0.083
vt 0.6976 0.3044
vt 0.5715 0.0617
vt 0.4753 0.0745
vt 0.5998 0.2557
vt 0.5998 0.0275
vt 0.5715 0.0617
vt 0.4891 0.0529
vt 0.4753 0.0745
vt 0.4891 0.0529
vt 0.6387 0.2982
vt 0.5998 0.2557
vt 0.4753 0.0745
vt 0.509 0.0347
vt 0.3881 0.5453
vt 0.5268 0.7362
vt 0.3151 0.0446
vt 0.7029 0.0446
vt 0.5268 0.7362
vt 0.6654 0.5453
vt 0.509 0.0347
vt 0.6254 0.3418
vt 0.554 0.2132
vt 0.6969 0.2132
vt 0.3881 0.5453
vt 0.3151 0.0446
vt 0.509 0.0648
vt 0.5268 0.3966
vt 0.6254 0.113
vt 0.7029 0.0446
vt 0.6654 0.5453
vt 0.5268 0.3966
vt 0.509 0.0648
vt 0.875 0.0368
vt 0.8067 0.5917
vt 0.9995 0.7352
vt 0.6113 0.0635
vt 0.6819 0.0563
vt 0.9995 0.7352
vt 0.8572 0.5866
vt 0.875 0.0368
vt 0.9615 0.583
vt 0.8459 0.502
vt 0.9355 0.448
vt 0.8067 0.5917
vt 0.6113 0.0635
vt 0.5103 0.0743
vt 0.6989 0.4752
vt 0.8365 0.357
vt 0.6113 0.0635
vt 0.6819 0.0563
vt 0.5103 0.0743
vt 0.6819 0.0563
vt 0.8572 0.5866
vt 0.6989 0.4752
vt 0.5103 0.0743
vt 0.3093 0.0367
vt 0.0005 0.5269
vt 0.0124 0.6887
vt 0.2004 0.02
vt 0.4572 0.0594
vt 0.0124 0.6887
vt 0.1841 0.5551
vt 0.3093 0.0367
vt 0.5589 0.8721
vt 0.5505 0.7211
vt 0.6382 0.7716
vt 0.0005 0.5269
vt 0.2004 0.02
vt 0.3402 0.0421
vt 0.155 0.4256
vt 0.6391 0.6628
vt 0.2004 0.02
vt 0.4572 0.0594
vt 0.3402 0.0421
vt 0.4572 0.0594
vt 0.1841 0.5551
vt 0.155 0.4256
vt 0.3402 0.0421
vt 0.3403 0.0005
vt 0.3956 0.4682
vt 0.2235 0.5729
vt 0.5613 0.0213
vt 0.3577 0.0424
vt 0.2235 0.5729
vt 0.2501 0.4833
vt 0.3403 0.0005
vt 0.2433 0.3672
vt 0.3739 0.3052
vt 0.2698 0.2501
vt 0.3956 0.4682
vt 0.5613 0.0213
vt 0.5306 0.0594
vt 0.4016 0.4004
vt 0.3838 0.1948
vt 0.3577 0.0424
vt 0.2501 0.4833
vt 0.4016 0.4004
vt 0.5306 0.0594
vt 0.3096 0.0618
vt 0.1999 0.2698
vt 0.1394 0.3354
vt 0.3507 0.0594
vt 0.4174 0.0852
vt 0.1394 0.3354
vt 0.2475 0.2882
vt 0.3096 0.0618
vt 0.6742 0.3248
vt 0.7347 0.2391
vt 0.7824 0.2632
vt 0.1999 0.2698
vt 0.3507 0.0594
vt 0.4284 0.0787
vt 0.2903 0.235
vt 0.8252 0.1937
vt 0.3507 0.0594
vt 0.4174 0.0852
vt 0.4284 0.0787
vt 0.4174 0.0852
vt 0.2475 0.2882
vt 0.2903 0.235
vt 0.4284 0.0787
vt 0.6224 0.029
vt 0.6976 0.3044
vt 0.7545 0.36
vt 0.5715 0.0617
vt 0.4891 0.0529
vt 0.7545 0.36
vt 0.6387 0.2982
vt 0.6224 0.029
vt 0.7545 0.1637
vt 0.6976 0.0912
vt 0.6387 0.083
vt 0.6976 0.3044
vt 0.5715 0.0617
vt 0.4753 0.0745
vt 0.5998 0.2557
vt 0.5998 0.0275
vt 0.5715 0.0617
vt 0.4891 0.0529
vt 0.4753 0.0745
vt 0.4891 0.0529
vt 0.6387 0.2982
vt 0.5998 0.2557
vt 0.4753 0.0745
f 1/1/1 3/3/3 2/2/2
f 1/1/1 2/2/2 4/4/4
f 5/5/5 7/7/7 6/6/6
f 5/5/5 6/6/6 8/8/8
f 9/9/9 11/11/11 10/10/10
f 12/12/12 14/14/14 13/13/13
f 14/14/14 12/12/12 15/15/15
f 11/11/11 16/16/16 10/10/10
f 17/17/17 19/19/19 18/18/18
f 19/19/19 17/17/17 20/20/20
f 21/21/21 23/23/23 22/22/22
f 21/21/21 22/22/22 24/24/24
f 25/25/25 27/27/27 26/26/26
f 25/25/25 26/26/26 28/28/28
f 29/29/29 31/31/31 30/30/30
f 32/32/32 34/34/34 33/33/33
f 34/34/34 32/32/32 35/35/35
f 31/31/31 36/36/36 30/30/30
f 37/37/37 39/39/39 38/38/38
f 40/40/40 42/42/42 41/41/41
f 42/42/42 40/40/40 43/43/43
f 44/44/44 46/46/46 45/45/45
f 44/44/44 45/45/45 47/47/47
f 48/48/48 50/50/50 49/49/49
f 48/48/48 49/49/49 51/51/51
f 52/52/52 54/54/54 53/53/53
f 55/55/55 57/57/57 56/56/56
f 57/57/57 55/55/55 58/58/58
f 54/54/54 59/59/59 53/53/53
f 60/60/60 62/62/62 61/61/61
f 63/63/63 65/65/65 64/64/64
f 65/65/65 63/63/63 66/66/66
f 67/67/67 69/69/69 68/68/68
f 67/67/67 68/68/68 70/70/70
f 71/71/71 73/73/73 72/72/72
f 71/71/71 72/72/72 74/74/74
f 75/75/75 77/77/77 76/76/76
f 78/78/78 80/80/80 79/79/79
f 80/80/80 78/78/78 81/81/81
f 77/77/77 82/82/82 76/76/76
f 83/83/83 85/85/85 84/84/84
f 85/85/85 83/83/83 86/86/86
f 87/87/87 89/89/89 88/88/88
f 87/87/87 88/88/88 90/90/90
f 91/91/91 93/93/93 92/92/92
f 91/91/91 92/92/92 94/94/94
f 95/95/95 97/97/97 96/96/96
f 98/98/98 100/100/100 99/99/99
f 100/100/100 98/98/98 101/101/101
f 97/97/97 102/102/102 96/96/96
f 103/103/103 105/105/105 104/104/104
f 106/106/106 108/108/108 107/107/107
f 108/108/108 106/106/106 109/109/109
f 110/110/110 112/112/112 111/111/111
f 110/110/110 111/111/111 113/113/113
f 114/114/114 116/116/116 115/115/115
f 114/114/114 115/115/115 117/117/117
f 118/118/118 120/120/120 119/119/119
f 121/121/121 123/123/123 122/122/122
f 123/123/123 121/121/121 124/124/124
f 120/120/120 125/125/125 119/119/119
f 126/126/126 128/128/128 127/127/127
f 129/129/129 131/131/131 130/130/130
f 131/131/131 129/129/129 132/132/132
f 133/133/133 135/135/135 134/134/134
f 133/133/133 134/134/134 136/136/136
f 137/137/137 139/139/139 138/138/138
f 137/137/137 138/138/138 140/140/140
f 141/141/141 143/143/143 142/142/142
f 144/144/144 146/146/146 145/145/145
f 146/146/146 144/144/144 147/147/147
f 143/143/143 148/148/148 142/142/142
f 149/149/149 151/151/151 150/150/150
f 151/151/151 149/149/149 152/152/152
f 153/153/153 155/155/155 154/154/154
f 153/153/153 154/154/154 156/156/156
f 157/157/157 159/159/159 158/158/158
f 157/157/157 158/158/158 160/160/160
f 161/161/161 163/163/163 162/162/162
f 164/164/164 166/166/166 165/165/165
f 166/166/166 164/164/164 167/167/167
f 163/163/163 168/168/168 162/162/162
f 169/169/169 171/171/171 170/170/170
f 172/172/172 174/174/174 173/173/173
f 174/174/174 172/172/172 175/175/175
f 176/176/176 178/178/178 177/177/177
f 176/176/176 177/177/177 179/179/179
f 180/180/180 182/182/182 181/181/181
f 180/180/180 181/181/181 183/183/183
f 184/184/184 186/186/186 185/185/185
f 187/187/187 189/189/189 188/188/188
f 189/189/189 187/187/187 190/190/190
f 186/186/186 191/191/191 185/185/185
f 192/192/192 194/194/194 193/193/193
f 195/195/195 197/197/197 196/196/196
f 197/197/197 195/195/195 198/198/198
f 199/199/199 201/201/201 200/200/200
f 199/199/199 200/200/200 202/202/202
f 203/203/203 205/205/205 204/204/204
f 203/203/203 204/204/204 206/206/206
f 207/207/207 209/209/209 208/208/208
f 210/210/210 212/212/212 211/211/211
f 212/212/212 210/210/210 213/213/213
f 209/209/209 214/214/214 208/208/208
f 215/215/215 217/217/217 216/216/216
f 217/217/217 215/215/215 218/218/218
f 219/219/219 221/221/221 220/220/220
f 219/219/219 220/220/220 222/222/222
f 223/223/223 225/225/225 224/224/224
f 223/223/223 224/224/224 226/226/226
f 227/227/227 229/229/229 228/228/228
f 230/230/230 232/232/232 231/231/231
f 232/232/232 230/230/230 233/233/233
f 229/229/229 234/234/234 228/228/228
f 235/235/235 237/237/237 236/236/236
f 238/238/238 240/240/240 239/239/239
f 240/240/240 238/238/238 241/241/241
f 242/242/242 244/244/244 243/243/243
f 242/242/242 243/243/243 245/245/245
f 246/246/246 248/248/248 247/247/247
f 246/246/246 247/247/247 249/249/249
f 250/250/250 252/252/252 251/251/251
f 253/253/253 255/255/255 254/254/254
f 255/255/255 253/253/253 256/256/256
f 252/252/252 257/257/257 251/251/251
f 258/258/258 260/260/260 259/259/259
f 261/261/261 263/263/263 262/262/262
f 263/263/263 261/261/261 264/264/264
f 265/265/265 267/267/267 266/266/266
f 265/265/265 266/266/266 268/268/268
f 269/269/269 271/271/271 270/270/270
f 269/269/269 270/270/270 272/272/272
f 273/273/273 275/275/275 274/274/274
f 276/276/276 278/278/278 277/277/277
f 278/278/278 276/276/276 279/279/279
f 275/275/275 280/280/280 274/274/274
f 281/281/281 283/283/283 282/282/282
f 283/283/283 281/281/281 284/284/284
f 285/285/285 287/287/287 286/286/286
f 285/285/285 286/286/286 288/288/288
f 289/289/289 291/291/291 290/290/290
f 289/289/289 290/290/290 292/292/292
f 293/293/293 295/295/295 294/294/294
f 296/296/296 298/298/298 297/297/297
f 298/298/298 296/296/296 299/299/299
f 295/295/295 300/300/300 294/294/294
f 301/301/301 303/303/303 302/302/302
f 304/304/304 306/306/306 305/305/305
f 306/306/306 304/304/304 307/307/307
f 308/308/308 310/310/310 309/309/309
f 308/308/308 309/309/309 311/311/311
f 312/312/312 314/314/314 313/313/313
f 312/312/312 313/313/313 315/315/315
f 316/316/316 318/318/318 317/317/317
f 319/319/319 321/321/321 320/320/320
f 321/321/321 319/319/319 322/322/322
f 318/318/318 323/323/323 317/317/317
f 324/324/324 326/326/326 325/325/325
f 327/327/327 329/329/329 328/328/328
f 329/329/329 327/327/327 330/330/330
f 331/331/331 333/333/333 332/332/332
f 331/331/331 332/332/332 334/334/334
f 335/335/335 337/337/337 336/336/336
f 335/335/335 336/336/336 338/338/338
f 339/339/339 341/341/341 340/340/340
f 342/342/342 344/344/344 343/343/343
f 344/344/344 342/342/342 345/345/345
f 341/341/341 346/346/346 340/340/340
f 347/347/347 349/349/349 348/348/348
f 349/349/349 347/347/347 350/350/350
f 351/351/351 353/353/353 352/352/352
f 351/351/351 352/352/352 354/354/354
f 355/355/355 357/357/357 356/356/356
f 355/355/355 356/356/356 358/358/358
f 359/359/359 361/361/361 360/360/360
f 362/362/362 364/364/364 363/363/363
f 364/364/364 362/362/362 365/365/365
f 361/361/361 366/366/366 360/360/360
f 367/367/367 369/369/369 368/368/368
f 370/370/370 372/372/372 371/371/371
f 372/372/372 370/370/370 373/373/373
f 374/374/374 376/376/376 375/375/375
f 374/374/374 375/375/375 377/377/377
f 378/378/378 380/380/380 379/379/379
f 378/378/378 379/379/379 381/381/381
f 382/382/382 384/384/384 383/383/383
f 385/385/385 387/387/387 386/386/386
f 387/387/387 385/385/385 388/388/388
f 384/384/384 389/389/389 383/383/383
f 390/390/390 392/392/392 391/391/391
f 393/393/393 395/395/395 394/394/394
f 395/395/395 393/393/393 396/396/396
f 397/397/397 399/399/399 398/398/398
f 397/397/397 398/398/398 400/400/400
f 401/401/401 403/403/403 402/402/402
f 401/401/401 402/402/402 404/404/404
f 405/405/405 407/407/407 406/406/406
f 408/408/408 410/410/410 409/409/409
f 410/410/410 408/408/408 411/411/411
f 407/407/407 412/412/412 406/406/406
f 413/413/413 415/415/415 414/414/414
f 415/415/415 413/413/413 416/416/416
f 417/417/417 419/419/419 418/418/418
f 417/417/417 418/418/418 420/420/420
f 421/421/421 423/423/423 422/422/422
f 421/421/421 422/422/422 424/424/424
f 425/425/425 427/427/427 426/426/426
f 428/428/428 430/430/430 429/429/429
f 430/430/430 428/428/428 431/431/431
f 427/427/427 432/432/432 426/426/426
f 433/433/433 435/435/435 434/434/434
f 436/436/436 438/438/438 437/437/437
f 438/438/438 436/436/436 439/439/439
f 440/440/440 442/442/442 441/441/441
f 440/440/440 441/441/441 443/443/443
f 444/444/444 446/446/446 445/445/445
f 444/444/444 445/445/445 447/447/447
f 448/448/448 450/450/450 449/449/449
f 451/451/451 453/453/453 452/452/452
f 453/453/453 451/451/451 454/454/454
f 450/450/450 455/455/455 449/449/449
f 456/456/456 458/458/458 457/457/457
f 459/459/459 461/461/461 460/460/460
f 461/461/461 459/459/459 462/462/462
f 463/463/463 465/465/465 464/464/464
f 463/463/463 464/464/464 466/466/466
f 467/467/467 469/469/469 468/468/468
f 467/467/467 468/468/468 470/470/470
f 471/471/471 473/473/473 472/472/472
f 474/474/474 476/476/476 475/475/475
f 476/476/476 474/474/474 477/477/477
f 473/473/473 478/478/478 472/472/472
f 479/479/479 481/481/481 480/480/480
f 481/481/481 479/479/479 482/482/482
f 483/483/483 485/485/485 484/484/484
f 483/483/483 484/484/484 486/486/486
f 487/487/487 489/489/489 488/488/488
f 487/487/487 488/488/488 490/490/490
f 491/491/491 493/493/493 492/492/492
f 494/494/494 496/496/496 495/495/495
f 496/496/496 494/494/494 497/497/497
f 493/493/493 498/498/498 492/492/492
f 499/499/499 501/501/501 500/500/500
f 502/502/502 504/504/504 503/503/503
f 504/504/504 502/502/502 505/505/505
f 506/506/506 508/508/508 507/507/507
f 506/506/506 507/507/507 509/509/509
f 510/510/510 512/512/512 511/511/511
f 510/510/510 511/511/511 513/513/513
f 514/514/514 516/516/516 515/515/515
f 517/517/517 519/519/519 518/518/518
f 519/519/519 517/517/517 520/520/520
f 516/516/516 521/521/521 515/515/515
f 522/522/522 524/524/524 523/523/523
f 525/525/525 527/527/527 526/526/526
f 527/527/527 525/525/525 528/528/528
