# Object15.bmd — MU bind-pose geometry, exported for MU2
# 1 mesh(es)

g so_jghwall02
# texture: so_jghwall02.jpg
v -72.441 579.3056 4.0062
v -64.4286 579.3056 4.0062
v -64.4286 579.3056 -4.0062
v -72.441 579.3056 -4.0062
v -25.9543 -1.2978 42.4805
v -25.9543 -1.2978 -42.4805
v -25.9543 21.8612 -42.4805
v -25.9543 21.8612 42.4805
v -110.9153 -1.2978 -42.4805
v -110.9153 21.8612 -42.4805
v -25.9543 21.8612 -42.4805
v -25.9543 -1.2978 -42.4805
v -110.9153 -1.2978 -42.4805
v -110.9153 -1.2978 42.4805
v -110.9153 21.8612 42.4805
v -110.9153 21.8612 -42.4805
v -25.9543 21.8612 42.4805
v -25.9543 21.8612 -42.4805
v -35.0445 21.8612 -33.3903
v -35.0445 21.8612 33.3903
v -110.9153 21.8612 -42.4805
v -101.8251 21.8612 -33.3903
v -35.0445 21.8612 -33.3903
v -25.9543 21.8612 -42.4805
v -110.9153 21.8612 -42.4805
v -110.9153 21.8612 42.4805
v -101.8251 21.8612 33.3903
v -101.8251 21.8612 -33.3903
v -35.0445 21.8612 33.3903
v -35.0445 21.8612 -33.3903
v -39.2762 80.7779 -29.1586
v -39.2762 80.7779 29.1586
v -101.8251 21.8612 -33.3903
v -97.5934 80.7779 -29.1586
v -39.2762 80.7779 -29.1586
v -35.0445 21.8612 -33.3903
v -101.8251 21.8612 -33.3903
v -101.8251 21.8612 33.3903
v -97.5934 80.7779 29.1586
v -97.5934 80.7779 -29.1586
v -39.2762 80.7779 29.1586
v -39.2762 80.7779 -29.1586
v -35.6088 85.9089 -32.826
v -35.6088 85.9089 32.826
v -39.2762 80.7779 -29.1586
v -97.5934 80.7779 -29.1586
v -101.2609 85.9089 -32.826
v -35.6088 85.9089 -32.826
v -97.5934 80.7779 -29.1586
v -97.5934 80.7779 29.1586
v -101.2609 85.9089 32.826
v -101.2609 85.9089 -32.826
v -35.6088 85.9089 32.826
v -35.6088 85.9089 -32.826
v -35.6088 97.7375 -32.826
v -35.6088 97.7375 32.826
v -101.2609 85.9089 -32.826
v -101.2609 97.7375 -32.826
v -35.6088 97.7375 -32.826
v -35.6088 85.9089 -32.826
v -101.2609 85.9089 -32.826
v -101.2609 85.9089 32.826
v -101.2609 97.7375 32.826
v -101.2609 97.7375 -32.826
v -35.6088 97.7375 32.826
v -35.6088 97.7375 -32.826
v -42.2471 97.7375 -26.1877
v -42.2471 97.7375 26.1877
v -35.6088 97.7375 -32.826
v -101.2609 97.7375 -32.826
v -94.6225 97.7375 -26.1877
v -42.2471 97.7375 -26.1877
v -101.2609 97.7375 32.826
v -94.6225 97.7375 26.1877
v -94.6225 97.7375 -26.1877
v -101.2609 97.7375 -32.826
v -42.2471 97.7375 26.1877
v -55.2753 422.2157 13.1595
v -81.5943 422.2157 13.1595
v -94.6225 97.7375 26.1877
v -42.2471 97.7375 -26.1877
v -55.2753 422.2157 -13.1595
v -55.2753 422.2157 13.1595
v -42.2471 97.7375 26.1877
v -94.6225 97.7375 -26.1877
v -81.5943 422.2157 -13.1595
v -55.2753 422.2157 -13.1595
v -42.2471 97.7375 -26.1877
v -94.6225 97.7375 26.1877
v -81.5943 422.2157 13.1595
v -81.5943 422.2157 -13.1595
v -94.6225 97.7375 -26.1877
v -49.1889 435.3359 19.2459
v -87.6807 435.3359 19.2459
v -88.2584 422.5814 19.8236
v -48.6112 422.5814 19.8236
v -49.1889 435.3359 -19.2459
v -49.1889 435.3359 19.2459
v -48.6112 422.5814 19.8236
v -48.6112 422.5814 -19.8236
v -87.6807 435.3359 -19.2459
v -49.1889 435.3359 -19.2459
v -48.6112 422.5814 -19.8236
v -88.2584 422.5814 -19.8236
v -87.6807 435.3359 19.2459
v -87.6807 435.3359 -19.2459
v -88.2584 422.5814 -19.8236
v -88.2584 422.5814 -19.8236
v -88.2584 422.5814 19.8236
v -87.6807 435.3359 19.2459
v -25.9543 -1.2978 42.4805
v -25.9543 21.8612 42.4805
v -110.9153 21.8612 42.4805
v -110.9153 -1.2978 42.4805
v -110.9153 21.8612 42.4805
v -25.9543 21.8612 42.4805
v -35.0445 21.8612 33.3903
v -101.8251 21.8612 33.3903
v -101.8251 21.8612 33.3903
v -35.0445 21.8612 33.3903
v -39.2762 80.7779 29.1586
v -97.5934 80.7779 29.1586
v -39.2762 80.7779 29.1586
v -35.6088 85.9089 32.826
v -101.2609 85.9089 32.826
v -97.5934 80.7779 29.1586
v -35.6088 85.9089 32.826
v -35.6088 97.7375 32.826
v -101.2609 97.7375 32.826
v -101.2609 85.9089 32.826
v -35.6088 97.7375 32.826
v -42.2471 97.7375 26.1877
v -94.6225 97.7375 26.1877
v -101.2609 97.7375 32.826
v -64.4286 579.3056 4.0062
v -72.441 579.3056 4.0062
v -81.0166 434.9702 12.5818
v -55.853 434.9702 12.5818
v -64.4286 579.3056 -4.0062
v -64.4286 579.3056 4.0062
v -55.853 434.9702 12.5818
v -55.853 434.9702 -12.5818
v -72.441 579.3056 -4.0062
v -64.4286 579.3056 -4.0062
v -55.853 434.9702 -12.5818
v -81.0166 434.9702 -12.5818
v -72.441 579.3056 4.0062
v -72.441 579.3056 -4.0062
v -81.0166 434.9702 -12.5818
v -81.0166 434.9702 12.5818
v -81.5943 422.2157 13.1595
v -55.2753 422.2157 13.1595
v -48.6112 422.5814 19.8236
v -88.2584 422.5814 19.8236
v -55.2753 422.2157 13.1595
v -55.2753 422.2157 -13.1595
v -48.6112 422.5814 -19.8236
v -48.6112 422.5814 19.8236
v -55.2753 422.2157 -13.1595
v -81.5943 422.2157 -13.1595
v -88.2584 422.5814 -19.8236
v -48.6112 422.5814 -19.8236
v -81.5943 422.2157 -13.1595
v -81.5943 422.2157 13.1595
v -88.2584 422.5814 19.8236
v -88.2584 422.5814 -19.8236
v -55.853 434.9702 12.5818
v -81.0166 434.9702 12.5818
v -87.6807 435.3359 19.2459
v -49.1889 435.3359 19.2459
v -81.0166 434.9702 12.5818
v -81.0166 434.9702 -12.5818
v -87.6807 435.3359 -19.2459
v -87.6807 435.3359 19.2459
v -81.0166 434.9702 -12.5818
v -55.853 434.9702 -12.5818
v -49.1889 435.3359 -19.2459
v -87.6807 435.3359 -19.2459
v -55.853 434.9702 -12.5818
v -55.853 434.9702 12.5818
v -49.1889 435.3359 19.2459
v -49.1889 435.3359 -19.2459
v 65.3236 579.3056 4.0062
v 73.336 579.3056 4.0062
v 73.336 579.3056 -4.0062
v 65.3236 579.3056 -4.0062
v 111.8104 -1.2979 42.4805
v 111.8104 -1.2979 -42.4805
v 111.8104 21.8612 -42.4805
v 111.8104 21.8612 42.4805
v 26.8493 -1.2979 -42.4805
v 26.8493 21.8612 -42.4805
v 111.8104 21.8612 -42.4805
v 111.8104 -1.2979 -42.4805
v 26.8493 -1.2979 -42.4805
v 26.8493 -1.2979 42.4805
v 26.8493 21.8612 42.4805
v 26.8493 21.8612 -42.4805
v 111.8104 21.8612 42.4805
v 111.8104 21.8612 -42.4805
v 102.7201 21.8612 -33.3903
v 102.7201 21.8612 33.3903
v 26.8493 21.8612 -42.4805
v 35.9396 21.8612 -33.3903
v 102.7201 21.8612 -33.3903
v 111.8104 21.8612 -42.4805
v 26.8493 21.8612 -42.4805
v 26.8493 21.8612 42.4805
v 35.9396 21.8612 33.3903
v 35.9396 21.8612 -33.3903
v 102.7201 21.8612 33.3903
v 102.7201 21.8612 -33.3903
v 98.4885 80.7779 -29.1586
v 98.4885 80.7779 29.1586
v 35.9396 21.8612 -33.3903
v 40.1712 80.7779 -29.1586
v 98.4885 80.7779 -29.1586
v 102.7201 21.8612 -33.3903
v 35.9396 21.8612 -33.3903
v 35.9396 21.8612 33.3903
v 40.1712 80.7779 29.1586
v 40.1712 80.7779 -29.1586
v 98.4885 80.7779 29.1586
v 98.4885 80.7779 -29.1586
v 102.1559 85.9089 -32.826
v 102.1559 85.9089 32.826
v 98.4885 80.7779 -29.1586
v 40.1712 80.7779 -29.1586
v 36.5038 85.9089 -32.826
v 102.1559 85.9089 -32.826
v 40.1712 80.7779 -29.1586
v 40.1712 80.7779 29.1586
v 36.5038 85.9089 32.826
v 36.5038 85.9089 -32.826
v 102.1559 85.9089 32.826
v 102.1559 85.9089 -32.826
v 102.1559 97.7375 -32.826
v 102.1559 97.7375 32.826
v 36.5038 85.9089 -32.826
v 36.5038 97.7375 -32.826
v 102.1559 97.7375 -32.826
v 102.1559 85.9089 -32.826
v 36.5038 85.9089 -32.826
v 36.5038 85.9089 32.826
v 36.5038 97.7375 32.826
v 36.5038 97.7375 -32.826
v 102.1559 97.7375 32.826
v 102.1559 97.7375 -32.826
v 95.5175 97.7375 -26.1877
v 95.5175 97.7375 26.1877
v 102.1559 97.7375 -32.826
v 36.5038 97.7375 -32.826
v 43.1422 97.7375 -26.1877
v 95.5175 97.7375 -26.1877
v 36.5038 97.7375 32.826
v 43.1422 97.7375 26.1877
v 43.1422 97.7375 -26.1877
v 36.5038 97.7375 -32.826
v 95.5175 97.7375 26.1877
v 82.4894 422.2157 13.1595
v 56.1703 422.2157 13.1595
v 43.1422 97.7375 26.1877
v 95.5175 97.7375 -26.1877
v 82.4894 422.2157 -13.1595
v 82.4894 422.2157 13.1595
v 95.5175 97.7375 26.1877
v 43.1422 97.7375 -26.1877
v 56.1703 422.2157 -13.1595
v 82.4894 422.2157 -13.1595
v 95.5175 97.7375 -26.1877
v 43.1422 97.7375 26.1877
v 56.1703 422.2157 13.1595
v 56.1703 422.2157 -13.1595
v 43.1422 97.7375 -26.1877
v 88.5757 435.3359 19.2459
v 50.0839 435.3359 19.2459
v 49.5062 422.5814 19.8236
v 89.1535 422.5814 19.8236
v 88.5757 435.3359 -19.2459
v 88.5757 435.3359 19.2459
v 89.1535 422.5814 19.8236
v 89.1535 422.5814 -19.8236
v 50.0839 435.3359 -19.2459
v 88.5757 435.3359 -19.2459
v 89.1535 422.5814 -19.8236
v 49.5062 422.5814 -19.8236
v 50.0839 435.3359 19.2459
v 50.0839 435.3359 -19.2459
v 49.5062 422.5814 -19.8236
v 49.5062 422.5814 19.8236
v 111.8104 -1.2979 42.4805
v 111.8104 21.8612 42.4805
v 26.8493 21.8612 42.4805
v 26.8493 -1.2979 42.4805
v 26.8493 21.8612 42.4805
v 111.8104 21.8612 42.4805
v 102.7201 21.8612 33.3903
v 35.9396 21.8612 33.3903
v 35.9396 21.8612 33.3903
v 102.7201 21.8612 33.3903
v 98.4885 80.7779 29.1586
v 40.1712 80.7779 29.1586
v 98.4885 80.7779 29.1586
v 102.1559 85.9089 32.826
v 36.5038 85.9089 32.826
v 40.1712 80.7779 29.1586
v 102.1559 85.9089 32.826
v 102.1559 97.7375 32.826
v 36.5038 97.7375 32.826
v 36.5038 85.9089 32.826
v 102.1559 97.7375 32.826
v 95.5175 97.7375 26.1877
v 43.1422 97.7375 26.1877
v 36.5038 97.7375 32.826
v 73.336 579.3056 4.0062
v 65.3236 579.3056 4.0062
v 56.748 434.9702 12.5818
v 81.9116 434.9702 12.5818
v 73.336 579.3056 -4.0062
v 73.336 579.3056 4.0062
v 81.9116 434.9702 12.5818
v 81.9116 434.9702 -12.5818
v 65.3236 579.3056 -4.0062
v 73.336 579.3056 -4.0062
v 81.9116 434.9702 -12.5818
v 56.748 434.9702 -12.5818
v 65.3236 579.3056 4.0062
v 65.3236 579.3056 -4.0062
v 56.748 434.9702 -12.5818
v 56.748 434.9702 12.5818
v 56.1703 422.2157 13.1595
v 82.4894 422.2157 13.1595
v 89.1535 422.5814 19.8236
v 49.5062 422.5814 19.8236
v 82.4894 422.2157 13.1595
v 82.4894 422.2157 -13.1595
v 89.1535 422.5814 -19.8236
v 89.1535 422.5814 19.8236
v 82.4894 422.2157 -13.1595
v 56.1703 422.2157 -13.1595
v 49.5062 422.5814 -19.8236
v 89.1535 422.5814 -19.8236
v 56.1703 422.2157 -13.1595
v 56.1703 422.2157 13.1595
v 49.5062 422.5814 19.8236
v 49.5062 422.5814 -19.8236
v 81.9116 434.9702 12.5818
v 56.748 434.9702 12.5818
v 50.0839 435.3359 19.2459
v 88.5757 435.3359 19.2459
v 56.748 434.9702 12.5818
v 56.748 434.9702 -12.5818
v 50.0839 435.3359 -19.2459
v 50.0839 435.3359 19.2459
v 56.748 434.9702 -12.5818
v 81.9116 434.9702 -12.5818
v 88.5757 435.3359 -19.2459
v 50.0839 435.3359 -19.2459
v 81.9116 434.9702 -12.5818
v 81.9116 434.9702 12.5818
v 88.5757 435.3359 19.2459
v 88.5757 435.3359 -19.2459
v 16.3712 316.2391 -17.2257
v 31.7287 327.5573 -16.0144
v 31.7287 327.5573 5.3272
v 16.3712 316.2391 6.5385
v 16.3712 316.2391 6.5385
v 31.7287 327.5573 5.3272
v 17.1943 347.4672 3.1963
v 7.494 343.0663 3.6673
v 7.494 343.0663 3.6673
v 17.1943 347.4672 3.1963
v 17.1943 347.4672 -13.8835
v 7.4941 343.0663 -14.3546
v 7.4941 343.0663 -14.3546
v 17.1943 347.4672 -13.8835
v 31.7287 327.5573 -16.0144
v 16.3712 316.2391 -17.2257
v 41.3344 346.4027 3.3102
v 25.4304 359.9895 1.8561
v 25.4304 359.9895 1.8561
v 25.4304 359.9895 -12.5433
v 25.4304 359.9895 -12.5433
v 41.3344 346.4027 -13.9975
v 41.3344 346.4027 -13.9975
v 42.5386 371.7242 -11.2874
v 42.5385 371.7242 0.6002
v 41.3344 346.4027 3.3102
v 42.5385 371.7242 0.6002
v 28.0331 374.7499 0.2763
v 28.0331 374.7499 0.2763
v 28.0331 374.7499 -10.9636
v 28.0331 374.7499 -10.9636
v 42.5386 371.7242 -11.2874
v 36.0021 399.3036 -2.3516
v 27.2871 387.2316 -1.0595
v 27.2871 387.2316 -1.0595
v 27.2871 387.2316 -9.6277
v 27.2871 387.2316 -9.6277
v 36.0021 399.3036 -8.3357
v 36.0021 399.3036 -8.3357
v 27.2871 387.2316 -9.6277
v 27.2871 387.2316 -1.0595
v 36.0021 399.3036 -2.3516
v 0 343.0663 3.6673
v 0 310.7261 7.1285
v 0 343.0663 -14.3546
v 0 343.0663 3.6673
v 0 310.7261 -17.8158
v 0 343.0663 -14.3546
v 31.7287 327.5573 -16.0144
v 41.3344 346.4027 -13.9975
v 133.6743 307.0689 -5.3436
v 41.3344 346.4027 -13.9975
v 41.3344 346.4027 3.3102
v 133.6743 307.0689 -5.3436
v 41.3344 346.4027 3.3102
v 31.7287 327.5573 5.3272
v 133.6743 307.0689 -5.3436
v 31.7287 327.5573 5.3272
v 31.7287 327.5573 -16.0144
v 133.6743 307.0689 -5.3436
v 42.5386 371.7242 -11.2874
v 36.0021 399.3036 -8.3357
v 155.353 437.8691 -5.3434
v 36.0021 399.3036 -8.3357
v 36.0021 399.3036 -2.3516
v 155.353 437.8691 -5.3434
v 36.0021 399.3036 -2.3516
v 42.5385 371.7242 0.6002
v 155.353 437.8691 -5.3434
v 42.5385 371.7242 0.6002
v 42.5386 371.7242 -11.2874
v 155.353 437.8691 -5.3434
v 0 310.7261 7.1285
v 0 310.7261 -17.8158
v 40.9083 240.8152 -5.3437
v 0 310.7261 -17.8158
v 16.3712 316.2391 -17.2257
v 40.9083 240.8152 -5.3437
v 16.3712 316.2391 -17.2257
v 16.3712 316.2391 6.5385
v 40.9083 240.8152 -5.3437
v 16.3712 316.2391 6.5385
v 0 310.7261 7.1285
v 40.9083 240.8152 -5.3437
v -16.3712 316.2391 -17.2257
v -16.3712 316.2391 6.5385
v -31.7287 327.5573 5.3272
v -31.7287 327.5573 -16.0144
v -16.3712 316.2391 6.5385
v -7.494 343.0663 3.6673
v -17.1943 347.4672 3.1963
v -31.7287 327.5573 5.3272
v -7.494 343.0663 3.6673
v -7.4941 343.0663 -14.3546
v -17.1943 347.4672 -13.8835
v -17.1943 347.4672 3.1963
v -7.4941 343.0663 -14.3546
v -16.3712 316.2391 -17.2257
v -31.7287 327.5573 -16.0144
v -17.1943 347.4672 -13.8835
v -25.4304 359.9895 1.8561
v -41.3344 346.4027 3.3102
v -25.4304 359.9895 -12.5433
v -25.4304 359.9895 1.8561
v -41.3344 346.4027 -13.9975
v -25.4304 359.9895 -12.5433
v -41.3344 346.4027 -13.9975
v -41.3344 346.4027 3.3102
v -42.5385 371.7242 0.6002
v -42.5386 371.7242 -11.2874
v -28.0331 374.7499 0.2763
v -42.5385 371.7242 0.6002
v -28.0331 374.7499 -10.9636
v -28.0331 374.7499 0.2763
v -42.5386 371.7242 -11.2874
v -28.0331 374.7499 -10.9636
v -27.2871 387.2316 -1.0595
v -36.0021 399.3036 -2.3516
v -27.2871 387.2316 -9.6277
v -27.2871 387.2316 -1.0595
v -36.0021 399.3036 -8.3357
v -27.2871 387.2316 -9.6277
v -36.0021 399.3036 -8.3357
v -36.0021 399.3036 -2.3516
v -27.2871 387.2316 -1.0595
v -27.2871 387.2316 -9.6277
v -31.7287 327.5573 -16.0144
v -133.6743 307.0689 -5.3436
v -41.3344 346.4027 -13.9975
v -41.3344 346.4027 -13.9975
v -133.6743 307.0689 -5.3436
v -41.3344 346.4027 3.3102
v -41.3344 346.4027 3.3102
v -133.6743 307.0689 -5.3436
v -31.7287 327.5573 5.3272
v -31.7287 327.5573 5.3272
v -133.6743 307.0689 -5.3436
v -31.7287 327.5573 -16.0144
v -42.5386 371.7242 -11.2874
v -155.353 437.8691 -5.3434
v -36.0021 399.3036 -8.3357
v -36.0021 399.3036 -8.3357
v -155.353 437.8691 -5.3434
v -36.0021 399.3036 -2.3516
v -36.0021 399.3036 -2.3516
v -155.353 437.8691 -5.3434
v -42.5385 371.7242 0.6002
v -42.5385 371.7242 0.6002
v -155.353 437.8691 -5.3434
v -42.5386 371.7242 -11.2874
v 0 310.7261 7.1285
v -40.9083 240.8152 -5.3437
v 0 310.7261 -17.8158
v 0 310.7261 -17.8158
v -40.9083 240.8152 -5.3437
v -16.3712 316.2391 -17.2257
v -16.3712 316.2391 -17.2257
v -40.9083 240.8152 -5.3437
v -16.3712 316.2391 6.5385
v -16.3712 316.2391 6.5385
v -40.9083 240.8152 -5.3437
v 0 310.7261 7.1285
v 0 363.7104 8.1506
v 13.4943 363.7104 -5.3437
v -9.5419 363.7104 4.1983
v 0 355.4829 17.604
v 16.2265 355.4829 10.8828
v 10.9979 365.0072 5.6542
v 0 365.0072 10.2096
v 22.9477 355.4829 -5.3437
v 15.5533 365.0072 -5.3437
v 22.9477 355.4829 -5.3437
v 16.2265 355.4829 -21.5701
v 10.9979 365.0072 -16.3415
v 15.5533 365.0072 -5.3437
v 0 355.4829 -28.2913
v 0 365.0072 -20.897
v -16.2264 355.4829 -21.5701
v -10.9978 365.0072 -16.3415
v -22.9476 355.4829 -5.3437
v -15.5533 365.0072 -5.3437
v -22.9476 355.4829 -5.3437
v -16.2264 355.4829 10.8828
v -10.9978 365.0072 5.6542
v -15.5533 365.0072 -5.3437
v 0 342.5842 11.5548
v 11.949 342.5842 6.6053
v -11.949 342.5842 6.6053
v -16.8984 342.5842 -5.3437
v -11.949 342.5842 -17.2926
v -16.8984 342.5842 -5.3437
v 0 342.5842 -22.2421
v 11.949 342.5842 -17.2926
v 16.8985 342.5842 -5.3437
v 16.8985 342.5842 -5.3437
v 0 365.0072 10.2096
v 10.9979 365.0072 5.6542
v 13.1259 368.3131 7.7822
v 0 368.3131 13.2192
v 15.5533 365.0072 -5.3437
v 18.5629 368.3131 -5.3437
v 15.5533 365.0072 -5.3437
v 10.9979 365.0072 -16.3415
v 13.1259 368.3131 -18.4696
v 18.5629 368.3131 -5.3437
v 0 365.0072 -20.897
v 0 368.3131 -23.9065
v -10.9978 365.0072 -16.3415
v -13.1259 368.3131 -18.4696
v -15.5533 365.0072 -5.3437
v -18.5628 368.3131 -5.3437
v -15.5533 365.0072 -5.3437
v -10.9978 365.0072 5.6542
v -13.1259 368.3131 7.7823
v -18.5628 368.3131 -5.3437
v 0 368.3131 13.2192
v 13.1259 368.3131 7.7822
v 9.5419 368.3131 4.1982
v 0 368.3131 8.1506
v 18.5629 368.3131 -5.3437
v 13.4943 368.3131 -5.3437
v 13.1259 368.3131 -18.4696
v 9.5419 368.3131 -14.8856
v 0 368.3131 -23.9065
v 0 368.3131 -18.838
v -13.1259 368.3131 -18.4696
v -9.5419 368.3131 -14.8856
v -18.5628 368.3131 -5.3437
v -13.4942 368.3131 -5.3437
v -13.1259 368.3131 7.7823
v -9.5419 368.3131 4.1983
v 0 368.3131 8.1506
v 9.5419 368.3131 4.1982
v 9.5419 363.7104 4.1982
v 0 363.7104 8.1506
v 13.4943 368.3131 -5.3437
v 13.4943 363.7104 -5.3437
v 13.4943 368.3131 -5.3437
v 9.5419 368.3131 -14.8856
v 9.5419 363.7104 -14.8856
v 13.4943 363.7104 -5.3437
v 0 368.3131 -18.838
v 0 363.7104 -18.838
v 0 368.3131 -18.838
v -9.5419 368.3131 -14.8856
v -9.5419 363.7104 -14.8856
v 0 363.7104 -18.838
v -13.4942 368.3131 -5.3437
v -13.4942 363.7104 -5.3437
v -13.4942 368.3131 -5.3437
v -9.5419 368.3131 4.1983
v -9.5419 363.7104 4.1983
v -13.4942 363.7104 -5.3437
v -9.5419 368.3131 4.1983
v -9.5419 363.7104 4.1983
v -9.5419 363.7104 -14.8856
v -13.4942 363.7104 -5.3437
v 0 363.7104 -18.838
v 9.5419 363.7104 4.1982
v 9.5419 363.7104 -14.8856
vn 0 1 -0
vn 0 1 -0
vn 0 1 -0
vn 0 1 -0
vn 1 0 -0
vn 1 0 -0
vn 1 0 -0
vn 1 0 -0
vn 0 0 -1
vn 0 0 -1
vn 0 0 -1
vn 0 0 -1
vn -1 0 -0
vn -1 0 -0
vn -1 0 -0
vn -1 0 -0
vn 0 1 -0
vn 0 1 -0
vn 0 1 -0
vn 0 1 -0
vn 0 1 -0
vn 0 1 -0
vn 0 1 -0
vn 0 1 -0
vn 0 1 -0
vn 0 1 -0
vn 0 1 -0
vn 0 1 -0
vn 0.997433 0.071602 -0
vn 0.997433 0.071602 -0
vn 0.997433 0.071602 -0
vn 0.997433 0.071602 -0
vn 0 0.071602 -0.997433
vn 0 0.071602 -0.997433
vn 0 0.071602 -0.997433
vn 0 0.071602 -0.997433
vn -0.997433 0.071602 -0
vn -0.997433 0.071602 -0
vn -0.997433 0.071602 -0
vn -0.997433 0.071602 -0
vn 0.813531 -0.581522 -0
vn 0.813531 -0.581522 -0
vn 0.813531 -0.581522 -0
vn 0.813531 -0.581522 -0
vn 0 -0.581475 -0.813565
vn 0 -0.581475 -0.813565
vn 0 -0.581475 -0.813565
vn 0 -0.581475 -0.813565
vn -0.813565 -0.581475 -0
vn -0.813565 -0.581475 -0
vn -0.813565 -0.581475 -0
vn -0.813565 -0.581475 -0
vn 1 0 -0
vn 1 0 -0
vn 1 0 -0
vn 1 0 -0
vn 0 0 -1
vn 0 0 -1
vn 0 0 -1
vn 0 0 -1
vn -1 0 -0
vn -1 0 -0
vn -1 0 -0
vn -1 0 -0
vn 0 1 -0
vn 0 1 -0
vn 0 1 -0
vn 0 1 -0
vn 0 1 -0
vn 0 1 -0
vn 0 1 -0
vn 0 1 -0
vn 0 1 -0
vn 0 1 -0
vn 0 1 -0
vn 0 1 -0
vn 0 0.0401 0.999196
vn 0 0.0401 0.999196
vn 0 0.0401 0.999196
vn 0 0.0401 0.999196
vn 0.999196 0.0401 -0
vn 0.999196 0.0401 -0
vn 0.999196 0.0401 -0
vn 0.999196 0.0401 -0
vn 0 0.0401 -0.999196
vn 0 0.0401 -0.999196
vn 0 0.0401 -0.999196
vn 0 0.0401 -0.999196
vn -0.999196 0.0401 -0
vn -0.999196 0.0401 -0
vn -0.999196 0.0401 -0
vn -0.999196 0.0401 -0
vn 0 0.045199 0.998978
vn 0 0.045199 0.998978
vn 0 0.045199 0.998978
vn 0 0.045199 0.998978
vn 0.998974 0.045299 -0
vn 0.998974 0.045299 -0
vn 0.998974 0.045299 -0
vn 0.998974 0.045299 -0
vn 0 0.045299 -0.998974
vn 0 0.045299 -0.998974
vn 0 0.045299 -0.998974
vn 0 0.045299 -0.998974
vn -0.998974 0.045299 -0
vn -0.998974 0.045299 -0
vn -0.998974 0.045299 -0
vn -0.998978 0.045199 -0
vn -0.998978 0.045199 -0
vn -0.998978 0.045199 -0
vn 0 0 1
vn 0 0 1
vn 0 0 1
vn 0 0 1
vn 0 1 -0
vn 0 1 -0
vn 0 1 -0
vn 0 1 -0
vn 0 0.071602 0.997433
vn 0 0.071602 0.997433
vn 0 0.071602 0.997433
vn 0 0.071602 0.997433
vn 0 -0.581475 0.813565
vn 0 -0.581475 0.813565
vn 0 -0.581475 0.813565
vn 0 -0.581475 0.813565
vn 0 0 1
vn 0 0 1
vn 0 0 1
vn 0 0 1
vn 0 1 -0
vn 0 1 -0
vn 0 1 -0
vn 0 1 -0
vn 0 0.059302 0.99824
vn 0 0.059302 0.99824
vn 0 0.059302 0.99824
vn 0 0.059302 0.99824
vn 0.99824 0.059302 -0
vn 0.99824 0.059302 -0
vn 0.99824 0.059302 -0
vn 0.99824 0.059302 -0
vn 0 0.059302 -0.99824
vn 0 0.059302 -0.99824
vn 0 0.059302 -0.99824
vn 0 0.059302 -0.99824
vn -0.99824 0.059302 -0
vn -0.99824 0.059302 -0
vn -0.99824 0.059302 -0
vn -0.99824 0.059302 -0
vn 0 -0.998497 0.0548
vn 0 -0.998497 0.0548
vn 0 -0.998497 0.0548
vn 0 -0.998497 0.0548
vn 0.0548 -0.998497 -0
vn 0.0548 -0.998497 -0
vn 0.0548 -0.998497 -0
vn 0.0548 -0.998497 -0
vn 0 -0.998497 -0.0548
vn 0 -0.998497 -0.0548
vn 0 -0.998497 -0.0548
vn 0 -0.998497 -0.0548
vn -0.0548 -0.998497 -0
vn -0.0548 -0.998497 -0
vn -0.0548 -0.998497 -0
vn -0.0548 -0.998497 -0
vn 0 0.998497 -0.0548
vn 0 0.998497 -0.0548
vn 0 0.998497 -0.0548
vn 0 0.998497 -0.0548
vn 0.0548 0.998497 -0
vn 0.0548 0.998497 -0
vn 0.0548 0.998497 -0
vn 0.0548 0.998497 -0
vn 0 0.998497 0.0548
vn 0 0.998497 0.0548
vn 0 0.998497 0.0548
vn 0 0.998497 0.0548
vn -0.0548 0.998497 -0
vn -0.0548 0.998497 -0
vn -0.0548 0.998497 -0
vn -0.0548 0.998497 -0
vn 0 1 -0
vn 0 1 -0
vn 0 1 -0
vn 0 1 -0
vn 1 0 -0
vn 1 0 -0
vn 1 0 -0
vn 1 0 -0
vn 0 0 -1
vn 0 0 -1
vn 0 0 -1
vn 0 0 -1
vn -1 0 -0
vn -1 0 -0
vn -1 0 -0
vn -1 0 -0
vn 0 1 -0
vn 0 1 -0
vn 0 1 -0
vn 0 1 -0
vn 0 1 -0
vn 0 1 -0
vn 0 1 -0
vn 0 1 -0
vn 0 1 -0
vn 0 1 -0
vn 0 1 -0
vn 0 1 -0
vn 0.997433 0.071602 -0
vn 0.997433 0.071602 -0
vn 0.997433 0.071602 -0
vn 0.997433 0.071602 -0
vn 0 0.071602 -0.997433
vn 0 0.071602 -0.997433
vn 0 0.071602 -0.997433
vn 0 0.071602 -0.997433
vn -0.997433 0.071602 -0
vn -0.997433 0.071602 -0
vn -0.997433 0.071602 -0
vn -0.997433 0.071602 -0
vn 0.813531 -0.581522 -0
vn 0.813531 -0.581522 -0
vn 0.813531 -0.581522 -0
vn 0.813531 -0.581522 -0
vn 0 -0.581475 -0.813565
vn 0 -0.581475 -0.813565
vn 0 -0.581475 -0.813565
vn 0 -0.581475 -0.813565
vn -0.813565 -0.581475 -0
vn -0.813565 -0.581475 -0
vn -0.813565 -0.581475 -0
vn -0.813565 -0.581475 -0
vn 1 0 -0
vn 1 0 -0
vn 1 0 -0
vn 1 0 -0
vn 0 0 -1
vn 0 0 -1
vn 0 0 -1
vn 0 0 -1
vn -1 0 -0
vn -1 0 -0
vn -1 0 -0
vn -1 0 -0
vn 0 1 -0
vn 0 1 -0
vn 0 1 -0
vn 0 1 -0
vn 0 1 -0
vn 0 1 -0
vn 0 1 -0
vn 0 1 -0
vn 0 1 -0
vn 0 1 -0
vn 0 1 -0
vn 0 1 -0
vn 0 0.0401 0.999196
vn 0 0.0401 0.999196
vn 0 0.0401 0.999196
vn 0 0.0401 0.999196
vn 0.999196 0.0401 -0
vn 0.999196 0.0401 -0
vn 0.999196 0.0401 -0
vn 0.999196 0.0401 -0
vn 0 0.0401 -0.999196
vn 0 0.0401 -0.999196
vn 0 0.0401 -0.999196
vn 0 0.0401 -0.999196
vn -0.999196 0.0401 -0
vn -0.999196 0.0401 -0
vn -0.999196 0.0401 -0
vn -0.999196 0.0401 -0
vn 0 0.045199 0.998978
vn 0 0.045199 0.998978
vn 0 0.045199 0.998978
vn 0 0.045199 0.998978
vn 0.998974 0.045299 -0
vn 0.998974 0.045299 -0
vn 0.998974 0.045299 -0
vn 0.998974 0.045299 -0
vn 0 0.045299 -0.998974
vn 0 0.045299 -0.998974
vn 0 0.045299 -0.998974
vn 0 0.045299 -0.998974
vn -0.998974 0.045299 -0
vn -0.998974 0.045299 -0
vn -0.998974 0.045299 -0
vn -0.998974 0.045299 -0
vn 0 0 1
vn 0 0 1
vn 0 0 1
vn 0 0 1
vn 0 1 -0
vn 0 1 -0
vn 0 1 -0
vn 0 1 -0
vn 0 0.071602 0.997433
vn 0 0.071602 0.997433
vn 0 0.071602 0.997433
vn 0 0.071602 0.997433
vn 0 -0.581475 0.813565
vn 0 -0.581475 0.813565
vn 0 -0.581475 0.813565
vn 0 -0.581475 0.813565
vn 0 0 1
vn 0 0 1
vn 0 0 1
vn 0 0 1
vn 0 1 -0
vn 0 1 -0
vn 0 1 -0
vn 0 1 -0
vn 0 0.059302 0.99824
vn 0 0.059302 0.99824
vn 0 0.059302 0.99824
vn 0 0.059302 0.99824
vn 0.99824 0.059302 -0
vn 0.99824 0.059302 -0
vn 0.99824 0.059302 -0
vn 0.99824 0.059302 -0
vn 0 0.059302 -0.99824
vn 0 0.059302 -0.99824
vn 0 0.059302 -0.99824
vn 0 0.059302 -0.99824
vn -0.99824 0.059302 -0
vn -0.99824 0.059302 -0
vn -0.99824 0.059302 -0
vn -0.99824 0.059302 -0
vn 0 -0.998497 0.0548
vn 0 -0.998497 0.0548
vn 0 -0.998497 0.0548
vn 0 -0.998497 0.0548
vn 0.0548 -0.998497 -0
vn 0.0548 -0.998497 -0
vn 0.0548 -0.998497 -0
vn 0.0548 -0.998497 -0
vn 0 -0.998497 -0.0548
vn 0 -0.998497 -0.0548
vn 0 -0.998497 -0.0548
vn 0 -0.998497 -0.0548
vn -0.0548 -0.998497 -0
vn -0.0548 -0.998497 -0
vn -0.0548 -0.998497 -0
vn -0.0548 -0.998497 -0
vn 0 0.998497 -0.0548
vn 0 0.998497 -0.0548
vn 0 0.998497 -0.0548
vn 0 0.998497 -0.0548
vn 0.0548 0.998497 -0
vn 0.0548 0.998497 -0
vn 0.0548 0.998497 -0
vn 0.0548 0.998497 -0
vn 0 0.998497 0.0548
vn 0 0.998497 0.0548
vn 0 0.998497 0.0548
vn 0 0.998497 0.0548
vn -0.0548 0.998497 -0
vn -0.0548 0.998497 -0
vn -0.0548 0.998497 -0
vn -0.0548 0.998497 -0
vn 0.593291 -0.804988 -0
vn 0.593291 -0.804988 -0
vn 0.593291 -0.804988 -0
vn 0.593291 -0.804988 -0
vn 0 0.106403 0.994323
vn 0 0.106403 0.994323
vn 0 0.106403 0.994323
vn 0 0.106403 0.994323
vn -0.208293 0.978067 -0
vn -0.64042 0.768025 -0
vn -0.64042 0.768025 -0
vn -0.208293 0.978067 -0
vn 0 0.106403 -0.994323
vn 0 0.106403 -0.994323
vn 0 0.106403 -0.994323
vn 0 0.106403 -0.994323
vn 0 0.106403 0.994323
vn 0 0.106403 0.994323
vn -0.924529 0.381112 -0
vn -0.924529 0.381112 -0
vn 0 0.106403 -0.994323
vn 0 0.106403 -0.994323
vn 0.998871 -0.047499 -0
vn 0.998871 -0.047499 -0
vn 0.998871 -0.047499 -0
vn 0.998871 -0.047499 -0
vn 0 0.106403 0.994323
vn 0 0.106403 0.994323
vn -0.997866 0.065298 -0
vn -0.997866 0.065298 -0
vn 0 0.106403 -0.994323
vn 0 0.106403 -0.994323
vn 0 0.106403 0.994323
vn 0 0.106403 0.994323
vn -0.966117 0.258105 -0
vn -0.966117 0.258105 -0
vn 0 0.106403 -0.994323
vn 0 0.106403 -0.994323
vn -0.810811 0.585308 -0
vn -0.966117 0.258105 -0
vn -0.966117 0.258105 -0
vn -0.810811 0.585308 -0
vn 0 0.106403 0.994323
vn 0 0.106403 0.994323
vn 0 1 -0
vn 0 1 -0
vn 0 0.106403 -0.994323
vn 0 0.106403 -0.994323
vn 0.113595 0.048298 -0.992353
vn 0.113595 0.048298 -0.992353
vn 0.113595 0.048298 -0.992353
vn 0.391903 0.920007 -0
vn 0.391903 0.920007 -0
vn 0.391903 0.920007 -0
vn 0.113595 0.048298 0.992353
vn 0.113595 0.048298 0.992353
vn 0.113595 0.048298 0.992353
vn -0.197001 -0.980403 -0
vn -0.197001 -0.980403 -0
vn -0.197001 -0.980403 -0
vn -0.0088 0.1044 -0.994497
vn -0.0088 0.1044 -0.994497
vn -0.0088 0.1044 -0.994497
vn -0.307485 0.951553 -0
vn -0.307485 0.951553 -0
vn -0.307485 0.951553 -0
vn -0.0088 0.1044 0.994497
vn -0.0088 0.1044 0.994497
vn -0.0088 0.1044 0.994497
vn 0.505779 -0.862663 -0
vn 0.505779 -0.862663 -0
vn 0.505779 -0.862663 -0
vn -0.863114 -0.505008 -0
vn -0.863114 -0.505008 -0
vn -0.863114 -0.505008 -0
vn 0.079403 -0.129906 -0.988342
vn 0.079403 -0.129906 -0.988342
vn 0.079403 -0.129906 -0.988342
vn 0.950929 0.309409 -0
vn 0.950929 0.309409 -0
vn 0.950929 0.309409 -0
vn 0.079403 -0.129906 0.988342
vn 0.079403 -0.129906 0.988342
vn 0.079403 -0.129906 0.988342
vn -0.593291 -0.804988 -0
vn -0.593291 -0.804988 -0
vn -0.593291 -0.804988 -0
vn -0.593291 -0.804988 -0
vn 0 0.106403 0.994323
vn 0 0.106403 0.994323
vn 0 0.106403 0.994323
vn 0 0.106403 0.994323
vn 0.208293 0.978067 -0
vn 0.208293 0.978067 -0
vn 0.64042 0.768025 -0
vn 0.64042 0.768025 -0
vn 0 0.106403 -0.994323
vn 0 0.106403 -0.994323
vn 0 0.106403 -0.994323
vn 0 0.106403 -0.994323
vn 0 0.106403 0.994323
vn 0 0.106403 0.994323
vn 0.924529 0.381112 -0
vn 0.924529 0.381112 -0
vn 0 0.106403 -0.994323
vn 0 0.106403 -0.994323
vn -0.998871 -0.047499 -0
vn -0.998871 -0.047499 -0
vn -0.998871 -0.047499 -0
vn -0.998871 -0.047499 -0
vn 0 0.106403 0.994323
vn 0 0.106403 0.994323
vn 0.997866 0.065298 -0
vn 0.997866 0.065298 -0
vn 0 0.106403 -0.994323
vn 0 0.106403 -0.994323
vn 0 0.106403 0.994323
vn 0 0.106403 0.994323
vn 0.966117 0.258105 -0
vn 0.966117 0.258105 -0
vn 0 0.106403 -0.994323
vn 0 0.106403 -0.994323
vn 0.810811 0.585308 -0
vn 0.810811 0.585308 -0
vn 0.966117 0.258105 -0
vn 0.966117 0.258105 -0
vn -0.113595 0.048298 -0.992353
vn -0.113595 0.048298 -0.992353
vn -0.113595 0.048298 -0.992353
vn -0.391903 0.920007 -0
vn -0.391903 0.920007 -0
vn -0.391903 0.920007 -0
vn -0.113595 0.048298 0.992353
vn -0.113595 0.048298 0.992353
vn -0.113595 0.048298 0.992353
vn 0.197001 -0.980403 -0
vn 0.197001 -0.980403 -0
vn 0.197001 -0.980403 -0
vn 0.0088 0.1044 -0.994497
vn 0.0088 0.1044 -0.994497
vn 0.0088 0.1044 -0.994497
vn 0.307485 0.951553 -0
vn 0.307485 0.951553 -0
vn 0.307485 0.951553 -0
vn 0.0088 0.1044 0.994497
vn 0.0088 0.1044 0.994497
vn 0.0088 0.1044 0.994497
vn -0.505779 -0.862663 -0
vn -0.505779 -0.862663 -0
vn -0.505779 -0.862663 -0
vn 0.863114 -0.505008 -0
vn 0.863114 -0.505008 -0
vn 0.863114 -0.505008 -0
vn -0.079403 -0.129906 -0.988342
vn -0.079403 -0.129906 -0.988342
vn -0.079403 -0.129906 -0.988342
vn -0.950929 0.309409 -0
vn -0.950929 0.309409 -0
vn -0.950929 0.309409 -0
vn -0.079403 -0.129906 0.988342
vn -0.079403 -0.129906 0.988342
vn -0.079403 -0.129906 0.988342
vn 0 1 -0
vn 0 1 -0
vn 0 1 -0
vn 0 0.098801 0.995107
vn 0.703647 0.098807 0.703647
vn 0.55854 0.613243 0.55854
vn 0 0.613213 0.789917
vn 0.995107 0.098801 -0
vn 0.789917 0.613213 -0
vn 0.995107 0.098801 -0
vn 0.703647 0.098807 -0.703647
vn 0.55854 0.613243 -0.55854
vn 0.789917 0.613213 -0
vn 0 0.098801 -0.995107
vn 0 0.613213 -0.789917
vn -0.703647 0.098807 -0.703647
vn -0.55854 0.613243 -0.55854
vn -0.995107 0.098801 -0
vn -0.789917 0.613213 -0
vn -0.995107 0.098801 -0
vn -0.703647 0.098807 0.703647
vn -0.55854 0.613243 0.55854
vn -0.789917 0.613213 -0
vn 0 -0.424593 0.905385
vn 0.640201 -0.424601 0.640201
vn -0.640201 -0.424601 0.640201
vn -0.905385 -0.424593 -0
vn -0.640201 -0.424601 -0.640201
vn -0.905385 -0.424593 -0
vn 0 -0.424593 -0.905385
vn 0.640201 -0.424601 -0.640201
vn 0.905385 -0.424593 -0
vn 0.905385 -0.424593 -0
vn 0 -0.67318 0.739478
vn 0.522888 -0.673184 0.522888
vn 0.522888 -0.673184 0.522888
vn 0 -0.67318 0.739478
vn 0.739478 -0.67318 -0
vn 0.739478 -0.67318 -0
vn 0.739478 -0.67318 -0
vn 0.522888 -0.673184 -0.522888
vn 0.522888 -0.673184 -0.522888
vn 0.739478 -0.67318 -0
vn 0 -0.67318 -0.739478
vn 0 -0.67318 -0.739478
vn -0.522888 -0.673184 -0.522888
vn -0.522888 -0.673184 -0.522888
vn -0.739478 -0.67318 -0
vn -0.739478 -0.67318 -0
vn -0.739478 -0.67318 -0
vn -0.522888 -0.673184 0.522888
vn -0.522888 -0.673184 0.522888
vn -0.739478 -0.67318 -0
vn 0 1 -0
vn 0 1 -0
vn 0 1 -0
vn 0 1 -0
vn 0 1 -0
vn 0 1 -0
vn 0 1 -0
vn 0 1 -0
vn 0 1 -0
vn 0 1 -0
vn 0 1 -0
vn 0 1 -0
vn 0 1 -0
vn 0 1 -0
vn 0 1 -0
vn 0 1 -0
vn 0 0 -1
vn -0.707107 0 -0.707107
vn -0.707107 0 -0.707107
vn 0 0 -1
vn -1 0 -0
vn -1 0 -0
vn -1 0 -0
vn -0.707107 0 0.707107
vn -0.707107 0 0.707107
vn -1 0 -0
vn -0.38269 0 0.923877
vn -0.38269 0 0.923877
vn 0.38269 0 0.923877
vn 0.707107 0 0.707107
vn 0.707107 0 0.707107
vn 0.38269 0 0.923877
vn 0.923877 0 0.38269
vn 0.923877 0 0.38269
vn 0.923877 0 -0.38269
vn 0.923877 0 -0.38269
vn 0.923877 0 -0.38269
vn 0.923877 0 -0.38269
vn 0.38269 0 -0.923877
vn 0.38269 0 -0.923877
vn 0 1 -0
vn 0 1 -0
vn 0 1 -0
vn 0 1 -0
vn 0 1 -0
vt 0.0074 0.2277
vt 0.0206 0.2277
vt 0.0206 0.2409
vt 0.0074 0.2409
vt 0.852 0.0019
vt 0.9912 0.0019
vt 0.9912 0.0404
vt 0.852 0.0404
vt 0.1414 0.0019
vt 0.1414 0.0404
vt 0.0021 0.0404
vt 0.0021 0.0019
vt 0.852 0.0019
vt 0.9912 0.0019
vt 0.9912 0.0404
vt 0.852 0.0404
vt 0.852 0.0404
vt 0.9912 0.0404
vt 0.9763 0.0545
vt 0.8669 0.0545
vt 0.1414 0.0404
vt 0.1265 0.0545
vt 0.017 0.0545
vt 0.0021 0.0404
vt 0.852 0.0404
vt 0.9912 0.0404
vt 0.9763 0.0545
vt 0.8669 0.0545
vt 0.8669 0.0545
vt 0.9763 0.0545
vt 0.9694 0.1502
vt 0.8738 0.1502
vt 0.1265 0.0545
vt 0.1195 0.1502
vt 0.024 0.1502
vt 0.017 0.0545
vt 0.8669 0.0545
vt 0.9763 0.0545
vt 0.9694 0.1502
vt 0.8738 0.1502
vt 0.8738 0.1502
vt 0.9694 0.1502
vt 0.9754 0.159
vt 0.8678 0.159
vt 0.024 0.1502
vt 0.1195 0.1502
vt 0.1256 0.159
vt 0.018 0.159
vt 0.8738 0.1502
vt 0.9694 0.1502
vt 0.9754 0.159
vt 0.8678 0.159
vt 0.8678 0.159
vt 0.9754 0.159
vt 0.9754 0.1767
vt 0.8678 0.1767
vt 0.1256 0.159
vt 0.1256 0.1767
vt 0.018 0.1767
vt 0.018 0.159
vt 0.8678 0.159
vt 0.9754 0.159
vt 0.9754 0.1767
vt 0.8678 0.1767
vt 0.8678 0.1767
vt 0.9754 0.1767
vt 0.9645 0.1858
vt 0.8787 0.1858
vt 0.018 0.1767
vt 0.1256 0.1767
vt 0.1147 0.1858
vt 0.0288 0.1858
vt 0.9754 0.1767
vt 0.9645 0.1858
vt 0.8787 0.1858
vt 0.8678 0.1767
vt 0.1147 0.1858
vt 0.0933 0.7163
vt 0.0502 0.7163
vt 0.0288 0.1858
vt 0.9645 0.1858
vt 0.9432 0.7163
vt 0.9 0.7163
vt 0.8787 0.1858
vt 0.1147 0.1858
vt 0.0933 0.7163
vt 0.0502 0.7163
vt 0.0288 0.1858
vt 0.9645 0.1858
vt 0.9432 0.7163
vt 0.9 0.7163
vt 0.8787 0.1858
vt 0.1033 0.7455
vt 0.0402 0.7455
vt 0.0393 0.7257
vt 0.1042 0.7257
vt 0.9531 0.7455
vt 0.89 0.7455
vt 0.8891 0.7257
vt 0.9541 0.7257
vt 0.1033 0.7455
vt 0.0402 0.7455
vt 0.0393 0.7257
vt 0.1042 0.7257
vt 0.9531 0.7455
vt 0.89 0.7455
vt 0.8891 0.7257
vt 0.8891 0.7257
vt 0.9541 0.7257
vt 0.9531 0.7455
vt 0.1414 0.0019
vt 0.1414 0.0404
vt 0.0021 0.0404
vt 0.0021 0.0019
vt 0.0021 0.0404
vt 0.1414 0.0404
vt 0.1265 0.0545
vt 0.017 0.0545
vt 0.017 0.0545
vt 0.1265 0.0545
vt 0.1195 0.1502
vt 0.024 0.1502
vt 0.1195 0.1502
vt 0.1256 0.159
vt 0.018 0.159
vt 0.024 0.1502
vt 0.1256 0.159
vt 0.1256 0.1767
vt 0.018 0.1767
vt 0.018 0.159
vt 0.1256 0.1767
vt 0.1147 0.1858
vt 0.0288 0.1858
vt 0.018 0.1767
vt 0.0783 0.9924
vt 0.0652 0.9924
vt 0.0511 0.7557
vt 0.0924 0.7557
vt 0.9281 0.9924
vt 0.915 0.9924
vt 0.901 0.7557
vt 0.9422 0.7557
vt 0.0783 0.9924
vt 0.0652 0.9924
vt 0.0511 0.7557
vt 0.0924 0.7557
vt 0.9281 0.9924
vt 0.915 0.9924
vt 0.901 0.7557
vt 0.9422 0.7557
vt 0.0502 0.7163
vt 0.0933 0.7163
vt 0.1042 0.7257
vt 0.0393 0.7257
vt 0.9 0.7163
vt 0.9432 0.7163
vt 0.9541 0.7257
vt 0.8891 0.7257
vt 0.0502 0.7163
vt 0.0933 0.7163
vt 0.1042 0.7257
vt 0.0393 0.7257
vt 0.9 0.7163
vt 0.9432 0.7163
vt 0.9541 0.7257
vt 0.8891 0.7257
vt 0.0924 0.7557
vt 0.0511 0.7557
vt 0.0402 0.7455
vt 0.1033 0.7455
vt 0.9422 0.7557
vt 0.901 0.7557
vt 0.89 0.7455
vt 0.9531 0.7455
vt 0.0924 0.7557
vt 0.0511 0.7557
vt 0.0402 0.7455
vt 0.1033 0.7455
vt 0.9422 0.7557
vt 0.901 0.7557
vt 0.89 0.7455
vt 0.9531 0.7455
vt 0.0074 0.2277
vt 0.0206 0.2277
vt 0.0206 0.2409
vt 0.0074 0.2409
vt 0.852 0.0019
vt 0.9912 0.0019
vt 0.9912 0.0404
vt 0.852 0.0404
vt 0.1414 0.0019
vt 0.1414 0.0404
vt 0.0021 0.0404
vt 0.0021 0.0019
vt 0.852 0.0019
vt 0.9912 0.0019
vt 0.9912 0.0404
vt 0.852 0.0404
vt 0.852 0.0404
vt 0.9912 0.0404
vt 0.9763 0.0545
vt 0.8669 0.0545
vt 0.1414 0.0404
vt 0.1265 0.0545
vt 0.017 0.0545
vt 0.0021 0.0404
vt 0.852 0.0404
vt 0.9912 0.0404
vt 0.9763 0.0545
vt 0.8669 0.0545
vt 0.8669 0.0545
vt 0.9763 0.0545
vt 0.9694 0.1502
vt 0.8738 0.1502
vt 0.1265 0.0545
vt 0.1195 0.1502
vt 0.024 0.1502
vt 0.017 0.0545
vt 0.8669 0.0545
vt 0.9763 0.0545
vt 0.9694 0.1502
vt 0.8738 0.1502
vt 0.8738 0.1502
vt 0.9694 0.1502
vt 0.9754 0.159
vt 0.8678 0.159
vt 0.024 0.1502
vt 0.1195 0.1502
vt 0.1256 0.159
vt 0.018 0.159
vt 0.8738 0.1502
vt 0.9694 0.1502
vt 0.9754 0.159
vt 0.8678 0.159
vt 0.8678 0.159
vt 0.9754 0.159
vt 0.9754 0.1767
vt 0.8678 0.1767
vt 0.1256 0.159
vt 0.1256 0.1767
vt 0.018 0.1767
vt 0.018 0.159
vt 0.8678 0.159
vt 0.9754 0.159
vt 0.9754 0.1767
vt 0.8678 0.1767
vt 0.8678 0.1767
vt 0.9754 0.1767
vt 0.9645 0.1858
vt 0.8787 0.1858
vt 0.018 0.1767
vt 0.1256 0.1767
vt 0.1147 0.1858
vt 0.0288 0.1858
vt 0.9754 0.1767
vt 0.9645 0.1858
vt 0.8787 0.1858
vt 0.8678 0.1767
vt 0.1147 0.1858
vt 0.0933 0.7163
vt 0.0502 0.7163
vt 0.0288 0.1858
vt 0.9645 0.1858
vt 0.9432 0.7163
vt 0.9 0.7163
vt 0.8787 0.1858
vt 0.1147 0.1858
vt 0.0933 0.7163
vt 0.0502 0.7163
vt 0.0288 0.1858
vt 0.9645 0.1858
vt 0.9432 0.7163
vt 0.9 0.7163
vt 0.8787 0.1858
vt 0.1033 0.7455
vt 0.0402 0.7455
vt 0.0393 0.7257
vt 0.1042 0.7257
vt 0.9531 0.7455
vt 0.89 0.7455
vt 0.8891 0.7257
vt 0.9541 0.7257
vt 0.1033 0.7455
vt 0.0402 0.7455
vt 0.0393 0.7257
vt 0.1042 0.7257
vt 0.9531 0.7455
vt 0.89 0.7455
vt 0.8891 0.7257
vt 0.9541 0.7257
vt 0.1414 0.0019
vt 0.1414 0.0404
vt 0.0021 0.0404
vt 0.0021 0.0019
vt 0.0021 0.0404
vt 0.1414 0.0404
vt 0.1265 0.0545
vt 0.017 0.0545
vt 0.017 0.0545
vt 0.1265 0.0545
vt 0.1195 0.1502
vt 0.024 0.1502
vt 0.1195 0.1502
vt 0.1256 0.159
vt 0.018 0.159
vt 0.024 0.1502
vt 0.1256 0.159
vt 0.1256 0.1767
vt 0.018 0.1767
vt 0.018 0.159
vt 0.1256 0.1767
vt 0.1147 0.1858
vt 0.0288 0.1858
vt 0.018 0.1767
vt 0.0783 0.9924
vt 0.0652 0.9924
vt 0.0511 0.7557
vt 0.0924 0.7557
vt 0.9281 0.9924
vt 0.915 0.9924
vt 0.901 0.7557
vt 0.9422 0.7557
vt 0.0783 0.9924
vt 0.0652 0.9924
vt 0.0511 0.7557
vt 0.0924 0.7557
vt 0.9281 0.9924
vt 0.915 0.9924
vt 0.901 0.7557
vt 0.9422 0.7557
vt 0.0502 0.7163
vt 0.0933 0.7163
vt 0.1042 0.7257
vt 0.0393 0.7257
vt 0.9 0.7163
vt 0.9432 0.7163
vt 0.9541 0.7257
vt 0.8891 0.7257
vt 0.0502 0.7163
vt 0.0933 0.7163
vt 0.1042 0.7257
vt 0.0393 0.7257
vt 0.9 0.7163
vt 0.9432 0.7163
vt 0.9541 0.7257
vt 0.8891 0.7257
vt 0.0924 0.7557
vt 0.0511 0.7557
vt 0.0402 0.7455
vt 0.1033 0.7455
vt 0.9422 0.7557
vt 0.901 0.7557
vt 0.89 0.7455
vt 0.9531 0.7455
vt 0.0924 0.7557
vt 0.0511 0.7557
vt 0.0402 0.7455
vt 0.1033 0.7455
vt 0.9422 0.7557
vt 0.901 0.7557
vt 0.89 0.7455
vt 0.9531 0.7455
vt 0.437 0.5725
vt 0.4328 0.6482
vt 0.3593 0.6482
vt 0.3552 0.5725
vt 0.537 0.626
vt 0.4744 0.664
vt 0.5227 0.7307
vt 0.5549 0.7159
vt 0.434 0.3317
vt 0.4324 0.3684
vt 0.3736 0.3684
vt 0.372 0.3317
vt 0.5552 0.7159
vt 0.5229 0.7306
vt 0.4746 0.6639
vt 0.5373 0.6259
vt 0.4424 0.7271
vt 0.4953 0.7727
vt 0.4278 0.42
vt 0.3782 0.42
vt 0.4955 0.7726
vt 0.4427 0.727
vt 0.4259 0.7211
vt 0.4165 0.8083
vt 0.3756 0.8083
vt 0.3663 0.7211
vt 0.4384 0.812
vt 0.4866 0.8221
vt 0.4223 0.4716
vt 0.3836 0.4716
vt 0.4869 0.822
vt 0.4387 0.8119
vt 0.4602 0.9044
vt 0.4891 0.864
vt 0.4177 0.5146
vt 0.3882 0.5146
vt 0.4894 0.8639
vt 0.4604 0.9043
vt 0.5285 0.8801
vt 0.5329 0.8289
vt 0.5034 0.8289
vt 0.5079 0.8801
vt 0.5798 0.7159
vt 0.5798 0.6076
vt 0.372 0.3059
vt 0.434 0.3059
vt 0.5801 0.6075
vt 0.5801 0.7159
vt 0.7272 0.6121
vt 0.8286 0.5957
vt 0.7909 0.1507
vt 0.8811 0.4831
vt 0.8252 0.4843
vt 0.8429 -0.0002
vt 0.8286 0.5957
vt 0.7272 0.6121
vt 0.7909 0.1507
vt 0.8811 0.4831
vt 0.8252 0.4843
vt 0.8429 -0.0002
vt 0.7272 0.6121
vt 0.8286 0.5957
vt 0.7909 0.1507
vt 0.8816 0.4837
vt 0.8238 0.4849
vt 0.8425 0.0005
vt 0.8286 0.5957
vt 0.7272 0.6121
vt 0.7909 0.1507
vt 0.8816 0.4837
vt 0.8238 0.4849
vt 0.8425 0.0005
vt 0.8811 0.4831
vt 0.8252 0.4843
vt 0.8429 -0.0002
vt 0.8265 0.597
vt 0.7278 0.61
vt 0.7907 0.1496
vt 0.8811 0.4831
vt 0.8252 0.4843
vt 0.8429 -0.0002
vt 0.728 0.6101
vt 0.8267 0.5971
vt 0.7908 0.1496
vt 0.437 0.5725
vt 0.3552 0.5725
vt 0.3593 0.6482
vt 0.4328 0.6482
vt 0.537 0.626
vt 0.5549 0.7159
vt 0.5227 0.7307
vt 0.4744 0.664
vt 0.434 0.3317
vt 0.372 0.3317
vt 0.3736 0.3684
vt 0.4324 0.3684
vt 0.5552 0.7159
vt 0.5373 0.6259
vt 0.4746 0.6639
vt 0.5229 0.7306
vt 0.4953 0.7727
vt 0.4424 0.7271
vt 0.3782 0.42
vt 0.4278 0.42
vt 0.4427 0.727
vt 0.4955 0.7726
vt 0.4259 0.7211
vt 0.3663 0.7211
vt 0.3756 0.8083
vt 0.4165 0.8083
vt 0.4866 0.8221
vt 0.4384 0.812
vt 0.3836 0.4716
vt 0.4223 0.4716
vt 0.4387 0.8119
vt 0.4869 0.822
vt 0.4891 0.864
vt 0.4602 0.9044
vt 0.3882 0.5146
vt 0.4177 0.5146
vt 0.4604 0.9043
vt 0.4894 0.8639
vt 0.5285 0.8801
vt 0.5079 0.8801
vt 0.5034 0.8289
vt 0.5329 0.8289
vt 0.7272 0.6121
vt 0.7909 0.1507
vt 0.8286 0.5957
vt 0.8811 0.4831
vt 0.8429 -0.0002
vt 0.8252 0.4843
vt 0.8286 0.5957
vt 0.7909 0.1507
vt 0.7272 0.6121
vt 0.8811 0.4831
vt 0.8429 -0.0002
vt 0.8252 0.4843
vt 0.7272 0.6121
vt 0.7909 0.1507
vt 0.8286 0.5957
vt 0.8816 0.4837
vt 0.8425 0.0005
vt 0.8238 0.4849
vt 0.8286 0.5957
vt 0.7909 0.1507
vt 0.7272 0.6121
vt 0.8816 0.4837
vt 0.8425 0.0005
vt 0.8238 0.4849
vt 0.8811 0.4831
vt 0.8429 -0.0002
vt 0.8252 0.4843
vt 0.8265 0.597
vt 0.7907 0.1496
vt 0.7278 0.61
vt 0.8811 0.4831
vt 0.8429 -0.0002
vt 0.8252 0.4843
vt 0.728 0.6101
vt 0.7908 0.1496
vt 0.8267 0.5971
vt 0.7389 0.684
vt 0.6885 0.7344
vt 0.7242 0.6484
vt 0.7028 0.0472
vt 0.7529 0.0486
vt 0.7484 0.0869
vt 0.7028 0.0857
vt 0.8071 0.0525
vt 0.7905 0.0918
vt 0.5986 0.0525
vt 0.6528 0.0486
vt 0.6573 0.0869
vt 0.6152 0.0918
vt 0.7028 0.0472
vt 0.7028 0.0857
vt 0.7529 0.0486
vt 0.7484 0.0869
vt 0.8071 0.0525
vt 0.7905 0.0918
vt 0.5986 0.0525
vt 0.6528 0.0486
vt 0.6573 0.0869
vt 0.6152 0.0918
vt 0.7028 0.0014
vt 0.7528 0.003
vt 0.6529 0.003
vt 0.6068 0.003
vt 0.7528 0.003
vt 0.7989 0.003
vt 0.7028 0.0014
vt 0.6529 0.003
vt 0.6068 0.003
vt 0.7989 0.003
vt 0.7028 0.0857
vt 0.7484 0.0869
vt 0.747 0.1014
vt 0.7028 0.0999
vt 0.7905 0.0918
vt 0.7923 0.1058
vt 0.6152 0.0918
vt 0.6573 0.0869
vt 0.6587 0.1014
vt 0.6134 0.1058
vt 0.7028 0.0857
vt 0.7028 0.0999
vt 0.7484 0.0869
vt 0.747 0.1014
vt 0.7905 0.0918
vt 0.7923 0.1058
vt 0.6152 0.0918
vt 0.6573 0.0869
vt 0.6587 0.1014
vt 0.6134 0.1058
vt 0.7656 0.6837
vt 0.743 0.7384
vt 0.728 0.7235
vt 0.7445 0.6837
vt 0.6882 0.7611
vt 0.6882 0.7399
vt 0.6335 0.7384
vt 0.6485 0.7235
vt 0.6109 0.6837
vt 0.632 0.6837
vt 0.6335 0.629
vt 0.6485 0.6439
vt 0.6882 0.6063
vt 0.6882 0.6274
vt 0.743 0.629
vt 0.728 0.6439
vt 0.7056 0.1352
vt 0.6608 0.1352
vt 0.6608 0.1152
vt 0.7056 0.1152
vt 0.616 0.1352
vt 0.616 0.1152
vt 0.7953 0.1352
vt 0.7505 0.1352
vt 0.7505 0.1152
vt 0.7953 0.1152
vt 0.7056 0.1352
vt 0.7056 0.1152
vt 0.7056 0.1352
vt 0.6608 0.1352
vt 0.6608 0.1152
vt 0.7056 0.1152
vt 0.616 0.1352
vt 0.616 0.1152
vt 0.7953 0.1352
vt 0.7505 0.1352
vt 0.7505 0.1152
vt 0.7953 0.1152
vt 0.7505 0.1352
vt 0.7505 0.1152
vt 0.6529 0.6484
vt 0.6885 0.6336
vt 0.6381 0.684
vt 0.7242 0.7196
vt 0.6529 0.7196
f 1/1/1 3/3/3 2/2/2
f 3/3/3 1/1/1 4/4/4
f 5/5/5 7/7/7 6/6/6
f 7/7/7 5/5/5 8/8/8
f 9/9/9 11/11/11 10/10/10
f 11/11/11 9/9/9 12/12/12
f 13/13/13 15/15/15 14/14/14
f 15/15/15 13/13/13 16/16/16
f 17/17/17 19/19/19 18/18/18
f 19/19/19 17/17/17 20/20/20
f 21/21/21 23/23/23 22/22/22
f 23/23/23 21/21/21 24/24/24
f 25/25/25 27/27/27 26/26/26
f 27/27/27 25/25/25 28/28/28
f 29/29/29 31/31/31 30/30/30
f 31/31/31 29/29/29 32/32/32
f 33/33/33 35/35/35 34/34/34
f 35/35/35 33/33/33 36/36/36
f 37/37/37 39/39/39 38/38/38
f 39/39/39 37/37/37 40/40/40
f 41/41/41 43/43/43 42/42/42
f 43/43/43 41/41/41 44/44/44
f 45/45/45 47/47/47 46/46/46
f 47/47/47 45/45/45 48/48/48
f 49/49/49 51/51/51 50/50/50
f 51/51/51 49/49/49 52/52/52
f 53/53/53 55/55/55 54/54/54
f 55/55/55 53/53/53 56/56/56
f 57/57/57 59/59/59 58/58/58
f 59/59/59 57/57/57 60/60/60
f 61/61/61 63/63/63 62/62/62
f 63/63/63 61/61/61 64/64/64
f 65/65/65 67/67/67 66/66/66
f 67/67/67 65/65/65 68/68/68
f 69/69/69 71/71/71 70/70/70
f 71/71/71 69/69/69 72/72/72
f 73/73/73 75/75/75 74/74/74
f 75/75/75 73/73/73 76/76/76
f 77/77/77 79/79/79 78/78/78
f 79/79/79 77/77/77 80/80/80
f 81/81/81 83/83/83 82/82/82
f 83/83/83 81/81/81 84/84/84
f 85/85/85 87/87/87 86/86/86
f 87/87/87 85/85/85 88/88/88
f 89/89/89 91/91/91 90/90/90
f 91/91/91 89/89/89 92/92/92
f 93/93/93 95/95/95 94/94/94
f 95/95/95 93/93/93 96/96/96
f 97/97/97 99/99/99 98/98/98
f 99/99/99 97/97/97 100/100/100
f 101/101/101 103/103/103 102/102/102
f 103/103/103 101/101/101 104/104/104
f 105/105/105 107/107/107 106/106/106
f 108/108/108 110/110/110 109/109/109
f 111/111/111 113/113/113 112/112/112
f 113/113/113 111/111/111 114/114/114
f 115/115/115 117/117/117 116/116/116
f 117/117/117 115/115/115 118/118/118
f 119/119/119 121/121/121 120/120/120
f 121/121/121 119/119/119 122/122/122
f 123/123/123 125/125/125 124/124/124
f 125/125/125 123/123/123 126/126/126
f 127/127/127 129/129/129 128/128/128
f 129/129/129 127/127/127 130/130/130
f 131/131/131 133/133/133 132/132/132
f 133/133/133 131/131/131 134/134/134
f 135/135/135 137/137/137 136/136/136
f 137/137/137 135/135/135 138/138/138
f 139/139/139 141/141/141 140/140/140
f 141/141/141 139/139/139 142/142/142
f 143/143/143 145/145/145 144/144/144
f 145/145/145 143/143/143 146/146/146
f 147/147/147 149/149/149 148/148/148
f 149/149/149 147/147/147 150/150/150
f 151/151/151 153/153/153 152/152/152
f 153/153/153 151/151/151 154/154/154
f 155/155/155 157/157/157 156/156/156
f 157/157/157 155/155/155 158/158/158
f 159/159/159 161/161/161 160/160/160
f 161/161/161 159/159/159 162/162/162
f 163/163/163 165/165/165 164/164/164
f 165/165/165 163/163/163 166/166/166
f 167/167/167 169/169/169 168/168/168
f 169/169/169 167/167/167 170/170/170
f 171/171/171 173/173/173 172/172/172
f 173/173/173 171/171/171 174/174/174
f 175/175/175 177/177/177 176/176/176
f 177/177/177 175/175/175 178/178/178
f 179/179/179 181/181/181 180/180/180
f 181/181/181 179/179/179 182/182/182
f 183/183/183 185/185/185 184/184/184
f 185/185/185 183/183/183 186/186/186
f 187/187/187 189/189/189 188/188/188
f 189/189/189 187/187/187 190/190/190
f 191/191/191 193/193/193 192/192/192
f 193/193/193 191/191/191 194/194/194
f 195/195/195 197/197/197 196/196/196
f 197/197/197 195/195/195 198/198/198
f 199/199/199 201/201/201 200/200/200
f 201/201/201 199/199/199 202/202/202
f 203/203/203 205/205/205 204/204/204
f 205/205/205 203/203/203 206/206/206
f 207/207/207 209/209/209 208/208/208
f 209/209/209 207/207/207 210/210/210
f 211/211/211 213/213/213 212/212/212
f 213/213/213 211/211/211 214/214/214
f 215/215/215 217/217/217 216/216/216
f 217/217/217 215/215/215 218/218/218
f 219/219/219 221/221/221 220/220/220
f 221/221/221 219/219/219 222/222/222
f 223/223/223 225/225/225 224/224/224
f 225/225/225 223/223/223 226/226/226
f 227/227/227 229/229/229 228/228/228
f 229/229/229 227/227/227 230/230/230
f 231/231/231 233/233/233 232/232/232
f 233/233/233 231/231/231 234/234/234
f 235/235/235 237/237/237 236/236/236
f 237/237/237 235/235/235 238/238/238
f 239/239/239 241/241/241 240/240/240
f 241/241/241 239/239/239 242/242/242
f 243/243/243 245/245/245 244/244/244
f 245/245/245 243/243/243 246/246/246
f 247/247/247 249/249/249 248/248/248
f 249/249/249 247/247/247 250/250/250
f 251/251/251 253/253/253 252/252/252
f 253/253/253 251/251/251 254/254/254
f 255/255/255 257/257/257 256/256/256
f 257/257/257 255/255/255 258/258/258
f 259/259/259 261/261/261 260/260/260
f 261/261/261 259/259/259 262/262/262
f 263/263/263 265/265/265 264/264/264
f 265/265/265 263/263/263 266/266/266
f 267/267/267 269/269/269 268/268/268
f 269/269/269 267/267/267 270/270/270
f 271/271/271 273/273/273 272/272/272
f 273/273/273 271/271/271 274/274/274
f 275/275/275 277/277/277 276/276/276
f 277/277/277 275/275/275 278/278/278
f 279/279/279 281/281/281 280/280/280
f 281/281/281 279/279/279 282/282/282
f 283/283/283 285/285/285 284/284/284
f 285/285/285 283/283/283 286/286/286
f 287/287/287 289/289/289 288/288/288
f 289/289/289 287/287/287 290/290/290
f 291/291/291 293/293/293 292/292/292
f 293/293/293 291/291/291 294/294/294
f 295/295/295 297/297/297 296/296/296
f 297/297/297 295/295/295 298/298/298
f 299/299/299 301/301/301 300/300/300
f 301/301/301 299/299/299 302/302/302
f 303/303/303 305/305/305 304/304/304
f 305/305/305 303/303/303 306/306/306
f 307/307/307 309/309/309 308/308/308
f 309/309/309 307/307/307 310/310/310
f 311/311/311 313/313/313 312/312/312
f 313/313/313 311/311/311 314/314/314
f 315/315/315 317/317/317 316/316/316
f 317/317/317 315/315/315 318/318/318
f 319/319/319 321/321/321 320/320/320
f 321/321/321 319/319/319 322/322/322
f 323/323/323 325/325/325 324/324/324
f 325/325/325 323/323/323 326/326/326
f 327/327/327 329/329/329 328/328/328
f 329/329/329 327/327/327 330/330/330
f 331/331/331 333/333/333 332/332/332
f 333/333/333 331/331/331 334/334/334
f 335/335/335 337/337/337 336/336/336
f 337/337/337 335/335/335 338/338/338
f 339/339/339 341/341/341 340/340/340
f 341/341/341 339/339/339 342/342/342
f 343/343/343 345/345/345 344/344/344
f 345/345/345 343/343/343 346/346/346
f 347/347/347 349/349/349 348/348/348
f 349/349/349 347/347/347 350/350/350
f 351/351/351 353/353/353 352/352/352
f 353/353/353 351/351/351 354/354/354
f 355/355/355 357/357/357 356/356/356
f 357/357/357 355/355/355 358/358/358
f 359/359/359 361/361/361 360/360/360
f 361/361/361 359/359/359 362/362/362
f 363/363/363 365/365/365 364/364/364
f 365/365/365 363/363/363 366/366/366
f 367/367/367 369/369/369 368/368/368
f 369/369/369 367/367/367 370/370/370
f 371/371/371 373/373/373 372/372/372
f 373/373/373 371/371/371 374/374/374
f 375/375/375 377/377/377 376/376/376
f 377/377/377 375/375/375 378/378/378
f 368/368/368 380/380/380 379/379/379
f 380/380/380 368/368/368 369/369/369
f 372/372/372 382/382/382 381/381/381
f 382/382/382 372/372/372 373/373/373
f 376/376/376 384/384/384 383/383/383
f 384/384/384 376/376/376 377/377/377
f 385/385/385 387/387/387 386/386/386
f 387/387/387 385/385/385 388/388/388
f 379/379/379 390/390/390 389/389/389
f 390/390/390 379/379/379 380/380/380
f 381/381/381 392/392/392 391/391/391
f 392/392/392 381/381/381 382/382/382
f 383/383/383 394/394/394 393/393/393
f 394/394/394 383/383/383 384/384/384
f 389/389/389 396/396/396 395/395/395
f 396/396/396 389/389/389 390/390/390
f 391/391/391 398/398/398 397/397/397
f 398/398/398 391/391/391 392/392/392
f 393/393/393 400/400/400 399/399/399
f 400/400/400 393/393/393 394/394/394
f 401/401/401 403/403/403 402/402/402
f 403/403/403 401/401/401 404/404/404
f 370/370/370 406/406/406 405/405/405
f 406/406/406 370/370/370 367/367/367
f 374/374/374 408/408/408 407/407/407
f 408/408/408 374/374/374 371/371/371
f 409/409/409 375/375/375 410/410/410
f 375/375/375 409/409/409 378/378/378
f 411/411/411 413/413/413 412/412/412
f 414/414/414 416/416/416 415/415/415
f 417/417/417 419/419/419 418/418/418
f 420/420/420 422/422/422 421/421/421
f 423/423/423 425/425/425 424/424/424
f 426/426/426 428/428/428 427/427/427
f 429/429/429 431/431/431 430/430/430
f 432/432/432 434/434/434 433/433/433
f 435/435/435 437/437/437 436/436/436
f 438/438/438 440/440/440 439/439/439
f 441/441/441 443/443/443 442/442/442
f 444/444/444 446/446/446 445/445/445
f 447/447/447 449/449/449 448/448/448
f 449/449/449 447/447/447 450/450/450
f 451/451/451 453/453/453 452/452/452
f 453/453/453 451/451/451 454/454/454
f 455/455/455 457/457/457 456/456/456
f 457/457/457 455/455/455 458/458/458
f 459/459/459 461/461/461 460/460/460
f 461/461/461 459/459/459 462/462/462
f 454/454/454 463/463/463 453/453/453
f 463/463/463 454/454/454 464/464/464
f 458/458/458 465/465/465 457/457/457
f 465/465/465 458/458/458 466/466/466
f 462/462/462 467/467/467 461/461/461
f 467/467/467 462/462/462 468/468/468
f 469/469/469 471/471/471 470/470/470
f 471/471/471 469/469/469 472/472/472
f 464/464/464 473/473/473 463/463/463
f 473/473/473 464/464/464 474/474/474
f 466/466/466 475/475/475 465/465/465
f 475/475/475 466/466/466 476/476/476
f 468/468/468 477/477/477 467/467/467
f 477/477/477 468/468/468 478/478/478
f 474/474/474 479/479/479 473/473/473
f 479/479/479 474/474/474 480/480/480
f 476/476/476 481/481/481 475/475/475
f 481/481/481 476/476/476 482/482/482
f 478/478/478 483/483/483 477/477/477
f 483/483/483 478/478/478 484/484/484
f 485/485/485 487/487/487 486/486/486
f 487/487/487 485/485/485 488/488/488
f 452/452/452 406/406/406 451/451/451
f 406/406/406 452/452/452 405/405/405
f 456/456/456 408/408/408 455/455/455
f 408/408/408 456/456/456 407/407/407
f 409/409/409 459/459/459 460/460/460
f 459/459/459 409/409/409 410/410/410
f 489/489/489 491/491/491 490/490/490
f 492/492/492 494/494/494 493/493/493
f 495/495/495 497/497/497 496/496/496
f 498/498/498 500/500/500 499/499/499
f 501/501/501 503/503/503 502/502/502
f 504/504/504 506/506/506 505/505/505
f 507/507/507 509/509/509 508/508/508
f 510/510/510 512/512/512 511/511/511
f 513/513/513 515/515/515 514/514/514
f 516/516/516 518/518/518 517/517/517
f 519/519/519 521/521/521 520/520/520
f 522/522/522 524/524/524 523/523/523
f 525/525/525 527/527/527 526/526/526
f 528/528/528 530/530/530 529/529/529
f 530/530/530 528/528/528 531/531/531
f 529/529/529 533/533/533 532/532/532
f 533/533/533 529/529/529 530/530/530
f 534/534/534 536/536/536 535/535/535
f 536/536/536 534/534/534 537/537/537
f 535/535/535 539/539/539 538/538/538
f 539/539/539 535/535/535 536/536/536
f 538/538/538 541/541/541 540/540/540
f 541/541/541 538/538/538 539/539/539
f 540/540/540 543/543/543 542/542/542
f 543/543/543 540/540/540 541/541/541
f 544/544/544 546/546/546 545/545/545
f 546/546/546 544/544/544 547/547/547
f 545/545/545 531/531/531 528/528/528
f 531/531/531 545/545/545 546/546/546
f 529/529/529 548/548/548 528/528/528
f 548/548/548 529/529/529 549/549/549
f 528/528/528 550/550/550 545/545/545
f 550/550/550 528/528/528 548/548/548
f 545/545/545 551/551/551 544/544/544
f 551/551/551 545/545/545 550/550/550
f 542/542/542 552/552/552 540/540/540
f 552/552/552 542/542/542 553/553/553
f 540/540/540 554/554/554 538/538/538
f 554/554/554 540/540/540 552/552/552
f 538/538/538 555/555/555 535/535/535
f 555/555/555 538/538/538 554/554/554
f 535/535/535 556/556/556 534/534/534
f 556/556/556 535/535/535 555/555/555
f 532/532/532 549/549/549 529/529/529
f 549/549/549 532/532/532 557/557/557
f 558/558/558 560/560/560 559/559/559
f 560/560/560 558/558/558 561/561/561
f 559/559/559 563/563/563 562/562/562
f 563/563/563 559/559/559 560/560/560
f 564/564/564 566/566/566 565/565/565
f 566/566/566 564/564/564 567/567/567
f 565/565/565 569/569/569 568/568/568
f 569/569/569 565/565/565 566/566/566
f 568/568/568 571/571/571 570/570/570
f 571/571/571 568/568/568 569/569/569
f 570/570/570 573/573/573 572/572/572
f 573/573/573 570/570/570 571/571/571
f 574/574/574 576/576/576 575/575/575
f 576/576/576 574/574/574 577/577/577
f 575/575/575 561/561/561 558/558/558
f 561/561/561 575/575/575 576/576/576
f 578/578/578 580/580/580 579/579/579
f 580/580/580 578/578/578 581/581/581
f 579/579/579 583/583/583 582/582/582
f 583/583/583 579/579/579 580/580/580
f 582/582/582 585/585/585 584/584/584
f 585/585/585 582/582/582 583/583/583
f 584/584/584 587/587/587 586/586/586
f 587/587/587 584/584/584 585/585/585
f 586/586/586 589/589/589 588/588/588
f 589/589/589 586/586/586 587/587/587
f 588/588/588 591/591/591 590/590/590
f 591/591/591 588/588/588 589/589/589
f 590/590/590 593/593/593 592/592/592
f 593/593/593 590/590/590 591/591/591
f 592/592/592 581/581/581 578/578/578
f 581/581/581 592/592/592 593/593/593
f 594/594/594 596/596/596 595/595/595
f 596/596/596 594/594/594 597/597/597
f 595/595/595 599/599/599 598/598/598
f 599/599/599 595/595/595 596/596/596
f 600/600/600 602/602/602 601/601/601
f 602/602/602 600/600/600 603/603/603
f 601/601/601 605/605/605 604/604/604
f 605/605/605 601/601/601 602/602/602
f 606/606/606 608/608/608 607/607/607
f 608/608/608 606/606/606 609/609/609
f 607/607/607 611/611/611 610/610/610
f 611/611/611 607/607/607 608/608/608
f 612/612/612 614/614/614 613/613/613
f 614/614/614 612/612/612 615/615/615
f 616/616/616 597/597/597 594/594/594
f 597/597/597 616/616/616 617/617/617
f 526/526/526 619/619/619 618/618/618
f 526/526/526 618/618/618 620/620/620
f 526/526/526 527/527/527 619/619/619
f 525/525/525 526/526/526 621/621/621
f 526/526/526 620/620/620 622/622/622
