# Object99.bmd — MU bind-pose geometry, exported for MU2
# 3 mesh(es)

g so_jgwall01
# texture: so_jgwall01.jpg
v -212.1153 73.6358 39.616
v -212.1153 0.8109 47.4114
v 212.1338 0.8109 47.4114
v 212.1338 73.6358 39.616
v -212.1153 73.6358 9.7634
v 72.658 398.5668 9.7634
v -72.6394 398.5668 9.7634
v -212.1153 453.9214 9.7634
v 212.1338 73.6358 9.7634
v 212.1338 453.9214 9.7634
v -212.1153 73.6358 39.616
v 212.1338 73.6358 39.616
v 212.1338 73.6358 9.7634
v -212.1153 73.6358 9.7634
v -72.6394 398.5668 9.7634
v 72.658 398.5668 9.7634
v 72.658 398.5668 -8.5205
v -72.6394 398.5668 -8.5205
v -212.1153 73.6358 -38.3732
v 212.1338 73.6358 -38.3732
v 212.1338 0.8109 -46.1685
v -212.1153 0.8109 -46.1685
v -72.6394 398.5668 -8.5205
v 72.658 398.5668 -8.5205
v -212.1153 73.6358 -8.5205
v -212.1153 453.9214 -8.5205
v 212.1338 453.9214 -8.5205
v 212.1338 73.6358 -8.5205
v -212.1153 73.6358 -38.3732
v -212.1153 73.6358 -8.5205
v 212.1338 73.6358 -8.5205
v 212.1338 73.6358 -38.3732
v 212.1338 453.9214 9.7634
v 212.1338 453.9214 -8.5205
v -212.1153 453.9214 -8.5205
v -212.1153 453.9214 9.7634
vn 0 0.106403 0.994323
vn 0 0.106403 0.994323
vn 0 0.106403 0.994323
vn 0 0.106403 0.994323
vn 0 0 1
vn 0 0 1
vn 0 0 1
vn 0 0 1
vn 0 0 1
vn 0 0 1
vn 0 1 -0
vn 0 1 -0
vn 0 1 -0
vn 0 1 -0
vn 0.187801 0.982207 -0
vn -0.187801 0.982207 -0
vn -0.187801 0.982207 -0
vn 0.187801 0.982207 -0
vn 0 0.106403 -0.994323
vn 0 0.106403 -0.994323
vn 0 0.106403 -0.994323
vn 0 0.106403 -0.994323
vn 0 0 -1
vn 0 0 -1
vn 0 0 -1
vn 0 0 -1
vn 0 0 -1
vn 0 0 -1
vn 0 1 -0
vn 0 1 -0
vn 0 1 -0
vn 0 1 -0
vn -0.368889 0.929473 -0
vn -0.368889 0.929473 -0
vn 0.368889 0.929473 -0
vn 0.368889 0.929473 -0
vt 0.0206 0.1449
vt 0.0206 0.0086
vt 0.9794 0.0086
vt 0.9794 0.1449
vt 0.0206 0.185
vt 0.6642 0.7883
vt 0.3358 0.7883
vt 0.0206 0.891
vt 0.9794 0.185
vt 0.9794 0.891
vt 0.0206 0.1449
vt 0.9794 0.1449
vt 0.9794 0.185
vt 0.0206 0.185
vt 0.3414 0.9024
vt 0.6586 0.9024
vt 0.6586 0.9953
vt 0.3414 0.9953
vt 0.9794 0.1449
vt 0.0206 0.145
vt 0.0206 0.0086
vt 0.9794 0.0086
vt 0.6642 0.7883
vt 0.3358 0.7883
vt 0.9794 0.1849
vt 0.9794 0.891
vt 0.0206 0.891
vt 0.0206 0.1851
vt 0.9794 0.1449
vt 0.9794 0.1849
vt 0.0206 0.1851
vt 0.0206 0.145
vt 0.9789 0.9024
vt 0.9789 0.9953
vt 0.0211 0.9953
vt 0.0211 0.9024
f 1/1/1 3/3/3 2/2/2
f 3/3/3 1/1/1 4/4/4
f 5/5/5 7/7/7 6/6/6
f 7/7/7 5/5/5 8/8/8
f 5/5/5 10/10/10 9/9/9
f 10/10/10 5/5/5 6/6/6
f 11/11/11 13/13/13 12/12/12
f 13/13/13 11/11/11 14/14/14
f 15/15/15 17/17/17 16/16/16
f 17/17/17 15/15/15 18/18/18
f 19/19/19 21/21/21 20/20/20
f 21/21/21 19/19/19 22/22/22
f 23/23/23 25/25/25 24/24/24
f 25/25/25 23/23/23 26/26/26
f 27/27/27 25/25/25 28/28/28
f 25/25/25 27/27/27 24/24/24
f 29/29/29 31/31/31 30/30/30
f 31/31/31 29/29/29 32/32/32
f 16/16/16 34/34/34 33/33/33
f 34/34/34 16/16/16 17/17/17
f 15/15/15 35/35/35 18/18/18
f 35/35/35 15/15/15 36/36/36

g so_jgwall02
# texture: so_jgwall02.jpg
v -26.8191 200.5471 30.9651
v -26.8083 1.5631 30.965
v 0.0093 1.5633 30.965
v 0.0093 200.5372 30.9651
v -30.5312 215.4246 8.1815
v -30.5312 215.4246 34.6629
v -26.8298 215.4285 30.9651
v -26.8298 215.4285 8.1815
v -183.4922 200.5471 30.9651
v -210.6983 200.5371 30.9651
v -210.6985 1.5633 30.965
v -183.5031 1.5631 30.965
v -173.6174 269.4636 30.9651
v -211.4287 333.264 30.9651
v -210.6981 215.4082 30.9651
v -183.4815 215.4285 30.9651
v -179.7941 200.5432 34.6661
v -179.7801 215.4246 34.6629
v -210.7301 215.4165 34.6675
v -210.7304 200.5454 34.6621
v -179.7801 215.4246 8.1815
v -183.4815 215.4285 8.1815
v -183.4815 215.4285 30.9651
v -179.7801 215.4246 34.6629
v -179.7801 215.4246 34.6629
v -183.4815 215.4285 30.9651
v -210.6981 215.4082 30.9651
v -210.6981 215.4082 30.9651
v -210.7301 215.4165 34.6675
v -179.7801 215.4246 34.6629
v 0.0093 333.264 8.1815
v -105.1557 333.2707 8.1815
v -105.1557 333.2707 30.9651
v -105.1557 333.2707 30.9651
v 0.0093 333.0378 30.9651
v 0.0093 333.264 8.1815
v -105.1557 315.4186 8.1815
v -62.126 299.5296 8.1815
v -62.126 299.5296 30.9651
v -105.1557 315.4186 30.9651
v -62.126 299.5296 8.1815
v -37.425 269.4636 8.1815
v -37.425 269.4636 30.9651
v -62.126 299.5296 30.9651
v -37.425 269.4636 8.1815
v -26.8298 215.4285 8.1815
v -26.8298 215.4285 30.9651
v -37.425 269.4636 30.9651
v -30.5312 215.4246 34.6629
v -30.5312 215.4246 8.1815
v -30.5173 200.5432 8.1815
v -30.5173 200.5432 34.6661
v -26.8191 200.5471 8.1815
v -26.8083 1.5631 8.1815
v -26.8083 1.5631 30.965
v -26.8191 200.5471 30.9651
v -105.1557 333.2707 8.1815
v -210.6976 333.264 8.1815
v -211.4287 333.264 30.9651
v -105.1557 333.2707 30.9651
v -148.1854 299.5296 8.1815
v -105.1557 315.4186 8.1815
v -105.1557 315.4186 30.9651
v -148.1854 299.5296 30.9651
v -172.8863 269.4636 8.1815
v -148.1854 299.5296 8.1815
v -148.1854 299.5296 30.9651
v -148.1854 299.5296 30.9651
v -173.6174 269.4636 30.9651
v -172.8863 269.4636 8.1815
v -183.4815 215.4285 8.1815
v -172.8863 269.4636 8.1815
v -173.6174 269.4636 30.9651
v -173.6174 269.4636 30.9651
v -183.4815 215.4285 30.9651
v -183.4815 215.4285 8.1815
v -179.7941 200.5432 8.1815
v -179.7801 215.4246 8.1815
v -179.7801 215.4246 34.6629
v -179.7941 200.5432 34.6661
v -183.503 1.5631 8.1815
v -183.4922 200.5471 8.1815
v -183.4922 200.5471 30.9651
v -183.5031 1.5631 30.965
v -148.1854 299.5296 30.9651
v -105.1557 315.4186 30.9651
v -105.1557 333.2707 30.9651
v 0.0093 215.4085 30.9651
v 0.0093 333.0378 30.9651
v -37.425 269.4636 30.9651
v -26.8298 215.4285 30.9651
v 0.0093 200.5454 34.6622
v 0.0093 215.4165 34.6675
v -30.5312 215.4246 34.6629
v -30.5173 200.5432 34.6661
v 0.0093 215.4165 34.6675
v 0.0093 215.4085 30.9651
v -26.8298 215.4285 30.9651
v -26.8298 215.4285 30.9651
v -30.5312 215.4246 34.6629
v 0.0093 215.4165 34.6675
v -62.126 299.5296 30.9651
v 26.8377 200.5471 30.9651
v 26.827 1.5631 30.965
v 30.5499 215.4245 8.1815
v 26.8485 215.4285 8.1815
v 26.8485 215.4285 30.9651
v 30.5499 215.4245 34.6629
v 183.5108 200.5471 30.9651
v 183.5216 1.5631 30.965
v 210.7171 1.5633 30.965
v 210.7169 200.5371 30.9651
v 173.636 269.4636 30.9651
v 183.5 215.4285 30.9651
v 210.7167 215.4082 30.9651
v 211.4473 333.264 30.9651
v 179.8127 200.5432 34.6661
v 210.749 200.5454 34.6621
v 210.7488 215.4165 34.6675
v 179.7987 215.4245 34.6629
v 179.7987 215.4245 8.1815
v 179.7987 215.4245 34.6629
v 183.5 215.4285 30.9651
v 183.5 215.4285 8.1815
v 179.7987 215.4245 34.6629
v 210.7488 215.4165 34.6675
v 210.7167 215.4082 30.9651
v 210.7167 215.4082 30.9651
v 183.5 215.4285 30.9651
v 179.7987 215.4245 34.6629
v 0.0093 333.264 8.1815
v 0.0093 333.0378 30.9651
v 105.1743 333.2707 30.9651
v 105.1743 333.2707 30.9651
v 105.1743 333.2707 8.1815
v 0.0093 333.264 8.1815
v 105.1743 315.4186 8.1815
v 105.1743 315.4186 30.9651
v 62.1446 299.5296 30.9651
v 62.1446 299.5296 8.1815
v 62.1446 299.5296 8.1815
v 62.1446 299.5296 30.9651
v 37.4436 269.4636 30.9651
v 37.4436 269.4636 8.1815
v 37.4436 269.4636 8.1815
v 37.4436 269.4636 30.9651
v 26.8485 215.4285 30.9651
v 26.8485 215.4285 8.1815
v 30.5499 215.4245 34.6629
v 30.5358 200.5432 34.6661
v 30.5358 200.5432 8.1815
v 30.5499 215.4245 8.1815
v 26.8377 200.5472 8.1815
v 26.8377 200.5471 30.9651
v 26.827 1.5631 30.965
v 26.827 1.5631 8.1815
v 105.1743 333.2707 8.1815
v 105.1743 333.2707 30.9651
v 211.4473 333.264 30.9651
v 210.7163 333.264 8.1815
v 148.2039 299.5296 8.1815
v 148.2039 299.5296 30.9651
v 105.1743 315.4186 30.9651
v 105.1743 315.4186 8.1815
v 172.905 269.4636 8.1815
v 173.636 269.4636 30.9651
v 148.2039 299.5296 30.9651
v 148.2039 299.5296 30.9651
v 148.2039 299.5296 8.1815
v 172.905 269.4636 8.1815
v 183.5 215.4285 8.1815
v 183.5 215.4285 30.9651
v 173.636 269.4636 30.9651
v 173.636 269.4636 30.9651
v 172.905 269.4636 8.1815
v 183.5 215.4285 8.1815
v 179.8127 200.5432 8.1815
v 179.8127 200.5432 34.6661
v 179.7987 215.4245 34.6629
v 179.7987 215.4245 8.1815
v 183.5216 1.5631 8.1815
v 183.5216 1.5631 30.965
v 183.5108 200.5471 30.9651
v 183.5108 200.5472 8.1815
v 148.2039 299.5296 30.9651
v 105.1743 333.2707 30.9651
v 105.1743 315.4186 30.9651
v 26.8485 215.4285 30.9651
v 37.4436 269.4636 30.9651
v 30.5358 200.5432 34.6661
v 30.5499 215.4245 34.6629
v 0.0093 215.4165 34.6675
v 30.5499 215.4245 34.6629
v 26.8485 215.4285 30.9651
v 26.8485 215.4285 30.9651
v 0.0093 215.4085 30.9651
v 0.0093 215.4165 34.6675
v 62.1446 299.5296 30.9651
v 0.0093 200.5372 -29.9816
v 0.0093 1.5633 -29.9815
v -26.8083 1.5631 -29.9815
v -26.8191 200.5471 -29.9816
v -26.8298 215.4285 -7.3347
v -26.8298 215.4285 -29.9816
v -30.5312 215.4246 -33.6794
v -30.5312 215.4246 -7.3347
v -183.5031 1.5631 -29.9815
v -210.6985 1.5633 -29.9815
v -210.6983 200.5371 -29.9816
v -183.4922 200.5471 -29.9816
v -183.4815 215.4285 -29.9816
v -210.6981 215.4082 -29.9816
v -211.4287 333.264 -29.9816
v -173.6174 269.4636 -29.9816
v -210.7304 200.5454 -33.6786
v -210.7301 215.4165 -33.684
v -179.7801 215.4246 -33.6794
v -179.7941 200.5432 -33.6826
v -179.7801 215.4246 -33.6794
v -183.4815 215.4285 -29.9816
v -183.4815 215.4285 -7.3347
v -179.7801 215.4246 -7.3347
v -210.7301 215.4165 -33.684
v -210.6981 215.4082 -29.9816
v -183.4815 215.4285 -29.9816
v -183.4815 215.4285 -29.9816
v -179.7801 215.4246 -33.6794
v -210.7301 215.4165 -33.684
v 0.0093 333.0378 -29.9816
v -105.1557 333.2707 -29.9816
v -105.1557 333.2707 -7.3347
v -105.1557 333.2707 -7.3347
v 0.0093 333.264 -7.3347
v 0.0093 333.0378 -29.9816
v -105.1557 315.4186 -29.9816
v -62.126 299.5296 -29.9816
v -62.126 299.5296 -7.3347
v -105.1557 315.4186 -7.3347
v -62.126 299.5296 -29.9816
v -37.425 269.4636 -29.9816
v -37.425 269.4636 -7.3347
v -62.126 299.5296 -7.3347
v -37.425 269.4636 -29.9816
v -26.8298 215.4285 -29.9816
v -26.8298 215.4285 -7.3347
v -37.425 269.4636 -7.3347
v -30.5173 200.5432 -33.6826
v -30.5173 200.5432 -7.3347
v -30.5312 215.4246 -7.3347
v -30.5312 215.4246 -33.6794
v -26.8191 200.5471 -29.9816
v -26.8083 1.5631 -29.9815
v -26.8083 1.5631 -7.3347
v -26.8191 200.5471 -7.3347
v -105.1557 333.2707 -29.9816
v -211.4287 333.264 -29.9816
v -210.6976 333.264 -7.3347
v -105.1557 333.2707 -7.3347
v -148.1854 299.5296 -29.9816
v -105.1557 315.4186 -29.9816
v -105.1557 315.4186 -7.3347
v -148.1854 299.5296 -7.3347
v -173.6174 269.4636 -29.9816
v -148.1854 299.5296 -29.9816
v -148.1854 299.5296 -7.3347
v -148.1854 299.5296 -7.3347
v -172.8863 269.4636 -7.3347
v -173.6174 269.4636 -29.9816
v -183.4815 215.4285 -29.9816
v -173.6174 269.4636 -29.9816
v -172.8863 269.4636 -7.3347
v -172.8863 269.4636 -7.3347
v -183.4815 215.4285 -7.3347
v -183.4815 215.4285 -29.9816
v -179.7941 200.5432 -33.6826
v -179.7801 215.4246 -33.6794
v -179.7801 215.4246 -7.3347
v -179.7941 200.5432 -7.3347
v -183.5031 1.5631 -29.9815
v -183.4922 200.5471 -29.9816
v -183.4922 200.5471 -7.3347
v -183.503 1.5631 -7.3347
v -148.1854 299.5296 -29.9816
v -105.1557 333.2707 -29.9816
v -105.1557 315.4186 -29.9816
v -26.8298 215.4285 -29.9816
v -37.425 269.4636 -29.9816
v 0.0093 333.0378 -29.9816
v 0.0093 215.4085 -29.9816
v -30.5173 200.5432 -33.6826
v -30.5312 215.4246 -33.6794
v 0.0093 215.4165 -33.684
v 0.0093 200.5454 -33.6787
v -30.5312 215.4246 -33.6794
v -26.8298 215.4285 -29.9816
v 0.0093 215.4085 -29.9816
v 0.0093 215.4085 -29.9816
v 0.0093 215.4165 -33.684
v -30.5312 215.4246 -33.6794
v -62.126 299.5296 -29.9816
v 26.827 1.5631 -29.9815
v 26.8377 200.5471 -29.9816
v 30.5499 215.4245 -33.6794
v 26.8485 215.4285 -29.9816
v 26.8485 215.4285 -7.3347
v 30.5499 215.4245 -7.3347
v 210.7169 200.5371 -29.9816
v 210.7171 1.5633 -29.9815
v 183.5216 1.5631 -29.9815
v 183.5108 200.5471 -29.9816
v 211.4473 333.264 -29.9816
v 210.7167 215.4082 -29.9816
v 183.5 215.4285 -29.9816
v 173.636 269.4636 -29.9816
v 179.7987 215.4245 -33.6794
v 210.7488 215.4165 -33.684
v 210.749 200.5454 -33.6786
v 179.8127 200.5432 -33.6826
v 183.5 215.4285 -7.3347
v 183.5 215.4285 -29.9816
v 179.7987 215.4245 -33.6794
v 179.7987 215.4245 -7.3347
v 183.5 215.4285 -29.9816
v 210.7167 215.4082 -29.9816
v 210.7488 215.4165 -33.684
v 210.7488 215.4165 -33.684
v 179.7987 215.4245 -33.6794
v 183.5 215.4285 -29.9816
v 105.1743 333.2707 -7.3347
v 105.1743 333.2707 -29.9816
v 0.0093 333.0378 -29.9816
v 0.0093 333.0378 -29.9816
v 0.0093 333.264 -7.3347
v 105.1743 333.2707 -7.3347
v 62.1446 299.5296 -7.3347
v 62.1446 299.5296 -29.9816
v 105.1743 315.4186 -29.9816
v 105.1743 315.4186 -7.3347
v 37.4436 269.4636 -7.3347
v 37.4436 269.4636 -29.9816
v 62.1446 299.5296 -29.9816
v 62.1446 299.5296 -7.3347
v 26.8485 215.4285 -7.3347
v 26.8485 215.4285 -29.9816
v 37.4436 269.4636 -29.9816
v 37.4436 269.4636 -7.3347
v 30.5499 215.4245 -7.3347
v 30.5358 200.5432 -7.3347
v 30.5358 200.5432 -33.6826
v 30.5499 215.4245 -33.6794
v 26.827 1.5631 -7.3347
v 26.827 1.5631 -29.9815
v 26.8377 200.5471 -29.9816
v 26.8377 200.5472 -7.3347
v 210.7163 333.264 -7.3347
v 211.4473 333.264 -29.9816
v 105.1743 333.2707 -29.9816
v 105.1743 333.2707 -7.3347
v 105.1743 315.4186 -7.3347
v 105.1743 315.4186 -29.9816
v 148.2039 299.5296 -29.9816
v 148.2039 299.5296 -7.3347
v 148.2039 299.5296 -7.3347
v 148.2039 299.5296 -29.9816
v 173.636 269.4636 -29.9816
v 173.636 269.4636 -29.9816
v 172.905 269.4636 -7.3347
v 148.2039 299.5296 -7.3347
v 172.905 269.4636 -7.3347
v 173.636 269.4636 -29.9816
v 183.5 215.4285 -29.9816
v 183.5 215.4285 -29.9816
v 183.5 215.4285 -7.3347
v 172.905 269.4636 -7.3347
v 179.7987 215.4245 -7.3347
v 179.7987 215.4245 -33.6794
v 179.8127 200.5432 -33.6826
v 179.8127 200.5432 -7.3347
v 183.5108 200.5472 -7.3347
v 183.5108 200.5471 -29.9816
v 183.5216 1.5631 -29.9815
v 183.5216 1.5631 -7.3347
v 148.2039 299.5296 -29.9816
v 105.1743 315.4186 -29.9816
v 105.1743 333.2707 -29.9816
v 37.4436 269.4636 -29.9816
v 26.8485 215.4285 -29.9816
v 30.5499 215.4245 -33.6794
v 30.5358 200.5432 -33.6826
v 0.0093 215.4085 -29.9816
v 26.8485 215.4285 -29.9816
v 30.5499 215.4245 -33.6794
v 30.5499 215.4245 -33.6794
v 0.0093 215.4165 -33.684
v 0.0093 215.4085 -29.9816
v 62.1446 299.5296 -29.9816
v 19.3806 551.4466 29.9417
v 50.8349 424.3939 19.8334
v 67.5253 429.3785 17.1702
v 57.2675 422.4883 11.8283
v 55.9089 422.6256 8.3531
v 56.7335 428.4532 3.2712
v 56.7335 428.4532 3.2712
v 67.5253 429.3785 17.1702
v 57.2675 422.4883 11.8283
v 56.7335 428.4532 3.2712
v 40.0431 423.4687 5.9343
v 19.3806 551.4466 29.9417
v 52.7349 421.5135 9.9752
v 54.0935 421.3763 13.4504
v 50.8349 424.3939 19.8334
v 50.8349 424.3939 19.8334
v 40.0431 423.4687 5.9343
v 52.7349 421.5135 9.9752
v 67.5253 429.3785 17.1702
v 56.7335 428.4532 3.2712
v 19.3806 551.4466 29.9417
v 40.0431 423.4687 5.9343
v 50.8349 424.3939 19.8334
v 19.3806 551.4466 29.9417
v 57.2675 422.4883 11.8283
v 67.5253 429.3785 17.1702
v 50.8349 424.3939 19.8334
v 50.8349 424.3939 19.8334
v 54.0935 421.3763 13.4504
v 57.2675 422.4883 11.8283
v 55.9089 422.6256 8.3531
v 52.7349 421.5135 9.9752
v 40.0431 423.4687 5.9343
v 40.0431 423.4687 5.9343
v 56.7335 428.4532 3.2712
v 55.9089 422.6256 8.3531
v 59.219 422.9079 12.6262
v 56.6904 423.1635 6.1585
v 55.9089 422.6256 8.3531
v 57.2675 422.4883 11.8283
v 50.7834 421.0939 9.1773
v 53.3119 420.8384 15.645
v 54.0935 421.3763 13.4504
v 52.7349 421.5135 9.9752
v 59.219 422.9079 12.6262
v 57.2675 422.4883 11.8283
v 50.7834 421.0939 9.1773
v 52.7349 421.5135 9.9752
v 61.9044 413.149 11.1907
v 59.3759 413.4045 4.7231
v 56.6904 423.1635 6.1585
v 59.219 422.9079 12.6262
v 53.4689 411.335 7.7419
v 55.9974 411.0795 14.2095
v 53.3119 420.8384 15.645
v 50.7834 421.0939 9.1773
v 55.9974 411.0795 14.2095
v 61.9044 413.149 11.1907
v 59.219 422.9079 12.6262
v 53.3119 420.8384 15.645
v 59.3759 413.4045 4.7231
v 53.4689 411.335 7.7419
v 50.7834 421.0939 9.1773
v 56.6904 423.1635 6.1585
v 89.9793 551.7017 31.9251
v 109.2868 437.5054 11.2936
v 126.0855 441.2745 7.5385
v 114.8727 435.6367 2.6682
v 113.26 436.1255 -0.6638
v 114.186 442.2035 -5.4247
v 114.186 442.2035 -5.4247
v 126.0855 441.2745 7.5385
v 114.8727 435.6367 2.6682
v 114.186 442.2035 -5.4247
v 97.3873 438.4344 -1.6696
v 89.9793 551.7017 31.9251
v 110.1395 435.1683 1.1496
v 111.7522 434.6795 4.4815
v 109.2868 437.5054 11.2936
v 109.2868 437.5054 11.2936
v 97.3873 438.4344 -1.6696
v 110.1395 435.1683 1.1496
v 126.0855 441.2745 7.5385
v 114.186 442.2035 -5.4247
v 89.9793 551.7017 31.9251
v 97.3873 438.4344 -1.6696
v 109.2868 437.5054 11.2936
v 89.9793 551.7017 31.9251
v 114.8727 435.6367 2.6682
v 126.0855 441.2745 7.5385
v 109.2868 437.5054 11.2936
v 109.2868 437.5054 11.2936
v 111.7522 434.6795 4.4815
v 114.8727 435.6367 2.6682
v 113.26 436.1255 -0.6638
v 110.1395 435.1683 1.1496
v 97.3873 438.4344 -1.6696
v 97.3873 438.4344 -1.6696
v 114.186 442.2035 -5.4247
v 113.26 436.1255 -0.6638
v 116.9105 435.8384 3.3221
v 113.9091 436.748 -2.879
v 113.26 436.1255 -0.6638
v 114.8727 435.6367 2.6682
v 108.1017 434.9666 0.4957
v 111.103 434.0569 6.6968
v 111.7522 434.6795 4.4815
v 110.1395 435.1683 1.1496
v 116.9105 435.8384 3.3221
v 114.8727 435.6367 2.6682
v 108.1017 434.9666 0.4957
v 110.1395 435.1683 1.1496
v 118.6087 426.0148 1.0591
v 115.6074 426.9242 -5.1419
v 113.9091 436.748 -2.879
v 116.9105 435.8384 3.3221
v 109.8 425.1429 -1.7672
v 112.8013 424.2333 4.4339
v 111.103 434.0569 6.6968
v 111.103 434.0569 6.6968
v 108.1017 434.9666 0.4957
v 109.8 425.1429 -1.7672
v 112.8013 424.2333 4.4339
v 118.6087 426.0148 1.0591
v 116.9105 435.8384 3.3221
v 111.103 434.0569 6.6968
v 115.6074 426.9242 -5.1419
v 109.8 425.1429 -1.7672
v 108.1017 434.9666 0.4957
v 113.9091 436.748 -2.879
v 177.3338 590.2167 37.54
v 162.862 461.5313 15.9857
v 179.0472 461.5107 9.0185
v 166.1334 458.6718 6.4877
v 164.0688 459.5961 3.517
v 165.4213 465.4282 -1.4454
v 165.4213 465.4282 -1.4454
v 179.0472 461.5107 9.0185
v 166.1334 458.6718 6.4877
v 165.4213 465.4282 -1.4454
v 149.2361 465.4489 5.5219
v 177.3338 590.2167 37.54
v 161.2167 459.3212 5.911
v 163.2812 458.3968 8.8817
v 162.862 461.5313 15.9857
v 162.862 461.5313 15.9857
v 149.2361 465.4489 5.5219
v 161.2167 459.3212 5.911
v 179.0472 461.5107 9.0185
v 165.4213 465.4282 -1.4454
v 177.3338 590.2167 37.54
v 149.2361 465.4489 5.5219
v 162.862 461.5313 15.9857
v 177.3338 590.2167 37.54
v 166.1334 458.6718 6.4877
v 179.0472 461.5107 9.0185
v 162.862 461.5313 15.9857
v 162.862 461.5313 15.9857
v 163.2812 458.3968 8.8817
v 166.1334 458.6718 6.4877
v 164.0688 459.5961 3.517
v 161.2167 459.3212 5.911
v 149.2361 465.4489 5.5219
v 149.2361 465.4489 5.5219
v 165.4213 465.4282 -1.4454
v 164.0688 459.5961 3.517
v 168.2502 458.3921 6.736
v 164.4079 460.1125 1.2073
v 164.0688 459.5961 3.517
v 164.0688 459.5961 3.517
v 166.1334 458.6718 6.4877
v 168.2502 458.3921 6.736
v 159.0998 459.6009 5.6627
v 162.942 457.8805 11.1914
v 163.2812 458.3968 8.8817
v 163.2812 458.3968 8.8817
v 161.2167 459.3212 5.911
v 159.0998 459.6009 5.6627
v 162.942 457.8805 11.1914
v 168.2502 458.3921 6.736
v 166.1334 458.6718 6.4877
v 166.1334 458.6718 6.4877
v 162.942 457.8805 11.1914
v 164.4079 460.1125 1.2073
v 159.0998 459.6009 5.6627
v 161.2167 459.3212 5.911
v 161.2167 459.3212 5.911
v 164.0688 459.5961 3.517
v 164.4079 460.1125 1.2073
v 167.2205 448.4994 4.3733
v 163.3782 450.2198 -1.1554
v 164.4079 460.1125 1.2073
v 168.2502 458.3921 6.736
v 158.0701 449.7082 3.3
v 161.9123 447.9878 8.8287
v 162.942 457.8805 11.1914
v 159.0998 459.6009 5.6627
v 161.9123 447.9878 8.8287
v 167.2205 448.4994 4.3733
v 168.2502 458.3921 6.736
v 162.942 457.8805 11.1914
v 163.3782 450.2198 -1.1554
v 158.0701 449.7082 3.3
v 159.0998 459.6009 5.6627
v 164.4079 460.1125 1.2073
v 3.3357 552.2526 -35.213
v 0.0067 427.9234 6.8004
v 11.8065 424.039 -5.6968
v -0.473 421.0562 -1.0547
v -3.6725 420.7039 -2.947
v -5.2964 423.7222 -9.9269
v -5.2964 423.7222 -9.9269
v 11.8065 424.039 -5.6968
v -0.473 421.0562 -1.0547
v -5.2964 423.7222 -9.9269
v -17.0962 427.6065 2.5703
v 3.3357 552.2526 -35.213
v -5.2399 421.6446 0.3089
v -2.0404 421.9969 2.2011
v 0.0067 427.9234 6.8004
v 0.0067 427.9234 6.8004
v -17.0962 427.6065 2.5703
v -5.2399 421.6446 0.3089
v 11.8065 424.039 -5.6968
v -5.2964 423.7222 -9.9269
v 3.3357 552.2526 -35.213
v -17.0962 427.6065 2.5703
v 0.0067 427.9234 6.8004
v 3.3357 552.2526 -35.213
v -0.473 421.0562 -1.0547
v 11.8065 424.039 -5.6968
v 0.0067 427.9234 6.8004
v 0.0067 427.9234 6.8004
v -2.0404 421.9969 2.2011
v -0.473 421.0562 -1.0547
v -3.6725 420.7039 -2.947
v -5.2399 421.6446 0.3089
v -17.0962 427.6065 2.5703
v -17.0962 427.6065 2.5703
v -5.2964 423.7222 -9.9269
v -3.6725 420.7039 -2.947
v 1.5793 420.8029 -1.6417
v -4.3752 420.1472 -5.1634
v -3.6725 420.7039 -2.947
v -3.6725 420.7039 -2.947
v -0.473 421.0562 -1.0547
v 1.5793 420.8029 -1.6417
v -7.2922 421.8979 0.8959
v -1.3377 422.5536 4.4176
v -2.0404 421.9969 2.2011
v -2.0404 421.9969 2.2011
v -5.2399 421.6446 0.3089
v -7.2922 421.8979 0.8959
v -1.3377 422.5536 4.4176
v 1.5793 420.8029 -1.6417
v -0.473 421.0562 -1.0547
v -0.473 421.0562 -1.0547
v -2.0404 421.9969 2.2011
v -1.3377 422.5536 4.4176
v -4.3752 420.1472 -5.1634
v -7.2922 421.8979 0.8959
v -5.2399 421.6446 0.3089
v -5.2399 421.6446 0.3089
v 1.1125 410.9341 0.985
v -4.842 410.2785 -2.5368
v -4.3752 420.1472 -5.1634
v 1.5793 420.8029 -1.6417
v -7.7591 412.0291 3.5224
v -1.8045 412.6848 7.0442
v -1.3377 422.5536 4.4176
v -7.2922 421.8979 0.8959
v -1.8045 412.6848 7.0442
v 1.1125 410.9341 0.985
v 1.5793 420.8029 -1.6417
v -1.3377 422.5536 4.4176
v -4.842 410.2785 -2.5368
v -7.7591 412.0291 3.5224
v -7.2922 421.8979 0.8959
v -4.3752 420.1472 -5.1634
v -34.0576 550.3569 24.5465
v -64.0372 422.916 14.8511
v -48.0891 420.3384 7.8142
v -61.2894 418.8486 5.6318
v -63.2801 419.7439 2.6023
v -61.3306 424.9055 -2.8772
v -61.3306 424.9055 -2.8772
v -48.0891 420.3384 7.8142
v -61.2894 418.8486 5.6318
v -61.3306 424.9055 -2.8772
v -77.2787 427.4831 4.1596
v -34.0576 550.3569 24.5465
v -66.1036 420.027 5.029
v -64.1131 419.1316 8.0585
v -64.0372 422.916 14.8511
v -64.0372 422.916 14.8511
v -77.2787 427.4831 4.1596
v -66.1036 420.027 5.029
v -48.0891 420.3384 7.8142
v -61.3306 424.9055 -2.8772
v -34.0576 550.3569 24.5465
v -77.2787 427.4831 4.1596
v -64.0372 422.916 14.8511
v -34.0576 550.3569 24.5465
v -61.2894 418.8486 5.6318
v -48.0891 420.3384 7.8142
v -64.0372 422.916 14.8511
v -64.0372 422.916 14.8511
v -64.1131 419.1316 8.0585
v -61.2894 418.8486 5.6318
v -63.2801 419.7439 2.6023
v -66.1036 420.027 5.029
v -77.2787 427.4831 4.1596
v -77.2787 427.4831 4.1596
v -61.3306 424.9055 -2.8772
v -63.2801 419.7439 2.6023
v -59.2167 418.3413 5.8913
v -62.9214 420.0075 0.2532
v -63.2801 419.7439 2.6023
v -61.2894 418.8486 5.6318
v -68.1764 420.5343 4.7695
v -64.4716 418.8681 10.4076
v -64.1131 419.1316 8.0585
v -66.1036 420.027 5.029
v -59.2167 418.3413 5.8913
v -61.2894 418.8486 5.6318
v -68.1764 420.5343 4.7695
v -66.1036 420.027 5.029
v -61.4512 408.4713 4.4426
v -65.1559 410.1375 -1.1955
v -62.9214 420.0075 0.2532
v -59.2167 418.3413 5.8913
v -70.4108 410.6642 3.3208
v -66.7061 408.998 8.9588
v -64.4716 418.8681 10.4076
v -68.1764 420.5343 4.7695
v -66.7061 408.998 8.9588
v -61.4512 408.4713 4.4426
v -59.2167 418.3413 5.8913
v -64.4716 418.8681 10.4076
v -65.1559 410.1375 -1.1955
v -70.4108 410.6642 3.3208
v -68.1764 420.5343 4.7695
v -62.9214 420.0075 0.2532
v -109.5602 576.2777 6.2124
v -123.0043 446.3269 19.0965
v -109.5687 444.4483 7.851
v -122.4953 441.3238 9.9423
v -125.3799 441.5813 7.5855
v -125.8336 446.1055 1.2774
v -125.8336 446.1055 1.2774
v -109.5687 444.4483 7.851
v -122.4953 441.3238 9.9423
v -125.8336 446.1055 1.2774
v -139.2691 447.9841 12.523
v -109.5602 576.2777 6.2124
v -127.3938 441.9069 10.7129
v -124.5092 441.6494 13.0696
v -123.0043 446.3269 19.0965
v -123.0043 446.3269 19.0965
v -139.2691 447.9841 12.523
v -127.3938 441.9069 10.7129
v -109.5687 444.4483 7.851
v -125.8336 446.1055 1.2774
v -109.5602 576.2777 6.2124
v -139.2691 447.9841 12.523
v -123.0043 446.3269 19.0965
v -109.5602 576.2777 6.2124
v -122.4953 441.3238 9.9423
v -109.5687 444.4483 7.851
v -123.0043 446.3269 19.0965
v -123.0043 446.3269 19.0965
v -124.5092 441.6494 13.0696
v -122.4953 441.3238 9.9423
v -125.3799 441.5813 7.5855
v -127.3938 441.9069 10.7129
v -139.2691 447.9841 12.523
v -139.2691 447.9841 12.523
v -125.8336 446.1055 1.2774
v -125.3799 441.5813 7.5855
v -120.3864 441.0726 9.6106
v -125.7548 441.552 5.2244
v -125.3799 441.5813 7.5855
v -122.4953 441.3238 9.9423
v -129.5028 442.158 11.0446
v -124.1343 441.6787 15.4308
v -124.5092 441.6494 13.0696
v -127.3938 441.9069 10.7129
v -124.1343 441.6787 15.4308
v -120.3864 441.0726 9.6106
v -122.4953 441.3238 9.9423
v -122.4953 441.3238 9.9423
v -124.5092 441.6494 13.0696
v -124.1343 441.6787 15.4308
v -125.7548 441.552 5.2244
v -129.5028 442.158 11.0446
v -127.3938 441.9069 10.7129
v -127.3938 441.9069 10.7129
v -125.3799 441.5813 7.5855
v -125.7548 441.552 5.2244
v -121.5462 430.9204 9.9208
v -126.9147 431.3997 5.5346
v -125.7548 441.552 5.2244
v -120.3864 441.0726 9.6106
v -130.6625 432.0058 11.3549
v -125.2941 431.5265 15.741
v -124.1343 441.6787 15.4308
v -129.5028 442.158 11.0446
v -125.2941 431.5265 15.741
v -121.5462 430.9204 9.9208
v -120.3864 441.0726 9.6106
v -124.1343 441.6787 15.4308
v -126.9147 431.3997 5.5346
v -130.6625 432.0058 11.3549
v -129.5028 442.158 11.0446
v -129.5028 442.158 11.0446
v -125.7548 441.552 5.2244
v -126.9147 431.3997 5.5346
v 78.9695 429.7903 13.3644
v 60.9793 429.7903 13.3644
v 60.9793 429.7903 31.3546
v 78.9695 429.7903 31.3546
v 78.9695 429.7903 31.3546
v 60.9793 429.7903 31.3546
v 60.9793 371.1426 31.3546
v 78.9695 371.1426 31.3546
v 78.9695 429.7903 13.3644
v 78.9695 429.7903 31.3546
v 78.9695 371.1426 31.3546
v 78.9695 371.1426 13.3644
v 60.9793 429.7903 13.3644
v 78.9695 429.7903 13.3644
v 78.9695 371.1426 13.3644
v 60.9793 371.1426 13.3644
v 60.9793 429.7903 31.3546
v 60.9793 429.7903 13.3644
v 60.9793 371.1426 13.3644
v 60.9793 371.1426 31.3546
v -62.7014 429.7903 13.3644
v -80.6915 429.7903 13.3644
v -80.6915 429.7903 31.3546
v -62.7014 429.7903 31.3546
v -62.7014 429.7903 31.3546
v -80.6915 429.7903 31.3546
v -80.6915 371.1426 31.3546
v -62.7014 371.1426 31.3546
v -62.7014 429.7903 13.3644
v -62.7014 429.7903 31.3546
v -62.7014 371.1426 31.3546
v -62.7014 371.1426 13.3644
v -80.6915 429.7903 13.3644
v -62.7014 429.7903 13.3644
v -62.7014 371.1426 13.3644
v -80.6915 371.1426 13.3644
v -80.6915 429.7903 31.3546
v -80.6915 429.7903 13.3644
v -80.6915 371.1426 13.3644
v -80.6915 371.1426 31.3546
v 78.9695 429.7903 -27.3391
v 60.9793 429.7903 -27.3391
v 60.9793 429.7903 -9.3489
v 78.9695 429.7903 -9.3489
v 78.9695 429.7903 -9.3489
v 60.9793 429.7903 -9.3489
v 60.9793 371.1426 -9.3489
v 78.9695 371.1426 -9.3489
v 78.9695 429.7903 -27.3391
v 78.9695 429.7903 -9.3489
v 78.9695 371.1426 -9.3489
v 78.9695 371.1426 -27.3391
v 60.9793 429.7903 -27.3391
v 78.9695 429.7903 -27.3391
v 78.9695 371.1426 -27.3391
v 60.9793 371.1426 -27.3391
v 60.9793 429.7903 -9.3489
v 60.9793 429.7903 -27.3391
v 60.9793 371.1426 -27.3391
v 60.9793 371.1426 -9.3489
v -62.7014 429.7903 -27.3391
v -80.6915 429.7903 -27.3391
v -80.6915 429.7903 -9.3489
v -62.7014 429.7903 -9.3489
v -62.7014 429.7903 -9.3489
v -80.6915 429.7903 -9.3489
v -80.6915 371.1426 -9.3489
v -62.7014 371.1426 -9.3489
v -62.7014 429.7903 -27.3391
v -62.7014 429.7903 -9.3489
v -62.7014 371.1426 -9.3489
v -62.7014 371.1426 -27.3391
v -80.6915 429.7903 -27.3391
v -62.7014 429.7903 -27.3391
v -62.7014 371.1426 -27.3391
v -80.6915 371.1426 -27.3391
v -80.6915 429.7903 -9.3489
v -80.6915 429.7903 -27.3391
v -80.6915 371.1426 -27.3391
v -80.6915 371.1426 -9.3489
v -161.004 470.0576 13.3644
v -178.9942 470.0576 13.3644
v -178.9942 470.0576 31.3546
v -161.004 470.0576 31.3546
v -161.004 470.0576 31.3546
v -178.9942 470.0576 31.3546
v -178.9942 411.4099 31.3546
v -161.004 411.4099 31.3546
v -161.004 470.0576 13.3644
v -161.004 470.0576 31.3546
v -161.004 411.4099 31.3546
v -161.004 411.4099 13.3644
v -178.9942 470.0576 13.3644
v -161.004 470.0576 13.3644
v -161.004 411.4099 13.3644
v -178.9942 411.4099 13.3644
v -178.9942 470.0576 31.3546
v -178.9942 470.0576 13.3644
v -178.9942 411.4099 13.3644
v -178.9942 411.4099 31.3546
v -161.004 470.0576 -27.3391
v -178.9942 470.0576 -27.3391
v -178.9942 470.0576 -9.3489
v -161.004 470.0576 -9.3489
v -161.004 470.0576 -9.3489
v -178.9942 470.0576 -9.3489
v -178.9942 411.4099 -9.3489
v -161.004 411.4099 -9.3489
v -161.004 470.0576 -27.3391
v -161.004 470.0576 -9.3489
v -161.004 411.4099 -9.3489
v -161.004 411.4099 -27.3391
v -178.9942 470.0576 -27.3391
v -161.004 470.0576 -27.3391
v -161.004 411.4099 -27.3391
v -178.9942 411.4099 -27.3391
v -178.9942 470.0576 -9.3489
v -178.9942 470.0576 -27.3391
v -178.9942 411.4099 -27.3391
v -178.9942 411.4099 -9.3489
v 187.9903 472.2813 13.3644
v 170.0001 472.2813 13.3644
v 170.0001 472.2813 31.3546
v 187.9903 472.2813 31.3546
v 187.9903 472.2813 31.3546
v 170.0001 472.2813 31.3546
v 170.0001 413.6337 31.3546
v 187.9903 413.6337 31.3546
v 187.9903 472.2813 13.3644
v 187.9903 472.2813 31.3546
v 187.9903 413.6337 31.3546
v 187.9903 413.6337 13.3644
v 170.0001 472.2813 13.3644
v 187.9903 472.2813 13.3644
v 187.9903 413.6337 13.3644
v 170.0001 413.6337 13.3644
v 170.0001 472.2813 31.3546
v 170.0001 472.2813 13.3644
v 170.0001 413.6337 13.3644
v 170.0001 413.6337 31.3546
v 187.9903 472.2813 -27.3391
v 170.0001 472.2813 -27.3391
v 170.0001 472.2813 -9.3489
v 187.9903 472.2813 -9.3489
v 187.9903 472.2813 -9.3489
v 170.0001 472.2813 -9.3489
v 170.0001 413.6337 -9.3489
v 187.9903 413.6337 -9.3489
v 187.9903 472.2813 -27.3391
v 187.9903 472.2813 -9.3489
v 187.9903 413.6337 -9.3489
v 187.9903 413.6337 -27.3391
v 170.0001 472.2813 -27.3391
v 187.9903 472.2813 -27.3391
v 187.9903 413.6337 -27.3391
v 170.0001 413.6337 -27.3391
v 170.0001 472.2813 -9.3489
v 170.0001 472.2813 -27.3391
v 170.0001 413.6337 -27.3391
v 170.0001 413.6337 -9.3489
vn 0 0 1
vn 0 0 1
vn 0 0 1
vn 0 0 1
vn -0.0011 0.999999 -0
vn -0.0011 0.999999 -0
vn -0.0011 0.999999 -0
vn -0.0011 0.999999 -0
vn 0 0 1
vn 0 0 1
vn 0 0 1
vn 0 0 1
vn 0 0 1
vn 0 0 1
vn 0 0 1
vn 0 0 1
vn 0.0001 0.0001 1
vn 0.0001 0.0002 1
vn -0.0001 -0.0002 1
vn -0.0001 -0.0004 1
vn 0.0011 0.999999 -0
vn 0.0011 0.999999 -0
vn 0.0011 0.999999 -0
vn 0.0011 0.999999 -0
vn -0.0007 0.999998 0.0018
vn -0.0007 0.999998 0.0018
vn -0.0007 0.999998 0.0018
vn -0.0003 0.999998 -0.0022
vn -0.0003 0.999998 -0.0022
vn -0.0003 0.999998 -0.0022
vn 0.0001 1 -0
vn 0.0001 1 -0
vn 0.0001 1 -0
vn 0.0022 0.999949 0.0099
vn 0.0022 0.999949 0.0099
vn 0.0022 0.999949 0.0099
vn -0.346396 -0.938089 -0
vn -0.346396 -0.938089 -0
vn -0.346396 -0.938089 -0
vn -0.346396 -0.938089 -0
vn -0.772686 -0.634789 -0
vn -0.772686 -0.634789 -0
vn -0.772686 -0.634789 -0
vn -0.772686 -0.634789 -0
vn -0.981316 -0.192403 -0
vn -0.981316 -0.192403 -0
vn -0.981316 -0.192403 -0
vn -0.981316 -0.192403 -0
vn -1 -0.0009 -0
vn -1 -0.0009 -0
vn -1 -0.0009 -0
vn -1 -0.0009 -0
vn -1 -0.0001 -0
vn -1 -0.0001 -0
vn -1 -0.0001 -0
vn -1 -0.0001 -0
vn -0.0001 1 -0
vn -0.0001 1 -0
vn -0.0001 1 -0
vn -0.0001 1 -0
vn 0.346396 -0.938089 -0
vn 0.346396 -0.938089 -0
vn 0.346396 -0.938089 -0
vn 0.346396 -0.938089 -0
vn 0.772686 -0.634789 -0
vn 0.772686 -0.634789 -0
vn 0.772686 -0.634789 -0
vn 0.76329 -0.645592 0.0245
vn 0.76329 -0.645592 0.0245
vn 0.76329 -0.645592 0.0245
vn 0.980829 -0.192306 0.031501
vn 0.980829 -0.192306 0.031501
vn 0.980829 -0.192306 0.031501
vn 0.983738 -0.179607 -0
vn 0.983738 -0.179607 -0
vn 0.983738 -0.179607 -0
vn 1 -0.0009 -0
vn 1 -0.0009 -0
vn 1 -0.0009 -0
vn 1 -0.0009 -0
vn 1 -0.0001 -0
vn 1 -0.0001 -0
vn 1 -0.0001 -0
vn 1 -0.0001 -0
vn 0 0 1
vn 0 0 1
vn 0 0 1
vn 0 0 1
vn 0 0 1
vn 0 0 1
vn 0 0 1
vn 0 -0.0002 1
vn 0 -0.0004 1
vn 0 0.0001 1
vn 0.0001 0.0002 1
vn 0.0007 0.999997 -0.0022
vn 0.0007 0.999997 -0.0022
vn 0.0007 0.999997 -0.0022
vn 0.0003 0.999999 0.0013
vn 0.0003 0.999999 0.0013
vn 0.0003 0.999999 0.0013
vn 0 0 1
vn 0 0 1
vn 0 0 1
vn 0.0011 0.999999 -0
vn 0.0011 0.999999 -0
vn 0.0011 0.999999 -0
vn 0.0011 0.999999 -0
vn 0 0 1
vn 0 0 1
vn 0 0 1
vn 0 0 1
vn 0 0 1
vn 0 0 1
vn 0 0 1
vn 0 0 1
vn -0.0001 0.0001 1
vn 0.0001 -0.0004 1
vn 0.0001 -0.0002 1
vn -0.0001 0.0002 1
vn -0.0011 0.999999 -0
vn -0.0011 0.999999 -0
vn -0.0011 0.999999 -0
vn -0.0011 0.999999 -0
vn 0.0003 0.999998 -0.0022
vn 0.0003 0.999998 -0.0022
vn 0.0003 0.999998 -0.0022
vn 0.0007 0.999998 0.0018
vn 0.0007 0.999998 0.0018
vn 0.0007 0.999998 0.0018
vn -0.0022 0.999949 0.0099
vn -0.0022 0.999949 0.0099
vn -0.0022 0.999949 0.0099
vn -0.0001 1 -0
vn -0.0001 1 -0
vn -0.0001 1 -0
vn 0.346396 -0.938089 -0
vn 0.346396 -0.938089 -0
vn 0.346396 -0.938089 -0
vn 0.346396 -0.938089 -0
vn 0.772686 -0.634789 -0
vn 0.772686 -0.634789 -0
vn 0.772686 -0.634789 -0
vn 0.772686 -0.634789 -0
vn 0.981316 -0.192403 -0
vn 0.981316 -0.192403 -0
vn 0.981316 -0.192403 -0
vn 0.981316 -0.192403 -0
vn 1 -0.0009 -0
vn 1 -0.0009 -0
vn 1 -0.0009 -0
vn 1 -0.0009 -0
vn 1 -0.0001 -0
vn 1 -0.0001 -0
vn 1 -0.0001 -0
vn 1 -0.0001 -0
vn 0.0001 1 -0
vn 0.0001 1 -0
vn 0.0001 1 -0
vn 0.0001 1 -0
vn -0.346396 -0.938089 -0
vn -0.346396 -0.938089 -0
vn -0.346396 -0.938089 -0
vn -0.346396 -0.938089 -0
vn -0.76329 -0.645592 0.0245
vn -0.76329 -0.645592 0.0245
vn -0.76329 -0.645592 0.0245
vn -0.772686 -0.634789 -0
vn -0.772686 -0.634789 -0
vn -0.772686 -0.634789 -0
vn -0.983738 -0.179607 -0
vn -0.983738 -0.179607 -0
vn -0.983738 -0.179607 -0
vn -0.980829 -0.192306 0.031501
vn -0.980829 -0.192306 0.031501
vn -0.980829 -0.192306 0.031501
vn -1 -0.0009 -0
vn -1 -0.0009 -0
vn -1 -0.0009 -0
vn -1 -0.0009 -0
vn -1 -0.0001 -0
vn -1 -0.0001 -0
vn -1 -0.0001 -0
vn -1 -0.0001 -0
vn 0 0 1
vn 0 0 1
vn 0 0 1
vn 0 0 1
vn 0 0 1
vn -0.0001 0.0002 1
vn 0 0.0001 1
vn -0.0003 0.999999 0.0013
vn -0.0003 0.999999 0.0013
vn -0.0003 0.999999 0.0013
vn -0.0007 0.999997 -0.0022
vn -0.0007 0.999997 -0.0022
vn -0.0007 0.999997 -0.0022
vn 0 0 1
vn 0 0 -1
vn 0 0 -1
vn 0 0 -1
vn 0 0 -1
vn -0.0011 0.999999 -0
vn -0.0011 0.999999 -0
vn -0.0011 0.999999 -0
vn -0.0011 0.999999 -0
vn 0 0 -1
vn 0 0 -1
vn 0 0 -1
vn 0 0 -1
vn 0 0 -1
vn 0 0 -1
vn 0 0 -1
vn 0 0 -1
vn 0.0001 -0.0002 -1
vn 0.0001 -0.0004 -1
vn -0.0001 0.0001 -1
vn -0.0001 0.0002 -1
vn 0.0011 0.999999 -0
vn 0.0011 0.999999 -0
vn 0.0011 0.999999 -0
vn 0.0011 0.999999 -0
vn -0.0007 0.999997 0.0022
vn -0.0007 0.999997 0.0022
vn -0.0007 0.999997 0.0022
vn -0.0003 0.999999 -0.0013
vn -0.0003 0.999999 -0.0013
vn -0.0003 0.999999 -0.0013
vn 0.0022 0.999998 -0
vn 0.0022 0.999998 -0
vn 0.0022 0.999998 -0
vn 0.0001 0.99995 -0.01
vn 0.0001 0.99995 -0.01
vn 0.0001 0.99995 -0.01
vn -0.346396 -0.938089 -0
vn -0.346396 -0.938089 -0
vn -0.346396 -0.938089 -0
vn -0.346396 -0.938089 -0
vn -0.772686 -0.634789 -0
vn -0.772686 -0.634789 -0
vn -0.772686 -0.634789 -0
vn -0.772686 -0.634789 -0
vn -0.981316 -0.192403 -0
vn -0.981316 -0.192403 -0
vn -0.981316 -0.192403 -0
vn -0.981316 -0.192403 -0
vn -1 -0.0009 -0
vn -1 -0.0009 -0
vn -1 -0.0009 -0
vn -1 -0.0009 -0
vn -1 -0.0001 -0
vn -1 -0.0001 -0
vn -1 -0.0001 -0
vn -1 -0.0001 -0
vn -0.0001 1 -0
vn -0.0001 1 -0
vn -0.0001 1 -0
vn -0.0001 1 -0
vn 0.346396 -0.938089 -0
vn 0.346396 -0.938089 -0
vn 0.346396 -0.938089 -0
vn 0.346396 -0.938089 -0
vn 0.763504 -0.645803 -0
vn 0.763504 -0.645803 -0
vn 0.763504 -0.645803 -0
vn 0.772424 -0.634619 -0.024901
vn 0.772424 -0.634619 -0.024901
vn 0.772424 -0.634619 -0.024901
vn 0.983246 -0.179508 -0.031701
vn 0.983246 -0.179508 -0.031701
vn 0.983246 -0.179508 -0.031701
vn 0.981316 -0.192403 -0
vn 0.981316 -0.192403 -0
vn 0.981316 -0.192403 -0
vn 1 -0.0009 -0
vn 1 -0.0009 -0
vn 1 -0.0009 -0
vn 1 -0.0009 -0
vn 1 -0.0001 -0
vn 1 -0.0001 -0
vn 1 -0.0001 -0
vn 1 -0.0001 -0
vn 0 0 -1
vn 0 0 -1
vn 0 0 -1
vn 0 0 -1
vn 0 0 -1
vn 0 0 -1
vn 0 0 -1
vn -0.0001 0.0001 -1
vn -0.0002 0.0002 -1
vn 0 -0.0002 -1
vn 0 -0.0004 -1
vn 0.0007 0.999998 -0.0018
vn 0.0007 0.999998 -0.0018
vn 0.0007 0.999998 -0.0018
vn 0.0003 0.999998 0.0022
vn 0.0003 0.999998 0.0022
vn 0.0003 0.999998 0.0022
vn 0 0 -1
vn 0 0 -1
vn 0 0 -1
vn 0.0011 0.999999 -0
vn 0.0011 0.999999 -0
vn 0.0011 0.999999 -0
vn 0.0011 0.999999 -0
vn 0 0 -1
vn 0 0 -1
vn 0 0 -1
vn 0 0 -1
vn 0 0 -1
vn 0 0 -1
vn 0 0 -1
vn 0 0 -1
vn 0.0001 0.0001 -1
vn -0.0001 -0.0004 -1
vn -0.0001 -0.0002 -1
vn 0.0001 0.0002 -1
vn -0.0011 0.999999 -0
vn -0.0011 0.999999 -0
vn -0.0011 0.999999 -0
vn -0.0011 0.999999 -0
vn 0.0007 0.999997 0.0022
vn 0.0007 0.999997 0.0022
vn 0.0007 0.999997 0.0022
vn 0.0003 0.999999 -0.0013
vn 0.0003 0.999999 -0.0013
vn 0.0003 0.999999 -0.0013
vn -0.0022 0.999998 -0
vn -0.0022 0.999998 -0
vn -0.0022 0.999998 -0
vn -0.0001 0.99995 -0.01
vn -0.0001 0.99995 -0.01
vn -0.0001 0.99995 -0.01
vn 0.346396 -0.938089 -0
vn 0.346396 -0.938089 -0
vn 0.346396 -0.938089 -0
vn 0.346396 -0.938089 -0
vn 0.772686 -0.634789 -0
vn 0.772686 -0.634789 -0
vn 0.772686 -0.634789 -0
vn 0.772686 -0.634789 -0
vn 0.981316 -0.192403 -0
vn 0.981316 -0.192403 -0
vn 0.981316 -0.192403 -0
vn 0.981316 -0.192403 -0
vn 1 -0.0009 -0
vn 1 -0.0009 -0
vn 1 -0.0009 -0
vn 1 -0.0009 -0
vn 1 -0.0001 -0
vn 1 -0.0001 -0
vn 1 -0.0001 -0
vn 1 -0.0001 -0
vn 0.0001 1 -0
vn 0.0001 1 -0
vn 0.0001 1 -0
vn 0.0001 1 -0
vn -0.346396 -0.938089 -0
vn -0.346396 -0.938089 -0
vn -0.346396 -0.938089 -0
vn -0.346396 -0.938089 -0
vn -0.763504 -0.645803 -0
vn -0.763504 -0.645803 -0
vn -0.763504 -0.645803 -0
vn -0.772424 -0.634619 -0.024901
vn -0.772424 -0.634619 -0.024901
vn -0.772424 -0.634619 -0.024901
vn -0.983246 -0.179508 -0.031701
vn -0.983246 -0.179508 -0.031701
vn -0.983246 -0.179508 -0.031701
vn -0.981316 -0.192403 -0
vn -0.981316 -0.192403 -0
vn -0.981316 -0.192403 -0
vn -1 -0.0009 -0
vn -1 -0.0009 -0
vn -1 -0.0009 -0
vn -1 -0.0009 -0
vn -1 -0.0001 -0
vn -1 -0.0001 -0
vn -1 -0.0001 -0
vn -1 -0.0001 -0
vn 0 0 -1
vn 0 0 -1
vn 0 0 -1
vn 0 0 -1
vn 0 0 -1
vn 0.0002 0.0002 -1
vn 0.0001 0.0001 -1
vn -0.0007 0.999998 -0.0018
vn -0.0007 0.999998 -0.0018
vn -0.0007 0.999998 -0.0018
vn -0.0003 0.999998 0.0022
vn -0.0003 0.999998 0.0022
vn -0.0003 0.999998 0.0022
vn 0 0 -1
vn 0.168195 -0.036699 0.98507
vn 0.168195 -0.036699 0.98507
vn 0.168195 -0.036699 0.98507
vn 0.839715 -0.419508 -0.344806
vn 0.839715 -0.419508 -0.344806
vn 0.839715 -0.419508 -0.344806
vn 0.647625 -0.605524 -0.462518
vn 0.647625 -0.605524 -0.462518
vn 0.647625 -0.605524 -0.462518
vn -0.199198 0.149498 -0.968489
vn -0.199198 0.149498 -0.968489
vn -0.199198 0.149498 -0.968489
vn -0.487977 -0.858659 0.156793
vn -0.487977 -0.858659 0.156793
vn -0.487977 -0.858659 0.156793
vn -0.220395 -0.946879 0.234195
vn -0.220395 -0.946879 0.234195
vn -0.220395 -0.946879 0.234195
vn 0.728779 0.34909 -0.589083
vn 0.728779 0.34909 -0.589083
vn 0.728779 0.34909 -0.589083
vn -0.759798 -0.236299 0.605698
vn -0.759798 -0.236299 0.605698
vn -0.759798 -0.236299 0.605698
vn 0.320705 -0.830513 0.455407
vn 0.320705 -0.830513 0.455407
vn 0.320705 -0.830513 0.455407
vn 0.514987 -0.642984 0.566886
vn 0.514987 -0.642984 0.566886
vn 0.514987 -0.642984 0.566886
vn 0.033801 -0.853917 -0.51931
vn 0.033801 -0.853917 -0.51931
vn 0.033801 -0.853917 -0.51931
vn 0.078601 -0.661507 -0.745808
vn 0.078601 -0.661507 -0.745808
vn 0.078601 -0.661507 -0.745808
vn -0.262702 0.954607 0.140401
vn -0.262702 0.954607 0.140401
vn -0.262702 0.954607 0.140401
vn -0.262702 0.954607 0.140401
vn -0.262702 0.954607 0.140401
vn -0.262702 0.954607 0.140401
vn -0.262702 0.954607 0.140401
vn -0.262702 0.954607 0.140401
vn -0.262702 0.954607 0.140401
vn -0.262702 0.954607 0.140401
vn -0.262702 0.954607 0.140401
vn -0.262702 0.954607 0.140401
vn 0.893626 0.295609 -0.33771
vn 0.893626 0.295609 -0.33771
vn 0.893626 0.295609 -0.33771
vn 0.893626 0.295609 -0.33771
vn -0.893626 -0.295609 0.33771
vn -0.893626 -0.295609 0.33771
vn -0.893626 -0.295609 0.33771
vn -0.893626 -0.295609 0.33771
vn 0.456503 -0.0052 0.889707
vn 0.456503 -0.0052 0.889707
vn 0.456503 -0.0052 0.889707
vn 0.456503 -0.0052 0.889707
vn -0.456503 0.0052 -0.889707
vn -0.456503 0.0052 -0.889707
vn -0.456503 0.0052 -0.889707
vn -0.456503 0.0052 -0.889707
vn 0.244405 -0.132203 0.960619
vn 0.244405 -0.132203 0.960619
vn 0.244405 -0.132203 0.960619
vn 0.769727 -0.462216 -0.440315
vn 0.769727 -0.462216 -0.440315
vn 0.769727 -0.462216 -0.440315
vn 0.553401 -0.623201 -0.552601
vn 0.553401 -0.623201 -0.552601
vn 0.553401 -0.623201 -0.552601
vn -0.265598 0.258098 -0.928893
vn -0.265598 0.258098 -0.928893
vn -0.265598 0.258098 -0.928893
vn -0.547288 -0.824482 0.143897
vn -0.547288 -0.824482 0.143897
vn -0.547288 -0.824482 0.143897
vn -0.283201 -0.939502 0.1927
vn -0.283201 -0.939502 0.1927
vn -0.283201 -0.939502 0.1927
vn 0.698912 0.364406 -0.615411
vn 0.698912 0.364406 -0.615411
vn 0.698912 0.364406 -0.615411
vn -0.723793 -0.239298 0.647194
vn -0.723793 -0.239298 0.647194
vn -0.723793 -0.239298 0.647194
vn 0.281795 -0.883584 0.373993
vn 0.281795 -0.883584 0.373993
vn 0.281795 -0.883584 0.373993
vn 0.500012 -0.720817 0.480011
vn 0.500012 -0.720817 0.480011
vn 0.500012 -0.720817 0.480011
vn -0.082402 -0.815816 -0.572411
vn -0.082402 -0.815816 -0.572411
vn -0.082402 -0.815816 -0.572411
vn -0.0391 -0.612501 -0.789502
vn -0.0391 -0.612501 -0.789502
vn -0.0391 -0.612501 -0.789502
vn -0.166105 0.960931 0.221407
vn -0.166105 0.960931 0.221407
vn -0.166105 0.960931 0.221407
vn -0.166105 0.960931 0.221407
vn -0.166105 0.960931 0.221407
vn -0.166105 0.960931 0.221407
vn -0.166105 0.960931 0.221407
vn -0.166105 0.960931 0.221407
vn -0.166105 0.960931 0.221407
vn -0.166105 0.960931 0.221407
vn -0.166105 0.960931 0.221407
vn -0.166105 0.960931 0.221407
vn 0.886476 0.243893 -0.393289
vn 0.886476 0.243893 -0.393289
vn 0.886476 0.243893 -0.393289
vn 0.886476 0.243893 -0.393289
vn -0.886476 -0.243893 0.393289
vn -0.886476 -0.243893 0.393289
vn -0.886476 -0.243893 0.393289
vn -0.886498 -0.243799 0.393299
vn -0.886498 -0.243799 0.393299
vn -0.886498 -0.243799 0.393299
vn 0.523391 -0.104298 0.845685
vn 0.523391 -0.104298 0.845685
vn 0.523391 -0.104298 0.845685
vn 0.523391 -0.104298 0.845685
vn -0.523391 0.104298 -0.845685
vn -0.523391 0.104298 -0.845685
vn -0.523391 0.104298 -0.845685
vn -0.523391 0.104298 -0.845685
vn 0.387591 -0.194496 0.90108
vn 0.387591 -0.194496 0.90108
vn 0.387591 -0.194496 0.90108
vn 0.546983 -0.612481 -0.570682
vn 0.546983 -0.612481 -0.570682
vn 0.546983 -0.612481 -0.570682
vn 0.282516 -0.71764 -0.636536
vn 0.282516 -0.71764 -0.636536
vn 0.282516 -0.71764 -0.636536
vn -0.375694 0.308795 -0.873785
vn -0.375694 0.308795 -0.873785
vn -0.375694 0.308795 -0.873785
vn -0.681908 -0.683208 0.261203
vn -0.681908 -0.683208 0.261203
vn -0.681908 -0.683208 0.261203
vn -0.446288 -0.856076 0.260693
vn -0.446288 -0.856076 0.260693
vn -0.446288 -0.856076 0.260693
vn 0.630882 0.175895 -0.755678
vn 0.630882 0.175895 -0.755678
vn 0.630882 0.175895 -0.755678
vn -0.61899 -0.061499 0.782987
vn -0.61899 -0.061499 0.782987
vn -0.61899 -0.061499 0.782987
vn 0.140702 -0.933611 0.329504
vn 0.140702 -0.933611 0.329504
vn 0.140702 -0.933611 0.329504
vn 0.406082 -0.826963 0.388883
vn 0.406082 -0.826963 0.388883
vn 0.406082 -0.826963 0.388883
vn -0.372198 -0.761396 -0.530797
vn -0.372198 -0.761396 -0.530797
vn -0.372198 -0.761396 -0.530797
vn -0.326092 -0.567587 -0.755982
vn -0.326092 -0.567587 -0.755982
vn -0.326092 -0.567587 -0.755982
vn 0.100698 0.967682 0.231196
vn 0.100698 0.967682 0.231196
vn 0.100698 0.967682 0.231196
vn 0.100799 0.967695 0.231099
vn 0.100799 0.967695 0.231099
vn 0.100799 0.967695 0.231099
vn 0.100799 0.967695 0.231099
vn 0.100799 0.967695 0.231099
vn 0.100799 0.967695 0.231099
vn 0.100701 0.967704 0.231101
vn 0.100701 0.967704 0.231101
vn 0.100701 0.967704 0.231101
vn 0.100698 0.967682 0.231196
vn 0.100698 0.967682 0.231196
vn 0.100698 0.967682 0.231196
vn 0.100701 0.967704 0.231101
vn 0.100701 0.967704 0.231101
vn 0.100701 0.967704 0.231101
vn 0.100701 0.967704 0.231101
vn 0.100701 0.967704 0.231101
vn 0.100797 0.967672 0.231193
vn 0.100797 0.967672 0.231193
vn 0.100797 0.967672 0.231193
vn 0.827113 0.047701 -0.560009
vn 0.827113 0.047701 -0.560009
vn 0.827113 0.047701 -0.560009
vn 0.827113 0.047701 -0.560009
vn -0.827113 -0.047701 0.560009
vn -0.827113 -0.047701 0.560009
vn -0.827113 -0.047701 0.560009
vn -0.827113 -0.047701 0.560009
vn 0.637479 -0.241092 0.731776
vn 0.637479 -0.241092 0.731776
vn 0.637479 -0.241092 0.731776
vn 0.637479 -0.241092 0.731776
vn -0.637479 0.241092 -0.731776
vn -0.637479 0.241092 -0.731776
vn -0.637479 0.241092 -0.731776
vn -0.637479 0.241092 -0.731776
vn 0.742688 0.196397 0.64019
vn 0.742688 0.196397 0.64019
vn 0.742688 0.196397 0.64019
vn 0.350892 -0.826982 -0.43929
vn 0.350892 -0.826982 -0.43929
vn 0.350892 -0.826982 -0.43929
vn 0.100499 -0.936487 -0.335995
vn 0.100499 -0.936487 -0.335995
vn 0.100499 -0.936487 -0.335995
vn -0.737311 -0.082401 -0.67051
vn -0.737311 -0.082401 -0.67051
vn -0.737311 -0.082401 -0.67051
vn -0.411982 -0.46558 0.783266
vn -0.411982 -0.46558 0.783266
vn -0.411982 -0.46558 0.783266
vn -0.174706 -0.633422 0.753826
vn -0.174706 -0.633422 0.753826
vn -0.174706 -0.633422 0.753826
vn 0.238597 -0.202897 -0.949687
vn 0.238597 -0.202897 -0.949687
vn 0.238597 -0.202897 -0.949687
vn -0.233304 0.316905 0.919315
vn -0.233304 0.316905 0.919315
vn -0.233304 0.316905 0.919315
vn 0.394399 -0.703599 0.591099
vn 0.394399 -0.703599 0.591099
vn 0.394399 -0.703599 0.591099
vn 0.642765 -0.595768 0.481574
vn 0.642765 -0.595768 0.481574
vn 0.642765 -0.595768 0.481574
vn -0.441689 -0.895978 0.046199
vn -0.441689 -0.895978 0.046199
vn -0.441689 -0.895978 0.046199
vn -0.519095 -0.821891 -0.234598
vn -0.519095 -0.821891 -0.234598
vn -0.519095 -0.821891 -0.234598
vn 0.045703 0.965353 -0.256914
vn 0.045703 0.965353 -0.256914
vn 0.045703 0.965353 -0.256914
vn 0.045701 0.965328 -0.257008
vn 0.045701 0.965328 -0.257008
vn 0.045701 0.965328 -0.257008
vn 0.045703 0.965353 -0.256914
vn 0.045703 0.965353 -0.256914
vn 0.045703 0.965353 -0.256914
vn 0.045698 0.96536 -0.256889
vn 0.045698 0.96536 -0.256889
vn 0.045698 0.96536 -0.256889
vn 0.045698 0.96536 -0.256889
vn 0.045698 0.96536 -0.256889
vn 0.045698 0.96536 -0.256889
vn 0.045598 0.965364 -0.256891
vn 0.045598 0.965364 -0.256891
vn 0.045598 0.965364 -0.256891
vn 0.045603 0.965357 -0.256915
vn 0.045603 0.965357 -0.256915
vn 0.045603 0.965357 -0.256915
vn 0.045703 0.965353 -0.256914
vn 0.513489 -0.243295 -0.822883
vn 0.513489 -0.243295 -0.822883
vn 0.513489 -0.243295 -0.822883
vn 0.513489 -0.243295 -0.822883
vn -0.513489 0.243295 0.822883
vn -0.513489 0.243295 0.822883
vn -0.513489 0.243295 0.822883
vn -0.513489 0.243295 0.822883
vn 0.906498 0.068 0.416699
vn 0.906498 0.068 0.416699
vn 0.906498 0.068 0.416699
vn 0.906498 0.068 0.416699
vn -0.906498 -0.068 -0.416699
vn -0.906498 -0.068 -0.416699
vn -0.906498 -0.068 -0.416699
vn -0.906498 -0.068 -0.416699
vn 0.377093 -0.158097 0.912582
vn 0.377093 -0.158097 0.912582
vn 0.377093 -0.158097 0.912582
vn 0.460781 -0.72197 -0.516179
vn 0.460781 -0.72197 -0.516179
vn 0.460781 -0.72197 -0.516179
vn 0.184612 -0.800253 -0.570538
vn 0.184612 -0.800253 -0.570538
vn 0.184612 -0.800253 -0.570538
vn -0.351307 0.272205 -0.895817
vn -0.351307 0.272205 -0.895817
vn -0.351307 0.272205 -0.895817
vn -0.753501 -0.570701 0.3264
vn -0.753501 -0.570701 0.3264
vn -0.753501 -0.570701 0.3264
vn -0.540109 -0.769812 0.340105
vn -0.540109 -0.769812 0.340105
vn -0.540109 -0.769812 0.340105
vn 0.634334 0.030902 -0.772441
vn 0.634334 0.030902 -0.772441
vn 0.634334 0.030902 -0.772441
vn -0.608496 0.083099 0.789194
vn -0.608496 0.083099 0.789194
vn -0.608496 0.083099 0.789194
vn 0.034601 -0.910522 0.41201
vn 0.034601 -0.910522 0.41201
vn 0.034601 -0.910522 0.41201
vn 0.311796 -0.831489 0.459794
vn 0.311796 -0.831489 0.459794
vn 0.311796 -0.831489 0.459794
vn -0.468713 -0.755821 -0.457213
vn -0.468713 -0.755821 -0.457213
vn -0.468713 -0.755821 -0.457213
vn -0.403896 -0.589794 -0.699293
vn -0.403896 -0.589794 -0.699293
vn -0.403896 -0.589794 -0.699293
vn 0.218594 0.965473 0.141696
vn 0.218594 0.965473 0.141696
vn 0.218594 0.965473 0.141696
vn 0.218594 0.965473 0.141696
vn 0.218594 0.965473 0.141696
vn 0.218594 0.965473 0.141696
vn 0.218594 0.965473 0.141696
vn 0.218594 0.965473 0.141696
vn 0.218594 0.965473 0.141696
vn 0.218594 0.965473 0.141696
vn 0.218594 0.965473 0.141696
vn 0.218594 0.965473 0.141696
vn 0.817323 -0.101803 -0.567116
vn 0.817323 -0.101803 -0.567116
vn 0.817323 -0.101803 -0.567116
vn 0.817323 -0.101803 -0.567116
vn -0.817323 0.101803 0.567116
vn -0.817323 0.101803 0.567116
vn -0.817323 0.101803 0.567116
vn -0.817323 0.101803 0.567116
vn 0.616706 -0.249202 0.746707
vn 0.616706 -0.249202 0.746707
vn 0.616706 -0.249202 0.746707
vn 0.616706 -0.249202 0.746707
vn -0.616706 0.249202 -0.746707
vn -0.616706 0.249202 -0.746707
vn -0.616706 0.249202 -0.746707
vn -0.616706 0.249202 -0.746707
vn 0.642572 0.0095 0.766167
vn 0.642572 0.0095 0.766167
vn 0.642572 0.0095 0.766167
vn 0.38809 -0.735481 -0.555386
vn 0.38809 -0.735481 -0.555386
vn 0.38809 -0.735481 -0.555386
vn 0.121705 -0.848433 -0.51512
vn 0.121705 -0.848433 -0.51512
vn 0.121705 -0.848433 -0.51512
vn -0.629215 0.107803 -0.769719
vn -0.629215 0.107803 -0.769719
vn -0.629215 0.107803 -0.769719
vn -0.54003 -0.594233 0.596033
vn -0.54003 -0.594233 0.596033
vn -0.54003 -0.594233 0.596033
vn -0.306209 -0.766523 0.564517
vn -0.306209 -0.766523 0.564517
vn -0.306209 -0.766523 0.564517
vn 0.373692 -0.0116 -0.92748
vn 0.373692 -0.0116 -0.92748
vn 0.373692 -0.0116 -0.92748
vn -0.360296 0.128899 0.92389
vn -0.360296 0.128899 0.92389
vn -0.360296 0.128899 0.92389
vn 0.278493 -0.83618 0.472489
vn 0.278493 -0.83618 0.472489
vn 0.278493 -0.83618 0.472489
vn 0.543889 -0.723285 0.425491
vn 0.543889 -0.723285 0.425491
vn 0.543889 -0.723285 0.425491
vn -0.470679 -0.855961 -0.21399
vn -0.470679 -0.855961 -0.21399
vn -0.470679 -0.855961 -0.21399
vn -0.502213 -0.719418 -0.479812
vn -0.502213 -0.719418 -0.479812
vn -0.502213 -0.719418 -0.479812
vn 0.113497 0.993073 -0.030399
vn 0.113497 0.993073 -0.030399
vn 0.113497 0.993073 -0.030399
vn 0.113497 0.993073 -0.030399
vn 0.113497 0.993073 -0.030399
vn 0.113497 0.993073 -0.030399
vn 0.113497 0.993073 -0.030399
vn 0.113497 0.993073 -0.030399
vn 0.113497 0.993076 -0.030299
vn 0.113497 0.993076 -0.030299
vn 0.113497 0.993076 -0.030299
vn 0.113398 0.993085 -0.0304
vn 0.113398 0.993085 -0.0304
vn 0.113398 0.993085 -0.0304
vn 0.113497 0.993076 -0.030299
vn 0.113497 0.993076 -0.030299
vn 0.113497 0.993076 -0.030299
vn 0.113398 0.993085 -0.0304
vn 0.113398 0.993085 -0.0304
vn 0.113398 0.993085 -0.0304
vn 0.624725 -0.095104 -0.775031
vn 0.624725 -0.095104 -0.775031
vn 0.624725 -0.095104 -0.775031
vn 0.624725 -0.095104 -0.775031
vn -0.624725 0.095104 0.775031
vn -0.624725 0.095104 0.775031
vn -0.624725 0.095104 0.775031
vn -0.624725 0.095104 0.775031
vn 0.834405 -0.078701 0.545503
vn 0.834405 -0.078701 0.545503
vn 0.834405 -0.078701 0.545503
vn 0.834405 -0.078701 0.545503
vn -0.834412 0.078601 -0.545508
vn -0.834412 0.078601 -0.545508
vn -0.834412 0.078601 -0.545508
vn -0.834405 0.078701 -0.545503
vn -0.834405 0.078701 -0.545503
vn -0.834405 0.078701 -0.545503
vn 0 1 -0
vn 0 1 -0
vn 0 1 -0
vn 0 1 -0
vn 0 0 1
vn 0 0 1
vn 0 0 1
vn 0 0 1
vn 1 0 -0
vn 1 0 -0
vn 1 0 -0
vn 1 0 -0
vn 0 0 -1
vn 0 0 -1
vn 0 0 -1
vn 0 0 -1
vn -1 0 -0
vn -1 0 -0
vn -1 0 -0
vn -1 0 -0
vn 0 1 -0
vn 0 1 -0
vn 0 1 -0
vn 0 1 -0
vn 0 0 1
vn 0 0 1
vn 0 0 1
vn 0 0 1
vn 1 0 -0
vn 1 0 -0
vn 1 0 -0
vn 1 0 -0
vn 0 0 -1
vn 0 0 -1
vn 0 0 -1
vn 0 0 -1
vn -1 0 -0
vn -1 0 -0
vn -1 0 -0
vn -1 0 -0
vn 0 1 -0
vn 0 1 -0
vn 0 1 -0
vn 0 1 -0
vn 0 0 1
vn 0 0 1
vn 0 0 1
vn 0 0 1
vn 1 0 -0
vn 1 0 -0
vn 1 0 -0
vn 1 0 -0
vn 0 0 -1
vn 0 0 -1
vn 0 0 -1
vn 0 0 -1
vn -1 0 -0
vn -1 0 -0
vn -1 0 -0
vn -1 0 -0
vn 0 1 -0
vn 0 1 -0
vn 0 1 -0
vn 0 1 -0
vn 0 0 1
vn 0 0 1
vn 0 0 1
vn 0 0 1
vn 1 0 -0
vn 1 0 -0
vn 1 0 -0
vn 1 0 -0
vn 0 0 -1
vn 0 0 -1
vn 0 0 -1
vn 0 0 -1
vn -1 0 -0
vn -1 0 -0
vn -1 0 -0
vn -1 0 -0
vn 0 1 -0
vn 0 1 -0
vn 0 1 -0
vn 0 1 -0
vn 0 0 1
vn 0 0 1
vn 0 0 1
vn 0 0 1
vn 1 0 -0
vn 1 0 -0
vn 1 0 -0
vn 1 0 -0
vn 0 0 -1
vn 0 0 -1
vn 0 0 -1
vn 0 0 -1
vn -1 0 -0
vn -1 0 -0
vn -1 0 -0
vn -1 0 -0
vn 0 1 -0
vn 0 1 -0
vn 0 1 -0
vn 0 1 -0
vn 0 0 1
vn 0 0 1
vn 0 0 1
vn 0 0 1
vn 1 0 -0
vn 1 0 -0
vn 1 0 -0
vn 1 0 -0
vn 0 0 -1
vn 0 0 -1
vn 0 0 -1
vn 0 0 -1
vn -1 0 -0
vn -1 0 -0
vn -1 0 -0
vn -1 0 -0
vn 0 1 -0
vn 0 1 -0
vn 0 1 -0
vn 0 1 -0
vn 0 0 1
vn 0 0 1
vn 0 0 1
vn 0 0 1
vn 1 0 -0
vn 1 0 -0
vn 1 0 -0
vn 1 0 -0
vn 0 0 -1
vn 0 0 -1
vn 0 0 -1
vn 0 0 -1
vn -1 0 -0
vn -1 0 -0
vn -1 0 -0
vn -1 0 -0
vn 0 1 -0
vn 0 1 -0
vn 0 1 -0
vn 0 1 -0
vn 0 0 1
vn 0 0 1
vn 0 0 1
vn 0 0 1
vn 1 0 -0
vn 1 0 -0
vn 1 0 -0
vn 1 0 -0
vn 0 0 -1
vn 0 0 -1
vn 0 0 -1
vn 0 0 -1
vn -1 0 -0
vn -1 0 -0
vn -1 0 -0
vn -1 0 -0
vt 0.9149 0.6576
vt 0.915 0.1583
vt 0.9969 0.1583
vt 0.9969 0.6576
vt 0.5632 0.7445
vt 0.5632 0.7866
vt 0.5743 0.7754
vt 0.5743 0.7445
vt 0.3988 0.6531
vt 0.3157 0.6531
vt 0.3157 0.1538
vt 0.3988 0.1538
vt 0.4339 0.7964
vt 0.3162 0.9651
vt 0.3162 0.6562
vt 0.398 0.6561
vt 0.6513 0.6809
vt 0.6513 0.7181
vt 0.5579 0.718
vt 0.5579 0.6809
vt 0.5632 0.7445
vt 0.5743 0.7445
vt 0.5743 0.7755
vt 0.5632 0.7866
vt 0.5632 0.7866
vt 0.5743 0.7755
vt 0.6564 0.7755
vt 0.6564 0.7755
vt 0.6564 0.7866
vt 0.5632 0.7866
vt 0.9982 0.9982
vt 0.6582 0.9971
vt 0.6582 0.964
vt 0.6582 0.964
vt 0.9982 0.9645
vt 0.9982 0.9982
vt 0.4056 0.7366
vt 0.4056 0.5358
vt 0.4368 0.5358
vt 0.4368 0.7366
vt 0.4056 0.5358
vt 0.4056 0.3807
vt 0.4368 0.3807
vt 0.4368 0.5358
vt 0.4056 0.3807
vt 0.4056 0.1787
vt 0.4368 0.1787
vt 0.4368 0.3807
vt 0.6513 0.7181
vt 0.6937 0.718
vt 0.6937 0.6809
vt 0.6513 0.6809
vt 0.4057 0.6532
vt 0.4057 0.1524
vt 0.4368 0.1524
vt 0.4368 0.6532
vt 0.6582 0.9971
vt 0.3162 0.9982
vt 0.3162 0.9651
vt 0.6582 0.964
vt 0.4368 0.5361
vt 0.4368 0.7366
vt 0.4058 0.7366
vt 0.4056 0.5366
vt 0.4368 0.3807
vt 0.4368 0.5361
vt 0.4056 0.5366
vt 0.4056 0.5366
vt 0.4055 0.3806
vt 0.4368 0.3807
vt 0.4368 0.179
vt 0.4368 0.3807
vt 0.4055 0.3806
vt 0.4055 0.3806
vt 0.4058 0.178
vt 0.4368 0.179
vt 0.6937 0.6809
vt 0.6937 0.718
vt 0.6513 0.7181
vt 0.6513 0.6809
vt 0.4368 0.1524
vt 0.4368 0.6532
vt 0.4057 0.6532
vt 0.4057 0.1524
vt 0.518 0.8733
vt 0.6582 0.9113
vt 0.6582 0.964
vt 0.9983 0.6562
vt 0.9982 0.9645
vt 0.8801 0.7963
vt 0.9183 0.6561
vt 0.5588 0.6809
vt 0.5588 0.718
vt 0.6513 0.7181
vt 0.6513 0.6809
vt 0.6555 0.7866
vt 0.6555 0.7754
vt 0.5743 0.7754
vt 0.5743 0.7754
vt 0.5632 0.7866
vt 0.6555 0.7866
vt 0.7984 0.8733
vt 0.9149 0.6576
vt 0.915 0.1583
vt 0.5632 0.7445
vt 0.5743 0.7445
vt 0.5743 0.7754
vt 0.5632 0.7866
vt 0.3988 0.6531
vt 0.3988 0.1538
vt 0.3157 0.1538
vt 0.3157 0.6531
vt 0.4339 0.7964
vt 0.398 0.6561
vt 0.3162 0.6562
vt 0.3162 0.9651
vt 0.6513 0.6809
vt 0.5579 0.6809
vt 0.5579 0.718
vt 0.6513 0.7181
vt 0.5632 0.7445
vt 0.5632 0.7866
vt 0.5743 0.7755
vt 0.5743 0.7445
vt 0.5632 0.7866
vt 0.6564 0.7866
vt 0.6564 0.7755
vt 0.6564 0.7755
vt 0.5743 0.7755
vt 0.5632 0.7866
vt 0.9982 0.9982
vt 0.9982 0.9645
vt 0.6582 0.964
vt 0.6582 0.964
vt 0.6582 0.9971
vt 0.9982 0.9982
vt 0.4056 0.6532
vt 0.4368 0.6532
vt 0.4368 0.5165
vt 0.4056 0.5165
vt 0.4056 0.5165
vt 0.4368 0.5165
vt 0.4368 0.4109
vt 0.4056 0.4109
vt 0.4056 0.4109
vt 0.4368 0.4109
vt 0.4368 0.2734
vt 0.4056 0.2734
vt 0.6513 0.7181
vt 0.6513 0.6809
vt 0.6937 0.6809
vt 0.6937 0.718
vt 0.4057 0.6532
vt 0.4368 0.6532
vt 0.4368 0.1607
vt 0.4057 0.1607
vt 0.6582 0.9971
vt 0.6582 0.964
vt 0.3162 0.9651
vt 0.3162 0.9982
vt 0.4368 0.5167
vt 0.4056 0.5171
vt 0.4058 0.6532
vt 0.4368 0.6532
vt 0.4368 0.411
vt 0.4055 0.4109
vt 0.4056 0.5171
vt 0.4056 0.5171
vt 0.4368 0.5167
vt 0.4368 0.411
vt 0.4368 0.2736
vt 0.4058 0.273
vt 0.4055 0.4109
vt 0.4055 0.4109
vt 0.4368 0.411
vt 0.4368 0.2736
vt 0.6937 0.6809
vt 0.6513 0.6809
vt 0.6513 0.7181
vt 0.6937 0.718
vt 0.4368 0.1607
vt 0.4057 0.1607
vt 0.4057 0.6532
vt 0.4368 0.6532
vt 0.518 0.8733
vt 0.6582 0.964
vt 0.6582 0.9113
vt 0.9183 0.6561
vt 0.8801 0.7963
vt 0.6513 0.6809
vt 0.6513 0.7181
vt 0.6555 0.7866
vt 0.5632 0.7866
vt 0.5743 0.7754
vt 0.5743 0.7754
vt 0.6555 0.7754
vt 0.6555 0.7866
vt 0.7984 0.8733
vt 0.9969 0.6576
vt 0.9969 0.1583
vt 0.915 0.1583
vt 0.9149 0.6576
vt 0.5743 0.7445
vt 0.5743 0.7754
vt 0.5632 0.7866
vt 0.5632 0.7445
vt 0.3988 0.1538
vt 0.3157 0.1538
vt 0.3157 0.6531
vt 0.3988 0.6531
vt 0.398 0.6561
vt 0.3162 0.6562
vt 0.3162 0.9651
vt 0.4339 0.7964
vt 0.5579 0.6809
vt 0.5579 0.718
vt 0.6513 0.7181
vt 0.6513 0.6809
vt 0.5632 0.7866
vt 0.5743 0.7755
vt 0.5743 0.7445
vt 0.5632 0.7445
vt 0.6564 0.7866
vt 0.6564 0.7755
vt 0.5743 0.7755
vt 0.5743 0.7755
vt 0.5632 0.7866
vt 0.6564 0.7866
vt 0.9982 0.9645
vt 0.6582 0.964
vt 0.6582 0.9971
vt 0.6582 0.9971
vt 0.9982 0.9982
vt 0.9982 0.9645
vt 0.4368 0.6532
vt 0.4368 0.5165
vt 0.4056 0.5165
vt 0.4056 0.6532
vt 0.4368 0.5165
vt 0.4368 0.4109
vt 0.4056 0.4109
vt 0.4056 0.5165
vt 0.4368 0.4109
vt 0.4368 0.2734
vt 0.4056 0.2734
vt 0.4056 0.4109
vt 0.6513 0.6809
vt 0.6937 0.6809
vt 0.6937 0.718
vt 0.6513 0.7181
vt 0.4368 0.6532
vt 0.4368 0.1607
vt 0.4057 0.1607
vt 0.4057 0.6532
vt 0.6582 0.964
vt 0.3162 0.9651
vt 0.3162 0.9982
vt 0.6582 0.9971
vt 0.4056 0.5171
vt 0.4058 0.6532
vt 0.4368 0.6532
vt 0.4368 0.5167
vt 0.4055 0.4109
vt 0.4056 0.5171
vt 0.4368 0.5167
vt 0.4368 0.5167
vt 0.4368 0.411
vt 0.4055 0.4109
vt 0.4058 0.273
vt 0.4055 0.4109
vt 0.4368 0.411
vt 0.4368 0.411
vt 0.4368 0.2736
vt 0.4058 0.273
vt 0.6513 0.6809
vt 0.6513 0.7181
vt 0.6937 0.718
vt 0.6937 0.6809
vt 0.4057 0.1607
vt 0.4057 0.6532
vt 0.4368 0.6532
vt 0.4368 0.1607
vt 0.518 0.8733
vt 0.6582 0.964
vt 0.6582 0.9113
vt 0.9183 0.6561
vt 0.8801 0.7963
vt 0.9982 0.9645
vt 0.9983 0.6562
vt 0.6513 0.6809
vt 0.6513 0.7181
vt 0.5588 0.718
vt 0.5588 0.6809
vt 0.5632 0.7866
vt 0.5743 0.7754
vt 0.6555 0.7754
vt 0.6555 0.7754
vt 0.6555 0.7866
vt 0.5632 0.7866
vt 0.7984 0.8733
vt 0.915 0.1583
vt 0.9149 0.6576
vt 0.5632 0.7866
vt 0.5743 0.7754
vt 0.5743 0.7445
vt 0.5632 0.7445
vt 0.3157 0.6531
vt 0.3157 0.1538
vt 0.3988 0.1538
vt 0.3988 0.6531
vt 0.3162 0.9651
vt 0.3162 0.6562
vt 0.398 0.6561
vt 0.4339 0.7964
vt 0.6513 0.7181
vt 0.5579 0.718
vt 0.5579 0.6809
vt 0.6513 0.6809
vt 0.5743 0.7445
vt 0.5743 0.7755
vt 0.5632 0.7866
vt 0.5632 0.7445
vt 0.5743 0.7755
vt 0.6564 0.7755
vt 0.6564 0.7866
vt 0.6564 0.7866
vt 0.5632 0.7866
vt 0.5743 0.7755
vt 0.6582 0.9971
vt 0.6582 0.964
vt 0.9982 0.9645
vt 0.9982 0.9645
vt 0.9982 0.9982
vt 0.6582 0.9971
vt 0.4056 0.5165
vt 0.4368 0.5165
vt 0.4368 0.6532
vt 0.4056 0.6532
vt 0.4056 0.4109
vt 0.4368 0.4109
vt 0.4368 0.5165
vt 0.4056 0.5165
vt 0.4056 0.2734
vt 0.4368 0.2734
vt 0.4368 0.4109
vt 0.4056 0.4109
vt 0.6937 0.718
vt 0.6937 0.6809
vt 0.6513 0.6809
vt 0.6513 0.7181
vt 0.4057 0.1607
vt 0.4368 0.1607
vt 0.4368 0.6532
vt 0.4057 0.6532
vt 0.3162 0.9982
vt 0.3162 0.9651
vt 0.6582 0.964
vt 0.6582 0.9971
vt 0.4368 0.6532
vt 0.4058 0.6532
vt 0.4056 0.5171
vt 0.4368 0.5167
vt 0.4368 0.5167
vt 0.4056 0.5171
vt 0.4055 0.4109
vt 0.4055 0.4109
vt 0.4368 0.411
vt 0.4368 0.5167
vt 0.4368 0.411
vt 0.4055 0.4109
vt 0.4058 0.273
vt 0.4058 0.273
vt 0.4368 0.2736
vt 0.4368 0.411
vt 0.6937 0.718
vt 0.6513 0.7181
vt 0.6513 0.6809
vt 0.6937 0.6809
vt 0.4368 0.6532
vt 0.4057 0.6532
vt 0.4057 0.1607
vt 0.4368 0.1607
vt 0.518 0.8733
vt 0.6582 0.9113
vt 0.6582 0.964
vt 0.8801 0.7963
vt 0.9183 0.6561
vt 0.6513 0.7181
vt 0.6513 0.6809
vt 0.6555 0.7754
vt 0.5743 0.7754
vt 0.5632 0.7866
vt 0.5632 0.7866
vt 0.6555 0.7866
vt 0.6555 0.7754
vt 0.7984 0.8733
vt 0.5031 0.8609
vt 0.5011 0.4065
vt 0.5594 0.4019
vt 0.4856 0.3787
vt 0.5013 0.3838
vt 0.5011 0.4065
vt 0.5011 0.4065
vt 0.4426 0.4027
vt 0.4856 0.3787
vt 0.5011 0.4065
vt 0.5594 0.4019
vt 0.5031 0.8609
vt 0.4856 0.3787
vt 0.5013 0.3838
vt 0.5011 0.4065
vt 0.5011 0.4065
vt 0.4426 0.4027
vt 0.4856 0.3787
vt 0.4426 0.4027
vt 0.5011 0.4065
vt 0.5031 0.8609
vt 0.4426 0.4027
vt 0.5011 0.4065
vt 0.5031 0.8609
vt 0.517 0.3786
vt 0.5594 0.4019
vt 0.5011 0.4065
vt 0.5011 0.4065
vt 0.5013 0.3838
vt 0.517 0.3786
vt 0.5013 0.3838
vt 0.517 0.3786
vt 0.5594 0.4019
vt 0.5594 0.4019
vt 0.5011 0.4065
vt 0.5013 0.3838
vt 0.6549 0.4199
vt 0.6379 0.4371
vt 0.6379 0.4288
vt 0.6475 0.4199
vt 0.6549 0.4199
vt 0.6379 0.4371
vt 0.6379 0.4287
vt 0.6474 0.4199
vt 0.6208 0.4199
vt 0.6283 0.4199
vt 0.6208 0.4199
vt 0.6283 0.4199
vt 0.6163 0.4396
vt 0.6405 0.4396
vt 0.6405 0.4752
vt 0.6163 0.4752
vt 0.6163 0.4396
vt 0.6405 0.4396
vt 0.6405 0.4752
vt 0.6163 0.4752
vt 0.6405 0.4396
vt 0.6647 0.4396
vt 0.6647 0.4752
vt 0.6405 0.4752
vt 0.6405 0.4396
vt 0.6647 0.4396
vt 0.6647 0.4752
vt 0.6405 0.4752
vt 0.5031 0.8609
vt 0.5011 0.4065
vt 0.5594 0.4019
vt 0.4856 0.3787
vt 0.5013 0.3838
vt 0.5011 0.4065
vt 0.5011 0.4065
vt 0.4426 0.4027
vt 0.4856 0.3787
vt 0.5011 0.4065
vt 0.5594 0.4019
vt 0.5031 0.8609
vt 0.4856 0.3787
vt 0.5013 0.3838
vt 0.5011 0.4065
vt 0.5011 0.4065
vt 0.4426 0.4027
vt 0.4856 0.3787
vt 0.4426 0.4027
vt 0.5011 0.4065
vt 0.5031 0.8609
vt 0.4426 0.4027
vt 0.5011 0.4065
vt 0.5031 0.8609
vt 0.517 0.3786
vt 0.5594 0.4019
vt 0.5011 0.4065
vt 0.5011 0.4065
vt 0.5013 0.3838
vt 0.517 0.3786
vt 0.5013 0.3838
vt 0.517 0.3786
vt 0.5594 0.4019
vt 0.5594 0.4019
vt 0.5011 0.4065
vt 0.5013 0.3838
vt 0.6549 0.4199
vt 0.6379 0.4371
vt 0.6379 0.4288
vt 0.6475 0.4199
vt 0.6549 0.4199
vt 0.6379 0.4371
vt 0.6379 0.4287
vt 0.6474 0.4199
vt 0.6208 0.4199
vt 0.6283 0.4199
vt 0.6208 0.4199
vt 0.6283 0.4199
vt 0.6163 0.4396
vt 0.6405 0.4396
vt 0.6405 0.4752
vt 0.6163 0.4752
vt 0.6163 0.4396
vt 0.6405 0.4396
vt 0.6405 0.4752
vt 0.6405 0.4752
vt 0.6163 0.4752
vt 0.6163 0.4396
vt 0.6405 0.4396
vt 0.6647 0.4396
vt 0.6647 0.4752
vt 0.6405 0.4752
vt 0.6405 0.4396
vt 0.6647 0.4396
vt 0.6647 0.4752
vt 0.6405 0.4752
vt 0.5031 0.8609
vt 0.5011 0.4065
vt 0.5594 0.4019
vt 0.4856 0.3787
vt 0.5013 0.3838
vt 0.5011 0.4065
vt 0.5011 0.4065
vt 0.4426 0.4027
vt 0.4856 0.3787
vt 0.5011 0.4065
vt 0.5594 0.4019
vt 0.5031 0.8609
vt 0.4856 0.3787
vt 0.5013 0.3838
vt 0.5011 0.4065
vt 0.5011 0.4065
vt 0.4426 0.4027
vt 0.4856 0.3787
vt 0.4426 0.4027
vt 0.5011 0.4065
vt 0.5031 0.8609
vt 0.4426 0.4027
vt 0.5011 0.4065
vt 0.5031 0.8609
vt 0.517 0.3786
vt 0.5594 0.4019
vt 0.5011 0.4065
vt 0.5011 0.4065
vt 0.5013 0.3838
vt 0.517 0.3786
vt 0.5013 0.3838
vt 0.517 0.3786
vt 0.5594 0.4019
vt 0.5594 0.4019
vt 0.5011 0.4065
vt 0.5013 0.3838
vt 0.6549 0.4199
vt 0.6379 0.4371
vt 0.6379 0.4288
vt 0.6379 0.4288
vt 0.6475 0.4199
vt 0.6549 0.4199
vt 0.6549 0.4199
vt 0.6379 0.4371
vt 0.6379 0.4287
vt 0.6379 0.4287
vt 0.6474 0.4199
vt 0.6549 0.4199
vt 0.6379 0.4371
vt 0.6208 0.4199
vt 0.6283 0.4199
vt 0.6283 0.4199
vt 0.6379 0.4371
vt 0.6379 0.4371
vt 0.6208 0.4199
vt 0.6283 0.4199
vt 0.6283 0.4199
vt 0.6379 0.4288
vt 0.6379 0.4371
vt 0.6163 0.4396
vt 0.6405 0.4396
vt 0.6405 0.4752
vt 0.6163 0.4752
vt 0.6163 0.4396
vt 0.6405 0.4396
vt 0.6405 0.4752
vt 0.6163 0.4752
vt 0.6405 0.4396
vt 0.6647 0.4396
vt 0.6647 0.4752
vt 0.6405 0.4752
vt 0.6405 0.4396
vt 0.6647 0.4396
vt 0.6647 0.4752
vt 0.6405 0.4752
vt 0.5031 0.8609
vt 0.5011 0.4065
vt 0.5594 0.4019
vt 0.4856 0.3787
vt 0.5013 0.3838
vt 0.5011 0.4065
vt 0.5011 0.4065
vt 0.4426 0.4027
vt 0.4856 0.3787
vt 0.5011 0.4065
vt 0.5594 0.4019
vt 0.5031 0.8609
vt 0.4856 0.3787
vt 0.5013 0.3838
vt 0.5011 0.4065
vt 0.5011 0.4065
vt 0.4426 0.4027
vt 0.4856 0.3787
vt 0.4426 0.4027
vt 0.5011 0.4065
vt 0.5031 0.8609
vt 0.4426 0.4027
vt 0.5011 0.4065
vt 0.5031 0.8609
vt 0.517 0.3786
vt 0.5594 0.4019
vt 0.5011 0.4065
vt 0.5011 0.4065
vt 0.5013 0.3838
vt 0.517 0.3786
vt 0.5013 0.3838
vt 0.517 0.3786
vt 0.5594 0.4019
vt 0.5594 0.4019
vt 0.5011 0.4065
vt 0.5013 0.3838
vt 0.6549 0.4199
vt 0.6379 0.4371
vt 0.6379 0.4288
vt 0.6379 0.4288
vt 0.6475 0.4199
vt 0.6549 0.4199
vt 0.6549 0.4199
vt 0.6379 0.4371
vt 0.6379 0.4287
vt 0.6379 0.4287
vt 0.6474 0.4199
vt 0.6549 0.4199
vt 0.6379 0.4371
vt 0.6208 0.4199
vt 0.6283 0.4199
vt 0.6283 0.4199
vt 0.6379 0.4287
vt 0.6379 0.4371
vt 0.6379 0.4371
vt 0.6208 0.4199
vt 0.6283 0.4199
vt 0.6283 0.4199
vt 0.6163 0.4396
vt 0.6405 0.4396
vt 0.6405 0.4752
vt 0.6163 0.4752
vt 0.6163 0.4396
vt 0.6405 0.4396
vt 0.6405 0.4752
vt 0.6163 0.4752
vt 0.6405 0.4396
vt 0.6647 0.4396
vt 0.6647 0.4752
vt 0.6405 0.4752
vt 0.6405 0.4396
vt 0.6647 0.4396
vt 0.6647 0.4752
vt 0.6405 0.4752
vt 0.5031 0.8609
vt 0.5011 0.4065
vt 0.5594 0.4019
vt 0.4856 0.3787
vt 0.5013 0.3838
vt 0.5011 0.4065
vt 0.5011 0.4065
vt 0.4426 0.4027
vt 0.4856 0.3787
vt 0.5011 0.4065
vt 0.5594 0.4019
vt 0.5031 0.8609
vt 0.4856 0.3787
vt 0.5013 0.3838
vt 0.5011 0.4065
vt 0.5011 0.4065
vt 0.4426 0.4027
vt 0.4856 0.3787
vt 0.4426 0.4027
vt 0.5011 0.4065
vt 0.5031 0.8609
vt 0.4426 0.4027
vt 0.5011 0.4065
vt 0.5031 0.8609
vt 0.517 0.3786
vt 0.5594 0.4019
vt 0.5011 0.4065
vt 0.5011 0.4065
vt 0.5013 0.3838
vt 0.517 0.3786
vt 0.5013 0.3838
vt 0.517 0.3786
vt 0.5594 0.4019
vt 0.5594 0.4019
vt 0.5011 0.4065
vt 0.5013 0.3838
vt 0.6549 0.4199
vt 0.6379 0.4371
vt 0.6379 0.4288
vt 0.6475 0.4199
vt 0.6549 0.4199
vt 0.6379 0.4371
vt 0.6379 0.4287
vt 0.6474 0.4199
vt 0.6208 0.4199
vt 0.6283 0.4199
vt 0.6208 0.4199
vt 0.6283 0.4199
vt 0.6163 0.4396
vt 0.6405 0.4396
vt 0.6405 0.4752
vt 0.6163 0.4752
vt 0.6163 0.4396
vt 0.6405 0.4396
vt 0.6405 0.4752
vt 0.6163 0.4752
vt 0.6405 0.4396
vt 0.6647 0.4396
vt 0.6647 0.4752
vt 0.6405 0.4752
vt 0.6405 0.4396
vt 0.6647 0.4396
vt 0.6647 0.4752
vt 0.6405 0.4752
vt 0.5031 0.8609
vt 0.5011 0.4065
vt 0.5594 0.4019
vt 0.4856 0.3787
vt 0.5013 0.3838
vt 0.5011 0.4065
vt 0.5011 0.4065
vt 0.4426 0.4027
vt 0.4856 0.3787
vt 0.5011 0.4065
vt 0.5594 0.4019
vt 0.5031 0.8609
vt 0.4856 0.3787
vt 0.5013 0.3838
vt 0.5011 0.4065
vt 0.5011 0.4065
vt 0.4426 0.4027
vt 0.4856 0.3787
vt 0.4426 0.4027
vt 0.5011 0.4065
vt 0.5031 0.8609
vt 0.4426 0.4027
vt 0.5011 0.4065
vt 0.5031 0.8609
vt 0.517 0.3786
vt 0.5594 0.4019
vt 0.5011 0.4065
vt 0.5011 0.4065
vt 0.5013 0.3838
vt 0.517 0.3786
vt 0.5013 0.3838
vt 0.517 0.3786
vt 0.5594 0.4019
vt 0.5594 0.4019
vt 0.5011 0.4065
vt 0.5013 0.3838
vt 0.6549 0.4199
vt 0.6379 0.4371
vt 0.6379 0.4288
vt 0.6475 0.4199
vt 0.6549 0.4199
vt 0.6379 0.4371
vt 0.6379 0.4287
vt 0.6474 0.4199
vt 0.6379 0.4371
vt 0.6208 0.4199
vt 0.6283 0.4199
vt 0.6283 0.4199
vt 0.6379 0.4287
vt 0.6379 0.4371
vt 0.6379 0.4371
vt 0.6208 0.4199
vt 0.6283 0.4199
vt 0.6283 0.4199
vt 0.6379 0.4288
vt 0.6379 0.4371
vt 0.6163 0.4396
vt 0.6405 0.4396
vt 0.6405 0.4752
vt 0.6163 0.4752
vt 0.6163 0.4396
vt 0.6405 0.4396
vt 0.6405 0.4752
vt 0.6163 0.4752
vt 0.6405 0.4396
vt 0.6647 0.4396
vt 0.6647 0.4752
vt 0.6405 0.4752
vt 0.6405 0.4396
vt 0.6647 0.4396
vt 0.6647 0.4752
vt 0.6647 0.4752
vt 0.6405 0.4752
vt 0.6405 0.4396
vt 0.8461 0.3386
vt 0.8461 0.2816
vt 0.9032 0.2816
vt 0.9031 0.3386
vt 0.9032 0.2816
vt 0.8461 0.2816
vt 0.8461 0.1287
vt 0.9032 0.1287
vt 0.9032 0.2816
vt 0.8461 0.2816
vt 0.8461 0.1287
vt 0.9032 0.1287
vt 0.9032 0.2816
vt 0.8461 0.2816
vt 0.8461 0.1287
vt 0.9032 0.1287
vt 0.9032 0.2816
vt 0.8461 0.2816
vt 0.8461 0.1287
vt 0.9032 0.1287
vt 0.8461 0.3386
vt 0.8461 0.2816
vt 0.9032 0.2816
vt 0.9031 0.3386
vt 0.9032 0.2816
vt 0.8461 0.2816
vt 0.8461 0.1287
vt 0.9032 0.1287
vt 0.9032 0.2816
vt 0.8461 0.2816
vt 0.8461 0.1287
vt 0.9032 0.1287
vt 0.9032 0.2816
vt 0.8461 0.2816
vt 0.8461 0.1287
vt 0.9032 0.1287
vt 0.9032 0.2816
vt 0.8461 0.2816
vt 0.8461 0.1287
vt 0.9032 0.1287
vt 0.8461 0.3386
vt 0.8461 0.2816
vt 0.9032 0.2816
vt 0.9031 0.3386
vt 0.9032 0.2816
vt 0.8461 0.2816
vt 0.8461 0.1287
vt 0.9032 0.1287
vt 0.9032 0.2816
vt 0.8461 0.2816
vt 0.8461 0.1287
vt 0.9032 0.1287
vt 0.9032 0.2816
vt 0.8461 0.2816
vt 0.8461 0.1287
vt 0.9032 0.1287
vt 0.9032 0.2816
vt 0.8461 0.2816
vt 0.8461 0.1287
vt 0.9032 0.1287
vt 0.8461 0.3386
vt 0.8461 0.2816
vt 0.9032 0.2816
vt 0.9031 0.3386
vt 0.9032 0.2816
vt 0.8461 0.2816
vt 0.8461 0.1287
vt 0.9032 0.1287
vt 0.9032 0.2816
vt 0.8461 0.2816
vt 0.8461 0.1287
vt 0.9032 0.1287
vt 0.9032 0.2816
vt 0.8461 0.2816
vt 0.8461 0.1287
vt 0.9032 0.1287
vt 0.9032 0.2816
vt 0.8461 0.2816
vt 0.8461 0.1287
vt 0.9032 0.1287
vt 0.8461 0.3386
vt 0.8461 0.2816
vt 0.9032 0.2816
vt 0.9031 0.3386
vt 0.9032 0.2816
vt 0.8461 0.2816
vt 0.8461 0.1287
vt 0.9032 0.1287
vt 0.9032 0.2816
vt 0.8461 0.2816
vt 0.8461 0.1287
vt 0.9032 0.1287
vt 0.9032 0.2816
vt 0.8461 0.2816
vt 0.8461 0.1287
vt 0.9032 0.1287
vt 0.9032 0.2816
vt 0.8461 0.2816
vt 0.8461 0.1287
vt 0.9032 0.1287
vt 0.8461 0.3386
vt 0.8461 0.2816
vt 0.9032 0.2816
vt 0.9031 0.3386
vt 0.9032 0.2816
vt 0.8461 0.2816
vt 0.8461 0.1287
vt 0.9032 0.1287
vt 0.9032 0.2816
vt 0.8461 0.2816
vt 0.8461 0.1287
vt 0.9032 0.1287
vt 0.9032 0.2816
vt 0.8461 0.2816
vt 0.8461 0.1287
vt 0.9032 0.1287
vt 0.9032 0.2816
vt 0.8461 0.2816
vt 0.8461 0.1287
vt 0.9032 0.1287
vt 0.8461 0.3386
vt 0.8461 0.2816
vt 0.9032 0.2816
vt 0.9031 0.3386
vt 0.9032 0.2816
vt 0.8461 0.2816
vt 0.8461 0.1287
vt 0.9032 0.1287
vt 0.9032 0.2816
vt 0.8461 0.2816
vt 0.8461 0.1287
vt 0.9032 0.1287
vt 0.9032 0.2816
vt 0.8461 0.2816
vt 0.8461 0.1287
vt 0.9032 0.1287
vt 0.9032 0.2816
vt 0.8461 0.2816
vt 0.8461 0.1287
vt 0.9032 0.1287
vt 0.8461 0.3386
vt 0.8461 0.2816
vt 0.9032 0.2816
vt 0.9031 0.3386
vt 0.9032 0.2816
vt 0.8461 0.2816
vt 0.8461 0.1287
vt 0.9032 0.1287
vt 0.9032 0.2816
vt 0.8461 0.2816
vt 0.8461 0.1287
vt 0.9032 0.1287
vt 0.9032 0.2816
vt 0.8461 0.2816
vt 0.8461 0.1287
vt 0.9032 0.1287
vt 0.9032 0.2816
vt 0.8461 0.2816
vt 0.8461 0.1287
vt 0.9032 0.1287
f 37/37/37 39/39/39 38/38/38
f 39/39/39 37/37/37 40/40/40
f 41/41/41 43/43/43 42/42/42
f 43/43/43 41/41/41 44/44/44
f 45/45/45 47/47/47 46/46/46
f 47/47/47 45/45/45 48/48/48
f 49/49/49 51/51/51 50/50/50
f 51/51/51 49/49/49 52/52/52
f 53/53/53 55/55/55 54/54/54
f 55/55/55 53/53/53 56/56/56
f 57/57/57 59/59/59 58/58/58
f 59/59/59 57/57/57 60/60/60
f 61/61/61 63/63/63 62/62/62
f 64/64/64 66/66/66 65/65/65
f 67/67/67 69/69/69 68/68/68
f 70/70/70 72/72/72 71/71/71
f 73/73/73 75/75/75 74/74/74
f 75/75/75 73/73/73 76/76/76
f 77/77/77 79/79/79 78/78/78
f 79/79/79 77/77/77 80/80/80
f 81/81/81 83/83/83 82/82/82
f 83/83/83 81/81/81 84/84/84
f 85/85/85 87/87/87 86/86/86
f 87/87/87 85/85/85 88/88/88
f 89/89/89 91/91/91 90/90/90
f 91/91/91 89/89/89 92/92/92
f 93/93/93 95/95/95 94/94/94
f 95/95/95 93/93/93 96/96/96
f 97/97/97 99/99/99 98/98/98
f 99/99/99 97/97/97 100/100/100
f 101/101/101 103/103/103 102/102/102
f 104/104/104 106/106/106 105/105/105
f 107/107/107 109/109/109 108/108/108
f 110/110/110 112/112/112 111/111/111
f 113/113/113 115/115/115 114/114/114
f 115/115/115 113/113/113 116/116/116
f 117/117/117 119/119/119 118/118/118
f 119/119/119 117/117/117 120/120/120
f 49/49/49 50/50/50 121/121/121
f 50/50/50 122/122/122 121/121/121
f 122/122/122 50/50/50 123/123/123
f 124/124/124 126/126/126 125/125/125
f 126/126/126 124/124/124 127/127/127
f 128/128/128 130/130/130 129/129/129
f 130/130/130 128/128/128 131/131/131
f 132/132/132 134/134/134 133/133/133
f 135/135/135 137/137/137 136/136/136
f 138/138/138 123/123/123 125/125/125
f 123/123/123 138/138/138 122/122/122
f 126/126/126 138/138/138 125/125/125
f 139/139/139 39/39/39 40/40/40
f 39/39/39 139/139/139 140/140/140
f 141/141/141 143/143/143 142/142/142
f 143/143/143 141/141/141 144/144/144
f 145/145/145 147/147/147 146/146/146
f 147/147/147 145/145/145 148/148/148
f 149/149/149 151/151/151 150/150/150
f 151/151/151 149/149/149 152/152/152
f 153/153/153 155/155/155 154/154/154
f 155/155/155 153/153/153 156/156/156
f 157/157/157 159/159/159 158/158/158
f 159/159/159 157/157/157 160/160/160
f 161/161/161 163/163/163 162/162/162
f 164/164/164 166/166/166 165/165/165
f 167/167/167 169/169/169 168/168/168
f 170/170/170 172/172/172 171/171/171
f 173/173/173 175/175/175 174/174/174
f 175/175/175 173/173/173 176/176/176
f 177/177/177 179/179/179 178/178/178
f 179/179/179 177/177/177 180/180/180
f 181/181/181 183/183/183 182/182/182
f 183/183/183 181/181/181 184/184/184
f 185/185/185 187/187/187 186/186/186
f 187/187/187 185/185/185 188/188/188
f 189/189/189 191/191/191 190/190/190
f 191/191/191 189/189/189 192/192/192
f 193/193/193 195/195/195 194/194/194
f 195/195/195 193/193/193 196/196/196
f 197/197/197 199/199/199 198/198/198
f 199/199/199 197/197/197 200/200/200
f 201/201/201 203/203/203 202/202/202
f 204/204/204 206/206/206 205/205/205
f 207/207/207 209/209/209 208/208/208
f 210/210/210 212/212/212 211/211/211
f 213/213/213 215/215/215 214/214/214
f 215/215/215 213/213/213 216/216/216
f 217/217/217 219/219/219 218/218/218
f 219/219/219 217/217/217 220/220/220
f 149/149/149 221/221/221 152/152/152
f 152/152/152 223/223/223 222/222/222
f 223/223/223 152/152/152 221/221/221
f 124/124/124 225/225/225 224/224/224
f 225/225/225 124/124/124 125/125/125
f 128/128/128 227/227/227 226/226/226
f 227/227/227 128/128/128 129/129/129
f 228/228/228 230/230/230 229/229/229
f 231/231/231 233/233/233 232/232/232
f 222/222/222 234/234/234 125/125/125
f 234/234/234 222/222/222 223/223/223
f 225/225/225 125/125/125 234/234/234
f 235/235/235 237/237/237 236/236/236
f 237/237/237 235/235/235 238/238/238
f 239/239/239 241/241/241 240/240/240
f 241/241/241 239/239/239 242/242/242
f 243/243/243 245/245/245 244/244/244
f 245/245/245 243/243/243 246/246/246
f 247/247/247 249/249/249 248/248/248
f 249/249/249 247/247/247 250/250/250
f 251/251/251 253/253/253 252/252/252
f 253/253/253 251/251/251 254/254/254
f 255/255/255 257/257/257 256/256/256
f 257/257/257 255/255/255 258/258/258
f 259/259/259 261/261/261 260/260/260
f 262/262/262 264/264/264 263/263/263
f 265/265/265 267/267/267 266/266/266
f 268/268/268 270/270/270 269/269/269
f 271/271/271 273/273/273 272/272/272
f 273/273/273 271/271/271 274/274/274
f 275/275/275 277/277/277 276/276/276
f 277/277/277 275/275/275 278/278/278
f 279/279/279 281/281/281 280/280/280
f 281/281/281 279/279/279 282/282/282
f 283/283/283 285/285/285 284/284/284
f 285/285/285 283/283/283 286/286/286
f 287/287/287 289/289/289 288/288/288
f 289/289/289 287/287/287 290/290/290
f 291/291/291 293/293/293 292/292/292
f 293/293/293 291/291/291 294/294/294
f 295/295/295 297/297/297 296/296/296
f 297/297/297 295/295/295 298/298/298
f 299/299/299 301/301/301 300/300/300
f 302/302/302 304/304/304 303/303/303
f 305/305/305 307/307/307 306/306/306
f 308/308/308 310/310/310 309/309/309
f 311/311/311 313/313/313 312/312/312
f 313/313/313 311/311/311 314/314/314
f 315/315/315 317/317/317 316/316/316
f 317/317/317 315/315/315 318/318/318
f 249/249/249 250/250/250 319/319/319
f 320/320/320 319/319/319 321/321/321
f 319/319/319 320/320/320 249/249/249
f 322/322/322 324/324/324 323/323/323
f 324/324/324 322/322/322 325/325/325
f 326/326/326 328/328/328 327/327/327
f 328/328/328 326/326/326 329/329/329
f 330/330/330 332/332/332 331/331/331
f 333/333/333 335/335/335 334/334/334
f 321/321/321 324/324/324 320/320/320
f 324/324/324 321/321/321 336/336/336
f 336/336/336 323/323/323 324/324/324
f 337/337/337 235/235/235 236/236/236
f 235/235/235 337/337/337 338/338/338
f 339/339/339 341/341/341 340/340/340
f 341/341/341 339/339/339 342/342/342
f 343/343/343 345/345/345 344/344/344
f 345/345/345 343/343/343 346/346/346
f 347/347/347 349/349/349 348/348/348
f 349/349/349 347/347/347 350/350/350
f 351/351/351 353/353/353 352/352/352
f 353/353/353 351/351/351 354/354/354
f 355/355/355 357/357/357 356/356/356
f 357/357/357 355/355/355 358/358/358
f 359/359/359 361/361/361 360/360/360
f 362/362/362 364/364/364 363/363/363
f 365/365/365 367/367/367 366/366/366
f 368/368/368 370/370/370 369/369/369
f 371/371/371 373/373/373 372/372/372
f 373/373/373 371/371/371 374/374/374
f 375/375/375 377/377/377 376/376/376
f 377/377/377 375/375/375 378/378/378
f 379/379/379 381/381/381 380/380/380
f 381/381/381 379/379/379 382/382/382
f 383/383/383 385/385/385 384/384/384
f 385/385/385 383/383/383 386/386/386
f 387/387/387 389/389/389 388/388/388
f 389/389/389 387/387/387 390/390/390
f 391/391/391 393/393/393 392/392/392
f 393/393/393 391/391/391 394/394/394
f 395/395/395 397/397/397 396/396/396
f 397/397/397 395/395/395 398/398/398
f 399/399/399 401/401/401 400/400/400
f 402/402/402 404/404/404 403/403/403
f 405/405/405 407/407/407 406/406/406
f 408/408/408 410/410/410 409/409/409
f 411/411/411 413/413/413 412/412/412
f 413/413/413 411/411/411 414/414/414
f 415/415/415 417/417/417 416/416/416
f 417/417/417 415/415/415 418/418/418
f 419/419/419 350/350/350 347/347/347
f 419/419/419 421/421/421 420/420/420
f 421/421/421 419/419/419 347/347/347
f 324/324/324 423/423/423 422/422/422
f 423/423/423 324/324/324 325/325/325
f 328/328/328 425/425/425 424/424/424
f 425/425/425 328/328/328 329/329/329
f 426/426/426 428/428/428 427/427/427
f 429/429/429 431/431/431 430/430/430
f 420/420/420 324/324/324 432/432/432
f 324/324/324 420/420/420 421/421/421
f 324/324/324 422/422/422 432/432/432
f 433/433/433 435/435/435 434/434/434
f 436/436/436 438/438/438 437/437/437
f 439/439/439 441/441/441 440/440/440
f 442/442/442 444/444/444 443/443/443
f 445/445/445 447/447/447 446/446/446
f 448/448/448 450/450/450 449/449/449
f 451/451/451 453/453/453 452/452/452
f 454/454/454 456/456/456 455/455/455
f 457/457/457 459/459/459 458/458/458
f 460/460/460 462/462/462 461/461/461
f 463/463/463 465/465/465 464/464/464
f 466/466/466 468/468/468 467/467/467
f 469/469/469 471/471/471 470/470/470
f 471/471/471 469/469/469 472/472/472
f 473/473/473 475/475/475 474/474/474
f 475/475/475 473/473/473 476/476/476
f 474/474/474 478/478/478 477/477/477
f 478/478/478 474/474/474 475/475/475
f 470/470/470 480/480/480 479/479/479
f 480/480/480 470/470/470 471/471/471
f 481/481/481 483/483/483 482/482/482
f 483/483/483 481/481/481 484/484/484
f 485/485/485 487/487/487 486/486/486
f 487/487/487 485/485/485 488/488/488
f 489/489/489 491/491/491 490/490/490
f 491/491/491 489/489/489 492/492/492
f 493/493/493 495/495/495 494/494/494
f 495/495/495 493/493/493 496/496/496
f 497/497/497 499/499/499 498/498/498
f 500/500/500 502/502/502 501/501/501
f 503/503/503 505/505/505 504/504/504
f 506/506/506 508/508/508 507/507/507
f 509/509/509 511/511/511 510/510/510
f 512/512/512 514/514/514 513/513/513
f 515/515/515 517/517/517 516/516/516
f 518/518/518 520/520/520 519/519/519
f 521/521/521 523/523/523 522/522/522
f 524/524/524 526/526/526 525/525/525
f 527/527/527 529/529/529 528/528/528
f 530/530/530 532/532/532 531/531/531
f 533/533/533 535/535/535 534/534/534
f 535/535/535 533/533/533 536/536/536
f 537/537/537 539/539/539 538/538/538
f 539/539/539 537/537/537 540/540/540
f 538/538/538 542/542/542 541/541/541
f 542/542/542 538/538/538 539/539/539
f 534/534/534 544/544/544 543/543/543
f 544/544/544 534/534/534 535/535/535
f 545/545/545 547/547/547 546/546/546
f 547/547/547 545/545/545 548/548/548
f 549/549/549 551/551/551 550/550/550
f 552/552/552 554/554/554 553/553/553
f 555/555/555 557/557/557 556/556/556
f 557/557/557 555/555/555 558/558/558
f 559/559/559 561/561/561 560/560/560
f 561/561/561 559/559/559 562/562/562
f 563/563/563 565/565/565 564/564/564
f 566/566/566 568/568/568 567/567/567
f 569/569/569 571/571/571 570/570/570
f 572/572/572 574/574/574 573/573/573
f 575/575/575 577/577/577 576/576/576
f 578/578/578 580/580/580 579/579/579
f 581/581/581 583/583/583 582/582/582
f 584/584/584 586/586/586 585/585/585
f 587/587/587 589/589/589 588/588/588
f 590/590/590 592/592/592 591/591/591
f 593/593/593 595/595/595 594/594/594
f 596/596/596 598/598/598 597/597/597
f 599/599/599 601/601/601 600/600/600
f 602/602/602 604/604/604 603/603/603
f 605/605/605 607/607/607 606/606/606
f 608/608/608 610/610/610 609/609/609
f 611/611/611 613/613/613 612/612/612
f 614/614/614 615/615/615 608/608/608
f 616/616/616 618/618/618 617/617/617
f 619/619/619 621/621/621 620/620/620
f 622/622/622 624/624/624 623/623/623
f 624/624/624 622/622/622 625/625/625
f 626/626/626 628/628/628 627/627/627
f 628/628/628 626/626/626 629/629/629
f 630/630/630 632/632/632 631/631/631
f 632/632/632 630/630/630 633/633/633
f 634/634/634 636/636/636 635/635/635
f 636/636/636 634/634/634 637/637/637
f 638/638/638 640/640/640 639/639/639
f 641/641/641 643/643/643 642/642/642
f 644/644/644 646/646/646 645/645/645
f 647/647/647 649/649/649 648/648/648
f 650/650/650 652/652/652 651/651/651
f 653/653/653 655/655/655 654/654/654
f 656/656/656 658/658/658 657/657/657
f 659/659/659 661/661/661 660/660/660
f 662/662/662 664/664/664 663/663/663
f 665/665/665 667/667/667 666/666/666
f 668/668/668 670/670/670 669/669/669
f 671/671/671 673/673/673 672/672/672
f 674/674/674 676/676/676 675/675/675
f 677/677/677 679/679/679 678/678/678
f 680/680/680 682/682/682 681/681/681
f 683/683/683 685/685/685 684/684/684
f 686/686/686 688/688/688 687/687/687
f 689/689/689 691/691/691 690/690/690
f 692/692/692 694/694/694 693/693/693
f 695/695/695 675/675/675 676/676/676
f 696/696/696 698/698/698 697/697/697
f 698/698/698 696/696/696 699/699/699
f 700/700/700 702/702/702 701/701/701
f 702/702/702 700/700/700 703/703/703
f 704/704/704 706/706/706 705/705/705
f 706/706/706 704/704/704 707/707/707
f 708/708/708 710/710/710 709/709/709
f 710/710/710 708/708/708 711/711/711
f 712/712/712 714/714/714 713/713/713
f 715/715/715 717/717/717 716/716/716
f 718/718/718 720/720/720 719/719/719
f 721/721/721 723/723/723 722/722/722
f 724/724/724 726/726/726 725/725/725
f 727/727/727 729/729/729 728/728/728
f 730/730/730 732/732/732 731/731/731
f 733/733/733 735/735/735 734/734/734
f 736/736/736 738/738/738 737/737/737
f 739/739/739 741/741/741 740/740/740
f 742/742/742 744/744/744 743/743/743
f 745/745/745 747/747/747 746/746/746
f 748/748/748 750/750/750 749/749/749
f 750/750/750 748/748/748 751/751/751
f 752/752/752 754/754/754 753/753/753
f 754/754/754 752/752/752 755/755/755
f 753/753/753 757/757/757 756/756/756
f 757/757/757 753/753/753 754/754/754
f 749/749/749 759/759/759 758/758/758
f 759/759/759 749/749/749 750/750/750
f 760/760/760 762/762/762 761/761/761
f 762/762/762 760/760/760 763/763/763
f 764/764/764 766/766/766 765/765/765
f 766/766/766 764/764/764 767/767/767
f 768/768/768 770/770/770 769/769/769
f 770/770/770 768/768/768 771/771/771
f 772/772/772 774/774/774 773/773/773
f 774/774/774 772/772/772 775/775/775
f 776/776/776 778/778/778 777/777/777
f 779/779/779 781/781/781 780/780/780
f 782/782/782 784/784/784 783/783/783
f 785/785/785 787/787/787 786/786/786
f 788/788/788 790/790/790 789/789/789
f 791/791/791 793/793/793 792/792/792
f 794/794/794 796/796/796 795/795/795
f 797/797/797 799/799/799 798/798/798
f 800/800/800 802/802/802 801/801/801
f 803/803/803 805/805/805 804/804/804
f 806/806/806 808/808/808 807/807/807
f 809/809/809 811/811/811 810/810/810
f 812/812/812 814/814/814 813/813/813
f 814/814/814 812/812/812 815/815/815
f 816/816/816 818/818/818 817/817/817
f 818/818/818 816/816/816 819/819/819
f 820/820/820 822/822/822 821/821/821
f 823/823/823 825/825/825 824/824/824
f 826/826/826 828/828/828 827/827/827
f 829/829/829 831/831/831 830/830/830
f 832/832/832 834/834/834 833/833/833
f 834/834/834 832/832/832 835/835/835
f 836/836/836 838/838/838 837/837/837
f 838/838/838 836/836/836 839/839/839
f 840/840/840 842/842/842 841/841/841
f 842/842/842 840/840/840 843/843/843
f 844/844/844 846/846/846 845/845/845
f 847/847/847 849/849/849 848/848/848
f 850/850/850 852/852/852 851/851/851
f 852/852/852 850/850/850 853/853/853
f 854/854/854 856/856/856 855/855/855
f 856/856/856 854/854/854 857/857/857
f 858/858/858 860/860/860 859/859/859
f 860/860/860 858/858/858 861/861/861
f 862/862/862 864/864/864 863/863/863
f 864/864/864 862/862/862 865/865/865
f 866/866/866 868/868/868 867/867/867
f 868/868/868 866/866/866 869/869/869
f 870/870/870 872/872/872 871/871/871
f 872/872/872 870/870/870 873/873/873
f 874/874/874 876/876/876 875/875/875
f 876/876/876 874/874/874 877/877/877
f 878/878/878 880/880/880 879/879/879
f 880/880/880 878/878/878 881/881/881
f 882/882/882 884/884/884 883/883/883
f 884/884/884 882/882/882 885/885/885
f 886/886/886 888/888/888 887/887/887
f 888/888/888 886/886/886 889/889/889
f 890/890/890 892/892/892 891/891/891
f 892/892/892 890/890/890 893/893/893
f 894/894/894 896/896/896 895/895/895
f 896/896/896 894/894/894 897/897/897
f 898/898/898 900/900/900 899/899/899
f 900/900/900 898/898/898 901/901/901
f 902/902/902 904/904/904 903/903/903
f 904/904/904 902/902/902 905/905/905
f 906/906/906 908/908/908 907/907/907
f 908/908/908 906/906/906 909/909/909
f 910/910/910 912/912/912 911/911/911
f 912/912/912 910/910/910 913/913/913
f 914/914/914 916/916/916 915/915/915
f 916/916/916 914/914/914 917/917/917
f 918/918/918 920/920/920 919/919/919
f 920/920/920 918/918/918 921/921/921
f 922/922/922 924/924/924 923/923/923
f 924/924/924 922/922/922 925/925/925
f 926/926/926 928/928/928 927/927/927
f 928/928/928 926/926/926 929/929/929
f 930/930/930 932/932/932 931/931/931
f 932/932/932 930/930/930 933/933/933
f 934/934/934 936/936/936 935/935/935
f 936/936/936 934/934/934 937/937/937
f 938/938/938 940/940/940 939/939/939
f 940/940/940 938/938/938 941/941/941
f 942/942/942 944/944/944 943/943/943
f 944/944/944 942/942/942 945/945/945
f 946/946/946 948/948/948 947/947/947
f 948/948/948 946/946/946 949/949/949
f 950/950/950 952/952/952 951/951/951
f 952/952/952 950/950/950 953/953/953
f 954/954/954 956/956/956 955/955/955
f 956/956/956 954/954/954 957/957/957
f 958/958/958 960/960/960 959/959/959
f 960/960/960 958/958/958 961/961/961
f 962/962/962 964/964/964 963/963/963
f 964/964/964 962/962/962 965/965/965
f 966/966/966 968/968/968 967/967/967
f 968/968/968 966/966/966 969/969/969
f 970/970/970 972/972/972 971/971/971
f 972/972/972 970/970/970 973/973/973
f 974/974/974 976/976/976 975/975/975
f 976/976/976 974/974/974 977/977/977
f 978/978/978 980/980/980 979/979/979
f 980/980/980 978/978/978 981/981/981
f 982/982/982 984/984/984 983/983/983
f 984/984/984 982/982/982 985/985/985
f 986/986/986 988/988/988 987/987/987
f 988/988/988 986/986/986 989/989/989
f 990/990/990 992/992/992 991/991/991
f 992/992/992 990/990/990 993/993/993
f 994/994/994 996/996/996 995/995/995
f 996/996/996 994/994/994 997/997/997
f 998/998/998 1000/1000/1000 999/999/999
f 1000/1000/1000 998/998/998 1001/1001/1001
f 1002/1002/1002 1004/1004/1004 1003/1003/1003
f 1004/1004/1004 1002/1002/1002 1005/1005/1005
f 1006/1006/1006 1008/1008/1008 1007/1007/1007
f 1008/1008/1008 1006/1006/1006 1009/1009/1009

g so_jgwall03
# texture: so_jgwall03.jpg
v -72.6394 416.257 20.0447
v 72.658 416.257 20.0447
v 72.658 416.257 -15.8294
v -72.6394 416.257 -15.8294
v 212.1338 471.6118 20.0447
v 212.1338 471.6118 -15.8294
v -212.1153 471.6118 -15.8294
v -212.1153 471.6118 20.0447
v -72.6394 392.0032 28.4007
v 72.658 392.0032 28.4007
v 72.658 416.257 20.0447
v -72.6394 416.257 20.0447
v 72.658 392.0032 -24.1854
v -72.6394 392.0032 -24.1854
v -72.6394 416.257 -15.8294
v 72.658 416.257 -15.8294
v 72.658 392.0032 28.4007
v 212.1338 447.3582 28.4007
v 212.1338 471.6118 20.0447
v 72.658 416.257 20.0447
v 212.1338 447.3582 -24.1854
v 72.658 392.0032 -24.1854
v 72.658 416.257 -15.8294
v 212.1338 471.6118 -15.8294
v -212.1153 447.3582 28.4007
v -72.6394 392.0032 28.4007
v -72.6394 416.257 20.0447
v -212.1153 471.6118 20.0447
v -72.6394 392.0032 -24.1854
v -212.1153 447.3582 -24.1854
v -212.1153 471.6118 -15.8294
v -72.6394 416.257 -15.8294
vn 0.187801 0.982207 -0
vn -0.187801 0.982207 -0
vn -0.187801 0.982207 -0
vn 0.187801 0.982207 -0
vn -0.368889 0.929473 -0
vn -0.368889 0.929473 -0
vn 0.368889 0.929473 -0
vn 0.368889 0.929473 -0
vn 0 0.325692 0.945476
vn 0 0.325692 0.945476
vn 0 0.325692 0.945476
vn 0 0.325692 0.945476
vn 0 0.325692 -0.945476
vn 0 0.325692 -0.945476
vn 0 0.325692 -0.945476
vn 0 0.325692 -0.945476
vn -0.128197 0.322993 0.937679
vn -0.128197 0.322993 0.937679
vn -0.128197 0.322993 0.937679
vn -0.128197 0.322993 0.937679
vn -0.128197 0.322993 -0.937679
vn -0.128197 0.322993 -0.937679
vn -0.128197 0.322993 -0.937679
vn -0.128197 0.322993 -0.937679
vn 0.128197 0.322993 0.937679
vn 0.128197 0.322993 0.937679
vn 0.128197 0.322993 0.937679
vn 0.128197 0.322993 0.937679
vn 0.128197 0.322993 -0.937679
vn 0.128197 0.322993 -0.937679
vn 0.128197 0.322993 -0.937679
vn 0.128197 0.322993 -0.937679
vt 0.2608 0.3315
vt 0.2608 0.6679
vt 0.1777 0.6679
vt 0.1777 0.3315
vt 0.2608 0.9908
vt 0.1777 0.9908
vt 0.1777 0.0086
vt 0.2608 0.0086
vt 0.1621 0.3315
vt 0.1621 0.6679
vt 0.1125 0.6679
vt 0.1125 0.3315
vt 0.1621 0.3315
vt 0.1621 0.6679
vt 0.1125 0.6679
vt 0.1125 0.3315
vt 0.1621 0.6679
vt 0.0606 0.9908
vt 0.011 0.9908
vt 0.1125 0.6679
vt 0.0606 0.0086
vt 0.1621 0.3315
vt 0.1125 0.3315
vt 0.011 0.0086
vt 0.0606 0.0086
vt 0.1621 0.3315
vt 0.1125 0.3315
vt 0.011 0.0086
vt 0.1621 0.6679
vt 0.0606 0.9908
vt 0.011 0.9908
vt 0.1125 0.6679
f 1010/1010/1010 1012/1012/1012 1011/1011/1011
f 1012/1012/1012 1010/1010/1010 1013/1013/1013
f 1011/1011/1011 1015/1015/1015 1014/1014/1014
f 1015/1015/1015 1011/1011/1011 1012/1012/1012
f 1010/1010/1010 1016/1016/1016 1013/1013/1013
f 1016/1016/1016 1010/1010/1010 1017/1017/1017
f 1018/1018/1018 1020/1020/1020 1019/1019/1019
f 1020/1020/1020 1018/1018/1018 1021/1021/1021
f 1022/1022/1022 1024/1024/1024 1023/1023/1023
f 1024/1024/1024 1022/1022/1022 1025/1025/1025
f 1026/1026/1026 1028/1028/1028 1027/1027/1027
f 1028/1028/1028 1026/1026/1026 1029/1029/1029
f 1030/1030/1030 1032/1032/1032 1031/1031/1031
f 1032/1032/1032 1030/1030/1030 1033/1033/1033
f 1034/1034/1034 1036/1036/1036 1035/1035/1035
f 1036/1036/1036 1034/1034/1034 1037/1037/1037
f 1038/1038/1038 1040/1040/1040 1039/1039/1039
f 1040/1040/1040 1038/1038/1038 1041/1041/1041
