# Object19.bmd — MU geometry at action 0 key 0, exported for MU2
# 4 mesh(es)

g deep_wall10
# texture: deep_wall10.jpg
v -109.8876 0 46.5513
v -109.8876 0 -47.7646
v 105.8871 0 -47.7646
v 105.8871 0 46.5513
v -109.8876 0 46.5513
v 105.8871 0 46.5513
v 105.8871 18.8343 46.5513
v -109.8876 18.8343 46.5513
v -116.4897 17.5711 52.2102
v 112.4892 17.5711 52.2102
v 112.4892 70.4225 52.2102
v -116.4897 70.4225 52.2102
v 105.8871 0 46.5513
v 105.8871 0 -47.7646
v 105.8871 18.8343 -47.7646
v 105.8871 18.8343 46.5513
v 112.4892 17.5711 52.2102
v 112.4892 17.5711 -53.4236
v 112.4892 70.4225 -53.4236
v 112.4892 70.4225 52.2102
v 105.8871 0 -47.7646
v -109.8876 0 -47.7646
v -109.8876 18.8343 -47.7646
v 105.8871 18.8343 -47.7646
v 112.4892 17.5711 -53.4236
v -116.4897 17.5711 -53.4236
v -116.4897 70.4225 -53.4236
v 112.4892 70.4225 -53.4236
v -109.8876 0 -47.7646
v -109.8876 0 46.5513
v -109.8876 18.8343 46.5513
v -109.8876 18.8343 -47.7646
v -116.4897 17.5711 -53.4236
v -116.4897 17.5711 52.2102
v -116.4897 70.4225 52.2102
v -116.4897 70.4225 -53.4236
v -116.4897 70.4225 52.2102
v 112.4892 70.4225 52.2102
v 98.7109 78.5915 45.3211
v -102.7113 78.5915 45.3211
v 112.4892 70.4225 52.2102
v 112.4892 70.4225 -53.4236
v 98.7109 78.5915 -46.5344
v 98.7109 78.5915 45.3211
v 112.4892 70.4225 -53.4236
v -116.4897 70.4225 -53.4236
v -102.7113 78.5915 -46.5344
v 98.7109 78.5915 -46.5344
v -116.4897 70.4225 -53.4236
v -116.4897 70.4225 52.2102
v -102.7113 78.5915 45.3211
v -102.7113 78.5915 -46.5344
v -102.7113 78.5915 45.3211
v 98.7109 78.5915 45.3211
v 98.7109 71.7606 45.3211
v -102.7113 71.7606 45.3211
v 98.7109 78.5915 45.3211
v 98.7109 78.5915 -46.5344
v 98.7109 71.7606 -46.5344
v 98.7109 71.7606 45.3211
v 98.7109 78.5915 -46.5344
v -102.7113 78.5915 -46.5344
v -102.7113 71.7606 -46.5344
v 98.7109 71.7606 -46.5344
v -102.7113 78.5915 -46.5344
v -102.7113 78.5915 45.3211
v -102.7113 71.7606 45.3211
v -102.7113 71.7606 -46.5344
vn 0 -1 -0
vn 0 -1 -0
vn 0 -1 -0
vn 0 -1 -0
vn 0 0 1
vn 0 0 1
vn 0 0 1
vn 0 0 1
vn 0 0 1
vn 0 0 1
vn 0 0 1
vn 0 0 1
vn 1 0 -0
vn 1 0 -0
vn 1 0 -0
vn 1 0 -0
vn 1 0 -0
vn 1 0 -0
vn 1 0 -0
vn 1 0 -0
vn 0 0 -1
vn 0 0 -1
vn 0 0 -1
vn 0 0 -1
vn 0 0 -1
vn 0 0 -1
vn 0 0 -1
vn 0 0 -1
vn -1 0 -0
vn -1 0 -0
vn -1 0 -0
vn -1 0 -0
vn -1 0 -0
vn -1 0 -0
vn -1 0 -0
vn -1 0 -0
vn 0 0.644668 0.764463
vn 0 0.644668 0.764463
vn 0 0.644668 0.764463
vn 0 0.644668 0.764463
vn 0.509989 0.860181 -0
vn 0.509989 0.860181 -0
vn 0.509989 0.860181 -0
vn 0.509989 0.860181 -0
vn 0 0.644668 -0.764463
vn 0 0.644668 -0.764463
vn 0 0.644668 -0.764463
vn 0 0.644668 -0.764463
vn -0.509989 0.860181 -0
vn -0.509989 0.860181 -0
vn -0.509989 0.860181 -0
vn -0.509989 0.860181 -0
vn 0 0 -1
vn 0 0 -1
vn 0 0 -1
vn 0 0 -1
vn -1 0 -0
vn -1 0 -0
vn -1 0 -0
vn -1 0 -0
vn 0 0 1
vn 0 0 1
vn 0 0 1
vn 0 0 1
vn 1 0 -0
vn 1 0 -0
vn 1 0 -0
vn 1 0 -0
vt -0.9628 -0.1647
vt -0.9628 -0.1647
vt 0.9197 -0.1647
vt 0.9197 -0.1647
vt -0.9628 -0.1647
vt 0.9197 -0.1647
vt 0.9197 0.0345
vt -0.9628 0.0345
vt -1.0255 0.0212
vt 0.9825 0.0212
vt 0.9825 0.5804
vt -1.0255 0.5804
vt 0.054 -0.1534
vt 0.946 -0.1534
vt 0.946 0.0396
vt 0.054 0.0396
vt 0.0005 0.0267
vt 0.9995 0.0267
vt 0.9995 0.5684
vt 0.0005 0.5684
vt 0.9197 -0.1647
vt -0.9628 -0.1647
vt -0.9628 0.0345
vt 0.9197 0.0345
vt 0.9825 0.0212
vt -1.0255 0.0212
vt -1.0255 0.5804
vt 0.9825 0.5804
vt 0.946 -0.1534
vt 0.054 -0.1534
vt 0.054 0.0396
vt 0.946 0.0396
vt 0.9995 0.0267
vt 0.0005 0.0267
vt 0.0005 0.5684
vt 0.9995 0.5684
vt -1.0255 0.5804
vt 0.9825 0.5804
vt 0.8515 0.6668
vt -0.8946 0.6668
vt 0.0005 0.5684
vt 0.9995 0.5684
vt 0.9343 0.6521
vt 0.0657 0.6521
vt 0.9825 0.5804
vt -1.0255 0.5804
vt -0.8946 0.6668
vt 0.8515 0.6668
vt 0.9995 0.5684
vt 0.0005 0.5684
vt 0.0657 0.6521
vt 0.9343 0.6521
vt -0.8946 0.6668
vt 0.8515 0.6668
vt 0.8515 0.5945
vt -0.8946 0.5945
vt 0.0657 0.6521
vt 0.9343 0.6521
vt 0.9343 0.5821
vt 0.0657 0.5821
vt 0.8515 0.6668
vt -0.8946 0.6668
vt -0.8946 0.5945
vt 0.8515 0.5945
vt 0.9343 0.6521
vt 0.0657 0.6521
vt 0.0657 0.5821
vt 0.9343 0.5821
f 1/1/1 3/3/3 2/2/2
f 3/3/3 1/1/1 4/4/4
f 5/5/5 7/7/7 6/6/6
f 7/7/7 5/5/5 8/8/8
f 9/9/9 11/11/11 10/10/10
f 11/11/11 9/9/9 12/12/12
f 13/13/13 15/15/15 14/14/14
f 15/15/15 13/13/13 16/16/16
f 17/17/17 19/19/19 18/18/18
f 19/19/19 17/17/17 20/20/20
f 21/21/21 23/23/23 22/22/22
f 23/23/23 21/21/21 24/24/24
f 25/25/25 27/27/27 26/26/26
f 27/27/27 25/25/25 28/28/28
f 29/29/29 31/31/31 30/30/30
f 31/31/31 29/29/29 32/32/32
f 33/33/33 35/35/35 34/34/34
f 35/35/35 33/33/33 36/36/36
f 37/37/37 39/39/39 38/38/38
f 39/39/39 37/37/37 40/40/40
f 41/41/41 43/43/43 42/42/42
f 43/43/43 41/41/41 44/44/44
f 45/45/45 47/47/47 46/46/46
f 47/47/47 45/45/45 48/48/48
f 49/49/49 51/51/51 50/50/50
f 51/51/51 49/49/49 52/52/52
f 53/53/53 55/55/55 54/54/54
f 55/55/55 53/53/53 56/56/56
f 57/57/57 59/59/59 58/58/58
f 59/59/59 57/57/57 60/60/60
f 61/61/61 63/63/63 62/62/62
f 63/63/63 61/61/61 64/64/64
f 65/65/65 67/67/67 66/66/66
f 67/67/67 65/65/65 68/68/68

g deep_wall11
# texture: deep_wall11.jpg
v -102.7113 71.7606 45.3211
v 98.7109 71.7606 45.3211
v 98.7109 71.7606 -46.5344
v -102.7113 71.7606 -46.5344
vn 0 1 -0
vn 0 1 -0
vn 0 1 -0
vn 0 1 -0
vt 0.0005 0.0005
vt 0.9995 0.0005
vt 0.9995 0.9995
vt 0.0005 0.9995
f 69/69/69 71/71/71 70/70/70
f 71/71/71 69/69/69 72/72/72

g wood01
# texture: wood01.jpg
v 73.0314 77.8859 0.1963
v 81.6363 71.8171 5.4189
v 73.0314 71.8171 5.4189
v 81.6363 77.8859 0.1963
v 81.6363 77.8859 0.1963
v 81.6363 73.2327 6.0366
v 81.6363 71.8171 5.4189
v 81.6363 78.2857 1.6881
v 81.6363 78.2857 1.6881
v 73.0314 73.2327 6.0366
v 81.6363 73.2327 6.0366
v 73.0314 78.2857 1.6881
v 73.0314 78.2857 1.6881
v 73.0314 71.8171 5.4189
v 73.0314 73.2327 6.0366
v 73.0314 77.8859 0.1963
v 81.6363 73.482 12.6984
v 81.6363 72.1165 13.42
v 73.0314 73.482 12.6984
v 81.6363 73.482 12.6984
v 73.0314 72.1165 13.42
v 73.0314 73.482 12.6984
v 73.0314 72.1165 13.42
v 81.6363 78.5586 18.1746
v 73.0314 78.5587 18.1746
v 81.6363 72.1165 13.42
v 81.6363 78.8458 16.657
v 81.6363 78.5586 18.1746
v 73.0314 78.8458 16.657
v 81.6363 78.8458 16.657
v 73.0314 78.5587 18.1746
v 73.0314 78.8458 16.657
v 82.4538 78.1799 15.4985
v 82.4538 78.4624 22.9606
v 82.4538 76.9866 23.4158
v 82.4538 79.456 16.3686
v 82.4538 79.456 16.3686
v 72.2139 78.4624 22.9606
v 82.4538 78.4624 22.9606
v 72.2139 79.456 16.3686
v 72.2139 79.456 16.3686
v 72.2139 76.9866 23.4158
v 72.2139 78.4624 22.9606
v 72.2139 78.1799 15.4985
v 72.2139 76.9866 23.4158
v 82.4537 82.4325 29.2852
v 72.2139 82.4325 29.2852
v 82.4538 76.9866 23.4158
v 82.4537 82.9967 27.8474
v 82.4537 82.4325 29.2852
v 72.2139 82.9967 27.8474
v 82.4537 82.9967 27.8474
v 72.2139 82.4325 29.2852
v 72.2139 82.9967 27.8474
v 82.4537 90.4168 28.6868
v 72.2139 90.4168 28.6868
v 82.4537 89.6446 27.3492
v 82.4537 90.4168 28.6868
v 72.2139 89.6446 27.3492
v 82.4537 89.6446 27.3492
v 72.2139 90.4168 28.6868
v 72.2139 89.6446 27.3492
v 72.2139 78.1799 15.4985
v 72.2139 79.456 16.3686
v 82.4538 79.456 16.3686
v 82.4538 78.1799 15.4985
v -1.0196 77.8859 24.2801
v 5.9403 71.8171 31.5519
v -2.3714 71.8171 29.3248
v 7.292 77.8859 26.5072
v 7.292 77.8859 26.5072
v 5.7805 73.2327 32.1485
v 5.9403 71.8171 31.5519
v 6.9059 78.2857 27.9482
v 6.9059 78.2857 27.9482
v -2.5312 73.2327 29.9214
v 5.7805 73.2327 32.1485
v -1.4057 78.2857 25.7211
v -1.4057 78.2857 25.7211
v -2.3714 71.8171 29.3248
v -2.5312 73.2327 29.9214
v -1.0196 77.8859 24.2801
v 4.0563 73.482 38.5833
v 3.8695 72.1165 39.2804
v -4.2554 73.482 36.3562
v 4.0563 73.482 38.5833
v -4.4422 72.1165 37.0533
v -4.2554 73.482 36.3562
v -4.4422 72.1165 37.0533
v 2.639 78.5586 43.8729
v -5.6727 78.5587 41.6458
v 3.8695 72.1165 39.2804
v 3.0317 78.8458 42.4071
v 2.639 78.5586 43.8729
v -5.28 78.8458 40.18
v 3.0317 78.8458 42.4071
v -5.6727 78.5587 41.6458
v -5.28 78.8458 40.18
v 4.0499 77.7547 41.7655
v 2.3305 81.1643 48.1826
v 2.0622 80.0191 49.1836
v 3.9854 79.2789 42.0062
v 3.9854 79.2789 42.0062
v -7.560501 81.1643 45.5324
v 2.3305 81.1643 48.1826
v -5.9055 79.2789 39.356
v -5.9055 79.2789 39.356
v -7.828701 80.0191 46.5334
v -7.560501 81.1643 45.5324
v -5.841 77.7547 39.1152
v -7.828701 80.0191 46.5334
v 1.2812 87.4353 52.0987
v -8.6098 87.4353 49.4484
v 2.0622 80.0191 49.1836
v 1.6801 87.3391 50.6097
v 1.2812 87.4353 52.0987
v -8.2108 87.3391 47.9595
v 1.6801 87.3391 50.6097
v -8.6098 87.4353 49.4484
v -8.2108 87.3391 47.9595
v 2.2949 94.4187 48.3155
v -7.596099 94.4187 45.6653
v 2.5241 93.1535 47.4598
v 2.2949 94.4187 48.3155
v -7.3668 93.1535 44.8096
v 2.5241 93.1535 47.4598
v -7.596099 94.4187 45.6653
v -7.3668 93.1535 44.8096
v -5.841 77.7547 39.1152
v -5.9055 79.2789 39.356
v 3.9854 79.2789 42.0062
v 4.0499 77.7547 41.7655
v 7.2517 77.8859 -29.3872
v -2.4117 71.8171 -32.2048
v 5.9 71.8171 -34.4319
v -1.06 77.8859 -27.1601
v -1.06 77.8859 -27.1601
v -2.571599 73.2327 -32.8014
v -2.4117 71.8171 -32.2048
v -1.4461 78.2857 -28.6011
v -1.4461 78.2857 -28.6011
v 5.7401 73.2327 -35.0285
v -2.571599 73.2327 -32.8014
v 6.8656 78.2857 -30.8282
v 6.8656 78.2857 -30.8282
v 5.9 71.8171 -34.4319
v 5.7401 73.2327 -35.0285
v 7.2517 77.8859 -29.3872
v -4.295801 73.4819 -39.2362
v -4.482601 72.1165 -39.9333
v 4.0159 73.4819 -41.4633
v -4.295801 73.4819 -39.2362
v 3.8291 72.1165 -42.1604
v 4.0159 73.4819 -41.4633
v 3.8291 72.1165 -42.1604
v -5.7131 78.5586 -44.5258
v 2.5985 78.5586 -46.7529
v -4.482601 72.1165 -39.9333
v -5.3204 78.8458 -43.06
v -5.7131 78.5586 -44.5258
v 2.9913 78.8458 -45.2871
v -5.3204 78.8458 -43.06
v 2.5985 78.5586 -46.7529
v 2.9913 78.8458 -45.2871
v -5.8005 77.7547 -41.6936
v -7.52 81.1643 -48.1107
v -7.7882 80.0191 -49.1117
v -5.864999 79.2789 -41.9343
v -5.864999 79.2789 -41.9343
v 2.3709 81.1643 -50.7609
v -7.52 81.1643 -48.1107
v 4.0259 79.2789 -44.5845
v 4.0259 79.2789 -44.5845
v 2.1027 80.0191 -51.7619
v 2.3709 81.1643 -50.7609
v 4.0904 77.7547 -44.3438
v 2.1027 80.0191 -51.7619
v -8.5693 87.4353 -52.0267
v 1.3216 87.4353 -54.677
v -7.7882 80.0191 -49.1117
v -8.1703 87.3391 -50.5378
v -8.5693 87.4353 -52.0267
v 1.7206 87.3391 -53.188
v -8.1703 87.3391 -50.5378
v 1.3216 87.4353 -54.677
v 1.7206 87.3391 -53.188
v -7.555601 94.4187 -48.2435
v 2.3353 94.4187 -50.8938
v -7.3263 93.1535 -47.3879
v -7.555601 94.4187 -48.2435
v 2.5646 93.1535 -50.0381
v -7.3263 93.1535 -47.3879
v 2.3353 94.4187 -50.8938
v 2.5646 93.1535 -50.0381
v 4.0904 77.7547 -44.3438
v 4.0259 79.2789 -44.5845
v -5.864999 79.2789 -41.9343
v 4.0904 77.7547 -44.3438
v -5.864999 79.2789 -41.9343
v -5.8005 77.7547 -41.6936
v 81.6363 77.8859 -2.3323
v 73.0314 71.8171 -7.555
v 81.6363 71.8171 -7.5549
v 73.0314 77.8859 -2.3323
v 73.0314 77.8859 -2.3323
v 73.0314 73.2327 -8.1726
v 73.0314 71.8171 -7.555
v 73.0314 78.2857 -3.8241
v 73.0314 78.2857 -3.8241
v 81.6363 73.2327 -8.1726
v 73.0314 73.2327 -8.1726
v 81.6363 78.2857 -3.8241
v 81.6363 78.2857 -3.8241
v 81.6363 71.8171 -7.5549
v 81.6363 73.2327 -8.1726
v 81.6363 77.8859 -2.3323
v 73.0314 73.482 -14.8344
v 73.0314 72.1165 -15.5561
v 81.6363 73.482 -14.8344
v 73.0314 73.482 -14.8344
v 81.6363 72.1165 -15.5561
v 81.6363 73.482 -14.8344
v 81.6363 72.1165 -15.5561
v 73.0314 78.5586 -20.3106
v 81.6363 78.5587 -20.3106
v 73.0314 72.1165 -15.5561
v 73.0314 78.8458 -18.7931
v 73.0314 78.5586 -20.3106
v 81.6363 78.8458 -18.7931
v 73.0314 78.8458 -18.7931
v 81.6363 78.5587 -20.3106
v 81.6363 78.8458 -18.7931
v 72.214 78.1799 -17.6346
v 72.214 78.4624 -25.0966
v 72.214 76.9866 -25.5518
v 72.214 79.456 -18.5046
v 72.214 79.456 -18.5046
v 82.4538 78.4624 -25.0966
v 72.214 78.4624 -25.0966
v 82.4538 79.456 -18.5046
v 82.4538 79.456 -18.5046
v 82.4538 76.9865 -25.5518
v 82.4538 78.4624 -25.0966
v 82.4538 78.1799 -17.6346
v 82.4538 76.9865 -25.5518
v 72.2139 82.4325 -31.4212
v 82.4538 82.4325 -31.4212
v 72.214 76.9866 -25.5518
v 72.2139 82.9967 -29.9835
v 72.2139 82.4325 -31.4212
v 82.4538 82.9967 -29.9835
v 72.2139 82.9967 -29.9835
v 82.4538 82.4325 -31.4212
v 82.4538 82.9967 -29.9835
v 72.2139 90.4168 -30.8228
v 82.4538 90.4168 -30.8228
v 72.2139 89.6446 -29.4853
v 72.2139 90.4168 -30.8228
v 82.4538 89.6446 -29.4853
v 72.2139 89.6446 -29.4853
v 82.4538 90.4168 -30.8228
v 82.4538 89.6446 -29.4853
v 82.4538 78.1799 -17.6346
v 82.4538 79.456 -18.5046
v 72.214 79.456 -18.5046
v 72.214 78.1799 -17.6346
v 2.3353 94.4187 -50.8938
v -7.555601 94.4187 -48.2435
v -7.3263 93.1535 -47.3879
v 2.5646 93.1535 -50.0381
v -7.3668 93.1535 44.8096
v -7.596099 94.4187 45.6653
v 2.2949 94.4187 48.3155
v 2.5241 93.1535 47.4598
vn 0 -0.652281 -0.757978
vn 0 -0.652281 -0.757978
vn 0 -0.652281 -0.757978
vn 0 -0.652281 -0.757978
vn 1 0 -0
vn 1 0 -0
vn 1 0 -0
vn 1 0 -0
vn 0 0.652281 0.757978
vn 0 0.841601 0.5401
vn 0 0.968352 0.249588
vn 0 0.652281 0.757978
vn -1 0 -0
vn -1 0 -0
vn -1 0 -0
vn -1 0 -0
vn 1 0 -0
vn 1 0 -0
vn 0 0.94701 -0.321204
vn 0 0.798883 -0.601487
vn -1 0 -0
vn -1 0 -0
vn 0 -0.593806 0.804608
vn 0 -0.593806 0.804608
vn 0 -0.593806 0.804608
vn 0 -0.593806 0.804608
vn 1 0 -0
vn 1 0 -0
vn 0 0.593806 -0.804608
vn 0 0.593806 -0.804608
vn -1 0 -0
vn -1 0 -0
vn 1 0 -0
vn 1 0 -0
vn 1 0 -0
vn 1 0 -0
vn 0 0.988837 0.149006
vn 0 0.990208 -0.139601
vn 0 0.896775 -0.442488
vn 0 0.988837 0.149006
vn -1 0 -0
vn -1 0 -0
vn -1 0 -0
vn -1 0 -0
vn 0 -0.733061 0.680163
vn 0 -0.508291 0.861185
vn 0 -0.213202 0.977008
vn 0 -0.733061 0.680163
vn 1 0 -0
vn 1 0 -0
vn 0 0.508291 -0.861185
vn 0 0.213202 -0.977008
vn -1 0 -0
vn -1 0 -0
vn 0 0.0747 0.997206
vn 0 0.0747 0.997206
vn 1 0 -0
vn 1 0 -0
vn 0 -0.0747 -0.997206
vn 0 -0.0747 -0.997206
vn -1 0 -0
vn -1 0 -0
vn 0 0.563325 -0.826236
vn 0 0.563325 -0.826236
vn 0 0.563325 -0.826236
vn 0 0.563325 -0.826236
vn 0.196204 -0.652313 -0.732115
vn 0.196204 -0.652313 -0.732115
vn 0.196204 -0.652313 -0.732115
vn 0.196204 -0.652313 -0.732115
vn 0.965929 0 0.258808
vn 0.965929 0 0.258808
vn 0.965929 0 0.258808
vn 0.965929 0 0.258808
vn -0.196204 0.652313 0.732115
vn -0.1398 0.841598 0.521699
vn -0.064597 0.968351 0.241088
vn -0.196204 0.652313 0.732115
vn -0.965929 0 -0.258808
vn -0.965929 0 -0.258808
vn -0.965929 0 -0.258808
vn -0.965929 0 -0.258808
vn 0.965929 0 0.258808
vn 0.965929 0 0.258808
vn 0.0831 0.947 -0.3103
vn 0.155697 0.798882 -0.580987
vn -0.965929 0 -0.258808
vn -0.965929 0 -0.258808
vn -0.208202 -0.593804 0.777206
vn -0.208202 -0.593804 0.777206
vn -0.208202 -0.593804 0.777206
vn -0.208202 -0.593804 0.777206
vn 0.965929 0 0.258808
vn 0.965929 0 0.258808
vn 0.208202 0.593804 -0.777206
vn 0.208202 0.593804 -0.777206
vn -0.965929 0 -0.258808
vn -0.965929 0 -0.258808
vn 0.965929 0 0.258808
vn 0.965929 0 0.258808
vn 0.965929 0 0.258808
vn 0.965929 0 0.258808
vn 0.073198 0.959171 -0.273192
vn 0.141106 0.838433 -0.526421
vn 0.2019 0.6258 -0.7534
vn 0.073198 0.959171 -0.273192
vn -0.965929 0 -0.258808
vn -0.965929 0 -0.258808
vn -0.965929 0 -0.258808
vn -0.965929 0 -0.258808
vn -0.2397 -0.3769 0.894701
vn -0.2576 -0.0967 0.961401
vn -0.252506 0.219705 0.942322
vn -0.2397 -0.3769 0.894701
vn 0.965929 0 0.258808
vn 0.965929 0 0.258808
vn 0.2576 0.0967 -0.961401
vn 0.252506 -0.219705 -0.942322
vn -0.965929 0 -0.258808
vn -0.965929 0 -0.258808
vn -0.225693 0.489185 0.842473
vn -0.225693 0.489185 0.842473
vn 0.965929 0 0.258808
vn 0.965929 0 0.258808
vn 0.225693 -0.489185 -0.842473
vn 0.225693 -0.489185 -0.842473
vn -0.965929 0 -0.258808
vn -0.965929 0 -0.258808
vn 0.255392 0.161395 -0.953271
vn 0.255392 0.161395 -0.953271
vn 0.255392 0.161395 -0.953271
vn 0.255392 0.161395 -0.953271
vn 0.196204 -0.652313 0.732115
vn 0.196204 -0.652313 0.732115
vn 0.196204 -0.652313 0.732115
vn 0.196204 -0.652313 0.732115
vn -0.965929 0 0.258808
vn -0.965929 0 0.258808
vn -0.965929 0 0.258808
vn -0.965929 0 0.258808
vn -0.196204 0.652313 -0.732115
vn -0.1398 0.841598 -0.521699
vn -0.064597 0.968351 -0.241088
vn -0.196204 0.652313 -0.732115
vn 0.965929 0 -0.258808
vn 0.965929 0 -0.258808
vn 0.965929 0 -0.258808
vn 0.965929 0 -0.258808
vn -0.965929 0 0.258808
vn -0.965929 0 0.258808
vn 0.0831 0.947 0.3103
vn 0.155697 0.798882 0.580987
vn 0.965929 0 -0.258808
vn 0.965929 0 -0.258808
vn -0.208202 -0.593804 -0.777206
vn -0.208202 -0.593804 -0.777206
vn -0.208202 -0.593804 -0.777206
vn -0.208202 -0.593804 -0.777206
vn -0.965929 0 0.258808
vn -0.965929 0 0.258808
vn 0.208202 0.593804 0.777206
vn 0.208202 0.593804 0.777206
vn 0.965929 0 -0.258808
vn 0.965929 0 -0.258808
vn -0.965929 0 0.258808
vn -0.965929 0 0.258808
vn -0.965929 0 0.258808
vn -0.965929 0 0.258808
vn 0.073198 0.959171 0.273192
vn 0.141106 0.838433 0.526421
vn 0.2019 0.6258 0.7534
vn 0.073198 0.959171 0.273192
vn 0.965929 0 -0.258808
vn 0.965929 0 -0.258808
vn 0.965929 0 -0.258808
vn 0.965929 0 -0.258808
vn -0.2397 -0.3769 -0.894701
vn -0.2576 -0.0967 -0.961401
vn -0.252506 0.219705 -0.942322
vn -0.2397 -0.3769 -0.894701
vn -0.965929 0 0.258808
vn -0.965929 0 0.258808
vn 0.2576 0.0967 0.961401
vn 0.252506 -0.219705 0.942322
vn 0.965929 0 -0.258808
vn 0.965929 0 -0.258808
vn -0.225693 0.489185 -0.842473
vn -0.225693 0.489185 -0.842473
vn -0.965929 0 0.258808
vn -0.965929 0 0.258808
vn 0.225693 -0.489185 0.842473
vn 0.225693 -0.489185 0.842473
vn 0.965929 0 -0.258808
vn 0.965929 0 -0.258808
vn 0.255392 0.161395 0.953271
vn 0.255392 0.161395 0.953271
vn 0.255392 0.161395 0.953271
vn 0.255397 0.161298 0.953287
vn 0.255397 0.161298 0.953287
vn 0.255397 0.161298 0.953287
vn 0 -0.652281 0.757978
vn 0 -0.652281 0.757978
vn 0 -0.652281 0.757978
vn 0 -0.652281 0.757978
vn -1 0 -0
vn -1 0 -0
vn -1 0 -0
vn -1 0 -0
vn 0 0.652281 -0.757978
vn 0 0.841601 -0.5401
vn 0 0.968352 -0.249588
vn 0 0.652281 -0.757978
vn 1 0 -0
vn 1 0 -0
vn 1 0 -0
vn 1 0 -0
vn -1 0 -0
vn -1 0 -0
vn 0 0.94701 0.321204
vn 0 0.798883 0.601487
vn 1 0 -0
vn 1 0 -0
vn 0 -0.593806 -0.804608
vn 0 -0.593806 -0.804608
vn 0 -0.593806 -0.804608
vn 0 -0.593806 -0.804608
vn -1 0 -0
vn -1 0 -0
vn 0 0.593806 0.804608
vn 0 0.593806 0.804608
vn 1 0 -0
vn 1 0 -0
vn -1 0 -0
vn -1 0 -0
vn -1 0 -0
vn -1 0 -0
vn 0 0.988837 -0.149006
vn 0 0.990208 0.139601
vn 0 0.896775 0.442488
vn 0 0.988837 -0.149006
vn 1 0 -0
vn 1 0 -0
vn 1 0 -0
vn 1 0 -0
vn 0 -0.733061 -0.680163
vn 0 -0.508291 -0.861185
vn 0 -0.213202 -0.977008
vn 0 -0.733061 -0.680163
vn -1 0 -0
vn -1 0 -0
vn 0 0.508291 0.861185
vn 0 0.213202 0.977008
vn 1 0 -0
vn 1 0 -0
vn 0 0.0747 -0.997206
vn 0 0.0747 -0.997206
vn -1 0 -0
vn -1 0 -0
vn 0 -0.0747 0.997206
vn 0 -0.0747 0.997206
vn 1 0 -0
vn 1 0 -0
vn 0 0.563325 0.826236
vn 0 0.563325 0.826236
vn 0 0.563325 0.826236
vn 0 0.563325 0.826236
vn 0.212004 0.573612 0.791217
vn 0.212004 0.573612 0.791217
vn 0.212004 0.573612 0.791217
vn 0.212004 0.573612 0.791217
vn 0.212004 0.573612 -0.791217
vn 0.212004 0.573612 -0.791217
vn 0.212004 0.573612 -0.791217
vn 0.212004 0.573612 -0.791217
vt 0.9109 0.2213
vt 0.8693 0.1488
vt 0.8693 0.2213
vt 0.9109 0.1488
vt 0.9109 0.1488
vt 0.879 0.1488
vt 0.8693 0.1488
vt 0.9136 0.1488
vt 0.9136 0.1488
vt 0.879 0.2213
vt 0.879 0.1488
vt 0.9136 0.2213
vt 0.9136 0.2213
vt 0.8693 0.2213
vt 0.879 0.2213
vt 0.9109 0.2213
vt 0.8807 0.1488
vt 0.8714 0.1488
vt 0.8807 0.2213
vt 0.8807 0.1488
vt 0.8714 0.2213
vt 0.8807 0.2213
vt 0.8714 0.2213
vt 0.9155 0.1488
vt 0.9155 0.2213
vt 0.8714 0.1488
vt 0.9174 0.1488
vt 0.9155 0.1488
vt 0.9174 0.2213
vt 0.9174 0.1488
vt 0.9155 0.2213
vt 0.9174 0.2213
vt 0.9129 0.1419
vt 0.9148 0.1419
vt 0.9047 0.1419
vt 0.9216 0.1419
vt 0.9216 0.1419
vt 0.9148 0.2282
vt 0.9148 0.1419
vt 0.9216 0.2282
vt 0.9216 0.2282
vt 0.9047 0.2282
vt 0.9148 0.2282
vt 0.9129 0.2282
vt 0.9047 0.2282
vt 0.942 0.1448
vt 0.942 0.224
vt 0.9047 0.1419
vt 0.9459 0.1448
vt 0.942 0.1448
vt 0.9459 0.224
vt 0.9459 0.1448
vt 0.942 0.224
vt 0.9459 0.224
vt 0.9966 0.1452
vt 0.9966 0.2288
vt 0.9913 0.1452
vt 0.9966 0.1452
vt 0.9913 0.2288
vt 0.9913 0.1452
vt 0.9966 0.2288
vt 0.9913 0.2288
vt 0.9129 0.2282
vt 0.9216 0.2282
vt 0.9216 0.1419
vt 0.9129 0.1419
vt 0.8849 0.22
vt 0.8439 0.1405
vt 0.8433 0.2209
vt 0.8854 0.1402
vt 0.8854 0.1402
vt 0.8536 0.1418
vt 0.8439 0.1405
vt 0.8882 0.1435
vt 0.8882 0.1435
vt 0.853 0.2223
vt 0.8536 0.1418
vt 0.8876 0.2232
vt 0.8876 0.2232
vt 0.8433 0.2209
vt 0.853 0.2223
vt 0.8849 0.22
vt 0.8553 0.1459
vt 0.846 0.1475
vt 0.8547 0.2229
vt 0.8553 0.1459
vt 0.8454 0.2245
vt 0.8547 0.2229
vt 0.8454 0.2245
vt 0.89 0.1488
vt 0.8895 0.2237
vt 0.846 0.1475
vt 0.892 0.1455
vt 0.89 0.1488
vt 0.8914 0.2204
vt 0.892 0.1455
vt 0.8895 0.2237
vt 0.8914 0.2204
vt 0.8845 0.1397
vt 0.9079 0.1437
vt 0.9 0.1432
vt 0.895 0.1402
vt 0.895 0.1402
vt 0.9079 0.2243
vt 0.9079 0.1437
vt 0.8944 0.2256
vt 0.8944 0.2256
vt 0.9 0.2265
vt 0.9079 0.2243
vt 0.884 0.2251
vt 0.9 0.2265
vt 0.9508 0.1451
vt 0.9508 0.2289
vt 0.9 0.1432
vt 0.9501 0.145
vt 0.9508 0.1451
vt 0.9501 0.2256
vt 0.9501 0.145
vt 0.9508 0.2289
vt 0.9501 0.2256
vt 0.9986 0.1452
vt 0.9986 0.2253
vt 0.9899 0.1451
vt 0.9986 0.1452
vt 0.9899 0.2233
vt 0.9899 0.1451
vt 0.9986 0.2253
vt 0.9899 0.2233
vt 0.884 0.2251
vt 0.8944 0.2256
vt 0.895 0.1402
vt 0.8845 0.1397
vt 0.8854 0.1406
vt 0.8433 0.2213
vt 0.8439 0.1408
vt 0.8849 0.2203
vt 0.8849 0.2203
vt 0.853 0.2226
vt 0.8433 0.2213
vt 0.8876 0.2236
vt 0.8876 0.2236
vt 0.8536 0.1422
vt 0.853 0.2226
vt 0.8882 0.1438
vt 0.8882 0.1438
vt 0.8439 0.1408
vt 0.8536 0.1422
vt 0.8854 0.1406
vt 0.8547 0.2232
vt 0.8454 0.2248
vt 0.8553 0.1462
vt 0.8547 0.2232
vt 0.846 0.1478
vt 0.8553 0.1462
vt 0.846 0.1478
vt 0.8895 0.224
vt 0.89 0.1491
vt 0.8454 0.2248
vt 0.8914 0.2207
vt 0.8895 0.224
vt 0.892 0.1458
vt 0.8914 0.2207
vt 0.89 0.1491
vt 0.892 0.1458
vt 0.884 0.2248
vt 0.9079 0.2239
vt 0.9 0.2262
vt 0.8944 0.2253
vt 0.8944 0.2253
vt 0.9079 0.1434
vt 0.9079 0.2239
vt 0.895 0.1399
vt 0.895 0.1399
vt 0.9 0.1429
vt 0.9079 0.1434
vt 0.8845 0.1394
vt 0.9 0.1429
vt 0.9508 0.2286
vt 0.9508 0.1451
vt 0.9 0.2262
vt 0.9501 0.2252
vt 0.9508 0.2286
vt 0.9501 0.145
vt 0.9501 0.2252
vt 0.9508 0.1451
vt 0.9501 0.145
vt 0.9986 0.2249
vt 0.9986 0.1452
vt 0.9899 0.223
vt 0.9986 0.2249
vt 0.9899 0.145
vt 0.9899 0.223
vt 0.9986 0.1452
vt 0.9899 0.145
vt 0.8845 0.1394
vt 0.895 0.1399
vt 0.8944 0.2253
vt 0.8845 0.1394
vt 0.8944 0.2253
vt 0.884 0.2248
vt 0.9109 0.1488
vt 0.8693 0.2213
vt 0.8693 0.1488
vt 0.9109 0.2213
vt 0.9109 0.2213
vt 0.879 0.2213
vt 0.8693 0.2213
vt 0.9136 0.2213
vt 0.9136 0.2213
vt 0.879 0.1488
vt 0.879 0.2213
vt 0.9136 0.1488
vt 0.9136 0.1488
vt 0.8693 0.1488
vt 0.879 0.1488
vt 0.9109 0.1488
vt 0.8807 0.2213
vt 0.8714 0.2213
vt 0.8807 0.1488
vt 0.8807 0.2213
vt 0.8714 0.1488
vt 0.8807 0.1488
vt 0.8714 0.1488
vt 0.9155 0.2213
vt 0.9155 0.1488
vt 0.8714 0.2213
vt 0.9174 0.2213
vt 0.9155 0.2213
vt 0.9174 0.1488
vt 0.9174 0.2213
vt 0.9155 0.1488
vt 0.9174 0.1488
vt 0.9129 0.2282
vt 0.9148 0.2282
vt 0.9047 0.2282
vt 0.9216 0.2282
vt 0.9216 0.2282
vt 0.9148 0.1419
vt 0.9148 0.2282
vt 0.9216 0.1419
vt 0.9216 0.1419
vt 0.9047 0.1419
vt 0.9148 0.1419
vt 0.9129 0.1419
vt 0.9047 0.1419
vt 0.942 0.224
vt 0.942 0.1448
vt 0.9047 0.2282
vt 0.9459 0.224
vt 0.942 0.224
vt 0.9459 0.1448
vt 0.9459 0.224
vt 0.942 0.1448
vt 0.9459 0.1448
vt 0.9966 0.2288
vt 0.9966 0.1452
vt 0.9913 0.2288
vt 0.9966 0.2288
vt 0.9913 0.1452
vt 0.9913 0.2288
vt 0.9966 0.1452
vt 0.9913 0.1452
vt 0.9129 0.1419
vt 0.9216 0.1419
vt 0.9216 0.2282
vt 0.9129 0.2282
vt 0.9986 0.1452
vt 0.9986 0.2249
vt 0.9899 0.223
vt 0.9899 0.145
vt 0.9899 0.2233
vt 0.9986 0.2253
vt 0.9986 0.1452
vt 0.9899 0.1451
f 73/73/73 75/75/75 74/74/74
f 73/73/73 74/74/74 76/76/76
f 77/77/77 79/79/79 78/78/78
f 77/77/77 78/78/78 80/80/80
f 81/81/81 83/83/83 82/82/82
f 81/81/81 82/82/82 84/84/84
f 85/85/85 87/87/87 86/86/86
f 85/85/85 86/86/86 88/88/88
f 79/79/79 90/90/90 89/89/89
f 79/79/79 89/89/89 78/78/78
f 83/83/83 92/92/92 91/91/91
f 83/83/83 91/91/91 82/82/82
f 87/87/87 94/94/94 93/93/93
f 87/87/87 93/93/93 86/86/86
f 95/95/95 97/97/97 96/96/96
f 95/95/95 96/96/96 98/98/98
f 90/90/90 100/100/100 99/99/99
f 90/90/90 99/99/99 89/89/89
f 92/92/92 102/102/102 101/101/101
f 92/92/92 101/101/101 91/91/91
f 94/94/94 104/104/104 103/103/103
f 94/94/94 103/103/103 93/93/93
f 105/105/105 107/107/107 106/106/106
f 105/105/105 106/106/106 108/108/108
f 109/109/109 111/111/111 110/110/110
f 109/109/109 110/110/110 112/112/112
f 113/113/113 115/115/115 114/114/114
f 113/113/113 114/114/114 116/116/116
f 117/117/117 119/119/119 118/118/118
f 117/117/117 118/118/118 120/120/120
f 107/107/107 122/122/122 121/121/121
f 107/107/107 121/121/121 106/106/106
f 111/111/111 124/124/124 123/123/123
f 111/111/111 123/123/123 110/110/110
f 115/115/115 126/126/126 125/125/125
f 115/115/115 125/125/125 114/114/114
f 119/119/119 128/128/128 127/127/127
f 119/119/119 127/127/127 118/118/118
f 122/122/122 130/130/130 129/129/129
f 122/122/122 129/129/129 121/121/121
f 124/124/124 132/132/132 131/131/131
f 124/124/124 131/131/131 123/123/123
f 126/126/126 134/134/134 133/133/133
f 126/126/126 133/133/133 125/125/125
f 135/135/135 137/137/137 136/136/136
f 135/135/135 138/138/138 137/137/137
f 139/139/139 141/141/141 140/140/140
f 139/139/139 140/140/140 142/142/142
f 143/143/143 145/145/145 144/144/144
f 143/143/143 144/144/144 146/146/146
f 147/147/147 149/149/149 148/148/148
f 147/147/147 148/148/148 150/150/150
f 151/151/151 153/153/153 152/152/152
f 151/151/151 152/152/152 154/154/154
f 145/145/145 156/156/156 155/155/155
f 145/145/145 155/155/155 144/144/144
f 149/149/149 158/158/158 157/157/157
f 149/149/149 157/157/157 148/148/148
f 153/153/153 160/160/160 159/159/159
f 153/153/153 159/159/159 152/152/152
f 161/161/161 163/163/163 162/162/162
f 161/161/161 162/162/162 164/164/164
f 156/156/156 166/166/166 165/165/165
f 156/156/156 165/165/165 155/155/155
f 158/158/158 168/168/168 167/167/167
f 158/158/158 167/167/167 157/157/157
f 160/160/160 170/170/170 169/169/169
f 160/160/160 169/169/169 159/159/159
f 171/171/171 173/173/173 172/172/172
f 171/171/171 172/172/172 174/174/174
f 175/175/175 177/177/177 176/176/176
f 175/175/175 176/176/176 178/178/178
f 179/179/179 181/181/181 180/180/180
f 179/179/179 180/180/180 182/182/182
f 183/183/183 185/185/185 184/184/184
f 183/183/183 184/184/184 186/186/186
f 173/173/173 188/188/188 187/187/187
f 173/173/173 187/187/187 172/172/172
f 177/177/177 190/190/190 189/189/189
f 177/177/177 189/189/189 176/176/176
f 181/181/181 192/192/192 191/191/191
f 181/181/181 191/191/191 180/180/180
f 185/185/185 194/194/194 193/193/193
f 185/185/185 193/193/193 184/184/184
f 188/188/188 196/196/196 195/195/195
f 188/188/188 195/195/195 187/187/187
f 190/190/190 198/198/198 197/197/197
f 190/190/190 197/197/197 189/189/189
f 192/192/192 200/200/200 199/199/199
f 192/192/192 199/199/199 191/191/191
f 201/201/201 203/203/203 202/202/202
f 201/201/201 204/204/204 203/203/203
f 205/205/205 207/207/207 206/206/206
f 205/205/205 206/206/206 208/208/208
f 209/209/209 211/211/211 210/210/210
f 209/209/209 210/210/210 212/212/212
f 213/213/213 215/215/215 214/214/214
f 213/213/213 214/214/214 216/216/216
f 217/217/217 219/219/219 218/218/218
f 217/217/217 218/218/218 220/220/220
f 211/211/211 222/222/222 221/221/221
f 211/211/211 221/221/221 210/210/210
f 215/215/215 224/224/224 223/223/223
f 215/215/215 223/223/223 214/214/214
f 219/219/219 226/226/226 225/225/225
f 219/219/219 225/225/225 218/218/218
f 227/227/227 229/229/229 228/228/228
f 227/227/227 228/228/228 230/230/230
f 222/222/222 232/232/232 231/231/231
f 222/222/222 231/231/231 221/221/221
f 224/224/224 234/234/234 233/233/233
f 224/224/224 233/233/233 223/223/223
f 226/226/226 236/236/236 235/235/235
f 226/226/226 235/235/235 225/225/225
f 237/237/237 239/239/239 238/238/238
f 237/237/237 238/238/238 240/240/240
f 241/241/241 243/243/243 242/242/242
f 241/241/241 242/242/242 244/244/244
f 245/245/245 247/247/247 246/246/246
f 245/245/245 246/246/246 248/248/248
f 249/249/249 251/251/251 250/250/250
f 249/249/249 250/250/250 252/252/252
f 239/239/239 254/254/254 253/253/253
f 239/239/239 253/253/253 238/238/238
f 243/243/243 256/256/256 255/255/255
f 243/243/243 255/255/255 242/242/242
f 247/247/247 258/258/258 257/257/257
f 247/247/247 257/257/257 246/246/246
f 251/251/251 260/260/260 259/259/259
f 251/251/251 259/259/259 250/250/250
f 254/254/254 262/262/262 261/261/261
f 254/254/254 261/261/261 253/253/253
f 256/256/256 264/264/264 263/263/263
f 256/256/256 263/263/263 255/255/255
f 258/258/258 266/266/266 265/265/265
f 258/258/258 265/265/265 257/257/257
f 267/267/267 269/269/269 268/268/268
f 270/270/270 272/272/272 271/271/271
f 273/273/273 275/275/275 274/274/274
f 273/273/273 274/274/274 276/276/276
f 277/277/277 279/279/279 278/278/278
f 277/277/277 278/278/278 280/280/280
f 281/281/281 283/283/283 282/282/282
f 281/281/281 282/282/282 284/284/284
f 285/285/285 287/287/287 286/286/286
f 285/285/285 286/286/286 288/288/288
f 279/279/279 290/290/290 289/289/289
f 279/279/279 289/289/289 278/278/278
f 283/283/283 292/292/292 291/291/291
f 283/283/283 291/291/291 282/282/282
f 287/287/287 294/294/294 293/293/293
f 287/287/287 293/293/293 286/286/286
f 295/295/295 297/297/297 296/296/296
f 295/295/295 296/296/296 298/298/298
f 290/290/290 300/300/300 299/299/299
f 290/290/290 299/299/299 289/289/289
f 292/292/292 302/302/302 301/301/301
f 292/292/292 301/301/301 291/291/291
f 294/294/294 304/304/304 303/303/303
f 294/294/294 303/303/303 293/293/293
f 305/305/305 307/307/307 306/306/306
f 305/305/305 306/306/306 308/308/308
f 309/309/309 311/311/311 310/310/310
f 309/309/309 310/310/310 312/312/312
f 313/313/313 315/315/315 314/314/314
f 313/313/313 314/314/314 316/316/316
f 317/317/317 319/319/319 318/318/318
f 317/317/317 318/318/318 320/320/320
f 307/307/307 322/322/322 321/321/321
f 307/307/307 321/321/321 306/306/306
f 311/311/311 324/324/324 323/323/323
f 311/311/311 323/323/323 310/310/310
f 315/315/315 326/326/326 325/325/325
f 315/315/315 325/325/325 314/314/314
f 319/319/319 328/328/328 327/327/327
f 319/319/319 327/327/327 318/318/318
f 322/322/322 330/330/330 329/329/329
f 322/322/322 329/329/329 321/321/321
f 324/324/324 332/332/332 331/331/331
f 324/324/324 331/331/331 323/323/323
f 326/326/326 334/334/334 333/333/333
f 326/326/326 333/333/333 325/325/325
f 335/335/335 337/337/337 336/336/336
f 335/335/335 338/338/338 337/337/337
f 339/339/339 341/341/341 340/340/340
f 339/339/339 342/342/342 341/341/341
f 343/343/343 345/345/345 344/344/344
f 343/343/343 346/346/346 345/345/345

g bons
# texture: bons.jpg
v -32.4372 80.2377 3.072699
v -45.8932 74.0513 11.9882
v -38.9237 78.7237 -2.1941
v -35.3612 81.8527 -2.194101
v -45.8932 74.0513 -16.3764
v -32.4372 80.2377 -7.460801
v -52.4174 72.867 11.4948
v -53.643 75.7799 -2.1942
v -52.4174 72.867 -15.8832
v -63.9231 74.0513 11.6182
v -69.8658 76.6756 -2.2045
v -63.9231 74.0513 -16.0065
v -32.3922 86.795 3.0727
v -37.8598 88.1345 -2.194101
v -44.5744 91.8539 -2.1941
v -35.5897 93.3781 5.957099
v -32.3922 86.795 -7.460801
v -35.5897 93.3782 -10.3453
v -54.0779 98.4554 -2.1942
v -52.4174 96.4382 11.4948
v -52.4174 96.4382 -15.8832
v -65.9138 93.5884 -2.203197
v -63.9231 95.2867 11.6182
v -63.9231 95.2867 -16.0065
v -35.5897 83.0337 -16.488
v -31.7196 83.2449 -8.935501
v -54.5622 81.8557 -21.6435
v -67.7877 82.1493 -19.874
v -70.0676 82.9814 -2.204498
v -67.7877 82.1493 15.4856
v -54.5622 81.8557 17.2552
v -35.5897 83.0337 12.0999
v -31.7196 83.2449 4.5474
v -7.670601 72.8623 9.188
v -17.2997 74.4605 10.6127
v -14.8739 76.4975 -2.230701
v -5.3269 78.5561 -2.253101
v -17.2997 74.4605 -15.0741
v -8.062599 73.4341 -13.8013
v -23.5516 75.2887 7.176397
v -22.0055 77.1238 -2.230701
v -23.5516 75.2887 -11.6377
v -11.2052 86.4409 -2.230701
v -17.2997 90.9439 10.6127
v -6.013401 88.804 4.419498
v -6.013401 88.804 -8.880802
v -17.2997 90.9439 -15.0741
v -20.1984 88.951 -2.230703
v -23.5516 90.1386 7.176397
v -23.5516 90.1386 -11.6377
v -19.2195 80.7463 -20.4786
v 1.1908 81.5701 -14.0391
v -27.0108 80.9516 -14.2717
v -22.1861 81.5335 -2.2307
v -27.0108 80.9516 9.810299
v -19.2195 80.7463 16.0173
v 1.190792 81.5701 9.284397
v -96.00891 84.9884 -0.344791
v -95.27359 78.3891 -5.624199
v -94.0148 77.1954 -1.577499
v -91.91979 80.6235 3.1604
v -91.58429 86.229 6.306202
v -92.24689 90.4801 5.371201
v -93.44299 93.0451 1.998402
v -94.6128 92.7237 -2.233994
v -95.36369 88.009 -6.551197
v -96.2626 82.0159 -7.916298
v -95.27359 78.3891 -5.624199
v -88.8265 76.1401 -9.620796
v -86.8978 74.3112 -3.420898
v -94.0148 77.1954 -1.577499
v -85.5571 79.4846 4.440804
v -91.91979 80.6235 3.1604
v -85.5571 79.4846 4.440804
v -85.72319 85.5402 7.575802
v -86.6756 92.7555 6.655003
v -88.5081 96.6852 1.487602
v -90.3631 95.4907 -5.508595
v -90.8334 90.7998 -10.43819
v -95.36369 88.009 -6.551197
v -90.8334 90.7998 -10.43819
v -90.3417 81.6967 -13.1325
v -96.2626 82.0159 -7.916298
v -81.2901 78.3158 -10.63879
v -80.28589 76.7935 -5.1558
v -80.3203 80.9546 1.743805
v -80.3203 80.9546 1.743805
v -78.2066 89.4607 6.170002
v -84.2566 88.7822 9.164602
v -80.5669 90.8445 7.062004
v -81.71469 93.7244 2.8414
v -82.3854 95.1629 0.949902
v -84.0752 98.368 -2.831097
v -88.7482 98.4144 -3.501297
v -82.12999 97.8745 -4.8937
v -84.7818 90.5223 -10.8374
v -84.7818 90.5223 -10.8374
v -83.19789 83.0384 -13.3675
v -77.7355 85.1094 -6.732903
v -71.2829 89.1846 -5.921898
v -69.848 93.8385 0.068001
v -70.35269 88.4432 0.019001
v -71.0798 96.4801 -3.4056
v -73.1973 94.5434 -8.002495
v -74.6864 87.1766 2.301203
v -75.6038 93.8737 2.011602
v -76.7838 96.4044 -1.316097
v -78.2421 94.8018 -7.725697
v -77.7355 85.1094 -6.732903
v 44.26309 82.9365 -15.1647
v 39.91899 78.4293 -15.1647
v 39.919 82.9365 -19.67191
v 39.919 82.9365 -10.65751
v 39.91899 87.4437 -15.1647
v 30.77129 79.8325 -15.1647
v 30.77129 82.9365 -18.2688
v 30.77129 82.9365 -12.0607
v 30.77129 86.0405 -15.1647
v 5.213898 79.8325 -14.9251
v 5.213894 82.9365 -18.0292
v 5.213898 82.9365 -11.8211
v 5.213898 86.0405 -14.9251
v -3.867302 78.6632 -15.1779
v -3.867302 82.9365 -19.4513
v -3.867302 82.9365 -10.9046
v -3.867302 87.2099 -15.1779
v -6.877098 82.9365 -12.49281
v 94.86011 82.6099 -21.82092
v 94.86012 82.6099 -8.659821
v 94.86011 78.1027 -15.24042
v 94.9789 105.4731 -19.56961
v 91.19211 104.2392 -15.24031
v 94.9789 105.4731 -10.91101
v 85.13261 78.4032 -15.24041
v 83.0686 82.7508 -18.34441
v 83.0686 82.7508 -12.13631
v 83.0686 85.8548 -15.24041
v 87.3562 90.5122 -15.24031
v 83.0686 82.7508 -18.34441
v 57.0853 78.5599 -14.29871
v 54.63409 82.7508 -18.7701
v 85.13261 78.4032 -15.24041
v 57.3761 82.7508 -11.17641
v 83.0686 82.7508 -12.13631
v 57.06899 85.8548 -14.29871
v 83.0686 85.8548 -15.24041
v 45.61449 77.3906 -14.08511
v 44.91479 82.7508 -20.3236
v 45.5982 82.7508 -9.811699
v 45.5982 87.0241 -14.08511
v 41.03289 82.7508 -15.25351
v -25.6121 82.9365 -31.1894
v -29.2628 79.2421 -30.5128
v -29.93611 82.9365 -34.1453
v -28.5896 82.9365 -26.8802
v -29.2628 86.631 -30.5128
v -36.9505 80.3922 -29.0879
v -37.4142 82.9365 -31.5896
v -36.4868 82.9365 -26.5863
v -36.9505 85.4808 -29.0879
v -55.7445 80.3922 -25.6224
v -56.2082 82.9365 -28.1241
v -55.2809 82.9365 -23.1207
v -55.7445 85.4808 -25.6224
v -64.6293 79.4338 -23.4107
v -66.3769 82.9365 -27.5889
v -64.1777 82.9365 -18.8622
v -64.6293 86.4393 -23.4107
v -68.0833 82.9365 -21.8788
v 16.902 86.631 -36.40421
v 16.902 79.2421 -36.40421
v 16.83329 82.9365 -38.5732
v 2.967796 82.9365 -40.1749
v -4.0466 80.3922 -35.1175
v -4.510303 82.9365 -37.6192
v 3.253399 79.2421 -37.07961
v -3.583 82.9365 -32.6158
v 3.352287 82.9365 -35.1006
v -4.0466 85.4808 -35.1175
v 3.253399 86.631 -37.07961
v -4.510303 82.9365 -37.6192
v -18.24861 80.3922 -31.9424
v -20.9627 82.9365 -35.1669
v -4.0466 80.3922 -35.1175
v -17.7849 82.9365 -29.4407
v -3.583 82.9365 -32.6158
v -18.24861 85.4808 -31.9424
v -4.0466 85.4808 -35.1175
v -24.8378 79.4338 -30.3193
v -26.3082 82.9365 -35.0406
v -24.19941 82.9365 -26.8752
v -24.8378 86.4393 -30.3193
v -28.9467 82.9365 -30.9892
v 9.324497 82.9365 -40.1394
v 9.997696 79.2421 -36.50681
v 9.997696 86.631 -36.50681
v -18.8001 81.3265 -5.565201
v -41.938 78.2225 -2.2216
v -41.938 81.3265 -5.3256
v -18.8001 78.2225 -2.461201
v -41.938 81.3265 0.8824
v -18.8001 81.3265 0.642798
v -41.938 84.4305 -2.2216
v -18.8001 84.4305 -2.461201
v -61.4327 80.4811 -4.656698
v -80.8751 78.1197 -2.113098
v -80.8752 80.4811 -4.474396
v -61.4327 78.1197 -2.295399
v -80.8752 80.4811 0.248203
v -61.4327 80.4811 0.066
v -80.8752 82.8424 -2.113094
v -61.4327 82.8424 -2.295399
v 44.2631 82.9365 10.75529
v 39.919 82.9365 15.2625
v 39.919 78.4293 10.75529
v 39.91899 82.9365 6.248093
v 39.919 87.4437 10.75529
v 30.7713 82.9365 13.8593
v 30.7713 79.8325 10.75529
v 30.7713 82.9365 7.651299
v 30.7713 86.0405 10.75529
v 5.213898 82.9365 13.6197
v 5.213902 79.8325 10.51569
v 5.213902 82.9365 7.411694
v 5.213902 86.0405 10.51569
v -3.867302 82.9365 15.0418
v -3.867302 78.6632 10.7685
v -3.867302 82.9365 6.495098
v -3.867302 87.2099 10.7685
v -6.877205 82.9365 8.083397
v 94.86011 82.6099 17.41139
v 94.86011 78.1027 10.83089
v 94.86011 82.6099 4.250381
v 94.97888 105.4731 15.16019
v 94.9789 105.4731 6.501587
v 91.19211 104.2392 10.83089
v 83.0686 82.7508 13.93499
v 85.1326 78.4032 10.83089
v 83.0686 82.7508 7.726891
v 83.0686 85.8548 10.83089
v 87.3562 90.5122 10.83089
v 83.0686 82.7508 13.93499
v 54.6341 82.7508 14.36069
v 57.08529 78.5599 9.889297
v 85.1326 78.4032 10.83089
v 57.3761 82.7508 6.766998
v 83.0686 82.7508 7.726891
v 57.069 85.8548 9.889297
v 83.0686 85.8548 10.83089
v 44.91479 82.7508 15.9142
v 45.61451 77.3906 9.67569
v 45.5982 82.7508 5.402298
v 45.59821 87.0241 9.67569
v 41.0328 82.7508 10.84409
v -25.6121 82.9365 26.78
v -29.9361 82.9365 29.7359
v -29.2629 79.2421 26.1033
v -28.5896 82.9365 22.4708
v -29.2628 86.631 26.1033
v -37.4142 82.9365 27.1802
v -36.9505 80.3922 24.6785
v -36.4868 82.9365 22.1768
v -36.9505 85.4808 24.6785
v -56.2082 82.9365 23.7147
v -55.7445 80.3922 21.213
v -55.2809 82.9365 18.7113
v -55.7445 85.4808 21.213
v -66.37689 82.9365 23.1795
v -64.6293 79.4338 19.0013
v -64.17769 82.9365 14.4527
v -64.6293 86.4393 19.0013
v -68.0833 82.9365 17.4694
v 16.902 86.631 31.99479
v 16.8333 82.9365 34.16369
v 16.902 79.2421 31.99479
v 2.967701 82.9365 35.7655
v -4.510296 82.9365 33.20979
v -4.0466 80.3922 30.7081
v 3.253399 79.2421 32.6702
v -3.583 82.9365 28.20639
v 3.352303 82.9365 30.6912
v -4.0466 85.4808 30.7081
v 3.253399 86.631 32.6702
v -4.510296 82.9365 33.20979
v -20.9628 82.9365 30.75739
v -18.2486 80.3922 27.5329
v -4.0466 80.3922 30.7081
v -17.7849 82.9365 25.0313
v -3.583 82.9365 28.20639
v -18.2486 85.4808 27.5329
v -4.0466 85.4808 30.7081
v -26.3083 82.9365 30.6311
v -24.8378 79.4338 25.9099
v -24.1994 82.9365 22.4658
v -24.8378 86.4393 25.9099
v -28.9467 82.9365 26.5797
v 9.324501 82.9365 35.72999
v 9.9977 79.2421 32.0974
v 9.9977 86.631 32.0974
vn 0.804615 -0.53501 -0.257605
vn 0.380801 -0.874603 0.300101
vn 0.348195 -0.932687 -0.094099
vn 0.922957 -0.381682 -0.049698
vn 0.363306 -0.865715 -0.344306
vn 0.836404 -0.533102 0.127401
vn 0.031601 -0.877235 0.479019
vn 0.056298 -0.998356 -0.0108
vn 0.028799 -0.917069 -0.397687
vn -0.313598 -0.771196 0.553997
vn -0.627087 -0.777784 -0.042599
vn -0.526907 -0.799711 -0.287804
vn 0.863821 0.40451 -0.300308
vn 0.687918 0.692619 0.216906
vn 0.439103 0.885606 -0.151301
vn 0.580598 0.778598 0.238099
vn 0.867438 0.262412 0.422719
vn 0.675596 0.735595 -0.0497
vn 0.0674 0.993704 -0.0895
vn -0.0085 0.792506 0.609805
vn 0.210413 0.817949 -0.535432
vn -0.664276 0.747473 -0.0047
vn -0.646128 0.670829 0.364016
vn -0.384801 0.753903 -0.532502
vn 0.590998 -0.0715 -0.803498
vn 0.97236 0.051698 -0.227691
vn 0.043801 -0.073502 -0.996333
vn -0.695112 -0.108202 -0.710712
vn -0.993373 0.102497 -0.051999
vn -0.664084 -0.0107 0.747582
vn 0.089296 -0.060598 0.99416
vn 0.549984 -0.0009 0.835175
vn 0.910404 -0.276001 0.308201
vn 0.268608 -0.961329 0.060802
vn -0.063197 -0.918863 0.389484
vn 0.0003 -0.998789 -0.049199
vn 0.853685 -0.520391 0.0204
vn -0.162898 -0.949886 -0.266796
vn 0.258797 -0.899591 -0.351796
vn -0.519501 -0.818202 0.246301
vn -0.635984 -0.759481 -0.136797
vn -0.61527 -0.785361 0.068197
vn 0.280594 0.959579 0.0218
vn -0.0654 0.926206 0.371302
vn 0.561102 0.827702 -0.0086
vn 0.513086 0.796178 0.320691
vn 0.057502 0.921328 -0.384512
vn -0.51492 0.857133 0.013401
vn -0.760295 0.648495 -0.0375
vn -0.436579 0.872757 -0.218389
vn -0.183405 -0.071602 -0.980426
vn 0.809434 0.172107 -0.561423
vn -0.96309 -0.168398 -0.209998
vn -0.9975 0.0586 -0.0395
vn -0.964528 0.0096 0.263808
vn -0.107395 -0.084096 0.990654
vn 0.742106 -0.135201 0.656505
vn -0.941595 -0.0397 0.334398
vn -0.729011 -0.67181 -0.131202
vn -0.561769 -0.704761 0.433276
vn -0.459205 -0.474306 0.751109
vn -0.480796 -0.109299 0.869994
vn -0.586823 0.359714 0.725428
vn -0.710093 0.622094 0.329797
vn -0.826389 0.545393 -0.140098
vn -0.847778 0.297592 -0.438989
vn -0.860302 -0.2142 -0.462601
vn -0.729011 -0.67181 -0.131202
vn -0.179701 -0.821203 -0.541602
vn 0.0218 -0.986203 0.1641
vn -0.561769 -0.704761 0.433276
vn 0.105699 -0.66979 0.734989
vn -0.459205 -0.474306 0.751109
vn 0.105699 -0.66979 0.734989
vn -0.025 -0.325294 0.945283
vn -0.117893 0.532866 0.837947
vn -0.289194 0.830484 0.476091
vn -0.470204 0.784607 -0.404104
vn -0.391808 0.48081 -0.784416
vn -0.847778 0.297592 -0.438989
vn -0.391808 0.48081 -0.784416
vn -0.340889 -0.162395 -0.925971
vn -0.860302 -0.2142 -0.462601
vn 0.454471 -0.552065 -0.699056
vn 0.626932 -0.77644 -0.064003
vn 0.608616 -0.653717 0.449712
vn 0.608616 -0.653717 0.449712
vn 0.568406 -0.0199 0.822508
vn 0.049903 0.326016 0.944046
vn 0.429986 0.287991 0.855672
vn 0.28419 0.732274 0.618878
vn 0.187393 0.830167 0.525079
vn 0.203603 0.935612 0.288404
vn -0.316494 0.936883 -0.148597
vn 0.115395 0.930259 -0.348285
vn 0.150399 0.480696 -0.863893
vn 0.150399 0.480696 -0.863893
vn 0.299113 0.100204 -0.948942
vn 0.712599 -0.3289 -0.619699
vn 0.792109 -0.422305 -0.440705
vn 0.755888 0.463793 0.462093
vn 0.711743 -0.386824 0.586336
vn 0.530211 0.812117 -0.243605
vn 0.347679 0.224886 -0.910245
vn 0.662403 -0.476102 0.578402
vn 0.204497 0.475193 0.855788
vn 0.126595 0.948864 0.289189
vn 0.136701 0.659907 -0.738807
vn 0.712599 -0.3289 -0.619699
vn 1 0 -0
vn 0.234293 -0.950673 0.203294
vn 0.234293 -0.203294 -0.950673
vn 0.234293 0.203294 0.950673
vn 0.234293 0.950673 -0.203294
vn -0.067402 -0.997726 0.0008
vn -0.073002 -0.0008 -0.997332
vn -0.064601 0.0008 0.997911
vn -0.070202 0.997533 -0.0008
vn 0.052202 -0.998637 0.0001
vn 0.066001 0.0008 -0.997819
vn 0.049598 -0.0003 0.998769
vn 0.0633 0.997994 0.0013
vn -0.265399 -0.955497 -0.1288
vn -0.413307 0.214304 -0.885015
vn -0.125101 -0.198401 0.972104
vn -0.265887 0.921256 0.283887
vn -0.972765 0 0.231792
vn 0.082598 -0.201596 -0.97598
vn 0.509405 0.090001 0.855808
vn 0.321609 -0.890726 0.321209
vn 0.628691 0.645691 -0.433394
vn -0.803368 0.50548 -0.314787
vn -0.287004 0.626208 0.724909
vn -0.057999 -0.994886 0.082699
vn -0.223189 -0.042398 -0.973853
vn -0.0642 0.0326 0.997405
vn -0.267186 0.95805 0.103695
vn -0.842796 0.537998 0.0159
vn -0.223189 -0.042398 -0.973853
vn 0.054399 -0.997384 0.047599
vn 0.059998 0.035299 -0.997574
vn -0.057999 -0.994886 0.082699
vn 0.067302 0.078602 0.994632
vn -0.0642 0.0326 0.997405
vn 0.056199 0.995088 0.081499
vn -0.267186 0.95805 0.103695
vn -0.294296 -0.945786 -0.137398
vn -0.279094 0.310793 -0.908579
vn -0.282107 -0.119403 0.951924
vn -0.240201 0.936903 0.254001
vn -0.99273 0.069602 0.098203
vn 0.982074 0 -0.188495
vn 0.257911 -0.953441 0.156307
vn 0.0638 -0.203 -0.977098
vn 0.387308 0.203904 0.899119
vn 0.190397 0.951286 -0.242496
vn -0.0651 -0.997796 0.0129
vn -0.229597 -0.0003 -0.973286
vn 0.098702 0.0011 0.995117
vn -0.065001 0.99782 0.0114
vn 0.065803 -0.997146 -0.037002
vn -0.119894 -0.016299 -0.992653
vn 0.264898 0.0188 0.964093
vn 0.054997 0.99845 0.0085
vn -0.269403 -0.957209 -0.105701
vn -0.51851 0.239604 -0.820815
vn -0.025201 -0.23051 0.972744
vn -0.185104 0.949218 0.254405
vn -0.953593 0 0.301098
vn 0.653102 0.676602 -0.340101
vn 0.630096 -0.323998 0.705695
vn 0.453924 -0.239513 -0.858246
vn -0.143199 -0.0012 -0.989693
vn -0.0633 -0.997993 -0.0018
vn -0.24131 -0.044202 -0.969441
vn 0.0189 -0.998007 0.0602
vn 0.221605 0.056101 0.973521
vn 0.131401 0.137101 0.981803
vn 0.0087 0.996884 0.078399
vn -0.118396 0.983063 -0.139895
vn -0.24131 -0.044202 -0.969441
vn 0.084101 -0.99581 0.0359
vn -0.0923 -0.0255 -0.995405
vn -0.0633 -0.997993 -0.0018
vn 0.269103 -0.0009 0.963111
vn 0.221605 0.056101 0.973521
vn 0.080997 0.99456 0.065497
vn 0.0087 0.996884 0.078399
vn -0.227095 -0.971579 -0.066799
vn -0.381592 0.273694 -0.882881
vn -0.090899 -0.206599 0.974194
vn -0.158104 0.948122 0.275806
vn -0.965904 0 0.258901
vn 0.081601 -0.0264 -0.996315
vn 0.126502 -0.964718 0.230904
vn 0.054699 0.831588 0.552692
vn -0.008801 -0.316216 -0.948647
vn -0.003 -0.948689 -0.316196
vn -0.008801 0.316216 -0.948647
vn 0.003 -0.948689 0.316196
vn 0.008901 -0.316215 0.948646
vn 0.008801 0.316216 0.948647
vn 0.003 0.948689 0.316196
vn -0.003 0.948689 -0.316196
vn -0.008 -0.316188 -0.948663
vn -0.0027 -0.94869 -0.316197
vn -0.008 0.316188 -0.948663
vn 0.0027 -0.94869 0.316197
vn 0.008 -0.316188 0.948663
vn 0.008 0.316188 0.948663
vn 0.0027 0.94869 0.316197
vn -0.0027 0.94869 -0.316197
vn 1 0 -0
vn 0.234293 -0.203294 0.950673
vn 0.234293 -0.950673 -0.203294
vn 0.234293 0.203294 -0.950673
vn 0.234293 0.950673 0.203294
vn -0.073002 -0.0008 0.997332
vn -0.067402 -0.997726 -0.0008
vn -0.064601 0.0008 -0.997911
vn -0.070202 0.997533 0.0008
vn 0.066001 0.0008 0.997819
vn 0.052202 -0.998637 -0.0001
vn 0.049598 -0.0003 -0.998769
vn 0.0633 0.997994 -0.0013
vn -0.413307 0.214304 0.885015
vn -0.265399 -0.955497 0.1288
vn -0.125101 -0.198401 -0.972104
vn -0.265887 0.921256 -0.283886
vn -0.972765 0 -0.231792
vn 0.082598 -0.201596 0.97598
vn 0.321609 -0.890726 -0.321209
vn 0.509405 0.090001 -0.855808
vn 0.628691 0.645691 0.433394
vn -0.287004 0.626208 -0.724909
vn -0.803368 0.50548 0.314787
vn -0.223189 -0.042398 0.973853
vn -0.057999 -0.994886 -0.082699
vn -0.0642 0.0326 -0.997405
vn -0.267186 0.95805 -0.103695
vn -0.842796 0.537998 -0.0159
vn -0.223189 -0.042398 0.973853
vn 0.059999 0.035299 0.997574
vn 0.054399 -0.997384 -0.047599
vn -0.057999 -0.994886 -0.082699
vn 0.067302 0.078603 -0.994632
vn -0.0642 0.0326 -0.997405
vn 0.056199 0.995088 -0.081499
vn -0.267186 0.95805 -0.103695
vn -0.279093 0.310793 0.908579
vn -0.294296 -0.945786 0.137398
vn -0.282107 -0.119403 -0.951924
vn -0.240201 0.936903 -0.254001
vn -0.99273 0.069602 -0.098203
vn 0.982074 0 0.188495
vn 0.0638 -0.203 0.977098
vn 0.257911 -0.953441 -0.156307
vn 0.387308 0.203904 -0.899119
vn 0.190397 0.951286 0.242496
vn -0.229597 -0.0003 0.973286
vn -0.0651 -0.997796 -0.0129
vn 0.098702 0.0011 -0.995117
vn -0.065001 0.99782 -0.0114
vn -0.119894 -0.016299 0.992653
vn 0.065803 -0.997146 0.037002
vn 0.264898 0.0188 -0.964093
vn 0.054997 0.99845 -0.0085
vn -0.51851 0.239605 0.820815
vn -0.269403 -0.957209 0.105701
vn -0.025201 -0.23051 -0.972744
vn -0.185104 0.949218 -0.254405
vn -0.953593 0 -0.301098
vn 0.653102 0.676602 0.340101
vn 0.453925 -0.239513 0.858246
vn 0.630095 -0.323998 -0.705695
vn -0.143199 -0.0012 0.989693
vn -0.24131 -0.044202 0.969441
vn -0.0633 -0.997993 0.0018
vn 0.0189 -0.998007 -0.0602
vn 0.221605 0.056101 -0.973522
vn 0.1314 0.1371 -0.981803
vn 0.0087 0.996884 -0.078399
vn -0.118396 0.983063 0.139895
vn -0.24131 -0.044202 0.969441
vn -0.0923 -0.0255 0.995405
vn 0.084101 -0.99581 -0.0359
vn -0.0633 -0.997993 0.0018
vn 0.269103 -0.0009 -0.963111
vn 0.221605 0.056101 -0.973522
vn 0.080997 0.99456 -0.065497
vn 0.0087 0.996884 -0.078399
vn -0.381592 0.273694 0.882881
vn -0.227095 -0.971579 0.066799
vn -0.0909 -0.206599 -0.974194
vn -0.158104 0.948122 -0.275806
vn -0.965904 0 -0.258901
vn 0.081601 -0.0264 0.996315
vn 0.126502 -0.964718 -0.230904
vn 0.054699 0.831588 -0.552692
vt 0.1484 0.4695
vt 0.0538 0.6582
vt 0.2043 0.5605
vt 0.2043 0.5105
vt 0.3549 0.6582
vt 0.2602 0.4695
vt 0.059 0.7496
vt 0.2043 0.7668
vt 0.3497 0.7496
vt 0.0577 0.9109
vt 0.2044 0.9943
vt 0.351 0.9109
vt 0.1484 0.4689
vt 0.2043 0.5456
vt 0.2043 0.6397
vt 0.1178 0.5137
vt 0.2602 0.4689
vt 0.2909 0.5137
vt 0.2043 0.7729
vt 0.059 0.7496
vt 0.3497 0.7496
vt 0.2044 0.9389
vt 0.0577 0.9109
vt 0.351 0.9109
vt 0.3561 0.5137
vt 0.2759 0.4595
vt 0.4108 0.7797
vt 0.392 0.9651
vt 0.2044 0.9971
vt 0.0166 0.9651
vt -0.0022 0.7797
vt 0.0526 0.5137
vt 0.1328 0.4595
vt 0.0835 0.6102
vt 0.0684 0.7452
vt 0.2047 0.7112
vt 0.205 0.5774
vt 0.3411 0.7452
vt 0.3276 0.6157
vt 0.1048 0.8329
vt 0.2047 0.8112
vt 0.3046 0.8329
vt 0.2047 0.6598
vt 0.0684 0.7452
vt 0.1341 0.587
vt 0.2753 0.587
vt 0.3411 0.7452
vt 0.2047 0.7859
vt 0.1048 0.8329
vt 0.3046 0.8329
vt 0.3984 0.7721
vt 0.3301 0.486
vt 0.3326 0.8814
vt 0.2047 0.8137
vt 0.0769 0.8814
vt 0.011 0.7721
vt 0.0825 0.486
vt 0.5868 0.7126
vt 0.5868 0.6938
vt 0.528 0.6938
vt 0.4967 0.6814
vt 0.5075 0.6817
vt 0.5555 0.6817
vt 0.6181 0.6817
vt 0.6661 0.6817
vt 0.677 0.6814
vt 0.6457 0.6938
vt 0.5888 0.7022
vt 0.5888 0.6399
vt 0.5 0.6399
vt 0.5459 0.7022
vt 0.4527 0.6427
vt 0.523 0.6949
vt 0.4487 0.6129
vt 0.4654 0.6186
vt 0.5389 0.6188
vt 0.6348 0.6188
vt 0.7083 0.6186
vt 0.725 0.6129
vt 0.6546 0.6949
vt 0.7249 0.6427
vt 0.6776 0.6399
vt 0.6318 0.7022
vt 0.5888 0.6045
vt 0.5002 0.6092
vt 0.453 0.6201
vt 0.47 0.5416
vt 0.4841 0.5223
vt 0.4692 0.6032
vt 0.495 0.5512
vt 0.5693 0.5475
vt 0.6044 0.5475
vt 0.6787 0.5512
vt 0.7044 0.6032
vt 0.6896 0.5223
vt 0.7036 0.5416
vt 0.7246 0.6201
vt 0.6775 0.6092
vt 0.5888 0.5835
vt 0.5868 0.4024
vt 0.5546 0.4004
vt 0.5124 0.4119
vt 0.6191 0.4004
vt 0.6613 0.4119
vt 0.4937 0.4712
vt 0.5559 0.4736
vt 0.6177 0.4736
vt 0.6799 0.4712
vt 0.5868 0.4791
vt 0.7811 0.4993
vt 0.7811 0.54
vt 0.7345 0.54
vt 0.8278 0.54
vt 0.7811 0.54
vt 0.7811 0.6257
vt 0.749 0.6257
vt 0.8133 0.6257
vt 0.7811 0.6257
vt 0.7836 0.8653
vt 0.7515 0.8653
vt 0.8158 0.8653
vt 0.7836 0.8653
vt 0.781 0.9504
vt 0.7368 0.9504
vt 0.8252 0.9504
vt 0.781 0.9504
vt 0.8088 0.9786
vt 0.716 0.3095
vt 0.5232 0.3095
vt 0.6196 0.3671
vt 0.683 0.0173
vt 0.6196 0.0331
vt 0.5562 0.0173
vt 0.6196 0.3633
vt 0.6651 0.3077
vt 0.5741 0.3077
vt 0.6196 0.268
vt 0.6196 0.2085
vt 0.7719 0.1065
vt 0.7901 0.3791
vt 0.7438 0.4021
vt 0.804 0.0872
vt 0.8224 0.3764
vt 0.8362 0.1065
vt 0.7901 0.3792
vt 0.804 0.1065
vt 0.7923 0.4866
vt 0.7277 0.4932
vt 0.8366 0.4868
vt 0.7923 0.4868
vt 0.7802 0.5295
vt 0.9411 0.4745
vt 0.9421 0.5131
vt 0.9867 0.497
vt 0.8994 0.5558
vt 0.9421 0.5131
vt 0.944 0.5944
vt 0.9747 0.6036
vt 0.9152 0.6117
vt 0.944 0.5944
vt 0.9489 0.7927
vt 0.9777 0.8212
vt 0.9182 0.8487
vt 0.9489 0.7927
vt 0.9445 0.8999
vt 0.9962 0.897
vt 0.8895 1.0042
vt 0.9445 0.8999
vt 0.9348 0.9575
vt 0.5425 0.0048
vt 0.716 0.0241
vt 0.6263 0.0059
vt 0.6263 0.2345
vt 0.684 0.3501
vt 0.6263 0.3578
vt 0.7101 0.2298
vt 0.6263 0.3425
vt 0.6263 0.2282
vt 0.5686 0.3501
vt 0.5425 0.2298
vt 0.9656 0.192
vt 0.932 0.411
vt 0.9768 0.4172
vt 0.9349 0.248
vt 0.9033 0.4284
vt 0.9042 0.3041
vt 0.932 0.411
vt 0.9349 0.248
vt 0.9289 0.4901
vt 0.9884 0.4534
vt 0.8886 0.5286
vt 0.9289 0.4901
vt 0.9469 0.4999
vt 0.6263 0.1297
vt 0.7101 0.1186
vt 0.5425 0.1186
vt 0.7467 0.1828
vt 0.4792 0.1165
vt 0.4819 0.1799
vt 0.744 0.1195
vt 0.4766 0.0532
vt 0.7414 0.0561
vt 0.4792 0.1165
vt 0.744 0.1195
vt 0.7614 0.1678
vt 0.5369 0.1175
vt 0.5389 0.1657
vt 0.7594 0.1196
vt 0.5349 0.0693
vt 0.7573 0.0714
vt 0.5369 0.1175
vt 0.7594 0.1196
vt 0.7811 0.4993
vt 0.7345 0.54
vt 0.7811 0.54
vt 0.8278 0.54
vt 0.7811 0.54
vt 0.749 0.6257
vt 0.7811 0.6257
vt 0.8133 0.6257
vt 0.7811 0.6257
vt 0.7515 0.8653
vt 0.7836 0.8653
vt 0.8158 0.8653
vt 0.7836 0.8653
vt 0.7368 0.9504
vt 0.781 0.9504
vt 0.8252 0.9504
vt 0.781 0.9504
vt 0.8088 0.9786
vt 0.716 0.3095
vt 0.6196 0.3671
vt 0.5232 0.3095
vt 0.683 0.0173
vt 0.5562 0.0173
vt 0.6196 0.0331
vt 0.6651 0.3077
vt 0.6196 0.3633
vt 0.5741 0.3077
vt 0.6196 0.268
vt 0.6196 0.2085
vt 0.7719 0.1065
vt 0.7438 0.4021
vt 0.7901 0.3791
vt 0.804 0.0872
vt 0.8224 0.3764
vt 0.8362 0.1065
vt 0.7901 0.3792
vt 0.804 0.1065
vt 0.7277 0.4932
vt 0.7923 0.4866
vt 0.8366 0.4868
vt 0.7923 0.4868
vt 0.7802 0.5295
vt 0.9411 0.4745
vt 0.9867 0.497
vt 0.9421 0.5131
vt 0.8994 0.5558
vt 0.9421 0.5131
vt 0.9747 0.6036
vt 0.944 0.5944
vt 0.9152 0.6117
vt 0.944 0.5944
vt 0.9777 0.8212
vt 0.9489 0.7927
vt 0.9182 0.8487
vt 0.9489 0.7927
vt 0.9962 0.897
vt 0.9445 0.8999
vt 0.8895 1.0042
vt 0.9445 0.8999
vt 0.9348 0.9575
vt 0.5425 0.0048
vt 0.6263 0.0059
vt 0.716 0.0241
vt 0.6263 0.2345
vt 0.6263 0.3578
vt 0.684 0.3501
vt 0.7101 0.2298
vt 0.6263 0.3425
vt 0.6263 0.2282
vt 0.5686 0.3501
vt 0.5425 0.2298
vt 0.9656 0.192
vt 0.9768 0.4172
vt 0.932 0.411
vt 0.9349 0.248
vt 0.9033 0.4284
vt 0.9042 0.3041
vt 0.932 0.411
vt 0.9349 0.248
vt 0.9884 0.4534
vt 0.9289 0.4901
vt 0.8886 0.5286
vt 0.9289 0.4901
vt 0.9469 0.4999
vt 0.6263 0.1297
vt 0.7101 0.1186
vt 0.5425 0.1186
f 347/347/347 349/349/349 348/348/348
f 349/349/349 347/347/347 350/350/350
f 350/350/350 351/351/351 349/349/349
f 351/351/351 350/350/350 352/352/352
f 348/348/348 354/354/354 353/353/353
f 354/354/354 348/348/348 349/349/349
f 349/349/349 355/355/355 354/354/354
f 355/355/355 349/349/349 351/351/351
f 353/353/353 357/357/357 356/356/356
f 357/357/357 353/353/353 354/354/354
f 354/354/354 358/358/358 357/357/357
f 358/358/358 354/354/354 355/355/355
f 359/359/359 361/361/361 360/360/360
f 361/361/361 359/359/359 362/362/362
f 360/360/360 364/364/364 363/363/363
f 364/364/364 360/360/360 361/361/361
f 362/362/362 365/365/365 361/361/361
f 365/365/365 362/362/362 366/366/366
f 361/361/361 367/367/367 364/364/364
f 367/367/367 361/361/361 365/365/365
f 366/366/366 368/368/368 365/365/365
f 368/368/368 366/366/366 369/369/369
f 365/365/365 370/370/370 367/367/367
f 370/370/370 365/365/365 368/368/368
f 352/352/352 371/371/371 351/351/351
f 371/371/371 352/352/352 372/372/372
f 351/351/351 373/373/373 355/355/355
f 373/373/373 351/351/351 371/371/371
f 355/355/355 374/374/374 358/358/358
f 374/374/374 355/355/355 373/373/373
f 372/372/372 364/364/364 371/371/371
f 364/364/364 372/372/372 363/363/363
f 371/371/371 367/367/367 373/373/373
f 367/367/367 371/371/371 364/364/364
f 373/373/373 370/370/370 374/374/374
f 370/370/370 373/373/373 367/367/367
f 358/358/358 375/375/375 357/357/357
f 375/375/375 358/358/358 374/374/374
f 357/357/357 376/376/376 356/356/356
f 376/376/376 357/357/357 375/375/375
f 374/374/374 368/368/368 375/375/375
f 368/368/368 374/374/374 370/370/370
f 375/375/375 369/369/369 376/376/376
f 369/369/369 375/375/375 368/368/368
f 356/356/356 377/377/377 353/353/353
f 377/377/377 356/356/356 376/376/376
f 353/353/353 378/378/378 348/348/348
f 378/378/378 353/353/353 377/377/377
f 348/348/348 379/379/379 347/347/347
f 379/379/379 348/348/348 378/378/378
f 376/376/376 366/366/366 377/377/377
f 366/366/366 376/376/376 369/369/369
f 377/377/377 362/362/362 378/378/378
f 362/362/362 377/377/377 366/366/366
f 378/378/378 359/359/359 379/379/379
f 359/359/359 378/378/378 362/362/362
f 380/380/380 382/382/382 381/381/381
f 382/382/382 380/380/380 383/383/383
f 383/383/383 384/384/384 382/382/382
f 384/384/384 383/383/383 385/385/385
f 381/381/381 387/387/387 386/386/386
f 387/387/387 381/381/381 382/382/382
f 382/382/382 388/388/388 387/387/387
f 388/388/388 382/382/382 384/384/384
f 389/389/389 391/391/391 390/390/390
f 389/389/389 393/393/393 392/392/392
f 390/390/390 394/394/394 389/389/389
f 394/394/394 390/390/390 395/395/395
f 389/389/389 396/396/396 393/393/393
f 396/396/396 389/389/389 394/394/394
f 385/385/385 397/397/397 384/384/384
f 397/397/397 385/385/385 398/398/398
f 384/384/384 399/399/399 388/388/388
f 399/399/399 384/384/384 397/397/397
f 398/398/398 393/393/393 397/397/397
f 393/393/393 398/398/398 392/392/392
f 397/397/397 396/396/396 399/399/399
f 396/396/396 397/397/397 393/393/393
f 388/388/388 400/400/400 387/387/387
f 400/400/400 388/388/388 399/399/399
f 387/387/387 401/401/401 386/386/386
f 401/401/401 387/387/387 400/400/400
f 399/399/399 394/394/394 400/400/400
f 394/394/394 399/399/399 396/396/396
f 400/400/400 395/395/395 401/401/401
f 395/395/395 400/400/400 394/394/394
f 386/386/386 402/402/402 381/381/381
f 402/402/402 386/386/386 401/401/401
f 381/381/381 403/403/403 380/380/380
f 403/403/403 381/381/381 402/402/402
f 401/401/401 390/390/390 402/402/402
f 390/390/390 401/401/401 395/395/395
f 402/402/402 391/391/391 403/403/403
f 391/391/391 402/402/402 390/390/390
f 404/404/404 406/406/406 405/405/405
f 404/404/404 407/407/407 406/406/406
f 404/404/404 408/408/408 407/407/407
f 404/404/404 409/409/409 408/408/408
f 404/404/404 410/410/410 409/409/409
f 404/404/404 411/411/411 410/410/410
f 404/404/404 412/412/412 411/411/411
f 404/404/404 413/413/413 412/412/412
f 404/404/404 405/405/405 413/413/413
f 414/414/414 416/416/416 415/415/415
f 414/414/414 417/417/417 416/416/416
f 417/417/417 418/418/418 416/416/416
f 417/417/417 419/419/419 418/418/418
f 407/407/407 421/421/421 420/420/420
f 407/407/407 408/408/408 421/421/421
f 408/408/408 422/422/422 421/421/421
f 408/408/408 409/409/409 422/422/422
f 409/409/409 423/423/423 422/422/422
f 409/409/409 410/410/410 423/423/423
f 410/410/410 424/424/424 423/423/423
f 410/410/410 411/411/411 424/424/424
f 411/411/411 425/425/425 424/424/424
f 411/411/411 412/412/412 425/425/425
f 426/426/426 428/428/428 427/427/427
f 426/426/426 429/429/429 428/428/428
f 429/429/429 415/415/415 428/428/428
f 429/429/429 414/414/414 415/415/415
f 415/415/415 431/431/431 430/430/430
f 415/415/415 416/416/416 431/431/431
f 416/416/416 432/432/432 431/431/431
f 416/416/416 418/418/418 432/432/432
f 420/420/420 434/434/434 433/433/433
f 420/420/420 421/421/421 434/434/434
f 435/435/435 437/437/437 436/436/436
f 435/435/435 422/422/422 437/437/437
f 422/422/422 438/438/438 437/437/437
f 422/422/422 423/423/423 438/438/438
f 423/423/423 439/439/439 438/438/438
f 423/423/423 440/440/440 439/439/439
f 424/424/424 442/442/442 441/441/441
f 424/424/424 425/425/425 442/442/442
f 427/427/427 444/444/444 443/443/443
f 427/427/427 428/428/428 444/444/444
f 428/428/428 430/430/430 444/444/444
f 428/428/428 415/415/415 430/430/430
f 445/445/445 430/430/430 431/431/431
f 445/445/445 431/431/431 432/432/432
f 446/446/446 448/448/448 447/447/447
f 446/446/446 447/447/447 449/449/449
f 446/446/446 449/449/449 450/450/450
f 445/445/445 443/443/443 444/444/444
f 445/445/445 444/444/444 430/430/430
f 437/437/437 451/451/451 434/434/434
f 451/451/451 437/437/437 452/452/452
f 438/438/438 452/452/452 437/437/437
f 452/452/452 438/438/438 453/453/453
f 441/441/441 453/453/453 438/438/438
f 453/453/453 441/441/441 454/454/454
f 452/452/452 448/448/448 451/451/451
f 448/448/448 452/452/452 447/447/447
f 451/451/451 446/446/446 455/455/455
f 446/446/446 451/451/451 448/448/448
f 453/453/453 447/447/447 452/452/452
f 447/447/447 453/453/453 449/449/449
f 455/455/455 450/450/450 454/454/454
f 450/450/450 455/455/455 446/446/446
f 454/454/454 449/449/449 453/453/453
f 449/449/449 454/454/454 450/450/450
f 442/442/442 454/454/454 441/441/441
f 454/454/454 442/442/442 455/455/455
f 434/434/434 451/451/451 433/433/433
f 433/433/433 451/451/451 455/455/455
f 422/422/422 435/435/435 421/421/421
f 423/423/423 424/424/424 440/440/440
f 421/421/421 436/436/436 434/434/434
f 436/436/436 421/421/421 435/435/435
f 437/437/437 434/434/434 436/436/436
f 438/438/438 439/439/439 441/441/441
f 441/441/441 440/440/440 424/424/424
f 440/440/440 441/441/441 439/439/439
f 456/456/456 458/458/458 457/457/457
f 456/456/456 457/457/457 459/459/459
f 456/456/456 459/459/459 460/460/460
f 456/456/456 460/460/460 458/458/458
f 458/458/458 462/462/462 461/461/461
f 458/458/458 461/461/461 457/457/457
f 457/457/457 461/461/461 463/463/463
f 457/457/457 463/463/463 459/459/459
f 459/459/459 463/463/463 464/464/464
f 459/459/459 464/464/464 460/460/460
f 460/460/460 464/464/464 462/462/462
f 460/460/460 462/462/462 458/458/458
f 462/462/462 466/466/466 465/465/465
f 462/462/462 465/465/465 461/461/461
f 461/461/461 465/465/465 467/467/467
f 461/461/461 467/467/467 463/463/463
f 463/463/463 467/467/467 468/468/468
f 463/463/463 468/468/468 464/464/464
f 464/464/464 468/468/468 466/466/466
f 464/464/464 466/466/466 462/462/462
f 466/466/466 470/470/470 469/469/469
f 466/466/466 469/469/469 465/465/465
f 465/465/465 469/469/469 471/471/471
f 465/465/465 471/471/471 467/467/467
f 467/467/467 471/471/471 472/472/472
f 467/467/467 472/472/472 468/468/468
f 468/468/468 472/472/472 470/470/470
f 468/468/468 470/470/470 466/466/466
f 473/473/473 469/469/469 470/470/470
f 473/473/473 471/471/471 469/469/469
f 473/473/473 472/472/472 471/471/471
f 473/473/473 470/470/470 472/472/472
f 474/474/474 476/476/476 475/475/475
f 477/477/477 479/479/479 478/478/478
f 474/474/474 481/481/481 480/480/480
f 474/474/474 480/480/480 476/476/476
f 476/476/476 480/480/480 482/482/482
f 476/476/476 482/482/482 475/475/475
f 475/475/475 482/482/482 483/483/483
f 475/475/475 483/483/483 484/484/484
f 484/484/484 483/483/483 481/481/481
f 484/484/484 481/481/481 474/474/474
f 485/485/485 487/487/487 486/486/486
f 485/485/485 486/486/486 488/488/488
f 488/488/488 486/486/486 489/489/489
f 488/488/488 489/489/489 490/490/490
f 490/490/490 489/489/489 491/491/491
f 490/490/490 491/491/491 492/492/492
f 492/492/492 491/491/491 487/487/487
f 492/492/492 487/487/487 485/485/485
f 487/487/487 494/494/494 493/493/493
f 487/487/487 493/493/493 486/486/486
f 486/486/486 493/493/493 495/495/495
f 486/486/486 495/495/495 489/489/489
f 489/489/489 495/495/495 496/496/496
f 489/489/489 496/496/496 491/491/491
f 491/491/491 496/496/496 494/494/494
f 491/491/491 494/494/494 487/487/487
f 497/497/497 493/493/493 494/494/494
f 497/497/497 495/495/495 493/493/493
f 497/497/497 496/496/496 495/495/495
f 497/497/497 494/494/494 496/496/496
f 498/498/498 500/500/500 499/499/499
f 498/498/498 499/499/499 501/501/501
f 498/498/498 501/501/501 502/502/502
f 498/498/498 502/502/502 500/500/500
f 500/500/500 504/504/504 503/503/503
f 500/500/500 503/503/503 499/499/499
f 499/499/499 503/503/503 505/505/505
f 499/499/499 505/505/505 501/501/501
f 501/501/501 505/505/505 506/506/506
f 501/501/501 506/506/506 502/502/502
f 502/502/502 506/506/506 504/504/504
f 502/502/502 504/504/504 500/500/500
f 504/504/504 508/508/508 507/507/507
f 504/504/504 507/507/507 503/503/503
f 503/503/503 507/507/507 509/509/509
f 503/503/503 509/509/509 505/505/505
f 505/505/505 509/509/509 510/510/510
f 505/505/505 510/510/510 506/506/506
f 506/506/506 510/510/510 508/508/508
f 506/506/506 508/508/508 504/504/504
f 508/508/508 512/512/512 511/511/511
f 508/508/508 511/511/511 507/507/507
f 507/507/507 511/511/511 513/513/513
f 507/507/507 513/513/513 509/509/509
f 509/509/509 513/513/513 514/514/514
f 509/509/509 514/514/514 510/510/510
f 510/510/510 514/514/514 512/512/512
f 510/510/510 512/512/512 508/508/508
f 515/515/515 511/511/511 512/512/512
f 515/515/515 513/513/513 511/511/511
f 515/515/515 514/514/514 513/513/513
f 515/515/515 512/512/512 514/514/514
f 516/516/516 518/518/518 517/517/517
f 519/519/519 521/521/521 520/520/520
f 519/519/519 520/520/520 522/522/522
f 522/522/522 520/520/520 523/523/523
f 522/522/522 523/523/523 524/524/524
f 524/524/524 523/523/523 525/525/525
f 524/524/524 525/525/525 526/526/526
f 526/526/526 525/525/525 521/521/521
f 526/526/526 521/521/521 519/519/519
f 527/527/527 529/529/529 528/528/528
f 527/527/527 528/528/528 530/530/530
f 530/530/530 528/528/528 531/531/531
f 530/530/530 531/531/531 532/532/532
f 532/532/532 531/531/531 533/533/533
f 532/532/532 533/533/533 534/534/534
f 534/534/534 533/533/533 529/529/529
f 534/534/534 529/529/529 527/527/527
f 529/529/529 536/536/536 535/535/535
f 529/529/529 535/535/535 528/528/528
f 528/528/528 535/535/535 537/537/537
f 528/528/528 537/537/537 531/531/531
f 531/531/531 537/537/537 538/538/538
f 531/531/531 538/538/538 533/533/533
f 533/533/533 538/538/538 536/536/536
f 533/533/533 536/536/536 529/529/529
f 539/539/539 535/535/535 536/536/536
f 539/539/539 537/537/537 535/535/535
f 539/539/539 538/538/538 537/537/537
f 539/539/539 536/536/536 538/538/538
f 475/475/475 477/477/477 474/474/474
f 477/477/477 475/475/475 479/479/479
f 484/484/484 479/479/479 475/475/475
f 479/479/479 484/484/484 478/478/478
f 474/474/474 478/478/478 484/484/484
f 478/478/478 474/474/474 477/477/477
f 522/522/522 540/540/540 519/519/519
f 540/540/540 522/522/522 541/541/541
f 524/524/524 541/541/541 522/522/522
f 541/541/541 524/524/524 542/542/542
f 526/526/526 542/542/542 524/524/524
f 519/519/519 542/542/542 526/526/526
f 542/542/542 519/519/519 540/540/540
f 541/541/541 518/518/518 540/540/540
f 518/518/518 541/541/541 517/517/517
f 542/542/542 517/517/517 541/541/541
f 517/517/517 542/542/542 516/516/516
f 540/540/540 516/516/516 542/542/542
f 516/516/516 540/540/540 518/518/518
f 543/543/543 545/545/545 544/544/544
f 543/543/543 544/544/544 546/546/546
f 546/546/546 544/544/544 547/547/547
f 546/546/546 547/547/547 548/548/548
f 548/548/548 547/547/547 549/549/549
f 548/548/548 549/549/549 550/550/550
f 550/550/550 549/549/549 545/545/545
f 550/550/550 545/545/545 543/543/543
f 551/551/551 553/553/553 552/552/552
f 551/551/551 552/552/552 554/554/554
f 554/554/554 552/552/552 555/555/555
f 554/554/554 555/555/555 556/556/556
f 556/556/556 555/555/555 557/557/557
f 556/556/556 557/557/557 558/558/558
f 558/558/558 557/557/557 553/553/553
f 558/558/558 553/553/553 551/551/551
f 389/389/389 383/383/383 391/391/391
f 383/383/383 403/403/403 391/391/391
f 403/403/403 383/383/383 380/380/380
f 392/392/392 383/383/383 389/389/389
f 398/398/398 383/383/383 392/392/392
f 398/398/398 385/385/385 383/383/383
f 363/363/363 350/350/350 360/360/360
f 350/350/350 363/363/363 352/352/352
f 350/350/350 359/359/359 360/360/360
f 359/359/359 350/350/350 347/347/347
f 359/359/359 347/347/347 379/379/379
f 372/372/372 352/352/352 363/363/363
f 559/559/559 561/561/561 560/560/560
f 559/559/559 562/562/562 561/561/561
f 559/559/559 563/563/563 562/562/562
f 559/559/559 560/560/560 563/563/563
f 560/560/560 565/565/565 564/564/564
f 560/560/560 561/561/561 565/565/565
f 561/561/561 566/566/566 565/565/565
f 561/561/561 562/562/562 566/566/566
f 562/562/562 567/567/567 566/566/566
f 562/562/562 563/563/563 567/567/567
f 563/563/563 564/564/564 567/567/567
f 563/563/563 560/560/560 564/564/564
f 564/564/564 569/569/569 568/568/568
f 564/564/564 565/565/565 569/569/569
f 565/565/565 570/570/570 569/569/569
f 565/565/565 566/566/566 570/570/570
f 566/566/566 571/571/571 570/570/570
f 566/566/566 567/567/567 571/571/571
f 567/567/567 568/568/568 571/571/571
f 567/567/567 564/564/564 568/568/568
f 568/568/568 573/573/573 572/572/572
f 568/568/568 569/569/569 573/573/573
f 569/569/569 574/574/574 573/573/573
f 569/569/569 570/570/570 574/574/574
f 570/570/570 575/575/575 574/574/574
f 570/570/570 571/571/571 575/575/575
f 571/571/571 572/572/572 575/575/575
f 571/571/571 568/568/568 572/572/572
f 576/576/576 572/572/572 573/573/573
f 576/576/576 573/573/573 574/574/574
f 576/576/576 574/574/574 575/575/575
f 576/576/576 575/575/575 572/572/572
f 577/577/577 579/579/579 578/578/578
f 580/580/580 582/582/582 581/581/581
f 577/577/577 584/584/584 583/583/583
f 577/577/577 578/578/578 584/584/584
f 578/578/578 585/585/585 584/584/584
f 578/578/578 579/579/579 585/585/585
f 579/579/579 586/586/586 585/585/585
f 579/579/579 587/587/587 586/586/586
f 587/587/587 583/583/583 586/586/586
f 587/587/587 577/577/577 583/583/583
f 588/588/588 590/590/590 589/589/589
f 588/588/588 591/591/591 590/590/590
f 591/591/591 592/592/592 590/590/590
f 591/591/591 593/593/593 592/592/592
f 593/593/593 594/594/594 592/592/592
f 593/593/593 595/595/595 594/594/594
f 595/595/595 589/589/589 594/594/594
f 595/595/595 588/588/588 589/589/589
f 589/589/589 597/597/597 596/596/596
f 589/589/589 590/590/590 597/597/597
f 590/590/590 598/598/598 597/597/597
f 590/590/590 592/592/592 598/598/598
f 592/592/592 599/599/599 598/598/598
f 592/592/592 594/594/594 599/599/599
f 594/594/594 596/596/596 599/599/599
f 594/594/594 589/589/589 596/596/596
f 600/600/600 596/596/596 597/597/597
f 600/600/600 597/597/597 598/598/598
f 600/600/600 598/598/598 599/599/599
f 600/600/600 599/599/599 596/596/596
f 601/601/601 603/603/603 602/602/602
f 601/601/601 604/604/604 603/603/603
f 601/601/601 605/605/605 604/604/604
f 601/601/601 602/602/602 605/605/605
f 602/602/602 607/607/607 606/606/606
f 602/602/602 603/603/603 607/607/607
f 603/603/603 608/608/608 607/607/607
f 603/603/603 604/604/604 608/608/608
f 604/604/604 609/609/609 608/608/608
f 604/604/604 605/605/605 609/609/609
f 605/605/605 606/606/606 609/609/609
f 605/605/605 602/602/602 606/606/606
f 606/606/606 611/611/611 610/610/610
f 606/606/606 607/607/607 611/611/611
f 607/607/607 612/612/612 611/611/611
f 607/607/607 608/608/608 612/612/612
f 608/608/608 613/613/613 612/612/612
f 608/608/608 609/609/609 613/613/613
f 609/609/609 610/610/610 613/613/613
f 609/609/609 606/606/606 610/610/610
f 610/610/610 615/615/615 614/614/614
f 610/610/610 611/611/611 615/615/615
f 611/611/611 616/616/616 615/615/615
f 611/611/611 612/612/612 616/616/616
f 612/612/612 617/617/617 616/616/616
f 612/612/612 613/613/613 617/617/617
f 613/613/613 614/614/614 617/617/617
f 613/613/613 610/610/610 614/614/614
f 618/618/618 614/614/614 615/615/615
f 618/618/618 615/615/615 616/616/616
f 618/618/618 616/616/616 617/617/617
f 618/618/618 617/617/617 614/614/614
f 619/619/619 621/621/621 620/620/620
f 622/622/622 624/624/624 623/623/623
f 622/622/622 625/625/625 624/624/624
f 625/625/625 626/626/626 624/624/624
f 625/625/625 627/627/627 626/626/626
f 627/627/627 628/628/628 626/626/626
f 627/627/627 629/629/629 628/628/628
f 629/629/629 623/623/623 628/628/628
f 629/629/629 622/622/622 623/623/623
f 630/630/630 632/632/632 631/631/631
f 630/630/630 633/633/633 632/632/632
f 633/633/633 634/634/634 632/632/632
f 633/633/633 635/635/635 634/634/634
f 635/635/635 636/636/636 634/634/634
f 635/635/635 637/637/637 636/636/636
f 637/637/637 631/631/631 636/636/636
f 637/637/637 630/630/630 631/631/631
f 631/631/631 639/639/639 638/638/638
f 631/631/631 632/632/632 639/639/639
f 632/632/632 640/640/640 639/639/639
f 632/632/632 634/634/634 640/640/640
f 634/634/634 641/641/641 640/640/640
f 634/634/634 636/636/636 641/641/641
f 636/636/636 638/638/638 641/641/641
f 636/636/636 631/631/631 638/638/638
f 642/642/642 638/638/638 639/639/639
f 642/642/642 639/639/639 640/640/640
f 642/642/642 640/640/640 641/641/641
f 642/642/642 641/641/641 638/638/638
f 579/579/579 577/577/577 580/580/580
f 580/580/580 581/581/581 579/579/579
f 587/587/587 579/579/579 581/581/581
f 581/581/581 582/582/582 587/587/587
f 577/577/577 587/587/587 582/582/582
f 582/582/582 580/580/580 577/577/577
f 625/625/625 622/622/622 643/643/643
f 643/643/643 644/644/644 625/625/625
f 627/627/627 625/625/625 644/644/644
f 644/644/644 645/645/645 627/627/627
f 629/629/629 627/627/627 645/645/645
f 622/622/622 629/629/629 645/645/645
f 645/645/645 643/643/643 622/622/622
f 644/644/644 643/643/643 620/620/620
f 620/620/620 621/621/621 644/644/644
f 645/645/645 644/644/644 621/621/621
f 621/621/621 619/619/619 645/645/645
f 643/643/643 645/645/645 619/619/619
f 619/619/619 620/620/620 643/643/643
