# Object54.bmd — MU geometry at action 0 key 0, exported for MU2
# 2 mesh(es)

g squid01
# texture: squid01.jpg
v -44.9985 0.109005 -61.7113
v -59.7757 49.6443 -36.57519
v -44.8998 47.74451 -43.35429
v -63.6105 0.628601 -53.0418
v -61.1789 53.4439 -20.53659
v -65.3987 1.667702 -32.6024
v -47.7062 55.34379 -11.27729
v -48.575 2.187302 -20.8326
v -32.8303 53.4439 -18.05639
v -29.963 1.667702 -29.5021
v -31.4271 49.6443 -34.09499
v -28.1748 0.628601 -49.9415
v -44.8998 47.74451 -43.35429
v -44.9985 0.109005 -61.7113
v -57.8746 102.9335 -45.52108
v -46.7085 103.4943 -50.70969
v -58.9452 101.8121 -33.28359
v -48.8498 101.2513 -26.23479
v -37.6837 101.8121 -31.42338
v -36.6131 102.9335 -43.66088
v -46.7085 103.4943 -50.70969
v -55.157 158.2152 -24.75599
v -47.7439 156.2459 -27.86179
v -55.811 162.087 -17.28119
v -49.0518 163.9895 -12.91228
v -41.6367 162.087 -16.04108
v -40.9827 158.2152 -23.51588
v -36.6131 102.9335 -43.66088
v -40.9827 158.2152 -23.51588
v -50.5279 209.1477 -39.32376
v -46.8101 208.5837 -41.00479
v -50.8767 210.2232 -35.33659
v -47.5078 210.7349 -33.03048
v -43.7896 210.2233 -34.71648
v -43.4407 209.1477 -38.70377
v -46.6784 264.4485 -37.43238
v 37.7386 0.418095 34.836
v 13.8454 43.4923 43.32021
v 27.5438 41.8403 47.1193
v 20.4949 0.869898 30.208
v 3.946 46.7963 53.2196
v 7.8792 1.773499 42.8236
v 7.7451 48.4483 66.918
v 12.5072 2.225292 60.0674
v 21.4435 46.7963 70.71711
v 29.751 1.773491 64.6955
v 31.3428 43.49229 60.8177
v 42.3667 0.869896 52.0798
v 27.5438 41.8403 47.1193
v 37.7386 0.418095 34.836
v 20.1121 89.8308 38.42381
v 30.4502 90.31838 41.2087
v 12.5588 88.85558 45.977
v 15.3437 88.36799 56.31521
v 25.6819 88.8556 59.1002
v 33.2352 89.8308 51.54691
v 30.4502 90.31838 41.2087
v 10.3158 137.9018 53.77491
v 16.9898 136.1893 55.84961
v 5.7021 141.2686 58.38851
v 7.7626 142.9229 65.07681
v 14.4508 141.2686 67.13721
v 19.0645 137.9018 62.52361
v 33.2352 89.8308 51.54691
v 19.0645 137.9018 62.52361
v 21.542 182.1908 46.65832
v 24.9581 181.7004 47.61661
v 19.081 183.1261 49.11931
v 20.0361 183.571 52.53851
v 23.4553 183.1262 53.49371
v 25.9164 182.1909 51.03271
v 23.049 230.2785 50.06993
v 52.6515 0.841501 -41.798
v 33.5329 34.53901 -47.0822
v 40.6066 33.2466 -38.501
v 43.6778 1.194897 -52.5013
v 22.747 37.12381 -45.18039
v 29.9324 1.9018 -50.0776
v 19.0349 38.4162 -34.69729
v 25.1606 2.255304 -36.9506
v 26.1086 37.1238 -26.1161
v 34.1343 1.9018 -26.2472
v 36.8944 34.53901 -28.01789
v 47.8797 1.195004 -28.6709
v 40.6066 33.2466 -38.501
v 52.6515 0.841501 -41.798
v 39.7459 70.7902 -47.40809
v 45.1213 71.17159 -40.98449
v 31.5162 70.02729 -45.957
v 28.662 69.64579 -38.08229
v 34.0374 70.0273 -31.65869
v 42.2671 70.79021 -33.10989
v 45.1213 71.17159 -40.98449
v 26.5798 108.3968 -41.96639
v 29.9258 107.0571 -37.64208
v 21.553 111.0306 -41.07999
v 19.8723 112.3248 -35.86939
v 23.2338 111.0307 -31.54789
v 28.2606 108.3968 -32.43419
v 42.2671 70.79021 -33.10989
v 28.2606 108.3968 -32.43419
v 36.9673 143.0447 -41.48948
v 38.7264 142.661 -39.34258
v 34.2859 143.7763 -41.01669
v 33.3637 144.1244 -38.39698
v 35.1262 143.7764 -36.25058
v 37.8076 143.0447 -36.72338
v 36.4022 180.6643 -38.62709
vn -0.074301 0.402704 -0.91231
vn -0.810395 0.152099 -0.565797
vn 0.0838 0.1282 -0.988202
vn -0.888294 0.232298 -0.396197
vn -0.903277 0.128097 0.40949
vn -0.803036 -0.080804 0.590427
vn -0.094601 0.081001 0.992215
vn 0.088096 -0.207991 0.974156
vn 0.823696 0.0468 0.565097
vn 0.914927 -0.043101 0.401312
vn 0.900907 0.066401 -0.428903
vn 0.77617 0.277289 -0.566278
vn 0.0838 0.1282 -0.988202
vn -0.074301 0.402704 -0.91231
vn -0.8199 0.0586 -0.5695
vn 0.118196 0.165095 -0.97917
vn -0.903142 -0.0044 0.42932
vn -0.106098 0.046199 0.993282
vn 0.821204 0.133901 0.554703
vn 0.886549 0.194689 -0.419676
vn 0.118196 0.165095 -0.97917
vn -0.800287 0.162098 -0.577291
vn 0.084797 0.093897 -0.991964
vn -0.906379 0.160496 0.390791
vn -0.087901 0.103702 0.990717
vn 0.830659 0.029999 0.555973
vn 0.90151 0.0175 -0.432405
vn 0.886549 0.194689 -0.419676
vn 0.90151 0.0175 -0.432405
vn -0.747032 -0.061603 -0.661928
vn 0.20059 -0.138393 -0.969851
vn -0.945554 0.160592 0.283086
vn -0.197992 0.309188 0.930163
vn 0.751216 0.232605 0.617713
vn 0.945214 0.0098 -0.326305
vn 0.015399 0.992558 -0.120795
vn 0.529514 0.40271 -0.746619
vn -0.25711 0.152106 -0.954337
vn 0.699419 0.128204 -0.703119
vn -0.425796 0.232298 -0.874492
vn -0.955175 0.128097 -0.266893
vn -0.99468 -0.080798 -0.063899
vn -0.710312 0.081001 0.699211
vn -0.558684 -0.207994 0.802877
vn 0.26781 0.046802 0.962335
vn 0.442994 -0.043099 0.895488
vn 0.965834 0.066402 0.250509
vn 0.958577 0.277293 0.065098
vn 0.699419 0.128204 -0.703119
vn 0.529514 0.40271 -0.746619
vn -0.261997 0.058599 -0.963288
vn 0.719927 0.165106 -0.674125
vn -0.967796 -0.0044 -0.251699
vn -0.719771 0.046198 0.692672
vn 0.272591 0.133896 0.952768
vn 0.94889 0.194698 0.248397
vn 0.719927 0.165106 -0.674125
vn -0.241915 0.16211 -0.95666
vn 0.702581 0.093898 -0.705381
vn -0.945532 0.160505 -0.28321
vn -0.704194 0.103699 0.702394
vn 0.278914 0.030001 0.959847
vn 0.968548 0.017501 0.248212
vn 0.94889 0.194698 0.248397
vn 0.968548 0.017501 0.248212
vn -0.146807 -0.061603 -0.987245
vn 0.777086 -0.138398 -0.613989
vn -0.906311 0.160602 -0.390905
vn -0.749614 0.309206 0.585211
vn 0.178395 0.232593 0.956073
vn 0.933821 0.0098 0.357608
vn 0.089496 0.992557 -0.082596
vn 0.861994 0.402697 -0.307898
vn 0.336803 0.152102 -0.929209
vn 0.976221 0.128203 -0.174804
vn 0.152795 0.232293 -0.96057
vn -0.629316 0.128103 -0.766519
vn -0.778111 -0.080801 -0.622909
vn -0.982895 0.081 0.165399
vn -0.918173 -0.207994 0.33719
vn -0.332602 0.0468 0.941905
vn -0.150804 -0.043101 0.987624
vn 0.647484 0.066398 0.759181
vn 0.747908 0.277303 0.603106
vn 0.976221 0.128203 -0.174804
vn 0.861994 0.402697 -0.307898
vn 0.337918 0.058603 -0.93935
vn 0.976391 0.165098 -0.139299
vn -0.648394 -0.0044 -0.761293
vn -0.986897 0.0462 0.154599
vn -0.323203 0.133901 0.936809
vn 0.634821 0.194706 0.747725
vn 0.976391 0.165098 -0.139299
vn 0.350509 0.162104 -0.922424
vn 0.980116 0.093902 -0.174803
vn -0.61211 0.160503 -0.774313
vn -0.979711 0.103701 0.171502
vn -0.321989 0.029999 0.946268
vn 0.650988 0.0175 0.758886
vn 0.634821 0.194706 0.747725
vn 0.650988 0.0175 0.758886
vn 0.446004 -0.061601 -0.892909
vn 0.988717 -0.138402 -0.057301
vn -0.518176 0.160593 -0.840062
vn -0.949712 0.309204 0.049401
vn -0.402205 0.232603 0.88551
vn 0.559833 0.0098 0.828548
vn 0.120694 0.992554 -0.016399
vt -0.0127 0.0005
vt 0.1812 0.19
vt -0.0222 0.1828
vt 0.1457 0.0025
vt 0.3581 0.2043
vt 0.3253 0.0064
vt 0.4933 0.2115
vt 0.4873 0.0084
vt 0.6228 0.2043
vt 0.6457 0.0064
vt 0.7834 0.19
vt 0.8253 0.0025
vt 0.9778 0.1828
vt 0.9873 0.0005
vt 0.2238 0.3983
vt -0.0017 0.4004
vt 0.3712 0.394
vt 0.4831 0.3919
vt 0.5937 0.394
vt 0.7469 0.3983
vt 0.9983 0.4004
vt 0.2932 0.6045
vt 0.1153 0.5971
vt 0.3873 0.6191
vt 0.4767 0.6263
vt 0.565 0.6191
vt 0.6599 0.6045
vt -0.2531 0.3983
vt -0.3401 0.6045
vt 0.3327 0.7905
vt 0.4873 0.7884
vt 0.4108 0.7946
vt 0.4873 0.7965
vt 0.5628 0.7946
vt 0.6385 0.7905
vt 0.5041 0.9995
vt -0.0127 0.0005
vt 0.1812 0.19
vt -0.0222 0.1828
vt 0.1457 0.0025
vt 0.3581 0.2043
vt 0.3253 0.0064
vt 0.4933 0.2115
vt 0.4873 0.0084
vt 0.6228 0.2043
vt 0.6457 0.0064
vt 0.7834 0.19
vt 0.8253 0.0025
vt 0.9778 0.1828
vt 0.9873 0.0005
vt 0.2238 0.3983
vt -0.0017 0.4004
vt 0.3712 0.394
vt 0.4831 0.3919
vt 0.5937 0.394
vt 0.7469 0.3983
vt 0.9983 0.4004
vt 0.2932 0.6045
vt 0.1153 0.5971
vt 0.3873 0.6191
vt 0.4767 0.6263
vt 0.565 0.6191
vt 0.6599 0.6045
vt -0.2531 0.3983
vt -0.3401 0.6045
vt 0.3327 0.7905
vt 0.4873 0.7884
vt 0.4108 0.7946
vt 0.4873 0.7965
vt 0.5628 0.7946
vt 0.6385 0.7905
vt 0.5041 0.9995
vt -0.0127 0.0005
vt 0.1812 0.19
vt -0.0222 0.1828
vt 0.1457 0.0025
vt 0.3581 0.2043
vt 0.3253 0.0064
vt 0.4933 0.2115
vt 0.4873 0.0084
vt 0.6228 0.2043
vt 0.6457 0.0064
vt 0.7834 0.19
vt 0.8253 0.0025
vt 0.9778 0.1828
vt 0.9873 0.0005
vt 0.2238 0.3983
vt -0.0017 0.4004
vt 0.3712 0.394
vt 0.4831 0.3919
vt 0.5937 0.394
vt 0.7469 0.3983
vt 0.9983 0.4004
vt 0.2932 0.6045
vt 0.1153 0.5971
vt 0.3873 0.6191
vt 0.4767 0.6263
vt 0.565 0.6191
vt 0.6599 0.6045
vt -0.2531 0.3983
vt -0.3401 0.6045
vt 0.3327 0.7905
vt 0.4873 0.7884
vt 0.4108 0.7946
vt 0.4873 0.7965
vt 0.5628 0.7946
vt 0.6385 0.7905
vt 0.5041 0.9995
f 1/1/1 3/3/3 2/2/2
f 1/1/1 2/2/2 4/4/4
f 4/4/4 2/2/2 5/5/5
f 4/4/4 5/5/5 6/6/6
f 6/6/6 5/5/5 7/7/7
f 6/6/6 7/7/7 8/8/8
f 8/8/8 7/7/7 9/9/9
f 8/8/8 9/9/9 10/10/10
f 10/10/10 9/9/9 11/11/11
f 10/10/10 11/11/11 12/12/12
f 12/12/12 11/11/11 13/13/13
f 12/12/12 13/13/13 14/14/14
f 3/3/3 16/16/16 15/15/15
f 3/3/3 15/15/15 2/2/2
f 2/2/2 15/15/15 17/17/17
f 2/2/2 17/17/17 5/5/5
f 5/5/5 17/17/17 18/18/18
f 5/5/5 18/18/18 7/7/7
f 7/7/7 18/18/18 19/19/19
f 7/7/7 19/19/19 9/9/9
f 9/9/9 19/19/19 20/20/20
f 9/9/9 20/20/20 11/11/11
f 11/11/11 20/20/20 21/21/21
f 11/11/11 21/21/21 13/13/13
f 16/16/16 23/23/23 22/22/22
f 16/16/16 22/22/22 15/15/15
f 15/15/15 22/22/22 24/24/24
f 15/15/15 24/24/24 17/17/17
f 17/17/17 24/24/24 25/25/25
f 17/17/17 25/25/25 18/18/18
f 18/18/18 25/25/25 26/26/26
f 18/18/18 26/26/26 19/19/19
f 19/19/19 26/26/26 27/27/27
f 19/19/19 27/27/27 20/20/20
f 28/28/28 29/29/29 23/23/23
f 28/28/28 23/23/23 16/16/16
f 23/23/23 31/31/31 30/30/30
f 23/23/23 30/30/30 22/22/22
f 22/22/22 30/30/30 32/32/32
f 22/22/22 32/32/32 24/24/24
f 24/24/24 32/32/32 33/33/33
f 24/24/24 33/33/33 25/25/25
f 25/25/25 33/33/33 34/34/34
f 25/25/25 34/34/34 26/26/26
f 26/26/26 34/34/34 35/35/35
f 26/26/26 35/35/35 27/27/27
f 27/27/27 35/35/35 31/31/31
f 29/29/29 31/31/31 23/23/23
f 31/31/31 36/36/36 30/30/30
f 30/30/30 36/36/36 32/32/32
f 32/32/32 36/36/36 33/33/33
f 33/33/33 36/36/36 34/34/34
f 34/34/34 36/36/36 35/35/35
f 35/35/35 36/36/36 31/31/31
f 37/37/37 39/39/39 38/38/38
f 37/37/37 38/38/38 40/40/40
f 40/40/40 38/38/38 41/41/41
f 40/40/40 41/41/41 42/42/42
f 42/42/42 41/41/41 43/43/43
f 42/42/42 43/43/43 44/44/44
f 44/44/44 43/43/43 45/45/45
f 44/44/44 45/45/45 46/46/46
f 46/46/46 45/45/45 47/47/47
f 46/46/46 47/47/47 48/48/48
f 48/48/48 47/47/47 49/49/49
f 48/48/48 49/49/49 50/50/50
f 39/39/39 52/52/52 51/51/51
f 39/39/39 51/51/51 38/38/38
f 38/38/38 51/51/51 53/53/53
f 38/38/38 53/53/53 41/41/41
f 41/41/41 53/53/53 54/54/54
f 41/41/41 54/54/54 43/43/43
f 43/43/43 54/54/54 55/55/55
f 43/43/43 55/55/55 45/45/45
f 45/45/45 55/55/55 56/56/56
f 45/45/45 56/56/56 47/47/47
f 47/47/47 56/56/56 57/57/57
f 47/47/47 57/57/57 49/49/49
f 52/52/52 59/59/59 58/58/58
f 52/52/52 58/58/58 51/51/51
f 51/51/51 58/58/58 60/60/60
f 51/51/51 60/60/60 53/53/53
f 53/53/53 60/60/60 61/61/61
f 53/53/53 61/61/61 54/54/54
f 54/54/54 61/61/61 62/62/62
f 54/54/54 62/62/62 55/55/55
f 55/55/55 62/62/62 63/63/63
f 55/55/55 63/63/63 56/56/56
f 64/64/64 65/65/65 59/59/59
f 64/64/64 59/59/59 52/52/52
f 59/59/59 67/67/67 66/66/66
f 59/59/59 66/66/66 58/58/58
f 58/58/58 66/66/66 68/68/68
f 58/58/58 68/68/68 60/60/60
f 60/60/60 68/68/68 69/69/69
f 60/60/60 69/69/69 61/61/61
f 61/61/61 69/69/69 70/70/70
f 61/61/61 70/70/70 62/62/62
f 62/62/62 70/70/70 71/71/71
f 62/62/62 71/71/71 63/63/63
f 63/63/63 71/71/71 67/67/67
f 65/65/65 67/67/67 59/59/59
f 67/67/67 72/72/72 66/66/66
f 66/66/66 72/72/72 68/68/68
f 68/68/68 72/72/72 69/69/69
f 69/69/69 72/72/72 70/70/70
f 70/70/70 72/72/72 71/71/71
f 71/71/71 72/72/72 67/67/67
f 73/73/73 75/75/75 74/74/74
f 73/73/73 74/74/74 76/76/76
f 76/76/76 74/74/74 77/77/77
f 76/76/76 77/77/77 78/78/78
f 78/78/78 77/77/77 79/79/79
f 78/78/78 79/79/79 80/80/80
f 80/80/80 79/79/79 81/81/81
f 80/80/80 81/81/81 82/82/82
f 82/82/82 81/81/81 83/83/83
f 82/82/82 83/83/83 84/84/84
f 84/84/84 83/83/83 85/85/85
f 84/84/84 85/85/85 86/86/86
f 75/75/75 88/88/88 87/87/87
f 75/75/75 87/87/87 74/74/74
f 74/74/74 87/87/87 89/89/89
f 74/74/74 89/89/89 77/77/77
f 77/77/77 89/89/89 90/90/90
f 77/77/77 90/90/90 79/79/79
f 79/79/79 90/90/90 91/91/91
f 79/79/79 91/91/91 81/81/81
f 81/81/81 91/91/91 92/92/92
f 81/81/81 92/92/92 83/83/83
f 83/83/83 92/92/92 93/93/93
f 83/83/83 93/93/93 85/85/85
f 88/88/88 95/95/95 94/94/94
f 88/88/88 94/94/94 87/87/87
f 87/87/87 94/94/94 96/96/96
f 87/87/87 96/96/96 89/89/89
f 89/89/89 96/96/96 97/97/97
f 89/89/89 97/97/97 90/90/90
f 90/90/90 97/97/97 98/98/98
f 90/90/90 98/98/98 91/91/91
f 91/91/91 98/98/98 99/99/99
f 91/91/91 99/99/99 92/92/92
f 100/100/100 101/101/101 95/95/95
f 100/100/100 95/95/95 88/88/88
f 95/95/95 103/103/103 102/102/102
f 95/95/95 102/102/102 94/94/94
f 94/94/94 102/102/102 104/104/104
f 94/94/94 104/104/104 96/96/96
f 96/96/96 104/104/104 105/105/105
f 96/96/96 105/105/105 97/97/97
f 97/97/97 105/105/105 106/106/106
f 97/97/97 106/106/106 98/98/98
f 98/98/98 106/106/106 107/107/107
f 98/98/98 107/107/107 99/99/99
f 99/99/99 107/107/107 103/103/103
f 101/101/101 103/103/103 95/95/95
f 103/103/103 108/108/108 102/102/102
f 102/102/102 108/108/108 104/104/104
f 104/104/104 108/108/108 105/105/105
f 105/105/105 108/108/108 106/106/106
f 106/106/106 108/108/108 107/107/107
f 107/107/107 108/108/108 103/103/103

g bons
# texture: bons.jpg
v -52.7064 185.9525 -47.84079
v -66.8603 193.288 -41.15659
v -51.3102 188.026 -39.72558
v -49.6721 184.5984 -42.56289
v -42.2958 193.288 -26.97429
v -43.5841 185.9525 -42.57409
v -69.6311 195.0365 -35.37068
v -58.5135 192.2415 -27.24888
v -45.9211 195.0365 -21.68168
v -75.5205 194.8595 -25.41668
v -66.6241 192.7631 -13.18027
v -51.5968 194.8595 -11.60428
v -52.9698 179.4162 -47.38468
v -51.1904 178.5583 -39.93309
v -54.697 175.4383 -33.85948
v -57.3473 173.1368 -45.57148
v -43.8475 179.4162 -42.11789
v -43.229 173.1368 -37.42018
v -59.7182 169.6902 -25.16227
v -70.6583 171.5549 -33.59158
v -46.9482 171.5549 -19.90248
v -65.3937 175.5703 -15.31389
v -76.4459 173.7049 -23.81379
v -52.5222 173.7049 -10.00148
v -37.4584 183.4418 -35.12968
v -42.0806 182.8941 -42.22879
v -42.3925 186.2689 -16.27258
v -50.5253 187.1292 -5.725278
v -66.9994 186.4989 -12.53029
v -81.1476 187.1292 -23.40498
v -76.0798 186.2689 -35.72198
v -62.2163 183.4418 -49.42358
v -53.7571 182.8941 -48.97017
v -48.2889 160.8328 -67.72259
v -52.2818 168.8843 -63.65639
v -41.5696 165.8249 -56.52368
v -40.4656 156.3024 -58.39079
v -30.0364 168.8843 -50.81299
v -28.7216 160.9464 -55.63568
v -51.0022 174.2004 -58.99988
v -43.3604 172.0236 -53.42189
v -34.7087 174.2004 -49.59287
v -45.3002 158.2976 -50.06196
v -59.7513 161.9181 -50.71878
v -51.0332 152.5936 -53.43248
v -39.5148 152.5936 -46.78238
v -37.5059 161.9181 -37.87539
v -48.338 165.3874 -44.80037
v -57.7315 167.9246 -47.34449
v -41.438 167.9246 -37.93747
v -28.61 167.9678 -42.47439
v -30.2472 149.1215 -52.51767
v -35.7248 174.9423 -42.56507
v -45.3968 170.3237 -49.89479
v -56.5804 174.9423 -54.60608
v -60.2164 167.9678 -60.72228
v -50.4459 149.1215 -64.17948
v -76.1943 174.6008 11.94351
v -78.9573 182.5162 13.23802
v -82.1027 180.1551 11.25891
v -81.6916 175.0499 7.743716
v -78.6172 169.6649 6.017413
v -74.5318 168.0557 6.341517
v -70.5837 169.1727 7.938518
v -68.6203 172.4931 10.06102
v -70.3235 178.2661 12.34201
v -74.6827 182.2543 14.26022
v -78.9573 182.5162 13.23802
v -78.6331 188.5953 8.184825
v -83.4522 184.978 5.152614
v -82.1027 180.1551 11.25891
v -83.2389 176.2262 1.447413
v -81.6916 175.0499 7.743716
v -83.2389 176.2262 1.447413
v -79.7855 170.4882 0.152515
v -73.2035 167.2575 0.386416
v -67.1546 168.9688 2.83311
v -64.4693 174.8212 6.347812
v -65.8219 181.1535 8.49232
v -70.3235 178.2661 12.34201
v -65.8219 181.1535 8.49232
v -72.0841 188.1941 9.750918
v -74.6827 182.2543 14.26022
v -76.1333 190.2309 0.860614
v -80.3254 186.8026 -1.154782
v -80.4778 179.0079 -3.189084
v -80.4778 179.0079 -3.189084
v -75.6028 171.5311 -7.281384
v -77.865 167.888 -2.023877
v -74.943 169.4814 -5.37219
v -70.2763 171.1393 -3.670285
v -68.0621 171.7657 -2.774686
v -63.3625 172.7576 -0.687985
v -63.0386 172.0825 3.973216
v -62.652 175.195 -2.042882
v -65.7507 183.1743 2.767817
v -65.7507 183.1743 2.767817
v -70.713 189.522 2.733317
v -72.4083 184.4353 -4.294988
v -69.2913 183.3165 -11.21838
v -68.5197 176.3854 -14.52918
v -73.0676 179.091 -13.36208
v -64.4536 177.5357 -12.88448
v -63.6779 181.7475 -9.563977
v -75.4217 176.7739 -9.530179
v -69.6136 173.3056 -9.407987
v -65.7184 174.4076 -7.832486
v -63.6845 180.0945 -4.782681
v -72.4083 184.4353 -4.294988
v -42.7241 109.5236 -46.16438
v -39.48 112.9541 -50.27469
v -37.9233 112.966 -44.09349
v -45.4755 114.5075 -48.76768
v -43.9188 114.5194 -42.58648
v -38.0131 122.0696 -49.63839
v -36.941 122.0778 -45.38159
v -42.1421 123.1395 -48.60058
v -41.07 123.1477 -44.34378
v -32.1852 146.8973 -51.32869
v -31.1131 146.9055 -47.07188
v -36.3141 147.9672 -50.29088
v -35.242 147.9754 -46.03408
v -29.2554 155.4585 -52.75138
v -27.7795 155.4697 -46.89098
v -34.9398 156.9313 -51.32259
v -33.4639 156.9426 -45.46219
v -32.8993 159.5788 -50.68349
v -41.1188 64.55881 -53.4071
v -53.1514 66.17481 -58.48809
v -45.5415 68.5539 -58.70769
v -51.2369 48.58581 -40.35739
v -55.5077 52.6269 -40.17189
v -59.1531 49.649 -43.70019
v -44.9483 72.8873 -56.35689
v -44.2212 73.99631 -50.78569
v -49.5628 75.07021 -53.76119
v -48.4381 74.26271 -49.59549
v -51.4132 65.00451 -45.93158
v -44.2212 73.99631 -50.78569
v -42.8225 100.5526 -52.15299
v -40.7991 101.8186 -45.99928
v -44.9483 72.8873 -56.35689
v -47.6277 100.4421 -50.08079
v -49.5628 75.07021 -53.76119
v -46.4543 99.93281 -45.85688
v -48.4381 74.26271 -49.59549
v -41.1911 111.945 -51.41558
v -38.4179 111.085 -43.68829
v -47.5361 112.2331 -48.83678
v -45.9877 111.1214 -43.10178
v -42.3632 115.7706 -45.49278
v -43.3567 146.3892 -9.045682
v -39.9423 150.3486 -8.730683
v -43.519 149.6874 -4.979985
v -43.7319 150.4555 -12.32579
v -47.3087 149.7943 -8.575189
v -41.6549 158.0164 -7.879277
v -44.1182 157.561 -5.296285
v -44.2648 158.09 -10.35518
v -46.728 157.6346 -7.772183
v -43.0378 176.9677 -5.839978
v -45.5011 176.5124 -3.257077
v -45.6477 177.0414 -8.315885
v -48.1109 176.586 -5.732884
v -42.7599 186.161 -5.445676
v -46.1937 186.3871 -0.869779
v -46.411 186.7534 -9.859288
v -49.7441 185.6355 -5.298177
v -46.5433 189.6344 -5.85468
v -45.0932 114.1504 -30.66959
v -37.7268 114.7047 -30.82509
v -41.2433 112.4716 -29.82219
v -41.2662 116.5239 -16.46569
v -39.2353 124.8477 -11.48559
v -41.6986 124.3924 -8.902587
v -37.8189 119.5176 -18.03579
v -41.8452 124.9213 -13.96148
v -41.6538 121.0107 -18.83538
v -44.3084 124.466 -11.37849
v -45.1853 118.9633 -17.88019
v -41.6986 124.3924 -8.902587
v -40.3034 139.326 -10.47779
v -42.885 140.8181 -6.560384
v -39.2353 124.8477 -11.48559
v -42.9133 139.3996 -12.95368
v -41.8452 124.9213 -13.96148
v -45.3765 138.9443 -10.37069
v -44.3084 124.466 -11.37849
v -39.8497 146.1577 -10.17408
v -43.2427 145.9651 -5.156785
v -43.4427 146.259 -13.58259
v -46.8339 145.6322 -10.02659
v -43.5849 149.6344 -8.286584
v -41.2018 114.0272 -22.31129
v -37.7918 117.3579 -24.45059
v -45.1582 116.8036 -24.29499
v -40.7943 168.9505 -51.19728
v -52.2765 184.7645 -37.99678
v -50.4786 182.2218 -34.90289
v -42.5923 171.4931 -54.29119
v -55.8549 182.2218 -38.00688
v -46.1707 168.9505 -54.30129
v -54.0569 179.6792 -34.91298
v -44.3727 166.4078 -51.20739
v -60.8854 189.0012 -18.21558
v -72.7838 186.25 -2.69418
v -70.4332 183.9692 -2.04279
v -63.236 191.2821 -18.86687
v -74.5232 183.9692 -4.404088
v -64.9754 189.0012 -20.57688
v -72.1726 181.6883 -3.752683
v -62.6248 186.7203 -19.92548
v -40.8395 106.6056 -59.70649
v -45.4891 110.0878 -62.03919
v -39.4341 111.2603 -63.64928
v -37.8692 111.6472 -57.48229
v -43.9242 110.4746 -55.87229
v -46.0713 119.305 -61.44418
v -41.9013 120.1125 -62.55299
v -40.8236 120.3789 -58.30587
v -44.9935 119.5714 -57.19709
v -50.8089 144.4198 -61.64229
v -46.639 145.2272 -62.75109
v -45.5613 145.4937 -58.50409
v -49.7312 144.6862 -57.39519
v -53.7664 153.083 -62.47458
v -48.0256 154.1947 -64.00108
v -46.5419 154.5615 -58.15419
v -52.2827 153.4498 -56.62768
v -48.4662 157.2395 -58.99458
v -35.8517 57.71721 -63.88338
v -28.5734 60.9604 -63.52869
v -25.1984 59.6965 -56.4132
v -43.8824 46.5229 -45.49858
v -36.8736 47.82501 -40.58398
v -41.3455 51.0206 -42.68069
v -35.9336 68.0013 -60.98938
v -30.7453 66.8922 -63.14528
v -30.6859 69.07521 -57.85109
v -34.8559 68.26771 -56.74228
v -36.9228 61.15561 -51.67319
v -35.9336 68.0013 -60.98938
v -41.7899 95.8236 -61.55979
v -35.4489 94.5576 -62.88439
v -30.7453 66.8922 -63.14528
v -34.8408 94.4471 -57.68679
v -30.6859 69.07521 -57.85109
v -39.0856 93.9378 -56.59108
v -34.8559 68.26771 -56.74228
v -44.9818 105.09 -62.46648
v -36.9032 105.95 -63.92847
v -35.964 106.2381 -57.14409
v -41.7048 105.1264 -55.61759
v -41.4464 109.7756 -59.95198
v -84.5115 145.4159 -28.36338
v -87.6728 149.0545 -26.31379
v -86.2075 149.3949 -31.31719
v -81.1936 149.181 -29.86348
v -82.6589 148.8407 -24.85999
v -86.4994 156.8696 -26.28768
v -85.4903 157.104 -29.73349
v -82.0374 156.9567 -28.73228
v -83.0465 156.7223 -25.28648
v -86.112 175.9235 -24.86509
v -85.1028 176.1579 -28.31088
v -81.6499 176.0107 -27.30968
v -82.659 175.7762 -23.86388
v -87.0627 185.9668 -23.48056
v -84.8833 185.3513 -28.73908
v -79.1992 185.5502 -27.8376
v -81.519 184.8258 -22.61689
v -82.3549 188.768 -25.82728
v -67.1125 110.5979 -36.68599
v -70.0505 109.1096 -39.42668
v -70.661 111.1522 -43.14329
v -80.7283 115.4126 -33.01778
v -87.1452 123.5183 -28.79569
v -86.136 123.7527 -32.24149
v -80.7085 118.1058 -37.02488
v -82.6831 123.6054 -31.24028
v -77.8466 119.4195 -34.25739
v -83.6923 123.371 -27.79449
v -77.16 117.5515 -30.56758
v -87.1452 123.5183 -28.79569
v -87.3095 140.0828 -27.28349
v -85.3614 138.2615 -31.42178
v -86.136 123.7527 -32.24149
v -81.9085 138.1142 -30.42059
v -82.6831 123.6054 -31.24028
v -82.9176 137.8798 -26.97478
v -83.6923 123.371 -27.79449
v -87.9435 145.3316 -26.48458
v -85.3324 145.0947 -31.94788
v -80.5788 144.8919 -30.56948
v -81.968 144.5692 -25.82569
v -84.8018 148.7143 -27.92068
v -76.1922 111.942 -35.80838
v -75.6207 114.8685 -40.09869
v -72.0722 114.3142 -33.64148
vn 0.639393 0.436895 -0.632693
vn 0.0115 0.804175 -0.594282
vn 0.326402 0.863404 -0.384702
vn 0.51251 0.292806 -0.807216
vn 0.545718 0.795326 -0.263909
vn 0.340108 0.43521 -0.833618
vn -0.341804 0.86361 -0.370604
vn 0.106697 0.980674 -0.163996
vn 0.431199 0.899498 0.0705
vn -0.62712 0.775725 -0.070502
vn -0.247706 0.81992 0.516113
vn 0.0139 0.833919 0.551712
vn 0.687013 -0.418808 -0.593812
vn 0.143105 -0.701926 -0.697726
vn 0.334203 -0.905208 -0.262502
vn 0.068397 -0.798366 -0.598275
vn 0.079904 -0.278014 -0.957248
vn 0.357672 -0.75444 -0.550356
vn 0.060699 -0.994181 0.088998
vn -0.596491 -0.773288 -0.214997
vn 0.547009 -0.821713 0.159903
vn -0.377402 -0.650804 0.658804
vn -0.671116 -0.587614 0.452011
vn 0.216193 -0.687679 0.693079
vn 0.989182 0.028499 -0.143897
vn 0.672491 -0.090999 -0.73449
vn 0.89062 0.067502 0.44971
vn 0.268002 0.145901 0.952307
vn -0.456103 -0.0358 0.889207
vn -0.975982 0.046199 0.212896
vn -0.808497 0.052 -0.586198
vn -0.423414 -0.027101 -0.905531
vn 0.217 0.194 -0.9567
vn 0.439726 0.16281 -0.883252
vn 0.065701 0.445607 -0.892815
vn 0.495205 0.421805 -0.759508
vn 0.398583 -0.553777 -0.73107
vn 0.627093 0.549094 -0.552494
vn 0.766993 0.145699 -0.624895
vn 0.047701 0.816614 -0.57521
vn 0.328308 0.897321 -0.295007
vn 0.166807 0.889539 -0.425319
vn -0.394405 -0.659808 0.639608
vn -0.755106 -0.332203 0.565205
vn -0.249104 -0.858312 0.448606
vn -0.530108 -0.801512 0.276704
vn -0.072402 -0.441514 0.894328
vn -0.508888 0.104397 0.854479
vn -0.422012 0.415011 0.806022
vn -0.298601 0.0268 0.954002
vn 0.842764 0.196392 0.501178
vn 0.579303 -0.806305 0.119501
vn 0.054701 0.944025 0.325309
vn -0.203099 0.879297 0.430799
vn -0.436601 0.870101 0.2287
vn -0.842487 0.132798 -0.522092
vn -0.350478 -0.615461 -0.705955
vn -0.212592 -0.469482 0.856967
vn -0.495814 0.213706 0.841724
vn -0.816808 -0.152802 0.556306
vn -0.799008 -0.473305 0.370904
vn -0.571317 -0.750223 0.33281
vn -0.099 -0.897098 0.430599
vn 0.328516 -0.728836 0.600729
vn 0.493003 -0.363603 0.790406
vn 0.449906 -0.043601 0.892011
vn 0.057302 0.211308 0.975738
vn -0.495814 0.213706 0.841724
vn -0.425797 0.804294 0.414497
vn -0.9343 0.3526 0.0525
vn -0.816808 -0.152802 0.556306
vn -0.957283 -0.217096 -0.190997
vn -0.799008 -0.473305 0.370904
vn -0.957283 -0.217096 -0.190997
vn -0.800366 -0.584575 -0.132994
vn -0.0048 -0.992678 -0.120697
vn 0.455882 -0.882966 0.111996
vn 0.854404 -0.184101 0.485902
vn 0.817595 0.260698 0.513396
vn 0.449906 -0.043601 0.892011
vn 0.817595 0.260698 0.513396
vn 0.372498 0.722295 0.582696
vn 0.057302 0.211308 0.975738
vn -0.0797 0.960506 -0.266602
vn -0.602483 0.588284 -0.539385
vn -0.755306 0.131201 -0.642105
vn -0.755306 0.131201 -0.642105
vn -0.450904 -0.446604 -0.772807
vn -0.2193 -0.926198 -0.3067
vn -0.205604 -0.702912 -0.680912
vn 0.299304 -0.787809 -0.538307
vn 0.445092 -0.790087 -0.421493
vn 0.666396 -0.632496 -0.394798
vn 0.874579 -0.41529 0.250294
vn 0.977842 -0.143306 -0.152607
vn 0.87761 0.478306 -0.032
vn 0.87761 0.478306 -0.032
vn 0.614088 0.779484 -0.123697
vn 0.085002 0.818619 -0.568013
vn -0.113898 0.742684 -0.659885
vn 0.149806 -0.403716 -0.902536
vn -0.626892 -0.071799 -0.775791
vn 0.820658 -0.075796 -0.566371
vn 0.692122 0.697322 -0.186306
vn -0.67481 -0.0317 -0.737311
vn -0.062601 -0.87851 -0.473605
vn 0.671012 -0.673712 -0.309606
vn 0.951674 0.301192 -0.059998
vn 0.085002 0.818619 -0.568013
vn -0.247696 -0.965985 0.074299
vn 0.238792 -0.340089 -0.90957
vn 0.842497 -0.413899 0.344799
vn -0.951618 -0.050501 -0.303106
vn -0.352512 -0.138305 0.925531
vn 0.514806 -0.057001 -0.85541
vn 0.855619 -0.086002 0.510411
vn -0.823472 0.224193 -0.521182
vn -0.485411 0.201204 0.850819
vn 0.489576 -0.181991 -0.852757
vn 0.822322 -0.226006 0.522214
vn -0.850612 0.109302 -0.514307
vn -0.518312 0.062301 0.852919
vn 0.646287 0.108198 -0.755385
vn 0.74711 0.281804 0.602008
vn -0.688873 0.25679 -0.677874
vn -0.648012 0.445408 0.617812
vn 0.045899 0.978186 -0.202597
vn 0.994286 -0.084299 0.065499
vn -0.688182 -0.168996 -0.705582
vn 0.193895 0.166595 -0.966774
vn 0.292003 -0.94901 0.118801
vn -0.059 0.163399 0.984794
vn -0.938217 -0.140803 0.316106
vn 0.408517 0.328114 -0.851736
vn 0.885614 0.059401 0.460607
vn -0.8584 0.3075 -0.4106
vn -0.528399 0.0863 0.844599
vn -0.309911 0.397614 0.863631
vn 0.885614 0.059401 0.460607
vn 0.45339 0.070998 -0.88848
vn 0.83672 -0.222006 0.500612
vn 0.408517 0.328114 -0.851736
vn -0.902516 0.080801 -0.423008
vn -0.8584 0.3075 -0.4106
vn -0.573513 -0.161004 0.803219
vn -0.528399 0.0863 0.844599
vn 0.621916 0.37101 -0.689618
vn 0.659844 0.092806 0.74565
vn -0.726707 0.449804 -0.519205
vn -0.66342 0.179405 0.726422
vn 0.0025 0.985784 0.167997
vn 0.067699 -0.992989 -0.096899
vn 0.962802 -0.1212 -0.241501
vn 0.246797 -0.325996 0.912589
vn -0.217396 -0.130797 -0.96728
vn -0.921994 -0.333698 0.196399
vn 0.987808 0.155101 -0.0134
vn 0.026101 -0.062201 0.997722
vn -0.036798 0.194791 -0.980154
vn -0.999379 -0.023 0.026699
vn 0.999891 0.0144 -0.0033
vn 0.050099 -0.172295 0.983771
vn -0.041901 0.024001 -0.998834
vn -0.990238 -0.139305 -0.0047
vn 0.937824 0.308808 0.158504
vn -0.239208 0.241208 0.940531
vn 0.187699 0.325299 -0.926796
vn -0.969663 0.171594 -0.174093
vn -0.073598 0.997069 -0.020899
vn -0.669019 -0.578117 -0.467113
vn 0.273405 0.420708 -0.865017
vn 0.319289 -0.945467 -0.064398
vn 0.050802 -0.800536 0.597127
vn 0.999599 0.0075 -0.0273
vn 0.0968 -0.437698 0.893896
vn 0.984095 0.159699 -0.0778
vn -0.115006 0.489224 -0.864543
vn -0.179294 0.815772 -0.549881
vn -0.996027 0.084402 0.028401
vn -0.965717 -0.159903 0.204504
vn 0.0968 -0.437698 0.893896
vn 0.996793 0.0179 -0.077999
vn 0.060399 -0.198796 0.978178
vn 0.999599 0.0075 -0.0273
vn -0.022301 0.021401 -0.999522
vn -0.115006 0.489224 -0.864543
vn -0.986841 -0.147206 -0.066903
vn -0.996027 0.084402 0.028401
vn 0.953395 0.280999 0.109899
vn -0.262894 0.087198 0.960877
vn 0.160606 0.385714 -0.908532
vn -0.96782 0.150603 -0.201604
vn -0.072298 0.997072 0.024899
vn 0.103303 -0.927522 0.359209
vn 0.945567 0.227092 -0.233092
vn -0.867585 0.405193 -0.288295
vn 0.914094 0.250598 0.318798
vn 0.567081 0.752375 -0.335189
vn 0.725427 -0.240209 0.645024
vn 0.01 0.74881 -0.662709
vn -0.725427 0.240209 -0.645024
vn -0.914094 -0.250598 -0.318798
vn -0.567081 -0.752375 0.335189
vn -0.01 -0.74881 0.662709
vn 0.790166 0.277688 0.546377
vn 0.185306 0.909829 0.371312
vn 0.859515 -0.282405 0.426007
vn -0.410802 0.911505 0.02
vn -0.859515 0.282405 -0.426007
vn -0.790166 -0.277688 -0.546377
vn -0.185306 -0.909829 -0.371312
vn 0.410802 -0.911505 -0.02
vn 0.191994 -0.981067 0.025399
vn -0.665429 -0.365016 -0.651128
vn 0.693305 -0.097601 -0.714005
vn 0.746929 -0.101404 0.657126
vn -0.593116 -0.36931 0.715419
vn -0.858655 -0.084896 -0.505474
vn 0.477825 0.18551 -0.858644
vn 0.834417 0.222305 0.50431
vn -0.505977 -0.047098 0.86126
vn -0.834442 -0.224211 -0.503425
vn 0.502879 0.065597 -0.861864
vn 0.856516 0.108402 0.504609
vn -0.475483 -0.180693 0.860968
vn -0.930725 0.236207 -0.279208
vn 0.306094 0.342693 -0.888182
vn 0.897698 0.303199 0.319699
vn -0.264593 0.208394 0.941575
vn 0.013301 0.99604 0.087904
vn -0.608494 -0.161298 -0.776993
vn 0.771205 0.0103 -0.636504
vn 0.906135 -0.26081 0.333013
vn -0.368403 -0.929108 0.0322
vn 0.200295 0.043399 0.978774
vn -0.791265 0.385583 0.474579
vn -0.837437 0.076703 -0.541124
vn 0.547408 0.255804 -0.796812
vn 0.800509 0.269903 0.535106
vn -0.455795 0.154399 0.876591
vn -0.526029 0.594633 0.608034
vn -0.837437 0.076703 -0.541124
vn -0.851909 -0.222002 -0.474305
vn 0.54278 0.070997 -0.836869
vn 0.547408 0.255804 -0.796812
vn 0.817595 0.0808 0.570097
vn 0.800509 0.269903 0.535106
vn -0.408887 -0.160995 0.898272
vn -0.455795 0.154399 0.876591
vn -0.975679 0.092798 -0.198596
vn 0.286299 0.370999 -0.883398
vn 0.812983 0.449791 0.369793
vn -0.297413 0.179408 0.937741
vn -0.146699 0.985793 0.081799
vn -0.0288 -0.997509 -0.064401
vn -0.932806 -0.251202 0.258402
vn -0.290097 -0.139399 -0.94679
vn 0.932304 -0.211901 -0.293101
vn 0.272098 -0.318897 0.907892
vn -0.875701 0.0185 0.4825
vn -0.476191 0.155497 -0.865484
vn 0.8754 0.1163 -0.4692
vn 0.480703 -0.0221 0.876605
vn -0.883573 -0.093397 0.458886
vn -0.501822 0.015201 -0.864838
vn 0.881991 -0.057099 -0.467795
vn 0.494209 -0.141103 0.857816
vn -0.667922 0.320211 0.671822
vn -0.585695 0.322997 -0.743394
vn 0.724472 0.24999 -0.642375
vn 0.653393 0.155898 0.740792
vn 0.134595 0.99086 0.009
vn 0.64372 -0.660421 0.386612
vn -0.253095 -0.94158 -0.222195
vn 0.659909 0.265404 -0.702909
vn -0.595003 -0.748804 0.292001
vn -0.833191 -0.409796 0.371296
vn -0.471718 -0.0053 -0.881734
vn -0.443917 0.185607 -0.876634
vn 0.810047 0.476428 -0.34182
vn 0.610799 0.775099 -0.1617
vn 0.467408 0.103902 0.877915
vn 0.306205 -0.173003 0.936114
vn -0.833191 -0.409796 0.371296
vn -0.885618 -0.120503 0.448509
vn -0.435902 0.0127 -0.899905
vn -0.471718 -0.0053 -0.881734
vn 0.872517 -0.059801 -0.48491
vn 0.810047 0.476428 -0.34182
vn 0.545288 -0.153997 0.823982
vn 0.467408 0.103902 0.877915
vn -0.6854 0.1664 0.7089
vn -0.554397 0.290798 -0.779795
vn 0.727191 0.311096 -0.611893
vn 0.673994 0.132299 0.726794
vn 0.0936 0.995096 0.032
vn -0.49652 -0.851134 0.170407
vn -0.255597 0.189698 -0.94799
vn 0.747213 0.346006 0.56741
vt 0.1484 0.4695
vt 0.0538 0.6582
vt 0.2043 0.5605
vt 0.2043 0.5105
vt 0.3549 0.6582
vt 0.2602 0.4695
vt 0.059 0.7496
vt 0.2043 0.7668
vt 0.3497 0.7496
vt 0.0577 0.9109
vt 0.2044 0.9943
vt 0.351 0.9109
vt 0.1484 0.4689
vt 0.2043 0.5456
vt 0.2043 0.6397
vt 0.1178 0.5137
vt 0.2602 0.4689
vt 0.2909 0.5137
vt 0.2043 0.7729
vt 0.059 0.7496
vt 0.3497 0.7496
vt 0.2044 0.9389
vt 0.0577 0.9109
vt 0.351 0.9109
vt 0.3561 0.5137
vt 0.2759 0.4595
vt 0.4108 0.7797
vt 0.392 0.9651
vt 0.2044 0.9971
vt 0.0166 0.9651
vt -0.0022 0.7797
vt 0.0526 0.5137
vt 0.1328 0.4595
vt 0.0835 0.6102
vt 0.0684 0.7452
vt 0.2047 0.7112
vt 0.205 0.5774
vt 0.3411 0.7452
vt 0.3276 0.6157
vt 0.1048 0.8329
vt 0.2047 0.8112
vt 0.3046 0.8329
vt 0.2047 0.6598
vt 0.0684 0.7452
vt 0.1341 0.587
vt 0.2753 0.587
vt 0.3411 0.7452
vt 0.2047 0.7859
vt 0.1048 0.8329
vt 0.3046 0.8329
vt 0.3984 0.7721
vt 0.3301 0.486
vt 0.3326 0.8814
vt 0.2047 0.8137
vt 0.0769 0.8814
vt 0.011 0.7721
vt 0.0825 0.486
vt 0.5868 0.7126
vt 0.5868 0.6938
vt 0.528 0.6938
vt 0.4967 0.6814
vt 0.5075 0.6817
vt 0.5555 0.6817
vt 0.6181 0.6817
vt 0.6661 0.6817
vt 0.677 0.6814
vt 0.6457 0.6938
vt 0.5888 0.7022
vt 0.5888 0.6399
vt 0.5 0.6399
vt 0.5459 0.7022
vt 0.4527 0.6427
vt 0.523 0.6949
vt 0.4487 0.6129
vt 0.4654 0.6186
vt 0.5389 0.6188
vt 0.6348 0.6188
vt 0.7083 0.6186
vt 0.725 0.6129
vt 0.6546 0.6949
vt 0.7249 0.6427
vt 0.6776 0.6399
vt 0.6318 0.7022
vt 0.5888 0.6045
vt 0.5002 0.6092
vt 0.453 0.6201
vt 0.47 0.5416
vt 0.4841 0.5223
vt 0.4692 0.6032
vt 0.495 0.5512
vt 0.5693 0.5475
vt 0.6044 0.5475
vt 0.6787 0.5512
vt 0.7044 0.6032
vt 0.6896 0.5223
vt 0.7036 0.5416
vt 0.7246 0.6201
vt 0.6775 0.6092
vt 0.5888 0.5835
vt 0.5868 0.4024
vt 0.5546 0.4004
vt 0.5124 0.4119
vt 0.6191 0.4004
vt 0.6613 0.4119
vt 0.4937 0.4712
vt 0.5559 0.4736
vt 0.6177 0.4736
vt 0.6799 0.4712
vt 0.5868 0.4791
vt 0.7811 0.4993
vt 0.7811 0.54
vt 0.7345 0.54
vt 0.8278 0.54
vt 0.7811 0.54
vt 0.7811 0.6257
vt 0.749 0.6257
vt 0.8133 0.6257
vt 0.7811 0.6257
vt 0.7836 0.8653
vt 0.7515 0.8653
vt 0.8158 0.8653
vt 0.7836 0.8653
vt 0.781 0.9504
vt 0.7368 0.9504
vt 0.8252 0.9504
vt 0.781 0.9504
vt 0.8088 0.9786
vt 0.716 0.3095
vt 0.5232 0.3095
vt 0.6196 0.3671
vt 0.683 0.0173
vt 0.6196 0.0331
vt 0.5562 0.0173
vt 0.6196 0.3633
vt 0.6651 0.3077
vt 0.5741 0.3077
vt 0.6196 0.268
vt 0.6196 0.2085
vt 0.7719 0.1065
vt 0.7901 0.3791
vt 0.7438 0.4021
vt 0.804 0.0872
vt 0.8224 0.3764
vt 0.8362 0.1065
vt 0.7901 0.3792
vt 0.804 0.1065
vt 0.7923 0.4866
vt 0.7277 0.4932
vt 0.8366 0.4868
vt 0.7923 0.4868
vt 0.7802 0.5295
vt 0.9411 0.4745
vt 0.9421 0.5131
vt 0.9867 0.497
vt 0.8994 0.5558
vt 0.9421 0.5131
vt 0.944 0.5944
vt 0.9747 0.6036
vt 0.9152 0.6117
vt 0.944 0.5944
vt 0.9489 0.7927
vt 0.9777 0.8212
vt 0.9182 0.8487
vt 0.9489 0.7927
vt 0.9445 0.8999
vt 0.9962 0.897
vt 0.8895 1.0042
vt 0.9445 0.8999
vt 0.9348 0.9575
vt 0.5425 0.0048
vt 0.716 0.0241
vt 0.6263 0.0059
vt 0.6263 0.2345
vt 0.684 0.3501
vt 0.6263 0.3578
vt 0.7101 0.2298
vt 0.6263 0.3425
vt 0.6263 0.2282
vt 0.5686 0.3501
vt 0.5425 0.2298
vt 0.9656 0.192
vt 0.932 0.411
vt 0.9768 0.4172
vt 0.9349 0.248
vt 0.9033 0.4284
vt 0.9042 0.3041
vt 0.932 0.411
vt 0.9349 0.248
vt 0.9289 0.4901
vt 0.9884 0.4534
vt 0.8886 0.5286
vt 0.9289 0.4901
vt 0.9469 0.4999
vt 0.6263 0.1297
vt 0.7101 0.1186
vt 0.5425 0.1186
vt 0.7467 0.1828
vt 0.4792 0.1165
vt 0.4819 0.1799
vt 0.744 0.1195
vt 0.4766 0.0532
vt 0.7414 0.0561
vt 0.4792 0.1165
vt 0.744 0.1195
vt 0.7614 0.1678
vt 0.5369 0.1175
vt 0.5389 0.1657
vt 0.7594 0.1196
vt 0.5349 0.0693
vt 0.7573 0.0714
vt 0.5369 0.1175
vt 0.7594 0.1196
vt 0.7811 0.4993
vt 0.7345 0.54
vt 0.7811 0.54
vt 0.8278 0.54
vt 0.7811 0.54
vt 0.749 0.6257
vt 0.7811 0.6257
vt 0.8133 0.6257
vt 0.7811 0.6257
vt 0.7515 0.8653
vt 0.7836 0.8653
vt 0.8158 0.8653
vt 0.7836 0.8653
vt 0.7368 0.9504
vt 0.781 0.9504
vt 0.8252 0.9504
vt 0.781 0.9504
vt 0.8088 0.9786
vt 0.716 0.3095
vt 0.6196 0.3671
vt 0.5232 0.3095
vt 0.683 0.0173
vt 0.5562 0.0173
vt 0.6196 0.0331
vt 0.6651 0.3077
vt 0.6196 0.3633
vt 0.5741 0.3077
vt 0.6196 0.268
vt 0.6196 0.2085
vt 0.7719 0.1065
vt 0.7438 0.4021
vt 0.7901 0.3791
vt 0.804 0.0872
vt 0.8224 0.3764
vt 0.8362 0.1065
vt 0.7901 0.3792
vt 0.804 0.1065
vt 0.7277 0.4932
vt 0.7923 0.4866
vt 0.8366 0.4868
vt 0.7923 0.4868
vt 0.7802 0.5295
vt 0.9411 0.4745
vt 0.9867 0.497
vt 0.9421 0.5131
vt 0.8994 0.5558
vt 0.9421 0.5131
vt 0.9747 0.6036
vt 0.944 0.5944
vt 0.9152 0.6117
vt 0.944 0.5944
vt 0.9777 0.8212
vt 0.9489 0.7927
vt 0.9182 0.8487
vt 0.9489 0.7927
vt 0.9962 0.897
vt 0.9445 0.8999
vt 0.8895 1.0042
vt 0.9445 0.8999
vt 0.9348 0.9575
vt 0.5425 0.0048
vt 0.6263 0.0059
vt 0.716 0.0241
vt 0.6263 0.2345
vt 0.6263 0.3578
vt 0.684 0.3501
vt 0.7101 0.2298
vt 0.6263 0.3425
vt 0.6263 0.2282
vt 0.5686 0.3501
vt 0.5425 0.2298
vt 0.9656 0.192
vt 0.9768 0.4172
vt 0.932 0.411
vt 0.9349 0.248
vt 0.9033 0.4284
vt 0.9042 0.3041
vt 0.932 0.411
vt 0.9349 0.248
vt 0.9884 0.4534
vt 0.9289 0.4901
vt 0.8886 0.5286
vt 0.9289 0.4901
vt 0.9469 0.4999
vt 0.6263 0.1297
vt 0.7101 0.1186
vt 0.5425 0.1186
f 109/109/109 111/111/111 110/110/110
f 111/111/111 109/109/109 112/112/112
f 112/112/112 113/113/113 111/111/111
f 113/113/113 112/112/112 114/114/114
f 110/110/110 116/116/116 115/115/115
f 116/116/116 110/110/110 111/111/111
f 111/111/111 117/117/117 116/116/116
f 117/117/117 111/111/111 113/113/113
f 115/115/115 119/119/119 118/118/118
f 119/119/119 115/115/115 116/116/116
f 116/116/116 120/120/120 119/119/119
f 120/120/120 116/116/116 117/117/117
f 121/121/121 123/123/123 122/122/122
f 123/123/123 121/121/121 124/124/124
f 122/122/122 126/126/126 125/125/125
f 126/126/126 122/122/122 123/123/123
f 124/124/124 127/127/127 123/123/123
f 127/127/127 124/124/124 128/128/128
f 123/123/123 129/129/129 126/126/126
f 129/129/129 123/123/123 127/127/127
f 128/128/128 130/130/130 127/127/127
f 130/130/130 128/128/128 131/131/131
f 127/127/127 132/132/132 129/129/129
f 132/132/132 127/127/127 130/130/130
f 114/114/114 133/133/133 113/113/113
f 133/133/133 114/114/114 134/134/134
f 113/113/113 135/135/135 117/117/117
f 135/135/135 113/113/113 133/133/133
f 117/117/117 136/136/136 120/120/120
f 136/136/136 117/117/117 135/135/135
f 134/134/134 126/126/126 133/133/133
f 126/126/126 134/134/134 125/125/125
f 133/133/133 129/129/129 135/135/135
f 129/129/129 133/133/133 126/126/126
f 135/135/135 132/132/132 136/136/136
f 132/132/132 135/135/135 129/129/129
f 120/120/120 137/137/137 119/119/119
f 137/137/137 120/120/120 136/136/136
f 119/119/119 138/138/138 118/118/118
f 138/138/138 119/119/119 137/137/137
f 136/136/136 130/130/130 137/137/137
f 130/130/130 136/136/136 132/132/132
f 137/137/137 131/131/131 138/138/138
f 131/131/131 137/137/137 130/130/130
f 118/118/118 139/139/139 115/115/115
f 139/139/139 118/118/118 138/138/138
f 115/115/115 140/140/140 110/110/110
f 140/140/140 115/115/115 139/139/139
f 110/110/110 141/141/141 109/109/109
f 141/141/141 110/110/110 140/140/140
f 138/138/138 128/128/128 139/139/139
f 128/128/128 138/138/138 131/131/131
f 139/139/139 124/124/124 140/140/140
f 124/124/124 139/139/139 128/128/128
f 140/140/140 121/121/121 141/141/141
f 121/121/121 140/140/140 124/124/124
f 142/142/142 144/144/144 143/143/143
f 144/144/144 142/142/142 145/145/145
f 145/145/145 146/146/146 144/144/144
f 146/146/146 145/145/145 147/147/147
f 143/143/143 149/149/149 148/148/148
f 149/149/149 143/143/143 144/144/144
f 144/144/144 150/150/150 149/149/149
f 150/150/150 144/144/144 146/146/146
f 151/151/151 153/153/153 152/152/152
f 151/151/151 155/155/155 154/154/154
f 152/152/152 156/156/156 151/151/151
f 156/156/156 152/152/152 157/157/157
f 151/151/151 158/158/158 155/155/155
f 158/158/158 151/151/151 156/156/156
f 147/147/147 159/159/159 146/146/146
f 159/159/159 147/147/147 160/160/160
f 146/146/146 161/161/161 150/150/150
f 161/161/161 146/146/146 159/159/159
f 160/160/160 155/155/155 159/159/159
f 155/155/155 160/160/160 154/154/154
f 159/159/159 158/158/158 161/161/161
f 158/158/158 159/159/159 155/155/155
f 150/150/150 162/162/162 149/149/149
f 162/162/162 150/150/150 161/161/161
f 149/149/149 163/163/163 148/148/148
f 163/163/163 149/149/149 162/162/162
f 161/161/161 156/156/156 162/162/162
f 156/156/156 161/161/161 158/158/158
f 162/162/162 157/157/157 163/163/163
f 157/157/157 162/162/162 156/156/156
f 148/148/148 164/164/164 143/143/143
f 164/164/164 148/148/148 163/163/163
f 143/143/143 165/165/165 142/142/142
f 165/165/165 143/143/143 164/164/164
f 163/163/163 152/152/152 164/164/164
f 152/152/152 163/163/163 157/157/157
f 164/164/164 153/153/153 165/165/165
f 153/153/153 164/164/164 152/152/152
f 166/166/166 168/168/168 167/167/167
f 166/166/166 169/169/169 168/168/168
f 166/166/166 170/170/170 169/169/169
f 166/166/166 171/171/171 170/170/170
f 166/166/166 172/172/172 171/171/171
f 166/166/166 173/173/173 172/172/172
f 166/166/166 174/174/174 173/173/173
f 166/166/166 175/175/175 174/174/174
f 166/166/166 167/167/167 175/175/175
f 176/176/176 178/178/178 177/177/177
f 176/176/176 179/179/179 178/178/178
f 179/179/179 180/180/180 178/178/178
f 179/179/179 181/181/181 180/180/180
f 169/169/169 183/183/183 182/182/182
f 169/169/169 170/170/170 183/183/183
f 170/170/170 184/184/184 183/183/183
f 170/170/170 171/171/171 184/184/184
f 171/171/171 185/185/185 184/184/184
f 171/171/171 172/172/172 185/185/185
f 172/172/172 186/186/186 185/185/185
f 172/172/172 173/173/173 186/186/186
f 173/173/173 187/187/187 186/186/186
f 173/173/173 174/174/174 187/187/187
f 188/188/188 190/190/190 189/189/189
f 188/188/188 191/191/191 190/190/190
f 191/191/191 177/177/177 190/190/190
f 191/191/191 176/176/176 177/177/177
f 177/177/177 193/193/193 192/192/192
f 177/177/177 178/178/178 193/193/193
f 178/178/178 194/194/194 193/193/193
f 178/178/178 180/180/180 194/194/194
f 182/182/182 196/196/196 195/195/195
f 182/182/182 183/183/183 196/196/196
f 197/197/197 199/199/199 198/198/198
f 197/197/197 184/184/184 199/199/199
f 184/184/184 200/200/200 199/199/199
f 184/184/184 185/185/185 200/200/200
f 185/185/185 201/201/201 200/200/200
f 185/185/185 202/202/202 201/201/201
f 186/186/186 204/204/204 203/203/203
f 186/186/186 187/187/187 204/204/204
f 189/189/189 206/206/206 205/205/205
f 189/189/189 190/190/190 206/206/206
f 190/190/190 192/192/192 206/206/206
f 190/190/190 177/177/177 192/192/192
f 207/207/207 192/192/192 193/193/193
f 207/207/207 193/193/193 194/194/194
f 208/208/208 210/210/210 209/209/209
f 208/208/208 209/209/209 211/211/211
f 208/208/208 211/211/211 212/212/212
f 207/207/207 205/205/205 206/206/206
f 207/207/207 206/206/206 192/192/192
f 199/199/199 213/213/213 196/196/196
f 213/213/213 199/199/199 214/214/214
f 200/200/200 214/214/214 199/199/199
f 214/214/214 200/200/200 215/215/215
f 203/203/203 215/215/215 200/200/200
f 215/215/215 203/203/203 216/216/216
f 214/214/214 210/210/210 213/213/213
f 210/210/210 214/214/214 209/209/209
f 213/213/213 208/208/208 217/217/217
f 208/208/208 213/213/213 210/210/210
f 215/215/215 209/209/209 214/214/214
f 209/209/209 215/215/215 211/211/211
f 217/217/217 212/212/212 216/216/216
f 212/212/212 217/217/217 208/208/208
f 216/216/216 211/211/211 215/215/215
f 211/211/211 216/216/216 212/212/212
f 204/204/204 216/216/216 203/203/203
f 216/216/216 204/204/204 217/217/217
f 196/196/196 213/213/213 195/195/195
f 195/195/195 213/213/213 217/217/217
f 184/184/184 197/197/197 183/183/183
f 185/185/185 186/186/186 202/202/202
f 183/183/183 198/198/198 196/196/196
f 198/198/198 183/183/183 197/197/197
f 199/199/199 196/196/196 198/198/198
f 200/200/200 201/201/201 203/203/203
f 203/203/203 202/202/202 186/186/186
f 202/202/202 203/203/203 201/201/201
f 218/218/218 220/220/220 219/219/219
f 218/218/218 219/219/219 221/221/221
f 218/218/218 221/221/221 222/222/222
f 218/218/218 222/222/222 220/220/220
f 220/220/220 224/224/224 223/223/223
f 220/220/220 223/223/223 219/219/219
f 219/219/219 223/223/223 225/225/225
f 219/219/219 225/225/225 221/221/221
f 221/221/221 225/225/225 226/226/226
f 221/221/221 226/226/226 222/222/222
f 222/222/222 226/226/226 224/224/224
f 222/222/222 224/224/224 220/220/220
f 224/224/224 228/228/228 227/227/227
f 224/224/224 227/227/227 223/223/223
f 223/223/223 227/227/227 229/229/229
f 223/223/223 229/229/229 225/225/225
f 225/225/225 229/229/229 230/230/230
f 225/225/225 230/230/230 226/226/226
f 226/226/226 230/230/230 228/228/228
f 226/226/226 228/228/228 224/224/224
f 228/228/228 232/232/232 231/231/231
f 228/228/228 231/231/231 227/227/227
f 227/227/227 231/231/231 233/233/233
f 227/227/227 233/233/233 229/229/229
f 229/229/229 233/233/233 234/234/234
f 229/229/229 234/234/234 230/230/230
f 230/230/230 234/234/234 232/232/232
f 230/230/230 232/232/232 228/228/228
f 235/235/235 231/231/231 232/232/232
f 235/235/235 233/233/233 231/231/231
f 235/235/235 234/234/234 233/233/233
f 235/235/235 232/232/232 234/234/234
f 236/236/236 238/238/238 237/237/237
f 239/239/239 241/241/241 240/240/240
f 236/236/236 243/243/243 242/242/242
f 236/236/236 242/242/242 238/238/238
f 238/238/238 242/242/242 244/244/244
f 238/238/238 244/244/244 237/237/237
f 237/237/237 244/244/244 245/245/245
f 237/237/237 245/245/245 246/246/246
f 246/246/246 245/245/245 243/243/243
f 246/246/246 243/243/243 236/236/236
f 247/247/247 249/249/249 248/248/248
f 247/247/247 248/248/248 250/250/250
f 250/250/250 248/248/248 251/251/251
f 250/250/250 251/251/251 252/252/252
f 252/252/252 251/251/251 253/253/253
f 252/252/252 253/253/253 254/254/254
f 254/254/254 253/253/253 249/249/249
f 254/254/254 249/249/249 247/247/247
f 249/249/249 256/256/256 255/255/255
f 249/249/249 255/255/255 248/248/248
f 248/248/248 255/255/255 257/257/257
f 248/248/248 257/257/257 251/251/251
f 251/251/251 257/257/257 258/258/258
f 251/251/251 258/258/258 253/253/253
f 253/253/253 258/258/258 256/256/256
f 253/253/253 256/256/256 249/249/249
f 259/259/259 255/255/255 256/256/256
f 259/259/259 257/257/257 255/255/255
f 259/259/259 258/258/258 257/257/257
f 259/259/259 256/256/256 258/258/258
f 260/260/260 262/262/262 261/261/261
f 260/260/260 261/261/261 263/263/263
f 260/260/260 263/263/263 264/264/264
f 260/260/260 264/264/264 262/262/262
f 262/262/262 266/266/266 265/265/265
f 262/262/262 265/265/265 261/261/261
f 261/261/261 265/265/265 267/267/267
f 261/261/261 267/267/267 263/263/263
f 263/263/263 267/267/267 268/268/268
f 263/263/263 268/268/268 264/264/264
f 264/264/264 268/268/268 266/266/266
f 264/264/264 266/266/266 262/262/262
f 266/266/266 270/270/270 269/269/269
f 266/266/266 269/269/269 265/265/265
f 265/265/265 269/269/269 271/271/271
f 265/265/265 271/271/271 267/267/267
f 267/267/267 271/271/271 272/272/272
f 267/267/267 272/272/272 268/268/268
f 268/268/268 272/272/272 270/270/270
f 268/268/268 270/270/270 266/266/266
f 270/270/270 274/274/274 273/273/273
f 270/270/270 273/273/273 269/269/269
f 269/269/269 273/273/273 275/275/275
f 269/269/269 275/275/275 271/271/271
f 271/271/271 275/275/275 276/276/276
f 271/271/271 276/276/276 272/272/272
f 272/272/272 276/276/276 274/274/274
f 272/272/272 274/274/274 270/270/270
f 277/277/277 273/273/273 274/274/274
f 277/277/277 275/275/275 273/273/273
f 277/277/277 276/276/276 275/275/275
f 277/277/277 274/274/274 276/276/276
f 278/278/278 280/280/280 279/279/279
f 281/281/281 283/283/283 282/282/282
f 281/281/281 282/282/282 284/284/284
f 284/284/284 282/282/282 285/285/285
f 284/284/284 285/285/285 286/286/286
f 286/286/286 285/285/285 287/287/287
f 286/286/286 287/287/287 288/288/288
f 288/288/288 287/287/287 283/283/283
f 288/288/288 283/283/283 281/281/281
f 289/289/289 291/291/291 290/290/290
f 289/289/289 290/290/290 292/292/292
f 292/292/292 290/290/290 293/293/293
f 292/292/292 293/293/293 294/294/294
f 294/294/294 293/293/293 295/295/295
f 294/294/294 295/295/295 296/296/296
f 296/296/296 295/295/295 291/291/291
f 296/296/296 291/291/291 289/289/289
f 291/291/291 298/298/298 297/297/297
f 291/291/291 297/297/297 290/290/290
f 290/290/290 297/297/297 299/299/299
f 290/290/290 299/299/299 293/293/293
f 293/293/293 299/299/299 300/300/300
f 293/293/293 300/300/300 295/295/295
f 295/295/295 300/300/300 298/298/298
f 295/295/295 298/298/298 291/291/291
f 301/301/301 297/297/297 298/298/298
f 301/301/301 299/299/299 297/297/297
f 301/301/301 300/300/300 299/299/299
f 301/301/301 298/298/298 300/300/300
f 237/237/237 239/239/239 236/236/236
f 239/239/239 237/237/237 241/241/241
f 246/246/246 241/241/241 237/237/237
f 241/241/241 246/246/246 240/240/240
f 236/236/236 240/240/240 246/246/246
f 240/240/240 236/236/236 239/239/239
f 284/284/284 302/302/302 281/281/281
f 302/302/302 284/284/284 303/303/303
f 286/286/286 303/303/303 284/284/284
f 303/303/303 286/286/286 304/304/304
f 288/288/288 304/304/304 286/286/286
f 281/281/281 304/304/304 288/288/288
f 304/304/304 281/281/281 302/302/302
f 303/303/303 280/280/280 302/302/302
f 280/280/280 303/303/303 279/279/279
f 304/304/304 279/279/279 303/303/303
f 279/279/279 304/304/304 278/278/278
f 302/302/302 278/278/278 304/304/304
f 278/278/278 302/302/302 280/280/280
f 305/305/305 307/307/307 306/306/306
f 305/305/305 306/306/306 308/308/308
f 308/308/308 306/306/306 309/309/309
f 308/308/308 309/309/309 310/310/310
f 310/310/310 309/309/309 311/311/311
f 310/310/310 311/311/311 312/312/312
f 312/312/312 311/311/311 307/307/307
f 312/312/312 307/307/307 305/305/305
f 313/313/313 315/315/315 314/314/314
f 313/313/313 314/314/314 316/316/316
f 316/316/316 314/314/314 317/317/317
f 316/316/316 317/317/317 318/318/318
f 318/318/318 317/317/317 319/319/319
f 318/318/318 319/319/319 320/320/320
f 320/320/320 319/319/319 315/315/315
f 320/320/320 315/315/315 313/313/313
f 151/151/151 145/145/145 153/153/153
f 145/145/145 165/165/165 153/153/153
f 165/165/165 145/145/145 142/142/142
f 154/154/154 145/145/145 151/151/151
f 160/160/160 145/145/145 154/154/154
f 160/160/160 147/147/147 145/145/145
f 125/125/125 112/112/112 122/122/122
f 112/112/112 125/125/125 114/114/114
f 112/112/112 121/121/121 122/122/122
f 121/121/121 112/112/112 109/109/109
f 121/121/121 109/109/109 141/141/141
f 134/134/134 114/114/114 125/125/125
f 321/321/321 323/323/323 322/322/322
f 321/321/321 324/324/324 323/323/323
f 321/321/321 325/325/325 324/324/324
f 321/321/321 322/322/322 325/325/325
f 322/322/322 327/327/327 326/326/326
f 322/322/322 323/323/323 327/327/327
f 323/323/323 328/328/328 327/327/327
f 323/323/323 324/324/324 328/328/328
f 324/324/324 329/329/329 328/328/328
f 324/324/324 325/325/325 329/329/329
f 325/325/325 326/326/326 329/329/329
f 325/325/325 322/322/322 326/326/326
f 326/326/326 331/331/331 330/330/330
f 326/326/326 327/327/327 331/331/331
f 327/327/327 332/332/332 331/331/331
f 327/327/327 328/328/328 332/332/332
f 328/328/328 333/333/333 332/332/332
f 328/328/328 329/329/329 333/333/333
f 329/329/329 330/330/330 333/333/333
f 329/329/329 326/326/326 330/330/330
f 330/330/330 335/335/335 334/334/334
f 330/330/330 331/331/331 335/335/335
f 331/331/331 336/336/336 335/335/335
f 331/331/331 332/332/332 336/336/336
f 332/332/332 337/337/337 336/336/336
f 332/332/332 333/333/333 337/337/337
f 333/333/333 334/334/334 337/337/337
f 333/333/333 330/330/330 334/334/334
f 338/338/338 334/334/334 335/335/335
f 338/338/338 335/335/335 336/336/336
f 338/338/338 336/336/336 337/337/337
f 338/338/338 337/337/337 334/334/334
f 339/339/339 341/341/341 340/340/340
f 342/342/342 344/344/344 343/343/343
f 339/339/339 346/346/346 345/345/345
f 339/339/339 340/340/340 346/346/346
f 340/340/340 347/347/347 346/346/346
f 340/340/340 341/341/341 347/347/347
f 341/341/341 348/348/348 347/347/347
f 341/341/341 349/349/349 348/348/348
f 349/349/349 345/345/345 348/348/348
f 349/349/349 339/339/339 345/345/345
f 350/350/350 352/352/352 351/351/351
f 350/350/350 353/353/353 352/352/352
f 353/353/353 354/354/354 352/352/352
f 353/353/353 355/355/355 354/354/354
f 355/355/355 356/356/356 354/354/354
f 355/355/355 357/357/357 356/356/356
f 357/357/357 351/351/351 356/356/356
f 357/357/357 350/350/350 351/351/351
f 351/351/351 359/359/359 358/358/358
f 351/351/351 352/352/352 359/359/359
f 352/352/352 360/360/360 359/359/359
f 352/352/352 354/354/354 360/360/360
f 354/354/354 361/361/361 360/360/360
f 354/354/354 356/356/356 361/361/361
f 356/356/356 358/358/358 361/361/361
f 356/356/356 351/351/351 358/358/358
f 362/362/362 358/358/358 359/359/359
f 362/362/362 359/359/359 360/360/360
f 362/362/362 360/360/360 361/361/361
f 362/362/362 361/361/361 358/358/358
f 363/363/363 365/365/365 364/364/364
f 363/363/363 366/366/366 365/365/365
f 363/363/363 367/367/367 366/366/366
f 363/363/363 364/364/364 367/367/367
f 364/364/364 369/369/369 368/368/368
f 364/364/364 365/365/365 369/369/369
f 365/365/365 370/370/370 369/369/369
f 365/365/365 366/366/366 370/370/370
f 366/366/366 371/371/371 370/370/370
f 366/366/366 367/367/367 371/371/371
f 367/367/367 368/368/368 371/371/371
f 367/367/367 364/364/364 368/368/368
f 368/368/368 373/373/373 372/372/372
f 368/368/368 369/369/369 373/373/373
f 369/369/369 374/374/374 373/373/373
f 369/369/369 370/370/370 374/374/374
f 370/370/370 375/375/375 374/374/374
f 370/370/370 371/371/371 375/375/375
f 371/371/371 372/372/372 375/375/375
f 371/371/371 368/368/368 372/372/372
f 372/372/372 377/377/377 376/376/376
f 372/372/372 373/373/373 377/377/377
f 373/373/373 378/378/378 377/377/377
f 373/373/373 374/374/374 378/378/378
f 374/374/374 379/379/379 378/378/378
f 374/374/374 375/375/375 379/379/379
f 375/375/375 376/376/376 379/379/379
f 375/375/375 372/372/372 376/376/376
f 380/380/380 376/376/376 377/377/377
f 380/380/380 377/377/377 378/378/378
f 380/380/380 378/378/378 379/379/379
f 380/380/380 379/379/379 376/376/376
f 381/381/381 383/383/383 382/382/382
f 384/384/384 386/386/386 385/385/385
f 384/384/384 387/387/387 386/386/386
f 387/387/387 388/388/388 386/386/386
f 387/387/387 389/389/389 388/388/388
f 389/389/389 390/390/390 388/388/388
f 389/389/389 391/391/391 390/390/390
f 391/391/391 385/385/385 390/390/390
f 391/391/391 384/384/384 385/385/385
f 392/392/392 394/394/394 393/393/393
f 392/392/392 395/395/395 394/394/394
f 395/395/395 396/396/396 394/394/394
f 395/395/395 397/397/397 396/396/396
f 397/397/397 398/398/398 396/396/396
f 397/397/397 399/399/399 398/398/398
f 399/399/399 393/393/393 398/398/398
f 399/399/399 392/392/392 393/393/393
f 393/393/393 401/401/401 400/400/400
f 393/393/393 394/394/394 401/401/401
f 394/394/394 402/402/402 401/401/401
f 394/394/394 396/396/396 402/402/402
f 396/396/396 403/403/403 402/402/402
f 396/396/396 398/398/398 403/403/403
f 398/398/398 400/400/400 403/403/403
f 398/398/398 393/393/393 400/400/400
f 404/404/404 400/400/400 401/401/401
f 404/404/404 401/401/401 402/402/402
f 404/404/404 402/402/402 403/403/403
f 404/404/404 403/403/403 400/400/400
f 341/341/341 339/339/339 342/342/342
f 342/342/342 343/343/343 341/341/341
f 349/349/349 341/341/341 343/343/343
f 343/343/343 344/344/344 349/349/349
f 339/339/339 349/349/349 344/344/344
f 344/344/344 342/342/342 339/339/339
f 387/387/387 384/384/384 405/405/405
f 405/405/405 406/406/406 387/387/387
f 389/389/389 387/387/387 406/406/406
f 406/406/406 407/407/407 389/389/389
f 391/391/391 389/389/389 407/407/407
f 384/384/384 391/391/391 407/407/407
f 407/407/407 405/405/405 384/384/384
f 406/406/406 405/405/405 382/382/382
f 382/382/382 383/383/383 406/406/406
f 407/407/407 406/406/406 383/383/383
f 383/383/383 381/381/381 407/407/407
f 405/405/405 407/407/407 381/381/381
f 381/381/381 382/382/382 405/405/405
