# Object44.bmd — MU geometry at action 0 key 0, exported for MU2
# 2 mesh(es)

g wood01
# texture: wood01.jpg
v -66.2448 186.4542 -9.798607
v -71.4786 195.591 -4.575905
v -63.68 191.9545 -4.575912
v -74.0435 190.0908 -9.798607
v -74.0435 190.0908 -9.798607
v -72.0769 194.3081 -3.958305
v -71.4786 195.591 -4.575905
v -74.2124 189.7285 -8.306709
v -74.2124 189.7285 -8.306709
v -64.2782 190.6715 -3.958305
v -72.0769 194.3081 -3.958305
v -66.4137 186.0919 -8.306717
v -66.4137 186.0919 -8.306717
v -63.68 191.9545 -4.575912
v -64.2782 190.6715 -3.958305
v -66.2448 186.4542 -9.798607
v -72.1823 194.0822 2.703491
v -71.60521 195.3197 3.425186
v -64.38361 190.4456 2.703491
v -72.1823 194.0822 2.703491
v -63.8065 191.6831 3.425201
v -64.38361 190.4456 2.703491
v -63.8065 191.6831 3.425201
v -74.3278 189.4811 8.179703
v -66.52911 185.8445 8.179794
v -71.60521 195.3197 3.425186
v -74.4491 189.2209 6.662201
v -74.3278 189.4811 8.179703
v -66.6504 185.5843 6.662186
v -74.4491 189.2209 6.662201
v -66.52911 185.8445 8.179794
v -66.6504 185.5843 6.662186
v -75.5093 188.8815 8.439697
v -77.8484 183.8655 3.426689
v -78.3967 182.6896 4.264694
v -75.4443 189.0209 6.902893
v -75.4443 189.0209 6.902893
v -68.5679 179.5379 3.426682
v -77.8484 183.8655 3.426689
v -66.16391 184.6934 6.902901
v -66.16391 184.6934 6.902901
v -69.11621 178.3621 4.264687
v -68.5679 179.5379 3.426682
v -66.2289 184.554 8.43969
v -69.11621 178.3621 4.264687
v -78.8175 181.7873 -3.679909
v -69.537 177.4598 -3.679916
v -78.3967 182.6896 4.264694
v -78.1987 183.1142 -3.188011
v -78.8175 181.7873 -3.679909
v -68.9183 178.7866 -3.188019
v -78.1987 183.1142 -3.188011
v -69.537 177.4598 -3.679916
v -68.9183 178.7866 -3.188019
v -76.4548 186.8541 -9.411606
v -67.17431 182.5266 -9.411606
v -76.23151 187.3328 -7.960304
v -76.4548 186.8541 -9.411606
v -66.95111 183.0053 -7.960304
v -76.23151 187.3328 -7.960304
v -67.17431 182.5266 -9.411606
v -66.95111 183.0053 -7.960304
v -66.2289 184.554 8.43969
v -66.16391 184.6934 6.902901
v -75.4443 189.0209 6.902893
v -75.5093 188.8815 8.439697
v 64.83649 180.0974 10.0069
v 69.88779 189.6258 5.332993
v 62.08909 185.9892 5.332985
v 72.63519 183.734 10.0069
v 72.63519 183.734 10.0069
v 70.46108 188.3965 4.594391
v 69.88779 189.6258 5.332993
v 72.74857 183.4909 8.485893
v 72.74857 183.4909 8.485893
v 62.66238 184.7599 4.594391
v 70.46108 188.3965 4.594391
v 64.94988 179.8543 8.485901
v 64.94988 179.8543 8.485901
v 62.08909 185.9892 5.332985
v 62.66238 184.7599 4.594391
v 64.83649 180.0974 10.0069
v 70.32059 188.6977 -2.063812
v 69.71918 189.9875 -2.663818
v 62.52189 185.0611 -2.063805
v 70.32059 188.6977 -2.063812
v 61.92049 186.351 -2.663811
v 62.52189 185.0611 -2.063805
v 61.92049 186.351 -2.663811
v 72.25628 184.5467 -7.961716
v 64.45759 180.9101 -7.961716
v 69.71918 189.9875 -2.663818
v 72.43299 184.1676 -6.474899
v 72.25628 184.5467 -7.961716
v 64.63428 180.531 -6.474907
v 72.43299 184.1676 -6.474899
v 64.45759 180.9101 -7.961716
v 64.63428 180.531 -6.474907
v 74.38808 181.9092 -8.184525
v 76.32368 177.7583 -2.286598
v 76.92519 176.4684 -2.886497
v 74.21128 182.2884 -6.697723
v 74.21128 182.2884 -6.697723
v 67.04328 173.4307 -2.286606
v 76.32368 177.7583 -2.286598
v 64.93089 177.9608 -6.697716
v 64.93089 177.9608 -6.697716
v 67.64478 172.1409 -2.886612
v 67.04328 173.4307 -2.286606
v 65.10769 177.5817 -8.184509
v 67.64478 172.1409 -2.886612
v 76.75648 176.8301 5.110184
v 67.47608 172.5026 5.110184
v 76.92519 176.4684 -2.886497
v 76.18327 178.0594 4.371582
v 76.75648 176.8301 5.110184
v 66.90289 173.7319 4.371582
v 76.18327 178.0594 4.371582
v 67.47608 172.5026 5.110184
v 66.90289 173.7319 4.371582
v 74.00907 182.722 9.784088
v 64.72868 178.3945 9.784103
v 73.89577 182.9651 8.263092
v 74.00907 182.722 9.784088
v 64.61529 178.6375 8.263084
v 73.89577 182.9651 8.263092
v 64.72868 178.3945 9.784103
v 64.61529 178.6375 8.263084
v 65.10769 177.5817 -8.184509
v 64.93089 177.9608 -6.697716
v 74.21128 182.2884 -6.697723
v 74.38808 181.9092 -8.184525
v 64.72868 178.3945 9.784103
v 74.00907 182.722 9.784088
v 73.89577 182.9651 8.263092
v 64.61529 178.6375 8.263084
v -66.95111 183.0053 -7.960304
v -67.17431 182.5266 -9.411606
v -76.4548 186.8541 -9.411606
v -76.23151 187.3328 -7.960304
vn 0.275687 0.591173 -0.757965
vn 0.275687 0.591173 -0.757965
vn 0.275687 0.591173 -0.757965
vn 0.275687 0.591173 -0.757965
vn -0.906313 0.422606 -0
vn -0.906313 0.422606 -0
vn -0.906313 0.422606 -0
vn -0.906313 0.422606 -0
vn -0.275687 -0.591173 0.757965
vn -0.35571 -0.762722 0.540116
vn -0.409215 -0.877632 0.249609
vn -0.275687 -0.591173 0.757965
vn 0.906313 -0.422606 0
vn 0.906313 -0.422606 0
vn 0.906313 -0.422606 0
vn 0.906313 -0.422606 0
vn -0.906313 0.422606 -0
vn -0.906313 0.422606 -0
vn -0.400198 -0.858296 -0.321199
vn -0.337608 -0.724018 -0.601514
vn 0.906313 -0.422606 0
vn 0.906313 -0.422606 0
vn 0.250995 0.538189 0.804583
vn 0.250995 0.538189 0.804583
vn 0.250995 0.538189 0.804583
vn 0.250995 0.538189 0.804583
vn -0.906313 0.422606 -0
vn -0.906313 0.422606 -0
vn -0.250995 -0.538189 -0.804583
vn -0.250995 -0.538189 -0.804583
vn 0.906313 -0.422606 0
vn 0.906313 -0.422606 0
vn -0.906313 0.422606 -0
vn -0.906313 0.422606 -0
vn -0.906313 0.422606 -0
vn -0.906313 0.422606 -0
vn 0.220395 0.472589 -0.85328
vn 0.314197 0.673793 -0.668793
vn 0.386913 0.829627 -0.402513
vn 0.220395 0.472589 -0.85328
vn 0.906313 -0.422606 0
vn 0.906313 -0.422606 0
vn 0.906313 -0.422606 0
vn 0.906313 -0.422606 0
vn -0.419299 -0.899299 0.1243
vn -0.416899 -0.893999 -0.1642
vn -0.374204 -0.802509 -0.464705
vn -0.419299 -0.899299 0.1243
vn -0.906313 0.422606 -0
vn -0.906313 0.422606 -0
vn 0.416899 0.893999 0.1642
vn 0.374204 0.802509 0.464705
vn 0.906313 -0.422606 0
vn 0.906313 -0.422606 0
vn -0.30251 -0.648823 -0.698224
vn -0.30251 -0.648823 -0.698224
vn -0.906313 0.422606 -0
vn -0.906313 0.422606 -0
vn 0.30251 0.648823 0.698224
vn 0.30251 0.648823 0.698224
vn 0.906313 -0.422606 0
vn 0.906313 -0.422606 0
vn 0.420504 0.901807 0.099601
vn 0.420504 0.901807 0.099601
vn 0.420504 0.901807 0.099601
vn 0.420504 0.901807 0.099601
vn -0.246701 0.529103 0.811904
vn -0.246701 0.529103 0.811904
vn -0.246701 0.529103 0.811904
vn -0.246701 0.529103 0.811904
vn 0.906314 0.422606 0
vn 0.906314 0.422606 0
vn 0.906314 0.422606 0
vn 0.906314 0.422606 0
vn 0.246701 -0.529103 -0.811904
vn 0.334399 -0.717197 -0.611397
vn 0.398494 -0.854586 -0.332995
vn 0.246701 -0.529103 -0.811904
vn -0.906314 -0.422606 -0
vn -0.906314 -0.422606 -0
vn -0.906314 -0.422606 -0
vn -0.906314 -0.422606 -0
vn 0.906314 0.422606 0
vn 0.906314 0.422606 0
vn 0.410496 -0.880391 0.237498
vn 0.358491 -0.76878 0.529586
vn -0.906314 -0.422606 -0
vn -0.906314 -0.422606 -0
vn -0.279598 0.599695 -0.749794
vn -0.279598 0.599695 -0.749794
vn -0.279598 0.599695 -0.749794
vn -0.279598 0.599695 -0.749794
vn 0.906314 0.422606 0
vn 0.906314 0.422606 0
vn 0.279598 -0.599695 0.749794
vn 0.279598 -0.599695 0.749794
vn -0.906314 -0.422606 -0
vn -0.906314 -0.422606 -0
vn 0.906314 0.422606 0
vn 0.906314 0.422606 0
vn 0.906314 0.422606 0
vn 0.906314 0.422606 0
vn -0.279598 0.599695 0.749794
vn -0.358491 0.76878 0.529586
vn -0.410496 0.880391 0.237498
vn -0.279598 0.599695 0.749794
vn -0.906314 -0.422606 -0
vn -0.906314 -0.422606 -0
vn -0.906314 -0.422606 -0
vn -0.906314 -0.422606 -0
vn 0.422092 -0.905184 0.049799
vn 0.398494 -0.854586 0.332995
vn 0.334398 -0.717197 0.611397
vn 0.422092 -0.905184 0.049799
vn 0.906314 0.422606 0
vn 0.906314 0.422606 0
vn -0.398494 0.854586 -0.332995
vn -0.334398 0.717197 -0.611397
vn -0.906314 -0.422606 -0
vn -0.906314 -0.422606 -0
vn 0.246714 -0.529031 0.811948
vn 0.246714 -0.529031 0.811948
vn 0.906314 0.422606 0
vn 0.906314 0.422606 0
vn -0.246714 0.529031 -0.811948
vn -0.246701 0.529103 -0.811904
vn -0.906314 -0.422606 -0
vn -0.906314 -0.422606 -0
vn -0.40682 0.872443 -0.270814
vn -0.40682 0.872443 -0.270814
vn -0.40682 0.872443 -0.270814
vn -0.40682 0.872443 -0.270814
vn -0.416218 0.892538 0.173607
vn -0.416218 0.892538 0.173607
vn -0.416218 0.892538 0.173607
vn -0.416218 0.892538 0.173607
vn 0.397091 0.851681 -0.341992
vn 0.397091 0.851681 -0.341992
vn 0.397091 0.851681 -0.341992
vn 0.397091 0.851681 -0.341992
vt 0.8849 0.22
vt 0.8439 0.1405
vt 0.8433 0.2209
vt 0.8854 0.1402
vt 0.8854 0.1402
vt 0.8536 0.1418
vt 0.8439 0.1405
vt 0.8882 0.1435
vt 0.8882 0.1435
vt 0.853 0.2223
vt 0.8536 0.1418
vt 0.8876 0.2232
vt 0.8876 0.2232
vt 0.8433 0.2209
vt 0.853 0.2223
vt 0.8849 0.22
vt 0.8553 0.1459
vt 0.846 0.1475
vt 0.8547 0.2229
vt 0.8553 0.1459
vt 0.8454 0.2245
vt 0.8547 0.2229
vt 0.8454 0.2245
vt 0.89 0.1488
vt 0.8895 0.2237
vt 0.846 0.1475
vt 0.892 0.1455
vt 0.89 0.1488
vt 0.8914 0.2204
vt 0.892 0.1455
vt 0.8895 0.2237
vt 0.8914 0.2204
vt 0.8845 0.1397
vt 0.9079 0.1437
vt 0.9 0.1432
vt 0.895 0.1402
vt 0.895 0.1402
vt 0.9079 0.2243
vt 0.9079 0.1437
vt 0.8944 0.2256
vt 0.8944 0.2256
vt 0.9 0.2265
vt 0.9079 0.2243
vt 0.884 0.2251
vt 0.9 0.2265
vt 0.9508 0.1451
vt 0.9508 0.2289
vt 0.9 0.1432
vt 0.9501 0.145
vt 0.9508 0.1451
vt 0.9501 0.2256
vt 0.9501 0.145
vt 0.9508 0.2289
vt 0.9501 0.2256
vt 0.9986 0.1452
vt 0.9986 0.2253
vt 0.9899 0.1451
vt 0.9986 0.1452
vt 0.9899 0.2233
vt 0.9899 0.1451
vt 0.9986 0.2253
vt 0.9899 0.2233
vt 0.884 0.2251
vt 0.8944 0.2256
vt 0.895 0.1402
vt 0.8845 0.1397
vt 0.8854 0.1406
vt 0.8433 0.2213
vt 0.8439 0.1408
vt 0.8849 0.2203
vt 0.8849 0.2203
vt 0.853 0.2226
vt 0.8433 0.2213
vt 0.8876 0.2236
vt 0.8876 0.2236
vt 0.8536 0.1422
vt 0.853 0.2226
vt 0.8882 0.1438
vt 0.8882 0.1438
vt 0.8439 0.1408
vt 0.8536 0.1422
vt 0.8854 0.1406
vt 0.8547 0.2232
vt 0.8454 0.2248
vt 0.8553 0.1462
vt 0.8547 0.2232
vt 0.846 0.1478
vt 0.8553 0.1462
vt 0.846 0.1478
vt 0.8895 0.224
vt 0.89 0.1491
vt 0.8454 0.2248
vt 0.8914 0.2207
vt 0.8895 0.224
vt 0.892 0.1458
vt 0.8914 0.2207
vt 0.89 0.1491
vt 0.892 0.1458
vt 0.884 0.2248
vt 0.9079 0.2239
vt 0.9 0.2262
vt 0.8944 0.2253
vt 0.8944 0.2253
vt 0.9079 0.1434
vt 0.9079 0.2239
vt 0.895 0.1399
vt 0.895 0.1399
vt 0.9 0.1429
vt 0.9079 0.1434
vt 0.8845 0.1394
vt 0.9 0.1429
vt 0.9508 0.2286
vt 0.9508 0.1451
vt 0.9 0.2262
vt 0.9501 0.2252
vt 0.9508 0.2286
vt 0.9501 0.145
vt 0.9501 0.2252
vt 0.9508 0.1451
vt 0.9501 0.145
vt 0.9986 0.2249
vt 0.9986 0.1452
vt 0.9899 0.223
vt 0.9986 0.2249
vt 0.9899 0.145
vt 0.9899 0.223
vt 0.9986 0.1452
vt 0.9899 0.145
vt 0.8845 0.1394
vt 0.895 0.1399
vt 0.8944 0.2253
vt 0.884 0.2248
vt 0.9986 0.1452
vt 0.9986 0.2249
vt 0.9899 0.223
vt 0.9899 0.145
vt 0.9899 0.2233
vt 0.9986 0.2253
vt 0.9986 0.1452
vt 0.9899 0.1451
f 1/1/1 3/3/3 2/2/2
f 1/1/1 2/2/2 4/4/4
f 5/5/5 7/7/7 6/6/6
f 5/5/5 6/6/6 8/8/8
f 9/9/9 11/11/11 10/10/10
f 9/9/9 10/10/10 12/12/12
f 13/13/13 15/15/15 14/14/14
f 13/13/13 14/14/14 16/16/16
f 7/7/7 18/18/18 17/17/17
f 7/7/7 17/17/17 6/6/6
f 11/11/11 20/20/20 19/19/19
f 11/11/11 19/19/19 10/10/10
f 15/15/15 22/22/22 21/21/21
f 15/15/15 21/21/21 14/14/14
f 23/23/23 25/25/25 24/24/24
f 23/23/23 24/24/24 26/26/26
f 18/18/18 28/28/28 27/27/27
f 18/18/18 27/27/27 17/17/17
f 20/20/20 30/30/30 29/29/29
f 20/20/20 29/29/29 19/19/19
f 22/22/22 32/32/32 31/31/31
f 22/22/22 31/31/31 21/21/21
f 33/33/33 35/35/35 34/34/34
f 33/33/33 34/34/34 36/36/36
f 37/37/37 39/39/39 38/38/38
f 37/37/37 38/38/38 40/40/40
f 41/41/41 43/43/43 42/42/42
f 41/41/41 42/42/42 44/44/44
f 45/45/45 47/47/47 46/46/46
f 45/45/45 46/46/46 48/48/48
f 35/35/35 50/50/50 49/49/49
f 35/35/35 49/49/49 34/34/34
f 39/39/39 52/52/52 51/51/51
f 39/39/39 51/51/51 38/38/38
f 43/43/43 54/54/54 53/53/53
f 43/43/43 53/53/53 42/42/42
f 47/47/47 56/56/56 55/55/55
f 47/47/47 55/55/55 46/46/46
f 50/50/50 58/58/58 57/57/57
f 50/50/50 57/57/57 49/49/49
f 52/52/52 60/60/60 59/59/59
f 52/52/52 59/59/59 51/51/51
f 54/54/54 62/62/62 61/61/61
f 54/54/54 61/61/61 53/53/53
f 63/63/63 65/65/65 64/64/64
f 63/63/63 66/66/66 65/65/65
f 67/67/67 69/69/69 68/68/68
f 67/67/67 68/68/68 70/70/70
f 71/71/71 73/73/73 72/72/72
f 71/71/71 72/72/72 74/74/74
f 75/75/75 77/77/77 76/76/76
f 75/75/75 76/76/76 78/78/78
f 79/79/79 81/81/81 80/80/80
f 79/79/79 80/80/80 82/82/82
f 73/73/73 84/84/84 83/83/83
f 73/73/73 83/83/83 72/72/72
f 77/77/77 86/86/86 85/85/85
f 77/77/77 85/85/85 76/76/76
f 81/81/81 88/88/88 87/87/87
f 81/81/81 87/87/87 80/80/80
f 89/89/89 91/91/91 90/90/90
f 89/89/89 90/90/90 92/92/92
f 84/84/84 94/94/94 93/93/93
f 84/84/84 93/93/93 83/83/83
f 86/86/86 96/96/96 95/95/95
f 86/86/86 95/95/95 85/85/85
f 88/88/88 98/98/98 97/97/97
f 88/88/88 97/97/97 87/87/87
f 99/99/99 101/101/101 100/100/100
f 99/99/99 100/100/100 102/102/102
f 103/103/103 105/105/105 104/104/104
f 103/103/103 104/104/104 106/106/106
f 107/107/107 109/109/109 108/108/108
f 107/107/107 108/108/108 110/110/110
f 111/111/111 113/113/113 112/112/112
f 111/111/111 112/112/112 114/114/114
f 101/101/101 116/116/116 115/115/115
f 101/101/101 115/115/115 100/100/100
f 105/105/105 118/118/118 117/117/117
f 105/105/105 117/117/117 104/104/104
f 109/109/109 120/120/120 119/119/119
f 109/109/109 119/119/119 108/108/108
f 113/113/113 122/122/122 121/121/121
f 113/113/113 121/121/121 112/112/112
f 116/116/116 124/124/124 123/123/123
f 116/116/116 123/123/123 115/115/115
f 118/118/118 126/126/126 125/125/125
f 118/118/118 125/125/125 117/117/117
f 120/120/120 128/128/128 127/127/127
f 120/120/120 127/127/127 119/119/119
f 129/129/129 131/131/131 130/130/130
f 129/129/129 132/132/132 131/131/131
f 133/133/133 135/135/135 134/134/134
f 133/133/133 136/136/136 135/135/135
f 137/137/137 139/139/139 138/138/138
f 137/137/137 140/140/140 139/139/139

g bons
# texture: bons.jpg
v -7.1585 127.6958 -3.599501
v -16.0741 141.1518 -9.7858
v -1.8918 134.1823 -5.1134
v -1.8918 130.6198 -1.9844
v 12.2906 141.1518 -9.7858
v 3.375 127.6958 -3.599501
v -15.5807 147.676 -10.9701
v -1.8917 148.9016 -8.0572
v 11.7973 147.676 -10.9701
v -15.704 159.1817 -9.7858
v -1.8813 165.1244 -7.161599
v 11.9207 159.1817 -9.7858
v -7.1585 127.6508 2.957898
v -1.8918 133.1184 4.2974
v -1.8918 139.833 8.016799
v -10.043 130.8483 9.540999
v 3.375 127.6508 2.957898
v 6.2595 130.8483 9.540999
v -1.8917 149.3365 14.6183
v -15.5807 147.676 12.6011
v 11.7973 147.676 12.6011
v -1.8826 161.1724 9.751203
v -15.704 159.1817 11.4495
v 11.9207 159.1817 11.4496
v 12.4022 130.8483 -0.803401
v 4.8497 126.9782 -0.592202
v 17.5577 149.8208 -1.9814
v 15.7881 163.0463 -1.687898
v -1.8813 165.3262 -0.855798
v -19.5714 163.0463 -1.687898
v -21.341 149.8208 -1.9814
v -16.1857 130.8483 -0.803401
v -8.6332 126.9782 -0.592202
v -13.2738 102.9292 -10.9748
v -14.6986 112.5583 -9.376601
v -1.8552 110.1325 -7.339604
v -1.8327 100.5855 -5.281003
v 10.9883 112.5583 -9.376601
v 9.7155 103.3212 -10.403
v -11.2622 118.8102 -8.548402
v -1.8552 117.2641 -6.713302
v 7.5519 118.8102 -8.548402
v -1.8552 106.4638 2.603797
v -14.6986 112.5583 7.106797
v -8.5053 101.272 4.966796
v 4.795 101.272 4.966796
v 10.9883 112.5583 7.106797
v -1.8552 115.457 5.113799
v -11.2622 118.8102 6.301497
v 7.5519 118.8102 6.301497
v 16.3928 114.4782 -3.090798
v 9.9533 94.0678 -2.267003
v 10.1858 122.2694 -2.885499
v -1.8552 117.4447 -2.303601
v -13.8961 122.2694 -2.885499
v -20.1031 114.4782 -3.090798
v -13.3702 94.0678 -2.267003
v 2.3925 189.9834 13.245
v 0.647 193.1663 5.577903
v -3.0666 192.8198 7.917701
v -4.4681 189.1374 12.7202
v -2.6688 185.6474 17.8205
v 1.0314 183.7519 19.26991
v 5.249 183.2604 18.1057
v 8.0106 184.403 14.8726
v 7.6761 187.7224 9.368003
v 4.86 191.8962 5.729705
v 0.647 193.1663 5.577903
v -1.5989 189.1751 -0.8737
v -7.2884 188.6442 2.711104
v -3.0666 192.8198 7.917701
v -8.9563 184.5786 11.1406
v -4.4681 189.1374 12.7202
v -8.9563 184.5786 11.1406
v -6.613 181.2413 16.6086
v -0.7959 177.883 19.5577
v 5.6659 177.1301 17.77411
v 9.7488 179.3348 12.0921
v 9.6497 182.4106 6.004703
v 7.6761 187.7224 9.368003
v 9.6497 182.4106 6.004703
v 4.8557 187.2292 -0.641099
v 4.86 191.8962 5.729705
v -3.0961 181.7537 -3.1648
v -7.7343 181.8042 0.281003
v -8.8834 179.4457 7.899201
v -8.8834 179.4457 7.899201
v -6.7076 172.8354 14.8262
v -6.038 178.1804 18.9508
v -5.1817 173.9752 16.9835
v -0.2892 173.2635 15.2569
v 2.0761 172.9879 14.604
v 7.1894 172.5337 13.5687
v 9.8005 176.3349 14.5788
v 7.127299 171.2233 11.0072
v 6.8491 177.6125 3.556502
v 6.8491 177.6125 3.556502
v 2.5344 180.6077 -2.553498
v -2.4479 174.9453 2.057303
v -3.2103 167.3222 2.5135
v -4.1974 163.4775 9.1347
v -7.5524 166.9855 6.725598
v 0.1463 162.9713 7.935702
v 2.4783 165.8167 3.9568
v -7.6752 171.2619 9.425702
v -2.5842 168.1721 12.6369
v 1.577 167.6872 11.4883
v 4.8632 169.8009 5.9647
v -2.4479 174.9453 2.057303
v 2.3246 56.61 11.46699
v 3.0789 59.57581 6.006095
v 7.5177 59.9864 10.56229
v -1.3598 61.4984 10.1572
v 3.0789 61.90891 14.71339
v 4.6674 68.64081 5.029799
v 7.724299 68.9235 8.167602
v 1.6106 69.96481 7.888602
v 4.6674 70.2475 11.0263
v 8.8695 92.9924 -1.495202
v 11.9263 93.2752 1.642596
v 5.8126 94.3165 1.363597
v 8.8695 94.5992 4.5013
v 10.6953 101.2859 -4.928002
v 14.9038 101.6752 -0.608205
v 6.486899 103.1087 -0.992307
v 10.6953 103.498 3.327495
v 8.5736 105.7054 -1.688104
v 0.0935 11.19971 8.33779
v -12.8676 12.9504 9.806891
v -6.387 14.9722 5.619597
v -2.1441 -3.286606 26.02808
v -5.7501 0.939194 27.96328
v -10.6712 -2.134903 26.99459
v -4.6978 19.44071 6.974593
v -1.2826 20.93431 11.32219
v -7.3963 22.01231 11.32219
v -4.3394 21.4733 14.42618
v -5.084 12.6565 19.87599
v -1.2826 20.93431 11.32219
v -0.7549 47.22541 7.131301
v 4.0743 48.8629 11.32209
v -4.6978 19.44071 6.974593
v -3.8802 47.48121 11.3222
v -7.3963 22.01231 11.32219
v -0.752 47.24141 14.4262
v -4.3394 21.4733 14.42618
v 1.0267 58.55901 5.961997
v 7.292 58.16472 11.3221
v -3.1789 59.3171 11.3221
v 1.0295 58.5751 15.5955
v 2.973 62.86811 11.3221
v 53.6563 175.7124 -0.900601
v 50.1785 174.4121 -4.594996
v 48.8847 177.8726 -0.900596
v 51.4724 170.9516 -0.900601
v 50.1786 174.4121 2.793803
v 42.8551 171.674 -3.444898
v 41.9641 174.0571 -0.900601
v 43.7461 169.2908 -0.9006
v 42.8551 171.674 1.643703
v 24.9484 164.9976 -3.444896
v 24.0573 167.3807 -0.9006
v 25.8394 162.6144 -0.9006
v 24.9484 164.9976 1.643701
v 16.5826 161.2766 -4.403398
v 14.1361 165.0879 -0.900599
v 17.8173 156.8756 -0.9006
v 16.5826 161.2766 2.6021
v 13.4471 159.1682 -0.9006
v 92.002 170.6226 2.793801
v 92.002 170.6226 -4.594998
v 93.3436 172.3283 -0.900598
v 83.7516 182.4679 -0.900598
v 74.2121 183.3257 -3.444898
v 73.321 185.7088 -0.900598
v 81.9807 179.9132 -4.594998
v 75.1031 180.9425 -0.900598
v 80.7844 178.3336 -0.900598
v 74.2121 183.3257 1.643703
v 81.9807 179.9132 2.793803
v 73.321 185.7088 -0.900598
v 60.7772 177.7326 -3.444898
v 57.5444 180.4368 -0.900598
v 74.2121 183.3257 -3.444898
v 61.6682 175.3494 -0.900598
v 75.1031 180.9425 -0.900598
v 60.7772 177.7326 1.643701
v 74.2121 183.3257 1.643703
v 54.57 174.99 -4.403398
v 52.302 179.3842 -0.900598
v 55.7967 171.7091 -0.900598
v 54.57 174.99 2.602099
v 50.4072 174.9362 -0.900598
v 88.5983 178.3546 -0.900598
v 86.779 175.1392 -4.595
v 86.779 175.1392 2.793803
v 1.4794 114.0587 -2.510602
v -1.8642 137.1966 -5.614601
v 1.2398 137.1966 -2.510601
v -1.6246 114.0587 -5.614602
v -4.9682 137.1966 -2.510601
v -4.7286 114.0587 -2.510602
v -1.8642 137.1966 0.5934
v -1.6246 114.0587 0.593398
v 0.5709 157.594 -4.044098
v -1.9727 176.6715 0.386704
v 0.3886 175.8639 2.605603
v -1.7905 158.4017 -6.263
v -4.3341 175.8639 2.605603
v -4.1518 157.594 -4.044098
v -1.9727 175.0563 4.8245
v -1.7905 156.7864 -1.825099
v -2.8143 52.5989 -0.900605
v -8.0074 56.0943 -0.900605
v -3.5686 56.877 -5.407807
v 0.8701 57.65961 -0.900605
v -3.5686 56.87691 3.606589
v -8.214 65.3467 -0.900605
v -5.1571 65.8857 -4.004601
v -2.1002 66.4247 -0.900613
v -5.1571 65.8857 2.203399
v -12.416 90.5574 -0.900605
v -9.3591 91.0964 -4.004605
v -6.3023 91.63541 -0.900601
v -9.3591 91.0964 2.203399
v -15.3934 99.2537 -0.900601
v -11.185 99.9958 -5.174001
v -6.9766 100.7378 -0.900601
v -11.185 99.9958 3.372695
v -9.0633 103.4262 -0.900605
v -0.5832 3.363922 -2.727593
v 5.8973 6.304306 -6.329614
v 12.3779 5.435211 -1.761804
v 1.6544 -6.050201 18.1092
v 10.1815 -4.687485 18.7447
v 5.2604 -1.467499 18.88468
v 0.7929 13.8308 -1.086396
v 4.2082 12.33711 -5.434007
v 6.9066 14.90879 -1.086411
v 3.8498 14.3698 2.017676
v 4.5943 7.757385 8.04029
v 0.7929 13.8308 -1.086396
v -4.564 41.75929 -1.086411
v 0.2652 40.12191 -5.277207
v 4.2082 12.33711 -5.434007
v 3.3905 40.37761 -1.086404
v 6.9066 14.90879 -1.086411
v 0.2623 40.1379 2.017699
v 3.8498 14.3698 2.017676
v -7.7816 51.0612 -1.086411
v -1.5164 51.45551 -6.446511
v 2.6892 52.2136 -1.086404
v -1.5192 51.47161 3.187003
v -3.4626 55.7646 -1.086404
v -56.5856 180.2119 -0.900598
v -51.6439 181.9479 -0.900598
v -53.2344 178.6134 -4.595098
v -54.8249 175.2789 -0.900598
v -53.2344 178.6134 2.793803
v -45.0821 177.5439 -0.900596
v -46.1775 175.2474 -3.444901
v -47.2728 172.951 -0.900598
v -46.1774 175.2474 1.643699
v -27.8254 169.3322 -0.9006
v -28.9207 167.0358 -3.444898
v -30.0161 164.7393 -0.9006
v -28.9207 167.0357 1.643701
v -18.1417 166.1834 -0.900599
v -20.9112 162.5998 -4.403398
v -22.5247 158.3232 -0.900599
v -20.9112 162.5998 2.6021
v -17.9713 160.2262 -0.9006
v -96.1764 178.4229 2.793803
v -97.2014 180.3356 -0.900598
v -96.1764 178.4229 -4.594998
v -85.9944 188.6555 -0.900598
v -75.3042 191.8841 -0.900598
v -76.3996 189.5877 -3.444898
v -84.6941 185.8322 -4.594998
v -77.4949 187.2913 -0.900594
v -83.7903 184.0688 -0.900598
v -76.3996 189.5877 1.643703
v -84.6941 185.8322 2.793805
v -75.3042 191.8841 -0.900598
v -60.0471 185.2571 -0.900598
v -63.5033 182.845 -3.444898
v -76.3996 189.5877 -3.444898
v -64.5987 180.5486 -0.900598
v -77.4949 187.2913 -0.900594
v -63.5033 182.845 1.643703
v -76.3996 189.5877 1.643703
v -54.9164 183.7516 -0.900598
v -57.5587 179.5718 -4.403398
v -59.0667 176.4103 -0.900596
v -57.5587 179.5718 2.602099
v -53.4164 179.1554 -0.900598
v -91.4817 185.4464 -0.900601
v -90.2485 181.9639 -4.594998
v -90.2485 181.9639 2.793803
vn 0.257605 -0.804615 -0.53501
vn -0.300101 -0.380801 -0.874603
vn 0.094099 -0.348195 -0.932687
vn 0.049698 -0.922957 -0.381682
vn 0.344306 -0.363306 -0.865715
vn -0.127401 -0.836404 -0.533102
vn -0.479019 -0.031601 -0.877235
vn 0.0108 -0.056297 -0.998356
vn 0.397687 -0.028799 -0.917069
vn -0.553997 0.313598 -0.771196
vn 0.042599 0.627087 -0.777784
vn 0.287804 0.526907 -0.799711
vn 0.300307 -0.863821 0.40451
vn -0.216906 -0.687918 0.692619
vn 0.151301 -0.439103 0.885605
vn -0.238099 -0.580598 0.778598
vn -0.422719 -0.867438 0.262412
vn 0.0497 -0.675596 0.735595
vn 0.0895 -0.0674 0.993704
vn -0.609805 0.0085 0.792506
vn 0.535432 -0.210413 0.817949
vn 0.0047 0.664276 0.747473
vn -0.364016 0.646128 0.670829
vn 0.532502 0.384801 0.753903
vn 0.803498 -0.590998 -0.0715
vn 0.227691 -0.97236 0.051698
vn 0.996333 -0.043801 -0.073502
vn 0.710712 0.695112 -0.108202
vn 0.051999 0.993373 0.102497
vn -0.747582 0.664084 -0.0107
vn -0.99416 -0.089296 -0.060598
vn -0.835175 -0.549984 -0.0009
vn -0.308201 -0.910404 -0.276001
vn -0.060802 -0.268608 -0.961329
vn -0.389484 0.063198 -0.918863
vn 0.049199 -0.0003 -0.998789
vn -0.0204 -0.853685 -0.520391
vn 0.266796 0.162898 -0.949886
vn 0.351796 -0.258797 -0.899591
vn -0.246301 0.519501 -0.818202
vn 0.136797 0.635984 -0.759481
vn -0.068197 0.61527 -0.785361
vn -0.0218 -0.280594 0.959579
vn -0.371302 0.0654 0.926206
vn 0.0086 -0.561102 0.827702
vn -0.320691 -0.513086 0.796178
vn 0.384512 -0.057502 0.921328
vn -0.013401 0.51492 0.857134
vn 0.0375 0.760294 0.648495
vn 0.218389 0.436579 0.872757
vn 0.980426 0.183405 -0.071602
vn 0.561423 -0.809434 0.172107
vn 0.209998 0.96309 -0.168398
vn 0.0395 0.9975 0.0586
vn -0.263808 0.964528 0.0096
vn -0.990654 0.107395 -0.084096
vn -0.656505 -0.742106 -0.135201
vn 0.258802 0.770905 0.582004
vn -0.0039 0.984276 -0.176596
vn -0.453903 0.860506 0.231302
vn -0.522979 0.633375 0.570377
vn -0.323689 0.448385 0.833172
vn 0.125803 0.283707 0.950623
vn 0.57051 0.244304 0.784114
vn 0.829128 0.370213 0.418914
vn 0.853608 0.514405 0.082101
vn 0.558486 0.81028 -0.177596
vn -0.0039 0.984276 -0.176596
vn -0.150301 0.596906 -0.788107
vn -0.781487 0.517591 -0.348394
vn -0.453903 0.860506 0.231302
vn -0.929707 0.268402 0.252202
vn -0.522979 0.633375 0.570377
vn -0.929707 0.268402 0.252202
vn -0.748496 0.191799 0.634797
vn -0.060297 -0.190391 0.979855
vn 0.425489 -0.205695 0.881277
vn 0.980607 -0.0278 0.194001
vn 0.959316 0.065201 -0.274704
vn 0.853608 0.514405 0.082101
vn 0.959316 0.065201 -0.274704
vn 0.595092 0.365195 -0.71589
vn 0.558486 0.81028 -0.177596
vn -0.197794 -0.074998 -0.97737
vn -0.777014 -0.095402 -0.622212
vn -0.976872 -0.151196 -0.151196
vn -0.976872 -0.151196 -0.151196
vn -0.757907 -0.467004 0.455504
vn -0.335994 -0.219696 0.915883
vn -0.507377 -0.515177 0.690769
vn -0.0099 -0.637602 0.770302
vn 0.163299 -0.605395 0.778993
vn 0.371311 -0.682521 0.629519
vn 0.871918 -0.241405 0.426009
vn 0.788449 -0.603461 0.119092
vn 0.750714 -0.377407 -0.54221
vn 0.750714 -0.377407 -0.54221
vn 0.457488 -0.295792 -0.838577
vn -0.2152 -0.3973 -0.8921
vn -0.422299 -0.404299 -0.811299
vn -0.342594 -0.870484 0.353394
vn -0.932721 -0.358108 0.042301
vn 0.442801 -0.896603 0.0055
vn 0.502006 -0.403805 -0.764809
vn -0.955001 -0.296 0.0189
vn -0.27591 -0.421715 0.863731
vn 0.421694 -0.620591 0.661091
vn 0.814205 -0.468203 -0.343302
vn -0.2152 -0.3973 -0.8921
vn -0.179393 -0.947863 0.26339
vn -0.242605 -0.424709 -0.872219
vn 0.901472 -0.422487 -0.094097
vn -0.975465 -0.026999 0.218492
vn 0.155999 -0.0269 0.987391
vn 0.014499 -0.169293 -0.985459
vn 0.996397 -0.0822 0.0209
vn -0.975013 0.214603 -0.057401
vn 0.0088 0.303287 0.952859
vn -0.0056 -0.285884 -0.958248
vn 0.974605 -0.216101 0.0587
vn -0.994121 0.104402 -0.028701
vn -0.0172 0.173902 0.984613
vn 0.178005 0.0006 -0.984029
vn 0.944696 0.300299 0.131799
vn -0.9379 0.2234 -0.2654
vn -0.238487 0.52227 0.818754
vn -0.054 0.960895 -0.271598
vn 0.892911 -0.123702 -0.432906
vn -0.948472 -0.183395 -0.258393
vn -0.317699 0.0645 -0.945996
vn 0.324589 -0.944966 0.040999
vn 0.433911 0.251906 0.865023
vn -0.64178 -0.052698 0.765076
vn -0.075104 0.213511 -0.97405
vn 0.997401 0.0532 -0.0486
vn -0.948701 0.3126 0.0474
vn -0.0309 0.195599 0.980197
vn 0.165408 0.478724 0.862243
vn 0.997401 0.0532 -0.0486
vn -0.056402 -0.046302 -0.997334
vn 0.975724 -0.216205 0.034901
vn -0.075104 0.213511 -0.97405
vn -0.992905 0.0894 0.0784
vn -0.948701 0.3126 0.0474
vn -0.090498 -0.042699 0.994981
vn -0.0309 0.195599 0.980197
vn 0.189096 0.268695 -0.944482
vn 0.941987 0.128698 0.309996
vn -0.892416 0.434908 -0.120202
vn -0.2061 0.2777 0.938299
vn 0.085003 0.993933 0.069802
vn 0.94097 0.338489 -0
vn 0.296795 -0.093198 -0.950383
vn -0.109795 0.968456 -0.22369
vn 0.590306 -0.776308 0.221102
vn 0.154402 0.254703 0.954613
vn -0.067399 -0.026 -0.997387
vn -0.454 0.891 -0.0019
vn 0.308206 -0.95132 0.0002
vn -0.0679 -0.0243 0.997396
vn 0.062702 0.049101 -0.996824
vn -0.332698 0.942893 -0.0163
vn 0.490608 -0.871215 0.017
vn 0.060902 0.0032 0.998139
vn -0.299387 0.051198 -0.952757
vn -0.698091 0.669292 0.254397
vn 0.155594 -0.954263 -0.25529
vn -0.144805 -0.262408 0.95403
vn -0.90637 -0.422486 -0
vn 0.717773 -0.165694 0.676275
vn 0.0128 -0.936322 -0.350908
vn 0.915229 0.32261 -0.241408
vn 0.52691 0.849817 0.0133
vn 0.0852 0.0268 -0.996003
vn 0.0091 0.998909 -0.0458
vn -0.051599 -0.092398 -0.994384
vn -0.081604 -0.994349 0.067903
vn -0.571275 -0.812464 0.116395
vn -0.173402 -0.058501 0.983112
vn -0.010301 0.19701 0.980348
vn 0.0091 0.998909 -0.0458
vn 0.097598 -0.0168 -0.995084
vn -0.300806 0.95332 -0.0264
vn 0.0852 0.0268 -0.996003
vn 0.49562 -0.868535 -0.0028
vn -0.081604 -0.994349 0.067903
vn 0.100596 -0.045998 0.993864
vn -0.173402 -0.058501 0.983112
vn -0.251799 0.0188 -0.967597
vn -0.583803 0.757104 0.293202
vn 0.079102 -0.970324 -0.228506
vn -0.1172 -0.2787 0.9532
vn -0.923706 -0.383102 -0
vn 0.744779 0.666781 -0.026599
vn -0.060302 -0.265109 -0.962331
vn -0.330691 -0.443988 0.832777
vn 0.948647 0.0088 -0.316216
vn 0.316196 0.003 -0.948689
vn 0.948646 0.0089 0.316215
vn -0.316196 -0.003 -0.948689
vn -0.948646 -0.0089 -0.316215
vn -0.948646 -0.0089 0.316215
vn -0.316196 -0.003 0.948689
vn 0.316196 0.003 0.948689
vn 0.949783 0.105198 -0.294695
vn 0.319701 0.297801 -0.899503
vn 0.949599 -0.0899 0.3003
vn -0.319097 0.292697 -0.901391
vn -0.949599 0.0899 -0.3003
vn -0.949783 -0.105198 0.294695
vn -0.319701 -0.297801 0.899503
vn 0.319097 -0.292697 0.901391
vn 0.179897 -0.983685 -0
vn -0.899487 -0.386194 -0.204397
vn 0.242501 -0.198601 -0.949606
vn 0.975977 -0.078098 0.203395
vn -0.157894 -0.26309 0.951763
vn -0.99644 -0.084303 -0.0012
vn -0.011 0.066601 -0.997719
vn 0.975297 0.220899 0.0004
vn -0.0131 0.069201 0.997517
vn -0.974979 -0.222295 0.0004
vn 0.0093 -0.051601 -0.998625
vn 0.994194 0.107599 -0.0006
vn 0.0124 -0.062398 0.997974
vn -0.941794 0.259698 0.213499
vn -0.175404 0.238305 -0.95522
vn 0.939628 0.278308 -0.199106
vn 0.231592 0.304689 0.923867
vn 0.052002 0.998647 0
vn -0.912411 -0.194502 -0.360104
vn 0.348796 -0.090799 -0.93279
vn 0.950515 -0.268204 -0.156803
vn -0.315592 -0.905776 0.282792
vn 0.651299 0.1277 0.747999
vn -0.439197 0.457297 0.773295
vn -0.996104 0.0687 -0.0553
vn 0.0792 0.138401 -0.987204
vn 0.961112 0.273203 0.040301
vn 0.039099 0.258691 0.965168
vn -0.151497 0.653188 0.741886
vn -0.996104 0.0687 -0.0553
vn -0.975724 -0.216205 0.034901
vn 0.056402 -0.046302 -0.997334
vn 0.0792 0.138401 -0.987204
vn 0.992905 0.0894 0.0784
vn 0.961112 0.273203 0.040301
vn 0.090498 -0.042699 0.994981
vn 0.039099 0.258691 0.965168
vn -0.941987 0.128698 0.309996
vn -0.189096 0.268695 -0.944482
vn 0.892416 0.434908 -0.120202
vn 0.2061 0.2777 0.938299
vn -0.085003 0.993933 0.069802
vn -0.90885 0.417123 -0
vn 0.200407 0.954134 -0.222408
vn -0.304699 -0.0683 -0.949997
vn -0.657236 -0.72104 0.219412
vn -0.129695 0.266889 0.954961
vn 0.534297 0.845295 -0.002
vn 0.064501 -0.031501 -0.99742
vn -0.396597 -0.917993 -0
vn 0.065102 -0.029901 0.997431
vn 0.419909 0.907418 -0.0164
vn -0.057599 0.053999 -0.996878
vn -0.568276 -0.822665 0.016899
vn -0.060197 0.008299 0.998152
vn 0.754095 0.606496 0.251998
vn 0.303609 0.026501 -0.952428
vn -0.244289 -0.935957 -0.253589
vn 0.119895 -0.273189 0.95446
vn 0.867763 -0.496979 -0
vn -0.729983 -0.047899 0.681785
vn -0.845935 0.47362 -0.24511
vn -0.172792 -0.919957 -0.351884
vn -0.44932 0.89314 0.020301
vn 0.027299 0.998578 -0.045799
vn -0.099204 0.029001 -0.994644
vn 0.0862 -0.082 -0.992898
vn 0.064201 -0.996015 0.061901
vn 0.506807 -0.855812 0.103601
vn 0.194396 -0.061699 0.978981
vn -0.0007 0.198097 0.980182
vn 0.027299 0.998578 -0.045799
vn 0.389515 0.920636 -0.026601
vn -0.0985 -0.0085 -0.995101
vn -0.099204 0.029001 -0.994644
vn -0.573024 -0.819534 -0.0029
vn 0.064201 -0.996015 0.061901
vn -0.104305 -0.037202 0.993849
vn 0.194396 -0.061699 0.978981
vn 0.649196 0.702796 0.290898
vn 0.25339 -0.0021 -0.967362
vn -0.169194 -0.959064 -0.227092
vn 0.091002 -0.287605 0.953416
vn 0.887812 -0.460206 -0
vn -0.615994 0.787292 -0.0269
vn 0.0111 -0.274691 -0.961469
vn 0.244383 -0.495966 0.833243
vt 0.1484 0.4695
vt 0.0538 0.6582
vt 0.2043 0.5605
vt 0.2043 0.5105
vt 0.3549 0.6582
vt 0.2602 0.4695
vt 0.059 0.7496
vt 0.2043 0.7668
vt 0.3497 0.7496
vt 0.0577 0.9109
vt 0.2044 0.9943
vt 0.351 0.9109
vt 0.1484 0.4689
vt 0.2043 0.5456
vt 0.2043 0.6397
vt 0.1178 0.5137
vt 0.2602 0.4689
vt 0.2909 0.5137
vt 0.2043 0.7729
vt 0.059 0.7496
vt 0.3497 0.7496
vt 0.2044 0.9389
vt 0.0577 0.9109
vt 0.351 0.9109
vt 0.3561 0.5137
vt 0.2759 0.4595
vt 0.4108 0.7797
vt 0.392 0.9651
vt 0.2044 0.9971
vt 0.0166 0.9651
vt -0.0022 0.7797
vt 0.0526 0.5137
vt 0.1328 0.4595
vt 0.0835 0.6102
vt 0.0684 0.7452
vt 0.2047 0.7112
vt 0.205 0.5774
vt 0.3411 0.7452
vt 0.3276 0.6157
vt 0.1048 0.8329
vt 0.2047 0.8112
vt 0.3046 0.8329
vt 0.2047 0.6598
vt 0.0684 0.7452
vt 0.1341 0.587
vt 0.2753 0.587
vt 0.3411 0.7452
vt 0.2047 0.7859
vt 0.1048 0.8329
vt 0.3046 0.8329
vt 0.3984 0.7721
vt 0.3301 0.486
vt 0.3326 0.8814
vt 0.2047 0.8137
vt 0.0769 0.8814
vt 0.011 0.7721
vt 0.0825 0.486
vt 0.5868 0.7126
vt 0.5868 0.6938
vt 0.528 0.6938
vt 0.4967 0.6814
vt 0.5075 0.6817
vt 0.5555 0.6817
vt 0.6181 0.6817
vt 0.6661 0.6817
vt 0.677 0.6814
vt 0.6457 0.6938
vt 0.5888 0.7022
vt 0.5888 0.6399
vt 0.5 0.6399
vt 0.5459 0.7022
vt 0.4527 0.6427
vt 0.523 0.6949
vt 0.4487 0.6129
vt 0.4654 0.6186
vt 0.5389 0.6188
vt 0.6348 0.6188
vt 0.7083 0.6186
vt 0.725 0.6129
vt 0.6546 0.6949
vt 0.7249 0.6427
vt 0.6776 0.6399
vt 0.6318 0.7022
vt 0.5888 0.6045
vt 0.5002 0.6092
vt 0.453 0.6201
vt 0.47 0.5416
vt 0.4841 0.5223
vt 0.4692 0.6032
vt 0.495 0.5512
vt 0.5693 0.5475
vt 0.6044 0.5475
vt 0.6787 0.5512
vt 0.7044 0.6032
vt 0.6896 0.5223
vt 0.7036 0.5416
vt 0.7246 0.6201
vt 0.6775 0.6092
vt 0.5888 0.5835
vt 0.5868 0.4024
vt 0.5546 0.4004
vt 0.5124 0.4119
vt 0.6191 0.4004
vt 0.6613 0.4119
vt 0.4937 0.4712
vt 0.5559 0.4736
vt 0.6177 0.4736
vt 0.6799 0.4712
vt 0.5868 0.4791
vt 0.7811 0.4993
vt 0.7811 0.54
vt 0.7345 0.54
vt 0.8278 0.54
vt 0.7811 0.54
vt 0.7811 0.6257
vt 0.749 0.6257
vt 0.8133 0.6257
vt 0.7811 0.6257
vt 0.7836 0.8653
vt 0.7515 0.8653
vt 0.8158 0.8653
vt 0.7836 0.8653
vt 0.781 0.9504
vt 0.7368 0.9504
vt 0.8252 0.9504
vt 0.781 0.9504
vt 0.8088 0.9786
vt 0.716 0.3095
vt 0.5232 0.3095
vt 0.6196 0.3671
vt 0.683 0.0173
vt 0.6196 0.0331
vt 0.5562 0.0173
vt 0.6196 0.3633
vt 0.6651 0.3077
vt 0.5741 0.3077
vt 0.6196 0.268
vt 0.6196 0.2085
vt 0.7719 0.1065
vt 0.7901 0.3791
vt 0.7438 0.4021
vt 0.804 0.0872
vt 0.8224 0.3764
vt 0.8362 0.1065
vt 0.7901 0.3792
vt 0.804 0.1065
vt 0.7923 0.4866
vt 0.7277 0.4932
vt 0.8366 0.4868
vt 0.7923 0.4868
vt 0.7802 0.5295
vt 0.9411 0.4745
vt 0.9421 0.5131
vt 0.9867 0.497
vt 0.8994 0.5558
vt 0.9421 0.5131
vt 0.944 0.5944
vt 0.9747 0.6036
vt 0.9152 0.6117
vt 0.944 0.5944
vt 0.9489 0.7927
vt 0.9777 0.8212
vt 0.9182 0.8487
vt 0.9489 0.7927
vt 0.9445 0.8999
vt 0.9962 0.897
vt 0.8895 1.0042
vt 0.9445 0.8999
vt 0.9348 0.9575
vt 0.5425 0.0048
vt 0.716 0.0241
vt 0.6263 0.0059
vt 0.6263 0.2345
vt 0.684 0.3501
vt 0.6263 0.3578
vt 0.7101 0.2298
vt 0.6263 0.3425
vt 0.6263 0.2282
vt 0.5686 0.3501
vt 0.5425 0.2298
vt 0.9656 0.192
vt 0.932 0.411
vt 0.9768 0.4172
vt 0.9349 0.248
vt 0.9033 0.4284
vt 0.9042 0.3041
vt 0.932 0.411
vt 0.9349 0.248
vt 0.9289 0.4901
vt 0.9884 0.4534
vt 0.8886 0.5286
vt 0.9289 0.4901
vt 0.9469 0.4999
vt 0.6263 0.1297
vt 0.7101 0.1186
vt 0.5425 0.1186
vt 0.7467 0.1828
vt 0.4792 0.1165
vt 0.4819 0.1799
vt 0.744 0.1195
vt 0.4766 0.0532
vt 0.7414 0.0561
vt 0.4792 0.1165
vt 0.744 0.1195
vt 0.7614 0.1678
vt 0.5369 0.1175
vt 0.5389 0.1657
vt 0.7594 0.1196
vt 0.5349 0.0693
vt 0.7573 0.0714
vt 0.5369 0.1175
vt 0.7594 0.1196
vt 0.7811 0.4993
vt 0.7345 0.54
vt 0.7811 0.54
vt 0.8278 0.54
vt 0.7811 0.54
vt 0.749 0.6257
vt 0.7811 0.6257
vt 0.8133 0.6257
vt 0.7811 0.6257
vt 0.7515 0.8653
vt 0.7836 0.8653
vt 0.8158 0.8653
vt 0.7836 0.8653
vt 0.7368 0.9504
vt 0.781 0.9504
vt 0.8252 0.9504
vt 0.781 0.9504
vt 0.8088 0.9786
vt 0.716 0.3095
vt 0.6196 0.3671
vt 0.5232 0.3095
vt 0.683 0.0173
vt 0.5562 0.0173
vt 0.6196 0.0331
vt 0.6651 0.3077
vt 0.6196 0.3633
vt 0.5741 0.3077
vt 0.6196 0.268
vt 0.6196 0.2085
vt 0.7719 0.1065
vt 0.7438 0.4021
vt 0.7901 0.3791
vt 0.804 0.0872
vt 0.8224 0.3764
vt 0.8362 0.1065
vt 0.7901 0.3792
vt 0.804 0.1065
vt 0.7277 0.4932
vt 0.7923 0.4866
vt 0.8366 0.4868
vt 0.7923 0.4868
vt 0.7802 0.5295
vt 0.9411 0.4745
vt 0.9867 0.497
vt 0.9421 0.5131
vt 0.8994 0.5558
vt 0.9421 0.5131
vt 0.9747 0.6036
vt 0.944 0.5944
vt 0.9152 0.6117
vt 0.944 0.5944
vt 0.9777 0.8212
vt 0.9489 0.7927
vt 0.9182 0.8487
vt 0.9489 0.7927
vt 0.9962 0.897
vt 0.9445 0.8999
vt 0.8895 1.0042
vt 0.9445 0.8999
vt 0.9348 0.9575
vt 0.5425 0.0048
vt 0.6263 0.0059
vt 0.716 0.0241
vt 0.6263 0.2345
vt 0.6263 0.3578
vt 0.684 0.3501
vt 0.7101 0.2298
vt 0.6263 0.3425
vt 0.6263 0.2282
vt 0.5686 0.3501
vt 0.5425 0.2298
vt 0.9656 0.192
vt 0.9768 0.4172
vt 0.932 0.411
vt 0.9349 0.248
vt 0.9033 0.4284
vt 0.9042 0.3041
vt 0.932 0.411
vt 0.9349 0.248
vt 0.9884 0.4534
vt 0.9289 0.4901
vt 0.8886 0.5286
vt 0.9289 0.4901
vt 0.9469 0.4999
vt 0.6263 0.1297
vt 0.7101 0.1186
vt 0.5425 0.1186
f 141/141/141 143/143/143 142/142/142
f 143/143/143 141/141/141 144/144/144
f 144/144/144 145/145/145 143/143/143
f 145/145/145 144/144/144 146/146/146
f 142/142/142 148/148/148 147/147/147
f 148/148/148 142/142/142 143/143/143
f 143/143/143 149/149/149 148/148/148
f 149/149/149 143/143/143 145/145/145
f 147/147/147 151/151/151 150/150/150
f 151/151/151 147/147/147 148/148/148
f 148/148/148 152/152/152 151/151/151
f 152/152/152 148/148/148 149/149/149
f 153/153/153 155/155/155 154/154/154
f 155/155/155 153/153/153 156/156/156
f 154/154/154 158/158/158 157/157/157
f 158/158/158 154/154/154 155/155/155
f 156/156/156 159/159/159 155/155/155
f 159/159/159 156/156/156 160/160/160
f 155/155/155 161/161/161 158/158/158
f 161/161/161 155/155/155 159/159/159
f 160/160/160 162/162/162 159/159/159
f 162/162/162 160/160/160 163/163/163
f 159/159/159 164/164/164 161/161/161
f 164/164/164 159/159/159 162/162/162
f 146/146/146 165/165/165 145/145/145
f 165/165/165 146/146/146 166/166/166
f 145/145/145 167/167/167 149/149/149
f 167/167/167 145/145/145 165/165/165
f 149/149/149 168/168/168 152/152/152
f 168/168/168 149/149/149 167/167/167
f 166/166/166 158/158/158 165/165/165
f 158/158/158 166/166/166 157/157/157
f 165/165/165 161/161/161 167/167/167
f 161/161/161 165/165/165 158/158/158
f 167/167/167 164/164/164 168/168/168
f 164/164/164 167/167/167 161/161/161
f 152/152/152 169/169/169 151/151/151
f 169/169/169 152/152/152 168/168/168
f 151/151/151 170/170/170 150/150/150
f 170/170/170 151/151/151 169/169/169
f 168/168/168 162/162/162 169/169/169
f 162/162/162 168/168/168 164/164/164
f 169/169/169 163/163/163 170/170/170
f 163/163/163 169/169/169 162/162/162
f 150/150/150 171/171/171 147/147/147
f 171/171/171 150/150/150 170/170/170
f 147/147/147 172/172/172 142/142/142
f 172/172/172 147/147/147 171/171/171
f 142/142/142 173/173/173 141/141/141
f 173/173/173 142/142/142 172/172/172
f 170/170/170 160/160/160 171/171/171
f 160/160/160 170/170/170 163/163/163
f 171/171/171 156/156/156 172/172/172
f 156/156/156 171/171/171 160/160/160
f 172/172/172 153/153/153 173/173/173
f 153/153/153 172/172/172 156/156/156
f 174/174/174 176/176/176 175/175/175
f 176/176/176 174/174/174 177/177/177
f 177/177/177 178/178/178 176/176/176
f 178/178/178 177/177/177 179/179/179
f 175/175/175 181/181/181 180/180/180
f 181/181/181 175/175/175 176/176/176
f 176/176/176 182/182/182 181/181/181
f 182/182/182 176/176/176 178/178/178
f 183/183/183 185/185/185 184/184/184
f 183/183/183 187/187/187 186/186/186
f 184/184/184 188/188/188 183/183/183
f 188/188/188 184/184/184 189/189/189
f 183/183/183 190/190/190 187/187/187
f 190/190/190 183/183/183 188/188/188
f 179/179/179 191/191/191 178/178/178
f 191/191/191 179/179/179 192/192/192
f 178/178/178 193/193/193 182/182/182
f 193/193/193 178/178/178 191/191/191
f 192/192/192 187/187/187 191/191/191
f 187/187/187 192/192/192 186/186/186
f 191/191/191 190/190/190 193/193/193
f 190/190/190 191/191/191 187/187/187
f 182/182/182 194/194/194 181/181/181
f 194/194/194 182/182/182 193/193/193
f 181/181/181 195/195/195 180/180/180
f 195/195/195 181/181/181 194/194/194
f 193/193/193 188/188/188 194/194/194
f 188/188/188 193/193/193 190/190/190
f 194/194/194 189/189/189 195/195/195
f 189/189/189 194/194/194 188/188/188
f 180/180/180 196/196/196 175/175/175
f 196/196/196 180/180/180 195/195/195
f 175/175/175 197/197/197 174/174/174
f 197/197/197 175/175/175 196/196/196
f 195/195/195 184/184/184 196/196/196
f 184/184/184 195/195/195 189/189/189
f 196/196/196 185/185/185 197/197/197
f 185/185/185 196/196/196 184/184/184
f 198/198/198 200/200/200 199/199/199
f 198/198/198 201/201/201 200/200/200
f 198/198/198 202/202/202 201/201/201
f 198/198/198 203/203/203 202/202/202
f 198/198/198 204/204/204 203/203/203
f 198/198/198 205/205/205 204/204/204
f 198/198/198 206/206/206 205/205/205
f 198/198/198 207/207/207 206/206/206
f 198/198/198 199/199/199 207/207/207
f 208/208/208 210/210/210 209/209/209
f 208/208/208 211/211/211 210/210/210
f 211/211/211 212/212/212 210/210/210
f 211/211/211 213/213/213 212/212/212
f 201/201/201 215/215/215 214/214/214
f 201/201/201 202/202/202 215/215/215
f 202/202/202 216/216/216 215/215/215
f 202/202/202 203/203/203 216/216/216
f 203/203/203 217/217/217 216/216/216
f 203/203/203 204/204/204 217/217/217
f 204/204/204 218/218/218 217/217/217
f 204/204/204 205/205/205 218/218/218
f 205/205/205 219/219/219 218/218/218
f 205/205/205 206/206/206 219/219/219
f 220/220/220 222/222/222 221/221/221
f 220/220/220 223/223/223 222/222/222
f 223/223/223 209/209/209 222/222/222
f 223/223/223 208/208/208 209/209/209
f 209/209/209 225/225/225 224/224/224
f 209/209/209 210/210/210 225/225/225
f 210/210/210 226/226/226 225/225/225
f 210/210/210 212/212/212 226/226/226
f 214/214/214 228/228/228 227/227/227
f 214/214/214 215/215/215 228/228/228
f 229/229/229 231/231/231 230/230/230
f 229/229/229 216/216/216 231/231/231
f 216/216/216 232/232/232 231/231/231
f 216/216/216 217/217/217 232/232/232
f 217/217/217 233/233/233 232/232/232
f 217/217/217 234/234/234 233/233/233
f 218/218/218 236/236/236 235/235/235
f 218/218/218 219/219/219 236/236/236
f 221/221/221 238/238/238 237/237/237
f 221/221/221 222/222/222 238/238/238
f 222/222/222 224/224/224 238/238/238
f 222/222/222 209/209/209 224/224/224
f 239/239/239 224/224/224 225/225/225
f 239/239/239 225/225/225 226/226/226
f 240/240/240 242/242/242 241/241/241
f 240/240/240 241/241/241 243/243/243
f 240/240/240 243/243/243 244/244/244
f 239/239/239 237/237/237 238/238/238
f 239/239/239 238/238/238 224/224/224
f 231/231/231 245/245/245 228/228/228
f 245/245/245 231/231/231 246/246/246
f 232/232/232 246/246/246 231/231/231
f 246/246/246 232/232/232 247/247/247
f 235/235/235 247/247/247 232/232/232
f 247/247/247 235/235/235 248/248/248
f 246/246/246 242/242/242 245/245/245
f 242/242/242 246/246/246 241/241/241
f 245/245/245 240/240/240 249/249/249
f 240/240/240 245/245/245 242/242/242
f 247/247/247 241/241/241 246/246/246
f 241/241/241 247/247/247 243/243/243
f 249/249/249 244/244/244 248/248/248
f 244/244/244 249/249/249 240/240/240
f 248/248/248 243/243/243 247/247/247
f 243/243/243 248/248/248 244/244/244
f 236/236/236 248/248/248 235/235/235
f 248/248/248 236/236/236 249/249/249
f 228/228/228 245/245/245 227/227/227
f 227/227/227 245/245/245 249/249/249
f 216/216/216 229/229/229 215/215/215
f 217/217/217 218/218/218 234/234/234
f 215/215/215 230/230/230 228/228/228
f 230/230/230 215/215/215 229/229/229
f 231/231/231 228/228/228 230/230/230
f 232/232/232 233/233/233 235/235/235
f 235/235/235 234/234/234 218/218/218
f 234/234/234 235/235/235 233/233/233
f 250/250/250 252/252/252 251/251/251
f 250/250/250 251/251/251 253/253/253
f 250/250/250 253/253/253 254/254/254
f 250/250/250 254/254/254 252/252/252
f 252/252/252 256/256/256 255/255/255
f 252/252/252 255/255/255 251/251/251
f 251/251/251 255/255/255 257/257/257
f 251/251/251 257/257/257 253/253/253
f 253/253/253 257/257/257 258/258/258
f 253/253/253 258/258/258 254/254/254
f 254/254/254 258/258/258 256/256/256
f 254/254/254 256/256/256 252/252/252
f 256/256/256 260/260/260 259/259/259
f 256/256/256 259/259/259 255/255/255
f 255/255/255 259/259/259 261/261/261
f 255/255/255 261/261/261 257/257/257
f 257/257/257 261/261/261 262/262/262
f 257/257/257 262/262/262 258/258/258
f 258/258/258 262/262/262 260/260/260
f 258/258/258 260/260/260 256/256/256
f 260/260/260 264/264/264 263/263/263
f 260/260/260 263/263/263 259/259/259
f 259/259/259 263/263/263 265/265/265
f 259/259/259 265/265/265 261/261/261
f 261/261/261 265/265/265 266/266/266
f 261/261/261 266/266/266 262/262/262
f 262/262/262 266/266/266 264/264/264
f 262/262/262 264/264/264 260/260/260
f 267/267/267 263/263/263 264/264/264
f 267/267/267 265/265/265 263/263/263
f 267/267/267 266/266/266 265/265/265
f 267/267/267 264/264/264 266/266/266
f 268/268/268 270/270/270 269/269/269
f 271/271/271 273/273/273 272/272/272
f 268/268/268 275/275/275 274/274/274
f 268/268/268 274/274/274 270/270/270
f 270/270/270 274/274/274 276/276/276
f 270/270/270 276/276/276 269/269/269
f 269/269/269 276/276/276 277/277/277
f 269/269/269 277/277/277 278/278/278
f 278/278/278 277/277/277 275/275/275
f 278/278/278 275/275/275 268/268/268
f 279/279/279 281/281/281 280/280/280
f 279/279/279 280/280/280 282/282/282
f 282/282/282 280/280/280 283/283/283
f 282/282/282 283/283/283 284/284/284
f 284/284/284 283/283/283 285/285/285
f 284/284/284 285/285/285 286/286/286
f 286/286/286 285/285/285 281/281/281
f 286/286/286 281/281/281 279/279/279
f 281/281/281 288/288/288 287/287/287
f 281/281/281 287/287/287 280/280/280
f 280/280/280 287/287/287 289/289/289
f 280/280/280 289/289/289 283/283/283
f 283/283/283 289/289/289 290/290/290
f 283/283/283 290/290/290 285/285/285
f 285/285/285 290/290/290 288/288/288
f 285/285/285 288/288/288 281/281/281
f 291/291/291 287/287/287 288/288/288
f 291/291/291 289/289/289 287/287/287
f 291/291/291 290/290/290 289/289/289
f 291/291/291 288/288/288 290/290/290
f 292/292/292 294/294/294 293/293/293
f 292/292/292 293/293/293 295/295/295
f 292/292/292 295/295/295 296/296/296
f 292/292/292 296/296/296 294/294/294
f 294/294/294 298/298/298 297/297/297
f 294/294/294 297/297/297 293/293/293
f 293/293/293 297/297/297 299/299/299
f 293/293/293 299/299/299 295/295/295
f 295/295/295 299/299/299 300/300/300
f 295/295/295 300/300/300 296/296/296
f 296/296/296 300/300/300 298/298/298
f 296/296/296 298/298/298 294/294/294
f 298/298/298 302/302/302 301/301/301
f 298/298/298 301/301/301 297/297/297
f 297/297/297 301/301/301 303/303/303
f 297/297/297 303/303/303 299/299/299
f 299/299/299 303/303/303 304/304/304
f 299/299/299 304/304/304 300/300/300
f 300/300/300 304/304/304 302/302/302
f 300/300/300 302/302/302 298/298/298
f 302/302/302 306/306/306 305/305/305
f 302/302/302 305/305/305 301/301/301
f 301/301/301 305/305/305 307/307/307
f 301/301/301 307/307/307 303/303/303
f 303/303/303 307/307/307 308/308/308
f 303/303/303 308/308/308 304/304/304
f 304/304/304 308/308/308 306/306/306
f 304/304/304 306/306/306 302/302/302
f 309/309/309 305/305/305 306/306/306
f 309/309/309 307/307/307 305/305/305
f 309/309/309 308/308/308 307/307/307
f 309/309/309 306/306/306 308/308/308
f 310/310/310 312/312/312 311/311/311
f 313/313/313 315/315/315 314/314/314
f 313/313/313 314/314/314 316/316/316
f 316/316/316 314/314/314 317/317/317
f 316/316/316 317/317/317 318/318/318
f 318/318/318 317/317/317 319/319/319
f 318/318/318 319/319/319 320/320/320
f 320/320/320 319/319/319 315/315/315
f 320/320/320 315/315/315 313/313/313
f 321/321/321 323/323/323 322/322/322
f 321/321/321 322/322/322 324/324/324
f 324/324/324 322/322/322 325/325/325
f 324/324/324 325/325/325 326/326/326
f 326/326/326 325/325/325 327/327/327
f 326/326/326 327/327/327 328/328/328
f 328/328/328 327/327/327 323/323/323
f 328/328/328 323/323/323 321/321/321
f 323/323/323 330/330/330 329/329/329
f 323/323/323 329/329/329 322/322/322
f 322/322/322 329/329/329 331/331/331
f 322/322/322 331/331/331 325/325/325
f 325/325/325 331/331/331 332/332/332
f 325/325/325 332/332/332 327/327/327
f 327/327/327 332/332/332 330/330/330
f 327/327/327 330/330/330 323/323/323
f 333/333/333 329/329/329 330/330/330
f 333/333/333 331/331/331 329/329/329
f 333/333/333 332/332/332 331/331/331
f 333/333/333 330/330/330 332/332/332
f 269/269/269 271/271/271 268/268/268
f 271/271/271 269/269/269 273/273/273
f 278/278/278 273/273/273 269/269/269
f 273/273/273 278/278/278 272/272/272
f 268/268/268 272/272/272 278/278/278
f 272/272/272 268/268/268 271/271/271
f 316/316/316 334/334/334 313/313/313
f 334/334/334 316/316/316 335/335/335
f 318/318/318 335/335/335 316/316/316
f 335/335/335 318/318/318 336/336/336
f 320/320/320 336/336/336 318/318/318
f 313/313/313 336/336/336 320/320/320
f 336/336/336 313/313/313 334/334/334
f 335/335/335 312/312/312 334/334/334
f 312/312/312 335/335/335 311/311/311
f 336/336/336 311/311/311 335/335/335
f 311/311/311 336/336/336 310/310/310
f 334/334/334 310/310/310 336/336/336
f 310/310/310 334/334/334 312/312/312
f 337/337/337 339/339/339 338/338/338
f 337/337/337 338/338/338 340/340/340
f 340/340/340 338/338/338 341/341/341
f 340/340/340 341/341/341 342/342/342
f 342/342/342 341/341/341 343/343/343
f 342/342/342 343/343/343 344/344/344
f 344/344/344 343/343/343 339/339/339
f 344/344/344 339/339/339 337/337/337
f 345/345/345 347/347/347 346/346/346
f 345/345/345 346/346/346 348/348/348
f 348/348/348 346/346/346 349/349/349
f 348/348/348 349/349/349 350/350/350
f 350/350/350 349/349/349 351/351/351
f 350/350/350 351/351/351 352/352/352
f 352/352/352 351/351/351 347/347/347
f 352/352/352 347/347/347 345/345/345
f 183/183/183 177/177/177 185/185/185
f 177/177/177 197/197/197 185/185/185
f 197/197/197 177/177/177 174/174/174
f 186/186/186 177/177/177 183/183/183
f 192/192/192 177/177/177 186/186/186
f 192/192/192 179/179/179 177/177/177
f 157/157/157 144/144/144 154/154/154
f 144/144/144 157/157/157 146/146/146
f 144/144/144 153/153/153 154/154/154
f 153/153/153 144/144/144 141/141/141
f 153/153/153 141/141/141 173/173/173
f 166/166/166 146/146/146 157/157/157
f 353/353/353 355/355/355 354/354/354
f 353/353/353 356/356/356 355/355/355
f 353/353/353 357/357/357 356/356/356
f 353/353/353 354/354/354 357/357/357
f 354/354/354 359/359/359 358/358/358
f 354/354/354 355/355/355 359/359/359
f 355/355/355 360/360/360 359/359/359
f 355/355/355 356/356/356 360/360/360
f 356/356/356 361/361/361 360/360/360
f 356/356/356 357/357/357 361/361/361
f 357/357/357 358/358/358 361/361/361
f 357/357/357 354/354/354 358/358/358
f 358/358/358 363/363/363 362/362/362
f 358/358/358 359/359/359 363/363/363
f 359/359/359 364/364/364 363/363/363
f 359/359/359 360/360/360 364/364/364
f 360/360/360 365/365/365 364/364/364
f 360/360/360 361/361/361 365/365/365
f 361/361/361 362/362/362 365/365/365
f 361/361/361 358/358/358 362/362/362
f 362/362/362 367/367/367 366/366/366
f 362/362/362 363/363/363 367/367/367
f 363/363/363 368/368/368 367/367/367
f 363/363/363 364/364/364 368/368/368
f 364/364/364 369/369/369 368/368/368
f 364/364/364 365/365/365 369/369/369
f 365/365/365 366/366/366 369/369/369
f 365/365/365 362/362/362 366/366/366
f 370/370/370 366/366/366 367/367/367
f 370/370/370 367/367/367 368/368/368
f 370/370/370 368/368/368 369/369/369
f 370/370/370 369/369/369 366/366/366
f 371/371/371 373/373/373 372/372/372
f 374/374/374 376/376/376 375/375/375
f 371/371/371 378/378/378 377/377/377
f 371/371/371 372/372/372 378/378/378
f 372/372/372 379/379/379 378/378/378
f 372/372/372 373/373/373 379/379/379
f 373/373/373 380/380/380 379/379/379
f 373/373/373 381/381/381 380/380/380
f 381/381/381 377/377/377 380/380/380
f 381/381/381 371/371/371 377/377/377
f 382/382/382 384/384/384 383/383/383
f 382/382/382 385/385/385 384/384/384
f 385/385/385 386/386/386 384/384/384
f 385/385/385 387/387/387 386/386/386
f 387/387/387 388/388/388 386/386/386
f 387/387/387 389/389/389 388/388/388
f 389/389/389 383/383/383 388/388/388
f 389/389/389 382/382/382 383/383/383
f 383/383/383 391/391/391 390/390/390
f 383/383/383 384/384/384 391/391/391
f 384/384/384 392/392/392 391/391/391
f 384/384/384 386/386/386 392/392/392
f 386/386/386 393/393/393 392/392/392
f 386/386/386 388/388/388 393/393/393
f 388/388/388 390/390/390 393/393/393
f 388/388/388 383/383/383 390/390/390
f 394/394/394 390/390/390 391/391/391
f 394/394/394 391/391/391 392/392/392
f 394/394/394 392/392/392 393/393/393
f 394/394/394 393/393/393 390/390/390
f 395/395/395 397/397/397 396/396/396
f 395/395/395 398/398/398 397/397/397
f 395/395/395 399/399/399 398/398/398
f 395/395/395 396/396/396 399/399/399
f 396/396/396 401/401/401 400/400/400
f 396/396/396 397/397/397 401/401/401
f 397/397/397 402/402/402 401/401/401
f 397/397/397 398/398/398 402/402/402
f 398/398/398 403/403/403 402/402/402
f 398/398/398 399/399/399 403/403/403
f 399/399/399 400/400/400 403/403/403
f 399/399/399 396/396/396 400/400/400
f 400/400/400 405/405/405 404/404/404
f 400/400/400 401/401/401 405/405/405
f 401/401/401 406/406/406 405/405/405
f 401/401/401 402/402/402 406/406/406
f 402/402/402 407/407/407 406/406/406
f 402/402/402 403/403/403 407/407/407
f 403/403/403 404/404/404 407/407/407
f 403/403/403 400/400/400 404/404/404
f 404/404/404 409/409/409 408/408/408
f 404/404/404 405/405/405 409/409/409
f 405/405/405 410/410/410 409/409/409
f 405/405/405 406/406/406 410/410/410
f 406/406/406 411/411/411 410/410/410
f 406/406/406 407/407/407 411/411/411
f 407/407/407 408/408/408 411/411/411
f 407/407/407 404/404/404 408/408/408
f 412/412/412 408/408/408 409/409/409
f 412/412/412 409/409/409 410/410/410
f 412/412/412 410/410/410 411/411/411
f 412/412/412 411/411/411 408/408/408
f 413/413/413 415/415/415 414/414/414
f 416/416/416 418/418/418 417/417/417
f 416/416/416 419/419/419 418/418/418
f 419/419/419 420/420/420 418/418/418
f 419/419/419 421/421/421 420/420/420
f 421/421/421 422/422/422 420/420/420
f 421/421/421 423/423/423 422/422/422
f 423/423/423 417/417/417 422/422/422
f 423/423/423 416/416/416 417/417/417
f 424/424/424 426/426/426 425/425/425
f 424/424/424 427/427/427 426/426/426
f 427/427/427 428/428/428 426/426/426
f 427/427/427 429/429/429 428/428/428
f 429/429/429 430/430/430 428/428/428
f 429/429/429 431/431/431 430/430/430
f 431/431/431 425/425/425 430/430/430
f 431/431/431 424/424/424 425/425/425
f 425/425/425 433/433/433 432/432/432
f 425/425/425 426/426/426 433/433/433
f 426/426/426 434/434/434 433/433/433
f 426/426/426 428/428/428 434/434/434
f 428/428/428 435/435/435 434/434/434
f 428/428/428 430/430/430 435/435/435
f 430/430/430 432/432/432 435/435/435
f 430/430/430 425/425/425 432/432/432
f 436/436/436 432/432/432 433/433/433
f 436/436/436 433/433/433 434/434/434
f 436/436/436 434/434/434 435/435/435
f 436/436/436 435/435/435 432/432/432
f 373/373/373 371/371/371 374/374/374
f 374/374/374 375/375/375 373/373/373
f 381/381/381 373/373/373 375/375/375
f 375/375/375 376/376/376 381/381/381
f 371/371/371 381/381/381 376/376/376
f 376/376/376 374/374/374 371/371/371
f 419/419/419 416/416/416 437/437/437
f 437/437/437 438/438/438 419/419/419
f 421/421/421 419/419/419 438/438/438
f 438/438/438 439/439/439 421/421/421
f 423/423/423 421/421/421 439/439/439
f 416/416/416 423/423/423 439/439/439
f 439/439/439 437/437/437 416/416/416
f 438/438/438 437/437/437 414/414/414
f 414/414/414 415/415/415 438/438/438
f 439/439/439 438/438/438 415/415/415
f 415/415/415 413/413/413 439/439/439
f 437/437/437 439/439/439 413/413/413
f 413/413/413 414/414/414 437/437/437
