# Object27.bmd — MU geometry at action 0 key 0, exported for MU2
# 1 mesh(es)

g d_003
# texture: d_003.jpg
v 48.2264 12.93729 -75.9775
v 40.8106 52.2105 -75.24251
v 58.0059 41.5311 -62.715
v 49.1256 12.4541 -49.7508
v 38.1425 74.3591 -79.74
v 24.8793 82.1703 -81.8311
v 56.198 78.948 -80.5787
v 56.8737 62.7591 -69.8184
v 7.3947 1.434399 143.2237
v 23.5765 -1.22311 141.0886
v 23.6418 24.3858 128.7451
v 7.5495 17.47809 124.8928
v 56.3185 29.3303 -14.8239
v 49.4879 50.0506 -22.0115
v 45.8633 36.5665 -8.2623
v 54.0898 24.462 -6.348
v 39.1202 32.4848 1.708101
v 38.3395 39.3201 19.9659
v 45.611 19.0474 3.695101
v 41.977 90.5234 -18.5272
v 13.1561 86.6642 -22.8119
v 13.1561 79.0343 -12.0772
v 40.7924 85.6551 -8.395901
v 42.7425 18.0194 22.3334
v 35.7196 34.20539 39.0114
v 24.5318 21.8989 57.4039
v 41.5105 6.215195 58.16159
v 31.9235 45.2681 42.9883
v 15.7857 47.8814 44.7849
v 12.7155 40.5727 58.64191
v 25.2238 32.6004 61.13099
v 23.46 24.8459 80.9133
v 10.7375 32.2549 78.15559
v 8.8629 22.725 114.2095
v 24.8473 34.1759 114.1996
v 65.3178 89.8361 -73.6693
v 61.9156 107.0142 -67.8239
v 56.8343 95.2189 -41.0276
v 10.8007 91.8517 -73.51149
v 6.6239 91.9724 -45.97919
v 22.4249 104.6569 -71.7344
v 18.1126 93.1754 -41.12811
v 46.6376 98.92349 -36.5454
v 51.081 110.3523 -63.6832
v 33.5972 108.6959 -66.29379
v 55.6899 89.70131 -89.4614
v 29.8613 90.50551 -89.08701
v 50.0163 101.1688 -113.7218
v 59.4838 99.37381 -112.1454
v 25.0871 96.92099 -86.5817
v 33.734 111.8452 -89.5435
v 47.4681 122.9564 -112.9068
v 44.7052 108.1767 -112.394
v 43.4274 117.1631 -87.17691
v 59.9156 118.4789 -85.0526
v 66.0183 126.5956 -110.2626
v 56.684 134.3748 -118.568
v 66.1981 112.577 -85.4848
v 64.2621 95.91161 -85.9894
v 68.6402 105.5809 -109.5719
v 71.2818 118.8957 -109.3279
v 67.1327 40.3305 -56.2855
v 76.439 31.092 -56.6224
v 57.4188 12.5285 -42.4495
v 68.8339 53.6311 -56.9398
v 58.0883 59.4043 -37.5672
v 76.8409 58.4689 -50.22919
v 58.6673 53.6076 -32.7158
v 65.462 33.0251 -25.5112
v 83.4529 45.8928 -38.5563
v 79.3825 53.6194 -43.7935
v 87.3313 43.0179 -66.7278
v 75.9632 53.8636 -62.7719
v 102.3827 61.57871 -84.1525
v 76.6826 57.5962 -62.419
v 87.8974 60.618 -60.7825
v 102.5028 65.7784 -82.7477
v 92.0739 58.93159 -58.1164
v 95.8085 51.8788 -52.916
v 106.8211 64.666 -79.77401
v 95.77 47.662 -54.262
v 91.6496 41.90549 -63.7542
v 106.7009 60.4663 -81.17891
v 26.1498 57.9021 -86.1503
v 33.9901 18.5747 -87.54019
v 9.5077 30.6196 -81.7049
v 9.6665 58.8354 -102.1982
v -3.1142 44.6341 77.32711
v -0.106 30.5718 105.3695
v 2.9741 44.58551 77.3065
v -3.5594 62.9138 41.3045
v 3.9187 54.5583 56.4139
v 5.7125 62.7168 41.1798
v 1.6912 52.4222 60.9415
v -6.1282 60.2199 45.5382
v -4.3573 52.1966 60.8377
v -0.106 67.5443 6.952499
v -4.7955 57.8123 30.7919
v 4.7242 57.83599 30.8158
v 6.961 77.0119 -103.4035
v 13.4215 82.07279 -83.7564
v 23.8688 76.0141 -88.19361
v 7.1011 83.7593 -81.6436
v -0.106 79.0901 -103.0813
v -7.1799 83.75171 -81.6444
v -4.581 87.17751 -72.54811
v -0.106 89.6212 -45.3131
v 4.4969 87.1747 -72.5526
v 47.299 64.6689 4.741601
v 34.38 52.7241 -1.0194
v 44.9615 59.9843 -17.1087
v 32.9183 50.0723 7.1996
v 45.3177 62.2087 12.8526
v 39.0501 49.0864 16.8874
v 48.3981 67.4603 -21.9172
v 52.3576 83.9308 -18.1663
v 51.4406 72.4826 0.593501
v 51.6723 86.3891 -14.8142
v 53.6858 84.7757 -2.4702
v 52.2439 76.6747 5.052002
v 46.0251 66.405 15.8701
v 35.0755 67.9804 19.816
v 38.5367 53.1988 19.3354
v 37.5278 74.0181 15.3437
v 48.8096 73.0573 12.2175
v 49.7337 81.3533 4.589399
v 39.1566 43.5728 19.4384
v 39.9233 45.4025 26.1629
v 34.4854 38.1698 7.993299
v 31.3501 44.3162 4.776701
v 38.9013 43.5358 15.1904
v 39.489 38.7861 3.018201
v 32.8118 46.9681 -3.4423
v 40.4786 40.9633 -5.325
v 44.8431 54.5255 -18.5151
v 33.6422 50.90459 24.4237
v 28.1523 64.9586 23.429
v 17.4252 55.4583 32.3919
v 34.4109 46.8291 26.2238
v 19.2017 52.2933 35.1209
v 34.7298 48.6869 32.7025
v 65.545 57.642 -55.4413
v 56.6663 82.7812 -29.061
v 53.0861 64.9635 -32.5309
v 13.6392 74.6488 -3.0247
v 29.0407 75.1895 12.4188
v 41.276 81.826 0.972202
v 10.9726 59.982 27.3973
v 21.7227 69.5963 18.5038
v 6.3053 70.0248 3.7725
v 55.2874 13.1556 -7.122704
v 51.7921 3.425903 -24.9641
v 58.4806 15.4132 -15.2002
v 85.2326 35.6618 -43.9006
v 61.314 12.2077 -39.1701
v 80.7573 29.9795 -53.6488
v 57.7342 8.9557 -32.091
v 80.5722 33.4998 -36.8503
v 63.9551 20.5946 -22.8502
v 34.0958 22.40281 120.2706
v 34.2692 -2.920895 132.8203
v 43.2753 -1.363304 87.88289
v -48.5224 12.9373 -75.9774
v -58.6261 41.28559 -63.2838
v -41.1122 52.2104 -75.2509
v -49.4228 12.44979 -49.7511
v -38.4296 74.3871 -79.7496
v -56.1032 78.7937 -79.7294
v -25.0421 82.2092 -81.8506
v -56.9212 63.128 -69.39831
v -7.6886 -0.047596 143.5233
v -23.9211 24.37941 128.7408
v -23.9074 -2.085606 141.0432
v -7.8434 17.4781 124.8929
v -56.6146 29.3303 -14.8238
v -46.1593 36.5665 -8.2622
v -49.7839 50.0506 -22.0114
v -54.3858 24.462 -6.348
v -38.6372 39.3241 19.9687
v -39.4145 32.4848 1.708101
v -45.9005 19.0421 3.694599
v -42.4995 90.65981 -18.5034
v -13.452 79.0343 -12.0772
v -13.4521 86.6642 -22.8119
v -41.0883 85.65509 -8.395802
v -43.0416 18.0197 22.3346
v -24.8552 21.90089 57.4056
v -36.0114 34.2022 39.0092
v -41.6669 6.731403 58.2286
v -32.1583 45.2704 42.99
v -12.8545 40.4766 58.5945
v -15.9083 47.9882 44.852
v -25.4852 32.5974 61.12939
v -23.7537 24.8509 80.915
v -9.1253 22.725 114.2095
v -10.9175 32.2933 78.1759
v -25.1073 34.18341 114.205
v -65.4605 89.3076 -72.7663
v -56.7726 94.92 -41.1827
v -62.2115 107.0142 -67.8239
v -10.9258 91.8572 -73.5094
v -22.6786 104.6565 -71.7346
v -6.8778 91.9724 -45.97919
v -18.4085 93.1754 -41.128
v -51.3769 110.3522 -63.68319
v -46.8576 98.7951 -36.6696
v -33.8935 108.6962 -66.2935
v -56.175 89.7346 -89.86861
v -50.2808 101.1689 -113.7219
v -29.9943 90.5031 -89.08679
v -59.749 99.3725 -112.146
v -25.2216 96.91341 -86.5772
v -47.7334 119.7176 -106.756
v -33.9987 111.8455 -89.5432
v -44.9695 108.1766 -112.3939
v -43.723 117.1627 -87.17711
v -66.3142 123.59 -101.5575
v -60.2115 118.4789 -85.0526
v -56.9791 125.8841 -104.2589
v -66.494 112.5769 -85.48481
v -68.9353 105.5822 -109.5713
v -64.7615 96.1113 -86.5723
v -71.5777 116.5354 -102.8194
v -67.7964 40.1311 -56.9267
v -57.7165 12.5256 -42.4508
v -76.735 31.092 -56.6224
v -69.1935 54.0107 -57.0303
v -77.1369 58.4689 -50.2291
v -58.3843 59.4043 -37.5672
v -58.9633 53.6076 -32.7157
v -83.7489 45.8928 -38.5562
v -65.7581 33.025 -25.5111
v -79.6785 53.6194 -43.7935
v -87.6273 43.0179 -66.7278
v -102.6786 61.57871 -84.1525
v -76.0925 53.3979 -62.5086
v -76.7351 57.3277 -62.0142
v -102.7988 65.7784 -82.7477
v -88.1934 60.6179 -60.7824
v -92.3699 58.9316 -58.11629
v -107.1171 64.666 -79.77401
v -96.1046 51.8787 -52.916
v -96.0661 47.662 -54.262
v -106.9969 60.4663 -81.17891
v -91.9456 41.90549 -63.7542
v -26.5164 57.9022 -86.1419
v -10.1976 30.6196 -81.7049
v -34.3624 18.5747 -87.54019
v -10.0388 58.8354 -102.1982
v -69.7138 115.5454 -128.7973
v -79.1243 150.618 -148.0586
v -60.7598 117.2152 -130.1717
v -58.4238 121.3914 -129.1044
v -77.0802 154.9241 -146.6659
v -61.3168 133.2757 -123.0948
v -65.2947 136.0846 -120.4449
v -80.8953 157.9464 -143.9697
v -74.1272 133.827 -117.9566
v -76.5111 129.6977 -119.09
v -82.9394 153.6402 -145.3624
v -73.7512 118.3112 -126.225
v -7.215 77.0119 -103.4035
v -24.1284 76.0139 -88.2019
v -13.5386 82.071 -83.7652
v -47.5951 64.6689 4.741601
v -45.2575 59.9843 -17.1087
v -34.676 52.7241 -1.0194
v -33.2143 50.0723 7.1996
v -39.3466 49.0863 16.887
v -45.6138 62.2087 12.8526
v -48.6941 67.4603 -21.9172
v -51.7366 72.4826 0.5936
v -52.641 83.9542 -18.1239
v -51.9241 86.5026 -14.6216
v -52.5399 76.6747 5.052002
v -53.9818 84.7757 -2.4702
v -46.3211 66.4051 15.8701
v -38.8308 53.1977 19.3292
v -35.3716 67.9805 19.8161
v -37.8238 74.018 15.3437
v -50.0297 81.3533 4.589499
v -49.1057 73.0574 12.2176
v -39.4514 43.5722 19.4349
v -34.7796 38.1698 7.993401
v -40.2156 45.3992 26.16059
v -31.6461 44.3162 4.776701
v -39.7849 38.7861 3.0183
v -39.1982 43.5368 15.1963
v -33.1078 46.9681 -3.4423
v -45.1391 54.5255 -18.5151
v -40.7746 40.9633 -5.325
v -33.8968 50.9052 24.4278
v -17.5548 55.481 32.4105
v -28.4063 64.9585 23.429
v -34.6658 46.8292 26.2242
v -34.985 48.68719 32.70271
v -19.3297 52.3539 35.1469
v -65.9018 58.5307 -55.502
v -53.3821 64.9634 -32.5309
v -56.8395 82.57249 -29.2634
v -13.9351 74.6488 -3.0247
v -41.5719 81.826 0.9723
v -29.3367 75.1897 12.419
v -11.0922 59.9428 27.38079
v -6.5593 70.0248 3.7725
v -21.9767 69.5963 18.5038
v -55.5877 13.1582 -7.122097
v -58.7767 15.4132 -15.2001
v -52.0838 3.4333 -24.9608
v -85.5287 35.6618 -43.9006
v -81.0533 29.9795 -53.6488
v -61.6121 12.2058 -39.1721
v -58.0292 8.9575 -32.0901
v -64.2511 20.5945 -22.8501
v -80.8683 33.49981 -36.8502
v -34.3856 22.4085 120.2745
v -43.5256 -1.649899 87.8465
v -34.5441 -2.492901 132.843
v 69.1931 81.30499 -80.43189
v 94.6606 86.0822 -105.3324
v 71.5039 65.8863 -70.3791
v 71.9952 65.8798 -64.6467
v 93.1117 87.666 -96.01889
v 65.5791 87.31909 -45.0114
v 64.4935 91.9848 -48.4729
v 92.5315 92.847 -99.13031
v 69.3059 87.3535 -77.0744
v -68.4232 65.4352 -70.1619
v -81.6167 86.0871 -105.3415
v -66.1421 81.85181 -80.91899
v -66.594 87.2867 -77.37181
v -79.4876 92.85179 -99.1395
v -61.7224 92.1625 -48.352
v -62.857 87.50621 -44.91351
v -80.0678 87.6709 -96.028
v -69.0352 65.90309 -64.6134
v 22.5692 16.8256 72.4009
v 28.2005 7.858101 78.17009
v 37.8525 1.4119 72.99339
v 37.4556 0.629105 80.8183
v 27.6637 7.435501 86.04182
v 33.9926 25.9179 113.7468
v 31.106 30.17521 113.0614
v 25.595 12.2997 85.795
v 28.3842 20.4023 79.5986
v -38.2151 1.328098 72.97108
v -28.5494 8.0602 78.1487
v -22.8942 16.8775 72.3952
v -28.7058 20.4444 79.59219
v -25.9414 12.5018 85.77361
v -31.3955 30.21961 113.0524
v -34.282 25.96469 113.7409
v -28.0101 7.637501 86.02029
v -37.9086 0.571396 80.7989
v 11.4644 12.5831 -68.0987
v 35.9469 0.538204 -73.934
v 35.9061 1.813702 -47.028
v 11.7544 3.991299 -57.32401
v -12.0914 12.5832 -68.0987
v -11.8014 3.991299 -57.32401
v -36.2126 1.820801 -47.0264
v -36.2561 0.538204 -73.934
v 42.0044 0.745998 -31.1759
v 45.7753 9.6245 -13.0767
v 38.6897 14.116 11.4729
v 42.3804 3.720005 47.4173
v 38.9416 11.8966 -8.0518
v 28.8704 -2.288101 74.44688
v 23.5663 -4.106609 101.4171
v 7.694 -2.931103 103.8516
v -5.9251 -2.701099 136.5226
v -21.7406 -4.031017 134.4576
v 71.2818 118.8957 -109.3279
v 44.7052 108.1767 -112.394
v 47.4681 122.9564 -112.9068
v 50.0163 101.1688 -113.7218
v 59.4838 99.37381 -112.1454
v 68.6402 105.5809 -109.5719
v 66.0183 126.5956 -110.2626
v 56.684 134.3748 -118.568
v -42.2198 0.738602 -31.1781
v -45.9869 9.630398 -13.0777
v -38.9172 14.1151 11.4742
v -42.6611 3.375401 47.3729
v -39.0609 11.8937 -8.0532
v -33.9745 -1.143196 67.29359
v -29.385 -3.1348 94.22789
v -21.8015 -2.187099 94.01428
vn 0.77129 -0.215497 -0.598893
vn 0.546908 -0.046301 -0.835912
vn 0.709016 -0.344508 -0.615314
vn 0.720503 -0.641602 -0.263101
vn 0.33991 -0.028501 -0.940026
vn -0.180299 -0.208799 -0.961195
vn 0.233903 -0.422605 -0.875611
vn 0.221009 -0.373215 -0.901036
vn -0.050501 -0.582009 0.811613
vn 0.412083 -0.302788 0.859365
vn 0.082798 0.735283 0.672684
vn -0.160593 0.822863 0.545075
vn 0.741106 0.313303 0.593805
vn 0.686115 0.385409 0.617014
vn 0.663436 0.464325 0.586732
vn 0.822983 0.344493 0.451691
vn 0.883544 0.373319 0.282814
vn 0.981237 0.085303 0.172907
vn 0.881819 -0.085302 0.46381
vn 0.063098 0.923575 0.37819
vn -0.126599 0.909091 0.396896
vn -0.145996 0.866975 0.476486
vn -0.087504 0.931743 0.352416
vn 0.979192 -0.0475 0.197298
vn 0.940327 -0.0134 0.34001
vn 0.917263 0.24439 0.314487
vn 0.989435 -0.082803 0.119004
vn 0.563602 0.653702 0.505002
vn 0.519489 0.709085 0.47679
vn 0.557203 0.701703 0.444002
vn 0.835418 0.328007 0.441009
vn 0.642907 0.765908 0.0075
vn 0.600197 0.734397 0.316899
vn -0.097101 0.92831 0.358904
vn 0.138794 0.98846 0.060698
vn 0.866314 0.347606 -0.358706
vn 0.704206 0.589905 0.395103
vn 0.650713 0.676113 0.345607
vn -0.497702 0.718803 -0.485402
vn -0.386606 0.906814 0.168003
vn -0.641798 0.755498 -0.1316
vn -0.211991 0.911761 0.351785
vn 0.279112 0.834537 0.475021
vn 0.032402 0.915846 0.40022
vn -0.3131 0.911299 0.2674
vn 0.188007 -0.79033 -0.583122
vn -0.459488 -0.529786 -0.712881
vn -0.2832 -0.788399 -0.546099
vn 0.39661 -0.869022 -0.295808
vn -0.796102 0.1385 -0.589101
vn -0.696675 0.713775 -0.071897
vn -0.848303 0.381601 -0.367101
vn -0.741193 -0.169298 -0.649594
vn -0.203098 0.928189 0.311796
vn 0.407993 0.829185 0.382093
vn 0.307398 0.849393 0.428997
vn -0.442276 0.869253 0.220888
vn 0.960799 0.1884 0.2034
vn 0.833515 -0.494209 -0.247004
vn 0.918116 -0.395307 0.0282
vn 0.872055 0.38148 0.306584
vn -0.140804 -0.242707 -0.959827
vn 0.0611 -0.667604 -0.742005
vn 0.342681 -0.710461 -0.614666
vn 0.274894 0.960579 0.041499
vn 0.530408 0.712211 0.459807
vn -0.036598 0.987347 0.154292
vn 0.470798 0.526797 0.707696
vn 0.594295 0.197998 0.779494
vn 0.629318 0.257007 0.733421
vn 0.356087 0.714973 0.601677
vn -0.203913 -0.510332 -0.835452
vn -0.587693 0.086099 -0.80449
vn 0.098398 -0.241994 -0.965276
vn -0.537806 0.756409 -0.372304
vn -0.031199 0.980169 0.195694
vn -0.27011 0.778229 -0.566921
vn 0.324514 0.795635 0.511523
vn 0.81365 0.203788 0.544467
vn 0.701529 0.712429 -0.017401
vn 0.857498 -0.424899 0.290099
vn 0.452609 -0.778516 -0.434809
vn 0.913912 -0.361405 -0.184802
vn 0.526411 -0.049001 -0.848817
vn -0.015799 -0.367583 -0.929857
vn -0.0148 -0.514101 -0.857602
vn 0.363995 -0.209697 -0.907488
vn -0.495587 0.777979 0.38619
vn 0.219892 0.850569 0.477683
vn 0.423706 0.809912 0.405606
vn -0.140994 0.97976 0.142094
vn 0.472102 0.726304 0.499602
vn 0.391706 0.917514 0.068801
vn 0.231804 0.845914 0.480308
vn -0.538699 0.729999 0.4206
vn -0.366902 0.821704 0.436102
vn 0.0171 0.89601 0.443705
vn -0.032701 0.999238 0.021301
vn 0.0074 0.984594 0.174699
vn 0.2961 0.590699 -0.750599
vn 0.197208 0.75923 -0.620225
vn 0.588909 0.402206 -0.701011
vn -0.037101 0.915717 -0.400107
vn -0.036001 0.883936 -0.466219
vn 0.0796 0.911997 -0.402399
vn 0.319693 0.918681 -0.231995
vn -0.092701 0.99491 0.0395
vn -0.251308 0.921629 -0.295709
vn 0.814559 -0.578471 0.043198
vn 0.845294 -0.490097 0.212799
vn 0.897028 -0.363711 0.251108
vn 0.874822 -0.447811 -0.184805
vn 0.895078 -0.42219 0.143496
vn 0.996064 -0.079397 -0.039399
vn 0.931782 -0.276695 0.234995
vn 0.97748 -0.153797 0.144497
vn 0.943343 -0.33168 0.009599
vn 0.811719 0.557213 0.175004
vn 0.483313 0.766521 0.422912
vn 0.977651 -0.147808 0.149508
vn 0.657734 0.046102 0.751838
vn 0.293892 0.400089 0.868076
vn 0.747543 -0.025101 0.663739
vn 0.137801 0.618004 0.774004
vn 0.735461 0.250987 0.629367
vn 0.132202 0.816015 0.56271
vn 0.983608 0.180201 -0.0066
vn 0.979411 0.173802 0.102701
vn 0.853606 -0.477503 0.208201
vn 0.905065 0.349087 -0.242891
vn 0.9766 -0.1279 -0.1729
vn 0.899174 0.279992 0.33629
vn 0.904144 0.195688 0.379776
vn 0.759935 0.408219 0.505823
vn 0.813124 0.070402 0.577817
vn 0.5248 0.2933 0.7991
vn 0.144695 0.587782 0.795975
vn 0.401309 0.733917 0.548012
vn 0.663908 0.627808 0.406305
vn 0.445693 0.831187 0.332395
vn 0.376411 0.926228 -0.020401
vn 0.978455 -0.043198 0.201891
vn 0.857292 0.178498 0.482896
vn 0.874794 0.091399 0.475797
vn -0.274807 0.893122 0.356109
vn -0.141605 0.83353 0.534019
vn -0.195804 0.907916 0.370607
vn -0.099795 0.804162 0.585973
vn -0.220286 0.830648 0.511368
vn -0.153007 0.881037 0.447619
vn 0.561595 -0.629994 0.536395
vn 0.612192 -0.77429 0.160298
vn 0.898925 -0.116203 0.422412
vn 0.803198 -0.528699 0.274499
vn 0.474721 -0.831436 -0.288712
vn 0.594224 -0.769231 -0.234909
vn 0.597711 -0.800414 -0.045601
vn 0.7595 -0.2818 0.5863
vn 0.814996 -0.282399 0.505997
vn 0.797983 0.403591 0.447591
vn 0.547595 -0.783992 0.292397
vn 0.965576 -0.144196 -0.216495
vn -0.78802 -0.409611 -0.459612
vn -0.617921 -0.277809 -0.735525
vn -0.602478 0.043098 -0.796971
vn -0.660989 -0.61679 -0.427393
vn -0.401305 -0.090001 -0.911512
vn -0.202195 -0.453388 -0.868077
vn 0.109604 0.140905 -0.983937
vn -0.125705 -0.433718 -0.892237
vn 0.092498 0.191197 0.977184
vn -0.260211 0.637327 0.725331
vn -0.240799 -0.617997 0.748396
vn 0.296897 0.795792 0.527795
vn -0.740062 0.320483 0.591269
vn -0.688899 0.399999 0.604499
vn -0.677484 0.391191 0.622885
vn -0.852399 0.3108 0.420499
vn -0.952454 0.304185 -0.017399
vn -0.797105 0.497103 0.342802
vn -0.899213 -0.090701 0.428006
vn -0.111806 0.933348 0.341118
vn 0.126096 0.854872 0.503283
vn 0.160709 0.918449 0.361419
vn 0.212196 0.890083 0.403392
vn -0.986918 -0.040701 0.156003
vn -0.935917 0.161903 0.312806
vn -0.946058 0.050198 0.320086
vn -0.949814 0.192203 0.246804
vn -0.691703 0.507902 0.513402
vn -0.604585 0.667083 0.435289
vn -0.432416 0.766528 0.474817
vn -0.7529 0.519 0.4047
vn -0.637782 0.762679 -0.107497
vn -0.0634 0.926305 0.371402
vn -0.601034 0.738441 0.305717
vn 0.140197 0.967381 0.210996
vn -0.810645 0.525429 -0.258415
vn -0.679791 0.625092 0.383595
vn -0.828518 0.45151 0.331207
vn 0.565336 0.63594 -0.525333
vn 0.521395 0.848991 0.085799
vn 0.417489 0.903776 0.094298
vn 0.250101 0.913002 0.322301
vn -0.141202 0.893013 0.427306
vn -0.1894 0.8723 0.4508
vn 0.293399 0.917598 0.268199
vn -0.301788 -0.829766 -0.469481
vn 0.390901 -0.639802 -0.661702
vn 0.323823 -0.599243 -0.732152
vn -0.222802 -0.824908 -0.519505
vn 0.748329 -0.0017 -0.663326
vn 0.727137 0.658034 -0.19561
vn 0.65578 0.730078 -0.192194
vn 0.804172 0.051298 -0.592179
vn 0.295691 0.931872 0.210194
vn -0.463312 0.725219 0.509313
vn -0.241909 0.889034 0.388715
vn 0.289086 0.891856 0.347883
vn -0.920827 0.234607 0.311509
vn -0.820774 -0.560582 -0.109897
vn -0.929133 -0.346212 -0.129805
vn -0.961385 0.0131 0.274896
vn -0.271009 -0.364413 -0.890931
vn -0.305383 -0.751758 -0.584467
vn 0.061398 -0.558582 -0.827174
vn 0.0025 0.999856 -0.016799
vn -0.111499 0.952588 0.283097
vn -0.640571 0.640771 0.423181
vn -0.4342 0.5922 0.6788
vn -0.644128 0.173708 0.744933
vn -0.580193 0.295996 0.75879
vn -0.344495 0.726488 0.594591
vn 0.083304 -0.625033 -0.776141
vn 0.101095 -0.025399 -0.994553
vn 0.515783 -0.038099 -0.855872
vn 0.60737 0.625869 -0.489276
vn 0.0361 0.970002 -0.240401
vn 0.127496 0.98037 0.150396
vn -0.264914 0.852343 0.450923
vn -0.889965 0.455682 -0.017799
vn -0.694885 0.379892 0.610587
vn -0.882079 -0.328792 0.337392
vn -0.72849 -0.531192 -0.432594
vn -0.556381 -0.766173 -0.321589
vn -0.527776 -0.059997 -0.847262
vn 0.083696 -0.531578 -0.842864
vn -0.242997 -0.197598 -0.949688
vn -0.289606 -0.366208 -0.884319
vn -0.483989 -0.640186 -0.596587
vn 0.0408 -0.183398 -0.982192
vn 0.339704 -0.464005 -0.818108
vn 0.775767 0.081197 -0.625774
vn 0.553304 0.611604 -0.565504
vn 0.791278 0.605783 -0.083098
vn 0.421397 0.817395 0.392798
vn -0.430085 0.83957 0.331888
vn -0.374997 0.675395 0.634995
vn -0.911074 0.141796 0.387089
vn -0.852814 -0.023 -0.521709
vn -0.898001 -0.412201 -0.1539
vn -0.341985 0.323786 -0.882162
vn -0.469408 0.482009 -0.739813
vn -0.162293 0.842066 -0.514379
vn -0.844401 -0.532901 0.0548
vn -0.876957 -0.349083 0.330284
vn -0.80218 -0.591285 0.082998
vn -0.912919 -0.293606 -0.283506
vn -0.982768 -0.144795 0.114896
vn -0.87468 -0.483589 0.032799
vn -0.93347 -0.32139 0.159195
vn -0.975819 -0.216904 0.027001
vn -0.949798 -0.1865 0.2512
vn -0.965734 0.257009 0.036101
vn -0.966955 -0.100995 0.234089
vn -0.36959 0.850477 0.37429
vn -0.748211 -0.119502 0.65261
vn -0.638515 0.077302 0.765718
vn -0.226593 0.410687 0.883172
vn -0.036001 0.739116 0.672615
vn -0.310907 0.735716 0.601713
vn -0.680622 0.263208 0.683722
vn -0.989645 -0.068003 0.126406
vn -0.937228 -0.310509 0.158705
vn -0.952389 0.303397 0.0301
vn -0.862993 0.502796 -0.0494
vn -0.96009 0.165598 0.225398
vn -0.90208 0.273194 -0.334092
vn -0.913252 0.009799 0.407278
vn -0.766893 0.211298 0.605994
vn -0.736301 0.482401 0.474501
vn -0.545122 0.428917 0.720328
vn -0.336392 0.79608 0.503088
vn -0.278514 0.501925 0.818841
vn -0.65601 0.701211 0.279204
vn -0.370113 0.917632 0.144805
vn -0.516274 0.751862 0.410079
vn -0.907725 0.196305 0.37081
vn -0.875087 -0.019 0.483593
vn -0.879054 0.220089 0.422878
vn 0.258999 0.898195 0.355198
vn 0.161895 0.908569 0.385087
vn 0.162592 0.840357 0.517073
vn 0.125296 0.844875 0.520084
vn 0.168903 0.877214 0.449407
vn 0.165102 0.786808 0.594706
vn -0.707799 -0.4712 0.5263
vn -0.905493 -0.258298 0.336697
vn -0.455194 -0.862989 0.219197
vn -0.807116 -0.52301 0.273905
vn -0.4997 -0.7902 -0.3548
vn -0.580728 -0.809239 -0.088804
vn -0.610218 -0.790223 -0.056402
vn -0.773078 -0.177795 0.608883
vn -0.791104 -0.459102 0.404202
vn -0.848194 0.459897 0.262798
vn -0.965461 -0.189992 -0.178293
vn -0.668167 -0.561373 0.488276
vn -0.463494 0.144798 -0.874189
vn 0.598577 -0.627075 -0.49848
vn 0.237891 -0.665074 -0.707873
vn 0.864065 -0.456982 0.211091
vn 0.926097 0.0823 0.368199
vn 0.847407 0.181101 0.499104
vn 0.539504 0.800606 0.260702
vn 0.0015 0.924938 -0.380116
vn -0.169202 0.881611 -0.440605
vn -0.52599 -0.622888 -0.579089
vn 0.392398 0.0014 -0.919795
vn 0.575817 -0.039501 -0.816624
vn 0.711875 0.554281 -0.431285
vn -0.557499 0.829999 0.0172
vn -0.643841 0.751847 0.142109
vn -0.895797 0.264899 0.356899
vn -0.979222 -0.067001 0.191404
vn -0.979515 -0.188703 0.070301
vn 0.923121 0.380909 -0.052501
vn 0.744105 0.654404 0.134401
vn 0.924966 0.27879 0.258291
vn 0.816448 0.424225 -0.391723
vn 0.742394 0.608095 -0.281198
vn 0.771166 0.592074 -0.23399
vn 0.833726 0.551417 0.029001
vn 0.98407 0.093197 -0.151395
vn 0.84466 0.361083 -0.395181
vn -0.926875 0.325191 0.187495
vn -0.899498 0.433399 0.0554
vn -0.846507 0.531504 -0.0305
vn -0.913676 0.274993 -0.299292
vn -0.979349 0.180391 -0.091295
vn -0.78349 0.618492 0.060099
vn -0.824918 0.506911 -0.250105
vn -0.712792 0.683092 -0.159098
vn -0.831504 0.499503 -0.243101
vn -0.175003 -0.742213 -0.646911
vn 0.224607 -0.903827 -0.364211
vn 0.328395 -0.897785 -0.293495
vn 0.064699 -0.779389 -0.623191
vn 0.125898 -0.793587 -0.59529
vn -0.094699 -0.779589 -0.619091
vn -0.391924 -0.883455 -0.256716
vn 0.056799 -0.844589 -0.532393
vn 0.238198 -0.965393 0.106199
vn 0.0105 -0.964685 0.263196
vn 0.719761 -0.661064 0.211988
vn 0.97331 -0.193302 0.123701
vn -0.242309 -0.964336 0.106504
vn 0.423605 -0.895212 -0.138402
vn -0.030001 -0.997935 0.056802
vn 0.095003 -0.989336 0.110404
vn 0.112203 -0.950728 0.289009
vn -0.025499 -0.99198 0.123797
vn 0.2696 0.0268 -0.9626
vn 0.084603 0.074403 -0.993633
vn 0.096898 -0.274894 -0.956579
vn 0.100799 0.123698 -0.987187
vn 0.234409 -0.0013 -0.972137
vn 0.296209 -0.041301 -0.95423
vn 0.771816 0.47641 -0.421109
vn 0.534978 0.0002 -0.844866
vn -0.301309 -0.953029 -0.030801
vn 0.0103 -0.946175 0.323492
vn -0.571477 -0.790969 0.218591
vn -0.956949 -0.288315 0.033502
vn 0.237089 -0.965456 0.108095
vn -0.747912 -0.658911 -0.080401
vn -0.045102 -0.998649 -0.025801
vn 0.122602 -0.991417 -0.045401
vt 0.7797 0.2657
vt 0.7715 0.3979
vt 0.7775 0.3228
vt 0.7108 0.2328
vt 0.784 0.4756
vt 0.7587 0.5236
vt 0.8332 0.4615
vt 0.8006 0.3982
vt 0.0793 0.0455
vt 0.125 0.0136
vt 0.1668 0.1065
vt 0.1345 0.1157
vt 0.6396 0.2332
vt 0.6485 0.3163
vt 0.5978 0.2649
vt 0.6095 0.2121
vt 0.5525 0.2518
vt 0.5033 0.2532
vt 0.5592 0.1976
vt 0.633 0.4492
vt 0.5707 0.4889
vt 0.5392 0.4531
vt 0.601 0.4245
vt 0.5012 0.1778
vt 0.4434 0.2199
vt 0.3615 0.1791
vt 0.3972 0.1024
vt 0.4266 0.2556
vt 0.3819 0.2877
vt 0.3343 0.2543
vt 0.3565 0.2067
vt 0.296 0.163
vt 0.2738 0.2096
vt 0.1684 0.142
vt 0.2123 0.1514
vt 0.841 0.4724
vt 0.822 0.5241
vt 0.7329 0.4653
vt 0.7038 0.5667
vt 0.6187 0.5423
vt 0.7324 0.5853
vt 0.6349 0.5219
vt 0.6962 0.4881
vt 0.7846 0.5472
vt 0.7471 0.5734
vt 0.8595 0.5056
vt 0.7936 0.5495
vt 0.9145 0.5779
vt 0.9335 0.5553
vt 0.7768 0.5741
vt 0.8114 0.6095
vt 0.9128 0.6482
vt 0.8998 0.6066
vt 0.8311 0.6075
vt 0.8673 0.5824
vt 0.9536 0.6264
vt 0.955 0.675
vt 0.8824 0.5545
vt 0.8736 0.5069
vt 0.9516 0.5566
vt 0.9619 0.5931
vt 0.7827 0.297
vt 0.8041 0.2538
vt 0.7119 0.2112
vt 0.793 0.336
vt 0.7153 0.349
vt 0.7965 0.3302
vt 0.7017 0.3246
vt 0.6928 0.242
vt 0.7776 0.2674
vt 0.784 0.3038
vt 0.8627 0.2845
vt 0.8268 0.3318
vt 0.9538 0.3373
vt 0.8289 0.3418
vt 0.8537 0.331
vt 0.9516 0.3484
vt 0.8564 0.316
vt 0.8495 0.2823
vt 0.9541 0.3346
vt 0.8517 0.2709
vt 0.8652 0.2707
vt 0.9563 0.3235
vt 0.7659 0.4517
vt 0.7769 0.3194
vt 0.7033 0.3895
vt 0.7682 0.4996
vt 0.2451 0.2711
vt 0.1722 0.1908
vt 0.2605 0.2611
vt 0.3474 0.3694
vt 0.3226 0.3142
vt 0.371 0.3539
vt 0.3041 0.3061
vt 0.3286 0.3604
vt 0.289 0.3153
vt 0.4506 0.4174
vt 0.3711 0.3677
vt 0.395 0.3523
vt 0.7704 0.5614
vt 0.7351 0.544
vt 0.7715 0.5135
vt 0.7139 0.5571
vt 0.7524 0.5789
vt 0.678 0.5802
vt 0.6609 0.5761
vt 0.5992 0.5452
vt 0.6838 0.5614
vt 0.5751 0.3343
vt 0.5544 0.325
vt 0.627 0.3486
vt 0.5276 0.3098
vt 0.5474 0.3206
vt 0.5165 0.2857
vt 0.651 0.3716
vt 0.6561 0.4116
vt 0.5993 0.3564
vt 0.6461 0.4165
vt 0.6172 0.3941
vt 0.5906 0.3629
vt 0.5423 0.3289
vt 0.5046 0.347
vt 0.5099 0.2964
vt 0.5248 0.3668
vt 0.5614 0.3491
vt 0.587 0.3819
vt 0.5081 0.2656
vt 0.4924 0.2623
vt 0.5256 0.2696
vt 0.5284 0.2973
vt 0.519 0.2708
vt 0.5519 0.2691
vt 0.5552 0.3125
vt 0.5777 0.2838
vt 0.6287 0.3336
vt 0.483 0.2914
vt 0.4764 0.3448
vt 0.422 0.3226
vt 0.4788 0.2756
vt 0.4181 0.3069
vt 0.4626 0.2734
vt 0.7819 0.3519
vt 0.6961 0.4136
vt 0.6908 0.3685
vt 0.5145 0.4284
vt 0.5117 0.3875
vt 0.5756 0.4012
vt 0.4207 0.3527
vt 0.475 0.3751
vt 0.4762 0.4183
vt 0.611 0.1762
vt 0.6475 0.1723
vt 0.6417 0.1872
vt 0.7933 0.2391
vt 0.7127 0.2002
vt 0.8066 0.24
vt 0.6835 0.1878
vt 0.7617 0.2319
vt 0.6778 0.2031
vt 0.2155 0.0932
vt 0.1738 0.0005
vt 0.3188 0.0421
vt 0.5359 0.4224
vt 0.4851 0.5116
vt 0.5651 0.5306
vt 0.4624 0.3924
vt 0.5911 0.5997
vt 0.5479 0.6419
vt 0.633 0.6046
vt 0.5129 0.5832
vt 0.04 0.0651
vt 0.0469 0.1835
vt 0.0052 0.0879
vt 0.0957 0.1406
vt 0.355 0.4161
vt 0.3659 0.4139
vt 0.3983 0.4771
vt 0.3361 0.3877
vt 0.3093 0.3779
vt 0.3546 0.379
vt 0.3286 0.3458
vt 0.4201 0.5864
vt 0.4722 0.4962
vt 0.5037 0.532
vt 0.3947 0.5571
vt 0.285 0.3167
vt 0.237 0.2591
vt 0.2627 0.3361
vt 0.1876 0.2386
vt 0.2651 0.3594
vt 0.27 0.2955
vt 0.3019 0.3393
vt 0.2288 0.2888
vt 0.1771 0.2395
vt 0.1231 0.1711
vt 0.2192 0.2447
vt 0.0864 0.2323
vt 0.5088 0.6815
vt 0.4469 0.6486
vt 0.5092 0.7251
vt 0.6491 0.6019
vt 0.6187 0.6583
vt 0.5847 0.5642
vt 0.5429 0.581
vt 0.5264 0.7131
vt 0.4609 0.6393
vt 0.577 0.6827
vt 0.5787 0.6874
vt 0.6618 0.7403
vt 0.6428 0.6464
vt 0.6331 0.7483
vt 0.65 0.6556
vt 0.6552 0.7854
vt 0.6407 0.7192
vt 0.6738 0.7518
vt 0.6115 0.7486
vt 0.5956 0.8215
vt 0.5646 0.777
vt 0.6271 0.8165
vt 0.5481 0.7694
vt 0.6049 0.7794
vt 0.5501 0.7171
vt 0.5835 0.8097
vt 0.4444 0.5156
vt 0.4218 0.3977
vt 0.4181 0.5019
vt 0.4455 0.5608
vt 0.4085 0.5796
vt 0.4218 0.5376
vt 0.4053 0.5151
vt 0.3562 0.5382
vt 0.3621 0.4545
vt 0.3831 0.5614
vt 0.4219 0.5679
vt 0.437 0.6694
vt 0.4428 0.5763
vt 0.4411 0.5889
vt 0.4343 0.6809
vt 0.4099 0.6162
vt 0.3916 0.6147
vt 0.415 0.6811
vt 0.3659 0.5931
vt 0.3683 0.5816
vt 0.4177 0.6695
vt 0.4026 0.568
vt 0.6332 0.537
vt 0.6536 0.4214
vt 0.6047 0.4301
vt 0.7185 0.5315
vt 0.6582 0.8334
vt 0.6978 0.9787
vt 0.685 0.8256
vt 0.6894 0.8335
vt 0.7006 0.9871
vt 0.6696 0.8679
vt 0.6533 0.8799
vt 0.6846 0.9995
vt 0.6235 0.8844
vt 0.6193 0.8769
vt 0.6819 0.9911
vt 0.642 0.8455
vt 0.7347 0.5844
vt 0.6505 0.5913
vt 0.6671 0.5877
vt 0.336 0.4879
vt 0.3996 0.4947
vt 0.3804 0.4368
vt 0.3609 0.4169
vt 0.3189 0.4127
vt 0.3182 0.4679
vt 0.4063 0.5288
vt 0.3393 0.5235
vt 0.3914 0.5817
vt 0.3845 0.5844
vt 0.3265 0.5326
vt 0.3459 0.5685
vt 0.3096 0.4785
vt 0.3149 0.4217
vt 0.327 0.4611
vt 0.3349 0.4888
vt 0.3356 0.5435
vt 0.3146 0.5077
vt 0.31 0.3929
vt 0.3511 0.3818
vt 0.2905 0.3921
vt 0.3696 0.3994
vt 0.3521 0.3975
vt 0.3221 0.3973
vt 0.3891 0.4193
vt 0.402 0.4793
vt 0.3729 0.4154
vt 0.3128 0.4008
vt 0.3338 0.3793
vt 0.3338 0.4364
vt 0.3047 0.3874
vt 0.287 0.3863
vt 0.321 0.3694
vt 0.4511 0.5676
vt 0.4225 0.5409
vt 0.4105 0.597
vt 0.445 0.4731
vt 0.3669 0.5354
vt 0.3646 0.482
vt 0.3652 0.3883
vt 0.4437 0.4391
vt 0.3649 0.4459
vt 0.3316 0.3557
vt 0.3462 0.3771
vt 0.3857 0.3405
vt 0.363 0.5157
vt 0.3988 0.5021
vt 0.403 0.3992
vt 0.3918 0.3753
vt 0.3548 0.4107
vt 0.3549 0.4934
vt 0.0429 0.2041
vt 0.1 0.1819
vt 0.0005 0.1132
vt 0.8663 0.4476
vt 0.9995 0.4495
vt 0.84 0.3848
vt 0.8257 0.3774
vt 0.9709 0.4463
vt 0.7632 0.4314
vt 0.7713 0.4515
vt 0.9795 0.4667
vt 0.8595 0.4622
vt 0.4867 0.6098
vt 0.5553 0.735
vt 0.5268 0.669
vt 0.5178 0.6824
vt 0.546 0.7453
vt 0.453 0.6563
vt 0.4393 0.6399
vt 0.5345 0.7267
vt 0.4703 0.6058
vt 0.3143 0.1494
vt 0.31 0.1061
vt 0.3463 0.0765
vt 0.3239 0.0658
vt 0.2872 0.0967
vt 0.234 0.1116
vt 0.2299 0.1302
vt 0.2842 0.1153
vt 0.3106 0.1428
vt 0.1547 0.1995
vt 0.1671 0.1986
vt 0.1998 0.2232
vt 0.1668 0.2354
vt 0.1545 0.1994
vt 0.0725 0.2316
vt 0.062 0.2224
vt 0.147 0.1875
vt 0.134 0.1877
vt 0.6656 0.3152
vt 0.7393 0.2451
vt 0.6667 0.2183
vt 0.6344 0.2759
vt 0.6062 0.3533
vt 0.575 0.314
vt 0.4849 0.3351
vt 0.5573 0.362
vt 0.6388 0.187
vt 0.6021 0.1875
vt 0.5191 0.1847
vt 0.4277 0.1056
vt 0.5719 0.1998
vt 0.3186 0.078
vt 0.2316 0.0501
vt 0.1853 0.0767
vt 0.0626 0.062
vt 0.0279 0.0859
vt 0.9619 0.5931
vt 0.8998 0.6066
vt 0.9128 0.6482
vt 0.9145 0.5779
vt 0.9335 0.5553
vt 0.9516 0.5566
vt 0.9536 0.6264
vt 0.955 0.675
vt 0.4265 0.3234
vt 0.3708 0.3361
vt 0.3236 0.3104
vt 0.2135 0.2423
vt 0.3754 0.3261
vt 0.1799 0.1915
vt 0.1179 0.1471
vt 0.1379 0.138
f 1/1/1 3/3/3 2/2/2
f 3/3/3 1/1/1 4/4/4
f 5/5/5 7/7/7 6/6/6
f 7/7/7 5/5/5 8/8/8
f 9/9/9 11/11/11 10/10/10
f 11/11/11 9/9/9 12/12/12
f 13/13/13 15/15/15 14/14/14
f 16/16/16 18/18/18 17/17/17
f 18/18/18 16/16/16 19/19/19
f 20/20/20 22/22/22 21/21/21
f 22/22/22 20/20/20 23/23/23
f 24/24/24 26/26/26 25/25/25
f 26/26/26 24/24/24 27/27/27
f 28/28/28 30/30/30 29/29/29
f 30/30/30 28/28/28 31/31/31
f 32/32/32 34/34/34 33/33/33
f 34/34/34 32/32/32 35/35/35
f 36/36/36 38/38/38 37/37/37
f 39/39/39 41/41/41 40/40/40
f 42/42/42 44/44/44 43/43/43
f 44/44/44 42/42/42 45/45/45
f 46/46/46 48/48/48 47/47/47
f 48/48/48 46/46/46 49/49/49
f 50/50/50 52/52/52 51/51/51
f 52/52/52 50/50/50 53/53/53
f 54/54/54 56/56/56 55/55/55
f 56/56/56 54/54/54 57/57/57
f 58/58/58 60/60/60 59/59/59
f 60/60/60 58/58/58 61/61/61
f 62/62/62 64/64/64 63/63/63
f 65/65/65 67/67/67 66/66/66
f 68/68/68 70/70/70 69/69/69
f 70/70/70 68/68/68 71/71/71
f 72/72/72 74/74/74 73/73/73
f 75/75/75 77/77/77 76/76/76
f 78/78/78 80/80/80 79/79/79
f 81/81/81 83/83/83 82/82/82
f 84/84/84 86/86/86 85/85/85
f 86/86/86 84/84/84 87/87/87
f 88/88/88 90/90/90 89/89/89
f 91/91/91 93/93/93 92/92/92
f 94/94/94 96/96/96 95/95/95
f 97/97/97 99/99/99 98/98/98
f 100/100/100 102/102/102 101/101/101
f 103/103/103 105/105/105 104/104/104
f 106/106/106 108/108/108 107/107/107
f 109/109/109 111/111/111 110/110/110
f 112/112/112 114/114/114 113/113/113
f 115/115/115 117/117/117 116/116/116
f 118/118/118 120/120/120 119/119/119
f 121/121/121 123/123/123 122/122/122
f 124/124/124 126/126/126 125/125/125
f 127/127/127 129/129/129 128/128/128
f 130/130/130 132/132/132 131/131/131
f 133/133/133 135/135/135 134/134/134
f 136/136/136 138/138/138 137/137/137
f 139/139/139 141/141/141 140/140/140
f 142/142/142 144/144/144 143/143/143
f 145/145/145 147/147/147 146/146/146
f 148/148/148 150/150/150 149/149/149
f 151/151/151 153/153/153 152/152/152
f 154/154/154 156/156/156 155/155/155
f 157/157/157 159/159/159 158/158/158
f 160/160/160 162/162/162 161/161/161
f 163/163/163 165/165/165 164/164/164
f 164/164/164 166/166/166 163/163/163
f 167/167/167 169/169/169 168/168/168
f 168/168/168 170/170/170 167/167/167
f 171/171/171 173/173/173 172/172/172
f 172/172/172 174/174/174 171/171/171
f 175/175/175 177/177/177 176/176/176
f 178/178/178 180/180/180 179/179/179
f 179/179/179 181/181/181 178/178/178
f 182/182/182 184/184/184 183/183/183
f 183/183/183 185/185/185 182/182/182
f 186/186/186 188/188/188 187/187/187
f 187/187/187 189/189/189 186/186/186
f 190/190/190 192/192/192 191/191/191
f 191/191/191 193/193/193 190/190/190
f 194/194/194 196/196/196 195/195/195
f 195/195/195 197/197/197 194/194/194
f 198/198/198 200/200/200 199/199/199
f 201/201/201 203/203/203 202/202/202
f 204/204/204 206/206/206 205/205/205
f 205/205/205 207/207/207 204/204/204
f 208/208/208 210/210/210 209/209/209
f 209/209/209 211/211/211 208/208/208
f 212/212/212 214/214/214 213/213/213
f 213/213/213 215/215/215 212/212/212
f 216/216/216 218/218/218 217/217/217
f 217/217/217 219/219/219 216/216/216
f 220/220/220 222/222/222 221/221/221
f 221/221/221 223/223/223 220/220/220
f 224/224/224 226/226/226 225/225/225
f 227/227/227 229/229/229 228/228/228
f 230/230/230 232/232/232 231/231/231
f 231/231/231 233/233/233 230/230/230
f 234/234/234 236/236/236 235/235/235
f 237/237/237 239/239/239 238/238/238
f 240/240/240 242/242/242 241/241/241
f 243/243/243 245/245/245 244/244/244
f 246/246/246 248/248/248 247/247/247
f 247/247/247 249/249/249 246/246/246
f 250/250/250 252/252/252 251/251/251
f 253/253/253 255/255/255 254/254/254
f 256/256/256 258/258/258 257/257/257
f 259/259/259 261/261/261 260/260/260
f 262/262/262 264/264/264 263/263/263
f 265/265/265 267/267/267 266/266/266
f 268/268/268 270/270/270 269/269/269
f 271/271/271 273/273/273 272/272/272
f 274/274/274 276/276/276 275/275/275
f 277/277/277 279/279/279 278/278/278
f 280/280/280 282/282/282 281/281/281
f 283/283/283 285/285/285 284/284/284
f 286/286/286 288/288/288 287/287/287
f 289/289/289 291/291/291 290/290/290
f 292/292/292 294/294/294 293/293/293
f 295/295/295 297/297/297 296/296/296
f 298/298/298 300/300/300 299/299/299
f 301/301/301 303/303/303 302/302/302
f 304/304/304 306/306/306 305/305/305
f 307/307/307 309/309/309 308/308/308
f 310/310/310 312/312/312 311/311/311
f 313/313/313 315/315/315 314/314/314
f 316/316/316 318/318/318 317/317/317
f 319/319/319 321/321/321 320/320/320
f 322/322/322 324/324/324 323/323/323
f 325/325/325 327/327/327 326/326/326
f 328/328/328 330/330/330 329/329/329
f 331/331/331 333/333/333 332/332/332
f 334/334/334 336/336/336 335/335/335
f 337/337/337 339/339/339 338/338/338
f 340/340/340 342/342/342 341/341/341
f 343/343/343 345/345/345 344/344/344
f 346/346/346 348/348/348 347/347/347
f 349/349/349 351/351/351 350/350/350
f 352/352/352 354/354/354 353/353/353
f 355/355/355 357/357/357 356/356/356
f 355/355/355 358/358/358 357/357/357
f 359/359/359 361/361/361 360/360/360
f 359/359/359 362/362/362 361/361/361
f 355/355/355 85/85/85 86/86/86
f 355/355/355 356/356/356 85/85/85
f 359/359/359 358/358/358 355/355/355
f 359/359/359 360/360/360 358/358/358
f 247/247/247 362/362/362 359/359/359
f 247/247/247 248/248/248 362/362/362
f 86/86/86 249/249/249 247/247/247
f 86/86/86 87/87/87 249/249/249
f 359/359/359 355/355/355 247/247/247
f 247/247/247 355/355/355 86/86/86
f 1/1/1 84/84/84 85/85/85
f 1/1/1 2/2/2 84/84/84
f 356/356/356 4/4/4 1/1/1
f 356/356/356 357/357/357 4/4/4
f 1/1/1 85/85/85 356/356/356
f 64/64/64 3/3/3 4/4/4
f 64/64/64 62/62/62 3/3/3
f 155/155/155 63/63/63 64/64/64
f 155/155/155 156/156/156 63/63/63
f 157/157/157 154/154/154 155/155/155
f 157/157/157 158/158/158 154/154/154
f 152/152/152 159/159/159 157/157/157
f 152/152/152 153/153/153 159/159/159
f 363/363/363 151/151/151 152/152/152
f 363/363/363 364/364/364 151/151/151
f 363/363/363 152/152/152 157/157/157
f 363/363/363 157/157/157 357/357/357
f 357/357/357 157/157/157 64/64/64
f 357/357/357 64/64/64 4/4/4
f 64/64/64 157/157/157 155/155/155
f 102/102/102 87/87/87 84/84/84
f 102/102/102 100/100/100 87/87/87
f 5/5/5 101/101/101 102/102/102
f 5/5/5 6/6/6 101/101/101
f 2/2/2 8/8/8 5/5/5
f 2/2/2 3/3/3 8/8/8
f 5/5/5 102/102/102 84/84/84
f 5/5/5 84/84/84 2/2/2
f 321/321/321 7/7/7 8/8/8
f 321/321/321 319/319/319 7/7/7
f 322/322/322 320/320/320 321/321/321
f 322/322/322 323/323/323 320/320/320
f 142/142/142 324/324/324 322/322/322
f 142/142/142 143/143/143 324/324/324
f 65/65/65 144/144/144 142/142/142
f 65/65/65 66/66/66 144/144/144
f 75/75/75 67/67/67 65/65/65
f 75/75/75 76/76/76 67/67/67
f 73/73/73 77/77/77 75/75/75
f 73/73/73 74/74/74 77/77/77
f 62/62/62 72/72/72 73/73/73
f 62/62/62 63/63/63 72/72/72
f 65/65/65 142/142/142 73/73/73
f 65/65/65 73/73/73 75/75/75
f 73/73/73 142/142/142 62/62/62
f 62/62/62 142/142/142 3/3/3
f 3/3/3 142/142/142 322/322/322
f 3/3/3 322/322/322 321/321/321
f 3/3/3 321/321/321 8/8/8
f 103/103/103 100/100/100 101/101/101
f 103/103/103 104/104/104 100/100/100
f 108/108/108 105/105/105 103/103/103
f 108/108/108 106/106/106 105/105/105
f 39/39/39 107/107/107 108/108/108
f 39/39/39 40/40/40 107/107/107
f 50/50/50 41/41/41 39/39/39
f 50/50/50 51/51/51 41/41/41
f 47/47/47 53/53/53 50/50/50
f 47/47/47 48/48/48 53/53/53
f 6/6/6 46/46/46 47/47/47
f 6/6/6 7/7/7 46/46/46
f 103/103/103 101/101/101 39/39/39
f 103/103/103 39/39/39 108/108/108
f 39/39/39 101/101/101 6/6/6
f 39/39/39 6/6/6 50/50/50
f 50/50/50 6/6/6 47/47/47
f 59/59/59 49/49/49 46/46/46
f 59/59/59 60/60/60 49/49/49
f 36/36/36 58/58/58 59/59/59
f 36/36/36 37/37/37 58/58/58
f 327/327/327 38/38/38 36/36/36
f 327/327/327 325/325/325 38/38/38
f 319/319/319 326/326/326 327/327/327
f 319/319/319 320/320/320 326/326/326
f 319/319/319 327/327/327 36/36/36
f 319/319/319 36/36/36 7/7/7
f 7/7/7 36/36/36 59/59/59
f 7/7/7 59/59/59 46/46/46
f 24/24/24 18/18/18 19/19/19
f 24/24/24 25/25/25 18/18/18
f 365/365/365 27/27/27 24/24/24
f 365/365/365 366/366/366 27/27/27
f 19/19/19 153/153/153 151/151/151
f 19/19/19 16/16/16 153/153/153
f 19/19/19 151/151/151 365/365/365
f 19/19/19 365/365/365 24/24/24
f 365/365/365 151/151/151 364/364/364
f 365/365/365 364/364/364 367/367/367
f 140/140/140 28/28/28 29/29/29
f 140/140/140 141/141/141 28/28/28
f 138/138/138 139/139/139 140/140/140
f 138/138/138 136/136/136 139/139/139
f 148/148/148 137/137/137 138/138/138
f 148/148/148 149/149/149 137/137/137
f 99/99/99 150/150/150 148/148/148
f 99/99/99 97/97/97 150/150/150
f 93/93/93 98/98/98 99/99/99
f 93/93/93 91/91/91 98/98/98
f 29/29/29 92/92/92 93/93/93
f 29/29/29 30/30/30 92/92/92
f 93/93/93 99/99/99 138/138/138
f 93/93/93 138/138/138 140/140/140
f 93/93/93 140/140/140 29/29/29
f 138/138/138 99/99/99 148/148/148
f 128/128/128 17/17/17 18/18/18
f 128/128/128 129/129/129 17/17/17
f 141/141/141 127/127/127 128/128/128
f 141/141/141 139/139/139 127/127/127
f 25/25/25 31/31/31 28/28/28
f 25/25/25 26/26/26 31/31/31
f 141/141/141 128/128/128 28/28/28
f 28/28/28 128/128/128 25/25/25
f 25/25/25 128/128/128 18/18/18
f 124/124/124 121/121/121 122/122/122
f 124/124/124 125/125/125 121/121/121
f 146/146/146 126/126/126 124/124/124
f 146/146/146 147/147/147 126/126/126
f 149/149/149 145/145/145 146/146/146
f 149/149/149 150/150/150 145/145/145
f 122/122/122 136/136/136 137/137/137
f 122/122/122 123/123/123 136/136/136
f 122/122/122 137/137/137 146/146/146
f 122/122/122 146/146/146 124/124/124
f 146/146/146 137/137/137 149/149/149
f 13/13/13 68/68/68 69/69/69
f 13/13/13 14/14/14 68/68/68
f 16/16/16 15/15/15 13/13/13
f 16/16/16 17/17/17 15/15/15
f 69/69/69 158/158/158 159/159/159
f 69/69/69 70/70/70 158/158/158
f 153/153/153 13/13/13 159/159/159
f 159/159/159 13/13/13 69/69/69
f 13/13/13 153/153/153 16/16/16
f 66/66/66 71/71/71 68/68/68
f 66/66/66 67/67/67 71/71/71
f 115/115/115 143/143/143 144/144/144
f 115/115/115 116/116/116 143/143/143
f 111/111/111 117/117/117 115/115/115
f 111/111/111 109/109/109 117/117/117
f 135/135/135 110/110/110 111/111/111
f 135/135/135 133/133/133 110/110/110
f 14/14/14 134/134/134 135/135/135
f 14/14/14 15/15/15 134/134/134
f 144/144/144 111/111/111 115/115/115
f 111/111/111 144/144/144 135/135/135
f 135/135/135 144/144/144 14/14/14
f 14/14/14 144/144/144 66/66/66
f 14/14/14 66/66/66 68/68/68
f 20/20/20 42/42/42 43/43/43
f 20/20/20 21/21/21 42/42/42
f 118/118/118 23/23/23 20/20/20
f 118/118/118 119/119/119 23/23/23
f 116/116/116 120/120/120 118/118/118
f 116/116/116 117/117/117 120/120/120
f 325/325/325 323/323/323 324/324/324
f 325/325/325 326/326/326 323/323/323
f 43/43/43 37/37/37 38/38/38
f 43/43/43 44/44/44 37/37/37
f 116/116/116 118/118/118 143/143/143
f 143/143/143 118/118/118 20/20/20
f 143/143/143 20/20/20 43/43/43
f 143/143/143 43/43/43 38/38/38
f 143/143/143 38/38/38 324/324/324
f 324/324/324 38/38/38 325/325/325
f 40/40/40 45/45/45 42/42/42
f 40/40/40 41/41/41 45/45/45
f 203/203/203 106/106/106 107/107/107
f 203/203/203 201/201/201 106/106/106
f 204/204/204 202/202/202 203/203/203
f 204/204/204 207/207/207 202/202/202
f 184/184/184 206/206/206 204/204/204
f 184/184/184 182/182/182 206/206/206
f 21/21/21 183/183/183 184/184/184
f 21/21/21 22/22/22 183/183/183
f 21/21/21 184/184/184 107/107/107
f 21/21/21 107/107/107 40/40/40
f 21/21/21 40/40/40 42/42/42
f 107/107/107 184/184/184 203/203/203
f 203/203/203 184/184/184 204/204/204
f 132/132/132 133/133/133 134/134/134
f 132/132/132 130/130/130 133/133/133
f 129/129/129 131/131/131 132/132/132
f 129/129/129 127/127/127 131/131/131
f 17/17/17 132/132/132 134/134/134
f 17/17/17 134/134/134 15/15/15
f 132/132/132 17/17/17 129/129/129
f 147/147/147 22/22/22 23/23/23
f 147/147/147 145/145/145 22/22/22
f 119/119/119 125/125/125 126/126/126
f 119/119/119 120/120/120 125/125/125
f 119/119/119 126/126/126 147/147/147
f 119/119/119 147/147/147 23/23/23
f 301/301/301 185/185/185 183/183/183
f 301/301/301 302/302/302 185/185/185
f 305/305/305 303/303/303 301/301/301
f 305/305/305 306/306/306 303/303/303
f 97/97/97 304/304/304 305/305/305
f 97/97/97 98/98/98 304/304/304
f 305/305/305 150/150/150 97/97/97
f 150/150/150 305/305/305 22/22/22
f 150/150/150 22/22/22 145/145/145
f 22/22/22 305/305/305 183/183/183
f 183/183/183 305/305/305 301/301/301
f 339/339/339 26/26/26 27/27/27
f 339/339/339 337/337/337 26/26/26
f 340/340/340 338/338/338 339/339/339
f 340/340/340 341/341/341 338/338/338
f 162/162/162 342/342/342 340/340/340
f 162/162/162 160/160/160 342/342/342
f 368/368/368 161/161/161 162/162/162
f 368/368/368 369/369/369 161/161/161
f 339/339/339 368/368/368 340/340/340
f 340/340/340 368/368/368 162/162/162
f 368/368/368 339/339/339 27/27/27
f 368/368/368 27/27/27 366/366/366
f 94/94/94 91/91/91 92/92/92
f 94/94/94 95/95/95 91/91/91
f 90/90/90 96/96/96 94/94/94
f 90/90/90 88/88/88 96/96/96
f 33/33/33 89/89/89 90/90/90
f 33/33/33 34/34/34 89/89/89
f 30/30/30 32/32/32 33/33/33
f 30/30/30 31/31/31 32/32/32
f 94/94/94 30/30/30 90/90/90
f 90/90/90 30/30/30 33/33/33
f 30/30/30 94/94/94 92/92/92
f 345/345/345 35/35/35 32/32/32
f 345/345/345 343/343/343 35/35/35
f 337/337/337 344/344/344 345/345/345
f 337/337/337 338/338/338 344/344/344
f 337/337/337 345/345/345 32/32/32
f 337/337/337 32/32/32 26/26/26
f 26/26/26 32/32/32 31/31/31
f 9/9/9 369/369/369 370/370/370
f 9/9/9 10/10/10 369/369/369
f 171/171/171 12/12/12 9/9/9
f 171/171/171 174/174/174 12/12/12
f 371/371/371 173/173/173 171/171/171
f 371/371/371 372/372/372 173/173/173
f 171/171/171 9/9/9 371/371/371
f 371/371/371 9/9/9 370/370/370
f 10/10/10 160/160/160 161/161/161
f 10/10/10 11/11/11 160/160/160
f 369/369/369 10/10/10 161/161/161
f 34/34/34 11/11/11 12/12/12
f 34/34/34 35/35/35 11/11/11
f 195/195/195 88/88/88 89/89/89
f 195/195/195 196/196/196 88/88/88
f 174/174/174 197/197/197 195/195/195
f 174/174/174 172/172/172 197/197/197
f 174/174/174 195/195/195 12/12/12
f 12/12/12 195/195/195 34/34/34
f 34/34/34 195/195/195 89/89/89
f 343/343/343 341/341/341 342/342/342
f 343/343/343 344/344/344 341/341/341
f 11/11/11 343/343/343 160/160/160
f 160/160/160 343/343/343 342/342/342
f 343/343/343 11/11/11 35/35/35
f 55/55/55 61/61/61 58/58/58
f 55/55/55 56/56/56 61/61/61
f 44/44/44 54/54/54 55/55/55
f 44/44/44 45/45/45 54/54/54
f 55/55/55 58/58/58 37/37/37
f 55/55/55 37/37/37 44/44/44
f 51/51/51 57/57/57 54/54/54
f 51/51/51 52/52/52 57/57/57
f 51/51/51 45/45/45 41/41/41
f 45/45/45 51/51/51 54/54/54
f 373/373/373 375/375/375 374/374/374
f 376/376/376 377/377/377 373/373/373
f 376/376/376 373/373/373 374/374/374
f 378/378/378 373/373/373 377/377/377
f 379/379/379 380/380/380 373/373/373
f 373/373/373 380/380/380 375/375/375
f 82/82/82 74/74/74 72/72/72
f 82/82/82 83/83/83 74/74/74
f 156/156/156 81/81/81 82/82/82
f 156/156/156 154/154/154 81/81/81
f 156/156/156 82/82/82 63/63/63
f 63/63/63 82/82/82 72/72/72
f 79/79/79 83/83/83 81/81/81
f 79/79/79 80/80/80 83/83/83
f 70/70/70 78/78/78 79/79/79
f 70/70/70 71/71/71 78/78/78
f 70/70/70 81/81/81 154/154/154
f 70/70/70 154/154/154 158/158/158
f 81/81/81 70/70/70 79/79/79
f 76/76/76 80/80/80 78/78/78
f 76/76/76 77/77/77 80/80/80
f 78/78/78 67/67/67 76/76/76
f 67/67/67 78/78/78 71/71/71
f 77/77/77 74/74/74 80/80/80
f 80/80/80 74/74/74 83/83/83
f 262/262/262 246/246/246 249/249/249
f 262/262/262 263/263/263 246/246/246
f 104/104/104 264/264/264 262/262/262
f 104/104/104 105/105/105 264/264/264
f 104/104/104 262/262/262 100/100/100
f 100/100/100 262/262/262 87/87/87
f 87/87/87 262/262/262 249/249/249
f 169/169/169 263/263/263 264/264/264
f 169/169/169 167/167/167 263/263/263
f 210/210/210 168/168/168 169/169/169
f 210/210/210 208/208/208 168/168/168
f 212/212/212 209/209/209 210/210/210
f 212/212/212 215/215/215 209/209/209
f 201/201/201 214/214/214 212/212/212
f 201/201/201 202/202/202 214/214/214
f 105/105/105 201/201/201 264/264/264
f 264/264/264 201/201/201 169/169/169
f 169/169/169 201/201/201 212/212/212
f 169/169/169 212/212/212 210/210/210
f 201/201/201 105/105/105 106/106/106
f 293/293/293 306/306/306 304/304/304
f 293/293/293 294/294/294 306/306/306
f 297/297/297 292/292/292 293/293/293
f 297/297/297 295/295/295 292/292/292
f 192/192/192 296/296/296 297/297/297
f 192/192/192 190/190/190 296/296/296
f 95/95/95 191/191/191 192/192/192
f 95/95/95 96/96/96 191/191/191
f 91/91/91 293/293/293 98/98/98
f 98/98/98 293/293/293 304/304/304
f 293/293/293 91/91/91 95/95/95
f 293/293/293 95/95/95 297/297/297
f 297/297/297 95/95/95 192/192/192
f 196/196/196 193/193/193 191/191/191
f 196/196/196 194/194/194 193/193/193
f 96/96/96 88/88/88 191/191/191
f 191/191/191 88/88/88 196/196/196
f 361/361/361 163/163/163 166/166/166
f 361/361/361 362/362/362 163/163/163
f 309/309/309 382/382/382 381/381/381
f 309/309/309 307/307/307 382/382/382
f 313/313/313 308/308/308 309/309/309
f 313/313/313 314/314/314 308/308/308
f 312/312/312 315/315/315 313/313/313
f 312/312/312 310/310/310 315/315/315
f 225/225/225 311/311/311 312/312/312
f 225/225/225 226/226/226 311/311/311
f 166/166/166 224/224/224 225/225/225
f 166/166/166 164/164/164 224/224/224
f 381/381/381 313/313/313 309/309/309
f 313/313/313 381/381/381 361/361/361
f 313/313/313 361/361/361 225/225/225
f 313/313/313 225/225/225 312/312/312
f 225/225/225 361/361/361 166/166/166
f 123/123/123 113/113/113 114/114/114
f 123/123/123 121/121/121 113/113/113
f 114/114/114 130/130/130 131/131/131
f 114/114/114 112/112/112 130/130/130
f 127/127/127 114/114/114 131/131/131
f 114/114/114 127/127/127 139/139/139
f 114/114/114 139/139/139 123/123/123
f 123/123/123 139/139/139 136/136/136
f 109/109/109 112/112/112 113/113/113
f 109/109/109 110/110/110 112/112/112
f 125/125/125 113/113/113 121/121/121
f 113/113/113 125/125/125 120/120/120
f 113/113/113 120/120/120 109/109/109
f 109/109/109 120/120/120 117/117/117
f 130/130/130 112/112/112 133/133/133
f 133/133/133 112/112/112 110/110/110
f 248/248/248 165/165/165 163/163/163
f 248/248/248 246/246/246 165/165/165
f 248/248/248 163/163/163 362/362/362
f 167/167/167 164/164/164 165/165/165
f 167/167/167 170/170/170 164/164/164
f 167/167/167 246/246/246 263/263/263
f 246/246/246 167/167/167 165/165/165
f 236/236/236 226/226/226 224/224/224
f 236/236/236 234/234/234 226/226/226
f 237/237/237 235/235/235 236/236/236
f 237/237/237 238/238/238 235/235/235
f 227/227/227 239/239/239 237/237/237
f 227/227/227 228/228/228 239/239/239
f 298/298/298 229/229/229 227/227/227
f 298/298/298 299/299/299 229/229/229
f 336/336/336 300/300/300 298/298/298
f 336/336/336 334/334/334 300/300/300
f 328/328/328 335/335/335 336/336/336
f 328/328/328 329/329/329 335/335/335
f 170/170/170 330/330/330 328/328/328
f 170/170/170 168/168/168 330/330/330
f 227/227/227 236/236/236 298/298/298
f 298/298/298 236/236/236 224/224/224
f 298/298/298 224/224/224 336/336/336
f 336/336/336 224/224/224 164/164/164
f 336/336/336 164/164/164 328/328/328
f 328/328/328 164/164/164 170/170/170
f 236/236/236 227/227/227 237/237/237
f 331/331/331 329/329/329 330/330/330
f 331/331/331 332/332/332 329/329/329
f 198/198/198 333/333/333 331/331/331
f 198/198/198 199/199/199 333/333/333
f 222/222/222 200/200/200 198/198/198
f 222/222/222 220/220/220 200/200/200
f 208/208/208 221/221/221 222/222/222
f 208/208/208 211/211/211 221/221/221
f 330/330/330 198/198/198 331/331/331
f 198/198/198 330/330/330 168/168/168
f 198/198/198 168/168/168 222/222/222
f 222/222/222 168/168/168 208/208/208
f 307/307/307 178/178/178 181/181/181
f 307/307/307 308/308/308 178/178/178
f 186/186/186 384/384/384 383/383/383
f 186/186/186 189/189/189 384/384/384
f 181/181/181 188/188/188 186/186/186
f 181/181/181 179/179/179 188/188/188
f 181/181/181 383/383/383 307/307/307
f 307/307/307 383/383/383 382/382/382
f 382/382/382 383/383/383 385/385/385
f 383/383/383 181/181/181 186/186/186
f 179/179/179 284/284/284 285/285/285
f 179/179/179 180/180/180 284/284/284
f 190/190/190 187/187/187 188/188/188
f 190/190/190 193/193/193 187/187/187
f 285/285/285 295/295/295 296/296/296
f 285/285/285 283/283/283 295/295/295
f 296/296/296 190/190/190 285/285/285
f 285/285/285 190/190/190 188/188/188
f 285/285/285 188/188/188 179/179/179
f 294/294/294 278/278/278 279/279/279
f 294/294/294 292/292/292 278/278/278
f 280/280/280 302/302/302 303/303/303
f 280/280/280 281/281/281 302/302/302
f 279/279/279 282/282/282 280/280/280
f 279/279/279 277/277/277 282/282/282
f 279/279/279 303/303/303 294/294/294
f 294/294/294 303/303/303 306/306/306
f 303/303/303 279/279/279 280/280/280
f 175/175/175 180/180/180 178/178/178
f 175/175/175 176/176/176 180/180/180
f 232/232/232 177/177/177 175/175/175
f 232/232/232 230/230/230 177/177/177
f 314/314/314 231/231/231 232/232/232
f 314/314/314 315/315/315 231/231/231
f 308/308/308 314/314/314 175/175/175
f 308/308/308 175/175/175 178/178/178
f 175/175/175 314/314/314 232/232/232
f 290/290/290 176/176/176 177/177/177
f 290/290/290 291/291/291 176/176/176
f 266/266/266 289/289/289 290/290/290
f 266/266/266 267/267/267 289/289/289
f 271/271/271 265/265/265 266/266/266
f 271/271/271 272/272/272 265/265/265
f 299/299/299 273/273/273 271/271/271
f 299/299/299 300/300/300 273/273/273
f 230/230/230 228/228/228 229/229/229
f 230/230/230 233/233/233 228/228/228
f 299/299/299 271/271/271 266/266/266
f 299/299/299 266/266/266 290/290/290
f 299/299/299 290/290/290 177/177/177
f 299/299/299 177/177/177 229/229/229
f 229/229/229 177/177/177 230/230/230
f 199/199/199 205/205/205 206/206/206
f 199/199/199 200/200/200 205/205/205
f 334/334/334 332/332/332 333/333/333
f 334/334/334 335/335/335 332/332/332
f 274/274/274 272/272/272 273/273/273
f 274/274/274 275/275/275 272/272/272
f 182/182/182 276/276/276 274/274/274
f 182/182/182 185/185/185 276/276/276
f 273/273/273 300/300/300 274/274/274
f 274/274/274 300/300/300 182/182/182
f 182/182/182 300/300/300 206/206/206
f 206/206/206 300/300/300 199/199/199
f 199/199/199 300/300/300 334/334/334
f 199/199/199 334/334/334 333/333/333
f 287/287/287 283/283/283 284/284/284
f 287/287/287 288/288/288 283/283/283
f 291/291/291 286/286/286 287/287/287
f 291/291/291 289/289/289 286/286/286
f 180/180/180 287/287/287 284/284/284
f 287/287/287 180/180/180 291/291/291
f 291/291/291 180/180/180 176/176/176
f 281/281/281 275/275/275 276/276/276
f 281/281/281 282/282/282 275/275/275
f 276/276/276 302/302/302 281/281/281
f 302/302/302 276/276/276 185/185/185
f 317/317/317 387/387/387 386/386/386
f 317/317/317 318/318/318 387/387/387
f 354/354/354 316/316/316 317/317/317
f 354/354/354 352/352/352 316/316/316
f 346/346/346 353/353/353 354/354/354
f 346/346/346 347/347/347 353/353/353
f 189/189/189 348/348/348 346/346/346
f 189/189/189 187/187/187 348/348/348
f 346/346/346 386/386/386 189/189/189
f 189/189/189 386/386/386 384/384/384
f 386/386/386 346/346/346 354/354/354
f 386/386/386 354/354/354 317/317/317
f 349/349/349 347/347/347 348/348/348
f 349/349/349 350/350/350 347/347/347
f 194/194/194 351/351/351 349/349/349
f 194/194/194 197/197/197 351/351/351
f 348/348/348 194/194/194 349/349/349
f 194/194/194 348/348/348 187/187/187
f 194/194/194 187/187/187 193/193/193
f 318/318/318 172/172/172 173/173/173
f 318/318/318 316/316/316 172/172/172
f 173/173/173 372/372/372 318/318/318
f 318/318/318 372/372/372 387/387/387
f 387/387/387 372/372/372 388/388/388
f 352/352/352 350/350/350 351/351/351
f 352/352/352 353/353/353 350/350/350
f 172/172/172 316/316/316 351/351/351
f 172/172/172 351/351/351 197/197/197
f 351/351/351 316/316/316 352/352/352
f 218/218/218 207/207/207 205/205/205
f 218/218/218 216/216/216 207/207/207
f 220/220/220 217/217/217 218/218/218
f 220/220/220 223/223/223 217/217/217
f 218/218/218 200/200/200 220/220/220
f 200/200/200 218/218/218 205/205/205
f 216/216/216 213/213/213 214/214/214
f 216/216/216 219/219/219 213/213/213
f 214/214/214 202/202/202 207/207/207
f 214/214/214 207/207/207 216/216/216
f 252/252/252 211/211/211 209/209/209
f 252/252/252 250/250/250 211/211/211
f 253/253/253 251/251/251 252/252/252
f 253/253/253 254/254/254 251/251/251
f 215/215/215 255/255/255 253/253/253
f 215/215/215 213/213/213 255/255/255
f 209/209/209 215/215/215 252/252/252
f 252/252/252 215/215/215 253/253/253
f 261/261/261 223/223/223 221/221/221
f 261/261/261 259/259/259 223/223/223
f 250/250/250 260/260/260 261/261/261
f 250/250/250 251/251/251 260/260/260
f 221/221/221 250/250/250 261/261/261
f 250/250/250 221/221/221 211/211/211
f 258/258/258 219/219/219 217/217/217
f 258/258/258 256/256/256 219/219/219
f 259/259/259 257/257/257 258/258/258
f 259/259/259 260/260/260 257/257/257
f 223/223/223 259/259/259 217/217/217
f 217/217/217 259/259/259 258/258/258
f 256/256/256 254/254/254 255/255/255
f 256/256/256 257/257/257 254/254/254
f 219/219/219 255/255/255 213/213/213
f 255/255/255 219/219/219 256/256/256
f 245/245/245 310/310/310 311/311/311
f 245/245/245 243/243/243 310/310/310
f 234/234/234 244/244/244 245/245/245
f 234/234/234 235/235/235 244/244/244
f 311/311/311 226/226/226 245/245/245
f 245/245/245 226/226/226 234/234/234
f 242/242/242 233/233/233 231/231/231
f 242/242/242 240/240/240 233/233/233
f 243/243/243 241/241/241 242/242/242
f 243/243/243 244/244/244 241/241/241
f 231/231/231 243/243/243 242/242/242
f 243/243/243 231/231/231 310/310/310
f 310/310/310 231/231/231 315/315/315
f 240/240/240 238/238/238 239/239/239
f 240/240/240 241/241/241 238/238/238
f 240/240/240 239/239/239 228/228/228
f 240/240/240 228/228/228 233/233/233
f 238/238/238 241/241/241 235/235/235
f 235/235/235 241/241/241 244/244/244
f 257/257/257 260/260/260 254/254/254
f 254/254/254 260/260/260 251/251/251
f 288/288/288 268/268/268 269/269/269
f 288/288/288 286/286/286 268/268/268
f 269/269/269 277/277/277 278/278/278
f 269/269/269 270/270/270 277/277/277
f 283/283/283 288/288/288 269/269/269
f 283/283/283 269/269/269 295/295/295
f 295/295/295 269/269/269 278/278/278
f 295/295/295 278/278/278 292/292/292
f 270/270/270 267/267/267 265/265/265
f 270/270/270 268/268/268 267/267/267
f 282/282/282 277/277/277 270/270/270
f 282/282/282 270/270/270 275/275/275
f 275/275/275 270/270/270 265/265/265
f 275/275/275 265/265/265 272/272/272
f 286/286/286 289/289/289 268/268/268
f 268/268/268 289/289/289 267/267/267
f 326/326/326 320/320/320 323/323/323
f 335/335/335 329/329/329 332/332/332
f 344/344/344 338/338/338 341/341/341
f 353/353/353 347/347/347 350/350/350
