# Object29.bmd — MU geometry at action 0 key 0, exported for MU2
# 1 mesh(es)

g d_003
# texture: d_003.jpg
v -29.048 14.9484 111.4111
v -29.048 14.9484 104.4101
v -20.1376 14.9484 104.4101
v -20.1376 14.9484 111.4111
v -26.1057 154.7959 102.3971
v -23.0799 154.7959 102.3971
v -23.0799 107.0589 48.9858
v -26.1057 107.0589 48.9858
v -29.048 18.9263 114.9116
v -20.1376 18.9263 114.9116
v -19.9786 27.0764 115.3386
v -29.207 27.0764 115.3386
v 43.036 14.7666 116.5452
v 43.036 14.7666 101.1121
v 43.036 32.3042 101.1121
v 43.036 32.3042 116.5452
v -20.1376 18.9263 84.3852
v -29.048 18.9263 84.3852
v -29.207 27.0764 83.9582
v -19.9786 27.0764 83.9582
v -92.2216 14.7666 101.1121
v -92.2216 14.7666 116.5452
v -92.2216 32.3042 116.5452
v -92.2216 32.3042 101.1121
v -28.0507 72.2015 105.8821
v -21.1349 72.2015 105.8821
v -20.7047 112.4293 118.8518
v -28.4809 112.4293 118.8518
v -17.874 69.4199 100.7992
v -17.874 59.3759 86.455
v -16.0779 83.0472 48.9858
v -16.0779 99.6324 105.2616
v -21.1349 55.5509 82.1027
v -28.0507 55.5509 82.1027
v -25.6551 70.9836 31.5722
v -23.5305 70.9836 31.5722
v -31.3116 59.3759 86.455
v -31.3116 69.4199 100.7992
v -33.1077 99.6324 105.2616
v -33.1077 83.0472 48.9858
v -44.2921 12.4586 104.4515
v -44.2921 12.4586 111.3697
v -82.6802 3.8056 116.5452
v -82.6802 3.8056 101.1121
v -4.893499 12.4586 111.3697
v -4.893499 12.4586 104.4515
v 33.4946 3.8056 101.1121
v 33.4946 3.8056 116.5452
v -5.124599 30.9979 113.885
v -4.893499 17.9945 114.2523
v 33.4946 14.7666 126.1908
v 33.4946 32.3042 126.1909
v -44.2921 17.9945 114.2523
v -44.061 30.9979 113.885
v -82.6802 32.3042 126.1909
v -82.6802 14.7666 126.1908
v -4.893499 17.9944 101.5689
v -5.124599 30.9979 101.9362
v 33.4946 32.3042 91.4664
v 33.4946 14.7666 91.4664
v -4.7994 36.9315 104.3019
v -4.7994 36.9315 111.5193
v 33.4946 43.2652 116.5452
v 33.4946 43.2652 101.1121
v -44.061 30.9979 101.9362
v -44.2921 17.9944 101.5689
v -82.6802 14.7666 91.4664
v -82.6802 32.3042 91.4664
v -44.3863 36.9315 111.5193
v -44.3863 36.9315 104.3019
v -82.6802 43.2652 101.1121
v -82.6802 43.2652 116.5452
v -30.3337 17.9564 33.2676
v -28.1765 17.9564 27.3407
v -20.6332 17.9564 30.0862
v -22.7904 17.9564 36.0131
v -25.0654 143.9452 26.5432
v -22.5039 143.9452 27.4755
v -6.046501 100.9388 -17.7409
v -8.6079 100.9388 -18.6733
v -31.4123 21.5401 36.231
v -23.869 21.5401 38.9765
v -23.866 28.8825 39.387
v -31.6785 28.8825 36.5435
v 29.1085 17.7927 59.8249
v 33.8638 17.7927 46.7597
v 33.8638 33.5923 46.7597
v 29.1085 33.5923 59.8249
v -14.463 21.5401 13.1337
v -22.0063 21.5401 10.3882
v -22.0094 28.8825 9.977699
v -14.1969 28.8825 12.8212
v -80.6412 17.7927 5.083298
v -85.3965 17.7927 18.1484
v -85.3965 33.5923 18.1484
v -80.6412 33.5923 5.083298
v -27.7858 69.5357 28.8942
v -21.9311 69.5357 31.0251
v -25.5632 105.7771 42.13741
v -32.1463 105.7771 39.7413
v -17.6043 67.0298 27.7269
v -13.1845 57.9812 15.5835
v -0.118799 79.3067 -15.5834
v -17.4588 94.2483 32.0579
v -14.604 54.53519 10.8942
v -20.4588 54.53519 8.763199
v -2.860901 68.4385 -33.2762
v -1.0623 68.4385 -32.6216
v -24.5604 57.9812 11.443
v -28.9803 67.0298 23.5864
v -31.8757 94.2483 26.8106
v -14.5356 79.3067 -20.8308
v -41.0945 15.7133 22.6786
v -43.2262 15.7133 28.5354
v -77.3191 7.9179 21.0884
v -72.5637 7.9179 8.023201
v -9.8725 15.7133 40.67509
v -7.740799 15.7133 34.81841
v 25.7864 7.9179 43.8197
v 21.031 7.9179 56.8849
v -10.8432 32.4154 42.7333
v -10.7607 20.7006 43.1154
v 18.0589 17.7927 65.0506
v 18.0589 33.5923 65.0506
v -44.1143 20.7006 30.9757
v -43.8055 32.4154 30.736
v -80.2912 33.5923 29.2541
v -80.2912 17.7927 29.2541
v -6.8526 20.7006 32.3781
v -7.161499 32.4155 32.6178
v 28.7584 33.5923 35.654
v 28.7584 17.7927 35.654
v -7.615 37.761 34.7207
v -9.8389 37.761 40.8308
v 21.031 43.46709 56.8849
v 25.7864 43.46709 43.8197
v -40.1238 32.4155 20.6205
v -40.2063 20.7006 20.2383
v -69.5916 17.7927 -0.142502
v -69.5916 33.5923 -0.142502
v -43.352 37.761 28.6331
v -41.1281 37.761 22.523
v -72.5637 43.46709 8.023201
v -77.3191 43.46709 21.0884
v -10.5562 20.3408 -34.25349
v -6.903801 20.3408 -38.6064
v -1.3638 20.3408 -33.95781
v -5.0163 20.3408 -29.605
v -4.0242 133.8442 -38.32289
v -2.143 133.8442 -36.7444
v 25.7217 95.0997 -69.9523
v 23.8405 95.0997 -71.53081
v -12.3825 23.5693 -32.0771
v -6.842501 23.5693 -27.4286
v -6.9664 30.1841 -27.08009
v -12.7041 30.1841 -31.89461
v 31.5828 20.1933 6.5448
v 39.6342 20.1933 -3.050598
v 39.6342 34.4272 -3.050598
v 31.5828 34.4272 6.5448
v 9.083199 23.5693 -46.4081
v 3.5432 23.5693 -51.05659
v 3.667099 30.1841 -51.40511
v 9.4048 30.1841 -46.59059
v -44.4607 20.1933 -73.61461
v -52.5121 20.1933 -64.01921
v -52.5121 34.4272 -64.01921
v -44.4607 34.4272 -73.6145
v -7.051701 66.8087 -37.17079
v -2.7519 66.8087 -33.56281
v -9.2507 99.4585 -25.2747
v -14.0854 99.4585 -29.3315
v 1.927299 64.5511 -35.0218
v 9.410698 56.3992 -43.9402
v 30.0751 75.6114 -66.2993
v 0.716 89.0722 -31.3105
v 9.6539 53.2947 -48.3474
v 5.354 53.2947 -51.95551
v 33.2053 65.8202 -82.12239
v 34.5262 65.8202 -81.01399
v 1.056 56.3992 -50.9507
v -6.427401 64.5511 -42.0323
v -9.8721 89.0722 -40.1949
v 19.4871 75.6114 -75.1837
v -16.4032 18.32 -46.53349
v -20.0125 18.32 -42.2321
v -46.5799 11.2971 -59.0415
v -38.5284 11.2971 -68.6368
v 4.4832 18.32 -21.6779
v 8.0924 18.32 -25.9792
v 33.7019 11.2971 -8.028297
v 25.6505 11.2971 1.567001
v 3.027201 33.367 -20.2346
v 2.9793 22.813 -19.8857
v 20.6183 20.1933 7.564102
v 20.6183 34.4272 7.564102
v -21.5163 22.813 -40.44
v -21.181 33.367 -40.5477
v -51.612 34.4272 -53.0444
v -51.612 20.1933 -53.0444
v 9.596199 22.813 -27.77141
v 9.260899 33.367 -27.6636
v 38.7341 34.4272 -14.0254
v 38.7341 20.1933 -14.0254
v 8.229 38.1828 -26.0231
v 4.4636 38.1828 -21.53571
v 25.6505 43.32339 1.567001
v 33.7019 43.32339 -8.028297
v -14.9473 33.367 -47.9767
v -14.8994 22.813 -48.3257
v -33.4963 20.1933 -74.6339
v -33.4963 34.4272 -74.6339
v -20.1491 38.1828 -42.1882
v -16.3837 38.1828 -46.6756
v -38.5284 43.32339 -68.6368
v -46.5799 43.32339 -59.0415
v 28.5996 21.4903 -85.53221
v 33.1499 21.4903 -88.71831
v 37.2049 21.4903 -82.92711
v 32.6547 21.4903 -79.741
v 35.7972 132.4497 -87.72209
v 37.1742 132.4497 -85.75551
v 71.8884 94.5737 -110.0627
v 70.5114 94.5737 -112.0292
v 26.3245 24.6465 -83.93919
v 30.3795 24.6465 -78.1479
v 30.1744 31.113 -77.8503
v 25.9746 31.113 -83.84819
v 58.0677 21.3461 -36.3454
v 68.0983 21.3461 -43.3689
v 68.0983 35.261 -43.3689
v 58.0677 35.261 -36.3454
v 50.21989 24.6465 -92.0403
v 46.1649 24.6465 -97.8315
v 46.37 31.1131 -98.1292
v 50.5698 31.1131 -92.1313
v 6.543499 21.3461 -131.2783
v -3.487101 21.3461 -124.2548
v -3.487101 35.261 -124.2548
v 6.543499 35.261 -131.2783
v 32.647 66.9167 -87.40019
v 35.7943 66.9167 -82.90529
v 27.5606 98.8347 -76.7234
v 24.0217 98.8347 -81.77739
v 40.5819 64.7097 -83.09911
v 49.9048 56.7405 -89.62709
v 75.0749 75.5221 -105.5118
v 38.499 88.6812 -79.90111
v 51.2495 53.7056 -93.7272
v 48.1022 53.7056 -98.22209
v 82.0342 65.9504 -119.6612
v 83.0011 65.9504 -118.2803
v 43.7894 56.7405 -98.36079
v 34.4665 64.7097 -91.83281
v 30.7489 88.6812 -90.96941
v 67.3248 75.5221 -116.5801
v 26.1854 19.5149 -98.60719
v 21.689 19.5149 -95.4588
v 0.855101 12.6493 -118.0535
v 10.8857 12.6493 -125.077
v 39.61909 19.5149 -69.8521
v 44.1155 19.5149 -73.0005
v 63.7561 12.6493 -49.5703
v 53.72549 12.6493 -42.5468
v 37.8791 34.2246 -68.85759
v 37.7456 23.9072 -68.54021
v 47.45641 21.3461 -38.1571
v 47.45641 35.261 -38.1571
v 19.8155 23.9072 -94.147
v 20.1594 34.2246 -94.16389
v -5.414 35.261 -113.6638
v -5.414 21.3461 -113.6638
v 45.989 23.9072 -74.3123
v 45.6451 34.2246 -74.29539
v 70.0252 35.261 -53.9599
v 70.0252 21.3461 -53.9599
v 44.2556 38.9324 -73.0074
v 39.5647 38.9324 -69.72279
v 53.72549 43.9578 -42.5468
v 63.7561 43.9578 -49.5703
v 27.9254 34.2246 -99.6017
v 28.059 23.9072 -99.9191
v 17.1548 21.3461 -129.4667
v 17.1548 35.261 -129.4667
v 21.5489 38.9324 -95.45189
v 26.2399 38.9324 -98.7365
v 10.8857 43.9578 -125.077
v 0.855101 43.9578 -118.0535
v 69.5691 21.0504 -118.8166
v 72.59 21.0504 -123.1308
v 78.0808 21.0504 -119.2861
v 75.0599 21.0504 -114.9719
v 75.2717 126.2539 -123.1017
v 77.1362 126.2539 -121.7961
v 100.1824 90.3426 -154.7096
v 98.3179 90.3426 -156.0151
v 68.0587 24.0428 -116.6595
v 73.5495 24.0428 -112.8148
v 73.4632 30.1739 -112.4831
v 67.7765 30.1739 -116.4649
v 111.7738 20.9137 -84.5497
v 118.433 20.9137 -94.06
v 118.433 34.1067 -94.06
v 111.7738 34.1067 -84.5497
v 86.7212 24.0428 -131.626
v 81.2304 24.0428 -135.4707
v 81.3167 30.1739 -135.8024
v 87.0035 30.1739 -131.8205
v 35.0838 20.9137 -152.4216
v 28.4247 20.9137 -142.9114
v 28.4247 34.1067 -142.9114
v 35.0838 34.1067 -152.4216
v 72.5693 64.1203 -121.7934
v 76.8311 64.1203 -118.8093
v 71.4999 94.3826 -110.6315
v 66.7081 94.3826 -113.9868
v 81.0337 62.0278 -120.5345
v 87.2231 54.472 -129.3738
v 104.4972 72.2793 -151.6883
v 80.215 84.7558 -117.0097
v 87.0915 51.5945 -133.4628
v 82.8298 51.5945 -136.4469
v 106.1093 63.2041 -166.5514
v 107.4185 63.2041 -165.6346
v 78.9424 54.472 -135.1719
v 72.7531 62.0278 -126.3326
v 69.7209 84.7558 -124.3578
v 94.0031 72.2793 -159.0364
v 63.1783 19.1774 -129.6829
v 60.1932 19.1774 -125.4197
v 34.3043 12.668 -138.7944
v 40.9635 12.668 -148.3047
v 84.4716 19.1774 -108.4198
v 87.4567 19.1774 -112.683
v 112.5533 12.668 -98.1769
v 105.8942 12.668 -88.66661
v 83.2439 33.124 -106.9696
v 83.2278 23.3419 -106.6435
v 101.7322 20.9137 -82.7227
v 101.7322 34.1067 -82.7227
v 58.9494 23.3419 -123.6434
v 59.25031 33.124 -123.77
v 30.1423 34.1067 -132.8505
v 30.1423 20.9137 -132.8505
v 88.7005 23.3419 -114.4593
v 88.3996 33.124 -114.3326
v 116.7153 34.1067 -104.1208
v 116.7153 20.9137 -104.1208
v 87.5793 37.5877 -112.7346
v 84.4651 37.5877 -108.287
v 105.8942 42.3524 -88.66661
v 112.5533 42.3524 -98.1769
v 64.406 33.124 -131.1331
v 64.4221 23.3419 -131.4592
v 45.1254 20.9137 -154.2486
v 45.1254 34.1067 -154.2486
v 60.0706 37.5877 -125.3682
v 63.1848 37.5877 -129.8157
v 40.9635 42.3524 -148.3047
v 34.3043 42.3524 -138.7944
vn 0.064604 -0.921851 0.382121
vn 0.0137 -0.964673 -0.263093
vn -0.036499 -0.980066 -0.195293
vn -0.044501 -0.815312 0.577309
vn -0.609133 0.768541 0.19571
vn 0.868883 0.49169 0.057299
vn 0.340606 0.558009 -0.756712
vn -0.688697 0.452898 -0.566198
vn -0.0056 -0.377583 0.925959
vn 0.0315 -0.297199 0.954296
vn 0.0257 0.076901 0.996708
vn -0.034401 0.067601 0.997119
vn 0.906028 -0.345511 0.244408
vn 0.851581 -0.266394 -0.45149
vn 0.906028 0.345511 -0.244408
vn 0.851581 0.266394 0.45149
vn 0.197887 -0.675455 -0.710353
vn -0.448197 -0.537896 -0.713994
vn -0.281796 -0.053399 -0.957987
vn 0.501681 -0.031799 -0.864468
vn -0.906028 -0.345511 -0.244408
vn -0.851581 -0.266394 0.45149
vn -0.906028 0.345511 0.244408
vn -0.851581 0.266394 -0.45149
vn -0.295901 0.0807 0.951804
vn 0.500197 0.097599 0.860394
vn 0.386703 0.0191 0.922007
vn -0.64723 -0.031701 0.761635
vn 0.978562 0.164594 0.123795
vn 0.961287 -0.114798 -0.250497
vn 0.986483 0.035399 -0.159997
vn 0.967152 -0.018999 0.253488
vn 0.539417 -0.396913 -0.742624
vn -0.741116 -0.297606 -0.601813
vn -0.471288 -0.312192 -0.824878
vn 0.740913 -0.318806 -0.59111
vn -0.98297 0.041599 -0.178995
vn -0.964837 0.078003 0.25101
vn -0.995119 0.051301 0.084302
vn -0.975069 -0.072298 -0.209793
vn 0.193092 -0.922262 -0.334886
vn 0.226794 -0.797279 0.559385
vn -0.29551 -0.915231 0.273909
vn -0.179201 -0.815104 -0.550902
vn -0.2006 -0.921198 0.333399
vn -0.210603 -0.799309 -0.562807
vn 0.301315 -0.913245 -0.274214
vn 0.162207 -0.818437 0.551225
vn -0.044598 0.133395 0.990059
vn -0.145905 -0.380414 0.913234
vn 0.234289 -0.232089 0.944057
vn 0.122601 0.367002 0.922105
vn 0.128699 -0.235998 0.963193
vn 0.037301 0.281207 0.958922
vn -0.237798 0.240798 0.940993
vn -0.113798 -0.384494 0.916086
vn 0.147206 -0.336414 -0.930138
vn 0.362395 0.248496 -0.898287
vn 0.258507 0.239206 -0.935925
vn 0.139402 -0.382904 -0.91321
vn 0.611581 0.64748 -0.454686
vn 0.338991 0.704081 0.623983
vn 0.321998 0.907096 0.271099
vn 0.209901 0.799004 -0.563503
vn -0.410884 0.089696 -0.907265
vn -0.0316 -0.497108 -0.867113
vn -0.255004 -0.230303 -0.939113
vn -0.148398 0.364795 -0.919186
vn -0.503907 0.780211 0.370605
vn -0.452402 0.622203 -0.638903
vn -0.327914 0.90494 -0.271212
vn -0.192199 0.803097 0.563998
vn -0.070003 -0.921833 0.381214
vn 0.102898 -0.96468 -0.242495
vn 0.032499 -0.980067 -0.195993
vn -0.239297 -0.81529 0.527294
vn -0.639394 0.768492 -0.0244
vn 0.796892 0.491695 0.350997
vn 0.578889 0.557989 -0.594589
vn -0.453502 0.452902 -0.767604
vn -0.321994 -0.377593 0.868184
vn -0.296713 -0.297213 0.907539
vn -0.316791 0.076898 0.945373
vn -0.373402 0.0676 0.925204
vn 0.76782 -0.345509 0.539514
vn 0.954639 -0.266411 -0.133005
vn 0.934987 0.345495 0.080199
vn 0.645811 0.266404 0.715512
vn 0.428897 -0.675495 -0.599795
vn -0.177003 -0.537908 -0.824212
vn 0.0628 -0.0534 -0.996597
vn 0.767119 -0.031801 -0.640716
vn -0.76782 -0.345509 -0.539514
vn -0.954639 -0.266411 0.133005
vn -0.934987 0.345495 -0.080199
vn -0.645811 0.266404 -0.715512
vn -0.603597 0.0807 0.793195
vn 0.175796 0.097598 0.979577
vn 0.048098 0.019099 0.99866
vn -0.86871 -0.0317 0.494306
vn 0.877211 0.164602 0.451006
vn 0.988988 -0.114799 0.093399
vn 0.981703 0.0354 0.187101
vn 0.822112 -0.019 0.569009
vn 0.760909 -0.396905 -0.513306
vn -0.490596 -0.297598 -0.818994
vn -0.160801 -0.312203 -0.936308
vn 0.898418 -0.318806 -0.302006
vn -0.862476 0.041599 -0.504386
vn -0.992503 0.078 -0.0941
vn -0.963919 0.051301 -0.261205
vn -0.844524 -0.072302 -0.530615
vn 0.295992 -0.922275 -0.248593
vn 0.0218 -0.797295 0.603196
vn -0.371322 -0.915253 0.156309
vn 0.020001 -0.815136 -0.578925
vn -0.302508 -0.921225 0.244607
vn -0.0054 -0.799304 -0.600903
vn 0.376921 -0.913251 -0.154609
vn -0.0361 -0.818407 0.573505
vn -0.380503 0.133401 0.915108
vn -0.449477 -0.38038 0.808258
vn -0.102696 -0.23209 0.967258
vn -0.200108 0.367015 0.908437
vn -0.208504 -0.236005 0.949119
vn -0.292916 0.281215 0.913848
vn -0.545304 0.240802 0.802906
vn -0.420215 -0.384514 0.82193
vn 0.456491 -0.336394 -0.823684
vn 0.647772 0.248489 -0.720169
vn 0.562993 0.239197 -0.79109
vn 0.443292 -0.382893 -0.810485
vn 0.730194 0.647495 -0.218098
vn 0.105099 0.70409 0.70229
vn 0.209896 0.907082 0.364893
vn 0.389917 0.799035 -0.45772
vn -0.075799 0.089698 -0.993081
vn 0.266905 -0.49711 -0.825617
vn 0.081599 -0.230298 -0.969693
vn 0.174902 0.364804 -0.91451
vn -0.600296 0.780195 0.175899
vn -0.206601 0.622202 -0.755103
vn -0.215408 0.904932 -0.367013
vn -0.373491 0.803081 0.464289
vn -0.19621 -0.921846 0.334217
vn 0.179597 -0.964683 -0.192697
vn 0.097598 -0.980075 -0.172996
vn -0.40519 -0.81528 0.41369
vn -0.592494 0.768493 -0.241598
vn 0.628786 0.491689 0.602387
vn 0.747328 0.558021 -0.360713
vn -0.163603 0.452909 -0.876417
vn -0.599502 -0.377601 0.705702
vn -0.589219 -0.29721 0.751324
vn -0.621014 0.076902 0.780018
vn -0.667307 0.067601 0.741708
vn 0.536994 -0.345496 0.769591
vn 0.942569 -0.266391 0.201493
vn 0.85116 0.345484 0.395181
vn 0.36212 0.266414 0.893248
vn 0.608212 -0.675413 -0.417008
vn 0.115604 -0.53792 -0.835031
vn 0.399901 -0.0534 -0.915002
vn 0.939997 -0.0318 -0.339699
vn -0.536994 -0.345496 -0.769591
vn -0.942569 -0.266391 -0.201493
vn -0.85116 0.345484 -0.395181
vn -0.36212 0.266414 -0.893248
vn -0.838497 0.0807 0.538898
vn -0.169806 0.097603 0.980632
vn -0.296392 0.0191 0.954875
vn -0.98538 -0.031699 0.167397
vn 0.670095 0.164599 0.723795
vn 0.897408 -0.114801 0.426004
vn 0.85854 0.035402 0.511524
vn 0.578007 -0.019 0.81581
vn 0.890588 -0.396895 -0.222097
vn -0.180899 -0.297599 -0.937396
vn 0.169204 -0.312208 -0.934824
vn 0.94753 -0.31881 0.023401
vn -0.638006 0.0416 -0.768907
vn -0.900463 0.077997 -0.427882
vn -0.816482 0.051299 -0.575087
vn -0.612085 -0.072298 -0.78748
vn 0.363185 -0.922263 -0.132395
vn -0.185894 -0.797274 0.574281
vn -0.402418 -0.91524 0.019901
vn 0.216803 -0.815111 -0.537207
vn -0.367998 -0.921195 0.126399
vn 0.200404 -0.799315 -0.566511
vn 0.407114 -0.91323 -0.016401
vn -0.230096 -0.818387 0.526592
vn -0.670564 0.133393 0.729761
vn -0.698793 -0.380396 0.605794
vn -0.427386 -0.232092 0.873771
vn -0.498793 0.366995 0.785188
vn -0.520573 -0.235988 0.820557
vn -0.587828 0.281213 0.758536
vn -0.787009 0.240803 0.568006
vn -0.676016 -0.384509 0.628614
vn 0.710679 -0.33639 -0.617882
vn 0.855007 0.248502 -0.455204
vn 0.799617 0.239205 -0.550812
vn 0.693775 -0.382886 -0.609978
vn 0.760728 0.647523 0.044802
vn -0.141398 0.70409 0.69589
vn 0.072398 0.907078 0.41469
vn 0.522995 0.798992 -0.296797
vn 0.268406 0.089702 -0.95912
vn 0.533177 -0.497078 -0.68457
vn 0.408307 -0.230304 -0.883315
vn 0.477085 0.364788 -0.799575
vn -0.62422 0.780224 -0.040001
vn 0.064096 0.622166 -0.780257
vn -0.076804 0.904952 -0.418524
vn -0.50979 0.803085 0.308494
vn -0.27601 -0.921832 0.27211
vn 0.223392 -0.964666 -0.139695
vn 0.138996 -0.980074 -0.141896
vn -0.498484 -0.815274 0.294691
vn -0.50972 0.76853 -0.386715
vn 0.451409 0.49171 0.744615
vn 0.815224 0.558017 -0.155005
vn 0.0688 0.452901 -0.888902
vn -0.761711 -0.377606 0.526508
vn -0.763611 -0.297204 0.573208
vn -0.801728 0.076903 0.592721
vn -0.836537 0.067603 0.543724
vn 0.319487 -0.345486 0.882365
vn 0.858292 -0.266398 0.438596
vn 0.719889 0.345495 0.601991
vn 0.118604 0.26641 0.956535
vn 0.695411 -0.675411 -0.245404
vn 0.327702 -0.537904 -0.776705
vn 0.623108 -0.053401 -0.780311
vn 0.995882 -0.031799 -0.084898
vn -0.319487 -0.345486 -0.882365
vn -0.858292 -0.266398 -0.438596
vn -0.719889 0.345495 -0.601991
vn -0.118604 0.26641 -0.956535
vn -0.949378 0.080698 0.303593
vn -0.417793 0.097598 0.903285
vn -0.533422 0.019101 0.845634
vn -0.995133 -0.031701 -0.093303
vn 0.459893 0.164597 0.872586
vn 0.756519 -0.114803 0.643816
vn 0.696897 0.0354 0.716297
vn 0.347112 -0.019001 0.937631
vn 0.91772 -0.396909 0.0159
vn 0.067898 -0.297592 -0.952276
vn 0.405391 -0.312193 -0.859182
vn 0.909178 -0.318792 0.267894
vn -0.417186 0.041599 -0.907869
vn -0.759001 0.078 -0.646401
vn -0.639814 0.051301 -0.766816
vn -0.38739 -0.072298 -0.919077
vn 0.385083 -0.922259 -0.033899
vn -0.328193 -0.797282 0.506588
vn -0.393909 -0.91522 -0.084902
vn 0.348512 -0.815128 -0.462716
vn -0.388194 -0.921185 0.0269
vn 0.34021 -0.799325 -0.495315
vn 0.397506 -0.913214 0.089601
vn -0.358502 -0.818403 0.449102
vn -0.836611 0.133402 0.531307
vn -0.831778 -0.38039 0.404289
vn -0.638919 -0.232107 0.733422
vn -0.685023 0.367012 0.629321
vn -0.715186 -0.235995 0.657887
vn -0.764093 0.281197 0.580595
vn -0.907222 0.240806 0.344908
vn -0.815663 -0.384483 0.432281
vn 0.846381 -0.336393 -0.412891
vn 0.94369 0.248498 -0.218398
vn 0.914924 0.239206 -0.325108
vn 0.828013 -0.382906 -0.409606
vn 0.723211 0.64751 0.240204
vn -0.316693 0.704085 0.635586
vn -0.037399 0.907081 0.419291
vn 0.581995 0.798993 -0.151299
vn 0.507487 0.089698 -0.856978
vn 0.692168 -0.497077 -0.523276
vn 0.622977 -0.230292 -0.747573
vn 0.667808 0.364804 -0.648807
vn -0.59261 0.780213 -0.200203
vn 0.263888 0.622171 -0.737066
vn 0.034101 0.904922 -0.42421
vn -0.572275 0.803065 0.166093
vn -0.166305 -0.921827 0.35011
vn 0.162095 -0.96467 -0.207694
vn 0.082097 -0.98007 -0.180895
vn -0.367598 -0.815296 0.447398
vn -0.6113 0.7685 -0.189
vn 0.678891 0.491694 0.545293
vn 0.713024 0.558019 -0.424514
vn -0.23931 0.452918 -0.858834
vn -0.535691 -0.377594 0.755287
vn -0.521508 -0.297204 0.799812
vn -0.550609 0.076901 0.831214
vn -0.600083 0.067598 0.797077
vn 0.601991 -0.345495 0.719889
vn 0.956535 -0.26641 0.118604
vn 0.882365 0.345486 0.319487
vn 0.438596 0.266398 0.858292
vn 0.56953 -0.675436 -0.468425
vn 0.042302 -0.537921 -0.841933
vn 0.318595 -0.053399 -0.946386
vn 0.906785 -0.031799 -0.420393
vn -0.601991 -0.345495 -0.719889
vn -0.956535 -0.26641 -0.118604
vn -0.882365 0.345486 -0.319487
vn -0.438596 0.266398 -0.858292
vn -0.788288 0.080699 0.609991
vn -0.0837 0.0976 0.9917
vn -0.211997 0.0191 0.977084
vn -0.967024 -0.031701 0.252706
vn 0.730585 0.164597 0.662687
vn 0.931109 -0.114801 0.346203
vn 0.899825 0.035401 0.434812
vn 0.64687 -0.018999 0.762364
vn 0.867823 -0.39691 -0.298908
vn -0.261892 -0.29759 -0.91807
vn 0.087101 -0.312205 -0.946014
vn 0.945975 -0.318791 -0.059198
vn -0.702584 0.041599 -0.710384
vn -0.934316 0.078001 -0.347806
vn -0.863471 0.051298 -0.501783
vn -0.678413 -0.072301 -0.731114
vn 0.350193 -0.922281 -0.163597
vn -0.135098 -0.797286 0.588289
vn -0.399207 -0.915216 0.054901
vn 0.169206 -0.815128 -0.554019
vn -0.355596 -0.921189 0.157998
vn 0.150303 -0.799315 -0.581811
vn 0.404117 -0.913239 -0.051802
vn -0.183303 -0.818414 0.544609
vn -0.604416 0.133404 0.785421
vn -0.643311 -0.380407 0.664411
vn -0.349598 -0.232099 0.907696
vn -0.428401 0.367001 0.825702
vn -0.447096 -0.235998 0.862792
vn -0.519489 0.281194 0.806883
vn -0.734523 0.240808 0.63442
vn -0.618598 -0.384499 0.685198
vn 0.654094 -0.336397 -0.677494
vn 0.812083 0.248495 -0.527989
vn 0.748586 0.239196 -0.618389
vn 0.637996 -0.382897 -0.668095
vn 0.761733 0.647528 -0.021701
vn -0.080198 0.704079 0.705579
vn 0.108298 0.907079 0.406791
vn 0.495114 0.799023 -0.34121
vn 0.183793 0.089697 -0.978864
vn 0.471503 -0.497103 -0.728405
vn 0.329779 -0.230285 -0.915541
vn 0.4056 0.3648 -0.838099
vn -0.625323 0.780229 0.014601
vn -0.0042 0.622174 -0.782868
vn -0.113002 0.904919 -0.410308
vn -0.480977 0.803062 0.351784
vt 0.589 0.3897
vt 0.5978 0.4015
vt 0.617 0.4004
vt 0.6082 0.3885
vt 0.4764 0.6938
vt 0.4829 0.6934
vt 0.5945 0.6851
vt 0.588 0.6855
vt 0.5809 0.392
vt 0.6001 0.3908
vt 0.5923 0.407
vt 0.5725 0.4081
vt 0.7379 0.3714
vt 0.7573 0.3976
vt 0.7409 0.4338
vt 0.7215 0.4077
vt 0.6385 0.4425
vt 0.6193 0.4437
vt 0.6119 0.4613
vt 0.6318 0.4601
vt 0.4662 0.4148
vt 0.4468 0.3886
vt 0.4305 0.4249
vt 0.4499 0.451
vt 0.5448 0.5173
vt 0.5597 0.5164
vt 0.5068 0.5776
vt 0.4901 0.5786
vt 0.5757 0.5189
vt 0.6031 0.5224
vt 0.632 0.6346
vt 0.5458 0.5736
vt 0.6051 0.5223
vt 0.5902 0.5232
vt 0.6445 0.6403
vt 0.6491 0.6401
vt 0.5741 0.5241
vt 0.5468 0.5206
vt 0.5091 0.5757
vt 0.5953 0.6368
vt 0.5673 0.3983
vt 0.5586 0.3865
vt 0.4775 0.3648
vt 0.4969 0.3909
vt 0.6434 0.3815
vt 0.6521 0.3932
vt 0.747 0.3761
vt 0.7276 0.35
vt 0.6225 0.4156
vt 0.6346 0.3881
vt 0.7052 0.3563
vt 0.6889 0.3926
vt 0.5498 0.3931
vt 0.5387 0.4206
vt 0.4389 0.4074
vt 0.4552 0.3711
vt 0.6505 0.4096
vt 0.6375 0.4359
vt 0.7325 0.4514
vt 0.7489 0.4151
vt 0.6297 0.4441
vt 0.6206 0.4319
vt 0.6908 0.4316
vt 0.7102 0.4577
vt 0.5537 0.4408
vt 0.5658 0.4146
vt 0.4989 0.4299
vt 0.4825 0.4662
vt 0.5354 0.4369
vt 0.5445 0.4491
vt 0.4602 0.4725
vt 0.4408 0.4464
vt 0.589 0.3897
vt 0.5978 0.4015
vt 0.617 0.4004
vt 0.6082 0.3885
vt 0.4764 0.6938
vt 0.4829 0.6934
vt 0.5945 0.6851
vt 0.588 0.6855
vt 0.5809 0.392
vt 0.6001 0.3908
vt 0.5923 0.407
vt 0.5725 0.4081
vt 0.7379 0.3714
vt 0.7573 0.3976
vt 0.7409 0.4338
vt 0.7215 0.4077
vt 0.6385 0.4425
vt 0.6193 0.4437
vt 0.6119 0.4613
vt 0.6318 0.4601
vt 0.4662 0.4148
vt 0.4468 0.3886
vt 0.4305 0.4249
vt 0.4499 0.451
vt 0.5448 0.5173
vt 0.5597 0.5164
vt 0.5068 0.5776
vt 0.4901 0.5786
vt 0.5757 0.5189
vt 0.6031 0.5224
vt 0.632 0.6346
vt 0.5458 0.5736
vt 0.6051 0.5223
vt 0.5902 0.5232
vt 0.6445 0.6403
vt 0.6491 0.6401
vt 0.5741 0.5241
vt 0.5468 0.5206
vt 0.5091 0.5757
vt 0.5953 0.6368
vt 0.5673 0.3983
vt 0.5586 0.3865
vt 0.4775 0.3648
vt 0.4969 0.3909
vt 0.6434 0.3815
vt 0.6521 0.3932
vt 0.747 0.3761
vt 0.7276 0.35
vt 0.6225 0.4156
vt 0.6346 0.3881
vt 0.7052 0.3563
vt 0.6889 0.3926
vt 0.5498 0.3931
vt 0.5387 0.4206
vt 0.4389 0.4074
vt 0.4552 0.3711
vt 0.6505 0.4096
vt 0.6375 0.4359
vt 0.7325 0.4514
vt 0.7489 0.4151
vt 0.6297 0.4441
vt 0.6206 0.4319
vt 0.6908 0.4316
vt 0.7102 0.4577
vt 0.5537 0.4408
vt 0.5658 0.4146
vt 0.4989 0.4299
vt 0.4825 0.4662
vt 0.5354 0.4369
vt 0.5445 0.4491
vt 0.4602 0.4725
vt 0.4408 0.4464
vt 0.589 0.3897
vt 0.5978 0.4015
vt 0.617 0.4004
vt 0.6082 0.3885
vt 0.4764 0.6938
vt 0.4829 0.6934
vt 0.5945 0.6851
vt 0.588 0.6855
vt 0.5809 0.392
vt 0.6001 0.3908
vt 0.5923 0.407
vt 0.5725 0.4081
vt 0.7379 0.3714
vt 0.7573 0.3976
vt 0.7409 0.4338
vt 0.7215 0.4077
vt 0.6385 0.4425
vt 0.6193 0.4437
vt 0.6119 0.4613
vt 0.6318 0.4601
vt 0.4662 0.4148
vt 0.4468 0.3886
vt 0.4305 0.4249
vt 0.4499 0.451
vt 0.5448 0.5173
vt 0.5597 0.5164
vt 0.5068 0.5776
vt 0.4901 0.5786
vt 0.5757 0.5189
vt 0.6031 0.5224
vt 0.632 0.6346
vt 0.5458 0.5736
vt 0.6051 0.5223
vt 0.5902 0.5232
vt 0.6445 0.6403
vt 0.6491 0.6401
vt 0.5741 0.5241
vt 0.5468 0.5206
vt 0.5091 0.5757
vt 0.5953 0.6368
vt 0.5673 0.3983
vt 0.5586 0.3865
vt 0.4775 0.3648
vt 0.4969 0.3909
vt 0.6434 0.3815
vt 0.6521 0.3932
vt 0.747 0.3761
vt 0.7276 0.35
vt 0.6225 0.4156
vt 0.6346 0.3881
vt 0.7052 0.3563
vt 0.6889 0.3926
vt 0.5498 0.3931
vt 0.5387 0.4206
vt 0.4389 0.4074
vt 0.4552 0.3711
vt 0.6505 0.4096
vt 0.6375 0.4359
vt 0.7325 0.4514
vt 0.7489 0.4151
vt 0.6297 0.4441
vt 0.6206 0.4319
vt 0.6908 0.4316
vt 0.7102 0.4577
vt 0.5537 0.4408
vt 0.5658 0.4146
vt 0.4989 0.4299
vt 0.4825 0.4662
vt 0.5354 0.4369
vt 0.5445 0.4491
vt 0.4602 0.4725
vt 0.4408 0.4464
vt 0.589 0.3897
vt 0.5978 0.4015
vt 0.617 0.4004
vt 0.6082 0.3885
vt 0.4764 0.6938
vt 0.4829 0.6934
vt 0.5945 0.6851
vt 0.588 0.6855
vt 0.5809 0.392
vt 0.6001 0.3908
vt 0.5923 0.407
vt 0.5725 0.4081
vt 0.7379 0.3714
vt 0.7573 0.3976
vt 0.7409 0.4338
vt 0.7215 0.4077
vt 0.6385 0.4425
vt 0.6193 0.4437
vt 0.6119 0.4613
vt 0.6318 0.4601
vt 0.4662 0.4148
vt 0.4468 0.3886
vt 0.4305 0.4249
vt 0.4499 0.451
vt 0.5448 0.5173
vt 0.5597 0.5164
vt 0.5068 0.5776
vt 0.4901 0.5786
vt 0.5757 0.5189
vt 0.6031 0.5224
vt 0.632 0.6346
vt 0.5458 0.5736
vt 0.6051 0.5223
vt 0.5902 0.5232
vt 0.6445 0.6403
vt 0.6491 0.6401
vt 0.5741 0.5241
vt 0.5468 0.5206
vt 0.5091 0.5757
vt 0.5953 0.6368
vt 0.5673 0.3983
vt 0.5586 0.3865
vt 0.4775 0.3648
vt 0.4969 0.3909
vt 0.6434 0.3815
vt 0.6521 0.3932
vt 0.747 0.3761
vt 0.7276 0.35
vt 0.6225 0.4156
vt 0.6346 0.3881
vt 0.7052 0.3563
vt 0.6889 0.3926
vt 0.5498 0.3931
vt 0.5387 0.4206
vt 0.4389 0.4074
vt 0.4552 0.3711
vt 0.6505 0.4096
vt 0.6375 0.4359
vt 0.7325 0.4514
vt 0.7489 0.4151
vt 0.6297 0.4441
vt 0.6206 0.4319
vt 0.6908 0.4316
vt 0.7102 0.4577
vt 0.5537 0.4408
vt 0.5658 0.4146
vt 0.4989 0.4299
vt 0.4825 0.4662
vt 0.5354 0.4369
vt 0.5445 0.4491
vt 0.4602 0.4725
vt 0.4408 0.4464
vt 0.589 0.3897
vt 0.5978 0.4015
vt 0.617 0.4004
vt 0.6082 0.3885
vt 0.4764 0.6938
vt 0.4829 0.6934
vt 0.5945 0.6851
vt 0.588 0.6855
vt 0.5809 0.392
vt 0.6001 0.3908
vt 0.5923 0.407
vt 0.5725 0.4081
vt 0.7379 0.3714
vt 0.7573 0.3976
vt 0.7409 0.4338
vt 0.7215 0.4077
vt 0.6385 0.4425
vt 0.6193 0.4437
vt 0.6119 0.4613
vt 0.6318 0.4601
vt 0.4662 0.4148
vt 0.4468 0.3886
vt 0.4305 0.4249
vt 0.4499 0.451
vt 0.5448 0.5173
vt 0.5597 0.5164
vt 0.5068 0.5776
vt 0.4901 0.5786
vt 0.5757 0.5189
vt 0.6031 0.5224
vt 0.632 0.6346
vt 0.5458 0.5736
vt 0.6051 0.5223
vt 0.5902 0.5232
vt 0.6445 0.6403
vt 0.6491 0.6401
vt 0.5741 0.5241
vt 0.5468 0.5206
vt 0.5091 0.5757
vt 0.5953 0.6368
vt 0.5673 0.3983
vt 0.5586 0.3865
vt 0.4775 0.3648
vt 0.4969 0.3909
vt 0.6434 0.3815
vt 0.6521 0.3932
vt 0.747 0.3761
vt 0.7276 0.35
vt 0.6225 0.4156
vt 0.6346 0.3881
vt 0.7052 0.3563
vt 0.6889 0.3926
vt 0.5498 0.3931
vt 0.5387 0.4206
vt 0.4389 0.4074
vt 0.4552 0.3711
vt 0.6505 0.4096
vt 0.6375 0.4359
vt 0.7325 0.4514
vt 0.7489 0.4151
vt 0.6297 0.4441
vt 0.6206 0.4319
vt 0.6908 0.4316
vt 0.7102 0.4577
vt 0.5537 0.4408
vt 0.5658 0.4146
vt 0.4989 0.4299
vt 0.4825 0.4662
vt 0.5354 0.4369
vt 0.5445 0.4491
vt 0.4602 0.4725
vt 0.4408 0.4464
f 1/1/1 3/3/3 2/2/2
f 3/3/3 1/1/1 4/4/4
f 5/5/5 7/7/7 6/6/6
f 7/7/7 5/5/5 8/8/8
f 9/9/9 11/11/11 10/10/10
f 11/11/11 9/9/9 12/12/12
f 13/13/13 15/15/15 14/14/14
f 15/15/15 13/13/13 16/16/16
f 17/17/17 19/19/19 18/18/18
f 19/19/19 17/17/17 20/20/20
f 21/21/21 23/23/23 22/22/22
f 23/23/23 21/21/21 24/24/24
f 25/25/25 27/27/27 26/26/26
f 27/27/27 25/25/25 28/28/28
f 29/29/29 31/31/31 30/30/30
f 31/31/31 29/29/29 32/32/32
f 33/33/33 35/35/35 34/34/34
f 35/35/35 33/33/33 36/36/36
f 37/37/37 39/39/39 38/38/38
f 39/39/39 37/37/37 40/40/40
f 41/41/41 43/43/43 42/42/42
f 43/43/43 41/41/41 44/44/44
f 45/45/45 47/47/47 46/46/46
f 47/47/47 45/45/45 48/48/48
f 49/49/49 51/51/51 50/50/50
f 51/51/51 49/49/49 52/52/52
f 53/53/53 55/55/55 54/54/54
f 55/55/55 53/53/53 56/56/56
f 57/57/57 59/59/59 58/58/58
f 59/59/59 57/57/57 60/60/60
f 61/61/61 63/63/63 62/62/62
f 63/63/63 61/61/61 64/64/64
f 65/65/65 67/67/67 66/66/66
f 67/67/67 65/65/65 68/68/68
f 69/69/69 71/71/71 70/70/70
f 71/71/71 69/69/69 72/72/72
f 1/1/1 41/41/41 42/42/42
f 1/1/1 2/2/2 41/41/41
f 9/9/9 4/4/4 1/1/1
f 9/9/9 10/10/10 4/4/4
f 53/53/53 12/12/12 9/9/9
f 53/53/53 54/54/54 12/12/12
f 42/42/42 56/56/56 53/53/53
f 42/42/42 43/43/43 56/56/56
f 42/42/42 53/53/53 1/1/1
f 1/1/1 53/53/53 9/9/9
f 45/45/45 3/3/3 4/4/4
f 45/45/45 46/46/46 3/3/3
f 50/50/50 48/48/48 45/45/45
f 50/50/50 51/51/51 48/48/48
f 10/10/10 49/49/49 50/50/50
f 10/10/10 11/11/11 49/49/49
f 45/45/45 4/4/4 50/50/50
f 50/50/50 4/4/4 10/10/10
f 66/66/66 44/44/44 41/41/41
f 66/66/66 67/67/67 44/44/44
f 18/18/18 65/65/65 66/66/66
f 18/18/18 19/19/19 65/65/65
f 2/2/2 17/17/17 18/18/18
f 2/2/2 3/3/3 17/17/17
f 41/41/41 2/2/2 66/66/66
f 66/66/66 2/2/2 18/18/18
f 57/57/57 20/20/20 17/17/17
f 57/57/57 58/58/58 20/20/20
f 46/46/46 60/60/60 57/57/57
f 46/46/46 47/47/47 60/60/60
f 46/46/46 57/57/57 3/3/3
f 3/3/3 57/57/57 17/17/17
f 25/25/25 11/11/11 12/12/12
f 25/25/25 26/26/26 11/11/11
f 38/38/38 28/28/28 25/25/25
f 38/38/38 39/39/39 28/28/28
f 69/69/69 37/37/37 38/38/38
f 69/69/69 70/70/70 37/37/37
f 54/54/54 72/72/72 69/69/69
f 54/54/54 55/55/55 72/72/72
f 38/38/38 25/25/25 69/69/69
f 69/69/69 25/25/25 54/54/54
f 54/54/54 25/25/25 12/12/12
f 62/62/62 52/52/52 49/49/49
f 62/62/62 63/63/63 52/52/52
f 29/29/29 61/61/61 62/62/62
f 29/29/29 30/30/30 61/61/61
f 26/26/26 32/32/32 29/29/29
f 26/26/26 27/27/27 32/32/32
f 29/29/29 62/62/62 26/26/26
f 26/26/26 62/62/62 49/49/49
f 26/26/26 49/49/49 11/11/11
f 70/70/70 68/68/68 65/65/65
f 70/70/70 71/71/71 68/68/68
f 34/34/34 40/40/40 37/37/37
f 34/34/34 35/35/35 40/40/40
f 19/19/19 33/33/33 34/34/34
f 19/19/19 20/20/20 33/33/33
f 37/37/37 70/70/70 34/34/34
f 34/34/34 70/70/70 65/65/65
f 34/34/34 65/65/65 19/19/19
f 30/30/30 36/36/36 33/33/33
f 30/30/30 31/31/31 36/36/36
f 58/58/58 64/64/64 61/61/61
f 58/58/58 59/59/59 64/64/64
f 30/30/30 33/33/33 61/61/61
f 61/61/61 33/33/33 58/58/58
f 58/58/58 33/33/33 20/20/20
f 5/5/5 27/27/27 28/28/28
f 5/5/5 6/6/6 27/27/27
f 39/39/39 8/8/8 5/5/5
f 39/39/39 40/40/40 8/8/8
f 5/5/5 28/28/28 39/39/39
f 6/6/6 31/31/31 32/32/32
f 6/6/6 7/7/7 31/31/31
f 27/27/27 6/6/6 32/32/32
f 35/35/35 7/7/7 8/8/8
f 35/35/35 36/36/36 7/7/7
f 35/35/35 8/8/8 40/40/40
f 31/31/31 7/7/7 36/36/36
f 43/43/43 21/21/21 22/22/22
f 43/43/43 44/44/44 21/21/21
f 22/22/22 55/55/55 56/56/56
f 22/22/22 23/23/23 55/55/55
f 43/43/43 22/22/22 56/56/56
f 13/13/13 47/47/47 48/48/48
f 13/13/13 14/14/14 47/47/47
f 51/51/51 16/16/16 13/13/13
f 51/51/51 52/52/52 16/16/16
f 13/13/13 48/48/48 51/51/51
f 67/67/67 24/24/24 21/21/21
f 67/67/67 68/68/68 24/24/24
f 21/21/21 44/44/44 67/67/67
f 14/14/14 59/59/59 60/60/60
f 14/14/14 15/15/15 59/59/59
f 47/47/47 14/14/14 60/60/60
f 23/23/23 71/71/71 72/72/72
f 23/23/23 24/24/24 71/71/71
f 55/55/55 23/23/23 72/72/72
f 63/63/63 15/15/15 16/16/16
f 63/63/63 64/64/64 15/15/15
f 63/63/63 16/16/16 52/52/52
f 71/71/71 24/24/24 68/68/68
f 59/59/59 15/15/15 64/64/64
f 73/73/73 75/75/75 74/74/74
f 75/75/75 73/73/73 76/76/76
f 77/77/77 79/79/79 78/78/78
f 79/79/79 77/77/77 80/80/80
f 81/81/81 83/83/83 82/82/82
f 83/83/83 81/81/81 84/84/84
f 85/85/85 87/87/87 86/86/86
f 87/87/87 85/85/85 88/88/88
f 89/89/89 91/91/91 90/90/90
f 91/91/91 89/89/89 92/92/92
f 93/93/93 95/95/95 94/94/94
f 95/95/95 93/93/93 96/96/96
f 97/97/97 99/99/99 98/98/98
f 99/99/99 97/97/97 100/100/100
f 101/101/101 103/103/103 102/102/102
f 103/103/103 101/101/101 104/104/104
f 105/105/105 107/107/107 106/106/106
f 107/107/107 105/105/105 108/108/108
f 109/109/109 111/111/111 110/110/110
f 111/111/111 109/109/109 112/112/112
f 113/113/113 115/115/115 114/114/114
f 115/115/115 113/113/113 116/116/116
f 117/117/117 119/119/119 118/118/118
f 119/119/119 117/117/117 120/120/120
f 121/121/121 123/123/123 122/122/122
f 123/123/123 121/121/121 124/124/124
f 125/125/125 127/127/127 126/126/126
f 127/127/127 125/125/125 128/128/128
f 129/129/129 131/131/131 130/130/130
f 131/131/131 129/129/129 132/132/132
f 133/133/133 135/135/135 134/134/134
f 135/135/135 133/133/133 136/136/136
f 137/137/137 139/139/139 138/138/138
f 139/139/139 137/137/137 140/140/140
f 141/141/141 143/143/143 142/142/142
f 143/143/143 141/141/141 144/144/144
f 73/73/73 113/113/113 114/114/114
f 73/73/73 74/74/74 113/113/113
f 81/81/81 76/76/76 73/73/73
f 81/81/81 82/82/82 76/76/76
f 125/125/125 84/84/84 81/81/81
f 125/125/125 126/126/126 84/84/84
f 114/114/114 128/128/128 125/125/125
f 114/114/114 115/115/115 128/128/128
f 114/114/114 125/125/125 73/73/73
f 73/73/73 125/125/125 81/81/81
f 117/117/117 75/75/75 76/76/76
f 117/117/117 118/118/118 75/75/75
f 122/122/122 120/120/120 117/117/117
f 122/122/122 123/123/123 120/120/120
f 82/82/82 121/121/121 122/122/122
f 82/82/82 83/83/83 121/121/121
f 117/117/117 76/76/76 122/122/122
f 122/122/122 76/76/76 82/82/82
f 138/138/138 116/116/116 113/113/113
f 138/138/138 139/139/139 116/116/116
f 90/90/90 137/137/137 138/138/138
f 90/90/90 91/91/91 137/137/137
f 74/74/74 89/89/89 90/90/90
f 74/74/74 75/75/75 89/89/89
f 113/113/113 74/74/74 138/138/138
f 138/138/138 74/74/74 90/90/90
f 129/129/129 92/92/92 89/89/89
f 129/129/129 130/130/130 92/92/92
f 118/118/118 132/132/132 129/129/129
f 118/118/118 119/119/119 132/132/132
f 118/118/118 129/129/129 75/75/75
f 75/75/75 129/129/129 89/89/89
f 97/97/97 83/83/83 84/84/84
f 97/97/97 98/98/98 83/83/83
f 110/110/110 100/100/100 97/97/97
f 110/110/110 111/111/111 100/100/100
f 141/141/141 109/109/109 110/110/110
f 141/141/141 142/142/142 109/109/109
f 126/126/126 144/144/144 141/141/141
f 126/126/126 127/127/127 144/144/144
f 110/110/110 97/97/97 141/141/141
f 141/141/141 97/97/97 126/126/126
f 126/126/126 97/97/97 84/84/84
f 134/134/134 124/124/124 121/121/121
f 134/134/134 135/135/135 124/124/124
f 101/101/101 133/133/133 134/134/134
f 101/101/101 102/102/102 133/133/133
f 98/98/98 104/104/104 101/101/101
f 98/98/98 99/99/99 104/104/104
f 101/101/101 134/134/134 98/98/98
f 98/98/98 134/134/134 121/121/121
f 98/98/98 121/121/121 83/83/83
f 142/142/142 140/140/140 137/137/137
f 142/142/142 143/143/143 140/140/140
f 106/106/106 112/112/112 109/109/109
f 106/106/106 107/107/107 112/112/112
f 91/91/91 105/105/105 106/106/106
f 91/91/91 92/92/92 105/105/105
f 109/109/109 142/142/142 106/106/106
f 106/106/106 142/142/142 137/137/137
f 106/106/106 137/137/137 91/91/91
f 102/102/102 108/108/108 105/105/105
f 102/102/102 103/103/103 108/108/108
f 130/130/130 136/136/136 133/133/133
f 130/130/130 131/131/131 136/136/136
f 102/102/102 105/105/105 133/133/133
f 133/133/133 105/105/105 130/130/130
f 130/130/130 105/105/105 92/92/92
f 77/77/77 99/99/99 100/100/100
f 77/77/77 78/78/78 99/99/99
f 111/111/111 80/80/80 77/77/77
f 111/111/111 112/112/112 80/80/80
f 77/77/77 100/100/100 111/111/111
f 78/78/78 103/103/103 104/104/104
f 78/78/78 79/79/79 103/103/103
f 99/99/99 78/78/78 104/104/104
f 107/107/107 79/79/79 80/80/80
f 107/107/107 108/108/108 79/79/79
f 107/107/107 80/80/80 112/112/112
f 103/103/103 79/79/79 108/108/108
f 115/115/115 93/93/93 94/94/94
f 115/115/115 116/116/116 93/93/93
f 94/94/94 127/127/127 128/128/128
f 94/94/94 95/95/95 127/127/127
f 115/115/115 94/94/94 128/128/128
f 85/85/85 119/119/119 120/120/120
f 85/85/85 86/86/86 119/119/119
f 123/123/123 88/88/88 85/85/85
f 123/123/123 124/124/124 88/88/88
f 85/85/85 120/120/120 123/123/123
f 139/139/139 96/96/96 93/93/93
f 139/139/139 140/140/140 96/96/96
f 93/93/93 116/116/116 139/139/139
f 86/86/86 131/131/131 132/132/132
f 86/86/86 87/87/87 131/131/131
f 119/119/119 86/86/86 132/132/132
f 95/95/95 143/143/143 144/144/144
f 95/95/95 96/96/96 143/143/143
f 127/127/127 95/95/95 144/144/144
f 135/135/135 87/87/87 88/88/88
f 135/135/135 136/136/136 87/87/87
f 135/135/135 88/88/88 124/124/124
f 143/143/143 96/96/96 140/140/140
f 131/131/131 87/87/87 136/136/136
f 145/145/145 147/147/147 146/146/146
f 147/147/147 145/145/145 148/148/148
f 149/149/149 151/151/151 150/150/150
f 151/151/151 149/149/149 152/152/152
f 153/153/153 155/155/155 154/154/154
f 155/155/155 153/153/153 156/156/156
f 157/157/157 159/159/159 158/158/158
f 159/159/159 157/157/157 160/160/160
f 161/161/161 163/163/163 162/162/162
f 163/163/163 161/161/161 164/164/164
f 165/165/165 167/167/167 166/166/166
f 167/167/167 165/165/165 168/168/168
f 169/169/169 171/171/171 170/170/170
f 171/171/171 169/169/169 172/172/172
f 173/173/173 175/175/175 174/174/174
f 175/175/175 173/173/173 176/176/176
f 177/177/177 179/179/179 178/178/178
f 179/179/179 177/177/177 180/180/180
f 181/181/181 183/183/183 182/182/182
f 183/183/183 181/181/181 184/184/184
f 185/185/185 187/187/187 186/186/186
f 187/187/187 185/185/185 188/188/188
f 189/189/189 191/191/191 190/190/190
f 191/191/191 189/189/189 192/192/192
f 193/193/193 195/195/195 194/194/194
f 195/195/195 193/193/193 196/196/196
f 197/197/197 199/199/199 198/198/198
f 199/199/199 197/197/197 200/200/200
f 201/201/201 203/203/203 202/202/202
f 203/203/203 201/201/201 204/204/204
f 205/205/205 207/207/207 206/206/206
f 207/207/207 205/205/205 208/208/208
f 209/209/209 211/211/211 210/210/210
f 211/211/211 209/209/209 212/212/212
f 213/213/213 215/215/215 214/214/214
f 215/215/215 213/213/213 216/216/216
f 145/145/145 185/185/185 186/186/186
f 145/145/145 146/146/146 185/185/185
f 153/153/153 148/148/148 145/145/145
f 153/153/153 154/154/154 148/148/148
f 197/197/197 156/156/156 153/153/153
f 197/197/197 198/198/198 156/156/156
f 186/186/186 200/200/200 197/197/197
f 186/186/186 187/187/187 200/200/200
f 186/186/186 197/197/197 145/145/145
f 145/145/145 197/197/197 153/153/153
f 189/189/189 147/147/147 148/148/148
f 189/189/189 190/190/190 147/147/147
f 194/194/194 192/192/192 189/189/189
f 194/194/194 195/195/195 192/192/192
f 154/154/154 193/193/193 194/194/194
f 154/154/154 155/155/155 193/193/193
f 189/189/189 148/148/148 194/194/194
f 194/194/194 148/148/148 154/154/154
f 210/210/210 188/188/188 185/185/185
f 210/210/210 211/211/211 188/188/188
f 162/162/162 209/209/209 210/210/210
f 162/162/162 163/163/163 209/209/209
f 146/146/146 161/161/161 162/162/162
f 146/146/146 147/147/147 161/161/161
f 185/185/185 146/146/146 210/210/210
f 210/210/210 146/146/146 162/162/162
f 201/201/201 164/164/164 161/161/161
f 201/201/201 202/202/202 164/164/164
f 190/190/190 204/204/204 201/201/201
f 190/190/190 191/191/191 204/204/204
f 190/190/190 201/201/201 147/147/147
f 147/147/147 201/201/201 161/161/161
f 169/169/169 155/155/155 156/156/156
f 169/169/169 170/170/170 155/155/155
f 182/182/182 172/172/172 169/169/169
f 182/182/182 183/183/183 172/172/172
f 213/213/213 181/181/181 182/182/182
f 213/213/213 214/214/214 181/181/181
f 198/198/198 216/216/216 213/213/213
f 198/198/198 199/199/199 216/216/216
f 182/182/182 169/169/169 213/213/213
f 213/213/213 169/169/169 198/198/198
f 198/198/198 169/169/169 156/156/156
f 206/206/206 196/196/196 193/193/193
f 206/206/206 207/207/207 196/196/196
f 173/173/173 205/205/205 206/206/206
f 173/173/173 174/174/174 205/205/205
f 170/170/170 176/176/176 173/173/173
f 170/170/170 171/171/171 176/176/176
f 173/173/173 206/206/206 170/170/170
f 170/170/170 206/206/206 193/193/193
f 170/170/170 193/193/193 155/155/155
f 214/214/214 212/212/212 209/209/209
f 214/214/214 215/215/215 212/212/212
f 178/178/178 184/184/184 181/181/181
f 178/178/178 179/179/179 184/184/184
f 163/163/163 177/177/177 178/178/178
f 163/163/163 164/164/164 177/177/177
f 181/181/181 214/214/214 178/178/178
f 178/178/178 214/214/214 209/209/209
f 178/178/178 209/209/209 163/163/163
f 174/174/174 180/180/180 177/177/177
f 174/174/174 175/175/175 180/180/180
f 202/202/202 208/208/208 205/205/205
f 202/202/202 203/203/203 208/208/208
f 174/174/174 177/177/177 205/205/205
f 205/205/205 177/177/177 202/202/202
f 202/202/202 177/177/177 164/164/164
f 149/149/149 171/171/171 172/172/172
f 149/149/149 150/150/150 171/171/171
f 183/183/183 152/152/152 149/149/149
f 183/183/183 184/184/184 152/152/152
f 149/149/149 172/172/172 183/183/183
f 150/150/150 175/175/175 176/176/176
f 150/150/150 151/151/151 175/175/175
f 171/171/171 150/150/150 176/176/176
f 179/179/179 151/151/151 152/152/152
f 179/179/179 180/180/180 151/151/151
f 179/179/179 152/152/152 184/184/184
f 175/175/175 151/151/151 180/180/180
f 187/187/187 165/165/165 166/166/166
f 187/187/187 188/188/188 165/165/165
f 166/166/166 199/199/199 200/200/200
f 166/166/166 167/167/167 199/199/199
f 187/187/187 166/166/166 200/200/200
f 157/157/157 191/191/191 192/192/192
f 157/157/157 158/158/158 191/191/191
f 195/195/195 160/160/160 157/157/157
f 195/195/195 196/196/196 160/160/160
f 157/157/157 192/192/192 195/195/195
f 211/211/211 168/168/168 165/165/165
f 211/211/211 212/212/212 168/168/168
f 165/165/165 188/188/188 211/211/211
f 158/158/158 203/203/203 204/204/204
f 158/158/158 159/159/159 203/203/203
f 191/191/191 158/158/158 204/204/204
f 167/167/167 215/215/215 216/216/216
f 167/167/167 168/168/168 215/215/215
f 199/199/199 167/167/167 216/216/216
f 207/207/207 159/159/159 160/160/160
f 207/207/207 208/208/208 159/159/159
f 207/207/207 160/160/160 196/196/196
f 215/215/215 168/168/168 212/212/212
f 203/203/203 159/159/159 208/208/208
f 217/217/217 219/219/219 218/218/218
f 219/219/219 217/217/217 220/220/220
f 221/221/221 223/223/223 222/222/222
f 223/223/223 221/221/221 224/224/224
f 225/225/225 227/227/227 226/226/226
f 227/227/227 225/225/225 228/228/228
f 229/229/229 231/231/231 230/230/230
f 231/231/231 229/229/229 232/232/232
f 233/233/233 235/235/235 234/234/234
f 235/235/235 233/233/233 236/236/236
f 237/237/237 239/239/239 238/238/238
f 239/239/239 237/237/237 240/240/240
f 241/241/241 243/243/243 242/242/242
f 243/243/243 241/241/241 244/244/244
f 245/245/245 247/247/247 246/246/246
f 247/247/247 245/245/245 248/248/248
f 249/249/249 251/251/251 250/250/250
f 251/251/251 249/249/249 252/252/252
f 253/253/253 255/255/255 254/254/254
f 255/255/255 253/253/253 256/256/256
f 257/257/257 259/259/259 258/258/258
f 259/259/259 257/257/257 260/260/260
f 261/261/261 263/263/263 262/262/262
f 263/263/263 261/261/261 264/264/264
f 265/265/265 267/267/267 266/266/266
f 267/267/267 265/265/265 268/268/268
f 269/269/269 271/271/271 270/270/270
f 271/271/271 269/269/269 272/272/272
f 273/273/273 275/275/275 274/274/274
f 275/275/275 273/273/273 276/276/276
f 277/277/277 279/279/279 278/278/278
f 279/279/279 277/277/277 280/280/280
f 281/281/281 283/283/283 282/282/282
f 283/283/283 281/281/281 284/284/284
f 285/285/285 287/287/287 286/286/286
f 287/287/287 285/285/285 288/288/288
f 217/217/217 257/257/257 258/258/258
f 217/217/217 218/218/218 257/257/257
f 225/225/225 220/220/220 217/217/217
f 225/225/225 226/226/226 220/220/220
f 269/269/269 228/228/228 225/225/225
f 269/269/269 270/270/270 228/228/228
f 258/258/258 272/272/272 269/269/269
f 258/258/258 259/259/259 272/272/272
f 258/258/258 269/269/269 217/217/217
f 217/217/217 269/269/269 225/225/225
f 261/261/261 219/219/219 220/220/220
f 261/261/261 262/262/262 219/219/219
f 266/266/266 264/264/264 261/261/261
f 266/266/266 267/267/267 264/264/264
f 226/226/226 265/265/265 266/266/266
f 226/226/226 227/227/227 265/265/265
f 261/261/261 220/220/220 266/266/266
f 266/266/266 220/220/220 226/226/226
f 282/282/282 260/260/260 257/257/257
f 282/282/282 283/283/283 260/260/260
f 234/234/234 281/281/281 282/282/282
f 234/234/234 235/235/235 281/281/281
f 218/218/218 233/233/233 234/234/234
f 218/218/218 219/219/219 233/233/233
f 257/257/257 218/218/218 282/282/282
f 282/282/282 218/218/218 234/234/234
f 273/273/273 236/236/236 233/233/233
f 273/273/273 274/274/274 236/236/236
f 262/262/262 276/276/276 273/273/273
f 262/262/262 263/263/263 276/276/276
f 262/262/262 273/273/273 219/219/219
f 219/219/219 273/273/273 233/233/233
f 241/241/241 227/227/227 228/228/228
f 241/241/241 242/242/242 227/227/227
f 254/254/254 244/244/244 241/241/241
f 254/254/254 255/255/255 244/244/244
f 285/285/285 253/253/253 254/254/254
f 285/285/285 286/286/286 253/253/253
f 270/270/270 288/288/288 285/285/285
f 270/270/270 271/271/271 288/288/288
f 254/254/254 241/241/241 285/285/285
f 285/285/285 241/241/241 270/270/270
f 270/270/270 241/241/241 228/228/228
f 278/278/278 268/268/268 265/265/265
f 278/278/278 279/279/279 268/268/268
f 245/245/245 277/277/277 278/278/278
f 245/245/245 246/246/246 277/277/277
f 242/242/242 248/248/248 245/245/245
f 242/242/242 243/243/243 248/248/248
f 245/245/245 278/278/278 242/242/242
f 242/242/242 278/278/278 265/265/265
f 242/242/242 265/265/265 227/227/227
f 286/286/286 284/284/284 281/281/281
f 286/286/286 287/287/287 284/284/284
f 250/250/250 256/256/256 253/253/253
f 250/250/250 251/251/251 256/256/256
f 235/235/235 249/249/249 250/250/250
f 235/235/235 236/236/236 249/249/249
f 253/253/253 286/286/286 250/250/250
f 250/250/250 286/286/286 281/281/281
f 250/250/250 281/281/281 235/235/235
f 246/246/246 252/252/252 249/249/249
f 246/246/246 247/247/247 252/252/252
f 274/274/274 280/280/280 277/277/277
f 274/274/274 275/275/275 280/280/280
f 246/246/246 249/249/249 277/277/277
f 277/277/277 249/249/249 274/274/274
f 274/274/274 249/249/249 236/236/236
f 221/221/221 243/243/243 244/244/244
f 221/221/221 222/222/222 243/243/243
f 255/255/255 224/224/224 221/221/221
f 255/255/255 256/256/256 224/224/224
f 221/221/221 244/244/244 255/255/255
f 222/222/222 247/247/247 248/248/248
f 222/222/222 223/223/223 247/247/247
f 243/243/243 222/222/222 248/248/248
f 251/251/251 223/223/223 224/224/224
f 251/251/251 252/252/252 223/223/223
f 251/251/251 224/224/224 256/256/256
f 247/247/247 223/223/223 252/252/252
f 259/259/259 237/237/237 238/238/238
f 259/259/259 260/260/260 237/237/237
f 238/238/238 271/271/271 272/272/272
f 238/238/238 239/239/239 271/271/271
f 259/259/259 238/238/238 272/272/272
f 229/229/229 263/263/263 264/264/264
f 229/229/229 230/230/230 263/263/263
f 267/267/267 232/232/232 229/229/229
f 267/267/267 268/268/268 232/232/232
f 229/229/229 264/264/264 267/267/267
f 283/283/283 240/240/240 237/237/237
f 283/283/283 284/284/284 240/240/240
f 237/237/237 260/260/260 283/283/283
f 230/230/230 275/275/275 276/276/276
f 230/230/230 231/231/231 275/275/275
f 263/263/263 230/230/230 276/276/276
f 239/239/239 287/287/287 288/288/288
f 239/239/239 240/240/240 287/287/287
f 271/271/271 239/239/239 288/288/288
f 279/279/279 231/231/231 232/232/232
f 279/279/279 280/280/280 231/231/231
f 279/279/279 232/232/232 268/268/268
f 287/287/287 240/240/240 284/284/284
f 275/275/275 231/231/231 280/280/280
f 289/289/289 291/291/291 290/290/290
f 291/291/291 289/289/289 292/292/292
f 293/293/293 295/295/295 294/294/294
f 295/295/295 293/293/293 296/296/296
f 297/297/297 299/299/299 298/298/298
f 299/299/299 297/297/297 300/300/300
f 301/301/301 303/303/303 302/302/302
f 303/303/303 301/301/301 304/304/304
f 305/305/305 307/307/307 306/306/306
f 307/307/307 305/305/305 308/308/308
f 309/309/309 311/311/311 310/310/310
f 311/311/311 309/309/309 312/312/312
f 313/313/313 315/315/315 314/314/314
f 315/315/315 313/313/313 316/316/316
f 317/317/317 319/319/319 318/318/318
f 319/319/319 317/317/317 320/320/320
f 321/321/321 323/323/323 322/322/322
f 323/323/323 321/321/321 324/324/324
f 325/325/325 327/327/327 326/326/326
f 327/327/327 325/325/325 328/328/328
f 329/329/329 331/331/331 330/330/330
f 331/331/331 329/329/329 332/332/332
f 333/333/333 335/335/335 334/334/334
f 335/335/335 333/333/333 336/336/336
f 337/337/337 339/339/339 338/338/338
f 339/339/339 337/337/337 340/340/340
f 341/341/341 343/343/343 342/342/342
f 343/343/343 341/341/341 344/344/344
f 345/345/345 347/347/347 346/346/346
f 347/347/347 345/345/345 348/348/348
f 349/349/349 351/351/351 350/350/350
f 351/351/351 349/349/349 352/352/352
f 353/353/353 355/355/355 354/354/354
f 355/355/355 353/353/353 356/356/356
f 357/357/357 359/359/359 358/358/358
f 359/359/359 357/357/357 360/360/360
f 289/289/289 329/329/329 330/330/330
f 289/289/289 290/290/290 329/329/329
f 297/297/297 292/292/292 289/289/289
f 297/297/297 298/298/298 292/292/292
f 341/341/341 300/300/300 297/297/297
f 341/341/341 342/342/342 300/300/300
f 330/330/330 344/344/344 341/341/341
f 330/330/330 331/331/331 344/344/344
f 330/330/330 341/341/341 289/289/289
f 289/289/289 341/341/341 297/297/297
f 333/333/333 291/291/291 292/292/292
f 333/333/333 334/334/334 291/291/291
f 338/338/338 336/336/336 333/333/333
f 338/338/338 339/339/339 336/336/336
f 298/298/298 337/337/337 338/338/338
f 298/298/298 299/299/299 337/337/337
f 333/333/333 292/292/292 338/338/338
f 338/338/338 292/292/292 298/298/298
f 354/354/354 332/332/332 329/329/329
f 354/354/354 355/355/355 332/332/332
f 306/306/306 353/353/353 354/354/354
f 306/306/306 307/307/307 353/353/353
f 290/290/290 305/305/305 306/306/306
f 290/290/290 291/291/291 305/305/305
f 329/329/329 290/290/290 354/354/354
f 354/354/354 290/290/290 306/306/306
f 345/345/345 308/308/308 305/305/305
f 345/345/345 346/346/346 308/308/308
f 334/334/334 348/348/348 345/345/345
f 334/334/334 335/335/335 348/348/348
f 334/334/334 345/345/345 291/291/291
f 291/291/291 345/345/345 305/305/305
f 313/313/313 299/299/299 300/300/300
f 313/313/313 314/314/314 299/299/299
f 326/326/326 316/316/316 313/313/313
f 326/326/326 327/327/327 316/316/316
f 357/357/357 325/325/325 326/326/326
f 357/357/357 358/358/358 325/325/325
f 342/342/342 360/360/360 357/357/357
f 342/342/342 343/343/343 360/360/360
f 326/326/326 313/313/313 357/357/357
f 357/357/357 313/313/313 342/342/342
f 342/342/342 313/313/313 300/300/300
f 350/350/350 340/340/340 337/337/337
f 350/350/350 351/351/351 340/340/340
f 317/317/317 349/349/349 350/350/350
f 317/317/317 318/318/318 349/349/349
f 314/314/314 320/320/320 317/317/317
f 314/314/314 315/315/315 320/320/320
f 317/317/317 350/350/350 314/314/314
f 314/314/314 350/350/350 337/337/337
f 314/314/314 337/337/337 299/299/299
f 358/358/358 356/356/356 353/353/353
f 358/358/358 359/359/359 356/356/356
f 322/322/322 328/328/328 325/325/325
f 322/322/322 323/323/323 328/328/328
f 307/307/307 321/321/321 322/322/322
f 307/307/307 308/308/308 321/321/321
f 325/325/325 358/358/358 322/322/322
f 322/322/322 358/358/358 353/353/353
f 322/322/322 353/353/353 307/307/307
f 318/318/318 324/324/324 321/321/321
f 318/318/318 319/319/319 324/324/324
f 346/346/346 352/352/352 349/349/349
f 346/346/346 347/347/347 352/352/352
f 318/318/318 321/321/321 349/349/349
f 349/349/349 321/321/321 346/346/346
f 346/346/346 321/321/321 308/308/308
f 293/293/293 315/315/315 316/316/316
f 293/293/293 294/294/294 315/315/315
f 327/327/327 296/296/296 293/293/293
f 327/327/327 328/328/328 296/296/296
f 293/293/293 316/316/316 327/327/327
f 294/294/294 319/319/319 320/320/320
f 294/294/294 295/295/295 319/319/319
f 315/315/315 294/294/294 320/320/320
f 323/323/323 295/295/295 296/296/296
f 323/323/323 324/324/324 295/295/295
f 323/323/323 296/296/296 328/328/328
f 319/319/319 295/295/295 324/324/324
f 331/331/331 309/309/309 310/310/310
f 331/331/331 332/332/332 309/309/309
f 310/310/310 343/343/343 344/344/344
f 310/310/310 311/311/311 343/343/343
f 331/331/331 310/310/310 344/344/344
f 301/301/301 335/335/335 336/336/336
f 301/301/301 302/302/302 335/335/335
f 339/339/339 304/304/304 301/301/301
f 339/339/339 340/340/340 304/304/304
f 301/301/301 336/336/336 339/339/339
f 355/355/355 312/312/312 309/309/309
f 355/355/355 356/356/356 312/312/312
f 309/309/309 332/332/332 355/355/355
f 302/302/302 347/347/347 348/348/348
f 302/302/302 303/303/303 347/347/347
f 335/335/335 302/302/302 348/348/348
f 311/311/311 359/359/359 360/360/360
f 311/311/311 312/312/312 359/359/359
f 343/343/343 311/311/311 360/360/360
f 351/351/351 303/303/303 304/304/304
f 351/351/351 352/352/352 303/303/303
f 351/351/351 304/304/304 340/340/340
f 359/359/359 312/312/312 356/356/356
f 347/347/347 303/303/303 352/352/352
