# ElfWizard01.bmd — MU geometry at action 0 key 0, exported for MU2
# 4 mesh(es)

g hpp
# texture: hpp.jpg
v -6.0436 9.836 93.23054
v -6.043602 9.836 62.25744
v -31.8181 9.836 62.25744
v -31.8181 9.836 93.23055
v -6.0436 0 93.23054
v -6.0436 0 51.64604
v -6.043602 9.836 62.25744
v -6.0436 9.836 93.23054
v -31.8181 0 51.64604
v -31.8181 0 93.23055
v -31.8181 9.836 93.23055
v -31.8181 9.836 62.25744
v -18.9309 9.836 104.1215
v -6.0436 0 93.23054
v -6.0436 9.836 93.23054
v -18.9309 9.836 104.1215
v -18.9309 0 104.1215
v -31.8181 9.836 93.23055
v -31.8181 0 93.23055
v -18.9309 0 104.1215
v -18.9309 9.836 104.1215
v -31.8181 9.836 62.25744
v -6.043602 9.836 62.25744
v -15.86191 116.3257 -14.10476
v -21.99981 116.3257 -14.10476
v -6.0436 0 51.64604
v -31.8181 0 51.64604
v -21.9998 116.3257 -19.85806
v -15.86191 116.3257 -19.85806
v -6.043602 9.836 62.25744
v -6.0436 0 51.64604
v -15.86191 116.3257 -19.85806
v -15.86191 116.3257 -19.85806
v -15.86191 116.3257 -14.10476
v -6.043602 9.836 62.25744
v -31.8181 0 51.64604
v -31.8181 9.836 62.25744
v -21.99981 116.3257 -14.10476
v -21.99981 116.3257 -14.10476
v -21.9998 116.3257 -19.85806
v -31.8181 0 51.64604
v -21.99981 116.3257 -14.10476
v -15.86191 116.3257 -14.10476
v -15.86191 126.7855 -13.16246
v -21.99981 126.7855 -13.16246
v -15.86191 116.3257 -14.10476
v -15.86191 116.3257 -19.85806
v -15.8619 130.5403 -19.11885
v -15.86191 126.7855 -13.16246
v -15.86191 116.3257 -19.85806
v -21.9998 116.3257 -19.85806
v -21.9998 130.5403 -19.11886
v -15.8619 130.5403 -19.11885
v -21.9998 116.3257 -19.85806
v -21.99981 116.3257 -14.10476
v -21.99981 126.7855 -13.16246
v -21.9998 130.5403 -19.11886
v -15.86191 136.6164 -3.929649
v -15.86191 129.277 -3.081657
v -21.9998 136.6164 -3.929649
v -15.86191 136.6164 -3.929649
v -21.9998 129.277 -3.081657
v -21.9998 136.6164 -3.929649
v -21.9998 129.277 -3.081657
v -15.86191 129.277 -3.081657
v -15.86191 120.8203 10.21984
v -21.99981 120.8203 10.21983
v -15.86191 128.1597 9.371841
v -15.86191 120.8203 10.21984
v -21.99981 128.1597 9.371841
v -15.86191 128.1597 9.371841
v -21.99981 120.8203 10.21983
v -21.99981 128.1597 9.371841
v -15.8619 131.523 20.93485
v -15.8619 125.7848 23.41834
v -21.9998 131.523 20.93484
v -15.8619 131.523 20.93485
v -21.99981 128.1597 9.371841
v -21.99981 120.8203 10.21983
v -21.99981 125.7848 23.41833
v -21.9998 131.523 20.93484
v -21.99981 125.7848 23.41833
v -15.8619 125.7848 23.41834
v -15.8619 151.551 46.96694
v -21.9998 151.551 46.96695
v -15.8619 169.6619 39.34585
v -15.8619 151.551 46.96694
v -21.9998 169.6619 39.34584
v -15.8619 169.6619 39.34585
v -21.9998 131.523 20.93484
v -21.99981 125.7848 23.41833
v -21.9998 151.551 46.96695
v -21.9998 169.6619 39.34584
v -15.8619 181.9683 59.31424
v -15.8619 156.6561 63.70255
v -21.9998 181.9683 59.31424
v -15.8619 181.9683 59.31424
v -21.9998 156.6561 63.70254
v -21.9998 181.9683 59.31424
v -15.8619 183.0203 79.52194
v -15.8619 152.3094 79.65494
v -21.9998 183.0203 79.52194
v -15.8619 183.0203 79.52194
v -21.9998 152.3094 79.65494
v -21.9998 183.0203 79.52194
v -23.7534 24.1868 70.49484
v -14.1966 24.1868 70.49484
v -17.8371 97.628 17.83125
v -20.1129 97.628 17.83125
v -25.6306 9.836 62.25744
v -11.7733 9.836 62.25744
v -14.1966 24.1868 70.49484
v -23.7534 24.1868 70.49484
v -11.7733 9.836 62.25744
v -17.05201 116.3257 -14.10476
v -17.8371 97.628 17.83125
v -14.1966 24.1868 70.49484
v -17.05201 116.3257 -14.10476
v -20.35201 116.3257 -14.10476
v -20.1129 97.628 17.83125
v -17.8371 97.628 17.83125
v -20.35201 116.3257 -14.10476
v -25.6306 9.836 62.25744
v -23.7534 24.1868 70.49484
v -20.1129 97.628 17.83125
v -18.1838 144.5656 74.85274
v -26.8697 154.3509 81.53904
v -18.1838 154.3509 72.24514
v -24.4327 144.5656 81.53904
v -18.1838 154.3509 90.83295
v -18.1838 144.5656 88.22534
v -9.4979 154.3509 81.53904
v -11.935 144.5656 81.53904
v -18.1838 192.0637 81.53904
v -18.1838 186.9361 70.50194
v -28.4989 186.9361 81.53904
v -18.1838 186.9361 92.57614
v -7.868799 186.9361 81.53904
v -24.1022 170.5365 81.53904
v -18.1838 170.5365 75.20644
v -18.1838 170.5365 87.87164
v -12.2655 170.5365 81.53904
v -18.1838 119.8761 77.36014
v -22.0893 119.8761 81.53904
v -18.1838 119.8761 85.71794
v -14.2783 119.8761 81.53904
v -18.1838 55.0546 77.36014
v -22.0893 55.0546 81.53904
v -18.1838 55.0546 85.71794
v -14.2783 55.0546 81.53904
v -18.1838 41.5502 75.39604
v -23.9249 41.5502 81.53904
v -18.1838 41.5502 87.68204
v -12.4427 41.5502 81.53904
v -18.1838 9.1395 75.39604
v -23.9249 9.1395 81.53904
v -18.1838 9.1395 87.68204
v -12.4427 9.1395 81.53904
v -11.8035 18.375 63.30404
v -11.8035 18.375 62.70394
v -15.9936 163.4736 62.70394
v -15.9936 163.4736 63.30404
v -11.8035 25.1291 58.99064
v -11.8035 25.1291 58.39064
v -15.9936 160.6264 58.39064
v -15.9936 160.6264 58.99064
v -11.8035 32.4291 53.78034
v -11.8035 32.4291 53.18034
v -15.9936 157.7828 53.18034
v -15.9936 157.7828 53.78034
v -11.8035 38.6116 48.89264
v -11.8035 38.6116 48.29264
v -15.9936 155.774 48.29264
v -15.9936 155.774 48.89264
v -11.8035 43.1237 43.72274
v -11.8035 43.1237 43.12265
v -15.9936 152.6593 43.12264
v -15.9936 152.6593 43.72274
v -11.8035 50.7439 39.04454
v -11.8035 50.7439 38.44454
v -15.9936 149.2139 38.44454
v -15.9936 149.2139 39.04454
v -11.8035 56.6267 33.87534
v -11.8035 56.6267 33.27524
v -15.9936 144.9986 33.27524
v -15.9936 144.9986 33.87534
v -11.8035 64.4423 29.58994
v -11.8035 64.4423 28.98984
v -15.9936 139.68 28.98985
v -15.99361 139.68 29.58994
v -11.8035 71.1396 24.83154
v -11.8035 71.1396 24.23144
v -15.9936 132.7052 24.23145
v -15.9936 132.7052 24.83154
v -11.8035 76.4431 20.34944
v -11.8035 76.4431 19.74934
v -15.9936 127.6789 19.74934
v -15.9936 127.6789 20.34945
vn 0 1 -0
vn 0 1 -0
vn 0 1 -0
vn 0 1 -0
vn 1 0 -0
vn 1 0 -0
vn 1 0 -0
vn 1 0 -0
vn -1 0 0
vn -1 0 0
vn -1 0 0
vn -1 0 0
vn 0 1 -0
vn 0.619781 0 0.784775
vn 0.619781 0 0.784775
vn 0.619781 0 0.784775
vn 0.619781 0 0.784775
vn -0.61978 0 0.784775
vn -0.61978 0 0.784775
vn -0.61978 0 0.784775
vn -0.61978 0 0.784775
vn 0 0.629828 0.776735
vn 0 0.629828 0.776735
vn 0 0.629828 0.776735
vn 0 0.629828 0.776735
vn -0 -0.570795 -0.821093
vn -0 -0.570795 -0.821093
vn -0 -0.379412 -0.925228
vn -0 -0.158899 -0.987295
vn 0.996485 0.064799 -0.053099
vn 0.996485 0.064799 -0.053099
vn 0.996485 0.064799 -0.053099
vn 0.993831 0.110904 -0
vn 0.993831 0.110904 -0
vn 0.993831 0.110904 -0
vn -0.996266 0.066798 -0.054698
vn -0.996266 0.066798 -0.054698
vn -0.996266 0.066798 -0.054698
vn -0.994825 0.101603 -0
vn -0.994825 0.101603 -0
vn -0.994825 0.101603 -0
vn 0 -0.101405 0.994845
vn 0 -0.101405 0.994845
vn 0 -0.101405 0.994845
vn 0 -0.101405 0.994845
vn 1 0 -0
vn 1 0 -0
vn 1 0 -0
vn 1 0 -0
vn -0 -0.158899 -0.987295
vn -0 -0.379412 -0.925228
vn -0 0.414112 -0.910226
vn -0 0.759504 -0.650503
vn -1 0 0
vn -1 0 0
vn -1 0 0
vn -1 0 0
vn 1 0 -0
vn 1 0 -0
vn -0 0.99795 -0.064003
vn 0 0.972212 0.234103
vn -1 0 0
vn -1 0 0
vn -0 -0.871674 -0.490086
vn -0 -0.871674 -0.490086
vn -0 -0.871674 -0.490086
vn -0 -0.871674 -0.490086
vn 1 0 -0
vn 1 0 -0
vn 0 0.965526 0.260307
vn 0 0.999996 -0.0029
vn -1 0 0
vn -1 0 0
vn 1 0 -0
vn 1 0 -0
vn -0 0.868962 -0.494878
vn 0 0.692969 -0.720968
vn -1 0 0
vn -1 0 0
vn -1 0 0
vn -1 0 0
vn 0 -0.71866 0.695361
vn 0 -0.71866 0.695361
vn 0 -0.71866 0.695361
vn 0 -0.71866 0.695361
vn 1 0 -0
vn 1 0 -0
vn -0 0.635006 -0.772507
vn -0 0.772954 -0.634462
vn -1 0 0
vn -1 0 0
vn -1 0 0
vn -1 0 0
vn 1 0 -0
vn 1 0 -0
vn -0 0.939668 -0.342088
vn -0 0.980883 -0.194597
vn -1 0 0
vn -1 0 0
vn 1 0 -0
vn 1 0 -0
vn -0 0.998941 -0.046002
vn -0 0.998941 -0.046002
vn -1 0 0
vn -1 0 0
vn 0 0.629828 0.776735
vn 0 0.629828 0.776735
vn 0 0.629828 0.776735
vn 0 0.629828 0.776735
vn 0 -0.544482 0.838773
vn 0 -0.544482 0.838773
vn 0 -0.544482 0.838773
vn 0 -0.544482 0.838773
vn 0.985617 0.138102 0.097402
vn 0.985617 0.138102 0.097402
vn 0.985617 0.138102 0.097402
vn 0.985617 0.138102 0.097402
vn 0 0.888018 0.459809
vn 0 0.888018 0.459809
vn 0 0.888018 0.459809
vn 0 0.888018 0.459809
vn -0.991285 0.113598 0.066699
vn -0.991285 0.113598 0.066699
vn -0.991285 0.113598 0.066699
vn -0.991285 0.113598 0.066699
vn 0.0031 -0.202899 -0.979195
vn -0.998954 -0.045698 0.0019
vn -0.0019 -0.045698 -0.998954
vn -0.979195 -0.202899 -0.0031
vn 0.0019 -0.045698 0.998954
vn -0.0031 -0.202899 0.979195
vn 0.998954 -0.045698 -0.0019
vn 0.979195 -0.202899 0.0031
vn 0 1 -0
vn 0.225803 0.346905 -0.910313
vn -0.910313 0.346905 -0.225803
vn -0.225803 0.346905 0.910313
vn 0.910313 0.346905 0.225803
vn -0.998388 -0.056699 -0.0025
vn 0.0025 -0.056699 -0.998388
vn -0.0025 -0.056699 0.998388
vn 0.998388 -0.056699 0.0025
vn 0.0005 -0.057198 -0.998363
vn -0.998363 -0.057198 -0.0005
vn -0.0005 -0.057198 0.998363
vn 0.998363 -0.057198 0.0005
vn -0.0011 0.081696 -0.996657
vn -0.996657 0.081696 0.0011
vn 0.0011 0.081696 0.996657
vn 0.996657 0.081696 -0.0011
vn 0.0011 0.081696 -0.996657
vn -0.996657 0.081696 -0.0011
vn -0.0011 0.081696 0.996657
vn 0.996657 0.081696 0.0011
vn -0.316198 0 -0.948693
vn -0.948693 0 0.316198
vn 0.316198 0 0.948693
vn 0.948693 0 -0.316198
vn 0.999391 0.0349 -0
vn 0.999391 0.0349 -0
vn 0.999391 0.0349 -0
vn 0.999391 0.0349 -0
vn 0.9993 0.0374 -0
vn 0.9993 0.0374 -0
vn 0.9993 0.0374 -0
vn 0.9993 0.0374 -0
vn 0.999184 0.040399 -0
vn 0.999184 0.040399 -0
vn 0.999184 0.040399 -0
vn 0.999184 0.040399 -0
vn 0.999067 0.043199 -0
vn 0.999067 0.043199 -0
vn 0.999067 0.043199 -0
vn 0.999067 0.043199 -0
vn 0.998932 0.046201 -0
vn 0.998932 0.046201 -0
vn 0.998932 0.046201 -0
vn 0.998932 0.046201 -0
vn 0.998678 0.051399 -0
vn 0.998678 0.051399 -0
vn 0.998678 0.051399 -0
vn 0.998678 0.051399 -0
vn 0.998357 0.057298 -0
vn 0.998357 0.057298 -0
vn 0.998357 0.057298 -0
vn 0.998357 0.057298 -0
vn 0.997739 0.067203 -0
vn 0.997739 0.067203 -0
vn 0.997739 0.067203 -0
vn 0.997739 0.067203 -0
vn 0.996624 0.082102 -0
vn 0.996624 0.082102 -0
vn 0.996624 0.082102 -0
vn 0.996624 0.082102 -0
vn 0.995137 0.098504 -0
vn 0.995137 0.098504 -0
vn 0.995137 0.098504 -0
vn 0.995137 0.098504 -0
vt 0.9272 0.154
vt 0.9699 0.154
vt 0.9699 0.2712
vt 0.9272 0.2712
vt 0.0883 0.0005
vt 0.4233 0.0005
vt 0.3378 0.0517
vt 0.0883 0.0517
vt 0.4233 0.0005
vt 0.0883 0.0005
vt 0.0883 0.0517
vt 0.3378 0.0517
vt 0.8773 0.2126
vt 0.0883 0.0005
vt 0.0883 0.0517
vt 0.0005 0.0517
vt 0.0005 0.0005
vt 0.0883 0.0517
vt 0.0883 0.0005
vt 0.0005 0.0005
vt 0.0005 0.0517
vt 0.3378 0.0517
vt 0.3378 0.0517
vt 0.912 0.6056
vt 0.912 0.6056
vt 0.9868 0.0112
vt 0.8855 0.0112
vt 0.9241 0.4188
vt 0.9482 0.4188
vt 0.3378 0.0517
vt 0.4233 0.0005
vt 0.9995 0.6056
vt 0.9995 0.6056
vt 0.912 0.6056
vt 0.3378 0.0517
vt 0.4233 0.0005
vt 0.3378 0.0517
vt 0.912 0.6056
vt 0.912 0.6056
vt 0.9995 0.6056
vt 0.4233 0.0005
vt 0.912 0.6056
vt 0.912 0.6056
vt 0.9085 0.6524
vt 0.9085 0.6524
vt 0.912 0.6056
vt 0.9995 0.6056
vt 0.9977 0.6908
vt 0.9085 0.6524
vt 0.983 0.9546
vt 0.983 0.9995
vt 0.9467 0.9995
vt 0.9467 0.9546
vt 0.9995 0.6056
vt 0.912 0.6056
vt 0.9085 0.6524
vt 0.9977 0.6908
vt 0.8712 0.7111
vt 0.8684 0.6553
vt 0.8827 0.9995
vt 0.8827 0.9546
vt 0.8684 0.6553
vt 0.8712 0.7111
vt 0.8684 0.6553
vt 0.8684 0.6553
vt 0.7571 0.6302
vt 0.7571 0.6302
vt 0.7681 0.6822
vt 0.7571 0.6302
vt 0.7989 0.9995
vt 0.7989 0.9546
vt 0.7571 0.6302
vt 0.7681 0.6822
vt 0.6749 0.6997
vt 0.6426 0.656
vt 0.7261 0.9995
vt 0.7261 0.9546
vt 0.7989 0.9995
vt 0.7936 0.9995
vt 0.7105 0.9995
vt 0.7261 0.9995
vt 0.6426 0.656
vt 0.6426 0.656
vt 0.4672 0.7938
vt 0.4672 0.7938
vt 0.5327 0.8842
vt 0.4672 0.7938
vt 0.6102 0.9995
vt 0.6102 0.9546
vt 0.6749 0.6997
vt 0.6426 0.656
vt 0.4672 0.7938
vt 0.5327 0.8842
vt 0.3615 0.947
vt 0.3262 0.8153
vt 0.4845 0.9995
vt 0.4845 0.9546
vt 0.3262 0.8153
vt 0.3615 0.947
vt 0.1987 0.9525
vt 0.1976 0.7927
vt 0.3612 0.9995
vt 0.3612 0.9546
vt 0.1976 0.7927
vt 0.1987 0.9525
vt 0.1485 0.2979
vt 0.2036 0.2979
vt 0.1988 0.5312
vt 0.1534 0.5312
vt 0.3378 0.0517
vt 0.3378 0.0517
vt 0.2715 0.1263
vt 0.2715 0.1263
vt 0.3378 0.0517
vt 0.912 0.6056
vt 0.6958 0.5083
vt 0.2715 0.1263
vt 0.2144 0.6727
vt 0.1486 0.6727
vt 0.1534 0.5312
vt 0.1988 0.5312
vt 0.912 0.6056
vt 0.3378 0.0517
vt 0.2715 0.1263
vt 0.6958 0.5083
vt 0.2363 0.7524
vt 0.1825 0.8033
vt 0.2574 0.8033
vt 0.1825 0.7524
vt 0.1076 0.8033
vt 0.1286 0.7524
vt 0.1825 0.8033
vt 0.1825 0.7524
vt 0.1825 0.9995
vt 0.2714 0.9728
vt 0.1825 0.9728
vt 0.0935 0.9728
vt 0.1825 0.9728
vt 0.1825 0.8875
vt 0.2335 0.8875
vt 0.1314 0.8875
vt 0.1825 0.8875
vt 0.2161 0.624
vt 0.1825 0.624
vt 0.1488 0.624
vt 0.1825 0.624
vt 0.2161 0.2869
vt 0.1825 0.2869
vt 0.1488 0.2869
vt 0.1825 0.2869
vt 0.232 0.2166
vt 0.1825 0.2166
vt 0.133 0.2166
vt 0.1825 0.2166
vt 0.232 0.048
vt 0.1825 0.048
vt 0.133 0.048
vt 0.1825 0.048
vt 0.0221 0.3947
vt 0.0246 0.3947
vt 0.0246 0.5794
vt 0.0221 0.5794
vt 0.0236 0.4033
vt 0.0261 0.4033
vt 0.0261 0.5757
vt 0.0236 0.5757
vt 0.023 0.4126
vt 0.0256 0.4126
vt 0.0256 0.5721
vt 0.023 0.5721
vt 0.0241 0.4205
vt 0.0266 0.4205
vt 0.0266 0.5696
vt 0.0241 0.5696
vt 0.0234 0.4262
vt 0.0259 0.4262
vt 0.0259 0.5656
vt 0.0234 0.5656
vt 0.0235 0.4359
vt 0.026 0.4359
vt 0.026 0.5612
vt 0.0235 0.5612
vt 0.025 0.4434
vt 0.0275 0.4434
vt 0.0275 0.5559
vt 0.025 0.5559
vt 0.0242 0.4533
vt 0.0267 0.4533
vt 0.0267 0.5491
vt 0.0242 0.5491
vt 0.0247 0.4619
vt 0.0272 0.4619
vt 0.0272 0.5402
vt 0.0247 0.5402
vt 0.0254 0.4686
vt 0.028 0.4686
vt 0.028 0.5338
vt 0.0254 0.5338
f 1/1/1 3/3/3 2/2/2
f 3/3/3 1/1/1 4/4/4
f 5/5/5 7/7/7 6/6/6
f 7/7/7 5/5/5 8/8/8
f 9/9/9 11/11/11 10/10/10
f 11/11/11 9/9/9 12/12/12
f 1/1/1 13/13/13 4/4/4
f 14/14/14 16/16/16 15/15/15
f 16/16/16 14/14/14 17/17/17
f 18/18/18 20/20/20 19/19/19
f 20/20/20 18/18/18 21/21/21
f 22/22/22 24/24/24 23/23/23
f 24/24/24 22/22/22 25/25/25
f 26/26/26 28/28/28 27/27/27
f 28/28/28 26/26/26 29/29/29
f 30/30/30 32/32/32 31/31/31
f 33/33/33 35/35/35 34/34/34
f 36/36/36 38/38/38 37/37/37
f 39/39/39 41/41/41 40/40/40
f 42/42/42 44/44/44 43/43/43
f 44/44/44 42/42/42 45/45/45
f 46/46/46 48/48/48 47/47/47
f 48/48/48 46/46/46 49/49/49
f 50/50/50 52/52/52 51/51/51
f 52/52/52 50/50/50 53/53/53
f 54/54/54 56/56/56 55/55/55
f 56/56/56 54/54/54 57/57/57
f 49/49/49 58/58/58 48/48/48
f 58/58/58 49/49/49 59/59/59
f 53/53/53 60/60/60 52/52/52
f 60/60/60 53/53/53 61/61/61
f 57/57/57 62/62/62 56/56/56
f 62/62/62 57/57/57 63/63/63
f 64/64/64 66/66/66 65/65/65
f 66/66/66 64/64/64 67/67/67
f 59/59/59 68/68/68 58/58/58
f 68/68/68 59/59/59 69/69/69
f 61/61/61 70/70/70 60/60/60
f 70/70/70 61/61/61 71/71/71
f 63/63/63 72/72/72 62/62/62
f 72/72/72 63/63/63 73/73/73
f 69/69/69 74/74/74 68/68/68
f 74/74/74 69/69/69 75/75/75
f 71/71/71 76/76/76 70/70/70
f 76/76/76 71/71/71 77/77/77
f 78/78/78 80/80/80 79/79/79
f 80/80/80 78/78/78 81/81/81
f 82/82/82 84/84/84 83/83/83
f 84/84/84 82/82/82 85/85/85
f 75/75/75 86/86/86 74/74/74
f 86/86/86 75/75/75 87/87/87
f 77/77/77 88/88/88 76/76/76
f 88/88/88 77/77/77 89/89/89
f 90/90/90 92/92/92 91/91/91
f 92/92/92 90/90/90 93/93/93
f 87/87/87 94/94/94 86/86/86
f 94/94/94 87/87/87 95/95/95
f 89/89/89 96/96/96 88/88/88
f 96/96/96 89/89/89 97/97/97
f 93/93/93 98/98/98 92/92/92
f 98/98/98 93/93/93 99/99/99
f 95/95/95 100/100/100 94/94/94
f 100/100/100 95/95/95 101/101/101
f 97/97/97 102/102/102 96/96/96
f 102/102/102 97/97/97 103/103/103
f 99/99/99 104/104/104 98/98/98
f 104/104/104 99/99/99 105/105/105
f 106/106/106 108/108/108 107/107/107
f 108/108/108 106/106/106 109/109/109
f 110/110/110 112/112/112 111/111/111
f 112/112/112 110/110/110 113/113/113
f 114/114/114 116/116/116 115/115/115
f 116/116/116 114/114/114 117/117/117
f 118/118/118 120/120/120 119/119/119
f 120/120/120 118/118/118 121/121/121
f 122/122/122 124/124/124 123/123/123
f 124/124/124 122/122/122 125/125/125
f 126/126/126 128/128/128 127/127/127
f 126/126/126 127/127/127 129/129/129
f 129/129/129 127/127/127 130/130/130
f 129/129/129 130/130/130 131/131/131
f 131/131/131 130/130/130 132/132/132
f 131/131/131 132/132/132 133/133/133
f 133/133/133 132/132/132 128/128/128
f 133/133/133 128/128/128 126/126/126
f 134/134/134 136/136/136 135/135/135
f 134/134/134 137/137/137 136/136/136
f 134/134/134 138/138/138 137/137/137
f 134/134/134 135/135/135 138/138/138
f 128/128/128 139/139/139 127/127/127
f 139/139/139 128/128/128 140/140/140
f 127/127/127 141/141/141 130/130/130
f 141/141/141 127/127/127 139/139/139
f 130/130/130 142/142/142 132/132/132
f 142/142/142 130/130/130 141/141/141
f 132/132/132 140/140/140 128/128/128
f 140/140/140 132/132/132 142/142/142
f 140/140/140 136/136/136 139/139/139
f 136/136/136 140/140/140 135/135/135
f 139/139/139 137/137/137 141/141/141
f 137/137/137 139/139/139 136/136/136
f 141/141/141 138/138/138 142/142/142
f 138/138/138 141/141/141 137/137/137
f 142/142/142 135/135/135 140/140/140
f 135/135/135 142/142/142 138/138/138
f 129/129/129 143/143/143 126/126/126
f 143/143/143 129/129/129 144/144/144
f 131/131/131 144/144/144 129/129/129
f 144/144/144 131/131/131 145/145/145
f 133/133/133 145/145/145 131/131/131
f 145/145/145 133/133/133 146/146/146
f 126/126/126 146/146/146 133/133/133
f 146/146/146 126/126/126 143/143/143
f 144/144/144 147/147/147 143/143/143
f 147/147/147 144/144/144 148/148/148
f 145/145/145 148/148/148 144/144/144
f 148/148/148 145/145/145 149/149/149
f 146/146/146 149/149/149 145/145/145
f 149/149/149 146/146/146 150/150/150
f 143/143/143 150/150/150 146/146/146
f 150/150/150 143/143/143 147/147/147
f 148/148/148 151/151/151 147/147/147
f 151/151/151 148/148/148 152/152/152
f 149/149/149 152/152/152 148/148/148
f 152/152/152 149/149/149 153/153/153
f 150/150/150 153/153/153 149/149/149
f 153/153/153 150/150/150 154/154/154
f 147/147/147 154/154/154 150/150/150
f 154/154/154 147/147/147 151/151/151
f 152/152/152 155/155/155 151/151/151
f 155/155/155 152/152/152 156/156/156
f 153/153/153 156/156/156 152/152/152
f 156/156/156 153/153/153 157/157/157
f 154/154/154 157/157/157 153/153/153
f 157/157/157 154/154/154 158/158/158
f 151/151/151 158/158/158 154/154/154
f 158/158/158 151/151/151 155/155/155
f 159/159/159 161/161/161 160/160/160
f 161/161/161 159/159/159 162/162/162
f 163/163/163 165/165/165 164/164/164
f 165/165/165 163/163/163 166/166/166
f 167/167/167 169/169/169 168/168/168
f 169/169/169 167/167/167 170/170/170
f 171/171/171 173/173/173 172/172/172
f 173/173/173 171/171/171 174/174/174
f 175/175/175 177/177/177 176/176/176
f 177/177/177 175/175/175 178/178/178
f 179/179/179 181/181/181 180/180/180
f 181/181/181 179/179/179 182/182/182
f 183/183/183 185/185/185 184/184/184
f 185/185/185 183/183/183 186/186/186
f 187/187/187 189/189/189 188/188/188
f 189/189/189 187/187/187 190/190/190
f 191/191/191 193/193/193 192/192/192
f 193/193/193 191/191/191 194/194/194
f 195/195/195 197/197/197 196/196/196
f 197/197/197 195/195/195 198/198/198

g lpwing
# texture: lpwing.jpg
v -0.789121 19.30183 -9.44478
v 86.78319 19.2945 -50.28043
v 86.80006 208.6013 -50.27814
v -0.77223 208.6086 -9.442583
v 0.51983 19.30182 -9.394611
v -87.06935 208.6013 -50.22789
v -87.05248 19.29448 -50.23025
v 0.502936 208.6087 -9.392353
vn 0.422653 -0.000048 0.906292
vn 0.422653 -0.000048 0.906292
vn 0.422653 -0.000048 0.906292
vn 0.422653 -0.000048 0.906292
vn -0.422652 -0.000049 0.906292
vn -0.422652 -0.000049 0.906292
vn -0.422652 -0.000049 0.906292
vn -0.422652 -0.000049 0.906292
vt 0.0005 0.0005
vt 0.9995 0.0005
vt 0.9995 0.9995
vt 0.0005 0.9995
vt 0.0005 0.0005
vt 0.9995 0.9995
vt 0.9995 0.0005
vt 0.0005 0.9995
f 199/199/199 201/201/201 200/200/200
f 201/201/201 199/199/199 202/202/202
f 203/203/203 205/205/205 204/204/204
f 204/204/204 206/206/206 203/203/203

g lplower
# texture: lplower.jpg
v -0.028507 115.9145 5.918296
v 5.277094 118.3742 3.511697
v 3.815894 125.9032 2.934368
v -0.028107 124.4667 4.055867
v 0.021096 136.3127 -14.62435
v 0.028394 141.6387 -13.61964
v 7.482795 141.3018 -8.171639
v 8.899398 133.4122 -9.77034
v 0.020992 148.7835 -10.59744
v 6.554693 147.701 -7.91634
v 4.769192 131.5722 7.507372
v 1.386191 130.0305 8.74517
v 1.250792 124.4208 8.045271
v 4.872591 136.4999 6.705369
v 1.015191 135.5004 8.171169
v 5.39569 139.3852 6.55617
v 0.015588 138.4397 8.614868
v 5.064088 146.8894 10.16107
v 0.022289 145.4182 8.910869
v 11.5898 135.3031 -3.256334
v 13.821 128.6453 -1.528332
v 9.750896 143.3944 -4.428935
v 6.554691 148.1364 1.928666
v 6.911492 140.7066 3.804568
v 6.242194 128.9036 1.053767
v 6.904892 136.8937 2.407968
v 6.911492 140.7066 3.804568
v 0.017988 150.4441 -3.158839
v 0.009988 150.4768 1.602165
v 0.024497 125.6145 -14.55694
v 6.554691 148.1364 1.928666
v 6.904892 136.8937 2.407968
v 11.4221 122.2411 -13.35434
v 0.009988 150.4768 1.602165
v 10.4887 114.9225 7.037698
v 17.0649 116.5438 -1.124002
v 17.0649 116.5438 -1.124002
v 10.4887 114.8897 -7.807705
v 13.821 128.6453 -1.528332
v -0.028503 108.3085 -11.91051
v -3.872008 125.9031 2.934367
v -5.33411 118.3742 3.511694
v -7.53891 141.3017 -8.171642
v -8.955607 133.4122 -9.770344
v -6.61081 147.7009 -7.916343
v -4.825311 131.5722 7.507369
v -1.306908 124.4208 8.045269
v -1.44231 130.0305 8.74517
v -4.92871 136.4999 6.705367
v -1.071309 135.5004 8.171169
v -5.451811 139.3852 6.556168
v -5.127013 146.8894 10.16107
v -11.64591 135.3031 -3.25634
v -13.87681 128.6453 -1.528339
v -9.81391 143.3944 -4.428942
v -6.610812 148.1364 1.928663
v -6.967712 140.7066 3.804565
v -6.298308 128.9036 1.053764
v -6.961112 136.8937 2.407964
v -6.967712 140.7066 3.804565
v -6.610812 148.1364 1.928663
v -6.961112 136.8937 2.407964
v -11.4794 122.2411 -13.35435
v -10.54581 114.9225 7.037694
v -17.10681 116.4472 -1.12401
v -10.54581 114.8897 -7.80771
v -17.10681 116.4472 -1.12401
v -13.87681 128.6453 -1.528339
v -0.08861 131.1454 10.21707
v -0.028499 86.90842 -5.459703
v -0.028501 95.17944 -7.497806
v 11.8397 95.88483 -5.352802
v 8.581298 86.70004 -3.582201
v -0.028504 85.23383 7.246601
v 7.424898 85.85093 5.105102
v 11.4078 94.40034 7.407601
v -0.028505 93.28693 10.0819
v 10.95629 105.6503 17.92911
v -0.028508 105.1329 14.5823
v -0.028507 95.95483 13.968
v -0.028508 110.0066 12.2139
v 13.3107 95.24383 2.4449
v 9.545697 86.18003 1.212201
v 15.68389 103.7243 9.598157
v -17.42349 111.0225 45.47064
v -17.34475 112.62 45.38265
v -18.43087 115.8264 40.57781
v -18.60468 114.2706 39.87064
v 9.545697 86.18003 1.212201
v 13.3107 95.24383 2.4449
v 15.68389 103.7243 9.598157
v 10.18509 112.056 9.423742
v 20.58711 107.1632 2.814606
v 14.59045 114.9799 6.565635
v 20.30907 116.8709 1.917149
v 20.58711 107.1632 2.814606
v 20.30907 116.8709 1.917149
v 21.79057 111.5774 9.880281
v 14.59045 114.9799 6.565635
v 25.02269 96.82892 32.94594
v 25.77172 94.21498 28.31104
v 15.68389 103.7243 9.598157
v 18.92951 92.23357 29.0964
v 20.28776 96.19894 34.00054
v 10.18509 112.056 9.423742
v 17.26252 95.09871 33.29015
v 10.18509 112.056 9.423742
v 17.26252 95.09871 33.29015
v 23.55313 97.65781 34.84147
v 20.97244 94.37878 37.87777
v 17.44293 91.70729 32.26525
v 17.92435 102.0651 37.1008
v 15.06453 98.00519 40.6573
v 11.74997 95.38387 34.18499
v 16.67104 100.8715 31.89823
v 14.35238 98.83284 29.44106
v 14.35238 98.83284 29.44106
v 4.348392 109.559 41.98348
v 0.857256 106.6516 43.25743
v -1.496233 106.6578 39.31094
v 3.888069 110.5329 37.55925
v 0.04977 108.4238 35.95634
v 0.04977 108.4238 35.95634
v 0.948965 110.2426 43.87764
v 0.903667 113.0019 38.08484
v -4.149464 111.7621 45.16245
v -8.993393 110.8117 45.76626
v -4.352431 115.5122 39.49747
v -9.404414 112.5124 41.6825
v -9.568456 110.9232 34.15693
v -10.5124 109.8933 34.86964
v -11.10659 110.9527 35.46379
v -10.16271 111.9826 34.75122
v -9.639723 112.3988 45.85017
v -9.825451 116.1449 40.62097
v -8.964709 114.2647 39.70627
v -18.43087 115.8264 40.57781
v -18.60468 114.2706 39.87064
v -9.404414 112.5124 41.6825
v -5.868455 108.0024 36.61316
v -4.338585 109.3549 34.80112
v -6.8536 110.5956 37.93271
v -5.323755 111.948 36.12063
v -5.323755 111.948 36.12063
v 17.0649 116.5438 -1.124002
v 20.30907 116.8709 1.917149
v 20.58711 107.1632 2.814606
v -11.8967 95.88483 -5.352808
v -8.638303 86.70004 -3.582205
v -11.46481 94.40034 7.407595
v -7.481905 85.85094 5.105099
v -11.01331 105.6503 17.9291
v -13.3677 95.24383 2.444893
v -9.602704 86.18004 1.212197
v -20.15508 104.3112 8.321018
v -17.43257 95.87235 64.14956
v -13.17864 101.3241 63.68554
v -17.2778 97.28638 64.88608
v -12.77171 100.1975 62.45406
v -9.602704 86.18004 1.212197
v -13.3677 95.24383 2.444893
v -15.72954 112.7484 11.30645
v -20.15508 104.3112 8.321018
v -20.96829 107.9895 0.093461
v -18.13301 115.7246 6.670647
v -20.68364 117.7337 -0.210103
v -20.96829 107.9895 0.093461
v -25.85317 112.0176 5.640511
v -20.68364 117.7337 -0.210103
v -18.13301 115.7246 6.670647
v -39.94804 96.06521 23.15738
v -38.06922 93.67358 18.72728
v -20.15508 104.3112 8.321018
v -32.55048 91.79111 22.8935
v -36.42618 95.47677 26.50091
v -18.13301 115.7246 6.670647
v -36.42618 95.47677 26.50091
v -15.72954 112.7484 11.30645
v -33.42747 94.47385 27.43319
v -39.39416 97.35303 26.48174
v -39.3469 92.91997 29.12317
v -32.56124 91.68655 27.24486
v -37.71263 99.88934 33.33386
v -37.74055 94.51681 36.23993
v -30.49659 93.63905 33.68981
v -32.9826 100.2528 30.585
v -29.3639 98.7825 30.02449
v -32.9826 100.2528 30.585
v -32.83752 103.2572 48.47323
v -30.95621 99.59846 50.78356
v -26.52292 100.5124 49.99336
v -29.49561 105.5176 46.36205
v -25.43018 103.4757 47.38815
v -29.49561 105.5176 46.36205
v -31.12054 102.3709 52.82089
v -27.30785 106.8009 50.17317
v -27.30785 106.8009 50.17317
v -28.17673 101.8989 57.41052
v -24.92598 99.50517 60.31466
v -24.34939 107.134 55.37499
v -21.9493 102.3039 58.56959
v -16.81839 103.3746 52.93805
v -16.53012 102.5354 54.75115
v -16.56233 101.9468 53.53417
v -16.78618 103.9632 54.15514
v -23.65839 99.93303 61.43379
v -19.95637 104.9326 59.78724
v -21.00543 104.6703 57.74591
v -23.65839 99.93303 61.43379
v -19.95637 104.9326 59.78724
v -21.00543 104.6703 57.74591
v -21.16129 100.9347 51.08324
v -21.13569 103.1862 49.53934
v -21.34501 102.5503 53.6894
v -21.3194 104.8017 52.1455
v -24.34939 107.134 55.37499
v -20.68364 117.7337 -0.210103
vn -0 0.403205 0.91511
vn 0.078199 0.451595 0.88879
vn 0.645915 -0.258206 0.718417
vn -0 -0.82261 0.568607
vn 0.0028 0.160099 -0.987097
vn 0.0033 0.247614 -0.968853
vn 0.71708 0.172995 -0.675181
vn 0.689885 0.239695 -0.683085
vn 0.0025 0.77745 -0.62894
vn 0.604503 0.676203 -0.421102
vn 0.756981 -0.180596 0.627985
vn 0.274497 -0.122999 0.953689
vn 0.426296 -0.702894 0.569396
vn 0.695662 -0.0036 0.718361
vn 0.315808 0.084802 0.945026
vn 0.684225 -0.158106 0.711926
vn 0.001 -0.157292 0.987552
vn 0.509616 0.30711 0.803726
vn -0.0034 0.435412 0.900225
vn 0.981786 0.187397 0.0313
vn 0.973413 0.159602 0.164302
vn 0.957186 0.274996 -0.090399
vn 0.773122 0.614518 0.157005
vn 0.908187 -0.0119 0.418395
vn 0.608711 0.045001 0.792115
vn 0.797632 -0.085004 0.597125
vn 0.908187 -0.0119 0.418395
vn 0.0023 0.993293 -0.115599
vn 0.0008 0.982111 0.188302
vn 0.0011 0.061002 -0.998137
vn 0.773122 0.614518 0.157005
vn 0.797632 -0.085004 0.597125
vn 0.672872 -0.064198 -0.736969
vn 0.0008 0.982111 0.188302
vn 0.327811 0.57602 0.748826
vn 0.736117 0.664115 0.130703
vn 0.736117 0.664115 0.130703
vn 0.595433 -0.115607 -0.795044
vn 0.973413 0.159602 0.164302
vn 0.0001 -0.379205 -0.925313
vn -0.645932 -0.258113 0.718436
vn -0.078199 0.451595 0.88879
vn -0.714625 0.173206 -0.677724
vn -0.68849 0.239697 -0.68449
vn -0.601214 0.677816 -0.42321
vn -0.756982 -0.180595 0.627985
vn -0.356699 -0.616298 0.702098
vn -0.329907 -0.122602 0.936018
vn -0.695662 -0.0036 0.71836
vn -0.321012 0.086303 0.943135
vn -0.682899 -0.157199 0.713399
vn -0.509994 0.307097 0.803491
vn -0.981841 0.187108 0.031301
vn -0.973447 0.158992 0.164691
vn -0.957169 0.274991 -0.090597
vn -0.772101 0.615801 0.157
vn -0.908186 -0.0121 0.418393
vn -0.60929 0.0447 0.791687
vn -0.797632 -0.085003 0.597124
vn -0.908186 -0.0121 0.418393
vn -0.772101 0.615801 0.157
vn -0.797632 -0.085003 0.597124
vn -0.672503 -0.0642 -0.737304
vn -0.328815 0.577126 0.747534
vn -0.732699 0.668099 0.1296
vn -0.596382 -0.115297 -0.794377
vn -0.732699 0.668099 0.1296
vn -0.973447 0.158992 0.164691
vn -0.0103 -0.048299 0.99878
vn 0 -0.0238 -0.999717
vn 0 -0.221301 -0.975206
vn 0.53802 -0.341113 -0.770829
vn 0.714195 0.0278 -0.699395
vn -0 -0.038598 0.999255
vn 0.65152 0.039101 0.757623
vn 0.619092 -0.503594 0.602593
vn -0 -0.609382 0.792877
vn 0.331912 0.149206 0.931435
vn -0 0.191807 0.981433
vn -0 -0.564881 0.825173
vn -0 0.672603 0.740004
vn 0.916512 -0.398805 0.031001
vn 0.995879 -0.0311 0.085198
vn 0.484107 -0.806039 0.340502
vn -0.770709 -0.595975 0.225435
vn -0.337608 0.250786 0.907264
vn -0.664292 0.709973 0.233784
vn -0.388621 -0.238303 -0.890048
vn 0.995879 -0.0311 0.085198
vn 0.916512 -0.398805 0.031001
vn 0.484107 -0.806039 0.340502
vn -0.173546 0.599308 0.781481
vn 0.957314 -0.167599 -0.235502
vn -0.066414 0.915301 0.397257
vn 0.663468 0.737977 -0.123291
vn 0.957314 -0.167599 -0.235502
vn 0.663468 0.737977 -0.123291
vn 0.630327 0.691462 0.352943
vn -0.066414 0.915301 0.397257
vn 0.763522 0.604059 0.228357
vn 0.808107 -0.42953 -0.403073
vn 0.484107 -0.806039 0.340502
vn -0.44422 -0.783586 -0.434352
vn -0.149867 0.823906 0.546552
vn -0.173546 0.599308 0.781481
vn -0.991707 0.002087 0.1285
vn -0.173546 0.599308 0.781481
vn -0.991707 0.002087 0.1285
vn 0.68251 0.691261 0.237357
vn 0.161105 -0.324826 0.931951
vn -0.52065 -0.850198 0.07802
vn 0.620047 0.687318 0.378333
vn 0.072209 -0.364066 0.92857
vn -0.61521 -0.777571 -0.130003
vn 0.347715 0.734244 -0.583078
vn -0.257087 0.098177 -0.961388
vn -0.257087 0.098177 -0.961388
vn 0.58233 0.512755 0.630852
vn -0.038408 -0.518554 0.854182
vn -0.653488 -0.751723 -0.088691
vn 0.457991 0.775666 -0.434266
vn -0.037715 0.062772 -0.997315
vn -0.037715 0.062772 -0.997315
vn 0.431895 0.505763 0.746774
vn 0.410731 0.842722 -0.348024
vn 0.292812 0.363536 0.884366
vn -0.178996 -0.63243 0.753653
vn 0.213947 0.953231 -0.213489
vn -0.572036 -0.682755 -0.454555
vn -0.20958 0.16509 -0.963754
vn -0.455053 -0.670229 -0.586276
vn -0.978525 -0.119227 0.168147
vn -0.360133 0.917265 -0.170088
vn 0.025515 0.50632 0.861968
vn 0.022657 0.962057 -0.271908
vn -0.346918 0.110096 -0.931411
vn -0.664292 0.709973 0.233784
vn -0.388621 -0.238303 -0.890048
vn -0.572036 -0.682755 -0.454555
vn -0.383073 -0.922908 0.038669
vn 0.086339 -0.265385 -0.960269
vn -0.825098 -0.059842 0.561812
vn -0.121915 0.590469 -0.797799
vn -0.121915 0.590469 -0.797799
vn 0.736117 0.664115 0.130703
vn 0.663468 0.737977 -0.123291
vn 0.957314 -0.167599 -0.235502
vn -0.53802 -0.341113 -0.770829
vn -0.714194 0.0278 -0.699395
vn -0.619093 -0.503594 0.602593
vn -0.65152 0.039101 0.757623
vn -0.331913 0.149206 0.931435
vn -0.916512 -0.398805 0.031
vn -0.995879 -0.031099 0.085198
vn -0.555249 -0.831594 0.012236
vn 0.409852 -0.886654 0.214162
vn 0.454527 0.256489 0.853006
vn -0.258568 -0.249693 0.933165
vn 0.821931 -0.029146 -0.568841
vn -0.995879 -0.031099 0.085198
vn -0.916512 -0.398805 0.031
vn -0.283289 0.562514 0.77674
vn -0.555249 -0.831594 0.012236
vn -0.686836 -0.173801 -0.705727
vn -0.186949 0.896528 0.401607
vn -0.525916 0.732383 -0.432468
vn -0.686836 -0.173801 -0.705727
vn -0.751087 0.660189 -0.004266
vn -0.525916 0.732383 -0.432468
vn -0.186949 0.896528 0.401607
vn -0.796362 0.57655 -0.18275
vn -0.462141 -0.424611 -0.778545
vn -0.555249 -0.831594 0.012236
vn 0.638437 -0.751765 -0.165067
vn -0.191252 0.798144 0.571304
vn -0.186949 0.896528 0.401607
vn -0.191252 0.798144 0.571304
vn -0.283289 0.562514 0.77674
vn 0.779812 0.015258 0.625829
vn -0.730826 0.673981 -0.107902
vn -0.732269 -0.578238 0.359754
vn 0.415599 -0.899112 0.137389
vn -0.787788 0.615519 0.022975
vn -0.66344 -0.627383 0.407724
vn 0.619388 -0.778861 0.098669
vn 0.078908 0.926499 -0.367932
vn 0.849389 0.361202 -0.384801
vn 0.078908 0.926499 -0.367932
vn -0.918697 0.365538 0.149597
vn -0.513761 -0.764768 0.388819
vn 0.612871 -0.773797 0.160085
vn -0.108609 0.934255 -0.339664
vn 0.728622 0.373081 -0.574387
vn -0.108609 0.934255 -0.339664
vn -0.827431 0.321428 0.46048
vn -0.0939 0.989174 -0.112771
vn -0.0939 0.989174 -0.112771
vn -0.811432 0.10859 0.57427
vn -0.352163 -0.873342 0.336533
vn -0.037454 0.988892 0.143841
vn 0.742616 -0.618151 -0.257702
vn 0.791417 0.416861 -0.447086
vn 0.624745 -0.433715 0.649296
vn 0.741746 -0.530175 -0.410765
vn 0.364962 0.783708 0.502598
vn -0.491213 0.124517 0.862094
vn 0.245535 0.921595 0.300625
vn 0.874051 0.318604 -0.366778
vn -0.491213 0.124517 0.862094
vn 0.245535 0.921595 0.300625
vn 0.874051 0.318604 -0.366778
vn 0.279308 -0.949053 -0.145897
vn 0.575478 0.109848 -0.810406
vn 0.248196 -0.471195 0.846389
vn 0.607782 0.76763 -0.203337
vn -0.037454 0.988892 0.143841
vn -0.525916 0.732383 -0.432468
vt 0.3224 0.696
vt 0.405 0.7187
vt 0.3822 0.7882
vt 0.3224 0.7749
vt 0.9473 0.8614
vt 0.9474 0.9113
vt 0.8755 0.9082
vt 0.8533 0.8342
vt 0.9473 0.9082
vt 0.8901 0.9271
vt 0.3971 0.8405
vt 0.3444 0.8263
vt 0.3423 0.7745
vt 0.3987 0.8859
vt 0.3386 0.8767
vt 0.4068 0.9125
vt 0.3231 0.9038
vt 0.4017 0.9817
vt 0.3232 0.9682
vt 0.8111 0.852
vt 0.7761 0.7896
vt 0.84 0.8867
vt 0.8901 0.9311
vt 0.8845 0.9026
vt 0.42 0.8159
vt 0.4303 0.8895
vt 0.4304 0.9247
vt 0.9473 0.9528
vt 0.9471 0.9531
vt 0.9474 0.7612
vt 0.4249 0.9932
vt 0.8846 0.8669
vt 0.8137 0.7296
vt 0.323 0.9907
vt 0.4861 0.6868
vt 0.5885 0.7018
vt 0.7726 0.6978
vt 0.8284 0.6606
vt 0.538 0.8135
vt 0.9465 0.599
vt 0.2626 0.7882
vt 0.2398 0.7187
vt 0.8761 0.9082
vt 0.8538 0.8342
vt 0.8906 0.9271
vt 0.2477 0.8405
vt 0.3025 0.7745
vt 0.3004 0.8263
vt 0.2461 0.8859
vt 0.3062 0.8767
vt 0.238 0.9125
vt 0.243 0.9817
vt 0.8116 0.852
vt 0.7766 0.7896
vt 0.8404 0.8867
vt 0.8906 0.9311
vt 0.885 0.9026
vt 0.2248 0.8159
vt 0.2145 0.8895
vt 0.2144 0.9247
vt 0.2199 0.9932
vt 0.8851 0.8669
vt 0.8142 0.7296
vt 0.1587 0.6868
vt 0.0565 0.7009
vt 0.8289 0.6606
vt 0.7733 0.6969
vt 0.1068 0.8135
vt 0.3215 0.8365
vt 0.9465 0.3985
vt 0.9465 0.4759
vt 0.8072 0.4826
vt 0.8583 0.3965
vt 0.3224 0.413
vt 0.4384 0.4187
vt 0.5004 0.4976
vt 0.3224 0.4873
vt 0.4934 0.6013
vt 0.3224 0.5965
vt 0.3224 0.5119
vt 0.3224 0.6415
vt 0.7841 0.4766
vt 0.8432 0.3916
vt 0.7436 0.5223
vt 0.6092 0.2709
vt 0.6119 0.2616
vt 0.6198 0.3647
vt 0.6169 0.3471
vt 0.4714 0.4217
vt 0.5301 0.5053
vt 0.5703 0.5504
vt 0.567 0.6034
vt 0.7214 0.5925
vt 0.6125 0.6436
vt 0.6504 0.6893
vt 0.0597 0.2495
vt 0.0157 0.1947
vt 0.0828 0.1936
vt 0.0445 0.1288
vt 0.2739 0.185
vt 0.2589 0.2196
vt 0.1074 0.2922
vt 0.2655 0.2972
vt 0.2783 0.1474
vt 0.0685 0.0994
vt 0.2762 0.1125
vt 0.0685 0.3554
vt 0.2762 0.3685
vt 0.2986 0.1848
vt 0.3054 0.2196
vt 0.302 0.2978
vt 0.3507 0.1847
vt 0.3569 0.2249
vt 0.3507 0.2994
vt 0.3419 0.1466
vt 0.341 0.1129
vt 0.341 0.3689
vt 0.4625 0.1938
vt 0.472 0.2385
vt 0.4764 0.3056
vt 0.4597 0.1521
vt 0.4684 0.1058
vt 0.4684 0.3618
vt 0.4872 0.2068
vt 0.4864 0.1501
vt 0.5246 0.2149
vt 0.5517 0.2459
vt 0.528 0.1495
vt 0.5526 0.3412
vt 0.5363 0.3485
vt 0.5399 0.3409
vt 0.5478 0.3436
vt 0.5441 0.3517
vt 0.5619 0.2274
vt 0.5645 0.1462
vt 0.5521 0.123
vt 0.6198 0.1087
vt 0.6169 0.0911
vt 0.5526 0.0852
vt 0.5092 0.3349
vt 0.5012 0.3524
vt 0.5252 0.3485
vt 0.5173 0.1104
vt 0.5173 0.3664
vt 0.6602 0.736
vt 0.7253 0.7196
vt 0.692 0.6514
vt 0.8077 0.4826
vt 0.8588 0.3965
vt 0.1444 0.4976
vt 0.2064 0.4187
vt 0.1514 0.6013
vt 0.7846 0.4766
vt 0.8437 0.3916
vt 0.7441 0.5223
vt 0.6045 0.2278
vt 0.6147 0.1393
vt 0.6071 0.2366
vt 0.6119 0.156
vt 0.1733 0.4217
vt 0.1147 0.5053
vt 0.0778 0.6034
vt 0.0745 0.5504
vt 0.7219 0.5925
vt 0.0322 0.6436
vt -0.0056 0.6893
vt 0.0746 0.248
vt 0.0968 0.3008
vt 0.0321 0.2997
vt 0.0599 0.3619
vt 0.2811 0.3089
vt 0.2667 0.2763
vt 0.1206 0.2077
vt 0.273 0.2031
vt 0.2854 0.3444
vt 0.0599 0.1203
vt 0.2854 0.1028
vt 0.083 0.1481
vt 0.2833 0.1357
vt 0.305 0.3091
vt 0.3115 0.2763
vt 0.3082 0.2024
vt 0.3551 0.3092
vt 0.3611 0.2713
vt 0.3552 0.2009
vt 0.3467 0.3451
vt 0.3458 0.1353
vt 0.3467 0.1036
vt 0.463 0.3006
vt 0.4721 0.2584
vt 0.4764 0.1951
vt 0.4603 0.34
vt 0.4687 0.142
vt 0.4603 0.0984
vt 0.4868 0.2883
vt 0.4861 0.3418
vt 0.4861 0.1003
vt 0.5228 0.2807
vt 0.549 0.2514
vt 0.5262 0.3424
vt 0.5499 0.1615
vt 0.5341 0.1546
vt 0.5452 0.1592
vt 0.5377 0.1618
vt 0.5417 0.1516
vt 0.5588 0.2689
vt 0.5614 0.3455
vt 0.5494 0.3674
vt 0.5588 0.1122
vt 0.5614 0.1039
vt 0.5494 0.1258
vt 0.508 0.1674
vt 0.5003 0.1509
vt 0.5235 0.1547
vt 0.5158 0.1378
vt 0.5262 0.1008
vt 0.6633 0.6634
f 207/207/207 209/209/209 208/208/208
f 209/209/209 207/207/207 210/210/210
f 211/211/211 213/213/213 212/212/212
f 213/213/213 211/211/211 214/214/214
f 212/212/212 216/216/216 215/215/215
f 216/216/216 212/212/212 213/213/213
f 217/217/217 219/219/219 218/218/218
f 218/218/218 220/220/220 217/217/217
f 220/220/220 218/218/218 221/221/221
f 221/221/221 222/222/222 220/220/220
f 222/222/222 221/221/221 223/223/223
f 223/223/223 224/224/224 222/222/222
f 224/224/224 223/223/223 225/225/225
f 214/214/214 226/226/226 213/213/213
f 226/226/226 214/214/214 227/227/227
f 228/228/228 213/213/213 226/226/226
f 216/216/216 213/213/213 228/228/228
f 228/228/228 229/229/229 216/216/216
f 229/229/229 228/228/228 230/230/230
f 209/209/209 217/217/217 231/231/231
f 217/217/217 209/209/209 219/219/219
f 231/231/231 220/220/220 232/232/232
f 220/220/220 231/231/231 217/217/217
f 232/232/232 222/222/222 233/233/233
f 222/222/222 232/232/232 220/220/220
f 216/216/216 234/234/234 215/215/215
f 216/216/216 235/235/235 234/234/234
f 235/235/235 216/216/216 229/229/229
f 211/211/211 236/236/236 214/214/214
f 233/233/233 222/222/222 224/224/224
f 237/237/237 233/233/233 224/224/224
f 226/226/226 227/227/227 238/238/238
f 226/226/226 238/238/238 230/230/230
f 228/228/228 226/226/226 230/230/230
f 214/214/214 239/239/239 227/227/227
f 240/240/240 224/224/224 225/225/225
f 224/224/224 240/240/240 237/237/237
f 231/231/231 241/241/241 208/208/208
f 231/231/231 242/242/242 241/241/241
f 227/227/227 244/244/244 243/243/243
f 239/239/239 244/244/244 227/227/227
f 245/245/245 231/231/231 232/232/232
f 245/245/245 242/242/242 231/231/231
f 236/236/236 246/246/246 239/239/239
f 246/246/246 244/244/244 239/239/239
f 231/231/231 208/208/208 209/209/209
f 207/207/207 248/248/248 247/247/247
f 247/247/247 210/210/210 207/207/207
f 211/211/211 212/212/212 249/249/249
f 249/249/249 250/250/250 211/211/211
f 212/212/212 215/215/215 251/251/251
f 251/251/251 249/249/249 212/212/212
f 252/252/252 254/254/254 253/253/253
f 254/254/254 252/252/252 255/255/255
f 255/255/255 256/256/256 254/254/254
f 256/256/256 255/255/255 257/257/257
f 257/257/257 223/223/223 256/256/256
f 223/223/223 257/257/257 258/258/258
f 258/258/258 225/225/225 223/223/223
f 250/250/250 249/249/249 259/259/259
f 259/259/259 260/260/260 250/250/250
f 261/261/261 259/259/259 249/249/249
f 251/251/251 261/261/261 249/249/249
f 261/261/261 251/251/251 262/262/262
f 262/262/262 263/263/263 261/261/261
f 247/247/247 264/264/264 252/252/252
f 252/252/252 253/253/253 247/247/247
f 264/264/264 265/265/265 255/255/255
f 255/255/255 252/252/252 264/264/264
f 265/265/265 266/266/266 257/257/257
f 257/257/257 255/255/255 265/265/265
f 251/251/251 215/215/215 234/234/234
f 251/251/251 234/234/234 235/235/235
f 235/235/235 262/262/262 251/251/251
f 211/211/211 250/250/250 236/236/236
f 266/266/266 258/258/258 257/257/257
f 267/267/267 258/258/258 266/266/266
f 259/259/259 268/268/268 260/260/260
f 259/259/259 263/263/263 268/268/268
f 261/261/261 263/263/263 259/259/259
f 250/250/250 260/260/260 269/269/269
f 240/240/240 225/225/225 258/258/258
f 258/258/258 267/267/267 240/240/240
f 264/264/264 248/248/248 270/270/270
f 264/264/264 270/270/270 271/271/271
f 260/260/260 273/273/273 272/272/272
f 269/269/269 260/260/260 272/272/272
f 274/274/274 265/265/265 264/264/264
f 274/274/274 264/264/264 271/271/271
f 236/236/236 269/269/269 246/246/246
f 246/246/246 269/269/269 272/272/272
f 264/264/264 247/247/247 248/248/248
f 223/223/223 221/221/221 256/256/256
f 218/218/218 253/253/253 254/254/254
f 218/218/218 219/219/219 253/253/253
f 219/219/219 210/210/210 253/253/253
f 210/210/210 219/219/219 209/209/209
f 253/253/253 210/210/210 247/247/247
f 221/221/221 275/275/275 256/256/256
f 275/275/275 221/221/221 218/218/218
f 256/256/256 275/275/275 254/254/254
f 275/275/275 218/218/218 254/254/254
f 236/236/236 239/239/239 214/214/214
f 236/236/236 250/250/250 269/269/269
f 276/276/276 278/278/278 277/277/277
f 278/278/278 276/276/276 279/279/279
f 277/277/277 244/244/244 246/246/246
f 244/244/244 277/277/277 278/278/278
f 280/280/280 282/282/282 281/281/281
f 282/282/282 280/280/280 283/283/283
f 284/284/284 286/286/286 285/285/285
f 284/284/284 285/285/285 287/287/287
f 279/279/279 288/288/288 278/278/278
f 288/288/288 279/279/279 289/289/289
f 290/290/290 278/278/278 288/288/288
f 291/291/291 293/293/293 292/292/292
f 293/293/293 291/291/291 294/294/294
f 295/295/295 282/282/282 296/296/296
f 282/282/282 295/295/295 281/281/281
f 296/296/296 298/298/298 297/297/297
f 298/298/298 296/296/296 282/282/282
f 287/287/287 208/208/208 241/241/241
f 208/208/208 287/287/287 207/207/207
f 278/278/278 299/299/299 244/244/244
f 298/298/298 241/241/241 300/300/300
f 290/290/290 299/299/299 278/278/278
f 242/242/242 300/300/300 241/241/241
f 300/300/300 242/242/242 301/301/301
f 302/302/302 304/304/304 303/303/303
f 305/305/305 303/303/303 304/304/304
f 282/282/282 284/284/284 298/298/298
f 298/298/298 284/284/284 241/241/241
f 287/287/287 241/241/241 284/284/284
f 302/302/302 306/306/306 304/304/304
f 306/306/306 302/302/302 307/307/307
f 308/308/308 307/307/307 302/302/302
f 307/307/307 308/308/308 309/309/309
f 304/304/304 310/310/310 305/305/305
f 310/310/310 304/304/304 306/306/306
f 310/310/310 312/312/312 311/311/311
f 311/311/311 305/305/305 310/310/310
f 313/313/313 309/309/309 308/308/308
f 309/309/309 313/313/313 314/314/314
f 307/307/307 315/315/315 306/306/306
f 315/315/315 307/307/307 316/316/316
f 309/309/309 316/316/316 307/307/307
f 316/316/316 309/309/309 317/317/317
f 310/310/310 306/306/306 315/315/315
f 314/314/314 317/317/317 309/309/309
f 316/316/316 318/318/318 315/315/315
f 318/318/318 316/316/316 319/319/319
f 317/317/317 319/319/319 316/316/316
f 319/319/319 317/317/317 320/320/320
f 315/315/315 321/321/321 310/310/310
f 321/321/321 315/315/315 318/318/318
f 310/310/310 322/322/322 312/312/312
f 322/322/322 310/310/310 321/321/321
f 314/314/314 320/320/320 317/317/317
f 320/320/320 314/314/314 323/323/323
f 324/324/324 319/319/319 325/325/325
f 319/319/319 324/324/324 318/318/318
f 320/320/320 325/325/325 319/319/319
f 325/325/325 320/320/320 326/326/326
f 318/318/318 327/327/327 321/321/321
f 327/327/327 318/318/318 324/324/324
f 321/321/321 328/328/328 322/322/322
f 328/328/328 321/321/321 327/327/327
f 323/323/323 326/326/326 320/320/320
f 326/326/326 323/323/323 329/329/329
f 325/325/325 330/330/330 324/324/324
f 331/331/331 324/324/324 330/330/330
f 324/324/324 331/331/331 327/327/327
f 328/328/328 327/327/327 331/331/331
f 325/325/325 332/332/332 330/330/330
f 332/332/332 325/325/325 333/333/333
f 330/330/330 334/334/334 331/331/331
f 334/334/334 330/330/330 332/332/332
f 326/326/326 333/333/333 325/325/325
f 333/333/333 326/326/326 335/335/335
f 336/336/336 338/338/338 337/337/337
f 338/338/338 336/336/336 339/339/339
f 333/333/333 340/340/340 332/332/332
f 332/332/332 341/341/341 334/334/334
f 341/341/341 332/332/332 340/340/340
f 342/342/342 334/334/334 341/341/341
f 333/333/333 292/292/292 340/340/340
f 292/292/292 333/333/333 291/291/291
f 340/340/340 343/343/343 341/341/341
f 343/343/343 340/340/340 292/292/292
f 335/335/335 291/291/291 333/333/333
f 291/291/291 335/335/335 294/294/294
f 341/341/341 344/344/344 342/342/342
f 344/344/344 341/341/341 343/343/343
f 342/342/342 344/344/344 345/345/345
f 329/329/329 346/346/346 326/326/326
f 346/346/346 329/329/329 347/347/347
f 326/326/326 348/348/348 335/335/335
f 348/348/348 326/326/326 346/346/346
f 345/345/345 349/349/349 342/342/342
f 350/350/350 335/335/335 348/348/348
f 347/347/347 337/337/337 346/346/346
f 337/337/337 347/347/347 336/336/336
f 346/346/346 338/338/338 348/348/348
f 338/338/338 346/346/346 337/337/337
f 348/348/348 339/339/339 350/350/350
f 339/339/339 348/348/348 338/338/338
f 350/350/350 336/336/336 347/347/347
f 336/336/336 350/350/350 339/339/339
f 334/334/334 342/342/342 349/349/349
f 334/334/334 349/349/349 331/331/331
f 243/243/243 244/244/244 299/299/299
f 351/351/351 353/353/353 352/352/352
f 331/331/331 349/349/349 328/328/328
f 350/350/350 347/347/347 329/329/329
f 284/284/284 282/282/282 286/286/286
f 282/282/282 283/283/283 286/286/286
f 276/276/276 277/277/277 354/354/354
f 354/354/354 355/355/355 276/276/276
f 277/277/277 246/246/246 272/272/272
f 272/272/272 354/354/354 277/277/277
f 280/280/280 357/357/357 356/356/356
f 356/356/356 283/283/283 280/280/280
f 358/358/358 285/285/285 286/286/286
f 358/358/358 287/287/287 285/285/285
f 355/355/355 354/354/354 359/359/359
f 359/359/359 360/360/360 355/355/355
f 361/361/361 359/359/359 354/354/354
f 362/362/362 364/364/364 363/363/363
f 363/363/363 365/365/365 362/362/362
f 366/366/366 367/367/367 356/356/356
f 356/356/356 357/357/357 366/366/366
f 367/367/367 369/369/369 368/368/368
f 368/368/368 356/356/356 367/367/367
f 287/287/287 270/270/270 248/248/248
f 248/248/248 207/207/207 287/287/287
f 354/354/354 272/272/272 370/370/370
f 368/368/368 371/371/371 270/270/270
f 361/361/361 354/354/354 370/370/370
f 271/271/271 270/270/270 371/371/371
f 371/371/371 372/372/372 271/271/271
f 373/373/373 375/375/375 374/374/374
f 376/376/376 374/374/374 375/375/375
f 356/356/356 368/368/368 358/358/358
f 368/368/368 270/270/270 358/358/358
f 287/287/287 358/358/358 270/270/270
f 373/373/373 374/374/374 377/377/377
f 377/377/377 378/378/378 373/373/373
f 379/379/379 373/373/373 378/378/378
f 378/378/378 380/380/380 379/379/379
f 374/374/374 376/376/376 381/381/381
f 381/381/381 377/377/377 374/374/374
f 382/382/382 384/384/384 383/383/383
f 385/385/385 383/383/383 384/384/384
f 384/384/384 379/379/379 380/380/380
f 380/380/380 385/385/385 384/384/384
f 378/378/378 377/377/377 386/386/386
f 386/386/386 387/387/387 378/378/378
f 380/380/380 378/378/378 387/387/387
f 387/387/387 388/388/388 380/380/380
f 381/381/381 386/386/386 377/377/377
f 385/385/385 380/380/380 388/388/388
f 387/387/387 386/386/386 389/389/389
f 389/389/389 390/390/390 387/387/387
f 388/388/388 387/387/387 390/390/390
f 390/390/390 391/391/391 388/388/388
f 386/386/386 381/381/381 392/392/392
f 392/392/392 389/389/389 386/386/386
f 383/383/383 385/385/385 393/393/393
f 393/393/393 394/394/394 383/383/383
f 385/385/385 388/388/388 391/391/391
f 391/391/391 393/393/393 385/385/385
f 395/395/395 396/396/396 390/390/390
f 390/390/390 389/389/389 395/395/395
f 391/391/391 390/390/390 396/396/396
f 396/396/396 397/397/397 391/391/391
f 389/389/389 392/392/392 398/398/398
f 398/398/398 395/395/395 389/389/389
f 394/394/394 393/393/393 399/399/399
f 399/399/399 400/400/400 394/394/394
f 393/393/393 391/391/391 397/397/397
f 397/397/397 399/399/399 393/393/393
f 396/396/396 395/395/395 401/401/401
f 402/402/402 401/401/401 395/395/395
f 395/395/395 398/398/398 402/402/402
f 399/399/399 403/403/403 400/400/400
f 396/396/396 401/401/401 404/404/404
f 404/404/404 405/405/405 396/396/396
f 401/401/401 402/402/402 406/406/406
f 406/406/406 404/404/404 401/401/401
f 397/397/397 396/396/396 405/405/405
f 405/405/405 407/407/407 397/397/397
f 408/408/408 410/410/410 409/409/409
f 409/409/409 411/411/411 408/408/408
f 405/405/405 404/404/404 412/412/412
f 404/404/404 406/406/406 413/413/413
f 413/413/413 412/412/412 404/404/404
f 414/414/414 413/413/413 406/406/406
f 405/405/405 412/412/412 364/364/364
f 364/364/364 362/362/362 405/405/405
f 415/415/415 416/416/416 363/363/363
f 363/363/363 364/364/364 415/415/415
f 407/407/407 405/405/405 362/362/362
f 362/362/362 365/365/365 407/407/407
f 416/416/416 417/417/417 365/365/365
f 365/365/365 363/363/363 416/416/416
f 417/417/417 407/407/407 365/365/365
f 399/399/399 397/397/397 418/418/418
f 418/418/418 419/419/419 399/399/399
f 397/397/397 407/407/407 420/420/420
f 420/420/420 418/418/418 397/397/397
f 407/407/407 417/417/417 421/421/421
f 421/421/421 420/420/420 407/407/407
f 419/419/419 418/418/418 410/410/410
f 410/410/410 408/408/408 419/419/419
f 418/418/418 420/420/420 409/409/409
f 409/409/409 410/410/410 418/418/418
f 420/420/420 421/421/421 411/411/411
f 411/411/411 409/409/409 420/420/420
f 421/421/421 419/419/419 408/408/408
f 408/408/408 411/411/411 421/421/421
f 422/422/422 421/421/421 417/417/417
f 422/422/422 403/403/403 421/421/421
f 273/273/273 370/370/370 272/272/272
f 273/273/273 423/423/423 370/370/370
f 403/403/403 399/399/399 421/421/421
f 421/421/421 399/399/399 419/419/419
f 358/358/358 286/286/286 356/356/356
f 356/356/356 286/286/286 283/283/283

g lptgq
# texture: lptgq.tga
v -0.028499 81.78603 -7.908703
v -0.028499 86.90842 -5.459703
v 8.581298 86.70004 -3.582201
v 9.298101 81.52933 -6.1323
v 9.545697 86.18003 1.212201
v 12.2504 80.75543 1.947203
v 12.2504 80.75543 1.947203
v 9.545697 86.18003 1.212201
v 7.424898 85.85093 5.105102
v 8.743999 80.53733 6.222904
v -0.028504 85.23383 7.246601
v -0.028503 80.25253 8.839203
v -8.638303 86.70004 -3.582205
v -9.355203 81.52933 -6.132305
v -9.602704 86.18004 1.212197
v -12.30741 80.75544 1.947197
v -12.30741 80.75544 1.947197
v -7.481905 85.85094 5.105099
v -9.602704 86.18004 1.212197
v -8.801004 80.53733 6.222899
v -0.028499 81.78603 -7.908703
v 9.298101 81.52933 -6.1323
v 12.5591 71.37783 -8.2825
v -0.028497 72.38523 -13.2666
v 12.2504 80.75543 1.947203
v 8.743999 80.53733 6.222904
v 10.9942 68.08573 10.54711
v 16.3667 69.05432 2.210105
v -0.028503 80.25253 8.839203
v 3.4357 63.18663 10.19351
v -3.382202 63.18663 10.1935
v -12.6161 71.37783 -8.282507
v -9.355203 81.52933 -6.132305
v -12.30741 80.75544 1.947197
v -11.0512 68.08573 10.5471
v -8.801004 80.53733 6.222899
v -16.4238 69.05433 2.210097
v 25.89467 -32.65589 139.6124
v 12.10628 35.19932 44.44898
v 15.03438 36.16902 50.28842
v 20.89248 -42.94096 130.9822
v 4.440392 34.60004 40.84009
v 7.79638 -49.29746 125.6484
v -5.035214 13.02981 22.81759
v -8.391175 -91.95531 83.9227
v -12.70102 12.12224 26.36153
v -21.48718 -87.19588 90.71986
v -15.62913 10.65373 32.09587
v -26.48947 -79.49493 101.718
v -12.70104 9.185238 37.83013
v -21.48719 -71.79397 112.7161
v -5.035138 8.27766 41.37408
v -8.391175 -67.03452 119.5132
v 4.440362 37.73801 59.73662
v 7.796342 -16.01435 153.5763
v 12.10627 37.13871 56.12775
v 20.89246 -22.37091 148.2425
v 12.07308 86.45903 38.60725
v 15.91077 87.46229 44.64882
v 4.427786 85.95599 35.57792
v -5.022434 62.14397 38.72117
v -12.66774 61.38216 41.69596
v -16.50545 59.86282 47.62881
v -12.66775 58.63015 52.44218
v -5.022452 58.15501 54.29752
v 4.427763 88.59 51.4397
v 12.07307 88.27625 49.55039
v 12.31096 81.01633 47.26926
v 15.91076 87.22589 45.07368
v 4.518662 78.12108 48.29297
v -5.113252 50.83286 45.28709
v -12.90565 53.82447 45.97993
v -16.50545 60.24088 47.46625
v -12.90565 65.08145 48.58735
v -5.113248 66.49715 48.91535
v 4.51867 93.28048 42.93291
v 12.31097 91.91039 43.41734
v 16.14032 68.68076 21.12454
v 18.34313 78.54962 17.63511
v 5.981305 50.03183 -11.7696
v -6.575995 50.03183 -11.7696
v -16.73508 57.47521 17.30269
v -18.93789 67.67284 19.66473
v -13.44758 73.71244 21.06365
v -5.241178 75.29523 21.43026
v 4.646432 85.92629 15.02688
v 12.85283 84.39452 15.56848
v 14.37911 62.75053 -7.938098
v 5.308504 60.24403 -11.7075
v -5.903297 60.24403 -11.70751
v -14.9739 62.75053 -7.938106
vn 0 0.414519 -0.910041
vn 0 -0.0238 -0.999717
vn 0.714195 0.0278 -0.699395
vn 0.710386 0.385592 -0.588788
vn 0.995879 -0.0311 0.085198
vn 0.896352 0.385879 0.218289
vn 0.896352 0.385879 0.218289
vn 0.995879 -0.0311 0.085198
vn 0.65152 0.039101 0.757623
vn 0.460688 0.324592 0.826079
vn -0 -0.038598 0.999255
vn -0.0001 0.221893 0.975071
vn -0.714194 0.0278 -0.699395
vn -0.710385 0.385592 -0.588788
vn -0.995879 -0.031099 0.085198
vn -0.896352 0.38588 0.218288
vn -0.896352 0.38588 0.218288
vn -0.65152 0.039101 0.757623
vn -0.995879 -0.031099 0.085198
vn -0.460689 0.324592 0.826079
vn 0 0.414519 -0.910041
vn 0.710386 0.385592 -0.588788
vn 0.645897 0.265699 -0.715697
vn -0.0002 0.197904 -0.980221
vn 0.896352 0.385879 0.218289
vn 0.460688 0.324592 0.826079
vn 0.425498 0.161699 0.890396
vn 0.966552 0.187591 0.174892
vn -0.0001 0.221893 0.975071
vn -0.027601 0.034501 0.999024
vn -0.0252 0.0191 0.9995
vn -0.643196 0.280698 -0.712396
vn -0.710385 0.385592 -0.588788
vn -0.896352 0.38588 0.218288
vn -0.520918 0.175706 0.835328
vn -0.460689 0.324592 0.826079
vn -0.974968 0.221293 0.021599
vn 0.982511 -0.056272 -0.177499
vn 0.704656 -0.043311 -0.708226
vn 0.998032 0.046172 -0.042437
vn 0.668293 -0.494779 -0.555499
vn 0.23899 -0.074112 -0.96819
vn 0.183706 -0.6745 -0.715054
vn -0.2098 0.324368 -0.922372
vn -0.329704 -0.446645 -0.831747
vn -0.702887 0.24304 -0.668492
vn -0.81829 -0.24045 -0.522097
vn -0.99783 0.029644 0.058792
vn -0.982511 0.171919 0.071529
vn -0.690162 -0.138933 0.710193
vn -0.668292 0.510262 0.541312
vn -0.239395 -0.18917 0.952316
vn -0.183705 0.653547 0.734254
vn 0.187706 0.210316 0.959445
vn 0.329704 0.789655 0.517436
vn 0.692086 0.156055 0.704744
vn 0.81829 0.499155 0.285038
vn 0.653276 -0.115539 -0.748252
vn 0.999584 -0.010983 0.02666
vn 0.200002 -0.133118 -0.970711
vn -0.188702 0.271328 -0.943808
vn -0.656983 0.208362 -0.724541
vn -0.998071 -0.02811 0.055354
vn -0.565303 -0.241331 0.788791
vn -0.154999 -0.252152 0.955194
vn 0.112201 0.151427 0.98208
vn 0.579322 0.098576 0.809116
vn 0.65042 -0.685779 0.32659
vn 0.989904 0.138448 0.030384
vn 0.187397 -0.90097 0.391325
vn -0.183397 -0.970955 -0.153662
vn -0.694577 -0.713373 -0.093076
vn -0.996546 0.056797 0.060582
vn -0.530992 0.808452 0.253877
vn -0.102095 0.95628 0.274053
vn 0.093796 0.951457 -0.293143
vn 0.528206 0.818867 -0.224622
vn 0.726391 -0.637053 0.257916
vn 0.972306 0.214134 -0.09364
vn 0.181106 -0.061602 -0.981532
vn -0.183395 -0.051799 -0.981674
vn -0.75821 -0.63997 -0.124726
vn -0.982143 0.182534 0.045566
vn -0.485928 0.840227 0.240608
vn -0.095597 0.962562 0.253646
vn 0.056301 0.957107 -0.284213
vn 0.516911 0.817357 -0.254423
vn 0.806015 0.113502 -0.580911
vn 0.249088 0.0076 -0.968451
vn -0.1898 0.0067 -0.9818
vn -0.667886 0.115898 -0.735185
vt 0.5375 0.419
vt 0.5375 0.4651
vt 0.5912 0.4632
vt 0.5956 0.4166
vt 0.6228 0.4585
vt 0.6469 0.4097
vt 0.2942 0.4071
vt 0.284 0.456
vt 0.2371 0.453
vt 0.2479 0.4051
vt 0.1763 0.4474
vt 0.1763 0.4098
vt 0.4838 0.4632
vt 0.4794 0.4166
vt 0.4522 0.4585
vt 0.428 0.4097
vt 0.0565 0.4071
vt 0.1156 0.453
vt 0.0785 0.456
vt 0.1048 0.4051
vt 0.8797 0.9995
vt 0.9346 0.9974
vt 0.9537 0.9157
vt 0.8797 0.9238
vt 0.9519 0.9912
vt 0.9313 0.9894
vt 0.9445 0.8892
vt 0.9888 0.897
vt 0.8797 0.9872
vt 0.9001 0.8498
vt 0.86 0.8498
vt 0.8057 0.9157
vt 0.8249 0.9974
vt 0.8076 0.9912
vt 0.8149 0.8892
vt 0.8282 0.9894
vt 0.771 0.897
vt 0.9958 0.0005
vt 0.9286 0.1452
vt 0.963 0.1452
vt 0.9686 0.0005
vt 0.8925 0.1452
vt 0.9078 0.0005
vt 0.848 0.1452
vt 0.8327 0.0005
vt 0.812 0.1452
vt 0.7719 0.0005
vt 0.7774 0.1452
vt 0.7328 0.0005
vt 0.812 0.1452
vt 0.7719 0.0005
vt 0.848 0.1452
vt 0.8327 0.0005
vt 0.8925 0.1452
vt 0.9078 0.0005
vt 0.9286 0.1452
vt 0.9686 0.0005
vt 0.9449 0.4453
vt 0.9907 0.4453
vt 0.9036 0.4453
vt 0.8527 0.4453
vt 0.8114 0.4453
vt 0.7655 0.4453
vt 0.8114 0.4453
vt 0.8527 0.4453
vt 0.9036 0.4453
vt 0.9449 0.4453
vt 0.9462 0.5094
vt 0.9907 0.5094
vt 0.9041 0.5094
vt 0.8522 0.5094
vt 0.8102 0.5094
vt 0.7655 0.5094
vt 0.8102 0.5094
vt 0.8522 0.5094
vt 0.9041 0.5094
vt 0.9462 0.5094
vt 0.9748 0.7439
vt 1 0.7439
vt 0.9151 0.7439
vt 0.8412 0.7439
vt 0.7815 0.7439
vt 0.7543 0.7439
vt 0.8009 0.7439
vt 0.8491 0.7439
vt 0.9072 0.7439
vt 0.9555 0.7439
vt 0.9644 0.8463
vt 0.9111 0.8261
vt 0.8452 0.8261
vt 0.7919 0.8463
f 424/424/424 426/426/426 425/425/425
f 426/426/426 424/424/424 427/427/427
f 427/427/427 428/428/428 426/426/426
f 428/428/428 427/427/427 429/429/429
f 430/430/430 432/432/432 431/431/431
f 432/432/432 430/430/430 433/433/433
f 433/433/433 435/435/435 434/434/434
f 432/432/432 433/433/433 434/434/434
f 424/424/424 425/425/425 436/436/436
f 436/436/436 437/437/437 424/424/424
f 437/437/437 436/436/436 438/438/438
f 438/438/438 439/439/439 437/437/437
f 440/440/440 442/442/442 441/441/441
f 441/441/441 443/443/443 440/440/440
f 443/443/443 434/434/434 435/435/435
f 441/441/441 434/434/434 443/443/443
f 444/444/444 446/446/446 445/445/445
f 446/446/446 444/444/444 447/447/447
f 448/448/448 450/450/450 449/449/449
f 450/450/450 448/448/448 451/451/451
f 445/445/445 446/446/446 448/448/448
f 446/446/446 451/451/451 448/448/448
f 450/450/450 452/452/452 449/449/449
f 450/450/450 453/453/453 452/452/452
f 452/452/452 453/453/453 454/454/454
f 444/444/444 456/456/456 455/455/455
f 455/455/455 447/447/447 444/444/444
f 457/457/457 459/459/459 458/458/458
f 458/458/458 460/460/460 457/457/457
f 456/456/456 457/457/457 455/455/455
f 455/455/455 457/457/457 460/460/460
f 458/458/458 459/459/459 452/452/452
f 458/458/458 452/452/452 454/454/454
f 461/461/461 463/463/463 462/462/462
f 461/461/461 462/462/462 464/464/464
f 464/464/464 462/462/462 465/465/465
f 464/464/464 465/465/465 466/466/466
f 466/466/466 465/465/465 467/467/467
f 466/466/466 467/467/467 468/468/468
f 468/468/468 467/467/467 469/469/469
f 468/468/468 469/469/469 470/470/470
f 470/470/470 469/469/469 471/471/471
f 470/470/470 471/471/471 472/472/472
f 472/472/472 471/471/471 473/473/473
f 472/472/472 473/473/473 474/474/474
f 474/474/474 473/473/473 475/475/475
f 474/474/474 475/475/475 476/476/476
f 476/476/476 475/475/475 477/477/477
f 476/476/476 477/477/477 478/478/478
f 478/478/478 477/477/477 479/479/479
f 478/478/478 479/479/479 480/480/480
f 480/480/480 479/479/479 463/463/463
f 480/480/480 463/463/463 461/461/461
f 463/463/463 482/482/482 481/481/481
f 463/463/463 481/481/481 462/462/462
f 462/462/462 481/481/481 483/483/483
f 462/462/462 483/483/483 465/465/465
f 465/465/465 483/483/483 484/484/484
f 465/465/465 484/484/484 467/467/467
f 467/467/467 484/484/484 485/485/485
f 467/467/467 485/485/485 469/469/469
f 469/469/469 485/485/485 486/486/486
f 469/469/469 486/486/486 471/471/471
f 471/471/471 486/486/486 487/487/487
f 471/471/471 487/487/487 473/473/473
f 473/473/473 487/487/487 488/488/488
f 473/473/473 488/488/488 475/475/475
f 475/475/475 488/488/488 489/489/489
f 475/475/475 489/489/489 477/477/477
f 477/477/477 489/489/489 490/490/490
f 477/477/477 490/490/490 479/479/479
f 479/479/479 490/490/490 482/482/482
f 479/479/479 482/482/482 463/463/463
f 482/482/482 492/492/492 491/491/491
f 482/482/482 491/491/491 481/481/481
f 481/481/481 491/491/491 493/493/493
f 481/481/481 493/493/493 483/483/483
f 483/483/483 493/493/493 494/494/494
f 483/483/483 494/494/494 484/484/484
f 484/484/484 494/494/494 495/495/495
f 484/484/484 495/495/495 485/485/485
f 485/485/485 495/495/495 496/496/496
f 485/485/485 496/496/496 486/486/486
f 486/486/486 496/496/496 497/497/497
f 486/486/486 497/497/497 487/487/487
f 487/487/487 497/497/497 498/498/498
f 487/487/487 498/498/498 488/488/488
f 488/488/488 498/498/498 499/499/499
f 488/488/488 499/499/499 489/489/489
f 489/489/489 499/499/499 500/500/500
f 489/489/489 500/500/500 490/490/490
f 490/490/490 500/500/500 492/492/492
f 490/490/490 492/492/492 482/482/482
f 492/492/492 502/502/502 501/501/501
f 492/492/492 501/501/501 491/491/491
f 491/491/491 501/501/501 503/503/503
f 491/491/491 503/503/503 493/493/493
f 493/493/493 503/503/503 504/504/504
f 493/493/493 504/504/504 494/494/494
f 494/494/494 504/504/504 505/505/505
f 494/494/494 505/505/505 495/495/495
f 495/495/495 505/505/505 506/506/506
f 495/495/495 506/506/506 496/496/496
f 496/496/496 506/506/506 507/507/507
f 496/496/496 507/507/507 497/497/497
f 497/497/497 507/507/507 508/508/508
f 497/497/497 508/508/508 498/498/498
f 498/498/498 508/508/508 509/509/509
f 498/498/498 509/509/509 499/499/499
f 499/499/499 509/509/509 510/510/510
f 499/499/499 510/510/510 500/500/500
f 500/500/500 510/510/510 502/502/502
f 500/500/500 502/502/502 492/492/492
f 502/502/502 451/451/451 511/511/511
f 502/502/502 511/511/511 501/501/501
f 501/501/501 511/511/511 512/512/512
f 501/501/501 512/512/512 503/503/503
f 503/503/503 512/512/512 513/513/513
f 503/503/503 513/513/513 504/504/504
f 504/504/504 513/513/513 514/514/514
f 504/504/504 514/514/514 505/505/505
f 505/505/505 514/514/514 460/460/460
f 505/505/505 460/460/460 506/506/506
f 506/506/506 460/460/460 458/458/458
f 506/506/506 458/458/458 507/507/507
f 507/507/507 458/458/458 454/454/454
f 507/507/507 454/454/454 508/508/508
f 508/508/508 454/454/454 453/453/453
f 508/508/508 453/453/453 509/509/509
f 509/509/509 453/453/453 450/450/450
f 509/509/509 450/450/450 510/510/510
f 510/510/510 450/450/450 451/451/451
f 510/510/510 451/451/451 502/502/502
f 460/460/460 514/514/514 455/455/455
f 447/447/447 513/513/513 512/512/512
f 455/455/455 514/514/514 513/513/513
f 455/455/455 513/513/513 447/447/447
f 447/447/447 512/512/512 446/446/446
f 446/446/446 511/511/511 451/451/451
f 511/511/511 446/446/446 512/512/512
