# Master01.bmd — MU geometry at action 0 key 0, exported for MU2
# 1 mesh(es)

g guard_gold2
# texture: guard_gold2.jpg
v -6.540498 119.5293 -7.491002
v -6.5405 132.2349 -3.146803
v 6.386703 131.9978 -0.505299
v 6.528602 123.4028 -4.6459
v 7.890602 131.3714 7.035203
v 9.957797 122.4167 8.346504
v 4.583398 130.9968 12.5122
v 5.115298 121.0501 14.8721
v -6.540604 130.2945 15.5251
v -6.540604 118.3586 18.8653
v 4.959591 91.11539 21.45979
v 14.21569 90.67658 16.40219
v 10.1838 108.6164 16.10241
v 1.471896 104.6172 21.00731
v 19.4315 89.04649 3.978587
v 14.21901 108.449 3.458104
v 9.974298 88.85921 -8.863922
v 8.206606 107.2482 -8.075601
v -0.290005 88.8661 -9.812428
v -1.632494 104.1644 -11.74051
v -19.4678 131.9978 -0.505306
v -19.6097 123.4028 -4.645806
v -20.9717 131.3714 7.035195
v -23.03891 122.4167 8.346497
v -17.6646 130.9968 12.5122
v -18.19651 121.0501 14.8721
v -15.12241 90.2455 20.458
v -23.12181 106.9544 16.0877
v -24.20131 88.6122 15.3246
v -13.86331 104.1364 20.8088
v -27.1152 106.872 3.429295
v -29.12291 86.88539 2.794495
v -21.2877 107.2482 -8.075609
v -19.79871 88.97359 -9.976706
v -11.4486 104.1644 -11.74051
v -9.673302 90.69279 -10.85771
v -3.066695 106.0389 -7.748302
v 5.663702 118.4462 -2.168299
v 6.973302 101.2421 -5.341711
v -5.193295 99.2412 -5.267602
v -5.7486 100.6618 12.697
v -1.893512 81.2562 -1.646029
v -0.922718 78.16379 12.39828
v 9.259993 83.0439 -3.646928
v 13.5721 102.0779 6.453199
v 17.16159 80.43159 6.682679
v 8.945694 95.90208 16.495
v 11.69218 77.78017 17.57808
v 12.96578 53.18929 -1.152143
v 2.908479 52.03899 0.630352
v 18.83838 55.97918 6.579357
v 2.566571 54.20829 9.438251
v 13.44707 58.28377 15.77706
v 17.47248 53.00139 4.95506
v 2.47438 51.12279 7.597155
v 11.94958 51.35939 13.88026
v -6.721499 119.3197 -4.894203
v -10.3777 106.0389 -7.748303
v -19.4525 101.433 -5.834907
v -19.1066 118.4461 -2.168305
v -8.253798 99.2412 -5.267603
v -7.695901 100.6618 12.697
v -7.192907 82.96929 -3.1968
v -7.608812 78.95049 10.6388
v -19.02461 83.02879 -5.254705
v -26.07002 78.5892 4.908197
v -25.80041 100.5144 5.992196
v -20.20221 94.5944 15.6904
v -19.50402 76.25009 15.7902
v -17.61602 53.1748 -4.607703
v -7.190916 53.5717 -2.775197
v -23.54352 54.242 3.421499
v -7.190922 54.95879 6.277103
v -18.54322 56.84969 12.7755
v -21.69682 51.7778 1.478998
v -6.584117 52.1957 4.102503
v -15.94362 50.3734 10.2985
v -6.721602 107.6803 15.6551
v 5.079199 112.1703 14.61661
v -18.52221 112.1703 14.6166
v 4.341897 121.6563 10.7969
v -6.721503 121.3473 13.9866
v -17.7849 121.6563 10.7969
v -6.5405 132.2349 -3.146803
v -6.5405 139.7021 -4.944505
v 8.982703 140.3882 -2.3652
v 6.386703 131.9978 -0.505299
v -6.5405 163.2935 -6.951006
v 8.751601 156.6551 -5.300203
v -6.540604 130.2945 15.5251
v 4.583398 130.9968 12.5122
v 6.999299 138.9543 13.3196
v -6.538505 135.1667 18.0515
v 5.619494 152.246 17.6444
v -6.540606 150.059 19.802
v -6.540606 143.0561 19.6057
v -6.540606 154.7449 17.2815
v 10.9653 139.7747 8.426403
v 7.890602 131.3714 7.035203
v 12.1967 146.5408 -1.0588
v 10.78649 146.7535 10.1481
v 8.751595 157.6124 13.9491
v 0.536794 161.7767 10.1905
v -6.540505 160.9794 13.0844
v 10.7764 160.9707 2.7853
v 0.486695 164.5178 1.678697
v 8.982703 140.3882 -2.3652
v 8.751601 156.6551 -5.300203
v 15.2832 158.8607 -1.653898
v 12.1967 146.5408 -1.0588
v 22.9924 150.9585 2.498503
v 29.4326 134.0861 -4.793798
v 25.7962 135.2344 -12.7473
v 19.09599 127.2033 -9.479002
v 14.3677 151.9189 8.991402
v 26.79029 127.9696 -10.0468
v 10.78649 146.7535 10.1481
v 21.11709 128.1637 -10.558
v 31.63649 124.9664 -9.827497
v 28.94259 119.8122 -11.0141
v 20.41279 122.6719 -11.3731
v 1.090695 156.2623 16.718
v 9.004396 156.6524 18.5593
v 10.791 167.6344 -1.552798
v 1.090701 156.2623 -6.266704
v 18.791 180.8479 19.50661
v 9.325097 143.8912 16.71801
v 15.3334 144.8494 12.6766
v 12.7859 147.2701 17.0555
v 1.062694 150.0768 19.591
v 29.3774 146.9841 1.956004
v 25.3295 163.8303 10.79511
v 9.004396 156.6524 18.5593
v 1.090695 156.2623 16.718
v 18.791 180.8479 19.50661
v 15.0191 160.9977 -8.084599
v 17.12 155.8314 -7.4355
v 9.325103 143.8912 -6.266701
v 1.062799 150.0768 -9.139705
v 10.791 167.6344 -1.552798
v 1.090701 156.2623 -6.266704
v -22.0638 140.3882 -2.365108
v -19.4678 131.9978 -0.505306
v -21.8326 156.6551 -5.30011
v -20.08051 138.9542 13.3196
v -17.6646 130.9968 12.5122
v -18.70071 152.246 17.6444
v -24.0464 139.7747 8.426394
v -20.9717 131.3714 7.035195
v -25.67832 145.2633 1.010187
v -23.12651 148.0025 11.66909
v -13.6179 161.7767 10.1905
v -21.83261 157.6123 13.94919
v -23.8575 160.9707 2.785392
v -13.5677 164.5177 1.678694
v -22.0638 140.3882 -2.365108
v -29.21911 157.1048 -1.973409
v -21.8326 156.6551 -5.30011
v -25.67832 145.2633 1.010187
v -42.78263 132.1269 2.02498
v -36.19042 150.2662 4.641188
v -40.02712 131.4924 -6.32982
v -32.76113 124.4644 -2.100922
v -39.91803 123.1813 1.857778
v -26.97832 152.7421 9.78639
v -34.30783 122.1769 1.827478
v -23.12651 148.0025 11.66909
v -45.06144 122.5892 -0.539523
v -42.92363 119.8517 -5.352824
v -34.21914 119.4886 -3.080222
v -14.17181 156.2623 16.718
v -25.03581 165.7186 -4.312806
v -20.81691 159.5549 17.42429
v -14.1717 156.2623 -6.266607
v -31.2552 183.2515 14.0177
v -22.40621 143.8912 16.718
v -24.41822 150.0396 18.46319
v -27.32202 146.6729 15.03419
v -14.14381 150.0767 19.5911
v -42.46123 146.2119 5.689985
v -38.08662 164.6508 10.06939
v -20.81691 159.5549 17.42429
v -14.17181 156.2623 16.718
v -31.2552 183.2515 14.0177
v -29.69191 157.7442 -8.708212
v -31.54091 152.8366 -6.703012
v -14.1438 150.0768 -9.139708
v -22.4062 143.8912 -6.266608
v -25.03581 165.7186 -4.312806
v -14.1717 156.2623 -6.266607
v 0.486695 164.5178 1.678697
v -6.5405 163.2935 -6.951006
v -6.540505 160.9794 13.0844
v 0.536794 161.7767 10.1905
v -13.5677 164.5177 1.678694
v -13.6179 161.7767 10.1905
v 10.94456 112.031 29.77741
v 11.44606 112.842 31.17951
v 9.56396 118.8282 33.15131
v 8.68456 118.8104 31.59631
v 28.4451 119.5978 -10.2313
v 31.1432 124.8568 -9.828897
v 30.64539 123.1847 -0.226293
v 27.47849 115.5437 -0.59009
v 20.26289 122.5801 -10.9317
v 17.12889 120.4609 -2.385996
v 26.39919 127.7874 -9.328401
v 25.40969 128.3032 -1.555798
v 20.85729 128.0185 -9.897703
v 18.76408 129.0374 -2.703201
v 26.80288 119.9426 12.64291
v 22.07618 116.2435 12.66252
v 18.49128 119.5695 13.49881
v 24.78458 124.6222 12.76671
v 18.86177 124.0516 13.04151
v 25.55857 117.4371 18.42361
v 24.12217 124.4495 19.29191
v 22.62767 115.7859 22.74711
v 18.52567 113.6693 24.71471
v 21.55047 123.1156 24.55391
v 17.09697 118.4118 25.32791
v 11.95727 124.895 21.38811
v 11.08367 123.4938 21.24231
v 11.29486 123.2864 22.56231
v 12.16847 124.6876 22.70811
v 18.45856 113.9727 28.11601
v 17.37676 120.8201 30.10871
v 17.33147 121.295 26.05201
v 14.83257 121.8893 17.60411
v 15.83227 124.6552 17.42821
v 15.67057 121.6171 20.54711
v 16.67027 124.383 20.37111
v 33.962 120.0602 -12.91509
v 19.10349 130.8949 -12.57481
v 29.54029 133.0539 -11.3296
v 20.60279 117.2966 -14.5089
v 29.01519 132.1462 -5.354601
v 33.437 119.1524 -6.939993
v 18.57839 129.9871 -6.599803
v 20.07779 116.3888 -8.533895
v 28.8355 110.4983 -12.54519
v 30.04631 114.7102 -29.9971
v -42.30875 80.27809 9.435467
v -39.49685 78.70989 16.44437
v -42.82565 79.4455 10.81927
v -38.31824 79.76589 15.61527
v -42.65223 118.9887 -5.056423
v -46.53764 113.8506 3.679177
v -44.60123 122.3962 -0.619223
v -44.48164 108.9289 -2.653025
v -34.18793 119.0534 -2.892222
v -33.40704 110.3708 0.476177
v -40.46824 116.4083 7.143379
v -39.73003 122.4151 2.140178
v -33.70044 115.947 7.195679
v -34.22783 121.5119 2.103078
v -46.21405 100.9802 8.693174
v -42.18584 97.59421 5.806275
v -38.45184 97.8869 9.059675
v -43.63695 103.0162 12.59188
v -38.07254 100.8984 12.40968
v -46.26474 98.87339 10.62967
v -42.71124 99.63219 16.85757
v -47.34184 93.54589 11.31297
v -46.46935 88.7225 10.24017
v -44.43225 94.07209 18.34207
v -43.75835 88.89749 14.42677
v -35.11845 89.89989 17.31087
v -36.00624 88.1638 16.53417
v -35.02555 88.91399 15.98137
v -36.09914 89.14969 17.86357
v -47.95005 85.03019 12.36517
v -45.03855 84.81069 18.96087
v -43.08554 89.5593 17.25547
v -36.31684 93.31089 13.00397
v -35.72834 95.03859 15.31687
v -38.68004 91.95959 14.42757
v -38.09145 93.68719 16.74047
v -47.29384 122.8078 -6.368924
v -41.55924 127.812 5.162579
v -31.52423 124.7651 2.892279
v -34.44893 118.9078 -9.274923
v -48.27244 117.5088 -3.582624
v -42.53784 122.513 7.948879
v -32.50284 119.4661 5.67848
v -35.42754 113.6087 -6.488623
v -43.78714 115.6978 -13.78502
v -40.39753 131.9798 -20.65422
v 6.13296 0.579194 -4.896049
v 15.76346 0.627195 -8.401248
v 20.71486 0.552488 -2.366345
v 7.358559 0.504488 2.494952
v 3.526181 52.94969 -0.359948
v 13.58359 54.09999 -2.142443
v 13.04438 44.06438 -4.457046
v 4.430979 42.91248 -2.94685
v 18.07528 53.28469 3.450261
v 18.50218 40.94819 1.931662
v 3.077177 51.40609 6.092355
v 12.75058 51.60209 13.46976
v 14.01237 21.03268 -3.629945
v 7.734772 20.22488 -2.526246
v 18.62708 18.44738 -0.350639
v 7.645668 17.07028 1.583658
v 15.22997 15.01128 6.564366
v 13.58637 7.815496 -7.002741
v 6.705563 7.767495 -4.498343
v 18.94787 11.77769 -1.916635
v 7.768764 11.72969 2.152263
v 24.73216 6.078874 14.98506
v 21.64856 9.87657 20.88907
v 22.75226 0.528465 22.38477
v 26.28266 0.552471 15.90576
v 14.45406 6.030872 18.72607
v 14.40245 0.50447 20.22976
v 18.22166 11.86138 11.53847
v 22.30446 7.036981 7.338566
v 11.45286 6.988979 11.28826
v 18.99198 48.12979 3.41056
v 13.28789 56.45839 -4.479548
v 19.81768 56.15499 3.666561
v 13.36868 48.50379 -4.514144
v 3.621583 55.28849 -2.772749
v 5.377382 47.53659 -3.103049
v 0.48498 53.81509 7.080255
v 3.009277 46.19539 6.232757
v 5.410778 57.55899 17.50436
v 9.406273 40.28249 15.11156
v 17.52247 41.26488 13.67847
v 17.97698 59.07989 15.28547
v 10.15138 54.98509 5.373358
v 13.64748 55.01899 25.19657
v 10.92558 71.5419 21.10686
v -3.262735 0.702679 -10.8345
v -18.00954 0.675879 -9.585305
v -12.55104 0.750679 -15.16571
v -5.127838 0.627981 -3.578498
v -8.147116 54.4369 -3.730601
v -16.08442 44.4535 -8.595003
v -18.26332 54.0498 -5.509203
v -7.393118 44.6221 -7.101202
v -20.92802 39.98859 -2.5189
v -22.53692 52.0689 -0.038202
v -7.424216 52.4868 2.585303
v -16.96812 50.506 9.867304
v -13.23493 21.58438 -9.577002
v -6.905727 21.73829 -8.482698
v -17.34663 18.02438 -6.551498
v -6.281033 18.32878 -4.630897
v -13.40193 14.66338 0.104805
v -10.50403 7.938982 -13.58281
v -3.867732 7.890983 -10.4882
v -16.28843 11.90118 -8.983305
v -5.506533 11.85319 -3.955599
v -23.52404 6.202384 7.349905
v -22.19655 0.651983 14.89401
v -20.96664 10.00009 13.50021
v -25.14885 0.67588 8.131905
v -13.69075 0.627983 13.47491
v -13.61104 6.154386 11.97241
v -16.73774 11.98489 4.483805
v -20.43904 7.160483 -0.055901
v -9.97294 7.112485 4.824505
v -22.59052 46.85269 -0.488503
v -24.72822 54.5868 0.385597
v -18.37011 56.6008 -7.652304
v -17.13712 48.76929 -8.308405
v -8.636613 56.9099 -5.954302
v -9.090217 49.0248 -6.904501
v -5.261216 55.2051 3.781703
v -6.496719 47.3639 2.319103
v -10.69632 57.256 14.42101
v -11.79513 39.79909 10.65091
v -19.96783 39.5395 9.225204
v -23.34992 56.8541 12.2135
v -14.99472 54.8959 2.0836
v -18.37072 52.7973 21.81641
v -18.42902 69.81211 19.05371
v 16.60259 133.5989 33.90512
v 13.98689 135.2212 31.35051
v 10.9673 133.5989 33.41201
v 13.58299 131.9766 35.96671
v 18.1383 108.4346 16.35191
v 15.5226 110.0569 13.79721
v 13.98689 135.2212 31.35051
v 16.60259 133.5989 33.90512
v 12.503 108.4346 15.85881
v 10.9673 133.5989 33.41201
v 15.1187 106.8123 18.41341
v 13.58299 131.9766 35.96671
v 14.2181 100.118 28.13091
v 12.9712 110.5289 13.09681
v 18.07533 24.93929 -45.24341
v 19.99063 10.94318 -37.849
v 14.2181 100.118 28.13091
v 19.99063 10.94318 -37.849
v 23.16084 24.93928 -44.7985
v 18.0567 110.5289 13.54171
v 18.07533 24.93929 -45.24341
v 12.9712 110.5289 13.09681
v 18.0567 110.5289 13.54171
v 23.16084 24.93928 -44.7985
v 14.2181 100.118 28.13091
v 18.0567 110.5289 13.54171
v 12.9712 110.5289 13.09681
v 21.14034 1.44088 -50.98971
v 22.41134 -0.962921 -65.5175
v 21.14034 1.44088 -50.98971
v 22.41134 -0.962921 -65.5175
v 22.41134 -0.962921 -65.5175
v -23.94931 133.5989 33.40771
v -26.96892 135.2213 31.3461
v -29.58462 133.5989 33.9007
v -26.56502 131.9766 35.9623
v -25.48501 108.4346 15.8544
v -28.50461 110.0569 13.7929
v -26.96892 135.2213 31.3461
v -23.94931 133.5989 33.40771
v -31.12031 108.4346 16.3475
v -29.58462 133.5989 33.9007
v -28.10071 106.8123 18.409
v -26.56502 131.9766 35.9623
v -27.30021 100.1181 28.1353
v -31.13881 110.5289 13.54609
v -36.24287 24.93929 -44.79411
v -33.07268 10.94319 -37.84461
v -27.30021 100.1181 28.1353
v -33.07268 10.94319 -37.84461
v -31.15738 24.93929 -45.23901
v -26.0534 110.5289 13.1012
v -36.24287 24.93929 -44.79411
v -31.13881 110.5289 13.54609
v -26.0534 110.5289 13.1012
v -31.15738 24.93929 -45.23901
v -27.30021 100.1181 28.1353
v -26.0534 110.5289 13.1012
v -31.13881 110.5289 13.54609
v -34.22238 1.440887 -50.98542
v -35.49337 -0.962906 -65.51312
v -34.22238 1.440887 -50.98542
v -35.49337 -0.962906 -65.51312
v -35.49337 -0.962906 -65.51312
v -13.99731 182.6459 -1.119011
v -13.79511 186.7194 0.54999
v -8.296114 187.8031 -1.38721
v -9.348213 183.1886 -4.64661
v -9.348213 183.1886 -4.64661
v -8.296114 187.8031 -1.38721
v -5.129911 187.8031 -1.387209
v -4.077711 183.1886 -4.64661
v 0.369088 186.7195 0.549993
v 0.571292 182.6459 -1.119008
v -11.83081 172.6091 14.2319
v -8.108912 171.0691 16.301
v -7.718113 176.0956 15.5367
v -11.94461 176.2223 13.8894
v -5.708012 176.0956 15.5367
v -6.690412 171.4884 17.6499
v -5.317211 171.069 16.301
v -1.59531 172.6091 14.2319
v -1.481511 176.2223 13.8894
v -8.753313 178.6571 16.2923
v -12.52001 179.7036 13.9787
v -4.672713 178.6571 16.2923
v -0.906012 179.7036 13.9787
v -9.533716 185.3947 14.9763
v -4.757514 185.3472 14.9763
v -1.252414 185.5347 13.439
v 1.650589 185.3582 1.919995
v 2.34209 181.111 3.183196
v 0.025291 174.9181 9.443699
v 0.754491 177.9322 9.179199
v 1.650588 183.4328 9.030399
v -5.306116 188.7948 11.2759
v 0.369088 187.2234 7.915797
v -8.115017 188.7948 11.2759
v -13.79512 187.3817 8.510894
v -8.115017 188.7948 11.2759
v -15.07662 185.055 9.258294
v -14.18051 177.9322 9.179295
v -13.45131 174.9181 9.443696
v 1.421492 176.4607 3.441896
v -15.72781 181.2247 3.230591
v -14.84751 176.4607 3.441893
v -2.910508 180.5403 -4.484411
v -10.51551 180.5403 -4.484414
v 0.609891 180.2543 -1.102807
v -14.03591 180.2543 -1.102711
v -10.51551 180.5403 -4.484414
v -12.02952 180.8593 17.2707
v -14.15911 182.9635 14.8223
v -15.64821 171.3882 10.5417
v -8.534817 181.8351 19.426
v -12.42101 175.0632 17.189
v 2.96309 174.0964 15.31771
v -0.906011 180.5964 13.9787
v -1.252416 186.1839 16.019
v 0.36909 188.0645 0.970193
v 1.650589 185.7765 1.919995
v 0.57129 185.3067 -8.418211
v 0.369088 187.6354 8.225397
v 1.895988 182.5778 9.228599
v -6.142618 189.9286 10.8836
v -10.97391 187.8597 1.744791
v -4.758712 191.6958 -5.591213
v -13.79512 187.6354 8.225394
v -10.97391 187.8597 1.744791
v -10.54971 189.1975 -7.581815
v -13.79511 188.0645 0.970191
v -13.99731 182.7177 -1.322911
v -15.07662 185.7764 1.919991
v -15.72781 180.9798 3.183191
v -15.07661 184.8002 9.331494
v 3.524394 178.7029 -2.883406
v -6.703008 157.3914 19.3897
v 2.575694 171.1004 7.872899
v -6.70031 165.2886 17.2586
v 5.044596 164.5527 6.077199
v -0.999903 168.6236 -6.75821
v 0.234099 164.5527 -8.897614
v -12.36131 168.6236 -6.758214
v -13.5953 164.5526 -8.897614
v 5.260692 175.856 7.705799
v -6.704213 172.1559 20.3296
v 0.539291 184.1341 -5.986408
v -13.88121 184.1341 -5.986413
v -6.704213 172.1559 20.3296
v -2.769206 166.6628 3.728896
v -6.696109 165.3461 10.8698
v 5.260692 175.856 7.705799
v -5.162305 166.501 -0.867508
v 0.539291 184.1341 -5.986408
v -8.212505 166.501 -0.867508
v -13.88121 184.1341 -5.986413
v -6.696109 165.3461 10.8698
v -2.769206 166.6628 3.728896
v -6.696007 168.3031 2.673894
v -5.162305 166.501 -0.867508
v -8.212505 166.501 -0.867508
v -15.97601 171.1004 7.872895
v -18.45061 164.5526 6.077193
v -18.66921 175.856 7.705793
v -10.62291 166.6628 3.728994
v -18.66921 175.856 7.705793
v -10.62291 166.6628 3.728994
v -6.702596 179.6185 -26.95302
v 2.950002 156.9651 -15.07651
v -6.702699 161.5693 -26.39281
v 5.044799 171.3242 -14.3152
v -2.928002 155.5863 -3.265604
v -2.113702 170.019 0.602596
v -10.4241 155.5863 -3.265605
v -11.2383 170.0191 0.602594
v 2.869003 152.2131 -15.32461
v -6.703897 154.9958 -30.05071
v -2.9576 150.1984 -4.511704
v -10.3909 150.1984 -4.511705
v -6.703897 154.9958 -30.05071
v -1.671396 140.6614 -14.64071
v -6.697595 142.5955 -21.63961
v 2.869003 152.2131 -15.32461
v -4.734598 140.4221 -10.04761
v -2.9576 150.1984 -4.511704
v -8.6388 140.4221 -10.04761
v -10.3909 150.1984 -4.511705
v -6.697595 142.5955 -21.63961
v -1.671396 140.6614 -14.64071
v -6.697796 138.9354 -13.73261
v -4.734598 140.4221 -10.04761
v -8.6388 140.4221 -10.04761
v -16.3559 156.9651 -15.07651
v -18.4504 171.3242 -14.31532
v -16.2773 152.2131 -15.32461
v -11.7241 140.6615 -14.64071
v -16.2773 152.2131 -15.32461
v -11.7241 140.6615 -14.64071
v -0.759296 151.5168 -17.07791
v -11.7899 151.5168 -17.07801
v -8.403901 150.904 -10.07431
v -4.120099 150.904 -10.07431
v -6.274499 155.4108 -23.01121
v -11.7899 151.5168 -17.07801
v -0.759296 151.5168 -17.07791
v 5.044799 171.3242 -14.3152
v -6.702596 179.6185 -26.95302
v -6.274499 155.4108 -23.01121
v -0.759296 151.5168 -17.07791
v -2.113702 170.019 0.602596
v 5.044799 171.3242 -14.3152
v -0.759296 151.5168 -17.07791
v -4.120099 150.904 -10.07431
v -11.2383 170.0191 0.602594
v -2.113702 170.019 0.602596
v -4.120099 150.904 -10.07431
v -8.403901 150.904 -10.07431
v -6.702596 179.6185 -26.95302
v -18.4504 171.3242 -14.31532
v -11.7899 151.5168 -17.07801
v -6.274499 155.4108 -23.01121
v -18.4504 171.3242 -14.31532
v -11.2383 170.0191 0.602594
v -8.403901 150.904 -10.07431
v -11.7899 151.5168 -17.07801
vn 0 0.33101 -0.943628
vn 0 0.323509 -0.946225
vn 0.492909 0.340906 -0.800515
vn 0.76261 0.289604 -0.578408
vn 0.979738 0.197808 0.031401
vn 0.919182 0.273895 0.282995
vn 0.643418 0.241507 0.726421
vn 0.454013 0.271808 0.848524
vn -0 0.256393 0.966573
vn -0.0023 0.276899 0.960896
vn 0.457974 0.132392 0.879052
vn 0.819355 0.208388 0.534071
vn 0.693111 0.224403 0.685012
vn 0.359289 0.227093 0.905174
vn 0.941757 0.210313 -0.262416
vn 0.966967 0.251992 -0.038398
vn 0.435402 0.020501 -0.900003
vn 0.583588 0.204096 -0.785984
vn 0.091298 -0.116596 -0.988974
vn 0.223994 0.096797 -0.969772
vn -0.492909 0.340906 -0.800515
vn -0.769011 0.280904 -0.574208
vn -0.979738 0.197808 0.031401
vn -0.9252 0.2536 0.2823
vn -0.643419 0.241507 0.726421
vn -0.459096 0.253698 0.851392
vn -0.470691 0.0054 0.882282
vn -0.709629 0.130805 0.692328
vn -0.840612 0.042001 0.540007
vn -0.369898 0.165599 0.914195
vn -0.987163 0.157294 -0.027699
vn -0.965736 0.066702 -0.25081
vn -0.599188 0.164697 -0.783485
vn -0.431825 -0.0029 -0.901953
vn -0.217706 0.110603 -0.969727
vn -0.073797 -0.074897 -0.994457
vn 0.124906 -0.0065 -0.992147
vn 0.270894 0.229795 -0.934779
vn 0.45848 -0.015998 -0.888561
vn -0.194209 -0.464823 -0.863842
vn -0.408281 -0.570574 0.712567
vn -0.744896 -0.213798 -0.631997
vn -0.804138 -0.152208 0.574626
vn 0.402994 -0.050898 -0.913786
vn 0.969778 0.167196 0.177696
vn 0.994157 0.094596 -0.051997
vn -0.0083 0.042597 0.999058
vn 0.318903 0.012199 0.947709
vn 0.370686 -0.059298 -0.926864
vn -0.947067 -0.104097 -0.30369
vn 0.98466 -0.152994 -0.083896
vn -0.75797 -0.206992 0.618575
vn 0.285202 -0.217303 0.933509
vn 0.926504 -0.351002 -0.1356
vn -0.738155 -0.211987 0.64046
vn 0.445306 -0.437506 0.781211
vn 0 0.250105 -0.968219
vn -0.096004 -0.062103 -0.993442
vn -0.449415 -0.039901 -0.892431
vn -0.263406 0.235406 -0.935522
vn 0.248303 -0.577106 -0.778007
vn 0.474496 -0.361297 0.802694
vn 0.768329 -0.017201 -0.639824
vn 0.821631 -0.041302 0.568522
vn -0.397304 -0.057101 -0.915909
vn -0.997869 -0.059898 -0.025899
vn -0.980092 -0.0043 0.198498
vn 0.0022 -0.0183 0.99983
vn -0.2953 -0.0937 0.950799
vn -0.373989 -0.067498 -0.924974
vn 0.950776 0.074498 -0.300792
vn -0.943635 -0.318712 -0.089304
vn 0.784101 -0.1303 0.606801
vn -0.238699 -0.333598 0.911995
vn -0.846483 -0.50749 -0.160997
vn 0.762018 -0.152204 0.629415
vn -0.352198 -0.577396 0.736594
vn -0 -0.177794 0.984068
vn 0.0714 0.0536 0.996007
vn -0.076101 0.0488 0.995905
vn 0.246691 0.378387 0.89217
vn -0 0.256299 0.966597
vn -0.246692 0.378387 0.892169
vn 0 -0.253297 -0.967389
vn 0 -0.164707 -0.986343
vn 0.568602 -0.284901 -0.771702
vn 0.783799 -0.345699 -0.515899
vn 0 0.450211 -0.892922
vn 0.352705 0.285204 -0.891212
vn -0 -0.322102 0.946705
vn 0.588373 -0.256388 0.766865
vn 0.591223 -0.25621 0.76473
vn -0 -0.329098 0.944296
vn 0.420508 0.100402 0.901717
vn -0 0.232405 0.972619
vn -0 -0.164204 0.986426
vn -0 0.568789 0.822484
vn 0.951236 -0.281511 0.126105
vn 0.892395 -0.345398 0.290399
vn 0.168898 -0.254198 -0.95229
vn 0.72725 -0.274581 0.629057
vn 0.349 0.6865 0.6379
vn 0.215297 0.745992 0.630193
vn -0 0.558433 0.82955
vn 0.333987 0.937065 -0.101796
vn 0.361591 0.927876 -0.091098
vn 0.568602 -0.284901 -0.771702
vn 0.352705 0.285204 -0.891212
vn 0.559911 0.193604 -0.805616
vn 0.168898 -0.254198 -0.95229
vn 0.614322 -0.234108 0.753527
vn 0.94187 0.212193 0.260492
vn 0.155196 0.228995 -0.960977
vn -0.349499 -0.356899 -0.866299
vn 0.410621 -0.471824 0.780239
vn -0.083498 -0.539586 0.83778
vn 0.72725 -0.274581 0.629057
vn 0.456213 -0.431913 0.778024
vn 0.888032 -0.132705 -0.440215
vn 0.121302 0.089101 -0.988609
vn 0.947027 0.310109 -0.083502
vn -0.497092 0.830087 0.252696
vn -0.616191 0.71299 0.334595
vn -0.679785 0.700885 0.215995
vn -0.760793 0.648994 -0
vn -0.922029 0.368312 0.119204
vn 0.346898 -0.438098 0.829296
vn 0.537284 -0.565884 0.625381
vn 0.439191 -0.292095 0.849583
vn 0.0407 0.030101 0.998718
vn 0.9968 -0.0536 0.0593
vn 0.906899 0.330699 0.2611
vn 0.239087 0.032698 0.970448
vn -0.225807 0.411213 0.883128
vn 0.94298 0.249694 0.220096
vn 0.309216 0.449523 -0.838042
vn 0.347498 -0.0332 -0.937093
vn 0.177306 -0.209807 -0.961532
vn 0.0192 0.045 -0.998803
vn 0.323806 0.687012 -0.650511
vn -0.274805 0.491109 -0.826616
vn -0.582635 -0.32882 -0.743246
vn -0.783839 -0.345717 -0.515826
vn -0.326881 0.281884 -0.902048
vn -0.587096 -0.260098 0.766595
vn -0.588373 -0.256388 0.766865
vn -0.411686 0.101397 0.905668
vn -0.944103 -0.296001 0.1451
vn -0.892395 -0.345398 0.290398
vn -0.278311 -0.462817 -0.841632
vn -0.537177 -0.305587 0.786166
vn -0.215298 0.745992 0.630193
vn -0.34471 0.68772 0.638918
vn -0.333987 0.937065 -0.101796
vn -0.361591 0.927876 -0.091098
vn -0.582635 -0.32882 -0.743246
vn -0.633493 0.0521 -0.771992
vn -0.326881 0.281884 -0.902048
vn -0.278311 -0.462817 -0.841632
vn -0.938701 0.254801 0.2322
vn -0.7216 0.1284 0.680299
vn -0.313686 0.154593 -0.936858
vn 0.806554 -0.233787 -0.542969
vn -0.28199 -0.124796 0.951266
vn -0.360503 -0.123801 0.924506
vn 0.471681 -0.401085 0.785269
vn -0.537177 -0.305587 0.786166
vn -0.987609 0.149702 0.0471
vn -0.099298 0.050299 -0.993786
vn 0.830088 -0.136798 -0.540592
vn 0.560061 0.824443 0.081394
vn 0.70657 0.706869 0.033099
vn 0.73162 0.679818 0.050802
vn 0.656513 0.754315 0
vn 0.916601 0.3943 -0.0661
vn -0.300988 -0.350286 0.886964
vn -0.363001 -0.1347 0.922001
vn -0.479904 -0.387703 0.787006
vn 0.0288 0.088902 0.995624
vn -0.983012 -0.0482 0.177102
vn -0.885611 0.372405 0.277503
vn -0.143496 0.192394 0.97077
vn 0.292312 0.403917 0.866836
vn -0.923013 0.283904 0.259704
vn -0.3986 0.2884 -0.8706
vn -0.390723 -0.18291 -0.902153
vn -0.060797 -0.042198 -0.997258
vn -0.1694 -0.2199 -0.960702
vn -0.415797 0.521198 -0.745296
vn 0.179704 0.403809 -0.89702
vn -0.143296 0.966774 0.211694
vn -0 0.9934 0.1147
vn -0 0.976858 0.213891
vn 0.0181 0.951728 0.306409
vn 0.143296 0.966774 0.211694
vn -0.018101 0.951728 0.306409
vn -0.80099 -0.587293 -0.116198
vn 0.0875 -0.790405 0.606304
vn -0.315103 -0.0608 0.947108
vn -0.76112 0.580216 -0.289908
vn 0.652083 -0.728081 -0.211394
vn 0.879156 0.47293 0.058504
vn 0.979945 0.119193 0.159691
vn 0.311595 -0.944183 -0.106897
vn -0.639285 -0.641585 -0.42389
vn -0.889443 -0.412119 -0.19761
vn 0.23909 0.969358 -0.056398
vn 0.34451 0.925628 0.156604
vn -0.771189 0.557692 -0.306996
vn -0.622478 0.782572 -0.0101
vn 0.960729 -0.198006 0.194406
vn 0.048899 -0.994981 -0.087298
vn -0.901287 -0.404394 -0.155398
vn 0.534721 0.815832 0.220208
vn -0.420606 0.899912 -0.115102
vn 0.903728 -0.346511 0.251408
vn 0.574717 0.785423 0.229807
vn 0.757203 -0.555502 0.343601
vn -0.138597 -0.973276 -0.183095
vn 0.468392 0.66519 0.581491
vn -0.927731 -0.048302 -0.370112
vn -0.512178 0.858864 -0.0052
vn -0.896573 0.087397 -0.434187
vn -0.787973 -0.404286 0.464384
vn 0.0238 0.453715 0.890829
vn 0.558195 -0.547196 0.623695
vn 0.326998 0.690596 0.645096
vn -0.606882 0.794577 0.018499
vn -0.753889 -0.495793 -0.431093
vn -0.445614 0.748225 -0.491516
vn -0.459906 -0.664408 0.589108
vn -0.160803 0.917014 0.365005
vn 0.85503 0.214107 -0.472316
vn -0.65863 0.350916 -0.665631
vn 0.236091 0.942564 -0.236292
vn -0.777012 -0.189103 -0.60041
vn 0.716924 0.677123 0.165905
vn 0.836127 -0.325511 0.441515
vn -0.609722 0.789829 0.066402
vn -0.850893 -0.502596 0.152899
vn 0.186803 -0.974515 0.124202
vn 0.200294 -0.473585 -0.857671
vn 0.544926 -0.392518 -0.740935
vn 0.021399 -0.972267 0.232892
vn -0.526704 -0.715406 -0.459104
vn 0.979991 0.083899 0.180499
vn -0.683106 -0.0774 -0.726206
vn -0.963718 0.205204 0.170703
vn -0.793677 0.458787 0.399488
vn -0.409303 -0.372702 -0.832805
vn 0.621725 -0.207208 -0.75533
vn 0.843792 -0.318697 -0.431796
vn -0.236796 0.498392 0.833986
vn -0.080799 0.660695 0.746294
vn 0.712558 0.288483 0.639562
vn 0.891521 0.351108 0.286207
vn -0.998941 -0.038501 0.025201
vn -0.300184 -0.493075 -0.816558
vn 0.740624 -0.507717 -0.440114
vn -0.445981 0.486979 0.750968
vn 0.69362 0.424712 0.581817
vn -0.988302 0.1522 0.0097
vn -0.308313 0.547223 0.778133
vn -0.983395 0.0976 -0.153
vn -0.200298 -0.313597 -0.928191
vn -0.364307 0.169003 0.915816
vn 0.881717 -0.295206 -0.368007
vn 0.735131 -0.073503 0.673929
vn 0.119994 -0.980155 -0.157793
vn 0.914195 -0.328898 -0.236798
vn -0.321703 -0.393703 0.861107
vn -0.910978 -0.39749 -0.110098
vn -0.2289 -0.0795 0.970198
vn 0.774479 -0.098498 0.624884
vn 0.578623 -0.306212 -0.75593
vn 0.902182 0.332993 0.274195
vn -0.299287 -0.90826 -0.292388
vn 0.318598 -0.0237 0.947594
vn -0.686471 0.71697 -0.121295
vn -0.040801 0.784319 0.619015
vn 0.835292 0.541695 -0.094099
vn 0.858315 0.151303 -0.490309
vn -0.951876 -0.305792 -0.0206
vn -0.632911 0.448608 0.631011
vn 0.683922 0.236607 0.690122
vn 0.714333 -0.632329 -0.299814
vn -0.345699 -0.602699 -0.719199
vn -0.065097 0.449382 -0.890965
vn -0.76822 -0.599115 -0.225607
vn 0.0188 -0.199599 -0.979697
vn 0.816677 -0.384789 -0.430088
vn -0.688784 -0.689884 0.222794
vn -0.564133 0.158909 -0.810248
vn 0.523276 0.165892 -0.83586
vn 0.300598 0.110799 -0.947293
vn -0.639819 -0.017601 -0.768324
vn 0.995055 0.045298 -0.088396
vn 0.994388 0.0354 -0.099698
vn -0.977527 -0.140004 0.157604
vn 0.229291 -0.162694 0.959665
vn 0.23721 0.099604 -0.966339
vn -0.779916 0.041401 -0.624514
vn 0.942182 0.043299 -0.332293
vn -0.879073 -0.063898 0.472385
vn 0.265611 0.359516 0.894539
vn 0.209295 0.220895 -0.952576
vn -0.844818 0.100603 -0.525511
vn 0.878011 0.330304 -0.346404
vn -0.903393 0.149799 0.401797
vn 0.909115 0.416507 0.005601
vn 0.135604 0.628716 0.765721
vn 0.635076 -0.168395 0.753872
vn 0.582673 -0.810864 0.054697
vn -0.661 0.5231 0.538001
vn -0.641834 -0.37062 0.671335
vn 0.254099 0.940595 0.2252
vn 0.883124 0.438712 -0.166204
vn -0.783132 0.395816 0.47962
vn 0.91472 -0.054401 -0.400409
vn 0.406079 0.641766 -0.650566
vn 0.808521 0.562215 -0.173804
vn 0.180396 0.0061 -0.983575
vn -0.475034 0.576241 -0.665048
vn -0.774707 -0.179502 -0.606307
vn -0.927729 0.364711 -0.079403
vn -0.921886 -0.305595 0.238196
vn -0.9016 0.3689 0.2259
vn -0.524578 -0.430381 0.734568
vn 0.888479 -0.227094 0.398791
vn 0.677396 0.723496 -0.132999
vn -0.133001 0.988213 -0.075801
vn 0.192389 -0.182789 0.964145
vn -0.039099 0.913484 0.404993
vn 0.784994 -0.599096 -0.157699
vn -0.77606 -0.38478 -0.499675
vn 0.066701 -0.199601 -0.977605
vn 0.666764 -0.689863 0.281985
vn 0.527003 0.312802 -0.790204
vn -0.318514 0.133706 -0.938441
vn -0.546784 0.142396 -0.825076
vn 0.63091 0.148502 -0.761512
vn -0.986973 -0.121297 -0.105697
vn -0.989233 -0.112504 -0.093603
vn 0.987836 0.0111 0.155106
vn -0.195502 -0.273103 0.94191
vn -0.241004 0.126702 -0.962218
vn 0.773781 0.183196 -0.606385
vn -0.934787 -0.098099 -0.341395
vn 0.880618 0.047801 0.47141
vn -0.278898 0.277698 0.919293
vn -0.1549 0.229501 -0.960904
vn 0.864927 0.163805 -0.474415
vn -0.865221 0.288307 -0.41021
vn 0.868683 0.189496 0.457691
vn -0.906136 0.416516 -0.073703
vn -0.698407 -0.168402 0.695607
vn -0.201801 0.628704 0.751005
vn -0.585191 -0.810887 0.0037
vn 0.580906 -0.370604 0.724708
vn 0.611585 0.523087 0.593586
vn -0.259907 0.944926 0.198905
vn -0.865297 0.438698 -0.242499
vn 0.737612 0.399707 0.544209
vn -0.894789 -0.172798 -0.411696
vn -0.890915 0.433108 -0.136703
vn -0.508981 0.615077 -0.602178
vn -0.1828 0.0534 -0.981699
vn 0.370788 0.697076 -0.613679
vn 0.791313 -0.0012 -0.61141
vn 0.854471 0.517782 -0.042198
vn 0.960604 -0.167201 0.222001
vn 0.829216 0.493609 0.262205
vn 0.591294 -0.394296 0.703493
vn -0.837225 -0.401012 0.371811
vn -0.787976 0.610182 -0.082298
vn -0.032199 0.999478 0.0028
vn -0.155792 -0.287085 0.945151
vn -0.110698 0.872783 0.475391
vn -0.049998 0.819165 0.571375
vn -0.497718 0.866032 -0.047602
vn -0.720902 0.681302 0.127
vn -0.049998 0.819165 0.571375
vn 0.967645 0.181389 -0.17539
vn -0.247309 0.54412 -0.80173
vn -0.497718 0.866032 -0.047602
vn 0.922505 -0.181401 0.340702
vn -0.967645 -0.181389 0.17539
vn -0.720902 0.681302 0.127
vn 0.247309 -0.54412 0.80173
vn -0.382802 -0.544102 0.746603
vn -0.994823 -0.092402 0.042301
vn -0.996507 -0.0786 0.0282
vn -0.994207 -0.107301 0.0062
vn -0.992401 -0.1187 0.0324
vn 0.972367 -0.092397 0.214393
vn 0.971706 -0.118701 0.204202
vn 0.978034 -0.107304 0.178706
vn 0.976475 -0.078598 0.200795
vn 0.0707 0.584098 -0.808598
vn 0.071898 0.564681 -0.822172
vn 0.071898 0.564681 -0.822172
vn 0.070102 0.593713 -0.801618
vn -0.049998 0.819165 0.571375
vn -0.049998 0.819165 0.571375
vn -0.049998 0.819165 0.571375
vn -0.992065 -0.122096 -0.029999
vn -0.991304 -0.1126 -0.068101
vn 0.982192 -0.122099 0.142799
vn 0.988067 -0.112596 0.105097
vn 0.068302 0.622016 -0.78002
vn 0.049998 0.819165 0.571375
vn -0.498418 0.866032 0.039601
vn -0.687908 0.681308 0.250203
vn 0.049998 0.819165 0.571375
vn 0.922505 0.181401 -0.340702
vn -0.382801 0.544102 -0.746603
vn -0.498418 0.866032 0.039601
vn 0.967638 -0.181407 0.175407
vn -0.922505 -0.181401 0.340702
vn -0.687908 0.681308 0.250203
vn 0.382801 -0.544102 0.746603
vn -0.247309 -0.54412 0.80173
vn -0.972368 -0.092397 0.214393
vn -0.976475 -0.078598 0.200795
vn -0.978016 -0.107302 0.178803
vn -0.971706 -0.118701 0.204201
vn 0.994823 -0.092402 0.042301
vn 0.992405 -0.118701 0.0323
vn 0.994207 -0.107301 0.0062
vn 0.996507 -0.078601 0.0282
vn -0.0707 0.584098 -0.808598
vn -0.071897 0.564681 -0.822172
vn -0.071897 0.564681 -0.822172
vn -0.070101 0.593713 -0.801618
vn 0.049998 0.819165 0.571375
vn 0.049998 0.819165 0.571375
vn 0.049998 0.819165 0.571375
vn -0.982192 -0.122099 0.142799
vn -0.988067 -0.112596 0.105096
vn 0.992065 -0.122096 -0.029999
vn 0.991304 -0.112601 -0.0681
vn -0.068202 0.62202 -0.780025
vn -0.665016 0.247806 -0.704518
vn -0.34119 0.771377 -0.537184
vn -0.2531 0.841501 -0.477301
vn -0.209895 0.332693 -0.91938
vn -0.209895 0.332693 -0.91938
vn -0.2531 0.841501 -0.477301
vn 0.108599 0.871896 -0.477498
vn 0.407313 0.307609 -0.859926
vn 0.509919 0.712827 -0.481518
vn 0.804276 0.132996 -0.579183
vn -0.729673 0.0129 0.683675
vn -0.495586 -0.274992 0.823877
vn -0.283999 -0.0209 0.958597
vn -0.722387 -0.125598 0.679987
vn 0.363184 -0.0105 0.931659
vn 0.0044 -0.0847 0.996397
vn 0.475396 -0.173499 0.862494
vn 0.759693 0.0376 0.649194
vn 0.721105 -0.0357 0.691905
vn -0.244804 -0.051301 0.968215
vn -0.698591 -0.057699 0.713191
vn 0.25789 -0.092197 0.961765
vn 0.733106 -0.109101 0.671306
vn -0.256803 0.156502 0.953708
vn 0.131798 0.192597 0.972387
vn 0.600705 0.134901 0.788007
vn 0.943632 0.161705 -0.28881
vn 0.991247 -0.053703 -0.120606
vn 0.948242 -0.136506 0.286713
vn 0.946751 -0.174909 0.270315
vn 0.958601 -0.0054 0.284701
vn 0.1499 0.986003 -0.073
vn 0.229509 0.971039 -0.066403
vn -0.069302 0.994627 -0.076902
vn -0.213498 0.973889 -0.077199
vn -0.069302 0.994627 -0.076902
vn -0.944224 -0.136003 0.299907
vn -0.95502 -0.140203 0.261305
vn -0.957221 -0.214505 0.194204
vn 0.978468 -0.206393 -0.0017
vn -0.988452 -0.122206 -0.089605
vn -0.980321 -0.197404 0.0014
vn 0.245491 0.048898 -0.968165
vn -0.462603 0.0589 -0.884607
vn 0.819194 0.0192 -0.573196
vn -0.874151 -0.057197 -0.482274
vn -0.462603 0.0589 -0.884607
vn -0.551418 0.521517 0.651121
vn -0.490493 0.594692 0.636991
vn -0.916073 -0.029999 0.399888
vn -0.230695 0.449491 0.862982
vn -0.529606 0.0238 0.84791
vn 0.923719 0.309006 0.226405
vn 0.987706 0.1039 -0.116801
vn 0.736702 0.510901 0.443002
vn 0.745466 0.666469 -0.009999
vn 0.928327 0.371211 0.020301
vn 0.886175 0.449387 -0.112897
vn 0.756028 0.637424 0.148706
vn 0.955469 0.188194 0.227293
vn -0.208699 0.916494 0.341298
vn 0.059301 0.950117 0.306205
vn -0.47761 0.876917 0.053901
vn -0.255588 0.908655 0.330184
vn 0.059301 0.950117 0.306205
vn 0.26589 0.952466 0.148695
vn -0.900579 0.409691 -0.145297
vn -0.889996 0.1444 -0.432499
vn -0.948127 0.245207 -0.202306
vn -0.981904 0.089301 -0.167001
vn -0.935616 0.331306 0.121902
vn 0.974407 0.216101 0.061901
vn 0.0001 0.196693 0.980465
vn 0.9805 -0.0502 0.19
vn 0.0001 -0.253203 0.967413
vn 0.938134 0.343013 0.047402
vn 0.571801 0.2731 -0.773602
vn 0.334281 0.51587 -0.788755
vn -0.565297 0.357699 -0.743297
vn -0.511109 0.516109 -0.687313
vn 0.869158 -0.436479 0.232489
vn -0 -0.408197 0.912894
vn 0.68823 -0.189409 -0.700331
vn -0.523711 -0.128703 -0.842118
vn -0.0003 0.852584 -0.52259
vn -0.784724 0.607518 -0.123004
vn -0.0004 0.811606 -0.584205
vn -0.788344 0.585932 0.18761
vn -0.574635 0.440827 0.689541
vn -0.283001 0.350701 0.892703
vn 0.436595 0.414096 0.798692
vn 0.429494 0.376395 0.82089
vn -0 0.940649 0.339382
vn 0.3767 0.9256 0.0369
vn -0 0.997484 -0.070899
vn 0.221408 0.904534 -0.364414
vn -0.221491 0.904162 -0.365285
vn -0.980805 -0.0499 0.188501
vn -0.937813 0.344105 0.0458
vn -0.868911 -0.437705 0.231103
vn 0.78439 0.608192 -0.121798
vn 0.78788 0.585885 0.189695
vn -0.376919 0.925546 0.036002
vn 0 -0.063599 -0.997976
vn 0.988057 -0.073197 -0.135594
vn 0 0.150599 -0.988595
vn 0.987065 -0.150595 0.054998
vn 0.525795 -0.221398 0.821293
vn 0.344011 -0.261109 0.90193
vn -0.524318 -0.228008 0.820428
vn -0.525691 -0.247796 0.813785
vn 0.961272 0.097997 -0.257592
vn 0 0.48622 -0.873837
vn 0.680972 -0.141694 0.718471
vn -0.519402 -0.1746 0.836503
vn 0.0002 -0.538512 -0.842618
vn 0.880604 -0.402102 -0.250701
vn 0.0002 -0.561306 -0.827609
vn 0.916839 -0.376416 0.133106
vn 0.614413 -0.428609 0.662414
vn 0.317395 -0.510293 0.799288
vn -0.466316 -0.465516 0.752226
vn -0.483002 -0.495401 0.722002
vn 0 -0.907482 -0.420092
vn 0.303485 -0.945552 -0.117594
vn 0 -0.999874 -0.0159
vn 0.178004 -0.941822 0.285107
vn -0.178101 -0.941502 0.286101
vn -0.9883 -0.0734 -0.1337
vn -0.986882 -0.150897 0.057399
vn -0.961568 0.098497 -0.256292
vn -0.880461 -0.402982 -0.249789
vn -0.916266 -0.376886 0.135695
vn -0.303611 -0.945634 -0.116604
vn -0 0.996191 0.087199
vn -0 0.996191 0.087199
vn -0 0.996191 0.087199
vn -0 0.996191 0.087199
vn -0 0.836014 0.548709
vn -0 0.836014 0.548709
vn -0 0.836014 0.548709
vn -0.693572 0.103796 0.712871
vn -0.693572 0.103796 0.712871
vn -0.693572 0.103796 0.712871
vn -0.693572 0.103796 0.712871
vn -0.867825 0.308609 -0.389411
vn -0.867825 0.308609 -0.389411
vn -0.867825 0.308609 -0.389411
vn -0.867825 0.308609 -0.389411
vn 0 0.487629 -0.873051
vn 0 0.487629 -0.873051
vn 0 0.487629 -0.873051
vn 0 0.487629 -0.873051
vn 0.68259 0.129198 0.71929
vn 0.68259 0.129198 0.71929
vn 0.68259 0.129198 0.71929
vn 0.68259 0.129198 0.71929
vn 0.857393 0.341997 -0.384597
vn 0.857393 0.341997 -0.384597
vn 0.857393 0.341997 -0.384597
vn 0.857393 0.341997 -0.384597
vt 0.2462 0.5695
vt 0.2462 0.6553
vt 0.3256 0.6537
vt 0.3265 0.5957
vt 0.3359 0.6495
vt 0.3502 0.589
vt 0.3131 0.6469
vt 0.3168 0.5798
vt 0.2462 0.6422
vt 0.2462 0.5616
vt 0.2901 0.3506
vt 0.3582 0.3413
vt 0.348 0.4866
vt 0.2801 0.4658
vt 0.4069 0.3301
vt 0.3901 0.4862
vt 0.3582 0.3413
vt 0.348 0.4866
vt 0.2901 0.3506
vt 0.2801 0.4658
vt 0.3249 0.6537
vt 0.3259 0.5957
vt 0.3353 0.6495
vt 0.3495 0.589
vt 0.3125 0.6469
vt 0.3161 0.5798
vt 0.2894 0.3506
vt 0.3473 0.4866
vt 0.3575 0.3413
vt 0.2794 0.4658
vt 0.3895 0.4862
vt 0.4062 0.3301
vt 0.3473 0.4866
vt 0.3575 0.3413
vt 0.2794 0.4658
vt 0.2894 0.3506
vt 0.8875 0.8879
vt 0.9402 0.9712
vt 0.9537 0.8569
vt 0.8746 0.8422
vt 0.8713 0.8518
vt 0.8832 0.7304
vt 0.8721 0.7043
vt 0.9524 0.7333
vt 0.9809 0.8528
vt 0.9864 0.7056
vt 0.9387 0.8124
vt 0.9409 0.6891
vt 0.9504 0.5156
vt 0.8883 0.516
vt 0.979 0.5416
vt 0.8786 0.5429
vt 0.9392 0.5585
vt 0.9705 0.5161
vt 0.8778 0.5157
vt 0.9274 0.5159
vt 0.8654 0.977
vt 0.8875 0.8879
vt 0.9553 0.8569
vt 0.9402 0.9712
vt 0.8746 0.8422
vt 0.8713 0.8518
vt 0.8832 0.7304
vt 0.8721 0.7043
vt 0.9556 0.7333
vt 0.9878 0.7056
vt 0.981 0.8528
vt 0.9387 0.8124
vt 0.9379 0.6891
vt 0.9522 0.5156
vt 0.8883 0.516
vt 0.9789 0.5416
vt 0.8786 0.5429
vt 0.939 0.5585
vt 0.9704 0.5161
vt 0.8778 0.5157
vt 0.9274 0.5159
vt 0.8654 0.8989
vt 0.9367 0.929
vt 0.9366 0.929
vt 0.9322 0.9927
vt 0.8654 0.9906
vt 0.9322 0.9927
vt 0.2462 0.6553
vt 0.2462 0.7057
vt 0.3533 0.7103
vt 0.3256 0.6537
vt 0.2462 0.8553
vt 0.3518 0.8105
vt 0.2462 0.6422
vt 0.3131 0.6469
vt 0.3397 0.7007
vt 0.2462 0.6751
vt 0.3301 0.7807
vt 0.2462 0.766
vt 0.2462 0.7284
vt 0.2462 0.7976
vt 0.367 0.7062
vt 0.3359 0.6495
vt 0.3692 0.7383
vt 0.3675 0.776
vt 0.3518 0.817
vt 0.2951 0.8451
vt 0.2462 0.8397
vt 0.3657 0.8396
vt 0.2947 0.8636
vt 0.8282 0.2075
vt 0.8263 0.3452
vt 0.8736 0.3299
vt 0.8467 0.2426
vt 0.9372 0.2831
vt 0.9792 0.1245
vt 0.9436 0.1035
vt 0.8909 0.061
vt 0.8736 0.3215
vt 0.9569 0.0342
vt 0.8447 0.2899
vt 0.9137 0.0225
vt 0.9896 0.0413
vt 0.9597 0.0343
vt 0.8992 0.0177
vt 0.9919 0.2712
vt 0.9408 0.2712
vt 0.9408 0.3761
vt 0.9919 0.3761
vt 0.8833 0.3237
vt 0.5906 0.431
vt 0.6316 0.471
vt 0.6188 0.5033
vt 0.538 0.4766
vt 0.7139 0.4399
vt 0.7068 0.5917
vt 0.5915 0.5738
vt 0.5382 0.5223
vt 0.6641 0.719
vt 0.6188 0.5033
vt 0.6316 0.471
vt 0.5906 0.431
vt 0.538 0.4766
vt 0.5915 0.5738
vt 0.5382 0.5223
vt 0.3527 0.7103
vt 0.3249 0.6537
vt 0.3511 0.8105
vt 0.339 0.7007
vt 0.3125 0.6469
vt 0.3295 0.7807
vt 0.3664 0.7062
vt 0.3353 0.6495
vt 0.3685 0.7383
vt 0.3668 0.776
vt 0.2944 0.8451
vt 0.3511 0.817
vt 0.3651 0.8396
vt 0.2941 0.8636
vt 0.829 0.2075
vt 0.8743 0.3299
vt 0.8271 0.3452
vt 0.8474 0.2426
vt 0.9799 0.1245
vt 0.9379 0.2831
vt 0.9444 0.1035
vt 0.8917 0.061
vt 0.9576 0.0342
vt 0.8743 0.3215
vt 0.9144 0.0225
vt 0.8455 0.2899
vt 0.9904 0.0413
vt 0.9605 0.0343
vt 0.8999 0.0177
vt 0.9924 0.2712
vt 0.9413 0.3761
vt 0.9413 0.2712
vt 0.9924 0.3761
vt 0.8837 0.3237
vt 0.5899 0.431
vt 0.618 0.5033
vt 0.6309 0.471
vt 0.5373 0.4766
vt 0.7132 0.4399
vt 0.7061 0.5917
vt 0.5907 0.5738
vt 0.5374 0.5223
vt 0.6634 0.719
vt 0.618 0.5033
vt 0.6309 0.471
vt 0.5373 0.4766
vt 0.5899 0.431
vt 0.5907 0.5738
vt 0.5374 0.5223
vt 0.2947 0.8636
vt 0.2462 0.8553
vt 0.2462 0.8397
vt 0.2951 0.8451
vt 0.2941 0.8636
vt 0.2944 0.8451
vt 0.6149 0.0142
vt 0.6091 0.0141
vt 0.5646 0.007
vt 0.5646 0.0069
vt 0.6259 0.3203
vt 0.5944 0.3317
vt 0.5964 0.2636
vt 0.6431 0.2474
vt 0.5944 0.3093
vt 0.5964 0.2412
vt 0.5674 0.321
vt 0.5556 0.2671
vt 0.5581 0.3116
vt 0.5418 0.2596
vt 0.601 0.1763
vt 0.6186 0.1593
vt 0.5903 0.1497
vt 0.5666 0.1772
vt 0.5613 0.1601
vt 0.6112 0.1498
vt 0.5614 0.1509
vt 0.614 0.1102
vt 0.6201 0.0771
vt 0.5618 0.1084
vt 0.5857 0.0756
vt 0.5378 0.0847
vt 0.546 0.079
vt 0.5465 0.0725
vt 0.5384 0.0782
vt 0.6153 0.0698
vt 0.5662 0.0693
vt 0.5662 0.0778
vt 0.5656 0.113
vt 0.5489 0.1233
vt 0.5662 0.1004
vt 0.5494 0.1108
vt 0.6334 0.37
vt 0.5386 0.3294
vt 0.5386 0.3497
vt 0.6334 0.3266
vt 0.5386 0.3069
vt 0.6334 0.3098
vt 0.5386 0.2867
vt 0.6334 0.2839
vt 0.6894 0.3238
vt 0.6785 0.4428
vt 0.6149 0.0142
vt 0.5646 0.007
vt 0.6091 0.0141
vt 0.5646 0.0069
vt 0.6259 0.3203
vt 0.5964 0.2636
vt 0.5944 0.3317
vt 0.6431 0.2474
vt 0.5944 0.3093
vt 0.5964 0.2412
vt 0.5556 0.2671
vt 0.5674 0.321
vt 0.5418 0.2596
vt 0.5581 0.3116
vt 0.601 0.1763
vt 0.6186 0.1593
vt 0.5903 0.1497
vt 0.5666 0.1772
vt 0.5613 0.1601
vt 0.6112 0.1498
vt 0.5614 0.1509
vt 0.614 0.1102
vt 0.6201 0.0771
vt 0.5618 0.1084
vt 0.5857 0.0756
vt 0.5378 0.0847
vt 0.5465 0.0725
vt 0.546 0.079
vt 0.5384 0.0782
vt 0.6153 0.0698
vt 0.5662 0.0693
vt 0.5662 0.0778
vt 0.5656 0.113
vt 0.5489 0.1233
vt 0.5662 0.1004
vt 0.5494 0.1108
vt 0.6334 0.37
vt 0.5386 0.3497
vt 0.5386 0.3294
vt 0.6334 0.3266
vt 0.6334 0.3098
vt 0.5386 0.3069
vt 0.5386 0.2867
vt 0.6334 0.2839
vt 0.6894 0.3238
vt 0.6785 0.4428
vt 0.9296 0.014
vt 0.9296 0.0143
vt 0.8818 0.0138
vt 0.8818 0.0135
vt 0.9224 0.3611
vt 0.9224 0.3606
vt 0.9315 0.2939
vt 0.9315 0.2931
vt 0.8811 0.3567
vt 0.8825 0.2749
vt 0.8811 0.3563
vt 0.8229 0.3569
vt 0.9107 0.1439
vt 0.9107 0.1436
vt 0.8827 0.1266
vt 0.8827 0.1262
vt 0.8408 0.1117
vt 0.9259 0.0616
vt 0.9259 0.0613
vt 0.883 0.0877
vt 0.883 0.0874
vt 0.7673 0.0502
vt 0.7381 0.0752
vt 0.7266 0.0136
vt 0.7582 0.0138
vt 0.7673 0.0499
vt 0.7582 0.0135
vt 0.8027 0.0883
vt 0.8192 0.0565
vt 0.8192 0.0562
vt 0.877 0.3225
vt 0.9391 0.3744
vt 0.8795 0.3744
vt 0.9342 0.3225
vt 0.9391 0.3744
vt 0.9342 0.3225
vt 0.8795 0.3744
vt 0.877 0.3225
vt 0.8098 0.4035
vt 0.8094 0.2866
vt 0.8094 0.2866
vt 0.8098 0.4035
vt 0.8795 0.3744
vt 0.7496 0.3875
vt 0.7891 0.4938
vt 0.9296 0.014
vt 0.8818 0.0138
vt 0.9296 0.0143
vt 0.8818 0.0135
vt 0.9224 0.3611
vt 0.9315 0.2939
vt 0.9224 0.3606
vt 0.9315 0.2931
vt 0.8825 0.2749
vt 0.8811 0.3567
vt 0.8811 0.3563
vt 0.8229 0.3569
vt 0.9107 0.1439
vt 0.9107 0.1436
vt 0.8827 0.1266
vt 0.8827 0.1262
vt 0.8408 0.1117
vt 0.9259 0.0616
vt 0.9259 0.0613
vt 0.883 0.0877
vt 0.883 0.0874
vt 0.7673 0.0502
vt 0.7266 0.0136
vt 0.7381 0.0752
vt 0.7582 0.0138
vt 0.7582 0.0135
vt 0.7673 0.0499
vt 0.8027 0.0883
vt 0.8192 0.0565
vt 0.8192 0.0562
vt 0.877 0.3225
vt 0.8795 0.3744
vt 0.9391 0.3744
vt 0.9342 0.3225
vt 0.9391 0.3744
vt 0.9342 0.3225
vt 0.8795 0.3744
vt 0.877 0.3225
vt 0.8098 0.4035
vt 0.8094 0.2866
vt 0.8094 0.2866
vt 0.8098 0.4035
vt 0.8795 0.3744
vt 0.7496 0.3875
vt 0.7891 0.4938
vt 0.4832 0.3019
vt 0.4672 0.3435
vt 0.4511 0.3019
vt 0.4672 0.2602
vt 0.4945 0.6861
vt 0.5079 0.6861
vt 0.5079 0.8123
vt 0.4945 0.8123
vt 0.4945 0.6861
vt 0.4945 0.8123
vt 0.4812 0.6861
vt 0.4812 0.8123
vt 0.4254 0.6867
vt 0.511 0.6867
vt 0.4978 0.1782
vt 0.4184 0.1417
vt 0.4254 0.6867
vt 0.4184 0.1417
vt 0.4978 0.1782
vt 0.511 0.6867
vt 0.5093 0.1741
vt 0.5093 0.6999
vt 0.5264 0.6999
vt 0.5264 0.1741
vt 0.4669 0.0861
vt 0.4814 0.3532
vt 0.4523 0.3532
vt 0.4436 0.0654
vt 0.5013 0.014
vt 0.4436 0.0654
vt 0.5013 0.014
vt 0.5178 0.0104
vt 0.4831 0.3019
vt 0.467 0.3435
vt 0.451 0.3019
vt 0.467 0.2602
vt 0.4945 0.6861
vt 0.5079 0.6861
vt 0.5079 0.8123
vt 0.4945 0.8123
vt 0.4945 0.6861
vt 0.4945 0.8123
vt 0.4812 0.6861
vt 0.4812 0.8123
vt 0.4254 0.6867
vt 0.511 0.6867
vt 0.4978 0.1782
vt 0.4184 0.1417
vt 0.4254 0.6867
vt 0.4184 0.1417
vt 0.4978 0.1782
vt 0.511 0.6867
vt 0.5092 0.1741
vt 0.5092 0.6999
vt 0.5262 0.6999
vt 0.5262 0.1741
vt 0.4668 0.0861
vt 0.4813 0.3532
vt 0.4522 0.3532
vt 0.4436 0.0654
vt 0.5013 0.014
vt 0.4436 0.0654
vt 0.5013 0.014
vt 0.5177 0.0104
vt 0.4634 0.9672
vt 0.4668 0.9759
vt 0.4427 0.982
vt 0.4442 0.9703
vt 0.6552 0.9703
vt 0.6537 0.982
vt 0.6378 0.982
vt 0.6356 0.9703
vt 0.6149 0.9759
vt 0.617 0.9672
vt 0.5117 0.9106
vt 0.5339 0.9019
vt 0.5357 0.9303
vt 0.5104 0.931
vt 0.5488 0.9303
vt 0.5421 0.9043
vt 0.5503 0.9019
vt 0.5713 0.9106
vt 0.5726 0.931
vt 0.5303 0.9447
vt 0.5089 0.9506
vt 0.5538 0.9447
vt 0.5739 0.9506
vt 0.5238 0.9827
vt 0.5555 0.9825
vt 0.5745 0.9835
vt 0.6071 0.9753
vt 0.6138 0.9545
vt 0.5901 0.9216
vt 0.5908 0.9493
vt 0.5911 0.9717
vt 0.5634 0.9876
vt 0.5949 0.9787
vt 0.707 0.9876
vt 0.4899 0.9796
vt 0.5247 0.9876
vt 0.4911 0.9808
vt 0.489 0.9475
vt 0.4898 0.9198
vt 0.6066 0.9303
vt 0.4757 0.9592
vt 0.4723 0.9285
vt 0.6315 0.9226
vt 0.6594 0.9226
vt 0.6174 0.9226
vt 0.463 0.9226
vt 0.4484 0.9226
vt 0.5122 0.9731
vt 0.507 0.969
vt 0.4685 0.947
vt 0.5345 0.9751
vt 0.4989 0.9933
vt 0.552 0.9951
vt 0.5776 0.9666
vt 0.568 0.9872
vt 0.614 0.9835
vt 0.6071 0.9777
vt 0.6229 0.9734
vt 0.5939 0.981
vt 0.5907 0.9669
vt 0.5551 0.994
vt 0.6941 0.9865
vt 0.6336 1.0001
vt 0.4889 0.981
vt 0.4831 0.9992
vt 0.4527 0.9987
vt 0.4677 0.9835
vt 0.463 0.9676
vt 0.4737 0.9777
vt 0.4756 0.9578
vt 0.4913 0.9794
vt 0.6202 0.9411
vt 0.1435 0.0043
vt 0.226 0.0651
vt 0.1415 0.0384
vt 0.2376 0.0187
vt 0.3208 0.0476
vt 0.3347 0.0187
vt 0.3208 0.0476
vt 0.3347 0.0187
vt 0.2271 0.0988
vt 0.1315 0.0726
vt 0.3158 0.1574
vt 0.3158 0.1574
vt 0.1315 0.0726
vt 0.2529 0.0337
vt 0.2066 0.0244
vt 0.2271 0.0988
vt 0.2826 0.0325
vt 0.3158 0.1574
vt 0.2826 0.0325
vt 0.3158 0.1574
vt 0.2066 0.0244
vt 0.2529 0.0337
vt 0.2597 0.0453
vt 0.2826 0.0325
vt 0.2826 0.0325
vt 0.226 0.0651
vt 0.2376 0.0187
vt 0.2271 0.0988
vt 0.2529 0.0337
vt 0.2271 0.0988
vt 0.2529 0.0337
vt 0.1747 0.3434
vt 0.1028 0.1997
vt 0.1713 0.2289
vt 0.0981 0.2908
vt 0.0312 0.191
vt 0.0078 0.2825
vt 0.0312 0.191
vt 0.0078 0.2825
vt 0.1043 0.1696
vt 0.1935 0.1872
vt 0.0388 0.1568
vt 0.0388 0.1568
vt 0.1935 0.1872
vt 0.1001 0.0963
vt 0.1425 0.1085
vt 0.1043 0.1696
vt 0.0723 0.0948
vt 0.0388 0.1568
vt 0.0723 0.0948
vt 0.0388 0.1568
vt 0.1425 0.1085
vt 0.1001 0.0963
vt 0.0946 0.0853
vt 0.0723 0.0948
vt 0.0723 0.0948
vt 0.1028 0.1997
vt 0.0981 0.2908
vt 0.1043 0.1696
vt 0.1001 0.0963
vt 0.1043 0.1696
vt 0.1001 0.0963
vt 0.9353 0.1607
vt 0.9353 0.1607
vt 0.894 0.1572
vt 0.894 0.1572
vt 0.9704 0.1827
vt 0.9353 0.1607
vt 0.9353 0.1607
vt 0.9131 0.2584
vt 0.9917 0.2595
vt 0.9704 0.1827
vt 0.9353 0.1607
vt 0.8309 0.2438
vt 0.9131 0.2584
vt 0.9353 0.1607
vt 0.894 0.1572
vt 0.8309 0.2438
vt 0.8309 0.2438
vt 0.894 0.1572
vt 0.894 0.1572
vt 0.9917 0.2595
vt 0.9131 0.2584
vt 0.9353 0.1607
vt 0.9704 0.1827
vt 0.9131 0.2584
vt 0.8309 0.2438
vt 0.894 0.1572
vt 0.9353 0.1607
f 1/1/1 3/3/3 2/2/2
f 3/3/3 1/1/1 4/4/4
f 4/4/4 5/5/5 3/3/3
f 5/5/5 4/4/4 6/6/6
f 6/6/6 7/7/7 5/5/5
f 7/7/7 6/6/6 8/8/8
f 8/8/8 10/10/10 9/9/9
f 7/7/7 8/8/8 9/9/9
f 11/11/11 13/13/13 12/12/12
f 13/13/13 11/11/11 14/14/14
f 12/12/12 16/16/16 15/15/15
f 16/16/16 12/12/12 13/13/13
f 14/14/14 8/8/8 13/13/13
f 8/8/8 14/14/14 10/10/10
f 13/13/13 6/6/6 16/16/16
f 6/6/6 13/13/13 8/8/8
f 15/15/15 18/18/18 17/17/17
f 18/18/18 15/15/15 16/16/16
f 17/17/17 20/20/20 19/19/19
f 20/20/20 17/17/17 18/18/18
f 16/16/16 4/4/4 18/18/18
f 4/4/4 16/16/16 6/6/6
f 18/18/18 1/1/1 20/20/20
f 1/1/1 18/18/18 4/4/4
f 1/1/1 2/2/2 21/21/21
f 21/21/21 22/22/22 1/1/1
f 22/22/22 21/21/21 23/23/23
f 23/23/23 24/24/24 22/22/22
f 24/24/24 23/23/23 25/25/25
f 25/25/25 26/26/26 24/24/24
f 26/26/26 9/9/9 10/10/10
f 25/25/25 9/9/9 26/26/26
f 27/27/27 29/29/29 28/28/28
f 28/28/28 30/30/30 27/27/27
f 29/29/29 32/32/32 31/31/31
f 31/31/31 28/28/28 29/29/29
f 30/30/30 28/28/28 26/26/26
f 26/26/26 10/10/10 30/30/30
f 28/28/28 31/31/31 24/24/24
f 24/24/24 26/26/26 28/28/28
f 32/32/32 34/34/34 33/33/33
f 33/33/33 31/31/31 32/32/32
f 34/34/34 36/36/36 35/35/35
f 35/35/35 33/33/33 34/34/34
f 31/31/31 33/33/33 22/22/22
f 22/22/22 24/24/24 31/31/31
f 33/33/33 35/35/35 1/1/1
f 1/1/1 22/22/22 33/33/33
f 37/37/37 39/39/39 38/38/38
f 39/39/39 37/37/37 40/40/40
f 41/41/41 42/42/42 40/40/40
f 42/42/42 41/41/41 43/43/43
f 40/40/40 44/44/44 39/39/39
f 44/44/44 40/40/40 42/42/42
f 39/39/39 46/46/46 45/45/45
f 46/46/46 39/39/39 44/44/44
f 47/47/47 43/43/43 41/41/41
f 43/43/43 47/47/47 48/48/48
f 45/45/45 48/48/48 47/47/47
f 48/48/48 45/45/45 46/46/46
f 42/42/42 49/49/49 44/44/44
f 49/49/49 42/42/42 50/50/50
f 44/44/44 51/51/51 46/46/46
f 51/51/51 44/44/44 49/49/49
f 43/43/43 50/50/50 42/42/42
f 50/50/50 43/43/43 52/52/52
f 46/46/46 53/53/53 48/48/48
f 53/53/53 46/46/46 51/51/51
f 48/48/48 52/52/52 43/43/43
f 52/52/52 48/48/48 53/53/53
f 49/49/49 54/54/54 51/51/51
f 50/50/50 52/52/52 55/55/55
f 51/51/51 56/56/56 53/53/53
f 56/56/56 51/51/51 54/54/54
f 53/53/53 55/55/55 52/52/52
f 55/55/55 53/53/53 56/56/56
f 57/57/57 37/37/37 38/38/38
f 58/58/58 60/60/60 59/59/59
f 59/59/59 61/61/61 58/58/58
f 62/62/62 61/61/61 63/63/63
f 63/63/63 64/64/64 62/62/62
f 61/61/61 59/59/59 65/65/65
f 65/65/65 63/63/63 61/61/61
f 59/59/59 67/67/67 66/66/66
f 66/66/66 65/65/65 59/59/59
f 68/68/68 62/62/62 64/64/64
f 64/64/64 69/69/69 68/68/68
f 67/67/67 68/68/68 69/69/69
f 69/69/69 66/66/66 67/67/67
f 63/63/63 65/65/65 70/70/70
f 70/70/70 71/71/71 63/63/63
f 65/65/65 66/66/66 72/72/72
f 72/72/72 70/70/70 65/65/65
f 64/64/64 63/63/63 71/71/71
f 71/71/71 73/73/73 64/64/64
f 66/66/66 69/69/69 74/74/74
f 74/74/74 72/72/72 66/66/66
f 69/69/69 64/64/64 73/73/73
f 73/73/73 74/74/74 69/69/69
f 70/70/70 72/72/72 75/75/75
f 71/71/71 76/76/76 73/73/73
f 72/72/72 74/74/74 77/77/77
f 77/77/77 75/75/75 72/72/72
f 74/74/74 73/73/73 76/76/76
f 76/76/76 77/77/77 74/74/74
f 57/57/57 60/60/60 58/58/58
f 57/57/57 58/58/58 37/37/37
f 61/61/61 41/41/41 40/40/40
f 61/61/61 62/62/62 41/41/41
f 58/58/58 40/40/40 37/37/37
f 58/58/58 61/61/61 40/40/40
f 78/78/78 41/41/41 62/62/62
f 79/79/79 41/41/41 78/78/78
f 78/78/78 62/62/62 80/80/80
f 79/79/79 47/47/47 41/41/41
f 62/62/62 68/68/68 80/80/80
f 79/79/79 82/82/82 81/81/81
f 79/79/79 78/78/78 82/82/82
f 80/80/80 82/82/82 78/78/78
f 80/80/80 83/83/83 82/82/82
f 84/84/84 86/86/86 85/85/85
f 86/86/86 84/84/84 87/87/87
f 85/85/85 89/89/89 88/88/88
f 89/89/89 85/85/85 86/86/86
f 90/90/90 92/92/92 91/91/91
f 92/92/92 90/90/90 93/93/93
f 94/94/94 96/96/96 95/95/95
f 94/94/94 95/95/95 97/97/97
f 87/87/87 98/98/98 86/86/86
f 98/98/98 87/87/87 99/99/99
f 100/100/100 86/86/86 98/98/98
f 99/99/99 92/92/92 98/98/98
f 92/92/92 99/99/99 91/91/91
f 98/98/98 101/101/101 100/100/100
f 101/101/101 98/98/98 92/92/92
f 97/97/97 103/103/103 102/102/102
f 103/103/103 97/97/97 104/104/104
f 105/105/105 106/106/106 89/89/89
f 102/102/102 106/106/106 105/105/105
f 106/106/106 102/102/102 103/103/103
f 107/107/107 109/109/109 108/108/108
f 110/110/110 109/109/109 107/107/107
f 92/92/92 94/94/94 101/101/101
f 101/101/101 94/94/94 102/102/102
f 97/97/97 102/102/102 94/94/94
f 109/109/109 112/112/112 111/111/111
f 112/112/112 109/109/109 113/113/113
f 110/110/110 113/113/113 109/109/109
f 113/113/113 110/110/110 114/114/114
f 111/111/111 116/116/116 115/115/115
f 116/116/116 111/111/111 112/112/112
f 115/115/115 118/118/118 117/117/117
f 118/118/118 115/115/115 116/116/116
f 117/117/117 114/114/114 110/110/110
f 114/114/114 117/117/117 118/118/118
f 113/113/113 119/119/119 112/112/112
f 119/119/119 113/113/113 120/120/120
f 114/114/114 120/120/120 113/113/113
f 120/120/120 114/114/114 121/121/121
f 116/116/116 112/112/112 119/119/119
f 118/118/118 121/121/121 114/114/114
f 88/88/88 89/89/89 106/106/106
f 94/94/94 92/92/92 96/96/96
f 92/92/92 93/93/93 96/96/96
f 122/122/122 124/124/124 123/123/123
f 124/124/124 122/122/122 125/125/125
f 126/126/126 123/123/123 124/124/124
f 127/127/127 129/129/129 128/128/128
f 129/129/129 127/127/127 130/130/130
f 129/129/129 132/132/132 131/131/131
f 131/131/131 128/128/128 129/129/129
f 130/130/130 133/133/133 129/129/129
f 133/133/133 130/130/130 134/134/134
f 133/133/133 135/135/135 132/132/132
f 132/132/132 129/129/129 133/133/133
f 132/132/132 136/136/136 131/131/131
f 137/137/137 131/131/131 136/136/136
f 137/137/137 139/139/139 138/138/138
f 139/139/139 137/137/137 136/136/136
f 132/132/132 140/140/140 136/136/136
f 140/140/140 132/132/132 135/135/135
f 136/136/136 141/141/141 139/139/139
f 141/141/141 136/136/136 140/140/140
f 84/84/84 85/85/85 142/142/142
f 142/142/142 143/143/143 84/84/84
f 85/85/85 88/88/88 144/144/144
f 144/144/144 142/142/142 85/85/85
f 90/90/90 146/146/146 145/145/145
f 145/145/145 93/93/93 90/90/90
f 147/147/147 95/95/95 96/96/96
f 147/147/147 97/97/97 95/95/95
f 143/143/143 142/142/142 148/148/148
f 148/148/148 149/149/149 143/143/143
f 150/150/150 148/148/148 142/142/142
f 149/149/149 148/148/148 145/145/145
f 145/145/145 146/146/146 149/149/149
f 148/148/148 150/150/150 151/151/151
f 151/151/151 145/145/145 148/148/148
f 97/97/97 153/153/153 152/152/152
f 152/152/152 104/104/104 97/97/97
f 154/154/154 144/144/144 155/155/155
f 153/153/153 154/154/154 155/155/155
f 155/155/155 152/152/152 153/153/153
f 156/156/156 158/158/158 157/157/157
f 159/159/159 156/156/156 157/157/157
f 145/145/145 151/151/151 147/147/147
f 151/151/151 153/153/153 147/147/147
f 97/97/97 147/147/147 153/153/153
f 157/157/157 161/161/161 160/160/160
f 160/160/160 162/162/162 157/157/157
f 159/159/159 157/157/157 162/162/162
f 162/162/162 163/163/163 159/159/159
f 161/161/161 165/165/165 164/164/164
f 164/164/164 160/160/160 161/161/161
f 165/165/165 167/167/167 166/166/166
f 166/166/166 164/164/164 165/165/165
f 167/167/167 159/159/159 163/163/163
f 163/163/163 166/166/166 167/167/167
f 162/162/162 160/160/160 168/168/168
f 168/168/168 169/169/169 162/162/162
f 163/163/163 162/162/162 169/169/169
f 169/169/169 170/170/170 163/163/163
f 164/164/164 168/168/168 160/160/160
f 166/166/166 163/163/163 170/170/170
f 88/88/88 155/155/155 144/144/144
f 147/147/147 96/96/96 145/145/145
f 145/145/145 96/96/96 93/93/93
f 171/171/171 173/173/173 172/172/172
f 172/172/172 174/174/174 171/171/171
f 175/175/175 172/172/172 173/173/173
f 176/176/176 178/178/178 177/177/177
f 177/177/177 179/179/179 176/176/176
f 178/178/178 180/180/180 177/177/177
f 181/181/181 177/177/177 180/180/180
f 179/179/179 177/177/177 182/182/182
f 182/182/182 183/183/183 179/179/179
f 177/177/177 181/181/181 182/182/182
f 184/184/184 182/182/182 181/181/181
f 180/180/180 185/185/185 181/181/181
f 185/185/185 180/180/180 186/186/186
f 186/186/186 188/188/188 187/187/187
f 187/187/187 185/185/185 186/186/186
f 181/181/181 185/185/185 189/189/189
f 189/189/189 184/184/184 181/181/181
f 185/185/185 187/187/187 190/190/190
f 190/190/190 189/189/189 185/185/185
f 191/191/191 193/193/193 192/192/192
f 191/191/191 194/194/194 193/193/193
f 193/193/193 195/195/195 192/192/192
f 193/193/193 196/196/196 195/195/195
f 197/197/197 199/199/199 198/198/198
f 199/199/199 197/197/197 200/200/200
f 201/201/201 203/203/203 202/202/202
f 203/203/203 201/201/201 204/204/204
f 205/205/205 204/204/204 201/201/201
f 204/204/204 205/205/205 206/206/206
f 202/202/202 208/208/208 207/207/207
f 208/208/208 202/202/202 203/203/203
f 207/207/207 210/210/210 209/209/209
f 210/210/210 207/207/207 208/208/208
f 209/209/209 206/206/206 205/205/205
f 206/206/206 209/209/209 210/210/210
f 211/211/211 204/204/204 212/212/212
f 204/204/204 211/211/211 203/203/203
f 206/206/206 212/212/212 204/204/204
f 212/212/212 206/206/206 213/213/213
f 203/203/203 214/214/214 208/208/208
f 214/214/214 203/203/203 211/211/211
f 208/208/208 215/215/215 210/210/210
f 215/215/215 208/208/208 214/214/214
f 210/210/210 213/213/213 206/206/206
f 213/213/213 210/210/210 215/215/215
f 212/212/212 216/216/216 211/211/211
f 217/217/217 211/211/211 216/216/216
f 211/211/211 217/217/217 214/214/214
f 215/215/215 214/214/214 217/217/217
f 212/212/212 218/218/218 216/216/216
f 218/218/218 212/212/212 219/219/219
f 216/216/216 220/220/220 217/217/217
f 220/220/220 216/216/216 218/218/218
f 213/213/213 219/219/219 212/212/212
f 219/219/219 213/213/213 221/221/221
f 222/222/222 224/224/224 223/223/223
f 224/224/224 222/222/222 225/225/225
f 219/219/219 226/226/226 218/218/218
f 218/218/218 227/227/227 220/220/220
f 227/227/227 218/218/218 226/226/226
f 228/228/228 220/220/220 227/227/227
f 219/219/219 198/198/198 226/226/226
f 198/198/198 219/219/219 197/197/197
f 226/226/226 199/199/199 227/227/227
f 199/199/199 226/226/226 198/198/198
f 221/221/221 197/197/197 219/219/219
f 197/197/197 221/221/221 200/200/200
f 227/227/227 200/200/200 228/228/228
f 200/200/200 227/227/227 199/199/199
f 228/228/228 200/200/200 221/221/221
f 215/215/215 229/229/229 213/213/213
f 229/229/229 215/215/215 230/230/230
f 213/213/213 231/231/231 221/221/221
f 231/231/231 213/213/213 229/229/229
f 221/221/221 232/232/232 228/228/228
f 232/232/232 221/221/221 231/231/231
f 230/230/230 223/223/223 229/229/229
f 223/223/223 230/230/230 222/222/222
f 229/229/229 224/224/224 231/231/231
f 224/224/224 229/229/229 223/223/223
f 231/231/231 225/225/225 232/232/232
f 225/225/225 231/231/231 224/224/224
f 232/232/232 222/222/222 230/230/230
f 222/222/222 232/232/232 225/225/225
f 220/220/220 228/228/228 232/232/232
f 220/220/220 232/232/232 217/217/217
f 217/217/217 232/232/232 215/215/215
f 232/232/232 230/230/230 215/215/215
f 233/233/233 235/235/235 234/234/234
f 233/233/233 234/234/234 236/236/236
f 233/233/233 238/238/238 237/237/237
f 233/233/233 237/237/237 235/235/235
f 235/235/235 237/237/237 239/239/239
f 235/235/235 239/239/239 234/234/234
f 234/234/234 239/239/239 240/240/240
f 234/234/234 240/240/240 236/236/236
f 238/238/238 241/241/241 240/240/240
f 240/240/240 241/241/241 236/236/236
f 233/233/233 241/241/241 238/238/238
f 236/236/236 242/242/242 233/233/233
f 241/241/241 233/233/233 242/242/242
f 241/241/241 242/242/242 236/236/236
f 243/243/243 245/245/245 244/244/244
f 244/244/244 246/246/246 243/243/243
f 247/247/247 249/249/249 248/248/248
f 248/248/248 250/250/250 247/247/247
f 251/251/251 247/247/247 250/250/250
f 250/250/250 252/252/252 251/251/251
f 249/249/249 254/254/254 253/253/253
f 253/253/253 248/248/248 249/249/249
f 254/254/254 256/256/256 255/255/255
f 255/255/255 253/253/253 254/254/254
f 256/256/256 251/251/251 252/252/252
f 252/252/252 255/255/255 256/256/256
f 257/257/257 258/258/258 250/250/250
f 250/250/250 248/248/248 257/257/257
f 252/252/252 250/250/250 258/258/258
f 258/258/258 259/259/259 252/252/252
f 248/248/248 253/253/253 260/260/260
f 260/260/260 257/257/257 248/248/248
f 253/253/253 255/255/255 261/261/261
f 261/261/261 260/260/260 253/253/253
f 255/255/255 252/252/252 259/259/259
f 259/259/259 261/261/261 255/255/255
f 258/258/258 257/257/257 262/262/262
f 263/263/263 262/262/262 257/257/257
f 257/257/257 260/260/260 263/263/263
f 261/261/261 263/263/263 260/260/260
f 258/258/258 262/262/262 264/264/264
f 264/264/264 265/265/265 258/258/258
f 262/262/262 263/263/263 266/266/266
f 266/266/266 264/264/264 262/262/262
f 259/259/259 258/258/258 265/265/265
f 265/265/265 267/267/267 259/259/259
f 268/268/268 270/270/270 269/269/269
f 269/269/269 271/271/271 268/268/268
f 265/265/265 264/264/264 272/272/272
f 264/264/264 266/266/266 273/273/273
f 273/273/273 272/272/272 264/264/264
f 274/274/274 273/273/273 266/266/266
f 265/265/265 272/272/272 245/245/245
f 245/245/245 243/243/243 265/265/265
f 272/272/272 273/273/273 244/244/244
f 244/244/244 245/245/245 272/272/272
f 267/267/267 265/265/265 243/243/243
f 243/243/243 246/246/246 267/267/267
f 273/273/273 274/274/274 246/246/246
f 246/246/246 244/244/244 273/273/273
f 274/274/274 267/267/267 246/246/246
f 261/261/261 259/259/259 275/275/275
f 275/275/275 276/276/276 261/261/261
f 259/259/259 267/267/267 277/277/277
f 277/277/277 275/275/275 259/259/259
f 267/267/267 274/274/274 278/278/278
f 278/278/278 277/277/277 267/267/267
f 276/276/276 275/275/275 270/270/270
f 270/270/270 268/268/268 276/276/276
f 275/275/275 277/277/277 269/269/269
f 269/269/269 270/270/270 275/275/275
f 277/277/277 278/278/278 271/271/271
f 271/271/271 269/269/269 277/277/277
f 278/278/278 276/276/276 268/268/268
f 268/268/268 271/271/271 278/278/278
f 266/266/266 278/278/278 274/274/274
f 266/266/266 263/263/263 278/278/278
f 263/263/263 261/261/261 278/278/278
f 278/278/278 261/261/261 276/276/276
f 279/279/279 281/281/281 280/280/280
f 279/279/279 282/282/282 281/281/281
f 279/279/279 284/284/284 283/283/283
f 279/279/279 280/280/280 284/284/284
f 280/280/280 285/285/285 284/284/284
f 280/280/280 281/281/281 285/285/285
f 281/281/281 286/286/286 285/285/285
f 281/281/281 282/282/282 286/286/286
f 283/283/283 286/286/286 287/287/287
f 286/286/286 282/282/282 287/287/287
f 279/279/279 283/283/283 287/287/287
f 282/282/282 279/279/279 288/288/288
f 287/287/287 288/288/288 279/279/279
f 287/287/287 282/282/282 288/288/288
f 289/289/289 291/291/291 290/290/290
f 291/291/291 289/289/289 292/292/292
f 293/293/293 295/295/295 294/294/294
f 295/295/295 293/293/293 296/296/296
f 294/294/294 298/298/298 297/297/297
f 298/298/298 294/294/294 295/295/295
f 299/299/299 296/296/296 293/293/293
f 300/300/300 297/297/297 298/298/298
f 296/296/296 301/301/301 295/295/295
f 301/301/301 296/296/296 302/302/302
f 295/295/295 303/303/303 298/298/298
f 303/303/303 295/295/295 301/301/301
f 299/299/299 302/302/302 296/296/296
f 302/302/302 299/299/299 304/304/304
f 298/298/298 305/305/305 300/300/300
f 305/305/305 298/298/298 303/303/303
f 300/300/300 304/304/304 299/299/299
f 304/304/304 300/300/300 305/305/305
f 302/302/302 306/306/306 301/301/301
f 306/306/306 302/302/302 307/307/307
f 301/301/301 308/308/308 303/303/303
f 308/308/308 301/301/301 306/306/306
f 304/304/304 307/307/307 302/302/302
f 307/307/307 304/304/304 309/309/309
f 305/305/305 303/303/303 308/308/308
f 305/305/305 309/309/309 304/304/304
f 307/307/307 290/290/290 306/306/306
f 290/290/290 307/307/307 289/289/289
f 306/306/306 291/291/291 308/308/308
f 291/291/291 306/306/306 290/290/290
f 309/309/309 289/289/289 307/307/307
f 289/289/289 309/309/309 292/292/292
f 310/310/310 312/312/312 311/311/311
f 312/312/312 310/310/310 313/313/313
f 311/311/311 315/315/315 314/314/314
f 315/315/315 311/311/311 312/312/312
f 308/308/308 316/316/316 305/305/305
f 316/316/316 308/308/308 317/317/317
f 305/305/305 318/318/318 309/309/309
f 318/318/318 305/305/305 316/316/316
f 291/291/291 317/317/317 308/308/308
f 292/292/292 309/309/309 318/318/318
f 291/291/291 310/310/310 317/317/317
f 310/310/310 291/291/291 313/313/313
f 316/316/316 314/314/314 318/318/318
f 314/314/314 316/316/316 311/311/311
f 318/318/318 315/315/315 292/292/292
f 315/315/315 318/318/318 314/314/314
f 316/316/316 310/310/310 311/311/311
f 316/316/316 317/317/317 310/310/310
f 313/313/313 315/315/315 312/312/312
f 313/313/313 292/292/292 315/315/315
f 313/313/313 291/291/291 292/292/292
f 319/319/319 321/321/321 320/320/320
f 319/319/319 320/320/320 322/322/322
f 322/322/322 320/320/320 323/323/323
f 322/322/322 323/323/323 324/324/324
f 324/324/324 323/323/323 325/325/325
f 324/324/324 325/325/325 326/326/326
f 326/326/326 325/325/325 327/327/327
f 326/326/326 327/327/327 328/328/328
f 329/329/329 330/330/330 321/321/321
f 329/329/329 321/321/321 319/319/319
f 331/331/331 320/320/320 321/321/321
f 331/331/331 323/323/323 320/320/320
f 331/331/331 325/325/325 323/323/323
f 331/331/331 327/327/327 325/325/325
f 331/331/331 330/330/330 327/327/327
f 331/331/331 321/321/321 330/330/330
f 328/328/328 332/332/332 329/329/329
f 327/327/327 332/332/332 328/328/328
f 329/329/329 332/332/332 330/330/330
f 330/330/330 333/333/333 327/327/327
f 332/332/332 327/327/327 333/333/333
f 332/332/332 333/333/333 330/330/330
f 334/334/334 336/336/336 335/335/335
f 335/335/335 337/337/337 334/334/334
f 338/338/338 340/340/340 339/339/339
f 339/339/339 341/341/341 338/338/338
f 340/340/340 343/343/343 342/342/342
f 342/342/342 339/339/339 340/340/340
f 344/344/344 338/338/338 341/341/341
f 345/345/345 342/342/342 343/343/343
f 341/341/341 339/339/339 346/346/346
f 346/346/346 347/347/347 341/341/341
f 339/339/339 342/342/342 348/348/348
f 348/348/348 346/346/346 339/339/339
f 344/344/344 341/341/341 347/347/347
f 347/347/347 349/349/349 344/344/344
f 342/342/342 345/345/345 350/350/350
f 350/350/350 348/348/348 342/342/342
f 345/345/345 344/344/344 349/349/349
f 349/349/349 350/350/350 345/345/345
f 347/347/347 346/346/346 351/351/351
f 351/351/351 352/352/352 347/347/347
f 346/346/346 348/348/348 353/353/353
f 353/353/353 351/351/351 346/346/346
f 349/349/349 347/347/347 352/352/352
f 352/352/352 354/354/354 349/349/349
f 350/350/350 353/353/353 348/348/348
f 350/350/350 349/349/349 354/354/354
f 352/352/352 351/351/351 336/336/336
f 336/336/336 334/334/334 352/352/352
f 351/351/351 353/353/353 335/335/335
f 335/335/335 336/336/336 351/351/351
f 354/354/354 352/352/352 334/334/334
f 334/334/334 337/337/337 354/354/354
f 355/355/355 357/357/357 356/356/356
f 356/356/356 358/358/358 355/355/355
f 357/357/357 360/360/360 359/359/359
f 359/359/359 356/356/356 357/357/357
f 353/353/353 350/350/350 361/361/361
f 361/361/361 362/362/362 353/353/353
f 350/350/350 354/354/354 363/363/363
f 363/363/363 361/361/361 350/350/350
f 335/335/335 353/353/353 362/362/362
f 337/337/337 363/363/363 354/354/354
f 335/335/335 362/362/362 355/355/355
f 355/355/355 358/358/358 335/335/335
f 361/361/361 363/363/363 360/360/360
f 360/360/360 357/357/357 361/361/361
f 363/363/363 337/337/337 359/359/359
f 359/359/359 360/360/360 363/363/363
f 361/361/361 357/357/357 355/355/355
f 361/361/361 355/355/355 362/362/362
f 358/358/358 356/356/356 359/359/359
f 358/358/358 359/359/359 337/337/337
f 358/358/358 337/337/337 335/335/335
f 364/364/364 366/366/366 365/365/365
f 364/364/364 367/367/367 366/366/366
f 367/367/367 368/368/368 366/366/366
f 367/367/367 369/369/369 368/368/368
f 369/369/369 370/370/370 368/368/368
f 369/369/369 371/371/371 370/370/370
f 371/371/371 372/372/372 370/370/370
f 371/371/371 373/373/373 372/372/372
f 374/374/374 365/365/365 375/375/375
f 374/374/374 364/364/364 365/365/365
f 376/376/376 365/365/365 366/366/366
f 376/376/376 366/366/366 368/368/368
f 376/376/376 368/368/368 370/370/370
f 376/376/376 370/370/370 372/372/372
f 376/376/376 372/372/372 375/375/375
f 376/376/376 375/375/375 365/365/365
f 373/373/373 374/374/374 377/377/377
f 372/372/372 373/373/373 377/377/377
f 374/374/374 375/375/375 377/377/377
f 375/375/375 372/372/372 378/378/378
f 377/377/377 378/378/378 372/372/372
f 377/377/377 375/375/375 378/378/378
f 379/379/379 381/381/381 380/380/380
f 381/381/381 379/379/379 382/382/382
f 383/383/383 385/385/385 384/384/384
f 385/385/385 383/383/383 386/386/386
f 384/384/384 388/388/388 387/387/387
f 388/388/388 384/384/384 385/385/385
f 387/387/387 390/390/390 389/389/389
f 390/390/390 387/387/387 388/388/388
f 389/389/389 386/386/386 383/383/383
f 386/386/386 389/389/389 390/390/390
f 391/391/391 393/393/393 392/392/392
f 393/393/393 391/391/391 394/394/394
f 395/395/395 397/397/397 396/396/396
f 397/397/397 395/395/395 398/398/398
f 399/399/399 401/401/401 400/400/400
f 401/401/401 399/399/399 402/402/402
f 403/403/403 405/405/405 404/404/404
f 406/406/406 407/407/407 393/393/393
f 393/393/393 394/394/394 406/406/406
f 397/397/397 408/408/408 396/396/396
f 408/408/408 397/397/397 409/409/409
f 399/399/399 410/410/410 402/402/402
f 411/411/411 413/413/413 412/412/412
f 413/413/413 411/411/411 414/414/414
f 415/415/415 417/417/417 416/416/416
f 417/417/417 415/415/415 418/418/418
f 416/416/416 420/420/420 419/419/419
f 420/420/420 416/416/416 417/417/417
f 419/419/419 422/422/422 421/421/421
f 422/422/422 419/419/419 420/420/420
f 421/421/421 418/418/418 415/415/415
f 418/418/418 421/421/421 422/422/422
f 423/423/423 425/425/425 424/424/424
f 425/425/425 423/423/423 426/426/426
f 427/427/427 429/429/429 428/428/428
f 429/429/429 427/427/427 430/430/430
f 431/431/431 433/433/433 432/432/432
f 433/433/433 431/431/431 434/434/434
f 435/435/435 437/437/437 436/436/436
f 438/438/438 439/439/439 425/425/425
f 425/425/425 426/426/426 438/438/438
f 429/429/429 440/440/440 428/428/428
f 440/440/440 429/429/429 441/441/441
f 431/431/431 442/442/442 434/434/434
f 443/443/443 445/445/445 444/444/444
f 445/445/445 443/443/443 446/446/446
f 447/447/447 449/449/449 448/448/448
f 449/449/449 447/447/447 450/450/450
f 450/450/450 451/451/451 449/449/449
f 451/451/451 450/450/450 452/452/452
f 453/453/453 455/455/455 454/454/454
f 455/455/455 453/453/453 456/456/456
f 457/457/457 458/458/458 455/455/455
f 459/459/459 461/461/461 460/460/460
f 461/461/461 459/459/459 457/457/457
f 456/456/456 462/462/462 455/455/455
f 462/462/462 456/456/456 463/463/463
f 455/455/455 464/464/464 457/457/457
f 464/464/464 455/455/455 462/462/462
f 457/457/457 465/465/465 461/461/461
f 465/465/465 457/457/457 464/464/464
f 463/463/463 466/466/466 462/462/462
f 462/462/462 467/467/467 464/464/464
f 467/467/467 462/462/462 466/466/466
f 464/464/464 468/468/468 465/465/465
f 468/468/468 464/464/464 467/467/467
f 469/469/469 452/452/452 470/470/470
f 451/451/451 452/452/452 469/469/469
f 471/471/471 461/461/461 472/472/472
f 461/461/461 471/471/471 460/460/460
f 472/472/472 465/465/465 473/473/473
f 465/465/465 472/472/472 461/461/461
f 451/451/451 474/474/474 449/449/449
f 474/474/474 451/451/451 475/475/475
f 449/449/449 476/476/476 448/448/448
f 476/476/476 449/449/449 474/474/474
f 445/445/445 477/477/477 444/444/444
f 477/477/477 445/445/445 478/478/478
f 479/479/479 456/456/456 480/480/480
f 456/456/456 479/479/479 463/463/463
f 480/480/480 453/453/453 481/481/481
f 453/453/453 480/480/480 456/456/456
f 454/454/454 458/458/458 459/459/459
f 455/455/455 458/458/458 454/454/454
f 457/457/457 459/459/459 458/458/458
f 473/473/473 465/465/465 468/468/468
f 470/470/470 482/482/482 472/472/472
f 472/472/472 482/482/482 471/471/471
f 470/470/470 472/472/472 473/473/473
f 469/469/469 470/470/470 473/473/473
f 479/479/479 480/480/480 483/483/483
f 480/480/480 484/484/484 483/483/483
f 484/484/484 480/480/480 481/481/481
f 485/485/485 447/447/447 486/486/486
f 447/447/447 485/485/485 450/450/450
f 452/452/452 487/487/487 470/470/470
f 483/483/483 488/488/488 443/443/443
f 484/484/484 488/488/488 483/483/483
f 487/487/487 482/482/482 470/470/470
f 443/443/443 489/489/489 446/446/446
f 443/443/443 488/488/488 489/489/489
f 450/450/450 487/487/487 452/452/452
f 450/450/450 485/485/485 487/487/487
f 490/490/490 492/492/492 491/491/491
f 493/493/493 494/494/494 490/490/490
f 495/495/495 497/497/497 496/496/496
f 497/497/497 495/495/495 493/493/493
f 498/498/498 500/500/500 499/499/499
f 499/499/499 501/501/501 498/498/498
f 501/501/501 499/499/499 502/502/502
f 503/503/503 498/498/498 501/501/501
f 504/504/504 505/505/505 503/503/503
f 506/506/506 508/508/508 507/507/507
f 503/503/503 490/490/490 507/507/507
f 490/490/490 503/503/503 493/493/493
f 507/507/507 491/491/491 506/506/506
f 491/491/491 507/507/507 490/490/490
f 509/509/509 511/511/511 510/510/510
f 512/512/512 510/510/510 511/511/511
f 509/509/509 513/513/513 511/511/511
f 513/513/513 509/509/509 506/506/506
f 502/502/502 496/496/496 497/497/497
f 501/501/501 502/502/502 497/497/497
f 499/499/499 514/514/514 502/502/502
f 513/513/513 512/512/512 511/511/511
f 491/491/491 492/492/492 513/513/513
f 491/491/491 513/513/513 506/506/506
f 503/503/503 497/497/497 493/493/493
f 497/497/497 503/503/503 501/501/501
f 515/515/515 517/517/517 516/516/516
f 515/515/515 516/516/516 518/518/518
f 518/518/518 516/516/516 519/519/519
f 518/518/518 519/519/519 520/520/520
f 520/520/520 519/519/519 521/521/521
f 520/520/520 521/521/521 522/522/522
f 517/517/517 524/524/524 523/523/523
f 517/517/517 523/523/523 516/516/516
f 516/516/516 523/523/523 525/525/525
f 516/516/516 525/525/525 519/519/519
f 519/519/519 525/525/525 526/526/526
f 519/519/519 526/526/526 521/521/521
f 527/527/527 529/529/529 528/528/528
f 527/527/527 528/528/528 530/530/530
f 530/530/530 528/528/528 531/531/531
f 530/530/530 531/531/531 532/532/532
f 532/532/532 531/531/531 533/533/533
f 532/532/532 533/533/533 534/534/534
f 535/535/535 537/537/537 536/536/536
f 536/536/536 537/537/537 538/538/538
f 538/538/538 537/537/537 539/539/539
f 515/515/515 540/540/540 517/517/517
f 515/515/515 541/541/541 540/540/540
f 541/541/541 521/521/521 540/540/540
f 541/541/541 522/522/522 521/521/521
f 517/517/517 542/542/542 524/524/524
f 517/517/517 540/540/540 542/542/542
f 540/540/540 526/526/526 542/542/542
f 540/540/540 521/521/521 526/526/526
f 527/527/527 543/543/543 529/529/529
f 527/527/527 544/544/544 543/543/543
f 544/544/544 533/533/533 543/543/543
f 544/544/544 534/534/534 533/533/533
f 535/535/535 545/545/545 537/537/537
f 545/545/545 539/539/539 537/537/537
f 546/546/546 548/548/548 547/547/547
f 546/546/546 547/547/547 549/549/549
f 549/549/549 547/547/547 550/550/550
f 549/549/549 550/550/550 551/551/551
f 551/551/551 550/550/550 552/552/552
f 551/551/551 552/552/552 553/553/553
f 548/548/548 555/555/555 554/554/554
f 548/548/548 554/554/554 547/547/547
f 547/547/547 554/554/554 556/556/556
f 547/547/547 556/556/556 550/550/550
f 550/550/550 556/556/556 557/557/557
f 550/550/550 557/557/557 552/552/552
f 558/558/558 560/560/560 559/559/559
f 558/558/558 559/559/559 561/561/561
f 561/561/561 559/559/559 562/562/562
f 561/561/561 562/562/562 563/563/563
f 563/563/563 562/562/562 564/564/564
f 563/563/563 564/564/564 565/565/565
f 566/566/566 568/568/568 567/567/567
f 567/567/567 568/568/568 569/569/569
f 569/569/569 568/568/568 570/570/570
f 546/546/546 571/571/571 548/548/548
f 546/546/546 572/572/572 571/571/571
f 572/572/572 552/552/552 571/571/571
f 572/572/572 553/553/553 552/552/552
f 548/548/548 573/573/573 555/555/555
f 548/548/548 571/571/571 573/573/573
f 571/571/571 557/557/557 573/573/573
f 571/571/571 552/552/552 557/557/557
f 558/558/558 574/574/574 560/560/560
f 558/558/558 575/575/575 574/574/574
f 575/575/575 564/564/564 574/574/574
f 575/575/575 565/565/565 564/564/564
f 566/566/566 576/576/576 568/568/568
f 576/576/576 570/570/570 568/568/568
f 577/577/577 579/579/579 578/578/578
f 577/577/577 580/580/580 579/579/579
f 581/581/581 583/583/583 582/582/582
f 584/584/584 586/586/586 585/585/585
f 586/586/586 584/584/584 587/587/587
f 588/588/588 590/590/590 589/589/589
f 590/590/590 588/588/588 591/591/591
f 592/592/592 594/594/594 593/593/593
f 594/594/594 592/592/592 595/595/595
f 596/596/596 598/598/598 597/597/597
f 598/598/598 596/596/596 599/599/599
f 600/600/600 602/602/602 601/601/601
f 602/602/602 600/600/600 603/603/603
