# Smith01.bmd — MU bind-pose geometry, exported for MU2
# 5 mesh(es)

g tile_02
# texture: tile_02.jpg
v 68.2992 51.2914 36.5706
v 96.9342 51.2914 36.5706
v 96.9342 51.2914 -17.6852
v 68.2992 51.2914 -17.6852
v 58.4201 0 55.2889
v 106.8133 0 55.2889
v 102.7015 15.7768 47.498
v 62.5319 15.7768 47.498
v 62.5319 15.7768 47.498
v 102.7015 15.7768 47.498
v 102.7015 34.8793 47.498
v 62.5319 34.8793 47.498
v 62.5319 34.8793 47.498
v 102.7015 34.8793 47.498
v 98.4315 46.3073 39.4075
v 66.8019 46.3073 39.4075
v 66.8019 46.3073 39.4075
v 98.4315 46.3073 39.4075
v 106.8133 76.4103 55.2889
v 58.4201 76.4103 55.2889
v 106.8133 0 55.2889
v 106.8133 0 -36.4035
v 102.7015 15.7768 -28.6126
v 102.7015 15.7768 47.498
v 102.7015 15.7768 47.498
v 102.7015 15.7768 -28.6126
v 102.7015 34.8793 -28.6126
v 102.7015 34.8793 47.498
v 102.7015 34.8793 47.498
v 102.7015 34.8793 -28.6126
v 98.4315 46.3073 -20.5221
v 98.4315 46.3073 39.4075
v 98.4315 46.3073 39.4075
v 98.4315 46.3073 -20.5221
v 106.8133 76.4103 -36.4035
v 106.8133 76.4103 55.2889
v 106.8133 0 -36.4035
v 58.4201 0 -36.4035
v 62.5319 15.7768 -28.6126
v 102.7015 15.7768 -28.6126
v 102.7015 15.7768 -28.6126
v 62.5319 15.7768 -28.6126
v 62.5319 34.8793 -28.6126
v 102.7015 34.8793 -28.6126
v 102.7015 34.8793 -28.6126
v 62.5319 34.8793 -28.6126
v 66.8019 46.3073 -20.5221
v 98.4315 46.3073 -20.5221
v 98.4315 46.3073 -20.5221
v 66.8019 46.3073 -20.5221
v 58.4201 76.4103 -36.4035
v 106.8133 76.4103 -36.4035
v 58.4201 0 -36.4035
v 58.4201 0 55.2889
v 62.5319 15.7768 47.498
v 62.5319 15.7768 -28.6126
v 62.5319 15.7768 -28.6126
v 62.5319 15.7768 47.498
v 62.5319 34.8793 47.498
v 62.5319 34.8793 -28.6126
v 62.5319 34.8793 -28.6126
v 62.5319 34.8793 47.498
v 66.8019 46.3073 39.4075
v 66.8019 46.3073 -20.5221
v 66.8019 46.3073 -20.5221
v 66.8019 46.3073 39.4075
v 58.4201 76.4103 55.2889
v 58.4201 76.4103 -36.4035
v -20.0236 85.6795 82.9593
v 19.2283 85.6795 82.9593
v 19.2283 85.6795 57.2275
v -20.0236 85.6795 57.2275
v -8.857101 72.88 75.639
v 8.061798 72.88 75.639
v 19.2283 85.6795 82.9593
v -20.0236 85.6795 82.9593
v 8.061798 72.88 75.639
v 8.061798 72.88 64.5477
v 19.2283 85.6795 57.2275
v 19.2283 85.6795 82.9593
v 8.061798 72.88 64.5477
v -8.857101 72.88 64.5477
v -20.0236 85.6795 57.2275
v 19.2283 85.6795 57.2275
v -8.857101 72.88 64.5477
v -8.857101 72.88 75.639
v -20.0236 85.6795 82.9593
v -20.0236 85.6795 57.2275
v 58.4201 76.4103 55.2889
v 106.8133 76.4103 55.2889
v 96.9342 51.2914 36.5706
v 68.2992 51.2914 36.5706
v 106.8133 76.4103 55.2889
v 106.8133 76.4103 -36.4035
v 96.9342 51.2914 -17.6852
v 96.9342 51.2914 36.5706
v 106.8133 76.4103 -36.4035
v 58.4201 76.4103 -36.4035
v 68.2992 51.2914 -17.6852
v 96.9342 51.2914 -17.6852
v 58.4201 76.4103 -36.4035
v 58.4201 76.4103 55.2889
v 68.2992 51.2914 36.5706
v 68.2992 51.2914 -17.6852
vn 0 1 -0
vn 0 1 -0
vn 0 1 -0
vn 0 1 -0
vn 0 0.442808 0.896616
vn 0 0.442808 0.896616
vn 0 0.442808 0.896616
vn 0 0.442808 0.896616
vn 0 0 1
vn 0 0 1
vn 0 0 1
vn 0 0 1
vn 0 0.57779 0.816186
vn 0 0.57779 0.816186
vn 0 0.57779 0.816186
vn 0 0.57779 0.816186
vn 0 -0.466587 0.884475
vn 0 -0.466587 0.884475
vn 0 -0.466587 0.884475
vn 0 -0.466587 0.884475
vn 0.967677 0.252194 -0
vn 0.967677 0.252194 -0
vn 0.967677 0.252194 -0
vn 0.967677 0.252194 -0
vn 1 0 -0
vn 1 0 -0
vn 1 0 -0
vn 1 0 -0
vn 0.936744 0.350016 -0
vn 0.936744 0.350016 -0
vn 0.936744 0.350016 -0
vn 0.936744 0.350016 -0
vn 0.963366 -0.268191 -0
vn 0.963366 -0.268191 -0
vn 0.963366 -0.268191 -0
vn 0.963366 -0.268191 -0
vn 0 0.442808 -0.896616
vn 0 0.442808 -0.896616
vn 0 0.442808 -0.896616
vn 0 0.442808 -0.896616
vn 0 0 -1
vn 0 0 -1
vn 0 0 -1
vn 0 0 -1
vn 0 0.57779 -0.816186
vn 0 0.57779 -0.816186
vn 0 0.57779 -0.816186
vn 0 0.57779 -0.816186
vn 0 -0.466587 -0.884475
vn 0 -0.466587 -0.884475
vn 0 -0.466587 -0.884475
vn 0 -0.466587 -0.884475
vn -0.967677 0.252194 -0
vn -0.967677 0.252194 -0
vn -0.967677 0.252194 -0
vn -0.967677 0.252194 -0
vn -1 0 -0
vn -1 0 -0
vn -1 0 -0
vn -1 0 -0
vn -0.936744 0.350016 -0
vn -0.936744 0.350016 -0
vn -0.936744 0.350016 -0
vn -0.936744 0.350016 -0
vn -0.963366 -0.268191 -0
vn -0.963366 -0.268191 -0
vn -0.963366 -0.268191 -0
vn -0.963366 -0.268191 -0
vn 0 1 -0
vn 0 1 -0
vn 0 1 -0
vn 0 1 -0
vn 0 -0.496473 0.868052
vn 0 -0.496473 0.868052
vn 0 -0.496473 0.868052
vn 0 -0.496473 0.868052
vn 0.753524 -0.657421 -0
vn 0.753524 -0.657421 -0
vn 0.753524 -0.657421 -0
vn 0.753524 -0.657421 -0
vn 0 -0.496473 -0.868052
vn 0 -0.496473 -0.868052
vn 0 -0.496473 -0.868052
vn 0 -0.496473 -0.868052
vn -0.753524 -0.657421 -0
vn -0.753524 -0.657421 -0
vn -0.753524 -0.657421 -0
vn -0.753524 -0.657421 -0
vn 0 0.597533 -0.801844
vn 0 0.597533 -0.801844
vn 0 0.597533 -0.801844
vn 0 0.597533 -0.801844
vn -0.930613 0.366005 -0
vn -0.930613 0.366005 -0
vn -0.930613 0.366005 -0
vn -0.930613 0.366005 -0
vn 0 0.597533 0.801844
vn 0 0.597533 0.801844
vn 0 0.597533 0.801844
vn 0 0.597533 0.801844
vn 0.930613 0.366005 -0
vn 0.930613 0.366005 -0
vn 0.930613 0.366005 -0
vn 0.930613 0.366005 -0
vt 0.6516 0.6136
vt 0.6516 0.7022
vt 0.4564 0.7022
vt 0.4564 0.6136
vt 0.0005 0.0005
vt 0.9995 0.0005
vt 0.9146 0.2068
vt 0.0854 0.2068
vt 0.0854 0.2068
vt 0.9146 0.2068
vt 0.9146 0.4565
vt 0.0854 0.4565
vt 0.0854 0.4565
vt 0.9146 0.4565
vt 0.8265 0.6059
vt 0.1735 0.6059
vt 0.1735 0.6059
vt 0.8265 0.6059
vt 0.9995 0.9995
vt 0.0005 0.9995
vt -0.153 0.0005
vt 1.153 0.0005
vt 1.0421 0.2068
vt -0.0421 0.2068
vt -0.0421 0.2068
vt 1.0421 0.2068
vt 1.0421 0.4565
vt -0.0421 0.4565
vt -0.0421 0.4565
vt 1.0421 0.4565
vt 0.9268 0.6059
vt 0.0732 0.6059
vt 0.0732 0.6059
vt 0.9268 0.6059
vt 1.153 0.9995
vt -0.153 0.9995
vt 0.9995 0.0005
vt 0.0005 0.0005
vt 0.0854 0.2068
vt 0.9146 0.2068
vt 0.9146 0.2068
vt 0.0854 0.2068
vt 0.0854 0.4565
vt 0.9146 0.4565
vt 0.9146 0.4565
vt 0.0854 0.4565
vt 0.1735 0.6059
vt 0.8265 0.6059
vt 0.8265 0.6059
vt 0.1735 0.6059
vt 0.0005 0.9995
vt 0.9995 0.9995
vt 1.153 0.0005
vt -0.153 0.0005
vt -0.0421 0.2068
vt 1.0421 0.2068
vt 1.0421 0.2068
vt -0.0421 0.2068
vt -0.0421 0.4565
vt 1.0421 0.4565
vt 1.0421 0.4565
vt -0.0421 0.4565
vt 0.0732 0.6059
vt 0.9268 0.6059
vt 0.9268 0.6059
vt 0.0732 0.6059
vt -0.153 0.9995
vt 1.153 0.9995
vt 0.253 0.5015
vt 0.3749 0.5015
vt 0.3749 0.5944
vt 0.253 0.5944
vt 0.4297 0.5376
vt 0.5348 0.5376
vt 0.6041 0.7233
vt 0.3604 0.7233
vt 0.4624 0.4529
vt 0.5218 0.4529
vt 0.561 0.5906
vt 0.4232 0.5906
vt 0.5348 0.5376
vt 0.4297 0.5376
vt 0.3604 0.7233
vt 0.6041 0.7233
vt 0.5218 0.4529
vt 0.4624 0.4529
vt 0.4232 0.5906
vt 0.561 0.5906
vt 0.0005 0.7615
vt 0.9995 0.7615
vt 0.7956 0.2385
vt 0.2044 0.2385
vt -0.1344 0.7643
vt 1.1344 0.7643
vt 0.8754 0.2357
vt 0.1246 0.2357
vt 0.9995 0.7615
vt 0.0005 0.7615
vt 0.2044 0.2385
vt 0.7956 0.2385
vt 1.1344 0.7643
vt -0.1344 0.7643
vt 0.1246 0.2357
vt 0.8754 0.2357
f 1/1/1 3/3/3 2/2/2
f 3/3/3 1/1/1 4/4/4
f 5/5/5 7/7/7 6/6/6
f 7/7/7 5/5/5 8/8/8
f 9/9/9 11/11/11 10/10/10
f 11/11/11 9/9/9 12/12/12
f 13/13/13 15/15/15 14/14/14
f 15/15/15 13/13/13 16/16/16
f 17/17/17 19/19/19 18/18/18
f 19/19/19 17/17/17 20/20/20
f 21/21/21 23/23/23 22/22/22
f 23/23/23 21/21/21 24/24/24
f 25/25/25 27/27/27 26/26/26
f 27/27/27 25/25/25 28/28/28
f 29/29/29 31/31/31 30/30/30
f 31/31/31 29/29/29 32/32/32
f 33/33/33 35/35/35 34/34/34
f 35/35/35 33/33/33 36/36/36
f 37/37/37 39/39/39 38/38/38
f 39/39/39 37/37/37 40/40/40
f 41/41/41 43/43/43 42/42/42
f 43/43/43 41/41/41 44/44/44
f 45/45/45 47/47/47 46/46/46
f 47/47/47 45/45/45 48/48/48
f 49/49/49 51/51/51 50/50/50
f 51/51/51 49/49/49 52/52/52
f 53/53/53 55/55/55 54/54/54
f 55/55/55 53/53/53 56/56/56
f 57/57/57 59/59/59 58/58/58
f 59/59/59 57/57/57 60/60/60
f 61/61/61 63/63/63 62/62/62
f 63/63/63 61/61/61 64/64/64
f 65/65/65 67/67/67 66/66/66
f 67/67/67 65/65/65 68/68/68
f 69/69/69 71/71/71 70/70/70
f 71/71/71 69/69/69 72/72/72
f 73/73/73 75/75/75 74/74/74
f 75/75/75 73/73/73 76/76/76
f 77/77/77 79/79/79 78/78/78
f 79/79/79 77/77/77 80/80/80
f 81/81/81 83/83/83 82/82/82
f 83/83/83 81/81/81 84/84/84
f 85/85/85 87/87/87 86/86/86
f 87/87/87 85/85/85 88/88/88
f 89/89/89 91/91/91 90/90/90
f 91/91/91 89/89/89 92/92/92
f 93/93/93 95/95/95 94/94/94
f 95/95/95 93/93/93 96/96/96
f 97/97/97 99/99/99 98/98/98
f 99/99/99 97/97/97 100/100/100
f 101/101/101 103/103/103 102/102/102
f 103/103/103 101/101/101 104/104/104

g tile_03
# texture: tile_03.jpg
v -18.4189 0.0323 88.8776
v 17.6236 0.0323 88.8776
v 17.6236 24.3149 88.8776
v -18.4189 24.3149 88.8776
v -18.4189 24.3149 88.8776
v 17.6236 24.3149 88.8776
v 8.061798 48.5975 75.639
v -8.857101 48.5975 75.639
v -8.857101 48.5975 75.639
v 8.061798 48.5975 75.639
v 8.061798 72.88 75.639
v -8.857101 72.88 75.639
v 17.6236 0.0323 88.8776
v 17.6236 0.0323 51.3092
v 17.6236 24.3149 51.3092
v 17.6236 24.3149 88.8776
v 17.6236 24.3149 88.8776
v 17.6236 24.3149 51.3092
v 8.061798 48.5975 64.5477
v 8.061798 48.5975 75.639
v 8.061798 72.88 64.5477
v 8.061798 72.88 75.639
v 17.6236 0.0323 51.3092
v -18.4189 0.0323 51.3092
v -18.4189 24.3149 51.3092
v 17.6236 24.3149 51.3092
v 17.6236 24.3149 51.3092
v -18.4189 24.3149 51.3092
v -8.857101 48.5975 64.5477
v 8.061798 48.5975 64.5477
v -8.857101 72.88 64.5477
v 8.061798 72.88 64.5477
v -18.4189 0.0323 51.3092
v -18.4189 0.0323 88.8776
v -18.4189 24.3149 88.8776
v -18.4189 24.3149 51.3092
v -18.4189 24.3149 51.3092
v -18.4189 24.3149 88.8776
v -8.857101 48.5975 75.639
v -8.857101 48.5975 64.5477
v -8.857101 72.88 75.639
v -8.857101 72.88 64.5477
vn 0 0 1
vn 0 0 1
vn 0 0 1
vn 0 0 1
vn 0 0.478691 0.877984
vn 0 0.478691 0.877984
vn 0 0.478691 0.877984
vn 0 0.478691 0.877984
vn 0 0 1
vn 0 0 1
vn 0 0 1
vn 0 0 1
vn 1 0 -0
vn 1 0 -0
vn 1 0 -0
vn 1 0 -0
vn 0.930463 0.366386 -0
vn 0.930463 0.366386 -0
vn 0.968732 0.248108 -0
vn 0.99227 0.124096 -0
vn 1 0 -0
vn 1 0 -0
vn 0 0 -1
vn 0 0 -1
vn 0 0 -1
vn 0 0 -1
vn 0 0.478691 -0.877984
vn 0 0.478691 -0.877984
vn 0 0.328113 -0.944638
vn 0 0.164107 -0.986443
vn 0 0 -1
vn 0 0 -1
vn -1 0 -0
vn -1 0 -0
vn -1 0 -0
vn -1 0 -0
vn -0.930463 0.366386 -0
vn -0.930463 0.366386 -0
vn -0.968732 0.248108 -0
vn -0.99227 0.124096 -0
vn -1 0 -0
vn -1 0 -0
vt 0.0413 0.0005
vt 0.9587 0.0005
vt 0.9587 0.5084
vt 0.0413 0.5084
vt 0.0413 0.5084
vt 0.9587 0.5084
vt 0.7153 0.9969
vt 0.2847 0.9969
vt 0.2847 0.9969
vt 0.7153 0.9969
vt 0.7153 1.2802
vt 0.2847 1.2802
vt 0.0005 0.0005
vt 0.9995 0.0005
vt 0.9995 0.489
vt 0.0005 0.489
vt 0.0005 0.489
vt 0.9995 0.489
vt 0.6475 0.9945
vt 0.3525 0.9945
vt 0.6475 1.2777
vt 0.3525 1.2777
vt 0.9587 0.0005
vt 0.0413 0.0005
vt 0.0413 0.5084
vt 0.9587 0.5084
vt 0.9587 0.5084
vt 0.0413 0.5084
vt 0.2847 0.9969
vt 0.7153 0.9969
vt 0.2847 1.2802
vt 0.7153 1.2802
vt 0.9995 0.0005
vt 0.0005 0.0005
vt 0.0005 0.489
vt 0.9995 0.489
vt 0.9995 0.489
vt 0.0005 0.489
vt 0.3525 0.9945
vt 0.6475 0.9945
vt 0.3525 1.2777
vt 0.6475 1.2777
f 105/105/105 107/107/107 106/106/106
f 107/107/107 105/105/105 108/108/108
f 109/109/109 111/111/111 110/110/110
f 111/111/111 109/109/109 112/112/112
f 113/113/113 115/115/115 114/114/114
f 115/115/115 113/113/113 116/116/116
f 117/117/117 119/119/119 118/118/118
f 119/119/119 117/117/117 120/120/120
f 121/121/121 123/123/123 122/122/122
f 123/123/123 121/121/121 124/124/124
f 124/124/124 125/125/125 123/123/123
f 125/125/125 124/124/124 126/126/126
f 127/127/127 129/129/129 128/128/128
f 129/129/129 127/127/127 130/130/130
f 131/131/131 133/133/133 132/132/132
f 133/133/133 131/131/131 134/134/134
f 134/134/134 135/135/135 133/133/133
f 135/135/135 134/134/134 136/136/136
f 137/137/137 139/139/139 138/138/138
f 139/139/139 137/137/137 140/140/140
f 141/141/141 143/143/143 142/142/142
f 143/143/143 141/141/141 144/144/144
f 144/144/144 145/145/145 143/143/143
f 145/145/145 144/144/144 146/146/146

g fire_03
# texture: fire_03.jpg
v 61.8563 66.528 48.7782
v 103.3771 66.528 48.7782
v 103.3771 66.528 -29.8928
v 61.8563 66.528 -29.8928
v 103.3771 69.7909 -29.8928
v 61.8563 69.7909 -29.8928
v 61.8563 69.7909 48.7782
v 103.3771 69.7909 48.7782
vn 0 1 -0
vn 0 1 -0
vn 0 1 -0
vn 0 1 -0
vn 0 1 -0
vn 0 1 -0
vn 0 1 -0
vn 0 1 -0
vt 0.0005 0.0005
vt 0.9995 0.0005
vt 0.9995 0.9995
vt 0.0005 0.9995
vt 0.0005 0.0005
vt 0.9995 0.0005
vt 0.9995 0.9995
vt 0.0005 0.9995
f 147/147/147 149/149/149 148/148/148
f 149/149/149 147/147/147 150/150/150
f 151/151/151 153/153/153 152/152/152
f 153/153/153 151/151/151 154/154/154

g smith
# texture: smith.jpg
v -5.67542 141.4315 19.95229
v -10.03042 142.8636 12.73999
v -16.89862 148.0125 16.0945
v -10.87912 146.0687 18.13
v -15.79732 129.2975 20.67749
v -9.567019 133.2181 24.5337
v -10.06162 140.6712 22.6883
v -14.70612 138.1991 23.4955
v -18.26222 141.4041 10.85329
v -16.89862 148.0125 16.0945
v -10.03042 142.8636 12.73999
v -21.53533 144.8016 19.6052
v -19.83662 139.5089 24.0415
v -21.39102 133.2181 15.94309
v -21.82983 151.6607 19.91859
v -12.16023 152.8105 18.58
v -24.68504 160.5875 24.36119
v -24.01784 161.616 28.57969
v -18.80534 165.6219 29.29509
v -20.84674 164.6436 21.43439
v -15.69054 165.9923 28.8639
v -15.66183 165.2601 20.71659
v -15.66183 165.2601 20.71659
v -15.69054 165.9923 28.8639
v -10.08373 163.2729 26.6507
v -10.35313 162.2917 22.3771
v -16.34062 136.0714 26.9091
v -11.84462 136.606 26.2866
v -15.31913 140.4228 31.458
v -19.24813 142.0396 31.7945
v -12.57283 140.7493 31.0778
v -9.178926 143.2369 30.40051
v -15.11563 145.222 34.181
v -19.58043 146.4972 34.0588
v -13.13813 145.4571 33.9073
v -13.68703 140.1294 32.5795
v -9.287331 147.7211 32.6339
v -16.07983 147.1573 36.4799
v -20.21103 148.8356 35.7376
v -12.06553 147.6346 35.9242
v -8.785733 150.1942 34.1559
v -15.16934 148.2828 43.40121
v -18.94423 148.4032 41.974
v -11.32184 148.7403 42.86861
v -8.200335 149.6807 40.48661
v -8.585433 160.5771 25.7489
v -7.743129 156.0441 23.1573
v -8.046125 149.6297 21.923
v -8.597227 147.0725 25.9981
v -8.043838 157.7487 36.6406
v -6.864933 154.7948 33.2096
v -7.957531 151.1425 28.7604
v -13.84674 159.5227 37.9379
v -16.60994 159.1941 38.3204
v -21.97804 156.0918 38.5696
v -25.04084 158.6204 28.0269
v -25.47983 153.935 25.61269
v -23.32034 152.8381 35.4877
v -24.05083 147.7266 24.1386
v -21.85483 145.496 27.8335
v -22.64983 149.3954 30.7943
v -21.61733 157.101 17.96009
v -14.13593 157.9906 16.9244
v -14.13593 157.9906 16.9244
v 2.229988 142.5946 1.008296
v -2.673512 142.5946 -2.554307
v -20.84674 164.6436 21.43439
v -15.66183 165.2601 20.71659
v -10.35313 162.2917 22.3771
v -7.743129 156.0441 23.1573
v -4.001619 144.2251 20.23669
v -25.47983 153.935 25.61269
v -24.68504 160.5875 24.36119
v -19.03392 144.2251 9.315091
v -19.03392 144.2251 9.315091
v -24.96672 128.4515 17.2333
v -24.05083 147.7266 24.1386
v -25.47983 153.935 25.61269
v -8.046125 149.6297 21.923
v -9.698917 128.4515 28.326
v -24.68504 160.5875 24.36119
v 3.236897 106.9351 -5.503402
v 2.159594 114.8318 -4.019403
v 10.31749 113.7177 5.0537
v 10.9002 106.001 2.503801
v 1.255992 127.0136 -2.784605
v 10.30149 126.3608 5.971498
v -3.941314 142.9002 4.355392
v 6.368584 140.9727 13.8734
v -8.961208 106.3352 11.2871
v 2.229791 108.0788 16.0194
v 2.92019 113.8535 18.2852
v -11.18991 110.5209 14.3456
v -3.022214 116.9242 27.1673
v -15.71491 118.1842 20.5827
v -13.11111 112.5061 16.999
v -15.55141 124.8363 20.3224
v 8.15679 110.2606 13.7509
v 8.730494 101.2886 11.4939
v 8.143791 117.5236 17.8427
v 3.912879 124.5058 16.17691
v 8.730494 101.2886 11.4939
v 8.15679 110.2606 13.7509
v 2.468694 99.4528 12.9818
v 8.143791 117.5236 17.8427
v 3.912879 124.5058 16.17691
v 5.176379 121.815 27.10601
v 1.085178 127.2107 32.71331
v -9.567019 133.2181 24.5337
v -15.79732 129.2975 20.67749
v 1.257877 137.5062 28.46481
v -5.67542 141.4315 19.95229
v 1.257877 137.5062 28.46481
v -5.67542 141.4315 19.95229
v 4.819577 138.5202 17.1525
v 9.08828 128.0859 27.52761
v 10.39758 136.9879 26.79631
v 16.34778 129.682 19.15091
v 16.34778 129.682 19.15091
v 10.39758 136.9879 26.79631
v 23.94779 115.1853 4.815809
v 17.50178 119.3009 2.851309
v 14.14548 112.2198 3.280107
v 22.01668 108.5748 5.883112
v 23.94779 115.1853 4.815809
v 17.90568 106.3351 6.161512
v 14.14548 112.2198 3.280107
v 24.85958 114.4463 4.876814
v 21.01868 112.5731 -0.998086
v 14.41868 111.9025 2.151813
v 24.85958 114.4463 4.876814
v 14.41868 111.9025 2.151813
v -10.03042 142.8636 12.73999
v -8.990404 113.7177 -8.974205
v -6.746502 106.001 -10.3173
v -9.606209 126.3608 -8.492308
v -16.03521 140.9727 -2.40401
v -19.30341 113.8535 2.138794
v -16.9201 108.0788 2.106097
v -25.75331 116.9242 10.65209
v -16.59421 110.2606 -4.231804
v -14.6261 101.2886 -5.475704
v -20.21941 117.5236 -2.764407
v -26.20902 122.051 -7.109012
v -14.6261 101.2886 -5.475704
v -16.59421 110.2606 -4.231804
v -14.1062 99.4528 0.939398
v -20.21941 117.5236 -2.764407
v -30.46823 121.6372 4.004187
v -26.20902 122.051 -7.109012
v -21.39102 133.2181 15.94309
v -28.22022 127.7203 9.964088
v -25.47562 137.0712 4.569093
v -18.26222 141.4041 10.85329
v -18.26222 141.4041 10.85329
v -25.47562 137.0712 4.569093
v -24.18502 136.2056 -7.232105
v -33.39272 128.0603 1.911888
v -36.55312 128.4916 -8.823212
v -33.22753 136.739 -0.567609
v -33.22753 136.739 -0.567609
v -36.55312 128.4916 -8.823212
v -39.79852 112.1077 -22.80772
v -32.64702 115.4547 -22.56112
v -30.61052 108.4036 -19.79002
v -39.19382 105.5643 -20.17562
v -39.79852 112.1077 -22.80772
v -35.82362 103.2005 -17.93422
v -30.61052 108.4036 -19.79002
v -40.69362 111.4744 -23.14382
v -35.13012 108.3413 -26.61522
v -30.40662 107.9327 -21.01042
v -40.69362 111.4744 -23.14382
v -30.40662 107.9327 -21.01042
v -7.545706 98.1733 9.337601
v 36.4263 77.20223 13.97873
v 36.89199 76.59513 15.49203
v 32.9622 75.37463 20.62343
v 31.7206 76.06713 19.54153
v 21.01868 112.5731 -0.998086
v 24.85958 114.4463 4.876814
v 27.99158 105.8706 7.186819
v 24.33329 102.5551 2.229119
v 14.41868 111.9025 2.151813
v 21.01868 112.5731 -0.998086
v 24.33329 102.5551 2.229119
v 17.45909 101.8485 6.042019
v 22.01668 108.5748 5.883112
v 22.77318 106.6124 11.88232
v 17.90568 106.3351 6.161512
v 17.49258 105.2247 12.22612
v 17.90568 106.3351 6.161512
v 17.49258 105.2247 12.22612
v 31.55339 90.57111 11.25903
v 27.87999 87.0872 8.034926
v 27.87999 87.0872 8.034926
v 24.51099 86.06701 11.53103
v 29.08909 91.32932 15.65672
v 23.97739 88.27921 15.43703
v 23.97739 88.27921 15.43703
v 31.16719 91.20953 10.82352
v 27.05849 91.93803 16.70382
v 35.63039 89.55153 13.53273
v 38.80059 85.93523 14.96443
v 31.95329 90.99533 20.05532
v 38.80059 85.93523 14.96443
v 36.07329 86.02003 19.14323
v 29.12949 81.66123 23.23643
v 30.05319 80.46783 22.55063
v 31.13229 81.04293 23.12933
v 30.20849 82.23633 23.81513
v 40.26549 83.33133 17.24763
v 36.46009 82.76383 23.34883
v 34.58949 87.19183 21.44922
v 36.4263 77.20223 13.97873
v 31.7206 76.06713 19.54153
v 34.58949 87.19183 21.44922
v 28.27109 82.28363 17.71403
v 26.16519 83.82663 19.07963
v 30.51949 83.94763 18.98423
v 28.41359 85.49063 20.34983
v 30.51949 83.94763 18.98423
v 28.41359 85.49063 20.34983
v 30.20849 82.23633 23.81513
v 31.13229 81.04293 23.12933
v 26.16519 83.82663 19.07963
v 29.12949 81.66123 23.23643
v -49.75992 69.82892 -9.475925
v -53.18322 71.03322 -2.669827
v -51.17922 69.32442 -8.697126
v -51.72312 72.06101 -2.727527
v -35.13012 108.3413 -26.61522
v -45.49482 103.6534 -21.03012
v -40.69362 111.4744 -23.14382
v -40.62932 99.28591 -23.53003
v -30.40662 107.9327 -21.01042
v -40.62932 99.28591 -23.53003
v -35.13012 108.3413 -26.61522
v -35.91692 98.95161 -17.21092
v -42.45772 104.9891 -14.79943
v -39.19382 105.5643 -20.17562
v -37.93492 103.4201 -12.15082
v -35.82362 103.2005 -17.93422
v -35.82362 103.2005 -17.93422
v -37.93492 103.4201 -12.15082
v -52.19022 89.58681 -16.48643
v -48.00762 85.37791 -17.39083
v -48.00762 85.37791 -17.39083
v -46.40952 84.85631 -12.72313
v -51.55193 91.0247 -11.63753
v -47.16752 87.72831 -9.315428
v -47.16752 87.72831 -9.315428
v -52.59222 85.08462 -17.64313
v -55.23732 88.37652 -11.79873
v -54.45922 80.11131 -16.30533
v -53.70212 75.46001 -14.58193
v -58.15322 83.30191 -10.44673
v -53.70212 75.46001 -14.58193
v -55.32782 77.4239 -10.29133
v -52.23553 80.9313 -2.410725
v -52.38373 78.90262 -2.927926
v -51.26022 79.62781 -2.723326
v -53.35902 80.20611 -2.615325
v -55.43592 73.72172 -13.42813
v -54.45922 80.11131 -16.30533
v -58.41122 76.08511 -7.297028
v -55.43592 73.72172 -13.42813
v -57.05872 79.02961 -8.469828
v -49.75992 69.82892 -9.475925
v -51.72312 72.06101 -2.727527
v -57.05872 79.02961 -8.469828
v -49.14302 82.57301 -6.811024
v -50.38403 85.00002 -5.692826
v -51.86423 81.27882 -7.408926
v -53.10522 83.70572 -6.290726
v -51.86423 81.27882 -7.408926
v -53.35902 80.20611 -2.615325
v -53.10522 83.70572 -6.290726
v -52.38373 78.90262 -2.927926
v -52.23553 80.9313 -2.410725
v -50.38403 85.00002 -5.692826
v 8.101404 87.08 -12.5988
v 12.4386 94.7145 -7.269897
v 14.7081 81.7559 -8.107096
v 3.083603 79.5751 -10.4909
v 15.0182 93.882 5.040703
v 17.6061 85.2144 3.866406
v 15.0182 93.882 5.040703
v 8.181797 92.5043 11.7936
v 12.4679 87.654 14.24021
v 17.6061 85.2144 3.866406
v -0.8743 80.9958 6.690903
v 8.626392 61.11959 8.608405
v 7.835386 66.77609 21.88081
v 18.0786 63.4593 6.567806
v 24.32469 68.8184 16.80461
v -0.8743 80.9958 6.690903
v 7.835386 66.77609 21.88081
v 18.18149 71.4244 27.75742
v 24.32469 68.8184 16.80461
v 24.04169 46.03949 25.00702
v 16.10568 44.41749 26.42972
v 28.91049 53.664 28.36432
v 13.07938 50.47869 31.15972
v 21.45489 60.2023 36.06131
v 28.91049 53.664 28.36432
v 13.07938 50.47869 31.15972
v 26.88339 54.3634 26.86972
v 13.36098 51.44589 29.35912
v 22.79848 51.7169 34.59893
v 26.88339 54.3634 26.86972
v 13.36098 51.44589 29.35912
v -4.059198 87.08 -14.9625
v -12.1144 81.7559 -13.3209
v -10.0755 94.7145 -11.6462
v -0.198897 79.5751 -11.1289
v -18.64578 83.04818 0.053849
v -17.0788 93.882 -1.198302
v -17.0788 93.882 -1.198302
v -13.37936 81.55428 10.54698
v -13.2699 92.5043 7.623899
v -18.64578 83.04818 0.053849
v -2.9628 80.9958 6.284902
v -7.039478 60.28571 -5.514207
v -6.321533 60.03226 8.91486
v -17.23693 62.27373 -6.516777
v -23.3245 62.18166 4.997376
v -6.321533 60.03226 8.91486
v -2.9628 80.9958 6.284902
v -16.73809 60.6624 16.12121
v -23.3245 62.18166 4.997376
v -20.44243 38.23996 3.053851
v -12.04703 37.0184 3.762158
v -25.6423 43.17554 9.25069
v -9.469963 40.88903 10.59639
v -18.62074 46.74969 19.01434
v -25.6423 43.17554 9.25069
v -9.469963 40.88903 10.59639
v -23.71972 45.01164 8.254687
v -9.880961 42.84136 9.412143
v -19.11367 39.53453 13.93059
v -23.71972 45.01164 8.254687
v -9.880961 42.84136 9.412143
v 3.236897 106.9351 -5.503402
v 10.9002 106.001 2.503801
v 1.816599 96.6781 -12.7247
v 8.730494 101.2886 11.4939
v 2.468694 99.4528 12.9818
v 8.730494 101.2886 11.4939
v -6.746502 106.001 -10.3173
v -14.6261 101.2886 -5.475704
v -14.1062 99.4528 0.939398
v -14.6261 101.2886 -5.475704
v -7.545706 98.1733 9.337601
v -5.939502 88.0143 11.4958
v -0.065502 88.0143 12.6376
v -11.89178 49.19036 23.90818
v 14.46438 63.7368 39.77572
v 7.364487 78.61039 27.19632
v -6.8629 68.60472 18.64793
v 21.69118 63.8904 36.81832
v 16.10589 79.0837 23.95881
v -3.169102 82.61 12.9339
v 8.140898 82.61 13.8327
v -3.169102 82.61 12.9339
v 8.140898 82.61 13.8327
v -13.9922 82.61 9.5305
v -13.9922 82.61 9.5305
v -15.72569 69.40084 15.83127
v -19.20527 49.74894 21.22556
v 21.04977 0.27538 9.889606
v 31.24218 0.323381 8.818307
v 34.58648 0.248577 15.87181
v 20.45097 0.200672 17.35751
v 16.10568 44.41749 26.42972
v 24.04169 46.03949 25.00702
v 24.02249 40.72829 14.69022
v 15.54888 38.83049 16.23742
v 24.04169 46.03949 25.00702
v 26.88339 54.3634 26.86972
v 30.35159 41.34699 21.86303
v 24.02249 40.72829 14.69022
v 13.36098 51.44589 29.35912
v 16.10568 44.41749 26.42972
v 15.54888 38.83049 16.23742
v 22.79848 51.7169 34.59893
v 26.00168 21.31399 14.02772
v 19.82377 19.96208 15.16152
v 30.86328 18.76028 16.95643
v 26.00168 21.31399 14.02772
v 19.82377 19.96208 15.16152
v 20.05398 16.43078 18.94683
v 28.04098 12.96128 22.72163
v 28.79138 7.511684 9.648613
v 21.50908 7.463682 10.41401
v 32.76318 11.47388 15.88072
v 28.79138 7.511684 9.648613
v 21.50908 7.463682 10.41401
v 20.93188 11.42588 17.12422
v 31.24218 0.323381 8.818307
v 21.04977 0.27538 9.889606
v 34.23308 4.137764 33.16753
v 29.81268 7.93546 38.15013
v 30.57557 0.224554 40.38063
v 35.56858 0.24856 34.94813
v 23.35518 4.089761 34.31083
v 22.99527 0.200657 36.26963
v 28.74968 9.920269 28.24823
v 33.72728 5.095871 25.16082
v 22.24248 5.047967 26.36792
v -9.967848 -0.019614 -24.37249
v -24.76435 -0.046418 -24.67169
v -18.75255 0.028379 -29.65089
v -12.58115 -0.09441 -17.35128
v -12.04703 37.0184 3.762158
v -20.02014 39.16676 -8.854696
v -20.44243 38.23996 3.053851
v -11.05596 37.70805 -8.148788
v -20.44243 38.23996 3.053851
v -25.85758 35.56992 -2.366341
v -23.71972 45.01164 8.254687
v -20.02014 39.16676 -8.854696
v -9.880961 42.84136 9.412143
v -11.05596 37.70805 -8.148788
v -12.04703 37.0184 3.762158
v -19.11367 39.53453 13.93059
v -19.81643 22.25531 -18.61348
v -13.2071 21.20501 -18.07203
v -23.9762 18.04269 -17.32473
v -19.81643 22.25531 -18.61348
v -13.2071 21.20501 -18.07203
v -12.91431 16.30991 -16.3978
v -20.33203 10.58311 -14.89448
v -16.88215 7.216684 -27.86269
v -10.60574 7.168688 -24.09139
v -23.11565 11.17889 -23.89309
v -16.88215 7.216684 -27.86269
v -10.60574 7.168688 -24.09139
v -12.91845 11.13089 -17.76599
v -18.75255 0.028379 -29.65089
v -9.967848 -0.019614 -24.37249
v -31.55066 3.842794 -8.725183
v -31.48716 -0.0704 -0.76408
v -29.85306 7.640501 -2.463182
v -33.71646 -0.046406 -7.79768
v -22.87966 -0.0944 -1.286274
v -22.37815 3.7948 -3.213778
v -24.70485 9.625297 -10.98809
v -27.91536 4.800889 -15.89229
v -18.01275 4.752896 -9.942181
v -27.26972 39.44847 1.620611
v -23.71972 45.01164 8.254687
v -20.44243 38.23996 3.053851
v -18.10715 48.11232 -6.43924
v -12.04703 37.0184 3.762158
v -9.719074 46.87813 -5.670158
v 21.03639 49.47889 12.68301
v 13.10749 47.87209 14.16171
v 16.10568 44.41749 26.42972
v 24.04169 46.03949 25.00702
v 26.88339 54.3634 26.86972
v 31.21069 46.7757 23.51362
v 22.79848 51.7169 34.59893
v 25.47708 39.73479 35.40693
v -20.39544 28.35849 8.945517
v -19.11367 39.53453 13.93059
v 13.36098 51.44589 29.35912
v 13.34668 42.94179 26.80602
v -8.989996 36.59729 3.162531
v -9.880961 42.84136 9.412143
v -75.40193 99.78088 39.31248
v -77.18525 102.7917 36.94208
v -53.28882 73.67831 -18.01423
v -51.50562 70.66752 -15.64383
v -71.90334 102.1584 39.57428
v -48.00692 73.04491 -15.38203
v -49.79022 76.05572 -17.75233
v -73.68665 105.1692 37.20387
v -75.40193 99.78088 39.31248
v -51.50562 70.66752 -15.64383
v -48.00692 73.04491 -15.38203
v -71.90334 102.1584 39.57428
v -51.50562 70.66752 -15.64383
v -53.28882 73.67831 -18.01423
v -49.79022 76.05572 -17.75233
v -48.00692 73.04491 -15.38203
v -53.28882 73.67831 -18.01423
v -77.18525 102.7917 36.94208
v -73.68665 105.1692 37.20387
v -49.79022 76.05572 -17.75233
v -77.18525 102.7917 36.94208
v -75.40193 99.78088 39.31248
v -71.90334 102.1584 39.57428
v -73.68665 105.1692 37.20387
v -75.72444 84.81819 28.20847
v -79.70714 89.67039 37.36787
v -74.09843 107.3593 30.43587
v -70.11574 102.5071 21.27647
v -69.19093 84.02469 31.46978
v -63.58223 101.7135 24.53777
v -67.56494 106.5658 33.69718
v -73.17365 88.87689 40.62917
v -75.72444 84.81819 28.20847
v -70.11574 102.5071 21.27647
v -63.58223 101.7135 24.53777
v -69.19093 84.02469 31.46978
v -70.11574 102.5071 21.27647
v -74.09843 107.3593 30.43587
v -67.56494 106.5658 33.69718
v -63.58223 101.7135 24.53777
v -74.09843 107.3593 30.43587
v -79.70714 89.67039 37.36787
v -73.17365 88.87689 40.62917
v -67.56494 106.5658 33.69718
v -79.70714 89.67039 37.36787
v -75.72444 84.81819 28.20847
v -69.19093 84.02469 31.46978
v -73.17365 88.87689 40.62917
v 0.589382 87.46944 81.93182
v -10.97762 90.95945 88.1981
v 27.67919 83.52953 29.96102
v 33.30029 82.87464 33.84753
v -10.97762 90.95945 88.1981
v 29.16119 87.32103 30.60692
v 23.54009 87.97583 26.72042
v -9.170712 92.57073 74.80481
v 0.589382 87.46944 81.93182
v 33.30029 82.87464 33.84753
v 29.16119 87.32103 30.60692
v -10.97762 90.95945 88.1981
v 33.30029 82.87464 33.84753
v 27.67919 83.52953 29.96102
v 23.54009 87.97583 26.72042
v 29.16119 87.32103 30.60692
v 27.67919 83.52953 29.96102
v -10.97762 90.95945 88.1981
v -9.170712 92.57073 74.80481
v 23.54009 87.97583 26.72042
v 31.04989 83.95193 32.22363
v 27.70019 83.60483 29.97803
v 40.49389 81.80763 11.17153
v 43.84359 82.15473 13.41703
v 29.06799 87.08773 30.57572
v 41.86179 85.29063 11.76923
v 38.51209 84.94352 9.523628
v 25.71839 86.74063 28.33022
v 31.04989 83.95193 32.22363
v 43.84359 82.15473 13.41703
v 41.86179 85.29063 11.76923
v 29.06799 87.08773 30.57572
v 43.84359 82.15473 13.41703
v 40.49389 81.80763 11.17153
v 38.51209 84.94352 9.523628
v 41.86179 85.29063 11.76923
v 40.49389 81.80763 11.17153
v 27.70019 83.60483 29.97803
v 25.71839 86.74063 28.33022
v 38.51209 84.94352 9.523628
vn 0.077102 0.942631 0.324811
vn 0.169007 0.949541 -0.264212
vn -0.052999 0.276698 -0.959494
vn 0.881618 0.042901 -0.470009
vn -0.403096 -0.210198 0.890691
vn -0.204307 0.267909 0.941532
vn 0.922303 -0.360101 0.140301
vn 0.127897 -0.991572 0.0207
vn -0.583919 0.795726 -0.160806
vn -0.052999 0.276698 -0.959494
vn 0.169007 0.949541 -0.264212
vn -0.922818 0.0159 -0.384908
vn -0.809421 -0.533814 0.244706
vn -0.902244 -0.009501 0.431121
vn -0.742142 -0.076704 -0.665839
vn 0.536384 0.079997 -0.840174
vn -0.858645 0.425822 -0.285315
vn -0.854532 0.460517 0.240208
vn -0.435693 0.853786 0.284995
vn -0.300905 0.857113 -0.418107
vn 0.1179 0.962708 0.243502
vn 0.395598 0.834295 -0.383998
vn 0.395598 0.834295 -0.383998
vn 0.1179 0.962708 0.243502
vn 0.6321 0.7712 0.0755
vn 0.775623 0.493515 -0.393512
vn -0.189604 -0.949023 0.251806
vn 0.510903 -0.859304 0.024001
vn -0.159791 -0.767055 0.621364
vn -0.616682 -0.529984 0.582083
vn 0.449914 -0.65792 0.603919
vn 0.872911 -0.357305 0.332205
vn -0.086703 -0.578122 0.811331
vn -0.552787 -0.575287 0.602886
vn 0.513405 -0.492705 0.702608
vn 0.183593 -0.682272 0.707671
vn 0.810802 -0.339501 0.476802
vn -0.1011 -0.894005 0.436503
vn -0.505072 -0.804056 0.313683
vn 0.380618 -0.86464 0.327915
vn 0.823192 -0.541495 0.170699
vn -0.129495 -0.48448 0.865165
vn -0.640194 -0.303097 0.705893
vn 0.373483 -0.64637 0.66537
vn 0.860797 -0.285399 0.421399
vn 0.921178 0.379991 -0.083898
vn 0.993586 0.100099 0.0526
vn 0.971453 -0.118894 0.205291
vn 0.977975 -0.204495 -0.041799
vn 0.789034 0.490421 0.370016
vn 0.998572 -0.051499 0.0142
vn 0.977136 -0.209408 0.036802
vn 0.268409 0.625122 0.732926
vn -0.142802 0.608105 0.780907
vn -0.666586 0.395292 0.631987
vn -0.973186 0.162798 0.162497
vn -0.992742 -0.119505 -0.013501
vn -0.91702 -0.241905 0.317107
vn -0.967549 -0.239587 -0.080296
vn -0.877447 -0.410822 0.247613
vn -0.876795 -0.383198 0.290498
vn -0.451493 -0.051499 -0.890787
vn 0.198008 0.026701 -0.979837
vn 0.198008 0.026701 -0.979837
vn 0.43488 0.781664 -0.44708
vn -0.327598 0.581597 -0.744597
vn -0.300905 0.857113 -0.418107
vn 0.395598 0.834295 -0.383998
vn 0.775623 0.493515 -0.393512
vn 0.993586 0.100099 0.0526
vn 0.903735 0.330813 0.271711
vn -0.992742 -0.119505 -0.013501
vn -0.858645 0.425822 -0.285315
vn -0.871808 0.149101 -0.466605
vn -0.871808 0.149101 -0.466605
vn -0.920602 0.1697 -0.351701
vn -0.967549 -0.239587 -0.080296
vn -0.992742 -0.119505 -0.013501
vn 0.971453 -0.118894 0.205291
vn 0.585504 0.192402 0.787506
vn -0.858645 0.425822 -0.285315
vn 0.569119 0.250008 -0.783326
vn 0.581839 0.134809 -0.802054
vn 0.964441 0.077403 -0.252711
vn 0.992913 0.099301 -0.065301
vn 0.543202 0.376401 -0.750502
vn 0.978391 0.197498 -0.061199
vn 0.186701 0.947606 -0.259202
vn 0.781366 0.623573 -0.024999
vn -0.537283 -0.405587 0.739477
vn 0.109599 -0.323996 0.939689
vn 0.198804 -0.665414 0.719515
vn -0.373789 -0.771677 0.514585
vn -0.122301 -0.589704 0.798306
vn -0.560322 -0.305112 0.77003
vn -0.32189 -0.837173 0.442186
vn -0.601506 -0.053001 0.797108
vn 0.776799 -0.2117 0.593099
vn 0.629038 -0.187411 0.754446
vn 0.89259 -0.043199 0.448795
vn 0.309908 0.797322 -0.517914
vn 0.629038 -0.187411 0.754446
vn 0.776799 -0.2117 0.593099
vn -0.111404 -0.314109 0.942828
vn 0.89259 -0.043199 0.448795
vn 0.309908 0.797322 -0.517914
vn 0.338491 -0.693781 0.635683
vn -0.0817 0.0174 0.996505
vn -0.204307 0.267909 0.941532
vn -0.403096 -0.210198 0.890691
vn 0.211192 0.706972 0.674973
vn 0.077102 0.942631 0.324811
vn 0.211192 0.706972 0.674973
vn 0.077102 0.942631 0.324811
vn 0.795282 0.599387 -0.090898
vn 0.613915 -0.281907 0.737318
vn 0.581777 0.544079 0.604577
vn 0.910033 0.27201 0.312811
vn 0.910033 0.27201 0.312811
vn 0.581777 0.544079 0.604577
vn 0.781801 0.618401 0.0798
vn -0.027601 0.556426 -0.830439
vn -0.877989 -0.080899 -0.471794
vn 0.549013 -0.210705 0.808819
vn 0.781801 0.618401 0.0798
vn -0.267799 -0.823398 0.500299
vn -0.877989 -0.080899 -0.471794
vn 0.638495 0.769094 -0.0286
vn -0.086797 0.709172 -0.699673
vn -0.902671 0.30439 -0.304191
vn 0.638495 0.769094 -0.0286
vn -0.902671 0.30439 -0.304191
vn 0.169007 0.949541 -0.264212
vn -0.062998 0.088697 -0.994065
vn -0.244792 0.099397 -0.964467
vn 0.162494 0.084796 -0.983059
vn -0.007 0.840605 -0.541603
vn -0.734606 -0.677706 0.0327
vn -0.927385 -0.324595 0.185997
vn -0.717097 -0.501998 0.483498
vn -0.805765 -0.198791 -0.557876
vn -0.911927 -0.187306 -0.365111
vn -0.555324 -0.521722 -0.647628
vn 0.562596 -0.526995 -0.636995
vn -0.911927 -0.187306 -0.365111
vn -0.805765 -0.198791 -0.557876
vn -0.862298 -0.313999 0.397299
vn -0.555324 -0.521722 -0.647628
vn -0.525416 -0.813225 0.250207
vn 0.562596 -0.526995 -0.636995
vn -0.902244 -0.009501 0.431121
vn -0.767996 0.162499 0.619497
vn -0.471812 0.858622 0.200405
vn -0.583919 0.795726 -0.160806
vn -0.583919 0.795726 -0.160806
vn -0.471812 0.858622 0.200405
vn -0.0544 0.696294 -0.715693
vn -0.882627 -0.109204 0.457214
vn -0.920288 0.372095 -0.120898
vn -0.701383 0.674283 0.231094
vn -0.701383 0.674283 0.231094
vn -0.920288 0.372095 -0.120898
vn -0.692873 0.672673 -0.25969
vn 0.429023 0.448924 -0.783841
vn 0.984518 -0.164403 -0.060801
vn -0.851118 -0.043001 0.523211
vn -0.692873 0.672673 -0.25969
vn -0.043499 -0.737378 0.674079
vn 0.984518 -0.164403 -0.060801
vn -0.531696 0.801594 -0.273398
vn 0.425072 0.596562 -0.680756
vn 0.968015 0.241304 0.068701
vn -0.531696 0.801594 -0.273398
vn 0.968015 0.241304 0.068701
vn -0.563722 -0.283111 0.775929
vn -0.355399 -0.5261 -0.772599
vn 0.739303 -0.601802 -0.302101
vn 0.167101 -0.934501 0.314301
vn -0.996629 -0.080903 -0.013601
vn 0.514697 -0.0804 -0.853594
vn 0.491095 0.827092 0.273397
vn 0.956969 0.289691 -0.016999
vn 0.236402 -0.264702 -0.934905
vn -0.769773 -0.401686 -0.496083
vn 0.514697 -0.0804 -0.853594
vn 0.236402 -0.264702 -0.934905
vn -0.885315 -0.334106 -0.323405
vn -0.546385 0.798378 0.253093
vn 0.016 0.558109 0.829613
vn -0.860888 0.406194 0.306396
vn -0.852501 0.3377 0.399
vn -0.860888 0.406194 0.306396
vn -0.852501 0.3377 0.399
vn 0.454624 -0.824543 -0.336817
vn 0.048903 -0.43222 -0.900441
vn 0.048903 -0.43222 -0.900441
vn -0.399008 -0.872019 -0.283506
vn 0.514886 0.302592 0.802079
vn -0.855793 -0.0113 0.517196
vn -0.855793 -0.0113 0.517196
vn -0.170002 0.934111 -0.313904
vn -0.96068 0.229695 0.155996
vn 0.731194 0.672795 -0.112699
vn 0.619378 -0.384887 -0.684276
vn 0.1419 0.895704 0.421401
vn 0.619378 -0.384887 -0.684276
vn -0.565492 -0.77439 -0.283796
vn -0.559634 -0.253715 0.788948
vn -0.309188 -0.937565 0.159294
vn 0.669669 -0.665669 0.329285
vn 0.327191 0.428189 0.842378
vn 0.95593 0.054402 0.288509
vn 0.30921 0.176707 0.934432
vn -0.843609 -0.387504 0.371704
vn -0.355399 -0.5261 -0.772599
vn -0.996629 -0.080903 -0.013601
vn -0.843609 -0.387504 0.371704
vn -0.051502 -0.887036 -0.458818
vn -0.876925 -0.374211 0.301609
vn 0.94792 -0.310006 -0.073101
vn -0.330194 0.182097 0.926182
vn 0.94792 -0.310006 -0.073101
vn -0.330194 0.182097 0.926182
vn 0.327191 0.428189 0.842378
vn 0.669669 -0.665669 0.329285
vn -0.876925 -0.374211 0.301609
vn -0.559634 -0.253715 0.788948
vn 0.920745 -0.385319 0.061303
vn -0.212495 -0.831679 0.512987
vn -0.059101 -0.933715 -0.353106
vn 0.491116 0.473716 0.731025
vn -0.148702 -0.211902 -0.965912
vn -0.832422 0.330209 -0.445012
vn -0.450008 0.889215 -0.082401
vn 0.114598 -0.422091 -0.899281
vn 0.846989 -0.526093 -0.076399
vn 0.114598 -0.422091 -0.899281
vn -0.148702 -0.211902 -0.965912
vn 0.893599 -0.433699 0.1157
vn -0.264601 0.706301 0.656601
vn 0.513992 0.799589 0.310596
vn 0.674068 0.362383 0.64367
vn 0.723496 0.410798 0.554797
vn 0.723496 0.410798 0.554797
vn 0.674068 0.362383 0.64367
vn -0.649414 0.296107 -0.700416
vn 0.340514 -0.397816 -0.851935
vn 0.340514 -0.397816 -0.851935
vn 0.78349 -0.592093 0.188598
vn -0.65998 0.591981 0.462585
vn 0.173398 0.374695 0.910789
vn 0.173398 0.374695 0.910789
vn -0.543396 0.144799 -0.826894
vn -0.723771 0.647774 0.23779
vn -0.513478 -0.207391 -0.832664
vn 0.468123 -0.572027 -0.673532
vn -0.923246 0.338417 0.181909
vn 0.468123 -0.572027 -0.673532
vn 0.824027 -0.118504 0.554019
vn -0.093798 0.280094 0.955379
vn 0.071802 -0.93822 0.338507
vn 0.697606 -0.198602 0.688406
vn -0.921418 -0.169804 0.349507
vn -0.579898 -0.621198 -0.527098
vn -0.513478 -0.207391 -0.832664
vn -0.877458 0.105194 0.467977
vn -0.579898 -0.621198 -0.527098
vn -0 0.317397 0.948293
vn 0.920745 -0.385319 0.061303
vn 0.491116 0.473716 0.731025
vn -0 0.317397 0.948293
vn 0.838461 -0.517275 0.171492
vn 0.344104 0.558306 0.754909
vn -0.075396 -0.996156 -0.044598
vn -0.564187 0.349592 0.747983
vn -0.075396 -0.996156 -0.044598
vn -0.921418 -0.169804 0.349507
vn -0.564187 0.349592 0.747983
vn 0.071802 -0.93822 0.338507
vn -0.093798 0.280094 0.955379
vn 0.344104 0.558306 0.754909
vn 0.372787 -0.046198 -0.926766
vn 0.813264 0.366984 -0.45158
vn 0.750691 -0.127199 -0.648292
vn 0.0009 -0.674487 -0.738286
vn 0.843891 0.428996 0.322197
vn 0.938163 0.343587 0.042399
vn 0.843891 0.428996 0.322197
vn 0.127896 0.020899 0.991567
vn 0.113199 0.523298 0.844597
vn 0.938163 0.343587 0.042399
vn -0.478706 -0.671008 0.566207
vn -0.559112 -0.708315 -0.43091
vn -0.891199 -0.0139 0.453399
vn 0.544026 -0.488323 -0.682332
vn 0.962164 0.26949 -0.040198
vn -0.478706 -0.671008 0.566207
vn -0.891199 -0.0139 0.453399
vn 0.135701 0.624304 0.769305
vn 0.962164 0.26949 -0.040198
vn 0.130902 -0.83381 -0.536307
vn -0.586478 -0.756771 -0.288689
vn 0.937391 -0.296697 0.182399
vn -0.31779 -0.108196 0.941968
vn 0.577079 0.134895 0.805471
vn 0.937391 -0.296697 0.182399
vn -0.31779 -0.108196 0.941968
vn -0.537722 -0.754531 0.376215
vn 0.75169 -0.336195 0.567393
vn 0.109699 -0.691093 0.714393
vn -0.537722 -0.754531 0.376215
vn 0.75169 -0.336195 0.567393
vn 0.034801 -0.103403 -0.994031
vn -0.554791 -0.049999 -0.830486
vn -0.480273 0.217388 -0.849753
vn 0.253994 -0.717784 -0.648285
vn -0.978288 0.207251 -0.000833
vn -0.981655 0.186592 0.039198
vn -0.981655 0.186592 0.039198
vn -0.301738 0.225463 0.926348
vn -0.642609 0.133302 0.75451
vn -0.978288 0.207251 -0.000833
vn 0.329402 -0.568703 0.753705
vn 0.677382 -0.390386 -0.623501
vn 0.892655 -0.083487 0.442942
vn -0.475732 -0.210606 -0.854005
vn -0.984122 0.174318 0.033438
vn 0.892655 -0.083487 0.442942
vn 0.329402 -0.568703 0.753705
vn -0.160129 0.234287 0.958889
vn -0.984122 0.174318 0.033438
vn -0.066428 -0.552045 -0.831164
vn 0.650195 -0.497381 -0.574334
vn -0.894633 -0.446004 0.026704
vn 0.384158 -0.42186 0.821253
vn -0.564457 -0.265872 0.781473
vn -0.894633 -0.446004 0.026704
vn 0.384158 -0.42186 0.821253
vn 0.686547 -0.726779 -0.021093
vn -0.728309 -0.597065 0.336273
vn 0.029824 -0.940272 0.339115
vn 0.686547 -0.726779 -0.021093
vn -0.728309 -0.597065 0.336273
vn 0.376197 0.432896 -0.819193
vn 0.936181 0.294194 -0.192396
vn 0.177397 0.374293 -0.910184
vn 0.808983 0.199096 0.553089
vn -0.0254 -0.188701 0.981706
vn 0.808983 0.199096 0.553089
vn -0.107795 0.147593 -0.983156
vn -0.950132 0.193307 -0.244708
vn -0.905175 0.232993 0.35549
vn -0.950132 0.193307 -0.244708
vn -0.338215 0.148107 0.929341
vn -0.373493 -0.145297 0.916183
vn -0.034301 -0.204206 0.978327
vn -0.4664 0.328488 0.82132
vn -0.044903 0.626233 0.778342
vn -0.318298 0.711295 0.626695
vn -0.428605 0.404694 0.807788
vn 0.266101 0.677902 0.685302
vn 0.185693 0.798471 0.57268
vn -0.261806 0.330907 0.906619
vn -0.017101 0.806328 0.591221
vn -0.261806 0.330907 0.906619
vn -0.017101 0.806328 0.591221
vn -0.267209 0.365512 0.891628
vn -0.267209 0.365512 0.891628
vn -0.268691 0.355787 0.89511
vn -0.307844 0.302121 0.902195
vn -0.690832 -0.599127 -0.404719
vn 0.255191 -0.199592 -0.946066
vn 0.906212 -0.363605 -0.215803
vn -0.725415 -0.686314 0.0524
vn 0.20619 0.966651 -0.151892
vn -0.325993 0.884181 -0.334593
vn 0.201193 0.579878 -0.78947
vn -0.258295 0.371493 -0.891783
vn -0.325993 0.884181 -0.334593
vn 0.768119 0.619916 0.160304
vn 0.934479 0.318493 -0.159096
vn 0.201193 0.579878 -0.78947
vn -0.859397 -0.0496 0.508898
vn 0.20619 0.966651 -0.151892
vn -0.258295 0.371493 -0.891783
vn 0.107498 -0.155398 0.981986
vn 0.227904 0.181503 -0.956617
vn -0.761513 0.0238 -0.647712
vn 0.928894 0.149799 -0.338698
vn 0.227904 0.181503 -0.956617
vn -0.761513 0.0238 -0.647712
vn -0.853572 -0.283191 0.437285
vn 0.22409 0.288588 0.93086
vn 0.370684 0.290188 -0.882261
vn -0.728015 0.061302 -0.682815
vn 0.907313 0.395606 -0.142402
vn 0.370684 0.290188 -0.882261
vn -0.728015 0.061302 -0.682815
vn -0.968059 0.048997 0.24589
vn 0.255191 -0.199592 -0.946066
vn -0.690832 -0.599127 -0.404719
vn 0.85259 0.480094 0.206398
vn -0.0568 0.701601 0.710303
vn 0.444022 -0.032002 0.895444
vn 0.576695 -0.793494 0.194398
vn -0.757364 0.564473 0.328285
vn -0.819646 -0.300017 0.488027
vn 0.187305 0.935624 0.299208
vn 0.894599 0.438399 0.0866
vn -0.854109 0.432204 0.289304
vn 0.797146 -0.599135 -0.074804
vn -0.732906 -0.363303 -0.575205
vn 0.168497 -0.199597 -0.965282
vn 0.6353 -0.6863 0.354101
vn -0.091744 0.977188 0.191541
vn -0.304845 0.867793 -0.392436
vn 0.057564 0.982182 0.1789
vn 0.182035 0.781191 -0.597163
vn 0.057564 0.982182 0.1789
vn -0.970035 0.242865 0.006988
vn -0.92547 0.371202 0.075593
vn -0.304845 0.867793 -0.392436
vn 0.985136 -0.094157 0.143674
vn 0.182035 0.781191 -0.597163
vn -0.091744 0.977188 0.191541
vn -0.057344 -0.609456 0.790744
vn -0.190147 0.515458 -0.835552
vn 0.792945 0.313557 -0.522418
vn -0.944074 0.127053 -0.304273
vn -0.190147 0.515458 -0.835552
vn 0.792945 0.313557 -0.522418
vn 0.833528 -0.27612 0.478528
vn -0.290422 0.102619 0.95138
vn -0.033399 0.372889 -0.927275
vn 0.927409 0.139401 -0.347103
vn -0.769395 0.457197 -0.446098
vn -0.033399 0.372889 -0.927275
vn 0.927409 0.139401 -0.347103
vn 0.790321 0.093503 0.605516
vn 0.168497 -0.199597 -0.965282
vn 0.797146 -0.599135 -0.074804
vn -0.860509 0.479305 -0.172602
vn -0.785698 -0.0226 0.618198
vn -0.256806 0.702518 0.663716
vn -0.611442 -0.788353 -0.068104
vn 0.536603 -0.300001 0.788706
vn 0.547713 0.564414 0.617614
vn -0.178193 0.963562 0.199492
vn -0.85667 0.425685 -0.29139
vn 0.649321 0.445015 0.61672
vn -0.393884 0.831201 0.392378
vn -0.92547 0.371202 0.075593
vn 0.057564 0.982182 0.1789
vn 0.004299 0.692075 0.721813
vn -0.091744 0.977188 0.191541
vn 0.101135 0.675264 0.730609
vn -0.192003 0.970017 0.149002
vn -0.164097 0.974881 0.150597
vn 0.20619 0.966651 -0.151892
vn -0.325993 0.884181 -0.334593
vn 0.768119 0.619916 0.160304
vn 0.87452 0.483811 0.033801
vn 0.107498 -0.155398 0.981986
vn 0.488492 0.172798 0.855287
vn -0.476836 -0.306464 0.823837
vn -0.057344 -0.609456 0.790744
vn -0.859397 -0.0496 0.508898
vn -0.769793 -0.125699 0.625794
vn 0.682976 0.208324 0.700104
vn 0.985136 -0.094157 0.143674
vn -0.832673 -0.549182 -0.071098
vn -0.832673 -0.549182 -0.071098
vn -0.832673 -0.549182 -0.071098
vn -0.832673 -0.549182 -0.071098
vn 0.832673 0.549182 0.071098
vn 0.832673 0.549182 0.071098
vn 0.832673 0.549182 0.071098
vn 0.832673 0.549182 0.071098
vn 0.435718 -0.70313 0.561924
vn 0.435718 -0.70313 0.561924
vn 0.435718 -0.70313 0.561924
vn 0.435718 -0.70313 0.561924
vn 0.358683 -0.436979 -0.824861
vn 0.358683 -0.436979 -0.824861
vn 0.358683 -0.436979 -0.824861
vn 0.358683 -0.436979 -0.824861
vn -0.435718 0.70313 -0.561924
vn -0.435718 0.70313 -0.561924
vn -0.435718 0.70313 -0.561924
vn -0.435718 0.70313 -0.561924
vn -0.358683 0.436979 0.824861
vn -0.358683 0.436979 0.824861
vn -0.358683 0.436979 0.824861
vn -0.358683 0.436979 0.824861
vn -0.889495 0.107999 -0.443998
vn -0.889495 0.107999 -0.443998
vn -0.889495 0.107999 -0.443998
vn -0.889495 0.107999 -0.443998
vn 0.889495 -0.107999 0.443998
vn 0.889495 -0.107999 0.443998
vn 0.889495 -0.107999 0.443998
vn 0.889495 -0.107999 0.443998
vn 0.358683 -0.436979 -0.824861
vn 0.358683 -0.436979 -0.824861
vn 0.358683 -0.436979 -0.824861
vn 0.358683 -0.436979 -0.824861
vn 0.283096 0.892989 -0.349896
vn 0.283096 0.892989 -0.349896
vn 0.283096 0.892989 -0.349896
vn 0.283096 0.892989 -0.349896
vn -0.358683 0.436979 0.824861
vn -0.358683 0.436979 0.824861
vn -0.358683 0.436979 0.824861
vn -0.358683 0.436979 0.824861
vn -0.283096 -0.892989 0.349896
vn -0.283096 -0.892989 0.349896
vn -0.283096 -0.892989 0.349896
vn -0.283096 -0.892989 0.349896
vn -0.233211 -0.971246 -0.047902
vn -0.339501 -0.934603 -0.1061
vn -0.233211 -0.971246 -0.047902
vn -0.123202 -0.992321 0.011001
vn 0.238207 0.967328 0.086802
vn 0.107503 0.994131 0.0121
vn 0.238207 0.967328 0.086802
vn 0.363311 0.91793 0.159405
vn 0.481396 0.835294 0.265598
vn 0.569399 0.759399 0.314799
vn 0.481396 0.835294 0.265598
vn 0.385816 0.897838 0.212209
vn 0.560728 -0.078804 -0.824241
vn 0.560728 -0.078804 -0.824241
vn 0.560728 -0.078804 -0.824241
vn 0.560728 -0.078804 -0.824241
vn -0.498012 -0.83292 -0.241306
vn -0.418704 -0.89321 -0.163901
vn -0.498012 -0.83292 -0.241306
vn -0.569399 -0.759399 -0.314799
vn 0.027 -0.993194 0.1133
vn 0.027 -0.993194 0.1133
vn 0.027 -0.993194 0.1133
vn 0.027 -0.993194 0.1133
vn -0.027 0.993194 -0.1133
vn -0.027 0.993194 -0.1133
vn -0.027 0.993194 -0.1133
vn -0.027 0.993194 -0.1133
vn 0.668709 0.630109 0.394705
vn 0.668709 0.630109 0.394705
vn 0.668709 0.630109 0.394705
vn 0.668709 0.630109 0.394705
vn 0.560682 -0.078798 -0.824274
vn 0.560682 -0.078798 -0.824274
vn 0.560682 -0.078798 -0.824274
vn 0.560682 -0.078798 -0.824274
vn -0.668709 -0.630109 -0.394705
vn -0.668709 -0.630109 -0.394705
vn -0.668709 -0.630109 -0.394705
vn -0.668709 -0.630109 -0.394705
vt 0.9256 0.7568
vt 0.9989 0.7568
vt 0.9989 0.8353
vt 0.9167 0.8327
vt 0.7525 0.7567
vt 0.8291 0.7568
vt 0.7954 0.8226
vt 0.7524 0.7978
vt 0.5746 0.7568
vt 0.5009 0.8353
vt 0.5011 0.7568
vt 0.5831 0.8327
vt 0.7083 0.8226
vt 0.6743 0.7568
vt 0.5381 0.8687
vt 0.9611 0.8687
vt 0.5469 0.9378
vt 0.5669 0.959
vt 0.5234 0.998
vt 0.5224 0.9469
vt 0.5019 0.998
vt 0.5019 0.9469
vt 0.9987 0.9469
vt 0.9987 0.998
vt 0.9332 0.959
vt 0.953 0.9378
vt 0.7443 0.8159
vt 0.7591 0.8159
vt 0.7447 0.8552
vt 0.7247 0.8649
vt 0.7586 0.8552
vt 0.7784 0.8649
vt 0.7464 0.8898
vt 0.7219 0.8962
vt 0.757 0.8898
vt 0.7517 0.8578
vt 0.7813 0.8962
vt 0.7414 0.9085
vt 0.7188 0.9144
vt 0.7618 0.9085
vt 0.7843 0.9144
vt 0.7409 0.9524
vt 0.7184 0.9479
vt 0.7625 0.9524
vt 0.7848 0.9479
vt 0.9174 0.9418
vt 0.9172 0.9022
vt 0.8931 0.865
vt 0.8084 0.8676
vt 0.8101 0.9637
vt 0.806 0.934
vt 0.8113 0.8987
vt 0.7935 0.9999
vt 0.7139 0.9999
vt 0.6927 0.9637
vt 0.5831 0.9418
vt 0.5834 0.9022
vt 0.6968 0.934
vt 0.6081 0.865
vt 0.6946 0.8676
vt 0.6915 0.8987
vt 0.5322 0.8888
vt 0.9987 0.8888
vt 0.5008 0.8888
vt 0.7929 0.3885
vt 0.7929 0.3885
vt 0.793 0.4475
vt 0.793 0.4475
vt 0.7534 0.4478
vt 0.7066 0.4476
vt 0.7069 0.3886
vt 0.7226 0.4457
vt 0.7759 0.4481
vt 0.7541 0.3878
vt 0.7069 0.3886
vt 0.6464 0.3887
vt 0.6463 0.4473
vt 0.7066 0.4476
vt 0.6463 0.4473
vt 0.6464 0.3887
vt 0.7534 0.4478
vt 0.2399 0.5195
vt 0.2399 0.5653
vt 0.308 0.5639
vt 0.3096 0.5179
vt 0.2399 0.6105
vt 0.3195 0.6135
vt 0.2398 0.7185
vt 0.3202 0.7105
vt 0.2357 0.8033
vt 0.3026 0.8073
vt 0.3109 0.8521
vt 0.2357 0.8559
vt 0.3087 0.9312
vt 0.2357 0.9184
vt 0.2357 0.876
vt 0.2356 0.9457
vt 0.3272 0.5602
vt 0.3321 0.5073
vt 0.3446 0.6099
vt 0.3474 0.638
vt 0.3271 0.7574
vt 0.3221 0.8095
vt 0.3005 0.756
vt 0.3394 0.8585
vt 0.3422 0.8862
vt 0.3407 0.9188
vt 0.3197 0.9624
vt 0.2759 0.9837
vt 0.2356 0.9698
vt 0.3444 0.7374
vt 0.283 0.752
vt 0.3392 0.9843
vt 0.2784 0.9951
vt 0.3605 0.6967
vt 0.3707 0.9385
vt 0.3945 0.7193
vt 0.4153 0.6587
vt 0.4094 0.9067
vt 0.3889 0.9665
vt 0.4529 0.5313
vt 0.4176 0.548
vt 0.3871 0.5254
vt 0.4262 0.7614
vt 0.4467 0.781
vt 0.3979 0.7586
vt 0.3815 0.7752
vt 0.461 0.5119
vt 0.426 0.5107
vt 0.3904 0.5076
vt 0.4548 0.7619
vt 0.3848 0.7576
vt 0.2399 0.7481
vt 0.1719 0.5639
vt 0.1703 0.5179
vt 0.1623 0.6135
vt 0.1595 0.7105
vt 0.1605 0.8521
vt 0.1689 0.8073
vt 0.1627 0.9312
vt 0.1527 0.5602
vt 0.1477 0.5073
vt 0.1373 0.6099
vt 0.1321 0.638
vt 0.1444 0.7574
vt 0.1493 0.8095
vt 0.1709 0.756
vt 0.134 0.8585
vt 0.1302 0.9188
vt 0.1288 0.8862
vt 0.1954 0.9837
vt 0.1516 0.9624
vt 0.1353 0.7374
vt 0.1967 0.752
vt 0.1929 0.9951
vt 0.1321 0.9843
vt 0.1192 0.6967
vt 0.1006 0.9385
vt 0.0644 0.6587
vt 0.0851 0.7193
vt 0.0824 0.9665
vt 0.0619 0.9067
vt 0.0268 0.5313
vt 0.0621 0.548
vt 0.0926 0.5254
vt 0.0455 0.7605
vt 0.0246 0.781
vt 0.0737 0.7577
vt 0.0898 0.7752
vt 0.0187 0.5119
vt 0.0537 0.5107
vt 0.0893 0.5076
vt 0.0165 0.7619
vt 0.0865 0.7576
vt 0.2357 0.7543
vt 0.5585 0.5091
vt 0.5544 0.509
vt 0.5227 0.5041
vt 0.5227 0.5041
vt 0.568 0.7484
vt 0.5497 0.7495
vt 0.5503 0.7031
vt 0.5657 0.6939
vt 0.6031 0.7473
vt 0.6254 0.7501
vt 0.6232 0.698
vt 0.5976 0.6944
vt 0.5301 0.749
vt 0.526 0.7049
vt 0.5181 0.7465
vt 0.5127 0.7007
vt 0.5793 0.7482
vt 0.5741 0.705
vt 0.5486 0.6216
vt 0.5611 0.6098
vt 0.6204 0.6113
vt 0.6012 0.6045
vt 0.5303 0.6213
vt 0.5204 0.6104
vt 0.5815 0.6119
vt 0.5559 0.6033
vt 0.5274 0.604
vt 0.5578 0.5757
vt 0.5622 0.5528
vt 0.5208 0.5745
vt 0.6214 0.5526
vt 0.598 0.5515
vt 0.5655 0.558
vt 0.571 0.5539
vt 0.5714 0.5493
vt 0.5659 0.5533
vt 0.5587 0.5477
vt 0.5239 0.5474
vt 0.5239 0.5533
vt 0.6179 0.5076
vt 0.5837 0.5024
vt 0.5848 0.5531
vt 0.5844 0.5782
vt 0.573 0.5856
vt 0.5848 0.5693
vt 0.5734 0.5767
vt 0.5239 0.569
vt 0.515 0.5762
vt 0.5041 0.5535
vt 0.5099 0.5496
vt 0.5116 0.5849
vt 0.5037 0.558
vt 0.5585 0.5091
vt 0.5227 0.5041
vt 0.5544 0.509
vt 0.5227 0.5041
vt 0.568 0.7484
vt 0.5503 0.7031
vt 0.5497 0.7495
vt 0.5657 0.6939
vt 0.6031 0.7473
vt 0.6232 0.698
vt 0.6254 0.7501
vt 0.5976 0.6944
vt 0.526 0.7049
vt 0.5301 0.7482
vt 0.5127 0.7007
vt 0.5181 0.7457
vt 0.5793 0.7474
vt 0.5741 0.705
vt 0.5486 0.6216
vt 0.5611 0.6098
vt 0.6204 0.6113
vt 0.6012 0.6045
vt 0.5303 0.6213
vt 0.5204 0.6104
vt 0.5815 0.6119
vt 0.5559 0.6033
vt 0.5274 0.604
vt 0.5578 0.5757
vt 0.5622 0.5528
vt 0.5208 0.5745
vt 0.6214 0.5526
vt 0.598 0.5515
vt 0.5655 0.558
vt 0.5714 0.5493
vt 0.571 0.5539
vt 0.5659 0.5533
vt 0.6181 0.5474
vt 0.6172 0.5762
vt 0.5239 0.5474
vt 0.5587 0.5477
vt 0.5239 0.5533
vt 0.6179 0.5076
vt 0.5837 0.5024
vt 0.5848 0.5531
vt 0.5844 0.5782
vt 0.573 0.5856
vt 0.5848 0.5693
vt 0.5734 0.5767
vt 0.5239 0.569
vt 0.5041 0.5535
vt 0.515 0.5762
vt 0.5099 0.5496
vt 0.5037 0.558
vt 0.5116 0.5849
vt 0.417 0.4055
vt 0.4495 0.4336
vt 0.4623 0.3667
vt 0.3892 0.3509
vt 0.4796 0.4276
vt 0.487 0.3623
vt 0.242 0.4439
vt 0.2052 0.4333
vt 0.2074 0.3208
vt 0.2502 0.346
vt 0.3854 0.3612
vt 0.3983 0.202
vt 0.3862 0.1737
vt 0.4596 0.2052
vt 0.4921 0.1752
vt 0.1383 0.3448
vt 0.1391 0.176
vt 0.206 0.1526
vt 0.2558 0.1775
vt 0.4529 0.0167
vt 0.4022 0.0172
vt 0.4876 0.0327
vt 0.3867 0.0342
vt 0.2019 0.0427
vt 0.2509 0.0271
vt 0.1397 0.0286
vt 0.4781 0.0116
vt 0.3915 0.0111
vt 0.2007 0.003
vt 0.2404 0.0048
vt 0.145 0.0043
vt 0.3407 0.4055
vt 0.2939 0.3667
vt 0.3082 0.4336
vt 0.3686 0.3509
vt 0.2707 0.3623
vt 0.2781 0.4276
vt 0.0201 0.4439
vt 0.0547 0.3208
vt 0.0569 0.4333
vt 0.0119 0.346
vt 0.3723 0.3612
vt 0.3594 0.202
vt 0.3716 0.1737
vt 0.2951 0.2052
vt 0.2643 0.1752
vt 0.123 0.176
vt 0.1239 0.3448
vt 0.0569 0.1526
vt 0.0049 0.1775
vt 0.3031 0.0167
vt 0.3555 0.0172
vt 0.2702 0.0327
vt 0.3712 0.0342
vt 0.0603 0.0427
vt 0.0113 0.0271
vt 0.1226 0.0286
vt 0.2796 0.0116
vt 0.3662 0.0111
vt 0.0614 0.003
vt 0.0217 0.0048
vt 0.1171 0.0043
vt 0.3789 0.5038
vt 0.4461 0.5017
vt 0.3789 0.4479
vt 0.2291 0.508
vt 0.2006 0.5062
vt 0.4678 0.4883
vt 0.3117 0.5017
vt 0.0331 0.508
vt 0.0615 0.5062
vt 0.2899 0.4883
vt 0.1311 0.5038
vt 0.1108 0.3988
vt 0.1514 0.3988
vt 0.5493 0.0037
vt 0.5838 0.0037
vt 0.5758 0.1598
vt 0.5547 0.1598
vt 0.6248 0.0036
vt 0.6234 0.1586
vt 0.5633 0.3065
vt 0.6254 0.3065
vt 0.1311 0.3572
vt 0.2076 0.3572
vt 0.0546 0.3572
vt 0.5062 0.3069
vt 0.5062 0.1591
vt 0.5062 0.0025
vt 0.9381 0.2674
vt 0.9381 0.2678
vt 0.9024 0.2672
vt 0.9023 0.2669
vt 0.9661 0.6654
vt 0.9879 0.6649
vt 0.988 0.5465
vt 0.9661 0.5457
vt 0.9257 0.6616
vt 0.8914 0.6566
vt 0.9 0.5547
vt 0.9395 0.5469
vt 0.8914 0.6561
vt 0.9257 0.6621
vt 0.9395 0.5461
vt 0.8574 0.6549
vt 0.9879 0.4043
vt 0.9662 0.4039
vt 0.903 0.3902
vt 0.9239 0.4091
vt 0.9239 0.4088
vt 0.903 0.3899
vt 0.8741 0.3623
vt 0.9879 0.3117
vt 0.9662 0.3113
vt 0.9032 0.3479
vt 0.9353 0.3194
vt 0.9353 0.3191
vt 0.9032 0.3476
vt 0.988 0.2584
vt 0.9661 0.258
vt 0.8191 0.2952
vt 0.7973 0.3225
vt 0.7862 0.2671
vt 0.8098 0.2672
vt 0.8191 0.2948
vt 0.8098 0.2669
vt 0.8456 0.3367
vt 0.858 0.3021
vt 0.858 0.3017
vt 0.9381 0.2674
vt 0.9024 0.2672
vt 0.9381 0.2678
vt 0.9024 0.2669
vt 0.9661 0.6654
vt 0.988 0.5465
vt 0.9879 0.6649
vt 0.9661 0.5457
vt 0.9257 0.6616
vt 0.9 0.5547
vt 0.8914 0.6566
vt 0.9395 0.5469
vt 0.8914 0.6561
vt 0.9395 0.5461
vt 0.9257 0.6621
vt 0.8574 0.6549
vt 0.9879 0.4043
vt 0.9662 0.4039
vt 0.903 0.3902
vt 0.9239 0.4091
vt 0.9239 0.4088
vt 0.903 0.3899
vt 0.8741 0.3623
vt 0.9879 0.3117
vt 0.9662 0.3113
vt 0.9032 0.3479
vt 0.9353 0.3194
vt 0.9353 0.3191
vt 0.9032 0.3476
vt 0.988 0.2584
vt 0.9661 0.258
vt 0.8191 0.2952
vt 0.7862 0.2671
vt 0.7973 0.3225
vt 0.8098 0.2672
vt 0.8098 0.2669
vt 0.8191 0.2948
vt 0.8456 0.3367
vt 0.858 0.3021
vt 0.858 0.3017
vt 0.7343 0.643
vt 0.7274 0.7054
vt 0.7784 0.7065
vt 0.8285 0.6562
vt 0.7784 0.7069
vt 0.8285 0.6566
vt 0.8285 0.6562
vt 0.8285 0.6566
vt 0.7784 0.7069
vt 0.7784 0.7065
vt 0.7274 0.7054
vt 0.7343 0.643
vt 0.6768 0.7057
vt 0.6518 0.6208
vt 0.6518 0.6208
vt 0.6768 0.7057
vt 0.7274 0.705
vt 0.7343 0.6426
vt 0.7343 0.6426
vt 0.7274 0.705
vt 0.8383 0.0047
vt 0.8099 0.0047
vt 0.8099 0.2406
vt 0.8383 0.2406
vt 0.8098 0.0047
vt 0.8098 0.2406
vt 0.7814 0.2406
vt 0.7814 0.0047
vt 0.8383 0.0047
vt 0.8383 0.2406
vt 0.8098 0.2406
vt 0.8098 0.0047
vt 0.8383 0.2406
vt 0.8099 0.2406
vt 0.7814 0.2406
vt 0.8098 0.2406
vt 0.8099 0.2406
vt 0.8099 0.0047
vt 0.7814 0.0047
vt 0.7814 0.2406
vt 0.8099 0.0047
vt 0.8383 0.0047
vt 0.8098 0.0047
vt 0.7814 0.0047
vt 0.8498 0.1522
vt 0.8497 0.216
vt 0.989 0.216
vt 0.989 0.1522
vt 0.8498 0.1318
vt 0.989 0.1318
vt 0.989 0.1521
vt 0.8497 0.1521
vt 0.8498 0.1522
vt 0.989 0.1522
vt 0.989 0.1318
vt 0.8498 0.1318
vt 0.8881 0.2123
vt 0.8881 0.1597
vt 0.9408 0.1597
vt 0.9408 0.2123
vt 0.989 0.216
vt 0.8497 0.216
vt 0.8497 0.1521
vt 0.989 0.1521
vt 0.8881 0.1597
vt 0.8881 0.2123
vt 0.9408 0.2123
vt 0.9408 0.1597
vt 0.7327 0.0583
vt 0.6901 0.0112
vt 0.6902 0.2885
vt 0.7327 0.2885
vt 0.6901 0.0112
vt 0.6901 0.2885
vt 0.6476 0.2885
vt 0.6476 0.0583
vt 0.7327 0.0583
vt 0.7327 0.2885
vt 0.6901 0.2885
vt 0.6901 0.0112
vt 0.7327 0.2885
vt 0.6902 0.2885
vt 0.6476 0.2885
vt 0.6901 0.2885
vt 0.6902 0.2885
vt 0.6901 0.0112
vt 0.6476 0.0583
vt 0.6476 0.2885
vt 0.7134 0.2884
vt 0.6902 0.2884
vt 0.6902 0.3302
vt 0.7134 0.3302
vt 0.6901 0.2884
vt 0.6901 0.3302
vt 0.6669 0.3302
vt 0.6669 0.2884
vt 0.7134 0.2884
vt 0.7134 0.3302
vt 0.6901 0.3302
vt 0.6901 0.2884
vt 0.7134 0.3302
vt 0.6902 0.3302
vt 0.6669 0.3302
vt 0.6901 0.3302
vt 0.6902 0.3302
vt 0.6902 0.2884
vt 0.6669 0.2884
vt 0.6669 0.3302
f 155/155/155 157/157/157 156/156/156
f 157/157/157 155/155/155 158/158/158
f 159/159/159 161/161/161 160/160/160
f 161/161/161 159/159/159 162/162/162
f 160/160/160 158/158/158 155/155/155
f 158/158/158 160/160/160 161/161/161
f 163/163/163 165/165/165 164/164/164
f 164/164/164 166/166/166 163/163/163
f 159/159/159 168/168/168 167/167/167
f 167/167/167 162/162/162 159/159/159
f 168/168/168 163/163/163 166/166/166
f 166/166/166 167/167/167 168/168/168
f 166/166/166 164/164/164 169/169/169
f 170/170/170 157/157/157 158/158/158
f 171/171/171 173/173/173 172/172/172
f 173/173/173 171/171/171 174/174/174
f 174/174/174 175/175/175 173/173/173
f 175/175/175 174/174/174 176/176/176
f 177/177/177 179/179/179 178/178/178
f 179/179/179 177/177/177 180/180/180
f 167/167/167 181/181/181 162/162/162
f 182/182/182 162/162/162 181/181/181
f 162/162/162 182/182/182 161/161/161
f 183/183/183 181/181/181 184/184/184
f 181/181/181 185/185/185 182/182/182
f 185/185/185 181/181/181 183/183/183
f 186/186/186 182/182/182 185/185/185
f 184/184/184 187/187/187 183/183/183
f 187/187/187 184/184/184 188/188/188
f 189/189/189 190/190/190 187/187/187
f 185/185/185 191/191/191 186/186/186
f 191/191/191 185/185/185 189/189/189
f 188/188/188 192/192/192 187/187/187
f 192/192/192 188/188/188 193/193/193
f 187/187/187 194/194/194 189/189/189
f 194/194/194 187/187/187 192/192/192
f 189/189/189 195/195/195 191/191/191
f 195/195/195 189/189/189 194/194/194
f 193/193/193 196/196/196 192/192/192
f 196/196/196 193/193/193 197/197/197
f 192/192/192 198/198/198 194/194/194
f 198/198/198 192/192/192 196/196/196
f 194/194/194 199/199/199 195/195/195
f 199/199/199 194/194/194 198/198/198
f 200/200/200 180/180/180 201/201/201
f 179/179/179 180/180/180 200/200/200
f 158/158/158 203/203/203 202/202/202
f 203/203/203 158/158/158 161/161/161
f 200/200/200 204/204/204 179/179/179
f 204/204/204 200/200/200 205/205/205
f 161/161/161 186/186/186 203/203/203
f 186/186/186 161/161/161 182/182/182
f 203/203/203 191/191/191 206/206/206
f 191/191/191 203/203/203 186/186/186
f 206/206/206 195/195/195 205/205/205
f 195/195/195 206/206/206 191/191/191
f 179/179/179 207/207/207 178/178/178
f 207/207/207 179/179/179 204/204/204
f 175/175/175 208/208/208 173/173/173
f 208/208/208 175/175/175 207/207/207
f 173/173/173 209/209/209 172/172/172
f 209/209/209 173/173/173 208/208/208
f 207/207/207 196/196/196 208/208/208
f 196/196/196 207/207/207 198/198/198
f 208/208/208 197/197/197 209/209/209
f 197/197/197 208/208/208 196/196/196
f 172/172/172 210/210/210 171/171/171
f 211/211/211 171/171/171 210/210/210
f 172/172/172 212/212/212 210/210/210
f 212/212/212 172/172/172 209/209/209
f 213/213/213 167/167/167 166/166/166
f 167/167/167 213/213/213 214/214/214
f 212/212/212 188/188/188 215/215/215
f 188/188/188 212/212/212 193/193/193
f 215/215/215 184/184/184 214/214/214
f 184/184/184 215/215/215 188/188/188
f 183/183/183 190/190/190 185/185/185
f 187/187/187 190/190/190 183/183/183
f 189/189/189 185/185/185 190/190/190
f 164/164/164 216/216/216 169/169/169
f 157/157/157 170/170/170 217/217/217
f 205/205/205 195/195/195 199/199/199
f 204/204/204 205/205/205 199/199/199
f 201/201/201 202/202/202 206/206/206
f 206/206/206 202/202/202 203/203/203
f 201/201/201 206/206/206 205/205/205
f 200/200/200 201/201/201 205/205/205
f 170/170/170 158/158/158 202/202/202
f 212/212/212 215/215/215 211/211/211
f 212/212/212 211/211/211 210/210/210
f 215/215/215 213/213/213 211/211/211
f 213/213/213 215/215/215 214/214/214
f 213/213/213 166/166/166 169/169/169
f 197/197/197 193/193/193 212/212/212
f 197/197/197 212/212/212 209/209/209
f 207/207/207 199/199/199 198/198/198
f 199/199/199 207/207/207 204/204/204
f 184/184/184 167/167/167 214/214/214
f 184/184/184 181/181/181 167/167/167
f 216/216/216 164/164/164 218/218/218
f 219/219/219 221/221/221 220/220/220
f 221/221/221 219/219/219 222/222/222
f 223/223/223 225/225/225 224/224/224
f 226/226/226 228/228/228 227/227/227
f 229/229/229 231/231/231 230/230/230
f 231/231/231 229/229/229 232/232/232
f 225/225/225 233/233/233 224/224/224
f 225/225/225 234/234/234 233/233/233
f 235/235/235 220/220/220 221/221/221
f 235/235/235 229/229/229 220/220/220
f 222/222/222 225/225/225 223/223/223
f 222/222/222 219/219/219 225/225/225
f 236/236/236 238/238/238 237/237/237
f 238/238/238 236/236/236 239/239/239
f 237/237/237 241/241/241 240/240/240
f 241/241/241 237/237/237 238/238/238
f 240/240/240 243/243/243 242/242/242
f 243/243/243 240/240/240 241/241/241
f 244/244/244 246/246/246 245/245/245
f 246/246/246 244/244/244 247/247/247
f 248/248/248 250/250/250 249/249/249
f 248/248/248 249/249/249 251/251/251
f 239/239/239 252/252/252 238/238/238
f 252/252/252 239/239/239 253/253/253
f 238/238/238 254/254/254 241/241/241
f 254/254/254 238/238/238 252/252/252
f 255/255/255 241/241/241 254/254/254
f 256/256/256 245/245/245 257/257/257
f 245/245/245 256/256/256 258/258/258
f 257/257/257 246/246/246 259/259/259
f 246/246/246 257/257/257 245/245/245
f 259/259/259 261/261/261 260/260/260
f 261/261/261 259/259/259 246/246/246
f 251/251/251 263/263/263 262/262/262
f 263/263/263 251/251/251 264/264/264
f 265/265/265 266/266/266 243/243/243
f 262/262/262 268/268/268 267/267/267
f 268/268/268 262/262/262 263/263/263
f 241/241/241 269/269/269 243/243/243
f 261/261/261 262/262/262 270/270/270
f 255/255/255 269/269/269 241/241/241
f 269/269/269 272/272/272 271/271/271
f 270/270/270 274/274/274 273/273/273
f 246/246/246 248/248/248 261/261/261
f 261/261/261 248/248/248 262/262/262
f 251/251/251 262/262/262 248/248/248
f 269/269/269 275/275/275 272/272/272
f 275/275/275 269/269/269 276/276/276
f 255/255/255 276/276/276 269/269/269
f 276/276/276 255/255/255 277/277/277
f 273/273/273 278/278/278 270/270/270
f 278/278/278 273/273/273 279/279/279
f 270/270/270 280/280/280 261/261/261
f 280/280/280 270/270/270 278/278/278
f 261/261/261 281/281/281 260/260/260
f 281/281/281 261/261/261 280/280/280
f 276/276/276 282/282/282 275/275/275
f 282/282/282 276/276/276 283/283/283
f 277/277/277 283/283/283 276/276/276
f 283/283/283 277/277/277 284/284/284
f 278/278/278 279/279/279 285/285/285
f 280/280/280 286/286/286 281/281/281
f 287/287/287 242/242/242 266/266/266
f 242/242/242 243/243/243 266/266/266
f 236/236/236 237/237/237 288/288/288
f 288/288/288 289/289/289 236/236/236
f 237/237/237 240/240/240 290/290/290
f 290/290/290 288/288/288 237/237/237
f 240/240/240 242/242/242 291/291/291
f 291/291/291 290/290/290 240/240/240
f 244/244/244 293/293/293 292/292/292
f 292/292/292 247/247/247 244/244/244
f 294/294/294 249/249/249 250/250/250
f 294/294/294 251/251/251 249/249/249
f 289/289/289 288/288/288 295/295/295
f 295/295/295 296/296/296 289/289/289
f 288/288/288 290/290/290 297/297/297
f 297/297/297 295/295/295 288/288/288
f 298/298/298 297/297/297 290/290/290
f 299/299/299 300/300/300 293/293/293
f 293/293/293 301/301/301 299/299/299
f 300/300/300 302/302/302 292/292/292
f 292/292/292 293/293/293 300/300/300
f 302/302/302 304/304/304 303/303/303
f 303/303/303 292/292/292 302/302/302
f 251/251/251 306/306/306 305/305/305
f 305/305/305 264/264/264 251/251/251
f 307/307/307 291/291/291 308/308/308
f 306/306/306 310/310/310 309/309/309
f 309/309/309 305/305/305 306/306/306
f 290/290/290 291/291/291 311/311/311
f 303/303/303 312/312/312 306/306/306
f 298/298/298 290/290/290 311/311/311
f 311/311/311 314/314/314 313/313/313
f 312/312/312 316/316/316 315/315/315
f 292/292/292 303/303/303 294/294/294
f 303/303/303 306/306/306 294/294/294
f 251/251/251 294/294/294 306/306/306
f 311/311/311 313/313/313 317/317/317
f 317/317/317 318/318/318 311/311/311
f 298/298/298 311/311/311 318/318/318
f 318/318/318 319/319/319 298/298/298
f 316/316/316 312/312/312 320/320/320
f 320/320/320 321/321/321 316/316/316
f 312/312/312 303/303/303 322/322/322
f 322/322/322 320/320/320 312/312/312
f 303/303/303 304/304/304 323/323/323
f 323/323/323 322/322/322 303/303/303
f 318/318/318 317/317/317 324/324/324
f 324/324/324 325/325/325 318/318/318
f 319/319/319 318/318/318 325/325/325
f 325/325/325 326/326/326 319/319/319
f 320/320/320 327/327/327 321/321/321
f 322/322/322 323/323/323 328/328/328
f 287/287/287 308/308/308 242/242/242
f 242/242/242 308/308/308 291/291/291
f 258/258/258 329/329/329 244/244/244
f 244/244/244 329/329/329 301/301/301
f 245/245/245 258/258/258 244/244/244
f 244/244/244 301/301/301 293/293/293
f 307/307/307 314/314/314 311/311/311
f 311/311/311 291/291/291 307/307/307
f 265/265/265 243/243/243 269/269/269
f 265/265/265 269/269/269 271/271/271
f 248/248/248 246/246/246 250/250/250
f 246/246/246 247/247/247 250/250/250
f 294/294/294 250/250/250 292/292/292
f 250/250/250 247/247/247 292/292/292
f 274/274/274 262/262/262 267/267/267
f 274/274/274 270/270/270 262/262/262
f 315/315/315 306/306/306 312/312/312
f 315/315/315 310/310/310 306/306/306
f 330/330/330 332/332/332 331/331/331
f 332/332/332 330/330/330 333/333/333
f 334/334/334 336/336/336 335/335/335
f 336/336/336 334/334/334 337/337/337
f 338/338/338 340/340/340 339/339/339
f 340/340/340 338/338/338 341/341/341
f 335/335/335 343/343/343 342/342/342
f 343/343/343 335/335/335 336/336/336
f 342/342/342 345/345/345 344/344/344
f 345/345/345 342/342/342 343/343/343
f 346/346/346 341/341/341 338/338/338
f 341/341/341 346/346/346 347/347/347
f 348/348/348 337/337/337 349/349/349
f 337/337/337 348/348/348 336/336/336
f 341/341/341 350/350/350 340/340/340
f 350/350/350 341/341/341 351/351/351
f 336/336/336 352/352/352 343/343/343
f 352/352/352 336/336/336 348/348/348
f 343/343/343 353/353/353 345/345/345
f 353/353/353 343/343/343 352/352/352
f 347/347/347 351/351/351 341/341/341
f 351/351/351 347/347/347 354/354/354
f 349/349/349 355/355/355 348/348/348
f 356/356/356 348/348/348 355/355/355
f 348/348/348 356/356/356 352/352/352
f 353/353/353 352/352/352 356/356/356
f 349/349/349 357/357/357 355/355/355
f 357/357/357 349/349/349 358/358/358
f 355/355/355 359/359/359 356/356/356
f 359/359/359 355/355/355 357/357/357
f 351/351/351 360/360/360 350/350/350
f 360/360/360 351/351/351 361/361/361
f 362/362/362 364/364/364 363/363/363
f 364/364/364 362/362/362 365/365/365
f 358/358/358 366/366/366 357/357/357
f 357/357/357 367/367/367 359/359/359
f 367/367/367 357/357/357 366/366/366
f 368/368/368 359/359/359 367/367/367
f 358/358/358 331/331/331 366/366/366
f 331/331/331 358/358/358 330/330/330
f 366/366/366 332/332/332 367/367/367
f 332/332/332 366/366/366 331/331/331
f 361/361/361 369/369/369 360/360/360
f 369/369/369 361/361/361 370/370/370
f 367/367/367 333/333/333 368/368/368
f 333/333/333 367/367/367 332/332/332
f 371/371/371 370/370/370 361/361/361
f 354/354/354 372/372/372 351/351/351
f 372/372/372 354/354/354 373/373/373
f 351/351/351 374/374/374 361/361/361
f 374/374/374 351/351/351 372/372/372
f 361/361/361 375/375/375 371/371/371
f 375/375/375 361/361/361 374/374/374
f 373/373/373 363/363/363 372/372/372
f 363/363/363 373/373/373 362/362/362
f 372/372/372 364/364/364 374/374/374
f 364/364/364 372/372/372 363/363/363
f 376/376/376 378/378/378 377/377/377
f 378/378/378 376/376/376 379/379/379
f 377/377/377 381/381/381 380/380/380
f 381/381/381 377/377/377 378/378/378
f 382/382/382 384/384/384 383/383/383
f 383/383/383 385/385/385 382/382/382
f 386/386/386 388/388/388 387/387/387
f 387/387/387 389/389/389 386/386/386
f 390/390/390 392/392/392 391/391/391
f 391/391/391 393/393/393 390/390/390
f 388/388/388 395/395/395 394/394/394
f 394/394/394 387/387/387 388/388/388
f 395/395/395 397/397/397 396/396/396
f 396/396/396 394/394/394 395/395/395
f 398/398/398 390/390/390 393/393/393
f 393/393/393 399/399/399 398/398/398
f 400/400/400 401/401/401 389/389/389
f 389/389/389 387/387/387 400/400/400
f 393/393/393 391/391/391 402/402/402
f 402/402/402 403/403/403 393/393/393
f 387/387/387 394/394/394 404/404/404
f 404/404/404 400/400/400 387/387/387
f 394/394/394 396/396/396 405/405/405
f 405/405/405 404/404/404 394/394/394
f 399/399/399 393/393/393 403/403/403
f 403/403/403 406/406/406 399/399/399
f 401/401/401 400/400/400 407/407/407
f 408/408/408 407/407/407 400/400/400
f 400/400/400 404/404/404 408/408/408
f 405/405/405 408/408/408 404/404/404
f 401/401/401 407/407/407 409/409/409
f 409/409/409 410/410/410 401/401/401
f 407/407/407 408/408/408 411/411/411
f 411/411/411 409/409/409 407/407/407
f 403/403/403 402/402/402 412/412/412
f 412/412/412 413/413/413 403/403/403
f 414/414/414 416/416/416 415/415/415
f 415/415/415 417/417/417 414/414/414
f 412/412/412 419/419/419 418/418/418
f 409/409/409 411/411/411 420/420/420
f 420/420/420 421/421/421 409/409/409
f 422/422/422 420/420/420 411/411/411
f 410/410/410 421/421/421 384/384/384
f 384/384/384 382/382/382 410/410/410
f 421/421/421 420/420/420 383/383/383
f 383/383/383 384/384/384 421/421/421
f 413/413/413 412/412/412 423/423/423
f 423/423/423 424/424/424 413/413/413
f 420/420/420 422/422/422 385/385/385
f 385/385/385 383/383/383 420/420/420
f 425/425/425 413/413/413 424/424/424
f 406/406/406 403/403/403 426/426/426
f 426/426/426 427/427/427 406/406/406
f 403/403/403 413/413/413 428/428/428
f 428/428/428 426/426/426 403/403/403
f 413/413/413 425/425/425 429/429/429
f 429/429/429 428/428/428 413/413/413
f 427/427/427 426/426/426 416/416/416
f 416/416/416 414/414/414 427/427/427
f 426/426/426 428/428/428 415/415/415
f 415/415/415 416/416/416 426/426/426
f 430/430/430 432/432/432 431/431/431
f 431/431/431 433/433/433 430/430/430
f 432/432/432 435/435/435 434/434/434
f 434/434/434 431/431/431 432/432/432
f 359/359/359 368/368/368 377/377/377
f 359/359/359 377/377/377 356/356/356
f 432/432/432 422/422/422 411/411/411
f 432/432/432 411/411/411 408/408/408
f 435/435/435 432/432/432 405/405/405
f 405/405/405 432/432/432 408/408/408
f 356/356/356 377/377/377 353/353/353
f 377/377/377 380/380/380 353/353/353
f 436/436/436 438/438/438 437/437/437
f 438/438/438 436/436/436 439/439/439
f 437/437/437 441/441/441 440/440/440
f 441/441/441 437/437/437 438/438/438
f 442/442/442 444/444/444 443/443/443
f 444/444/444 442/442/442 445/445/445
f 446/446/446 447/447/447 439/439/439
f 447/447/447 446/446/446 448/448/448
f 439/439/439 449/449/449 438/438/438
f 449/449/449 439/439/439 447/447/447
f 438/438/438 450/450/450 441/441/441
f 450/450/450 438/438/438 449/449/449
f 444/444/444 452/452/452 451/451/451
f 452/452/452 444/444/444 453/453/453
f 445/445/445 453/453/453 444/444/444
f 453/453/453 445/445/445 454/454/454
f 447/447/447 455/455/455 449/449/449
f 455/455/455 447/447/447 456/456/456
f 449/449/449 457/457/457 450/450/450
f 457/457/457 449/449/449 455/455/455
f 448/448/448 456/456/456 447/447/447
f 456/456/456 448/448/448 458/458/458
f 454/454/454 459/459/459 453/453/453
f 459/459/459 454/454/454 460/460/460
f 453/453/453 461/461/461 452/452/452
f 461/461/461 453/453/453 459/459/459
f 455/455/455 462/462/462 457/457/457
f 456/456/456 458/458/458 463/463/463
f 460/460/460 464/464/464 459/459/459
f 464/464/464 460/460/460 465/465/465
f 459/459/459 466/466/466 461/461/461
f 466/466/466 459/459/459 464/464/464
f 467/467/467 469/469/469 468/468/468
f 468/468/468 470/470/470 467/467/467
f 469/469/469 472/472/472 471/471/471
f 471/471/471 468/468/468 469/469/469
f 473/473/473 475/475/475 474/474/474
f 474/474/474 476/476/476 473/473/473
f 477/477/477 470/470/470 478/478/478
f 478/478/478 479/479/479 477/477/477
f 470/470/470 468/468/468 480/480/480
f 480/480/480 478/478/478 470/470/470
f 468/468/468 471/471/471 481/481/481
f 481/481/481 480/480/480 468/468/468
f 474/474/474 483/483/483 482/482/482
f 482/482/482 484/484/484 474/474/474
f 476/476/476 474/474/474 484/484/484
f 484/484/484 485/485/485 476/476/476
f 478/478/478 480/480/480 486/486/486
f 486/486/486 487/487/487 478/478/478
f 480/480/480 481/481/481 488/488/488
f 488/488/488 486/486/486 480/480/480
f 479/479/479 478/478/478 487/487/487
f 487/487/487 489/489/489 479/479/479
f 485/485/485 484/484/484 490/490/490
f 490/490/490 491/491/491 485/485/485
f 484/484/484 482/482/482 492/492/492
f 492/492/492 490/490/490 484/484/484
f 486/486/486 488/488/488 493/493/493
f 487/487/487 494/494/494 489/489/489
f 491/491/491 490/490/490 495/495/495
f 495/495/495 496/496/496 491/491/491
f 490/490/490 492/492/492 497/497/497
f 497/497/497 495/495/495 490/490/490
f 443/443/443 444/444/444 451/451/451
f 483/483/483 474/474/474 475/475/475
f 498/498/498 437/437/437 499/499/499
f 437/437/437 498/498/498 500/500/500
f 501/501/501 443/443/443 502/502/502
f 443/443/443 501/501/501 442/442/442
f 499/499/499 437/437/437 503/503/503
f 437/437/437 440/440/440 503/503/503
f 500/500/500 436/436/436 437/437/437
f 498/498/498 504/504/504 469/469/469
f 469/469/469 500/500/500 498/498/498
f 505/505/505 506/506/506 475/475/475
f 475/475/475 473/473/473 505/505/505
f 504/504/504 507/507/507 469/469/469
f 469/469/469 507/507/507 472/472/472
f 500/500/500 469/469/469 467/467/467
f 500/500/500 467/467/467 436/436/436
f 470/470/470 446/446/446 439/439/439
f 470/470/470 477/477/477 446/446/446
f 467/467/467 439/439/439 436/436/436
f 467/467/467 470/470/470 439/439/439
f 508/508/508 510/510/510 509/509/509
f 510/510/510 483/483/483 509/509/509
f 510/510/510 451/451/451 483/483/483
f 443/443/443 451/451/451 510/510/510
f 509/509/509 483/483/483 475/475/475
f 443/443/443 508/508/508 502/502/502
f 443/443/443 510/510/510 508/508/508
f 475/475/475 508/508/508 509/509/509
f 475/475/475 506/506/506 508/508/508
f 511/511/511 513/513/513 512/512/512
f 513/513/513 511/511/511 514/514/514
f 512/512/512 516/516/516 515/515/515
f 516/516/516 512/512/512 513/513/513
f 514/514/514 517/517/517 513/513/513
f 513/513/513 518/518/518 516/516/516
f 518/518/518 513/513/513 517/517/517
f 443/443/443 520/520/520 519/519/519
f 475/475/475 519/519/519 521/521/521
f 519/519/519 475/475/475 509/509/509
f 510/510/510 443/443/443 519/519/519
f 510/510/510 519/519/519 509/509/509
f 514/514/514 522/522/522 517/517/517
f 514/514/514 523/523/523 522/522/522
f 511/511/511 523/523/523 514/514/514
f 511/511/511 524/524/524 523/523/523
f 525/525/525 527/527/527 526/526/526
f 527/527/527 525/525/525 528/528/528
f 529/529/529 531/531/531 530/530/530
f 531/531/531 529/529/529 532/532/532
f 533/533/533 535/535/535 534/534/534
f 535/535/535 533/533/533 536/536/536
f 537/537/537 539/539/539 538/538/538
f 540/540/540 534/534/534 535/535/535
f 532/532/532 541/541/541 531/531/531
f 541/541/541 532/532/532 542/542/542
f 536/536/536 543/543/543 535/535/535
f 543/543/543 536/536/536 544/544/544
f 537/537/537 545/545/545 539/539/539
f 545/545/545 537/537/537 546/546/546
f 535/535/535 547/547/547 540/540/540
f 547/547/547 535/535/535 543/543/543
f 540/540/540 546/546/546 537/537/537
f 546/546/546 540/540/540 547/547/547
f 542/542/542 548/548/548 541/541/541
f 548/548/548 542/542/542 549/549/549
f 544/544/544 550/550/550 543/543/543
f 550/550/550 544/544/544 551/551/551
f 546/546/546 552/552/552 545/545/545
f 552/552/552 546/546/546 553/553/553
f 547/547/547 543/543/543 550/550/550
f 547/547/547 553/553/553 546/546/546
f 549/549/549 554/554/554 548/548/548
f 554/554/554 549/549/549 555/555/555
f 551/551/551 527/527/527 550/550/550
f 527/527/527 551/551/551 526/526/526
f 553/553/553 525/525/525 552/552/552
f 525/525/525 553/553/553 528/528/528
f 556/556/556 558/558/558 557/557/557
f 558/558/558 556/556/556 559/559/559
f 557/557/557 561/561/561 560/560/560
f 561/561/561 557/557/557 558/558/558
f 550/550/550 562/562/562 547/547/547
f 562/562/562 550/550/550 563/563/563
f 547/547/547 564/564/564 553/553/553
f 564/564/564 547/547/547 562/562/562
f 527/527/527 563/563/563 550/550/550
f 528/528/528 553/553/553 564/564/564
f 527/527/527 556/556/556 563/563/563
f 556/556/556 527/527/527 559/559/559
f 562/562/562 560/560/560 564/564/564
f 560/560/560 562/562/562 557/557/557
f 564/564/564 561/561/561 528/528/528
f 561/561/561 564/564/564 560/560/560
f 562/562/562 556/556/556 557/557/557
f 562/562/562 563/563/563 556/556/556
f 559/559/559 561/561/561 558/558/558
f 559/559/559 528/528/528 561/561/561
f 559/559/559 527/527/527 528/528/528
f 565/565/565 567/567/567 566/566/566
f 566/566/566 568/568/568 565/565/565
f 569/569/569 571/571/571 570/570/570
f 570/570/570 572/572/572 569/569/569
f 573/573/573 575/575/575 574/574/574
f 574/574/574 576/576/576 573/573/573
f 577/577/577 579/579/579 578/578/578
f 580/580/580 574/574/574 575/575/575
f 572/572/572 570/570/570 581/581/581
f 581/581/581 582/582/582 572/572/572
f 576/576/576 574/574/574 583/583/583
f 583/583/583 584/584/584 576/576/576
f 577/577/577 578/578/578 585/585/585
f 585/585/585 586/586/586 577/577/577
f 574/574/574 580/580/580 587/587/587
f 587/587/587 583/583/583 574/574/574
f 580/580/580 577/577/577 586/586/586
f 586/586/586 587/587/587 580/580/580
f 582/582/582 581/581/581 588/588/588
f 588/588/588 589/589/589 582/582/582
f 584/584/584 583/583/583 590/590/590
f 590/590/590 591/591/591 584/584/584
f 586/586/586 585/585/585 592/592/592
f 592/592/592 593/593/593 586/586/586
f 587/587/587 590/590/590 583/583/583
f 587/587/587 586/586/586 593/593/593
f 589/589/589 588/588/588 594/594/594
f 594/594/594 595/595/595 589/589/589
f 591/591/591 590/590/590 566/566/566
f 566/566/566 567/567/567 591/591/591
f 593/593/593 592/592/592 565/565/565
f 565/565/565 568/568/568 593/593/593
f 596/596/596 598/598/598 597/597/597
f 597/597/597 599/599/599 596/596/596
f 598/598/598 601/601/601 600/600/600
f 600/600/600 597/597/597 598/598/598
f 590/590/590 587/587/587 602/602/602
f 602/602/602 603/603/603 590/590/590
f 587/587/587 593/593/593 604/604/604
f 604/604/604 602/602/602 587/587/587
f 566/566/566 590/590/590 603/603/603
f 568/568/568 604/604/604 593/593/593
f 566/566/566 603/603/603 596/596/596
f 596/596/596 599/599/599 566/566/566
f 602/602/602 604/604/604 601/601/601
f 601/601/601 598/598/598 602/602/602
f 604/604/604 568/568/568 600/600/600
f 600/600/600 601/601/601 604/604/604
f 602/602/602 598/598/598 596/596/596
f 602/602/602 596/596/596 603/603/603
f 599/599/599 597/597/597 600/600/600
f 599/599/599 600/600/600 568/568/568
f 599/599/599 568/568/568 566/566/566
f 605/605/605 607/607/607 606/606/606
f 605/605/605 608/608/608 607/607/607
f 607/607/607 610/610/610 609/609/609
f 607/607/607 608/608/608 610/610/610
f 611/611/611 613/613/613 612/612/612
f 611/611/611 614/614/614 613/613/613
f 615/615/615 611/611/611 616/616/616
f 615/615/615 614/614/614 611/611/611
f 615/615/615 618/618/618 617/617/617
f 615/615/615 616/616/616 618/618/618
f 606/606/606 619/619/619 605/605/605
f 606/606/606 620/620/620 619/619/619
f 617/617/617 622/622/622 621/621/621
f 617/617/617 618/618/618 622/622/622
f 623/623/623 620/620/620 624/624/624
f 623/623/623 619/619/619 620/620/620
f 609/609/609 623/623/623 624/624/624
f 609/609/609 610/610/610 623/623/623
f 621/621/621 612/612/612 613/613/613
f 621/621/621 622/622/622 612/612/612
f 625/625/625 627/627/627 626/626/626
f 627/627/627 625/625/625 628/628/628
f 629/629/629 631/631/631 630/630/630
f 631/631/631 629/629/629 632/632/632
f 633/633/633 635/635/635 634/634/634
f 635/635/635 633/633/633 636/636/636
f 637/637/637 639/639/639 638/638/638
f 639/639/639 637/637/637 640/640/640
f 641/641/641 643/643/643 642/642/642
f 643/643/643 641/641/641 644/644/644
f 645/645/645 647/647/647 646/646/646
f 647/647/647 645/645/645 648/648/648
f 649/649/649 651/651/651 650/650/650
f 651/651/651 649/649/649 652/652/652
f 653/653/653 655/655/655 654/654/654
f 655/655/655 653/653/653 656/656/656
f 657/657/657 659/659/659 658/658/658
f 659/659/659 657/657/657 660/660/660
f 661/661/661 663/663/663 662/662/662
f 663/663/663 661/661/661 664/664/664
f 665/665/665 667/667/667 666/666/666
f 667/667/667 665/665/665 668/668/668
f 669/669/669 671/671/671 670/670/670
f 671/671/671 669/669/669 672/672/672
f 673/673/673 675/675/675 674/674/674
f 675/675/675 673/673/673 676/676/676
f 677/677/677 679/679/679 678/678/678
f 679/679/679 677/677/677 680/680/680
f 681/681/681 683/683/683 682/682/682
f 683/683/683 681/681/681 684/684/684
f 685/685/685 687/687/687 686/686/686
f 687/687/687 685/685/685 688/688/688
f 689/689/689 691/691/691 690/690/690
f 691/691/691 689/689/689 692/692/692
f 693/693/693 695/695/695 694/694/694
f 695/695/695 693/693/693 696/696/696
f 697/697/697 699/699/699 698/698/698
f 699/699/699 697/697/697 700/700/700
f 701/701/701 703/703/703 702/702/702
f 703/703/703 701/701/701 704/704/704
f 705/705/705 707/707/707 706/706/706
f 707/707/707 705/705/705 708/708/708
f 709/709/709 711/711/711 710/710/710
f 711/711/711 709/709/709 712/712/712

g fire_02
# texture: fire_02.jpg
v -0.771313 87.48074 85.01051
v -13.49512 91.31965 91.90332
v 9.587887 85.87744 56.41842
v 15.77109 85.15714 60.69352
v -13.49512 91.31965 91.90332
v 11.21809 90.04803 57.12891
v 5.034883 90.76844 52.85372
v -11.50742 93.09214 77.17072
v -0.771313 87.48074 85.01051
v 15.77109 85.15714 60.69352
v 11.21809 90.04803 57.12891
v -13.49512 91.31965 91.90332
v 9.587887 85.87744 56.41842
v -13.49512 91.31965 91.90332
v -11.50742 93.09214 77.17072
v 5.034883 90.76844 52.85372
vn -0.222497 -0.974587 -0.025999
vn -0.319205 -0.945616 -0.062601
vn -0.222497 -0.974587 -0.025999
vn -0.123202 -0.992321 0.011001
vn 0.231702 0.968009 0.096301
vn 0.094603 0.995038 0.030801
vn 0.231702 0.968009 0.096301
vn 0.363311 0.91793 0.159405
vn 0.489012 0.824021 0.286107
vn 0.569399 0.759399 0.314799
vn 0.489012 0.824021 0.286107
vn 0.402996 0.879192 0.254197
vn -0.518817 -0.819827 -0.242308
vn -0.462274 -0.870852 -0.16709
vn -0.518817 -0.819827 -0.242308
vn -0.569399 -0.759399 -0.314799
vt 0.2774 0.8332
vt 0.5349 0.9917
vt 0.5345 0.1821
vt 0.2774 0.1821
vt 0.5349 0.9917
vt 0.5353 0.1821
vt 0.7924 0.1821
vt 0.7924 0.8332
vt 0.2774 0.8332
vt 0.2774 0.1821
vt 0.5353 0.1821
vt 0.5349 0.9917
vt 0.5345 0.1821
vt 0.5349 0.9917
vt 0.7924 0.8332
vt 0.7924 0.1821
f 713/713/713 715/715/715 714/714/714
f 715/715/715 713/713/713 716/716/716
f 717/717/717 719/719/719 718/718/718
f 719/719/719 717/717/717 720/720/720
f 721/721/721 723/723/723 722/722/722
f 723/723/723 721/721/721 724/724/724
f 725/725/725 727/727/727 726/726/726
f 727/727/727 725/725/725 728/728/728
