# SnowSmith01.bmd — MU geometry at action 0 key 0, exported for MU2
# 2 mesh(es)

g snow_girl
# texture: snow_girl.jpg
v -0.957716 121.7524 -15.97649
v -0.744431 126.8756 -13.53857
v 7.996249 126.6679 -12.41854
v 8.488227 121.4963 -15.01963
v -0.210097 135.2612 -15.54539
v 11.64402 135.914 -13.30786
v -0.173317 148.4422 -17.61456
v 10.33075 153.8825 -14.32689
v 0.362945 125.2054 -0.880037
v 7.60132 125.8218 -3.663204
v 11.12097 134.2383 -0.57457
v -0.335409 133.1042 2.003386
v 10.63255 147.6766 8.074266
v -0.329542 147.2283 4.644149
v -0.358154 135.7133 5.929153
v -0.323398 149.7899 4.387025
v 9.374852 126.1495 -7.726253
v 12.13349 120.7252 -7.227913
v 13.05976 135.1531 -5.5107
v 17.63864 141.6546 -15.10155
v 27.29847 83.24522 -17.57404
v 25.90287 82.46326 -17.49295
v 21.75259 83.31194 -13.41839
v 22.93071 84.39103 -12.7872
v 12.13349 120.7252 -7.227913
v 9.374852 126.1495 -7.726253
v 9.012989 120.5086 -2.662796
v 13.05976 135.1531 -5.5107
v 17.63864 141.6546 -15.10155
v 13.1821 144.5102 -6.635754
v 10.23737 154.7652 -0.641555
v 5.055929 158.2785 -4.151155
v -0.270197 155.7919 -1.818693
v 20.7298 150.1131 -15.98794
v 16.86308 149.2433 -6.219532
v 12.06814 158.3168 -8.738173
v 21.1835 155.3159 -7.751009
v 20.7298 150.1131 -15.98794
v 21.1835 155.3159 -7.751009
v 24.32926 146.3143 -9.394813
v 16.86308 149.2433 -6.219532
v 32.48977 120.2899 -13.41019
v 31.62373 123.2325 -17.8222
v 17.63864 141.6546 -15.10155
v 25.12457 120.2137 -17.74719
v 28.00309 119.3985 -12.3331
v 13.1821 144.5102 -6.635754
v 24.7627 119.3335 -12.93535
v 13.1821 144.5102 -6.635754
v 24.7627 119.3335 -12.93535
v 33.21025 116.8168 -13.00898
v 32.88088 115.1383 -17.87771
v 25.74218 115.0333 -17.52866
v 34.01336 109.4389 -11.94401
v 33.61591 107.7065 -17.78787
v 25.94801 108.0241 -16.8648
v 28.92731 110.489 -10.18574
v 25.05674 110.1684 -10.88319
v 25.05674 110.1684 -10.88319
v 34.20257 93.18735 -11.54815
v 32.23687 91.11449 -15.30357
v 28.07101 90.32597 -13.53203
v 31.00978 93.72381 -8.346197
v 27.01363 91.88721 -9.897934
v 27.01363 91.88721 -9.897934
v 34.61931 89.47956 -12.56003
v 31.34292 90.03251 -7.070758
v 34.52221 84.00775 -12.61677
v 32.77598 79.66488 -14.29658
v 31.7717 84.09179 -6.401956
v 30.20927 79.77645 -10.67178
v 23.39885 81.92305 -7.808903
v 23.1205 81.18111 -9.162201
v 23.89122 80.17523 -8.690423
v 24.16964 80.91705 -7.337073
v 29.49958 76.00368 -15.2631
v 25.1849 75.97754 -10.48882
v 29.6516 80.14661 -8.079329
v 21.75259 83.31194 -13.41839
v 22.93071 84.39103 -12.7872
v 30.20927 79.77645 -10.67178
v 25.27706 85.60622 -11.14954
v 25.05228 87.06174 -8.850801
v 27.22734 83.61048 -9.865294
v 27.00256 85.06601 -7.566556
v 27.00256 85.06601 -7.566556
v 0.501903 120.2247 0.708217
v 12.06814 158.3168 -8.738173
v 21.1835 155.3159 -7.751009
v -9.157829 126.6679 -10.91776
v -10.0941 121.4963 -13.39389
v -12.09178 135.9544 -13.47225
v -10.70322 153.9183 -14.47256
v -11.75095 134.2772 -0.732974
v -7.248658 125.8218 -2.364005
v -11.3366 147.7139 7.922207
v -9.700687 126.1495 -6.057365
v -12.33096 120.7252 -5.087459
v -13.61797 135.1986 -5.695463
v -16.19399 145.8977 -19.62504
v -15.51946 109.9137 -4.763111
v -12.32104 115.6126 -2.455756
v -14.11652 110.2533 -4.06872
v -13.89604 116.0401 -2.992216
v -12.33096 120.7252 -5.087459
v -9.700687 126.1495 -6.057365
v -8.46515 120.5085 -1.133663
v -13.61797 135.1986 -5.695463
v -14.75881 144.1218 -9.905417
v -16.19399 145.8977 -19.62504
v -5.555004 158.2966 -4.224644
v -10.7966 154.8011 -0.787231
v -18.4576 154.3834 -17.44469
v -18.1687 148.8588 -8.470954
v -12.50284 158.3587 -8.908346
v -21.4654 155.7127 -8.262711
v -18.4576 154.3834 -17.44469
v -24.22869 148.9511 -14.60881
v -21.4654 155.7127 -8.262711
v -18.1687 148.8588 -8.470954
v -31.58941 128.9247 -32.06597
v -29.16135 133.2054 -34.22356
v -16.19399 145.8977 -19.62504
v -23.19974 129.2678 -33.665
v -28.06014 131.3388 -31.62337
v -18.1687 148.8588 -8.470954
v -24.96039 132.4255 -31.90208
v -14.75881 144.1218 -9.905417
v -28.06014 131.3388 -31.62337
v -31.66526 127.0692 -29.88847
v -28.99138 122.8723 -31.25439
v -22.83813 126.4972 -30.95291
v -30.80574 123.7883 -23.20187
v -27.67041 118.892 -25.07435
v -21.3945 123.3959 -24.79568
v -27.32405 128.0216 -23.06195
v -23.56476 129.2146 -23.18184
v -27.32405 128.0216 -23.06195
v -26.752 115.909 -9.571398
v -22.97819 113.1062 -9.978809
v -19.81397 115.9941 -8.31683
v -25.36638 120.0229 -8.196486
v -20.74944 119.9051 -7.548416
v -25.36638 120.0229 -8.196486
v -25.71739 113.1351 -7.085534
v -25.17075 118.9513 -4.43119
v -25.17075 118.9513 -4.43119
v -24.13604 110.4219 -2.603101
v -20.76739 107.887 0.034582
v -24.21264 116.2776 0.846655
v -19.98441 111.7952 1.997494
v -15.72349 118.1992 1.861562
v -15.33492 116.457 2.804056
v -14.74223 116.9854 1.709429
v -16.31621 117.6708 2.956152
v -16.41785 106.931 2.511598
v -14.52039 112.4405 5.242095
v -20.624 114.1214 3.158644
v -16.41785 106.931 2.511598
v -14.52039 112.4405 5.242095
v -20.624 114.1214 3.158644
v -17.03723 116.7123 -3.069705
v -18.14461 119.2058 -2.970782
v -18.72075 115.7138 -0.702234
v -19.82812 118.2073 -0.60331
v -24.21264 116.2776 0.846655
v -12.50284 158.3587 -8.908346
v -21.4654 155.7127 -8.262711
v 5.470407 158.3281 -8.783868
v -5.905107 158.3474 -8.862652
v -5.905107 158.3474 -8.862652
v 5.470407 158.3281 -8.783868
v -0.187939 153.9781 -14.14173
v -0.187939 153.9781 -14.14173
v -0.290607 152.5077 0.320812
v 4.043444 154.996 -2.018521
v 3.624911 162.627 -2.747529
v -0.21899 161.1909 -1.625533
v -0.169886 170.0012 -22.1143
v -0.169898 179.1102 -18.34735
v 7.291804 178.2395 -15.55814
v 8.710616 169.3605 -18.94347
v -0.169906 183.7836 -12.81896
v 6.363797 182.7021 -10.13748
v 4.578203 168.2976 1.823514
v 1.195202 166.7563 3.061848
v 1.059808 161.1464 2.363888
v 4.681599 173.2251 1.019809
v 0.824196 172.226 2.485955
v 5.204696 176.1104 0.869612
v -0.175305 175.1655 2.928736
v 3.957688 181.9716 4.384489
v -0.175012 180.7652 3.360204
v 11.40081 172.0248 -8.941481
v 10.04922 162.1328 -8.70426
v 7.799399 180.3342 -9.115257
v 6.363694 183.0968 -3.782309
v 6.720598 177.4307 -1.882446
v 5.53711 165.6267 -4.629167
v 6.714002 173.6173 -3.277729
v 6.720598 177.4307 -1.882446
v -0.17291 185.4028 -8.870615
v -0.181012 185.4371 -4.109622
v -0.16649 158.983 -30.16939
v 3.957688 181.9716 4.384489
v 6.714002 173.6173 -3.277729
v 10.42631 157.8857 -22.93782
v -0.175012 180.7652 3.360204
v 5.53711 165.6267 -4.629167
v -4.062993 162.627 -2.747534
v -4.58334 155.0107 -2.078269
v -7.7298 178.2395 -15.55815
v -9.146491 169.3605 -18.94348
v -6.801709 182.702 -10.13749
v -5.016301 168.2976 1.823509
v -1.497893 161.1464 2.363887
v -1.633299 166.7563 3.061848
v -5.119705 173.2251 1.019905
v -1.262305 172.226 2.485954
v -5.642809 176.1102 0.869607
v -4.395715 181.9716 4.384483
v -11.8348 172.0248 -8.941395
v -10.48309 162.1328 -8.704272
v -8.237409 180.3342 -9.115268
v -6.801713 183.0968 -3.782316
v -7.158609 177.4307 -1.882454
v -5.975095 165.6267 -4.629174
v -7.152006 173.6173 -3.277637
v -7.158609 177.4307 -1.882454
v -4.395715 181.9716 4.384483
v -7.152006 173.6173 -3.277637
v -10.8091 157.8857 -22.93783
v -5.975095 165.6267 -4.629174
v -0.279601 167.8717 4.533363
v 5.600121 156.6382 -8.377853
v -6.046087 156.658 -8.458414
v 3.624912 165.3825 -8.302487
v -0.193666 154.2677 -13.24359
v -0.218987 164.5154 -12.03659
v -0.957716 121.7524 -15.97649
v 8.488227 121.4963 -15.01963
v 11.4858 113.9468 -18.17307
v -1.358148 114.8851 -20.55354
v 12.13349 120.7252 -7.227913
v 9.012989 120.5086 -2.662796
v 10.63648 109.3197 2.450799
v 15.90729 110.7268 -5.888698
v 15.90729 110.7268 -5.888698
v 19.35806 98.32106 -5.917274
v 15.13131 98.09128 -17.29297
v 13.48228 91.82103 2.891541
v 19.35806 98.32106 -5.917274
v 2.862391 96.22446 -1.456307
v 4.020469 94.49942 -17.3936
v 7.784304 78.63203 -16.39242
v 5.819382 74.38773 -3.810353
v 15.68073 80.05933 -16.37335
v 21.34859 76.47733 -5.957527
v 2.862391 96.22446 -1.456307
v 5.819382 74.38773 -3.810353
v 15.65413 74.39275 3.329757
v 21.34859 76.47733 -5.957527
v 17.8982 57.51711 -11.37957
v 12.53297 56.91263 -11.40115
v 20.25469 58.14734 -6.307094
v 9.972401 57.0583 -6.349187
v 16.28645 57.94604 2.751823
v 20.25469 58.14734 -6.307094
v 9.972401 57.0583 -6.349187
v 12.13349 120.7252 -7.227913
v 3.611506 103.4774 2.09954
v 0.501903 120.2247 0.708217
v -3.651448 94.42764 -1.080233
v -3.162192 93.10641 -17.09044
v -3.18045 102.8831 2.099635
v -13.59361 113.9468 -15.97892
v -10.0941 121.4963 -13.39389
v -12.33096 120.7252 -5.087459
v -12.233 107.2327 2.33342
v -8.46515 120.5085 -1.133663
v -16.67885 108.7374 -6.457268
v -19.7777 96.2576 -7.136665
v -16.67885 108.7374 -6.457268
v -14.42971 96.43705 -18.03126
v -14.64126 89.66516 2.057196
v -19.7777 96.2576 -7.136665
v -6.693721 77.143 -16.87224
v -5.88462 72.60875 -4.263933
v -14.58768 78.37885 -17.61327
v -21.17146 74.38138 -7.911735
v -5.88462 72.60875 -4.263933
v -3.651448 94.42764 -1.080233
v -16.38089 72.1842 1.847918
v -21.17146 74.38138 -7.911735
v -16.99942 57.49961 -13.78929
v -11.64611 57.02389 -13.27336
v -19.95505 57.01645 -9.023622
v -9.698487 56.17279 -8.021454
v -17.0318 55.80109 0.758328
v -19.95505 57.01645 -9.023622
v -9.698487 56.17279 -8.021454
v -12.33096 120.7252 -5.087459
v 0.145876 103.7246 -20.96816
v 18.15696 -0.727488 -13.66403
v 24.03746 -0.679477 -13.66405
v 26.23166 -0.508112 -8.280201
v 16.00186 -0.556131 -8.280088
v 17.8982 57.51711 -11.37957
v 20.25469 58.14734 -6.307094
v 21.72754 51.27729 -5.999715
v 12.53307 56.91264 -11.40115
v 10.45721 49.80186 -6.042877
v 9.972401 57.0583 -6.349187
v 12.53307 56.91264 -11.40115
v 17.8982 57.51711 -11.37957
v 19.82107 41.35444 -12.8206
v 14.60349 40.59058 -12.83972
v 21.72754 51.27729 -5.999715
v 23.5892 39.00162 -6.052126
v 10.45721 49.80186 -6.042877
v 17.25786 47.31725 0.645188
v 21.61583 17.20826 -11.22843
v 18.32984 16.74831 -11.2407
v 24.6618 14.99207 -8.432848
v 16.82133 13.96167 -8.462831
v 20.98586 12.28492 -4.142107
v 23.03474 6.730566 -13.25171
v 18.78654 6.682558 -13.25169
v 25.45124 8.793532 -8.445116
v 16.78904 8.745517 -8.445104
v 23.40504 3.470036 10.67473
v 21.18233 5.349608 13.20988
v 21.13584 -0.524068 15.01921
v 25.36925 -0.501561 10.6761
v 17.74984 3.422026 10.67474
v 16.86855 -0.549578 10.67612
v 21.16144 7.749128 3.718546
v 24.92884 4.056544 2.300224
v 17.31704 4.008531 2.300236
v -13.97658 -0.947117 -25.24506
v -22.86362 -0.727769 -21.34511
v -19.76774 -0.899129 -26.26622
v -12.78924 -0.775752 -19.5687
v -16.99942 57.49961 -13.78929
v -20.62088 50.15035 -10.25309
v -19.95495 57.01643 -9.023612
v -11.64611 57.02389 -13.27336
v -9.698487 56.17279 -8.021454
v -9.36625 48.94946 -9.208961
v -11.64611 57.02389 -13.27336
v -17.48542 41.89741 -18.66021
v -16.99942 57.49961 -13.78929
v -12.27152 41.26223 -18.19242
v -21.90257 38.11599 -13.02652
v -20.62088 50.15035 -10.25309
v -9.36625 48.94946 -9.208961
v -16.37683 45.69973 -7.552737
v -18.35057 17.91335 -22.23939
v -15.06783 17.53404 -21.9407
v -21.59623 15.10353 -20.34839
v -13.7665 14.26421 -19.62289
v -18.32357 11.64293 -16.27842
v -18.85189 6.510919 -25.68603
v -14.66823 6.462926 -24.94832
v -22.06634 8.573877 -21.37209
v -13.53574 8.525893 -19.86789
v -23.37144 3.250394 -2.187414
v -21.89122 -0.743699 2.485096
v -21.62284 5.129976 0.695179
v -25.30614 -0.72121 -2.527155
v -16.93458 -0.769196 -1.051003
v -17.80226 3.202404 -1.205397
v -19.95401 7.529493 -8.648314
v -23.41788 3.836895 -10.69929
v -15.92172 3.788908 -9.3775
v 20.25469 58.14734 -6.307094
v 16.28654 57.94606 2.751824
v 18.26118 42.83319 4.93129
v 25.23948 41.14089 -4.69033
v 17.8982 57.51711 -11.37957
v 20.68703 39.74955 -17.11833
v 9.972401 57.0583 -6.349187
v 12.53307 56.91264 -11.40115
v 13.71236 38.96383 -17.14638
v 10.30947 39.56364 -4.750292
v -16.99942 57.49961 -13.78929
v -11.64611 57.02389 -13.27336
v -10.46482 40.28813 -23.16361
v -18.01303 40.95886 -23.89108
v -9.698487 56.17279 -8.021454
v -8.340303 38.28362 -10.00412
v -19.95495 57.01643 -9.023612
v -24.35578 39.66343 -11.55504
v -17.0317 55.80108 0.758336
v -18.31257 39.17805 -0.011979
vn -0.077977 0.446705 -0.891277
vn -0.08713 -0.024146 -0.995904
vn 0.65052 0.027559 -0.758989
vn 0.717134 0.40553 -0.566803
vn 0.006617 -0.14081 -0.990015
vn 0.531824 -0.316961 -0.785302
vn 0.00713 0.21333 -0.976954
vn -0.098185 0.49877 -0.861155
vn 0.087092 -0.038253 0.995466
vn 0.715071 0.039363 0.697943
vn 0.611454 -0.484458 0.625639
vn -0.006485 -0.62125 0.783586
vn 0.304241 0.14775 0.941067
vn -0.006707 0.105442 0.994403
vn -0.00692 -0.466573 0.884456
vn -0.004451 0.609752 0.79258
vn 0.999516 -0.031069 -0.001912
vn 0.883317 0.419018 0.210182
vn 0.915635 -0.400787 0.031334
vn 0.477526 -0.565177 -0.672715
vn 0.2352 0.852226 -0.467324
vn -0.208034 -0.105865 -0.972376
vn -0.873541 0.153974 -0.461755
vn -0.112802 0.70031 0.70487
vn 0.883317 0.419018 0.210182
vn 0.999516 -0.031069 -0.001912
vn 0.501403 0.2982 0.812202
vn 0.915635 -0.400787 0.031334
vn 0.477526 -0.565177 -0.672715
vn 0.1545 -0.458179 0.87533
vn 0.209642 0.759992 0.615193
vn 0.067487 0.869097 0.490016
vn -0.003591 0.718813 0.695194
vn 0.882842 0.264728 -0.387955
vn 0.22963 -0.039416 0.97248
vn -0.131133 0.98771 -0.085052
vn 0.91926 -0.023988 0.39292
vn 0.882842 0.264728 -0.387955
vn 0.91926 -0.023988 0.39292
vn 0.770723 0.146776 0.620035
vn 0.22963 -0.039416 0.97248
vn 0.853524 0.241517 0.4617
vn 0.612788 0.317285 -0.723755
vn 0.477526 -0.565177 -0.672715
vn -0.625669 -0.080406 -0.775934
vn 0.074713 0.202052 0.976521
vn 0.1545 -0.458179 0.87533
vn -0.873062 0.008674 0.487532
vn 0.1545 -0.458179 0.87533
vn -0.873062 0.008674 0.487532
vn 0.806887 0.202991 0.554732
vn 0.653895 -0.006455 -0.756558
vn -0.553358 -0.092943 -0.827742
vn 0.88204 0.108802 0.458441
vn 0.591114 -0.063494 -0.804085
vn -0.728095 -0.141136 -0.670789
vn 0.034353 0.151547 0.987853
vn -0.818667 0.033248 0.573306
vn -0.818667 0.033248 0.573306
vn 0.98287 0.076016 0.167891
vn 0.415128 -0.066877 -0.907302
vn -0.70457 -0.197433 -0.681617
vn 0.219506 0.181301 0.958617
vn -0.752993 0.245297 0.610599
vn -0.752993 0.245297 0.610599
vn 0.99638 0.068444 0.050419
vn 0.282854 0.215705 0.934594
vn 0.985881 -0.051601 -0.159302
vn 0.225989 -0.162176 -0.960535
vn 0.371803 -0.031433 0.927779
vn -0.901341 -0.216808 -0.374938
vn -0.761604 -0.00804 0.647992
vn -0.957288 -0.080374 -0.277739
vn -0.2807 -0.909985 -0.30518
vn 0.179759 -0.56189 0.807445
vn -0.285785 -0.51383 -0.808892
vn -0.889637 -0.384949 0.245685
vn -0.812659 -0.126604 0.568821
vn -0.873541 0.153974 -0.461755
vn -0.112802 0.70031 0.70487
vn -0.901341 -0.216808 -0.374938
vn -0.55751 -0.091295 -0.825135
vn -0.860396 0.391491 0.326272
vn 0.116751 -0.881419 -0.457679
vn -0.391026 -0.092793 0.91569
vn -0.391026 -0.092793 0.91569
vn 0.083007 0.304833 0.948782
vn -0.131133 0.98771 -0.085052
vn 0.91926 -0.023988 0.39292
vn -0.772434 0.027558 -0.634497
vn -0.804663 0.405529 -0.433663
vn -0.521973 -0.315166 -0.7926
vn -0.441505 0.236968 -0.865401
vn -0.621708 -0.482357 0.617098
vn -0.583011 0.039362 0.81151
vn -0.316742 0.148808 0.936766
vn -0.984663 -0.03107 0.171681
vn -0.8334 0.419017 0.360374
vn -0.917342 -0.397665 0.01864
vn -0.243698 -0.137455 -0.960061
vn -0.250368 -0.027351 -0.967764
vn 0.908305 0.161627 -0.385822
vn 0.597071 -0.656008 -0.461693
vn -0.369464 0.911822 -0.1791
vn -0.8334 0.419017 0.360374
vn -0.984663 -0.03107 0.171681
vn -0.352749 0.298199 0.88693
vn -0.917342 -0.397665 0.01864
vn -0.460368 -0.740478 0.489646
vn -0.243698 -0.137455 -0.960061
vn -0.071307 0.869334 0.489055
vn -0.533306 0.592342 0.603917
vn -0.68767 0.560983 -0.460878
vn -0.547063 -0.393042 0.739081
vn -0.770296 0.632707 -0.079539
vn -0.998192 -0.01152 0.058993
vn -0.68767 0.560983 -0.460878
vn -0.928645 0.019382 0.370462
vn -0.998192 -0.01152 0.058993
vn -0.547063 -0.393042 0.739081
vn -0.948991 0.184603 0.255614
vn -0.317908 0.69578 -0.644069
vn -0.243698 -0.137455 -0.960061
vn 0.847814 0.131172 -0.513814
vn -0.507621 0.770726 0.385101
vn -0.547063 -0.393042 0.739081
vn 0.570152 0.775714 0.270544
vn -0.460368 -0.740478 0.489646
vn -0.507621 0.770726 0.385101
vn -0.982873 0.114947 0.144042
vn -0.271646 -0.864026 -0.423872
vn 0.839168 -0.379328 -0.389752
vn -0.985218 -0.037541 0.167139
vn -0.182331 -0.89662 -0.40352
vn 0.943155 -0.205943 -0.260857
vn -0.463133 0.773215 0.433181
vn 0.481755 0.823859 0.298612
vn -0.463133 0.773215 0.433181
vn -0.949492 -0.312372 0.029813
vn 0.013969 -0.88852 -0.458625
vn 0.941974 -0.25303 -0.220591
vn -0.621996 0.678033 0.391652
vn 0.352217 0.924682 0.144589
vn -0.621996 0.678033 0.391652
vn -0.912689 -0.407519 -0.030445
vn -0.677307 0.647364 0.349536
vn -0.677307 0.647364 0.349536
vn -0.787887 -0.613795 -0.049909
vn 0.226723 -0.883633 -0.409622
vn -0.686087 0.476971 0.549348
vn 0.998092 0.053523 -0.030797
vn 0.413157 0.829982 0.374742
vn 0.612526 -0.538179 0.578943
vn 0.971863 0.218361 -0.088325
vn -0.326948 0.218512 0.919433
vn 0.710264 -0.703183 -0.032543
vn 0.786723 0.413184 0.458634
vn 0.521243 0.738328 0.427992
vn 0.710264 -0.703183 -0.032543
vn 0.786723 0.413184 0.458634
vn 0.521243 0.738328 0.427992
vn 0.841333 -0.374632 -0.389629
vn 0.519958 0.843225 -0.13644
vn 0.316645 -0.824937 0.468203
vn 0.004555 0.803689 0.595032
vn -0.686087 0.476971 0.549348
vn -0.770296 0.632707 -0.079539
vn -0.998192 -0.01152 0.058993
vn 0.002377 0.871808 -0.489842
vn 0.007377 0.871799 -0.489808
vn 0.007377 0.871799 -0.489808
vn 0.002377 0.871808 -0.489842
vn 0.0062 0.687532 -0.726128
vn 0.0062 0.687532 -0.726128
vn -0.006521 0.174788 0.984585
vn 0.717514 0.04869 0.69484
vn 0.696032 -0.263981 0.667723
vn 0 -0.822413 0.568891
vn 0.0019 0.321564 -0.946886
vn 0.0022 0.667876 -0.744269
vn 0.679821 0.477322 -0.556782
vn 0.779183 0.150986 -0.608339
vn 0.0023 0.855923 -0.517098
vn 0.528683 0.799376 -0.285468
vn 0.781122 -0.172497 0.600078
vn 0.274496 -0.122669 0.953732
vn 0.426297 -0.702697 0.569639
vn 0.703604 -0.016054 0.710411
vn 0.315808 0.085129 0.944997
vn 0.682714 -0.148356 0.715467
vn 0.0011 -0.175851 0.984416
vn 0.4874 0.324381 0.81069
vn -0.003301 0.439303 0.898333
vn 0.98034 0.109461 0.16417
vn 0.936239 -0.092587 0.338947
vn 0.924698 0.380603 0.008669
vn 0.782723 0.605768 0.142795
vn 0.915936 0.03374 0.399905
vn 0.930967 -0.089674 0.353919
vn 0.802424 -0.177708 0.56968
vn 0.915936 0.03374 0.399905
vn 0.002299 0.979807 -0.199934
vn 0.000699 0.983839 0.179056
vn 0.0014 0.465907 -0.884833
vn 0.4874 0.324381 0.81069
vn 0.802424 -0.177708 0.56968
vn 0.868204 0.251074 -0.428001
vn -0.003301 0.439303 0.898333
vn 0.930967 -0.089674 0.353919
vn -0.695986 -0.263964 0.667778
vn -0.726895 0.051251 0.684834
vn -0.678472 0.477887 -0.557943
vn -0.778294 0.149888 -0.609748
vn -0.525894 0.800891 -0.286374
vn -0.781123 -0.172497 0.600077
vn -0.356699 -0.616056 0.702312
vn -0.329907 -0.122279 0.936061
vn -0.703605 -0.016054 0.71041
vn -0.321012 0.086629 0.943105
vn -0.681377 -0.147447 0.716927
vn -0.487578 0.324465 0.810549
vn -0.980366 0.109253 0.164156
vn -0.936444 -0.093788 0.338048
vn -0.924734 0.380517 0.008668
vn -0.781891 0.606842 0.142788
vn -0.915989 0.033738 0.399783
vn -0.978995 -0.056432 0.195918
vn -0.802506 -0.177704 0.569566
vn -0.915989 0.033738 0.399783
vn -0.487578 0.324465 0.810549
vn -0.802506 -0.177704 0.569566
vn -0.867361 0.248497 -0.431202
vn -0.978995 -0.056432 0.195918
vn -0.0103 -0.047954 0.998797
vn 0.917511 0.099939 -0.38495
vn -0.917249 0.161972 -0.363895
vn 0.727741 0.138676 -0.671686
vn 0.00183 0.217837 -0.975984
vn -0.071899 0.103456 -0.992032
vn -0.075917 0.49119 -0.867738
vn 0.51776 0.496583 -0.696657
vn 0.664371 0.334096 -0.668574
vn -0.030752 0.254867 -0.966487
vn 0.913786 0.38938 0.11567
vn 0.572814 0.363369 0.734743
vn 0.391875 0.16784 0.904579
vn 0.905207 0.316937 0.283111
vn 0.905207 0.316937 0.283111
vn 0.971801 0.175934 0.157003
vn 0.558628 -0.000955 -0.829418
vn 0.208166 0.048139 0.976908
vn 0.971801 0.175934 0.157003
vn -0.472364 -0.513071 0.716681
vn -0.109127 -0.62958 -0.769234
vn -0.61526 -0.240361 -0.750788
vn -0.918559 -0.203949 0.338606
vn 0.530442 -0.071245 -0.844722
vn 0.999522 0.014033 0.027548
vn -0.472364 -0.513071 0.716681
vn -0.918559 -0.203949 0.338606
vn 0.130899 -0.038681 0.990641
vn 0.999522 0.014033 0.027548
vn 0.373793 -0.152729 -0.914851
vn -0.713538 -0.237528 -0.659124
vn 0.981633 -0.036218 -0.187312
vn -0.91171 -0.185939 0.366349
vn 0.532898 -0.055091 0.844385
vn 0.981633 -0.036218 -0.187312
vn -0.91171 -0.185939 0.366349
vn 0.913786 0.38938 0.11567
vn 0.068746 -0.27633 0.958601
vn 0.085384 0.189046 0.978249
vn 0.274678 -0.634768 0.722234
vn 0.246788 -0.439572 -0.863639
vn -0.034898 -0.229884 0.972592
vn -0.728771 0.299172 -0.615946
vn -0.630867 0.496582 -0.596165
vn -0.879818 0.389379 0.27259
vn -0.484527 0.134045 0.864445
vn -0.436526 0.363368 0.823048
vn -0.937107 0.2873 0.198218
vn -0.986973 0.148195 0.062634
vn -0.937107 0.2873 0.198218
vn -0.526089 -0.002404 -0.850426
vn -0.307348 0.016334 0.951457
vn -0.986973 0.148195 0.062634
vn 0.690464 -0.212157 -0.691556
vn 0.882658 -0.206276 0.422332
vn -0.442427 -0.052562 -0.895263
vn -0.997506 0.003609 -0.070485
vn 0.882658 -0.206276 0.422332
vn 0.274678 -0.634768 0.722234
vn -0.228614 -0.072651 0.970803
vn -0.997506 0.003609 -0.070485
vn -0.257705 0.040222 -0.965386
vn 0.789732 -0.099602 -0.605312
vn -0.952997 0.007492 -0.302886
vn 0.866446 -0.265502 0.422824
vn -0.612618 -0.075685 0.786747
vn -0.952997 0.007492 -0.302886
vn 0.866446 -0.265502 0.422824
vn -0.879818 0.389379 0.27259
vn -0.03426 -0.153414 -0.987568
vn -0.591631 -0.577327 -0.562731
vn 0.350788 -0.282998 -0.89267
vn 0.887823 -0.450742 -0.092746
vn -0.733896 -0.677217 -0.052666
vn 0.740013 0.150813 -0.655467
vn 0.885356 0.170506 -0.43252
vn 0.980088 0.162353 -0.114317
vn -0.528844 0.006507 -0.848694
vn -0.958236 -0.135604 -0.251786
vn -0.890119 -0.078389 -0.448936
vn -0.528844 0.006507 -0.848694
vn 0.740013 0.150813 -0.655467
vn 0.465609 0.065127 -0.882591
vn -0.429937 -0.067862 -0.900305
vn 0.980088 0.162353 -0.114317
vn 0.98955 0.087193 0.114839
vn -0.958236 -0.135604 -0.251786
vn 0.015574 -0.092502 0.995591
vn 0.414047 0.082388 -0.90652
vn -0.522343 0.003848 -0.852727
vn 0.985919 0.086869 -0.142891
vn -0.986887 -0.113307 0.114957
vn -0.04474 0.328712 0.94337
vn 0.516613 0.158214 -0.841475
vn -0.52922 0.113413 -0.840871
vn 0.96311 0.26589 -0.041492
vn -0.98429 0.174788 -0.024961
vn 0.864347 0.387134 0.320985
vn -0.1235 0.632355 0.764771
vn 0.374583 -0.133676 0.917506
vn 0.562485 -0.788591 0.248466
vn -0.804711 0.508711 0.306028
vn -0.855084 -0.324856 0.404105
vn 0.190989 0.925466 0.327163
vn 0.919554 0.338454 0.199674
vn -0.897833 0.409269 0.162464
vn 0.680362 -0.577325 -0.451446
vn -0.858228 -0.450745 -0.245506
vn -0.190447 -0.282999 -0.940022
vn 0.731894 -0.677215 0.075575
vn -0.682368 0.240963 -0.690153
vn -0.990461 0.110068 -0.082893
vn -0.844827 0.172615 -0.506431
vn 0.613922 0.221548 -0.757639
vn 0.938173 0.097699 -0.332093
vn 0.990805 -0.044586 -0.127737
vn 0.613922 0.221548 -0.757639
vn -0.361587 0.231754 -0.903075
vn -0.682368 0.240963 -0.690153
vn 0.527998 0.137656 -0.838015
vn -0.991783 0.018242 0.126625
vn -0.990461 0.110068 -0.082893
vn 0.990805 -0.044586 -0.127737
vn -0.050779 -0.248873 0.967204
vn -0.309361 0.259809 -0.914765
vn 0.617058 0.191226 -0.763329
vn -0.9656 0.094161 -0.242383
vn 0.957276 -0.11071 0.267145
vn -0.030998 0.133895 0.990511
vn -0.362643 0.158212 -0.9184
vn 0.667195 0.113414 -0.736198
vn -0.941274 0.265887 -0.208105
vn 0.97367 0.174791 0.146339
vn -0.906956 0.387131 0.166015
vn -0.528216 -0.133677 0.838521
vn -0.01118 0.632356 0.774597
vn -0.597083 -0.788593 0.147017
vn 0.771922 -0.324853 0.54645
vn 0.739343 0.508714 0.441115
vn -0.244902 0.925466 0.289027
vn -0.940258 0.338451 0.03696
vn 0.85598 0.409272 0.315903
vn 0.950754 0.24991 0.183336
vn -0.395514 0.131431 0.909008
vn 0.494236 0.24219 0.83491
vn 0.954872 0.280733 -0.096993
vn 0.674466 0.299818 -0.674689
vn 0.326835 0.336511 -0.883142
vn -0.99808 0.029942 -0.054224
vn -0.36002 0.262874 -0.895144
vn -0.741424 0.136655 -0.656975
vn -0.938191 -0.00494 0.346082
vn -0.213612 0.518684 -0.827851
vn 0.801836 0.301334 -0.516
vn 0.493143 0.468094 -0.733279
vn -0.599851 0.436149 -0.670785
vn 0.9172 0.006219 0.398379
vn 0.991949 0.08777 0.091291
vn -0.936392 0.28895 -0.199193
vn -0.971365 0.192808 0.138838
vn -0.565717 0.268434 0.779684
vn 0.297002 -0.013999 0.954774
vt 0.5355 0.4131
vt 0.5355 0.4603
vt 0.6144 0.4584
vt 0.621 0.4107
vt 0.5355 0.5147
vt 0.6443 0.5212
vt 0.5355 0.6358
vt 0.6319 0.6865
vt 0.1763 0.4474
vt 0.2371 0.453
vt 0.2481 0.53
vt 0.1763 0.52
vt 0.2659 0.6314
vt 0.1763 0.6267
vt 0.1763 0.544
vt 0.1763 0.6707
vt 0.6233 0.4536
vt 0.6481 0.4036
vt 0.6578 0.5153
vt 0.6815 0.5603
vt 0.6092 0.2709
vt 0.6119 0.2616
vt 0.6198 0.3647
vt 0.6169 0.3471
vt 0.2942 0.4071
vt 0.284 0.456
vt 0.2479 0.4051
vt 0.295 0.5376
vt 0.316 0.5817
vt 0.3044 0.6335
vt 0.2621 0.6956
vt 0.235 0.7556
vt 0.1763 0.7337
vt 0.6944 0.6293
vt 0.3283 0.6728
vt 0.2765 0.7531
vt 0.3481 0.7246
vt 0.0597 0.2495
vt 0.0157 0.1947
vt 0.0828 0.1936
vt 0.0445 0.1288
vt 0.2739 0.185
vt 0.2589 0.2196
vt 0.1074 0.2922
vt 0.2655 0.2972
vt 0.2783 0.1474
vt 0.0685 0.0994
vt 0.2762 0.1125
vt 0.0685 0.3554
vt 0.2762 0.3685
vt 0.2986 0.1848
vt 0.3054 0.2196
vt 0.302 0.2978
vt 0.3507 0.1847
vt 0.3569 0.2249
vt 0.3507 0.2994
vt 0.3419 0.1466
vt 0.341 0.1129
vt 0.341 0.3689
vt 0.4625 0.1938
vt 0.472 0.2385
vt 0.4764 0.3056
vt 0.4597 0.1521
vt 0.4684 0.1058
vt 0.4684 0.3618
vt 0.4872 0.2068
vt 0.4864 0.1501
vt 0.5246 0.2149
vt 0.5517 0.2459
vt 0.528 0.1495
vt 0.5526 0.3412
vt 0.5363 0.3485
vt 0.5399 0.3409
vt 0.5478 0.3436
vt 0.5441 0.3517
vt 0.5619 0.2274
vt 0.5645 0.1462
vt 0.5521 0.123
vt 0.6198 0.1087
vt 0.6169 0.0911
vt 0.5526 0.0852
vt 0.5092 0.3349
vt 0.5012 0.3524
vt 0.5252 0.3485
vt 0.5173 0.1104
vt 0.5173 0.3664
vt 0.1763 0.4098
vt 0.6481 0.7282
vt 0.702 0.699
vt 0.4566 0.4584
vt 0.45 0.4107
vt 0.4267 0.5212
vt 0.4391 0.6865
vt 0.1046 0.53
vt 0.1156 0.453
vt 0.0868 0.6314
vt 0.4478 0.4536
vt 0.423 0.4036
vt 0.4132 0.5153
vt 0.3895 0.5603
vt 0.6045 0.2278
vt 0.6147 0.1393
vt 0.6071 0.2366
vt 0.6119 0.156
vt 0.0565 0.4071
vt 0.0785 0.456
vt 0.1048 0.4051
vt 0.0518 0.5376
vt 0.0483 0.6335
vt 0.0307 0.5817
vt 0.1158 0.7556
vt 0.0906 0.7029
vt 0.3766 0.6293
vt 0.0244 0.6728
vt 0.0762 0.7531
vt 0.0046 0.7246
vt 0.0746 0.248
vt 0.0968 0.3008
vt 0.0321 0.2997
vt 0.0599 0.3619
vt 0.2811 0.3089
vt 0.2667 0.2763
vt 0.1206 0.2077
vt 0.273 0.2031
vt 0.2854 0.3444
vt 0.0599 0.1203
vt 0.2833 0.1357
vt 0.083 0.1481
vt 0.2854 0.1028
vt 0.305 0.3091
vt 0.3115 0.2763
vt 0.3082 0.2024
vt 0.3551 0.3092
vt 0.3611 0.2713
vt 0.3552 0.2009
vt 0.3467 0.3451
vt 0.3458 0.1353
vt 0.3467 0.1036
vt 0.463 0.3006
vt 0.4721 0.2584
vt 0.4764 0.1951
vt 0.4603 0.34
vt 0.4687 0.142
vt 0.4603 0.0984
vt 0.4868 0.2883
vt 0.4861 0.3418
vt 0.4861 0.1003
vt 0.5228 0.2807
vt 0.549 0.2514
vt 0.5262 0.3424
vt 0.5499 0.1615
vt 0.5341 0.1546
vt 0.5452 0.1592
vt 0.5377 0.1618
vt 0.5417 0.1516
vt 0.5588 0.2689
vt 0.5614 0.3455
vt 0.5494 0.3674
vt 0.5588 0.1122
vt 0.5614 0.1039
vt 0.5494 0.1258
vt 0.508 0.1674
vt 0.5003 0.1509
vt 0.5235 0.1547
vt 0.5158 0.1378
vt 0.5262 0.1008
vt 0.4229 0.7282
vt 0.369 0.699
vt 0.5 0.5
vt 0.5 0.5
vt 0.4834 0.7282
vt 0.5877 0.7282
vt 0.5355 0.6873
vt 0.5 0.5
vt 0.1769 0.742
vt 0.2124 0.7603
vt 0.2056 0.789
vt 0.1777 0.7783
vt 0.5383 0.9139
vt 0.5383 0.9673
vt 0.5884 0.9574
vt 0.5904 0.9089
vt 0.5383 0.9924
vt 0.5856 0.9861
vt 0.2125 0.8469
vt 0.188 0.8355
vt 0.187 0.778
vt 0.2133 0.8836
vt 0.1853 0.8761
vt 0.234 0.905
vt 0.1774 0.898
vt 0.2209 0.9486
vt 0.1774 0.9396
vt 0.6548 0.9006
vt 0.6412 0.8233
vt 0.6371 0.9634
vt 0.6242 0.9901
vt 0.6077 0.9428
vt 0.2202 0.8271
vt 0.2499 0.8865
vt 0.25 0.9148
vt 0.5383 1.0051
vt 0.5382 1.0053
vt 0.5384 0.786
vt 0.5799 0.9782
vt 0.584 0.913
vt 0.5885 0.7714
vt 0.5383 0.9688
vt 0.5762 0.8506
vt 0.1498 0.789
vt 0.1415 0.7603
vt 0.4873 0.9574
vt 0.4853 0.9089
vt 0.4901 0.9861
vt 0.1429 0.8469
vt 0.1684 0.778
vt 0.1674 0.8355
vt 0.1421 0.8836
vt 0.1701 0.8761
vt 0.1199 0.905
vt 0.133 0.9486
vt 0.4209 0.9006
vt 0.4345 0.8233
vt 0.4386 0.9634
vt 0.4514 0.9901
vt 0.468 0.9428
vt 0.1337 0.8271
vt 0.104 0.8865
vt 0.1039 0.9148
vt 0.4958 0.9782
vt 0.4916 0.913
vt 0.4877 0.7714
vt 0.4995 0.8506
vt 0.1773 0.8437
vt 0.2111 0.7602
vt 0.1427 0.7602
vt 0.2056 0.8253
vt 0.1769 0.742
vt 0.1777 0.8188
vt 0.8692 0.9882
vt 0.9327 0.986
vt 0.9548 0.9193
vt 0.8692 0.9276
vt 0.9562 0.9778
vt 0.932 0.9758
vt 0.9475 0.8644
vt 0.9848 0.8731
vt 0.9807 0.8758
vt 0.9935 0.7634
vt 0.9645 0.7687
vt 0.9521 0.7059
vt 0.9966 0.7592
vt 0.8805 0.762
vt 0.8865 0.7495
vt 0.8985 0.6061
vt 0.882 0.5681
vt 0.953 0.61
vt 0.9885 0.5699
vt 0.8891 0.7892
vt 0.8869 0.5613
vt 0.952 0.5486
vt 0.9927 0.5631
vt 0.9477 0.3803
vt 0.9109 0.3809
vt 0.9642 0.3827
vt 0.8939 0.3845
vt 0.9407 0.3746
vt 0.968 0.3735
vt 0.9014 0.3753
vt 0.9527 0.9791
vt 0.9031 0.8206
vt 0.8712 0.9733
vt 0.8586 0.762
vt 0.8527 0.7495
vt 0.844 0.8206
vt 0.7836 0.9193
vt 0.8058 0.986
vt 0.7861 0.9778
vt 0.7948 0.8644
vt 0.8104 0.9758
vt 0.7576 0.8731
vt 0.7449 0.7634
vt 0.7577 0.8758
vt 0.7739 0.7687
vt 0.7903 0.7059
vt 0.7458 0.7592
vt 0.8399 0.6061
vt 0.8564 0.5681
vt 0.7854 0.61
vt 0.7499 0.5699
vt 0.8554 0.5613
vt 0.8579 0.7892
vt 0.7904 0.5486
vt 0.7497 0.5631
vt 0.7907 0.3803
vt 0.8275 0.3809
vt 0.7742 0.3827
vt 0.8445 0.3845
vt 0.8016 0.3746
vt 0.7744 0.3735
vt 0.841 0.3753
vt 0.7857 0.9791
vt 0.8694 0.8289
vt 0.9141 0.0006
vt 0.9564 0.0009
vt 0.9722 0.002
vt 0.8986 0.0017
vt 0.1717 0.6657
vt 0.1363 0.6681
vt 0.1276 0.6079
vt 0.2088 0.6663
vt 0.2502 0.6074
vt 0.2478 0.6698
vt 0.9132 0.3593
vt 0.9521 0.3589
vt 0.9528 0.2537
vt 0.9148 0.253
vt 0.9754 0.3154
vt 0.9778 0.2351
vt 0.8936 0.315
vt 0.9402 0.2931
vt 0.944 0.1171
vt 0.9202 0.1168
vt 0.9639 0.1003
vt 0.907 0.0999
vt 0.9353 0.0855
vt 0.9492 0.0488
vt 0.9186 0.0485
vt 0.9666 0.0622
vt 0.9043 0.0618
vt 0.9519 0.0277
vt 0.9359 0.0398
vt 0.9355 0.0018
vt 0.966 0.002
vt 0.9112 0.0274
vt 0.9048 0.0017
vt 0.9357 0.0554
vt 0.9628 0.0315
vt 0.9081 0.0312
vt 0.824 0.0006
vt 0.7659 0.002
vt 0.7817 0.0009
vt 0.8395 0.0017
vt 0.1728 0.6657
vt 0.1279 0.6075
vt 0.1381 0.6681
vt 0.2099 0.6663
vt 0.2496 0.6698
vt 0.2505 0.607
vt 0.8249 0.3593
vt 0.7853 0.2537
vt 0.786 0.3589
vt 0.8233 0.253
vt 0.7603 0.2351
vt 0.7627 0.3154
vt 0.8445 0.315
vt 0.7979 0.2931
vt 0.7941 0.1171
vt 0.818 0.1168
vt 0.7742 0.1003
vt 0.8311 0.0999
vt 0.8028 0.0855
vt 0.7889 0.0488
vt 0.8195 0.0485
vt 0.7715 0.0622
vt 0.8339 0.0618
vt 0.7862 0.0277
vt 0.8026 0.0018
vt 0.8022 0.0398
vt 0.7721 0.002
vt 0.8333 0.0017
vt 0.8269 0.0274
vt 0.8024 0.0554
vt 0.7753 0.0315
vt 0.8301 0.0312
vt 0.1363 0.6681
vt 0.1819 0.6691
vt 0.1799 0.5514
vt 0.1035 0.5176
vt 0.1717 0.6657
vt 0.1666 0.5044
vt 0.2478 0.6698
vt 0.2088 0.6663
vt 0.2148 0.5052
vt 0.2654 0.5201
vt 0.1728 0.6657
vt 0.2099 0.6663
vt 0.2158 0.5048
vt 0.1659 0.5036
vt 0.2496 0.6698
vt 0.2663 0.5197
vt 0.1381 0.6681
vt 0.1032 0.5176
vt 0.1831 0.6691
vt 0.1803 0.551
f 1/1/1 3/3/3 2/2/2
f 3/3/3 1/1/1 4/4/4
f 2/2/2 6/6/6 5/5/5
f 6/6/6 2/2/2 3/3/3
f 5/5/5 8/8/8 7/7/7
f 8/8/8 5/5/5 6/6/6
f 9/9/9 11/11/11 10/10/10
f 11/11/11 9/9/9 12/12/12
f 13/13/13 15/15/15 14/14/14
f 13/13/13 14/14/14 16/16/16
f 4/4/4 17/17/17 3/3/3
f 17/17/17 4/4/4 18/18/18
f 3/3/3 19/19/19 6/6/6
f 19/19/19 3/3/3 17/17/17
f 20/20/20 6/6/6 19/19/19
f 21/21/21 23/23/23 22/22/22
f 23/23/23 21/21/21 24/24/24
f 25/25/25 10/10/10 26/26/26
f 10/10/10 25/25/25 27/27/27
f 26/26/26 11/11/11 28/28/28
f 11/11/11 26/26/26 10/10/10
f 28/28/28 30/30/30 29/29/29
f 30/30/30 28/28/28 11/11/11
f 16/16/16 32/32/32 31/31/31
f 32/32/32 16/16/16 33/33/33
f 6/6/6 34/34/34 8/8/8
f 30/30/30 31/31/31 35/35/35
f 20/20/20 34/34/34 6/6/6
f 36/36/36 35/35/35 31/31/31
f 35/35/35 36/36/36 37/37/37
f 38/38/38 40/40/40 39/39/39
f 41/41/41 39/39/39 40/40/40
f 11/11/11 13/13/13 30/30/30
f 30/30/30 13/13/13 31/31/31
f 16/16/16 31/31/31 13/13/13
f 38/38/38 42/42/42 40/40/40
f 42/42/42 38/38/38 43/43/43
f 44/44/44 43/43/43 38/38/38
f 43/43/43 44/44/44 45/45/45
f 40/40/40 46/46/46 41/41/41
f 46/46/46 40/40/40 42/42/42
f 41/41/41 48/48/48 47/47/47
f 48/48/48 41/41/41 46/46/46
f 49/49/49 45/45/45 44/44/44
f 45/45/45 49/49/49 50/50/50
f 43/43/43 51/51/51 42/42/42
f 51/51/51 43/43/43 52/52/52
f 45/45/45 52/52/52 43/43/43
f 52/52/52 45/45/45 53/53/53
f 46/46/46 42/42/42 51/51/51
f 50/50/50 53/53/53 45/45/45
f 52/52/52 54/54/54 51/51/51
f 54/54/54 52/52/52 55/55/55
f 53/53/53 55/55/55 52/52/52
f 55/55/55 53/53/53 56/56/56
f 51/51/51 57/57/57 46/46/46
f 57/57/57 51/51/51 54/54/54
f 46/46/46 58/58/58 48/48/48
f 58/58/58 46/46/46 57/57/57
f 50/50/50 56/56/56 53/53/53
f 56/56/56 50/50/50 59/59/59
f 60/60/60 55/55/55 61/61/61
f 55/55/55 60/60/60 54/54/54
f 56/56/56 61/61/61 55/55/55
f 61/61/61 56/56/56 62/62/62
f 54/54/54 63/63/63 57/57/57
f 63/63/63 54/54/54 60/60/60
f 57/57/57 64/64/64 58/58/58
f 64/64/64 57/57/57 63/63/63
f 59/59/59 62/62/62 56/56/56
f 62/62/62 59/59/59 65/65/65
f 61/61/61 66/66/66 60/60/60
f 67/67/67 60/60/60 66/66/66
f 60/60/60 67/67/67 63/63/63
f 64/64/64 63/63/63 67/67/67
f 61/61/61 68/68/68 66/66/66
f 68/68/68 61/61/61 69/69/69
f 66/66/66 70/70/70 67/67/67
f 70/70/70 66/66/66 68/68/68
f 62/62/62 69/69/69 61/61/61
f 69/69/69 62/62/62 71/71/71
f 72/72/72 74/74/74 73/73/73
f 74/74/74 72/72/72 75/75/75
f 69/69/69 76/76/76 68/68/68
f 68/68/68 77/77/77 70/70/70
f 77/77/77 68/68/68 76/76/76
f 78/78/78 70/70/70 77/77/77
f 69/69/69 22/22/22 76/76/76
f 22/22/22 69/69/69 21/21/21
f 76/76/76 79/79/79 77/77/77
f 79/79/79 76/76/76 22/22/22
f 71/71/71 21/21/21 69/69/69
f 21/21/21 71/71/71 24/24/24
f 77/77/77 80/80/80 78/78/78
f 80/80/80 77/77/77 79/79/79
f 78/78/78 80/80/80 81/81/81
f 65/65/65 82/82/82 62/62/62
f 82/82/82 65/65/65 83/83/83
f 62/62/62 84/84/84 71/71/71
f 84/84/84 62/62/62 82/82/82
f 81/81/81 85/85/85 78/78/78
f 86/86/86 71/71/71 84/84/84
f 83/83/83 73/73/73 82/82/82
f 73/73/73 83/83/83 72/72/72
f 82/82/82 74/74/74 84/84/84
f 74/74/74 82/82/82 73/73/73
f 84/84/84 75/75/75 86/86/86
f 75/75/75 84/84/84 74/74/74
f 86/86/86 72/72/72 83/83/83
f 72/72/72 86/86/86 75/75/75
f 70/70/70 78/78/78 85/85/85
f 70/70/70 85/85/85 67/67/67
f 27/27/27 87/87/87 9/9/9
f 10/10/10 27/27/27 9/9/9
f 88/88/88 8/8/8 34/34/34
f 88/88/88 34/34/34 89/89/89
f 67/67/67 85/85/85 64/64/64
f 86/86/86 83/83/83 65/65/65
f 13/13/13 11/11/11 15/15/15
f 11/11/11 12/12/12 15/15/15
f 1/1/1 2/2/2 90/90/90
f 90/90/90 91/91/91 1/1/1
f 2/2/2 5/5/5 92/92/92
f 92/92/92 90/90/90 2/2/2
f 5/5/5 7/7/7 93/93/93
f 93/93/93 92/92/92 5/5/5
f 9/9/9 95/95/95 94/94/94
f 94/94/94 12/12/12 9/9/9
f 96/96/96 14/14/14 15/15/15
f 96/96/96 16/16/16 14/14/14
f 91/91/91 90/90/90 97/97/97
f 97/97/97 98/98/98 91/91/91
f 90/90/90 92/92/92 99/99/99
f 99/99/99 97/97/97 90/90/90
f 100/100/100 99/99/99 92/92/92
f 101/101/101 103/103/103 102/102/102
f 102/102/102 104/104/104 101/101/101
f 105/105/105 106/106/106 95/95/95
f 95/95/95 107/107/107 105/105/105
f 106/106/106 108/108/108 94/94/94
f 94/94/94 95/95/95 106/106/106
f 108/108/108 110/110/110 109/109/109
f 109/109/109 94/94/94 108/108/108
f 16/16/16 112/112/112 111/111/111
f 111/111/111 33/33/33 16/16/16
f 92/92/92 93/93/93 113/113/113
f 109/109/109 114/114/114 112/112/112
f 100/100/100 92/92/92 113/113/113
f 115/115/115 112/112/112 114/114/114
f 114/114/114 116/116/116 115/115/115
f 117/117/117 119/119/119 118/118/118
f 120/120/120 118/118/118 119/119/119
f 94/94/94 109/109/109 96/96/96
f 109/109/109 112/112/112 96/96/96
f 16/16/16 96/96/96 112/112/112
f 117/117/117 118/118/118 121/121/121
f 121/121/121 122/122/122 117/117/117
f 123/123/123 117/117/117 122/122/122
f 122/122/122 124/124/124 123/123/123
f 118/118/118 120/120/120 125/125/125
f 125/125/125 121/121/121 118/118/118
f 126/126/126 128/128/128 127/127/127
f 127/127/127 129/129/129 126/126/126
f 128/128/128 123/123/123 124/124/124
f 124/124/124 127/127/127 128/128/128
f 122/122/122 121/121/121 130/130/130
f 130/130/130 131/131/131 122/122/122
f 124/124/124 122/122/122 131/131/131
f 131/131/131 132/132/132 124/124/124
f 125/125/125 130/130/130 121/121/121
f 127/127/127 124/124/124 132/132/132
f 131/131/131 130/130/130 133/133/133
f 133/133/133 134/134/134 131/131/131
f 132/132/132 131/131/131 134/134/134
f 134/134/134 135/135/135 132/132/132
f 130/130/130 125/125/125 136/136/136
f 136/136/136 133/133/133 130/130/130
f 129/129/129 127/127/127 137/137/137
f 137/137/137 138/138/138 129/129/129
f 127/127/127 132/132/132 135/135/135
f 135/135/135 137/137/137 127/127/127
f 139/139/139 140/140/140 134/134/134
f 134/134/134 133/133/133 139/139/139
f 135/135/135 134/134/134 140/140/140
f 140/140/140 141/141/141 135/135/135
f 133/133/133 136/136/136 142/142/142
f 142/142/142 139/139/139 133/133/133
f 138/138/138 137/137/137 143/143/143
f 143/143/143 144/144/144 138/138/138
f 137/137/137 135/135/135 141/141/141
f 141/141/141 143/143/143 137/137/137
f 140/140/140 139/139/139 145/145/145
f 146/146/146 145/145/145 139/139/139
f 139/139/139 142/142/142 146/146/146
f 143/143/143 147/147/147 144/144/144
f 140/140/140 145/145/145 148/148/148
f 148/148/148 149/149/149 140/140/140
f 145/145/145 146/146/146 150/150/150
f 150/150/150 148/148/148 145/145/145
f 141/141/141 140/140/140 149/149/149
f 149/149/149 151/151/151 141/141/141
f 152/152/152 154/154/154 153/153/153
f 153/153/153 155/155/155 152/152/152
f 149/149/149 148/148/148 156/156/156
f 148/148/148 150/150/150 157/157/157
f 157/157/157 156/156/156 148/148/148
f 158/158/158 157/157/157 150/150/150
f 149/149/149 156/156/156 103/103/103
f 103/103/103 101/101/101 149/149/149
f 159/159/159 160/160/160 102/102/102
f 102/102/102 103/103/103 159/159/159
f 151/151/151 149/149/149 101/101/101
f 101/101/101 104/104/104 151/151/151
f 160/160/160 161/161/161 104/104/104
f 104/104/104 102/102/102 160/160/160
f 161/161/161 151/151/151 104/104/104
f 143/143/143 141/141/141 162/162/162
f 162/162/162 163/163/163 143/143/143
f 141/141/141 151/151/151 164/164/164
f 164/164/164 162/162/162 141/141/141
f 151/151/151 161/161/161 165/165/165
f 165/165/165 164/164/164 151/151/151
f 163/163/163 162/162/162 154/154/154
f 154/154/154 152/152/152 163/163/163
f 162/162/162 164/164/164 153/153/153
f 153/153/153 154/154/154 162/162/162
f 164/164/164 165/165/165 155/155/155
f 155/155/155 153/153/153 164/164/164
f 165/165/165 163/163/163 152/152/152
f 152/152/152 155/155/155 165/165/165
f 166/166/166 165/165/165 161/161/161
f 166/166/166 147/147/147 165/165/165
f 107/107/107 9/9/9 87/87/87
f 95/95/95 9/9/9 107/107/107
f 167/167/167 113/113/113 93/93/93
f 167/167/167 168/168/168 113/113/113
f 147/147/147 143/143/143 165/165/165
f 165/165/165 143/143/143 163/163/163
f 96/96/96 15/15/15 94/94/94
f 94/94/94 15/15/15 12/12/12
f 36/36/36 32/32/32 169/169/169
f 36/36/36 31/31/31 32/32/32
f 111/111/111 112/112/112 115/115/115
f 170/170/170 111/111/111 115/115/115
f 167/167/167 93/93/93 171/171/171
f 172/172/172 8/8/8 88/88/88
f 93/93/93 7/7/7 173/173/173
f 173/173/173 7/7/7 8/8/8
f 93/93/93 173/173/173 171/171/171
f 173/173/173 8/8/8 172/172/172
f 170/170/170 174/174/174 169/169/169
f 175/175/175 177/177/177 176/176/176
f 177/177/177 175/175/175 178/178/178
f 179/179/179 181/181/181 180/180/180
f 181/181/181 179/179/179 182/182/182
f 180/180/180 184/184/184 183/183/183
f 184/184/184 180/180/180 181/181/181
f 185/185/185 187/187/187 186/186/186
f 186/186/186 188/188/188 185/185/185
f 188/188/188 186/186/186 189/189/189
f 189/189/189 190/190/190 188/188/188
f 190/190/190 189/189/189 191/191/191
f 191/191/191 192/192/192 190/190/190
f 192/192/192 191/191/191 193/193/193
f 182/182/182 194/194/194 181/181/181
f 194/194/194 182/182/182 195/195/195
f 196/196/196 181/181/181 194/194/194
f 184/184/184 181/181/181 196/196/196
f 196/196/196 197/197/197 184/184/184
f 197/197/197 196/196/196 198/198/198
f 177/177/177 185/185/185 199/199/199
f 185/185/185 177/177/177 187/187/187
f 199/199/199 188/188/188 200/200/200
f 188/188/188 199/199/199 185/185/185
f 200/200/200 190/190/190 201/201/201
f 190/190/190 200/200/200 188/188/188
f 184/184/184 202/202/202 183/183/183
f 184/184/184 203/203/203 202/202/202
f 203/203/203 184/184/184 197/197/197
f 179/179/179 204/204/204 182/182/182
f 201/201/201 190/190/190 192/192/192
f 197/197/197 198/198/198 205/205/205
f 194/194/194 195/195/195 206/206/206
f 194/194/194 206/206/206 198/198/198
f 196/196/196 194/194/194 198/198/198
f 182/182/182 207/207/207 195/195/195
f 203/203/203 205/205/205 208/208/208
f 205/205/205 203/203/203 197/197/197
f 195/195/195 209/209/209 206/206/206
f 199/199/199 176/176/176 177/177/177
f 175/175/175 211/211/211 210/210/210
f 210/210/210 178/178/178 175/175/175
f 179/179/179 180/180/180 212/212/212
f 212/212/212 213/213/213 179/179/179
f 180/180/180 183/183/183 214/214/214
f 214/214/214 212/212/212 180/180/180
f 215/215/215 217/217/217 216/216/216
f 217/217/217 215/215/215 218/218/218
f 218/218/218 219/219/219 217/217/217
f 219/219/219 218/218/218 220/220/220
f 220/220/220 191/191/191 219/219/219
f 191/191/191 220/220/220 221/221/221
f 221/221/221 193/193/193 191/191/191
f 213/213/213 212/212/212 222/222/222
f 222/222/222 223/223/223 213/213/213
f 224/224/224 222/222/222 212/212/212
f 214/214/214 224/224/224 212/212/212
f 224/224/224 214/214/214 225/225/225
f 225/225/225 226/226/226 224/224/224
f 210/210/210 227/227/227 215/215/215
f 215/215/215 216/216/216 210/210/210
f 227/227/227 228/228/228 218/218/218
f 218/218/218 215/215/215 227/227/227
f 228/228/228 229/229/229 220/220/220
f 220/220/220 218/218/218 228/228/228
f 214/214/214 183/183/183 202/202/202
f 214/214/214 202/202/202 203/203/203
f 203/203/203 225/225/225 214/214/214
f 179/179/179 213/213/213 204/204/204
f 229/229/229 221/221/221 220/220/220
f 225/225/225 230/230/230 226/226/226
f 222/222/222 231/231/231 223/223/223
f 222/222/222 226/226/226 231/231/231
f 224/224/224 226/226/226 222/222/222
f 213/213/213 223/223/223 232/232/232
f 203/203/203 208/208/208 230/230/230
f 230/230/230 225/225/225 203/203/203
f 223/223/223 231/231/231 233/233/233
f 227/227/227 210/210/210 211/211/211
f 191/191/191 189/189/189 219/219/219
f 186/186/186 216/216/216 217/217/217
f 186/186/186 187/187/187 216/216/216
f 187/187/187 178/178/178 216/216/216
f 178/178/178 187/187/187 177/177/177
f 216/216/216 178/178/178 210/210/210
f 189/189/189 234/234/234 219/219/219
f 234/234/234 189/189/189 186/186/186
f 219/219/219 234/234/234 217/217/217
f 234/234/234 186/186/186 217/217/217
f 204/204/204 207/207/207 182/182/182
f 204/204/204 213/213/213 232/232/232
f 235/235/235 176/176/176 199/199/199
f 227/227/227 211/211/211 236/236/236
f 237/237/237 235/235/235 199/199/199
f 238/238/238 237/237/237 239/239/239
f 238/238/238 235/235/235 237/237/237
f 227/227/227 238/238/238 239/239/239
f 227/227/227 236/236/236 238/238/238
f 240/240/240 242/242/242 241/241/241
f 242/242/242 240/240/240 243/243/243
f 244/244/244 246/246/246 245/245/245
f 246/246/246 244/244/244 247/247/247
f 242/242/242 249/249/249 248/248/248
f 249/249/249 242/242/242 250/250/250
f 247/247/247 251/251/251 246/246/246
f 251/251/251 247/247/247 252/252/252
f 253/253/253 255/255/255 254/254/254
f 255/255/255 253/253/253 256/256/256
f 254/254/254 257/257/257 250/250/250
f 257/257/257 254/254/254 255/255/255
f 250/250/250 258/258/258 249/249/249
f 258/258/258 250/250/250 257/257/257
f 251/251/251 260/260/260 259/259/259
f 260/260/260 251/251/251 261/261/261
f 252/252/252 261/261/261 251/251/251
f 261/261/261 252/252/252 262/262/262
f 255/255/255 263/263/263 257/257/257
f 263/263/263 255/255/255 264/264/264
f 257/257/257 265/265/265 258/258/258
f 265/265/265 257/257/257 263/263/263
f 256/256/256 264/264/264 255/255/255
f 264/264/264 256/256/256 266/266/266
f 262/262/262 267/267/267 261/261/261
f 267/267/267 262/262/262 268/268/268
f 261/261/261 269/269/269 260/260/260
f 269/269/269 261/261/261 267/267/267
f 241/241/241 242/242/242 270/270/270
f 242/242/242 248/248/248 270/270/270
f 246/246/246 259/259/259 271/271/271
f 246/246/246 251/251/251 259/259/259
f 246/246/246 272/272/272 245/245/245
f 246/246/246 271/271/271 272/272/272
f 254/254/254 274/274/274 273/273/273
f 254/254/254 273/273/273 253/253/253
f 272/272/272 271/271/271 275/275/275
f 240/240/240 277/277/277 276/276/276
f 276/276/276 243/243/243 240/240/240
f 278/278/278 280/280/280 279/279/279
f 279/279/279 281/281/281 278/278/278
f 276/276/276 283/283/283 282/282/282
f 282/282/282 284/284/284 276/276/276
f 281/281/281 279/279/279 285/285/285
f 285/285/285 286/286/286 281/281/281
f 273/273/273 274/274/274 287/287/287
f 287/287/287 288/288/288 273/273/273
f 274/274/274 284/284/284 289/289/289
f 289/289/289 287/287/287 274/274/274
f 284/284/284 282/282/282 290/290/290
f 290/290/290 289/289/289 284/284/284
f 285/285/285 292/292/292 291/291/291
f 291/291/291 293/293/293 285/285/285
f 286/286/286 285/285/285 293/293/293
f 293/293/293 294/294/294 286/286/286
f 287/287/287 289/289/289 295/295/295
f 295/295/295 296/296/296 287/287/287
f 289/289/289 290/290/290 297/297/297
f 297/297/297 295/295/295 289/289/289
f 288/288/288 287/287/287 296/296/296
f 296/296/296 298/298/298 288/288/288
f 294/294/294 293/293/293 299/299/299
f 299/299/299 300/300/300 294/294/294
f 293/293/293 291/291/291 301/301/301
f 301/301/301 299/299/299 293/293/293
f 277/277/277 302/302/302 276/276/276
f 276/276/276 302/302/302 283/283/283
f 279/279/279 275/275/275 292/292/292
f 279/279/279 292/292/292 285/285/285
f 279/279/279 280/280/280 272/272/272
f 279/279/279 272/272/272 275/275/275
f 271/271/271 292/292/292 275/275/275
f 271/271/271 259/259/259 292/292/292
f 250/250/250 243/243/243 303/303/303
f 243/243/243 250/250/250 242/242/242
f 303/303/303 276/276/276 284/284/284
f 276/276/276 303/303/303 243/243/243
f 284/284/284 274/274/274 303/303/303
f 303/303/303 254/254/254 250/250/250
f 303/303/303 274/274/274 254/254/254
f 304/304/304 306/306/306 305/305/305
f 306/306/306 304/304/304 307/307/307
f 308/308/308 310/310/310 309/309/309
f 311/311/311 313/313/313 312/312/312
f 314/314/314 316/316/316 315/315/315
f 316/316/316 314/314/314 317/317/317
f 315/315/315 319/319/319 318/318/318
f 319/319/319 315/315/315 316/316/316
f 320/320/320 317/317/317 314/314/314
f 321/321/321 318/318/318 319/319/319
f 317/317/317 322/322/322 316/316/316
f 322/322/322 317/317/317 323/323/323
f 316/316/316 324/324/324 319/319/319
f 324/324/324 316/316/316 322/322/322
f 320/320/320 323/323/323 317/317/317
f 323/323/323 320/320/320 325/325/325
f 319/319/319 326/326/326 321/321/321
f 326/326/326 319/319/319 324/324/324
f 321/321/321 325/325/325 320/320/320
f 325/325/325 321/321/321 326/326/326
f 323/323/323 327/327/327 322/322/322
f 327/327/327 323/323/323 328/328/328
f 322/322/322 329/329/329 324/324/324
f 329/329/329 322/322/322 327/327/327
f 325/325/325 328/328/328 323/323/323
f 328/328/328 325/325/325 330/330/330
f 326/326/326 324/324/324 329/329/329
f 326/326/326 330/330/330 325/325/325
f 328/328/328 305/305/305 327/327/327
f 305/305/305 328/328/328 304/304/304
f 327/327/327 306/306/306 329/329/329
f 306/306/306 327/327/327 305/305/305
f 330/330/330 304/304/304 328/328/328
f 304/304/304 330/330/330 307/307/307
f 331/331/331 333/333/333 332/332/332
f 333/333/333 331/331/331 334/334/334
f 332/332/332 336/336/336 335/335/335
f 336/336/336 332/332/332 333/333/333
f 329/329/329 337/337/337 326/326/326
f 337/337/337 329/329/329 338/338/338
f 326/326/326 339/339/339 330/330/330
f 339/339/339 326/326/326 337/337/337
f 306/306/306 338/338/338 329/329/329
f 307/307/307 330/330/330 339/339/339
f 306/306/306 331/331/331 338/338/338
f 331/331/331 306/306/306 334/334/334
f 337/337/337 335/335/335 339/339/339
f 335/335/335 337/337/337 332/332/332
f 339/339/339 336/336/336 307/307/307
f 336/336/336 339/339/339 335/335/335
f 337/337/337 331/331/331 332/332/332
f 337/337/337 338/338/338 331/331/331
f 334/334/334 336/336/336 333/333/333
f 334/334/334 307/307/307 336/336/336
f 334/334/334 306/306/306 307/307/307
f 340/340/340 342/342/342 341/341/341
f 341/341/341 343/343/343 340/340/340
f 344/344/344 346/346/346 345/345/345
f 347/347/347 349/349/349 348/348/348
f 350/350/350 352/352/352 351/351/351
f 351/351/351 353/353/353 350/350/350
f 352/352/352 355/355/355 354/354/354
f 354/354/354 351/351/351 352/352/352
f 356/356/356 350/350/350 353/353/353
f 357/357/357 354/354/354 355/355/355
f 353/353/353 351/351/351 358/358/358
f 358/358/358 359/359/359 353/353/353
f 351/351/351 354/354/354 360/360/360
f 360/360/360 358/358/358 351/351/351
f 356/356/356 353/353/353 359/359/359
f 359/359/359 361/361/361 356/356/356
f 354/354/354 357/357/357 362/362/362
f 362/362/362 360/360/360 354/354/354
f 357/357/357 356/356/356 361/361/361
f 361/361/361 362/362/362 357/357/357
f 359/359/359 358/358/358 363/363/363
f 363/363/363 364/364/364 359/359/359
f 358/358/358 360/360/360 365/365/365
f 365/365/365 363/363/363 358/358/358
f 361/361/361 359/359/359 364/364/364
f 364/364/364 366/366/366 361/361/361
f 362/362/362 365/365/365 360/360/360
f 362/362/362 361/361/361 366/366/366
f 364/364/364 363/363/363 342/342/342
f 342/342/342 340/340/340 364/364/364
f 363/363/363 365/365/365 341/341/341
f 341/341/341 342/342/342 363/363/363
f 366/366/366 364/364/364 340/340/340
f 340/340/340 343/343/343 366/366/366
f 367/367/367 369/369/369 368/368/368
f 368/368/368 370/370/370 367/367/367
f 369/369/369 372/372/372 371/371/371
f 371/371/371 368/368/368 369/369/369
f 365/365/365 362/362/362 373/373/373
f 373/373/373 374/374/374 365/365/365
f 362/362/362 366/366/366 375/375/375
f 375/375/375 373/373/373 362/362/362
f 341/341/341 365/365/365 374/374/374
f 343/343/343 375/375/375 366/366/366
f 341/341/341 374/374/374 367/367/367
f 367/367/367 370/370/370 341/341/341
f 373/373/373 375/375/375 372/372/372
f 372/372/372 369/369/369 373/373/373
f 375/375/375 343/343/343 371/371/371
f 371/371/371 372/372/372 375/375/375
f 373/373/373 369/369/369 367/367/367
f 373/373/373 367/367/367 374/374/374
f 370/370/370 368/368/368 371/371/371
f 370/370/370 371/371/371 343/343/343
f 370/370/370 343/343/343 341/341/341
f 376/376/376 378/378/378 377/377/377
f 376/376/376 379/379/379 378/378/378
f 380/380/380 379/379/379 376/376/376
f 380/380/380 381/381/381 379/379/379
f 382/382/382 384/384/384 383/383/383
f 382/382/382 385/385/385 384/384/384
f 383/383/383 381/381/381 380/380/380
f 383/383/383 384/384/384 381/381/381
f 377/377/377 385/385/385 382/382/382
f 377/377/377 378/378/378 385/385/385
f 386/386/386 388/388/388 387/387/387
f 386/386/386 389/389/389 388/388/388
f 387/387/387 391/391/391 390/390/390
f 387/387/387 388/388/388 391/391/391
f 392/392/392 389/389/389 386/386/386
f 392/392/392 393/393/393 389/389/389
f 394/394/394 393/393/393 392/392/392
f 394/394/394 395/395/395 393/393/393
f 390/390/390 395/395/395 394/394/394
f 390/390/390 391/391/391 395/395/395

g snow_girl02
# texture: snow_girl02.tga
v -24.33406 147.8055 10.89173
v -29.94275 173.7341 -4.697749
v -21.4654 155.7127 -8.262711
v -18.1687 148.8588 -8.470954
v -19.48517 171.5391 5.285333
v -21.14959 175.4504 -8.80099
v -12.50284 158.3587 -8.908346
v -10.7966 154.8011 -0.787231
v -19.28769 172.24 -23.04275
v -10.70322 153.9183 -14.47256
v 18.89807 171.4738 5.551066
v 20.77075 175.3789 -8.51076
v 12.06814 158.3168 -8.738173
v 10.23737 154.7652 -0.641555
v 19.09555 172.1746 -22.77702
v 10.33075 153.8825 -14.32689
v 31.5024 172.6508 -9.291015
v 21.1835 155.3159 -7.751009
v 20.7298 150.1131 -15.98794
v -18.4576 154.3834 -17.44469
v 16.93226 156.7832 12.67967
v 16.86308 149.2433 -6.219532
vn -0.876471 -0.384372 -0.289926
vn -0.892383 -0.368134 -0.261019
vn -0.998192 -0.01152 0.058993
vn -0.547063 -0.393042 0.739081
vn -0.890803 -0.454089 -0.016531
vn -0.895436 -0.445068 0.010476
vn -0.770296 0.632707 -0.079539
vn -0.533306 0.592342 0.603917
vn -0.901637 -0.432009 -0.020474
vn -0.441505 0.236968 -0.865401
vn -0.889394 0.457122 0.004202
vn -0.893683 0.448116 -0.022867
vn -0.131133 0.98771 -0.085052
vn 0.209642 0.759992 0.615193
vn -0.900357 0.435079 0.007994
vn -0.098185 0.49877 -0.861155
vn 0.844529 -0.481969 0.233404
vn 0.91926 -0.023988 0.39292
vn 0.882842 0.264728 -0.387955
vn -0.68767 0.560983 -0.460878
vn 0.834792 -0.508836 0.210256
vn 0.22963 -0.039416 0.97248
vt 0.0196 0.9974
vt 0.9952 0.9838
vt 0.4833 0.0303
vt 0.0262 0.0196
vt 0.0093 0.9934
vt 0.4884 0.9849
vt 0.4869 0.0305
vt 0.0214 0.0138
vt 0.9861 0.9854
vt 0.9627 0.0213
vt 0.0093 0.9934
vt 0.4884 0.9849
vt 0.4869 0.0305
vt 0.0214 0.0138
vt 0.9861 0.9854
vt 0.9627 0.0213
vt 0.9952 0.9838
vt 0.4833 0.0303
vt 0.9601 0.0154
vt 0.9601 0.0154
vt 0.0196 0.9974
vt 0.0262 0.0196
f 396/396/396 398/398/398 397/397/397
f 398/398/398 396/396/396 399/399/399
f 400/400/400 402/402/402 401/401/401
f 402/402/402 400/400/400 403/403/403
f 401/401/401 405/405/405 404/404/404
f 405/405/405 401/401/401 402/402/402
f 406/406/406 408/408/408 407/407/407
f 408/408/408 406/406/406 409/409/409
f 407/407/407 411/411/411 410/410/410
f 411/411/411 407/407/407 408/408/408
f 412/412/412 414/414/414 413/413/413
f 397/397/397 398/398/398 415/415/415
f 413/413/413 416/416/416 412/412/412
f 413/413/413 417/417/417 416/416/416
