# Object19.bmd — MU geometry at action 0 key 0, exported for MU2
# 4 mesh(es)

g flower7
# texture: flower7.jpg
v 100.0806 51.0928 -63.4548
v 90.3248 56.6238 -86.8842
v 90.9295 93.3096 -85.4147
v 101.0293 95.0757 -66.8225
v 69.9089 44.3618 -102.9019
v 75.3664 92.1114 -95.5496
v 82.0562 145.3674 -114.6591
v 102.0624 157.1044 -104.6648
v 113.2738 164.4293 -82.939
v 54.1288 58.23009 -92.2956
v 65.9281 91.7486 -86.7363
v 48.4682 53.16911 -67.6348
v 62.9069 92.0174 -69.9994
v 65.9281 91.7486 -86.7363
v 54.1288 58.23009 -92.2956
v 72.8376 136.8265 -84.3663
v 73.6399 138.8588 -104.0263
v 73.6399 138.8588 -104.0263
v 58.4307 56.2619 -47.7054
v 68.908 91.0305 -56.49
v 74.0061 44.2936 -38.3947
v 80.1669 90.7862 -50.0698
v 90.971 149.2613 -61.4488
v 79.2221 140.9688 -68.6179
v 91.8356 57.273 -47.9016
v 93.8276 93.2034 -54.1805
v 105.8842 159.3046 -67.8002
v 82.1615 202.2735 -88.99
v 89.0315 211.3021 -68.2089
v 82.0562 145.3674 -114.6591
v 69.9429 187.1374 -102.6731
v 41.7673 196.0508 -92.5594
v 48.8961 209.4279 -81.9884
v 53.974 217.7043 -65.3445
v 65.7546 176.3294 -97.2311
v 66.5528 172.4792 -80.4311
v 38.8606 176.2135 -69.2427
v 38.8348 182.5121 -85.6778
v 70.7585 179.2737 -62.5074
v 77.4832 191.6534 -52.0319
v 46.4047 197.179 -47.7391
v 41.9302 183.5782 -54.4838
v 85.7378 204.9534 -55.4192
v 51.7027 210.9093 -52.8915
v 53.974 217.7043 -65.3445
v 48.8961 209.4279 -81.9884
v 14.0581 206.5688 -78.5169
v 15.7174 212.3268 -63.811
v 41.7673 196.0508 -92.5594
v 11.0973 196.3622 -87.1244
v -13.1298 206.8177 -83.9211
v -12.2233 215.8176 -75.271
v -14.2287 228.5887 -58.4346
v 38.8348 182.5121 -85.6778
v 7.2901 182.1888 -79.0458
v 38.8606 176.2135 -69.2427
v 5.207699 174.7056 -64.6044
v -26.4876 194.4111 -62.8772
v -15.785 195.9658 -77.4394
v 41.9302 183.5782 -54.4838
v 7.720001 181.493 -54.1232
v 46.4047 197.179 -47.7391
v 11.7829 194.719 -49.7404
v -15.1906 212.5437 -49.4426
v -15.6879 196.3376 -54.5091
v 51.7027 210.9093 -52.8915
v 14.6877 206.7822 -53.5943
v 53.974 217.7043 -65.3445
v 15.7174 212.3268 -63.811
v -14.2287 228.5887 -58.4346
v -10.7518 222.1019 -51.0924
v -36.4633 236.5782 -58.6721
v -40.9295 227.1147 -74.8595
v -69.0217 218.0651 -76.8707
v -68.8429 223.0877 -65.1129
v -41.02209 218.0346 -83.0461
v -67.50351 209.1362 -83.6245
v -101.312 189.0168 -82.0426
v -104.5515 197.1272 -76.872
v -106.0563 201.1874 -66.965
v -38.3701 206.7973 -77.0278
v -63.6655 199.8458 -77.3996
v -26.4876 194.4111 -62.8772
v -60.7735 195.8803 -65.9062
v -95.86481 174.6537 -67.1634
v -97.7598 179.4701 -77.0043
v -36.2751 206.7358 -55.1919
v -62.1174 201.0605 -56.8544
v -35.7796 221.2345 -49.9624
v -65.1521 210.5941 -52.8066
v -100.9094 189.0271 -53.4257
v -97.49609 179.5332 -57.9263
v -40.066 232.8764 -51.8362
v -67.47479 219.2838 -56.3255
v -104.2927 197.249 -57.7941
v -139.7568 182.3421 -71.5127
v -142.0917 185.575 -64.6829
v -135.4267 176.0391 -74.9263
v -161.0246 162.5706 -66.9903
v -165.4065 166.6615 -65.2213
v -167.5542 167.4185 -61.4209
v -131.6146 169.5013 -71.5127
v -129.8841 166.3806 -64.6829
v -155.4575 157.1066 -61.4209
v -157.0709 159.5202 -65.2213
v -131.7587 169.8534 -57.8478
v -135.6401 176.536 -54.429
v -161.0739 162.6456 -55.8488
v -157.1061 159.5982 -57.6192
v -139.8972 182.6513 -57.8478
v -165.4371 166.6856 -57.6192
v -172.936 151.0104 -62.4265
v -173.9455 148.6127 -60.3336
v -169.7255 146.2726 -62.9497
v -170.0285 140.5572 -60.3336
v -166.6302 147.0099 -62.4265
v -166.0632 143.6121 -60.3336
v -166.6302 147.0099 -58.2406
v -169.7255 146.2726 -57.7174
v -172.936 151.0104 -58.2406
v 109.5232 -6.7505 -62.2183
v 106.2918 20.8075 -62.2183
v 108.2418 20.1011 -40.4247
v 111.3452 -3.336 -40.4247
v 100.0806 51.0928 -63.4548
v 104.169 37.6888 -38.8587
v 114.1997 27.9255 -20.8435
v 116.0195 16.4908 -23.032
v 120.1871 0.4679 -21.8015
v 74.0061 44.2936 -38.3947
v 69.2551 15.224 -22.361
v 87.1937 20.1011 -16.9439
v 91.8468 37.711 -24.7391
v 65.8865 -8.1277 -14.559
v 83.3377 -3.336 -9.984501
v 102.2785 0.4679 -0.244
v 103.2156 20.9556 -5.4953
v 107.6205 33.2281 -10.4421
v 91.8356 57.273 -47.9016
v 98.2174 43.4263 -33.0436
v 110.021 36.0883 -16.8242
v 124.5564 21.1544 -6.443901
v 130.0286 11.3806 -7.153801
v 126.8494 15.8453 -1.066299
v 144.1242 -10.8025 4.422802
v 120.4762 11.8863 0.994701
v 127.6497 -5.4289 5.408199
v 128.0181 7.421501 -10.6718
v 136.375 -5.4289 -5.749699
v 100.0227 38.6671 -101.1509
v 92.6625 31.7802 -112.3333
v 107.5286 35.9659 -91.1237
v 119.9799 25.387 -112.1335
v 114.6311 28.4587 -117.2138
v 111.2024 24.3406 -123.6173
v 106.2918 20.8075 -62.2183
v 111.7764 21.165 -87.7813
v 109.5232 -6.7505 -62.2183
v 114.3951 0.3143 -87.7813
v 125.0833 6.076 -110.6991
v 121.8301 18.2637 -109.9218
v 64.0933 -6.4259 -122.436
v 65.6206 15.7662 -117.0726
v 88.8515 17.8164 -119.1412
v 86.8151 0.3143 -123.7619
v 69.9089 44.3618 -102.9019
v 92.6625 31.7802 -112.3333
v 107.7426 17.4266 -127.677
v 88.8515 17.8164 -119.1412
v 108.4642 6.076 -130.8798
v 86.8151 0.3143 -123.7619
v 129.3272 15.0132 -125.3972
v 130.7994 9.792301 -129.4307
v 135.2661 9.792301 -123.9897
v 147.8138 -8.1816 -131.4581
v 133.5877 9.193699 -121.4477
v 140.7104 -1.2481 -124.557
v 125.2315 9.193699 -131.3629
v 132.9311 -1.2481 -133.5054
v 48.4682 53.16911 -67.6348
v 54.1288 58.23009 -92.2956
v 28.2266 39.2978 -117.8324
v 22.4139 36.4997 -109.1357
v 32.743 31.6914 -126.8499
v 0.676498 24.1702 -148.8543
v -1.333801 28.6852 -144.6686
v -4.753304 25.0417 -140.4751
v 35.1124 16.6786 -132.7881
v 36.4084 -2.0375 -137.1867
v 6.665199 2.7978 -154.8715
v 5.1964 15.7913 -151.8542
v 20.5592 -8.485 -66.6127
v 30.0044 19.926 -67.3916
v 16.1553 20.299 -104.1596
v 9.673698 -2.6029 -101.0438
v -6.091103 16.1205 -135.3694
v -9.875504 1.9497 -131.584
v -21.0667 15.5811 -156.3906
v -25.6906 9.9653 -155.3141
v -23.0851 10.2585 -158.941
v -38.4397 -8.0014 -160.6839
v -16.258 8.341999 -159.8373
v -22.2316 -2.6016 -162.348
v -22.8062 7.7661 -150.5097
v -30.1172 -3.167 -150.9466
v 37.8754 33.1264 -26.1917
v 44.7824 26.1601 -17.6365
v 28.9738 30.2419 -33.2299
v 8.632698 14.0369 -7.316101
v 15.4562 17.8164 -3.3265
v 20.7215 14.2806 3.123299
v 30.0044 19.926 -67.3916
v 21.5279 14.6256 -35.577
v 20.5592 -8.485 -66.6127
v 14.8098 -7.3566 -35.577
v 2.111 -6.8265 -8.029999
v 5.2705 6.040501 -9.877899
v 65.8865 -8.1277 -14.559
v 69.2551 15.224 -22.361
v 46.2446 12.2251 -10.7568
v 44.9844 -5.1943 -4.713299
v 23.9895 7.6429 6.7253
v 23.1635 -3.5831 11.2995
v 1.8759 2.964 12.7481
v 3.196602 -1.6435 19.0434
v -3.939598 -2.7649 13.2906
v -9.446701 -19.8526 29.3453
v -4.2229 -4.1867 8.543797
v -7.851402 -14.5031 15.9353
v 8.316902 -1.9842 18.942
v 2.955704 -12.3409 25.2262
v -12.2233 215.8176 -75.271
v -26.3094 223.7737 -74.1891
v -25.1048 236.1411 -58.815
v -26.7717 215.6989 -83.6819
v -26.3094 223.7737 -74.1891
v -26.3094 223.7737 -74.1891
v -26.7717 215.6989 -83.6819
v -25.1048 236.1411 -58.815
v -26.8101 207.1985 -80.218
v -15.785 195.9658 -77.4394
v -26.8101 207.1985 -80.218
v -25.4067 207.1225 -53.4986
v -36.2751 206.7358 -55.1919
v -25.2268 218.912 -48.5556
v -35.7796 221.2345 -49.9624
v -18.5725 245.0844 -42.4764
v -20.2237 240.1338 -40.9792
v -19.6867 250.4566 -44.0345
v -21.2426 262.3384 -32.5517
v -20.0451 259.8289 -32.4394
v -21.1357 257.2719 -31.7827
v -36.4633 236.5782 -58.6721
v -40.066 232.8764 -51.8362
v -29.5659 246.9641 -42.7203
v -28.0562 251.5129 -44.2175
v -28.3411 241.9062 -41.1622
v -27.0302 257.2369 -32.0622
v -28.1897 259.5804 -32.8257
v -27.2472 261.9904 -32.8312
v -23.8074 252.6328 -44.6352
v -24.2384 263.0328 -33.1454
v -24.3568 239.3423 -40.5615
v -24.0264 256.2912 -32.1198
v -22.3356 263.5267 -25.6749
v -23.424 262.3436 -24.4313
v -23.5689 264.6895 -24.4357
v -25.4894 263.5166 -21.9303
v -25.0804 265.2407 -25.8411
v -26.855 264.4862 -24.639
v -27.5935 263.2014 -26.0002
v -26.7102 262.1403 -24.6345
v -24.8487 261.4874 -25.834
v 22.9707 0.02 93.0665
v 7.1716 28.6892 82.0843
v 14.9929 37.0237 92.8282
v 11.1605 0.02 72.6106
v 11.1605 0.02 72.6106
v -8.4711 44.4321 76.528
v 7.1716 28.6892 82.0843
v -12.46 0.02 72.6106
v -16.2925 43.506 91.9022
v -24.2703 0.02 93.0665
v -8.4711 20.0351 106.6135
v -12.46 0.02 113.5224
v 7.1716 41.6539 106.3502
v 11.1605 0.02 113.5224
v 7.1716 69.787 79.5195
v 14.9929 69.787 93.0665
v -8.4711 69.787 79.5195
v 7.1716 69.787 79.5195
v -16.2925 69.787 93.0665
v -8.4711 69.787 106.6135
v 7.1716 69.787 106.6135
v 188.3074 -0.3852 19.0327
v 180.619 112.5438 8.4506
v 188.3074 112.5438 19.0327
v 180.619 -0.3852 8.4506
v 168.179 112.5438 12.4926
v 168.179 -0.3852 12.4926
v 168.179 112.5438 25.5728
v 168.179 -0.3852 25.5728
v 180.619 112.5438 29.6148
v 180.619 -0.3852 29.6148
v -148.5707 -0.0159 40.689
v -160.3271 173.0159 46.423
v -148.5707 173.0159 40.689
v -160.3271 -0.0159 46.423
v -160.3271 -0.0159 46.423
v -158.5067 173.0159 59.376
v -160.3271 173.0159 46.423
v -158.5067 -0.0159 59.376
v -145.6252 173.0159 61.6474
v -145.6252 -0.0159 61.6474
v -139.4844 173.0159 50.0982
v -139.4844 -0.0159 50.0982
v -149.0561 157.4393 98.07898
v -152.417 163.2605 88.80148
v -155.7778 157.4393 88.80148
v -145.6953 163.2605 88.80148
v -142.3344 157.4393 88.80148
v -145.6953 151.6182 88.80148
v -152.417 151.6182 88.80148
v -169.3738 192.6305 17.5732
v -189.6914 157.4393 17.57319
v -155.7778 157.4393 33.1226
v -152.417 163.2605 33.1226
v -128.7385 192.6305 17.5732
v -145.6953 163.2605 33.1226
v -108.4208 157.4393 17.57319
v -142.3344 157.4393 33.1226
v -128.7385 122.2481 17.5732
v -145.6953 151.6182 33.1226
v -169.3738 122.2481 17.5732
v -152.417 151.6182 33.1226
v 84.21 200.4062 -37.5061
v 68.4109 213.9531 -17.4911
v 76.2322 200.4062 -17.4911
v 72.3998 220.8621 -37.5061
v 72.3998 220.8621 -37.5061
v 52.7682 213.9531 -17.4911
v 68.4109 213.9531 -17.4911
v 48.7793 220.8621 -37.5061
v 44.9468 200.4062 -17.4911
v 36.9691 200.4062 -37.5061
v 52.7682 186.8592 -17.491
v 48.7793 179.9502 -37.5061
v 68.4109 186.8592 -17.491
v 72.3998 179.9502 -37.5061
v 70.3055 200.4062 24.76039
v 71.1527 218.7022 36.6318
v 81.7159 200.4062 36.6318
v 65.4475 208.8204 24.76039
v 65.4475 208.8204 24.76039
v 50.0263 218.7022 36.6318
v 71.1527 218.7022 36.6318
v 55.7316 208.8204 24.76039
v 39.4631 200.4062 36.6318
v 50.8736 200.4062 24.76039
v 50.0263 182.1102 36.63178
v 55.7316 191.9919 24.76038
v 71.1527 182.1102 36.63178
v 65.4475 191.9919 24.76038
v 158.797 97.68049 -20.9326
v 186.3143 103.5269 35.22408
v 189.9929 97.68049 33.1002
v 155.1184 103.5269 -18.80871
v 180.3621 101.2938 38.66058
v 149.1662 101.2938 -15.3723
v 180.3621 94.06709 38.66058
v 149.1662 94.06711 -15.37231
v 186.3143 91.83399 35.2241
v 155.1184 91.834 -18.8087
vn 0.949283 0.313694 0.0214
vn 0.713093 0.363297 -0.599594
vn 0.759715 -0.151703 -0.632313
vn 0.995312 -0.094501 0.0206
vn 0.126899 0.480995 -0.867491
vn -0.088196 -0.086396 -0.992349
vn -0.194499 -0.0466 -0.979795
vn 0.679033 0.085304 -0.729135
vn 0.990372 0.138396 -0.003
vn -0.536585 0.659781 -0.526085
vn -0.861115 0.159603 -0.482709
vn -0.813503 0.571102 0.1098
vn -0.945711 0.302203 0.119601
vn -0.861115 0.159603 -0.482709
vn -0.536585 0.659781 -0.526085
vn -0.988093 0.0089 0.153599
vn -0.927783 -0.055999 -0.368893
vn -0.927783 -0.055999 -0.368893
vn -0.494783 0.59168 0.636478
vn -0.708381 0.319491 0.629383
vn -0.038801 0.515813 0.855822
vn -0.117306 0.233513 0.965252
vn -0.087702 0.0212 0.995921
vn -0.771301 0.0217 0.636101
vn 0.58497 0.434478 0.684865
vn 0.64308 0.074398 0.762177
vn 0.667897 0.064 0.741497
vn 0.302211 0.658825 -0.688926
vn 0.592212 0.805716 -0.0103
vn -0.194499 -0.0466 -0.979795
vn -0.231003 0.228203 -0.945813
vn -0.22329 0.170892 -0.959655
vn -0.046199 0.786789 -0.615491
vn 0.018201 0.999242 0.034401
vn -0.727188 -0.430593 -0.534591
vn -0.676388 -0.722787 0.141698
vn -0.0651 -0.996406 0.0542
vn -0.280807 -0.696418 -0.660417
vn -0.381808 -0.590612 0.710915
vn 0.015401 -0.254512 0.966947
vn 0.042598 -0.101096 0.993964
vn 0.067101 -0.717706 0.693106
vn 0.467013 0.37601 0.800322
vn 0.038502 0.647438 0.761145
vn 0.018201 0.999242 0.034401
vn -0.046199 0.786789 -0.615491
vn 0.051398 0.789975 -0.610981
vn 0.181594 0.981668 0.057898
vn -0.22329 0.170892 -0.959655
vn -0.126003 0.121003 -0.984623
vn -0.0088 0.149699 -0.988693
vn 0.265595 0.723587 -0.637088
vn 0.605109 0.733011 -0.310705
vn -0.280807 -0.696418 -0.660417
vn -0.268004 -0.67081 -0.691511
vn -0.0651 -0.996406 0.0542
vn -0.247403 -0.967611 0.050201
vn -0.326705 -0.937115 0.122802
vn -0.416999 -0.600598 -0.682198
vn 0.067101 -0.717706 0.693106
vn -0.135697 -0.590587 0.795483
vn 0.042598 -0.101096 0.993964
vn -0.0245 0.0026 0.999697
vn 0.099898 -0.179997 0.978582
vn -0.332813 -0.433717 0.837332
vn 0.038502 0.647438 0.761145
vn 0.136094 0.602974 0.786066
vn 0.018201 0.999242 0.034401
vn 0.181594 0.981668 0.057898
vn 0.605109 0.733011 -0.310705
vn 0.667732 0.341916 0.661232
vn -0.37039 0.875376 -0.310691
vn -0.0034 0.776327 -0.630322
vn -0.314898 0.724196 -0.613497
vn -0.449685 0.89267 0.030399
vn -0.0086 0.129702 -0.991516
vn -0.030801 0.042102 -0.998639
vn -0.110296 -0.016599 -0.99376
vn -0.378299 0.650998 -0.658098
vn -0.460692 0.887484 0.0116
vn -0.006 -0.618371 -0.785863
vn 0.251214 -0.654137 -0.71344
vn -0.326705 -0.937115 0.122802
vn 0.240101 -0.967705 0.0768
vn 0.379788 -0.924671 0.027299
vn 0.225292 -0.660776 -0.715974
vn -0.043101 -0.443114 0.895429
vn 0.172497 -0.571191 0.802487
vn -0.271913 -0.183609 0.944644
vn -0.048901 -0.0196 0.998611
vn -0.026299 -0.0001 0.999654
vn 0.261984 -0.622161 0.737754
vn -0.639485 0.467689 0.610186
vn -0.372714 0.592422 0.714227
vn -0.330795 0.63259 0.700289
vn -0.422184 0.53668 -0.730572
vn -0.492798 0.869896 -0.0208
vn -0.196607 -0.119004 -0.973234
vn -0.129206 -0.190509 -0.973146
vn -0.549417 0.304409 -0.778124
vn -0.796118 0.605014 -0.0124
vn 0.096197 -0.695378 -0.712177
vn 0.291087 -0.956357 0.025499
vn 0.543683 -0.839273 0.0055
vn 0.232795 -0.580487 -0.780283
vn 0.218301 -0.618803 0.754604
vn -0.036399 -0.0115 0.999271
vn -0.0137 -0.064999 0.997791
vn 0.346005 -0.475506 0.808811
vn -0.313588 0.611476 0.726471
vn -0.471425 0.410122 0.780742
vn -0.67958 -0.018099 -0.733378
vn -0.999993 0.0005 -0.0037
vn -0.103401 -0.314803 -0.943508
vn -0.397175 -0.917743 -0
vn 0.340007 -0.428909 -0.836918
vn 0.707588 -0.706388 -0.0183
vn 0.380194 -0.374294 0.845787
vn -0.082599 -0.260297 0.961989
vn -0.656329 0.025801 0.754033
vn 0.990667 0.121996 0.060798
vn 0.985086 0.159798 0.063799
vn 0.954625 0.184205 -0.234006
vn 0.952094 0.126099 -0.278598
vn 0.949283 0.313694 0.0214
vn 0.880167 0.471582 -0.053998
vn 0.828752 0.411626 -0.379124
vn 0.847891 0.203898 -0.489395
vn 0.830522 0.176705 -0.528214
vn -0.038801 0.515813 0.855822
vn 0.0152 0.399912 0.916428
vn -0.452487 0.390189 0.801878
vn -0.31671 0.690021 0.65082
vn 0.048102 0.314211 0.948134
vn -0.40382 0.320816 0.856742
vn -0.370697 0.248498 0.894893
vn -0.373204 0.350704 0.85891
vn -0.074404 0.700934 0.709335
vn 0.58497 0.434478 0.684865
vn 0.394911 0.859424 0.324709
vn 0.579427 0.810537 0.085404
vn 0.747924 0.657321 0.092403
vn 0.826215 0.342206 -0.447508
vn 0.369292 0.574088 0.730785
vn 0.831232 0.51002 0.221209
vn -0.0407 0.320103 0.946508
vn -0.0102 0.242994 0.969974
vn 0.77171 0.222703 -0.595708
vn 0.782208 0.299503 -0.546305
vn 0.375598 0.831997 -0.408298
vn -0.056901 0.670617 -0.739619
vn 0.794176 0.607482 0.0158
vn 0.763411 0.620209 0.180403
vn 0.385005 0.845411 -0.370205
vn 0.026201 0.677736 -0.734839
vn 0.985086 0.159798 0.063799
vn 0.933134 0.218508 0.28551
vn 0.990667 0.121996 0.060798
vn 0.935611 0.117501 0.332904
vn 0.822362 0.196991 0.533775
vn 0.835983 0.271494 0.47689
vn 0.183192 0.241089 -0.953057
vn 0.174894 0.32019 -0.93107
vn -0.2369 0.382199 -0.893198
vn -0.25229 0.274289 -0.927963
vn 0.126899 0.480995 -0.867491
vn -0.056901 0.670617 -0.739619
vn -0.193399 0.406397 -0.892994
vn -0.2369 0.382199 -0.893198
vn -0.227895 0.235495 -0.944779
vn -0.25229 0.274289 -0.927963
vn 0.533207 0.712309 -0.456406
vn 0.332207 0.558311 -0.760215
vn 0.809414 0.55961 0.178003
vn 0.720198 0.581098 -0.378999
vn 0.767476 0.31029 0.560982
vn 0.76706 0.366381 0.526673
vn 0.118898 0.386994 -0.914385
vn 0.127499 0.288698 -0.948893
vn -0.813503 0.571102 0.1098
vn -0.536585 0.659781 -0.526085
vn -0.179806 0.929331 -0.322511
vn -0.665891 0.71309 0.219297
vn 0.307111 0.613623 -0.727427
vn 0.233205 0.569913 -0.787918
vn -0.262607 0.921323 -0.286707
vn -0.6793 0.6255 0.3838
vn 0.469402 0.317301 -0.824004
vn 0.505382 0.230392 -0.83157
vn 0.388895 0.207597 -0.897588
vn 0.360405 0.361705 -0.859812
vn -0.947792 0.309897 0.075199
vn -0.911997 0.402399 0.0796
vn -0.823198 0.375099 0.426199
vn -0.845065 0.299388 0.442982
vn -0.748882 0.381491 0.541887
vn -0.743693 0.357197 0.565095
vn -0.517077 0.749167 -0.413982
vn -0.772786 0.52379 0.358393
vn -0.111002 0.423407 -0.899114
vn -0.718355 0.566865 -0.403275
vn 0.0746 0.306001 -0.949104
vn 0.0156 0.215496 -0.97638
vn -0.721336 0.40652 0.560728
vn -0.726618 0.465712 0.505113
vn -0.268991 0.859371 0.434885
vn 0.222094 0.638383 0.736981
vn -0.71041 0.703409 -0.0231
vn -0.738588 0.672389 -0.048799
vn -0.347498 0.862195 0.368598
vn 0.118999 0.715796 0.688096
vn -0.911997 0.402399 0.0796
vn -0.884292 0.358397 -0.299297
vn -0.947792 0.309897 0.075199
vn -0.912815 0.279005 -0.298205
vn -0.896498 0.1609 -0.412799
vn -0.878793 0.305498 -0.366597
vn 0.048102 0.314211 0.948134
vn 0.0152 0.399912 0.916428
vn 0.451402 0.363102 0.815104
vn 0.515903 0.247201 0.820205
vn 0.435107 0.438807 0.786213
vn 0.518586 0.271193 0.810878
vn -0.461921 0.758234 0.460121
vn -0.137 0.669901 0.729701
vn -0.812797 0.566498 0.1358
vn -0.589104 0.585504 0.556904
vn -0.933541 0.310114 -0.179808
vn -0.961334 0.213608 -0.173806
vn 0.216604 0.483509 0.848116
vn 0.219109 0.420717 0.880335
vn 0.265595 0.723587 -0.637088
vn 0.269298 0.730395 -0.627696
vn 0.242201 0.686503 -0.685603
vn 0.054102 0.220709 -0.973838
vn 0.269298 0.730395 -0.627696
vn 0.269298 0.730395 -0.627696
vn 0.054102 0.220709 -0.973838
vn 0.242201 0.686503 -0.685603
vn -0.261705 -0.547811 -0.794616
vn -0.416999 -0.600598 -0.682198
vn -0.261705 -0.547811 -0.794616
vn -0.219397 -0.415394 0.882787
vn -0.043101 -0.443114 0.895429
vn -0.176695 -0.365289 0.913971
vn -0.271913 -0.183609 0.944644
vn 0.963838 0.077703 0.25491
vn 0.5461 -0.2638 0.7951
vn 0.79806 0.463977 -0.384481
vn 0.669929 0.68403 -0.288613
vn 0.983576 0.088698 0.157196
vn 0.543775 -0.492577 0.679468
vn -0.37039 0.875376 -0.310691
vn -0.639485 0.467689 0.610186
vn -0.951398 0.1599 0.2632
vn -0.698317 0.610915 -0.373009
vn -0.653414 -0.223305 0.723316
vn -0.61013 -0.516125 0.601129
vn -0.9962 0.023 0.084
vn -0.678192 0.644992 -0.352196
vn 0.099104 0.702825 -0.704425
vn -0.0248 0.868996 -0.494198
vn -0.103996 -0.387785 0.915865
vn -0.0324 -0.6208 0.7833
vn 0.899008 0.135001 0.416604
vn 0.483295 -0.603194 0.634494
vn 0.54811 0.793315 0.265005
vn -0.089302 0.0126 0.995925
vn -0.055897 0.998153 -0.023799
vn -0.689311 0.710612 0.141002
vn -0.974051 0.024599 0.224989
vn -0.517802 -0.672102 0.529302
vn 0.0021 -0.83363 0.55232
vn 0.911201 0.3331 -0.2424
vn 0.603906 0.191502 -0.773708
vn 0.989626 0.131703 -0.057402
vn 0.500187 0.349891 -0.792079
vn 0.500187 0.349891 -0.792079
vn -0.373792 0.227495 -0.899181
vn 0.603906 0.191502 -0.773708
vn -0.656408 0.190302 -0.730009
vn -0.992421 0.115002 0.043301
vn -0.913231 0.336312 0.230008
vn -0.53818 0.218292 0.81407
vn -0.451096 0.430296 0.781893
vn 0.452786 0.197494 0.869472
vn 0.641083 0.276893 0.715781
vn 0.631617 -0.050701 -0.773621
vn 0.98186 -0.0026 0.189592
vn -0.180794 0.060398 -0.981665
vn 0.631617 -0.050701 -0.773621
vn -0.985053 0.030699 -0.169492
vn -0.663912 -0.0121 0.747713
vn 0.33741 -0.0076 0.941327
vn 0.971899 0 -0.2354
vn 0.524198 0 -0.851597
vn 0.971899 0 0.2354
vn 0.076498 0 -0.99707
vn -0.647913 0 -0.761715
vn -0.924649 0 -0.38082
vn -0.924649 0 0.38082
vn -0.647913 0 0.761715
vn 0.076498 0 0.99707
vn 0.524198 0 0.851597
vn -0.063001 0 -0.998014
vn -0.747625 0 -0.664122
vn 0.400583 0 -0.916261
vn -0.96863 0 -0.248508
vn -0.96863 0 -0.248508
vn -0.862638 0 0.505822
vn -0.747625 0 -0.664122
vn -0.535587 0 0.84448
vn 0.214505 0 0.976723
vn 0.637584 0 0.770381
vn 0.995206 0 0.0978
vn 0.929706 0 -0.368302
vn 0 -0 1
vn -0.367903 0.877407 0.307903
vn -0.943807 0.120101 0.307902
vn 0.57591 0.757313 0.307905
vn 0.943807 -0.120101 0.307902
vn 0.367903 -0.877407 0.307903
vn -0.57591 -0.757313 0.307905
vn -0.216907 0.250408 0.943529
vn -0.325311 -0.062602 0.943533
vn -0.325311 0.062602 0.943533
vn -0.108405 0.313014 0.943542
vn 0.108405 0.313014 0.943542
vn 0.216907 0.250408 0.943529
vn 0.325311 0.062602 0.943533
vn 0.325311 -0.062602 0.943533
vn 0.216907 -0.250408 0.943529
vn 0.108405 -0.313014 0.943542
vn -0.108405 -0.313014 0.943542
vn -0.216907 -0.250408 0.943529
vn 0.855477 0.164596 0.490987
vn 0.570316 0.658518 0.491014
vn 0.855477 -0.164596 0.490987
vn 0.285189 0.823168 0.490981
vn 0.285189 0.823168 0.490981
vn -0.285189 0.823168 0.490981
vn 0.570316 0.658518 0.491014
vn -0.570316 0.658518 0.491014
vn -0.855477 0.164596 0.490987
vn -0.855477 -0.164596 0.490987
vn -0.570316 -0.658518 0.491013
vn -0.285189 -0.823168 0.490981
vn 0.285189 -0.823168 0.490981
vn 0.570316 -0.658518 0.491013
vn 0.581972 0.111995 -0.805461
vn 0.387985 0.447983 -0.805468
vn 0.581972 -0.111995 -0.805461
vn 0.193994 0.559982 -0.805473
vn 0.193994 0.559982 -0.805473
vn -0.193994 0.559982 -0.805473
vn 0.387985 0.447983 -0.805468
vn -0.387985 0.447983 -0.805468
vn -0.581972 0.111995 -0.805461
vn -0.581972 -0.111995 -0.805461
vn -0.387985 -0.447983 -0.805469
vn -0.193994 -0.559981 -0.805473
vn 0.193994 -0.559981 -0.805473
vn 0.387985 -0.447983 -0.805469
vn 0.841672 0.235392 -0.485984
vn 0.453992 0.851585 -0.262095
vn 0.841671 -0.235392 -0.485984
vn 0.066198 0.997075 -0.038199
vn -0.561101 0.761702 0.324001
vn -0.800796 0.380798 0.462298
vn -0.800796 -0.380798 0.462298
vn -0.561101 -0.761702 0.324001
vn 0.066198 -0.997075 -0.038199
vn 0.453992 -0.851585 -0.262096
vt 0.6384 0.3603
vt 0.7601 0.455
vt 0.7308 0.8087
vt 0.6008 0.7967
vt 0.8727 0.3444
vt 0.8679 0.7986
vt 0.8791 1.3702
vt 0.7444 1.4894
vt 0.5998 1.5255
vt 0.9579 0.4316
vt 0.9511 0.761
vt 0.0891 0.3165
vt 0.1666 0.72
vt -0.0489 0.761
vt -0.0421 0.4316
vt 0.0897 1.2031
vt -0.0699 1.2701
vt 0.9301 1.2701
vt 0.3127 0.314
vt 0.3628 0.6873
vt 0.4542 0.1982
vt 0.4512 0.6859
vt 0.4572 1.2959
vt 0.3942 1.2154
vt 0.5471 0.372
vt 0.5271 0.7385
vt 0.5256 1.4297
vt 0.3012 1.8628
vt 0.3904 1.9116
vt -0.1209 1.3702
vt 0.0628 1.7305
vt 0.1478 1.7531
vt 0.2011 1.8684
vt 0.2625 1.9169
vt 0.0921 1.6068
vt 0.2248 1.5311
vt 0.2081 1.5016
vt 0.1597 1.6013
vt 0.3216 1.561
vt 0.3592 1.6663
vt 0.2773 1.6655
vt 0.2533 1.5428
vt 0.3821 1.8152
vt 0.2811 1.8185
vt -0.2998 -0.0436
vt -0.0717 0.009
vt 0.0419 0.3948
vt -0.3849 0.3783
vt 0.1105 0.0778
vt 0.1607 0.4197
vt 0.0873 0.7004
vt -0.2341 0.6972
vt -0.3271 0.7283
vt 0.22 0.0952
vt 0.2712 0.4459
vt 0.3241 0.0844
vt 0.3441 0.458
vt 0.4052 0.8319
vt 0.279 0.7175
vt 0.4168 0.0538
vt 0.4031 0.4341
vt 0.5047 0.0158
vt 0.4725 0.4009
vt 0.5614 0.7205
vt 0.4566 0.711
vt 0.5957 -0.0283
vt 0.5438 0.3816
vt 0.7002 -0.0436
vt 0.6151 0.3783
vt 0.6729 0.7283
vt 0.619 0.681
vt 0.8689 0.2585
vt 0.8407 0.7381
vt 0.6632 0.7977
vt 0.6644 0.4494
vt 0.8401 0.9807
vt 0.6728 0.9978
vt 0.4593 0.9509
vt 0.4388 0.7977
vt 0.4293 0.5042
vt 0.8568 0.8024
vt 0.6971 0.8134
vt 0.9319 0.3831
vt 0.7153 0.4729
vt 0.4937 0.5101
vt 0.4817 0.8017
vt 0.8701 0.1554
vt 0.7068 0.2047
vt 0.8732 0.0005
vt 0.6877 0.0848
vt 0.4618 0.1031
vt 0.4834 0.2364
vt 0.8461 0.056
vt 0.673 0.189
vt 0.4405 0.2325
vt 0.2164 0.639
vt 0.2017 0.4366
vt 0.2438 0.7401
vt 0.0821 0.505
vt 0.0544 0.4526
vt 0.0409 0.34
vt 0.2679 0.639
vt 0.2788 0.4366
vt 0.1173 0.34
vt 0.1071 0.4526
vt 0.267 0.2341
vt 0.2425 0.1328
vt 0.0818 0.1749
vt 0.1069 0.2273
vt 0.2156 0.2341
vt 0.0542 0.2273
vt 0.0069 0.3698
vt 0.0005 0.3078
vt 0.0272 0.3853
vt 0.0252 0.3078
vt 0.0467 0.3698
vt 0.0503 0.3078
vt 0.0467 0.2458
vt 0.0272 0.2303
vt 0.0069 0.2458
vt 0.3427 0.4715
vt 0.3264 0.6061
vt 0.4131 0.5459
vt 0.4288 0.4321
vt 0.2907 0.7523
vt 0.3981 0.6235
vt 0.5123 0.5432
vt 0.5137 0.4943
vt 0.5391 0.4171
vt 0.2477 0.5975
vt 0.2804 0.3952
vt 0.3899 0.44
vt 0.3858 0.5606
vt 0.2909 0.2477
vt 0.395 0.2934
vt 0.5249 0.3226
vt 0.5111 0.4437
vt 0.5158 0.5287
vt 0.304 0.7248
vt 0.3886 0.6252
vt 0.5054 0.5656
vt 0.6153 0.4888
vt 0.6404 0.4514
vt 0.6458 0.4512
vt 0.7523 0.3333
vt 0.621 0.4128
vt 0.6727 0.326
vt 0.6178 0.437
vt 0.6773 0.3739
vt 0.774 0.328
vt 0.81 0.2768
vt 0.7363 0.2889
vt 0.7584 0.2533
vt 0.7736 0.2874
vt 0.7877 0.2575
vt 0.6581 0.0721
vt 0.7261 0.1434
vt 0.6742 -0.1909
vt 0.7289 -0.0554
vt 0.7523 0.0696
vt 0.7536 0.1815
vt 0.8833 0.6129
vt 0.8991 0.5368
vt 1.1398 0.5661
vt 1.1187 0.6317
vt 0.9435 0.3357
vt 1.1793 0.4695
vt 0.7981 0.1949
vt 0.8252 0.1517
vt 0.8002 0.0933
vt 0.8316 -0.0103
vt 0.7648 0.197
vt 0.7681 0.1578
vt 0.7567 0.1515
vt 0.7541 0.0123
vt 0.7557 0.1373
vt 0.7529 0.0533
vt 0.777 0.1486
vt 0.7708 0.0632
vt 0.7213 -0.1648
vt 0.78 0.1852
vt 0.5116 0.5476
vt 0.4513 0.4242
vt 0.5584 0.6755
vt 0.226 0.9878
vt 0.2052 0.9284
vt 0.1698 0.8689
vt 0.5829 0.7598
vt 0.5963 0.8222
vt 0.2881 1.0732
vt 0.2729 1.0304
vt 0.4321 -0.1793
vt 0.53 -0.1683
vt 0.3865 0.3535
vt 0.3193 0.3093
vt 0.1559 0.7965
vt 0.1167 0.7427
vt 0.0007 1.0948
vt -0.0472 1.0795
vt -0.0202 1.131
vt -0.1793 1.1557
vt 0.0506 1.1437
vt -0.0114 1.1793
vt -0.0173 1.0113
vt -0.0931 1.0175
vt 0.2795 0.0095
vt 0.3221 -0.0684
vt 0.232 -0.0147
vt 0.2507 -0.2619
vt 0.2702 -0.2248
vt 0.2901 -0.2668
vt 0.0722 -0.0333
vt 0.2008 -0.1715
vt 0.0589 -0.3245
vt 0.1774 -0.3946
vt 0.2343 -0.4722
vt 0.2387 -0.3384
vt 0.433 -0.3784
vt 0.4354 -0.1285
vt 0.3397 -0.2177
vt 0.3464 -0.4029
vt 0.3015 -0.3351
vt 0.3056 -0.456
vt 0.2699 -0.4262
vt 0.2795 -0.4838
vt 0.2617 -0.4914
vt 0.2725 -0.7029
vt 0.2544 -0.4945
vt 0.2585 -0.6172
vt 0.2874 -0.4796
vt 0.2857 -0.6026
vt 0.7659 0.6972
vt 0.762 0.8625
vt 0.6958 0.8576
vt -0.064 0.8619
vt -0.238 0.8625
vt 0.933 0.7183
vt 0.9301 0.9995
vt 0.9406 0.2628
vt 0.9299 0.8969
vt 0.9995 0.8146
vt 0.1557 0.8528
vt 0.5211 0.8303
vt 0.51 0.9519
vt 0.5902 0.839
vt 0.5993 0.9597
vt 0.6701 0.7895
vt 0.6544 0.8026
vt 0.6845 0.8078
vt 0.6806 0.8343
vt 0.6768 0.8183
vt 0.6713 0.8278
vt 0.6924 0.9851
vt 0.6539 1.0199
vt 0.672 0.9144
vt 0.6851 0.9025
vt 0.6571 0.8952
vt 0.6706 0.8937
vt 0.6756 0.9093
vt 0.6795 0.9012
vt 0.689 0.8562
vt 0.6822 0.8687
vt 0.6503 0.8479
vt 0.6697 0.8592
vt 0.6708 0.846
vt 0.6669 0.8566
vt 0.6704 0.8606
vt 0.6646 0.8803
vt 0.6731 0.8785
vt 0.6698 0.8972
vt 0.6699 0.9045
vt 0.6664 0.8932
vt 0.6675 0.8721
vt 0.75 0.0005
vt 0.8905 0.2943
vt 0.7521 0.3797
vt 0.9064 0.0005
vt -0.0936 0.0005
vt 0.0796 0.4557
vt -0.1095 0.2943
vt 0.0936 0.0005
vt 0.2398 0.4462
vt 0.25 0.0005
vt 0.4064 0.2056
vt 0.4064 0.0005
vt 0.595 0.4272
vt 0.5936 0.0005
vt 0.9064 0.9995
vt 0.75 0.9995
vt 0.0936 0.9995
vt -0.0936 0.9995
vt 0.25 0.9995
vt 0.4064 0.9995
vt 0.5936 0.9995
vt 0.6093 0.3387
vt 0.6315 0.6613
vt 0.6093 0.6613
vt 0.6315 0.3387
vt 0.4046 0.6613
vt 0.4046 0.3387
vt 0.4563 0.6613
vt 0.4563 0.3387
vt 0.5332 0.6613
vt 0.5332 0.3387
vt 0.75 -0.9286
vt 0.9665 1.9286
vt 0.75 1.9286
vt 0.9665 -0.9286
vt -0.0335 -0.9286
vt 0.1546 1.9286
vt -0.0335 1.9286
vt 0.1546 -0.9286
vt 0.3454 1.9286
vt 0.3454 -0.9286
vt 0.5335 1.9286
vt 0.5335 -0.9286
vt 0.1264 0.4527
vt 0.1555 0.5109
vt 0.1846 0.4527
vt 0.0973 0.5109
vt 0.0682 0.4527
vt 0.0973 0.3945
vt 0.1555 0.3945
vt 0.3023 0.8044
vt 0.4782 0.4527
vt 0.1846 0.4527
vt 0.1555 0.5109
vt -0.0495 0.8044
vt 0.0973 0.5109
vt -0.2254 0.4527
vt 0.0682 0.4527
vt -0.0495 0.1009
vt 0.0973 0.3945
vt 0.3023 0.1009
vt 0.1555 0.3945
vt 0.75 -0.4417
vt 0.9064 -0.1527
vt 0.75 -0.1527
vt 0.9064 -0.4417
vt -0.0936 -0.4417
vt 0.0936 -0.1527
vt -0.0936 -0.1527
vt 0.0936 -0.4417
vt 0.25 -0.1527
vt 0.25 -0.4417
vt 0.4064 -0.1527
vt 0.4064 -0.4417
vt 0.5936 -0.1527
vt 0.5936 -0.4417
vt 0.75 1.1527
vt 0.9064 1.4417
vt 0.75 1.4417
vt 0.9064 1.1527
vt -0.0936 1.1527
vt 0.0936 1.4417
vt -0.0936 1.4417
vt 0.0936 1.1527
vt 0.25 1.4417
vt 0.25 1.1527
vt 0.4064 1.4417
vt 0.4064 1.1527
vt 0.5936 1.4417
vt 0.5936 1.1527
vt 0.6093 0.3387
vt 0.6315 0.6613
vt 0.6093 0.6613
vt 0.6315 0.3387
vt 0.4046 0.6613
vt 0.4046 0.3387
vt 0.4563 0.6613
vt 0.4563 0.3387
vt 0.5332 0.6613
vt 0.5332 0.3387
f 1/1/1 3/3/3 2/2/2
f 1/1/1 4/4/4 3/3/3
f 5/5/5 3/3/3 6/6/6
f 5/5/5 2/2/2 3/3/3
f 7/7/7 3/3/3 8/8/8
f 7/7/7 6/6/6 3/3/3
f 9/9/9 3/3/3 4/4/4
f 9/9/9 8/8/8 3/3/3
f 5/5/5 11/11/11 10/10/10
f 5/5/5 6/6/6 11/11/11
f 12/12/12 14/14/14 13/13/13
f 12/12/12 15/15/15 14/14/14
f 16/16/16 14/14/14 17/17/17
f 16/16/16 13/13/13 14/14/14
f 7/7/7 11/11/11 6/6/6
f 7/7/7 18/18/18 11/11/11
f 12/12/12 20/20/20 19/19/19
f 12/12/12 13/13/13 20/20/20
f 21/21/21 20/20/20 22/22/22
f 21/21/21 19/19/19 20/20/20
f 23/23/23 20/20/20 24/24/24
f 23/23/23 22/22/22 20/20/20
f 16/16/16 20/20/20 13/13/13
f 16/16/16 24/24/24 20/20/20
f 21/21/21 26/26/26 25/25/25
f 21/21/21 22/22/22 26/26/26
f 1/1/1 26/26/26 4/4/4
f 1/1/1 25/25/25 26/26/26
f 9/9/9 26/26/26 27/27/27
f 9/9/9 4/4/4 26/26/26
f 23/23/23 26/26/26 22/22/22
f 23/23/23 27/27/27 26/26/26
f 9/9/9 28/28/28 8/8/8
f 9/9/9 29/29/29 28/28/28
f 30/30/30 28/28/28 31/31/31
f 30/30/30 8/8/8 28/28/28
f 32/32/32 28/28/28 33/33/33
f 32/32/32 31/31/31 28/28/28
f 34/34/34 28/28/28 29/29/29
f 34/34/34 33/33/33 28/28/28
f 30/30/30 35/35/35 17/17/17
f 30/30/30 31/31/31 35/35/35
f 16/16/16 35/35/35 36/36/36
f 16/16/16 17/17/17 35/35/35
f 37/37/37 35/35/35 38/38/38
f 37/37/37 36/36/36 35/35/35
f 32/32/32 35/35/35 31/31/31
f 32/32/32 38/38/38 35/35/35
f 16/16/16 39/39/39 24/24/24
f 16/16/16 36/36/36 39/39/39
f 23/23/23 39/39/39 40/40/40
f 23/23/23 24/24/24 39/39/39
f 41/41/41 39/39/39 42/42/42
f 41/41/41 40/40/40 39/39/39
f 37/37/37 39/39/39 36/36/36
f 37/37/37 42/42/42 39/39/39
f 23/23/23 43/43/43 27/27/27
f 23/23/23 40/40/40 43/43/43
f 9/9/9 43/43/43 29/29/29
f 9/9/9 27/27/27 43/43/43
f 34/34/34 43/43/43 44/44/44
f 34/34/34 29/29/29 43/43/43
f 41/41/41 43/43/43 40/40/40
f 41/41/41 44/44/44 43/43/43
f 45/45/45 47/47/47 46/46/46
f 45/45/45 48/48/48 47/47/47
f 49/49/49 47/47/47 50/50/50
f 49/49/49 46/46/46 47/47/47
f 51/51/51 47/47/47 52/52/52
f 51/51/51 50/50/50 47/47/47
f 53/53/53 47/47/47 48/48/48
f 53/53/53 52/52/52 47/47/47
f 49/49/49 55/55/55 54/54/54
f 49/49/49 50/50/50 55/55/55
f 56/56/56 55/55/55 57/57/57
f 56/56/56 54/54/54 55/55/55
f 58/58/58 55/55/55 59/59/59
f 58/58/58 57/57/57 55/55/55
f 51/51/51 55/55/55 50/50/50
f 51/51/51 59/59/59 55/55/55
f 56/56/56 61/61/61 60/60/60
f 56/56/56 57/57/57 61/61/61
f 62/62/62 61/61/61 63/63/63
f 62/62/62 60/60/60 61/61/61
f 64/64/64 61/61/61 65/65/65
f 64/64/64 63/63/63 61/61/61
f 58/58/58 61/61/61 57/57/57
f 58/58/58 65/65/65 61/61/61
f 62/62/62 67/67/67 66/66/66
f 62/62/62 63/63/63 67/67/67
f 68/68/68 67/67/67 69/69/69
f 68/68/68 66/66/66 67/67/67
f 70/70/70 67/67/67 71/71/71
f 70/70/70 69/69/69 67/67/67
f 64/64/64 67/67/67 63/63/63
f 64/64/64 71/71/71 67/67/67
f 72/72/72 74/74/74 73/73/73
f 72/72/72 75/75/75 74/74/74
f 76/76/76 74/74/74 77/77/77
f 76/76/76 73/73/73 74/74/74
f 78/78/78 74/74/74 79/79/79
f 78/78/78 77/77/77 74/74/74
f 80/80/80 74/74/74 75/75/75
f 80/80/80 79/79/79 74/74/74
f 76/76/76 82/82/82 81/81/81
f 76/76/76 77/77/77 82/82/82
f 83/83/83 82/82/82 84/84/84
f 83/83/83 81/81/81 82/82/82
f 85/85/85 82/82/82 86/86/86
f 85/85/85 84/84/84 82/82/82
f 78/78/78 82/82/82 77/77/77
f 78/78/78 86/86/86 82/82/82
f 83/83/83 88/88/88 87/87/87
f 83/83/83 84/84/84 88/88/88
f 89/89/89 88/88/88 90/90/90
f 89/89/89 87/87/87 88/88/88
f 91/91/91 88/88/88 92/92/92
f 91/91/91 90/90/90 88/88/88
f 85/85/85 88/88/88 84/84/84
f 85/85/85 92/92/92 88/88/88
f 89/89/89 94/94/94 93/93/93
f 89/89/89 90/90/90 94/94/94
f 72/72/72 94/94/94 75/75/75
f 72/72/72 93/93/93 94/94/94
f 80/80/80 94/94/94 95/95/95
f 80/80/80 75/75/75 94/94/94
f 91/91/91 94/94/94 90/90/90
f 91/91/91 95/95/95 94/94/94
f 80/80/80 96/96/96 79/79/79
f 80/80/80 97/97/97 96/96/96
f 78/78/78 96/96/96 98/98/98
f 78/78/78 79/79/79 96/96/96
f 99/99/99 96/96/96 100/100/100
f 99/99/99 98/98/98 96/96/96
f 101/101/101 96/96/96 97/97/97
f 101/101/101 100/100/100 96/96/96
f 78/78/78 102/102/102 86/86/86
f 78/78/78 98/98/98 102/102/102
f 85/85/85 102/102/102 103/103/103
f 85/85/85 86/86/86 102/102/102
f 104/104/104 102/102/102 105/105/105
f 104/104/104 103/103/103 102/102/102
f 99/99/99 102/102/102 98/98/98
f 99/99/99 105/105/105 102/102/102
f 85/85/85 106/106/106 92/92/92
f 85/85/85 103/103/103 106/106/106
f 91/91/91 106/106/106 107/107/107
f 91/91/91 92/92/92 106/106/106
f 108/108/108 106/106/106 109/109/109
f 108/108/108 107/107/107 106/106/106
f 104/104/104 106/106/106 103/103/103
f 104/104/104 109/109/109 106/106/106
f 91/91/91 110/110/110 95/95/95
f 91/91/91 107/107/107 110/110/110
f 80/80/80 110/110/110 97/97/97
f 80/80/80 95/95/95 110/110/110
f 101/101/101 110/110/110 111/111/111
f 101/101/101 97/97/97 110/110/110
f 108/108/108 110/110/110 107/107/107
f 108/108/108 111/111/111 110/110/110
f 101/101/101 112/112/112 100/100/100
f 101/101/101 113/113/113 112/112/112
f 99/99/99 112/112/112 114/114/114
f 99/99/99 100/100/100 112/112/112
f 115/115/115 112/112/112 113/113/113
f 115/115/115 114/114/114 112/112/112
f 99/99/99 116/116/116 105/105/105
f 99/99/99 114/114/114 116/116/116
f 104/104/104 116/116/116 117/117/117
f 104/104/104 105/105/105 116/116/116
f 115/115/115 116/116/116 114/114/114
f 115/115/115 117/117/117 116/116/116
f 104/104/104 118/118/118 109/109/109
f 104/104/104 117/117/117 118/118/118
f 108/108/108 118/118/118 119/119/119
f 108/108/108 109/109/109 118/118/118
f 115/115/115 118/118/118 117/117/117
f 115/115/115 119/119/119 118/118/118
f 108/108/108 120/120/120 111/111/111
f 108/108/108 119/119/119 120/120/120
f 101/101/101 120/120/120 113/113/113
f 101/101/101 111/111/111 120/120/120
f 115/115/115 120/120/120 119/119/119
f 115/115/115 113/113/113 120/120/120
f 121/121/121 123/123/123 122/122/122
f 121/121/121 124/124/124 123/123/123
f 125/125/125 123/123/123 126/126/126
f 125/125/125 122/122/122 123/123/123
f 127/127/127 123/123/123 128/128/128
f 127/127/127 126/126/126 123/123/123
f 129/129/129 123/123/123 124/124/124
f 129/129/129 128/128/128 123/123/123
f 130/130/130 132/132/132 131/131/131
f 130/130/130 133/133/133 132/132/132
f 134/134/134 132/132/132 135/135/135
f 134/134/134 131/131/131 132/132/132
f 136/136/136 132/132/132 137/137/137
f 136/136/136 135/135/135 132/132/132
f 138/138/138 132/132/132 133/133/133
f 138/138/138 137/137/137 132/132/132
f 125/125/125 140/140/140 139/139/139
f 125/125/125 126/126/126 140/140/140
f 130/130/130 140/140/140 133/133/133
f 130/130/130 139/139/139 140/140/140
f 138/138/138 140/140/140 141/141/141
f 138/138/138 133/133/133 140/140/140
f 127/127/127 140/140/140 126/126/126
f 127/127/127 141/141/141 140/140/140
f 127/127/127 142/142/142 141/141/141
f 127/127/127 143/143/143 142/142/142
f 138/138/138 142/142/142 144/144/144
f 138/138/138 141/141/141 142/142/142
f 145/145/145 142/142/142 143/143/143
f 145/145/145 144/144/144 142/142/142
f 138/138/138 146/146/146 137/137/137
f 138/138/138 144/144/144 146/146/146
f 136/136/136 146/146/146 147/147/147
f 136/136/136 137/137/137 146/146/146
f 145/145/145 146/146/146 144/144/144
f 145/145/145 147/147/147 146/146/146
f 129/129/129 148/148/148 128/128/128
f 129/129/129 149/149/149 148/148/148
f 127/127/127 148/148/148 143/143/143
f 127/127/127 128/128/128 148/148/148
f 145/145/145 148/148/148 149/149/149
f 145/145/145 143/143/143 148/148/148
f 5/5/5 150/150/150 2/2/2
f 5/5/5 151/151/151 150/150/150
f 1/1/1 150/150/150 152/152/152
f 1/1/1 2/2/2 150/150/150
f 153/153/153 150/150/150 154/154/154
f 153/153/153 152/152/152 150/150/150
f 155/155/155 150/150/150 151/151/151
f 155/155/155 154/154/154 150/150/150
f 1/1/1 157/157/157 156/156/156
f 1/1/1 152/152/152 157/157/157
f 158/158/158 157/157/157 159/159/159
f 158/158/158 156/156/156 157/157/157
f 160/160/160 157/157/157 161/161/161
f 160/160/160 159/159/159 157/157/157
f 153/153/153 157/157/157 152/152/152
f 153/153/153 161/161/161 157/157/157
f 162/162/162 164/164/164 163/163/163
f 162/162/162 165/165/165 164/164/164
f 166/166/166 164/164/164 167/167/167
f 166/166/166 163/163/163 164/164/164
f 155/155/155 169/169/169 168/168/168
f 155/155/155 151/151/151 169/169/169
f 170/170/170 169/169/169 171/171/171
f 170/170/170 168/168/168 169/169/169
f 155/155/155 172/172/172 154/154/154
f 155/155/155 173/173/173 172/172/172
f 153/153/153 172/172/172 174/174/174
f 153/153/153 154/154/154 172/172/172
f 175/175/175 172/172/172 173/173/173
f 175/175/175 174/174/174 172/172/172
f 153/153/153 176/176/176 161/161/161
f 153/153/153 174/174/174 176/176/176
f 160/160/160 176/176/176 177/177/177
f 160/160/160 161/161/161 176/176/176
f 175/175/175 176/176/176 174/174/174
f 175/175/175 177/177/177 176/176/176
f 170/170/170 178/178/178 168/168/168
f 170/170/170 179/179/179 178/178/178
f 155/155/155 178/178/178 173/173/173
f 155/155/155 168/168/168 178/178/178
f 175/175/175 178/178/178 179/179/179
f 175/175/175 173/173/173 178/178/178
f 180/180/180 182/182/182 181/181/181
f 180/180/180 183/183/183 182/182/182
f 166/166/166 182/182/182 184/184/184
f 166/166/166 181/181/181 182/182/182
f 185/185/185 182/182/182 186/186/186
f 185/185/185 184/184/184 182/182/182
f 187/187/187 182/182/182 183/183/183
f 187/187/187 186/186/186 182/182/182
f 166/166/166 188/188/188 163/163/163
f 166/166/166 184/184/184 188/188/188
f 162/162/162 188/188/188 189/189/189
f 162/162/162 163/163/163 188/188/188
f 190/190/190 188/188/188 191/191/191
f 190/190/190 189/189/189 188/188/188
f 185/185/185 188/188/188 184/184/184
f 185/185/185 191/191/191 188/188/188
f 192/192/192 194/194/194 193/193/193
f 192/192/192 195/195/195 194/194/194
f 180/180/180 194/194/194 183/183/183
f 180/180/180 193/193/193 194/194/194
f 187/187/187 194/194/194 196/196/196
f 187/187/187 183/183/183 194/194/194
f 197/197/197 194/194/194 195/195/195
f 197/197/197 196/196/196 194/194/194
f 187/187/187 198/198/198 186/186/186
f 187/187/187 199/199/199 198/198/198
f 185/185/185 198/198/198 200/200/200
f 185/185/185 186/186/186 198/198/198
f 201/201/201 198/198/198 199/199/199
f 201/201/201 200/200/200 198/198/198
f 185/185/185 202/202/202 191/191/191
f 185/185/185 200/200/200 202/202/202
f 190/190/190 202/202/202 203/203/203
f 190/190/190 191/191/191 202/202/202
f 201/201/201 202/202/202 200/200/200
f 201/201/201 203/203/203 202/202/202
f 197/197/197 204/204/204 196/196/196
f 197/197/197 205/205/205 204/204/204
f 187/187/187 204/204/204 199/199/199
f 187/187/187 196/196/196 204/204/204
f 201/201/201 204/204/204 205/205/205
f 201/201/201 199/199/199 204/204/204
f 21/21/21 206/206/206 19/19/19
f 21/21/21 207/207/207 206/206/206
f 12/12/12 206/206/206 208/208/208
f 12/12/12 19/19/19 206/206/206
f 209/209/209 206/206/206 210/210/210
f 209/209/209 208/208/208 206/206/206
f 211/211/211 206/206/206 207/207/207
f 211/211/211 210/210/210 206/206/206
f 12/12/12 213/213/213 212/212/212
f 12/12/12 208/208/208 213/213/213
f 214/214/214 213/213/213 215/215/215
f 214/214/214 212/212/212 213/213/213
f 216/216/216 213/213/213 217/217/217
f 216/216/216 215/215/215 213/213/213
f 209/209/209 213/213/213 208/208/208
f 209/209/209 217/217/217 213/213/213
f 218/218/218 220/220/220 219/219/219
f 218/218/218 221/221/221 220/220/220
f 21/21/21 220/220/220 207/207/207
f 21/21/21 219/219/219 220/220/220
f 211/211/211 220/220/220 222/222/222
f 211/211/211 207/207/207 220/220/220
f 223/223/223 220/220/220 221/221/221
f 223/223/223 222/222/222 220/220/220
f 211/211/211 224/224/224 210/210/210
f 211/211/211 225/225/225 224/224/224
f 209/209/209 224/224/224 226/226/226
f 209/209/209 210/210/210 224/224/224
f 227/227/227 224/224/224 225/225/225
f 227/227/227 226/226/226 224/224/224
f 209/209/209 228/228/228 217/217/217
f 209/209/209 226/226/226 228/228/228
f 216/216/216 228/228/228 229/229/229
f 216/216/216 217/217/217 228/228/228
f 227/227/227 228/228/228 226/226/226
f 227/227/227 229/229/229 228/228/228
f 223/223/223 230/230/230 222/222/222
f 223/223/223 231/231/231 230/230/230
f 211/211/211 230/230/230 225/225/225
f 211/211/211 222/222/222 230/230/230
f 227/227/227 230/230/230 231/231/231
f 227/227/227 225/225/225 230/230/230
f 70/70/70 233/233/233 232/232/232
f 70/70/70 234/234/234 233/233/233
f 51/51/51 236/236/236 235/235/235
f 51/51/51 52/52/52 236/236/236
f 76/76/76 237/237/237 73/73/73
f 76/76/76 238/238/238 237/237/237
f 72/72/72 237/237/237 239/239/239
f 72/72/72 73/73/73 237/237/237
f 83/83/83 240/240/240 81/81/81
f 83/83/83 241/241/241 240/240/240
f 76/76/76 240/240/240 238/238/238
f 76/76/76 81/81/81 240/240/240
f 51/51/51 242/242/242 59/59/59
f 51/51/51 235/235/235 242/242/242
f 58/58/58 243/243/243 65/65/65
f 58/58/58 244/244/244 243/243/243
f 64/64/64 243/243/243 245/245/245
f 64/64/64 65/65/65 243/243/243
f 246/246/246 243/243/243 244/244/244
f 246/246/246 245/245/245 243/243/243
f 64/64/64 247/247/247 71/71/71
f 64/64/64 248/248/248 247/247/247
f 70/70/70 247/247/247 249/249/249
f 70/70/70 71/71/71 247/247/247
f 250/250/250 247/247/247 251/251/251
f 250/250/250 249/249/249 247/247/247
f 252/252/252 247/247/247 248/248/248
f 252/252/252 251/251/251 247/247/247
f 253/253/253 255/255/255 254/254/254
f 253/253/253 256/256/256 255/255/255
f 246/246/246 255/255/255 257/257/257
f 246/246/246 254/254/254 255/255/255
f 258/258/258 255/255/255 259/259/259
f 258/258/258 257/257/257 255/255/255
f 260/260/260 255/255/255 256/256/256
f 260/260/260 259/259/259 255/255/255
f 70/70/70 261/261/261 234/234/234
f 70/70/70 249/249/249 261/261/261
f 253/253/253 261/261/261 256/256/256
f 253/253/253 234/234/234 261/261/261
f 260/260/260 261/261/261 262/262/262
f 260/260/260 256/256/256 261/261/261
f 250/250/250 261/261/261 249/249/249
f 250/250/250 262/262/262 261/261/261
f 246/246/246 263/263/263 245/245/245
f 246/246/246 257/257/257 263/263/263
f 64/64/64 263/263/263 248/248/248
f 64/64/64 245/245/245 263/263/263
f 252/252/252 263/263/263 264/264/264
f 252/252/252 248/248/248 263/263/263
f 258/258/258 263/263/263 257/257/257
f 258/258/258 264/264/264 263/263/263
f 252/252/252 265/265/265 251/251/251
f 252/252/252 266/266/266 265/265/265
f 250/250/250 265/265/265 267/267/267
f 250/250/250 251/251/251 265/265/265
f 268/268/268 265/265/265 266/266/266
f 268/268/268 267/267/267 265/265/265
f 250/250/250 269/269/269 262/262/262
f 250/250/250 267/267/267 269/269/269
f 260/260/260 269/269/269 270/270/270
f 260/260/260 262/262/262 269/269/269
f 268/268/268 269/269/269 267/267/267
f 268/268/268 270/270/270 269/269/269
f 260/260/260 271/271/271 259/259/259
f 260/260/260 270/270/270 271/271/271
f 258/258/258 271/271/271 272/272/272
f 258/258/258 259/259/259 271/271/271
f 268/268/268 271/271/271 270/270/270
f 268/268/268 272/272/272 271/271/271
f 258/258/258 273/273/273 264/264/264
f 258/258/258 272/272/272 273/273/273
f 252/252/252 273/273/273 266/266/266
f 252/252/252 264/264/264 273/273/273
f 268/268/268 273/273/273 272/272/272
f 268/268/268 266/266/266 273/273/273
f 274/274/274 276/276/276 275/275/275
f 274/274/274 275/275/275 277/277/277
f 278/278/278 280/280/280 279/279/279
f 278/278/278 279/279/279 281/281/281
f 281/281/281 279/279/279 282/282/282
f 281/281/281 282/282/282 283/283/283
f 283/283/283 282/282/282 284/284/284
f 283/283/283 284/284/284 285/285/285
f 285/285/285 284/284/284 286/286/286
f 285/285/285 286/286/286 287/287/287
f 287/287/287 286/286/286 276/276/276
f 287/287/287 276/276/276 274/274/274
f 276/276/276 288/288/288 275/275/275
f 288/288/288 276/276/276 289/289/289
f 280/280/280 290/290/290 279/279/279
f 290/290/290 280/280/280 291/291/291
f 279/279/279 292/292/292 282/282/282
f 292/292/292 279/279/279 290/290/290
f 282/282/282 293/293/293 284/284/284
f 293/293/293 282/282/282 292/292/292
f 284/284/284 294/294/294 286/286/286
f 294/294/294 284/284/284 293/293/293
f 286/286/286 289/289/289 276/276/276
f 289/289/289 286/286/286 294/294/294
f 295/295/295 297/297/297 296/296/296
f 295/295/295 296/296/296 298/298/298
f 298/298/298 296/296/296 299/299/299
f 298/298/298 299/299/299 300/300/300
f 300/300/300 299/299/299 301/301/301
f 300/300/300 301/301/301 302/302/302
f 302/302/302 301/301/301 303/303/303
f 302/302/302 303/303/303 304/304/304
f 304/304/304 303/303/303 297/297/297
f 304/304/304 297/297/297 295/295/295
f 305/305/305 307/307/307 306/306/306
f 305/305/305 306/306/306 308/308/308
f 309/309/309 311/311/311 310/310/310
f 309/309/309 310/310/310 312/312/312
f 312/312/312 310/310/310 313/313/313
f 312/312/312 313/313/313 314/314/314
f 314/314/314 313/313/313 315/315/315
f 314/314/314 315/315/315 316/316/316
f 316/316/316 315/315/315 307/307/307
f 316/316/316 307/307/307 305/305/305
f 317/317/317 319/319/319 318/318/318
f 317/317/317 318/318/318 320/320/320
f 317/317/317 320/320/320 321/321/321
f 317/317/317 321/321/321 322/322/322
f 317/317/317 322/322/322 323/323/323
f 317/317/317 323/323/323 319/319/319
f 324/324/324 326/326/326 325/325/325
f 326/326/326 324/324/324 327/327/327
f 328/328/328 327/327/327 324/324/324
f 327/327/327 328/328/328 329/329/329
f 330/330/330 329/329/329 328/328/328
f 329/329/329 330/330/330 331/331/331
f 332/332/332 331/331/331 330/330/330
f 331/331/331 332/332/332 333/333/333
f 334/334/334 333/333/333 332/332/332
f 333/333/333 334/334/334 335/335/335
f 325/325/325 335/335/335 334/334/334
f 335/335/335 325/325/325 326/326/326
f 336/336/336 338/338/338 337/337/337
f 336/336/336 337/337/337 339/339/339
f 340/340/340 342/342/342 341/341/341
f 340/340/340 341/341/341 343/343/343
f 343/343/343 341/341/341 344/344/344
f 343/343/343 344/344/344 345/345/345
f 345/345/345 344/344/344 346/346/346
f 345/345/345 346/346/346 347/347/347
f 347/347/347 346/346/346 348/348/348
f 347/347/347 348/348/348 349/349/349
f 349/349/349 348/348/348 338/338/338
f 349/349/349 338/338/338 336/336/336
f 350/350/350 352/352/352 351/351/351
f 350/350/350 351/351/351 353/353/353
f 354/354/354 356/356/356 355/355/355
f 354/354/354 355/355/355 357/357/357
f 357/357/357 355/355/355 358/358/358
f 357/357/357 358/358/358 359/359/359
f 359/359/359 358/358/358 360/360/360
f 359/359/359 360/360/360 361/361/361
f 361/361/361 360/360/360 362/362/362
f 361/361/361 362/362/362 363/363/363
f 363/363/363 362/362/362 352/352/352
f 363/363/363 352/352/352 350/350/350
f 364/364/364 366/366/366 365/365/365
f 364/364/364 365/365/365 367/367/367
f 367/367/367 365/365/365 368/368/368
f 367/367/367 368/368/368 369/369/369
f 369/369/369 368/368/368 370/370/370
f 369/369/369 370/370/370 371/371/371
f 371/371/371 370/370/370 372/372/372
f 371/371/371 372/372/372 373/373/373
f 373/373/373 372/372/372 366/366/366
f 373/373/373 366/366/366 364/364/364

g wood01
# texture: wood01.jpg
v 14.9929 69.787 93.0665
v 7.1716 69.787 79.5195
v -8.4711 69.787 106.6135
v -8.4711 69.787 79.5195
v -16.2925 69.787 93.0665
v 7.1716 69.787 106.6135
v 180.619 112.5438 8.4506
v 168.179 112.5438 12.4926
v 168.179 112.5438 25.5728
v 180.619 112.5438 29.6148
v 188.3074 112.5438 19.0327
v -160.3271 173.0159 46.423
v -158.5067 173.0159 59.376
v -145.6252 173.0159 61.6474
v -139.4844 173.0159 50.0982
v -148.5707 173.0159 40.689
v -189.6914 157.4393 17.57319
v -163.0683 181.7091 -14.4121
v -177.0805 157.4393 -14.41211
v -169.3738 192.6305 17.5732
v -135.0439 181.7091 -14.4121
v -128.7385 192.6305 17.5732
v -121.0318 157.4393 -14.41211
v -108.4208 157.4393 17.57319
v -135.0439 133.1695 -14.41209
v -128.7385 122.2481 17.5732
v -163.0683 133.1695 -14.41209
v -169.3738 122.2481 17.5732
v -169.3738 192.6305 -46.3973
v -189.6914 157.4393 -46.3973
v -128.7385 192.6305 -46.3973
v -108.4208 157.4393 -46.3974
v -128.7385 122.2481 -46.3974
v -169.3738 122.2481 -46.3974
v -149.0561 157.4393 -79.9819
v -189.6914 157.4393 -46.3973
v -169.3738 192.6305 -46.3973
v -169.3738 192.6305 -46.3973
v -128.7385 192.6305 -46.3973
v -108.4208 157.4393 -46.3974
v -128.7385 122.2481 -46.3974
v -169.3738 122.2481 -46.3974
v -152.417 163.2605 33.1226
v -155.7778 157.4393 33.1226
v -155.7778 157.4393 88.80148
v -152.417 163.2605 88.80148
v -145.6953 163.2605 33.1226
v -145.6953 163.2605 88.80148
v -142.3344 157.4393 33.1226
v -142.3344 157.4393 88.80148
v -145.6953 151.6182 33.1226
v -145.6953 151.6182 88.80148
v -152.417 151.6182 33.1226
v -152.417 151.6182 88.80148
v -149.0947 163.0807 66.63811
v -149.0947 229.163 66.63811
v -125.1434 221.5381 52.45958
v -125.1434 170.7056 52.45956
v -148.217 163.0807 71.2887
v -125.1434 170.7056 52.45956
v -125.1434 221.5381 52.45958
v -148.217 229.163 71.2887
v -125.1434 170.7056 52.45956
v -148.217 163.0807 71.2887
v -149.0947 163.0807 66.63811
v -149.0947 229.163 66.63811
v -149.0947 229.163 66.63811
v -149.0947 163.0807 66.63811
v -150.6246 163.0807 70.34528
v -150.6246 229.163 70.34529
v -148.217 163.0807 71.2887
v -148.217 229.163 71.2887
v -150.6246 163.0807 70.34528
v -150.6246 229.163 70.34529
v -145.0179 153.8969 66.63811
v -85.127 125.9693 66.63809
v -102.1597 107.4845 52.45959
v -148.2297 128.9672 52.45958
v -145.3888 153.1015 71.2887
v -148.2297 128.9672 52.45958
v -102.1597 107.4845 52.45959
v -85.4979 125.1738 71.2887
v -148.2297 128.9672 52.45958
v -145.3888 153.1015 71.2887
v -145.0179 153.8969 66.63811
v -102.1597 107.4845 52.45959
v -85.127 125.9693 66.63809
v -85.4979 125.1738 71.2887
v -85.127 125.9693 66.63809
v -145.0179 153.8969 66.63811
v -144.3714 155.2834 70.34528
v -84.4804 127.3559 70.34529
v -145.3888 153.1015 71.2887
v -85.4979 125.1738 71.2887
v -84.4804 127.3559 70.34529
v -152.7899 152.4422 66.63811
v -206.9214 114.539 66.63809
v -214.4134 138.5322 52.45958
v -172.7738 167.6886 52.45958
v -153.2934 153.1612 71.2887
v -172.7738 167.6886 52.45958
v -214.4134 138.5322 52.45958
v -207.4248 115.2579 71.2887
v -172.7738 167.6886 52.45958
v -153.2934 153.1612 71.2887
v -152.7899 152.4422 66.63811
v -206.9214 114.539 66.63809
v -152.7899 152.4422 66.63811
v -151.9124 151.189 70.34528
v -206.0439 113.2858 70.34529
v -25.4113 263.9285 -23.4628
v -25.4387 298.6636 -23.91531
v -13.3659 294.8203 -29.2887
v -13.3659 269.1978 -29.2887
v -25.1585 263.9285 -22.4556
v -13.3659 269.1978 -29.2887
v -13.3659 294.8203 -29.2887
v -24.9963 298.6636 -22.1527
v -13.3659 269.1978 -29.2887
v -25.1585 263.9285 -22.4556
v -25.4113 263.9285 -23.4628
v -25.4387 298.6636 -23.91531
v -25.4387 298.6636 -23.91531
v -25.4113 263.9285 -23.4628
v -25.852 263.9285 -22.6599
v -26.2099 298.6636 -22.51031
v -25.1585 263.9285 -22.4556
v -24.9963 298.6636 -22.1527
v -25.852 263.9285 -22.6599
v -26.2099 298.6636 -22.51031
v -24.2371 261.2833 -23.4628
v 6.804501 246.6483 -23.91531
v -1.780899 237.3309 -29.2888
v -25.0027 248.1594 -29.2887
v -24.3439 261.0541 -22.4556
v -25.0027 248.1594 -29.2887
v -1.780899 237.3309 -29.2888
v 6.6175 246.2473 -22.1527
v -25.0027 248.1594 -29.2887
v -24.3439 261.0541 -22.4556
v -24.2371 261.2833 -23.4628
v -1.780899 237.3309 -29.2888
v 6.804501 246.6483 -23.91531
v 6.6175 246.2473 -22.1527
v 6.804501 246.6483 -23.91531
v -24.2371 261.2833 -23.4628
v -24.0508 261.6826 -22.6599
v 7.130402 247.3472 -22.51031
v -24.3439 261.0541 -22.4556
v 6.6175 246.2473 -22.1527
v 7.130402 247.3472 -22.51031
v -26.4757 260.8643 -23.4628
v -54.5866 240.8868 -23.9153
v -58.363 252.9807 -29.2887
v -37.3743 267.6771 -29.2887
v -26.6207 261.0714 -22.4556
v -37.3743 267.6771 -29.2887
v -58.363 252.9807 -29.2887
v -54.8403 241.2492 -22.1527
v -37.3743 267.6771 -29.2887
v -26.6207 261.0714 -22.4556
v -26.4757 260.8643 -23.4628
v -54.5866 240.8868 -23.9153
v -26.4757 260.8643 -23.4628
v -26.2229 260.5033 -22.6599
v -54.1443 240.2551 -22.5103
v 60.5895 200.4062 49.46709
v 81.7159 200.4062 36.6318
v 71.1527 218.7022 36.6318
v 71.1527 218.7022 36.6318
v 50.0263 218.7022 36.6318
v 39.4631 200.4062 36.6318
v 50.0263 182.1102 36.63178
v 71.1527 182.1102 36.63178
v 76.2322 200.4062 -17.4911
v 68.4109 213.9531 -17.4911
v 65.4475 208.8204 24.76039
v 70.3055 200.4062 24.76039
v 52.7682 213.9531 -17.4911
v 55.7316 208.8204 24.76039
v 44.9468 200.4062 -17.4911
v 50.8736 200.4062 24.76039
v 52.7682 186.8592 -17.491
v 55.7316 191.9919 24.76038
v 68.4109 186.8592 -17.491
v 65.4475 191.9919 24.76038
v 168.816 96.6668 9.380592
v 136.731 120.736 1.946106
v 128.0969 96.6668 6.930992
v 157.5755 130.7058 -10.0885
v 178.42 120.736 -22.1231
v 157.5755 130.7058 -10.0885
v 187.0541 96.66679 -27.10791
v 178.42 72.59769 -22.12311
v 157.5755 62.62789 -10.0885
v 136.731 72.5977 1.946083
v 128.0969 96.6668 6.930992
v 125.4453 114.2356 -30.6022
v 119.143 96.66679 -26.9636
v 136.731 120.736 1.946106
v 140.6602 121.5128 -39.3866
v 157.5755 130.7058 -10.0885
v 155.8752 114.2356 -48.17101
v 178.42 120.736 -22.1231
v 162.1774 96.66679 -51.80961
v 187.0541 96.66679 -27.10791
v 155.8752 79.09809 -48.171
v 178.42 72.59769 -22.12311
v 140.6602 71.8209 -39.3866
v 157.5755 62.62789 -10.0885
v 125.4453 79.0981 -30.60221
v 136.731 72.5977 1.946083
v 102.9004 120.736 -56.6501
v 94.2664 96.6668 -51.6653
v 123.7449 130.7058 -68.6847
v 144.5894 120.736 -80.7193
v 153.2235 96.6668 -85.7042
v 144.5894 72.5977 -80.7193
v 123.7449 62.6279 -68.6847
v 102.9004 72.5977 -56.6501
v 112.5045 96.6668 -88.1538
v 94.2664 96.6668 -51.6653
v 102.9004 120.736 -56.6501
v 123.7449 130.7058 -68.6847
v 123.7449 130.7058 -68.6847
v 144.5894 120.736 -80.7193
v 153.2235 96.6668 -85.7042
v 144.5894 72.5977 -80.7193
v 123.7449 62.6279 -68.6847
v 102.9004 72.5977 -56.6501
v 186.3143 103.5269 35.22408
v 180.3621 101.2938 38.66058
v 180.3621 94.06709 38.66058
v 186.3143 91.83399 35.2241
v 189.9929 97.68049 33.1002
v 8.3096 48.4221 94.2104
v 2.045 96.44329 85.5878
v 8.3096 96.44329 94.2104
v 2.045 48.4221 85.5878
v -8.0915 96.44329 88.8814
v -8.0915 48.4221 88.8814
v -8.0915 96.44329 99.5395
v -8.0915 48.4221 99.5395
v 2.045 96.44329 102.833
v 2.045 48.4221 102.833
v 8.3096 96.44329 94.2104
vn 0 1 -0
vn 0 1 -0
vn 0 1 -0
vn 0 1 -0
vn 0 1 -0
vn 0 1 -0
vn 0 1 -0
vn 0 1 -0
vn 0 1 -0
vn 0 1 -0
vn 0 1 -0
vn 0 1 -0
vn 0 1 -0
vn 0 1 -0
vn 0 1 -0
vn 0 1 -0
vn -0.873029 0.168006 -0.457815
vn -0.500011 0.866019 0
vn -1 0 -0
vn -0.290996 0.840088 -0.457793
vn 0.500011 0.866019 0
vn 0.581993 0.672092 -0.457795
vn 1 0 -0
vn 0.873029 -0.168006 -0.457815
vn 0.500011 -0.866019 -0
vn 0.290996 -0.840087 -0.457793
vn -0.500011 -0.866019 -0
vn -0.581993 -0.672092 -0.457795
vn -0.581993 0.672092 0.457795
vn -0.873029 -0.168006 0.457815
vn 0.290996 0.840087 0.457793
vn 0.873029 0.168006 0.457815
vn 0.581993 -0.672092 0.457795
vn -0.290996 -0.840088 0.457793
vn 0 0 -1
vn -0.527786 0 -0.849377
vn -0.263892 0.457086 -0.849373
vn -0.263892 0.457086 -0.849373
vn 0.263892 0.457086 -0.849373
vn 0.527786 0 -0.849377
vn 0.263892 -0.457085 -0.849373
vn -0.263892 -0.457085 -0.849373
vn -0.654694 0.755894 0
vn -0.981978 -0.188996 -0
vn -0.943807 0.120101 0.307902
vn -0.367903 0.877407 0.307903
vn 0.327306 0.944918 0
vn 0.57591 0.757313 0.307905
vn 0.981978 0.188996 -0
vn 0.943807 -0.120101 0.307902
vn 0.654694 -0.755894 -0
vn 0.367903 -0.877407 0.307903
vn -0.327306 -0.944918 -0
vn -0.57591 -0.757313 0.307905
vn -0.406602 0 -0.913605
vn -0.406602 0 -0.913605
vn -0.406602 0 -0.913605
vn -0.406602 0 -0.913605
vn 0.523015 0 0.852324
vn 0.523015 0 0.852324
vn 0.571488 0.415091 0.707885
vn 0.35361 0.868525 0.34731
vn 0.274597 -0.959088 -0.068899
vn 0.274597 -0.959088 -0.068899
vn 0.274597 -0.959088 -0.068899
vn 0.138703 0.989722 -0.034801
vn -0.876651 0 -0.481128
vn -0.876651 0 -0.481128
vn -0.999999 0 -0.0015
vn -0.708206 0 0.706006
vn -0.28261 0 0.959235
vn -0.28261 0 0.959235
vn -0.999999 0 -0.0015
vn 0 1 0
vn 0.171802 0.368505 -0.913613
vn 0.171802 0.368505 -0.913613
vn 0.171802 0.368505 -0.913613
vn 0.171802 0.368505 -0.913613
vn -0.221008 -0.474016 0.852329
vn -0.221008 -0.474016 0.852329
vn -0.221008 -0.474016 0.852329
vn -0.221008 -0.474016 0.852329
vn -0.985288 0.156398 -0.068899
vn -0.985288 0.156398 -0.068899
vn -0.985288 0.156398 -0.068899
vn 0.753144 -0.654238 -0.068904
vn 0.838345 -0.544029 -0.034802
vn 0.838345 -0.544029 -0.034802
vn 0.370508 0.794517 -0.48111
vn 0.370508 0.794517 -0.48111
vn 0.422606 0.906312 -0.0015
vn 0.299292 0.641883 0.705982
vn 0.119406 0.256112 0.959244
vn 0.119406 0.256112 0.959244
vn 0.906313 -0.422606 -0
vn 0.2332 -0.333099 -0.913599
vn 0.2332 -0.333099 -0.913599
vn 0.2332 -0.333099 -0.913599
vn 0.2332 -0.333099 -0.913599
vn -0.075402 0.107702 0.99132
vn -0.300009 0.428412 0.852325
vn -0.667792 0.230097 0.707891
vn -0.711086 -0.262695 0.652187
vn 0.628088 0.775086 -0.068899
vn 0.628088 0.775086 -0.068899
vn 0.628088 0.775086 -0.068899
vn -0.284214 -0.877044 -0.387319
vn 0.502817 -0.718124 -0.481116
vn 0.573569 -0.819156 -0.0015
vn 0.0035 -0.773583 0.633686
vn -0.422681 -0.0061 -0.906258
vn -0.409798 -0.0122 -0.912095
vn -0.422681 -0.0061 -0.906258
vn -0.435415 0 -0.90023
vn 0.510985 -0.0049 0.859576
vn 0.501407 0 0.865212
vn 0.562925 0.412118 0.716432
vn 0.353903 0.867606 0.349303
vn 0.361895 -0.927787 -0.090799
vn 0.361895 -0.927787 -0.090799
vn 0.361895 -0.927787 -0.090799
vn 0.138703 0.989722 -0.034801
vn -0.876629 -0.007 -0.481116
vn -0.876629 -0.007 -0.481116
vn -0.999946 -0.0103 -0.0015
vn -0.708218 -0.0103 0.705918
vn -0.282603 -0.007 0.959211
vn -0.282603 -0.007 0.959211
vn -0.999946 -0.0103 -0.0015
vn 0 1 0
vn 0.172811 0.382724 -0.907557
vn 0.163705 0.375312 -0.912328
vn 0.172811 0.382724 -0.907557
vn 0.181904 0.390109 -0.902622
vn -0.220392 -0.457683 0.861368
vn -0.20959 -0.449477 0.868356
vn -0.220392 -0.457683 0.861368
vn -0.231105 -0.46591 0.854119
vn -0.991961 0.094996 -0.083597
vn -0.991961 0.094996 -0.083597
vn -0.991961 0.094996 -0.083597
vn 0.753187 -0.654189 -0.068899
vn 0.838345 -0.544029 -0.034802
vn 0.838345 -0.544029 -0.034802
vn 0.368112 0.795626 -0.481116
vn 0.368112 0.795626 -0.481116
vn 0.417694 0.908587 -0.0015
vn 0.292992 0.644783 0.705982
vn 0.1143 0.2586 0.959199
vn 0.1143 0.2586 0.959199
vn 0.906313 -0.422606 -0
vn 0.250499 -0.344899 -0.904597
vn 0.247606 -0.327807 -0.91172
vn 0.250499 -0.344899 -0.904597
vn 0.253404 -0.361905 -0.897113
vn -0.0673 0.1077 0.991903
vn -0.291508 0.416312 0.861224
vn -0.662824 0.226408 0.713726
vn -0.708937 -0.260914 0.655234
vn 0.561524 0.822735 -0.088304
vn 0.561524 0.822735 -0.088304
vn 0.561524 0.822735 -0.088304
vn -0.278497 -0.877691 -0.389996
vn 0.512999 -0.710898 -0.481099
vn 0.587106 -0.809509 -0.0015
vn 0.0144 -0.770399 0.637399
vn 0 -0 1
vn 0.388687 -0 0.92137
vn 0.194393 0.336588 0.921368
vn 0.194393 0.336588 0.921368
vn -0.194393 0.336588 0.921368
vn -0.388687 -0 0.92137
vn -0.194393 -0.336588 0.921368
vn 0.194393 -0.336588 0.921368
vn 0.963202 0.1854 0.1946
vn 0.321081 0.926845 0.194589
vn 0.642105 0.741506 0.194602
vn 0.963202 -0.1854 0.1946
vn -0.642105 0.741506 0.194602
vn -0.321081 0.926845 0.194589
vn -0.963202 -0.1854 0.1946
vn -0.963202 0.1854 0.1946
vn -0.321081 -0.926845 0.194589
vn -0.642105 -0.741506 0.194602
vn 0.642105 -0.741506 0.194602
vn 0.321081 -0.926845 0.194589
vn 0.500011 -0 0.866019
vn 0.263688 0.23889 0.934559
vn 0.178005 0 0.98403
vn 0.470609 0.337807 0.815116
vn 0.677474 0.238891 0.695673
vn 0.470609 0.337807 0.815116
vn 0.763181 -0 0.646184
vn 0.677474 -0.238891 0.695673
vn 0.470609 -0.337807 0.815116
vn 0.263688 -0.23889 0.934559
vn -0.990672 0.122597 0.059498
vn -0.612383 0.70708 0.35359
vn -0.866019 0 0.500011
vn -0.690455 0.714353 -0.113893
vn 0 1 0
vn -0.115796 0.887669 -0.445685
vn 0.612383 0.70708 -0.35359
vn 0.396696 0.540994 -0.741592
vn 0.866019 0 -0.500011
vn 0.546818 -0.122604 -0.828227
vn 0.612383 -0.70708 -0.35359
vn 0.246591 -0.714374 -0.654876
vn -0 -1 -0
vn -0.328091 -0.887676 -0.323091
vn -0.612383 -0.70708 0.35359
vn -0.840588 -0.540992 -0.0272
vn -0.396696 0.540994 0.741592
vn -0.546818 -0.122604 0.828227
vn 0.115796 0.887669 0.445685
vn 0.690455 0.714353 0.113893
vn 0.990672 0.122596 -0.059498
vn 0.840588 -0.540992 0.0272
vn 0.328091 -0.887676 0.323091
vn -0.246591 -0.714374 0.654876
vn -0.500011 0 -0.866019
vn -0.763181 0 -0.646184
vn -0.677474 0.238891 -0.695673
vn -0.470609 0.337807 -0.815116
vn -0.470609 0.337807 -0.815116
vn -0.263688 0.23889 -0.934559
vn -0.178005 0 -0.98403
vn -0.263688 -0.23889 -0.934559
vn -0.470609 -0.337807 -0.815116
vn -0.677474 -0.238891 -0.695673
vn 0.500011 -0 0.866019
vn 0.500011 -0 0.866019
vn 0.500011 -0 0.866019
vn 0.500011 -0 0.866019
vn 0.500011 -0 0.866019
vn 0.971899 0 -0.2354
vn 0.524198 0 -0.851597
vn 0.971899 0 0.2354
vn 0.076498 0 -0.99707
vn -0.647913 0 -0.761715
vn -0.924649 0 -0.38082
vn -0.924649 0 0.38082
vn -0.647913 0 0.761715
vn 0.076498 0 0.99707
vn 0.524198 0 0.851597
vn 0.971899 0 0.2354
vt 0.8308 0.5
vt 0.6654 0.8308
vt 0.3346 0.1692
vt 0.3346 0.8308
vt 0.1692 0.5
vt 0.6654 0.1692
vt 0.4812 0.5
vt 0.3222 0.6099
vt 0.3222 0.3901
vt 0.542 0.3222
vt 0.6778 0.5
vt 0.4812 0.5
vt 0.3222 0.6099
vt 0.3222 0.3901
vt 0.542 0.3222
vt 0.6778 0.5
vt 0.9995 0.5387
vt 0.6722 0.8801
vt 0.8445 0.8801
vt 0.7498 0.5387
vt 0.3278 0.8801
vt 0.2502 0.5387
vt 0.1555 0.8801
vt 0.0005 0.5387
vt 0.3278 0.8801
vt 0.2502 0.5387
vt 0.6722 0.8801
vt 0.7498 0.5387
vt 0.7498 1.2214
vt 0.9995 1.2214
vt 0.2502 1.2214
vt 0.0005 1.2214
vt 0.2502 1.2214
vt 0.7498 1.2214
vt 0.4944 1.3292
vt 0.7074 1.0164
vt 0.8919 1.0164
vt -0.1081 1.0164
vt 0.1111 1.0164
vt 0.2919 1.0164
vt 0.4337 1.0164
vt 0.5641 1.0164
vt 0.5413 0.3728
vt 0.5826 0.3728
vt 0.5826 -0.2214
vt 0.5413 -0.2214
vt 0.4587 0.3728
vt 0.4587 -0.2214
vt 0.4174 0.3728
vt 0.4174 -0.2214
vt 0.4587 0.3728
vt 0.4587 -0.2214
vt 0.5413 0.3728
vt 0.5413 -0.2214
vt 0.4895 -0.0364
vt 0.0009 -0.0364
vt 0.0673 0.0957
vt 0.2342 0.0957
vt 0.4639 -0.0797
vt 0.2342 0.0957
vt 0.0673 0.0957
vt 0.0032 -0.0797
vt 0.2342 0.0957
vt 0.4639 -0.0797
vt 0.4895 -0.0364
vt 0.0009 -0.0364
vt 0.0009 -0.0364
vt 0.4895 -0.0364
vt -0.4653 -0.0709
vt -0.003 -0.0709
vt 0.4639 -0.0797
vt 0.0032 -0.0797
vt 0.5347 -0.0709
vt -0.003 -0.0709
vt 0.4533 -0.0364
vt 0.3438 -0.0364
vt 0.396 0.0957
vt 0.4952 0.0957
vt 0.4591 -0.0797
vt 0.4952 0.0957
vt 0.396 0.0957
vt 0.3456 -0.0797
vt 0.4952 0.0957
vt 0.4591 -0.0797
vt 0.4533 -0.0364
vt 0.396 0.0957
vt 0.3438 -0.0364
vt 0.3456 -0.0797
vt 0.3438 -0.0364
vt 0.4533 -0.0364
vt 0.4417 -0.0709
vt 0.3406 -0.0709
vt 0.4591 -0.0797
vt 0.3456 -0.0797
vt 0.3406 -0.0709
vt 0.5325 -0.0364
vt 0.6291 -0.0364
vt 0.6807 0.0957
vt 0.7456 0.0957
vt 0.539 -0.0797
vt 0.7456 0.0957
vt 0.6807 0.0957
vt 0.6308 -0.0797
vt 0.7456 0.0957
vt 0.539 -0.0797
vt 0.5325 -0.0364
vt 0.6291 -0.0364
vt 0.5325 -0.0364
vt 0.5224 -0.0709
vt 0.626 -0.0709
vt 0.4914 0.4457
vt 0.001 0.4566
vt 0.0722 0.5858
vt 0.2354 0.5858
vt 0.481 0.4215
vt 0.2354 0.5858
vt 0.0722 0.5858
vt 0.0034 0.4142
vt 0.2354 0.5858
vt 0.481 0.4215
vt 0.4914 0.4457
vt 0.001 0.4566
vt 0.001 0.4566
vt 0.4914 0.4457
vt -0.4902 0.4264
vt -0.0033 0.4228
vt 0.481 0.4215
vt 0.0034 0.4142
vt 0.5098 0.4264
vt -0.0033 0.4228
vt 0.4656 0.4457
vt 0.3379 0.4566
vt 0.3897 0.5858
vt 0.4947 0.5858
vt 0.4692 0.4215
vt 0.4947 0.5858
vt 0.3897 0.5858
vt 0.3397 0.4142
vt 0.4947 0.5858
vt 0.4692 0.4215
vt 0.4656 0.4457
vt 0.3897 0.5858
vt 0.3379 0.4566
vt 0.3397 0.4142
vt 0.3379 0.4566
vt 0.4656 0.4457
vt 0.4588 0.4264
vt 0.3349 0.4228
vt 0.4692 0.4215
vt 0.3397 0.4142
vt 0.3349 0.4228
vt 0.5204 0.4457
vt 0.6355 0.4566
vt 0.6854 0.5858
vt 0.7459 0.5858
vt 0.5245 0.4215
vt 0.7459 0.5858
vt 0.6854 0.5858
vt 0.6372 0.4142
vt 0.7459 0.5858
vt 0.5245 0.4215
vt 0.5204 0.4457
vt 0.6355 0.4566
vt 0.5204 0.4457
vt 0.5137 0.4264
vt 0.6324 0.4228
vt 0.5 1.6489
vt 0.75 1.4417
vt 0.9064 1.4417
vt -0.0936 1.4417
vt 0.0936 1.4417
vt 0.25 1.4417
vt 0.4064 1.4417
vt 0.5936 1.4417
vt 0.6104 0.652
vt 0.4412 0.6864
vt 0.4412 0.6864
vt 0.6104 0.652
vt 0.3308 0.5345
vt 0.3308 0.5345
vt 0.3896 0.348
vt 0.3896 0.348
vt 0.5588 0.3136
vt 0.5588 0.3136
vt 0.6692 0.4655
vt 0.6692 0.4655
vt 0.5 -0.1444
vt 0.875 0.2502
vt 0.75 0.2502
vt 1 0.2502
vt 0.125 0.2502
vt -0 0.2502
vt 0.25 0.2502
vt 0.375 0.2502
vt 0.5 0.2502
vt 0.625 0.2502
vt 0.1918 1.1609
vt -0.0002 0.6821
vt 0.275 0.9824
vt -0.1853 0.7494
vt 0.0176 0.275
vt -0.1609 0.1918
vt 0.3179 -0.0002
vt 0.2506 -0.1853
vt 0.725 0.0176
vt 0.8082 -0.1609
vt 1.0002 0.3179
vt 1.1853 0.2506
vt 0.9824 0.725
vt 1.1609 0.8082
vt 0.6821 1.0002
vt 0.7494 1.1853
vt -0.1853 0.7494
vt 0.1918 1.1609
vt -0.1609 0.1918
vt 0.2506 -0.1853
vt 0.8082 -0.1609
vt 1.1853 0.2506
vt 1.1609 0.8082
vt 0.7494 1.1853
vt 0.5 1.1444
vt 0.75 0.7498
vt 0.875 0.7498
vt 1 0.7498
vt -0 0.7498
vt 0.125 0.7498
vt 0.25 0.7498
vt 0.375 0.7498
vt 0.5 0.7498
vt 0.625 0.7498
vt 0.4812 0.5
vt 0.3222 0.6099
vt 0.3222 0.3901
vt 0.542 0.3222
vt 0.6778 0.5
vt 0.226 0.3454
vt -0.1925 0.5393
vt -0.226 0.3454
vt 0.1925 0.5393
vt -0.2405 0.7015
vt 0.2405 0.7015
vt 0.6945 0.6078
vt 0.3055 0.6078
vt 0.7027 0.3877
vt 0.2973 0.3877
vt 0.774 0.3454
f 374/374/374 376/376/376 375/375/375
f 375/375/375 376/376/376 377/377/377
f 377/377/377 376/376/376 378/378/378
f 379/379/379 376/376/376 374/374/374
f 380/380/380 382/382/382 381/381/381
f 380/380/380 383/383/383 382/382/382
f 380/380/380 384/384/384 383/383/383
f 385/385/385 387/387/387 386/386/386
f 385/385/385 388/388/388 387/387/387
f 385/385/385 389/389/389 388/388/388
f 390/390/390 392/392/392 391/391/391
f 390/390/390 391/391/391 393/393/393
f 393/393/393 391/391/391 394/394/394
f 393/393/393 394/394/394 395/395/395
f 395/395/395 394/394/394 396/396/396
f 395/395/395 396/396/396 397/397/397
f 397/397/397 396/396/396 398/398/398
f 397/397/397 398/398/398 399/399/399
f 399/399/399 398/398/398 400/400/400
f 399/399/399 400/400/400 401/401/401
f 401/401/401 400/400/400 392/392/392
f 401/401/401 392/392/392 390/390/390
f 392/392/392 403/403/403 402/402/402
f 392/392/392 402/402/402 391/391/391
f 391/391/391 402/402/402 404/404/404
f 391/391/391 404/404/404 394/394/394
f 394/394/394 404/404/404 405/405/405
f 394/394/394 405/405/405 396/396/396
f 396/396/396 405/405/405 406/406/406
f 396/396/396 406/406/406 398/398/398
f 398/398/398 406/406/406 407/407/407
f 398/398/398 407/407/407 400/400/400
f 400/400/400 407/407/407 403/403/403
f 400/400/400 403/403/403 392/392/392
f 408/408/408 410/410/410 409/409/409
f 408/408/408 412/412/412 411/411/411
f 408/408/408 413/413/413 412/412/412
f 408/408/408 414/414/414 413/413/413
f 408/408/408 415/415/415 414/414/414
f 408/408/408 409/409/409 415/415/415
f 416/416/416 418/418/418 417/417/417
f 418/418/418 416/416/416 419/419/419
f 420/420/420 419/419/419 416/416/416
f 419/419/419 420/420/420 421/421/421
f 422/422/422 421/421/421 420/420/420
f 421/421/421 422/422/422 423/423/423
f 424/424/424 423/423/423 422/422/422
f 423/423/423 424/424/424 425/425/425
f 426/426/426 425/425/425 424/424/424
f 425/425/425 426/426/426 427/427/427
f 417/417/417 427/427/427 426/426/426
f 427/427/427 417/417/417 418/418/418
f 428/428/428 430/430/430 429/429/429
f 430/430/430 428/428/428 431/431/431
f 432/432/432 434/434/434 433/433/433
f 434/434/434 432/432/432 435/435/435
f 436/436/436 438/438/438 437/437/437
f 434/434/434 435/435/435 439/439/439
f 440/440/440 442/442/442 441/441/441
f 442/442/442 440/440/440 443/443/443
f 444/444/444 443/443/443 445/445/445
f 443/443/443 444/444/444 446/446/446
f 435/435/435 447/447/447 439/439/439
f 448/448/448 450/450/450 449/449/449
f 450/450/450 448/448/448 451/451/451
f 452/452/452 454/454/454 453/453/453
f 454/454/454 452/452/452 455/455/455
f 456/456/456 458/458/458 457/457/457
f 459/459/459 461/461/461 460/460/460
f 462/462/462 464/464/464 463/463/463
f 464/464/464 462/462/462 465/465/465
f 466/466/466 465/465/465 467/467/467
f 465/465/465 466/466/466 464/464/464
f 461/461/461 468/468/468 460/460/460
f 469/469/469 471/471/471 470/470/470
f 471/471/471 469/469/469 472/472/472
f 473/473/473 475/475/475 474/474/474
f 475/475/475 473/473/473 476/476/476
f 477/477/477 479/479/479 478/478/478
f 475/475/475 476/476/476 480/480/480
f 480/480/480 482/482/482 481/481/481
f 482/482/482 480/480/480 483/483/483
f 473/473/473 483/483/483 476/476/476
f 483/483/483 473/473/473 482/482/482
f 476/476/476 483/483/483 480/480/480
f 484/484/484 486/486/486 485/485/485
f 486/486/486 484/484/484 487/487/487
f 488/488/488 490/490/490 489/489/489
f 490/490/490 488/488/488 491/491/491
f 492/492/492 494/494/494 493/493/493
f 490/490/490 491/491/491 495/495/495
f 496/496/496 498/498/498 497/497/497
f 498/498/498 496/496/496 499/499/499
f 500/500/500 499/499/499 501/501/501
f 499/499/499 500/500/500 502/502/502
f 491/491/491 503/503/503 495/495/495
f 504/504/504 506/506/506 505/505/505
f 506/506/506 504/504/504 507/507/507
f 508/508/508 510/510/510 509/509/509
f 510/510/510 508/508/508 511/511/511
f 512/512/512 514/514/514 513/513/513
f 515/515/515 517/517/517 516/516/516
f 518/518/518 520/520/520 519/519/519
f 520/520/520 518/518/518 521/521/521
f 522/522/522 521/521/521 523/523/523
f 521/521/521 522/522/522 520/520/520
f 517/517/517 524/524/524 516/516/516
f 525/525/525 527/527/527 526/526/526
f 527/527/527 525/525/525 528/528/528
f 529/529/529 531/531/531 530/530/530
f 531/531/531 529/529/529 532/532/532
f 533/533/533 535/535/535 534/534/534
f 531/531/531 532/532/532 536/536/536
f 536/536/536 538/538/538 537/537/537
f 538/538/538 536/536/536 539/539/539
f 529/529/529 539/539/539 532/532/532
f 539/539/539 529/529/529 538/538/538
f 532/532/532 539/539/539 536/536/536
f 540/540/540 542/542/542 541/541/541
f 540/540/540 544/544/544 543/543/543
f 540/540/540 545/545/545 544/544/544
f 540/540/540 546/546/546 545/545/545
f 540/540/540 547/547/547 546/546/546
f 540/540/540 541/541/541 547/547/547
f 548/548/548 550/550/550 549/549/549
f 550/550/550 548/548/548 551/551/551
f 549/549/549 553/553/553 552/552/552
f 553/553/553 549/549/549 550/550/550
f 552/552/552 555/555/555 554/554/554
f 555/555/555 552/552/552 553/553/553
f 554/554/554 557/557/557 556/556/556
f 557/557/557 554/554/554 555/555/555
f 556/556/556 559/559/559 558/558/558
f 559/559/559 556/556/556 557/557/557
f 558/558/558 551/551/551 548/548/548
f 551/551/551 558/558/558 559/559/559
f 560/560/560 562/562/562 561/561/561
f 560/560/560 561/561/561 563/563/563
f 560/560/560 565/565/565 564/564/564
f 560/560/560 564/564/564 566/566/566
f 560/560/560 566/566/566 567/567/567
f 560/560/560 567/567/567 568/568/568
f 560/560/560 568/568/568 569/569/569
f 560/560/560 569/569/569 562/562/562
f 570/570/570 572/572/572 571/571/571
f 570/570/570 571/571/571 573/573/573
f 573/573/573 571/571/571 574/574/574
f 573/573/573 574/574/574 575/575/575
f 575/575/575 574/574/574 576/576/576
f 575/575/575 576/576/576 577/577/577
f 577/577/577 576/576/576 578/578/578
f 577/577/577 578/578/578 579/579/579
f 579/579/579 578/578/578 580/580/580
f 579/579/579 580/580/580 581/581/581
f 581/581/581 580/580/580 582/582/582
f 581/581/581 582/582/582 583/583/583
f 583/583/583 582/582/582 584/584/584
f 583/583/583 584/584/584 585/585/585
f 585/585/585 584/584/584 572/572/572
f 585/585/585 572/572/572 570/570/570
f 572/572/572 587/587/587 586/586/586
f 572/572/572 586/586/586 571/571/571
f 571/571/571 586/586/586 588/588/588
f 571/571/571 588/588/588 574/574/574
f 574/574/574 588/588/588 589/589/589
f 574/574/574 589/589/589 576/576/576
f 576/576/576 589/589/589 590/590/590
f 576/576/576 590/590/590 578/578/578
f 578/578/578 590/590/590 591/591/591
f 578/578/578 591/591/591 580/580/580
f 580/580/580 591/591/591 592/592/592
f 580/580/580 592/592/592 582/582/582
f 582/582/582 592/592/592 593/593/593
f 582/582/582 593/593/593 584/584/584
f 584/584/584 593/593/593 587/587/587
f 584/584/584 587/587/587 572/572/572
f 594/594/594 596/596/596 595/595/595
f 594/594/594 597/597/597 596/596/596
f 594/594/594 599/599/599 598/598/598
f 594/594/594 600/600/600 599/599/599
f 594/594/594 601/601/601 600/600/600
f 594/594/594 602/602/602 601/601/601
f 594/594/594 603/603/603 602/602/602
f 594/594/594 595/595/595 603/603/603
f 604/604/604 606/606/606 605/605/605
f 604/604/604 607/607/607 606/606/606
f 604/604/604 608/608/608 607/607/607
f 609/609/609 611/611/611 610/610/610
f 609/609/609 610/610/610 612/612/612
f 612/612/612 610/610/610 613/613/613
f 612/612/612 613/613/613 614/614/614
f 614/614/614 613/613/613 615/615/615
f 614/614/614 615/615/615 616/616/616
f 616/616/616 615/615/615 617/617/617
f 616/616/616 617/617/617 618/618/618
f 618/618/618 617/617/617 619/619/619
f 618/618/618 611/611/611 609/609/609

g filling_up05
# texture: filling_up05.tga
v -182.0431 155.6238 -26.3946
v -182.0431 155.6238 -0.4027
v -168.3661 186.3259 -27.1539
v -168.3661 186.3259 -1.1619
v -118.7189 189.2009 -27.1539
v -118.7189 189.2009 -1.1619
v -37.2654 193.5136 -27.1539
v -37.2654 193.5136 -1.1619
v 38.10559 214.6951 -27.1539
v 38.10559 214.6951 -1.1619
v 70.5204 214.6643 -27.1539
v 70.5204 214.6643 -1.1619
v 77.6402 200.0975 -27.1539
v 77.6402 200.0975 -1.1619
v 77.6402 200.0975 -27.1539
v 77.6402 200.0975 -1.1619
v 67.866 185.0987 -27.1539
v 67.866 185.0987 -1.1619
v 30.8481 170.4519 -27.1539
v 30.8481 170.4519 -1.1619
v -38.1383 150.4982 -27.1539
v -38.1383 150.4982 -1.1619
v -118.7189 129.4766 -27.1539
v -118.7189 129.4766 -1.1619
v -168.3661 124.9217 -27.1539
v -168.3661 124.9217 -1.1619
v -182.0431 155.6238 -26.3946
v -182.0431 155.6238 -0.4027
v 42.4659 200.1412 5.576107
v 47.93182 200.196 25.842
v 54.03921 214.7269 0.007195
v 55.90091 214.4773 19.78281
v 69.3326 212.7224 -10.5751
v 77.27881 206.4233 4.747505
v 92.5093 181.6034 -29.7684
v 101.9102 181.6034 -14.4413
v 115.1872 153.0069 -49.6444
v 124.7081 153.0069 -32.7652
v 134.0005 123.9231 -63.5768
v 143.9313 123.9231 -48.7703
v 144.2563 105.7469 -70.5618
v 154.1871 105.7469 -55.7553
v 144.2563 105.7469 -70.5618
v 154.1871 105.7469 -55.7553
v 134.8399 63.8154 -63.4538
v 144.7706 63.8155 -48.6474
v 101.5362 58.24229 -40.5462
v 114.7589 62.6505 -25.884
v 86.2821 111.5223 -24.4218
v 95.97781 114.3287 -9.137802
v 64.1783 155.7784 -9.688698
v 70.97001 155.8015 8.196301
v 52.15791 176.8953 -0.406799
v 58.71461 176.9501 19.2319
v 42.4659 200.1412 5.576107
v 47.93182 200.196 25.842
v -10.87589 85.7943 99.00832
v -12.52798 71.5041 101.4292
v -1.476898 87.6534 106.7464
v -0.141907 71.0545 107.0502
v 22.54019 92.0659 84.6718
v 23.96672 77.3917 85.4637
v 62.86481 103.5145 41.57511
v 68.1328 94.8597 47.51821
v 101.3008 117.5657 -3.627895
v 112.4357 113.6161 7.811001
v 141.6144 128.9936 -44.1188
v 154.3913 129.3271 -29.9469
v 153.4681 109.6683 -51.82
v 168.5472 109.6683 -42.6623
v 153.4681 109.6683 -51.82
v 168.5472 109.6683 -42.6623
v 149.9787 76.8821 -49.613
v 164.8967 76.8821 -37.6614
v 99.4718 75.0801 -9.940893
v 114.3927 66.8037 0.541302
v 49.7981 80.3345 34.5439
v 53.18071 68.9881 37.1598
v 7.701904 83.864 65.2205
v 9.212204 71.9623 61.89721
v -12.9296 84.6515 87.30321
v -13.52658 73.0008 82.6386
v -10.87589 85.7943 99.00832
v -12.52798 71.5041 101.4292
vn -0.989767 -0.142695 -0
vn -0.989767 0.142695 -0
vn -0.72658 0.687082 -0
vn -0.397501 0.917602 -0
vn -0.057802 0.998328 -0
vn -0.056101 0.998425 -0
vn -0.129707 0.991552 -0
vn -0.204705 0.978824 -0
vn -0.186703 0.982416 -0
vn -0.092898 0.995676 -0
vn 0.349304 0.93701 -0
vn 0.697492 0.716592 -0
vn 0.992677 0.120797 -0
vn 0.970821 -0.239805 -0
vn 0.992677 0.120797 -0
vn 0.970821 -0.239805 -0
vn 0.719594 -0.694395 -0
vn 0.556775 -0.830663 -0
vn 0.347109 -0.937825 -0
vn 0.316498 -0.948593 -0
vn 0.2769 -0.960899 -0
vn 0.268191 -0.963366 -0
vn 0.204992 -0.978764 -0
vn 0.149705 -0.988731 -0
vn -0.292188 -0.956361 -0
vn -0.697441 -0.716642 -0
vn -0.989767 -0.142695 -0
vn -0.989767 0.142695 -0
vn -0.954099 -0.0892 0.2859
vn -0.941389 0.266497 0.206798
vn -0.560805 0.820007 0.114401
vn -0.117997 0.988373 0.095897
vn 0.469908 0.882715 -0.0009
vn 0.602105 0.790106 -0.114901
vn 0.642313 0.712715 -0.281906
vn 0.5889 0.7282 -0.3506
vn 0.637993 0.675493 -0.369696
vn 0.651012 0.651512 -0.389507
vn 0.674597 0.602297 -0.426798
vn 0.67619 0.582092 -0.451593
vn 0.792021 0.304708 -0.529014
vn 0.83152 0.0095 -0.555414
vn 0.792021 0.304708 -0.529014
vn 0.83152 0.0095 -0.555414
vn 0.670909 -0.590908 -0.448006
vn 0.427089 -0.885478 -0.183095
vn -0.1449 -0.942103 0.302401
vn -0.47299 -0.698285 0.537288
vn -0.685085 -0.43679 0.582987
vn -0.732911 -0.503608 0.457407
vn -0.748115 -0.546411 0.376508
vn -0.773223 -0.565417 0.287108
vn -0.806111 -0.517507 0.287004
vn -0.833891 -0.482995 0.267097
vn -0.954099 -0.0892 0.2859
vn -0.941389 0.266497 0.206798
vn -0.930523 0.105503 0.350709
vn -0.766024 0.111204 0.63312
vn -0.167993 0.101396 0.98056
vn 0.351184 0.060397 0.934357
vn 0.681421 0.092503 0.726023
vn 0.593479 0.306089 0.744374
vn 0.521394 0.506694 0.686592
vn 0.244496 0.784286 0.57019
vn 0.143299 0.886691 0.439596
vn -0.0847 0.954599 0.2856
vn 0.164494 0.985865 -0.031799
vn 0.306188 0.865567 -0.396285
vn 0.548804 0.409103 -0.729006
vn 0.562513 0.139003 -0.815019
vn 0.548804 0.409103 -0.729006
vn 0.562513 0.139003 -0.815019
vn 0.490115 -0.541417 -0.683121
vn 0.194397 -0.840286 -0.506092
vn -0.163093 -0.954361 -0.25019
vn -0.355108 -0.761016 -0.542912
vn -0.503498 -0.570798 -0.648598
vn -0.530823 -0.170107 -0.830235
vn -0.614678 -0.021999 -0.788472
vn -0.621316 0.200705 -0.757419
vn -0.881395 0.147999 -0.448597
vn -0.97356 0.156294 -0.166593
vn -0.930523 0.105503 0.350709
vn -0.766024 0.111204 0.63312
vt 0.9953 1.198
vt 0.0047 1.198
vt 0.9953 0.7407
vt 0.0047 0.7407
vt 0.9953 -0.0157
vt 0.0047 -0.0157
vt 0.9953 -0.8961
vt 0.0047 -0.8961
vt 0.9953 -1.7765
vt 0.0047 -1.7765
vt 0.9953 -2.5328
vt 0.0047 -2.5328
vt 0.9953 -2.9901
vt 0.0047 -2.9901
vt 0.9953 1.198
vt 0.0047 1.198
vt 0.9953 0.7407
vt 0.0047 0.7407
vt 0.9953 -0.0157
vt 0.0047 -0.0157
vt 0.9953 -0.8961
vt 0.0047 -0.8961
vt 0.9953 -1.7765
vt 0.0047 -1.7765
vt 0.9953 -2.5328
vt 0.0047 -2.5328
vt 0.9953 -2.9901
vt 0.0047 -2.9901
vt 0.9953 1.198
vt 0.0047 1.198
vt 0.9953 0.7407
vt 0.0047 0.7407
vt 0.9953 -0.0157
vt 0.0047 -0.0157
vt 0.9953 -0.8961
vt 0.0047 -0.8961
vt 0.9953 -1.7765
vt 0.0047 -1.7765
vt 0.9953 -2.5328
vt 0.0047 -2.5328
vt 0.9953 -2.9901
vt 0.0047 -2.9901
vt 0.9953 1.198
vt 0.0047 1.198
vt 0.9953 0.7407
vt 0.0047 0.7407
vt 0.9953 -0.0157
vt 0.0047 -0.0157
vt 0.9953 -0.8961
vt 0.0047 -0.8961
vt 0.9953 -1.7765
vt 0.0047 -1.7765
vt 0.9953 -2.5328
vt 0.0047 -2.5328
vt 0.9953 -2.9901
vt 0.0047 -2.9901
vt 0.9953 1.198
vt 0.0047 1.198
vt 0.9953 0.7407
vt 0.0047 0.7407
vt 0.9953 -0.0157
vt 0.0047 -0.0157
vt 0.9953 -0.8961
vt 0.0047 -0.8961
vt 0.9953 -1.7765
vt 0.0047 -1.7765
vt 0.9953 -2.5328
vt 0.0047 -2.5328
vt 0.9953 -2.9901
vt 0.0047 -2.9901
vt 0.9953 1.198
vt 0.0047 1.198
vt 0.9953 0.7407
vt 0.0047 0.7407
vt 0.9953 -0.0157
vt 0.0047 -0.0157
vt 0.9953 -0.8961
vt 0.0047 -0.8961
vt 0.9953 -1.7765
vt 0.0047 -1.7765
vt 0.9953 -2.5328
vt 0.0047 -2.5328
vt 0.9953 -2.9901
vt 0.0047 -2.9901
f 620/620/620 622/622/622 621/621/621
f 623/623/623 621/621/621 622/622/622
f 622/622/622 624/624/624 623/623/623
f 625/625/625 623/623/623 624/624/624
f 624/624/624 626/626/626 625/625/625
f 627/627/627 625/625/625 626/626/626
f 626/626/626 628/628/628 627/627/627
f 629/629/629 627/627/627 628/628/628
f 628/628/628 630/630/630 629/629/629
f 631/631/631 629/629/629 630/630/630
f 630/630/630 632/632/632 631/631/631
f 633/633/633 631/631/631 632/632/632
f 634/634/634 636/636/636 635/635/635
f 637/637/637 635/635/635 636/636/636
f 636/636/636 638/638/638 637/637/637
f 639/639/639 637/637/637 638/638/638
f 638/638/638 640/640/640 639/639/639
f 641/641/641 639/639/639 640/640/640
f 640/640/640 642/642/642 641/641/641
f 643/643/643 641/641/641 642/642/642
f 642/642/642 644/644/644 643/643/643
f 645/645/645 643/643/643 644/644/644
f 644/644/644 646/646/646 645/645/645
f 647/647/647 645/645/645 646/646/646
f 648/648/648 650/650/650 649/649/649
f 651/651/651 649/649/649 650/650/650
f 650/650/650 652/652/652 651/651/651
f 653/653/653 651/651/651 652/652/652
f 652/652/652 654/654/654 653/653/653
f 655/655/655 653/653/653 654/654/654
f 654/654/654 656/656/656 655/655/655
f 657/657/657 655/655/655 656/656/656
f 656/656/656 658/658/658 657/657/657
f 659/659/659 657/657/657 658/658/658
f 658/658/658 660/660/660 659/659/659
f 661/661/661 659/659/659 660/660/660
f 662/662/662 664/664/664 663/663/663
f 665/665/665 663/663/663 664/664/664
f 664/664/664 666/666/666 665/665/665
f 667/667/667 665/665/665 666/666/666
f 666/666/666 668/668/668 667/667/667
f 669/669/669 667/667/667 668/668/668
f 668/668/668 670/670/670 669/669/669
f 671/671/671 669/669/669 670/670/670
f 670/670/670 672/672/672 671/671/671
f 673/673/673 671/671/671 672/672/672
f 672/672/672 674/674/674 673/673/673
f 675/675/675 673/673/673 674/674/674
f 676/676/676 678/678/678 677/677/677
f 679/679/679 677/677/677 678/678/678
f 678/678/678 680/680/680 679/679/679
f 681/681/681 679/679/679 680/680/680
f 680/680/680 682/682/682 681/681/681
f 683/683/683 681/681/681 682/682/682
f 682/682/682 684/684/684 683/683/683
f 685/685/685 683/683/683 684/684/684
f 684/684/684 686/686/686 685/685/685
f 687/687/687 685/685/685 686/686/686
f 686/686/686 688/688/688 687/687/687
f 689/689/689 687/687/687 688/688/688
f 690/690/690 692/692/692 691/691/691
f 693/693/693 691/691/691 692/692/692
f 692/692/692 694/694/694 693/693/693
f 695/695/695 693/693/693 694/694/694
f 694/694/694 696/696/696 695/695/695
f 697/697/697 695/695/695 696/696/696
f 696/696/696 698/698/698 697/697/697
f 699/699/699 697/697/697 698/698/698
f 698/698/698 700/700/700 699/699/699
f 701/701/701 699/699/699 700/700/700
f 700/700/700 702/702/702 701/701/701
f 703/703/703 701/701/701 702/702/702

g metal01
# texture: metal01.jpg
v 14.9929 91.3252 93.0665
v 11.1605 102.0533 72.6106
v 22.9707 102.0533 93.0665
v 7.1716 91.3252 79.5195
v -12.46 102.0533 72.6106
v -8.4711 91.3252 79.5195
v -24.2703 102.0533 93.0665
v -16.2925 91.3252 93.0665
v -12.46 102.0533 113.5224
v -8.4711 91.3252 106.6135
v 11.1605 102.0533 113.5224
v 7.1716 91.3252 106.6135
v -0.6498 116.4039 93.0665
v 22.9707 102.0533 93.0665
v 11.1605 102.0533 72.6106
v -12.46 102.0533 72.6106
v -24.2703 102.0533 93.0665
v -12.46 102.0533 113.5224
v 11.1605 102.0533 113.5224
vn 0.793047 -0.589735 -0.152609
vn 0.528705 -0.589706 -0.610506
vn 0.793047 -0.589735 0.152609
vn 0.26431 -0.589723 -0.76313
vn -0.26431 -0.589723 -0.76313
vn -0.528705 -0.589706 -0.610506
vn -0.793047 -0.589735 -0.152609
vn -0.793047 -0.589735 0.152609
vn -0.528705 -0.589706 0.610506
vn -0.26431 -0.589723 0.76313
vn 0.26431 -0.589723 0.76313
vn 0.528705 -0.589706 0.610506
vn 0 1 -0
vn 0.519224 0.854639 -0
vn 0.259605 0.854616 -0.449708
vn -0.259605 0.854616 -0.449708
vn -0.519224 0.854639 -0
vn -0.259605 0.854616 0.449708
vn 0.259605 0.854616 0.449708
vt 0.8945 0.5
vt 0.7978 1.0957
vt 1.0957 0.5
vt 0.6972 0.8945
vt 0.2022 1.0957
vt 0.3028 0.8945
vt -0.0957 0.5
vt 0.1055 0.5
vt 0.2022 -0.0957
vt 0.3028 0.1055
vt 0.7978 -0.0957
vt 0.6972 0.1055
vt 0.5 0.5
vt 1.0957 0.5
vt 0.7978 1.0957
vt 0.2022 1.0957
vt -0.0957 0.5
vt 0.2022 -0.0957
vt 0.7978 -0.0957
f 704/704/704 706/706/706 705/705/705
f 704/704/704 705/705/705 707/707/707
f 707/707/707 705/705/705 708/708/708
f 707/707/707 708/708/708 709/709/709
f 709/709/709 708/708/708 710/710/710
f 709/709/709 710/710/710 711/711/711
f 711/711/711 710/710/710 712/712/712
f 711/711/711 712/712/712 713/713/713
f 713/713/713 712/712/712 714/714/714
f 713/713/713 714/714/714 715/715/715
f 715/715/715 714/714/714 706/706/706
f 715/715/715 706/706/706 704/704/704
f 716/716/716 718/718/718 717/717/717
f 716/716/716 719/719/719 718/718/718
f 716/716/716 720/720/720 719/719/719
f 716/716/716 721/721/721 720/720/720
f 716/716/716 722/722/722 721/721/721
f 716/716/716 717/717/717 722/722/722
