# Staff07.bmd — MU geometry at action 0 key 0, exported for MU2
# 4 mesh(es)

g wwa
# texture: wwa.jpg
v -0.1709 7.2228 -91.6811
v -0.1528 11.7039 -84.5103
v 1.5165 9.7878 -84.4206
v -1.6208 9.7878 -84.4206
v 4.3545 8.1227 -77.5936
v -0.1528 8.2344 -69.7505
v 5.3815 6.0119 -71.0074
v -0.1528 10.6995 -76.0926
v -5.4858 6.0119 -71.0074
v -4.4588 8.1227 -77.5936
v -5.9205 5.3397 -76.5115
v -5.9205 4.4712 -73.2701
v 5.8162 5.3397 -76.5115
v 5.8162 4.4712 -73.2701
v -0.1528 2.7931 -67.0073
v 3.163 3.3839 -69.2122
v 1.5554 6.8273 -68.2923
v -1.6597 6.8273 -68.2923
v -3.2673 3.3839 -69.2122
v -0.1709 7.2228 -91.6811
v 1.5165 9.7878 -84.4206
v -0.1891 8.7498 -84.3024
v -1.6208 9.7878 -84.4206
v -5.9205 5.3397 -76.5115
v -4.4588 8.1227 -77.5936
v -0.1891 7.1377 -79.1007
v -0.1891 5.7573 -78.0698
v 5.8162 5.3397 -76.5115
v 4.3545 8.1227 -77.5936
v -5.9205 5.3397 -76.5115
v 5.8162 5.3397 -76.5115
v 5.8162 4.4712 -73.2701
v -5.9205 4.4712 -73.2701
v 3.163 3.3839 -69.2122
v -3.2673 3.3839 -69.2122
v -0.1891 5.7573 -78.0698
v -0.1528 2.7931 -67.0073
v -0.16 22.3778 -92.8367
v -0.1459 21.4138 -87.3171
v 1.155 20.7166 -88.4997
v -1.2899 20.7166 -88.4997
v 3.3667 14.9031 -82.8185
v -0.1459 12.3989 -77.2422
v 4.1671 11.2431 -78.8619
v -0.1459 16.2288 -80.9097
v -4.302 11.2431 -78.8619
v -3.5016 14.9031 -82.8185
v -4.6407 12.5811 -82.9708
v -4.6407 10.9002 -80.9675
v 4.5058 12.5811 -82.9708
v 4.5058 10.9002 -80.9675
v -0.1459 7.6522 -77.0967
v 2.4382 8.7957 -78.4595
v 1.1854 10.9248 -76.6757
v -1.3203 10.9248 -76.6757
v -2.5731 8.7957 -78.4595
v -0.16 22.3778 -92.8367
v 1.155 20.7166 -88.4997
v -0.1742 19.9446 -88.7581
v -1.2899 20.7166 -88.4997
v -4.6407 12.5811 -82.9708
v -3.5016 14.9031 -82.8185
v -0.1742 14.7038 -84.2074
v -0.1742 13.3893 -83.9339
v 4.5058 12.5811 -82.9708
v 3.3667 14.9031 -82.8185
v -4.6407 12.5811 -82.9708
v 4.5058 12.5811 -82.9708
v 4.5058 10.9002 -80.9675
v -4.6407 10.9002 -80.9675
v 2.4382 8.7957 -78.4595
v -2.5731 8.7957 -78.4595
v -0.1742 13.3893 -83.9339
v -0.1459 7.6522 -77.0967
v -0.1981 10.5647 -42.5761
v -0.1699 0.9789 -51.5143
v 2.4174 3.8118 -52.4174
v -2.4453 3.8118 -52.4174
v 6.8164 3.566 -63.3067
v -0.1699 0.2523 -75.0043
v 8.4082 4.0841 -74.0142
v -0.1699 -0.8942 -64.5202
v -8.4361 4.0841 -74.0142
v -6.8444 3.566 -63.3067
v -9.1099 7.2984 -66.0432
v -9.1099 7.2984 -71.2445
v 9.082 7.2984 -66.0432
v 9.082 7.2984 -71.2445
v -0.1699 7.2984 -81.2944
v 4.9695 7.2984 -77.7562
v 2.4778 1.774 -77.7521
v -2.5058 1.774 -77.7521
v -4.9975 7.2984 -77.7562
v -0.1981 10.5647 -42.5761
v 2.4174 3.8118 -52.4174
v -0.2263 5.3184 -53.0107
v -2.4453 3.8118 -52.4174
v -9.1099 7.2984 -66.0432
v -6.8444 3.566 -63.3067
v -0.2263 5.6452 -61.4454
v -0.2263 7.2984 -63.5426
v 9.082 7.2984 -66.0432
v 6.8164 3.566 -63.3067
v -9.1099 7.2984 -66.0432
v 9.082 7.2984 -66.0432
v 9.082 7.2984 -71.2445
v -9.1099 7.2984 -71.2445
v 4.9695 7.2984 -77.7562
v -4.9975 7.2984 -77.7562
v -0.2263 7.2984 -63.5426
v -0.1699 7.2984 -81.2944
v -0.1812 -2.3319 -54.9124
v -0.1592 -6.6866 -62.4267
v 1.8571 -4.6805 -61.7169
v -1.9325 -4.6806 -61.7169
v 5.2853 -3.4381 -74.2548
v -0.1592 -6.0204 -83.3709
v 6.5258 -3.0343 -82.5993
v -0.1592 -6.9139 -75.2005
v -6.6012 -3.0343 -82.5993
v -5.3607 -3.438 -74.2548
v -7.1263 -0.5293 -76.3874
v -7.1263 -0.5293 -80.4409
v 7.0509 -0.5293 -76.3875
v 7.0509 -0.5293 -80.4409
v -0.1592 -0.5293 -88.2728
v 3.846 -0.5293 -85.5155
v 1.9042 -4.8345 -85.5123
v -1.9796 -4.8345 -85.5123
v -3.9214 -0.5293 -85.5155
v -0.1812 -2.3319 -54.9124
v 1.8571 -4.6805 -61.7169
v -0.2031 -3.5064 -62.1793
v -1.9325 -4.6806 -61.7169
v -7.1263 -0.5293 -76.3874
v -5.3607 -3.438 -74.2548
v -0.2031 -1.8177 -72.8043
v -0.2031 -0.5293 -74.4386
v 7.0509 -0.5293 -76.3875
v 5.2853 -3.4381 -74.2548
v -7.1263 -0.5293 -76.3874
v 7.0509 -0.5293 -76.3875
v 7.0509 -0.5293 -80.4409
v -7.1263 -0.5293 -80.4409
v 3.846 -0.5293 -85.5155
v -3.9214 -0.5293 -85.5155
v -0.2031 -0.5293 -74.4386
v -0.1592 -0.5293 -88.2728
v -0.1709 -7.3541 -91.6811
v 1.5165 -9.9191 -84.4206
v -0.1528 -11.8353 -84.5103
v -1.6208 -9.9191 -84.4206
v 4.3545 -8.254 -77.5936
v 5.3815 -6.1432 -71.0074
v -0.1528 -8.3658 -69.7505
v -0.1528 -10.8309 -76.0926
v -5.4858 -6.1432 -71.0074
v -4.4588 -8.254 -77.5936
v -5.9205 -5.4711 -76.5115
v -5.9205 -4.6026 -73.2701
v 5.8162 -5.4711 -76.5115
v 5.8162 -4.6026 -73.2701
v -0.1528 -2.9245 -67.0073
v 1.5554 -6.9586 -68.2923
v 3.163 -3.5153 -69.2122
v -1.6597 -6.9586 -68.2923
v -3.2673 -3.5153 -69.2122
v -0.1709 -7.3541 -91.6811
v -0.1891 -8.8812 -84.3024
v 1.5165 -9.9191 -84.4206
v -1.6208 -9.9191 -84.4206
v -5.9205 -5.4711 -76.5115
v -0.1891 -7.2691 -79.1007
v -4.4588 -8.254 -77.5936
v -0.1891 -5.8887 -78.0698
v 5.8162 -5.4711 -76.5115
v 4.3545 -8.254 -77.5936
v -5.9205 -5.4711 -76.5115
v 5.8162 -4.6026 -73.2701
v 5.8162 -5.4711 -76.5115
v -5.9205 -4.6026 -73.2701
v 3.163 -3.5153 -69.2122
v -3.2673 -3.5153 -69.2122
v -0.1891 -5.8887 -78.0698
v -0.1528 -2.9245 -67.0073
v -0.16 -22.5091 -92.8367
v 1.155 -20.848 -88.4997
v -0.1459 -21.5451 -87.3171
v -1.2899 -20.848 -88.4997
v 3.3667 -15.0344 -82.8185
v 4.1671 -11.3744 -78.8619
v -0.1459 -12.5302 -77.2422
v -0.1459 -16.3601 -80.9097
v -4.302 -11.3744 -78.8619
v -3.5016 -15.0344 -82.8185
v -4.6407 -12.7125 -82.9708
v -4.6407 -11.0315 -80.9675
v 4.5058 -12.7125 -82.9708
v 4.5058 -11.0315 -80.9675
v -0.1459 -7.7836 -77.0967
v 1.1854 -11.0561 -76.6757
v 2.4382 -8.9271 -78.4595
v -1.3203 -11.0561 -76.6757
v -2.5731 -8.9271 -78.4595
v -0.16 -22.5091 -92.8367
v -0.1742 -20.076 -88.7581
v 1.155 -20.848 -88.4997
v -1.2899 -20.848 -88.4997
v -4.6407 -12.7125 -82.9708
v -0.1742 -14.8351 -84.2074
v -3.5016 -15.0344 -82.8185
v -0.1742 -13.5206 -83.9339
v 4.5058 -12.7125 -82.9708
v 3.3667 -15.0344 -82.8185
v -4.6407 -12.7125 -82.9708
v 4.5058 -11.0315 -80.9675
v 4.5058 -12.7125 -82.9708
v -4.6407 -11.0315 -80.9675
v 2.4382 -8.9271 -78.4595
v -2.5731 -8.9271 -78.4595
v -0.1742 -13.5206 -83.9339
v -0.1459 -7.7836 -77.0967
v -0.1981 -10.6961 -42.5761
v 2.4174 -3.9431 -52.4174
v -0.1699 -1.1103 -51.5143
v -2.4453 -3.9431 -52.4174
v 6.8164 -3.6973 -63.3067
v 8.4082 -4.2154 -74.0142
v -0.1699 -0.3836 -75.0043
v -0.1699 0.7629 -64.5201
v -8.4361 -4.2154 -74.0142
v -6.8444 -3.6973 -63.30659
v -9.1099 -7.4298 -66.0432
v -9.1099 -7.4298 -71.2445
v 9.082 -7.4298 -66.0432
v 9.082 -7.4298 -71.2445
v -0.1699 -7.4298 -81.2944
v 2.4778 -1.9054 -77.752
v 4.9695 -7.4298 -77.7562
v -2.5058 -1.9054 -77.752
v -4.9975 -7.4298 -77.7562
v -0.1981 -10.6961 -42.5761
v -0.2263 -5.4497 -53.0107
v 2.4174 -3.9431 -52.4174
v -2.4453 -3.9431 -52.4174
v -9.1099 -7.4298 -66.0432
v -0.2263 -5.7766 -61.4454
v -6.8444 -3.6973 -63.30659
v -0.2263 -7.4298 -63.5425
v 9.082 -7.4298 -66.0432
v 6.8164 -3.6973 -63.3067
v -9.1099 -7.4298 -66.0432
v 9.082 -7.4298 -71.2445
v 9.082 -7.4298 -66.0432
v -9.1099 -7.4298 -71.2445
v 4.9695 -7.4298 -77.7562
v -4.9975 -7.4298 -77.7562
v -0.2263 -7.4298 -63.5425
v -0.1699 -7.4298 -81.2944
v -0.1812 2.2006 -54.9124
v 1.8571 4.5492 -61.7169
v -0.1592 6.5552 -62.4267
v -1.9325 4.5492 -61.7169
v 5.2853 3.3067 -74.2548
v 6.5258 2.9029 -82.5993
v -0.1592 5.8891 -83.3709
v -0.1592 6.7826 -75.2005
v -6.6012 2.9029 -82.5993
v -5.3607 3.3067 -74.2548
v -7.1263 0.398 -76.3874
v -7.1263 0.398 -80.4409
v 7.0509 0.398 -76.3875
v 7.0509 0.398 -80.4409
v -0.1592 0.398 -88.2728
v 1.9042 4.7032 -85.5123
v 3.846 0.398 -85.5155
v -1.9796 4.7032 -85.5123
v -3.9214 0.398 -85.5155
v -0.1812 2.2006 -54.9124
v -0.2031 3.3751 -62.1793
v 1.8571 4.5492 -61.7169
v -1.9325 4.5492 -61.7169
v -7.1263 0.398 -76.3874
v -0.2031 1.6863 -72.8043
v -5.3607 3.3067 -74.2548
v -0.2031 0.398 -74.4386
v 7.0509 0.398 -76.3875
v 5.2853 3.3067 -74.2548
v -7.1263 0.398 -76.3874
v 7.0509 0.398 -80.4409
v 7.0509 0.398 -76.3875
v -7.1263 0.398 -80.4409
v 3.846 0.398 -85.5155
v -3.9214 0.398 -85.5155
v -0.2031 0.398 -74.4386
v -0.1592 0.398 -88.2728
v -3.3555 -0.0657 -72.7504
v 0 2.0185 -87.1093
v -3.3555 -0.0657 -87.1093
v 0 2.0185 -72.7504
v 3.3555 -0.0657 -87.1093
v 3.3555 -0.0657 -72.7504
v 0 -2.1498 -87.1093
v 0 -2.1498 -72.7504
v 0 -0.0657 -89.6234
v 0 -0.0657 -89.6234
v 0 -0.0657 -89.6234
v 4.8319 -0.0655 0.3996
v 0 3.29 13.2923
v 3.3555 -0.0655 13.2923
v 0 4.7665 0.3996
v -3.3555 -0.0655 13.2923
v -4.8319 -0.0655 0.3996
v 0 -3.421 13.2923
v 0 -4.8974 0.3996
v 0 -0.0655 15.2383
v 0 -0.0655 15.2383
v 0 -0.0655 15.2383
v 0 3.29 -12.4931
v -3.3555 -0.0655 -12.4931
v 3.3555 -0.0655 -12.4931
v 0 -3.421 -12.4931
v 0 -0.0655 -14.4391
v 0 -0.0655 -14.4391
v 0 -0.0655 -14.4391
v -0.1812 -2.4999 127.9605
v -0.1592 -9.5109 115.8625
v 1.8571 -7.5093 117.0052
v -1.9325 -7.5093 117.0052
v 2.9248 -4.2687 66.6672
v -0.1168 -4.5169 58.4678
v 3.6178 -1.8311 59.1618
v -0.1168 -5.3206 65.8166
v -3.7157 -1.8311 59.1618
v -3.0227 -4.2687 66.6672
v -4.009 0.4999 61.9191
v -4.009 0.4999 61.1032
v 3.9111 0.4999 61.9191
v 3.9111 0.4999 61.1032
v -0.1168 0.4999 54.0588
v 2.1207 0.4999 56.5389
v 1.0359 -3.4503 56.5417
v -1.1338 -3.4503 56.5418
v -2.2186 0.4999 56.5389
v -0.1812 -2.4999 127.9605
v 1.8571 -7.5093 117.0052
v -0.2031 -5.2787 116.2607
v -1.9325 -7.5093 117.0052
v -4.009 0.4999 61.9191
v -3.0227 -4.2687 66.6672
v -0.1414 -3.243 67.9718
v -0.1414 0.4999 63.6719
v 3.9111 0.4999 61.9191
v 2.9248 -4.2687 66.6672
v -0.1812 3.5832 127.9605
v 1.8571 8.5926 117.0052
v -0.1592 10.5942 115.8626
v -1.9325 8.5926 117.0052
v 2.9248 5.2684 66.6672
v 3.6178 2.8308 59.1618
v -0.1168 5.5167 58.4678
v -0.1168 6.3203 65.8166
v -3.7157 2.8308 59.1618
v -3.0227 5.2684 66.6672
v 1.0359 4.45 56.5418
v -1.1338 4.45 56.5418
v -0.1812 3.5832 127.9605
v -0.2031 6.362 116.2607
v 1.8571 8.5926 117.0052
v -1.9325 8.5926 117.0052
v -0.1414 4.2428 67.9718
v -3.0227 5.2684 66.6672
v 2.9248 5.2684 66.6672
vn -0.0327 0.847612 -0.529608
vn -0.023501 0.978352 -0.205611
vn 0.732892 0.625893 -0.266697
vn -0.771221 0.578416 -0.265807
vn 0.646678 0.756074 0.100797
vn 0.094297 0.90607 0.412486
vn 0.827398 0.417899 0.375199
vn -0.104996 0.966066 0.235992
vn -0.796086 0.480292 0.368194
vn -0.71177 0.70187 0.027599
vn -0.940917 0.337006 0.033201
vn -0.960664 -0.105996 0.25669
vn 0.940917 0.337006 0.033201
vn 0.960664 -0.105996 0.25669
vn -0.0083 0.145895 0.989265
vn 0.681705 -0.106701 0.723805
vn 0.352313 0.445716 0.82293
vn -0.359001 0.443002 0.821503
vn -0.688798 -0.1016 0.717798
vn -0.040399 -0.978471 0.202394
vn 0.511095 -0.852392 -0.110499
vn -0.027499 -0.979757 -0.198291
vn -0.575804 -0.808206 -0.123501
vn -0.27499 -0.389386 -0.879067
vn -0.43881 -0.677216 -0.590614
vn -0.0082 -0.643119 -0.765723
vn -0.0039 -0.59833 -0.80124
vn 0.261495 -0.394992 -0.880683
vn 0.405408 -0.699414 -0.588612
vn 0 -0.965929 -0.258808
vn 0 -0.965929 -0.258808
vn 0 -0.965929 -0.258808
vn 0 -0.965929 -0.258808
vn 0 -0.965929 -0.258808
vn 0 -0.965929 -0.258808
vn 0 -0.965929 -0.258808
vn 0 -0.965929 -0.258808
vn -0.0316 0.98459 0.171998
vn -0.023499 0.895377 0.444689
vn 0.630325 0.730529 0.262711
vn -0.674313 0.698114 0.240705
vn 0.628979 0.616679 0.473384
vn 0.094294 0.646862 0.756755
vn 0.827376 0.220194 0.516685
vn -0.1051 0.7437 0.6602
vn -0.796079 0.279692 0.536686
vn -0.692416 0.598114 0.403509
vn -0.940917 0.291405 0.172503
vn -0.960666 -0.204493 0.187893
vn 0.940917 0.291405 0.172503
vn 0.960666 -0.204493 0.187893
vn -0.0083 -0.285815 0.958249
vn 0.6817 -0.4026 0.6109
vn 0.352389 0.056098 0.934171
vn -0.358986 0.054298 0.931763
vn -0.688812 -0.395407 0.607611
vn -0.039802 -0.858046 -0.512028
vn 0.48878 -0.644773 -0.587675
vn -0.0273 -0.706393 -0.707293
vn -0.552402 -0.607202 -0.571102
vn -0.274991 0.018599 -0.961267
vn -0.436597 -0.318498 -0.841393
vn -0.0082 -0.221791 -0.97506
vn -0.0039 -0.203705 -0.979025
vn 0.261499 0.0143 -0.965098
vn 0.402502 -0.335802 -0.851604
vn 0 -0.76602 -0.642817
vn 0 -0.76602 -0.642817
vn 0 -0.76602 -0.642817
vn 0 -0.76602 -0.642817
vn 0 -0.76602 -0.642817
vn 0 -0.76602 -0.642817
vn 0 -0.76602 -0.642817
vn 0 -0.76602 -0.642817
vn -0.0327 -0.6817 0.7309
vn -0.0235 -0.891808 0.451804
vn 0.732873 -0.53558 0.419585
vn -0.771234 -0.489922 0.406418
vn 0.646692 -0.756391 0.098299
vn 0.094296 -0.981961 -0.163894
vn 0.827396 -0.500798 -0.254199
vn -0.105003 -0.994226 0.022101
vn -0.796108 -0.559206 -0.231302
vn -0.711784 -0.685084 0.154996
vn -0.940918 -0.334106 0.055201
vn -0.960662 0.035899 -0.275389
vn 0.940918 -0.334106 0.055201
vn 0.960662 0.035899 -0.275389
vn -0.0083 -0.396993 -0.917784
vn 0.68168 -0.084297 -0.726778
vn 0.3524 -0.643501 -0.679501
vn -0.358995 -0.640492 -0.678891
vn -0.688764 -0.087695 -0.719662
vn -0.040402 0.892755 -0.448728
vn 0.511118 0.85193 -0.113904
vn -0.0275 0.997697 -0.062
vn -0.575769 0.812656 -0.089895
vn -0.275012 0.603627 0.748333
vn -0.438805 0.807009 0.395205
vn -0.0082 0.819383 0.573188
vn -0.0039 0.785302 0.619101
vn 0.2615 0.609399 0.748499
vn 0.405416 0.827932 0.387515
vn 0 1 -0
vn 0 1 -0
vn 0 1 -0
vn 0 1 -0
vn 0 1 -0
vn 0 1 -0
vn 0 1 -0
vn 0 1 -0
vn -0.0316 -0.864809 0.501105
vn -0.023501 -0.971734 0.234908
vn 0.630308 -0.728509 0.268303
vn -0.674319 -0.689519 0.264307
vn 0.628988 -0.776685 0.033699
vn 0.094296 -0.981961 -0.163894
vn 0.827396 -0.500798 -0.254199
vn -0.105098 -0.994076 -0.027699
vn -0.796108 -0.559206 -0.231302
vn -0.692431 -0.717533 0.075403
vn -0.940918 -0.334106 0.055201
vn -0.960662 0.035899 -0.275389
vn 0.940918 -0.334106 0.055201
vn 0.960662 0.035899 -0.275389
vn -0.0083 -0.396993 -0.917784
vn 0.68168 -0.084297 -0.726778
vn 0.3524 -0.643501 -0.679501
vn -0.358995 -0.640492 -0.678891
vn -0.688764 -0.087695 -0.719662
vn -0.039801 0.986427 -0.159304
vn 0.488785 0.871674 0.035699
vn -0.027299 0.995773 0.087698
vn -0.552419 0.832229 0.047202
vn -0.275012 0.603627 0.748333
vn -0.436591 0.784783 0.439891
vn -0.0082 0.796661 0.604371
vn -0.0039 0.785302 0.619101
vn 0.2615 0.609399 0.748499
vn 0.402516 0.804632 0.436518
vn 0 1 -0
vn 0 1 -0
vn 0 1 -0
vn 0 1 -0
vn 0 1 -0
vn 0 1 -0
vn 0 1 -0
vn 0 1 -0
vn -0.0327 -0.847612 -0.529608
vn 0.732892 -0.625893 -0.266697
vn -0.023501 -0.978352 -0.205611
vn -0.771221 -0.578416 -0.265807
vn 0.646678 -0.756074 0.100797
vn 0.827398 -0.417899 0.375199
vn 0.094297 -0.90607 0.412486
vn -0.104996 -0.966066 0.235992
vn -0.796086 -0.480292 0.368194
vn -0.71177 -0.70187 0.027599
vn -0.940917 -0.337006 0.033201
vn -0.960664 0.105996 0.25669
vn 0.940917 -0.337006 0.033201
vn 0.960664 0.105996 0.25669
vn -0.0083 -0.145895 0.989265
vn 0.352313 -0.445716 0.82293
vn 0.681705 0.106701 0.723805
vn -0.359001 -0.443002 0.821503
vn -0.688798 0.1016 0.717798
vn -0.040399 0.978471 0.202394
vn -0.027499 0.979757 -0.198291
vn 0.511095 0.852392 -0.110499
vn -0.575804 0.808206 -0.123501
vn -0.27499 0.389386 -0.879067
vn -0.0082 0.643119 -0.765723
vn -0.43881 0.677216 -0.590614
vn -0.0039 0.59833 -0.80124
vn 0.261495 0.394992 -0.880683
vn 0.405408 0.699414 -0.588612
vn 0 0.965929 -0.258808
vn 0 0.965929 -0.258808
vn 0 0.965929 -0.258808
vn 0 0.965929 -0.258808
vn 0 0.965929 -0.258808
vn 0 0.965929 -0.258808
vn 0 0.965929 -0.258808
vn 0 0.965929 -0.258808
vn -0.0316 -0.98459 0.171998
vn 0.630325 -0.730529 0.262711
vn -0.023499 -0.895377 0.444689
vn -0.674313 -0.698114 0.240705
vn 0.628979 -0.616679 0.473384
vn 0.827376 -0.220194 0.516685
vn 0.094294 -0.646862 0.756755
vn -0.1051 -0.7437 0.6602
vn -0.796079 -0.279692 0.536686
vn -0.692416 -0.598114 0.403509
vn -0.940917 -0.291405 0.172503
vn -0.960666 0.204493 0.187893
vn 0.940917 -0.291405 0.172503
vn 0.960666 0.204493 0.187893
vn -0.0083 0.285815 0.958249
vn 0.352389 -0.056098 0.934171
vn 0.6817 0.4026 0.6109
vn -0.358986 -0.054298 0.931763
vn -0.688812 0.395407 0.607611
vn -0.039802 0.858046 -0.512028
vn -0.0273 0.706393 -0.707293
vn 0.48878 0.644773 -0.587675
vn -0.552402 0.607202 -0.571102
vn -0.274991 -0.018599 -0.961267
vn -0.0082 0.221791 -0.97506
vn -0.436597 0.318498 -0.841393
vn -0.0039 0.203705 -0.979025
vn 0.261499 -0.0143 -0.965098
vn 0.402502 0.335802 -0.851604
vn 0 0.76602 -0.642817
vn 0 0.76602 -0.642817
vn 0 0.76602 -0.642817
vn 0 0.76602 -0.642817
vn 0 0.76602 -0.642817
vn 0 0.76602 -0.642817
vn 0 0.76602 -0.642817
vn 0 0.76602 -0.642817
vn -0.0327 0.6817 0.7309
vn 0.732873 0.53558 0.419585
vn -0.0235 0.891808 0.451804
vn -0.771234 0.489922 0.406418
vn 0.646692 0.756391 0.098299
vn 0.827396 0.500798 -0.254199
vn 0.094296 0.981961 -0.163894
vn -0.105003 0.994226 0.022101
vn -0.796108 0.559206 -0.231302
vn -0.711784 0.685084 0.154996
vn -0.940918 0.334106 0.055201
vn -0.960662 -0.035899 -0.275389
vn 0.940918 0.334106 0.055201
vn 0.960662 -0.035899 -0.275389
vn -0.0083 0.396993 -0.917784
vn 0.3524 0.643501 -0.679501
vn 0.68168 0.084297 -0.726778
vn -0.358995 0.640492 -0.678891
vn -0.688764 0.087695 -0.719662
vn -0.040402 -0.892755 -0.448728
vn -0.0275 -0.997697 -0.062
vn 0.511118 -0.85193 -0.113904
vn -0.575769 -0.812656 -0.089895
vn -0.275012 -0.603627 0.748333
vn -0.0082 -0.819383 0.573188
vn -0.438805 -0.807009 0.395205
vn -0.0039 -0.785302 0.619101
vn 0.2615 -0.609399 0.748499
vn 0.405416 -0.827932 0.387515
vn 0 -1 -0
vn 0 -1 -0
vn 0 -1 -0
vn 0 -1 -0
vn 0 -1 -0
vn 0 -1 -0
vn 0 -1 -0
vn 0 -1 -0
vn -0.0316 0.864809 0.501105
vn 0.630308 0.728509 0.268303
vn -0.023501 0.971734 0.234908
vn -0.674319 0.689519 0.264307
vn 0.628988 0.776685 0.033699
vn 0.827396 0.500798 -0.254199
vn 0.094296 0.981961 -0.163894
vn -0.105098 0.994076 -0.027699
vn -0.796108 0.559206 -0.231302
vn -0.692431 0.717533 0.075403
vn -0.940918 0.334106 0.055201
vn -0.960662 -0.035899 -0.275389
vn 0.940918 0.334106 0.055201
vn 0.960662 -0.035899 -0.275389
vn -0.0083 0.396993 -0.917784
vn 0.3524 0.643501 -0.679501
vn 0.68168 0.084297 -0.726778
vn -0.358995 0.640492 -0.678891
vn -0.688764 0.087695 -0.719662
vn -0.039801 -0.986427 -0.159304
vn -0.027299 -0.995773 0.087698
vn 0.488785 -0.871674 0.035699
vn -0.552419 -0.832229 0.047202
vn -0.275012 -0.603627 0.748333
vn -0.0082 -0.796661 0.604371
vn -0.436591 -0.784783 0.439891
vn -0.0039 -0.785302 0.619101
vn 0.2615 -0.609399 0.748499
vn 0.402516 -0.804632 0.436518
vn 0 -1 -0
vn 0 -1 -0
vn 0 -1 -0
vn 0 -1 -0
vn 0 -1 -0
vn 0 -1 -0
vn 0 -1 -0
vn 0 -1 -0
vn -0.881113 0.472907 -0
vn -0.127594 0.951956 -0.278387
vn -0.863108 -0.299803 -0.406404
vn 0.202708 0.979239 -0
vn 0.863108 0.299803 -0.406404
vn 0.881113 -0.472907 -0
vn 0.127594 -0.951956 -0.278387
vn -0.202708 -0.979239 -0
vn 0 0 -1
vn 0 0 -1
vn 0 0 -1
vn 1 0 -0
vn 0.197299 0.842897 0.500598
vn 0.842897 -0.197299 0.500598
vn 0 1 -0
vn -0.842897 0.197299 0.500598
vn -1 0 -0
vn -0.197299 -0.842897 0.500598
vn 0 -1 -0
vn 0 0 1
vn 0 0 1
vn 0 0 1
vn -0.197299 0.842897 -0.500598
vn -0.842897 -0.197299 -0.500598
vn 0.842897 0.197299 -0.500598
vn 0.197299 -0.842897 -0.500598
vn 0 0 -1
vn 0 0 -1
vn 0 0 -1
vn -0.029298 -0.864852 0.501172
vn -0.0226 -0.990519 0.135503
vn 0.626358 -0.750749 0.209886
vn -0.672588 -0.711687 0.202796
vn 0.646119 -0.759022 -0.080102
vn 0.0638 -0.975402 -0.211
vn 0.906186 -0.354994 -0.229796
vn -0.145598 -0.980686 -0.130598
vn -0.861015 -0.454708 -0.227804
vn -0.68458 -0.723679 -0.087397
vn -0.999829 0 0.018501
vn -0.982737 0 -0.185007
vn 0.999829 0 0.018501
vn 0.982737 0 -0.185007
vn -0.009 0 -0.99996
vn 0.826798 0 -0.562499
vn 0.484107 -0.609609 -0.627709
vn -0.490904 -0.605604 -0.626304
vn -0.832588 0 -0.553892
vn -0.042599 0.97207 -0.230793
vn 0.741633 0.669129 -0.047402
vn -0.029099 0.99935 -0.021299
vn -0.796048 0.603936 -0.039602
vn -0.518608 0 0.855013
vn -0.586709 0.762212 0.273504
vn -0.0103 0.857262 0.514777
vn -0.0095 0 0.999955
vn 0.498571 0 0.866849
vn 0.549099 0.788799 0.2762
vn -0.029298 0.864852 0.501172
vn 0.626605 0.750706 0.209302
vn -0.022599 0.990657 0.134494
vn -0.672868 0.711567 0.202291
vn 0.646195 0.758894 -0.080699
vn 0.906186 0.354994 -0.229796
vn 0.0638 0.975402 -0.211
vn -0.145599 0.980593 -0.131299
vn -0.861015 0.454708 -0.227804
vn -0.684691 0.72349 -0.088099
vn 0.484107 0.609609 -0.627709
vn -0.490904 0.605604 -0.626304
vn -0.042599 -0.97207 -0.230793
vn -0.029099 -0.999375 -0.020099
vn 0.741506 -0.669305 -0.0469
vn -0.795968 -0.604075 -0.039098
vn -0.0103 -0.856962 0.515277
vn -0.586699 -0.761899 0.2744
vn 0.549093 -0.788489 0.277096
vt 0.3657 0.9995
vt 0.6758 0.8372
vt 0.4912 0.8777
vt 0.4912 0.8777
vt 0.4556 0.4122
vt 0.8597 0.1445
vt 0.3925 0.1671
vt 0.9995 0.3845
vt 0.3925 0.1671
vt 0.4556 0.4122
vt 0.0005 0.3496
vt 0.0005 0.2305
vt 0.0005 0.3496
vt 0.0005 0.2305
vt 0.0005 0.0005
vt 0.0005 0.0815
vt 0.6741 0.0816
vt 0.6741 0.0816
vt 0.0005 0.0815
vt 0.3657 0.9995
vt 0.4912 0.8777
vt 0.3075 0.8641
vt 0.4912 0.8777
vt 0.0005 0.3496
vt 0.4556 0.4122
vt 0.2021 0.4548
vt 0.0005 0.4068
vt 0.0005 0.3496
vt 0.4556 0.4122
vt 0.5 0.5
vt 0.5 0.5
vt 0.5 0.5
vt 0.5 0.5
vt 0.5 0.5
vt 0.5 0.5
vt 0.5 0.5
vt 0.5 0.5
vt 0.3657 0.9995
vt 0.6758 0.8372
vt 0.4912 0.8777
vt 0.4912 0.8777
vt 0.4556 0.4122
vt 0.8597 0.1445
vt 0.3925 0.1671
vt 0.9995 0.3845
vt 0.3925 0.1671
vt 0.4556 0.4122
vt 0.0005 0.3496
vt 0.0005 0.2305
vt 0.0005 0.3496
vt 0.0005 0.2305
vt 0.0005 0.0005
vt 0.0005 0.0815
vt 0.6741 0.0816
vt 0.6741 0.0816
vt 0.0005 0.0815
vt 0.3657 0.9995
vt 0.4912 0.8777
vt 0.3075 0.8641
vt 0.4912 0.8777
vt 0.0005 0.3496
vt 0.4556 0.4122
vt 0.2021 0.4548
vt 0.0005 0.4068
vt 0.0005 0.3496
vt 0.4556 0.4122
vt 0.5 0.5
vt 0.5 0.5
vt 0.5 0.5
vt 0.5 0.5
vt 0.5 0.5
vt 0.5 0.5
vt 0.5 0.5
vt 0.5 0.5
vt 0.3657 0.9995
vt 0.6758 0.8372
vt 0.4912 0.8777
vt 0.4912 0.8777
vt 0.4556 0.4122
vt 0.8597 0.1445
vt 0.3925 0.1671
vt 0.9995 0.3845
vt 0.3925 0.1671
vt 0.4556 0.4122
vt 0.0005 0.3496
vt 0.0005 0.2305
vt 0.0005 0.3496
vt 0.0005 0.2305
vt 0.0005 0.0005
vt 0.0005 0.0815
vt 0.6741 0.0816
vt 0.6741 0.0816
vt 0.0005 0.0815
vt 0.3657 0.9995
vt 0.4912 0.8777
vt 0.3075 0.8641
vt 0.4912 0.8777
vt 0.0005 0.3496
vt 0.4556 0.4122
vt 0.2021 0.4548
vt 0.0005 0.4068
vt 0.0005 0.3496
vt 0.4556 0.4122
vt 0.5 0.5
vt 0.5 0.5
vt 0.5 0.5
vt 0.5 0.5
vt 0.5 0.5
vt 0.5 0.5
vt 0.5 0.5
vt 0.5 0.5
vt 0.3657 0.9995
vt 0.6758 0.8372
vt 0.4912 0.8777
vt 0.4912 0.8777
vt 0.4556 0.4122
vt 0.8597 0.1445
vt 0.3925 0.1671
vt 0.9995 0.3845
vt 0.3925 0.1671
vt 0.4556 0.4122
vt 0.0005 0.3496
vt 0.0005 0.2305
vt 0.0005 0.3496
vt 0.0005 0.2305
vt 0.0005 0.0005
vt 0.0005 0.0815
vt 0.6741 0.0816
vt 0.6741 0.0816
vt 0.0005 0.0815
vt 0.3657 0.9995
vt 0.4912 0.8777
vt 0.3075 0.8641
vt 0.4912 0.8777
vt 0.0005 0.3496
vt 0.4556 0.4122
vt 0.2021 0.4548
vt 0.0005 0.4068
vt 0.0005 0.3496
vt 0.4556 0.4122
vt 0.5 0.5
vt 0.5 0.5
vt 0.5 0.5
vt 0.5 0.5
vt 0.5 0.5
vt 0.5 0.5
vt 0.5 0.5
vt 0.5 0.5
vt 0.3657 0.9995
vt 0.4912 0.8777
vt 0.6758 0.8372
vt 0.4912 0.8777
vt 0.4556 0.4122
vt 0.3925 0.1671
vt 0.8597 0.1445
vt 0.9995 0.3845
vt 0.3925 0.1671
vt 0.4556 0.4122
vt 0.0005 0.3496
vt 0.0005 0.2305
vt 0.0005 0.3496
vt 0.0005 0.2305
vt 0.0005 0.0005
vt 0.6741 0.0816
vt 0.0005 0.0815
vt 0.6741 0.0816
vt 0.0005 0.0815
vt 0.3657 0.9995
vt 0.3075 0.8641
vt 0.4912 0.8777
vt 0.4912 0.8777
vt 0.0005 0.3496
vt 0.2021 0.4548
vt 0.4556 0.4122
vt 0.0005 0.4068
vt 0.0005 0.3496
vt 0.4556 0.4122
vt 0.5 0.5
vt 0.5 0.5
vt 0.5 0.5
vt 0.5 0.5
vt 0.5 0.5
vt 0.5 0.5
vt 0.5 0.5
vt 0.5 0.5
vt 0.3657 0.9995
vt 0.4912 0.8777
vt 0.6758 0.8372
vt 0.4912 0.8777
vt 0.4556 0.4122
vt 0.3925 0.1671
vt 0.8597 0.1445
vt 0.9995 0.3845
vt 0.3925 0.1671
vt 0.4556 0.4122
vt 0.0005 0.3496
vt 0.0005 0.2305
vt 0.0005 0.3496
vt 0.0005 0.2305
vt 0.0005 0.0005
vt 0.6741 0.0816
vt 0.0005 0.0815
vt 0.6741 0.0816
vt 0.0005 0.0815
vt 0.3657 0.9995
vt 0.3075 0.8641
vt 0.4912 0.8777
vt 0.4912 0.8777
vt 0.0005 0.3496
vt 0.2021 0.4548
vt 0.4556 0.4122
vt 0.0005 0.4068
vt 0.0005 0.3496
vt 0.4556 0.4122
vt 0.5 0.5
vt 0.5 0.5
vt 0.5 0.5
vt 0.5 0.5
vt 0.5 0.5
vt 0.5 0.5
vt 0.5 0.5
vt 0.5 0.5
vt 0.3657 0.9995
vt 0.4912 0.8777
vt 0.6758 0.8372
vt 0.4912 0.8777
vt 0.4556 0.4122
vt 0.3925 0.1671
vt 0.8597 0.1445
vt 0.9995 0.3845
vt 0.3925 0.1671
vt 0.4556 0.4122
vt 0.0005 0.3496
vt 0.0005 0.2305
vt 0.0005 0.3496
vt 0.0005 0.2305
vt 0.0005 0.0005
vt 0.6741 0.0816
vt 0.0005 0.0815
vt 0.6741 0.0816
vt 0.0005 0.0815
vt 0.3657 0.9995
vt 0.3075 0.8641
vt 0.4912 0.8777
vt 0.4912 0.8777
vt 0.0005 0.3496
vt 0.2021 0.4548
vt 0.4556 0.4122
vt 0.0005 0.4068
vt 0.0005 0.3496
vt 0.4556 0.4122
vt 0.5 0.5
vt 0.5 0.5
vt 0.5 0.5
vt 0.5 0.5
vt 0.5 0.5
vt 0.5 0.5
vt 0.5 0.5
vt 0.5 0.5
vt 0.3657 0.9995
vt 0.4912 0.8777
vt 0.6758 0.8372
vt 0.4912 0.8777
vt 0.4556 0.4122
vt 0.3925 0.1671
vt 0.8597 0.1445
vt 0.9995 0.3845
vt 0.3925 0.1671
vt 0.4556 0.4122
vt 0.0005 0.3496
vt 0.0005 0.2305
vt 0.0005 0.3496
vt 0.0005 0.2305
vt 0.0005 0.0005
vt 0.6741 0.0816
vt 0.0005 0.0815
vt 0.6741 0.0816
vt 0.0005 0.0815
vt 0.3657 0.9995
vt 0.3075 0.8641
vt 0.4912 0.8777
vt 0.4912 0.8777
vt 0.0005 0.3496
vt 0.2021 0.4548
vt 0.4556 0.4122
vt 0.0005 0.4068
vt 0.0005 0.3496
vt 0.4556 0.4122
vt 0.5 0.5
vt 0.5 0.5
vt 0.5 0.5
vt 0.5 0.5
vt 0.5 0.5
vt 0.5 0.5
vt 0.5 0.5
vt 0.5 0.5
vt 0.5 0.0005
vt 0.9995 0.2502
vt 0.5 0.2502
vt 0.9995 0.0005
vt 0.5 0.2502
vt 0.5 0.0005
vt 0.0005 0.2502
vt 0.0005 0.0005
vt 0.8568 0.5
vt 0.5 0.5
vt 0.1432 0.5
vt 0.5 0.0005
vt 0.9995 0.2502
vt 0.5 0.2502
vt 0.9995 0.0005
vt 0.5 0.2502
vt 0.5 0.0005
vt 0.0005 0.2502
vt 0.0005 0.0005
vt 0.8568 0.5
vt 0.5 0.5
vt 0.1432 0.5
vt 0.9995 0.2502
vt 0.5 0.2502
vt 0.5 0.2502
vt 0.0005 0.2502
vt 0.8568 0.5
vt 0.5 0.5
vt 0.1432 0.5
vt 0.3657 0.9995
vt 0.6758 0.8372
vt 0.4912 0.8777
vt 0.4912 0.8777
vt 0.4556 0.4122
vt 0.8597 0.1445
vt 0.3925 0.1671
vt 0.9995 0.3845
vt 0.3925 0.1671
vt 0.4556 0.4122
vt 0.0005 0.3496
vt 0.0005 0.2305
vt 0.0005 0.3496
vt 0.0005 0.2305
vt 0.0005 0.0005
vt 0.0005 0.0815
vt 0.6741 0.0816
vt 0.6741 0.0816
vt 0.0005 0.0815
vt 0.3657 0.9995
vt 0.4912 0.8777
vt 0.3075 0.8641
vt 0.4912 0.8777
vt 0.0005 0.3496
vt 0.4556 0.4122
vt 0.2021 0.4548
vt 0.0005 0.4068
vt 0.0005 0.3496
vt 0.4556 0.4122
vt 0.3657 0.9995
vt 0.4912 0.8777
vt 0.6758 0.8372
vt 0.4912 0.8777
vt 0.4556 0.4122
vt 0.3925 0.1671
vt 0.8597 0.1445
vt 0.9995 0.3845
vt 0.3925 0.1671
vt 0.4556 0.4122
vt 0.6741 0.0816
vt 0.6741 0.0816
vt 0.3657 0.9995
vt 0.3075 0.8641
vt 0.4912 0.8777
vt 0.4912 0.8777
vt 0.2021 0.4548
vt 0.4556 0.4122
vt 0.4556 0.4122
f 1/1/1 3/3/3 2/2/2
f 1/1/1 2/2/2 4/4/4
f 5/5/5 7/7/7 6/6/6
f 5/5/5 6/6/6 8/8/8
f 8/8/8 6/6/6 9/9/9
f 8/8/8 9/9/9 10/10/10
f 10/10/10 9/9/9 11/11/11
f 9/9/9 12/12/12 11/11/11
f 13/13/13 14/14/14 7/7/7
f 13/13/13 7/7/7 5/5/5
f 15/15/15 17/17/17 16/16/16
f 15/15/15 18/18/18 17/17/17
f 15/15/15 19/19/19 18/18/18
f 5/5/5 8/8/8 2/2/2
f 2/2/2 3/3/3 5/5/5
f 2/2/2 10/10/10 4/4/4
f 10/10/10 2/2/2 8/8/8
f 17/17/17 7/7/7 16/16/16
f 17/17/17 18/18/18 6/6/6
f 18/18/18 19/19/19 9/9/9
f 12/12/12 9/9/9 19/19/19
f 16/16/16 7/7/7 14/14/14
f 18/18/18 9/9/9 6/6/6
f 7/7/7 17/17/17 6/6/6
f 20/20/20 22/22/22 21/21/21
f 20/20/20 23/23/23 22/22/22
f 24/24/24 26/26/26 25/25/25
f 26/26/26 24/24/24 27/27/27
f 26/26/26 27/27/27 28/28/28
f 28/28/28 29/29/29 26/26/26
f 22/22/22 26/26/26 29/29/29
f 29/29/29 21/21/21 22/22/22
f 25/25/25 22/22/22 23/23/23
f 22/22/22 25/25/25 26/26/26
f 30/30/30 32/32/32 31/31/31
f 30/30/30 33/33/33 32/32/32
f 33/33/33 34/34/34 32/32/32
f 33/33/33 35/35/35 34/34/34
f 36/36/36 30/30/30 31/31/31
f 35/35/35 37/37/37 34/34/34
f 38/38/38 40/40/40 39/39/39
f 38/38/38 39/39/39 41/41/41
f 42/42/42 44/44/44 43/43/43
f 42/42/42 43/43/43 45/45/45
f 45/45/45 43/43/43 46/46/46
f 45/45/45 46/46/46 47/47/47
f 47/47/47 46/46/46 48/48/48
f 46/46/46 49/49/49 48/48/48
f 50/50/50 51/51/51 44/44/44
f 50/50/50 44/44/44 42/42/42
f 52/52/52 54/54/54 53/53/53
f 52/52/52 55/55/55 54/54/54
f 52/52/52 56/56/56 55/55/55
f 42/42/42 45/45/45 39/39/39
f 39/39/39 40/40/40 42/42/42
f 39/39/39 47/47/47 41/41/41
f 47/47/47 39/39/39 45/45/45
f 54/54/54 44/44/44 53/53/53
f 54/54/54 55/55/55 43/43/43
f 55/55/55 56/56/56 46/46/46
f 49/49/49 46/46/46 56/56/56
f 53/53/53 44/44/44 51/51/51
f 55/55/55 46/46/46 43/43/43
f 44/44/44 54/54/54 43/43/43
f 57/57/57 59/59/59 58/58/58
f 57/57/57 60/60/60 59/59/59
f 61/61/61 63/63/63 62/62/62
f 63/63/63 61/61/61 64/64/64
f 63/63/63 64/64/64 65/65/65
f 65/65/65 66/66/66 63/63/63
f 59/59/59 63/63/63 66/66/66
f 66/66/66 58/58/58 59/59/59
f 62/62/62 59/59/59 60/60/60
f 59/59/59 62/62/62 63/63/63
f 67/67/67 69/69/69 68/68/68
f 67/67/67 70/70/70 69/69/69
f 70/70/70 71/71/71 69/69/69
f 70/70/70 72/72/72 71/71/71
f 73/73/73 67/67/67 68/68/68
f 72/72/72 74/74/74 71/71/71
f 75/75/75 77/77/77 76/76/76
f 75/75/75 76/76/76 78/78/78
f 79/79/79 81/81/81 80/80/80
f 79/79/79 80/80/80 82/82/82
f 82/82/82 80/80/80 83/83/83
f 82/82/82 83/83/83 84/84/84
f 84/84/84 83/83/83 85/85/85
f 83/83/83 86/86/86 85/85/85
f 87/87/87 88/88/88 81/81/81
f 87/87/87 81/81/81 79/79/79
f 89/89/89 91/91/91 90/90/90
f 89/89/89 92/92/92 91/91/91
f 89/89/89 93/93/93 92/92/92
f 79/79/79 82/82/82 76/76/76
f 76/76/76 77/77/77 79/79/79
f 76/76/76 84/84/84 78/78/78
f 84/84/84 76/76/76 82/82/82
f 91/91/91 81/81/81 90/90/90
f 91/91/91 92/92/92 80/80/80
f 92/92/92 93/93/93 83/83/83
f 86/86/86 83/83/83 93/93/93
f 90/90/90 81/81/81 88/88/88
f 92/92/92 83/83/83 80/80/80
f 81/81/81 91/91/91 80/80/80
f 94/94/94 96/96/96 95/95/95
f 94/94/94 97/97/97 96/96/96
f 98/98/98 100/100/100 99/99/99
f 100/100/100 98/98/98 101/101/101
f 100/100/100 101/101/101 102/102/102
f 102/102/102 103/103/103 100/100/100
f 96/96/96 100/100/100 103/103/103
f 103/103/103 95/95/95 96/96/96
f 99/99/99 96/96/96 97/97/97
f 96/96/96 99/99/99 100/100/100
f 104/104/104 106/106/106 105/105/105
f 104/104/104 107/107/107 106/106/106
f 107/107/107 108/108/108 106/106/106
f 107/107/107 109/109/109 108/108/108
f 110/110/110 104/104/104 105/105/105
f 109/109/109 111/111/111 108/108/108
f 112/112/112 114/114/114 113/113/113
f 112/112/112 113/113/113 115/115/115
f 116/116/116 118/118/118 117/117/117
f 116/116/116 117/117/117 119/119/119
f 119/119/119 117/117/117 120/120/120
f 119/119/119 120/120/120 121/121/121
f 121/121/121 120/120/120 122/122/122
f 120/120/120 123/123/123 122/122/122
f 124/124/124 125/125/125 118/118/118
f 124/124/124 118/118/118 116/116/116
f 126/126/126 128/128/128 127/127/127
f 126/126/126 129/129/129 128/128/128
f 126/126/126 130/130/130 129/129/129
f 116/116/116 119/119/119 113/113/113
f 113/113/113 114/114/114 116/116/116
f 113/113/113 121/121/121 115/115/115
f 121/121/121 113/113/113 119/119/119
f 128/128/128 118/118/118 127/127/127
f 128/128/128 129/129/129 117/117/117
f 129/129/129 130/130/130 120/120/120
f 123/123/123 120/120/120 130/130/130
f 127/127/127 118/118/118 125/125/125
f 129/129/129 120/120/120 117/117/117
f 118/118/118 128/128/128 117/117/117
f 131/131/131 133/133/133 132/132/132
f 131/131/131 134/134/134 133/133/133
f 135/135/135 137/137/137 136/136/136
f 137/137/137 135/135/135 138/138/138
f 137/137/137 138/138/138 139/139/139
f 139/139/139 140/140/140 137/137/137
f 133/133/133 137/137/137 140/140/140
f 140/140/140 132/132/132 133/133/133
f 136/136/136 133/133/133 134/134/134
f 133/133/133 136/136/136 137/137/137
f 141/141/141 143/143/143 142/142/142
f 141/141/141 144/144/144 143/143/143
f 144/144/144 145/145/145 143/143/143
f 144/144/144 146/146/146 145/145/145
f 147/147/147 141/141/141 142/142/142
f 146/146/146 148/148/148 145/145/145
f 149/149/149 151/151/151 150/150/150
f 149/149/149 152/152/152 151/151/151
f 153/153/153 155/155/155 154/154/154
f 153/153/153 156/156/156 155/155/155
f 156/156/156 157/157/157 155/155/155
f 156/156/156 158/158/158 157/157/157
f 158/158/158 159/159/159 157/157/157
f 157/157/157 159/159/159 160/160/160
f 161/161/161 154/154/154 162/162/162
f 161/161/161 153/153/153 154/154/154
f 163/163/163 165/165/165 164/164/164
f 163/163/163 164/164/164 166/166/166
f 163/163/163 166/166/166 167/167/167
f 153/153/153 151/151/151 156/156/156
f 151/151/151 153/153/153 150/150/150
f 151/151/151 152/152/152 158/158/158
f 158/158/158 156/156/156 151/151/151
f 164/164/164 165/165/165 154/154/154
f 164/164/164 155/155/155 166/166/166
f 166/166/166 157/157/157 167/167/167
f 160/160/160 167/167/167 157/157/157
f 165/165/165 162/162/162 154/154/154
f 166/166/166 155/155/155 157/157/157
f 154/154/154 155/155/155 164/164/164
f 168/168/168 170/170/170 169/169/169
f 168/168/168 169/169/169 171/171/171
f 172/172/172 174/174/174 173/173/173
f 173/173/173 175/175/175 172/172/172
f 173/173/173 176/176/176 175/175/175
f 176/176/176 173/173/173 177/177/177
f 169/169/169 177/177/177 173/173/173
f 177/177/177 169/169/169 170/170/170
f 174/174/174 171/171/171 169/169/169
f 169/169/169 173/173/173 174/174/174
f 178/178/178 180/180/180 179/179/179
f 178/178/178 179/179/179 181/181/181
f 181/181/181 179/179/179 182/182/182
f 181/181/181 182/182/182 183/183/183
f 184/184/184 180/180/180 178/178/178
f 183/183/183 182/182/182 185/185/185
f 186/186/186 188/188/188 187/187/187
f 186/186/186 189/189/189 188/188/188
f 190/190/190 192/192/192 191/191/191
f 190/190/190 193/193/193 192/192/192
f 193/193/193 194/194/194 192/192/192
f 193/193/193 195/195/195 194/194/194
f 195/195/195 196/196/196 194/194/194
f 194/194/194 196/196/196 197/197/197
f 198/198/198 191/191/191 199/199/199
f 198/198/198 190/190/190 191/191/191
f 200/200/200 202/202/202 201/201/201
f 200/200/200 201/201/201 203/203/203
f 200/200/200 203/203/203 204/204/204
f 190/190/190 188/188/188 193/193/193
f 188/188/188 190/190/190 187/187/187
f 188/188/188 189/189/189 195/195/195
f 195/195/195 193/193/193 188/188/188
f 201/201/201 202/202/202 191/191/191
f 201/201/201 192/192/192 203/203/203
f 203/203/203 194/194/194 204/204/204
f 197/197/197 204/204/204 194/194/194
f 202/202/202 199/199/199 191/191/191
f 203/203/203 192/192/192 194/194/194
f 191/191/191 192/192/192 201/201/201
f 205/205/205 207/207/207 206/206/206
f 205/205/205 206/206/206 208/208/208
f 209/209/209 211/211/211 210/210/210
f 210/210/210 212/212/212 209/209/209
f 210/210/210 213/213/213 212/212/212
f 213/213/213 210/210/210 214/214/214
f 206/206/206 214/214/214 210/210/210
f 214/214/214 206/206/206 207/207/207
f 211/211/211 208/208/208 206/206/206
f 206/206/206 210/210/210 211/211/211
f 215/215/215 217/217/217 216/216/216
f 215/215/215 216/216/216 218/218/218
f 218/218/218 216/216/216 219/219/219
f 218/218/218 219/219/219 220/220/220
f 221/221/221 217/217/217 215/215/215
f 220/220/220 219/219/219 222/222/222
f 223/223/223 225/225/225 224/224/224
f 223/223/223 226/226/226 225/225/225
f 227/227/227 229/229/229 228/228/228
f 227/227/227 230/230/230 229/229/229
f 230/230/230 231/231/231 229/229/229
f 230/230/230 232/232/232 231/231/231
f 232/232/232 233/233/233 231/231/231
f 231/231/231 233/233/233 234/234/234
f 235/235/235 228/228/228 236/236/236
f 235/235/235 227/227/227 228/228/228
f 237/237/237 239/239/239 238/238/238
f 237/237/237 238/238/238 240/240/240
f 237/237/237 240/240/240 241/241/241
f 227/227/227 225/225/225 230/230/230
f 225/225/225 227/227/227 224/224/224
f 225/225/225 226/226/226 232/232/232
f 232/232/232 230/230/230 225/225/225
f 238/238/238 239/239/239 228/228/228
f 238/238/238 229/229/229 240/240/240
f 240/240/240 231/231/231 241/241/241
f 234/234/234 241/241/241 231/231/231
f 239/239/239 236/236/236 228/228/228
f 240/240/240 229/229/229 231/231/231
f 228/228/228 229/229/229 238/238/238
f 242/242/242 244/244/244 243/243/243
f 242/242/242 243/243/243 245/245/245
f 246/246/246 248/248/248 247/247/247
f 247/247/247 249/249/249 246/246/246
f 247/247/247 250/250/250 249/249/249
f 250/250/250 247/247/247 251/251/251
f 243/243/243 251/251/251 247/247/247
f 251/251/251 243/243/243 244/244/244
f 248/248/248 245/245/245 243/243/243
f 243/243/243 247/247/247 248/248/248
f 252/252/252 254/254/254 253/253/253
f 252/252/252 253/253/253 255/255/255
f 255/255/255 253/253/253 256/256/256
f 255/255/255 256/256/256 257/257/257
f 258/258/258 254/254/254 252/252/252
f 257/257/257 256/256/256 259/259/259
f 260/260/260 262/262/262 261/261/261
f 260/260/260 263/263/263 262/262/262
f 264/264/264 266/266/266 265/265/265
f 264/264/264 267/267/267 266/266/266
f 267/267/267 268/268/268 266/266/266
f 267/267/267 269/269/269 268/268/268
f 269/269/269 270/270/270 268/268/268
f 268/268/268 270/270/270 271/271/271
f 272/272/272 265/265/265 273/273/273
f 272/272/272 264/264/264 265/265/265
f 274/274/274 276/276/276 275/275/275
f 274/274/274 275/275/275 277/277/277
f 274/274/274 277/277/277 278/278/278
f 264/264/264 262/262/262 267/267/267
f 262/262/262 264/264/264 261/261/261
f 262/262/262 263/263/263 269/269/269
f 269/269/269 267/267/267 262/262/262
f 275/275/275 276/276/276 265/265/265
f 275/275/275 266/266/266 277/277/277
f 277/277/277 268/268/268 278/278/278
f 271/271/271 278/278/278 268/268/268
f 276/276/276 273/273/273 265/265/265
f 277/277/277 266/266/266 268/268/268
f 265/265/265 266/266/266 275/275/275
f 279/279/279 281/281/281 280/280/280
f 279/279/279 280/280/280 282/282/282
f 283/283/283 285/285/285 284/284/284
f 284/284/284 286/286/286 283/283/283
f 284/284/284 287/287/287 286/286/286
f 287/287/287 284/284/284 288/288/288
f 280/280/280 288/288/288 284/284/284
f 288/288/288 280/280/280 281/281/281
f 285/285/285 282/282/282 280/280/280
f 280/280/280 284/284/284 285/285/285
f 289/289/289 291/291/291 290/290/290
f 289/289/289 290/290/290 292/292/292
f 292/292/292 290/290/290 293/293/293
f 292/292/292 293/293/293 294/294/294
f 295/295/295 291/291/291 289/289/289
f 294/294/294 293/293/293 296/296/296
f 297/297/297 299/299/299 298/298/298
f 297/297/297 298/298/298 300/300/300
f 300/300/300 298/298/298 301/301/301
f 300/300/300 301/301/301 302/302/302
f 302/302/302 301/301/301 303/303/303
f 302/302/302 303/303/303 304/304/304
f 304/304/304 303/303/303 299/299/299
f 304/304/304 299/299/299 297/297/297
f 299/299/299 305/305/305 298/298/298
f 298/298/298 306/306/306 301/301/301
f 301/301/301 307/307/307 303/303/303
f 303/303/303 306/306/306 299/299/299
f 308/308/308 310/310/310 309/309/309
f 308/308/308 309/309/309 311/311/311
f 311/311/311 309/309/309 312/312/312
f 311/311/311 312/312/312 313/313/313
f 313/313/313 312/312/312 314/314/314
f 313/313/313 314/314/314 315/315/315
f 315/315/315 314/314/314 310/310/310
f 315/315/315 310/310/310 308/308/308
f 310/310/310 316/316/316 309/309/309
f 309/309/309 317/317/317 312/312/312
f 312/312/312 318/318/318 314/314/314
f 314/314/314 317/317/317 310/310/310
f 313/313/313 320/320/320 319/319/319
f 313/313/313 319/319/319 311/311/311
f 311/311/311 319/319/319 321/321/321
f 311/311/311 321/321/321 308/308/308
f 308/308/308 321/321/321 322/322/322
f 308/308/308 322/322/322 315/315/315
f 315/315/315 322/322/322 320/320/320
f 315/315/315 320/320/320 313/313/313
f 320/320/320 323/323/323 319/319/319
f 319/319/319 324/324/324 321/321/321
f 321/321/321 325/325/325 322/322/322
f 322/322/322 324/324/324 320/320/320
f 326/326/326 328/328/328 327/327/327
f 326/326/326 327/327/327 329/329/329
f 330/330/330 332/332/332 331/331/331
f 330/330/330 331/331/331 333/333/333
f 333/333/333 331/331/331 334/334/334
f 333/333/333 334/334/334 335/335/335
f 335/335/335 334/334/334 336/336/336
f 334/334/334 337/337/337 336/336/336
f 338/338/338 339/339/339 332/332/332
f 338/338/338 332/332/332 330/330/330
f 340/340/340 342/342/342 341/341/341
f 340/340/340 343/343/343 342/342/342
f 340/340/340 344/344/344 343/343/343
f 330/330/330 333/333/333 327/327/327
f 327/327/327 328/328/328 330/330/330
f 327/327/327 335/335/335 329/329/329
f 335/335/335 327/327/327 333/333/333
f 342/342/342 332/332/332 341/341/341
f 342/342/342 343/343/343 331/331/331
f 343/343/343 344/344/344 334/334/334
f 337/337/337 334/334/334 344/344/344
f 341/341/341 332/332/332 339/339/339
f 343/343/343 334/334/334 331/331/331
f 332/332/332 342/342/342 331/331/331
f 345/345/345 347/347/347 346/346/346
f 345/345/345 348/348/348 347/347/347
f 349/349/349 351/351/351 350/350/350
f 351/351/351 349/349/349 352/352/352
f 351/351/351 352/352/352 353/353/353
f 353/353/353 354/354/354 351/351/351
f 347/347/347 351/351/351 354/354/354
f 354/354/354 346/346/346 347/347/347
f 350/350/350 347/347/347 348/348/348
f 347/347/347 350/350/350 351/351/351
f 355/355/355 357/357/357 356/356/356
f 355/355/355 358/358/358 357/357/357
f 359/359/359 361/361/361 360/360/360
f 359/359/359 362/362/362 361/361/361
f 362/362/362 363/363/363 361/361/361
f 362/362/362 364/364/364 363/363/363
f 364/364/364 336/336/336 363/363/363
f 363/363/363 336/336/336 337/337/337
f 338/338/338 360/360/360 339/339/339
f 338/338/338 359/359/359 360/360/360
f 340/340/340 341/341/341 365/365/365
f 340/340/340 365/365/365 366/366/366
f 340/340/340 366/366/366 344/344/344
f 359/359/359 357/357/357 362/362/362
f 357/357/357 359/359/359 356/356/356
f 357/357/357 358/358/358 364/364/364
f 364/364/364 362/362/362 357/357/357
f 365/365/365 341/341/341 360/360/360
f 365/365/365 361/361/361 366/366/366
f 366/366/366 363/363/363 344/344/344
f 337/337/337 344/344/344 363/363/363
f 341/341/341 339/339/339 360/360/360
f 366/366/366 361/361/361 363/363/363
f 360/360/360 361/361/361 365/365/365
f 367/367/367 369/369/369 368/368/368
f 367/367/367 368/368/368 370/370/370
f 349/349/349 372/372/372 371/371/371
f 371/371/371 352/352/352 349/349/349
f 371/371/371 353/353/353 352/352/352
f 353/353/353 371/371/371 373/373/373
f 368/368/368 373/373/373 371/371/371
f 373/373/373 368/368/368 369/369/369
f 372/372/372 370/370/370 368/368/368
f 368/368/368 371/371/371 372/372/372

g red
# texture: red.jpg
v 0 0.0344 -63.2523
v 0 0.8371 -59.2283
v 1.1193 0.4357 -59.2283
v 1.1193 0.4357 -59.2283
v 1.1193 -0.367 -59.2283
v 1.1193 -0.367 -59.2283
v 0 -0.7684 -59.2283
v 0 -0.7684 -59.2283
v -1.1193 -0.367 -59.2283
v -1.1193 -0.367 -59.2283
v -1.1193 0.4357 -59.2283
v -1.1193 0.4357 -59.2283
v 0 0.8371 -59.2283
v 0 2.0859 -17.9147
v 1.7237 1.0907 -17.9147
v 1.7237 1.0907 -17.9147
v 1.7237 -0.8996 -17.9147
v 1.7237 -0.8996 -17.9147
v 0 -1.8948 -17.9147
v 0 -1.8948 -17.9147
v -1.7237 -0.8996 -17.9147
v -1.7237 -0.8996 -17.9147
v -1.7237 1.0907 -17.9147
v -1.7237 1.0907 -17.9147
v 0 2.0859 -17.9147
v 0 0.0956 -8.008099
v -0.0042 0.1189 10.2506
v -0.0042 2.5228 16.7292
v 2.0777 1.3209 16.7292
v 2.0777 1.3209 16.7292
v 2.0777 -1.0831 16.7292
v 2.0777 -1.0831 16.7292
v -0.0042 -2.2851 16.7292
v -0.0042 -2.2851 16.7292
v -2.0861 -1.0831 16.7292
v -2.0861 -1.0831 16.7292
v -2.0861 1.3209 16.7292
v -2.0861 1.3209 16.7292
v -0.0042 2.5228 16.7292
v -0.0237 2.2956 52.1075
v 1.7674 1.2615 52.1075
v 1.7674 1.2615 52.1075
v 1.7674 -0.8068 52.1075
v 1.7674 -0.8068 52.1075
v -0.0237 -1.8409 52.1075
v -0.0237 -1.8409 52.1075
v -1.8148 -0.8068 52.1075
v -1.8148 -0.8068 52.1075
v -1.8148 1.2615 52.1075
v -1.8148 1.2615 52.1075
v -0.0237 2.2956 52.1075
v -0.0237 0.2273 57.6419
v 0 -0.0316 95.323
v 0 2.1151 107.4381
v 1.8591 1.0417 107.4381
v 1.8591 1.0417 107.4381
v 1.8591 -1.1049 107.4381
v 1.8591 -1.1049 107.4381
v 0 -2.1783 107.4381
v 0 -2.1783 107.4381
v -1.8591 -1.1049 107.4381
v -1.8591 -1.1049 107.4381
v -1.8591 1.0417 107.4381
v -1.8591 1.0417 107.4381
v 0 2.1151 107.4381
v 0 3.2743 126.9155
v 2.863 1.6213 126.9155
v 2.863 1.6213 126.9155
v 2.8629 -1.6845 126.9155
v 2.8629 -1.6845 126.9155
v 0 -3.3375 126.9155
v 0 -3.3375 126.9155
v -2.863 -1.6845 126.9155
v -2.863 -1.6845 126.9155
v -2.863 1.6213 126.9155
v -2.863 1.6213 126.9155
v 0 3.2743 126.9155
v 0 -0.0316 174.18
v 0 -1.4101 -82.5876
v 0 -2.1042 -94.6853
v 2.7601 -1.1144 -94.6853
v 1.7923 -0.7674 -82.5876
v 1.7923 -0.7674 -82.5876
v 2.7601 -1.1144 -94.6853
v 2.7601 0.8651 -94.6853
v 1.7923 0.518 -82.5876
v 1.7923 0.518 -82.5876
v 2.7601 0.8651 -94.6853
v 0 1.8549 -94.6853
v 0 1.1608 -82.5876
v 0 1.1608 -82.5876
v 0 1.8549 -94.6853
v -2.7601 0.8651 -94.6853
v -1.7923 0.518 -82.5876
v -1.7923 0.518 -82.5876
v -2.7601 0.8651 -94.6853
v -2.7601 -1.1144 -94.6853
v -1.7923 -0.7674 -82.5876
v -1.7923 -0.7674 -82.5876
v -2.7601 -1.1144 -94.6853
v 0 -2.1042 -94.6853
v 0 -1.4101 -82.5876
v 0 -0.1247 -106.1917
vn 0 0 -1
vn 0.1076 0.989597 -0.0955
vn 0.882823 0.453612 -0.121903
vn 0.882823 0.453612 -0.121903
vn 0.747986 -0.652388 -0.122098
vn 0.747986 -0.652388 -0.122098
vn -0.107597 -0.98977 -0.093697
vn -0.107597 -0.98977 -0.093697
vn -0.882909 -0.453605 -0.121301
vn -0.882909 -0.453605 -0.121301
vn -0.747871 0.652275 -0.123395
vn -0.747871 0.652275 -0.123395
vn 0.1076 0.989597 -0.0955
vn -0.0767 0.995205 0.0607
vn 0.778209 0.624507 0.066201
vn 0.778209 0.624507 0.066201
vn 0.915819 -0.395808 0.067901
vn 0.915819 -0.395808 0.067901
vn 0.0767 -0.995094 0.0625
vn 0.0767 -0.995094 0.0625
vn -0.77819 -0.624392 0.067499
vn -0.77819 -0.624392 0.067499
vn -0.915867 0.395786 0.067398
vn -0.915867 0.395786 0.067398
vn -0.0767 0.995205 0.0607
vn 0 0 1
vn 0 0 -1
vn 0.115796 0.983668 -0.137796
vn 0.909987 0.391595 -0.136298
vn 0.909987 0.391595 -0.136298
vn 0.794313 -0.59241 -0.134602
vn 0.794313 -0.59241 -0.134602
vn -0.115905 -0.984138 -0.134305
vn -0.115905 -0.984138 -0.134305
vn -0.910013 -0.391706 -0.135802
vn -0.910013 -0.391706 -0.135802
vn -0.793983 0.592187 -0.137497
vn -0.793983 0.592187 -0.137497
vn 0.115796 0.983668 -0.137796
vn -0.115694 0.982453 0.146293
vn 0.792902 0.591302 0.147201
vn 0.792902 0.591302 0.147201
vn 0.908281 -0.390892 0.149097
vn 0.908281 -0.390892 0.149097
vn 0.115601 -0.981904 0.150001
vn 0.115601 -0.981904 0.150001
vn -0.792615 -0.591211 0.149103
vn -0.792615 -0.591211 0.149103
vn -0.908536 0.391015 0.147206
vn -0.908536 0.391015 0.147206
vn -0.115694 0.982453 0.146293
vn 0 0 1
vn 0 0 -1
vn 0.114495 0.98786 -0.104996
vn 0.912792 0.394697 -0.104999
vn 0.912792 0.394697 -0.104999
vn 0.798234 -0.593125 -0.105004
vn 0.798234 -0.593125 -0.105004
vn -0.114495 -0.98786 -0.104996
vn -0.114495 -0.98786 -0.104996
vn -0.912792 -0.394697 -0.104999
vn -0.912792 -0.394697 -0.104999
vn -0.798234 0.593125 -0.105004
vn -0.798234 0.593125 -0.105004
vn 0.114495 0.98786 -0.104996
vn -0.114697 0.993371 -0.0077
vn 0.802931 0.596023 -0.0077
vn 0.802931 0.596023 -0.0077
vn 0.917648 -0.397321 -0.0077
vn 0.917648 -0.397321 -0.0077
vn 0.114697 -0.993371 -0.0077
vn 0.114697 -0.993371 -0.0077
vn -0.802931 -0.596023 -0.0077
vn -0.802931 -0.596023 -0.0077
vn -0.917648 0.397321 -0.0077
vn -0.917648 0.397321 -0.0077
vn -0.114697 0.993371 -0.0077
vn 0 0 1
vn 0.118503 -0.991322 0.056901
vn -0.071804 -0.996849 -0.033702
vn 0.726368 -0.68547 -0.050198
vn 0.924089 -0.372696 0.084599
vn 0.924089 -0.372696 0.084599
vn 0.726368 -0.68547 -0.050198
vn 0.888529 0.456715 -0.043901
vn 0.662529 0.745332 0.074403
vn 0.662529 0.745332 0.074403
vn 0.888529 0.456715 -0.043901
vn 0.071804 0.996849 -0.033702
vn -0.118503 0.991322 0.056901
vn -0.118503 0.991322 0.056901
vn 0.071804 0.996849 -0.033702
vn -0.726372 0.685474 -0.050098
vn -0.924089 0.372696 0.084599
vn -0.924089 0.372696 0.084599
vn -0.726372 0.685474 -0.050098
vn -0.888529 -0.456715 -0.043901
vn -0.662529 -0.745332 0.074403
vn -0.662529 -0.745332 0.074403
vn -0.888529 -0.456715 -0.043901
vn -0.071804 -0.996849 -0.033702
vn 0.118503 -0.991322 0.056901
vn 0 0 -1
vt 0.5 0.9995
vt 0.3825 0.5752
vt 0.882 0.6275
vt 0.0005 0.7405
vt 0.2654 0.5157
vt 0.9995 0.8021
vt 0.6175 0.9243
vt 0.7649 0.5249
vt 0.9995 0.759
vt 0.118 0.872
vt 0.0005 0.6974
vt 0.7346 0.9838
vt 0.2351 0.9746
vt 0.2351 0.4751
vt 0.0005 0.241
vt 0.882 0.128
vt 0.9995 0.3026
vt 0.2654 0.0162
vt 0.7649 0.0254
vt 0.6175 0.4248
vt 0.118 0.3725
vt 0.9995 0.2595
vt 0.7346 0.4843
vt 0.0005 0.1979
vt 0.3825 0.0757
vt 0.5 0.0005
vt 0.5 0.9995
vt 0.3825 0.5752
vt 0.882 0.6275
vt 0.0005 0.7405
vt 0.2654 0.5157
vt 0.9995 0.8021
vt 0.6175 0.9243
vt 0.7649 0.5249
vt 0.9995 0.759
vt 0.118 0.872
vt 0.0005 0.6974
vt 0.7346 0.9838
vt 0.2351 0.9746
vt 0.2351 0.4751
vt 0.0005 0.241
vt 0.882 0.128
vt 0.9995 0.3026
vt 0.2654 0.0162
vt 0.7649 0.0254
vt 0.6175 0.4248
vt 0.118 0.3725
vt 0.9995 0.2595
vt 0.7346 0.4843
vt 0.0005 0.1979
vt 0.3825 0.0757
vt 0.5 0.0005
vt 0.5 0.9995
vt 0.3825 0.5752
vt 0.882 0.6275
vt 0.0005 0.7405
vt 0.2654 0.5157
vt 0.9995 0.8021
vt 0.6175 0.9243
vt 0.7649 0.5249
vt 0.9995 0.759
vt 0.118 0.872
vt 0.0005 0.6974
vt 0.7346 0.9838
vt 0.2351 0.9746
vt 0.2351 0.4751
vt 0.0005 0.241
vt 0.882 0.128
vt 0.9995 0.3026
vt 0.2654 0.0162
vt 0.7649 0.0254
vt 0.6175 0.4248
vt 0.118 0.3725
vt 0.9995 0.2595
vt 0.7346 0.4843
vt 0.0005 0.1979
vt 0.3825 0.0757
vt 0.5 0.0005
vt 0.2351 0.9746
vt 0.2351 0.4751
vt 0.0005 0.241
vt 0.0005 0.7405
vt 0.882 0.6275
vt 0.882 0.128
vt 0.9995 0.3026
vt 0.9995 0.8021
vt 0.2654 0.5157
vt 0.2654 0.0162
vt 0.7649 0.0254
vt 0.7649 0.5249
vt 0.6175 0.9243
vt 0.6175 0.4248
vt 0.118 0.3725
vt 0.118 0.872
vt 0.9995 0.759
vt 0.9995 0.2595
vt 0.7346 0.4843
vt 0.7346 0.9838
vt 0.0005 0.6974
vt 0.0005 0.1979
vt 0.3825 0.0757
vt 0.3825 0.5752
vt 0.5 0.0005
f 374/374/374 376/376/376 375/375/375
f 374/374/374 378/378/378 377/377/377
f 374/374/374 380/380/380 379/379/379
f 374/374/374 382/382/382 381/381/381
f 374/374/374 384/384/384 383/383/383
f 374/374/374 386/386/386 385/385/385
f 386/386/386 388/388/388 387/387/387
f 386/386/386 377/377/377 388/388/388
f 376/376/376 390/390/390 389/389/389
f 376/376/376 379/379/379 390/390/390
f 378/378/378 392/392/392 391/391/391
f 378/378/378 381/381/381 392/392/392
f 380/380/380 394/394/394 393/393/393
f 380/380/380 383/383/383 394/394/394
f 382/382/382 396/396/396 395/395/395
f 382/382/382 385/385/385 396/396/396
f 384/384/384 398/398/398 397/397/397
f 384/384/384 375/375/375 398/398/398
f 399/399/399 398/398/398 389/389/389
f 399/399/399 388/388/388 391/391/391
f 399/399/399 390/390/390 393/393/393
f 399/399/399 392/392/392 395/395/395
f 399/399/399 394/394/394 397/397/397
f 399/399/399 396/396/396 387/387/387
f 400/400/400 402/402/402 401/401/401
f 400/400/400 404/404/404 403/403/403
f 400/400/400 406/406/406 405/405/405
f 400/400/400 408/408/408 407/407/407
f 400/400/400 410/410/410 409/409/409
f 400/400/400 412/412/412 411/411/411
f 412/412/412 414/414/414 413/413/413
f 412/412/412 403/403/403 414/414/414
f 402/402/402 416/416/416 415/415/415
f 402/402/402 405/405/405 416/416/416
f 404/404/404 418/418/418 417/417/417
f 404/404/404 407/407/407 418/418/418
f 406/406/406 420/420/420 419/419/419
f 406/406/406 409/409/409 420/420/420
f 408/408/408 422/422/422 421/421/421
f 408/408/408 411/411/411 422/422/422
f 410/410/410 424/424/424 423/423/423
f 410/410/410 401/401/401 424/424/424
f 425/425/425 424/424/424 415/415/415
f 425/425/425 414/414/414 417/417/417
f 425/425/425 416/416/416 419/419/419
f 425/425/425 418/418/418 421/421/421
f 425/425/425 420/420/420 423/423/423
f 425/425/425 422/422/422 413/413/413
f 426/426/426 428/428/428 427/427/427
f 426/426/426 430/430/430 429/429/429
f 426/426/426 432/432/432 431/431/431
f 426/426/426 434/434/434 433/433/433
f 426/426/426 436/436/436 435/435/435
f 426/426/426 438/438/438 437/437/437
f 438/438/438 440/440/440 439/439/439
f 438/438/438 429/429/429 440/440/440
f 428/428/428 442/442/442 441/441/441
f 428/428/428 431/431/431 442/442/442
f 430/430/430 444/444/444 443/443/443
f 430/430/430 433/433/433 444/444/444
f 432/432/432 446/446/446 445/445/445
f 432/432/432 435/435/435 446/446/446
f 434/434/434 448/448/448 447/447/447
f 434/434/434 437/437/437 448/448/448
f 436/436/436 450/450/450 449/449/449
f 436/436/436 427/427/427 450/450/450
f 451/451/451 450/450/450 441/441/441
f 451/451/451 440/440/440 443/443/443
f 451/451/451 442/442/442 445/445/445
f 451/451/451 444/444/444 447/447/447
f 451/451/451 446/446/446 449/449/449
f 451/451/451 448/448/448 439/439/439
f 452/452/452 454/454/454 453/453/453
f 452/452/452 455/455/455 454/454/454
f 456/456/456 458/458/458 457/457/457
f 456/456/456 459/459/459 458/458/458
f 460/460/460 462/462/462 461/461/461
f 460/460/460 463/463/463 462/462/462
f 464/464/464 466/466/466 465/465/465
f 464/464/464 467/467/467 466/466/466
f 468/468/468 470/470/470 469/469/469
f 468/468/468 471/471/471 470/470/470
f 472/472/472 474/474/474 473/473/473
f 472/472/472 475/475/475 474/474/474
f 476/476/476 474/474/474 457/457/457
f 476/476/476 454/454/454 461/461/461
f 476/476/476 458/458/458 465/465/465
f 476/476/476 462/462/462 469/469/469
f 476/476/476 466/466/466 473/473/473
f 476/476/476 470/470/470 453/453/453

g wwe
# texture: wwe.jpg
v -31.998 -31.672 76.6742
v 31.346 -31.672 76.6742
v 31.3459 31.67199 76.67421
v -31.9981 31.67199 76.67421
v -0.326001 -31.672 45.00231
v -0.325997 -31.672 108.3463
v -0.326005 31.672 108.3463
v -0.326001 31.672 45.0023
v 31.4753 0.014398 45.0023
v 31.4753 0.014403 108.3463
v -31.8687 0.014403 108.3463
v -31.8687 0.014399 45.0023
v -22.2097 -21.9611 45.0023
v -22.2097 -21.9611 108.3463
v 22.5813 22.8299 108.3463
v 22.5813 22.8299 45.0023
v 22.4512 -22.79791 45.0023
v 22.4512 -22.7979 108.3463
v -22.3397 21.99301 108.3463
v -22.3397 21.993 45.0023
vn 0 -0 1
vn 0 -0 1
vn 0 -0 1
vn 0 -0 1
vn -1 -0 -0
vn -1 -0 -0
vn -1 -0 -0
vn -1 -0 -0
vn -0 -1 0
vn -0 -1 0
vn -0 -1 0
vn -0 -1 0
vn -0.707107 0.707107 -0
vn -0.707107 0.707107 -0
vn -0.707107 0.707107 -0
vn -0.707107 0.707107 -0
vn -0.707107 -0.707107 0
vn -0.707107 -0.707107 0
vn -0.707107 -0.707107 0
vn -0.707107 -0.707107 0
vt 0.0005 0.0005
vt 0.9995 0.0005
vt 0.9995 0.9995
vt 0.0005 0.9995
vt 0.0005 0.0005
vt 0.9995 0.0005
vt 0.9995 0.9995
vt 0.0005 0.9995
vt 0.0005 0.0005
vt 0.9995 0.0005
vt 0.9995 0.9995
vt 0.0005 0.9995
vt 0.0005 0.0005
vt 0.9995 0.0005
vt 0.9995 0.9995
vt 0.0005 0.9995
vt 0.0005 0.0005
vt 0.9995 0.0005
vt 0.9995 0.9995
vt 0.0005 0.9995
f 477/477/477 479/479/479 478/478/478
f 479/479/479 477/477/477 480/480/480
f 481/481/481 483/483/483 482/482/482
f 483/483/483 481/481/481 484/484/484
f 485/485/485 487/487/487 486/486/486
f 487/487/487 485/485/485 488/488/488
f 489/489/489 491/491/491 490/490/490
f 491/491/491 489/489/489 492/492/492
f 493/493/493 495/495/495 494/494/494
f 495/495/495 493/493/493 496/496/496

g wwe00
# texture: wwe00.jpg
v 1.7302 -0.232796 -111.737
v 2.9303 4.675499 -88.4576
v 5.7641 -0.232803 -88.4576
v 0.9133 1.181999 -111.737
v -2.7374 4.675499 -88.4576
v -0.7204 1.181999 -111.737
v -5.5712 -0.232803 -88.4576
v -1.5373 -0.232796 -111.737
v -2.7374 -5.141098 -88.4576
v -0.7204 -1.647697 -111.737
v 2.9303 -5.141098 -88.4576
v 0.9133 -1.647697 -111.737
v 0.9133 -1.647697 -111.737
v 2.9303 -5.141098 -88.4576
v 7.1053 11.9068 -60.791
v 14.1141 -0.232796 -60.791
v -6.9124 11.9068 -60.791
v -13.9212 -0.232796 -60.791
v -6.9124 -12.3725 -60.79099
v 7.1053 -12.3725 -60.79099
v 7.1053 -12.3725 -60.79099
vn 0.968077 0.186296 -0.167696
vn 0.488294 0.841689 -0.230497
vn 0.973072 -0.0021 -0.230493
vn 0.322708 0.931523 -0.167704
vn -0.484802 0.843704 -0.230501
vn -0.645404 0.745205 -0.167701
vn -0.973072 0.0021 -0.230493
vn -0.968077 -0.186295 -0.167696
vn -0.488294 -0.841689 -0.230497
vn -0.322708 -0.931523 -0.167704
vn 0.484802 -0.843704 -0.230501
vn 0.645404 -0.745205 -0.167701
vn 0.645404 -0.745205 -0.167701
vn 0.484802 -0.843704 -0.230501
vn 0.627665 0.72476 -0.284184
vn 0.941488 -0.181198 -0.284196
vn -0.313788 0.905966 -0.284189
vn -0.941488 0.181198 -0.284196
vn -0.627665 -0.724759 -0.284184
vn 0.313788 -0.905966 -0.284189
vn 0.313788 -0.905966 -0.284189
vt 0.75 0.9995
vt 0.5936 0.543
vt 0.75 0.543
vt 0.5936 0.9995
vt 0.4064 0.543
vt 0.4064 0.9995
vt 0.25 0.543
vt 0.25 0.9995
vt 0.0936 0.543
vt 0.0936 0.9995
vt -0.0936 0.543
vt -0.0936 0.9995
vt 0.9064 0.9995
vt 0.9064 0.543
vt 0.5936 0.0005
vt 0.75 0.0005
vt 0.4064 0.0005
vt 0.25 0.0005
vt 0.0936 0.0005
vt -0.0936 0.0005
vt 0.9064 0.0005
f 497/497/497 499/499/499 498/498/498
f 497/497/497 498/498/498 500/500/500
f 500/500/500 498/498/498 501/501/501
f 500/500/500 501/501/501 502/502/502
f 502/502/502 501/501/501 503/503/503
f 502/502/502 503/503/503 504/504/504
f 504/504/504 503/503/503 505/505/505
f 504/504/504 505/505/505 506/506/506
f 506/506/506 505/505/505 507/507/507
f 506/506/506 507/507/507 508/508/508
f 509/509/509 510/510/510 499/499/499
f 509/509/509 499/499/499 497/497/497
f 499/499/499 512/512/512 511/511/511
f 499/499/499 511/511/511 498/498/498
f 498/498/498 511/511/511 513/513/513
f 498/498/498 513/513/513 501/501/501
f 501/501/501 513/513/513 514/514/514
f 501/501/501 514/514/514 503/503/503
f 503/503/503 514/514/514 515/515/515
f 503/503/503 515/515/515 505/505/505
f 505/505/505 515/515/515 516/516/516
f 505/505/505 516/516/516 507/507/507
f 510/510/510 517/517/517 512/512/512
f 510/510/510 512/512/512 499/499/499
