# Staff11.bmd — MU geometry at action 0 key 0, exported for MU2
# 2 mesh(es)

g wand44_R
# texture: wand44_R.jpg
v 0.131391 6.717487 -82.09036
v -3.264421 9.749889 -104.7345
v 0.131407 8.2122 -104.8691
v -3.264391 8.255184 -81.95578
v 0.131407 8.2122 -104.8691
v -3.264421 9.749889 -104.7345
v 0.131391 3.349392 -155.2345
v 0.131407 7.701199 -142.1448
v -3.264406 15.17709 -105.2353
v 0.131407 17.33919 -114.3073
v -3.264406 5.621105 -139.9519
v 0.131407 21.90648 -121.9695
v 0.131407 21.90648 -121.9695
v -3.264406 15.17709 -105.2353
v 0.131391 19.73399 -103.0687
v -3.264406 13.43908 -88.43768
v 0.131407 16.82508 -93.28159
v -3.264406 17.88069 -77.04399
v 0.131391 18.10809 -90.3503
v 0.131178 25.06749 -98.13087
v 0.131407 8.306694 -57.82738
v -3.264391 8.255184 -81.95578
v 0.131391 6.717487 -82.09036
v -3.264421 9.749889 -104.7345
v -3.264406 5.621105 -139.9519
v 0.131391 3.349392 -155.2345
v -3.264406 15.17709 -105.2353
v -3.264406 17.88069 -77.04399
v -3.264391 8.255184 -81.95578
v -3.264406 10.08569 -67.50378
v -3.264406 13.43908 -88.43768
v -3.264406 10.08569 -67.50378
v 0.131399 6.654095 -45.02649
v -3.264399 21.34849 -63.22708
v 0.131399 18.896 -64.04578
v -3.264399 11.4425 -44.96999
v 0.131399 18.896 -64.04578
v -3.264399 21.34849 -63.22708
v 0.131407 34.38489 -89.33229
v 0.131399 28.8145 -64.30418
v -3.264399 24.53529 -57.5583
v 0.131391 34.33329 -65.7119
v 0.131391 34.33329 -65.7119
v -3.264399 24.53529 -57.5583
v 0.131391 28.1997 -54.62268
v -3.264399 14.9847 -44.67279
v 0.131391 20.6517 -45.99319
v -3.264399 18.03389 -38.36778
v 0.131407 20.51379 -42.91409
v 0.131193 29.78299 -47.6806
v 0.131399 10.06039 -11.71699
v -3.264399 11.4425 -44.96999
v 0.131399 6.654095 -45.02649
v -3.264399 21.34849 -63.22708
v -3.264399 24.53529 -57.5583
v 0.131407 34.38489 -89.33229
v -3.264399 18.03389 -38.36778
v -3.264399 11.4425 -44.96999
v -3.264406 12.5885 -29.29539
v -3.264399 14.9847 -44.67279
v -3.264406 12.5885 -29.29539
v 0.131407 3.679813 124.3822
v -3.264399 13.1628 102.9986
v 0.131403 10.582 102.8425
v -3.264395 8.319614 123.1975
v 0.131403 10.582 102.8425
v -3.264399 13.1628 102.9986
v 0.131403 6.960903 78.7173
v 0.131399 20.0956 100.0258
v -3.264399 17.70811 107.6494
v 0.131403 25.062 97.2377
v 0.131403 25.062 97.2377
v -3.264399 17.70811 107.6494
v 0.131403 22.00751 109.5366
v -3.264399 11.81801 122.5677
v 0.131407 16.95011 119.8256
v -3.264391 16.39511 127.8687
v 0.131403 17.94311 122.7697
v 0.131205 25.33351 115.8323
v 0.131407 8.561512 167.8062
v -3.264395 8.319614 123.1975
v 0.131407 3.679813 124.3822
v -3.264399 13.1628 102.9986
v -3.264399 17.70811 107.6494
v 0.131403 6.960903 78.7173
v -3.264391 16.39511 127.8687
v -3.264395 8.319614 123.1975
v -3.264391 9.55011 145.5579
v -3.264399 11.81801 122.5677
v -3.264391 9.55011 145.5579
v 0.131391 6.717487 -82.09036
v 0.131407 8.2122 -104.8691
v 3.527205 9.749889 -104.7345
v 3.527189 8.255184 -81.95578
v 0.131407 8.2122 -104.8691
v 0.131391 3.349392 -155.2345
v 3.527205 9.749889 -104.7345
v 0.131407 7.701199 -142.1448
v 0.131407 17.33919 -114.3073
v 3.527205 15.1771 -105.2353
v 3.527189 5.621098 -139.952
v 0.131407 21.90648 -121.9695
v 0.131407 21.90648 -121.9695
v 0.131391 19.73399 -103.0687
v 3.527205 15.1771 -105.2353
v 0.131407 16.82508 -93.28159
v 3.527205 13.43908 -88.43768
v 0.131391 18.10809 -90.3503
v 3.527189 17.88068 -77.04399
v 0.131697 25.06749 -98.13087
v 0.131407 8.306694 -57.82738
v 0.131391 6.717487 -82.09036
v 3.527189 8.255184 -81.95578
v 3.527205 9.749889 -104.7345
v 0.131391 3.349392 -155.2345
v 3.527189 5.621098 -139.952
v 3.527205 15.1771 -105.2353
v 3.527189 17.88068 -77.04399
v 3.527205 10.08569 -67.50378
v 3.527189 8.255184 -81.95578
v 3.527205 13.43908 -88.43768
v 3.527205 10.08569 -67.50378
v 0.131399 6.654095 -45.02649
v 0.131399 18.896 -64.04578
v 3.527205 21.34849 -63.22709
v 3.527197 11.4425 -44.96999
v 0.131399 18.896 -64.04578
v 0.131407 34.38489 -89.33229
v 3.527205 21.34849 -63.22709
v 0.131399 28.8145 -64.30418
v 0.131391 34.33329 -65.7119
v 3.527205 24.53529 -57.55829
v 0.131391 34.33329 -65.7119
v 0.131391 28.1997 -54.62268
v 3.527205 24.53529 -57.55829
v 0.131391 20.6517 -45.99319
v 3.527189 14.9847 -44.67279
v 0.131407 20.51379 -42.91409
v 3.527197 18.0339 -38.3678
v 0.131697 29.78299 -47.68059
v 0.131399 10.06039 -11.71699
v 0.131399 6.654095 -45.02649
v 3.527197 11.4425 -44.96999
v 3.527205 21.34849 -63.22709
v 0.131407 34.38489 -89.33229
v 3.527205 24.53529 -57.55829
v 3.527197 18.0339 -38.3678
v 3.527189 12.5885 -29.29539
v 3.527197 11.4425 -44.96999
v 3.527189 14.9847 -44.67279
v 3.527189 12.5885 -29.29539
v 0.131407 3.679813 124.3822
v 0.131403 10.582 102.8425
v 3.527201 13.16281 102.9986
v 3.527205 8.319611 123.1975
v 0.131403 10.582 102.8425
v 0.131403 6.960903 78.7173
v 3.527201 13.16281 102.9986
v 0.131399 20.0956 100.0258
v 0.131403 25.062 97.2377
v 3.527205 17.70811 107.6494
v 0.131403 25.062 97.2377
v 0.131403 22.00751 109.5366
v 3.527205 17.70811 107.6494
v 0.131407 16.95011 119.8256
v 3.527205 11.81801 122.5677
v 0.131403 17.94311 122.7697
v 3.527205 16.39511 127.8687
v 0.1317 25.33351 115.8323
v 0.131407 8.561512 167.8061
v 0.131407 3.679813 124.3822
v 3.527205 8.319611 123.1975
v 3.527201 13.16281 102.9986
v 0.131403 6.960903 78.7173
v 3.527205 17.70811 107.6494
v 3.527205 16.39511 127.8687
v 3.527205 9.550114 145.5579
v 3.527205 8.319611 123.1975
v 3.527205 11.81801 122.5677
v 3.527205 9.550114 145.5579
v 0.131391 -6.070812 -82.09027
v 0.131376 -7.565403 -104.869
v -3.264406 -9.10321 -104.7345
v -3.264406 -7.608513 -81.95578
v 0.131376 -7.565403 -104.869
v 0.131391 -2.702717 -155.2345
v -3.264406 -9.10321 -104.7345
v 0.131391 -7.054508 -142.1448
v 0.131407 -16.6925 -114.3073
v -3.264406 -14.53041 -105.2353
v -3.264406 -4.974407 -139.9519
v 0.131407 -21.25972 -121.9695
v 0.131407 -21.25972 -121.9695
v 0.131407 -19.08731 -103.0686
v -3.264406 -14.53041 -105.2353
v 0.131391 -16.17842 -93.28148
v -3.264406 -12.79241 -88.43768
v 0.131391 -17.46142 -90.35028
v -3.264391 -17.234 -77.04388
v 0.131178 -24.4208 -98.13077
v 0.131391 -7.660007 -57.82738
v 0.131391 -6.070812 -82.09027
v -3.264406 -7.608513 -81.95578
v -3.264406 -9.10321 -104.7345
v 0.131391 -2.702717 -155.2345
v -3.264406 -4.974407 -139.9519
v -3.264406 -14.53041 -105.2353
v -3.264391 -17.234 -77.04388
v -3.264406 -9.439003 -67.50378
v -3.264406 -7.608513 -81.95578
v -3.264406 -12.79241 -88.43768
v -3.264406 -9.439003 -67.50378
v 0.131407 -6.007401 -45.02638
v 0.131407 -18.24931 -64.04578
v -3.264406 -20.7018 -63.22707
v -3.264391 -10.7958 -44.96988
v 0.131407 -18.24931 -64.04578
v 0.131407 -33.73822 -89.33218
v -3.264406 -20.7018 -63.22707
v 0.131407 -28.1678 -64.30417
v 0.131391 -33.6866 -65.71187
v -3.264391 -23.88849 -57.55828
v 0.131391 -33.6866 -65.71187
v 0.131407 -27.553 -54.62268
v -3.264391 -23.88849 -57.55828
v 0.131391 -20.00491 -45.99318
v -3.264399 -14.33801 -44.67278
v 0.131399 -19.86711 -42.91399
v -3.264391 -17.3872 -38.36778
v 0.131193 -29.1362 -47.68058
v 0.131399 -9.413708 -11.71699
v 0.131407 -6.007401 -45.02638
v -3.264391 -10.7958 -44.96988
v -3.264406 -20.7018 -63.22707
v 0.131407 -33.73822 -89.33218
v -3.264391 -23.88849 -57.55828
v -3.264391 -17.3872 -38.36778
v -3.264399 -11.9418 -29.29529
v -3.264391 -10.7958 -44.96988
v -3.264399 -14.33801 -44.67278
v -3.264399 -11.9418 -29.29529
v 0.131407 -3.032986 124.3823
v 0.131403 -9.935291 102.8425
v -3.264395 -12.51609 102.9986
v -3.264391 -7.672886 123.1975
v 0.131403 -9.935291 102.8425
v 0.131405 -6.314198 78.71731
v -3.264395 -12.51609 102.9986
v 0.131405 -19.44889 100.0259
v 0.131403 -24.41529 97.23781
v -3.264397 -17.06139 107.6495
v 0.131403 -24.41529 97.23781
v 0.131403 -21.36079 109.5366
v -3.264397 -17.06139 107.6495
v 0.131411 -16.30339 119.8257
v -3.264395 -11.17128 122.5677
v 0.131407 -17.29639 122.7697
v -3.264391 -15.74839 127.8687
v 0.131205 -24.68679 115.8324
v 0.131399 -7.914783 167.8062
v 0.131407 -3.032986 124.3823
v -3.264391 -7.672886 123.1975
v -3.264395 -12.51609 102.9986
v 0.131405 -6.314198 78.71731
v -3.264397 -17.06139 107.6495
v -3.264391 -15.74839 127.8687
v -3.264399 -8.903385 145.558
v -3.264391 -7.672886 123.1975
v -3.264395 -11.17128 122.5677
v -3.264399 -8.903385 145.558
v 0.131391 -6.070812 -82.09027
v 3.527189 -9.103218 -104.7345
v 0.131376 -7.565403 -104.869
v 3.527189 -7.608509 -81.95578
v 0.131376 -7.565403 -104.869
v 3.527189 -9.103218 -104.7345
v 0.131391 -2.702717 -155.2345
v 0.131391 -7.054508 -142.1448
v 3.527189 -14.53041 -105.2353
v 0.131407 -16.6925 -114.3073
v 3.527189 -4.974415 -139.9519
v 0.131407 -21.25972 -121.9695
v 0.131407 -21.25972 -121.9695
v 3.527189 -14.53041 -105.2353
v 0.131407 -19.08731 -103.0686
v 3.527189 -12.79242 -88.43768
v 0.131391 -16.17842 -93.28148
v 3.527205 -17.23401 -77.04388
v 0.131391 -17.46142 -90.35028
v 0.131697 -24.4208 -98.13077
v 0.131391 -7.660007 -57.82738
v 3.527189 -7.608509 -81.95578
v 0.131391 -6.070812 -82.09027
v 3.527189 -9.103218 -104.7345
v 3.527189 -4.974415 -139.9519
v 0.131391 -2.702717 -155.2345
v 3.527189 -14.53041 -105.2353
v 3.527205 -17.23401 -77.04388
v 3.527189 -7.608509 -81.95578
v 3.527205 -9.439007 -67.50378
v 3.527189 -12.79242 -88.43768
v 3.527205 -9.439007 -67.50378
v 0.131407 -6.007401 -45.02649
v 3.527205 -20.70181 -63.22708
v 0.131407 -18.24931 -64.04578
v 3.527205 -10.7958 -44.96988
v 0.131407 -18.24931 -64.04578
v 3.527205 -20.70181 -63.22708
v 0.131407 -33.73822 -89.33218
v 0.131407 -28.1678 -64.30417
v 3.527205 -23.8885 -57.55829
v 0.131391 -33.6866 -65.71187
v 0.131391 -33.6866 -65.71187
v 3.527205 -23.8885 -57.55829
v 0.131407 -27.553 -54.62268
v 3.527205 -14.33801 -44.67279
v 0.131391 -20.00491 -45.99318
v 3.527205 -17.3872 -38.36778
v 0.131407 -19.86711 -42.91409
v 0.131697 -29.1362 -47.68058
v 0.131399 -9.413708 -11.71699
v 3.527205 -10.7958 -44.96988
v 0.131407 -6.007401 -45.02649
v 3.527205 -20.70181 -63.22708
v 3.527205 -23.8885 -57.55829
v 0.131407 -33.73822 -89.33218
v 3.527205 -17.3872 -38.36778
v 3.527205 -10.7958 -44.96988
v 3.527205 -11.9418 -29.29529
v 3.527205 -14.33801 -44.67279
v 3.527205 -11.9418 -29.29529
v 0.131407 -3.032986 124.3822
v 3.527205 -12.51609 102.9986
v 0.131403 -9.935291 102.8425
v 3.527205 -7.67289 123.1975
v 0.131403 -9.935291 102.8425
v 3.527205 -12.51609 102.9986
v 0.131405 -6.314198 78.71731
v 0.131405 -19.44889 100.0258
v 3.527205 -17.06139 107.6494
v 0.131403 -24.41529 97.23772
v 0.131403 -24.41529 97.23772
v 3.527205 -17.06139 107.6494
v 0.131403 -21.36079 109.5366
v 3.527201 -11.17129 122.5677
v 0.131411 -16.30339 119.8256
v 3.527205 -15.74839 127.8687
v 0.131407 -17.29639 122.7697
v 0.131706 -24.68679 115.8323
v 0.131399 -7.914783 167.8062
v 3.527205 -7.67289 123.1975
v 0.131407 -3.032986 124.3822
v 3.527205 -12.51609 102.9986
v 3.527205 -17.06139 107.6494
v 0.131405 -6.314198 78.71731
v 3.527205 -15.74839 127.8687
v 3.527205 -7.67289 123.1975
v 3.527205 -8.903393 145.5579
v 3.527201 -11.17129 122.5677
v 3.527205 -8.903393 145.5579
v 0.242605 0.044323 188.5718
v 5.491808 0.044315 138.5251
v 0.242605 5.293514 138.5251
v 0.242605 5.293514 138.5251
v -5.006594 0.044315 138.5251
v -5.006594 0.044315 138.5251
v 0.242605 -5.204891 138.5251
v 0.242605 0.044323 188.5718
v 0.242605 -5.204891 138.5251
v 5.491808 0.044315 138.5251
v 0.242605 0.044315 123.2881
v 0.242605 5.293514 138.5251
v -5.006594 0.044315 138.5251
v 0.242605 5.293514 138.5251
v -5.006594 0.044315 138.5251
v 0.242605 0.044315 123.2881
v 0.242582 0.044292 -87.10239
v 5.491789 0.044285 -117.5582
v 0.242613 5.293491 -117.5582
v 0.242613 5.293491 -117.5582
v -5.006609 0.044285 -117.5582
v -5.006609 0.044285 -117.5582
v 0.242598 -5.204914 -117.5582
v 0.242582 0.044292 -87.10239
v 0.242598 -5.204914 -117.5582
v 5.491789 0.044285 -117.5582
v 0.242598 0.044292 -154.4789
v 0.242613 5.293491 -117.5582
v -5.006609 0.044285 -117.5582
v 0.242613 5.293491 -117.5582
v -5.006609 0.044285 -117.5582
v 0.242598 0.044292 -154.4789
vn -0.413723 -0.90845 -0.059603
vn -0.413723 -0.90845 -0.059603
vn -0.413723 -0.90845 -0.059603
vn -0.413723 -0.90845 -0.059603
vn -0.408022 -0.90875 0.087705
vn -0.408022 -0.90875 0.087705
vn -0.97612 -0.154503 -0.152703
vn -0.691603 0.689003 -0.216701
vn -0.898127 0.274908 -0.34321
vn -0.926355 -0.084796 -0.366982
vn -0.611921 0.756827 -0.229708
vn -0.634522 -0.663923 -0.395713
vn -0.814904 0.575803 0.0662
vn -0.814388 0.576891 0.062999
vn -0.720832 0.68113 0.128306
vn -0.735585 0.676486 0.035799
vn -0.758017 0.649615 -0.058401
vn -0.935071 0.264392 -0.236093
vn -0.963311 0.112001 -0.243903
vn -0.931564 -0.27099 -0.242391
vn -0.540887 -0.83748 0.077898
vn -0.540887 -0.83748 0.077898
vn -0.40981 -0.910222 0.059602
vn -0.953676 -0.298792 0.034999
vn -0.754703 -0.651603 0.0764
vn -0.139106 -0.983542 0.115305
vn -1 0 -0
vn -1 0 -0
vn -1 0 -0
vn -1 0 -0
vn -1 0 -0
vn -0.659689 -0.745587 0.094399
vn -0.693013 -0.618612 -0.370207
vn -0.693013 -0.618612 -0.370207
vn -0.593722 -0.676625 -0.435516
vn -0.78021 -0.549807 -0.298304
vn -0.595786 -0.684884 -0.41949
vn -0.595786 -0.684884 -0.41949
vn -0.977761 0.062498 -0.200192
vn -0.89888 0.385792 -0.207796
vn -0.89888 0.385792 -0.207796
vn -0.849974 -0.130196 -0.510484
vn -0.806201 0.517701 0.2864
vn -0.808796 0.494698 0.317998
vn -0.777792 0.509095 0.368596
vn -0.832625 0.513616 0.207206
vn -0.754473 0.648777 0.099296
vn -0.850181 0.388991 -0.354792
vn -0.833489 0.333295 -0.440694
vn -0.65058 -0.347289 -0.675379
vn -0.781137 -0.622029 0.053903
vn -0.781137 -0.622029 0.053903
vn -0.813943 -0.577931 0.059103
vn -0.998919 0.040501 -0.022801
vn -0.997564 0.060798 -0.034199
vn -0.990271 0.121296 -0.068198
vn -1 0 -0
vn -1 0 -0
vn -1 0 -0
vn -1 0 -0
vn -0.745891 -0.664292 0.048599
vn -0.692993 -0.693393 -0.197398
vn -0.692993 -0.693393 -0.197398
vn -0.593696 -0.766294 -0.245598
vn -0.780201 -0.608301 -0.1458
vn -0.597319 -0.793126 0.119004
vn -0.597319 -0.793126 0.119004
vn -0.964818 -0.246705 -0.090902
vn -0.919801 0.0853 -0.383001
vn -0.919801 0.0853 -0.383001
vn -0.849974 -0.257892 -0.459386
vn -0.806201 0.5742 0.1426
vn -0.808776 0.560184 0.179095
vn -0.777784 0.587188 0.224195
vn -0.832592 0.549795 0.067199
vn -0.789106 0.607404 -0.091501
vn -0.860692 0.220298 -0.458996
vn -0.842128 0.105203 -0.528917
vn -0.616414 -0.538913 -0.574114
vn -0.691328 -0.720329 0.056502
vn -0.691328 -0.720329 0.056502
vn -0.813092 -0.578495 0.064999
vn -0.996135 0.062802 -0.061402
vn -0.991266 0.094297 -0.092197
vn -0.96522 0.187004 -0.182704
vn -1 0 -0
vn -1 0 -0
vn -1 0 -0
vn -1 0 -0
vn -0.545403 -0.836905 0.0461
vn 0.413723 -0.90845 -0.059603
vn 0.413723 -0.90845 -0.059603
vn 0.413723 -0.90845 -0.059603
vn 0.413723 -0.90845 -0.059603
vn 0.408022 -0.90875 0.087705
vn 0.97612 -0.154503 -0.152703
vn 0.408022 -0.90875 0.087705
vn 0.691603 0.689003 -0.216701
vn 0.926355 -0.084796 -0.366982
vn 0.898127 0.274908 -0.34321
vn 0.611921 0.756827 -0.229708
vn 0.634522 -0.663923 -0.395713
vn 0.814904 0.575803 0.0662
vn 0.720832 0.681131 0.128306
vn 0.814388 0.576891 0.062999
vn 0.758017 0.649615 -0.058401
vn 0.735585 0.676486 0.035799
vn 0.963311 0.112001 -0.243903
vn 0.935071 0.264392 -0.236093
vn 0.931564 -0.27099 -0.242391
vn 0.540887 -0.83748 0.077898
vn 0.40981 -0.910222 0.059602
vn 0.540887 -0.83748 0.077898
vn 0.953676 -0.298793 0.034999
vn 0.139106 -0.983542 0.115305
vn 0.754703 -0.651603 0.0764
vn 1 -0 -0
vn 1 -0 -0
vn 1 -0 -0
vn 1 -0 -0
vn 1 -0 -0
vn 0.659689 -0.745587 0.094399
vn 0.693013 -0.618612 -0.370207
vn 0.593722 -0.676625 -0.435516
vn 0.693013 -0.618612 -0.370207
vn 0.78021 -0.549807 -0.298304
vn 0.595786 -0.684884 -0.41949
vn 0.977761 0.062498 -0.200192
vn 0.595786 -0.684884 -0.41949
vn 0.89888 0.385792 -0.207796
vn 0.849974 -0.130196 -0.510484
vn 0.89888 0.385792 -0.207796
vn 0.806201 0.517701 0.2864
vn 0.777792 0.509094 0.368596
vn 0.808796 0.494698 0.317998
vn 0.754473 0.648777 0.099296
vn 0.832625 0.513616 0.207206
vn 0.833489 0.333295 -0.440694
vn 0.850181 0.388991 -0.354792
vn 0.65058 -0.347289 -0.675379
vn 0.781137 -0.622029 0.053903
vn 0.813943 -0.577931 0.059103
vn 0.781137 -0.622029 0.053903
vn 0.998919 0.040501 -0.0228
vn 0.990271 0.121296 -0.068198
vn 0.997564 0.060798 -0.034199
vn 1 -0 -0
vn 1 -0 -0
vn 1 -0 -0
vn 1 -0 -0
vn 0.745891 -0.664292 0.0486
vn 0.692993 -0.693393 -0.197398
vn 0.593696 -0.766295 -0.245598
vn 0.692993 -0.693393 -0.197398
vn 0.780201 -0.6083 -0.1458
vn 0.597319 -0.793126 0.119004
vn 0.964818 -0.246705 -0.090902
vn 0.597319 -0.793126 0.119004
vn 0.919801 0.0853 -0.383001
vn 0.849974 -0.257892 -0.459386
vn 0.919801 0.0853 -0.383001
vn 0.806201 0.5742 0.1426
vn 0.777784 0.587188 0.224195
vn 0.808776 0.560184 0.179095
vn 0.789106 0.607404 -0.091501
vn 0.832592 0.549795 0.067199
vn 0.842119 0.105302 -0.528912
vn 0.860693 0.220298 -0.458996
vn 0.616415 -0.538913 -0.574113
vn 0.691328 -0.720329 0.056502
vn 0.813092 -0.578495 0.065
vn 0.691328 -0.720329 0.056502
vn 0.996135 0.062802 -0.061402
vn 0.96522 0.187004 -0.182704
vn 0.991266 0.094297 -0.092197
vn 1 -0 -0
vn 1 -0 -0
vn 1 -0 -0
vn 1 -0 -0
vn 0.545403 -0.836905 0.0461
vn -0.413723 0.90845 -0.059603
vn -0.413723 0.90845 -0.059603
vn -0.413723 0.90845 -0.059603
vn -0.413723 0.90845 -0.059603
vn -0.408022 0.90875 0.087705
vn -0.97612 0.154503 -0.152703
vn -0.408022 0.90875 0.087705
vn -0.691603 -0.689003 -0.216701
vn -0.926355 0.084796 -0.366982
vn -0.898127 -0.274908 -0.34321
vn -0.611921 -0.756827 -0.229708
vn -0.634522 0.663923 -0.395714
vn -0.814904 -0.575803 0.0662
vn -0.720832 -0.68113 0.128306
vn -0.814388 -0.576891 0.062999
vn -0.758017 -0.649615 -0.058401
vn -0.735585 -0.676486 0.035799
vn -0.963311 -0.112001 -0.243903
vn -0.935071 -0.264392 -0.236093
vn -0.931564 0.27099 -0.242391
vn -0.540887 0.83748 0.077898
vn -0.40981 0.910222 0.059601
vn -0.540887 0.83748 0.077898
vn -0.953676 0.298793 0.034999
vn -0.139106 0.983542 0.115305
vn -0.754703 0.651603 0.0764
vn -1 0 -0
vn -1 0 -0
vn -1 0 -0
vn -1 0 -0
vn -1 0 -0
vn -0.659689 0.745587 0.094398
vn -0.693013 0.618611 -0.370207
vn -0.593722 0.676625 -0.435516
vn -0.693013 0.618611 -0.370207
vn -0.78021 0.549807 -0.298304
vn -0.595786 0.684884 -0.419491
vn -0.977761 -0.062498 -0.200192
vn -0.595786 0.684884 -0.419491
vn -0.898881 -0.385792 -0.207796
vn -0.849974 0.130196 -0.510484
vn -0.898881 -0.385792 -0.207796
vn -0.806201 -0.517701 0.286401
vn -0.777792 -0.509094 0.368596
vn -0.808796 -0.494698 0.317999
vn -0.754473 -0.648777 0.099296
vn -0.832625 -0.513616 0.207206
vn -0.833489 -0.333295 -0.440694
vn -0.850181 -0.388992 -0.354792
vn -0.65058 0.347289 -0.675379
vn -0.781137 0.622029 0.053902
vn -0.813943 0.577931 0.059103
vn -0.781137 0.622029 0.053902
vn -0.998919 -0.040501 -0.0228
vn -0.990271 -0.121296 -0.068198
vn -0.997564 -0.060798 -0.034199
vn -1 0 -0
vn -1 0 -0
vn -1 0 -0
vn -1 0 -0
vn -0.745891 0.664292 0.048599
vn -0.692993 0.693393 -0.197398
vn -0.593696 0.766294 -0.245598
vn -0.692993 0.693393 -0.197398
vn -0.780201 0.6083 -0.1458
vn -0.597319 0.793126 0.119004
vn -0.964818 0.246705 -0.090902
vn -0.597319 0.793126 0.119004
vn -0.919801 -0.0853 -0.383001
vn -0.849974 0.257892 -0.459386
vn -0.919801 -0.0853 -0.383001
vn -0.806201 -0.5742 0.1426
vn -0.777784 -0.587188 0.224195
vn -0.808777 -0.560184 0.179095
vn -0.789106 -0.607404 -0.091501
vn -0.832592 -0.549795 0.067199
vn -0.842128 -0.105204 -0.528917
vn -0.860693 -0.220298 -0.458996
vn -0.616415 0.538913 -0.574114
vn -0.691328 0.720329 0.056502
vn -0.813093 0.578495 0.064999
vn -0.691328 0.720329 0.056502
vn -0.996135 -0.062802 -0.061402
vn -0.96522 -0.187004 -0.182704
vn -0.991266 -0.094297 -0.092197
vn -1 0 -0
vn -1 0 -0
vn -1 0 -0
vn -1 0 -0
vn -0.545403 0.836905 0.0461
vn 0.413723 0.90845 -0.059603
vn 0.413723 0.90845 -0.059603
vn 0.413723 0.90845 -0.059603
vn 0.413723 0.90845 -0.059603
vn 0.408022 0.90875 0.087705
vn 0.408022 0.90875 0.087705
vn 0.97612 0.154503 -0.152703
vn 0.691603 -0.689003 -0.216701
vn 0.898127 -0.274908 -0.34321
vn 0.926355 0.084796 -0.366982
vn 0.611922 -0.756827 -0.229708
vn 0.634522 0.663923 -0.395714
vn 0.814904 -0.575803 0.066201
vn 0.814388 -0.576891 0.062999
vn 0.720832 -0.68113 0.128306
vn 0.735585 -0.676486 0.035799
vn 0.758017 -0.649615 -0.058401
vn 0.935071 -0.264392 -0.236093
vn 0.963311 -0.112001 -0.243903
vn 0.931564 0.27099 -0.242391
vn 0.540887 0.83748 0.077898
vn 0.540887 0.83748 0.077898
vn 0.40981 0.910222 0.059601
vn 0.953676 0.298793 0.034999
vn 0.754703 0.651603 0.0764
vn 0.139106 0.983542 0.115305
vn 1 -0 -0
vn 1 -0 -0
vn 1 -0 -0
vn 1 -0 -0
vn 1 -0 -0
vn 0.659688 0.745587 0.094398
vn 0.693013 0.618611 -0.370207
vn 0.693013 0.618611 -0.370207
vn 0.593722 0.676625 -0.435516
vn 0.78021 0.549807 -0.298304
vn 0.595786 0.684884 -0.419491
vn 0.595786 0.684884 -0.419491
vn 0.977761 -0.062498 -0.200192
vn 0.89888 -0.385792 -0.207795
vn 0.89888 -0.385792 -0.207795
vn 0.849974 0.130196 -0.510484
vn 0.806201 -0.517701 0.286401
vn 0.808796 -0.494698 0.317999
vn 0.777792 -0.509095 0.368596
vn 0.832625 -0.513616 0.207206
vn 0.754473 -0.648777 0.099297
vn 0.850181 -0.388992 -0.354792
vn 0.833461 -0.333384 -0.440679
vn 0.65058 0.347289 -0.675379
vn 0.781137 0.622029 0.053902
vn 0.781137 0.622029 0.053902
vn 0.813943 0.577931 0.059103
vn 0.998919 -0.040501 -0.0228
vn 0.997564 -0.060798 -0.034199
vn 0.990271 -0.121297 -0.068198
vn 1 -0 -0
vn 1 -0 -0
vn 1 -0 -0
vn 1 -0 -0
vn 0.745891 0.664292 0.048599
vn 0.692993 0.693393 -0.197398
vn 0.692993 0.693393 -0.197398
vn 0.593696 0.766294 -0.245599
vn 0.780201 0.6083 -0.1458
vn 0.597319 0.793126 0.119004
vn 0.597319 0.793126 0.119004
vn 0.964818 0.246705 -0.090902
vn 0.919801 -0.0853 -0.383001
vn 0.919801 -0.0853 -0.383001
vn 0.849974 0.257892 -0.459386
vn 0.806201 -0.5742 0.1426
vn 0.808777 -0.560184 0.179095
vn 0.777784 -0.587188 0.224195
vn 0.832592 -0.549795 0.0672
vn 0.789106 -0.607404 -0.0915
vn 0.860693 -0.220298 -0.458996
vn 0.842128 -0.105204 -0.528917
vn 0.616414 0.538913 -0.574114
vn 0.691328 0.720329 0.056502
vn 0.691328 0.720329 0.056502
vn 0.813092 0.578495 0.064999
vn 0.996135 -0.062802 -0.061402
vn 0.991266 -0.094297 -0.092197
vn 0.96522 -0.187004 -0.182704
vn 1 -0 -0
vn 1 -0 -0
vn 1 -0 -0
vn 1 -0 -0
vn 0.545403 0.836905 0.0461
vn 0 0 1
vn 0.993237 0 -0.116104
vn -0 0.993237 -0.116105
vn -0 0.993237 -0.116105
vn -0.993237 0 -0.116104
vn -0.993237 0 -0.116104
vn 0 -0.993237 -0.116104
vn 0 0 1
vn 0 -0.993237 -0.116104
vn 0.993237 0 -0.116104
vn -0 -0 -1
vn -0 0.993237 -0.116105
vn -0.993237 0 -0.116104
vn -0 0.993237 -0.116105
vn -0.993237 0 -0.116104
vn -0 -0 -1
vn 0 0 1
vn 0.999889 0 0.0149
vn 0 0.999889 0.0149
vn 0 0.999889 0.0149
vn -0.999889 0 0.0149
vn -0.999889 0 0.0149
vn 0 -0.999889 0.0149
vn 0 0 1
vn 0 -0.999889 0.0149
vn 0.999889 0 0.0149
vn -0 -0 -1
vn 0 0.999889 0.0149
vn -0.999889 0 0.0149
vn 0 0.999889 0.0149
vn -0.999889 0 0.0149
vn -0 -0 -1
vt 0.0215 0.3857
vt 0.0659 0.5285
vt 0.0005 0.5285
vt 0.087 0.3857
vt 0.0005 0.5285
vt 0.0659 0.5285
vt 0.0021 0.9995
vt 0.2201 0.8564
vt 0.2933 0.5345
vt 0.3511 0.5922
vt 0.1404 0.8416
vt 0.5157 0.6425
vt 0.5157 0.6425
vt 0.2933 0.5345
vt 0.4938 0.5235
vt 0.282 0.4289
vt 0.4071 0.461
vt 0.5116 0.3604
vt 0.4721 0.4434
vt 0.7373 0.4957
vt 0.1783 0.2354
vt 0.087 0.3857
vt 0.0215 0.3857
vt 0.0659 0.5285
vt 0.1404 0.8416
vt 0.0021 0.9995
vt 0.2933 0.5345
vt 0.5116 0.3604
vt 0.087 0.3857
vt 0.2177 0.2967
vt 0.282 0.4289
vt 0.2177 0.2967
vt 0.1842 0.1906
vt 0.5971 0.2812
vt 0.5175 0.284
vt 0.3352 0.1923
vt 0.5175 0.284
vt 0.5971 0.2812
vt 0.9212 0.4328
vt 0.8294 0.2892
vt 0.7132 0.2561
vt 0.9995 0.298
vt 0.9995 0.298
vt 0.7132 0.2561
vt 0.8368 0.244
vt 0.4477 0.1923
vt 0.6227 0.2008
vt 0.5612 0.1643
vt 0.6374 0.1865
vt 0.9058 0.2123
vt 0.5612 0.0005
vt 0.3352 0.1923
vt 0.1842 0.1906
vt 0.5971 0.2812
vt 0.7132 0.2561
vt 0.9212 0.4328
vt 0.5612 0.1643
vt 0.3352 0.1923
vt 0.5134 0.0884
vt 0.4477 0.1923
vt 0.5134 0.0884
vt 0.1842 0.1906
vt 0.5971 0.2812
vt 0.5175 0.284
vt 0.3352 0.1923
vt 0.5175 0.284
vt 0.5971 0.2812
vt 0.9212 0.4328
vt 0.8294 0.2892
vt 0.7132 0.2561
vt 0.9995 0.298
vt 0.9995 0.298
vt 0.7132 0.2561
vt 0.8368 0.244
vt 0.4477 0.1923
vt 0.6227 0.2008
vt 0.5612 0.1643
vt 0.6374 0.1865
vt 0.9058 0.2123
vt 0.5612 0.0005
vt 0.3352 0.1923
vt 0.1842 0.1906
vt 0.5971 0.2812
vt 0.7132 0.2561
vt 0.9212 0.4328
vt 0.5612 0.1643
vt 0.3352 0.1923
vt 0.5134 0.0884
vt 0.4477 0.1923
vt 0.5134 0.0884
vt 0.0215 0.3857
vt 0.0005 0.5285
vt 0.0659 0.5285
vt 0.087 0.3857
vt 0.0005 0.5285
vt 0.0021 0.9995
vt 0.0659 0.5285
vt 0.2201 0.8564
vt 0.3511 0.5922
vt 0.2933 0.5345
vt 0.1404 0.8416
vt 0.5157 0.6425
vt 0.5157 0.6425
vt 0.4938 0.5235
vt 0.2933 0.5345
vt 0.4071 0.461
vt 0.282 0.4289
vt 0.4721 0.4434
vt 0.5116 0.3604
vt 0.7373 0.4957
vt 0.1783 0.2354
vt 0.0215 0.3857
vt 0.087 0.3857
vt 0.0659 0.5285
vt 0.0021 0.9995
vt 0.1404 0.8416
vt 0.2933 0.5345
vt 0.5116 0.3604
vt 0.2177 0.2967
vt 0.087 0.3857
vt 0.282 0.4289
vt 0.2177 0.2967
vt 0.1842 0.1906
vt 0.5175 0.284
vt 0.5971 0.2812
vt 0.3352 0.1923
vt 0.5175 0.284
vt 0.9212 0.4328
vt 0.5971 0.2812
vt 0.8294 0.2892
vt 0.9995 0.298
vt 0.7132 0.2561
vt 0.9995 0.298
vt 0.8368 0.244
vt 0.7132 0.2561
vt 0.6227 0.2008
vt 0.4477 0.1923
vt 0.6374 0.1865
vt 0.5612 0.1643
vt 0.9058 0.2123
vt 0.5612 0.0005
vt 0.1842 0.1906
vt 0.3352 0.1923
vt 0.5971 0.2812
vt 0.9212 0.4328
vt 0.7132 0.2561
vt 0.5612 0.1643
vt 0.5134 0.0884
vt 0.3352 0.1923
vt 0.4477 0.1923
vt 0.5134 0.0884
vt 0.1842 0.1906
vt 0.5175 0.284
vt 0.5971 0.2812
vt 0.3352 0.1923
vt 0.5175 0.284
vt 0.9212 0.4328
vt 0.5971 0.2812
vt 0.8294 0.2892
vt 0.9995 0.298
vt 0.7132 0.2561
vt 0.9995 0.298
vt 0.8368 0.244
vt 0.7132 0.2561
vt 0.6227 0.2008
vt 0.4477 0.1923
vt 0.6374 0.1865
vt 0.5612 0.1643
vt 0.9058 0.2123
vt 0.5612 0.0005
vt 0.1842 0.1906
vt 0.3352 0.1923
vt 0.5971 0.2812
vt 0.9212 0.4328
vt 0.7132 0.2561
vt 0.5612 0.1643
vt 0.5134 0.0884
vt 0.3352 0.1923
vt 0.4477 0.1923
vt 0.5134 0.0884
vt 0.0215 0.3857
vt 0.0005 0.5285
vt 0.0659 0.5285
vt 0.087 0.3857
vt 0.0005 0.5285
vt 0.0021 0.9995
vt 0.0659 0.5285
vt 0.2201 0.8564
vt 0.3511 0.5922
vt 0.2933 0.5345
vt 0.1404 0.8416
vt 0.5157 0.6425
vt 0.5157 0.6425
vt 0.4938 0.5235
vt 0.2933 0.5345
vt 0.4071 0.461
vt 0.282 0.4289
vt 0.4721 0.4434
vt 0.5116 0.3604
vt 0.7373 0.4957
vt 0.1783 0.2354
vt 0.0215 0.3857
vt 0.087 0.3857
vt 0.0659 0.5285
vt 0.0021 0.9995
vt 0.1404 0.8416
vt 0.2933 0.5345
vt 0.5116 0.3604
vt 0.2177 0.2967
vt 0.087 0.3857
vt 0.282 0.4289
vt 0.2177 0.2967
vt 0.1842 0.1906
vt 0.5175 0.284
vt 0.5971 0.2812
vt 0.3352 0.1923
vt 0.5175 0.284
vt 0.9212 0.4328
vt 0.5971 0.2812
vt 0.8294 0.2892
vt 0.9995 0.298
vt 0.7132 0.2561
vt 0.9995 0.298
vt 0.8368 0.244
vt 0.7132 0.2561
vt 0.6227 0.2008
vt 0.4477 0.1923
vt 0.6374 0.1865
vt 0.5612 0.1643
vt 0.9058 0.2123
vt 0.5612 0.0005
vt 0.1842 0.1906
vt 0.3352 0.1923
vt 0.5971 0.2812
vt 0.9212 0.4328
vt 0.7132 0.2561
vt 0.5612 0.1643
vt 0.5134 0.0884
vt 0.3352 0.1923
vt 0.4477 0.1923
vt 0.5134 0.0884
vt 0.1842 0.1906
vt 0.5175 0.284
vt 0.5971 0.2812
vt 0.3352 0.1923
vt 0.5175 0.284
vt 0.9212 0.4328
vt 0.5971 0.2812
vt 0.8294 0.2892
vt 0.9995 0.298
vt 0.7132 0.2561
vt 0.9995 0.298
vt 0.8368 0.244
vt 0.7132 0.2561
vt 0.6227 0.2008
vt 0.4477 0.1923
vt 0.6374 0.1865
vt 0.5612 0.1643
vt 0.9058 0.2123
vt 0.5612 0.0005
vt 0.1842 0.1906
vt 0.3352 0.1923
vt 0.5971 0.2812
vt 0.9212 0.4328
vt 0.7132 0.2561
vt 0.5612 0.1643
vt 0.5134 0.0884
vt 0.3352 0.1923
vt 0.4477 0.1923
vt 0.5134 0.0884
vt 0.0215 0.3857
vt 0.0659 0.5285
vt 0.0005 0.5285
vt 0.087 0.3857
vt 0.0005 0.5285
vt 0.0659 0.5285
vt 0.0021 0.9995
vt 0.2201 0.8564
vt 0.2933 0.5345
vt 0.3511 0.5922
vt 0.1404 0.8416
vt 0.5157 0.6425
vt 0.5157 0.6425
vt 0.2933 0.5345
vt 0.4938 0.5235
vt 0.282 0.4289
vt 0.4071 0.461
vt 0.5116 0.3604
vt 0.4721 0.4434
vt 0.7373 0.4957
vt 0.1783 0.2354
vt 0.087 0.3857
vt 0.0215 0.3857
vt 0.0659 0.5285
vt 0.1404 0.8416
vt 0.0021 0.9995
vt 0.2933 0.5345
vt 0.5116 0.3604
vt 0.087 0.3857
vt 0.2177 0.2967
vt 0.282 0.4289
vt 0.2177 0.2967
vt 0.1842 0.1906
vt 0.5971 0.2812
vt 0.5175 0.284
vt 0.3352 0.1923
vt 0.5175 0.284
vt 0.5971 0.2812
vt 0.9212 0.4328
vt 0.8294 0.2892
vt 0.7132 0.2561
vt 0.9995 0.298
vt 0.9995 0.298
vt 0.7132 0.2561
vt 0.8368 0.244
vt 0.4477 0.1923
vt 0.6227 0.2008
vt 0.5612 0.1643
vt 0.6374 0.1865
vt 0.9058 0.2123
vt 0.5612 0.0005
vt 0.3352 0.1923
vt 0.1842 0.1906
vt 0.5971 0.2812
vt 0.7132 0.2561
vt 0.9212 0.4328
vt 0.5612 0.1643
vt 0.3352 0.1923
vt 0.5134 0.0884
vt 0.4477 0.1923
vt 0.5134 0.0884
vt 0.1842 0.1906
vt 0.5971 0.2812
vt 0.5175 0.284
vt 0.3352 0.1923
vt 0.5175 0.284
vt 0.5971 0.2812
vt 0.9212 0.4328
vt 0.8294 0.2892
vt 0.7132 0.2561
vt 0.9995 0.298
vt 0.9995 0.298
vt 0.7132 0.2561
vt 0.8368 0.244
vt 0.4477 0.1923
vt 0.6227 0.2008
vt 0.5612 0.1643
vt 0.6374 0.1865
vt 0.9058 0.2123
vt 0.5612 0.0005
vt 0.3352 0.1923
vt 0.1842 0.1906
vt 0.5971 0.2812
vt 0.7132 0.2561
vt 0.9212 0.4328
vt 0.5612 0.1643
vt 0.3352 0.1923
vt 0.5134 0.0884
vt 0.4477 0.1923
vt 0.5134 0.0884
vt 0.1658 0.8551
vt 1 0.8986
vt 1 0.9879
vt 1 0.8986
vt 1 0.9879
vt 1 0.8986
vt 1 0.9879
vt 1 0.9879
vt 0 1
vt 0.1658 0.8551
vt 1 0.9879
vt 0 1
vt 0 1
vt 0.1658 0.8551
vt 0.1658 0.8551
vt 0.1658 0.8551
vt 0.1658 0.8551
vt 1 0.8986
vt 1 0.9879
vt 1 0.8986
vt 1 0.9879
vt 1 0.8986
vt 1 0.9879
vt 1 0.9879
vt 0 1
vt 0.1658 0.8551
vt 1 0.9879
vt 0 1
vt 0 1
vt 0.1658 0.8551
vt 0.1658 0.8551
vt 0.1658 0.8551
f 1/1/1 3/3/3 2/2/2
f 1/1/1 2/2/2 4/4/4
f 5/5/5 7/7/7 6/6/6
f 8/8/8 10/10/10 9/9/9
f 8/8/8 9/9/9 11/11/11
f 10/10/10 12/12/12 9/9/9
f 13/13/13 15/15/15 14/14/14
f 15/15/15 17/17/17 16/16/16
f 15/15/15 16/16/16 14/14/14
f 17/17/17 19/19/19 18/18/18
f 17/17/17 18/18/18 16/16/16
f 19/19/19 20/20/20 18/18/18
f 21/21/21 23/23/23 22/22/22
f 24/24/24 26/26/26 25/25/25
f 24/24/24 25/25/25 27/27/27
f 28/28/28 30/30/30 29/29/29
f 31/31/31 28/28/28 29/29/29
f 31/31/31 29/29/29 24/24/24
f 27/27/27 31/31/31 24/24/24
f 22/22/22 32/32/32 21/21/21
f 33/33/33 35/35/35 34/34/34
f 33/33/33 34/34/34 36/36/36
f 37/37/37 39/39/39 38/38/38
f 40/40/40 42/42/42 41/41/41
f 43/43/43 45/45/45 44/44/44
f 45/45/45 47/47/47 46/46/46
f 45/45/45 46/46/46 44/44/44
f 47/47/47 49/49/49 48/48/48
f 47/47/47 48/48/48 46/46/46
f 49/49/49 50/50/50 48/48/48
f 51/51/51 53/53/53 52/52/52
f 54/54/54 56/56/56 55/55/55
f 57/57/57 59/59/59 58/58/58
f 60/60/60 57/57/57 58/58/58
f 60/60/60 58/58/58 54/54/54
f 55/55/55 60/60/60 54/54/54
f 52/52/52 61/61/61 51/51/51
f 62/62/62 64/64/64 63/63/63
f 62/62/62 63/63/63 65/65/65
f 66/66/66 68/68/68 67/67/67
f 69/69/69 71/71/71 70/70/70
f 72/72/72 74/74/74 73/73/73
f 74/74/74 76/76/76 75/75/75
f 74/74/74 75/75/75 73/73/73
f 76/76/76 78/78/78 77/77/77
f 76/76/76 77/77/77 75/75/75
f 78/78/78 79/79/79 77/77/77
f 80/80/80 82/82/82 81/81/81
f 83/83/83 85/85/85 84/84/84
f 86/86/86 88/88/88 87/87/87
f 89/89/89 86/86/86 87/87/87
f 89/89/89 87/87/87 83/83/83
f 84/84/84 89/89/89 83/83/83
f 81/81/81 90/90/90 80/80/80
f 91/91/91 93/93/93 92/92/92
f 91/91/91 94/94/94 93/93/93
f 95/95/95 97/97/97 96/96/96
f 98/98/98 100/100/100 99/99/99
f 98/98/98 101/101/101 100/100/100
f 99/99/99 100/100/100 102/102/102
f 103/103/103 105/105/105 104/104/104
f 104/104/104 107/107/107 106/106/106
f 104/104/104 105/105/105 107/107/107
f 106/106/106 109/109/109 108/108/108
f 106/106/106 107/107/107 109/109/109
f 108/108/108 109/109/109 110/110/110
f 111/111/111 113/113/113 112/112/112
f 114/114/114 116/116/116 115/115/115
f 114/114/114 117/117/117 116/116/116
f 118/118/118 120/120/120 119/119/119
f 121/121/121 120/120/120 118/118/118
f 121/121/121 114/114/114 120/120/120
f 117/117/117 114/114/114 121/121/121
f 113/113/113 111/111/111 122/122/122
f 123/123/123 125/125/125 124/124/124
f 123/123/123 126/126/126 125/125/125
f 127/127/127 129/129/129 128/128/128
f 130/130/130 132/132/132 131/131/131
f 133/133/133 135/135/135 134/134/134
f 134/134/134 137/137/137 136/136/136
f 134/134/134 135/135/135 137/137/137
f 136/136/136 139/139/139 138/138/138
f 136/136/136 137/137/137 139/139/139
f 138/138/138 139/139/139 140/140/140
f 141/141/141 143/143/143 142/142/142
f 144/144/144 146/146/146 145/145/145
f 147/147/147 149/149/149 148/148/148
f 150/150/150 149/149/149 147/147/147
f 150/150/150 144/144/144 149/149/149
f 146/146/146 144/144/144 150/150/150
f 143/143/143 141/141/141 151/151/151
f 152/152/152 154/154/154 153/153/153
f 152/152/152 155/155/155 154/154/154
f 156/156/156 158/158/158 157/157/157
f 159/159/159 161/161/161 160/160/160
f 162/162/162 164/164/164 163/163/163
f 163/163/163 166/166/166 165/165/165
f 163/163/163 164/164/164 166/166/166
f 165/165/165 168/168/168 167/167/167
f 165/165/165 166/166/166 168/168/168
f 167/167/167 168/168/168 169/169/169
f 170/170/170 172/172/172 171/171/171
f 173/173/173 175/175/175 174/174/174
f 176/176/176 178/178/178 177/177/177
f 179/179/179 178/178/178 176/176/176
f 179/179/179 173/173/173 178/178/178
f 175/175/175 173/173/173 179/179/179
f 172/172/172 170/170/170 180/180/180
f 181/181/181 183/183/183 182/182/182
f 181/181/181 184/184/184 183/183/183
f 185/185/185 187/187/187 186/186/186
f 188/188/188 190/190/190 189/189/189
f 188/188/188 191/191/191 190/190/190
f 189/189/189 190/190/190 192/192/192
f 193/193/193 195/195/195 194/194/194
f 194/194/194 197/197/197 196/196/196
f 194/194/194 195/195/195 197/197/197
f 196/196/196 199/199/199 198/198/198
f 196/196/196 197/197/197 199/199/199
f 198/198/198 199/199/199 200/200/200
f 201/201/201 203/203/203 202/202/202
f 204/204/204 206/206/206 205/205/205
f 204/204/204 207/207/207 206/206/206
f 208/208/208 210/210/210 209/209/209
f 211/211/211 210/210/210 208/208/208
f 211/211/211 204/204/204 210/210/210
f 207/207/207 204/204/204 211/211/211
f 203/203/203 201/201/201 212/212/212
f 213/213/213 215/215/215 214/214/214
f 213/213/213 216/216/216 215/215/215
f 217/217/217 219/219/219 218/218/218
f 220/220/220 222/222/222 221/221/221
f 223/223/223 225/225/225 224/224/224
f 224/224/224 227/227/227 226/226/226
f 224/224/224 225/225/225 227/227/227
f 226/226/226 229/229/229 228/228/228
f 226/226/226 227/227/227 229/229/229
f 228/228/228 229/229/229 230/230/230
f 231/231/231 233/233/233 232/232/232
f 234/234/234 236/236/236 235/235/235
f 237/237/237 239/239/239 238/238/238
f 240/240/240 239/239/239 237/237/237
f 240/240/240 234/234/234 239/239/239
f 236/236/236 234/234/234 240/240/240
f 233/233/233 231/231/231 241/241/241
f 242/242/242 244/244/244 243/243/243
f 242/242/242 245/245/245 244/244/244
f 246/246/246 248/248/248 247/247/247
f 249/249/249 251/251/251 250/250/250
f 252/252/252 254/254/254 253/253/253
f 253/253/253 256/256/256 255/255/255
f 253/253/253 254/254/254 256/256/256
f 255/255/255 258/258/258 257/257/257
f 255/255/255 256/256/256 258/258/258
f 257/257/257 258/258/258 259/259/259
f 260/260/260 262/262/262 261/261/261
f 263/263/263 265/265/265 264/264/264
f 266/266/266 268/268/268 267/267/267
f 269/269/269 268/268/268 266/266/266
f 269/269/269 263/263/263 268/268/268
f 265/265/265 263/263/263 269/269/269
f 262/262/262 260/260/260 270/270/270
f 271/271/271 273/273/273 272/272/272
f 271/271/271 272/272/272 274/274/274
f 275/275/275 277/277/277 276/276/276
f 278/278/278 280/280/280 279/279/279
f 278/278/278 279/279/279 281/281/281
f 280/280/280 282/282/282 279/279/279
f 283/283/283 285/285/285 284/284/284
f 285/285/285 287/287/287 286/286/286
f 285/285/285 286/286/286 284/284/284
f 287/287/287 289/289/289 288/288/288
f 287/287/287 288/288/288 286/286/286
f 289/289/289 290/290/290 288/288/288
f 291/291/291 293/293/293 292/292/292
f 294/294/294 296/296/296 295/295/295
f 294/294/294 295/295/295 297/297/297
f 298/298/298 300/300/300 299/299/299
f 301/301/301 298/298/298 299/299/299
f 301/301/301 299/299/299 294/294/294
f 297/297/297 301/301/301 294/294/294
f 292/292/292 302/302/302 291/291/291
f 303/303/303 305/305/305 304/304/304
f 303/303/303 304/304/304 306/306/306
f 307/307/307 309/309/309 308/308/308
f 310/310/310 312/312/312 311/311/311
f 313/313/313 315/315/315 314/314/314
f 315/315/315 317/317/317 316/316/316
f 315/315/315 316/316/316 314/314/314
f 317/317/317 319/319/319 318/318/318
f 317/317/317 318/318/318 316/316/316
f 319/319/319 320/320/320 318/318/318
f 321/321/321 323/323/323 322/322/322
f 324/324/324 326/326/326 325/325/325
f 327/327/327 329/329/329 328/328/328
f 330/330/330 327/327/327 328/328/328
f 330/330/330 328/328/328 324/324/324
f 325/325/325 330/330/330 324/324/324
f 322/322/322 331/331/331 321/321/321
f 332/332/332 334/334/334 333/333/333
f 332/332/332 333/333/333 335/335/335
f 336/336/336 338/338/338 337/337/337
f 339/339/339 341/341/341 340/340/340
f 342/342/342 344/344/344 343/343/343
f 344/344/344 346/346/346 345/345/345
f 344/344/344 345/345/345 343/343/343
f 346/346/346 348/348/348 347/347/347
f 346/346/346 347/347/347 345/345/345
f 348/348/348 349/349/349 347/347/347
f 350/350/350 352/352/352 351/351/351
f 353/353/353 355/355/355 354/354/354
f 356/356/356 358/358/358 357/357/357
f 359/359/359 356/356/356 357/357/357
f 359/359/359 357/357/357 353/353/353
f 354/354/354 359/359/359 353/353/353
f 351/351/351 360/360/360 350/350/350
f 361/361/361 363/363/363 362/362/362
f 361/361/361 365/365/365 364/364/364
f 361/361/361 367/367/367 366/366/366
f 368/368/368 370/370/370 369/369/369
f 371/371/371 370/370/370 372/372/372
f 371/371/371 374/374/374 373/373/373
f 371/371/371 375/375/375 369/369/369
f 376/376/376 367/367/367 362/362/362
f 377/377/377 379/379/379 378/378/378
f 377/377/377 381/381/381 380/380/380
f 377/377/377 383/383/383 382/382/382
f 384/384/384 386/386/386 385/385/385
f 387/387/387 386/386/386 388/388/388
f 387/387/387 390/390/390 389/389/389
f 387/387/387 391/391/391 385/385/385
f 392/392/392 383/383/383 378/378/378

g wand44
# texture: wand44.jpg
v 0.131391 3.349392 -155.2345
v -3.264406 5.621105 -139.9519
v 0.131407 7.701199 -142.1448
v 0.131178 25.06749 -98.13087
v -3.264406 17.88069 -77.04399
v 0.131391 20.34959 -76.54117
v -3.264406 10.08569 -67.50378
v 0.131407 8.306694 -57.82738
v 0.131407 34.38489 -89.33229
v -3.264399 24.53529 -57.5583
v 0.131399 28.8145 -64.30418
v 0.131193 29.78299 -47.6806
v -3.264399 18.03389 -38.36778
v 0.131391 20.11959 -37.08909
v -3.264406 12.5885 -29.29539
v 0.131399 10.06039 -11.71699
v 0.131403 6.960903 78.7173
v -3.264399 17.70811 107.6494
v 0.131399 20.0956 100.0258
v 0.131205 25.33351 115.8323
v -3.264391 16.39511 127.8687
v 0.131407 18.74081 128.564
v -3.264391 9.55011 145.5579
v 0.131407 8.561512 167.8062
v 0.131391 3.349392 -155.2345
v 0.131407 7.701199 -142.1448
v 3.527189 5.621098 -139.952
v 0.131697 25.06749 -98.13087
v 0.131391 20.34959 -76.54117
v 3.527189 17.88068 -77.04399
v 0.131407 8.306694 -57.82738
v 3.527205 10.08569 -67.50378
v 0.131407 34.38489 -89.33229
v 0.131399 28.8145 -64.30418
v 3.527205 24.53529 -57.55829
v 0.131697 29.78299 -47.68059
v 0.131391 20.11959 -37.08909
v 3.527197 18.0339 -38.3678
v 0.131399 10.06039 -11.71699
v 3.527189 12.5885 -29.29539
v 0.131403 6.960903 78.7173
v 0.131399 20.0956 100.0258
v 3.527205 17.70811 107.6494
v 0.1317 25.33351 115.8323
v 0.131407 18.74081 128.5639
v 3.527205 16.39511 127.8687
v 0.131407 8.561512 167.8061
v 3.527205 9.550114 145.5579
v 0.131391 -2.702717 -155.2345
v 0.131391 -7.054508 -142.1448
v -3.264406 -4.974407 -139.9519
v 0.131178 -24.4208 -98.13077
v 0.131391 -19.7028 -76.54117
v -3.264391 -17.234 -77.04388
v 0.131391 -7.660007 -57.82738
v -3.264406 -9.439003 -67.50378
v 0.131407 -33.73822 -89.33218
v 0.131407 -28.1678 -64.30417
v -3.264391 -23.88849 -57.55828
v 0.131193 -29.1362 -47.68058
v 0.131391 -19.4729 -37.08908
v -3.264391 -17.3872 -38.36778
v 0.131399 -9.413708 -11.71699
v -3.264399 -11.9418 -29.29529
v 0.131405 -6.314198 78.71731
v 0.131405 -19.44889 100.0259
v -3.264397 -17.06139 107.6495
v 0.131205 -24.68679 115.8324
v 0.131407 -18.09409 128.564
v -3.264391 -15.74839 127.8687
v 0.131399 -7.914783 167.8062
v -3.264399 -8.903385 145.558
v 0.131391 -2.702717 -155.2345
v 3.527189 -4.974415 -139.9519
v 0.131391 -7.054508 -142.1448
v 0.131697 -24.4208 -98.13077
v 3.527205 -17.23401 -77.04388
v 0.131391 -19.7028 -76.54117
v 3.527205 -9.439007 -67.50378
v 0.131391 -7.660007 -57.82738
v 0.131407 -33.73822 -89.33218
v 3.527205 -23.8885 -57.55829
v 0.131407 -28.1678 -64.30417
v 0.131697 -29.1362 -47.68058
v 3.527205 -17.3872 -38.36778
v 0.131391 -19.4729 -37.08908
v 3.527205 -11.9418 -29.29529
v 0.131399 -9.413708 -11.71699
v 0.131405 -6.314198 78.71731
v 3.527205 -17.06139 107.6494
v 0.131405 -19.44889 100.0258
v 0.131706 -24.68679 115.8323
v 3.527205 -15.74839 127.8687
v 0.131407 -18.09409 128.564
v 3.527205 -8.903393 145.5579
v 0.131399 -7.914783 167.8062
v 0.242704 0.140881 -93.90518
v 0.242712 6.444996 -56.99568
v 3.1192 0.140892 -57.99678
v 0.242704 0.140881 -93.90518
v -2.633806 0.140892 -57.99678
v 0.242712 6.444996 -56.99568
v 0.242807 0.180409 127.6346
v 3.204504 0.140915 123.0353
v 0.242807 4.286106 123.0353
v -2.718992 0.140915 123.0353
v 3.204496 0.140896 -43.20139
v 0.242697 7.136196 -51.82869
v 0.242697 7.136196 -51.82869
v -2.719004 0.1409 -43.20139
v 2.160391 9.5079 -46.55249
v 0.242697 14.13589 -50.01898
v 0.242689 14.1358 -43.73229
v -1.674906 9.5079 -46.55249
v 0.242689 14.1358 -43.73229
v 0.242697 14.13589 -50.01898
v 0.242704 2.8894 -38.97098
v 0.242704 2.8894 -38.97098
v 0.242704 2.8894 -38.97098
v 3.204504 0.140911 117.7963
v 3.204496 0.140896 -43.20139
v 0.242807 2.889416 117.7963
v -2.719004 0.1409 -43.20139
v -2.718992 0.140911 117.7963
v 0.242807 2.889416 117.7963
v 3.204504 0.140911 117.7963
v -2.718992 0.140911 117.7963
v 0.242704 -6.163109 -56.99568
v 0.242704 -6.163109 -56.99568
v 0.242811 0.101509 127.6346
v 0.242804 -4.004292 123.0353
v 0.242689 -6.854305 -51.82869
v 0.242689 -6.854305 -51.82869
v 2.160398 -9.225998 -46.55248
v 0.242697 -13.85401 -43.73228
v 0.242704 -13.85401 -50.01898
v -1.674898 -9.225998 -46.55248
v 0.242704 -13.85401 -50.01898
v 0.242697 -13.85401 -43.73228
v 0.242704 -2.607609 -38.97099
v 0.242704 -2.607609 -38.97099
v 0.242704 -2.607609 -38.97099
v 0.242807 -2.60759 117.7963
v 0.242807 -2.60759 117.7963
v 2.160398 -9.334309 -77.18347
v 0.242704 -13.19091 -83.17188
v 0.242689 -6.928104 -83.93349
v -1.674898 -9.334301 -77.18347
v 0.242689 -6.928104 -83.93349
v 0.242704 -13.19091 -83.17188
v 3.1192 -5.179512 -64.61889
v 0.242689 -1.288601 -70.26929
v 0.242689 -1.288601 -70.26929
v -2.633791 -5.179508 -64.61888
v 0.242704 -14.3836 -73.26009
v 0.242704 -14.3836 -73.26009
v 2.160398 9.645481 -77.1834
v 0.242704 7.239384 -83.93347
v 0.242689 13.50219 -83.17188
v -1.674914 9.645489 -77.1834
v 0.242689 13.50219 -83.17188
v 0.242704 7.239384 -83.93347
v 3.119184 5.490696 -64.61888
v 0.242689 1.599899 -70.26928
v 0.242689 1.599899 -70.26928
v -2.633806 5.490696 -64.61887
v 0.242689 14.69489 -73.26009
v 0.242689 14.69489 -73.26009
vn -0.97612 -0.154503 -0.152703
vn -0.611921 0.756827 -0.229708
vn -0.691603 0.689003 -0.216701
vn -0.595804 0.784605 0.171501
vn -0.58332 0.729625 0.356912
vn -0.640014 0.678115 0.361308
vn -0.650411 0.61171 0.450307
vn -0.740402 0.565202 0.363801
vn -0.977761 0.062498 -0.200192
vn -0.89888 0.385792 -0.207796
vn -0.89888 0.385792 -0.207796
vn -0.577614 0.603015 0.550213
vn -0.582985 0.651483 0.485487
vn -0.653699 0.638499 0.406199
vn -0.685326 0.649625 0.329113
vn -0.772323 0.590518 0.234107
vn -0.964818 -0.246705 -0.090902
vn -0.919801 0.0853 -0.383001
vn -0.919801 0.0853 -0.383001
vn -0.577592 0.72489 0.375395
vn -0.581019 0.741925 0.334611
vn -0.664626 0.694327 0.276011
vn -0.704106 0.673905 0.223802
vn -0.806329 0.572521 0.148505
vn 0.97612 -0.154503 -0.152703
vn 0.691603 0.689003 -0.216701
vn 0.611921 0.756827 -0.229708
vn 0.595804 0.784605 0.171501
vn 0.640014 0.678115 0.361308
vn 0.58332 0.729625 0.356912
vn 0.740402 0.565202 0.363801
vn 0.650411 0.61171 0.450307
vn 0.977761 0.062498 -0.200192
vn 0.89888 0.385792 -0.207796
vn 0.89888 0.385792 -0.207796
vn 0.577614 0.603015 0.550214
vn 0.653699 0.638499 0.406199
vn 0.582985 0.651483 0.485488
vn 0.772323 0.590518 0.234107
vn 0.685326 0.649625 0.329113
vn 0.964818 -0.246705 -0.090902
vn 0.919801 0.0853 -0.383001
vn 0.919801 0.0853 -0.383001
vn 0.577592 0.72489 0.375395
vn 0.664626 0.694327 0.276011
vn 0.581019 0.741925 0.334611
vn 0.806329 0.572521 0.148505
vn 0.704105 0.673905 0.223802
vn -0.97612 0.154503 -0.152703
vn -0.691603 -0.689003 -0.216701
vn -0.611921 -0.756827 -0.229708
vn -0.595804 -0.784605 0.171501
vn -0.640014 -0.678115 0.361308
vn -0.58332 -0.729625 0.356912
vn -0.740403 -0.565202 0.363801
vn -0.650411 -0.61171 0.450308
vn -0.977761 -0.062498 -0.200192
vn -0.898881 -0.385792 -0.207796
vn -0.898881 -0.385792 -0.207796
vn -0.577614 -0.603015 0.550214
vn -0.653699 -0.638499 0.406199
vn -0.582985 -0.651483 0.485488
vn -0.772323 -0.590518 0.234107
vn -0.685326 -0.649625 0.329113
vn -0.964818 0.246705 -0.090902
vn -0.919801 -0.0853 -0.383001
vn -0.919801 -0.0853 -0.383001
vn -0.577592 -0.72489 0.375395
vn -0.664626 -0.694327 0.276011
vn -0.581019 -0.741925 0.334611
vn -0.806329 -0.572521 0.148506
vn -0.704105 -0.673905 0.223802
vn 0.97612 0.154503 -0.152703
vn 0.611922 -0.756827 -0.229708
vn 0.691603 -0.689003 -0.216701
vn 0.595804 -0.784605 0.171501
vn 0.58332 -0.729625 0.356912
vn 0.640014 -0.678115 0.361308
vn 0.650411 -0.61171 0.450308
vn 0.740402 -0.565202 0.363801
vn 0.977761 -0.062498 -0.200192
vn 0.89888 -0.385792 -0.207795
vn 0.89888 -0.385792 -0.207795
vn 0.577614 -0.603015 0.550214
vn 0.582985 -0.651483 0.485488
vn 0.653699 -0.638499 0.406199
vn 0.685326 -0.649625 0.329113
vn 0.772323 -0.590518 0.234107
vn 0.964818 0.246705 -0.090902
vn 0.919801 -0.0853 -0.383001
vn 0.919801 -0.0853 -0.383001
vn 0.577592 -0.72489 0.375395
vn 0.581019 -0.741925 0.334611
vn 0.664626 -0.694327 0.276011
vn 0.704106 -0.673905 0.223802
vn 0.806329 -0.572521 0.148505
vn 0.996803 0 -0.0799
vn 0.918193 0.393997 -0.0411
vn 0.999084 0 -0.042799
vn -0.996803 -0 -0.0799
vn -0.998799 0 -0.049
vn -0.903983 0.422692 -0.064399
vn 0 0.746023 0.66592
vn 0.990432 0 0.138004
vn -0 0.962469 0.271391
vn -0.990432 0 0.138004
vn 0.996624 0 0.082102
vn 0.954993 0.144599 -0.258998
vn -0.952519 0.229405 -0.200204
vn -0.999352 0 0.035998
vn 0.977889 0.177298 -0.110899
vn 0.949126 0.247407 -0.194805
vn 0.926896 0.269999 0.260699
vn -0.981945 0.188109 0.020001
vn -0.942574 0.275793 0.188395
vn -0.949126 0.247407 -0.194806
vn 0.858902 0.1997 0.471601
vn -0.891384 0.204896 0.404293
vn 0.295512 0.955339 -0
vn 1 -0 -0
vn 1 -0 -0
vn -0.139601 0.988208 -0.062901
vn -1 0 -0
vn -1 0 -0
vn -0.139601 0.988208 -0.062901
vn 1 -0 -0
vn -1 0 -0
vn 0.918193 -0.393997 -0.0411
vn -0.903983 -0.422692 -0.064399
vn 0 -0.746023 0.665921
vn 0 -0.962469 0.271392
vn 0.954993 -0.144599 -0.258998
vn -0.952519 -0.229404 -0.200204
vn 0.977889 -0.177298 -0.110899
vn 0.926896 -0.269999 0.260699
vn 0.949126 -0.247407 -0.194805
vn -0.981945 -0.188108 0.020001
vn -0.949126 -0.247407 -0.194805
vn -0.942574 -0.275792 0.188395
vn 0.858902 -0.1997 0.471601
vn -0.891384 -0.204896 0.404293
vn 0.295512 -0.955339 0
vn -0.139601 -0.988208 -0.0629
vn -0.139601 -0.988208 -0.0629
vn 0.985251 -0.121594 -0.120394
vn 0.961768 -0.215193 -0.169394
vn 0.950933 0.225908 -0.211407
vn -0.990914 -0.0051 -0.134402
vn -0.963287 0.157398 -0.217497
vn -0.961768 -0.215193 -0.169394
vn 0.985681 0.130897 -0.106298
vn 0.89442 0.413409 -0.170604
vn -0.916227 0.363411 -0.168705
vn -0.995907 0.029 -0.085601
vn 0.933595 -0.358298 -0.0047
vn -0.933595 -0.358298 -0.0047
vn 0.985251 0.121594 -0.120394
vn 0.950933 -0.225908 -0.211407
vn 0.961768 0.215193 -0.169394
vn -0.990914 0.0051 -0.134402
vn -0.961768 0.215193 -0.169394
vn -0.963287 -0.157398 -0.217497
vn 0.985681 -0.130898 -0.106298
vn 0.89442 -0.413409 -0.170604
vn -0.916227 -0.363411 -0.168705
vn -0.995907 -0.029 -0.085601
vn 0.933595 0.358298 -0.0047
vn -0.933595 0.358298 -0.0047
vt 0.2623 0.2992
vt 0.3527 0.0405
vt 0.0925 0.0855
vt 0.2483 0.3014
vt 0.3162 0.1527
vt 0.0806 0.1492
vt 0.3738 0.0213
vt 0.1041 0.032
vt 0.048 0.2754
vt 0.3651 0.0543
vt 0.0489 0.0511
vt 0.2562 0.3048
vt 0.3521 0.1833
vt 0.0913 0.1812
vt 0.3403 0.0193
vt 0.1067 0.0207
vt 0.2322 0.3139
vt 0.3316 0.0192
vt 0.1052 0.0248
vt 0.2821 0.3128
vt 0.3817 0.1754
vt 0.1189 0.1748
vt 0.3481 0.0326
vt 0.0926 0.0198
vt 0.2623 0.2992
vt 0.0925 0.0855
vt 0.3527 0.0405
vt 0.2483 0.3014
vt 0.0806 0.1492
vt 0.3162 0.1527
vt 0.1041 0.032
vt 0.3738 0.0213
vt 0.048 0.2754
vt 0.0489 0.0511
vt 0.3651 0.0543
vt 0.2562 0.3048
vt 0.0913 0.1812
vt 0.3521 0.1833
vt 0.1067 0.0207
vt 0.3403 0.0193
vt 0.2322 0.3139
vt 0.1052 0.0248
vt 0.3316 0.0192
vt 0.2821 0.3128
vt 0.1189 0.1748
vt 0.3817 0.1754
vt 0.0926 0.0198
vt 0.3481 0.0326
vt 0.2623 0.2992
vt 0.0925 0.0855
vt 0.3527 0.0405
vt 0.2483 0.3014
vt 0.0806 0.1492
vt 0.3162 0.1527
vt 0.1041 0.032
vt 0.3738 0.0213
vt 0.048 0.2754
vt 0.0489 0.0511
vt 0.3651 0.0543
vt 0.2562 0.3048
vt 0.0913 0.1812
vt 0.3521 0.1833
vt 0.1067 0.0207
vt 0.3403 0.0193
vt 0.2322 0.3139
vt 0.1052 0.0248
vt 0.3316 0.0192
vt 0.2821 0.3128
vt 0.1189 0.1748
vt 0.3817 0.1754
vt 0.0926 0.0198
vt 0.3481 0.0326
vt 0.2623 0.2992
vt 0.3527 0.0405
vt 0.0925 0.0855
vt 0.2483 0.3014
vt 0.3162 0.1527
vt 0.0806 0.1492
vt 0.3738 0.0213
vt 0.1041 0.032
vt 0.048 0.2754
vt 0.3651 0.0543
vt 0.0489 0.0511
vt 0.2562 0.3048
vt 0.3521 0.1833
vt 0.0913 0.1812
vt 0.3403 0.0193
vt 0.1067 0.0207
vt 0.2322 0.3139
vt 0.3316 0.0192
vt 0.1052 0.0248
vt 0.2821 0.3128
vt 0.3817 0.1754
vt 0.1189 0.1748
vt 0.3481 0.0326
vt 0.0926 0.0198
vt 0.0226 1.1923
vt 0.5735 0.7381
vt 0.0226 0.7584
vt 0.0226 1.1923
vt 0.0226 0.7584
vt 0.5735 0.7381
vt 0.0226 -0.3111
vt 0.0226 -0.2177
vt 0.5111 -0.2177
vt 0.0226 -0.2177
vt 0.0226 0.4582
vt 0.6344 0.6332
vt 0.6344 0.6332
vt 0.0226 0.4582
vt 0.8434 0.5262
vt 1.2513 0.5965
vt 1.2513 0.4689
vt 0.8434 0.5262
vt 1.2513 0.4689
vt 1.2513 0.5965
vt 0.3449 0.3723
vt 0.3449 0.3723
vt 0.8251 -0.9742
vt 0.0783 2.0279
vt 0.0784 -1.0553
vt 0.8251 2.0279
vt 0.0784 -1.0553
vt 0.0783 2.0279
vt 0.3449 -0.1114
vt 0.0226 -0.1114
vt 0.0226 -0.1114
vt 0.5735 0.7381
vt 0.5735 0.7381
vt 0.0226 -0.3111
vt 0.5111 -0.2177
vt 0.6344 0.6332
vt 0.6344 0.6332
vt 0.8434 0.5262
vt 1.2513 0.4689
vt 1.2513 0.5965
vt 0.8434 0.5262
vt 1.2513 0.5965
vt 1.2513 0.4689
vt 0.3449 0.3723
vt 0.3449 0.3723
vt 0.8288 -0.9742
vt 0.8288 2.0279
vt 0.3449 -0.1114
vt 0.8434 0.5262
vt 1.2513 0.5965
vt 1.2513 0.4689
vt 0.8434 0.5262
vt 1.2513 0.4689
vt 1.2513 0.5965
vt 0.0226 0.4582
vt 0.3449 0.3723
vt 0.3449 0.3723
vt 0.0226 0.4582
vt 0.6344 0.6332
vt 0.6344 0.6332
vt 0.8434 0.5262
vt 1.2513 0.4689
vt 1.2513 0.5965
vt 0.8434 0.5262
vt 1.2513 0.5965
vt 1.2513 0.4689
vt 0.0226 0.4582
vt 0.3449 0.3723
vt 0.3449 0.3723
vt 0.0226 0.4582
vt 0.6344 0.6332
vt 0.6344 0.6332
f 393/393/393 395/395/395 394/394/394
f 396/396/396 398/398/398 397/397/397
f 398/398/398 400/400/400 399/399/399
f 398/398/398 399/399/399 397/397/397
f 401/401/401 403/403/403 402/402/402
f 404/404/404 406/406/406 405/405/405
f 406/406/406 408/408/408 407/407/407
f 406/406/406 407/407/407 405/405/405
f 409/409/409 411/411/411 410/410/410
f 412/412/412 414/414/414 413/413/413
f 414/414/414 416/416/416 415/415/415
f 414/414/414 415/415/415 413/413/413
f 417/417/417 419/419/419 418/418/418
f 420/420/420 422/422/422 421/421/421
f 421/421/421 424/424/424 423/423/423
f 421/421/421 422/422/422 424/424/424
f 425/425/425 427/427/427 426/426/426
f 428/428/428 430/430/430 429/429/429
f 429/429/429 432/432/432 431/431/431
f 429/429/429 430/430/430 432/432/432
f 433/433/433 435/435/435 434/434/434
f 436/436/436 438/438/438 437/437/437
f 437/437/437 440/440/440 439/439/439
f 437/437/437 438/438/438 440/440/440
f 441/441/441 443/443/443 442/442/442
f 444/444/444 446/446/446 445/445/445
f 445/445/445 448/448/448 447/447/447
f 445/445/445 446/446/446 448/448/448
f 449/449/449 451/451/451 450/450/450
f 452/452/452 454/454/454 453/453/453
f 453/453/453 456/456/456 455/455/455
f 453/453/453 454/454/454 456/456/456
f 457/457/457 459/459/459 458/458/458
f 460/460/460 462/462/462 461/461/461
f 461/461/461 464/464/464 463/463/463
f 461/461/461 462/462/462 464/464/464
f 465/465/465 467/467/467 466/466/466
f 468/468/468 470/470/470 469/469/469
f 470/470/470 472/472/472 471/471/471
f 470/470/470 471/471/471 469/469/469
f 473/473/473 475/475/475 474/474/474
f 476/476/476 478/478/478 477/477/477
f 478/478/478 480/480/480 479/479/479
f 478/478/478 479/479/479 477/477/477
f 481/481/481 483/483/483 482/482/482
f 484/484/484 486/486/486 485/485/485
f 486/486/486 488/488/488 487/487/487
f 486/486/486 487/487/487 485/485/485
f 489/489/489 491/491/491 490/490/490
f 492/492/492 494/494/494 493/493/493
f 495/495/495 497/497/497 496/496/496
f 495/495/495 498/498/498 497/497/497
f 490/490/490 491/491/491 499/499/499
f 499/499/499 500/500/500 490/490/490
f 493/493/493 494/494/494 501/501/501
f 501/501/501 502/502/502 493/493/493
f 503/503/503 505/505/505 504/504/504
f 506/506/506 508/508/508 507/507/507
f 499/499/499 509/509/509 505/505/505
f 505/505/505 503/503/503 499/499/499
f 510/510/510 502/502/502 506/506/506
f 506/506/506 507/507/507 510/510/510
f 500/500/500 499/499/499 503/503/503
f 503/503/503 504/504/504 500/500/500
f 506/506/506 501/501/501 508/508/508
f 501/501/501 506/506/506 502/502/502
f 511/511/511 513/513/513 512/512/512
f 512/512/512 514/514/514 511/511/511
f 515/515/515 511/511/511 514/514/514
f 514/514/514 516/516/516 515/515/515
f 517/517/517 518/518/518 496/496/496
f 496/496/496 497/497/497 517/517/517
f 498/498/498 517/517/517 497/497/497
f 517/517/517 498/498/498 519/519/519
f 489/489/489 520/520/520 491/491/491
f 492/492/492 493/493/493 521/521/521
f 522/522/522 496/496/496 523/523/523
f 522/522/522 523/523/523 498/498/498
f 520/520/520 499/499/499 491/491/491
f 499/499/499 520/520/520 524/524/524
f 493/493/493 525/525/525 521/521/521
f 525/525/525 493/493/493 502/502/502
f 526/526/526 528/528/528 527/527/527
f 529/529/529 531/531/531 530/530/530
f 499/499/499 527/527/527 532/532/532
f 527/527/527 499/499/499 526/526/526
f 533/533/533 529/529/529 502/502/502
f 529/529/529 533/533/533 531/531/531
f 524/524/524 526/526/526 499/499/499
f 526/526/526 524/524/524 528/528/528
f 529/529/529 530/530/530 525/525/525
f 525/525/525 502/502/502 529/529/529
f 534/534/534 512/512/512 513/513/513
f 512/512/512 534/534/534 535/535/535
f 515/515/515 535/535/535 534/534/534
f 535/535/535 515/515/515 516/516/516
f 536/536/536 496/496/496 518/518/518
f 496/496/496 536/536/536 523/523/523
f 498/498/498 523/523/523 536/536/536
f 536/536/536 519/519/519 498/498/498
f 537/537/537 539/539/539 538/538/538
f 540/540/540 542/542/542 541/541/541
f 543/543/543 544/544/544 539/539/539
f 539/539/539 537/537/537 543/543/543
f 545/545/545 546/546/546 540/540/540
f 540/540/540 541/541/541 545/545/545
f 547/547/547 543/543/543 537/537/537
f 537/537/537 538/538/538 547/547/547
f 540/540/540 548/548/548 542/542/542
f 548/548/548 540/540/540 546/546/546
f 549/549/549 551/551/551 550/550/550
f 552/552/552 554/554/554 553/553/553
f 555/555/555 550/550/550 556/556/556
f 550/550/550 555/555/555 549/549/549
f 557/557/557 552/552/552 558/558/558
f 552/552/552 557/557/557 554/554/554
f 559/559/559 549/549/549 555/555/555
f 549/549/549 559/559/559 551/551/551
f 552/552/552 553/553/553 560/560/560
f 560/560/560 558/558/558 552/552/552
