# Object50.bmd — MU geometry at action 0 key 0, exported for MU2
# 1 mesh(es)

g flag
# texture: flag.jpg
v -26.16491 10.9871 2.186595
v -32.631 7.738801 -3.410602
v -33.0574 5.9092 -1.365304
v -26.3176 12.1216 0.218994
v -41.2281 7.7339 -9.099703
v -42.46889 5.321001 -6.979202
v -24.2297 9.856 1.365196
v -33.0574 5.9092 -1.365304
v -31.1666 3.878201 -2.815803
v -26.16491 10.9871 2.186595
v -42.46889 5.321001 -6.979202
v -41.189 2.859 -9.056002
v -39.9482 5.2719 -11.1765
v -30.7402 5.7078 -4.861104
v -41.2281 7.7339 -9.099703
v -26.3176 12.1216 0.218994
v -24.38241 10.9905 -0.602405
v -24.38241 10.9905 -0.602405
v -26.16491 10.9871 2.186595
v -24.2297 9.856 1.365196
v -30.7402 5.7078 -4.861104
v -24.2297 9.856 1.365196
v -24.38241 10.9905 -0.602405
v -39.9482 5.2719 -11.1765
v -31.1666 3.878201 -2.815803
v -30.7402 5.7078 -4.861104
v -50.7275 6.0492 -5.151201
v -34.0406 9.308499 -22.4298
v -39.0004 5.939899 -25.2751
v -45.7677 9.417799 -2.306003
v -24.39301 11.2392 -38.8435
v -29.35271 7.870596 -41.68881
v -42.9329 3.826401 -0.611702
v -31.20591 3.717099 -20.7355
v -34.0406 9.308499 -22.4298
v -45.7677 9.417799 -2.306003
v -21.5582 5.6478 -37.1492
v -24.39301 11.2392 -38.8435
v -21.5582 5.6478 -37.1492
v -26.5179 2.279198 -39.9945
v -24.39301 11.2392 -38.8435
v -26.5179 2.279198 -39.9945
v -36.1656 0.348499 -23.5808
v -29.35271 7.870596 -41.68881
v -47.8927 0.457801 -3.456901
v -50.7275 6.0492 -5.151201
v -47.8927 0.457801 -3.456901
v -42.9329 3.826401 -0.611702
v -45.7677 9.417799 -2.306003
v -16.1902 12.0689 -5.083105
v -24.63101 7.8285 -12.3897
v -25.1877 5.4401 -9.719804
v -16.3896 13.5498 -7.651605
v -35.8536 7.821999 -19.8163
v -37.4734 4.672299 -17.0481
v -13.6639 10.5923 -6.155406
v -25.1877 5.4401 -9.719804
v -22.7193 2.7888 -11.6133
v -16.1902 12.0689 -5.083105
v -37.4734 4.672299 -17.0481
v -35.8027 1.4584 -19.7592
v -34.1829 4.608199 -22.5273
v -22.16271 5.177199 -14.2831
v -35.8536 7.821999 -19.8163
v -16.3896 13.5498 -7.651605
v -13.8633 12.0732 -8.723906
v -13.8633 12.0732 -8.723906
v -16.1902 12.0689 -5.083105
v -13.6639 10.5923 -6.155406
v -22.16271 5.177199 -14.2831
v -13.6639 10.5923 -6.155406
v -13.8633 12.0732 -8.723906
v -34.1829 4.608199 -22.5273
v -22.7193 2.7888 -11.6133
v -22.16271 5.177199 -14.2831
v -12.61721 10.9871 -17.93451
v -19.08329 7.7388 -23.5317
v -19.5097 5.9092 -21.4864
v -12.7699 12.1216 -19.90211
v -27.68041 7.733899 -29.2209
v -28.9212 5.320999 -27.1003
v -10.682 9.855999 -18.75591
v -19.5097 5.9092 -21.4864
v -17.6189 3.8782 -22.937
v -12.61721 10.9871 -17.93451
v -28.9212 5.320999 -27.1003
v -27.6413 2.858997 -29.1771
v -26.40051 5.271898 -31.2976
v -17.19241 5.707798 -24.9822
v -27.68041 7.733899 -29.2209
v -12.7699 12.1216 -19.90211
v -10.83471 10.9905 -20.7235
v -10.83471 10.9905 -20.7235
v -12.61721 10.9871 -17.93451
v -10.682 9.855999 -18.75591
v -17.19241 5.707798 -24.9822
v -10.682 9.855999 -18.75591
v -10.83471 10.9905 -20.7235
v -26.40051 5.271898 -31.2976
v -17.6189 3.8782 -22.937
v -17.19241 5.707798 -24.9822
v -62.2654 12.0578 -19.3309
v -55.7431 6.9798 -15.1377
v -54.1851 8.809399 -16.5297
v -60.4851 13.1922 -20.1824
v -46.1756 6.3916 -9.794102
v -44.9596 8.804499 -11.929
v -62.5217 10.9267 -21.4175
v -55.4324 4.9488 -17.5005
v -55.7431 6.9798 -15.1377
v -62.2654 12.0578 -19.3309
v -45.017 3.9297 -11.9409
v -46.1756 6.3916 -9.794102
v -43.801 6.342599 -14.0757
v -53.8743 6.778399 -18.8924
v -44.9596 8.804499 -11.929
v -60.7413 12.0611 -22.2691
v -60.4851 13.1922 -20.1824
v -60.7413 12.0611 -22.2691
v -62.5217 10.9267 -21.4175
v -62.2654 12.0578 -19.3309
v -53.8743 6.778399 -18.8924
v -62.5217 10.9267 -21.4175
v -60.7413 12.0611 -22.2691
v -43.801 6.342599 -14.0757
v -55.4324 4.9488 -17.5005
v -53.8743 6.778399 -18.8924
v -58.6037 13.1395 -30.2454
v -50.0895 6.510699 -24.7717
v -48.0556 8.899099 -26.5887
v -56.2796 14.6204 -31.357
v -37.60011 5.742899 -17.7961
v -36.0127 8.892699 -20.5829
v -58.93821 11.6629 -32.9693
v -49.6838 3.859499 -27.8561
v -50.0895 6.510699 -24.7717
v -58.6037 13.1395 -30.2454
v -36.0876 2.529099 -20.5985
v -37.60011 5.742899 -17.7961
v -34.50021 5.678899 -23.3853
v -47.65 6.247799 -29.6731
v -36.0127 8.892699 -20.5829
v -56.61411 13.1439 -34.0809
v -56.2796 14.6204 -31.357
v -56.61411 13.1439 -34.0809
v -58.93821 11.6629 -32.9693
v -58.6037 13.1395 -30.2454
v -47.65 6.247799 -29.6731
v -58.93821 11.6629 -32.9693
v -56.61411 13.1439 -34.0809
v -34.50021 5.678899 -23.3853
v -49.6838 3.859499 -27.8561
v -47.65 6.247799 -29.6731
v -50.1658 12.0578 -40.288
v -43.64351 6.979797 -36.0949
v -42.0855 8.809399 -37.4868
v -48.38551 13.1922 -41.1396
v -34.076 6.391598 -30.7513
v -32.86 8.804499 -32.8861
v -50.4221 10.92669 -42.3747
v -43.3327 4.948799 -38.4577
v -43.64351 6.979797 -36.0949
v -50.1658 12.0578 -40.288
v -32.9174 3.929697 -32.89811
v -34.076 6.391598 -30.7513
v -31.7014 6.342598 -35.03291
v -41.7747 6.778397 -39.84961
v -32.86 8.804499 -32.8861
v -48.6417 12.0611 -43.2262
v -48.38551 13.1922 -41.1396
v -48.6417 12.0611 -43.2262
v -50.4221 10.92669 -42.3747
v -50.1658 12.0578 -40.288
v -41.7747 6.778397 -39.84961
v -50.4221 10.92669 -42.3747
v -48.6417 12.0611 -43.2262
v -31.7014 6.342598 -35.03291
v -43.3327 4.948799 -38.4577
v -41.7747 6.778397 -39.84961
v -20.85909 10.0148 44.43669
v -16.7759 2.655903 31.9454
v -18.69 4.153702 29.90359
v -22.15419 10.7045 41.81559
v -11.7609 -1.294897 12.9267
v -14.5205 0.957701 11.8062
v -23.3396 9.201706 46.33919
v -19.6749 0.821003 33.2352
v -16.7759 2.655903 31.9454
v -20.85909 10.0148 44.43669
v -14.5263 -3.825098 12.7551
v -11.7609 -1.294897 12.9267
v -17.2859 -1.572498 11.6346
v -21.58889 2.318802 31.19339
v -14.5205 0.957701 11.8062
v -24.6347 9.891502 43.71819
v -22.15419 10.7045 41.81559
v -24.6347 9.891502 43.71819
v -23.3396 9.201706 46.33919
v -20.85909 10.0148 44.43669
v -21.58889 2.318802 31.19339
v -23.3396 9.201706 46.33919
v -24.6347 9.891502 43.71819
v -17.2859 -1.572498 11.6346
v -19.6749 0.821003 33.2352
v -21.58889 2.318802 31.19339
v 62.43658 14.3266 -10.66701
v 55.05207 7.752099 -3.505911
v 57.458 5.5515 -2.780611
v 60.0629 15.6911 -10.69031
v 47.33399 7.746201 6.198789
v 49.74478 4.844 7.907889
v 61.6552 12.9661 -13.07201
v 57.458 5.5515 -2.780611
v 55.91821 3.1086 -5.19831
v 62.43658 14.3266 -10.66701
v 49.74478 4.844 7.907889
v 47.39047 1.882801 6.15659
v 44.9797 4.785 4.447592
v 53.51228 5.3092 -5.92371
v 47.33399 7.746201 6.198789
v 60.0629 15.6911 -10.69031
v 59.28159 14.3306 -13.09521
v 59.28159 14.3306 -13.09521
v 62.43658 14.3266 -10.66701
v 61.6552 12.9661 -13.07201
v 53.51228 5.3092 -5.92371
v 61.6552 12.9661 -13.07201
v 59.28159 14.3306 -13.09521
v 44.9797 4.785 4.447592
v 55.91821 3.1086 -5.19831
v 53.51228 5.3092 -5.92371
v 53.70869 5.470001 19.58809
v 32.2187 9.6401 -3.622509
v 28.2895 5.5884 2.022091
v 56.9032 8.764103 14.99899
v 11.5924 13.9695 -17.92691
v 6.442299 11.0103 -14.10341
v 58.79527 3.296301 12.38179
v 34.54588 2.9148 -6.841509
v 32.2187 9.6401 -3.622509
v 56.9032 8.764103 14.99899
v 10.83978 9.0709 -22.7452
v 11.5924 13.9695 -17.92691
v 10.83978 9.0709 -22.7452
v 5.689796 6.1117 -18.92171
v 11.5924 13.9695 -17.92691
v 5.689796 6.1117 -18.92171
v 30.6168 -1.136899 -1.196908
v 6.442299 11.0103 -14.10341
v 55.60088 0.002201 16.97089
v 53.70869 5.470001 19.58809
v 55.60088 0.002201 16.97089
v 58.79527 3.296301 12.38179
v 56.9032 8.764103 14.99899
v 54.8751 15.6277 -23.19281
v 45.2354 7.86 -13.84481
v 48.37608 4.9873 -12.89791
v 51.7766 17.4089 -23.22321
v 35.16019 7.852301 -1.176209
v 38.3072 4.063701 1.05479
v 53.85519 13.8517 -26.33221
v 48.37608 4.9873 -12.89791
v 46.3661 1.7983 -16.05401
v 54.8751 15.6277 -23.19281
v 38.3072 4.063701 1.05479
v 35.23389 0.198101 -1.231209
v 32.08688 3.986701 -3.462309
v 43.2253 4.6711 -17.00091
v 35.16019 7.852301 -1.176209
v 51.7766 17.4089 -23.22321
v 50.75659 15.6329 -26.36261
v 50.75659 15.6329 -26.36261
v 54.8751 15.6277 -23.19281
v 53.85519 13.8517 -26.33221
v 43.2253 4.6711 -17.00091
v 53.85519 13.8517 -26.33221
v 50.75659 15.6329 -26.36261
v 32.08688 3.986701 -3.462309
v 46.3661 1.7983 -16.05401
v 43.2253 4.6711 -17.00091
v 38.3168 14.3266 -27.29871
v 30.93229 7.7521 -20.13761
v 33.33829 5.551498 -19.41231
v 35.94319 15.6911 -27.32191
v 23.2143 7.7462 -10.43281
v 25.62498 4.844 -8.723808
v 37.53551 12.9661 -29.70361
v 33.33829 5.551498 -19.41231
v 31.7985 3.108599 -21.83001
v 38.3168 14.3266 -27.29871
v 25.62498 4.844 -8.723808
v 23.2707 1.8828 -10.47501
v 20.86 4.785 -12.18411
v 29.39249 5.309199 -22.55531
v 23.2143 7.7462 -10.43281
v 35.94319 15.6911 -27.32191
v 35.16179 14.3306 -29.72691
v 35.16179 14.3306 -29.72691
v 38.3168 14.3266 -27.29871
v 37.53551 12.9661 -29.70361
v 29.39249 5.309199 -22.55531
v 37.53551 12.9661 -29.70361
v 35.16179 14.3306 -29.72691
v 20.86 4.785 -12.18411
v 31.7985 3.108599 -21.83001
v 29.39249 5.309199 -22.55531
v 32.9731 15.6143 30.52189
v 38.6811 6.839203 23.14629
v 37.17658 9.039898 21.13349
v 32.1394 16.9788 28.29939
v 46.0869 6.1318 12.24249
v 43.65638 9.034 10.56169
v 30.44592 14.2538 30.61019
v 35.88248 4.396301 22.52629
v 38.6811 6.839203 23.14629
v 32.9731 15.6143 30.52189
v 43.63599 3.170502 10.62919
v 46.0869 6.1318 12.24249
v 41.20549 6.072701 8.948291
v 34.37798 6.597004 20.51349
v 43.65638 9.034 10.56169
v 29.61221 15.6184 28.38769
v 32.1394 16.9788 28.29939
v 29.61221 15.6184 28.38769
v 30.44592 14.2538 30.61019
v 32.9731 15.6143 30.52189
v 34.37798 6.597004 20.51349
v 30.44592 14.2538 30.61019
v 29.61221 15.6184 28.38769
v 41.20549 6.072701 8.948291
v 35.88248 4.396301 22.52629
v 34.37798 6.597004 20.51349
v 20.2789 15.7488 24.99019
v 27.7302 5.108303 15.36209
v 25.7662 7.981102 12.73459
v 19.1907 17.53 22.08889
v 37.3977 4.1848 1.128291
v 34.22488 7.9733 -1.065909
v 16.98 13.9728 25.10549
v 24.077 1.919403 14.55269
v 27.7302 5.108303 15.36209
v 20.2789 15.7488 24.99019
v 34.1984 0.319201 -0.977809
v 37.3977 4.1848 1.128291
v 31.0256 4.1078 -3.171908
v 22.113 4.792101 11.92519
v 34.22488 7.9733 -1.065909
v 15.8917 15.754 22.20419
v 19.1907 17.53 22.08889
v 15.8917 15.754 22.20419
v 16.98 13.9728 25.10549
v 20.2789 15.7488 24.99019
v 22.113 4.792101 11.92519
v 16.98 13.9728 25.10549
v 15.8917 15.754 22.20419
v 31.0256 4.1078 -3.171908
v 24.077 1.919403 14.55269
v 22.113 4.792101 11.92519
v 9.130203 16.6784 13.82689
v 14.83818 7.903301 6.451293
v 13.3337 10.104 4.43859
v 8.296501 18.043 11.60439
v 22.244 7.1959 -4.452507
v 19.8135 10.0981 -6.133307
v 6.602997 15.318 13.91519
v 12.03958 5.460402 5.831291
v 14.83818 7.903301 6.451293
v 9.130203 16.6784 13.82689
v 19.7931 4.234601 -6.065807
v 22.244 7.1959 -4.452507
v 17.3626 7.1368 -7.746607
v 10.5351 7.6611 3.818493
v 19.8135 10.0981 -6.133307
v 5.769302 16.6825 11.69269
v 8.296501 18.043 11.60439
v 5.769302 16.6825 11.69269
v 6.602997 15.318 13.91519
v 9.130203 16.6784 13.82689
v 10.5351 7.6611 3.818493
v 6.602997 15.318 13.91519
v 5.769302 16.6825 11.69269
v 17.3626 7.1368 -7.746607
v 12.03958 5.460402 5.831291
v 10.5351 7.6611 3.818493
v 0.769501 6.406597 -39.90031
v -2.567604 8.831198 -46.4551
v -4.852104 6.475494 -43.17341
v 2.626686 8.3218 -42.56841
v -8.104401 9.820896 -49.8526
v -10.12601 7.7362 -46.9484
v 3.726784 5.142899 -44.0899
v -1.214607 4.921097 -48.3267
v -2.567604 8.831198 -46.4551
v 2.626686 8.3218 -42.56841
v -6.907005 6.360596 -51.5089
v -8.104401 9.820896 -49.8526
v -6.907005 6.360596 -51.5089
v -8.928608 4.275997 -48.6047
v -8.104401 9.820896 -49.8526
v -8.928608 4.275997 -48.6047
v -3.499004 2.565395 -45.04491
v -10.12601 7.7362 -46.9484
v 1.869583 3.227699 -41.42191
v 0.769501 6.406597 -39.90031
v 1.869583 3.227699 -41.42191
v 3.726784 5.142899 -44.0899
v 2.626686 8.3218 -42.56841
v 2.288597 6.4344 -23.34251
v 2.071205 8.506598 -29.62541
v -0.883709 6.4933 -27.90851
v 4.691002 8.0713 -24.73841
v -0.990402 9.352598 -34.2572
v -3.605408 7.570797 -32.7378
v 6.092682 5.354299 -25.51971
v 3.795395 5.1647 -30.58641
v 2.071205 8.506598 -29.62541
v 4.691002 8.0713 -24.73841
v 0.535408 6.3951 -35.10761
v -0.990402 9.352598 -34.2572
v 0.535408 6.3951 -35.10761
v -2.079617 4.613298 -33.58821
v -0.990402 9.352598 -34.2572
v -2.079617 4.613298 -33.58821
v 0.840393 3.151299 -28.86951
v -3.605408 7.570797 -32.7378
v 3.6903 3.7174 -24.12381
v 2.288597 6.4344 -23.34251
v 3.6903 3.7174 -24.12381
v 6.092682 5.354299 -25.51971
v 4.691002 8.0713 -24.73841
v 13.85751 6.434399 -36.48101
v 8.9048 8.506599 -40.3531
v 8.320694 6.493298 -36.98581
v 14.3324 8.071301 -39.21861
v 3.388702 9.352598 -40.98491
v 2.871796 7.570797 -38.00511
v 14.63499 5.354298 -40.79461
v 9.276901 5.164698 -42.29161
v 8.9048 8.506599 -40.3531
v 14.3324 8.071301 -39.21861
v 3.718002 6.3951 -42.70041
v 3.388702 9.352598 -40.98491
v 3.718002 6.3951 -42.70041
v 3.201088 4.613297 -39.72061
v 3.388702 9.352598 -40.98491
v 3.201088 4.613297 -39.72061
v 8.692787 3.1513 -38.9243
v 2.871796 7.570797 -38.00511
v 14.16009 3.717398 -38.05701
v 13.85751 6.434399 -36.48101
v 14.16009 3.717398 -38.05701
v 14.63499 5.354298 -40.79461
v 14.3324 8.071301 -39.21861
v -42.4745 2.961903 25.6301
v -31.9651 2.655899 17.73979
v -32.3619 4.153702 14.9694
v -42.032 3.651604 22.7402
v -16.9484 0.029501 5.037095
v -18.5662 2.282001 2.536395
v -45.5977 2.148804 25.7658
v -35.0796 0.821001 17.13359
v -31.9651 2.655899 17.73979
v -42.4745 2.961903 25.6301
v -19.1152 -2.500698 3.310296
v -16.9484 0.029501 5.037095
v -20.73301 -0.248099 0.809696
v -35.47639 2.318802 14.3632
v -18.5662 2.282001 2.536395
v -45.1552 2.8386 22.87589
v -42.032 3.651604 22.7402
v -45.1552 2.8386 22.87589
v -45.5977 2.148804 25.7658
v -42.4745 2.961903 25.6301
v -35.47639 2.318802 14.3632
v -45.5977 2.148804 25.7658
v -45.1552 2.8386 22.87589
v -20.73301 -0.248099 0.809696
v -35.0796 0.821001 17.13359
v -35.47639 2.318802 14.3632
v 2.093796 3.577602 49.39979
v 8.332893 6.002106 45.50409
v 4.86451 3.646507 43.5144
v 4.913589 5.492802 51.0174
v 11.23489 6.991909 39.6923
v 8.165588 4.9072 37.93149
v 6.525291 2.313805 51.9807
v 10.31521 2.092007 46.6889
v 8.332893 6.002106 45.50409
v 4.913589 5.492802 51.0174
v 12.9892 3.531601 40.74079
v 11.23489 6.991909 39.6923
v 12.9892 3.531601 40.74079
v 9.919891 1.446903 38.98
v 11.23489 6.991909 39.6923
v 9.919891 1.446903 38.98
v 6.846893 -0.263596 44.6992
v 8.165588 4.9072 37.93149
v 3.70549 0.398605 50.36309
v 2.093796 3.577602 49.39979
v 3.70549 0.398605 50.36309
v 6.525291 2.313805 51.9807
v 4.913589 5.492802 51.0174
v -3.280304 3.605305 38.25069
v 2.959793 5.677605 37.4866
v 0.991798 3.664204 34.69249
v -1.680298 5.242203 40.52229
v 7.307098 6.523502 34.03289
v 5.565514 4.741802 31.56019
v -0.779804 2.525204 41.85059
v 4.067406 2.335602 39.12039
v 2.959793 5.677605 37.4866
v -1.680298 5.242203 40.52229
v 8.287201 3.566006 35.4788
v 7.307098 6.523502 34.03289
v 8.287201 3.566006 35.4788
v 6.5457 1.784302 33.0061
v 7.307098 6.523502 34.03289
v 6.5457 1.784302 33.0061
v 2.099403 0.322205 36.32629
v 5.565514 4.741802 31.56019
v -2.379795 0.888306 39.57899
v -3.280304 3.605305 38.25069
v -2.379795 0.888306 39.57899
v -0.779804 2.525204 41.85059
v -1.680298 5.242203 40.52229
vn -0.052301 0.661615 0.748017
vn -0.223199 0.965295 -0.135599
vn -0.416012 0.041201 0.908426
vn -0.0098 0.953985 -0.299695
vn -0.168403 0.953618 0.249505
vn -0.465817 -0.324512 0.82323
vn 0.712269 -0.550876 0.434981
vn -0.416012 0.041201 0.908426
vn 0.22281 -0.965243 0.136606
vn -0.052301 0.661615 0.748017
vn -0.465817 -0.324512 0.82323
vn 0.069798 -0.996277 0.050599
vn 0.570789 0.0047 -0.821084
vn 0.550118 0.020801 -0.834828
vn -0.168403 0.953618 0.249505
vn -0.0098 0.953985 -0.299695
vn 0.776374 0.605579 -0.174694
vn 0.776374 0.605579 -0.174694
vn -0.052301 0.661615 0.748017
vn 0.712269 -0.550876 0.434981
vn 0.550118 0.020801 -0.834828
vn 0.712269 -0.550876 0.434981
vn 0.776374 0.605579 -0.174694
vn 0.570789 0.0047 -0.821084
vn 0.22281 -0.965243 0.136606
vn 0.550118 0.020801 -0.834828
vn -0.955826 0.238207 -0.172205
vn 0.200992 0.967761 0.151794
vn -0.843708 0.249102 -0.475505
vn -0.282991 0.564682 0.775275
vn 0.334717 0.937846 -0.091705
vn -0.079003 0.138305 -0.987234
vn 0.441515 0.457716 0.771726
vn 0.725377 0.508384 0.464085
vn 0.200992 0.967761 0.151794
vn -0.282991 0.564682 0.775275
vn 0.787795 0.225699 -0.573096
vn 0.334717 0.937846 -0.091705
vn 0.787795 0.225699 -0.573096
vn -0.405595 -0.447194 -0.797189
vn 0.334717 0.937846 -0.091705
vn -0.405595 -0.447194 -0.797189
vn -0.735433 -0.508523 -0.44782
vn -0.079003 0.138305 -0.987234
vn -0.782978 -0.220694 0.581584
vn -0.955826 0.238207 -0.172205
vn -0.782978 -0.220694 0.581584
vn 0.441515 0.457716 0.771726
vn -0.282991 0.564682 0.775275
vn -0.052301 0.661615 0.748017
vn -0.223199 0.965295 -0.135599
vn -0.416012 0.041201 0.908426
vn -0.0098 0.953985 -0.299695
vn -0.168403 0.953618 0.249505
vn -0.465817 -0.324512 0.82323
vn 0.712269 -0.550876 0.434981
vn -0.416012 0.041201 0.908426
vn 0.22281 -0.965243 0.136606
vn -0.052301 0.661615 0.748017
vn -0.465817 -0.324512 0.82323
vn 0.069798 -0.996277 0.050599
vn 0.570789 0.0047 -0.821084
vn 0.550118 0.020801 -0.834828
vn -0.168403 0.953618 0.249505
vn -0.0098 0.953985 -0.299695
vn 0.776374 0.605579 -0.174694
vn 0.776374 0.605579 -0.174694
vn -0.052301 0.661615 0.748017
vn 0.712269 -0.550876 0.434981
vn 0.550118 0.020801 -0.834828
vn 0.712269 -0.550876 0.434981
vn 0.776374 0.605579 -0.174694
vn 0.570789 0.0047 -0.821084
vn 0.22281 -0.965243 0.136606
vn 0.550118 0.020801 -0.834828
vn -0.052301 0.661615 0.748017
vn -0.223199 0.965295 -0.135599
vn -0.416012 0.041201 0.908426
vn -0.0098 0.953985 -0.299695
vn -0.168403 0.953618 0.249505
vn -0.465817 -0.324512 0.82323
vn 0.712269 -0.550876 0.434981
vn -0.416012 0.041201 0.908426
vn 0.22281 -0.965243 0.136606
vn -0.052301 0.661615 0.748017
vn -0.465817 -0.324512 0.82323
vn 0.069798 -0.996277 0.050599
vn 0.570789 0.0047 -0.821084
vn 0.550118 0.020801 -0.834828
vn -0.168403 0.953618 0.249505
vn -0.0098 0.953985 -0.299695
vn 0.776374 0.605579 -0.174694
vn 0.776374 0.605579 -0.174694
vn -0.052301 0.661615 0.748017
vn 0.712269 -0.550876 0.434981
vn 0.550118 0.020801 -0.834828
vn 0.712269 -0.550876 0.434981
vn 0.776374 0.605579 -0.174694
vn 0.570789 0.0047 -0.821084
vn 0.22281 -0.965243 0.136606
vn 0.550118 0.020801 -0.834828
vn -0.621688 0.661588 0.419292
vn -0.5787 0.0412 0.8145
vn 0.229001 0.965302 0.1255
vn 0.264494 0.95398 -0.141297
vn -0.480018 -0.324512 0.815031
vn -0.131902 0.953612 0.270603
vn -0.732873 -0.55088 -0.399285
vn -0.229709 -0.965237 -0.124705
vn -0.5787 0.0412 0.8145
vn -0.621688 0.661588 0.419292
vn -0.078698 -0.996277 -0.035199
vn -0.480018 -0.324512 0.815031
vn 0.42572 0.0047 -0.904843
vn 0.447917 0.020801 -0.893834
vn -0.131902 0.953612 0.270603
vn -0.236898 0.605595 -0.759694
vn 0.264494 0.95398 -0.141297
vn -0.236898 0.605595 -0.759694
vn -0.732873 -0.55088 -0.399285
vn -0.621688 0.661588 0.419292
vn 0.447917 0.020801 -0.893834
vn -0.732873 -0.55088 -0.399285
vn -0.236898 0.605595 -0.759694
vn 0.42572 0.0047 -0.904843
vn -0.229709 -0.965237 -0.124705
vn 0.447917 0.020801 -0.893834
vn -0.621627 0.661629 0.419318
vn -0.5787 0.0412 0.8145
vn 0.229001 0.965302 0.1255
vn 0.264494 0.95398 -0.141297
vn -0.480018 -0.324512 0.815031
vn -0.131902 0.953612 0.270603
vn -0.732873 -0.55088 -0.399285
vn -0.229709 -0.965237 -0.124705
vn -0.5787 0.0412 0.8145
vn -0.621627 0.661629 0.419318
vn -0.078698 -0.996277 -0.035199
vn -0.480018 -0.324512 0.815031
vn 0.42572 0.0047 -0.904843
vn 0.447917 0.020801 -0.893834
vn -0.131902 0.953612 0.270603
vn -0.236898 0.605595 -0.759694
vn 0.264494 0.95398 -0.141297
vn -0.236898 0.605595 -0.759694
vn -0.732873 -0.55088 -0.399285
vn -0.621627 0.661629 0.419318
vn 0.447917 0.020801 -0.893834
vn -0.732873 -0.55088 -0.399285
vn -0.236898 0.605595 -0.759694
vn 0.42572 0.0047 -0.904843
vn -0.229709 -0.965237 -0.124705
vn 0.447917 0.020801 -0.893834
vn -0.621688 0.661588 0.419292
vn -0.5787 0.0412 0.8145
vn 0.229001 0.965302 0.1255
vn 0.264494 0.95398 -0.141297
vn -0.480018 -0.324512 0.815031
vn -0.131902 0.953612 0.270603
vn -0.732873 -0.55088 -0.399285
vn -0.229709 -0.965237 -0.124705
vn -0.5787 0.0412 0.8145
vn -0.621688 0.661588 0.419292
vn -0.078698 -0.996277 -0.035199
vn -0.480018 -0.324512 0.815031
vn 0.42572 0.0047 -0.904843
vn 0.447917 0.020801 -0.893834
vn -0.131902 0.953612 0.270603
vn -0.236898 0.605595 -0.759694
vn 0.264494 0.95398 -0.141297
vn -0.236898 0.605595 -0.759694
vn -0.732873 -0.55088 -0.399285
vn -0.621688 0.661588 0.419292
vn 0.447917 0.020801 -0.893834
vn -0.732873 -0.55088 -0.399285
vn -0.236898 0.605595 -0.759694
vn 0.42572 0.0047 -0.904843
vn -0.229709 -0.965237 -0.124705
vn 0.447917 0.020801 -0.893834
vn 0.551994 0.799991 0.235197
vn 0.946936 0.087403 0.309312
vn 0.041801 0.948333 -0.314511
vn -0.191897 0.935684 -0.296095
vn 0.896312 -0.321104 0.305804
vn 0.255002 0.960409 -0.112201
vn -0.14871 -0.633941 0.758949
vn -0.034699 -0.947661 0.317387
vn 0.946936 0.087403 0.309312
vn 0.551994 0.799991 0.235197
vn -0.0046 -0.975468 0.220093
vn 0.896312 -0.321104 0.305804
vn -0.978329 -0.032401 -0.204506
vn -0.97543 -0.023001 -0.219107
vn 0.255002 0.960409 -0.112201
vn -0.623419 0.773824 0.112004
vn -0.191897 0.935684 -0.296095
vn -0.623419 0.773824 0.112004
vn -0.14871 -0.633941 0.758949
vn 0.551994 0.799991 0.235197
vn -0.97543 -0.023001 -0.219107
vn -0.14871 -0.633941 0.758949
vn -0.623419 0.773824 0.112004
vn -0.978329 -0.032401 -0.204506
vn -0.034699 -0.947661 0.317387
vn -0.97543 -0.023001 -0.219107
vn 0.736201 0.658301 0.157
vn -0.206391 0.935559 0.286587
vn 0.875737 0.061003 0.47892
vn -0.387388 0.917572 0.089397
vn 0.233903 0.953613 0.189503
vn 0.779499 -0.3245 0.535799
vn 0.538517 -0.424414 -0.727923
vn 0.875737 0.061003 0.47892
vn 0.186294 -0.949867 -0.251091
vn 0.736201 0.658301 0.157
vn 0.779499 -0.3245 0.535799
vn 0.056498 -0.996272 -0.065198
vn -0.768246 0.0047 -0.640138
vn -0.787928 0.017401 -0.615522
vn 0.233903 0.953613 0.189503
vn -0.387388 0.917572 0.089397
vn -0.113102 0.603612 -0.789215
vn -0.113102 0.603612 -0.789215
vn 0.736201 0.658301 0.157
vn 0.538517 -0.424414 -0.727923
vn -0.787928 0.017401 -0.615522
vn 0.538517 -0.424414 -0.727923
vn -0.113102 0.603612 -0.789215
vn -0.768246 0.0047 -0.640138
vn 0.186294 -0.949867 -0.251091
vn -0.787928 0.017401 -0.615522
vn -0.244609 0.237309 0.940134
vn 0.207994 0.965072 -0.159296
vn -0.541674 0.250288 0.802462
vn 0.752172 0.554279 0.356387
vn 0.0413 0.972808 -0.227902
vn -0.813091 0.578794 0.062299
vn 0.824491 0.449695 -0.343496
vn 0.551085 0.516886 -0.655083
vn 0.207994 0.965072 -0.159296
vn 0.752172 0.554279 0.356387
vn -0.325304 0.688008 -0.648708
vn 0.0413 0.972808 -0.227902
vn -0.325304 0.688008 -0.648708
vn -0.899433 -0.222108 0.376414
vn 0.0413 0.972808 -0.227902
vn -0.899433 -0.222108 0.376414
vn -0.526001 -0.508401 0.681801
vn -0.813091 0.578794 0.062299
vn 0.511907 -0.220303 0.830312
vn -0.244609 0.237309 0.940134
vn 0.511907 -0.220303 0.830312
vn 0.824491 0.449695 -0.343496
vn 0.752172 0.554279 0.356387
vn 0.737314 0.658913 0.149003
vn -0.195303 0.942614 0.270804
vn 0.874387 0.056799 0.481893
vn -0.369014 0.927035 0.066602
vn 0.233903 0.953613 0.189503
vn 0.779499 -0.3245 0.535799
vn 0.530616 -0.450913 -0.717721
vn 0.874387 0.056799 0.481893
vn 0.179795 -0.953373 -0.242393
vn 0.737314 0.658913 0.149003
vn 0.779499 -0.3245 0.535799
vn 0.056498 -0.996272 -0.065198
vn -0.768246 0.0047 -0.640138
vn -0.787128 0.018201 -0.616522
vn 0.233903 0.953613 0.189503
vn -0.369014 0.927035 0.066602
vn -0.112193 0.603864 -0.789153
vn -0.112193 0.603864 -0.789153
vn 0.737314 0.658913 0.149003
vn 0.530616 -0.450913 -0.717721
vn -0.787128 0.018201 -0.616522
vn 0.530616 -0.450913 -0.717721
vn -0.112193 0.603864 -0.789153
vn -0.768246 0.0047 -0.640138
vn 0.179795 -0.953373 -0.242393
vn -0.787128 0.018201 -0.616522
vn 0.736201 0.658301 0.157
vn -0.206391 0.935559 0.286587
vn 0.875737 0.061003 0.47892
vn -0.387388 0.917572 0.089397
vn 0.233903 0.953613 0.189503
vn 0.779499 -0.3245 0.535799
vn 0.538517 -0.424414 -0.727923
vn 0.875737 0.061003 0.47892
vn 0.186294 -0.949867 -0.251091
vn 0.736201 0.658301 0.157
vn 0.779499 -0.3245 0.535799
vn 0.056498 -0.996272 -0.065198
vn -0.768246 0.0047 -0.640138
vn -0.787928 0.017401 -0.615522
vn 0.233903 0.953613 0.189503
vn -0.387388 0.917572 0.089397
vn -0.113102 0.603612 -0.789215
vn -0.113102 0.603612 -0.789215
vn 0.736201 0.658301 0.157
vn 0.538517 -0.424414 -0.727923
vn -0.787928 0.017401 -0.615522
vn 0.538517 -0.424414 -0.727923
vn -0.113102 0.603612 -0.789215
vn -0.768246 0.0047 -0.640138
vn 0.186294 -0.949867 -0.251091
vn -0.787928 0.017401 -0.615522
vn 0.399306 0.65831 0.638109
vn 0.749587 0.060999 0.659089
vn 0.198787 0.935538 -0.291981
vn -0.048499 0.917577 -0.39459
vn 0.77011 -0.324504 0.549207
vn 0.258101 0.953603 0.155
vn -0.49989 -0.424392 0.754985
vn -0.172193 -0.94986 0.260989
vn 0.749587 0.060999 0.659089
vn 0.399306 0.65831 0.638109
vn -0.041899 -0.99628 0.075299
vn 0.77011 -0.324504 0.549207
vn -0.86428 0.0047 -0.502989
vn -0.847887 0.0174 -0.529892
vn 0.258101 0.953603 0.155
vn -0.780301 0.6036 0.1637
vn -0.048499 0.917577 -0.39459
vn -0.780301 0.6036 0.1637
vn -0.49989 -0.424392 0.754985
vn 0.399306 0.65831 0.638109
vn -0.847887 0.0174 -0.529892
vn -0.49989 -0.424392 0.754985
vn -0.780301 0.6036 0.1637
vn -0.86428 0.0047 -0.502989
vn -0.172193 -0.94986 0.260989
vn -0.847887 0.0174 -0.529892
vn 0.392199 0.658898 0.641898
vn 0.751913 0.056801 0.656811
vn 0.187704 0.94262 -0.276106
vn -0.063601 0.92701 -0.369604
vn 0.77011 -0.324504 0.549207
vn 0.258101 0.953603 0.155
vn -0.492989 -0.45089 0.744084
vn -0.166297 -0.953386 0.251796
vn 0.751913 0.056801 0.656811
vn 0.392199 0.658898 0.641898
vn -0.041899 -0.99628 0.075299
vn 0.77011 -0.324504 0.549207
vn -0.86428 0.0047 -0.502989
vn -0.848565 0.018199 -0.528778
vn 0.258101 0.953603 0.155
vn -0.7799 0.6039 0.1645
vn -0.063601 0.92701 -0.369604
vn -0.7799 0.6039 0.1645
vn -0.492989 -0.45089 0.744084
vn 0.392199 0.658898 0.641898
vn -0.848565 0.018199 -0.528778
vn -0.492989 -0.45089 0.744084
vn -0.7799 0.6039 0.1645
vn -0.86428 0.0047 -0.502989
vn -0.166297 -0.953386 0.251796
vn -0.848565 0.018199 -0.528778
vn 0.399306 0.65831 0.638109
vn 0.749587 0.060999 0.659089
vn 0.198787 0.935538 -0.291981
vn -0.048499 0.917577 -0.39459
vn 0.77011 -0.324504 0.549207
vn 0.258101 0.953603 0.155
vn -0.49989 -0.424392 0.754985
vn -0.172193 -0.94986 0.260989
vn 0.749587 0.060999 0.659089
vn 0.399306 0.65831 0.638109
vn -0.041899 -0.99628 0.075299
vn 0.77011 -0.324504 0.549207
vn -0.86428 0.0047 -0.502989
vn -0.847887 0.0174 -0.529892
vn 0.258101 0.953603 0.155
vn -0.780301 0.6036 0.1637
vn -0.048499 0.917577 -0.39459
vn -0.780301 0.6036 0.1637
vn -0.49989 -0.424392 0.754985
vn 0.399306 0.65831 0.638109
vn -0.847887 0.0174 -0.529892
vn -0.49989 -0.424392 0.754985
vn -0.780301 0.6036 0.1637
vn -0.86428 0.0047 -0.502989
vn -0.172193 -0.94986 0.260989
vn -0.847887 0.0174 -0.529892
vn -0.180091 0.231788 0.955951
vn 0.224993 0.963071 -0.147896
vn -0.511408 0.247204 0.823014
vn 0.7576 0.5418 0.364
vn -0.035101 0.942938 -0.331113
vn -0.990522 0.137303 -0.0037
vn 0.83274 0.445522 -0.328716
vn 0.525604 0.508404 -0.682105
vn 0.224993 0.963071 -0.147896
vn 0.7576 0.5418 0.364
vn -0.507276 0.22289 -0.832461
vn -0.035101 0.942938 -0.331113
vn -0.507276 0.22289 -0.832461
vn -0.847097 -0.437498 0.301699
vn -0.035101 0.942938 -0.331113
vn -0.847097 -0.437498 0.301699
vn -0.486807 -0.508407 0.710311
vn -0.990522 0.137303 -0.0037
vn 0.522414 -0.214306 0.825322
vn -0.180091 0.231788 0.955951
vn 0.522414 -0.214306 0.825322
vn 0.83274 0.445522 -0.328716
vn 0.7576 0.5418 0.364
vn -0.567194 0.231798 0.790292
vn 0.266393 0.963075 -0.038999
vn -0.811299 0.2472 0.529799
vn 0.532786 0.541786 0.650083
vn 0.108105 0.942943 -0.314915
vn -0.896189 0.137298 -0.421895
vn 0.893642 0.445521 0.054002
vn 0.76465 0.508367 -0.396074
vn 0.266393 0.963075 -0.038999
vn 0.532786 0.541786 0.650083
vn -0.107906 0.222911 -0.968848
vn 0.108105 0.942943 -0.314915
vn -0.107906 0.222911 -0.968848
vn -0.895232 -0.437515 -0.084503
vn 0.108105 0.942943 -0.314915
vn -0.895232 -0.437515 -0.084503
vn -0.741404 -0.508403 0.438003
vn -0.896189 0.137298 -0.421895
vn 0.124697 -0.214295 0.968777
vn -0.567194 0.231798 0.790292
vn 0.124697 -0.214295 0.968777
vn 0.893642 0.445521 0.054002
vn 0.532786 0.541786 0.650083
vn 0.240797 0.231797 0.94249
vn 0.141397 0.96308 -0.229095
vn -0.115704 0.247208 0.96203
vn 0.840437 0.541823 0.0097
vn -0.171803 0.942913 -0.285304
vn -0.89927 0.137296 0.415286
vn 0.615785 0.445489 -0.649884
vn 0.188104 0.508411 -0.840318
vn 0.141397 0.96308 -0.229095
vn 0.840437 0.541823 0.0097
vn -0.811565 0.22289 -0.540077
vn -0.171803 0.942913 -0.285304
vn -0.811565 0.22289 -0.540077
vn -0.640223 -0.437516 0.631423
vn -0.171803 0.942913 -0.285304
vn -0.640223 -0.437516 0.631423
vn -0.141 -0.5084 0.849499
vn -0.89927 0.137296 0.415286
vn 0.822283 -0.214296 0.527189
vn 0.240797 0.231797 0.94249
vn 0.822283 -0.214296 0.527189
vn 0.615785 0.445489 -0.649884
vn 0.840437 0.541823 0.0097
vn 0.081104 0.89094 0.44682
vn 0.637234 0.0067 0.770641
vn -0.043298 0.994254 -0.097896
vn -0.196703 0.976314 -0.090101
vn 0.570195 -0.334797 0.750193
vn 0.217294 0.971874 0.090797
vn -0.136604 -0.974429 0.178405
vn -0.072198 -0.990266 0.118996
vn 0.637234 0.0067 0.770641
vn 0.081104 0.89094 0.44682
vn -0.085297 -0.986669 0.138596
vn 0.570195 -0.334797 0.750193
vn -0.684586 -0.032999 -0.728185
vn -0.68336 -0.018099 -0.729857
vn 0.217294 0.971874 0.090797
vn -0.469601 0.876803 -0.103401
vn -0.196703 0.976314 -0.090101
vn -0.469601 0.876803 -0.103401
vn -0.136604 -0.974429 0.178405
vn 0.081104 0.89094 0.44682
vn -0.68336 -0.018099 -0.729857
vn -0.136604 -0.974429 0.178405
vn -0.469601 0.876803 -0.103401
vn -0.684586 -0.032999 -0.728185
vn -0.072198 -0.990266 0.118996
vn -0.68336 -0.018099 -0.729857
vn -0.968005 0.231801 -0.0961
vn 0.166995 0.963073 0.211194
vn -0.864454 0.247215 -0.437727
vn -0.296608 0.541816 0.786422
vn 0.326812 0.942933 -0.063802
vn -0.082698 0.137296 -0.987072
vn 0.400102 0.445502 0.800904
vn 0.725296 0.508397 0.464197
vn 0.166995 0.963073 0.211194
vn -0.296608 0.541816 0.786422
vn 0.785086 0.222896 -0.57789
vn 0.326812 0.942933 -0.063802
vn 0.785086 0.222896 -0.57789
vn -0.374421 -0.437525 -0.817546
vn 0.326812 0.942933 -0.063802
vn -0.374421 -0.437525 -0.817546
vn -0.750038 -0.508426 -0.423021
vn -0.082698 0.137296 -0.987072
vn -0.776651 -0.214287 0.592363
vn -0.968005 0.231801 -0.0961
vn -0.776651 -0.214287 0.592363
vn 0.400102 0.445502 0.800904
vn -0.296608 0.541816 0.786422
vn -0.836695 0.231799 -0.496197
vn 0.062098 0.96307 0.261992
vn -0.598468 0.247187 -0.762059
vn -0.601192 0.541793 0.587392
vn 0.323208 0.942923 0.080202
vn 0.342213 0.137305 -0.929536
vn 0.024099 0.445483 0.894966
vn 0.461201 0.508401 0.727201
vn 0.062098 0.96307 0.261992
vn -0.601192 0.541793 0.587392
vn 0.955751 0.222889 -0.19199
vn 0.323208 0.942923 0.080202
vn 0.955751 0.222889 -0.19199
vn 0.0062 -0.437499 -0.899198
vn 0.323208 0.942923 0.080202
vn 0.0062 -0.437499 -0.899198
vn -0.500992 -0.508392 -0.700389
vn 0.342213 0.137305 -0.929536
vn -0.954231 -0.214307 0.208607
vn -0.836695 0.231799 -0.496197
vn -0.954231 -0.214307 0.208607
vn 0.024099 0.445483 0.894966
vn -0.601192 0.541793 0.587392
vt 0.0081 0.5838
vt 0.4961 0.6879
vt 0.4961 0.5838
vt 0.0081 0.6879
vt 0.984 0.6879
vt 0.984 0.5838
vt 0.0081 0.5838
vt 0.4961 0.6879
vt 0.4961 0.5838
vt 0.0081 0.6879
vt 0.984 0.6879
vt 0.984 0.5838
vt 0.0081 0.5838
vt 0.4961 0.5838
vt 0.0081 0.6879
vt 0.984 0.6879
vt 0.984 0.5838
vt 0.0081 0.5838
vt 0.984 0.6879
vt 0.984 0.5838
vt 0.0081 0.5838
vt 0.4961 0.6879
vt 0.0081 0.6879
vt 0.4961 0.5838
vt 0.984 0.6879
vt 0.4961 0.6879
vt 0.0081 0.6747
vt 0.4961 0.591
vt 0.4961 0.6747
vt 0.0081 0.591
vt 0.984 0.591
vt 0.984 0.6747
vt 0.0081 0.591
vt 0.4961 0.591
vt 0.4961 0.6747
vt 0.0081 0.6747
vt 0.984 0.591
vt 0.984 0.6747
vt 0.0081 0.591
vt 0.984 0.591
vt 0.0081 0.6747
vt 0.0081 0.591
vt 0.4961 0.591
vt 0.0081 0.6747
vt 0.984 0.591
vt 0.984 0.6747
vt 0.0081 0.591
vt 0.984 0.591
vt 0.984 0.6747
vt 0.0081 0.5838
vt 0.4961 0.6879
vt 0.4961 0.5838
vt 0.0081 0.6879
vt 0.984 0.6879
vt 0.984 0.5838
vt 0.0081 0.5838
vt 0.4961 0.6879
vt 0.4961 0.5838
vt 0.0081 0.6879
vt 0.984 0.6879
vt 0.984 0.5838
vt 0.0081 0.5838
vt 0.4961 0.5838
vt 0.0081 0.6879
vt 0.984 0.6879
vt 0.984 0.5838
vt 0.0081 0.5838
vt 0.984 0.6879
vt 0.984 0.5838
vt 0.0081 0.5838
vt 0.4961 0.6879
vt 0.0081 0.6879
vt 0.4961 0.5838
vt 0.984 0.6879
vt 0.4961 0.6879
vt 0.0081 0.5838
vt 0.4961 0.6879
vt 0.4961 0.5838
vt 0.0081 0.6879
vt 0.984 0.6879
vt 0.984 0.5838
vt 0.0081 0.5838
vt 0.4961 0.6879
vt 0.4961 0.5838
vt 0.0081 0.6879
vt 0.984 0.6879
vt 0.984 0.5838
vt 0.0081 0.5838
vt 0.4961 0.5838
vt 0.0081 0.6879
vt 0.984 0.6879
vt 0.984 0.5838
vt 0.0081 0.5838
vt 0.984 0.6879
vt 0.984 0.5838
vt 0.0081 0.5838
vt 0.4961 0.6879
vt 0.0081 0.6879
vt 0.4961 0.5838
vt 0.984 0.6879
vt 0.4961 0.6879
vt 0.0081 0.5838
vt 0.4961 0.5838
vt 0.4961 0.6879
vt 0.0081 0.6879
vt 0.984 0.5838
vt 0.984 0.6879
vt 0.0081 0.5838
vt 0.4961 0.5838
vt 0.4961 0.6879
vt 0.0081 0.6879
vt 0.984 0.5838
vt 0.984 0.6879
vt 0.0081 0.5838
vt 0.4961 0.5838
vt 0.0081 0.6879
vt 0.984 0.5838
vt 0.984 0.6879
vt 0.0081 0.5838
vt 0.984 0.5838
vt 0.984 0.6879
vt 0.0081 0.5838
vt 0.4961 0.6879
vt 0.0081 0.6879
vt 0.4961 0.5838
vt 0.984 0.6879
vt 0.4961 0.6879
vt 0.0081 0.5838
vt 0.4961 0.5838
vt 0.4961 0.6879
vt 0.0081 0.6879
vt 0.984 0.5838
vt 0.984 0.6879
vt 0.0081 0.5838
vt 0.4961 0.5838
vt 0.4961 0.6879
vt 0.0081 0.6879
vt 0.984 0.5838
vt 0.984 0.6879
vt 0.0081 0.5838
vt 0.4961 0.5838
vt 0.0081 0.6879
vt 0.984 0.5838
vt 0.984 0.6879
vt 0.0081 0.5838
vt 0.984 0.5838
vt 0.984 0.6879
vt 0.0081 0.5838
vt 0.4961 0.6879
vt 0.0081 0.6879
vt 0.4961 0.5838
vt 0.984 0.6879
vt 0.4961 0.6879
vt 0.0081 0.5838
vt 0.4961 0.5838
vt 0.4961 0.6879
vt 0.0081 0.6879
vt 0.984 0.5838
vt 0.984 0.6879
vt 0.0081 0.5838
vt 0.4961 0.5838
vt 0.4961 0.6879
vt 0.0081 0.6879
vt 0.984 0.5838
vt 0.984 0.6879
vt 0.0081 0.5838
vt 0.4961 0.5838
vt 0.0081 0.6879
vt 0.984 0.5838
vt 0.984 0.6879
vt 0.0081 0.5838
vt 0.984 0.5838
vt 0.984 0.6879
vt 0.0081 0.5838
vt 0.4961 0.6879
vt 0.0081 0.6879
vt 0.4961 0.5838
vt 0.984 0.6879
vt 0.4961 0.6879
vt 0.0081 0.5838
vt 0.4961 0.5838
vt 0.4961 0.6879
vt 0.0081 0.6879
vt 0.984 0.5838
vt 0.984 0.6879
vt 0.0081 0.5838
vt 0.4961 0.5838
vt 0.4961 0.6879
vt 0.0081 0.6879
vt 0.984 0.5838
vt 0.984 0.6879
vt 0.0081 0.5838
vt 0.4961 0.5838
vt 0.0081 0.6879
vt 0.984 0.5838
vt 0.984 0.6879
vt 0.0081 0.5838
vt 0.984 0.5838
vt 0.984 0.6879
vt 0.0081 0.5838
vt 0.4961 0.6879
vt 0.0081 0.6879
vt 0.4961 0.5838
vt 0.984 0.6879
vt 0.4961 0.6879
vt 0.0081 0.5838
vt 0.4961 0.6879
vt 0.4961 0.5838
vt 0.0081 0.6879
vt 0.984 0.6879
vt 0.984 0.5838
vt 0.0081 0.5838
vt 0.4961 0.6879
vt 0.4961 0.5838
vt 0.0081 0.6879
vt 0.984 0.6879
vt 0.984 0.5838
vt 0.0081 0.5838
vt 0.4961 0.5838
vt 0.0081 0.6879
vt 0.984 0.6879
vt 0.984 0.5838
vt 0.0081 0.5838
vt 0.984 0.6879
vt 0.984 0.5838
vt 0.0081 0.5838
vt 0.4961 0.6879
vt 0.0081 0.6879
vt 0.4961 0.5838
vt 0.984 0.6879
vt 0.4961 0.6879
vt 0.0081 0.6747
vt 0.4961 0.591
vt 0.4961 0.6747
vt 0.0081 0.591
vt 0.984 0.591
vt 0.984 0.6747
vt 0.0081 0.591
vt 0.4961 0.591
vt 0.4961 0.6747
vt 0.0081 0.6747
vt 0.984 0.591
vt 0.984 0.6747
vt 0.0081 0.591
vt 0.984 0.591
vt 0.0081 0.6747
vt 0.0081 0.591
vt 0.4961 0.591
vt 0.0081 0.6747
vt 0.984 0.591
vt 0.984 0.6747
vt 0.0081 0.591
vt 0.984 0.591
vt 0.984 0.6747
vt 0.0081 0.5838
vt 0.4961 0.6879
vt 0.4961 0.5838
vt 0.0081 0.6879
vt 0.984 0.6879
vt 0.984 0.5838
vt 0.0081 0.5838
vt 0.4961 0.6879
vt 0.4961 0.5838
vt 0.0081 0.6879
vt 0.984 0.6879
vt 0.984 0.5838
vt 0.0081 0.5838
vt 0.4961 0.5838
vt 0.0081 0.6879
vt 0.984 0.6879
vt 0.984 0.5838
vt 0.0081 0.5838
vt 0.984 0.6879
vt 0.984 0.5838
vt 0.0081 0.5838
vt 0.4961 0.6879
vt 0.0081 0.6879
vt 0.4961 0.5838
vt 0.984 0.6879
vt 0.4961 0.6879
vt 0.0081 0.5838
vt 0.4961 0.6879
vt 0.4961 0.5838
vt 0.0081 0.6879
vt 0.984 0.6879
vt 0.984 0.5838
vt 0.0081 0.5838
vt 0.4961 0.6879
vt 0.4961 0.5838
vt 0.0081 0.6879
vt 0.984 0.6879
vt 0.984 0.5838
vt 0.0081 0.5838
vt 0.4961 0.5838
vt 0.0081 0.6879
vt 0.984 0.6879
vt 0.984 0.5838
vt 0.0081 0.5838
vt 0.984 0.6879
vt 0.984 0.5838
vt 0.0081 0.5838
vt 0.4961 0.6879
vt 0.0081 0.6879
vt 0.4961 0.5838
vt 0.984 0.6879
vt 0.4961 0.6879
vt 0.0081 0.5838
vt 0.4961 0.5838
vt 0.4961 0.6879
vt 0.0081 0.6879
vt 0.984 0.5838
vt 0.984 0.6879
vt 0.0081 0.5838
vt 0.4961 0.5838
vt 0.4961 0.6879
vt 0.0081 0.6879
vt 0.984 0.5838
vt 0.984 0.6879
vt 0.0081 0.5838
vt 0.4961 0.5838
vt 0.0081 0.6879
vt 0.984 0.5838
vt 0.984 0.6879
vt 0.0081 0.5838
vt 0.984 0.5838
vt 0.984 0.6879
vt 0.0081 0.5838
vt 0.4961 0.6879
vt 0.0081 0.6879
vt 0.4961 0.5838
vt 0.984 0.6879
vt 0.4961 0.6879
vt 0.0081 0.5838
vt 0.4961 0.5838
vt 0.4961 0.6879
vt 0.0081 0.6879
vt 0.984 0.5838
vt 0.984 0.6879
vt 0.0081 0.5838
vt 0.4961 0.5838
vt 0.4961 0.6879
vt 0.0081 0.6879
vt 0.984 0.5838
vt 0.984 0.6879
vt 0.0081 0.5838
vt 0.4961 0.5838
vt 0.0081 0.6879
vt 0.984 0.5838
vt 0.984 0.6879
vt 0.0081 0.5838
vt 0.984 0.5838
vt 0.984 0.6879
vt 0.0081 0.5838
vt 0.4961 0.6879
vt 0.0081 0.6879
vt 0.4961 0.5838
vt 0.984 0.6879
vt 0.4961 0.6879
vt 0.0081 0.5838
vt 0.4961 0.5838
vt 0.4961 0.6879
vt 0.0081 0.6879
vt 0.984 0.5838
vt 0.984 0.6879
vt 0.0081 0.5838
vt 0.4961 0.5838
vt 0.4961 0.6879
vt 0.0081 0.6879
vt 0.984 0.5838
vt 0.984 0.6879
vt 0.0081 0.5838
vt 0.4961 0.5838
vt 0.0081 0.6879
vt 0.984 0.5838
vt 0.984 0.6879
vt 0.0081 0.5838
vt 0.984 0.5838
vt 0.984 0.6879
vt 0.0081 0.5838
vt 0.4961 0.6879
vt 0.0081 0.6879
vt 0.4961 0.5838
vt 0.984 0.6879
vt 0.4961 0.6879
vt 0.0081 0.6747
vt 0.4961 0.591
vt 0.4961 0.6747
vt 0.0081 0.591
vt 0.984 0.591
vt 0.984 0.6747
vt 0.0081 0.591
vt 0.4961 0.591
vt 0.4961 0.6747
vt 0.0081 0.6747
vt 0.984 0.591
vt 0.984 0.6747
vt 0.0081 0.591
vt 0.984 0.591
vt 0.0081 0.6747
vt 0.0081 0.591
vt 0.4961 0.591
vt 0.0081 0.6747
vt 0.984 0.591
vt 0.984 0.6747
vt 0.0081 0.591
vt 0.984 0.591
vt 0.984 0.6747
vt 0.0081 0.6747
vt 0.4961 0.591
vt 0.4961 0.6747
vt 0.0081 0.591
vt 0.984 0.591
vt 0.984 0.6747
vt 0.0081 0.591
vt 0.4961 0.591
vt 0.4961 0.6747
vt 0.0081 0.6747
vt 0.984 0.591
vt 0.984 0.6747
vt 0.0081 0.591
vt 0.984 0.591
vt 0.0081 0.6747
vt 0.0081 0.591
vt 0.4961 0.591
vt 0.0081 0.6747
vt 0.984 0.591
vt 0.984 0.6747
vt 0.0081 0.591
vt 0.984 0.591
vt 0.984 0.6747
vt 0.0081 0.6747
vt 0.4961 0.591
vt 0.4961 0.6747
vt 0.0081 0.591
vt 0.984 0.591
vt 0.984 0.6747
vt 0.0081 0.591
vt 0.4961 0.591
vt 0.4961 0.6747
vt 0.0081 0.6747
vt 0.984 0.591
vt 0.984 0.6747
vt 0.0081 0.591
vt 0.984 0.591
vt 0.0081 0.6747
vt 0.0081 0.591
vt 0.4961 0.591
vt 0.0081 0.6747
vt 0.984 0.591
vt 0.984 0.6747
vt 0.0081 0.591
vt 0.984 0.591
vt 0.984 0.6747
vt 0.0081 0.5838
vt 0.4961 0.5838
vt 0.4961 0.6879
vt 0.0081 0.6879
vt 0.984 0.5838
vt 0.984 0.6879
vt 0.0081 0.5838
vt 0.4961 0.5838
vt 0.4961 0.6879
vt 0.0081 0.6879
vt 0.984 0.5838
vt 0.984 0.6879
vt 0.0081 0.5838
vt 0.4961 0.5838
vt 0.0081 0.6879
vt 0.984 0.5838
vt 0.984 0.6879
vt 0.0081 0.5838
vt 0.984 0.5838
vt 0.984 0.6879
vt 0.0081 0.5838
vt 0.4961 0.6879
vt 0.0081 0.6879
vt 0.4961 0.5838
vt 0.984 0.6879
vt 0.4961 0.6879
vt 0.0081 0.6747
vt 0.4961 0.591
vt 0.4961 0.6747
vt 0.0081 0.591
vt 0.984 0.591
vt 0.984 0.6747
vt 0.0081 0.591
vt 0.4961 0.591
vt 0.4961 0.6747
vt 0.0081 0.6747
vt 0.984 0.591
vt 0.984 0.6747
vt 0.0081 0.591
vt 0.984 0.591
vt 0.0081 0.6747
vt 0.0081 0.591
vt 0.4961 0.591
vt 0.0081 0.6747
vt 0.984 0.591
vt 0.984 0.6747
vt 0.0081 0.591
vt 0.984 0.591
vt 0.984 0.6747
vt 0.0081 0.6747
vt 0.4961 0.591
vt 0.4961 0.6747
vt 0.0081 0.591
vt 0.984 0.591
vt 0.984 0.6747
vt 0.0081 0.591
vt 0.4961 0.591
vt 0.4961 0.6747
vt 0.0081 0.6747
vt 0.984 0.591
vt 0.984 0.6747
vt 0.0081 0.591
vt 0.984 0.591
vt 0.0081 0.6747
vt 0.0081 0.591
vt 0.4961 0.591
vt 0.0081 0.6747
vt 0.984 0.591
vt 0.984 0.6747
vt 0.0081 0.591
vt 0.984 0.591
vt 0.984 0.6747
f 1/1/1 3/3/3 2/2/2
f 2/2/2 4/4/4 1/1/1
f 3/3/3 6/6/6 5/5/5
f 5/5/5 2/2/2 3/3/3
f 7/7/7 9/9/9 8/8/8
f 8/8/8 10/10/10 7/7/7
f 9/9/9 12/12/12 11/11/11
f 11/11/11 8/8/8 9/9/9
f 13/13/13 14/14/14 2/2/2
f 2/2/2 15/15/15 13/13/13
f 14/14/14 17/17/17 16/16/16
f 16/16/16 2/2/2 14/14/14
f 18/18/18 20/20/20 19/19/19
f 19/19/19 4/4/4 18/18/18
f 21/21/21 9/9/9 22/22/22
f 22/22/22 23/23/23 21/21/21
f 24/24/24 12/12/12 25/25/25
f 25/25/25 26/26/26 24/24/24
f 27/27/27 29/29/29 28/28/28
f 28/28/28 30/30/30 27/27/27
f 29/29/29 32/32/32 31/31/31
f 31/31/31 28/28/28 29/29/29
f 33/33/33 35/35/35 34/34/34
f 35/35/35 33/33/33 36/36/36
f 34/34/34 38/38/38 37/37/37
f 38/38/38 34/34/34 35/35/35
f 39/39/39 32/32/32 40/40/40
f 32/32/32 39/39/39 41/41/41
f 42/42/42 29/29/29 43/43/43
f 29/29/29 42/42/42 44/44/44
f 43/43/43 46/46/46 45/45/45
f 46/46/46 43/43/43 29/29/29
f 47/47/47 49/49/49 48/48/48
f 49/49/49 47/47/47 27/27/27
f 50/50/50 52/52/52 51/51/51
f 51/51/51 53/53/53 50/50/50
f 52/52/52 55/55/55 54/54/54
f 54/54/54 51/51/51 52/52/52
f 56/56/56 58/58/58 57/57/57
f 57/57/57 59/59/59 56/56/56
f 58/58/58 61/61/61 60/60/60
f 60/60/60 57/57/57 58/58/58
f 62/62/62 63/63/63 51/51/51
f 51/51/51 64/64/64 62/62/62
f 63/63/63 66/66/66 65/65/65
f 65/65/65 51/51/51 63/63/63
f 67/67/67 69/69/69 68/68/68
f 68/68/68 53/53/53 67/67/67
f 70/70/70 58/58/58 71/71/71
f 71/71/71 72/72/72 70/70/70
f 73/73/73 61/61/61 74/74/74
f 74/74/74 75/75/75 73/73/73
f 76/76/76 78/78/78 77/77/77
f 77/77/77 79/79/79 76/76/76
f 78/78/78 81/81/81 80/80/80
f 80/80/80 77/77/77 78/78/78
f 82/82/82 84/84/84 83/83/83
f 83/83/83 85/85/85 82/82/82
f 84/84/84 87/87/87 86/86/86
f 86/86/86 83/83/83 84/84/84
f 88/88/88 89/89/89 77/77/77
f 77/77/77 90/90/90 88/88/88
f 89/89/89 92/92/92 91/91/91
f 91/91/91 77/77/77 89/89/89
f 93/93/93 95/95/95 94/94/94
f 94/94/94 79/79/79 93/93/93
f 96/96/96 84/84/84 97/97/97
f 97/97/97 98/98/98 96/96/96
f 99/99/99 87/87/87 100/100/100
f 100/100/100 101/101/101 99/99/99
f 102/102/102 104/104/104 103/103/103
f 104/104/104 102/102/102 105/105/105
f 103/103/103 107/107/107 106/106/106
f 107/107/107 103/103/103 104/104/104
f 108/108/108 110/110/110 109/109/109
f 110/110/110 108/108/108 111/111/111
f 109/109/109 113/113/113 112/112/112
f 113/113/113 109/109/109 110/110/110
f 114/114/114 104/104/104 115/115/115
f 104/104/104 114/114/114 116/116/116
f 115/115/115 118/118/118 117/117/117
f 118/118/118 115/115/115 104/104/104
f 119/119/119 121/121/121 120/120/120
f 121/121/121 119/119/119 105/105/105
f 122/122/122 123/123/123 109/109/109
f 123/123/123 122/122/122 124/124/124
f 125/125/125 126/126/126 112/112/112
f 126/126/126 125/125/125 127/127/127
f 128/128/128 130/130/130 129/129/129
f 130/130/130 128/128/128 131/131/131
f 129/129/129 133/133/133 132/132/132
f 133/133/133 129/129/129 130/130/130
f 134/134/134 136/136/136 135/135/135
f 136/136/136 134/134/134 137/137/137
f 135/135/135 139/139/139 138/138/138
f 139/139/139 135/135/135 136/136/136
f 140/140/140 130/130/130 141/141/141
f 130/130/130 140/140/140 142/142/142
f 141/141/141 144/144/144 143/143/143
f 144/144/144 141/141/141 130/130/130
f 145/145/145 147/147/147 146/146/146
f 147/147/147 145/145/145 131/131/131
f 148/148/148 149/149/149 135/135/135
f 149/149/149 148/148/148 150/150/150
f 151/151/151 152/152/152 138/138/138
f 152/152/152 151/151/151 153/153/153
f 154/154/154 156/156/156 155/155/155
f 156/156/156 154/154/154 157/157/157
f 155/155/155 159/159/159 158/158/158
f 159/159/159 155/155/155 156/156/156
f 160/160/160 162/162/162 161/161/161
f 162/162/162 160/160/160 163/163/163
f 161/161/161 165/165/165 164/164/164
f 165/165/165 161/161/161 162/162/162
f 166/166/166 156/156/156 167/167/167
f 156/156/156 166/166/166 168/168/168
f 167/167/167 170/170/170 169/169/169
f 170/170/170 167/167/167 156/156/156
f 171/171/171 173/173/173 172/172/172
f 173/173/173 171/171/171 157/157/157
f 174/174/174 175/175/175 161/161/161
f 175/175/175 174/174/174 176/176/176
f 177/177/177 178/178/178 164/164/164
f 178/178/178 177/177/177 179/179/179
f 180/180/180 182/182/182 181/181/181
f 182/182/182 180/180/180 183/183/183
f 181/181/181 185/185/185 184/184/184
f 185/185/185 181/181/181 182/182/182
f 186/186/186 188/188/188 187/187/187
f 188/188/188 186/186/186 189/189/189
f 187/187/187 191/191/191 190/190/190
f 191/191/191 187/187/187 188/188/188
f 192/192/192 182/182/182 193/193/193
f 182/182/182 192/192/192 194/194/194
f 193/193/193 196/196/196 195/195/195
f 196/196/196 193/193/193 182/182/182
f 197/197/197 199/199/199 198/198/198
f 199/199/199 197/197/197 183/183/183
f 200/200/200 201/201/201 187/187/187
f 201/201/201 200/200/200 202/202/202
f 203/203/203 204/204/204 190/190/190
f 204/204/204 203/203/203 205/205/205
f 206/206/206 208/208/208 207/207/207
f 207/207/207 209/209/209 206/206/206
f 208/208/208 211/211/211 210/210/210
f 210/210/210 207/207/207 208/208/208
f 212/212/212 214/214/214 213/213/213
f 213/213/213 215/215/215 212/212/212
f 214/214/214 217/217/217 216/216/216
f 216/216/216 213/213/213 214/214/214
f 218/218/218 219/219/219 207/207/207
f 207/207/207 220/220/220 218/218/218
f 219/219/219 222/222/222 221/221/221
f 221/221/221 207/207/207 219/219/219
f 223/223/223 225/225/225 224/224/224
f 224/224/224 209/209/209 223/223/223
f 226/226/226 214/214/214 227/227/227
f 227/227/227 228/228/228 226/226/226
f 229/229/229 217/217/217 230/230/230
f 230/230/230 231/231/231 229/229/229
f 232/232/232 234/234/234 233/233/233
f 233/233/233 235/235/235 232/232/232
f 234/234/234 237/237/237 236/236/236
f 236/236/236 233/233/233 234/234/234
f 238/238/238 240/240/240 239/239/239
f 240/240/240 238/238/238 241/241/241
f 239/239/239 243/243/243 242/242/242
f 243/243/243 239/239/239 240/240/240
f 244/244/244 237/237/237 245/245/245
f 237/237/237 244/244/244 246/246/246
f 247/247/247 234/234/234 248/248/248
f 234/234/234 247/247/247 249/249/249
f 248/248/248 251/251/251 250/250/250
f 251/251/251 248/248/248 234/234/234
f 252/252/252 254/254/254 253/253/253
f 254/254/254 252/252/252 232/232/232
f 255/255/255 257/257/257 256/256/256
f 256/256/256 258/258/258 255/255/255
f 257/257/257 260/260/260 259/259/259
f 259/259/259 256/256/256 257/257/257
f 261/261/261 263/263/263 262/262/262
f 262/262/262 264/264/264 261/261/261
f 263/263/263 266/266/266 265/265/265
f 265/265/265 262/262/262 263/263/263
f 267/267/267 268/268/268 256/256/256
f 256/256/256 269/269/269 267/267/267
f 268/268/268 271/271/271 270/270/270
f 270/270/270 256/256/256 268/268/268
f 272/272/272 274/274/274 273/273/273
f 273/273/273 258/258/258 272/272/272
f 275/275/275 263/263/263 276/276/276
f 276/276/276 277/277/277 275/275/275
f 278/278/278 266/266/266 279/279/279
f 279/279/279 280/280/280 278/278/278
f 281/281/281 283/283/283 282/282/282
f 282/282/282 284/284/284 281/281/281
f 283/283/283 286/286/286 285/285/285
f 285/285/285 282/282/282 283/283/283
f 287/287/287 289/289/289 288/288/288
f 288/288/288 290/290/290 287/287/287
f 289/289/289 292/292/292 291/291/291
f 291/291/291 288/288/288 289/289/289
f 293/293/293 294/294/294 282/282/282
f 282/282/282 295/295/295 293/293/293
f 294/294/294 297/297/297 296/296/296
f 296/296/296 282/282/282 294/294/294
f 298/298/298 300/300/300 299/299/299
f 299/299/299 284/284/284 298/298/298
f 301/301/301 289/289/289 302/302/302
f 302/302/302 303/303/303 301/301/301
f 304/304/304 292/292/292 305/305/305
f 305/305/305 306/306/306 304/304/304
f 307/307/307 309/309/309 308/308/308
f 309/309/309 307/307/307 310/310/310
f 308/308/308 312/312/312 311/311/311
f 312/312/312 308/308/308 309/309/309
f 313/313/313 315/315/315 314/314/314
f 315/315/315 313/313/313 316/316/316
f 314/314/314 318/318/318 317/317/317
f 318/318/318 314/314/314 315/315/315
f 319/319/319 309/309/309 320/320/320
f 309/309/309 319/319/319 321/321/321
f 320/320/320 323/323/323 322/322/322
f 323/323/323 320/320/320 309/309/309
f 324/324/324 326/326/326 325/325/325
f 326/326/326 324/324/324 310/310/310
f 327/327/327 328/328/328 314/314/314
f 328/328/328 327/327/327 329/329/329
f 330/330/330 331/331/331 317/317/317
f 331/331/331 330/330/330 332/332/332
f 333/333/333 335/335/335 334/334/334
f 335/335/335 333/333/333 336/336/336
f 334/334/334 338/338/338 337/337/337
f 338/338/338 334/334/334 335/335/335
f 339/339/339 341/341/341 340/340/340
f 341/341/341 339/339/339 342/342/342
f 340/340/340 344/344/344 343/343/343
f 344/344/344 340/340/340 341/341/341
f 345/345/345 335/335/335 346/346/346
f 335/335/335 345/345/345 347/347/347
f 346/346/346 349/349/349 348/348/348
f 349/349/349 346/346/346 335/335/335
f 350/350/350 352/352/352 351/351/351
f 352/352/352 350/350/350 336/336/336
f 353/353/353 354/354/354 340/340/340
f 354/354/354 353/353/353 355/355/355
f 356/356/356 357/357/357 343/343/343
f 357/357/357 356/356/356 358/358/358
f 359/359/359 361/361/361 360/360/360
f 361/361/361 359/359/359 362/362/362
f 360/360/360 364/364/364 363/363/363
f 364/364/364 360/360/360 361/361/361
f 365/365/365 367/367/367 366/366/366
f 367/367/367 365/365/365 368/368/368
f 366/366/366 370/370/370 369/369/369
f 370/370/370 366/366/366 367/367/367
f 371/371/371 361/361/361 372/372/372
f 361/361/361 371/371/371 373/373/373
f 372/372/372 375/375/375 374/374/374
f 375/375/375 372/372/372 361/361/361
f 376/376/376 378/378/378 377/377/377
f 378/378/378 376/376/376 362/362/362
f 379/379/379 380/380/380 366/366/366
f 380/380/380 379/379/379 381/381/381
f 382/382/382 383/383/383 369/369/369
f 383/383/383 382/382/382 384/384/384
f 385/385/385 387/387/387 386/386/386
f 386/386/386 388/388/388 385/385/385
f 387/387/387 390/390/390 389/389/389
f 389/389/389 386/386/386 387/387/387
f 391/391/391 393/393/393 392/392/392
f 393/393/393 391/391/391 394/394/394
f 392/392/392 396/396/396 395/395/395
f 396/396/396 392/392/392 393/393/393
f 397/397/397 390/390/390 398/398/398
f 390/390/390 397/397/397 399/399/399
f 400/400/400 387/387/387 401/401/401
f 387/387/387 400/400/400 402/402/402
f 401/401/401 404/404/404 403/403/403
f 404/404/404 401/401/401 387/387/387
f 405/405/405 407/407/407 406/406/406
f 407/407/407 405/405/405 385/385/385
f 408/408/408 410/410/410 409/409/409
f 409/409/409 411/411/411 408/408/408
f 410/410/410 413/413/413 412/412/412
f 412/412/412 409/409/409 410/410/410
f 414/414/414 416/416/416 415/415/415
f 416/416/416 414/414/414 417/417/417
f 415/415/415 419/419/419 418/418/418
f 419/419/419 415/415/415 416/416/416
f 420/420/420 413/413/413 421/421/421
f 413/413/413 420/420/420 422/422/422
f 423/423/423 410/410/410 424/424/424
f 410/410/410 423/423/423 425/425/425
f 424/424/424 427/427/427 426/426/426
f 427/427/427 424/424/424 410/410/410
f 428/428/428 430/430/430 429/429/429
f 430/430/430 428/428/428 408/408/408
f 431/431/431 433/433/433 432/432/432
f 432/432/432 434/434/434 431/431/431
f 433/433/433 436/436/436 435/435/435
f 435/435/435 432/432/432 433/433/433
f 437/437/437 439/439/439 438/438/438
f 439/439/439 437/437/437 440/440/440
f 438/438/438 442/442/442 441/441/441
f 442/442/442 438/438/438 439/439/439
f 443/443/443 436/436/436 444/444/444
f 436/436/436 443/443/443 445/445/445
f 446/446/446 433/433/433 447/447/447
f 433/433/433 446/446/446 448/448/448
f 447/447/447 450/450/450 449/449/449
f 450/450/450 447/447/447 433/433/433
f 451/451/451 453/453/453 452/452/452
f 453/453/453 451/451/451 431/431/431
f 454/454/454 456/456/456 455/455/455
f 456/456/456 454/454/454 457/457/457
f 455/455/455 459/459/459 458/458/458
f 459/459/459 455/455/455 456/456/456
f 460/460/460 462/462/462 461/461/461
f 462/462/462 460/460/460 463/463/463
f 461/461/461 465/465/465 464/464/464
f 465/465/465 461/461/461 462/462/462
f 466/466/466 456/456/456 467/467/467
f 456/456/456 466/466/466 468/468/468
f 467/467/467 470/470/470 469/469/469
f 470/470/470 467/467/467 456/456/456
f 471/471/471 473/473/473 472/472/472
f 473/473/473 471/471/471 457/457/457
f 474/474/474 475/475/475 461/461/461
f 475/475/475 474/474/474 476/476/476
f 477/477/477 478/478/478 464/464/464
f 478/478/478 477/477/477 479/479/479
f 480/480/480 482/482/482 481/481/481
f 481/481/481 483/483/483 480/480/480
f 482/482/482 485/485/485 484/484/484
f 484/484/484 481/481/481 482/482/482
f 486/486/486 488/488/488 487/487/487
f 488/488/488 486/486/486 489/489/489
f 487/487/487 491/491/491 490/490/490
f 491/491/491 487/487/487 488/488/488
f 492/492/492 485/485/485 493/493/493
f 485/485/485 492/492/492 494/494/494
f 495/495/495 482/482/482 496/496/496
f 482/482/482 495/495/495 497/497/497
f 496/496/496 499/499/499 498/498/498
f 499/499/499 496/496/496 482/482/482
f 500/500/500 502/502/502 501/501/501
f 502/502/502 500/500/500 480/480/480
f 503/503/503 505/505/505 504/504/504
f 504/504/504 506/506/506 503/503/503
f 505/505/505 508/508/508 507/507/507
f 507/507/507 504/504/504 505/505/505
f 509/509/509 511/511/511 510/510/510
f 511/511/511 509/509/509 512/512/512
f 510/510/510 514/514/514 513/513/513
f 514/514/514 510/510/510 511/511/511
f 515/515/515 508/508/508 516/516/516
f 508/508/508 515/515/515 517/517/517
f 518/518/518 505/505/505 519/519/519
f 505/505/505 518/518/518 520/520/520
f 519/519/519 522/522/522 521/521/521
f 522/522/522 519/519/519 505/505/505
f 523/523/523 525/525/525 524/524/524
f 525/525/525 523/523/523 503/503/503
