# Object86.bmd — MU geometry at action 0 key 0, exported for MU2
# 4 mesh(es)

g cho_gate_a
# texture: cho_gate_a.jpg
v -31.6555 220.8836 27.8889
v -74.3676 178.1714 27.8889
v -55.3354 170.288 27.8889
v -23.7722 201.8513 27.8889
v -74.3676 4.298599 27.8887
v -55.3353 4.298698 27.8887
v -93.3998 186.0549 15.6412
v -93.3998 186.0549 -9.9189
v -93.3998 4.2985 -9.919
v -93.3998 4.2985 15.6411
v -39.5389 239.9159 15.6412
v -39.5389 239.9159 -9.9189
v -93.3998 186.0549 -9.9189
v -93.3998 186.0549 15.6412
v -39.5389 239.9159 15.6412
v 0 239.9159 15.6412
v 0 239.9159 -9.9189
v -39.5389 239.9159 -9.9189
v 0 220.8837 27.8889
v 0 201.8515 27.8889
v -39.5389 277.511 -27.505
v -39.5389 239.9159 -9.9189
v 0 239.9159 -9.9189
v 0 277.511 -27.5051
v -130.6561 186.0549 -27.5051
v -93.3998 186.0549 -9.9189
v -39.5389 239.9159 -9.9189
v -39.5389 239.9159 -9.9189
v -39.5389 277.511 -27.505
v -130.6561 186.0549 -27.5051
v -130.6561 4.298599 -27.5053
v -93.3998 4.2985 -9.919
v -93.3998 186.0549 -9.9189
v -130.6561 186.0549 -27.5051
v -39.5389 277.5111 -69.5239
v -39.5389 277.511 -27.505
v 0 277.511 -27.5051
v 0 277.5111 -69.5239
v -130.6561 186.0549 -69.524
v -130.6561 186.0549 -27.5051
v -39.5389 277.511 -27.505
v -39.5389 277.5111 -69.5239
v -130.6561 4.298599 -69.5241
v -130.6561 4.298599 -27.5053
v -130.6561 186.0549 -27.5051
v -130.6561 186.0549 -69.524
v -31.6555 220.8836 15.6412
v -39.5389 239.9159 15.6412
v -93.3998 186.0549 15.6412
v -74.3676 178.1714 15.6412
v -93.3998 4.2985 15.6411
v -74.3676 4.298599 15.6411
v 0 239.9159 15.6412
v 0 220.8837 15.6412
v -55.3354 170.288 27.8889
v -55.3354 170.288 -9.9189
v -23.7722 201.8514 -9.9189
v -23.7722 201.8513 27.8889
v -55.3353 4.298698 27.8887
v -55.3353 4.298698 -9.919
v -55.3354 170.288 -9.9189
v -55.3354 170.288 27.8889
v -74.3676 178.1714 27.8889
v -74.3676 178.1714 15.6412
v -74.3676 4.298599 15.6411
v -74.3676 4.298599 27.8887
v -31.6555 220.8836 27.8889
v -31.6555 220.8836 15.6412
v -74.3676 178.1714 15.6412
v -74.3676 178.1714 27.8889
v 0 220.8837 27.8889
v 0 220.8837 15.6412
v -31.6555 220.8836 15.6412
v -31.6555 220.8836 27.8889
v -23.7722 201.8513 27.8889
v -23.7722 201.8514 -9.9189
v 0 201.8515 -9.9189
v 0 201.8515 27.8889
v 31.6555 220.8836 27.8889
v 23.7722 201.8513 27.8889
v 55.3354 170.288 27.8888
v 74.3676 178.1714 27.8889
v 74.3676 4.298599 27.8887
v 55.3353 4.298698 27.8887
v 93.3998 186.0549 15.6412
v 93.3998 4.2985 15.6411
v 93.3998 4.2985 -9.919
v 93.3998 186.0549 -9.9189
v 39.5389 239.9159 15.6412
v 93.3998 186.0549 15.6412
v 93.3998 186.0549 -9.9189
v 39.5389 239.9159 -9.9189
v 39.5389 239.9159 15.6412
v 39.5389 239.9159 -9.9189
v 39.5389 277.511 -27.5051
v 39.5389 239.9159 -9.9189
v 130.6561 186.0549 -27.5051
v 39.5389 277.511 -27.5051
v 39.5389 239.9159 -9.9189
v 39.5389 239.9159 -9.9189
v 93.3998 186.0549 -9.9189
v 130.6561 186.0549 -27.5051
v 130.6561 4.298599 -27.5053
v 130.6561 186.0549 -27.5051
v 93.3998 186.0549 -9.9189
v 93.3998 4.2985 -9.919
v 39.5389 277.5111 -69.5239
v 39.5389 277.511 -27.5051
v 130.6561 186.0549 -69.524
v 39.5389 277.5111 -69.5239
v 39.5389 277.511 -27.5051
v 130.6561 186.0549 -27.5051
v 130.6561 4.298599 -69.5242
v 130.6561 186.0549 -69.524
v 130.6561 186.0549 -27.5051
v 130.6561 4.298599 -27.5053
v 31.6555 220.8836 15.6412
v 74.3676 178.1714 15.6412
v 93.3998 186.0549 15.6412
v 39.5389 239.9159 15.6412
v 74.3676 4.298599 15.6411
v 93.3998 4.2985 15.6411
v 55.3354 170.288 27.8888
v 23.7722 201.8513 27.8889
v 23.7722 201.8514 -9.9189
v 55.3354 170.288 -9.9189
v 55.3353 4.298698 27.8887
v 55.3354 170.288 27.8888
v 55.3354 170.288 -9.9189
v 55.3353 4.298698 -9.919
v 74.3676 178.1714 27.8889
v 74.3676 4.298599 27.8887
v 74.3676 4.298599 15.6411
v 74.3676 178.1714 15.6412
v 31.6555 220.8836 27.8889
v 74.3676 178.1714 27.8889
v 74.3676 178.1714 15.6412
v 31.6555 220.8836 15.6412
v 31.6555 220.8836 27.8889
v 31.6555 220.8836 15.6412
v 23.7722 201.8513 27.8889
v 23.7722 201.8514 -9.9189
vn 0 0 1
vn 0 0 1
vn 0 0 1
vn 0 0 1
vn 0 0 1
vn 0 0 1
vn -1 0 -0
vn -1 0 -0
vn -1 0 -0
vn -1 0 -0
vn -0.707107 0.707107 -0
vn -0.707107 0.707107 -0
vn -0.707107 0.707107 -0
vn -0.707107 0.707107 -0
vn 0 1 -0
vn 0 1 -0
vn 0 1 -0
vn 0 1 -0
vn 0 0 1
vn 0 0 1
vn 0 0.423701 0.905802
vn 0 0.423701 0.905802
vn 0 0.423701 0.905802
vn 0 0.423701 0.905802
vn -0.392601 0.392601 0.831702
vn -0.392601 0.392601 0.831702
vn -0.392601 0.392601 0.831702
vn -0.391412 0.389912 0.833526
vn -0.391412 0.389912 0.833526
vn -0.391412 0.389912 0.833526
vn -0.4269 0 0.904299
vn -0.4269 0 0.904299
vn -0.4269 0 0.904299
vn -0.4269 0 0.904299
vn 0 1 -0
vn 0 1 -0
vn 0 1 -0
vn 0 1 -0
vn -0.708406 0.705806 -0
vn -0.708406 0.705806 -0
vn -0.708406 0.705806 -0
vn -0.708406 0.705806 -0
vn -1 0 -0
vn -1 0 -0
vn -1 0 -0
vn -1 0 -0
vn 0 0 1
vn 0 0 1
vn 0 0 1
vn 0 0 1
vn 0 0 1
vn 0 0 1
vn 0 0 1
vn 0 0 1
vn 0.707107 -0.707107 -0
vn 0.707107 -0.707107 -0
vn 0.707107 -0.707107 -0
vn 0.707107 -0.707107 -0
vn 1 0 -0
vn 1 0 -0
vn 1 0 -0
vn 1 0 -0
vn -1 0 -0
vn -1 0 -0
vn -1 0 -0
vn -1 0 -0
vn -0.707107 0.707107 -0
vn -0.707107 0.707107 -0
vn -0.707107 0.707107 -0
vn -0.707107 0.707107 -0
vn 0 1 -0
vn 0 1 -0
vn 0 1 -0
vn 0 1 -0
vn 0 -1 -0
vn 0 -1 -0
vn 0 -1 -0
vn 0 -1 -0
vn 0 0 1
vn 0 0 1
vn 0 0 1
vn 0 0 1
vn 0 0 1
vn 0 0 1
vn 1 0 -0
vn 1 0 -0
vn 1 0 -0
vn 1 0 -0
vn 0.707107 0.707107 -0
vn 0.707107 0.707107 -0
vn 0.707107 0.707107 -0
vn 0.707107 0.707107 -0
vn 0 1 -0
vn 0 1 -0
vn 0 0.423701 0.905802
vn 0 0.423701 0.905802
vn 0.391412 0.389912 0.833526
vn 0.391412 0.389912 0.833526
vn 0.391412 0.389912 0.833526
vn 0.392601 0.392601 0.831702
vn 0.392601 0.392601 0.831702
vn 0.392601 0.392601 0.831702
vn 0.4269 0 0.904299
vn 0.4269 0 0.904299
vn 0.4269 0 0.904299
vn 0.4269 0 0.904299
vn 0 1 -0
vn 0 1 -0
vn 0.708406 0.705806 -0
vn 0.708406 0.705806 -0
vn 0.708406 0.705806 -0
vn 0.708406 0.705806 -0
vn 1 0 -0
vn 1 0 -0
vn 1 0 -0
vn 1 0 -0
vn 0 0 1
vn 0 0 1
vn 0 0 1
vn 0 0 1
vn 0 0 1
vn 0 0 1
vn -0.707107 -0.707107 -0
vn -0.707107 -0.707107 -0
vn -0.707107 -0.707107 -0
vn -0.707107 -0.707107 -0
vn -1 0 -0
vn -1 0 -0
vn -1 0 -0
vn -1 0 -0
vn 1 0 -0
vn 1 0 -0
vn 1 0 -0
vn 1 0 -0
vn 0.707107 0.707107 -0
vn 0.707107 0.707107 -0
vn 0.707107 0.707107 -0
vn 0.707107 0.707107 -0
vn 0 1 -0
vn 0 1 -0
vn 0 -1 -0
vn 0 -1 -0
vt 0.1365 0.7355
vt 0.2888 0.5922
vt 0.2209 0.5658
vt 0.1084 0.6717
vt 0.2888 0.0089
vt 0.2209 0.0089
vt 0.687 0.5481
vt 0.8069 0.5481
vt 0.8069 0.0101
vt 0.687 0.0101
vt 0.687 0.847
vt 0.8069 0.847
vt 0.8069 0.5481
vt 0.687 0.5481
vt 0.687 0.847
vt 0.687 0.9884
vt 0.8069 0.9884
vt 0.8069 0.847
vt 0.0237 0.7355
vt 0.0237 0.6717
vt 0.1901 0.9725
vt 0.1901 0.8397
vt 0.0417 0.8397
vt 0.0417 0.9725
vt 0.532 0.6495
vt 0.3922 0.6495
vt 0.1901 0.8397
vt 0.1901 0.8397
vt 0.1901 0.9725
vt 0.532 0.6495
vt 0.532 0.0076
vt 0.3922 0.0076
vt 0.3922 0.6495
vt 0.532 0.6495
vt 0.993 0.847
vt 0.8204 0.847
vt 0.8204 0.9884
vt 0.993 0.9884
vt 0.993 0.5481
vt 0.8204 0.5481
vt 0.8204 0.847
vt 0.993 0.847
vt 0.993 0.0101
vt 0.8204 0.0101
vt 0.8204 0.5481
vt 0.993 0.5481
vt 0.1501 0.7563
vt 0.179 0.8221
vt 0.3769 0.6359
vt 0.307 0.6087
vt 0.3769 0.0076
vt 0.307 0.0076
vt 0.0338 0.8221
vt 0.0338 0.7563
vt 0.5546 0.5457
vt 0.6745 0.5457
vt 0.6745 0.8446
vt 0.5546 0.8446
vt 0.5546 0.0077
vt 0.6745 0.0077
vt 0.6745 0.5457
vt 0.5546 0.5457
vt 0.687 0.5481
vt 0.8069 0.5481
vt 0.8069 0.0101
vt 0.687 0.0101
vt 0.687 0.847
vt 0.8069 0.847
vt 0.8069 0.5481
vt 0.687 0.5481
vt 0.687 0.9884
vt 0.8069 0.9884
vt 0.8069 0.847
vt 0.687 0.847
vt 0.5546 0.8446
vt 0.6745 0.8446
vt 0.6745 0.986
vt 0.5546 0.986
vt 0.1365 0.7355
vt 0.1084 0.6717
vt 0.2209 0.5658
vt 0.2888 0.5922
vt 0.2888 0.0089
vt 0.2209 0.0089
vt 0.687 0.5481
vt 0.687 0.0101
vt 0.8069 0.0101
vt 0.8069 0.5481
vt 0.687 0.847
vt 0.687 0.5481
vt 0.8069 0.5481
vt 0.8069 0.847
vt 0.687 0.847
vt 0.8069 0.847
vt 0.1901 0.9725
vt 0.1901 0.8397
vt 0.532 0.6495
vt 0.1901 0.9725
vt 0.1901 0.8397
vt 0.1901 0.8397
vt 0.3922 0.6495
vt 0.532 0.6495
vt 0.532 0.0076
vt 0.532 0.6495
vt 0.3922 0.6495
vt 0.3922 0.0076
vt 0.993 0.847
vt 0.8204 0.847
vt 0.993 0.5481
vt 0.993 0.847
vt 0.8204 0.847
vt 0.8204 0.5481
vt 0.993 0.0101
vt 0.993 0.5481
vt 0.8204 0.5481
vt 0.8204 0.0101
vt 0.1501 0.7563
vt 0.307 0.6087
vt 0.3769 0.6359
vt 0.179 0.8221
vt 0.307 0.0076
vt 0.3769 0.0076
vt 0.5546 0.5457
vt 0.5546 0.8446
vt 0.6745 0.8446
vt 0.6745 0.5457
vt 0.5546 0.0077
vt 0.5546 0.5457
vt 0.6745 0.5457
vt 0.6745 0.0077
vt 0.687 0.5481
vt 0.687 0.0101
vt 0.8069 0.0101
vt 0.8069 0.5481
vt 0.687 0.847
vt 0.687 0.5481
vt 0.8069 0.5481
vt 0.8069 0.847
vt 0.687 0.847
vt 0.8069 0.847
vt 0.5546 0.8446
vt 0.6745 0.8446
f 1/1/1 3/3/3 2/2/2
f 3/3/3 1/1/1 4/4/4
f 5/5/5 3/3/3 6/6/6
f 3/3/3 5/5/5 2/2/2
f 7/7/7 9/9/9 8/8/8
f 9/9/9 7/7/7 10/10/10
f 11/11/11 13/13/13 12/12/12
f 13/13/13 11/11/11 14/14/14
f 15/15/15 17/17/17 16/16/16
f 17/17/17 15/15/15 18/18/18
f 19/19/19 4/4/4 1/1/1
f 4/4/4 19/19/19 20/20/20
f 21/21/21 23/23/23 22/22/22
f 23/23/23 21/21/21 24/24/24
f 25/25/25 27/27/27 26/26/26
f 28/28/28 30/30/30 29/29/29
f 31/31/31 33/33/33 32/32/32
f 33/33/33 31/31/31 34/34/34
f 35/35/35 37/37/37 36/36/36
f 37/37/37 35/35/35 38/38/38
f 39/39/39 41/41/41 40/40/40
f 41/41/41 39/39/39 42/42/42
f 43/43/43 45/45/45 44/44/44
f 45/45/45 43/43/43 46/46/46
f 47/47/47 49/49/49 48/48/48
f 49/49/49 47/47/47 50/50/50
f 50/50/50 51/51/51 49/49/49
f 51/51/51 50/50/50 52/52/52
f 53/53/53 47/47/47 48/48/48
f 47/47/47 53/53/53 54/54/54
f 55/55/55 57/57/57 56/56/56
f 57/57/57 55/55/55 58/58/58
f 59/59/59 61/61/61 60/60/60
f 61/61/61 59/59/59 62/62/62
f 63/63/63 65/65/65 64/64/64
f 65/65/65 63/63/63 66/66/66
f 67/67/67 69/69/69 68/68/68
f 69/69/69 67/67/67 70/70/70
f 71/71/71 73/73/73 72/72/72
f 73/73/73 71/71/71 74/74/74
f 75/75/75 77/77/77 76/76/76
f 77/77/77 75/75/75 78/78/78
f 79/79/79 81/81/81 80/80/80
f 81/81/81 79/79/79 82/82/82
f 83/83/83 81/81/81 82/82/82
f 81/81/81 83/83/83 84/84/84
f 85/85/85 87/87/87 86/86/86
f 87/87/87 85/85/85 88/88/88
f 89/89/89 91/91/91 90/90/90
f 91/91/91 89/89/89 92/92/92
f 93/93/93 17/17/17 94/94/94
f 17/17/17 93/93/93 16/16/16
f 19/19/19 80/80/80 20/20/20
f 80/80/80 19/19/19 79/79/79
f 95/95/95 23/23/23 24/24/24
f 23/23/23 95/95/95 96/96/96
f 97/97/97 99/99/99 98/98/98
f 100/100/100 102/102/102 101/101/101
f 103/103/103 105/105/105 104/104/104
f 105/105/105 103/103/103 106/106/106
f 107/107/107 37/37/37 38/38/38
f 37/37/37 107/107/107 108/108/108
f 109/109/109 111/111/111 110/110/110
f 111/111/111 109/109/109 112/112/112
f 113/113/113 115/115/115 114/114/114
f 115/115/115 113/113/113 116/116/116
f 117/117/117 119/119/119 118/118/118
f 119/119/119 117/117/117 120/120/120
f 118/118/118 122/122/122 121/121/121
f 122/122/122 118/118/118 119/119/119
f 53/53/53 117/117/117 54/54/54
f 117/117/117 53/53/53 120/120/120
f 123/123/123 125/125/125 124/124/124
f 125/125/125 123/123/123 126/126/126
f 127/127/127 129/129/129 128/128/128
f 129/129/129 127/127/127 130/130/130
f 131/131/131 133/133/133 132/132/132
f 133/133/133 131/131/131 134/134/134
f 135/135/135 137/137/137 136/136/136
f 137/137/137 135/135/135 138/138/138
f 71/71/71 140/140/140 139/139/139
f 140/140/140 71/71/71 72/72/72
f 141/141/141 77/77/77 78/78/78
f 77/77/77 141/141/141 142/142/142

g cho_gate_a_01
# texture: cho_gate_a_01.JPG
v -102.751 145.6516 10.0282
v -106.064 144.5719 6.2725
v -132.1425 74.3618 50.8012
v -128.1215 75.6521 53.8038
v -101.3997 142.8746 6.3714
v -128.2927 71.2011 51.4629
v -97.9923 143.7603 9.8716
v -124.2357 72.2515 54.2354
v -128.1215 75.6521 53.8038
v -132.1425 74.3618 50.8012
v -155.4646 46.9189 81.0848
v -152.8514 46.8362 85.0766
v -128.2927 71.2011 51.4629
v -153.1201 42.7614 83.2066
v -124.2357 72.2515 54.2354
v -150.1297 43.673 87.3909
v -152.8514 46.8362 85.0766
v -155.4646 46.9189 81.0848
v -185.4359 35.5561 109.5106
v -182.3342 36.576 112.8906
v -153.1201 42.7614 83.2066
v -181.9352 32.5583 111.825
v -150.1297 43.673 87.3909
v -178.9367 34.618 115.4809
v -102.751 145.6516 10.0282
v -97.9923 143.7603 9.8716
v -101.3997 142.8746 6.3714
v -106.064 144.5719 6.2725
v -181.9352 32.5583 111.825
v -182.3342 36.576 112.8906
v -185.4359 35.5561 109.5106
v -178.9367 34.618 115.4809
v -100.8728 142.939 7.0517
v -113.5076 101.5593 80.9639
v -109.4719 103.5906 82.7182
v -96.8524 144.9301 8.8922
v -96.1551 141.0347 6.8549
v -108.7939 99.6431 80.7902
v -92.2068 143.5397 8.8694
v -104.8416 102.16 82.7816
v -121.164 82.8088 123.6633
v -129.0637 72.1702 164.8413
v -124.96 74.3438 166.2242
v -117.0882 84.9417 125.1926
v -116.5017 80.7626 123.7776
v -124.4371 70.0719 165.1432
v -112.498 83.4095 125.4809
v -120.3977 72.7709 166.659
v -96.8524 144.9301 8.8922
v -92.2068 143.5397 8.8694
v -96.1551 141.0347 6.8549
v -100.8728 142.939 7.0517
v -133.8663 63.5402 212.2563
v -134.3277 67.9017 213.0147
v -138.466 65.6776 211.8137
v -129.8 66.2782 213.6313
v -121.164 82.8088 123.6633
v -117.0882 84.9417 125.1926
v -116.5017 80.7626 123.7776
v -112.498 83.4095 125.4809
v -138.466 65.6776 211.8137
v -134.3277 67.9017 213.0147
v -133.8663 63.5402 212.2563
v -129.8 66.2782 213.6313
v -91.6033 159.939 8.4435
v -91.6033 155.3439 5.7905
v -103.0872 155.3439 5.7905
v -107.6823 159.939 8.4435
v -91.6033 155.3439 11.0964
v -103.0872 155.3439 11.0964
v -107.6823 159.939 8.4435
v -103.0872 155.3439 5.7905
v -103.0872 145.7169 5.7905
v -107.6823 141.1218 8.4434
v -103.0872 155.3439 11.0964
v -103.0872 145.7169 11.0964
v -107.6823 141.1218 8.4434
v -103.0872 145.7169 5.7905
v -91.6033 145.7169 5.7905
v -91.6033 141.1218 8.4434
v -103.0872 145.7169 11.0964
v -91.6033 145.7169 11.0964
v -91.6033 155.3439 5.7905
v -91.6033 159.939 8.4435
v -91.6033 155.3439 11.0964
v -91.6033 145.7169 11.0964
v -91.6033 141.1218 8.4434
v -91.6033 145.7169 5.7905
v 91.6033 141.1218 8.4434
v 107.6823 141.1218 8.4434
v 103.0872 145.7169 11.0964
v 91.6033 145.7169 11.0964
v 103.0872 145.7169 5.7905
v 91.6033 145.7169 5.7905
v 107.6823 141.1218 8.4434
v 107.6823 159.939 8.4435
v 103.0872 155.3439 11.0964
v 103.0872 145.7169 11.0964
v 103.0872 155.3439 5.7905
v 103.0872 145.7169 5.7905
v 107.6823 159.939 8.4435
v 91.6033 159.939 8.4435
v 91.6033 155.3439 11.0964
v 103.0872 155.3439 11.0964
v 91.6033 155.3439 5.7905
v 103.0872 155.3439 5.7905
v 91.6033 145.7169 11.0964
v 91.6033 145.7169 5.7905
v 91.6033 141.1218 8.4434
v 91.6033 155.3439 5.7905
v 91.6033 155.3439 11.0964
v 91.6033 159.939 8.4435
v -129.1278 61.7058 214.0621
v -134.4285 61.7797 214.2856
v -134.4285 72.6836 210.6823
v -129.1278 76.9728 209.0169
v -131.5743 63.18311 218.5326
v -131.5743 74.0871 214.9292
v -129.1278 76.9728 209.0169
v -134.4285 72.6836 210.6823
v -142.5439 74.3086 215.5993
v -144.9904 80.149 218.628
v -131.5743 74.0871 214.9292
v -139.6897 75.7121 219.8463
v -144.9904 80.149 218.628
v -142.5439 74.3086 215.5993
v -142.5439 63.4046 219.2028
v -144.9904 64.882 223.6733
v -139.6897 75.7121 219.8463
v -139.6897 64.8081 223.4497
v -134.4285 61.7797 214.2856
v -129.1278 61.7058 214.0621
v -131.5743 63.18311 218.5326
v -139.6897 64.8081 223.4497
v -144.9904 64.882 223.6733
v -142.5439 63.4046 219.2028
v -190.278 35.4902 121.3787
v -185.0214 35.41631 122.0969
v -184.3836 46.3203 118.5504
v -189.385 50.7572 116.4131
v -187.0789 34.0128 117.4118
v -186.441 44.9168 113.8653
v -189.385 50.7572 116.4131
v -184.3836 46.3203 118.5504
v -175.526 44.6954 115.1475
v -172.0715 47.581 109.7616
v -186.441 44.9168 113.8653
v -177.5834 43.2919 110.4624
v -172.0715 47.581 109.7616
v -175.526 44.6954 115.1475
v -176.1638 33.7914 118.694
v -172.9646 32.314 114.7271
v -177.5834 43.2919 110.4624
v -178.2212 32.3879 114.0089
v -185.0214 35.41631 122.0969
v -190.278 35.4902 121.3787
v -187.0789 34.0128 117.4118
v -178.2212 32.3879 114.0089
v -172.9646 32.314 114.7271
v -176.1638 33.7914 118.694
v 104.5845 145.6516 10.0281
v 129.9549 75.6521 53.8038
v 133.976 74.3618 50.8012
v 107.8974 144.5719 6.2725
v 130.1262 71.2011 51.4629
v 103.2332 142.8746 6.3714
v 126.0692 72.2515 54.2354
v 99.8258 143.7603 9.8716
v 129.9549 75.6521 53.8038
v 154.6848 46.8362 85.0766
v 157.298 46.9189 81.0848
v 133.976 74.3618 50.8012
v 154.9536 42.7614 83.2066
v 130.1262 71.2011 51.4629
v 151.9631 43.673 87.3909
v 126.0692 72.2515 54.2354
v 154.6848 46.8362 85.0766
v 184.1676 36.576 112.8906
v 187.2693 35.5561 109.5106
v 157.298 46.9189 81.0848
v 183.7686 32.5583 111.825
v 154.9536 42.7614 83.2066
v 180.7702 34.618 115.4809
v 151.9631 43.673 87.3909
v 104.5845 145.6516 10.0281
v 107.8974 144.5719 6.2725
v 103.2332 142.8746 6.3714
v 99.8258 143.7603 9.8716
v 183.7686 32.5583 111.825
v 187.2693 35.5561 109.5106
v 184.1676 36.576 112.8906
v 180.7702 34.618 115.4809
v 102.7063 142.939 7.0517
v 98.6859 144.9301 8.8922
v 111.3053 103.5906 82.7182
v 115.341 101.5593 80.9639
v 97.9885 141.0347 6.8549
v 110.6273 99.6431 80.7902
v 94.0403 143.5397 8.8694
v 106.675 102.16 82.7816
v 122.9975 82.8088 123.6633
v 118.9217 84.9417 125.1926
v 126.7934 74.3438 166.2242
v 130.8971 72.1702 164.8413
v 118.3352 80.7626 123.7776
v 126.2706 70.0719 165.1432
v 114.3315 83.4095 125.4809
v 122.2311 72.7709 166.659
v 98.6859 144.9301 8.8922
v 102.7063 142.939 7.0517
v 97.9885 141.0347 6.8549
v 94.0403 143.5397 8.8694
v 135.6997 63.5402 212.2563
v 140.2995 65.6776 211.8137
v 136.1611 67.9017 213.0147
v 131.6335 66.2782 213.6313
v 118.9217 84.9417 125.1926
v 122.9975 82.8088 123.6633
v 118.3352 80.7626 123.7776
v 114.3315 83.4095 125.4809
v 136.1611 67.9017 213.0147
v 140.2995 65.6776 211.8137
v 135.6997 63.5402 212.2563
v 131.6335 66.2782 213.6313
v 130.9612 61.7058 214.0621
v 130.9612 76.9728 209.0169
v 136.262 72.6836 210.6823
v 136.2619 61.7797 214.2856
v 133.4077 74.0871 214.9292
v 133.4077 63.1832 218.5326
v 130.9612 76.9728 209.0169
v 146.8238 80.149 218.628
v 144.3773 74.3086 215.5993
v 136.262 72.6836 210.6823
v 141.5231 75.7121 219.8463
v 133.4077 74.0871 214.9292
v 146.8238 80.149 218.628
v 146.8238 64.882 223.6733
v 144.3773 63.4046 219.2028
v 144.3773 74.3086 215.5993
v 141.5231 64.8081 223.4497
v 141.5231 75.7121 219.8463
v 136.2619 61.7797 214.2856
v 133.4077 63.1832 218.5326
v 130.9612 61.7058 214.0621
v 141.5231 64.8081 223.4497
v 144.3773 63.4046 219.2028
v 146.8238 64.882 223.6733
v 192.1115 35.4902 121.3787
v 191.2184 50.7572 116.4131
v 186.2171 46.3203 118.5504
v 186.8549 35.41631 122.0969
v 188.2745 44.9168 113.8653
v 188.9123 34.0128 117.4118
v 191.2184 50.7572 116.4131
v 173.905 47.581 109.7616
v 177.3594 44.6954 115.1475
v 186.2171 46.3203 118.5504
v 179.4168 43.2919 110.4624
v 188.2745 44.9168 113.8653
v 173.905 47.581 109.7616
v 174.798 32.314 114.7271
v 177.9973 33.7914 118.694
v 177.3594 44.6954 115.1475
v 180.0547 32.3879 114.0089
v 179.4168 43.2919 110.4624
v 186.8549 35.41631 122.0969
v 188.9123 34.0128 117.4118
v 192.1115 35.4902 121.3787
v 180.0547 32.3879 114.0089
v 177.9973 33.7914 118.694
v 174.798 32.314 114.7271
vn -0.282113 0.584026 0.761134
vn -0.901478 0.068998 -0.42729
vn -0.837452 -0.043598 -0.544769
vn -0.151997 0.560791 0.813886
vn 0.278609 -0.580618 -0.765023
vn 0.216392 -0.578479 -0.786471
vn 0.921 -0.0989 0.3768
vn 0.939727 -0.34101 0.025001
vn -0.059501 0.757509 0.650108
vn -0.868989 0.341296 -0.358295
vn -0.845715 0.152403 -0.511409
vn -0.091697 0.779478 0.619682
vn 0.088703 -0.782326 -0.616521
vn 0.273702 -0.812507 -0.514704
vn 0.834126 -0.202606 0.513016
vn 0.86949 -0.289397 0.400296
vn 0.0317 0.92031 0.389904
vn -0.728393 0.388896 -0.564095
vn -0.697121 0.209306 -0.685721
vn -0.084302 0.965925 0.244706
vn -0.1225 -0.897198 -0.424299
vn 0.091797 -0.95737 -0.273891
vn 0.69201 -0.265704 0.67121
vn 0.719005 0.001 0.695005
vn 0.305197 0.809293 -0.501896
vn 0.305197 0.809293 -0.501896
vn 0.305197 0.809293 -0.501896
vn 0.305197 0.809293 -0.501896
vn -0.674208 -0.251203 0.694508
vn -0.674208 -0.251203 0.694508
vn -0.674208 -0.251203 0.694508
vn -0.674208 -0.251203 0.694508
vn -0.983231 -0.023001 -0.180906
vn -0.979551 -0.048398 -0.19529
vn -0.150003 0.895319 0.419409
vn -0.157401 0.872905 0.461803
vn 0.157401 -0.872905 -0.461803
vn 0.150103 -0.895115 -0.419807
vn 0.967148 0.112206 0.228111
vn 0.972895 0.0869 0.214299
vn -0.975811 -0.072901 -0.206102
vn -0.978434 -0.052002 -0.199907
vn -0.1039 0.979602 0.172
vn -0.114802 0.966916 0.227804
vn 0.114802 -0.966916 -0.227804
vn 0.104401 -0.979107 -0.174501
vn 0.977079 0.062499 0.203496
vn 0.974194 0.0835 0.209699
vn 0.1483 0.478999 -0.865198
vn 0.138905 0.478318 -0.867132
vn 0.1483 0.478999 -0.865198
vn 0.157603 0.479608 -0.863214
vn -0.189191 -0.187591 0.963855
vn -0.189191 -0.187591 0.963855
vn -0.179794 -0.186994 0.965768
vn -0.198508 -0.188308 0.961839
vn -0.9782 -0.0559 -0.2
vn -0.142406 0.91544 0.376417
vn 0.142401 -0.915406 -0.376502
vn 0.974553 0.079496 0.20959
vn -0.980707 0.0105 -0.195201
vn -0.093098 0.988676 0.117697
vn 0.093201 -0.988606 -0.118201
vn 0.966126 0.145704 0.213006
vn 0 1 -0
vn 0 -0.500011 -0.866019
vn 0 -0.211707 -0.977333
vn 0 1 -0
vn 0 -0.500011 0.866019
vn 0 -0.211707 0.977333
vn -1 0 -0
vn 0.211707 0 -0.977333
vn 0.211707 0 -0.977333
vn -1 0 -0
vn 0.211707 0 0.977333
vn 0.211707 0 0.977333
vn 0 -1 -0
vn 0 0.211707 -0.977333
vn 0 0.500011 -0.866019
vn 0 -1 -0
vn 0 0.211707 0.977333
vn 0 0.500011 0.866019
vn 1 0 -0
vn 1 0 -0
vn 1 0 -0
vn 1 0 -0
vn 1 0 -0
vn 1 0 -0
vn 0 -1 -0
vn 0 -1 -0
vn 0 0.211707 0.977333
vn 0 0.500011 0.866019
vn 0 0.211707 -0.977333
vn 0 0.500011 -0.866019
vn 1 0 -0
vn 1 0 -0
vn -0.211707 0 0.977333
vn -0.211707 0 0.977333
vn -0.211707 0 -0.977333
vn -0.211707 0 -0.977333
vn 0 1 -0
vn 0 1 -0
vn 0 -0.500011 0.866019
vn 0 -0.211707 0.977333
vn 0 -0.500011 -0.866019
vn 0 -0.211707 -0.977333
vn -1 0 -0
vn -1 0 -0
vn -1 0 -0
vn -1 0 -0
vn -1 0 -0
vn -1 0 -0
vn 0.842975 -0.168795 -0.510785
vn -0.887362 -0.144694 -0.437781
vn -0.704218 -0.222806 -0.674117
vn 0.842975 -0.168795 -0.510785
vn 0.044398 0.313485 0.948555
vn 0.347303 0.294203 0.890408
vn 0 0.94949 -0.313797
vn -0.525734 -0.45953 -0.715846
vn -0.525734 -0.45953 -0.715846
vn 0 0.94949 -0.313797
vn 0.525711 0.057501 0.848718
vn 0.525711 0.057501 0.848718
vn -0.842975 0.168795 0.510785
vn -0.347303 -0.294203 -0.890408
vn -0.044398 -0.313485 -0.948555
vn -0.842975 0.168795 0.510785
vn 0.704218 0.222806 0.674117
vn 0.887362 0.144694 0.437781
vn 0 -0.94949 0.313797
vn 0 -0.94949 0.313797
vn 0 -0.94949 0.313797
vn 0 -0.94949 0.313797
vn 0 -0.94949 0.313797
vn 0 -0.94949 0.313797
vn -0.920082 0.168797 0.353493
vn 0.795845 0.14469 0.587959
vn 0.573691 0.222797 0.788188
vn -0.920082 0.168797 0.353493
vn 0.124204 -0.313509 -0.941428
vn -0.184204 -0.294207 -0.937823
vn 0.0555 0.949506 -0.308802
vn 0.367187 0.057498 0.928368
vn 0.367187 0.057498 0.928368
vn 0.0555 0.949506 -0.308802
vn -0.390709 -0.459511 -0.797619
vn -0.390709 -0.459511 -0.797619
vn 0.920082 -0.168797 -0.353493
vn 0.184204 0.294207 0.937823
vn -0.124204 0.313509 0.941428
vn 0.920082 -0.168797 -0.353493
vn -0.573691 -0.222797 -0.788188
vn -0.795808 -0.144702 -0.588006
vn -0.0555 -0.949506 0.308802
vn -0.0555 -0.949506 0.308802
vn -0.0555 -0.949506 0.308802
vn -0.0555 -0.949506 0.308802
vn -0.0555 -0.949506 0.308802
vn -0.0555 -0.949506 0.308802
vn 0.282113 0.584026 0.761134
vn 0.151997 0.560791 0.813886
vn 0.837452 -0.043598 -0.544769
vn 0.901478 0.068998 -0.42729
vn -0.216392 -0.578479 -0.786471
vn -0.278609 -0.580618 -0.765023
vn -0.939727 -0.34101 0.025001
vn -0.921 -0.0989 0.3768
vn 0.059501 0.757509 0.650108
vn 0.091697 0.779478 0.619682
vn 0.845715 0.152403 -0.511409
vn 0.868989 0.341296 -0.358295
vn -0.273702 -0.812507 -0.514704
vn -0.088703 -0.782326 -0.616521
vn -0.86949 -0.289397 0.400296
vn -0.834126 -0.202606 0.513016
vn -0.0317 0.92031 0.389904
vn 0.084302 0.965925 0.244706
vn 0.697121 0.209306 -0.685721
vn 0.728393 0.388896 -0.564095
vn -0.091797 -0.95737 -0.273891
vn 0.1225 -0.897198 -0.424299
vn -0.719005 0.001 0.695005
vn -0.69201 -0.265704 0.67121
vn -0.305197 0.809293 -0.501896
vn -0.305197 0.809293 -0.501896
vn -0.305197 0.809293 -0.501896
vn -0.305197 0.809293 -0.501896
vn 0.674208 -0.251203 0.694508
vn 0.674208 -0.251203 0.694508
vn 0.674208 -0.251203 0.694508
vn 0.674208 -0.251203 0.694508
vn 0.983231 -0.023001 -0.180906
vn 0.157401 0.872905 0.461803
vn 0.150003 0.895319 0.419409
vn 0.979551 -0.048398 -0.19529
vn -0.157401 -0.872905 -0.461803
vn -0.150103 -0.895115 -0.419807
vn -0.967148 0.112206 0.228111
vn -0.972895 0.0869 0.214299
vn 0.975811 -0.072901 -0.206102
vn 0.114802 0.966916 0.227804
vn 0.1039 0.979602 0.172
vn 0.978434 -0.052002 -0.199907
vn -0.114802 -0.966916 -0.227804
vn -0.104401 -0.979107 -0.174501
vn -0.977079 0.062499 0.203496
vn -0.974194 0.0835 0.209699
vn -0.1483 0.478999 -0.865198
vn -0.157603 0.479608 -0.863214
vn -0.1483 0.478999 -0.865198
vn -0.138905 0.478318 -0.867132
vn 0.189191 -0.187591 0.963855
vn 0.179794 -0.186994 0.965768
vn 0.189191 -0.187591 0.963855
vn 0.198508 -0.188308 0.961839
vn 0.142406 0.91544 0.376417
vn 0.9782 -0.0559 -0.2
vn -0.142401 -0.915406 -0.376502
vn -0.974553 0.079496 0.20959
vn 0.093098 0.988676 0.117697
vn 0.980707 0.0105 -0.195201
vn -0.093201 -0.988606 -0.118201
vn -0.966126 0.145704 0.213006
vn -0.842975 -0.168795 -0.510785
vn -0.842975 -0.168795 -0.510785
vn 0.704218 -0.222806 -0.674117
vn 0.887362 -0.144694 -0.437781
vn -0.347303 0.294203 0.890408
vn -0.044398 0.313485 0.948555
vn 0 0.94949 -0.313797
vn 0 0.94949 -0.313797
vn 0.525734 -0.45953 -0.715846
vn 0.525734 -0.45953 -0.715846
vn -0.525711 0.057501 0.848718
vn -0.525711 0.057501 0.848718
vn 0.842975 0.168795 0.510785
vn 0.842975 0.168795 0.510785
vn 0.044398 -0.313485 -0.948555
vn 0.347303 -0.294203 -0.890408
vn -0.887362 0.144694 0.437781
vn -0.704218 0.222806 0.674117
vn 0 -0.94949 0.313797
vn 0 -0.94949 0.313797
vn 0 -0.94949 0.313797
vn 0 -0.94949 0.313797
vn 0 -0.94949 0.313797
vn 0 -0.94949 0.313797
vn 0.920082 0.168797 0.353493
vn 0.920082 0.168797 0.353493
vn -0.573691 0.222797 0.788188
vn -0.795845 0.14469 0.587959
vn 0.184204 -0.294207 -0.937823
vn -0.124204 -0.313509 -0.941428
vn -0.0555 0.949506 -0.308802
vn -0.0555 0.949506 -0.308802
vn -0.367187 0.057498 0.928368
vn -0.367187 0.057498 0.928368
vn 0.390709 -0.459511 -0.797619
vn 0.390709 -0.459511 -0.797619
vn -0.920082 -0.168797 -0.353493
vn -0.920082 -0.168797 -0.353493
vn 0.124204 0.313509 0.941428
vn -0.184204 0.294207 0.937823
vn 0.795808 -0.144702 -0.588006
vn 0.573691 -0.222797 -0.788188
vn 0.0555 -0.949506 0.308802
vn 0.0555 -0.949506 0.308802
vn 0.0555 -0.949506 0.308802
vn 0.0555 -0.949506 0.308802
vn 0.0555 -0.949506 0.308802
vn 0.0555 -0.949506 0.308802
vt -1.3242 0.8047
vt -1.3242 0.9844
vt 0.4766 0.9844
vt 0.4766 0.8047
vt -1.3242 0.8047
vt 0.4766 0.8047
vt -1.3242 0.6328
vt 0.4766 0.6328
vt 0.4766 0.8047
vt 0.4766 0.9844
vt 1.4922 0.9844
vt 1.4922 0.8047
vt 0.4766 0.8047
vt 1.4922 0.8047
vt 0.4766 0.6328
vt 1.4922 0.6328
vt 1.4922 0.8047
vt 1.4922 0.9844
vt 2.3359 0.9844
vt 2.3359 0.8047
vt 1.4922 0.8047
vt 2.3359 0.8047
vt 1.4922 0.6328
vt 2.3359 0.6328
vt -1.3242 0.8047
vt -1.3242 0.8047
vt -1.3242 0.8047
vt -1.3242 0.8047
vt -1.3242 0.8047
vt -1.3242 0.8047
vt -1.3242 0.8047
vt -1.3242 0.8047
vt -2.6328 0.9844
vt -0.3294 0.9844
vt -0.326 0.8008
vt -2.6328 0.8008
vt -2.6328 0.8008
vt -0.3347 0.8008
vt -2.6328 0.6133
vt -0.3294 0.6133
vt 0.9414 0.9844
vt 2.0661 0.9844
vt 2.0664 0.8008
vt 0.9414 0.8008
vt 0.9414 0.8008
vt 2.0669 0.8008
vt 0.9414 0.6133
vt 2.0661 0.6133
vt -2.6328 0.8008
vt -2.6328 0.8008
vt -2.6328 0.8008
vt -2.6328 0.8008
vt -2.6328 0.8008
vt -2.6328 0.8008
vt -2.6328 0.8008
vt -2.6328 0.8008
vt 0.9414 0.9844
vt 0.9414 0.8008
vt 0.9414 0.8008
vt 0.9414 0.6133
vt 3.2734 0.9844
vt 3.2734 0.8008
vt 3.2734 0.8008
vt 3.2734 0.6133
vt 0 0
vt 0 0.4414
vt 0.3359 0.4414
vt 0.3359 0
vt 0 0.2188
vt 0.3359 0.2188
vt 0.3359 0
vt 0.3359 0.4414
vt 0.6641 0.4414
vt 0.6641 0
vt 0.3359 0.2188
vt 0.6641 0.2188
vt 0.6641 0
vt 0.6641 0.4414
vt 1 0.4414
vt 1 0
vt 0.6641 0.2188
vt 1 0.2188
vt 0 0
vt 0 0
vt 0 0
vt 0 0
vt 0 0
vt 0 0
vt 0 0
vt 0.3359 0
vt 0.3359 0.4414
vt 0 0.4414
vt 0.3359 0.2188
vt 0 0.2188
vt 0.3359 0
vt 0.6641 0
vt 0.6641 0.4414
vt 0.3359 0.4414
vt 0.6641 0.2188
vt 0.3359 0.2188
vt 0.6641 0
vt 1 0
vt 1 0.4414
vt 0.6641 0.4414
vt 1 0.2188
vt 0.6641 0.2188
vt 0 0
vt 0 0
vt 0 0
vt 0 0
vt 0 0
vt 0 0
vt 0 0
vt 0 0.4414
vt 0.3359 0.4414
vt 0.3359 0
vt 0 0.2188
vt 0.3359 0.2188
vt 0.3359 0
vt 0.3359 0.4414
vt 0.6641 0.4414
vt 0.6641 0
vt 0.3359 0.2188
vt 0.6641 0.2188
vt 0.6641 0
vt 0.6641 0.4414
vt 1 0.4414
vt 1 0
vt 0.6641 0.2188
vt 1 0.2188
vt 0 0
vt 0 0
vt 0 0
vt 0 0
vt 0 0
vt 0 0
vt 0 0
vt 0 0.4414
vt 0.3359 0.4414
vt 0.3359 0
vt 0 0.2188
vt 0.3359 0.2188
vt 0.3359 0
vt 0.3359 0.4414
vt 0.6641 0.4414
vt 0.6641 0
vt 0.3359 0.2188
vt 0.6641 0.2188
vt 0.6641 0
vt 0.6641 0.4414
vt 1 0.4414
vt 1 0
vt 0.6641 0.2188
vt 1 0.2188
vt 0 0
vt 0 0
vt 0 0
vt 0 0
vt 0 0
vt 0 0
vt -1.3242 0.8047
vt 0.4766 0.8047
vt 0.4766 0.9844
vt -1.3242 0.9844
vt 0.4766 0.8047
vt -1.3242 0.8047
vt 0.4766 0.6328
vt -1.3242 0.6328
vt 0.4766 0.8047
vt 1.4922 0.8047
vt 1.4922 0.9844
vt 0.4766 0.9844
vt 1.4922 0.8047
vt 0.4766 0.8047
vt 1.4922 0.6328
vt 0.4766 0.6328
vt 1.4922 0.8047
vt 2.3359 0.8047
vt 2.3359 0.9844
vt 1.4922 0.9844
vt 2.3359 0.8047
vt 1.4922 0.8047
vt 2.3359 0.6328
vt 1.4922 0.6328
vt -1.3242 0.8047
vt -1.3242 0.8047
vt -1.3242 0.8047
vt -1.3242 0.8047
vt -1.3242 0.8047
vt -1.3242 0.8047
vt -1.3242 0.8047
vt -1.3242 0.8047
vt -2.6328 0.9844
vt -2.6328 0.8008
vt -0.326 0.8008
vt -0.3294 0.9844
vt -2.6328 0.8008
vt -0.3347 0.8008
vt -2.6328 0.6133
vt -0.3294 0.6133
vt 0.9414 0.9844
vt 0.9414 0.8008
vt 2.0664 0.8008
vt 2.0661 0.9844
vt 0.9414 0.8008
vt 2.0669 0.8008
vt 0.9414 0.6133
vt 2.0661 0.6133
vt -2.6328 0.8008
vt -2.6328 0.8008
vt -2.6328 0.8008
vt -2.6328 0.8008
vt -2.6328 0.8008
vt -2.6328 0.8008
vt -2.6328 0.8008
vt -2.6328 0.8008
vt 0.9414 0.8008
vt 0.9414 0.9844
vt 0.9414 0.8008
vt 0.9414 0.6133
vt 3.2734 0.8008
vt 3.2734 0.9844
vt 3.2734 0.8008
vt 3.2734 0.6133
vt 0 0
vt 0.3359 0
vt 0.3359 0.4414
vt 0 0.4414
vt 0.3359 0.2188
vt 0 0.2188
vt 0.3359 0
vt 0.6641 0
vt 0.6641 0.4414
vt 0.3359 0.4414
vt 0.6641 0.2188
vt 0.3359 0.2188
vt 0.6641 0
vt 1 0
vt 1 0.4414
vt 0.6641 0.4414
vt 1 0.2188
vt 0.6641 0.2188
vt 0 0
vt 0 0
vt 0 0
vt 0 0
vt 0 0
vt 0 0
vt 0 0
vt 0.3359 0
vt 0.3359 0.4414
vt 0 0.4414
vt 0.3359 0.2188
vt 0 0.2188
vt 0.3359 0
vt 0.6641 0
vt 0.6641 0.4414
vt 0.3359 0.4414
vt 0.6641 0.2188
vt 0.3359 0.2188
vt 0.6641 0
vt 1 0
vt 1 0.4414
vt 0.6641 0.4414
vt 1 0.2188
vt 0.6641 0.2188
vt 0 0
vt 0 0
vt 0 0
vt 0 0
vt 0 0
vt 0 0
f 143/143/143 145/145/145 144/144/144
f 145/145/145 143/143/143 146/146/146
f 144/144/144 148/148/148 147/147/147
f 148/148/148 144/144/144 145/145/145
f 147/147/147 150/150/150 149/149/149
f 150/150/150 147/147/147 148/148/148
f 149/149/149 146/146/146 143/143/143
f 146/146/146 149/149/149 150/150/150
f 151/151/151 153/153/153 152/152/152
f 153/153/153 151/151/151 154/154/154
f 152/152/152 156/156/156 155/155/155
f 156/156/156 152/152/152 153/153/153
f 155/155/155 158/158/158 157/157/157
f 158/158/158 155/155/155 156/156/156
f 157/157/157 154/154/154 151/151/151
f 154/154/154 157/157/157 158/158/158
f 159/159/159 161/161/161 160/160/160
f 161/161/161 159/159/159 162/162/162
f 160/160/160 164/164/164 163/163/163
f 164/164/164 160/160/160 161/161/161
f 163/163/163 166/166/166 165/165/165
f 166/166/166 163/163/163 164/164/164
f 165/165/165 162/162/162 159/159/159
f 162/162/162 165/165/165 166/166/166
f 167/167/167 169/169/169 168/168/168
f 169/169/169 167/167/167 170/170/170
f 171/171/171 173/173/173 172/172/172
f 174/174/174 171/171/171 172/172/172
f 175/175/175 177/177/177 176/176/176
f 177/177/177 175/175/175 178/178/178
f 179/179/179 176/176/176 180/180/180
f 176/176/176 179/179/179 175/175/175
f 181/181/181 180/180/180 182/182/182
f 180/180/180 181/181/181 179/179/179
f 178/178/178 182/182/182 177/177/177
f 182/182/182 178/178/178 181/181/181
f 183/183/183 185/185/185 184/184/184
f 185/185/185 183/183/183 186/186/186
f 187/187/187 184/184/184 188/188/188
f 184/184/184 187/187/187 183/183/183
f 189/189/189 188/188/188 190/190/190
f 188/188/188 189/189/189 187/187/187
f 186/186/186 190/190/190 185/185/185
f 190/190/190 186/186/186 189/189/189
f 191/191/191 193/193/193 192/192/192
f 193/193/193 191/191/191 194/194/194
f 195/195/195 197/197/197 196/196/196
f 198/198/198 195/195/195 196/196/196
f 176/176/176 200/200/200 199/199/199
f 200/200/200 176/176/176 177/177/177
f 180/180/180 199/199/199 201/201/201
f 199/199/199 180/180/180 176/176/176
f 182/182/182 201/201/201 202/202/202
f 201/201/201 182/182/182 180/180/180
f 177/177/177 202/202/202 200/200/200
f 202/202/202 177/177/177 182/182/182
f 184/184/184 204/204/204 203/203/203
f 204/204/204 184/184/184 185/185/185
f 188/188/188 203/203/203 205/205/205
f 203/203/203 188/188/188 184/184/184
f 190/190/190 205/205/205 206/206/206
f 205/205/205 190/190/190 188/188/188
f 185/185/185 206/206/206 204/204/204
f 206/206/206 185/185/185 190/190/190
f 207/207/207 209/209/209 208/208/208
f 209/209/209 207/207/207 210/210/210
f 208/208/208 212/212/212 211/211/211
f 212/212/212 208/208/208 209/209/209
f 211/211/211 210/210/210 207/207/207
f 210/210/210 211/211/211 212/212/212
f 213/213/213 215/215/215 214/214/214
f 215/215/215 213/213/213 216/216/216
f 214/214/214 218/218/218 217/217/217
f 218/218/218 214/214/214 215/215/215
f 217/217/217 216/216/216 213/213/213
f 216/216/216 217/217/217 218/218/218
f 219/219/219 221/221/221 220/220/220
f 221/221/221 219/219/219 222/222/222
f 220/220/220 224/224/224 223/223/223
f 224/224/224 220/220/220 221/221/221
f 223/223/223 222/222/222 219/219/219
f 222/222/222 223/223/223 224/224/224
f 225/225/225 227/227/227 226/226/226
f 228/228/228 230/230/230 229/229/229
f 231/231/231 233/233/233 232/232/232
f 233/233/233 231/231/231 234/234/234
f 234/234/234 235/235/235 233/233/233
f 235/235/235 234/234/234 236/236/236
f 236/236/236 232/232/232 235/235/235
f 232/232/232 236/236/236 231/231/231
f 237/237/237 239/239/239 238/238/238
f 239/239/239 237/237/237 240/240/240
f 240/240/240 241/241/241 239/239/239
f 241/241/241 240/240/240 242/242/242
f 242/242/242 238/238/238 241/241/241
f 238/238/238 242/242/242 237/237/237
f 243/243/243 245/245/245 244/244/244
f 245/245/245 243/243/243 246/246/246
f 246/246/246 247/247/247 245/245/245
f 247/247/247 246/246/246 248/248/248
f 248/248/248 244/244/244 247/247/247
f 244/244/244 248/248/248 243/243/243
f 249/249/249 251/251/251 250/250/250
f 252/252/252 254/254/254 253/253/253
f 255/255/255 257/257/257 256/256/256
f 257/257/257 255/255/255 258/258/258
f 256/256/256 260/260/260 259/259/259
f 260/260/260 256/256/256 257/257/257
f 259/259/259 258/258/258 255/255/255
f 258/258/258 259/259/259 260/260/260
f 261/261/261 263/263/263 262/262/262
f 263/263/263 261/261/261 264/264/264
f 262/262/262 266/266/266 265/265/265
f 266/266/266 262/262/262 263/263/263
f 265/265/265 264/264/264 261/261/261
f 264/264/264 265/265/265 266/266/266
f 267/267/267 269/269/269 268/268/268
f 269/269/269 267/267/267 270/270/270
f 268/268/268 272/272/272 271/271/271
f 272/272/272 268/268/268 269/269/269
f 271/271/271 270/270/270 267/267/267
f 270/270/270 271/271/271 272/272/272
f 273/273/273 275/275/275 274/274/274
f 276/276/276 278/278/278 277/277/277
f 279/279/279 281/281/281 280/280/280
f 281/281/281 279/279/279 282/282/282
f 280/280/280 284/284/284 283/283/283
f 284/284/284 280/280/280 281/281/281
f 283/283/283 282/282/282 279/279/279
f 282/282/282 283/283/283 284/284/284
f 285/285/285 287/287/287 286/286/286
f 287/287/287 285/285/285 288/288/288
f 286/286/286 290/290/290 289/289/289
f 290/290/290 286/286/286 287/287/287
f 289/289/289 288/288/288 285/285/285
f 288/288/288 289/289/289 290/290/290
f 291/291/291 293/293/293 292/292/292
f 293/293/293 291/291/291 294/294/294
f 292/292/292 296/296/296 295/295/295
f 296/296/296 292/292/292 293/293/293
f 295/295/295 294/294/294 291/291/291
f 294/294/294 295/295/295 296/296/296
f 297/297/297 299/299/299 298/298/298
f 300/300/300 302/302/302 301/301/301
f 303/303/303 305/305/305 304/304/304
f 305/305/305 303/303/303 306/306/306
f 306/306/306 307/307/307 305/305/305
f 307/307/307 306/306/306 308/308/308
f 308/308/308 309/309/309 307/307/307
f 309/309/309 308/308/308 310/310/310
f 310/310/310 304/304/304 309/309/309
f 304/304/304 310/310/310 303/303/303
f 311/311/311 313/313/313 312/312/312
f 313/313/313 311/311/311 314/314/314
f 314/314/314 315/315/315 313/313/313
f 315/315/315 314/314/314 316/316/316
f 316/316/316 317/317/317 315/315/315
f 317/317/317 316/316/316 318/318/318
f 318/318/318 312/312/312 317/317/317
f 312/312/312 318/318/318 311/311/311
f 319/319/319 321/321/321 320/320/320
f 321/321/321 319/319/319 322/322/322
f 322/322/322 323/323/323 321/321/321
f 323/323/323 322/322/322 324/324/324
f 324/324/324 325/325/325 323/323/323
f 325/325/325 324/324/324 326/326/326
f 326/326/326 320/320/320 325/325/325
f 320/320/320 326/326/326 319/319/319
f 327/327/327 329/329/329 328/328/328
f 329/329/329 327/327/327 330/330/330
f 331/331/331 333/333/333 332/332/332
f 334/334/334 333/333/333 331/331/331
f 335/335/335 337/337/337 336/336/336
f 337/337/337 335/335/335 338/338/338
f 339/339/339 338/338/338 335/335/335
f 338/338/338 339/339/339 340/340/340
f 341/341/341 340/340/340 339/339/339
f 340/340/340 341/341/341 342/342/342
f 336/336/336 342/342/342 341/341/341
f 342/342/342 336/336/336 337/337/337
f 343/343/343 345/345/345 344/344/344
f 345/345/345 343/343/343 346/346/346
f 347/347/347 346/346/346 343/343/343
f 346/346/346 347/347/347 348/348/348
f 349/349/349 348/348/348 347/347/347
f 348/348/348 349/349/349 350/350/350
f 344/344/344 350/350/350 349/349/349
f 350/350/350 344/344/344 345/345/345
f 351/351/351 353/353/353 352/352/352
f 353/353/353 351/351/351 354/354/354
f 355/355/355 357/357/357 356/356/356
f 358/358/358 357/357/357 355/355/355
f 338/338/338 359/359/359 337/337/337
f 359/359/359 338/338/338 360/360/360
f 340/340/340 360/360/360 338/338/338
f 360/360/360 340/340/340 361/361/361
f 342/342/342 361/361/361 340/340/340
f 361/361/361 342/342/342 362/362/362
f 337/337/337 362/362/362 342/342/342
f 362/362/362 337/337/337 359/359/359
f 346/346/346 363/363/363 345/345/345
f 363/363/363 346/346/346 364/364/364
f 348/348/348 364/364/364 346/346/346
f 364/364/364 348/348/348 365/365/365
f 350/350/350 365/365/365 348/348/348
f 365/365/365 350/350/350 366/366/366
f 345/345/345 366/366/366 350/350/350
f 366/366/366 345/345/345 363/363/363
f 367/367/367 369/369/369 368/368/368
f 369/369/369 367/367/367 370/370/370
f 370/370/370 371/371/371 369/369/369
f 371/371/371 370/370/370 372/372/372
f 372/372/372 368/368/368 371/371/371
f 368/368/368 372/372/372 367/367/367
f 373/373/373 375/375/375 374/374/374
f 375/375/375 373/373/373 376/376/376
f 376/376/376 377/377/377 375/375/375
f 377/377/377 376/376/376 378/378/378
f 378/378/378 374/374/374 377/377/377
f 374/374/374 378/378/378 373/373/373
f 379/379/379 381/381/381 380/380/380
f 381/381/381 379/379/379 382/382/382
f 382/382/382 383/383/383 381/381/381
f 383/383/383 382/382/382 384/384/384
f 384/384/384 380/380/380 383/383/383
f 380/380/380 384/384/384 379/379/379
f 385/385/385 387/387/387 386/386/386
f 388/388/388 390/390/390 389/389/389
f 391/391/391 393/393/393 392/392/392
f 393/393/393 391/391/391 394/394/394
f 394/394/394 395/395/395 393/393/393
f 395/395/395 394/394/394 396/396/396
f 396/396/396 392/392/392 395/395/395
f 392/392/392 396/396/396 391/391/391
f 397/397/397 399/399/399 398/398/398
f 399/399/399 397/397/397 400/400/400
f 400/400/400 401/401/401 399/399/399
f 401/401/401 400/400/400 402/402/402
f 402/402/402 398/398/398 401/401/401
f 398/398/398 402/402/402 397/397/397
f 403/403/403 405/405/405 404/404/404
f 405/405/405 403/403/403 406/406/406
f 406/406/406 407/407/407 405/405/405
f 407/407/407 406/406/406 408/408/408
f 408/408/408 404/404/404 407/407/407
f 404/404/404 408/408/408 403/403/403
f 409/409/409 411/411/411 410/410/410
f 412/412/412 414/414/414 413/413/413

g cho_gate_a_03
# texture: cho_gate_a_03.JPG
v 110.5479 -106.6839 -216.5714
v 110.5479 -100.6319 -264.3688
v -145.2095 -100.6319 -264.3688
v -145.2095 -106.6839 -216.5714
v -145.2095 -100.6319 -264.3688
v 110.5479 -100.6319 -264.3688
v 110.5479 -133.9588 -268.5887
v -145.2095 -133.9588 -268.5887
v 110.5479 -84.5965 -165.211
v 110.5479 -78.54449 -213.0085
v -145.2095 -78.54449 -213.0085
v -145.2095 -84.5965 -165.2111
v 110.5479 -106.6839 -216.5714
v -145.2095 -106.6839 -216.5714
v -145.2095 -78.54449 -213.0085
v 110.5479 -78.54449 -213.0085
v 110.5479 -62.50909 -113.8507
v 110.5479 -56.45709 -161.6481
v -145.2095 -56.45709 -161.6481
v -145.2095 -62.50909 -113.8507
v 110.5479 -84.5965 -165.211
v -145.2095 -84.5965 -165.2111
v -145.2095 -56.45709 -161.6481
v 110.5479 -56.45709 -161.6481
v 110.5479 -40.42169 -62.4903
v 110.5479 -34.3698 -110.2878
v -145.2095 -34.3698 -110.2878
v -145.2095 -40.42169 -62.4903
v 110.5479 -62.50909 -113.8507
v -145.2095 -62.50909 -113.8507
v -145.2095 -34.3698 -110.2878
v 110.5479 -34.3698 -110.2878
v -145.2095 -12.28239 -58.9274
v -145.2095 -18.3344 -11.13
v 110.5479 -18.3344 -11.13
v 110.5479 -12.28239 -58.9274
v 110.5479 -40.42169 -62.4903
v -145.2095 -40.42169 -62.4903
v -145.2095 -12.28239 -58.9274
v 110.5479 -12.28239 -58.9274
v -145.2095 9.804901 -7.5671
v -145.2095 3.752899 40.2303
v 110.5479 3.752899 40.2304
v 110.5479 9.804901 -7.567
v -145.2095 9.804901 -7.5671
v 110.5479 9.804901 -7.567
v 110.5479 -18.3344 -11.13
v -145.2095 -18.3344 -11.13
v -145.2095 31.8923 43.7933
v -145.2096 25.8403 91.5907
v 110.5479 25.8403 91.5908
v 110.5479 31.8922 43.7933
v -145.2095 31.8923 43.7933
v 110.5479 31.8922 43.7933
v 110.5479 3.752899 40.2304
v -145.2095 3.752899 40.2303
v 110.5479 62.2245 81.419
v -123.5946 62.2245 81.419
v -123.5946 62.2245 150.5998
v 110.5479 62.2245 150.5998
v -123.5946 62.2245 81.419
v 110.5479 62.2245 81.419
v 110.5479 25.8403 91.5908
v -123.5946 25.8403 91.5907
v 23.7722 201.8515 -129.9335
v 23.7722 201.8514 -9.9189
v 0 201.8515 -9.9189
v 0 201.8516 -129.9335
v 55.3354 170.2881 -129.9336
v 55.3354 170.288 -9.9189
v 23.7722 201.8514 -9.9189
v 23.7722 201.8515 -129.9335
v 55.3353 4.298798 -129.9336
v 55.3353 4.298698 -9.919
v 55.3354 170.288 -9.9189
v 55.3354 170.2881 -129.9336
v -23.7722 201.8515 -129.9335
v -23.7722 201.8514 -9.9189
v -55.3354 170.2881 -129.9336
v -23.7722 201.8515 -129.9335
v -23.7722 201.8514 -9.9189
v -55.3354 170.288 -9.9189
v -55.3353 4.298798 -129.9336
v -55.3354 170.2881 -129.9336
v -55.3354 170.288 -9.9189
v -55.3353 4.298698 -9.919
v -23.7722 201.8516 -249.9482
v 0 201.8517 -249.9482
v -55.3354 170.2882 -249.9482
v -23.7722 201.8516 -249.9482
v -55.3354 4.298897 -249.9483
v -55.3354 170.2882 -249.9482
v 23.7722 201.8516 -249.9482
v 23.7722 201.8516 -249.9482
v 55.3354 170.2882 -249.9482
v 55.3354 170.2882 -249.9482
v 55.3353 4.298897 -249.9483
v 55.3353 4.298698 -9.919
v 55.3353 4.298798 -129.9336
v 55.3353 -107.7643 -129.9337
v -55.3353 4.298798 -129.9336
v -55.3353 4.298698 -9.919
v -55.171 -107.7643 -129.9338
v -55.171 -107.7643 -129.9338
v -55.171 -107.7641 -249.9485
v -55.3354 4.298897 -249.9483
v -55.3353 4.298798 -129.9336
v 55.3353 -107.7641 -249.9485
v 55.3353 -107.7643 -129.9337
v 55.3353 4.298798 -129.9336
v 55.3353 4.298897 -249.9483
v -55.171 -107.7641 -249.9485
v -55.171 -107.7643 -129.9338
v 55.3353 -107.7643 -129.9337
v 55.3353 -107.7641 -249.9485
v 110.5479 62.2245 150.5998
v -123.5946 62.2245 150.5998
v -123.5946 62.2244 209.8575
v 110.5479 62.2244 209.8575
v 110.5479 62.2244 209.8575
v -123.5946 62.2244 209.8575
v -123.5946 62.2244 274.7517
v 110.5479 62.2244 274.7517
vn 0 0.992081 0.125598
vn 0 0.992081 0.125598
vn 0 0.992081 0.125598
vn 0 0.992081 0.125598
vn 0 0.125598 -0.992081
vn 0 0.125598 -0.992081
vn 0 0.125598 -0.992081
vn 0 0.125598 -0.992081
vn 0 0.992081 0.125598
vn 0 0.992081 0.125598
vn 0 0.992081 0.125598
vn 0 0.992081 0.125598
vn 0 0.125598 -0.992081
vn 0 0.125598 -0.992081
vn 0 0.125598 -0.992081
vn 0 0.125598 -0.992081
vn 0 0.992081 0.125598
vn 0 0.992081 0.125598
vn 0 0.992081 0.125598
vn 0 0.992081 0.125598
vn 0 0.125598 -0.992081
vn 0 0.125598 -0.992081
vn 0 0.125598 -0.992081
vn 0 0.125598 -0.992081
vn 0 0.992081 0.125598
vn 0 0.992081 0.125598
vn 0 0.992081 0.125598
vn 0 0.992081 0.125598
vn 0 0.125598 -0.992081
vn 0 0.125598 -0.992081
vn 0 0.125598 -0.992081
vn 0 0.125598 -0.992081
vn 0 0.992081 0.125598
vn 0 0.992081 0.125598
vn 0 0.992081 0.125598
vn 0 0.992081 0.125598
vn 0 0.125598 -0.992081
vn 0 0.125598 -0.992081
vn 0 0.125598 -0.992081
vn 0 0.125598 -0.992081
vn 0 0.992081 0.125598
vn 0 0.992081 0.125598
vn 0 0.992081 0.125598
vn 0 0.992081 0.125598
vn 0 0.125598 -0.992081
vn 0 0.125598 -0.992081
vn 0 0.125598 -0.992081
vn 0 0.125598 -0.992081
vn 0 0.992081 0.125598
vn 0 0.992081 0.125598
vn 0 0.992081 0.125598
vn 0 0.992081 0.125598
vn 0 0.125598 -0.992081
vn 0 0.125598 -0.992081
vn 0 0.125598 -0.992081
vn 0 0.125598 -0.992081
vn 0 1 -0
vn 0 1 -0
vn 0 1 -0
vn 0 1 -0
vn 0 -0.269196 -0.963086
vn 0 -0.269196 -0.963086
vn 0 -0.269196 -0.963086
vn 0 -0.269196 -0.963086
vn 0 -1 -0
vn 0 -1 -0
vn 0 -1 -0
vn 0 -1 -0
vn -0.707107 -0.707107 -0
vn -0.707107 -0.707107 -0
vn -0.707107 -0.707107 -0
vn -0.707107 -0.707107 -0
vn -1 0 -0
vn -1 0 -0
vn -1 0 -0
vn -1 0 -0
vn 0 -1 -0
vn 0 -1 -0
vn 0.707107 -0.707107 -0
vn 0.707107 -0.707107 -0
vn 0.707107 -0.707107 -0
vn 0.707107 -0.707107 -0
vn 1 0 -0
vn 1 0 -0
vn 1 0 -0
vn 1 0 -0
vn 0 -1 -0
vn 0 -1 -0
vn 0.707107 -0.707107 -0
vn 0.707107 -0.707107 -0
vn 1 0 -0
vn 1 0 -0
vn 0 -1 -0
vn -0.707107 -0.707107 -0
vn -0.707107 -0.707107 -0
vn -1 0 -0
vn -1 0 -0
vn -1 0 -0
vn -1 0 -0
vn -1 0 -0
vn 0.999999 0.0015 -0
vn 0.999999 0.0015 -0
vn 0.999999 0.0015 -0
vn 0.999999 0.0015 -0
vn 0.999999 0.0015 -0
vn 0.999999 0.0015 -0
vn 0.999999 0.0015 -0
vn -1 0 -0
vn -1 0 -0
vn -1 0 -0
vn -1 0 -0
vn 0 1 -0
vn 0 1 -0
vn 0 1 -0
vn 0 1 -0
vn 0 1 -0
vn 0 1 -0
vn 0 1 -0
vn 0 1 -0
vn 0 1 -0
vn 0 1 -0
vn 0 1 -0
vn 0 1 -0
vt 0.0117 0.9844
vt 0.1484 0.9844
vt 0.1484 0.0039
vt 0.0117 0.0039
vt 0.1484 0.0039
vt 0.1484 0.9844
vt 0.2578 0.9844
vt 0.2578 0.0039
vt 0.0117 0.0039
vt 0.1484 0.0039
vt 0.1484 0.9844
vt 0.0117 0.9844
vt 0.2578 0.9844
vt 0.2578 0.0039
vt 0.1484 0.0039
vt 0.1484 0.9844
vt 0.0117 0.9844
vt 0.1484 0.9844
vt 0.1484 0.0039
vt 0.0117 0.0039
vt 0.2578 0.9844
vt 0.2578 0.0039
vt 0.1484 0.0039
vt 0.1484 0.9844
vt 0.0117 0.0039
vt 0.1484 0.0039
vt 0.1484 0.9844
vt 0.0117 0.9844
vt 0.2578 0.9844
vt 0.2578 0.0039
vt 0.1484 0.0039
vt 0.1484 0.9844
vt 0.1484 0.0039
vt 0.0117 0.0039
vt 0.0117 0.9844
vt 0.1484 0.9844
vt 0.2578 0.9844
vt 0.2578 0.0039
vt 0.1484 0.0039
vt 0.1484 0.9844
vt 0.1484 0.9844
vt 0.0117 0.9844
vt 0.0117 0.0039
vt 0.1484 0.0039
vt 0.1484 0.0039
vt 0.1484 0.9844
vt 0.2578 0.9844
vt 0.2578 0.0039
vt 0.1484 0.0039
vt 0.0117 0.0039
vt 0.0117 0.9844
vt 0.1484 0.9844
vt 0.1484 0.0039
vt 0.1484 0.9844
vt 0.2578 0.9844
vt 0.2578 0.0039
vt 0.1484 0.9844
vt 0.1484 0.0039
vt 0.0117 0.0039
vt 0.0117 0.9844
vt 0.1484 0.0039
vt 0.1484 0.9844
vt 0.2578 0.9844
vt 0.2578 0.0039
vt 0.9375 0.832
vt 0.2773 0.832
vt 0.2773 0.9844
vt 0.9375 0.9844
vt 0.9375 0.6992
vt 0.2773 0.6992
vt 0.2773 0.832
vt 0.9375 0.832
vt 0.9375 0
vt 0.2773 0
vt 0.2773 0.6992
vt 0.9375 0.6992
vt 0.9375 0.832
vt 0.2773 0.832
vt 0.9375 0.6992
vt 0.9375 0.832
vt 0.2773 0.832
vt 0.2773 0.6992
vt 0.9375 0
vt 0.9375 0.6992
vt 0.2773 0.6992
vt 0.2773 0
vt 0.2773 0.832
vt 0.2773 0.9844
vt 0.2773 0.6992
vt 0.2773 0.832
vt 0.2773 0
vt 0.2773 0.6992
vt 0.2773 0.832
vt 0.2773 0.832
vt 0.2773 0.6992
vt 0.2773 0.6992
vt 0.2773 0
vt 0.9267 -0.9873
vt 0.3148 -0.9873
vt 0.3148 -0.4159
vt 0.9267 -0.9873
vt 0.3148 -0.9873
vt 0.9267 -0.4159
vt 0.3148 -0.4159
vt 0.9267 -0.4159
vt 0.9267 -0.9873
vt 0.3148 -0.9873
vt 0.3148 -0.4159
vt 0.9267 -0.4159
vt 0.9267 -0.9873
vt 0.3148 -0.9873
vt -0.2341 -1.9896
vt -0.2341 -1.3043
vt -0.5533 -1.3043
vt -0.5533 -1.9896
vt 2.0087 -1.0071
vt 2.0087 -2.0005
vt 2.1391 -2.0005
vt 2.1391 -1.0071
vt 2.1394 -1.0074
vt 2.1394 -1.9996
vt 2.0086 -1.9996
vt 2.0086 -1.0074
f 415/415/415 417/417/417 416/416/416
f 417/417/417 415/415/415 418/418/418
f 419/419/419 421/421/421 420/420/420
f 421/421/421 419/419/419 422/422/422
f 423/423/423 425/425/425 424/424/424
f 425/425/425 423/423/423 426/426/426
f 427/427/427 429/429/429 428/428/428
f 429/429/429 427/427/427 430/430/430
f 431/431/431 433/433/433 432/432/432
f 433/433/433 431/431/431 434/434/434
f 435/435/435 437/437/437 436/436/436
f 437/437/437 435/435/435 438/438/438
f 439/439/439 441/441/441 440/440/440
f 441/441/441 439/439/439 442/442/442
f 443/443/443 445/445/445 444/444/444
f 445/445/445 443/443/443 446/446/446
f 447/447/447 449/449/449 448/448/448
f 449/449/449 447/447/447 450/450/450
f 451/451/451 453/453/453 452/452/452
f 453/453/453 451/451/451 454/454/454
f 455/455/455 457/457/457 456/456/456
f 457/457/457 455/455/455 458/458/458
f 459/459/459 461/461/461 460/460/460
f 461/461/461 459/459/459 462/462/462
f 463/463/463 465/465/465 464/464/464
f 465/465/465 463/463/463 466/466/466
f 467/467/467 469/469/469 468/468/468
f 469/469/469 467/467/467 470/470/470
f 471/471/471 473/473/473 472/472/472
f 473/473/473 471/471/471 474/474/474
f 475/475/475 477/477/477 476/476/476
f 477/477/477 475/475/475 478/478/478
f 479/479/479 481/481/481 480/480/480
f 481/481/481 479/479/479 482/482/482
f 483/483/483 485/485/485 484/484/484
f 485/485/485 483/483/483 486/486/486
f 487/487/487 489/489/489 488/488/488
f 489/489/489 487/487/487 490/490/490
f 491/491/491 481/481/481 482/482/482
f 481/481/481 491/491/491 492/492/492
f 493/493/493 495/495/495 494/494/494
f 495/495/495 493/493/493 496/496/496
f 497/497/497 499/499/499 498/498/498
f 499/499/499 497/497/497 500/500/500
f 491/491/491 502/502/502 501/501/501
f 502/502/502 491/491/491 482/482/482
f 493/493/493 504/504/504 503/503/503
f 504/504/504 493/493/493 494/494/494
f 497/497/497 506/506/506 505/505/505
f 506/506/506 497/497/497 498/498/498
f 479/479/479 502/502/502 482/482/482
f 502/502/502 479/479/479 507/507/507
f 483/483/483 508/508/508 486/486/486
f 508/508/508 483/483/483 509/509/509
f 487/487/487 510/510/510 490/490/490
f 510/510/510 487/487/487 511/511/511
f 512/512/512 514/514/514 513/513/513
f 515/515/515 517/517/517 516/516/516
f 518/518/518 520/520/520 519/519/519
f 520/520/520 518/518/518 521/521/521
f 522/522/522 524/524/524 523/523/523
f 524/524/524 522/522/522 525/525/525
f 526/526/526 528/528/528 527/527/527
f 528/528/528 526/526/526 529/529/529
f 530/530/530 532/532/532 531/531/531
f 532/532/532 530/530/530 533/533/533
f 534/534/534 536/536/536 535/535/535
f 536/536/536 534/534/534 537/537/537

g chogatea02_R
# texture: chogatea02_R.jpg
v 0 262.8102 -3.9467
v 0 239.7413 -10.9814
v 17.9308 255.9904 -18.5631
v 0 262.8102 -3.9467
v 17.9308 255.9904 -18.5631
v 0 272.2395 -26.1447
v 0 262.8102 -3.9467
v 0 272.2395 -26.1447
v -17.9308 255.9904 -18.5631
v 0 262.8102 -3.9467
v -17.9308 255.9904 -18.5631
v 0 239.7413 -10.9814
v 0 229.5943 22.2698
v 0 222.0422 15.4505
v 7.5651 229.6072 15.4649
v 0 229.5943 22.2698
v 7.5651 229.6072 15.4649
v 0 237.1723 15.4792
v 0 229.5943 22.2698
v 0 237.1723 15.4792
v -7.5651 229.6072 15.4649
v 0 229.5943 22.2698
v -7.5651 229.6072 15.4649
v 0 222.0422 15.4505
v 83.6145 175.2115 22.2698
v 76.0494 175.2244 15.4648
v 83.6145 167.6593 15.4505
v 83.6145 175.2115 22.2698
v 83.6145 182.7895 15.4792
v 76.0494 175.2244 15.4648
v 83.6145 175.2115 22.2698
v 91.1796 175.2244 15.4648
v 83.6145 182.7895 15.4792
v 83.6145 175.2115 22.2698
v 83.6145 167.6593 15.4505
v 91.1796 175.2244 15.4648
v 83.6145 95.9337 22.2697
v 76.0494 95.9466 15.4648
v 83.6145 88.3816 15.4504
v 83.6145 95.9337 22.2697
v 83.6145 103.5117 15.4791
v 76.0494 95.9466 15.4648
v 83.6145 95.9337 22.2697
v 91.1796 95.9466 15.4648
v 83.6145 103.5117 15.4791
v 83.6145 95.9337 22.2697
v 83.6145 88.3816 15.4504
v 91.1796 95.9466 15.4648
v 83.6145 16.6559 22.2697
v 76.0494 16.6689 15.4647
v 83.6145 9.103798 15.4504
v 83.6145 16.6559 22.2697
v 83.6145 24.2339 15.4791
v 76.0494 16.6689 15.4647
v 83.6145 16.6559 22.2697
v 91.1796 16.6689 15.4647
v 83.6145 24.2339 15.4791
v 83.6145 16.6559 22.2697
v 83.6145 9.103798 15.4504
v 91.1796 16.6689 15.4647
v 119.7027 54.947 -7.8946
v 113.4367 38.6661 -21.1932
v 128.2029 54.9748 -28.1166
v 119.7027 54.947 -7.8946
v 128.2029 54.9748 -28.1166
v 113.463 71.2835 -21.1372
v 119.7027 54.947 -7.8946
v 113.463 71.2835 -21.1372
v 98.6968 54.9748 -14.2139
v 119.7027 54.947 -7.8946
v 98.6968 54.9748 -14.2139
v 113.4367 38.6661 -21.1932
v 119.7027 166.0996 -7.8945
v 113.4367 149.8187 -21.1931
v 128.2029 166.1274 -28.1165
v 119.7027 166.0996 -7.8945
v 128.2029 166.1274 -28.1165
v 113.463 182.4361 -21.1372
v 119.7027 166.0996 -7.8945
v 113.463 182.4361 -21.1372
v 98.6968 166.1274 -14.2138
v 119.7027 166.0996 -7.8945
v 98.6968 166.1274 -14.2138
v 113.4367 149.8187 -21.1931
v -83.6145 95.9337 22.2697
v -83.6145 88.3816 15.4504
v -76.0494 95.9466 15.4648
v -83.6145 95.9337 22.2697
v -76.0494 95.9466 15.4648
v -83.6145 103.5117 15.4791
v -83.6145 95.9337 22.2697
v -83.6145 103.5117 15.4791
v -91.1796 95.9466 15.4648
v -83.6145 95.9337 22.2697
v -91.1796 95.9466 15.4648
v -83.6145 88.3816 15.4504
v -83.6145 16.6559 22.2697
v -83.6145 9.103798 15.4504
v -76.0494 16.6689 15.4647
v -83.6145 16.6559 22.2697
v -76.0494 16.6689 15.4647
v -83.6145 24.2339 15.4791
v -83.6145 16.6559 22.2697
v -83.6145 24.2339 15.4791
v -91.1796 16.6689 15.4647
v -83.6145 16.6559 22.2697
v -91.1796 16.6689 15.4647
v -83.6145 9.103798 15.4504
v -83.6145 175.2115 22.2698
v -83.6145 167.6593 15.4505
v -76.0494 175.2244 15.4648
v -83.6145 175.2115 22.2698
v -76.0494 175.2244 15.4648
v -83.6145 182.7895 15.4792
v -83.6145 175.2115 22.2698
v -83.6145 182.7895 15.4792
v -91.1796 175.2244 15.4648
v -83.6145 175.2115 22.2698
v -91.1796 175.2244 15.4648
v -83.6145 167.6593 15.4505
v -119.7027 54.947 -7.8946
v -128.2029 54.9748 -28.1166
v -113.4367 38.6661 -21.1932
v -119.7027 54.947 -7.8946
v -113.463 71.2835 -21.1372
v -128.2029 54.9748 -28.1166
v -119.7027 54.947 -7.8946
v -98.6968 54.9748 -14.2139
v -113.463 71.2835 -21.1372
v -119.7027 54.947 -7.8946
v -113.4367 38.6661 -21.1932
v -98.6968 54.9748 -14.2139
v -119.7027 166.0996 -7.8945
v -128.2029 166.1274 -28.1165
v -113.4367 149.8187 -21.1931
v -119.7027 166.0996 -7.8945
v -113.463 182.4361 -21.1371
v -128.2029 166.1274 -28.1165
v -119.7027 166.0996 -7.8945
v -98.6968 166.1274 -14.2138
v -113.463 182.4361 -21.1371
v -119.7027 166.0996 -7.8945
v -113.4367 149.8187 -21.1931
v -98.6968 166.1274 -14.2138
vn 0.555896 -0.242498 0.795094
vn 0.555896 -0.242498 0.795094
vn 0.555896 -0.242498 0.795094
vn 0.555892 0.765089 0.324996
vn 0.555892 0.765089 0.324996
vn 0.555892 0.765089 0.324996
vn -0.555892 0.765089 0.324996
vn -0.555892 0.765089 0.324996
vn -0.555892 0.765089 0.324996
vn -0.555896 -0.242498 0.795094
vn -0.555896 -0.242498 0.795094
vn -0.555896 -0.242498 0.795094
vn 0.555914 -0.557114 0.616915
vn 0.555914 -0.557114 0.616915
vn 0.555914 -0.557114 0.616915
vn 0.5559 0.5547 0.6191
vn 0.5559 0.5547 0.6191
vn 0.5559 0.5547 0.6191
vn -0.5559 0.5547 0.6191
vn -0.5559 0.5547 0.6191
vn -0.5559 0.5547 0.6191
vn -0.555914 -0.557114 0.616915
vn -0.555914 -0.557114 0.616915
vn -0.555914 -0.557114 0.616915
vn -0.555879 -0.557079 0.616977
vn -0.555879 -0.557079 0.616977
vn -0.555879 -0.557079 0.616977
vn -0.5559 0.5547 0.6191
vn -0.5559 0.5547 0.6191
vn -0.5559 0.5547 0.6191
vn 0.5559 0.5547 0.6191
vn 0.5559 0.5547 0.6191
vn 0.5559 0.5547 0.6191
vn 0.555879 -0.557079 0.616977
vn 0.555879 -0.557079 0.616977
vn 0.555879 -0.557079 0.616977
vn -0.555879 -0.557079 0.616977
vn -0.555879 -0.557079 0.616977
vn -0.555879 -0.557079 0.616977
vn -0.5559 0.5547 0.6191
vn -0.5559 0.5547 0.6191
vn -0.5559 0.5547 0.6191
vn 0.5559 0.5547 0.6191
vn 0.5559 0.5547 0.6191
vn 0.5559 0.5547 0.6191
vn 0.555879 -0.557079 0.616977
vn 0.555879 -0.557079 0.616977
vn 0.555879 -0.557079 0.616977
vn -0.555914 -0.557114 0.616915
vn -0.555914 -0.557114 0.616915
vn -0.555914 -0.557114 0.616915
vn -0.5559 0.5547 0.6191
vn -0.5559 0.5547 0.6191
vn -0.5559 0.5547 0.6191
vn 0.5559 0.5547 0.6191
vn 0.5559 0.5547 0.6191
vn 0.5559 0.5547 0.6191
vn 0.555914 -0.557114 0.616915
vn 0.555914 -0.557114 0.616915
vn 0.555914 -0.557114 0.616915
vn 0.765808 -0.557106 0.321203
vn 0.765808 -0.557106 0.321203
vn 0.765808 -0.557106 0.321203
vn 0.766733 0.554724 0.323114
vn 0.766733 0.554724 0.323114
vn 0.766733 0.554724 0.323114
vn -0.238997 0.554694 0.796991
vn -0.238997 0.554694 0.796991
vn -0.238997 0.554694 0.796991
vn -0.239908 -0.557118 0.795025
vn -0.239908 -0.557118 0.795025
vn -0.239908 -0.557118 0.795025
vn 0.765808 -0.557106 0.321203
vn 0.765808 -0.557106 0.321203
vn 0.765808 -0.557106 0.321203
vn 0.766733 0.554724 0.323114
vn 0.766733 0.554724 0.323114
vn 0.766733 0.554724 0.323114
vn -0.238997 0.554694 0.796991
vn -0.238997 0.554694 0.796991
vn -0.238997 0.554694 0.796991
vn -0.239908 -0.557118 0.795025
vn -0.239908 -0.557118 0.795025
vn -0.239908 -0.557118 0.795025
vn 0.555879 -0.557079 0.616977
vn 0.555879 -0.557079 0.616977
vn 0.555879 -0.557079 0.616977
vn 0.5559 0.5547 0.6191
vn 0.5559 0.5547 0.6191
vn 0.5559 0.5547 0.6191
vn -0.5559 0.5547 0.6191
vn -0.5559 0.5547 0.6191
vn -0.5559 0.5547 0.6191
vn -0.555879 -0.557079 0.616977
vn -0.555879 -0.557079 0.616977
vn -0.555879 -0.557079 0.616977
vn 0.555914 -0.557114 0.616915
vn 0.555914 -0.557114 0.616915
vn 0.555914 -0.557114 0.616915
vn 0.5559 0.5547 0.6191
vn 0.5559 0.5547 0.6191
vn 0.5559 0.5547 0.6191
vn -0.5559 0.5547 0.6191
vn -0.5559 0.5547 0.6191
vn -0.5559 0.5547 0.6191
vn -0.555914 -0.557114 0.616915
vn -0.555914 -0.557114 0.616915
vn -0.555914 -0.557114 0.616915
vn 0.555879 -0.557079 0.616977
vn 0.555879 -0.557079 0.616977
vn 0.555879 -0.557079 0.616977
vn 0.5559 0.5547 0.6191
vn 0.5559 0.5547 0.6191
vn 0.5559 0.5547 0.6191
vn -0.5559 0.5547 0.6191
vn -0.5559 0.5547 0.6191
vn -0.5559 0.5547 0.6191
vn -0.555879 -0.557079 0.616977
vn -0.555879 -0.557079 0.616977
vn -0.555879 -0.557079 0.616977
vn -0.765808 -0.557106 0.321203
vn -0.765808 -0.557106 0.321203
vn -0.765808 -0.557106 0.321203
vn -0.766733 0.554724 0.323114
vn -0.766733 0.554724 0.323114
vn -0.766733 0.554724 0.323114
vn 0.238997 0.554694 0.796991
vn 0.238997 0.554694 0.796991
vn 0.238997 0.554694 0.796991
vn 0.239908 -0.557118 0.795025
vn 0.239908 -0.557118 0.795025
vn 0.239908 -0.557118 0.795025
vn -0.765808 -0.557106 0.321203
vn -0.765808 -0.557106 0.321203
vn -0.765808 -0.557106 0.321203
vn -0.766733 0.554724 0.323114
vn -0.766733 0.554724 0.323114
vn -0.766733 0.554724 0.323114
vn 0.238997 0.554694 0.796991
vn 0.238997 0.554694 0.796991
vn 0.238997 0.554694 0.796991
vn 0.239908 -0.557118 0.795025
vn 0.239908 -0.557118 0.795025
vn 0.239908 -0.557118 0.795025
vt 0.5 0.5
vt 0.9989 0.9989
vt 0.0011 0.9989
vt 0.5 0.5
vt 0.0011 0.9989
vt 0.0011 0.0011
vt 0.5 0.5
vt 0.0011 0.0011
vt 0.9989 0.0011
vt 0.5 0.5
vt 0.9989 0.0011
vt 0.9989 0.9989
vt 0.5 0.5
vt 0.9989 0.9989
vt 0.0011 0.9989
vt 0.5 0.5
vt 0.0011 0.9989
vt 0.0011 0.0011
vt 0.5 0.5
vt 0.0011 0.0011
vt 0.9989 0.0011
vt 0.5 0.5
vt 0.9989 0.0011
vt 0.9989 0.9989
vt 0.5 0.5
vt 0.0011 0.9989
vt 0.9989 0.9989
vt 0.5 0.5
vt 0.0011 0.0011
vt 0.0011 0.9989
vt 0.5 0.5
vt 0.9989 0.0011
vt 0.0011 0.0011
vt 0.5 0.5
vt 0.9989 0.9989
vt 0.9989 0.0011
vt 0.5 0.5
vt 0.0011 0.9989
vt 0.9989 0.9989
vt 0.5 0.5
vt 0.0011 0.0011
vt 0.0011 0.9989
vt 0.5 0.5
vt 0.9989 0.0011
vt 0.0011 0.0011
vt 0.5 0.5
vt 0.9989 0.9989
vt 0.9989 0.0011
vt 0.5 0.5
vt 0.0011 0.9989
vt 0.9989 0.9989
vt 0.5 0.5
vt 0.0011 0.0011
vt 0.0011 0.9989
vt 0.5 0.5
vt 0.9989 0.0011
vt 0.0011 0.0011
vt 0.5 0.5
vt 0.9989 0.9989
vt 0.9989 0.0011
vt 0.5 0.5
vt 0.9989 0.9989
vt 0.0011 0.9989
vt 0.5 0.5
vt 0.0011 0.9989
vt 0.0011 0.0011
vt 0.5 0.5
vt 0.0011 0.0011
vt 0.9989 0.0011
vt 0.5 0.5
vt 0.9989 0.0011
vt 0.9989 0.9989
vt 0.5 0.5
vt 0.9989 0.9989
vt 0.0011 0.9989
vt 0.5 0.5
vt 0.0011 0.9989
vt 0.0011 0.0011
vt 0.5 0.5
vt 0.0011 0.0011
vt 0.9989 0.0011
vt 0.5 0.5
vt 0.9989 0.0011
vt 0.9989 0.9989
vt 0.5 0.5
vt 0.9989 0.9989
vt 0.0011 0.9989
vt 0.5 0.5
vt 0.0011 0.9989
vt 0.0011 0.0011
vt 0.5 0.5
vt 0.0011 0.0011
vt 0.9989 0.0011
vt 0.5 0.5
vt 0.9989 0.0011
vt 0.9989 0.9989
vt 0.5 0.5
vt 0.9989 0.9989
vt 0.0011 0.9989
vt 0.5 0.5
vt 0.0011 0.9989
vt 0.0011 0.0011
vt 0.5 0.5
vt 0.0011 0.0011
vt 0.9989 0.0011
vt 0.5 0.5
vt 0.9989 0.0011
vt 0.9989 0.9989
vt 0.5 0.5
vt 0.9989 0.9989
vt 0.0011 0.9989
vt 0.5 0.5
vt 0.0011 0.9989
vt 0.0011 0.0011
vt 0.5 0.5
vt 0.0011 0.0011
vt 0.9989 0.0011
vt 0.5 0.5
vt 0.9989 0.0011
vt 0.9989 0.9989
vt 0.5 0.5
vt 0.0011 0.9989
vt 0.9989 0.9989
vt 0.5 0.5
vt 0.0011 0.0011
vt 0.0011 0.9989
vt 0.5 0.5
vt 0.9989 0.0011
vt 0.0011 0.0011
vt 0.5 0.5
vt 0.9989 0.9989
vt 0.9989 0.0011
vt 0.5 0.5
vt 0.0011 0.9989
vt 0.9989 0.9989
vt 0.5 0.5
vt 0.0011 0.0011
vt 0.0011 0.9989
vt 0.5 0.5
vt 0.9989 0.0011
vt 0.0011 0.0011
vt 0.5 0.5
vt 0.9989 0.9989
vt 0.9989 0.0011
f 538/538/538 540/540/540 539/539/539
f 541/541/541 543/543/543 542/542/542
f 544/544/544 546/546/546 545/545/545
f 547/547/547 549/549/549 548/548/548
f 550/550/550 552/552/552 551/551/551
f 553/553/553 555/555/555 554/554/554
f 556/556/556 558/558/558 557/557/557
f 559/559/559 561/561/561 560/560/560
f 562/562/562 564/564/564 563/563/563
f 565/565/565 567/567/567 566/566/566
f 568/568/568 570/570/570 569/569/569
f 571/571/571 573/573/573 572/572/572
f 574/574/574 576/576/576 575/575/575
f 577/577/577 579/579/579 578/578/578
f 580/580/580 582/582/582 581/581/581
f 583/583/583 585/585/585 584/584/584
f 586/586/586 588/588/588 587/587/587
f 589/589/589 591/591/591 590/590/590
f 592/592/592 594/594/594 593/593/593
f 595/595/595 597/597/597 596/596/596
f 598/598/598 600/600/600 599/599/599
f 601/601/601 603/603/603 602/602/602
f 604/604/604 606/606/606 605/605/605
f 607/607/607 609/609/609 608/608/608
f 610/610/610 612/612/612 611/611/611
f 613/613/613 615/615/615 614/614/614
f 616/616/616 618/618/618 617/617/617
f 619/619/619 621/621/621 620/620/620
f 622/622/622 624/624/624 623/623/623
f 625/625/625 627/627/627 626/626/626
f 628/628/628 630/630/630 629/629/629
f 631/631/631 633/633/633 632/632/632
f 634/634/634 636/636/636 635/635/635
f 637/637/637 639/639/639 638/638/638
f 640/640/640 642/642/642 641/641/641
f 643/643/643 645/645/645 644/644/644
f 646/646/646 648/648/648 647/647/647
f 649/649/649 651/651/651 650/650/650
f 652/652/652 654/654/654 653/653/653
f 655/655/655 657/657/657 656/656/656
f 658/658/658 660/660/660 659/659/659
f 661/661/661 663/663/663 662/662/662
f 664/664/664 666/666/666 665/665/665
f 667/667/667 669/669/669 668/668/668
f 670/670/670 672/672/672 671/671/671
f 673/673/673 675/675/675 674/674/674
f 676/676/676 678/678/678 677/677/677
f 679/679/679 681/681/681 680/680/680
