# Object30.bmd — MU geometry at action 0 key 0, exported for MU2
# 3 mesh(es)

g flag_jpg
# texture: flag.jpg
v 55.72839 6.970596 -14.42939
v 31.3275 10.76551 4.299603
v 33.6874 10.7655 7.111905
v 58.365 6.970596 -11.28728
v 8.646002 10.7655 25.07751
v 11.2825 10.76552 28.21962
v 55.72839 2.816399 -14.42939
v 31.3275 6.611214 4.299611
v 31.3275 10.76551 4.299603
v 55.72839 6.970596 -14.42939
v 8.646001 6.611191 25.07751
v 8.646002 10.7655 25.07751
v 11.2825 6.611198 28.21962
v 33.6874 6.611206 7.111913
v 33.6874 10.7655 7.111905
v 11.2825 10.76552 28.21962
v 58.365 2.816399 -11.28729
v 58.365 6.970596 -11.28728
v 58.365 2.816399 -11.28729
v 55.72839 2.816399 -14.42939
v 55.72839 6.970596 -14.42939
v 58.365 6.970596 -11.28728
v 58.365 6.970596 -11.28728
v 36.3648 10.7655 10.3027
v 38.7246 10.7655 13.115
v 61.00149 6.970596 -8.14519
v 11.2825 10.76552 28.21962
v 13.919 10.76551 31.36172
v 58.365 2.816399 -11.28729
v 36.3648 6.611206 10.30271
v 36.3648 10.7655 10.3027
v 58.365 6.970596 -11.28728
v 11.2825 6.611198 28.21962
v 11.2825 10.76552 28.21962
v 13.919 6.611206 31.36172
v 38.7246 6.611206 13.11501
v 38.7246 10.7655 13.115
v 13.919 10.76551 31.36172
v 61.00149 2.816399 -8.14519
v 61.00149 6.970596 -8.14519
v 61.00149 2.816399 -8.14519
v 58.365 2.816399 -11.28729
v 58.365 6.970596 -11.28728
v 61.00149 6.970596 -8.14519
v 20.0353 -23.834 -31.53248
v 21.1017 -23.38351 -31.09398
v 19.0778 -24.0121 -30.76828
v 19.9264 -24.10641 -32.73509
v 21.1017 -23.38351 -31.09398
v 7.560395 16.18101 -38.78068
v 5.483695 15.7249 -38.50389
v 19.0778 -24.0121 -30.76828
v 19.0778 -24.0121 -30.76828
v 5.483695 15.7249 -38.50389
v 6.437898 15.2856 -40.37309
v 19.9264 -24.10641 -32.73509
v 19.9264 -24.10641 -32.73509
v 6.437898 15.2856 -40.37309
v 7.560395 16.18101 -38.78068
v 21.1017 -23.38351 -31.09398
v -4.897804 45.5304 -59.70079
v -7.026204 45.319 -59.54969
v -7.026204 45.319 -59.54969
v -5.968704 44.3905 -61.16739
v -5.968704 44.3905 -61.16739
v -4.897804 45.5304 -59.70079
v -5.964205 45.08002 -60.13929
v -7.026204 45.319 -59.54969
v -4.897804 45.5304 -59.70079
v -5.968704 44.3905 -61.16739
v 17.1989 0.33741 -59.78827
v 20.81439 0.747192 -60.27667
v 21.46989 5.104904 -51.76757
v 17.85439 4.695091 -51.27918
v 22.4938 6.755402 -42.80207
v 18.87829 6.345718 -42.31378
v 16.79559 3.30101 -60.28778
v 17.451 7.658707 -51.77868
v 21.06649 8.068489 -52.26708
v 20.411 3.710793 -60.77617
v 18.475 9.309189 -42.81329
v 22.09039 9.718994 -43.30169
v 17.1989 0.33741 -59.78827
v 17.85439 4.695091 -51.27918
v 17.451 7.658707 -51.77868
v 16.79559 3.30101 -60.28778
v 18.87829 6.345718 -42.31378
v 18.475 9.309189 -42.81329
v 18.87829 6.345718 -42.31378
v 22.4938 6.755402 -42.80207
v 22.09039 9.718994 -43.30169
v 18.475 9.309189 -42.81329
v 22.4938 6.755402 -42.80207
v 21.46989 5.104904 -51.76757
v 21.06649 8.068489 -52.26708
v 22.09039 9.718994 -43.30169
v 20.81439 0.747192 -60.27667
v 20.411 3.710793 -60.77617
v 20.81439 0.747192 -60.27667
v 17.1989 0.33741 -59.78827
v 16.79559 3.30101 -60.28778
v 20.411 3.710793 -60.77617
v 1.834595 4.965591 -56.99418
v 4.797397 7.435799 -48.22239
v 7.976795 8.615692 -49.62858
v 5.013994 6.145508 -58.40039
v 8.554595 7.283401 -39.85508
v 11.734 8.46331 -41.26127
v 2.704195 2.094589 -57.43699
v 5.666995 4.564796 -48.66519
v 4.797397 7.435799 -48.22239
v 1.834595 4.965591 -56.99418
v 9.424297 4.412399 -40.29789
v 8.554595 7.283401 -39.85508
v 9.424297 4.412399 -40.29789
v 12.60359 5.592316 -41.70408
v 11.734 8.46331 -41.26127
v 8.554595 7.283401 -39.85508
v 12.60359 5.592316 -41.70408
v 8.846394 5.74469 -50.07138
v 7.976795 8.615692 -49.62858
v 11.734 8.46331 -41.26127
v 5.883595 3.274506 -58.84318
v 5.013994 6.145508 -58.40039
v 5.883595 3.274506 -58.84318
v 2.704195 2.094589 -57.43699
v 1.834595 4.965591 -56.99418
v 5.013994 6.145508 -58.40039
v 4.467899 -3.043999 -10.24438
v -4.1037 -3.043999 -10.24438
v -4.103701 191.196 -10.24441
v 4.467899 191.196 -10.24441
v 4.467899 -3.043999 0.612912
v 4.4679 191.196 0.612889
v -4.1037 191.196 0.612882
v -4.103699 -3.043999 0.612912
v 4.467899 -3.043999 -10.24438
v 4.467899 191.196 -10.24441
v 4.4679 191.196 0.612889
v 4.467899 -3.043999 0.612912
v -4.103701 191.196 -10.24441
v -4.1037 -3.043999 -10.24438
v -4.103699 -3.043999 0.612912
v -4.1037 191.196 0.612882
v -54.3886 7.776291 -45.34777
v -39.7977 7.634598 -59.90078
v -44.5014 7.576309 -64.58208
v -59.09221 7.717987 -50.02908
v -25.9427 10.67532 -73.81757
v -30.6463 10.61701 -78.49888
v -54.3786 1.282898 -45.26718
v -39.7878 1.141205 -59.82019
v -39.7977 7.634598 -59.90078
v -54.3886 7.776291 -45.34777
v -25.9327 4.181892 -73.737
v -25.9427 10.67532 -73.81757
v -25.9327 4.181892 -73.737
v -30.63631 4.123611 -78.41827
v -30.6463 10.61701 -78.49888
v -25.9427 10.67532 -73.81757
v -30.63631 4.123611 -78.41827
v -44.4914 1.082916 -64.50148
v -44.5014 7.576309 -64.58208
v -30.6463 10.61701 -78.49888
v -59.08219 1.224594 -49.94847
v -59.09221 7.717987 -50.02908
v -59.08219 1.224594 -49.94847
v -54.3786 1.282898 -45.26718
v -54.3886 7.776291 -45.34777
v -59.09221 7.717987 -50.02908
v -20.9471 21.7152 -53.36421
v -21.6192 12.12381 -58.80809
v -24.0377 12.145 -56.43548
v -18.5215 21.7203 -55.72979
v -33.0312 8.330711 -70.25159
v -35.4367 8.361214 -67.86597
v -17.8145 21.15739 -50.1853
v -24.0377 12.145 -56.43548
v -22.4342 9.215897 -54.78579
v -20.9471 21.7152 -53.36421
v -35.4367 8.361214 -67.86597
v -35.42839 4.959808 -67.81149
v -33.02291 4.929207 -70.19708
v -21.6192 12.12381 -58.80809
v -20.0156 9.194824 -57.15838
v -33.0312 8.330711 -70.25159
v -18.5215 21.7203 -55.72979
v -15.3888 21.16251 -52.55088
v -15.3888 21.16251 -52.55088
v -20.9471 21.7152 -53.36421
v -17.8145 21.15739 -50.1853
v -18.5215 21.7203 -55.72979
v -31.15 20.20341 -47.00528
v -31.3472 10.612 -51.97439
v -33.7622 10.63321 -49.59818
v -28.729 20.2085 -49.3755
v -40.98491 6.818916 -61.64359
v -43.3889 6.849411 -59.25638
v -28.5073 19.64561 -44.31638
v -33.7622 10.63321 -49.59818
v -32.41121 7.704102 -48.20108
v -31.15 20.20341 -47.00528
v -43.3889 6.849411 -59.25638
v -43.38551 3.448013 -59.20678
v -40.98149 3.417404 -61.59398
v -31.3472 10.612 -51.97439
v -29.9963 7.682899 -50.57718
v -40.98491 6.818916 -61.64359
v -28.729 20.2085 -49.3755
v -26.0864 19.6507 -46.68658
v -26.0864 19.6507 -46.68658
v -31.15 20.20341 -47.00528
v -28.5073 19.64561 -44.31638
v -28.729 20.2085 -49.3755
v -40.1377 20.0522 -40.8341
v -40.05111 10.4608 -45.51928
v -42.4639 10.48201 -43.14099
v -37.7196 20.0573 -43.2071
v -48.62761 6.667694 -54.12728
v -51.03061 6.698196 -51.73918
v -37.7881 19.49442 -38.43828
v -42.4639 10.48201 -43.14099
v -41.264 7.552917 -41.89479
v -40.1377 20.0522 -40.8341
v -51.03061 6.698196 -51.73918
v -51.03011 3.296783 -51.69247
v -48.62712 3.26619 -54.08059
v -40.05111 10.4608 -45.51928
v -38.8511 7.531799 -44.27309
v -48.62761 6.667694 -54.12728
v -37.7196 20.0573 -43.2071
v -35.3699 19.49951 -40.81128
v -35.3699 19.49951 -40.81128
v -40.1377 20.0522 -40.8341
v -37.7881 19.49442 -38.43828
v -37.7196 20.0573 -43.2071
v -66.39559 19.49438 -67.04578
v -64.02261 19.4995 -69.46397
v -60.5607 7.531799 -65.98277
v -62.939 7.552902 -63.56987
v -63.99979 20.0522 -64.69617
v -61.69291 10.48199 -62.36997
v -59.31461 10.46079 -64.78278
v -61.6268 20.05729 -67.11427
v -53.09461 6.698196 -53.80317
v -50.70651 6.667686 -56.20627
v -66.39559 19.49438 -67.04578
v -62.939 7.552902 -63.56987
v -61.69291 10.48199 -62.36997
v -63.99979 20.0522 -64.69617
v -53.1413 3.296799 -53.80366
v -53.09461 6.698196 -53.80317
v -50.75331 3.26619 -56.20678
v -60.5607 7.531799 -65.98277
v -59.31461 10.46079 -64.78278
v -50.70651 6.667686 -56.20627
v -64.02261 19.4995 -69.46397
v -61.6268 20.05729 -67.11427
v -64.02261 19.4995 -69.46397
v -66.39559 19.49438 -67.04578
v -63.99979 20.0522 -64.69617
v -61.6268 20.05729 -67.11427
v -60.51749 19.64559 -76.32657
v -58.1473 19.65068 -78.74757
v -54.2567 7.682892 -74.83758
v -56.6328 7.704094 -72.42258
v -57.82859 20.20339 -73.68388
v -55.2356 10.63319 -71.07168
v -52.8595 10.612 -73.48657
v -55.45839 20.20849 -76.10487
v -45.57741 6.849411 -61.445
v -43.1903 6.818916 -63.84898
v -60.51749 19.64559 -76.32657
v -56.6328 7.704094 -72.42258
v -55.2356 10.63319 -71.07168
v -57.82859 20.20339 -73.68388
v -45.62711 3.448006 -61.44839
v -45.57741 6.849411 -61.445
v -43.2399 3.417389 -63.8524
v -54.2567 7.682892 -74.83758
v -52.8595 10.612 -73.48657
v -43.1903 6.818916 -63.84898
v -58.1473 19.65068 -78.74757
v -55.45839 20.20849 -76.10487
v -58.1473 19.65068 -78.74757
v -60.51749 19.64559 -76.32657
v -57.82859 20.20339 -73.68388
v -55.45839 20.20849 -76.10487
v -54.64861 21.1574 -87.01947
v -52.283 21.16249 -89.44507
v -47.6755 9.194778 -84.81828
v -50.0481 9.215874 -82.39968
v -51.46971 21.71519 -83.88678
v -48.3984 12.14499 -80.79618
v -46.0258 12.12382 -83.21468
v -49.10411 21.72028 -86.31238
v -36.9679 8.361198 -69.39719
v -34.58231 8.330719 -71.80267
v -54.64861 21.1574 -87.01947
v -50.0481 9.215874 -82.39968
v -48.3984 12.14499 -80.79618
v -51.46971 21.71519 -83.88678
v -37.0224 4.959816 -69.40548
v -36.9679 8.361198 -69.39719
v -34.63681 4.929214 -71.81097
v -47.6755 9.194778 -84.81828
v -46.0258 12.12382 -83.21468
v -34.58231 8.330719 -71.80267
v -52.283 21.16249 -89.44507
v -49.10411 21.72028 -86.31238
v -52.283 21.16249 -89.44507
v -54.64861 21.1574 -87.01947
v -51.46971 21.71519 -83.88678
v -49.10411 21.72028 -86.31238
v -4.575201 138.5649 -16.53541
v -3.646701 139.1838 -17.0714
v -5.5036 139.1838 -15.9993
v -4.575201 137.327 -16.5354
v -3.646701 139.1838 -17.0714
v -24.9193 139.2301 -53.8855
v -26.8622 139.216 -52.9788
v -5.5036 139.1838 -15.9993
v -5.5036 139.1838 -15.9993
v -26.8622 139.216 -52.9788
v -25.7617 137.3874 -53.1842
v -4.575201 137.327 -16.5354
v -4.575201 137.327 -16.5354
v -25.7617 137.3874 -53.1842
v -24.9193 139.2301 -53.8855
v -3.646701 139.1838 -17.0714
v -42.43881 124.2677 -84.27359
v -44.4787 124.1807 -83.61909
v -44.4787 124.1807 -83.61909
v -43.18421 122.4978 -83.32009
v -43.18421 122.4978 -83.32009
v -42.43881 124.2677 -84.27359
v -43.36721 123.6487 -83.73759
v -44.4787 124.1807 -83.61909
v -42.43881 124.2677 -84.27359
v -43.18421 122.4978 -83.32009
v -11.9163 153.7937 -10.2444
v -85.76479 162.3652 -10.2444
v -11.9163 162.3652 -10.2444
v -85.76479 153.7937 -10.2444
v -11.9163 153.7937 0.612901
v -85.76479 162.3652 0.612904
v -85.76479 153.7937 0.612908
v -11.9163 162.3652 0.612897
v -11.9163 153.7937 -10.2444
v -85.76479 153.7937 0.612908
v -85.76479 153.7937 -10.2444
v -11.9163 153.7937 0.612901
v -85.76479 153.7937 -10.2444
v -85.76479 162.3652 0.612904
v -85.76479 162.3652 -10.2444
v -85.76479 153.7937 0.612908
v -85.76479 162.3652 -10.2444
v -11.9163 162.3652 0.612897
v -11.9163 162.3652 -10.2444
v -85.76479 162.3652 0.612904
v -12.5595 192.9929 -18.62291
v -10.6221 204.076 -3.34431
v -13.0909 199.5816 -20.11761
v -7.893401 182.4673 -18.39811
v -9.411302 189.1285 -15.85171
v -6.657102 191.2535 -25.11461
v 10.4277 204.076 -3.344302
v 12.3651 192.9929 -18.62291
v 12.8965 199.5816 -20.11761
v 9.216898 189.1285 -15.85171
v 6.462697 191.2535 -25.1146
v 12.3651 192.9929 -18.62291
v -7.893399 189.9831 -2.761615
v -9.411302 189.1285 -15.85171
v -0.0972 182.0825 -5.544208
v -0.0972 189.9779 1.041791
v -0.097202 179.2144 -21.31761
v -0.0972 182.0825 -5.544208
v 7.698998 182.4673 -18.39811
v 7.699 189.9831 -2.761607
v 9.216898 189.1285 -15.85171
v -0.097202 190.7438 -27.01671
v -12.5595 192.9929 -18.62291
v -9.7531 197.9173 -26.32901
v -13.0909 199.5816 -20.11761
v 9.558698 197.9173 -26.329
v 12.8965 199.5816 -20.11761
v -0.097202 196.8908 -30.15981
v -0.0972 205.1024 0.486485
v 89.1516 167.3627 -1.199813
v 58.42069 171.1575 -3.533607
v 58.4207 171.1575 0.137692
v 89.1516 167.3627 -5.301517
v 27.6898 171.1575 -5.301509
v 27.6898 171.1575 -1.199805
v 89.1516 163.2084 -1.199813
v 58.4207 171.1575 0.137692
v 58.42069 167.0033 0.137689
v 89.1516 167.3627 -1.199813
v 27.6898 171.1575 -1.199805
v 27.6898 167.0033 -1.199809
v 27.6898 167.0033 -5.301513
v 58.42069 171.1575 -3.533607
v 58.42069 167.0033 -3.53361
v 27.6898 171.1575 -5.301509
v 89.1516 167.3627 -5.301517
v 89.1516 163.2084 -5.301517
v 89.1516 163.2084 -5.301517
v 89.1516 167.3627 -1.199813
v 89.1516 163.2084 -1.199813
v 89.1516 167.3627 -5.301517
v 89.1516 167.3627 -5.301517
v 58.4207 171.1575 -11.37011
v 58.42069 171.1575 -7.698909
v 89.1516 167.3627 -9.40322
v 27.6898 171.1575 -9.403213
v 27.6898 171.1575 -5.301509
v 89.1516 163.2084 -5.301517
v 58.42069 171.1575 -7.698909
v 58.42069 167.0033 -7.698905
v 89.1516 167.3627 -5.301517
v 27.6898 171.1575 -5.301509
v 27.6898 167.0033 -5.301513
v 27.6898 167.0033 -9.403205
v 58.4207 171.1575 -11.37011
v 58.4207 167.0033 -11.37011
v 27.6898 171.1575 -9.403213
v 89.1516 167.3627 -9.40322
v 89.1516 163.2084 -9.403216
v 89.1516 163.2084 -9.403216
v 89.1516 167.3627 -5.301517
v 89.1516 163.2084 -5.301517
v 89.1516 167.3627 -9.40322
v 98.31449 147.7843 -10.13211
v 93.51189 156.5921 -12.29091
v 97.0589 147.7843 -13.58191
v 94.76749 156.5921 -8.841109
v 87.97099 163.6193 -10.27421
v 89.22659 163.6193 -6.824313
v 100.4973 149.7334 -10.92661
v 95.69469 158.5412 -13.08541
v 96.95031 158.5412 -9.635612
v 99.24168 149.7334 -14.37641
v 90.15379 165.5684 -11.06871
v 91.40939 165.5684 -7.618812
v 98.31449 147.7843 -10.13211
v 96.95031 158.5412 -9.635612
v 94.76749 156.5921 -8.841109
v 100.4973 149.7334 -10.92661
v 91.40939 165.5684 -7.618812
v 89.22659 163.6193 -6.824313
v 87.97099 163.6193 -10.27421
v 95.69469 158.5412 -13.08541
v 93.51189 156.5921 -12.29091
v 90.15379 165.5684 -11.06871
v 99.24168 149.7334 -14.37641
v 97.0589 147.7843 -13.58191
v 101.795 150.6418 -2.92731
v 95.86939 158.1724 -6.59851
v 101.795 150.6418 -6.598512
v 95.86939 158.1724 -2.927314
v 88.35489 163.4341 -6.598517
v 88.35489 163.4341 -2.927318
v 103.5342 153.1257 -2.92731
v 97.60859 160.6564 -6.598514
v 97.60859 160.6564 -2.92731
v 103.5342 153.1257 -6.598514
v 90.09419 165.918 -6.598514
v 90.09419 165.918 -2.927314
v 101.795 150.6418 -2.92731
v 97.60859 160.6564 -2.92731
v 95.86939 158.1724 -2.927314
v 103.5342 153.1257 -2.92731
v 90.09419 165.918 -2.927314
v 88.35489 163.4341 -2.927318
v 88.35489 163.4341 -6.598517
v 97.60859 160.6564 -6.598514
v 95.86939 158.1724 -6.59851
v 90.09419 165.918 -6.598514
v 103.5342 153.1257 -6.598514
v 101.795 150.6418 -6.598512
v 97.88979 148.8531 3.739888
v 94.49559 156.9946 -1.503913
v 98.80759 148.6072 0.193791
v 93.57777 157.2405 2.042188
v 88.27049 163.4111 -3.560111
v 87.35269 163.657 -0.013911
v 99.98399 151.0107 4.132287
v 96.58978 159.1521 -1.11151
v 95.67199 159.398 2.43459
v 100.9018 150.7647 0.586186
v 90.36469 165.5686 -3.167716
v 89.44689 165.8146 0.37848
v 97.88979 148.8531 3.739888
v 95.67199 159.398 2.43459
v 93.57777 157.2405 2.042188
v 99.98399 151.0107 4.132287
v 89.44689 165.8146 0.37848
v 87.35269 163.657 -0.013911
v 88.27049 163.4111 -3.560111
v 96.58978 159.1521 -1.11151
v 94.49559 156.9946 -1.503913
v 90.36469 165.5686 -3.167716
v 100.9018 150.7647 0.586186
v 98.80759 148.6072 0.193791
v 12.2805 153.7937 -10.24441
v 12.2805 162.3652 -10.24441
v 86.12901 162.3652 -10.24441
v 86.12901 153.7937 -10.24441
v 12.2805 153.7937 0.612893
v 86.12901 153.7937 0.612885
v 86.12901 162.3652 0.612885
v 12.2805 162.3652 0.612893
v 12.2805 153.7937 -10.24441
v 86.12901 153.7937 -10.24441
v 86.12901 153.7937 0.612885
v 12.2805 153.7937 0.612893
v 86.12901 153.7937 -10.24441
v 86.12901 162.3652 -10.24441
v 86.12901 162.3652 0.612885
v 86.12901 153.7937 0.612885
v 86.12901 162.3652 -10.24441
v 12.2805 162.3652 -10.24441
v 12.2805 162.3652 0.612893
v 86.12901 162.3652 0.612885
v -88.86179 167.3627 -1.199798
v -58.13079 171.1575 0.137593
v -58.1308 171.1575 -3.533603
v -88.86179 167.3627 -5.301497
v -27.3999 171.1575 -1.199805
v -27.39989 171.1575 -5.301501
v -88.86179 163.2084 -1.199798
v -58.1308 167.0033 0.137593
v -58.13079 171.1575 0.137593
v -88.86179 167.3627 -1.199798
v -27.3999 167.0033 -1.199809
v -27.3999 171.1575 -1.199805
v -27.39989 167.0033 -5.301509
v -58.1308 167.0033 -3.533607
v -58.1308 171.1575 -3.533603
v -27.39989 171.1575 -5.301501
v -88.86179 163.2084 -5.301497
v -88.86179 167.3627 -5.301497
v -88.86179 163.2084 -5.301497
v -88.86179 163.2084 -1.199798
v -88.86179 167.3627 -1.199798
v -88.86179 167.3627 -5.301497
v -88.86179 167.3627 -5.301497
v -58.1308 171.1575 -7.698905
v -58.13079 171.1575 -11.37021
v -88.86179 167.3627 -9.403201
v -27.39989 171.1575 -5.301501
v -27.3999 171.1575 -9.403205
v -88.86179 163.2084 -5.301497
v -58.1308 167.0033 -7.698905
v -58.1308 171.1575 -7.698905
v -88.86179 167.3627 -5.301497
v -27.39989 167.0033 -5.301509
v -27.39989 171.1575 -5.301501
v -27.3999 167.0033 -9.403205
v -58.13079 167.0033 -11.3702
v -58.13079 171.1575 -11.37021
v -27.3999 171.1575 -9.403205
v -88.86179 163.2084 -9.403197
v -88.86179 167.3627 -9.403201
v -88.86179 163.2084 -9.403197
v -88.86179 163.2084 -5.301497
v -88.86179 167.3627 -5.301497
v -88.86179 167.3627 -9.403201
v -98.02467 147.7843 -10.1321
v -96.76911 147.7843 -13.58189
v -93.22199 156.5921 -12.2909
v -94.47771 156.5921 -8.841098
v -87.68109 163.6193 -10.2742
v -88.93671 163.6193 -6.824397
v -100.2075 149.7334 -10.92659
v -96.66051 158.5412 -9.635596
v -95.40479 158.5412 -13.0854
v -98.9518 149.7334 -14.3764
v -91.11951 165.5684 -7.618796
v -89.86389 165.5684 -11.0687
v -98.02467 147.7843 -10.1321
v -94.47771 156.5921 -8.841098
v -96.66051 158.5412 -9.635596
v -100.2075 149.7334 -10.92659
v -88.93671 163.6193 -6.824397
v -91.11951 165.5684 -7.618796
v -87.68109 163.6193 -10.2742
v -93.22199 156.5921 -12.2909
v -95.40479 158.5412 -13.0854
v -89.86389 165.5684 -11.0687
v -96.76911 147.7843 -13.58189
v -98.9518 149.7334 -14.3764
v -101.5051 150.6418 -2.927299
v -101.5051 150.6418 -6.598598
v -95.57949 158.1724 -6.598598
v -95.57949 158.1724 -2.927299
v -88.06509 163.4341 -6.598601
v -88.06509 163.4341 -2.927299
v -103.2444 153.1257 -2.927299
v -97.31879 160.6564 -2.927299
v -97.31879 160.6564 -6.598601
v -103.2444 153.1257 -6.598598
v -89.80431 165.918 -2.927295
v -89.80431 165.918 -6.598598
v -101.5051 150.6418 -2.927299
v -95.57949 158.1724 -2.927299
v -97.31879 160.6564 -2.927299
v -103.2444 153.1257 -2.927299
v -88.06509 163.4341 -2.927299
v -89.80431 165.918 -2.927295
v -88.06509 163.4341 -6.598601
v -95.57949 158.1724 -6.598598
v -97.31879 160.6564 -6.598601
v -89.80431 165.918 -6.598598
v -101.5051 150.6418 -6.598598
v -103.2444 153.1257 -6.598598
v -97.59989 148.8531 3.739903
v -98.51779 148.6072 0.193803
v -94.2057 156.9946 -1.503898
v -93.2879 157.2405 2.042203
v -87.98061 163.4111 -3.560096
v -87.06279 163.657 -0.013896
v -99.69419 151.0107 4.132298
v -95.38219 159.398 2.434602
v -96.3 159.1521 -1.111495
v -100.612 150.7647 0.586202
v -89.1571 165.8146 0.378499
v -90.07491 165.5686 -3.167701
v -97.59989 148.8531 3.739903
v -93.2879 157.2405 2.042203
v -95.38219 159.398 2.434602
v -99.69419 151.0107 4.132298
v -87.06279 163.657 -0.013896
v -89.1571 165.8146 0.378499
v -87.98061 163.4111 -3.560096
v -94.2057 156.9946 -1.503898
v -96.3 159.1521 -1.111495
v -90.07491 165.5686 -3.167701
v -98.51779 148.6072 0.193803
v -100.612 150.7647 0.586202
v -10.2287 214.6731 -5.865709
v -13.3665 217.8554 -18.73951
v -17.585 206.3776 -15.51451
v -13.5036 209.3572 -1.918508
v -11.2863 208.6756 -28.59411
v -14.7688 202.1818 -29.11061
v -17.585 206.3776 -15.51451
v -13.3665 217.8554 -18.73951
v 9.212698 205.061 -28.59411
v 14.3071 212.9758 -18.73951
v 14.3456 200.7474 -15.51451
v 10.2642 197.7678 -29.11061
v 10.2702 211.0586 -5.86571
v 11.5294 204.9432 -1.918509
v 14.3456 200.7474 -15.51451
v 14.3071 212.9758 -18.73951
v -0.227803 211.4564 -34.10551
v -2.467503 198.7541 -33.73651
v 1.313599 220.1978 -20.04071
v 1.1999 219.5531 -3.42211
v 1.313599 220.1978 -20.04071
v -0.7718 208.3708 2.707491
v -15.101 201.9339 -20.11761
v -11.8893 205.9314 -3.344308
v -13.5036 209.3572 -1.918508
v -13.5036 209.3572 -1.918508
v -17.585 206.3776 -15.51451
v -15.101 201.9339 -20.11761
v -12.1029 199.7153 -26.32901
v -15.101 201.9339 -20.11761
v -17.585 206.3776 -15.51451
v -17.585 206.3776 -15.51451
v -14.7688 202.1818 -29.11061
v -12.1029 199.7153 -26.32901
v 8.840799 202.2761 -3.34431
v 10.4916 197.4212 -20.11761
v 14.3456 200.7474 -15.51451
v 14.3456 200.7474 -15.51451
v 11.5294 204.9432 -1.918509
v 8.840799 202.2761 -3.34431
v 10.4916 197.4212 -20.11761
v 6.915501 196.3618 -26.32901
v 10.2642 197.7678 -29.11061
v 10.2642 197.7678 -29.11061
v 14.3456 200.7474 -15.51451
v 10.4916 197.4212 -20.11761
v -2.772002 197.0277 -30.15981
v -12.1029 199.7153 -26.32901
v -14.7688 202.1818 -29.11061
v -14.7688 202.1818 -29.11061
v -2.467503 198.7541 -33.73651
v -2.772002 197.0277 -30.15981
v 6.915501 196.3618 -26.32901
v -2.772002 197.0277 -30.15981
v -2.467503 198.7541 -33.73651
v -2.467503 198.7541 -33.73651
v 10.2642 197.7678 -29.11061
v 6.915501 196.3618 -26.32901
v -11.8893 205.9314 -3.344308
v -1.346 205.1146 0.486491
v -0.7718 208.3708 2.707491
v -13.5036 209.3572 -1.918508
v -1.346 205.1146 0.486491
v 8.840799 202.2761 -3.34431
v 11.5294 204.9432 -1.918509
v 11.5294 204.9432 -1.918509
v -0.7718 208.3708 2.707491
v -1.346 205.1146 0.486491
v -10.9187 209.732 -12.41981
v -26.26401 209.6738 -13.48771
v -13.337 202.2848 -10.34221
v -20.6267 213.9956 -14.89051
v -27.6076 224.2687 -20.54431
v -13.337 202.2848 -10.34221
v -26.5477 208.0647 -19.58541
v -13.7767 199.7908 -19.79361
v -26.26401 209.6738 -13.48771
v -27.6076 224.2687 -20.54431
v -13.7767 199.7908 -19.79361
v -20.9104 212.3865 -20.98811
v -11.3585 207.238 -21.87121
v -26.5477 208.0647 -19.58541
v -27.6076 224.2687 -20.54431
v -11.3585 207.238 -21.87121
v -20.6267 213.9956 -14.89051
v -10.9187 209.732 -12.41981
v -20.9104 212.3865 -20.98811
v -27.6076 224.2687 -20.54431
v 9.551299 206.1226 -12.41981
v 9.276601 198.2974 -10.34221
v 23.9512 200.8195 -13.48771
v 20.132 206.8087 -14.89051
v 30.2055 214.0747 -20.54421
v 9.276601 198.2974 -10.34221
v 8.8368 195.8034 -19.79361
v 23.6675 199.2104 -19.58541
v 23.9512 200.8195 -13.48771
v 30.2055 214.0747 -20.54421
v 8.8368 195.8034 -19.79361
v 9.111498 203.6286 -21.87121
v 19.8482 205.1997 -20.98811
v 23.6675 199.2104 -19.58541
v 30.2055 214.0747 -20.54421
v 9.111498 203.6286 -21.87121
v 9.551299 206.1226 -12.41981
v 20.132 206.8087 -14.89051
v 19.8482 205.1997 -20.98811
v 30.2055 214.0747 -20.54421
vn 0.093896 0.992459 -0.078797
vn 0.031299 0.999164 -0.026299
vn 0.062703 0.996645 -0.052603
vn 0.093896 0.992459 -0.078797
vn -0 1 -0
vn -0 1 -0
vn -0.608875 0 -0.793267
vn -0.653833 -0 -0.756639
vn -0.631597 -0 -0.775297
vn -0.608875 0 -0.793267
vn -0.67548 -0 -0.737378
vn -0.67548 -0 -0.737378
vn 0.685692 0 0.727892
vn 0.628007 0 0.778208
vn 0.657371 0 0.753567
vn 0.685692 0 0.727892
vn 0.59771 0 0.801713
vn 0.59771 0 0.801713
vn 0.76602 -0 -0.642817
vn 0.76602 -0 -0.642817
vn 0.76602 -0 -0.642817
vn 0.76602 -0 -0.642817
vn 0.093896 0.992459 -0.078797
vn 0.031299 0.999164 -0.026299
vn 0.062703 0.996645 -0.052603
vn 0.093896 0.992459 -0.078797
vn -0 1 -0
vn -0 1 -0
vn -0.700425 -0 -0.713726
vn -0.622681 -0 -0.782476
vn -0.662481 -0 -0.749079
vn -0.700425 -0 -0.713726
vn -0.581295 0 -0.813693
vn -0.581295 0 -0.813693
vn 0.592534 0 0.805546
vn 0.658972 0 0.752168
vn 0.626291 0 0.779589
vn 0.592534 0 0.805546
vn 0.690414 0 0.723415
vn 0.690414 0 0.723415
vn 0.76602 -0 -0.642817
vn 0.76602 -0 -0.642817
vn 0.76602 -0 -0.642817
vn 0.76602 -0 -0.642817
vn 0.318203 -0.930408 0.181902
vn 0.318203 -0.930408 0.181902
vn 0.318203 -0.930408 0.181902
vn 0.318203 -0.930408 0.181902
vn 0.545711 0.336107 0.767615
vn 0.803609 0.532306 0.266203
vn -0.768905 -0.135201 0.624904
vn -0.943879 -0.293293 0.151897
vn -0.943879 -0.293293 0.151897
vn -0.768905 -0.135201 0.624904
vn -0.031802 -0.407519 -0.912643
vn 0.3925 -0.044 -0.918699
vn 0.3925 -0.044 -0.918699
vn -0.031802 -0.407519 -0.912643
vn 0.803609 0.532306 0.266203
vn 0.545711 0.336107 0.767615
vn 0.944918 0.276405 -0.175303
vn -0.48011 0.365107 0.797616
vn -0.48011 0.365107 0.797616
vn -0.455314 -0.636619 -0.622419
vn -0.455314 -0.636619 -0.622419
vn 0.944918 0.276405 -0.175303
vn -0.121205 0.824637 -0.552525
vn -0.121205 0.824637 -0.552525
vn -0.121205 0.824637 -0.552525
vn -0.121205 0.824637 -0.552525
vn 0.1596 -0.883601 0.440201
vn 0.1596 -0.883601 0.440201
vn 0.152208 -0.923649 0.351719
vn 0.143298 -0.955189 0.258997
vn 0.133005 -0.977334 0.164706
vn 0.133005 -0.977334 0.164706
vn -0.1596 0.883601 -0.440201
vn -0.1432 0.955203 -0.259001
vn -0.152208 0.923649 -0.351719
vn -0.1596 0.883601 -0.440201
vn -0.133005 0.977334 -0.164706
vn -0.133005 0.977334 -0.164706
vn -0.984813 -0.111601 0.133002
vn -0.984813 -0.111601 0.133002
vn -0.984813 -0.111601 0.133002
vn -0.984813 -0.111601 0.133002
vn -0.984813 -0.111601 0.133002
vn -0.984813 -0.111601 0.133002
vn 0.111604 0.179906 0.977332
vn 0.111604 0.179906 0.977332
vn 0.111604 0.179906 0.977332
vn 0.111604 0.179906 0.977332
vn 0.984813 0.111601 -0.133002
vn 0.984813 0.111601 -0.133002
vn 0.984813 0.111601 -0.133002
vn 0.984813 0.111601 -0.133002
vn 0.984813 0.111601 -0.133002
vn 0.984813 0.111601 -0.133002
vn -0.111604 -0.179906 -0.977332
vn -0.111604 -0.179906 -0.977332
vn -0.111604 -0.179906 -0.977332
vn -0.111604 -0.179906 -0.977332
vn -0.392899 0.911197 -0.1239
vn -0.325305 0.943914 0.056601
vn -0.361013 0.931934 -0.034201
vn -0.392899 0.911197 -0.1239
vn -0.2868 0.9468 0.146
vn -0.2868 0.9468 0.146
vn -0.866025 -0.321409 0.383011
vn -0.866025 -0.321409 0.383011
vn -0.866025 -0.321409 0.383011
vn -0.866025 -0.321409 0.383011
vn -0.866025 -0.321409 0.383011
vn -0.866025 -0.321409 0.383011
vn 0.409605 -0.0166 0.912112
vn 0.409605 -0.0166 0.912112
vn 0.409605 -0.0166 0.912112
vn 0.409605 -0.0166 0.912112
vn 0.866025 0.321409 -0.383011
vn 0.866025 0.321409 -0.383011
vn 0.866025 0.321409 -0.383011
vn 0.866025 0.321409 -0.383011
vn 0.866025 0.321409 -0.383011
vn 0.866025 0.321409 -0.383011
vn -0.409605 0.0166 -0.912112
vn -0.409605 0.0166 -0.912112
vn -0.409605 0.0166 -0.912112
vn -0.409605 0.0166 -0.912112
vn -0 0 -1
vn -0 0 -1
vn -0 0 -1
vn -0 0 -1
vn 0 0 1
vn 0 0 1
vn 0 0 1
vn 0 0 1
vn 1 -0 -0
vn 1 -0 -0
vn 1 -0 -0
vn 1 -0 -0
vn -1 0 0
vn -1 0 0
vn -1 0 0
vn -1 0 0
vn -0.0014 0.999938 -0.0111
vn -0.076704 0.994952 0.064703
vn -0.038999 0.99888 0.026799
vn -0.0014 0.999938 -0.0111
vn -0.114099 0.988189 0.102299
vn -0.114099 0.988189 0.102299
vn 0.706222 0.0099 0.707922
vn 0.707122 0.0099 0.707022
vn 0.706672 0.0099 0.707472
vn 0.706222 0.0099 0.707922
vn 0.707572 0.0099 0.706572
vn 0.707572 0.0099 0.706572
vn 0.705434 -0.0077 -0.708734
vn 0.705434 -0.0077 -0.708734
vn 0.705434 -0.0077 -0.708734
vn 0.705434 -0.0077 -0.708734
vn -0.707572 -0.0099 -0.706572
vn -0.706672 -0.0099 -0.707472
vn -0.707122 -0.0099 -0.707022
vn -0.707572 -0.0099 -0.706572
vn -0.706222 -0.0099 -0.707922
vn -0.706222 -0.0099 -0.707922
vn -0.705434 0.0077 0.708734
vn -0.705434 0.0077 0.708734
vn -0.705434 0.0077 0.708734
vn -0.705434 0.0077 0.708734
vn -0.635701 0.4142 -0.651401
vn -0.52301 0.660412 -0.53881
vn -0.346609 0.865423 -0.36181
vn -0.635903 0.414202 -0.651203
vn -0.155107 0.973541 -0.167807
vn -0.154496 0.973572 -0.168195
vn -0.71213 0.0049 0.70203
vn -0.711232 0.0061 0.702931
vn -0.710477 0.0078 0.703677
vn -0.711883 0.0045 0.702284
vn -0.709474 0.009 0.704674
vn -0.70952 0.0096 0.70462
vn 0.709473 -0.0091 -0.704674
vn 0.710528 -0.0077 -0.703627
vn 0.711281 -0.0061 -0.702881
vn 0.70962 -0.0096 -0.70452
vn 0.71223 -0.0049 -0.701929
vn 0.711833 -0.0048 -0.702333
vn 0.085499 0.992283 0.089798
vn 0.085499 0.992283 0.089798
vn 0.085499 0.992283 0.089798
vn 0.085499 0.992283 0.089798
vn -0.65321 0.358906 -0.666711
vn -0.548316 0.618718 -0.562617
vn -0.374921 0.841346 -0.389321
vn -0.653392 0.358796 -0.666592
vn -0.1829 0.963498 -0.1955
vn -0.182191 0.963553 -0.195891
vn -0.713023 0.0049 0.701123
vn -0.711977 0.0061 0.702177
vn -0.711074 0.0078 0.703074
vn -0.712727 0.0045 0.701427
vn -0.709922 0.009 0.704222
vn -0.709918 0.0096 0.704219
vn 0.709922 -0.0091 -0.704222
vn 0.711174 -0.0077 -0.702974
vn 0.712027 -0.0061 -0.702126
vn 0.710118 -0.0096 -0.704018
vn 0.713172 -0.0049 -0.700972
vn 0.712676 -0.0048 -0.701477
vn 0.101304 0.989235 0.105604
vn 0.101304 0.989235 0.105604
vn 0.101304 0.989235 0.105604
vn 0.101304 0.989235 0.105604
vn -0.662886 0.323793 -0.675086
vn -0.564084 0.590383 -0.577284
vn -0.394803 0.822906 -0.408603
vn -0.663008 0.323704 -0.675008
vn -0.2043 0.954599 -0.2168
vn -0.203707 0.954633 -0.217208
vn -0.713766 0.0049 0.700367
vn -0.712622 0.0061 0.701522
vn -0.711571 0.0078 0.702571
vn -0.713421 0.0045 0.700721
vn -0.710271 0.009 0.703871
vn -0.710317 0.0096 0.703817
vn 0.71027 -0.0091 -0.703871
vn 0.711671 -0.0077 -0.702471
vn 0.712622 -0.0061 -0.701522
vn 0.710466 -0.0096 -0.703666
vn 0.713915 -0.0049 -0.700215
vn 0.71342 -0.0048 -0.70072
vn 0.113795 0.98646 0.118095
vn 0.113795 0.98646 0.118095
vn 0.113795 0.98646 0.118095
vn 0.113795 0.98646 0.118095
vn -0.660202 -0.379601 -0.648102
vn -0.65993 -0.379517 -0.648429
vn -0.660202 -0.379601 -0.648102
vn -0.660517 -0.37971 -0.647717
vn 0.675086 0.323793 0.662886
vn 0.408603 0.822906 0.394803
vn 0.577284 0.590383 0.564084
vn 0.675008 0.323704 0.663008
vn 0.217208 0.954633 0.203707
vn 0.2168 0.954599 0.2043
vn -0.700367 0.0049 0.713766
vn -0.702571 0.0078 0.711571
vn -0.701522 0.0061 0.712622
vn -0.700721 0.0045 0.713421
vn -0.703817 0.0096 0.710317
vn -0.703871 0.009 0.710271
vn 0.70387 -0.0091 -0.71027
vn 0.701522 -0.0061 -0.712622
vn 0.702471 -0.0077 -0.711671
vn 0.703666 -0.0096 -0.710466
vn 0.70072 -0.0048 -0.71342
vn 0.700215 -0.0049 -0.713915
vn -0.118095 0.98646 -0.113796
vn -0.118095 0.98646 -0.113796
vn -0.118095 0.98646 -0.113796
vn -0.118095 0.98646 -0.113796
vn -0.648805 -0.418703 -0.635405
vn -0.648521 -0.418513 -0.63582
vn -0.648805 -0.418703 -0.635405
vn -0.649117 -0.418811 -0.635016
vn 0.666711 0.358906 0.65321
vn 0.389321 0.841346 0.37492
vn 0.562617 0.618718 0.548316
vn 0.666592 0.358796 0.653392
vn 0.19589 0.963553 0.182191
vn 0.1955 0.963498 0.182899
vn -0.701123 0.0049 0.713024
vn -0.703074 0.0078 0.711074
vn -0.702177 0.0061 0.711977
vn -0.701427 0.0045 0.712727
vn -0.704218 0.0096 0.709919
vn -0.704222 0.009 0.709923
vn 0.704222 -0.0091 -0.709922
vn 0.702126 -0.0061 -0.712027
vn 0.702974 -0.0077 -0.711174
vn 0.704018 -0.0096 -0.710118
vn 0.701477 -0.0048 -0.712676
vn 0.700972 -0.0049 -0.713172
vn -0.105604 0.989235 -0.101304
vn -0.105604 0.989235 -0.101304
vn -0.105604 0.989235 -0.101304
vn -0.105604 0.989235 -0.101304
vn -0.628309 -0.479007 -0.613009
vn -0.628004 -0.478903 -0.613403
vn -0.628309 -0.479007 -0.613009
vn -0.628684 -0.479188 -0.612484
vn 0.651401 0.414201 0.635701
vn 0.361809 0.865423 0.346609
vn 0.53881 0.660413 0.52301
vn 0.651203 0.414202 0.635903
vn 0.168195 0.973572 0.154495
vn 0.167807 0.973541 0.155107
vn -0.70203 0.0049 0.712131
vn -0.703677 0.0078 0.710477
vn -0.702931 0.0061 0.711232
vn -0.702283 0.0045 0.711883
vn -0.70462 0.0096 0.70952
vn -0.704674 0.009 0.709474
vn 0.704673 -0.0091 -0.709473
vn 0.702881 -0.0061 -0.711281
vn 0.703627 -0.0077 -0.710528
vn 0.70452 -0.0096 -0.70962
vn 0.702333 -0.0048 -0.711833
vn 0.701929 -0.0049 -0.71223
vn -0.089799 0.992283 -0.085499
vn -0.089799 0.992283 -0.085499
vn -0.089799 0.992283 -0.085499
vn -0.089799 0.992283 -0.085499
vn 0.500011 0 0.866019
vn 0.500011 0 0.866019
vn 0.500011 0 0.866019
vn 0.500011 0 0.866019
vn 0.43079 0.86768 -0.248094
vn 0.661516 0.446511 -0.602515
vn -0.747706 0.509704 0.425603
vn -0.865951 0 0.500129
vn -0.865951 0 0.500129
vn -0.747706 0.509704 0.425603
vn 0.092101 -0.979105 0.181301
vn 0.429804 -0.867708 -0.249702
vn 0.429804 -0.867708 -0.249702
vn 0.092101 -0.979105 0.181301
vn 0.661516 0.446511 -0.602515
vn 0.43079 0.86768 -0.248094
vn 0.871493 -0.0264 -0.489696
vn -0.578391 0.812987 -0.067199
vn -0.578391 0.812987 -0.067199
vn -0.284805 -0.784815 0.550411
vn -0.284805 -0.784815 0.550411
vn 0.871493 -0.0264 -0.489696
vn -0.270206 -0.366008 -0.890521
vn -0.270206 -0.366008 -0.890521
vn -0.270206 -0.366008 -0.890521
vn -0.270206 -0.366008 -0.890521
vn -0 0 -1
vn -0 0 -1
vn -0 0 -1
vn -0 0 -1
vn 0 0 1
vn 0 0 1
vn 0 0 1
vn 0 0 1
vn 0 -1 0
vn 0 -1 0
vn 0 -1 0
vn 0 -1 0
vn -1 0 0
vn -1 0 0
vn -1 0 0
vn -1 0 0
vn -0 1 -0
vn -0 1 -0
vn -0 1 -0
vn -0 1 -0
vn -0.910024 -0.38911 -0.143004
vn -0.770532 -0.065503 0.634027
vn -0.983261 -0.111896 -0.143794
vn -0.798381 -0.589686 -0.121897
vn -0.839791 -0.542594 0.0185
vn -0.565003 -0.452402 -0.690003
vn 0.770532 -0.065503 0.634027
vn 0.910024 -0.38911 -0.143004
vn 0.983261 -0.111896 -0.143794
vn 0.839791 -0.542594 0.0185
vn 0.565003 -0.452402 -0.690003
vn 0.910024 -0.38911 -0.143004
vn -0.734614 -0.478309 0.481209
vn -0.839791 -0.542594 0.0185
vn 0 -0.868784 0.495191
vn 0 -0.233301 0.972405
vn -0 -0.79262 -0.609716
vn 0 -0.868784 0.495191
vn 0.798381 -0.589686 -0.121897
vn 0.734614 -0.478309 0.481209
vn 0.839791 -0.542594 0.0185
vn -0 -0.449213 -0.893425
vn -0.910024 -0.38911 -0.143004
vn -0.694133 -0.327115 -0.64123
vn -0.983261 -0.111896 -0.143794
vn 0.694132 -0.327115 -0.64123
vn 0.983261 -0.111896 -0.143794
vn -0 -0.408892 -0.912583
vn 0 0.036701 0.999326
vn 0.122595 0.992457 -0
vn 0.081804 0.996649 -0
vn 0.040898 0.999163 -0
vn 0.122595 0.992457 -0
vn -0 1 -0
vn -0 1 -0
vn 0.043498 0 0.999054
vn 0.0145 0 0.999895
vn -0.0145 0 0.999895
vn 0.043498 0 0.999054
vn -0.043498 0 0.999054
vn -0.043498 0 0.999054
vn 0.057403 -0 -0.998351
vn 0.0192 -0 -0.999816
vn -0.0192 -0 -0.999816
vn 0.057403 -0 -0.998351
vn -0.057403 0 -0.998351
vn -0.057403 0 -0.998351
vn 1 -0 -0
vn 1 -0 -0
vn 1 -0 -0
vn 1 -0 -0
vn 0.122595 0.992457 -0
vn 0.081804 0.996649 -0
vn 0.040898 0.999163 -0
vn 0.122595 0.992457 -0
vn -0 1 -0
vn -0 1 -0
vn -0.077798 0 0.996969
vn -0.025999 0 0.999662
vn 0.025999 0 0.999662
vn -0.077798 0 0.996969
vn 0.077798 0 0.996969
vn 0.077798 0 0.996969
vn -0.063897 -0 -0.997957
vn -0.0213 0 -0.999773
vn 0.021299 0 -0.999773
vn -0.063897 -0 -0.997957
vn 0.063897 -0 -0.997957
vn 0.063897 -0 -0.997957
vn 1 -0 -0
vn 1 -0 -0
vn 1 -0 -0
vn 1 -0 -0
vn -0.863708 -0.393904 0.314403
vn -0.823584 -0.481491 0.299794
vn -0.863708 -0.393904 0.314403
vn -0.775213 -0.565209 0.282105
vn -0.719819 -0.642817 0.262007
vn -0.719819 -0.642817 0.262007
vn 0.863708 0.393904 -0.314403
vn 0.823584 0.481491 -0.299794
vn 0.775213 0.565209 -0.282105
vn 0.863708 0.393904 -0.314403
vn 0.719819 0.642817 -0.262007
vn 0.719819 0.642817 -0.262007
vn 0.342 0 0.9397
vn 0.342 0 0.9397
vn 0.342 0 0.9397
vn 0.342 0 0.9397
vn 0.342 0 0.9397
vn 0.342 0 0.9397
vn -0.342 -0 -0.9397
vn -0.342 -0 -0.9397
vn -0.342 -0 -0.9397
vn -0.342 -0 -0.9397
vn -0.342 -0 -0.9397
vn -0.342 -0 -0.9397
vn -0.785878 -0.618382 0
vn -0.721997 -0.691897 0
vn -0.785878 -0.618382 0
vn -0.650503 -0.759504 0
vn -0.57357 -0.819157 0
vn -0.57357 -0.819157 0
vn 0.785878 0.618382 -0
vn 0.721997 0.691897 -0
vn 0.650503 0.759504 -0
vn 0.785878 0.618382 -0
vn 0.57357 0.819157 -0
vn 0.57357 0.819157 -0
vn 0 0 1
vn 0 0 1
vn 0 0 1
vn 0 0 1
vn 0 0 1
vn 0 0 1
vn -0 0 -1
vn -0 0 -1
vn -0 0 -1
vn -0 0 -1
vn -0 0 -1
vn -0 0 -1
vn -0.857336 -0.47892 -0.188708
vn -0.809508 -0.561806 -0.170502
vn -0.857336 -0.47892 -0.188708
vn -0.753393 -0.640094 -0.150598
vn -0.690685 -0.711485 -0.129397
vn -0.690685 -0.711485 -0.129397
vn 0.857336 0.47892 0.188708
vn 0.809508 0.561806 0.170502
vn 0.753393 0.640094 0.150598
vn 0.857336 0.47892 0.188708
vn 0.690685 0.711485 0.129397
vn 0.690685 0.711485 0.129397
vn -0.250006 0.067002 0.965923
vn -0.250006 0.067002 0.965923
vn -0.250006 0.067002 0.965923
vn -0.250006 0.067002 0.965923
vn -0.250006 0.067002 0.965923
vn -0.250006 0.067002 0.965923
vn 0.250006 -0.067002 -0.965923
vn 0.250006 -0.067002 -0.965923
vn 0.250006 -0.067002 -0.965923
vn 0.250006 -0.067002 -0.965923
vn 0.250006 -0.067002 -0.965923
vn 0.250006 -0.067002 -0.965923
vn -0 0 -1
vn -0 0 -1
vn -0 0 -1
vn -0 0 -1
vn 0 0 1
vn 0 0 1
vn 0 0 1
vn 0 0 1
vn 0 -1 0
vn 0 -1 0
vn 0 -1 0
vn 0 -1 0
vn 1 -0 -0
vn 1 -0 -0
vn 1 -0 -0
vn 1 -0 -0
vn -0 1 -0
vn -0 1 -0
vn -0 1 -0
vn -0 1 -0
vn -0.122595 0.992457 -0
vn -0.040898 0.999163 -0
vn -0.081804 0.996649 -0
vn -0.122595 0.992457 -0
vn -0 1 -0
vn -0 1 -0
vn -0.043498 0 0.999054
vn 0.0145 0 0.999895
vn -0.0145 0 0.999895
vn -0.043498 0 0.999054
vn 0.043498 0 0.999054
vn 0.043498 0 0.999054
vn -0.057403 0 -0.998351
vn 0.0192 -0 -0.999816
vn -0.0192 -0 -0.999816
vn -0.057403 0 -0.998351
vn 0.057403 -0 -0.998351
vn 0.057403 -0 -0.998351
vn -1 0 0
vn -1 0 0
vn -1 0 0
vn -1 0 0
vn -0.122595 0.992457 -0
vn -0.040898 0.999163 -0
vn -0.081804 0.996649 -0
vn -0.122595 0.992457 -0
vn -0 1 -0
vn -0 1 -0
vn 0.077798 0 0.996969
vn -0.025999 0 0.999662
vn 0.025999 0 0.999662
vn 0.077798 0 0.996969
vn -0.077798 0 0.996969
vn -0.077798 0 0.996969
vn 0.063897 -0 -0.997957
vn -0.0213 0 -0.999773
vn 0.021299 0 -0.999773
vn 0.063897 -0 -0.997957
vn -0.063897 -0 -0.997957
vn -0.063897 -0 -0.997957
vn -1 0 0
vn -1 0 0
vn -1 0 0
vn -1 0 0
vn 0.863708 -0.393903 0.314403
vn 0.863708 -0.393903 0.314403
vn 0.823584 -0.481491 0.299794
vn 0.775191 -0.565194 0.282197
vn 0.719819 -0.642817 0.262007
vn 0.719819 -0.642817 0.262007
vn -0.863708 0.393903 -0.314403
vn -0.775213 0.565209 -0.282105
vn -0.823584 0.481491 -0.299794
vn -0.863708 0.393903 -0.314403
vn -0.719819 0.642817 -0.262007
vn -0.719819 0.642817 -0.262007
vn -0.342 0 0.9397
vn -0.342 0 0.9397
vn -0.342 0 0.9397
vn -0.342 0 0.9397
vn -0.342 0 0.9397
vn -0.342 0 0.9397
vn 0.342 -0 -0.9397
vn 0.342 -0 -0.9397
vn 0.342 -0 -0.9397
vn 0.342 -0 -0.9397
vn 0.342 -0 -0.9397
vn 0.342 -0 -0.9397
vn 0.785878 -0.618382 0
vn 0.785878 -0.618382 0
vn 0.721997 -0.691897 0
vn 0.650503 -0.759504 0
vn 0.57357 -0.819157 -0
vn 0.57357 -0.819157 -0
vn -0.785878 0.618382 -0
vn -0.650503 0.759504 -0
vn -0.721997 0.691897 -0
vn -0.785878 0.618382 -0
vn -0.57357 0.819157 -0
vn -0.57357 0.819157 -0
vn 0 0 1
vn 0 0 1
vn 0 0 1
vn 0 0 1
vn 0 0 1
vn 0 0 1
vn -0 0 -1
vn -0 0 -1
vn -0 0 -1
vn -0 0 -1
vn -0 0 -1
vn -0 0 -1
vn 0.857336 -0.47892 -0.188708
vn 0.857336 -0.47892 -0.188708
vn 0.809494 -0.561796 -0.170599
vn 0.753393 -0.640094 -0.150599
vn 0.690633 -0.711534 -0.129406
vn 0.690633 -0.711534 -0.129406
vn -0.857336 0.47892 0.188708
vn -0.753393 0.640094 0.150599
vn -0.809508 0.561806 0.170502
vn -0.857295 0.478997 0.188699
vn -0.690633 0.711534 0.129406
vn -0.690685 0.711485 0.129397
vn 0.250006 0.067002 0.965923
vn 0.250006 0.067002 0.965923
vn 0.250006 0.067002 0.965923
vn 0.250006 0.067002 0.965923
vn 0.250006 0.067002 0.965923
vn 0.250006 0.067002 0.965923
vn -0.250006 -0.067002 -0.965923
vn -0.250006 -0.067002 -0.965923
vn -0.250006 -0.067002 -0.965923
vn -0.250006 -0.067002 -0.965923
vn -0.250006 -0.067002 -0.965923
vn -0.250006 -0.067002 -0.965923
vn -0.583506 0.650107 0.486705
vn -0.599514 0.780319 -0.178004
vn -0.894229 0.441315 -0.074802
vn -0.561218 0.687722 0.460515
vn -0.638334 0.339318 -0.690937
vn -0.614723 0.384414 -0.688725
vn -0.894229 0.441315 -0.074802
vn -0.599514 0.780319 -0.178004
vn 0.715909 0.100601 -0.690908
vn 0.830268 0.52818 -0.177993
vn 0.991245 0.108805 -0.074803
vn 0.709124 0.151005 -0.688724
vn 0.770691 0.411295 0.486694
vn 0.762597 0.454298 0.460498
vn 0.991245 0.108805 -0.074803
vn 0.830268 0.52818 -0.177993
vn 0.091901 0.521305 -0.848408
vn 0.014199 0.080397 -0.996662
vn 0.167694 0.951266 -0.258791
vn 0.1533 0.869199 0.470099
vn 0.167694 0.951266 -0.258791
vn 0.098801 0.560404 0.822305
vn -0.819863 -0.501377 0.276488
vn -0.819863 -0.501377 0.276488
vn -0.819863 -0.501377 0.276488
vn -0.624315 -0.702617 0.341408
vn -0.624315 -0.702617 0.341408
vn -0.624315 -0.702617 0.341408
vn -0.908877 -0.085098 -0.40829
vn -0.908877 -0.085098 -0.40829
vn -0.908877 -0.085098 -0.40829
vn -0.714361 -0.696563 0.066996
vn -0.714361 -0.696563 0.066996
vn -0.714361 -0.696563 0.066996
vn 0.401917 -0.868236 0.290912
vn 0.401917 -0.868236 0.290912
vn 0.401917 -0.868236 0.290912
vn 0.560717 -0.751322 0.34801
vn 0.560717 -0.751322 0.34801
vn 0.560717 -0.751322 0.34801
vn 0.354699 -0.933897 -0.045
vn 0.354699 -0.933897 -0.045
vn 0.354699 -0.933897 -0.045
vn 0.683209 -0.72881 -0.045401
vn 0.683209 -0.72881 -0.045401
vn 0.683209 -0.72881 -0.045401
vn -0.393925 -0.841854 -0.368924
vn -0.393925 -0.841854 -0.368924
vn -0.393925 -0.841854 -0.368924
vn -0.388193 -0.816586 -0.427193
vn -0.388193 -0.816586 -0.427193
vn -0.388193 -0.816586 -0.427193
vn 0.106199 -0.898991 -0.424896
vn 0.106199 -0.898991 -0.424896
vn 0.106199 -0.898991 -0.424896
vn 0.068 -0.920994 -0.383597
vn 0.068 -0.920994 -0.383597
vn 0.068 -0.920994 -0.383597
vn -0.330797 -0.491195 0.805792
vn -0.330797 -0.491195 0.805792
vn -0.330797 -0.491195 0.805792
vn -0.330797 -0.491195 0.805792
vn 0.142891 -0.574763 0.805748
vn 0.142891 -0.574763 0.805748
vn 0.142891 -0.574763 0.805748
vn 0.142793 -0.574771 0.80576
vn 0.142793 -0.574771 0.80576
vn 0.142793 -0.574771 0.80576
vn -0.066601 0.336806 0.939216
vn -0.078598 0.366791 0.926977
vn -0.067601 0.288406 0.955119
vn -0.084004 0.405019 0.910441
vn -0.102305 0.42532 0.899242
vn -0.525112 -0.816519 0.239906
vn -0.75463 -0.624925 0.200008
vn -0.525112 -0.816519 0.239906
vn -0.853536 -0.492621 0.169707
vn -0.996142 -0.061503 0.062603
vn -0.159406 -0.182307 -0.970234
vn -0.169804 -0.145203 -0.974722
vn -0.198194 -0.203194 -0.95887
vn -0.155292 -0.115894 -0.981047
vn -0.189703 -0.070401 -0.979314
vn 0.441771 0.862144 -0.248084
vn 0.601426 0.765133 -0.22991
vn 0.441771 0.862144 -0.248084
vn 0.676235 0.703936 -0.217211
vn 0.855949 0.488728 -0.16881
vn 0.177803 0.293705 0.939215
vn 0.162104 0.247907 0.955125
vn 0.199296 0.317793 0.926979
vn 0.217408 0.351913 0.910434
vn 0.241608 0.364712 0.899228
vn 0.214194 -0.946875 0.239894
vn 0.214194 -0.946875 0.239894
vn 0.495412 -0.84532 0.200005
vn 0.63361 -0.754811 0.169703
vn 0.915041 -0.398474 0.062596
vn 0.087404 -0.22581 -0.970243
vn 0.116698 -0.258696 -0.958884
vn 0.109903 -0.194505 -0.974725
vn 0.106295 -0.161992 -0.981051
vn 0.154203 -0.131002 -0.979316
vn -0.120293 0.961241 -0.248085
vn -0.120293 0.961241 -0.248085
vn -0.303495 0.924683 -0.229896
vn -0.394689 0.892775 -0.217194
vn -0.637193 0.751992 -0.168798
vt 0.0081 0.5838
vt 0.4961 0.5838
vt 0.4961 0.7036
vt 0.0081 0.7036
vt 0.984 0.5838
vt 0.984 0.7036
vt 0.0081 0.5838
vt 0.4961 0.5838
vt 0.4961 0.7036
vt 0.0081 0.7036
vt 0.984 0.5838
vt 0.984 0.7036
vt 0.0081 0.5838
vt 0.4961 0.5838
vt 0.4961 0.7036
vt 0.0081 0.7036
vt 0.984 0.5838
vt 0.984 0.7036
vt 0.0081 0.5838
vt 0.984 0.5838
vt 0.984 0.7036
vt 0.0081 0.7036
vt 0.0081 0.5838
vt 0.4961 0.5838
vt 0.4961 0.7036
vt 0.0081 0.7036
vt 0.984 0.5838
vt 0.984 0.7036
vt 0.0081 0.5838
vt 0.4961 0.5838
vt 0.4961 0.7036
vt 0.0081 0.7036
vt 0.984 0.5838
vt 0.984 0.7036
vt 0.0081 0.5838
vt 0.4961 0.5838
vt 0.4961 0.7036
vt 0.0081 0.7036
vt 0.984 0.5838
vt 0.984 0.7036
vt 0.0081 0.5838
vt 0.984 0.5838
vt 0.984 0.7036
vt 0.0081 0.7036
vt 0.6686 0.4958
vt 0.0427 0.4958
vt 0.9815 0.5415
vt 0.9815 0.4501
vt 0.0427 0.4501
vt 0.0378 0.4997
vt 0.9766 0.5
vt 0.9815 0.4501
vt 0.048 0.4501
vt 0.0342 0.5
vt 0.9536 0.4995
vt 0.9815 0.4501
vt 0.0342 0.4501
vt 0.0391 0.4995
vt 0.9779 0.4997
vt 0.973 0.4501
vt 0.0342 0.5423
vt 0.973 0.5428
vt 0.0844 0.5428
vt 0.9305 0.5418
vt 0.0427 0.5418
vt 0.9815 0.5423
vt 0.3556 0.5423
vt 0.0427 0.5428
vt 0.9815 0.5423
vt 0.0427 0.5418
vt 0.984 0.5838
vt 0.984 0.7036
vt 0.4961 0.7036
vt 0.4961 0.5838
vt 0.0081 0.7036
vt 0.0081 0.5838
vt 0.0081 0.5838
vt 0.4961 0.5838
vt 0.4961 0.7036
vt 0.0081 0.7036
vt 0.984 0.5838
vt 0.984 0.7036
vt 0.0081 0.5838
vt 0.4961 0.5838
vt 0.4961 0.7036
vt 0.0081 0.7036
vt 0.984 0.5838
vt 0.984 0.7036
vt 0.0081 0.5838
vt 0.984 0.5838
vt 0.984 0.7036
vt 0.0081 0.7036
vt 0.0081 0.5838
vt 0.4961 0.5838
vt 0.4961 0.7036
vt 0.0081 0.7036
vt 0.984 0.5838
vt 0.984 0.7036
vt 0.0081 0.5838
vt 0.984 0.5838
vt 0.984 0.7036
vt 0.0081 0.7036
vt 0.0081 0.5838
vt 0.4961 0.5838
vt 0.4961 0.7036
vt 0.0081 0.7036
vt 0.984 0.5838
vt 0.984 0.7036
vt 0.0081 0.5838
vt 0.4961 0.5838
vt 0.4961 0.7036
vt 0.0081 0.7036
vt 0.984 0.5838
vt 0.984 0.7036
vt 0.0081 0.5838
vt 0.984 0.5838
vt 0.984 0.7036
vt 0.0081 0.7036
vt 0.0081 0.5838
vt 0.4961 0.5838
vt 0.4961 0.7036
vt 0.0081 0.7036
vt 0.984 0.5838
vt 0.984 0.7036
vt 0.0081 0.5838
vt 0.984 0.5838
vt 0.984 0.7036
vt 0.0081 0.7036
vt 0.9879 0.4413
vt 0.9879 0.5587
vt 0.0002 0.5587
vt 0.0002 0.4413
vt 0.0002 0.4413
vt 0.9879 0.4413
vt 0.9879 0.5587
vt 0.0002 0.5587
vt 0.0002 0.4413
vt 0.9879 0.4413
vt 0.9879 0.5587
vt 0.0002 0.5587
vt 0.0002 0.4413
vt 0.9879 0.4413
vt 0.9879 0.5587
vt 0.0002 0.5587
vt 0.0081 0.5838
vt 0.4961 0.5838
vt 0.4961 0.7036
vt 0.0081 0.7036
vt 0.984 0.5838
vt 0.984 0.7036
vt 0.0081 0.5838
vt 0.4961 0.5838
vt 0.4961 0.7036
vt 0.0081 0.7036
vt 0.984 0.5838
vt 0.984 0.7036
vt 0.0081 0.5838
vt 0.984 0.5838
vt 0.984 0.7036
vt 0.0081 0.7036
vt 0.0081 0.5838
vt 0.4961 0.5838
vt 0.4961 0.7036
vt 0.0081 0.7036
vt 0.984 0.5838
vt 0.984 0.7036
vt 0.0081 0.5838
vt 0.984 0.5838
vt 0.984 0.7036
vt 0.0081 0.7036
vt 0.0081 0.5838
vt 0.4961 0.7036
vt 0.4961 0.5838
vt 0.0081 0.7036
vt 0.984 0.7036
vt 0.984 0.5838
vt 0.0081 0.5838
vt 0.4961 0.7036
vt 0.4961 0.5838
vt 0.0081 0.7036
vt 0.984 0.7036
vt 0.984 0.5838
vt 0.0081 0.5838
vt 0.4961 0.7036
vt 0.4961 0.5838
vt 0.0081 0.7036
vt 0.984 0.7036
vt 0.984 0.5838
vt 0.0081 0.5838
vt 0.984 0.7036
vt 0.984 0.5838
vt 0.0081 0.7036
vt 0.0081 0.5838
vt 0.4961 0.7036
vt 0.4961 0.5838
vt 0.0081 0.7036
vt 0.984 0.7036
vt 0.984 0.5838
vt 0.0081 0.5838
vt 0.4961 0.7036
vt 0.4961 0.5838
vt 0.0081 0.7036
vt 0.984 0.7036
vt 0.984 0.5838
vt 0.0081 0.5838
vt 0.4961 0.7036
vt 0.4961 0.5838
vt 0.0081 0.7036
vt 0.984 0.7036
vt 0.984 0.5838
vt 0.0081 0.5838
vt 0.984 0.7036
vt 0.984 0.5838
vt 0.0081 0.7036
vt 0.0081 0.5838
vt 0.4961 0.7036
vt 0.4961 0.5838
vt 0.0081 0.7036
vt 0.984 0.7036
vt 0.984 0.5838
vt 0.0081 0.5838
vt 0.4961 0.7036
vt 0.4961 0.5838
vt 0.0081 0.7036
vt 0.984 0.7036
vt 0.984 0.5838
vt 0.0081 0.5838
vt 0.4961 0.7036
vt 0.4961 0.5838
vt 0.0081 0.7036
vt 0.984 0.7036
vt 0.984 0.5838
vt 0.0081 0.5838
vt 0.984 0.7036
vt 0.984 0.5838
vt 0.0081 0.7036
vt 0.984 0.5838
vt 0.984 0.7036
vt 0.4961 0.7036
vt 0.4961 0.5838
vt 0.0081 0.5838
vt 0.4961 0.5838
vt 0.4961 0.7036
vt 0.0081 0.7036
vt 0.984 0.5838
vt 0.984 0.7036
vt 0.0081 0.5838
vt 0.4961 0.5838
vt 0.4961 0.7036
vt 0.0081 0.7036
vt 0.984 0.5838
vt 0.984 0.7036
vt 0.0081 0.5838
vt 0.4961 0.5838
vt 0.4961 0.7036
vt 0.0081 0.7036
vt 0.984 0.5838
vt 0.984 0.7036
vt 0.0081 0.5838
vt 0.984 0.5838
vt 0.984 0.7036
vt 0.0081 0.7036
vt 0.984 0.5838
vt 0.984 0.7036
vt 0.4961 0.7036
vt 0.4961 0.5838
vt 0.0081 0.5838
vt 0.4961 0.5838
vt 0.4961 0.7036
vt 0.0081 0.7036
vt 0.984 0.5838
vt 0.984 0.7036
vt 0.0081 0.5838
vt 0.4961 0.5838
vt 0.4961 0.7036
vt 0.0081 0.7036
vt 0.984 0.5838
vt 0.984 0.7036
vt 0.0081 0.5838
vt 0.4961 0.5838
vt 0.4961 0.7036
vt 0.0081 0.7036
vt 0.984 0.5838
vt 0.984 0.7036
vt 0.0081 0.5838
vt 0.984 0.5838
vt 0.984 0.7036
vt 0.0081 0.7036
vt 0.984 0.5838
vt 0.984 0.7036
vt 0.4961 0.7036
vt 0.4961 0.5838
vt 0.0081 0.5838
vt 0.4961 0.5838
vt 0.4961 0.7036
vt 0.0081 0.7036
vt 0.984 0.5838
vt 0.984 0.7036
vt 0.0081 0.5838
vt 0.4961 0.5838
vt 0.4961 0.7036
vt 0.0081 0.7036
vt 0.984 0.5838
vt 0.984 0.7036
vt 0.0081 0.5838
vt 0.4961 0.5838
vt 0.4961 0.7036
vt 0.0081 0.7036
vt 0.984 0.5838
vt 0.984 0.7036
vt 0.0081 0.5838
vt 0.984 0.5838
vt 0.984 0.7036
vt 0.0081 0.7036
vt 0.6686 0.4958
vt 0.0427 0.4958
vt 0.9815 0.5415
vt 0.9815 0.4501
vt 0.0427 0.4501
vt 0.0378 0.4997
vt 0.9766 0.5
vt 0.9815 0.4501
vt 0.048 0.4501
vt 0.0342 0.5
vt 0.9536 0.4995
vt 0.9815 0.4501
vt 0.0342 0.4501
vt 0.0391 0.4995
vt 0.9779 0.4997
vt 0.973 0.4501
vt 0.0342 0.5423
vt 0.973 0.5428
vt 0.0844 0.5428
vt 0.9305 0.5418
vt 0.0427 0.5418
vt 0.9815 0.5423
vt 0.3556 0.5423
vt 0.0427 0.5428
vt 0.9815 0.5423
vt 0.0427 0.5418
vt 0.9912 0.439
vt -0.0031 0.561
vt 0.9912 0.561
vt -0.0031 0.439
vt -0.0031 0.439
vt 0.9912 0.561
vt 0.9912 0.439
vt -0.0031 0.561
vt -0.0031 0.439
vt 0.9912 0.561
vt 0.9912 0.439
vt -0.0031 0.561
vt -0.0031 0.439
vt 0.9912 0.561
vt 0.9912 0.439
vt -0.0031 0.561
vt -0.0031 0.439
vt 0.9912 0.561
vt 0.9912 0.439
vt -0.0031 0.561
vt 0.4654 0.2016
vt 0.0988 0.2829
vt 0.3272 0.2757
vt 0.872 0.0794
vt 0.9029 0.1611
vt 0.8412 0.2116
vt 0.0988 0.2829
vt 0.4654 0.2016
vt 0.3272 0.2757
vt 0.5233 0.1611
vt 0.5739 0.2116
vt 0.4454 0.2116
vt 0.1234 0.1425
vt 0.4787 0.1167
vt 0.3869 0.0778
vt 0.0146 0.1287
vt 0.7104 0.0285
vt 0.7104 0.0061
vt 0.5543 0.0794
vt 0.1234 0.1425
vt 0.4787 0.1167
vt 0.7104 0.2116
vt 0.9753 0.2116
vt 0.9071 0.332
vt 0.9751 0.332
vt 0.5136 0.332
vt 0.4456 0.332
vt 0.7104 0.332
vt 0.017 0.2902
vt 0.0081 0.5838
vt 0.4961 0.7036
vt 0.4961 0.5838
vt 0.0081 0.7036
vt 0.984 0.7036
vt 0.984 0.5838
vt 0.0081 0.5838
vt 0.4961 0.7036
vt 0.4961 0.5838
vt 0.0081 0.7036
vt 0.984 0.7036
vt 0.984 0.5838
vt 0.0081 0.5838
vt 0.4961 0.7036
vt 0.4961 0.5838
vt 0.0081 0.7036
vt 0.984 0.7036
vt 0.984 0.5838
vt 0.0081 0.5838
vt 0.984 0.7036
vt 0.984 0.5838
vt 0.0081 0.7036
vt 0.0081 0.5838
vt 0.4961 0.7036
vt 0.4961 0.5838
vt 0.0081 0.7036
vt 0.984 0.7036
vt 0.984 0.5838
vt 0.0081 0.5838
vt 0.4961 0.7036
vt 0.4961 0.5838
vt 0.0081 0.7036
vt 0.984 0.7036
vt 0.984 0.5838
vt 0.0081 0.5838
vt 0.4961 0.7036
vt 0.4961 0.5838
vt 0.0081 0.7036
vt 0.984 0.7036
vt 0.984 0.5838
vt 0.0081 0.5838
vt 0.984 0.7036
vt 0.984 0.5838
vt 0.0081 0.7036
vt 0.984 0.5838
vt 0.4961 0.7036
vt 0.984 0.7036
vt 0.4961 0.5838
vt 0.0081 0.7036
vt 0.0081 0.5838
vt 0.0081 0.5838
vt 0.4961 0.7036
vt 0.4961 0.5838
vt 0.0081 0.7036
vt 0.984 0.7036
vt 0.984 0.5838
vt 0.0081 0.5838
vt 0.4961 0.7036
vt 0.4961 0.5838
vt 0.0081 0.7036
vt 0.984 0.7036
vt 0.984 0.5838
vt 0.0081 0.5838
vt 0.4961 0.7036
vt 0.4961 0.5838
vt 0.0081 0.7036
vt 0.984 0.7036
vt 0.984 0.5838
vt 0.984 0.5838
vt 0.4961 0.7036
vt 0.984 0.7036
vt 0.4961 0.5838
vt 0.0081 0.7036
vt 0.0081 0.5838
vt 0.0081 0.5838
vt 0.4961 0.7036
vt 0.4961 0.5838
vt 0.0081 0.7036
vt 0.984 0.7036
vt 0.984 0.5838
vt 0.0081 0.5838
vt 0.4961 0.7036
vt 0.4961 0.5838
vt 0.0081 0.7036
vt 0.984 0.7036
vt 0.984 0.5838
vt 0.0081 0.5838
vt 0.4961 0.7036
vt 0.4961 0.5838
vt 0.0081 0.7036
vt 0.984 0.7036
vt 0.984 0.5838
vt 0.984 0.5838
vt 0.4961 0.7036
vt 0.984 0.7036
vt 0.4961 0.5838
vt 0.0081 0.7036
vt 0.0081 0.5838
vt 0.0081 0.5838
vt 0.4961 0.7036
vt 0.4961 0.5838
vt 0.0081 0.7036
vt 0.984 0.7036
vt 0.984 0.5838
vt 0.0081 0.5838
vt 0.4961 0.7036
vt 0.4961 0.5838
vt 0.0081 0.7036
vt 0.984 0.7036
vt 0.984 0.5838
vt 0.0081 0.5838
vt 0.4961 0.7036
vt 0.4961 0.5838
vt 0.0081 0.7036
vt 0.984 0.7036
vt 0.984 0.5838
vt 0.9912 0.439
vt 0.9912 0.561
vt -0.0031 0.561
vt -0.0031 0.439
vt -0.0031 0.439
vt 0.9912 0.439
vt 0.9912 0.561
vt -0.0031 0.561
vt -0.0031 0.439
vt 0.9912 0.439
vt 0.9912 0.561
vt -0.0031 0.561
vt -0.0031 0.439
vt 0.9912 0.439
vt 0.9912 0.561
vt -0.0031 0.561
vt -0.0031 0.439
vt 0.9912 0.439
vt 0.9912 0.561
vt -0.0031 0.561
vt 0.0081 0.5838
vt 0.4961 0.5838
vt 0.4961 0.7036
vt 0.0081 0.7036
vt 0.984 0.5838
vt 0.984 0.7036
vt 0.0081 0.5838
vt 0.4961 0.5838
vt 0.4961 0.7036
vt 0.0081 0.7036
vt 0.984 0.5838
vt 0.984 0.7036
vt 0.0081 0.5838
vt 0.4961 0.5838
vt 0.4961 0.7036
vt 0.0081 0.7036
vt 0.984 0.5838
vt 0.984 0.7036
vt 0.0081 0.5838
vt 0.984 0.5838
vt 0.984 0.7036
vt 0.0081 0.7036
vt 0.0081 0.5838
vt 0.4961 0.5838
vt 0.4961 0.7036
vt 0.0081 0.7036
vt 0.984 0.5838
vt 0.984 0.7036
vt 0.0081 0.5838
vt 0.4961 0.5838
vt 0.4961 0.7036
vt 0.0081 0.7036
vt 0.984 0.5838
vt 0.984 0.7036
vt 0.0081 0.5838
vt 0.4961 0.5838
vt 0.4961 0.7036
vt 0.0081 0.7036
vt 0.984 0.5838
vt 0.984 0.7036
vt 0.0081 0.5838
vt 0.984 0.5838
vt 0.984 0.7036
vt 0.0081 0.7036
vt 0.984 0.5838
vt 0.984 0.7036
vt 0.4961 0.7036
vt 0.4961 0.5838
vt 0.0081 0.7036
vt 0.0081 0.5838
vt 0.0081 0.5838
vt 0.4961 0.5838
vt 0.4961 0.7036
vt 0.0081 0.7036
vt 0.984 0.5838
vt 0.984 0.7036
vt 0.0081 0.5838
vt 0.4961 0.5838
vt 0.4961 0.7036
vt 0.0081 0.7036
vt 0.984 0.5838
vt 0.984 0.7036
vt 0.0081 0.5838
vt 0.4961 0.5838
vt 0.4961 0.7036
vt 0.0081 0.7036
vt 0.984 0.5838
vt 0.984 0.7036
vt 0.984 0.5838
vt 0.984 0.7036
vt 0.4961 0.7036
vt 0.4961 0.5838
vt 0.0081 0.7036
vt 0.0081 0.5838
vt 0.0081 0.5838
vt 0.4961 0.5838
vt 0.4961 0.7036
vt 0.0081 0.7036
vt 0.984 0.5838
vt 0.984 0.7036
vt 0.0081 0.5838
vt 0.4961 0.5838
vt 0.4961 0.7036
vt 0.0081 0.7036
vt 0.984 0.5838
vt 0.984 0.7036
vt 0.0081 0.5838
vt 0.4961 0.5838
vt 0.4961 0.7036
vt 0.0081 0.7036
vt 0.984 0.5838
vt 0.984 0.7036
vt 0.984 0.5838
vt 0.984 0.7036
vt 0.4961 0.7036
vt 0.4961 0.5838
vt 0.0081 0.7036
vt 0.0081 0.5838
vt 0.0081 0.5838
vt 0.4961 0.5838
vt 0.4961 0.7036
vt 0.0081 0.7036
vt 0.984 0.5838
vt 0.984 0.7036
vt 0.0081 0.5838
vt 0.4961 0.5838
vt 0.4961 0.7036
vt 0.0081 0.7036
vt 0.984 0.5838
vt 0.984 0.7036
vt 0.0081 0.5838
vt 0.4961 0.5838
vt 0.4961 0.7036
vt 0.0081 0.7036
vt 0.984 0.5838
vt 0.984 0.7036
vt 0.806 0.8463
vt 0.9368 0.928
vt 0.9846 0.7534
vt 0.8066 0.7534
vt 0.7554 0.8407
vt 0.7546 0.7496
vt 0.9848 0.7496
vt 0.9454 0.932
vt 0.256 0.8392
vt 0.0767 0.932
vt 0.0442 0.7496
vt 0.2568 0.7496
vt 0.2808 0.8414
vt 0.2841 0.7534
vt 0.047 0.7534
vt 0.1105 0.928
vt 0.511 0.9335
vt 0.511 0.7496
vt 0.511 1.0021
vt 0.5237 0.9293
vt 0.5237 0.9985
vt 0.5237 0.7534
vt 3.3065 2.1739
vt -7.1956 2.1739
vt -8.5127 3.7578
vt -8.5127 3.7578
vt 0.9995 0.0005
vt 3.3065 2.1739
vt 7.1956 2.1739
vt 3.3065 2.1739
vt 0.9995 0.0005
vt 0.9995 0.0005
vt 0.8916 0.0005
vt 7.1956 2.1739
vt -7.1956 2.1739
vt 3.3065 2.1739
vt 0.0005 0.0005
vt 0.0005 0.0005
vt -8.5127 3.7578
vt -7.1956 2.1739
vt 3.3065 2.1739
vt 7.1956 2.1739
vt 0.1084 0.0005
vt 0.1084 0.0005
vt 0.0005 0.0005
vt 3.3065 2.1739
vt 9.5941 2.1739
vt 7.1956 2.1739
vt 0.8916 0.0005
vt 0.8916 0.0005
vt 0.5 0.0005
vt 9.5941 2.1739
vt 7.1956 2.1739
vt 9.5941 2.1739
vt 0.5 0.0005
vt 0.5 0.0005
vt 0.1084 0.0005
vt 7.1956 2.1739
vt -7.1956 2.1739
vt -9.5941 2.1739
vt -11.4091 3.7578
vt -8.5127 3.7578
vt -9.5941 2.1739
vt -7.1956 2.1739
vt -8.5127 3.7578
vt -8.5127 3.7578
vt -11.4091 3.7578
vt -9.5941 2.1739
vt 0.3725 0.7588
vt 0.0604 0.8674
vt 0.0618 0.7334
vt 0.3728 0.8542
vt 0.2096 0.985
vt 0.6347 0.7606
vt 0.4596 0.918
vt 0.4218 0.7606
vt 0.5969 0.918
vt 0.5283 0.9613
vt 0.0618 0.7334
vt 0.3728 0.8542
vt 0.3725 0.7588
vt 0.0604 0.8674
vt 0.2096 0.985
vt 0.4218 0.7484
vt 0.5969 0.8641
vt 0.6347 0.7484
vt 0.4596 0.8641
vt 0.5283 0.9613
vt 0.3725 0.7588
vt 0.0618 0.7334
vt 0.0604 0.8674
vt 0.3728 0.8542
vt 0.2096 0.985
vt 0.6347 0.7606
vt 0.4218 0.7606
vt 0.4596 0.918
vt 0.5969 0.918
vt 0.5283 0.9613
vt 0.0618 0.7334
vt 0.3725 0.7588
vt 0.3728 0.8542
vt 0.0604 0.8674
vt 0.2096 0.985
vt 0.4218 0.7484
vt 0.6347 0.7484
vt 0.5969 0.8641
vt 0.4596 0.8641
vt 0.5283 0.9613
f 1/1/1 3/3/3 2/2/2
f 3/3/3 1/1/1 4/4/4
f 2/2/2 6/6/6 5/5/5
f 6/6/6 2/2/2 3/3/3
f 7/7/7 9/9/9 8/8/8
f 9/9/9 7/7/7 10/10/10
f 8/8/8 12/12/12 11/11/11
f 12/12/12 8/8/8 9/9/9
f 13/13/13 15/15/15 14/14/14
f 15/15/15 13/13/13 16/16/16
f 14/14/14 18/18/18 17/17/17
f 18/18/18 14/14/14 15/15/15
f 19/19/19 21/21/21 20/20/20
f 21/21/21 19/19/19 22/22/22
f 23/23/23 25/25/25 24/24/24
f 25/25/25 23/23/23 26/26/26
f 24/24/24 28/28/28 27/27/27
f 28/28/28 24/24/24 25/25/25
f 29/29/29 31/31/31 30/30/30
f 31/31/31 29/29/29 32/32/32
f 30/30/30 34/34/34 33/33/33
f 34/34/34 30/30/30 31/31/31
f 35/35/35 37/37/37 36/36/36
f 37/37/37 35/35/35 38/38/38
f 36/36/36 40/40/40 39/39/39
f 40/40/40 36/36/36 37/37/37
f 41/41/41 43/43/43 42/42/42
f 43/43/43 41/41/41 44/44/44
f 45/45/45 47/47/47 46/46/46
f 45/45/45 48/48/48 47/47/47
f 45/45/45 46/46/46 48/48/48
f 49/49/49 51/51/51 50/50/50
f 49/49/49 52/52/52 51/51/51
f 53/53/53 55/55/55 54/54/54
f 53/53/53 56/56/56 55/55/55
f 57/57/57 59/59/59 58/58/58
f 57/57/57 60/60/60 59/59/59
f 50/50/50 62/62/62 61/61/61
f 50/50/50 51/51/51 62/62/62
f 54/54/54 64/64/64 63/63/63
f 54/54/54 55/55/55 64/64/64
f 58/58/58 66/66/66 65/65/65
f 58/58/58 59/59/59 66/66/66
f 67/67/67 69/69/69 68/68/68
f 67/67/67 68/68/68 70/70/70
f 67/67/67 70/70/70 69/69/69
f 71/71/71 73/73/73 72/72/72
f 73/73/73 71/71/71 74/74/74
f 74/74/74 75/75/75 73/73/73
f 75/75/75 74/74/74 76/76/76
f 77/77/77 79/79/79 78/78/78
f 79/79/79 77/77/77 80/80/80
f 78/78/78 82/82/82 81/81/81
f 82/82/82 78/78/78 79/79/79
f 83/83/83 85/85/85 84/84/84
f 85/85/85 83/83/83 86/86/86
f 84/84/84 88/88/88 87/87/87
f 88/88/88 84/84/84 85/85/85
f 89/89/89 91/91/91 90/90/90
f 91/91/91 89/89/89 92/92/92
f 93/93/93 95/95/95 94/94/94
f 95/95/95 93/93/93 96/96/96
f 94/94/94 98/98/98 97/97/97
f 98/98/98 94/94/94 95/95/95
f 99/99/99 101/101/101 100/100/100
f 101/101/101 99/99/99 102/102/102
f 103/103/103 105/105/105 104/104/104
f 105/105/105 103/103/103 106/106/106
f 104/104/104 108/108/108 107/107/107
f 108/108/108 104/104/104 105/105/105
f 109/109/109 111/111/111 110/110/110
f 111/111/111 109/109/109 112/112/112
f 110/110/110 114/114/114 113/113/113
f 114/114/114 110/110/110 111/111/111
f 115/115/115 117/117/117 116/116/116
f 117/117/117 115/115/115 118/118/118
f 119/119/119 121/121/121 120/120/120
f 121/121/121 119/119/119 122/122/122
f 120/120/120 124/124/124 123/123/123
f 124/124/124 120/120/120 121/121/121
f 125/125/125 127/127/127 126/126/126
f 127/127/127 125/125/125 128/128/128
f 129/129/129 131/131/131 130/130/130
f 131/131/131 129/129/129 132/132/132
f 133/133/133 135/135/135 134/134/134
f 135/135/135 133/133/133 136/136/136
f 137/137/137 139/139/139 138/138/138
f 139/139/139 137/137/137 140/140/140
f 141/141/141 143/143/143 142/142/142
f 143/143/143 141/141/141 144/144/144
f 145/145/145 147/147/147 146/146/146
f 147/147/147 145/145/145 148/148/148
f 146/146/146 150/150/150 149/149/149
f 150/150/150 146/146/146 147/147/147
f 151/151/151 153/153/153 152/152/152
f 153/153/153 151/151/151 154/154/154
f 152/152/152 156/156/156 155/155/155
f 156/156/156 152/152/152 153/153/153
f 157/157/157 159/159/159 158/158/158
f 159/159/159 157/157/157 160/160/160
f 161/161/161 163/163/163 162/162/162
f 163/163/163 161/161/161 164/164/164
f 162/162/162 166/166/166 165/165/165
f 166/166/166 162/162/162 163/163/163
f 167/167/167 169/169/169 168/168/168
f 169/169/169 167/167/167 170/170/170
f 171/171/171 173/173/173 172/172/172
f 172/172/172 174/174/174 171/171/171
f 173/173/173 176/176/176 175/175/175
f 175/175/175 172/172/172 173/173/173
f 177/177/177 179/179/179 178/178/178
f 178/178/178 180/180/180 177/177/177
f 179/179/179 182/182/182 181/181/181
f 181/181/181 178/178/178 179/179/179
f 183/183/183 185/185/185 184/184/184
f 184/184/184 186/186/186 183/183/183
f 185/185/185 188/188/188 187/187/187
f 187/187/187 184/184/184 185/185/185
f 189/189/189 191/191/191 190/190/190
f 190/190/190 192/192/192 189/189/189
f 193/193/193 195/195/195 194/194/194
f 194/194/194 196/196/196 193/193/193
f 195/195/195 198/198/198 197/197/197
f 197/197/197 194/194/194 195/195/195
f 199/199/199 201/201/201 200/200/200
f 200/200/200 202/202/202 199/199/199
f 201/201/201 204/204/204 203/203/203
f 203/203/203 200/200/200 201/201/201
f 205/205/205 207/207/207 206/206/206
f 206/206/206 208/208/208 205/205/205
f 207/207/207 210/210/210 209/209/209
f 209/209/209 206/206/206 207/207/207
f 211/211/211 213/213/213 212/212/212
f 212/212/212 214/214/214 211/211/211
f 215/215/215 217/217/217 216/216/216
f 216/216/216 218/218/218 215/215/215
f 217/217/217 220/220/220 219/219/219
f 219/219/219 216/216/216 217/217/217
f 221/221/221 223/223/223 222/222/222
f 222/222/222 224/224/224 221/221/221
f 223/223/223 226/226/226 225/225/225
f 225/225/225 222/222/222 223/223/223
f 227/227/227 229/229/229 228/228/228
f 228/228/228 230/230/230 227/227/227
f 229/229/229 232/232/232 231/231/231
f 231/231/231 228/228/228 229/229/229
f 233/233/233 235/235/235 234/234/234
f 234/234/234 236/236/236 233/233/233
f 237/237/237 239/239/239 238/238/238
f 239/239/239 237/237/237 240/240/240
f 241/241/241 243/243/243 242/242/242
f 243/243/243 241/241/241 244/244/244
f 242/242/242 246/246/246 245/245/245
f 246/246/246 242/242/242 243/243/243
f 247/247/247 249/249/249 248/248/248
f 249/249/249 247/247/247 250/250/250
f 248/248/248 252/252/252 251/251/251
f 252/252/252 248/248/248 249/249/249
f 253/253/253 255/255/255 254/254/254
f 255/255/255 253/253/253 256/256/256
f 254/254/254 258/258/258 257/257/257
f 258/258/258 254/254/254 255/255/255
f 259/259/259 261/261/261 260/260/260
f 261/261/261 259/259/259 262/262/262
f 263/263/263 265/265/265 264/264/264
f 265/265/265 263/263/263 266/266/266
f 267/267/267 269/269/269 268/268/268
f 269/269/269 267/267/267 270/270/270
f 268/268/268 272/272/272 271/271/271
f 272/272/272 268/268/268 269/269/269
f 273/273/273 275/275/275 274/274/274
f 275/275/275 273/273/273 276/276/276
f 274/274/274 278/278/278 277/277/277
f 278/278/278 274/274/274 275/275/275
f 279/279/279 281/281/281 280/280/280
f 281/281/281 279/279/279 282/282/282
f 280/280/280 284/284/284 283/283/283
f 284/284/284 280/280/280 281/281/281
f 285/285/285 287/287/287 286/286/286
f 287/287/287 285/285/285 288/288/288
f 289/289/289 291/291/291 290/290/290
f 291/291/291 289/289/289 292/292/292
f 293/293/293 295/295/295 294/294/294
f 295/295/295 293/293/293 296/296/296
f 294/294/294 298/298/298 297/297/297
f 298/298/298 294/294/294 295/295/295
f 299/299/299 301/301/301 300/300/300
f 301/301/301 299/299/299 302/302/302
f 300/300/300 304/304/304 303/303/303
f 304/304/304 300/300/300 301/301/301
f 305/305/305 307/307/307 306/306/306
f 307/307/307 305/305/305 308/308/308
f 306/306/306 310/310/310 309/309/309
f 310/310/310 306/306/306 307/307/307
f 311/311/311 313/313/313 312/312/312
f 313/313/313 311/311/311 314/314/314
f 315/315/315 317/317/317 316/316/316
f 315/315/315 318/318/318 317/317/317
f 315/315/315 316/316/316 318/318/318
f 319/319/319 321/321/321 320/320/320
f 319/319/319 322/322/322 321/321/321
f 323/323/323 325/325/325 324/324/324
f 323/323/323 326/326/326 325/325/325
f 327/327/327 329/329/329 328/328/328
f 327/327/327 330/330/330 329/329/329
f 320/320/320 332/332/332 331/331/331
f 320/320/320 321/321/321 332/332/332
f 324/324/324 334/334/334 333/333/333
f 324/324/324 325/325/325 334/334/334
f 328/328/328 336/336/336 335/335/335
f 328/328/328 329/329/329 336/336/336
f 337/337/337 339/339/339 338/338/338
f 337/337/337 338/338/338 340/340/340
f 337/337/337 340/340/340 339/339/339
f 341/341/341 343/343/343 342/342/342
f 342/342/342 344/344/344 341/341/341
f 345/345/345 347/347/347 346/346/346
f 346/346/346 348/348/348 345/345/345
f 349/349/349 351/351/351 350/350/350
f 350/350/350 352/352/352 349/349/349
f 353/353/353 355/355/355 354/354/354
f 354/354/354 356/356/356 353/353/353
f 357/357/357 359/359/359 358/358/358
f 358/358/358 360/360/360 357/357/357
f 361/361/361 363/363/363 362/362/362
f 364/364/364 366/366/366 365/365/365
f 367/367/367 369/369/369 368/368/368
f 370/370/370 372/372/372 371/371/371
f 373/373/373 375/375/375 374/374/374
f 373/373/373 376/376/376 375/375/375
f 364/364/364 378/378/378 377/377/377
f 364/364/364 365/365/365 378/378/378
f 379/379/379 378/378/378 370/370/370
f 379/379/379 377/377/377 378/378/378
f 380/380/380 375/375/375 376/376/376
f 380/380/380 381/381/381 375/375/375
f 377/377/377 382/382/382 366/366/366
f 379/379/379 371/371/371 377/377/377
f 380/380/380 376/376/376 367/367/367
f 361/361/361 362/362/362 373/373/373
f 374/374/374 361/361/361 373/373/373
f 366/366/366 383/383/383 365/365/365
f 384/384/384 385/385/385 383/383/383
f 366/366/366 384/384/384 383/383/383
f 380/380/380 368/368/368 381/381/381
f 380/380/380 367/367/367 368/368/368
f 372/372/372 386/386/386 371/371/371
f 372/372/372 387/387/387 386/386/386
f 379/379/379 370/370/370 371/371/371
f 388/388/388 384/384/384 366/366/366
f 382/382/382 388/388/388 366/366/366
f 364/364/364 377/377/377 366/366/366
f 371/371/371 382/382/382 377/377/377
f 371/371/371 388/388/388 382/382/382
f 371/371/371 386/386/386 388/388/388
f 373/373/373 362/362/362 376/376/376
f 376/376/376 362/362/362 389/389/389
f 376/376/376 389/389/389 367/367/367
f 390/390/390 392/392/392 391/391/391
f 391/391/391 393/393/393 390/390/390
f 392/392/392 395/395/395 394/394/394
f 394/394/394 391/391/391 392/392/392
f 396/396/396 398/398/398 397/397/397
f 397/397/397 399/399/399 396/396/396
f 398/398/398 401/401/401 400/400/400
f 400/400/400 397/397/397 398/398/398
f 402/402/402 404/404/404 403/403/403
f 403/403/403 405/405/405 402/402/402
f 404/404/404 407/407/407 406/406/406
f 406/406/406 403/403/403 404/404/404
f 408/408/408 410/410/410 409/409/409
f 409/409/409 411/411/411 408/408/408
f 412/412/412 414/414/414 413/413/413
f 413/413/413 415/415/415 412/412/412
f 414/414/414 417/417/417 416/416/416
f 416/416/416 413/413/413 414/414/414
f 418/418/418 420/420/420 419/419/419
f 419/419/419 421/421/421 418/418/418
f 420/420/420 423/423/423 422/422/422
f 422/422/422 419/419/419 420/420/420
f 424/424/424 426/426/426 425/425/425
f 425/425/425 427/427/427 424/424/424
f 426/426/426 429/429/429 428/428/428
f 428/428/428 425/425/425 426/426/426
f 430/430/430 432/432/432 431/431/431
f 431/431/431 433/433/433 430/430/430
f 434/434/434 436/436/436 435/435/435
f 435/435/435 437/437/437 434/434/434
f 437/437/437 435/435/435 438/438/438
f 438/438/438 439/439/439 437/437/437
f 440/440/440 442/442/442 441/441/441
f 441/441/441 443/443/443 440/440/440
f 442/442/442 445/445/445 444/444/444
f 444/444/444 441/441/441 442/442/442
f 446/446/446 448/448/448 447/447/447
f 447/447/447 449/449/449 446/446/446
f 448/448/448 451/451/451 450/450/450
f 450/450/450 447/447/447 448/448/448
f 452/452/452 454/454/454 453/453/453
f 453/453/453 455/455/455 452/452/452
f 454/454/454 457/457/457 456/456/456
f 456/456/456 453/453/453 454/454/454
f 458/458/458 460/460/460 459/459/459
f 459/459/459 461/461/461 458/458/458
f 461/461/461 459/459/459 462/462/462
f 462/462/462 463/463/463 461/461/461
f 464/464/464 466/466/466 465/465/465
f 465/465/465 467/467/467 464/464/464
f 466/466/466 469/469/469 468/468/468
f 468/468/468 465/465/465 466/466/466
f 470/470/470 472/472/472 471/471/471
f 471/471/471 473/473/473 470/470/470
f 472/472/472 475/475/475 474/474/474
f 474/474/474 471/471/471 472/472/472
f 476/476/476 478/478/478 477/477/477
f 477/477/477 479/479/479 476/476/476
f 478/478/478 481/481/481 480/480/480
f 480/480/480 477/477/477 478/478/478
f 482/482/482 484/484/484 483/483/483
f 483/483/483 485/485/485 482/482/482
f 485/485/485 483/483/483 486/486/486
f 486/486/486 487/487/487 485/485/485
f 488/488/488 490/490/490 489/489/489
f 489/489/489 491/491/491 488/488/488
f 490/490/490 493/493/493 492/492/492
f 492/492/492 489/489/489 490/490/490
f 494/494/494 496/496/496 495/495/495
f 495/495/495 497/497/497 494/494/494
f 496/496/496 499/499/499 498/498/498
f 498/498/498 495/495/495 496/496/496
f 500/500/500 502/502/502 501/501/501
f 501/501/501 503/503/503 500/500/500
f 502/502/502 505/505/505 504/504/504
f 504/504/504 501/501/501 502/502/502
f 506/506/506 508/508/508 507/507/507
f 508/508/508 506/506/506 509/509/509
f 510/510/510 512/512/512 511/511/511
f 512/512/512 510/510/510 513/513/513
f 514/514/514 516/516/516 515/515/515
f 516/516/516 514/514/514 517/517/517
f 518/518/518 520/520/520 519/519/519
f 520/520/520 518/518/518 521/521/521
f 522/522/522 524/524/524 523/523/523
f 524/524/524 522/522/522 525/525/525
f 526/526/526 528/528/528 527/527/527
f 528/528/528 526/526/526 529/529/529
f 527/527/527 531/531/531 530/530/530
f 531/531/531 527/527/527 528/528/528
f 532/532/532 534/534/534 533/533/533
f 534/534/534 532/532/532 535/535/535
f 533/533/533 537/537/537 536/536/536
f 537/537/537 533/533/533 534/534/534
f 538/538/538 540/540/540 539/539/539
f 540/540/540 538/538/538 541/541/541
f 539/539/539 543/543/543 542/542/542
f 543/543/543 539/539/539 540/540/540
f 544/544/544 546/546/546 545/545/545
f 546/546/546 544/544/544 547/547/547
f 548/548/548 550/550/550 549/549/549
f 550/550/550 548/548/548 551/551/551
f 549/549/549 553/553/553 552/552/552
f 553/553/553 549/549/549 550/550/550
f 554/554/554 556/556/556 555/555/555
f 556/556/556 554/554/554 557/557/557
f 555/555/555 559/559/559 558/558/558
f 559/559/559 555/555/555 556/556/556
f 560/560/560 562/562/562 561/561/561
f 562/562/562 560/560/560 563/563/563
f 561/561/561 565/565/565 564/564/564
f 565/565/565 561/561/561 562/562/562
f 566/566/566 568/568/568 567/567/567
f 568/568/568 566/566/566 569/569/569
f 570/570/570 572/572/572 571/571/571
f 572/572/572 570/570/570 573/573/573
f 573/573/573 574/574/574 572/572/572
f 574/574/574 573/573/573 575/575/575
f 576/576/576 578/578/578 577/577/577
f 578/578/578 576/576/576 579/579/579
f 577/577/577 581/581/581 580/580/580
f 581/581/581 577/577/577 578/578/578
f 582/582/582 584/584/584 583/583/583
f 584/584/584 582/582/582 585/585/585
f 583/583/583 587/587/587 586/586/586
f 587/587/587 583/583/583 584/584/584
f 588/588/588 590/590/590 589/589/589
f 590/590/590 588/588/588 591/591/591
f 589/589/589 593/593/593 592/592/592
f 593/593/593 589/589/589 590/590/590
f 594/594/594 596/596/596 595/595/595
f 596/596/596 594/594/594 597/597/597
f 597/597/597 598/598/598 596/596/596
f 598/598/598 597/597/597 599/599/599
f 600/600/600 602/602/602 601/601/601
f 602/602/602 600/600/600 603/603/603
f 601/601/601 605/605/605 604/604/604
f 605/605/605 601/601/601 602/602/602
f 606/606/606 608/608/608 607/607/607
f 608/608/608 606/606/606 609/609/609
f 607/607/607 611/611/611 610/610/610
f 611/611/611 607/607/607 608/608/608
f 612/612/612 614/614/614 613/613/613
f 614/614/614 612/612/612 615/615/615
f 613/613/613 617/617/617 616/616/616
f 617/617/617 613/613/613 614/614/614
f 618/618/618 620/620/620 619/619/619
f 620/620/620 618/618/618 621/621/621
f 621/621/621 622/622/622 620/620/620
f 622/622/622 621/621/621 623/623/623
f 624/624/624 626/626/626 625/625/625
f 626/626/626 624/624/624 627/627/627
f 625/625/625 629/629/629 628/628/628
f 629/629/629 625/625/625 626/626/626
f 630/630/630 632/632/632 631/631/631
f 632/632/632 630/630/630 633/633/633
f 631/631/631 635/635/635 634/634/634
f 635/635/635 631/631/631 632/632/632
f 636/636/636 638/638/638 637/637/637
f 638/638/638 636/636/636 639/639/639
f 637/637/637 641/641/641 640/640/640
f 641/641/641 637/637/637 638/638/638
f 642/642/642 644/644/644 643/643/643
f 642/642/642 645/645/645 644/644/644
f 646/646/646 648/648/648 647/647/647
f 646/646/646 649/649/649 648/648/648
f 650/650/650 652/652/652 651/651/651
f 650/650/650 653/653/653 652/652/652
f 654/654/654 656/656/656 655/655/655
f 654/654/654 657/657/657 656/656/656
f 646/646/646 659/659/659 658/658/658
f 646/646/646 647/647/647 659/659/659
f 650/650/650 659/659/659 653/653/653
f 650/650/650 658/658/658 659/659/659
f 658/658/658 660/660/660 649/649/649
f 646/646/646 658/658/658 649/649/649
f 643/643/643 662/662/662 661/661/661
f 642/642/642 643/643/643 661/661/661
f 661/661/661 662/662/662 657/657/657
f 654/654/654 661/661/661 657/657/657
f 651/651/651 660/660/660 658/658/658
f 650/650/650 651/651/651 658/658/658
f 642/642/642 663/663/663 645/645/645
f 642/642/642 661/661/661 663/663/663
f 654/654/654 663/663/663 661/661/661
f 654/654/654 655/655/655 663/663/663
f 664/664/664 666/666/666 665/665/665
f 667/667/667 669/669/669 668/668/668
f 670/670/670 672/672/672 671/671/671
f 673/673/673 675/675/675 674/674/674
f 676/676/676 678/678/678 677/677/677
f 679/679/679 681/681/681 680/680/680
f 682/682/682 684/684/684 683/683/683
f 685/685/685 687/687/687 686/686/686
f 688/688/688 690/690/690 689/689/689
f 691/691/691 693/693/693 692/692/692
f 694/694/694 696/696/696 695/695/695
f 697/697/697 699/699/699 698/698/698
f 700/700/700 702/702/702 701/701/701
f 702/702/702 700/700/700 703/703/703
f 704/704/704 706/706/706 705/705/705
f 707/707/707 709/709/709 708/708/708
f 710/710/710 712/712/712 711/711/711
f 711/711/711 713/713/713 710/710/710
f 713/713/713 711/711/711 714/714/714
f 715/715/715 717/717/717 716/716/716
f 716/716/716 718/718/718 715/715/715
f 718/718/718 716/716/716 719/719/719
f 720/720/720 722/722/722 721/721/721
f 721/721/721 723/723/723 720/720/720
f 723/723/723 721/721/721 724/724/724
f 725/725/725 727/727/727 726/726/726
f 726/726/726 728/728/728 725/725/725
f 728/728/728 726/726/726 729/729/729
f 730/730/730 732/732/732 731/731/731
f 732/732/732 730/730/730 733/733/733
f 733/733/733 734/734/734 732/732/732
f 735/735/735 737/737/737 736/736/736
f 737/737/737 735/735/735 738/738/738
f 738/738/738 739/739/739 737/737/737
f 740/740/740 742/742/742 741/741/741
f 742/742/742 740/740/740 743/743/743
f 743/743/743 744/744/744 742/742/742
f 745/745/745 747/747/747 746/746/746
f 747/747/747 745/745/745 748/748/748
f 748/748/748 749/749/749 747/747/747

g flag_tga
# texture: flag.tga
v 46.181 118.2508 -35.8411
v 46.1811 56.50788 -42.6029
v 23.0805 118.2508 -35.8411
v 23.0805 56.50788 -42.60289
v -0.0201 118.2508 -35.84109
v -0.020103 56.50788 -42.6029
v -23.1206 118.2508 -35.84109
v -23.1206 60.94688 -58.0225
v -46.2212 118.2508 -35.84109
v -46.22121 60.94688 -58.0225
v 46.181 173.3421 -23.28391
v 23.0805 173.3421 -23.28391
v -0.020098 173.3421 -23.28391
v -23.1206 173.3421 -23.28391
v -46.2212 173.3421 -23.28391
v 46.18099 173.4404 9.290892
v 23.0805 173.4404 9.290894
v -0.02009 173.5036 10.26839
v -23.12069 173.5036 10.26839
v -46.22119 173.5036 10.26839
v 46.18099 119.111 19.17841
v 23.0805 119.111 19.1785
v -0.02009 118.2826 10.57159
v -23.12069 118.2826 10.5716
v -46.22119 118.2826 10.57159
v 46.18099 58.14791 15.70343
v 23.0805 58.14791 15.70342
v -0.020088 58.84911 -3.436801
v -23.12069 58.84911 -3.436805
v -46.22119 58.84911 -3.436805
vn -0 0.184699 -0.982795
vn -0 0.108895 -0.994053
vn -0 0.165793 -0.986161
vn -0 0.108895 -0.994053
vn -0 0.165793 -0.986161
vn 0.198913 0.179911 -0.963362
vn 0.097703 0.246008 -0.964331
vn 0.197595 0.353891 -0.914176
vn -0 0.315508 -0.948923
vn -0 0.360988 -0.93257
vn -0 0.914803 -0.403901
vn 0.0006 0.780615 -0.625012
vn -0 0.780215 -0.625512
vn -0 0.780215 -0.625512
vn -0 0.594273 -0.804264
vn 0 0.568607 0.82261
vn -0.068601 0.755013 0.652111
vn 0.0106 0.710608 0.703508
vn 0 0.710698 0.703498
vn 0 0.896617 0.442808
vn 0 0.021899 0.99976
vn -0.230593 0.036399 0.972369
vn -0.109801 -0.085001 0.990312
vn 0 -0.112802 0.993618
vn 0 -0.073301 0.99731
vn 0 -0.056899 0.99838
vn -0.224498 -0.0555 0.972893
vn -0.3383 -0.1703 0.9255
vn 0 -0.229407 0.973331
vn 0 -0.229407 0.973331
vt 0.0005 0.2709
vt 0.0005 0.0005
vt 0.2502 0.2709
vt 0.2502 0.0005
vt 0.5 0.2709
vt 0.5 0.0005
vt 0.7498 0.2709
vt 0.7497 0.0005
vt 0.9995 0.2709
vt 0.9995 0.0005
vt 0.0005 0.4574
vt 0.2502 0.4574
vt 0.5 0.4574
vt 0.7498 0.4574
vt 0.9995 0.4574
vt 0.0005 0.5746
vt 0.2503 0.5746
vt 0.5 0.5746
vt 0.7498 0.5746
vt 0.9995 0.5746
vt 0.0005 0.7289
vt 0.2503 0.7289
vt 0.5 0.7289
vt 0.7498 0.7289
vt 0.9995 0.7289
vt 0.0005 0.9995
vt 0.2503 0.9995
vt 0.5 0.9995
vt 0.7498 0.9995
vt 0.9995 0.9995
f 750/750/750 752/752/752 751/751/751
f 753/753/753 751/751/751 752/752/752
f 752/752/752 754/754/754 753/753/753
f 755/755/755 753/753/753 754/754/754
f 754/754/754 756/756/756 755/755/755
f 757/757/757 755/755/755 756/756/756
f 756/756/756 758/758/758 757/757/757
f 759/759/759 757/757/757 758/758/758
f 760/760/760 761/761/761 750/750/750
f 752/752/752 750/750/750 761/761/761
f 761/761/761 762/762/762 752/752/752
f 754/754/754 752/752/752 762/762/762
f 762/762/762 763/763/763 754/754/754
f 756/756/756 754/754/754 763/763/763
f 763/763/763 764/764/764 756/756/756
f 758/758/758 756/756/756 764/764/764
f 765/765/765 766/766/766 760/760/760
f 761/761/761 760/760/760 766/766/766
f 766/766/766 767/767/767 761/761/761
f 762/762/762 761/761/761 767/767/767
f 767/767/767 768/768/768 762/762/762
f 763/763/763 762/762/762 768/768/768
f 768/768/768 769/769/769 763/763/763
f 764/764/764 763/763/763 769/769/769
f 770/770/770 771/771/771 765/765/765
f 766/766/766 765/765/765 771/771/771
f 771/771/771 772/772/772 766/766/766
f 767/767/767 766/766/766 772/772/772
f 772/772/772 773/773/773 767/767/767
f 768/768/768 767/767/767 773/773/773
f 773/773/773 774/774/774 768/768/768
f 769/769/769 768/768/768 774/774/774
f 775/775/775 776/776/776 770/770/770
f 771/771/771 770/770/770 776/776/776
f 776/776/776 777/777/777 771/771/771
f 772/772/772 771/771/771 777/777/777
f 777/777/777 778/778/778 772/772/772
f 773/773/773 772/772/772 778/778/778
f 778/778/778 779/779/779 773/773/773
f 774/774/774 773/773/773 779/779/779

g arrow
# texture: arrow.tga
v -9.590304 50.6836 -71.43599
v -5.421205 41.0771 -64.06779
v -10.1747 57.00709 -62.861
v -6.005605 47.4006 -55.49279
v -47.63421 113.5878 -90.9995
v -41.83181 118.9992 -80.9494
v -49.88901 123.2585 -94.90479
v -44.08651 128.6699 -84.85468
vn -0.943906 -0.293202 0.151901
vn -0.943906 -0.293202 0.151901
vn -0.943906 -0.293202 0.151901
vn -0.943906 -0.293202 0.151901
vn -0.866019 0 0.500011
vn -0.866019 0 0.500011
vn -0.866019 0 0.500011
vn -0.866019 0 0.500011
vt 0.0005 0.9995
vt 0.9995 0.9995
vt 0.0005 0.0005
vt 0.9995 0.0005
vt 0.0005 0.9995
vt 0.9995 0.9995
vt 0.0005 0.0005
vt 0.9995 0.0005
f 780/780/780 782/782/782 781/781/781
f 783/783/783 781/781/781 782/782/782
f 784/784/784 786/786/786 785/785/785
f 787/787/787 785/785/785 786/786/786
