# Object49.bmd — MU geometry at action 0 key 0, exported for MU2
# 1 mesh(es)

g flag
# texture: flag.jpg
v -12.6187 10.9871 -7.079605
v -21.0171 7.7388 -8.693804
v -20.36381 5.909201 -6.709404
v -13.73479 12.1216 -8.707206
v -31.307 7.7339 -9.322304
v -31.3212 5.321001 -6.865402
v -11.3534 9.855999 -8.758606
v -20.36381 5.909201 -6.709404
v -19.45151 3.8782 -8.911004
v -12.6187 10.9871 -7.079605
v -31.3212 5.321001 -6.865402
v -31.2513 2.859 -9.303903
v -31.237 5.2719 -11.7607
v -20.1048 5.7078 -10.8954
v -31.307 7.7339 -9.322304
v -13.73479 12.1216 -8.707206
v -12.4695 10.9905 -10.3862
v -12.4695 10.9905 -10.3862
v -12.6187 10.9871 -7.079605
v -11.3534 9.855999 -8.758606
v 10.3739 21.449 21.16419
v 18.099 5.262501 27.35659
v 14.26958 22.36371 26.6336
v 24.0275 6.998802 34.23929
v 23.61619 19.5981 39.41608
v 14.0726 17.4343 31.40509
v 18.3265 3.572502 31.02639
v 21.40108 30.1716 31.10928
v 15.18428 31.29621 27.28159
v 14.0726 17.4343 31.40509
v 23.61619 19.5981 39.41608
v 7.195683 22.1423 10.11749
v 10.1558 19.0251 16.00649
v 14.1453 28.0675 16.47619
v 34.22419 5.262503 13.82599
v 29.46729 21.449 5.142988
v 34.17708 22.3637 9.92919
v 24.42581 19.0251 4.03249
v 24.1956 28.0675 8.042988
v 29.46729 21.449 5.142988
v 37.3465 30.1716 17.72949
v 45.1424 19.5981 21.35339
v 38.91028 17.4343 10.56379
v 34.65648 31.2962 10.9425
v 39.97289 6.9988 20.85959
v 37.79868 3.572502 14.68719
v 38.91028 17.4343 10.56379
v 45.1424 19.5981 21.35339
v 11.1324 5.910301 14.80899
v 10.1558 19.0251 16.00649
v 12.2015 9.370901 3.954292
v 16.88829 2.121901 9.539789
v 11.24861 25.3342 2.818691
v 12.2015 9.370901 3.954292
v 19.14029 22.1423 0.094791
v 23.07689 5.910301 4.786293
v 24.42581 19.0251 4.03249
v 18.95058 30.0069 11.99759
v 32.66581 35.256 28.34268
v 24.3858 36.0125 18.47499
v 37.5617 20.4711 34.17739
v 36.2114 3.972702 32.56819
v 37.5617 20.4711 34.17739
v 28.5971 -1.143898 23.49389
v 14.26958 22.36371 26.6336
v 18.099 5.262501 27.35659
v 18.3265 3.572502 31.02639
v 18.3265 3.572502 31.02639
v 14.0726 17.4343 31.40509
v 14.26958 22.36371 26.6336
v 16.1087 28.6965 23.63269
v 14.26958 22.36371 26.6336
v 14.0726 17.4343 31.40509
v 14.0726 17.4343 31.40509
v 15.18428 31.29621 27.28159
v 16.1087 28.6965 23.63269
v 34.22419 5.262503 13.82599
v 34.17708 22.3637 9.92919
v 38.91028 17.4343 10.56379
v 38.91028 17.4343 10.56379
v 37.79868 3.572502 14.68719
v 34.22419 5.262503 13.82599
v 34.17708 22.3637 9.92919
v 30.90239 28.6965 11.21928
v 34.65648 31.2962 10.9425
v 34.65648 31.2962 10.9425
v 38.91028 17.4343 10.56379
v 34.17708 22.3637 9.92919
v 23.06289 32.6022 16.89839
v 16.1087 28.6965 23.63269
v 15.18428 31.29621 27.28159
v 15.18428 31.29621 27.28159
v 24.3858 36.0125 18.47499
v 23.06289 32.6022 16.89839
v 30.90239 28.6965 11.21928
v 23.06289 32.6022 16.89839
v 24.3858 36.0125 18.47499
v 24.3858 36.0125 18.47499
v 34.65648 31.2962 10.9425
v 30.90239 28.6965 11.21928
v 18.099 5.262501 27.35659
v 26.6043 1.356899 21.11889
v 28.5971 -1.143898 23.49389
v 18.3265 3.572502 31.02639
v 26.6043 1.356899 21.11889
v 34.22419 5.262503 13.82599
v 37.79868 3.572502 14.68719
v 28.5971 -1.143898 23.49389
v 10.3739 21.449 21.16419
v 16.1087 28.6965 23.63269
v 14.26958 22.36371 26.6336
v 30.90239 28.6965 11.21928
v 34.17708 22.3637 9.92919
v 23.06289 32.6022 16.89839
v 26.6043 1.356899 21.11889
v 21.3387 13.9626 30.75729
v 8.086697 15.2637 38.45879
v 15.4234 12.56871 25.4008
v 15.19549 16.20481 39.46128
v 14.5813 21.06101 52.20009
v 15.4234 12.56871 25.4008
v 7.382092 21.4806 37.619
v 14.33129 22.2048 24.09919
v 8.086697 15.2637 38.45879
v 14.5813 21.06101 52.20009
v 14.33129 22.2048 24.09919
v 14.49091 22.4217 38.62148
v 20.2466 23.5988 29.45569
v 7.382092 21.4806 37.619
v 14.5813 21.06101 52.20009
v 20.2466 23.5988 29.45569
v 15.19549 16.20481 39.46128
v 21.3387 13.9626 30.75729
v 14.49091 22.4217 38.62148
v 14.5813 21.06101 52.20009
v 37.26159 13.9626 17.39639
v 33.01368 12.5687 10.64089
v 47.14719 15.2637 5.68309
v 46.90009 16.2048 12.85799
v 59.552 21.061 14.46519
v 33.01368 12.5687 10.64089
v 31.92148 22.2048 9.339289
v 46.44258 21.4806 4.843388
v 47.14719 15.2637 5.68309
v 59.552 21.061 14.46519
v 31.92148 22.2048 9.339289
v 36.1694 23.5988 16.09479
v 46.1954 22.4217 12.01818
v 46.44258 21.4806 4.843388
v 59.552 21.061 14.46519
v 36.1694 23.5988 16.09479
v 37.26159 13.9626 17.39639
v 46.90009 16.2048 12.85799
v 46.1954 22.4217 12.01818
v 59.552 21.061 14.46519
v -20.1048 5.7078 -10.8954
v -11.3534 9.855999 -8.758606
v -12.4695 10.9905 -10.3862
v -31.237 5.2719 -11.7607
v -19.45151 3.8782 -8.911004
v -20.1048 5.7078 -10.8954
v -37.55939 6.049201 -1.153004
v -31.7475 9.308498 -24.4602
v -37.4654 5.939898 -24.4444
v -31.8415 9.417798 -1.168903
v -31.59921 11.2392 -43.4987
v -37.3171 7.870598 -43.4828
v -28.53941 3.826401 -1.118903
v -28.44541 3.717098 -24.4102
v -31.7475 9.308498 -24.4602
v -31.8415 9.417798 -1.168903
v -28.2971 5.6478 -43.4487
v -31.59921 11.2392 -43.4987
v -28.2971 5.6478 -43.4487
v -34.01501 2.279198 -43.4329
v -31.59921 11.2392 -43.4987
v -34.01501 2.279198 -43.4329
v -34.16331 0.3485 -24.3944
v -37.3171 7.870598 -43.4828
v -34.2573 0.4578 -1.103102
v -37.55939 6.049201 -1.153004
v -34.2573 0.4578 -1.103102
v -28.53941 3.826401 -1.118903
v -31.8415 9.417798 -1.168903
v -7.6152 12.0689 -18.36271
v -18.5784 7.8285 -20.4699
v -17.7256 5.4401 -17.8794
v -9.072098 13.5498 -20.48741
v -32.0108 7.822 -21.2903
v -32.0295 4.6723 -18.0831
v -5.963497 10.5923 -20.55441
v -17.7256 5.4401 -17.8794
v -16.53471 2.788799 -20.7534
v -7.6152 12.0689 -18.36271
v -32.0295 4.6723 -18.0831
v -31.9381 1.4584 -21.2663
v -31.9194 4.608199 -24.4734
v -17.3876 5.177199 -23.3439
v -32.0108 7.822 -21.2903
v -9.072098 13.5498 -20.48741
v -7.420403 12.0732 -22.67911
v -7.420403 12.0732 -22.67911
v -7.6152 12.0689 -18.36271
v -5.963497 10.5923 -20.55441
v -17.3876 5.177199 -23.3439
v -5.963497 10.5923 -20.55441
v -7.420403 12.0732 -22.67911
v -31.9194 4.608199 -24.4734
v -16.53471 2.788799 -20.7534
v -17.3876 5.177199 -23.3439
v -10.94661 10.9871 -31.2788
v -19.34501 7.738798 -32.8931
v -18.69171 5.909199 -30.9086
v -12.06271 12.1216 -32.90651
v -29.6349 7.733898 -33.5215
v -29.6491 5.320999 -31.0647
v -9.681309 9.855999 -32.95781
v -18.69171 5.909199 -30.9086
v -17.77941 3.878199 -33.1102
v -10.94661 10.9871 -31.2788
v -29.6491 5.320999 -31.0647
v -29.5792 2.858997 -33.5032
v -29.56481 5.2719 -35.96
v -18.4327 5.707798 -35.0947
v -29.6349 7.733898 -33.5215
v -12.06271 12.1216 -32.90651
v -10.7974 10.9905 -34.58541
v -10.7974 10.9905 -34.58541
v -10.94661 10.9871 -31.2788
v -9.681309 9.855999 -32.95781
v -18.4327 5.707798 -35.0947
v -9.681309 9.855999 -32.95781
v -10.7974 10.9905 -34.58541
v -29.56481 5.2719 -35.96
v -17.77941 3.878199 -33.1102
v -18.4327 5.707798 -35.0947
v -54.6414 12.0578 -7.664001
v -46.8964 6.9798 -7.293801
v -46.243 8.809401 -9.278202
v -53.5253 13.1922 -9.291602
v -35.9389 6.391601 -7.449803
v -35.9532 8.8045 -9.906704
v -55.9067 10.9267 -9.343002
v -47.8086 4.948801 -9.495401
v -46.8964 6.9798 -7.293801
v -54.6414 12.0578 -7.664001
v -36.0088 3.9297 -9.888302
v -35.9389 6.391601 -7.449803
v -36.0232 6.3426 -12.3451
v -47.1553 6.778399 -11.4798
v -35.9532 8.8045 -9.906704
v -54.7906 12.0611 -10.9706
v -53.5253 13.1922 -9.291602
v -54.7906 12.0611 -10.9706
v -55.9067 10.9267 -9.343002
v -54.6414 12.0578 -7.664001
v -47.1553 6.778399 -11.4798
v -55.9067 10.9267 -9.343002
v -54.7906 12.0611 -10.9706
v -36.0232 6.3426 -12.3451
v -47.8086 4.948801 -9.495401
v -47.1553 6.778399 -11.4798
v -56.9275 13.1395 -18.9471
v -46.8171 6.5107 -18.4638
v -45.9643 8.899099 -21.0543
v -55.4706 14.6204 -21.0718
v -32.5132 5.742899 -18.6675
v -32.5319 8.892699 -21.8747
v -58.5792 11.6629 -21.1388
v -48.008 3.859499 -21.3378
v -46.8171 6.5107 -18.4638
v -56.9275 13.1395 -18.9471
v -32.6046 2.529099 -21.8507
v -32.5132 5.742899 -18.6675
v -32.6233 5.678899 -25.0579
v -47.15511 6.247799 -23.9283
v -32.5319 8.892699 -21.8747
v -57.1223 13.1439 -23.2635
v -55.4706 14.6204 -21.0718
v -57.1223 13.1439 -23.2635
v -58.5792 11.6629 -21.1388
v -56.9275 13.1395 -18.9471
v -47.15511 6.247799 -23.9283
v -58.5792 11.6629 -21.1388
v -57.1223 13.1439 -23.2635
v -32.6233 5.678899 -25.0579
v -48.008 3.859499 -21.3378
v -47.15511 6.247799 -23.9283
v -54.6414 12.0578 -31.8632
v -46.8964 6.979798 -31.493
v -46.243 8.809399 -33.4775
v -53.5253 13.1922 -33.4909
v -35.9389 6.391598 -31.6491
v -35.9532 8.804497 -34.1059
v -55.9067 10.9267 -33.5422
v -47.8086 4.948799 -33.6947
v -46.8964 6.979798 -31.493
v -54.6414 12.0578 -31.8632
v -36.0088 3.929697 -34.0876
v -35.9389 6.391598 -31.6491
v -36.02321 6.3426 -36.5444
v -47.1553 6.778399 -35.6791
v -35.9532 8.804497 -34.1059
v -54.7906 12.0611 -35.1698
v -53.5253 13.1922 -33.4909
v -54.7906 12.0611 -35.1698
v -55.9067 10.9267 -33.5422
v -54.6414 12.0578 -31.8632
v -47.1553 6.778399 -35.6791
v -55.9067 10.9267 -33.5422
v -54.7906 12.0611 -35.1698
v -36.02321 6.3426 -36.5444
v -47.8086 4.948799 -33.6947
v -47.1553 6.778399 -35.6791
v -43.61169 10.5057 50.6232
v -33.2859 3.817303 41.9342
v -34.06819 5.189705 39.1809
v -43.5026 11.1403 47.68921
v -19.2349 0.7537 27.9466
v -21.26859 2.783199 25.56129
v -46.62609 9.437008 51.07581
v -36.2723 1.708603 41.671
v -33.2859 3.817303 41.9342
v -43.61169 10.5057 50.6232
v -21.3256 -2.002499 26.49359
v -19.2349 0.7537 27.9466
v -23.35931 0.027103 24.1082
v -37.0546 3.081001 38.9177
v -21.26859 2.783199 25.56129
v -46.517 10.0716 48.1418
v -43.5026 11.1403 47.68921
v -46.517 10.0716 48.1418
v -46.62609 9.437008 51.07581
v -43.61169 10.5057 50.6232
v -37.0546 3.081001 38.9177
v -46.62609 9.437008 51.07581
v -46.517 10.0716 48.1418
v -23.35931 0.027103 24.1082
v -36.2723 1.708603 41.671
v -37.0546 3.081001 38.9177
v -24.9257 10.01481 47.83879
v -20.8425 2.655903 35.3475
v -22.7566 4.153702 33.30569
v -26.22079 10.70451 45.21769
v -15.8275 -1.294897 16.3288
v -18.5871 0.957705 15.2083
v -27.4062 9.201706 49.74129
v -23.7415 0.821003 36.63729
v -20.8425 2.655903 35.3475
v -24.9257 10.01481 47.83879
v -18.5929 -3.825098 16.1571
v -15.8275 -1.294897 16.3288
v -21.3525 -1.5725 15.0367
v -25.65549 2.318798 34.59549
v -18.5871 0.957705 15.2083
v -28.70129 9.891506 47.12019
v -26.22079 10.70451 45.21769
v -28.70129 9.891506 47.12019
v -27.4062 9.201706 49.74129
v -24.9257 10.01481 47.83879
v -25.65549 2.318798 34.59549
v -27.4062 9.201706 49.74129
v -28.70129 9.891506 47.12019
v -21.3525 -1.5725 15.0367
v -23.7415 0.821003 36.63729
v -25.65549 2.318798 34.59549
v 50.03009 10.005 -22.92131
v 45.7367 7.7335 -18.75791
v 47.13559 6.454 -18.33621
v 48.65 10.7984 -22.93491
v 41.2495 7.73 -13.11561
v 42.6511 6.0427 -12.12201
v 49.5758 9.214099 -24.31961
v 47.13559 6.454 -18.33621
v 46.2403 5.0337 -19.74191
v 50.03009 10.005 -22.92131
v 42.6511 6.0427 -12.12201
v 41.2823 4.3211 -13.14021
v 39.88068 6.0084 -14.13381
v 44.8415 6.3132 -20.16361
v 41.2495 7.73 -13.11561
v 48.65 10.7984 -22.93491
v 48.1958 10.0074 -24.33311
v 48.1958 10.0074 -24.33311
v 50.03009 10.005 -22.92131
v 49.5758 9.214099 -24.31961
v 44.8415 6.3132 -20.16361
v 49.5758 9.214099 -24.31961
v 48.1958 10.0074 -24.33311
v 39.88068 6.0084 -14.13381
v 46.2403 5.0337 -19.74191
v 44.8415 6.3132 -20.16361
v 44.95568 6.4066 -5.33121
v 32.46148 8.831199 -18.82571
v 30.1771 6.4755 -15.54401
v 46.81298 8.3218 -7.99931
v 19.16569 9.820899 -28.05541
v 17.14408 7.736198 -25.15121
v 47.913 5.1429 -9.520809
v 33.81459 4.921099 -20.69721
v 32.46148 8.831199 -18.82571
v 46.81298 8.3218 -7.99931
v 20.36309 6.360598 -29.71161
v 19.16569 9.820899 -28.05541
v 20.36309 6.360598 -29.71161
v 18.3415 4.275999 -26.80741
v 19.16569 9.820899 -28.05541
v 18.3415 4.275999 -26.80741
v 31.5302 2.565399 -17.41551
v 17.14408 7.736198 -25.15121
v 46.05581 3.2277 -6.852809
v 44.95568 6.4066 -5.33121
v 46.05581 3.2277 -6.852809
v 47.913 5.1429 -9.520809
v 46.81298 8.3218 -7.99931
v 45.63389 10.7615 -30.20381
v 40.0294 7.796198 -24.76891
v 41.8554 6.125999 -24.21841
v 43.83239 11.7971 -30.22141
v 34.17168 7.791699 -17.40341
v 36.00138 5.589 -16.10631
v 45.04089 9.728898 -32.02901
v 41.8554 6.125999 -24.21841
v 40.6867 4.271998 -26.05331
v 45.63389 10.7615 -30.20381
v 36.00138 5.589 -16.10631
v 34.21459 3.341599 -17.43541
v 32.3849 5.544299 -18.73251
v 38.86068 5.9422 -26.60381
v 34.17168 7.791699 -17.40341
v 43.83239 11.7971 -30.22141
v 43.23939 10.7645 -32.04671
v 43.23939 10.7645 -32.04671
v 45.63389 10.7615 -30.20381
v 45.04089 9.728898 -32.02901
v 38.86068 5.9422 -26.60381
v 45.04089 9.728898 -32.02901
v 43.23939 10.7645 -32.04671
v 32.3849 5.544299 -18.73251
v 40.6867 4.271998 -26.05331
v 38.86068 5.9422 -26.60381
v 36.00701 10.005 -32.59091
v 31.7136 7.733499 -28.42751
v 33.11241 6.453999 -28.00581
v 34.62689 10.7984 -32.60441
v 27.2264 7.729999 -22.78521
v 28.628 6.0427 -21.79161
v 35.55269 9.214096 -33.98921
v 33.11241 6.453999 -28.00581
v 32.21721 5.033699 -29.41151
v 36.00701 10.005 -32.59091
v 28.628 6.0427 -21.79161
v 27.2592 4.321099 -22.80971
v 25.8576 6.0084 -23.80341
v 30.81841 6.313198 -29.83321
v 27.2264 7.729999 -22.78521
v 34.62689 10.7984 -32.60441
v 34.17271 10.0074 -34.00271
v 34.17271 10.0074 -34.00271
v 36.00701 10.005 -32.59091
v 35.55269 9.214096 -33.98921
v 30.81841 6.313198 -29.83321
v 35.55269 9.214096 -33.98921
v 34.17271 10.0074 -34.00271
v 25.8576 6.0084 -23.80341
v 32.21721 5.033699 -29.41151
v 30.81841 6.313198 -29.83321
v 32.9001 10.7537 1.02569
v 36.2187 7.202701 -3.262409
v 35.344 8.482201 -4.432708
v 32.4154 11.5471 -0.266509
v 40.5244 6.7914 -9.60191
v 39.1113 8.478699 -10.57911
v 31.4308 9.962799 1.07699
v 34.59169 5.782401 -3.622909
v 36.2187 7.202701 -3.262409
v 32.9001 10.7537 1.02569
v 39.0995 5.0698 -10.53981
v 40.5244 6.7914 -9.60191
v 37.68639 6.7571 -11.51711
v 33.71688 7.061901 -4.793208
v 39.1113 8.478699 -10.57911
v 30.94609 10.7561 -0.21511
v 32.4154 11.5471 -0.266509
v 30.94609 10.7561 -0.21511
v 31.4308 9.962799 1.07699
v 32.9001 10.7537 1.02569
v 33.71688 7.061901 -4.793208
v 31.4308 9.962799 1.07699
v 30.94609 10.7561 -0.21511
v 37.68639 6.7571 -11.51711
v 34.59169 5.782401 -3.622909
v 33.71688 7.061901 -4.793208
v 25.51979 10.8319 -2.19041
v 29.8519 6.196401 -7.788208
v 28.7101 7.8666 -9.315808
v 24.8871 11.8675 -3.877209
v 35.4726 5.6594 -16.06361
v 33.6279 7.8621 -17.33931
v 23.60179 9.799299 -2.123409
v 27.728 4.3423 -8.258708
v 29.8519 6.196401 -7.788208
v 25.51979 10.8319 -2.19041
v 33.61248 3.411999 -17.28811
v 35.4726 5.6594 -16.06361
v 31.76789 5.614699 -18.56381
v 26.58609 6.0125 -9.786407
v 33.6279 7.8621 -17.33931
v 22.9691 10.8349 -3.810207
v 24.8871 11.8675 -3.877209
v 22.9691 10.8349 -3.810207
v 23.60179 9.799299 -2.123409
v 25.51979 10.8319 -2.19041
v 26.58609 6.0125 -9.786407
v 23.60179 9.799299 -2.123409
v 22.9691 10.8349 -3.810207
v 31.76789 5.614699 -18.56381
v 27.728 4.3423 -8.258708
v 26.58609 6.0125 -9.786407
v 19.038 11.3724 -8.680709
v 22.3566 7.8214 -12.96881
v 21.48188 9.1008 -14.13901
v 18.5533 12.1657 -9.972808
v 26.6623 7.410099 -19.30821
v 25.24919 9.097399 -20.28551
v 17.5687 10.5814 -8.629307
v 20.7295 6.4011 -13.32931
v 22.3566 7.8214 -12.96881
v 19.038 11.3724 -8.680709
v 25.2374 5.688399 -20.24621
v 26.6623 7.410099 -19.30821
v 23.8243 7.3757 -21.22351
v 19.8548 7.6806 -14.49951
v 25.24919 9.097399 -20.28551
v 17.084 11.3747 -9.921507
v 18.5533 12.1657 -9.972808
v 17.084 11.3747 -9.921507
v 17.5687 10.5814 -8.629307
v 19.038 11.3724 -8.680709
v 19.8548 7.6806 -14.49951
v 17.5687 10.5814 -8.629307
v 17.084 11.3747 -9.921507
v 23.8243 7.3757 -21.22351
v 20.7295 6.4011 -13.32931
v 19.8548 7.6806 -14.49951
v 4.387882 6.406597 -40.924
v 1.050697 8.831196 -47.4789
v -1.233704 6.475496 -44.19721
v 6.245098 8.3218 -43.5921
v -4.486 9.820896 -50.8764
v -6.507603 7.7362 -47.9722
v 7.345081 5.142899 -45.1137
v 2.403793 4.921097 -49.3504
v 1.050697 8.831196 -47.4789
v 6.245098 8.3218 -43.5921
v -3.288605 6.360596 -52.5327
v -4.486 9.820896 -50.8764
v -3.288605 6.360596 -52.5327
v -5.310207 4.275997 -49.62851
v -4.486 9.820896 -50.8764
v -5.310207 4.275997 -49.62851
v 0.119396 2.565395 -46.06871
v -6.507603 7.7362 -47.9722
v 5.487888 3.227699 -42.4456
v 4.387882 6.406597 -40.924
v 5.487888 3.227699 -42.4456
v 7.345081 5.142899 -45.1137
v 6.245098 8.3218 -43.5921
v 5.906887 6.4344 -24.36631
v 5.68961 8.506598 -30.64921
v 2.734692 6.493299 -28.93231
v 8.309299 8.071299 -25.76221
v 2.627888 9.3526 -35.281
v 0.012894 7.570797 -33.76151
v 9.711086 5.354299 -26.54351
v 7.413807 5.164698 -31.61021
v 5.68961 8.506598 -30.64921
v 8.309299 8.071299 -25.76221
v 4.153706 6.3951 -36.13141
v 2.627888 9.3526 -35.281
v 4.153706 6.3951 -36.13141
v 1.538692 4.613298 -34.61201
v 2.627888 9.3526 -35.281
v 1.538692 4.613298 -34.61201
v 4.458805 3.1513 -29.8933
v 0.012894 7.570797 -33.76151
v 7.308681 3.7174 -25.14761
v 5.906887 6.4344 -24.36631
v 7.308681 3.7174 -25.14761
v 9.711086 5.354299 -26.54351
v 8.309299 8.071299 -25.76221
v 17.47589 6.434399 -37.50471
v 12.52318 8.506598 -41.37691
v 11.93909 6.493298 -38.00961
v 17.95079 8.071297 -40.24241
v 7.007084 9.352598 -42.00871
v 6.490093 7.570799 -39.02881
v 18.25328 5.3543 -41.81841
v 12.89528 5.164698 -43.31541
v 12.52318 8.506598 -41.37691
v 17.95079 8.071297 -40.24241
v 7.336384 6.3951 -43.72421
v 7.007084 9.352598 -42.00871
v 7.336384 6.3951 -43.72421
v 6.819386 4.613298 -40.74431
v 7.007084 9.352598 -42.00871
v 6.819386 4.613298 -40.74431
v 12.31118 3.1513 -39.9481
v 6.490093 7.570799 -39.02881
v 17.77839 3.717398 -39.0808
v 17.47589 6.434399 -37.50471
v 17.77839 3.717398 -39.0808
v 18.25328 5.3543 -41.81841
v 17.95079 8.071297 -40.24241
v -41.6417 2.961903 22.3497
v -31.1322 2.655903 14.4594
v -31.529 4.1537 11.68899
v -41.1992 3.6516 19.45979
v -16.1155 0.029501 1.756697
v -17.7333 2.282001 -0.744005
v -44.7648 2.1488 22.48539
v -34.2467 0.821001 13.8532
v -31.1322 2.655903 14.4594
v -41.6417 2.961903 22.3497
v -18.2823 -2.500699 0.029996
v -16.1155 0.029501 1.756697
v -19.9001 -0.248099 -2.470703
v -34.6435 2.318802 11.0828
v -17.7333 2.282001 -0.744005
v -44.3223 2.838602 19.5955
v -41.1992 3.6516 19.45979
v -44.3223 2.838602 19.5955
v -44.7648 2.1488 22.48539
v -41.6417 2.961903 22.3497
v -34.6435 2.318802 11.0828
v -44.7648 2.1488 22.48539
v -44.3223 2.838602 19.5955
v -19.9001 -0.248099 -2.470703
v -34.2467 0.821001 13.8532
v -34.6435 2.318802 11.0828
v 0.986698 3.577606 26.5393
v 7.225819 6.002102 22.64359
v 3.757504 3.646503 20.65389
v 3.806499 5.492802 28.15699
v 10.1278 6.991899 16.83179
v 7.058498 4.9072 15.07099
v 5.418217 2.313805 29.12019
v 9.208103 2.092003 23.8284
v 7.225819 6.002102 22.64359
v 3.806499 5.492802 28.15699
v 11.8821 3.531601 17.88029
v 10.1278 6.991899 16.83179
v 11.8821 3.531601 17.88029
v 8.812801 1.446903 16.1195
v 10.1278 6.991899 16.83179
v 8.812801 1.446903 16.1195
v 5.739803 -0.263598 21.83869
v 7.058498 4.9072 15.07099
v 2.5984 0.398602 27.50259
v 0.986698 3.577606 26.5393
v 2.5984 0.398602 27.50259
v 5.418217 2.313805 29.12019
v 3.806499 5.492802 28.15699
v -15.3756 3.605301 29.4957
v -9.135498 5.677605 28.73159
v -11.10349 3.664204 25.9376
v -13.7756 5.242203 31.7673
v -4.788193 6.523502 25.27789
v -6.5298 4.741802 22.80529
v -12.8751 2.5252 33.09559
v -8.027905 2.335602 30.3655
v -9.135498 5.677605 28.73159
v -13.7756 5.242203 31.7673
v -3.808102 3.566002 26.7238
v -4.788193 6.523502 25.27789
v -3.808102 3.566002 26.7238
v -5.549603 1.784302 24.25119
v -4.788193 6.523502 25.27789
v -5.549603 1.784302 24.25119
v -9.995899 0.322201 27.57139
v -6.5298 4.741802 22.80529
v -14.47511 0.888302 30.82409
v -15.3756 3.605301 29.4957
v -14.47511 0.888302 30.82409
v -12.8751 2.5252 33.09559
v -13.7756 5.242203 31.7673
v -1.278797 3.605305 39.87559
v 2.146896 5.677601 34.60429
v -1.258503 3.6642 34.31579
v 1.489704 5.242207 40.1101
v 2.295597 6.523502 29.05399
v -0.717995 4.741802 28.79879
v 3.086109 2.5252 40.27409
v 4.110401 2.335606 34.806
v 2.146896 5.677601 34.60429
v 1.489704 5.242207 40.1101
v 4.033199 3.566002 29.23259
v 2.295597 6.523502 29.05399
v 4.033199 3.566002 29.23259
v 1.019596 1.784302 28.97729
v 2.295597 6.523502 29.05399
v 1.019596 1.784302 28.97729
v 0.705097 0.322205 34.51749
v -0.717995 4.741802 28.79879
v 0.317505 0.888302 40.03959
v -1.278797 3.605305 39.87559
v 0.317505 0.888302 40.03959
v 3.086109 2.5252 40.27409
v 1.489704 5.242207 40.1101
vn 0.328695 0.661589 0.673989
vn -0.261099 0.965295 -0.0058
vn 0.093903 0.041201 0.994729
vn -0.158398 0.953987 -0.254597
vn -0.0211 0.95361 0.300303
vn 0.0082 -0.324485 0.945856
vn 0.834312 -0.550908 0.0206
vn 0.093903 0.041201 0.994729
vn 0.261308 -0.965231 0.0069
vn 0.328695 0.661589 0.673989
vn 0.0082 -0.324485 0.945856
vn 0.085798 -0.996273 0.0089
vn 0.083698 0.0047 -0.99648
vn 0.059002 0.020801 -0.998041
vn -0.0211 0.95361 0.300303
vn -0.158398 0.953987 -0.254597
vn 0.584989 0.605589 -0.53949
vn 0.584989 0.605589 -0.53949
vn 0.328695 0.661589 0.673989
vn 0.834312 -0.550908 0.0206
vn -0.938286 0.176397 0.297496
vn -0.667761 -0.625863 0.402977
vn -0.816829 0.153005 0.55622
vn -0.2089 -0.5318 0.820701
vn -0.120698 0.119398 0.985483
vn -0.55028 0.050198 0.83347
vn -0.169407 -0.509322 0.843737
vn -0.34501 0.66882 0.658519
vn -0.302199 0.662397 0.685497
vn -0.55028 0.050198 0.83347
vn -0.120698 0.119398 0.985483
vn -0.982374 0.172795 0.071298
vn -0.991802 0.0288 0.1245
vn -0.683882 0.726781 0.063998
vn 0.512803 -0.625904 -0.587603
vn 0.45593 0.176412 -0.872357
vn 0.689621 0.153005 -0.707822
vn 0.294807 0.028801 -0.955123
vn 0.181794 0.726777 -0.662379
vn 0.45593 0.176412 -0.872357
vn 0.708425 0.668824 -0.225408
vn 0.991474 0.119397 0.052199
vn 0.916365 0.050198 -0.397185
vn 0.727526 0.662424 -0.178607
vn 0.844506 -0.531804 -0.0632
vn 0.860337 -0.509322 -0.020301
vn 0.916365 0.050198 -0.397185
vn 0.991474 0.119397 0.052199
vn -0.895983 -0.437692 0.075099
vn -0.991802 0.0288 0.1245
vn -0.58409 -0.417493 -0.696088
vn -0.203891 -0.948359 -0.242989
vn -0.473381 0.676473 -0.564177
vn -0.58409 -0.417493 -0.696088
vn 0.240793 0.172795 -0.955071
vn 0.229508 -0.437715 -0.869329
vn 0.294807 0.028801 -0.955123
vn -0.237592 0.929168 -0.28319
vn 0.386513 0.799026 0.460615
vn 0.108105 0.985747 0.128906
vn 0.633017 0.173605 0.754421
vn 0.538808 -0.545208 0.64221
vn 0.633017 0.173605 0.754421
vn 0.318289 -0.868768 0.379386
vn -0.97464 -0.220009 -0.040902
vn -0.97464 -0.220009 -0.040902
vn -0.97464 -0.220009 -0.040902
vn -0.909151 -0.270315 -0.316818
vn -0.909151 -0.270315 -0.316818
vn -0.909151 -0.270315 -0.316818
vn -0.806197 0.427799 0.408699
vn -0.806197 0.427799 0.408699
vn -0.806197 0.427799 0.408699
vn -0.968701 0.0039 -0.2482
vn -0.968701 0.0039 -0.2482
vn -0.968701 0.0039 -0.2482
vn -0.100402 -0.221305 -0.970022
vn -0.100402 -0.221305 -0.970022
vn -0.100402 -0.221305 -0.970022
vn 0.091998 -0.290695 -0.952383
vn 0.091998 -0.290695 -0.952383
vn 0.091998 -0.290695 -0.952383
vn -0.155105 0.119604 -0.980631
vn -0.155105 0.119604 -0.980631
vn -0.155105 0.119604 -0.980631
vn 0.231204 0.097402 -0.968017
vn 0.231204 0.097402 -0.968017
vn 0.231204 0.097402 -0.968017
vn -0.739241 0.445725 -0.504828
vn -0.739241 0.445725 -0.504828
vn -0.739241 0.445725 -0.504828
vn -0.718427 0.501519 -0.482018
vn -0.718427 0.501519 -0.482018
vn -0.718427 0.501519 -0.482018
vn -0.331593 0.49879 -0.800784
vn -0.331593 0.49879 -0.800784
vn -0.331593 0.49879 -0.800784
vn -0.377892 0.46019 -0.803382
vn -0.377892 0.46019 -0.803382
vn -0.377892 0.46019 -0.803382
vn -0.575926 -0.755534 -0.312214
vn -0.575926 -0.755534 -0.312214
vn -0.575926 -0.755534 -0.312214
vn -0.575926 -0.755534 -0.312214
vn -0.207503 -0.75551 -0.621408
vn -0.207503 -0.75551 -0.621408
vn -0.207503 -0.75551 -0.621408
vn -0.207503 -0.75551 -0.621408
vn -0.938286 0.176397 0.297496
vn -0.705299 0.667299 0.2393
vn -0.816829 0.153005 0.55622
vn 0.358199 0.667298 -0.652998
vn 0.689621 0.153005 -0.707822
vn -0.21071 0.944746 -0.251112
vn -0.032501 -0.998722 -0.038701
vn 0.057302 -0.963526 0.261407
vn 0.062502 -0.953726 0.294108
vn 0.031501 -0.975215 0.219004
vn 0.077896 -0.940451 0.330883
vn 0.072698 -0.930775 0.358291
vn -0.874263 -0.160993 -0.45798
vn -0.975381 -0.134197 -0.174997
vn -0.874263 -0.160993 -0.45798
vn -0.993449 -0.113894 -0.009299
vn -0.896341 -0.041997 0.441371
vn -0.174302 0.984609 -0.0128
vn -0.164592 0.986053 0.024699
vn -0.218894 0.975672 -0.0122
vn -0.137102 0.989615 0.0432
vn -0.144399 0.984494 0.099599
vn 0.82531 0.166402 0.539606
vn 0.914194 0.154199 0.374797
vn 0.82531 0.166402 0.539606
vn 0.947782 0.145697 0.283694
vn 0.993562 0.113196 0.0047
vn 0.247506 -0.963523 0.101803
vn 0.210203 -0.975213 0.069101
vn 0.278715 -0.95375 0.112606
vn 0.312292 -0.940475 0.134096
vn 0.340284 -0.930756 0.133794
vn -0.299203 -0.161001 -0.940509
vn -0.299203 -0.161001 -0.940509
vn -0.003 -0.134193 -0.990951
vn 0.163297 -0.113898 -0.97998
vn 0.590295 -0.042 -0.806094
vn 0.0177 0.984604 -0.173901
vn 0.025999 0.975671 -0.217694
vn 0.052898 0.986055 -0.157793
vn 0.066301 0.98962 -0.127503
vn 0.123199 0.984491 -0.124899
vn 0.38809 0.166396 0.906476
vn 0.38809 0.166396 0.906476
vn 0.2103 0.1542 0.9654
vn 0.114805 0.145707 0.982644
vn -0.167897 0.113198 0.979284
vn 0.059002 0.020801 -0.998041
vn 0.834312 -0.550908 0.0206
vn 0.584989 0.605589 -0.53949
vn 0.083698 0.0047 -0.99648
vn 0.261308 -0.965231 0.0069
vn 0.059002 0.020801 -0.998041
vn -0.913872 0.238193 0.32879
vn 0.249894 0.967777 0.030999
vn -0.968424 0.249106 0.0101
vn 0.1425 0.5647 0.812901
vn 0.24401 0.93784 -0.246811
vn -0.562111 0.138303 -0.815416
vn 0.768288 0.457693 0.447493
vn 0.860221 0.508412 0.039201
vn 0.249894 0.967777 0.030999
vn 0.1425 0.5647 0.812901
vn 0.395705 0.225703 -0.890211
vn 0.24401 0.93784 -0.246811
vn 0.395705 0.225703 -0.890211
vn -0.749866 -0.44718 -0.487578
vn 0.24401 0.93784 -0.246811
vn -0.749866 -0.44718 -0.487578
vn -0.86082 -0.508512 -0.0201
vn -0.562111 0.138303 -0.815416
vn -0.387282 -0.22069 0.895159
vn -0.913872 0.238193 0.32879
vn -0.387282 -0.22069 0.895159
vn 0.768288 0.457693 0.447493
vn 0.1425 0.5647 0.812901
vn 0.328695 0.661589 0.673989
vn -0.261099 0.965295 -0.0058
vn 0.093903 0.041201 0.994729
vn -0.158398 0.953987 -0.254597
vn -0.0211 0.95361 0.300303
vn 0.0082 -0.324485 0.945856
vn 0.834312 -0.550908 0.0206
vn 0.093903 0.041201 0.994729
vn 0.261308 -0.965231 0.0069
vn 0.328695 0.661589 0.673989
vn 0.0082 -0.324485 0.945856
vn 0.085798 -0.996273 0.0089
vn 0.083698 0.0047 -0.99648
vn 0.059002 0.020801 -0.998041
vn -0.0211 0.95361 0.300303
vn -0.158398 0.953987 -0.254597
vn 0.584989 0.605589 -0.53949
vn 0.584989 0.605589 -0.53949
vn 0.328695 0.661589 0.673989
vn 0.834312 -0.550908 0.0206
vn 0.059002 0.020801 -0.998041
vn 0.834312 -0.550908 0.0206
vn 0.584989 0.605589 -0.53949
vn 0.083698 0.0047 -0.99648
vn 0.261308 -0.965231 0.0069
vn 0.059002 0.020801 -0.998041
vn 0.328695 0.661589 0.673989
vn -0.261099 0.965295 -0.0058
vn 0.093903 0.041201 0.994729
vn -0.158398 0.953987 -0.254597
vn -0.0211 0.95361 0.300303
vn 0.0082 -0.324485 0.945856
vn 0.834312 -0.550908 0.0206
vn 0.093903 0.041201 0.994729
vn 0.261308 -0.965231 0.0069
vn 0.328695 0.661589 0.673989
vn 0.0082 -0.324485 0.945856
vn 0.085798 -0.996273 0.0089
vn 0.083698 0.0047 -0.99648
vn 0.059002 0.020801 -0.998041
vn -0.0211 0.95361 0.300303
vn -0.158398 0.953987 -0.254597
vn 0.584989 0.605589 -0.53949
vn 0.584989 0.605589 -0.53949
vn 0.328695 0.661589 0.673989
vn 0.834312 -0.550908 0.0206
vn 0.059002 0.020801 -0.998041
vn 0.834312 -0.550908 0.0206
vn 0.584989 0.605589 -0.53949
vn 0.083698 0.0047 -0.99648
vn 0.261308 -0.965231 0.0069
vn 0.059002 0.020801 -0.998041
vn -0.328694 0.661589 0.673988
vn -0.093903 0.041201 0.994729
vn 0.261099 0.965295 -0.0058
vn 0.158398 0.953987 -0.254597
vn -0.0082 -0.324485 0.945856
vn 0.0211 0.95361 0.300303
vn -0.834312 -0.550908 0.0206
vn -0.261308 -0.965231 0.0069
vn -0.093903 0.041201 0.994729
vn -0.328694 0.661589 0.673988
vn -0.085798 -0.996273 0.0089
vn -0.0082 -0.324485 0.945856
vn -0.083698 0.0047 -0.99648
vn -0.059003 0.020801 -0.998041
vn 0.0211 0.95361 0.300303
vn -0.584989 0.605589 -0.53949
vn 0.158398 0.953987 -0.254597
vn -0.584989 0.605589 -0.53949
vn -0.834312 -0.550908 0.0206
vn -0.328694 0.661589 0.673988
vn -0.059003 0.020801 -0.998041
vn -0.834312 -0.550908 0.0206
vn -0.584989 0.605589 -0.53949
vn -0.083698 0.0047 -0.99648
vn -0.261308 -0.965231 0.0069
vn -0.059003 0.020801 -0.998041
vn -0.328694 0.661589 0.673988
vn -0.093903 0.041201 0.994729
vn 0.261099 0.965295 -0.0058
vn 0.158398 0.953987 -0.254597
vn -0.0082 -0.324485 0.945856
vn 0.0211 0.95361 0.300303
vn -0.834312 -0.550908 0.0206
vn -0.261308 -0.965231 0.0069
vn -0.093903 0.041201 0.994729
vn -0.328694 0.661589 0.673988
vn -0.085798 -0.996273 0.0089
vn -0.0082 -0.324485 0.945856
vn -0.083698 0.0047 -0.99648
vn -0.059003 0.020801 -0.998041
vn 0.0211 0.95361 0.300303
vn -0.584989 0.605589 -0.53949
vn 0.158398 0.953987 -0.254597
vn -0.584989 0.605589 -0.53949
vn -0.834312 -0.550908 0.0206
vn -0.328694 0.661589 0.673988
vn -0.059003 0.020801 -0.998041
vn -0.834312 -0.550908 0.0206
vn -0.584989 0.605589 -0.53949
vn -0.083698 0.0047 -0.99648
vn -0.261308 -0.965231 0.0069
vn -0.059003 0.020801 -0.998041
vn -0.328694 0.661589 0.673988
vn -0.093903 0.041201 0.994729
vn 0.261099 0.965295 -0.0058
vn 0.158398 0.953987 -0.254597
vn -0.0082 -0.324485 0.945856
vn 0.0211 0.95361 0.300303
vn -0.834312 -0.550908 0.0206
vn -0.261308 -0.965231 0.0069
vn -0.093903 0.041201 0.994729
vn -0.328694 0.661589 0.673988
vn -0.085798 -0.996273 0.0089
vn -0.0082 -0.324485 0.945856
vn -0.083698 0.0047 -0.99648
vn -0.059003 0.020801 -0.998041
vn 0.0211 0.95361 0.300303
vn -0.584989 0.605589 -0.53949
vn 0.158398 0.953987 -0.254597
vn -0.584989 0.605589 -0.53949
vn -0.834312 -0.550908 0.0206
vn -0.328694 0.661589 0.673988
vn -0.059003 0.020801 -0.998041
vn -0.834312 -0.550908 0.0206
vn -0.584989 0.605589 -0.53949
vn -0.083698 0.0047 -0.99648
vn -0.261308 -0.965231 0.0069
vn -0.059003 0.020801 -0.998041
vn 0.292798 0.839295 0.458097
vn 0.660195 0.162099 0.733394
vn 0.108803 0.955324 -0.274807
vn -0.101605 0.922042 -0.373517
vn 0.653516 -0.248906 0.714817
vn 0.192708 0.981239 0.0059
vn -0.447494 -0.661692 0.601592
vn -0.104002 -0.954114 0.280804
vn 0.660195 0.162099 0.733394
vn 0.292798 0.839295 0.458097
vn -0.027699 -0.976965 0.211593
vn 0.653516 -0.248906 0.714817
vn -0.743739 -0.112506 -0.658935
vn -0.734839 -0.102606 -0.670436
vn 0.192708 0.981239 0.0059
vn -0.66221 0.714011 -0.227304
vn -0.101605 0.922042 -0.373517
vn -0.66221 0.714011 -0.227304
vn -0.447494 -0.661692 0.601592
vn 0.292798 0.839295 0.458097
vn -0.734839 -0.102606 -0.670436
vn -0.447494 -0.661692 0.601592
vn -0.66221 0.714011 -0.227304
vn -0.743739 -0.112506 -0.658935
vn -0.104002 -0.954114 0.280804
vn -0.734839 -0.102606 -0.670436
vn 0.551994 0.799991 0.235197
vn 0.946936 0.087403 0.309312
vn 0.041801 0.948333 -0.314511
vn -0.191897 0.935684 -0.296095
vn 0.896312 -0.321104 0.305804
vn 0.255002 0.960409 -0.112201
vn -0.14871 -0.633941 0.758949
vn -0.034599 -0.947664 0.317388
vn 0.946936 0.087403 0.309312
vn 0.551994 0.799991 0.235197
vn -0.0046 -0.975468 0.220093
vn 0.896312 -0.321104 0.305804
vn -0.978329 -0.032401 -0.204506
vn -0.97543 -0.023001 -0.219107
vn 0.255002 0.960409 -0.112201
vn -0.623419 0.773824 0.112004
vn -0.191897 0.935684 -0.296095
vn -0.623419 0.773824 0.112004
vn -0.14871 -0.633941 0.758949
vn 0.551994 0.799991 0.235197
vn -0.97543 -0.023001 -0.219107
vn -0.14871 -0.633941 0.758949
vn -0.623419 0.773824 0.112004
vn -0.978329 -0.032401 -0.204506
vn -0.034599 -0.947664 0.317388
vn -0.97543 -0.023001 -0.219107
vn 0.740614 0.661613 0.117302
vn -0.154501 0.965308 0.210501
vn 0.86871 0.0412 0.493605
vn -0.299397 0.95399 -0.0163
vn 0.233903 0.953613 0.189503
vn 0.779499 -0.3245 0.535799
vn 0.49541 -0.550912 -0.671614
vn 0.86871 0.0412 0.493605
vn 0.155505 -0.965232 -0.210107
vn 0.740614 0.661613 0.117302
vn 0.779499 -0.3245 0.535799
vn 0.056498 -0.996272 -0.065198
vn -0.768246 0.0047 -0.640138
vn -0.783696 0.0208 -0.620797
vn 0.233903 0.953613 0.189503
vn -0.299397 0.95399 -0.0163
vn -0.106303 0.605618 -0.788623
vn -0.106303 0.605618 -0.788623
vn 0.740614 0.661613 0.117302
vn 0.49541 -0.550912 -0.671614
vn -0.783696 0.0208 -0.620797
vn 0.49541 -0.550912 -0.671614
vn -0.106303 0.605618 -0.788623
vn -0.768246 0.0047 -0.640138
vn 0.155505 -0.965232 -0.210107
vn -0.783696 0.0208 -0.620797
vn -0.244609 0.237309 0.940134
vn 0.178708 0.967444 -0.179208
vn -0.555799 0.2498 0.792898
vn 0.752172 0.554279 0.356387
vn -0.094298 0.927983 -0.360494
vn -0.990388 0.137598 -0.0141
vn 0.824491 0.449695 -0.343496
vn 0.520876 0.508476 -0.685668
vn 0.178708 0.967444 -0.179208
vn 0.752172 0.554279 0.356387
vn -0.506914 0.223106 -0.832623
vn -0.094298 0.927983 -0.360494
vn -0.506914 0.223106 -0.832623
vn -0.830365 -0.446782 0.332986
vn -0.094298 0.927983 -0.360494
vn -0.830365 -0.446782 0.332986
vn -0.508492 -0.508492 0.694889
vn -0.990388 0.137598 -0.0141
vn 0.511907 -0.220303 0.830312
vn -0.244609 0.237309 0.940134
vn 0.511907 -0.220303 0.830312
vn 0.824491 0.449695 -0.343496
vn 0.752172 0.554279 0.356387
vn 0.740614 0.661613 0.117302
vn -0.154501 0.965308 0.210501
vn 0.86871 0.0412 0.493605
vn -0.299397 0.95399 -0.0163
vn 0.233903 0.953613 0.189503
vn 0.779499 -0.3245 0.535799
vn 0.49541 -0.550912 -0.671614
vn 0.86871 0.0412 0.493605
vn 0.155505 -0.965232 -0.210107
vn 0.740614 0.661613 0.117302
vn 0.779499 -0.3245 0.535799
vn 0.056498 -0.996272 -0.065198
vn -0.768246 0.0047 -0.640138
vn -0.783696 0.0208 -0.620797
vn 0.233903 0.953613 0.189503
vn -0.299397 0.95399 -0.0163
vn -0.106303 0.605618 -0.788623
vn -0.106303 0.605618 -0.788623
vn 0.740614 0.661613 0.117302
vn 0.49541 -0.550912 -0.671614
vn -0.783696 0.0208 -0.620797
vn 0.49541 -0.550912 -0.671614
vn -0.106303 0.605618 -0.788623
vn -0.768246 0.0047 -0.640138
vn 0.155505 -0.965232 -0.210107
vn -0.783696 0.0208 -0.620797
vn 0.740614 0.661613 0.117302
vn -0.154501 0.965308 0.210501
vn 0.86871 0.0412 0.493605
vn -0.299397 0.95399 -0.0163
vn 0.233903 0.953613 0.189503
vn 0.779499 -0.3245 0.535799
vn 0.49541 -0.550912 -0.671614
vn 0.86871 0.0412 0.493605
vn 0.155505 -0.965232 -0.210107
vn 0.740614 0.661613 0.117302
vn 0.779499 -0.3245 0.535799
vn 0.056498 -0.996272 -0.065198
vn -0.768246 0.0047 -0.640138
vn -0.783696 0.0208 -0.620797
vn 0.233903 0.953613 0.189503
vn -0.299397 0.95399 -0.0163
vn -0.106303 0.605618 -0.788623
vn -0.106303 0.605618 -0.788623
vn 0.740614 0.661613 0.117302
vn 0.49541 -0.550912 -0.671614
vn -0.783696 0.0208 -0.620797
vn 0.49541 -0.550912 -0.671614
vn -0.106303 0.605618 -0.788623
vn -0.768246 0.0047 -0.640138
vn 0.155505 -0.965232 -0.210107
vn -0.783696 0.0208 -0.620797
vn 0.363601 0.661602 0.655802
vn 0.760972 0.041199 0.647476
vn 0.145 0.965298 -0.2172
vn -0.117797 0.953972 -0.275792
vn 0.77011 -0.324504 0.549207
vn 0.258101 0.953603 0.155
vn -0.461677 -0.550872 0.695265
vn -0.144205 -0.965234 0.218008
vn 0.760972 0.041199 0.647476
vn 0.363601 0.661602 0.655802
vn -0.041899 -0.99628 0.075299
vn 0.77011 -0.324504 0.549207
vn -0.86428 0.0047 -0.502989
vn -0.851402 0.0208 -0.524101
vn 0.258101 0.953603 0.155
vn -0.777465 0.605573 0.169792
vn -0.117797 0.953972 -0.275792
vn -0.777465 0.605573 0.169792
vn -0.461677 -0.550872 0.695265
vn 0.363601 0.661602 0.655802
vn -0.851402 0.0208 -0.524101
vn -0.461677 -0.550872 0.695265
vn -0.777465 0.605573 0.169792
vn -0.86428 0.0047 -0.502989
vn -0.144205 -0.965234 0.218008
vn -0.851402 0.0208 -0.524101
vn 0.363601 0.661602 0.655802
vn 0.760972 0.041199 0.647476
vn 0.145 0.965298 -0.2172
vn -0.117797 0.953972 -0.275792
vn 0.77011 -0.324504 0.549207
vn 0.258101 0.953603 0.155
vn -0.461677 -0.550872 0.695265
vn -0.144205 -0.965234 0.218008
vn 0.760972 0.041199 0.647476
vn 0.363601 0.661602 0.655802
vn -0.041899 -0.99628 0.075299
vn 0.77011 -0.324504 0.549207
vn -0.86428 0.0047 -0.502989
vn -0.851402 0.0208 -0.524101
vn 0.258101 0.953603 0.155
vn -0.777426 0.60562 0.169806
vn -0.117797 0.953972 -0.275792
vn -0.777426 0.60562 0.169806
vn -0.461677 -0.550872 0.695265
vn 0.363601 0.661602 0.655802
vn -0.851402 0.0208 -0.524101
vn -0.461677 -0.550872 0.695265
vn -0.777426 0.60562 0.169806
vn -0.86428 0.0047 -0.502989
vn -0.144205 -0.965234 0.218008
vn -0.851402 0.0208 -0.524101
vn 0.363601 0.661602 0.655802
vn 0.760972 0.041199 0.647476
vn 0.145 0.965298 -0.2172
vn -0.117797 0.953972 -0.275792
vn 0.77011 -0.324504 0.549207
vn 0.258101 0.953603 0.155
vn -0.461677 -0.550872 0.695265
vn -0.144205 -0.965234 0.218008
vn 0.760972 0.041199 0.647476
vn 0.363601 0.661602 0.655802
vn -0.041899 -0.99628 0.075299
vn 0.77011 -0.324504 0.549207
vn -0.86428 0.0047 -0.502989
vn -0.851402 0.0208 -0.524101
vn 0.258101 0.953603 0.155
vn -0.777465 0.605573 0.169792
vn -0.117797 0.953972 -0.275792
vn -0.777465 0.605573 0.169792
vn -0.461677 -0.550872 0.695265
vn 0.363601 0.661602 0.655802
vn -0.851402 0.0208 -0.524101
vn -0.461677 -0.550872 0.695265
vn -0.777465 0.605573 0.169792
vn -0.86428 0.0047 -0.502989
vn -0.144205 -0.965234 0.218008
vn -0.851402 0.0208 -0.524101
vn -0.180091 0.231788 0.955951
vn 0.224993 0.963071 -0.147896
vn -0.511408 0.247204 0.823014
vn 0.7576 0.5418 0.364
vn -0.035101 0.942938 -0.331113
vn -0.990522 0.137303 -0.0037
vn 0.83274 0.445522 -0.328716
vn 0.525604 0.508404 -0.682105
vn 0.224993 0.963071 -0.147896
vn 0.7576 0.5418 0.364
vn -0.507276 0.22289 -0.832461
vn -0.035101 0.942938 -0.331113
vn -0.507276 0.22289 -0.832461
vn -0.847097 -0.437498 0.301699
vn -0.035101 0.942938 -0.331113
vn -0.847097 -0.437498 0.301699
vn -0.486807 -0.508407 0.710311
vn -0.990522 0.137303 -0.0037
vn 0.522414 -0.214306 0.825322
vn -0.180091 0.231788 0.955951
vn 0.522414 -0.214306 0.825322
vn 0.83274 0.445522 -0.328716
vn 0.7576 0.5418 0.364
vn -0.567194 0.231798 0.790292
vn 0.266393 0.963075 -0.038999
vn -0.811299 0.2472 0.529799
vn 0.532786 0.541786 0.650083
vn 0.108105 0.942943 -0.314915
vn -0.896189 0.137298 -0.421895
vn 0.893642 0.445521 0.054002
vn 0.76465 0.508367 -0.396074
vn 0.266393 0.963075 -0.038999
vn 0.532786 0.541786 0.650083
vn -0.107906 0.222911 -0.968848
vn 0.108105 0.942943 -0.314915
vn -0.107906 0.222911 -0.968848
vn -0.895232 -0.437515 -0.084503
vn 0.108105 0.942943 -0.314915
vn -0.895232 -0.437515 -0.084503
vn -0.741404 -0.508403 0.438003
vn -0.896189 0.137298 -0.421895
vn 0.124697 -0.214295 0.968777
vn -0.567194 0.231798 0.790292
vn 0.124697 -0.214295 0.968777
vn 0.893642 0.445521 0.054002
vn 0.532786 0.541786 0.650083
vn 0.240797 0.231797 0.94249
vn 0.141397 0.96308 -0.229095
vn -0.115704 0.247208 0.96203
vn 0.840437 0.541823 0.0097
vn -0.171803 0.942913 -0.285304
vn -0.89927 0.137296 0.415286
vn 0.615785 0.445489 -0.649884
vn 0.188104 0.508411 -0.840318
vn 0.141397 0.96308 -0.229095
vn 0.840437 0.541823 0.0097
vn -0.811565 0.22289 -0.540077
vn -0.171803 0.942913 -0.285304
vn -0.811565 0.22289 -0.540077
vn -0.640223 -0.437516 0.631423
vn -0.171803 0.942913 -0.285304
vn -0.640223 -0.437516 0.631423
vn -0.141 -0.5084 0.849499
vn -0.89927 0.137296 0.415286
vn 0.822283 -0.214296 0.527189
vn 0.240797 0.231797 0.94249
vn 0.822283 -0.214296 0.527189
vn 0.615785 0.445489 -0.649884
vn 0.840437 0.541823 0.0097
vn 0.081104 0.89094 0.44682
vn 0.637234 0.0067 0.770641
vn -0.043298 0.994254 -0.097896
vn -0.196703 0.976314 -0.090101
vn 0.570195 -0.334797 0.750193
vn 0.217294 0.971874 0.090797
vn -0.136604 -0.974429 0.178405
vn -0.072198 -0.990266 0.118996
vn 0.637234 0.0067 0.770641
vn 0.081104 0.89094 0.44682
vn -0.085297 -0.986669 0.138596
vn 0.570195 -0.334797 0.750193
vn -0.684586 -0.032999 -0.728185
vn -0.68336 -0.018099 -0.729857
vn 0.217294 0.971874 0.090797
vn -0.469601 0.876803 -0.103401
vn -0.196703 0.976314 -0.090101
vn -0.469601 0.876803 -0.103401
vn -0.136604 -0.974429 0.178405
vn 0.081104 0.89094 0.44682
vn -0.68336 -0.018099 -0.729857
vn -0.136604 -0.974429 0.178405
vn -0.469601 0.876803 -0.103401
vn -0.684586 -0.032999 -0.728185
vn -0.072198 -0.990266 0.118996
vn -0.68336 -0.018099 -0.729857
vn -0.968005 0.231801 -0.0961
vn 0.166995 0.963073 0.211194
vn -0.864454 0.247215 -0.437727
vn -0.296608 0.541816 0.786422
vn 0.326812 0.942933 -0.063802
vn -0.082698 0.137296 -0.987072
vn 0.400102 0.445502 0.800904
vn 0.725296 0.508397 0.464197
vn 0.166995 0.963073 0.211194
vn -0.296608 0.541816 0.786422
vn 0.785086 0.222896 -0.57789
vn 0.326812 0.942933 -0.063802
vn 0.785086 0.222896 -0.57789
vn -0.374421 -0.437525 -0.817546
vn 0.326812 0.942933 -0.063802
vn -0.374421 -0.437525 -0.817546
vn -0.750038 -0.508426 -0.423021
vn -0.082698 0.137296 -0.987072
vn -0.776651 -0.214287 0.592363
vn -0.968005 0.231801 -0.0961
vn -0.776651 -0.214287 0.592363
vn 0.400102 0.445502 0.800904
vn -0.296608 0.541816 0.786422
vn -0.836695 0.231799 -0.496197
vn 0.062098 0.96307 0.261992
vn -0.598468 0.247187 -0.762059
vn -0.601192 0.541793 0.587392
vn 0.323208 0.942923 0.080202
vn 0.342213 0.137305 -0.929536
vn 0.024099 0.445483 0.894966
vn 0.461201 0.508401 0.727201
vn 0.062098 0.96307 0.261992
vn -0.601192 0.541793 0.587392
vn 0.955751 0.222889 -0.19199
vn 0.323208 0.942923 0.080202
vn 0.955751 0.222889 -0.19199
vn 0.0062 -0.437499 -0.899198
vn 0.323208 0.942923 0.080202
vn 0.0062 -0.437499 -0.899198
vn -0.500992 -0.508392 -0.700389
vn 0.342213 0.137305 -0.929536
vn -0.954231 -0.214307 0.208607
vn -0.836695 0.231799 -0.496197
vn -0.954231 -0.214307 0.208607
vn 0.024099 0.445483 0.894966
vn -0.601192 0.541793 0.587392
vn -0.91792 0.231805 0.322007
vn 0.240592 0.963068 0.120896
vn -0.968452 0.247213 -0.031402
vn 0.0636 0.541799 0.838098
vn 0.269207 0.942926 -0.196006
vn -0.492118 0.137305 -0.859632
vn 0.701087 0.445492 0.55679
vn 0.853511 0.508407 0.114201
vn 0.240592 0.963068 0.120896
vn 0.0636 0.541799 0.838098
vn 0.467315 0.222907 -0.855528
vn 0.269207 0.942926 -0.196006
vn 0.467315 0.222907 -0.855528
vn -0.684836 -0.437523 -0.58273
vn 0.269207 0.942926 -0.196006
vn -0.684836 -0.437523 -0.58273
vn -0.858542 -0.508425 -0.066403
vn -0.492118 0.137305 -0.859632
vn -0.453583 -0.214292 0.865068
vn -0.91792 0.231805 0.322007
vn -0.453583 -0.214292 0.865068
vn 0.701087 0.445492 0.55679
vn 0.0636 0.541799 0.838098
vt 0.0081 0.5838
vt 0.4961 0.6879
vt 0.4961 0.5838
vt 0.0081 0.6879
vt 0.984 0.6879
vt 0.984 0.5838
vt 0.0081 0.5838
vt 0.4961 0.6879
vt 0.4961 0.5838
vt 0.0081 0.6879
vt 0.984 0.6879
vt 0.984 0.5838
vt 0.0081 0.5838
vt 0.4961 0.5838
vt 0.0081 0.6879
vt 0.984 0.6879
vt 0.984 0.5838
vt 0.0081 0.5838
vt 0.984 0.6879
vt 0.984 0.5838
vt 0.4654 0.2016
vt 0.0988 0.2829
vt 0.3272 0.2757
vt 0.806 0.8463
vt 0.9368 0.928
vt 0.9846 0.7534
vt 0.8066 0.7534
vt 0.7554 0.8407
vt 0.7546 0.7496
vt 0.9848 0.7496
vt 0.9454 0.932
vt 0.872 0.0794
vt 0.9029 0.1611
vt 0.8412 0.2116
vt 0.0988 0.2829
vt 0.4654 0.2016
vt 0.3272 0.2757
vt 0.5233 0.1611
vt 0.5739 0.2116
vt 0.4454 0.2116
vt 0.256 0.8392
vt 0.0767 0.932
vt 0.0442 0.7496
vt 0.2568 0.7496
vt 0.2808 0.8414
vt 0.2841 0.7534
vt 0.047 0.7534
vt 0.1105 0.928
vt 0.1234 0.1425
vt 0.4787 0.1167
vt 0.3869 0.0778
vt 0.0146 0.1287
vt 0.7104 0.0285
vt 0.7104 0.0061
vt 0.5543 0.0794
vt 0.1234 0.1425
vt 0.4787 0.1167
vt 0.7104 0.2116
vt 0.511 0.9335
vt 0.511 0.7496
vt 0.511 1.0021
vt 0.5237 0.9293
vt 0.5237 0.9985
vt 0.5237 0.7534
vt 3.3065 2.1739
vt -7.1956 2.1739
vt -8.5127 3.7578
vt -8.5127 3.7578
vt 0.9995 0.0005
vt 3.3065 2.1739
vt 7.1956 2.1739
vt 3.3065 2.1739
vt 0.9995 0.0005
vt 0.9995 0.0005
vt 0.8916 0.0005
vt 7.1956 2.1739
vt -7.1956 2.1739
vt 3.3065 2.1739
vt 0.0005 0.0005
vt 0.0005 0.0005
vt -8.5127 3.7578
vt -7.1956 2.1739
vt 3.3065 2.1739
vt 7.1956 2.1739
vt 0.1084 0.0005
vt 0.1084 0.0005
vt 0.0005 0.0005
vt 3.3065 2.1739
vt 9.5941 2.1739
vt 7.1956 2.1739
vt 0.8916 0.0005
vt 0.8916 0.0005
vt 0.5 0.0005
vt 9.5941 2.1739
vt 7.1956 2.1739
vt 9.5941 2.1739
vt 0.5 0.0005
vt 0.5 0.0005
vt 0.1084 0.0005
vt 7.1956 2.1739
vt -7.1956 2.1739
vt -9.5941 2.1739
vt -11.4091 3.7578
vt -8.5127 3.7578
vt -9.5941 2.1739
vt -7.1956 2.1739
vt -8.5127 3.7578
vt -11.4091 3.7578
vt 0.9753 0.2116
vt 0.9071 0.332
vt 0.9751 0.332
vt 0.5136 0.332
vt 0.4456 0.332
vt 0.7104 0.332
vt 0.017 0.2902
vt 0.3725 0.7588
vt 0.0604 0.8674
vt 0.0618 0.7334
vt 0.3728 0.8542
vt 0.2096 0.985
vt 0.6347 0.7606
vt 0.4596 0.918
vt 0.4218 0.7606
vt 0.5969 0.918
vt 0.5283 0.9613
vt 0.0618 0.7334
vt 0.3728 0.8542
vt 0.3725 0.7588
vt 0.0604 0.8674
vt 0.2096 0.985
vt 0.4218 0.7484
vt 0.5969 0.8641
vt 0.6347 0.7484
vt 0.4596 0.8641
vt 0.5283 0.9613
vt 0.3725 0.7588
vt 0.0618 0.7334
vt 0.0604 0.8674
vt 0.3728 0.8542
vt 0.2096 0.985
vt 0.6347 0.7606
vt 0.4218 0.7606
vt 0.4596 0.918
vt 0.5969 0.918
vt 0.5283 0.9613
vt 0.0618 0.7334
vt 0.3725 0.7588
vt 0.3728 0.8542
vt 0.0604 0.8674
vt 0.2096 0.985
vt 0.4218 0.7484
vt 0.6347 0.7484
vt 0.5969 0.8641
vt 0.4596 0.8641
vt 0.5283 0.9613
vt 0.0081 0.5838
vt 0.4961 0.6879
vt 0.0081 0.6879
vt 0.4961 0.5838
vt 0.984 0.6879
vt 0.4961 0.6879
vt 0.0081 0.6747
vt 0.4961 0.591
vt 0.4961 0.6747
vt 0.0081 0.591
vt 0.984 0.591
vt 0.984 0.6747
vt 0.0081 0.591
vt 0.4961 0.591
vt 0.4961 0.6747
vt 0.0081 0.6747
vt 0.984 0.591
vt 0.984 0.6747
vt 0.0081 0.591
vt 0.984 0.591
vt 0.0081 0.6747
vt 0.0081 0.591
vt 0.4961 0.591
vt 0.0081 0.6747
vt 0.984 0.591
vt 0.984 0.6747
vt 0.0081 0.591
vt 0.984 0.591
vt 0.984 0.6747
vt 0.0081 0.5838
vt 0.4961 0.6879
vt 0.4961 0.5838
vt 0.0081 0.6879
vt 0.984 0.6879
vt 0.984 0.5838
vt 0.0081 0.5838
vt 0.4961 0.6879
vt 0.4961 0.5838
vt 0.0081 0.6879
vt 0.984 0.6879
vt 0.984 0.5838
vt 0.0081 0.5838
vt 0.4961 0.5838
vt 0.0081 0.6879
vt 0.984 0.6879
vt 0.984 0.5838
vt 0.0081 0.5838
vt 0.984 0.6879
vt 0.984 0.5838
vt 0.0081 0.5838
vt 0.4961 0.6879
vt 0.0081 0.6879
vt 0.4961 0.5838
vt 0.984 0.6879
vt 0.4961 0.6879
vt 0.0081 0.5838
vt 0.4961 0.6879
vt 0.4961 0.5838
vt 0.0081 0.6879
vt 0.984 0.6879
vt 0.984 0.5838
vt 0.0081 0.5838
vt 0.4961 0.6879
vt 0.4961 0.5838
vt 0.0081 0.6879
vt 0.984 0.6879
vt 0.984 0.5838
vt 0.0081 0.5838
vt 0.4961 0.5838
vt 0.0081 0.6879
vt 0.984 0.6879
vt 0.984 0.5838
vt 0.0081 0.5838
vt 0.984 0.6879
vt 0.984 0.5838
vt 0.0081 0.5838
vt 0.4961 0.6879
vt 0.0081 0.6879
vt 0.4961 0.5838
vt 0.984 0.6879
vt 0.4961 0.6879
vt 0.0081 0.5838
vt 0.4961 0.5838
vt 0.4961 0.6879
vt 0.0081 0.6879
vt 0.984 0.5838
vt 0.984 0.6879
vt 0.0081 0.5838
vt 0.4961 0.5838
vt 0.4961 0.6879
vt 0.0081 0.6879
vt 0.984 0.5838
vt 0.984 0.6879
vt 0.0081 0.5838
vt 0.4961 0.5838
vt 0.0081 0.6879
vt 0.984 0.5838
vt 0.984 0.6879
vt 0.0081 0.5838
vt 0.984 0.5838
vt 0.984 0.6879
vt 0.0081 0.5838
vt 0.4961 0.6879
vt 0.0081 0.6879
vt 0.4961 0.5838
vt 0.984 0.6879
vt 0.4961 0.6879
vt 0.0081 0.5838
vt 0.4961 0.5838
vt 0.4961 0.6879
vt 0.0081 0.6879
vt 0.984 0.5838
vt 0.984 0.6879
vt 0.0081 0.5838
vt 0.4961 0.5838
vt 0.4961 0.6879
vt 0.0081 0.6879
vt 0.984 0.5838
vt 0.984 0.6879
vt 0.0081 0.5838
vt 0.4961 0.5838
vt 0.0081 0.6879
vt 0.984 0.5838
vt 0.984 0.6879
vt 0.0081 0.5838
vt 0.984 0.5838
vt 0.984 0.6879
vt 0.0081 0.5838
vt 0.4961 0.6879
vt 0.0081 0.6879
vt 0.4961 0.5838
vt 0.984 0.6879
vt 0.4961 0.6879
vt 0.0081 0.5838
vt 0.4961 0.5838
vt 0.4961 0.6879
vt 0.0081 0.6879
vt 0.984 0.5838
vt 0.984 0.6879
vt 0.0081 0.5838
vt 0.4961 0.5838
vt 0.4961 0.6879
vt 0.0081 0.6879
vt 0.984 0.5838
vt 0.984 0.6879
vt 0.0081 0.5838
vt 0.4961 0.5838
vt 0.0081 0.6879
vt 0.984 0.5838
vt 0.984 0.6879
vt 0.0081 0.5838
vt 0.984 0.5838
vt 0.984 0.6879
vt 0.0081 0.5838
vt 0.4961 0.6879
vt 0.0081 0.6879
vt 0.4961 0.5838
vt 0.984 0.6879
vt 0.4961 0.6879
vt 0.0081 0.5838
vt 0.4961 0.5838
vt 0.4961 0.6879
vt 0.0081 0.6879
vt 0.984 0.5838
vt 0.984 0.6879
vt 0.0081 0.5838
vt 0.4961 0.5838
vt 0.4961 0.6879
vt 0.0081 0.6879
vt 0.984 0.5838
vt 0.984 0.6879
vt 0.0081 0.5838
vt 0.4961 0.5838
vt 0.0081 0.6879
vt 0.984 0.5838
vt 0.984 0.6879
vt 0.0081 0.5838
vt 0.984 0.5838
vt 0.984 0.6879
vt 0.0081 0.5838
vt 0.4961 0.6879
vt 0.0081 0.6879
vt 0.4961 0.5838
vt 0.984 0.6879
vt 0.4961 0.6879
vt 0.0081 0.5838
vt 0.4961 0.5838
vt 0.4961 0.6879
vt 0.0081 0.6879
vt 0.984 0.5838
vt 0.984 0.6879
vt 0.0081 0.5838
vt 0.4961 0.5838
vt 0.4961 0.6879
vt 0.0081 0.6879
vt 0.984 0.5838
vt 0.984 0.6879
vt 0.0081 0.5838
vt 0.4961 0.5838
vt 0.0081 0.6879
vt 0.984 0.5838
vt 0.984 0.6879
vt 0.0081 0.5838
vt 0.984 0.5838
vt 0.984 0.6879
vt 0.0081 0.5838
vt 0.4961 0.6879
vt 0.0081 0.6879
vt 0.4961 0.5838
vt 0.984 0.6879
vt 0.4961 0.6879
vt 0.0081 0.5838
vt 0.4961 0.6879
vt 0.4961 0.5838
vt 0.0081 0.6879
vt 0.984 0.6879
vt 0.984 0.5838
vt 0.0081 0.5838
vt 0.4961 0.6879
vt 0.4961 0.5838
vt 0.0081 0.6879
vt 0.984 0.6879
vt 0.984 0.5838
vt 0.0081 0.5838
vt 0.4961 0.5838
vt 0.0081 0.6879
vt 0.984 0.6879
vt 0.984 0.5838
vt 0.0081 0.5838
vt 0.984 0.6879
vt 0.984 0.5838
vt 0.0081 0.5838
vt 0.4961 0.6879
vt 0.0081 0.6879
vt 0.4961 0.5838
vt 0.984 0.6879
vt 0.4961 0.6879
vt 0.0081 0.6747
vt 0.4961 0.591
vt 0.4961 0.6747
vt 0.0081 0.591
vt 0.984 0.591
vt 0.984 0.6747
vt 0.0081 0.591
vt 0.4961 0.591
vt 0.4961 0.6747
vt 0.0081 0.6747
vt 0.984 0.591
vt 0.984 0.6747
vt 0.0081 0.591
vt 0.984 0.591
vt 0.0081 0.6747
vt 0.0081 0.591
vt 0.4961 0.591
vt 0.0081 0.6747
vt 0.984 0.591
vt 0.984 0.6747
vt 0.0081 0.591
vt 0.984 0.591
vt 0.984 0.6747
vt 0.0081 0.5838
vt 0.4961 0.6879
vt 0.4961 0.5838
vt 0.0081 0.6879
vt 0.984 0.6879
vt 0.984 0.5838
vt 0.0081 0.5838
vt 0.4961 0.6879
vt 0.4961 0.5838
vt 0.0081 0.6879
vt 0.984 0.6879
vt 0.984 0.5838
vt 0.0081 0.5838
vt 0.4961 0.5838
vt 0.0081 0.6879
vt 0.984 0.6879
vt 0.984 0.5838
vt 0.0081 0.5838
vt 0.984 0.6879
vt 0.984 0.5838
vt 0.0081 0.5838
vt 0.4961 0.6879
vt 0.0081 0.6879
vt 0.4961 0.5838
vt 0.984 0.6879
vt 0.4961 0.6879
vt 0.0081 0.5838
vt 0.4961 0.6879
vt 0.4961 0.5838
vt 0.0081 0.6879
vt 0.984 0.6879
vt 0.984 0.5838
vt 0.0081 0.5838
vt 0.4961 0.6879
vt 0.4961 0.5838
vt 0.0081 0.6879
vt 0.984 0.6879
vt 0.984 0.5838
vt 0.0081 0.5838
vt 0.4961 0.5838
vt 0.0081 0.6879
vt 0.984 0.6879
vt 0.984 0.5838
vt 0.0081 0.5838
vt 0.984 0.6879
vt 0.984 0.5838
vt 0.0081 0.5838
vt 0.4961 0.6879
vt 0.0081 0.6879
vt 0.4961 0.5838
vt 0.984 0.6879
vt 0.4961 0.6879
vt 0.0081 0.5838
vt 0.4961 0.5838
vt 0.4961 0.6879
vt 0.0081 0.6879
vt 0.984 0.5838
vt 0.984 0.6879
vt 0.0081 0.5838
vt 0.4961 0.5838
vt 0.4961 0.6879
vt 0.0081 0.6879
vt 0.984 0.5838
vt 0.984 0.6879
vt 0.0081 0.5838
vt 0.4961 0.5838
vt 0.0081 0.6879
vt 0.984 0.5838
vt 0.984 0.6879
vt 0.0081 0.5838
vt 0.984 0.5838
vt 0.984 0.6879
vt 0.0081 0.5838
vt 0.4961 0.6879
vt 0.0081 0.6879
vt 0.4961 0.5838
vt 0.984 0.6879
vt 0.4961 0.6879
vt 0.0081 0.5838
vt 0.4961 0.5838
vt 0.4961 0.6879
vt 0.0081 0.6879
vt 0.984 0.5838
vt 0.984 0.6879
vt 0.0081 0.5838
vt 0.4961 0.5838
vt 0.4961 0.6879
vt 0.0081 0.6879
vt 0.984 0.5838
vt 0.984 0.6879
vt 0.0081 0.5838
vt 0.4961 0.5838
vt 0.0081 0.6879
vt 0.984 0.5838
vt 0.984 0.6879
vt 0.0081 0.5838
vt 0.984 0.5838
vt 0.984 0.6879
vt 0.0081 0.5838
vt 0.4961 0.6879
vt 0.0081 0.6879
vt 0.4961 0.5838
vt 0.984 0.6879
vt 0.4961 0.6879
vt 0.0081 0.5838
vt 0.4961 0.5838
vt 0.4961 0.6879
vt 0.0081 0.6879
vt 0.984 0.5838
vt 0.984 0.6879
vt 0.0081 0.5838
vt 0.4961 0.5838
vt 0.4961 0.6879
vt 0.0081 0.6879
vt 0.984 0.5838
vt 0.984 0.6879
vt 0.0081 0.5838
vt 0.4961 0.5838
vt 0.0081 0.6879
vt 0.984 0.5838
vt 0.984 0.6879
vt 0.0081 0.5838
vt 0.984 0.5838
vt 0.984 0.6879
vt 0.0081 0.5838
vt 0.4961 0.6879
vt 0.0081 0.6879
vt 0.4961 0.5838
vt 0.984 0.6879
vt 0.4961 0.6879
vt 0.0081 0.6747
vt 0.4961 0.591
vt 0.4961 0.6747
vt 0.0081 0.591
vt 0.984 0.591
vt 0.984 0.6747
vt 0.0081 0.591
vt 0.4961 0.591
vt 0.4961 0.6747
vt 0.0081 0.6747
vt 0.984 0.591
vt 0.984 0.6747
vt 0.0081 0.591
vt 0.984 0.591
vt 0.0081 0.6747
vt 0.0081 0.591
vt 0.4961 0.591
vt 0.0081 0.6747
vt 0.984 0.591
vt 0.984 0.6747
vt 0.0081 0.591
vt 0.984 0.591
vt 0.984 0.6747
vt 0.0081 0.6747
vt 0.4961 0.591
vt 0.4961 0.6747
vt 0.0081 0.591
vt 0.984 0.591
vt 0.984 0.6747
vt 0.0081 0.591
vt 0.4961 0.591
vt 0.4961 0.6747
vt 0.0081 0.6747
vt 0.984 0.591
vt 0.984 0.6747
vt 0.0081 0.591
vt 0.984 0.591
vt 0.0081 0.6747
vt 0.0081 0.591
vt 0.4961 0.591
vt 0.0081 0.6747
vt 0.984 0.591
vt 0.984 0.6747
vt 0.0081 0.591
vt 0.984 0.591
vt 0.984 0.6747
vt 0.0081 0.6747
vt 0.4961 0.591
vt 0.4961 0.6747
vt 0.0081 0.591
vt 0.984 0.591
vt 0.984 0.6747
vt 0.0081 0.591
vt 0.4961 0.591
vt 0.4961 0.6747
vt 0.0081 0.6747
vt 0.984 0.591
vt 0.984 0.6747
vt 0.0081 0.591
vt 0.984 0.591
vt 0.0081 0.6747
vt 0.0081 0.591
vt 0.4961 0.591
vt 0.0081 0.6747
vt 0.984 0.591
vt 0.984 0.6747
vt 0.0081 0.591
vt 0.984 0.591
vt 0.984 0.6747
vt 0.0081 0.5838
vt 0.4961 0.5838
vt 0.4961 0.6879
vt 0.0081 0.6879
vt 0.984 0.5838
vt 0.984 0.6879
vt 0.0081 0.5838
vt 0.4961 0.5838
vt 0.4961 0.6879
vt 0.0081 0.6879
vt 0.984 0.5838
vt 0.984 0.6879
vt 0.0081 0.5838
vt 0.4961 0.5838
vt 0.0081 0.6879
vt 0.984 0.5838
vt 0.984 0.6879
vt 0.0081 0.5838
vt 0.984 0.5838
vt 0.984 0.6879
vt 0.0081 0.5838
vt 0.4961 0.6879
vt 0.0081 0.6879
vt 0.4961 0.5838
vt 0.984 0.6879
vt 0.4961 0.6879
vt 0.0081 0.6747
vt 0.4961 0.591
vt 0.4961 0.6747
vt 0.0081 0.591
vt 0.984 0.591
vt 0.984 0.6747
vt 0.0081 0.591
vt 0.4961 0.591
vt 0.4961 0.6747
vt 0.0081 0.6747
vt 0.984 0.591
vt 0.984 0.6747
vt 0.0081 0.591
vt 0.984 0.591
vt 0.0081 0.6747
vt 0.0081 0.591
vt 0.4961 0.591
vt 0.0081 0.6747
vt 0.984 0.591
vt 0.984 0.6747
vt 0.0081 0.591
vt 0.984 0.591
vt 0.984 0.6747
vt 0.0081 0.6747
vt 0.4961 0.591
vt 0.4961 0.6747
vt 0.0081 0.591
vt 0.984 0.591
vt 0.984 0.6747
vt 0.0081 0.591
vt 0.4961 0.591
vt 0.4961 0.6747
vt 0.0081 0.6747
vt 0.984 0.591
vt 0.984 0.6747
vt 0.0081 0.591
vt 0.984 0.591
vt 0.0081 0.6747
vt 0.0081 0.591
vt 0.4961 0.591
vt 0.0081 0.6747
vt 0.984 0.591
vt 0.984 0.6747
vt 0.0081 0.591
vt 0.984 0.591
vt 0.984 0.6747
vt 0.0081 0.6747
vt 0.4961 0.591
vt 0.4961 0.6747
vt 0.0081 0.591
vt 0.984 0.591
vt 0.984 0.6747
vt 0.0081 0.591
vt 0.4961 0.591
vt 0.4961 0.6747
vt 0.0081 0.6747
vt 0.984 0.591
vt 0.984 0.6747
vt 0.0081 0.591
vt 0.984 0.591
vt 0.0081 0.6747
vt 0.0081 0.591
vt 0.4961 0.591
vt 0.0081 0.6747
vt 0.984 0.591
vt 0.984 0.6747
vt 0.0081 0.591
vt 0.984 0.591
vt 0.984 0.6747
f 1/1/1 3/3/3 2/2/2
f 2/2/2 4/4/4 1/1/1
f 3/3/3 6/6/6 5/5/5
f 5/5/5 2/2/2 3/3/3
f 7/7/7 9/9/9 8/8/8
f 8/8/8 10/10/10 7/7/7
f 9/9/9 12/12/12 11/11/11
f 11/11/11 8/8/8 9/9/9
f 13/13/13 14/14/14 2/2/2
f 2/2/2 15/15/15 13/13/13
f 14/14/14 17/17/17 16/16/16
f 16/16/16 2/2/2 14/14/14
f 18/18/18 20/20/20 19/19/19
f 19/19/19 4/4/4 18/18/18
f 21/21/21 23/23/23 22/22/22
f 24/24/24 26/26/26 25/25/25
f 24/24/24 27/27/27 26/26/26
f 28/28/28 30/30/30 29/29/29
f 28/28/28 31/31/31 30/30/30
f 32/32/32 34/34/34 33/33/33
f 35/35/35 37/37/37 36/36/36
f 38/38/38 40/40/40 39/39/39
f 41/41/41 43/43/43 42/42/42
f 41/41/41 44/44/44 43/43/43
f 45/45/45 47/47/47 46/46/46
f 45/45/45 48/48/48 47/47/47
f 49/49/49 51/51/51 50/50/50
f 49/49/49 52/52/52 51/51/51
f 32/32/32 54/54/54 53/53/53
f 32/32/32 33/33/33 54/54/54
f 55/55/55 54/54/54 38/38/38
f 55/55/55 53/53/53 54/54/54
f 56/56/56 51/51/51 52/52/52
f 56/56/56 57/57/57 51/51/51
f 53/53/53 58/58/58 34/34/34
f 28/28/28 60/60/60 59/59/59
f 28/28/28 29/29/29 60/60/60
f 41/41/41 60/60/60 44/44/44
f 41/41/41 59/59/59 60/60/60
f 55/55/55 39/39/39 53/53/53
f 59/59/59 61/61/61 31/31/31
f 28/28/28 59/59/59 31/31/31
f 25/25/25 63/63/63 62/62/62
f 24/24/24 25/25/25 62/62/62
f 62/62/62 63/63/63 48/48/48
f 45/45/45 62/62/62 48/48/48
f 42/42/42 61/61/61 59/59/59
f 41/41/41 42/42/42 59/59/59
f 24/24/24 64/64/64 27/27/27
f 24/24/24 62/62/62 64/64/64
f 56/56/56 52/52/52 35/35/35
f 45/45/45 64/64/64 62/62/62
f 45/45/45 46/46/46 64/64/64
f 65/65/65 67/67/67 66/66/66
f 68/68/68 70/70/70 69/69/69
f 71/71/71 73/73/73 72/72/72
f 74/74/74 76/76/76 75/75/75
f 77/77/77 79/79/79 78/78/78
f 80/80/80 82/82/82 81/81/81
f 83/83/83 85/85/85 84/84/84
f 86/86/86 88/88/88 87/87/87
f 89/89/89 91/91/91 90/90/90
f 92/92/92 94/94/94 93/93/93
f 95/95/95 97/97/97 96/96/96
f 98/98/98 100/100/100 99/99/99
f 101/101/101 103/103/103 102/102/102
f 103/103/103 101/101/101 104/104/104
f 105/105/105 107/107/107 106/106/106
f 107/107/107 105/105/105 108/108/108
f 21/21/21 22/22/22 49/49/49
f 50/50/50 21/21/21 49/49/49
f 34/34/34 109/109/109 33/33/33
f 110/110/110 111/111/111 109/109/109
f 34/34/34 110/110/110 109/109/109
f 56/56/56 36/36/36 57/57/57
f 56/56/56 35/35/35 36/36/36
f 40/40/40 112/112/112 39/39/39
f 40/40/40 113/113/113 112/112/112
f 55/55/55 38/38/38 39/39/39
f 114/114/114 110/110/110 34/34/34
f 58/58/58 114/114/114 34/34/34
f 32/32/32 53/53/53 34/34/34
f 39/39/39 58/58/58 53/53/53
f 39/39/39 114/114/114 58/58/58
f 39/39/39 112/112/112 114/114/114
f 49/49/49 22/22/22 52/52/52
f 52/52/52 22/22/22 115/115/115
f 52/52/52 115/115/115 35/35/35
f 116/116/116 118/118/118 117/117/117
f 117/117/117 119/119/119 116/116/116
f 119/119/119 117/117/117 120/120/120
f 121/121/121 123/123/123 122/122/122
f 122/122/122 124/124/124 121/121/121
f 124/124/124 122/122/122 125/125/125
f 126/126/126 128/128/128 127/127/127
f 127/127/127 129/129/129 126/126/126
f 129/129/129 127/127/127 130/130/130
f 131/131/131 133/133/133 132/132/132
f 132/132/132 134/134/134 131/131/131
f 134/134/134 132/132/132 135/135/135
f 136/136/136 138/138/138 137/137/137
f 138/138/138 136/136/136 139/139/139
f 139/139/139 140/140/140 138/138/138
f 141/141/141 143/143/143 142/142/142
f 143/143/143 141/141/141 144/144/144
f 144/144/144 145/145/145 143/143/143
f 146/146/146 148/148/148 147/147/147
f 148/148/148 146/146/146 149/149/149
f 149/149/149 150/150/150 148/148/148
f 151/151/151 153/153/153 152/152/152
f 153/153/153 151/151/151 154/154/154
f 154/154/154 155/155/155 153/153/153
f 156/156/156 9/9/9 157/157/157
f 157/157/157 158/158/158 156/156/156
f 159/159/159 12/12/12 160/160/160
f 160/160/160 161/161/161 159/159/159
f 162/162/162 164/164/164 163/163/163
f 163/163/163 165/165/165 162/162/162
f 164/164/164 167/167/167 166/166/166
f 166/166/166 163/163/163 164/164/164
f 168/168/168 170/170/170 169/169/169
f 170/170/170 168/168/168 171/171/171
f 169/169/169 173/173/173 172/172/172
f 173/173/173 169/169/169 170/170/170
f 174/174/174 167/167/167 175/175/175
f 167/167/167 174/174/174 176/176/176
f 177/177/177 164/164/164 178/178/178
f 164/164/164 177/177/177 179/179/179
f 178/178/178 181/181/181 180/180/180
f 181/181/181 178/178/178 164/164/164
f 182/182/182 184/184/184 183/183/183
f 184/184/184 182/182/182 162/162/162
f 185/185/185 187/187/187 186/186/186
f 186/186/186 188/188/188 185/185/185
f 187/187/187 190/190/190 189/189/189
f 189/189/189 186/186/186 187/187/187
f 191/191/191 193/193/193 192/192/192
f 192/192/192 194/194/194 191/191/191
f 193/193/193 196/196/196 195/195/195
f 195/195/195 192/192/192 193/193/193
f 197/197/197 198/198/198 186/186/186
f 186/186/186 199/199/199 197/197/197
f 198/198/198 201/201/201 200/200/200
f 200/200/200 186/186/186 198/198/198
f 202/202/202 204/204/204 203/203/203
f 203/203/203 188/188/188 202/202/202
f 205/205/205 193/193/193 206/206/206
f 206/206/206 207/207/207 205/205/205
f 208/208/208 196/196/196 209/209/209
f 209/209/209 210/210/210 208/208/208
f 211/211/211 213/213/213 212/212/212
f 212/212/212 214/214/214 211/211/211
f 213/213/213 216/216/216 215/215/215
f 215/215/215 212/212/212 213/213/213
f 217/217/217 219/219/219 218/218/218
f 218/218/218 220/220/220 217/217/217
f 219/219/219 222/222/222 221/221/221
f 221/221/221 218/218/218 219/219/219
f 223/223/223 224/224/224 212/212/212
f 212/212/212 225/225/225 223/223/223
f 224/224/224 227/227/227 226/226/226
f 226/226/226 212/212/212 224/224/224
f 228/228/228 230/230/230 229/229/229
f 229/229/229 214/214/214 228/228/228
f 231/231/231 219/219/219 232/232/232
f 232/232/232 233/233/233 231/231/231
f 234/234/234 222/222/222 235/235/235
f 235/235/235 236/236/236 234/234/234
f 237/237/237 239/239/239 238/238/238
f 239/239/239 237/237/237 240/240/240
f 238/238/238 242/242/242 241/241/241
f 242/242/242 238/238/238 239/239/239
f 243/243/243 245/245/245 244/244/244
f 245/245/245 243/243/243 246/246/246
f 244/244/244 248/248/248 247/247/247
f 248/248/248 244/244/244 245/245/245
f 249/249/249 239/239/239 250/250/250
f 239/239/239 249/249/249 251/251/251
f 250/250/250 253/253/253 252/252/252
f 253/253/253 250/250/250 239/239/239
f 254/254/254 256/256/256 255/255/255
f 256/256/256 254/254/254 240/240/240
f 257/257/257 258/258/258 244/244/244
f 258/258/258 257/257/257 259/259/259
f 260/260/260 261/261/261 247/247/247
f 261/261/261 260/260/260 262/262/262
f 263/263/263 265/265/265 264/264/264
f 265/265/265 263/263/263 266/266/266
f 264/264/264 268/268/268 267/267/267
f 268/268/268 264/264/264 265/265/265
f 269/269/269 271/271/271 270/270/270
f 271/271/271 269/269/269 272/272/272
f 270/270/270 274/274/274 273/273/273
f 274/274/274 270/270/270 271/271/271
f 275/275/275 265/265/265 276/276/276
f 265/265/265 275/275/275 277/277/277
f 276/276/276 279/279/279 278/278/278
f 279/279/279 276/276/276 265/265/265
f 280/280/280 282/282/282 281/281/281
f 282/282/282 280/280/280 266/266/266
f 283/283/283 284/284/284 270/270/270
f 284/284/284 283/283/283 285/285/285
f 286/286/286 287/287/287 273/273/273
f 287/287/287 286/286/286 288/288/288
f 289/289/289 291/291/291 290/290/290
f 291/291/291 289/289/289 292/292/292
f 290/290/290 294/294/294 293/293/293
f 294/294/294 290/290/290 291/291/291
f 295/295/295 297/297/297 296/296/296
f 297/297/297 295/295/295 298/298/298
f 296/296/296 300/300/300 299/299/299
f 300/300/300 296/296/296 297/297/297
f 301/301/301 291/291/291 302/302/302
f 291/291/291 301/301/301 303/303/303
f 302/302/302 305/305/305 304/304/304
f 305/305/305 302/302/302 291/291/291
f 306/306/306 308/308/308 307/307/307
f 308/308/308 306/306/306 292/292/292
f 309/309/309 310/310/310 296/296/296
f 310/310/310 309/309/309 311/311/311
f 312/312/312 313/313/313 299/299/299
f 313/313/313 312/312/312 314/314/314
f 315/315/315 317/317/317 316/316/316
f 317/317/317 315/315/315 318/318/318
f 316/316/316 320/320/320 319/319/319
f 320/320/320 316/316/316 317/317/317
f 321/321/321 323/323/323 322/322/322
f 323/323/323 321/321/321 324/324/324
f 322/322/322 326/326/326 325/325/325
f 326/326/326 322/322/322 323/323/323
f 327/327/327 317/317/317 328/328/328
f 317/317/317 327/327/327 329/329/329
f 328/328/328 331/331/331 330/330/330
f 331/331/331 328/328/328 317/317/317
f 332/332/332 334/334/334 333/333/333
f 334/334/334 332/332/332 318/318/318
f 335/335/335 336/336/336 322/322/322
f 336/336/336 335/335/335 337/337/337
f 338/338/338 339/339/339 325/325/325
f 339/339/339 338/338/338 340/340/340
f 341/341/341 343/343/343 342/342/342
f 343/343/343 341/341/341 344/344/344
f 342/342/342 346/346/346 345/345/345
f 346/346/346 342/342/342 343/343/343
f 347/347/347 349/349/349 348/348/348
f 349/349/349 347/347/347 350/350/350
f 348/348/348 352/352/352 351/351/351
f 352/352/352 348/348/348 349/349/349
f 353/353/353 343/343/343 354/354/354
f 343/343/343 353/353/353 355/355/355
f 354/354/354 357/357/357 356/356/356
f 357/357/357 354/354/354 343/343/343
f 358/358/358 360/360/360 359/359/359
f 360/360/360 358/358/358 344/344/344
f 361/361/361 362/362/362 348/348/348
f 362/362/362 361/361/361 363/363/363
f 364/364/364 365/365/365 351/351/351
f 365/365/365 364/364/364 366/366/366
f 367/367/367 369/369/369 368/368/368
f 368/368/368 370/370/370 367/367/367
f 369/369/369 372/372/372 371/371/371
f 371/371/371 368/368/368 369/369/369
f 373/373/373 375/375/375 374/374/374
f 374/374/374 376/376/376 373/373/373
f 375/375/375 378/378/378 377/377/377
f 377/377/377 374/374/374 375/375/375
f 379/379/379 380/380/380 368/368/368
f 368/368/368 381/381/381 379/379/379
f 380/380/380 383/383/383 382/382/382
f 382/382/382 368/368/368 380/380/380
f 384/384/384 386/386/386 385/385/385
f 385/385/385 370/370/370 384/384/384
f 387/387/387 375/375/375 388/388/388
f 388/388/388 389/389/389 387/387/387
f 390/390/390 378/378/378 391/391/391
f 391/391/391 392/392/392 390/390/390
f 393/393/393 395/395/395 394/394/394
f 394/394/394 396/396/396 393/393/393
f 395/395/395 398/398/398 397/397/397
f 397/397/397 394/394/394 395/395/395
f 399/399/399 401/401/401 400/400/400
f 401/401/401 399/399/399 402/402/402
f 400/400/400 404/404/404 403/403/403
f 404/404/404 400/400/400 401/401/401
f 405/405/405 398/398/398 406/406/406
f 398/398/398 405/405/405 407/407/407
f 408/408/408 395/395/395 409/409/409
f 395/395/395 408/408/408 410/410/410
f 409/409/409 412/412/412 411/411/411
f 412/412/412 409/409/409 395/395/395
f 413/413/413 415/415/415 414/414/414
f 415/415/415 413/413/413 393/393/393
f 416/416/416 418/418/418 417/417/417
f 417/417/417 419/419/419 416/416/416
f 418/418/418 421/421/421 420/420/420
f 420/420/420 417/417/417 418/418/418
f 422/422/422 424/424/424 423/423/423
f 423/423/423 425/425/425 422/422/422
f 424/424/424 427/427/427 426/426/426
f 426/426/426 423/423/423 424/424/424
f 428/428/428 429/429/429 417/417/417
f 417/417/417 430/430/430 428/428/428
f 429/429/429 432/432/432 431/431/431
f 431/431/431 417/417/417 429/429/429
f 433/433/433 435/435/435 434/434/434
f 434/434/434 419/419/419 433/433/433
f 436/436/436 424/424/424 437/437/437
f 437/437/437 438/438/438 436/436/436
f 439/439/439 427/427/427 440/440/440
f 440/440/440 441/441/441 439/439/439
f 442/442/442 444/444/444 443/443/443
f 443/443/443 445/445/445 442/442/442
f 444/444/444 447/447/447 446/446/446
f 446/446/446 443/443/443 444/444/444
f 448/448/448 450/450/450 449/449/449
f 449/449/449 451/451/451 448/448/448
f 450/450/450 453/453/453 452/452/452
f 452/452/452 449/449/449 450/450/450
f 454/454/454 455/455/455 443/443/443
f 443/443/443 456/456/456 454/454/454
f 455/455/455 458/458/458 457/457/457
f 457/457/457 443/443/443 455/455/455
f 459/459/459 461/461/461 460/460/460
f 460/460/460 445/445/445 459/459/459
f 462/462/462 450/450/450 463/463/463
f 463/463/463 464/464/464 462/462/462
f 465/465/465 453/453/453 466/466/466
f 466/466/466 467/467/467 465/465/465
f 468/468/468 470/470/470 469/469/469
f 470/470/470 468/468/468 471/471/471
f 469/469/469 473/473/473 472/472/472
f 473/473/473 469/469/469 470/470/470
f 474/474/474 476/476/476 475/475/475
f 476/476/476 474/474/474 477/477/477
f 475/475/475 479/479/479 478/478/478
f 479/479/479 475/475/475 476/476/476
f 480/480/480 470/470/470 481/481/481
f 470/470/470 480/480/480 482/482/482
f 481/481/481 484/484/484 483/483/483
f 484/484/484 481/481/481 470/470/470
f 485/485/485 487/487/487 486/486/486
f 487/487/487 485/485/485 471/471/471
f 488/488/488 489/489/489 475/475/475
f 489/489/489 488/488/488 490/490/490
f 491/491/491 492/492/492 478/478/478
f 492/492/492 491/491/491 493/493/493
f 494/494/494 496/496/496 495/495/495
f 496/496/496 494/494/494 497/497/497
f 495/495/495 499/499/499 498/498/498
f 499/499/499 495/495/495 496/496/496
f 500/500/500 502/502/502 501/501/501
f 502/502/502 500/500/500 503/503/503
f 501/501/501 505/505/505 504/504/504
f 505/505/505 501/501/501 502/502/502
f 506/506/506 496/496/496 507/507/507
f 496/496/496 506/506/506 508/508/508
f 507/507/507 510/510/510 509/509/509
f 510/510/510 507/507/507 496/496/496
f 511/511/511 513/513/513 512/512/512
f 513/513/513 511/511/511 497/497/497
f 514/514/514 515/515/515 501/501/501
f 515/515/515 514/514/514 516/516/516
f 517/517/517 518/518/518 504/504/504
f 518/518/518 517/517/517 519/519/519
f 520/520/520 522/522/522 521/521/521
f 522/522/522 520/520/520 523/523/523
f 521/521/521 525/525/525 524/524/524
f 525/525/525 521/521/521 522/522/522
f 526/526/526 528/528/528 527/527/527
f 528/528/528 526/526/526 529/529/529
f 527/527/527 531/531/531 530/530/530
f 531/531/531 527/527/527 528/528/528
f 532/532/532 522/522/522 533/533/533
f 522/522/522 532/532/532 534/534/534
f 533/533/533 536/536/536 535/535/535
f 536/536/536 533/533/533 522/522/522
f 537/537/537 539/539/539 538/538/538
f 539/539/539 537/537/537 523/523/523
f 540/540/540 541/541/541 527/527/527
f 541/541/541 540/540/540 542/542/542
f 543/543/543 544/544/544 530/530/530
f 544/544/544 543/543/543 545/545/545
f 546/546/546 548/548/548 547/547/547
f 547/547/547 549/549/549 546/546/546
f 548/548/548 551/551/551 550/550/550
f 550/550/550 547/547/547 548/548/548
f 552/552/552 554/554/554 553/553/553
f 554/554/554 552/552/552 555/555/555
f 553/553/553 557/557/557 556/556/556
f 557/557/557 553/553/553 554/554/554
f 558/558/558 551/551/551 559/559/559
f 551/551/551 558/558/558 560/560/560
f 561/561/561 548/548/548 562/562/562
f 548/548/548 561/561/561 563/563/563
f 562/562/562 565/565/565 564/564/564
f 565/565/565 562/562/562 548/548/548
f 566/566/566 568/568/568 567/567/567
f 568/568/568 566/566/566 546/546/546
f 569/569/569 571/571/571 570/570/570
f 570/570/570 572/572/572 569/569/569
f 571/571/571 574/574/574 573/573/573
f 573/573/573 570/570/570 571/571/571
f 575/575/575 577/577/577 576/576/576
f 577/577/577 575/575/575 578/578/578
f 576/576/576 580/580/580 579/579/579
f 580/580/580 576/576/576 577/577/577
f 581/581/581 574/574/574 582/582/582
f 574/574/574 581/581/581 583/583/583
f 584/584/584 571/571/571 585/585/585
f 571/571/571 584/584/584 586/586/586
f 585/585/585 588/588/588 587/587/587
f 588/588/588 585/585/585 571/571/571
f 589/589/589 591/591/591 590/590/590
f 591/591/591 589/589/589 569/569/569
f 592/592/592 594/594/594 593/593/593
f 593/593/593 595/595/595 592/592/592
f 594/594/594 597/597/597 596/596/596
f 596/596/596 593/593/593 594/594/594
f 598/598/598 600/600/600 599/599/599
f 600/600/600 598/598/598 601/601/601
f 599/599/599 603/603/603 602/602/602
f 603/603/603 599/599/599 600/600/600
f 604/604/604 597/597/597 605/605/605
f 597/597/597 604/604/604 606/606/606
f 607/607/607 594/594/594 608/608/608
f 594/594/594 607/607/607 609/609/609
f 608/608/608 611/611/611 610/610/610
f 611/611/611 608/608/608 594/594/594
f 612/612/612 614/614/614 613/613/613
f 614/614/614 612/612/612 592/592/592
f 615/615/615 617/617/617 616/616/616
f 617/617/617 615/615/615 618/618/618
f 616/616/616 620/620/620 619/619/619
f 620/620/620 616/616/616 617/617/617
f 621/621/621 623/623/623 622/622/622
f 623/623/623 621/621/621 624/624/624
f 622/622/622 626/626/626 625/625/625
f 626/626/626 622/622/622 623/623/623
f 627/627/627 617/617/617 628/628/628
f 617/617/617 627/627/627 629/629/629
f 628/628/628 631/631/631 630/630/630
f 631/631/631 628/628/628 617/617/617
f 632/632/632 634/634/634 633/633/633
f 634/634/634 632/632/632 618/618/618
f 635/635/635 636/636/636 622/622/622
f 636/636/636 635/635/635 637/637/637
f 638/638/638 639/639/639 625/625/625
f 639/639/639 638/638/638 640/640/640
f 641/641/641 643/643/643 642/642/642
f 642/642/642 644/644/644 641/641/641
f 643/643/643 646/646/646 645/645/645
f 645/645/645 642/642/642 643/643/643
f 647/647/647 649/649/649 648/648/648
f 649/649/649 647/647/647 650/650/650
f 648/648/648 652/652/652 651/651/651
f 652/652/652 648/648/648 649/649/649
f 653/653/653 646/646/646 654/654/654
f 646/646/646 653/653/653 655/655/655
f 656/656/656 643/643/643 657/657/657
f 643/643/643 656/656/656 658/658/658
f 657/657/657 660/660/660 659/659/659
f 660/660/660 657/657/657 643/643/643
f 661/661/661 663/663/663 662/662/662
f 663/663/663 661/661/661 641/641/641
f 664/664/664 666/666/666 665/665/665
f 665/665/665 667/667/667 664/664/664
f 666/666/666 669/669/669 668/668/668
f 668/668/668 665/665/665 666/666/666
f 670/670/670 672/672/672 671/671/671
f 672/672/672 670/670/670 673/673/673
f 671/671/671 675/675/675 674/674/674
f 675/675/675 671/671/671 672/672/672
f 676/676/676 669/669/669 677/677/677
f 669/669/669 676/676/676 678/678/678
f 679/679/679 666/666/666 680/680/680
f 666/666/666 679/679/679 681/681/681
f 680/680/680 683/683/683 682/682/682
f 683/683/683 680/680/680 666/666/666
f 684/684/684 686/686/686 685/685/685
f 686/686/686 684/684/684 664/664/664
f 687/687/687 689/689/689 688/688/688
f 688/688/688 690/690/690 687/687/687
f 689/689/689 692/692/692 691/691/691
f 691/691/691 688/688/688 689/689/689
f 693/693/693 695/695/695 694/694/694
f 695/695/695 693/693/693 696/696/696
f 694/694/694 698/698/698 697/697/697
f 698/698/698 694/694/694 695/695/695
f 699/699/699 692/692/692 700/700/700
f 692/692/692 699/699/699 701/701/701
f 702/702/702 689/689/689 703/703/703
f 689/689/689 702/702/702 704/704/704
f 703/703/703 706/706/706 705/705/705
f 706/706/706 703/703/703 689/689/689
f 707/707/707 709/709/709 708/708/708
f 709/709/709 707/707/707 687/687/687
