# Object75.bmd — MU geometry at action 0 key 0, exported for MU2
# 1 mesh(es)

g statue
# texture: statue.jpg
v -1.828102 81.1028 -5.249396
v 2.384697 91.72371 6.246999
v 14.4684 87.6931 14.25081
v 13.0727 83.7339 -0.443294
v 3.250801 100.2236 8.161202
v 18.0466 97.6039 14.6649
v 4.217499 125.4742 17.64841
v 19.2218 120.8884 28.67491
v -6.611 81.5659 22.7962
v 6.333702 81.34209 25.1705
v 8.440804 88.71919 30.8152
v -1.8293 84.9521 28.6754
v 4.931602 100.8447 40.6662
v -8.6716 100.1189 36.3232
v -8.577003 92.96919 32.76561
v -7.457199 106.0609 36.22071
v 12.3893 83.4473 21.6665
v 16.9815 76.4556 12.50511
v 14.8958 90.896 28.36031
v 17.2834 106.5235 21.31641
v 16.9815 76.4556 12.50511
v 12.3893 83.4473 21.6665
v 11.4605 71.8998 18.5888
v 14.8958 90.896 28.36031
v 17.2834 106.5235 21.31641
v 15.4759 94.60249 37.4199
v 9.9478 107.365 41.15901
v 3.2714 114.9814 36.0589
v -5.435097 114.335 35.29431
v 17.4184 115.2971 33.20751
v 7.320297 121.5402 29.3872
v 17.4184 115.2971 33.20751
v 7.320297 121.5402 29.3872
v 21.3805 110.2505 26.5539
v 29.8358 100.4482 30.1901
v 37.3382 82.62669 19.2773
v 33.6352 85.42169 10.3563
v 25.2378 75.942 12.1739
v 29.8358 100.4482 30.1901
v 19.6822 100.5483 37.2295
v 33.7897 69.69869 14.2084
v 37.3382 82.62669 19.2773
v 28.5505 68.3867 14.3042
v 25.2378 75.942 12.1739
v 39.5737 71.9426 11.2295
v 35.1961 70.2666 4.2977
v 27.352 71.3332 7.397107
v 39.5737 71.9426 11.2295
v 27.352 71.3332 7.397107
v -1.828598 67.19519 21.4175
v 5.831001 102.6419 45.6302
v 15.8001 110.4601 50.263
v 19.2717 121.227 24.62251
v 9.302597 113.4088 19.9898
v 22.4188 121.6394 40.5377
v 12.5307 88.8907 40.76301
v 25.7899 89.95599 43.0055
v 20.361 98.8622 49.8393
v 8.746902 94.4205 46.4017
v 41.4224 96.4791 32.5454
v 33.7285 111.6534 37.87571
v 15.8001 110.4601 50.263
v 5.831001 102.6419 45.6302
v 22.4188 121.6394 40.5377
v 29.2615 100.723 17.365
v 24.7005 112.3208 17.78871
v 16.0023 99.65759 15.1225
v 13.0864 107.8791 14.35101
v 19.2717 121.227 24.62251
v 9.302597 113.4088 19.9898
v 11.8098 52.04289 28.7074
v 22.9141 51.0941 24.1652
v 15.8307 68.8835 15.6291
v 5.9981 65.25121 22.0177
v 30.5817 44.9993 12.1879
v 21.9446 61.6475 3.3858
v 30.5817 44.9993 12.1879
v 21.6057 37.553 -1.7622
v 14.9801 64.345 -11.5359
v 21.9446 61.6475 3.3858
v 10.1904 35.2829 -3.383398
v 3.763603 61.6045 -16.262
v -12.2442 92.9574 2.961602
v -16.725 83.7339 -0.443191
v -14.0303 102.967 4.128907
v -12.3774 121.0083 9.318704
v -19.5377 94.23289 18.99111
v -16.6527 85.8721 15.45611
v -20.1957 105.7966 30.04701
v -17.4309 89.3239 9.064008
v -20.6347 76.4556 12.5052
v -21.2778 98.0248 13.07271
v -19.5303 120.4783 13.70831
v -20.6347 76.4556 12.5052
v -17.4309 89.3239 9.064008
v -18.775 73.83989 18.9309
v -21.2778 98.0248 13.07271
v -22.8421 112.025 36.0627
v -19.5303 120.4783 13.70831
v -11.3532 117.8634 29.87831
v -21.6514 113.5922 27.8047
v -18.3649 122.349 18.0849
v -7.2005 124.4018 23.25051
v -7.2005 124.4018 23.25051
v -18.3649 122.349 18.0849
v -24.5632 117.0416 16.83601
v -50.7026 102.1069 28.8873
v -35.0511 117.1876 25.24901
v -48.426 96.3112 20.99211
v -44.6404 88.27159 29.77161
v -35.0511 117.1876 25.24901
v -53.484 89.12689 34.56
v -24.3116 117.3879 31.35501
v -50.7026 102.1069 28.8873
v -49.3428 86.07559 35.9797
v -44.6404 88.27159 29.77161
v -58.7131 91.0786 30.69041
v -57.72381 83.0193 29.27021
v -49.3672 82.5863 29.6709
v -58.7131 91.0786 30.69041
v -49.3672 82.5863 29.6709
v -8.9506 112.1857 39.32101
v -15.4507 122.2234 10.60911
v -13.8088 124.7415 38.4726
v -10.5925 109.6677 11.45751
v -16.043 131.52 23.89771
v -21.5547 102.3799 40.94991
v -23.0004 117.7456 43.1699
v -32.6025 110.1203 40.90141
v -15.0474 107.5976 43.61841
v -30.8201 127.6642 25.11691
v -44.9911 116.996 26.9161
v -13.8088 124.7415 38.4726
v -8.9506 112.1857 39.32101
v -16.043 131.52 23.89771
v -25.0528 114.598 8.340508
v -34.2444 107.6022 13.0379
v -17.0998 104.45 8.789002
v -23.1967 99.8618 13.0864
v -15.4507 122.2234 10.60911
v -10.5925 109.6677 11.45751
v -21.9213 53.3197 26.6055
v -28.2518 67.1126 20.6019
v -31.1764 56.4205 19.5653
v -15.1067 54.4935 20.2297
v -25.6079 67.5985 4.435205
v -34.7356 53.0441 -1.625697
v -34.7356 53.0441 -1.625697
v -18.6435 64.345 -11.5359
v -21.7445 46.76051 -18.14229
v -25.6079 67.5985 4.435205
v -7.426903 61.6045 -16.262
v -10.2473 44.3806 -17.6517
v 7.320297 121.5402 29.3872
v 4.217499 125.4742 17.64841
v -5.435097 114.335 35.29431
v 3.2714 114.9814 36.0589
v -7.2005 124.4018 23.25051
v -11.3532 117.8634 29.87831
v -7.426903 61.6045 -16.262
v -15.1067 54.4935 20.2297
v -21.9213 53.3197 26.6055
v -10.2473 44.3806 -17.6517
v -1.828102 81.1028 -5.249396
v -1.828598 67.19519 21.4175
v -31.1764 56.4205 19.5653
v -21.7445 46.76051 -18.14229
v 3.763603 61.6045 -16.262
v 5.9981 65.25121 22.0177
v 10.1904 35.2829 -3.383398
v 11.8098 52.04289 28.7074
v 21.6057 37.553 -1.7622
v 22.9141 51.0941 24.1652
v 30.5817 44.9993 12.1879
v -34.7356 53.0441 -1.625697
v 33.7897 69.69869 14.2084
v 35.1961 70.2666 4.2977
v 39.5737 71.9426 11.2295
v -53.484 89.12689 34.56
v -58.7131 91.0786 30.69041
v -57.72381 83.0193 29.27021
v 28.5505 68.3867 14.3042
v 27.352 71.3332 7.397107
v -49.3428 86.07559 35.9797
v -49.3672 82.5863 29.6709
v 2.128502 55.6704 -8.445498
v 11.1613 73.36519 1.158704
v 14.6273 50.4012 -5.469899
v -0.295799 47.9123 -5.618598
v -0.928803 49.5335 14.8612
v 8.454597 27.2859 16.7351
v 8.215996 33.0537 32.119
v 20.9829 29.8833 14.0294
v 19.7744 49.7088 9.067203
v 28.933 35.1705 25.7563
v 16.2257 54.2033 25.3496
v -0.928803 49.5335 14.8612
v 8.215996 33.0537 32.119
v 21.7919 38.2247 37.6712
v 19.7744 49.7088 9.067203
v 28.933 35.1705 25.7563
v 27.596 8.952698 31.5749
v 16.2373 7.041498 33.7266
v 33.7684 14.7441 39.983
v 15.3776 11.7108 43.355
v 26.2141 21.4763 47.21
v 33.7684 14.7441 39.983
v 15.3776 11.7108 43.355
v 32.3659 11.4892 38.3372
v 15.4471 8.457697 41.58689
v 25.7836 12.1563 48.48109
v 32.3659 11.4892 38.3372
v 15.4471 8.457697 41.58689
v -2.033699 75.1313 -1.585097
v -6.206001 55.6704 -8.445498
v -18.3387 44.1216 13.9314
v -15.2295 73.36519 1.158803
v -3.108803 44.4072 16.4083
v -2.472702 64.2944 11.2554
v -11.4621 50.8732 36.2828
v -16.0536 66.60591 37.4623
v -23.5012 45.6909 32.3278
v -34.5561 55.7972 32.3047
v -23.1808 58.558 12.0889
v -23.9701 66.9753 15.2246
v -16.0536 66.60591 37.4623
v -2.472702 64.2944 11.2554
v -30.5904 69.7493 34.883
v -23.1808 58.558 12.0889
v -34.5561 55.7972 32.3047
v -30.6246 50.43959 52.7835
v -19.8611 55.00669 55.8005
v -40.8108 58.5248 56.744
v -22.1497 64.45239 57.075
v -36.2319 69.73239 53.83459
v -40.8108 58.5248 56.744
v -22.1497 64.45239 57.075
v -37.2129 54.7759 55.964
v -21.6176 61.28429 60.4824
v -34.0221 64.22389 62.8358
v -37.2129 54.7759 55.964
v -21.6176 61.28429 60.4824
v -3.108803 44.4072 16.4083
v -0.295799 47.9123 -5.618598
v -2.038002 57.5437 18.2346
v 11.4149 62.6681 17.0515
v -15.4907 62.6681 17.0515
v 10.5773 67.49139 15.8115
v -2.035004 66.1113 19.6013
v -14.6471 67.49139 15.8116
v 13.9197 68.9323 10.9273
v -17.9894 68.9323 10.9274
v 32.3659 11.4892 38.3372
v 15.4471 8.457697 41.58689
v 16.2373 7.041498 33.7266
v 27.596 8.952698 31.5749
v -21.6176 61.28429 60.4824
v -37.2129 54.7759 55.964
v -30.6246 50.43959 52.7835
v -19.8611 55.00669 55.8005
v 25.7836 12.1563 48.48109
v -34.0221 64.22389 62.8358
v -2.033699 75.1313 -1.585097
v -2.035004 66.1113 19.6013
v 10.5773 67.49139 15.8115
v 11.1613 73.36519 1.158704
v -15.2295 73.36519 1.158803
v -14.6471 67.49139 15.8116
v 13.9197 68.9323 10.9273
v -17.9894 68.9323 10.9274
v 13.9197 68.9323 10.9273
v -17.9894 68.9323 10.9274
v 28.2076 32.0129 -13.044
v 39.8909 31.9942 -12.9926
v 42.8421 24.1343 -15.9441
v 26.6388 24.153 -15.9955
v 16.8878 18.3125 42.9639
v 28.2466 19.68079 45.4958
v 29.3557 23.8229 31.7676
v 19.6483 22.6752 29.4107
v 28.2466 19.68079 45.4958
v 33.103 13.0655 44.87329
v 35.5294 16.3169 28.6177
v 29.3557 23.8229 31.7676
v 16.1842 11.0487 40.9132
v 16.8878 18.3125 42.9639
v 19.6483 22.6752 29.4107
v 26.6862 2.048998 41.9654
v 36.1433 21.1993 6.942999
v 28.8191 21.2181 6.8916
v 38.4396 19.6369 3.2155
v 36.1433 21.1993 6.942999
v 28.8191 21.2181 6.8916
v 26.0521 18.1604 0.3141
v 34.6816 11.5597 -2.4936
v 37.0134 28.5814 -5.514199
v 28.6658 28.6001 -5.565598
v 40.7738 19.9523 -3.8482
v 37.0134 28.5814 -5.514199
v 28.6658 28.6001 -5.565598
v 27.2118 19.971 -3.8996
v 39.8909 31.9942 -12.9926
v 28.2076 32.0129 -13.044
v 40.3803 3.040802 -16.917
v 34.775 -3.2533 -14.6006
v 35.3741 -1.518394 -25.31
v 41.6823 3.7008 -23.3812
v 27.9113 3.0595 -16.9684
v 27.2697 3.7195 -23.4327
v 34.7497 6.641203 -8.591501
v 40.761 11.2541 -12.7652
v 27.5962 11.2728 -12.8167
v 34.7474 18.4028 39.1375
v 27.7717 27.4633 48.2252
v 34.7274 17.7998 48.3193
v 28.797 27.7559 39.2194
v 28.797 27.7559 39.2194
v 16.8624 26.1575 45.71901
v 27.7717 27.4633 48.2252
v 19.7781 26.6764 37.1474
v 19.7781 26.6764 37.1474
v 12.9089 15.1882 43.3069
v 16.8624 26.1575 45.71901
v 16.7096 16.2438 34.9936
v 18.6744 2.262396 42.6805
v 24.1292 5.936999 28.6858
v 33.2891 7.033298 30.7901
v 32.8564 3.9599 45.93859
v 23.8181 16.494 45.8131
v 28.3852 -5.590105 37.4395
v 23.7598 -7.730604 58.6884
v -18.1477 -0.521605 44.3702
v -34.7548 -0.292702 41.4033
v -27.0977 0.187403 36.8937
v -22.3424 -1.255003 51.77419
v -21.1601 63.29319 52.8377
v -28.9544 50.55269 43.4518
v -31.6047 64.07149 47.5834
v -19.9892 49.6982 47.9238
v -31.6047 64.07149 47.5834
v -36.7296 46.1179 48.3768
v -38.2696 62.3792 52.1055
v -28.9544 50.55269 43.4518
v -22.6742 61.0346 59.9137
v -19.9892 49.6982 47.9238
v -21.1601 63.29319 52.8377
v -35.6534 59.99369 64.6936
v -26.3644 20.7319 39.2421
v -20.7537 21.8975 43.8037
v -34.1144 20.76149 44.5072
v -26.3644 20.7319 39.2421
v -20.7537 21.8975 43.8037
v -22.6955 19.77519 50.224
v -33.1418 15.64389 53.6118
v -25.3107 8.146297 39.946
v -18.9161 7.624195 45.2865
v -33.0372 12.3533 43.6849
v -25.3107 8.146297 39.946
v -18.9161 7.624195 45.2865
v -22.6481 11.5391 52.3644
v -27.0977 0.187403 36.8937
v -18.1477 -0.521605 44.3702
v -45.8238 4.5 58.9089
v -46.5879 -2.561604 67.0232
v -44.8224 8.156796 66.7845
v -47.8437 -1.809498 58.7401
v -36.8031 -2.671406 67.9642
v -36.272 3.746899 66.8886
v -37.5055 11.16739 58.3341
v -40.24169 6.219498 51.787
v -30.1569 5.427399 60.2121
v -38.7961 56.47029 51.4456
v -42.9361 60.82 56.0403
v -30.7175 66.96249 45.2822
v -30.0889 57.9317 44.7418
v -30.0889 57.9317 44.7418
v -30.7175 66.96249 45.2822
v -20.6712 66.14189 50.3214
v -21.7833 57.2533 48.9079
v -21.7833 57.2533 48.9079
v -20.6712 66.14189 50.3214
v -20.3972 63.86081 62.0045
v -22.1851 55.11359 59.7777
v -30.0743 61.72099 72.1279
v -31.5588 47.23439 66.9277
v -39.9941 47.9233 62.6965
v -43.1345 62.78779 65.57689
v -32.8897 59.9994 61.0796
v -40.8959 54.6512 76.1701
v -40.8388 76.23639 79.57099
v 35.7262 6.197201 34.40579
v 34.8627 24.8984 28.4213
v 37.353 16.4574 21.979
v 35.9747 19.3145 41.9607
v 33.2688 19.182 47.5099
v 37.7183 37.3365 55.9853
v 39.9845 37.03049 28.6951
v 41.7104 29.06 -6.273899
v 41.9229 19.527 -10.54
v 40.1198 21.3787 0.8463
v 43.5384 24.743 -1.3485
v 46.8697 29.4747 11.2997
v 48.6422 35.2375 -5.144499
v -41.8375 51.3545 57.4916
v -37.7729 39.3297 47.4304
v -33.6205 46.4782 40.3162
v -38.7895 59.3931 45.0301
v -41.01479 55.7872 52.0118
v -36.4954 73.81239 27.38541
v -34.2238 46.5219 27.1584
v -28.7555 7.545597 36.743
v -30.6113 16.4196 42.22359
v -35.6144 6.116497 44.4914
v -28.5936 24.5716 29.9821
v -31.6805 13.5712 37.91479
v -30.0859 7.299698 27.488
v 35.7988 22.5449 39.4733
v 37.1169 23.0795 40.7826
v 35.7827 25.9353 47.5872
v 33.8471 25.8308 46.96159
v 34.9753 66.3863 7.177804
v 39.3617 69.7811 13.4516
v 41.1491 62.3721 20.0355
v 38.4877 56.0483 13.5543
v 27.363 68.2504 9.958405
v 34.9753 66.3863 7.177804
v 38.4877 56.0483 13.5543
v 25.983 58.6963 16.9361
v 33.6534 68.41449 16.9278
v 34.4058 66.06159 23.6252
v 28.5308 67.1861 17.3817
v 26.6754 65.90689 23.7718
v 28.5308 67.1861 17.3817
v 26.6754 65.90689 23.7718
v 39.7228 45.5419 29.2107
v 34.9299 41.5318 26.424
v 34.9299 41.5318 26.424
v 30.7254 42.5077 30.0786
v 36.9333 48.5157 33.3516
v 30.4843 46.3922 33.4566
v 30.4843 46.3922 33.4566
v 39.9571 41.1403 29.9816
v 37.7238 45.4847 36.5929
v 39.8878 35.61 32.88181
v 37.4321 30.5554 33.9502
v 38.4762 39.8151 40.35839
v 37.4321 30.5554 33.9502
v 35.4931 33.2393 38.5773
v 27.0359 38.2083 42.1712
v 26.3725 36.7186 41.21621
v 27.3673 35.84439 42.0065
v 28.0307 37.3342 42.9614
v 39.2782 30.08649 35.8839
v 38.3018 34.2111 42.9311
v 35.5837 35.228 41.333
v 35.7988 22.5449 39.4733
v 33.8471 25.8308 46.96159
v 35.5837 35.228 41.333
v 28.2441 39.63639 36.0396
v 28.587 42.4869 37.7829
v 30.7818 38.03139 37.842
v 31.1248 40.8818 39.5854
v 30.7818 38.03139 37.842
v 31.1248 40.8818 39.5854
v 28.0307 37.3342 42.9614
v 27.3673 35.84439 42.0065
v 28.587 42.4869 37.7829
v 27.0359 38.2083 42.1712
v 41.9087 71.1003 7.7702
v 24.1454 75.4223 18.03681
v 35.7546 78.6452 20.15121
v 27.0488 66.97499 5.063703
v 41.9087 71.1003 7.7702
v 36.6194 72.98549 24.0301
v 42.7735 65.44049 11.649
v 35.7546 78.6452 20.15121
v 25.0101 69.7626 21.91571
v 24.1454 75.4223 18.03681
v 24.1454 75.4223 18.03681
v 27.9136 61.3152 8.942601
v 25.0101 69.7626 21.91571
v 27.0488 66.97499 5.063703
v 27.9136 61.3152 8.942601
v 34.8071 75.9525 -1.1314
v 27.0488 66.97499 5.063703
v 34.8644 79.8949 -9.478995
v 34.8644 79.8949 -9.478995
v -60.7398 80.31259 83.6976
v -57.1148 87.86218 86.37661
v -61.34921 82.0941 84.13509
v -55.6034 86.535 86.05691
v -57.553 82.8645 29.2591
v -60.1901 92.07669 40.6458
v -58.6988 90.9561 30.7125
v -61.6952 82.77979 41.26751
v -49.376 82.59351 29.6757
v -61.6952 82.77979 41.26751
v -57.553 82.8645 29.2591
v -48.56409 81.2478 41.48491
v -51.89291 93.7845 40.1862
v -53.3758 89.03679 34.56179
v -44.917 90.455 40.4245
v -49.32949 86.05809 35.9805
v -49.32949 86.05809 35.9805
v -44.917 90.455 40.4245
v -61.14159 88.37239 59.52221
v -58.8628 82.0453 60.7844
v -58.8628 82.0453 60.7844
v -53.6002 83.3111 62.4245
v -56.43191 91.74988 59.95169
v -51.1811 87.7964 61.6577
v -51.1811 87.7964 61.6577
v -62.3433 86.4348 63.3724
v -56.94061 92.5509 64.3581
v -62.894 85.1716 69.4634
v -61.75719 81.8954 74.0126
v -57.98861 92.15619 71.1136
v -61.75719 81.8954 74.0126
v -57.7376 85.8053 74.9753
v -47.5324 87.52222 73.5498
v -48.5526 86.17259 75.2417
v -47.66711 85.70959 74.0671
v -48.41799 87.98521 74.7244
v -62.9217 83.74889 75.6172
v -58.5722 90.5789 77.04871
v -56.35661 88.8996 75.24751
v -60.7398 80.31259 83.6976
v -55.6034 86.535 86.05691
v -56.35661 88.8996 75.24751
v -50.2239 84.66179 68.48331
v -49.1582 87.67209 67.44221
v -53.6002 83.3111 62.4245
v -52.3762 86.06078 70.86561
v -57.7376 85.8053 74.9753
v -50.2239 84.66179 68.48331
v -51.31051 89.07109 69.82441
v -52.3762 86.06078 70.86561
v -52.3762 86.06078 70.86561
v -48.41799 87.98521 74.7244
v -51.31051 89.07109 69.82441
v -48.5526 86.17259 75.2417
v -47.5324 87.52222 73.5498
v -49.1582 87.67209 67.44221
v -62.964 89.0213 25.84051
v -51.23431 99.2785 28.1431
v -42.366 90.92789 29.2643
v -51.6125 78.33249 27.2757
v -62.964 89.0213 25.84051
v -64.0734 88.75877 32.6616
v -52.3438 99.0161 34.9641
v -51.23431 99.2785 28.1431
v -43.4755 90.6655 36.0854
v -42.366 90.92789 29.2643
v -42.366 90.92789 29.2643
v -43.4755 90.6655 36.0854
v -52.72201 78.07009 34.09681
v -51.6125 78.33249 27.2757
v -54.206 86.841 14.7071
v -52.72201 78.07009 34.09681
v -51.6125 78.33249 27.2757
v -59.4011 78.92819 7.902307
v -59.4011 78.92819 7.902307
v 43.0619 59.9655 17.1034
v 39.5039 64.2137 21.2642
v 42.3178 71.6234 10.7751
v 44.3558 67.63849 14.9124
v 49.7046 71.4303 -6.078296
v 53.0979 52.0574 10.273
v -63.72759 89.6349 40.6101
v -61.83421 91.7659 27.63391
v -57.9585 93.43779 40.0849
v -74.0621 83.2566 16.83021
v -63.4444 93.1656 33.3433
v -77.24529 84.65949 42.1697
v -1.677498 110.308 44.908
v 8.060898 122.9963 32.0797
v -1.677498 120.22 44.128
v 10.1741 118.831 32.56601
v 2.130997 124.051 20.0243
v 2.9524 120.1477 17.5161
v -5.431503 124.051 20.0243
v -6.252899 120.1477 17.51621
v 7.979202 136.2495 33.05951
v -1.678703 130.6594 46.3326
v 2.101097 139.5713 22.16371
v -5.398003 139.5713 22.16371
v 10.6954 146.907 32.953
v -1.677498 142.1462 50.18141
v 3.154999 147.4962 21.64671
v -6.455597 147.4962 21.64671
v -1.677498 151.1558 30.71761
v -11.4159 122.9963 32.0797
v -13.5291 118.831 32.56612
v -11.3367 136.2495 33.05951
v -14.0504 146.907 32.953
v 10.1741 118.831 32.56601
v -13.5291 118.831 32.56612
v -6.252899 120.1477 17.51621
v 2.9524 120.1477 17.5161
v -1.677498 110.308 44.908
v -53.2131 99.99818 67.6249
v -53.2131 99.9982 73.8284
v -53.2131 77.4604 73.8284
v -53.2131 77.46049 67.62491
v -53.2131 70.76129 70.7267
v -53.2131 70.76129 67.62491
v -53.2131 -22.7266 70.72668
v -53.2131 -6.778206 64.44869
v -53.2131 70.76129 73.8284
v -53.2131 -6.778301 77.00459
v -55.1448 99.99818 67.6249
v -55.1448 77.46049 67.62491
v -55.1448 77.4604 73.8284
v -55.1448 99.9982 73.8284
v -55.1448 70.76129 67.62491
v -55.1448 70.76129 70.7267
v -55.1448 -6.778206 64.44869
v -55.1448 -22.7266 70.72668
v -55.1448 70.76129 73.8284
v -55.1448 -6.778301 77.00459
v -53.2131 99.99818 67.6249
v -53.2131 77.46049 67.62491
v -55.1448 77.46049 67.62491
v -55.1448 99.99818 67.6249
v -53.2131 70.76129 67.62491
v -53.2131 -6.778206 64.44869
v -55.1448 -6.778206 64.44869
v -55.1448 70.76129 67.62491
v -53.2131 -6.778206 64.44869
v -53.2131 -22.7266 70.72668
v -55.1448 -22.7266 70.72668
v -55.1448 -6.778206 64.44869
v -53.2131 -6.778301 77.00459
v -55.1448 -6.778301 77.00459
v -53.2131 -6.778301 77.00459
v -53.2131 70.76129 73.8284
v -55.1448 70.76129 73.8284
v -55.1448 -6.778301 77.00459
v -53.2131 77.4604 73.8284
v -53.2131 99.9982 73.8284
v -55.1448 99.9982 73.8284
v -55.1448 77.4604 73.8284
v -53.2131 99.9982 73.8284
v -53.2131 99.99818 67.6249
v -55.1448 99.99818 67.6249
v -55.1448 99.9982 73.8284
v -53.2131 70.76119 48.3589
v -53.2131 77.4604 56.2249
v -53.2131 77.46049 85.22841
v -53.2131 70.7612 93.09439
v -55.1448 77.4604 56.2249
v -55.1448 70.76119 48.3589
v -55.1448 70.7612 93.09439
v -55.1448 77.46049 85.22841
v -55.1448 77.46049 67.62491
v -53.2131 77.46049 67.62491
v -53.2131 77.4604 56.2249
v -55.1448 77.4604 56.2249
v -53.2131 70.76129 67.62491
v -55.1448 70.76129 67.62491
v -55.1448 70.76119 48.3589
v -53.2131 70.76119 48.3589
v -55.1448 70.76129 73.8284
v -53.2131 70.76129 73.8284
v -53.2131 70.7612 93.09439
v -55.1448 70.7612 93.09439
v -53.2131 77.4604 73.8284
v -55.1448 77.4604 73.8284
v -55.1448 77.46049 85.22841
v -53.2131 77.46049 85.22841
v -55.1448 77.4604 56.2249
v -53.2131 77.4604 56.2249
v -53.2131 70.76119 48.3589
v -55.1448 70.76119 48.3589
v -53.2131 77.46049 85.22841
v -55.1448 77.46049 85.22841
v -55.1448 70.7612 93.09439
v -53.2131 70.7612 93.09439
vn 0.068297 0.618175 -0.783068
vn 0.390492 0.264195 -0.881883
vn 0.918364 0.043098 -0.393384
vn 0.808681 0.490189 -0.325192
vn 0.394803 0.273202 -0.877207
vn 0.870032 -0.057602 -0.489618
vn 0.287913 0.821836 -0.491622
vn 0.596392 0.75149 -0.282096
vn -0.253408 -0.415613 0.873527
vn 0.347211 -0.523716 0.777924
vn 0.171699 -0.721494 0.670795
vn -0.26359 -0.705773 0.657575
vn -0.160301 -0.306403 0.938308
vn -0.411016 -0.161906 0.897136
vn -0.389515 -0.554722 0.735229
vn -0.347586 0.200492 0.915963
vn 0.834607 -0.398403 0.380403
vn 0.880253 0.109594 0.461675
vn 0.865014 -0.450207 0.221504
vn 0.505682 -0.149495 -0.849669
vn 0.880253 0.109594 0.461675
vn 0.834607 -0.398403 0.380403
vn 0.387905 -0.0128 0.921611
vn 0.865014 -0.450207 0.221504
vn 0.505682 -0.149495 -0.849669
vn 0.03 -0.750588 0.660089
vn -0.0214 0.3457 0.938101
vn -0.071197 0.396284 0.915363
vn -0.350593 0.188396 0.917383
vn 0.097798 0.629788 0.770586
vn 0.113004 0.737229 0.666126
vn 0.097798 0.629788 0.770586
vn 0.113004 0.737229 0.666126
vn 0.806085 0.475591 -0.352193
vn 0.768512 -0.104102 0.63131
vn 0.95672 0.171504 0.235105
vn 0.427312 0.500814 -0.752721
vn -0.813527 0.024301 -0.581019
vn 0.768512 -0.104102 0.63131
vn 0.425195 -0.427295 0.79789
vn 0.382303 -0.439904 0.812607
vn 0.95672 0.171504 0.235105
vn -0.435983 -0.680373 0.589077
vn -0.813527 0.024301 -0.581019
vn 0.992902 0.1119 -0.0403
vn 0.033302 0.507429 -0.86105
vn -0.817796 0.188399 -0.543797
vn 0.992902 0.1119 -0.0403
vn -0.817796 0.188399 -0.543797
vn -0.0207 0.075999 0.996893
vn -0.662192 0.718691 0.212097
vn -0.731076 0.658778 0.177594
vn -0.708804 0.679503 0.189401
vn -0.662192 0.718691 0.212097
vn -0.792982 0.592586 0.141497
vn -0.0126 -0.667607 0.744408
vn 0.444209 -0.276106 0.852317
vn 0.311103 -0.202702 0.928508
vn -0.203494 -0.31189 0.928071
vn 0.930568 0.365687 -0.017799
vn 0.824422 0.453512 0.338609
vn 0.0133 0.0206 0.999699
vn -0.387604 -0.051101 0.920409
vn 0.676907 0.497805 0.542206
vn 0.426012 0.151604 -0.891925
vn 0.453719 0.553223 -0.698629
vn 0.169208 -0.032402 -0.985048
vn 0.125603 0.282108 -0.951125
vn 0.472778 0.745765 -0.469378
vn -0.064602 0.638119 -0.767223
vn 0.337098 0.525897 0.780895
vn 0.729976 0.534083 0.426486
vn 0.663497 0.311398 0.680297
vn 0.317397 0.333297 0.887791
vn 0.922396 0.298599 -0.244999
vn 0.938827 0.34431 0.0074
vn 0.922396 0.298599 -0.244999
vn 0.522001 -0.2123 -0.826102
vn 0.646373 0.259689 -0.71747
vn 0.938827 0.34431 0.0074
vn 0.205002 -0.389303 -0.898008
vn 0.309398 -0.0289 -0.950494
vn -0.4133 0.3371 -0.8459
vn -0.726973 0.461583 -0.508381
vn -0.180903 0.156203 -0.971017
vn -0.052501 0.683015 -0.728515
vn -0.741009 -0.525606 0.417905
vn -0.886579 0.023299 0.461989
vn -0.275387 -0.253688 0.927256
vn -0.982389 0.048299 -0.180498
vn -0.877818 0.457709 0.141203
vn -0.932024 -0.110903 -0.345009
vn -0.503684 -0.429986 -0.749276
vn -0.877818 0.457709 0.141203
vn -0.982389 0.048299 -0.180498
vn -0.39409 0.253994 0.883278
vn -0.932024 -0.110903 -0.345009
vn -0.0161 -0.652295 0.757794
vn -0.503684 -0.429986 -0.749276
vn -0.4615 0.4732 0.7504
vn -0.159797 0.599989 0.783886
vn -0.259612 0.947943 0.184408
vn -0.289206 0.94042 0.178804
vn -0.289206 0.94042 0.178804
vn -0.259612 0.947943 0.184408
vn -0.597897 0.587697 -0.545097
vn -0.739374 0.671776 -0.045198
vn -0.591399 0.673399 0.4436
vn -0.496317 0.116204 -0.860329
vn 0.597606 -0.685607 -0.415704
vn -0.591399 0.673399 0.4436
vn -0.305498 0.418297 0.855394
vn -0.361499 0.436099 0.824098
vn -0.739374 0.671776 -0.045198
vn 0.311701 -0.221501 0.924002
vn 0.597606 -0.685607 -0.415704
vn -0.874291 0.434895 -0.215598
vn -0.143904 -0.246007 -0.958526
vn 0.643322 -0.525018 -0.557219
vn -0.874291 0.434895 -0.215598
vn 0.643322 -0.525018 -0.557219
vn 0.931054 0.354383 -0.086896
vn 0.952478 0.293193 -0.082598
vn 0.96172 0.262005 -0.080302
vn 0.931054 0.354383 -0.086896
vn 0.983249 0.167008 -0.073004
vn -0.186295 -0.157596 0.969772
vn -0.247305 0.426509 0.870018
vn -0.40759 0.39319 0.82418
vn 0.162805 0.115903 0.979827
vn -0.491902 0.870504 -0.016
vn -0.670314 0.680615 -0.295706
vn 0.1245 0.498501 0.857902
vn 0.439894 0.228897 0.868389
vn -0.315314 0.936043 0.156207
vn -0.25051 0.287511 -0.924436
vn -0.426388 -0.121997 -0.896276
vn -0.109402 -0.184003 -0.976818
vn -0.290297 -0.419695 -0.859991
vn -0.153996 0.551586 -0.819779
vn 0.239099 0.0902 -0.966797
vn -0.035999 0.384884 0.922263
vn -0.527601 0.558601 0.640001
vn -0.904469 0.327989 0.272691
vn 0.184598 0.238297 0.953488
vn -0.861488 0.474994 -0.179498
vn -0.775195 0.520697 -0.357698
vn -0.775195 0.520697 -0.357698
vn -0.505804 0.478304 -0.717905
vn -0.314295 0.290496 -0.903787
vn -0.861488 0.474994 -0.179498
vn -0.151199 0.336698 -0.929394
vn 0.057202 0.071002 -0.995835
vn -0.2193 0.820699 0.527599
vn -0.048498 0.856369 0.514082
vn -0.090402 0.803418 0.588513
vn -0.113099 0.741996 0.660796
vn 0.040399 0.769574 0.637279
vn -0.145802 0.748412 0.64701
vn 0.775558 -0.624566 0.091795
vn 0.615815 -0.771618 -0.159304
vn 0.1043 -0.987497 0.1182
vn 0.5158 -0.803099 0.2983
vn 0.444409 -0.865018 -0.232905
vn -0.282999 -0.942097 -0.1799
vn -0.313892 -0.935675 0.161196
vn -0.278407 -0.947922 0.154704
vn -0.846308 -0.532005 0.0271
vn -0.817115 -0.557311 0.147403
vn -0.752217 -0.581913 0.309107
vn -0.288091 -0.842773 0.454685
vn 0.079801 -0.885206 0.458303
vn 0.064101 -0.885911 0.459406
vn 0.0172 -0.886607 0.462204
vn -0.221606 -0.956525 0.189605
vn 0.142499 -0.974595 -0.172799
vn 0.101403 -0.993933 -0.042601
vn 0.360693 -0.932682 -0.0023
vn -0.574687 -0.270194 0.772483
vn -0.630927 -0.209109 0.747131
vn -0.441499 -0.513498 0.735798
vn 0.213891 -0.884564 -0.414483
vn 0.025201 -0.966426 -0.255707
vn -0.31541 -0.65092 0.690521
vn -0.068399 -0.872892 0.483095
vn 0.138905 0.065503 -0.988137
vn 0.693521 0.34231 -0.633919
vn 0.656428 -0.095404 -0.748332
vn -0.111105 -0.710931 -0.69443
vn -0.611076 -0.119695 0.78247
vn -0.614119 -0.664421 -0.425914
vn -0.855991 0.0393 0.515495
vn 0.507125 -0.491725 -0.707835
vn 0.921206 0.388503 0.0211
vn 0.957064 0.283789 -0.059098
vn 0.056999 0.679893 0.731093
vn -0.611076 -0.119695 0.78247
vn -0.855991 0.0393 0.515495
vn 0.227985 0.616959 0.75325
vn 0.921206 0.388503 0.0211
vn 0.957064 0.283789 -0.059098
vn 0.471717 -0.449916 -0.758327
vn -0.903675 -0.36709 -0.220494
vn 0.996356 -0.085296 -0
vn -0.756908 -0.0364 0.652507
vn 0.309518 0.217212 0.925753
vn 0.996356 -0.085296 -0
vn -0.756908 -0.0364 0.652507
vn 0.925425 -0.37631 -0.044501
vn -0.675217 -0.138404 0.724518
vn 0.379894 -0.158298 0.911385
vn 0.925425 -0.37631 -0.044501
vn -0.675217 -0.138404 0.724518
vn 0 0.36291 -0.931824
vn -0.385805 -0.295104 -0.87411
vn -0.595908 -0.612208 -0.519707
vn -0.763658 0.077396 -0.640965
vn 0.386793 -0.867785 0.311995
vn 0.873105 -0.0053 0.487503
vn 0.756834 -0.462221 0.46212
vn 0.651984 0.721483 0.233194
vn -0.271693 -0.956974 0.101897
vn -0.930619 -0.167703 -0.325307
vn -0.866603 0.236301 -0.439502
vn -0.174699 0.635596 -0.751996
vn 0.651984 0.721483 0.233194
vn 0.873105 -0.0053 0.487503
vn -0.476097 0.856395 -0.199799
vn -0.866603 0.236301 -0.439502
vn -0.930619 -0.167703 -0.325307
vn -0.212511 -0.976952 -0.020101
vn 0.946685 -0.076299 0.312995
vn -0.916222 -0.397309 0.051801
vn 0.607223 0.731428 0.310312
vn -0.445395 0.853591 0.270197
vn -0.916222 -0.397309 0.051801
vn 0.607223 0.731428 0.310312
vn -0.703197 -0.700397 0.122299
vn 0.539002 0.706903 0.458002
vn -0.395093 0.387993 0.832685
vn -0.703197 -0.700397 0.122299
vn 0.539002 0.706903 0.458002
vn 0.386793 -0.867785 0.311995
vn -0.111105 -0.710931 -0.69443
vn -0.354202 -0.534303 0.767504
vn 0.453296 0.215598 0.864893
vn -0.815396 -0.484398 0.316998
vn 0.523218 0.29631 0.799027
vn 0 0.065802 0.997833
vn -0.537422 0.340014 0.771731
vn 0.892256 0.277386 0.356282
vn -0.912624 0.151704 -0.37961
vn 0.206798 -0.957093 0.202998
vn 0.209401 -0.957903 0.196401
vn 0.205302 -0.957009 0.204902
vn 0.201702 -0.95531 0.216102
vn 0.0157 -0.589104 0.807905
vn 0.0105 -0.587188 0.809383
vn 0.0171 -0.588217 0.808523
vn 0.026 -0.592992 0.804789
vn 0.209792 -0.957262 0.199092
vn 0.013 -0.590984 0.806578
vn 0 0.923877 0.38269
vn 0 0.920094 0.391698
vn 0.071402 0.922223 0.380009
vn 0.0985 0.922304 0.373702
vn -0.098504 0.922339 0.373616
vn -0.071404 0.922258 0.379924
vn 0.150395 0.915567 0.372987
vn -0.150297 0.915581 0.372992
vn 0.892256 0.277386 0.356282
vn -0.912624 0.151704 -0.37961
vn -0.644726 0.651026 -0.400616
vn 0.352712 0.927331 0.125104
vn 0.914519 0.248905 -0.318907
vn -0.723427 0.26061 -0.639324
vn -0.540919 0.826329 0.156806
vn 0.542706 0.791309 0.281603
vn 0.352602 0.918804 0.177401
vn -0.583027 0.803437 -0.120705
vn 0.542706 0.791309 0.281603
vn 0.987594 0.0317 0.153799
vn 0.987631 0.050602 0.148405
vn 0.352602 0.918804 0.177401
vn -0.966865 0.0071 -0.255191
vn -0.540919 0.826329 0.156806
vn -0.583027 0.803437 -0.120705
vn 0.189008 -0.964639 -0.183707
vn 0.43708 0.876861 0.200191
vn -0.556283 0.813876 0.167795
vn 0.95828 0.199396 0.204796
vn 0.43708 0.876861 0.200191
vn -0.556283 0.813876 0.167795
vn -0.955612 -0.194502 -0.221303
vn 0.155407 -0.964545 0.21331
vn 0.505469 0.715955 0.48157
vn -0.614303 0.720603 0.321502
vn 0.936052 -0.049103 0.348419
vn 0.505469 0.715955 0.48157
vn -0.614303 0.720603 0.321502
vn -0.989383 -0.144098 0.0189
vn 0.352712 0.927331 0.125104
vn -0.644726 0.651026 -0.400616
vn 0.852385 -0.439592 0.283195
vn -0.134497 -0.934776 0.328792
vn 0.338996 -0.81219 -0.474794
vn 0.52888 0.041798 -0.847667
vn -0.805198 -0.441499 0.395899
vn -0.832738 -0.259812 -0.488922
vn 0.188506 -0.603419 0.774824
vn 0.886734 -0.287111 0.362314
vn -0.894309 -0.305203 0.327203
vn 0.934705 0.351602 0.052
vn 0.370704 0.609006 0.701207
vn 0.770112 0.0159 0.63771
vn 0.22891 0.971742 0.057603
vn 0.22891 0.971742 0.057603
vn -0.497084 0.673179 0.547483
vn 0.370704 0.609006 0.701207
vn -0.720209 0.652309 -0.236203
vn -0.720209 0.652309 -0.236203
vn -0.959566 0.025899 0.28029
vn -0.497084 0.673179 0.547483
vn -0.89673 -0.129804 -0.423114
vn -0.900624 -0.35661 0.248407
vn -0.504305 -0.569506 -0.649107
vn 0.907925 -0.336109 -0.250407
vn 0.627003 -0.153201 0.763804
vn -0.205896 -0.138797 0.968681
vn 0.206292 -0.872067 -0.443783
vn -0.093904 -0.654929 0.749833
vn 0.799014 -0.60131 -0.0016
vn -0.620325 -0.323713 -0.714428
vn 0.317406 -0.118002 -0.940919
vn 0.571101 -0.726001 0.383101
vn 0.758819 0.279007 -0.588515
vn -0.070903 0.216311 -0.973747
vn -0.275416 0.230213 -0.933353
vn 0.85752 0.134303 -0.496611
vn -0.275416 0.230213 -0.933353
vn -0.914675 -0.001 -0.404189
vn -0.92727 -0.002 -0.374388
vn -0.070903 0.216311 -0.973747
vn 0.885548 -0.092105 0.455325
vn 0.85752 0.134303 -0.496611
vn 0.758819 0.279007 -0.588515
vn -0.483991 -0.252395 0.837884
vn 0.0207 0.052201 -0.998422
vn 0.956068 0.027099 -0.29189
vn -0.836595 -0.0216 -0.547397
vn 0.0207 0.052201 -0.998422
vn 0.956068 0.027099 -0.29189
vn 0.702681 0.0059 0.711481
vn -0.578088 0.316993 0.751884
vn 0.126401 0.138201 -0.982305
vn 0.966771 0.123396 -0.223893
vn -0.778007 0.235602 -0.582406
vn 0.126401 0.138201 -0.982305
vn 0.966771 0.123396 -0.223893
vn 0.712137 0.173609 0.680236
vn 0.317406 -0.118002 -0.940919
vn 0.799014 -0.60131 -0.0016
vn -0.856191 0.441596 -0.268197
vn -0.854644 -0.210511 0.474625
vn -0.389314 0.56762 0.725426
vn -0.566208 -0.794911 -0.218003
vn 0.373516 -0.443319 0.814834
vn 0.437208 0.457309 0.774415
vn -0.338505 0.921313 0.191303
vn -0.77302 0.477012 -0.418211
vn 0.5727 0.3485 0.741999
vn -0.743994 -0.097099 -0.661094
vn -0.829326 0.470115 -0.30201
vn -0.385104 0.719608 -0.577806
vn 0.113496 0.067198 -0.991264
vn 0.113496 0.067198 -0.991264
vn -0.385104 0.719608 -0.577806
vn 0.544283 0.701679 -0.459786
vn 0.92907 -0.088797 -0.359088
vn 0.92907 -0.088797 -0.359088
vn 0.544283 0.701679 -0.459786
vn 0.824417 0.49721 0.270406
vn 0.853655 -0.282718 0.437428
vn 0.732689 0.404794 0.547092
vn 0.376508 -0.588212 0.715715
vn -0.876631 -0.480417 0.026801
vn -0.696588 0.669788 -0.257195
vn -0.083903 0.992633 0.087403
vn -0.418183 -0.511779 0.75047
vn -0.261596 0.723189 0.639191
vn -0.169193 -0.937759 0.303287
vn -0.943478 0.153796 -0.293593
vn 0.989852 0.082796 -0.115494
vn 0.975424 -0.172804 0.136703
vn -0.290914 -0.544727 0.786538
vn -0.179005 0.202305 0.962824
vn 0.963509 -0.145001 -0.225002
vn -0.703024 0.558619 -0.440115
vn 0.836481 -0.504188 -0.214695
vn -0.387086 -0.844469 0.370186
vn 0.865589 -0.477794 -0.149898
vn 0.142002 -0.0299 0.989415
vn 0.796415 -0.250105 -0.55061
vn 0.205597 -0.970788 0.123698
vn -0.867644 -0.265483 -0.420373
vn 0.9595 0.0238 0.2807
vn -0.899218 -0.272205 -0.342507
vn 0.538499 -0.709798 -0.454099
vn 0.381809 -0.450311 -0.80712
vn -0.903792 -0.380197 -0.196498
vn 0.77922 -0.616716 0.111703
vn -0.132106 0.568027 0.812338
vn -0.992521 -0.0189 -0.120603
vn 0.090598 0.965079 -0.245795
vn -0.984639 0.037602 -0.170507
vn -0.882204 -0.413902 -0.224501
vn -0.461586 -0.879173 -0.118296
vn 0.701623 -0.693323 -0.164405
vn 0.514224 -0.529825 0.674432
vn -0.836703 0.0771 0.542202
vn 0.607491 -0.333795 -0.720789
vn 0.720622 0.66752 0.187406
vn 0.978011 0.177802 0.109001
vn 0.351709 -0.548313 -0.758719
vn -0.732507 -0.364104 -0.575206
vn 0.607491 -0.333795 -0.720789
vn 0.351709 -0.548313 -0.758719
vn -0.876115 -0.269105 -0.400007
vn -0.085903 0.959635 0.26781
vn 0.193097 0.715788 0.671089
vn -0.806906 0.589304 0.0403
vn -0.7435 0.5713 0.3476
vn -0.806906 0.589304 0.0403
vn -0.7435 0.5713 0.3476
vn 0.994715 -0.0233 -0.100002
vn 0.132298 -0.564893 -0.81449
vn 0.132298 -0.564893 -0.81449
vn -0.835321 -0.465612 -0.292308
vn 0.470227 0.53873 0.69904
vn -0.582396 0.570596 0.578996
vn -0.582396 0.570596 0.578996
vn 0.969504 -0.0286 -0.243401
vn 0.508414 0.598816 0.618817
vn 0.909637 -0.231209 -0.345114
vn -0.021599 -0.646182 -0.762878
vn 0.583788 0.360093 0.727685
vn -0.021599 -0.646182 -0.762878
vn -0.941251 -0.337683 0.0041
vn -0.581582 0.373689 0.722578
vn -0.993697 -0.1121 0.0008
vn -0.371081 -0.897054 0.239988
vn 0.38881 -0.153604 0.908423
vn 0.936271 -0.31359 -0.158295
vn 0.527108 0.343205 0.777411
vn -0.627679 0.210493 0.749475
vn -0.461586 -0.879173 -0.118296
vn -0.836703 0.0771 0.542202
vn -0.627679 0.210493 0.749475
vn -0.762717 -0.400109 -0.508111
vn -0.749115 0.608812 0.261105
vn 0.035499 -0.999166 0.020199
vn -0.113801 0.366304 0.92351
vn 0.035499 -0.999166 0.020199
vn -0.113801 0.366304 0.92351
vn 0.38881 -0.153604 0.908423
vn -0.371081 -0.897054 0.239988
vn -0.749115 0.608812 0.261105
vn -0.581582 0.373689 0.722578
vn 0.641085 0.636985 -0.42809
vn -0.810307 0.564805 -0.156201
vn 0.082199 0.850389 0.519694
vn -0.546187 0.061799 -0.83538
vn 0.641085 0.636985 -0.42809
vn 0.658313 0.49141 0.570211
vn 0.805803 -0.308301 -0.505602
vn 0.082199 0.850389 0.519694
vn -0.666323 0.349612 0.658623
vn -0.810307 0.564805 -0.156201
vn -0.810307 0.564805 -0.156201
vn -0.575 -0.5623 -0.5943
vn -0.666323 0.349612 0.658623
vn -0.546187 0.061799 -0.83538
vn -0.575 -0.5623 -0.5943
vn 0.304594 -0.696886 -0.649287
vn -0.546187 0.061799 -0.83538
vn 0.201997 -0.942488 -0.266297
vn 0.201997 -0.942488 -0.266297
vn 0.129296 -0.793872 0.59418
vn -0.39281 0.37671 0.838922
vn -0.882289 -0.214497 0.418995
vn 0.953656 0.056297 0.295586
vn -0.872733 -0.439617 -0.212308
vn -0.797274 0.597081 -0.088597
vn -0.334088 0.79477 -0.506681
vn -0.718497 -0.690597 -0.0827
vn 0.407002 -0.909304 -0.0867
vn -0.718497 -0.690597 -0.0827
vn -0.872733 -0.439617 -0.212308
vn 0.600013 -0.798318 -0.051701
vn 0.29411 0.939632 -0.174906
vn 0.499799 0.507899 -0.701598
vn 0.939361 0.173693 -0.295688
vn 0.871464 0.0088 -0.49038
vn 0.871464 0.0088 -0.49038
vn 0.939361 0.173693 -0.295688
vn -0.935588 0.346795 -0.066399
vn -0.546224 -0.832336 -0.094104
vn -0.546224 -0.832336 -0.094104
vn 0.52452 -0.832432 0.178707
vn -0.043501 0.998712 0.0261
vn 0.87523 0.480616 -0.054602
vn 0.87523 0.480616 -0.054602
vn -0.962023 0.234806 -0.139203
vn -0.087001 0.99461 -0.056401
vn -0.998497 0.0208 -0.0507
vn -0.41252 -0.910945 -0.0025
vn -0.186802 0.962708 0.195702
vn -0.41252 -0.910945 -0.0025
vn 0.754893 -0.600895 0.262798
vn 0.866334 0.463618 0.185807
vn 0.159795 -0.518885 0.839776
vn 0.864778 -0.494187 0.089098
vn -0.096996 0.702972 0.704572
vn -0.984675 0.112697 0.133097
vn -0.124295 0.962561 0.24089
vn 0.870563 0.366984 0.327786
vn 0.129296 -0.793872 0.59418
vn 0.953656 0.056297 0.295586
vn 0.870563 0.366984 0.327786
vn 0.408699 -0.912397 -0.0223
vn 0.932874 0.211194 -0.291792
vn 0.52452 -0.832432 0.178707
vn -0.307595 -0.553891 0.773687
vn 0.754893 -0.600895 0.262798
vn 0.408699 -0.912397 -0.0223
vn 0.508086 0.799578 0.320192
vn -0.307595 -0.553891 0.773687
vn -0.307595 -0.553891 0.773687
vn -0.096996 0.702972 0.704572
vn 0.508086 0.799578 0.320192
vn 0.159795 -0.518885 0.839776
vn 0.866334 0.463618 0.185807
vn 0.932874 0.211194 -0.291792
vn -0.090601 0.297202 -0.950506
vn 0.336002 0.889104 -0.310801
vn 0.839186 -0.127898 -0.528591
vn -0.119102 -0.104002 -0.98742
vn -0.090601 0.297202 -0.950506
vn -0.854486 -0.464892 -0.231796
vn -0.268489 0.96326 -0.0066
vn 0.336002 0.889104 -0.310801
vn 0.915021 0.369008 0.163004
vn 0.839186 -0.127898 -0.528591
vn 0.839186 -0.127898 -0.528591
vn 0.915021 0.369008 0.163004
vn 0.0379 -0.995093 -0.091399
vn -0.119102 -0.104002 -0.98742
vn -0.654921 -0.749224 0.098703
vn 0.0379 -0.995093 -0.091399
vn -0.119102 -0.104002 -0.98742
vn 0.351692 0.320393 0.87958
vn 0.351692 0.320393 0.87958
vn -0.755563 -0.649668 0.083996
vn 0.191404 0.53341 0.823916
vn -0.675093 0.734592 0.067999
vn 0.702498 0.432099 0.565498
vn -0.120793 0.72836 -0.674463
vn 0.784117 0.0005 0.620613
vn 0.525413 -0.647816 0.551613
vn 0.838486 0.183797 -0.512991
vn 0.2474 0.960501 0.1274
vn 0.094002 -0.090802 -0.991423
vn -0.326601 0.944503 0.0353
vn -0.504004 0.765805 0.399403
vn 0 0.281912 0.95944
vn 0.972471 0.176195 0.152496
vn 0 -0.059502 0.998228
vn 0.886696 0.462298 0.0071
vn 0.5105 0.3308 -0.793701
vn 0.313289 0.55918 -0.767573
vn -0.505808 0.407907 -0.760112
vn -0.476597 0.543997 -0.690596
vn 0.990184 -0.135498 0.034299
vn 0 -0.298805 0.954314
vn 0.514291 -0.0074 -0.857584
vn -0.512923 0.032002 -0.857838
vn 0.907318 0.359207 0.218504
vn 0 0.594787 0.803883
vn 0.55969 0.396693 -0.727587
vn -0.460573 0.312081 -0.83095
vn 0 0.999874 0.0159
vn -0.972743 0.176408 0.150507
vn -0.886439 0.46282 0.0049
vn -0.990233 -0.135605 0.032401
vn -0.90746 0.359584 0.217291
vn 0 -0.966938 -0.25501
vn 0 -0.940788 -0.338996
vn 0 -0.996191 -0.087199
vn 0 -0.996191 -0.087199
vn 0 -0.822894 -0.568196
vn 1 0 -0
vn 1 0 -0
vn 1 0 -0
vn 1 0 -0
vn 1 0 -0
vn 1 0 -0
vn 1 0 -0
vn 1 0 -0
vn 1 0 -0
vn 1 0 -0
vn -1 0 -0
vn -1 0 -0
vn -1 0 -0
vn -1 0 -0
vn -1 0 -0
vn -1 0 -0
vn -1 0 -0
vn -1 0 -0
vn -1 0 -0
vn -1 0 -0
vn 0 0 -1
vn 0 0 -1
vn 0 0 -1
vn 0 0 -1
vn 0 0.040899 -0.999163
vn 0 0.040899 -0.999163
vn 0 0.040899 -0.999163
vn 0 0.040899 -0.999163
vn 0 -0.366299 -0.930497
vn 0 -0.76314 0.646234
vn 0 -0.76314 -0.646234
vn 0 -0.366299 -0.930497
vn 0 -0.366299 0.930497
vn 0 -0.366299 0.930497
vn 0 0.040898 0.999163
vn 0 0.040898 0.999163
vn 0 0.040898 0.999163
vn 0 0.040898 0.999163
vn 0 -0 1
vn 0 -0 1
vn 0 -0 1
vn 0 -0 1
vn 0 1 0
vn 0 1 0
vn 0 1 0
vn 0 1 0
vn 1 0 -0
vn 1 0 -0
vn 1 0 -0
vn 1 0 -0
vn -1 0 -0
vn -1 0 -0
vn -1 0 -0
vn -1 0 -0
vn 0 1 0
vn 0 1 0
vn 0 1 0
vn 0 1 0
vn 0 -1 -0
vn 0 -1 -0
vn 0 -1 -0
vn 0 -1 -0
vn 0 -1 -0
vn 0 -1 -0
vn 0 -1 -0
vn 0 -1 -0
vn 0 1 0
vn 0 1 0
vn 0 1 0
vn 0 1 0
vn 0 0.7613 -0.6484
vn 0 0.7613 -0.6484
vn 0 0.7613 -0.6484
vn 0 0.7613 -0.6484
vn 0 0.7613 0.6484
vn 0 0.7613 0.6484
vn 0 0.7613 0.6484
vn 0 0.7613 0.6484
vt 0.5046 0.4176
vt 0.5046 0.582
vt 0.6572 0.5789
vt 0.6592 0.4677
vt 0.5046 0.6785
vt 0.7182 0.6874
vt 0.5046 0.9837
vt 0.7149 0.8978
vt 0.4868 0.5569
vt 0.3648 0.566
vt 0.3182 0.6689
vt 0.4868 0.6199
vt 0.3183 0.8408
vt 0.4868 0.8125
vt 0.4868 0.7219
vt 0.4868 0.8731
vt 0.7025 0.5708
vt 0.7224 0.4598
vt 0.7468 0.6795
vt 0.7513 0.741
vt 0.2874 0.455
vt 0.3172 0.5708
vt 0.3572 0.4373
vt 0.2413 0.6795
vt 0.2369 0.741
vt 0.2404 0.8133
vt 0.2811 0.8884
vt 0.3915 0.964
vt 0.4868 0.9537
vt 0.7441 0.9536
vt 0.5959 0.9995
vt 0.252 0.9319
vt 0.3923 0.9995
vt 0.7993 0.8744
vt 0.8635 0.8028
vt 0.9306 0.5606
vt 0.8928 0.509
vt 0.8239 0.4634
vt 0.097 0.8028
vt 0.1889 0.8615
vt 0.0746 0.4129
vt 0.0221 0.5606
vt 0.118 0.4067
vt 0.1642 0.4634
vt 0.9798 0.4367
vt 0.9205 0.4133
vt 0.8381 0.4047
vt 0.0104 0.4174
vt 0.15 0.4047
vt 0.4868 0.4025
vt 0.8183 0.3815
vt 0.8271 0.3186
vt 0.9722 0.3186
vt 0.9809 0.3815
vt 0.8996 0.2359
vt 0.7997 0.128
vt 0.7141 0.1008
vt 0.6667 0.185
vt 0.7846 0.2136
vt 0.6011 0.0633
vt 0.5485 0.1977
vt 0.5999 0.3559
vt 0.6795 0.3122
vt 0.559 0.4032
vt 0.7141 0.1008
vt 0.6667 0.185
vt 0.7997 0.128
vt 0.7846 0.2136
vt 0.5999 0.3559
vt 0.6795 0.3122
vt 0.3998 0.0036
vt 0.2556 0.0221
vt 0.2811 0.2588
vt 0.4484 0.1803
vt 0.1541 0.0005
vt 0.2148 0.2581
vt 0.8242 0.0053
vt 0.7325 0.0221
vt 0.6834 0.2588
vt 0.7852 0.2629
vt 0.6101 0.0374
vt 0.5476 0.2141
vt 0.6555 0.5789
vt 0.6575 0.4677
vt 0.7166 0.6874
vt 0.7132 0.8978
vt 0.3194 0.6689
vt 0.3661 0.566
vt 0.3196 0.8408
vt 0.7008 0.5708
vt 0.7207 0.4598
vt 0.7451 0.6795
vt 0.7496 0.741
vt 0.2887 0.455
vt 0.3184 0.5708
vt 0.3584 0.4373
vt 0.2426 0.6795
vt 0.2416 0.8133
vt 0.2381 0.741
vt 0.3928 0.964
vt 0.2823 0.8884
vt 0.7424 0.9536
vt 0.5942 0.9995
vt 0.3935 0.9995
vt 0.2532 0.9319
vt 0.8015 0.8744
vt 0.9285 0.5606
vt 0.8657 0.8028
vt 0.8908 0.509
vt 0.8282 0.4634
vt 0.0983 0.8028
vt 0.0886 0.4129
vt 0.1901 0.8615
vt 0.0316 0.5606
vt 0.1316 0.4067
vt 0.1674 0.4634
vt 0.9754 0.4367
vt 0.9167 0.4133
vt 0.8357 0.4047
vt 0.0222 0.4174
vt 0.1599 0.4047
vt 0.8183 0.3822
vt 0.9722 0.3192
vt 0.8271 0.3192
vt 0.9809 0.3822
vt 0.8996 0.2365
vt 0.7992 0.1261
vt 0.6662 0.1844
vt 0.7136 0.1002
vt 0.7841 0.2117
vt 0.548 0.197
vt 0.6006 0.0627
vt 0.5994 0.3552
vt 0.679 0.3116
vt 0.5585 0.4026
vt 0.6662 0.1844
vt 0.7136 0.1002
vt 0.7841 0.2117
vt 0.7992 0.1261
vt 0.5994 0.3552
vt 0.679 0.3116
vt 0.401 0.0036
vt 0.2823 0.2588
vt 0.2568 0.0221
vt 0.4497 0.1803
vt 0.216 0.2581
vt 0.1553 0.0005
vt 0.8225 0.0053
vt 0.6817 0.2588
vt 0.7308 0.0221
vt 0.7835 0.2629
vt 0.5459 0.2141
vt 0.6084 0.0374
vt 0.5959 0.5795
vt 0.4947 0.8496
vt 0.4947 0.2225
vt 0.5966 0.3131
vt 0.3935 0.5795
vt 0.3928 0.3131
vt 0.424 0.9995
vt 0.424 0.0026
vt 0.399 0.0005
vt 0.399 0.9954
vt 0.4947 0.8665
vt 0.4947 0.0416
vt 0.2568 0.1093
vt 0.2568 0.9132
vt 0.5654 0.9995
vt 0.5654 0.0026
vt 0.5903 0.9954
vt 0.5903 0.0005
vt 0.7325 0.9132
vt 0.7325 0.1093
vt 0.8341 0.4685
vt 0.1553 0.4685
vt 0.9353 0.3419
vt 0.9205 0.6499
vt 0.9995 0.4976
vt 0.0669 0.3423
vt 0.0005 0.4997
vt 0.0789 0.6483
vt 0.8702 0.3002
vt 0.8381 0.5015
vt 0.1316 0.3044
vt 0.1599 0.5018
vt 0.8005 0.7821
vt 0.8905 0.9867
vt 0.9251 0.7143
vt 0.7763 0.6822
vt 0.77 0.7031
vt 0.7924 0.4375
vt 0.7715 0.3805
vt 0.9227 0.4439
vt 0.9764 0.7319
vt 0.9867 0.3955
vt 0.3983 0.6395
vt 0.2659 0.7289
vt 0.2674 0.3943
vt 0.4025 0.3599
vt 0.4812 0.7312
vt 0.4919 0.3974
vt 0.9188 0.0005
vt 0.802 0.0015
vt 0.9726 0.0574
vt 0.7838 0.0603
vt 0.3992 0.0977
vt 0.4773 0.0593
vt 0.2803 0.0623
vt 0.9566 0.0016
vt 0.7823 0.0007
vt 0.376 0.0009
vt 0.4606 0.0015
vt 0.2787 0.0005
vt 0.7589 0.9995
vt 0.7174 0.7821
vt 0.5897 0.7143
vt 0.6274 0.9867
vt 0.7415 0.6822
vt 0.7479 0.7031
vt 0.7255 0.4375
vt 0.7464 0.3805
vt 0.5891 0.4439
vt 0.5285 0.3955
vt 0.5415 0.7319
vt 0.1103 0.6395
vt 0.2413 0.3943
vt 0.2428 0.7289
vt 0.1119 0.3599
vt 0.0275 0.7312
vt 0.014 0.3974
vt 0.5955 0.0005
vt 0.7159 0.0015
vt 0.5453 0.0574
vt 0.734 0.0603
vt 0.1098 0.0977
vt 0.0314 0.0593
vt 0.2284 0.0623
vt 0.5612 0.0016
vt 0.7356 0.0007
vt 0.1327 0.0009
vt 0.0481 0.0015
vt 0.23 0.0005
vt 0.2362 0.7072
vt 0.2725 0.7072
vt 0.2543 0.8358
vt 0.3942 0.9042
vt 0.1144 0.9042
vt 0.3855 0.9978
vt 0.2543 0.9931
vt 0.1232 0.9978
vt 0.9704 0.9641
vt 0.5474 0.9641
vt 0.9995 0.5153
vt 0.559 0.5153
vt 0.6088 0.8561
vt 0.9039 0.8561
vt 0.441 0.5153
vt 0.0005 0.5153
vt 0.0871 0.8561
vt 0.3912 0.8561
vt 0.7946 0.1222
vt 0.2054 0.1222
vt 0.5 0.9995
vt 0.5 0.0005
vt 0.8176 0.1766
vt 0.8323 0.8633
vt 0.1677 0.8633
vt 0.1824 0.1766
vt 0.9018 0.3996
vt 0.0982 0.3996
vt 0.4202 0.9995
vt 0.0884 0.9995
vt 0.6638 0.0016
vt 0.6638 0.0022
vt 0.5113 0.0012
vt 0.5113 0.0005
vt 0.8262 0.7534
vt 0.9514 0.7524
vt 0.9514 0.575
vt 0.8262 0.5735
vt 0.6264 0.7743
vt 0.4943 0.7658
vt 0.5134 0.5595
vt 0.6699 0.6
vt 0.4943 0.7649
vt 0.6264 0.7752
vt 0.6699 0.5985
vt 0.3083 0.7662
vt 0.9513 0.28
vt 0.8262 0.2793
vt 0.5142 0.2423
vt 0.6034 0.2794
vt 0.6034 0.2787
vt 0.5142 0.2416
vt 0.3802 0.2105
vt 0.9514 0.0695
vt 0.8262 0.0688
vt 0.5151 0.1593
vt 0.652 0.1035
vt 0.652 0.1028
vt 0.5151 0.1586
vt 0.9514 -0.0336
vt 0.8262 -0.0343
vt 0.1452 0.079
vt 0.0522 0.1325
vt 0.0153 0.0008
vt 0.1163 0.0012
vt 0.1452 0.0784
vt 0.1163 0.0005
vt 0.2584 0.1605
vt 0.3112 0.0925
vt 0.3112 0.0919
vt 0.4813 0.6927
vt 0.6815 0.8617
vt 0.491 0.8617
vt 0.664 0.6928
vt 0.9514 0.6695
vt 0.8262 0.7824
vt 0.9514 0.7824
vt 0.8263 0.6695
vt 0.664 0.6928
vt 0.491 0.8617
vt 0.6815 0.8617
vt 0.4813 0.6927
vt 0.2438 0.8617
vt 0.2652 0.616
vt 0.2652 0.616
vt 0.2438 0.8617
vt 0.491 0.8617
vt 0.0658 0.7297
vt 0.0822 0.9995
vt 0.6638 0.0016
vt 0.5113 0.0012
vt 0.6638 0.0022
vt 0.5113 0.0005
vt 0.8262 0.7534
vt 0.9514 0.575
vt 0.9514 0.7524
vt 0.8262 0.5735
vt 0.6264 0.7743
vt 0.5134 0.5595
vt 0.4943 0.7658
vt 0.6699 0.6
vt 0.4943 0.7649
vt 0.6699 0.5985
vt 0.6264 0.7752
vt 0.3083 0.7662
vt 0.9513 0.28
vt 0.8262 0.2793
vt 0.5142 0.2423
vt 0.6034 0.2794
vt 0.6034 0.2787
vt 0.5142 0.2416
vt 0.3802 0.2105
vt 0.9514 0.0695
vt 0.8262 0.0688
vt 0.5151 0.1593
vt 0.652 0.1035
vt 0.652 0.1028
vt 0.5151 0.1586
vt 0.9514 -0.0336
vt 0.8262 -0.0343
vt 0.1452 0.079
vt 0.0153 0.0008
vt 0.0522 0.1325
vt 0.1163 0.0012
vt 0.1163 0.0005
vt 0.1452 0.0784
vt 0.2584 0.1605
vt 0.3112 0.0925
vt 0.3112 0.0919
vt 0.4813 0.6927
vt 0.491 0.8617
vt 0.6815 0.8617
vt 0.664 0.6928
vt 0.9514 0.6695
vt 0.9514 0.7824
vt 0.8262 0.7824
vt 0.8263 0.6695
vt 0.664 0.6928
vt 0.6815 0.8617
vt 0.491 0.8617
vt 0.4813 0.6927
vt 0.2438 0.8617
vt 0.2652 0.616
vt 0.2652 0.616
vt 0.2438 0.8617
vt 0.491 0.8617
vt 0.0658 0.7297
vt 0.0822 0.9995
vt 0.1164 0.1856
vt 0.2102 0.425
vt 0.244 0.2931
vt 0.0898 0.3767
vt 0.041 0.3924
vt 0.0262 0.6441
vt 0.2465 0.5772
vt 0.2303 0.4205
vt 0.1476 0.1798
vt 0.0465 0.3711
vt 0.1852 0.3674
vt 0.0196 0.6352
vt 0.2472 0.6095
vt 0.1164 0.1856
vt 0.244 0.2931
vt 0.2102 0.425
vt 0.0898 0.3767
vt 0.041 0.3924
vt 0.0262 0.6441
vt 0.2465 0.5772
vt 0.2303 0.4205
vt 0.0465 0.3711
vt 0.1476 0.1798
vt 0.0196 0.6352
vt 0.1852 0.3674
vt 0.2472 0.6095
vt 0.3239 0.0324
vt 0.3032 0.032
vt 0.1436 0.014
vt 0.1436 0.0136
vt 0.4003 0.9128
vt 0.2799 0.9184
vt 0.2576 0.7638
vt 0.4249 0.7221
vt 0.8531 0.9647
vt 0.9669 0.9777
vt 0.9908 0.7705
vt 0.8284 0.7532
vt 0.1568 0.9123
vt 0.1113 0.7727
vt 0.0942 0.9036
vt 0.0619 0.7535
vt 0.6986 0.9678
vt 0.6385 0.8046
vt 0.2739 0.4486
vt 0.3373 0.405
vt 0.9058 0.4258
vt 0.8073 0.399
vt 0.1507 0.451
vt 0.0904 0.407
vt 0.7065 0.428
vt 0.3106 0.3807
vt 0.1323 0.3834
vt 0.3205 0.2789
vt 0.3424 0.1938
vt 0.1139 0.2719
vt 0.9108 0.1964
vt 0.7912 0.1921
vt 0.6249 0.2176
vt 0.6531 0.2017
vt 0.6551 0.1835
vt 0.6269 0.1994
vt 0.3252 0.1752
vt 0.1495 0.1739
vt 0.1216 0.1933
vt 0.8928 0.0209
vt 0.7178 0.0005
vt 0.7233 0.1984
vt 0.7214 0.2966
vt 0.6631 0.3256
vt 0.7234 0.2616
vt 0.6651 0.2906
vt 0.1296 0.2515
vt 0.0893 0.2806
vt 0.0499 0.1966
vt 0.079 0.182
vt 0.0458 0.3127
vt 0.0064 0.2133
vt 0.3124 0.1336
vt 0.2233 0.021
vt 0.3014 0.021
vt 0.2124 0.1336
vt 0.3903 0.9921
vt 0.0505 0.8751
vt 0.3903 0.8823
vt 0.0505 0.9848
vt 0.0505 0.8231
vt 0.0505 0.9328
vt 0.6275 0.9995
vt 0.9573 0.8723
vt 0.6275 0.8802
vt 0.9573 0.9916
vt 0.3903 0.8158
vt 0.5909 0.9097
vt 0.3903 0.9255
vt 0.2351 0.1871
vt 0.5518 1.2425
vt 0.3239 0.0324
vt 0.1436 0.014
vt 0.3032 0.032
vt 0.1436 0.0136
vt 0.399 0.9128
vt 0.2576 0.7638
vt 0.2832 0.9184
vt 0.4249 0.7221
vt 0.8533 0.9647
vt 0.9908 0.7705
vt 0.9657 0.9777
vt 0.8284 0.7532
vt 0.1113 0.7727
vt 0.157 0.9123
vt 0.0619 0.7535
vt 0.0975 0.9036
vt 0.7018 0.9678
vt 0.6385 0.8046
vt 0.2739 0.4486
vt 0.3373 0.405
vt 0.9058 0.4258
vt 0.8073 0.399
vt 0.1507 0.451
vt 0.0904 0.407
vt 0.7065 0.428
vt 0.3106 0.3807
vt 0.1323 0.3834
vt 0.3205 0.2789
vt 0.3424 0.1938
vt 0.1139 0.2719
vt 0.9108 0.1964
vt 0.7912 0.1921
vt 0.6249 0.2176
vt 0.6551 0.1835
vt 0.6531 0.2017
vt 0.6269 0.1994
vt 0.3252 0.1752
vt 0.1495 0.1739
vt 0.1216 0.1933
vt 0.8928 0.0209
vt 0.7178 0.0005
vt 0.7233 0.1984
vt 0.7214 0.2966
vt 0.6631 0.3256
vt 0.8062 0.3875
vt 0.7178 0.2587
vt 0.7895 0.1972
vt 0.7157 0.2909
vt 0.6651 0.2906
vt 0.7234 0.2616
vt 0.1296 0.2515
vt 0.0499 0.1966
vt 0.0893 0.2806
vt 0.079 0.182
vt 0.0064 0.2133
vt 0.0458 0.3127
vt 0.311 0.1336
vt 0.3 0.021
vt 0.2219 0.021
vt 0.211 0.1336
vt 0.3903 0.9921
vt 0.3903 0.8823
vt 0.0505 0.8751
vt 0.0505 0.9848
vt 0.0505 0.8231
vt 0.0505 0.9328
vt 0.6275 0.9995
vt 0.6275 0.8802
vt 0.9573 0.8723
vt 0.9573 0.9916
vt 0.5909 0.9097
vt 0.3903 0.8158
vt 0.3903 0.9255
vt 0.2304 0.1871
vt 0.5518 1.2425
vt 0.568 0.1929
vt 0.5589 0.0497
vt 0.4413 0.1387
vt 0.503 0.1253
vt 0.4074 0.4729
vt 0.5714 0.4189
vt 0.568 0.1929
vt 0.4413 0.1387
vt 0.5589 0.0497
vt 0.4034 0.4729
vt 0.503 0.1253
vt 0.5714 0.4189
vt 0.18 0.0005
vt 0.5343 0.2922
vt 0.2336 0.2488
vt 0.5402 0.0892
vt 0.9843 0.2922
vt 0.9936 0.0989
vt 0.9843 0.2922
vt 0.9936 0.0989
vt 0.5402 0.6287
vt 0.1916 0.517
vt 0.9589 0.6884
vt 0.9589 0.6884
vt 0.5739 0.8514
vt 0.0696 0.791
vt 0.9963 0.8509
vt 0.9963 0.8509
vt 0.5915 0.985
vt 0.5343 0.2922
vt 0.5402 0.0892
vt 0.5402 0.6287
vt 0.5739 0.8514
vt 0.9995 0.4633
vt 0.0005 0.4633
vt 0.3072 0.9995
vt 0.6951 0.9995
vt 0.5 0.0005
vt 0.0005 0.4307
vt 0.0005 0.5693
vt 0.184 0.5693
vt 0.184 0.4307
vt 0.2385 0.5
vt 0.2385 0.4307
vt 0.9995 0.5
vt 0.8697 0.3598
vt 0.2385 0.5693
vt 0.8697 0.6402
vt 0.0005 0.4307
vt 0.184 0.4307
vt 0.184 0.5693
vt 0.0005 0.5693
vt 0.2385 0.4307
vt 0.2385 0.5
vt 0.8697 0.3598
vt 0.9995 0.5
vt 0.2385 0.5693
vt 0.8697 0.6402
vt 0.0005 0.4307
vt 0.184 0.4307
vt 0.184 0.4307
vt 0.0005 0.4307
vt 0.2385 0.4307
vt 0.8697 0.3598
vt 0.8697 0.3598
vt 0.2385 0.4307
vt 0.8697 0.3598
vt 0.9995 0.5
vt 0.9995 0.5
vt 0.8697 0.3598
vt 0.8697 0.6402
vt 0.8697 0.6402
vt 0.8697 0.6402
vt 0.2385 0.5693
vt 0.2385 0.5693
vt 0.8697 0.6402
vt 0.184 0.5693
vt 0.0005 0.5693
vt 0.0005 0.5693
vt 0.184 0.5693
vt 0.0005 0.5693
vt 0.0005 0.4307
vt 0.0005 0.4307
vt 0.0005 0.5693
vt 0.2385 0.0005
vt 0.184 0.1762
vt 0.184 0.8238
vt 0.2385 0.9995
vt 0.184 0.1762
vt 0.2385 0.0005
vt 0.2385 0.9995
vt 0.184 0.8238
vt 0.184 0.4307
vt 0.184 0.4307
vt 0.184 0.1762
vt 0.184 0.1762
vt 0.2385 0.4307
vt 0.2385 0.4307
vt 0.2385 0.0005
vt 0.2385 0.0005
vt 0.2385 0.5693
vt 0.2385 0.5693
vt 0.2385 0.9995
vt 0.2385 0.9995
vt 0.184 0.5693
vt 0.184 0.5693
vt 0.184 0.8238
vt 0.184 0.8238
vt 0.184 0.1762
vt 0.184 0.1762
vt 0.2385 0.0005
vt 0.2385 0.0005
vt 0.184 0.8238
vt 0.184 0.8238
vt 0.2385 0.9995
vt 0.2385 0.9995
f 1/1/1 3/3/3 2/2/2
f 3/3/3 1/1/1 4/4/4
f 2/2/2 6/6/6 5/5/5
f 6/6/6 2/2/2 3/3/3
f 5/5/5 8/8/8 7/7/7
f 8/8/8 5/5/5 6/6/6
f 9/9/9 11/11/11 10/10/10
f 11/11/11 9/9/9 12/12/12
f 13/13/13 15/15/15 14/14/14
f 13/13/13 14/14/14 16/16/16
f 4/4/4 17/17/17 3/3/3
f 17/17/17 4/4/4 18/18/18
f 3/3/3 19/19/19 6/6/6
f 19/19/19 3/3/3 17/17/17
f 20/20/20 6/6/6 19/19/19
f 21/21/21 10/10/10 22/22/22
f 10/10/10 21/21/21 23/23/23
f 22/22/22 11/11/11 24/24/24
f 11/11/11 22/22/22 10/10/10
f 24/24/24 26/26/26 25/25/25
f 26/26/26 24/24/24 11/11/11
f 16/16/16 28/28/28 27/27/27
f 28/28/28 16/16/16 29/29/29
f 30/30/30 31/31/31 8/8/8
f 27/27/27 33/33/33 32/32/32
f 33/33/33 27/27/27 28/28/28
f 6/6/6 34/34/34 8/8/8
f 20/20/20 34/34/34 6/6/6
f 11/11/11 13/13/13 26/26/26
f 26/26/26 13/13/13 27/27/27
f 16/16/16 27/27/27 13/13/13
f 34/34/34 36/36/36 35/35/35
f 36/36/36 34/34/34 37/37/37
f 20/20/20 37/37/37 34/34/34
f 37/37/37 20/20/20 38/38/38
f 39/39/39 41/41/41 40/40/40
f 41/41/41 39/39/39 42/42/42
f 40/40/40 43/43/43 26/26/26
f 43/43/43 40/40/40 41/41/41
f 26/26/26 44/44/44 25/25/25
f 44/44/44 26/26/26 43/43/43
f 37/37/37 45/45/45 36/36/36
f 45/45/45 37/37/37 46/46/46
f 38/38/38 46/46/46 37/37/37
f 46/46/46 38/38/38 47/47/47
f 41/41/41 42/42/42 48/48/48
f 43/43/43 49/49/49 44/44/44
f 7/7/7 8/8/8 31/31/31
f 23/23/23 50/50/50 9/9/9
f 10/10/10 23/23/23 9/9/9
f 13/13/13 11/11/11 15/15/15
f 11/11/11 12/12/12 15/15/15
f 51/51/51 53/53/53 52/52/52
f 53/53/53 51/51/51 54/54/54
f 55/55/55 52/52/52 53/53/53
f 56/56/56 58/58/58 57/57/57
f 58/58/58 56/56/56 59/59/59
f 57/57/57 61/61/61 60/60/60
f 61/61/61 57/57/57 58/58/58
f 59/59/59 62/62/62 58/58/58
f 62/62/62 59/59/59 63/63/63
f 58/58/58 64/64/64 61/61/61
f 64/64/64 58/58/58 62/62/62
f 60/60/60 66/66/66 65/65/65
f 66/66/66 60/60/60 61/61/61
f 65/65/65 68/68/68 67/67/67
f 68/68/68 65/65/65 66/66/66
f 61/61/61 69/69/69 66/66/66
f 69/69/69 61/61/61 64/64/64
f 66/66/66 70/70/70 68/68/68
f 70/70/70 66/66/66 69/69/69
f 71/71/71 73/73/73 72/72/72
f 73/73/73 71/71/71 74/74/74
f 72/72/72 76/76/76 75/75/75
f 76/76/76 72/72/72 73/73/73
f 74/74/74 23/23/23 73/73/73
f 23/23/23 74/74/74 50/50/50
f 73/73/73 21/21/21 76/76/76
f 21/21/21 73/73/73 23/23/23
f 77/77/77 79/79/79 78/78/78
f 79/79/79 77/77/77 80/80/80
f 78/78/78 82/82/82 81/81/81
f 82/82/82 78/78/78 79/79/79
f 80/80/80 4/4/4 79/79/79
f 4/4/4 80/80/80 18/18/18
f 79/79/79 1/1/1 82/82/82
f 1/1/1 79/79/79 4/4/4
f 1/1/1 2/2/2 83/83/83
f 83/83/83 84/84/84 1/1/1
f 2/2/2 5/5/5 85/85/85
f 85/85/85 83/83/83 2/2/2
f 5/5/5 7/7/7 86/86/86
f 86/86/86 85/85/85 5/5/5
f 9/9/9 88/88/88 87/87/87
f 87/87/87 12/12/12 9/9/9
f 89/89/89 14/14/14 15/15/15
f 89/89/89 16/16/16 14/14/14
f 84/84/84 83/83/83 90/90/90
f 90/90/90 91/91/91 84/84/84
f 83/83/83 85/85/85 92/92/92
f 92/92/92 90/90/90 83/83/83
f 93/93/93 92/92/92 85/85/85
f 94/94/94 95/95/95 88/88/88
f 88/88/88 96/96/96 94/94/94
f 95/95/95 97/97/97 87/87/87
f 87/87/87 88/88/88 95/95/95
f 97/97/97 99/99/99 98/98/98
f 98/98/98 87/87/87 97/97/97
f 16/16/16 101/101/101 100/100/100
f 100/100/100 29/29/29 16/16/16
f 102/102/102 86/86/86 103/103/103
f 101/101/101 105/105/105 104/104/104
f 104/104/104 100/100/100 101/101/101
f 85/85/85 86/86/86 106/106/106
f 93/93/93 85/85/85 106/106/106
f 87/87/87 98/98/98 89/89/89
f 98/98/98 101/101/101 89/89/89
f 16/16/16 89/89/89 101/101/101
f 106/106/106 108/108/108 107/107/107
f 107/107/107 109/109/109 106/106/106
f 93/93/93 106/106/106 109/109/109
f 109/109/109 110/110/110 93/93/93
f 111/111/111 113/113/113 112/112/112
f 112/112/112 114/114/114 111/111/111
f 113/113/113 98/98/98 115/115/115
f 115/115/115 112/112/112 113/113/113
f 98/98/98 99/99/99 116/116/116
f 116/116/116 115/115/115 98/98/98
f 109/109/109 107/107/107 117/117/117
f 117/117/117 118/118/118 109/109/109
f 110/110/110 109/109/109 118/118/118
f 118/118/118 119/119/119 110/110/110
f 112/112/112 120/120/120 114/114/114
f 115/115/115 116/116/116 121/121/121
f 7/7/7 103/103/103 86/86/86
f 96/96/96 9/9/9 50/50/50
f 88/88/88 9/9/9 96/96/96
f 89/89/89 15/15/15 87/87/87
f 87/87/87 15/15/15 12/12/12
f 122/122/122 124/124/124 123/123/123
f 123/123/123 125/125/125 122/122/122
f 126/126/126 123/123/123 124/124/124
f 127/127/127 129/129/129 128/128/128
f 128/128/128 130/130/130 127/127/127
f 129/129/129 132/132/132 131/131/131
f 131/131/131 128/128/128 129/129/129
f 130/130/130 128/128/128 133/133/133
f 133/133/133 134/134/134 130/130/130
f 128/128/128 131/131/131 135/135/135
f 135/135/135 133/133/133 128/128/128
f 132/132/132 137/137/137 136/136/136
f 136/136/136 131/131/131 132/132/132
f 137/137/137 139/139/139 138/138/138
f 138/138/138 136/136/136 137/137/137
f 131/131/131 136/136/136 140/140/140
f 140/140/140 135/135/135 131/131/131
f 136/136/136 138/138/138 141/141/141
f 141/141/141 140/140/140 136/136/136
f 142/142/142 144/144/144 143/143/143
f 143/143/143 145/145/145 142/142/142
f 144/144/144 147/147/147 146/146/146
f 146/146/146 143/143/143 144/144/144
f 145/145/145 143/143/143 96/96/96
f 96/96/96 50/50/50 145/145/145
f 143/143/143 146/146/146 94/94/94
f 94/94/94 96/96/96 143/143/143
f 148/148/148 150/150/150 149/149/149
f 149/149/149 151/151/151 148/148/148
f 150/150/150 153/153/153 152/152/152
f 152/152/152 149/149/149 150/150/150
f 151/151/151 149/149/149 84/84/84
f 84/84/84 91/91/91 151/151/151
f 149/149/149 152/152/152 1/1/1
f 1/1/1 84/84/84 149/149/149
f 154/154/154 156/156/156 155/155/155
f 154/154/154 157/157/157 156/156/156
f 156/156/156 158/158/158 155/155/155
f 156/156/156 159/159/159 158/158/158
f 160/160/160 162/162/162 161/161/161
f 160/160/160 163/163/163 162/162/162
f 164/164/164 161/161/161 165/165/165
f 164/164/164 160/160/160 161/161/161
f 162/162/162 167/167/167 166/166/166
f 162/162/162 163/163/163 167/167/167
f 165/165/165 168/168/168 164/164/164
f 165/165/165 169/169/169 168/168/168
f 169/169/169 170/170/170 168/168/168
f 169/169/169 171/171/171 170/170/170
f 171/171/171 172/172/172 170/170/170
f 171/171/171 173/173/173 172/172/172
f 173/173/173 174/174/174 172/172/172
f 166/166/166 167/167/167 175/175/175
f 176/176/176 178/178/178 177/177/177
f 179/179/179 181/181/181 180/180/180
f 176/176/176 183/183/183 182/182/182
f 176/176/176 177/177/177 183/183/183
f 184/184/184 181/181/181 179/179/179
f 184/184/184 185/185/185 181/181/181
f 186/186/186 188/188/188 187/187/187
f 188/188/188 186/186/186 189/189/189
f 190/190/190 191/191/191 189/189/189
f 191/191/191 190/190/190 192/192/192
f 189/189/189 193/193/193 188/188/188
f 193/193/193 189/189/189 191/191/191
f 188/188/188 195/195/195 194/194/194
f 195/195/195 188/188/188 193/193/193
f 196/196/196 198/198/198 197/197/197
f 198/198/198 196/196/196 199/199/199
f 200/200/200 199/199/199 196/196/196
f 199/199/199 200/200/200 201/201/201
f 191/191/191 202/202/202 193/193/193
f 202/202/202 191/191/191 203/203/203
f 193/193/193 204/204/204 195/195/195
f 204/204/204 193/193/193 202/202/202
f 192/192/192 203/203/203 191/191/191
f 203/203/203 192/192/192 205/205/205
f 201/201/201 206/206/206 199/199/199
f 206/206/206 201/201/201 207/207/207
f 199/199/199 208/208/208 198/198/198
f 208/208/208 199/199/199 206/206/206
f 202/202/202 209/209/209 204/204/204
f 203/203/203 205/205/205 210/210/210
f 207/207/207 211/211/211 206/206/206
f 211/211/211 207/207/207 212/212/212
f 206/206/206 213/213/213 208/208/208
f 213/213/213 206/206/206 211/211/211
f 214/214/214 186/186/186 187/187/187
f 215/215/215 217/217/217 216/216/216
f 216/216/216 218/218/218 215/215/215
f 219/219/219 218/218/218 220/220/220
f 220/220/220 221/221/221 219/219/219
f 218/218/218 216/216/216 222/222/222
f 222/222/222 220/220/220 218/218/218
f 216/216/216 224/224/224 223/223/223
f 223/223/223 222/222/222 216/216/216
f 225/225/225 227/227/227 226/226/226
f 226/226/226 228/228/228 225/225/225
f 229/229/229 225/225/225 228/228/228
f 228/228/228 230/230/230 229/229/229
f 220/220/220 222/222/222 231/231/231
f 231/231/231 232/232/232 220/220/220
f 222/222/222 223/223/223 233/233/233
f 233/233/233 231/231/231 222/222/222
f 221/221/221 220/220/220 232/232/232
f 232/232/232 234/234/234 221/221/221
f 230/230/230 228/228/228 235/235/235
f 235/235/235 236/236/236 230/230/230
f 228/228/228 226/226/226 237/237/237
f 237/237/237 235/235/235 228/228/228
f 231/231/231 233/233/233 238/238/238
f 232/232/232 239/239/239 234/234/234
f 236/236/236 235/235/235 240/240/240
f 240/240/240 241/241/241 236/236/236
f 235/235/235 237/237/237 242/242/242
f 242/242/242 240/240/240 235/235/235
f 214/214/214 217/217/217 215/215/215
f 214/214/214 215/215/215 186/186/186
f 243/243/243 197/197/197 244/244/244
f 243/243/243 227/227/227 197/197/197
f 215/215/215 189/189/189 186/186/186
f 215/215/215 218/218/218 189/189/189
f 245/245/245 197/197/197 227/227/227
f 246/246/246 197/197/197 245/245/245
f 245/245/245 227/227/227 247/247/247
f 246/246/246 196/196/196 197/197/197
f 227/227/227 225/225/225 247/247/247
f 246/246/246 249/249/249 248/248/248
f 246/246/246 245/245/245 249/249/249
f 247/247/247 249/249/249 245/245/245
f 247/247/247 250/250/250 249/249/249
f 187/187/187 194/194/194 251/251/251
f 187/187/187 188/188/188 194/194/194
f 252/252/252 216/216/216 217/217/217
f 252/252/252 224/224/224 216/216/216
f 253/253/253 255/255/255 254/254/254
f 253/253/253 256/256/256 255/255/255
f 257/257/257 259/259/259 258/258/258
f 257/257/257 260/260/260 259/259/259
f 253/253/253 254/254/254 261/261/261
f 257/257/257 258/258/258 262/262/262
f 263/263/263 265/265/265 264/264/264
f 263/263/263 266/266/266 265/265/265
f 263/263/263 268/268/268 267/267/267
f 263/263/263 264/264/264 268/268/268
f 266/266/266 269/269/269 265/265/265
f 267/267/267 268/268/268 270/270/270
f 271/271/271 246/246/246 248/248/248
f 271/271/271 200/200/200 246/246/246
f 250/250/250 229/229/229 272/272/272
f 250/250/250 247/247/247 229/229/229
f 247/247/247 225/225/225 229/229/229
f 246/246/246 200/200/200 196/196/196
f 273/273/273 275/275/275 274/274/274
f 275/275/275 273/273/273 276/276/276
f 277/277/277 279/279/279 278/278/278
f 279/279/279 277/277/277 280/280/280
f 281/281/281 283/283/283 282/282/282
f 283/283/283 281/281/281 284/284/284
f 285/285/285 287/287/287 286/286/286
f 288/288/288 282/282/282 283/283/283
f 280/280/280 289/289/289 279/279/279
f 289/289/289 280/280/280 290/290/290
f 284/284/284 291/291/291 283/283/283
f 291/291/291 284/284/284 292/292/292
f 285/285/285 293/293/293 287/287/287
f 293/293/293 285/285/285 294/294/294
f 283/283/283 295/295/295 288/288/288
f 295/295/295 283/283/283 291/291/291
f 288/288/288 294/294/294 285/285/285
f 294/294/294 288/288/288 295/295/295
f 290/290/290 296/296/296 289/289/289
f 296/296/296 290/290/290 297/297/297
f 292/292/292 298/298/298 291/291/291
f 298/298/298 292/292/292 299/299/299
f 294/294/294 300/300/300 293/293/293
f 300/300/300 294/294/294 301/301/301
f 295/295/295 291/291/291 298/298/298
f 295/295/295 301/301/301 294/294/294
f 297/297/297 302/302/302 296/296/296
f 302/302/302 297/297/297 303/303/303
f 299/299/299 275/275/275 298/298/298
f 275/275/275 299/299/299 274/274/274
f 301/301/301 273/273/273 300/300/300
f 273/273/273 301/301/301 276/276/276
f 304/304/304 306/306/306 305/305/305
f 306/306/306 304/304/304 307/307/307
f 305/305/305 309/309/309 308/308/308
f 309/309/309 305/305/305 306/306/306
f 298/298/298 310/310/310 295/295/295
f 310/310/310 298/298/298 311/311/311
f 295/295/295 312/312/312 301/301/301
f 312/312/312 295/295/295 310/310/310
f 275/275/275 311/311/311 298/298/298
f 276/276/276 301/301/301 312/312/312
f 275/275/275 304/304/304 311/311/311
f 304/304/304 275/275/275 307/307/307
f 310/310/310 308/308/308 312/312/312
f 308/308/308 310/310/310 305/305/305
f 312/312/312 309/309/309 276/276/276
f 309/309/309 312/312/312 308/308/308
f 310/310/310 304/304/304 305/305/305
f 310/310/310 311/311/311 304/304/304
f 307/307/307 309/309/309 306/306/306
f 307/307/307 276/276/276 309/309/309
f 307/307/307 275/275/275 276/276/276
f 313/313/313 315/315/315 314/314/314
f 313/313/313 314/314/314 316/316/316
f 317/317/317 319/319/319 318/318/318
f 317/317/317 318/318/318 320/320/320
f 321/321/321 323/323/323 322/322/322
f 321/321/321 322/322/322 324/324/324
f 324/324/324 322/322/322 325/325/325
f 324/324/324 325/325/325 326/326/326
f 327/327/327 328/328/328 315/315/315
f 327/327/327 315/315/315 313/313/313
f 329/329/329 314/314/314 315/315/315
f 329/329/329 323/323/323 314/314/314
f 329/329/329 322/322/322 323/323/323
f 329/329/329 325/325/325 322/322/322
f 329/329/329 328/328/328 325/325/325
f 329/329/329 315/315/315 328/328/328
f 326/326/326 330/330/330 327/327/327
f 325/325/325 330/330/330 326/326/326
f 327/327/327 330/330/330 328/328/328
f 328/328/328 331/331/331 325/325/325
f 330/330/330 325/325/325 331/331/331
f 330/330/330 331/331/331 328/328/328
f 332/332/332 334/334/334 333/333/333
f 333/333/333 335/335/335 332/332/332
f 336/336/336 338/338/338 337/337/337
f 337/337/337 339/339/339 336/336/336
f 340/340/340 342/342/342 341/341/341
f 341/341/341 343/343/343 340/340/340
f 344/344/344 346/346/346 345/345/345
f 347/347/347 341/341/341 342/342/342
f 339/339/339 337/337/337 348/348/348
f 348/348/348 349/349/349 339/339/339
f 343/343/343 341/341/341 350/350/350
f 350/350/350 351/351/351 343/343/343
f 344/344/344 345/345/345 352/352/352
f 352/352/352 353/353/353 344/344/344
f 341/341/341 347/347/347 354/354/354
f 354/354/354 350/350/350 341/341/341
f 347/347/347 344/344/344 353/353/353
f 353/353/353 354/354/354 347/347/347
f 349/349/349 348/348/348 355/355/355
f 355/355/355 356/356/356 349/349/349
f 351/351/351 350/350/350 357/357/357
f 357/357/357 358/358/358 351/351/351
f 353/353/353 352/352/352 359/359/359
f 359/359/359 360/360/360 353/353/353
f 354/354/354 357/357/357 350/350/350
f 354/354/354 353/353/353 360/360/360
f 356/356/356 355/355/355 361/361/361
f 361/361/361 362/362/362 356/356/356
f 358/358/358 357/357/357 333/333/333
f 333/333/333 334/334/334 358/358/358
f 360/360/360 359/359/359 332/332/332
f 332/332/332 335/335/335 360/360/360
f 363/363/363 365/365/365 364/364/364
f 364/364/364 366/366/366 363/363/363
f 365/365/365 368/368/368 367/367/367
f 367/367/367 364/364/364 365/365/365
f 357/357/357 354/354/354 369/369/369
f 369/369/369 370/370/370 357/357/357
f 354/354/354 360/360/360 371/371/371
f 371/371/371 369/369/369 354/354/354
f 333/333/333 357/357/357 370/370/370
f 335/335/335 371/371/371 360/360/360
f 333/333/333 370/370/370 363/363/363
f 363/363/363 366/366/366 333/333/333
f 369/369/369 371/371/371 368/368/368
f 368/368/368 365/365/365 369/369/369
f 371/371/371 335/335/335 367/367/367
f 367/367/367 368/368/368 371/371/371
f 369/369/369 365/365/365 363/363/363
f 369/369/369 363/363/363 370/370/370
f 366/366/366 364/364/364 367/367/367
f 366/366/366 367/367/367 335/335/335
f 366/366/366 335/335/335 333/333/333
f 372/372/372 374/374/374 373/373/373
f 372/372/372 375/375/375 374/374/374
f 376/376/376 378/378/378 377/377/377
f 376/376/376 379/379/379 378/378/378
f 380/380/380 382/382/382 381/381/381
f 380/380/380 383/383/383 382/382/382
f 383/383/383 384/384/384 382/382/382
f 383/383/383 385/385/385 384/384/384
f 386/386/386 373/373/373 387/387/387
f 386/386/386 372/372/372 373/373/373
f 388/388/388 373/373/373 374/374/374
f 388/388/388 374/374/374 381/381/381
f 388/388/388 381/381/381 382/382/382
f 388/388/388 382/382/382 384/384/384
f 388/388/388 384/384/384 387/387/387
f 388/388/388 387/387/387 373/373/373
f 385/385/385 386/386/386 389/389/389
f 384/384/384 385/385/385 389/389/389
f 386/386/386 387/387/387 389/389/389
f 387/387/387 384/384/384 390/390/390
f 389/389/389 390/390/390 384/384/384
f 389/389/389 387/387/387 390/390/390
f 391/391/391 393/393/393 392/392/392
f 393/393/393 394/394/394 392/392/392
f 395/395/395 396/396/396 394/394/394
f 391/391/391 394/394/394 393/393/393
f 392/392/392 395/395/395 391/391/391
f 395/395/395 392/392/392 396/396/396
f 391/391/391 395/395/395 394/394/394
f 394/394/394 397/397/397 392/392/392
f 396/396/396 397/397/397 394/394/394
f 392/392/392 397/397/397 396/396/396
f 398/398/398 400/400/400 399/399/399
f 400/400/400 402/402/402 401/401/401
f 400/400/400 401/401/401 399/399/399
f 399/399/399 401/401/401 398/398/398
f 400/400/400 398/398/398 402/402/402
f 401/401/401 403/403/403 398/398/398
f 402/402/402 403/403/403 401/401/401
f 398/398/398 403/403/403 402/402/402
f 404/404/404 406/406/406 405/405/405
f 405/405/405 406/406/406 407/407/407
f 408/408/408 407/407/407 409/409/409
f 404/404/404 405/405/405 407/407/407
f 406/406/406 404/404/404 408/408/408
f 408/408/408 409/409/409 406/406/406
f 404/404/404 407/407/407 408/408/408
f 407/407/407 406/406/406 410/410/410
f 409/409/409 407/407/407 410/410/410
f 406/406/406 409/409/409 410/410/410
f 411/411/411 413/413/413 412/412/412
f 412/412/412 415/415/415 414/414/414
f 412/412/412 413/413/413 415/415/415
f 413/413/413 411/411/411 415/415/415
f 412/412/412 414/414/414 411/411/411
f 415/415/415 411/411/411 416/416/416
f 414/414/414 415/415/415 416/416/416
f 411/411/411 414/414/414 416/416/416
f 417/417/417 419/419/419 418/418/418
f 419/419/419 417/417/417 420/420/420
f 421/421/421 423/423/423 422/422/422
f 423/423/423 421/421/421 424/424/424
f 425/425/425 427/427/427 426/426/426
f 427/427/427 425/425/425 428/428/428
f 422/422/422 430/430/430 429/429/429
f 430/430/430 422/422/422 423/423/423
f 429/429/429 432/432/432 431/431/431
f 432/432/432 429/429/429 430/430/430
f 433/433/433 428/428/428 425/425/425
f 428/428/428 433/433/433 434/434/434
f 435/435/435 424/424/424 436/436/436
f 424/424/424 435/435/435 423/423/423
f 428/428/428 437/437/437 427/427/427
f 437/437/437 428/428/428 438/438/438
f 423/423/423 439/439/439 430/430/430
f 439/439/439 423/423/423 435/435/435
f 430/430/430 440/440/440 432/432/432
f 440/440/440 430/430/430 439/439/439
f 434/434/434 438/438/438 428/428/428
f 438/438/438 434/434/434 441/441/441
f 436/436/436 442/442/442 435/435/435
f 443/443/443 435/435/435 442/442/442
f 435/435/435 443/443/443 439/439/439
f 440/440/440 439/439/439 443/443/443
f 436/436/436 444/444/444 442/442/442
f 444/444/444 436/436/436 445/445/445
f 442/442/442 446/446/446 443/443/443
f 446/446/446 442/442/442 444/444/444
f 438/438/438 447/447/447 437/437/437
f 447/447/447 438/438/438 448/448/448
f 449/449/449 451/451/451 450/450/450
f 451/451/451 449/449/449 452/452/452
f 445/445/445 453/453/453 444/444/444
f 444/444/444 454/454/454 446/446/446
f 454/454/454 444/444/444 453/453/453
f 455/455/455 446/446/446 454/454/454
f 445/445/445 418/418/418 453/453/453
f 418/418/418 445/445/445 417/417/417
f 453/453/453 419/419/419 454/454/454
f 419/419/419 453/453/453 418/418/418
f 448/448/448 456/456/456 447/447/447
f 456/456/456 448/448/448 457/457/457
f 454/454/454 420/420/420 455/455/455
f 420/420/420 454/454/454 419/419/419
f 458/458/458 457/457/457 448/448/448
f 441/441/441 459/459/459 438/438/438
f 459/459/459 441/441/441 460/460/460
f 438/438/438 461/461/461 448/448/448
f 461/461/461 438/438/438 459/459/459
f 448/448/448 462/462/462 458/458/458
f 462/462/462 448/448/448 461/461/461
f 460/460/460 450/450/450 459/459/459
f 450/450/450 460/460/460 449/449/449
f 459/459/459 451/451/451 461/461/461
f 451/451/451 459/459/459 450/450/450
f 463/463/463 465/465/465 464/464/464
f 465/465/465 463/463/463 466/466/466
f 464/464/464 468/468/468 467/467/467
f 468/468/468 464/464/464 465/465/465
f 446/446/446 455/455/455 464/464/464
f 446/446/446 464/464/464 443/443/443
f 443/443/443 464/464/464 440/440/440
f 464/464/464 467/467/467 440/440/440
f 469/469/469 471/471/471 470/470/470
f 469/469/469 470/470/470 472/472/472
f 473/473/473 475/475/475 474/474/474
f 473/473/473 474/474/474 476/476/476
f 476/476/476 474/474/474 477/477/477
f 476/476/476 477/477/477 478/478/478
f 479/479/479 481/481/481 480/480/480
f 479/479/479 480/480/480 482/482/482
f 475/475/475 484/484/484 483/483/483
f 483/483/483 484/484/484 485/485/485
f 473/473/473 484/484/484 475/475/475
f 472/472/472 486/486/486 469/469/469
f 484/484/484 473/473/473 487/487/487
f 484/484/484 487/487/487 485/485/485
f 488/488/488 490/490/490 489/489/489
f 489/489/489 491/491/491 488/488/488
f 492/492/492 494/494/494 493/493/493
f 493/493/493 495/495/495 492/492/492
f 496/496/496 498/498/498 497/497/497
f 497/497/497 499/499/499 496/496/496
f 494/494/494 501/501/501 500/500/500
f 500/500/500 493/493/493 494/494/494
f 501/501/501 503/503/503 502/502/502
f 502/502/502 500/500/500 501/501/501
f 504/504/504 496/496/496 499/499/499
f 499/499/499 505/505/505 504/504/504
f 506/506/506 507/507/507 495/495/495
f 495/495/495 493/493/493 506/506/506
f 499/499/499 497/497/497 508/508/508
f 508/508/508 509/509/509 499/499/499
f 493/493/493 500/500/500 510/510/510
f 510/510/510 506/506/506 493/493/493
f 500/500/500 502/502/502 511/511/511
f 511/511/511 510/510/510 500/500/500
f 505/505/505 499/499/499 509/509/509
f 509/509/509 512/512/512 505/505/505
f 507/507/507 506/506/506 513/513/513
f 514/514/514 513/513/513 506/506/506
f 506/506/506 510/510/510 514/514/514
f 511/511/511 514/514/514 510/510/510
f 507/507/507 513/513/513 515/515/515
f 515/515/515 516/516/516 507/507/507
f 513/513/513 514/514/514 517/517/517
f 517/517/517 515/515/515 513/513/513
f 509/509/509 508/508/508 518/518/518
f 518/518/518 519/519/519 509/509/509
f 520/520/520 522/522/522 521/521/521
f 521/521/521 523/523/523 520/520/520
f 516/516/516 515/515/515 524/524/524
f 515/515/515 517/517/517 525/525/525
f 525/525/525 524/524/524 515/515/515
f 526/526/526 525/525/525 517/517/517
f 516/516/516 524/524/524 490/490/490
f 490/490/490 488/488/488 516/516/516
f 524/524/524 525/525/525 489/489/489
f 489/489/489 490/490/490 524/524/524
f 519/519/519 518/518/518 527/527/527
f 527/527/527 528/528/528 519/519/519
f 525/525/525 526/526/526 491/491/491
f 491/491/491 489/489/489 525/525/525
f 529/529/529 519/519/519 528/528/528
f 512/512/512 509/509/509 530/530/530
f 530/530/530 531/531/531 512/512/512
f 532/532/532 534/534/534 533/533/533
f 533/533/533 535/535/535 532/532/532
f 519/519/519 529/529/529 536/536/536
f 536/536/536 537/537/537 519/519/519
f 531/531/531 530/530/530 522/522/522
f 522/522/522 520/520/520 531/531/531
f 530/530/530 537/537/537 521/521/521
f 521/521/521 522/522/522 530/530/530
f 538/538/538 540/540/540 539/539/539
f 539/539/539 541/541/541 538/538/538
f 540/540/540 543/543/543 542/542/542
f 542/542/542 539/539/539 540/540/540
f 517/517/517 540/540/540 526/526/526
f 517/517/517 514/514/514 540/540/540
f 514/514/514 511/511/511 540/540/540
f 540/540/540 511/511/511 543/543/543
f 544/544/544 546/546/546 545/545/545
f 544/544/544 547/547/547 546/546/546
f 548/548/548 550/550/550 549/549/549
f 548/548/548 551/551/551 550/550/550
f 551/551/551 552/552/552 550/550/550
f 551/551/551 553/553/553 552/552/552
f 554/554/554 556/556/556 555/555/555
f 554/554/554 557/557/557 556/556/556
f 549/549/549 559/559/559 558/558/558
f 559/559/559 560/560/560 558/558/558
f 548/548/548 549/549/549 558/558/558
f 547/547/547 544/544/544 561/561/561
f 558/558/558 562/562/562 548/548/548
f 558/558/558 560/560/560 562/562/562
f 563/563/563 565/565/565 564/564/564
f 565/565/565 567/567/567 566/566/566
f 565/565/565 566/566/566 564/564/564
f 564/564/564 566/566/566 563/563/563
f 565/565/565 563/563/563 567/567/567
f 566/566/566 568/568/568 563/563/563
f 567/567/567 568/568/568 566/566/566
f 563/563/563 568/568/568 567/567/567
f 569/569/569 571/571/571 570/570/570
f 570/570/570 573/573/573 572/572/572
f 570/570/570 571/571/571 573/573/573
f 571/571/571 569/569/569 573/573/573
f 570/570/570 572/572/572 569/569/569
f 573/573/573 569/569/569 574/574/574
f 572/572/572 573/573/573 574/574/574
f 569/569/569 572/572/572 574/574/574
f 575/575/575 577/577/577 576/576/576
f 575/575/575 576/576/576 578/578/578
f 578/578/578 576/576/576 579/579/579
f 578/578/578 579/579/579 580/580/580
f 580/580/580 579/579/579 581/581/581
f 580/580/580 581/581/581 582/582/582
f 577/577/577 584/584/584 583/583/583
f 577/577/577 583/583/583 576/576/576
f 576/576/576 583/583/583 585/585/585
f 576/576/576 585/585/585 579/579/579
f 579/579/579 585/585/585 586/586/586
f 579/579/579 586/586/586 581/581/581
f 584/584/584 588/588/588 587/587/587
f 584/584/584 587/587/587 583/583/583
f 583/583/583 587/587/587 589/589/589
f 583/583/583 589/589/589 585/585/585
f 585/585/585 589/589/589 590/590/590
f 585/585/585 590/590/590 586/586/586
f 588/588/588 591/591/591 587/587/587
f 587/587/587 591/591/591 589/589/589
f 589/589/589 591/591/591 590/590/590
f 575/575/575 592/592/592 577/577/577
f 575/575/575 593/593/593 592/592/592
f 593/593/593 581/581/581 592/592/592
f 593/593/593 582/582/582 581/581/581
f 577/577/577 594/594/594 584/584/584
f 577/577/577 592/592/592 594/594/594
f 592/592/592 586/586/586 594/594/594
f 592/592/592 581/581/581 586/586/586
f 584/584/584 595/595/595 588/588/588
f 584/584/584 594/594/594 595/595/595
f 594/594/594 590/590/590 595/595/595
f 594/594/594 586/586/586 590/590/590
f 588/588/588 595/595/595 591/591/591
f 595/595/595 590/590/590 591/591/591
f 596/596/596 598/598/598 597/597/597
f 596/596/596 599/599/599 598/598/598
f 596/596/596 597/597/597 600/600/600
f 601/601/601 603/603/603 602/602/602
f 603/603/603 601/601/601 604/604/604
f 604/604/604 605/605/605 603/603/603
f 605/605/605 604/604/604 606/606/606
f 606/606/606 607/607/607 605/605/605
f 607/607/607 606/606/606 608/608/608
f 609/609/609 603/603/603 605/605/605
f 605/605/605 610/610/610 609/609/609
f 610/610/610 605/605/605 607/607/607
f 611/611/611 613/613/613 612/612/612
f 613/613/613 611/611/611 614/614/614
f 612/612/612 616/616/616 615/615/615
f 616/616/616 612/612/612 613/613/613
f 615/615/615 618/618/618 617/617/617
f 618/618/618 615/615/615 616/616/616
f 613/613/613 619/619/619 616/616/616
f 616/616/616 620/620/620 618/618/618
f 620/620/620 616/616/616 619/619/619
f 621/621/621 623/623/623 622/622/622
f 623/623/623 621/621/621 624/624/624
f 625/625/625 627/627/627 626/626/626
f 627/627/627 625/625/625 628/628/628
f 629/629/629 631/631/631 630/630/630
f 631/631/631 629/629/629 632/632/632
f 630/630/630 634/634/634 633/633/633
f 634/634/634 630/630/630 631/631/631
f 635/635/635 637/637/637 636/636/636
f 637/637/637 635/635/635 638/638/638
f 639/639/639 641/641/641 640/640/640
f 641/641/641 639/639/639 642/642/642
f 643/643/643 645/645/645 644/644/644
f 645/645/645 643/643/643 646/646/646
f 604/604/604 647/647/647 606/606/606
f 647/647/647 604/604/604 648/648/648
f 609/609/609 649/649/649 603/603/603
f 649/649/649 609/609/609 650/650/650
f 615/615/615 651/651/651 612/612/612
f 651/651/651 615/615/615 652/652/652
f 613/613/613 653/653/653 619/619/619
f 653/653/653 613/613/613 654/654/654
f 655/655/655 657/657/657 656/656/656
f 657/657/657 655/655/655 658/658/658
f 659/659/659 661/661/661 660/660/660
f 661/661/661 659/659/659 662/662/662
f 663/663/663 665/665/665 664/664/664
f 665/665/665 663/663/663 666/666/666
f 667/667/667 669/669/669 668/668/668
f 669/669/669 667/667/667 670/670/670
f 671/671/671 673/673/673 672/672/672
f 673/673/673 671/671/671 674/674/674
f 675/675/675 677/677/677 676/676/676
f 677/677/677 675/675/675 678/678/678
