# Object10.bmd — MU geometry at action 0 key 0, exported for MU2
# 1 mesh(es)

g col2
# texture: col2.jpg
v 51.0393 7.233406 -37.2702
v 39.8284 38.4751 -63.8942
v 32.1531 35.1913 -36.2871
v 51.0393 7.233406 -37.2702
v 42.44521 7.877407 -64.3414
v 39.8284 38.4751 -63.8942
v 42.44521 7.877407 -64.3414
v 12.9006 35.2354 -78.16539
v 39.8284 38.4751 -63.8942
v 17.4834 4.874104 -77.57069
v 17.4834 4.874104 -77.57069
v -9.223801 -0.016994 -69.2085
v 12.9006 35.2354 -78.16539
v -15.91 29.95901 -69.14459
v -9.223801 -0.016994 -69.2085
v -22.03169 -3.930798 -44.1534
v -15.91 29.95901 -69.14459
v -15.91 29.95901 -69.14459
v -22.03169 -3.930798 -44.1534
v -37.2827 24.3462 -39.6572
v -22.03169 -3.930798 -44.1534
v -20.4557 25.0423 -12.9127
v -37.2827 24.3462 -39.6572
v -22.03169 -3.930798 -44.1534
v -13.43761 -4.574799 -17.0822
v -20.4557 25.0423 -12.9127
v -13.43761 -4.574799 -17.0822
v 11.5242 -1.5716 -3.852901
v -20.4557 25.0423 -12.9127
v -20.4557 25.0423 -12.9127
v 11.5242 -1.5716 -3.852901
v 7.829597 29.7504 -15.4352
v 11.5242 -1.5716 -3.852901
v 35.2827 33.5584 -7.662298
v 7.829597 29.7504 -15.4352
v 11.5242 -1.5716 -3.852901
v 38.2314 3.319601 -12.2151
v 35.2827 33.5584 -7.662298
v 38.2314 3.319601 -12.2151
v 51.0393 7.233406 -37.2702
v 35.2827 33.5584 -7.662298
v 35.2827 33.5584 -7.662298
v 51.0393 7.233406 -37.2702
v 32.1531 35.1913 -36.2871
v 32.1531 35.1913 -36.2871
v 39.8284 38.4751 -63.8942
v 43.0005 62.8049 -33.0058
v 43.0005 62.8049 -33.0058
v 39.8284 38.4751 -63.8942
v 34.2119 63.46341 -60.68969
v 39.8284 38.4751 -63.8942
v 12.9006 35.2354 -78.16539
v 34.2119 63.46341 -60.68969
v 8.685196 60.39221 -74.2184
v 12.9006 35.2354 -78.16539
v -18.6264 55.3904 -65.6669
v 8.685196 60.39221 -74.2184
v -15.91 29.95901 -69.14459
v -15.91 29.95901 -69.14459
v -37.2827 24.3462 -39.6572
v -31.7242 51.388 -40.0447
v -18.6264 55.3904 -65.6669
v -15.91 29.95901 -69.14459
v -31.7242 51.388 -40.0447
v -37.2827 24.3462 -39.6572
v -20.4557 25.0423 -12.9127
v -31.7242 51.388 -40.0447
v -31.7242 51.388 -40.0447
v -20.4557 25.0423 -12.9127
v -22.93559 50.7295 -12.3609
v -20.4557 25.0423 -12.9127
v 7.829597 29.7504 -15.4352
v 2.591103 53.8007 1.167801
v -22.93559 50.7295 -12.3609
v -20.4557 25.0423 -12.9127
v 2.591103 53.8007 1.167801
v 7.829597 29.7504 -15.4352
v 35.2827 33.5584 -7.662298
v 2.591103 53.8007 1.167801
v 2.591103 53.8007 1.167801
v 35.2827 33.5584 -7.662298
v 29.9027 58.8025 -7.383602
v 35.2827 33.5584 -7.662298
v 32.1531 35.1913 -36.2871
v 43.0005 62.8049 -33.0058
v 29.9027 58.8025 -7.383602
v 35.2827 33.5584 -7.662298
v 43.0005 62.8049 -33.0058
v 4.389 64.9128 -35.9428
v 2.591103 53.8007 1.167801
v 43.0005 62.8049 -33.0058
v 4.389 64.9128 -35.9428
v 43.0005 62.8049 -33.0058
v 8.685196 60.39221 -74.2184
v -31.7242 51.388 -40.0447
v 8.685196 60.39221 -74.2184
v -18.6264 55.3904 -65.6669
v 4.389 64.9128 -35.9428
v 8.685196 60.39221 -74.2184
v -31.7242 51.388 -40.0447
v 2.591103 53.8007 1.167801
v -22.93559 50.7295 -12.3609
v 4.389 64.9128 -35.9428
v -31.7242 51.388 -40.0447
v 2.591103 53.8007 1.167801
v 43.0005 62.8049 -33.0058
v 29.9027 58.8025 -7.383602
v 34.2119 63.46341 -60.68969
v 42.44521 7.877407 -64.3414
v 51.0393 7.233406 -37.2702
v 17.7339 -18.59369 -42.1656
v 17.4834 4.874104 -77.57069
v 42.44521 7.877407 -64.3414
v 17.7339 -18.59369 -42.1656
v 17.4834 4.874104 -77.57069
v 17.7339 -18.59369 -42.1656
v -9.223801 -0.016994 -69.2085
v -9.223801 -0.016994 -69.2085
v 17.7339 -18.59369 -42.1656
v -22.03169 -3.930798 -44.1534
v -13.43761 -4.574799 -17.0822
v -22.03169 -3.930798 -44.1534
v 17.7339 -18.59369 -42.1656
v -13.43761 -4.574799 -17.0822
v 17.7339 -18.59369 -42.1656
v 11.5242 -1.5716 -3.852901
v 38.2314 3.319601 -12.2151
v 11.5242 -1.5716 -3.852901
v 17.7339 -18.59369 -42.1656
v 38.2314 3.319601 -12.2151
v 17.7339 -18.59369 -42.1656
v 51.0393 7.233406 -37.2702
v 82.4194 3.757904 -63.2007
v 95.0999 26.28781 -61.0144
v 91.2719 14.80201 -48.2589
v 82.4194 3.757904 -63.2007
v 79.8317 19.65041 -69.5899
v 95.0999 26.28781 -61.0144
v 79.8317 19.65041 -69.5899
v 84.9251 41.0982 -55.8814
v 95.0999 26.28781 -61.0144
v 70.3997 33.37951 -64.83159
v 70.3997 33.37951 -64.83159
v 59.6487 36.9028 -51.7132
v 84.9251 41.0982 -55.8814
v 73.3273 44.899 -41.7298
v 59.6487 36.9028 -51.7132
v 53.8763 28.1564 -37.9194
v 73.3273 44.899 -41.7298
v 73.3273 44.899 -41.7298
v 53.8763 28.1564 -37.9194
v 64.0559 36.4144 -23.1049
v 53.8763 28.1564 -37.9194
v 69.8918 18.3195 -19.9572
v 64.0559 36.4144 -23.1049
v 53.8763 28.1564 -37.9194
v 56.4641 12.2639 -31.5302
v 69.8918 18.3195 -19.9572
v 56.4641 12.2639 -31.5302
v 65.896 -1.465199 -36.2885
v 69.8918 18.3195 -19.9572
v 69.8918 18.3195 -19.9572
v 65.896 -1.465199 -36.2885
v 81.0927 11.4471 -31.5926
v 65.896 -1.465199 -36.2885
v 91.6645 -0.291699 -39.24179
v 81.0927 11.4471 -31.5926
v 65.896 -1.465199 -36.2885
v 76.6471 -4.988499 -49.4069
v 91.6645 -0.291699 -39.24179
v 76.6471 -4.988499 -49.4069
v 82.4194 3.757904 -63.2007
v 91.6645 -0.291699 -39.24179
v 91.6645 -0.291699 -39.24179
v 82.4194 3.757904 -63.2007
v 91.2719 14.80201 -48.2589
v 91.2719 14.80201 -48.2589
v 95.0999 26.28781 -61.0144
v 109.1666 15.19851 -44.961
v 109.1666 15.19851 -44.961
v 95.0999 26.28781 -61.0144
v 106.5203 31.4507 -51.4947
v 95.0999 26.28781 -61.0144
v 84.9251 41.0982 -55.8814
v 106.5203 31.4507 -51.4947
v 96.8749 45.4905 -46.6288
v 84.9251 41.0982 -55.8814
v 85.8805 49.0935 -33.2135
v 96.8749 45.4905 -46.6288
v 73.3273 44.899 -41.7298
v 73.3273 44.899 -41.7298
v 64.0559 36.4144 -23.1049
v 79.9775 40.1492 -19.1075
v 85.8805 49.0935 -33.2135
v 73.3273 44.899 -41.7298
v 79.9775 40.1492 -19.1075
v 64.0559 36.4144 -23.1049
v 69.8918 18.3195 -19.9572
v 79.9775 40.1492 -19.1075
v 79.9775 40.1492 -19.1075
v 69.8918 18.3195 -19.9572
v 82.6238 23.897 -12.5737
v 69.8918 18.3195 -19.9572
v 81.0927 11.4471 -31.5926
v 92.2692 9.857199 -17.4397
v 82.6238 23.897 -12.5737
v 69.8918 18.3195 -19.9572
v 92.2692 9.857199 -17.4397
v 81.0927 11.4471 -31.5926
v 91.6645 -0.291699 -39.24179
v 92.2692 9.857199 -17.4397
v 92.2692 9.857199 -17.4397
v 91.6645 -0.291699 -39.24179
v 103.2636 6.254202 -30.8549
v 91.6645 -0.291699 -39.24179
v 91.2719 14.80201 -48.2589
v 109.1666 15.19851 -44.961
v 103.2636 6.254202 -30.8549
v 91.6645 -0.291699 -39.24179
v 109.1666 15.19851 -44.961
v 98.2973 29.3291 -29.4258
v 92.2692 9.857199 -17.4397
v 109.1666 15.19851 -44.961
v 98.2973 29.3291 -29.4258
v 109.1666 15.19851 -44.961
v 96.8749 45.4905 -46.6288
v 79.9775 40.1492 -19.1075
v 96.8749 45.4905 -46.6288
v 85.8805 49.0935 -33.2135
v 98.2973 29.3291 -29.4258
v 96.8749 45.4905 -46.6288
v 79.9775 40.1492 -19.1075
v 92.2692 9.857199 -17.4397
v 82.6238 23.897 -12.5737
v 98.2973 29.3291 -29.4258
v 79.9775 40.1492 -19.1075
v 92.2692 9.857199 -17.4397
v 109.1666 15.19851 -44.961
v 103.2636 6.254202 -30.8549
v 106.5203 31.4507 -51.4947
v 79.8317 19.65041 -69.5899
v 82.4194 3.757904 -63.2007
v 58.4981 11.64521 -57.2935
v 70.3997 33.37951 -64.83159
v 79.8317 19.65041 -69.5899
v 58.4981 11.64521 -57.2935
v 70.3997 33.37951 -64.83159
v 58.4981 11.64521 -57.2935
v 59.6487 36.9028 -51.7132
v 59.6487 36.9028 -51.7132
v 58.4981 11.64521 -57.2935
v 53.8763 28.1564 -37.9194
v 56.4641 12.2639 -31.5302
v 53.8763 28.1564 -37.9194
v 58.4981 11.64521 -57.2935
v 56.4641 12.2639 -31.5302
v 58.4981 11.64521 -57.2935
v 65.896 -1.465199 -36.2885
v 76.6471 -4.988499 -49.4069
v 65.896 -1.465199 -36.2885
v 58.4981 11.64521 -57.2935
v 76.6471 -4.988499 -49.4069
v 58.4981 11.64521 -57.2935
v 82.4194 3.757904 -63.2007
v 94.3726 9.4064 -0.8807
v 62.9706 2.693901 -5.769801
v 71.5669 18.3134 7.1477
v 94.3726 9.4064 -0.8807
v 82.9197 -8.984003 -1.855302
v 62.9706 2.693901 -5.769801
v 82.9197 -8.984003 -1.855302
v 52.7322 -11.2718 9.961098
v 62.9706 2.693901 -5.769801
v 73.4288 -21.9301 12.7271
v 73.4288 -21.9301 12.7271
v 71.4596 -21.8482 34.32429
v 52.7322 -11.2718 9.961098
v 50.608 -11.1836 33.2593
v 71.4596 -21.8482 34.32429
v 78.1656 -8.786503 50.285
v 50.608 -11.1836 33.2593
v 50.608 -11.1836 33.2593
v 78.1656 -8.786503 50.285
v 57.3188 2.987598 56.61209
v 78.1656 -8.786503 50.285
v 70.1971 22.7457 51.5284
v 57.3188 2.987598 56.61209
v 78.1656 -8.786503 50.285
v 89.6185 9.603897 51.2596
v 70.1971 22.7457 51.5284
v 89.6185 9.603897 51.2596
v 99.1094 22.55 36.6772
v 70.1971 22.7457 51.5284
v 70.1971 22.7457 51.5284
v 99.1094 22.55 36.6772
v 74.5851 26.5784 30.3414
v 99.1094 22.55 36.6772
v 82.5597 36.6232 12.4993
v 74.5851 26.5784 30.3414
v 99.1094 22.55 36.6772
v 101.0786 22.4682 15.08
v 82.5597 36.6232 12.4993
v 101.0786 22.4682 15.08
v 94.3726 9.4064 -0.8807
v 82.5597 36.6232 12.4993
v 82.5597 36.6232 12.4993
v 94.3726 9.4064 -0.8807
v 71.5669 18.3134 7.1477
v 71.5669 18.3134 7.1477
v 62.9706 2.693901 -5.769801
v 58.2854 32.425 -4.837097
v 58.2854 32.425 -4.837097
v 62.9706 2.693901 -5.769801
v 46.5733 13.6184 -5.8337
v 62.9706 2.693901 -5.769801
v 52.7322 -11.2718 9.961098
v 46.5733 13.6184 -5.8337
v 36.8676 0.379299 9.078699
v 52.7322 -11.2718 9.961098
v 34.8539 0.462997 31.1647
v 36.8676 0.379299 9.078699
v 50.608 -11.1836 33.2593
v 50.608 -11.1836 33.2593
v 57.3188 2.987598 56.61209
v 41.7116 13.8204 47.4866
v 34.8539 0.462997 31.1647
v 50.608 -11.1836 33.2593
v 41.7116 13.8204 47.4866
v 57.3188 2.987598 56.61209
v 70.1971 22.7457 51.5284
v 41.7116 13.8204 47.4866
v 41.7116 13.8204 47.4866
v 70.1971 22.7457 51.5284
v 53.4237 32.62689 48.4832
v 70.1971 22.7457 51.5284
v 74.5851 26.5784 30.3414
v 63.12939 45.866 33.5708
v 53.4237 32.62689 48.4832
v 70.1971 22.7457 51.5284
v 63.12939 45.866 33.5708
v 74.5851 26.5784 30.3414
v 82.5597 36.6232 12.4993
v 63.12939 45.866 33.5708
v 63.12939 45.866 33.5708
v 82.5597 36.6232 12.4993
v 65.1431 45.7824 11.4848
v 82.5597 36.6232 12.4993
v 71.5669 18.3134 7.1477
v 58.2854 32.425 -4.837097
v 65.1431 45.7824 11.4848
v 82.5597 36.6232 12.4993
v 58.2854 32.425 -4.837097
v 44.883 26.3338 20.8462
v 63.12939 45.866 33.5708
v 58.2854 32.425 -4.837097
v 44.883 26.3338 20.8462
v 58.2854 32.425 -4.837097
v 36.8676 0.379299 9.078699
v 41.7116 13.8204 47.4866
v 36.8676 0.379299 9.078699
v 34.8539 0.462997 31.1647
v 44.883 26.3338 20.8462
v 36.8676 0.379299 9.078699
v 41.7116 13.8204 47.4866
v 63.12939 45.866 33.5708
v 53.4237 32.62689 48.4832
v 44.883 26.3338 20.8462
v 41.7116 13.8204 47.4866
v 63.12939 45.866 33.5708
v 58.2854 32.425 -4.837097
v 65.1431 45.7824 11.4848
v 46.5733 13.6184 -5.8337
v 82.9197 -8.984003 -1.855302
v 94.3726 9.4064 -0.8807
v 99.5344 -7.972198 25.9591
v 73.4288 -21.9301 12.7271
v 82.9197 -8.984003 -1.855302
v 99.5344 -7.972198 25.9591
v 73.4288 -21.9301 12.7271
v 99.5344 -7.972198 25.9591
v 71.4596 -21.8482 34.32429
v 71.4596 -21.8482 34.32429
v 99.5344 -7.972198 25.9591
v 78.1656 -8.786503 50.285
v 89.6185 9.603897 51.2596
v 78.1656 -8.786503 50.285
v 99.5344 -7.972198 25.9591
v 89.6185 9.603897 51.2596
v 99.5344 -7.972198 25.9591
v 99.1094 22.55 36.6772
v 101.0786 22.4682 15.08
v 99.1094 22.55 36.6772
v 99.5344 -7.972198 25.9591
v 101.0786 22.4682 15.08
v 99.5344 -7.972198 25.9591
v 94.3726 9.4064 -0.8807
v 0.064697 24.4102 37.873
v 8.397301 4.327799 36.0252
v -0.6987 9.4305 46.5127
v 0.064697 24.4102 37.873
v 13.3202 19.2342 34.7484
v 8.397301 4.327799 36.0252
v 13.3202 19.2342 34.7484
v 21.4095 1.359695 44.325
v 8.397301 4.327799 36.0252
v 25.3824 16.48289 42.4422
v 25.3824 16.48289 42.4422
v 29.1854 17.7679 56.4474
v 21.4095 1.359695 44.325
v 25.5122 2.745995 59.4333
v 29.1854 17.7679 56.4474
v 22.5016 22.33649 68.56
v 25.5122 2.745995 59.4333
v 25.5122 2.745995 59.4333
v 22.5016 22.33649 68.56
v 19.3402 8.0555 76.48609
v 22.5016 22.33649 68.56
v 4.002403 13.2581 75.87049
v 19.3402 8.0555 76.48609
v 22.5016 22.33649 68.56
v 9.246201 27.51249 71.6846
v 4.002403 13.2581 75.87049
v 9.246201 27.51249 71.6846
v -2.816101 30.2639 63.9908
v 4.002403 13.2581 75.87049
v 4.002403 13.2581 75.87049
v -2.816101 30.2639 63.9908
v -2.585907 13.0867 62.6618
v -2.816101 30.2639 63.9908
v -13.1124 14.83989 52.4625
v -2.585907 13.0867 62.6618
v -2.816101 30.2639 63.9908
v -6.619095 28.9788 49.9855
v -13.1124 14.83989 52.4625
v -6.619095 28.9788 49.9855
v 0.064697 24.4102 37.873
v -13.1124 14.83989 52.4625
v -13.1124 14.83989 52.4625
v 0.064697 24.4102 37.873
v -0.6987 9.4305 46.5127
v -0.6987 9.4305 46.5127
v 8.397301 4.327799 36.0252
v -9.524994 -2.426601 42.5366
v -9.524994 -2.426601 42.5366
v 8.397301 4.327799 36.0252
v 4.030403 -7.719702 39.3413
v 8.397301 4.327799 36.0252
v 21.4095 1.359695 44.325
v 4.030403 -7.719702 39.3413
v 16.3656 -10.5333 47.2092
v 21.4095 1.359695 44.325
v 20.2548 -9.2192 61.53139
v 16.3656 -10.5333 47.2092
v 25.5122 2.745995 59.4333
v 25.5122 2.745995 59.4333
v 19.3402 8.0555 76.48609
v 13.4197 -4.547207 73.91809
v 20.2548 -9.2192 61.53139
v 25.5122 2.745995 59.4333
v 13.4197 -4.547207 73.91809
v 19.3402 8.0555 76.48609
v 4.002403 13.2581 75.87049
v 13.4197 -4.547207 73.91809
v 13.4197 -4.547207 73.91809
v 4.002403 13.2581 75.87049
v -0.135803 0.745998 77.1134
v 4.002403 13.2581 75.87049
v -2.585907 13.0867 62.6618
v -12.47099 3.559597 69.2455
v -0.135803 0.745998 77.1134
v 4.002403 13.2581 75.87049
v -12.47099 3.559597 69.2455
v -2.585907 13.0867 62.6618
v -13.1124 14.83989 52.4625
v -12.47099 3.559597 69.2455
v -12.47099 3.559597 69.2455
v -13.1124 14.83989 52.4625
v -16.36009 2.245399 54.92329
v -13.1124 14.83989 52.4625
v -0.6987 9.4305 46.5127
v -9.524994 -2.426601 42.5366
v -16.36009 2.245399 54.92329
v -13.1124 14.83989 52.4625
v -9.524994 -2.426601 42.5366
v 0.6343 -7.274605 58.9314
v -12.47099 3.559597 69.2455
v -9.524994 -2.426601 42.5366
v 0.6343 -7.274605 58.9314
v -9.524994 -2.426601 42.5366
v 16.3656 -10.5333 47.2092
v 13.4197 -4.547207 73.91809
v 16.3656 -10.5333 47.2092
v 20.2548 -9.2192 61.53139
v 0.6343 -7.274605 58.9314
v 16.3656 -10.5333 47.2092
v 13.4197 -4.547207 73.91809
v -12.47099 3.559597 69.2455
v -0.135803 0.745998 77.1134
v 0.6343 -7.274605 58.9314
v 13.4197 -4.547207 73.91809
v -12.47099 3.559597 69.2455
v -9.524994 -2.426601 42.5366
v -16.36009 2.245399 54.92329
v 4.030403 -7.719702 39.3413
v 13.3202 19.2342 34.7484
v 0.064697 24.4102 37.873
v 14.6625 33.1917 51.4092
v 25.3824 16.48289 42.4422
v 13.3202 19.2342 34.7484
v 14.6625 33.1917 51.4092
v 25.3824 16.48289 42.4422
v 14.6625 33.1917 51.4092
v 29.1854 17.7679 56.4474
v 29.1854 17.7679 56.4474
v 14.6625 33.1917 51.4092
v 22.5016 22.33649 68.56
v 9.246201 27.51249 71.6846
v 22.5016 22.33649 68.56
v 14.6625 33.1917 51.4092
v 9.246201 27.51249 71.6846
v 14.6625 33.1917 51.4092
v -2.816101 30.2639 63.9908
v -6.619095 28.9788 49.9855
v -2.816101 30.2639 63.9908
v 14.6625 33.1917 51.4092
v -6.619095 28.9788 49.9855
v 14.6625 33.1917 51.4092
v 0.064697 24.4102 37.873
v -59.6196 56.8268 33.96061
v -62.813 32.0758 -0.503199
v -74.2439 27.5797 25.5921
v -59.6196 56.8268 33.96061
v -41.0954 47.921 14.3477
v -62.813 32.0758 -0.503199
v -41.0954 47.921 14.3477
v -42.8842 8.8819 -2.5399
v -62.813 32.0758 -0.503199
v -22.6216 26.4205 12.4597
v -22.6216 26.4205 12.4597
v -15.0197 4.919899 29.4026
v -42.8842 8.8819 -2.5399
v -34.6835 -14.3121 15.7374
v -15.0197 4.919899 29.4026
v -22.7429 -3.985905 55.2514
v -34.6835 -14.3121 15.7374
v -34.6835 -14.3121 15.7374
v -22.7429 -3.985905 55.2514
v -40.9146 -29.99601 48.494
v -22.7429 -3.985905 55.2514
v -62.99809 -14.31211 64.7797
v -40.9146 -29.99601 48.494
v -22.7429 -3.985905 55.2514
v -41.267 4.919895 74.86431
v -62.99809 -14.31211 64.7797
v -41.267 4.919895 74.86431
v -59.74089 26.4205 76.7523
v -62.99809 -14.31211 64.7797
v -62.99809 -14.31211 64.7797
v -59.74089 26.4205 76.7523
v -74.47081 8.881897 52.1699
v -59.74089 26.4205 76.7523
v -91.12761 32.0758 48.5391
v -74.47081 8.881897 52.1699
v -59.74089 26.4205 76.7523
v -67.34279 47.921 59.80939
v -91.12761 32.0758 48.5391
v -67.34279 47.921 59.80939
v -59.6196 56.8268 33.96061
v -91.12761 32.0758 48.5391
v -91.12761 32.0758 48.5391
v -59.6196 56.8268 33.96061
v -74.2439 27.5797 25.5921
v -74.2439 27.5797 25.5921
v -62.813 32.0758 -0.503199
v -100.0076 25.2196 10.7059
v -100.0076 25.2196 10.7059
v -62.813 32.0758 -0.503199
v -81.0643 16.1122 -9.350899
v -62.813 32.0758 -0.503199
v -42.8842 8.8819 -2.5399
v -81.0643 16.1122 -9.350899
v -62.1723 -5.874998 -11.2816
v -42.8842 8.8819 -2.5399
v -54.39839 -27.8621 6.044697
v -62.1723 -5.874998 -11.2816
v -34.6835 -14.3121 15.7374
v -34.6835 -14.3121 15.7374
v -40.9146 -29.99601 48.494
v -62.2964 -36.9695 32.4785
v -54.39839 -27.8621 6.044697
v -34.6835 -14.3121 15.7374
v -62.2964 -36.9695 32.4785
v -40.9146 -29.99601 48.494
v -62.99809 -14.31211 64.7797
v -62.2964 -36.9695 32.4785
v -62.2964 -36.9695 32.4785
v -62.99809 -14.31211 64.7797
v -81.2397 -27.8621 52.53519
v -62.99809 -14.31211 64.7797
v -74.47081 8.881897 52.1699
v -100.1317 -5.875 54.466
v -81.2397 -27.8621 52.53519
v -62.99809 -14.31211 64.7797
v -100.1317 -5.875 54.466
v -74.47081 8.881897 52.1699
v -91.12761 32.0758 48.5391
v -100.1317 -5.875 54.466
v -100.1317 -5.875 54.466
v -91.12761 32.0758 48.5391
v -107.9056 16.1122 37.1397
v -91.12761 32.0758 48.5391
v -74.2439 27.5797 25.5921
v -100.0076 25.2196 10.7059
v -107.9056 16.1122 37.1397
v -91.12761 32.0758 48.5391
v -100.0076 25.2196 10.7059
v -86.7825 -10.4274 18.3414
v -100.1317 -5.875 54.466
v -100.0076 25.2196 10.7059
v -86.7825 -10.4274 18.3414
v -100.0076 25.2196 10.7059
v -62.1723 -5.874998 -11.2816
v -62.2964 -36.9695 32.4785
v -62.1723 -5.874998 -11.2816
v -54.39839 -27.8621 6.044697
v -86.7825 -10.4274 18.3414
v -62.1723 -5.874998 -11.2816
v -62.2964 -36.9695 32.4785
v -100.1317 -5.875 54.466
v -81.2397 -27.8621 52.53519
v -86.7825 -10.4274 18.3414
v -62.2964 -36.9695 32.4785
v -100.1317 -5.875 54.466
v -100.0076 25.2196 10.7059
v -107.9056 16.1122 37.1397
v -81.0643 16.1122 -9.350899
v -41.0954 47.921 14.3477
v -59.6196 56.8268 33.96061
v -26.6286 38.20879 53.0713
v -22.6216 26.4205 12.4597
v -41.0954 47.921 14.3477
v -26.6286 38.20879 53.0713
v -22.6216 26.4205 12.4597
v -26.6286 38.20879 53.0713
v -15.0197 4.919899 29.4026
v -15.0197 4.919899 29.4026
v -26.6286 38.20879 53.0713
v -22.7429 -3.985905 55.2514
v -41.267 4.919895 74.86431
v -22.7429 -3.985905 55.2514
v -26.6286 38.20879 53.0713
v -41.267 4.919895 74.86431
v -26.6286 38.20879 53.0713
v -59.74089 26.4205 76.7523
v -67.34279 47.921 59.80939
v -59.74089 26.4205 76.7523
v -26.6286 38.20879 53.0713
v -67.34279 47.921 59.80939
v -26.6286 38.20879 53.0713
v -59.6196 56.8268 33.96061
vn 0.7989 0.5296 0.2851
vn 0.7989 0.5296 0.2851
vn 0.7989 0.5296 0.2851
vn 0.950216 0.085601 -0.299605
vn 0.950216 0.085601 -0.299605
vn 0.950216 0.085601 -0.299605
vn 0.462683 0.052498 -0.884968
vn 0.462683 0.052498 -0.884968
vn 0.462683 0.052498 -0.884968
vn 0.462683 0.052498 -0.884968
vn -0.287791 -0.062198 -0.955671
vn -0.287791 -0.062198 -0.955671
vn -0.287791 -0.062198 -0.955671
vn -0.287791 -0.062198 -0.955671
vn -0.86156 -0.191191 -0.470278
vn -0.86156 -0.191191 -0.470278
vn -0.86156 -0.191191 -0.470278
vn -0.742399 -0.3056 -0.596199
vn -0.742399 -0.3056 -0.596199
vn -0.742399 -0.3056 -0.596199
vn -0.739333 -0.474721 0.477521
vn -0.739333 -0.474721 0.477521
vn -0.739333 -0.474721 0.477521
vn -0.922378 -0.258894 0.286693
vn -0.922378 -0.258894 0.286693
vn -0.922378 -0.258894 0.286693
vn -0.434822 -0.225812 0.871745
vn -0.434822 -0.225812 0.871745
vn -0.434822 -0.225812 0.871745
vn 0.025402 0.349322 0.936659
vn 0.025402 0.349322 0.936659
vn 0.025402 0.349322 0.936659
vn -0.298191 0.299891 0.906172
vn -0.298191 0.299891 0.906172
vn -0.298191 0.299891 0.906172
vn 0.31541 -0.111104 0.942429
vn 0.31541 -0.111104 0.942429
vn 0.31541 -0.111104 0.942429
vn 0.889127 0.017801 0.457314
vn 0.889127 0.017801 0.457314
vn 0.889127 0.017801 0.457314
vn 0.826298 0.560198 -0.0584
vn 0.826298 0.560198 -0.0584
vn 0.826298 0.560198 -0.0584
vn 0.902271 -0.378888 0.205793
vn 0.902271 -0.378888 0.205793
vn 0.902271 -0.378888 0.205793
vn 0.925725 0.245007 -0.288108
vn 0.925725 0.245007 -0.288108
vn 0.925725 0.245007 -0.288108
vn 0.437913 0.210506 -0.874025
vn 0.437913 0.210506 -0.874025
vn 0.437913 0.210506 -0.874025
vn 0.437913 0.210506 -0.874025
vn -0.313396 0.095699 -0.944788
vn -0.313396 0.095699 -0.944788
vn -0.313396 0.095699 -0.944788
vn -0.313396 0.095699 -0.944788
vn -0.813523 0.159205 -0.559316
vn -0.813523 0.159205 -0.559316
vn -0.813523 0.159205 -0.559316
vn -0.887906 -0.0321 -0.458903
vn -0.887906 -0.0321 -0.458903
vn -0.887906 -0.0321 -0.458903
vn -0.834803 0.179101 0.520602
vn -0.834803 0.179101 0.520602
vn -0.834803 0.179101 0.520602
vn -0.949198 -0.0981 0.298999
vn -0.949198 -0.0981 0.298999
vn -0.949198 -0.0981 0.298999
vn 0.163098 -0.536193 0.828189
vn 0.163098 -0.536193 0.828189
vn 0.163098 -0.536193 0.828189
vn -0.461404 -0.063601 0.884908
vn -0.461404 -0.063601 0.884908
vn -0.461404 -0.063601 0.884908
vn -0.145306 -0.583326 0.799135
vn -0.145306 -0.583326 0.799135
vn -0.145306 -0.583326 0.799135
vn 0.289896 0.051199 0.955688
vn 0.289896 0.051199 0.955688
vn 0.289896 0.051199 0.955688
vn 0.928688 -0.350395 -0.121498
vn 0.928688 -0.350395 -0.121498
vn 0.928688 -0.350395 -0.121498
vn 0.864426 0.179005 0.469814
vn 0.864426 0.179005 0.469814
vn 0.864426 0.179005 0.469814
vn 0.030301 0.957119 0.288106
vn 0.030301 0.957119 0.288106
vn 0.030301 0.957119 0.288106
vn 0.062503 0.991953 -0.110106
vn 0.062503 0.991953 -0.110106
vn 0.062503 0.991953 -0.110106
vn -0.157401 0.984803 0.0734
vn -0.157401 0.984803 0.0734
vn -0.157401 0.984803 0.0734
vn -0.332211 0.931631 -0.147305
vn -0.332211 0.931631 -0.147305
vn -0.332211 0.931631 -0.147305
vn -0.157401 0.984803 0.0734
vn -0.157401 0.984803 0.0734
vn -0.364402 0.896805 0.250902
vn -0.364402 0.896805 0.250902
vn -0.364402 0.896805 0.250902
vn -0.157401 0.984803 0.0734
vn -0.157401 0.984803 0.0734
vn -0.157401 0.984803 0.0734
vn 0.618017 -0.75642 -0.214206
vn 0.618017 -0.75642 -0.214206
vn 0.618017 -0.75642 -0.214206
vn 0.366516 -0.774334 -0.515823
vn 0.366516 -0.774334 -0.515823
vn 0.366516 -0.774334 -0.515823
vn -0.0203 -0.833399 -0.552299
vn -0.0203 -0.833399 -0.552299
vn -0.0203 -0.833399 -0.552299
vn -0.316401 -0.899203 -0.302201
vn -0.316401 -0.899203 -0.302201
vn -0.316401 -0.899203 -0.302201
vn -0.34851 -0.933127 0.088403
vn -0.34851 -0.933127 0.088403
vn -0.34851 -0.933127 0.088403
vn -0.0971 -0.915298 0.390899
vn -0.0971 -0.915298 0.390899
vn -0.0971 -0.915298 0.390899
vn 0.290596 -0.856089 0.427394
vn 0.290596 -0.856089 0.427394
vn 0.290596 -0.856089 0.427394
vn 0.586829 -0.790239 0.176509
vn 0.586829 -0.790239 0.176509
vn 0.586829 -0.790239 0.176509
vn 0.866297 -0.471598 -0.164699
vn 0.866297 -0.471598 -0.164699
vn 0.866297 -0.471598 -0.164699
vn 0.55111 -0.232404 -0.801415
vn 0.55111 -0.232404 -0.801415
vn 0.55111 -0.232404 -0.801415
vn 0.265701 0.473603 -0.839704
vn 0.265701 0.473603 -0.839704
vn 0.265701 0.473603 -0.839704
vn 0.265701 0.473603 -0.839704
vn -0.215098 0.884593 -0.413797
vn -0.215098 0.884593 -0.413797
vn -0.215098 0.884593 -0.413797
vn -0.215098 0.884593 -0.413797
vn -0.609506 0.759707 0.226602
vn -0.609506 0.759707 0.226602
vn -0.609506 0.759707 0.226602
vn -0.649617 0.75992 0.022801
vn -0.649617 0.75992 0.022801
vn -0.649617 0.75992 0.022801
vn -0.776419 -0.143704 0.613615
vn -0.776419 -0.143704 0.613615
vn -0.776419 -0.143704 0.613615
vn -0.686522 0.172206 0.706423
vn -0.686522 0.172206 0.706423
vn -0.686522 0.172206 0.706423
vn -0.401092 -0.53359 0.744586
vn -0.401092 -0.53359 0.744586
vn -0.401092 -0.53359 0.744586
vn 0.328991 -0.639783 0.694581
vn 0.328991 -0.639783 0.694581
vn 0.328991 -0.639783 0.694581
vn 0.121697 -0.46259 0.87818
vn 0.121697 -0.46259 0.87818
vn 0.121697 -0.46259 0.87818
vn 0.079595 -0.944446 0.318882
vn 0.079595 -0.944446 0.318882
vn 0.079595 -0.944446 0.318882
vn 0.473974 -0.819755 -0.321482
vn 0.473974 -0.819755 -0.321482
vn 0.473974 -0.819755 -0.321482
vn 0.901009 -0.205002 -0.382304
vn 0.901009 -0.205002 -0.382304
vn 0.901009 -0.205002 -0.382304
vn 0.134802 -0.756111 -0.64041
vn 0.134802 -0.756111 -0.64041
vn 0.134802 -0.756111 -0.64041
vn 0.67622 -0.177405 -0.715021
vn 0.67622 -0.177405 -0.715021
vn 0.67622 -0.177405 -0.715021
vn 0.389478 0.52887 -0.754058
vn 0.389478 0.52887 -0.754058
vn 0.389478 0.52887 -0.754058
vn 0.389478 0.52887 -0.754058
vn -0.091798 0.940279 -0.327793
vn -0.091798 0.940279 -0.327793
vn -0.091798 0.940279 -0.327793
vn -0.091798 0.940279 -0.327793
vn -0.284701 0.917904 0.276401
vn -0.284701 0.917904 0.276401
vn -0.284701 0.917904 0.276401
vn -0.485616 0.815827 0.314011
vn -0.485616 0.815827 0.314011
vn -0.485616 0.815827 0.314011
vn -0.260989 0.083096 0.961759
vn -0.260989 0.083096 0.961759
vn -0.260989 0.083096 0.961759
vn -0.561332 0.228413 0.795446
vn -0.561332 0.228413 0.795446
vn -0.561332 0.228413 0.795446
vn -0.365812 -0.91183 0.186406
vn -0.365812 -0.91183 0.186406
vn -0.365812 -0.91183 0.186406
vn -0.274611 -0.477819 0.834433
vn -0.274611 -0.477819 0.834433
vn -0.274611 -0.477819 0.834433
vn -0.563399 -0.742899 0.3615
vn -0.563399 -0.742899 0.3615
vn -0.563399 -0.742899 0.3615
vn 0.206697 -0.889187 0.408194
vn 0.206697 -0.889187 0.408194
vn 0.206697 -0.889187 0.408194
vn 0.167494 -0.502381 -0.848268
vn 0.167494 -0.502381 -0.848268
vn 0.167494 -0.502381 -0.848268
vn 0.600519 -0.764725 -0.233608
vn 0.600519 -0.764725 -0.233608
vn 0.600519 -0.764725 -0.233608
vn 0.844629 0.065602 0.531318
vn 0.844629 0.065602 0.531318
vn 0.844629 0.065602 0.531318
vn 0.884499 0.3743 0.2785
vn 0.884499 0.3743 0.2785
vn 0.884499 0.3743 0.2785
vn 0.76977 0.341987 0.538979
vn 0.76977 0.341987 0.538979
vn 0.76977 0.341987 0.538979
vn 0.631693 0.590393 0.502394
vn 0.631693 0.590393 0.502394
vn 0.631693 0.590393 0.502394
vn 0.76977 0.341987 0.538979
vn 0.76977 0.341987 0.538979
vn 0.591782 0.281692 0.755277
vn 0.591782 0.281692 0.755277
vn 0.591782 0.281692 0.755277
vn 0.76977 0.341987 0.538979
vn 0.76977 0.341987 0.538979
vn 0.76977 0.341987 0.538979
vn -0.3415 -0.3979 -0.851501
vn -0.3415 -0.3979 -0.851501
vn -0.3415 -0.3979 -0.851501
vn -0.489395 -0.0342 -0.871391
vn -0.489395 -0.0342 -0.871391
vn -0.489395 -0.0342 -0.871391
vn -0.737208 0.177602 -0.651907
vn -0.737208 0.177602 -0.651907
vn -0.737208 0.177602 -0.651907
vn -0.940113 0.113802 -0.321304
vn -0.940113 0.113802 -0.321304
vn -0.940113 0.113802 -0.321304
vn -0.979331 -0.188706 -0.072802
vn -0.979331 -0.188706 -0.072802
vn -0.979331 -0.188706 -0.072802
vn -0.831476 -0.553084 -0.052399
vn -0.831476 -0.553084 -0.052399
vn -0.831476 -0.553084 -0.052399
vn -0.583103 -0.765404 -0.272301
vn -0.583103 -0.765404 -0.272301
vn -0.583103 -0.765404 -0.272301
vn -0.38011 -0.700918 -0.603515
vn -0.38011 -0.700918 -0.603515
vn -0.38011 -0.700918 -0.603515
vn -0.0183 0.64319 -0.765488
vn -0.0183 0.64319 -0.765488
vn -0.0183 0.64319 -0.765488
vn 0.164096 -0.049999 -0.985176
vn 0.164096 -0.049999 -0.985176
vn 0.164096 -0.049999 -0.985176
vn -0.2354 -0.645701 -0.726401
vn -0.2354 -0.645701 -0.726401
vn -0.2354 -0.645701 -0.726401
vn -0.2354 -0.645701 -0.726401
vn -0.453478 -0.890457 -0.037998
vn -0.453478 -0.890457 -0.037998
vn -0.453478 -0.890457 -0.037998
vn -0.453478 -0.890457 -0.037998
vn -0.362312 -0.64092 0.676721
vn -0.362312 -0.64092 0.676721
vn -0.362312 -0.64092 0.676721
vn -0.274808 -0.784923 0.555316
vn -0.274808 -0.784923 0.555316
vn -0.274808 -0.784923 0.555316
vn 0.311394 0.041299 0.949383
vn 0.311394 0.041299 0.949383
vn 0.311394 0.041299 0.949383
vn -0.015501 -0.043302 0.998942
vn -0.015501 -0.043302 0.998942
vn -0.015501 -0.043302 0.998942
vn 0.38389 0.552186 0.740081
vn 0.38389 0.552186 0.740081
vn 0.38389 0.552186 0.740081
vn 0.108701 0.974013 0.198703
vn 0.108701 0.974013 0.198703
vn 0.108701 0.974013 0.198703
vn 0.0147 0.868488 0.495493
vn 0.0147 0.868488 0.495493
vn 0.0147 0.868488 0.495493
vn 0.601892 0.796889 0.051899
vn 0.601892 0.796889 0.051899
vn 0.601892 0.796889 0.051899
vn 0.510914 0.547515 -0.662718
vn 0.510914 0.547515 -0.662718
vn 0.510914 0.547515 -0.662718
vn -0.175602 0.371904 -0.911511
vn -0.175602 0.371904 -0.911511
vn -0.175602 0.371904 -0.911511
vn 0.740022 0.137304 -0.658419
vn 0.740022 0.137304 -0.658419
vn 0.740022 0.137304 -0.658419
vn 0.027699 0.035699 -0.998979
vn 0.027699 0.035699 -0.998979
vn 0.027699 0.035699 -0.998979
vn -0.371086 -0.561278 -0.739772
vn -0.371086 -0.561278 -0.739772
vn -0.371086 -0.561278 -0.739772
vn -0.371086 -0.561278 -0.739772
vn -0.58931 -0.806314 -0.050701
vn -0.58931 -0.806314 -0.050701
vn -0.58931 -0.806314 -0.050701
vn -0.58931 -0.806314 -0.050701
vn -0.671143 -0.532334 0.515933
vn -0.671143 -0.532334 0.515933
vn -0.671143 -0.532334 0.515933
vn -0.49929 -0.555789 0.664687
vn -0.49929 -0.555789 0.664687
vn -0.49929 -0.555789 0.664687
vn -0.247995 0.389792 0.886883
vn -0.247995 0.389792 0.886883
vn -0.247995 0.389792 0.886883
vn -0.153695 0.043398 0.987165
vn -0.153695 0.043398 0.987165
vn -0.153695 0.043398 0.987165
vn 0.848807 0.460804 0.259202
vn 0.848807 0.460804 0.259202
vn 0.848807 0.460804 0.259202
vn 0.245095 0.640287 0.727985
vn 0.245095 0.640287 0.727985
vn 0.245095 0.640287 0.727985
vn 0.7592 0.3602 0.5421
vn 0.7592 0.3602 0.5421
vn 0.7592 0.3602 0.5421
vn 0.46332 0.885337 0.038902
vn 0.46332 0.885337 0.038902
vn 0.46332 0.885337 0.038902
vn 0.590696 -0.121499 -0.797694
vn 0.590696 -0.121499 -0.797694
vn 0.590696 -0.121499 -0.797694
vn 0.373306 0.63491 -0.676411
vn 0.373306 0.63491 -0.676411
vn 0.373306 0.63491 -0.676411
vn -0.661478 0.729976 -0.171994
vn -0.661478 0.729976 -0.171994
vn -0.661478 0.729976 -0.171994
vn -0.8432 0.4152 -0.3415
vn -0.8432 0.4152 -0.3415
vn -0.8432 0.4152 -0.3415
vn -0.844307 0.530004 -0.079001
vn -0.844307 0.530004 -0.079001
vn -0.844307 0.530004 -0.079001
vn -0.957864 0.286489 0.020499
vn -0.957864 0.286489 0.020499
vn -0.957864 0.286489 0.020499
vn -0.844307 0.530004 -0.079001
vn -0.844307 0.530004 -0.079001
vn -0.77615 0.601238 0.190012
vn -0.77615 0.601238 0.190012
vn -0.77615 0.601238 0.190012
vn -0.844307 0.530004 -0.079001
vn -0.844307 0.530004 -0.079001
vn -0.844307 0.530004 -0.079001
vn 0.771011 -0.456607 -0.443906
vn 0.771011 -0.456607 -0.443906
vn 0.771011 -0.456607 -0.443906
vn 0.565692 -0.76409 -0.310096
vn 0.565692 -0.76409 -0.310096
vn 0.565692 -0.76409 -0.310096
vn 0.453315 -0.890229 0.044701
vn 0.453315 -0.890229 0.044701
vn 0.453315 -0.890229 0.044701
vn 0.499488 -0.761382 0.41329
vn 0.499488 -0.761382 0.41329
vn 0.499488 -0.761382 0.41329
vn 0.6774 -0.4526 0.5799
vn 0.6774 -0.4526 0.5799
vn 0.6774 -0.4526 0.5799
vn 0.883052 -0.144492 0.446476
vn 0.883052 -0.144492 0.446476
vn 0.883052 -0.144492 0.446476
vn 0.995697 -0.018 0.0909
vn 0.995697 -0.018 0.0909
vn 0.995697 -0.018 0.0909
vn 0.949164 -0.147494 -0.278089
vn 0.949164 -0.147494 -0.278089
vn 0.949164 -0.147494 -0.278089
vn -0.788512 -0.276604 -0.549308
vn -0.788512 -0.276604 -0.549308
vn -0.788512 -0.276604 -0.549308
vn -0.231904 -0.0067 -0.972716
vn -0.231904 -0.0067 -0.972716
vn -0.231904 -0.0067 -0.972716
vn 0.484805 -0.232302 -0.843208
vn 0.484805 -0.232302 -0.843208
vn 0.484805 -0.232302 -0.843208
vn 0.484805 -0.232302 -0.843208
vn 0.934196 -0.273899 -0.228599
vn 0.934196 -0.273899 -0.228599
vn 0.934196 -0.273899 -0.228599
vn 0.934196 -0.273899 -0.228599
vn 0.852897 -0.107 0.510998
vn 0.852897 -0.107 0.510998
vn 0.852897 -0.107 0.510998
vn 0.938529 -0.016401 0.344811
vn 0.938529 -0.016401 0.344811
vn 0.938529 -0.016401 0.344811
vn 0.121094 0.461078 0.879058
vn 0.121094 0.461078 0.879058
vn 0.121094 0.461078 0.879058
vn 0.288704 0.170503 0.942114
vn 0.288704 0.170503 0.942114
vn 0.288704 0.170503 0.942114
vn -0.427885 0.395986 0.812471
vn -0.427885 0.395986 0.812471
vn -0.427885 0.395986 0.812471
vn -0.89368 -0.046499 0.44629
vn -0.89368 -0.046499 0.44629
vn -0.89368 -0.046499 0.44629
vn -0.699916 -0.064401 0.711316
vn -0.699916 -0.064401 0.711316
vn -0.699916 -0.064401 0.711316
vn -0.877138 0.437519 0.198009
vn -0.877138 0.437519 0.198009
vn -0.877138 0.437519 0.198009
vn -0.795997 0.270699 -0.541398
vn -0.795997 0.270699 -0.541398
vn -0.795997 0.270699 -0.541398
vn -0.532301 -0.402401 -0.744802
vn -0.532301 -0.402401 -0.744802
vn -0.532301 -0.402401 -0.744802
vn -0.461799 0.571299 -0.678498
vn -0.461799 0.571299 -0.678498
vn -0.461799 0.571299 -0.678498
vn -0.284312 -0.157306 -0.945739
vn -0.284312 -0.157306 -0.945739
vn -0.284312 -0.157306 -0.945739
vn 0.433527 -0.381824 -0.816251
vn 0.433527 -0.381824 -0.816251
vn 0.433527 -0.381824 -0.816251
vn 0.433527 -0.381824 -0.816251
vn 0.883372 -0.423386 -0.200994
vn 0.883372 -0.423386 -0.200994
vn 0.883372 -0.423386 -0.200994
vn 0.883372 -0.423386 -0.200994
vn 0.782958 -0.454375 0.424877
vn 0.782958 -0.454375 0.424877
vn 0.782958 -0.454375 0.424877
vn 0.801608 -0.257603 0.539505
vn 0.801608 -0.257603 0.539505
vn 0.801608 -0.257603 0.539505
vn -0.092697 -0.156796 0.983271
vn -0.092697 -0.156796 0.983271
vn -0.092697 -0.156796 0.983271
vn 0.236207 0.0184 0.971529
vn 0.236207 0.0184 0.971529
vn 0.236207 0.0184 0.971529
vn -0.567194 0.777092 0.272797
vn -0.567194 0.777092 0.272797
vn -0.567194 0.777092 0.272797
vn -0.4817 0.2429 0.842
vn -0.4817 0.2429 0.842
vn -0.4817 0.2429 0.842
vn -0.382509 0.760019 0.525413
vn -0.382509 0.760019 0.525413
vn -0.382509 0.760019 0.525413
vn -0.931467 0.28449 0.226792
vn -0.931467 0.28449 0.226792
vn -0.931467 0.28449 0.226792
vn -0.217603 0.452107 -0.865013
vn -0.217603 0.452107 -0.865013
vn -0.217603 0.452107 -0.865013
vn -0.849704 0.118801 -0.513702
vn -0.849704 0.118801 -0.513702
vn -0.849704 0.118801 -0.513702
vn -0.576008 -0.808911 0.117802
vn -0.576008 -0.808911 0.117802
vn -0.576008 -0.808911 0.117802
vn -0.27899 -0.954065 -0.109196
vn -0.27899 -0.954065 -0.109196
vn -0.27899 -0.954065 -0.109196
vn -0.322597 -0.930593 0.172999
vn -0.322597 -0.930593 0.172999
vn -0.322597 -0.930593 0.172999
vn -0.0427 -0.9759 0.214
vn -0.0427 -0.9759 0.214
vn -0.0427 -0.9759 0.214
vn -0.322597 -0.930593 0.172999
vn -0.322597 -0.930593 0.172999
vn -0.33971 -0.830725 0.441013
vn -0.33971 -0.830725 0.441013
vn -0.33971 -0.830725 0.441013
vn -0.322597 -0.930593 0.172999
vn -0.322597 -0.930593 0.172999
vn -0.322597 -0.930593 0.172999
vn 0.142608 0.75304 -0.642334
vn 0.142608 0.75304 -0.642334
vn 0.142608 0.75304 -0.642334
vn 0.512388 0.637486 -0.575387
vn 0.512388 0.637486 -0.575387
vn 0.512388 0.637486 -0.575387
vn 0.744004 0.616103 -0.258601
vn 0.744004 0.616103 -0.258601
vn 0.744004 0.616103 -0.258601
vn 0.702196 0.701296 0.122899
vn 0.702196 0.701296 0.122899
vn 0.702196 0.701296 0.122899
vn 0.41089 0.84348 0.345992
vn 0.41089 0.84348 0.345992
vn 0.41089 0.84348 0.345992
vn 0.0405 0.959292 0.279498
vn 0.0405 0.959292 0.279498
vn 0.0405 0.959292 0.279498
vn -0.191607 0.980736 -0.038001
vn -0.191607 0.980736 -0.038001
vn -0.191607 0.980736 -0.038001
vn -0.149105 0.895231 -0.419915
vn -0.149105 0.895231 -0.419915
vn -0.149105 0.895231 -0.419915
vn -0.825454 0.491932 -0.276818
vn -0.825454 0.491932 -0.276818
vn -0.825454 0.491932 -0.276818
vn -0.204703 0.803913 -0.558409
vn -0.204703 0.803913 -0.558409
vn -0.204703 0.803913 -0.558409
vn 0.331904 0.361705 -0.871211
vn 0.331904 0.361705 -0.871211
vn 0.331904 0.361705 -0.871211
vn 0.331904 0.361705 -0.871211
vn 0.710693 -0.262997 -0.652494
vn 0.710693 -0.262997 -0.652494
vn 0.710693 -0.262997 -0.652494
vn 0.710693 -0.262997 -0.652494
vn 0.709622 -0.703922 -0.030501
vn 0.709622 -0.703922 -0.030501
vn 0.709622 -0.703922 -0.030501
vn 0.827868 -0.550779 -0.106196
vn 0.827868 -0.550779 -0.106196
vn 0.827868 -0.550779 -0.106196
vn 0.311797 -0.436996 0.843692
vn 0.311797 -0.436996 0.843692
vn 0.311797 -0.436996 0.843692
vn 0.329493 -0.702885 0.630387
vn 0.329493 -0.702885 0.630387
vn 0.329493 -0.702885 0.630387
vn -0.206999 -0.260599 0.942995
vn -0.206999 -0.260599 0.942995
vn -0.206999 -0.260599 0.942995
vn -0.820485 -0.099798 0.56289
vn -0.820485 -0.099798 0.56289
vn -0.820485 -0.099798 0.56289
vn -0.657224 -0.369114 0.657124
vn -0.657224 -0.369114 0.657124
vn -0.657224 -0.369114 0.657124
vn -0.58559 0.363794 0.724388
vn -0.58559 0.363794 0.724388
vn -0.58559 0.363794 0.724388
vn -0.584717 0.804723 0.102603
vn -0.584717 0.804723 0.102603
vn -0.584717 0.804723 0.102603
vn -0.652771 0.491378 -0.576574
vn -0.652771 0.491378 -0.576574
vn -0.652771 0.491378 -0.576574
vn -0.150005 0.983232 0.103703
vn -0.150005 0.983232 0.103703
vn -0.150005 0.983232 0.103703
vn -0.319696 0.71199 -0.625192
vn -0.319696 0.71199 -0.625192
vn -0.319696 0.71199 -0.625192
vn 0.218393 0.269991 -0.937768
vn 0.218393 0.269991 -0.937768
vn 0.218393 0.269991 -0.937768
vn 0.218393 0.269991 -0.937768
vn 0.597567 -0.355181 -0.718861
vn 0.597567 -0.355181 -0.718861
vn 0.597567 -0.355181 -0.718861
vn 0.597567 -0.355181 -0.718861
vn 0.490611 -0.818618 -0.298607
vn 0.490611 -0.818618 -0.298607
vn 0.490611 -0.818618 -0.298607
vn 0.595613 -0.797417 -0.096802
vn 0.595613 -0.797417 -0.096802
vn 0.595613 -0.797417 -0.096802
vn -0.158797 -0.809883 0.564688
vn -0.158797 -0.809883 0.564688
vn -0.158797 -0.809883 0.564688
vn 0.213791 -0.797566 0.564076
vn 0.213791 -0.797566 0.564076
vn 0.213791 -0.797566 0.564076
vn -0.156006 0.411116 0.898135
vn -0.156006 0.411116 0.898135
vn -0.156006 0.411116 0.898135
vn -0.324292 -0.355591 0.876578
vn -0.324292 -0.355591 0.876578
vn -0.324292 -0.355591 0.876578
vn -0.0004 0.154401 0.988008
vn -0.0004 0.154401 0.988008
vn -0.0004 0.154401 0.988008
vn -0.703391 0.269597 0.657692
vn -0.703391 0.269597 0.657692
vn -0.703391 0.269597 0.657692
vn 0.014901 0.98324 -0.181707
vn 0.014901 0.98324 -0.181707
vn 0.014901 0.98324 -0.181707
vn -0.701487 0.711787 0.035699
vn -0.701487 0.711787 0.035699
vn -0.701487 0.711787 0.035699
vn -0.880133 -0.385814 -0.27661
vn -0.880133 -0.385814 -0.27661
vn -0.880133 -0.385814 -0.27661
vn -0.679617 -0.38581 -0.623916
vn -0.679617 -0.38581 -0.623916
vn -0.679617 -0.38581 -0.623916
vn -0.709387 -0.573589 -0.409592
vn -0.709387 -0.573589 -0.409592
vn -0.709387 -0.573589 -0.409592
vn -0.480403 -0.714304 -0.508903
vn -0.480403 -0.714304 -0.508903
vn -0.480403 -0.714304 -0.508903
vn -0.709387 -0.573589 -0.409592
vn -0.709387 -0.573589 -0.409592
vn -0.680912 -0.714313 -0.161603
vn -0.680912 -0.714313 -0.161603
vn -0.680912 -0.714313 -0.161603
vn -0.709387 -0.573589 -0.409592
vn -0.709387 -0.573589 -0.409592
vn -0.709387 -0.573589 -0.409592
vn 0.471115 0.880928 0.044901
vn 0.471115 0.880928 0.044901
vn 0.471115 0.880928 0.044901
vn 0.748337 0.653132 -0.115806
vn 0.748337 0.653132 -0.115806
vn 0.748337 0.653132 -0.115806
vn 0.943561 0.331186 -0.003
vn 0.943561 0.331186 -0.003
vn 0.943561 0.331186 -0.003
vn 0.942724 0.103203 0.317208
vn 0.942724 0.103203 0.317208
vn 0.942724 0.103203 0.317208
vn 0.74599 0.102699 0.657991
vn 0.74599 0.102699 0.657991
vn 0.74599 0.102699 0.657991
vn 0.46839 0.330493 0.819382
vn 0.46839 0.330493 0.819382
vn 0.46839 0.330493 0.819382
vn 0.272713 0.653131 0.706433
vn 0.272713 0.653131 0.706433
vn 0.272713 0.653131 0.706433
vn 0.274007 0.881124 0.38541
vn 0.274007 0.881124 0.38541
vn 0.274007 0.881124 0.38541
vt 0.8297 0.2484
vt 0.7331 0.5532
vt 0.8297 0.5532
vt 0.8297 0.2484
vt 0.7331 0.2484
vt 0.7331 0.5532
vt 0.7331 0.2484
vt 0.5 0.5532
vt 0.7331 0.5532
vt 0.5 0.2484
vt 0.5 0.2484
vt 0.2669 0.2484
vt 0.5 0.5532
vt 0.2669 0.5532
vt 0.2669 0.2484
vt 0.1703 0.2484
vt 0.2669 0.5532
vt 0.2669 0.5532
vt 0.1703 0.2484
vt 0.1703 0.5532
vt 0.1703 0.2484
vt 0.2669 0.5532
vt 0.1703 0.5532
vt 0.1703 0.2484
vt 0.2669 0.2484
vt 0.2669 0.5532
vt 0.2669 0.2484
vt 0.5 0.2484
vt 0.2669 0.5532
vt 0.2669 0.5532
vt 0.5 0.2484
vt 0.5 0.5532
vt 0.5 0.2484
vt 0.7331 0.5532
vt 0.5 0.5532
vt 0.5 0.2484
vt 0.7331 0.2484
vt 0.7331 0.5532
vt 0.7331 0.2484
vt 0.8297 0.2484
vt 0.7331 0.5532
vt 0.7331 0.5532
vt 0.8297 0.2484
vt 0.8297 0.5532
vt 0.8297 0.5532
vt 0.7331 0.5532
vt 0.7752 0.8193
vt 0.7752 0.8193
vt 0.7331 0.5532
vt 0.6912 0.8193
vt 0.7331 0.5532
vt 0.5 0.5532
vt 0.6912 0.8193
vt 0.4885 0.8193
vt 0.5 0.5532
vt 0.2858 0.8193
vt 0.4885 0.8193
vt 0.2669 0.5532
vt 0.2669 0.5532
vt 0.1703 0.5532
vt 0.2018 0.8193
vt 0.2858 0.8193
vt 0.2669 0.5532
vt 0.2018 0.8193
vt 0.1703 0.5532
vt 0.2669 0.5532
vt 0.2018 0.8193
vt 0.2018 0.8193
vt 0.2669 0.5532
vt 0.2858 0.8193
vt 0.2669 0.5532
vt 0.5 0.5532
vt 0.4885 0.8193
vt 0.2858 0.8193
vt 0.2669 0.5532
vt 0.4885 0.8193
vt 0.5 0.5532
vt 0.7331 0.5532
vt 0.4885 0.8193
vt 0.4885 0.8193
vt 0.7331 0.5532
vt 0.6912 0.8193
vt 0.7331 0.5532
vt 0.8297 0.5532
vt 0.7752 0.8193
vt 0.6912 0.8193
vt 0.7331 0.5532
vt 0.7752 0.8193
vt 0.4997 0.509
vt 0.1766 0.509
vt 0.4997 0.2286
vt 0.4997 0.509
vt 0.4997 0.2286
vt 0.8228 0.509
vt 0.4997 0.7894
vt 0.8228 0.509
vt 0.7282 0.7072
vt 0.4997 0.509
vt 0.8228 0.509
vt 0.4997 0.7894
vt 0.1766 0.509
vt 0.2712 0.7072
vt 0.4997 0.509
vt 0.4997 0.7894
vt 0.1766 0.509
vt 0.4997 0.2286
vt 0.2712 0.3107
vt 0.7282 0.3107
vt 0.8245 0.7575
vt 0.6898 0.9012
vt 0.3432 0.9047
vt 0.898 0.5341
vt 0.8245 0.7575
vt 0.2044 0.7854
vt 0.898 0.5341
vt 0.2126 0.2933
vt 0.8 0.2863
vt 0.8 0.2863
vt 0.3391 0.1391
vt 0.6898 0.1252
vt 0.1999 0.3072
vt 0.6898 0.1252
vt 0.3391 0.1391
vt 0.1999 0.3072
vt 0.882 0.5376
vt 0.0938 0.5446
vt 0.1999 0.7819
vt 0.0938 0.5446
vt 0.882 0.5376
vt 0.1999 0.7819
vt 0.3432 0.9047
vt 0.6898 0.9012
vt 0.8297 0.2484
vt 0.7331 0.5532
vt 0.8297 0.5532
vt 0.8297 0.2484
vt 0.7331 0.2484
vt 0.7331 0.5532
vt 0.7331 0.2484
vt 0.5 0.5532
vt 0.7331 0.5532
vt 0.5 0.2484
vt 0.5 0.2484
vt 0.2669 0.2484
vt 0.5 0.5532
vt 0.2669 0.5532
vt 0.2669 0.2484
vt 0.1703 0.2484
vt 0.2669 0.5532
vt 0.2669 0.5532
vt 0.1703 0.2484
vt 0.1703 0.5532
vt 0.1703 0.2484
vt 0.2669 0.5532
vt 0.1703 0.5532
vt 0.1703 0.2484
vt 0.2669 0.2484
vt 0.2669 0.5532
vt 0.2669 0.2484
vt 0.5 0.2484
vt 0.2669 0.5532
vt 0.2669 0.5532
vt 0.5 0.2484
vt 0.5 0.5532
vt 0.5 0.2484
vt 0.7331 0.5532
vt 0.5 0.5532
vt 0.5 0.2484
vt 0.7331 0.2484
vt 0.7331 0.5532
vt 0.7331 0.2484
vt 0.8297 0.2484
vt 0.7331 0.5532
vt 0.7331 0.5532
vt 0.8297 0.2484
vt 0.8297 0.5532
vt 0.8297 0.5532
vt 0.7331 0.5532
vt 0.7752 0.8193
vt 0.7752 0.8193
vt 0.7331 0.5532
vt 0.6912 0.8193
vt 0.7331 0.5532
vt 0.5 0.5532
vt 0.6912 0.8193
vt 0.4885 0.8193
vt 0.5 0.5532
vt 0.2858 0.8193
vt 0.4885 0.8193
vt 0.2669 0.5532
vt 0.2669 0.5532
vt 0.1703 0.5532
vt 0.2018 0.8193
vt 0.2858 0.8193
vt 0.2669 0.5532
vt 0.2018 0.8193
vt 0.1703 0.5532
vt 0.2669 0.5532
vt 0.2018 0.8193
vt 0.2018 0.8193
vt 0.2669 0.5532
vt 0.2858 0.8193
vt 0.2669 0.5532
vt 0.5 0.5532
vt 0.4885 0.8193
vt 0.2858 0.8193
vt 0.2669 0.5532
vt 0.4885 0.8193
vt 0.5 0.5532
vt 0.7331 0.5532
vt 0.4885 0.8193
vt 0.4885 0.8193
vt 0.7331 0.5532
vt 0.6912 0.8193
vt 0.7331 0.5532
vt 0.8297 0.5532
vt 0.7752 0.8193
vt 0.6912 0.8193
vt 0.7331 0.5532
vt 0.7752 0.8193
vt 0.4997 0.509
vt 0.1766 0.509
vt 0.4997 0.2286
vt 0.4997 0.509
vt 0.4997 0.2286
vt 0.8228 0.509
vt 0.4997 0.7894
vt 0.8228 0.509
vt 0.7282 0.7072
vt 0.4997 0.509
vt 0.8228 0.509
vt 0.4997 0.7894
vt 0.1766 0.509
vt 0.2712 0.7072
vt 0.4997 0.509
vt 0.4997 0.7894
vt 0.1766 0.509
vt 0.4997 0.2286
vt 0.2712 0.3107
vt 0.7282 0.3107
vt 0.8245 0.7575
vt 0.6898 0.9012
vt 0.3432 0.9047
vt 0.898 0.5341
vt 0.8245 0.7575
vt 0.2044 0.7854
vt 0.898 0.5341
vt 0.2126 0.2933
vt 0.8 0.2863
vt 0.8 0.2863
vt 0.3391 0.1391
vt 0.6898 0.1252
vt 0.1999 0.3072
vt 0.6898 0.1252
vt 0.3391 0.1391
vt 0.1999 0.3072
vt 0.882 0.5376
vt 0.0938 0.5446
vt 0.1999 0.7819
vt 0.0938 0.5446
vt 0.882 0.5376
vt 0.1999 0.7819
vt 0.3432 0.9047
vt 0.6898 0.9012
vt 0.8297 0.2484
vt 0.7331 0.5532
vt 0.8297 0.5532
vt 0.8297 0.2484
vt 0.7331 0.2484
vt 0.7331 0.5532
vt 0.7331 0.2484
vt 0.5 0.5532
vt 0.7331 0.5532
vt 0.5 0.2484
vt 0.5 0.2484
vt 0.2669 0.2484
vt 0.5 0.5532
vt 0.2669 0.5532
vt 0.2669 0.2484
vt 0.1703 0.2484
vt 0.2669 0.5532
vt 0.2669 0.5532
vt 0.1703 0.2484
vt 0.1703 0.5532
vt 0.1703 0.2484
vt 0.2669 0.5532
vt 0.1703 0.5532
vt 0.1703 0.2484
vt 0.2669 0.2484
vt 0.2669 0.5532
vt 0.2669 0.2484
vt 0.5 0.2484
vt 0.2669 0.5532
vt 0.2669 0.5532
vt 0.5 0.2484
vt 0.5 0.5532
vt 0.5 0.2484
vt 0.7331 0.5532
vt 0.5 0.5532
vt 0.5 0.2484
vt 0.7331 0.2484
vt 0.7331 0.5532
vt 0.7331 0.2484
vt 0.8297 0.2484
vt 0.7331 0.5532
vt 0.7331 0.5532
vt 0.8297 0.2484
vt 0.8297 0.5532
vt 0.8297 0.5532
vt 0.7331 0.5532
vt 0.7752 0.8193
vt 0.7752 0.8193
vt 0.7331 0.5532
vt 0.6912 0.8193
vt 0.7331 0.5532
vt 0.5 0.5532
vt 0.6912 0.8193
vt 0.4885 0.8193
vt 0.5 0.5532
vt 0.2858 0.8193
vt 0.4885 0.8193
vt 0.2669 0.5532
vt 0.2669 0.5532
vt 0.1703 0.5532
vt 0.2018 0.8193
vt 0.2858 0.8193
vt 0.2669 0.5532
vt 0.2018 0.8193
vt 0.1703 0.5532
vt 0.2669 0.5532
vt 0.2018 0.8193
vt 0.2018 0.8193
vt 0.2669 0.5532
vt 0.2858 0.8193
vt 0.2669 0.5532
vt 0.5 0.5532
vt 0.4885 0.8193
vt 0.2858 0.8193
vt 0.2669 0.5532
vt 0.4885 0.8193
vt 0.5 0.5532
vt 0.7331 0.5532
vt 0.4885 0.8193
vt 0.4885 0.8193
vt 0.7331 0.5532
vt 0.6912 0.8193
vt 0.7331 0.5532
vt 0.8297 0.5532
vt 0.7752 0.8193
vt 0.6912 0.8193
vt 0.7331 0.5532
vt 0.7752 0.8193
vt 0.4997 0.509
vt 0.1766 0.509
vt 0.4997 0.2286
vt 0.4997 0.509
vt 0.4997 0.2286
vt 0.8228 0.509
vt 0.4997 0.7894
vt 0.8228 0.509
vt 0.7282 0.7072
vt 0.4997 0.509
vt 0.8228 0.509
vt 0.4997 0.7894
vt 0.1766 0.509
vt 0.2712 0.7072
vt 0.4997 0.509
vt 0.4997 0.7894
vt 0.1766 0.509
vt 0.4997 0.2286
vt 0.2712 0.3107
vt 0.7282 0.3107
vt 0.8245 0.7575
vt 0.6898 0.9012
vt 0.3432 0.9047
vt 0.898 0.5341
vt 0.8245 0.7575
vt 0.2044 0.7854
vt 0.898 0.5341
vt 0.2126 0.2933
vt 0.8 0.2863
vt 0.8 0.2863
vt 0.3391 0.1391
vt 0.6898 0.1252
vt 0.1999 0.3072
vt 0.6898 0.1252
vt 0.3391 0.1391
vt 0.1999 0.3072
vt 0.882 0.5376
vt 0.0938 0.5446
vt 0.1999 0.7819
vt 0.0938 0.5446
vt 0.882 0.5376
vt 0.1999 0.7819
vt 0.3432 0.9047
vt 0.6898 0.9012
vt 0.8297 0.2484
vt 0.7331 0.5532
vt 0.8297 0.5532
vt 0.8297 0.2484
vt 0.7331 0.2484
vt 0.7331 0.5532
vt 0.7331 0.2484
vt 0.5 0.5532
vt 0.7331 0.5532
vt 0.5 0.2484
vt 0.5 0.2484
vt 0.2669 0.2484
vt 0.5 0.5532
vt 0.2669 0.5532
vt 0.2669 0.2484
vt 0.1703 0.2484
vt 0.2669 0.5532
vt 0.2669 0.5532
vt 0.1703 0.2484
vt 0.1703 0.5532
vt 0.1703 0.2484
vt 0.2669 0.5532
vt 0.1703 0.5532
vt 0.1703 0.2484
vt 0.2669 0.2484
vt 0.2669 0.5532
vt 0.2669 0.2484
vt 0.5 0.2484
vt 0.2669 0.5532
vt 0.2669 0.5532
vt 0.5 0.2484
vt 0.5 0.5532
vt 0.5 0.2484
vt 0.7331 0.5532
vt 0.5 0.5532
vt 0.5 0.2484
vt 0.7331 0.2484
vt 0.7331 0.5532
vt 0.7331 0.2484
vt 0.8297 0.2484
vt 0.7331 0.5532
vt 0.7331 0.5532
vt 0.8297 0.2484
vt 0.8297 0.5532
vt 0.8297 0.5532
vt 0.7331 0.5532
vt 0.7752 0.8193
vt 0.7752 0.8193
vt 0.7331 0.5532
vt 0.6912 0.8193
vt 0.7331 0.5532
vt 0.5 0.5532
vt 0.6912 0.8193
vt 0.4885 0.8193
vt 0.5 0.5532
vt 0.2858 0.8193
vt 0.4885 0.8193
vt 0.2669 0.5532
vt 0.2669 0.5532
vt 0.1703 0.5532
vt 0.2018 0.8193
vt 0.2858 0.8193
vt 0.2669 0.5532
vt 0.2018 0.8193
vt 0.1703 0.5532
vt 0.2669 0.5532
vt 0.2018 0.8193
vt 0.2018 0.8193
vt 0.2669 0.5532
vt 0.2858 0.8193
vt 0.2669 0.5532
vt 0.5 0.5532
vt 0.4885 0.8193
vt 0.2858 0.8193
vt 0.2669 0.5532
vt 0.4885 0.8193
vt 0.5 0.5532
vt 0.7331 0.5532
vt 0.4885 0.8193
vt 0.4885 0.8193
vt 0.7331 0.5532
vt 0.6912 0.8193
vt 0.7331 0.5532
vt 0.8297 0.5532
vt 0.7752 0.8193
vt 0.6912 0.8193
vt 0.7331 0.5532
vt 0.7752 0.8193
vt 0.4997 0.509
vt 0.1766 0.509
vt 0.4997 0.2286
vt 0.4997 0.509
vt 0.4997 0.2286
vt 0.8228 0.509
vt 0.4997 0.7894
vt 0.8228 0.509
vt 0.7282 0.7072
vt 0.4997 0.509
vt 0.8228 0.509
vt 0.4997 0.7894
vt 0.1766 0.509
vt 0.2712 0.7072
vt 0.4997 0.509
vt 0.4997 0.7894
vt 0.1766 0.509
vt 0.4997 0.2286
vt 0.2712 0.3107
vt 0.7282 0.3107
vt 0.8245 0.7575
vt 0.6898 0.9012
vt 0.3432 0.9047
vt 0.898 0.5341
vt 0.8245 0.7575
vt 0.2044 0.7854
vt 0.898 0.5341
vt 0.2126 0.2933
vt 0.8 0.2863
vt 0.8 0.2863
vt 0.3391 0.1391
vt 0.6898 0.1252
vt 0.1999 0.3072
vt 0.6898 0.1252
vt 0.3391 0.1391
vt 0.1999 0.3072
vt 0.882 0.5376
vt 0.0938 0.5446
vt 0.1999 0.7819
vt 0.0938 0.5446
vt 0.882 0.5376
vt 0.1999 0.7819
vt 0.3432 0.9047
vt 0.6898 0.9012
vt 0.8297 0.2484
vt 0.7331 0.5532
vt 0.8297 0.5532
vt 0.8297 0.2484
vt 0.7331 0.2484
vt 0.7331 0.5532
vt 0.7331 0.2484
vt 0.5 0.5532
vt 0.7331 0.5532
vt 0.5 0.2484
vt 0.5 0.2484
vt 0.2669 0.2484
vt 0.5 0.5532
vt 0.2669 0.5532
vt 0.2669 0.2484
vt 0.1703 0.2484
vt 0.2669 0.5532
vt 0.2669 0.5532
vt 0.1703 0.2484
vt 0.1703 0.5532
vt 0.1703 0.2484
vt 0.2669 0.5532
vt 0.1703 0.5532
vt 0.1703 0.2484
vt 0.2669 0.2484
vt 0.2669 0.5532
vt 0.2669 0.2484
vt 0.5 0.2484
vt 0.2669 0.5532
vt 0.2669 0.5532
vt 0.5 0.2484
vt 0.5 0.5532
vt 0.5 0.2484
vt 0.7331 0.5532
vt 0.5 0.5532
vt 0.5 0.2484
vt 0.7331 0.2484
vt 0.7331 0.5532
vt 0.7331 0.2484
vt 0.8297 0.2484
vt 0.7331 0.5532
vt 0.7331 0.5532
vt 0.8297 0.2484
vt 0.8297 0.5532
vt 0.8297 0.5532
vt 0.7331 0.5532
vt 0.7752 0.8193
vt 0.7752 0.8193
vt 0.7331 0.5532
vt 0.6912 0.8193
vt 0.7331 0.5532
vt 0.5 0.5532
vt 0.6912 0.8193
vt 0.4885 0.8193
vt 0.5 0.5532
vt 0.2858 0.8193
vt 0.4885 0.8193
vt 0.2669 0.5532
vt 0.2669 0.5532
vt 0.1703 0.5532
vt 0.2018 0.8193
vt 0.2858 0.8193
vt 0.2669 0.5532
vt 0.2018 0.8193
vt 0.1703 0.5532
vt 0.2669 0.5532
vt 0.2018 0.8193
vt 0.2018 0.8193
vt 0.2669 0.5532
vt 0.2858 0.8193
vt 0.2669 0.5532
vt 0.5 0.5532
vt 0.4885 0.8193
vt 0.2858 0.8193
vt 0.2669 0.5532
vt 0.4885 0.8193
vt 0.5 0.5532
vt 0.7331 0.5532
vt 0.4885 0.8193
vt 0.4885 0.8193
vt 0.7331 0.5532
vt 0.6912 0.8193
vt 0.7331 0.5532
vt 0.8297 0.5532
vt 0.7752 0.8193
vt 0.6912 0.8193
vt 0.7331 0.5532
vt 0.7752 0.8193
vt 0.4997 0.509
vt 0.1766 0.509
vt 0.4997 0.2286
vt 0.4997 0.509
vt 0.4997 0.2286
vt 0.8228 0.509
vt 0.4997 0.7894
vt 0.8228 0.509
vt 0.7282 0.7072
vt 0.4997 0.509
vt 0.8228 0.509
vt 0.4997 0.7894
vt 0.1766 0.509
vt 0.2712 0.7072
vt 0.4997 0.509
vt 0.4997 0.7894
vt 0.1766 0.509
vt 0.4997 0.2286
vt 0.2712 0.3107
vt 0.7282 0.3107
vt 0.8245 0.7575
vt 0.6898 0.9012
vt 0.3432 0.9047
vt 0.898 0.5341
vt 0.8245 0.7575
vt 0.2044 0.7854
vt 0.898 0.5341
vt 0.2126 0.2933
vt 0.8 0.2863
vt 0.8 0.2863
vt 0.3391 0.1391
vt 0.6898 0.1252
vt 0.1999 0.3072
vt 0.6898 0.1252
vt 0.3391 0.1391
vt 0.1999 0.3072
vt 0.882 0.5376
vt 0.0938 0.5446
vt 0.1999 0.7819
vt 0.0938 0.5446
vt 0.882 0.5376
vt 0.1999 0.7819
vt 0.3432 0.9047
vt 0.6898 0.9012
f 1/1/1 3/3/3 2/2/2
f 4/4/4 6/6/6 5/5/5
f 7/7/7 9/9/9 8/8/8
f 7/7/7 8/8/8 10/10/10
f 11/11/11 13/13/13 12/12/12
f 13/13/13 14/14/14 12/12/12
f 15/15/15 17/17/17 16/16/16
f 18/18/18 20/20/20 19/19/19
f 21/21/21 23/23/23 22/22/22
f 24/24/24 26/26/26 25/25/25
f 27/27/27 29/29/29 28/28/28
f 30/30/30 32/32/32 31/31/31
f 33/33/33 35/35/35 34/34/34
f 36/36/36 38/38/38 37/37/37
f 39/39/39 41/41/41 40/40/40
f 42/42/42 44/44/44 43/43/43
f 45/45/45 47/47/47 46/46/46
f 48/48/48 50/50/50 49/49/49
f 51/51/51 53/53/53 52/52/52
f 53/53/53 54/54/54 52/52/52
f 55/55/55 57/57/57 56/56/56
f 55/55/55 56/56/56 58/58/58
f 59/59/59 61/61/61 60/60/60
f 62/62/62 64/64/64 63/63/63
f 65/65/65 67/67/67 66/66/66
f 68/68/68 70/70/70 69/69/69
f 71/71/71 73/73/73 72/72/72
f 74/74/74 76/76/76 75/75/75
f 77/77/77 79/79/79 78/78/78
f 80/80/80 82/82/82 81/81/81
f 83/83/83 85/85/85 84/84/84
f 86/86/86 88/88/88 87/87/87
f 89/89/89 91/91/91 90/90/90
f 92/92/92 94/94/94 93/93/93
f 95/95/95 97/97/97 96/96/96
f 98/98/98 100/100/100 99/99/99
f 101/101/101 102/102/102 95/95/95
f 103/103/103 105/105/105 104/104/104
f 106/106/106 107/107/107 101/101/101
f 108/108/108 106/106/106 96/96/96
f 109/109/109 111/111/111 110/110/110
f 112/112/112 114/114/114 113/113/113
f 115/115/115 117/117/117 116/116/116
f 118/118/118 120/120/120 119/119/119
f 121/121/121 123/123/123 122/122/122
f 124/124/124 126/126/126 125/125/125
f 127/127/127 129/129/129 128/128/128
f 130/130/130 132/132/132 131/131/131
f 133/133/133 135/135/135 134/134/134
f 136/136/136 138/138/138 137/137/137
f 139/139/139 141/141/141 140/140/140
f 139/139/139 140/140/140 142/142/142
f 143/143/143 145/145/145 144/144/144
f 145/145/145 146/146/146 144/144/144
f 147/147/147 149/149/149 148/148/148
f 150/150/150 152/152/152 151/151/151
f 153/153/153 155/155/155 154/154/154
f 156/156/156 158/158/158 157/157/157
f 159/159/159 161/161/161 160/160/160
f 162/162/162 164/164/164 163/163/163
f 165/165/165 167/167/167 166/166/166
f 168/168/168 170/170/170 169/169/169
f 171/171/171 173/173/173 172/172/172
f 174/174/174 176/176/176 175/175/175
f 177/177/177 179/179/179 178/178/178
f 180/180/180 182/182/182 181/181/181
f 183/183/183 185/185/185 184/184/184
f 185/185/185 186/186/186 184/184/184
f 187/187/187 189/189/189 188/188/188
f 187/187/187 188/188/188 190/190/190
f 191/191/191 193/193/193 192/192/192
f 194/194/194 196/196/196 195/195/195
f 197/197/197 199/199/199 198/198/198
f 200/200/200 202/202/202 201/201/201
f 203/203/203 205/205/205 204/204/204
f 206/206/206 208/208/208 207/207/207
f 209/209/209 211/211/211 210/210/210
f 212/212/212 214/214/214 213/213/213
f 215/215/215 217/217/217 216/216/216
f 218/218/218 220/220/220 219/219/219
f 221/221/221 223/223/223 222/222/222
f 224/224/224 226/226/226 225/225/225
f 227/227/227 229/229/229 228/228/228
f 230/230/230 232/232/232 231/231/231
f 233/233/233 234/234/234 227/227/227
f 235/235/235 237/237/237 236/236/236
f 238/238/238 239/239/239 233/233/233
f 240/240/240 238/238/238 228/228/228
f 241/241/241 243/243/243 242/242/242
f 244/244/244 246/246/246 245/245/245
f 247/247/247 249/249/249 248/248/248
f 250/250/250 252/252/252 251/251/251
f 253/253/253 255/255/255 254/254/254
f 256/256/256 258/258/258 257/257/257
f 259/259/259 261/261/261 260/260/260
f 262/262/262 264/264/264 263/263/263
f 265/265/265 267/267/267 266/266/266
f 268/268/268 270/270/270 269/269/269
f 271/271/271 273/273/273 272/272/272
f 271/271/271 272/272/272 274/274/274
f 275/275/275 277/277/277 276/276/276
f 277/277/277 278/278/278 276/276/276
f 279/279/279 281/281/281 280/280/280
f 282/282/282 284/284/284 283/283/283
f 285/285/285 287/287/287 286/286/286
f 288/288/288 290/290/290 289/289/289
f 291/291/291 293/293/293 292/292/292
f 294/294/294 296/296/296 295/295/295
f 297/297/297 299/299/299 298/298/298
f 300/300/300 302/302/302 301/301/301
f 303/303/303 305/305/305 304/304/304
f 306/306/306 308/308/308 307/307/307
f 309/309/309 311/311/311 310/310/310
f 312/312/312 314/314/314 313/313/313
f 315/315/315 317/317/317 316/316/316
f 317/317/317 318/318/318 316/316/316
f 319/319/319 321/321/321 320/320/320
f 319/319/319 320/320/320 322/322/322
f 323/323/323 325/325/325 324/324/324
f 326/326/326 328/328/328 327/327/327
f 329/329/329 331/331/331 330/330/330
f 332/332/332 334/334/334 333/333/333
f 335/335/335 337/337/337 336/336/336
f 338/338/338 340/340/340 339/339/339
f 341/341/341 343/343/343 342/342/342
f 344/344/344 346/346/346 345/345/345
f 347/347/347 349/349/349 348/348/348
f 350/350/350 352/352/352 351/351/351
f 353/353/353 355/355/355 354/354/354
f 356/356/356 358/358/358 357/357/357
f 359/359/359 361/361/361 360/360/360
f 362/362/362 364/364/364 363/363/363
f 365/365/365 366/366/366 359/359/359
f 367/367/367 369/369/369 368/368/368
f 370/370/370 371/371/371 365/365/365
f 372/372/372 370/370/370 360/360/360
f 373/373/373 375/375/375 374/374/374
f 376/376/376 378/378/378 377/377/377
f 379/379/379 381/381/381 380/380/380
f 382/382/382 384/384/384 383/383/383
f 385/385/385 387/387/387 386/386/386
f 388/388/388 390/390/390 389/389/389
f 391/391/391 393/393/393 392/392/392
f 394/394/394 396/396/396 395/395/395
f 397/397/397 399/399/399 398/398/398
f 400/400/400 402/402/402 401/401/401
f 403/403/403 405/405/405 404/404/404
f 403/403/403 404/404/404 406/406/406
f 407/407/407 409/409/409 408/408/408
f 409/409/409 410/410/410 408/408/408
f 411/411/411 413/413/413 412/412/412
f 414/414/414 416/416/416 415/415/415
f 417/417/417 419/419/419 418/418/418
f 420/420/420 422/422/422 421/421/421
f 423/423/423 425/425/425 424/424/424
f 426/426/426 428/428/428 427/427/427
f 429/429/429 431/431/431 430/430/430
f 432/432/432 434/434/434 433/433/433
f 435/435/435 437/437/437 436/436/436
f 438/438/438 440/440/440 439/439/439
f 441/441/441 443/443/443 442/442/442
f 444/444/444 446/446/446 445/445/445
f 447/447/447 449/449/449 448/448/448
f 449/449/449 450/450/450 448/448/448
f 451/451/451 453/453/453 452/452/452
f 451/451/451 452/452/452 454/454/454
f 455/455/455 457/457/457 456/456/456
f 458/458/458 460/460/460 459/459/459
f 461/461/461 463/463/463 462/462/462
f 464/464/464 466/466/466 465/465/465
f 467/467/467 469/469/469 468/468/468
f 470/470/470 472/472/472 471/471/471
f 473/473/473 475/475/475 474/474/474
f 476/476/476 478/478/478 477/477/477
f 479/479/479 481/481/481 480/480/480
f 482/482/482 484/484/484 483/483/483
f 485/485/485 487/487/487 486/486/486
f 488/488/488 490/490/490 489/489/489
f 491/491/491 493/493/493 492/492/492
f 494/494/494 496/496/496 495/495/495
f 497/497/497 498/498/498 491/491/491
f 499/499/499 501/501/501 500/500/500
f 502/502/502 503/503/503 497/497/497
f 504/504/504 502/502/502 492/492/492
f 505/505/505 507/507/507 506/506/506
f 508/508/508 510/510/510 509/509/509
f 511/511/511 513/513/513 512/512/512
f 514/514/514 516/516/516 515/515/515
f 517/517/517 519/519/519 518/518/518
f 520/520/520 522/522/522 521/521/521
f 523/523/523 525/525/525 524/524/524
f 526/526/526 528/528/528 527/527/527
f 529/529/529 531/531/531 530/530/530
f 532/532/532 534/534/534 533/533/533
f 535/535/535 537/537/537 536/536/536
f 535/535/535 536/536/536 538/538/538
f 539/539/539 541/541/541 540/540/540
f 541/541/541 542/542/542 540/540/540
f 543/543/543 545/545/545 544/544/544
f 546/546/546 548/548/548 547/547/547
f 549/549/549 551/551/551 550/550/550
f 552/552/552 554/554/554 553/553/553
f 555/555/555 557/557/557 556/556/556
f 558/558/558 560/560/560 559/559/559
f 561/561/561 563/563/563 562/562/562
f 564/564/564 566/566/566 565/565/565
f 567/567/567 569/569/569 568/568/568
f 570/570/570 572/572/572 571/571/571
f 573/573/573 575/575/575 574/574/574
f 576/576/576 578/578/578 577/577/577
f 579/579/579 581/581/581 580/580/580
f 581/581/581 582/582/582 580/580/580
f 583/583/583 585/585/585 584/584/584
f 583/583/583 584/584/584 586/586/586
f 587/587/587 589/589/589 588/588/588
f 590/590/590 592/592/592 591/591/591
f 593/593/593 595/595/595 594/594/594
f 596/596/596 598/598/598 597/597/597
f 599/599/599 601/601/601 600/600/600
f 602/602/602 604/604/604 603/603/603
f 605/605/605 607/607/607 606/606/606
f 608/608/608 610/610/610 609/609/609
f 611/611/611 613/613/613 612/612/612
f 614/614/614 616/616/616 615/615/615
f 617/617/617 619/619/619 618/618/618
f 620/620/620 622/622/622 621/621/621
f 623/623/623 625/625/625 624/624/624
f 626/626/626 628/628/628 627/627/627
f 629/629/629 630/630/630 623/623/623
f 631/631/631 633/633/633 632/632/632
f 634/634/634 635/635/635 629/629/629
f 636/636/636 634/634/634 624/624/624
f 637/637/637 639/639/639 638/638/638
f 640/640/640 642/642/642 641/641/641
f 643/643/643 645/645/645 644/644/644
f 646/646/646 648/648/648 647/647/647
f 649/649/649 651/651/651 650/650/650
f 652/652/652 654/654/654 653/653/653
f 655/655/655 657/657/657 656/656/656
f 658/658/658 660/660/660 659/659/659
