# Object51.bmd — MU geometry at action 0 key 0, exported for MU2
# 3 mesh(es)

g bookshelf
# texture: bookshelf.jpg
v 73.1959 193.2791 22.5345
v 79.8701 193.2791 22.5345
v 79.8701 193.2791 -23.8942
v 73.1959 193.2791 -23.8942
v 73.1959 0.0019 22.5345
v 79.8701 0.0019 22.5345
v 79.8701 193.2791 22.5345
v 73.1959 193.2791 22.5345
v 79.8701 0.0019 22.5345
v 79.8701 0.0019 -23.8942
v 79.8701 193.2791 -23.8942
v 79.8701 193.2791 22.5345
v 79.8701 0.0019 -23.8942
v 73.1959 0.0019 -23.8942
v 73.1959 193.2791 -23.8942
v 79.8701 193.2791 -23.8942
v 73.1959 0.0019 -23.8942
v 73.1959 0.0019 22.5345
v 73.1959 193.2791 22.5345
v 73.1959 193.2791 -23.8942
v -73.6349 139.0842 19.3426
v 73.1959 139.0842 19.3426
v 73.1959 139.0842 -20.7022
v -73.6349 139.0842 -20.7022
v -73.6349 132.4101 19.3426
v 73.1959 132.4101 19.3426
v 73.1959 139.0842 19.3426
v -73.6349 139.0842 19.3426
v 73.1959 132.4101 -20.7022
v -73.6349 132.4101 -20.7022
v -73.6349 139.0842 -20.7022
v 73.1959 139.0842 -20.7022
v -73.6349 53.8707 19.3426
v 73.1959 53.8707 19.3426
v 73.1959 53.8707 -20.7022
v -73.6349 53.8707 -20.7022
v -73.6349 47.1966 19.3426
v 73.1959 47.1966 19.3426
v 73.1959 53.8707 19.3426
v -73.6349 53.8707 19.3426
v 73.1959 47.1966 -20.7022
v -73.6349 47.1966 -20.7022
v -73.6349 53.8707 -20.7022
v 73.1959 53.8707 -20.7022
v -80.3091 193.2791 22.5345
v -73.6349 193.2791 22.5345
v -73.6349 193.2791 -23.8942
v -80.3091 193.2791 -23.8942
v -80.3091 0.0019 22.5345
v -73.6349 0.0019 22.5345
v -73.6349 193.2791 22.5345
v -80.3091 193.2791 22.5345
v -73.6349 0.0019 22.5345
v -73.6349 0.0019 -23.8942
v -73.6349 193.2791 -23.8942
v -73.6349 193.2791 22.5345
v -73.6349 0.0019 -23.8942
v -80.3091 0.0019 -23.8942
v -80.3091 193.2791 -23.8942
v -73.6349 193.2791 -23.8942
v -80.3091 0.0019 -23.8942
v -80.3091 0.0019 22.5345
v -80.3091 193.2791 22.5345
v -80.3091 193.2791 -23.8942
vn 0 1 -0
vn 0 1 -0
vn 0 1 -0
vn 0 1 -0
vn 0 0 1
vn 0 0 1
vn 0 0 1
vn 0 0 1
vn 1 0 -0
vn 1 0 -0
vn 1 0 -0
vn 1 0 -0
vn 0 0 -1
vn 0 0 -1
vn 0 0 -1
vn 0 0 -1
vn -1 0 -0
vn -1 0 -0
vn -1 0 -0
vn -1 0 -0
vn 0 1 -0
vn 0 1 -0
vn 0 1 -0
vn 0 1 -0
vn 0 0 1
vn 0 0 1
vn 0 0 1
vn 0 0 1
vn 0 0 -1
vn 0 0 -1
vn 0 0 -1
vn 0 0 -1
vn 0 1 -0
vn 0 1 -0
vn 0 1 -0
vn 0 1 -0
vn 0 0 1
vn 0 0 1
vn 0 0 1
vn 0 0 1
vn 0 0 -1
vn 0 0 -1
vn 0 0 -1
vn 0 0 -1
vn 0 1 -0
vn 0 1 -0
vn 0 1 -0
vn 0 1 -0
vn 0 0 1
vn 0 0 1
vn 0 0 1
vn 0 0 1
vn 1 0 -0
vn 1 0 -0
vn 1 0 -0
vn 1 0 -0
vn 0 0 -1
vn 0 0 -1
vn 0 0 -1
vn 0 0 -1
vn -1 0 -0
vn -1 0 -0
vn -1 0 -0
vn -1 0 -0
vt 0.0327 0.956
vt 0.0367 0.9971
vt 0.3002 0.9971
vt 0.3002 0.9584
vt 0.344 0.0077
vt 0.3874 0.0053
vt 0.3874 0.9947
vt 0.3459 0.9923
vt 0.3874 0.0053
vt 0.6205 0.0077
vt 0.6225 0.9947
vt 0.3874 0.9947
vt 0.6205 0.0077
vt 0.6797 0.0077
vt 0.6777 0.9923
vt 0.6225 0.9947
vt 0.3061 0.0029
vt 0.0347 0.0029
vt 0.0327 0.956
vt 0.3002 0.9584
vt 0.7764 0.9923
vt 0.7724 0.0053
vt 0.944 0.0005
vt 0.9459 0.9971
vt 0.7324 0.9923
vt 0.7364 0.0053
vt 0.7724 0.0053
vt 0.7764 0.9923
vt 0.9958 0.0005
vt 0.9919 0.9971
vt 0.9459 0.9971
vt 0.944 0.0005
vt 0.7739 0.9947
vt 0.7739 0.0053
vt 0.9445 0.0029
vt 0.9465 0.9995
vt 0.7344 0.9947
vt 0.7344 0.0053
vt 0.7739 0.0053
vt 0.7739 0.9947
vt 0.9958 0.0005
vt 0.9958 0.9995
vt 0.9465 0.9995
vt 0.9445 0.0029
vt 0.0406 0.9947
vt 0.0327 0.956
vt 0.3022 0.9584
vt 0.3041 0.9995
vt 0.3874 0.0053
vt 0.3459 0.0029
vt 0.344 0.9947
vt 0.3913 0.9947
vt 0.0347 0.0029
vt 0.3061 0.0029
vt 0.3022 0.9584
vt 0.0327 0.956
vt 0.6797 0.0102
vt 0.6185 0.0053
vt 0.6245 0.9947
vt 0.6797 0.9947
vt 0.6185 0.0053
vt 0.3874 0.0053
vt 0.3913 0.9947
vt 0.6245 0.9947
f 1/1/1 3/3/3 2/2/2
f 3/3/3 1/1/1 4/4/4
f 5/5/5 7/7/7 6/6/6
f 7/7/7 5/5/5 8/8/8
f 9/9/9 11/11/11 10/10/10
f 11/11/11 9/9/9 12/12/12
f 13/13/13 15/15/15 14/14/14
f 15/15/15 13/13/13 16/16/16
f 17/17/17 19/19/19 18/18/18
f 19/19/19 17/17/17 20/20/20
f 21/21/21 23/23/23 22/22/22
f 23/23/23 21/21/21 24/24/24
f 25/25/25 27/27/27 26/26/26
f 27/27/27 25/25/25 28/28/28
f 29/29/29 31/31/31 30/30/30
f 31/31/31 29/29/29 32/32/32
f 33/33/33 35/35/35 34/34/34
f 35/35/35 33/33/33 36/36/36
f 37/37/37 39/39/39 38/38/38
f 39/39/39 37/37/37 40/40/40
f 41/41/41 43/43/43 42/42/42
f 43/43/43 41/41/41 44/44/44
f 45/45/45 47/47/47 46/46/46
f 47/47/47 45/45/45 48/48/48
f 49/49/49 51/51/51 50/50/50
f 51/51/51 49/49/49 52/52/52
f 53/53/53 55/55/55 54/54/54
f 55/55/55 53/53/53 56/56/56
f 57/57/57 59/59/59 58/58/58
f 59/59/59 57/57/57 60/60/60
f 61/61/61 63/63/63 62/62/62
f 63/63/63 61/61/61 64/64/64

g pot2
# texture: pot2.jpg
v -37.5455 0.9755 -0.0998
v -39.4009 16.232 -10.5613
v -33.361 16.232 -0.0998
v -41.4932 0.9755 -6.9374
v -41.4932 0.9755 -6.9374
v -51.4808 16.232 -10.5613
v -39.4009 16.232 -10.5613
v -49.3885 0.9755 -6.9374
v -57.5207 16.232 -0.0998
v -53.3362 0.9755 -0.0998
v -51.4808 16.232 10.3616
v -49.3885 0.9755 6.7377
v -39.4009 16.232 10.3616
v -41.4932 0.9755 6.7377
v -38.9664 26.108 -11.3139
v -32.4919 26.108 -0.0998
v -51.9153 26.108 -11.3139
v -38.9664 26.108 -11.3139
v -58.3898 26.108 -0.0998
v -51.9153 26.108 11.1143
v -38.9664 26.108 11.1143
v -41.6493 36.0563 -6.6669
v -37.8578 36.0563 -0.0998
v -49.2323 36.0563 -6.6669
v -41.6493 36.0563 -6.6669
v -53.0238 36.0563 -0.0998
v -49.2323 36.0563 6.4672
v -41.6493 36.0563 6.4672
v -40.2086 40.9119 -9.1624
v -34.9763 40.9119 -0.0998
v -50.6731 40.9119 -9.1624
v -40.2086 40.9119 -9.1624
v -55.9054 40.9119 -0.0998
v -50.6731 40.9119 8.9627
v -40.2086 40.9119 8.9627
v -45.4408 32.8236 -0.0998
v -34.9763 40.9119 -0.0998
v -40.2086 40.9119 -9.1624
v -40.2086 40.9119 -9.1624
v -50.6731 40.9119 -9.1624
v -55.9054 40.9119 -0.0998
v -50.6731 40.9119 8.9627
v -40.2086 40.9119 8.9627
v 58.8845 136.6087 -0.0998
v 57.3882 148.9124 -8.5365
v 62.2592 148.9124 -0.0998
v 55.7009 136.6087 -5.614
v 55.7009 136.6087 -5.614
v 47.6464 148.9124 -8.5365
v 57.3882 148.9124 -8.5365
v 49.3337 136.6087 -5.614
v 42.7755 148.9124 -0.0998
v 46.1501 136.6087 -0.0998
v 47.6464 148.9124 8.3368
v 49.3337 136.6087 5.4143
v 57.3882 148.9124 8.3368
v 55.7009 136.6087 5.4143
v 57.7387 156.8769 -9.1435
v 62.96 156.8769 -0.0998
v 47.296 156.8769 -9.1435
v 57.7387 156.8769 -9.1435
v 42.0746 156.8769 -0.0998
v 47.296 156.8769 8.9438
v 57.7387 156.8769 8.9438
v 55.575 164.8997 -5.3959
v 58.6326 164.8997 -0.0998
v 49.4597 164.8997 -5.3959
v 55.575 164.8997 -5.3959
v 46.402 164.8997 -0.0998
v 49.4597 164.8997 5.1962
v 55.575 164.8997 5.1962
v 56.7369 168.8155 -7.4084
v 60.9565 168.8155 -0.0998
v 48.2977 168.8155 -7.4084
v 56.7369 168.8155 -7.4084
v 44.0782 168.8155 -0.0998
v 48.2977 168.8155 7.2087
v 56.7369 168.8155 7.2087
v 52.5173 162.2927 -0.0998
v 60.9565 168.8155 -0.0998
v 56.7369 168.8155 -7.4084
v 56.7369 168.8155 -7.4084
v 48.2977 168.8155 -7.4084
v 44.0782 168.8155 -0.0998
v 48.2977 168.8155 7.2087
v 56.7369 168.8155 7.2087
vn 0.94818 -0.260095 -0.182496
vn 0.490094 -0.177098 -0.85349
vn 0.984191 -0.177098 -0.0023
vn 0.316093 -0.260094 -0.91238
vn 0.316093 -0.260094 -0.91238
vn -0.49409 -0.177096 -0.851183
vn 0.490094 -0.177098 -0.85349
vn -0.632114 -0.260106 -0.729916
vn -0.984191 -0.177098 0.0023
vn -0.94818 -0.260095 0.182496
vn -0.490094 -0.177098 0.85349
vn -0.316093 -0.260094 0.91238
vn 0.49409 -0.177096 0.851183
vn 0.632114 -0.260106 0.729916
vn 0.497008 0.206103 -0.842914
vn 0.97849 0.206098 0.009
vn -0.481411 0.206105 -0.851919
vn 0.497008 0.206103 -0.842914
vn -0.97849 0.206098 -0.009
vn -0.497008 0.206103 0.842914
vn 0.481411 0.206105 0.851919
vn 0.501418 -0.021801 -0.864931
vn 0.999761 -0.021799 0.0018
vn -0.498313 -0.021801 -0.866723
vn 0.501418 -0.021801 -0.864931
vn -0.999761 -0.021799 -0.0018
vn -0.501418 -0.021801 0.864931
vn 0.498313 -0.021801 0.866723
vn 0.565613 -0.503511 -0.653115
vn 0.848416 -0.50351 0.163303
vn -0.2828 -0.503501 -0.816401
vn 0.565613 -0.503511 -0.653115
vn -0.848416 -0.50351 -0.163303
vn -0.565613 -0.503511 0.653115
vn 0.2828 -0.503501 0.816401
vn 0 1 -0
vn -0.611522 0.791228 -0
vn -0.305802 0.791205 0.529603
vn -0.305802 0.791205 0.529603
vn 0.305802 0.791205 0.529603
vn 0.611522 0.791228 -0
vn 0.305802 0.791205 -0.529603
vn -0.305802 0.791205 -0.529603
vn 0.94818 -0.260095 -0.182496
vn 0.490094 -0.177098 -0.85349
vn 0.984191 -0.177098 -0.0023
vn 0.316093 -0.260094 -0.91238
vn 0.316093 -0.260094 -0.91238
vn -0.49409 -0.177096 -0.851183
vn 0.490094 -0.177098 -0.85349
vn -0.632114 -0.260106 -0.729916
vn -0.984191 -0.177098 0.0023
vn -0.94818 -0.260095 0.182496
vn -0.490094 -0.177098 0.85349
vn -0.316093 -0.260094 0.91238
vn 0.49409 -0.177096 0.851183
vn 0.632114 -0.260106 0.729916
vn 0.497008 0.206103 -0.842914
vn 0.97849 0.206098 0.009
vn -0.481411 0.206105 -0.851919
vn 0.497008 0.206103 -0.842914
vn -0.97849 0.206098 -0.009
vn -0.497008 0.206103 0.842914
vn 0.481411 0.206105 0.851919
vn 0.501418 -0.021801 -0.864931
vn 0.999761 -0.021799 0.0018
vn -0.498313 -0.021801 -0.866723
vn 0.501418 -0.021801 -0.864931
vn -0.999761 -0.021799 -0.0018
vn -0.501418 -0.021801 0.864931
vn 0.498313 -0.021801 0.866723
vn 0.565613 -0.503511 -0.653115
vn 0.848416 -0.50351 0.163303
vn -0.2828 -0.503501 -0.816401
vn 0.565613 -0.503511 -0.653115
vn -0.848416 -0.50351 -0.163303
vn -0.565613 -0.503511 0.653115
vn 0.2828 -0.503501 0.816401
vn 0 1 -0
vn -0.611522 0.791228 -0
vn -0.305802 0.791205 0.529603
vn -0.305802 0.791205 0.529603
vn 0.305802 0.791205 0.529603
vn 0.611522 0.791228 -0
vn 0.305802 0.791205 -0.529603
vn -0.305802 0.791205 -0.529603
vt 0.75 0.0005
vt 0.9167 0.3339
vt 0.75 0.3339
vt 0.9167 0.0005
vt -0.0833 0.0005
vt 0.0833 0.3339
vt -0.0833 0.3339
vt 0.0833 0.0005
vt 0.25 0.3339
vt 0.25 0.0005
vt 0.4167 0.3339
vt 0.4167 0.0005
vt 0.5833 0.3339
vt 0.5833 0.0005
vt 0.9167 0.5497
vt 0.75 0.5497
vt 0.0833 0.5497
vt -0.0833 0.5497
vt 0.25 0.5497
vt 0.4167 0.5497
vt 0.5833 0.5497
vt 0.9167 0.7671
vt 0.75 0.7671
vt 0.0833 0.7671
vt -0.0833 0.7671
vt 0.25 0.7671
vt 0.4167 0.7671
vt 0.5833 0.7671
vt 0.9167 0.8732
vt 0.75 0.8732
vt 0.0833 0.8732
vt -0.0833 0.8732
vt 0.25 0.8732
vt 0.4167 0.8732
vt 0.5833 0.8732
vt 0.5 0.9995
vt 0.75 0.8732
vt 0.9167 0.8732
vt -0.0833 0.8732
vt 0.0833 0.8732
vt 0.25 0.8732
vt 0.4167 0.8732
vt 0.5833 0.8732
vt 0.75 0.0005
vt 0.9167 0.3339
vt 0.75 0.3339
vt 0.9167 0.0005
vt -0.0833 0.0005
vt 0.0833 0.3339
vt -0.0833 0.3339
vt 0.0833 0.0005
vt 0.25 0.3339
vt 0.25 0.0005
vt 0.4167 0.3339
vt 0.4167 0.0005
vt 0.5833 0.3339
vt 0.5833 0.0005
vt 0.9167 0.5497
vt 0.75 0.5497
vt 0.0833 0.5497
vt -0.0833 0.5497
vt 0.25 0.5497
vt 0.4167 0.5497
vt 0.5833 0.5497
vt 0.9167 0.7671
vt 0.75 0.7671
vt 0.0833 0.7671
vt -0.0833 0.7671
vt 0.25 0.7671
vt 0.4167 0.7671
vt 0.5833 0.7671
vt 0.9167 0.8732
vt 0.75 0.8732
vt 0.0833 0.8732
vt -0.0833 0.8732
vt 0.25 0.8732
vt 0.4167 0.8732
vt 0.5833 0.8732
vt 0.5 0.9995
vt 0.75 0.8732
vt 0.9167 0.8732
vt -0.0833 0.8732
vt 0.0833 0.8732
vt 0.25 0.8732
vt 0.4167 0.8732
vt 0.5833 0.8732
f 65/65/65 67/67/67 66/66/66
f 65/65/65 66/66/66 68/68/68
f 69/69/69 71/71/71 70/70/70
f 69/69/69 70/70/70 72/72/72
f 72/72/72 70/70/70 73/73/73
f 72/72/72 73/73/73 74/74/74
f 74/74/74 73/73/73 75/75/75
f 74/74/74 75/75/75 76/76/76
f 76/76/76 75/75/75 77/77/77
f 76/76/76 77/77/77 78/78/78
f 78/78/78 77/77/77 67/67/67
f 78/78/78 67/67/67 65/65/65
f 67/67/67 80/80/80 79/79/79
f 67/67/67 79/79/79 66/66/66
f 71/71/71 82/82/82 81/81/81
f 71/71/71 81/81/81 70/70/70
f 70/70/70 81/81/81 83/83/83
f 70/70/70 83/83/83 73/73/73
f 73/73/73 83/83/83 84/84/84
f 73/73/73 84/84/84 75/75/75
f 75/75/75 84/84/84 85/85/85
f 75/75/75 85/85/85 77/77/77
f 77/77/77 85/85/85 80/80/80
f 77/77/77 80/80/80 67/67/67
f 80/80/80 87/87/87 86/86/86
f 80/80/80 86/86/86 79/79/79
f 82/82/82 89/89/89 88/88/88
f 82/82/82 88/88/88 81/81/81
f 81/81/81 88/88/88 90/90/90
f 81/81/81 90/90/90 83/83/83
f 83/83/83 90/90/90 91/91/91
f 83/83/83 91/91/91 84/84/84
f 84/84/84 91/91/91 92/92/92
f 84/84/84 92/92/92 85/85/85
f 85/85/85 92/92/92 87/87/87
f 85/85/85 87/87/87 80/80/80
f 87/87/87 94/94/94 93/93/93
f 87/87/87 93/93/93 86/86/86
f 89/89/89 96/96/96 95/95/95
f 89/89/89 95/95/95 88/88/88
f 88/88/88 95/95/95 97/97/97
f 88/88/88 97/97/97 90/90/90
f 90/90/90 97/97/97 98/98/98
f 90/90/90 98/98/98 91/91/91
f 91/91/91 98/98/98 99/99/99
f 91/91/91 99/99/99 92/92/92
f 92/92/92 99/99/99 94/94/94
f 92/92/92 94/94/94 87/87/87
f 100/100/100 102/102/102 101/101/101
f 100/100/100 104/104/104 103/103/103
f 100/100/100 105/105/105 104/104/104
f 100/100/100 106/106/106 105/105/105
f 100/100/100 107/107/107 106/106/106
f 100/100/100 101/101/101 107/107/107
f 108/108/108 110/110/110 109/109/109
f 108/108/108 109/109/109 111/111/111
f 112/112/112 114/114/114 113/113/113
f 112/112/112 113/113/113 115/115/115
f 115/115/115 113/113/113 116/116/116
f 115/115/115 116/116/116 117/117/117
f 117/117/117 116/116/116 118/118/118
f 117/117/117 118/118/118 119/119/119
f 119/119/119 118/118/118 120/120/120
f 119/119/119 120/120/120 121/121/121
f 121/121/121 120/120/120 110/110/110
f 121/121/121 110/110/110 108/108/108
f 110/110/110 123/123/123 122/122/122
f 110/110/110 122/122/122 109/109/109
f 114/114/114 125/125/125 124/124/124
f 114/114/114 124/124/124 113/113/113
f 113/113/113 124/124/124 126/126/126
f 113/113/113 126/126/126 116/116/116
f 116/116/116 126/126/126 127/127/127
f 116/116/116 127/127/127 118/118/118
f 118/118/118 127/127/127 128/128/128
f 118/118/118 128/128/128 120/120/120
f 120/120/120 128/128/128 123/123/123
f 120/120/120 123/123/123 110/110/110
f 123/123/123 130/130/130 129/129/129
f 123/123/123 129/129/129 122/122/122
f 125/125/125 132/132/132 131/131/131
f 125/125/125 131/131/131 124/124/124
f 124/124/124 131/131/131 133/133/133
f 124/124/124 133/133/133 126/126/126
f 126/126/126 133/133/133 134/134/134
f 126/126/126 134/134/134 127/127/127
f 127/127/127 134/134/134 135/135/135
f 127/127/127 135/135/135 128/128/128
f 128/128/128 135/135/135 130/130/130
f 128/128/128 130/130/130 123/123/123
f 130/130/130 137/137/137 136/136/136
f 130/130/130 136/136/136 129/129/129
f 132/132/132 139/139/139 138/138/138
f 132/132/132 138/138/138 131/131/131
f 131/131/131 138/138/138 140/140/140
f 131/131/131 140/140/140 133/133/133
f 133/133/133 140/140/140 141/141/141
f 133/133/133 141/141/141 134/134/134
f 134/134/134 141/141/141 142/142/142
f 134/134/134 142/142/142 135/135/135
f 135/135/135 142/142/142 137/137/137
f 135/135/135 137/137/137 130/130/130
f 143/143/143 145/145/145 144/144/144
f 143/143/143 147/147/147 146/146/146
f 143/143/143 148/148/148 147/147/147
f 143/143/143 149/149/149 148/148/148
f 143/143/143 150/150/150 149/149/149
f 143/143/143 144/144/144 150/150/150

g bottle
# texture: bottle.tga
v -49.1486 53.9065 0.0092
v -53.8848 85.0955 -6.5097
v -49.1486 85.0955 0.0092
v -53.8848 53.9065 -6.5097
v -53.8848 53.9065 -6.5097
v -61.5482 85.0955 -4.0197
v -53.8848 85.0955 -6.5097
v -61.5482 53.9065 -4.0197
v -61.5482 85.0955 4.0381
v -61.5482 53.9065 4.0381
v -53.8848 85.0955 6.528
v -53.8848 53.9065 6.528
v -55.086 94.4575 -2.8128
v -53.0357 94.4575 0.0092
v -58.4035 94.4575 -1.7349
v -55.086 94.4575 -2.8128
v -58.4035 94.4575 1.7533
v -55.086 94.4575 2.8312
v -55.086 114.7329 -2.8128
v -53.0357 114.7329 0.0092
v -58.4035 114.7329 -1.7349
v -55.086 114.7329 -2.8128
v -58.4035 114.7329 1.7533
v -55.086 114.7329 2.8312
v -55.086 114.7329 -2.8128
v -58.4035 114.7329 -1.7349
v -58.4035 114.7329 1.7533
v -55.086 114.7329 2.8312
v -53.0357 114.7329 0.0092
v -49.1486 53.9065 0.0092
v -27.0644 53.4133 0.0092
v -30.8233 78.1665 -5.1645
v -27.0644 78.1665 0.0092
v -30.8233 53.4133 -5.1645
v -30.8233 53.4133 -5.1645
v -36.9053 78.1665 -3.1883
v -30.8233 78.1665 -5.1645
v -36.9053 53.4133 -3.1883
v -36.9053 78.1665 3.2067
v -36.9053 53.4133 3.2067
v -30.8233 78.1665 5.1829
v -30.8233 53.4133 5.1829
v -31.7766 85.5966 -2.2305
v -30.1494 85.5966 0.0092
v -34.4095 85.5966 -1.375
v -31.7766 85.5966 -2.2305
v -34.4095 85.5966 1.3934
v -31.7766 85.5966 2.2489
v -31.7766 101.6882 -2.2305
v -30.1494 101.6882 0.0092
v -34.4095 101.6882 -1.375
v -31.7766 101.6882 -2.2305
v -34.4095 101.6882 1.3934
v -31.7766 101.6882 2.2489
v -31.7766 101.6882 -2.2305
v -34.4095 101.6882 -1.375
v -34.4095 101.6882 1.3934
v -31.7766 101.6882 2.2489
v -30.1494 101.6882 0.0092
v -27.0644 53.4133 0.0092
v 66.9556 53.4133 8.6393
v 62.2194 84.6023 2.1204
v 66.9556 84.6023 8.6393
v 62.2194 53.4133 2.1204
v 62.2194 53.4133 2.1204
v 54.556 84.6023 4.6104
v 62.2194 84.6023 2.1204
v 54.556 53.4133 4.6104
v 54.556 84.6023 12.6681
v 54.556 53.4133 12.6681
v 62.2194 84.6023 15.1581
v 62.2194 53.4133 15.1581
v 61.0182 93.9642 5.8173
v 63.0685 93.9642 8.6393
v 57.7008 93.9642 6.8952
v 61.0182 93.9642 5.8173
v 57.7008 93.9642 10.3834
v 61.0182 93.9642 11.4613
v 61.0182 114.2397 5.8173
v 63.0685 114.2397 8.6393
v 57.7008 114.2397 6.8952
v 61.0182 114.2397 5.8173
v 57.7008 114.2397 10.3834
v 61.0182 114.2397 11.4613
v 61.0182 114.2397 5.8173
v 57.7008 114.2397 6.8952
v 57.7008 114.2397 10.3834
v 61.0182 114.2397 11.4613
v 63.0685 114.2397 8.6393
v 66.9556 53.4133 8.6393
v -64.6746 152.0233 -22.5297
v -68.8839 144.4296 1.647804
v -64.6746 152.0233 1.6478
v -68.8839 144.4296 -22.5297
v -68.8839 144.4296 -22.5297
v -62.9625 138.0797 1.647802
v -68.8839 144.4296 1.647804
v -62.9625 138.0797 -22.5297
v -55.0936 141.749 1.6478
v -55.0936 141.749 -22.5297
v -56.1517 150.3667 1.647797
v -56.1517 150.3667 -22.5297
v -64.7267 144.94 8.905201
v -62.9045 148.2274 8.905201
v -62.1633 142.1911 8.905201
v -64.7267 144.94 8.905201
v -58.7568 143.7796 8.905201
v -59.2149 147.5102 8.905201
v -64.72669 144.94 24.62259
v -62.9045 148.2274 24.6226
v -62.16329 142.1911 24.6226
v -64.72669 144.94 24.62259
v -58.75679 143.7796 24.6226
v -59.2149 147.5102 24.6226
v -64.72669 144.94 24.62259
v -62.16329 142.1911 24.6226
v -58.75679 143.7796 24.6226
v -59.2149 147.5102 24.6226
v -62.9045 148.2274 24.6226
v -64.6746 152.0233 -22.5297
v -51.3454 152.0145 -22.5297
v -55.5547 144.4207 1.6478
v -51.3454 152.0145 1.647799
v -55.5547 144.4207 -22.5297
v -55.5547 144.4207 -22.5297
v -49.6333 138.0708 1.647799
v -55.5547 144.4207 1.6478
v -49.6333 138.0708 -22.5297
v -41.7644 141.7401 1.6478
v -41.7644 141.7401 -22.5297
v -42.8225 150.3578 1.647797
v -42.8225 150.3578 -22.5297
v -51.3975 144.9311 8.905201
v -49.57529 148.2185 8.905201
v -48.8341 142.1823 8.905201
v -51.3975 144.9311 8.905201
v -45.4276 143.7707 8.905201
v -45.8857 147.5013 8.905197
v -51.3975 144.9311 24.6226
v -49.57529 148.2185 24.6226
v -48.83409 142.1823 24.6226
v -51.3975 144.9311 24.6226
v -45.42759 143.7707 24.6226
v -45.8857 147.5013 24.6226
v -51.3975 144.9311 24.6226
v -48.83409 142.1823 24.6226
v -45.42759 143.7707 24.6226
v -45.8857 147.5013 24.6226
v -49.57529 148.2185 24.6226
v -51.3454 152.0145 -22.5297
v -36.3005 152.6582 -22.5297
v -40.5098 145.0645 1.647804
v -36.3005 152.6582 1.6478
v -40.5098 145.0645 -22.5297
v -40.5098 145.0645 -22.5297
v -34.5884 138.7146 1.6478
v -40.5098 145.0645 1.647804
v -34.5884 138.7146 -22.5297
v -26.7195 142.3839 1.6478
v -26.7195 142.3839 -22.5297
v -27.7776 151.0016 1.647799
v -27.7776 151.0016 -22.5297
v -36.3526 145.5749 8.905201
v -34.5304 148.8622 8.905201
v -33.7892 142.826 8.905201
v -36.3526 145.5749 8.905201
v -30.3828 144.4145 8.905203
v -30.8408 148.1451 8.905201
v -36.35259 145.5749 24.6226
v -34.5304 148.8622 24.6226
v -33.78919 142.826 24.6226
v -36.35259 145.5749 24.6226
v -30.38279 144.4145 24.6226
v -30.8408 148.1451 24.6226
v -36.35259 145.5749 24.6226
v -33.78919 142.826 24.6226
v -30.38279 144.4145 24.6226
v -30.8408 148.1451 24.6226
v -34.5304 148.8622 24.6226
v -36.3005 152.6582 -22.5297
v -21.9359 153.0829 -22.5297
v -26.1452 145.4891 1.647804
v -21.9359 153.0829 1.6478
v -26.1452 145.4891 -22.5297
v -26.1452 145.4891 -22.5297
v -20.22389 139.1392 1.647799
v -26.1452 145.4891 1.647804
v -20.2239 139.1392 -22.5297
v -12.355 142.8085 1.6478
v -12.355 142.8085 -22.5297
v -13.4131 151.4262 1.6478
v -13.4131 151.4262 -22.5297
v -21.988 145.9995 8.905201
v -20.1658 149.2869 8.905201
v -19.4247 143.2507 8.905201
v -21.988 145.9995 8.905201
v -16.0182 144.8391 8.905201
v -16.4763 148.5697 8.905197
v -21.988 145.9995 24.6226
v -20.1658 149.2869 24.6226
v -19.42469 143.2507 24.6226
v -21.988 145.9995 24.6226
v -16.01819 144.8391 24.6226
v -16.47629 148.5697 24.6226
v -21.988 145.9995 24.6226
v -19.42469 143.2507 24.6226
v -16.01819 144.8391 24.6226
v -16.47629 148.5697 24.6226
v -20.1658 149.2869 24.6226
v -21.9359 153.0829 -22.5297
v -43.0446 165.7083 -22.5297
v -47.25389 158.1145 1.6478
v -43.0446 165.7083 1.6478
v -47.2539 158.1145 -22.5297
v -47.2539 158.1145 -22.5297
v -41.3325 151.7646 1.647802
v -47.25389 158.1145 1.6478
v -41.3325 151.7646 -22.5297
v -33.4636 155.4339 1.6478
v -33.4636 155.4339 -22.5297
v -34.5217 164.0516 1.647799
v -34.52171 164.0516 -22.5297
v -43.09669 158.6249 8.905201
v -41.2745 161.9123 8.905201
v -40.53329 155.8761 8.905201
v -43.09669 158.6249 8.905201
v -37.12689 157.4645 8.905201
v -37.5849 161.1951 8.905199
v -43.09669 158.6249 24.62259
v -41.27449 161.9123 24.6226
v -40.53329 155.8761 24.6226
v -43.09669 158.6249 24.62259
v -37.12689 157.4645 24.6226
v -37.5849 161.1951 24.6226
v -43.09669 158.6249 24.62259
v -40.53329 155.8761 24.6226
v -37.12689 157.4645 24.6226
v -37.5849 161.1951 24.6226
v -41.27449 161.9123 24.6226
v -43.0446 165.7083 -22.5297
v -27.9997 166.3521 -22.5297
v -32.209 158.7583 1.647802
v -27.9997 166.3521 1.6478
v -32.209 158.7583 -22.5297
v -32.209 158.7583 -22.5297
v -26.2876 152.4084 1.647799
v -32.209 158.7583 1.647802
v -26.2876 152.4084 -22.5297
v -18.4187 156.0777 1.6478
v -18.4187 156.0777 -22.5297
v -19.4768 164.6954 1.647799
v -19.4768 164.6954 -22.5297
v -28.0518 159.2687 8.905201
v -26.2296 162.5561 8.905201
v -25.4884 156.5198 8.905201
v -28.0518 159.2687 8.905201
v -22.082 158.1083 8.905201
v -22.54 161.8389 8.905199
v -28.05179 159.2687 24.6226
v -26.2296 162.5561 24.6226
v -25.4884 156.5198 24.6226
v -28.05179 159.2687 24.6226
v -22.082 158.1083 24.6226
v -22.54 161.8389 24.6226
v -28.05179 159.2687 24.6226
v -25.4884 156.5198 24.6226
v -22.082 158.1083 24.6226
v -22.54 161.8389 24.6226
v -26.2296 162.5561 24.6226
v -27.9997 166.3521 -22.5297
v -56.3738 165.7172 -22.5297
v -60.5831 158.1234 1.647802
v -56.3738 165.7172 1.6478
v -60.5831 158.1234 -22.5297
v -60.5831 158.1234 -22.5297
v -54.6617 151.7735 1.6478
v -60.5831 158.1234 1.647802
v -54.6617 151.7735 -22.5297
v -46.7928 155.4428 1.647799
v -46.7928 155.4428 -22.5297
v -47.8509 164.0605 1.647799
v -47.8509 164.0605 -22.5297
v -56.4259 158.6338 8.905201
v -54.60369 161.9212 8.905201
v -53.8625 155.8849 8.905199
v -56.4259 158.6338 8.905201
v -50.4561 157.4734 8.905201
v -50.9141 161.204 8.905199
v -56.4259 158.6338 24.6226
v -54.60369 161.9212 24.6226
v -53.8625 155.8849 24.6226
v -56.4259 158.6338 24.6226
v -50.4561 157.4734 24.6226
v -50.9141 161.204 24.6226
v -56.4259 158.6338 24.6226
v -53.8625 155.8849 24.6226
v -50.4561 157.4734 24.6226
v -50.9141 161.204 24.6226
v -54.60369 161.9212 24.6226
v -56.3738 165.7172 -22.5297
vn 0.758612 -0.62511 -0.183703
vn 0.308916 0.19801 -0.930249
vn 0.980183 0.197997 0.0063
vn 0.071002 -0.371712 -0.925629
vn 0.071002 -0.371712 -0.925629
vn -0.78922 0.198005 -0.581314
vn 0.308916 0.19801 -0.930249
vn -0.591498 -0.768597 -0.243699
vn -0.79671 0.198002 0.571007
vn -0.601514 -0.371709 0.707116
vn 0.296888 0.197992 0.934161
vn 0.409113 -0.625119 0.66472
vn 0.296888 0.197992 -0.934161
vn 0.980183 0.197997 -0.0063
vn -0.79671 0.198002 -0.571007
vn 0.296888 0.197992 -0.934161
vn -0.78922 0.198005 0.581314
vn 0.308916 0.19801 0.930249
vn 0.335392 0.768582 -0.544787
vn 0.902278 0.371691 0.218495
vn -0.601514 0.371709 -0.707116
vn 0.335392 0.768582 -0.544787
vn -0.721704 0.625104 0.297302
vn 0.059703 0.625128 0.778235
vn 0.335392 0.768582 -0.544787
vn -0.601514 0.371709 -0.707116
vn -0.721704 0.625104 0.297302
vn 0.059703 0.625128 0.778235
vn 0.902278 0.371691 0.218495
vn 0.758612 -0.62511 -0.183703
vn 0.758612 -0.62511 -0.183703
vn 0.308916 0.19801 -0.930249
vn 0.980183 0.197997 0.0063
vn 0.071002 -0.371712 -0.925629
vn 0.071002 -0.371712 -0.925629
vn -0.78922 0.198005 -0.581314
vn 0.308916 0.19801 -0.930249
vn -0.591498 -0.768597 -0.243699
vn -0.79671 0.198002 0.571007
vn -0.601514 -0.371709 0.707116
vn 0.296888 0.197992 0.934161
vn 0.409113 -0.625119 0.66472
vn 0.296888 0.197992 -0.934161
vn 0.980183 0.197997 -0.0063
vn -0.79671 0.198002 -0.571007
vn 0.296888 0.197992 -0.934161
vn -0.78922 0.198005 0.581314
vn 0.308916 0.19801 0.930249
vn 0.335392 0.768582 -0.544787
vn 0.902278 0.371691 0.218495
vn -0.601514 0.371709 -0.707116
vn 0.335392 0.768582 -0.544787
vn -0.721704 0.625104 0.297302
vn 0.059703 0.625128 0.778235
vn 0.335392 0.768582 -0.544787
vn -0.601514 0.371709 -0.707116
vn -0.721704 0.625104 0.297302
vn 0.059703 0.625128 0.778235
vn 0.902278 0.371691 0.218495
vn 0.758612 -0.62511 -0.183703
vn 0.758612 -0.62511 -0.183703
vn 0.308916 0.19801 -0.930249
vn 0.980183 0.197997 0.0063
vn 0.071002 -0.371712 -0.925629
vn 0.071002 -0.371712 -0.925629
vn -0.78922 0.198005 -0.581314
vn 0.308916 0.19801 -0.930249
vn -0.591498 -0.768597 -0.243699
vn -0.79671 0.198002 0.571007
vn -0.601514 -0.371709 0.707116
vn 0.296888 0.197992 0.934161
vn 0.409113 -0.625119 0.66472
vn 0.296888 0.197992 -0.934161
vn 0.980183 0.197997 -0.0063
vn -0.79671 0.198002 -0.571007
vn 0.296888 0.197992 -0.934161
vn -0.78922 0.198005 0.581314
vn 0.308916 0.19801 0.930249
vn 0.335392 0.768582 -0.544787
vn 0.902278 0.371691 0.218495
vn -0.601514 0.371709 -0.707116
vn 0.335392 0.768582 -0.544787
vn -0.721704 0.625104 0.297302
vn 0.059703 0.625128 0.778235
vn 0.335392 0.768582 -0.544787
vn -0.601514 0.371709 -0.707116
vn -0.721704 0.625104 0.297302
vn 0.059703 0.625128 0.778235
vn 0.902278 0.371691 0.218495
vn 0.758612 -0.62511 -0.183703
vn -0.487102 0.609902 -0.625102
vn -0.973641 -0.113205 0.198008
vn -0.408509 0.891019 0.198004
vn -0.868923 -0.326809 -0.37171
vn -0.868923 -0.326809 -0.37171
vn -0.193291 -0.960957 0.197991
vn -0.973641 -0.113205 0.198008
vn 0.029199 -0.639085 -0.768582
vn 0.854228 -0.480716 0.198007
vn 0.895087 -0.246296 -0.371695
vn 0.721213 0.663812 0.198004
vn 0.429514 0.651722 -0.625121
vn -0.972108 -0.125701 0.198002
vn -0.419986 0.88567 0.197993
vn -0.180797 -0.963385 0.197997
vn -0.972108 -0.125701 0.198002
vn 0.860393 -0.469596 0.197998
vn 0.712527 0.673126 0.198008
vn -0.635488 0.073699 0.768586
vn -0.183296 0.910081 0.371692
vn -0.386693 -0.843986 0.371694
vn -0.635488 0.073699 0.768586
vn 0.574401 -0.528501 0.625101
vn 0.680109 0.383005 0.625108
vn -0.635488 0.073699 0.768586
vn -0.386693 -0.843986 0.371694
vn 0.574401 -0.528501 0.625101
vn 0.680109 0.383005 0.625108
vn -0.183296 0.910081 0.371692
vn -0.487102 0.609902 -0.625102
vn -0.487102 0.609902 -0.625102
vn -0.973641 -0.113205 0.198008
vn -0.408509 0.891019 0.198004
vn -0.868923 -0.326809 -0.37171
vn -0.868923 -0.326809 -0.37171
vn -0.193291 -0.960957 0.197991
vn -0.973641 -0.113205 0.198008
vn 0.029199 -0.639085 -0.768582
vn 0.854228 -0.480716 0.198007
vn 0.895087 -0.246296 -0.371695
vn 0.721213 0.663812 0.198004
vn 0.429514 0.651722 -0.625121
vn -0.972108 -0.125701 0.198002
vn -0.419986 0.88567 0.197993
vn -0.180797 -0.963385 0.197997
vn -0.972108 -0.125701 0.198002
vn 0.860393 -0.469596 0.197998
vn 0.712527 0.673126 0.198008
vn -0.635488 0.073699 0.768586
vn -0.183296 0.910081 0.371692
vn -0.386693 -0.843986 0.371694
vn -0.635488 0.073699 0.768586
vn 0.574401 -0.528501 0.625101
vn 0.680109 0.383005 0.625108
vn -0.635488 0.073699 0.768586
vn -0.386693 -0.843986 0.371694
vn 0.574401 -0.528501 0.625101
vn 0.680109 0.383005 0.625108
vn -0.183296 0.910081 0.371692
vn -0.487102 0.609902 -0.625102
vn -0.487102 0.609902 -0.625102
vn -0.973641 -0.113205 0.198008
vn -0.408509 0.891019 0.198004
vn -0.868923 -0.326809 -0.37171
vn -0.868923 -0.326809 -0.37171
vn -0.193291 -0.960957 0.197991
vn -0.973641 -0.113205 0.198008
vn 0.029199 -0.639085 -0.768582
vn 0.854228 -0.480716 0.198007
vn 0.895087 -0.246296 -0.371695
vn 0.721213 0.663812 0.198004
vn 0.429514 0.651722 -0.625121
vn -0.972108 -0.125701 0.198002
vn -0.419986 0.88567 0.197993
vn -0.180797 -0.963385 0.197997
vn -0.972108 -0.125701 0.198002
vn 0.860393 -0.469596 0.197998
vn 0.712527 0.673126 0.198008
vn -0.635488 0.073699 0.768586
vn -0.183296 0.910081 0.371692
vn -0.386693 -0.843986 0.371694
vn -0.635488 0.073699 0.768586
vn 0.574401 -0.528501 0.625101
vn 0.680109 0.383005 0.625108
vn -0.635488 0.073699 0.768586
vn -0.386693 -0.843986 0.371694
vn 0.574401 -0.528501 0.625101
vn 0.680109 0.383005 0.625108
vn -0.183296 0.910081 0.371692
vn -0.487102 0.609902 -0.625102
vn -0.487102 0.609902 -0.625102
vn -0.973641 -0.113205 0.198008
vn -0.408509 0.891019 0.198004
vn -0.868923 -0.326809 -0.37171
vn -0.868923 -0.326809 -0.37171
vn -0.193291 -0.960957 0.197991
vn -0.973641 -0.113205 0.198008
vn 0.029199 -0.639085 -0.768582
vn 0.854228 -0.480716 0.198007
vn 0.895087 -0.246296 -0.371695
vn 0.721213 0.663812 0.198004
vn 0.429514 0.651722 -0.625121
vn -0.972108 -0.125701 0.198002
vn -0.419986 0.88567 0.197993
vn -0.180797 -0.963385 0.197997
vn -0.972108 -0.125701 0.198002
vn 0.860393 -0.469596 0.197998
vn 0.712527 0.673126 0.198008
vn -0.635488 0.073699 0.768586
vn -0.183296 0.910081 0.371692
vn -0.386693 -0.843986 0.371694
vn -0.635488 0.073699 0.768586
vn 0.574401 -0.528501 0.625101
vn 0.680109 0.383005 0.625108
vn -0.635488 0.073699 0.768586
vn -0.386693 -0.843986 0.371694
vn 0.574401 -0.528501 0.625101
vn 0.680109 0.383005 0.625108
vn -0.183296 0.910081 0.371692
vn -0.487102 0.609902 -0.625102
vn -0.487102 0.609902 -0.625102
vn -0.973641 -0.113205 0.198008
vn -0.408509 0.891019 0.198004
vn -0.868923 -0.326809 -0.37171
vn -0.868923 -0.326809 -0.37171
vn -0.193291 -0.960957 0.197991
vn -0.973641 -0.113205 0.198008
vn 0.029199 -0.639085 -0.768582
vn 0.854228 -0.480716 0.198007
vn 0.895087 -0.246296 -0.371695
vn 0.721213 0.663812 0.198004
vn 0.429514 0.651722 -0.625121
vn -0.972108 -0.125701 0.198002
vn -0.419986 0.88567 0.197993
vn -0.180797 -0.963385 0.197997
vn -0.972108 -0.125701 0.198002
vn 0.860393 -0.469596 0.197998
vn 0.712527 0.673126 0.198008
vn -0.635488 0.073699 0.768586
vn -0.183296 0.910081 0.371692
vn -0.386693 -0.843986 0.371694
vn -0.635488 0.073699 0.768586
vn 0.574401 -0.528501 0.625101
vn 0.680109 0.383005 0.625108
vn -0.635488 0.073699 0.768586
vn -0.386693 -0.843986 0.371694
vn 0.574401 -0.528501 0.625101
vn 0.680109 0.383005 0.625108
vn -0.183296 0.910081 0.371692
vn -0.487102 0.609902 -0.625102
vn -0.487102 0.609902 -0.625102
vn -0.973641 -0.113205 0.198008
vn -0.408509 0.891019 0.198004
vn -0.868923 -0.326809 -0.37171
vn -0.868923 -0.326809 -0.37171
vn -0.193291 -0.960957 0.197991
vn -0.973641 -0.113205 0.198008
vn 0.029199 -0.639085 -0.768582
vn 0.854228 -0.480716 0.198007
vn 0.895087 -0.246296 -0.371695
vn 0.721213 0.663812 0.198004
vn 0.429514 0.651722 -0.625121
vn -0.972108 -0.125701 0.198002
vn -0.419986 0.88567 0.197993
vn -0.180797 -0.963385 0.197997
vn -0.972108 -0.125701 0.198002
vn 0.860393 -0.469596 0.197998
vn 0.712527 0.673126 0.198008
vn -0.635488 0.073699 0.768586
vn -0.183296 0.910081 0.371692
vn -0.386693 -0.843986 0.371694
vn -0.635488 0.073699 0.768586
vn 0.574401 -0.528501 0.625101
vn 0.680109 0.383005 0.625108
vn -0.635488 0.073699 0.768586
vn -0.386693 -0.843986 0.371694
vn 0.574401 -0.528501 0.625101
vn 0.680109 0.383005 0.625108
vn -0.183296 0.910081 0.371692
vn -0.487102 0.609902 -0.625102
vn -0.487102 0.609902 -0.625102
vn -0.973641 -0.113205 0.198008
vn -0.408509 0.891019 0.198004
vn -0.868923 -0.326809 -0.37171
vn -0.868923 -0.326809 -0.37171
vn -0.193291 -0.960957 0.197991
vn -0.973641 -0.113205 0.198008
vn 0.029199 -0.639085 -0.768582
vn 0.854228 -0.480716 0.198007
vn 0.895087 -0.246296 -0.371695
vn 0.721213 0.663812 0.198004
vn 0.429514 0.651722 -0.625121
vn -0.972108 -0.125701 0.198002
vn -0.419986 0.88567 0.197993
vn -0.180797 -0.963385 0.197997
vn -0.972108 -0.125701 0.198002
vn 0.860393 -0.469596 0.197998
vn 0.712527 0.673126 0.198008
vn -0.635488 0.073699 0.768586
vn -0.183296 0.910081 0.371692
vn -0.386693 -0.843986 0.371694
vn -0.635488 0.073699 0.768586
vn 0.574401 -0.528501 0.625101
vn 0.680109 0.383005 0.625108
vn -0.635488 0.073699 0.768586
vn -0.386693 -0.843986 0.371694
vn 0.574401 -0.528501 0.625101
vn 0.680109 0.383005 0.625108
vn -0.183296 0.910081 0.371692
vn -0.487102 0.609902 -0.625102
vt 0.75 0.0005
vt 0.9665 0.5127
vt 0.75 0.5127
vt 0.9665 0.0005
vt -0.0335 0.0005
vt 0.1546 0.5127
vt -0.0335 0.5127
vt 0.1546 0.0005
vt 0.3454 0.5127
vt 0.3454 0.0005
vt 0.5335 0.5127
vt 0.5335 0.0005
vt 0.986 0.6665
vt 0.75 0.6665
vt 0.164 0.6665
vt -0.014 0.6665
vt 0.336 0.6665
vt 0.514 0.6665
vt 0.986 0.9995
vt 0.75 0.9995
vt 0.164 0.9995
vt -0.014 0.9995
vt 0.336 0.9995
vt 0.514 0.9995
vt 0.5263 0.4486
vt 0.4047 0.411
vt 0.4047 0.2895
vt 0.5263 0.2519
vt 0.6014 0.3502
vt -0.25 0.0005
vt 0.75 0.0005
vt 0.9665 0.5127
vt 0.75 0.5127
vt 0.9665 0.0005
vt -0.0335 0.0005
vt 0.1546 0.5127
vt -0.0335 0.5127
vt 0.1546 0.0005
vt 0.3454 0.5127
vt 0.3454 0.0005
vt 0.5335 0.5127
vt 0.5335 0.0005
vt 0.986 0.6665
vt 0.75 0.6665
vt 0.164 0.6665
vt -0.014 0.6665
vt 0.336 0.6665
vt 0.514 0.6665
vt 0.986 0.9995
vt 0.75 0.9995
vt 0.164 0.9995
vt -0.014 0.9995
vt 0.336 0.9995
vt 0.514 0.9995
vt 0.5263 0.4486
vt 0.4047 0.411
vt 0.4047 0.2895
vt 0.5263 0.2519
vt 0.6014 0.3502
vt -0.25 0.0005
vt 0.75 0.0005
vt 0.9665 0.5127
vt 0.75 0.5127
vt 0.9665 0.0005
vt -0.0335 0.0005
vt 0.1546 0.5127
vt -0.0335 0.5127
vt 0.1546 0.0005
vt 0.3454 0.5127
vt 0.3454 0.0005
vt 0.5335 0.5127
vt 0.5335 0.0005
vt 0.986 0.6665
vt 0.75 0.6665
vt 0.164 0.6665
vt -0.014 0.6665
vt 0.336 0.6665
vt 0.514 0.6665
vt 0.986 0.9995
vt 0.75 0.9995
vt 0.164 0.9995
vt -0.014 0.9995
vt 0.336 0.9995
vt 0.514 0.9995
vt 0.5263 0.4486
vt 0.4047 0.411
vt 0.4047 0.2895
vt 0.5263 0.2519
vt 0.6014 0.3502
vt -0.25 0.0005
vt 0.75 0.0005
vt 0.9665 0.5127
vt 0.75 0.5127
vt 0.9665 0.0005
vt -0.0335 0.0005
vt 0.1546 0.5127
vt -0.0335 0.5127
vt 0.1546 0.0005
vt 0.3454 0.5127
vt 0.3454 0.0005
vt 0.5335 0.5127
vt 0.5335 0.0005
vt 0.986 0.6665
vt 0.75 0.6665
vt 0.164 0.6665
vt -0.014 0.6665
vt 0.336 0.6665
vt 0.514 0.6665
vt 0.986 0.9995
vt 0.75 0.9995
vt 0.164 0.9995
vt -0.014 0.9995
vt 0.336 0.9995
vt 0.514 0.9995
vt 0.5263 0.4486
vt 0.4047 0.411
vt 0.4047 0.2895
vt 0.5263 0.2519
vt 0.6014 0.3502
vt -0.25 0.0005
vt 0.75 0.0005
vt 0.9665 0.5127
vt 0.75 0.5127
vt 0.9665 0.0005
vt -0.0335 0.0005
vt 0.1546 0.5127
vt -0.0335 0.5127
vt 0.1546 0.0005
vt 0.3454 0.5127
vt 0.3454 0.0005
vt 0.5335 0.5127
vt 0.5335 0.0005
vt 0.986 0.6665
vt 0.75 0.6665
vt 0.164 0.6665
vt -0.014 0.6665
vt 0.336 0.6665
vt 0.514 0.6665
vt 0.986 0.9995
vt 0.75 0.9995
vt 0.164 0.9995
vt -0.014 0.9995
vt 0.336 0.9995
vt 0.514 0.9995
vt 0.5263 0.4486
vt 0.4047 0.411
vt 0.4047 0.2895
vt 0.5263 0.2519
vt 0.6014 0.3502
vt -0.25 0.0005
vt 0.75 0.0005
vt 0.9665 0.5127
vt 0.75 0.5127
vt 0.9665 0.0005
vt -0.0335 0.0005
vt 0.1546 0.5127
vt -0.0335 0.5127
vt 0.1546 0.0005
vt 0.3454 0.5127
vt 0.3454 0.0005
vt 0.5335 0.5127
vt 0.5335 0.0005
vt 0.986 0.6665
vt 0.75 0.6665
vt 0.164 0.6665
vt -0.014 0.6665
vt 0.336 0.6665
vt 0.514 0.6665
vt 0.986 0.9995
vt 0.75 0.9995
vt 0.164 0.9995
vt -0.014 0.9995
vt 0.336 0.9995
vt 0.514 0.9995
vt 0.5263 0.4486
vt 0.4047 0.411
vt 0.4047 0.2895
vt 0.5263 0.2519
vt 0.6014 0.3502
vt -0.25 0.0005
vt 0.75 0.0005
vt 0.9665 0.5127
vt 0.75 0.5127
vt 0.9665 0.0005
vt -0.0335 0.0005
vt 0.1546 0.5127
vt -0.0335 0.5127
vt 0.1546 0.0005
vt 0.3454 0.5127
vt 0.3454 0.0005
vt 0.5335 0.5127
vt 0.5335 0.0005
vt 0.986 0.6665
vt 0.75 0.6665
vt 0.164 0.6665
vt -0.014 0.6665
vt 0.336 0.6665
vt 0.514 0.6665
vt 0.986 0.9995
vt 0.75 0.9995
vt 0.164 0.9995
vt -0.014 0.9995
vt 0.336 0.9995
vt 0.514 0.9995
vt 0.5263 0.4486
vt 0.4047 0.411
vt 0.4047 0.2895
vt 0.5263 0.2519
vt 0.6014 0.3502
vt -0.25 0.0005
vt 0.75 0.0005
vt 0.9665 0.5127
vt 0.75 0.5127
vt 0.9665 0.0005
vt -0.0335 0.0005
vt 0.1546 0.5127
vt -0.0335 0.5127
vt 0.1546 0.0005
vt 0.3454 0.5127
vt 0.3454 0.0005
vt 0.5335 0.5127
vt 0.5335 0.0005
vt 0.986 0.6665
vt 0.75 0.6665
vt 0.164 0.6665
vt -0.014 0.6665
vt 0.336 0.6665
vt 0.514 0.6665
vt 0.986 0.9995
vt 0.75 0.9995
vt 0.164 0.9995
vt -0.014 0.9995
vt 0.336 0.9995
vt 0.514 0.9995
vt 0.5263 0.4486
vt 0.4047 0.411
vt 0.4047 0.2895
vt 0.5263 0.2519
vt 0.6014 0.3502
vt -0.25 0.0005
vt 0.75 0.0005
vt 0.9665 0.5127
vt 0.75 0.5127
vt 0.9665 0.0005
vt -0.0335 0.0005
vt 0.1546 0.5127
vt -0.0335 0.5127
vt 0.1546 0.0005
vt 0.3454 0.5127
vt 0.3454 0.0005
vt 0.5335 0.5127
vt 0.5335 0.0005
vt 0.986 0.6665
vt 0.75 0.6665
vt 0.164 0.6665
vt -0.014 0.6665
vt 0.336 0.6665
vt 0.514 0.6665
vt 0.986 0.9995
vt 0.75 0.9995
vt 0.164 0.9995
vt -0.014 0.9995
vt 0.336 0.9995
vt 0.514 0.9995
vt 0.5263 0.4486
vt 0.4047 0.411
vt 0.4047 0.2895
vt 0.5263 0.2519
vt 0.6014 0.3502
vt -0.25 0.0005
vt 0.75 0.0005
vt 0.9665 0.5127
vt 0.75 0.5127
vt 0.9665 0.0005
vt -0.0335 0.0005
vt 0.1546 0.5127
vt -0.0335 0.5127
vt 0.1546 0.0005
vt 0.3454 0.5127
vt 0.3454 0.0005
vt 0.5335 0.5127
vt 0.5335 0.0005
vt 0.986 0.6665
vt 0.75 0.6665
vt 0.164 0.6665
vt -0.014 0.6665
vt 0.336 0.6665
vt 0.514 0.6665
vt 0.986 0.9995
vt 0.75 0.9995
vt 0.164 0.9995
vt -0.014 0.9995
vt 0.336 0.9995
vt 0.514 0.9995
vt 0.5263 0.4486
vt 0.4047 0.411
vt 0.4047 0.2895
vt 0.5263 0.2519
vt 0.6014 0.3502
vt -0.25 0.0005
f 151/151/151 153/153/153 152/152/152
f 151/151/151 152/152/152 154/154/154
f 155/155/155 157/157/157 156/156/156
f 155/155/155 156/156/156 158/158/158
f 158/158/158 156/156/156 159/159/159
f 158/158/158 159/159/159 160/160/160
f 160/160/160 159/159/159 161/161/161
f 160/160/160 161/161/161 162/162/162
f 162/162/162 161/161/161 153/153/153
f 162/162/162 153/153/153 151/151/151
f 153/153/153 164/164/164 163/163/163
f 153/153/153 163/163/163 152/152/152
f 157/157/157 166/166/166 165/165/165
f 157/157/157 165/165/165 156/156/156
f 156/156/156 165/165/165 167/167/167
f 156/156/156 167/167/167 159/159/159
f 159/159/159 167/167/167 168/168/168
f 159/159/159 168/168/168 161/161/161
f 161/161/161 168/168/168 164/164/164
f 161/161/161 164/164/164 153/153/153
f 164/164/164 170/170/170 169/169/169
f 164/164/164 169/169/169 163/163/163
f 166/166/166 172/172/172 171/171/171
f 166/166/166 171/171/171 165/165/165
f 165/165/165 171/171/171 173/173/173
f 165/165/165 173/173/173 167/167/167
f 167/167/167 173/173/173 174/174/174
f 167/167/167 174/174/174 168/168/168
f 168/168/168 174/174/174 170/170/170
f 168/168/168 170/170/170 164/164/164
f 175/175/175 177/177/177 176/176/176
f 175/175/175 178/178/178 177/177/177
f 175/175/175 179/179/179 178/178/178
f 162/162/162 158/158/158 160/160/160
f 158/158/158 180/180/180 155/155/155
f 180/180/180 158/158/158 162/162/162
f 181/181/181 183/183/183 182/182/182
f 181/181/181 182/182/182 184/184/184
f 185/185/185 187/187/187 186/186/186
f 185/185/185 186/186/186 188/188/188
f 188/188/188 186/186/186 189/189/189
f 188/188/188 189/189/189 190/190/190
f 190/190/190 189/189/189 191/191/191
f 190/190/190 191/191/191 192/192/192
f 192/192/192 191/191/191 183/183/183
f 192/192/192 183/183/183 181/181/181
f 183/183/183 194/194/194 193/193/193
f 183/183/183 193/193/193 182/182/182
f 187/187/187 196/196/196 195/195/195
f 187/187/187 195/195/195 186/186/186
f 186/186/186 195/195/195 197/197/197
f 186/186/186 197/197/197 189/189/189
f 189/189/189 197/197/197 198/198/198
f 189/189/189 198/198/198 191/191/191
f 191/191/191 198/198/198 194/194/194
f 191/191/191 194/194/194 183/183/183
f 194/194/194 200/200/200 199/199/199
f 194/194/194 199/199/199 193/193/193
f 196/196/196 202/202/202 201/201/201
f 196/196/196 201/201/201 195/195/195
f 195/195/195 201/201/201 203/203/203
f 195/195/195 203/203/203 197/197/197
f 197/197/197 203/203/203 204/204/204
f 197/197/197 204/204/204 198/198/198
f 198/198/198 204/204/204 200/200/200
f 198/198/198 200/200/200 194/194/194
f 205/205/205 207/207/207 206/206/206
f 205/205/205 208/208/208 207/207/207
f 205/205/205 209/209/209 208/208/208
f 192/192/192 188/188/188 190/190/190
f 188/188/188 210/210/210 185/185/185
f 210/210/210 188/188/188 192/192/192
f 211/211/211 213/213/213 212/212/212
f 211/211/211 212/212/212 214/214/214
f 215/215/215 217/217/217 216/216/216
f 215/215/215 216/216/216 218/218/218
f 218/218/218 216/216/216 219/219/219
f 218/218/218 219/219/219 220/220/220
f 220/220/220 219/219/219 221/221/221
f 220/220/220 221/221/221 222/222/222
f 222/222/222 221/221/221 213/213/213
f 222/222/222 213/213/213 211/211/211
f 213/213/213 224/224/224 223/223/223
f 213/213/213 223/223/223 212/212/212
f 217/217/217 226/226/226 225/225/225
f 217/217/217 225/225/225 216/216/216
f 216/216/216 225/225/225 227/227/227
f 216/216/216 227/227/227 219/219/219
f 219/219/219 227/227/227 228/228/228
f 219/219/219 228/228/228 221/221/221
f 221/221/221 228/228/228 224/224/224
f 221/221/221 224/224/224 213/213/213
f 224/224/224 230/230/230 229/229/229
f 224/224/224 229/229/229 223/223/223
f 226/226/226 232/232/232 231/231/231
f 226/226/226 231/231/231 225/225/225
f 225/225/225 231/231/231 233/233/233
f 225/225/225 233/233/233 227/227/227
f 227/227/227 233/233/233 234/234/234
f 227/227/227 234/234/234 228/228/228
f 228/228/228 234/234/234 230/230/230
f 228/228/228 230/230/230 224/224/224
f 235/235/235 237/237/237 236/236/236
f 235/235/235 238/238/238 237/237/237
f 235/235/235 239/239/239 238/238/238
f 222/222/222 218/218/218 220/220/220
f 218/218/218 240/240/240 215/215/215
f 240/240/240 218/218/218 222/222/222
f 241/241/241 243/243/243 242/242/242
f 241/241/241 242/242/242 244/244/244
f 245/245/245 247/247/247 246/246/246
f 245/245/245 246/246/246 248/248/248
f 248/248/248 246/246/246 249/249/249
f 248/248/248 249/249/249 250/250/250
f 250/250/250 249/249/249 251/251/251
f 250/250/250 251/251/251 252/252/252
f 252/252/252 251/251/251 243/243/243
f 252/252/252 243/243/243 241/241/241
f 243/243/243 254/254/254 253/253/253
f 243/243/243 253/253/253 242/242/242
f 247/247/247 256/256/256 255/255/255
f 247/247/247 255/255/255 246/246/246
f 246/246/246 255/255/255 257/257/257
f 246/246/246 257/257/257 249/249/249
f 249/249/249 257/257/257 258/258/258
f 249/249/249 258/258/258 251/251/251
f 251/251/251 258/258/258 254/254/254
f 251/251/251 254/254/254 243/243/243
f 254/254/254 260/260/260 259/259/259
f 254/254/254 259/259/259 253/253/253
f 256/256/256 262/262/262 261/261/261
f 256/256/256 261/261/261 255/255/255
f 255/255/255 261/261/261 263/263/263
f 255/255/255 263/263/263 257/257/257
f 257/257/257 263/263/263 264/264/264
f 257/257/257 264/264/264 258/258/258
f 258/258/258 264/264/264 260/260/260
f 258/258/258 260/260/260 254/254/254
f 265/265/265 267/267/267 266/266/266
f 265/265/265 268/268/268 267/267/267
f 265/265/265 269/269/269 268/268/268
f 252/252/252 248/248/248 250/250/250
f 248/248/248 270/270/270 245/245/245
f 270/270/270 248/248/248 252/252/252
f 271/271/271 273/273/273 272/272/272
f 271/271/271 272/272/272 274/274/274
f 275/275/275 277/277/277 276/276/276
f 275/275/275 276/276/276 278/278/278
f 278/278/278 276/276/276 279/279/279
f 278/278/278 279/279/279 280/280/280
f 280/280/280 279/279/279 281/281/281
f 280/280/280 281/281/281 282/282/282
f 282/282/282 281/281/281 273/273/273
f 282/282/282 273/273/273 271/271/271
f 273/273/273 284/284/284 283/283/283
f 273/273/273 283/283/283 272/272/272
f 277/277/277 286/286/286 285/285/285
f 277/277/277 285/285/285 276/276/276
f 276/276/276 285/285/285 287/287/287
f 276/276/276 287/287/287 279/279/279
f 279/279/279 287/287/287 288/288/288
f 279/279/279 288/288/288 281/281/281
f 281/281/281 288/288/288 284/284/284
f 281/281/281 284/284/284 273/273/273
f 284/284/284 290/290/290 289/289/289
f 284/284/284 289/289/289 283/283/283
f 286/286/286 292/292/292 291/291/291
f 286/286/286 291/291/291 285/285/285
f 285/285/285 291/291/291 293/293/293
f 285/285/285 293/293/293 287/287/287
f 287/287/287 293/293/293 294/294/294
f 287/287/287 294/294/294 288/288/288
f 288/288/288 294/294/294 290/290/290
f 288/288/288 290/290/290 284/284/284
f 295/295/295 297/297/297 296/296/296
f 295/295/295 298/298/298 297/297/297
f 295/295/295 299/299/299 298/298/298
f 282/282/282 278/278/278 280/280/280
f 278/278/278 300/300/300 275/275/275
f 300/300/300 278/278/278 282/282/282
f 301/301/301 303/303/303 302/302/302
f 301/301/301 302/302/302 304/304/304
f 305/305/305 307/307/307 306/306/306
f 305/305/305 306/306/306 308/308/308
f 308/308/308 306/306/306 309/309/309
f 308/308/308 309/309/309 310/310/310
f 310/310/310 309/309/309 311/311/311
f 310/310/310 311/311/311 312/312/312
f 312/312/312 311/311/311 303/303/303
f 312/312/312 303/303/303 301/301/301
f 303/303/303 314/314/314 313/313/313
f 303/303/303 313/313/313 302/302/302
f 307/307/307 316/316/316 315/315/315
f 307/307/307 315/315/315 306/306/306
f 306/306/306 315/315/315 317/317/317
f 306/306/306 317/317/317 309/309/309
f 309/309/309 317/317/317 318/318/318
f 309/309/309 318/318/318 311/311/311
f 311/311/311 318/318/318 314/314/314
f 311/311/311 314/314/314 303/303/303
f 314/314/314 320/320/320 319/319/319
f 314/314/314 319/319/319 313/313/313
f 316/316/316 322/322/322 321/321/321
f 316/316/316 321/321/321 315/315/315
f 315/315/315 321/321/321 323/323/323
f 315/315/315 323/323/323 317/317/317
f 317/317/317 323/323/323 324/324/324
f 317/317/317 324/324/324 318/318/318
f 318/318/318 324/324/324 320/320/320
f 318/318/318 320/320/320 314/314/314
f 325/325/325 327/327/327 326/326/326
f 325/325/325 328/328/328 327/327/327
f 325/325/325 329/329/329 328/328/328
f 312/312/312 308/308/308 310/310/310
f 308/308/308 330/330/330 305/305/305
f 330/330/330 308/308/308 312/312/312
f 331/331/331 333/333/333 332/332/332
f 331/331/331 332/332/332 334/334/334
f 335/335/335 337/337/337 336/336/336
f 335/335/335 336/336/336 338/338/338
f 338/338/338 336/336/336 339/339/339
f 338/338/338 339/339/339 340/340/340
f 340/340/340 339/339/339 341/341/341
f 340/340/340 341/341/341 342/342/342
f 342/342/342 341/341/341 333/333/333
f 342/342/342 333/333/333 331/331/331
f 333/333/333 344/344/344 343/343/343
f 333/333/333 343/343/343 332/332/332
f 337/337/337 346/346/346 345/345/345
f 337/337/337 345/345/345 336/336/336
f 336/336/336 345/345/345 347/347/347
f 336/336/336 347/347/347 339/339/339
f 339/339/339 347/347/347 348/348/348
f 339/339/339 348/348/348 341/341/341
f 341/341/341 348/348/348 344/344/344
f 341/341/341 344/344/344 333/333/333
f 344/344/344 350/350/350 349/349/349
f 344/344/344 349/349/349 343/343/343
f 346/346/346 352/352/352 351/351/351
f 346/346/346 351/351/351 345/345/345
f 345/345/345 351/351/351 353/353/353
f 345/345/345 353/353/353 347/347/347
f 347/347/347 353/353/353 354/354/354
f 347/347/347 354/354/354 348/348/348
f 348/348/348 354/354/354 350/350/350
f 348/348/348 350/350/350 344/344/344
f 355/355/355 357/357/357 356/356/356
f 355/355/355 358/358/358 357/357/357
f 355/355/355 359/359/359 358/358/358
f 342/342/342 338/338/338 340/340/340
f 338/338/338 360/360/360 335/335/335
f 360/360/360 338/338/338 342/342/342
f 361/361/361 363/363/363 362/362/362
f 361/361/361 362/362/362 364/364/364
f 365/365/365 367/367/367 366/366/366
f 365/365/365 366/366/366 368/368/368
f 368/368/368 366/366/366 369/369/369
f 368/368/368 369/369/369 370/370/370
f 370/370/370 369/369/369 371/371/371
f 370/370/370 371/371/371 372/372/372
f 372/372/372 371/371/371 363/363/363
f 372/372/372 363/363/363 361/361/361
f 363/363/363 374/374/374 373/373/373
f 363/363/363 373/373/373 362/362/362
f 367/367/367 376/376/376 375/375/375
f 367/367/367 375/375/375 366/366/366
f 366/366/366 375/375/375 377/377/377
f 366/366/366 377/377/377 369/369/369
f 369/369/369 377/377/377 378/378/378
f 369/369/369 378/378/378 371/371/371
f 371/371/371 378/378/378 374/374/374
f 371/371/371 374/374/374 363/363/363
f 374/374/374 380/380/380 379/379/379
f 374/374/374 379/379/379 373/373/373
f 376/376/376 382/382/382 381/381/381
f 376/376/376 381/381/381 375/375/375
f 375/375/375 381/381/381 383/383/383
f 375/375/375 383/383/383 377/377/377
f 377/377/377 383/383/383 384/384/384
f 377/377/377 384/384/384 378/378/378
f 378/378/378 384/384/384 380/380/380
f 378/378/378 380/380/380 374/374/374
f 385/385/385 387/387/387 386/386/386
f 385/385/385 388/388/388 387/387/387
f 385/385/385 389/389/389 388/388/388
f 372/372/372 368/368/368 370/370/370
f 368/368/368 390/390/390 365/365/365
f 390/390/390 368/368/368 372/372/372
f 391/391/391 393/393/393 392/392/392
f 391/391/391 392/392/392 394/394/394
f 395/395/395 397/397/397 396/396/396
f 395/395/395 396/396/396 398/398/398
f 398/398/398 396/396/396 399/399/399
f 398/398/398 399/399/399 400/400/400
f 400/400/400 399/399/399 401/401/401
f 400/400/400 401/401/401 402/402/402
f 402/402/402 401/401/401 393/393/393
f 402/402/402 393/393/393 391/391/391
f 393/393/393 404/404/404 403/403/403
f 393/393/393 403/403/403 392/392/392
f 397/397/397 406/406/406 405/405/405
f 397/397/397 405/405/405 396/396/396
f 396/396/396 405/405/405 407/407/407
f 396/396/396 407/407/407 399/399/399
f 399/399/399 407/407/407 408/408/408
f 399/399/399 408/408/408 401/401/401
f 401/401/401 408/408/408 404/404/404
f 401/401/401 404/404/404 393/393/393
f 404/404/404 410/410/410 409/409/409
f 404/404/404 409/409/409 403/403/403
f 406/406/406 412/412/412 411/411/411
f 406/406/406 411/411/411 405/405/405
f 405/405/405 411/411/411 413/413/413
f 405/405/405 413/413/413 407/407/407
f 407/407/407 413/413/413 414/414/414
f 407/407/407 414/414/414 408/408/408
f 408/408/408 414/414/414 410/410/410
f 408/408/408 410/410/410 404/404/404
f 415/415/415 417/417/417 416/416/416
f 415/415/415 418/418/418 417/417/417
f 415/415/415 419/419/419 418/418/418
f 402/402/402 398/398/398 400/400/400
f 398/398/398 420/420/420 395/395/395
f 420/420/420 398/398/398 402/402/402
f 421/421/421 423/423/423 422/422/422
f 421/421/421 422/422/422 424/424/424
f 425/425/425 427/427/427 426/426/426
f 425/425/425 426/426/426 428/428/428
f 428/428/428 426/426/426 429/429/429
f 428/428/428 429/429/429 430/430/430
f 430/430/430 429/429/429 431/431/431
f 430/430/430 431/431/431 432/432/432
f 432/432/432 431/431/431 423/423/423
f 432/432/432 423/423/423 421/421/421
f 423/423/423 434/434/434 433/433/433
f 423/423/423 433/433/433 422/422/422
f 427/427/427 436/436/436 435/435/435
f 427/427/427 435/435/435 426/426/426
f 426/426/426 435/435/435 437/437/437
f 426/426/426 437/437/437 429/429/429
f 429/429/429 437/437/437 438/438/438
f 429/429/429 438/438/438 431/431/431
f 431/431/431 438/438/438 434/434/434
f 431/431/431 434/434/434 423/423/423
f 434/434/434 440/440/440 439/439/439
f 434/434/434 439/439/439 433/433/433
f 436/436/436 442/442/442 441/441/441
f 436/436/436 441/441/441 435/435/435
f 435/435/435 441/441/441 443/443/443
f 435/435/435 443/443/443 437/437/437
f 437/437/437 443/443/443 444/444/444
f 437/437/437 444/444/444 438/438/438
f 438/438/438 444/444/444 440/440/440
f 438/438/438 440/440/440 434/434/434
f 445/445/445 447/447/447 446/446/446
f 445/445/445 448/448/448 447/447/447
f 445/445/445 449/449/449 448/448/448
f 432/432/432 428/428/428 430/430/430
f 428/428/428 450/450/450 425/425/425
f 450/450/450 428/428/428 432/432/432
