# Object09.bmd — MU geometry at action 0 key 0, exported for MU2
# 1 mesh(es)

g bfish072
# texture: bfish072.jpg
v 0 155.8635 0.000002
v 0 149.535 23.6546
v 57.2129 137.715 23.6546
v 59.6272 143.5435 0.000002
v 0 133.7138 41.3955
v 51.1773 123.1438 41.3955
v 94.7396 94.52969 41.3955
v 105.9269 105.717 23.6546
v 110.4018 110.192 0.000001
v 0 111.5641 47.3091
v 42.7275 102.7441 47.3091
v 0 88.6554 44.8274
v 34.2678 82.5978 47.0185
v 62.7508 62.7874 44.82729
v 79.0774 78.8675 47.3091
v 18.0644 63.224 34.0139
v 16.4861 62.0613 28.8691
v 23.7688 60.1997 28.2999
v 24.5938 62.06549 34.6931
v 17.0076 58.2322 24.6096
v 22.2161 56.32529 23.0451
v 27.3168 53.962 24.6097
v 30.3238 56.3295 28.8691
v 30.0993 58.23899 34.0139
v 0 64.8206 1.8976
v 0 73.5932 -23.6546
v 28.2421 67.7732 -23.6546
v 23.9918 57.7894 -3.323301
v 0 89.4144 -41.3956
v 34.2777 82.3445 -41.39559
v 28.2421 67.7732 -23.6546
v 0 73.5932 -23.6546
v 63.4152 63.20531 -41.3955
v 52.2279 52.01801 -23.6546
v 45.8888 45.9418 1.897596
v 52.2279 52.01801 -23.6546
v 0 111.5641 -47.3092
v 42.7275 102.7441 -47.30919
v 0 133.7138 -41.39559
v 51.1773 123.1438 -41.3956
v 94.7396 94.52971 -41.39549
v 79.0774 78.8675 -47.3092
v 0 149.535 -23.6546
v 57.2129 137.715 -23.6546
v 105.9269 105.717 -23.6546
v 137.9249 57.003 23.65449
v 143.7534 59.4173 -0.000002
v 123.3537 50.9675 41.3955
v 133.9236 -0.047401 41.3955
v 149.7448 -0.047403 23.6546
v 156.0733 -0.0474 -0
v 102.954 42.5176 47.3091
v 82.8589 34.2885 47.2727
v 88.8652 -0.047405 44.8274
v 111.7739 -0.047405 47.3092
v 57.5782 33.09 34.8023
v 55.1866 33.3799 28.8691
v 59.4972 25.7613 28.2999
v 61.8843 26.68911 35.66959
v 52.5842 29.841 23.82129
v 55.1817 23.9128 22.0686
v 57.5703 17.8034 23.82129
v 61.8793 17.2221 28.8691
v 63.3991 19.03731 34.80229
v 67.9831 28.0322 -23.65461
v 57.8 23.9088 -3.577497
v 82.5543 34.06781 -41.3955
v 67.9831 28.0322 -23.65461
v 89.6242 -0.047398 -41.3955
v 73.8029 -0.0474 -23.6546
v 65.0304 -0.0474 1.897699
v 73.8029 -0.0474 -23.6546
v 102.954 42.5176 -47.3092
v 123.3537 50.9674 -41.3955
v 133.9236 -0.047398 -41.3955
v 111.7739 -0.047398 -47.3092
v 137.9249 57.003 -23.6546
v 149.7448 -0.0474 -23.6546
v 52.2677 52.7377 25.9543
v 50.5781 47.5194 28.25399
v 59.0938 46.7282 42.4361
v 46.7148 37.0785 14.07179
v 44.6147 32.5573 20.1947
v 47.5947 40.611 31.1343
v 54.1636 40.0007 42.07389
v 69.2016 28.9152 47.16339
v 74.65 -0.000004 42.4361
v 61.9603 26.26039 45.7204
v 66.163 11.0313 42.07389
v 61.9498 5.954998 31.1343
v 69.1879 0 28.2539
v 54.1477 9.542603 20.1947
v 59.0734 0 14.0718
v 50.5644 21.1954 9.3444
v 47.5842 20.3056 16.5481
v 28.2025 68.7868 46.14649
v 45.0576 59.2226 41.6733
v 9.521301 73.9422 41.6734
v 11.2961 65.2074 40.8215
v 24.7817 61.4858 44.05059
v 36.949 54.5816 40.8215
v 45.8062 51.1648 28.25399
v 35.9269 47.5092 14.8345
v 37.4895 48.7648 31.13429
v 30.3577 46.126 21.44709
v 0 74.1445 25.9543
v 3.294304 68.7738 28.254
v 7.695198 59.20321 14.8345
v 9.977798 54.5676 21.4471
v 6.800903 61.4764 31.13429
v 20.8979 51.15191 10.3614
v 19.5086 48.7555 18.218
v 33.613 51.50211 30.57659
v 28.3613 49.5589 23.44299
v 33.215 55.7856 37.7102
v 24.2551 60.8698 40.0881
v 14.3244 63.6103 37.71019
v 11.0142 60.8629 30.57659
v 13.3536 55.7753 23.443
v 20.3721 51.4953 21.0652
v 61.1052 10.7259 30.57659
v 55.1646 13.4577 22.247
v 64.3133 14.5912 38.9063
v 61.1132 26.1869 41.68279
v 55.1766 36.64911 38.9062
v 50.175 37.1138 30.5766
v 47.9059 30.9815 22.247
v 50.167 21.6528 19.47039
v -57.2128 137.715 23.65461
v -59.6271 143.5435 0.000002
v -51.1772 123.1438 41.39551
v -94.7395 94.52969 41.3955
v -105.9268 105.717 23.65461
v -110.4017 110.1919 0.00001
v -42.7274 102.7441 47.3091
v -34.2677 82.59779 47.0185
v -62.7506 62.78739 44.8273
v -79.0773 78.86749 47.3091
v -18.0643 63.224 34.0139
v -23.7687 60.1996 28.3
v -16.4861 62.0612 28.8691
v -24.5937 62.06539 34.6931
v -17.0076 58.2321 24.6097
v -22.2161 56.32529 23.0451
v -27.3167 53.9619 24.6097
v -30.3237 56.32949 28.86911
v -30.0992 58.2389 34.01391
v -28.242 67.7732 -23.65459
v -23.9917 57.78939 -3.323298
v -28.242 67.7732 -23.65459
v -34.2776 82.3444 -41.3956
v -63.4151 63.2053 -41.3955
v -52.2278 52.01801 -23.6546
v -45.8887 45.9418 1.897703
v -52.2278 52.01801 -23.6546
v -42.7274 102.7441 -47.3092
v -51.1772 123.1438 -41.39548
v -94.7395 94.52969 -41.39549
v -79.0773 78.86751 -47.3092
v -57.2128 137.715 -23.65458
v -105.9268 105.717 -23.65459
v -137.9248 57.00299 23.65461
v -143.7533 59.41719 0.000004
v -123.3536 50.9674 41.3955
v -133.9236 -0.047404 41.3955
v -149.7448 -0.047404 23.6546
v -156.0733 -0.0474 -0
v -102.9538 42.51759 47.3091
v -82.8588 34.2885 47.27271
v -88.8652 -0.0474 44.8274
v -111.7738 -0.0474 47.3091
v -57.5781 33.08999 34.8023
v -59.4971 25.7613 28.2999
v -55.1865 33.3798 28.8691
v -61.8841 26.68909 35.6696
v -52.5841 29.841 23.8213
v -55.18159 23.9128 22.0686
v -57.57021 17.8033 23.8213
v -61.8792 17.222 28.8691
v -63.399 19.0372 34.8023
v -67.983 28.0322 -23.6546
v -57.7998 23.9087 -3.577499
v -67.983 28.0322 -23.6546
v -82.5542 34.0678 -41.3955
v -89.6242 -0.047397 -41.3955
v -73.8029 -0.0474 -23.6546
v -65.0303 -0.0474 1.8976
v -73.8029 -0.0474 -23.6546
v -102.9538 42.5176 -47.3092
v -123.3536 50.9674 -41.3955
v -133.9236 -0.047397 -41.3955
v -111.7738 -0.047397 -47.3092
v -137.9248 57.00298 -23.6546
v -149.7448 -0.0474 -23.6546
v -50.578 47.5194 28.254
v -52.2676 52.7377 25.9543
v -59.0937 46.72819 42.4361
v -46.7147 37.0785 14.0718
v -44.6146 32.5573 20.1947
v -47.5946 40.611 31.1343
v -54.1634 40.00069 42.0739
v -69.2015 28.9152 47.16339
v -74.65 -0.000003 42.4361
v -61.96021 26.2603 45.72041
v -66.163 11.0313 42.0739
v -69.1879 1.042998 28.254
v -61.9497 5.954896 31.1343
v -54.1476 9.5426 20.1947
v -59.0733 -0.000001 14.0718
v -50.5643 21.1954 9.3444
v -47.5841 20.3056 16.5481
v -28.2025 68.78668 46.14651
v -45.0575 59.22249 41.6733
v -9.5212 73.9422 41.67341
v -11.296 65.2074 40.8215
v -24.7816 61.48569 44.0506
v -36.949 54.5815 40.8215
v -45.8062 51.16469 28.254
v -35.9268 47.5092 14.8345
v -37.4893 48.76479 31.1343
v -30.3577 46.1259 21.4471
v -3.2942 68.77379 28.254
v -7.6951 59.2032 14.8345
v -9.9778 54.5676 21.4471
v -6.8008 61.4764 31.1343
v -20.8978 51.15179 10.3614
v -19.5086 48.7555 18.21801
v -33.6129 51.5021 30.5766
v -28.3612 49.5589 23.443
v -33.215 55.78549 37.7102
v -24.255 60.8697 40.0881
v -14.3243 63.6103 37.7102
v -11.0141 60.86289 30.5766
v -13.3536 55.7752 23.443
v -20.372 51.49529 21.0652
v -61.1051 10.7259 30.5766
v -55.16451 13.4576 22.247
v -64.3132 14.5911 38.9063
v -61.1131 26.18689 41.6828
v -55.1765 36.6491 38.9063
v -50.1749 37.1138 30.5766
v -47.9058 30.9815 22.247
v -50.1669 21.6528 19.4704
v 0 -155.8635 -0.000006
v 0 -149.535 23.65459
v -57.2128 -137.715 23.65459
v -59.627 -143.5435 0.000002
v 0 -133.7138 41.39549
v -51.1772 -123.1438 41.39547
v -94.7395 -94.52969 41.39549
v -105.9268 -105.717 23.65449
v -110.4017 -110.1919 -0.000013
v 0 -111.5641 47.30919
v -42.7274 -102.7441 47.30918
v 0 -88.6554 44.8274
v -34.2677 -82.59781 47.01849
v -62.7506 -62.7874 44.82729
v -79.0773 -78.86751 47.30919
v -18.0643 -63.224 34.0139
v -16.486 -62.0612 28.8691
v -23.7687 -60.1996 28.29999
v -24.5937 -62.0655 34.69309
v -17.0075 -58.2321 24.60969
v -22.216 -56.3253 23.0451
v -27.3167 -53.96201 24.60969
v -30.3237 -56.32949 28.86909
v -30.0992 -58.2389 34.01389
v 0 -64.82059 1.897699
v 0 -73.59319 -23.6546
v -28.242 -67.77319 -23.6546
v -23.9917 -57.78939 -3.323301
v 0 -89.41439 -41.3955
v -34.2776 -82.3444 -41.39551
v -28.242 -67.77319 -23.6546
v 0 -73.59319 -23.6546
v -63.4151 -63.2053 -41.39551
v -52.2278 -52.01799 -23.6546
v -45.8887 -45.9418 1.897697
v -52.2278 -52.01799 -23.6546
v 0 -111.5641 -47.3092
v -42.7274 -102.7441 -47.30921
v 0 -133.7138 -41.39551
v -51.1772 -123.1438 -41.39551
v -94.7394 -94.5297 -41.39551
v -79.0773 -78.86749 -47.3092
v 0 -149.535 -23.6546
v -57.2127 -137.715 -23.65462
v -105.9268 -105.717 -23.65461
v -137.9248 -57.003 23.65459
v -143.7533 -59.4173 -0
v -123.3536 -50.9674 41.3956
v -102.9538 -42.5176 47.3092
v -82.8588 -34.2885 47.2727
v -57.57809 -33.09 34.8023
v -55.1865 -33.3798 28.86909
v -59.4971 -25.7613 28.3
v -61.8841 -26.68911 35.6697
v -52.5841 -29.841 23.82129
v -55.18159 -23.9128 22.0686
v -57.57021 -17.8033 23.82129
v -61.8792 -17.2221 28.8691
v -63.399 -19.0372 34.8023
v -67.983 -28.0322 -23.6546
v -57.7998 -23.9088 -3.577502
v -82.5542 -34.0678 -41.3955
v -67.983 -28.0322 -23.6546
v -102.9538 -42.5176 -47.3092
v -123.3536 -50.9674 -41.3955
v -137.9248 -57.00299 -23.6546
v -52.2676 -52.7377 25.95429
v -50.578 -47.5194 28.25399
v -59.0937 -46.7282 42.4361
v -46.7147 -37.0785 14.0719
v -44.6146 -32.5573 20.1947
v -47.5946 -40.611 31.1343
v -54.1634 -40.0007 42.07389
v -69.2015 -28.9152 47.1635
v -61.96021 -26.2604 45.7205
v -66.1629 -11.0313 42.0739
v -61.9497 -5.955001 31.1343
v -54.1476 -9.542602 20.1947
v -50.5643 -21.1954 9.344398
v -47.5841 -20.3056 16.5482
v -28.2024 -68.7867 46.14649
v -45.0575 -59.2226 41.67339
v -9.5212 -73.94219 41.67339
v -11.296 -65.2074 40.8215
v -24.7816 -61.4858 44.05059
v -36.9489 -54.5816 40.8216
v -45.8062 -51.16479 28.25399
v -35.9268 -47.5092 14.83449
v -37.4893 -48.76481 31.1344
v -30.3576 -46.1259 21.44709
v 0 -74.14449 25.9543
v -3.2941 -68.77381 28.25399
v -7.695 -59.2032 14.83449
v -9.9777 -54.5676 21.4471
v -6.8008 -61.4764 31.13429
v -20.8978 -51.1518 10.36139
v -19.5085 -48.7555 18.218
v -33.6129 -51.5021 30.5767
v -28.3612 -49.5589 23.44309
v -33.2149 -55.7855 37.7102
v -24.255 -60.86971 40.0881
v -14.3243 -63.6103 37.7102
v -11.0141 -60.86289 30.5766
v -13.3536 -55.7752 23.443
v -20.372 -51.4953 21.0652
v -61.1051 -10.7259 30.5767
v -55.16451 -13.4576 22.247
v -64.3132 -14.5912 38.9063
v -61.1131 -26.1869 41.68279
v -55.1765 -36.6491 38.9063
v -50.1749 -37.1138 30.57659
v -47.9058 -30.9815 22.247
v -50.1669 -21.6528 19.4705
v 57.2128 -137.715 23.6546
v 59.6271 -143.5435 -0.000006
v 51.1773 -123.1438 41.39559
v 94.7395 -94.5297 41.39549
v 105.9268 -105.717 23.6546
v 110.4017 -110.1919 -0.000002
v 42.7274 -102.7441 47.30919
v 34.2677 -82.59781 47.01849
v 62.7507 -62.7874 44.82739
v 79.0773 -78.8675 47.3092
v 18.0643 -63.224 34.01399
v 23.7687 -60.19969 28.3
v 16.4861 -62.06119 28.8692
v 24.5938 -62.0655 34.6932
v 17.0076 -58.23209 24.6097
v 22.2161 -56.32529 23.0451
v 27.3167 -53.96199 24.6097
v 30.3237 -56.3295 28.8691
v 30.0992 -58.239 34.014
v 28.242 -67.77319 -23.6546
v 23.9917 -57.78939 -3.323301
v 28.242 -67.77319 -23.6546
v 34.2776 -82.34439 -41.39549
v 63.4151 -63.20529 -41.3955
v 52.2279 -52.01799 -23.6545
v 45.8887 -45.9418 1.897699
v 52.2279 -52.01799 -23.6545
v 42.7274 -102.7441 -47.3092
v 51.1772 -123.1438 -41.39551
v 94.7395 -94.52969 -41.39551
v 79.0773 -78.86749 -47.3092
v 57.2128 -137.715 -23.6546
v 105.9268 -105.717 -23.6545
v 137.9248 -57.003 23.6546
v 143.7533 -59.4173 -0.000006
v 123.3536 -50.9674 41.39549
v 102.9539 -42.5176 47.3092
v 82.8589 -34.28851 47.2728
v 57.5782 -33.09 34.80229
v 59.4971 -25.7613 28.3
v 55.1865 -33.3798 28.8691
v 61.8842 -26.6891 35.66969
v 52.5841 -29.841 23.82129
v 55.1816 -23.9128 22.0686
v 57.5702 -17.8033 23.8213
v 61.8793 -17.2221 28.8691
v 63.399 -19.0372 34.80229
v 67.9831 -28.0322 -23.6546
v 57.7999 -23.9088 -3.577503
v 67.9831 -28.0322 -23.6546
v 82.5542 -34.0678 -41.39551
v 102.9539 -42.51759 -47.3092
v 123.3536 -50.9674 -41.39551
v 137.9248 -57.00299 -23.6545
v 50.578 -47.51939 28.254
v 52.2676 -52.73769 25.95429
v 59.0938 -46.7282 42.4361
v 46.7148 -37.0785 14.0719
v 44.6147 -32.5573 20.1948
v 47.5947 -40.611 31.13429
v 54.1635 -40.00071 42.0739
v 69.2015 -28.9152 47.1635
v 61.9602 -26.2604 45.7205
v 66.163 -11.0313 42.0739
v 61.9497 -5.955002 31.1343
v 54.1477 -9.5426 20.1948
v 50.5644 -21.1954 9.344498
v 47.5842 -20.3056 16.5482
v 28.2025 -68.78669 46.1465
v 45.0576 -59.2226 41.6734
v 9.521301 -73.94219 41.6734
v 11.296 -65.2074 40.82159
v 24.7816 -61.4858 44.05059
v 36.949 -54.58159 40.8216
v 45.8062 -51.1648 28.254
v 35.9268 -47.5092 14.8345
v 37.4894 -48.76479 31.1344
v 30.3577 -46.12589 21.4471
v 3.294201 -68.7738 28.254
v 7.695099 -59.20319 14.8346
v 9.9778 -54.5676 21.4471
v 6.8008 -61.47641 31.1343
v 20.8979 -51.15179 10.36141
v 19.5086 -48.75549 18.218
v 33.6129 -51.50209 30.5767
v 28.3612 -49.55888 23.4431
v 33.215 -55.78558 37.7103
v 24.2551 -60.86971 40.0881
v 14.3244 -63.6103 37.7102
v 11.0141 -60.8629 30.5767
v 13.3536 -55.77519 23.44309
v 20.372 -51.4953 21.0652
v 61.1052 -10.7259 30.5767
v 55.1645 -13.4576 22.247
v 64.3132 -14.5912 38.9063
v 61.1131 -26.1869 41.68289
v 55.1765 -36.6491 38.90629
v 50.1749 -37.1138 30.57659
v 47.9059 -30.9815 22.247
v 50.1669 -21.6528 19.4705
vn 0 1 0
vn 0 0.879606 0.475703
vn 0.3366 0.813299 0.4746
vn 0.382484 0.923962 0
vn 0 0.522897 0.852396
vn 0.2004 0.484199 0.851699
vn 0.369711 0.369711 0.852425
vn 0.621982 0.621982 0.475686
vn 0.707107 0.707107 0
vn 0 0.076299 0.997085
vn 0.038398 0.092696 0.994954
vn 0 -0.297387 0.954757
vn -0.0136 -0.032799 0.999369
vn -0.202702 -0.194602 0.959709
vn 0.053999 0.053999 0.99708
vn -0.063202 -0.991831 0.110803
vn 0.065899 -0.885683 0.459591
vn -0.335384 -0.812762 0.476378
vn -0.380983 -0.923558 0.043498
vn 0.093798 -0.658189 0.746987
vn -0.225185 -0.548663 0.805146
vn -0.527094 -0.412295 0.743091
vn -0.662188 -0.590289 0.461591
vn -0.648996 -0.751396 0.119199
vn 0 -0.978384 -0.206797
vn 0 -0.862707 -0.505704
vn -0.3217 -0.778799 -0.538499
vn -0.335612 -0.815729 -0.471117
vn 0 -0.522897 -0.852396
vn -0.200304 -0.484209 -0.851716
vn -0.3217 -0.778799 -0.538499
vn 0 -0.862707 -0.505704
vn -0.369711 -0.369711 -0.852425
vn -0.60999 -0.60999 -0.505792
vn -0.695508 -0.682808 -0.223703
vn -0.60999 -0.60999 -0.505792
vn 0 0 -1
vn 0 0 -1
vn 0 0.522898 -0.852396
vn 0.2004 0.484199 -0.851699
vn 0.369711 0.369711 -0.852425
vn 0 0 -1
vn 0 0.879606 -0.475703
vn 0.3366 0.813299 -0.4746
vn 0.621982 0.621982 -0.475686
vn 0.813183 0.336893 0.47459
vn 0.923877 0.38269 0
vn 0.484103 0.200601 0.851706
vn 0.52278 -0.0001 0.852468
vn 0.879606 -0.0001 0.475703
vn 1 -0.0002 -0
vn 0.095395 0.039598 0.994652
vn -0.0043 -0.0016 0.99999
vn -0.057098 -0 0.998369
vn 0.076299 -0 0.997085
vn -0.764405 -0.625604 0.155901
vn -0.612709 -0.638809 0.465307
vn -0.8123 -0.3376 0.4756
vn -0.919271 -0.382288 0.093797
vn -0.454705 -0.516606 0.725508
vn -0.58391 -0.243904 0.774313
vn -0.691899 0.0317 0.721299
vn -0.884301 0.0041 0.4669
vn -0.980738 -0.106704 0.163606
vn -0.776874 -0.322189 -0.540982
vn -0.80137 -0.333487 -0.496581
vn -0.484103 -0.200601 -0.851706
vn -0.776874 -0.322189 -0.540982
vn -0.52278 0.0002 -0.852468
vn -0.862707 0.0003 -0.505704
vn -0.889514 0.0004 -0.456907
vn -0.862707 0.0003 -0.505704
vn 0 0 -1
vn 0.484103 0.200601 -0.851706
vn 0.52278 -0.0001 -0.852468
vn 0 0 -1
vn 0.813183 0.336893 -0.47459
vn 0.879606 -0.0001 -0.475703
vn -0.643982 -0.586284 0.491486
vn -0.896524 0.36301 0.253907
vn -0.614204 0.194101 0.764904
vn -0.994426 0.054101 -0.090502
vn -0.9455 -0.1924 0.2627
vn -0.90303 -0.072502 0.423414
vn -0.778536 -0.123006 0.615428
vn -0.194606 -0.056902 0.97923
vn -0.492505 0 0.87031
vn -0.65302 -0.270408 0.707421
vn -0.745822 -0.373011 0.551917
vn -0.753809 -0.479006 0.449806
vn -0.861412 -0 0.507907
vn -0.832394 -0.410597 0.372197
vn -0.999616 0 -0.0277
vn -0.878786 -0.315895 -0.357694
vn -0.905917 -0.375207 0.196304
vn -0.102005 -0.244211 0.964342
vn 0.132105 -0.648425 0.749729
vn -0.560694 -0.346597 0.751993
vn -0.448805 -0.662607 0.599606
vn -0.280303 -0.676406 0.681106
vn -0.158397 -0.786685 0.596689
vn 0.278312 -0.915439 0.290712
vn 0.0087 -0.999447 -0.032102
vn -0.118596 -0.893371 0.433386
vn -0.216293 -0.930571 0.295391
vn 0 -0.870639 0.491922
vn -0.86004 -0.42692 0.279413
vn -0.722909 -0.689309 -0.047501
vn -0.510577 -0.809563 0.289687
vn -0.558168 -0.708959 0.431075
vn -0.3656 -0.8811 -0.3
vn -0.372507 -0.898716 0.231404
vn -0.677686 -0.565388 0.47019
vn -0.500793 -0.489893 0.71359
vn -0.597929 -0.777138 0.19631
vn -0.381597 -0.924293 0.0081
vn -0.113801 -0.975708 0.187201
vn 0.106897 -0.877673 0.467186
vn 0.025101 -0.694121 0.719421
vn -0.212898 -0.518594 0.828091
vn -0.87942 0.042901 0.474111
vn -0.715867 -0.022699 0.697868
vn -0.963916 -0.147203 0.221804
vn -0.922375 -0.38339 0.047299
vn -0.779616 -0.588812 0.213304
vn -0.572405 -0.670706 0.471704
vn -0.506385 -0.497985 0.703979
vn -0.546905 -0.228502 0.805408
vn -0.3366 0.813299 0.4746
vn -0.382484 0.923962 0
vn -0.2004 0.484199 0.851699
vn -0.369711 0.369711 0.852425
vn -0.621982 0.621982 0.475686
vn -0.707107 0.707107 0
vn -0.038398 0.092696 0.994954
vn 0.0136 -0.032799 0.999369
vn 0.202702 -0.194602 0.959709
vn -0.053999 0.053999 0.99708
vn 0.063202 -0.991831 0.110803
vn 0.335384 -0.812762 0.476378
vn -0.065899 -0.885683 0.459591
vn 0.380983 -0.923558 0.043498
vn -0.093798 -0.658189 0.746987
vn 0.225185 -0.548663 0.805146
vn 0.527094 -0.412295 0.743091
vn 0.662188 -0.590289 0.461591
vn 0.648996 -0.751396 0.119199
vn 0.3217 -0.778799 -0.538499
vn 0.335612 -0.815729 -0.471117
vn 0.3217 -0.778799 -0.538499
vn 0.200304 -0.484209 -0.851716
vn 0.369711 -0.369711 -0.852425
vn 0.60999 -0.60999 -0.505792
vn 0.695508 -0.682808 -0.223703
vn 0.60999 -0.60999 -0.505792
vn 0 0 -1
vn -0.2004 0.484199 -0.851699
vn -0.369711 0.369711 -0.852425
vn 0 0 -1
vn -0.3366 0.813299 -0.4746
vn -0.621982 0.621982 -0.475686
vn -0.813183 0.336893 0.47459
vn -0.923877 0.38269 0
vn -0.484103 0.200601 0.851706
vn -0.52278 -0.0001 0.852468
vn -0.879606 -0.0001 0.475703
vn -1 -0.0002 -0
vn -0.095395 0.039598 0.994652
vn 0.0043 -0.0016 0.99999
vn 0.057098 -0 0.998369
vn -0.076299 -0 0.997085
vn 0.764405 -0.625604 0.155901
vn 0.8123 -0.3376 0.4756
vn 0.612709 -0.638809 0.465307
vn 0.919271 -0.382288 0.093797
vn 0.454705 -0.516606 0.725508
vn 0.58391 -0.243904 0.774313
vn 0.691899 0.0317 0.721299
vn 0.884301 0.0041 0.4669
vn 0.980738 -0.106704 0.163606
vn 0.776874 -0.322189 -0.540982
vn 0.80137 -0.333487 -0.496581
vn 0.776874 -0.322189 -0.540982
vn 0.484103 -0.200601 -0.851706
vn 0.52278 0.0002 -0.852468
vn 0.862707 0.0003 -0.505704
vn 0.889514 0.0004 -0.456907
vn 0.862707 0.0003 -0.505704
vn 0 0 -1
vn -0.484103 0.200601 -0.851706
vn -0.52278 -0.0001 -0.852468
vn 0 0 -1
vn -0.813183 0.336893 -0.47459
vn -0.879606 -0.0001 -0.475703
vn 0.896524 0.36301 0.253907
vn 0.643982 -0.586284 0.491486
vn 0.614204 0.194101 0.764904
vn 0.994426 0.054101 -0.090502
vn 0.9455 -0.1924 0.2627
vn 0.90303 -0.072502 0.423414
vn 0.778536 -0.123006 0.615428
vn 0.194606 -0.056902 0.97923
vn 0.492503 -0.0033 0.870305
vn 0.65302 -0.270408 0.707421
vn 0.742362 -0.38338 0.549472
vn 0.86077 -0.037899 0.507582
vn 0.733824 -0.516217 0.441614
vn 0.827409 -0.421605 0.371004
vn 0.999614 -0.0021 -0.0277
vn 0.878763 -0.315923 -0.357726
vn 0.905917 -0.375207 0.196304
vn 0.102005 -0.244211 0.964342
vn -0.132105 -0.648425 0.749729
vn 0.560694 -0.346597 0.751993
vn 0.448805 -0.662607 0.599606
vn 0.280303 -0.676406 0.681106
vn 0.158397 -0.786685 0.596689
vn -0.278312 -0.915439 0.290712
vn -0.0087 -0.999447 -0.032102
vn 0.118596 -0.893371 0.433386
vn 0.216293 -0.930571 0.295391
vn 0.86004 -0.42692 0.279413
vn 0.722909 -0.689309 -0.047501
vn 0.510577 -0.809563 0.289687
vn 0.558168 -0.708959 0.431075
vn 0.3656 -0.8811 -0.3
vn 0.372507 -0.898716 0.231404
vn 0.677686 -0.565388 0.47019
vn 0.500793 -0.489893 0.71359
vn 0.597993 -0.777091 0.196298
vn 0.381597 -0.924293 0.0081
vn 0.113801 -0.975708 0.187201
vn -0.106897 -0.877673 0.467186
vn -0.025101 -0.694121 0.719421
vn 0.212898 -0.518594 0.828091
vn 0.87942 0.042901 0.474111
vn 0.715867 -0.022699 0.697868
vn 0.963916 -0.147203 0.221804
vn 0.922375 -0.38339 0.047299
vn 0.779616 -0.588812 0.213304
vn 0.572405 -0.670706 0.471704
vn 0.506385 -0.497985 0.703979
vn 0.546905 -0.228502 0.805408
vn 0 -1 -0
vn 0 -0.879606 0.475703
vn -0.3366 -0.813299 0.4746
vn -0.382484 -0.923962 -0
vn 0 -0.522898 0.852396
vn -0.2004 -0.484199 0.851699
vn -0.369711 -0.369711 0.852425
vn -0.621982 -0.621982 0.475686
vn -0.707107 -0.707107 -0
vn 0 -0.076299 0.997085
vn -0.038398 -0.092696 0.994954
vn 0 0.297387 0.954757
vn 0.0136 0.032799 0.99937
vn 0.202702 0.194602 0.959709
vn -0.053999 -0.053999 0.99708
vn 0.063202 0.991831 0.110803
vn -0.065899 0.885683 0.459591
vn 0.335384 0.812762 0.476378
vn 0.380983 0.923558 0.043498
vn -0.093798 0.658189 0.746987
vn 0.225185 0.548663 0.805146
vn 0.527094 0.412295 0.743091
vn 0.662188 0.590289 0.461591
vn 0.648996 0.751396 0.119199
vn 0 0.978384 -0.206797
vn 0 0.862707 -0.505704
vn 0.3217 0.778799 -0.538499
vn 0.335612 0.815729 -0.471117
vn 0 0.522898 -0.852396
vn 0.200304 0.484209 -0.851716
vn 0.3217 0.778799 -0.538499
vn 0 0.862707 -0.505704
vn 0.369711 0.369711 -0.852425
vn 0.60999 0.60999 -0.505791
vn 0.695508 0.682808 -0.223703
vn 0.60999 0.60999 -0.505791
vn 0 0 -1
vn 0 0 -1
vn 0 -0.522897 -0.852396
vn -0.2004 -0.484199 -0.851699
vn -0.369711 -0.369711 -0.852425
vn 0 0 -1
vn 0 -0.879606 -0.475703
vn -0.3366 -0.813299 -0.4746
vn -0.621982 -0.621982 -0.475686
vn -0.813195 -0.336998 0.474497
vn -0.923791 -0.382896 -0
vn -0.484103 -0.200601 0.851706
vn -0.095395 -0.039598 0.994652
vn 0.0042 0.0017 0.99999
vn 0.764405 0.625604 0.155901
vn 0.612709 0.638809 0.465307
vn 0.8123 0.3376 0.4756
vn 0.919271 0.382288 0.093797
vn 0.454705 0.516606 0.725508
vn 0.58391 0.243904 0.774313
vn 0.691899 -0.0317 0.721299
vn 0.884301 -0.0041 0.4669
vn 0.980738 0.106704 0.163606
vn 0.776694 0.322598 -0.540996
vn 0.801102 0.334101 -0.496601
vn 0.484094 0.200697 -0.851689
vn 0.776694 0.322598 -0.540996
vn 0 0 -1
vn -0.484103 -0.200601 -0.851706
vn -0.813195 -0.336998 -0.474497
vn 0.643982 0.586284 0.491486
vn 0.896524 -0.36301 0.253907
vn 0.614204 -0.194101 0.764905
vn 0.994426 -0.054101 -0.090502
vn 0.9455 0.1924 0.2627
vn 0.90303 0.072502 0.423414
vn 0.778536 0.123006 0.615428
vn 0.194394 0.056898 0.979272
vn 0.65302 0.270408 0.707421
vn 0.748782 0.363291 0.554387
vn 0.770317 0.44531 0.45641
vn 0.837085 0.400393 0.372793
vn 0.878537 0.316113 -0.358115
vn 0.905917 0.375207 0.196304
vn 0.102005 0.244211 0.964343
vn -0.132105 0.648425 0.749729
vn 0.560694 0.346597 0.751993
vn 0.448804 0.662607 0.599606
vn 0.280303 0.676406 0.681106
vn 0.158397 0.786685 0.596689
vn -0.278312 0.915439 0.290713
vn -0.0087 0.999447 -0.032102
vn 0.118596 0.893371 0.433386
vn 0.216293 0.930571 0.295391
vn 0 0.870639 0.491922
vn 0.86004 0.42692 0.279413
vn 0.722909 0.689309 -0.047501
vn 0.510577 0.809563 0.289687
vn 0.558168 0.708959 0.431075
vn 0.3656 0.8811 -0.3
vn 0.372507 0.898716 0.231404
vn 0.677686 0.565388 0.47019
vn 0.500793 0.489893 0.71359
vn 0.597993 0.777091 0.196298
vn 0.381597 0.924293 0.0081
vn 0.113801 0.975708 0.187201
vn -0.106897 0.877673 0.467186
vn -0.025101 0.69412 0.719421
vn 0.212898 0.518594 0.828091
vn 0.87942 -0.042901 0.474111
vn 0.715867 0.022699 0.697868
vn 0.963916 0.147203 0.221804
vn 0.922375 0.38339 0.047299
vn 0.779616 0.588812 0.213305
vn 0.572405 0.670706 0.471705
vn 0.506385 0.497985 0.703979
vn 0.546905 0.228502 0.805408
vn 0.3366 -0.813299 0.4746
vn 0.382484 -0.923962 -0
vn 0.2004 -0.484199 0.851699
vn 0.369711 -0.369711 0.852425
vn 0.621982 -0.621982 0.475686
vn 0.707107 -0.707107 -0
vn 0.038398 -0.092696 0.994954
vn -0.0136 0.032799 0.99937
vn -0.202702 0.194602 0.959709
vn 0.053999 -0.053999 0.99708
vn -0.063202 0.991831 0.110803
vn -0.335384 0.812762 0.476378
vn 0.065899 0.885683 0.459591
vn -0.380983 0.923558 0.043498
vn 0.093798 0.658189 0.746987
vn -0.225185 0.548663 0.805146
vn -0.527094 0.412295 0.743091
vn -0.662188 0.590289 0.461591
vn -0.648996 0.751396 0.119199
vn -0.3217 0.778799 -0.538499
vn -0.335612 0.815729 -0.471117
vn -0.3217 0.778799 -0.538499
vn -0.200304 0.484209 -0.851716
vn -0.369711 0.369711 -0.852425
vn -0.60999 0.60999 -0.505791
vn -0.695508 0.682808 -0.223703
vn -0.60999 0.60999 -0.505791
vn 0 0 -1
vn 0.2004 -0.484199 -0.851699
vn 0.369711 -0.369711 -0.852425
vn 0 0 -1
vn 0.3366 -0.813299 -0.4746
vn 0.621982 -0.621982 -0.475686
vn 0.813195 -0.336998 0.474497
vn 0.923791 -0.382896 -0
vn 0.484103 -0.200601 0.851706
vn 0.095395 -0.039598 0.994652
vn -0.0042 0.0017 0.99999
vn -0.764405 0.625604 0.155901
vn -0.812261 0.337584 0.475677
vn -0.612709 0.638809 0.465307
vn -0.919271 0.382288 0.093797
vn -0.454705 0.516606 0.725508
vn -0.58391 0.243904 0.774313
vn -0.691899 -0.0317 0.721299
vn -0.884301 -0.0041 0.4669
vn -0.980738 0.106704 0.163606
vn -0.776694 0.322598 -0.540996
vn -0.801102 0.334101 -0.496601
vn -0.776694 0.322598 -0.540996
vn -0.484094 0.200697 -0.851689
vn 0 0 -1
vn 0.484103 -0.200601 -0.851706
vn 0.813195 -0.336998 -0.474497
vn -0.896524 -0.36301 0.253907
vn -0.643982 0.586284 0.491486
vn -0.614204 -0.194101 0.764905
vn -0.994426 -0.054101 -0.090502
vn -0.9455 0.1924 0.2627
vn -0.90303 0.072502 0.423414
vn -0.778536 0.123006 0.615428
vn -0.194394 0.056898 0.979272
vn -0.65302 0.270408 0.707421
vn -0.745822 0.373011 0.551917
vn -0.753809 0.479006 0.449806
vn -0.832394 0.410597 0.372197
vn -0.878537 0.316113 -0.358115
vn -0.905917 0.375207 0.196304
vn -0.102005 0.244211 0.964343
vn 0.132105 0.648425 0.749729
vn -0.560694 0.346597 0.751993
vn -0.448804 0.662607 0.599606
vn -0.280303 0.676406 0.681106
vn -0.158397 0.786685 0.596689
vn 0.278312 0.915439 0.290713
vn 0.0087 0.999447 -0.032102
vn -0.118596 0.893371 0.433386
vn -0.216293 0.930571 0.295391
vn -0.86004 0.42692 0.279413
vn -0.722909 0.689309 -0.047501
vn -0.510577 0.809563 0.289687
vn -0.558168 0.708959 0.431075
vn -0.3656 0.8811 -0.3
vn -0.372507 0.898716 0.231404
vn -0.677686 0.565388 0.47019
vn -0.500793 0.489893 0.71359
vn -0.597993 0.777091 0.196298
vn -0.381597 0.924293 0.0081
vn -0.113801 0.975708 0.187201
vn 0.106897 0.877673 0.467186
vn 0.025101 0.69412 0.719421
vn -0.212898 0.518594 0.828091
vn -0.87942 -0.042901 0.474111
vn -0.715867 0.022699 0.697868
vn -0.963916 0.147203 0.221804
vn -0.922375 0.38339 0.047299
vn -0.779616 0.588812 0.213305
vn -0.572405 0.670706 0.471705
vn -0.506385 0.497985 0.703979
vn -0.546905 0.228502 0.805408
vt 0.3256 0.9647
vt 0.7285 0.946
vt 0.5581 0.7425
vt 0.4493 0.7526
vt 0.7625 0.8993
vt 0.65 0.7173
vt 0.6156 0.5041
vt 0.5338 0.5041
vt 0.4513 0.5041
vt 0.8008 0.8339
vt 0.7279 0.682
vt 0.8389 0.7662
vt 0.7918 0.6475
vt 0.7775 0.5049
vt 0.6966 0.5041
vt 0.8779 0.6546
vt 0.8921 0.6558
vt 0.8886 0.6288
vt 0.8708 0.6319
vt 0.9048 0.643
vt 0.9063 0.622
vt 0.9002 0.5999
vt 0.8846 0.598
vt 0.8705 0.6043
vt 0.9567 0.6957
vt 1.0229 0.7217
vt 1.044 0.6215
vt 0.9725 0.6046
vt 0.0762 0.7684
vt 0.1184 0.6467
vt 0.044 0.6215
vt 0.0229 0.7217
vt 0.1391 0.5041
vt 0.0552 0.5041
vt 0.9565 0.5049
vt 1.0552 0.5041
vt 0.1187 0.8339
vt 0.1877 0.682
vt 0.1557 0.8993
vt 0.2598 0.7173
vt 0.2925 0.5041
vt 0.2168 0.5041
vt 0.1885 0.946
vt 0.3446 0.7425
vt 0.3702 0.5041
vt 0.5581 0.2658
vt 0.4493 0.2557
vt 0.65 0.291
vt 0.7625 0.109
vt 0.7285 0.0623
vt 0.3256 0.0436
vt 0.7279 0.3263
vt 0.7909 0.3613
vt 0.839 0.2421
vt 0.8008 0.1744
vt 0.8621 0.4207
vt 0.8788 0.4286
vt 0.8836 0.3934
vt 0.8626 0.3891
vt 0.8975 0.4258
vt 0.9046 0.4007
vt 0.9028 0.3756
vt 0.8878 0.3611
vt 0.8712 0.362
vt 1.044 0.3868
vt 0.9732 0.4047
vt 0.1184 0.3616
vt 0.044 0.3868
vt 0.0762 0.2399
vt 0.0229 0.2866
vt 0.9567 0.3124
vt 1.0229 0.2866
vt 0.1877 0.3263
vt 0.2598 0.291
vt 0.1557 0.109
vt 0.1187 0.1744
vt 0.3446 0.2658
vt 0.1885 0.0623
vt 0.8613 0.5062
vt 0.8644 0.4957
vt 0.8242 0.4565
vt 0.9238 0.4645
vt 0.9107 0.4574
vt 0.8736 0.4724
vt 0.8422 0.4512
vt 0.8273 0.374
vt 0.8492 0.3114
vt 0.8428 0.3876
vt 0.8617 0.3302
vt 0.8915 0.3276
vt 0.8901 0.3081
vt 0.9179 0.3613
vt 0.9312 0.3399
vt 0.9368 0.418
vt 0.9246 0.4124
vt 0.8191 0.647
vt 0.832 0.5631
vt 0.8598 0.7115
vt 0.8686 0.6805
vt 0.8367 0.6355
vt 0.8519 0.5733
vt 0.8658 0.5206
vt 0.9256 0.5554
vt 0.8795 0.5545
vt 0.9118 0.5678
vt 0.8935 0.723
vt 0.8986 0.6993
vt 0.933 0.6734
vt 0.9185 0.6529
vt 0.8951 0.6827
vt 0.9427 0.6106
vt 0.9243 0.6076
vt 0.882 0.5741
vt 0.9058 0.5838
vt 0.8615 0.5879
vt 0.861 0.6294
vt 0.8733 0.6668
vt 0.8936 0.6685
vt 0.9115 0.6465
vt 0.9155 0.6132
vt 0.8898 0.3442
vt 0.9107 0.3698
vt 0.8661 0.3461
vt 0.8515 0.3898
vt 0.8517 0.4383
vt 0.8759 0.4544
vt 0.9043 0.443
vt 0.9156 0.4088
vt 0.5581 0.7425
vt 0.4493 0.7526
vt 0.65 0.7173
vt 0.6156 0.5041
vt 0.5338 0.5041
vt 0.4513 0.5041
vt 0.7279 0.682
vt 0.7918 0.6475
vt 0.7775 0.5049
vt 0.6966 0.5041
vt 0.8779 0.6546
vt 0.8886 0.6288
vt 0.8921 0.6558
vt 0.8708 0.6319
vt 0.9048 0.643
vt 0.9063 0.622
vt 0.9002 0.5999
vt 0.8846 0.598
vt 0.8705 0.6043
vt 1.044 0.6215
vt 0.9725 0.6046
vt 0.044 0.6215
vt 0.1184 0.6467
vt 0.1391 0.5041
vt 0.0552 0.5041
vt 0.9565 0.5049
vt 1.0552 0.5041
vt 0.1877 0.682
vt 0.2598 0.7173
vt 0.2925 0.5041
vt 0.2168 0.5041
vt 0.3446 0.7425
vt 0.3702 0.5041
vt 0.5581 0.2658
vt 0.4493 0.2557
vt 0.65 0.291
vt 0.7625 0.109
vt 0.7285 0.0623
vt 0.3256 0.0436
vt 0.7279 0.3263
vt 0.7909 0.3613
vt 0.839 0.2421
vt 0.8008 0.1744
vt 0.8621 0.4207
vt 0.8836 0.3934
vt 0.8788 0.4286
vt 0.8626 0.3891
vt 0.8975 0.4258
vt 0.9046 0.4007
vt 0.9028 0.3756
vt 0.8878 0.3611
vt 0.8712 0.362
vt 1.044 0.3868
vt 0.9732 0.4047
vt 0.044 0.3868
vt 0.1184 0.3616
vt 0.0762 0.2399
vt 0.0229 0.2866
vt 0.9567 0.3124
vt 1.0229 0.2866
vt 0.1877 0.3263
vt 0.2598 0.291
vt 0.1557 0.109
vt 0.1187 0.1744
vt 0.3446 0.2658
vt 0.1885 0.0623
vt 0.8644 0.4957
vt 0.8613 0.5062
vt 0.8242 0.4565
vt 0.9238 0.4645
vt 0.9107 0.4574
vt 0.8736 0.4724
vt 0.8422 0.4512
vt 0.8273 0.374
vt 0.8492 0.3114
vt 0.8428 0.3876
vt 0.8617 0.3302
vt 0.8901 0.3081
vt 0.8915 0.3276
vt 0.9179 0.3613
vt 0.9312 0.3399
vt 0.9368 0.418
vt 0.9246 0.4124
vt 0.8191 0.647
vt 0.832 0.5631
vt 0.8598 0.7115
vt 0.8686 0.6805
vt 0.8367 0.6355
vt 0.8519 0.5733
vt 0.8658 0.5206
vt 0.9256 0.5554
vt 0.8795 0.5545
vt 0.9118 0.5678
vt 0.8986 0.6993
vt 0.933 0.6734
vt 0.9185 0.6529
vt 0.8951 0.6827
vt 0.9427 0.6106
vt 0.9243 0.6076
vt 0.882 0.5741
vt 0.9058 0.5838
vt 0.8615 0.5879
vt 0.861 0.6294
vt 0.8733 0.6668
vt 0.8936 0.6685
vt 0.9115 0.6465
vt 0.9155 0.6132
vt 0.8898 0.3442
vt 0.9107 0.3698
vt 0.8661 0.3461
vt 0.8515 0.3898
vt 0.8517 0.4383
vt 0.8759 0.4544
vt 0.9043 0.443
vt 0.9156 0.4088
vt 0.3256 0.9647
vt 0.7285 0.946
vt 0.5581 0.7425
vt 0.4493 0.7526
vt 0.7625 0.8993
vt 0.65 0.7173
vt 0.6156 0.5041
vt 0.5338 0.5041
vt 0.4513 0.5041
vt 0.8008 0.8339
vt 0.7279 0.682
vt 0.8389 0.7662
vt 0.7918 0.6475
vt 0.7775 0.5049
vt 0.6966 0.5041
vt 0.8779 0.6546
vt 0.8921 0.6558
vt 0.8886 0.6288
vt 0.8708 0.6319
vt 0.9048 0.643
vt 0.9063 0.622
vt 0.9002 0.5999
vt 0.8846 0.598
vt 0.8705 0.6043
vt 0.9567 0.6957
vt 1.0229 0.7217
vt 1.044 0.6215
vt 0.9725 0.6046
vt 0.0762 0.7684
vt 0.1184 0.6467
vt 0.044 0.6215
vt 0.0229 0.7217
vt 0.1391 0.5041
vt 0.0552 0.5041
vt 0.9565 0.5049
vt 1.0552 0.5041
vt 0.1187 0.8339
vt 0.1877 0.682
vt 0.1557 0.8993
vt 0.2598 0.7173
vt 0.2925 0.5041
vt 0.2168 0.5041
vt 0.1885 0.946
vt 0.3446 0.7425
vt 0.3702 0.5041
vt 0.5581 0.2658
vt 0.4493 0.2557
vt 0.65 0.291
vt 0.7279 0.3263
vt 0.7909 0.3613
vt 0.8621 0.4207
vt 0.8788 0.4286
vt 0.8836 0.3934
vt 0.8626 0.3891
vt 0.8975 0.4258
vt 0.9046 0.4007
vt 0.9028 0.3756
vt 0.8878 0.3611
vt 0.8712 0.362
vt 1.044 0.3868
vt 0.9732 0.4047
vt 0.1184 0.3616
vt 0.044 0.3868
vt 0.1877 0.3263
vt 0.2598 0.291
vt 0.3446 0.2658
vt 0.8613 0.5062
vt 0.8644 0.4957
vt 0.8242 0.4565
vt 0.9238 0.4645
vt 0.9107 0.4574
vt 0.8736 0.4724
vt 0.8422 0.4512
vt 0.8273 0.374
vt 0.8428 0.3876
vt 0.8617 0.3302
vt 0.8915 0.3276
vt 0.9179 0.3613
vt 0.9368 0.418
vt 0.9246 0.4124
vt 0.8191 0.647
vt 0.832 0.5631
vt 0.8598 0.7115
vt 0.8686 0.6805
vt 0.8367 0.6355
vt 0.8519 0.5733
vt 0.8658 0.5206
vt 0.9256 0.5554
vt 0.8795 0.5545
vt 0.9118 0.5678
vt 0.8935 0.723
vt 0.8986 0.6993
vt 0.933 0.6734
vt 0.9185 0.6529
vt 0.8951 0.6827
vt 0.9427 0.6106
vt 0.9243 0.6076
vt 0.882 0.5741
vt 0.9058 0.5838
vt 0.8615 0.5879
vt 0.861 0.6294
vt 0.8733 0.6668
vt 0.8936 0.6685
vt 0.9115 0.6465
vt 0.9155 0.6132
vt 0.8898 0.3442
vt 0.9107 0.3698
vt 0.8661 0.3461
vt 0.8515 0.3898
vt 0.8517 0.4383
vt 0.8759 0.4544
vt 0.9043 0.443
vt 0.9156 0.4088
vt 0.5581 0.7425
vt 0.4493 0.7526
vt 0.65 0.7173
vt 0.6156 0.5041
vt 0.5338 0.5041
vt 0.4513 0.5041
vt 0.7279 0.682
vt 0.7918 0.6475
vt 0.7775 0.5049
vt 0.6966 0.5041
vt 0.8779 0.6546
vt 0.8886 0.6288
vt 0.8921 0.6558
vt 0.8708 0.6319
vt 0.9048 0.643
vt 0.9063 0.622
vt 0.9002 0.5999
vt 0.8846 0.598
vt 0.8705 0.6043
vt 1.044 0.6215
vt 0.9725 0.6046
vt 0.044 0.6215
vt 0.1184 0.6467
vt 0.1391 0.5041
vt 0.0552 0.5041
vt 0.9565 0.5049
vt 1.0552 0.5041
vt 0.1877 0.682
vt 0.2598 0.7173
vt 0.2925 0.5041
vt 0.2168 0.5041
vt 0.3446 0.7425
vt 0.3702 0.5041
vt 0.5581 0.2658
vt 0.4493 0.2557
vt 0.65 0.291
vt 0.7279 0.3263
vt 0.7909 0.3613
vt 0.8621 0.4207
vt 0.8836 0.3934
vt 0.8788 0.4286
vt 0.8626 0.3891
vt 0.8975 0.4258
vt 0.9046 0.4007
vt 0.9028 0.3756
vt 0.8878 0.3611
vt 0.8712 0.362
vt 1.044 0.3868
vt 0.9732 0.4047
vt 0.044 0.3868
vt 0.1184 0.3616
vt 0.1877 0.3263
vt 0.2598 0.291
vt 0.3446 0.2658
vt 0.8644 0.4957
vt 0.8613 0.5062
vt 0.8242 0.4565
vt 0.9238 0.4645
vt 0.9107 0.4574
vt 0.8736 0.4724
vt 0.8422 0.4512
vt 0.8273 0.374
vt 0.8428 0.3876
vt 0.8617 0.3302
vt 0.8915 0.3276
vt 0.9179 0.3613
vt 0.9368 0.418
vt 0.9246 0.4124
vt 0.8191 0.647
vt 0.832 0.5631
vt 0.8598 0.7115
vt 0.8686 0.6805
vt 0.8367 0.6355
vt 0.8519 0.5733
vt 0.8658 0.5206
vt 0.9256 0.5554
vt 0.8795 0.5545
vt 0.9118 0.5678
vt 0.8986 0.6993
vt 0.933 0.6734
vt 0.9185 0.6529
vt 0.8951 0.6827
vt 0.9427 0.6106
vt 0.9243 0.6076
vt 0.882 0.5741
vt 0.9058 0.5838
vt 0.8615 0.5879
vt 0.861 0.6294
vt 0.8733 0.6668
vt 0.8936 0.6685
vt 0.9115 0.6465
vt 0.9155 0.6132
vt 0.8898 0.3442
vt 0.9107 0.3698
vt 0.8661 0.3461
vt 0.8515 0.3898
vt 0.8517 0.4383
vt 0.8759 0.4544
vt 0.9043 0.443
vt 0.9156 0.4088
f 1/1/1 3/3/3 2/2/2
f 1/1/1 4/4/4 3/3/3
f 5/5/5 3/3/3 6/6/6
f 5/5/5 2/2/2 3/3/3
f 7/7/7 3/3/3 8/8/8
f 7/7/7 6/6/6 3/3/3
f 9/9/9 3/3/3 4/4/4
f 9/9/9 8/8/8 3/3/3
f 5/5/5 11/11/11 10/10/10
f 5/5/5 6/6/6 11/11/11
f 12/12/12 11/11/11 13/13/13
f 12/12/12 10/10/10 11/11/11
f 14/14/14 11/11/11 15/15/15
f 14/14/14 13/13/13 11/11/11
f 7/7/7 11/11/11 6/6/6
f 7/7/7 15/15/15 11/11/11
f 16/16/16 18/18/18 17/17/17
f 16/16/16 19/19/19 18/18/18
f 20/20/20 18/18/18 21/21/21
f 20/20/20 17/17/17 18/18/18
f 22/22/22 18/18/18 23/23/23
f 22/22/22 21/21/21 18/18/18
f 24/24/24 18/18/18 19/19/19
f 24/24/24 23/23/23 18/18/18
f 25/25/25 27/27/27 26/26/26
f 25/25/25 28/28/28 27/27/27
f 29/29/29 31/31/31 30/30/30
f 29/29/29 32/32/32 31/31/31
f 33/33/33 31/31/31 34/34/34
f 33/33/33 30/30/30 31/31/31
f 35/35/35 27/27/27 28/28/28
f 35/35/35 36/36/36 27/27/27
f 29/29/29 38/38/38 37/37/37
f 29/29/29 30/30/30 38/38/38
f 39/39/39 38/38/38 40/40/40
f 39/39/39 37/37/37 38/38/38
f 41/41/41 38/38/38 42/42/42
f 41/41/41 40/40/40 38/38/38
f 33/33/33 38/38/38 30/30/30
f 33/33/33 42/42/42 38/38/38
f 39/39/39 44/44/44 43/43/43
f 39/39/39 40/40/40 44/44/44
f 1/1/1 44/44/44 4/4/4
f 1/1/1 43/43/43 44/44/44
f 9/9/9 44/44/44 45/45/45
f 9/9/9 4/4/4 44/44/44
f 41/41/41 44/44/44 40/40/40
f 41/41/41 45/45/45 44/44/44
f 9/9/9 46/46/46 8/8/8
f 9/9/9 47/47/47 46/46/46
f 7/7/7 46/46/46 48/48/48
f 7/7/7 8/8/8 46/46/46
f 49/49/49 46/46/46 50/50/50
f 49/49/49 48/48/48 46/46/46
f 51/51/51 46/46/46 47/47/47
f 51/51/51 50/50/50 46/46/46
f 7/7/7 52/52/52 15/15/15
f 7/7/7 48/48/48 52/52/52
f 14/14/14 52/52/52 53/53/53
f 14/14/14 15/15/15 52/52/52
f 54/54/54 52/52/52 55/55/55
f 54/54/54 53/53/53 52/52/52
f 49/49/49 52/52/52 48/48/48
f 49/49/49 55/55/55 52/52/52
f 56/56/56 58/58/58 57/57/57
f 56/56/56 59/59/59 58/58/58
f 60/60/60 58/58/58 61/61/61
f 60/60/60 57/57/57 58/58/58
f 62/62/62 58/58/58 63/63/63
f 62/62/62 61/61/61 58/58/58
f 64/64/64 58/58/58 59/59/59
f 64/64/64 63/63/63 58/58/58
f 35/35/35 65/65/65 36/36/36
f 35/35/35 66/66/66 65/65/65
f 33/33/33 68/68/68 67/67/67
f 33/33/33 34/34/34 68/68/68
f 69/69/69 68/68/68 70/70/70
f 69/69/69 67/67/67 68/68/68
f 71/71/71 65/65/65 66/66/66
f 71/71/71 72/72/72 65/65/65
f 33/33/33 73/73/73 42/42/42
f 33/33/33 67/67/67 73/73/73
f 41/41/41 73/73/73 74/74/74
f 41/41/41 42/42/42 73/73/73
f 75/75/75 73/73/73 76/76/76
f 75/75/75 74/74/74 73/73/73
f 69/69/69 73/73/73 67/67/67
f 69/69/69 76/76/76 73/73/73
f 41/41/41 77/77/77 45/45/45
f 41/41/41 74/74/74 77/77/77
f 9/9/9 77/77/77 47/47/47
f 9/9/9 45/45/45 77/77/77
f 51/51/51 77/77/77 78/78/78
f 51/51/51 47/47/47 77/77/77
f 75/75/75 77/77/77 74/74/74
f 75/75/75 78/78/78 77/77/77
f 14/14/14 80/80/80 79/79/79
f 14/14/14 81/81/81 80/80/80
f 35/35/35 80/80/80 82/82/82
f 35/35/35 79/79/79 80/80/80
f 83/83/83 80/80/80 84/84/84
f 83/83/83 82/82/82 80/80/80
f 85/85/85 80/80/80 81/81/81
f 85/85/85 84/84/84 80/80/80
f 54/54/54 86/86/86 53/53/53
f 54/54/54 87/87/87 86/86/86
f 14/14/14 86/86/86 81/81/81
f 14/14/14 53/53/53 86/86/86
f 85/85/85 86/86/86 88/88/88
f 85/85/85 81/81/81 86/86/86
f 89/89/89 86/86/86 87/87/87
f 89/89/89 88/88/88 86/86/86
f 89/89/89 91/91/91 90/90/90
f 89/89/89 87/87/87 91/91/91
f 92/92/92 91/91/91 93/93/93
f 92/92/92 90/90/90 91/91/91
f 35/35/35 94/94/94 66/66/66
f 35/35/35 82/82/82 94/94/94
f 71/71/71 94/94/94 93/93/93
f 71/71/71 66/66/66 94/94/94
f 92/92/92 94/94/94 95/95/95
f 92/92/92 93/93/93 94/94/94
f 83/83/83 94/94/94 82/82/82
f 83/83/83 95/95/95 94/94/94
f 14/14/14 96/96/96 13/13/13
f 14/14/14 97/97/97 96/96/96
f 12/12/12 96/96/96 98/98/98
f 12/12/12 13/13/13 96/96/96
f 99/99/99 96/96/96 100/100/100
f 99/99/99 98/98/98 96/96/96
f 101/101/101 96/96/96 97/97/97
f 101/101/101 100/100/100 96/96/96
f 35/35/35 102/102/102 79/79/79
f 35/35/35 103/103/103 102/102/102
f 14/14/14 102/102/102 97/97/97
f 14/14/14 79/79/79 102/102/102
f 101/101/101 102/102/102 104/104/104
f 101/101/101 97/97/97 102/102/102
f 105/105/105 102/102/102 103/103/103
f 105/105/105 104/104/104 102/102/102
f 12/12/12 107/107/107 106/106/106
f 12/12/12 98/98/98 107/107/107
f 25/25/25 107/107/107 108/108/108
f 25/25/25 106/106/106 107/107/107
f 109/109/109 107/107/107 110/110/110
f 109/109/109 108/108/108 107/107/107
f 99/99/99 107/107/107 98/98/98
f 99/99/99 110/110/110 107/107/107
f 25/25/25 111/111/111 28/28/28
f 25/25/25 108/108/108 111/111/111
f 35/35/35 111/111/111 103/103/103
f 35/35/35 28/28/28 111/111/111
f 105/105/105 111/111/111 112/112/112
f 105/105/105 103/103/103 111/111/111
f 109/109/109 111/111/111 108/108/108
f 109/109/109 112/112/112 111/111/111
f 105/105/105 113/113/113 104/104/104
f 105/105/105 114/114/114 113/113/113
f 101/101/101 113/113/113 115/115/115
f 101/101/101 104/104/104 113/113/113
f 24/24/24 113/113/113 23/23/23
f 24/24/24 115/115/115 113/113/113
f 22/22/22 113/113/113 114/114/114
f 22/22/22 23/23/23 113/113/113
f 101/101/101 116/116/116 100/100/100
f 101/101/101 115/115/115 116/116/116
f 99/99/99 116/116/116 117/117/117
f 99/99/99 100/100/100 116/116/116
f 16/16/16 116/116/116 19/19/19
f 16/16/16 117/117/117 116/116/116
f 24/24/24 116/116/116 115/115/115
f 24/24/24 19/19/19 116/116/116
f 99/99/99 118/118/118 110/110/110
f 99/99/99 117/117/117 118/118/118
f 109/109/109 118/118/118 119/119/119
f 109/109/109 110/110/110 118/118/118
f 20/20/20 118/118/118 17/17/17
f 20/20/20 119/119/119 118/118/118
f 16/16/16 118/118/118 117/117/117
f 16/16/16 17/17/17 118/118/118
f 109/109/109 120/120/120 112/112/112
f 109/109/109 119/119/119 120/120/120
f 105/105/105 120/120/120 114/114/114
f 105/105/105 112/112/112 120/120/120
f 22/22/22 120/120/120 21/21/21
f 22/22/22 114/114/114 120/120/120
f 20/20/20 120/120/120 119/119/119
f 20/20/20 21/21/21 120/120/120
f 92/92/92 121/121/121 90/90/90
f 92/92/92 122/122/122 121/121/121
f 89/89/89 121/121/121 123/123/123
f 89/89/89 90/90/90 121/121/121
f 64/64/64 121/121/121 63/63/63
f 64/64/64 123/123/123 121/121/121
f 62/62/62 121/121/121 122/122/122
f 62/62/62 63/63/63 121/121/121
f 89/89/89 124/124/124 88/88/88
f 89/89/89 123/123/123 124/124/124
f 85/85/85 124/124/124 125/125/125
f 85/85/85 88/88/88 124/124/124
f 56/56/56 124/124/124 59/59/59
f 56/56/56 125/125/125 124/124/124
f 64/64/64 124/124/124 123/123/123
f 64/64/64 59/59/59 124/124/124
f 85/85/85 126/126/126 84/84/84
f 85/85/85 125/125/125 126/126/126
f 83/83/83 126/126/126 127/127/127
f 83/83/83 84/84/84 126/126/126
f 60/60/60 126/126/126 57/57/57
f 60/60/60 127/127/127 126/126/126
f 56/56/56 126/126/126 125/125/125
f 56/56/56 57/57/57 126/126/126
f 83/83/83 128/128/128 95/95/95
f 83/83/83 127/127/127 128/128/128
f 92/92/92 128/128/128 122/122/122
f 92/92/92 95/95/95 128/128/128
f 62/62/62 128/128/128 61/61/61
f 62/62/62 122/122/122 128/128/128
f 60/60/60 128/128/128 127/127/127
f 60/60/60 61/61/61 128/128/128
f 1/1/1 2/2/2 129/129/129
f 1/1/1 129/129/129 130/130/130
f 5/5/5 131/131/131 129/129/129
f 5/5/5 129/129/129 2/2/2
f 132/132/132 133/133/133 129/129/129
f 132/132/132 129/129/129 131/131/131
f 134/134/134 130/130/130 129/129/129
f 134/134/134 129/129/129 133/133/133
f 5/5/5 10/10/10 135/135/135
f 5/5/5 135/135/135 131/131/131
f 12/12/12 136/136/136 135/135/135
f 12/12/12 135/135/135 10/10/10
f 137/137/137 138/138/138 135/135/135
f 137/137/137 135/135/135 136/136/136
f 132/132/132 131/131/131 135/135/135
f 132/132/132 135/135/135 138/138/138
f 139/139/139 141/141/141 140/140/140
f 139/139/139 140/140/140 142/142/142
f 143/143/143 144/144/144 140/140/140
f 143/143/143 140/140/140 141/141/141
f 145/145/145 146/146/146 140/140/140
f 145/145/145 140/140/140 144/144/144
f 147/147/147 142/142/142 140/140/140
f 147/147/147 140/140/140 146/146/146
f 25/25/25 26/26/26 148/148/148
f 25/25/25 148/148/148 149/149/149
f 29/29/29 151/151/151 150/150/150
f 29/29/29 150/150/150 32/32/32
f 152/152/152 153/153/153 150/150/150
f 152/152/152 150/150/150 151/151/151
f 154/154/154 149/149/149 148/148/148
f 154/154/154 148/148/148 155/155/155
f 29/29/29 37/37/37 156/156/156
f 29/29/29 156/156/156 151/151/151
f 39/39/39 157/157/157 156/156/156
f 39/39/39 156/156/156 37/37/37
f 158/158/158 159/159/159 156/156/156
f 158/158/158 156/156/156 157/157/157
f 152/152/152 151/151/151 156/156/156
f 152/152/152 156/156/156 159/159/159
f 39/39/39 43/43/43 160/160/160
f 39/39/39 160/160/160 157/157/157
f 1/1/1 130/130/130 160/160/160
f 1/1/1 160/160/160 43/43/43
f 134/134/134 161/161/161 160/160/160
f 134/134/134 160/160/160 130/130/130
f 158/158/158 157/157/157 160/160/160
f 158/158/158 160/160/160 161/161/161
f 134/134/134 133/133/133 162/162/162
f 134/134/134 162/162/162 163/163/163
f 132/132/132 164/164/164 162/162/162
f 132/132/132 162/162/162 133/133/133
f 165/165/165 166/166/166 162/162/162
f 165/165/165 162/162/162 164/164/164
f 167/167/167 163/163/163 162/162/162
f 167/167/167 162/162/162 166/166/166
f 132/132/132 138/138/138 168/168/168
f 132/132/132 168/168/168 164/164/164
f 137/137/137 169/169/169 168/168/168
f 137/137/137 168/168/168 138/138/138
f 170/170/170 171/171/171 168/168/168
f 170/170/170 168/168/168 169/169/169
f 165/165/165 164/164/164 168/168/168
f 165/165/165 168/168/168 171/171/171
f 172/172/172 174/174/174 173/173/173
f 172/172/172 173/173/173 175/175/175
f 176/176/176 177/177/177 173/173/173
f 176/176/176 173/173/173 174/174/174
f 178/178/178 179/179/179 173/173/173
f 178/178/178 173/173/173 177/177/177
f 180/180/180 175/175/175 173/173/173
f 180/180/180 173/173/173 179/179/179
f 154/154/154 155/155/155 181/181/181
f 154/154/154 181/181/181 182/182/182
f 152/152/152 184/184/184 183/183/183
f 152/152/152 183/183/183 153/153/153
f 185/185/185 186/186/186 183/183/183
f 185/185/185 183/183/183 184/184/184
f 187/187/187 182/182/182 181/181/181
f 187/187/187 181/181/181 188/188/188
f 152/152/152 159/159/159 189/189/189
f 152/152/152 189/189/189 184/184/184
f 158/158/158 190/190/190 189/189/189
f 158/158/158 189/189/189 159/159/159
f 191/191/191 192/192/192 189/189/189
f 191/191/191 189/189/189 190/190/190
f 185/185/185 184/184/184 189/189/189
f 185/185/185 189/189/189 192/192/192
f 158/158/158 161/161/161 193/193/193
f 158/158/158 193/193/193 190/190/190
f 134/134/134 163/163/163 193/193/193
f 134/134/134 193/193/193 161/161/161
f 167/167/167 194/194/194 193/193/193
f 167/167/167 193/193/193 163/163/163
f 191/191/191 190/190/190 193/193/193
f 191/191/191 193/193/193 194/194/194
f 137/137/137 196/196/196 195/195/195
f 137/137/137 195/195/195 197/197/197
f 154/154/154 198/198/198 195/195/195
f 154/154/154 195/195/195 196/196/196
f 199/199/199 200/200/200 195/195/195
f 199/199/199 195/195/195 198/198/198
f 201/201/201 197/197/197 195/195/195
f 201/201/201 195/195/195 200/200/200
f 170/170/170 169/169/169 202/202/202
f 170/170/170 202/202/202 203/203/203
f 137/137/137 197/197/197 202/202/202
f 137/137/137 202/202/202 169/169/169
f 201/201/201 204/204/204 202/202/202
f 201/201/201 202/202/202 197/197/197
f 205/205/205 203/203/203 202/202/202
f 205/205/205 202/202/202 204/204/204
f 205/205/205 207/207/207 206/206/206
f 205/205/205 206/206/206 203/203/203
f 208/208/208 209/209/209 206/206/206
f 208/208/208 206/206/206 207/207/207
f 154/154/154 182/182/182 210/210/210
f 154/154/154 210/210/210 198/198/198
f 187/187/187 209/209/209 210/210/210
f 187/187/187 210/210/210 182/182/182
f 208/208/208 211/211/211 210/210/210
f 208/208/208 210/210/210 209/209/209
f 199/199/199 198/198/198 210/210/210
f 199/199/199 210/210/210 211/211/211
f 137/137/137 136/136/136 212/212/212
f 137/137/137 212/212/212 213/213/213
f 12/12/12 214/214/214 212/212/212
f 12/12/12 212/212/212 136/136/136
f 215/215/215 216/216/216 212/212/212
f 215/215/215 212/212/212 214/214/214
f 217/217/217 213/213/213 212/212/212
f 217/217/217 212/212/212 216/216/216
f 154/154/154 196/196/196 218/218/218
f 154/154/154 218/218/218 219/219/219
f 137/137/137 213/213/213 218/218/218
f 137/137/137 218/218/218 196/196/196
f 217/217/217 220/220/220 218/218/218
f 217/217/217 218/218/218 213/213/213
f 221/221/221 219/219/219 218/218/218
f 221/221/221 218/218/218 220/220/220
f 12/12/12 106/106/106 222/222/222
f 12/12/12 222/222/222 214/214/214
f 25/25/25 223/223/223 222/222/222
f 25/25/25 222/222/222 106/106/106
f 224/224/224 225/225/225 222/222/222
f 224/224/224 222/222/222 223/223/223
f 215/215/215 214/214/214 222/222/222
f 215/215/215 222/222/222 225/225/225
f 25/25/25 149/149/149 226/226/226
f 25/25/25 226/226/226 223/223/223
f 154/154/154 219/219/219 226/226/226
f 154/154/154 226/226/226 149/149/149
f 221/221/221 227/227/227 226/226/226
f 221/221/221 226/226/226 219/219/219
f 224/224/224 223/223/223 226/226/226
f 224/224/224 226/226/226 227/227/227
f 221/221/221 220/220/220 228/228/228
f 221/221/221 228/228/228 229/229/229
f 217/217/217 230/230/230 228/228/228
f 217/217/217 228/228/228 220/220/220
f 147/147/147 146/146/146 228/228/228
f 147/147/147 228/228/228 230/230/230
f 145/145/145 229/229/229 228/228/228
f 145/145/145 228/228/228 146/146/146
f 217/217/217 216/216/216 231/231/231
f 217/217/217 231/231/231 230/230/230
f 215/215/215 232/232/232 231/231/231
f 215/215/215 231/231/231 216/216/216
f 139/139/139 142/142/142 231/231/231
f 139/139/139 231/231/231 232/232/232
f 147/147/147 230/230/230 231/231/231
f 147/147/147 231/231/231 142/142/142
f 215/215/215 225/225/225 233/233/233
f 215/215/215 233/233/233 232/232/232
f 224/224/224 234/234/234 233/233/233
f 224/224/224 233/233/233 225/225/225
f 143/143/143 141/141/141 233/233/233
f 143/143/143 233/233/233 234/234/234
f 139/139/139 232/232/232 233/233/233
f 139/139/139 233/233/233 141/141/141
f 224/224/224 227/227/227 235/235/235
f 224/224/224 235/235/235 234/234/234
f 221/221/221 229/229/229 235/235/235
f 221/221/221 235/235/235 227/227/227
f 145/145/145 144/144/144 235/235/235
f 145/145/145 235/235/235 229/229/229
f 143/143/143 234/234/234 235/235/235
f 143/143/143 235/235/235 144/144/144
f 208/208/208 207/207/207 236/236/236
f 208/208/208 236/236/236 237/237/237
f 205/205/205 238/238/238 236/236/236
f 205/205/205 236/236/236 207/207/207
f 180/180/180 179/179/179 236/236/236
f 180/180/180 236/236/236 238/238/238
f 178/178/178 237/237/237 236/236/236
f 178/178/178 236/236/236 179/179/179
f 205/205/205 204/204/204 239/239/239
f 205/205/205 239/239/239 238/238/238
f 201/201/201 240/240/240 239/239/239
f 201/201/201 239/239/239 204/204/204
f 172/172/172 175/175/175 239/239/239
f 172/172/172 239/239/239 240/240/240
f 180/180/180 238/238/238 239/239/239
f 180/180/180 239/239/239 175/175/175
f 201/201/201 200/200/200 241/241/241
f 201/201/201 241/241/241 240/240/240
f 199/199/199 242/242/242 241/241/241
f 199/199/199 241/241/241 200/200/200
f 176/176/176 174/174/174 241/241/241
f 176/176/176 241/241/241 242/242/242
f 172/172/172 240/240/240 241/241/241
f 172/172/172 241/241/241 174/174/174
f 199/199/199 211/211/211 243/243/243
f 199/199/199 243/243/243 242/242/242
f 208/208/208 237/237/237 243/243/243
f 208/208/208 243/243/243 211/211/211
f 178/178/178 177/177/177 243/243/243
f 178/178/178 243/243/243 237/237/237
f 176/176/176 242/242/242 243/243/243
f 176/176/176 243/243/243 177/177/177
f 244/244/244 246/246/246 245/245/245
f 244/244/244 247/247/247 246/246/246
f 248/248/248 246/246/246 249/249/249
f 248/248/248 245/245/245 246/246/246
f 250/250/250 246/246/246 251/251/251
f 250/250/250 249/249/249 246/246/246
f 252/252/252 246/246/246 247/247/247
f 252/252/252 251/251/251 246/246/246
f 248/248/248 254/254/254 253/253/253
f 248/248/248 249/249/249 254/254/254
f 255/255/255 254/254/254 256/256/256
f 255/255/255 253/253/253 254/254/254
f 257/257/257 254/254/254 258/258/258
f 257/257/257 256/256/256 254/254/254
f 250/250/250 254/254/254 249/249/249
f 250/250/250 258/258/258 254/254/254
f 259/259/259 261/261/261 260/260/260
f 259/259/259 262/262/262 261/261/261
f 263/263/263 261/261/261 264/264/264
f 263/263/263 260/260/260 261/261/261
f 265/265/265 261/261/261 266/266/266
f 265/265/265 264/264/264 261/261/261
f 267/267/267 261/261/261 262/262/262
f 267/267/267 266/266/266 261/261/261
f 268/268/268 270/270/270 269/269/269
f 268/268/268 271/271/271 270/270/270
f 272/272/272 274/274/274 273/273/273
f 272/272/272 275/275/275 274/274/274
f 276/276/276 274/274/274 277/277/277
f 276/276/276 273/273/273 274/274/274
f 278/278/278 270/270/270 271/271/271
f 278/278/278 279/279/279 270/270/270
f 272/272/272 281/281/281 280/280/280
f 272/272/272 273/273/273 281/281/281
f 282/282/282 281/281/281 283/283/283
f 282/282/282 280/280/280 281/281/281
f 284/284/284 281/281/281 285/285/285
f 284/284/284 283/283/283 281/281/281
f 276/276/276 281/281/281 273/273/273
f 276/276/276 285/285/285 281/281/281
f 282/282/282 287/287/287 286/286/286
f 282/282/282 283/283/283 287/287/287
f 244/244/244 287/287/287 247/247/247
f 244/244/244 286/286/286 287/287/287
f 252/252/252 287/287/287 288/288/288
f 252/252/252 247/247/247 287/287/287
f 284/284/284 287/287/287 283/283/283
f 284/284/284 288/288/288 287/287/287
f 252/252/252 289/289/289 251/251/251
f 252/252/252 290/290/290 289/289/289
f 250/250/250 289/289/289 291/291/291
f 250/250/250 251/251/251 289/289/289
f 165/165/165 289/289/289 166/166/166
f 165/165/165 291/291/291 289/289/289
f 167/167/167 289/289/289 290/290/290
f 167/167/167 166/166/166 289/289/289
f 250/250/250 292/292/292 258/258/258
f 250/250/250 291/291/291 292/292/292
f 257/257/257 292/292/292 293/293/293
f 257/257/257 258/258/258 292/292/292
f 170/170/170 292/292/292 171/171/171
f 170/170/170 293/293/293 292/292/292
f 165/165/165 292/292/292 291/291/291
f 165/165/165 171/171/171 292/292/292
f 294/294/294 296/296/296 295/295/295
f 294/294/294 297/297/297 296/296/296
f 298/298/298 296/296/296 299/299/299
f 298/298/298 295/295/295 296/296/296
f 300/300/300 296/296/296 301/301/301
f 300/300/300 299/299/299 296/296/296
f 302/302/302 296/296/296 297/297/297
f 302/302/302 301/301/301 296/296/296
f 278/278/278 303/303/303 279/279/279
f 278/278/278 304/304/304 303/303/303
f 276/276/276 306/306/306 305/305/305
f 276/276/276 277/277/277 306/306/306
f 185/185/185 306/306/306 186/186/186
f 185/185/185 305/305/305 306/306/306
f 187/187/187 303/303/303 304/304/304
f 187/187/187 188/188/188 303/303/303
f 276/276/276 307/307/307 285/285/285
f 276/276/276 305/305/305 307/307/307
f 284/284/284 307/307/307 308/308/308
f 284/284/284 285/285/285 307/307/307
f 191/191/191 307/307/307 192/192/192
f 191/191/191 308/308/308 307/307/307
f 185/185/185 307/307/307 305/305/305
f 185/185/185 192/192/192 307/307/307
f 284/284/284 309/309/309 288/288/288
f 284/284/284 308/308/308 309/309/309
f 252/252/252 309/309/309 290/290/290
f 252/252/252 288/288/288 309/309/309
f 167/167/167 309/309/309 194/194/194
f 167/167/167 290/290/290 309/309/309
f 191/191/191 309/309/309 308/308/308
f 191/191/191 194/194/194 309/309/309
f 257/257/257 311/311/311 310/310/310
f 257/257/257 312/312/312 311/311/311
f 278/278/278 311/311/311 313/313/313
f 278/278/278 310/310/310 311/311/311
f 314/314/314 311/311/311 315/315/315
f 314/314/314 313/313/313 311/311/311
f 316/316/316 311/311/311 312/312/312
f 316/316/316 315/315/315 311/311/311
f 170/170/170 317/317/317 293/293/293
f 170/170/170 203/203/203 317/317/317
f 257/257/257 317/317/317 312/312/312
f 257/257/257 293/293/293 317/317/317
f 316/316/316 317/317/317 318/318/318
f 316/316/316 312/312/312 317/317/317
f 319/319/319 317/317/317 203/203/203
f 319/319/319 318/318/318 317/317/317
f 319/319/319 206/206/206 320/320/320
f 319/319/319 203/203/203 206/206/206
f 321/321/321 206/206/206 209/209/209
f 321/321/321 320/320/320 206/206/206
f 278/278/278 322/322/322 304/304/304
f 278/278/278 313/313/313 322/322/322
f 187/187/187 322/322/322 209/209/209
f 187/187/187 304/304/304 322/322/322
f 321/321/321 322/322/322 323/323/323
f 321/321/321 209/209/209 322/322/322
f 314/314/314 322/322/322 313/313/313
f 314/314/314 323/323/323 322/322/322
f 257/257/257 324/324/324 256/256/256
f 257/257/257 325/325/325 324/324/324
f 255/255/255 324/324/324 326/326/326
f 255/255/255 256/256/256 324/324/324
f 327/327/327 324/324/324 328/328/328
f 327/327/327 326/326/326 324/324/324
f 329/329/329 324/324/324 325/325/325
f 329/329/329 328/328/328 324/324/324
f 278/278/278 330/330/330 310/310/310
f 278/278/278 331/331/331 330/330/330
f 257/257/257 330/330/330 325/325/325
f 257/257/257 310/310/310 330/330/330
f 329/329/329 330/330/330 332/332/332
f 329/329/329 325/325/325 330/330/330
f 333/333/333 330/330/330 331/331/331
f 333/333/333 332/332/332 330/330/330
f 255/255/255 335/335/335 334/334/334
f 255/255/255 326/326/326 335/335/335
f 268/268/268 335/335/335 336/336/336
f 268/268/268 334/334/334 335/335/335
f 337/337/337 335/335/335 338/338/338
f 337/337/337 336/336/336 335/335/335
f 327/327/327 335/335/335 326/326/326
f 327/327/327 338/338/338 335/335/335
f 268/268/268 339/339/339 271/271/271
f 268/268/268 336/336/336 339/339/339
f 278/278/278 339/339/339 331/331/331
f 278/278/278 271/271/271 339/339/339
f 333/333/333 339/339/339 340/340/340
f 333/333/333 331/331/331 339/339/339
f 337/337/337 339/339/339 336/336/336
f 337/337/337 340/340/340 339/339/339
f 333/333/333 341/341/341 332/332/332
f 333/333/333 342/342/342 341/341/341
f 329/329/329 341/341/341 343/343/343
f 329/329/329 332/332/332 341/341/341
f 267/267/267 341/341/341 266/266/266
f 267/267/267 343/343/343 341/341/341
f 265/265/265 341/341/341 342/342/342
f 265/265/265 266/266/266 341/341/341
f 329/329/329 344/344/344 328/328/328
f 329/329/329 343/343/343 344/344/344
f 327/327/327 344/344/344 345/345/345
f 327/327/327 328/328/328 344/344/344
f 259/259/259 344/344/344 262/262/262
f 259/259/259 345/345/345 344/344/344
f 267/267/267 344/344/344 343/343/343
f 267/267/267 262/262/262 344/344/344
f 327/327/327 346/346/346 338/338/338
f 327/327/327 345/345/345 346/346/346
f 337/337/337 346/346/346 347/347/347
f 337/337/337 338/338/338 346/346/346
f 263/263/263 346/346/346 260/260/260
f 263/263/263 347/347/347 346/346/346
f 259/259/259 346/346/346 345/345/345
f 259/259/259 260/260/260 346/346/346
f 337/337/337 348/348/348 340/340/340
f 337/337/337 347/347/347 348/348/348
f 333/333/333 348/348/348 342/342/342
f 333/333/333 340/340/340 348/348/348
f 265/265/265 348/348/348 264/264/264
f 265/265/265 342/342/342 348/348/348
f 263/263/263 348/348/348 347/347/347
f 263/263/263 264/264/264 348/348/348
f 321/321/321 349/349/349 320/320/320
f 321/321/321 350/350/350 349/349/349
f 319/319/319 349/349/349 351/351/351
f 319/319/319 320/320/320 349/349/349
f 302/302/302 349/349/349 301/301/301
f 302/302/302 351/351/351 349/349/349
f 300/300/300 349/349/349 350/350/350
f 300/300/300 301/301/301 349/349/349
f 319/319/319 352/352/352 318/318/318
f 319/319/319 351/351/351 352/352/352
f 316/316/316 352/352/352 353/353/353
f 316/316/316 318/318/318 352/352/352
f 294/294/294 352/352/352 297/297/297
f 294/294/294 353/353/353 352/352/352
f 302/302/302 352/352/352 351/351/351
f 302/302/302 297/297/297 352/352/352
f 316/316/316 354/354/354 315/315/315
f 316/316/316 353/353/353 354/354/354
f 314/314/314 354/354/354 355/355/355
f 314/314/314 315/315/315 354/354/354
f 298/298/298 354/354/354 295/295/295
f 298/298/298 355/355/355 354/354/354
f 294/294/294 354/354/354 353/353/353
f 294/294/294 295/295/295 354/354/354
f 314/314/314 356/356/356 323/323/323
f 314/314/314 355/355/355 356/356/356
f 321/321/321 356/356/356 350/350/350
f 321/321/321 323/323/323 356/356/356
f 300/300/300 356/356/356 299/299/299
f 300/300/300 350/350/350 356/356/356
f 298/298/298 356/356/356 355/355/355
f 298/298/298 299/299/299 356/356/356
f 244/244/244 245/245/245 357/357/357
f 244/244/244 357/357/357 358/358/358
f 248/248/248 359/359/359 357/357/357
f 248/248/248 357/357/357 245/245/245
f 360/360/360 361/361/361 357/357/357
f 360/360/360 357/357/357 359/359/359
f 362/362/362 358/358/358 357/357/357
f 362/362/362 357/357/357 361/361/361
f 248/248/248 253/253/253 363/363/363
f 248/248/248 363/363/363 359/359/359
f 255/255/255 364/364/364 363/363/363
f 255/255/255 363/363/363 253/253/253
f 365/365/365 366/366/366 363/363/363
f 365/365/365 363/363/363 364/364/364
f 360/360/360 359/359/359 363/363/363
f 360/360/360 363/363/363 366/366/366
f 367/367/367 369/369/369 368/368/368
f 367/367/367 368/368/368 370/370/370
f 371/371/371 372/372/372 368/368/368
f 371/371/371 368/368/368 369/369/369
f 373/373/373 374/374/374 368/368/368
f 373/373/373 368/368/368 372/372/372
f 375/375/375 370/370/370 368/368/368
f 375/375/375 368/368/368 374/374/374
f 268/268/268 269/269/269 376/376/376
f 268/268/268 376/376/376 377/377/377
f 272/272/272 379/379/379 378/378/378
f 272/272/272 378/378/378 275/275/275
f 380/380/380 381/381/381 378/378/378
f 380/380/380 378/378/378 379/379/379
f 382/382/382 377/377/377 376/376/376
f 382/382/382 376/376/376 383/383/383
f 272/272/272 280/280/280 384/384/384
f 272/272/272 384/384/384 379/379/379
f 282/282/282 385/385/385 384/384/384
f 282/282/282 384/384/384 280/280/280
f 386/386/386 387/387/387 384/384/384
f 386/386/386 384/384/384 385/385/385
f 380/380/380 379/379/379 384/384/384
f 380/380/380 384/384/384 387/387/387
f 282/282/282 286/286/286 388/388/388
f 282/282/282 388/388/388 385/385/385
f 244/244/244 358/358/358 388/388/388
f 244/244/244 388/388/388 286/286/286
f 362/362/362 389/389/389 388/388/388
f 362/362/362 388/388/388 358/358/358
f 386/386/386 385/385/385 388/388/388
f 386/386/386 388/388/388 389/389/389
f 362/362/362 361/361/361 390/390/390
f 362/362/362 390/390/390 391/391/391
f 360/360/360 392/392/392 390/390/390
f 360/360/360 390/390/390 361/361/361
f 49/49/49 50/50/50 390/390/390
f 49/49/49 390/390/390 392/392/392
f 51/51/51 391/391/391 390/390/390
f 51/51/51 390/390/390 50/50/50
f 360/360/360 366/366/366 393/393/393
f 360/360/360 393/393/393 392/392/392
f 365/365/365 394/394/394 393/393/393
f 365/365/365 393/393/393 366/366/366
f 54/54/54 55/55/55 393/393/393
f 54/54/54 393/393/393 394/394/394
f 49/49/49 392/392/392 393/393/393
f 49/49/49 393/393/393 55/55/55
f 395/395/395 397/397/397 396/396/396
f 395/395/395 396/396/396 398/398/398
f 399/399/399 400/400/400 396/396/396
f 399/399/399 396/396/396 397/397/397
f 401/401/401 402/402/402 396/396/396
f 401/401/401 396/396/396 400/400/400
f 403/403/403 398/398/398 396/396/396
f 403/403/403 396/396/396 402/402/402
f 382/382/382 383/383/383 404/404/404
f 382/382/382 404/404/404 405/405/405
f 380/380/380 407/407/407 406/406/406
f 380/380/380 406/406/406 381/381/381
f 69/69/69 70/70/70 406/406/406
f 69/69/69 406/406/406 407/407/407
f 71/71/71 405/405/405 404/404/404
f 71/71/71 404/404/404 72/72/72
f 380/380/380 387/387/387 408/408/408
f 380/380/380 408/408/408 407/407/407
f 386/386/386 409/409/409 408/408/408
f 386/386/386 408/408/408 387/387/387
f 75/75/75 76/76/76 408/408/408
f 75/75/75 408/408/408 409/409/409
f 69/69/69 407/407/407 408/408/408
f 69/69/69 408/408/408 76/76/76
f 386/386/386 389/389/389 410/410/410
f 386/386/386 410/410/410 409/409/409
f 362/362/362 391/391/391 410/410/410
f 362/362/362 410/410/410 389/389/389
f 51/51/51 78/78/78 410/410/410
f 51/51/51 410/410/410 391/391/391
f 75/75/75 409/409/409 410/410/410
f 75/75/75 410/410/410 78/78/78
f 365/365/365 412/412/412 411/411/411
f 365/365/365 411/411/411 413/413/413
f 382/382/382 414/414/414 411/411/411
f 382/382/382 411/411/411 412/412/412
f 415/415/415 416/416/416 411/411/411
f 415/415/415 411/411/411 414/414/414
f 417/417/417 413/413/413 411/411/411
f 417/417/417 411/411/411 416/416/416
f 54/54/54 394/394/394 418/418/418
f 54/54/54 418/418/418 87/87/87
f 365/365/365 413/413/413 418/418/418
f 365/365/365 418/418/418 394/394/394
f 417/417/417 419/419/419 418/418/418
f 417/417/417 418/418/418 413/413/413
f 420/420/420 87/87/87 418/418/418
f 420/420/420 418/418/418 419/419/419
f 420/420/420 421/421/421 91/91/91
f 420/420/420 91/91/91 87/87/87
f 422/422/422 93/93/93 91/91/91
f 422/422/422 91/91/91 421/421/421
f 382/382/382 405/405/405 423/423/423
f 382/382/382 423/423/423 414/414/414
f 71/71/71 93/93/93 423/423/423
f 71/71/71 423/423/423 405/405/405
f 422/422/422 424/424/424 423/423/423
f 422/422/422 423/423/423 93/93/93
f 415/415/415 414/414/414 423/423/423
f 415/415/415 423/423/423 424/424/424
f 365/365/365 364/364/364 425/425/425
f 365/365/365 425/425/425 426/426/426
f 255/255/255 427/427/427 425/425/425
f 255/255/255 425/425/425 364/364/364
f 428/428/428 429/429/429 425/425/425
f 428/428/428 425/425/425 427/427/427
f 430/430/430 426/426/426 425/425/425
f 430/430/430 425/425/425 429/429/429
f 382/382/382 412/412/412 431/431/431
f 382/382/382 431/431/431 432/432/432
f 365/365/365 426/426/426 431/431/431
f 365/365/365 431/431/431 412/412/412
f 430/430/430 433/433/433 431/431/431
f 430/430/430 431/431/431 426/426/426
f 434/434/434 432/432/432 431/431/431
f 434/434/434 431/431/431 433/433/433
f 255/255/255 334/334/334 435/435/435
f 255/255/255 435/435/435 427/427/427
f 268/268/268 436/436/436 435/435/435
f 268/268/268 435/435/435 334/334/334
f 437/437/437 438/438/438 435/435/435
f 437/437/437 435/435/435 436/436/436
f 428/428/428 427/427/427 435/435/435
f 428/428/428 435/435/435 438/438/438
f 268/268/268 377/377/377 439/439/439
f 268/268/268 439/439/439 436/436/436
f 382/382/382 432/432/432 439/439/439
f 382/382/382 439/439/439 377/377/377
f 434/434/434 440/440/440 439/439/439
f 434/434/434 439/439/439 432/432/432
f 437/437/437 436/436/436 439/439/439
f 437/437/437 439/439/439 440/440/440
f 434/434/434 433/433/433 441/441/441
f 434/434/434 441/441/441 442/442/442
f 430/430/430 443/443/443 441/441/441
f 430/430/430 441/441/441 433/433/433
f 375/375/375 374/374/374 441/441/441
f 375/375/375 441/441/441 443/443/443
f 373/373/373 442/442/442 441/441/441
f 373/373/373 441/441/441 374/374/374
f 430/430/430 429/429/429 444/444/444
f 430/430/430 444/444/444 443/443/443
f 428/428/428 445/445/445 444/444/444
f 428/428/428 444/444/444 429/429/429
f 367/367/367 370/370/370 444/444/444
f 367/367/367 444/444/444 445/445/445
f 375/375/375 443/443/443 444/444/444
f 375/375/375 444/444/444 370/370/370
f 428/428/428 438/438/438 446/446/446
f 428/428/428 446/446/446 445/445/445
f 437/437/437 447/447/447 446/446/446
f 437/437/437 446/446/446 438/438/438
f 371/371/371 369/369/369 446/446/446
f 371/371/371 446/446/446 447/447/447
f 367/367/367 445/445/445 446/446/446
f 367/367/367 446/446/446 369/369/369
f 437/437/437 440/440/440 448/448/448
f 437/437/437 448/448/448 447/447/447
f 434/434/434 442/442/442 448/448/448
f 434/434/434 448/448/448 440/440/440
f 373/373/373 372/372/372 448/448/448
f 373/373/373 448/448/448 442/442/442
f 371/371/371 447/447/447 448/448/448
f 371/371/371 448/448/448 372/372/372
f 422/422/422 421/421/421 449/449/449
f 422/422/422 449/449/449 450/450/450
f 420/420/420 451/451/451 449/449/449
f 420/420/420 449/449/449 421/421/421
f 403/403/403 402/402/402 449/449/449
f 403/403/403 449/449/449 451/451/451
f 401/401/401 450/450/450 449/449/449
f 401/401/401 449/449/449 402/402/402
f 420/420/420 419/419/419 452/452/452
f 420/420/420 452/452/452 451/451/451
f 417/417/417 453/453/453 452/452/452
f 417/417/417 452/452/452 419/419/419
f 395/395/395 398/398/398 452/452/452
f 395/395/395 452/452/452 453/453/453
f 403/403/403 451/451/451 452/452/452
f 403/403/403 452/452/452 398/398/398
f 417/417/417 416/416/416 454/454/454
f 417/417/417 454/454/454 453/453/453
f 415/415/415 455/455/455 454/454/454
f 415/415/415 454/454/454 416/416/416
f 399/399/399 397/397/397 454/454/454
f 399/399/399 454/454/454 455/455/455
f 395/395/395 453/453/453 454/454/454
f 395/395/395 454/454/454 397/397/397
f 415/415/415 424/424/424 456/456/456
f 415/415/415 456/456/456 455/455/455
f 422/422/422 450/450/450 456/456/456
f 422/422/422 456/456/456 424/424/424
f 401/401/401 400/400/400 456/456/456
f 401/401/401 456/456/456 450/450/450
f 399/399/399 455/455/455 456/456/456
f 399/399/399 456/456/456 400/400/400
