# Object11.bmd — MU geometry at action 0 key 0, exported for MU2
# 1 mesh(es)

g bfish073
# texture: bfish073.jpg
v 133.8427 3.245901 -22.1063
v 115.127 3.391701 -20.2182
v 107.2733 35.9654 -31.82119
v 130.338 42.3029 -31.05129
v 97.5531 4.150701 -15.1475
v 87.8568 31.2083 -21.2611
v 69.8881 60.5568 -24.86979
v 85.1256 71.02399 -37.1651
v 103.3402 84.9686 -39.0528
v 92.0879 3.9118 1.291702
v 78.325 29.6226 -1.917096
v 83.8511 4.200298 21.8083
v 74.6862 32.044 17.67341
v 58.9196 61.0237 18.95571
v 62.4392 57.0677 -4.895598
v 59.2998 89.7072 -41.66968
v 71.6531 107.7058 -45.81189
v 49.0192 76.1969 -27.90778
v 28.5618 83.9804 -29.71099
v 33.9112 99.005 -44.34599
v 40.3585 119.0211 -49.83368
v 44.011 71.6935 -7.40209
v 42.4223 72.72811 12.41771
v 25.3071 81.89119 15.22401
v 25.9612 78.9722 -8.889387
v 6.5824 102.1817 -45.32709
v 6.5936 122.8871 -51.30909
v 6.5732 86.6397 -30.37179
v -15.4181 83.99841 -29.71548
v -20.7497 99.0265 -44.35249
v -27.1756 119.0473 -49.84359
v 6.5687 81.4591 -9.43429
v 6.5674 82.7518 10.49981
v -12.1792 81.9121 15.22341
v -12.8261 78.98911 -8.893084
v -46.1481 89.7487 -41.6811
v -58.4826 107.7563 -45.82898
v -35.8832 76.2317 -27.91549
v -56.7672 60.6088 -24.87859
v -71.9929 71.0862 -37.17819
v -90.1936 85.0443 -39.07249
v -30.8827 71.7261 -7.408392
v -29.3022 72.7735 12.42041
v -45.8042 61.07931 18.95101
v -49.3242 57.11639 -4.902895
v -94.1749 36.0455 -31.82889
v -117.2336 42.4003 -31.06279
v -74.7636 31.2753 -21.2663
v -84.4878 4.3191 -15.1463
v -102.0586 3.452502 -20.2176
v -120.7793 3.472701 -22.1039
v -65.2345 29.6853 -1.921398
v -61.5949 32.1071 17.6689
v -70.7843 4.327699 21.8091
v -79.0191 3.9632 1.292102
v 98.7168 3.265896 32.0386
v 88.6702 20.0241 41.376
v 80.4112 24.33849 33.1834
v 107.8428 3.036701 51.241
v 94.5176 28.62239 49.1725
v 84.6115 45.441 47.71251
v 81.4681 39.9978 43.0127
v 76.1364 40.30379 37.8555
v 99.9959 48.4899 53.1721
v 90.7996 50.69669 50.0938
v 78.1949 88.7944 45.77241
v 79.3439 68.10439 44.9667
v 76.3328 62.85299 45.6052
v 82.1516 55.4496 48.3516
v 73.1651 39.5813 29.5181
v 67.5677 56.0849 30.3463
v 71.3705 47.0145 35.5087
v 68.7196 55.4034 36.2269
v 66.0577 74.07449 34.11131
v 70.0255 67.2352 36.82071
v 71.0035 61.64289 40.5431
v -52.9238 74.14439 34.0988
v -56.9081 67.2978 36.81071
v -54.458 56.1439 30.33841
v -65.0626 88.8669 45.75721
v -66.227 68.1778 44.95511
v -63.22 62.9236 45.59501
v -57.8909 61.7072 40.53391
v -55.6113 55.4646 36.21901
v -86.8947 48.58549 53.162
v -77.6965 50.78259 50.08421
v -94.7761 3.175693 51.24231
v -81.4308 28.71149 49.1675
v -71.512 45.5202 47.7047
v -69.0447 55.52649 48.342
v -60.0685 39.6453 29.5124
v -67.3269 24.4102 33.18
v -58.2685 47.0781 35.50191
v -63.0399 40.37249 37.84941
v -85.6463 3.265899 32.03851
v -75.5896 20.1055 41.3731
v -68.3723 40.0728 43.00621
v 28.2854 97.9966 29.08742
v 20.5347 98.7263 30.50191
v 16.1103 89.3235 24.52601
v 32.6232 119.0326 38.22551
v 17.981 109.2673 36.20311
v 13.355 104.0817 37.35581
v 15.1221 97.5379 33.73861
v 12.6141 91.4392 30.01612
v 6.5677 86.62999 22.44501
v -2.9731 89.3327 24.52401
v 6.5683 89.5936 28.73551
v 0.5237 91.4451 30.01481
v -19.4659 119.0587 38.21791
v -15.1568 98.0135 29.08331
v -7.3913 98.74 30.49851
v -4.8307 109.2787 36.20011
v -1.9804 97.5463 33.7366
v -0.209 104.0885 37.35411
v 6.5801 122.8872 38.18641
v 6.5765 113.4333 37.91991
v 6.5738 106.5037 38.49861
v 56.6338 107.7058 42.51081
v 52.7844 99.8445 41.75581
v 61.3328 89.4962 41.19401
v 41.0768 102.6897 38.152
v 42.4808 96.01619 39.7859
v 49.8609 94.1522 42.12021
v 55.3061 87.63161 41.61861
v 42.7502 75.8318 24.29742
v 35.2926 83.5113 25.52591
v 52.2122 72.9554 27.55341
v 49.5897 76.2119 32.64221
v 43.2009 78.0766 30.46281
v 38.2505 83.4126 31.25311
v 34.896 94.5388 31.49551
v 38.2707 90.7779 35.2808
v 59.6872 78.7401 34.81961
v 54.3831 80.39781 37.41251
v -29.6458 75.9158 24.32651
v -39.0765 73.0599 27.56862
v -22.21 83.5617 25.54941
v -25.2158 83.48219 31.30451
v -30.115 78.20761 30.52461
v -36.4358 76.37079 32.6783
v -46.5152 78.83429 34.80171
v -48.143 89.5502 41.14682
v -41.167 80.51888 37.38921
v -42.0693 87.67 41.54311
v -21.8119 94.5442 31.49422
v -27.9655 102.664 38.12251
v -29.3972 95.9357 39.7365
v -25.2363 90.76059 35.28461
v -43.4863 107.7564 42.49771
v -39.6236 99.84178 41.70851
v -36.6861 94.10069 42.0409
v 69.3273 60.54869 43.1034
v 74.1935 62.3276 47.9824
v 66.7606 54.9144 38.7924
v 65.476 54.5273 39.786
v 67.9447 60.7128 44.38031
v 73.2844 62.41589 49.465
v 68.5773 48.2523 37.9057
v 72.696 43.504 40.0523
v 71.6395 42.638 41.0745
v 67.0978 47.3947 38.7044
v 77.7108 44.1774 45.0196
v 80.8269 49.1607 49.6153
v 80.2267 48.56321 51.1647
v 76.9678 43.0119 46.4193
v 78.9863 56.9934 50.4175
v 78.4287 56.94369 52.3306
v 37.2932 89.315 38.0505
v 41.4817 94.6505 42.59721
v 37.2363 81.8692 33.96541
v 36.3302 80.9172 35.08651
v 36.0621 88.86711 39.4695
v 40.7538 94.462 44.19391
v 42.0883 76.5343 33.13411
v 48.3922 74.722 35.30341
v 47.9042 73.4742 36.4532
v 41.1978 75.0108 34.07351
v 53.1821 78.98491 40.11381
v 54.1544 86.28709 44.37892
v 54.0176 85.65959 46.04951
v 53.1553 77.6989 41.66401
v 48.7898 92.82779 44.92331
v 48.4899 92.81009 46.9367
v -1.5542 95.9294 36.58181
v 0.1301 102.3108 40.11761
v 0.8236 89.96109 32.95101
v 0.605 88.7505 34.18881
v -2.1698 94.9571 38.1353
v -0.1674 101.8035 41.76781
v 6.5674 88.1424 31.70551
v 12.3124 89.9554 32.95231
v 12.5297 88.7446 34.19
v 6.5666 86.49269 32.80051
v 14.694 95.92131 36.58371
v 13.0138 102.3043 40.11921
v 13.3105 101.7966 41.7695
v 15.3085 94.94841 38.13721
v 6.5727 104.6573 41.24041
v 6.5724 104.5338 43.2166
v -39.9349 79.13359 40.08601
v -40.8794 86.31929 44.27792
v -35.2307 74.92628 35.3582
v -34.7439 73.68669 36.51211
v -39.9012 77.85768 41.63511
v -40.7365 85.6916 45.94361
v -29.0205 76.7035 33.22411
v -24.2395 81.9551 34.04001
v -23.3398 81.0071 35.16541
v -28.1367 75.1916 34.17261
v -24.2982 89.27861 38.0582
v -28.42 94.5227 42.53091
v -27.6967 94.325 44.12431
v -23.0791 88.826 39.47821
v -35.6017 92.73671 44.8162
v -35.2978 92.70659 46.82081
v -64.612 44.2492 45.0126
v -67.7249 49.23669 49.60711
v -59.5972 43.5698 40.046
v -58.5416 42.703 41.06841
v -63.87 43.0833 46.41261
v -67.1252 48.639 51.1567
v -55.4747 48.3137 37.89901
v -53.6529 54.9742 38.78491
v -52.3687 54.58609 39.7787
v -53.9959 47.4549 38.69801
v -56.2159 60.61189 43.09461
v -61.0815 62.3966 47.9726
v -60.1725 62.48429 49.4554
v -54.8333 60.77489 44.37171
v -65.8786 57.0677 50.40811
v -65.3213 57.01801 52.32121
v 69.478 58.9962 44.1679
v 73.8106 59.1805 47.398
v 68.5183 54.15229 40.912
v 74.0041 52.66959 43.9785
v 68.7869 48.64279 39.7743
v 72.7371 45.9884 41.82631
v 76.4765 45.2868 45.7595
v 78.3733 50.15039 48.49549
v 77.5356 56.00649 50.2939
v 38.3065 88.1257 39.1715
v 42.5915 91.3674 42.13741
v 39.4498 82.50499 36.03801
v 45.5758 84.7607 38.8587
v 42.2638 77.3116 35.02961
v 47.4008 77.3788 37.0137
v 51.5701 79.4742 40.88601
v 51.2894 85.6414 43.3312
v 47.8948 91.03749 44.95351
v -0.2107 95.4859 37.55831
v 2.1439 100.2542 39.63561
v 2.4845 91.5715 34.61001
v 6.5702 96.4913 36.31451
v 6.5675 88.8609 33.46621
v 10.6524 91.56749 34.61101
v 13.3499 95.4791 37.55991
v 10.9985 100.2498 39.63671
v 6.5719 102.7733 41.49851
v -38.3414 79.60271 40.86191
v -38.0589 85.67079 43.25932
v -34.2451 77.53419 37.0494
v -32.4451 84.79979 38.8508
v -29.1863 77.46001 35.10431
v -26.4146 82.5731 36.08901
v -25.2885 88.09889 39.17711
v -29.5054 91.289 42.0882
v -34.7161 90.96669 44.86242
v -63.377 45.3576 45.75251
v -65.2704 50.22369 48.48741
v -59.6367 46.0547 41.8195
v -60.8988 52.7376 43.97051
v -55.6842 48.70479 39.76751
v -55.4115 54.2143 40.90441
v -56.3679 59.05969 44.15931
v -60.7009 59.249 47.38891
v -64.4285 56.0794 50.28491
v 149.1818 48.6404 -17.7289
v 147.1688 2.352799 -8.863997
v 157.652 2.3411 6.151102
v 158.2729 53.3975 2.41731
v 125.7905 109.3806 -10.4838
v 118.3809 98.9133 -28.60709
v 154.1804 54.9832 23.59031
v 151.5238 1.832699 22.353
v 145.0194 2.070297 43.4852
v 143.4214 58.77959 40.55149
v 109.3664 114.6951 31.50841
v 122.6722 112.8696 10.60492
v 81.9428 125.7044 -37.81917
v 87.0966 139.2147 -21.4327
v 48.4852 154.0618 -27.96948
v 45.756 139.0372 -43.31059
v 85.0454 143.7181 -0.424074
v 79.9934 142.6835 18.8067
v 43.8048 156.1765 16.83832
v 47.434 159.0701 -7.012482
v 6.603 143.5926 -45.32698
v 6.6077 159.1346 -30.37169
v -35.2755 154.0962 -27.98549
v -32.5553 139.0681 -43.32399
v 6.6059 164.3152 -9.434282
v 6.6013 163.0225 10.49982
v -30.6173 156.2043 16.82742
v -34.2279 159.1056 -7.028585
v -68.7569 125.764 -37.84238
v -73.9033 139.281 -21.46028
v -112.6277 109.4799 -10.51549
v -105.2233 99.00251 -28.63369
v -71.8553 143.7867 -0.451998
v -66.8026 142.7393 18.78741
v -96.201 114.7958 31.47931
v -109.5121 112.9723 10.57301
v -136.0728 48.7552 -17.7444
v -145.162 53.5254 2.398907
v -144.5896 2.6264 6.154703
v -134.101 2.4322 -8.862998
v -141.0707 55.11539 23.5718
v -130.3109 58.9095 40.533
v -131.955 2.303897 43.488
v -138.4561 1.921498 22.3542
v 127.095 26.52539 54.85061
v 127.0045 2.144798 42.0619
v 136.2527 38.2877 52.5001
v 115.2818 34.00389 56.3553
v 112.7986 59.9558 56.83319
v 120.5825 58.08561 55.8599
v 125.4415 65.093 53.8094
v 105.0404 58.39069 54.6643
v 96.7648 83.2038 49.8688
v 101.7343 83.9012 52.8847
v 105.8107 71.2155 55.60731
v 131.3551 69.5062 48.1936
v 114.4372 95.22329 43.5348
v 121.9383 79.65059 51.0166
v 113.1592 91.3508 48.9622
v 100.3049 96.87349 44.85661
v 92.919 105.1545 40.64911
v 105.0325 91.5091 50.04461
v -87.1663 96.96668 44.83471
v -79.7578 105.2568 40.6226
v -101.2996 95.3292 43.51011
v -83.6375 83.2953 49.85091
v -88.6071 83.9983 52.86571
v -91.8991 91.6084 50.02291
v -100.0256 91.4572 48.93891
v -91.9322 58.4916 54.65111
v -102.1915 34.11499 56.3475
v -99.6895 60.0647 56.8186
v -92.6932 71.31739 55.5907
v -118.2378 69.62869 48.17331
v -123.159 38.41619 52.48941
v -108.8138 79.76579 50.9948
v -112.3282 65.21249 53.79141
v -114.01 26.6466 54.8443
v -113.934 2.144698 42.0619
v -107.4746 58.2014 55.8447
v 27.3867 143.7976 30.89161
v 38.2976 140.1215 29.95831
v 23.6764 154.6174 24.84962
v 20.8158 134.6737 36.32441
v 15.9384 140.9593 37.42581
v 19.7923 146.9369 33.90681
v 17.0751 153.6018 30.13691
v 6.5973 159.1443 22.44512
v -10.4865 154.6338 24.84302
v 6.5948 156.1808 28.73561
v -3.888 153.6121 30.13292
v -14.2077 143.818 30.88421
v -25.1424 140.1463 29.94951
v -7.645801 134.6879 36.31971
v -6.6118 146.95 33.90201
v -2.7638 140.9686 37.42251
v 6.5838 132.341 37.91991
v 6.5864 139.2706 38.49871
v 60.5163 115.5671 43.07071
v 74.3426 109.4501 43.90141
v 49.356 125.8254 39.22521
v 55.4823 128.5543 41.64781
v 63.155 121.2594 44.38092
v 72.829 117.1132 45.05021
v 75.7573 139.5798 29.91032
v 58.1682 145.0039 28.49101
v 88.1477 125.9909 35.03181
v 81.509 128.5329 38.89302
v 73.294 137.335 35.58021
v 61.9372 141.158 34.6452
v 48.7213 137.5578 33.09542
v 55.4159 136.4984 37.57922
v 85.2476 114.0166 40.44671
v 79.9929 120.4698 42.64082
v -62.5488 139.5969 29.91282
v -74.8987 126.0837 35.00912
v -45.0351 144.9842 28.50541
v -48.8448 141.0744 34.68931
v -60.0601 137.3051 35.60882
v -68.183 128.625 38.87782
v -72.0285 114.157 40.40731
v -61.1748 109.5935 43.8536
v -66.7014 120.6568 42.58581
v -59.62851 117.3257 44.97201
v -35.6306 137.566 33.09262
v -36.2667 125.8819 39.19751
v -42.4644 128.621 41.60839
v -42.4006 136.4716 37.58822
v -47.3932 115.671 43.02761
v -50.0563 121.412 44.31102
v 105.3067 92.33679 53.16081
v 101.6288 85.5632 55.8099
v 112.7919 92.9764 51.9254
v 112.8451 94.2292 53.2543
v 104.6831 93.99429 54.5697
v 101.1124 86.34059 57.3773
v 120.185 84.0976 53.4614
v 122.9021 72.54739 55.8991
v 123.5637 72.4584 57.50261
v 120.9766 84.9551 54.9448
v 118.1228 66.2907 57.9483
v 110.7545 66.8907 59.0615
v 110.7354 66.5332 60.8173
v 118.6837 65.3746 59.8288
v 104.5954 75.3564 58.13671
v 104.0029 75.4061 60.0392
v 55.3387 138.1028 40.46061
v 55.4399 130.0334 44.59092
v 61.932 142.8148 37.49293
v 61.5586 144.2498 38.65001
v 54.1499 139.5153 41.82272
v 54.7856 130.7049 46.1759
v 73.4611 138.8772 38.4691
v 81.8083 129.8683 41.85881
v 82.6519 130.4505 43.3204
v 73.9911 140.4008 39.65013
v 80.2891 121.668 45.65992
v 73.0444 118.3032 48.08461
v 73.3476 118.2651 49.86981
v 81.416 121.458 47.53321
v 63.2394 122.5837 47.38052
v 62.857 122.6015 49.37991
v -6.3324 148.6261 36.74851
v -2.5819 142.7797 40.18861
v -3.6488 155.1294 33.06801
v -4.2761 156.2589 34.32371
v -7.536201 149.3619 38.33982
v -3.0862 143.2059 41.84851
v 6.5948 157.6319 31.70562
v 16.8359 155.1193 33.07191
v 17.4637 156.2481 34.32791
v 6.5953 159.2816 32.80061
v 19.5131 148.6132 36.75331
v 15.7569 142.7705 40.19181
v 16.2609 143.1961 41.85201
v 20.7169 149.3477 38.34501
v 6.5867 141.117 41.24051
v 6.5863 141.2405 43.21671
v -66.9426 121.9046 45.59021
v -59.8245 118.5774 47.98161
v -68.4164 129.9704 41.84591
v -69.2466 130.5577 43.30682
v -68.0544 121.7148 47.45811
v -60.1255 118.5528 49.762
v -60.2023 138.8092 38.5182
v -48.8741 142.6746 37.56311
v -48.5086 144.0983 38.72551
v -60.7235 140.3211 39.7053
v -42.3873 138.0449 40.4801
v -42.4812 130.1069 44.54193
v -41.8379 130.7803 46.12461
v -41.2197 139.4488 41.84541
v -50.1639 122.776 47.28871
v -49.7892 122.8061 49.28122
v -105.0093 66.40489 57.931
v -97.6408 66.99839 59.04521
v -109.7837 72.66529 55.8792
v -110.4456 72.5775 57.48271
v -105.5711 65.4901 59.81181
v -97.6222 66.64149 60.80121
v -107.0577 84.2121 53.43861
v -99.6578 93.0835 51.90171
v -99.7104 94.33678 53.23021
v -107.8491 85.07081 54.9216
v -92.1734 92.43729 53.13891
v -88.501 85.66111 55.79041
v -87.9844 86.4385 57.3578
v -91.5489 94.0947 54.54761
v -91.4754 75.458 58.11931
v -90.8832 75.5078 60.02191
v 106.5446 90.75229 54.665
v 104.856 84.16458 56.4105
v 112.7987 89.1927 53.76661
v 112.3061 79.6801 55.5237
v 118.9776 83.70699 54.9029
v 119.7955 74.99278 56.49
v 117.3466 68.70889 58.7254
v 111.3685 70.8308 58.77711
v 105.8728 76.34329 58.8355
v 57.4683 137.59 41.843
v 59.2123 130.72 44.6479
v 64.0154 139.5824 39.74861
v 68.2775 130.6509 42.71922
v 72.6689 138.1 40.20012
v 77.7405 130.5933 42.7333
v 78.5121 123.6794 46.25572
v 71.8187 122.3308 47.20132
v 64.0742 124.3741 47.70491
v -4.310201 149.4247 37.67871
v 0.0338 145.1846 39.67421
v -0.4904 153.8674 34.66452
v 6.5907 149.283 36.31451
v 6.5942 156.9134 33.46622
v 13.676 153.8603 34.66732
v 17.4912 149.4138 37.68281
v 13.1431 145.178 39.67662
v 6.5873 143.001 41.49861
v -65.1917 123.8859 46.19392
v -58.6098 122.5417 47.12202
v -64.4179 130.6783 42.72062
v -55.1125 130.713 42.69941
v -59.4253 138.0527 40.23841
v -50.92 139.5009 39.7915
v -44.4815 137.547 41.85742
v -46.1948 130.785 44.6098
v -50.9847 124.5461 47.62451
v -104.2315 68.82269 58.70751
v -98.2518 70.93909 58.75961
v -106.6754 75.10809 56.47001
v -99.1825 79.78809 55.5037
v -105.8509 83.8209 54.88051
v -99.6677 89.30038 53.7439
v -93.4127 90.85448 54.64311
v -91.7292 84.26571 56.39071
v -92.7522 76.44629 58.81761
vn 0.344292 -0.230695 -0.910079
vn -0.184795 -0.368991 -0.910877
vn -0.176302 -0.294303 -0.93931
vn 0.338203 -0.079501 -0.937709
vn -0.618385 -0.425089 -0.660984
vn -0.613279 -0.413186 -0.673177
vn -0.528003 -0.579603 -0.620704
vn -0.160499 -0.327297 -0.931191
vn 0.249493 0.0032 -0.968372
vn -0.824185 -0.478891 -0.302295
vn -0.844988 -0.463193 -0.267296
vn -0.869209 -0.452805 0.198602
vn -0.916709 -0.399504 0.0064
vn -0.721023 -0.589718 0.363811
vn -0.730877 -0.656279 -0.187394
vn -0.102596 -0.431484 -0.896268
vn 0.165404 0.001 -0.986225
vn -0.351993 -0.755185 -0.552989
vn -0.175603 -0.837713 -0.517108
vn -0.053899 -0.483688 -0.873579
vn 0.086801 0.0052 -0.996212
vn -0.487604 -0.862906 -0.132801
vn -0.529791 -0.840186 0.115798
vn -0.264901 -0.846503 0.461802
vn -0.248005 -0.965921 -0.074102
vn -0.0001 -0.495579 -0.868563
vn 0.0001 -0.0004 -1
vn -0.0003 -0.865727 -0.500516
vn 0.175001 -0.837904 -0.517003
vn 0.053801 -0.48381 -0.873518
vn -0.086503 0.0052 -0.996238
vn -0.0005 -0.996985 -0.077599
vn -0.0006 -0.982188 0.187898
vn 0.263596 -0.846587 0.462393
vn 0.24721 -0.96614 -0.073903
vn 0.102399 -0.431695 -0.896189
vn -0.165193 0.001 -0.986261
vn 0.3514 -0.755599 -0.5528
vn 0.527596 -0.580196 -0.620496
vn 0.160395 -0.32769 -0.931071
vn -0.249305 0.0032 -0.96842
vn 0.486885 -0.863374 -0.132396
vn 0.529009 -0.840414 0.117702
vn 0.720588 -0.58989 0.364394
vn 0.730397 -0.656897 -0.187099
vn 0.176099 -0.294798 -0.939193
vn -0.338198 -0.079699 -0.937694
vn 0.612698 -0.414499 -0.672898
vn 0.617818 -0.426012 -0.660919
vn 0.184402 -0.369104 -0.910911
vn -0.344891 -0.230594 -0.909877
vn 0.844492 -0.464096 -0.267298
vn 0.916277 -0.40049 0.0066
vn 0.869079 -0.453189 0.198295
vn 0.823667 -0.479281 -0.303088
vn -0.602713 -0.632414 0.486611
vn -0.660193 -0.402896 0.633893
vn -0.817496 -0.367798 0.443198
vn -0.288911 -0.25001 0.924135
vn -0.464995 -0.184898 0.86579
vn -0.159902 -0.261703 0.95181
vn -0.523027 -0.481125 0.703536
vn -0.744884 -0.584188 0.322293
vn -0.279402 -0.0384 0.959406
vn -0.274997 0.0105 0.961388
vn -0.229703 -0.0096 0.973214
vn -0.497307 0.132402 0.857412
vn -0.160291 0.709762 0.685963
vn 0.270615 0.280716 0.920851
vn -0.897363 -0.361085 0.253689
vn -0.916289 -0.173898 0.360796
vn -0.876047 -0.436524 -0.204911
vn -0.982128 0.056902 -0.179405
vn -0.540105 -0.364003 0.758807
vn -0.802353 0.054397 0.594365
vn -0.808694 0.530996 0.253098
vn 0.539903 -0.364102 0.758904
vn 0.802296 0.0538 0.594497
vn 0.916079 -0.174596 0.360992
vn 0.229703 -0.0095 0.973214
vn 0.497278 0.132194 0.857461
vn 0.160801 0.709802 0.685802
vn 0.809089 0.530393 0.253097
vn 0.982194 0.0561 -0.179299
vn 0.279191 -0.038399 0.959468
vn 0.274812 0.0105 0.961441
vn 0.288619 -0.249516 0.92436
vn 0.464694 -0.185198 0.865888
vn 0.159594 -0.261691 0.951866
vn -0.270492 0.281092 0.920772
vn 0.897002 -0.361901 0.253801
vn 0.817234 -0.368716 0.442919
vn 0.875689 -0.437295 -0.204798
vn 0.744396 -0.584697 0.322498
vn 0.603817 -0.630818 0.487314
vn 0.660038 -0.402923 0.634037
vn 0.522514 -0.481413 0.703719
vn -0.203895 -0.491488 0.846679
vn 0.355504 -0.506706 0.785409
vn 0.2636 -0.734601 0.625201
vn -0.0871 0.0023 0.996197
vn 0.238898 -0.243998 0.93989
vn 0.618505 0.205602 0.758406
vn 0.836679 -0.311492 0.450489
vn 0.58492 -0.793627 0.167406
vn -0.0005 -0.88458 0.466389
vn -0.264403 -0.734308 0.625207
vn -0.0005 -0.999992 0.004
vn -0.585688 -0.793084 0.167297
vn 0.086604 0.0022 0.996241
vn 0.202899 -0.491698 0.846797
vn -0.355995 -0.506392 0.785388
vn -0.239403 -0.243803 0.939812
vn -0.837027 -0.31081 0.450314
vn -0.618535 0.206112 0.758243
vn -0.0001 -0 1
vn -0.0002 -0.038299 0.999266
vn 0.0001 0.495428 0.868649
vn -0.164593 -0.0015 0.98636
vn -0.161098 -0.0101 0.986887
vn -0.058699 -0.327896 0.942889
vn -0.477119 -0.066303 0.876334
vn -0.533689 0.529889 0.659086
vn 0.181407 0.478519 0.859134
vn 0.592265 -0.081095 0.801652
vn -0.519809 -0.764713 0.380806
vn -0.6872 -0.5015 0.5256
vn -0.239197 -0.774889 0.585092
vn 0.099898 -0.989076 0.108397
vn -0.514608 -0.847313 -0.131302
vn -0.92177 -0.387488 -0.0139
vn -0.683802 -0.251101 0.685102
vn -0.952497 0.1441 0.268299
vn -0.061402 -0.627217 0.776421
vn 0.563887 -0.669385 0.483689
vn 0.518574 -0.763762 0.384381
vn 0.239702 -0.772905 0.587504
vn 0.684779 -0.501885 0.528384
vn 0.92047 -0.390787 -0.0046
vn 0.515428 -0.848346 -0.121007
vn -0.096001 -0.98841 0.117601
vn 0.063501 -0.625907 0.777308
vn 0.060998 -0.328688 0.942467
vn -0.558021 -0.669625 0.490118
vn -0.585014 -0.084402 0.806619
vn 0.681397 -0.252999 0.686797
vn 0.476198 -0.0694 0.876596
vn 0.534696 0.521296 0.665095
vn 0.95116 0.138694 0.275788
vn 0.164399 -0.0015 0.986393
vn 0.163005 -0.0136 0.986532
vn -0.175795 0.471486 0.864174
vn -0.467605 0.83741 -0.283003
vn 0.176593 0.964062 0.198492
vn -0.718288 0.292895 -0.63109
vn -0.984541 -0.026701 0.173107
vn -0.843197 0.369499 0.390499
vn -0.451107 0.444307 0.774012
vn -0.593301 -0.3767 -0.711401
vn -0.30951 -0.924328 -0.223207
vn -0.561486 -0.79198 0.239794
vn -0.88525 -0.464326 0.027101
vn 0.209195 -0.918376 0.335891
vn 0.637572 -0.321786 0.699969
vn 0.051799 -0.40919 0.910978
vn -0.133901 -0.810306 0.570504
vn 0.716522 0.438613 0.542416
vn 0.013 0.144601 0.989405
vn -0.84351 0.466105 -0.266903
vn -0.352397 0.926693 0.130599
vn -0.821488 -0.130498 -0.555092
vn -0.846583 -0.453091 0.279294
vn -0.879435 -0.025801 0.475319
vn -0.550818 0.274409 0.788226
vn -0.306807 -0.628415 -0.714817
vn 0.413208 -0.792414 -0.448708
vn -0.053998 -0.934068 0.352988
vn -0.540421 -0.832532 0.121805
vn 0.901575 -0.430588 -0.041899
vn 0.932834 0.191007 0.305511
vn 0.319218 -0.218912 0.922051
vn 0.323007 -0.688614 0.649213
vn 0.467594 0.810489 0.352795
vn 0.027701 0.276808 0.960526
vn -0.9958 -0.0068 -0.0913
vn -0.759389 0.600691 0.249996
vn -0.720475 -0.556281 -0.414086
vn -0.459403 -0.788406 0.409103
vn -0.660862 -0.407776 0.630064
vn -0.482613 0.0045 0.875823
vn -0.0003 -0.782388 -0.622791
vn 0.720072 -0.556878 -0.413984
vn 0.458572 -0.788852 0.409175
vn -0.0005 -0.973685 0.227897
vn 0.995822 -0.0076 -0.091002
vn 0.75984 0.600031 0.250213
vn 0.482375 0.0041 0.875955
vn 0.660404 -0.408302 0.630203
vn 0.0004 0.930266 0.366887
vn 0 0.285008 0.958525
vn -0.900346 -0.433822 -0.034302
vn -0.930496 0.188799 0.313899
vn -0.411005 -0.79781 -0.441106
vn 0.054799 -0.932576 0.356791
vn -0.320687 -0.687373 0.651674
vn -0.316208 -0.219605 0.922923
vn 0.311005 -0.634811 -0.707312
vn 0.825575 -0.135096 -0.547883
vn 0.844683 -0.454091 0.283394
vn 0.539697 -0.832195 0.127199
vn 0.847715 0.462808 -0.259205
vn 0.357003 0.923507 0.140301
vn 0.550218 0.270409 0.790025
vn 0.877475 -0.028299 0.478787
vn -0.463923 0.808439 0.362218
vn -0.025 0.272997 0.96169
vn -0.210003 -0.918114 0.336105
vn -0.637938 -0.321119 0.699941
vn 0.308685 -0.924656 -0.22299
vn 0.560802 -0.792402 0.240001
vn 0.1331 -0.8103 0.5707
vn -0.052299 -0.408892 0.911083
vn 0.593014 -0.377309 -0.711317
vn 0.718674 0.29219 -0.630977
vn 0.984503 -0.0275 0.173201
vn 0.884851 -0.465074 0.027298
vn 0.468413 0.836923 -0.283108
vn -0.175694 0.964267 0.198293
vn 0.451406 0.444006 0.77401
vn 0.84344 0.368817 0.390619
vn -0.716194 0.439296 0.542296
vn -0.013 0.144796 0.989376
vn -0.467815 -0.464015 0.752224
vn -0.639524 -0.429916 0.637324
vn -0.446494 -0.322396 0.834688
vn -0.64779 -0.248096 0.720289
vn -0.469699 -0.1482 0.870299
vn -0.624612 -0.051801 0.779215
vn -0.759062 -0.0081 0.650968
vn -0.805124 -0.160005 0.571117
vn -0.786875 -0.33249 0.519883
vn -0.109298 -0.53149 0.839984
vn -0.280002 -0.583905 0.762006
vn -0.166906 -0.403714 0.899532
vn -0.384111 -0.428513 0.817824
vn -0.281999 -0.2674 0.921398
vn -0.469793 -0.253196 0.845687
vn -0.612532 -0.275614 0.740839
vn -0.578304 -0.427403 0.694904
vn -0.472084 -0.573881 0.669177
vn 0.321208 -0.461911 0.826719
vn 0.193306 -0.599317 0.776822
vn 0.1915 -0.3635 0.911699
vn -0.0003 -0.497022 0.867738
vn -0.0002 -0.282914 0.959145
vn -0.192102 -0.363404 0.911611
vn -0.321906 -0.461609 0.826616
vn -0.194102 -0.599207 0.776709
vn -0.0004 -0.690925 0.722926
vn 0.614033 -0.274415 0.74004
vn 0.5794 -0.4282 0.693499
vn 0.469881 -0.25109 0.846266
vn 0.383504 -0.428704 0.818008
vn 0.280192 -0.264892 0.922673
vn 0.164199 -0.402898 0.900395
vn 0.106 -0.532601 0.839702
vn 0.278397 -0.585993 0.760991
vn 0.472168 -0.576161 0.667155
vn 0.759017 -0.0086 0.651014
vn 0.804897 -0.160499 0.571298
vn 0.62449 -0.052199 0.779287
vn 0.6474 -0.2485 0.7205
vn 0.469489 -0.148396 0.870379
vn 0.446107 -0.322605 0.834814
vn 0.46721 -0.46431 0.752417
vn 0.639096 -0.430297 0.637496
vn 0.78651 -0.333004 0.520106
vn 0.73649 0.071199 -0.672691
vn 0.753727 -0.155105 -0.638623
vn 0.991088 -0.064599 -0.116499
vn 0.962176 0.229494 -0.146796
vn 0.761231 0.583223 -0.283511
vn 0.581832 0.336919 -0.740241
vn 0.915173 0.260592 0.307491
vn 0.944754 -0.054697 0.323184
vn 0.707219 -0.069002 0.703619
vn 0.767671 0.303389 0.564479
vn 0.530808 0.596109 0.602409
vn 0.729184 0.657385 0.190096
vn 0.397001 0.439401 -0.805802
vn 0.513495 0.756292 -0.405396
vn 0.261497 0.842989 -0.470094
vn 0.200306 0.484716 -0.851427
vn 0.501991 0.863984 0.039199
vn 0.459597 0.841294 0.284598
vn 0.186306 0.860029 0.475016
vn 0.257201 0.965904 -0.0296
vn 0.0003 0.505512 -0.86282
vn 0.0005 0.865976 -0.500086
vn -0.260602 0.843206 -0.470203
vn -0.199608 0.484819 -0.851533
vn 0.0004 0.997767 -0.066798
vn 0.0004 0.982034 0.188707
vn -0.185797 0.859986 0.475293
vn -0.25631 0.966138 -0.029701
vn -0.396397 0.439596 -0.805993
vn -0.512726 0.756639 -0.405721
vn -0.760689 0.583792 -0.283796
vn -0.581423 0.337213 -0.740429
vn -0.501223 0.864439 0.039002
vn -0.458494 0.841489 0.285796
vn -0.530084 0.596782 0.602381
vn -0.728703 0.658003 0.189801
vn -0.736328 0.071603 -0.672826
vn -0.961992 0.230198 -0.146899
vn -0.99117 -0.063698 -0.116297
vn -0.753883 -0.154496 -0.638586
vn -0.914982 0.261495 0.307294
vn -0.767509 0.304304 0.564207
vn -0.707626 -0.067803 0.703326
vn -0.944831 -0.053802 0.323111
vn 0.195204 -0.146103 0.969819
vn 0.154694 -0.459382 0.874665
vn 0.597914 0.079402 0.797618
vn -0.115601 -0.0744 0.990506
vn -0.214507 -0.204707 0.95503
vn 0.257589 -0.069397 0.963759
vn 0.621221 0.127304 0.773226
vn -0.331116 -0.016601 0.943444
vn -0.338512 0.232708 0.911733
vn -0.86885 0.161109 0.468127
vn -0.749194 -0.239598 0.617495
vn 0.715871 0.381684 0.584676
vn 0.41352 0.62433 0.662732
vn 0.845483 0.469891 0.253695
vn 0.471584 0.87437 0.114396
vn -0.070903 0.554527 0.82914
vn 0.134597 0.354593 0.925282
vn -0.390701 0.833302 0.391101
vn 0.0711 0.554703 0.829005
vn -0.134196 0.35529 0.925073
vn -0.413198 0.624897 0.662397
vn 0.338512 0.232708 0.911733
vn 0.868877 0.160496 0.468288
vn 0.391305 0.833111 0.390905
vn -0.470896 0.874792 0.113999
vn 0.330995 -0.0167 0.943485
vn 0.115503 -0.074302 0.990524
vn 0.214109 -0.204609 0.95514
vn 0.748898 -0.24 0.617699
vn -0.715617 0.382409 0.584514
vn -0.597709 0.080001 0.797712
vn -0.845184 0.470591 0.253395
vn -0.621213 0.128003 0.773117
vn -0.195708 -0.145306 0.969838
vn -0.156498 -0.457195 0.875489
vn -0.25781 -0.068903 0.963736
vn 0.365389 0.419488 0.830976
vn 0.051 0.492701 0.868703
vn 0.277611 0.729229 0.625425
vn 0.241101 0.160101 0.957203
vn 0.493183 -0.316589 0.810273
vn 0.824423 0.224106 0.519715
vn 0.566903 0.805904 0.170701
vn 0.0003 0.907068 0.420985
vn -0.277199 0.729496 0.625297
vn 0.0005 0.999999 -0.0013
vn -0.566287 0.806381 0.170496
vn -0.365302 0.419902 0.830805
vn -0.0512 0.492697 0.868694
vn -0.24121 0.160307 0.957141
vn -0.824422 0.224806 0.519414
vn -0.493795 -0.316097 0.810092
vn -0.0002 0.0122 0.999926
vn -0.0004 -0.503187 0.864178
vn -0.187207 -0.012801 0.982237
vn 0.108101 -0.0076 0.994111
vn -0.31121 0.257008 0.914929
vn -0.781671 -0.090597 0.617077
vn -0.461599 -0.482799 0.744199
vn 0.090098 -0.591189 0.801485
vn 0.389083 0.786766 0.47918
vn 0.0132 0.797572 0.603079
vn 0.483623 0.486623 0.727535
vn 0.87375 0.396623 0.281516
vn 0.531714 0.845922 0.041201
vn -0.113604 0.991837 0.057902
vn -0.2691 0.563999 0.780699
vn -0.758489 0.572692 0.310996
vn 0.368399 0.1617 0.915497
vn 0.749508 -0.258103 0.609607
vn -0.3871 0.785899 0.4822
vn -0.480995 0.487195 0.728893
vn -0.0135 0.795804 0.605403
vn 0.112102 0.991221 0.070102
vn -0.529228 0.846945 0.051003
vn -0.868607 0.400903 0.291202
vn -0.366786 0.164394 0.915665
vn -0.108598 -0.0041 0.994077
vn -0.745775 -0.248092 0.61828
vn -0.092397 -0.58068 0.808872
vn 0.266505 0.56341 0.782013
vn 0.308298 0.258499 0.915495
vn 0.775906 -0.084201 0.625205
vn 0.751767 0.575475 0.321986
vn 0.184806 -0.0094 0.98273
vn 0.457502 -0.475802 0.751203
vn -0.577506 0.641607 -0.504805
vn -0.98025 0.031798 -0.19519
vn 0.329799 0.770497 -0.545498
vn 0.361702 0.830604 0.423402
vn -0.371598 0.823696 0.428298
vn -0.666618 0.272207 0.693919
vn 0.878403 0.376401 -0.294501
vn 0.986938 -0.103204 0.123705
vn 0.792978 -0.0091 0.609183
vn 0.739599 0.463099 0.488399
vn 0.446286 -0.765876 0.462885
vn -0.485198 -0.759497 0.433298
vn -0.252995 -0.504389 0.825582
vn 0.436107 -0.572609 0.694211
vn -0.901921 -0.42901 0.049901
vn -0.590103 -0.154001 0.792504
vn -0.876762 0.218191 -0.428581
vn -0.908306 -0.418303 0.0016
vn -0.186308 0.73183 -0.655526
vn -0.081196 0.963051 0.256787
vn -0.697429 0.589925 0.406917
vn -0.654487 0.034499 0.755285
vn 0.526811 0.621614 -0.579713
vn 0.922907 0.134401 -0.360803
vn 0.777398 0.430299 0.458799
vn 0.483791 0.834985 0.262195
vn 0.75249 -0.650891 -0.100499
vn 0.0224 -0.984807 0.172201
vn 0.110595 -0.437979 0.892157
vn 0.71762 -0.210006 0.664018
vn -0.565718 -0.809025 0.159505
vn -0.376 -0.3112 0.8728
vn -0.97325 -0.176809 -0.146708
vn -0.586015 -0.76612 0.263907
vn -0.667862 0.553069 -0.498072
vn -0.507395 0.799091 0.322497
vn -0.789393 0.246798 0.562095
vn -0.448104 -0.185102 0.874608
vn 0.0005 0.776548 -0.630058
vn 0.668571 0.552476 -0.497778
vn 0.50801 0.798616 0.322706
vn 0.0004 0.981493 0.191499
vn 0.973155 -0.177592 -0.146393
vn 0.585189 -0.766686 0.264095
vn 0.447593 -0.185497 0.874787
vn 0.78944 0.246112 0.562329
vn -0.0005 -0.935967 0.352088
vn -0.0003 -0.337894 0.941184
vn -0.758673 -0.645677 -0.086697
vn -0.026 -0.982282 0.185597
vn -0.925804 0.141301 -0.350601
vn -0.774277 0.432187 0.462286
vn -0.716018 -0.204305 0.667517
vn -0.112697 -0.432687 0.894473
vn -0.528028 0.628033 -0.57163
vn 0.186297 0.740788 -0.645389
vn 0.080903 0.961832 0.261409
vn -0.481584 0.834773 0.266891
vn 0.879973 0.226793 -0.417387
vn 0.910157 -0.414081 0.012299
vn 0.651568 0.037498 0.757663
vn 0.693813 0.591211 0.411208
vn 0.565297 -0.807096 0.170399
vn 0.373312 -0.30731 0.875328
vn -0.44701 -0.765317 0.46311
vn 0.484489 -0.759783 0.43359
vn -0.987046 -0.102405 0.123506
vn -0.793068 -0.0084 0.609075
vn -0.436712 -0.572016 0.69432
vn 0.252391 -0.504382 0.825771
vn -0.878035 0.377015 -0.294812
vn -0.328988 0.770572 -0.54588
vn -0.360989 0.831074 0.423087
vn -0.739297 0.463898 0.488098
vn 0.578128 0.641031 -0.504824
vn 0.980313 0.031 -0.195003
vn 0.666682 0.271893 0.693981
vn 0.372309 0.823421 0.428211
vn 0.90158 -0.42969 0.050199
vn 0.589908 -0.154202 0.79261
vn 0.228606 0.157304 0.960726
vn 0.31869 0.248992 0.914571
vn 0.059499 0.139098 0.98849
vn 0.149306 0.25011 0.956636
vn -0.082402 0.150804 0.985124
vn -0.0298 0.249903 0.967812
vn 0.082298 0.34639 0.934474
vn 0.239507 0.34971 0.905726
vn 0.358586 0.327488 0.874167
vn 0.216414 0.386924 0.896357
vn 0.233916 0.489133 0.840257
vn 0.091497 0.313791 0.945073
vn 0.097302 0.432809 0.896219
vn -0.034401 0.271506 0.961822
vn -0.050101 0.369406 0.927916
vn -0.0151 0.483506 0.875211
vn 0.108799 0.540793 0.83409
vn 0.218393 0.564982 0.795675
vn 0.157204 0.503414 0.849624
vn 0.086397 0.612579 0.785673
vn 0.095297 0.37949 0.920275
vn 0.0001 0.502683 0.864471
vn 0 0.286192 0.958172
vn -0.095303 0.37961 0.920225
vn -0.157002 0.503505 0.849608
vn -0.086099 0.612595 0.785694
vn 0.0002 0.682286 0.731085
vn 0.017701 0.485015 0.874327
vn -0.108101 0.543207 0.832611
vn 0.052501 0.368809 0.928022
vn -0.097104 0.433019 0.896139
vn 0.036201 0.268804 0.962515
vn -0.091797 0.311591 0.945772
vn -0.218591 0.385684 0.896363
vn -0.235997 0.489794 0.83929
vn -0.219604 0.567409 0.793613
vn -0.082098 0.346692 0.934379
vn -0.239307 0.350109 0.905625
vn 0.029901 0.250208 0.96773
vn -0.149193 0.250488 0.956555
vn 0.082299 0.151098 0.985087
vn -0.059602 0.139406 0.98844
vn -0.228709 0.157706 0.960636
vn -0.318687 0.24939 0.914463
vn -0.358416 0.328015 0.874039
vt 0.5817 0.0102
vt 0.6254 0.0092
vt 0.6467 0.1148
vt 0.5888 0.1148
vt 0.7 0.0102
vt 0.714 0.1148
vt 0.714 0.2458
vt 0.6467 0.2458
vt 0.5888 0.2458
vt 0.7581 0.0092
vt 0.77 0.1148
vt 0.8387 0.0099
vt 0.8211 0.1234
vt 0.8337 0.2563
vt 0.77 0.2458
vt 0.6467 0.3423
vt 0.5888 0.3423
vt 0.714 0.3423
vt 0.714 0.4214
vt 0.6467 0.4214
vt 0.5888 0.4214
vt 0.77 0.3423
vt 0.8209 0.3423
vt 0.8338 0.4215
vt 0.77 0.4214
vt 0.6467 0.5005
vt 0.5888 0.5005
vt 0.714 0.5005
vt 0.714 0.5797
vt 0.6467 0.5797
vt 0.5888 0.5797
vt 0.77 0.5005
vt 0.8212 0.5005
vt 0.8338 0.5795
vt 0.77 0.5797
vt 0.6467 0.6588
vt 0.5888 0.6588
vt 0.714 0.6588
vt 0.714 0.7552
vt 0.6467 0.7552
vt 0.5888 0.7552
vt 0.77 0.6588
vt 0.821 0.6588
vt 0.8337 0.7447
vt 0.77 0.7552
vt 0.6467 0.8863
vt 0.5888 0.8863
vt 0.714 0.8863
vt 0.7 0.9905
vt 0.6254 0.9919
vt 0.5817 0.9905
vt 0.77 0.8863
vt 0.8211 0.8776
vt 0.8387 0.9909
vt 0.7581 0.9919
vt 0.9474 0.0088
vt 0.912 0.0632
vt 0.867 0.0847
vt 0.9908 0.0096
vt 0.951 0.0847
vt 0.9308 0.1441
vt 0.9061 0.1336
vt 0.88 0.1441
vt 0.9859 0.1321
vt 0.9609 0.1494
vt 0.9871 0.2598
vt 0.951 0.214
vt 0.9308 0.2066
vt 0.9382 0.1753
vt 0.8539 0.1494
vt 0.867 0.214
vt 0.8717 0.1753
vt 0.88 0.2066
vt 0.9159 0.2628
vt 0.912 0.2356
vt 0.9061 0.2171
vt 0.9159 0.7382
vt 0.912 0.7655
vt 0.867 0.787
vt 0.9871 0.7413
vt 0.951 0.787
vt 0.9308 0.7944
vt 0.9061 0.784
vt 0.88 0.7944
vt 0.9859 0.869
vt 0.9609 0.8517
vt 0.9908 0.9913
vt 0.951 0.9163
vt 0.9308 0.857
vt 0.9382 0.8257
vt 0.8539 0.8517
vt 0.867 0.9163
vt 0.8717 0.8257
vt 0.88 0.857
vt 0.9474 0.9926
vt 0.912 0.9379
vt 0.9061 0.8674
vt 0.9159 0.4218
vt 0.912 0.4494
vt 0.8674 0.4621
vt 0.987 0.4215
vt 0.9508 0.4621
vt 0.9303 0.4763
vt 0.9061 0.4682
vt 0.8806 0.4763
vt 0.8543 0.5005
vt 0.8674 0.5389
vt 0.8725 0.5005
vt 0.8806 0.5247
vt 0.987 0.5795
vt 0.9159 0.5793
vt 0.912 0.5517
vt 0.9508 0.5389
vt 0.9061 0.5328
vt 0.9303 0.5247
vt 0.9858 0.5005
vt 0.9606 0.5005
vt 0.9375 0.5005
vt 0.9858 0.3423
vt 0.9617 0.3423
vt 0.9518 0.3027
vt 0.9518 0.3818
vt 0.9324 0.3687
vt 0.9401 0.3423
vt 0.9324 0.3158
vt 0.8528 0.3423
vt 0.8661 0.3818
vt 0.8661 0.3027
vt 0.8783 0.3158
vt 0.8695 0.3423
vt 0.8783 0.3687
vt 0.912 0.395
vt 0.9061 0.3776
vt 0.912 0.2895
vt 0.9061 0.307
vt 0.853 0.6588
vt 0.8663 0.6982
vt 0.8663 0.6194
vt 0.8786 0.6326
vt 0.8699 0.6588
vt 0.8786 0.685
vt 0.912 0.7113
vt 0.9516 0.6982
vt 0.9061 0.6937
vt 0.9321 0.685
vt 0.912 0.6063
vt 0.9516 0.6194
vt 0.9321 0.6326
vt 0.9061 0.6239
vt 0.9858 0.6588
vt 0.9615 0.6588
vt 0.9397 0.6588
vt 0.9021 0.2166
vt 0.9249 0.2085
vt 0.8786 0.2085
vt 0.8766 0.2099
vt 0.9002 0.2196
vt 0.9236 0.2099
vt 0.8711 0.184
vt 0.8786 0.1595
vt 0.8766 0.1581
vt 0.8681 0.184
vt 0.9021 0.1514
vt 0.9249 0.1595
vt 0.9236 0.1581
vt 0.9002 0.1484
vt 0.9319 0.184
vt 0.9315 0.184
vt 0.9021 0.3781
vt 0.927 0.3691
vt 0.8764 0.3691
vt 0.8744 0.3706
vt 0.9002 0.3814
vt 0.9257 0.3706
vt 0.8683 0.3423
vt 0.8764 0.3154
vt 0.8744 0.3139
vt 0.8652 0.3423
vt 0.9021 0.3065
vt 0.927 0.3154
vt 0.9257 0.3139
vt 0.9002 0.3032
vt 0.9345 0.3423
vt 0.9342 0.3423
vt 0.9021 0.5321
vt 0.9242 0.5242
vt 0.8794 0.5242
vt 0.8773 0.5255
vt 0.9002 0.535
vt 0.9228 0.5255
vt 0.8721 0.5005
vt 0.8794 0.4769
vt 0.8773 0.4755
vt 0.8691 0.5005
vt 0.9021 0.469
vt 0.9242 0.4769
vt 0.9228 0.4755
vt 0.9002 0.4661
vt 0.931 0.5005
vt 0.9305 0.5005
vt 0.9021 0.694
vt 0.9266 0.6852
vt 0.8768 0.6852
vt 0.8748 0.6867
vt 0.9002 0.6972
vt 0.9253 0.6867
vt 0.8688 0.6588
vt 0.8768 0.6324
vt 0.8748 0.6309
vt 0.8658 0.6588
vt 0.9021 0.6236
vt 0.9266 0.6324
vt 0.9253 0.6309
vt 0.9002 0.6203
vt 0.934 0.6588
vt 0.9337 0.6588
vt 0.9021 0.8497
vt 0.9249 0.8415
vt 0.8786 0.8415
vt 0.8766 0.8429
vt 0.9002 0.8527
vt 0.9236 0.8429
vt 0.8711 0.8171
vt 0.8786 0.7926
vt 0.8766 0.7912
vt 0.8681 0.8171
vt 0.9021 0.7844
vt 0.9249 0.7926
vt 0.9236 0.7912
vt 0.9002 0.7814
vt 0.9319 0.8171
vt 0.9315 0.8171
vt 0.9008 0.2115
vt 0.9173 0.2012
vt 0.885 0.2012
vt 0.9023 0.184
vt 0.8753 0.184
vt 0.885 0.1668
vt 0.9008 0.1565
vt 0.9173 0.1668
vt 0.9257 0.184
vt 0.9008 0.3724
vt 0.9188 0.3611
vt 0.8835 0.3611
vt 0.9023 0.3423
vt 0.873 0.3423
vt 0.8835 0.3234
vt 0.9008 0.3121
vt 0.9188 0.3234
vt 0.928 0.3423
vt 0.9008 0.5271
vt 0.9168 0.5171
vt 0.8855 0.5171
vt 0.9023 0.5005
vt 0.8762 0.5005
vt 0.8855 0.4839
vt 0.9008 0.474
vt 0.9168 0.4839
vt 0.9249 0.5005
vt 0.9008 0.6884
vt 0.9185 0.6773
vt 0.8837 0.6773
vt 0.9023 0.6588
vt 0.8734 0.6588
vt 0.8837 0.6403
vt 0.9008 0.6291
vt 0.9185 0.6403
vt 0.9275 0.6588
vt 0.9008 0.8445
vt 0.9173 0.8342
vt 0.885 0.8342
vt 0.9023 0.8171
vt 0.8753 0.8171
vt 0.885 0.7999
vt 0.9008 0.7896
vt 0.9173 0.7999
vt 0.9257 0.8171
vt 0.6467 0.1148
vt 0.6254 0.0092
vt 0.7 0.0102
vt 0.714 0.1148
vt 0.714 0.2458
vt 0.6467 0.2458
vt 0.77 0.1148
vt 0.7581 0.0092
vt 0.8387 0.0099
vt 0.8211 0.1234
vt 0.8337 0.2563
vt 0.77 0.2458
vt 0.6467 0.3423
vt 0.714 0.3423
vt 0.714 0.4214
vt 0.6467 0.4214
vt 0.77 0.3423
vt 0.8209 0.3423
vt 0.8338 0.4215
vt 0.77 0.4214
vt 0.6467 0.5005
vt 0.714 0.5005
vt 0.714 0.5797
vt 0.6467 0.5797
vt 0.77 0.5005
vt 0.8212 0.5005
vt 0.8338 0.5795
vt 0.77 0.5797
vt 0.6467 0.6588
vt 0.714 0.6588
vt 0.714 0.7552
vt 0.6467 0.7552
vt 0.77 0.6588
vt 0.821 0.6588
vt 0.8337 0.7447
vt 0.77 0.7552
vt 0.6467 0.8863
vt 0.714 0.8863
vt 0.7 0.9905
vt 0.6254 0.9919
vt 0.77 0.8863
vt 0.8211 0.8776
vt 0.8387 0.9909
vt 0.7581 0.9919
vt 0.912 0.0632
vt 0.9474 0.0088
vt 0.867 0.0847
vt 0.951 0.0847
vt 0.9308 0.1441
vt 0.9061 0.1336
vt 0.88 0.1441
vt 0.9609 0.1494
vt 0.951 0.214
vt 0.9308 0.2066
vt 0.9382 0.1753
vt 0.8539 0.1494
vt 0.867 0.214
vt 0.8717 0.1753
vt 0.88 0.2066
vt 0.912 0.2356
vt 0.9159 0.2628
vt 0.9061 0.2171
vt 0.912 0.7655
vt 0.9159 0.7382
vt 0.867 0.787
vt 0.951 0.787
vt 0.9308 0.7944
vt 0.9061 0.784
vt 0.88 0.7944
vt 0.9609 0.8517
vt 0.951 0.9163
vt 0.9308 0.857
vt 0.9382 0.8257
vt 0.8539 0.8517
vt 0.867 0.9163
vt 0.8717 0.8257
vt 0.88 0.857
vt 0.912 0.9379
vt 0.9474 0.9926
vt 0.9061 0.8674
vt 0.912 0.4494
vt 0.9159 0.4218
vt 0.8674 0.4621
vt 0.9508 0.4621
vt 0.9303 0.4763
vt 0.9061 0.4682
vt 0.8806 0.4763
vt 0.8543 0.5005
vt 0.8674 0.5389
vt 0.8725 0.5005
vt 0.8806 0.5247
vt 0.912 0.5517
vt 0.9159 0.5793
vt 0.9508 0.5389
vt 0.9061 0.5328
vt 0.9303 0.5247
vt 0.9606 0.5005
vt 0.9375 0.5005
vt 0.9617 0.3423
vt 0.9518 0.3027
vt 0.9518 0.3818
vt 0.9324 0.3687
vt 0.9401 0.3423
vt 0.9324 0.3158
vt 0.8528 0.3423
vt 0.8661 0.3818
vt 0.8661 0.3027
vt 0.8783 0.3158
vt 0.8695 0.3423
vt 0.8783 0.3687
vt 0.912 0.395
vt 0.9061 0.3776
vt 0.912 0.2895
vt 0.9061 0.307
vt 0.853 0.6588
vt 0.8663 0.6982
vt 0.8663 0.6194
vt 0.8786 0.6326
vt 0.8699 0.6588
vt 0.8786 0.685
vt 0.912 0.7113
vt 0.9516 0.6982
vt 0.9061 0.6937
vt 0.9321 0.685
vt 0.912 0.6063
vt 0.9516 0.6194
vt 0.9321 0.6326
vt 0.9061 0.6239
vt 0.9615 0.6588
vt 0.9397 0.6588
vt 0.9021 0.2166
vt 0.9249 0.2085
vt 0.8786 0.2085
vt 0.8766 0.2099
vt 0.9002 0.2196
vt 0.9236 0.2099
vt 0.8711 0.184
vt 0.8786 0.1595
vt 0.8766 0.1581
vt 0.8681 0.184
vt 0.9021 0.1514
vt 0.9249 0.1595
vt 0.9236 0.1581
vt 0.9002 0.1484
vt 0.9319 0.184
vt 0.9315 0.184
vt 0.9021 0.3781
vt 0.927 0.3691
vt 0.8764 0.3691
vt 0.8744 0.3706
vt 0.9002 0.3814
vt 0.9257 0.3706
vt 0.8683 0.3423
vt 0.8764 0.3154
vt 0.8744 0.3139
vt 0.8652 0.3423
vt 0.9021 0.3065
vt 0.927 0.3154
vt 0.9257 0.3139
vt 0.9002 0.3032
vt 0.9345 0.3423
vt 0.9342 0.3423
vt 0.9021 0.5321
vt 0.9242 0.5242
vt 0.8794 0.5242
vt 0.8773 0.5255
vt 0.9002 0.535
vt 0.9228 0.5255
vt 0.8721 0.5005
vt 0.8794 0.4769
vt 0.8773 0.4755
vt 0.8691 0.5005
vt 0.9021 0.469
vt 0.9242 0.4769
vt 0.9228 0.4755
vt 0.9002 0.4661
vt 0.931 0.5005
vt 0.9305 0.5005
vt 0.9021 0.694
vt 0.9266 0.6852
vt 0.8768 0.6852
vt 0.8748 0.6867
vt 0.9002 0.6972
vt 0.9253 0.6867
vt 0.8688 0.6588
vt 0.8768 0.6324
vt 0.8748 0.6309
vt 0.8658 0.6588
vt 0.9021 0.6236
vt 0.9266 0.6324
vt 0.9253 0.6309
vt 0.9002 0.6203
vt 0.934 0.6588
vt 0.9337 0.6588
vt 0.9021 0.8497
vt 0.9249 0.8415
vt 0.8786 0.8415
vt 0.8766 0.8429
vt 0.9002 0.8527
vt 0.9236 0.8429
vt 0.8711 0.8171
vt 0.8786 0.7926
vt 0.8766 0.7912
vt 0.8681 0.8171
vt 0.9021 0.7844
vt 0.9249 0.7926
vt 0.9236 0.7912
vt 0.9002 0.7814
vt 0.9319 0.8171
vt 0.9315 0.8171
vt 0.9008 0.2115
vt 0.9173 0.2012
vt 0.885 0.2012
vt 0.9023 0.184
vt 0.8753 0.184
vt 0.885 0.1668
vt 0.9008 0.1565
vt 0.9173 0.1668
vt 0.9257 0.184
vt 0.9008 0.3724
vt 0.9188 0.3611
vt 0.8835 0.3611
vt 0.9023 0.3423
vt 0.873 0.3423
vt 0.8835 0.3234
vt 0.9008 0.3121
vt 0.9188 0.3234
vt 0.928 0.3423
vt 0.9008 0.5271
vt 0.9168 0.5171
vt 0.8855 0.5171
vt 0.9023 0.5005
vt 0.8762 0.5005
vt 0.8855 0.4839
vt 0.9008 0.474
vt 0.9168 0.4839
vt 0.9249 0.5005
vt 0.9008 0.6884
vt 0.9185 0.6773
vt 0.8837 0.6773
vt 0.9023 0.6588
vt 0.8734 0.6588
vt 0.8837 0.6403
vt 0.9008 0.6291
vt 0.9185 0.6403
vt 0.9275 0.6588
vt 0.9008 0.8445
vt 0.9173 0.8342
vt 0.885 0.8342
vt 0.9023 0.8171
vt 0.8753 0.8171
vt 0.885 0.7999
vt 0.9008 0.7896
vt 0.9173 0.7999
vt 0.9257 0.8171
f 1/1/1 3/3/3 2/2/2
f 1/1/1 4/4/4 3/3/3
f 5/5/5 3/3/3 6/6/6
f 5/5/5 2/2/2 3/3/3
f 7/7/7 3/3/3 8/8/8
f 7/7/7 6/6/6 3/3/3
f 9/9/9 3/3/3 4/4/4
f 9/9/9 8/8/8 3/3/3
f 5/5/5 11/11/11 10/10/10
f 5/5/5 6/6/6 11/11/11
f 12/12/12 11/11/11 13/13/13
f 12/12/12 10/10/10 11/11/11
f 14/14/14 11/11/11 15/15/15
f 14/14/14 13/13/13 11/11/11
f 7/7/7 11/11/11 6/6/6
f 7/7/7 15/15/15 11/11/11
f 9/9/9 16/16/16 8/8/8
f 9/9/9 17/17/17 16/16/16
f 7/7/7 16/16/16 18/18/18
f 7/7/7 8/8/8 16/16/16
f 19/19/19 16/16/16 20/20/20
f 19/19/19 18/18/18 16/16/16
f 21/21/21 16/16/16 17/17/17
f 21/21/21 20/20/20 16/16/16
f 7/7/7 22/22/22 15/15/15
f 7/7/7 18/18/18 22/22/22
f 14/14/14 22/22/22 23/23/23
f 14/14/14 15/15/15 22/22/22
f 24/24/24 22/22/22 25/25/25
f 24/24/24 23/23/23 22/22/22
f 19/19/19 22/22/22 18/18/18
f 19/19/19 25/25/25 22/22/22
f 21/21/21 26/26/26 20/20/20
f 21/21/21 27/27/27 26/26/26
f 19/19/19 26/26/26 28/28/28
f 19/19/19 20/20/20 26/26/26
f 29/29/29 26/26/26 30/30/30
f 29/29/29 28/28/28 26/26/26
f 31/31/31 26/26/26 27/27/27
f 31/31/31 30/30/30 26/26/26
f 19/19/19 32/32/32 25/25/25
f 19/19/19 28/28/28 32/32/32
f 24/24/24 32/32/32 33/33/33
f 24/24/24 25/25/25 32/32/32
f 34/34/34 32/32/32 35/35/35
f 34/34/34 33/33/33 32/32/32
f 29/29/29 32/32/32 28/28/28
f 29/29/29 35/35/35 32/32/32
f 31/31/31 36/36/36 30/30/30
f 31/31/31 37/37/37 36/36/36
f 29/29/29 36/36/36 38/38/38
f 29/29/29 30/30/30 36/36/36
f 39/39/39 36/36/36 40/40/40
f 39/39/39 38/38/38 36/36/36
f 41/41/41 36/36/36 37/37/37
f 41/41/41 40/40/40 36/36/36
f 29/29/29 42/42/42 35/35/35
f 29/29/29 38/38/38 42/42/42
f 34/34/34 42/42/42 43/43/43
f 34/34/34 35/35/35 42/42/42
f 44/44/44 42/42/42 45/45/45
f 44/44/44 43/43/43 42/42/42
f 39/39/39 42/42/42 38/38/38
f 39/39/39 45/45/45 42/42/42
f 41/41/41 46/46/46 40/40/40
f 41/41/41 47/47/47 46/46/46
f 39/39/39 46/46/46 48/48/48
f 39/39/39 40/40/40 46/46/46
f 49/49/49 46/46/46 50/50/50
f 49/49/49 48/48/48 46/46/46
f 51/51/51 46/46/46 47/47/47
f 51/51/51 50/50/50 46/46/46
f 39/39/39 52/52/52 45/45/45
f 39/39/39 48/48/48 52/52/52
f 44/44/44 52/52/52 53/53/53
f 44/44/44 45/45/45 52/52/52
f 54/54/54 52/52/52 55/55/55
f 54/54/54 53/53/53 52/52/52
f 49/49/49 52/52/52 48/48/48
f 49/49/49 55/55/55 52/52/52
f 12/12/12 57/57/57 56/56/56
f 12/12/12 58/58/58 57/57/57
f 59/59/59 57/57/57 60/60/60
f 59/59/59 56/56/56 57/57/57
f 61/61/61 57/57/57 62/62/62
f 61/61/61 60/60/60 57/57/57
f 63/63/63 57/57/57 58/58/58
f 63/63/63 62/62/62 57/57/57
f 59/59/59 65/65/65 64/64/64
f 59/59/59 60/60/60 65/65/65
f 66/66/66 65/65/65 67/67/67
f 66/66/66 64/64/64 65/65/65
f 68/68/68 65/65/65 69/69/69
f 68/68/68 67/67/67 65/65/65
f 61/61/61 65/65/65 60/60/60
f 61/61/61 69/69/69 65/65/65
f 14/14/14 70/70/70 13/13/13
f 14/14/14 71/71/71 70/70/70
f 12/12/12 70/70/70 58/58/58
f 12/12/12 13/13/13 70/70/70
f 63/63/63 70/70/70 72/72/72
f 63/63/63 58/58/58 70/70/70
f 73/73/73 70/70/70 71/71/71
f 73/73/73 72/72/72 70/70/70
f 66/66/66 75/75/75 74/74/74
f 66/66/66 67/67/67 75/75/75
f 14/14/14 75/75/75 71/71/71
f 14/14/14 74/74/74 75/75/75
f 73/73/73 75/75/75 76/76/76
f 73/73/73 71/71/71 75/75/75
f 68/68/68 75/75/75 67/67/67
f 68/68/68 76/76/76 75/75/75
f 44/44/44 78/78/78 77/77/77
f 44/44/44 79/79/79 78/78/78
f 80/80/80 78/78/78 81/81/81
f 80/80/80 77/77/77 78/78/78
f 82/82/82 78/78/78 83/83/83
f 82/82/82 81/81/81 78/78/78
f 84/84/84 78/78/78 79/79/79
f 84/84/84 83/83/83 78/78/78
f 80/80/80 86/86/86 85/85/85
f 80/80/80 81/81/81 86/86/86
f 87/87/87 86/86/86 88/88/88
f 87/87/87 85/85/85 86/86/86
f 89/89/89 86/86/86 90/90/90
f 89/89/89 88/88/88 86/86/86
f 82/82/82 86/86/86 81/81/81
f 82/82/82 90/90/90 86/86/86
f 54/54/54 91/91/91 53/53/53
f 54/54/54 92/92/92 91/91/91
f 44/44/44 91/91/91 79/79/79
f 44/44/44 53/53/53 91/91/91
f 84/84/84 91/91/91 93/93/93
f 84/84/84 79/79/79 91/91/91
f 94/94/94 91/91/91 92/92/92
f 94/94/94 93/93/93 91/91/91
f 87/87/87 96/96/96 95/95/95
f 87/87/87 88/88/88 96/96/96
f 54/54/54 96/96/96 92/92/92
f 54/54/54 95/95/95 96/96/96
f 94/94/94 96/96/96 97/97/97
f 94/94/94 92/92/92 96/96/96
f 89/89/89 96/96/96 88/88/88
f 89/89/89 97/97/97 96/96/96
f 24/24/24 99/99/99 98/98/98
f 24/24/24 100/100/100 99/99/99
f 101/101/101 99/99/99 102/102/102
f 101/101/101 98/98/98 99/99/99
f 103/103/103 99/99/99 104/104/104
f 103/103/103 102/102/102 99/99/99
f 105/105/105 99/99/99 100/100/100
f 105/105/105 104/104/104 99/99/99
f 34/34/34 106/106/106 33/33/33
f 34/34/34 107/107/107 106/106/106
f 24/24/24 106/106/106 100/100/100
f 24/24/24 33/33/33 106/106/106
f 105/105/105 106/106/106 108/108/108
f 105/105/105 100/100/100 106/106/106
f 109/109/109 106/106/106 107/107/107
f 109/109/109 108/108/108 106/106/106
f 110/110/110 112/112/112 111/111/111
f 110/110/110 113/113/113 112/112/112
f 34/34/34 112/112/112 107/107/107
f 34/34/34 111/111/111 112/112/112
f 109/109/109 112/112/112 114/114/114
f 109/109/109 107/107/107 112/112/112
f 115/115/115 112/112/112 113/113/113
f 115/115/115 114/114/114 112/112/112
f 101/101/101 117/117/117 116/116/116
f 101/101/101 102/102/102 117/117/117
f 110/110/110 117/117/117 113/113/113
f 110/110/110 116/116/116 117/117/117
f 115/115/115 117/117/117 118/118/118
f 115/115/115 113/113/113 117/117/117
f 103/103/103 117/117/117 102/102/102
f 103/103/103 118/118/118 117/117/117
f 66/66/66 120/120/120 119/119/119
f 66/66/66 121/121/121 120/120/120
f 101/101/101 120/120/120 122/122/122
f 101/101/101 119/119/119 120/120/120
f 123/123/123 120/120/120 124/124/124
f 123/123/123 122/122/122 120/120/120
f 125/125/125 120/120/120 121/121/121
f 125/125/125 124/124/124 120/120/120
f 24/24/24 126/126/126 23/23/23
f 24/24/24 127/127/127 126/126/126
f 14/14/14 126/126/126 128/128/128
f 14/14/14 23/23/23 126/126/126
f 129/129/129 126/126/126 130/130/130
f 129/129/129 128/128/128 126/126/126
f 131/131/131 126/126/126 127/127/127
f 131/131/131 130/130/130 126/126/126
f 101/101/101 132/132/132 98/98/98
f 101/101/101 122/122/122 132/132/132
f 24/24/24 132/132/132 127/127/127
f 24/24/24 98/98/98 132/132/132
f 131/131/131 132/132/132 133/133/133
f 131/131/131 127/127/127 132/132/132
f 123/123/123 132/132/132 122/122/122
f 123/123/123 133/133/133 132/132/132
f 14/14/14 134/134/134 74/74/74
f 14/14/14 128/128/128 134/134/134
f 66/66/66 134/134/134 121/121/121
f 66/66/66 74/74/74 134/134/134
f 125/125/125 134/134/134 135/135/135
f 125/125/125 121/121/121 134/134/134
f 129/129/129 134/134/134 128/128/128
f 129/129/129 135/135/135 134/134/134
f 44/44/44 136/136/136 43/43/43
f 44/44/44 137/137/137 136/136/136
f 34/34/34 136/136/136 138/138/138
f 34/34/34 43/43/43 136/136/136
f 139/139/139 136/136/136 140/140/140
f 139/139/139 138/138/138 136/136/136
f 141/141/141 136/136/136 137/137/137
f 141/141/141 140/140/140 136/136/136
f 80/80/80 142/142/142 77/77/77
f 80/80/80 143/143/143 142/142/142
f 44/44/44 142/142/142 137/137/137
f 44/44/44 77/77/77 142/142/142
f 141/141/141 142/142/142 144/144/144
f 141/141/141 137/137/137 142/142/142
f 145/145/145 142/142/142 143/143/143
f 145/145/145 144/144/144 142/142/142
f 34/34/34 146/146/146 111/111/111
f 34/34/34 138/138/138 146/146/146
f 110/110/110 146/146/146 147/147/147
f 110/110/110 111/111/111 146/146/146
f 148/148/148 146/146/146 149/149/149
f 148/148/148 147/147/147 146/146/146
f 139/139/139 146/146/146 138/138/138
f 139/139/139 149/149/149 146/146/146
f 110/110/110 151/151/151 150/150/150
f 110/110/110 147/147/147 151/151/151
f 80/80/80 151/151/151 143/143/143
f 80/80/80 150/150/150 151/151/151
f 145/145/145 151/151/151 152/152/152
f 145/145/145 143/143/143 151/151/151
f 148/148/148 151/151/151 147/147/147
f 148/148/148 152/152/152 151/151/151
f 68/68/68 153/153/153 76/76/76
f 68/68/68 154/154/154 153/153/153
f 73/73/73 153/153/153 155/155/155
f 73/73/73 76/76/76 153/153/153
f 156/156/156 153/153/153 157/157/157
f 156/156/156 155/155/155 153/153/153
f 158/158/158 153/153/153 154/154/154
f 158/158/158 157/157/157 153/153/153
f 73/73/73 159/159/159 72/72/72
f 73/73/73 155/155/155 159/159/159
f 63/63/63 159/159/159 160/160/160
f 63/63/63 72/72/72 159/159/159
f 161/161/161 159/159/159 162/162/162
f 161/161/161 160/160/160 159/159/159
f 156/156/156 159/159/159 155/155/155
f 156/156/156 162/162/162 159/159/159
f 63/63/63 163/163/163 62/62/62
f 63/63/63 160/160/160 163/163/163
f 61/61/61 163/163/163 164/164/164
f 61/61/61 62/62/62 163/163/163
f 165/165/165 163/163/163 166/166/166
f 165/165/165 164/164/164 163/163/163
f 161/161/161 163/163/163 160/160/160
f 161/161/161 166/166/166 163/163/163
f 61/61/61 167/167/167 69/69/69
f 61/61/61 164/164/164 167/167/167
f 68/68/68 167/167/167 154/154/154
f 68/68/68 69/69/69 167/167/167
f 158/158/158 167/167/167 168/168/168
f 158/158/158 154/154/154 167/167/167
f 165/165/165 167/167/167 164/164/164
f 165/165/165 168/168/168 167/167/167
f 123/123/123 169/169/169 133/133/133
f 123/123/123 170/170/170 169/169/169
f 131/131/131 169/169/169 171/171/171
f 131/131/131 133/133/133 169/169/169
f 172/172/172 169/169/169 173/173/173
f 172/172/172 171/171/171 169/169/169
f 174/174/174 169/169/169 170/170/170
f 174/174/174 173/173/173 169/169/169
f 131/131/131 175/175/175 130/130/130
f 131/131/131 171/171/171 175/175/175
f 129/129/129 175/175/175 176/176/176
f 129/129/129 130/130/130 175/175/175
f 177/177/177 175/175/175 178/178/178
f 177/177/177 176/176/176 175/175/175
f 172/172/172 175/175/175 171/171/171
f 172/172/172 178/178/178 175/175/175
f 129/129/129 179/179/179 135/135/135
f 129/129/129 176/176/176 179/179/179
f 125/125/125 179/179/179 180/180/180
f 125/125/125 135/135/135 179/179/179
f 181/181/181 179/179/179 182/182/182
f 181/181/181 180/180/180 179/179/179
f 177/177/177 179/179/179 176/176/176
f 177/177/177 182/182/182 179/179/179
f 125/125/125 183/183/183 124/124/124
f 125/125/125 180/180/180 183/183/183
f 123/123/123 183/183/183 170/170/170
f 123/123/123 124/124/124 183/183/183
f 174/174/174 183/183/183 184/184/184
f 174/174/174 170/170/170 183/183/183
f 181/181/181 183/183/183 180/180/180
f 181/181/181 184/184/184 183/183/183
f 115/115/115 185/185/185 114/114/114
f 115/115/115 186/186/186 185/185/185
f 109/109/109 185/185/185 187/187/187
f 109/109/109 114/114/114 185/185/185
f 188/188/188 185/185/185 189/189/189
f 188/188/188 187/187/187 185/185/185
f 190/190/190 185/185/185 186/186/186
f 190/190/190 189/189/189 185/185/185
f 109/109/109 191/191/191 108/108/108
f 109/109/109 187/187/187 191/191/191
f 105/105/105 191/191/191 192/192/192
f 105/105/105 108/108/108 191/191/191
f 193/193/193 191/191/191 194/194/194
f 193/193/193 192/192/192 191/191/191
f 188/188/188 191/191/191 187/187/187
f 188/188/188 194/194/194 191/191/191
f 105/105/105 195/195/195 104/104/104
f 105/105/105 192/192/192 195/195/195
f 103/103/103 195/195/195 196/196/196
f 103/103/103 104/104/104 195/195/195
f 197/197/197 195/195/195 198/198/198
f 197/197/197 196/196/196 195/195/195
f 193/193/193 195/195/195 192/192/192
f 193/193/193 198/198/198 195/195/195
f 103/103/103 199/199/199 118/118/118
f 103/103/103 196/196/196 199/199/199
f 115/115/115 199/199/199 186/186/186
f 115/115/115 118/118/118 199/199/199
f 190/190/190 199/199/199 200/200/200
f 190/190/190 186/186/186 199/199/199
f 197/197/197 199/199/199 196/196/196
f 197/197/197 200/200/200 199/199/199
f 145/145/145 201/201/201 144/144/144
f 145/145/145 202/202/202 201/201/201
f 141/141/141 201/201/201 203/203/203
f 141/141/141 144/144/144 201/201/201
f 204/204/204 201/201/201 205/205/205
f 204/204/204 203/203/203 201/201/201
f 206/206/206 201/201/201 202/202/202
f 206/206/206 205/205/205 201/201/201
f 141/141/141 207/207/207 140/140/140
f 141/141/141 203/203/203 207/207/207
f 139/139/139 207/207/207 208/208/208
f 139/139/139 140/140/140 207/207/207
f 209/209/209 207/207/207 210/210/210
f 209/209/209 208/208/208 207/207/207
f 204/204/204 207/207/207 203/203/203
f 204/204/204 210/210/210 207/207/207
f 139/139/139 211/211/211 149/149/149
f 139/139/139 208/208/208 211/211/211
f 148/148/148 211/211/211 212/212/212
f 148/148/148 149/149/149 211/211/211
f 213/213/213 211/211/211 214/214/214
f 213/213/213 212/212/212 211/211/211
f 209/209/209 211/211/211 208/208/208
f 209/209/209 214/214/214 211/211/211
f 148/148/148 215/215/215 152/152/152
f 148/148/148 212/212/212 215/215/215
f 145/145/145 215/215/215 202/202/202
f 145/145/145 152/152/152 215/215/215
f 206/206/206 215/215/215 216/216/216
f 206/206/206 202/202/202 215/215/215
f 213/213/213 215/215/215 212/212/212
f 213/213/213 216/216/216 215/215/215
f 89/89/89 217/217/217 97/97/97
f 89/89/89 218/218/218 217/217/217
f 94/94/94 217/217/217 219/219/219
f 94/94/94 97/97/97 217/217/217
f 220/220/220 217/217/217 221/221/221
f 220/220/220 219/219/219 217/217/217
f 222/222/222 217/217/217 218/218/218
f 222/222/222 221/221/221 217/217/217
f 94/94/94 223/223/223 93/93/93
f 94/94/94 219/219/219 223/223/223
f 84/84/84 223/223/223 224/224/224
f 84/84/84 93/93/93 223/223/223
f 225/225/225 223/223/223 226/226/226
f 225/225/225 224/224/224 223/223/223
f 220/220/220 223/223/223 219/219/219
f 220/220/220 226/226/226 223/223/223
f 84/84/84 227/227/227 83/83/83
f 84/84/84 224/224/224 227/227/227
f 82/82/82 227/227/227 228/228/228
f 82/82/82 83/83/83 227/227/227
f 229/229/229 227/227/227 230/230/230
f 229/229/229 228/228/228 227/227/227
f 225/225/225 227/227/227 224/224/224
f 225/225/225 230/230/230 227/227/227
f 82/82/82 231/231/231 90/90/90
f 82/82/82 228/228/228 231/231/231
f 89/89/89 231/231/231 218/218/218
f 89/89/89 90/90/90 231/231/231
f 222/222/222 231/231/231 232/232/232
f 222/222/222 218/218/218 231/231/231
f 229/229/229 231/231/231 228/228/228
f 229/229/229 232/232/232 231/231/231
f 158/158/158 233/233/233 157/157/157
f 158/158/158 234/234/234 233/233/233
f 156/156/156 233/233/233 235/235/235
f 156/156/156 157/157/157 233/233/233
f 236/236/236 233/233/233 234/234/234
f 236/236/236 235/235/235 233/233/233
f 156/156/156 237/237/237 162/162/162
f 156/156/156 235/235/235 237/237/237
f 161/161/161 237/237/237 238/238/238
f 161/161/161 162/162/162 237/237/237
f 236/236/236 237/237/237 235/235/235
f 236/236/236 238/238/238 237/237/237
f 161/161/161 239/239/239 166/166/166
f 161/161/161 238/238/238 239/239/239
f 165/165/165 239/239/239 240/240/240
f 165/165/165 166/166/166 239/239/239
f 236/236/236 239/239/239 238/238/238
f 236/236/236 240/240/240 239/239/239
f 165/165/165 241/241/241 168/168/168
f 165/165/165 240/240/240 241/241/241
f 158/158/158 241/241/241 234/234/234
f 158/158/158 168/168/168 241/241/241
f 236/236/236 241/241/241 240/240/240
f 236/236/236 234/234/234 241/241/241
f 174/174/174 242/242/242 173/173/173
f 174/174/174 243/243/243 242/242/242
f 172/172/172 242/242/242 244/244/244
f 172/172/172 173/173/173 242/242/242
f 245/245/245 242/242/242 243/243/243
f 245/245/245 244/244/244 242/242/242
f 172/172/172 246/246/246 178/178/178
f 172/172/172 244/244/244 246/246/246
f 177/177/177 246/246/246 247/247/247
f 177/177/177 178/178/178 246/246/246
f 245/245/245 246/246/246 244/244/244
f 245/245/245 247/247/247 246/246/246
f 177/177/177 248/248/248 182/182/182
f 177/177/177 247/247/247 248/248/248
f 181/181/181 248/248/248 249/249/249
f 181/181/181 182/182/182 248/248/248
f 245/245/245 248/248/248 247/247/247
f 245/245/245 249/249/249 248/248/248
f 181/181/181 250/250/250 184/184/184
f 181/181/181 249/249/249 250/250/250
f 174/174/174 250/250/250 243/243/243
f 174/174/174 184/184/184 250/250/250
f 245/245/245 250/250/250 249/249/249
f 245/245/245 243/243/243 250/250/250
f 190/190/190 251/251/251 189/189/189
f 190/190/190 252/252/252 251/251/251
f 188/188/188 251/251/251 253/253/253
f 188/188/188 189/189/189 251/251/251
f 254/254/254 251/251/251 252/252/252
f 254/254/254 253/253/253 251/251/251
f 188/188/188 255/255/255 194/194/194
f 188/188/188 253/253/253 255/255/255
f 193/193/193 255/255/255 256/256/256
f 193/193/193 194/194/194 255/255/255
f 254/254/254 255/255/255 253/253/253
f 254/254/254 256/256/256 255/255/255
f 193/193/193 257/257/257 198/198/198
f 193/193/193 256/256/256 257/257/257
f 197/197/197 257/257/257 258/258/258
f 197/197/197 198/198/198 257/257/257
f 254/254/254 257/257/257 256/256/256
f 254/254/254 258/258/258 257/257/257
f 197/197/197 259/259/259 200/200/200
f 197/197/197 258/258/258 259/259/259
f 190/190/190 259/259/259 252/252/252
f 190/190/190 200/200/200 259/259/259
f 254/254/254 259/259/259 258/258/258
f 254/254/254 252/252/252 259/259/259
f 206/206/206 260/260/260 205/205/205
f 206/206/206 261/261/261 260/260/260
f 204/204/204 260/260/260 262/262/262
f 204/204/204 205/205/205 260/260/260
f 263/263/263 260/260/260 261/261/261
f 263/263/263 262/262/262 260/260/260
f 204/204/204 264/264/264 210/210/210
f 204/204/204 262/262/262 264/264/264
f 209/209/209 264/264/264 265/265/265
f 209/209/209 210/210/210 264/264/264
f 263/263/263 264/264/264 262/262/262
f 263/263/263 265/265/265 264/264/264
f 209/209/209 266/266/266 214/214/214
f 209/209/209 265/265/265 266/266/266
f 213/213/213 266/266/266 267/267/267
f 213/213/213 214/214/214 266/266/266
f 263/263/263 266/266/266 265/265/265
f 263/263/263 267/267/267 266/266/266
f 213/213/213 268/268/268 216/216/216
f 213/213/213 267/267/267 268/268/268
f 206/206/206 268/268/268 261/261/261
f 206/206/206 216/216/216 268/268/268
f 263/263/263 268/268/268 267/267/267
f 263/263/263 261/261/261 268/268/268
f 222/222/222 269/269/269 221/221/221
f 222/222/222 270/270/270 269/269/269
f 220/220/220 269/269/269 271/271/271
f 220/220/220 221/221/221 269/269/269
f 272/272/272 269/269/269 270/270/270
f 272/272/272 271/271/271 269/269/269
f 220/220/220 273/273/273 226/226/226
f 220/220/220 271/271/271 273/273/273
f 225/225/225 273/273/273 274/274/274
f 225/225/225 226/226/226 273/273/273
f 272/272/272 273/273/273 271/271/271
f 272/272/272 274/274/274 273/273/273
f 225/225/225 275/275/275 230/230/230
f 225/225/225 274/274/274 275/275/275
f 229/229/229 275/275/275 276/276/276
f 229/229/229 230/230/230 275/275/275
f 272/272/272 275/275/275 274/274/274
f 272/272/272 276/276/276 275/275/275
f 229/229/229 277/277/277 232/232/232
f 229/229/229 276/276/276 277/277/277
f 222/222/222 277/277/277 270/270/270
f 222/222/222 232/232/232 277/277/277
f 272/272/272 277/277/277 276/276/276
f 272/272/272 270/270/270 277/277/277
f 1/1/1 279/279/279 278/278/278
f 1/1/1 278/278/278 4/4/4
f 280/280/280 281/281/281 278/278/278
f 280/280/280 278/278/278 279/279/279
f 282/282/282 283/283/283 278/278/278
f 282/282/282 278/278/278 281/281/281
f 9/9/9 4/4/4 278/278/278
f 9/9/9 278/278/278 283/283/283
f 280/280/280 285/285/285 284/284/284
f 280/280/280 284/284/284 281/281/281
f 286/286/286 287/287/287 284/284/284
f 286/286/286 284/284/284 285/285/285
f 288/288/288 289/289/289 284/284/284
f 288/288/288 284/284/284 287/287/287
f 282/282/282 281/281/281 284/284/284
f 282/282/282 284/284/284 289/289/289
f 9/9/9 283/283/283 290/290/290
f 9/9/9 290/290/290 17/17/17
f 282/282/282 291/291/291 290/290/290
f 282/282/282 290/290/290 283/283/283
f 292/292/292 293/293/293 290/290/290
f 292/292/292 290/290/290 291/291/291
f 21/21/21 17/17/17 290/290/290
f 21/21/21 290/290/290 293/293/293
f 282/282/282 289/289/289 294/294/294
f 282/282/282 294/294/294 291/291/291
f 288/288/288 295/295/295 294/294/294
f 288/288/288 294/294/294 289/289/289
f 296/296/296 297/297/297 294/294/294
f 296/296/296 294/294/294 295/295/295
f 292/292/292 291/291/291 294/294/294
f 292/292/292 294/294/294 297/297/297
f 21/21/21 293/293/293 298/298/298
f 21/21/21 298/298/298 27/27/27
f 292/292/292 299/299/299 298/298/298
f 292/292/292 298/298/298 293/293/293
f 300/300/300 301/301/301 298/298/298
f 300/300/300 298/298/298 299/299/299
f 31/31/31 27/27/27 298/298/298
f 31/31/31 298/298/298 301/301/301
f 292/292/292 297/297/297 302/302/302
f 292/292/292 302/302/302 299/299/299
f 296/296/296 303/303/303 302/302/302
f 296/296/296 302/302/302 297/297/297
f 304/304/304 305/305/305 302/302/302
f 304/304/304 302/302/302 303/303/303
f 300/300/300 299/299/299 302/302/302
f 300/300/300 302/302/302 305/305/305
f 31/31/31 301/301/301 306/306/306
f 31/31/31 306/306/306 37/37/37
f 300/300/300 307/307/307 306/306/306
f 300/300/300 306/306/306 301/301/301
f 308/308/308 309/309/309 306/306/306
f 308/308/308 306/306/306 307/307/307
f 41/41/41 37/37/37 306/306/306
f 41/41/41 306/306/306 309/309/309
f 300/300/300 305/305/305 310/310/310
f 300/300/300 310/310/310 307/307/307
f 304/304/304 311/311/311 310/310/310
f 304/304/304 310/310/310 305/305/305
f 312/312/312 313/313/313 310/310/310
f 312/312/312 310/310/310 311/311/311
f 308/308/308 307/307/307 310/310/310
f 308/308/308 310/310/310 313/313/313
f 41/41/41 309/309/309 314/314/314
f 41/41/41 314/314/314 47/47/47
f 308/308/308 315/315/315 314/314/314
f 308/308/308 314/314/314 309/309/309
f 316/316/316 317/317/317 314/314/314
f 316/316/316 314/314/314 315/315/315
f 51/51/51 47/47/47 314/314/314
f 51/51/51 314/314/314 317/317/317
f 308/308/308 313/313/313 318/318/318
f 308/308/308 318/318/318 315/315/315
f 312/312/312 319/319/319 318/318/318
f 312/312/312 318/318/318 313/313/313
f 320/320/320 321/321/321 318/318/318
f 320/320/320 318/318/318 319/319/319
f 316/316/316 315/315/315 318/318/318
f 316/316/316 318/318/318 321/321/321
f 286/286/286 323/323/323 322/322/322
f 286/286/286 322/322/322 324/324/324
f 59/59/59 325/325/325 322/322/322
f 59/59/59 322/322/322 323/323/323
f 326/326/326 327/327/327 322/322/322
f 326/326/326 322/322/322 325/325/325
f 328/328/328 324/324/324 322/322/322
f 328/328/328 322/322/322 327/327/327
f 59/59/59 64/64/64 329/329/329
f 59/59/59 329/329/329 325/325/325
f 66/66/66 330/330/330 329/329/329
f 66/66/66 329/329/329 64/64/64
f 331/331/331 332/332/332 329/329/329
f 331/331/331 329/329/329 330/330/330
f 326/326/326 325/325/325 329/329/329
f 326/326/326 329/329/329 332/332/332
f 288/288/288 287/287/287 333/333/333
f 288/288/288 333/333/333 334/334/334
f 286/286/286 324/324/324 333/333/333
f 286/286/286 333/333/333 287/287/287
f 328/328/328 335/335/335 333/333/333
f 328/328/328 333/333/333 324/324/324
f 336/336/336 334/334/334 333/333/333
f 336/336/336 333/333/333 335/335/335
f 66/66/66 338/338/338 337/337/337
f 66/66/66 337/337/337 330/330/330
f 288/288/288 334/334/334 337/337/337
f 288/288/288 337/337/337 338/338/338
f 336/336/336 339/339/339 337/337/337
f 336/336/336 337/337/337 334/334/334
f 331/331/331 330/330/330 337/337/337
f 331/331/331 337/337/337 339/339/339
f 312/312/312 341/341/341 340/340/340
f 312/312/312 340/340/340 342/342/342
f 80/80/80 343/343/343 340/340/340
f 80/80/80 340/340/340 341/341/341
f 344/344/344 345/345/345 340/340/340
f 344/344/344 340/340/340 343/343/343
f 346/346/346 342/342/342 340/340/340
f 346/346/346 340/340/340 345/345/345
f 80/80/80 85/85/85 347/347/347
f 80/80/80 347/347/347 343/343/343
f 87/87/87 348/348/348 347/347/347
f 87/87/87 347/347/347 85/85/85
f 349/349/349 350/350/350 347/347/347
f 349/349/349 347/347/347 348/348/348
f 344/344/344 343/343/343 347/347/347
f 344/344/344 347/347/347 350/350/350
f 320/320/320 319/319/319 351/351/351
f 320/320/320 351/351/351 352/352/352
f 312/312/312 342/342/342 351/351/351
f 312/312/312 351/351/351 319/319/319
f 346/346/346 353/353/353 351/351/351
f 346/346/346 351/351/351 342/342/342
f 354/354/354 352/352/352 351/351/351
f 354/354/354 351/351/351 353/353/353
f 87/87/87 356/356/356 355/355/355
f 87/87/87 355/355/355 348/348/348
f 320/320/320 352/352/352 355/355/355
f 320/320/320 355/355/355 356/356/356
f 354/354/354 357/357/357 355/355/355
f 354/354/354 355/355/355 352/352/352
f 349/349/349 348/348/348 355/355/355
f 349/349/349 355/355/355 357/357/357
f 296/296/296 359/359/359 358/358/358
f 296/296/296 358/358/358 360/360/360
f 101/101/101 361/361/361 358/358/358
f 101/101/101 358/358/358 359/359/359
f 362/362/362 363/363/363 358/358/358
f 362/362/362 358/358/358 361/361/361
f 364/364/364 360/360/360 358/358/358
f 364/364/364 358/358/358 363/363/363
f 304/304/304 303/303/303 365/365/365
f 304/304/304 365/365/365 366/366/366
f 296/296/296 360/360/360 365/365/365
f 296/296/296 365/365/365 303/303/303
f 364/364/364 367/367/367 365/365/365
f 364/364/364 365/365/365 360/360/360
f 368/368/368 366/366/366 365/365/365
f 368/368/368 365/365/365 367/367/367
f 110/110/110 370/370/370 369/369/369
f 110/110/110 369/369/369 371/371/371
f 304/304/304 366/366/366 369/369/369
f 304/304/304 369/369/369 370/370/370
f 368/368/368 372/372/372 369/369/369
f 368/368/368 369/369/369 366/366/366
f 373/373/373 371/371/371 369/369/369
f 373/373/373 369/369/369 372/372/372
f 101/101/101 116/116/116 374/374/374
f 101/101/101 374/374/374 361/361/361
f 110/110/110 371/371/371 374/374/374
f 110/110/110 374/374/374 116/116/116
f 373/373/373 375/375/375 374/374/374
f 373/373/373 374/374/374 371/371/371
f 362/362/362 361/361/361 374/374/374
f 362/362/362 374/374/374 375/375/375
f 66/66/66 119/119/119 376/376/376
f 66/66/66 376/376/376 377/377/377
f 101/101/101 378/378/378 376/376/376
f 101/101/101 376/376/376 119/119/119
f 379/379/379 380/380/380 376/376/376
f 379/379/379 376/376/376 378/378/378
f 381/381/381 377/377/377 376/376/376
f 381/381/381 376/376/376 380/380/380
f 296/296/296 295/295/295 382/382/382
f 296/296/296 382/382/382 383/383/383
f 288/288/288 384/384/384 382/382/382
f 288/288/288 382/382/382 295/295/295
f 385/385/385 386/386/386 382/382/382
f 385/385/385 382/382/382 384/384/384
f 387/387/387 383/383/383 382/382/382
f 387/387/387 382/382/382 386/386/386
f 101/101/101 359/359/359 388/388/388
f 101/101/101 388/388/388 378/378/378
f 296/296/296 383/383/383 388/388/388
f 296/296/296 388/388/388 359/359/359
f 387/387/387 389/389/389 388/388/388
f 387/387/387 388/388/388 383/383/383
f 379/379/379 378/378/378 388/388/388
f 379/379/379 388/388/388 389/389/389
f 288/288/288 338/338/338 390/390/390
f 288/288/288 390/390/390 384/384/384
f 66/66/66 377/377/377 390/390/390
f 66/66/66 390/390/390 338/338/338
f 381/381/381 391/391/391 390/390/390
f 381/381/381 390/390/390 377/377/377
f 385/385/385 384/384/384 390/390/390
f 385/385/385 390/390/390 391/391/391
f 312/312/312 311/311/311 392/392/392
f 312/312/312 392/392/392 393/393/393
f 304/304/304 394/394/394 392/392/392
f 304/304/304 392/392/392 311/311/311
f 395/395/395 396/396/396 392/392/392
f 395/395/395 392/392/392 394/394/394
f 397/397/397 393/393/393 392/392/392
f 397/397/397 392/392/392 396/396/396
f 80/80/80 341/341/341 398/398/398
f 80/80/80 398/398/398 399/399/399
f 312/312/312 393/393/393 398/398/398
f 312/312/312 398/398/398 341/341/341
f 397/397/397 400/400/400 398/398/398
f 397/397/397 398/398/398 393/393/393
f 401/401/401 399/399/399 398/398/398
f 401/401/401 398/398/398 400/400/400
f 304/304/304 370/370/370 402/402/402
f 304/304/304 402/402/402 394/394/394
f 110/110/110 403/403/403 402/402/402
f 110/110/110 402/402/402 370/370/370
f 404/404/404 405/405/405 402/402/402
f 404/404/404 402/402/402 403/403/403
f 395/395/395 394/394/394 402/402/402
f 395/395/395 402/402/402 405/405/405
f 110/110/110 150/150/150 406/406/406
f 110/110/110 406/406/406 403/403/403
f 80/80/80 399/399/399 406/406/406
f 80/80/80 406/406/406 150/150/150
f 401/401/401 407/407/407 406/406/406
f 401/401/401 406/406/406 399/399/399
f 404/404/404 403/403/403 406/406/406
f 404/404/404 406/406/406 407/407/407
f 331/331/331 339/339/339 408/408/408
f 331/331/331 408/408/408 409/409/409
f 336/336/336 410/410/410 408/408/408
f 336/336/336 408/408/408 339/339/339
f 411/411/411 412/412/412 408/408/408
f 411/411/411 408/408/408 410/410/410
f 413/413/413 409/409/409 408/408/408
f 413/413/413 408/408/408 412/412/412
f 336/336/336 335/335/335 414/414/414
f 336/336/336 414/414/414 410/410/410
f 328/328/328 415/415/415 414/414/414
f 328/328/328 414/414/414 335/335/335
f 416/416/416 417/417/417 414/414/414
f 416/416/416 414/414/414 415/415/415
f 411/411/411 410/410/410 414/414/414
f 411/411/411 414/414/414 417/417/417
f 328/328/328 327/327/327 418/418/418
f 328/328/328 418/418/418 415/415/415
f 326/326/326 419/419/419 418/418/418
f 326/326/326 418/418/418 327/327/327
f 420/420/420 421/421/421 418/418/418
f 420/420/420 418/418/418 419/419/419
f 416/416/416 415/415/415 418/418/418
f 416/416/416 418/418/418 421/421/421
f 326/326/326 332/332/332 422/422/422
f 326/326/326 422/422/422 419/419/419
f 331/331/331 409/409/409 422/422/422
f 331/331/331 422/422/422 332/332/332
f 413/413/413 423/423/423 422/422/422
f 413/413/413 422/422/422 409/409/409
f 420/420/420 419/419/419 422/422/422
f 420/420/420 422/422/422 423/423/423
f 379/379/379 389/389/389 424/424/424
f 379/379/379 424/424/424 425/425/425
f 387/387/387 426/426/426 424/424/424
f 387/387/387 424/424/424 389/389/389
f 427/427/427 428/428/428 424/424/424
f 427/427/427 424/424/424 426/426/426
f 429/429/429 425/425/425 424/424/424
f 429/429/429 424/424/424 428/428/428
f 387/387/387 386/386/386 430/430/430
f 387/387/387 430/430/430 426/426/426
f 385/385/385 431/431/431 430/430/430
f 385/385/385 430/430/430 386/386/386
f 432/432/432 433/433/433 430/430/430
f 432/432/432 430/430/430 431/431/431
f 427/427/427 426/426/426 430/430/430
f 427/427/427 430/430/430 433/433/433
f 385/385/385 391/391/391 434/434/434
f 385/385/385 434/434/434 431/431/431
f 381/381/381 435/435/435 434/434/434
f 381/381/381 434/434/434 391/391/391
f 436/436/436 437/437/437 434/434/434
f 436/436/436 434/434/434 435/435/435
f 432/432/432 431/431/431 434/434/434
f 432/432/432 434/434/434 437/437/437
f 381/381/381 380/380/380 438/438/438
f 381/381/381 438/438/438 435/435/435
f 379/379/379 425/425/425 438/438/438
f 379/379/379 438/438/438 380/380/380
f 429/429/429 439/439/439 438/438/438
f 429/429/429 438/438/438 425/425/425
f 436/436/436 435/435/435 438/438/438
f 436/436/436 438/438/438 439/439/439
f 373/373/373 372/372/372 440/440/440
f 373/373/373 440/440/440 441/441/441
f 368/368/368 442/442/442 440/440/440
f 368/368/368 440/440/440 372/372/372
f 443/443/443 444/444/444 440/440/440
f 443/443/443 440/440/440 442/442/442
f 445/445/445 441/441/441 440/440/440
f 445/445/445 440/440/440 444/444/444
f 368/368/368 367/367/367 446/446/446
f 368/368/368 446/446/446 442/442/442
f 364/364/364 447/447/447 446/446/446
f 364/364/364 446/446/446 367/367/367
f 448/448/448 449/449/449 446/446/446
f 448/448/448 446/446/446 447/447/447
f 443/443/443 442/442/442 446/446/446
f 443/443/443 446/446/446 449/449/449
f 364/364/364 363/363/363 450/450/450
f 364/364/364 450/450/450 447/447/447
f 362/362/362 451/451/451 450/450/450
f 362/362/362 450/450/450 363/363/363
f 452/452/452 453/453/453 450/450/450
f 452/452/452 450/450/450 451/451/451
f 448/448/448 447/447/447 450/450/450
f 448/448/448 450/450/450 453/453/453
f 362/362/362 375/375/375 454/454/454
f 362/362/362 454/454/454 451/451/451
f 373/373/373 441/441/441 454/454/454
f 373/373/373 454/454/454 375/375/375
f 445/445/445 455/455/455 454/454/454
f 445/445/445 454/454/454 441/441/441
f 452/452/452 451/451/451 454/454/454
f 452/452/452 454/454/454 455/455/455
f 401/401/401 400/400/400 456/456/456
f 401/401/401 456/456/456 457/457/457
f 397/397/397 458/458/458 456/456/456
f 397/397/397 456/456/456 400/400/400
f 459/459/459 460/460/460 456/456/456
f 459/459/459 456/456/456 458/458/458
f 461/461/461 457/457/457 456/456/456
f 461/461/461 456/456/456 460/460/460
f 397/397/397 396/396/396 462/462/462
f 397/397/397 462/462/462 458/458/458
f 395/395/395 463/463/463 462/462/462
f 395/395/395 462/462/462 396/396/396
f 464/464/464 465/465/465 462/462/462
f 464/464/464 462/462/462 463/463/463
f 459/459/459 458/458/458 462/462/462
f 459/459/459 462/462/462 465/465/465
f 395/395/395 405/405/405 466/466/466
f 395/395/395 466/466/466 463/463/463
f 404/404/404 467/467/467 466/466/466
f 404/404/404 466/466/466 405/405/405
f 468/468/468 469/469/469 466/466/466
f 468/468/468 466/466/466 467/467/467
f 464/464/464 463/463/463 466/466/466
f 464/464/464 466/466/466 469/469/469
f 404/404/404 407/407/407 470/470/470
f 404/404/404 470/470/470 467/467/467
f 401/401/401 457/457/457 470/470/470
f 401/401/401 470/470/470 407/407/407
f 461/461/461 471/471/471 470/470/470
f 461/461/461 470/470/470 457/457/457
f 468/468/468 467/467/467 470/470/470
f 468/468/468 470/470/470 471/471/471
f 349/349/349 357/357/357 472/472/472
f 349/349/349 472/472/472 473/473/473
f 354/354/354 474/474/474 472/472/472
f 354/354/354 472/472/472 357/357/357
f 475/475/475 476/476/476 472/472/472
f 475/475/475 472/472/472 474/474/474
f 477/477/477 473/473/473 472/472/472
f 477/477/477 472/472/472 476/476/476
f 354/354/354 353/353/353 478/478/478
f 354/354/354 478/478/478 474/474/474
f 346/346/346 479/479/479 478/478/478
f 346/346/346 478/478/478 353/353/353
f 480/480/480 481/481/481 478/478/478
f 480/480/480 478/478/478 479/479/479
f 475/475/475 474/474/474 478/478/478
f 475/475/475 478/478/478 481/481/481
f 346/346/346 345/345/345 482/482/482
f 346/346/346 482/482/482 479/479/479
f 344/344/344 483/483/483 482/482/482
f 344/344/344 482/482/482 345/345/345
f 484/484/484 485/485/485 482/482/482
f 484/484/484 482/482/482 483/483/483
f 480/480/480 479/479/479 482/482/482
f 480/480/480 482/482/482 485/485/485
f 344/344/344 350/350/350 486/486/486
f 344/344/344 486/486/486 483/483/483
f 349/349/349 473/473/473 486/486/486
f 349/349/349 486/486/486 350/350/350
f 477/477/477 487/487/487 486/486/486
f 477/477/477 486/486/486 473/473/473
f 484/484/484 483/483/483 486/486/486
f 484/484/484 486/486/486 487/487/487
f 413/413/413 412/412/412 488/488/488
f 413/413/413 488/488/488 489/489/489
f 411/411/411 490/490/490 488/488/488
f 411/411/411 488/488/488 412/412/412
f 491/491/491 489/489/489 488/488/488
f 491/491/491 488/488/488 490/490/490
f 411/411/411 417/417/417 492/492/492
f 411/411/411 492/492/492 490/490/490
f 416/416/416 493/493/493 492/492/492
f 416/416/416 492/492/492 417/417/417
f 491/491/491 490/490/490 492/492/492
f 491/491/491 492/492/492 493/493/493
f 416/416/416 421/421/421 494/494/494
f 416/416/416 494/494/494 493/493/493
f 420/420/420 495/495/495 494/494/494
f 420/420/420 494/494/494 421/421/421
f 491/491/491 493/493/493 494/494/494
f 491/491/491 494/494/494 495/495/495
f 420/420/420 423/423/423 496/496/496
f 420/420/420 496/496/496 495/495/495
f 413/413/413 489/489/489 496/496/496
f 413/413/413 496/496/496 423/423/423
f 491/491/491 495/495/495 496/496/496
f 491/491/491 496/496/496 489/489/489
f 429/429/429 428/428/428 497/497/497
f 429/429/429 497/497/497 498/498/498
f 427/427/427 499/499/499 497/497/497
f 427/427/427 497/497/497 428/428/428
f 500/500/500 498/498/498 497/497/497
f 500/500/500 497/497/497 499/499/499
f 427/427/427 433/433/433 501/501/501
f 427/427/427 501/501/501 499/499/499
f 432/432/432 502/502/502 501/501/501
f 432/432/432 501/501/501 433/433/433
f 500/500/500 499/499/499 501/501/501
f 500/500/500 501/501/501 502/502/502
f 432/432/432 437/437/437 503/503/503
f 432/432/432 503/503/503 502/502/502
f 436/436/436 504/504/504 503/503/503
f 436/436/436 503/503/503 437/437/437
f 500/500/500 502/502/502 503/503/503
f 500/500/500 503/503/503 504/504/504
f 436/436/436 439/439/439 505/505/505
f 436/436/436 505/505/505 504/504/504
f 429/429/429 498/498/498 505/505/505
f 429/429/429 505/505/505 439/439/439
f 500/500/500 504/504/504 505/505/505
f 500/500/500 505/505/505 498/498/498
f 445/445/445 444/444/444 506/506/506
f 445/445/445 506/506/506 507/507/507
f 443/443/443 508/508/508 506/506/506
f 443/443/443 506/506/506 444/444/444
f 509/509/509 507/507/507 506/506/506
f 509/509/509 506/506/506 508/508/508
f 443/443/443 449/449/449 510/510/510
f 443/443/443 510/510/510 508/508/508
f 448/448/448 511/511/511 510/510/510
f 448/448/448 510/510/510 449/449/449
f 509/509/509 508/508/508 510/510/510
f 509/509/509 510/510/510 511/511/511
f 448/448/448 453/453/453 512/512/512
f 448/448/448 512/512/512 511/511/511
f 452/452/452 513/513/513 512/512/512
f 452/452/452 512/512/512 453/453/453
f 509/509/509 511/511/511 512/512/512
f 509/509/509 512/512/512 513/513/513
f 452/452/452 455/455/455 514/514/514
f 452/452/452 514/514/514 513/513/513
f 445/445/445 507/507/507 514/514/514
f 445/445/445 514/514/514 455/455/455
f 509/509/509 513/513/513 514/514/514
f 509/509/509 514/514/514 507/507/507
f 461/461/461 460/460/460 515/515/515
f 461/461/461 515/515/515 516/516/516
f 459/459/459 517/517/517 515/515/515
f 459/459/459 515/515/515 460/460/460
f 518/518/518 516/516/516 515/515/515
f 518/518/518 515/515/515 517/517/517
f 459/459/459 465/465/465 519/519/519
f 459/459/459 519/519/519 517/517/517
f 464/464/464 520/520/520 519/519/519
f 464/464/464 519/519/519 465/465/465
f 518/518/518 517/517/517 519/519/519
f 518/518/518 519/519/519 520/520/520
f 464/464/464 469/469/469 521/521/521
f 464/464/464 521/521/521 520/520/520
f 468/468/468 522/522/522 521/521/521
f 468/468/468 521/521/521 469/469/469
f 518/518/518 520/520/520 521/521/521
f 518/518/518 521/521/521 522/522/522
f 468/468/468 471/471/471 523/523/523
f 468/468/468 523/523/523 522/522/522
f 461/461/461 516/516/516 523/523/523
f 461/461/461 523/523/523 471/471/471
f 518/518/518 522/522/522 523/523/523
f 518/518/518 523/523/523 516/516/516
f 477/477/477 476/476/476 524/524/524
f 477/477/477 524/524/524 525/525/525
f 475/475/475 526/526/526 524/524/524
f 475/475/475 524/524/524 476/476/476
f 527/527/527 525/525/525 524/524/524
f 527/527/527 524/524/524 526/526/526
f 475/475/475 481/481/481 528/528/528
f 475/475/475 528/528/528 526/526/526
f 480/480/480 529/529/529 528/528/528
f 480/480/480 528/528/528 481/481/481
f 527/527/527 526/526/526 528/528/528
f 527/527/527 528/528/528 529/529/529
f 480/480/480 485/485/485 530/530/530
f 480/480/480 530/530/530 529/529/529
f 484/484/484 531/531/531 530/530/530
f 484/484/484 530/530/530 485/485/485
f 527/527/527 529/529/529 530/530/530
f 527/527/527 530/530/530 531/531/531
f 484/484/484 487/487/487 532/532/532
f 484/484/484 532/532/532 531/531/531
f 477/477/477 525/525/525 532/532/532
f 477/477/477 532/532/532 487/487/487
f 527/527/527 531/531/531 532/532/532
f 527/527/527 532/532/532 525/525/525
