# Object15.bmd — MU geometry at action 0 key 0, exported for MU2
# 3 mesh(es)

g wooda
# texture: wooda.jpg
v 28.10689 46.28119 -269.2792
v 72.3606 101.8524 -269.2792
v 90.8307 76.9381 -145.3218
v 31.53071 21.36689 -145.3218
v 94.15119 150.9084 -269.2792
v 119.8625 134.2913 -145.3219
v 101.901 202.9753 -269.2792
v 130.4148 192.1846 -167.8078
v 105.8945 223.5974 -269.2792
v 135.7661 214.9383 -146.6897
v 105.8945 282.7239 -269.2793
v 135.7661 282.7239 -145.3219
v 106.1174 65.2856 -53.55651
v 34.3644 9.714298 -53.55649
v 141.4486 120.8568 -53.55662
v 154.0141 171.9648 -16.94094
v 120.3591 193.6228 -166.4565
v 125.7104 216.3765 -145.3384
v 150.4335 216.3765 -52.05273
v 143.9584 173.403 -15.58963
v 160.4893 282.724 -53.55665
v 160.4892 214.9383 -53.40394
v 115.8063 56.8839 132.4426
v 36.16048 1.312717 132.4427
v 155.0239 112.4551 132.4425
v 168.9716 168.0263 95.40296
v 176.159 223.5975 123.4359
v 176.159 282.724 83.54154
v -69.82067 282.7239 -269.2793
v -69.82067 223.5973 -269.2793
v -99.69228 214.9383 -146.6897
v -99.69227 282.7239 -145.3219
v -65.82719 202.9753 -269.2792
v -94.34097 192.1845 -167.8078
v -58.07737 150.9084 -269.2792
v -83.95618 132.5092 -145.3219
v -36.2868 101.8524 -269.2792
v -54.7569 76.9381 -145.3218
v 7.966909 46.28118 -269.2792
v 4.543112 21.36688 -145.3218
v -124.4154 214.9383 -53.40391
v -124.4154 282.724 -53.55659
v -117.9403 171.9648 -16.94093
v -105.3748 120.8568 -53.5566
v -70.0436 65.2856 -53.5565
v 1.709398 9.714298 -53.55649
v -140.0852 223.5976 132.4427
v -140.0852 282.724 161.9553
v -132.8978 168.0263 132.4427
v -118.95 112.4551 103.5526
v -79.73239 56.8839 87.54149
v -0.086611 1.312714 132.4427
v 96.48121 282.7753 -251.749
v -60.40737 282.7752 -251.7489
v -60.40737 252.2086 -251.7489
v 96.4812 252.2087 -251.7489
v -60.40737 282.7752 -251.7489
v -87.07838 282.7753 -146.3334
v -87.07838 252.2087 -146.3334
v -60.40737 252.2086 -251.7489
v 123.1523 282.7753 -146.3334
v 96.48121 282.7753 -251.749
v 96.4812 252.2087 -251.7489
v 123.1523 252.2087 -146.3334
v -87.07838 282.7753 -146.3334
v -109.1527 282.7754 -53.55665
v -109.1527 252.2088 -53.55662
v -87.07838 252.2087 -146.3334
v 145.2265 282.7754 -53.55663
v 123.1523 282.7753 -146.3334
v 123.1523 252.2087 -146.3334
v 145.2265 252.2088 -53.55664
v -109.1527 282.7754 -53.55665
v -123.1435 282.7754 161.3843
v -123.1435 252.2088 131.8715
v -123.1435 252.2088 131.8715
v -109.1527 252.2088 -53.55662
v -109.1527 282.7754 -53.55665
v 159.2174 282.7754 82.97054
v 145.2265 282.7754 -53.55663
v 145.2265 252.2088 -53.55664
v 145.2265 252.2088 -53.55664
v 159.2174 252.2088 131.8713
v 159.2174 282.7754 82.97054
v 89.64709 64.48429 -65.95261
v 31.3113 16.2833 -65.95259
v 115.8063 66.21361 130.8213
v 36.1605 10.64241 130.8214
v 127.7401 125.91 15.93037
v 151.4111 121.7848 130.8212
v 133.604 181.3471 15.93037
v 165.3331 177.356 93.78156
v 133.8518 233.701 15.93047
v 162.7475 232.5476 120.4831
v -103.5553 180.4805 15.93038
v -108.8099 233.4863 15.93035
v -128.5363 177.356 130.8212
v -127.3774 230.9667 136.3186
v -82.29778 125.8439 -32.97051
v -115.0178 121.7848 101.9313
v -53.57319 64.4843 -65.95259
v -78.0063 66.21371 85.9202
v 4.762495 16.28329 -65.95259
v -0.086603 10.64241 130.8214
v -123.1435 252.2088 131.8715
v -123.1435 282.7754 161.3843
v -127.3774 230.9667 136.3186
v -140.0852 282.7495 161.9553
v -140.0852 223.5976 132.4427
v -135.121 176.5021 173.4959
v -140.5944 198.4175 159.6014
v -137.188 172.0804 174.2645
v -134.1705 228.3721 149.4696
v -137.4231 222.5044 150.4893
v -130.1596 193.4217 176.8156
v -78.0063 66.21371 85.9202
v -118.95 112.4551 103.5526
v -79.73239 56.8839 87.54149
v -0.086603 10.64241 130.8214
v -0.086611 1.312714 132.4427
v -115.0178 121.7848 101.9313
v -128.5363 177.356 130.8212
v -132.8978 168.0263 132.4427
v 36.16048 1.312717 132.4427
v 115.8063 56.8839 132.4426
v 36.1605 10.64241 130.8214
v 115.8063 66.21361 130.8213
v 151.4111 121.7848 130.8212
v 155.0239 112.4551 132.4425
v 159.7747 124.2613 161.3206
v 166.9642 152.9063 140.0882
v 157.9124 129.0705 160.4848
v 168.9716 168.0263 95.40296
v 165.3331 177.356 93.78156
v 174.5952 206.8054 144.071
v 169.2358 183.9136 106.2286
v 171.0371 179.2949 107.0312
v 176.159 223.5975 123.4359
v 162.7475 232.5476 120.4831
v 176.159 282.7495 83.54154
v 159.2174 282.7754 82.97054
v 159.2174 252.2088 131.8713
v 155.0239 112.4551 132.4425
v 168.9716 168.0263 95.40296
v 166.9642 152.9063 140.0882
v 166.9642 152.9063 140.0882
v 159.7747 124.2613 161.3206
v 155.0239 112.4551 132.4425
v 151.4111 121.7848 130.8212
v 155.0239 112.4551 132.4425
v 159.7747 124.2613 161.3206
v 157.9124 129.0705 160.4848
v 168.9716 168.0263 95.40296
v 151.4111 121.7848 130.8212
v 157.9124 129.0705 160.4848
v 157.9124 129.0705 160.4848
v 166.9642 152.9063 140.0882
v 168.9716 168.0263 95.40296
v 168.9716 168.0263 95.40296
v 176.159 223.5975 123.4359
v 174.5952 206.8054 144.071
v 174.5952 206.8054 144.071
v 171.0371 179.2949 107.0312
v 168.9716 168.0263 95.40296
v 165.3331 177.356 93.78156
v 168.9716 168.0263 95.40296
v 171.0371 179.2949 107.0312
v 169.2358 183.9136 106.2286
v 176.159 223.5975 123.4359
v 165.3331 177.356 93.78156
v 169.2358 183.9136 106.2286
v 169.2358 183.9136 106.2286
v 174.5952 206.8054 144.071
v 176.159 223.5975 123.4359
v -132.8978 168.0263 132.4427
v -118.95 112.4551 103.5526
v -122.3054 123.8648 147.3581
v -122.3054 123.8648 147.3581
v -128.7035 149.3562 147.3581
v -132.8978 168.0263 132.4427
v -118.95 112.4551 103.5526
v -115.0178 121.7848 101.9313
v -120.5016 128.1445 146.6143
v -122.3054 123.8648 147.3581
v -115.0178 121.7848 101.9313
v -132.8978 168.0263 132.4427
v -128.7035 149.3562 147.3581
v -128.7035 149.3562 147.3581
v -120.5016 128.1445 146.6143
v -115.0178 121.7848 101.9313
v -78.0063 66.21371 85.9202
v -115.0178 121.7848 101.9313
v -116.1687 122.5456 154.3029
v -116.1687 122.5456 154.3029
v -79.1573 66.97451 182.3464
v -78.0063 66.21371 85.9202
v -118.95 112.4551 103.5526
v -78.0063 66.21371 85.9202
v -79.1573 66.97451 182.3464
v -79.1573 66.97451 182.3464
v -120.101 113.2159 155.9243
v -118.95 112.4551 103.5526
v -115.0178 121.7848 101.9313
v -118.95 112.4551 103.5526
v -120.101 113.2159 155.9243
v -116.1687 122.5456 154.3029
v -128.5363 177.356 130.8212
v -127.3774 230.9667 136.3186
v -134.1705 228.3721 149.4696
v -134.1705 228.3721 149.4696
v -130.1596 193.4217 176.8156
v -128.5363 177.356 130.8212
v -127.3774 230.9667 136.3186
v -140.0852 223.5976 132.4427
v -137.4231 222.5044 150.4893
v -137.4231 222.5044 150.4893
v -134.1705 228.3721 149.4696
v -127.3774 230.9667 136.3186
v -140.0852 223.5976 132.4427
v -128.5363 177.356 130.8212
v -130.1596 193.4217 176.8156
v -130.1596 193.4217 176.8156
v -137.4231 222.5044 150.4893
v -140.0852 223.5976 132.4427
v -140.0852 223.5976 132.4427
v -132.8978 168.0263 132.4427
v -137.188 172.0804 174.2645
v -137.188 172.0804 174.2645
v -140.5944 198.4175 159.6014
v -140.0852 223.5976 132.4427
v -128.5363 177.356 130.8212
v -140.0852 223.5976 132.4427
v -140.5944 198.4175 159.6014
v -140.5944 198.4175 159.6014
v -135.121 176.5021 173.4959
v -128.5363 177.356 130.8212
v -132.8978 168.0263 132.4427
v -128.5363 177.356 130.8212
v -135.121 176.5021 173.4959
v -137.188 172.0804 174.2645
v -0.086603 10.64241 130.8214
v -0.086611 1.312714 132.4427
v -0.086618 0.388516 220.8065
v -0.086618 9.71822 199.2861
v 36.16048 1.312717 132.4427
v 36.1605 10.64241 130.8214
v 36.16051 9.71822 194.5137
v 36.16051 0.388523 203.3648
v 36.1605 10.64241 130.8214
v 31.3113 16.2833 -65.95259
v 31.3113 30.3333 -65.4397
v 36.1605 24.69251 131.3342
v 4.762495 16.28329 -65.95259
v -0.086603 10.64241 130.8214
v -0.086603 24.69252 131.3342
v 4.762499 30.3333 -65.43979
v -0.086603 23.76832 199.933
v -0.086603 24.69252 131.3342
v 36.1605 24.69251 131.3342
v 36.1605 23.76831 174.2181
v 92.81621 252.2605 -122.1613
v -58.42887 252.2605 -122.1613
v -58.42889 129.1853 -122.1612
v 92.8162 129.1853 -122.1612
v -58.42887 252.2605 -122.1613
v -74.30967 252.2605 -53.66764
v -74.30959 129.1853 -53.6676
v -58.42889 129.1853 -122.1612
v 108.697 252.2605 -53.66763
v 92.81621 252.2605 -122.1613
v 92.8162 129.1853 -122.1612
v 108.697 129.1853 -53.66762
v -84.37499 252.2605 79.73386
v -84.37499 129.1854 29.51099
v 118.7623 252.2605 79.73386
v 108.697 252.2605 -53.66763
v 108.697 129.1853 -53.66762
v 118.7623 129.1854 79.73398
v 130.4148 192.1846 -167.8078
v 135.7661 214.9383 -146.6897
v 125.7104 216.3765 -145.3384
v 120.3591 193.6228 -166.4565
v 154.0141 171.9648 -16.94094
v 130.4148 192.1846 -167.8078
v 120.3591 193.6228 -166.4565
v 143.9584 173.403 -15.58963
v 160.4892 214.9383 -53.40394
v 154.0141 171.9648 -16.94094
v 143.9584 173.403 -15.58963
v 150.4335 216.3765 -52.05273
v -123.1435 252.2088 131.8715
v -127.3774 230.9667 136.3186
v -128.9301 230.9667 206.5897
v -128.9301 230.9667 206.5897
v -128.93 245.8221 224.0314
v -123.1435 252.2088 131.8715
v -88.09917 230.9667 87.60427
v -84.37499 252.2605 79.73386
v -89.65186 245.8221 203.158
v -89.65186 245.8221 203.158
v -89.65186 230.9667 177.4429
v -88.09917 230.9667 87.60427
v -127.3774 230.9667 136.3186
v -88.09917 230.9667 87.60427
v -113.256 230.9667 197.7387
v -128.9301 230.9667 206.5897
v -89.65186 230.9667 177.4429
v 162.7475 232.5476 120.4831
v 159.2174 252.2088 131.8713
v 164.3002 247.403 207.2405
v 164.3002 247.403 207.2405
v 164.3002 232.5476 224.6823
v 162.7475 232.5476 120.4831
v 118.7623 252.2605 79.73386
v 123.4694 232.5476 89.35925
v 125.0221 232.5476 203.8088
v 125.0221 232.5476 203.8088
v 125.0221 247.403 178.0938
v 118.7623 252.2605 79.73386
v 164.3002 232.5476 224.6823
v 148.6262 232.5476 203.162
v 162.7475 232.5476 120.4831
v 125.0221 232.5476 203.8088
v 123.4694 232.5476 89.35925
v 123.4694 232.5476 89.35925
v 118.7623 252.2605 79.73386
v 118.7623 129.1854 79.73398
v -43.67218 216.0951 -15.83184
v -28.97138 244.5986 -183.8628
v -27.20249 230.5485 -204.0811
v -26.43099 221.2188 -212.8985
v -27.20249 230.5485 -204.0811
v -28.97138 244.5986 -183.8628
v -38.24478 239.4748 -77.86683
v -38.24478 239.4748 -77.86683
v -43.67218 216.0951 -15.83184
v -12.97278 225.4248 -17.24021
v -42.90068 225.4248 -24.64922
v 3.613714 244.5986 -206.8251
v -14.84849 216.0951 4.198265
v 3.55731 230.5484 -206.1806
v -12.97278 225.4248 -17.24021
v -42.90068 225.4248 -24.64922
v -38.24478 239.4748 -77.86683
v -12.97278 225.4248 -17.24021
v -13.02918 239.4749 -16.59563
v -13.02918 239.4749 -16.59563
v 72.50021 268.0316 -135.2629
v 109.5699 250.7458 -84.44823
v 92.35911 258.7713 -76.85154
v 90.14991 259.8015 -141.5691
v 111.2532 254.3556 -84.44823
v 90.14991 259.8015 -141.5691
v 91.83321 263.4113 -141.5691
v 109.5699 250.7458 -84.44823
v 57.06071 255.8739 -174.914
v 77.83591 259.5371 -94.73243
v 57.06072 255.8739 -91.37713
v 77.83591 259.5371 -179.2177
v 77.14421 263.4596 -94.73241
v 77.83591 259.5371 -179.2177
v 77.14422 263.4596 -179.2177
v 77.83591 259.5371 -94.73243
v -3.269575 274.4204 -142.3619
v -31.29608 241.3248 -75.49232
v -47.53646 247.7026 -85.06553
v 17.95482 271.0507 -139.2398
v -31.02789 244.6379 -73.74012
v 17.95482 271.0507 -139.2398
v 18.22312 274.3638 -137.4875
v -31.29608 241.3248 -75.49232
v -26.06039 247.4519 -192.4985
v -78.85746 285.3188 -155.3156
v -87.79248 283.5055 -170.124
v -18.23888 249.9155 -177.2863
v -77.37559 288.4623 -156.7315
v -18.23888 249.9155 -177.2863
v -16.75688 253.059 -178.7023
v -78.85746 285.3188 -155.3156
v 124.3182 268.393 -72.88332
v 92.81461 249.0417 -0.779732
v 80.28541 250.3205 -7.992836
v 135.8745 266.715 -64.23653
v 92.60591 254.0222 0.465752
v 135.8745 266.715 -64.23653
v 135.6659 271.6954 -62.99113
v 92.81461 249.0417 -0.779732
vn 0.719803 -0.664803 -0.199801
vn 0.844494 -0.482996 -0.231398
vn 0.78533 -0.579722 -0.217208
vn 0.651787 -0.740986 -0.161597
vn 0.930517 -0.266805 -0.250905
vn 0.922261 -0.310187 -0.23069
vn 0.958588 -0.101499 -0.266097
vn 0.957506 -0.156901 -0.242002
vn 0.969032 -0.060102 -0.239508
vn 0.966719 -0.030601 -0.254005
vn 0.972166 -0 -0.234292
vn 0.969872 0.0033 -0.243593
vn 0.738196 -0.662696 -0.126099
vn 0.597295 -0.798394 -0.076199
vn 0.924242 -0.340715 -0.172308
vn 0.97726 -0.146194 -0.153594
vn 0.963499 -0.1463 -0.2242
vn 0.96657 0.0104 -0.256192
vn 0.963499 -0.1463 -0.2242
vn 0.935789 -0.299196 -0.186498
vn 0.977593 0.0015 -0.210499
vn 0.988706 -0.0679 -0.133601
vn 0.673829 -0.736431 -0.060202
vn 0.571682 -0.819374 -0.042499
vn 0.877715 -0.472508 -0.079701
vn 0.978872 -0.166995 -0.117997
vn 0.989008 -0.110101 -0.098701
vn 0.994618 -0.028901 -0.099502
vn -0.971873 0.0024 -0.235494
vn -0.965203 -0.0638 -0.253601
vn -0.970601 -0.0703 -0.2302
vn -0.96819 0.0031 -0.250197
vn -0.943615 -0.198403 -0.265004
vn -0.960234 -0.153205 -0.233408
vn -0.914314 -0.333705 -0.229503
vn -0.902625 -0.35271 -0.246707
vn -0.787712 -0.581809 -0.202503
vn -0.775363 -0.596872 -0.20629
vn -0.773995 -0.616296 -0.145299
vn -0.708374 -0.685774 -0.167094
vn -0.977955 -0.117807 -0.17241
vn -0.990167 0.0118 -0.139395
vn -0.97069 -0.190598 -0.146398
vn -0.915568 -0.367387 -0.163594
vn -0.729159 -0.667862 -0.149291
vn -0.632401 -0.765601 -0.118
vn -0.996465 -0.030699 -0.078197
vn -0.996711 0.0362 -0.072501
vn -0.978298 -0.1844 -0.0945
vn -0.94466 -0.312087 -0.101096
vn -0.749291 -0.655492 -0.094299
vn -0.574964 -0.815649 -0.064296
vn 0 0 1
vn 0 0 1
vn 0 0 1
vn 0 0 1
vn 0.969451 0 0.245287
vn 0.969451 0 0.245287
vn 0.969451 0 0.245287
vn 0.969451 0 0.245287
vn -0.969451 0 0.245288
vn -0.969451 0 0.245288
vn -0.969451 0 0.245288
vn -0.969451 0 0.245288
vn 0.972833 0 0.231508
vn 0.972833 0 0.231508
vn 0.972833 0 0.231508
vn 0.972833 0 0.231508
vn -0.972833 0 0.231508
vn -0.972833 0 0.231508
vn -0.972833 0 0.231508
vn -0.972833 0 0.231508
vn 0.995933 -0.062602 0.064802
vn 0.995933 -0.062602 0.064802
vn 0.995933 -0.062602 0.064802
vn 0.997169 0 0.075198
vn 0.997169 0 0.075198
vn 0.997169 0 0.075198
vn -0.994795 0 0.1019
vn -0.994795 0 0.1019
vn -0.994795 0 0.1019
vn -0.99002 0.119502 0.074702
vn -0.99002 0.119502 0.074702
vn -0.99002 0.119502 0.074702
vn -0.8231 0.5522 0.1326
vn -0.603997 0.794896 0.0577
vn -0.691384 0.718584 0.074998
vn -0.571815 0.819521 0.037601
vn -0.929515 0.257804 0.263704
vn -0.898484 0.404293 0.171097
vn -0.940149 -0.038498 0.338582
vn -0.942567 0.083597 0.323389
vn -0.963848 0.0046 0.266413
vn -0.943058 -0.106595 0.315086
vn 0.966775 0.127097 0.221794
vn 0.982605 0.0298 0.183301
vn 0.979111 0.061501 0.193802
vn 0.987754 -0.036898 0.151593
vn 0.917917 0.341206 0.202504
vn 0.937262 0.264689 0.226891
vn 0.729875 0.677577 0.090397
vn 0.79888 0.581786 0.152696
vn 0.636525 0.77033 0.037801
vn 0.593394 0.802791 0.058399
vn 0.97331 -0.159402 0.165102
vn 0.635607 -0.377704 0.673308
vn 0.407502 -0.429302 0.806004
vn 0.0085 -0.44199 0.89698
vn -0.014 -0.44641 0.894719
vn -0.501598 0.370398 0.781796
vn -0.501598 0.370398 0.781796
vn -0.501598 0.370398 0.781796
vn -0.601512 0.448309 0.661213
vn -0.601512 0.448309 0.661213
vn -0.601512 0.448309 0.661213
vn 0.053702 0.161307 0.985442
vn 0.459223 0.068904 0.885645
vn -0.109895 0.163792 0.980355
vn -0.380913 0.190707 0.90473
vn -0.399622 0.156909 0.903151
vn 0.684592 -0.198098 0.701492
vn 0.684592 -0.198098 0.701492
vn 0.684592 -0.198098 0.701492
vn -0.118598 0.169997 0.978282
vn -0.157895 0.169095 0.97287
vn -0.118598 0.169997 0.978282
vn -0.173691 0.147792 0.973647
vn 0.221603 0.250503 0.942412
vn -0.201009 0.136407 0.970046
vn 0.61961 0.361106 0.696912
vn 0.61961 0.361106 0.696912
vn 0.61961 0.361106 0.696912
vn 0.5708 0.3516 0.742
vn 0.080303 -0.035601 0.996135
vn -0.903135 -0.298611 0.308512
vn -0.903135 -0.298611 0.308512
vn -0.903135 -0.298611 0.308512
vn -0.158404 0.087102 0.983525
vn 0.257006 0.318207 0.91252
vn 0.081099 0.576596 0.812994
vn 0.643579 0.486484 0.59088
vn 0.988127 0.130304 0.081402
vn 0.96042 -0.274106 -0.049601
vn 0.96042 -0.274106 -0.049601
vn 0.96042 -0.274106 -0.049601
vn 0.960392 -0.274898 -0.0456
vn 0.960392 -0.274898 -0.0456
vn 0.960392 -0.274898 -0.0456
vn -0.911737 -0.305312 0.274811
vn -0.911737 -0.305312 0.274811
vn -0.911737 -0.305312 0.274811
vn -0.911737 -0.305312 0.274811
vn -0.903985 0.416693 0.095799
vn -0.903985 0.416693 0.095799
vn -0.903985 0.416693 0.095799
vn -0.896354 0.430626 0.105406
vn -0.896354 0.430626 0.105406
vn -0.896354 0.430626 0.105406
vn 0.99281 -0.117901 -0.0207
vn 0.99281 -0.117901 -0.0207
vn 0.99281 -0.117901 -0.0207
vn -0.928753 0.334683 -0.159392
vn -0.928753 0.334683 -0.159392
vn -0.928753 0.334683 -0.159392
vn -0.870185 -0.267495 0.413793
vn -0.870185 -0.267495 0.413793
vn -0.870185 -0.267495 0.413793
vn -0.870185 -0.267495 0.413793
vn -0.960019 0.047901 0.275806
vn -0.960019 0.047901 0.275806
vn -0.960019 0.047901 0.275806
vn -0.987307 0.151301 0.0483
vn -0.987307 0.151301 0.0483
vn -0.987307 0.151301 0.0483
vn -0.97138 -0.237195 -0.0126
vn -0.97138 -0.237195 -0.0126
vn -0.97138 -0.237195 -0.0126
vn -0.969422 -0.243306 -0.032001
vn -0.969422 -0.243306 -0.032001
vn -0.969422 -0.243306 -0.032001
vn 0.918925 -0.35881 0.163805
vn 0.918925 -0.35881 0.163805
vn 0.918925 -0.35881 0.163805
vn 0.918925 -0.35881 0.163805
vn 0.948916 0.297405 0.105402
vn 0.948916 0.297405 0.105402
vn 0.948916 0.297405 0.105402
vn 0.931571 0.357989 0.063398
vn 0.931571 0.357989 0.063398
vn 0.931571 0.357989 0.063398
vn 0.833633 0.552222 0.0103
vn 0.833633 0.552222 0.0103
vn 0.833633 0.552222 0.0103
vn 0.830975 0.556283 0.0055
vn 0.830975 0.556283 0.0055
vn 0.830975 0.556283 0.0055
vn -0.749404 -0.662103 -0.0037
vn -0.749404 -0.662103 -0.0037
vn -0.749404 -0.662103 -0.0037
vn -0.746757 -0.665062 -0.006799
vn -0.746757 -0.665062 -0.006799
vn -0.746757 -0.665062 -0.006799
vn -0.922803 0.384401 -0.0259
vn -0.922803 0.384401 -0.0259
vn -0.922803 0.384401 -0.0259
vn -0.922803 0.384401 -0.0259
vn 0.891763 -0.065197 0.447781
vn 0.891763 -0.065197 0.447781
vn 0.891763 -0.065197 0.447781
vn 0.993802 0.1111 -0.0037
vn 0.993802 0.1111 -0.0037
vn 0.993802 0.1111 -0.0037
vn -0.526497 0.840395 0.128599
vn -0.526497 0.840395 0.128599
vn -0.526497 0.840395 0.128599
vn -0.842404 0.405202 -0.355202
vn -0.842404 0.405202 -0.355202
vn -0.842404 0.405202 -0.355202
vn -0.968513 -0.243703 0.050901
vn -0.968513 -0.243703 0.050901
vn -0.968513 -0.243703 0.050901
vn -0.983069 -0.120896 0.137696
vn -0.983069 -0.120896 0.137696
vn -0.983069 -0.120896 0.137696
vn -0.987808 -0.127801 -0.088901
vn -0.987808 -0.127801 -0.088901
vn -0.987808 -0.127801 -0.088901
vn -0.926225 -0.267607 -0.265507
vn -0.926225 -0.267607 -0.265507
vn -0.926225 -0.267607 -0.265507
vn 0.946181 0.228295 0.229395
vn 0.946181 0.228295 0.229395
vn 0.946181 0.228295 0.229395
vn 0.932506 0.328302 0.150501
vn 0.932506 0.328302 0.150501
vn 0.932506 0.328302 0.150501
vn 0.906581 -0.400892 0.131897
vn 0.906581 -0.400892 0.131897
vn 0.906581 -0.400892 0.131897
vn 0.906581 -0.400892 0.131897
vn -1 0 0
vn -1 0 0
vn -1 0 0
vn -1 0 0
vn 1 -0 -0
vn 1 -0 -0
vn 1 -0 -0
vn 1 -0 -0
vn 0.999697 0.0009 -0.0246
vn 0.999697 0.0009 -0.0246
vn 0.999697 0.0009 -0.0246
vn 0.999697 0.0009 -0.0246
vn -0.999697 0.0009 -0.0246
vn -0.999697 0.0009 -0.0246
vn -0.999697 0.0009 -0.0246
vn -0.999697 0.0009 -0.0246
vn -1 0 0
vn -1 0 0
vn 1 -0 -0
vn 1 -0 -0
vn 0 0 1
vn 0 0 1
vn 0 0 1
vn 0 0 1
vn 0.974153 0 0.225889
vn 0.989999 -0.0103 0.1407
vn 0.981609 0 0.190902
vn 0.974153 0 0.225889
vn -0.974153 0 0.225889
vn -0.974153 0 0.225889
vn -0.974153 0 0.225889
vn -0.974153 0 0.225889
vn 0.996696 -0.0307 0.0752
vn 0.995098 -0.0153 0.0977
vn -0.997169 0 0.075198
vn -0.997169 0 0.075198
vn -0.997169 0 0.075198
vn -0.997169 0 0.075198
vn 0.0012 -0.68042 0.732822
vn 0.0012 -0.68042 0.732822
vn 0.0012 -0.68042 0.732822
vn 0.0012 -0.68042 0.732822
vn 0.154896 0.982076 0.107397
vn 0.154896 0.982076 0.107397
vn 0.154896 0.982076 0.107397
vn 0.154896 0.982076 0.107397
vn -0.190898 -0.618194 -0.762492
vn -0.190898 -0.618194 -0.762492
vn -0.190898 -0.618194 -0.762492
vn -0.190898 -0.618194 -0.762492
vn -0.98133 0.191106 -0.021701
vn -0.98133 0.191106 -0.021701
vn -0.98133 0.191106 -0.021701
vn -0.996016 0.067901 -0.057801
vn -0.996016 0.067901 -0.057801
vn -0.996016 0.067901 -0.057801
vn 0.986537 -0.160006 0.033801
vn 0.986537 -0.160006 0.033801
vn 0.986537 -0.160006 0.033801
vn 0.999403 -0.0299 0.0173
vn 0.999403 -0.0299 0.0173
vn 0.999403 -0.0299 0.0173
vn -0 -1 0
vn -0 -1 0
vn -0 -1 0
vn -0 -1 0
vn -0 -1 0
vn 0.977125 0.206005 -0.052801
vn 0.977125 0.206005 -0.052801
vn 0.977125 0.206005 -0.052801
vn 0.999736 -0.017501 -0.014901
vn 0.999736 -0.017501 -0.014901
vn 0.999736 -0.017501 -0.014901
vn -0.974014 -0.226103 0.0132
vn -0.974014 -0.226103 0.0132
vn -0.974014 -0.226103 0.0132
vn -0.990466 0.119296 0.068898
vn -0.990466 0.119296 0.068898
vn -0.990466 0.119296 0.068898
vn -0 -1 0
vn -0 -1 0
vn -0 -1 0
vn -0 -1 0
vn -0 -1 0
vn -0.898333 0 0.439316
vn -0.898333 0 0.439316
vn -0.898333 0 0.439316
vn -0.996191 0 -0.087199
vn -0.996191 0 -0.087199
vn -0.996191 0 -0.087199
vn -0.996191 0 -0.087199
vn 0.996191 0 0.087199
vn 0.996191 0 0.087199
vn 0.996191 0 0.087199
vn -0.996191 0 -0.087199
vn -0.219812 0.806244 0.54923
vn -0.219812 0.806244 0.54923
vn -0.175312 0.683848 0.70825
vn 0.996191 0 0.087199
vn 0.996191 0 0.087199
vn 0.996191 0 0.087199
vn 0.996191 0 0.087199
vn -0.996191 0 -0.087199
vn -0.924532 -0.021201 0.380513
vn -0.924532 -0.021201 0.380513
vn -0.924532 -0.021201 0.380513
vn 0.996191 0 0.087199
vn -0.422606 -0.906313 0
vn -0.422606 -0.906313 0
vn -0.422606 -0.906313 0
vn -0.422606 -0.906313 0
vn 0.848582 -0.395692 -0.351193
vn 0.848582 -0.395692 -0.351193
vn 0.848582 -0.395692 -0.351193
vn 0.848582 -0.395692 -0.351193
vn 0.173603 -0.984816 0
vn 0.173603 -0.984816 0
vn 0.173603 -0.984816 0
vn 0.173603 -0.984816 0
vn 0.984799 0.1737 -0
vn 0.984799 0.1737 -0
vn 0.984799 0.1737 -0
vn 0.984799 0.1737 -0
vn -0.071403 -0.881732 -0.466317
vn -0.071403 -0.881732 -0.466317
vn -0.071403 -0.881732 -0.466317
vn -0.071403 -0.881732 -0.466317
vn 0.816026 -0.32051 0.481015
vn 0.816026 -0.32051 0.481015
vn 0.816026 -0.32051 0.481015
vn 0.816026 -0.32051 0.481015
vn -0.381413 -0.86133 0.335612
vn -0.381413 -0.86133 0.335612
vn -0.381413 -0.86133 0.335612
vn -0.381413 -0.86133 0.335612
vn 0.432104 0.193102 0.880908
vn 0.432104 0.193102 0.880908
vn 0.432104 0.193102 0.880908
vn 0.432104 0.193102 0.880908
vn 0.040601 -0.969325 -0.242406
vn 0.040601 -0.969325 -0.242406
vn 0.040601 -0.969325 -0.242406
vn 0.040601 -0.969325 -0.242406
vn 0.836027 -0.099903 0.539517
vn 0.836027 -0.099903 0.539517
vn 0.836027 -0.099903 0.539517
vn 0.836027 -0.099903 0.539517
vt 5.838 -0.4368
vt 5.838 -0.0112
vt 5.1261 -0.202
vt 5.1261 -0.6276
vt 5.838 0.3646
vt 5.1261 0.2373
vt 5.838 0.7634
vt 5.2552 0.6807
vt 5.838 0.9213
vt 5.1339 0.855
vt 5.838 1.3742
vt 5.1261 1.3742
vt 4.599 -0.2912
vt 4.599 -0.7169
vt 4.599 0.1344
vt 4.3887 0.5258
vt 5.2475 0.6917
vt 5.1262 0.866
vt 4.5904 0.866
vt 4.3809 0.5369
vt 4.599 1.3742
vt 4.5981 0.855
vt 3.5307 -0.3556
vt 3.5307 -0.7812
vt 3.5307 0.07
vt 3.7434 0.4957
vt 3.5824 0.9213
vt 3.8116 1.3742
vt 5.838 1.3742
vt 5.838 0.9213
vt 5.1339 0.855
vt 5.1261 1.3742
vt 5.838 0.7634
vt 5.2552 0.6807
vt 5.838 0.3646
vt 5.1261 0.2236
vt 5.838 -0.0112
vt 5.1261 -0.202
vt 5.838 -0.4368
vt 5.1261 -0.6276
vt 4.5981 0.855
vt 4.599 1.3742
vt 4.3887 0.5258
vt 4.599 0.1344
vt 4.599 -0.2912
vt 4.599 -0.7169
vt 3.5307 0.9213
vt 3.3612 1.3742
vt 3.5307 0.4957
vt 3.6966 0.07
vt 3.7886 -0.3556
vt 3.5307 -0.7812
vt 1.1074 1.6205
vt -0.1131 1.6205
vt -0.1131 1.366
vt 1.1074 1.366
vt 5.7373 1.3746
vt 5.1319 1.3746
vt 5.1319 1.1405
vt 5.7373 1.1405
vt 5.1319 1.3746
vt 5.7374 1.3746
vt 5.7373 1.1405
vt 5.1319 1.1405
vt 5.1319 1.3746
vt 4.599 1.3746
vt 4.599 1.1405
vt 5.1319 1.1405
vt 4.599 1.3746
vt 5.1319 1.3746
vt 5.1319 1.1405
vt 4.599 1.1405
vt 4.599 1.3746
vt 3.3645 1.3746
vt 3.534 1.1405
vt 3.534 1.1405
vt 4.599 1.1405
vt 4.599 1.3746
vt 3.8149 1.3746
vt 4.599 1.3746
vt 4.599 1.1405
vt 4.599 1.1405
vt 3.534 1.1405
vt 3.8149 1.3746
vt 4.6702 -0.2974
vt 4.6702 -0.6666
vt 3.54 -0.2841
vt 3.54 -0.7098
vt 4.1999 0.1731
vt 3.54 0.1415
vt 4.1999 0.5977
vt 3.7528 0.5671
vt 4.1999 0.9987
vt 3.5994 0.9899
vt 4.1999 0.5911
vt 4.1999 0.9971
vt 3.54 0.5671
vt 3.5084 0.9778
vt 4.4808 0.1726
vt 3.7059 0.1415
vt 4.6702 -0.2974
vt 3.7979 -0.2841
vt 4.6702 -0.6666
vt 3.54 -0.7098
vt 3.534 1.1405
vt 3.3645 1.3746
vt 3.5084 0.9778
vt 3.3612 1.3744
vt 3.5307 0.9213
vt 3.2949 0.5606
vt 3.3747 0.7284
vt 3.2905 0.5267
vt 3.4329 0.9579
vt 3.4271 0.9129
vt 3.2758 0.6902
vt 3.7979 -0.2841
vt 3.6966 0.07
vt 3.7886 -0.3556
vt 3.54 -0.7098
vt 3.5307 -0.7812
vt 3.7059 0.1415
vt 3.54 0.5671
vt 3.5307 0.4957
vt 3.5307 -0.7812
vt 3.5307 -0.3556
vt 3.54 -0.7098
vt 3.54 -0.2841
vt 3.54 0.1415
vt 3.5307 0.07
vt 3.3648 0.1605
vt 3.4868 0.3799
vt 3.3696 0.1973
vt 3.7434 0.4957
vt 3.7528 0.5671
vt 3.4639 0.7927
vt 3.6813 0.6174
vt 3.6767 0.582
vt 3.5824 0.9213
vt 3.5994 0.9899
vt 3.8116 1.3744
vt 3.8149 1.3746
vt 3.534 1.1405
vt 3.5307 0.07
vt 3.7434 0.4957
vt 3.4868 0.3799
vt 3.4868 0.3799
vt 3.3648 0.1605
vt 3.5307 0.07
vt 3.54 0.1415
vt 3.5307 0.07
vt 3.3648 0.1605
vt 3.3696 0.1973
vt 3.7434 0.4957
vt 3.54 0.1415
vt 3.3696 0.1973
vt 3.3696 0.1973
vt 3.4868 0.3799
vt 3.7434 0.4957
vt 3.7434 0.4957
vt 3.5824 0.9213
vt 3.4639 0.7927
vt 3.4639 0.7927
vt 3.6767 0.582
vt 3.7434 0.4957
vt 3.7528 0.5671
vt 3.7434 0.4957
vt 3.6767 0.582
vt 3.6813 0.6174
vt 3.5824 0.9213
vt 3.7528 0.5671
vt 3.6813 0.6174
vt 3.6813 0.6174
vt 3.4639 0.7927
vt 3.5824 0.9213
vt 3.5307 0.4957
vt 3.6966 0.07
vt 3.445 0.1574
vt 3.445 0.1574
vt 3.445 0.3527
vt 3.5307 0.4957
vt 3.6966 0.07
vt 3.7059 0.1415
vt 3.4493 0.1902
vt 3.445 0.1574
vt 3.7059 0.1415
vt 3.5307 0.4957
vt 3.445 0.3527
vt 3.445 0.3527
vt 3.4493 0.1902
vt 3.7059 0.1415
vt 3.7979 -0.2841
vt 3.7059 0.1415
vt 3.4051 0.1473
vt 3.4051 0.1473
vt 3.2441 -0.2783
vt 3.7979 -0.2841
vt 3.6966 0.07
vt 3.7979 -0.2841
vt 3.2441 -0.2783
vt 3.2441 -0.2783
vt 3.3958 0.0759
vt 3.6966 0.07
vt 3.7059 0.1415
vt 3.6966 0.07
vt 3.3958 0.0759
vt 3.4051 0.1473
vt 3.54 0.5671
vt 3.5084 0.9778
vt 3.4329 0.9579
vt 3.4329 0.9579
vt 3.2758 0.6902
vt 3.54 0.5671
vt 3.5084 0.9778
vt 3.5307 0.9213
vt 3.4271 0.9129
vt 3.4271 0.9129
vt 3.4329 0.9579
vt 3.5084 0.9778
vt 3.5307 0.9213
vt 3.54 0.5671
vt 3.2758 0.6902
vt 3.2758 0.6902
vt 3.4271 0.9129
vt 3.5307 0.9213
vt 3.5307 0.9213
vt 3.5307 0.4957
vt 3.2905 0.5267
vt 3.2905 0.5267
vt 3.3747 0.7284
vt 3.5307 0.9213
vt 3.54 0.5671
vt 3.5307 0.9213
vt 3.3747 0.7284
vt 3.3747 0.7284
vt 3.2949 0.5606
vt 3.54 0.5671
vt 3.5307 0.4957
vt 3.54 0.5671
vt 3.2949 0.5606
vt 3.2905 0.5267
vt 3.54 -0.7098
vt 3.5307 -0.7812
vt 3.0232 -0.7883
vt 3.1468 -0.7169
vt 3.5307 -0.7812
vt 3.54 -0.7098
vt 3.1742 -0.7169
vt 3.1234 -0.7883
vt 3.54 -0.7098
vt 4.6702 -0.6666
vt 4.6673 -0.559
vt 3.5371 -0.6022
vt 4.6702 -0.6666
vt 3.54 -0.7098
vt 3.5371 -0.6022
vt 4.6673 -0.559
vt 3.1431 -0.6092
vt 3.5371 -0.6022
vt 3.5371 -0.6022
vt 3.2908 -0.6092
vt 1.0789 1.3664
vt -0.0977 1.3664
vt -0.0977 0.3418
vt 1.0789 0.3418
vt 4.993 1.1408
vt 4.5996 1.1408
vt 4.5996 0.1982
vt 4.993 0.1982
vt 4.5996 1.1408
vt 4.993 1.1408
vt 4.993 0.1982
vt 4.5996 0.1982
vt 3.8334 1.1408
vt 4.1219 0.1982
vt 3.8334 1.1408
vt 4.5996 1.1408
vt 4.5996 0.1982
vt 3.8334 0.1982
vt 5.2552 0.6807
vt 5.1339 0.855
vt 5.1262 0.866
vt 5.2475 0.6917
vt 4.3887 0.5258
vt 5.2552 0.6807
vt 5.2475 0.6917
vt 4.3809 0.5369
vt 4.5981 0.855
vt 4.3887 0.5258
vt 4.3809 0.5369
vt 4.5904 0.866
vt 3.534 1.1405
vt 3.5084 0.9778
vt 3.1048 0.9778
vt 3.1048 0.9778
vt 3.0047 1.0915
vt 3.534 1.1405
vt 3.7882 0.9778
vt 3.8334 1.1408
vt 3.1245 1.0915
vt 3.1245 1.0915
vt 3.2722 0.9778
vt 3.7882 0.9778
vt 3.5084 0.9778
vt 3.7882 0.9778
vt 3.1557 0.9778
vt 3.1048 0.9778
vt 3.2722 0.9778
vt 3.5994 0.9899
vt 3.534 1.1405
vt 3.1011 1.1036
vt 3.1011 1.1036
vt 3.0009 0.9899
vt 3.5994 0.9899
vt 3.8334 1.1408
vt 3.7782 0.9899
vt 3.1208 0.9899
vt 3.1208 0.9899
vt 3.2685 1.1036
vt 3.8334 1.1408
vt 3.0009 0.9899
vt 3.1245 0.9899
vt 3.5994 0.9899
vt 3.1208 0.9899
vt 3.7782 0.9899
vt 3.7782 0.9899
vt 3.8334 1.1408
vt 3.8334 0.1982
vt 4.3823 0.8638
vt 5.3474 1.0822
vt 5.4636 0.9746
vt 5.5142 0.9031
vt 5.4636 0.9746
vt 5.3474 1.0822
vt 4.7386 1.0429
vt 4.7386 1.0429
vt 4.3823 0.8638
vt 4.3904 0.9353
vt 4.433 0.9353
vt 5.4793 1.0822
vt 4.2673 0.8638
vt 5.4756 0.9746
vt 4.3904 0.9353
vt 4.433 0.9353
vt 4.7386 1.0429
vt 4.3904 0.9353
vt 4.3867 1.0429
vt 4.3867 1.0429
vt 5.0683 1.2616
vt 4.7764 1.1292
vt 4.7328 1.1907
vt 5.1045 1.1986
vt 4.7764 1.1569
vt 5.1045 1.1986
vt 5.1045 1.2263
vt 4.7764 1.1292
vt 5.296 1.1685
vt 4.8355 1.1966
vt 4.8162 1.1685
vt 5.3208 1.1966
vt 4.8355 1.2266
vt 5.3208 1.1966
vt 5.3208 1.2266
vt 4.8355 1.1966
vt 5.1091 1.3106
vt 4.725 1.0571
vt 4.78 1.1059
vt 5.0911 1.2848
vt 4.7149 1.0825
vt 5.0911 1.2848
vt 5.0811 1.3101
vt 4.725 1.0571
vt 5.397 1.104
vt 5.1835 1.3941
vt 5.2685 1.3802
vt 5.3097 1.1229
vt 5.1916 1.4181
vt 5.3097 1.1229
vt 5.3178 1.147
vt 5.1835 1.3941
vt 4.71 1.2644
vt 4.2959 1.1162
vt 4.3373 1.126
vt 4.6604 1.2516
vt 4.2887 1.1543
vt 4.6604 1.2516
vt 4.6532 1.2897
vt 4.2959 1.1162
f 1/1/1 3/3/3 2/2/2
f 3/3/3 1/1/1 4/4/4
f 2/2/2 6/6/6 5/5/5
f 6/6/6 2/2/2 3/3/3
f 5/5/5 8/8/8 7/7/7
f 8/8/8 5/5/5 6/6/6
f 7/7/7 10/10/10 9/9/9
f 10/10/10 7/7/7 8/8/8
f 9/9/9 12/12/12 11/11/11
f 12/12/12 9/9/9 10/10/10
f 4/4/4 13/13/13 3/3/3
f 13/13/13 4/4/4 14/14/14
f 3/3/3 15/15/15 6/6/6
f 15/15/15 3/3/3 13/13/13
f 6/6/6 16/16/16 8/8/8
f 16/16/16 6/6/6 15/15/15
f 17/17/17 19/19/19 18/18/18
f 19/19/19 17/17/17 20/20/20
f 10/10/10 21/21/21 12/12/12
f 21/21/21 10/10/10 22/22/22
f 14/14/14 23/23/23 13/13/13
f 23/23/23 14/14/14 24/24/24
f 13/13/13 25/25/25 15/15/15
f 25/25/25 13/13/13 23/23/23
f 15/15/15 26/26/26 16/16/16
f 26/26/26 15/15/15 25/25/25
f 16/16/16 27/27/27 22/22/22
f 27/27/27 16/16/16 26/26/26
f 22/22/22 28/28/28 21/21/21
f 28/28/28 22/22/22 27/27/27
f 29/29/29 31/31/31 30/30/30
f 31/31/31 29/29/29 32/32/32
f 30/30/30 34/34/34 33/33/33
f 34/34/34 30/30/30 31/31/31
f 33/33/33 36/36/36 35/35/35
f 36/36/36 33/33/33 34/34/34
f 35/35/35 38/38/38 37/37/37
f 38/38/38 35/35/35 36/36/36
f 37/37/37 40/40/40 39/39/39
f 40/40/40 37/37/37 38/38/38
f 32/32/32 41/41/41 31/31/31
f 41/41/41 32/32/32 42/42/42
f 31/31/31 43/43/43 34/34/34
f 43/43/43 31/31/31 41/41/41
f 34/34/34 44/44/44 36/36/36
f 44/44/44 34/34/34 43/43/43
f 36/36/36 45/45/45 38/38/38
f 45/45/45 36/36/36 44/44/44
f 38/38/38 46/46/46 40/40/40
f 46/46/46 38/38/38 45/45/45
f 42/42/42 47/47/47 41/41/41
f 47/47/47 42/42/42 48/48/48
f 41/41/41 49/49/49 43/43/43
f 49/49/49 41/41/41 47/47/47
f 43/43/43 50/50/50 44/44/44
f 50/50/50 43/43/43 49/49/49
f 44/44/44 51/51/51 45/45/45
f 51/51/51 44/44/44 50/50/50
f 45/45/45 52/52/52 46/46/46
f 52/52/52 45/45/45 51/51/51
f 53/53/53 55/55/55 54/54/54
f 55/55/55 53/53/53 56/56/56
f 57/57/57 59/59/59 58/58/58
f 59/59/59 57/57/57 60/60/60
f 61/61/61 63/63/63 62/62/62
f 63/63/63 61/61/61 64/64/64
f 65/65/65 67/67/67 66/66/66
f 67/67/67 65/65/65 68/68/68
f 69/69/69 71/71/71 70/70/70
f 71/71/71 69/69/69 72/72/72
f 73/73/73 75/75/75 74/74/74
f 76/76/76 78/78/78 77/77/77
f 79/79/79 81/81/81 80/80/80
f 82/82/82 84/84/84 83/83/83
f 85/85/85 87/87/87 86/86/86
f 88/88/88 86/86/86 87/87/87
f 89/89/89 90/90/90 85/85/85
f 87/87/87 85/85/85 90/90/90
f 91/91/91 92/92/92 89/89/89
f 90/90/90 89/89/89 92/92/92
f 93/93/93 94/94/94 91/91/91
f 92/92/92 91/91/91 94/94/94
f 95/95/95 97/97/97 96/96/96
f 98/98/98 96/96/96 97/97/97
f 99/99/99 100/100/100 95/95/95
f 97/97/97 95/95/95 100/100/100
f 101/101/101 102/102/102 99/99/99
f 100/100/100 99/99/99 102/102/102
f 103/103/103 104/104/104 101/101/101
f 102/102/102 101/101/101 104/104/104
f 105/105/105 107/107/107 106/106/106
f 107/107/107 108/108/108 106/106/106
f 108/108/108 107/107/107 109/109/109
f 110/110/110 112/112/112 111/111/111
f 113/113/113 115/115/115 114/114/114
f 116/116/116 118/118/118 117/117/117
f 119/119/119 120/120/120 118/118/118
f 121/121/121 123/123/123 122/122/122
f 119/119/119 118/118/118 116/116/116
f 124/124/124 126/126/126 125/125/125
f 126/126/126 127/127/127 125/125/125
f 128/128/128 129/129/129 127/127/127
f 129/129/129 125/125/125 127/127/127
f 130/130/130 132/132/132 131/131/131
f 128/128/128 134/134/134 133/133/133
f 135/135/135 137/137/137 136/136/136
f 138/138/138 134/134/134 139/139/139
f 140/140/140 139/139/139 141/141/141
f 139/139/139 142/142/142 141/141/141
f 140/140/140 138/138/138 139/139/139
f 143/143/143 145/145/145 144/144/144
f 146/146/146 148/148/148 147/147/147
f 149/149/149 151/151/151 150/150/150
f 151/151/151 149/149/149 152/152/152
f 153/153/153 155/155/155 154/154/154
f 156/156/156 158/158/158 157/157/157
f 159/159/159 161/161/161 160/160/160
f 162/162/162 164/164/164 163/163/163
f 165/165/165 167/167/167 166/166/166
f 167/167/167 165/165/165 168/168/168
f 169/169/169 171/171/171 170/170/170
f 172/172/172 174/174/174 173/173/173
f 175/175/175 177/177/177 176/176/176
f 178/178/178 180/180/180 179/179/179
f 181/181/181 183/183/183 182/182/182
f 183/183/183 181/181/181 184/184/184
f 185/185/185 187/187/187 186/186/186
f 188/188/188 190/190/190 189/189/189
f 191/191/191 193/193/193 192/192/192
f 194/194/194 196/196/196 195/195/195
f 197/197/197 199/199/199 198/198/198
f 200/200/200 202/202/202 201/201/201
f 203/203/203 205/205/205 204/204/204
f 205/205/205 203/203/203 206/206/206
f 207/207/207 209/209/209 208/208/208
f 210/210/210 212/212/212 211/211/211
f 213/213/213 215/215/215 214/214/214
f 216/216/216 218/218/218 217/217/217
f 219/219/219 221/221/221 220/220/220
f 222/222/222 224/224/224 223/223/223
f 225/225/225 227/227/227 226/226/226
f 228/228/228 230/230/230 229/229/229
f 231/231/231 233/233/233 232/232/232
f 234/234/234 236/236/236 235/235/235
f 237/237/237 239/239/239 238/238/238
f 239/239/239 237/237/237 240/240/240
f 241/241/241 243/243/243 242/242/242
f 243/243/243 241/241/241 244/244/244
f 245/245/245 247/247/247 246/246/246
f 247/247/247 245/245/245 248/248/248
f 249/249/249 251/251/251 250/250/250
f 251/251/251 249/249/249 252/252/252
f 253/253/253 255/255/255 254/254/254
f 255/255/255 253/253/253 256/256/256
f 241/241/241 257/257/257 244/244/244
f 257/257/257 241/241/241 258/258/258
f 247/247/247 259/259/259 246/246/246
f 259/259/259 247/247/247 260/260/260
f 261/261/261 263/263/263 262/262/262
f 263/263/263 261/261/261 264/264/264
f 265/265/265 267/267/267 266/266/266
f 267/267/267 265/265/265 268/268/268
f 269/269/269 271/271/271 270/270/270
f 271/271/271 269/269/269 272/272/272
f 266/266/266 274/274/274 273/273/273
f 274/274/274 266/266/266 267/267/267
f 275/275/275 277/277/277 276/276/276
f 277/277/277 275/275/275 278/278/278
f 279/279/279 281/281/281 280/280/280
f 281/281/281 279/279/279 282/282/282
f 283/283/283 285/285/285 284/284/284
f 285/285/285 283/283/283 286/286/286
f 287/287/287 289/289/289 288/288/288
f 289/289/289 287/287/287 290/290/290
f 291/291/291 293/293/293 292/292/292
f 294/294/294 296/296/296 295/295/295
f 297/297/297 299/299/299 298/298/298
f 300/300/300 302/302/302 301/301/301
f 303/303/303 305/305/305 304/304/304
f 305/305/305 303/303/303 306/306/306
f 304/304/304 305/305/305 307/307/307
f 308/308/308 310/310/310 309/309/309
f 311/311/311 313/313/313 312/312/312
f 314/314/314 316/316/316 315/315/315
f 317/317/317 319/319/319 318/318/318
f 320/320/320 322/322/322 321/321/321
f 322/322/322 323/323/323 321/321/321
f 323/323/323 322/322/322 324/324/324
f 325/325/325 327/327/327 326/326/326
f 328/328/328 330/330/330 329/329/329
f 330/330/330 328/328/328 331/331/331
f 332/332/332 334/334/334 333/333/333
f 335/335/335 330/330/330 329/329/329
f 336/336/336 338/338/338 337/337/337
f 339/339/339 341/341/341 340/340/340
f 340/340/340 342/342/342 339/339/339
f 328/328/328 329/329/329 343/343/343
f 344/344/344 346/346/346 345/345/345
f 339/339/339 342/342/342 347/347/347
f 343/343/343 329/329/329 335/335/335
f 348/348/348 350/350/350 349/349/349
f 349/349/349 351/351/351 348/348/348
f 352/352/352 354/354/354 353/353/353
f 353/353/353 355/355/355 352/352/352
f 356/356/356 358/358/358 357/357/357
f 357/357/357 359/359/359 356/356/356
f 360/360/360 362/362/362 361/361/361
f 361/361/361 363/363/363 360/360/360
f 364/364/364 366/366/366 365/365/365
f 365/365/365 367/367/367 364/364/364
f 368/368/368 370/370/370 369/369/369
f 369/369/369 371/371/371 368/368/368
f 372/372/372 374/374/374 373/373/373
f 373/373/373 375/375/375 372/372/372
f 376/376/376 378/378/378 377/377/377
f 377/377/377 379/379/379 376/376/376
f 380/380/380 382/382/382 381/381/381
f 381/381/381 383/383/383 380/380/380
f 384/384/384 386/386/386 385/385/385
f 385/385/385 387/387/387 384/384/384

g wood02
# texture: wood02.jpg
v 96.4812 252.2087 -251.7489
v -60.40737 252.2086 -251.7489
v -87.07838 252.2087 -146.3334
v 123.1523 252.2087 -146.3334
v 92.8162 129.1853 -122.1612
v -58.42889 129.1853 -122.1612
v -74.30959 129.1853 -53.6676
v 108.697 129.1853 -53.66762
v -84.37499 129.1854 29.51099
v 118.7623 129.1854 79.73398
v 135.7661 282.7239 -145.3219
v 105.8945 282.7239 -269.2793
v 105.8945 282.7495 -269.2793
v 135.7661 282.7495 -145.3219
v 160.4893 282.724 -53.55665
v 135.7661 282.7239 -145.3219
v 135.7661 282.7495 -145.3219
v 160.4893 282.7495 -53.55665
v 176.159 282.724 83.54154
v 160.4893 282.724 -53.55665
v 160.4893 282.7495 -53.55665
v 176.159 282.7495 83.54154
v -69.82067 282.7239 -269.2793
v -99.69227 282.7239 -145.3219
v -99.69227 282.7495 -145.3219
v -69.82067 282.7495 -269.2793
v -99.69227 282.7239 -145.3219
v -124.4154 282.724 -53.55659
v -124.4154 282.7495 -53.55659
v -99.69227 282.7495 -145.3219
v -124.4154 282.724 -53.55659
v -140.0852 282.724 161.9553
v -140.0852 282.7495 161.9553
v -124.4154 282.7495 -53.55659
v 105.8945 282.7495 -269.2793
v -69.82067 282.7495 -269.2793
v -60.40737 282.7752 -251.7489
v 96.48121 282.7753 -251.749
v -69.82067 282.7495 -269.2793
v -99.69227 282.7495 -145.3219
v -87.07838 282.7753 -146.3334
v -87.07838 282.7753 -146.3334
v -60.40737 282.7752 -251.7489
v -69.82067 282.7495 -269.2793
v 135.7661 282.7495 -145.3219
v 105.8945 282.7495 -269.2793
v 96.48121 282.7753 -251.749
v 96.48121 282.7753 -251.749
v 123.1523 282.7753 -146.3334
v 135.7661 282.7495 -145.3219
v -99.69227 282.7495 -145.3219
v -124.4154 282.7495 -53.55659
v -109.1527 282.7754 -53.55665
v -109.1527 282.7754 -53.55665
v 160.4893 282.7495 -53.55665
v 135.7661 282.7495 -145.3219
v 123.1523 282.7753 -146.3334
v 123.1523 282.7753 -146.3334
v 145.2265 282.7754 -53.55663
v 160.4893 282.7495 -53.55665
v -124.4154 282.7495 -53.55659
v -140.0852 282.7495 161.9553
v -123.1435 282.7754 161.3843
v -123.1435 282.7754 161.3843
v -109.1527 282.7754 -53.55665
v -124.4154 282.7495 -53.55659
v 176.159 282.7495 83.54154
v 160.4893 282.7495 -53.55665
v 145.2265 282.7754 -53.55663
v 145.2265 282.7754 -53.55663
v 159.2174 282.7754 82.97054
v 176.159 282.7495 83.54154
v 31.3113 30.3333 -65.4397
v 4.762499 30.3333 -65.43979
v 36.1605 24.69251 131.3342
v -0.086603 24.69252 131.3342
v 36.1605 24.69251 131.3342
v -0.086603 24.69252 131.3342
v -0.086603 23.76832 199.933
v -0.086603 23.76832 199.933
v 36.1605 23.76831 174.2181
v 36.1605 24.69251 131.3342
v 123.1523 252.2087 -146.3334
v -87.07838 252.2087 -146.3334
v -58.42887 252.2605 -122.1613
v 92.81621 252.2605 -122.1613
v -87.07838 252.2087 -146.3334
v -109.1527 252.2088 -53.55662
v -74.30967 252.2605 -53.66764
v -58.42887 252.2605 -122.1613
v 145.2265 252.2088 -53.55664
v 123.1523 252.2087 -146.3334
v 92.81621 252.2605 -122.1613
v 108.697 252.2605 -53.66763
v -109.1527 252.2088 -53.55662
v -123.1435 252.2088 131.8715
v -84.37499 252.2605 79.73386
v -74.30967 252.2605 -53.66764
v 159.2174 252.2088 131.8713
v 145.2265 252.2088 -53.55664
v 108.697 252.2605 -53.66763
v 118.7623 252.2605 79.73386
v -128.93 245.8221 224.0314
v -113.256 245.8221 202.511
v -123.1435 252.2088 131.8715
v -123.1435 252.2088 131.8715
v -113.256 245.8221 202.511
v -89.65186 245.8221 203.158
v -89.65186 245.8221 203.158
v -84.37499 252.2605 79.73386
v -123.1435 252.2088 131.8715
v 159.2174 252.2088 131.8713
v 118.7623 252.2605 79.73386
v 148.6262 247.403 198.3894
v 148.6262 247.403 198.3894
v 164.3002 247.403 207.2405
v 159.2174 252.2088 131.8713
v 118.7623 252.2605 79.73386
v 125.0221 247.403 178.0938
v 148.6262 247.403 198.3894
v -38.24478 239.4748 -77.86683
v -13.02918 239.4749 -16.59563
v 3.613714 244.5986 -206.8251
v 3.613714 244.5986 -206.8251
v -28.97138 244.5986 -183.8628
v -38.24478 239.4748 -77.86683
v -12.97278 225.4248 -17.24021
v -38.24478 239.4748 -77.86683
v -42.90068 225.4248 -24.64922
v 74.18361 271.6415 -135.2629
v 111.2532 254.3556 -84.44823
v 91.83321 263.4113 -141.5691
v 94.0424 262.3812 -76.85143
v 56.36913 259.7964 -174.914
v 77.14421 263.4596 -94.73241
v 77.14422 263.4596 -179.2177
v 56.36912 259.7964 -91.37711
v -3.00128 277.7336 -140.6096
v -31.02789 244.6379 -73.74012
v 18.22312 274.3638 -137.4875
v -47.26817 251.0158 -83.31333
v -24.57849 250.5954 -193.9144
v -77.37559 288.4623 -156.7315
v -16.75688 253.059 -178.7023
v -86.31057 286.6491 -171.5401
v 124.1095 273.3736 -71.63784
v 92.60591 254.0222 0.465752
v 135.6659 271.6954 -62.99113
v 80.07661 255.3011 -6.747337
vn 0 1 -0
vn 0 1 -0
vn 0 1 -0
vn 0 1 -0
vn 0 1 -0
vn 0 1 -0
vn 0 1 -0
vn 0 1 -0
vn 0 1 -0
vn 0 1 -0
vn 0.972166 -0 -0.234292
vn 0.972166 -0 -0.234292
vn 0.972166 -0 -0.234292
vn 0.972166 -0 -0.234292
vn 0.965583 -0 -0.260095
vn 0.965583 -0 -0.260095
vn 0.965583 -0 -0.260095
vn 0.965583 -0 -0.260095
vn 0.993526 0 -0.113603
vn 0.993526 0 -0.113603
vn 0.993526 0 -0.113603
vn 0.993526 0 -0.113603
vn -0.972166 0 -0.234292
vn -0.972166 0 -0.234292
vn -0.972166 0 -0.234292
vn -0.972166 0 -0.234292
vn -0.965583 -0 -0.260095
vn -0.965583 -0 -0.260095
vn -0.965583 -0 -0.260095
vn -0.965583 -0 -0.260095
vn -0.997369 0 -0.072498
vn -0.997369 0 -0.072498
vn -0.997369 0 -0.072498
vn -0.997369 0 -0.072498
vn 0 0.999999 -0.0015
vn 0 0.999999 -0.0015
vn 0 0.999999 -0.0015
vn 0 0.999999 -0.0015
vn -0.0021 0.999998 -0.0005
vn -0.0021 0.999998 -0.0005
vn -0.0021 0.999998 -0.0005
vn -0.0019 0.999998 -0.0005
vn -0.0019 0.999998 -0.0005
vn -0.0019 0.999998 -0.0005
vn 0.0019 0.999998 -0.0005
vn 0.0019 0.999998 -0.0005
vn 0.0019 0.999998 -0.0005
vn 0.0021 0.999998 -0.0005
vn 0.0021 0.999998 -0.0005
vn 0.0021 0.999998 -0.0005
vn -0.0017 0.999999 -0.0005
vn -0.0017 0.999999 -0.0005
vn -0.0017 0.999999 -0.0005
vn -0.0021 0.999998 -0.0005
vn 0.0021 0.999998 -0.0006
vn 0.0021 0.999998 -0.0006
vn 0.0021 0.999998 -0.0006
vn 0.0017 0.999999 -0.0004
vn 0.0017 0.999999 -0.0004
vn 0.0017 0.999999 -0.0004
vn -0.0015 0.999999 -0.0001
vn -0.0015 0.999999 -0.0001
vn -0.0015 0.999999 -0.0001
vn -0.0017 0.999999 -0.0001
vn -0.0017 0.999999 -0.0001
vn -0.0017 0.999999 -0.0001
vn 0.0017 0.999999 -0.0002
vn 0.0017 0.999999 -0.0002
vn 0.0017 0.999999 -0.0002
vn 0.0015 0.999999 -0.0002
vn 0.0015 0.999999 -0.0002
vn 0.0015 0.999999 -0.0002
vn 0 0.999588 0.028699
vn 0 0.999588 0.028699
vn 0 0.999588 0.028699
vn 0 0.999588 0.028699
vn 0 0.999909 0.0135
vn 0 0.999909 0.0135
vn 0 0.999909 0.0135
vn 0.015299 0.999652 0.021499
vn 0.015299 0.999652 0.021499
vn 0.015299 0.999652 0.021499
vn 0 0.999998 -0.0021
vn 0 0.999998 -0.0021
vn 0 0.999998 -0.0021
vn 0 0.999998 -0.0021
vn -0.0015 0.999999 -0.0004
vn -0.0015 0.999999 -0.0004
vn -0.0015 0.999999 -0.0004
vn -0.0015 0.999999 -0.0004
vn 0.0014 0.999999 -0.0003
vn 0.0014 0.999999 -0.0003
vn 0.0014 0.999999 -0.0003
vn 0.0014 0.999999 -0.0003
vn -0.0015 0.999999 -0.0001
vn -0.0015 0.999999 -0.0001
vn -0.0015 0.999999 -0.0001
vn -0.0015 0.999999 -0.0001
vn 0.0014 0.999999 -0.0001
vn 0.0014 0.999999 -0.0001
vn 0.0014 0.999999 -0.0001
vn 0.0014 0.999999 -0.0001
vn 0.1033 0.991803 0.0752
vn 0.1033 0.991803 0.0752
vn 0.1033 0.991803 0.0752
vn -0.0025 0.995902 0.0904
vn -0.0025 0.995902 0.0904
vn -0.0025 0.995902 0.0904
vn 0.072702 0.995831 0.055102
vn 0.072702 0.995831 0.055102
vn 0.072702 0.995831 0.055102
vn -0.075802 0.995328 0.059801
vn -0.075802 0.995328 0.059801
vn -0.075802 0.995328 0.059801
vn -0.0373 0.997116 0.066101
vn -0.0373 0.997116 0.066101
vn -0.0373 0.997116 0.066101
vn -0.044802 0.997636 0.052102
vn -0.044802 0.997636 0.052102
vn -0.044802 0.997636 0.052102
vn -0.0539 0.9983 0.0222
vn -0.0539 0.9983 0.0222
vn -0.0539 0.9983 0.0222
vn 0.036201 0.998022 0.051401
vn 0.036201 0.998022 0.051401
vn 0.036201 0.998022 0.051401
vn -0.061803 0.966346 0.249712
vn -0.061803 0.966346 0.249712
vn -0.061803 0.966346 0.249712
vn 0.422606 0.906313 -0
vn 0.422606 0.906313 -0
vn 0.422606 0.906313 -0
vn 0.422606 0.906313 -0
vn -0.173603 0.984816 -0
vn -0.173603 0.984816 -0
vn -0.173603 0.984816 -0
vn -0.173603 0.984816 -0
vn 0.071403 0.881732 0.466317
vn 0.071403 0.881732 0.466317
vn 0.071403 0.881732 0.466317
vn 0.071403 0.881732 0.466317
vn 0.381413 0.86133 -0.335612
vn 0.381413 0.86133 -0.335612
vn 0.381413 0.86133 -0.335612
vn 0.381413 0.86133 -0.335612
vn -0.040601 0.969325 0.242406
vn -0.040601 0.969325 0.242406
vn -0.040601 0.969325 0.242406
vn -0.040601 0.969325 0.242406
vt 3.4431 0.0039
vt 3.4431 0.9906
vt 3.069 1.1583
vt 3.069 -0.1639
vt 2.9832 0.0269
vt 2.9832 0.9781
vt 2.7402 1.078
vt 2.7402 -0.0729
vt 2.4451 1.1413
vt 2.2669 -0.1363
vt 3.0654 -0.2432
vt 3.5053 -0.0553
vt 3.5053 -0.0553
vt 3.0654 -0.2432
vt 2.7398 -0.3987
vt 3.0654 -0.2432
vt 3.0654 -0.2432
vt 2.7398 -0.3987
vt 2.2534 -0.4972
vt 2.7398 -0.3987
vt 2.7398 -0.3987
vt 2.2534 -0.4972
vt 3.5053 1.0498
vt 3.0654 1.2377
vt 3.0654 1.2377
vt 3.5053 1.0498
vt 3.0654 1.2377
vt 2.7398 1.3931
vt 2.7398 1.3931
vt 3.0654 1.2377
vt 2.7398 1.3931
vt 1.9751 1.4917
vt 1.9751 1.4917
vt 2.7398 1.3931
vt 3.5053 -0.0553
vt 3.5053 1.0498
vt 3.4431 0.9906
vt 3.4431 0.0039
vt 3.5053 1.0498
vt 3.0654 1.2377
vt 3.069 1.1583
vt 3.069 1.1583
vt 3.4431 0.9906
vt 3.5053 1.0498
vt 3.0654 -0.2432
vt 3.5053 -0.0553
vt 3.4431 0.0039
vt 3.4431 0.0039
vt 3.069 -0.1639
vt 3.0654 -0.2432
vt 3.0654 1.2377
vt 2.7398 1.3931
vt 2.7398 1.2972
vt 2.7398 1.2972
vt 2.7398 -0.3987
vt 3.0654 -0.2432
vt 3.069 -0.1639
vt 3.069 -0.1639
vt 2.7398 -0.3027
vt 2.7398 -0.3987
vt 2.7398 1.3931
vt 1.9751 1.4917
vt 1.9771 1.3851
vt 1.9771 1.3851
vt 2.7398 1.2972
vt 2.7398 1.3931
vt 2.2534 -0.4972
vt 2.7398 -0.3987
vt 2.7398 -0.3027
vt 2.7398 -0.3027
vt 2.2554 -0.3907
vt 2.2534 -0.4972
vt 2.782 0.4137
vt 2.782 0.5807
vt 2.0838 0.3832
vt 2.0838 0.6112
vt 2.0838 0.3832
vt 2.0838 0.6112
vt 1.8404 0.6112
vt 1.8404 0.6112
vt 1.9316 0.3832
vt 2.0838 0.3832
vt 3.069 -0.1639
vt 3.069 1.1583
vt 2.9832 0.9781
vt 2.9832 0.0269
vt 3.069 1.1583
vt 2.7398 1.2972
vt 2.7402 1.078
vt 2.9832 0.9781
vt 2.7398 -0.3027
vt 3.069 -0.1639
vt 2.9832 0.0269
vt 2.7402 -0.0729
vt 2.7398 1.2972
vt 2.0819 1.3851
vt 2.2669 1.1413
vt 2.7402 1.078
vt 2.0819 -0.3907
vt 2.7398 -0.3027
vt 2.7402 -0.0729
vt 2.2669 -0.1363
vt 1.7549 1.4215
vt 1.8312 1.323
vt 2.0819 1.3851
vt 2.0819 1.3851
vt 1.8312 1.323
vt 1.8289 1.1745
vt 1.8289 1.1745
vt 2.2669 1.1413
vt 2.0819 1.3851
vt 2.0819 -0.3907
vt 2.2669 -0.1363
vt 1.8458 -0.3241
vt 1.8458 -0.3241
vt 1.8144 -0.4227
vt 2.0819 -0.3907
vt 2.2669 -0.1363
vt 1.9179 -0.1756
vt 1.8458 -0.3241
vt 2.8261 0.8512
vt 2.6087 0.6926
vt 3.2837 0.5879
vt 3.2837 0.5879
vt 3.2022 0.7929
vt 2.8261 0.8512
vt 2.611 0.6923
vt 2.8261 0.8512
vt 2.6372 0.8805
vt 0.9906 0.5125
vt 0.0058 0.3439
vt 0.9906 0.3438
vt 0.0057 0.5125
vt 0.9905 0.5126
vt 0.0057 0.344
vt 0.9906 0.3441
vt 0.0057 0.5126
vt 0.9905 0.5126
vt 0.0056 0.344
vt 0.9906 0.3439
vt 0.0057 0.5126
vt 0.9906 0.5125
vt 0.0057 0.3439
vt 0.9906 0.3439
vt 0.0057 0.5125
vt 0.9905 0.5125
vt 0.0057 0.3438
vt 0.9906 0.3438
vt 0.0057 0.5125
f 388/388/388 390/390/390 389/389/389
f 390/390/390 388/388/388 391/391/391
f 392/392/392 394/394/394 393/393/393
f 394/394/394 392/392/392 395/395/395
f 395/395/395 396/396/396 394/394/394
f 396/396/396 395/395/395 397/397/397
f 398/398/398 400/400/400 399/399/399
f 400/400/400 398/398/398 401/401/401
f 402/402/402 404/404/404 403/403/403
f 404/404/404 402/402/402 405/405/405
f 406/406/406 408/408/408 407/407/407
f 408/408/408 406/406/406 409/409/409
f 410/410/410 412/412/412 411/411/411
f 412/412/412 410/410/410 413/413/413
f 414/414/414 416/416/416 415/415/415
f 416/416/416 414/414/414 417/417/417
f 418/418/418 420/420/420 419/419/419
f 420/420/420 418/418/418 421/421/421
f 422/422/422 424/424/424 423/423/423
f 424/424/424 422/422/422 425/425/425
f 426/426/426 428/428/428 427/427/427
f 429/429/429 431/431/431 430/430/430
f 432/432/432 434/434/434 433/433/433
f 435/435/435 437/437/437 436/436/436
f 438/438/438 440/440/440 439/439/439
f 441/441/441 427/427/427 428/428/428
f 442/442/442 444/444/444 443/443/443
f 445/445/445 447/447/447 446/446/446
f 448/448/448 450/450/450 449/449/449
f 451/451/451 453/453/453 452/452/452
f 454/454/454 456/456/456 455/455/455
f 457/457/457 459/459/459 458/458/458
f 460/460/460 462/462/462 461/461/461
f 463/463/463 461/461/461 462/462/462
f 464/464/464 466/466/466 465/465/465
f 467/467/467 469/469/469 468/468/468
f 470/470/470 472/472/472 471/471/471
f 472/472/472 470/470/470 473/473/473
f 474/474/474 476/476/476 475/475/475
f 476/476/476 474/474/474 477/477/477
f 478/478/478 480/480/480 479/479/479
f 480/480/480 478/478/478 481/481/481
f 482/482/482 484/484/484 483/483/483
f 484/484/484 482/482/482 485/485/485
f 486/486/486 488/488/488 487/487/487
f 488/488/488 486/486/486 489/489/489
f 490/490/490 492/492/492 491/491/491
f 493/493/493 495/495/495 494/494/494
f 496/496/496 498/498/498 497/497/497
f 499/499/499 501/501/501 500/500/500
f 502/502/502 504/504/504 503/503/503
f 505/505/505 507/507/507 506/506/506
f 508/508/508 510/510/510 509/509/509
f 511/511/511 513/513/513 512/512/512
f 514/514/514 516/516/516 515/515/515
f 517/517/517 519/519/519 518/518/518
f 518/518/518 520/520/520 517/517/517
f 521/521/521 523/523/523 522/522/522
f 522/522/522 524/524/524 521/521/521
f 525/525/525 527/527/527 526/526/526
f 526/526/526 528/528/528 525/525/525
f 529/529/529 531/531/531 530/530/530
f 530/530/530 532/532/532 529/529/529
f 533/533/533 535/535/535 534/534/534
f 534/534/534 536/536/536 533/533/533

g wood01
# texture: wood01.jpg
v -128.7035 149.3562 147.3581
v -122.3054 123.8648 147.3581
v -120.5016 128.1445 146.6143
v -79.1573 66.97451 182.3464
v -116.1687 122.5456 154.3029
v -120.101 113.2159 155.9243
v -0.086618 9.71822 199.2861
v -0.086618 0.388516 220.8065
v 36.16051 0.388523 203.3648
v 36.16051 9.71822 194.5137
v -0.086618 9.71822 199.2861
v 36.16051 9.71822 194.5137
v 36.1605 23.76831 174.2181
v 36.1605 23.76831 174.2181
v -0.086603 23.76832 199.933
v -0.086618 9.71822 199.2861
v -113.256 245.8221 202.511
v -128.93 245.8221 224.0314
v -128.9301 230.9667 206.5897
v -113.256 230.9667 197.7387
v -113.256 245.8221 202.511
v -113.256 230.9667 197.7387
v -89.65186 230.9667 177.4429
v -89.65186 230.9667 177.4429
v -89.65186 245.8221 203.158
v -113.256 245.8221 202.511
v 148.6262 232.5476 203.162
v 164.3002 232.5476 224.6823
v 164.3002 247.403 207.2405
v 148.6262 247.403 198.3894
v 148.6262 232.5476 203.162
v 148.6262 247.403 198.3894
v 125.0221 247.403 178.0938
v 125.0221 247.403 178.0938
v 125.0221 232.5476 203.8088
v 148.6262 232.5476 203.162
v 130.9506 120.6164 79.73387
v 118.7623 129.1854 79.73398
v -84.37499 129.1854 29.51099
v 130.9506 120.6164 79.73387
v -84.37499 129.1854 29.51099
v -96.56329 120.6164 29.51099
v 123.4694 232.5476 89.35925
v 118.7623 129.1854 79.73398
v 130.9506 120.6164 79.73387
v -84.37499 129.1854 29.51099
v -88.09917 230.9667 87.60427
v -96.56329 120.6164 29.51099
v -84.37499 252.2605 79.73386
v -88.09917 230.9667 87.60427
v -84.37499 129.1854 29.51099
v -12.97278 225.4248 -17.24021
v -43.67218 216.0951 -15.83184
v -14.84849 216.0951 4.198265
v 94.0424 262.3812 -76.85143
v 109.5699 250.7458 -84.44823
v 111.2532 254.3556 -84.44823
v 92.35911 258.7713 -76.85154
v 91.83321 263.4113 -141.5691
v 72.50021 268.0316 -135.2629
v 74.18361 271.6415 -135.2629
v 90.14991 259.8015 -141.5691
v 56.36912 259.7964 -91.37711
v 77.83591 259.5371 -94.73243
v 77.14421 263.4596 -94.73241
v 57.06072 255.8739 -91.37713
v 77.14422 263.4596 -179.2177
v 57.06071 255.8739 -174.914
v 56.36913 259.7964 -174.914
v 77.83591 259.5371 -179.2177
v -47.26817 251.0158 -83.31333
v -31.29608 241.3248 -75.49232
v -31.02789 244.6379 -73.74012
v -47.53646 247.7026 -85.06553
v 18.22312 274.3638 -137.4875
v -3.269575 274.4204 -142.3619
v -3.00128 277.7336 -140.6096
v 17.95482 271.0507 -139.2398
v -86.31057 286.6491 -171.5401
v -78.85746 285.3188 -155.3156
v -77.37559 288.4623 -156.7315
v -87.79248 283.5055 -170.124
v -16.75688 253.059 -178.7023
v -26.06039 247.4519 -192.4985
v -24.57849 250.5954 -193.9144
v -18.23888 249.9155 -177.2863
v 80.07661 255.3011 -6.747337
v 92.81461 249.0417 -0.779732
v 92.60591 254.0222 0.465752
v 80.28541 250.3205 -7.992836
v 135.6659 271.6954 -62.99113
v 124.3182 268.393 -72.88332
v 124.1095 273.3736 -71.63784
v 135.8745 266.715 -64.23653
vn 0.249698 0.0627 0.966292
vn 0.249698 0.0627 0.966292
vn 0.249698 0.0627 0.966292
vn -0.279602 0.277603 0.919108
vn -0.279602 0.277603 0.919108
vn -0.279602 0.277603 0.919108
vn 0.144602 0.810011 0.568307
vn 0.188003 0.901113 0.390705
vn 0.144602 0.810011 0.568307
vn 0.095101 0.685107 0.722208
vn 0.074701 0.819906 0.567604
vn 0.074701 0.819906 0.567604
vn 0.074701 0.819906 0.567604
vn 0.578216 -0.037501 0.815022
vn 0.578216 -0.037501 0.815022
vn 0.578216 -0.037501 0.815022
vn 0.588012 -0.432809 0.683314
vn 0.664919 -0.568616 0.484314
vn 0.588012 -0.432809 0.683314
vn 0.473493 -0.269396 0.838588
vn 0.633416 -0.236706 0.736719
vn 0.633416 -0.236706 0.736719
vn 0.633416 -0.236706 0.736719
vn -0.0137 -0.865801 0.500201
vn -0.0137 -0.865801 0.500201
vn -0.0137 -0.865801 0.500201
vn -0.588012 0.432809 0.683314
vn -0.664918 0.568616 0.484313
vn -0.588012 0.432809 0.683314
vn -0.473493 0.269396 0.838588
vn -0.633416 0.236706 0.736719
vn -0.633416 0.236706 0.736719
vn -0.633416 0.236706 0.736719
vn 0.0137 0.865801 0.500201
vn 0.0137 0.865801 0.500201
vn 0.0137 0.865801 0.500201
vn -0.227103 -0.323104 0.91871
vn -0.227103 -0.323104 0.91871
vn -0.227103 -0.323104 0.91871
vn -0.206101 0.293101 0.933603
vn -0.206101 0.293101 0.933603
vn -0.206101 0.293101 0.933603
vn -0.063098 -0.089697 0.993968
vn -0.063098 -0.089697 0.993968
vn -0.063098 -0.089697 0.993968
vn 0.323509 -0.460113 0.826824
vn 0.323509 -0.460113 0.826824
vn 0.323509 -0.460113 0.826824
vn 0.971749 -0.089204 0.218511
vn 0.971749 -0.089204 0.218511
vn 0.971749 -0.089204 0.218511
vn -0.219812 0.806244 0.54923
vn -0.219812 0.806244 0.54923
vn -0.254997 0.89459 0.366996
vn 0.33659 -0.156995 0.928472
vn 0.33659 -0.156995 0.928472
vn 0.33659 -0.156995 0.928472
vn 0.33659 -0.156995 0.928472
vn -0.279191 0.130196 -0.951368
vn -0.279191 0.130196 -0.951368
vn -0.279191 0.130196 -0.951368
vn -0.279191 0.130196 -0.951368
vn 0.154698 0.0273 0.987585
vn 0.154698 0.0273 0.987585
vn 0.154698 0.0273 0.987585
vn 0.154698 0.0273 0.987585
vn -0.196902 -0.0347 -0.979809
vn -0.196902 -0.0347 -0.979809
vn -0.196902 -0.0347 -0.979809
vn -0.196902 -0.0347 -0.979809
vn -0.573592 -0.346195 0.742389
vn -0.573592 -0.346195 0.742389
vn -0.573592 -0.346195 0.742389
vn -0.573592 -0.346195 0.742389
vn 0.199111 0.445524 -0.872848
vn 0.199111 0.445524 -0.872848
vn 0.199111 0.445524 -0.872848
vn 0.199111 0.445524 -0.872848
vn -0.753013 0.530409 0.389407
vn -0.753013 0.530409 0.389407
vn -0.753013 0.530409 0.389407
vn -0.753013 0.530409 0.389407
vn 0.791596 -0.518698 -0.322998
vn 0.791596 -0.518698 -0.322998
vn 0.791596 -0.518698 -0.322998
vn 0.791596 -0.518698 -0.322998
vn -0.503099 -0.2295 0.833199
vn -0.503099 -0.2295 0.833199
vn -0.503111 -0.229405 0.833218
vn -0.503099 -0.2295 0.833199
vn 0.60482 0.217007 -0.766225
vn 0.60482 0.217007 -0.766225
vn 0.60482 0.217007 -0.766225
vn 0.60482 0.217007 -0.766225
vt -3.8618 0.5148
vt -3.6711 -0.3008
vt -3.6173 -0.1639
vt -2.3846 -2.121
vt -3.4881 -0.343
vt -3.6053 -0.6415
vt -0.0272 -3.9528
vt -0.0272 -4.2513
vt 1.0535 -4.2513
vt 1.0535 -3.9528
vt -0.0272 -3.9528
vt 1.0535 -3.9528
vt 1.0535 -3.5033
vt 1.0535 -3.5033
vt -0.0272 -3.5033
vt -0.0272 -3.9528
vt -3.4013 3.6011
vt -3.8686 3.6011
vt -3.8686 3.1259
vt -3.4013 3.1259
vt -3.4013 3.6011
vt -3.4013 3.1259
vt -2.6975 3.1259
vt -2.6975 3.1259
vt -2.6975 3.6011
vt -3.4013 3.6011
vt 4.4065 3.1764
vt 4.8738 3.1764
vt 4.8738 3.6517
vt 4.4065 3.6517
vt 4.4065 3.1764
vt 4.4065 3.6517
vt 3.7028 3.6517
vt 3.7028 3.6517
vt 3.7028 3.1764
vt 4.4065 3.1764
vt 3.8796 -0.4047
vt 3.5162 -0.1306
vt -2.5402 -0.1306
vt 3.8796 -0.4047
vt -2.5402 -0.1306
vt -2.9036 -0.4047
vt 3.6565 3.1764
vt 3.5162 -0.1306
vt 3.8796 -0.4047
vt -2.5402 -0.1306
vt -2.6512 3.1259
vt -2.9036 -0.4047
vt -2.5402 3.8071
vt -2.6512 3.1259
vt -2.5402 -0.1306
vt -0.4114 2.9485
vt -1.3267 2.6501
vt -0.4673 2.6501
vt 2.7792 4.1309
vt 3.2421 3.7587
vt 3.2923 3.8742
vt 2.729 4.0154
vt 2.7133 4.1639
vt 2.1369 4.3117
vt 2.1871 4.4272
vt 2.6631 4.0484
vt 1.656 4.0482
vt 2.296 4.04
vt 2.2754 4.1654
vt 1.6766 3.9227
vt 2.2754 4.1655
vt 1.6766 3.9227
vt 1.656 4.0482
vt 2.296 4.04
vt -1.4339 3.7673
vt -0.9577 3.4573
vt -0.9497 3.5633
vt -1.4419 3.6613
vt 0.5187 4.5143
vt -0.1221 4.5161
vt -0.1141 4.6221
vt 0.5107 4.4083
vt -2.5979 4.9074
vt -2.3757 4.8648
vt -2.3315 4.9654
vt -2.6421 4.8068
vt -0.5242 3.8327
vt -0.8016 3.6533
vt -0.7574 3.7539
vt -0.5684 3.7321
vt 2.3628 3.9044
vt 2.7426 3.7042
vt 2.7363 3.8635
vt 2.369 3.7451
vt 4.0201 4.4289
vt 3.6818 4.3233
vt 3.6756 4.4826
vt 4.0264 4.2696
f 537/537/537 539/539/539 538/538/538
f 540/540/540 542/542/542 541/541/541
f 543/543/543 545/545/545 544/544/544
f 545/545/545 543/543/543 546/546/546
f 547/547/547 549/549/549 548/548/548
f 550/550/550 552/552/552 551/551/551
f 553/553/553 555/555/555 554/554/554
f 555/555/555 553/553/553 556/556/556
f 557/557/557 559/559/559 558/558/558
f 560/560/560 562/562/562 561/561/561
f 563/563/563 565/565/565 564/564/564
f 565/565/565 563/563/563 566/566/566
f 567/567/567 569/569/569 568/568/568
f 570/570/570 572/572/572 571/571/571
f 573/573/573 575/575/575 574/574/574
f 576/576/576 578/578/578 577/577/577
f 579/579/579 581/581/581 580/580/580
f 582/582/582 584/584/584 583/583/583
f 585/585/585 587/587/587 586/586/586
f 588/588/588 590/590/590 589/589/589
f 591/591/591 593/593/593 592/592/592
f 592/592/592 594/594/594 591/591/591
f 595/595/595 597/597/597 596/596/596
f 596/596/596 598/598/598 595/595/595
f 599/599/599 601/601/601 600/600/600
f 600/600/600 602/602/602 599/599/599
f 603/603/603 605/605/605 604/604/604
f 604/604/604 606/606/606 603/603/603
f 607/607/607 609/609/609 608/608/608
f 608/608/608 610/610/610 607/607/607
f 611/611/611 613/613/613 612/612/612
f 612/612/612 614/614/614 611/611/611
f 615/615/615 617/617/617 616/616/616
f 616/616/616 618/618/618 615/615/615
f 619/619/619 621/621/621 620/620/620
f 620/620/620 622/622/622 619/619/619
f 623/623/623 625/625/625 624/624/624
f 624/624/624 626/626/626 623/623/623
f 627/627/627 629/629/629 628/628/628
f 628/628/628 630/630/630 627/627/627
