# Object10.bmd — MU geometry at action 0 key 0, exported for MU2
# 1 mesh(es)

g bfish073
# texture: bfish073.jpg
v 0.452004 -9.458709 -36.3636
v -13.533 -11.16591 -30.3904
v -17.5136 50.37798 -19.78532
v 0.452002 45.86998 -26.35932
v -26.1712 -13.43541 -21.5224
v -30.9799 41.29359 -8.80442
v -29.64601 91.40129 6.671463
v -16.7513 94.61269 -5.313644
v 0.451996 95.89729 -10.10764
v -27.5075 -17.4305 -7.010703
v -35.46861 43.35999 10.53038
v -30.3815 -22.4873 12.1506
v -34.56331 41.14339 27.84717
v -31.34191 84.4648 43.57936
v -33.9442 86.9054 23.45056
v -16.4973 124.8613 22.67716
v 0.45199 129.096 20.23226
v -29.20131 114.2746 28.78936
v -28.63501 123.2421 45.90617
v -16.17321 133.6269 39.91046
v 0.45199 137.7809 37.51216
v -33.43602 99.4532 37.34657
v -32.46321 85.384 45.46936
v -30.72342 91.9873 63.98787
v -32.78901 108.7033 54.30006
v -15.20101 142.0568 57.33755
v 0.451987 145.967 55.08005
v -26.93612 131.9249 63.18726
v -25.23722 140.6564 80.44025
v -14.22882 150.4828 74.76694
v 0.451983 154.1522 72.64845
v -30.84781 117.5317 71.49715
v -30.11472 104.046 79.28317
v -26.62782 110.7952 97.64896
v -28.90671 126.6313 88.53765
v -13.90482 156.1462 102.6785
v 0.451984 160.2739 102.3173
v -24.67091 145.3863 103.6198
v -23.43392 145.9719 127.6738
v -13.19792 155.784 126.8153
v 0.451981 159.7088 126.472
v -28.25961 130.0787 104.9591
v -27.42542 115.8214 106.2064
v -25.62702 115.1362 127.504
v -26.84592 132.1048 128.887
v -11.07732 145.524 167.5004
v 0.451978 148.4058 169.1642
v -19.72282 138.3193 163.3408
v -14.31563 104.4003 208.2122
v 0.451966 81.98934 223.077
v 0.451972 108.0031 215.9384
v -22.60472 128.2193 157.5096
v -22.43423 119.2038 149.5873
v -16.14013 94.37253 191.2448
v -14.01353 76.69564 211.7248
v -7.154035 65.18954 202.5578
v 0.451966 46.06335 226.0088
v 0.451964 86.76733 183.9094
v -14.2791 -23.96739 17.2167
v -20.49831 8.587606 37.09158
v -29.51801 16.40601 33.70028
v 0.451992 -27.50609 30.7781
v -11.22451 17.33421 44.88329
v -16.36941 52.0746 55.52847
v -22.31371 48.6898 51.09225
v -28.19441 52.62659 48.60836
v 0.451988 42.83761 53.28468
v -8.133217 52.2136 55.79186
v 0.451981 80.59451 61.66576
v -10.97041 69.73122 58.50477
v -16.30591 67.7504 59.62415
v -14.38801 59.89791 58.73777
v -31.84701 54.446 42.21587
v -28.24761 72.31302 48.86966
v -29.98531 62.2286 50.03947
v -27.87681 69.47942 53.17126
v -17.68282 83.25751 54.97266
v -19.48192 76.33859 55.09267
v -22.05962 71.1321 57.06746
v -14.64953 105.1718 126.5773
v -15.39412 104.4597 133.3305
v -21.70442 109.4307 138.4156
v 0.451975 99.45241 127.9342
v -8.377127 101.6786 139.0939
v -12.27003 100.2876 140.8455
v -16.76782 102.4597 138.0407
v -21.08882 105.3939 140.3987
v 0.451975 106.1026 159.9913
v -6.038027 104.2084 155.4329
v -7.670228 101.8863 150.7141
v -12.09333 102.7671 156.3169
v -10.77083 100.7157 148.6523
v -21.92283 113.3537 154.6328
v -18.17003 107.1355 153.7447
v -22.05793 107.2212 148.083
v -20.20523 107.4324 155.9087
v -12.56673 99.83582 161.5523
v -16.06092 105.4792 158.6943
v -17.37602 82.42841 69.58037
v -18.25472 84.47301 76.16577
v -26.14712 90.10151 76.52057
v 0.451985 76.23321 73.07998
v -10.03831 82.0471 81.17087
v -14.69212 82.76931 84.74506
v -19.87561 84.34601 81.56077
v -24.97822 87.91232 81.77577
v -27.91512 96.03232 83.90985
v -24.52892 99.38612 92.78706
v -26.46332 91.70012 86.41107
v -24.57362 93.80051 92.02057
v 0.451981 97.10751 105.5501
v -15.04052 102.3139 102.4823
v -16.95852 97.28311 97.60567
v -9.712116 91.97762 97.06427
v -19.55162 92.3045 95.15836
v -14.61061 88.81892 94.89665
v 0.451981 85.77751 89.83047
v -7.298115 85.72382 89.86147
v -12.96391 84.95041 90.30797
v 0.451985 65.6756 56.84808
v -6.964817 65.76391 56.79707
v -9.787312 62.3494 47.62387
v -9.787315 72.00081 64.34067
v -14.20701 69.37381 62.17377
v -12.31741 65.19841 57.12358
v -14.20702 62.9125 50.98247
v -29.54471 77.0538 50.27887
v -26.72222 80.46831 59.45197
v -26.72221 70.8168 42.73517
v -25.54432 68.5812 47.70967
v -27.43382 72.75661 52.75987
v -25.54431 75.04251 58.90088
v -18.25471 77.84311 64.68247
v -19.87562 73.28501 62.40257
v -18.25471 64.9745 42.39338
v -19.87562 64.67 47.48087
v -24.92252 107.6366 106.9225
v -22.54042 107.1463 116.6138
v -22.54042 105.4239 97.46764
v -21.51482 101.955 101.0105
v -23.09712 103.4216 107.2913
v -21.51482 103.0743 113.7307
v -15.39413 103.2881 120.1675
v -8.247925 98.87891 117.3371
v -16.76782 100.5243 116.0903
v -12.02082 97.6075 114.2091
v -15.39412 104.6654 108.7155
v -8.24782 97.20351 98.18685
v -12.02082 96.4945 101.4883
v -16.76782 99.03931 99.12925
v 0.451979 96.5624 107.8915
v -5.865725 96.6711 107.8819
v -10.43842 96.1409 107.9282
v -23.82321 70.34232 59.60075
v -17.95801 67.5439 62.35666
v -29.68842 69.29681 55.81487
v -30.78482 69.3367 56.98776
v -24.63481 70.68892 61.14896
v -18.38202 67.48341 63.90457
v -31.64351 63.82331 53.17968
v -29.68842 57.7647 52.72485
v -30.78481 57.14401 53.72075
v -33.1778 63.5674 54.13457
v -23.8232 54.94851 55.47596
v -17.95801 56.0126 59.26686
v -18.38201 55.29111 60.63766
v -24.6349 53.8532 56.63787
v -16.00291 61.4861 61.90206
v -16.09182 61.01431 63.66296
v -21.22342 71.32171 63.67087
v -15.47791 67.35751 63.43897
v -26.96892 73.103 60.12177
v -27.97692 72.43721 60.93967
v -21.94812 70.63821 64.99727
v -15.82742 66.3624 64.44687
v -28.88401 70.78611 53.89748
v -26.96892 66.55411 48.77877
v -27.97691 65.513 48.94658
v -30.31672 70.05311 54.32067
v -21.22342 62.5899 48.54688
v -15.47791 60.80871 52.09597
v -15.82741 59.43821 52.45378
v -21.94811 61.0994 48.47568
v -13.56281 63.1255 58.32027
v -13.57952 61.68451 59.15228
v -21.22342 90.10992 96.21287
v -16.16122 86.61712 96.00846
v -26.28572 91.67931 93.08577
v -27.25452 90.97162 93.87628
v -21.94812 89.37832 97.45616
v -16.54982 85.61922 96.96648
v -27.97311 89.63791 87.60167
v -26.28562 85.90921 83.09176
v -27.25452 84.8708 83.30936
v -29.32152 88.86281 88.04917
v -21.22342 82.41641 82.88737
v -16.16122 80.84702 86.01447
v -16.54982 79.51842 86.39957
v -21.94812 80.97392 82.89927
v -14.47372 82.88831 91.49856
v -14.57472 81.48943 92.30626
v -17.91002 98.55901 116.3375
v -13.12113 95.61751 114.4397
v -22.69882 101.1273 113.9577
v -23.54852 100.3241 114.3984
v -18.52413 97.5685 117.2209
v -13.42183 94.49931 114.9082
v -24.29512 101.4829 107.4609
v -22.69882 100.0034 101.1247
v -23.54852 99.1366 100.8299
v -25.49942 100.7626 107.5239
v -17.91002 97.062 99.22685
v -13.12112 94.4948 101.6066
v -13.42182 93.31221 101.3396
v -18.52412 95.9331 98.52895
v -11.52482 94.138 108.1035
v -11.54882 92.739 108.2258
v -17.91002 101.8695 154.1783
v -13.47203 99.14371 152.4196
v -22.34793 104.2485 151.9728
v -23.17753 103.4322 152.3877
v -18.52412 100.874 155.0037
v -13.79283 98.03471 152.8599
v -23.82722 104.5882 145.9513
v -22.34793 103.2275 140.0785
v -23.17752 102.3466 139.8122
v -24.98823 103.8398 146.0169
v -17.90993 100.4884 138.3209
v -13.47202 98.10321 140.5269
v -13.79283 96.93462 140.2856
v -18.52412 99.36161 137.6812
v -11.99273 97.77261 146.5476
v -12.05993 96.39841 146.6678
v -24.35672 68.89162 60.16866
v -20.03351 65.94011 61.46997
v -28.26841 67.17061 56.87756
v -23.73942 62.69222 57.40067
v -30.94461 63.39991 54.75947
v -28.26841 59.07552 54.70847
v -24.35671 55.9394 56.69815
v -20.03352 57.84491 59.30087
v -17.76882 61.4311 62.10736
v -21.69981 69.9192 62.89177
v -17.48261 66.7989 61.50807
v -25.54942 70.83231 59.17937
v -21.14861 67.06801 56.04408
v -28.15321 69.468 54.65847
v -25.54942 66.23491 51.21647
v -21.69981 62.5634 50.15107
v -17.48262 62.20151 53.54517
v -15.24632 63.01461 58.38437
v -21.69982 88.78922 95.57546
v -17.96232 86.07272 94.33737
v -25.06982 89.62641 92.28566
v -21.14861 86.37531 89.48527
v -27.38572 88.39162 88.32117
v -25.06982 85.57571 85.26967
v -21.69972 82.30811 84.34987
v -17.96232 82.02202 87.32137
v -16.01371 82.70561 91.60406
v -18.31362 97.74451 115.0503
v -14.79612 95.84311 112.4933
v -21.51982 99.71021 112.1549
v -17.84662 97.91991 107.7726
v -23.69262 100.2077 107.5724
v -21.51982 98.9221 103.146
v -18.31362 96.4834 100.636
v -14.79612 95.0549 103.4843
v -12.93473 94.02021 108.1138
v -18.31363 101.0637 152.9898
v -15.04243 99.32141 150.6184
v -21.27353 102.9051 150.3049
v -17.84663 101.2853 146.2402
v -23.29852 103.3505 146.0596
v -21.27343 102.1831 141.9554
v -18.31363 99.89781 139.6316
v -15.04243 98.59102 142.2697
v -13.32882 97.6124 146.5617
v 18.4176 50.37799 -19.78532
v 14.437 -11.1659 -30.3904
v 27.0752 -13.4354 -21.5224
v 31.8839 41.29359 -8.80442
v 30.54999 91.40129 6.671455
v 17.65539 94.6127 -5.313637
v 36.3727 43.36 10.53038
v 28.4115 -17.43049 -7.010698
v 31.28549 -22.48729 12.1506
v 35.46729 41.1434 27.84727
v 32.24589 84.46481 43.57938
v 34.84819 86.9054 23.45056
v 17.40129 124.8613 22.67716
v 30.10529 114.2746 28.78937
v 29.53898 123.2421 45.90617
v 17.07719 133.6269 39.91046
v 34.34008 99.45321 37.34657
v 33.36718 85.38391 45.46937
v 31.62748 91.9873 63.98787
v 33.69298 108.7033 54.30006
v 16.10498 142.0568 57.33756
v 27.84018 131.9249 63.18726
v 26.14128 140.6564 80.44025
v 15.13288 150.4828 74.76705
v 31.75178 117.5317 71.49716
v 31.01868 104.0459 79.28316
v 27.53178 110.7952 97.64896
v 29.81068 126.6312 88.53766
v 14.80878 156.1462 102.6785
v 25.57488 145.3863 103.6199
v 24.33788 145.9719 127.6738
v 14.10188 155.784 126.8153
v 29.16368 130.0787 104.9591
v 28.32937 115.8214 106.2064
v 26.53108 115.1362 127.5041
v 27.74988 132.1048 128.8871
v 11.98128 145.524 167.5004
v 20.62687 138.3193 163.3408
v 15.21957 104.4003 208.2121
v 23.50867 128.2193 157.5096
v 23.33817 119.2037 149.5873
v 17.04407 94.37253 191.2448
v 14.91747 76.69554 211.7248
v 8.057962 65.18944 202.5578
v 21.40228 8.587513 37.09158
v 15.1832 -23.96739 17.2167
v 30.42199 16.40601 33.70029
v 12.12849 17.33422 44.88329
v 17.27348 52.07462 55.52848
v 23.21768 48.68982 51.09227
v 29.09849 52.62661 48.60836
v 9.037292 52.2136 55.79176
v 11.87438 69.73122 58.50476
v 17.20998 67.75031 59.62417
v 15.29198 59.89791 58.73775
v 32.75099 54.44591 42.21587
v 29.1516 72.31302 48.86967
v 30.88928 62.22861 50.03946
v 28.78078 69.47942 53.17136
v 20.38597 76.33861 55.09265
v 18.58678 83.25751 54.97266
v 22.96359 71.13211 57.06747
v 16.29817 104.4597 133.3305
v 15.55348 105.1717 126.5773
v 22.60837 109.4307 138.4157
v 9.281073 101.6786 139.0939
v 13.17397 100.2876 140.8456
v 17.67177 102.4597 138.0407
v 21.99287 105.3939 140.3987
v 6.941969 104.2084 155.4329
v 8.574172 101.8863 150.7141
v 12.99727 102.7671 156.317
v 11.67477 100.7157 148.6523
v 22.82677 113.3537 154.6328
v 19.07407 107.1354 153.7448
v 22.96197 107.2212 148.083
v 21.10917 107.4324 155.9088
v 13.47067 99.83582 161.5523
v 16.96487 105.4792 158.6943
v 19.15879 84.47301 76.16577
v 18.27998 82.42841 69.58027
v 27.05108 90.10143 76.52068
v 10.94228 82.04701 81.17087
v 15.59618 82.76932 84.74507
v 20.77958 84.34601 81.56078
v 25.88218 87.91232 81.77577
v 28.81918 96.03232 83.90987
v 25.43298 99.38603 92.78708
v 27.36728 91.70012 86.41107
v 25.47759 93.80051 92.02057
v 17.86248 97.28311 97.60567
v 15.94458 102.3139 102.4823
v 10.61608 91.97762 97.06427
v 20.45558 92.30451 95.15837
v 15.51458 88.81892 94.89667
v 8.20208 85.72382 89.86147
v 13.86787 84.95042 90.30797
v 7.868782 65.76392 56.79707
v 10.69129 62.3494 47.62388
v 10.69128 72.00081 64.34067
v 15.11098 69.37381 62.17377
v 13.22139 65.19832 57.12358
v 15.11099 62.9125 50.98248
v 30.44868 77.05381 50.27887
v 27.62618 80.46831 59.45197
v 27.62618 70.81681 42.73518
v 26.44828 68.58111 47.70968
v 28.33778 72.75661 52.75978
v 26.44828 75.04241 58.90097
v 19.15868 77.84311 64.68248
v 20.77967 73.28502 62.40257
v 19.15879 64.9745 42.39338
v 20.77958 64.67001 47.48088
v 25.82658 107.6366 106.9226
v 23.44437 107.1463 116.614
v 23.44448 105.4239 97.46765
v 22.41878 101.955 101.0106
v 24.00118 103.4216 107.2914
v 22.41878 103.0742 113.7307
v 16.29807 103.2881 120.1676
v 9.151876 98.87891 117.3372
v 17.67177 100.5243 116.0903
v 12.92477 97.60741 114.2091
v 16.29817 104.6653 108.7157
v 9.15188 97.2035 98.18685
v 12.92478 96.49451 101.4883
v 17.67178 99.0393 99.12916
v 6.769773 96.6711 107.8819
v 11.34237 96.14091 107.9283
v 24.72717 70.34221 59.60077
v 18.86197 67.54393 62.35667
v 30.59238 69.29681 55.81486
v 31.68889 69.3367 56.98786
v 25.53889 70.68881 61.14906
v 19.28609 67.48331 63.90457
v 32.54749 63.82331 53.17966
v 30.59238 57.76471 52.72486
v 31.68878 57.14392 53.72077
v 34.08188 63.56742 54.13456
v 24.72729 54.94852 55.47597
v 18.86198 56.01261 59.26688
v 19.28599 55.2911 60.63766
v 25.53889 53.85311 56.63786
v 16.90688 61.48612 61.90207
v 16.99588 61.01432 63.66296
v 22.12748 71.32172 63.67088
v 16.38198 67.35751 63.43897
v 27.87288 73.10301 60.12177
v 28.88099 72.43721 60.93968
v 22.85208 70.63821 64.99728
v 16.73138 66.36241 64.44688
v 29.78799 70.7861 53.89748
v 27.87289 66.55411 48.77878
v 28.88099 65.513 48.94658
v 31.22068 70.05312 54.32067
v 22.12738 62.5899 48.54688
v 16.38188 60.80861 52.09598
v 16.73139 59.43821 52.45378
v 22.85208 61.09941 48.47568
v 14.46679 63.1255 58.32028
v 14.48349 61.68451 59.15228
v 22.12738 90.10992 96.21288
v 17.06517 86.61702 96.00856
v 27.18967 91.67931 93.08585
v 28.15858 90.97162 93.87627
v 22.85208 89.37833 97.45616
v 17.45378 85.61922 96.96648
v 28.87708 89.63792 87.60168
v 27.18968 85.90921 83.09176
v 28.15858 84.8708 83.30937
v 30.22548 88.86282 88.04917
v 22.12738 82.41641 82.88737
v 17.06518 80.84692 86.01447
v 17.45378 79.51842 86.39956
v 22.85208 80.97392 82.89928
v 15.37778 82.88831 91.49857
v 15.47868 81.48942 92.30626
v 18.81398 98.5589 116.3376
v 14.02508 95.61751 114.4397
v 23.60288 101.1273 113.9577
v 24.45258 100.3241 114.3986
v 19.42808 97.5685 117.221
v 14.32588 94.4993 114.9082
v 25.19917 101.4829 107.461
v 23.60287 100.0034 101.1248
v 24.45247 99.13661 100.83
v 26.40338 100.7626 107.524
v 18.81398 97.062 99.22685
v 14.02508 94.49471 101.6067
v 14.32578 93.31221 101.3396
v 19.42807 95.93311 98.52895
v 12.42877 94.13801 108.1036
v 12.45288 92.7389 108.226
v 18.81397 101.8695 154.1783
v 14.37597 99.14371 152.4195
v 23.25197 104.2485 151.9729
v 24.08147 103.4322 152.3878
v 19.42807 100.874 155.0038
v 14.69687 98.03471 152.8599
v 24.73127 104.5882 145.9514
v 23.25197 103.2275 140.0786
v 24.08147 102.3466 139.8122
v 25.89227 103.8398 146.0168
v 18.81397 100.4884 138.3208
v 14.37597 98.10322 140.5268
v 14.69677 96.93461 140.2857
v 19.42808 99.36161 137.6812
v 12.89667 97.77261 146.5476
v 12.96397 96.39841 146.6678
v 25.26068 68.89162 60.16866
v 20.93748 65.94009 61.46997
v 29.17238 67.17061 56.87758
v 24.64339 62.69222 57.40067
v 31.84869 63.39991 54.75948
v 29.17238 59.07542 54.70847
v 25.26079 55.93941 56.69817
v 20.93748 57.84491 59.30087
v 18.67278 61.43111 62.10736
v 22.60378 69.9192 62.89178
v 18.38669 66.7989 61.50807
v 26.45339 70.83231 59.17938
v 22.05259 67.06801 56.04408
v 29.05718 69.46802 54.65848
v 26.45338 66.23492 51.21648
v 22.60378 62.56341 50.15108
v 18.38668 62.20151 53.54518
v 16.15029 63.01461 58.38438
v 22.60379 88.78912 95.57547
v 18.86628 86.07262 94.33737
v 25.97378 89.62642 92.28568
v 22.05257 86.37532 89.48527
v 28.28978 88.39162 88.32127
v 25.97378 85.57571 85.26967
v 22.60368 82.30812 84.34986
v 18.86628 82.02202 87.32138
v 16.91778 82.70561 91.60397
v 19.21767 97.74441 115.0504
v 15.70008 95.84311 112.4934
v 22.42377 99.71021 112.155
v 18.75058 97.9199 107.7727
v 24.59657 100.2077 107.5725
v 22.42378 98.9221 103.1461
v 19.21767 96.4834 100.6361
v 15.70007 95.05491 103.4844
v 13.83867 94.0202 108.1139
v 19.21768 101.0637 152.9898
v 15.94637 99.32141 150.6184
v 22.17747 102.9051 150.3049
v 18.75057 101.2853 146.2404
v 24.20247 103.3505 146.0596
v 22.17747 102.183 141.9554
v 19.21767 99.8978 139.6316
v 15.94637 98.59091 142.2696
v 14.23287 97.6124 146.5616
vn 0 0.160392 -0.987053
vn -0.495887 0.116197 -0.860578
vn -0.49927 0.202088 -0.84255
vn 0 0.244394 -0.969676
vn -0.863526 0.0222 -0.503815
vn -0.866881 0.105197 -0.487289
vn -0.862222 0.277107 -0.424011
vn -0.487586 0.449487 -0.748479
vn 0 0.50671 -0.862117
vn -0.985811 -0.087901 -0.143002
vn -0.995636 -0.0048 -0.093203
vn -0.898633 -0.249109 0.361113
vn -0.988334 -0.038301 0.147405
vn -0.999524 -0.029401 0.0094
vn -0.997222 0.062701 -0.040201
vn -0.492005 0.698007 -0.520305
vn 0 0.797075 -0.603881
vn -0.865917 0.410908 -0.285206
vn -0.865412 0.466407 -0.183103
vn -0.498677 0.783764 -0.370183
vn 0 0.900054 -0.435778
vn -0.995476 0.053099 -0.078798
vn -0.960737 -0.25791 -0.102304
vn -0.893114 -0.368206 0.258404
vn -0.995299 0.0933 0.026
vn -0.505181 0.789171 -0.349287
vn 0 0.906446 -0.422322
vn -0.868492 0.471696 -0.152399
vn -0.871583 0.476691 -0.114498
vn -0.507012 0.82182 -0.259906
vn 0 0.949857 -0.312686
vn -0.991922 0.116102 0.051101
vn -0.984973 -0.069298 0.158196
vn -0.930023 -0.277007 0.241506
vn -0.995677 0.081798 0.043999
vn -0.504302 0.860604 -0.071
vn 0 0.99595 -0.089905
vn -0.874299 0.484899 -0.0218
vn -0.86363 0.490717 0.115504
vn -0.489997 0.861395 0.133799
vn 0 0.989968 0.141295
vn -0.996314 0.082001 0.0252
vn -0.98395 -0.172809 0.044502
vn -0.907587 -0.403494 0.116098
vn -0.990926 0.084402 0.104603
vn -0.49749 0.752485 0.431591
vn 0 0.884475 0.466587
vn -0.866083 0.412292 0.282694
vn -0.718502 0.302701 0.626201
vn 0 0.419807 0.907614
vn 0 0.660619 0.750721
vn -0.99454 -0.032401 0.099204
vn -0.987895 -0.0376 0.150499
vn -0.917098 -0.382399 -0.1127
vn -0.956184 -0.283595 0.072699
vn -0.440603 -0.739105 -0.509503
vn -0 -0.907012 0.421106
vn -0 -0.779325 -0.62662
vn -0.486004 -0.521104 0.701606
vn -0.489691 -0.380093 0.784686
vn -0.781717 -0.248205 0.572112
vn -0 -0.39791 0.917424
vn -0.205405 -0.327308 0.922322
vn -0.036701 -0.491307 0.870213
vn -0.467707 -0.449907 0.760812
vn -0.818601 -0.357801 0.449301
vn -0 -0.26101 0.965336
vn 0.0654 -0.2257 0.971999
vn -0 0.36939 0.929274
vn -0.048001 0.068301 0.996509
vn 0.429694 0.440594 0.788188
vn 0.580707 -0.173502 0.79541
vn -0.958757 -0.024299 0.283187
vn -0.825877 0.247993 0.506386
vn -0.974241 0.123005 -0.189008
vn -0.745232 0.666329 0.025201
vn 0.0051 0.978831 0.204606
vn -0.430384 0.339988 0.836169
vn -0.215905 0.778218 0.589713
vn -0.52202 -0.849332 0.078303
vn -0.472392 -0.818686 -0.326494
vn -0.8809 -0.4484 -0.1515
vn -0 -0.988533 0.151005
vn 0.021599 -0.995974 -0.086998
vn 0.540899 -0.694599 -0.474299
vn -0.263898 -0.527095 -0.807793
vn -0.834817 0.095902 -0.542111
vn -0 -0.980765 -0.195193
vn 0.513608 -0.852513 -0.097101
vn -0.190797 -0.459793 -0.867287
vn -0.0211 -0.963494 0.266898
vn 0.733278 -0.674379 0.086698
vn -0.980205 -0.106501 0.166901
vn -0.409701 -0.1488 0.900002
vn -0.955308 0.295602 0.0026
vn -0.710374 0.200793 0.674575
vn -0.399705 -0.709809 -0.580007
vn -0.424698 -0.905296 0.0084
vn -0.510894 -0.742691 0.432895
vn -0.454105 -0.89091 0.0082
vn -0.759878 -0.648582 0.043899
vn 0 -0.858022 0.513613
vn -0.165304 -0.961023 0.221606
vn 0.282901 -0.947802 -0.1471
vn -0.24999 -0.806369 -0.535979
vn -0.796223 -0.381311 -0.469714
vn -0.937918 -0.256305 0.233705
vn -0.752318 -0.235906 0.615115
vn -0.990348 0.132706 -0.040002
vn -0.755905 0.302502 0.580604
vn -0 -0.895882 0.444292
vn -0.507706 -0.689608 0.516406
vn -0.431191 -0.373592 0.821282
vn -0.130899 -0.620393 0.773291
vn -0.227408 0.109404 0.967634
vn 0.296588 -0.316987 0.900864
vn 0 -0.841211 0.540707
vn 0.0402 -0.847605 0.529103
vn 0.543101 -0.723401 0.426301
vn 0 -0.794094 -0.607795
vn 0.213797 -0.909389 0.356796
vn 0.534506 -0.79761 -0.279503
vn -0.168902 -0.646008 0.74441
vn 0.315892 -0.295892 0.901477
vn 0.562402 -0.716103 0.413402
vn 0.315913 -0.928637 -0.194507
vn -0.924862 -0.358685 0.126395
vn -0.732531 -0.347215 0.585525
vn -0.773502 -0.476501 -0.417901
vn -0.770206 -0.385503 -0.508104
vn -0.997284 0.063799 -0.0368
vn -0.770222 0.247207 0.587917
vn -0.447309 -0.433109 0.782516
vn -0.215899 0.1272 0.968095
vn -0.0071 -0.493 -0.87
vn -0.2159 -0.7748 -0.594199
vn -0.907606 -0.416703 0.0511
vn -0.74613 -0.570823 0.342714
vn -0.137295 -0.54568 -0.82667
vn -0.600097 0.183499 -0.778596
vn -0.997836 0.065502 -0.0058
vn -0.804787 -0.037299 0.592391
vn -0.46309 -0.750183 0.471989
vn -0.172392 -0.916657 0.360583
vn -0.23861 -0.334913 0.911537
vn 0.324686 -0.687769 0.649271
vn 0.362088 0.438485 -0.822572
vn -0.112099 -0.546094 -0.83019
vn 0.499615 -0.482214 -0.719621
vn 0.276985 0.413077 -0.867552
vn -0 -0.999084 -0.042799
vn 0.0388 -0.998089 0.0481
vn 0.555661 -0.828242 0.072495
vn 0.106895 0.991453 0.074796
vn 0.681421 0.653621 0.32931
vn -0.446301 0.827201 -0.341401
vn -0.770494 0.394897 0.500396
vn -0.341311 0.552918 0.760124
vn 0.055201 0.271607 0.960824
vn -0.77381 0.182002 -0.606708
vn -0.742212 -0.61901 -0.256804
vn -0.771533 -0.591825 0.23341
vn -0.977469 -0.054598 0.203894
vn -0.174498 -0.981187 0.082599
vn 0.476307 -0.800712 0.363306
vn 0.0579 -0.7158 0.695901
vn -0.338783 -0.862257 0.376482
vn 0.92539 -0.089099 0.368396
vn 0.305907 -0.246406 0.919622
vn 0.117405 0.662131 0.740134
vn 0.701301 0.206501 0.682301
vn -0.491198 0.802796 0.337998
vn -0.787016 -0.031801 0.616113
vn -0.320096 -0.096199 0.942488
vn 0.102897 -0.476787 0.872976
vn -0.722516 0.598713 -0.345708
vn -0.491216 0.108703 -0.864228
vn -0.787 -0.5495 -0.2805
vn -0.985647 -0.146207 0.084404
vn 0.117399 -0.309898 -0.943494
vn 0.701309 -0.487606 -0.520006
vn 0.102901 -0.994412 -0.0236
vn -0.320096 -0.864291 -0.387995
vn 0.959997 -0.242499 0.14
vn 0.346613 -0.812331 0.469018
vn 0.083697 0.618177 0.78157
vn 0.672779 0.152396 0.723978
vn -0.506126 0.787841 0.350918
vn -0.784593 -0.068699 0.616194
vn -0.335599 -0.1328 0.932597
vn 0.074001 -0.498006 0.864011
vn -0.742223 0.583718 -0.32921
vn -0.533272 0.056497 -0.844055
vn -0.784591 -0.567994 -0.248597
vn -0.977887 -0.181098 0.104599
vn 0.079302 -0.374011 -0.924027
vn 0.671344 -0.553636 -0.492732
vn 0.073997 -0.997258 -0.0007
vn -0.335614 -0.874037 -0.351315
vn 0.938009 -0.300003 0.173602
vn 0.307799 -0.823997 0.475699
vn 0.129302 0.307206 0.942818
vn 0.733175 -0.117696 0.669778
vn -0.519112 0.601813 0.606913
vn -0.809824 -0.261208 0.525315
vn -0.308411 -0.463616 0.830628
vn 0.140004 -0.807425 0.573118
vn -0.730261 0.680564 -0.059597
vn -0.518678 0.48778 -0.702171
vn -0.809823 -0.34841 -0.472014
vn -0.987166 -0.159095 0.013899
vn 0.129304 0.138904 -0.981828
vn 0.733172 -0.232191 -0.639176
vn 0.139998 -0.894685 -0.424193
vn -0.308403 -0.600807 -0.737508
vn 0.95684 -0.289512 0.025301
vn 0.355298 -0.931194 0.0815
vn -0.110796 -0.106096 0.988164
vn 0.618806 -0.399104 0.676606
vn -0.704567 0.361983 0.610371
vn -0.807906 -0.282102 0.517404
vn -0.318217 -0.481826 0.816444
vn 0.121498 -0.816587 0.564291
vn -0.746712 0.663111 -0.052001
vn -0.493805 0.519805 -0.697108
vn -0.807993 -0.367797 -0.460296
vn -0.982854 -0.18371 0.015801
vn 0.135403 0.149003 -0.979522
vn 0.748876 -0.191694 -0.63438
vn 0.121301 -0.902111 -0.414105
vn -0.318992 -0.615985 -0.720282
vn 0.949966 -0.310689 0.032199
vn 0.332206 -0.939618 0.082202
vn -0.484015 -0.459314 0.744823
vn -0.603013 -0.344907 0.719315
vn -0.377611 -0.37861 0.845023
vn -0.500012 -0.224105 0.83652
vn -0.2945 -0.2473 0.9231
vn -0.377605 -0.094701 0.921112
vn -0.484216 0.023701 0.874628
vn -0.603003 -0.061 0.795404
vn -0.680382 -0.189695 0.707881
vn -0.489205 -0.837108 0.244803
vn -0.595898 -0.747897 0.292499
vn -0.389621 -0.851046 0.352019
vn -0.500003 -0.750004 0.433003
vn -0.312793 -0.822582 0.47489
vn -0.389601 -0.730402 0.561002
vn -0.489207 -0.630508 0.602608
vn -0.595936 -0.627238 0.501431
vn -0.666179 -0.645879 0.372888
vn -0.486223 -0.84584 0.219411
vn -0.607214 -0.746017 0.273406
vn -0.374284 -0.862464 0.340686
vn -0.500003 -0.750004 0.433003
vn -0.287306 -0.829518 0.478911
vn -0.374285 -0.726271 0.576577
vn -0.486297 -0.612896 0.622796
vn -0.60722 -0.60982 0.509317
vn -0.685835 -0.630233 0.363919
vn -0.491903 -0.864404 -0.1041
vn -0.598486 -0.800381 -0.034699
vn -0.388717 -0.92104 -0.024201
vn -0.500012 -0.862721 0.075502
vn -0.309614 -0.947241 0.082904
vn -0.388681 -0.902856 0.183791
vn -0.491902 -0.833202 0.252601
vn -0.598489 -0.782185 0.173197
vn -0.668702 -0.740702 0.0648
vn -0.490588 -0.863379 -0.117897
vn -0.605421 -0.794727 -0.043301
vn -0.380009 -0.924422 -0.032201
vn -0.50037 -0.862549 0.075096
vn -0.295198 -0.951894 0.0822
vn -0.380984 -0.904661 0.190892
vn -0.491612 -0.82932 0.265606
vn -0.605577 -0.775071 0.180393
vn -0.680425 -0.730027 0.063902
vn 0.49927 0.202088 -0.84255
vn 0.495887 0.116197 -0.860578
vn 0.863526 0.022201 -0.503815
vn 0.866881 0.105198 -0.487289
vn 0.862222 0.277107 -0.424011
vn 0.487586 0.449487 -0.748479
vn 0.995636 -0.0048 -0.093203
vn 0.985811 -0.087901 -0.143002
vn 0.898633 -0.249109 0.361114
vn 0.988334 -0.038301 0.147405
vn 0.999524 -0.029401 0.0094
vn 0.997222 0.062702 -0.040201
vn 0.492005 0.698007 -0.520305
vn 0.865917 0.410908 -0.285206
vn 0.865412 0.466407 -0.183103
vn 0.498677 0.783764 -0.370183
vn 0.995476 0.053099 -0.078798
vn 0.960738 -0.25791 -0.102304
vn 0.893114 -0.368206 0.258404
vn 0.995299 0.0933 0.026
vn 0.505181 0.789171 -0.349287
vn 0.868492 0.471696 -0.152399
vn 0.871583 0.476691 -0.114498
vn 0.507012 0.82182 -0.259906
vn 0.991922 0.116103 0.051101
vn 0.984973 -0.069298 0.158196
vn 0.930023 -0.277007 0.241506
vn 0.995677 0.081798 0.043999
vn 0.504302 0.860604 -0.071
vn 0.874298 0.484899 -0.0218
vn 0.86363 0.490717 0.115504
vn 0.489997 0.861395 0.133799
vn 0.996314 0.082001 0.0252
vn 0.98395 -0.172809 0.044502
vn 0.907587 -0.403494 0.116099
vn 0.990926 0.084402 0.104603
vn 0.49749 0.752485 0.431591
vn 0.866083 0.412292 0.282694
vn 0.718501 0.302701 0.626201
vn 0.99454 -0.032401 0.099204
vn 0.987895 -0.0376 0.150499
vn 0.917099 -0.382399 -0.1127
vn 0.956184 -0.283595 0.072699
vn 0.440603 -0.739105 -0.509503
vn 0.489691 -0.380093 0.784686
vn 0.486004 -0.521104 0.701606
vn 0.781717 -0.248205 0.572113
vn 0.205405 -0.327308 0.922322
vn 0.0367 -0.491307 0.870213
vn 0.467707 -0.449907 0.760812
vn 0.818601 -0.3578 0.449301
vn -0.0654 -0.2257 0.971999
vn 0.048 0.068301 0.996509
vn -0.429694 0.440594 0.788188
vn -0.580707 -0.173502 0.79541
vn 0.958757 -0.024299 0.283187
vn 0.825877 0.247993 0.506386
vn 0.974241 0.123005 -0.189008
vn 0.745232 0.666329 0.025201
vn 0.430384 0.339988 0.836169
vn -0.0051 0.978831 0.204606
vn 0.215892 0.778172 0.589779
vn 0.472392 -0.818686 -0.326494
vn 0.522019 -0.849332 0.078303
vn 0.8809 -0.4484 -0.1515
vn -0.0216 -0.995974 -0.086998
vn -0.540899 -0.694599 -0.474299
vn 0.263898 -0.527095 -0.807792
vn 0.834817 0.095902 -0.542111
vn -0.513608 -0.852513 -0.097101
vn 0.190797 -0.459793 -0.867287
vn 0.0211 -0.963494 0.266898
vn -0.733278 -0.674379 0.086697
vn 0.980205 -0.106501 0.166901
vn 0.409701 -0.1488 0.900002
vn 0.955308 0.295602 0.0026
vn 0.710374 0.200793 0.674575
vn 0.399705 -0.709809 -0.580007
vn 0.424698 -0.905296 0.0084
vn 0.454105 -0.89091 0.0082
vn 0.510894 -0.742691 0.432895
vn 0.759878 -0.648581 0.043899
vn 0.165304 -0.961023 0.221606
vn -0.282901 -0.947802 -0.1471
vn 0.249991 -0.806369 -0.535979
vn 0.796223 -0.381311 -0.469714
vn 0.937918 -0.256305 0.233705
vn 0.752318 -0.235905 0.615115
vn 0.990348 0.132707 -0.040002
vn 0.755905 0.302502 0.580604
vn 0.43119 -0.373592 0.821282
vn 0.507706 -0.689608 0.516406
vn 0.130898 -0.620392 0.773291
vn 0.227408 0.109404 0.967634
vn -0.296588 -0.316987 0.900863
vn -0.0402 -0.847605 0.529103
vn -0.543101 -0.723401 0.426301
vn -0.213797 -0.909389 0.356796
vn -0.534506 -0.79761 -0.279503
vn 0.168902 -0.646008 0.74441
vn -0.315892 -0.295892 0.901477
vn -0.562402 -0.716103 0.413402
vn -0.315912 -0.928637 -0.194508
vn 0.924862 -0.358685 0.126395
vn 0.732531 -0.347215 0.585525
vn 0.773502 -0.476501 -0.417901
vn 0.770206 -0.385503 -0.508104
vn 0.997284 0.063799 -0.036799
vn 0.770222 0.247207 0.587917
vn 0.447309 -0.433109 0.782516
vn 0.215899 0.1272 0.968095
vn 0.0071 -0.493 -0.87
vn 0.2159 -0.7748 -0.594199
vn 0.907606 -0.416702 0.0511
vn 0.746129 -0.570822 0.342714
vn 0.137295 -0.54568 -0.82667
vn 0.600097 0.183499 -0.778596
vn 0.997836 0.065502 -0.0058
vn 0.804787 -0.037299 0.592391
vn 0.463089 -0.750183 0.471989
vn 0.172392 -0.916657 0.360583
vn 0.238609 -0.334913 0.911537
vn -0.324686 -0.687769 0.649271
vn -0.362087 0.438485 -0.822572
vn 0.112099 -0.546094 -0.83019
vn -0.499615 -0.482214 -0.719621
vn -0.276985 0.413077 -0.867552
vn -0.0388 -0.998089 0.0481
vn -0.555707 -0.828211 0.072501
vn -0.106895 0.991453 0.074796
vn -0.681377 0.653678 0.329289
vn 0.446301 0.827201 -0.341401
vn 0.770463 0.394981 0.500376
vn 0.341311 0.552918 0.760124
vn -0.055202 0.271607 0.960824
vn 0.77381 0.182002 -0.606708
vn 0.742212 -0.61901 -0.256804
vn 0.771533 -0.591825 0.23341
vn 0.977469 -0.054598 0.203894
vn 0.174498 -0.981187 0.082599
vn -0.476307 -0.800712 0.363306
vn -0.0579 -0.7158 0.695901
vn 0.338783 -0.862257 0.376482
vn -0.92539 -0.089099 0.368396
vn -0.305908 -0.246406 0.919622
vn -0.117406 0.662131 0.740134
vn -0.701301 0.2065 0.682301
vn 0.491198 0.802797 0.337998
vn 0.787016 -0.0318 0.616113
vn 0.320096 -0.096199 0.942488
vn -0.102897 -0.476787 0.872976
vn 0.722516 0.598713 -0.345708
vn 0.491216 0.108703 -0.864228
vn 0.787 -0.5495 -0.2805
vn 0.985647 -0.146207 0.084404
vn -0.117399 -0.309898 -0.943494
vn -0.701309 -0.487606 -0.520006
vn -0.102901 -0.994412 -0.0236
vn 0.320096 -0.86429 -0.387996
vn -0.959997 -0.242499 0.14
vn -0.346613 -0.812331 0.469018
vn -0.083697 0.618177 0.78157
vn -0.672779 0.152395 0.723978
vn 0.506126 0.787841 0.350918
vn 0.784592 -0.068699 0.616194
vn 0.335599 -0.132799 0.932597
vn -0.073901 -0.49801 0.864017
vn 0.742223 0.583718 -0.32921
vn 0.533272 0.056497 -0.844055
vn 0.784591 -0.567994 -0.248597
vn 0.977887 -0.181098 0.104599
vn -0.079302 -0.374011 -0.924028
vn -0.671399 -0.553599 -0.492699
vn -0.073997 -0.997258 -0.0007
vn 0.335585 -0.874061 -0.351284
vn -0.938009 -0.300003 0.173602
vn -0.307799 -0.823997 0.475698
vn -0.129303 0.307206 0.942818
vn -0.733175 -0.117696 0.669777
vn 0.519112 0.601814 0.606913
vn 0.809824 -0.261208 0.525316
vn 0.30841 -0.463616 0.830629
vn -0.140005 -0.807425 0.573118
vn 0.730261 0.680564 -0.059597
vn 0.518704 0.487704 -0.702205
vn 0.809824 -0.34841 -0.472013
vn 0.987166 -0.159094 0.0139
vn -0.129304 0.138904 -0.981828
vn -0.733172 -0.232191 -0.639176
vn -0.139998 -0.894685 -0.424193
vn 0.308404 -0.600807 -0.737508
vn -0.95684 -0.289512 0.025301
vn -0.355298 -0.931194 0.0815
vn 0.110796 -0.106096 0.988164
vn -0.618806 -0.399104 0.676606
vn 0.704567 0.361983 0.610372
vn 0.807906 -0.282102 0.517404
vn 0.318217 -0.481826 0.816445
vn -0.121498 -0.816587 0.564291
vn 0.746713 0.663111 -0.052001
vn 0.493805 0.519805 -0.697107
vn 0.807993 -0.367797 -0.460296
vn 0.982835 -0.183807 0.015801
vn -0.135403 0.149003 -0.979522
vn -0.748876 -0.191694 -0.63438
vn -0.121301 -0.902111 -0.414105
vn 0.318992 -0.615985 -0.720282
vn -0.949966 -0.310689 0.032199
vn -0.332206 -0.939618 0.082202
vn 0.484015 -0.459314 0.744823
vn 0.603013 -0.344907 0.719315
vn 0.37761 -0.37861 0.845024
vn 0.500012 -0.224105 0.83652
vn 0.2945 -0.2473 0.9231
vn 0.377605 -0.094701 0.921112
vn 0.484216 0.023601 0.87463
vn 0.603003 -0.061 0.795404
vn 0.680382 -0.189695 0.707882
vn 0.489205 -0.837108 0.244803
vn 0.595898 -0.747897 0.292499
vn 0.389621 -0.851045 0.352019
vn 0.500003 -0.750004 0.433003
vn 0.312793 -0.822582 0.47489
vn 0.389601 -0.730402 0.561002
vn 0.489206 -0.630508 0.602608
vn 0.595936 -0.627238 0.501431
vn 0.666179 -0.645879 0.372888
vn 0.486223 -0.84584 0.219411
vn 0.607214 -0.746017 0.273406
vn 0.374284 -0.862464 0.340686
vn 0.500003 -0.750004 0.433003
vn 0.287306 -0.829518 0.478911
vn 0.374285 -0.726271 0.576577
vn 0.48622 -0.612925 0.622826
vn 0.60722 -0.60982 0.509317
vn 0.685835 -0.630233 0.363919
vn 0.491903 -0.864405 -0.1041
vn 0.598486 -0.800382 -0.034699
vn 0.388717 -0.92104 -0.024201
vn 0.500012 -0.862721 0.075502
vn 0.309614 -0.947242 0.082904
vn 0.388681 -0.902856 0.183791
vn 0.491901 -0.833202 0.252601
vn 0.598489 -0.782185 0.173197
vn 0.668702 -0.740702 0.0648
vn 0.490588 -0.863379 -0.117897
vn 0.605421 -0.794727 -0.043301
vn 0.380009 -0.924422 -0.032201
vn 0.50037 -0.862549 0.075096
vn 0.295198 -0.951894 0.0822
vn 0.380984 -0.904661 0.190892
vn 0.491612 -0.82932 0.265607
vn 0.605577 -0.775071 0.180393
vn 0.680425 -0.730027 0.063903
vt 0.029 0.0118
vt 0.1064 0.0115
vt 0.1445 0.1698
vt 0.0343 0.1544
vt 0.2221 0.0118
vt 0.2318 0.1547
vt 0.2319 0.2881
vt 0.1391 0.2881
vt 0.0312 0.2881
vt 0.255 0.0115
vt 0.2617 0.1726
vt 0.2909 0.0117
vt 0.2846 0.1785
vt 0.2937 0.2954
vt 0.2629 0.2881
vt 0.1371 0.3493
vt 0.0302 0.3493
vt 0.2319 0.3493
vt 0.2319 0.3984
vt 0.1343 0.3984
vt 0.0288 0.3984
vt 0.2633 0.3493
vt 0.2873 0.3493
vt 0.2949 0.3985
vt 0.2638 0.3984
vt 0.1244 0.4475
vt 0.0268 0.4475
vt 0.2294 0.4475
vt 0.2261 0.4967
vt 0.1135 0.4967
vt 0.0247 0.4967
vt 0.2648 0.4475
vt 0.2913 0.4475
vt 0.3044 0.4966
vt 0.2655 0.4967
vt 0.1088 0.5458
vt 0.0214 0.5458
vt 0.2282 0.5458
vt 0.2269 0.6069
vt 0.0983 0.6069
vt 0.0178 0.6069
vt 0.2675 0.5458
vt 0.2968 0.5458
vt 0.3066 0.5997
vt 0.2675 0.6069
vt 0.065 0.692
vt 0.0108 0.692
vt 0.2128 0.692
vt 0.2061 0.7965
vt 0.1503 0.8835
vt 0.09 0.811
vt 0.2688 0.692
vt 0.3076 0.686
vt 0.3401 0.8218
vt 0.258 0.898
vt 0.4398 0.806
vt 0.258 0.984
vt 0.4803 0.8207
vt 0.4265 0.0114
vt 0.3602 0.1046
vt 0.3452 0.1072
vt 0.5131 0.0117
vt 0.4497 0.1312
vt 0.419 0.2093
vt 0.386 0.198
vt 0.3651 0.2061
vt 0.5088 0.1994
vt 0.471 0.2241
vt 0.5108 0.2978
vt 0.4522 0.269
vt 0.4193 0.2505
vt 0.4309 0.2306
vt 0.3312 0.2063
vt 0.3602 0.2546
vt 0.3607 0.2306
vt 0.3658 0.2505
vt 0.3833 0.2999
vt 0.3965 0.2686
vt 0.387 0.2571
vt 0.4189 0.5951
vt 0.425 0.6279
vt 0.3751 0.6419
vt 0.5139 0.5973
vt 0.4765 0.6261
vt 0.4482 0.646
vt 0.4147 0.6394
vt 0.3839 0.646
vt 0.5191 0.68
vt 0.4926 0.6681
vt 0.4886 0.7106
vt 0.4501 0.6858
vt 0.4578 0.6659
vt 0.3703 0.6839
vt 0.3668 0.7106
vt 0.3776 0.6659
vt 0.388 0.6858
vt 0.4486 0.7371
vt 0.4198 0.6924
vt 0.3865 0.3986
vt 0.4093 0.4186
vt 0.3716 0.4266
vt 0.511 0.3985
vt 0.4607 0.4237
vt 0.4339 0.4354
vt 0.4024 0.4304
vt 0.3795 0.4354
vt 0.3665 0.4504
vt 0.376 0.4742
vt 0.3746 0.4504
vt 0.3807 0.4654
vt 0.5133 0.4966
vt 0.4139 0.4965
vt 0.4176 0.4822
vt 0.4641 0.4714
vt 0.404 0.4705
vt 0.4344 0.4654
vt 0.5108 0.4475
vt 0.4783 0.4475
vt 0.4441 0.4504
vt 0.5097 0.3493
vt 0.4793 0.3493
vt 0.4624 0.3247
vt 0.4624 0.3738
vt 0.4356 0.3614
vt 0.4459 0.3449
vt 0.4356 0.3285
vt 0.3647 0.3449
vt 0.3712 0.3695
vt 0.3712 0.3204
vt 0.3784 0.3285
vt 0.373 0.3449
vt 0.3784 0.3614
vt 0.409 0.3777
vt 0.4023 0.3669
vt 0.409 0.3122
vt 0.4023 0.323
vt 0.3701 0.5473
vt 0.3772 0.5717
vt 0.3772 0.5228
vt 0.3838 0.531
vt 0.3782 0.5473
vt 0.3838 0.5635
vt 0.4128 0.5799
vt 0.4761 0.5703
vt 0.4059 0.5689
vt 0.4294 0.5635
vt 0.4128 0.5146
vt 0.4761 0.5214
vt 0.4294 0.531
vt 0.4059 0.5256
vt 0.5125 0.5458
vt 0.4884 0.5458
vt 0.4356 0.5473
vt 0.3827 0.2569
vt 0.4109 0.2518
vt 0.3646 0.2518
vt 0.3636 0.2527
vt 0.3812 0.2587
vt 0.4094 0.2527
vt 0.3604 0.2366
vt 0.3646 0.2214
vt 0.3636 0.2205
vt 0.359 0.2366
vt 0.3827 0.2163
vt 0.4109 0.2214
vt 0.4094 0.2205
vt 0.3812 0.2144
vt 0.4218 0.2366
vt 0.4216 0.2366
vt 0.398 0.3672
vt 0.4284 0.3616
vt 0.3771 0.3616
vt 0.3758 0.3626
vt 0.3961 0.3692
vt 0.4267 0.3626
vt 0.3723 0.3449
vt 0.3771 0.3283
vt 0.3758 0.3273
vt 0.3705 0.3449
vt 0.398 0.3227
vt 0.4284 0.3283
vt 0.4267 0.3273
vt 0.3961 0.3207
vt 0.4386 0.3449
vt 0.4383 0.3449
vt 0.398 0.47
vt 0.4255 0.4651
vt 0.3783 0.4651
vt 0.3769 0.4659
vt 0.396 0.4718
vt 0.4237 0.4659
vt 0.3735 0.4504
vt 0.3783 0.4357
vt 0.3769 0.4349
vt 0.3717 0.4504
vt 0.398 0.4308
vt 0.4255 0.4357
vt 0.4237 0.4349
vt 0.396 0.429
vt 0.4351 0.4504
vt 0.4344 0.4504
vt 0.4012 0.5691
vt 0.4239 0.5637
vt 0.3817 0.5637
vt 0.38 0.5646
vt 0.3991 0.5711
vt 0.4223 0.5646
vt 0.3768 0.5473
vt 0.3817 0.5309
vt 0.38 0.5299
vt 0.3747 0.5473
vt 0.4012 0.5254
vt 0.4239 0.5309
vt 0.4223 0.5299
vt 0.3991 0.5234
vt 0.4304 0.5473
vt 0.4298 0.5473
vt 0.4077 0.6802
vt 0.4392 0.6751
vt 0.3803 0.6751
vt 0.3778 0.676
vt 0.4045 0.682
vt 0.4368 0.676
vt 0.3733 0.6599
vt 0.3803 0.6447
vt 0.3777 0.6438
vt 0.3701 0.6599
vt 0.4077 0.6396
vt 0.4392 0.6447
vt 0.4368 0.6438
vt 0.4045 0.6378
vt 0.4485 0.6599
vt 0.4474 0.6599
vt 0.3817 0.2537
vt 0.4004 0.2473
vt 0.3688 0.2473
vt 0.3828 0.2366
vt 0.3628 0.2366
vt 0.3688 0.2259
vt 0.3817 0.2195
vt 0.4004 0.2259
vt 0.4125 0.2366
vt 0.3968 0.3637
vt 0.4175 0.3566
vt 0.3819 0.3566
vt 0.3983 0.3449
vt 0.3749 0.3449
vt 0.3819 0.3332
vt 0.3968 0.3262
vt 0.4175 0.3332
vt 0.4297 0.3449
vt 0.3967 0.4669
vt 0.4155 0.4607
vt 0.3829 0.4607
vt 0.3982 0.4504
vt 0.3761 0.4504
vt 0.3829 0.4401
vt 0.3967 0.4339
vt 0.4155 0.4401
vt 0.4265 0.4504
vt 0.3998 0.5657
vt 0.4162 0.5588
vt 0.3862 0.5588
vt 0.4015 0.5473
vt 0.3793 0.5473
vt 0.3862 0.5357
vt 0.3998 0.5288
vt 0.4162 0.5357
vt 0.4244 0.5473
vt 0.4056 0.677
vt 0.4284 0.6706
vt 0.3867 0.6706
vt 0.4081 0.6599
vt 0.3767 0.6599
vt 0.3867 0.6492
vt 0.4056 0.6428
vt 0.4284 0.6492
vt 0.4398 0.6599
vt 0.1445 0.1698
vt 0.1064 0.0115
vt 0.2221 0.0118
vt 0.2318 0.1547
vt 0.2319 0.2881
vt 0.1391 0.2881
vt 0.2617 0.1726
vt 0.255 0.0115
vt 0.2909 0.0117
vt 0.2846 0.1785
vt 0.2937 0.2954
vt 0.2629 0.2881
vt 0.1371 0.3493
vt 0.2319 0.3493
vt 0.2319 0.3984
vt 0.1343 0.3984
vt 0.2633 0.3493
vt 0.2873 0.3493
vt 0.2949 0.3985
vt 0.2638 0.3984
vt 0.1244 0.4475
vt 0.2294 0.4475
vt 0.2261 0.4967
vt 0.1135 0.4967
vt 0.2648 0.4475
vt 0.2913 0.4475
vt 0.3044 0.4966
vt 0.2655 0.4967
vt 0.1088 0.5458
vt 0.2282 0.5458
vt 0.2269 0.6069
vt 0.0983 0.6069
vt 0.2675 0.5458
vt 0.2968 0.5458
vt 0.3066 0.5997
vt 0.2675 0.6069
vt 0.065 0.692
vt 0.2128 0.692
vt 0.2061 0.7965
vt 0.2688 0.692
vt 0.3076 0.686
vt 0.3401 0.8218
vt 0.258 0.898
vt 0.4398 0.806
vt 0.3602 0.1046
vt 0.4265 0.0114
vt 0.3452 0.1072
vt 0.4497 0.1312
vt 0.419 0.2093
vt 0.386 0.198
vt 0.3651 0.2061
vt 0.471 0.2241
vt 0.4522 0.269
vt 0.4193 0.2505
vt 0.4309 0.2306
vt 0.3312 0.2063
vt 0.3602 0.2546
vt 0.3607 0.2306
vt 0.3658 0.2505
vt 0.3965 0.2686
vt 0.3833 0.2999
vt 0.387 0.2571
vt 0.425 0.6279
vt 0.4189 0.5951
vt 0.3751 0.6419
vt 0.4765 0.6261
vt 0.4482 0.646
vt 0.4147 0.6394
vt 0.3839 0.646
vt 0.4926 0.6681
vt 0.4886 0.7106
vt 0.4501 0.6858
vt 0.4578 0.6659
vt 0.3703 0.6839
vt 0.3668 0.7106
vt 0.3776 0.6659
vt 0.388 0.6858
vt 0.4486 0.7371
vt 0.4198 0.6924
vt 0.4093 0.4186
vt 0.3865 0.3986
vt 0.3716 0.4266
vt 0.4607 0.4237
vt 0.4339 0.4354
vt 0.4024 0.4304
vt 0.3795 0.4354
vt 0.3665 0.4504
vt 0.376 0.4742
vt 0.3746 0.4504
vt 0.3807 0.4654
vt 0.4176 0.4822
vt 0.4139 0.4965
vt 0.4641 0.4714
vt 0.404 0.4705
vt 0.4344 0.4654
vt 0.4783 0.4475
vt 0.4441 0.4504
vt 0.4793 0.3493
vt 0.4624 0.3247
vt 0.4624 0.3738
vt 0.4356 0.3614
vt 0.4459 0.3449
vt 0.4356 0.3285
vt 0.3647 0.3449
vt 0.3712 0.3695
vt 0.3712 0.3204
vt 0.3784 0.3285
vt 0.373 0.3449
vt 0.3784 0.3614
vt 0.409 0.3777
vt 0.4023 0.3669
vt 0.409 0.3122
vt 0.4023 0.323
vt 0.3701 0.5473
vt 0.3772 0.5717
vt 0.3772 0.5228
vt 0.3838 0.531
vt 0.3782 0.5473
vt 0.3838 0.5635
vt 0.4128 0.5799
vt 0.4761 0.5703
vt 0.4059 0.5689
vt 0.4294 0.5635
vt 0.4128 0.5146
vt 0.4761 0.5214
vt 0.4294 0.531
vt 0.4059 0.5256
vt 0.4884 0.5458
vt 0.4356 0.5473
vt 0.3827 0.2569
vt 0.4109 0.2518
vt 0.3646 0.2518
vt 0.3636 0.2527
vt 0.3812 0.2587
vt 0.4094 0.2527
vt 0.3604 0.2366
vt 0.3646 0.2214
vt 0.3636 0.2205
vt 0.359 0.2366
vt 0.3827 0.2163
vt 0.4109 0.2214
vt 0.4094 0.2205
vt 0.3812 0.2144
vt 0.4218 0.2366
vt 0.4216 0.2366
vt 0.398 0.3672
vt 0.4284 0.3616
vt 0.3771 0.3616
vt 0.3758 0.3626
vt 0.3961 0.3692
vt 0.4267 0.3626
vt 0.3723 0.3449
vt 0.3771 0.3283
vt 0.3758 0.3273
vt 0.3705 0.3449
vt 0.398 0.3227
vt 0.4284 0.3283
vt 0.4267 0.3273
vt 0.3961 0.3207
vt 0.4386 0.3449
vt 0.4383 0.3449
vt 0.398 0.47
vt 0.4255 0.4651
vt 0.3783 0.4651
vt 0.3769 0.4659
vt 0.396 0.4718
vt 0.4237 0.4659
vt 0.3735 0.4504
vt 0.3783 0.4357
vt 0.3769 0.4349
vt 0.3717 0.4504
vt 0.398 0.4308
vt 0.4255 0.4357
vt 0.4237 0.4349
vt 0.396 0.429
vt 0.4351 0.4504
vt 0.4344 0.4504
vt 0.4012 0.5691
vt 0.4239 0.5637
vt 0.3817 0.5637
vt 0.38 0.5646
vt 0.3991 0.5711
vt 0.4223 0.5646
vt 0.3768 0.5473
vt 0.3817 0.5309
vt 0.38 0.5299
vt 0.3747 0.5473
vt 0.4012 0.5254
vt 0.4239 0.5309
vt 0.4223 0.5299
vt 0.3991 0.5234
vt 0.4304 0.5473
vt 0.4298 0.5473
vt 0.4077 0.6802
vt 0.4392 0.6751
vt 0.3803 0.6751
vt 0.3778 0.676
vt 0.4045 0.682
vt 0.4368 0.676
vt 0.3733 0.6599
vt 0.3803 0.6447
vt 0.3777 0.6438
vt 0.3701 0.6599
vt 0.4077 0.6396
vt 0.4392 0.6447
vt 0.4368 0.6438
vt 0.4045 0.6378
vt 0.4485 0.6599
vt 0.4474 0.6599
vt 0.3817 0.2537
vt 0.4004 0.2473
vt 0.3688 0.2473
vt 0.3828 0.2366
vt 0.3628 0.2366
vt 0.3688 0.2259
vt 0.3817 0.2195
vt 0.4004 0.2259
vt 0.4125 0.2366
vt 0.3968 0.3637
vt 0.4175 0.3566
vt 0.3819 0.3566
vt 0.3983 0.3449
vt 0.3749 0.3449
vt 0.3819 0.3332
vt 0.3968 0.3262
vt 0.4175 0.3332
vt 0.4297 0.3449
vt 0.3967 0.4669
vt 0.4155 0.4607
vt 0.3829 0.4607
vt 0.3982 0.4504
vt 0.3761 0.4504
vt 0.3829 0.4401
vt 0.3967 0.4339
vt 0.4155 0.4401
vt 0.4265 0.4504
vt 0.3998 0.5657
vt 0.4162 0.5588
vt 0.3862 0.5588
vt 0.4015 0.5473
vt 0.3793 0.5473
vt 0.3862 0.5357
vt 0.3998 0.5288
vt 0.4162 0.5357
vt 0.4244 0.5473
vt 0.4056 0.677
vt 0.4284 0.6706
vt 0.3867 0.6706
vt 0.4081 0.6599
vt 0.3767 0.6599
vt 0.3867 0.6492
vt 0.4056 0.6428
vt 0.4284 0.6492
vt 0.4398 0.6599
f 1/1/1 3/3/3 2/2/2
f 1/1/1 4/4/4 3/3/3
f 5/5/5 3/3/3 6/6/6
f 5/5/5 2/2/2 3/3/3
f 7/7/7 3/3/3 8/8/8
f 7/7/7 6/6/6 3/3/3
f 9/9/9 3/3/3 4/4/4
f 9/9/9 8/8/8 3/3/3
f 5/5/5 11/11/11 10/10/10
f 5/5/5 6/6/6 11/11/11
f 12/12/12 11/11/11 13/13/13
f 12/12/12 10/10/10 11/11/11
f 14/14/14 11/11/11 15/15/15
f 14/14/14 13/13/13 11/11/11
f 7/7/7 11/11/11 6/6/6
f 7/7/7 15/15/15 11/11/11
f 9/9/9 16/16/16 8/8/8
f 9/9/9 17/17/17 16/16/16
f 7/7/7 16/16/16 18/18/18
f 7/7/7 8/8/8 16/16/16
f 19/19/19 16/16/16 20/20/20
f 19/19/19 18/18/18 16/16/16
f 21/21/21 16/16/16 17/17/17
f 21/21/21 20/20/20 16/16/16
f 7/7/7 22/22/22 15/15/15
f 7/7/7 18/18/18 22/22/22
f 14/14/14 22/22/22 23/23/23
f 14/14/14 15/15/15 22/22/22
f 24/24/24 22/22/22 25/25/25
f 24/24/24 23/23/23 22/22/22
f 19/19/19 22/22/22 18/18/18
f 19/19/19 25/25/25 22/22/22
f 21/21/21 26/26/26 20/20/20
f 21/21/21 27/27/27 26/26/26
f 19/19/19 26/26/26 28/28/28
f 19/19/19 20/20/20 26/26/26
f 29/29/29 26/26/26 30/30/30
f 29/29/29 28/28/28 26/26/26
f 31/31/31 26/26/26 27/27/27
f 31/31/31 30/30/30 26/26/26
f 19/19/19 32/32/32 25/25/25
f 19/19/19 28/28/28 32/32/32
f 24/24/24 32/32/32 33/33/33
f 24/24/24 25/25/25 32/32/32
f 34/34/34 32/32/32 35/35/35
f 34/34/34 33/33/33 32/32/32
f 29/29/29 32/32/32 28/28/28
f 29/29/29 35/35/35 32/32/32
f 31/31/31 36/36/36 30/30/30
f 31/31/31 37/37/37 36/36/36
f 29/29/29 36/36/36 38/38/38
f 29/29/29 30/30/30 36/36/36
f 39/39/39 36/36/36 40/40/40
f 39/39/39 38/38/38 36/36/36
f 41/41/41 36/36/36 37/37/37
f 41/41/41 40/40/40 36/36/36
f 29/29/29 42/42/42 35/35/35
f 29/29/29 38/38/38 42/42/42
f 34/34/34 42/42/42 43/43/43
f 34/34/34 35/35/35 42/42/42
f 44/44/44 42/42/42 45/45/45
f 44/44/44 43/43/43 42/42/42
f 39/39/39 42/42/42 38/38/38
f 39/39/39 45/45/45 42/42/42
f 41/41/41 46/46/46 40/40/40
f 41/41/41 47/47/47 46/46/46
f 39/39/39 46/46/46 48/48/48
f 39/39/39 40/40/40 46/46/46
f 49/49/49 46/46/46 50/50/50
f 49/49/49 48/48/48 46/46/46
f 51/51/51 46/46/46 47/47/47
f 51/51/51 50/50/50 46/46/46
f 39/39/39 52/52/52 45/45/45
f 39/39/39 48/48/48 52/52/52
f 44/44/44 52/52/52 53/53/53
f 44/44/44 45/45/45 52/52/52
f 54/54/54 52/52/52 55/55/55
f 54/54/54 53/53/53 52/52/52
f 49/49/49 52/52/52 48/48/48
f 49/49/49 55/55/55 52/52/52
f 54/54/54 57/57/57 56/56/56
f 54/54/54 55/55/55 57/57/57
f 56/56/56 57/57/57 58/58/58
f 49/49/49 57/57/57 55/55/55
f 49/49/49 50/50/50 57/57/57
f 12/12/12 60/60/60 59/59/59
f 12/12/12 61/61/61 60/60/60
f 62/62/62 60/60/60 63/63/63
f 62/62/62 59/59/59 60/60/60
f 64/64/64 60/60/60 65/65/65
f 64/64/64 63/63/63 60/60/60
f 66/66/66 60/60/60 61/61/61
f 66/66/66 65/65/65 60/60/60
f 62/62/62 68/68/68 67/67/67
f 62/62/62 63/63/63 68/68/68
f 69/69/69 68/68/68 70/70/70
f 69/69/69 67/67/67 68/68/68
f 71/71/71 68/68/68 72/72/72
f 71/71/71 70/70/70 68/68/68
f 64/64/64 68/68/68 63/63/63
f 64/64/64 72/72/72 68/68/68
f 14/14/14 73/73/73 13/13/13
f 14/14/14 74/74/74 73/73/73
f 12/12/12 73/73/73 61/61/61
f 12/12/12 13/13/13 73/73/73
f 66/66/66 73/73/73 75/75/75
f 66/66/66 61/61/61 73/73/73
f 76/76/76 73/73/73 74/74/74
f 76/76/76 75/75/75 73/73/73
f 69/69/69 78/78/78 77/77/77
f 69/69/69 70/70/70 78/78/78
f 14/14/14 78/78/78 74/74/74
f 14/14/14 77/77/77 78/78/78
f 76/76/76 78/78/78 79/79/79
f 76/76/76 74/74/74 78/78/78
f 71/71/71 78/78/78 70/70/70
f 71/71/71 79/79/79 78/78/78
f 44/44/44 81/81/81 80/80/80
f 44/44/44 82/82/82 81/81/81
f 83/83/83 81/81/81 84/84/84
f 83/83/83 80/80/80 81/81/81
f 85/85/85 81/81/81 86/86/86
f 85/85/85 84/84/84 81/81/81
f 87/87/87 81/81/81 82/82/82
f 87/87/87 86/86/86 81/81/81
f 83/83/83 89/89/89 88/88/88
f 83/83/83 84/84/84 89/89/89
f 58/58/58 89/89/89 90/90/90
f 58/58/58 88/88/88 89/89/89
f 91/91/91 89/89/89 92/92/92
f 91/91/91 90/90/90 89/89/89
f 85/85/85 89/89/89 84/84/84
f 85/85/85 92/92/92 89/89/89
f 54/54/54 93/93/93 53/53/53
f 54/54/54 94/94/94 93/93/93
f 44/44/44 93/93/93 82/82/82
f 44/44/44 53/53/53 93/93/93
f 87/87/87 93/93/93 95/95/95
f 87/87/87 82/82/82 93/93/93
f 96/96/96 93/93/93 94/94/94
f 96/96/96 95/95/95 93/93/93
f 58/58/58 97/97/97 56/56/56
f 58/58/58 90/90/90 97/97/97
f 54/54/54 97/97/97 94/94/94
f 54/54/54 56/56/56 97/97/97
f 96/96/96 97/97/97 98/98/98
f 96/96/96 94/94/94 97/97/97
f 91/91/91 97/97/97 90/90/90
f 91/91/91 98/98/98 97/97/97
f 24/24/24 100/100/100 99/99/99
f 24/24/24 101/101/101 100/100/100
f 102/102/102 100/100/100 103/103/103
f 102/102/102 99/99/99 100/100/100
f 104/104/104 100/100/100 105/105/105
f 104/104/104 103/103/103 100/100/100
f 106/106/106 100/100/100 101/101/101
f 106/106/106 105/105/105 100/100/100
f 34/34/34 107/107/107 33/33/33
f 34/34/34 108/108/108 107/107/107
f 24/24/24 107/107/107 101/101/101
f 24/24/24 33/33/33 107/107/107
f 106/106/106 107/107/107 109/109/109
f 106/106/106 101/101/101 107/107/107
f 110/110/110 107/107/107 108/108/108
f 110/110/110 109/109/109 107/107/107
f 111/111/111 113/113/113 112/112/112
f 111/111/111 114/114/114 113/113/113
f 34/34/34 113/113/113 108/108/108
f 34/34/34 112/112/112 113/113/113
f 110/110/110 113/113/113 115/115/115
f 110/110/110 108/108/108 113/113/113
f 116/116/116 113/113/113 114/114/114
f 116/116/116 115/115/115 113/113/113
f 102/102/102 118/118/118 117/117/117
f 102/102/102 103/103/103 118/118/118
f 111/111/111 118/118/118 114/114/114
f 111/111/111 117/117/117 118/118/118
f 116/116/116 118/118/118 119/119/119
f 116/116/116 114/114/114 118/118/118
f 104/104/104 118/118/118 103/103/103
f 104/104/104 119/119/119 118/118/118
f 69/69/69 121/121/121 120/120/120
f 69/69/69 122/122/122 121/121/121
f 102/102/102 121/121/121 123/123/123
f 102/102/102 120/120/120 121/121/121
f 124/124/124 121/121/121 125/125/125
f 124/124/124 123/123/123 121/121/121
f 126/126/126 121/121/121 122/122/122
f 126/126/126 125/125/125 121/121/121
f 24/24/24 127/127/127 23/23/23
f 24/24/24 128/128/128 127/127/127
f 14/14/14 127/127/127 129/129/129
f 14/14/14 23/23/23 127/127/127
f 130/130/130 127/127/127 131/131/131
f 130/130/130 129/129/129 127/127/127
f 132/132/132 127/127/127 128/128/128
f 132/132/132 131/131/131 127/127/127
f 102/102/102 133/133/133 99/99/99
f 102/102/102 123/123/123 133/133/133
f 24/24/24 133/133/133 128/128/128
f 24/24/24 99/99/99 133/133/133
f 132/132/132 133/133/133 134/134/134
f 132/132/132 128/128/128 133/133/133
f 124/124/124 133/133/133 123/123/123
f 124/124/124 134/134/134 133/133/133
f 14/14/14 135/135/135 77/77/77
f 14/14/14 129/129/129 135/135/135
f 69/69/69 135/135/135 122/122/122
f 69/69/69 77/77/77 135/135/135
f 126/126/126 135/135/135 136/136/136
f 126/126/126 122/122/122 135/135/135
f 130/130/130 135/135/135 129/129/129
f 130/130/130 136/136/136 135/135/135
f 44/44/44 137/137/137 43/43/43
f 44/44/44 138/138/138 137/137/137
f 34/34/34 137/137/137 139/139/139
f 34/34/34 43/43/43 137/137/137
f 140/140/140 137/137/137 141/141/141
f 140/140/140 139/139/139 137/137/137
f 142/142/142 137/137/137 138/138/138
f 142/142/142 141/141/141 137/137/137
f 83/83/83 143/143/143 80/80/80
f 83/83/83 144/144/144 143/143/143
f 44/44/44 143/143/143 138/138/138
f 44/44/44 80/80/80 143/143/143
f 142/142/142 143/143/143 145/145/145
f 142/142/142 138/138/138 143/143/143
f 146/146/146 143/143/143 144/144/144
f 146/146/146 145/145/145 143/143/143
f 34/34/34 147/147/147 112/112/112
f 34/34/34 139/139/139 147/147/147
f 111/111/111 147/147/147 148/148/148
f 111/111/111 112/112/112 147/147/147
f 149/149/149 147/147/147 150/150/150
f 149/149/149 148/148/148 147/147/147
f 140/140/140 147/147/147 139/139/139
f 140/140/140 150/150/150 147/147/147
f 111/111/111 152/152/152 151/151/151
f 111/111/111 148/148/148 152/152/152
f 83/83/83 152/152/152 144/144/144
f 83/83/83 151/151/151 152/152/152
f 146/146/146 152/152/152 153/153/153
f 146/146/146 144/144/144 152/152/152
f 149/149/149 152/152/152 148/148/148
f 149/149/149 153/153/153 152/152/152
f 71/71/71 154/154/154 79/79/79
f 71/71/71 155/155/155 154/154/154
f 76/76/76 154/154/154 156/156/156
f 76/76/76 79/79/79 154/154/154
f 157/157/157 154/154/154 158/158/158
f 157/157/157 156/156/156 154/154/154
f 159/159/159 154/154/154 155/155/155
f 159/159/159 158/158/158 154/154/154
f 76/76/76 160/160/160 75/75/75
f 76/76/76 156/156/156 160/160/160
f 66/66/66 160/160/160 161/161/161
f 66/66/66 75/75/75 160/160/160
f 162/162/162 160/160/160 163/163/163
f 162/162/162 161/161/161 160/160/160
f 157/157/157 160/160/160 156/156/156
f 157/157/157 163/163/163 160/160/160
f 66/66/66 164/164/164 65/65/65
f 66/66/66 161/161/161 164/164/164
f 64/64/64 164/164/164 165/165/165
f 64/64/64 65/65/65 164/164/164
f 166/166/166 164/164/164 167/167/167
f 166/166/166 165/165/165 164/164/164
f 162/162/162 164/164/164 161/161/161
f 162/162/162 167/167/167 164/164/164
f 64/64/64 168/168/168 72/72/72
f 64/64/64 165/165/165 168/168/168
f 71/71/71 168/168/168 155/155/155
f 71/71/71 72/72/72 168/168/168
f 159/159/159 168/168/168 169/169/169
f 159/159/159 155/155/155 168/168/168
f 166/166/166 168/168/168 165/165/165
f 166/166/166 169/169/169 168/168/168
f 124/124/124 170/170/170 134/134/134
f 124/124/124 171/171/171 170/170/170
f 132/132/132 170/170/170 172/172/172
f 132/132/132 134/134/134 170/170/170
f 173/173/173 170/170/170 174/174/174
f 173/173/173 172/172/172 170/170/170
f 175/175/175 170/170/170 171/171/171
f 175/175/175 174/174/174 170/170/170
f 132/132/132 176/176/176 131/131/131
f 132/132/132 172/172/172 176/176/176
f 130/130/130 176/176/176 177/177/177
f 130/130/130 131/131/131 176/176/176
f 178/178/178 176/176/176 179/179/179
f 178/178/178 177/177/177 176/176/176
f 173/173/173 176/176/176 172/172/172
f 173/173/173 179/179/179 176/176/176
f 130/130/130 180/180/180 136/136/136
f 130/130/130 177/177/177 180/180/180
f 126/126/126 180/180/180 181/181/181
f 126/126/126 136/136/136 180/180/180
f 182/182/182 180/180/180 183/183/183
f 182/182/182 181/181/181 180/180/180
f 178/178/178 180/180/180 177/177/177
f 178/178/178 183/183/183 180/180/180
f 126/126/126 184/184/184 125/125/125
f 126/126/126 181/181/181 184/184/184
f 124/124/124 184/184/184 171/171/171
f 124/124/124 125/125/125 184/184/184
f 175/175/175 184/184/184 185/185/185
f 175/175/175 171/171/171 184/184/184
f 182/182/182 184/184/184 181/181/181
f 182/182/182 185/185/185 184/184/184
f 116/116/116 186/186/186 115/115/115
f 116/116/116 187/187/187 186/186/186
f 110/110/110 186/186/186 188/188/188
f 110/110/110 115/115/115 186/186/186
f 189/189/189 186/186/186 190/190/190
f 189/189/189 188/188/188 186/186/186
f 191/191/191 186/186/186 187/187/187
f 191/191/191 190/190/190 186/186/186
f 110/110/110 192/192/192 109/109/109
f 110/110/110 188/188/188 192/192/192
f 106/106/106 192/192/192 193/193/193
f 106/106/106 109/109/109 192/192/192
f 194/194/194 192/192/192 195/195/195
f 194/194/194 193/193/193 192/192/192
f 189/189/189 192/192/192 188/188/188
f 189/189/189 195/195/195 192/192/192
f 106/106/106 196/196/196 105/105/105
f 106/106/106 193/193/193 196/196/196
f 104/104/104 196/196/196 197/197/197
f 104/104/104 105/105/105 196/196/196
f 198/198/198 196/196/196 199/199/199
f 198/198/198 197/197/197 196/196/196
f 194/194/194 196/196/196 193/193/193
f 194/194/194 199/199/199 196/196/196
f 104/104/104 200/200/200 119/119/119
f 104/104/104 197/197/197 200/200/200
f 116/116/116 200/200/200 187/187/187
f 116/116/116 119/119/119 200/200/200
f 191/191/191 200/200/200 201/201/201
f 191/191/191 187/187/187 200/200/200
f 198/198/198 200/200/200 197/197/197
f 198/198/198 201/201/201 200/200/200
f 146/146/146 202/202/202 145/145/145
f 146/146/146 203/203/203 202/202/202
f 142/142/142 202/202/202 204/204/204
f 142/142/142 145/145/145 202/202/202
f 205/205/205 202/202/202 206/206/206
f 205/205/205 204/204/204 202/202/202
f 207/207/207 202/202/202 203/203/203
f 207/207/207 206/206/206 202/202/202
f 142/142/142 208/208/208 141/141/141
f 142/142/142 204/204/204 208/208/208
f 140/140/140 208/208/208 209/209/209
f 140/140/140 141/141/141 208/208/208
f 210/210/210 208/208/208 211/211/211
f 210/210/210 209/209/209 208/208/208
f 205/205/205 208/208/208 204/204/204
f 205/205/205 211/211/211 208/208/208
f 140/140/140 212/212/212 150/150/150
f 140/140/140 209/209/209 212/212/212
f 149/149/149 212/212/212 213/213/213
f 149/149/149 150/150/150 212/212/212
f 214/214/214 212/212/212 215/215/215
f 214/214/214 213/213/213 212/212/212
f 210/210/210 212/212/212 209/209/209
f 210/210/210 215/215/215 212/212/212
f 149/149/149 216/216/216 153/153/153
f 149/149/149 213/213/213 216/216/216
f 146/146/146 216/216/216 203/203/203
f 146/146/146 153/153/153 216/216/216
f 207/207/207 216/216/216 217/217/217
f 207/207/207 203/203/203 216/216/216
f 214/214/214 216/216/216 213/213/213
f 214/214/214 217/217/217 216/216/216
f 91/91/91 218/218/218 98/98/98
f 91/91/91 219/219/219 218/218/218
f 96/96/96 218/218/218 220/220/220
f 96/96/96 98/98/98 218/218/218
f 221/221/221 218/218/218 222/222/222
f 221/221/221 220/220/220 218/218/218
f 223/223/223 218/218/218 219/219/219
f 223/223/223 222/222/222 218/218/218
f 96/96/96 224/224/224 95/95/95
f 96/96/96 220/220/220 224/224/224
f 87/87/87 224/224/224 225/225/225
f 87/87/87 95/95/95 224/224/224
f 226/226/226 224/224/224 227/227/227
f 226/226/226 225/225/225 224/224/224
f 221/221/221 224/224/224 220/220/220
f 221/221/221 227/227/227 224/224/224
f 87/87/87 228/228/228 86/86/86
f 87/87/87 225/225/225 228/228/228
f 85/85/85 228/228/228 229/229/229
f 85/85/85 86/86/86 228/228/228
f 230/230/230 228/228/228 231/231/231
f 230/230/230 229/229/229 228/228/228
f 226/226/226 228/228/228 225/225/225
f 226/226/226 231/231/231 228/228/228
f 85/85/85 232/232/232 92/92/92
f 85/85/85 229/229/229 232/232/232
f 91/91/91 232/232/232 219/219/219
f 91/91/91 92/92/92 232/232/232
f 223/223/223 232/232/232 233/233/233
f 223/223/223 219/219/219 232/232/232
f 230/230/230 232/232/232 229/229/229
f 230/230/230 233/233/233 232/232/232
f 159/159/159 234/234/234 158/158/158
f 159/159/159 235/235/235 234/234/234
f 157/157/157 234/234/234 236/236/236
f 157/157/157 158/158/158 234/234/234
f 237/237/237 234/234/234 235/235/235
f 237/237/237 236/236/236 234/234/234
f 157/157/157 238/238/238 163/163/163
f 157/157/157 236/236/236 238/238/238
f 162/162/162 238/238/238 239/239/239
f 162/162/162 163/163/163 238/238/238
f 237/237/237 238/238/238 236/236/236
f 237/237/237 239/239/239 238/238/238
f 162/162/162 240/240/240 167/167/167
f 162/162/162 239/239/239 240/240/240
f 166/166/166 240/240/240 241/241/241
f 166/166/166 167/167/167 240/240/240
f 237/237/237 240/240/240 239/239/239
f 237/237/237 241/241/241 240/240/240
f 166/166/166 242/242/242 169/169/169
f 166/166/166 241/241/241 242/242/242
f 159/159/159 242/242/242 235/235/235
f 159/159/159 169/169/169 242/242/242
f 237/237/237 242/242/242 241/241/241
f 237/237/237 235/235/235 242/242/242
f 175/175/175 243/243/243 174/174/174
f 175/175/175 244/244/244 243/243/243
f 173/173/173 243/243/243 245/245/245
f 173/173/173 174/174/174 243/243/243
f 246/246/246 243/243/243 244/244/244
f 246/246/246 245/245/245 243/243/243
f 173/173/173 247/247/247 179/179/179
f 173/173/173 245/245/245 247/247/247
f 178/178/178 247/247/247 248/248/248
f 178/178/178 179/179/179 247/247/247
f 246/246/246 247/247/247 245/245/245
f 246/246/246 248/248/248 247/247/247
f 178/178/178 249/249/249 183/183/183
f 178/178/178 248/248/248 249/249/249
f 182/182/182 249/249/249 250/250/250
f 182/182/182 183/183/183 249/249/249
f 246/246/246 249/249/249 248/248/248
f 246/246/246 250/250/250 249/249/249
f 182/182/182 251/251/251 185/185/185
f 182/182/182 250/250/250 251/251/251
f 175/175/175 251/251/251 244/244/244
f 175/175/175 185/185/185 251/251/251
f 246/246/246 251/251/251 250/250/250
f 246/246/246 244/244/244 251/251/251
f 191/191/191 252/252/252 190/190/190
f 191/191/191 253/253/253 252/252/252
f 189/189/189 252/252/252 254/254/254
f 189/189/189 190/190/190 252/252/252
f 255/255/255 252/252/252 253/253/253
f 255/255/255 254/254/254 252/252/252
f 189/189/189 256/256/256 195/195/195
f 189/189/189 254/254/254 256/256/256
f 194/194/194 256/256/256 257/257/257
f 194/194/194 195/195/195 256/256/256
f 255/255/255 256/256/256 254/254/254
f 255/255/255 257/257/257 256/256/256
f 194/194/194 258/258/258 199/199/199
f 194/194/194 257/257/257 258/258/258
f 198/198/198 258/258/258 259/259/259
f 198/198/198 199/199/199 258/258/258
f 255/255/255 258/258/258 257/257/257
f 255/255/255 259/259/259 258/258/258
f 198/198/198 260/260/260 201/201/201
f 198/198/198 259/259/259 260/260/260
f 191/191/191 260/260/260 253/253/253
f 191/191/191 201/201/201 260/260/260
f 255/255/255 260/260/260 259/259/259
f 255/255/255 253/253/253 260/260/260
f 207/207/207 261/261/261 206/206/206
f 207/207/207 262/262/262 261/261/261
f 205/205/205 261/261/261 263/263/263
f 205/205/205 206/206/206 261/261/261
f 264/264/264 261/261/261 262/262/262
f 264/264/264 263/263/263 261/261/261
f 205/205/205 265/265/265 211/211/211
f 205/205/205 263/263/263 265/265/265
f 210/210/210 265/265/265 266/266/266
f 210/210/210 211/211/211 265/265/265
f 264/264/264 265/265/265 263/263/263
f 264/264/264 266/266/266 265/265/265
f 210/210/210 267/267/267 215/215/215
f 210/210/210 266/266/266 267/267/267
f 214/214/214 267/267/267 268/268/268
f 214/214/214 215/215/215 267/267/267
f 264/264/264 267/267/267 266/266/266
f 264/264/264 268/268/268 267/267/267
f 214/214/214 269/269/269 217/217/217
f 214/214/214 268/268/268 269/269/269
f 207/207/207 269/269/269 262/262/262
f 207/207/207 217/217/217 269/269/269
f 264/264/264 269/269/269 268/268/268
f 264/264/264 262/262/262 269/269/269
f 223/223/223 270/270/270 222/222/222
f 223/223/223 271/271/271 270/270/270
f 221/221/221 270/270/270 272/272/272
f 221/221/221 222/222/222 270/270/270
f 273/273/273 270/270/270 271/271/271
f 273/273/273 272/272/272 270/270/270
f 221/221/221 274/274/274 227/227/227
f 221/221/221 272/272/272 274/274/274
f 226/226/226 274/274/274 275/275/275
f 226/226/226 227/227/227 274/274/274
f 273/273/273 274/274/274 272/272/272
f 273/273/273 275/275/275 274/274/274
f 226/226/226 276/276/276 231/231/231
f 226/226/226 275/275/275 276/276/276
f 230/230/230 276/276/276 277/277/277
f 230/230/230 231/231/231 276/276/276
f 273/273/273 276/276/276 275/275/275
f 273/273/273 277/277/277 276/276/276
f 230/230/230 278/278/278 233/233/233
f 230/230/230 277/277/277 278/278/278
f 223/223/223 278/278/278 271/271/271
f 223/223/223 233/233/233 278/278/278
f 273/273/273 278/278/278 277/277/277
f 273/273/273 271/271/271 278/278/278
f 1/1/1 280/280/280 279/279/279
f 1/1/1 279/279/279 4/4/4
f 281/281/281 282/282/282 279/279/279
f 281/281/281 279/279/279 280/280/280
f 283/283/283 284/284/284 279/279/279
f 283/283/283 279/279/279 282/282/282
f 9/9/9 4/4/4 279/279/279
f 9/9/9 279/279/279 284/284/284
f 281/281/281 286/286/286 285/285/285
f 281/281/281 285/285/285 282/282/282
f 287/287/287 288/288/288 285/285/285
f 287/287/287 285/285/285 286/286/286
f 289/289/289 290/290/290 285/285/285
f 289/289/289 285/285/285 288/288/288
f 283/283/283 282/282/282 285/285/285
f 283/283/283 285/285/285 290/290/290
f 9/9/9 284/284/284 291/291/291
f 9/9/9 291/291/291 17/17/17
f 283/283/283 292/292/292 291/291/291
f 283/283/283 291/291/291 284/284/284
f 293/293/293 294/294/294 291/291/291
f 293/293/293 291/291/291 292/292/292
f 21/21/21 17/17/17 291/291/291
f 21/21/21 291/291/291 294/294/294
f 283/283/283 290/290/290 295/295/295
f 283/283/283 295/295/295 292/292/292
f 289/289/289 296/296/296 295/295/295
f 289/289/289 295/295/295 290/290/290
f 297/297/297 298/298/298 295/295/295
f 297/297/297 295/295/295 296/296/296
f 293/293/293 292/292/292 295/295/295
f 293/293/293 295/295/295 298/298/298
f 21/21/21 294/294/294 299/299/299
f 21/21/21 299/299/299 27/27/27
f 293/293/293 300/300/300 299/299/299
f 293/293/293 299/299/299 294/294/294
f 301/301/301 302/302/302 299/299/299
f 301/301/301 299/299/299 300/300/300
f 31/31/31 27/27/27 299/299/299
f 31/31/31 299/299/299 302/302/302
f 293/293/293 298/298/298 303/303/303
f 293/293/293 303/303/303 300/300/300
f 297/297/297 304/304/304 303/303/303
f 297/297/297 303/303/303 298/298/298
f 305/305/305 306/306/306 303/303/303
f 305/305/305 303/303/303 304/304/304
f 301/301/301 300/300/300 303/303/303
f 301/301/301 303/303/303 306/306/306
f 31/31/31 302/302/302 307/307/307
f 31/31/31 307/307/307 37/37/37
f 301/301/301 308/308/308 307/307/307
f 301/301/301 307/307/307 302/302/302
f 309/309/309 310/310/310 307/307/307
f 309/309/309 307/307/307 308/308/308
f 41/41/41 37/37/37 307/307/307
f 41/41/41 307/307/307 310/310/310
f 301/301/301 306/306/306 311/311/311
f 301/301/301 311/311/311 308/308/308
f 305/305/305 312/312/312 311/311/311
f 305/305/305 311/311/311 306/306/306
f 313/313/313 314/314/314 311/311/311
f 313/313/313 311/311/311 312/312/312
f 309/309/309 308/308/308 311/311/311
f 309/309/309 311/311/311 314/314/314
f 41/41/41 310/310/310 315/315/315
f 41/41/41 315/315/315 47/47/47
f 309/309/309 316/316/316 315/315/315
f 309/309/309 315/315/315 310/310/310
f 317/317/317 50/50/50 315/315/315
f 317/317/317 315/315/315 316/316/316
f 51/51/51 47/47/47 315/315/315
f 51/51/51 315/315/315 50/50/50
f 309/309/309 314/314/314 318/318/318
f 309/309/309 318/318/318 316/316/316
f 313/313/313 319/319/319 318/318/318
f 313/313/313 318/318/318 314/314/314
f 320/320/320 321/321/321 318/318/318
f 320/320/320 318/318/318 319/319/319
f 317/317/317 316/316/316 318/318/318
f 317/317/317 318/318/318 321/321/321
f 320/320/320 322/322/322 57/57/57
f 320/320/320 57/57/57 321/321/321
f 322/322/322 58/58/58 57/57/57
f 317/317/317 321/321/321 57/57/57
f 317/317/317 57/57/57 50/50/50
f 287/287/287 324/324/324 323/323/323
f 287/287/287 323/323/323 325/325/325
f 62/62/62 326/326/326 323/323/323
f 62/62/62 323/323/323 324/324/324
f 327/327/327 328/328/328 323/323/323
f 327/327/327 323/323/323 326/326/326
f 329/329/329 325/325/325 323/323/323
f 329/329/329 323/323/323 328/328/328
f 62/62/62 67/67/67 330/330/330
f 62/62/62 330/330/330 326/326/326
f 69/69/69 331/331/331 330/330/330
f 69/69/69 330/330/330 67/67/67
f 332/332/332 333/333/333 330/330/330
f 332/332/332 330/330/330 331/331/331
f 327/327/327 326/326/326 330/330/330
f 327/327/327 330/330/330 333/333/333
f 289/289/289 288/288/288 334/334/334
f 289/289/289 334/334/334 335/335/335
f 287/287/287 325/325/325 334/334/334
f 287/287/287 334/334/334 288/288/288
f 329/329/329 336/336/336 334/334/334
f 329/329/329 334/334/334 325/325/325
f 337/337/337 335/335/335 334/334/334
f 337/337/337 334/334/334 336/336/336
f 69/69/69 339/339/339 338/338/338
f 69/69/69 338/338/338 331/331/331
f 289/289/289 335/335/335 338/338/338
f 289/289/289 338/338/338 339/339/339
f 337/337/337 340/340/340 338/338/338
f 337/337/337 338/338/338 335/335/335
f 332/332/332 331/331/331 338/338/338
f 332/332/332 338/338/338 340/340/340
f 313/313/313 342/342/342 341/341/341
f 313/313/313 341/341/341 343/343/343
f 83/83/83 344/344/344 341/341/341
f 83/83/83 341/341/341 342/342/342
f 345/345/345 346/346/346 341/341/341
f 345/345/345 341/341/341 344/344/344
f 347/347/347 343/343/343 341/341/341
f 347/347/347 341/341/341 346/346/346
f 83/83/83 88/88/88 348/348/348
f 83/83/83 348/348/348 344/344/344
f 58/58/58 349/349/349 348/348/348
f 58/58/58 348/348/348 88/88/88
f 350/350/350 351/351/351 348/348/348
f 350/350/350 348/348/348 349/349/349
f 345/345/345 344/344/344 348/348/348
f 345/345/345 348/348/348 351/351/351
f 320/320/320 319/319/319 352/352/352
f 320/320/320 352/352/352 353/353/353
f 313/313/313 343/343/343 352/352/352
f 313/313/313 352/352/352 319/319/319
f 347/347/347 354/354/354 352/352/352
f 347/347/347 352/352/352 343/343/343
f 355/355/355 353/353/353 352/352/352
f 355/355/355 352/352/352 354/354/354
f 58/58/58 322/322/322 356/356/356
f 58/58/58 356/356/356 349/349/349
f 320/320/320 353/353/353 356/356/356
f 320/320/320 356/356/356 322/322/322
f 355/355/355 357/357/357 356/356/356
f 355/355/355 356/356/356 353/353/353
f 350/350/350 349/349/349 356/356/356
f 350/350/350 356/356/356 357/357/357
f 297/297/297 359/359/359 358/358/358
f 297/297/297 358/358/358 360/360/360
f 102/102/102 361/361/361 358/358/358
f 102/102/102 358/358/358 359/359/359
f 362/362/362 363/363/363 358/358/358
f 362/362/362 358/358/358 361/361/361
f 364/364/364 360/360/360 358/358/358
f 364/364/364 358/358/358 363/363/363
f 305/305/305 304/304/304 365/365/365
f 305/305/305 365/365/365 366/366/366
f 297/297/297 360/360/360 365/365/365
f 297/297/297 365/365/365 304/304/304
f 364/364/364 367/367/367 365/365/365
f 364/364/364 365/365/365 360/360/360
f 368/368/368 366/366/366 365/365/365
f 368/368/368 365/365/365 367/367/367
f 111/111/111 370/370/370 369/369/369
f 111/111/111 369/369/369 371/371/371
f 305/305/305 366/366/366 369/369/369
f 305/305/305 369/369/369 370/370/370
f 368/368/368 372/372/372 369/369/369
f 368/368/368 369/369/369 366/366/366
f 373/373/373 371/371/371 369/369/369
f 373/373/373 369/369/369 372/372/372
f 102/102/102 117/117/117 374/374/374
f 102/102/102 374/374/374 361/361/361
f 111/111/111 371/371/371 374/374/374
f 111/111/111 374/374/374 117/117/117
f 373/373/373 375/375/375 374/374/374
f 373/373/373 374/374/374 371/371/371
f 362/362/362 361/361/361 374/374/374
f 362/362/362 374/374/374 375/375/375
f 69/69/69 120/120/120 376/376/376
f 69/69/69 376/376/376 377/377/377
f 102/102/102 378/378/378 376/376/376
f 102/102/102 376/376/376 120/120/120
f 379/379/379 380/380/380 376/376/376
f 379/379/379 376/376/376 378/378/378
f 381/381/381 377/377/377 376/376/376
f 381/381/381 376/376/376 380/380/380
f 297/297/297 296/296/296 382/382/382
f 297/297/297 382/382/382 383/383/383
f 289/289/289 384/384/384 382/382/382
f 289/289/289 382/382/382 296/296/296
f 385/385/385 386/386/386 382/382/382
f 385/385/385 382/382/382 384/384/384
f 387/387/387 383/383/383 382/382/382
f 387/387/387 382/382/382 386/386/386
f 102/102/102 359/359/359 388/388/388
f 102/102/102 388/388/388 378/378/378
f 297/297/297 383/383/383 388/388/388
f 297/297/297 388/388/388 359/359/359
f 387/387/387 389/389/389 388/388/388
f 387/387/387 388/388/388 383/383/383
f 379/379/379 378/378/378 388/388/388
f 379/379/379 388/388/388 389/389/389
f 289/289/289 339/339/339 390/390/390
f 289/289/289 390/390/390 384/384/384
f 69/69/69 377/377/377 390/390/390
f 69/69/69 390/390/390 339/339/339
f 381/381/381 391/391/391 390/390/390
f 381/381/381 390/390/390 377/377/377
f 385/385/385 384/384/384 390/390/390
f 385/385/385 390/390/390 391/391/391
f 313/313/313 312/312/312 392/392/392
f 313/313/313 392/392/392 393/393/393
f 305/305/305 394/394/394 392/392/392
f 305/305/305 392/392/392 312/312/312
f 395/395/395 396/396/396 392/392/392
f 395/395/395 392/392/392 394/394/394
f 397/397/397 393/393/393 392/392/392
f 397/397/397 392/392/392 396/396/396
f 83/83/83 342/342/342 398/398/398
f 83/83/83 398/398/398 399/399/399
f 313/313/313 393/393/393 398/398/398
f 313/313/313 398/398/398 342/342/342
f 397/397/397 400/400/400 398/398/398
f 397/397/397 398/398/398 393/393/393
f 401/401/401 399/399/399 398/398/398
f 401/401/401 398/398/398 400/400/400
f 305/305/305 370/370/370 402/402/402
f 305/305/305 402/402/402 394/394/394
f 111/111/111 403/403/403 402/402/402
f 111/111/111 402/402/402 370/370/370
f 404/404/404 405/405/405 402/402/402
f 404/404/404 402/402/402 403/403/403
f 395/395/395 394/394/394 402/402/402
f 395/395/395 402/402/402 405/405/405
f 111/111/111 151/151/151 406/406/406
f 111/111/111 406/406/406 403/403/403
f 83/83/83 399/399/399 406/406/406
f 83/83/83 406/406/406 151/151/151
f 401/401/401 407/407/407 406/406/406
f 401/401/401 406/406/406 399/399/399
f 404/404/404 403/403/403 406/406/406
f 404/404/404 406/406/406 407/407/407
f 332/332/332 340/340/340 408/408/408
f 332/332/332 408/408/408 409/409/409
f 337/337/337 410/410/410 408/408/408
f 337/337/337 408/408/408 340/340/340
f 411/411/411 412/412/412 408/408/408
f 411/411/411 408/408/408 410/410/410
f 413/413/413 409/409/409 408/408/408
f 413/413/413 408/408/408 412/412/412
f 337/337/337 336/336/336 414/414/414
f 337/337/337 414/414/414 410/410/410
f 329/329/329 415/415/415 414/414/414
f 329/329/329 414/414/414 336/336/336
f 416/416/416 417/417/417 414/414/414
f 416/416/416 414/414/414 415/415/415
f 411/411/411 410/410/410 414/414/414
f 411/411/411 414/414/414 417/417/417
f 329/329/329 328/328/328 418/418/418
f 329/329/329 418/418/418 415/415/415
f 327/327/327 419/419/419 418/418/418
f 327/327/327 418/418/418 328/328/328
f 420/420/420 421/421/421 418/418/418
f 420/420/420 418/418/418 419/419/419
f 416/416/416 415/415/415 418/418/418
f 416/416/416 418/418/418 421/421/421
f 327/327/327 333/333/333 422/422/422
f 327/327/327 422/422/422 419/419/419
f 332/332/332 409/409/409 422/422/422
f 332/332/332 422/422/422 333/333/333
f 413/413/413 423/423/423 422/422/422
f 413/413/413 422/422/422 409/409/409
f 420/420/420 419/419/419 422/422/422
f 420/420/420 422/422/422 423/423/423
f 379/379/379 389/389/389 424/424/424
f 379/379/379 424/424/424 425/425/425
f 387/387/387 426/426/426 424/424/424
f 387/387/387 424/424/424 389/389/389
f 427/427/427 428/428/428 424/424/424
f 427/427/427 424/424/424 426/426/426
f 429/429/429 425/425/425 424/424/424
f 429/429/429 424/424/424 428/428/428
f 387/387/387 386/386/386 430/430/430
f 387/387/387 430/430/430 426/426/426
f 385/385/385 431/431/431 430/430/430
f 385/385/385 430/430/430 386/386/386
f 432/432/432 433/433/433 430/430/430
f 432/432/432 430/430/430 431/431/431
f 427/427/427 426/426/426 430/430/430
f 427/427/427 430/430/430 433/433/433
f 385/385/385 391/391/391 434/434/434
f 385/385/385 434/434/434 431/431/431
f 381/381/381 435/435/435 434/434/434
f 381/381/381 434/434/434 391/391/391
f 436/436/436 437/437/437 434/434/434
f 436/436/436 434/434/434 435/435/435
f 432/432/432 431/431/431 434/434/434
f 432/432/432 434/434/434 437/437/437
f 381/381/381 380/380/380 438/438/438
f 381/381/381 438/438/438 435/435/435
f 379/379/379 425/425/425 438/438/438
f 379/379/379 438/438/438 380/380/380
f 429/429/429 439/439/439 438/438/438
f 429/429/429 438/438/438 425/425/425
f 436/436/436 435/435/435 438/438/438
f 436/436/436 438/438/438 439/439/439
f 373/373/373 372/372/372 440/440/440
f 373/373/373 440/440/440 441/441/441
f 368/368/368 442/442/442 440/440/440
f 368/368/368 440/440/440 372/372/372
f 443/443/443 444/444/444 440/440/440
f 443/443/443 440/440/440 442/442/442
f 445/445/445 441/441/441 440/440/440
f 445/445/445 440/440/440 444/444/444
f 368/368/368 367/367/367 446/446/446
f 368/368/368 446/446/446 442/442/442
f 364/364/364 447/447/447 446/446/446
f 364/364/364 446/446/446 367/367/367
f 448/448/448 449/449/449 446/446/446
f 448/448/448 446/446/446 447/447/447
f 443/443/443 442/442/442 446/446/446
f 443/443/443 446/446/446 449/449/449
f 364/364/364 363/363/363 450/450/450
f 364/364/364 450/450/450 447/447/447
f 362/362/362 451/451/451 450/450/450
f 362/362/362 450/450/450 363/363/363
f 452/452/452 453/453/453 450/450/450
f 452/452/452 450/450/450 451/451/451
f 448/448/448 447/447/447 450/450/450
f 448/448/448 450/450/450 453/453/453
f 362/362/362 375/375/375 454/454/454
f 362/362/362 454/454/454 451/451/451
f 373/373/373 441/441/441 454/454/454
f 373/373/373 454/454/454 375/375/375
f 445/445/445 455/455/455 454/454/454
f 445/445/445 454/454/454 441/441/441
f 452/452/452 451/451/451 454/454/454
f 452/452/452 454/454/454 455/455/455
f 401/401/401 400/400/400 456/456/456
f 401/401/401 456/456/456 457/457/457
f 397/397/397 458/458/458 456/456/456
f 397/397/397 456/456/456 400/400/400
f 459/459/459 460/460/460 456/456/456
f 459/459/459 456/456/456 458/458/458
f 461/461/461 457/457/457 456/456/456
f 461/461/461 456/456/456 460/460/460
f 397/397/397 396/396/396 462/462/462
f 397/397/397 462/462/462 458/458/458
f 395/395/395 463/463/463 462/462/462
f 395/395/395 462/462/462 396/396/396
f 464/464/464 465/465/465 462/462/462
f 464/464/464 462/462/462 463/463/463
f 459/459/459 458/458/458 462/462/462
f 459/459/459 462/462/462 465/465/465
f 395/395/395 405/405/405 466/466/466
f 395/395/395 466/466/466 463/463/463
f 404/404/404 467/467/467 466/466/466
f 404/404/404 466/466/466 405/405/405
f 468/468/468 469/469/469 466/466/466
f 468/468/468 466/466/466 467/467/467
f 464/464/464 463/463/463 466/466/466
f 464/464/464 466/466/466 469/469/469
f 404/404/404 407/407/407 470/470/470
f 404/404/404 470/470/470 467/467/467
f 401/401/401 457/457/457 470/470/470
f 401/401/401 470/470/470 407/407/407
f 461/461/461 471/471/471 470/470/470
f 461/461/461 470/470/470 457/457/457
f 468/468/468 467/467/467 470/470/470
f 468/468/468 470/470/470 471/471/471
f 350/350/350 357/357/357 472/472/472
f 350/350/350 472/472/472 473/473/473
f 355/355/355 474/474/474 472/472/472
f 355/355/355 472/472/472 357/357/357
f 475/475/475 476/476/476 472/472/472
f 475/475/475 472/472/472 474/474/474
f 477/477/477 473/473/473 472/472/472
f 477/477/477 472/472/472 476/476/476
f 355/355/355 354/354/354 478/478/478
f 355/355/355 478/478/478 474/474/474
f 347/347/347 479/479/479 478/478/478
f 347/347/347 478/478/478 354/354/354
f 480/480/480 481/481/481 478/478/478
f 480/480/480 478/478/478 479/479/479
f 475/475/475 474/474/474 478/478/478
f 475/475/475 478/478/478 481/481/481
f 347/347/347 346/346/346 482/482/482
f 347/347/347 482/482/482 479/479/479
f 345/345/345 483/483/483 482/482/482
f 345/345/345 482/482/482 346/346/346
f 484/484/484 485/485/485 482/482/482
f 484/484/484 482/482/482 483/483/483
f 480/480/480 479/479/479 482/482/482
f 480/480/480 482/482/482 485/485/485
f 345/345/345 351/351/351 486/486/486
f 345/345/345 486/486/486 483/483/483
f 350/350/350 473/473/473 486/486/486
f 350/350/350 486/486/486 351/351/351
f 477/477/477 487/487/487 486/486/486
f 477/477/477 486/486/486 473/473/473
f 484/484/484 483/483/483 486/486/486
f 484/484/484 486/486/486 487/487/487
f 413/413/413 412/412/412 488/488/488
f 413/413/413 488/488/488 489/489/489
f 411/411/411 490/490/490 488/488/488
f 411/411/411 488/488/488 412/412/412
f 491/491/491 489/489/489 488/488/488
f 491/491/491 488/488/488 490/490/490
f 411/411/411 417/417/417 492/492/492
f 411/411/411 492/492/492 490/490/490
f 416/416/416 493/493/493 492/492/492
f 416/416/416 492/492/492 417/417/417
f 491/491/491 490/490/490 492/492/492
f 491/491/491 492/492/492 493/493/493
f 416/416/416 421/421/421 494/494/494
f 416/416/416 494/494/494 493/493/493
f 420/420/420 495/495/495 494/494/494
f 420/420/420 494/494/494 421/421/421
f 491/491/491 493/493/493 494/494/494
f 491/491/491 494/494/494 495/495/495
f 420/420/420 423/423/423 496/496/496
f 420/420/420 496/496/496 495/495/495
f 413/413/413 489/489/489 496/496/496
f 413/413/413 496/496/496 423/423/423
f 491/491/491 495/495/495 496/496/496
f 491/491/491 496/496/496 489/489/489
f 429/429/429 428/428/428 497/497/497
f 429/429/429 497/497/497 498/498/498
f 427/427/427 499/499/499 497/497/497
f 427/427/427 497/497/497 428/428/428
f 500/500/500 498/498/498 497/497/497
f 500/500/500 497/497/497 499/499/499
f 427/427/427 433/433/433 501/501/501
f 427/427/427 501/501/501 499/499/499
f 432/432/432 502/502/502 501/501/501
f 432/432/432 501/501/501 433/433/433
f 500/500/500 499/499/499 501/501/501
f 500/500/500 501/501/501 502/502/502
f 432/432/432 437/437/437 503/503/503
f 432/432/432 503/503/503 502/502/502
f 436/436/436 504/504/504 503/503/503
f 436/436/436 503/503/503 437/437/437
f 500/500/500 502/502/502 503/503/503
f 500/500/500 503/503/503 504/504/504
f 436/436/436 439/439/439 505/505/505
f 436/436/436 505/505/505 504/504/504
f 429/429/429 498/498/498 505/505/505
f 429/429/429 505/505/505 439/439/439
f 500/500/500 504/504/504 505/505/505
f 500/500/500 505/505/505 498/498/498
f 445/445/445 444/444/444 506/506/506
f 445/445/445 506/506/506 507/507/507
f 443/443/443 508/508/508 506/506/506
f 443/443/443 506/506/506 444/444/444
f 509/509/509 507/507/507 506/506/506
f 509/509/509 506/506/506 508/508/508
f 443/443/443 449/449/449 510/510/510
f 443/443/443 510/510/510 508/508/508
f 448/448/448 511/511/511 510/510/510
f 448/448/448 510/510/510 449/449/449
f 509/509/509 508/508/508 510/510/510
f 509/509/509 510/510/510 511/511/511
f 448/448/448 453/453/453 512/512/512
f 448/448/448 512/512/512 511/511/511
f 452/452/452 513/513/513 512/512/512
f 452/452/452 512/512/512 453/453/453
f 509/509/509 511/511/511 512/512/512
f 509/509/509 512/512/512 513/513/513
f 452/452/452 455/455/455 514/514/514
f 452/452/452 514/514/514 513/513/513
f 445/445/445 507/507/507 514/514/514
f 445/445/445 514/514/514 455/455/455
f 509/509/509 513/513/513 514/514/514
f 509/509/509 514/514/514 507/507/507
f 461/461/461 460/460/460 515/515/515
f 461/461/461 515/515/515 516/516/516
f 459/459/459 517/517/517 515/515/515
f 459/459/459 515/515/515 460/460/460
f 518/518/518 516/516/516 515/515/515
f 518/518/518 515/515/515 517/517/517
f 459/459/459 465/465/465 519/519/519
f 459/459/459 519/519/519 517/517/517
f 464/464/464 520/520/520 519/519/519
f 464/464/464 519/519/519 465/465/465
f 518/518/518 517/517/517 519/519/519
f 518/518/518 519/519/519 520/520/520
f 464/464/464 469/469/469 521/521/521
f 464/464/464 521/521/521 520/520/520
f 468/468/468 522/522/522 521/521/521
f 468/468/468 521/521/521 469/469/469
f 518/518/518 520/520/520 521/521/521
f 518/518/518 521/521/521 522/522/522
f 468/468/468 471/471/471 523/523/523
f 468/468/468 523/523/523 522/522/522
f 461/461/461 516/516/516 523/523/523
f 461/461/461 523/523/523 471/471/471
f 518/518/518 522/522/522 523/523/523
f 518/518/518 523/523/523 516/516/516
f 477/477/477 476/476/476 524/524/524
f 477/477/477 524/524/524 525/525/525
f 475/475/475 526/526/526 524/524/524
f 475/475/475 524/524/524 476/476/476
f 527/527/527 525/525/525 524/524/524
f 527/527/527 524/524/524 526/526/526
f 475/475/475 481/481/481 528/528/528
f 475/475/475 528/528/528 526/526/526
f 480/480/480 529/529/529 528/528/528
f 480/480/480 528/528/528 481/481/481
f 527/527/527 526/526/526 528/528/528
f 527/527/527 528/528/528 529/529/529
f 480/480/480 485/485/485 530/530/530
f 480/480/480 530/530/530 529/529/529
f 484/484/484 531/531/531 530/530/530
f 484/484/484 530/530/530 485/485/485
f 527/527/527 529/529/529 530/530/530
f 527/527/527 530/530/530 531/531/531
f 484/484/484 487/487/487 532/532/532
f 484/484/484 532/532/532 531/531/531
f 477/477/477 525/525/525 532/532/532
f 477/477/477 532/532/532 487/487/487
f 527/527/527 531/531/531 532/532/532
f 527/527/527 532/532/532 525/525/525
