# Object29.bmd — MU geometry at action 0 key 0, exported for MU2
# 3 mesh(es)

g ng01
# texture: ng01.jpg
v 19.23249 145.7905 39.2534
v -0.224916 148.0065 44.313
v 17.53569 138.6902 33.90051
v -0.224919 158.4642 43.561
v 17.47239 162.905 31.7326
v 19.20169 156.7805 32.57291
v -0.224917 166.8454 36.7196
v 18.96129 134.9713 25.2234
v 21.5585 141.4067 23.01471
v 27.86209 153.1266 11.9756
v 15.8781 139.2879 7.1022
v 19.8609 156.6222 2.159698
v -0.224904 147.2926 1.109493
v -0.224905 132.2849 8.871797
v 9.582295 164.5622 3.455593
v -0.224907 164.1692 0.553192
v -0.224914 144.7776 38.2076
v 10.83919 125.6118 37.16101
v 16.7179 124.953 27.06021
v 9.275198 127.4686 14.3721
v -0.224903 123.5642 12.8781
v 27.62719 151.5033 23.49341
v 13.67639 169.5274 13.363
v 12.67799 172.5081 28.8612
v 27.64289 164.2516 28.4915
v 27.55499 165.9064 7.708099
v 20.91559 167.4547 4.529597
v 26.55679 172.6769 19.0756
v 13.2548 118.5611 31.28731
v 18.2349 117.8784 22.8842
v -0.224909 122.1455 39.9358
v -0.224906 105.6648 37.27901
v 13.561 122.8714 10.2413
v -0.2249 119.2532 5.590497
v 12.25239 174.22 10.8512
v -0.224907 173.8404 5.757991
v 12.67799 172.5081 28.8612
v -0.224913 165.1013 24.4195
v -0.224917 166.8454 36.7196
v 10.9671 107.3658 31.39081
v 23.036 110.2641 21.05141
v 18.3224 108.7259 3.3643
v -0.224896 106.939 -0.253902
v -0.224901 94.632 23.3818
v 6.720897 97.4047 31.99061
v -0.224905 97.0432 37.62941
v 13.65489 103.235 39.63721
v 25.5286 105.4658 22.07961
v -0.224899 95.7022 17.3888
v -0.224896 102.4278 2.335495
v 9.797606 98.0982 1.443299
v 8.152395 87.13379 17.4827
v 5.040989 90.6712 38.25361
v 27.1254 87.452 24.92871
v 9.468481 68.07769 44.09571
v 15.45158 80.4469 47.04871
v 27.16709 71.12959 43.35242
v 20.67449 70.18599 33.24931
v 17.909 85.4561 14.6231
v 19.17637 56.86639 54.10932
v 9.468481 68.07769 44.09571
v 7.943375 51.59539 39.40481
v 30.48618 56.36289 45.13322
v 27.16709 71.12959 43.35242
v 20.24548 65.65509 35.64921
v 21.13198 56.84689 27.16641
v 29.36118 56.65429 37.48471
v 13.46147 37.09758 39.77781
v 19.86227 28.02818 48.75892
v 27.13218 38.94239 38.80611
v 21.03957 36.40289 32.33771
v 14.13066 13.14278 44.34332
v 21.19907 27.43298 54.66942
v 28.03267 16.10318 42.10792
v 19.86227 28.02818 48.75892
v 21.19907 27.43298 54.66942
v 20.31627 14.88508 36.51302
v 20.95447 24.79818 33.57361
v 20.77147 19.04328 27.30881
v 28.03267 16.10318 42.10792
v 23.23956 15.23458 52.73562
v 27.45376 1.291776 75.65514
v 20.86077 0.892974 32.02681
v 14.58786 1.097273 47.03552
v 31.80087 1.042576 43.47242
v 17.82817 66.79569 63.54872
v 17.66508 83.0445 66.75672
v 17.66508 83.0445 66.75672
v 15.45158 80.4469 47.04871
v 9.468481 68.07769 44.09571
v 27.16709 71.12959 43.35242
v 20.67449 70.18599 33.24931
v 14.58786 1.097273 47.03552
v 20.86077 0.892974 32.02681
v 31.80087 1.042576 43.47242
v 27.45376 1.291776 75.65514
v -0.224907 173.8404 5.757991
v 12.25239 174.22 10.8512
v 39.67839 124.6719 28.39291
v 35.92159 121.7455 22.34941
v 41.6151 120.0068 20.01321
v 31.25769 129.764 27.2553
v 37.22959 132.5717 31.3234
v 43.61179 133.8127 27.10151
v 40.09019 142.6005 16.66021
v 39.67989 144.1671 24.95011
v 44.02209 132.2461 18.81161
v 34.11819 139.7927 12.5921
v 38.0502 129.4384 14.74351
v 27.73599 138.5517 16.814
v 31.66789 128.1973 18.9654
v 27.32569 140.1184 25.1039
v 33.29768 142.9261 29.172
v 36.12239 156.1297 12.35791
v 35.56439 158.2603 23.63221
v 30.33399 149.5831 7.456304
v 23.92699 146.598 13.5557
v 23.36899 148.7287 24.83
v 29.21799 153.8445 30.005
v 27.24879 166.6656 12.3027
v 27.24879 165.7969 22.2319
v 24.6818 163.8497 7.0538
v 20.25839 157.6417 11.5132
v 20.25829 156.773 21.4424
v 24.68169 162.1123 26.91211
v 45.21329 125.1202 22.19071
v 12.8042 164.5319 -5.571905
v 43.26649 179.4725 18.04361
v 40.3541 167.8021 -1.688799
v 17.40289 181.9865 18.2636
v 40.19119 162.4875 34.49941
v 12.64139 158.5927 37.75571
v 57.21059 173.2849 17.50231
v 17.57431 107.2484 -1.754902
v 33.6304 91.9757 25.89552
v 25.9594 84.383 22.56081
v 28.08341 116.2194 2.930705
v 33.27709 77.5659 39.34782
v 27.62011 124.2346 11.50421
v 23.48889 101.4215 41.76512
v 33.1671 99.9909 34.46902
v 14.96061 126.7636 20.09871
v 32.81379 85.5812 47.92132
v 40.19119 162.4875 34.49941
v 12.64139 158.5927 37.75571
v 22.59069 175.917 17.7326
v 12.8042 164.5319 -5.571905
v 40.3541 167.8021 -1.688799
v 57.21059 173.2849 17.50231
v 17.40289 181.9865 18.2636
v 27.62011 124.2346 11.50421
v 28.08341 116.2194 2.930705
v 25.96471 113.5486 13.63501
v 14.96061 126.7636 20.09871
v 23.48889 101.4215 41.76512
v 32.81379 85.5812 47.92132
v 33.27709 77.5659 39.34782
v 17.57431 107.2484 -1.754902
v 25.9594 84.383 22.56081
v 41.23807 95.04472 57.50782
v 42.33827 95.30222 58.97532
v 40.84497 99.16753 64.84582
v 39.21267 99.57263 63.85511
v 41.7361 119.9534 21.47741
v 46.9202 126.6165 23.53081
v 49.09569 121.6788 32.72601
v 44.35279 112.618 30.06651
v 35.46839 122.4117 23.80501
v 34.65139 116.8192 32.30681
v 41.67299 128.4745 26.06411
v 42.57399 126.2681 34.30411
v 35.65789 127.7569 26.70041
v 35.18169 126.0262 34.76341
v 48.79589 113.3854 45.33231
v 44.30069 108.6259 44.97261
v 40.30999 111.0169 47.75262
v 46.09608 117.7141 47.56471
v 40.00188 115.8239 48.84041
v 49.16688 110.0262 46.35122
v 47.43278 115.5421 51.69981
v 49.74268 105.5809 50.31572
v 47.83508 101.0551 52.74921
v 48.88558 111.2029 56.40252
v 46.28648 104.5708 56.61761
v 38.29178 109.7224 59.73972
v 37.65928 108.0896 59.27811
v 38.73997 107.5025 60.09742
v 39.37237 109.1353 60.55902
v 47.38818 100.3192 54.42181
v 46.57458 105.2512 60.51262
v 46.52358 107.0724 58.69041
v 38.73388 109.6376 53.61352
v 39.05478 112.7079 54.52391
v 41.42958 108.6692 55.36192
v 41.75038 111.7394 56.27242
v 49.8241 122.9807 17.91701
v 32.85739 130.8921 25.2122
v 43.89419 134.8391 25.12951
v 35.69699 117.9285 18.02301
v 49.8241 122.9807 17.91701
v 45.00379 131.8581 30.94301
v 50.9337 119.9997 23.73061
v 43.89419 134.8391 25.12951
v 33.96709 127.911 31.02581
v 32.85739 130.8921 25.2122
v 36.80659 114.9475 23.83651
v 35.69699 117.9285 18.02301
v 45.7571 112.0316 15.86681
v 41.974 122.2675 -0.481794
v 41.974 122.2675 -0.481794
v -19.68242 145.7905 39.2534
v -17.98561 138.6902 33.9005
v -17.92232 162.905 31.7326
v -19.65152 156.7805 32.57289
v -22.00841 141.4067 23.01469
v -19.41121 134.9713 25.2234
v -28.31201 153.1266 11.97559
v -20.31081 156.6222 2.159689
v -16.32801 139.2879 7.102192
v -10.03221 164.5622 3.455587
v -11.28911 125.6118 37.1609
v -17.16781 124.953 27.0602
v -9.725004 127.4686 14.3721
v -28.07701 151.5032 23.49339
v -14.12631 169.5274 13.36299
v -13.12791 172.5081 28.86119
v -28.09282 164.2516 28.49149
v -28.00481 165.9064 7.708086
v -21.36542 167.4547 4.529589
v -27.00672 172.6769 19.07559
v -13.70471 118.561 31.2873
v -18.68481 117.8783 22.8842
v -14.01081 122.8714 10.24129
v -12.70231 174.22 10.85119
v -13.12791 172.5081 28.86119
v -11.417 107.3658 31.3908
v -23.4859 110.2641 21.0514
v -18.7722 108.7258 3.364292
v -7.170805 97.4047 31.9906
v -18.83191 84.88159 29.76421
v -27.31261 99.93029 17.2803
v -10.2475 98.0982 1.443295
v -7.171501 89.9361 4.887795
v -8.57241 76.91679 21.68531
v -27.09961 85.7309 5.726192
v -19.07372 64.11259 17.6792
v -11.13251 57.91909 8.675601
v -28.51621 61.89378 6.414096
v -20.19841 67.57968 0.08089
v -15.9029 91.43559 -0.37491
v -22.06602 43.86768 10.471
v -8.242912 45.44769 -2.818305
v -11.13251 57.91909 8.675601
v -28.51621 61.89378 6.414096
v -31.59182 48.18758 0.504394
v -19.23781 56.46928 -13.25541
v -20.16201 60.26849 -1.634808
v -29.14622 51.93898 -5.804011
v -13.24262 32.74897 -10.20211
v -20.81402 20.89657 -7.736003
v -26.58261 35.55077 -12.53291
v -19.36172 35.98987 -18.28411
v -14.34802 11.65168 -16.3978
v -23.15102 17.69507 -3.113899
v -27.19782 14.61207 -22.15511
v -23.15102 17.69507 -3.113899
v -20.81402 20.89657 -7.736003
v -18.29622 13.39387 -25.56221
v -17.61921 22.96607 -30.69622
v -19.10032 25.15288 -22.60772
v -27.19782 14.61207 -22.15511
v -35.32134 -0.199331 10.39892
v -25.31862 13.74347 -10.6489
v -17.66112 -0.598135 -30.03641
v -15.48642 -0.393829 -13.9156
v -31.19073 -0.44854 -21.81241
v -23.70242 61.05428 33.91211
v -22.74302 48.18928 23.52391
v -23.70242 61.05428 33.91211
v -11.13251 57.91909 8.675601
v -19.07372 64.11259 17.6792
v -28.51621 61.89378 6.414096
v -20.19841 67.57968 0.08089
v -15.48642 -0.393829 -13.9156
v -31.19073 -0.44854 -21.81241
v -17.66112 -0.598135 -30.03641
v -35.32134 -0.199331 10.39892
v -12.70231 174.22 10.85119
v -44.86252 134.2806 -6.972325
v -38.85511 137.6117 -13.94002
v -37.36162 134.2854 -8.686223
v -37.67403 135.8127 1.924973
v -44.60873 139.0759 3.090472
v -46.37113 144.6383 -2.013529
v -41.29573 151.996 4.871676
v -36.12353 154.2951 -1.397923
v -41.19892 146.9374 -8.283129
v -29.18883 151.0318 -2.563419
v -34.26423 143.6742 -9.448725
v -27.42642 145.4695 2.540581
v -32.50183 138.1118 -4.344625
v -32.59863 143.1703 8.810178
v -39.53333 146.4336 9.975676
v -36.38193 161.9113 14.60988
v -29.34763 165.0381 6.083283
v -22.25142 159.2172 2.064684
v -21.85933 151.4929 7.293785
v -28.89353 148.3661 15.82048
v -36.31993 152.9636 19.11798
v -27.69862 165.7969 22.23189
v -27.69872 166.6656 12.30269
v -25.13172 163.8497 7.053789
v -20.70822 157.6417 11.51319
v -20.70822 156.773 21.44239
v -25.13162 162.1123 26.91209
v -43.84832 141.2012 -11.48682
v -13.25411 164.5319 -5.571909
v -40.80401 167.8021 -1.688818
v -43.71642 179.4726 18.04358
v -17.85282 181.9865 18.26359
v -40.64113 162.4875 34.49939
v -13.09132 158.5927 37.7557
v -57.66052 173.2849 17.50228
v -15.2402 118.1912 4.817191
v -25.11801 85.32669 2.21979
v -34.19511 88.44209 8.17889
v -27.51461 121.4045 12.02059
v -34.57611 68.79417 6.583791
v -29.73311 120.5139 23.5205
v -36.41371 87.55138 19.6788
v -28.57571 82.63319 27.63651
v -19.38351 115.2225 33.7873
v -36.79462 67.90358 18.0837
v -40.64113 162.4875 34.49939
v -23.04062 175.917 17.73259
v -13.09132 158.5927 37.7557
v -40.80401 167.8021 -1.688818
v -13.25411 164.5319 -5.571909
v -57.66052 173.2849 17.50228
v -17.85282 181.9865 18.26359
v -29.73311 120.5139 23.5205
v -27.15851 111.6241 17.536
v -27.51461 121.4045 12.02059
v -19.38351 115.2225 33.7873
v -28.57571 82.63319 27.63651
v -36.79462 67.90358 18.0837
v -34.57611 68.79417 6.583791
v -15.2402 118.1912 4.817191
v -25.11801 85.32669 2.21979
v -68.77512 101.23 -22.40174
v -71.20251 98.00082 -15.00724
v -70.34991 101.0954 -21.43604
v -69.26911 97.76982 -15.14394
v -40.00952 136.7462 -13.65752
v -53.40572 134.6966 -13.54963
v -46.24642 142.1591 -10.95743
v -46.48352 128.4454 -18.51653
v -38.30032 133.5601 -7.519723
v -42.90932 124.5848 -9.076925
v -51.43482 133.115 -5.823128
v -45.20762 139.014 -5.816125
v -47.04532 128.8733 -1.621326
v -41.71952 135.0898 -2.728224
v -60.81672 121.8581 -16.38523
v -56.68372 116.9054 -17.55943
v -56.73812 114.5775 -12.66563
v -61.69592 121.6929 -10.88883
v -58.38232 116.6338 -8.487833
v -64.65562 119.9547 -15.76303
v -64.51792 117.7132 -8.213432
v -67.88812 115.29 -17.66043
v -68.28522 110.4648 -20.23044
v -68.82752 112.9962 -9.707735
v -68.02763 108.4776 -15.16014
v -61.53052 104.5613 -8.629333
v -62.53252 103.5001 -10.39753
v -61.10182 103.8294 -10.22923
v -62.96122 104.2321 -8.797632
v -70.12002 109.3699 -19.73714
v -71.27631 107.0183 -12.30623
v -68.68512 108.2323 -11.97914
v -59.09322 109.2298 -11.79123
v -59.16972 110.1398 -8.705132
v -62.42502 108.8535 -11.93023
v -62.50142 109.7636 -8.844132
v -43.12941 144.9139 -16.94572
v -47.28212 144.5469 -2.439825
v -39.51162 136.4338 0.905778
v -33.18312 134.529 -12.66352
v -43.12941 144.9139 -16.94572
v -47.51772 140.143 -18.32273
v -51.67042 139.7761 -3.816727
v -47.28212 144.5469 -2.439825
v -43.89992 131.6629 -0.471325
v -39.51162 136.4338 0.905778
v -37.57141 129.7582 -14.04052
v -33.18312 134.529 -12.66352
v -36.68362 137.5071 -23.59542
v -24.32051 151.6919 -17.91182
v -24.32051 151.6919 -17.91182
v 8.776176 191.7282 30.5942
v 11.92948 184.3409 24.1319
v 9.044981 170.5207 30.1994
v 20.36608 210.6345 5.57159
v 22.82199 199.4202 0.328793
v 16.44139 192.0983 15.6414
v 10.95938 203.3052 25.2285
v 21.25058 226.4645 0.460291
v 8.776176 191.7282 30.5942
v 15.97898 197.8555 19.7276
v 10.95938 203.3052 25.2285
v 21.25058 226.4645 0.460291
v 22.82199 199.4202 0.328793
v 20.36608 210.6345 5.57159
v 9.044981 170.5207 30.1994
v 11.92948 184.3409 24.1319
v 16.44139 192.0983 15.6414
v 7.004778 183.5042 32.5272
v 3.632476 181.9268 38.2388
v 7.22518 173.2716 32.4201
v 2.66338 167.1765 36.5171
v -0.145627 184.4727 41.197
v 7.004777 187.1302 33.022
v 3.521175 192.139 38.9197
v 8.742677 191.9255 31.303
v -0.145625 210.0503 26.53139
v 11.52538 177.6219 17.2327
v 4.362079 197.5024 18.07699
v 3.501678 197.8666 27.9365
v 4.398582 186.765 14.67449
v 6.769886 178.435 5.660494
v -0.145627 193.5471 41.7057
v -0.145623 200.1364 15.18979
v -0.145623 201.8157 24.20059
v -0.145613 178.8298 -1.132208
v -0.145616 188.2982 8.510294
v 8.742677 191.9255 31.303
v 3.501678 197.8666 27.9365
v -0.145625 210.0503 26.53139
v 3.501678 197.8666 27.9365
v -0.145623 201.8157 24.20059
v -0.145625 210.0503 26.53139
v 3.632476 181.9268 38.2388
v 7.004778 183.5042 32.5272
v 5.16328 173.2716 32.4201
v 2.66338 167.1765 36.5171
v 6.981378 191.9255 31.303
v 8.015182 177.6219 17.2327
v 7.004777 187.1302 33.022
v -9.226226 191.7282 30.5942
v -9.49502 170.5207 30.1994
v -12.37962 184.3409 24.13189
v -20.81612 210.6345 5.571581
v -16.89142 192.0983 15.64139
v -23.27202 199.4202 0.328882
v -11.40943 203.3052 25.22859
v -21.70062 226.4645 0.46028
v -9.226226 191.7282 30.5942
v -11.40943 203.3052 25.22859
v -16.42902 197.8555 19.72759
v -21.70062 226.4645 0.46028
v -23.27202 199.4202 0.328882
v -20.81612 210.6345 5.571581
v -12.37962 184.3409 24.13189
v -9.49502 170.5207 30.1994
v -16.89142 192.0983 15.64139
v -7.295926 183.5042 32.52719
v -7.516323 173.2716 32.4201
v -3.923724 181.9268 38.2388
v -2.954621 167.1765 36.5171
v -3.812325 192.139 38.9197
v -7.295926 187.1302 33.022
v -9.033824 191.9254 31.30299
v -11.81662 177.6219 17.23269
v -3.792825 197.8666 27.93649
v -4.653319 197.5024 18.07699
v -4.689819 186.765 14.67449
v -7.061015 178.435 5.66049
v -9.033824 191.9254 31.30299
v -0.145625 210.0503 26.53139
v -3.792825 197.8666 27.93649
v -3.792825 197.8666 27.93649
v -0.145625 210.0503 26.53139
v -0.145623 201.8157 24.20059
v -3.923724 181.9268 38.2388
v -5.454422 173.2716 32.4201
v -7.295926 183.5042 32.52719
v -2.954621 167.1765 36.5171
v -7.272626 191.9254 31.30299
v -8.306319 177.6219 17.23269
v -7.295926 187.1302 33.022
v -62.78216 54.01088 145.4069
v -65.50195 63.79839 124.4392
v -69.68906 56.33969 122.1172
v -62.78216 54.01088 145.4069
v -69.68906 56.33969 122.1172
v -61.08876 58.42889 122.5935
v -67.72513 94.56972 29.60337
v -75.38843 84.04542 27.88787
v -75.38843 84.04542 27.88787
v -63.31193 89.20023 27.75767
v -68.06993 99.34303 14.89237
v -72.05793 92.43982 11.43007
v -72.05793 92.43982 11.43007
v -63.65673 93.97352 13.04667
v -67.33191 116.9847 -48.67554
v -72.67181 111.1278 -44.40504
v -69.41032 117.8955 -42.28554
v -64.99712 112.526 -44.13124
v -68.48222 105.0495 -2.694733
v -72.88373 93.92362 5.138866
v -72.88373 93.92362 5.138866
v -64.06902 99.68002 -4.540432
v -76.84163 96.00133 -1.029536
v -80.01492 91.89012 -5.996339
v -79.83973 89.46542 1.476562
v -73.89952 92.42172 -2.260037
v -79.83973 89.46542 1.476562
v -80.01492 91.89012 -5.996339
v -70.00153 101.3023 -9.435737
v -70.00153 101.3023 -9.435737
v -70.00153 101.3023 -9.435737
v -68.48222 105.0495 -2.694733
v -69.26431 115.8749 -36.05814
v -70.66572 110.4961 -37.77054
v -66.28542 102.5009 -4.037133
v -67.05772 113.1901 -36.98094
v -64.06902 99.68002 -4.540432
v -64.85111 110.5054 -37.90384
v -56.90166 65.8877 124.9155
v -56.90166 65.8877 124.9155
v -55.58413 98.83281 32.22167
v -55.58413 98.83281 32.22167
v -59.72453 101.6489 14.12897
v -59.72453 101.6489 14.12897
v -61.73561 119.2937 -42.01184
v -59.18662 104.1509 8.136276
v -59.18662 104.1509 8.136276
v -58.46492 109.7228 2.99177
v -52.33162 110.0051 7.496275
v -52.50682 112.4298 0.023374
v -55.52282 106.1431 1.761374
v -52.50682 112.4298 0.023374
v -52.33162 110.0051 7.496275
v -62.78552 106.6904 -7.856632
v -62.78552 106.6904 -7.856632
v -62.78552 106.6904 -7.856632
v -63.44971 115.8841 -36.19144
v -84.26793 83.44852 8.995865
v -94.83675 70.58041 21.16126
v -76.21953 90.26342 -9.571538
v -90.11043 82.70033 -2.797043
v -80.76252 93.49112 -11.83824
v -76.50192 102.0118 -26.43924
v -74.68524 76.86711 51.05566
v -82.05844 77.68191 31.05527
v -84.61404 79.76221 18.89276
v -84.26793 83.44852 8.995865
v -81.88542 97.15703 -7.201941
v -94.83675 70.58041 21.16126
v -90.11043 82.70033 -2.797043
v -80.76252 93.49112 -11.83824
v -76.50192 102.0118 -26.43924
v -74.68524 76.86711 51.05566
v -82.05844 77.68191 31.05527
v -84.61404 79.76221 18.89276
v -47.66032 110.7826 17.00678
v -50.91592 109.157 -4.034326
v -36.40923 114.2069 33.94709
v -42.31342 118.3892 7.662481
v -52.18372 114.8302 -5.584327
v -57.17641 116.4417 -22.21023
v -55.35973 91.297 55.28468
v -48.85303 102.4756 38.32168
v -46.84433 107.9639 27.15798
v -47.66032 110.7826 17.00678
v -36.40923 114.2069 33.94709
v -56.58172 116.0506 -1.664727
v -42.31342 118.3892 7.662481
v -52.18372 114.8302 -5.584327
v -57.17641 116.4417 -22.21023
v -55.35973 91.297 55.28468
v -48.85303 102.4756 38.32168
v -46.84433 107.9639 27.15798
v 61.11188 24.89281 84.01643
v 53.41178 188.3847 42.30551
v 24.51196 173.5854 70.41382
v 42.85746 50.77251 92.15923
v 61.11188 24.89281 84.01643
v 42.85746 50.77251 92.15923
v 21.97437 175.1927 70.60342
v 50.27998 193.1743 39.50692
v 42.85746 50.77251 92.15923
v 24.51196 173.5854 70.41382
v 21.97437 175.1927 70.60342
v 24.51196 173.5854 70.41382
v 53.41178 188.3847 42.30551
v 50.27998 193.1743 39.50692
v 50.27998 193.1743 39.50692
v 21.97437 175.1927 70.60342
v 24.51196 173.5854 70.41382
v 57.0456 159.8183 10.4456
v 62.17938 42.59612 56.54382
v 56.0669 160.7659 7.761806
v 62.17938 42.59612 56.54382
v 62.17938 42.59612 56.54382
v 56.0669 160.7659 7.761806
v 57.0456 159.8183 10.4456
v 57.0456 159.8183 10.4456
v 50.27998 193.1743 39.50692
v 53.41178 188.3847 42.30551
v 50.27998 193.1743 39.50692
v 57.0456 159.8183 10.4456
v 56.0669 160.7659 7.761806
vn 0.683798 -0.1338 0.717299
vn -0 -0.541313 0.840821
vn 0.601213 -0.502011 0.621714
vn -0 0.387319 0.921946
vn 0.446514 0.549817 0.705922
vn 0.556599 0.203 0.805599
vn -0 0.541197 0.840896
vn 0.927206 -0.374503 0.006
vn 0.882517 -0.468209 0.044101
vn 0.796852 -0.438074 -0.416075
vn 0.561702 -0.528902 -0.636202
vn 0.373584 -0.064397 -0.925359
vn 0 -0.171692 -0.985151
vn 0 -0.491609 -0.870816
vn 0.260306 0.376909 -0.888921
vn 0 0.23021 -0.973141
vn -0 -0.278206 0.960522
vn 0.6275 -0.1455 0.764901
vn 0.988664 -0.050498 0.141395
vn 0.687409 -0.031 -0.725609
vn 0 0.439196 -0.898391
vn 0.866731 -0.27711 0.414715
vn 0.430676 0.90205 -0.028698
vn 0.839213 0.442207 0.316505
vn 0.140894 0.488582 0.861067
vn 0.597003 0.282901 -0.750703
vn 0.140201 0.704906 -0.695306
vn -0.056001 0.997223 -0.049101
vn 0.752029 -0.175907 0.635224
vn 0.917857 0.304086 0.255088
vn -0 -0.040799 0.999167
vn -0 -0.169197 0.985582
vn 0.483385 0.715778 -0.503985
vn 0 0.613213 -0.789917
vn 0.826615 0.332406 -0.454108
vn 0 0.511994 -0.858989
vn -0.493694 0.86949 -0.0159
vn -0 0.989388 0.145298
vn -0 0.990095 -0.140399
vn 0.456196 0.275398 0.846193
vn 0.862311 0.463906 0.203003
vn 0.664628 0.164107 -0.72893
vn 0 -0.010001 -0.99995
vn 0.048097 -0.975144 0.216288
vn -0.325797 0.109399 0.939089
vn 0 -0.705906 0.708306
vn -0.119601 0.622902 0.773103
vn 0.872268 0.439284 0.214892
vn 0.065698 -0.869367 -0.489781
vn 0 -0.736997 -0.675897
vn -0.159302 -0.60191 -0.782513
vn -0.606002 -0.707602 -0.363401
vn -0.873614 0.087401 0.478707
vn 0.884095 -0.252998 -0.392897
vn -0.96397 -0.265992 0.0032
vn -0.219303 0.243003 0.944911
vn 0.986888 0.060599 0.149599
vn 0.204788 -0.682759 -0.701358
vn 0.336596 -0.633392 -0.696791
vn -0.057101 -0.289401 0.955503
vn -0.96397 -0.265992 0.0032
vn -0.938008 -0.0222 -0.345903
vn 0.932611 -0.0237 0.360105
vn 0.986888 0.060599 0.149599
vn 0.029401 0.261209 -0.964834
vn 0.040401 0.265305 -0.963318
vn 0.848596 0.1293 -0.512997
vn -0.98467 -0.166895 -0.050699
vn -0.349889 0.116096 0.92957
vn 0.989537 -0.139105 -0.038301
vn 0.058398 -0.21909 -0.973956
vn -0.995481 0.085898 0.040499
vn -0.422525 0.096006 0.901252
vn 0.787571 0.604977 -0.117195
vn 0.787571 0.604978 -0.117195
vn 0.787571 0.604978 -0.117195
vn -0.550888 -0.166597 -0.817783
vn -0.232395 -0.0216 -0.972382
vn 0.293305 -0.480808 -0.826314
vn 0.967553 0.154293 -0.20009
vn 0.117903 0.520113 0.845921
vn 0.024001 0.773926 0.632821
vn -0.179802 0.170502 -0.968814
vn -0.999287 -0.0346 0.015099
vn 0.928594 0.204299 -0.309798
vn 0.032799 -0.478097 0.877695
vn -0.0078 -0.193802 0.98101
vn -0.254493 0.962076 -0.098198
vn -0.254493 0.962076 -0.098198
vn -0.903495 0.426198 0.045299
vn 0.579915 0.79672 -0.170104
vn 0.204788 -0.682759 -0.701358
vn -0.001 -0.999944 0.010501
vn -0.0004 -0.99991 0.0134
vn -0.001 -0.999944 0.010501
vn -0.0016 -0.999971 0.0075
vn -0 0.905613 0.424106
vn -0.36789 0.892374 0.261392
vn 0.200095 -0.593085 0.77988
vn -0.560322 -0.814132 0.152406
vn 0.116005 -0.922436 -0.368314
vn -0.703208 -0.380804 0.600406
vn 0.141302 0.0263 0.989617
vn 0.887222 0.166604 0.430211
vn 0.879147 0.152408 -0.451523
vn 0.816818 0.347608 0.46041
vn 0.83115 0.079295 -0.550366
vn 0.080699 -0.299494 -0.95068
vn 0.104403 -0.325907 -0.93962
vn -0.778132 -0.451719 -0.436418
vn -0.757812 -0.520908 -0.392907
vn -0.818509 -0.304904 0.486905
vn 0.008 0.089099 0.995991
vn 0.837409 0.347604 -0.421804
vn 0.744589 0.500493 0.441694
vn 0.057698 -0.235491 -0.970162
vn -0.785051 -0.460872 -0.413875
vn -0.861703 -0.273801 0.427201
vn -0.028399 0.157794 0.987064
vn 0.715489 0.66619 -0.210397
vn 0.543694 0.647493 0.533994
vn 0.259492 0.198293 -0.945169
vn -0.741975 -0.320089 -0.589081
vn -0.941903 -0.248301 0.2262
vn -0.386801 0.191301 0.902103
vn 0.953695 -0.288099 -0.086399
vn 0.0207 0.832594 -0.553496
vn 0.195694 0.97947 -0.048399
vn 0.152393 0.840662 -0.519677
vn 0.063099 0.920088 0.386595
vn 0.128395 0.659374 0.740771
vn 0.0003 0.640096 0.768295
vn 0.406514 0.905231 0.123704
vn 0.661827 -0.423717 -0.618425
vn 0.922454 -0.214289 -0.321184
vn 0.691763 -0.451376 -0.56367
vn 0.956425 -0.053101 -0.287107
vn 0.93119 -0.260697 -0.254797
vn 0.749475 0.538082 0.385687
vn 0.526398 0.621698 0.579998
vn 0.909431 0.341912 0.236709
vn 0.51088 0.651474 0.560878
vn 0.94102 0.218305 0.258506
vn -0.016899 -0.788981 -0.614185
vn -0.296896 -0.644191 -0.704891
vn -0.270602 -0.953709 -0.131201
vn -0.306597 -0.798093 0.518696
vn -0.0107 -0.926109 0.377104
vn -0.076002 -0.98703 -0.141404
vn -0.761029 -0.642925 -0.086503
vn -0.844387 0.0241 -0.535192
vn -0.882942 0.465822 -0.058503
vn -0.995727 -0.026701 -0.088403
vn -0.735294 -0.320097 -0.597395
vn -0.780815 -0.54581 -0.304006
vn -0.919087 -0.374695 -0.121999
vn -0.963299 -0.004 0.2684
vn -0.839611 0.475106 0.263303
vn -0.889491 0.133899 0.436895
vn -0.713783 -0.670485 -0.202395
vn 0.484418 -0.863431 0.140805
vn 0.169593 -0.566577 0.806368
vn -0.832103 0.478402 0.280601
vn 0.480009 -0.636211 -0.60401
vn 0.832618 0.553712 0.0123
vn 0.984688 0.161798 -0.064899
vn 0.247902 -0.836606 -0.488503
vn -0.734087 -0.541391 -0.409893
vn -0.875841 -0.466022 -0.125406
vn 0.102404 0.968937 0.225109
vn 0.259597 0.884391 0.387896
vn -0.882426 0.468314 0.044801
vn -0.695425 0.618222 0.366313
vn 0.981097 -0.0471 -0.187699
vn 0.032599 -0.807354 -0.589166
vn -0.822812 -0.565408 -0.057401
vn 0.477227 0.786145 0.392722
vn -0.564529 0.708236 0.423921
vn 0.92477 -0.058598 -0.375988
vn 0.540638 0.742953 0.394628
vn 0.925351 -0.346782 -0.153192
vn 0.071602 -0.872517 -0.483309
vn 0.606285 0.517087 0.604185
vn -0.986261 -0.164494 -0.015199
vn -0.526011 0.51841 0.674213
vn -0.978543 -0.146392 0.144992
vn -0.283809 -0.823326 0.491515
vn 0.491267 0.090994 0.866243
vn 0.861577 -0.449488 0.235894
vn 0.473313 0.32981 0.816823
vn -0.58651 0.496508 0.639911
vn -0.772326 -0.557919 -0.30371
vn -0.758614 0.617311 0.208404
vn 0.109402 -0.962921 0.246605
vn -0.040201 0.575506 0.816809
vn 0.687333 0.502024 -0.524925
vn -0.834308 0.402804 -0.376404
vn 0.060001 0.996925 0.050401
vn -0.869001 -0.1443 -0.473301
vn 0.687333 0.502024 -0.524925
vn 0.650368 0.719165 0.244588
vn 0.949388 -0.278896 0.144499
vn 0.060001 0.996925 0.050401
vn -0.665838 0.604634 0.437124
vn -0.834308 0.402804 -0.376404
vn -0.7248 -0.676 0.133
vn -0.869001 -0.1443 -0.473301
vn 0.324987 -0.913863 -0.24339
vn 0.046201 -0.149903 -0.987621
vn 0.046201 -0.149903 -0.987621
vn -0.683799 -0.1338 0.717299
vn -0.601213 -0.502011 0.621714
vn -0.446514 0.549817 0.705922
vn -0.556599 0.203 0.805598
vn -0.882475 -0.468287 0.044099
vn -0.927207 -0.374503 0.006
vn -0.796852 -0.438074 -0.416075
vn -0.373497 -0.0644 -0.925393
vn -0.561702 -0.528902 -0.636203
vn -0.260306 0.376909 -0.888921
vn -0.627492 -0.145598 0.764889
vn -0.988665 -0.050498 0.141395
vn -0.687408 -0.031 -0.725609
vn -0.866731 -0.27711 0.414715
vn -0.430676 0.90205 -0.028699
vn -0.839213 0.442207 0.316505
vn -0.140895 0.488581 0.861067
vn -0.597002 0.282901 -0.750703
vn -0.140103 0.704916 -0.695316
vn 0.056001 0.997223 -0.049101
vn -0.751981 -0.175896 0.635284
vn -0.917857 0.304086 0.255088
vn -0.483385 0.715778 -0.503985
vn -0.826615 0.332406 -0.454108
vn 0.493694 0.86949 -0.0159
vn -0.584687 -0.0112 0.811182
vn -0.90564 0.367416 0.211709
vn -0.514022 0.341115 -0.787034
vn -0.103405 -0.407021 0.907547
vn -0.368915 -0.24811 0.895736
vn -0.960741 0.154406 0.23051
vn 0.371991 -0.227694 -0.899877
vn 0.804762 -0.242788 -0.541675
vn 0.692407 -0.466504 0.550406
vn -0.760335 0.114105 -0.63943
vn -0.0017 -0.538019 0.842931
vn 0.969613 -0.243403 0.024601
vn -0.998728 0.0169 -0.047502
vn 0.0118 0.0289 -0.999513
vn 0.0043 0.0246 -0.999688
vn -0.102505 -0.702732 0.704032
vn 0.9845 0.0917 -0.1495
vn 0.969613 -0.243403 0.024601
vn -0.998728 0.0169 -0.047502
vn -0.980144 -0.139107 0.141306
vn 0.121098 0.684185 -0.719185
vn 0.133699 0.722993 -0.677794
vn -0.748684 0.397291 -0.530689
vn 0.98181 -0.183001 0.050601
vn 0.166695 -0.35399 0.920274
vn -0.95802 -0.044001 -0.283306
vn 0.121702 0.261804 -0.957417
vn 0.969819 -0.0077 0.243705
vn -0.037599 -0.452289 0.891079
vn -0.764256 0.642263 0.058397
vn -0.764257 0.642263 0.058396
vn -0.764257 0.642263 0.058396
vn 0.679877 0.062298 -0.730675
vn -0.156803 0.184103 -0.970319
vn 0.441906 0.447606 -0.777411
vn -0.859542 0.276013 -0.430121
vn -0.187008 0.773933 0.605026
vn -0.580387 0.345992 0.737184
vn 0.424392 0.170497 -0.889282
vn 0.961336 -0.034501 0.27321
vn -0.816772 0.204293 -0.539582
vn -0.158707 -0.627426 0.762332
vn -0.170708 -0.828636 0.533124
vn 0.287104 0.923112 0.255803
vn 0.782085 0.53269 0.323394
vn 0.287104 0.923112 0.255803
vn -0.323311 0.942431 0.085403
vn 0.0118 0.0289 -0.999513
vn -0.0017 -0.999944 0.010401
vn -0.0017 -0.999944 0.010401
vn -0.0031 -0.99991 0.0131
vn -0.0004 -0.99997 0.0077
vn 0.367889 0.892374 0.261393
vn -0.659986 -0.730685 -0.174697
vn 0.25791 -0.377114 -0.889532
vn 0.35791 -0.909926 -0.209606
vn 0.108096 -0.872568 0.476382
vn -0.773421 -0.325709 0.543814
vn -0.92375 0.36488 -0.116394
vn -0.88642 0.456211 0.078301
vn -0.331694 0.698688 -0.633889
vn -0.225496 0.671788 -0.705587
vn 0.559914 0.183305 -0.80802
vn 0.564596 0.225399 -0.793994
vn 0.834391 -0.531595 -0.145598
vn 0.805129 -0.573921 -0.149605
vn 0.252406 -0.807319 0.533412
vn -0.670567 -0.329484 0.664666
vn -0.810108 0.557706 0.180802
vn -0.23121 0.854139 -0.465821
vn 0.63911 0.420006 -0.644309
vn 0.884551 -0.439225 -0.157009
vn 0.327418 -0.784042 0.527328
vn -0.594393 -0.285497 0.751791
vn -0.67673 0.549825 0.489622
vn -0.232689 0.964755 -0.122895
vn 0.528326 0.788839 -0.314015
vn 0.990266 0.113196 -0.080997
vn 0.687615 -0.618814 0.379809
vn -0.242812 -0.388818 0.888742
vn -0.5601 0.3071 -0.769401
vn -0.0207 0.832594 -0.553496
vn -0.152296 0.840675 -0.519685
vn -0.195694 0.97947 -0.048399
vn -0.063099 0.920089 0.386595
vn -0.128395 0.659374 0.740771
vn -0.0003 0.640096 0.768295
vn -0.406514 0.905231 0.123704
vn -0.471309 0.203304 -0.858217
vn -0.507415 0.146104 -0.849226
vn -0.808688 0.141397 -0.570992
vn -0.868943 0.227311 -0.439622
vn -0.823931 0.061702 -0.563322
vn -0.872185 0.122497 0.473591
vn -0.974132 0.107803 0.198606
vn -0.702989 0.024199 0.710789
vn -0.688113 0.057601 0.723314
vn -0.993189 0.009799 0.116099
vn 0.0169 -0.788981 -0.614185
vn 0.270603 -0.953709 -0.131201
vn 0.296987 -0.644172 -0.704869
vn 0.0107 -0.926109 0.377104
vn 0.306598 -0.798093 0.518696
vn 0.076003 -0.98703 -0.141404
vn 0.761029 -0.642925 -0.086503
vn 0.920988 0.362596 -0.142498
vn 0.989269 -0.007899 0.145896
vn 0.810577 0.309792 0.496986
vn 0.870915 0.181203 -0.456808
vn 0.888048 -0.18941 -0.418922
vn 0.965797 -0.214699 -0.145399
vn 0.886534 -0.252609 0.387615
vn 0.705713 0.082202 0.703713
vn 0.764787 -0.278895 0.580791
vn 0.4205 -0.63 -0.652901
vn -0.756898 -0.650998 -0.0575
vn -0.666678 -0.129695 -0.733976
vn 0.618007 -0.557406 0.554406
vn 0.281707 0.236006 -0.930023
vn -0.60971 0.644911 -0.460808
vn -0.65488 0.754077 -0.049999
vn 0.385702 -0.0746 -0.919603
vn 0.885604 -0.452602 -0.1042
vn 0.747509 -0.654708 0.112201
vn -0.642397 0.426698 0.636597
vn -0.439894 0.495792 0.748788
vn 0.0352 -0.212601 0.976505
vn 0.424917 -0.202308 0.882336
vn -0.596481 0.525383 -0.606781
vn 0.243991 -0.204992 -0.947864
vn 0.613519 -0.768324 -0.182406
vn -0.712615 0.539711 0.448209
vn 0.222298 -0.092399 0.970591
vn -0.611371 0.696967 -0.374783
vn -0.45918 0.523277 0.717868
vn -0.668769 0.535176 -0.516077
vn 0.142997 -0.065099 -0.98758
vn -0.696603 0.1388 0.703903
vn 0.750878 -0.649281 -0.120896
vn 0.246795 -0.51819 0.818884
vn -0.149396 -0.881875 -0.447188
vn 0.747683 -0.663985 0.0097
vn -0.80649 -0.346196 0.479294
vn -0.858596 0.249399 -0.447898
vn -0.715018 -0.060102 0.696518
vn 0.265608 -0.587719 0.764224
vn 0.753592 -0.373396 -0.540994
vn 0.709122 -0.207307 0.673921
vn -0.411305 -0.533706 -0.738909
vn -0.230897 -0.364594 0.902085
vn -0.152206 0.976838 -0.150406
vn -0.289113 0.597627 0.747834
vn 0.72179 0.041099 0.690891
vn 0.933094 -0.245399 0.262899
vn -0.152206 0.976838 -0.150406
vn -0.648707 0.234503 -0.724008
vn -0.747794 0.616995 0.245198
vn -0.289113 0.597627 0.747834
vn -0.0333 -0.248796 0.967983
vn 0.72179 0.041099 0.690891
vn 0.504679 -0.860664 -0.067497
vn 0.933094 -0.245399 0.262899
vn 0.171196 -0.230994 -0.957776
vn 0.737586 0.538289 -0.407692
vn 0.737586 0.538289 -0.407692
vn -0.893244 -0.009499 -0.449472
vn -0.895159 0.0077 -0.44568
vn -0.900186 -0.0033 -0.435494
vn -0.899393 -0.0571 -0.433397
vn -0.919787 -0.0182 -0.391995
vn -0.898498 -0.0244 -0.438299
vn -0.888276 -0.065698 -0.454588
vn -0.882737 -0.099004 -0.459319
vn 0.854219 0.0145 0.519712
vn 0.900991 0.006 0.433796
vn 0.805787 0.169297 0.567491
vn 0.885569 0.135895 0.444185
vn 0.943092 -0.051 0.328598
vn 0.939075 0.053699 0.339491
vn 0.900186 0.0033 0.435494
vn 0.897652 -0.084005 0.432625
vn 0.930958 -0.158593 0.328885
vn 0.756426 -0.021601 0.653723
vn 0.809928 -0.056302 0.583821
vn 0.813066 -0.044398 0.580476
vn 0.750185 -0.125098 0.649287
vn -0 -0.160993 0.986956
vn 0.798802 -0.1205 0.589402
vn 0.751474 0.144795 0.643678
vn 0.925088 0.221597 0.308396
vn -0 0.690978 0.722876
vn 0.923014 0.357005 -0.143502
vn 0.799932 0.532121 -0.277411
vn 0.683675 0.729473 -0.021399
vn 0.779189 0.418294 -0.466793
vn 0.671898 0.623598 -0.399599
vn -0 0.329099 0.944296
vn 0 0.826595 -0.562797
vn -0 0.983077 -0.183196
vn 0 0.770928 -0.636923
vn 0 0.612707 -0.79031
vn 0.609705 0.091701 -0.787306
vn 0.609705 0.091701 -0.787306
vn 0.609705 0.091701 -0.787306
vn 0.788143 0.167609 -0.592232
vn 0.788143 0.167609 -0.592232
vn 0.788143 0.167609 -0.592232
vn -0.891101 0.1339 -0.433601
vn -0.982483 0.083099 -0.166797
vn -0.929527 0.149905 -0.33691
vn -0.911258 0.106295 -0.397882
vn -0.999646 -0.0065 -0.025801
vn -0.991779 0.082998 -0.097398
vn -0.999951 -0.0013 0.009799
vn 0.893244 -0.0095 -0.449472
vn 0.900186 -0.0033 -0.435493
vn 0.89516 0.0077 -0.44568
vn 0.899393 -0.0571 -0.433396
vn 0.898498 -0.0244 -0.438299
vn 0.919788 -0.0182 -0.391994
vn 0.888276 -0.065698 -0.454587
vn 0.882737 -0.099004 -0.459319
vn -0.854219 0.0145 0.519711
vn -0.805787 0.169297 0.567491
vn -0.900991 0.006 0.433796
vn -0.885569 0.135895 0.444184
vn -0.943092 -0.051 0.328597
vn -0.939075 0.053699 0.339491
vn -0.897652 -0.084005 0.432625
vn -0.900186 0.0033 0.435493
vn -0.930958 -0.158593 0.328885
vn -0.756426 -0.021601 0.653722
vn -0.813063 -0.044498 0.580473
vn -0.809928 -0.056302 0.58382
vn -0.750185 -0.125097 0.649287
vn -0.751474 0.144795 0.643678
vn -0.798803 -0.1205 0.589402
vn -0.925088 0.221597 0.308396
vn -0.923014 0.357005 -0.143502
vn -0.683675 0.729473 -0.021399
vn -0.799932 0.532121 -0.277411
vn -0.779188 0.418294 -0.466793
vn -0.671898 0.623598 -0.399599
vn -0.609705 0.091701 -0.787306
vn -0.609705 0.091701 -0.787306
vn -0.609705 0.091701 -0.787306
vn -0.788142 0.167609 -0.592232
vn -0.788142 0.167609 -0.592232
vn -0.788142 0.167609 -0.592232
vn 0.891101 0.1339 -0.4336
vn 0.929527 0.149904 -0.33691
vn 0.982483 0.083098 -0.166797
vn 0.911258 0.106295 -0.397882
vn 0.999646 -0.0065 -0.025801
vn 0.991769 0.082997 -0.097497
vn 0.99995 -0.0013 0.0099
vn -0.60291 0.690112 0.400307
vn -0.610107 0.720508 0.329603
vn -0.855747 0.465771 0.225286
vn 0.609813 -0.785316 -0.106802
vn 0.24179 -0.94326 -0.22759
vn 0.614 -0.7631 -0.2017
vn -0.613602 0.745302 0.260801
vn -0.833341 0.529426 0.158907
vn 0.326196 -0.890887 -0.316095
vn 0.612897 -0.738396 -0.281298
vn -0.614073 0.757767 0.22069
vn -0.871001 0.4675 0.151
vn 0.271102 -0.911908 -0.308103
vn 0.614007 -0.752909 -0.236903
vn -0.581805 -0.207902 -0.786308
vn -0.746703 -0.443302 -0.495902
vn -0.75634 0.647534 0.093005
vn 0.436086 -0.803273 -0.405686
vn -0.613613 0.767916 0.183804
vn -0.691198 0.552098 0.466298
vn 0.40942 -0.907344 -0.095404
vn 0.612963 -0.738955 -0.279683
vn -0.735714 0.594711 0.324106
vn -0.787782 0.614486 -0.042499
vn -0.773389 0.502793 0.386094
vn 0.458201 -0.839202 -0.292901
vn 0.391587 -0.91457 -0.101097
vn 0.353604 -0.81271 -0.463106
vn -0.707102 0.673602 -0.215101
vn 0.388488 -0.676278 -0.62588
vn -0.966139 -0.25121 -0.058903
vn -0.613675 0.746669 0.256689
vn -0.764058 0.608167 0.215288
vn -0.652195 -0.744594 -0.142199
vn 0.336813 -0.925335 -0.174107
vn -0.789225 -0.589319 -0.172706
vn 0.613675 -0.746669 -0.256689
vn 0.613675 -0.746669 -0.256689
vn -0.284312 0.892438 0.350315
vn 0.880051 -0.466674 -0.087895
vn -0.330981 0.904548 0.268784
vn 0.834686 -0.511191 -0.204896
vn -0.26201 0.922235 0.284311
vn 0.865597 -0.467998 -0.178099
vn 0.731007 0.660206 -0.172501
vn -0.470795 0.716692 0.514494
vn 0.769424 -0.63852 -0.0167
vn -0.460795 0.799991 0.384295
vn -0.382883 0.794364 0.471579
vn -0.36641 0.929125 0.049701
vn 0.747889 -0.622891 -0.229496
vn 0.795294 -0.482896 -0.366497
vn 0.782079 -0.622984 -0.015599
vn -0.394185 0.907264 -0.146594
vn 0.704182 -0.440589 -0.556785
vn 0.487215 0.833926 0.259208
vn 0.891676 0.408189 0.195695
vn 0.486804 -0.866908 -0.107201
vn 0.620573 -0.774867 -0.120295
vn 0.394603 -0.845306 -0.360203
vn 0.126396 -0.780473 -0.612279
vn -0.170799 -0.715798 -0.677098
vn 0.583695 -0.661694 -0.470596
vn 0.846444 -0.515027 -0.135207
vn 0.405681 -0.887958 -0.21669
vn 0.1745 -0.939397 -0.295099
vn -0.708131 0.586925 0.392517
vn -0.790746 0.596935 0.135608
vn -0.594881 0.703977 0.387987
vn -0.877 0.4402 -0.1926
vn -0.911431 0.185406 -0.367313
vn -0.610606 0.791407 0.0289
vn -0.3057 0.886801 0.3466
vn -0.781894 0.556995 0.279997
vn -0.91083 0.381012 0.158805
vn 0.715985 -0.695785 -0.056999
vn 0.787482 -0.551987 -0.274194
vn 0.601037 -0.789448 -0.124607
vn 0.861882 -0.231295 -0.45129
vn 0.892421 0.078002 -0.44441
vn 0.600288 -0.649287 -0.466991
vn 0.30791 -0.91713 -0.253108
vn 0.785314 -0.604511 -0.133602
vn 0.911422 -0.38911 -0.133803
vn -0.47889 0.758083 0.44269
vn -0.614405 0.689405 0.383703
vn -0.397887 0.890271 0.221593
vn -0.141504 0.98943 -0.031701
vn 0.151703 0.979218 -0.134602
vn -0.594004 0.803805 0.0325
vn -0.844247 0.484669 0.228785
vn -0.402275 0.840447 0.363077
vn -0.173904 0.931318 0.320006
vn 0.882605 0.159301 0.442303
vn 0.882879 0.154697 0.443389
vn 0.632506 0.223503 0.741608
vn 0.645385 0.225595 0.729784
vn -0.881774 -0.173795 -0.438487
vn -0.653404 -0.234402 -0.719805
vn -0.650706 -0.233902 -0.722407
vn -0.881849 -0.17281 -0.438725
vn 0.198093 0.199493 0.959667
vn 0.198093 0.199493 0.959667
vn 0.198093 0.199493 0.959667
vn 0.348903 0.632306 0.691706
vn 0.348903 0.632306 0.691706
vn 0.348903 0.632306 0.691706
vn 0.41489 0.571387 0.708084
vn 0.41489 0.571387 0.708084
vn 0.41489 0.571387 0.708084
vn 0.994807 0.070201 0.0737
vn 0.992908 0.078601 0.089201
vn -0.991495 -0.0897 -0.094299
vn -0.99102 -0.091502 -0.097502
vn 0.921403 -0.1066 -0.373701
vn 0.921403 -0.1066 -0.373701
vn 0.921403 -0.1066 -0.373701
vn 0.87051 0.411605 -0.269803
vn 0.87051 0.411605 -0.269803
vn 0.87051 0.411605 -0.269803
vn 0.909571 0.362089 -0.203893
vn 0.909571 0.362089 -0.203893
vn 0.909571 0.362089 -0.203893
vt 0.8704 0.7539
vt 0.7648 0.7667
vt 0.8612 0.7176
vt 0.7648 0.8165
vt 0.8608 0.8329
vt 0.8702 0.8038
vt 0.7648 0.8539
vt 0.8689 0.6961
vt 0.883 0.726
vt 0.9172 0.7776
vt 0.8522 0.7092
vt 0.8738 0.7903
vt 0.7648 0.7451
vt 0.7648 0.6763
vt 0.818 0.8289
vt 0.7648 0.8258
vt 0.7648 0.7486
vt 0.8248 0.6562
vt 0.8567 0.6488
vt 0.8163 0.6555
vt 0.7648 0.6362
vt 0.9159 0.7747
vt 0.8402 0.8569
vt 0.8348 0.8777
vt 0.916 0.838
vt 0.9156 0.8372
vt 0.8795 0.8433
vt 0.9101 0.8744
vt 0.8379 0.6199
vt 0.865 0.6131
vt 0.7648 0.6407
vt 0.7648 0.5605
vt 0.8396 0.6317
vt 0.7648 0.6124
vt 0.8325 0.8784
vt 0.7648 0.8744
vt 0.5315 0.0478
vt 0.505 0.0548
vt 0.505 0.0322
vt 0.8255 0.5662
vt 0.891 0.5758
vt 0.8654 0.561
vt 0.7648 0.5509
vt 0.7648 0.5018
vt 0.8025 0.5187
vt 0.7648 0.5193
vt 0.8461 0.4564
vt 0.9064 0.5232
vt 0.7648 0.5044
vt 0.7648 0.5303
vt 0.8192 0.5092
vt 0.81 0.4719
vt 0.7983 0.4158
vt 0.9147 0.4506
vt 0.8216 0.321
vt 0.8562 0.352
vt 0.917 0.339
vt 0.8806 0.3618
vt 0.8621 0.4764
vt 0.8823 0.1608
vt 0.9398 0.1219
vt 0.8691 0.086
vt 0.8893 0.1214
vt 0.9569 0.125
vt 0.9376 0.0833
vt 0.9051 0.0369
vt 0.8969 0.0861
vt 0.8042 0.0767
vt 0.7568 0.1118
vt 0.8155 0.0768
vt 0.8085 0.0434
vt 0.6969 0.0717
vt 0.7494 0.1389
vt 0.7105 0.0727
vt 0.7568 0.1118
vt 0.7494 0.1389
vt 0.7049 0.0405
vt 0.7551 0.0393
vt 0.7343 0.0055
vt 0.7105 0.0727
vt 0.7065 0.1179
vt 0.6425 0.2273
vt 0.6407 0.0202
vt 0.6416 0.0845
vt 0.6414 0.0821
vt 0.919 0.2124
vt 0.9896 0.241
vt 0.5094 0.0307
vt 0.5085 0.0751
vt 0.4903 0.1022
vt 0.5407 0.1003
vt 0.9786 0.0859
vt 0.5104 0.0721
vt 0.5188 0.0849
vt 0.5272 0.0725
vt 0.5178 0.0434
vt 0.505 0.0911
vt 0.5287 0.0816
vt 0.9778 0.6372
vt 0.9478 0.6531
vt 0.9725 0.6605
vt 0.9299 0.6789
vt 0.9642 0.6864
vt 0.9984 0.6939
vt 0.9813 0.746
vt 0.9813 0.746
vt 0.9984 0.6939
vt 0.947 0.7386
vt 0.9642 0.6864
vt 0.9127 0.7311
vt 0.9299 0.6789
vt 0.9127 0.7311
vt 0.947 0.7386
vt 0.9649 0.8152
vt 0.9649 0.8152
vt 0.9298 0.7907
vt 0.895 0.7733
vt 0.895 0.7733
vt 0.9298 0.7907
vt 0.9139 0.8427
vt 0.9139 0.8427
vt 0.9 0.827
vt 0.8759 0.7991
vt 0.8759 0.7991
vt 0.9 0.827
vt 0.9995 0.6659
vt 0.3514 0.9884
vt 0.5269 0.8751
vt 0.5143 0.9732
vt 0.3649 0.8751
vt 0.5151 0.8005
vt 0.3463 0.7874
vt 0.614 0.8865
vt 0.2454 0.9784
vt 0.1705 0.8517
vt 0.231 0.8375
vt 0.1705 0.9943
vt 0.1713 0.7672
vt 0.0719 0.9943
vt 0.0183 0.8427
vt 0.0719 0.8517
vt 0.0047 0.9773
vt 0.0744 0.7683
vt 0.5186 0.0392
vt 0.4872 0.0347
vt 0.4973 0.0617
vt 0.4872 0.0897
vt 0.5186 0.0852
vt 0.5374 0.0617
vt 0.4908 0.0617
vt 0.4994 0.088
vt 0.5194 0.088
vt 0.5091 0.0781
vt 0.485 0.0835
vt 0.4881 0.0482
vt 0.4994 0.0316
vt 0.5194 0.0316
vt 0.5349 0.0842
vt 0.5318 0.0489
vt 0.5618 0.4409
vt 0.5568 0.4388
vt 0.5186 0.4327
vt 0.5186 0.4351
vt 0.5713 0.6728
vt 0.5442 0.6744
vt 0.5459 0.6231
vt 0.586 0.6185
vt 0.5442 0.6733
vt 0.5459 0.626
vt 0.521 0.6719
vt 0.5108 0.6316
vt 0.513 0.6725
vt 0.499 0.6351
vt 0.5498 0.5521
vt 0.565 0.5469
vt 0.5407 0.5436
vt 0.5203 0.5542
vt 0.5158 0.5496
vt 0.5586 0.5333
vt 0.5159 0.5339
vt 0.561 0.505
vt 0.5662 0.4845
vt 0.5162 0.5023
vt 0.5367 0.4838
vt 0.4956 0.4981
vt 0.5026 0.4954
vt 0.5031 0.4895
vt 0.4961 0.4922
vt 0.5621 0.4767
vt 0.52 0.4746
vt 0.5199 0.4841
vt 0.5195 0.5187
vt 0.5051 0.5248
vt 0.52 0.5065
vt 0.5056 0.5126
vt 0.5287 0.0819
vt 0.5022 0.0516
vt 0.5254 0.0516
vt 0.4989 0.0819
vt 0.5798 0.6879
vt 0.4984 0.656
vt 0.5798 0.656
vt 0.4984 0.6879
vt 0.4984 0.656
vt 0.4984 0.6879
vt 0.5798 0.656
vt 0.5798 0.6879
vt 0.6278 0.6761
vt 0.5047 0.0963
vt 0.6185 0.7704
vt 0.8704 0.7539
vt 0.8612 0.7176
vt 0.8608 0.8329
vt 0.8702 0.8038
vt 0.883 0.726
vt 0.8689 0.6961
vt 0.9172 0.7776
vt 0.8738 0.7903
vt 0.8522 0.7092
vt 0.818 0.8289
vt 0.8248 0.6562
vt 0.8567 0.6488
vt 0.8163 0.6555
vt 0.9159 0.7747
vt 0.8402 0.8569
vt 0.8348 0.8777
vt 0.916 0.838
vt 0.9156 0.8372
vt 0.8795 0.8433
vt 0.9101 0.8744
vt 0.8379 0.6199
vt 0.865 0.6131
vt 0.8396 0.6317
vt 0.8325 0.8784
vt 0.5315 0.0478
vt 0.8255 0.5662
vt 0.891 0.5758
vt 0.8654 0.561
vt 0.8025 0.5187
vt 0.8461 0.4564
vt 0.9064 0.5232
vt 0.8192 0.5092
vt 0.81 0.4719
vt 0.7983 0.4158
vt 0.9147 0.4506
vt 0.8562 0.352
vt 0.8216 0.321
vt 0.917 0.339
vt 0.8806 0.3618
vt 0.8621 0.4764
vt 0.8823 0.1608
vt 0.8691 0.086
vt 0.9398 0.1219
vt 0.9569 0.125
vt 0.8893 0.1214
vt 0.9051 0.0369
vt 0.9376 0.0833
vt 0.8969 0.0861
vt 0.8042 0.0767
vt 0.7568 0.1118
vt 0.8155 0.0768
vt 0.8085 0.0434
vt 0.6969 0.0717
vt 0.7494 0.1389
vt 0.7105 0.0727
vt 0.7494 0.1389
vt 0.7568 0.1118
vt 0.7049 0.0405
vt 0.7343 0.0055
vt 0.7551 0.0393
vt 0.7105 0.0727
vt 0.6425 0.2273
vt 0.7065 0.1179
vt 0.6407 0.0202
vt 0.6416 0.0845
vt 0.6414 0.0821
vt 0.9896 0.241
vt 0.919 0.2124
vt 0.5094 0.0307
vt 0.4903 0.1022
vt 0.5085 0.0751
vt 0.5407 0.1003
vt 0.9786 0.0859
vt 0.5104 0.0721
vt 0.5272 0.0725
vt 0.5188 0.0849
vt 0.5178 0.0434
vt 0.5287 0.0816
vt 0.9778 0.6372
vt 0.9725 0.6605
vt 0.9478 0.6531
vt 0.9299 0.6789
vt 0.9642 0.6864
vt 0.9984 0.6939
vt 0.9813 0.746
vt 0.9813 0.746
vt 0.9984 0.6939
vt 0.947 0.7386
vt 0.9642 0.6864
vt 0.9127 0.7311
vt 0.9299 0.6789
vt 0.9127 0.7311
vt 0.947 0.7386
vt 0.9649 0.8152
vt 0.9649 0.8152
vt 0.9298 0.7907
vt 0.895 0.7733
vt 0.895 0.7733
vt 0.9298 0.7907
vt 0.9139 0.8427
vt 0.9139 0.8427
vt 0.9 0.827
vt 0.8759 0.7991
vt 0.8759 0.7991
vt 0.9 0.827
vt 0.9995 0.6659
vt 0.3514 0.9884
vt 0.5143 0.9732
vt 0.5269 0.8751
vt 0.3649 0.8751
vt 0.5151 0.8005
vt 0.3463 0.7874
vt 0.614 0.8865
vt 0.2454 0.9784
vt 0.231 0.8375
vt 0.1705 0.8517
vt 0.1705 0.9943
vt 0.1713 0.7672
vt 0.0719 0.9943
vt 0.0719 0.8517
vt 0.0183 0.8427
vt 0.0047 0.9773
vt 0.0744 0.7683
vt 0.5186 0.0392
vt 0.4973 0.0617
vt 0.4872 0.0347
vt 0.5186 0.0852
vt 0.4872 0.0897
vt 0.5374 0.0617
vt 0.4908 0.0617
vt 0.4994 0.088
vt 0.5091 0.0781
vt 0.5194 0.088
vt 0.485 0.0835
vt 0.4881 0.0482
vt 0.4994 0.0316
vt 0.5194 0.0316
vt 0.5349 0.0842
vt 0.5318 0.0489
vt 0.5618 0.4409
vt 0.5186 0.4327
vt 0.5568 0.4388
vt 0.5186 0.4351
vt 0.5713 0.6728
vt 0.5459 0.6231
vt 0.5442 0.6744
vt 0.586 0.6185
vt 0.5442 0.6733
vt 0.5459 0.626
vt 0.5108 0.6316
vt 0.521 0.6719
vt 0.499 0.6351
vt 0.513 0.6725
vt 0.5498 0.5521
vt 0.565 0.5469
vt 0.5407 0.5436
vt 0.5203 0.5542
vt 0.5158 0.5496
vt 0.5586 0.5333
vt 0.5159 0.5339
vt 0.561 0.505
vt 0.5662 0.4845
vt 0.5162 0.5023
vt 0.5367 0.4838
vt 0.4956 0.4981
vt 0.5031 0.4895
vt 0.5026 0.4954
vt 0.4961 0.4922
vt 0.5621 0.4767
vt 0.52 0.4746
vt 0.5199 0.4841
vt 0.5195 0.5187
vt 0.5051 0.5248
vt 0.52 0.5065
vt 0.5056 0.5126
vt 0.5287 0.0819
vt 0.5254 0.0516
vt 0.5022 0.0516
vt 0.4989 0.0819
vt 0.5798 0.6879
vt 0.5798 0.656
vt 0.4984 0.656
vt 0.4984 0.6879
vt 0.4984 0.656
vt 0.4984 0.6879
vt 0.5798 0.656
vt 0.5798 0.6879
vt 0.6278 0.6761
vt 0.5047 0.0963
vt 0.6185 0.7704
vt 0.5976 0.4283
vt 0.6237 0.4148
vt 0.5951 0.3701
vt 0.7106 0.5163
vt 0.7329 0.4884
vt 0.667 0.4578
vt 0.6156 0.4848
vt 0.7077 0.5563
vt 0.3993 0.1198
vt 0.4582 0.1493
vt 0.4284 0.1756
vt 0.5628 0.2871
vt 0.5635 0.1568
vt 0.5351 0.2109
vt 0.4014 0.0176
vt 0.4343 0.0842
vt 0.4804 0.1216
vt 0.4177 0.3239
vt 0.3853 0.3043
vt 0.4231 0.27
vt 0.3939 0.2242
vt 0.3657 0.3245
vt 0.4131 0.3428
vt 0.3876 0.3662
vt 0.4211 0.369
vt 0.442 0.4547
vt 0.5114 0.3008
vt 0.4972 0.4053
vt 0.4384 0.4021
vt 0.5224 0.3504
vt 0.5654 0.3091
vt 0.3704 0.3721
vt 0.5132 0.4207
vt 0.4588 0.4249
vt 0.5946 0.3199
vt 0.5584 0.3617
vt 0.4211 0.369
vt 0.4384 0.4021
vt 0.442 0.4547
vt 0.4384 0.4021
vt 0.4588 0.4249
vt 0.442 0.4547
vt 0.4907 0.0694
vt 0.5022 0.0712
vt 0.5024 0.0598
vt 0.4942 0.0529
vt 0.5047 0.0806
vt 0.5329 0.0646
vt 0.5012 0.0753
vt 0.5976 0.4283
vt 0.5951 0.3701
vt 0.6237 0.4148
vt 0.7106 0.5163
vt 0.667 0.4578
vt 0.7329 0.4884
vt 0.6156 0.4848
vt 0.7077 0.5563
vt 0.3993 0.1198
vt 0.4284 0.1756
vt 0.4582 0.1493
vt 0.5628 0.2871
vt 0.5635 0.1568
vt 0.5351 0.2109
vt 0.4343 0.0842
vt 0.4014 0.0176
vt 0.4804 0.1216
vt 0.4177 0.3239
vt 0.4231 0.27
vt 0.3853 0.3043
vt 0.3939 0.2242
vt 0.3876 0.3662
vt 0.4131 0.3428
vt 0.4211 0.369
vt 0.5114 0.3008
vt 0.4384 0.4021
vt 0.4972 0.4053
vt 0.5224 0.3504
vt 0.5654 0.3091
vt 0.4211 0.369
vt 0.442 0.4547
vt 0.4384 0.4021
vt 0.4384 0.4021
vt 0.442 0.4547
vt 0.4588 0.4249
vt 0.4907 0.0694
vt 0.5024 0.0598
vt 0.5022 0.0712
vt 0.4942 0.0529
vt 0.5047 0.0806
vt 0.5329 0.0646
vt 0.5012 0.0753
vt 0.3029 0.0005
vt 0.3029 0.1114
vt 0.3469 0.1114
vt 0.3029 0.0005
vt 0.3469 0.1114
vt 0.3029 0.1114
vt 0.3029 0.5917
vt 0.371 0.5847
vt 0.371 0.5847
vt 0.3029 0.5917
vt 0.3029 0.6662
vt 0.3453 0.6722
vt 0.3453 0.6722
vt 0.3029 0.6662
vt 0.3029 0.9835
vt 0.3405 0.9558
vt 0.3029 0.9558
vt 0.3029 0.9558
vt 0.3029 0.7553
vt 0.35 0.7033
vt 0.35 0.7033
vt 0.3029 0.7553
vt 0.3977 0.7253
vt 0.4448 0.7508
vt 0.4448 0.694
vt 0.3977 0.7253
vt 0.4448 0.694
vt 0.4448 0.7508
vt 0.3277 0.7808
vt 0.3277 0.7808
vt 0.3277 0.7808
vt 0.3029 0.7553
vt 0.3029 0.9243
vt 0.3277 0.9243
vt 0.3029 0.7574
vt 0.3029 0.9243
vt 0.3029 0.7553
vt 0.3029 0.9243
vt 0.2589 0.1114
vt 0.2589 0.1114
vt 0.2348 0.5847
vt 0.2348 0.5847
vt 0.2605 0.6722
vt 0.2605 0.6722
vt 0.2653 0.9558
vt 0.2558 0.7033
vt 0.2558 0.7033
vt 0.2081 0.7253
vt 0.161 0.694
vt 0.161 0.7508
vt 0.2081 0.7253
vt 0.161 0.7508
vt 0.161 0.694
vt 0.2781 0.7808
vt 0.2781 0.7808
vt 0.2781 0.7808
vt 0.2781 0.9243
vt 0.7476 0.9451
vt 0.6833 0.8809
vt 0.83 0.9784
vt 0.7944 0.9122
vt 0.8437 0.9688
vt 0.9128 0.996
vt 0.5699 0.996
vt 0.6517 0.9551
vt 0.7033 0.9417
vt 0.7476 0.9451
vt 0.83 0.9784
vt 0.6833 0.8809
vt 0.7944 0.9122
vt 0.8437 0.9688
vt 0.9128 0.996
vt 0.5699 0.996
vt 0.6517 0.9551
vt 0.7033 0.9417
vt 0.7476 0.9451
vt 0.83 0.9784
vt 0.6833 0.8809
vt 0.7944 0.9122
vt 0.8437 0.9688
vt 0.9128 0.996
vt 0.5699 0.996
vt 0.6517 0.9551
vt 0.7033 0.9417
vt 0.7476 0.9451
vt 0.6833 0.8809
vt 0.83 0.9784
vt 0.7944 0.9122
vt 0.8437 0.9688
vt 0.9128 0.996
vt 0.5699 0.996
vt 0.6517 0.9551
vt 0.7033 0.9417
vt 0.0013 0.0027
vt 0.0062 0.7723
vt 0.1624 0.6827
vt 0.0936 0.1122
vt 0.1432 0.0072
vt 0.1799 0.0478
vt 0.2129 0.2723
vt 0.1432 0.3355
vt 0.0936 0.1122
vt 0.1624 0.6827
vt 0.1663 0.6903
vt 0.1624 0.6827
vt 0.0062 0.7723
vt 0.0013 0.7975
vt 0.0013 0.7975
vt 0.1663 0.6903
vt 0.1624 0.6827
vt 0.1624 0.6827
vt 0.0936 0.1122
vt 0.2129 0.2723
vt 0.1799 0.0478
vt 0.0936 0.1122
vt 0.1663 0.6903
vt 0.1624 0.6827
vt 0.1624 0.6827
vt 0.0013 0.7975
vt 0.0062 0.7723
vt 0.0013 0.7975
vt 0.1624 0.6827
vt 0.1663 0.6903
f 1/1/1 3/3/3 2/2/2
f 4/4/4 1/1/1 2/2/2
f 5/5/5 6/6/6 4/4/4
f 4/4/4 7/7/7 5/5/5
f 3/3/3 9/9/9 8/8/8
f 3/3/3 1/1/1 9/9/9
f 10/10/10 12/12/12 11/11/11
f 8/8/8 9/9/9 11/11/11
f 13/13/13 14/14/14 11/11/11
f 13/13/13 11/11/11 12/12/12
f 13/13/13 12/12/12 15/15/15
f 13/13/13 15/15/15 16/16/16
f 3/3/3 17/17/17 2/2/2
f 17/17/17 3/3/3 18/18/18
f 8/8/8 18/18/18 3/3/3
f 18/18/18 8/8/8 19/19/19
f 14/14/14 20/20/20 11/11/11
f 20/20/20 14/14/14 21/21/21
f 20/20/20 19/19/19 8/8/8
f 8/8/8 11/11/11 20/20/20
f 4/4/4 6/6/6 1/1/1
f 1/1/1 22/22/22 9/9/9
f 22/22/22 1/1/1 6/6/6
f 23/23/23 5/5/5 24/24/24
f 5/5/5 23/23/23 25/25/25
f 11/11/11 9/9/9 10/10/10
f 26/26/26 27/27/27 12/12/12
f 27/27/27 28/28/28 23/23/23
f 23/23/23 15/15/15 27/27/27
f 19/19/19 29/29/29 18/18/18
f 29/29/29 19/19/19 30/30/30
f 18/18/18 31/31/31 17/17/17
f 31/31/31 18/18/18 32/32/32
f 21/21/21 33/33/33 20/20/20
f 33/33/33 21/21/21 34/34/34
f 20/20/20 30/30/30 19/19/19
f 30/30/30 20/20/20 33/33/33
f 22/22/22 6/6/6 25/25/25
f 28/28/28 25/25/25 23/23/23
f 6/6/6 5/5/5 25/25/25
f 12/12/12 27/27/27 15/15/15
f 28/28/28 27/27/27 26/26/26
f 23/23/23 35/35/35 15/15/15
f 15/15/15 36/36/36 16/16/16
f 36/36/36 15/15/15 35/35/35
f 35/35/35 23/23/23 24/24/24
f 24/24/24 5/5/5 7/7/7
f 37/37/37 39/39/39 38/38/38
f 30/30/30 40/40/40 29/29/29
f 40/40/40 30/30/30 41/41/41
f 29/29/29 32/32/32 18/18/18
f 32/32/32 29/29/29 40/40/40
f 34/34/34 42/42/42 33/33/33
f 42/42/42 34/34/34 43/43/43
f 33/33/33 41/41/41 30/30/30
f 41/41/41 33/33/33 42/42/42
f 44/44/44 46/46/46 45/45/45
f 47/47/47 45/45/45 40/40/40
f 40/40/40 41/41/41 48/48/48
f 40/40/40 45/45/45 32/32/32
f 49/49/49 51/51/51 50/50/50
f 52/52/52 44/44/44 53/53/53
f 43/43/43 51/51/51 42/42/42
f 42/42/42 48/48/48 41/41/41
f 48/48/48 42/42/42 54/54/54
f 53/53/53 56/56/56 55/55/55
f 48/48/48 47/47/47 40/40/40
f 47/47/47 48/48/48 57/57/57
f 58/58/58 59/59/59 52/52/52
f 59/59/59 54/54/54 42/42/42
f 42/42/42 51/51/51 59/59/59
f 57/57/57 56/56/56 47/47/47
f 48/48/48 54/54/54 57/57/57
f 55/55/55 58/58/58 52/52/52
f 52/52/52 53/53/53 55/55/55
f 58/58/58 57/57/57 54/54/54
f 60/60/60 62/62/62 61/61/61
f 60/60/60 64/64/64 63/63/63
f 62/62/62 66/66/66 65/65/65
f 65/65/65 61/61/61 62/62/62
f 65/65/65 67/67/67 64/64/64
f 67/67/67 65/65/65 66/66/66
f 60/60/60 68/68/68 62/62/62
f 68/68/68 60/60/60 69/69/69
f 70/70/70 69/69/69 60/60/60
f 60/60/60 63/63/63 70/70/70
f 62/62/62 71/71/71 66/66/66
f 71/71/71 62/62/62 68/68/68
f 71/71/71 70/70/70 67/67/67
f 67/67/67 66/66/66 71/71/71
f 72/72/72 69/69/69 73/73/73
f 74/74/74 76/76/76 75/75/75
f 77/77/77 79/79/79 78/78/78
f 78/78/78 68/68/68 72/72/72
f 80/80/80 78/78/78 79/79/79
f 80/80/80 82/82/82 81/81/81
f 77/77/77 72/72/72 83/83/83
f 80/80/80 77/77/77 83/83/83
f 82/82/82 84/84/84 72/72/72
f 72/72/72 81/81/81 82/82/82
f 85/85/85 82/82/82 80/80/80
f 61/61/61 87/87/87 86/86/86
f 64/64/64 86/86/86 87/87/87
f 10/10/10 9/9/9 22/22/22
f 52/52/52 51/51/51 49/49/49
f 44/44/44 52/52/52 49/49/49
f 32/32/32 45/45/45 46/46/46
f 50/50/50 51/51/51 43/43/43
f 44/44/44 45/45/45 53/53/53
f 52/52/52 59/59/59 51/51/51
f 58/58/58 54/54/54 59/59/59
f 88/88/88 90/90/90 89/89/89
f 89/89/89 91/91/91 88/88/88
f 65/65/65 64/64/64 92/92/92
f 92/92/92 61/61/61 65/65/65
f 67/67/67 70/70/70 63/63/63
f 63/63/63 64/64/64 67/67/67
f 68/68/68 78/78/78 71/71/71
f 68/68/68 69/69/69 72/72/72
f 69/69/69 70/70/70 80/80/80
f 70/70/70 78/78/78 80/80/80
f 70/70/70 71/71/71 78/78/78
f 77/77/77 78/78/78 72/72/72
f 72/72/72 84/84/84 83/83/83
f 72/72/72 73/73/73 81/81/81
f 73/73/73 80/80/80 81/81/81
f 77/77/77 80/80/80 79/79/79
f 93/93/93 95/95/95 94/94/94
f 85/85/85 80/80/80 83/83/83
f 93/93/93 96/96/96 95/95/95
f 61/61/61 86/86/86 60/60/60
f 86/86/86 64/64/64 60/60/60
f 47/47/47 53/53/53 45/45/45
f 53/53/53 47/47/47 56/56/56
f 26/26/26 12/12/12 10/10/10
f 97/97/97 98/98/98 38/38/38
f 98/98/98 37/37/37 38/38/38
f 99/99/99 101/101/101 100/100/100
f 99/99/99 100/100/100 102/102/102
f 99/99/99 102/102/102 103/103/103
f 104/104/104 106/106/106 105/105/105
f 104/104/104 105/105/105 107/107/107
f 107/107/107 105/105/105 108/108/108
f 107/107/107 108/108/108 109/109/109
f 109/109/109 108/108/108 110/110/110
f 109/109/109 110/110/110 111/111/111
f 111/111/111 110/110/110 112/112/112
f 111/111/111 112/112/112 102/102/102
f 102/102/102 112/112/112 113/113/113
f 102/102/102 113/113/113 103/103/103
f 103/103/103 113/113/113 106/106/106
f 103/103/103 106/106/106 104/104/104
f 106/106/106 115/115/115 114/114/114
f 106/106/106 114/114/114 105/105/105
f 105/105/105 114/114/114 116/116/116
f 105/105/105 116/116/116 108/108/108
f 108/108/108 116/116/116 117/117/117
f 108/108/108 117/117/117 110/110/110
f 110/110/110 117/117/117 118/118/118
f 110/110/110 118/118/118 112/112/112
f 112/112/112 118/118/118 119/119/119
f 112/112/112 119/119/119 113/113/113
f 113/113/113 119/119/119 115/115/115
f 113/113/113 115/115/115 106/106/106
f 115/115/115 121/121/121 120/120/120
f 115/115/115 120/120/120 114/114/114
f 114/114/114 120/120/120 122/122/122
f 114/114/114 122/122/122 116/116/116
f 116/116/116 122/122/122 123/123/123
f 116/116/116 123/123/123 117/117/117
f 117/117/117 123/123/123 124/124/124
f 117/117/117 124/124/124 118/118/118
f 118/118/118 124/124/124 125/125/125
f 118/118/118 125/125/125 119/119/119
f 119/119/119 125/125/125 121/121/121
f 119/119/119 121/121/121 115/115/115
f 126/126/126 99/99/99 104/104/104
f 101/101/101 99/99/99 126/126/126
f 99/99/99 103/103/103 104/104/104
f 111/111/111 101/101/101 109/109/109
f 101/101/101 111/111/111 100/100/100
f 102/102/102 100/100/100 111/111/111
f 104/104/104 107/107/107 126/126/126
f 109/109/109 126/126/126 107/107/107
f 126/126/126 109/109/109 101/101/101
f 127/127/127 129/129/129 128/128/128
f 127/127/127 128/128/128 130/130/130
f 130/130/130 128/128/128 131/131/131
f 130/130/130 131/131/131 132/132/132
f 129/129/129 133/133/133 128/128/128
f 128/128/128 133/133/133 131/131/131
f 134/134/134 136/136/136 135/135/135
f 134/134/134 135/135/135 137/137/137
f 136/136/136 138/138/138 135/135/135
f 139/139/139 141/141/141 140/140/140
f 139/139/139 140/140/140 142/142/142
f 141/141/141 143/143/143 140/140/140
f 137/137/137 141/141/141 139/139/139
f 137/137/137 135/135/135 141/141/141
f 135/135/135 143/143/143 141/141/141
f 135/135/135 138/138/138 143/143/143
f 144/144/144 146/146/146 145/145/145
f 146/146/146 148/148/148 147/147/147
f 149/149/149 146/146/146 144/144/144
f 145/145/145 146/146/146 150/150/150
f 150/150/150 146/146/146 147/147/147
f 149/149/149 148/148/148 146/146/146
f 151/151/151 153/153/153 152/152/152
f 154/154/154 153/153/153 151/151/151
f 154/154/154 155/155/155 153/153/153
f 155/155/155 156/156/156 153/153/153
f 156/156/156 157/157/157 153/153/153
f 153/153/153 158/158/158 152/152/152
f 153/153/153 159/159/159 158/158/158
f 159/159/159 153/153/153 157/157/157
f 160/160/160 162/162/162 161/161/161
f 162/162/162 160/160/160 163/163/163
f 164/164/164 166/166/166 165/165/165
f 166/166/166 164/164/164 167/167/167
f 168/168/168 167/167/167 164/164/164
f 167/167/167 168/168/168 169/169/169
f 165/165/165 171/171/171 170/170/170
f 171/171/171 165/165/165 166/166/166
f 170/170/170 173/173/173 172/172/172
f 173/173/173 170/170/170 171/171/171
f 172/172/172 169/169/169 168/168/168
f 169/169/169 172/172/172 173/173/173
f 174/174/174 167/167/167 175/175/175
f 167/167/167 174/174/174 166/166/166
f 169/169/169 175/175/175 167/167/167
f 175/175/175 169/169/169 176/176/176
f 166/166/166 177/177/177 171/171/171
f 177/177/177 166/166/166 174/174/174
f 171/171/171 178/178/178 173/173/173
f 178/178/178 171/171/171 177/177/177
f 173/173/173 176/176/176 169/169/169
f 176/176/176 173/173/173 178/178/178
f 175/175/175 179/179/179 174/174/174
f 180/180/180 174/174/174 179/179/179
f 174/174/174 180/180/180 177/177/177
f 178/178/178 177/177/177 180/180/180
f 175/175/175 181/181/181 179/179/179
f 181/181/181 175/175/175 182/182/182
f 179/179/179 183/183/183 180/180/180
f 183/183/183 179/179/179 181/181/181
f 176/176/176 182/182/182 175/175/175
f 182/182/182 176/176/176 184/184/184
f 185/185/185 187/187/187 186/186/186
f 187/187/187 185/185/185 188/188/188
f 182/182/182 189/189/189 181/181/181
f 181/181/181 190/190/190 183/183/183
f 190/190/190 181/181/181 189/189/189
f 191/191/191 183/183/183 190/190/190
f 182/182/182 161/161/161 189/189/189
f 161/161/161 182/182/182 160/160/160
f 189/189/189 162/162/162 190/190/190
f 162/162/162 189/189/189 161/161/161
f 184/184/184 160/160/160 182/182/182
f 160/160/160 184/184/184 163/163/163
f 190/190/190 163/163/163 191/191/191
f 163/163/163 190/190/190 162/162/162
f 191/191/191 163/163/163 184/184/184
f 178/178/178 192/192/192 176/176/176
f 192/192/192 178/178/178 193/193/193
f 176/176/176 194/194/194 184/184/184
f 194/194/194 176/176/176 192/192/192
f 184/184/184 195/195/195 191/191/191
f 195/195/195 184/184/184 194/194/194
f 193/193/193 186/186/186 192/192/192
f 186/186/186 193/193/193 185/185/185
f 192/192/192 187/187/187 194/194/194
f 187/187/187 192/192/192 186/186/186
f 194/194/194 188/188/188 195/195/195
f 188/188/188 194/194/194 187/187/187
f 195/195/195 185/185/185 193/193/193
f 185/185/185 195/195/195 188/188/188
f 183/183/183 191/191/191 195/195/195
f 183/183/183 195/195/195 180/180/180
f 180/180/180 195/195/195 178/178/178
f 195/195/195 193/193/193 178/178/178
f 196/196/196 198/198/198 197/197/197
f 196/196/196 197/197/197 199/199/199
f 200/200/200 202/202/202 201/201/201
f 200/200/200 201/201/201 203/203/203
f 203/203/203 201/201/201 204/204/204
f 203/203/203 204/204/204 205/205/205
f 205/205/205 204/204/204 206/206/206
f 205/205/205 206/206/206 207/207/207
f 202/202/202 208/208/208 206/206/206
f 206/206/206 208/208/208 207/207/207
f 200/200/200 208/208/208 202/202/202
f 199/199/199 209/209/209 196/196/196
f 208/208/208 200/200/200 210/210/210
f 208/208/208 210/210/210 207/207/207
f 211/211/211 2/2/2 212/212/212
f 4/4/4 2/2/2 211/211/211
f 213/213/213 4/4/4 214/214/214
f 4/4/4 213/213/213 7/7/7
f 212/212/212 216/216/216 215/215/215
f 212/212/212 215/215/215 211/211/211
f 217/217/217 219/219/219 218/218/218
f 216/216/216 219/219/219 215/215/215
f 13/13/13 219/219/219 14/14/14
f 13/13/13 218/218/218 219/219/219
f 13/13/13 220/220/220 218/218/218
f 13/13/13 16/16/16 220/220/220
f 212/212/212 2/2/2 17/17/17
f 17/17/17 221/221/221 212/212/212
f 216/216/216 212/212/212 221/221/221
f 221/221/221 222/222/222 216/216/216
f 14/14/14 219/219/219 223/223/223
f 223/223/223 21/21/21 14/14/14
f 223/223/223 216/216/216 222/222/222
f 216/216/216 223/223/223 219/219/219
f 4/4/4 211/211/211 214/214/214
f 211/211/211 215/215/215 224/224/224
f 224/224/224 214/214/214 211/211/211
f 225/225/225 226/226/226 213/213/213
f 213/213/213 227/227/227 225/225/225
f 219/219/219 217/217/217 215/215/215
f 228/228/228 218/218/218 229/229/229
f 229/229/229 225/225/225 230/230/230
f 225/225/225 229/229/229 220/220/220
f 222/222/222 221/221/221 231/231/231
f 231/231/231 232/232/232 222/222/222
f 221/221/221 17/17/17 31/31/31
f 31/31/31 32/32/32 221/221/221
f 21/21/21 223/223/223 233/233/233
f 233/233/233 34/34/34 21/21/21
f 223/223/223 222/222/222 232/232/232
f 232/232/232 233/233/233 223/223/223
f 224/224/224 227/227/227 214/214/214
f 230/230/230 225/225/225 227/227/227
f 214/214/214 227/227/227 213/213/213
f 218/218/218 220/220/220 229/229/229
f 230/230/230 228/228/228 229/229/229
f 225/225/225 220/220/220 234/234/234
f 220/220/220 16/16/16 36/36/36
f 36/36/36 234/234/234 220/220/220
f 234/234/234 226/226/226 225/225/225
f 226/226/226 7/7/7 213/213/213
f 235/235/235 38/38/38 39/39/39
f 232/232/232 231/231/231 236/236/236
f 236/236/236 237/237/237 232/232/232
f 231/231/231 221/221/221 32/32/32
f 32/32/32 236/236/236 231/231/231
f 34/34/34 233/233/233 238/238/238
f 238/238/238 43/43/43 34/34/34
f 233/233/233 232/232/232 237/237/237
f 237/237/237 238/238/238 233/233/233
f 44/44/44 239/239/239 46/46/46
f 240/240/240 236/236/236 239/239/239
f 236/236/236 241/241/241 237/237/237
f 236/236/236 32/32/32 239/239/239
f 49/49/49 50/50/50 242/242/242
f 243/243/243 244/244/244 44/44/44
f 43/43/43 238/238/238 242/242/242
f 238/238/238 237/237/237 241/241/241
f 241/241/241 245/245/245 238/238/238
f 244/244/244 247/247/247 246/246/246
f 241/241/241 236/236/236 240/240/240
f 240/240/240 248/248/248 241/241/241
f 249/249/249 243/243/243 250/250/250
f 250/250/250 238/238/238 245/245/245
f 238/238/238 250/250/250 242/242/242
f 248/248/248 240/240/240 246/246/246
f 241/241/241 248/248/248 245/245/245
f 247/247/247 243/243/243 249/249/249
f 243/243/243 247/247/247 244/244/244
f 249/249/249 245/245/245 248/248/248
f 251/251/251 253/253/253 252/252/252
f 251/251/251 255/255/255 254/254/254
f 252/252/252 257/257/257 256/256/256
f 257/257/257 252/252/252 253/253/253
f 257/257/257 254/254/254 258/258/258
f 258/258/258 256/256/256 257/257/257
f 251/251/251 252/252/252 259/259/259
f 259/259/259 260/260/260 251/251/251
f 261/261/261 251/251/251 260/260/260
f 251/251/251 261/261/261 255/255/255
f 252/252/252 256/256/256 262/262/262
f 262/262/262 259/259/259 252/252/252
f 262/262/262 258/258/258 261/261/261
f 258/258/258 262/262/262 256/256/256
f 263/263/263 264/264/264 260/260/260
f 265/265/265 267/267/267 266/266/266
f 268/268/268 270/270/270 269/269/269
f 270/270/270 263/263/263 259/259/259
f 271/271/271 269/269/269 270/270/270
f 271/271/271 273/273/273 272/272/272
f 268/268/268 274/274/274 263/263/263
f 271/271/271 274/274/274 268/268/268
f 272/272/272 263/263/263 275/275/275
f 263/263/263 272/272/272 273/273/273
f 276/276/276 271/271/271 272/272/272
f 253/253/253 278/278/278 277/277/277
f 254/254/254 277/277/277 278/278/278
f 217/217/217 224/224/224 215/215/215
f 243/243/243 49/49/49 242/242/242
f 44/44/44 49/49/49 243/243/243
f 32/32/32 46/46/46 239/239/239
f 50/50/50 43/43/43 242/242/242
f 44/44/44 244/244/244 239/239/239
f 243/243/243 242/242/242 250/250/250
f 249/249/249 250/250/250 245/245/245
f 279/279/279 281/281/281 280/280/280
f 281/281/281 279/279/279 282/282/282
f 257/257/257 283/283/283 254/254/254
f 283/283/283 257/257/257 253/253/253
f 258/258/258 255/255/255 261/261/261
f 255/255/255 258/258/258 254/254/254
f 259/259/259 262/262/262 270/270/270
f 259/259/259 263/263/263 260/260/260
f 260/260/260 271/271/271 261/261/261
f 261/261/261 271/271/271 270/270/270
f 261/261/261 270/270/270 262/262/262
f 268/268/268 263/263/263 270/270/270
f 263/263/263 274/274/274 275/275/275
f 263/263/263 273/273/273 264/264/264
f 264/264/264 273/273/273 271/271/271
f 268/268/268 269/269/269 271/271/271
f 284/284/284 286/286/286 285/285/285
f 276/276/276 274/274/274 271/271/271
f 284/284/284 285/285/285 287/287/287
f 253/253/253 251/251/251 278/278/278
f 278/278/278 251/251/251 254/254/254
f 240/240/240 239/239/239 244/244/244
f 244/244/244 246/246/246 240/240/240
f 228/228/228 217/217/217 218/218/218
f 97/97/97 38/38/38 288/288/288
f 288/288/288 38/38/38 235/235/235
f 289/289/289 291/291/291 290/290/290
f 289/289/289 292/292/292 291/291/291
f 289/289/289 293/293/293 292/292/292
f 294/294/294 296/296/296 295/295/295
f 294/294/294 297/297/297 296/296/296
f 297/297/297 298/298/298 296/296/296
f 297/297/297 299/299/299 298/298/298
f 299/299/299 300/300/300 298/298/298
f 299/299/299 301/301/301 300/300/300
f 301/301/301 302/302/302 300/300/300
f 301/301/301 292/292/292 302/302/302
f 292/292/292 303/303/303 302/302/302
f 292/292/292 293/293/293 303/303/303
f 293/293/293 295/295/295 303/303/303
f 293/293/293 294/294/294 295/295/295
f 295/295/295 305/305/305 304/304/304
f 295/295/295 296/296/296 305/305/305
f 296/296/296 306/306/306 305/305/305
f 296/296/296 298/298/298 306/306/306
f 298/298/298 307/307/307 306/306/306
f 298/298/298 300/300/300 307/307/307
f 300/300/300 308/308/308 307/307/307
f 300/300/300 302/302/302 308/308/308
f 302/302/302 309/309/309 308/308/308
f 302/302/302 303/303/303 309/309/309
f 303/303/303 304/304/304 309/309/309
f 303/303/303 295/295/295 304/304/304
f 304/304/304 311/311/311 310/310/310
f 304/304/304 305/305/305 311/311/311
f 305/305/305 312/312/312 311/311/311
f 305/305/305 306/306/306 312/312/312
f 306/306/306 313/313/313 312/312/312
f 306/306/306 307/307/307 313/313/313
f 307/307/307 314/314/314 313/313/313
f 307/307/307 308/308/308 314/314/314
f 308/308/308 315/315/315 314/314/314
f 308/308/308 309/309/309 315/315/315
f 309/309/309 310/310/310 315/315/315
f 309/309/309 304/304/304 310/310/310
f 316/316/316 294/294/294 289/289/289
f 290/290/290 316/316/316 289/289/289
f 289/289/289 294/294/294 293/293/293
f 301/301/301 299/299/299 290/290/290
f 290/290/290 291/291/291 301/301/301
f 292/292/292 301/301/301 291/291/291
f 294/294/294 316/316/316 297/297/297
f 299/299/299 297/297/297 316/316/316
f 316/316/316 290/290/290 299/299/299
f 317/317/317 319/319/319 318/318/318
f 317/317/317 320/320/320 319/319/319
f 320/320/320 321/321/321 319/319/319
f 320/320/320 322/322/322 321/321/321
f 318/318/318 319/319/319 323/323/323
f 319/319/319 321/321/321 323/323/323
f 324/324/324 326/326/326 325/325/325
f 324/324/324 327/327/327 326/326/326
f 325/325/325 326/326/326 328/328/328
f 329/329/329 331/331/331 330/330/330
f 329/329/329 332/332/332 331/331/331
f 330/330/330 331/331/331 333/333/333
f 327/327/327 329/329/329 330/330/330
f 327/327/327 330/330/330 326/326/326
f 326/326/326 330/330/330 333/333/333
f 326/326/326 333/333/333 328/328/328
f 334/334/334 336/336/336 335/335/335
f 335/335/335 338/338/338 337/337/337
f 339/339/339 334/334/334 335/335/335
f 336/336/336 340/340/340 335/335/335
f 340/340/340 338/338/338 335/335/335
f 339/339/339 335/335/335 337/337/337
f 341/341/341 343/343/343 342/342/342
f 344/344/344 341/341/341 342/342/342
f 344/344/344 342/342/342 345/345/345
f 345/345/345 342/342/342 346/346/346
f 346/346/346 342/342/342 347/347/347
f 342/342/342 343/343/343 348/348/348
f 342/342/342 348/348/348 349/349/349
f 349/349/349 347/347/347 342/342/342
f 350/350/350 352/352/352 351/351/351
f 351/351/351 353/353/353 350/350/350
f 354/354/354 356/356/356 355/355/355
f 355/355/355 357/357/357 354/354/354
f 358/358/358 354/354/354 357/357/357
f 357/357/357 359/359/359 358/358/358
f 356/356/356 361/361/361 360/360/360
f 360/360/360 355/355/355 356/356/356
f 361/361/361 363/363/363 362/362/362
f 362/362/362 360/360/360 361/361/361
f 363/363/363 358/358/358 359/359/359
f 359/359/359 362/362/362 363/363/363
f 364/364/364 365/365/365 357/357/357
f 357/357/357 355/355/355 364/364/364
f 359/359/359 357/357/357 365/365/365
f 365/365/365 366/366/366 359/359/359
f 355/355/355 360/360/360 367/367/367
f 367/367/367 364/364/364 355/355/355
f 360/360/360 362/362/362 368/368/368
f 368/368/368 367/367/367 360/360/360
f 362/362/362 359/359/359 366/366/366
f 366/366/366 368/368/368 362/362/362
f 365/365/365 364/364/364 369/369/369
f 370/370/370 369/369/369 364/364/364
f 364/364/364 367/367/367 370/370/370
f 368/368/368 370/370/370 367/367/367
f 365/365/365 369/369/369 371/371/371
f 371/371/371 372/372/372 365/365/365
f 369/369/369 370/370/370 373/373/373
f 373/373/373 371/371/371 369/369/369
f 366/366/366 365/365/365 372/372/372
f 372/372/372 374/374/374 366/366/366
f 375/375/375 377/377/377 376/376/376
f 376/376/376 378/378/378 375/375/375
f 372/372/372 371/371/371 379/379/379
f 371/371/371 373/373/373 380/380/380
f 380/380/380 379/379/379 371/371/371
f 381/381/381 380/380/380 373/373/373
f 372/372/372 379/379/379 352/352/352
f 352/352/352 350/350/350 372/372/372
f 379/379/379 380/380/380 351/351/351
f 351/351/351 352/352/352 379/379/379
f 374/374/374 372/372/372 350/350/350
f 350/350/350 353/353/353 374/374/374
f 380/380/380 381/381/381 353/353/353
f 353/353/353 351/351/351 380/380/380
f 381/381/381 374/374/374 353/353/353
f 368/368/368 366/366/366 382/382/382
f 382/382/382 383/383/383 368/368/368
f 366/366/366 374/374/374 384/384/384
f 384/384/384 382/382/382 366/366/366
f 374/374/374 381/381/381 385/385/385
f 385/385/385 384/384/384 374/374/374
f 383/383/383 382/382/382 377/377/377
f 377/377/377 375/375/375 383/383/383
f 382/382/382 384/384/384 376/376/376
f 376/376/376 377/377/377 382/382/382
f 384/384/384 385/385/385 378/378/378
f 378/378/378 376/376/376 384/384/384
f 385/385/385 383/383/383 375/375/375
f 375/375/375 378/378/378 385/385/385
f 373/373/373 385/385/385 381/381/381
f 373/373/373 370/370/370 385/385/385
f 370/370/370 368/368/368 385/385/385
f 385/385/385 368/368/368 383/383/383
f 386/386/386 388/388/388 387/387/387
f 386/386/386 389/389/389 388/388/388
f 390/390/390 392/392/392 391/391/391
f 390/390/390 393/393/393 392/392/392
f 393/393/393 394/394/394 392/392/392
f 393/393/393 395/395/395 394/394/394
f 395/395/395 396/396/396 394/394/394
f 395/395/395 397/397/397 396/396/396
f 391/391/391 396/396/396 398/398/398
f 396/396/396 397/397/397 398/398/398
f 390/390/390 391/391/391 398/398/398
f 389/389/389 386/386/386 399/399/399
f 398/398/398 400/400/400 390/390/390
f 398/398/398 397/397/397 400/400/400
f 401/401/401 403/403/403 402/402/402
f 404/404/404 406/406/406 405/405/405
f 407/407/407 401/401/401 406/406/406
f 401/401/401 402/402/402 406/406/406
f 404/404/404 408/408/408 407/407/407
f 407/407/407 406/406/406 404/404/404
f 409/409/409 411/411/411 410/410/410
f 412/412/412 410/410/410 411/411/411
f 413/413/413 410/410/410 414/414/414
f 412/412/412 414/414/414 410/410/410
f 409/409/409 416/416/416 415/415/415
f 416/416/416 409/409/409 410/410/410
f 413/413/413 417/417/417 410/410/410
f 417/417/417 416/416/416 410/410/410
f 418/418/418 420/420/420 419/419/419
f 419/419/419 420/420/420 421/421/421
f 422/422/422 424/424/424 423/423/423
f 420/420/420 418/418/418 425/425/425
f 424/424/424 426/426/426 425/425/425
f 423/423/423 424/424/424 425/425/425
f 420/420/420 425/425/425 427/427/427
f 425/425/425 429/429/429 428/428/428
f 430/430/430 431/431/431 427/427/427
f 430/430/430 425/425/425 428/428/428
f 422/422/422 432/432/432 424/424/424
f 426/426/426 424/424/424 432/432/432
f 433/433/433 429/429/429 434/434/434
f 429/429/429 433/433/433 428/428/428
f 435/435/435 430/430/430 436/436/436
f 430/430/430 435/435/435 431/431/431
f 425/425/425 418/418/418 423/423/423
f 425/425/425 430/430/430 427/427/427
f 433/433/433 430/430/430 428/428/428
f 430/430/430 433/433/433 436/436/436
f 437/437/437 439/439/439 438/438/438
f 440/440/440 442/442/442 441/441/441
f 443/443/443 445/445/445 444/444/444
f 446/446/446 445/445/445 443/443/443
f 447/447/447 444/444/444 448/448/448
f 448/448/448 444/444/444 445/445/445
f 449/449/449 444/444/444 447/447/447
f 450/450/450 452/452/452 451/451/451
f 453/453/453 455/455/455 454/454/454
f 456/456/456 454/454/454 450/450/450
f 450/450/450 454/454/454 452/452/452
f 453/453/453 456/456/456 457/457/457
f 456/456/456 453/453/453 454/454/454
f 458/458/458 460/460/460 459/459/459
f 461/461/461 459/459/459 460/460/460
f 462/462/462 463/463/463 460/460/460
f 461/461/461 460/460/460 463/463/463
f 458/458/458 465/465/465 464/464/464
f 464/464/464 460/460/460 458/458/458
f 462/462/462 460/460/460 466/466/466
f 466/466/466 460/460/460 464/464/464
f 467/467/467 469/469/469 468/468/468
f 469/469/469 470/470/470 468/468/468
f 422/422/422 472/472/472 471/471/471
f 468/468/468 473/473/473 467/467/467
f 471/471/471 473/473/473 426/426/426
f 472/472/472 473/473/473 471/471/471
f 468/468/468 474/474/474 473/473/473
f 473/473/473 476/476/476 475/475/475
f 477/477/477 474/474/474 478/478/478
f 477/477/477 476/476/476 473/473/473
f 422/422/422 471/471/471 432/432/432
f 426/426/426 432/432/432 471/471/471
f 433/433/433 434/434/434 475/475/475
f 475/475/475 476/476/476 433/433/433
f 435/435/435 436/436/436 477/477/477
f 477/477/477 478/478/478 435/435/435
f 473/473/473 472/472/472 467/467/467
f 473/473/473 474/474/474 477/477/477
f 433/433/433 476/476/476 477/477/477
f 477/477/477 436/436/436 433/433/433
f 479/479/479 481/481/481 480/480/480
f 482/482/482 484/484/484 483/483/483
f 485/485/485 487/487/487 486/486/486
f 488/488/488 485/485/485 486/486/486
f 489/489/489 490/490/490 487/487/487
f 490/490/490 486/486/486 487/487/487
f 491/491/491 489/489/489 487/487/487
f 492/492/492 494/494/494 493/493/493
f 495/495/495 497/497/497 496/496/496
f 494/494/494 499/499/499 498/498/498
f 494/494/494 498/498/498 493/493/493
f 497/497/497 501/501/501 500/500/500
f 497/497/497 500/500/500 496/496/496
f 499/499/499 503/503/503 502/502/502
f 499/499/499 502/502/502 498/498/498
f 501/501/501 505/505/505 504/504/504
f 501/501/501 504/504/504 500/500/500
f 506/506/506 508/508/508 507/507/507
f 506/506/506 507/507/507 509/509/509
f 503/503/503 510/510/510 502/502/502
f 510/510/510 503/503/503 511/511/511
f 505/505/505 512/512/512 504/504/504
f 512/512/512 505/505/505 513/513/513
f 514/514/514 516/516/516 515/515/515
f 517/517/517 519/519/519 518/518/518
f 510/510/510 515/515/515 520/520/520
f 515/515/515 510/510/510 514/514/514
f 521/521/521 517/517/517 513/513/513
f 517/517/517 521/521/521 519/519/519
f 511/511/511 514/514/514 510/510/510
f 514/514/514 511/511/511 516/516/516
f 517/517/517 518/518/518 512/512/512
f 512/512/512 513/513/513 517/517/517
f 522/522/522 524/524/524 523/523/523
f 524/524/524 522/522/522 525/525/525
f 523/523/523 527/527/527 526/526/526
f 527/527/527 523/523/523 524/524/524
f 526/526/526 529/529/529 528/528/528
f 529/529/529 526/526/526 527/527/527
f 528/528/528 525/525/525 522/522/522
f 525/525/525 528/528/528 529/529/529
f 525/525/525 508/508/508 524/524/524
f 508/508/508 525/525/525 507/507/507
f 524/524/524 506/506/506 527/527/527
f 527/527/527 509/509/509 529/529/529
f 509/509/509 507/507/507 525/525/525
f 525/525/525 529/529/529 509/509/509
f 492/492/492 493/493/493 530/530/530
f 495/495/495 531/531/531 497/497/497
f 530/530/530 498/498/498 532/532/532
f 530/530/530 493/493/493 498/498/498
f 497/497/497 533/533/533 501/501/501
f 497/497/497 531/531/531 533/533/533
f 532/532/532 502/502/502 534/534/534
f 532/532/532 498/498/498 502/502/502
f 501/501/501 535/535/535 505/505/505
f 501/501/501 533/533/533 535/535/535
f 506/506/506 536/536/536 508/508/508
f 506/506/506 509/509/509 536/536/536
f 534/534/534 502/502/502 510/510/510
f 510/510/510 537/537/537 534/534/534
f 505/505/505 535/535/535 538/538/538
f 538/538/538 513/513/513 505/505/505
f 539/539/539 541/541/541 540/540/540
f 542/542/542 544/544/544 543/543/543
f 510/510/510 545/545/545 541/541/541
f 541/541/541 539/539/539 510/510/510
f 546/546/546 513/513/513 542/542/542
f 542/542/542 543/543/543 546/546/546
f 537/537/537 510/510/510 539/539/539
f 539/539/539 540/540/540 537/537/537
f 542/542/542 538/538/538 544/544/544
f 538/538/538 542/542/542 513/513/513
f 547/547/547 523/523/523 524/524/524
f 524/524/524 548/548/548 547/547/547
f 523/523/523 526/526/526 527/527/527
f 527/527/527 524/524/524 523/523/523
f 526/526/526 528/528/528 529/529/529
f 529/529/529 527/527/527 526/526/526
f 528/528/528 547/547/547 548/548/548
f 548/548/548 529/529/529 528/528/528
f 548/548/548 524/524/524 508/508/508
f 508/508/508 536/536/536 548/548/548
f 524/524/524 527/527/527 506/506/506
f 506/506/506 508/508/508 524/524/524
f 527/527/527 529/529/529 509/509/509
f 509/509/509 506/506/506 527/527/527
f 509/509/509 548/548/548 536/536/536
f 548/548/548 509/509/509 529/529/529
f 549/549/549 551/551/551 550/550/550
f 552/552/552 551/551/551 553/553/553
f 553/553/553 551/551/551 554/554/554
f 551/551/551 552/552/552 550/550/550
f 551/551/551 555/555/555 554/554/554
f 551/551/551 556/556/556 555/555/555
f 551/551/551 557/557/557 556/556/556
f 551/551/551 549/549/549 557/557/557
f 558/558/558 560/560/560 559/559/559
f 561/561/561 562/562/562 559/559/559
f 562/562/562 563/563/563 559/559/559
f 559/559/559 560/560/560 561/561/561
f 559/559/559 563/563/563 564/564/564
f 559/559/559 564/564/564 565/565/565
f 559/559/559 565/565/565 566/566/566
f 559/559/559 566/566/566 558/558/558
f 567/567/567 569/569/569 568/568/568
f 570/570/570 571/571/571 568/568/568
f 571/571/571 572/572/572 568/568/568
f 568/568/568 569/569/569 570/570/570
f 568/568/568 572/572/572 573/573/573
f 568/568/568 573/573/573 574/574/574
f 568/568/568 574/574/574 575/575/575
f 568/568/568 575/575/575 567/567/567
f 576/576/576 578/578/578 577/577/577
f 579/579/579 578/578/578 580/580/580
f 580/580/580 578/578/578 581/581/581
f 578/578/578 579/579/579 577/577/577
f 578/578/578 582/582/582 581/581/581
f 578/578/578 583/583/583 582/582/582
f 578/578/578 584/584/584 583/583/583
f 578/578/578 576/576/576 584/584/584
f 585/585/585 587/587/587 586/586/586
f 587/587/587 585/585/585 588/588/588
f 589/589/589 591/591/591 590/590/590
f 591/591/591 589/589/589 592/592/592
f 593/593/593 595/595/595 594/594/594
f 596/596/596 598/598/598 597/597/597
f 599/599/599 601/601/601 600/600/600
f 585/585/585 586/586/586 602/602/602
f 602/602/602 603/603/603 585/585/585
f 589/589/589 605/605/605 604/604/604
f 604/604/604 592/592/592 589/589/589
f 606/606/606 608/608/608 607/607/607
f 609/609/609 611/611/611 610/610/610
f 612/612/612 614/614/614 613/613/613

g skin_special_01
# texture: skin_special_01.jpg
v 0.124084 161.3254 28.043
v 7.176985 164.3499 25.709
v 5.180482 173.4486 25.8192
v 0.121081 171.8542 27.2182
v 7.616586 168.3571 16.7501
v 6.132984 175.2033 18.9443
v -4.93832 173.4486 25.8192
v -6.930017 164.3498 25.709
v -5.890818 175.2033 18.94429
v -7.374316 168.3518 16.79439
v -1.718421 172.2546 32.074
v 1.87948 172.2545 32.074
v -1.463222 179.1348 33.4105
v -5.594522 180.8443 31.1137
v 1.635579 179.1348 33.4105
v 5.76688 180.8443 31.1137
v -1.029424 184.7143 32.562
v -5.720823 184.8549 30.7336
v 1.201778 184.7143 32.562
v 0.111278 179.6004 34.9077
v 5.893178 184.855 30.7336
v -2.178523 187.5576 33.40079
v -6.359624 188.7191 30.8327
v 2.350875 187.5576 33.40079
v 6.531978 188.7191 30.8327
v -3.044726 195.0362 31.94
v 2.256774 194.9835 31.94
v 6.147475 195.1917 30.2337
v 7.565681 181.3082 25.6235
v 8.375079 186.7529 25.5053
v -8.202723 186.7529 25.50529
v -7.393322 181.3082 25.6235
vn -0 0.066698 0.997773
vn 0.857609 0.166502 0.486605
vn 0.817106 -0.275302 0.506504
vn 0.0003 -0.81548 0.578786
vn 0.977195 0.171799 0.1248
vn 0.991443 0.031401 0.126706
vn -0.817595 -0.278798 0.503797
vn -0.857486 0.166297 0.486892
vn -0.991565 0.028699 0.126395
vn -0.977018 0.172003 0.125902
vn -0.364296 -0.612992 0.701092
vn 0.434827 -0.683043 0.586837
vn -0.397501 -0.2308 0.888102
vn -0.769707 -0.100701 0.630405
vn 0.340314 -0.179407 0.923038
vn 0.800119 -0.149104 0.581014
vn -0.283999 -0.0209 0.958597
vn -0.661423 -0.123804 0.739725
vn 0.363184 -0.0105 0.931658
vn 0.0044 -0.0847 0.996397
vn 0.720507 -0.0247 0.693008
vn -0.244804 -0.051301 0.968215
vn -0.685485 -0.056599 0.725884
vn 0.25789 -0.092197 0.961765
vn 0.622887 -0.152097 0.767384
vn -0.256803 0.156501 0.953708
vn 0.131798 0.192597 0.972387
vn 0.443481 0.146294 0.884264
vn 0.948886 -0.174798 0.262796
vn 0.913207 -0.144001 0.381203
vn -0.924069 -0.094397 0.370387
vn -0.947464 -0.238991 0.212592
vt 0.7538 0.754
vt 0.8357 0.7542
vt 0.8088 0.8195
vt 0.7515 0.7968
vt 0.8871 0.7544
vt 0.8823 0.8252
vt 0.692 0.8195
vt 0.6874 0.7542
vt 0.6068 0.8252
vt 0.6024 0.7544
vt 0.7354 0.811
vt 0.7681 0.811
vt 0.7427 0.8594
vt 0.7165 0.874
vt 0.7606 0.8594
vt 0.7857 0.874
vt 0.7442 0.8952
vt 0.7126 0.9023
vt 0.758 0.8952
vt 0.7518 0.8624
vt 0.7895 0.9023
vt 0.7379 0.9162
vt 0.7088 0.9229
vt 0.7643 0.9162
vt 0.7934 0.9229
vt 0.7401 0.981
vt 0.7668 0.981
vt 0.7943 0.9821
vt 0.8136 0.8741
vt 0.8173 0.9091
vt 0.6855 0.9082
vt 0.6892 0.8731
f 615/615/615 617/617/617 616/616/616
f 617/617/617 615/615/615 618/618/618
f 616/616/616 620/620/620 619/619/619
f 620/620/620 616/616/616 617/617/617
f 615/615/615 622/622/622 621/621/621
f 621/621/621 618/618/618 615/615/615
f 622/622/622 624/624/624 623/623/623
f 623/623/623 621/621/621 622/622/622
f 621/621/621 625/625/625 618/618/618
f 626/626/626 618/618/618 625/625/625
f 618/618/618 626/626/626 617/617/617
f 627/627/627 625/625/625 628/628/628
f 625/625/625 629/629/629 626/626/626
f 629/629/629 625/625/625 627/627/627
f 630/630/630 626/626/626 629/629/629
f 628/628/628 631/631/631 627/627/627
f 631/631/631 628/628/628 632/632/632
f 633/633/633 634/634/634 631/631/631
f 629/629/629 635/635/635 630/630/630
f 635/635/635 629/629/629 633/633/633
f 632/632/632 636/636/636 631/631/631
f 636/636/636 632/632/632 637/637/637
f 631/631/631 638/638/638 633/633/633
f 638/638/638 631/631/631 636/636/636
f 633/633/633 639/639/639 635/635/635
f 639/639/639 633/633/633 638/638/638
f 637/637/637 640/640/640 636/636/636
f 636/636/636 641/641/641 638/638/638
f 641/641/641 636/636/636 640/640/640
f 638/638/638 642/642/642 639/639/639
f 642/642/642 638/638/638 641/641/641
f 643/643/643 620/620/620 617/617/617
f 617/617/617 630/630/630 643/643/643
f 630/630/630 617/617/617 626/626/626
f 643/643/643 635/635/635 644/644/644
f 635/635/635 643/643/643 630/630/630
f 639/639/639 644/644/644 635/635/635
f 645/645/645 628/628/628 646/646/646
f 628/628/628 645/645/645 632/632/632
f 627/627/627 634/634/634 629/629/629
f 631/631/631 634/634/634 627/627/627
f 633/633/633 629/629/629 634/634/634
f 628/628/628 621/621/621 646/646/646
f 628/628/628 625/625/625 621/621/621
f 646/646/646 621/621/621 623/623/623
f 637/637/637 632/632/632 645/645/645

g ju01_R
# texture: ju01_R.jpg
v 9.250001 129.3285 1.194803
v -38.7025 334.2926 -55.95277
v -39.0067 102.0037 -56.3153
v -86.9592 306.9679 -113.4628
v 11.077 129.3285 2.046803
v 86.151 102.0037 2.046808
v 85.67788 334.2926 2.046745
v 160.7519 306.9679 2.04673
vn -0.76602 -0 0.642817
vn -0.76602 -0 0.642817
vn -0.76602 -0 0.642817
vn -0.76602 -0 0.642817
vn -0 -0 1
vn -0 -0 1
vn -0 -0 1
vn -0 -0 1
vt 0.4584 0.6638
vt 0.4584 0.0005
vt 0.7745 0.6638
vt 0.7745 0.0005
vt 0.4584 0.6638
vt 0.7745 0.6638
vt 0.4584 0.0005
vt 0.7745 0.0005
f 647/647/647 649/649/649 648/648/648
f 650/650/650 648/648/648 649/649/649
f 651/651/651 653/653/653 652/652/652
f 654/654/654 652/652/652 653/653/653
