# Object32.bmd — MU geometry at action 0 key 0, exported for MU2
# 3 mesh(es)

g woodc01
# texture: woodc01.jpg
v 13.6167 -25.3499 -1.917641
v 3.553802 58.81598 -13.19851
v 13.4853 58.81599 -3.267006
v 3.685204 -25.3499 -11.84904
v -6.377602 58.81599 -3.267006
v -6.246201 -25.3499 -1.917641
v 3.553802 58.8159 6.664375
v 3.685204 -25.3499 8.013878
v -7.9772 150.7935 -11.849
v 1.9543 150.7935 -1.917603
v -17.9086 150.7935 -1.917603
v -7.9772 150.7935 8.013901
v 0.111702 258.8367 -4.540901
v 10.0432 258.8367 5.390602
v -9.819702 258.8367 5.390602
v 0.111702 258.8367 15.322
v -6.634399 328.0019 -11.849
v 3.297104 328.0019 -1.917587
v -16.5658 328.0019 -1.917587
v -6.634399 328.0019 8.013908
v 3.283897 448.8518 -11.84898
v 13.6167 438.7229 -1.91758
v -6.246201 438.7229 -1.91758
v 4.170799 433.5811 8.013908
v 13.6167 438.7229 -1.91758
v 3.283897 448.8518 -11.84898
v -6.246201 438.7229 -1.91758
v 4.170799 433.5811 8.013908
v -116.6788 383.3773 13.07462
v -113.9552 371.7475 12.6941
v 109.2239 371.0221 13.65371
v 107.4568 380.7681 13.97611
v -112.2086 362.1751 12.3776
v 102.4601 362.1854 13.30581
v -121.0479 386.2054 6.130516
v -116.7392 373.8717 5.736404
v -113.9552 371.7475 12.6941
v -116.6788 383.3773 13.07462
v -114.5348 362.3831 5.357323
v -112.2086 362.1751 12.3776
v -114.5348 362.3831 5.357323
v 103.1757 359.0785 6.192101
v 102.4601 362.1854 13.30581
v -112.2086 362.1751 12.3776
v 103.1757 359.0785 6.192101
v 108.2917 376.7286 6.8312
v 109.2239 371.0221 13.65371
v 102.4601 362.1854 13.30581
v 112.0111 383.4395 7.086014
v 107.4568 380.7681 13.97611
v 112.0111 383.4395 7.086014
v -121.0479 386.2054 6.130516
v -116.6788 383.3773 13.07462
v 107.4568 380.7681 13.97611
vn 0.948687 -0.0036 -0.316196
vn 0.0002 -0.021399 -0.999771
vn 0.997664 0.068298 0.0011
vn -0.316189 -0.015699 -0.948566
vn -0.997664 -0.068298 -0.0011
vn -0.948687 0.0036 0.316196
vn -0.0002 0.021399 0.999771
vn 0.316189 0.015699 0.948566
vn 0.0006 0.074203 -0.997243
vn 0.999421 0.034001 -0.001
vn -0.999421 -0.034001 0.001
vn -0.0006 -0.074203 0.997243
vn 0.0042 -0.047299 -0.998872
vn 0.999838 -0.017701 -0.0034
vn -0.999838 0.017701 0.0034
vn -0.0042 0.047299 0.998872
vn -0.0087 -0.020099 -0.99976
vn 0.999657 0.022399 -0.013599
vn -0.999771 -0.018599 0.0106
vn 0.0067 0.020099 0.999776
vn 0.279312 -0.026301 -0.95984
vn 0.954922 -0.092102 0.282207
vn -0.955936 0.085303 -0.28091
vn -0.288502 0.0267 0.957107
vn 0 0.80418 0.594386
vn 0 0.700122 0.714023
vn 0 0.80418 0.594386
vn 0 0.888018 0.459809
vn -0.0044 -0.033801 0.999419
vn -0.0044 -0.0345 0.999395
vn -0.0044 -0.0345 0.999395
vn -0.0044 -0.033901 0.999416
vn -0.0043 -0.033801 0.999419
vn -0.0044 -0.034899 0.999381
vn -0.891398 -0.273099 0.361699
vn -0.926578 -0.232294 0.295793
vn -0.905855 -0.242388 0.347383
vn -0.863656 -0.217114 0.454929
vn -0.933766 -0.189193 0.303789
vn -0.932403 -0.184801 0.310601
vn -0.0078 -0.981907 0.189201
vn -0.0154 -0.916871 0.398887
vn -0.0078 -0.981907 0.189201
vn 0.0002 -0.999559 -0.029699
vn 0.892818 -0.450409 -0.0028
vn 0.980792 -0.194598 0.0134
vn 0.970442 -0.24131 0.0034
vn 0.743592 -0.582094 0.328996
vn 0.811301 -0.463201 0.356701
vn 0.967653 -0.153793 0.19999
vn 0.0094 0.92922 0.369408
vn 0.0095 0.928186 0.371995
vn 0.0094 0.92922 0.369408
vn 0.0094 0.930211 0.366905
vt 0.1251 0.0005
vt 0.0628 0.1973
vt 0.1251 0.1973
vt 0.0628 0.0005
vt 0.0005 0.1973
vt 0.0005 0.0005
vt 0.0628 0.1973
vt 0.0628 0.0005
vt 0.0628 0.3941
vt 0.1251 0.3941
vt 0.0005 0.3941
vt 0.0628 0.3941
vt 0.0628 0.591
vt 0.1251 0.591
vt 0.0005 0.591
vt 0.0628 0.591
vt 0.0628 0.7878
vt 0.1251 0.7878
vt 0.0005 0.7878
vt 0.0628 0.7878
vt 0.0603 0.9995
vt 0.1251 0.9846
vt 0.0005 0.9846
vt 0.0633 0.9617
vt 0.1251 0.9846
vt 0.0603 0.9995
vt 0.0005 0.9846
vt 0.0633 0.9617
vt 0.8101 0.0114
vt 0.8917 0.0204
vt 0.8619 0.324
vt 0.8101 0.3268
vt 0.9679 0.0252
vt 0.9733 0.31
vt 0.7884 0.0019
vt 0.894 0.0115
vt 0.8917 0.0204
vt 0.8101 0.0114
vt 0.9925 0.0166
vt 0.9679 0.0252
vt 0.9925 0.0166
vt 0.9995 0.3184
vt 0.9733 0.31
vt 0.9679 0.0252
vt 0.9995 0.3184
vt 0.8555 0.3333
vt 0.8619 0.324
vt 0.9733 0.31
vt 0.7884 0.3363
vt 0.8101 0.3268
vt 0.7884 0.3363
vt 0.7884 0.0019
vt 0.8101 0.0114
vt 0.8101 0.3268
f 1/1/1 3/3/3 2/2/2
f 1/1/1 2/2/2 4/4/4
f 4/4/4 2/2/2 5/5/5
f 4/4/4 5/5/5 6/6/6
f 6/6/6 5/5/5 7/7/7
f 6/6/6 7/7/7 8/8/8
f 8/8/8 7/7/7 3/3/3
f 8/8/8 3/3/3 1/1/1
f 3/3/3 10/10/10 9/9/9
f 3/3/3 9/9/9 2/2/2
f 2/2/2 9/9/9 11/11/11
f 2/2/2 11/11/11 5/5/5
f 5/5/5 11/11/11 12/12/12
f 5/5/5 12/12/12 7/7/7
f 7/7/7 12/12/12 10/10/10
f 7/7/7 10/10/10 3/3/3
f 10/10/10 14/14/14 13/13/13
f 10/10/10 13/13/13 9/9/9
f 9/9/9 13/13/13 15/15/15
f 9/9/9 15/15/15 11/11/11
f 11/11/11 15/15/15 16/16/16
f 11/11/11 16/16/16 12/12/12
f 12/12/12 16/16/16 14/14/14
f 12/12/12 14/14/14 10/10/10
f 14/14/14 18/18/18 17/17/17
f 14/14/14 17/17/17 13/13/13
f 13/13/13 17/17/17 19/19/19
f 13/13/13 19/19/19 15/15/15
f 15/15/15 19/19/19 20/20/20
f 15/15/15 20/20/20 16/16/16
f 16/16/16 20/20/20 18/18/18
f 16/16/16 18/18/18 14/14/14
f 18/18/18 22/22/22 21/21/21
f 18/18/18 21/21/21 17/17/17
f 17/17/17 21/21/21 23/23/23
f 17/17/17 23/23/23 19/19/19
f 19/19/19 23/23/23 24/24/24
f 19/19/19 24/24/24 20/20/20
f 20/20/20 24/24/24 22/22/22
f 20/20/20 22/22/22 18/18/18
f 25/25/25 27/27/27 26/26/26
f 25/25/25 28/28/28 27/27/27
f 29/29/29 31/31/31 30/30/30
f 31/31/31 29/29/29 32/32/32
f 30/30/30 34/34/34 33/33/33
f 34/34/34 30/30/30 31/31/31
f 35/35/35 37/37/37 36/36/36
f 37/37/37 35/35/35 38/38/38
f 36/36/36 40/40/40 39/39/39
f 40/40/40 36/36/36 37/37/37
f 41/41/41 43/43/43 42/42/42
f 43/43/43 41/41/41 44/44/44
f 45/45/45 47/47/47 46/46/46
f 47/47/47 45/45/45 48/48/48
f 46/46/46 50/50/50 49/49/49
f 50/50/50 46/46/46 47/47/47
f 51/51/51 53/53/53 52/52/52
f 53/53/53 51/51/51 54/54/54

g ng01
# texture: ng01.jpg
v 7.837 381.9526 63.06841
v 11.3978 381.7002 53.39709
v 9.1408 367.7468 47.36859
v 18.6928 413.4446 60.1858
v 21.7335 409.667 48.5341
v 15.5945 393.3196 53.4199
v 9.497001 393.8411 67.9151
v 18.8467 428.0201 68.24991
v 7.837 381.9526 63.06841
v 14.8198 394.2639 60.3887
v 9.497001 393.8411 67.9151
v 18.8467 428.0201 68.24991
v 21.7335 409.667 48.5341
v 18.6928 413.4446 60.1858
v 9.1408 367.7468 47.36859
v 11.3978 381.7002 53.39709
v 15.5945 393.3196 53.4199
v 6.4526 374.8711 58.3308
v 3.1155 369.5351 60.95259
v 7.1716 367.9585 50.81659
v 2.8793 360.678 48.99549
v -0.8056 369.015 64.67569
v 6.2721 376.9897 61.3095
v 2.5018 376.0183 68.84919
v 7.788301 381.5697 63.69559
v -1.9331 397.1981 73.2626
v 11.3764 382.1256 43.7677
v 3.2474 394.9069 58.5264
v 2.2914 387.9429 65.50289
v 3.8337 390.047 48.382
v 6.6797 390.9891 36.2463
v -1.2513 374.8488 71.63059
v -1.3599 398.6893 58.2838
v -1.5137 393.2671 65.6723
v -0.1922 396.0221 31.6023
v -0.7302 395.4652 45.0941
v 7.788301 381.5697 63.69559
v 2.2914 387.9429 65.50289
v -1.9331 397.1981 73.2626
v 2.2914 387.9429 65.50289
v -1.5137 393.2671 65.6723
v -1.9331 397.1981 73.2626
v 3.1155 369.5351 60.95259
v 6.4526 374.8711 58.3308
v 5.1122 367.9019 50.73209
v 2.8793 360.678 48.99549
v 6.0292 381.5213 63.6235
v 7.8704 382.0291 43.6239
v 6.2721 376.9897 61.3095
v -10.1435 381.4579 62.33099
v -9.376601 367.2373 46.60919
v -12.8817 381.0322 52.40129
v -22.4393 412.3129 58.499
v -17.6977 392.4036 52.0546
v -24.3044 408.4003 46.6461
v -12.8446 393.2264 66.9988
v -24.0523 426.8398 66.49061
v -10.1435 381.4579 62.33099
v -12.8446 393.2264 66.9988
v -17.5488 393.3734 59.0612
v -24.0523 426.8398 66.49061
v -24.3044 408.4003 46.6461
v -22.4393 412.3129 58.499
v -12.8817 381.0322 52.40129
v -9.376601 367.2373 46.60919
v -17.6977 392.4036 52.0546
v -7.8307 374.4781 57.74509
v -7.5519 367.5534 50.21269
v -4.4315 369.3275 60.6431
v -2.7319 360.5236 48.7654
v -4.8228 375.8167 68.5488
v -8.0112 376.5967 60.7237
v -9.966601 381.0812 62.96749
v -11.9372 381.4842 42.8116
v -4.994201 387.7424 65.2041
v -5.756999 394.6591 58.1571
v -5.2436 389.7972 48.0097
v -7.1344 390.609 35.6797
v -9.966601 381.0812 62.96749
v -1.9331 397.1981 73.2626
v -4.994201 387.7424 65.2041
v -4.994201 387.7424 65.2041
v -1.9331 397.1981 73.2626
v -1.5137 393.2671 65.6723
v -4.4315 369.3275 60.6431
v -5.4925 367.61 50.2972
v -7.8307 374.4781 57.74509
v -2.7319 360.5236 48.7654
v -8.2075 381.1296 63.0396
v -8.4312 381.5806 42.9553
v -8.0112 376.5967 60.7237
v 19.2325 343.9513 50.99131
v -0.2249 344.3032 56.50371
v 17.5357 339.11 43.53281
v -0.2249 354.3874 59.37381
v 17.4724 362.6059 49.77761
v 19.2017 356.5633 48.47252
v -0.2249 364.603 55.81151
v 18.9613 338.5831 34.10711
v 21.5585 345.3857 34.23251
v 27.8621 360.1745 27.86761
v 15.8781 348.8372 18.55501
v 19.861 366.8165 19.83931
v -0.2249 358.4088 15.66161
v -0.2249 338.6566 19.72461
v 9.5823 373.8344 23.77272
v -0.2249 374.4578 20.91102
v -0.2249 343.3571 49.66221
v 10.8392 331.0003 47.7637
v 16.7179 330.6944 37.6461
v 9.2752 333.6512 25.05351
v -0.2249 329.8014 23.42411
v 27.6272 354.7097 38.13571
v 13.6764 375.1117 34.78082
v 12.678 372.6119 50.36391
v 27.6429 364.9798 47.19251
v 27.555 373.6432 28.22842
v 20.9156 376.1852 25.77122
v 26.5569 376.1174 41.22612
v 13.2548 324.1588 41.6475
v 18.2349 323.7698 33.2257
v -0.2249 327.4393 50.4159
v -0.2249 311.0613 47.1855
v 13.561 329.2011 20.76471
v -0.2249 325.7473 15.99051
v 12.2524 380.3803 34.02551
v -0.2249 381.7656 29.10962
v 12.678 372.6119 50.36391
v -0.2249 367.1709 43.65671
v -0.2249 364.603 55.81151
v 10.9671 312.9668 41.3603
v 23.036 316.2242 31.1283
v 18.3224 315.3041 13.39831
v -0.2249 313.6446 9.719902
v -0.2249 300.5202 32.91171
v 6.7209 302.9908 41.612
v -0.2249 302.4327 47.2348
v 9.0519 293.1023 43.5906
v 23.9832 303.7437 32.72561
v -0.2249 301.7989 26.9597
v -0.2249 309.0458 12.1503
v 9.7976 304.7499 11.1075
v 6.4598 295.4833 15.8785
v -0.0374 285.7914 33.6964
v 23.7827 287.924 23.5135
v 1.6196 265.1107 24.88169
v 7.9026 270.7592 34.8199
v 19.3824 265.6561 27.5817
v 14.7627 270.6188 18.2095
v 16.4274 294.3474 13.5249
v 7.572 252.7922 36.41559
v 1.6196 265.1107 24.88169
v -1.2611 248.94 19.76259
v 20.2084 250.5963 29.7646
v 19.3824 265.6561 27.5817
v 13.3694 261.0961 18.62239
v 14.6272 252.1365 10.34759
v 20.6202 250.9384 22.04689
v 2.0084 233.8211 20.98839
v 5.244 224.0703 30.90499
v 15.7335 233.7295 22.67679
v 10.6985 231.9766 15.12789
v -1.2631 206.9905 26.60469
v 5.3283 223.3744 36.95339
v 13.0308 208.6362 26.64188
v 5.244 224.0703 30.90499
v 5.3283 223.3744 36.95339
v 5.5881 213.5843 23.11299
v 8.762099 220.5148 16.16718
v 8.981601 214.7574 9.905785
v 13.0308 208.6362 26.64188
v 7.5022 200.039 32.31648
v 8.2487 172.9168 33.45238
v 4.431 209.4766 9.042183
v -2.6842 198.0607 18.19098
v 14.5384 198.6982 14.73208
v 5.8388 262.9391 45.55609
v 7.3306 279.0939 48.8935
v 7.3306 279.0939 48.8935
v 7.9026 270.7592 34.8199
v 1.6196 265.1107 24.88169
v 19.3824 265.6561 27.5817
v 14.7627 270.6188 18.2095
v -2.6842 198.0607 18.19098
v 4.431 209.4766 9.042183
v 14.5384 198.6982 14.73208
v 8.2487 172.9168 33.45238
v -0.2249 381.7656 29.10962
v 12.2524 380.3803 34.02551
v 65.1606 373.4214 25.41521
v 61.9014 366.5405 26.52531
v 60.2464 366.6451 20.34901
v 56.5914 370.2456 34.81591
v 54.922 377.6501 33.24002
v 53.3006 378.9952 25.77952
v 42.5667 370.5763 22.23652
v 42.5186 376.6356 28.12112
v 53.3487 372.9359 19.895
v 44.2362 363.1718 23.81241
v 55.0181 365.5314 21.47091
v 45.8576 361.8267 31.27291
v 56.6395 364.1862 28.93141
v 45.8095 367.886 37.15752
v 44.14 375.2905 35.58161
v 28.2739 367.1759 23.43871
v 28.2085 375.4166 31.44181
v 33.4715 358.6309 24.03551
v 37.146 358.3367 32.61301
v 37.0806 366.5773 40.61612
v 33.3407 375.1123 40.04161
v 27.2488 372.7851 32.80572
v 27.2488 368.5729 41.83891
v 24.6818 371.9342 26.91021
v 20.2584 364.5754 28.97751
v 20.2583 360.3632 38.01072
v 24.6817 363.5097 44.97661
v 59.1035 373.1352 19.71132
v 12.8042 376.8936 15.27921
v 43.2665 382.8562 42.58061
v 40.3541 378.6385 20.04662
v 17.4029 385.1433 43.64711
v 40.1912 361.2672 52.23471
v 12.6414 356.4936 53.96251
v 57.2106 377.2269 39.95562
v 20.5355 321.2608 14.95501
v 30.3129 289.6959 27.7477
v 22.844 287.2438 19.6352
v 30.6468 323.4526 25.24241
v 26.5665 270.3648 28.7492
v 29.23 324.3296 36.86941
v 18.1998 288.7475 44.9609
v 28.8961 290.5728 39.3747
v 15.4535 323.0354 43.87341
v 25.1497 271.2418 40.3762
v 40.1912 361.2672 52.23471
v 12.6414 356.4936 53.96251
v 22.5907 379.6215 41.07221
v 12.8042 376.8936 15.27921
v 40.3541 378.6385 20.04662
v 57.2106 377.2269 39.95562
v 17.4029 385.1433 43.64711
v 29.23 324.3296 36.86941
v 30.6468 323.4526 25.24241
v 26.478 315.1063 31.5003
v 15.4535 323.0354 43.87341
v 18.1998 288.7475 44.9609
v 25.1497 271.2418 40.3762
v 26.5665 270.3648 28.7492
v 20.5355 321.2608 14.95501
v 22.844 287.2438 19.6352
v 107.6424 371.928 22.82021
v 108.3387 372.8794 21.39162
v 109.1437 380.0062 20.95282
v 108.2585 379.959 22.69181
v 61.5077 367.3934 20.45091
v 59.3023 375.6806 19.05572
v 69.458 377.6139 16.45002
v 72.3413 367.4485 16.32082
v 62.8409 367.5584 27.44671
v 73.0413 367.3144 27.10401
v 61.0192 375.9637 24.91882
v 69.0791 378.865 24.47351
v 62.5272 373.0466 30.04891
v 70.3275 375.5916 31.00352
v 84.493 377.6612 15.13232
v 87.0888 371.9399 17.00781
v 88.6158 373.3059 22.02511
v 84.42621 380.7662 19.75452
v 87.09119 377.2668 24.54942
v 88.7202 370.8928 15.56361
v 87.9292 378.7228 15.23931
v 94.64831 370.907 14.74701
v 99.75179 370.3991 16.68101
v 94.2142 379.1152 13.39581
v 99.5552 375.8462 16.79771
v 97.8484 383.4654 23.06152
v 98.8358 382.2789 24.00811
v 99.7716 382.2329 22.86542
v 98.7842 383.4194 21.91872
v 101.3984 371.2951 16.83862
v 101.4974 379.0666 15.54292
v 98.9363 378.8657 15.74401
v 94.0027 378.7747 24.03172
v 92.2033 381.2673 23.07891
v 95.76691 378.7499 21.17711
v 93.9675 381.2424 20.22432
v 56.1144 371.486 14.01521
v 59.9208 373.3601 33.65382
v 56.7193 381.201 25.55022
v 60.2124 361.4497 24.38772
v 56.1144 371.486 14.01521
v 63.0937 382.4078 24.19952
v 62.4889 372.6929 12.66451
v 56.7193 381.201 25.55022
v 66.2953 374.5669 32.30311
v 59.9208 373.3601 33.65382
v 66.58691 362.6565 23.03701
v 60.2124 361.4497 24.38772
v 60.4235 360.5334 12.56631
v 41.6071 358.2116 17.75381
v 41.6071 358.2116 17.75381
v -19.6824 343.9513 50.99131
v -17.9856 339.11 43.53281
v -17.9223 362.6059 49.77761
v -19.6515 356.5633 48.47251
v -22.0084 345.3858 34.23251
v -19.4112 338.5831 34.10711
v -28.312 360.1745 27.86761
v -20.3108 366.8165 19.83941
v -16.328 348.8372 18.55501
v -10.0322 373.8344 23.77271
v -11.2891 331.0003 47.76371
v -17.1678 330.6944 37.64611
v -9.725 333.6512 25.05351
v -28.077 354.7097 38.13571
v -14.1263 375.1117 34.78082
v -13.1278 372.6119 50.36391
v -28.0928 364.9798 47.1925
v -28.0048 373.6432 28.22852
v -21.3654 376.1852 25.77121
v -27.0067 376.1175 41.22611
v -13.7047 324.1588 41.64751
v -18.6848 323.7698 33.22571
v -14.0108 329.2011 20.7647
v -12.7022 380.3803 34.02552
v -13.1278 372.6119 50.36391
v -11.417 312.9668 41.36031
v -23.4859 316.2242 31.12831
v -18.7722 315.3041 13.3983
v -7.1708 302.9908 41.612
v -10.2233 293.0735 43.5899
v -24.6794 304.3548 32.7276
v -10.2475 304.7499 11.1075
v -7.5345 295.3407 15.8774
v -1.4621 285.3746 33.6939
v -25.1685 288.5417 23.5149
v -10.0483 270.702 34.81819
v -4.0185 264.7859 24.87879
v -21.7403 266.1034 27.58159
v -16.9106 270.8608 18.2089
v -17.5424 294.6395 13.5254
v -10.4993 252.7375 36.41309
v -1.8448 248.5055 19.75869
v -4.0185 264.7859 24.87879
v -21.7403 266.1034 27.58159
v -23.2203 251.0937 29.76419
v -17.5804 252.3904 10.34629
v -15.9328 261.2865 18.6212
v -23.618 251.4536 22.04649
v -5.768499 233.543 20.98439
v -9.423599 223.9417 30.90119
v -19.4843 234.0484 22.67499
v -14.5315 232.0785 15.12519
v -3.5913 207.0236 26.60099
v -9.5372 223.2499 36.94959
v -17.8852 208.6693 26.63828
v -9.5372 223.2499 36.94959
v -9.423599 223.9417 30.90119
v -10.4426 213.6174 23.10928
v -13.566 214.8012 9.90229
v -13.0953 220.5433 16.16379
v -17.8852 208.6693 26.63828
v -13.1032 172.9499 33.44868
v -12.3567 200.0721 32.31287
v -9.2855 209.5097 9.03849
v -2.1702 198.0937 18.18738
v -19.3928 198.7313 14.72848
v -9.1121 279.0034 48.892
v -8.3249 262.799 45.5537
v -9.1121 279.0034 48.892
v -4.0185 264.7859 24.87879
v -10.0483 270.702 34.81819
v -21.7403 266.1034 27.58159
v -16.9106 270.8608 18.2089
v -2.1702 198.0937 18.18738
v -19.3928 198.7313 14.72848
v -9.2855 209.5097 9.03849
v -13.1032 172.9499 33.44868
v -12.7022 380.3803 34.02552
v -65.7405 371.3675 24.85221
v -60.8005 364.7008 19.66711
v -62.347 364.5374 25.87021
v -57.2312 368.5227 34.21152
v -55.924 375.9909 32.59471
v -54.2439 377.3557 25.15082
v -43.3962 375.5854 27.69932
v -43.0232 369.482 21.87222
v -53.8709 371.2523 19.32372
v -44.3304 362.0138 23.48901
v -55.1781 363.7841 20.94051
v -46.0105 360.649 30.93291
v -56.8582 362.4193 28.38441
v -46.3835 366.7524 36.76011
v -45.0763 374.2206 35.14322
v -29.1027 375.1476 31.27671
v -28.5955 366.847 23.35181
v -33.3484 358.0463 23.93981
v -37.15331 357.6327 32.45541
v -37.6605 365.9333 40.38021
v -34.3629 374.6476 39.78961
v -27.6986 368.5729 41.83891
v -27.6987 372.7852 32.80571
v -25.1316 371.9343 26.91021
v -20.7082 364.5754 28.97752
v -20.7082 360.3632 38.01072
v -25.1316 363.5097 44.97662
v -59.7784 371.2125 19.04411
v -13.2541 376.8936 15.27921
v -40.804 378.6385 20.04662
v -43.7164 382.8562 42.58062
v -17.8528 385.1433 43.64711
v -40.6411 361.2673 52.23471
v -13.0913 356.4936 53.96251
v -57.6605 377.2269 39.95561
v -20.4758 321.7061 14.957
v -24.2609 287.8216 19.6365
v -31.6149 290.5958 27.7503
v -30.4806 324.3353 25.24611
v -28.7126 271.1201 28.75049
v -29.0251 325.1493 36.87291
v -30.1594 291.4098 39.3771
v -19.5518 289.1207 44.9614
v -15.3168 323.2568 43.8747
v -27.2572 271.9341 40.3773
v -40.6411 361.2673 52.23471
v -23.0405 379.6215 41.07222
v -13.0913 356.4936 53.96251
v -40.804 378.6385 20.04662
v -13.2541 376.8936 15.27921
v -57.6605 377.2269 39.95561
v -17.8528 385.1433 43.64711
v -29.0251 325.1493 36.87291
v -26.6777 315.8152 31.50311
v -30.4806 324.3353 25.24611
v -15.3168 323.2568 43.8747
v -19.5518 289.1207 44.9614
v -27.2572 271.9341 40.3773
v -28.7126 271.1201 28.75049
v -20.4758 321.7061 14.957
v -24.2609 287.8216 19.6365
v -109.0882 369.2021 20.32251
v -110.4314 377.2287 18.13921
v -109.5708 370.1247 18.79072
v -109.8276 377.217 19.99532
v -62.0723 365.4271 19.79452
v -70.2615 375.5311 15.98412
v -60.0314 373.7574 18.40551
v -72.9747 365.3191 15.85072
v -63.2876 365.5347 26.81281
v -73.48681 365.1194 26.64342
v -69.7658 376.7485 24.00641
v -61.6517 373.9821 24.29851
v -70.8464 373.4219 30.53951
v -63.0218 371.0143 29.43811
v -85.3156 375.33 14.92412
v -87.78181 369.5562 16.81351
v -89.2453 370.8711 21.86341
v -85.2217 378.4127 19.56081
v -87.7445 374.8447 24.38212
v -89.42 368.489 15.39211
v -88.7669 376.3328 15.09572
v -95.3607 368.4067 14.67722
v -100.4209 367.8028 16.69542
v -95.0884 376.6278 13.36201
v -100.3142 373.2518 16.83751
v -98.6287 380.8675 23.11131
v -100.534 379.6036 22.94162
v -99.5796 379.6597 24.06841
v -99.5831 380.8114 21.98452
v -101.9766 368.6386 15.39561
v -102.0183 376.3932 13.99931
v -99.7645 376.2866 15.78931
v -94.6883 376.238 23.99082
v -92.9478 378.7654 23.02051
v -96.5006 376.1974 21.16682
v -94.76019 378.7248 20.19652
v -56.8603 369.6426 13.28911
v -57.4305 379.2883 24.88382
v -60.3595 371.354 32.99951
v -60.6095 359.4867 23.67712
v -56.8603 369.6426 13.28911
v -63.2765 370.7479 12.05401
v -63.8467 380.3936 23.64881
v -57.4305 379.2883 24.88382
v -66.7758 372.4593 31.76452
v -60.3595 371.354 32.99951
v -67.0257 360.592 22.44212
v -60.6095 359.4867 23.67712
v -61.0083 358.6259 11.85641
v -42.0689 356.5977 16.70891
v -42.0689 356.5977 16.70891
vn -0.88809 0.296697 -0.351096
vn -0.890877 0.305692 -0.335991
vn -0.895418 0.290606 -0.337307
vn -0.892068 0.252191 -0.374986
vn -0.914675 0.248093 -0.319091
vn -0.89271 0.278203 -0.354504
vn -0.880373 0.262092 -0.395288
vn -0.873185 0.242996 -0.422493
vn 0.848358 -0.345524 0.401127
vn 0.896117 -0.287505 0.338106
vn 0.79201 -0.275904 0.544607
vn 0.874309 -0.206602 0.439204
vn 0.9418 -0.2486 0.2263
vn 0.932597 -0.185 0.309899
vn 0.895418 -0.290606 0.337307
vn 0.897179 -0.348292 0.271594
vn 0.934905 -0.322702 0.147701
vn 0.751331 -0.47072 0.462519
vn 0.806983 -0.441991 0.391692
vn 0.809618 -0.43131 0.398109
vn 0.75022 -0.538315 0.38391
vn -0.0001 -0.829782 0.558088
vn 0.798996 -0.490198 0.348298
vn 0.738403 -0.349702 0.576602
vn 0.910731 -0.047902 0.410214
vn -0.039401 -0.054602 0.997731
vn 0.90568 0.374092 0.199496
vn 0.775286 0.588089 0.230396
vn 0.647523 0.533219 0.544419
vn 0.761612 0.64781 0.017
vn 0.64387 0.736266 0.208191
vn -0.0236 -0.463493 0.885786
vn -0.035699 0.975586 0.216697
vn -0.046399 0.805784 0.590389
vn -0.032399 0.991577 0.125397
vn -0.023501 0.995228 -0.094703
vn 0.610776 0.653574 -0.446982
vn 0.610776 0.653574 -0.446982
vn 0.610776 0.653574 -0.446982
vn 0.783788 0.568091 -0.250896
vn 0.783788 0.568091 -0.250896
vn 0.783788 0.568091 -0.250896
vn -0.893035 0.383315 -0.235709
vn -0.983988 0.151498 -0.093899
vn -0.93297 0.32269 -0.159495
vn -0.912122 0.337808 -0.232206
vn -0.997902 -0.0131 -0.0634
vn -0.993821 0.100602 -0.046901
vn -0.998746 -0.035602 -0.035202
vn 0.896209 0.345804 -0.277903
vn 0.902745 0.340017 -0.263513
vn 0.89725 0.35488 -0.262685
vn 0.904552 0.301684 -0.301284
vn 0.902095 0.327598 -0.280898
vn 0.922684 0.298695 -0.243796
vn 0.894044 0.310915 -0.322516
vn 0.890149 0.291516 -0.350219
vn -0.858063 -0.392483 0.331186
vn -0.817577 -0.320191 0.478587
vn -0.903638 -0.337014 0.264311
vn -0.894672 -0.255292 0.366589
vn -0.942089 -0.300397 0.149098
vn -0.94325 -0.236613 0.233012
vn -0.895915 -0.397607 0.198103
vn -0.902745 -0.340017 0.263513
vn -0.924714 -0.373906 0.071401
vn -0.75971 -0.512207 0.400605
vn -0.814583 -0.47599 0.331493
vn -0.810875 -0.486485 0.32529
vn -0.748383 -0.579587 0.322493
vn -0.762772 -0.390986 0.515081
vn -0.79669 -0.534093 0.282896
vn -0.937211 -0.098701 0.334504
vn -0.938114 0.323405 0.123902
vn -0.718213 0.495609 0.488409
vn -0.822652 0.544134 0.16481
vn -0.794868 0.604976 -0.046798
vn -0.69822 0.69932 0.153105
vn -0.607099 0.620099 -0.496899
vn -0.607099 0.620099 -0.496899
vn -0.607099 0.620099 -0.496899
vn -0.790599 0.524799 -0.315499
vn -0.790599 0.524799 -0.315499
vn -0.790599 0.524799 -0.315499
vn 0.886924 0.432312 -0.162704
vn 0.923801 0.373701 -0.0833
vn 0.978567 0.205493 -0.0134
vn 0.90819 0.387796 -0.157498
vn 0.998955 0.041798 0.018499
vn 0.9873 0.1551 0.0344
vn 0.998721 0.0194 0.046701
vn 0.683805 -0.371003 0.628305
vn -0 -0.796301 0.604901
vn 0.629482 -0.650882 0.424388
vn -0 0.048701 0.998814
vn 0.446505 0.275203 0.851409
vn 0.556619 -0.084803 0.826428
vn -0 0.220899 0.975297
vn 0.903915 -0.414007 -0.107402
vn 0.882495 -0.455097 -0.118699
vn 0.796885 -0.269295 -0.54079
vn 0.55539 -0.328894 -0.763787
vn 0.373588 0.255992 -0.891572
vn 0 0.157098 -0.987583
vn 0 -0.356706 -0.934217
vn 0.260302 0.658205 -0.706405
vn 0 0.549126 -0.835739
vn -0 -0.345803 0.938307
vn 0.643493 -0.172798 0.745692
vn 0.986646 -0.077604 0.143207
vn 0.658765 -0.011499 -0.752261
vn 0 0.470303 -0.882505
vn 0.866743 -0.40222 0.294915
vn 0.430677 0.857454 0.281585
vn 0.839191 0.307297 0.448695
vn 0.140904 0.164704 0.976227
vn 0.596989 0.522591 -0.608689
vn 0.1402 0.900197 -0.412298
vn -0.055999 0.953887 0.294896
vn 0.752011 -0.198003 0.628709
vn 0.917875 0.294992 0.265493
vn -0 -0.072597 0.997361
vn -0 -0.203495 0.979076
vn 0.483407 0.732911 -0.478707
vn -0 0.640421 -0.768024
vn 0.826583 0.46769 -0.313093
vn 0 0.774892 -0.632093
vn -0.493687 0.822479 0.282493
vn -0 0.879989 0.474994
vn -0 0.978404 0.206701
vn 0.514422 0.0002 0.857537
vn 0.920619 0.316906 0.228105
vn 0.640897 0.220099 -0.735396
vn 0 0.0249 -0.99969
vn -0.011599 -0.987957 0.154293
vn -0.112401 -0.245702 0.962807
vn 0 -0.730217 0.683215
vn 0.0057 -0.136195 0.990666
vn 0.915595 0.0021 0.402098
vn -0.0077 -0.802847 -0.596135
vn 0 -0.712982 -0.701183
vn -0.256006 -0.313808 -0.914323
vn -0.715237 -0.211111 -0.666235
vn -0.913113 -0.111002 0.392306
vn 0.914814 -0.117502 -0.386406
vn -0.963869 -0.060598 -0.259392
vn -0.357791 -0.363191 0.860278
vn 0.949949 -0.141907 0.278314
vn 0.278609 -0.198206 -0.93973
vn 0.300388 -0.189693 -0.934764
vn -0.278698 -0.265698 0.922893
vn -0.963869 -0.060598 -0.259392
vn -0.848176 0.104097 -0.519385
vn 0.833871 -0.148595 0.531582
vn 0.949949 -0.141907 0.278314
vn 0.244808 0.349912 -0.90423
vn 0.260688 0.244089 -0.934057
vn 0.940677 0.0028 -0.339292
vn -0.971674 -0.037099 -0.233394
vn -0.519109 0.157803 0.840015
vn 0.950716 -0.270305 0.151903
vn 0.212708 -0.238209 -0.947635
vn -0.987395 0.0723 0.140799
vn -0.496083 0.047598 0.86697
vn 0.896356 0.441678 0.038298
vn 0.896356 0.441678 0.038298
vn 0.896356 0.441678 0.038298
vn -0.628707 0.0228 -0.777308
vn 0.237902 -0.196001 -0.951308
vn -0.53503 -0.509329 -0.674038
vn 0.985336 0.072403 0.154506
vn 0.086104 -0.065303 0.994144
vn 0.093195 -0.096596 0.990951
vn -0.092401 0.915311 -0.392005
vn -0.993079 0.099998 0.061599
vn 0.965811 0.245703 -0.082701
vn -0.202796 -0.46609 0.861182
vn -0.222392 -0.177494 0.958665
vn 0.046601 0.860324 -0.507614
vn 0.046601 0.860324 -0.507614
vn 0.0305 0.860586 -0.508391
vn 0.062796 0.85985 -0.50667
vn 0.278609 -0.198206 -0.93973
vn -0.143001 -0.560804 -0.815506
vn -0.142606 -0.563325 -0.813836
vn -0.143001 -0.560804 -0.815506
vn -0.143406 -0.558324 -0.817135
vn -0 0.705956 0.708256
vn -0.367894 0.749188 0.550792
vn 0.940309 0.340203 -0.009
vn 0.727297 -0.640298 0.247099
vn 0.495196 -0.633995 -0.593996
vn 0.488283 -0.140695 0.861269
vn 0.2213 0.822401 0.524101
vn -0.0007 0.902592 -0.430496
vn -0.181399 0.276998 -0.943592
vn -0.210096 0.936281 -0.281494
vn -0.153806 0.152006 -0.976339
vn 0.125092 -0.693558 -0.709457
vn 0.026199 -0.700183 -0.713483
vn 0.318892 -0.911377 0.260193
vn 0.342515 -0.89894 0.273112
vn 0.340997 -0.237798 0.909491
vn 0.094801 0.748512 0.65631
vn -0.428088 0.423289 -0.798478
vn -0.561487 0.82708 -0.025899
vn -0.277908 -0.626817 -0.72792
vn 0.1211 -0.983798 0.1322
vn 0.347724 -0.487234 0.801056
vn -0.026901 0.617616 0.78602
vn -0.655271 0.724568 -0.21359
vn -0.687412 0.59761 0.412707
vn -0.385991 0.097098 -0.917378
vn -0.402495 -0.764389 -0.503693
vn 0.084 -0.975298 0.204299
vn 0.055902 -0.063302 0.996428
vn 0.195596 0.298094 -0.934282
vn 0.0207 0.971679 -0.235395
vn 0.195692 0.936964 0.289489
vn 0.152401 0.967705 -0.200801
vn 0.063102 0.732422 0.677921
vn 0.128399 0.366298 0.921596
vn 0.0003 0.338698 0.940895
vn 0.406521 0.808342 0.425822
vn 0.729904 -0.0502 -0.681704
vn 0.947536 -0.118404 -0.296911
vn 0.747605 -0.110401 -0.654904
vn 0.986115 -0.022 -0.164602
vn 0.941074 -0.196595 -0.275192
vn 0.704844 0.046403 0.707844
vn 0.457183 0.026899 0.888966
vn 0.87459 -0.0377 0.483395
vn 0.447494 0.064099 0.891987
vn 0.893051 -0.151109 0.423824
vn -0.016899 -0.531379 -0.846966
vn -0.296907 -0.364209 -0.882722
vn -0.270602 -0.851306 -0.449503
vn -0.306594 -0.927381 0.214395
vn -0.0107 -0.999236 0.037601
vn -0.076005 -0.879158 -0.470431
vn -0.760997 -0.574598 -0.301199
vn -0.732022 0.492515 -0.470714
vn -0.82366 0.540374 0.171992
vn -0.963543 0.201088 -0.17649
vn -0.638029 0.249611 -0.728433
vn -0.750675 -0.097897 -0.653378
vn -0.906735 -0.057102 -0.417816
vn -0.993532 -0.0089 0.113204
vn -0.837667 0.340086 0.427383
vn -0.941388 -0.0206 0.336696
vn 0.413203 -0.376403 0.829207
vn 0.738292 -0.560293 -0.375496
vn 0.943657 0.198491 -0.264788
vn -0.161305 0.724421 0.67022
vn -0.233111 -0.557126 -0.797038
vn -0.357785 0.790067 -0.497779
vn -0.236302 0.530004 -0.814406
vn -0.0084 -0.751862 -0.659267
vn 0.0035 -0.935805 0.352502
vn 0.220696 -0.801285 0.55609
vn -0.3187 0.875301 0.363701
vn -0.152105 0.965028 0.213506
vn -0.115994 -0.028099 0.992852
vn 0.0616 0.327901 0.942702
vn -0.199501 0.178501 -0.963503
vn -0.0114 -0.99791 -0.063601
vn 0.380595 -0.598092 0.70529
vn 0.064498 0.990071 -0.124896
vn 0.049399 0.703488 0.708988
vn -0.305704 -0.458406 -0.834511
vn -0.098799 0.786996 -0.608996
vn 0.174992 -0.640371 -0.747866
vn 0.19199 -0.976847 0.094395
vn -0.0357 0.606205 -0.794507
vn 0.114998 0.131798 0.984584
vn 0.047502 0.958645 0.280613
vn 0.2393 0.2753 0.931099
vn 0.957274 -0.073098 0.279792
vn 0.463501 0.565601 -0.682101
vn 0.466385 -0.333089 -0.819474
vn 0.248601 0.682102 -0.687702
vn 0.0446 0.9358 0.3497
vn 0.346087 -0.443483 0.826769
vn -0.371183 0.729366 0.574673
vn 0.888493 -0.458396 -0.0213
vn 0.0196 0.971484 -0.236296
vn -0.773821 0.417411 -0.476413
vn -0.445414 -0.265908 0.854927
vn -0.477596 0.789393 0.385697
vn -0.242106 -0.734618 0.633815
vn -0.773821 0.417411 -0.476413
vn -0.227501 0.946806 -0.227601
vn 0.172704 0.293207 -0.940321
vn -0.477596 0.789393 0.385697
vn 0.125902 0.366607 0.921818
vn -0.445414 -0.265908 0.854927
vn 0.533889 -0.759185 0.372292
vn -0.242106 -0.734618 0.633815
vn 0.232301 -0.651504 -0.722204
vn -0.767498 -0.584798 -0.262599
vn -0.767498 -0.584798 -0.262599
vn -0.683805 -0.371003 0.628305
vn -0.629482 -0.650882 0.424388
vn -0.446505 0.275203 0.851409
vn -0.556619 -0.084803 0.826428
vn -0.882495 -0.455097 -0.118699
vn -0.903915 -0.414007 -0.107402
vn -0.796885 -0.269295 -0.54079
vn -0.373502 0.256002 -0.891605
vn -0.55539 -0.328894 -0.763787
vn -0.260302 0.658205 -0.706405
vn -0.643493 -0.172798 0.745692
vn -0.986646 -0.077604 0.143207
vn -0.658765 -0.011499 -0.752261
vn -0.866743 -0.40222 0.294915
vn -0.430677 0.857454 0.281585
vn -0.839191 0.307297 0.448695
vn -0.140904 0.164704 0.976227
vn -0.59699 0.522591 -0.608689
vn -0.140101 0.900209 -0.412304
vn 0.055999 0.953887 0.294896
vn -0.752011 -0.198003 0.628709
vn -0.917875 0.294992 0.265493
vn -0.483407 0.732911 -0.478707
vn -0.826608 0.467705 -0.313003
vn 0.493687 0.822479 0.282493
vn -0.516106 0.0049 0.856511
vn -0.917484 0.326294 0.227496
vn -0.637416 0.233406 -0.734318
vn 0.101405 -0.269512 0.957643
vn -0.019601 -0.139504 0.990028
vn -0.914739 0.035101 0.402517
vn 0.252509 -0.325412 -0.911233
vn 0.701582 -0.248694 -0.667783
vn 0.904736 -0.162607 0.393716
vn -0.919133 -0.080603 -0.385614
vn 0.341807 -0.378408 0.860218
vn 0.960289 -0.102499 -0.259497
vn -0.955167 -0.100497 0.27849
vn -0.287097 -0.185898 -0.93969
vn -0.304708 -0.180305 -0.935224
vn 0.267012 -0.277613 0.922841
vn 0.851823 0.067102 -0.519514
vn 0.960289 -0.102499 -0.259497
vn -0.955167 -0.100497 0.27849
vn -0.839448 -0.112207 0.53173
vn -0.250002 0.255202 -0.934008
vn -0.229501 0.360202 -0.904204
vn -0.939695 0.0438 -0.339198
vn 0.969362 -0.078097 -0.232891
vn 0.522493 0.140498 0.840989
vn -0.961626 -0.228606 0.151704
vn -0.223002 -0.228702 -0.94761
vn 0.98954 0.054902 0.133405
vn 0.508311 0.028 0.860718
vn -0.878512 0.476207 0.038001
vn -0.878512 0.476207 0.038001
vn -0.878512 0.476207 0.038001
vn 0.63971 -0.0029 -0.768611
vn 0.560332 -0.52143 -0.643537
vn -0.22901 -0.191308 -0.95444
vn -0.982971 0.092997 0.158495
vn -0.093195 -0.096595 0.990951
vn -0.080002 -0.065702 0.994627
vn 0.092401 0.915311 -0.392005
vn 0.993079 0.099998 0.061599
vn -0.965811 0.245703 -0.082701
vn 0.214603 -0.187103 0.958613
vn 0.182505 -0.474512 0.861122
vn -0.0093 0.861558 -0.507575
vn 0.0069 0.861095 -0.508397
vn -0.0093 0.861558 -0.507575
vn -0.0254 0.861805 -0.506603
vn -0.287097 -0.185898 -0.93969
vn 0.143001 -0.560804 -0.815506
vn 0.143001 -0.560804 -0.815506
vn 0.142606 -0.563325 -0.813836
vn 0.143406 -0.558324 -0.817135
vn 0.367894 0.749188 0.550791
vn -0.950991 0.309097 -0.0087
vn -0.473985 -0.65338 -0.590282
vn -0.704401 -0.663601 0.2519
vn -0.491705 -0.156902 0.856509
vn -0.267696 0.814387 0.514892
vn -0.035501 0.899433 -0.435616
vn 0.165794 0.943568 -0.28669
vn 0.1833 0.2781 -0.942901
vn 0.163291 0.151692 -0.974847
vn -0.076101 -0.705206 -0.704906
vn 0.0198 -0.706017 -0.707918
vn -0.2753 -0.924599 0.2633
vn -0.300492 -0.912677 0.276993
vn -0.3441 -0.2476 0.905699
vn -0.145396 0.748081 0.647484
vn 0.467402 0.883703 -0.0246
vn 0.398795 0.447594 -0.800389
vn 0.320005 -0.615309 -0.720411
vn -0.075203 -0.987642 0.137506
vn -0.337089 -0.494784 0.800974
vn -0.044602 0.612221 0.789428
vn 0.558594 0.678493 0.477095
vn 0.508199 0.839198 -0.193599
vn 0.390608 0.112803 -0.91362
vn 0.445769 -0.746848 -0.493466
vn -0.045501 -0.974931 0.217807
vn -0.124397 -0.071198 0.989675
vn -0.202005 0.291107 -0.935121
vn -0.0207 0.971679 -0.235395
vn -0.152303 0.96772 -0.200804
vn -0.195692 0.936964 0.289489
vn -0.063102 0.732422 0.677921
vn -0.128399 0.366298 0.921596
vn -0.0003 0.338698 0.940895
vn -0.406521 0.808342 0.425822
vn -0.731497 -0.0184 -0.681597
vn -0.751799 -0.0777 -0.654799
vn -0.95182 -0.077102 -0.296806
vn -0.986157 0.020899 -0.164493
vn -0.948787 -0.155498 -0.274996
vn -0.702001 0.077 0.708001
vn -0.875292 0.0004 0.483595
vn -0.455504 0.0467 0.889008
vn -0.444091 0.083498 0.892083
vn -0.898698 -0.1121 0.423999
vn 0.016899 -0.531379 -0.846966
vn 0.270602 -0.851306 -0.449503
vn 0.296999 -0.364198 -0.882696
vn 0.0107 -0.999236 0.037601
vn 0.306594 -0.927381 0.214395
vn 0.076005 -0.879158 -0.470431
vn 0.760997 -0.574598 -0.301199
vn 0.752667 0.46018 -0.470879
vn 0.971358 0.158993 -0.176592
vn 0.846418 0.50401 0.171904
vn 0.648206 0.221602 -0.728507
vn 0.745605 -0.130401 -0.653505
vn 0.903352 -0.096406 -0.417924
vn 0.992228 -0.052101 0.113003
vn 0.851777 0.303292 0.427189
vn 0.939676 -0.061498 0.336492
vn -0.558919 -0.366313 0.743925
vn -0.894348 0.17641 -0.411122
vn -0.639598 -0.643698 -0.420199
vn -0.0166 0.730891 0.682292
vn 0.22871 -0.549125 -0.803837
vn 0.213302 0.538005 -0.815508
vn 0.335806 0.798515 -0.499609
vn 0.0098 -0.748294 -0.663295
vn 0.018399 -0.937467 0.347588
vn -0.197503 -0.807714 0.555509
vn 0.139399 0.966392 0.215998
vn 0.310088 0.878767 0.362786
vn -0.050902 0.322111 0.945333
vn 0.133495 -0.031099 0.990562
vn 0.179901 0.186701 -0.965805
vn 0.027101 -0.997241 -0.069103
vn -0.358297 -0.607996 0.708495
vn -0.083304 0.989453 -0.118506
vn -0.048998 0.69897 0.71347
vn 0.298914 -0.449021 -0.84204
vn 0.075001 0.791609 -0.606407
vn -0.0217 -0.754193 -0.656294
vn -0.094799 -0.971692 0.216398
vn 0.043499 0.59158 -0.805072
vn -0.221704 0.129202 0.966517
vn -0.0588 0.956304 0.286401
vn -0.950931 -0.090703 0.29581
vn -0.2278 0.2666 0.9365
vn -0.484589 0.561087 -0.671085
vn -0.311605 -0.521508 -0.794312
vn -0.133698 0.658188 -0.740887
vn -0.126798 0.931585 0.340695
vn -0.324304 -0.453406 0.830211
vn 0.368598 0.732695 0.572096
vn -0.880869 -0.473284 -0.0085
vn -0.039999 0.97218 -0.230795
vn 0.758383 0.43279 -0.487389
vn 0.470701 0.795501 0.381601
vn 0.464478 -0.262588 0.845759
vn 0.265312 -0.733534 0.625729
vn 0.758383 0.43279 -0.487389
vn -0.193794 0.294892 -0.935672
vn 0.207495 0.951678 -0.226395
vn 0.470701 0.795501 0.381601
vn -0.116203 0.359909 0.925723
vn 0.464478 -0.262588 0.845759
vn -0.514509 -0.770013 0.377306
vn 0.265312 -0.733534 0.625729
vn -0.233603 -0.651808 -0.721509
vn 0.772602 -0.570401 -0.278801
vn 0.772602 -0.570401 -0.278801
vt 0.5976 0.4283
vt 0.6237 0.4148
vt 0.5951 0.3701
vt 0.7106 0.5163
vt 0.7329 0.4884
vt 0.667 0.4578
vt 0.6156 0.4848
vt 0.7077 0.5563
vt 0.3993 0.1198
vt 0.4582 0.1493
vt 0.4284 0.1756
vt 0.5628 0.2871
vt 0.5635 0.1568
vt 0.5351 0.2109
vt 0.4014 0.0176
vt 0.4343 0.0842
vt 0.4804 0.1216
vt 0.4177 0.3239
vt 0.3853 0.3043
vt 0.4231 0.27
vt 0.3939 0.2242
vt 0.3657 0.3245
vt 0.4131 0.3428
vt 0.3876 0.3662
vt 0.4211 0.369
vt 0.442 0.4547
vt 0.5114 0.3008
vt 0.4972 0.4053
vt 0.4384 0.4021
vt 0.5224 0.3504
vt 0.5654 0.3091
vt 0.3704 0.3721
vt 0.5132 0.4207
vt 0.4588 0.4249
vt 0.5946 0.3199
vt 0.5584 0.3617
vt 0.4211 0.369
vt 0.4384 0.4021
vt 0.442 0.4547
vt 0.4384 0.4021
vt 0.4588 0.4249
vt 0.442 0.4547
vt 0.4907 0.0694
vt 0.5022 0.0712
vt 0.5024 0.0598
vt 0.4942 0.0529
vt 0.5047 0.0806
vt 0.5329 0.0646
vt 0.5012 0.0753
vt 0.5976 0.4283
vt 0.5951 0.3701
vt 0.6237 0.4148
vt 0.7106 0.5163
vt 0.667 0.4578
vt 0.7329 0.4884
vt 0.6156 0.4848
vt 0.7077 0.5563
vt 0.3993 0.1198
vt 0.4284 0.1756
vt 0.4582 0.1493
vt 0.5628 0.2871
vt 0.5635 0.1568
vt 0.5351 0.2109
vt 0.4343 0.0842
vt 0.4014 0.0176
vt 0.4804 0.1216
vt 0.4177 0.3239
vt 0.4231 0.27
vt 0.3853 0.3043
vt 0.3939 0.2242
vt 0.3876 0.3662
vt 0.4131 0.3428
vt 0.4211 0.369
vt 0.5114 0.3008
vt 0.4384 0.4021
vt 0.4972 0.4053
vt 0.5224 0.3504
vt 0.5654 0.3091
vt 0.4211 0.369
vt 0.442 0.4547
vt 0.4384 0.4021
vt 0.4384 0.4021
vt 0.442 0.4547
vt 0.4588 0.4249
vt 0.4907 0.0694
vt 0.5024 0.0598
vt 0.5022 0.0712
vt 0.4942 0.0529
vt 0.5047 0.0806
vt 0.5329 0.0646
vt 0.5012 0.0753
vt 0.8704 0.7539
vt 0.7648 0.7667
vt 0.8612 0.7176
vt 0.7648 0.8165
vt 0.8608 0.8329
vt 0.8702 0.8038
vt 0.7648 0.8539
vt 0.8689 0.6961
vt 0.883 0.726
vt 0.9172 0.7776
vt 0.8522 0.7092
vt 0.8738 0.7903
vt 0.7648 0.7451
vt 0.7648 0.6763
vt 0.818 0.8289
vt 0.7648 0.8258
vt 0.7648 0.7486
vt 0.8248 0.6562
vt 0.8567 0.6488
vt 0.8163 0.6555
vt 0.7648 0.6362
vt 0.9159 0.7747
vt 0.8402 0.8569
vt 0.8348 0.8777
vt 0.916 0.838
vt 0.9156 0.8372
vt 0.8795 0.8433
vt 0.9101 0.8744
vt 0.8379 0.6199
vt 0.865 0.6131
vt 0.7648 0.6407
vt 0.7648 0.5605
vt 0.8396 0.6317
vt 0.7648 0.6124
vt 0.8325 0.8784
vt 0.7648 0.8744
vt 0.5315 0.0478
vt 0.505 0.0548
vt 0.505 0.0322
vt 0.8255 0.5662
vt 0.891 0.5758
vt 0.8654 0.561
vt 0.7648 0.5509
vt 0.7648 0.5018
vt 0.8025 0.5187
vt 0.7648 0.5193
vt 0.8461 0.4564
vt 0.9064 0.5232
vt 0.7648 0.5044
vt 0.7648 0.5303
vt 0.8192 0.5092
vt 0.81 0.4719
vt 0.7983 0.4158
vt 0.9147 0.4506
vt 0.8216 0.321
vt 0.8562 0.352
vt 0.917 0.339
vt 0.8806 0.3618
vt 0.8621 0.4764
vt 0.8823 0.1608
vt 0.9398 0.1219
vt 0.8691 0.086
vt 0.8893 0.1214
vt 0.9569 0.125
vt 0.9376 0.0833
vt 0.9051 0.0369
vt 0.8969 0.0861
vt 0.8042 0.0767
vt 0.7568 0.1118
vt 0.8155 0.0768
vt 0.8085 0.0434
vt 0.6969 0.0717
vt 0.7494 0.1389
vt 0.7105 0.0727
vt 0.7568 0.1118
vt 0.7494 0.1389
vt 0.7049 0.0405
vt 0.7551 0.0393
vt 0.7343 0.0055
vt 0.7105 0.0727
vt 0.7065 0.1179
vt 0.6425 0.2273
vt 0.6407 0.0202
vt 0.6416 0.0845
vt 0.6414 0.0821
vt 0.919 0.2124
vt 0.9896 0.241
vt 0.5094 0.0307
vt 0.5085 0.0751
vt 0.4903 0.1022
vt 0.5407 0.1003
vt 0.9786 0.0859
vt 0.5104 0.0721
vt 0.5188 0.0849
vt 0.5272 0.0725
vt 0.5178 0.0434
vt 0.505 0.0911
vt 0.5287 0.0816
vt 0.9778 0.6372
vt 0.9478 0.6531
vt 0.9725 0.6605
vt 0.9299 0.6789
vt 0.9642 0.6864
vt 0.9984 0.6939
vt 0.9813 0.746
vt 0.9813 0.746
vt 0.9984 0.6939
vt 0.947 0.7386
vt 0.9642 0.6864
vt 0.9127 0.7311
vt 0.9299 0.6789
vt 0.9127 0.7311
vt 0.947 0.7386
vt 0.9649 0.8152
vt 0.9649 0.8152
vt 0.9298 0.7907
vt 0.895 0.7733
vt 0.895 0.7733
vt 0.9298 0.7907
vt 0.9139 0.8427
vt 0.9139 0.8427
vt 0.9 0.827
vt 0.8759 0.7991
vt 0.8759 0.7991
vt 0.9 0.827
vt 0.9995 0.6659
vt 0.3514 0.9884
vt 0.5269 0.8751
vt 0.5143 0.9732
vt 0.3649 0.8751
vt 0.5151 0.8005
vt 0.3463 0.7874
vt 0.614 0.8865
vt 0.2454 0.9784
vt 0.1705 0.8517
vt 0.231 0.8375
vt 0.1705 0.9943
vt 0.1713 0.7672
vt 0.0719 0.9943
vt 0.0183 0.8427
vt 0.0719 0.8517
vt 0.0047 0.9773
vt 0.0744 0.7683
vt 0.5186 0.0392
vt 0.4872 0.0347
vt 0.4973 0.0617
vt 0.4872 0.0897
vt 0.5186 0.0852
vt 0.5374 0.0617
vt 0.4908 0.0617
vt 0.4994 0.088
vt 0.5194 0.088
vt 0.5091 0.0781
vt 0.485 0.0835
vt 0.4881 0.0482
vt 0.4994 0.0316
vt 0.5194 0.0316
vt 0.5349 0.0842
vt 0.5318 0.0489
vt 0.5618 0.4409
vt 0.5568 0.4388
vt 0.5186 0.4327
vt 0.5186 0.4351
vt 0.5713 0.6728
vt 0.5442 0.6744
vt 0.5459 0.6231
vt 0.586 0.6185
vt 0.5442 0.6733
vt 0.5459 0.626
vt 0.521 0.6719
vt 0.5108 0.6316
vt 0.513 0.6725
vt 0.499 0.6351
vt 0.5498 0.5521
vt 0.565 0.5469
vt 0.5407 0.5436
vt 0.5203 0.5542
vt 0.5158 0.5496
vt 0.5586 0.5333
vt 0.5159 0.5339
vt 0.561 0.505
vt 0.5662 0.4845
vt 0.5162 0.5023
vt 0.5367 0.4838
vt 0.4956 0.4981
vt 0.5026 0.4954
vt 0.5031 0.4895
vt 0.4961 0.4922
vt 0.5621 0.4767
vt 0.52 0.4746
vt 0.5199 0.4841
vt 0.5195 0.5187
vt 0.5051 0.5248
vt 0.52 0.5065
vt 0.5056 0.5126
vt 0.5287 0.0819
vt 0.5022 0.0516
vt 0.5254 0.0516
vt 0.4989 0.0819
vt 0.5798 0.6879
vt 0.4984 0.656
vt 0.5798 0.656
vt 0.4984 0.6879
vt 0.4984 0.656
vt 0.4984 0.6879
vt 0.5798 0.656
vt 0.5798 0.6879
vt 0.6278 0.6761
vt 0.5047 0.0963
vt 0.6185 0.7704
vt 0.8704 0.7539
vt 0.8612 0.7176
vt 0.8608 0.8329
vt 0.8702 0.8038
vt 0.883 0.726
vt 0.8689 0.6961
vt 0.9172 0.7776
vt 0.8738 0.7903
vt 0.8522 0.7092
vt 0.818 0.8289
vt 0.8248 0.6562
vt 0.8567 0.6488
vt 0.8163 0.6555
vt 0.9159 0.7747
vt 0.8402 0.8569
vt 0.8348 0.8777
vt 0.916 0.838
vt 0.9156 0.8372
vt 0.8795 0.8433
vt 0.9101 0.8744
vt 0.8379 0.6199
vt 0.865 0.6131
vt 0.8396 0.6317
vt 0.8325 0.8784
vt 0.5315 0.0478
vt 0.8255 0.5662
vt 0.891 0.5758
vt 0.8654 0.561
vt 0.8025 0.5187
vt 0.8461 0.4564
vt 0.9064 0.5232
vt 0.8192 0.5092
vt 0.81 0.4719
vt 0.7983 0.4158
vt 0.9147 0.4506
vt 0.8562 0.352
vt 0.8216 0.321
vt 0.917 0.339
vt 0.8806 0.3618
vt 0.8621 0.4764
vt 0.8823 0.1608
vt 0.8691 0.086
vt 0.9398 0.1219
vt 0.9569 0.125
vt 0.8893 0.1214
vt 0.9051 0.0369
vt 0.9376 0.0833
vt 0.8969 0.0861
vt 0.8042 0.0767
vt 0.7568 0.1118
vt 0.8155 0.0768
vt 0.8085 0.0434
vt 0.6969 0.0717
vt 0.7494 0.1389
vt 0.7105 0.0727
vt 0.7494 0.1389
vt 0.7568 0.1118
vt 0.7049 0.0405
vt 0.7343 0.0055
vt 0.7551 0.0393
vt 0.7105 0.0727
vt 0.6425 0.2273
vt 0.7065 0.1179
vt 0.6407 0.0202
vt 0.6416 0.0845
vt 0.6414 0.0821
vt 0.9896 0.241
vt 0.919 0.2124
vt 0.5094 0.0307
vt 0.4903 0.1022
vt 0.5085 0.0751
vt 0.5407 0.1003
vt 0.9786 0.0859
vt 0.5104 0.0721
vt 0.5272 0.0725
vt 0.5188 0.0849
vt 0.5178 0.0434
vt 0.5287 0.0816
vt 0.9778 0.6372
vt 0.9725 0.6605
vt 0.9478 0.6531
vt 0.9299 0.6789
vt 0.9642 0.6864
vt 0.9984 0.6939
vt 0.9813 0.746
vt 0.9813 0.746
vt 0.9984 0.6939
vt 0.947 0.7386
vt 0.9642 0.6864
vt 0.9127 0.7311
vt 0.9299 0.6789
vt 0.9127 0.7311
vt 0.947 0.7386
vt 0.9649 0.8152
vt 0.9649 0.8152
vt 0.9298 0.7907
vt 0.895 0.7733
vt 0.895 0.7733
vt 0.9298 0.7907
vt 0.9139 0.8427
vt 0.9139 0.8427
vt 0.9 0.827
vt 0.8759 0.7991
vt 0.8759 0.7991
vt 0.9 0.827
vt 0.9995 0.6659
vt 0.3514 0.9884
vt 0.5143 0.9732
vt 0.5269 0.8751
vt 0.3649 0.8751
vt 0.5151 0.8005
vt 0.3463 0.7874
vt 0.614 0.8865
vt 0.2454 0.9784
vt 0.231 0.8375
vt 0.1705 0.8517
vt 0.1705 0.9943
vt 0.1713 0.7672
vt 0.0719 0.9943
vt 0.0719 0.8517
vt 0.0183 0.8427
vt 0.0047 0.9773
vt 0.0744 0.7683
vt 0.5186 0.0392
vt 0.4973 0.0617
vt 0.4872 0.0347
vt 0.5186 0.0852
vt 0.4872 0.0897
vt 0.5374 0.0617
vt 0.4908 0.0617
vt 0.4994 0.088
vt 0.5091 0.0781
vt 0.5194 0.088
vt 0.485 0.0835
vt 0.4881 0.0482
vt 0.4994 0.0316
vt 0.5194 0.0316
vt 0.5349 0.0842
vt 0.5318 0.0489
vt 0.5618 0.4409
vt 0.5186 0.4327
vt 0.5568 0.4388
vt 0.5186 0.4351
vt 0.5713 0.6728
vt 0.5459 0.6231
vt 0.5442 0.6744
vt 0.586 0.6185
vt 0.5442 0.6733
vt 0.5459 0.626
vt 0.5108 0.6316
vt 0.521 0.6719
vt 0.499 0.6351
vt 0.513 0.6725
vt 0.5498 0.5521
vt 0.565 0.5469
vt 0.5407 0.5436
vt 0.5203 0.5542
vt 0.5158 0.5496
vt 0.5586 0.5333
vt 0.5159 0.5339
vt 0.561 0.505
vt 0.5662 0.4845
vt 0.5162 0.5023
vt 0.5367 0.4838
vt 0.4956 0.4981
vt 0.5031 0.4895
vt 0.5026 0.4954
vt 0.4961 0.4922
vt 0.5621 0.4767
vt 0.52 0.4746
vt 0.5199 0.4841
vt 0.5195 0.5187
vt 0.5051 0.5248
vt 0.52 0.5065
vt 0.5056 0.5126
vt 0.5287 0.0819
vt 0.5254 0.0516
vt 0.5022 0.0516
vt 0.4989 0.0819
vt 0.5798 0.6879
vt 0.5798 0.656
vt 0.4984 0.656
vt 0.4984 0.6879
vt 0.4984 0.656
vt 0.4984 0.6879
vt 0.5798 0.656
vt 0.5798 0.6879
vt 0.6278 0.6761
vt 0.5047 0.0963
vt 0.6185 0.7704
f 55/55/55 57/57/57 56/56/56
f 58/58/58 60/60/60 59/59/59
f 61/61/61 55/55/55 60/60/60
f 55/55/55 56/56/56 60/60/60
f 58/58/58 62/62/62 61/61/61
f 61/61/61 60/60/60 58/58/58
f 63/63/63 65/65/65 64/64/64
f 66/66/66 64/64/64 65/65/65
f 67/67/67 64/64/64 68/68/68
f 66/66/66 68/68/68 64/64/64
f 63/63/63 70/70/70 69/69/69
f 70/70/70 63/63/63 64/64/64
f 67/67/67 71/71/71 64/64/64
f 71/71/71 70/70/70 64/64/64
f 72/72/72 74/74/74 73/73/73
f 73/73/73 74/74/74 75/75/75
f 76/76/76 78/78/78 77/77/77
f 74/74/74 72/72/72 79/79/79
f 78/78/78 80/80/80 79/79/79
f 77/77/77 78/78/78 79/79/79
f 74/74/74 79/79/79 81/81/81
f 79/79/79 83/83/83 82/82/82
f 84/84/84 85/85/85 81/81/81
f 84/84/84 79/79/79 82/82/82
f 76/76/76 86/86/86 78/78/78
f 80/80/80 78/78/78 86/86/86
f 87/87/87 83/83/83 88/88/88
f 83/83/83 87/87/87 82/82/82
f 89/89/89 84/84/84 90/90/90
f 84/84/84 89/89/89 85/85/85
f 79/79/79 72/72/72 77/77/77
f 79/79/79 84/84/84 81/81/81
f 87/87/87 84/84/84 82/82/82
f 84/84/84 87/87/87 90/90/90
f 91/91/91 93/93/93 92/92/92
f 94/94/94 96/96/96 95/95/95
f 97/97/97 99/99/99 98/98/98
f 100/100/100 99/99/99 97/97/97
f 101/101/101 98/98/98 102/102/102
f 102/102/102 98/98/98 99/99/99
f 103/103/103 98/98/98 101/101/101
f 104/104/104 106/106/106 105/105/105
f 107/107/107 109/109/109 108/108/108
f 110/110/110 108/108/108 104/104/104
f 104/104/104 108/108/108 106/106/106
f 107/107/107 110/110/110 111/111/111
f 110/110/110 107/107/107 108/108/108
f 112/112/112 114/114/114 113/113/113
f 115/115/115 113/113/113 114/114/114
f 116/116/116 117/117/117 114/114/114
f 115/115/115 114/114/114 117/117/117
f 112/112/112 119/119/119 118/118/118
f 118/118/118 114/114/114 112/112/112
f 116/116/116 114/114/114 120/120/120
f 120/120/120 114/114/114 118/118/118
f 121/121/121 123/123/123 122/122/122
f 123/123/123 124/124/124 122/122/122
f 76/76/76 126/126/126 125/125/125
f 122/122/122 127/127/127 121/121/121
f 125/125/125 127/127/127 80/80/80
f 126/126/126 127/127/127 125/125/125
f 122/122/122 128/128/128 127/127/127
f 127/127/127 130/130/130 129/129/129
f 131/131/131 128/128/128 132/132/132
f 131/131/131 130/130/130 127/127/127
f 76/76/76 125/125/125 86/86/86
f 80/80/80 86/86/86 125/125/125
f 87/87/87 88/88/88 129/129/129
f 129/129/129 130/130/130 87/87/87
f 89/89/89 90/90/90 131/131/131
f 131/131/131 132/132/132 89/89/89
f 127/127/127 126/126/126 121/121/121
f 127/127/127 128/128/128 131/131/131
f 87/87/87 130/130/130 131/131/131
f 131/131/131 90/90/90 87/87/87
f 133/133/133 135/135/135 134/134/134
f 136/136/136 138/138/138 137/137/137
f 139/139/139 141/141/141 140/140/140
f 142/142/142 139/139/139 140/140/140
f 143/143/143 144/144/144 141/141/141
f 144/144/144 140/140/140 141/141/141
f 145/145/145 143/143/143 141/141/141
f 146/146/146 148/148/148 147/147/147
f 149/149/149 146/146/146 147/147/147
f 150/150/150 151/151/151 149/149/149
f 149/149/149 152/152/152 150/150/150
f 148/148/148 154/154/154 153/153/153
f 148/148/148 146/146/146 154/154/154
f 155/155/155 157/157/157 156/156/156
f 153/153/153 154/154/154 156/156/156
f 158/158/158 159/159/159 156/156/156
f 158/158/158 156/156/156 157/157/157
f 158/158/158 157/157/157 160/160/160
f 158/158/158 160/160/160 161/161/161
f 148/148/148 162/162/162 147/147/147
f 162/162/162 148/148/148 163/163/163
f 153/153/153 163/163/163 148/148/148
f 163/163/163 153/153/153 164/164/164
f 159/159/159 165/165/165 156/156/156
f 165/165/165 159/159/159 166/166/166
f 165/165/165 164/164/164 153/153/153
f 153/153/153 156/156/156 165/165/165
f 149/149/149 151/151/151 146/146/146
f 146/146/146 167/167/167 154/154/154
f 167/167/167 146/146/146 151/151/151
f 168/168/168 150/150/150 169/169/169
f 150/150/150 168/168/168 170/170/170
f 156/156/156 154/154/154 155/155/155
f 171/171/171 172/172/172 157/157/157
f 172/172/172 173/173/173 168/168/168
f 168/168/168 160/160/160 172/172/172
f 164/164/164 174/174/174 163/163/163
f 174/174/174 164/164/164 175/175/175
f 163/163/163 176/176/176 162/162/162
f 176/176/176 163/163/163 177/177/177
f 166/166/166 178/178/178 165/165/165
f 178/178/178 166/166/166 179/179/179
f 165/165/165 175/175/175 164/164/164
f 175/175/175 165/165/165 178/178/178
f 167/167/167 151/151/151 170/170/170
f 173/173/173 170/170/170 168/168/168
f 151/151/151 150/150/150 170/170/170
f 157/157/157 172/172/172 160/160/160
f 173/173/173 172/172/172 171/171/171
f 168/168/168 180/180/180 160/160/160
f 160/160/160 181/181/181 161/161/161
f 181/181/181 160/160/160 180/180/180
f 180/180/180 168/168/168 169/169/169
f 169/169/169 150/150/150 152/152/152
f 182/182/182 184/184/184 183/183/183
f 175/175/175 185/185/185 174/174/174
f 185/185/185 175/175/175 186/186/186
f 174/174/174 177/177/177 163/163/163
f 177/177/177 174/174/174 185/185/185
f 179/179/179 187/187/187 178/178/178
f 187/187/187 179/179/179 188/188/188
f 178/178/178 186/186/186 175/175/175
f 186/186/186 178/178/178 187/187/187
f 189/189/189 191/191/191 190/190/190
f 192/192/192 190/190/190 185/185/185
f 185/185/185 186/186/186 193/193/193
f 185/185/185 190/190/190 177/177/177
f 194/194/194 196/196/196 195/195/195
f 197/197/197 189/189/189 198/198/198
f 188/188/188 196/196/196 187/187/187
f 187/187/187 193/193/193 186/186/186
f 193/193/193 187/187/187 199/199/199
f 198/198/198 201/201/201 200/200/200
f 193/193/193 192/192/192 185/185/185
f 192/192/192 193/193/193 202/202/202
f 203/203/203 204/204/204 197/197/197
f 204/204/204 199/199/199 187/187/187
f 187/187/187 196/196/196 204/204/204
f 202/202/202 201/201/201 192/192/192
f 193/193/193 199/199/199 202/202/202
f 200/200/200 203/203/203 197/197/197
f 197/197/197 198/198/198 200/200/200
f 203/203/203 202/202/202 199/199/199
f 205/205/205 207/207/207 206/206/206
f 205/205/205 209/209/209 208/208/208
f 207/207/207 211/211/211 210/210/210
f 210/210/210 206/206/206 207/207/207
f 210/210/210 212/212/212 209/209/209
f 212/212/212 210/210/210 211/211/211
f 205/205/205 213/213/213 207/207/207
f 213/213/213 205/205/205 214/214/214
f 215/215/215 214/214/214 205/205/205
f 205/205/205 208/208/208 215/215/215
f 207/207/207 216/216/216 211/211/211
f 216/216/216 207/207/207 213/213/213
f 216/216/216 215/215/215 212/212/212
f 212/212/212 211/211/211 216/216/216
f 217/217/217 214/214/214 218/218/218
f 219/219/219 221/221/221 220/220/220
f 222/222/222 224/224/224 223/223/223
f 223/223/223 213/213/213 217/217/217
f 225/225/225 223/223/223 224/224/224
f 225/225/225 227/227/227 226/226/226
f 222/222/222 217/217/217 228/228/228
f 225/225/225 222/222/222 228/228/228
f 227/227/227 229/229/229 217/217/217
f 217/217/217 226/226/226 227/227/227
f 230/230/230 227/227/227 225/225/225
f 206/206/206 232/232/232 231/231/231
f 209/209/209 231/231/231 232/232/232
f 155/155/155 154/154/154 167/167/167
f 197/197/197 196/196/196 194/194/194
f 189/189/189 197/197/197 194/194/194
f 177/177/177 190/190/190 191/191/191
f 195/195/195 196/196/196 188/188/188
f 189/189/189 190/190/190 198/198/198
f 197/197/197 204/204/204 196/196/196
f 203/203/203 199/199/199 204/204/204
f 233/233/233 235/235/235 234/234/234
f 234/234/234 236/236/236 233/233/233
f 210/210/210 209/209/209 237/237/237
f 237/237/237 206/206/206 210/210/210
f 212/212/212 215/215/215 208/208/208
f 208/208/208 209/209/209 212/212/212
f 213/213/213 223/223/223 216/216/216
f 213/213/213 214/214/214 217/217/217
f 214/214/214 215/215/215 225/225/225
f 215/215/215 223/223/223 225/225/225
f 215/215/215 216/216/216 223/223/223
f 222/222/222 223/223/223 217/217/217
f 217/217/217 229/229/229 228/228/228
f 217/217/217 218/218/218 226/226/226
f 218/218/218 225/225/225 226/226/226
f 222/222/222 225/225/225 224/224/224
f 238/238/238 240/240/240 239/239/239
f 230/230/230 225/225/225 228/228/228
f 238/238/238 241/241/241 240/240/240
f 206/206/206 231/231/231 205/205/205
f 231/231/231 209/209/209 205/205/205
f 192/192/192 198/198/198 190/190/190
f 198/198/198 192/192/192 201/201/201
f 171/171/171 157/157/157 155/155/155
f 242/242/242 243/243/243 183/183/183
f 243/243/243 182/182/182 183/183/183
f 244/244/244 246/246/246 245/245/245
f 244/244/244 245/245/245 247/247/247
f 244/244/244 247/247/247 248/248/248
f 249/249/249 251/251/251 250/250/250
f 249/249/249 250/250/250 252/252/252
f 252/252/252 250/250/250 253/253/253
f 252/252/252 253/253/253 254/254/254
f 254/254/254 253/253/253 255/255/255
f 254/254/254 255/255/255 256/256/256
f 256/256/256 255/255/255 257/257/257
f 256/256/256 257/257/257 247/247/247
f 247/247/247 257/257/257 258/258/258
f 247/247/247 258/258/258 248/248/248
f 248/248/248 258/258/258 251/251/251
f 248/248/248 251/251/251 249/249/249
f 251/251/251 260/260/260 259/259/259
f 251/251/251 259/259/259 250/250/250
f 250/250/250 259/259/259 261/261/261
f 250/250/250 261/261/261 253/253/253
f 253/253/253 261/261/261 262/262/262
f 253/253/253 262/262/262 255/255/255
f 255/255/255 262/262/262 263/263/263
f 255/255/255 263/263/263 257/257/257
f 257/257/257 263/263/263 264/264/264
f 257/257/257 264/264/264 258/258/258
f 258/258/258 264/264/264 260/260/260
f 258/258/258 260/260/260 251/251/251
f 260/260/260 266/266/266 265/265/265
f 260/260/260 265/265/265 259/259/259
f 259/259/259 265/265/265 267/267/267
f 259/259/259 267/267/267 261/261/261
f 261/261/261 267/267/267 268/268/268
f 261/261/261 268/268/268 262/262/262
f 262/262/262 268/268/268 269/269/269
f 262/262/262 269/269/269 263/263/263
f 263/263/263 269/269/269 270/270/270
f 263/263/263 270/270/270 264/264/264
f 264/264/264 270/270/270 266/266/266
f 264/264/264 266/266/266 260/260/260
f 271/271/271 244/244/244 249/249/249
f 246/246/246 244/244/244 271/271/271
f 244/244/244 248/248/248 249/249/249
f 256/256/256 246/246/246 254/254/254
f 246/246/246 256/256/256 245/245/245
f 247/247/247 245/245/245 256/256/256
f 249/249/249 252/252/252 271/271/271
f 254/254/254 271/271/271 252/252/252
f 271/271/271 254/254/254 246/246/246
f 272/272/272 274/274/274 273/273/273
f 272/272/272 273/273/273 275/275/275
f 275/275/275 273/273/273 276/276/276
f 275/275/275 276/276/276 277/277/277
f 274/274/274 278/278/278 273/273/273
f 273/273/273 278/278/278 276/276/276
f 279/279/279 281/281/281 280/280/280
f 279/279/279 280/280/280 282/282/282
f 281/281/281 283/283/283 280/280/280
f 284/284/284 286/286/286 285/285/285
f 284/284/284 285/285/285 287/287/287
f 286/286/286 288/288/288 285/285/285
f 282/282/282 286/286/286 284/284/284
f 282/282/282 280/280/280 286/286/286
f 280/280/280 288/288/288 286/286/286
f 280/280/280 283/283/283 288/288/288
f 289/289/289 291/291/291 290/290/290
f 291/291/291 293/293/293 292/292/292
f 294/294/294 291/291/291 289/289/289
f 290/290/290 291/291/291 295/295/295
f 295/295/295 291/291/291 292/292/292
f 294/294/294 293/293/293 291/291/291
f 296/296/296 298/298/298 297/297/297
f 299/299/299 298/298/298 296/296/296
f 299/299/299 300/300/300 298/298/298
f 300/300/300 301/301/301 298/298/298
f 301/301/301 302/302/302 298/298/298
f 298/298/298 303/303/303 297/297/297
f 298/298/298 304/304/304 303/303/303
f 304/304/304 298/298/298 302/302/302
f 305/305/305 307/307/307 306/306/306
f 307/307/307 305/305/305 308/308/308
f 309/309/309 311/311/311 310/310/310
f 311/311/311 309/309/309 312/312/312
f 313/313/313 312/312/312 309/309/309
f 312/312/312 313/313/313 314/314/314
f 310/310/310 316/316/316 315/315/315
f 316/316/316 310/310/310 311/311/311
f 315/315/315 318/318/318 317/317/317
f 318/318/318 315/315/315 316/316/316
f 317/317/317 314/314/314 313/313/313
f 314/314/314 317/317/317 318/318/318
f 319/319/319 312/312/312 320/320/320
f 312/312/312 319/319/319 311/311/311
f 314/314/314 320/320/320 312/312/312
f 320/320/320 314/314/314 321/321/321
f 311/311/311 322/322/322 316/316/316
f 322/322/322 311/311/311 319/319/319
f 316/316/316 323/323/323 318/318/318
f 323/323/323 316/316/316 322/322/322
f 318/318/318 321/321/321 314/314/314
f 321/321/321 318/318/318 323/323/323
f 320/320/320 324/324/324 319/319/319
f 325/325/325 319/319/319 324/324/324
f 319/319/319 325/325/325 322/322/322
f 323/323/323 322/322/322 325/325/325
f 320/320/320 326/326/326 324/324/324
f 326/326/326 320/320/320 327/327/327
f 324/324/324 328/328/328 325/325/325
f 328/328/328 324/324/324 326/326/326
f 321/321/321 327/327/327 320/320/320
f 327/327/327 321/321/321 329/329/329
f 330/330/330 332/332/332 331/331/331
f 332/332/332 330/330/330 333/333/333
f 327/327/327 334/334/334 326/326/326
f 326/326/326 335/335/335 328/328/328
f 335/335/335 326/326/326 334/334/334
f 336/336/336 328/328/328 335/335/335
f 327/327/327 306/306/306 334/334/334
f 306/306/306 327/327/327 305/305/305
f 334/334/334 307/307/307 335/335/335
f 307/307/307 334/334/334 306/306/306
f 329/329/329 305/305/305 327/327/327
f 305/305/305 329/329/329 308/308/308
f 335/335/335 308/308/308 336/336/336
f 308/308/308 335/335/335 307/307/307
f 336/336/336 308/308/308 329/329/329
f 323/323/323 337/337/337 321/321/321
f 337/337/337 323/323/323 338/338/338
f 321/321/321 339/339/339 329/329/329
f 339/339/339 321/321/321 337/337/337
f 329/329/329 340/340/340 336/336/336
f 340/340/340 329/329/329 339/339/339
f 338/338/338 331/331/331 337/337/337
f 331/331/331 338/338/338 330/330/330
f 337/337/337 332/332/332 339/339/339
f 332/332/332 337/337/337 331/331/331
f 339/339/339 333/333/333 340/340/340
f 333/333/333 339/339/339 332/332/332
f 340/340/340 330/330/330 338/338/338
f 330/330/330 340/340/340 333/333/333
f 328/328/328 336/336/336 340/340/340
f 328/328/328 340/340/340 325/325/325
f 325/325/325 340/340/340 323/323/323
f 340/340/340 338/338/338 323/323/323
f 341/341/341 343/343/343 342/342/342
f 341/341/341 342/342/342 344/344/344
f 345/345/345 347/347/347 346/346/346
f 345/345/345 346/346/346 348/348/348
f 348/348/348 346/346/346 349/349/349
f 348/348/348 349/349/349 350/350/350
f 350/350/350 349/349/349 351/351/351
f 350/350/350 351/351/351 352/352/352
f 347/347/347 353/353/353 351/351/351
f 351/351/351 353/353/353 352/352/352
f 345/345/345 353/353/353 347/347/347
f 344/344/344 354/354/354 341/341/341
f 353/353/353 345/345/345 355/355/355
f 353/353/353 355/355/355 352/352/352
f 356/356/356 147/147/147 357/357/357
f 149/149/149 147/147/147 356/356/356
f 358/358/358 149/149/149 359/359/359
f 149/149/149 358/358/358 152/152/152
f 357/357/357 361/361/361 360/360/360
f 357/357/357 360/360/360 356/356/356
f 362/362/362 364/364/364 363/363/363
f 361/361/361 364/364/364 360/360/360
f 158/158/158 364/364/364 159/159/159
f 158/158/158 363/363/363 364/364/364
f 158/158/158 365/365/365 363/363/363
f 158/158/158 161/161/161 365/365/365
f 357/357/357 147/147/147 162/162/162
f 162/162/162 366/366/366 357/357/357
f 361/361/361 357/357/357 366/366/366
f 366/366/366 367/367/367 361/361/361
f 159/159/159 364/364/364 368/368/368
f 368/368/368 166/166/166 159/159/159
f 368/368/368 361/361/361 367/367/367
f 361/361/361 368/368/368 364/364/364
f 149/149/149 356/356/356 359/359/359
f 356/356/356 360/360/360 369/369/369
f 369/369/369 359/359/359 356/356/356
f 370/370/370 371/371/371 358/358/358
f 358/358/358 372/372/372 370/370/370
f 364/364/364 362/362/362 360/360/360
f 373/373/373 363/363/363 374/374/374
f 374/374/374 370/370/370 375/375/375
f 370/370/370 374/374/374 365/365/365
f 367/367/367 366/366/366 376/376/376
f 376/376/376 377/377/377 367/367/367
f 366/366/366 162/162/162 176/176/176
f 176/176/176 177/177/177 366/366/366
f 166/166/166 368/368/368 378/378/378
f 378/378/378 179/179/179 166/166/166
f 368/368/368 367/367/367 377/377/377
f 377/377/377 378/378/378 368/368/368
f 369/369/369 372/372/372 359/359/359
f 375/375/375 370/370/370 372/372/372
f 359/359/359 372/372/372 358/358/358
f 363/363/363 365/365/365 374/374/374
f 375/375/375 373/373/373 374/374/374
f 370/370/370 365/365/365 379/379/379
f 365/365/365 161/161/161 181/181/181
f 181/181/181 379/379/379 365/365/365
f 379/379/379 371/371/371 370/370/370
f 371/371/371 152/152/152 358/358/358
f 380/380/380 183/183/183 184/184/184
f 377/377/377 376/376/376 381/381/381
f 381/381/381 382/382/382 377/377/377
f 376/376/376 366/366/366 177/177/177
f 177/177/177 381/381/381 376/376/376
f 179/179/179 378/378/378 383/383/383
f 383/383/383 188/188/188 179/179/179
f 378/378/378 377/377/377 382/382/382
f 382/382/382 383/383/383 378/378/378
f 189/189/189 384/384/384 191/191/191
f 385/385/385 381/381/381 384/384/384
f 381/381/381 386/386/386 382/382/382
f 381/381/381 177/177/177 384/384/384
f 194/194/194 195/195/195 387/387/387
f 388/388/388 389/389/389 189/189/189
f 188/188/188 383/383/383 387/387/387
f 383/383/383 382/382/382 386/386/386
f 386/386/386 390/390/390 383/383/383
f 389/389/389 392/392/392 391/391/391
f 386/386/386 381/381/381 385/385/385
f 385/385/385 393/393/393 386/386/386
f 394/394/394 388/388/388 395/395/395
f 395/395/395 383/383/383 390/390/390
f 383/383/383 395/395/395 387/387/387
f 393/393/393 385/385/385 391/391/391
f 386/386/386 393/393/393 390/390/390
f 392/392/392 388/388/388 394/394/394
f 388/388/388 392/392/392 389/389/389
f 394/394/394 390/390/390 393/393/393
f 396/396/396 398/398/398 397/397/397
f 396/396/396 400/400/400 399/399/399
f 397/397/397 402/402/402 401/401/401
f 402/402/402 397/397/397 398/398/398
f 402/402/402 399/399/399 403/403/403
f 403/403/403 401/401/401 402/402/402
f 396/396/396 397/397/397 404/404/404
f 404/404/404 405/405/405 396/396/396
f 406/406/406 396/396/396 405/405/405
f 396/396/396 406/406/406 400/400/400
f 397/397/397 401/401/401 407/407/407
f 407/407/407 404/404/404 397/397/397
f 407/407/407 403/403/403 406/406/406
f 403/403/403 407/407/407 401/401/401
f 408/408/408 409/409/409 405/405/405
f 410/410/410 412/412/412 411/411/411
f 413/413/413 415/415/415 414/414/414
f 415/415/415 408/408/408 404/404/404
f 416/416/416 414/414/414 415/415/415
f 416/416/416 418/418/418 417/417/417
f 413/413/413 419/419/419 408/408/408
f 416/416/416 419/419/419 413/413/413
f 417/417/417 408/408/408 420/420/420
f 408/408/408 417/417/417 418/418/418
f 421/421/421 416/416/416 417/417/417
f 398/398/398 423/423/423 422/422/422
f 399/399/399 422/422/422 423/423/423
f 362/362/362 369/369/369 360/360/360
f 388/388/388 194/194/194 387/387/387
f 189/189/189 194/194/194 388/388/388
f 177/177/177 191/191/191 384/384/384
f 195/195/195 188/188/188 387/387/387
f 189/189/189 389/389/389 384/384/384
f 388/388/388 387/387/387 395/395/395
f 394/394/394 395/395/395 390/390/390
f 424/424/424 426/426/426 425/425/425
f 426/426/426 424/424/424 427/427/427
f 402/402/402 428/428/428 399/399/399
f 428/428/428 402/402/402 398/398/398
f 403/403/403 400/400/400 406/406/406
f 400/400/400 403/403/403 399/399/399
f 404/404/404 407/407/407 415/415/415
f 404/404/404 408/408/408 405/405/405
f 405/405/405 416/416/416 406/406/406
f 406/406/406 416/416/416 415/415/415
f 406/406/406 415/415/415 407/407/407
f 413/413/413 408/408/408 415/415/415
f 408/408/408 419/419/419 420/420/420
f 408/408/408 418/418/418 409/409/409
f 409/409/409 418/418/418 416/416/416
f 413/413/413 414/414/414 416/416/416
f 429/429/429 431/431/431 430/430/430
f 421/421/421 419/419/419 416/416/416
f 429/429/429 430/430/430 432/432/432
f 398/398/398 396/396/396 423/423/423
f 423/423/423 396/396/396 399/399/399
f 385/385/385 384/384/384 389/389/389
f 389/389/389 391/391/391 385/385/385
f 373/373/373 362/362/362 363/363/363
f 242/242/242 183/183/183 433/433/433
f 433/433/433 183/183/183 380/380/380
f 434/434/434 436/436/436 435/435/435
f 434/434/434 437/437/437 436/436/436
f 434/434/434 438/438/438 437/437/437
f 439/439/439 441/441/441 440/440/440
f 439/439/439 442/442/442 441/441/441
f 442/442/442 443/443/443 441/441/441
f 442/442/442 444/444/444 443/443/443
f 444/444/444 445/445/445 443/443/443
f 444/444/444 446/446/446 445/445/445
f 446/446/446 447/447/447 445/445/445
f 446/446/446 437/437/437 447/447/447
f 437/437/437 448/448/448 447/447/447
f 437/437/437 438/438/438 448/448/448
f 438/438/438 440/440/440 448/448/448
f 438/438/438 439/439/439 440/440/440
f 440/440/440 450/450/450 449/449/449
f 440/440/440 441/441/441 450/450/450
f 441/441/441 451/451/451 450/450/450
f 441/441/441 443/443/443 451/451/451
f 443/443/443 452/452/452 451/451/451
f 443/443/443 445/445/445 452/452/452
f 445/445/445 453/453/453 452/452/452
f 445/445/445 447/447/447 453/453/453
f 447/447/447 454/454/454 453/453/453
f 447/447/447 448/448/448 454/454/454
f 448/448/448 449/449/449 454/454/454
f 448/448/448 440/440/440 449/449/449
f 449/449/449 456/456/456 455/455/455
f 449/449/449 450/450/450 456/456/456
f 450/450/450 457/457/457 456/456/456
f 450/450/450 451/451/451 457/457/457
f 451/451/451 458/458/458 457/457/457
f 451/451/451 452/452/452 458/458/458
f 452/452/452 459/459/459 458/458/458
f 452/452/452 453/453/453 459/459/459
f 453/453/453 460/460/460 459/459/459
f 453/453/453 454/454/454 460/460/460
f 454/454/454 455/455/455 460/460/460
f 454/454/454 449/449/449 455/455/455
f 461/461/461 439/439/439 434/434/434
f 435/435/435 461/461/461 434/434/434
f 434/434/434 439/439/439 438/438/438
f 446/446/446 444/444/444 435/435/435
f 435/435/435 436/436/436 446/446/446
f 437/437/437 446/446/446 436/436/436
f 439/439/439 461/461/461 442/442/442
f 444/444/444 442/442/442 461/461/461
f 461/461/461 435/435/435 444/444/444
f 462/462/462 464/464/464 463/463/463
f 462/462/462 465/465/465 464/464/464
f 465/465/465 466/466/466 464/464/464
f 465/465/465 467/467/467 466/466/466
f 463/463/463 464/464/464 468/468/468
f 464/464/464 466/466/466 468/468/468
f 469/469/469 471/471/471 470/470/470
f 469/469/469 472/472/472 471/471/471
f 470/470/470 471/471/471 473/473/473
f 474/474/474 476/476/476 475/475/475
f 474/474/474 477/477/477 476/476/476
f 475/475/475 476/476/476 478/478/478
f 472/472/472 474/474/474 475/475/475
f 472/472/472 475/475/475 471/471/471
f 471/471/471 475/475/475 478/478/478
f 471/471/471 478/478/478 473/473/473
f 479/479/479 481/481/481 480/480/480
f 480/480/480 483/483/483 482/482/482
f 484/484/484 479/479/479 480/480/480
f 481/481/481 485/485/485 480/480/480
f 485/485/485 483/483/483 480/480/480
f 484/484/484 480/480/480 482/482/482
f 486/486/486 488/488/488 487/487/487
f 489/489/489 486/486/486 487/487/487
f 489/489/489 487/487/487 490/490/490
f 490/490/490 487/487/487 491/491/491
f 491/491/491 487/487/487 492/492/492
f 487/487/487 488/488/488 493/493/493
f 487/487/487 493/493/493 494/494/494
f 494/494/494 492/492/492 487/487/487
f 495/495/495 497/497/497 496/496/496
f 496/496/496 498/498/498 495/495/495
f 499/499/499 501/501/501 500/500/500
f 500/500/500 502/502/502 499/499/499
f 503/503/503 499/499/499 502/502/502
f 502/502/502 504/504/504 503/503/503
f 501/501/501 506/506/506 505/505/505
f 505/505/505 500/500/500 501/501/501
f 506/506/506 508/508/508 507/507/507
f 507/507/507 505/505/505 506/506/506
f 508/508/508 503/503/503 504/504/504
f 504/504/504 507/507/507 508/508/508
f 509/509/509 510/510/510 502/502/502
f 502/502/502 500/500/500 509/509/509
f 504/504/504 502/502/502 510/510/510
f 510/510/510 511/511/511 504/504/504
f 500/500/500 505/505/505 512/512/512
f 512/512/512 509/509/509 500/500/500
f 505/505/505 507/507/507 513/513/513
f 513/513/513 512/512/512 505/505/505
f 507/507/507 504/504/504 511/511/511
f 511/511/511 513/513/513 507/507/507
f 510/510/510 509/509/509 514/514/514
f 515/515/515 514/514/514 509/509/509
f 509/509/509 512/512/512 515/515/515
f 513/513/513 515/515/515 512/512/512
f 510/510/510 514/514/514 516/516/516
f 516/516/516 517/517/517 510/510/510
f 514/514/514 515/515/515 518/518/518
f 518/518/518 516/516/516 514/514/514
f 511/511/511 510/510/510 517/517/517
f 517/517/517 519/519/519 511/511/511
f 520/520/520 522/522/522 521/521/521
f 521/521/521 523/523/523 520/520/520
f 517/517/517 516/516/516 524/524/524
f 516/516/516 518/518/518 525/525/525
f 525/525/525 524/524/524 516/516/516
f 526/526/526 525/525/525 518/518/518
f 517/517/517 524/524/524 497/497/497
f 497/497/497 495/495/495 517/517/517
f 524/524/524 525/525/525 496/496/496
f 496/496/496 497/497/497 524/524/524
f 519/519/519 517/517/517 495/495/495
f 495/495/495 498/498/498 519/519/519
f 525/525/525 526/526/526 498/498/498
f 498/498/498 496/496/496 525/525/525
f 526/526/526 519/519/519 498/498/498
f 513/513/513 511/511/511 527/527/527
f 527/527/527 528/528/528 513/513/513
f 511/511/511 519/519/519 529/529/529
f 529/529/529 527/527/527 511/511/511
f 519/519/519 526/526/526 530/530/530
f 530/530/530 529/529/529 519/519/519
f 528/528/528 527/527/527 522/522/522
f 522/522/522 520/520/520 528/528/528
f 527/527/527 529/529/529 521/521/521
f 521/521/521 522/522/522 527/527/527
f 529/529/529 530/530/530 523/523/523
f 523/523/523 521/521/521 529/529/529
f 530/530/530 528/528/528 520/520/520
f 520/520/520 523/523/523 530/530/530
f 518/518/518 530/530/530 526/526/526
f 518/518/518 515/515/515 530/530/530
f 515/515/515 513/513/513 530/530/530
f 530/530/530 513/513/513 528/528/528
f 531/531/531 533/533/533 532/532/532
f 531/531/531 534/534/534 533/533/533
f 535/535/535 537/537/537 536/536/536
f 535/535/535 538/538/538 537/537/537
f 538/538/538 539/539/539 537/537/537
f 538/538/538 540/540/540 539/539/539
f 540/540/540 541/541/541 539/539/539
f 540/540/540 542/542/542 541/541/541
f 536/536/536 541/541/541 543/543/543
f 541/541/541 542/542/542 543/543/543
f 535/535/535 536/536/536 543/543/543
f 534/534/534 531/531/531 544/544/544
f 543/543/543 545/545/545 535/535/535
f 543/543/543 542/542/542 545/545/545

g skin_special_01
# texture: skin_special_01.jpg
v 0.1241 362.3835 45.7702
v 7.177 366.0238 44.61139
v 5.1736 372.8366 46.3448
v 0.1868 370.5871 45.93399
v 7.6166 372.8535 37.56339
v 6.0945 379.0756 42.9571
v -4.9329 372.5585 45.9303
v -6.929901 366.0238 44.6114
v -5.9146 378.7451 42.4646
v -7.3743 372.8335 37.6031
v -1.7088 367.2697 49.47289
v 1.8847 367.3685 49.62029
v -1.7995 371.0067 55.4072
v -5.9906 373.7368 54.9109
v 1.2955 371.0919 55.5341
v 5.357 374.049 55.3763
v -1.631 375.4523 58.9066
v -6.3089 376.7529 57.5657
v 0.5975 375.5137 58.99799
v -0.2615 370.2765 56.83509
v 5.290999 377.072 58.0414
v -2.9238 376.7533 61.50359
v -7.1358 379.3052 60.4208
v 1.6001 376.8778 61.6892
v 5.740099 379.6595 60.9488
v -4.1413 382.9084 65.9136
v 1.1564 383.018 66.09229
v 5.0459 384.5115 65.2356
v 7.175 378.419 52.03089
v 7.7193 382.2504 55.9474
v -8.8383 381.7948 55.26839
v -7.7659 378.0079 51.4182
vn -0.0155 -0.085601 0.996209
vn 0.795401 0.0242 0.605601
vn 0.863027 -0.365111 0.349111
vn 0.029599 -0.998255 -0.051098
vn 0.981897 0.1017 0.1598
vn 0.984022 0.0072 0.177904
vn -0.862284 -0.398593 0.312394
vn -0.778542 0.050803 0.625534
vn -0.98622 -0.0035 0.165403
vn -0.980509 0.106201 0.165302
vn -0.339596 -0.94039 0.0185
vn 0.462892 -0.882985 -0.077899
vn -0.392903 -0.816307 0.423403
vn -0.768883 -0.549688 0.326593
vn 0.341277 -0.786347 0.514965
vn 0.801744 -0.503628 0.321818
vn -0.290296 -0.721091 0.629092
vn -0.660525 -0.642224 0.388915
vn 0.355798 -0.676496 0.644796
vn 0.0006 -0.784378 0.620283
vn 0.715313 -0.502409 0.485709
vn -0.249791 -0.747772 0.615177
vn -0.687722 -0.586819 0.427414
vn 0.254401 -0.757202 0.601602
vn 0.623409 -0.646409 0.439906
vn -0.271699 -0.595397 0.756097
vn 0.114496 -0.573778 0.810968
vn 0.428688 -0.532586 0.72978
vn 0.954119 -0.285106 0.091502
vn 0.916041 -0.351316 0.193509
vn -0.921326 -0.36001 0.146804
vn -0.936407 -0.344403 -0.067301
vt 0.7538 0.754
vt 0.8357 0.7542
vt 0.8088 0.8195
vt 0.7515 0.7968
vt 0.8871 0.7544
vt 0.8823 0.8252
vt 0.692 0.8195
vt 0.6874 0.7542
vt 0.6068 0.8252
vt 0.6024 0.7544
vt 0.7354 0.811
vt 0.7681 0.811
vt 0.7427 0.8594
vt 0.7165 0.874
vt 0.7606 0.8594
vt 0.7857 0.874
vt 0.7442 0.8952
vt 0.7126 0.9023
vt 0.758 0.8952
vt 0.7518 0.8624
vt 0.7895 0.9023
vt 0.7379 0.9162
vt 0.7088 0.9229
vt 0.7643 0.9162
vt 0.7934 0.9229
vt 0.7401 0.981
vt 0.7668 0.981
vt 0.7943 0.9821
vt 0.8136 0.8741
vt 0.8173 0.9091
vt 0.6855 0.9082
vt 0.6892 0.8731
f 546/546/546 548/548/548 547/547/547
f 548/548/548 546/546/546 549/549/549
f 547/547/547 551/551/551 550/550/550
f 551/551/551 547/547/547 548/548/548
f 546/546/546 553/553/553 552/552/552
f 552/552/552 549/549/549 546/546/546
f 553/553/553 555/555/555 554/554/554
f 554/554/554 552/552/552 553/553/553
f 552/552/552 556/556/556 549/549/549
f 557/557/557 549/549/549 556/556/556
f 549/549/549 557/557/557 548/548/548
f 558/558/558 556/556/556 559/559/559
f 556/556/556 560/560/560 557/557/557
f 560/560/560 556/556/556 558/558/558
f 561/561/561 557/557/557 560/560/560
f 559/559/559 562/562/562 558/558/558
f 562/562/562 559/559/559 563/563/563
f 564/564/564 565/565/565 562/562/562
f 560/560/560 566/566/566 561/561/561
f 566/566/566 560/560/560 564/564/564
f 563/563/563 567/567/567 562/562/562
f 567/567/567 563/563/563 568/568/568
f 562/562/562 569/569/569 564/564/564
f 569/569/569 562/562/562 567/567/567
f 564/564/564 570/570/570 566/566/566
f 570/570/570 564/564/564 569/569/569
f 568/568/568 571/571/571 567/567/567
f 567/567/567 572/572/572 569/569/569
f 572/572/572 567/567/567 571/571/571
f 569/569/569 573/573/573 570/570/570
f 573/573/573 569/569/569 572/572/572
f 574/574/574 551/551/551 548/548/548
f 548/548/548 561/561/561 574/574/574
f 561/561/561 548/548/548 557/557/557
f 574/574/574 566/566/566 575/575/575
f 566/566/566 574/574/574 561/561/561
f 570/570/570 575/575/575 566/566/566
f 576/576/576 559/559/559 577/577/577
f 559/559/559 576/576/576 563/563/563
f 558/558/558 565/565/565 560/560/560
f 562/562/562 565/565/565 558/558/558
f 564/564/564 560/560/560 565/565/565
f 559/559/559 552/552/552 577/577/577
f 559/559/559 556/556/556 552/552/552
f 577/577/577 552/552/552 554/554/554
f 568/568/568 563/563/563 576/576/576
