# Object31.bmd — MU geometry at action 0 key 0, exported for MU2
# 2 mesh(es)

g ng01
# texture: ng01.jpg
v 7.7442 29.0811 83.436
v 5.7716 37.068 77.2234
v 13.3131 35.3382 63.94691
v -13.124 46.444 102.954
v -13.3496 54.2773 93.0612
v -1.4063 43.0549 85.3017
v 1.08 30.4932 94.444
v -21.3348 45.51009 117.418
v 7.7442 29.0811 83.436
v 0.2556 38.9344 90.8076
v 1.08 30.4932 94.444
v -21.3348 45.51009 117.418
v -13.3496 54.2773 93.0612
v -13.124 46.444 102.954
v 13.3131 35.3382 63.94691
v 5.7716 37.068 77.2234
v -1.4063 43.0549 85.3017
v 10.7923 28.8972 75.3624
v 14.4726 23.598 73.1585
v 13.5917 31.94471 66.0006
v 16.5899 27.79001 59.0368
v 14.5204 18.2993 74.3533
v 10.2217 27.6377 78.7507
v 12.2132 20.3394 82.5945
v 8.2724 28.6242 83.6697
v -4.8102 19.0409 96.6035
v 1.5984 42.2494 70.2489
v -6.4282 30.5893 85.9612
v 1.3851 24.5717 86.8697
v -6.354599 35.37531 75.7651
v -10.5842 44.347 68.1571
v 12.4774 15.5341 82.76649
v -11.6704 27.7803 86.4313
v -4.5318 22.5411 88.799
v -19.6257 42.2933 65.30151
v -14.0764 34.57721 74.9086
v 8.2724 28.6242 83.6697
v 1.3851 24.5717 86.8697
v -4.8102 19.0409 96.6035
v 1.3851 24.5717 86.8697
v -4.5318 22.5411 88.799
v -4.8102 19.0409 96.6035
v 14.4726 23.598 73.1585
v 10.7923 28.8972 75.3624
v 12.6353 30.2909 65.2248
v 16.5899 27.79001 59.0368
v 7.4555 27.2116 83.007
v -0.0298 39.434 68.9281
v 10.2217 27.6377 78.7507
v -0.6062 14.6423 76.6626
v 4.7134 20.46821 56.9712
v -5.5041 17.5709 68.0771
v -32.2262 13.41391 87.45909
v -16.8676 16.32041 72.7601
v -34.7301 17.3077 75.71829
v -9.2957 12.55231 86.02769
v -41.2576 11.06109 101.2576
v -0.6062 14.6423 76.6626
v -9.2957 12.55231 86.02769
v -14.7768 12.9416 78.61409
v -41.2576 11.06109 101.2576
v -34.7301 17.3077 75.71829
v -32.2262 13.41391 87.45909
v -5.5041 17.5709 68.0771
v 4.7134 20.46821 56.9712
v -16.8676 16.32041 72.7601
v 4.159 17.42731 69.9817
v 6.7539 20.12131 60.4541
v 10.9677 17.5376 70.3154
v 13.984 23.28401 56.923
v 8.8115 14.4575 79.83529
v 3.5884 16.16781 73.37
v 0.0269 14.36661 76.98129
v -9.2287 23.52801 61.4664
v -1.9985 18.7211 84.12509
v -10.6099 23.3585 82.5691
v -10.5702 28.086 72.3456
v -16.9996 33.25391 62.9532
v 0.0269 14.36661 76.98129
v -4.8102 19.0409 96.6035
v -1.9985 18.7211 84.12509
v -1.9985 18.7211 84.12509
v -4.8102 19.0409 96.6035
v -4.5318 22.5411 88.799
v 10.9677 17.5376 70.3154
v 7.7103 21.77501 61.2299
v 4.159 17.42731 69.9817
v 13.984 23.28401 56.923
v 0.8438 15.7792 77.64389
v -7.600501 26.34341 62.7871
v 3.5884 16.16781 73.37
v 19.2326 9.000288 37.83769
v -0.2249 4.349693 40.81789
v 17.5357 13.17649 29.98739
v -0.2249 6.728386 51.02917
v 17.4725 19.10579 53.5649
v 19.2017 17.31768 47.64719
v -0.2249 14.79668 58.23689
v 18.9614 21.16499 24.95689
v 21.5586 24.35329 30.9674
v 27.8622 37.08989 40.81619
v 15.8782 39.73849 26.3856
v 19.861 47.33168 42.7333
v -0.2248 46.90958 33.3543
v -0.2249 37.35589 20.1198
v 9.5824 47.29398 50.77821
v -0.2248 50.09908 49.93599
v -0.2249 9.874685 36.67359
v 10.8393 8.524195 16.4403
v 16.7179 18.50079 14.72929
v 9.2752 31.38229 15.9048
v -0.2249 32.45999 11.8657
v 27.6272 25.45989 41.0146
v 13.6765 38.28518 57.23219
v 12.6781 23.44408 62.60058
v 27.643 22.51758 54.38789
v 27.5551 43.30408 52.77109
v 20.9157 46.68558 53.8031
v 26.5569 33.13558 61.23649
v 13.2548 13.62869 8.814196
v 18.235 21.91439 7.256901
v -0.2249 5.402294 13.28309
v -0.225 6.321798 -3.385109
v 13.561 35.00999 10.9011
v -0.2249 39.25709 6.8165
v 12.2525 41.50008 61.474
v -0.2248 46.47128 60.30231
v 12.6781 23.44408 62.60058
v -0.2249 26.67248 54.5901
v -0.2249 14.79668 58.23689
v 10.9671 12.3555 -2.308907
v 23.036 22.9413 -0.507204
v 18.3224 40.3707 -3.885899
v -0.2249 43.7823 -6.041098
v -0.225 18.9896 -15.8101
v 6.7209 10.7179 -12.1527
v -0.225 5.072096 -11.92281
v 33.1414 26.29859 2.972095
v 21.2505 42.0987 -4.977703
v -0.2249 25.0617 -15.3722
v -0.2249 40.7355 -10.2569
v 9.797601 41.1703 -14.6561
v 18.6226 21.7909 -20.4636
v 33.9656 15.0246 -7.332205
v 31.2804 37.7489 -19.6626
v 49.0615 11.2421 -26.2326
v 49.0129 19.6922 -13.818
v 53.7681 28.5703 -27.0619
v 42.9824 24.8513 -29.9426
v 20.1273 31.0442 -24.7408
v 58.5844 15.4705 -40.7806
v 49.0615 11.2421 -26.2326
v 40.6264 8.567703 -40.987
v 53.0771 28.7423 -42.2849
v 53.7681 28.5703 -27.0619
v 43.4861 23.5406 -29.5521
v 33.82721 25.5335 -36.8363
v 45.6651 30.0708 -40.5106
v 39.2616 11.27671 -56.2045
v 47.403 13.06551 -67.7978
v 42.4114 24.69951 -57.27329
v 34.1553 20.54691 -57.3237
v 34.2373 7.255117 -83.80799
v 53.1742 12.41731 -69.62741
v 42.6145 18.47691 -80.50349
v 47.403 13.06551 -67.7978
v 53.1742 12.41731 -69.62741
v 34.1208 15.15911 -77.47379
v 32.7385 18.20501 -68.66879
v 25.5461 19.01261 -73.1429
v 42.6145 18.47691 -80.50349
v 45.6928 10.12761 -88.0858
v 54.0945 8.420221 -113.8532
v 24.01 22.78411 -84.9456
v 29.4377 10.86812 -94.5997
v 37.2749 26.49381 -92.755
v 69.2642 12.9342 -32.4726
v 75.8054 14.4399 -17.3304
v 75.8054 14.4399 -17.3304
v 49.0129 19.6922 -13.818
v 49.0615 11.2421 -26.2326
v 53.7681 28.5703 -27.0619
v 42.9824 24.8513 -29.9426
v 29.4377 10.86812 -94.5997
v 24.01 22.78411 -84.9456
v 37.2749 26.49381 -92.755
v 54.0945 8.420221 -113.8532
v -0.2248 46.47128 60.30231
v 12.2525 41.50008 61.474
v 62.2653 21.06388 46.96069
v 61.5605 17.19198 40.34919
v 66.1918 20.92399 37.9999
v 53.8382 17.35209 47.15191
v 56.475 22.94279 51.83018
v 58.3368 29.50928 48.15439
v 46.8681 33.80819 41.1805
v 47.6432 32.83239 49.53468
v 57.5617 30.48509 39.8002
v 44.2312 28.21749 36.5021
v 54.9248 24.89439 35.12179
v 42.3695 21.65089 40.17789
v 53.0631 18.32779 38.7976
v 43.1446 20.67518 48.53219
v 45.7815 26.26588 53.21061
v 33.2165 39.35669 41.55799
v 34.2707 38.02958 52.91969
v 33.2586 31.89189 34.8749
v 33.1787 23.93649 39.7604
v 34.2329 22.60938 51.12219
v 35.3669 29.23768 57.59838
v 27.2489 38.88478 54.2397
v 27.2489 28.94198 54.935
v 24.6819 43.62849 50.63731
v 20.2584 38.25288 45.20338
v 20.2584 28.31009 45.8987
v 24.6818 23.74298 52.0278
v 64.6838 26.53629 41.17218
v 12.8044 56.20558 49.33611
v 43.2666 35.21798 67.78699
v 40.3542 52.88178 53.17339
v 17.403 35.39398 70.3045
v 40.1913 16.30769 53.58529
v 12.6415 12.48229 50.24789
v 57.2107 34.78468 61.5909
v -2.5353 40.8342 -13.1731
v 32.5344 44.8585 -16.2578
v 30.0612 36.3441 -23.2577
v 1.5135 52.06129 -4.780596
v 49.5705 37.234 -22.6114
v 5.5578 51.90919 6.245996
v 38.9946 34.41069 0.860199
v 36.5788 44.7065 -5.231295
v 7.647799 38.85379 14.352
v 53.6148 37.082 -11.5849
v 40.1913 16.30769 53.58529
v 12.6415 12.48229 50.24789
v 22.5908 34.96898 64.22659
v 12.8044 56.20558 49.33611
v 40.3542 52.88178 53.17339
v 57.2107 34.78468 61.5909
v 17.403 35.39398 70.3045
v 5.5578 51.90919 6.245996
v 1.5135 52.06129 -4.780596
v 11.0056 46.80809 -1.863895
v 7.647799 38.85379 14.352
v 38.9946 34.41069 0.860199
v 53.6148 37.082 -11.5849
v 49.5705 37.234 -22.6114
v -2.5353 40.8342 -13.1731
v 30.0612 36.3441 -23.2577
v 83.1856 -0.470421 77.16479
v 84.4975 0.520683 78.01768
v 83.50161 5.515778 83.08628
v 81.6198 5.139778 82.72959
v 66.4656 20.78209 39.43739
v 64.7236 28.59268 42.82079
v 70.8969 26.02178 51.1242
v 74.7106 17.18869 46.7541
v 60.918 17.03749 41.876
v 65.6697 11.82278 49.25519
v 60.2975 25.25498 45.40379
v 63.4554 23.47379 53.17769
v 57.19279 20.02019 45.64648
v 59.1079 17.47329 53.26749
v 78.5088 19.00288 62.10529
v 79.3806 12.64869 60.74379
v 75.34609 10.58369 63.7152
v 73.7103 19.19918 64.92429
v 71.53639 13.10278 65.59288
v 81.5924 11.71128 61.01398
v 79.6393 17.98018 65.36439
v 84.853 9.075783 65.28388
v 85.4933 5.226082 69.13278
v 83.8551 15.90708 69.94527
v 83.9894 9.251179 72.48828
v 75.9651 12.83158 77.28331
v 75.85461 11.03119 77.44239
v 77.26241 11.04168 77.89147
v 77.3729 12.84218 77.73238
v 85.8489 4.970379 70.96217
v 85.138 11.18598 75.7524
v 83.9083 12.25148 73.75418
v 74.5994 10.92158 71.60708
v 74.0496 14.09198 71.67601
v 77.8473 11.30558 72.35899
v 77.2974 14.47588 72.42798
v 68.74721 29.44799 36.80049
v 52.86 19.93389 44.59499
v 56.6291 30.98118 45.66628
v 63.9228 15.30739 35.42919
v 68.74721 29.44799 36.80049
v 60.2578 29.23288 50.9285
v 72.3759 27.69958 42.06259
v 56.6291 30.98118 45.66628
v 56.4887 18.18549 49.85719
v 52.86 19.93389 44.59499
v 67.5515 13.55898 40.69138
v 63.9228 15.30739 35.42919
v 74.5129 19.91519 32.73719
v 62.4576 25.43539 18.2266
v 62.4576 25.43539 18.2266
v -19.6824 9.000292 37.83769
v -17.9855 13.17659 29.98739
v -17.9222 19.10588 53.56489
v -19.6515 17.31779 47.6473
v -22.0084 24.35339 30.9675
v -19.4112 21.16509 24.95689
v -28.3119 37.08998 40.8162
v -20.3107 47.33178 42.73331
v -16.3279 39.73849 26.38559
v -10.0321 47.29398 50.77819
v -11.2891 8.524292 16.4403
v -17.1678 18.50079 14.7293
v -9.725 31.38229 15.90481
v -28.077 25.45999 41.0147
v -14.1262 38.28518 57.2322
v -13.1278 23.44408 62.60069
v -28.0927 22.51768 54.388
v -28.0047 43.30408 52.77119
v -21.3653 46.68568 53.80311
v -27.0066 33.13568 61.23659
v -13.7047 13.6287 8.814196
v -18.6848 21.91439 7.256897
v -14.0108 35.00999 10.9011
v -12.7022 41.50018 61.47401
v -13.1278 23.44408 62.60069
v -11.417 12.3556 -2.308805
v -23.4859 22.94129 -0.507202
v -18.7722 40.3707 -3.885798
v -7.1708 10.7179 -12.1527
v -27.2378 12.6602 -18.4464
v -26.6452 33.2681 -13.0429
v -10.2475 41.1703 -14.6561
v -3.8926 27.2191 -23.2827
v -14.9562 9.3948 -26.9589
v -21.5629 34.2688 -30.6023
v -22.7992 10.96301 -42.0022
v -11.9193 10.34731 -49.68731
v -25.0775 22.5437 -50.7884
v -14.2361 25.79831 -47.4406
v -8.408 35.9989 -26.2335
v -24.4042 6.446712 -61.89861
v -5.793 9.455711 -65.7393
v -11.9193 10.34731 -49.68731
v -25.0775 22.5437 -50.7884
v -26.9969 20.13811 -65.7141
v -8.3485 27.99301 -64.6754
v -14.2314 22.90241 -55.19889
v -21.2127 25.27411 -65.83459
v -8.4788 9.535114 -81.0218
v -18.0611 4.813116 -90.4964
v -18.3239 19.14761 -82.40399
v -9.2469 19.70961 -84.0477
v -7.2658 4.15822 -111.6384
v -22.8384 1.056217 -90.86799
v -18.8193 8.819019 -104.4399
v -22.8384 1.056217 -90.86799
v -18.0611 4.813116 -90.4964
v -9.305599 9.620619 -103.3552
v -3.7415 19.66812 -101.2641
v -8.6272 16.27012 -95.1827
v -18.8193 8.819019 -104.4399
v -31.7315 1.328224 -137.9405
v -19.4154 1.762024 -113.7415
v -5.7297 22.57792 -109.3151
v -7.208 11.75872 -121.3738
v -20.6196 20.70092 -114.3627
v -34.5616 1.497604 -35.0682
v -30.6942 0.584307 -51.14771
v -34.5616 1.497604 -35.0682
v -11.9193 10.34731 -49.68731
v -22.7992 10.96301 -42.0022
v -25.0775 22.5437 -50.7884
v -14.2361 25.79831 -47.4406
v -7.208 11.75872 -121.3738
v -20.6196 20.70092 -114.3627
v -5.7297 22.57792 -109.3151
v -31.7315 1.328224 -137.9405
v -12.7022 41.50018 61.47401
v -53.907 23.75399 23.45029
v -51.4693 25.87649 14.2152
v -48.9716 21.39899 18.0376
v -46.66 19.68309 28.0078
v -51.8907 24.32829 31.3483
v -51.8266 31.59659 28.653
v -44.0788 34.00129 36.4947
v -38.7841 36.62439 30.4589
v -46.5319 34.21979 22.6172
v -33.5534 31.97919 27.1184
v -41.3012 29.57459 19.27669
v -33.6174 24.71089 29.8136
v -41.3652 22.30629 21.97199
v -38.9122 22.08779 35.8494
v -44.1429 26.73289 39.1899
v -35.4072 37.68678 47.83099
v -28.2064 41.25429 39.62231
v -23.8995 35.32819 32.78711
v -26.0077 26.54829 35.15999
v -33.2085 22.98079 43.3686
v -38.3012 28.19328 49.20448
v -27.6986 28.94198 54.935
v -27.6986 38.88478 54.23979
v -25.1316 43.62859 50.63739
v -20.7082 38.25288 45.20348
v -20.7081 28.31009 45.8987
v -25.1315 23.74298 52.02789
v -52.6985 30.52759 18.76399
v -13.254 56.20558 49.33611
v -40.8039 52.88188 53.17351
v -43.7163 35.21808 67.78709
v -17.8527 35.39408 70.30449
v -40.6411 16.30779 53.5854
v -13.0912 12.48228 50.24789
v -57.6604 34.78478 61.591
v -8.3845 45.40909 -0.646399
v -18.0771 35.5946 -32.1759
v -28.6409 37.3567 -28.5826
v -22.3023 47.89929 2.9545
v -29.732 28.814 -46.3184
v -30.2885 40.34179 7.085993
v -36.627 29.7993 -24.4511
v -34.5621 17.8193 -23.3722
v -27.3371 25.29859 9.433992
v -37.7182 21.2565 -42.1869
v -40.6411 16.30779 53.5854
v -23.0405 34.96908 64.22668
v -13.0912 12.48228 50.24789
v -40.8039 52.88188 53.17351
v -13.254 56.20558 49.33611
v -57.6604 34.78478 61.591
v -17.8527 35.39408 70.30449
v -30.2885 40.34179 7.085993
v -25.6933 38.88249 -2.8249
v -22.3023 47.89929 2.9545
v -27.3371 25.29859 9.433992
v -34.5621 17.8193 -23.3722
v -37.7182 21.2565 -42.1869
v -29.732 28.814 -46.3184
v -8.3845 45.40909 -0.646399
v -18.0771 35.5946 -32.1759
v -89.3345 -1.416916 27.39439
v -93.68191 3.512691 32.6668
v -90.8391 -0.340012 27.30879
v -92.1243 2.844894 33.63519
v -52.5558 25.44019 15.10439
v -63.6465 28.26809 22.36179
v -53.9125 32.16639 20.4341
v -63.2246 20.91209 14.78699
v -49.3931 20.86579 19.55609
v -57.2259 14.49939 21.086
v -58.8601 24.80849 27.9481
v -51.752 28.03529 24.3926
v -55.00949 18.64389 29.39229
v -49.0336 22.66979 25.35309
v -75.788 19.55339 24.46619
v -75.11139 13.73529 21.51969
v -73.6017 10.78409 25.80719
v -73.7719 18.78139 29.59939
v -71.9745 12.54959 30.12239
v -76.9353 12.92059 20.15879
v -78.5935 17.91849 26.0163
v -81.9002 9.644497 20.8122
v -84.4503 5.094595 22.49729
v -84.5452 15.18829 26.43878
v -85.6645 8.161694 26.838
v -82.6109 10.01609 36.18889
v -83.8549 8.232588 35.46209
v -82.4735 8.22179 35.98689
v -83.9923 10.02679 35.66409
v -86.6213 5.338692 22.68609
v -89.4372 10.47219 27.95889
v -86.6263 10.79459 28.4975
v -77.8937 9.315891 32.31718
v -77.7661 12.34539 33.39589
v -80.9356 9.75329 30.9693
v -80.8081 12.78289 32.04799
v -53.4399 34.61389 13.5819
v -49.5075 33.28719 28.0933
v -44.981 22.51119 27.20719
v -47.6461 20.82049 12.44769
v -53.4399 34.61389 13.5819
v -59.3765 32.00749 14.9524
v -55.444 30.68079 29.4638
v -49.5075 33.28719 28.0933
v -50.9176 19.90479 28.57759
v -44.981 22.51119 27.20719
v -53.5827 18.21419 13.8182
v -47.6461 20.82049 12.44769
v -54.6803 26.64789 4.885298
v -36.7601 34.36989 2.519798
v -36.7601 34.36989 2.519798
vn -0.790635 -0.475521 -0.385717
vn -0.793016 -0.48381 -0.370208
vn -0.783789 -0.490193 -0.381295
vn -0.766921 -0.475913 -0.430512
vn -0.752109 -0.524906 -0.398505
vn -0.779586 -0.481591 -0.400393
vn -0.77732 -0.453411 -0.436111
vn -0.769703 -0.437202 -0.465202
vn 0.8304 0.4056 0.382
vn 0.782006 0.491004 0.383903
vn 0.806061 0.298785 0.510875
vn 0.748191 0.437395 0.498894
vn 0.728331 0.596225 0.337714
vn 0.707187 0.558389 0.433692
vn 0.783789 0.490193 0.381295
vn 0.803974 0.513683 0.299591
vn 0.752301 0.615901 0.2339
vn 0.907822 0.266107 0.324108
vn 0.883201 0.3555 0.305901
vn 0.878585 0.356594 0.317695
vn 0.929369 0.29189 0.225993
vn 0.875862 -0.478979 -0.058698
vn 0.900224 0.36131 0.243007
vn 0.851777 0.221694 0.474687
vn 0.628721 0.517517 0.580419
vn 0.421116 -0.573321 0.702826
vn 0.209903 0.718211 0.663411
vn -0.0078 0.642307 0.766408
vn 0.100399 0.359094 0.927886
vn -0.146002 0.757409 0.636408
vn -0.195099 0.579197 0.791497
vn 0.706416 -0.591113 0.389309
vn -0.699594 0.071099 0.710994
vn -0.422201 -0.173201 0.889802
vn -0.746923 0.125704 0.65292
vn -0.83312 0.250506 0.493111
vn -0.405895 0.881189 0.242397
vn -0.405895 0.881189 0.242397
vn -0.405895 0.881189 0.242397
vn -0.1793 0.900002 0.397301
vn -0.1793 0.900002 0.397301
vn -0.1793 0.900002 0.397301
vn -0.815382 -0.521588 -0.251194
vn -0.618997 -0.722396 -0.308199
vn -0.756025 -0.60812 -0.242108
vn -0.78702 -0.549214 -0.281007
vn -0.483682 -0.786271 -0.384486
vn -0.564799 -0.766598 -0.3055
vn -0.455172 -0.806851 -0.376577
vn 0.038002 0.957352 0.286416
vn 0.051299 0.95378 0.296094
vn 0.037401 0.952126 0.303409
vn 0.067403 0.966844 0.246312
vn 0.054001 0.959724 0.275707
vn 0.101203 0.950523 0.293707
vn 0.046701 0.971521 0.232305
vn 0.049202 0.978742 0.199109
vn 0.037898 -0.964652 -0.260787
vn 0.0586 -0.993703 -0.095501
vn -0.053798 -0.954263 -0.294089
vn -0.073403 -0.983135 -0.167506
vn -0.146598 -0.916586 -0.371995
vn -0.163994 -0.947965 -0.27289
vn -0.0288 -0.926211 -0.375905
vn -0.051299 -0.95378 -0.296094
vn -0.111403 -0.877419 -0.466611
vn 0.206107 -0.947334 -0.245109
vn 0.124295 -0.947662 -0.294088
vn 0.131805 -0.943635 -0.303612
vn 0.233405 -0.911519 -0.338607
vn 0.154601 -0.983805 -0.090701
vn 0.159202 -0.920009 -0.358104
vn -0.229502 -0.966407 -0.115701
vn -0.646381 -0.762377 -0.031199
vn -0.533899 -0.737599 0.413399
vn -0.749899 -0.640799 0.1644
vn -0.868881 -0.492489 0.049999
vn -0.818392 -0.498495 0.285897
vn -0.971495 -0.096799 -0.216399
vn -0.971495 -0.096799 -0.216399
vn -0.971495 -0.096799 -0.216399
vn -0.910505 -0.364202 -0.195801
vn -0.910505 -0.364202 -0.195801
vn -0.910505 -0.364202 -0.195801
vn 0.0113 0.907781 0.419292
vn 0.106303 0.882928 0.457315
vn 0.292403 0.853609 0.431105
vn 0.058299 0.912591 0.404696
vn 0.443708 0.817215 0.367807
vn 0.355282 0.824258 0.440878
vn 0.47248 0.797166 0.375884
vn 0.683799 -0.729399 -0.0199
vn -0 -0.915147 -0.403121
vn 0.596488 -0.692485 -0.405792
vn -0 -0.849992 0.526795
vn 0.446502 -0.611203 0.653503
vn 0.556614 -0.76392 0.326508
vn -0 -0.745879 0.666081
vn 0.929427 -0.059902 -0.364111
vn 0.882491 -0.116799 -0.455596
vn 0.796863 0.342384 -0.497777
vn 0.562183 0.551384 -0.616381
vn 0.3736 0.9039 -0.2083
vn 0 0.946909 -0.321503
vn 0 0.803157 -0.595768
vn 0.26031 0.936938 0.23321
vn 0 0.997176 0.075098
vn -0 -0.987279 -0.158997
vn 0.624913 -0.778316 -0.060901
vn 0.988871 -0.145296 -0.031999
vn 0.691377 0.714676 -0.105996
vn 0 0.939375 0.342891
vn 0.86675 -0.452926 -0.208812
vn 0.430683 0.169393 0.886464
vn 0.839205 -0.243402 0.486303
vn 0.140901 -0.774005 0.617304
vn 0.597007 0.785709 0.162002
vn 0.140199 0.796991 0.587494
vn -0.055898 0.204494 0.977271
vn 0.751978 -0.650181 -0.108597
vn 0.91786 -0.22189 0.329086
vn -0 -0.997685 0.067999
vn -0 -0.997866 -0.065298
vn 0.483373 0.576068 0.659164
vn 0 0.849685 0.527291
vn 0.826612 0.500507 0.257304
vn 0 0.928511 0.371305
vn -0.4937 0.1517 0.856299
vn -0 0.0112 0.999937
vn 0 0.293608 0.955926
vn 0.603482 -0.797376 -0.0011
vn 0.915592 -0.075299 0.394996
vn 0.199808 0.972836 0.116905
vn 0 0.993423 -0.114502
vn 0.340407 -0.385508 -0.857617
vn 0.464108 -0.841614 -0.276205
vn -0 -0.778208 -0.628007
vn 0.510814 -0.208906 0.833923
vn 0.21401 0.928743 0.302714
vn 0.266695 0.291995 -0.918484
vn 0 0.595125 -0.803633
vn -0.217907 0.62902 -0.746224
vn -0.368702 -0.419502 -0.829504
vn 0.185907 -0.977638 0.098304
vn -0.119997 0.809883 -0.574187
vn -0.044802 -0.990035 0.133505
vn 0.648808 -0.357005 0.672009
vn 0.521783 0.836172 -0.168994
vn 0.0118 0.209105 -0.977822
vn -0.254196 0.486493 -0.835888
vn 0.817422 -0.392511 -0.421612
vn -0.044802 -0.990035 0.133505
vn -0.580201 -0.778001 0.241
vn 0.581966 0.761156 -0.286283
vn 0.521783 0.836172 -0.168994
vn -0.525191 0.451892 0.721088
vn -0.834512 0.375305 0.403406
vn -0.225997 0.973886 0.0217
vn -0.380684 -0.922361 0.065797
vn 0.767219 -0.641116 -0.018601
vn 0.222204 0.906617 -0.358707
vn -0.946279 0.316793 -0.064798
vn -0.415177 -0.893851 0.169291
vn 0.593335 -0.804948 -0.0035
vn 0.204598 0.925992 0.317298
vn 0.204598 0.925992 0.317298
vn 0.204598 0.925992 0.317298
vn -0.973872 -0.147596 0.172595
vn -0.954011 0.295403 0.051001
vn -0.703383 0.275893 -0.655084
vn 0.450587 0.892673 0.0103
vn 0.870991 -0.489095 0.046499
vn 0.820211 -0.550407 0.155902
vn -0.588108 0.225503 0.77671
vn -0.590323 -0.807131 -0.0077
vn 0.467391 0.819183 0.332393
vn 0.726917 -0.315007 -0.610215
vn 0.875597 -0.338499 -0.344599
vn 0.120696 -0.047199 0.991567
vn 0.120696 -0.047199 0.991567
vn -0.088 -0.823601 0.560301
vn 0.229009 0.768531 0.597424
vn 0.0118 0.209105 -0.977822
vn -0.548191 0.363794 -0.753087
vn -0.546025 0.363017 -0.755034
vn -0.548191 0.363794 -0.753087
vn -0.550304 0.364703 -0.751105
vn -0 -0.277204 0.960811
vn -0.367895 -0.118499 0.922286
vn 0.727913 -0.324706 0.603911
vn 0.314316 -0.948048 -0.049103
vn 0.70819 -0.403594 -0.579292
vn 0.017501 -0.884234 0.466717
vn 0.334612 -0.061702 0.940334
vn 0.533 0.7095 0.461
vn 0.304703 0.869207 -0.389403
vn 0.362389 0.761577 0.537284
vn 0.312801 0.804003 -0.505702
vn 0.021 0.068801 -0.997409
vn 0.088102 0.054402 -0.994625
vn -0.254801 -0.796104 -0.548903
vn -0.161404 -0.831019 -0.532313
vn -0.1446 -0.916698 0.372499
vn 0.201995 -0.129597 0.970774
vn 0.281901 0.945805 -0.161201
vn 0.244788 0.645169 0.723765
vn -0.160005 0.350411 -0.922828
vn -0.359998 -0.651396 -0.667896
vn -0.178695 -0.976073 0.123896
vn 0.007 -0.3146 0.949199
vn 0.418618 0.693529 0.586325
vn -0.139001 0.0464 0.989205
vn 0.059999 0.898287 -0.435294
vn -0.501521 0.125905 -0.855935
vn -0.371691 -0.721183 -0.584586
vn -0.198395 -0.850578 0.486987
vn 0.798175 0.586782 -0.136396
vn 0.0207 0.676892 0.735791
vn 0.195704 0.201104 0.959821
vn 0.152401 0.644802 0.749003
vn 0.063102 -0.237909 0.969236
vn 0.128404 -0.628519 0.767123
vn 0.0003 -0.658703 0.752403
vn 0.406517 0.019401 0.913437
vn -0.139807 0.638832 -0.756537
vn 0.120596 0.870873 -0.476485
vn -0.0721 0.645798 -0.760097
vn 0.098098 0.94058 -0.325093
vn 0.198498 0.850091 -0.487795
vn 0.3727 0.759399 0.533299
vn 0.430899 0.530499 0.729998
vn 0.376002 0.886804 0.268702
vn 0.397613 0.529118 0.749625
vn 0.453698 0.875596 0.1658
vn -0.016899 0.483178 -0.875359
vn -0.296913 0.595426 -0.746532
vn -0.270691 -0.019599 -0.962467
vn -0.306617 -0.637135 -0.707139
vn -0.0107 -0.51739 -0.855683
vn -0.076 -0.0148 -0.996998
vn -0.761038 -0.015101 -0.648532
vn -0.752806 -0.651205 -0.096001
vn -0.530697 -0.672696 0.515597
vn -0.401611 -0.911524 0.088502
vn -0.634425 -0.633925 -0.442318
vn -0.310286 -0.809963 -0.497677
vn -0.268203 -0.932211 -0.243003
vn -0.094102 -0.958922 0.267606
vn -0.244201 -0.705602 0.665201
vn 0.0211 -0.890599 0.454299
vn -0.451816 -0.86293 0.226308
vn 0.780091 -0.613993 0.120298
vn 0.588807 -0.214803 0.779209
vn -0.827468 0.305888 0.470882
vn 0.727316 0.074802 -0.682215
vn 0.087499 0.985891 0.142699
vn 0.478015 0.878328 0.0065
vn 0.751417 -0.244605 -0.612814
vn -0.078599 -0.84579 -0.527694
vn -0.194507 -0.950832 -0.241008
vn -0.66528 0.635781 0.391389
vn -0.484601 0.685001 0.544001
vn -0.906376 -0.413689 0.085698
vn -0.872372 -0.221293 0.435886
vn 0.708518 0.670817 -0.219105
vn 0.291799 -0.693996 -0.658197
vn -0.304503 -0.951808 0.0366
vn -0.103105 0.747133 0.656629
vn -0.765338 0.165708 0.621931
vn 0.704733 0.20091 -0.680432
vn 0.296489 0.902466 0.312489
vn 0.88049 -0.216198 -0.421895
vn 0.237008 -0.854129 -0.462916
vn 0.528701 0.822802 0.208501
vn -0.838354 -0.410726 0.358423
vn -0.455397 0.548196 0.701495
vn -0.773011 -0.344805 0.532507
vn 0.186806 -0.66812 0.720222
vn 0.655885 0.487789 0.576087
vn 0.993958 -0.107495 -0.022199
vn 0.539999 0.684898 0.489199
vn -0.511218 0.501417 0.698024
vn -0.462422 -0.876642 0.132906
vn -0.835982 0.45989 0.299393
vn 0.512201 -0.777401 0.3651
vn -0.0212 0.807199 0.589899
vn -0.020199 0.915773 -0.401188
vn -0.870838 -0.356915 -0.338015
vn -0.732008 0.644007 0.222303
vn -0.477676 -0.701964 -0.528273
vn -0.020199 0.915773 -0.401188
vn -0.129204 0.910928 0.391812
vn 0.821008 0.554506 0.135902
vn -0.732008 0.644007 0.222303
vn -0.835862 -0.21619 0.504577
vn -0.870838 -0.356915 -0.338015
vn 0.090001 -0.995815 -0.0159
vn -0.477676 -0.701964 -0.528273
vn 0.885586 -0.265096 -0.381394
vn 0.039099 0.083197 -0.995766
vn 0.039099 0.083197 -0.995766
vn -0.683799 -0.729399 -0.0199
vn -0.596487 -0.692485 -0.405792
vn -0.446502 -0.611203 0.653503
vn -0.556614 -0.76392 0.326508
vn -0.882491 -0.116799 -0.455595
vn -0.929427 -0.059902 -0.364111
vn -0.796863 0.342384 -0.497777
vn -0.373514 0.903933 -0.208308
vn -0.562115 0.551415 -0.616416
vn -0.260311 0.936938 0.23321
vn -0.624913 -0.778316 -0.060901
vn -0.988871 -0.145296 -0.031999
vn -0.691377 0.714676 -0.105996
vn -0.86675 -0.452926 -0.208812
vn -0.430683 0.169393 0.886464
vn -0.839205 -0.243402 0.486303
vn -0.140901 -0.774005 0.617304
vn -0.597007 0.785709 0.162002
vn -0.140101 0.797003 0.587502
vn 0.055998 0.204493 0.977265
vn -0.751978 -0.650181 -0.108597
vn -0.91786 -0.22189 0.329086
vn -0.483373 0.576068 0.659163
vn -0.826612 0.500507 0.257304
vn 0.4937 0.1517 0.856299
vn -0.623581 -0.777276 0.083597
vn -0.934869 -0.156995 0.31839
vn -0.494604 0.862307 0.108601
vn -0.190005 -0.962725 -0.192505
vn -0.676407 -0.717508 0.166302
vn -0.976879 0.195996 0.085398
vn 0.351503 0.804006 -0.479604
vn 0.938919 0.106002 -0.327407
vn 0.354701 -0.922804 -0.150401
vn -0.327396 0.890589 -0.315696
vn -0.48919 -0.869283 -0.070999
vn 0.788823 -0.614618 -0.002
vn -0.822507 0.532505 -0.199802
vn 0.533109 0.715812 -0.451007
vn 0.300396 0.86909 -0.392995
vn -0.544625 -0.817838 -0.185809
vn 0.93161 -0.326004 0.160702
vn 0.788823 -0.614618 -0.002
vn -0.822507 0.532505 -0.199802
vn -0.93141 0.302303 -0.202702
vn 0.56501 0.808315 0.165503
vn 0.557494 0.794492 0.240798
vn -0.318402 0.941505 -0.1104
vn 0.8135 -0.5806 0.0335
vn -0.284493 -0.944875 0.162096
vn -0.720215 0.586212 -0.371007
vn 0.61519 0.725089 -0.309495
vn 0.770473 -0.634078 -0.065698
vn -0.1273 -0.9847 0.119
vn -0.610604 0.751705 0.249202
vn -0.610604 0.751705 0.249202
vn -0.610604 0.751705 0.249202
vn 0.88437 0.466684 -0.0098
vn 0.359206 0.535108 -0.764612
vn 0.42138 0.870358 -0.254787
vn -0.86212 0.482511 0.154704
vn -0.423004 -0.903109 0.073901
vn -0.524195 -0.848592 0.071499
vn 0.581318 0.32621 0.745423
vn 0.872611 -0.387505 -0.297304
vn -0.698438 0.393421 0.597833
vn -0.609394 -0.786292 -0.101899
vn -0.539391 -0.743187 -0.395893
vn 0.312492 0.277193 0.908577
vn 0.569219 -0.110504 0.814727
vn 0.312492 0.277193 0.908577
vn -0.0145 0.602605 0.797908
vn 0.533109 0.715812 -0.451007
vn 0.137404 0.730524 -0.668921
vn 0.137404 0.730524 -0.668921
vn 0.135506 0.72913 -0.670827
vn 0.139302 0.731911 -0.66701
vn 0.367895 -0.118498 0.922286
vn -0.915797 -0.400899 -0.0244
vn -0.19419 -0.223988 -0.95505
vn -0.142599 -0.894793 -0.423097
vn -0.207703 -0.960615 0.184603
vn -0.800628 -0.234608 0.551319
vn -0.74862 0.631316 0.202505
vn -0.658506 0.653406 0.373404
vn -0.094398 0.945284 -0.312294
vn -0.027301 0.906923 -0.420411
vn 0.54247 0.272485 -0.794656
vn 0.496406 0.267003 -0.826009
vn 0.57933 -0.679135 -0.450724
vn 0.501288 -0.711383 -0.492589
vn -0.024001 -0.979826 0.198405
vn -0.705906 -0.314803 0.634505
vn -0.666005 0.519404 0.535404
vn -0.245992 0.962569 -0.113796
vn 0.616431 0.508226 -0.601431
vn 0.717435 -0.537026 -0.443722
vn 0.130406 -0.990846 0.034901
vn -0.581413 -0.493811 0.646614
vn -0.530383 -0.095397 0.842373
vn -0.687502 0.601001 0.407601
vn 0.121304 0.962435 -0.242909
vn 0.915535 0.179607 -0.359914
vn 0.659404 -0.685304 -0.309102
vn -0.122998 -0.931984 0.340994
vn -0.603696 0.653296 -0.456897
vn -0.0207 0.676892 0.735791
vn -0.152303 0.644812 0.749014
vn -0.195704 0.201104 0.959821
vn -0.063102 -0.237909 0.969236
vn -0.128404 -0.628519 0.767123
vn -0.0003 -0.658703 0.752403
vn -0.406517 0.019401 0.913437
vn 0.0675 0.944603 -0.321201
vn 0.027601 0.927134 -0.373713
vn -0.374102 0.874005 -0.310102
vn -0.487111 0.853019 -0.187304
vn -0.397597 0.835993 -0.378197
vn -0.977555 0.151009 0.146908
vn -0.920857 0.389624 -0.014701
vn -0.966633 -0.150205 0.207507
vn -0.957873 -0.149696 0.245093
vn -0.901745 0.40852 -0.141307
vn 0.016899 0.483178 -0.875359
vn 0.270598 -0.0196 -0.962493
vn 0.297004 0.595408 -0.74651
vn 0.0107 -0.51739 -0.855683
vn 0.306617 -0.637135 -0.707139
vn 0.076 -0.0148 -0.996998
vn 0.761038 -0.015101 -0.648532
vn 0.884786 -0.167397 0.434893
vn 0.761115 -0.592412 0.264105
vn 0.451496 -0.595595 0.664394
vn 0.992469 -0.0099 0.122096
vn 0.956839 -0.23141 -0.175807
vn 0.877112 -0.477206 -0.054301
vn 0.527198 -0.837297 0.144899
vn 0.2355 -0.8059 0.5432
vn 0.32061 -0.928528 0.187205
vn 0.100298 -0.96098 0.257794
vn -0.97357 -0.218093 0.067798
vn -0.5755 -0.521199 -0.6302
vn 0.203206 0.0246 0.978827
vn -0.157504 0.275107 -0.948424
vn -0.451485 0.88677 -0.098996
vn -0.237607 0.933628 0.268108
vn -0.192801 -0.0492 -0.980004
vn 0.455714 -0.711621 -0.534716
vn 0.379108 -0.885419 -0.268906
vn -0.0106 0.511699 0.859099
vn 0.229003 0.484805 0.84411
vn 0.434787 -0.373389 0.819476
vn 0.692505 -0.485604 0.533504
vn -0.476509 0.751115 -0.456909
vn 0.232696 -0.50889 -0.828785
vn 0.294897 -0.955489 0.0088
vn -0.384197 0.574296 0.722895
vn 0.204594 -0.030499 0.978372
vn -0.151304 0.395711 -0.905825
vn -0.499083 0.829771 0.249792
vn -0.211299 -0.075599 -0.974494
vn 0.300306 -0.727315 -0.617113
vn -0.589417 0.807624 -0.0182
vn 0.364786 -0.598477 0.713272
vn -0.118999 0.345898 0.930695
vn -0.534096 -0.795795 0.285398
vn 0.307697 -0.507894 0.804591
vn -0.908805 0.393702 0.138101
vn -0.574205 -0.0444 -0.817507
vn -0.704729 0.701528 0.105904
vn -0.133101 0.260302 0.956309
vn 0.353419 -0.914849 0.19531
vn 0.433979 0.321884 0.841459
vn -0.562096 -0.800594 -0.207599
vn -0.412489 0.653282 0.634883
vn 0.186899 0.977996 -0.092699
vn 0.384592 0.525389 0.758984
vn 0.920415 -0.334105 0.203003
vn 0.757301 -0.5999 -0.2581
vn 0.186899 0.977996 -0.092699
vn -0.773374 0.567481 -0.28259
vn -0.214506 0.790322 0.573916
vn 0.384592 0.525389 0.758984
vn 0.363507 -0.381007 0.850116
vn 0.920415 -0.334105 0.203003
vn 0.021201 -0.958735 -0.283511
vn 0.757301 -0.5999 -0.2581
vn -0.43849 -0.110797 -0.89188
vn 0.574405 0.303803 -0.760107
vn 0.574405 0.303803 -0.760107
vt 0.5976 0.4283
vt 0.6237 0.4148
vt 0.5951 0.3701
vt 0.7106 0.5163
vt 0.7329 0.4884
vt 0.667 0.4578
vt 0.6156 0.4848
vt 0.7077 0.5563
vt 0.3993 0.1198
vt 0.4582 0.1493
vt 0.4284 0.1756
vt 0.5628 0.2871
vt 0.5635 0.1568
vt 0.5351 0.2109
vt 0.4014 0.0176
vt 0.4343 0.0842
vt 0.4804 0.1216
vt 0.4177 0.3239
vt 0.3853 0.3043
vt 0.4231 0.27
vt 0.3939 0.2242
vt 0.3657 0.3245
vt 0.4131 0.3428
vt 0.3876 0.3662
vt 0.4211 0.369
vt 0.442 0.4547
vt 0.5114 0.3008
vt 0.4972 0.4053
vt 0.4384 0.4021
vt 0.5224 0.3504
vt 0.5654 0.3091
vt 0.3704 0.3721
vt 0.5132 0.4207
vt 0.4588 0.4249
vt 0.5946 0.3199
vt 0.5584 0.3617
vt 0.4211 0.369
vt 0.4384 0.4021
vt 0.442 0.4547
vt 0.4384 0.4021
vt 0.4588 0.4249
vt 0.442 0.4547
vt 0.4907 0.0694
vt 0.5022 0.0712
vt 0.5024 0.0598
vt 0.4942 0.0529
vt 0.5047 0.0806
vt 0.5329 0.0646
vt 0.5012 0.0753
vt 0.5976 0.4283
vt 0.5951 0.3701
vt 0.6237 0.4148
vt 0.7106 0.5163
vt 0.667 0.4578
vt 0.7329 0.4884
vt 0.6156 0.4848
vt 0.7077 0.5563
vt 0.3993 0.1198
vt 0.4284 0.1756
vt 0.4582 0.1493
vt 0.5628 0.2871
vt 0.5635 0.1568
vt 0.5351 0.2109
vt 0.4343 0.0842
vt 0.4014 0.0176
vt 0.4804 0.1216
vt 0.4177 0.3239
vt 0.4231 0.27
vt 0.3853 0.3043
vt 0.3939 0.2242
vt 0.3876 0.3662
vt 0.4131 0.3428
vt 0.4211 0.369
vt 0.5114 0.3008
vt 0.4384 0.4021
vt 0.4972 0.4053
vt 0.5224 0.3504
vt 0.5654 0.3091
vt 0.4211 0.369
vt 0.442 0.4547
vt 0.4384 0.4021
vt 0.4384 0.4021
vt 0.442 0.4547
vt 0.4588 0.4249
vt 0.4907 0.0694
vt 0.5024 0.0598
vt 0.5022 0.0712
vt 0.4942 0.0529
vt 0.5047 0.0806
vt 0.5329 0.0646
vt 0.5012 0.0753
vt 0.8704 0.7539
vt 0.7648 0.7667
vt 0.8612 0.7176
vt 0.7648 0.8165
vt 0.8608 0.8329
vt 0.8702 0.8038
vt 0.7648 0.8539
vt 0.8689 0.6961
vt 0.883 0.726
vt 0.9172 0.7776
vt 0.8522 0.7092
vt 0.8738 0.7903
vt 0.7648 0.7451
vt 0.7648 0.6763
vt 0.818 0.8289
vt 0.7648 0.8258
vt 0.7648 0.7486
vt 0.8248 0.6562
vt 0.8567 0.6488
vt 0.8163 0.6555
vt 0.7648 0.6362
vt 0.9159 0.7747
vt 0.8402 0.8569
vt 0.8348 0.8777
vt 0.916 0.838
vt 0.9156 0.8372
vt 0.8795 0.8433
vt 0.9101 0.8744
vt 0.8379 0.6199
vt 0.865 0.6131
vt 0.7648 0.6407
vt 0.7648 0.5605
vt 0.8396 0.6317
vt 0.7648 0.6124
vt 0.8325 0.8784
vt 0.7648 0.8744
vt 0.5315 0.0478
vt 0.505 0.0548
vt 0.505 0.0322
vt 0.8255 0.5662
vt 0.891 0.5758
vt 0.8654 0.561
vt 0.7648 0.5509
vt 0.7648 0.5018
vt 0.8025 0.5187
vt 0.7648 0.5193
vt 0.8461 0.4564
vt 0.9064 0.5232
vt 0.7648 0.5044
vt 0.7648 0.5303
vt 0.8192 0.5092
vt 0.81 0.4719
vt 0.7983 0.4158
vt 0.9147 0.4506
vt 0.8216 0.321
vt 0.8562 0.352
vt 0.917 0.339
vt 0.8806 0.3618
vt 0.8621 0.4764
vt 0.8823 0.1608
vt 0.9398 0.1219
vt 0.8691 0.086
vt 0.8893 0.1214
vt 0.9569 0.125
vt 0.9376 0.0833
vt 0.9051 0.0369
vt 0.8969 0.0861
vt 0.8042 0.0767
vt 0.7568 0.1118
vt 0.8155 0.0768
vt 0.8085 0.0434
vt 0.6969 0.0717
vt 0.7494 0.1389
vt 0.7105 0.0727
vt 0.7568 0.1118
vt 0.7494 0.1389
vt 0.7049 0.0405
vt 0.7551 0.0393
vt 0.7343 0.0055
vt 0.7105 0.0727
vt 0.7065 0.1179
vt 0.6425 0.2273
vt 0.6407 0.0202
vt 0.6416 0.0845
vt 0.6414 0.0821
vt 0.919 0.2124
vt 0.9896 0.241
vt 0.5094 0.0307
vt 0.5085 0.0751
vt 0.4903 0.1022
vt 0.5407 0.1003
vt 0.9786 0.0859
vt 0.5104 0.0721
vt 0.5188 0.0849
vt 0.5272 0.0725
vt 0.5178 0.0434
vt 0.505 0.0911
vt 0.5287 0.0816
vt 0.9778 0.6372
vt 0.9478 0.6531
vt 0.9725 0.6605
vt 0.9299 0.6789
vt 0.9642 0.6864
vt 0.9984 0.6939
vt 0.9813 0.746
vt 0.9813 0.746
vt 0.9984 0.6939
vt 0.947 0.7386
vt 0.9642 0.6864
vt 0.9127 0.7311
vt 0.9299 0.6789
vt 0.9127 0.7311
vt 0.947 0.7386
vt 0.9649 0.8152
vt 0.9649 0.8152
vt 0.9298 0.7907
vt 0.895 0.7733
vt 0.895 0.7733
vt 0.9298 0.7907
vt 0.9139 0.8427
vt 0.9139 0.8427
vt 0.9 0.827
vt 0.8759 0.7991
vt 0.8759 0.7991
vt 0.9 0.827
vt 0.9995 0.6659
vt 0.3514 0.9884
vt 0.5269 0.8751
vt 0.5143 0.9732
vt 0.3649 0.8751
vt 0.5151 0.8005
vt 0.3463 0.7874
vt 0.614 0.8865
vt 0.2454 0.9784
vt 0.1705 0.8517
vt 0.231 0.8375
vt 0.1705 0.9943
vt 0.1713 0.7672
vt 0.0719 0.9943
vt 0.0183 0.8427
vt 0.0719 0.8517
vt 0.0047 0.9773
vt 0.0744 0.7683
vt 0.5186 0.0392
vt 0.4872 0.0347
vt 0.4973 0.0617
vt 0.4872 0.0897
vt 0.5186 0.0852
vt 0.5374 0.0617
vt 0.4908 0.0617
vt 0.4994 0.088
vt 0.5194 0.088
vt 0.5091 0.0781
vt 0.485 0.0835
vt 0.4881 0.0482
vt 0.4994 0.0316
vt 0.5194 0.0316
vt 0.5349 0.0842
vt 0.5318 0.0489
vt 0.5618 0.4409
vt 0.5568 0.4388
vt 0.5186 0.4327
vt 0.5186 0.4351
vt 0.5713 0.6728
vt 0.5442 0.6744
vt 0.5459 0.6231
vt 0.586 0.6185
vt 0.5442 0.6733
vt 0.5459 0.626
vt 0.521 0.6719
vt 0.5108 0.6316
vt 0.513 0.6725
vt 0.499 0.6351
vt 0.5498 0.5521
vt 0.565 0.5469
vt 0.5407 0.5436
vt 0.5203 0.5542
vt 0.5158 0.5496
vt 0.5586 0.5333
vt 0.5159 0.5339
vt 0.561 0.505
vt 0.5662 0.4845
vt 0.5162 0.5023
vt 0.5367 0.4838
vt 0.4956 0.4981
vt 0.5026 0.4954
vt 0.5031 0.4895
vt 0.4961 0.4922
vt 0.5621 0.4767
vt 0.52 0.4746
vt 0.5199 0.4841
vt 0.5195 0.5187
vt 0.5051 0.5248
vt 0.52 0.5065
vt 0.5056 0.5126
vt 0.5287 0.0819
vt 0.5022 0.0516
vt 0.5254 0.0516
vt 0.4989 0.0819
vt 0.5798 0.6879
vt 0.4984 0.656
vt 0.5798 0.656
vt 0.4984 0.6879
vt 0.4984 0.656
vt 0.4984 0.6879
vt 0.5798 0.656
vt 0.5798 0.6879
vt 0.6278 0.6761
vt 0.5047 0.0963
vt 0.6185 0.7704
vt 0.8704 0.7539
vt 0.8612 0.7176
vt 0.8608 0.8329
vt 0.8702 0.8038
vt 0.883 0.726
vt 0.8689 0.6961
vt 0.9172 0.7776
vt 0.8738 0.7903
vt 0.8522 0.7092
vt 0.818 0.8289
vt 0.8248 0.6562
vt 0.8567 0.6488
vt 0.8163 0.6555
vt 0.9159 0.7747
vt 0.8402 0.8569
vt 0.8348 0.8777
vt 0.916 0.838
vt 0.9156 0.8372
vt 0.8795 0.8433
vt 0.9101 0.8744
vt 0.8379 0.6199
vt 0.865 0.6131
vt 0.8396 0.6317
vt 0.8325 0.8784
vt 0.5315 0.0478
vt 0.8255 0.5662
vt 0.891 0.5758
vt 0.8654 0.561
vt 0.8025 0.5187
vt 0.8461 0.4564
vt 0.9064 0.5232
vt 0.8192 0.5092
vt 0.81 0.4719
vt 0.7983 0.4158
vt 0.9147 0.4506
vt 0.8562 0.352
vt 0.8216 0.321
vt 0.917 0.339
vt 0.8806 0.3618
vt 0.8621 0.4764
vt 0.8823 0.1608
vt 0.8691 0.086
vt 0.9398 0.1219
vt 0.9569 0.125
vt 0.8893 0.1214
vt 0.9051 0.0369
vt 0.9376 0.0833
vt 0.8969 0.0861
vt 0.8042 0.0767
vt 0.7568 0.1118
vt 0.8155 0.0768
vt 0.8085 0.0434
vt 0.6969 0.0717
vt 0.7494 0.1389
vt 0.7105 0.0727
vt 0.7494 0.1389
vt 0.7568 0.1118
vt 0.7049 0.0405
vt 0.7343 0.0055
vt 0.7551 0.0393
vt 0.7105 0.0727
vt 0.6425 0.2273
vt 0.7065 0.1179
vt 0.6407 0.0202
vt 0.6416 0.0845
vt 0.6414 0.0821
vt 0.9896 0.241
vt 0.919 0.2124
vt 0.5094 0.0307
vt 0.4903 0.1022
vt 0.5085 0.0751
vt 0.5407 0.1003
vt 0.9786 0.0859
vt 0.5104 0.0721
vt 0.5272 0.0725
vt 0.5188 0.0849
vt 0.5178 0.0434
vt 0.5287 0.0816
vt 0.9778 0.6372
vt 0.9725 0.6605
vt 0.9478 0.6531
vt 0.9299 0.6789
vt 0.9642 0.6864
vt 0.9984 0.6939
vt 0.9813 0.746
vt 0.9813 0.746
vt 0.9984 0.6939
vt 0.947 0.7386
vt 0.9642 0.6864
vt 0.9127 0.7311
vt 0.9299 0.6789
vt 0.9127 0.7311
vt 0.947 0.7386
vt 0.9649 0.8152
vt 0.9649 0.8152
vt 0.9298 0.7907
vt 0.895 0.7733
vt 0.895 0.7733
vt 0.9298 0.7907
vt 0.9139 0.8427
vt 0.9139 0.8427
vt 0.9 0.827
vt 0.8759 0.7991
vt 0.8759 0.7991
vt 0.9 0.827
vt 0.9995 0.6659
vt 0.3514 0.9884
vt 0.5143 0.9732
vt 0.5269 0.8751
vt 0.3649 0.8751
vt 0.5151 0.8005
vt 0.3463 0.7874
vt 0.614 0.8865
vt 0.2454 0.9784
vt 0.231 0.8375
vt 0.1705 0.8517
vt 0.1705 0.9943
vt 0.1713 0.7672
vt 0.0719 0.9943
vt 0.0719 0.8517
vt 0.0183 0.8427
vt 0.0047 0.9773
vt 0.0744 0.7683
vt 0.5186 0.0392
vt 0.4973 0.0617
vt 0.4872 0.0347
vt 0.5186 0.0852
vt 0.4872 0.0897
vt 0.5374 0.0617
vt 0.4908 0.0617
vt 0.4994 0.088
vt 0.5091 0.0781
vt 0.5194 0.088
vt 0.485 0.0835
vt 0.4881 0.0482
vt 0.4994 0.0316
vt 0.5194 0.0316
vt 0.5349 0.0842
vt 0.5318 0.0489
vt 0.5618 0.4409
vt 0.5186 0.4327
vt 0.5568 0.4388
vt 0.5186 0.4351
vt 0.5713 0.6728
vt 0.5459 0.6231
vt 0.5442 0.6744
vt 0.586 0.6185
vt 0.5442 0.6733
vt 0.5459 0.626
vt 0.5108 0.6316
vt 0.521 0.6719
vt 0.499 0.6351
vt 0.513 0.6725
vt 0.5498 0.5521
vt 0.565 0.5469
vt 0.5407 0.5436
vt 0.5203 0.5542
vt 0.5158 0.5496
vt 0.5586 0.5333
vt 0.5159 0.5339
vt 0.561 0.505
vt 0.5662 0.4845
vt 0.5162 0.5023
vt 0.5367 0.4838
vt 0.4956 0.4981
vt 0.5031 0.4895
vt 0.5026 0.4954
vt 0.4961 0.4922
vt 0.5621 0.4767
vt 0.52 0.4746
vt 0.5199 0.4841
vt 0.5195 0.5187
vt 0.5051 0.5248
vt 0.52 0.5065
vt 0.5056 0.5126
vt 0.5287 0.0819
vt 0.5254 0.0516
vt 0.5022 0.0516
vt 0.4989 0.0819
vt 0.5798 0.6879
vt 0.5798 0.656
vt 0.4984 0.656
vt 0.4984 0.6879
vt 0.4984 0.656
vt 0.4984 0.6879
vt 0.5798 0.656
vt 0.5798 0.6879
vt 0.6278 0.6761
vt 0.5047 0.0963
vt 0.6185 0.7704
f 1/1/1 3/3/3 2/2/2
f 4/4/4 6/6/6 5/5/5
f 7/7/7 1/1/1 6/6/6
f 1/1/1 2/2/2 6/6/6
f 4/4/4 8/8/8 7/7/7
f 7/7/7 6/6/6 4/4/4
f 9/9/9 11/11/11 10/10/10
f 12/12/12 10/10/10 11/11/11
f 13/13/13 10/10/10 14/14/14
f 12/12/12 14/14/14 10/10/10
f 9/9/9 16/16/16 15/15/15
f 16/16/16 9/9/9 10/10/10
f 13/13/13 17/17/17 10/10/10
f 17/17/17 16/16/16 10/10/10
f 18/18/18 20/20/20 19/19/19
f 19/19/19 20/20/20 21/21/21
f 22/22/22 24/24/24 23/23/23
f 20/20/20 18/18/18 25/25/25
f 24/24/24 26/26/26 25/25/25
f 23/23/23 24/24/24 25/25/25
f 20/20/20 25/25/25 27/27/27
f 25/25/25 29/29/29 28/28/28
f 30/30/30 31/31/31 27/27/27
f 30/30/30 25/25/25 28/28/28
f 22/22/22 32/32/32 24/24/24
f 26/26/26 24/24/24 32/32/32
f 33/33/33 29/29/29 34/34/34
f 29/29/29 33/33/33 28/28/28
f 35/35/35 30/30/30 36/36/36
f 30/30/30 35/35/35 31/31/31
f 25/25/25 18/18/18 23/23/23
f 25/25/25 30/30/30 27/27/27
f 33/33/33 30/30/30 28/28/28
f 30/30/30 33/33/33 36/36/36
f 37/37/37 39/39/39 38/38/38
f 40/40/40 42/42/42 41/41/41
f 43/43/43 45/45/45 44/44/44
f 46/46/46 45/45/45 43/43/43
f 47/47/47 44/44/44 48/48/48
f 48/48/48 44/44/44 45/45/45
f 49/49/49 44/44/44 47/47/47
f 50/50/50 52/52/52 51/51/51
f 53/53/53 55/55/55 54/54/54
f 56/56/56 54/54/54 50/50/50
f 50/50/50 54/54/54 52/52/52
f 53/53/53 56/56/56 57/57/57
f 56/56/56 53/53/53 54/54/54
f 58/58/58 60/60/60 59/59/59
f 61/61/61 59/59/59 60/60/60
f 62/62/62 63/63/63 60/60/60
f 61/61/61 60/60/60 63/63/63
f 58/58/58 65/65/65 64/64/64
f 64/64/64 60/60/60 58/58/58
f 62/62/62 60/60/60 66/66/66
f 66/66/66 60/60/60 64/64/64
f 67/67/67 69/69/69 68/68/68
f 69/69/69 70/70/70 68/68/68
f 22/22/22 72/72/72 71/71/71
f 68/68/68 73/73/73 67/67/67
f 71/71/71 73/73/73 26/26/26
f 72/72/72 73/73/73 71/71/71
f 68/68/68 74/74/74 73/73/73
f 73/73/73 76/76/76 75/75/75
f 77/77/77 74/74/74 78/78/78
f 77/77/77 76/76/76 73/73/73
f 22/22/22 71/71/71 32/32/32
f 26/26/26 32/32/32 71/71/71
f 33/33/33 34/34/34 75/75/75
f 75/75/75 76/76/76 33/33/33
f 35/35/35 36/36/36 77/77/77
f 77/77/77 78/78/78 35/35/35
f 73/73/73 72/72/72 67/67/67
f 73/73/73 74/74/74 77/77/77
f 33/33/33 76/76/76 77/77/77
f 77/77/77 36/36/36 33/33/33
f 79/79/79 81/81/81 80/80/80
f 82/82/82 84/84/84 83/83/83
f 85/85/85 87/87/87 86/86/86
f 88/88/88 85/85/85 86/86/86
f 89/89/89 90/90/90 87/87/87
f 90/90/90 86/86/86 87/87/87
f 91/91/91 89/89/89 87/87/87
f 92/92/92 94/94/94 93/93/93
f 95/95/95 92/92/92 93/93/93
f 96/96/96 97/97/97 95/95/95
f 95/95/95 98/98/98 96/96/96
f 94/94/94 100/100/100 99/99/99
f 94/94/94 92/92/92 100/100/100
f 101/101/101 103/103/103 102/102/102
f 99/99/99 100/100/100 102/102/102
f 104/104/104 105/105/105 102/102/102
f 104/104/104 102/102/102 103/103/103
f 104/104/104 103/103/103 106/106/106
f 104/104/104 106/106/106 107/107/107
f 94/94/94 108/108/108 93/93/93
f 108/108/108 94/94/94 109/109/109
f 99/99/99 109/109/109 94/94/94
f 109/109/109 99/99/99 110/110/110
f 105/105/105 111/111/111 102/102/102
f 111/111/111 105/105/105 112/112/112
f 111/111/111 110/110/110 99/99/99
f 99/99/99 102/102/102 111/111/111
f 95/95/95 97/97/97 92/92/92
f 92/92/92 113/113/113 100/100/100
f 113/113/113 92/92/92 97/97/97
f 114/114/114 96/96/96 115/115/115
f 96/96/96 114/114/114 116/116/116
f 102/102/102 100/100/100 101/101/101
f 117/117/117 118/118/118 103/103/103
f 118/118/118 119/119/119 114/114/114
f 114/114/114 106/106/106 118/118/118
f 110/110/110 120/120/120 109/109/109
f 120/120/120 110/110/110 121/121/121
f 109/109/109 122/122/122 108/108/108
f 122/122/122 109/109/109 123/123/123
f 112/112/112 124/124/124 111/111/111
f 124/124/124 112/112/112 125/125/125
f 111/111/111 121/121/121 110/110/110
f 121/121/121 111/111/111 124/124/124
f 113/113/113 97/97/97 116/116/116
f 119/119/119 116/116/116 114/114/114
f 97/97/97 96/96/96 116/116/116
f 103/103/103 118/118/118 106/106/106
f 119/119/119 118/118/118 117/117/117
f 114/114/114 126/126/126 106/106/106
f 106/106/106 127/127/127 107/107/107
f 127/127/127 106/106/106 126/126/126
f 126/126/126 114/114/114 115/115/115
f 115/115/115 96/96/96 98/98/98
f 128/128/128 130/130/130 129/129/129
f 121/121/121 131/131/131 120/120/120
f 131/131/131 121/121/121 132/132/132
f 120/120/120 123/123/123 109/109/109
f 123/123/123 120/120/120 131/131/131
f 125/125/125 133/133/133 124/124/124
f 133/133/133 125/125/125 134/134/134
f 124/124/124 132/132/132 121/121/121
f 132/132/132 124/124/124 133/133/133
f 135/135/135 137/137/137 136/136/136
f 138/138/138 136/136/136 131/131/131
f 131/131/131 132/132/132 139/139/139
f 131/131/131 136/136/136 123/123/123
f 140/140/140 142/142/142 141/141/141
f 143/143/143 135/135/135 144/144/144
f 134/134/134 142/142/142 133/133/133
f 133/133/133 139/139/139 132/132/132
f 139/139/139 133/133/133 145/145/145
f 144/144/144 147/147/147 146/146/146
f 139/139/139 138/138/138 131/131/131
f 138/138/138 139/139/139 148/148/148
f 149/149/149 150/150/150 143/143/143
f 150/150/150 145/145/145 133/133/133
f 133/133/133 142/142/142 150/150/150
f 148/148/148 147/147/147 138/138/138
f 139/139/139 145/145/145 148/148/148
f 146/146/146 149/149/149 143/143/143
f 143/143/143 144/144/144 146/146/146
f 149/149/149 148/148/148 145/145/145
f 151/151/151 153/153/153 152/152/152
f 151/151/151 155/155/155 154/154/154
f 153/153/153 157/157/157 156/156/156
f 156/156/156 152/152/152 153/153/153
f 156/156/156 158/158/158 155/155/155
f 158/158/158 156/156/156 157/157/157
f 151/151/151 159/159/159 153/153/153
f 159/159/159 151/151/151 160/160/160
f 161/161/161 160/160/160 151/151/151
f 151/151/151 154/154/154 161/161/161
f 153/153/153 162/162/162 157/157/157
f 162/162/162 153/153/153 159/159/159
f 162/162/162 161/161/161 158/158/158
f 158/158/158 157/157/157 162/162/162
f 163/163/163 160/160/160 164/164/164
f 165/165/165 167/167/167 166/166/166
f 168/168/168 170/170/170 169/169/169
f 169/169/169 159/159/159 163/163/163
f 171/171/171 169/169/169 170/170/170
f 171/171/171 173/173/173 172/172/172
f 168/168/168 163/163/163 174/174/174
f 171/171/171 168/168/168 174/174/174
f 173/173/173 175/175/175 163/163/163
f 163/163/163 172/172/172 173/173/173
f 176/176/176 173/173/173 171/171/171
f 152/152/152 178/178/178 177/177/177
f 155/155/155 177/177/177 178/178/178
f 101/101/101 100/100/100 113/113/113
f 143/143/143 142/142/142 140/140/140
f 135/135/135 143/143/143 140/140/140
f 123/123/123 136/136/136 137/137/137
f 141/141/141 142/142/142 134/134/134
f 135/135/135 136/136/136 144/144/144
f 143/143/143 150/150/150 142/142/142
f 149/149/149 145/145/145 150/150/150
f 179/179/179 181/181/181 180/180/180
f 180/180/180 182/182/182 179/179/179
f 156/156/156 155/155/155 183/183/183
f 183/183/183 152/152/152 156/156/156
f 158/158/158 161/161/161 154/154/154
f 154/154/154 155/155/155 158/158/158
f 159/159/159 169/169/169 162/162/162
f 159/159/159 160/160/160 163/163/163
f 160/160/160 161/161/161 171/171/171
f 161/161/161 169/169/169 171/171/171
f 161/161/161 162/162/162 169/169/169
f 168/168/168 169/169/169 163/163/163
f 163/163/163 175/175/175 174/174/174
f 163/163/163 164/164/164 172/172/172
f 164/164/164 171/171/171 172/172/172
f 168/168/168 171/171/171 170/170/170
f 184/184/184 186/186/186 185/185/185
f 176/176/176 171/171/171 174/174/174
f 184/184/184 187/187/187 186/186/186
f 152/152/152 177/177/177 151/151/151
f 177/177/177 155/155/155 151/151/151
f 138/138/138 144/144/144 136/136/136
f 144/144/144 138/138/138 147/147/147
f 117/117/117 103/103/103 101/101/101
f 188/188/188 189/189/189 129/129/129
f 189/189/189 128/128/128 129/129/129
f 190/190/190 192/192/192 191/191/191
f 190/190/190 191/191/191 193/193/193
f 190/190/190 193/193/193 194/194/194
f 195/195/195 197/197/197 196/196/196
f 195/195/195 196/196/196 198/198/198
f 198/198/198 196/196/196 199/199/199
f 198/198/198 199/199/199 200/200/200
f 200/200/200 199/199/199 201/201/201
f 200/200/200 201/201/201 202/202/202
f 202/202/202 201/201/201 203/203/203
f 202/202/202 203/203/203 193/193/193
f 193/193/193 203/203/203 204/204/204
f 193/193/193 204/204/204 194/194/194
f 194/194/194 204/204/204 197/197/197
f 194/194/194 197/197/197 195/195/195
f 197/197/197 206/206/206 205/205/205
f 197/197/197 205/205/205 196/196/196
f 196/196/196 205/205/205 207/207/207
f 196/196/196 207/207/207 199/199/199
f 199/199/199 207/207/207 208/208/208
f 199/199/199 208/208/208 201/201/201
f 201/201/201 208/208/208 209/209/209
f 201/201/201 209/209/209 203/203/203
f 203/203/203 209/209/209 210/210/210
f 203/203/203 210/210/210 204/204/204
f 204/204/204 210/210/210 206/206/206
f 204/204/204 206/206/206 197/197/197
f 206/206/206 212/212/212 211/211/211
f 206/206/206 211/211/211 205/205/205
f 205/205/205 211/211/211 213/213/213
f 205/205/205 213/213/213 207/207/207
f 207/207/207 213/213/213 214/214/214
f 207/207/207 214/214/214 208/208/208
f 208/208/208 214/214/214 215/215/215
f 208/208/208 215/215/215 209/209/209
f 209/209/209 215/215/215 216/216/216
f 209/209/209 216/216/216 210/210/210
f 210/210/210 216/216/216 212/212/212
f 210/210/210 212/212/212 206/206/206
f 217/217/217 190/190/190 195/195/195
f 192/192/192 190/190/190 217/217/217
f 190/190/190 194/194/194 195/195/195
f 202/202/202 192/192/192 200/200/200
f 192/192/192 202/202/202 191/191/191
f 193/193/193 191/191/191 202/202/202
f 195/195/195 198/198/198 217/217/217
f 200/200/200 217/217/217 198/198/198
f 217/217/217 200/200/200 192/192/192
f 218/218/218 220/220/220 219/219/219
f 218/218/218 219/219/219 221/221/221
f 221/221/221 219/219/219 222/222/222
f 221/221/221 222/222/222 223/223/223
f 220/220/220 224/224/224 219/219/219
f 219/219/219 224/224/224 222/222/222
f 225/225/225 227/227/227 226/226/226
f 225/225/225 226/226/226 228/228/228
f 227/227/227 229/229/229 226/226/226
f 230/230/230 232/232/232 231/231/231
f 230/230/230 231/231/231 233/233/233
f 232/232/232 234/234/234 231/231/231
f 228/228/228 232/232/232 230/230/230
f 228/228/228 226/226/226 232/232/232
f 226/226/226 234/234/234 232/232/232
f 226/226/226 229/229/229 234/234/234
f 235/235/235 237/237/237 236/236/236
f 237/237/237 239/239/239 238/238/238
f 240/240/240 237/237/237 235/235/235
f 236/236/236 237/237/237 241/241/241
f 241/241/241 237/237/237 238/238/238
f 240/240/240 239/239/239 237/237/237
f 242/242/242 244/244/244 243/243/243
f 245/245/245 244/244/244 242/242/242
f 245/245/245 246/246/246 244/244/244
f 246/246/246 247/247/247 244/244/244
f 247/247/247 248/248/248 244/244/244
f 244/244/244 249/249/249 243/243/243
f 244/244/244 250/250/250 249/249/249
f 250/250/250 244/244/244 248/248/248
f 251/251/251 253/253/253 252/252/252
f 253/253/253 251/251/251 254/254/254
f 255/255/255 257/257/257 256/256/256
f 257/257/257 255/255/255 258/258/258
f 259/259/259 258/258/258 255/255/255
f 258/258/258 259/259/259 260/260/260
f 256/256/256 262/262/262 261/261/261
f 262/262/262 256/256/256 257/257/257
f 261/261/261 264/264/264 263/263/263
f 264/264/264 261/261/261 262/262/262
f 263/263/263 260/260/260 259/259/259
f 260/260/260 263/263/263 264/264/264
f 265/265/265 258/258/258 266/266/266
f 258/258/258 265/265/265 257/257/257
f 260/260/260 266/266/266 258/258/258
f 266/266/266 260/260/260 267/267/267
f 257/257/257 268/268/268 262/262/262
f 268/268/268 257/257/257 265/265/265
f 262/262/262 269/269/269 264/264/264
f 269/269/269 262/262/262 268/268/268
f 264/264/264 267/267/267 260/260/260
f 267/267/267 264/264/264 269/269/269
f 266/266/266 270/270/270 265/265/265
f 271/271/271 265/265/265 270/270/270
f 265/265/265 271/271/271 268/268/268
f 269/269/269 268/268/268 271/271/271
f 266/266/266 272/272/272 270/270/270
f 272/272/272 266/266/266 273/273/273
f 270/270/270 274/274/274 271/271/271
f 274/274/274 270/270/270 272/272/272
f 267/267/267 273/273/273 266/266/266
f 273/273/273 267/267/267 275/275/275
f 276/276/276 278/278/278 277/277/277
f 278/278/278 276/276/276 279/279/279
f 273/273/273 280/280/280 272/272/272
f 272/272/272 281/281/281 274/274/274
f 281/281/281 272/272/272 280/280/280
f 282/282/282 274/274/274 281/281/281
f 273/273/273 252/252/252 280/280/280
f 252/252/252 273/273/273 251/251/251
f 280/280/280 253/253/253 281/281/281
f 253/253/253 280/280/280 252/252/252
f 275/275/275 251/251/251 273/273/273
f 251/251/251 275/275/275 254/254/254
f 281/281/281 254/254/254 282/282/282
f 254/254/254 281/281/281 253/253/253
f 282/282/282 254/254/254 275/275/275
f 269/269/269 283/283/283 267/267/267
f 283/283/283 269/269/269 284/284/284
f 267/267/267 285/285/285 275/275/275
f 285/285/285 267/267/267 283/283/283
f 275/275/275 286/286/286 282/282/282
f 286/286/286 275/275/275 285/285/285
f 284/284/284 277/277/277 283/283/283
f 277/277/277 284/284/284 276/276/276
f 283/283/283 278/278/278 285/285/285
f 278/278/278 283/283/283 277/277/277
f 285/285/285 279/279/279 286/286/286
f 279/279/279 285/285/285 278/278/278
f 286/286/286 276/276/276 284/284/284
f 276/276/276 286/286/286 279/279/279
f 274/274/274 282/282/282 286/286/286
f 274/274/274 286/286/286 271/271/271
f 271/271/271 286/286/286 269/269/269
f 286/286/286 284/284/284 269/269/269
f 287/287/287 289/289/289 288/288/288
f 287/287/287 288/288/288 290/290/290
f 291/291/291 293/293/293 292/292/292
f 291/291/291 292/292/292 294/294/294
f 294/294/294 292/292/292 295/295/295
f 294/294/294 295/295/295 296/296/296
f 296/296/296 295/295/295 297/297/297
f 296/296/296 297/297/297 298/298/298
f 293/293/293 299/299/299 297/297/297
f 297/297/297 299/299/299 298/298/298
f 291/291/291 299/299/299 293/293/293
f 290/290/290 300/300/300 287/287/287
f 299/299/299 291/291/291 301/301/301
f 299/299/299 301/301/301 298/298/298
f 302/302/302 93/93/93 303/303/303
f 95/95/95 93/93/93 302/302/302
f 304/304/304 95/95/95 305/305/305
f 95/95/95 304/304/304 98/98/98
f 303/303/303 307/307/307 306/306/306
f 303/303/303 306/306/306 302/302/302
f 308/308/308 310/310/310 309/309/309
f 307/307/307 310/310/310 306/306/306
f 104/104/104 310/310/310 105/105/105
f 104/104/104 309/309/309 310/310/310
f 104/104/104 311/311/311 309/309/309
f 104/104/104 107/107/107 311/311/311
f 303/303/303 93/93/93 108/108/108
f 108/108/108 312/312/312 303/303/303
f 307/307/307 303/303/303 312/312/312
f 312/312/312 313/313/313 307/307/307
f 105/105/105 310/310/310 314/314/314
f 314/314/314 112/112/112 105/105/105
f 314/314/314 307/307/307 313/313/313
f 307/307/307 314/314/314 310/310/310
f 95/95/95 302/302/302 305/305/305
f 302/302/302 306/306/306 315/315/315
f 315/315/315 305/305/305 302/302/302
f 316/316/316 317/317/317 304/304/304
f 304/304/304 318/318/318 316/316/316
f 310/310/310 308/308/308 306/306/306
f 319/319/319 309/309/309 320/320/320
f 320/320/320 316/316/316 321/321/321
f 316/316/316 320/320/320 311/311/311
f 313/313/313 312/312/312 322/322/322
f 322/322/322 323/323/323 313/313/313
f 312/312/312 108/108/108 122/122/122
f 122/122/122 123/123/123 312/312/312
f 112/112/112 314/314/314 324/324/324
f 324/324/324 125/125/125 112/112/112
f 314/314/314 313/313/313 323/323/323
f 323/323/323 324/324/324 314/314/314
f 315/315/315 318/318/318 305/305/305
f 321/321/321 316/316/316 318/318/318
f 305/305/305 318/318/318 304/304/304
f 309/309/309 311/311/311 320/320/320
f 321/321/321 319/319/319 320/320/320
f 316/316/316 311/311/311 325/325/325
f 311/311/311 107/107/107 127/127/127
f 127/127/127 325/325/325 311/311/311
f 325/325/325 317/317/317 316/316/316
f 317/317/317 98/98/98 304/304/304
f 326/326/326 129/129/129 130/130/130
f 323/323/323 322/322/322 327/327/327
f 327/327/327 328/328/328 323/323/323
f 322/322/322 312/312/312 123/123/123
f 123/123/123 327/327/327 322/322/322
f 125/125/125 324/324/324 329/329/329
f 329/329/329 134/134/134 125/125/125
f 324/324/324 323/323/323 328/328/328
f 328/328/328 329/329/329 324/324/324
f 135/135/135 330/330/330 137/137/137
f 331/331/331 327/327/327 330/330/330
f 327/327/327 332/332/332 328/328/328
f 327/327/327 123/123/123 330/330/330
f 140/140/140 141/141/141 333/333/333
f 334/334/334 335/335/335 135/135/135
f 134/134/134 329/329/329 333/333/333
f 329/329/329 328/328/328 332/332/332
f 332/332/332 336/336/336 329/329/329
f 335/335/335 338/338/338 337/337/337
f 332/332/332 327/327/327 331/331/331
f 331/331/331 339/339/339 332/332/332
f 340/340/340 334/334/334 341/341/341
f 341/341/341 329/329/329 336/336/336
f 329/329/329 341/341/341 333/333/333
f 339/339/339 331/331/331 337/337/337
f 332/332/332 339/339/339 336/336/336
f 338/338/338 334/334/334 340/340/340
f 334/334/334 338/338/338 335/335/335
f 340/340/340 336/336/336 339/339/339
f 342/342/342 344/344/344 343/343/343
f 342/342/342 346/346/346 345/345/345
f 343/343/343 348/348/348 347/347/347
f 348/348/348 343/343/343 344/344/344
f 348/348/348 345/345/345 349/349/349
f 349/349/349 347/347/347 348/348/348
f 342/342/342 343/343/343 350/350/350
f 350/350/350 351/351/351 342/342/342
f 352/352/352 342/342/342 351/351/351
f 342/342/342 352/352/352 346/346/346
f 343/343/343 347/347/347 353/353/353
f 353/353/353 350/350/350 343/343/343
f 353/353/353 349/349/349 352/352/352
f 349/349/349 353/353/353 347/347/347
f 354/354/354 355/355/355 351/351/351
f 356/356/356 358/358/358 357/357/357
f 359/359/359 361/361/361 360/360/360
f 361/361/361 354/354/354 350/350/350
f 362/362/362 360/360/360 361/361/361
f 362/362/362 364/364/364 363/363/363
f 359/359/359 365/365/365 354/354/354
f 362/362/362 365/365/365 359/359/359
f 363/363/363 354/354/354 366/366/366
f 354/354/354 363/363/363 364/364/364
f 367/367/367 362/362/362 363/363/363
f 344/344/344 369/369/369 368/368/368
f 345/345/345 368/368/368 369/369/369
f 308/308/308 315/315/315 306/306/306
f 334/334/334 140/140/140 333/333/333
f 135/135/135 140/140/140 334/334/334
f 123/123/123 137/137/137 330/330/330
f 141/141/141 134/134/134 333/333/333
f 135/135/135 335/335/335 330/330/330
f 334/334/334 333/333/333 341/341/341
f 340/340/340 341/341/341 336/336/336
f 370/370/370 372/372/372 371/371/371
f 372/372/372 370/370/370 373/373/373
f 348/348/348 374/374/374 345/345/345
f 374/374/374 348/348/348 344/344/344
f 349/349/349 346/346/346 352/352/352
f 346/346/346 349/349/349 345/345/345
f 350/350/350 353/353/353 361/361/361
f 350/350/350 354/354/354 351/351/351
f 351/351/351 362/362/362 352/352/352
f 352/352/352 362/362/362 361/361/361
f 352/352/352 361/361/361 353/353/353
f 359/359/359 354/354/354 361/361/361
f 354/354/354 365/365/365 366/366/366
f 354/354/354 364/364/364 355/355/355
f 355/355/355 364/364/364 362/362/362
f 359/359/359 360/360/360 362/362/362
f 375/375/375 377/377/377 376/376/376
f 367/367/367 365/365/365 362/362/362
f 375/375/375 376/376/376 378/378/378
f 344/344/344 342/342/342 369/369/369
f 369/369/369 342/342/342 345/345/345
f 331/331/331 330/330/330 335/335/335
f 335/335/335 337/337/337 331/331/331
f 319/319/319 308/308/308 309/309/309
f 188/188/188 129/129/129 379/379/379
f 379/379/379 129/129/129 326/326/326
f 380/380/380 382/382/382 381/381/381
f 380/380/380 383/383/383 382/382/382
f 380/380/380 384/384/384 383/383/383
f 385/385/385 387/387/387 386/386/386
f 385/385/385 388/388/388 387/387/387
f 388/388/388 389/389/389 387/387/387
f 388/388/388 390/390/390 389/389/389
f 390/390/390 391/391/391 389/389/389
f 390/390/390 392/392/392 391/391/391
f 392/392/392 393/393/393 391/391/391
f 392/392/392 383/383/383 393/393/393
f 383/383/383 394/394/394 393/393/393
f 383/383/383 384/384/384 394/394/394
f 384/384/384 386/386/386 394/394/394
f 384/384/384 385/385/385 386/386/386
f 386/386/386 396/396/396 395/395/395
f 386/386/386 387/387/387 396/396/396
f 387/387/387 397/397/397 396/396/396
f 387/387/387 389/389/389 397/397/397
f 389/389/389 398/398/398 397/397/397
f 389/389/389 391/391/391 398/398/398
f 391/391/391 399/399/399 398/398/398
f 391/391/391 393/393/393 399/399/399
f 393/393/393 400/400/400 399/399/399
f 393/393/393 394/394/394 400/400/400
f 394/394/394 395/395/395 400/400/400
f 394/394/394 386/386/386 395/395/395
f 395/395/395 402/402/402 401/401/401
f 395/395/395 396/396/396 402/402/402
f 396/396/396 403/403/403 402/402/402
f 396/396/396 397/397/397 403/403/403
f 397/397/397 404/404/404 403/403/403
f 397/397/397 398/398/398 404/404/404
f 398/398/398 405/405/405 404/404/404
f 398/398/398 399/399/399 405/405/405
f 399/399/399 406/406/406 405/405/405
f 399/399/399 400/400/400 406/406/406
f 400/400/400 401/401/401 406/406/406
f 400/400/400 395/395/395 401/401/401
f 407/407/407 385/385/385 380/380/380
f 381/381/381 407/407/407 380/380/380
f 380/380/380 385/385/385 384/384/384
f 392/392/392 390/390/390 381/381/381
f 381/381/381 382/382/382 392/392/392
f 383/383/383 392/392/392 382/382/382
f 385/385/385 407/407/407 388/388/388
f 390/390/390 388/388/388 407/407/407
f 407/407/407 381/381/381 390/390/390
f 408/408/408 410/410/410 409/409/409
f 408/408/408 411/411/411 410/410/410
f 411/411/411 412/412/412 410/410/410
f 411/411/411 413/413/413 412/412/412
f 409/409/409 410/410/410 414/414/414
f 410/410/410 412/412/412 414/414/414
f 415/415/415 417/417/417 416/416/416
f 415/415/415 418/418/418 417/417/417
f 416/416/416 417/417/417 419/419/419
f 420/420/420 422/422/422 421/421/421
f 420/420/420 423/423/423 422/422/422
f 421/421/421 422/422/422 424/424/424
f 418/418/418 420/420/420 421/421/421
f 418/418/418 421/421/421 417/417/417
f 417/417/417 421/421/421 424/424/424
f 417/417/417 424/424/424 419/419/419
f 425/425/425 427/427/427 426/426/426
f 426/426/426 429/429/429 428/428/428
f 430/430/430 425/425/425 426/426/426
f 427/427/427 431/431/431 426/426/426
f 431/431/431 429/429/429 426/426/426
f 430/430/430 426/426/426 428/428/428
f 432/432/432 434/434/434 433/433/433
f 435/435/435 432/432/432 433/433/433
f 435/435/435 433/433/433 436/436/436
f 436/436/436 433/433/433 437/437/437
f 437/437/437 433/433/433 438/438/438
f 433/433/433 434/434/434 439/439/439
f 433/433/433 439/439/439 440/440/440
f 440/440/440 438/438/438 433/433/433
f 441/441/441 443/443/443 442/442/442
f 442/442/442 444/444/444 441/441/441
f 445/445/445 447/447/447 446/446/446
f 446/446/446 448/448/448 445/445/445
f 449/449/449 445/445/445 448/448/448
f 448/448/448 450/450/450 449/449/449
f 447/447/447 452/452/452 451/451/451
f 451/451/451 446/446/446 447/447/447
f 452/452/452 454/454/454 453/453/453
f 453/453/453 451/451/451 452/452/452
f 454/454/454 449/449/449 450/450/450
f 450/450/450 453/453/453 454/454/454
f 455/455/455 456/456/456 448/448/448
f 448/448/448 446/446/446 455/455/455
f 450/450/450 448/448/448 456/456/456
f 456/456/456 457/457/457 450/450/450
f 446/446/446 451/451/451 458/458/458
f 458/458/458 455/455/455 446/446/446
f 451/451/451 453/453/453 459/459/459
f 459/459/459 458/458/458 451/451/451
f 453/453/453 450/450/450 457/457/457
f 457/457/457 459/459/459 453/453/453
f 456/456/456 455/455/455 460/460/460
f 461/461/461 460/460/460 455/455/455
f 455/455/455 458/458/458 461/461/461
f 459/459/459 461/461/461 458/458/458
f 456/456/456 460/460/460 462/462/462
f 462/462/462 463/463/463 456/456/456
f 460/460/460 461/461/461 464/464/464
f 464/464/464 462/462/462 460/460/460
f 457/457/457 456/456/456 463/463/463
f 463/463/463 465/465/465 457/457/457
f 466/466/466 468/468/468 467/467/467
f 467/467/467 469/469/469 466/466/466
f 463/463/463 462/462/462 470/470/470
f 462/462/462 464/464/464 471/471/471
f 471/471/471 470/470/470 462/462/462
f 472/472/472 471/471/471 464/464/464
f 463/463/463 470/470/470 443/443/443
f 443/443/443 441/441/441 463/463/463
f 470/470/470 471/471/471 442/442/442
f 442/442/442 443/443/443 470/470/470
f 465/465/465 463/463/463 441/441/441
f 441/441/441 444/444/444 465/465/465
f 471/471/471 472/472/472 444/444/444
f 444/444/444 442/442/442 471/471/471
f 472/472/472 465/465/465 444/444/444
f 459/459/459 457/457/457 473/473/473
f 473/473/473 474/474/474 459/459/459
f 457/457/457 465/465/465 475/475/475
f 475/475/475 473/473/473 457/457/457
f 465/465/465 472/472/472 476/476/476
f 476/476/476 475/475/475 465/465/465
f 474/474/474 473/473/473 468/468/468
f 468/468/468 466/466/466 474/474/474
f 473/473/473 475/475/475 467/467/467
f 467/467/467 468/468/468 473/473/473
f 475/475/475 476/476/476 469/469/469
f 469/469/469 467/467/467 475/475/475
f 476/476/476 474/474/474 466/466/466
f 466/466/466 469/469/469 476/476/476
f 464/464/464 476/476/476 472/472/472
f 464/464/464 461/461/461 476/476/476
f 461/461/461 459/459/459 476/476/476
f 476/476/476 459/459/459 474/474/474
f 477/477/477 479/479/479 478/478/478
f 477/477/477 480/480/480 479/479/479
f 481/481/481 483/483/483 482/482/482
f 481/481/481 484/484/484 483/483/483
f 484/484/484 485/485/485 483/483/483
f 484/484/484 486/486/486 485/485/485
f 486/486/486 487/487/487 485/485/485
f 486/486/486 488/488/488 487/487/487
f 482/482/482 487/487/487 489/489/489
f 487/487/487 488/488/488 489/489/489
f 481/481/481 482/482/482 489/489/489
f 480/480/480 477/477/477 490/490/490
f 489/489/489 491/491/491 481/481/481
f 489/489/489 488/488/488 491/491/491

g skin_special_01
# texture: skin_special_01.jpg
v 0.1242 22.50291 51.4276
v 7.1771 25.28131 54.04969
v 7.0305 33.7558 64.7943
v 6.297501 29.39461 61.5477
v 7.6167 34.75671 56.6061
v 1.1989 37.6821 66.1455
v 2.337 25.64001 60.9871
v -6.9299 25.28131 54.04969
v -4.3783 28.03841 61.6215
v -7.3742 34.71221 56.6079
v 9.428601 25.23471 61.6663
v 11.0974 28.12031 63.02
v 8.7993 22.83871 68.2278
v 4.481201 20.2728 68.0407
v 10.2367 25.3241 69.3937
v 9.7512 29.3852 72.3155
v 6.7654 22.1021 73.4583
v 3.0096 19.2701 71.65669
v 7.8004 23.89161 74.2979
v 10.665 23.17981 69.3856
v 8.3967 28.5851 76.0265
v 6.1649 19.9538 75.72389
v 1.7443 17.6426 74.9883
v 8.2659 23.5867 77.4281
v 7.724 27.9822 79.8388
v 2.4945 17.9769 82.16089
v 4.968 22.2435 84.107
v 5.2775 26.2115 85.6076
v 5.8309 33.6112 72.9209
v 4.6235 32.8257 78.235
v -3.066 19.5295 71.9975
v -1.1078 21.6133 67.2925
vn 0.494682 -0.853268 0.164994
vn 0.875294 -0.173499 0.451397
vn 0.755608 0.610606 -0.237102
vn 0.5469 0.1118 -0.8297
vn 0.785002 -0.195001 0.588002
vn 0.784328 0.618222 0.051302
vn -0.027 -0.924389 -0.380496
vn -0.53841 -0.727714 0.424908
vn -0.656667 -0.751562 0.062797
vn -0.921352 -0.141608 0.36202
vn 0.589087 -0.495289 -0.638486
vn 0.882473 0.225493 -0.412788
vn 0.627186 -0.726184 -0.281594
vn 0.201896 -0.923879 -0.325093
vn 0.984837 -0.167106 0.046602
vn 0.901531 0.374713 0.216408
vn 0.682112 -0.730213 -0.038901
vn 0.350507 -0.888619 -0.295806
vn 0.956694 -0.199799 0.211699
vn 0.865099 -0.5014 0.0142
vn 0.925129 0.217307 0.31131
vn 0.716594 -0.695594 -0.0514
vn 0.309391 -0.919073 -0.244093
vn 0.955501 -0.2777 0.0995
vn 0.977266 0.134495 0.163894
vn 0.642222 -0.754626 0.134504
vn 0.828386 -0.462792 0.315595
vn 0.911265 -0.153394 0.382185
vn 0.709282 0.669783 0.219795
vn 0.78419 0.569893 0.245497
vn -0.090703 -0.911527 -0.401112
vn -0.1952 -0.806901 -0.557501
vt 0.7538 0.754
vt 0.8357 0.7542
vt 0.8088 0.8195
vt 0.7515 0.7968
vt 0.8871 0.7544
vt 0.8823 0.8252
vt 0.692 0.8195
vt 0.6874 0.7542
vt 0.6068 0.8252
vt 0.6024 0.7544
vt 0.7354 0.811
vt 0.7681 0.811
vt 0.7427 0.8594
vt 0.7165 0.874
vt 0.7606 0.8594
vt 0.7857 0.874
vt 0.7442 0.8952
vt 0.7126 0.9023
vt 0.758 0.8952
vt 0.7518 0.8624
vt 0.7895 0.9023
vt 0.7379 0.9162
vt 0.7088 0.9229
vt 0.7643 0.9162
vt 0.7934 0.9229
vt 0.7401 0.981
vt 0.7668 0.981
vt 0.7943 0.9821
vt 0.8136 0.8741
vt 0.8173 0.9091
vt 0.6855 0.9082
vt 0.6892 0.8731
f 492/492/492 494/494/494 493/493/493
f 494/494/494 492/492/492 495/495/495
f 493/493/493 497/497/497 496/496/496
f 497/497/497 493/493/493 494/494/494
f 492/492/492 499/499/499 498/498/498
f 498/498/498 495/495/495 492/492/492
f 499/499/499 501/501/501 500/500/500
f 500/500/500 498/498/498 499/499/499
f 498/498/498 502/502/502 495/495/495
f 503/503/503 495/495/495 502/502/502
f 495/495/495 503/503/503 494/494/494
f 504/504/504 502/502/502 505/505/505
f 502/502/502 506/506/506 503/503/503
f 506/506/506 502/502/502 504/504/504
f 507/507/507 503/503/503 506/506/506
f 505/505/505 508/508/508 504/504/504
f 508/508/508 505/505/505 509/509/509
f 510/510/510 511/511/511 508/508/508
f 506/506/506 512/512/512 507/507/507
f 512/512/512 506/506/506 510/510/510
f 509/509/509 513/513/513 508/508/508
f 513/513/513 509/509/509 514/514/514
f 508/508/508 515/515/515 510/510/510
f 515/515/515 508/508/508 513/513/513
f 510/510/510 516/516/516 512/512/512
f 516/516/516 510/510/510 515/515/515
f 514/514/514 517/517/517 513/513/513
f 513/513/513 518/518/518 515/515/515
f 518/518/518 513/513/513 517/517/517
f 515/515/515 519/519/519 516/516/516
f 519/519/519 515/515/515 518/518/518
f 520/520/520 497/497/497 494/494/494
f 494/494/494 507/507/507 520/520/520
f 507/507/507 494/494/494 503/503/503
f 520/520/520 512/512/512 521/521/521
f 512/512/512 520/520/520 507/507/507
f 516/516/516 521/521/521 512/512/512
f 522/522/522 505/505/505 523/523/523
f 505/505/505 522/522/522 509/509/509
f 504/504/504 511/511/511 506/506/506
f 508/508/508 511/511/511 504/504/504
f 510/510/510 506/506/506 511/511/511
f 505/505/505 498/498/498 523/523/523
f 505/505/505 502/502/502 498/498/498
f 523/523/523 498/498/498 500/500/500
f 514/514/514 509/509/509 522/522/522
