# Object11.bmd — MU geometry at action 0 key 0, exported for MU2
# 1 mesh(es)

g ses
# texture: ses.jpg
v 0.0369 60.47549 -153.176
v 4.0214 74.0708 -149.9451
v 0.0369 75.4335 -146.2009
v 4.0214 64.2197 -154.5387
v 0.0369 72.70799 -153.6893
v 0.0369 67.9639 -155.9015
v -3.9476 74.0708 -149.9451
v -3.9476 64.2197 -154.5387
v 4.0213 83.3638 -169.8742
v 0.0369 87.108 -171.237
v 0.0369 79.61969 -168.5114
v -3.9476 83.36389 -169.8742
v 4.0213 73.5128 -174.4678
v 0.0369 72.15009 -178.212
v 0.0369 74.8756 -170.7236
v -3.9476 73.5128 -174.4678
v 8.2891 61.94719 -135.6994
v -5.3978 66.71579 -136.736
v -8.2152 61.94719 -135.6994
v 5.4716 66.71579 -136.736
v -2.5804 64.1489 -140.8863
v 2.6542 64.1489 -140.8863
v -5.3978 59.38029 -139.8497
v 5.4716 59.38039 -139.8497
v -5.3978 75.3077 -156.9773
v -8.2153 72.7408 -161.1276
v -2.5804 70.5391 -155.9407
v -5.3978 67.97229 -160.091
v 5.4716 75.3077 -156.9773
v 8.289 72.7408 -161.1276
v 2.6542 70.53909 -155.9406
v 5.4716 67.97229 -160.091
v 0.0369 49.03608 -124.0349
v 4.0214 62.80318 -121.64
v 0.0369 64.39199 -117.986
v 4.0214 52.69009 -125.6237
v 0.0369 61.21439 -125.294
v 0.0369 56.3441 -127.2124
v -3.9476 62.80318 -121.64
v -3.9476 52.69009 -125.6237
v 4.0214 70.8623 -142.0993
v 0.0369 74.51629 -143.688
v 0.0369 67.20829 -140.5104
v -3.9476 70.8623 -142.0993
v 4.0214 60.74919 -146.0829
v 0.0369 59.1604 -149.7369
v 0.0369 62.338 -142.4288
v -3.9476 60.74919 -146.0829
v 8.2891 50.31561 -108.3997
v -5.3978 55.10149 -109.3529
v -8.2152 50.31561 -108.3997
v 5.4717 55.10149 -109.3529
v -2.5803 52.60748 -113.5474
v 2.6542 52.60748 -113.5474
v -5.3978 47.82159 -112.5942
v 5.4716 47.82159 -112.5941
v -5.3978 64.04539 -129.4411
v -8.2152 61.55139 -133.6357
v -2.5804 59.25939 -128.4879
v -5.3978 56.7654 -132.6824
v 5.4716 64.04539 -129.4412
v 8.2891 61.55139 -133.6356
v 2.6542 59.25939 -128.4879
v 5.4716 56.7654 -132.6824
v 0.037 37.05469 -95.4626
v 4.0214 50.80038 -92.94771
v 0.037 52.35719 -89.27991
v 4.0214 40.72239 -97.0194
v 0.037 49.24359 -96.6154
v 0.037 44.39008 -98.5762
v -3.9475 50.80038 -92.94771
v -3.9475 40.72239 -97.0194
v 4.0214 59.0377 -113.3358
v 0.037 62.70539 -114.8926
v 0.037 55.36998 -111.7789
v -3.9475 59.0377 -113.3358
v 4.0214 48.95979 -117.4076
v 0.037 47.40299 -121.0753
v 0.037 50.51659 -113.7398
v -3.9475 48.95979 -117.4075
v 8.2891 40.26829 -77.25571
v -5.3978 44.95298 -78.62241
v -8.2152 40.26829 -77.25571
v 5.4717 44.95298 -78.62241
v -2.5803 42.10288 -82.5836
v 2.6542 42.10288 -82.5836
v -5.3978 37.41819 -81.21681
v 5.4717 37.41819 -81.21681
v -5.3977 52.11198 -99.4137
v -8.2152 49.26179 -103.3748
v -2.5803 47.42728 -98.047
v -5.3978 44.57719 -102.0081
v 5.4717 52.11198 -99.4137
v 8.2891 49.26189 -103.3748
v 2.6542 47.42728 -98.04691
v 5.4716 44.57719 -102.0082
v 0.0369 28.16489 -64.36679
v 4.0214 42.07749 -63.05951
v 0.0369 43.94809 -59.5414
v 4.0214 31.68298 -66.2373
v 0.0369 40.20689 -66.5776
v 0.0369 35.20109 -68.10802
v -3.9475 42.07747 -63.0594
v -3.9475 31.68298 -66.2374
v 4.0214 48.50648 -84.088
v 0.0369 52.0246 -85.95851
v 0.0369 44.98848 -82.2173
v -3.9475 48.50648 -84.088
v 4.0214 38.11208 -87.2659
v 0.0369 36.24149 -90.7839
v 0.0369 39.98269 -83.74771
v -3.9475 38.11208 -87.2659
v 8.2892 32.89727 -46.34859
v -5.3978 37.41348 -48.19759
v -8.2152 32.89739 -46.3486
v 5.4717 37.41348 -48.19759
v -2.5803 34.16489 -51.83909
v 2.6542 34.16489 -51.83909
v -5.3977 29.64877 -49.9902
v 5.4717 29.64877 -49.9902
v -5.3977 42.35998 -69.62329
v -8.2152 39.11137 -73.26489
v -2.5803 37.84387 -67.77441
v -5.3977 34.59528 -71.41591
v 5.4717 42.35999 -69.6234
v 8.2891 39.11137 -73.26489
v 2.6542 37.84388 -67.77431
v 5.4717 34.59528 -71.41591
v 0.037 22.66267 -31.5778
v 4.0214 36.62178 -32.21939
v 0.037 38.96378 -28.996
v 4.0214 25.88616 -33.91979
v 0.037 34.27979 -35.44299
v 0.037 29.10967 -36.2618
v -3.9475 36.62178 -32.21939
v -3.9475 25.88616 -33.91979
v 4.0214 40.06168 -53.938
v 0.037 43.28517 -56.28011
v 0.037 36.83819 -51.596
v -3.9475 40.06168 -53.938
v 4.0214 29.32608 -55.6384
v 0.0369 26.98408 -58.86191
v 0.037 31.66808 -52.41489
v -3.9475 29.32608 -55.6384
v 8.2891 29.54838 -14.61168
v -5.3978 33.78448 -17.0343
v -8.2152 29.54838 -14.61168
v 5.4717 33.78448 -17.03418
v -2.5803 30.08837 -20.22058
v 2.6542 30.08837 -20.22058
v -5.3977 25.85227 -17.79799
v 5.4717 25.85227 -17.79799
v -5.3977 35.89207 -38.92239
v -8.2152 32.19598 -42.1088
v -2.5803 31.65598 -36.4998
v -5.3978 27.95986 -39.6861
v 5.4717 35.89207 -38.92239
v 8.2891 32.19598 -42.1088
v 2.6542 31.65598 -36.4998
v 5.4717 27.95986 -39.6861
v 0.037 21.65366 1.56842
v 4.0215 35.31547 -1.368393
v 0.037 38.15736 1.424316
v 4.0215 24.44648 -1.273605
v 0.037 32.47356 -4.161179
v 0.037 27.23917 -4.115479
v -3.9475 35.31547 -1.368393
v -3.9474 24.44646 -1.273499
v 4.0215 35.12357 -23.35689
v 0.037 37.91639 -26.1988
v 0.037 32.33086 -20.515
v -3.9474 35.12357 -23.35689
v 4.0215 24.25457 -23.2621
v 0.037 21.41268 -26.0548
v 0.037 27.09649 -20.46919
v -3.9475 24.25459 -23.26201
v 8.2891 86.48381 -188.3183
v -8.2153 86.48381 -188.3183
v -5.3978 88.7549 -183.9991
v 5.4716 88.755 -183.9991
v -2.5804 83.9256 -183.2976
v 2.6542 83.9257 -183.2976
v -5.3978 81.6546 -187.6169
v 5.4716 81.6546 -187.6169
v -8.2153 73.9427 -163.705
v -5.3978 78.772 -164.4065
v -2.5804 76.5009 -168.7257
v -5.3978 71.6716 -168.0243
v 8.289 73.9427 -163.705
v 5.4716 78.772 -164.4064
v 2.6541 76.5009 -168.7257
v 5.4716 71.6716 -168.0243
v 0.0369 87.1202 -205.7066
v 0.0369 101.6245 -197.8315
v 4.0214 97.80421 -196.6998
v 4.0214 88.25191 -201.8862
v 0.0369 93.98381 -195.5681
v 0.0369 89.38361 -198.0659
v -3.9476 97.80421 -196.6998
v -3.9476 88.25191 -201.8863
v 0.0369 88.44341 -173.5549
v 4.0214 87.3118 -177.3752
v 0.0369 86.1801 -181.1956
v -3.9476 87.3118 -177.3752
v 0.0369 73.9391 -181.43
v 4.0214 77.75951 -182.5616
v 0.0369 81.57991 -183.6933
v -3.9476 77.75951 -182.5616
v 0.0369 102.4335 -234.702
v 4.0214 115.6954 -230.2985
v 0.0369 116.7267 -226.4498
v 4.0214 106.2822 -235.7332
v 0.0369 114.6642 -234.1472
v 0.0369 110.1309 -236.7645
v -3.9476 115.6954 -230.2985
v -3.9476 106.2822 -235.7332
v 4.0213 126.6901 -249.3418
v 0.0369 130.5388 -250.3731
v 0.0369 122.8414 -248.3105
v -3.9476 126.6901 -249.3418
v 4.0213 117.2769 -254.7765
v 0.0369 116.2456 -258.6252
v 0.0369 118.3081 -250.9278
v -3.9476 117.2769 -254.7765
v 8.2891 102.3764 -217.1636
v -5.3978 107.2172 -217.7807
v -8.2153 102.3764 -217.1636
v 5.4716 107.2172 -217.7807
v -2.5804 105.0218 -222.1389
v 2.6542 105.0218 -222.1389
v -5.3978 100.181 -221.5219
v 5.4716 100.1811 -221.5219
v -5.3978 117.5405 -237.1961
v -8.2153 115.3452 -241.5544
v -2.5804 112.6998 -236.5791
v -5.3978 110.5044 -240.9373
v 5.4716 117.5406 -237.1961
v 8.289 115.3452 -241.5543
v 2.6541 112.6997 -236.579
v 5.4716 110.5044 -240.9373
v 0.0369 88.6312 -207.2367
v 4.0214 102.1373 -203.651
v 0.0369 103.4016 -199.8725
v 4.0214 92.40981 -208.501
v 0.0369 100.873 -207.4296
v 0.0369 96.18842 -209.7652
v -3.9476 102.1373 -203.651
v -3.9476 92.40981 -208.501
v 4.0214 111.9489 -223.33
v 0.0369 115.7274 -224.5943
v 0.0369 108.1703 -222.0658
v -3.9476 111.9489 -223.33
v 4.0214 102.2215 -228.18
v 0.0369 100.9572 -231.9585
v 0.0369 103.4857 -224.4013
v -3.9476 102.2214 -228.18
v 8.2891 88.4097 -190.9816
v -5.3978 93.26051 -191.5141
v -8.2152 88.4097 -190.9816
v 5.4716 93.2605 -191.514
v -2.5804 91.14161 -195.91
v 2.6542 91.1415 -195.9099
v -5.3978 86.2907 -195.3775
v 5.4716 86.2907 -195.3775
v -5.3978 103.9212 -210.7464
v -8.2152 101.8022 -215.1423
v -2.5804 99.0703 -210.2139
v -5.3978 96.95141 -214.6097
v 5.4716 103.9212 -210.7464
v 8.2891 101.8022 -215.1422
v 2.6542 99.0703 -210.2138
v 5.4716 96.95141 -214.6098
v 8.2891 131.4057 -267.4438
v -8.2153 131.4057 -267.4438
v -5.3978 133.2917 -262.9431
v 5.4716 133.2917 -262.9431
v -2.5804 128.4197 -262.6652
v 2.6542 128.4197 -262.6652
v -5.3978 126.5337 -267.166
v 5.4716 126.5337 -267.166
v -8.2153 116.7671 -244.0172
v -5.3978 121.6392 -244.2951
v -2.5804 119.7531 -248.7958
v -5.3978 114.8811 -248.518
v 8.289 116.7671 -244.0172
v 5.4716 121.6391 -244.2951
v 2.6541 119.7532 -248.7959
v 5.4716 114.8811 -248.518
v 0.0369 134.8506 -288.3808
v 4.0213 147.6782 -282.8383
v 0.0369 148.3701 -278.9143
v 4.0213 138.7745 -289.0727
v 0.0369 146.9863 -286.7622
v 0.0369 142.6985 -289.7646
v -3.9476 147.6782 -282.8383
v -3.9476 138.7745 -289.0727
v 4.0213 160.2907 -300.8508
v 0.0369 164.2147 -301.5427
v 0.0369 156.3668 -300.1589
v -3.9476 160.2908 -300.8508
v 4.0213 151.3871 -307.0853
v 0.0369 150.6952 -311.0092
v 0.0369 152.0789 -303.1613
v -3.9476 151.387 -307.0852
v 8.2891 133.2651 -270.9142
v -5.3978 138.1413 -271.107
v -8.2153 133.2651 -270.9141
v 5.4716 138.1412 -271.107
v -2.5804 136.3341 -275.64
v 2.6542 136.3341 -275.64
v -5.3978 131.4579 -275.4472
v 5.4716 131.458 -275.4472
v -5.3978 150.1175 -289.5488
v -8.2153 148.3103 -294.0818
v -2.5804 145.2414 -289.356
v -5.3978 143.4342 -293.889
v 5.4716 150.1175 -289.5488
v 8.289 148.3103 -294.0818
v 2.6541 145.2413 -289.356
v 5.4716 143.4342 -293.889
v 0.0369 118.5246 -261.6689
v 4.0214 131.6668 -256.9197
v 0.0369 132.5969 -253.0454
v 4.0214 122.399 -262.599
v 0.0369 130.7366 -260.7941
v 0.0369 126.2734 -263.5291
v -3.9476 131.6667 -256.9197
v -3.9476 122.399 -262.599
v 4.0213 143.1561 -275.6687
v 0.0369 147.0305 -276.5989
v 0.0369 139.2818 -274.7386
v -3.9476 143.1561 -275.6687
v 4.0213 133.8884 -281.348
v 0.0369 132.9583 -285.2224
v 0.0369 134.8186 -277.4736
v -3.9476 133.8884 -281.348
v 8.2891 166.5662 -318.473
v -8.2153 166.5662 -318.473
v -5.3978 168.0527 -313.825
v 5.4716 168.0529 -313.825
v -2.5804 163.175 -313.9728
v 2.6542 163.175 -313.9728
v -5.3978 161.6885 -318.6208
v 5.4716 161.6885 -318.6208
v -8.2153 149.9415 -296.4113
v -5.3978 154.8192 -296.2635
v -2.5804 153.3327 -300.9115
v -5.3978 148.455 -301.0594
v 8.289 149.9415 -296.4113
v 5.4716 154.8192 -296.2635
v 2.6541 153.3327 -300.9116
v 5.4716 148.455 -301.0594
v 0.0369 170.2123 -335.4866
v 0.0369 183.1287 -325.2124
v 4.0213 179.17 -324.7614
v 4.0213 170.6634 -331.5277
v 0.0369 175.211 -324.3103
v 0.0369 171.1145 -327.5689
v -3.9476 179.17 -324.7614
v -3.9476 170.6634 -331.5277
v 0.0369 165.9323 -303.5935
v 4.0213 165.4813 -307.5523
v 0.0369 165.0302 -311.5112
v -3.9476 165.4813 -307.5523
v 0.0369 153.0159 -313.8676
v 4.0213 156.9747 -314.3187
v 0.0369 160.9336 -314.7698
v -3.9476 156.9747 -314.3187
v 0.0369 170.4716 -335.3582
v 4.0213 183.2993 -329.8156
v 0.0369 183.9911 -325.8917
v 4.0213 174.3955 -336.05
v 0.0369 182.6074 -333.7395
v 0.0369 178.3195 -336.7419
v -3.9476 183.2992 -329.8156
v -3.9476 174.3956 -336.05
v 4.0213 195.9118 -347.8282
v 0.0369 199.8357 -348.5201
v 0.0369 191.9879 -347.1363
v -3.9476 195.9118 -347.8282
v 4.0213 187.0081 -354.0626
v 0.0369 186.3163 -357.9865
v 0.0369 187.7 -350.1386
v -3.9476 187.0081 -354.0626
v 8.2891 168.8862 -317.8915
v -5.3978 173.7623 -318.0844
v -8.2153 168.8862 -317.8915
v 5.4716 173.7624 -318.0843
v -2.5804 171.9551 -322.6174
v 2.6542 171.9551 -322.6173
v -5.3978 167.079 -322.4245
v 5.4716 167.079 -322.4246
v -5.3978 185.7385 -336.5262
v -8.2153 183.9315 -341.0591
v -2.5804 180.8624 -336.3334
v -5.3978 179.0552 -340.8663
v 5.4716 185.7386 -336.5262
v 8.289 183.9315 -341.0591
v 2.6541 180.8624 -336.3333
v 5.4716 179.0552 -340.8663
v 8.2891 202.1873 -365.4503
v -8.2153 202.1873 -365.4503
v -5.3979 203.6738 -360.8023
v 5.4716 203.6739 -360.8024
v -2.5804 198.7961 -360.9501
v 2.6542 198.7961 -360.9502
v -5.3978 197.3095 -365.5982
v 5.4716 197.3095 -365.5982
v -8.2153 185.5626 -343.3887
v -5.3978 190.4403 -343.2409
v -2.5804 188.9537 -347.8889
v -5.3978 184.076 -348.0367
v 8.289 185.5626 -343.3887
v 5.4716 190.4403 -343.2409
v 2.6541 188.9537 -347.8889
v 5.4716 184.076 -348.0367
v 0.0369 205.8334 -382.4639
v 0.0369 218.7498 -372.1897
v 4.0213 214.791 -371.7387
v 4.0213 206.2845 -378.5051
v 0.0369 210.8322 -371.2876
v 0.0369 206.7355 -374.5463
v -3.9476 214.791 -371.7387
v -3.9476 206.2845 -378.5051
v 0.0369 201.5533 -350.5708
v 4.0213 201.1023 -354.5297
v 0.0369 200.6513 -358.4885
v -3.9476 201.1023 -354.5297
v 0.0369 188.6369 -360.845
v 4.0213 192.5957 -361.296
v 0.0369 196.5547 -361.7472
v -3.9476 192.5958 -361.296
v -15.6708 -0.0677 3.465601
v -8.149999 38.3985 11.7375
v -11.5764 38.3985 3.465601
v -11.0452 -0.0677 14.6326
v -11.0452 -0.0677 14.6326
v 0.121901 38.3985 15.1638
v -8.149999 38.3985 11.7375
v 0.121901 -0.0677 19.2582
v 0.121901 -0.0677 19.2582
v 8.393801 38.3985 11.7375
v 0.121901 38.3985 15.1638
v 11.2889 -0.0677 14.6326
v 11.2889 -0.0677 14.6326
v 11.8201 38.3985 3.465599
v 8.393801 38.3985 11.7375
v 15.9145 -0.0677 3.465599
v 15.9145 -0.0677 3.465599
v 8.393799 38.3985 -4.806301
v 11.8201 38.3985 3.465599
v 11.2889 -0.0677 -7.701501
v 11.2889 -0.0677 -7.701501
v 0.121899 38.3985 -8.2327
v 8.393799 38.3985 -4.806301
v 0.121899 -0.0677 -12.3271
v 0.121899 -0.0677 -12.3271
v -8.150001 38.3985 -4.806299
v 0.121899 38.3985 -8.2327
v -11.0452 -0.0677 -7.701499
v -11.0452 -0.0677 -7.701499
v -11.5764 38.3985 3.465601
v -8.150001 38.3985 -4.806299
v -15.6708 -0.0677 3.465601
v -11.5764 38.3985 3.465601
v -8.149999 38.3985 11.7375
v 0.1219 49.8283 3.4656
v -8.149999 38.3985 11.7375
v 0.121901 38.3985 15.1638
v 0.1219 49.8283 3.4656
v 0.121901 38.3985 15.1638
v 8.393801 38.3985 11.7375
v 0.1219 49.8283 3.4656
v 8.393801 38.3985 11.7375
v 11.8201 38.3985 3.465599
v 0.1219 49.8283 3.4656
v 11.8201 38.3985 3.465599
v 8.393799 38.3985 -4.806301
v 0.1219 49.8283 3.4656
v 8.393799 38.3985 -4.806301
v 0.121899 38.3985 -8.2327
v 0.1219 49.8283 3.4656
v 0.121899 38.3985 -8.2327
v -8.150001 38.3985 -4.806299
v 0.1219 49.8283 3.4656
v -8.150001 38.3985 -4.806299
v -11.5764 38.3985 3.465601
v 0.1219 49.8283 3.4656
vn 0 -0.9397 0.342
vn 0.948668 -0.29719 0.108196
vn 0 0.342 0.9397
vn 0.948668 -0.108196 -0.29719
vn 0 -0.342 -0.9397
vn 0 0.9397 -0.342
vn -0.948668 0.29719 -0.108196
vn -0.948668 0.108196 0.29719
vn 0.948668 0.108196 0.29719
vn 0 0.9397 -0.342
vn 0 -0.9397 0.342
vn -0.948668 -0.108196 -0.29719
vn 0.948668 0.29719 -0.108196
vn 0 -0.342 -0.9397
vn 0 0.342 0.9397
vn -0.948668 -0.29719 0.108196
vn 0.707099 -0.2763 0.650899
vn 0.223601 0.785905 0.576504
vn -0.707099 -0.2763 0.650899
vn 0.22361 0.960644 0.164808
vn 0.707099 0.2763 -0.650899
vn -0.707099 0.2763 -0.650899
vn -0.223601 -0.785905 -0.576504
vn -0.22361 -0.960644 -0.164808
vn -0.223601 0.785905 0.576504
vn -0.707099 0.2763 -0.650899
vn 0.707099 -0.2763 0.650899
vn 0.223601 -0.785905 -0.576504
vn -0.22361 0.960644 0.164808
vn 0.707099 0.2763 -0.650899
vn -0.707099 -0.2763 0.650899
vn 0.223607 -0.960628 -0.164905
vn 0 -0.917085 0.398693
vn 0.948684 -0.289995 0.126098
vn 0 0.398693 0.917085
vn 0.948684 -0.126098 -0.289995
vn 0 -0.398777 -0.917048
vn 0 0.917048 -0.398777
vn -0.948684 0.289995 -0.126098
vn -0.948684 0.126098 0.289995
vn 0.948684 0.126098 0.289995
vn 0 0.917085 -0.398693
vn 0 -0.917085 0.398693
vn -0.948684 -0.126098 -0.289995
vn 0.948684 0.289995 -0.126098
vn 0 -0.398693 -0.917085
vn 0 0.398777 0.917048
vn -0.948684 -0.289995 0.126098
vn 0.707093 -0.287597 0.645994
vn 0.223608 0.775729 0.590122
vn -0.707093 -0.287597 0.645994
vn 0.223603 0.957613 0.181603
vn 0.707093 0.287597 -0.645994
vn -0.707093 0.287597 -0.645994
vn -0.223608 -0.775729 -0.590122
vn -0.223603 -0.957613 -0.181603
vn -0.223608 0.775729 0.590122
vn -0.707093 0.287597 -0.645994
vn 0.707093 -0.287597 0.645994
vn 0.223608 -0.775729 -0.590122
vn -0.223603 0.957613 0.181603
vn 0.707093 0.287597 -0.645994
vn -0.707093 -0.287597 0.645994
vn 0.223603 -0.957613 -0.181603
vn 0 -0.920515 0.390707
vn 0.948677 -0.291093 0.123597
vn 0 0.390707 0.920515
vn 0.948677 -0.123597 -0.291093
vn 0 -0.390707 -0.920515
vn 0 0.920515 -0.390707
vn -0.948677 0.291093 -0.123597
vn -0.948677 0.123597 0.291093
vn 0.948677 0.123597 0.291093
vn 0 0.920515 -0.390707
vn 0 -0.920515 0.390707
vn -0.948677 -0.123597 -0.291093
vn 0.948677 0.291093 -0.123597
vn 0 -0.390707 -0.920515
vn 0 0.390707 0.920515
vn -0.948677 -0.291093 0.123597
vn 0.707097 -0.230199 0.668597
vn 0.223598 0.824194 0.520296
vn -0.707097 -0.230199 0.668597
vn 0.223601 0.969802 0.0974
vn 0.707097 0.230199 -0.668597
vn -0.707097 0.230199 -0.668597
vn -0.223598 -0.824194 -0.520296
vn -0.223601 -0.969802 -0.0974
vn -0.223598 0.824194 0.520296
vn -0.707097 0.230199 -0.668597
vn 0.707097 -0.230199 0.668597
vn 0.223598 -0.824194 -0.520296
vn -0.223601 0.969802 0.0974
vn 0.707097 0.230199 -0.668597
vn -0.707097 -0.230199 0.668597
vn 0.223601 -0.969802 -0.0974
vn 0 -0.882925 0.469513
vn 0.948683 -0.279195 0.148497
vn 0 0.469513 0.882925
vn 0.948683 -0.148497 -0.279195
vn 0 -0.469513 -0.882925
vn 0 0.882948 -0.469472
vn -0.948683 0.279195 -0.148497
vn -0.948683 0.148497 0.279195
vn 0.948683 0.148497 0.279195
vn 0 0.882925 -0.469513
vn 0 -0.882925 0.469513
vn -0.948683 -0.148497 -0.279195
vn 0.948683 0.279195 -0.148497
vn 0 -0.469472 -0.882948
vn 0 0.469513 0.882925
vn -0.948683 -0.279195 0.148497
vn 0.707092 -0.159098 0.688992
vn 0.223592 0.874071 0.431286
vn -0.707092 -0.159098 0.688992
vn 0.223594 0.974672 -0.0045
vn 0.707092 0.159098 -0.688992
vn -0.707092 0.159098 -0.688992
vn -0.223592 -0.874071 -0.431286
vn -0.223594 -0.974672 0.0045
vn -0.223592 0.874071 0.431286
vn -0.707092 0.159098 -0.688992
vn 0.707092 -0.159098 0.688992
vn 0.223592 -0.874071 -0.431286
vn -0.223594 0.974672 -0.0045
vn 0.707092 0.159098 -0.688992
vn -0.707092 -0.159098 0.688992
vn 0.223594 -0.974672 0.0045
vn 0 -0.809004 0.587803
vn 0.948689 -0.255797 0.185898
vn 0 0.587803 0.809004
vn 0.948689 -0.185898 -0.255797
vn 0 -0.587803 -0.809004
vn 0 0.809004 -0.587803
vn -0.948689 0.255797 -0.185898
vn -0.948689 0.185898 0.255797
vn 0.948689 0.185898 0.255797
vn 0 0.809004 -0.587803
vn 0 -0.809004 0.587803
vn -0.948689 -0.185898 -0.255797
vn 0.948689 0.255797 -0.185898
vn 0 -0.587803 -0.809004
vn 0 0.587803 0.809004
vn -0.948689 -0.255797 0.185898
vn 0.707078 -0.067798 0.703878
vn 0.223597 0.922889 0.313497
vn -0.707078 -0.067798 0.703878
vn 0.223609 0.96574 -0.131705
vn 0.707078 0.067798 -0.703878
vn -0.707078 0.067798 -0.703878
vn -0.223597 -0.922889 -0.313497
vn -0.223609 -0.96574 0.131705
vn -0.223597 0.922889 0.313497
vn -0.707128 0.067803 -0.703828
vn 0.707078 -0.067798 0.703878
vn 0.223597 -0.922889 -0.313497
vn -0.223612 0.965752 -0.131607
vn 0.707128 0.067803 -0.703828
vn -0.707078 -0.067798 0.703878
vn 0.223609 -0.96574 0.131705
vn 0 -0.70088 0.713279
vn 0.948705 -0.221601 0.225501
vn 0 0.71323 0.70093
vn 0.948684 -0.225596 -0.221596
vn 0 -0.713279 -0.70088
vn 0 0.70093 -0.71323
vn -0.948705 0.221601 -0.225501
vn -0.948684 0.225496 0.221696
vn 0.948684 0.225596 0.221596
vn 0 0.70088 -0.713279
vn 0 -0.70088 0.713279
vn -0.948684 -0.225596 -0.221596
vn 0.948684 0.221596 -0.225596
vn 0 -0.71323 -0.70093
vn 0 0.713279 0.70088
vn -0.948705 -0.221601 0.225501
vn 0.707124 0.321011 -0.630022
vn -0.707124 0.321011 -0.630022
vn 0.223598 0.946791 0.231498
vn 0.223599 0.743797 0.629897
vn 0.707124 -0.321011 0.630022
vn -0.707124 -0.321011 0.630022
vn -0.223598 -0.946791 -0.231498
vn -0.223599 -0.743797 -0.629897
vn -0.707124 -0.321011 0.630022
vn -0.223598 0.946791 0.231498
vn 0.707124 0.321011 -0.630022
vn 0.223598 -0.946791 -0.231498
vn 0.707124 -0.321011 0.630022
vn -0.223599 0.743797 0.629897
vn -0.707124 0.321011 -0.630022
vn 0.223599 -0.743797 -0.629897
vn 0 -0.284007 -0.958822
vn 0 0.958822 -0.284007
vn 0.948688 -0.089799 -0.303196
vn 0.948688 -0.303196 0.089799
vn 0 -0.958822 0.284007
vn 0 0.284007 0.958822
vn -0.948688 0.089799 0.303196
vn -0.948688 0.303196 -0.089799
vn 0 0.284007 0.958822
vn 0.948688 0.303196 -0.089799
vn 0 -0.284007 -0.958822
vn -0.948688 -0.303196 0.089799
vn 0 -0.958822 0.284007
vn 0.948688 0.089799 0.303196
vn 0 0.958822 -0.284007
vn -0.948688 -0.089799 -0.303196
vn 0 -0.965929 0.258808
vn 0.948675 -0.305492 0.081798
vn 0 0.258808 0.965929
vn 0.948675 -0.081798 -0.305492
vn 0 -0.258808 -0.965929
vn 0 0.965929 -0.258808
vn -0.948675 0.305492 -0.081798
vn -0.948675 0.081798 0.305492
vn 0.948675 0.081798 0.305492
vn 0 0.965929 -0.258808
vn 0 -0.965929 0.258808
vn -0.948675 -0.081798 -0.305492
vn 0.948675 0.305492 -0.081798
vn 0 -0.258808 -0.965929
vn 0 0.258808 0.965929
vn -0.948675 -0.305492 0.081798
vn 0.707112 -0.332006 0.624311
vn 0.223596 0.732686 0.642788
vn -0.707112 -0.332006 0.624311
vn 0.223606 0.942625 0.247907
vn 0.707112 0.332006 -0.624311
vn -0.707112 0.332006 -0.624311
vn -0.223596 -0.732686 -0.642788
vn -0.223606 -0.942625 -0.247907
vn -0.223596 0.732686 0.642788
vn -0.707112 0.332006 -0.624311
vn 0.707112 -0.332006 0.624311
vn 0.223596 -0.732686 -0.642788
vn -0.223606 0.942625 0.247907
vn 0.707112 0.332006 -0.624311
vn -0.707112 -0.332006 0.624311
vn 0.223601 -0.942602 -0.248001
vn 0 -0.948323 0.317307
vn 0.948685 -0.299895 0.100298
vn 0 0.317307 0.948323
vn 0.948685 -0.100298 -0.299895
vn 0 -0.317307 -0.948323
vn 0 0.948323 -0.317307
vn -0.948685 0.299895 -0.100298
vn -0.948685 0.100298 0.299895
vn 0.948685 0.100298 0.299895
vn 0 0.948323 -0.317307
vn 0 -0.948323 0.317307
vn -0.948685 -0.100298 -0.299895
vn 0.948685 0.299895 -0.100298
vn 0 -0.317307 -0.948323
vn 0 0.317307 0.948323
vn -0.948685 -0.299895 0.100298
vn 0.707128 -0.342814 0.618425
vn 0.223606 0.721318 0.655516
vn -0.707128 -0.342814 0.618425
vn 0.223607 0.93813 0.264409
vn 0.707128 0.342814 -0.618425
vn -0.707084 0.342793 -0.618486
vn -0.223606 -0.721318 -0.655516
vn -0.223607 -0.93813 -0.264409
vn -0.223606 0.721318 0.655516
vn -0.707084 0.342793 -0.618486
vn 0.707128 -0.342814 0.618425
vn 0.223606 -0.721318 -0.655516
vn -0.223607 0.93813 0.264409
vn 0.707084 0.342793 -0.618486
vn -0.707128 -0.342814 0.618425
vn 0.223607 -0.93813 -0.264409
vn 0.707089 0.374694 -0.599691
vn -0.707089 0.374694 -0.599691
vn 0.223605 0.92302 0.313107
vn 0.223599 0.685996 0.692396
vn 0.707089 -0.374694 0.599691
vn -0.707089 -0.374694 0.599691
vn -0.223605 -0.92302 -0.313107
vn -0.223599 -0.685996 -0.692396
vn -0.707089 -0.374694 0.599691
vn -0.223605 0.92302 0.313107
vn 0.707089 0.374694 -0.599691
vn 0.223605 -0.92302 -0.313107
vn 0.707089 -0.374694 0.599691
vn -0.223599 0.685996 0.692396
vn -0.707089 0.374694 -0.599691
vn 0.223599 -0.685996 -0.692396
vn 0 -0.984816 0.173603
vn 0.948693 -0.311398 0.0549
vn 0 0.173603 0.984816
vn 0.948693 -0.0549 -0.311398
vn 0 -0.173603 -0.984816
vn 0 0.984816 -0.173603
vn -0.948693 0.311398 -0.0549
vn -0.948693 0.0549 0.311398
vn 0.948693 0.0549 0.311398
vn 0 0.984816 -0.173603
vn 0 -0.984816 0.173603
vn -0.948693 -0.0549 -0.311398
vn 0.948693 0.311398 -0.0549
vn 0 -0.173603 -0.984816
vn 0 0.173603 0.984816
vn -0.948693 -0.311398 0.0549
vn 0.707121 -0.385111 0.593017
vn 0.223611 0.673833 0.704235
vn -0.707121 -0.385111 0.593017
vn 0.223601 0.917404 0.329202
vn 0.707121 0.385111 -0.593017
vn -0.707121 0.385111 -0.593017
vn -0.223611 -0.673833 -0.704235
vn -0.223601 -0.917404 -0.329202
vn -0.223611 0.673833 0.704235
vn -0.707121 0.385111 -0.593017
vn 0.707121 -0.385111 0.593017
vn 0.223611 -0.673833 -0.704235
vn -0.223601 0.917404 0.329202
vn 0.707121 0.385111 -0.593017
vn -0.707121 -0.385111 0.593017
vn 0.223601 -0.917404 -0.329202
vn 0 -0.972382 0.233396
vn 0.948684 -0.307495 0.073799
vn 0 0.233396 0.972382
vn 0.948684 -0.073799 -0.307495
vn 0 -0.233396 -0.972382
vn 0 0.972382 -0.233396
vn -0.948684 0.307495 -0.073799
vn -0.948684 0.073799 0.307495
vn 0.948684 0.073799 0.307495
vn 0 0.972382 -0.233396
vn 0 -0.972382 0.233396
vn -0.948684 -0.073799 -0.307495
vn 0.948684 0.307495 -0.073799
vn 0 -0.233396 -0.972382
vn 0 0.233396 0.972382
vn -0.948684 -0.307495 0.073799
vn 0.707126 0.425516 -0.564721
vn -0.707126 0.425516 -0.564721
vn 0.223609 0.892237 0.392316
vn 0.2236 0.6231 0.7495
vn 0.707126 -0.425516 0.564721
vn -0.707126 -0.425516 0.564721
vn -0.223601 -0.892202 -0.392401
vn -0.2236 -0.6231 -0.7495
vn -0.707126 -0.425516 0.564721
vn -0.223609 0.892237 0.392316
vn 0.707126 0.425516 -0.564721
vn 0.223601 -0.892202 -0.392401
vn 0.707126 -0.425516 0.564721
vn -0.2236 0.6231 0.7495
vn -0.707126 0.425516 -0.564721
vn 0.2236 -0.6231 -0.7495
vn 0 -0.113197 -0.993573
vn 0 0.993573 -0.113197
vn 0.948683 -0.035799 -0.314195
vn 0.948683 -0.314195 0.035799
vn 0 -0.993573 0.113197
vn 0 0.113197 0.993573
vn -0.948683 0.035799 0.314195
vn -0.948683 0.314195 -0.035799
vn 0 0.113197 0.993573
vn 0.948683 0.314195 -0.035799
vn 0 -0.113197 -0.993573
vn -0.948683 -0.314195 0.035799
vn 0 -0.993573 0.113197
vn 0.948683 0.035799 0.314195
vn 0 0.993573 -0.113197
vn -0.948683 -0.035799 -0.314195
vn 0 -0.984816 0.173603
vn 0.948693 -0.311398 0.0549
vn 0 0.173603 0.984816
vn 0.948693 -0.0549 -0.311398
vn 0 -0.173603 -0.984816
vn 0 0.984816 -0.173603
vn -0.948693 0.311398 -0.0549
vn -0.948693 0.0549 0.311398
vn 0.948693 0.0549 0.311398
vn 0 0.984816 -0.173603
vn 0 -0.984816 0.173603
vn -0.948693 -0.0549 -0.311398
vn 0.948693 0.311398 -0.0549
vn 0 -0.173603 -0.984816
vn 0 0.173603 0.984816
vn -0.948693 -0.311398 0.0549
vn 0.707121 -0.385111 0.593017
vn 0.223611 0.673833 0.704235
vn -0.707121 -0.385111 0.593017
vn 0.223601 0.917404 0.329202
vn 0.707121 0.385111 -0.593017
vn -0.707121 0.385111 -0.593017
vn -0.223611 -0.673833 -0.704235
vn -0.223601 -0.917404 -0.329202
vn -0.223611 0.673833 0.704235
vn -0.707121 0.385111 -0.593017
vn 0.707121 -0.385111 0.593017
vn 0.223611 -0.673833 -0.704235
vn -0.223601 0.917404 0.329202
vn 0.707121 0.385111 -0.593017
vn -0.707121 -0.385111 0.593017
vn 0.223601 -0.917404 -0.329202
vn 0.707126 0.425516 -0.564721
vn -0.707096 0.425598 -0.564697
vn 0.223609 0.892237 0.392316
vn 0.2236 0.6231 0.7495
vn 0.707126 -0.425516 0.564721
vn -0.707096 -0.425598 0.564697
vn -0.223601 -0.892202 -0.392401
vn -0.2236 -0.6231 -0.7495
vn -0.707126 -0.425516 0.564721
vn -0.223609 0.892237 0.392316
vn 0.707126 0.425516 -0.564721
vn 0.223601 -0.892202 -0.392401
vn 0.707126 -0.425516 0.564721
vn -0.2236 0.6231 0.7495
vn -0.707126 0.425516 -0.564721
vn 0.2236 -0.6231 -0.7495
vn 0 -0.113197 -0.993573
vn 0 0.993573 -0.113197
vn 0.948683 -0.035799 -0.314195
vn 0.948683 -0.314195 0.035799
vn 0 -0.993573 0.113197
vn 0 0.113197 0.993573
vn -0.948683 0.035799 0.314195
vn -0.948683 0.314195 -0.035799
vn 0 0.113197 0.993573
vn 0.948683 0.314195 -0.035799
vn 0 -0.113197 -0.993573
vn -0.948683 -0.314195 0.035799
vn 0 -0.993573 0.113197
vn 0.948683 0.035799 0.314195
vn 0 0.993573 -0.113197
vn -0.948683 -0.035799 -0.314195
vn -0.919451 0.097905 0.380821
vn -0.919451 0.097905 0.380821
vn -0.919451 0.097905 0.380821
vn -0.919451 0.097905 0.380821
vn -0.380821 0.097905 0.919451
vn -0.380821 0.097905 0.919451
vn -0.380821 0.097905 0.919451
vn -0.380821 0.097905 0.919451
vn 0.380821 0.097905 0.919451
vn 0.380821 0.097905 0.919451
vn 0.380821 0.097905 0.919451
vn 0.380821 0.097905 0.919451
vn 0.919451 0.097905 0.380821
vn 0.919451 0.097905 0.380821
vn 0.919451 0.097905 0.380821
vn 0.919451 0.097905 0.380821
vn 0.919451 0.097905 -0.380821
vn 0.919451 0.097905 -0.380821
vn 0.919451 0.097905 -0.380821
vn 0.919451 0.097905 -0.380821
vn 0.380821 0.097905 -0.919451
vn 0.380821 0.097905 -0.919451
vn 0.380821 0.097905 -0.919451
vn 0.380821 0.097905 -0.919451
vn -0.380821 0.097905 -0.919451
vn -0.380821 0.097905 -0.919451
vn -0.380821 0.097905 -0.919451
vn -0.380821 0.097905 -0.919451
vn -0.919451 0.097905 -0.380821
vn -0.919451 0.097905 -0.380821
vn -0.919451 0.097905 -0.380821
vn -0.919451 0.097905 -0.380821
vn -0.67127 0.687069 0.278088
vn -0.67127 0.687069 0.278088
vn -0.67127 0.687069 0.278088
vn -0.278088 0.687069 0.67127
vn -0.278088 0.687069 0.67127
vn -0.278088 0.687069 0.67127
vn 0.278088 0.687069 0.67127
vn 0.278088 0.687069 0.67127
vn 0.278088 0.687069 0.67127
vn 0.67127 0.687069 0.278088
vn 0.67127 0.687069 0.278088
vn 0.67127 0.687069 0.278088
vn 0.67127 0.687069 -0.278088
vn 0.67127 0.687069 -0.278088
vn 0.67127 0.687069 -0.278088
vn 0.278088 0.687069 -0.67127
vn 0.278088 0.687069 -0.67127
vn 0.278088 0.687069 -0.67127
vn -0.278088 0.687069 -0.67127
vn -0.278088 0.687069 -0.67127
vn -0.278088 0.687069 -0.67127
vn -0.67127 0.687069 -0.278088
vn -0.67127 0.687069 -0.278088
vn -0.67127 0.687069 -0.278088
vt 0.9995 0.9995
vt 0.171 0.8976
vt 0.0005 0.9995
vt 0.829 0.8976
vt 0.3416 0.7957
vt 0.6584 0.7957
vt 0.171 0.8976
vt 0.829 0.8976
vt 0.171 0.1024
vt 0.0005 0.0005
vt 0.3416 0.2043
vt 0.171 0.1024
vt 0.829 0.1024
vt 0.9995 0.0005
vt 0.6584 0.2043
vt 0.829 0.1024
vt 0.9995 0.9995
vt 0.171 0.8976
vt 0.0005 0.9995
vt 0.829 0.8976
vt 0.3416 0.7957
vt 0.6584 0.7957
vt 0.171 0.8976
vt 0.829 0.8976
vt 0.171 0.1024
vt 0.0005 0.0005
vt 0.3416 0.2043
vt 0.171 0.1024
vt 0.829 0.1024
vt 0.9995 0.0005
vt 0.6584 0.2043
vt 0.829 0.1024
vt 0.9995 0.9995
vt 0.171 0.8976
vt 0.0005 0.9995
vt 0.829 0.8976
vt 0.3416 0.7957
vt 0.6584 0.7957
vt 0.171 0.8976
vt 0.829 0.8976
vt 0.171 0.1024
vt 0.0005 0.0005
vt 0.3416 0.2043
vt 0.171 0.1024
vt 0.829 0.1024
vt 0.9995 0.0005
vt 0.6584 0.2043
vt 0.829 0.1024
vt 0.9995 0.9995
vt 0.171 0.8976
vt 0.0005 0.9995
vt 0.829 0.8976
vt 0.3416 0.7957
vt 0.6584 0.7957
vt 0.171 0.8976
vt 0.829 0.8976
vt 0.171 0.1024
vt 0.0005 0.0005
vt 0.3416 0.2043
vt 0.171 0.1024
vt 0.829 0.1024
vt 0.9995 0.0005
vt 0.6584 0.2043
vt 0.829 0.1024
vt 0.9995 0.9995
vt 0.171 0.8976
vt 0.0005 0.9995
vt 0.829 0.8976
vt 0.3416 0.7957
vt 0.6584 0.7957
vt 0.171 0.8976
vt 0.829 0.8976
vt 0.171 0.1024
vt 0.0005 0.0005
vt 0.3416 0.2043
vt 0.171 0.1024
vt 0.829 0.1024
vt 0.9995 0.0005
vt 0.6584 0.2043
vt 0.829 0.1024
vt 0.9995 0.9995
vt 0.171 0.8976
vt 0.0005 0.9995
vt 0.829 0.8976
vt 0.3416 0.7957
vt 0.6584 0.7957
vt 0.171 0.8976
vt 0.829 0.8976
vt 0.171 0.1024
vt 0.0005 0.0005
vt 0.3416 0.2043
vt 0.171 0.1024
vt 0.829 0.1024
vt 0.9995 0.0005
vt 0.6584 0.2043
vt 0.829 0.1024
vt 0.9995 0.9995
vt 0.171 0.8976
vt 0.0005 0.9995
vt 0.829 0.8976
vt 0.3416 0.7957
vt 0.6584 0.7957
vt 0.171 0.8976
vt 0.829 0.8976
vt 0.171 0.1024
vt 0.0005 0.0005
vt 0.3416 0.2043
vt 0.171 0.1024
vt 0.829 0.1024
vt 0.9995 0.0005
vt 0.6584 0.2043
vt 0.829 0.1024
vt 0.9995 0.9995
vt 0.171 0.8976
vt 0.0005 0.9995
vt 0.829 0.8976
vt 0.3416 0.7957
vt 0.6584 0.7957
vt 0.171 0.8976
vt 0.829 0.8976
vt 0.171 0.1024
vt 0.0005 0.0005
vt 0.3416 0.2043
vt 0.171 0.1024
vt 0.829 0.1024
vt 0.9995 0.0005
vt 0.6584 0.2043
vt 0.829 0.1024
vt 0.9995 0.9995
vt 0.171 0.8976
vt 0.0005 0.9995
vt 0.829 0.8976
vt 0.3416 0.7957
vt 0.6584 0.7957
vt 0.171 0.8976
vt 0.829 0.8976
vt 0.171 0.1024
vt 0.0005 0.0005
vt 0.3416 0.2043
vt 0.171 0.1024
vt 0.829 0.1024
vt 0.9995 0.0005
vt 0.6584 0.2043
vt 0.829 0.1024
vt 0.9995 0.9995
vt 0.171 0.8976
vt 0.0005 0.9995
vt 0.829 0.8976
vt 0.3416 0.7957
vt 0.6584 0.7957
vt 0.171 0.8976
vt 0.829 0.8976
vt 0.171 0.1024
vt 0.0005 0.0005
vt 0.3416 0.2043
vt 0.171 0.1024
vt 0.829 0.1024
vt 0.9995 0.0005
vt 0.6584 0.2043
vt 0.829 0.1024
vt 0.9995 0.9995
vt 0.171 0.8976
vt 0.0005 0.9995
vt 0.829 0.8976
vt 0.3416 0.7957
vt 0.6584 0.7957
vt 0.171 0.8976
vt 0.829 0.8976
vt 0.171 0.1024
vt 0.0005 0.0005
vt 0.3416 0.2043
vt 0.171 0.1024
vt 0.829 0.1024
vt 0.9995 0.0005
vt 0.6584 0.2043
vt 0.829 0.1024
vt 0.9995 0.9995
vt 0.0005 0.9995
vt 0.171 0.8976
vt 0.829 0.8976
vt 0.3416 0.7957
vt 0.6584 0.7957
vt 0.171 0.8976
vt 0.829 0.8976
vt 0.0005 0.0005
vt 0.171 0.1024
vt 0.3416 0.2043
vt 0.171 0.1024
vt 0.9995 0.0005
vt 0.829 0.1024
vt 0.6584 0.2043
vt 0.829 0.1024
vt 0.9995 0.9995
vt 0.0005 0.9995
vt 0.171 0.8976
vt 0.829 0.8976
vt 0.3416 0.7957
vt 0.6584 0.7957
vt 0.171 0.8976
vt 0.829 0.8976
vt 0.0005 0.0005
vt 0.171 0.1024
vt 0.3416 0.2043
vt 0.171 0.1024
vt 0.9995 0.0005
vt 0.829 0.1024
vt 0.6584 0.2043
vt 0.829 0.1024
vt 0.9995 0.9995
vt 0.171 0.8976
vt 0.0005 0.9995
vt 0.829 0.8976
vt 0.3416 0.7957
vt 0.6584 0.7957
vt 0.171 0.8976
vt 0.829 0.8976
vt 0.171 0.1024
vt 0.0005 0.0005
vt 0.3416 0.2043
vt 0.171 0.1024
vt 0.829 0.1024
vt 0.9995 0.0005
vt 0.6584 0.2043
vt 0.829 0.1024
vt 0.9995 0.9995
vt 0.171 0.8976
vt 0.0005 0.9995
vt 0.829 0.8976
vt 0.3416 0.7957
vt 0.6584 0.7957
vt 0.171 0.8976
vt 0.829 0.8976
vt 0.171 0.1024
vt 0.0005 0.0005
vt 0.3416 0.2043
vt 0.171 0.1024
vt 0.829 0.1024
vt 0.9995 0.0005
vt 0.6584 0.2043
vt 0.829 0.1024
vt 0.9995 0.9995
vt 0.171 0.8976
vt 0.0005 0.9995
vt 0.829 0.8976
vt 0.3416 0.7957
vt 0.6584 0.7957
vt 0.171 0.8976
vt 0.829 0.8976
vt 0.171 0.1024
vt 0.0005 0.0005
vt 0.3416 0.2043
vt 0.171 0.1024
vt 0.829 0.1024
vt 0.9995 0.0005
vt 0.6584 0.2043
vt 0.829 0.1024
vt 0.9995 0.9995
vt 0.171 0.8976
vt 0.0005 0.9995
vt 0.829 0.8976
vt 0.3416 0.7957
vt 0.6584 0.7957
vt 0.171 0.8976
vt 0.829 0.8976
vt 0.171 0.1024
vt 0.0005 0.0005
vt 0.3416 0.2043
vt 0.171 0.1024
vt 0.829 0.1024
vt 0.9995 0.0005
vt 0.6584 0.2043
vt 0.829 0.1024
vt 0.9995 0.9995
vt 0.0005 0.9995
vt 0.171 0.8976
vt 0.829 0.8976
vt 0.3416 0.7957
vt 0.6584 0.7957
vt 0.171 0.8976
vt 0.829 0.8976
vt 0.0005 0.0005
vt 0.171 0.1024
vt 0.3416 0.2043
vt 0.171 0.1024
vt 0.9995 0.0005
vt 0.829 0.1024
vt 0.6584 0.2043
vt 0.829 0.1024
vt 0.9995 0.9995
vt 0.171 0.8976
vt 0.0005 0.9995
vt 0.829 0.8976
vt 0.3416 0.7957
vt 0.6584 0.7957
vt 0.171 0.8976
vt 0.829 0.8976
vt 0.171 0.1024
vt 0.0005 0.0005
vt 0.3416 0.2043
vt 0.171 0.1024
vt 0.829 0.1024
vt 0.9995 0.0005
vt 0.6584 0.2043
vt 0.829 0.1024
vt 0.9995 0.9995
vt 0.171 0.8976
vt 0.0005 0.9995
vt 0.829 0.8976
vt 0.3416 0.7957
vt 0.6584 0.7957
vt 0.171 0.8976
vt 0.829 0.8976
vt 0.171 0.1024
vt 0.0005 0.0005
vt 0.3416 0.2043
vt 0.171 0.1024
vt 0.829 0.1024
vt 0.9995 0.0005
vt 0.6584 0.2043
vt 0.829 0.1024
vt 0.9995 0.9995
vt 0.171 0.8976
vt 0.0005 0.9995
vt 0.829 0.8976
vt 0.3416 0.7957
vt 0.6584 0.7957
vt 0.171 0.8976
vt 0.829 0.8976
vt 0.171 0.1024
vt 0.0005 0.0005
vt 0.3416 0.2043
vt 0.171 0.1024
vt 0.829 0.1024
vt 0.9995 0.0005
vt 0.6584 0.2043
vt 0.829 0.1024
vt 0.9995 0.9995
vt 0.0005 0.9995
vt 0.171 0.8976
vt 0.829 0.8976
vt 0.3416 0.7957
vt 0.6584 0.7957
vt 0.171 0.8976
vt 0.829 0.8976
vt 0.0005 0.0005
vt 0.171 0.1024
vt 0.3416 0.2043
vt 0.171 0.1024
vt 0.9995 0.0005
vt 0.829 0.1024
vt 0.6584 0.2043
vt 0.829 0.1024
vt 0.9995 0.9995
vt 0.0005 0.9995
vt 0.171 0.8976
vt 0.829 0.8976
vt 0.3416 0.7957
vt 0.6584 0.7957
vt 0.171 0.8976
vt 0.829 0.8976
vt 0.0005 0.0005
vt 0.171 0.1024
vt 0.3416 0.2043
vt 0.171 0.1024
vt 0.9995 0.0005
vt 0.829 0.1024
vt 0.6584 0.2043
vt 0.829 0.1024
vt 0.9995 0.9995
vt 0.171 0.8976
vt 0.0005 0.9995
vt 0.829 0.8976
vt 0.3416 0.7957
vt 0.6584 0.7957
vt 0.171 0.8976
vt 0.829 0.8976
vt 0.171 0.1024
vt 0.0005 0.0005
vt 0.3416 0.2043
vt 0.171 0.1024
vt 0.829 0.1024
vt 0.9995 0.0005
vt 0.6584 0.2043
vt 0.829 0.1024
vt 0.9995 0.9995
vt 0.171 0.8976
vt 0.0005 0.9995
vt 0.829 0.8976
vt 0.3416 0.7957
vt 0.6584 0.7957
vt 0.171 0.8976
vt 0.829 0.8976
vt 0.171 0.1024
vt 0.0005 0.0005
vt 0.3416 0.2043
vt 0.171 0.1024
vt 0.829 0.1024
vt 0.9995 0.0005
vt 0.6584 0.2043
vt 0.829 0.1024
vt 0.9995 0.9995
vt 0.0005 0.9995
vt 0.171 0.8976
vt 0.829 0.8976
vt 0.3416 0.7957
vt 0.6584 0.7957
vt 0.171 0.8976
vt 0.829 0.8976
vt 0.0005 0.0005
vt 0.171 0.1024
vt 0.3416 0.2043
vt 0.171 0.1024
vt 0.9995 0.0005
vt 0.829 0.1024
vt 0.6584 0.2043
vt 0.829 0.1024
vt 0.9995 0.9995
vt 0.0005 0.9995
vt 0.171 0.8976
vt 0.829 0.8976
vt 0.3416 0.7957
vt 0.6584 0.7957
vt 0.171 0.8976
vt 0.829 0.8976
vt 0.0005 0.0005
vt 0.171 0.1024
vt 0.3416 0.2043
vt 0.171 0.1024
vt 0.9995 0.0005
vt 0.829 0.1024
vt 0.6584 0.2043
vt 0.829 0.1024
vt 0 0
vt 1 1
vt 0 1
vt 1 0
vt 0 0
vt 1 1
vt 0 1
vt 1 0
vt 0 0
vt 1 1
vt 0 1
vt 1 0
vt 0 0
vt 1 1
vt 0 1
vt 1 0
vt 0 0
vt 1 1
vt 0 1
vt 1 0
vt 0 0
vt 1 1
vt 0 1
vt 1 0
vt 0 0
vt 1 1
vt 0 1
vt 1 0
vt 0 0
vt 1 1
vt 0 1
vt 1 0
vt 0 0
vt 1 0
vt 1 1
vt 0 0
vt 1 0
vt 1 1
vt 0 0
vt 1 0
vt 1 1
vt 0 0
vt 1 0
vt 1 1
vt 0 0
vt 1 0
vt 1 1
vt 0 0
vt 1 0
vt 1 1
vt 0 0
vt 1 0
vt 1 1
vt 0 0
vt 1 0
vt 1 1
f 1/1/1 3/3/3 2/2/2
f 1/1/1 2/2/2 4/4/4
f 4/4/4 2/2/2 5/5/5
f 4/4/4 5/5/5 6/6/6
f 6/6/6 5/5/5 7/7/7
f 6/6/6 7/7/7 8/8/8
f 8/8/8 7/7/7 3/3/3
f 8/8/8 3/3/3 1/1/1
f 3/3/3 10/10/10 9/9/9
f 3/3/3 9/9/9 2/2/2
f 2/2/2 9/9/9 11/11/11
f 2/2/2 11/11/11 5/5/5
f 5/5/5 11/11/11 12/12/12
f 5/5/5 12/12/12 7/7/7
f 7/7/7 12/12/12 10/10/10
f 7/7/7 10/10/10 3/3/3
f 10/10/10 14/14/14 13/13/13
f 10/10/10 13/13/13 9/9/9
f 9/9/9 13/13/13 15/15/15
f 9/9/9 15/15/15 11/11/11
f 11/11/11 15/15/15 16/16/16
f 11/11/11 16/16/16 12/12/12
f 12/12/12 16/16/16 14/14/14
f 12/12/12 14/14/14 10/10/10
f 14/14/14 1/1/1 4/4/4
f 14/14/14 4/4/4 13/13/13
f 13/13/13 4/4/4 6/6/6
f 13/13/13 6/6/6 15/15/15
f 15/15/15 6/6/6 8/8/8
f 15/15/15 8/8/8 16/16/16
f 16/16/16 8/8/8 1/1/1
f 16/16/16 1/1/1 14/14/14
f 17/17/17 19/19/19 18/18/18
f 17/17/17 18/18/18 20/20/20
f 20/20/20 18/18/18 21/21/21
f 20/20/20 21/21/21 22/22/22
f 22/22/22 21/21/21 23/23/23
f 22/22/22 23/23/23 24/24/24
f 24/24/24 23/23/23 19/19/19
f 24/24/24 19/19/19 17/17/17
f 19/19/19 26/26/26 25/25/25
f 19/19/19 25/25/25 18/18/18
f 18/18/18 25/25/25 27/27/27
f 18/18/18 27/27/27 21/21/21
f 21/21/21 27/27/27 28/28/28
f 21/21/21 28/28/28 23/23/23
f 23/23/23 28/28/28 26/26/26
f 23/23/23 26/26/26 19/19/19
f 26/26/26 30/30/30 29/29/29
f 26/26/26 29/29/29 25/25/25
f 25/25/25 29/29/29 31/31/31
f 25/25/25 31/31/31 27/27/27
f 27/27/27 31/31/31 32/32/32
f 27/27/27 32/32/32 28/28/28
f 28/28/28 32/32/32 30/30/30
f 28/28/28 30/30/30 26/26/26
f 30/30/30 17/17/17 20/20/20
f 30/30/30 20/20/20 29/29/29
f 29/29/29 20/20/20 22/22/22
f 29/29/29 22/22/22 31/31/31
f 31/31/31 22/22/22 24/24/24
f 31/31/31 24/24/24 32/32/32
f 32/32/32 24/24/24 17/17/17
f 32/32/32 17/17/17 30/30/30
f 33/33/33 35/35/35 34/34/34
f 33/33/33 34/34/34 36/36/36
f 36/36/36 34/34/34 37/37/37
f 36/36/36 37/37/37 38/38/38
f 38/38/38 37/37/37 39/39/39
f 38/38/38 39/39/39 40/40/40
f 40/40/40 39/39/39 35/35/35
f 40/40/40 35/35/35 33/33/33
f 35/35/35 42/42/42 41/41/41
f 35/35/35 41/41/41 34/34/34
f 34/34/34 41/41/41 43/43/43
f 34/34/34 43/43/43 37/37/37
f 37/37/37 43/43/43 44/44/44
f 37/37/37 44/44/44 39/39/39
f 39/39/39 44/44/44 42/42/42
f 39/39/39 42/42/42 35/35/35
f 42/42/42 46/46/46 45/45/45
f 42/42/42 45/45/45 41/41/41
f 41/41/41 45/45/45 47/47/47
f 41/41/41 47/47/47 43/43/43
f 43/43/43 47/47/47 48/48/48
f 43/43/43 48/48/48 44/44/44
f 44/44/44 48/48/48 46/46/46
f 44/44/44 46/46/46 42/42/42
f 46/46/46 33/33/33 36/36/36
f 46/46/46 36/36/36 45/45/45
f 45/45/45 36/36/36 38/38/38
f 45/45/45 38/38/38 47/47/47
f 47/47/47 38/38/38 40/40/40
f 47/47/47 40/40/40 48/48/48
f 48/48/48 40/40/40 33/33/33
f 48/48/48 33/33/33 46/46/46
f 49/49/49 51/51/51 50/50/50
f 49/49/49 50/50/50 52/52/52
f 52/52/52 50/50/50 53/53/53
f 52/52/52 53/53/53 54/54/54
f 54/54/54 53/53/53 55/55/55
f 54/54/54 55/55/55 56/56/56
f 56/56/56 55/55/55 51/51/51
f 56/56/56 51/51/51 49/49/49
f 51/51/51 58/58/58 57/57/57
f 51/51/51 57/57/57 50/50/50
f 50/50/50 57/57/57 59/59/59
f 50/50/50 59/59/59 53/53/53
f 53/53/53 59/59/59 60/60/60
f 53/53/53 60/60/60 55/55/55
f 55/55/55 60/60/60 58/58/58
f 55/55/55 58/58/58 51/51/51
f 58/58/58 62/62/62 61/61/61
f 58/58/58 61/61/61 57/57/57
f 57/57/57 61/61/61 63/63/63
f 57/57/57 63/63/63 59/59/59
f 59/59/59 63/63/63 64/64/64
f 59/59/59 64/64/64 60/60/60
f 60/60/60 64/64/64 62/62/62
f 60/60/60 62/62/62 58/58/58
f 62/62/62 49/49/49 52/52/52
f 62/62/62 52/52/52 61/61/61
f 61/61/61 52/52/52 54/54/54
f 61/61/61 54/54/54 63/63/63
f 63/63/63 54/54/54 56/56/56
f 63/63/63 56/56/56 64/64/64
f 64/64/64 56/56/56 49/49/49
f 64/64/64 49/49/49 62/62/62
f 65/65/65 67/67/67 66/66/66
f 65/65/65 66/66/66 68/68/68
f 68/68/68 66/66/66 69/69/69
f 68/68/68 69/69/69 70/70/70
f 70/70/70 69/69/69 71/71/71
f 70/70/70 71/71/71 72/72/72
f 72/72/72 71/71/71 67/67/67
f 72/72/72 67/67/67 65/65/65
f 67/67/67 74/74/74 73/73/73
f 67/67/67 73/73/73 66/66/66
f 66/66/66 73/73/73 75/75/75
f 66/66/66 75/75/75 69/69/69
f 69/69/69 75/75/75 76/76/76
f 69/69/69 76/76/76 71/71/71
f 71/71/71 76/76/76 74/74/74
f 71/71/71 74/74/74 67/67/67
f 74/74/74 78/78/78 77/77/77
f 74/74/74 77/77/77 73/73/73
f 73/73/73 77/77/77 79/79/79
f 73/73/73 79/79/79 75/75/75
f 75/75/75 79/79/79 80/80/80
f 75/75/75 80/80/80 76/76/76
f 76/76/76 80/80/80 78/78/78
f 76/76/76 78/78/78 74/74/74
f 78/78/78 65/65/65 68/68/68
f 78/78/78 68/68/68 77/77/77
f 77/77/77 68/68/68 70/70/70
f 77/77/77 70/70/70 79/79/79
f 79/79/79 70/70/70 72/72/72
f 79/79/79 72/72/72 80/80/80
f 80/80/80 72/72/72 65/65/65
f 80/80/80 65/65/65 78/78/78
f 81/81/81 83/83/83 82/82/82
f 81/81/81 82/82/82 84/84/84
f 84/84/84 82/82/82 85/85/85
f 84/84/84 85/85/85 86/86/86
f 86/86/86 85/85/85 87/87/87
f 86/86/86 87/87/87 88/88/88
f 88/88/88 87/87/87 83/83/83
f 88/88/88 83/83/83 81/81/81
f 83/83/83 90/90/90 89/89/89
f 83/83/83 89/89/89 82/82/82
f 82/82/82 89/89/89 91/91/91
f 82/82/82 91/91/91 85/85/85
f 85/85/85 91/91/91 92/92/92
f 85/85/85 92/92/92 87/87/87
f 87/87/87 92/92/92 90/90/90
f 87/87/87 90/90/90 83/83/83
f 90/90/90 94/94/94 93/93/93
f 90/90/90 93/93/93 89/89/89
f 89/89/89 93/93/93 95/95/95
f 89/89/89 95/95/95 91/91/91
f 91/91/91 95/95/95 96/96/96
f 91/91/91 96/96/96 92/92/92
f 92/92/92 96/96/96 94/94/94
f 92/92/92 94/94/94 90/90/90
f 94/94/94 81/81/81 84/84/84
f 94/94/94 84/84/84 93/93/93
f 93/93/93 84/84/84 86/86/86
f 93/93/93 86/86/86 95/95/95
f 95/95/95 86/86/86 88/88/88
f 95/95/95 88/88/88 96/96/96
f 96/96/96 88/88/88 81/81/81
f 96/96/96 81/81/81 94/94/94
f 97/97/97 99/99/99 98/98/98
f 97/97/97 98/98/98 100/100/100
f 100/100/100 98/98/98 101/101/101
f 100/100/100 101/101/101 102/102/102
f 102/102/102 101/101/101 103/103/103
f 102/102/102 103/103/103 104/104/104
f 104/104/104 103/103/103 99/99/99
f 104/104/104 99/99/99 97/97/97
f 99/99/99 106/106/106 105/105/105
f 99/99/99 105/105/105 98/98/98
f 98/98/98 105/105/105 107/107/107
f 98/98/98 107/107/107 101/101/101
f 101/101/101 107/107/107 108/108/108
f 101/101/101 108/108/108 103/103/103
f 103/103/103 108/108/108 106/106/106
f 103/103/103 106/106/106 99/99/99
f 106/106/106 110/110/110 109/109/109
f 106/106/106 109/109/109 105/105/105
f 105/105/105 109/109/109 111/111/111
f 105/105/105 111/111/111 107/107/107
f 107/107/107 111/111/111 112/112/112
f 107/107/107 112/112/112 108/108/108
f 108/108/108 112/112/112 110/110/110
f 108/108/108 110/110/110 106/106/106
f 110/110/110 97/97/97 100/100/100
f 110/110/110 100/100/100 109/109/109
f 109/109/109 100/100/100 102/102/102
f 109/109/109 102/102/102 111/111/111
f 111/111/111 102/102/102 104/104/104
f 111/111/111 104/104/104 112/112/112
f 112/112/112 104/104/104 97/97/97
f 112/112/112 97/97/97 110/110/110
f 113/113/113 115/115/115 114/114/114
f 113/113/113 114/114/114 116/116/116
f 116/116/116 114/114/114 117/117/117
f 116/116/116 117/117/117 118/118/118
f 118/118/118 117/117/117 119/119/119
f 118/118/118 119/119/119 120/120/120
f 120/120/120 119/119/119 115/115/115
f 120/120/120 115/115/115 113/113/113
f 115/115/115 122/122/122 121/121/121
f 115/115/115 121/121/121 114/114/114
f 114/114/114 121/121/121 123/123/123
f 114/114/114 123/123/123 117/117/117
f 117/117/117 123/123/123 124/124/124
f 117/117/117 124/124/124 119/119/119
f 119/119/119 124/124/124 122/122/122
f 119/119/119 122/122/122 115/115/115
f 122/122/122 126/126/126 125/125/125
f 122/122/122 125/125/125 121/121/121
f 121/121/121 125/125/125 127/127/127
f 121/121/121 127/127/127 123/123/123
f 123/123/123 127/127/127 128/128/128
f 123/123/123 128/128/128 124/124/124
f 124/124/124 128/128/128 126/126/126
f 124/124/124 126/126/126 122/122/122
f 126/126/126 113/113/113 116/116/116
f 126/126/126 116/116/116 125/125/125
f 125/125/125 116/116/116 118/118/118
f 125/125/125 118/118/118 127/127/127
f 127/127/127 118/118/118 120/120/120
f 127/127/127 120/120/120 128/128/128
f 128/128/128 120/120/120 113/113/113
f 128/128/128 113/113/113 126/126/126
f 129/129/129 131/131/131 130/130/130
f 129/129/129 130/130/130 132/132/132
f 132/132/132 130/130/130 133/133/133
f 132/132/132 133/133/133 134/134/134
f 134/134/134 133/133/133 135/135/135
f 134/134/134 135/135/135 136/136/136
f 136/136/136 135/135/135 131/131/131
f 136/136/136 131/131/131 129/129/129
f 131/131/131 138/138/138 137/137/137
f 131/131/131 137/137/137 130/130/130
f 130/130/130 137/137/137 139/139/139
f 130/130/130 139/139/139 133/133/133
f 133/133/133 139/139/139 140/140/140
f 133/133/133 140/140/140 135/135/135
f 135/135/135 140/140/140 138/138/138
f 135/135/135 138/138/138 131/131/131
f 138/138/138 142/142/142 141/141/141
f 138/138/138 141/141/141 137/137/137
f 137/137/137 141/141/141 143/143/143
f 137/137/137 143/143/143 139/139/139
f 139/139/139 143/143/143 144/144/144
f 139/139/139 144/144/144 140/140/140
f 140/140/140 144/144/144 142/142/142
f 140/140/140 142/142/142 138/138/138
f 142/142/142 129/129/129 132/132/132
f 142/142/142 132/132/132 141/141/141
f 141/141/141 132/132/132 134/134/134
f 141/141/141 134/134/134 143/143/143
f 143/143/143 134/134/134 136/136/136
f 143/143/143 136/136/136 144/144/144
f 144/144/144 136/136/136 129/129/129
f 144/144/144 129/129/129 142/142/142
f 145/145/145 147/147/147 146/146/146
f 145/145/145 146/146/146 148/148/148
f 148/148/148 146/146/146 149/149/149
f 148/148/148 149/149/149 150/150/150
f 150/150/150 149/149/149 151/151/151
f 150/150/150 151/151/151 152/152/152
f 152/152/152 151/151/151 147/147/147
f 152/152/152 147/147/147 145/145/145
f 147/147/147 154/154/154 153/153/153
f 147/147/147 153/153/153 146/146/146
f 146/146/146 153/153/153 155/155/155
f 146/146/146 155/155/155 149/149/149
f 149/149/149 155/155/155 156/156/156
f 149/149/149 156/156/156 151/151/151
f 151/151/151 156/156/156 154/154/154
f 151/151/151 154/154/154 147/147/147
f 154/154/154 158/158/158 157/157/157
f 154/154/154 157/157/157 153/153/153
f 153/153/153 157/157/157 159/159/159
f 153/153/153 159/159/159 155/155/155
f 155/155/155 159/159/159 160/160/160
f 155/155/155 160/160/160 156/156/156
f 156/156/156 160/160/160 158/158/158
f 156/156/156 158/158/158 154/154/154
f 158/158/158 145/145/145 148/148/148
f 158/158/158 148/148/148 157/157/157
f 157/157/157 148/148/148 150/150/150
f 157/157/157 150/150/150 159/159/159
f 159/159/159 150/150/150 152/152/152
f 159/159/159 152/152/152 160/160/160
f 160/160/160 152/152/152 145/145/145
f 160/160/160 145/145/145 158/158/158
f 161/161/161 163/163/163 162/162/162
f 161/161/161 162/162/162 164/164/164
f 164/164/164 162/162/162 165/165/165
f 164/164/164 165/165/165 166/166/166
f 166/166/166 165/165/165 167/167/167
f 166/166/166 167/167/167 168/168/168
f 168/168/168 167/167/167 163/163/163
f 168/168/168 163/163/163 161/161/161
f 163/163/163 170/170/170 169/169/169
f 163/163/163 169/169/169 162/162/162
f 162/162/162 169/169/169 171/171/171
f 162/162/162 171/171/171 165/165/165
f 165/165/165 171/171/171 172/172/172
f 165/165/165 172/172/172 167/167/167
f 167/167/167 172/172/172 170/170/170
f 167/167/167 170/170/170 163/163/163
f 170/170/170 174/174/174 173/173/173
f 170/170/170 173/173/173 169/169/169
f 169/169/169 173/173/173 175/175/175
f 169/169/169 175/175/175 171/171/171
f 171/171/171 175/175/175 176/176/176
f 171/171/171 176/176/176 172/172/172
f 172/172/172 176/176/176 174/174/174
f 172/172/172 174/174/174 170/170/170
f 174/174/174 161/161/161 164/164/164
f 174/174/174 164/164/164 173/173/173
f 173/173/173 164/164/164 166/166/166
f 173/173/173 166/166/166 175/175/175
f 175/175/175 166/166/166 168/168/168
f 175/175/175 168/168/168 176/176/176
f 176/176/176 168/168/168 161/161/161
f 176/176/176 161/161/161 174/174/174
f 177/177/177 179/179/179 178/178/178
f 177/177/177 180/180/180 179/179/179
f 180/180/180 181/181/181 179/179/179
f 180/180/180 182/182/182 181/181/181
f 182/182/182 183/183/183 181/181/181
f 182/182/182 184/184/184 183/183/183
f 184/184/184 178/178/178 183/183/183
f 184/184/184 177/177/177 178/178/178
f 178/178/178 186/186/186 185/185/185
f 178/178/178 179/179/179 186/186/186
f 179/179/179 187/187/187 186/186/186
f 179/179/179 181/181/181 187/187/187
f 181/181/181 188/188/188 187/187/187
f 181/181/181 183/183/183 188/188/188
f 183/183/183 185/185/185 188/188/188
f 183/183/183 178/178/178 185/185/185
f 185/185/185 190/190/190 189/189/189
f 185/185/185 186/186/186 190/190/190
f 186/186/186 191/191/191 190/190/190
f 186/186/186 187/187/187 191/191/191
f 187/187/187 192/192/192 191/191/191
f 187/187/187 188/188/188 192/192/192
f 188/188/188 189/189/189 192/192/192
f 188/188/188 185/185/185 189/189/189
f 189/189/189 180/180/180 177/177/177
f 189/189/189 190/190/190 180/180/180
f 190/190/190 182/182/182 180/180/180
f 190/190/190 191/191/191 182/182/182
f 191/191/191 184/184/184 182/182/182
f 191/191/191 192/192/192 184/184/184
f 192/192/192 177/177/177 184/184/184
f 192/192/192 189/189/189 177/177/177
f 193/193/193 195/195/195 194/194/194
f 193/193/193 196/196/196 195/195/195
f 196/196/196 197/197/197 195/195/195
f 196/196/196 198/198/198 197/197/197
f 198/198/198 199/199/199 197/197/197
f 198/198/198 200/200/200 199/199/199
f 200/200/200 194/194/194 199/199/199
f 200/200/200 193/193/193 194/194/194
f 194/194/194 202/202/202 201/201/201
f 194/194/194 195/195/195 202/202/202
f 195/195/195 203/203/203 202/202/202
f 195/195/195 197/197/197 203/203/203
f 197/197/197 204/204/204 203/203/203
f 197/197/197 199/199/199 204/204/204
f 199/199/199 201/201/201 204/204/204
f 199/199/199 194/194/194 201/201/201
f 201/201/201 206/206/206 205/205/205
f 201/201/201 202/202/202 206/206/206
f 202/202/202 207/207/207 206/206/206
f 202/202/202 203/203/203 207/207/207
f 203/203/203 208/208/208 207/207/207
f 203/203/203 204/204/204 208/208/208
f 204/204/204 205/205/205 208/208/208
f 204/204/204 201/201/201 205/205/205
f 205/205/205 196/196/196 193/193/193
f 205/205/205 206/206/206 196/196/196
f 206/206/206 198/198/198 196/196/196
f 206/206/206 207/207/207 198/198/198
f 207/207/207 200/200/200 198/198/198
f 207/207/207 208/208/208 200/200/200
f 208/208/208 193/193/193 200/200/200
f 208/208/208 205/205/205 193/193/193
f 209/209/209 211/211/211 210/210/210
f 209/209/209 210/210/210 212/212/212
f 212/212/212 210/210/210 213/213/213
f 212/212/212 213/213/213 214/214/214
f 214/214/214 213/213/213 215/215/215
f 214/214/214 215/215/215 216/216/216
f 216/216/216 215/215/215 211/211/211
f 216/216/216 211/211/211 209/209/209
f 211/211/211 218/218/218 217/217/217
f 211/211/211 217/217/217 210/210/210
f 210/210/210 217/217/217 219/219/219
f 210/210/210 219/219/219 213/213/213
f 213/213/213 219/219/219 220/220/220
f 213/213/213 220/220/220 215/215/215
f 215/215/215 220/220/220 218/218/218
f 215/215/215 218/218/218 211/211/211
f 218/218/218 222/222/222 221/221/221
f 218/218/218 221/221/221 217/217/217
f 217/217/217 221/221/221 223/223/223
f 217/217/217 223/223/223 219/219/219
f 219/219/219 223/223/223 224/224/224
f 219/219/219 224/224/224 220/220/220
f 220/220/220 224/224/224 222/222/222
f 220/220/220 222/222/222 218/218/218
f 222/222/222 209/209/209 212/212/212
f 222/222/222 212/212/212 221/221/221
f 221/221/221 212/212/212 214/214/214
f 221/221/221 214/214/214 223/223/223
f 223/223/223 214/214/214 216/216/216
f 223/223/223 216/216/216 224/224/224
f 224/224/224 216/216/216 209/209/209
f 224/224/224 209/209/209 222/222/222
f 225/225/225 227/227/227 226/226/226
f 225/225/225 226/226/226 228/228/228
f 228/228/228 226/226/226 229/229/229
f 228/228/228 229/229/229 230/230/230
f 230/230/230 229/229/229 231/231/231
f 230/230/230 231/231/231 232/232/232
f 232/232/232 231/231/231 227/227/227
f 232/232/232 227/227/227 225/225/225
f 227/227/227 234/234/234 233/233/233
f 227/227/227 233/233/233 226/226/226
f 226/226/226 233/233/233 235/235/235
f 226/226/226 235/235/235 229/229/229
f 229/229/229 235/235/235 236/236/236
f 229/229/229 236/236/236 231/231/231
f 231/231/231 236/236/236 234/234/234
f 231/231/231 234/234/234 227/227/227
f 234/234/234 238/238/238 237/237/237
f 234/234/234 237/237/237 233/233/233
f 233/233/233 237/237/237 239/239/239
f 233/233/233 239/239/239 235/235/235
f 235/235/235 239/239/239 240/240/240
f 235/235/235 240/240/240 236/236/236
f 236/236/236 240/240/240 238/238/238
f 236/236/236 238/238/238 234/234/234
f 238/238/238 225/225/225 228/228/228
f 238/238/238 228/228/228 237/237/237
f 237/237/237 228/228/228 230/230/230
f 237/237/237 230/230/230 239/239/239
f 239/239/239 230/230/230 232/232/232
f 239/239/239 232/232/232 240/240/240
f 240/240/240 232/232/232 225/225/225
f 240/240/240 225/225/225 238/238/238
f 241/241/241 243/243/243 242/242/242
f 241/241/241 242/242/242 244/244/244
f 244/244/244 242/242/242 245/245/245
f 244/244/244 245/245/245 246/246/246
f 246/246/246 245/245/245 247/247/247
f 246/246/246 247/247/247 248/248/248
f 248/248/248 247/247/247 243/243/243
f 248/248/248 243/243/243 241/241/241
f 243/243/243 250/250/250 249/249/249
f 243/243/243 249/249/249 242/242/242
f 242/242/242 249/249/249 251/251/251
f 242/242/242 251/251/251 245/245/245
f 245/245/245 251/251/251 252/252/252
f 245/245/245 252/252/252 247/247/247
f 247/247/247 252/252/252 250/250/250
f 247/247/247 250/250/250 243/243/243
f 250/250/250 254/254/254 253/253/253
f 250/250/250 253/253/253 249/249/249
f 249/249/249 253/253/253 255/255/255
f 249/249/249 255/255/255 251/251/251
f 251/251/251 255/255/255 256/256/256
f 251/251/251 256/256/256 252/252/252
f 252/252/252 256/256/256 254/254/254
f 252/252/252 254/254/254 250/250/250
f 254/254/254 241/241/241 244/244/244
f 254/254/254 244/244/244 253/253/253
f 253/253/253 244/244/244 246/246/246
f 253/253/253 246/246/246 255/255/255
f 255/255/255 246/246/246 248/248/248
f 255/255/255 248/248/248 256/256/256
f 256/256/256 248/248/248 241/241/241
f 256/256/256 241/241/241 254/254/254
f 257/257/257 259/259/259 258/258/258
f 257/257/257 258/258/258 260/260/260
f 260/260/260 258/258/258 261/261/261
f 260/260/260 261/261/261 262/262/262
f 262/262/262 261/261/261 263/263/263
f 262/262/262 263/263/263 264/264/264
f 264/264/264 263/263/263 259/259/259
f 264/264/264 259/259/259 257/257/257
f 259/259/259 266/266/266 265/265/265
f 259/259/259 265/265/265 258/258/258
f 258/258/258 265/265/265 267/267/267
f 258/258/258 267/267/267 261/261/261
f 261/261/261 267/267/267 268/268/268
f 261/261/261 268/268/268 263/263/263
f 263/263/263 268/268/268 266/266/266
f 263/263/263 266/266/266 259/259/259
f 266/266/266 270/270/270 269/269/269
f 266/266/266 269/269/269 265/265/265
f 265/265/265 269/269/269 271/271/271
f 265/265/265 271/271/271 267/267/267
f 267/267/267 271/271/271 272/272/272
f 267/267/267 272/272/272 268/268/268
f 268/268/268 272/272/272 270/270/270
f 268/268/268 270/270/270 266/266/266
f 270/270/270 257/257/257 260/260/260
f 270/270/270 260/260/260 269/269/269
f 269/269/269 260/260/260 262/262/262
f 269/269/269 262/262/262 271/271/271
f 271/271/271 262/262/262 264/264/264
f 271/271/271 264/264/264 272/272/272
f 272/272/272 264/264/264 257/257/257
f 272/272/272 257/257/257 270/270/270
f 273/273/273 275/275/275 274/274/274
f 273/273/273 276/276/276 275/275/275
f 276/276/276 277/277/277 275/275/275
f 276/276/276 278/278/278 277/277/277
f 278/278/278 279/279/279 277/277/277
f 278/278/278 280/280/280 279/279/279
f 280/280/280 274/274/274 279/279/279
f 280/280/280 273/273/273 274/274/274
f 274/274/274 282/282/282 281/281/281
f 274/274/274 275/275/275 282/282/282
f 275/275/275 283/283/283 282/282/282
f 275/275/275 277/277/277 283/283/283
f 277/277/277 284/284/284 283/283/283
f 277/277/277 279/279/279 284/284/284
f 279/279/279 281/281/281 284/284/284
f 279/279/279 274/274/274 281/281/281
f 281/281/281 286/286/286 285/285/285
f 281/281/281 282/282/282 286/286/286
f 282/282/282 287/287/287 286/286/286
f 282/282/282 283/283/283 287/287/287
f 283/283/283 288/288/288 287/287/287
f 283/283/283 284/284/284 288/288/288
f 284/284/284 285/285/285 288/288/288
f 284/284/284 281/281/281 285/285/285
f 285/285/285 276/276/276 273/273/273
f 285/285/285 286/286/286 276/276/276
f 286/286/286 278/278/278 276/276/276
f 286/286/286 287/287/287 278/278/278
f 287/287/287 280/280/280 278/278/278
f 287/287/287 288/288/288 280/280/280
f 288/288/288 273/273/273 280/280/280
f 288/288/288 285/285/285 273/273/273
f 289/289/289 291/291/291 290/290/290
f 289/289/289 290/290/290 292/292/292
f 292/292/292 290/290/290 293/293/293
f 292/292/292 293/293/293 294/294/294
f 294/294/294 293/293/293 295/295/295
f 294/294/294 295/295/295 296/296/296
f 296/296/296 295/295/295 291/291/291
f 296/296/296 291/291/291 289/289/289
f 291/291/291 298/298/298 297/297/297
f 291/291/291 297/297/297 290/290/290
f 290/290/290 297/297/297 299/299/299
f 290/290/290 299/299/299 293/293/293
f 293/293/293 299/299/299 300/300/300
f 293/293/293 300/300/300 295/295/295
f 295/295/295 300/300/300 298/298/298
f 295/295/295 298/298/298 291/291/291
f 298/298/298 302/302/302 301/301/301
f 298/298/298 301/301/301 297/297/297
f 297/297/297 301/301/301 303/303/303
f 297/297/297 303/303/303 299/299/299
f 299/299/299 303/303/303 304/304/304
f 299/299/299 304/304/304 300/300/300
f 300/300/300 304/304/304 302/302/302
f 300/300/300 302/302/302 298/298/298
f 302/302/302 289/289/289 292/292/292
f 302/302/302 292/292/292 301/301/301
f 301/301/301 292/292/292 294/294/294
f 301/301/301 294/294/294 303/303/303
f 303/303/303 294/294/294 296/296/296
f 303/303/303 296/296/296 304/304/304
f 304/304/304 296/296/296 289/289/289
f 304/304/304 289/289/289 302/302/302
f 305/305/305 307/307/307 306/306/306
f 305/305/305 306/306/306 308/308/308
f 308/308/308 306/306/306 309/309/309
f 308/308/308 309/309/309 310/310/310
f 310/310/310 309/309/309 311/311/311
f 310/310/310 311/311/311 312/312/312
f 312/312/312 311/311/311 307/307/307
f 312/312/312 307/307/307 305/305/305
f 307/307/307 314/314/314 313/313/313
f 307/307/307 313/313/313 306/306/306
f 306/306/306 313/313/313 315/315/315
f 306/306/306 315/315/315 309/309/309
f 309/309/309 315/315/315 316/316/316
f 309/309/309 316/316/316 311/311/311
f 311/311/311 316/316/316 314/314/314
f 311/311/311 314/314/314 307/307/307
f 314/314/314 318/318/318 317/317/317
f 314/314/314 317/317/317 313/313/313
f 313/313/313 317/317/317 319/319/319
f 313/313/313 319/319/319 315/315/315
f 315/315/315 319/319/319 320/320/320
f 315/315/315 320/320/320 316/316/316
f 316/316/316 320/320/320 318/318/318
f 316/316/316 318/318/318 314/314/314
f 318/318/318 305/305/305 308/308/308
f 318/318/318 308/308/308 317/317/317
f 317/317/317 308/308/308 310/310/310
f 317/317/317 310/310/310 319/319/319
f 319/319/319 310/310/310 312/312/312
f 319/319/319 312/312/312 320/320/320
f 320/320/320 312/312/312 305/305/305
f 320/320/320 305/305/305 318/318/318
f 321/321/321 323/323/323 322/322/322
f 321/321/321 322/322/322 324/324/324
f 324/324/324 322/322/322 325/325/325
f 324/324/324 325/325/325 326/326/326
f 326/326/326 325/325/325 327/327/327
f 326/326/326 327/327/327 328/328/328
f 328/328/328 327/327/327 323/323/323
f 328/328/328 323/323/323 321/321/321
f 323/323/323 330/330/330 329/329/329
f 323/323/323 329/329/329 322/322/322
f 322/322/322 329/329/329 331/331/331
f 322/322/322 331/331/331 325/325/325
f 325/325/325 331/331/331 332/332/332
f 325/325/325 332/332/332 327/327/327
f 327/327/327 332/332/332 330/330/330
f 327/327/327 330/330/330 323/323/323
f 330/330/330 334/334/334 333/333/333
f 330/330/330 333/333/333 329/329/329
f 329/329/329 333/333/333 335/335/335
f 329/329/329 335/335/335 331/331/331
f 331/331/331 335/335/335 336/336/336
f 331/331/331 336/336/336 332/332/332
f 332/332/332 336/336/336 334/334/334
f 332/332/332 334/334/334 330/330/330
f 334/334/334 321/321/321 324/324/324
f 334/334/334 324/324/324 333/333/333
f 333/333/333 324/324/324 326/326/326
f 333/333/333 326/326/326 335/335/335
f 335/335/335 326/326/326 328/328/328
f 335/335/335 328/328/328 336/336/336
f 336/336/336 328/328/328 321/321/321
f 336/336/336 321/321/321 334/334/334
f 337/337/337 339/339/339 338/338/338
f 337/337/337 340/340/340 339/339/339
f 340/340/340 341/341/341 339/339/339
f 340/340/340 342/342/342 341/341/341
f 342/342/342 343/343/343 341/341/341
f 342/342/342 344/344/344 343/343/343
f 344/344/344 338/338/338 343/343/343
f 344/344/344 337/337/337 338/338/338
f 338/338/338 346/346/346 345/345/345
f 338/338/338 339/339/339 346/346/346
f 339/339/339 347/347/347 346/346/346
f 339/339/339 341/341/341 347/347/347
f 341/341/341 348/348/348 347/347/347
f 341/341/341 343/343/343 348/348/348
f 343/343/343 345/345/345 348/348/348
f 343/343/343 338/338/338 345/345/345
f 345/345/345 350/350/350 349/349/349
f 345/345/345 346/346/346 350/350/350
f 346/346/346 351/351/351 350/350/350
f 346/346/346 347/347/347 351/351/351
f 347/347/347 352/352/352 351/351/351
f 347/347/347 348/348/348 352/352/352
f 348/348/348 349/349/349 352/352/352
f 348/348/348 345/345/345 349/349/349
f 349/349/349 340/340/340 337/337/337
f 349/349/349 350/350/350 340/340/340
f 350/350/350 342/342/342 340/340/340
f 350/350/350 351/351/351 342/342/342
f 351/351/351 344/344/344 342/342/342
f 351/351/351 352/352/352 344/344/344
f 352/352/352 337/337/337 344/344/344
f 352/352/352 349/349/349 337/337/337
f 353/353/353 355/355/355 354/354/354
f 353/353/353 356/356/356 355/355/355
f 356/356/356 357/357/357 355/355/355
f 356/356/356 358/358/358 357/357/357
f 358/358/358 359/359/359 357/357/357
f 358/358/358 360/360/360 359/359/359
f 360/360/360 354/354/354 359/359/359
f 360/360/360 353/353/353 354/354/354
f 354/354/354 362/362/362 361/361/361
f 354/354/354 355/355/355 362/362/362
f 355/355/355 363/363/363 362/362/362
f 355/355/355 357/357/357 363/363/363
f 357/357/357 364/364/364 363/363/363
f 357/357/357 359/359/359 364/364/364
f 359/359/359 361/361/361 364/364/364
f 359/359/359 354/354/354 361/361/361
f 361/361/361 366/366/366 365/365/365
f 361/361/361 362/362/362 366/366/366
f 362/362/362 367/367/367 366/366/366
f 362/362/362 363/363/363 367/367/367
f 363/363/363 368/368/368 367/367/367
f 363/363/363 364/364/364 368/368/368
f 364/364/364 365/365/365 368/368/368
f 364/364/364 361/361/361 365/365/365
f 365/365/365 356/356/356 353/353/353
f 365/365/365 366/366/366 356/356/356
f 366/366/366 358/358/358 356/356/356
f 366/366/366 367/367/367 358/358/358
f 367/367/367 360/360/360 358/358/358
f 367/367/367 368/368/368 360/360/360
f 368/368/368 353/353/353 360/360/360
f 368/368/368 365/365/365 353/353/353
f 369/369/369 371/371/371 370/370/370
f 369/369/369 370/370/370 372/372/372
f 372/372/372 370/370/370 373/373/373
f 372/372/372 373/373/373 374/374/374
f 374/374/374 373/373/373 375/375/375
f 374/374/374 375/375/375 376/376/376
f 376/376/376 375/375/375 371/371/371
f 376/376/376 371/371/371 369/369/369
f 371/371/371 378/378/378 377/377/377
f 371/371/371 377/377/377 370/370/370
f 370/370/370 377/377/377 379/379/379
f 370/370/370 379/379/379 373/373/373
f 373/373/373 379/379/379 380/380/380
f 373/373/373 380/380/380 375/375/375
f 375/375/375 380/380/380 378/378/378
f 375/375/375 378/378/378 371/371/371
f 378/378/378 382/382/382 381/381/381
f 378/378/378 381/381/381 377/377/377
f 377/377/377 381/381/381 383/383/383
f 377/377/377 383/383/383 379/379/379
f 379/379/379 383/383/383 384/384/384
f 379/379/379 384/384/384 380/380/380
f 380/380/380 384/384/384 382/382/382
f 380/380/380 382/382/382 378/378/378
f 382/382/382 369/369/369 372/372/372
f 382/382/382 372/372/372 381/381/381
f 381/381/381 372/372/372 374/374/374
f 381/381/381 374/374/374 383/383/383
f 383/383/383 374/374/374 376/376/376
f 383/383/383 376/376/376 384/384/384
f 384/384/384 376/376/376 369/369/369
f 384/384/384 369/369/369 382/382/382
f 385/385/385 387/387/387 386/386/386
f 385/385/385 386/386/386 388/388/388
f 388/388/388 386/386/386 389/389/389
f 388/388/388 389/389/389 390/390/390
f 390/390/390 389/389/389 391/391/391
f 390/390/390 391/391/391 392/392/392
f 392/392/392 391/391/391 387/387/387
f 392/392/392 387/387/387 385/385/385
f 387/387/387 394/394/394 393/393/393
f 387/387/387 393/393/393 386/386/386
f 386/386/386 393/393/393 395/395/395
f 386/386/386 395/395/395 389/389/389
f 389/389/389 395/395/395 396/396/396
f 389/389/389 396/396/396 391/391/391
f 391/391/391 396/396/396 394/394/394
f 391/391/391 394/394/394 387/387/387
f 394/394/394 398/398/398 397/397/397
f 394/394/394 397/397/397 393/393/393
f 393/393/393 397/397/397 399/399/399
f 393/393/393 399/399/399 395/395/395
f 395/395/395 399/399/399 400/400/400
f 395/395/395 400/400/400 396/396/396
f 396/396/396 400/400/400 398/398/398
f 396/396/396 398/398/398 394/394/394
f 398/398/398 385/385/385 388/388/388
f 398/398/398 388/388/388 397/397/397
f 397/397/397 388/388/388 390/390/390
f 397/397/397 390/390/390 399/399/399
f 399/399/399 390/390/390 392/392/392
f 399/399/399 392/392/392 400/400/400
f 400/400/400 392/392/392 385/385/385
f 400/400/400 385/385/385 398/398/398
f 401/401/401 403/403/403 402/402/402
f 401/401/401 404/404/404 403/403/403
f 404/404/404 405/405/405 403/403/403
f 404/404/404 406/406/406 405/405/405
f 406/406/406 407/407/407 405/405/405
f 406/406/406 408/408/408 407/407/407
f 408/408/408 402/402/402 407/407/407
f 408/408/408 401/401/401 402/402/402
f 402/402/402 410/410/410 409/409/409
f 402/402/402 403/403/403 410/410/410
f 403/403/403 411/411/411 410/410/410
f 403/403/403 405/405/405 411/411/411
f 405/405/405 412/412/412 411/411/411
f 405/405/405 407/407/407 412/412/412
f 407/407/407 409/409/409 412/412/412
f 407/407/407 402/402/402 409/409/409
f 409/409/409 414/414/414 413/413/413
f 409/409/409 410/410/410 414/414/414
f 410/410/410 415/415/415 414/414/414
f 410/410/410 411/411/411 415/415/415
f 411/411/411 416/416/416 415/415/415
f 411/411/411 412/412/412 416/416/416
f 412/412/412 413/413/413 416/416/416
f 412/412/412 409/409/409 413/413/413
f 413/413/413 404/404/404 401/401/401
f 413/413/413 414/414/414 404/404/404
f 414/414/414 406/406/406 404/404/404
f 414/414/414 415/415/415 406/406/406
f 415/415/415 408/408/408 406/406/406
f 415/415/415 416/416/416 408/408/408
f 416/416/416 401/401/401 408/408/408
f 416/416/416 413/413/413 401/401/401
f 417/417/417 419/419/419 418/418/418
f 417/417/417 420/420/420 419/419/419
f 420/420/420 421/421/421 419/419/419
f 420/420/420 422/422/422 421/421/421
f 422/422/422 423/423/423 421/421/421
f 422/422/422 424/424/424 423/423/423
f 424/424/424 418/418/418 423/423/423
f 424/424/424 417/417/417 418/418/418
f 418/418/418 426/426/426 425/425/425
f 418/418/418 419/419/419 426/426/426
f 419/419/419 427/427/427 426/426/426
f 419/419/419 421/421/421 427/427/427
f 421/421/421 428/428/428 427/427/427
f 421/421/421 423/423/423 428/428/428
f 423/423/423 425/425/425 428/428/428
f 423/423/423 418/418/418 425/425/425
f 425/425/425 430/430/430 429/429/429
f 425/425/425 426/426/426 430/430/430
f 426/426/426 431/431/431 430/430/430
f 426/426/426 427/427/427 431/431/431
f 427/427/427 432/432/432 431/431/431
f 427/427/427 428/428/428 432/432/432
f 428/428/428 429/429/429 432/432/432
f 428/428/428 425/425/425 429/429/429
f 429/429/429 420/420/420 417/417/417
f 429/429/429 430/430/430 420/420/420
f 430/430/430 422/422/422 420/420/420
f 430/430/430 431/431/431 422/422/422
f 431/431/431 424/424/424 422/422/422
f 431/431/431 432/432/432 424/424/424
f 432/432/432 417/417/417 424/424/424
f 432/432/432 429/429/429 417/417/417
f 433/433/433 435/435/435 434/434/434
f 433/433/433 434/434/434 436/436/436
f 437/437/437 439/439/439 438/438/438
f 437/437/437 438/438/438 440/440/440
f 441/441/441 443/443/443 442/442/442
f 441/441/441 442/442/442 444/444/444
f 445/445/445 447/447/447 446/446/446
f 445/445/445 446/446/446 448/448/448
f 449/449/449 451/451/451 450/450/450
f 449/449/449 450/450/450 452/452/452
f 453/453/453 455/455/455 454/454/454
f 453/453/453 454/454/454 456/456/456
f 457/457/457 459/459/459 458/458/458
f 457/457/457 458/458/458 460/460/460
f 461/461/461 463/463/463 462/462/462
f 461/461/461 462/462/462 464/464/464
f 465/465/465 467/467/467 466/466/466
f 468/468/468 470/470/470 469/469/469
f 471/471/471 473/473/473 472/472/472
f 474/474/474 476/476/476 475/475/475
f 477/477/477 479/479/479 478/478/478
f 480/480/480 482/482/482 481/481/481
f 483/483/483 485/485/485 484/484/484
f 486/486/486 488/488/488 487/487/487
