# Object30.bmd — MU geometry at action 0 key 0, exported for MU2
# 3 mesh(es)

g ng01
# texture: ng01.jpg
v 19.23249 91.14601 10.72451
v -0.224914 91.01611 16.24661
v 17.53569 86.97311 2.872511
v -0.224918 100.8118 19.98471
v 17.47239 109.8354 11.14121
v 19.20169 103.9296 9.314505
v -0.22492 111.299 17.32631
v 18.96129 87.26981 -6.563292
v 21.5585 94.03561 -5.845495
v 27.8621 109.3228 -10.8972
v 15.8781 98.84032 -21.1625
v 19.8609 116.6393 -18.3161
v -0.224904 108.6277 -23.21071
v -0.224905 87.53471 -19.9962
v 9.582293 123.2877 -13.7861
v -0.224907 124.1581 -16.58261
v -0.224912 90.66991 9.348705
v 10.83919 80.86161 8.292905
v 16.71789 80.20291 -1.807793
v 9.275198 82.7184 -14.4959
v -0.224903 78.81401 -15.9899
v 27.6272 102.9839 -1.144492
v 13.67639 123.6007 -2.708501
v 12.67799 119.7523 12.5974
v 27.64289 112.4256 8.772909
v 27.55499 122.7088 -9.363899
v 20.91559 125.4553 -11.5903
v 26.55689 124.0408 3.799907
v 13.2548 73.81091 2.419208
v 18.2349 73.1282 -5.983793
v -0.22491 77.39541 11.06781
v -0.224905 60.9146 8.411008
v 13.561 78.12131 -18.6268
v -0.2249 74.50301 -23.2776
v 12.25239 128.9151 -3.001801
v -0.224914 130.7235 -7.778206
v 12.67799 119.7523 12.5974
v -0.224914 114.9165 5.441502
v -0.22492 111.299 17.32631
v 10.9671 62.6157 2.522805
v 23.036 65.5139 -7.816691
v 18.3224 63.9757 -25.5037
v -0.224896 62.1888 -29.12201
v -0.224899 49.88181 -5.486195
v 6.720899 52.6546 3.122512
v -0.224903 52.293 8.761407
v 11.2487 81.9315 -3.610492
v 23.97421 69.3147 -15.14779
v -0.224898 50.952 -11.4792
v -0.224895 57.6777 -26.53251
v 9.797606 53.348 -27.4248
v 11.3493 54.4831 1.578204
v 5.637597 73.9206 8.149707
v 29.0508 64.5889 1.79511
v 14.57329 68.54038 30.4369
v 17.09789 79.3055 19.54871
v 31.62119 72.01898 25.92331
v 25.62739 63.6341 21.70311
v 21.4639 52.9501 0.342405
v 26.49699 57.81048 38.36781
v 14.57329 68.54038 30.4369
v 12.58129 51.92138 26.4575
v 35.67439 57.38538 27.21741
v 31.62119 72.01898 25.92331
v 23.39779 66.19618 19.94941
v 22.73829 57.22009 11.6233
v 32.95679 57.47229 19.97461
v 18.47889 37.57958 25.9069
v 26.89079 28.88327 33.4899
v 31.57859 39.74508 22.0409
v 24.33859 36.90468 17.0484
v 19.84128 13.92638 28.65509
v 29.45848 28.45797 38.9945
v 33.74318 16.88678 26.4197
v 26.89079 28.88327 33.4899
v 29.45848 28.45797 38.9945
v 26.02678 15.66868 20.82489
v 24.85739 25.33308 18.4737
v 23.52969 19.43269 12.48859
v 33.74318 16.88678 26.4197
v 28.95008 16.01828 37.0475
v 33.16437 2.075371 59.96702
v 26.57128 1.676681 16.33869
v 20.29837 1.880877 31.34739
v 37.51138 1.826278 27.7842
v 26.87369 67.91737 47.70702
v 26.91079 84.22649 50.59732
v 26.91079 84.22649 50.59732
v 17.09789 79.3055 19.54871
v 14.57329 68.54038 30.4369
v 31.62119 72.01898 25.92331
v 25.62739 63.6341 21.70311
v 20.29837 1.880877 31.34739
v 26.57128 1.676681 16.33869
v 37.51138 1.826278 27.7842
v 33.16437 2.075371 59.96702
v -0.224914 130.7235 -7.778206
v 12.25239 128.9151 -3.001801
v 39.95297 81.62821 19.83272
v 36.50538 77.77762 14.13282
v 42.33098 75.96262 12.21822
v 31.16678 86.66631 16.53261
v 36.61778 90.88911 20.07541
v 43.36348 91.16201 16.26512
v 40.70039 96.21391 3.379715
v 39.40569 100.1637 10.73281
v 44.65818 87.21211 8.912016
v 35.24939 91.99101 -0.163088
v 39.20718 82.98932 5.369216
v 28.50368 91.71812 3.647211
v 32.46148 82.71651 9.179511
v 27.20898 95.66801 11.00031
v 32.65998 99.89082 14.54311
v 36.8446 107.5943 -5.159088
v 35.08379 112.9662 4.84121
v 31.75779 99.57082 -8.342589
v 24.84079 98.19691 -2.224492
v 23.07998 103.5688 7.775708
v 28.23619 110.3145 11.65781
v 27.24879 121.4551 -4.878897
v 27.24879 116.4716 3.752807
v 24.6818 121.1213 -10.8261
v 20.25839 113.6103 -9.408099
v 20.25829 108.6268 -0.776295
v 24.68169 111.1542 6.437307
v 45.67608 81.45592 13.78952
v 12.8042 127.0755 -21.9806
v 43.26649 130.6359 5.736609
v 40.3541 128.3982 -17.0792
v 17.40289 132.8214 6.998306
v 40.1912 108.2877 13.47241
v 12.64139 103.3817 14.77751
v 57.2106 125.2568 2.630911
v 18.0844 47.4287 -26.1405
v 34.3395 68.4898 -2.735391
v 28.7827 60.9889 3.626208
v 25.98711 57.2098 -33.53979
v 35.7701 74.37599 16.02711
v 23.04981 68.123 -36.7396
v 21.0015 84.7984 -2.520289
v 31.4022 79.403 -5.935187
v 9.395609 74.6103 -33.27559
v 32.8328 85.2892 12.82732
v 40.1912 108.2877 13.47241
v 12.64139 103.3817 14.77751
v 22.59069 127.545 3.952003
v 12.8042 127.0755 -21.9806
v 40.3541 128.3982 -17.0792
v 57.2106 125.2568 2.630911
v 17.40289 132.8214 6.998306
v 23.04981 68.123 -36.7396
v 25.98711 57.2098 -33.53979
v 23.48731 65.254 -26.10709
v 9.395609 74.6103 -33.27559
v 21.0015 84.7984 -2.520289
v 32.8328 85.2892 12.82732
v 35.7701 74.37599 16.02711
v 18.0844 47.4287 -26.1405
v 28.7827 60.9889 3.626208
v 37.01763 62.29248 57.66374
v 38.62354 62.19698 58.58184
v 41.83274 67.51159 62.19984
v 40.33414 68.55 61.50285
v 42.40408 76.11012 13.67912
v 47.28438 83.18252 14.96452
v 49.31508 79.60601 24.80072
v 44.97807 70.09531 23.25113
v 35.98058 78.61452 15.47152
v 35.06816 74.18172 24.62252
v 41.89388 85.15922 17.07112
v 42.59027 84.11062 25.55602
v 35.88877 84.30212 17.62382
v 35.19926 83.64802 25.82932
v 48.87266 73.06731 38.39623
v 44.55776 68.13301 38.55163
v 40.39576 70.71892 40.86713
v 45.95206 77.54851 39.94543
v 39.88646 75.61272 41.28733
v 45.26155 66.024 39.50073
v 48.82885 72.60041 41.96363
v 45.35465 63.3189 44.83773
v 42.83195 61.6602 49.41253
v 49.96785 69.63461 47.70483
v 44.96424 66.2354 51.47253
v 42.57275 75.742 53.49874
v 41.12264 74.77011 53.98024
v 42.03715 73.8828 54.72874
v 43.48715 74.85471 54.24724
v 42.87215 61.79678 51.28834
v 47.19855 67.56509 54.46544
v 47.21665 68.51181 52.06884
v 40.20795 73.85701 48.15203
v 42.28445 76.21851 47.46643
v 42.59195 71.94401 49.53714
v 44.66845 74.3055 48.85154
v 50.49959 78.94331 9.978822
v 33.03457 87.10011 15.64601
v 43.92618 91.42242 15.35142
v 36.55838 73.41061 10.35592
v 50.49959 78.94331 9.978822
v 44.93967 89.29051 21.54352
v 51.51318 76.81131 16.17093
v 43.92618 91.42242 15.35142
v 34.04807 84.96802 21.83812
v 33.03457 87.10011 15.64601
v 37.57187 71.27862 16.54802
v 36.55838 73.41061 10.35592
v 46.88179 67.67001 9.306924
v 43.3063 75.47482 -8.375283
v 43.3063 75.47482 -8.375283
v -19.68242 91.14603 10.7245
v -17.98562 86.97311 2.872499
v -17.92232 109.8354 11.1413
v -19.65152 103.9296 9.314501
v -22.00842 94.03572 -5.845404
v -19.41121 87.26982 -6.563302
v -28.31191 109.3228 -10.89721
v -20.31081 116.6393 -18.31611
v -16.32801 98.84032 -21.16251
v -10.03221 123.2877 -13.78611
v -11.28911 80.86161 8.292899
v -17.16781 80.2028 -1.807802
v -9.725006 82.71841 -14.4959
v -28.07702 102.9839 -1.144505
v -14.12632 123.6007 -2.708504
v -13.12782 119.7523 12.5974
v -28.09282 112.4256 8.772898
v -28.00482 122.7088 -9.363913
v -21.36542 125.4553 -11.59031
v -27.00673 124.0409 3.799995
v -13.70471 73.81091 2.4192
v -18.6848 73.1282 -5.983804
v -14.0108 78.12131 -18.62681
v -12.70222 128.9151 -3.001806
v -13.12782 119.7523 12.5974
v -11.41701 62.61561 2.522801
v -23.48591 65.51391 -7.816704
v -18.7722 63.9757 -25.50371
v -7.170804 52.6545 3.122506
v -11.74911 56.2608 10.86961
v -24.50931 62.6527 -4.959302
v -10.2475 53.348 -27.42481
v -11.5796 42.0531 -13.1816
v -5.941906 42.5547 7.351009
v -29.35441 45.04559 -3.662201
v -17.31131 33.511 16.25161
v -14.58371 19.6557 9.645308
v -31.74361 24.7553 11.2704
v -25.69511 26.04549 2.217199
v -21.6957 42.5587 -15.0767
v -26.10731 9.229498 0.773605
v -11.961 19.4259 -7.356594
v -14.58371 19.6557 9.645308
v -31.74361 24.7553 11.2704
v -35.24461 19.8583 -2.729799
v -22.28721 35.0294 -6.2631
v -23.29731 29.1712 4.460204
v -32.52091 26.9193 -4.333799
v -17.3133 16.374 -21.5978
v -25.4035 6.814194 -28.4567
v -30.4792 20.5528 -20.9387
v -23.12951 24.7461 -24.6547
v -17.30891 11.3036 -43.4928
v -27.9619 1.354992 -27.604
v -31.38791 14.264 -43.2802
v -27.9619 1.354992 -27.604
v -25.4035 6.814194 -28.4567
v -24.7602 13.0459 -50.13
v -21.6559 24.859 -42.66951
v -23.2143 20.50499 -35.5271
v -31.38791 14.264 -43.2802
v -24.99241 -0.547398 -10.3432
v -24.82211 13.3954 -33.6462
v -26.0755 -0.946202 -54.4535
v -17.2916 -0.7419 -40.7621
v -34.8619 -0.7966 -41.2821
v -27.53491 3.894796 29.35751
v -26.87901 2.670795 12.85251
v -27.53491 3.894796 29.35751
v -14.58371 19.6557 9.645308
v -17.31131 33.511 16.25161
v -31.74361 24.7553 11.2704
v -25.69511 26.04549 2.217199
v -17.2916 -0.7419 -40.7621
v -34.8619 -0.7966 -41.2821
v -26.0755 -0.946202 -54.4535
v -24.99241 -0.547398 -10.3432
v -12.70222 128.9151 -3.001806
v -41.11516 82.83633 19.2436
v -43.06126 78.05542 10.9316
v -37.36146 79.78072 13.2624
v -32.31075 88.60692 16.5062
v -37.92305 92.44533 20.2299
v -44.61845 92.79423 16.338
v -40.82475 102.2396 11.4705
v -41.90784 98.75023 3.855
v -45.70166 89.30473 8.722502
v -36.29565 94.91182 0.131301
v -40.08936 85.46643 4.998801
v -29.60015 94.56292 4.023101
v -33.39385 85.11742 8.8906
v -28.51705 98.05242 11.6387
v -34.12935 101.8907 15.3624
v -36.76384 115.5094 6.498999
v -38.23684 110.7637 -3.858101
v -32.89184 103.101 -7.4778
v -26.02864 101.5064 -1.3527
v -24.55564 106.2521 9.0045
v -29.94564 112.5924 13.2365
v -27.69862 116.4716 3.752895
v -27.69872 121.4551 -4.878908
v -25.13162 121.1213 -10.82611
v -20.70822 113.6103 -9.408109
v -20.70821 108.6268 -0.776304
v -25.13162 111.1542 6.437298
v -46.62206 83.23453 13.0131
v -13.25411 127.0755 -21.98062
v -40.80392 128.3982 -17.07921
v -43.71633 130.636 5.736593
v -17.85282 132.8214 6.998396
v -40.64112 108.2877 13.4724
v -13.09132 103.3817 14.77751
v -57.66052 125.2568 2.630987
v -18.5786 65.6326 -29.25901
v -29.03771 42.104 -6.424703
v -34.72451 50.56069 -1.550801
v -26.6406 75.8085 -22.60101
v -35.98441 34.8972 10.357
v -23.8241 82.5652 -13.41521
v -31.90801 57.3174 7.634903
v -21.51041 56.0789 13.9041
v -10.181 81.69521 -6.091803
v -33.16782 41.654 19.5428
v -40.64112 108.2877 13.4724
v -23.04053 127.545 3.951993
v -13.09132 103.3817 14.77751
v -40.80392 128.3982 -17.07921
v -13.25411 127.0755 -21.98062
v -57.66052 125.2568 2.630987
v -17.85282 132.8214 6.998396
v -23.8241 82.5652 -13.41521
v -24.1173 71.5857 -12.5013
v -26.6406 75.8085 -22.60101
v -10.181 81.69521 -6.091803
v -21.51041 56.0789 13.9041
v -33.16782 41.654 19.5428
v -35.98441 34.8972 10.357
v -18.5786 65.6326 -29.25901
v -29.03771 42.104 -6.424703
v -47.88519 57.39932 55.81232
v -47.86379 64.03703 61.00262
v -49.14579 58.50082 56.60491
v -46.00469 63.59622 60.60342
v -43.18836 78.02642 12.396
v -50.57526 79.99633 23.5865
v -48.32076 84.76703 14.3225
v -45.90307 70.85262 21.09051
v -36.90796 80.46603 14.709
v -36.17336 75.00302 23.30201
v -44.01896 84.55232 25.1171
v -43.06686 86.61873 16.8466
v -36.63096 84.25243 25.6094
v -37.06086 85.85822 17.518
v -50.39748 71.90292 36.32441
v -45.94348 67.09872 36.05841
v -41.94238 69.49841 38.81581
v -47.66767 76.24272 38.49831
v -41.59557 74.31932 39.8281
v -50.83738 68.59732 39.0198
v -48.62258 75.25772 42.5938
v -51.07798 65.33932 44.0335
v -48.97948 61.54492 47.38651
v -49.67178 72.31503 48.36391
v -47.08598 65.89692 50.06931
v -38.83118 71.46992 51.07021
v -39.25368 69.42942 52.02651
v -38.24708 69.75752 50.99551
v -39.83778 71.14182 52.10121
v -50.80269 62.11832 49.15011
v -49.80888 68.83833 53.14251
v -47.13208 68.85323 51.43651
v -39.80907 69.82202 45.23411
v -40.03857 73.03043 45.34251
v -42.34428 69.40652 47.39321
v -42.57378 72.61502 47.50171
v -51.23536 81.06793 8.755902
v -45.22776 92.98703 15.8019
v -34.22695 88.94432 15.9912
v -37.15436 75.89322 8.998302
v -51.23536 81.06793 8.755902
v -52.39376 78.19013 14.6118
v -46.38606 90.10923 21.6577
v -45.22776 92.98703 15.8019
v -35.38526 86.06652 21.8471
v -34.22695 88.94432 15.9912
v -38.31276 73.01543 14.85411
v -37.15436 75.89322 8.998302
v -47.25836 70.05193 6.896504
v -43.32185 79.99142 -9.598001
v -43.32185 79.99142 -9.598001
v 8.96708 140.8414 17.97531
v 11.25709 135.7666 9.298805
v 11.50069 120.643 12.00931
v 11.92548 166.6406 -3.085404
v 14.26829 157.5002 -11.46651
v 12.66889 145.9055 2.3827
v 8.469583 153.5355 15.4865
v 9.763185 183.1351 -3.953805
v 8.96708 140.8414 17.97531
v 12.57498 150.4144 7.834003
v 8.469583 153.5355 15.4865
v 9.763185 183.1351 -3.953805
v 14.26829 157.5002 -11.46651
v 11.92548 166.6406 -3.085404
v 11.50069 120.643 12.00931
v 11.25709 135.7666 9.298805
v 12.66889 145.9055 2.3827
v 8.650681 132.2154 18.01831
v 6.969082 128.8291 23.69172
v 9.980785 122.466 15.19951
v 7.265085 114.9157 18.41861
v 3.76508 129.9563 27.93081
v 8.365783 135.5791 19.43161
v 5.886077 138.4463 27.02341
v 9.085482 140.863 18.70191
v -2.666024 157.8289 20.7856
v 9.938588 130.8315 1.125002
v 1.02048 148.4899 8.602101
v 2.552079 146.4425 18.17001
v 1.427284 138.9778 2.5834
v 2.447688 133.4497 -8.581902
v 2.874578 138.5407 30.78001
v -4.319919 150.9129 7.505898
v -2.313123 150.4656 16.4383
v -5.913314 134.2107 -13.44351
v -4.623318 141.0875 -1.881703
v 9.085482 140.863 18.70191
v 2.552079 146.4425 18.17001
v -2.666024 157.8289 20.7856
v 2.552079 146.4425 18.17001
v -2.313123 150.4656 16.4383
v -2.666024 157.8289 20.7856
v 6.969082 128.8291 23.69172
v 8.650681 132.2154 18.01831
v 7.994286 122.1176 15.62831
v 7.265085 114.9157 18.41861
v 7.388579 140.5654 19.06821
v 6.556687 130.2383 1.855102
v 8.365783 135.5791 19.43161
v -8.376824 137.7995 21.71961
v -6.361218 117.5102 15.86551
v -12.16292 131.6591 14.3549
v -27.75053 159.6819 5.480189
v -19.44483 140.2732 9.315597
v -30.13983 149.7117 -1.879411
v -13.08113 149.7558 20.139
v -31.61713 175.8776 4.979686
v -8.376824 137.7995 21.71961
v -13.08113 149.7558 20.139
v -18.64773 144.9384 14.5746
v -31.61713 175.8776 4.979686
v -30.13983 149.7117 -1.879411
v -27.75053 159.6819 5.480189
v -12.16292 131.6591 14.3549
v -6.361218 117.5102 15.86551
v -19.44483 140.2732 9.315597
v -5.127023 129.799 20.99271
v -4.221519 119.9751 18.26561
v -0.310723 127.5523 25.26341
v 1.852482 113.9664 19.58711
v -1.179223 137.2071 28.54881
v -5.411923 133.1627 22.40601
v -8.040925 137.8592 22.39931
v -12.54972 126.8873 5.979898
v -4.475623 145.2099 19.68721
v -7.665122 146.9666 10.4772
v -7.328719 137.4421 4.473699
v -10.87732 131.1127 -5.705203
v -8.040925 137.8592 22.39931
v -2.666024 157.8289 20.7856
v -4.475623 145.2099 19.68721
v -4.475623 145.2099 19.68721
v -2.666024 157.8289 20.7856
v -2.313123 150.4656 16.4383
v -0.310723 127.5523 25.26341
v -2.235119 120.3235 17.83671
v -5.127023 129.799 20.99271
v 1.852482 113.9664 19.58711
v -6.344022 138.1568 22.03301
v -9.167818 127.4804 5.2498
v -5.411923 133.1627 22.40601
vn 0.68382 -0.424413 0.593518
vn -0 -0.845992 0.533195
vn 0.637487 -0.681187 0.359993
vn -0 -0.038598 0.999255
vn 0.446517 0.200008 0.872135
vn 0.556603 -0.156501 0.815905
vn -0 0.135104 0.990831
vn 0.886274 -0.441687 -0.139396
vn 0.882505 -0.443003 -0.157901
vn 0.796881 -0.221195 -0.562186
vn 0.551088 -0.282194 -0.785283
vn 0.373579 0.332781 -0.86585
vn 0 0.234008 -0.972235
vn 0 -0.348799 -0.937198
vn 0.260303 0.717307 -0.646307
vn 0 0.619891 -0.784688
vn -0 -0.264403 0.964412
vn 0.648817 -0.132503 0.74932
vn 0.985508 -0.079201 0.150002
vn 0.644599 -0.0414 -0.763399
vn 0 0.439196 -0.898391
vn 0.866716 -0.426408 0.258805
vn 0.430684 0.82967 0.355187
vn 0.839226 0.267008 0.473715
vn 0.140896 0.078898 0.986876
vn 0.596989 0.573689 -0.56079
vn 0.140204 0.932727 -0.33221
vn -0.055998 0.924565 0.376886
vn 0.752029 -0.175907 0.635224
vn 0.917857 0.304086 0.255088
vn -0 -0.014 0.999902
vn -0 -0.169197 0.985582
vn 0.483385 0.715778 -0.503985
vn 0 0.613213 -0.789917
vn 0.826596 0.493198 -0.271099
vn 0 0.827079 -0.562086
vn -0.493708 0.794713 0.353106
vn -0 0.835252 0.549868
vn -0 0.956666 0.29119
vn 0.721689 -0.560292 0.406494
vn 0.833296 0.548197 0.0714
vn 0.614323 0.115004 -0.780629
vn 0 -0.010001 -0.99995
vn 0.555609 -0.823113 0.117402
vn 0.823087 -0.566891 -0.034099
vn 0 -0.705906 0.708306
vn -0.246687 0.725964 -0.641968
vn 0.372797 0.162399 -0.913591
vn 0.348917 -0.897443 -0.269913
vn 0 -0.736997 -0.675897
vn 0.088398 -0.837082 -0.539888
vn -0.141097 -0.93138 0.335593
vn -0.925969 0.28759 0.244692
vn 0.925068 -0.354388 -0.136595
vn -0.82502 -0.071102 0.560613
vn -0.337188 0.904969 0.259491
vn 0.949021 0.311207 0.050101
vn 0.424696 -0.630294 0.649894
vn 0.532015 -0.846724 -0.0044
vn 0.153892 -0.268687 0.950855
vn -0.82502 -0.071102 0.560613
vn -0.988717 -0.053801 -0.139803
vn 0.987803 0.0081 0.155501
vn 0.949021 0.311207 0.050101
vn -0.234298 0.833792 -0.499895
vn -0.170997 0.243996 -0.954582
vn 0.717398 0.1388 -0.682697
vn -0.971851 -0.18911 0.140507
vn -0.164105 0.119903 0.979129
vn 0.965052 -0.115994 -0.234988
vn -0.141406 -0.23991 -0.960441
vn -0.991318 0.086301 0.099202
vn -0.366113 0.048001 0.929332
vn 0.741611 0.600209 -0.299604
vn 0.741611 0.600209 -0.299604
vn 0.741611 0.600209 -0.299604
vn -0.541333 -0.220613 -0.81135
vn -0.361099 -0.0866 -0.928498
vn 0.317398 -0.504597 -0.802895
vn 0.949974 0.140996 -0.278692
vn 0.108204 0.50682 0.855234
vn 0.024001 0.773926 0.632822
vn -0.179802 0.170503 -0.968814
vn -0.999287 -0.0346 0.015099
vn 0.928594 0.204299 -0.309798
vn 0.230801 -0.456803 0.859105
vn 0.204492 -0.171294 0.963764
vn -0.278105 0.958416 -0.064001
vn -0.278105 0.958416 -0.064001
vn -0.881856 0.421179 0.211989
vn 0.52841 0.796715 -0.293305
vn 0.424696 -0.630294 0.649894
vn -0.001 -0.999944 0.0105
vn -0.0004 -0.99991 0.0134
vn -0.001 -0.999944 0.0105
vn -0.0016 -0.999971 0.0075
vn -0 0.641511 0.767114
vn -0.367906 0.698311 0.614009
vn 0.163707 -0.397818 0.902741
vn -0.546993 -0.78949 0.278396
vn 0.176504 -0.971323 -0.159303
vn -0.755081 -0.233394 0.612683
vn 0.0399 0.326905 0.944215
vn 0.842181 0.330292 0.426191
vn 0.916408 0.0588 -0.395903
vn 0.756265 0.514176 0.404582
vn 0.877948 -0.036398 -0.477371
vn 0.185093 -0.565277 -0.803867
vn 0.201694 -0.558983 -0.804275
vn -0.717612 -0.60401 -0.346706
vn -0.708075 -0.643077 -0.29169
vn -0.855805 -0.190101 0.481102
vn -0.096002 0.383308 0.918618
vn 0.876397 0.293399 -0.381898
vn 0.621299 0.643499 0.447099
vn 0.196004 -0.391607 -0.899015
vn -0.722098 -0.590498 -0.360399
vn -0.917076 -0.139296 0.37359
vn -0.36141 0.423811 0.830522
vn 0.697906 0.716006 -0.0162
vn -0.023401 0.81003 0.585922
vn 0.452589 0.175996 -0.874179
vn -0.575589 -0.377893 -0.725186
vn -0.976544 -0.188808 0.103505
vn -0.769975 0.370788 0.519283
vn 0.966716 -0.254305 0.028101
vn 0.0207 0.9885 -0.1498
vn 0.195697 0.908188 0.369995
vn 0.152403 0.981522 -0.115703
vn 0.063101 0.670511 0.739212
vn 0.128404 0.28451 0.950035
vn 0.0003 0.255409 0.966833
vn 0.406479 0.768161 0.494675
vn 0.790959 -0.611868 0.0013
vn 0.972763 -0.213492 -0.090296
vn 0.820797 -0.569398 0.0456
vn 0.968739 -0.109705 -0.222509
vn 0.98482 -0.172303 -0.021
vn 0.58019 0.700888 -0.414893
vn 0.327396 0.869689 -0.369395
vn 0.790984 0.514189 -0.331593
vn 0.307813 0.862436 -0.401816
vn 0.845687 0.487393 -0.217396
vn -0.016899 -0.45549 -0.890081
vn -0.296901 -0.285901 -0.911104
vn -0.270596 -0.808889 -0.521993
vn -0.306608 -0.942526 0.132804
vn -0.0107 -0.998712 -0.0496
vn -0.075999 -0.834792 -0.545295
vn -0.761032 -0.546123 -0.350115
vn -0.776802 -0.615301 -0.134101
vn -0.951761 -0.012499 -0.306588
vn -0.955126 -0.265207 0.131903
vn -0.592464 -0.795652 0.126192
vn -0.616684 -0.636884 0.462688
vn -0.804209 -0.427405 0.413005
vn -0.96169 0.067899 0.265597
vn -0.941621 0.285707 -0.178104
vn -0.934578 0.288693 0.207895
vn -0.95061 -0.128802 0.282403
vn 0.0311 -0.909515 0.414506
vn 0.216908 -0.326314 0.920038
vn -0.295195 0.934484 0.198997
vn 0.521713 -0.692317 -0.498511
vn 0.812288 0.581991 -0.038399
vn 0.980209 0.189401 -0.0576
vn 0.29279 -0.88427 -0.363787
vn -0.700805 -0.619204 -0.354203
vn -0.854599 -0.511999 -0.0867
vn 0.061497 0.993557 0.095196
vn 0.215809 0.937638 0.272511
vn -0.899001 0.435701 -0.044301
vn -0.728209 0.634408 0.259302
vn 0.968322 -0.174204 -0.178903
vn -0.347103 -0.836708 -0.423604
vn -0.924872 -0.348189 0.152895
vn 0.509016 0.730723 0.454914
vn -0.362102 0.849005 0.384802
vn 0.603883 -0.598183 -0.526785
vn 0.883378 0.42939 0.187795
vn 0.398293 -0.903584 -0.157797
vn -0.504195 -0.835492 -0.218498
vn 0.971055 0.179492 0.157593
vn -0.851841 0.470267 0.230684
vn 0.130408 0.880255 0.456229
vn -0.758633 0.515422 0.398517
vn -0.389 -0.327399 0.861098
vn 0.797621 -0.0072 0.603116
vn 0.556107 -0.79931 0.227702
vn 0.873771 0.171795 0.454985
vn 0.058802 0.891435 0.449318
vn -0.968303 -0.157701 0.193701
vn -0.183406 0.983032 0.0032
vn -0.265203 -0.739507 0.618706
vn 0.607412 0.687314 0.398308
vn 0.687114 0.453408 -0.567711
vn -0.834398 0.3164 -0.4513
vn 0.024099 0.996275 -0.082798
vn -0.847014 -0.239604 -0.474508
vn 0.687114 0.453408 -0.567711
vn 0.616702 0.769902 0.164101
vn 0.952949 -0.220312 0.208211
vn 0.024099 0.996275 -0.082798
vn -0.700583 0.631585 0.332091
vn -0.834398 0.3164 -0.4513
vn -0.705324 -0.679523 0.201907
vn -0.847014 -0.239604 -0.474508
vn 0.364197 -0.924992 -0.108399
vn 0.084803 -0.278707 -0.956625
vn 0.084803 -0.278707 -0.956625
vn -0.683821 -0.424413 0.593518
vn -0.637488 -0.681186 0.359993
vn -0.446518 0.200008 0.872134
vn -0.556603 -0.156501 0.815905
vn -0.882506 -0.443003 -0.157901
vn -0.886274 -0.441687 -0.139396
vn -0.796881 -0.221195 -0.562187
vn -0.373492 0.332793 -0.865883
vn -0.551088 -0.282194 -0.785283
vn -0.260303 0.717307 -0.646307
vn -0.648817 -0.132503 0.749319
vn -0.985509 -0.079201 0.150001
vn -0.644599 -0.0414 -0.763399
vn -0.866716 -0.426408 0.258805
vn -0.430685 0.82967 0.355187
vn -0.839226 0.267009 0.473715
vn -0.140897 0.078898 0.986876
vn -0.596989 0.573689 -0.56079
vn -0.140106 0.93274 -0.332214
vn 0.055998 0.924566 0.376886
vn -0.751981 -0.175896 0.635284
vn -0.917857 0.304086 0.255088
vn -0.483385 0.715778 -0.503985
vn -0.826596 0.493198 -0.271099
vn 0.493669 0.79475 0.353078
vn -0.416618 0.313714 0.853237
vn -0.863624 0.471513 0.178405
vn -0.682219 0.179705 -0.70872
vn 0.374085 -0.034199 0.926764
vn 0.212998 0.507695 0.834792
vn -0.815691 0.490994 0.305897
vn 0.117396 -0.595979 -0.794372
vn 0.464717 -0.751227 -0.468717
vn 0.902494 -0.137699 0.408098
vn -0.93605 -0.055997 -0.347382
vn 0.330917 0.066004 0.941349
vn 0.826113 -0.551309 0.116602
vn -0.954986 0.044499 0.293296
vn -0.405998 -0.833796 -0.374098
vn -0.470786 -0.523185 -0.710379
vn -0.145104 -0.988928 -0.031101
vn 0.990261 0.129895 -0.050098
vn 0.826113 -0.551309 0.116602
vn -0.954986 0.044499 0.293296
vn -0.987644 -0.156407 0.0098
vn 0.163195 0.98657 0.0069
vn 0.211598 0.689093 0.693093
vn -0.721088 0.690188 -0.060599
vn 0.982058 -0.144394 -0.121295
vn 0.173296 -0.942279 0.286494
vn -0.949932 0.226908 -0.214808
vn 0.151901 0.872606 -0.464203
vn 0.958013 0.169302 -0.231403
vn 0.555004 -0.632404 -0.540403
vn -0.742434 0.42842 0.515023
vn -0.742434 0.428419 0.515023
vn -0.742434 0.428419 0.515023
vn 0.324805 0.477807 -0.816212
vn -0.305393 0.888578 -0.342292
vn 0.325102 0.914507 -0.240802
vn -0.852184 0.450292 -0.266495
vn 0.0863 0.7739 0.6274
vn 0.0648 0.932998 -0.353999
vn 0.0089 0.170503 -0.985317
vn 0.986723 -0.034501 -0.158703
vn -0.968276 0.204295 -0.143897
vn -0.199493 -0.977768 0.064598
vn -0.214808 -0.947035 -0.238709
vn 0.24821 0.319113 0.914636
vn 0.859126 -0.072402 0.506616
vn 0.24821 0.319113 0.914636
vn -0.5347 0.4894 0.6889
vn -0.405998 -0.833796 -0.374098
vn 0.0028 -0.999945 0.010101
vn 0.0028 -0.999945 0.010101
vn 0.0027 -0.999909 0.0132
vn 0.0029 -0.999971 0.0071
vn 0.367905 0.698311 0.61401
vn -0.174 -0.483998 0.857596
vn -0.147103 -0.955417 -0.256004
vn 0.562798 -0.798198 0.2148
vn 0.753191 -0.257298 0.605393
vn -0.062901 0.260904 0.963313
vn -0.859115 0.277205 0.430207
vn -0.775498 0.4667 0.425199
vn -0.911914 0.061102 -0.405806
vn -0.869021 -0.0256 -0.494112
vn -0.158303 -0.515708 -0.842013
vn -0.173207 -0.501519 -0.847631
vn 0.738379 -0.561185 -0.373989
vn 0.731224 -0.60022 -0.32411
vn 0.853616 -0.199204 0.481309
vn 0.072602 0.324409 0.943127
vn -0.526785 0.72298 0.446987
vn -0.858393 0.334198 -0.389197
vn -0.2203 -0.402099 -0.888698
vn 0.661 -0.6558 -0.3647
vn 0.914173 -0.150396 0.376389
vn 0.445599 0.450199 0.773798
vn 0.289393 0.839879 0.459189
vn -0.520806 0.85351 -0.016801
vn -0.468487 0.204495 -0.859478
vn 0.453502 -0.509301 -0.731402
vn 0.940281 -0.325194 0.100598
vn 0.800065 0.410282 0.437681
vn -0.959485 -0.280795 -0.0233
vn -0.0207 0.9885 -0.1498
vn -0.152306 0.981537 -0.115705
vn -0.195698 0.908188 0.369995
vn -0.063101 0.670511 0.739212
vn -0.128405 0.28451 0.950035
vn -0.0003 0.255409 0.966833
vn -0.40648 0.768161 0.494675
vn -0.7862 -0.2197 -0.5776
vn -0.81584 -0.247312 -0.522726
vn -0.972069 -0.0007 -0.234693
vn -0.970361 0.158993 -0.181993
vn -0.983655 -0.051998 -0.172392
vn -0.590282 0.620581 0.516184
vn -0.798711 0.475906 0.368205
vn -0.338207 0.638514 0.691315
vn -0.319002 0.666805 0.673505
vn -0.85186 0.358683 0.381682
vn 0.0169 -0.45549 -0.890081
vn 0.270597 -0.808889 -0.521993
vn 0.296993 -0.285893 -0.911077
vn 0.0107 -0.998712 -0.0496
vn 0.306608 -0.942526 0.132804
vn 0.075999 -0.834792 -0.545295
vn 0.761032 -0.546123 -0.350114
vn 0.77989 -0.072599 -0.621692
vn 0.958601 -0.2013 -0.2014
vn 0.948221 0.296907 -0.112802
vn 0.599955 -0.381072 -0.703447
vn 0.626812 -0.643313 -0.439608
vn 0.812193 -0.522795 -0.258898
vn 0.964128 -0.213806 0.157305
vn 0.937291 0.277198 0.211298
vn 0.934691 -0.084799 0.345197
vn 0.42121 -0.838821 0.344909
vn -0.5519 -0.1146 0.825999
vn -0.730692 -0.661892 0.167298
vn 0.828835 0.305813 0.46852
vn -0.483415 -0.64152 -0.595619
vn -0.982959 0.169394 -0.071397
vn -0.827686 0.561191 0.0002
vn -0.253504 -0.842112 -0.476007
vn 0.730774 -0.554381 -0.398286
vn 0.872118 -0.47571 -0.114502
vn -0.253115 0.892755 0.372723
vn -0.094598 0.973287 0.209197
vn 0.6995 0.617799 0.3592
vn 0.886404 0.461102 0.0409
vn -0.986616 -0.0669 -0.148702
vn -0.128401 -0.899605 -0.417402
vn 0.81106 -0.584172 0.030399
vn -0.458296 0.828693 0.321297
vn 0.595511 0.759214 0.262605
vn -0.964913 -0.112801 -0.237104
vn -0.490883 0.84127 0.226492
vn -0.91291 -0.341003 -0.224303
vn 0.0052 -0.937373 -0.34829
vn -0.579701 0.689001 0.435
vn 0.923783 -0.322594 0.206297
vn 0.584806 0.660706 0.470605
vn 0.323098 -0.675996 0.662297
vn 0.987002 -0.129401 0.095301
vn -0.413106 0.323704 0.851211
vn -0.946985 -0.320495 -0.0224
vn -0.524932 0.696843 0.48873
vn 0.622485 0.530187 0.575686
vn 0.752313 -0.622111 -0.216803
vn 0.772216 0.634112 -0.0398
vn -0.083698 -0.859472 0.504284
vn 0.113398 0.767787 0.63059
vn -0.680815 0.499611 -0.535612
vn -0.051299 0.998098 0.0342
vn 0.839301 0.3893 -0.3795
vn 0.869488 -0.159498 -0.467494
vn -0.680815 0.499611 -0.535612
vn -0.952388 -0.268096 0.145198
vn -0.644875 0.728673 0.230591
vn -0.051299 0.998098 0.0342
vn 0.669511 0.60561 0.430107
vn 0.839301 0.3893 -0.3795
vn 0.718198 -0.680199 0.1467
vn 0.869488 -0.159498 -0.467494
vn -0.332204 -0.91471 -0.230102
vn -0.043799 -0.165198 -0.985288
vn -0.043799 -0.165198 -0.985288
vn -0.968977 -0.057398 -0.240395
vn -0.971827 -0.042101 -0.231907
vn -0.972969 -0.055798 -0.224093
vn -0.965683 -0.107798 -0.236296
vn -0.979588 -0.083399 -0.182898
vn -0.969671 -0.075097 -0.232593
vn -0.959162 -0.109295 -0.26089
vn -0.951251 -0.139207 -0.275215
vn 0.947929 0.039601 0.31601
vn 0.973014 0.058901 0.223103
vn 0.895582 0.168896 0.411592
vn 0.946156 0.178592 0.269988
vn 0.994337 0.035401 0.100204
vn 0.98139 0.132698 0.138799
vn 0.972969 0.055798 0.224093
vn 0.979569 -0.027699 0.199194
vn 0.994738 -0.069903 0.074903
vn 0.890407 -0.042201 0.453204
vn 0.928779 -0.050399 0.367192
vn 0.929691 -0.0378 0.366397
vn 0.89489 -0.141399 0.423295
vn 0.258397 -0.379696 0.888292
vn 0.9266 -0.1151 0.358
vn 0.864606 0.118801 0.488204
vn 0.941591 0.298397 0.156099
vn 0.098801 0.497508 0.861814
vn 0.814415 0.531009 -0.234004
vn 0.64362 0.708721 -0.288909
vn 0.57192 0.819828 0.028101
vn 0.590203 0.639303 -0.492902
vn 0.480306 0.802709 -0.353504
vn 0.193192 0.099896 0.976062
vn -0.229506 0.921024 -0.314709
vn -0.154503 0.984415 0.084001
vn -0.241297 0.884589 -0.399096
vn -0.260998 0.767894 -0.584995
vn 0.385405 0.370704 -0.84501
vn 0.385405 0.370704 -0.84501
vn 0.385405 0.370704 -0.84501
vn 0.596322 0.429115 -0.678425
vn 0.596322 0.429115 -0.678425
vn 0.596322 0.429115 -0.678425
vn -0.97906 0.076897 -0.188492
vn -0.996466 -0.048198 0.068797
vn -0.99434 0.063603 -0.085104
vn -0.986724 0.038801 -0.157704
vn -0.968631 -0.169305 0.181906
vn -0.988514 -0.065701 0.136102
vn -0.96083 -0.172505 0.216907
vn 0.752216 0.244405 -0.611913
vn 0.761578 0.248392 -0.598582
vn 0.753002 0.2604 -0.604301
vn 0.767359 0.196189 -0.610467
vn 0.761613 0.228503 -0.60641
vn 0.792732 0.227509 -0.565523
vn 0.752418 0.190904 -0.630415
vn 0.749641 0.159108 -0.642435
vn -0.698087 -0.249095 0.671287
vn -0.656983 -0.103397 0.746781
vn -0.763011 -0.245603 0.597908
vn -0.76019 -0.120698 0.638391
vn -0.822868 -0.283289 0.492581
vn -0.828016 -0.184703 0.52941
vn -0.75007 -0.330986 0.572577
vn -0.761578 -0.248392 0.598582
vn -0.799088 -0.384494 0.462193
vn -0.56718 -0.297789 0.767873
vn -0.636992 -0.312495 0.70469
vn -0.63181 -0.324105 0.704111
vn -0.550692 -0.394894 0.735389
vn -0.583378 -0.135195 0.80087
vn -0.612571 -0.385081 0.690267
vn -0.840902 -0.0142 0.541001
vn -0.964118 0.219104 0.149903
vn -0.745414 0.588811 0.312506
vn -0.89771 0.438405 0.0438
vn -0.911112 0.376005 -0.168803
vn -0.814298 0.575699 -0.0741
vn -0.789387 0.164698 -0.591391
vn -0.789387 0.164698 -0.591391
vn -0.789387 0.164698 -0.591391
vn -0.922272 0.162795 -0.35059
vn -0.922272 0.162795 -0.35059
vn -0.922272 0.162795 -0.35059
vn 0.73791 0.378005 -0.559108
vn 0.796677 0.377789 -0.471786
vn 0.896615 0.283804 -0.339906
vn 0.769191 0.346696 -0.536794
vn 0.957522 0.168504 -0.234005
vn 0.922484 0.269395 -0.276495
vn 0.965938 0.165406 -0.199008
vt 0.8704 0.7539
vt 0.7648 0.7667
vt 0.8612 0.7176
vt 0.7648 0.8165
vt 0.8608 0.8329
vt 0.8702 0.8038
vt 0.7648 0.8539
vt 0.8689 0.6961
vt 0.883 0.726
vt 0.9172 0.7776
vt 0.8522 0.7092
vt 0.8738 0.7903
vt 0.7648 0.7451
vt 0.7648 0.6763
vt 0.818 0.8289
vt 0.7648 0.8258
vt 0.7648 0.7486
vt 0.8248 0.6562
vt 0.8567 0.6488
vt 0.8163 0.6555
vt 0.7648 0.6362
vt 0.9159 0.7747
vt 0.8402 0.8569
vt 0.8348 0.8777
vt 0.916 0.838
vt 0.9156 0.8372
vt 0.8795 0.8433
vt 0.9101 0.8744
vt 0.8379 0.6199
vt 0.865 0.6131
vt 0.7648 0.6407
vt 0.7648 0.5605
vt 0.8396 0.6317
vt 0.7648 0.6124
vt 0.8325 0.8784
vt 0.7648 0.8744
vt 0.5315 0.0478
vt 0.505 0.0548
vt 0.505 0.0322
vt 0.8255 0.5662
vt 0.891 0.5758
vt 0.8654 0.561
vt 0.7648 0.5509
vt 0.7648 0.5018
vt 0.8025 0.5187
vt 0.7648 0.5193
vt 0.8461 0.4564
vt 0.9064 0.5232
vt 0.7648 0.5044
vt 0.7648 0.5303
vt 0.8192 0.5092
vt 0.81 0.4719
vt 0.7983 0.4158
vt 0.9147 0.4506
vt 0.8216 0.321
vt 0.8562 0.352
vt 0.917 0.339
vt 0.8806 0.3618
vt 0.8621 0.4764
vt 0.8823 0.1608
vt 0.9398 0.1219
vt 0.8691 0.086
vt 0.8893 0.1214
vt 0.9569 0.125
vt 0.9376 0.0833
vt 0.9051 0.0369
vt 0.8969 0.0861
vt 0.8042 0.0767
vt 0.7568 0.1118
vt 0.8155 0.0768
vt 0.8085 0.0434
vt 0.6969 0.0717
vt 0.7494 0.1389
vt 0.7105 0.0727
vt 0.7568 0.1118
vt 0.7494 0.1389
vt 0.7049 0.0405
vt 0.7551 0.0393
vt 0.7343 0.0055
vt 0.7105 0.0727
vt 0.7065 0.1179
vt 0.6425 0.2273
vt 0.6407 0.0202
vt 0.6416 0.0845
vt 0.6414 0.0821
vt 0.919 0.2124
vt 0.9896 0.241
vt 0.5094 0.0307
vt 0.5085 0.0751
vt 0.4903 0.1022
vt 0.5407 0.1003
vt 0.9786 0.0859
vt 0.5104 0.0721
vt 0.5188 0.0849
vt 0.5272 0.0725
vt 0.5178 0.0434
vt 0.505 0.0911
vt 0.5287 0.0816
vt 0.9778 0.6372
vt 0.9478 0.6531
vt 0.9725 0.6605
vt 0.9299 0.6789
vt 0.9642 0.6864
vt 0.9984 0.6939
vt 0.9813 0.746
vt 0.9813 0.746
vt 0.9984 0.6939
vt 0.947 0.7386
vt 0.9642 0.6864
vt 0.9127 0.7311
vt 0.9299 0.6789
vt 0.9127 0.7311
vt 0.947 0.7386
vt 0.9649 0.8152
vt 0.9649 0.8152
vt 0.9298 0.7907
vt 0.895 0.7733
vt 0.895 0.7733
vt 0.9298 0.7907
vt 0.9139 0.8427
vt 0.9139 0.8427
vt 0.9 0.827
vt 0.8759 0.7991
vt 0.8759 0.7991
vt 0.9 0.827
vt 0.9995 0.6659
vt 0.3514 0.9884
vt 0.5269 0.8751
vt 0.5143 0.9732
vt 0.3649 0.8751
vt 0.5151 0.8005
vt 0.3463 0.7874
vt 0.614 0.8865
vt 0.2454 0.9784
vt 0.1705 0.8517
vt 0.231 0.8375
vt 0.1705 0.9943
vt 0.1713 0.7672
vt 0.0719 0.9943
vt 0.0183 0.8427
vt 0.0719 0.8517
vt 0.0047 0.9773
vt 0.0744 0.7683
vt 0.5186 0.0392
vt 0.4872 0.0347
vt 0.4973 0.0617
vt 0.4872 0.0897
vt 0.5186 0.0852
vt 0.5374 0.0617
vt 0.4908 0.0617
vt 0.4994 0.088
vt 0.5194 0.088
vt 0.5091 0.0781
vt 0.485 0.0835
vt 0.4881 0.0482
vt 0.4994 0.0316
vt 0.5194 0.0316
vt 0.5349 0.0842
vt 0.5318 0.0489
vt 0.5618 0.4409
vt 0.5568 0.4388
vt 0.5186 0.4327
vt 0.5186 0.4351
vt 0.5713 0.6728
vt 0.5442 0.6744
vt 0.5459 0.6231
vt 0.586 0.6185
vt 0.5442 0.6733
vt 0.5459 0.626
vt 0.521 0.6719
vt 0.5108 0.6316
vt 0.513 0.6725
vt 0.499 0.6351
vt 0.5498 0.5521
vt 0.565 0.5469
vt 0.5407 0.5436
vt 0.5203 0.5542
vt 0.5158 0.5496
vt 0.5586 0.5333
vt 0.5159 0.5339
vt 0.561 0.505
vt 0.5662 0.4845
vt 0.5162 0.5023
vt 0.5367 0.4838
vt 0.4956 0.4981
vt 0.5026 0.4954
vt 0.5031 0.4895
vt 0.4961 0.4922
vt 0.5621 0.4767
vt 0.52 0.4746
vt 0.5199 0.4841
vt 0.5195 0.5187
vt 0.5051 0.5248
vt 0.52 0.5065
vt 0.5056 0.5126
vt 0.5287 0.0819
vt 0.5022 0.0516
vt 0.5254 0.0516
vt 0.4989 0.0819
vt 0.5798 0.6879
vt 0.4984 0.656
vt 0.5798 0.656
vt 0.4984 0.6879
vt 0.4984 0.656
vt 0.4984 0.6879
vt 0.5798 0.656
vt 0.5798 0.6879
vt 0.6278 0.6761
vt 0.5047 0.0963
vt 0.6185 0.7704
vt 0.8704 0.7539
vt 0.8612 0.7176
vt 0.8608 0.8329
vt 0.8702 0.8038
vt 0.883 0.726
vt 0.8689 0.6961
vt 0.9172 0.7776
vt 0.8738 0.7903
vt 0.8522 0.7092
vt 0.818 0.8289
vt 0.8248 0.6562
vt 0.8567 0.6488
vt 0.8163 0.6555
vt 0.9159 0.7747
vt 0.8402 0.8569
vt 0.8348 0.8777
vt 0.916 0.838
vt 0.9156 0.8372
vt 0.8795 0.8433
vt 0.9101 0.8744
vt 0.8379 0.6199
vt 0.865 0.6131
vt 0.8396 0.6317
vt 0.8325 0.8784
vt 0.5315 0.0478
vt 0.8255 0.5662
vt 0.891 0.5758
vt 0.8654 0.561
vt 0.8025 0.5187
vt 0.8461 0.4564
vt 0.9064 0.5232
vt 0.8192 0.5092
vt 0.81 0.4719
vt 0.7983 0.4158
vt 0.9147 0.4506
vt 0.8562 0.352
vt 0.8216 0.321
vt 0.917 0.339
vt 0.8806 0.3618
vt 0.8621 0.4764
vt 0.8823 0.1608
vt 0.8691 0.086
vt 0.9398 0.1219
vt 0.9569 0.125
vt 0.8893 0.1214
vt 0.9051 0.0369
vt 0.9376 0.0833
vt 0.8969 0.0861
vt 0.8042 0.0767
vt 0.7568 0.1118
vt 0.8155 0.0768
vt 0.8085 0.0434
vt 0.6969 0.0717
vt 0.7494 0.1389
vt 0.7105 0.0727
vt 0.7494 0.1389
vt 0.7568 0.1118
vt 0.7049 0.0405
vt 0.7343 0.0055
vt 0.7551 0.0393
vt 0.7105 0.0727
vt 0.6425 0.2273
vt 0.7065 0.1179
vt 0.6407 0.0202
vt 0.6416 0.0845
vt 0.6414 0.0821
vt 0.9896 0.241
vt 0.919 0.2124
vt 0.5094 0.0307
vt 0.4903 0.1022
vt 0.5085 0.0751
vt 0.5407 0.1003
vt 0.9786 0.0859
vt 0.5104 0.0721
vt 0.5272 0.0725
vt 0.5188 0.0849
vt 0.5178 0.0434
vt 0.5287 0.0816
vt 0.9778 0.6372
vt 0.9725 0.6605
vt 0.9478 0.6531
vt 0.9299 0.6789
vt 0.9642 0.6864
vt 0.9984 0.6939
vt 0.9813 0.746
vt 0.9813 0.746
vt 0.9984 0.6939
vt 0.947 0.7386
vt 0.9642 0.6864
vt 0.9127 0.7311
vt 0.9299 0.6789
vt 0.9127 0.7311
vt 0.947 0.7386
vt 0.9649 0.8152
vt 0.9649 0.8152
vt 0.9298 0.7907
vt 0.895 0.7733
vt 0.895 0.7733
vt 0.9298 0.7907
vt 0.9139 0.8427
vt 0.9139 0.8427
vt 0.9 0.827
vt 0.8759 0.7991
vt 0.8759 0.7991
vt 0.9 0.827
vt 0.9995 0.6659
vt 0.3514 0.9884
vt 0.5143 0.9732
vt 0.5269 0.8751
vt 0.3649 0.8751
vt 0.5151 0.8005
vt 0.3463 0.7874
vt 0.614 0.8865
vt 0.2454 0.9784
vt 0.231 0.8375
vt 0.1705 0.8517
vt 0.1705 0.9943
vt 0.1713 0.7672
vt 0.0719 0.9943
vt 0.0719 0.8517
vt 0.0183 0.8427
vt 0.0047 0.9773
vt 0.0744 0.7683
vt 0.5186 0.0392
vt 0.4973 0.0617
vt 0.4872 0.0347
vt 0.5186 0.0852
vt 0.4872 0.0897
vt 0.5374 0.0617
vt 0.4908 0.0617
vt 0.4994 0.088
vt 0.5091 0.0781
vt 0.5194 0.088
vt 0.485 0.0835
vt 0.4881 0.0482
vt 0.4994 0.0316
vt 0.5194 0.0316
vt 0.5349 0.0842
vt 0.5318 0.0489
vt 0.5618 0.4409
vt 0.5186 0.4327
vt 0.5568 0.4388
vt 0.5186 0.4351
vt 0.5713 0.6728
vt 0.5459 0.6231
vt 0.5442 0.6744
vt 0.586 0.6185
vt 0.5442 0.6733
vt 0.5459 0.626
vt 0.5108 0.6316
vt 0.521 0.6719
vt 0.499 0.6351
vt 0.513 0.6725
vt 0.5498 0.5521
vt 0.565 0.5469
vt 0.5407 0.5436
vt 0.5203 0.5542
vt 0.5158 0.5496
vt 0.5586 0.5333
vt 0.5159 0.5339
vt 0.561 0.505
vt 0.5662 0.4845
vt 0.5162 0.5023
vt 0.5367 0.4838
vt 0.4956 0.4981
vt 0.5031 0.4895
vt 0.5026 0.4954
vt 0.4961 0.4922
vt 0.5621 0.4767
vt 0.52 0.4746
vt 0.5199 0.4841
vt 0.5195 0.5187
vt 0.5051 0.5248
vt 0.52 0.5065
vt 0.5056 0.5126
vt 0.5287 0.0819
vt 0.5254 0.0516
vt 0.5022 0.0516
vt 0.4989 0.0819
vt 0.5798 0.6879
vt 0.5798 0.656
vt 0.4984 0.656
vt 0.4984 0.6879
vt 0.4984 0.656
vt 0.4984 0.6879
vt 0.5798 0.656
vt 0.5798 0.6879
vt 0.6278 0.6761
vt 0.5047 0.0963
vt 0.6185 0.7704
vt 0.5976 0.4283
vt 0.6237 0.4148
vt 0.5951 0.3701
vt 0.7106 0.5163
vt 0.7329 0.4884
vt 0.667 0.4578
vt 0.6156 0.4848
vt 0.7077 0.5563
vt 0.3993 0.1198
vt 0.4582 0.1493
vt 0.4284 0.1756
vt 0.5628 0.2871
vt 0.5635 0.1568
vt 0.5351 0.2109
vt 0.4014 0.0176
vt 0.4343 0.0842
vt 0.4804 0.1216
vt 0.4177 0.3239
vt 0.3853 0.3043
vt 0.4231 0.27
vt 0.3939 0.2242
vt 0.3657 0.3245
vt 0.4131 0.3428
vt 0.3876 0.3662
vt 0.4211 0.369
vt 0.442 0.4547
vt 0.5114 0.3008
vt 0.4972 0.4053
vt 0.4384 0.4021
vt 0.5224 0.3504
vt 0.5654 0.3091
vt 0.3704 0.3721
vt 0.5132 0.4207
vt 0.4588 0.4249
vt 0.5946 0.3199
vt 0.5584 0.3617
vt 0.4211 0.369
vt 0.4384 0.4021
vt 0.442 0.4547
vt 0.4384 0.4021
vt 0.4588 0.4249
vt 0.442 0.4547
vt 0.4907 0.0694
vt 0.5022 0.0712
vt 0.5024 0.0598
vt 0.4942 0.0529
vt 0.5047 0.0806
vt 0.5329 0.0646
vt 0.5012 0.0753
vt 0.5976 0.4283
vt 0.5951 0.3701
vt 0.6237 0.4148
vt 0.7106 0.5163
vt 0.667 0.4578
vt 0.7329 0.4884
vt 0.6156 0.4848
vt 0.7077 0.5563
vt 0.3993 0.1198
vt 0.4284 0.1756
vt 0.4582 0.1493
vt 0.5628 0.2871
vt 0.5635 0.1568
vt 0.5351 0.2109
vt 0.4343 0.0842
vt 0.4014 0.0176
vt 0.4804 0.1216
vt 0.4177 0.3239
vt 0.4231 0.27
vt 0.3853 0.3043
vt 0.3939 0.2242
vt 0.3876 0.3662
vt 0.4131 0.3428
vt 0.4211 0.369
vt 0.5114 0.3008
vt 0.4384 0.4021
vt 0.4972 0.4053
vt 0.5224 0.3504
vt 0.5654 0.3091
vt 0.4211 0.369
vt 0.442 0.4547
vt 0.4384 0.4021
vt 0.4384 0.4021
vt 0.442 0.4547
vt 0.4588 0.4249
vt 0.4907 0.0694
vt 0.5024 0.0598
vt 0.5022 0.0712
vt 0.4942 0.0529
vt 0.5047 0.0806
vt 0.5329 0.0646
vt 0.5012 0.0753
f 1/1/1 3/3/3 2/2/2
f 4/4/4 1/1/1 2/2/2
f 5/5/5 6/6/6 4/4/4
f 4/4/4 7/7/7 5/5/5
f 3/3/3 9/9/9 8/8/8
f 3/3/3 1/1/1 9/9/9
f 10/10/10 12/12/12 11/11/11
f 8/8/8 9/9/9 11/11/11
f 13/13/13 14/14/14 11/11/11
f 13/13/13 11/11/11 12/12/12
f 13/13/13 12/12/12 15/15/15
f 13/13/13 15/15/15 16/16/16
f 3/3/3 17/17/17 2/2/2
f 17/17/17 3/3/3 18/18/18
f 8/8/8 18/18/18 3/3/3
f 18/18/18 8/8/8 19/19/19
f 14/14/14 20/20/20 11/11/11
f 20/20/20 14/14/14 21/21/21
f 20/20/20 19/19/19 8/8/8
f 8/8/8 11/11/11 20/20/20
f 4/4/4 6/6/6 1/1/1
f 1/1/1 22/22/22 9/9/9
f 22/22/22 1/1/1 6/6/6
f 23/23/23 5/5/5 24/24/24
f 5/5/5 23/23/23 25/25/25
f 11/11/11 9/9/9 10/10/10
f 26/26/26 27/27/27 12/12/12
f 27/27/27 28/28/28 23/23/23
f 23/23/23 15/15/15 27/27/27
f 19/19/19 29/29/29 18/18/18
f 29/29/29 19/19/19 30/30/30
f 18/18/18 31/31/31 17/17/17
f 31/31/31 18/18/18 32/32/32
f 21/21/21 33/33/33 20/20/20
f 33/33/33 21/21/21 34/34/34
f 20/20/20 30/30/30 19/19/19
f 30/30/30 20/20/20 33/33/33
f 22/22/22 6/6/6 25/25/25
f 28/28/28 25/25/25 23/23/23
f 6/6/6 5/5/5 25/25/25
f 12/12/12 27/27/27 15/15/15
f 28/28/28 27/27/27 26/26/26
f 23/23/23 35/35/35 15/15/15
f 15/15/15 36/36/36 16/16/16
f 36/36/36 15/15/15 35/35/35
f 35/35/35 23/23/23 24/24/24
f 24/24/24 5/5/5 7/7/7
f 37/37/37 39/39/39 38/38/38
f 30/30/30 40/40/40 29/29/29
f 40/40/40 30/30/30 41/41/41
f 29/29/29 32/32/32 18/18/18
f 32/32/32 29/29/29 40/40/40
f 34/34/34 42/42/42 33/33/33
f 42/42/42 34/34/34 43/43/43
f 33/33/33 41/41/41 30/30/30
f 41/41/41 33/33/33 42/42/42
f 44/44/44 46/46/46 45/45/45
f 47/47/47 45/45/45 40/40/40
f 40/40/40 41/41/41 48/48/48
f 40/40/40 45/45/45 32/32/32
f 49/49/49 51/51/51 50/50/50
f 52/52/52 44/44/44 53/53/53
f 43/43/43 51/51/51 42/42/42
f 42/42/42 48/48/48 41/41/41
f 48/48/48 42/42/42 54/54/54
f 53/53/53 56/56/56 55/55/55
f 48/48/48 47/47/47 40/40/40
f 47/47/47 48/48/48 57/57/57
f 58/58/58 59/59/59 52/52/52
f 59/59/59 54/54/54 42/42/42
f 42/42/42 51/51/51 59/59/59
f 57/57/57 56/56/56 47/47/47
f 48/48/48 54/54/54 57/57/57
f 55/55/55 58/58/58 52/52/52
f 52/52/52 53/53/53 55/55/55
f 58/58/58 57/57/57 54/54/54
f 60/60/60 62/62/62 61/61/61
f 60/60/60 64/64/64 63/63/63
f 62/62/62 66/66/66 65/65/65
f 65/65/65 61/61/61 62/62/62
f 65/65/65 67/67/67 64/64/64
f 67/67/67 65/65/65 66/66/66
f 60/60/60 68/68/68 62/62/62
f 68/68/68 60/60/60 69/69/69
f 70/70/70 69/69/69 60/60/60
f 60/60/60 63/63/63 70/70/70
f 62/62/62 71/71/71 66/66/66
f 71/71/71 62/62/62 68/68/68
f 71/71/71 70/70/70 67/67/67
f 67/67/67 66/66/66 71/71/71
f 72/72/72 69/69/69 73/73/73
f 74/74/74 76/76/76 75/75/75
f 77/77/77 79/79/79 78/78/78
f 78/78/78 68/68/68 72/72/72
f 80/80/80 78/78/78 79/79/79
f 80/80/80 82/82/82 81/81/81
f 77/77/77 72/72/72 83/83/83
f 80/80/80 77/77/77 83/83/83
f 82/82/82 84/84/84 72/72/72
f 72/72/72 81/81/81 82/82/82
f 85/85/85 82/82/82 80/80/80
f 61/61/61 87/87/87 86/86/86
f 64/64/64 86/86/86 87/87/87
f 10/10/10 9/9/9 22/22/22
f 52/52/52 51/51/51 49/49/49
f 44/44/44 52/52/52 49/49/49
f 32/32/32 45/45/45 46/46/46
f 50/50/50 51/51/51 43/43/43
f 44/44/44 45/45/45 53/53/53
f 52/52/52 59/59/59 51/51/51
f 58/58/58 54/54/54 59/59/59
f 88/88/88 90/90/90 89/89/89
f 89/89/89 91/91/91 88/88/88
f 65/65/65 64/64/64 92/92/92
f 92/92/92 61/61/61 65/65/65
f 67/67/67 70/70/70 63/63/63
f 63/63/63 64/64/64 67/67/67
f 68/68/68 78/78/78 71/71/71
f 68/68/68 69/69/69 72/72/72
f 69/69/69 70/70/70 80/80/80
f 70/70/70 78/78/78 80/80/80
f 70/70/70 71/71/71 78/78/78
f 77/77/77 78/78/78 72/72/72
f 72/72/72 84/84/84 83/83/83
f 72/72/72 73/73/73 81/81/81
f 73/73/73 80/80/80 81/81/81
f 77/77/77 80/80/80 79/79/79
f 93/93/93 95/95/95 94/94/94
f 85/85/85 80/80/80 83/83/83
f 93/93/93 96/96/96 95/95/95
f 61/61/61 86/86/86 60/60/60
f 86/86/86 64/64/64 60/60/60
f 47/47/47 53/53/53 45/45/45
f 53/53/53 47/47/47 56/56/56
f 26/26/26 12/12/12 10/10/10
f 97/97/97 98/98/98 38/38/38
f 98/98/98 37/37/37 38/38/38
f 99/99/99 101/101/101 100/100/100
f 99/99/99 100/100/100 102/102/102
f 99/99/99 102/102/102 103/103/103
f 104/104/104 106/106/106 105/105/105
f 104/104/104 105/105/105 107/107/107
f 107/107/107 105/105/105 108/108/108
f 107/107/107 108/108/108 109/109/109
f 109/109/109 108/108/108 110/110/110
f 109/109/109 110/110/110 111/111/111
f 111/111/111 110/110/110 112/112/112
f 111/111/111 112/112/112 102/102/102
f 102/102/102 112/112/112 113/113/113
f 102/102/102 113/113/113 103/103/103
f 103/103/103 113/113/113 106/106/106
f 103/103/103 106/106/106 104/104/104
f 106/106/106 115/115/115 114/114/114
f 106/106/106 114/114/114 105/105/105
f 105/105/105 114/114/114 116/116/116
f 105/105/105 116/116/116 108/108/108
f 108/108/108 116/116/116 117/117/117
f 108/108/108 117/117/117 110/110/110
f 110/110/110 117/117/117 118/118/118
f 110/110/110 118/118/118 112/112/112
f 112/112/112 118/118/118 119/119/119
f 112/112/112 119/119/119 113/113/113
f 113/113/113 119/119/119 115/115/115
f 113/113/113 115/115/115 106/106/106
f 115/115/115 121/121/121 120/120/120
f 115/115/115 120/120/120 114/114/114
f 114/114/114 120/120/120 122/122/122
f 114/114/114 122/122/122 116/116/116
f 116/116/116 122/122/122 123/123/123
f 116/116/116 123/123/123 117/117/117
f 117/117/117 123/123/123 124/124/124
f 117/117/117 124/124/124 118/118/118
f 118/118/118 124/124/124 125/125/125
f 118/118/118 125/125/125 119/119/119
f 119/119/119 125/125/125 121/121/121
f 119/119/119 121/121/121 115/115/115
f 126/126/126 99/99/99 104/104/104
f 101/101/101 99/99/99 126/126/126
f 99/99/99 103/103/103 104/104/104
f 111/111/111 101/101/101 109/109/109
f 101/101/101 111/111/111 100/100/100
f 102/102/102 100/100/100 111/111/111
f 104/104/104 107/107/107 126/126/126
f 109/109/109 126/126/126 107/107/107
f 126/126/126 109/109/109 101/101/101
f 127/127/127 129/129/129 128/128/128
f 127/127/127 128/128/128 130/130/130
f 130/130/130 128/128/128 131/131/131
f 130/130/130 131/131/131 132/132/132
f 129/129/129 133/133/133 128/128/128
f 128/128/128 133/133/133 131/131/131
f 134/134/134 136/136/136 135/135/135
f 134/134/134 135/135/135 137/137/137
f 136/136/136 138/138/138 135/135/135
f 139/139/139 141/141/141 140/140/140
f 139/139/139 140/140/140 142/142/142
f 141/141/141 143/143/143 140/140/140
f 137/137/137 141/141/141 139/139/139
f 137/137/137 135/135/135 141/141/141
f 135/135/135 143/143/143 141/141/141
f 135/135/135 138/138/138 143/143/143
f 144/144/144 146/146/146 145/145/145
f 146/146/146 148/148/148 147/147/147
f 149/149/149 146/146/146 144/144/144
f 145/145/145 146/146/146 150/150/150
f 150/150/150 146/146/146 147/147/147
f 149/149/149 148/148/148 146/146/146
f 151/151/151 153/153/153 152/152/152
f 154/154/154 153/153/153 151/151/151
f 154/154/154 155/155/155 153/153/153
f 155/155/155 156/156/156 153/153/153
f 156/156/156 157/157/157 153/153/153
f 153/153/153 158/158/158 152/152/152
f 153/153/153 159/159/159 158/158/158
f 159/159/159 153/153/153 157/157/157
f 160/160/160 162/162/162 161/161/161
f 162/162/162 160/160/160 163/163/163
f 164/164/164 166/166/166 165/165/165
f 166/166/166 164/164/164 167/167/167
f 168/168/168 167/167/167 164/164/164
f 167/167/167 168/168/168 169/169/169
f 165/165/165 171/171/171 170/170/170
f 171/171/171 165/165/165 166/166/166
f 170/170/170 173/173/173 172/172/172
f 173/173/173 170/170/170 171/171/171
f 172/172/172 169/169/169 168/168/168
f 169/169/169 172/172/172 173/173/173
f 174/174/174 167/167/167 175/175/175
f 167/167/167 174/174/174 166/166/166
f 169/169/169 175/175/175 167/167/167
f 175/175/175 169/169/169 176/176/176
f 166/166/166 177/177/177 171/171/171
f 177/177/177 166/166/166 174/174/174
f 171/171/171 178/178/178 173/173/173
f 178/178/178 171/171/171 177/177/177
f 173/173/173 176/176/176 169/169/169
f 176/176/176 173/173/173 178/178/178
f 175/175/175 179/179/179 174/174/174
f 180/180/180 174/174/174 179/179/179
f 174/174/174 180/180/180 177/177/177
f 178/178/178 177/177/177 180/180/180
f 175/175/175 181/181/181 179/179/179
f 181/181/181 175/175/175 182/182/182
f 179/179/179 183/183/183 180/180/180
f 183/183/183 179/179/179 181/181/181
f 176/176/176 182/182/182 175/175/175
f 182/182/182 176/176/176 184/184/184
f 185/185/185 187/187/187 186/186/186
f 187/187/187 185/185/185 188/188/188
f 182/182/182 189/189/189 181/181/181
f 181/181/181 190/190/190 183/183/183
f 190/190/190 181/181/181 189/189/189
f 191/191/191 183/183/183 190/190/190
f 182/182/182 161/161/161 189/189/189
f 161/161/161 182/182/182 160/160/160
f 189/189/189 162/162/162 190/190/190
f 162/162/162 189/189/189 161/161/161
f 184/184/184 160/160/160 182/182/182
f 160/160/160 184/184/184 163/163/163
f 190/190/190 163/163/163 191/191/191
f 163/163/163 190/190/190 162/162/162
f 191/191/191 163/163/163 184/184/184
f 178/178/178 192/192/192 176/176/176
f 192/192/192 178/178/178 193/193/193
f 176/176/176 194/194/194 184/184/184
f 194/194/194 176/176/176 192/192/192
f 184/184/184 195/195/195 191/191/191
f 195/195/195 184/184/184 194/194/194
f 193/193/193 186/186/186 192/192/192
f 186/186/186 193/193/193 185/185/185
f 192/192/192 187/187/187 194/194/194
f 187/187/187 192/192/192 186/186/186
f 194/194/194 188/188/188 195/195/195
f 188/188/188 194/194/194 187/187/187
f 195/195/195 185/185/185 193/193/193
f 185/185/185 195/195/195 188/188/188
f 183/183/183 191/191/191 195/195/195
f 183/183/183 195/195/195 180/180/180
f 180/180/180 195/195/195 178/178/178
f 195/195/195 193/193/193 178/178/178
f 196/196/196 198/198/198 197/197/197
f 196/196/196 197/197/197 199/199/199
f 200/200/200 202/202/202 201/201/201
f 200/200/200 201/201/201 203/203/203
f 203/203/203 201/201/201 204/204/204
f 203/203/203 204/204/204 205/205/205
f 205/205/205 204/204/204 206/206/206
f 205/205/205 206/206/206 207/207/207
f 202/202/202 208/208/208 206/206/206
f 206/206/206 208/208/208 207/207/207
f 200/200/200 208/208/208 202/202/202
f 199/199/199 209/209/209 196/196/196
f 208/208/208 200/200/200 210/210/210
f 208/208/208 210/210/210 207/207/207
f 211/211/211 2/2/2 212/212/212
f 4/4/4 2/2/2 211/211/211
f 213/213/213 4/4/4 214/214/214
f 4/4/4 213/213/213 7/7/7
f 212/212/212 216/216/216 215/215/215
f 212/212/212 215/215/215 211/211/211
f 217/217/217 219/219/219 218/218/218
f 216/216/216 219/219/219 215/215/215
f 13/13/13 219/219/219 14/14/14
f 13/13/13 218/218/218 219/219/219
f 13/13/13 220/220/220 218/218/218
f 13/13/13 16/16/16 220/220/220
f 212/212/212 2/2/2 17/17/17
f 17/17/17 221/221/221 212/212/212
f 216/216/216 212/212/212 221/221/221
f 221/221/221 222/222/222 216/216/216
f 14/14/14 219/219/219 223/223/223
f 223/223/223 21/21/21 14/14/14
f 223/223/223 216/216/216 222/222/222
f 216/216/216 223/223/223 219/219/219
f 4/4/4 211/211/211 214/214/214
f 211/211/211 215/215/215 224/224/224
f 224/224/224 214/214/214 211/211/211
f 225/225/225 226/226/226 213/213/213
f 213/213/213 227/227/227 225/225/225
f 219/219/219 217/217/217 215/215/215
f 228/228/228 218/218/218 229/229/229
f 229/229/229 225/225/225 230/230/230
f 225/225/225 229/229/229 220/220/220
f 222/222/222 221/221/221 231/231/231
f 231/231/231 232/232/232 222/222/222
f 221/221/221 17/17/17 31/31/31
f 31/31/31 32/32/32 221/221/221
f 21/21/21 223/223/223 233/233/233
f 233/233/233 34/34/34 21/21/21
f 223/223/223 222/222/222 232/232/232
f 232/232/232 233/233/233 223/223/223
f 224/224/224 227/227/227 214/214/214
f 230/230/230 225/225/225 227/227/227
f 214/214/214 227/227/227 213/213/213
f 218/218/218 220/220/220 229/229/229
f 230/230/230 228/228/228 229/229/229
f 225/225/225 220/220/220 234/234/234
f 220/220/220 16/16/16 36/36/36
f 36/36/36 234/234/234 220/220/220
f 234/234/234 226/226/226 225/225/225
f 226/226/226 7/7/7 213/213/213
f 235/235/235 38/38/38 39/39/39
f 232/232/232 231/231/231 236/236/236
f 236/236/236 237/237/237 232/232/232
f 231/231/231 221/221/221 32/32/32
f 32/32/32 236/236/236 231/231/231
f 34/34/34 233/233/233 238/238/238
f 238/238/238 43/43/43 34/34/34
f 233/233/233 232/232/232 237/237/237
f 237/237/237 238/238/238 233/233/233
f 44/44/44 239/239/239 46/46/46
f 240/240/240 236/236/236 239/239/239
f 236/236/236 241/241/241 237/237/237
f 236/236/236 32/32/32 239/239/239
f 49/49/49 50/50/50 242/242/242
f 243/243/243 244/244/244 44/44/44
f 43/43/43 238/238/238 242/242/242
f 238/238/238 237/237/237 241/241/241
f 241/241/241 245/245/245 238/238/238
f 244/244/244 247/247/247 246/246/246
f 241/241/241 236/236/236 240/240/240
f 240/240/240 248/248/248 241/241/241
f 249/249/249 243/243/243 250/250/250
f 250/250/250 238/238/238 245/245/245
f 238/238/238 250/250/250 242/242/242
f 248/248/248 240/240/240 246/246/246
f 241/241/241 248/248/248 245/245/245
f 247/247/247 243/243/243 249/249/249
f 243/243/243 247/247/247 244/244/244
f 249/249/249 245/245/245 248/248/248
f 251/251/251 253/253/253 252/252/252
f 251/251/251 255/255/255 254/254/254
f 252/252/252 257/257/257 256/256/256
f 257/257/257 252/252/252 253/253/253
f 257/257/257 254/254/254 258/258/258
f 258/258/258 256/256/256 257/257/257
f 251/251/251 252/252/252 259/259/259
f 259/259/259 260/260/260 251/251/251
f 261/261/261 251/251/251 260/260/260
f 251/251/251 261/261/261 255/255/255
f 252/252/252 256/256/256 262/262/262
f 262/262/262 259/259/259 252/252/252
f 262/262/262 258/258/258 261/261/261
f 258/258/258 262/262/262 256/256/256
f 263/263/263 264/264/264 260/260/260
f 265/265/265 267/267/267 266/266/266
f 268/268/268 270/270/270 269/269/269
f 270/270/270 263/263/263 259/259/259
f 271/271/271 269/269/269 270/270/270
f 271/271/271 273/273/273 272/272/272
f 268/268/268 274/274/274 263/263/263
f 271/271/271 274/274/274 268/268/268
f 272/272/272 263/263/263 275/275/275
f 263/263/263 272/272/272 273/273/273
f 276/276/276 271/271/271 272/272/272
f 253/253/253 278/278/278 277/277/277
f 254/254/254 277/277/277 278/278/278
f 217/217/217 224/224/224 215/215/215
f 243/243/243 49/49/49 242/242/242
f 44/44/44 49/49/49 243/243/243
f 32/32/32 46/46/46 239/239/239
f 50/50/50 43/43/43 242/242/242
f 44/44/44 244/244/244 239/239/239
f 243/243/243 242/242/242 250/250/250
f 249/249/249 250/250/250 245/245/245
f 279/279/279 281/281/281 280/280/280
f 281/281/281 279/279/279 282/282/282
f 257/257/257 283/283/283 254/254/254
f 283/283/283 257/257/257 253/253/253
f 258/258/258 255/255/255 261/261/261
f 255/255/255 258/258/258 254/254/254
f 259/259/259 262/262/262 270/270/270
f 259/259/259 263/263/263 260/260/260
f 260/260/260 271/271/271 261/261/261
f 261/261/261 271/271/271 270/270/270
f 261/261/261 270/270/270 262/262/262
f 268/268/268 263/263/263 270/270/270
f 263/263/263 274/274/274 275/275/275
f 263/263/263 273/273/273 264/264/264
f 264/264/264 273/273/273 271/271/271
f 268/268/268 269/269/269 271/271/271
f 284/284/284 286/286/286 285/285/285
f 276/276/276 274/274/274 271/271/271
f 284/284/284 285/285/285 287/287/287
f 253/253/253 251/251/251 278/278/278
f 278/278/278 251/251/251 254/254/254
f 240/240/240 239/239/239 244/244/244
f 244/244/244 246/246/246 240/240/240
f 228/228/228 217/217/217 218/218/218
f 97/97/97 38/38/38 288/288/288
f 288/288/288 38/38/38 235/235/235
f 289/289/289 291/291/291 290/290/290
f 289/289/289 292/292/292 291/291/291
f 289/289/289 293/293/293 292/292/292
f 294/294/294 296/296/296 295/295/295
f 294/294/294 297/297/297 296/296/296
f 297/297/297 298/298/298 296/296/296
f 297/297/297 299/299/299 298/298/298
f 299/299/299 300/300/300 298/298/298
f 299/299/299 301/301/301 300/300/300
f 301/301/301 302/302/302 300/300/300
f 301/301/301 292/292/292 302/302/302
f 292/292/292 303/303/303 302/302/302
f 292/292/292 293/293/293 303/303/303
f 293/293/293 295/295/295 303/303/303
f 293/293/293 294/294/294 295/295/295
f 295/295/295 305/305/305 304/304/304
f 295/295/295 296/296/296 305/305/305
f 296/296/296 306/306/306 305/305/305
f 296/296/296 298/298/298 306/306/306
f 298/298/298 307/307/307 306/306/306
f 298/298/298 300/300/300 307/307/307
f 300/300/300 308/308/308 307/307/307
f 300/300/300 302/302/302 308/308/308
f 302/302/302 309/309/309 308/308/308
f 302/302/302 303/303/303 309/309/309
f 303/303/303 304/304/304 309/309/309
f 303/303/303 295/295/295 304/304/304
f 304/304/304 311/311/311 310/310/310
f 304/304/304 305/305/305 311/311/311
f 305/305/305 312/312/312 311/311/311
f 305/305/305 306/306/306 312/312/312
f 306/306/306 313/313/313 312/312/312
f 306/306/306 307/307/307 313/313/313
f 307/307/307 314/314/314 313/313/313
f 307/307/307 308/308/308 314/314/314
f 308/308/308 315/315/315 314/314/314
f 308/308/308 309/309/309 315/315/315
f 309/309/309 310/310/310 315/315/315
f 309/309/309 304/304/304 310/310/310
f 316/316/316 294/294/294 289/289/289
f 290/290/290 316/316/316 289/289/289
f 289/289/289 294/294/294 293/293/293
f 301/301/301 299/299/299 290/290/290
f 290/290/290 291/291/291 301/301/301
f 292/292/292 301/301/301 291/291/291
f 294/294/294 316/316/316 297/297/297
f 299/299/299 297/297/297 316/316/316
f 316/316/316 290/290/290 299/299/299
f 317/317/317 319/319/319 318/318/318
f 317/317/317 320/320/320 319/319/319
f 320/320/320 321/321/321 319/319/319
f 320/320/320 322/322/322 321/321/321
f 318/318/318 319/319/319 323/323/323
f 319/319/319 321/321/321 323/323/323
f 324/324/324 326/326/326 325/325/325
f 324/324/324 327/327/327 326/326/326
f 325/325/325 326/326/326 328/328/328
f 329/329/329 331/331/331 330/330/330
f 329/329/329 332/332/332 331/331/331
f 330/330/330 331/331/331 333/333/333
f 327/327/327 329/329/329 330/330/330
f 327/327/327 330/330/330 326/326/326
f 326/326/326 330/330/330 333/333/333
f 326/326/326 333/333/333 328/328/328
f 334/334/334 336/336/336 335/335/335
f 335/335/335 338/338/338 337/337/337
f 339/339/339 334/334/334 335/335/335
f 336/336/336 340/340/340 335/335/335
f 340/340/340 338/338/338 335/335/335
f 339/339/339 335/335/335 337/337/337
f 341/341/341 343/343/343 342/342/342
f 344/344/344 341/341/341 342/342/342
f 344/344/344 342/342/342 345/345/345
f 345/345/345 342/342/342 346/346/346
f 346/346/346 342/342/342 347/347/347
f 342/342/342 343/343/343 348/348/348
f 342/342/342 348/348/348 349/349/349
f 349/349/349 347/347/347 342/342/342
f 350/350/350 352/352/352 351/351/351
f 351/351/351 353/353/353 350/350/350
f 354/354/354 356/356/356 355/355/355
f 355/355/355 357/357/357 354/354/354
f 358/358/358 354/354/354 357/357/357
f 357/357/357 359/359/359 358/358/358
f 356/356/356 361/361/361 360/360/360
f 360/360/360 355/355/355 356/356/356
f 361/361/361 363/363/363 362/362/362
f 362/362/362 360/360/360 361/361/361
f 363/363/363 358/358/358 359/359/359
f 359/359/359 362/362/362 363/363/363
f 364/364/364 365/365/365 357/357/357
f 357/357/357 355/355/355 364/364/364
f 359/359/359 357/357/357 365/365/365
f 365/365/365 366/366/366 359/359/359
f 355/355/355 360/360/360 367/367/367
f 367/367/367 364/364/364 355/355/355
f 360/360/360 362/362/362 368/368/368
f 368/368/368 367/367/367 360/360/360
f 362/362/362 359/359/359 366/366/366
f 366/366/366 368/368/368 362/362/362
f 365/365/365 364/364/364 369/369/369
f 370/370/370 369/369/369 364/364/364
f 364/364/364 367/367/367 370/370/370
f 368/368/368 370/370/370 367/367/367
f 365/365/365 369/369/369 371/371/371
f 371/371/371 372/372/372 365/365/365
f 369/369/369 370/370/370 373/373/373
f 373/373/373 371/371/371 369/369/369
f 366/366/366 365/365/365 372/372/372
f 372/372/372 374/374/374 366/366/366
f 375/375/375 377/377/377 376/376/376
f 376/376/376 378/378/378 375/375/375
f 372/372/372 371/371/371 379/379/379
f 371/371/371 373/373/373 380/380/380
f 380/380/380 379/379/379 371/371/371
f 381/381/381 380/380/380 373/373/373
f 372/372/372 379/379/379 352/352/352
f 352/352/352 350/350/350 372/372/372
f 379/379/379 380/380/380 351/351/351
f 351/351/351 352/352/352 379/379/379
f 374/374/374 372/372/372 350/350/350
f 350/350/350 353/353/353 374/374/374
f 380/380/380 381/381/381 353/353/353
f 353/353/353 351/351/351 380/380/380
f 381/381/381 374/374/374 353/353/353
f 368/368/368 366/366/366 382/382/382
f 382/382/382 383/383/383 368/368/368
f 366/366/366 374/374/374 384/384/384
f 384/384/384 382/382/382 366/366/366
f 374/374/374 381/381/381 385/385/385
f 385/385/385 384/384/384 374/374/374
f 383/383/383 382/382/382 377/377/377
f 377/377/377 375/375/375 383/383/383
f 382/382/382 384/384/384 376/376/376
f 376/376/376 377/377/377 382/382/382
f 384/384/384 385/385/385 378/378/378
f 378/378/378 376/376/376 384/384/384
f 385/385/385 383/383/383 375/375/375
f 375/375/375 378/378/378 385/385/385
f 373/373/373 385/385/385 381/381/381
f 373/373/373 370/370/370 385/385/385
f 370/370/370 368/368/368 385/385/385
f 385/385/385 368/368/368 383/383/383
f 386/386/386 388/388/388 387/387/387
f 386/386/386 389/389/389 388/388/388
f 390/390/390 392/392/392 391/391/391
f 390/390/390 393/393/393 392/392/392
f 393/393/393 394/394/394 392/392/392
f 393/393/393 395/395/395 394/394/394
f 395/395/395 396/396/396 394/394/394
f 395/395/395 397/397/397 396/396/396
f 391/391/391 396/396/396 398/398/398
f 396/396/396 397/397/397 398/398/398
f 390/390/390 391/391/391 398/398/398
f 389/389/389 386/386/386 399/399/399
f 398/398/398 400/400/400 390/390/390
f 398/398/398 397/397/397 400/400/400
f 401/401/401 403/403/403 402/402/402
f 404/404/404 406/406/406 405/405/405
f 407/407/407 401/401/401 406/406/406
f 401/401/401 402/402/402 406/406/406
f 404/404/404 408/408/408 407/407/407
f 407/407/407 406/406/406 404/404/404
f 409/409/409 411/411/411 410/410/410
f 412/412/412 410/410/410 411/411/411
f 413/413/413 410/410/410 414/414/414
f 412/412/412 414/414/414 410/410/410
f 409/409/409 416/416/416 415/415/415
f 416/416/416 409/409/409 410/410/410
f 413/413/413 417/417/417 410/410/410
f 417/417/417 416/416/416 410/410/410
f 418/418/418 420/420/420 419/419/419
f 419/419/419 420/420/420 421/421/421
f 422/422/422 424/424/424 423/423/423
f 420/420/420 418/418/418 425/425/425
f 424/424/424 426/426/426 425/425/425
f 423/423/423 424/424/424 425/425/425
f 420/420/420 425/425/425 427/427/427
f 425/425/425 429/429/429 428/428/428
f 430/430/430 431/431/431 427/427/427
f 430/430/430 425/425/425 428/428/428
f 422/422/422 432/432/432 424/424/424
f 426/426/426 424/424/424 432/432/432
f 433/433/433 429/429/429 434/434/434
f 429/429/429 433/433/433 428/428/428
f 435/435/435 430/430/430 436/436/436
f 430/430/430 435/435/435 431/431/431
f 425/425/425 418/418/418 423/423/423
f 425/425/425 430/430/430 427/427/427
f 433/433/433 430/430/430 428/428/428
f 430/430/430 433/433/433 436/436/436
f 437/437/437 439/439/439 438/438/438
f 440/440/440 442/442/442 441/441/441
f 443/443/443 445/445/445 444/444/444
f 446/446/446 445/445/445 443/443/443
f 447/447/447 444/444/444 448/448/448
f 448/448/448 444/444/444 445/445/445
f 449/449/449 444/444/444 447/447/447
f 450/450/450 452/452/452 451/451/451
f 453/453/453 455/455/455 454/454/454
f 456/456/456 454/454/454 450/450/450
f 450/450/450 454/454/454 452/452/452
f 453/453/453 456/456/456 457/457/457
f 456/456/456 453/453/453 454/454/454
f 458/458/458 460/460/460 459/459/459
f 461/461/461 459/459/459 460/460/460
f 462/462/462 463/463/463 460/460/460
f 461/461/461 460/460/460 463/463/463
f 458/458/458 465/465/465 464/464/464
f 464/464/464 460/460/460 458/458/458
f 462/462/462 460/460/460 466/466/466
f 466/466/466 460/460/460 464/464/464
f 467/467/467 469/469/469 468/468/468
f 469/469/469 470/470/470 468/468/468
f 422/422/422 472/472/472 471/471/471
f 468/468/468 473/473/473 467/467/467
f 471/471/471 473/473/473 426/426/426
f 472/472/472 473/473/473 471/471/471
f 468/468/468 474/474/474 473/473/473
f 473/473/473 476/476/476 475/475/475
f 477/477/477 474/474/474 478/478/478
f 477/477/477 476/476/476 473/473/473
f 422/422/422 471/471/471 432/432/432
f 426/426/426 432/432/432 471/471/471
f 433/433/433 434/434/434 475/475/475
f 475/475/475 476/476/476 433/433/433
f 435/435/435 436/436/436 477/477/477
f 477/477/477 478/478/478 435/435/435
f 473/473/473 472/472/472 467/467/467
f 473/473/473 474/474/474 477/477/477
f 433/433/433 476/476/476 477/477/477
f 477/477/477 436/436/436 433/433/433
f 479/479/479 481/481/481 480/480/480
f 482/482/482 484/484/484 483/483/483
f 485/485/485 487/487/487 486/486/486
f 488/488/488 485/485/485 486/486/486
f 489/489/489 490/490/490 487/487/487
f 490/490/490 486/486/486 487/487/487
f 491/491/491 489/489/489 487/487/487

g skin_special_01
# texture: skin_special_01.jpg
v 0.124088 109.9631 7.129807
v 7.176989 113.6906 6.292707
v 6.383386 123.7974 9.448807
v 2.028085 121.0943 11.40351
v 7.616591 121.1085 -0.133298
v 5.430587 127.2105 3.228402
v -3.365218 122.0876 11.5534
v -6.930015 113.6906 6.292705
v -6.153417 125.1788 5.729301
v -7.374314 121.0851 -0.095501
v 1.393683 120.0586 16.46791
v 4.859984 120.6666 15.71951
v 1.195881 126.3935 19.47121
v -3.534719 127.8588 18.61191
v 4.181381 126.9171 18.82671
v 7.411084 129.7786 16.24881
v 0.78348 132.0101 20.03821
v -4.197322 131.7698 19.32711
v 2.93308 132.3872 19.57411
v 3.02548 126.764 20.67661
v 6.991881 133.7322 16.91151
v -0.437122 134.3506 21.81031
v -5.220523 135.3442 20.56251
v 3.926681 135.116 20.86821
v 7.199481 137.5225 17.88111
v -2.463424 141.7084 22.56641
v 2.650079 142.5537 21.44991
v 5.959678 143.8003 19.08661
v 7.755185 131.781 10.82051
v 7.897484 137.1652 11.96261
v -8.073922 134.364 15.4106
v -6.656721 129.2533 13.9319
vn 0.123093 -0.373681 0.919353
vn 0.890968 0.008699 0.453984
vn 0.913954 -0.353682 0.19899
vn 0.228894 -0.941174 0.248593
vn 0.94274 0.184708 0.277712
vn 0.998357 0.056097 -0.011699
vn -0.653687 -0.543989 0.526089
vn -0.824166 -0.093496 0.558577
vn -0.955094 -0.105199 0.276998
vn -0.985218 0.074202 0.154403
vn -0.111696 -0.809371 0.576579
vn 0.638206 -0.715407 0.284403
vn -0.140897 -0.491189 0.859582
vn -0.576705 -0.370503 0.728106
vn 0.572701 -0.325201 0.752501
vn 0.929004 -0.140401 0.342402
vn -0.037801 -0.286904 0.957213
vn -0.443211 -0.399409 0.802519
vn 0.578007 -0.161402 0.799911
vn 0.256396 -0.307996 0.916188
vn 0.865713 -0.060201 0.496908
vn 0.0057 -0.311599 0.950197
vn -0.477319 -0.335813 0.812032
vn 0.492992 -0.264396 0.828887
vn 0.803995 -0.215799 0.554097
vn -0.0326 -0.110998 0.993286
vn 0.34229 -0.0151 0.939473
vn 0.626224 0.0133 0.77953
vn 0.997721 -0.067302 0.0048
vn 0.988744 -0.070803 0.131806
vn -0.789507 -0.331203 0.516704
vn -0.83433 -0.437715 0.335112
vt 0.7538 0.754
vt 0.8357 0.7542
vt 0.8088 0.8195
vt 0.7515 0.7968
vt 0.8871 0.7544
vt 0.8823 0.8252
vt 0.692 0.8195
vt 0.6874 0.7542
vt 0.6068 0.8252
vt 0.6024 0.7544
vt 0.7354 0.811
vt 0.7681 0.811
vt 0.7427 0.8594
vt 0.7165 0.874
vt 0.7606 0.8594
vt 0.7857 0.874
vt 0.7442 0.8952
vt 0.7126 0.9023
vt 0.758 0.8952
vt 0.7518 0.8624
vt 0.7895 0.9023
vt 0.7379 0.9162
vt 0.7088 0.9229
vt 0.7643 0.9162
vt 0.7934 0.9229
vt 0.7401 0.981
vt 0.7668 0.981
vt 0.7943 0.9821
vt 0.8136 0.8741
vt 0.8173 0.9091
vt 0.6855 0.9082
vt 0.6892 0.8731
f 492/492/492 494/494/494 493/493/493
f 494/494/494 492/492/492 495/495/495
f 493/493/493 497/497/497 496/496/496
f 497/497/497 493/493/493 494/494/494
f 492/492/492 499/499/499 498/498/498
f 498/498/498 495/495/495 492/492/492
f 499/499/499 501/501/501 500/500/500
f 500/500/500 498/498/498 499/499/499
f 498/498/498 502/502/502 495/495/495
f 503/503/503 495/495/495 502/502/502
f 495/495/495 503/503/503 494/494/494
f 504/504/504 502/502/502 505/505/505
f 502/502/502 506/506/506 503/503/503
f 506/506/506 502/502/502 504/504/504
f 507/507/507 503/503/503 506/506/506
f 505/505/505 508/508/508 504/504/504
f 508/508/508 505/505/505 509/509/509
f 510/510/510 511/511/511 508/508/508
f 506/506/506 512/512/512 507/507/507
f 512/512/512 506/506/506 510/510/510
f 509/509/509 513/513/513 508/508/508
f 513/513/513 509/509/509 514/514/514
f 508/508/508 515/515/515 510/510/510
f 515/515/515 508/508/508 513/513/513
f 510/510/510 516/516/516 512/512/512
f 516/516/516 510/510/510 515/515/515
f 514/514/514 517/517/517 513/513/513
f 513/513/513 518/518/518 515/515/515
f 518/518/518 513/513/513 517/517/517
f 515/515/515 519/519/519 516/516/516
f 519/519/519 515/515/515 518/518/518
f 520/520/520 497/497/497 494/494/494
f 494/494/494 507/507/507 520/520/520
f 507/507/507 494/494/494 503/503/503
f 520/520/520 512/512/512 521/521/521
f 512/512/512 520/520/520 507/507/507
f 516/516/516 521/521/521 512/512/512
f 522/522/522 505/505/505 523/523/523
f 505/505/505 522/522/522 509/509/509
f 504/504/504 511/511/511 506/506/506
f 508/508/508 511/511/511 504/504/504
f 510/510/510 506/506/506 511/511/511
f 505/505/505 498/498/498 523/523/523
f 505/505/505 502/502/502 498/498/498
f 523/523/523 498/498/498 500/500/500
f 514/514/514 509/509/509 522/522/522

g ju01_R
# texture: ju01_R.jpg
v 1.548601 86.6586 -13.95399
v -71.91889 290.8626 -35.83629
v -72.3849 58.7912 -25.7861
v -145.8524 262.9952 -47.66847
v 3.495801 86.6358 -14.4752
v 61.0059 57.23221 -61.49409
v 60.64341 289.3132 -71.32245
v 118.1535 259.9096 -118.3413
vn -0.173596 0.042999 0.983878
vn -0.173596 0.042999 0.983878
vn -0.173596 0.042999 0.983878
vn -0.173596 0.042999 0.983878
vn 0.642803 0.0334 0.765303
vn 0.642803 0.0334 0.765303
vn 0.642803 0.0334 0.765303
vn 0.642803 0.0334 0.765303
vt 0.4584 0.6638
vt 0.4584 0.0005
vt 0.7745 0.6638
vt 0.7745 0.0005
vt 0.4584 0.6638
vt 0.7745 0.6638
vt 0.4584 0.0005
vt 0.7745 0.0005
f 524/524/524 526/526/526 525/525/525
f 527/527/527 525/525/525 526/526/526
f 528/528/528 530/530/530 529/529/529
f 531/531/531 529/529/529 530/530/530
