# Inferno01.bmd — MU geometry at action 0 key 1, exported for MU2
# 2 mesh(es)

g ring3
# texture: ring3.jpg
v -59.57624 245.0107 -336.113
v -59.5761 139.1934 -336.113
v 34.26205 245.0107 -334.8027
v 34.26213 139.1934 -334.8026
v 124.74 245.0108 -309.8808
v 124.74 139.1935 -309.8808
v 206.0142 245.0108 -262.957
v 206.0142 139.1935 -262.957
v 272.836 245.0108 -197.0619
v 272.836 139.1935 -197.0617
v 320.89 245.0108 -116.4506
v 320.8898 139.1935 -116.4505
v -54.66995 161.755 -293.0514
v -64.48241 222.4492 -379.1747
v 28.15541 161.7549 -291.8947
v 40.36885 222.4492 -377.7105
v 108.0147 161.755 -269.8978
v 141.4653 222.4493 -349.8638
v 179.7505 161.7549 -228.4811
v 232.2779 222.4493 -297.4331
v 238.7301 161.755 -170.3193
v 306.942 222.4493 -223.8043
v 281.1443 161.755 -99.16869
v 360.6355 222.4493 -133.7325
v -54.98807 226.1111 -295.8431
v -64.16429 158.0931 -376.3829
v 28.55129 226.1111 -294.6765
v 39.9729 158.093 -374.9287
v 109.0991 226.1111 -272.49
v 140.3809 158.0931 -347.2716
v 181.4532 226.1112 -230.7162
v 230.5752 158.0931 -295.1979
v 240.9412 226.1111 -172.0531
v 304.7308 158.0931 -222.0705
v 283.721 226.1111 -100.2891
v 358.0587 158.0931 -132.612
v 236.2233 226.0919 -91.97758
v 236.2233 158.1123 -91.97758
v 248.694 226.0919 -23.76181
v 248.694 158.1123 -23.76181
v 242.0254 226.0919 48.37556
v 242.0255 158.1123 48.3756
v 216.856 226.0919 117.528
v 216.856 158.1123 117.528
v 175.5953 226.0919 177.075
v 175.5953 158.1123 177.075
v 122.1938 226.0919 221.3152
v 122.194 158.1123 221.3152
v 209.4041 172.6064 -76.35622
v 263.0424 211.5979 -107.599
v 220.0906 172.6064 -17.90095
v 277.2976 211.5979 -29.62262
v 214.3761 172.6064 43.91468
v 269.6748 211.5979 52.83639
v 192.808 172.6064 103.1726
v 240.9041 211.5979 131.8835
v 157.4511 172.6064 154.1993
v 193.7397 211.5979 199.9506
v 111.6906 172.6064 192.1094
v 132.6973 211.5978 250.5208
v 211.1428 213.9504 -77.36903
v 261.3036 170.2539 -106.5863
v 221.945 213.9504 -18.28093
v 275.4431 170.2539 -29.24268
v 216.1687 213.9504 44.2039
v 267.8822 170.2539 52.54718
v 194.3671 213.9503 104.1033
v 239.3449 170.2539 130.9529
v 158.6275 213.9503 155.6824
v 192.5633 170.2539 198.4675
v 112.3714 213.9503 194.0029
v 132.0163 170.2539 248.6273
v 88.66345 245.0107 329.6519
v 88.66354 139.1934 329.6519
v -4.931974 245.0107 336.5251
v -4.931974 139.1934 336.5251
v -97.23762 245.0107 319.5837
v -97.23753 139.1934 319.5838
v -182.2922 245.0107 279.922
v -182.2922 139.1934 279.922
v -254.6029 245.0107 220.1014
v -254.6029 139.1934 220.1014
v -309.4996 245.0107 143.9851
v -309.4996 139.1934 143.9851
v 80.02281 161.7549 287.1817
v 97.30403 222.4493 372.1221
v -2.588097 161.7549 293.2482
v -7.275688 222.4492 379.8019
v -84.06065 161.7549 278.2952
v -110.4145 222.4492 360.8723
v -159.1332 161.7549 243.2883
v -205.4512 222.4492 316.556
v -222.9575 161.7549 190.4882
v -286.2483 222.4492 249.7146
v -271.4115 161.7549 123.3049
v -347.5877 222.4492 164.6653
v 80.58305 226.1111 289.9351
v 96.74387 158.0931 369.3686
v -2.740086 226.1111 296.054
v -7.123783 158.093 376.9962
v -84.91504 226.1111 280.972
v -109.5601 158.093 358.1956
v -160.6347 226.1111 245.6633
v -203.9497 158.093 314.1808
v -225.0091 226.111 192.4081
v -284.1966 158.093 247.7948
v -273.8809 226.1111 124.6457
v -345.1184 158.093 163.3245
v -239.364 226.0918 -82.06836
v -239.364 158.1122 -82.06836
v -205.069 226.0919 -142.3407
v -205.069 158.1122 -142.3407
v -153.5915 226.0919 -193.3147
v -153.5915 158.1122 -193.3147
v -89.86027 226.0919 -230.11
v -89.86027 158.1123 -230.11
v -19.97678 226.0919 -249.2037
v -19.97678 158.1123 -249.2037
v 49.3682 226.0919 -248.7679
v 49.36815 158.1123 -248.7678
v -208.7782 172.6063 -76.79605
v -269.9499 211.5978 -87.34065
v -179.3901 172.6063 -128.4444
v -230.7478 211.5978 -156.2371
v -135.2783 172.6063 -172.1249
v -171.9048 211.5978 -214.5045
v -80.66594 172.6063 -203.6552
v -99.05452 211.5978 -256.5647
v -20.78164 172.6063 -220.017
v -19.17188 211.5978 -278.3904
v 38.64114 172.6063 -219.6435
v 60.09521 211.5978 -277.8922
v -210.7611 213.9503 -77.13783
v -267.967 170.2538 -86.99893
v -181.055 213.9503 -129.3454
v -229.083 170.2538 -155.3362
v -136.4656 213.9503 -173.4987
v -170.7175 170.2538 -213.1308
v -81.26202 213.9503 -205.3704
v -98.45843 170.2538 -254.8495
v -20.72945 213.9503 -221.9093
v -19.22398 170.2539 -276.4982
v 39.33662 213.9503 -221.5317
v 59.39971 170.2539 -276.004
v -73.26936 229.1529 -78.25233
v -73.26936 155.0512 -78.25233
v -40.40778 229.153 -96.23484
v -40.40778 155.0512 -96.23484
v -7.187834 229.153 -103.8931
v -7.18778 155.0512 -103.8932
v 25.53572 229.153 -101.0301
v 25.53577 155.0512 -101.0302
v 56.92122 229.153 -87.71958
v 56.92122 155.0512 -87.71958
v 86.16083 229.153 -64.30387
v 86.16083 155.0513 -64.30387
v -69.80914 170.8506 -49.90522
v -76.72963 213.3536 -106.5993
v -39.37778 170.8506 -66.55788
v -41.43784 213.3536 -125.9117
v -8.614475 170.8506 -73.64986
v -5.761144 213.3536 -134.1364
v 21.68909 170.8506 -70.99857
v 29.38249 213.3536 -131.0617
v 50.75339 170.8506 -58.67241
v 63.08895 213.3536 -116.7668
v 77.83072 170.8506 -36.98832
v 94.491 213.3536 -91.61936
v -70.03349 215.9179 -51.74302
v -76.50527 168.2862 -104.7616
v -39.4445 215.9179 -68.48191
v -41.37107 168.2862 -123.9878
v -8.522057 215.9179 -75.61053
v -5.853699 168.2862 -132.1756
v 21.93839 215.918 -72.94556
v 29.13305 168.2862 -129.1147
v 51.15325 215.918 -60.55558
v 62.68905 168.2863 -114.8835
v 78.37075 215.9179 -38.75927
v 93.9509 168.2863 -89.84845
v 42.76015 229.153 97.66941
v 42.7601 155.0512 97.6695
v 5.729977 229.153 103.3281
v 5.729977 155.0512 103.3281
v -28.10587 229.153 99.16276
v -28.10587 155.0512 99.16276
v -57.87679 229.1529 85.28029
v -57.87679 155.0512 85.28029
v -82.817 229.1529 62.03801
v -82.81691 155.0512 62.03806
v -102.2847 229.1529 30.03381
v -102.2846 155.0512 30.03386
v 49.20383 170.8506 69.84845
v 36.31651 213.3536 125.4905
v 14.91211 170.8506 75.08864
v -3.452161 213.3536 131.5677
v -16.42141 170.8506 71.23129
v -39.7903 213.3536 127.0941
v -43.9907 170.8506 58.37549
v -71.76289 213.3536 112.1851
v -67.08646 170.8506 36.85212
v -98.54747 213.3536 87.22395
v -85.11446 170.8506 7.214746
v -119.4548 213.3536 52.85302
v 48.78603 215.918 71.65209
v 36.73421 168.2863 123.6868
v 14.31684 215.9179 76.91948
v -2.856882 168.2862 129.7368
v -17.17892 215.9179 73.04214
v -39.03277 168.2862 125.2833
v -44.89093 215.9179 60.11975
v -70.8626 168.2862 110.4408
v -68.10631 215.9179 38.48495
v -97.52761 168.2862 85.59112
v -86.22761 215.9179 8.694174
v -118.3417 168.2862 51.37358
v 336.2358 12.2553 -58.97464
v 336.2358 118.0726 -58.97478
v 302.9099 12.2553 -146.7057
v 302.91 118.0726 -146.7057
v 248.5458 12.2553 -223.2034
v 248.5458 118.0726 -223.2034
v 176.6545 12.2552 -283.5274
v 176.6545 118.0726 -283.5274
v 91.87881 12.2552 -323.7819
v 91.87875 118.0726 -323.782
v -0.306473 12.2552 -341.3672
v -0.306343 118.0726 -341.3672
v 294.0929 95.51111 -48.85709
v 378.3786 34.8168 -69.09228
v 264.6783 95.51111 -126.2919
v 341.1415 34.8168 -167.1195
v 216.6944 95.51111 -193.8118
v 280.3971 34.8168 -252.595
v 153.2404 95.51111 -247.0561
v 200.0686 34.8168 -319.9987
v 78.41394 95.51111 -282.5863
v 105.3435 34.8168 -364.9775
v -2.952263 95.51111 -298.1077
v 2.339447 34.8168 -384.6266
v 296.8252 31.15491 -49.51299
v 375.6463 99.173 -68.43636
v 267.1569 31.15491 -127.6154
v 338.6628 99.173 -165.7961
v 218.7594 31.15491 -195.7173
v 278.3322 99.173 -250.6895
v 154.7583 31.15491 -249.4206
v 198.5507 99.173 -317.6342
v 79.28694 31.15491 -285.2572
v 104.4706 99.173 -362.3067
v -2.78072 31.15491 -300.9124
v 2.167908 99.173 -381.8221
v 5.65414 31.1741 -253.4363
v 5.65414 99.15381 -253.4363
v -62.71298 31.1741 -241.8239
v -62.71298 99.15381 -241.8239
v -128.2192 31.1741 -210.885
v -128.2192 99.15381 -210.885
v -184.5929 31.1741 -163.582
v -184.5929 99.1537 -163.582
v -226.4367 31.1741 -104.4433
v -226.4367 99.1537 -104.4433
v -249.7446 31.1741 -39.13133
v -249.7445 99.1537 -39.1314
v 0.14753 84.6597 -222.8917
v 11.16081 45.6682 -283.9809
v -58.4374 84.6597 -212.9408
v -66.98858 45.6682 -270.7069
v -114.5707 84.6597 -186.4288
v -141.8676 45.6682 -235.3413
v -162.8783 84.6597 -145.894
v -206.3076 45.6682 -181.2698
v -198.7349 84.6597 -95.2172
v -254.1385 45.6682 -113.6694
v -218.7078 84.6597 -39.25033
v -280.7813 45.6682 -39.01239
v 0.504555 43.3157 -224.8719
v 10.80372 87.01221 -282.0006
v -58.71458 43.3157 -214.8134
v -66.7114 87.01221 -268.8344
v -115.4556 43.3157 -188.0144
v -140.9828 87.01221 -233.7557
v -164.2861 43.3157 -147.0408
v -204.8997 87.01221 -180.123
v -200.5309 43.3157 -95.81533
v -252.3426 87.01221 -113.0713
v -220.72 43.3157 -39.24263
v -278.7692 87.01221 -39.02012
v -340.0798 12.2553 29.43031
v -340.0798 118.0726 29.43031
v -314.527 12.2553 119.732
v -314.527 118.0726 119.732
v -267.0369 12.2553 200.6767
v -267.0369 118.0726 200.6767
v -200.6767 12.2552 267.037
v -200.6767 118.0726 267.037
v -119.732 12.2552 314.5269
v -119.732 118.0726 314.5269
v -29.43034 12.2552 340.0798
v -29.43041 118.0726 340.0798
v -297.2156 95.51111 23.02412
v -382.944 34.8168 35.8364
v -274.6616 95.51111 102.728
v -354.3922 34.8168 136.7359
v -232.7451 95.51111 174.173
v -301.3288 34.8168 227.1805
v -174.1731 95.51111 232.7451
v -227.1806 34.8168 301.3289
v -102.7281 95.51111 274.6616
v -136.7361 34.8168 354.3923
v -23.02421 95.51111 297.2156
v -35.83645 34.8168 382.9439
v -299.9945 31.15491 23.43947
v -380.1649 99.173 35.42105
v -277.2463 31.15491 103.8304
v -351.8077 99.173 135.6337
v -234.9684 31.15491 175.8913
v -299.1056 99.173 225.4622
v -175.8913 31.15491 234.9683
v -225.4622 99.173 299.1055
v -103.8305 31.15491 277.2462
v -135.6336 99.173 351.8077
v -23.43958 31.15491 299.9945
v -35.42108 99.173 380.165
v 159.0028 31.1741 196.859
v 159.0028 99.15381 196.859
v 203.9108 31.1741 144.0179
v 203.9108 99.15381 144.0179
v 234.2043 31.1741 78.21077
v 234.2043 99.15381 78.21077
v 246.9831 31.1741 5.738121
v 246.9831 99.1537 5.738121
v 241.0239 31.1741 -66.46136
v 241.0239 99.1537 -66.46136
v 216.897 31.1741 -131.4752
v 216.897 99.1537 -131.4752
v 143.5875 84.6597 169.9209
v 174.4181 45.6682 223.7971
v 182.0698 84.6597 124.6405
v 225.7517 45.6682 163.3952
v 208.0288 84.6597 68.24925
v 260.3798 45.6682 88.17221
v 218.9792 84.6597 6.146347
v 274.9871 45.6682 5.329979
v 213.8727 84.6597 -55.72253
v 268.1751 45.6682 -77.20011
v 193.1979 84.6597 -111.434
v 240.5961 45.6682 -151.5164
v 144.5868 43.3157 171.6674
v 173.4187 87.01221 222.0507
v 183.4858 43.3157 125.8968
v 224.3357 87.01221 162.1389
v 209.7259 43.3157 68.89513
v 258.6828 87.01221 87.52634
v 220.7948 43.3157 6.119896
v 273.1716 87.01221 5.35643
v 215.6329 43.3157 -56.41875
v 266.4149 87.01221 -76.50391
v 194.7344 43.3157 -112.7333
v 239.0596 87.01221 -150.2171
v 98.60915 28.1131 42.08616
v 98.60923 102.2148 42.08609
v 104.268 28.1131 5.055973
v 104.268 102.2148 5.055973
v 100.1025 28.1131 -28.77987
v 100.1025 102.2148 -28.77987
v 86.22009 28.11301 -58.55083
v 86.22009 102.2148 -58.55083
v 62.97785 28.11301 -83.49099
v 62.97785 102.2148 -83.49099
v 30.9737 28.11301 -102.9587
v 30.9737 102.2148 -102.9587
v 70.78817 86.41541 48.52988
v 126.4303 43.9124 35.64245
v 76.0284 86.4155 14.23817
v 132.5074 43.9124 -4.126238
v 72.17107 86.4155 -17.0955
v 128.034 43.9124 -40.46431
v 59.31531 86.4155 -44.66475
v 113.1249 43.9124 -72.437
v 37.7919 86.4155 -67.76049
v 88.1638 43.9124 -99.2215
v 8.15451 86.4155 -85.78846
v 53.79275 43.9124 -120.1289
v 72.59187 41.3481 48.11213
v 124.6265 88.9798 36.06027
v 77.85932 41.3481 13.64286
v 130.6767 88.9798 -3.530918
v 73.98197 41.3481 -17.85295
v 126.2232 88.9798 -39.70678
v 61.05952 41.3481 -45.56496
v 111.3806 88.9798 -71.53664
v 39.42467 41.3481 -68.78034
v 86.53086 88.9798 -98.20164
v 9.633989 41.3481 -86.90166
v 52.31342 88.9798 -119.0158
v -106.3877 28.1131 -6.777275
v -106.3877 102.2148 -6.777275
v -99.04007 28.1131 29.95516
v -99.04007 102.2148 29.95516
v -83.5533 28.1131 60.32582
v -83.5533 102.2148 60.32582
v -60.32577 28.11301 83.55322
v -60.32577 102.2148 83.55322
v -29.95518 28.11301 99.04006
v -29.95518 102.2148 99.04006
v 6.777252 28.11301 106.3877
v 6.777252 102.2148 106.3877
v -82.44836 86.41541 -22.34769
v -130.327 43.9124 8.79314
v -75.64403 86.4155 11.66824
v -122.436 43.9124 48.24205
v -61.30262 86.4155 39.79285
v -105.804 43.9124 80.85864
v -39.79286 86.4155 61.30262
v -80.85873 43.9124 105.8039
v -11.66826 86.4155 75.64402
v -48.24209 43.9124 122.4359
v 22.34761 86.4155 82.4483
v -8.793169 43.9124 130.327
v -84.00031 41.3481 -21.33823
v -128.775 88.9798 7.783739
v -77.16091 41.3481 12.85378
v -120.9192 88.9798 47.05645
v -62.74519 41.3481 41.12412
v -104.3614 88.9798 79.5275
v -41.12407 41.3481 62.74511
v -79.52753 88.9798 104.3614
v -12.85386 41.3481 77.16084
v -47.05649 88.9798 120.9192
v 21.33821 41.3481 84.00033
v -7.783699 88.9798 128.7749
v -200.9954 100.4298 -168.9823
v -200.9955 181.8277 -168.9822
v -236.2142 100.4298 -105.9658
v -236.2142 181.8277 -105.9658
v -254.4113 100.4298 -36.1065
v -254.4113 181.8277 -36.1065
v -254.4113 100.4298 36.08379
v -254.4113 181.8277 36.08379
v -236.2144 100.4298 105.9431
v -236.2143 181.8277 105.9431
v -200.9957 100.4297 168.9597
v -200.9957 181.8277 168.9597
v -174.1959 164.4727 -149.1517
v -227.795 117.7848 -188.8129
v -205.2815 164.4727 -93.53088
v -267.147 117.7848 -118.4007
v -221.3429 164.4727 -31.87029
v -287.4797 117.7848 -40.34272
v -221.3429 164.4727 31.84769
v -287.4798 117.7848 40.31997
v -205.2816 164.4727 93.50822
v -267.1472 117.7848 118.378
v -174.1962 164.4727 149.1291
v -227.7952 117.7848 188.7903
v -175.9334 114.968 -150.4373
v -226.0575 167.2895 -187.5273
v -207.287 114.968 -94.33698
v -265.1417 167.2895 -117.5945
v -223.4868 114.968 -32.14498
v -285.3358 167.2895 -40.068
v -223.4868 114.9679 32.12231
v -285.3358 167.2896 40.0454
v -207.287 114.968 94.31441
v -265.1417 167.2896 117.5718
v -175.9337 114.968 150.4148
v -226.0577 167.2896 187.5046
v -152.1283 114.9827 121.9697
v -152.1283 167.2748 121.9697
v -111.4813 114.9827 156.5144
v -111.4813 167.2748 156.5144
v -60.86035 114.9827 179.8171
v -60.86035 167.2748 179.8171
v -5.112259 114.9827 189.647
v -5.112259 167.2748 189.647
v 50.42575 114.9827 185.0629
v 50.42575 167.2748 185.0629
v 100.4364 114.9827 166.5038
v 100.4364 167.2748 166.5038
v -131.4066 156.1254 110.1117
v -172.8499 126.132 133.8277
v -96.57553 156.1255 139.7137
v -126.3869 126.132 173.315
v -53.19775 156.1255 159.6821
v -68.52306 126.132 199.9521
v -5.426254 156.1255 168.1055
v -4.798264 126.132 211.1885
v 42.16525 156.1255 164.1774
v 58.68633 126.132 205.9485
v 85.02014 156.1255 148.2737
v 115.8527 126.132 184.7339
v -132.75 124.3224 110.8805
v -171.5064 157.9351 133.0589
v -97.54193 124.3224 140.8029
v -125.4205 157.9351 172.2259
v -53.69455 124.3224 160.9875
v -68.02626 157.9351 198.6467
v -5.405853 124.3224 169.5022
v -4.818665 157.9351 209.7919
v 42.70074 124.3224 165.5314
v 58.15085 157.9351 204.5945
v 86.01965 124.3224 149.4556
v 114.8532 157.9351 183.552
v 185.5038 100.4298 185.8348
v 185.5038 181.8277 185.8348
v 226.0808 100.4298 126.1276
v 226.0808 181.8277 126.1276
v 250.2973 100.4298 58.12008
v 250.2973 181.8277 58.12008
v 256.5891 100.4297 -13.79551
v 256.5891 181.8277 -13.79551
v 244.55 100.4297 -84.97491
v 244.55 181.8277 -84.97491
v 214.9576 100.4297 -150.8212
v 214.9576 181.8277 -150.8212
v 160.5346 164.4727 163.744
v 210.473 117.7848 207.9256
v 196.3495 164.4727 111.044
v 255.8121 117.7848 141.2112
v 217.7239 164.4727 51.01798
v 282.8706 117.7848 65.22231
v 223.2773 164.4727 -12.45762
v 289.9009 117.7848 -15.1334
v 212.6511 164.4727 -75.28333
v 276.4489 117.7848 -94.66651
v 186.5317 164.4727 -133.4018
v 243.3834 117.7848 -168.2406
v 162.1534 114.968 165.1761
v 208.8542 167.2896 206.4934
v 198.277 114.968 112.0219
v 253.8846 167.2896 140.2333
v 219.8357 114.968 51.47837
v 280.7589 167.2896 64.76183
v 225.437 114.9679 -12.54433
v 287.7412 167.2896 -15.04673
v 214.7192 114.968 -75.91163
v 274.3808 167.2896 -94.03819
v 188.3746 114.968 -134.5312
v 241.5406 167.2896 -167.1112
v 37.39159 114.9827 -191.0426
v 37.39148 167.2748 -191.0426
v -15.95073 114.9827 -191.3778
v -15.95073 167.2748 -191.3778
v -69.70731 114.9827 -176.6903
v -69.70731 167.2748 -176.6903
v -118.7314 114.9827 -148.3862
v -118.7313 167.2747 -148.3862
v -158.3295 114.9827 -109.1755
v -158.3295 167.2747 -109.1755
v -184.7103 114.9827 -62.81219
v -184.7103 167.2747 -62.81219
v 29.13997 156.1254 -168.6392
v 45.64311 126.132 -213.4459
v -16.56993 156.1255 -168.9265
v -15.33162 126.132 -213.8291
v -62.63473 156.1255 -156.3405
v -76.77983 126.132 -197.04
v -104.6442 156.1255 -132.0863
v -132.8185 126.132 -164.6861
v -138.5765 156.1255 -98.48605
v -178.0823 126.132 -119.865
v -161.1826 156.1255 -58.75646
v -208.2379 126.132 -66.86779
v 29.67497 124.3224 -170.0917
v 45.10811 157.9351 -211.9934
v -16.52974 124.3224 -170.3821
v -15.37172 157.9351 -212.3735
v -63.09323 124.3224 -157.6599
v -76.32133 157.9351 -195.7207
v -105.5575 124.3224 -133.1431
v -131.9052 157.9351 -163.6294
v -139.8571 124.3224 -99.17907
v -176.8018 157.9351 -119.172
v -162.708 124.3224 -59.01946
v -206.7126 157.9351 -66.60485
v -23.94896 112.6281 -78.92701
v -23.94906 169.6294 -78.92701
v -48.56757 112.6281 -63.95183
v -48.56757 169.6294 -63.95183
v -66.44627 112.6281 -44.76714
v -66.44627 169.6294 -44.76714
v -77.12508 112.6281 -21.86634
v -77.12508 169.6294 -21.86634
v -80.32919 112.6281 4.161164
v -80.32919 169.6294 4.161164
v -75.9763 112.6281 32.64596
v -75.9763 169.6294 32.64596
v -6.395771 157.4761 -65.71911
v -41.50225 124.7814 -92.13493
v -29.19377 157.4761 -51.85141
v -67.94136 124.7814 -76.05223
v -45.75028 157.4761 -34.08552
v -87.14227 124.7814 -55.44875
v -55.63929 157.4761 -12.87833
v -98.61078 124.7814 -30.85445
v -58.60649 157.4761 11.22437
v -102.0519 124.7814 -2.902045
v -54.57561 157.4761 37.60257
v -97.37709 124.7814 27.68925
v -7.533871 122.8089 -66.57541
v -40.36416 159.4486 -91.27862
v -30.44987 122.8089 -52.63591
v -66.68536 159.4486 -75.26773
v -47.09198 122.8089 -34.77803
v -85.80046 159.4486 -54.75623
v -57.03228 122.8089 -13.46103
v -97.21778 159.4486 -30.27174
v -60.01489 122.8089 10.76647
v -100.6436 159.4486 -2.444137
v -55.96301 122.8089 37.28127
v -95.98969 159.4486 28.01066
v 48.61848 112.6281 66.03111
v 48.61858 169.6295 66.03111
v 66.63058 112.6281 43.53902
v 66.63058 169.6295 43.53902
v 76.86949 112.6281 19.39642
v 76.86949 169.6295 19.39642
v 79.07182 112.6281 -5.775672
v 79.07182 169.6294 -5.775672
v 73.18081 112.6281 -31.32948
v 73.18081 169.6294 -31.32948
v 59.34803 112.6281 -56.60758
v 59.34803 169.6294 -56.60758
v 27.60658 157.4761 59.6233
v 69.63048 124.7814 72.43893
v 44.28659 157.4761 38.7945
v 88.97459 124.7814 48.28342
v 53.7683 157.4761 16.43741
v 99.9707 124.7814 22.35542
v 55.80771 157.4761 -6.873088
v 102.3359 124.7814 -4.678176
v 50.35241 157.4761 -30.53709
v 96.00921 124.7814 -32.12177
v 37.54263 157.4761 -53.94589
v 81.15353 124.7814 -59.26937
v 28.96889 122.8089 60.0387
v 68.26829 159.4486 72.02342
v 45.73529 122.8089 39.1021
v 87.52599 159.4486 47.97581
v 55.266 122.8089 16.62921
v 98.473 159.4486 22.16352
v 57.31601 122.8089 -6.801986
v 100.8276 159.4486 -4.749366
v 51.83242 122.8089 -30.58848
v 94.52922 159.4486 -32.07037
v 38.95633 122.8089 -54.11839
v 79.73982 159.4486 -59.09678
vn -0.013916 0 0.999903
vn -0.013916 0 0.999903
vn -0.098574 0 0.99513
vn -0.182976 0 0.983117
vn -0.34617 0 0.938172
vn -0.424941 0 0.905221
vn -0.571475 0 0.82062
vn -0.639396 0 0.768878
vn -0.759917 0 0.65002
vn -0.812521 0 0.582932
vn -0.858984 0 0.512003
vn -0.858984 0 0.512003
vn 0.008 -0.816965 -0.576632
vn 0.008001 -0.816931 -0.576679
vn 0.056549 -0.8189 -0.571144
vn 0.105013 -0.818879 -0.564278
vn 0.198716 -0.818929 -0.538393
vn 0.243858 -0.818888 -0.519573
vn 0.328034 -0.818888 -0.470973
vn 0.366904 -0.818929 -0.44129
vn 0.436173 -0.818879 -0.373083
vn 0.466351 -0.8189 -0.334544
vn 0.495419 -0.816931 -0.295269
vn 0.495419 -0.816931 -0.295269
vn -0.009015 -0.763465 0.645786
vn -0.009015 -0.763465 0.645786
vn -0.063367 -0.765798 0.639952
vn -0.117695 -0.76578 0.632241
vn -0.222625 -0.765747 0.603382
vn -0.273284 -0.765787 0.582139
vn -0.367506 -0.765787 0.52774
vn -0.411232 -0.765747 0.494489
vn -0.48869 -0.76578 0.418047
vn -0.522532 -0.765798 0.374853
vn -0.55476 -0.763465 0.3307
vn -0.55476 -0.763465 0.3307
vn -0.983697 0 0.179835
vn -0.983697 0 0.179835
vn -0.995942 0 0.089995
vn -0.999999 0 -0.001377
vn -0.984267 0 -0.176689
vn -0.965438 0 -0.260635
vn -0.90709 0 -0.420937
vn -0.867571 0 -0.497313
vn -0.766993 0 -0.641656
vn -0.70514 0 -0.709068
vn -0.637968 0 -0.770063
vn -0.637968 0 -0.770063
vn 0.546341 -0.831583 -0.099907
vn 0.546341 -0.831583 -0.099907
vn 0.555616 -0.829984 -0.049173
vn 0.563472 -0.826133 0.001877
vn 0.562324 -0.820698 0.101224
vn 0.553493 -0.819288 0.149706
vn 0.520274 -0.81928 0.241031
vn 0.495884 -0.820679 0.283874
vn 0.432838 -0.82614 0.360756
vn 0.394059 -0.829961 0.394819
vn 0.354337 -0.831595 0.427663
vn 0.354337 -0.831595 0.427663
vn -0.614681 -0.780721 0.112433
vn -0.614681 -0.780721 0.112433
vn -0.624818 -0.778801 0.055415
vn -0.632835 -0.774284 -0.001875
vn -0.630512 -0.767827 -0.113563
vn -0.620293 -0.766205 -0.16783
vn -0.583015 -0.766212 -0.270208
vn -0.555956 -0.767842 -0.318326
vn -0.485977 -0.774317 -0.40529
vn -0.443001 -0.778799 -0.444098
vn -0.398634 -0.780733 -0.481194
vn -0.398634 -0.780733 -0.481194
vn -0.073241 0 -0.997314
vn -0.073241 0 -0.997314
vn 0.011411 0 -0.999935
vn 0.096614 0 -0.995322
vn 0.26314 0 -0.964758
vn 0.344349 0 -0.938842
vn 0.497834 0 -0.867273
vn 0.569906 0 -0.82171
vn 0.700343 0 -0.713806
vn 0.758683 0 -0.65146
vn 0.811057 0 -0.584968
vn 0.811057 0 -0.584968
vn 0.042266 -0.816916 0.575206
vn 0.042266 -0.816916 0.575206
vn -0.006537 -0.818889 0.573915
vn -0.055434 -0.818919 0.571225
vn -0.150976 -0.818913 0.553703
vn -0.197703 -0.818888 0.538829
vn -0.285657 -0.818916 0.497772
vn -0.32713 -0.818885 0.471608
vn -0.401992 -0.818881 0.409678
vn -0.435391 -0.818918 0.373911
vn -0.467755 -0.816946 0.337348
vn -0.467755 -0.816946 0.337348
vn -0.047265 -0.763473 -0.644108
vn -0.047265 -0.763473 -0.644108
vn 0.007329 -0.765772 -0.64307
vn 0.062164 -0.765798 -0.64007
vn 0.169221 -0.76575 -0.620477
vn 0.221449 -0.765792 -0.603757
vn 0.32016 -0.765789 -0.557733
vn 0.366517 -0.765788 -0.528427
vn 0.450377 -0.765766 -0.45909
vn 0.487858 -0.76579 -0.418999
vn 0.52385 -0.763466 -0.377758
vn 0.52385 -0.763466 -0.377758
vn 0.869158 0 0.494534
vn 0.869158 0 0.494534
vn 0.820734 0 0.571311
vn 0.765101 0 0.64391
vn 0.640425 0 0.768021
vn 0.572047 0 0.820221
vn 0.424258 0 0.905541
vn 0.344918 0 0.938633
vn 0.175085 0 0.984553
vn 0.084356 0 0.996436
vn -0.006351 0 0.99998
vn -0.006351 0 0.99998
vn -0.482731 -0.831583 -0.274664
vn -0.482731 -0.831583 -0.274664
vn -0.457197 -0.829993 -0.319503
vn -0.43051 -0.826124 -0.363567
vn -0.365658 -0.82069 -0.439048
vn -0.327744 -0.819276 -0.4705
vn -0.243614 -0.819296 -0.519044
vn -0.197334 -0.820698 -0.536204
vn -0.099638 -0.82611 -0.554631
vn -0.048095 -0.829995 -0.555694
vn 0.003453 -0.831593 -0.555376
vn 0.003453 -0.831593 -0.555376
vn 0.543074 -0.780746 0.309041
vn 0.543074 -0.780746 0.309041
vn 0.514246 -0.778826 0.359141
vn 0.483537 -0.774283 0.408263
vn 0.410018 -0.767826 0.492268
vn 0.367338 -0.766168 0.527303
vn 0.273003 -0.766194 0.581736
vn 0.221271 -0.767847 0.601207
vn 0.111765 -0.774323 0.622842
vn 0.053893 -0.778845 0.624897
vn -0.003948 -0.780727 0.62486
vn -0.003948 -0.780727 0.62486
vn 0.480061 0 0.877235
vn 0.480061 0 0.877235
vn 0.398202 0 0.917298
vn 0.312373 0 0.94996
vn 0.122097 0 0.992518
vn 0.016957 0 0.999856
vn -0.190371 0 0.981712
vn -0.292519 0 0.95626
vn -0.47256 0 0.881298
vn -0.551477 0 0.83419
vn -0.625118 0 0.78053
vn -0.625118 0 0.78053
vn -0.300164 -0.780457 -0.548442
vn -0.300164 -0.780457 -0.548442
vn -0.244977 -0.792264 -0.558843
vn -0.188922 -0.801496 -0.567373
vn -0.071759 -0.814499 -0.57571
vn -0.010723 -0.817916 -0.575238
vn 0.110504 -0.817927 -0.56461
vn 0.170732 -0.814477 -0.554508
vn 0.284518 -0.801483 -0.525999
vn 0.338307 -0.792289 -0.507766
vn 0.39075 -0.780494 -0.488
vn 0.39075 -0.780494 -0.488
vn 0.332468 -0.72138 0.607516
vn 0.332468 -0.72138 0.607516
vn 0.272021 -0.734894 0.621237
vn 0.210244 -0.745512 0.632463
vn 0.080236 -0.760608 0.644235
vn 0.011903 -0.764606 0.644388
vn -0.123628 -0.764604 0.632532
vn -0.190829 -0.76061 0.620529
vn -0.316827 -0.74552 0.586362
vn -0.375727 -0.734902 0.564578
vn -0.432879 -0.721387 0.540571
vn -0.432879 -0.721387 0.540571
vn -0.151046 0 -0.988527
vn -0.151046 0 -0.988527
vn -0.060512 0 -0.998168
vn 0.031366 0 -0.999508
vn 0.22483 0 -0.974398
vn 0.326054 0 -0.945351
vn 0.51465 0 -0.857401
vn 0.601923 0 -0.798554
vn 0.745512 0 -0.666493
vn 0.8035 0 -0.595304
vn 0.854344 0 -0.519709
vn 0.854344 0 -0.519709
vn 0.09444 -0.780481 0.618005
vn 0.09444 -0.780481 0.618005
vn 0.039075 -0.792281 0.608903
vn -0.016616 -0.801493 0.597774
vn -0.129418 -0.814492 0.565556
vn -0.18661 -0.817923 0.544223
vn -0.296963 -0.817928 0.492755
vn -0.350031 -0.814502 0.462672
vn -0.447286 -0.801489 0.396927
vn -0.491571 -0.792291 0.361431
vn -0.53412 -0.780464 0.32495
vn -0.53412 -0.780464 0.32495
vn -0.104599 -0.721375 -0.6846
vn -0.104599 -0.721375 -0.6846
vn -0.043066 -0.734899 -0.676807
vn 0.018843 -0.745501 -0.666238
vn 0.144928 -0.760609 -0.632827
vn 0.209215 -0.764621 -0.609577
vn 0.332505 -0.764598 -0.552115
vn 0.391592 -0.760575 -0.517863
vn 0.498286 -0.745496 -0.442659
vn 0.546172 -0.734918 -0.401985
vn 0.591628 -0.721413 -0.359917
vn 0.591628 -0.721413 -0.359917
vn -0.934821 0 0.355119
vn -0.934821 0 0.355119
vn -0.901442 0 0.432901
vn -0.861226 0 0.508222
vn -0.763161 0 0.646208
vn -0.705337 0 0.708872
vn -0.575606 0 0.817728
vn -0.503871 0 0.863779
vn -0.35093 0 0.936402
vn -0.269824 0 0.96291
vn -0.187379 0 0.982288
vn -0.187379 0 0.982288
vn 0.539085 0.81698 -0.204773
vn 0.539129 0.816946 -0.20479
vn 0.51733 0.818918 -0.248483
vn 0.494327 0.818881 -0.291675
vn 0.438045 0.818885 -0.370871
vn 0.404756 0.818916 -0.406877
vn 0.330426 0.818888 -0.4693
vn 0.289141 0.818913 -0.495761
vn 0.201389 0.818919 -0.537414
vn 0.154854 0.818889 -0.552667
vn 0.108048 0.816916 -0.566545
vn 0.108048 0.816916 -0.566545
vn -0.603771 0.763466 0.229304
vn -0.603771 0.763466 0.229304
vn -0.579679 0.76579 0.278455
vn -0.553852 0.765766 0.326881
vn -0.490795 0.765788 0.41556
vn -0.453602 0.765789 0.455865
vn -0.370167 0.765792 0.52587
vn -0.324046 0.76575 0.555537
vn -0.225708 0.765798 0.602171
vn -0.173518 0.765772 0.619261
vn -0.121053 0.763473 0.634394
vn -0.121053 0.763473 0.634394
vn 0.167448 0 0.985881
vn 0.167448 0 0.985881
vn 0.256122 0 0.966645
vn 0.343378 0 0.939198
vn 0.502613 0 0.864512
vn 0.575108 0 0.818078
vn 0.705833 0 0.708379
vn 0.764067 0 0.645137
vn 0.865291 0 0.501271
vn 0.907512 0 0.420027
vn 0.941827 0 0.336099
vn 0.941827 0 0.336099
vn -0.092986 0.83161 -0.54752
vn -0.092986 0.83161 -0.54752
vn -0.143821 0.829975 -0.538941
vn -0.194393 0.82614 -0.528871
vn -0.287442 0.820708 -0.493777
vn -0.330005 0.819297 -0.468881
vn -0.404457 0.819283 -0.406437
vn -0.436347 0.820684 -0.36889
vn -0.487079 0.82614 -0.283281
vn -0.505775 0.82997 -0.235246
vn -0.523102 0.831576 -0.186671
vn -0.523102 0.831576 -0.186671
vn 0.104655 0.780724 0.61605
vn 0.104655 0.780724 0.61605
vn 0.161578 0.778821 0.606078
vn 0.218218 0.774317 0.593982
vn 0.322309 0.767824 0.553682
vn 0.369817 0.7662 0.525522
vn 0.453326 0.7662 0.455448
vn 0.489263 0.767826 0.413601
vn 0.547074 0.77428 0.318119
vn 0.56876 0.778847 0.264403
vn 0.588491 0.780749 0.210024
vn 0.588491 0.780749 0.210024
vn 0.962231 0 -0.272236
vn 0.962231 0 -0.272236
vn 0.935709 0 -0.352773
vn 0.902261 0 -0.43119
vn 0.816609 0 -0.577191
vn 0.764394 0 -0.64475
vn 0.64475 0 -0.764394
vn 0.577191 0 -0.816609
vn 0.431191 0 -0.902261
vn 0.352774 0 -0.935709
vn 0.272236 0 -0.96223
vn 0.272236 0 -0.96223
vn -0.554914 0.816965 0.156971
vn -0.554959 0.816931 0.156984
vn -0.537047 0.8189 0.202445
vn -0.517872 0.818879 0.247481
vn -0.468616 0.818929 0.331291
vn -0.438754 0.818888 0.370024
vn -0.370024 0.818888 0.438754
vn -0.331291 0.818929 0.468616
vn -0.247481 0.818879 0.517872
vn -0.202445 0.8189 0.537047
vn -0.156984 0.816931 0.554959
vn -0.156984 0.816931 0.554959
vn 0.621448 0.763465 -0.175849
vn 0.621448 0.763465 -0.175849
vn 0.601746 0.765798 -0.226839
vn 0.580237 0.76578 -0.27732
vn 0.525203 0.765747 -0.371205
vn 0.491572 0.765787 -0.41464
vn 0.414641 0.765787 -0.491572
vn 0.371206 0.765747 -0.525203
vn 0.27732 0.76578 -0.580237
vn 0.226839 0.765798 -0.601746
vn 0.17585 0.763465 -0.621448
vn 0.17585 0.763465 -0.621448
vn -0.761995 0 -0.647583
vn -0.761995 0 -0.647583
vn -0.817548 0 -0.575861
vn -0.866734 0 -0.498772
vn -0.94074 0 -0.33913
vn -0.966403 0 -0.257033
vn -0.996036 0 -0.088955
vn -0.999995 0 -0.003111
vn -0.985066 0 0.17218
vn -0.965206 0 0.261489
vn -0.937527 0 0.347913
vn -0.937527 0 0.347913
vn 0.423193 0.83158 0.359697
vn 0.423193 0.83158 0.359697
vn 0.456576 0.829994 0.320388
vn 0.488907 0.826123 0.280164
vn 0.537662 0.820667 0.193457
vn 0.554215 0.819277 0.147074
vn 0.571106 0.819265 0.051405
vn 0.571347 0.820706 0.002121
vn 0.555239 0.826128 -0.096028
vn 0.538607 0.830006 -0.144887
vn 0.52065 0.831611 -0.193255
vn 0.52065 0.831611 -0.193255
vn -0.476113 0.78073 -0.404693
vn -0.476113 0.78073 -0.404693
vn -0.513382 0.778834 -0.360357
vn -0.548987 0.774284 -0.314798
vn -0.602776 0.767849 -0.216954
vn -0.621108 0.766182 -0.164894
vn -0.640051 0.766174 -0.057557
vn -0.640658 0.767823 -0.002263
vn -0.623527 0.7743 0.108046
vn -0.605708 0.7788 0.163059
vn -0.585845 0.780709 0.217438
vn -0.585845 0.780709 0.217438
vn -0.988528 0 -0.151037
vn -0.988528 0 -0.151037
vn -0.998166 0 -0.060529
vn -0.999509 0 0.031325
vn -0.97441 0 0.224777
vn -0.945351 0 0.326054
vn -0.857418 0 0.51462
vn -0.79853 0 0.601955
vn -0.666472 0 0.74553
vn -0.595317 0 0.803491
vn -0.519727 0 0.854332
vn -0.519727 0 0.854332
vn 0.617998 0.780483 0.094468
vn 0.617998 0.780483 0.094468
vn 0.608885 0.792294 0.039103
vn 0.59778 0.801489 -0.016546
vn 0.565546 0.814502 -0.129401
vn 0.54426 0.8179 -0.186605
vn 0.492794 0.817919 -0.296921
vn 0.462721 0.814483 -0.35001
vn 0.396907 0.801516 -0.447254
vn 0.361463 0.792279 -0.491568
vn 0.324893 0.780445 -0.534182
vn 0.324893 0.780445 -0.534182
vn -0.684562 0.721413 -0.104583
vn -0.684562 0.721413 -0.104583
vn -0.676788 0.734917 -0.043064
vn -0.666238 0.745502 0.018809
vn -0.632849 0.760586 0.144954
vn -0.609597 0.7646 0.209233
vn -0.552114 0.764607 0.332485
vn -0.517868 0.760576 0.391583
vn -0.442663 0.745523 0.498243
vn -0.402055 0.734888 0.546161
vn -0.359904 0.721373 0.591685
vn -0.359904 0.721373 0.591685
vn 0.980575 0 -0.196143
vn 0.980575 0 -0.196143
vn 0.958667 0 -0.284531
vn 0.928511 0 -0.371305
vn 0.838776 0 -0.544476
vn 0.77681 0 -0.629735
vn 0.629735 0 -0.77681
vn 0.544476 0 -0.838776
vn 0.371305 0 -0.928511
vn 0.284532 0 -0.958667
vn 0.196143 0 -0.980575
vn 0.196143 0 -0.980575
vn -0.613044 0.780477 0.122609
vn -0.613044 0.780477 0.122609
vn -0.58559 0.792251 0.171533
vn -0.556058 0.801485 0.220047
vn -0.487184 0.81448 0.315079
vn -0.447538 0.817918 0.361552
vn -0.361552 0.817918 0.447538
vn -0.315079 0.81448 0.487184
vn -0.220048 0.801485 0.556058
vn -0.171534 0.792251 0.58559
vn -0.122609 0.780477 0.613044
vn -0.122609 0.780477 0.613044
vn 0.679049 0.721416 -0.135838
vn 0.679049 0.721416 -0.135838
vn 0.65074 0.734889 -0.190987
vn 0.619596 0.745535 -0.245519
vn 0.545044 0.760608 -0.352708
vn 0.501271 0.764604 -0.405104
vn 0.405104 0.764604 -0.501271
vn 0.352709 0.760608 -0.545044
vn 0.245519 0.745535 -0.619596
vn 0.190987 0.734889 -0.65074
vn 0.135838 0.721416 -0.679049
vn 0.135838 0.721416 -0.679049
vn -0.858984 0 0.512003
vn -0.858984 0 0.512003
vn -0.812521 0 0.582932
vn -0.759917 0 0.65002
vn -0.639396 0 0.768878
vn -0.571475 0 0.82062
vn -0.424941 0 0.905221
vn -0.34617 0 0.938172
vn -0.182976 0 0.983117
vn -0.098574 0 0.99513
vn -0.013916 0 0.999903
vn -0.013916 0 0.999903
vn -0.503378 0.816965 -0.281388
vn -0.503378 0.816965 -0.281388
vn -0.5229 0.8189 -0.2366
vn -0.541186 0.818879 -0.191195
vn -0.56562 0.818929 -0.097104
vn -0.571892 0.818888 -0.0486
vn -0.571892 0.818888 0.048599
vn -0.56562 0.818929 0.097103
vn -0.541186 0.818879 0.191195
vn -0.5229 0.8189 0.2366
vn -0.50342 0.816931 0.281411
vn -0.50342 0.816931 0.281411
vn 0.563774 0.763465 0.315086
vn 0.563774 0.763465 0.315086
vn 0.585898 0.765798 0.265099
vn 0.606384 0.76578 0.214195
vn 0.633856 0.765747 0.108893
vn 0.640789 0.765787 0.054399
vn 0.640789 0.765787 -0.054399
vn 0.633856 0.765747 -0.108892
vn 0.606384 0.76578 -0.214194
vn 0.585898 0.765798 -0.265099
vn 0.563775 0.763465 -0.315086
vn 0.563775 0.763465 -0.315086
vn 0.647591 0 -0.761989
vn 0.647591 0 -0.761989
vn 0.57591 0 -0.817513
vn 0.498808 0 -0.866713
vn 0.339116 0 -0.940744
vn 0.257003 0 -0.966411
vn 0.089003 0 -0.996031
vn 0.0031 0 -0.999995
vn -0.172193 0 -0.985063
vn -0.261501 0 -0.965203
vn -0.34791 0 -0.937528
vn -0.34791 0 -0.937528
vn -0.359693 0.831583 0.423191
vn -0.359693 0.831583 0.423191
vn -0.320394 0.829984 0.456591
vn -0.280111 0.826133 0.488919
vn -0.1935 0.820698 0.537599
vn -0.147098 0.819288 0.554192
vn -0.051399 0.81928 0.571086
vn -0.0021 0.820679 0.571386
vn 0.096004 0.82614 0.555227
vn 0.144901 0.830006 0.538604
vn 0.193199 0.831595 0.520697
vn 0.193199 0.831595 0.520697
vn 0.404711 0.780721 -0.476113
vn 0.404711 0.780721 -0.476113
vn 0.360401 0.778801 -0.513401
vn 0.314794 0.774284 -0.548989
vn 0.216908 0.767827 -0.602821
vn 0.164801 0.766205 -0.621104
vn 0.057501 0.766212 -0.64001
vn 0.0023 0.767842 -0.640635
vn -0.108002 0.774317 -0.623514
vn -0.1631 0.778799 -0.605699
vn -0.217409 0.780733 -0.585824
vn -0.217409 0.780733 -0.585824
vn -0.827079 0 -0.562086
vn -0.827079 0 -0.562086
vn -0.871674 0 -0.490086
vn -0.910281 0 -0.413992
vn -0.967075 0 -0.254494
vn -0.985235 0 -0.171207
vn -0.999997 0 -0.0025
vn -0.996575 0 0.082698
vn -0.968346 0 0.249612
vn -0.943523 0 0.331308
vn -0.912126 0 0.409911
vn -0.912126 0 0.409911
vn 0.47697 0.81695 0.32418
vn 0.477009 0.816916 0.324207
vn 0.500293 0.818889 0.281296
vn 0.522412 0.818919 0.237606
vn 0.555009 0.818913 0.146103
vn 0.565491 0.818888 0.098199
vn 0.573911 0.818916 0.0015
vn 0.571989 0.818885 -0.047499
vn 0.555787 0.818881 -0.143297
vn 0.541512 0.818917 -0.190104
vn 0.525987 0.81698 -0.236394
vn 0.525987 0.81698 -0.236394
vn -0.534181 0.763473 -0.362987
vn -0.534181 0.763473 -0.362987
vn -0.560579 0.765772 -0.315189
vn -0.585398 0.765798 -0.2662
vn -0.621959 0.76575 -0.16369
vn -0.633593 0.765792 -0.110099
vn -0.64309 0.765789 -0.0016
vn -0.64089 0.765788 0.053199
vn -0.622772 0.765766 0.160493
vn -0.606793 0.76579 0.212997
vn -0.589074 0.763466 0.264788
vn -0.589074 0.763466 0.264788
vn -0.0063 0 0.99998
vn -0.0063 0 0.99998
vn 0.084402 0 0.996432
vn 0.175091 0 0.984552
vn 0.344912 0 0.938635
vn 0.424308 0 0.905518
vn 0.572092 0 0.820189
vn 0.64042 0 0.768025
vn 0.765105 0 0.643905
vn 0.82076 0 0.571273
vn 0.869183 0 0.494491
vn 0.869183 0 0.494491
vn 0.0035 0.831584 -0.555389
vn 0.0035 0.831584 -0.555389
vn -0.048099 0.829993 -0.555696
vn -0.099603 0.826124 -0.554616
vn -0.197397 0.82069 -0.536193
vn -0.243593 0.819276 -0.519085
vn -0.327698 0.819296 -0.470498
vn -0.365699 0.820698 -0.438999
vn -0.430505 0.82611 -0.363605
vn -0.457197 0.829995 -0.319498
vn -0.482696 0.831593 -0.274698
vn -0.482696 0.831593 -0.274698
vn -0.0039 0.780746 0.624837
vn -0.0039 0.780746 0.624837
vn 0.053902 0.778826 0.62492
vn 0.111797 0.774283 0.622886
vn 0.221307 0.767826 0.601221
vn 0.272989 0.766168 0.581776
vn 0.367297 0.766194 0.527296
vn 0.410025 0.767847 0.49223
vn 0.483514 0.774323 0.408213
vn 0.51423 0.778845 0.359121
vn 0.543119 0.780727 0.309011
vn 0.543119 0.780727 0.309011
vn 0.519677 0 0.854363
vn 0.519677 0 0.854363
vn 0.595301 0 0.803502
vn 0.666502 0 0.745503
vn 0.798497 0 0.601998
vn 0.857422 0 0.514614
vn 0.945373 0 0.325991
vn 0.974405 0 0.224801
vn 0.999507 0 0.031401
vn 0.998168 0 -0.060498
vn 0.988518 0 -0.151103
vn 0.988518 0 -0.151103
vn -0.324882 0.780457 -0.534171
vn -0.324882 0.780457 -0.534171
vn -0.361483 0.792264 -0.491578
vn -0.396898 0.801496 -0.447298
vn -0.4627 0.814499 -0.35
vn -0.492809 0.817916 -0.296906
vn -0.544218 0.817927 -0.186606
vn -0.565584 0.814477 -0.129397
vn -0.597787 0.801483 -0.0166
vn -0.608892 0.792289 0.039099
vn -0.617995 0.780494 0.094399
vn -0.617995 0.780494 0.094399
vn 0.35989 0.72138 0.591684
vn 0.35989 0.72138 0.591684
vn 0.401997 0.734894 0.546196
vn 0.442607 0.745512 0.498308
vn 0.517805 0.760608 0.391604
vn 0.552104 0.764606 0.332503
vn 0.609603 0.764604 0.209201
vn 0.632808 0.76061 0.145002
vn 0.666218 0.74552 0.018801
vn 0.676802 0.734902 -0.0431
vn 0.684588 0.721387 -0.104598
vn 0.684588 0.721387 -0.104598
vn -0.780566 0 -0.625073
vn -0.780566 0 -0.625073
vn -0.834182 0 -0.551489
vn -0.881282 0 -0.472591
vn -0.956268 0 -0.292491
vn -0.981725 0 -0.190305
vn -0.999856 0 0.016999
vn -0.99253 0 0.122003
vn -0.949956 0 0.312385
vn -0.917299 0 0.398199
vn -0.877253 0 0.480029
vn -0.877253 0 0.480029
vn 0.487988 0.780481 0.390791
vn 0.487988 0.780481 0.390791
vn 0.507788 0.792281 0.338292
vn 0.525995 0.801493 0.284498
vn 0.554495 0.814492 0.170699
vn 0.564616 0.817923 0.110503
vn 0.57522 0.817928 -0.0108
vn 0.575701 0.814502 -0.0718
vn 0.567392 0.801489 -0.188897
vn 0.558794 0.792291 -0.244997
vn 0.548475 0.780464 -0.300086
vn 0.548475 0.780464 -0.300086
vn -0.540581 0.721375 -0.432885
vn -0.540581 0.721375 -0.432885
vn -0.564599 0.7349 -0.3757
vn -0.586401 0.745501 -0.316801
vn -0.620508 0.760609 -0.190903
vn -0.632517 0.764621 -0.123604
vn -0.644398 0.764598 0.0119
vn -0.644279 0.760575 0.080197
vn -0.632497 0.745496 0.210199
vn -0.621215 0.734918 0.272006
vn -0.607511 0.721413 0.332406
vn -0.607511 0.721413 0.332406
vt 0.9995 0.9995
vt 0.0005 0.9995
vt 0.9995 0.7997
vt 0.0005 0.7997
vt 0.9995 0.5999
vt 0.0005 0.5999
vt 0.9995 0.4001
vt 0.0005 0.4001
vt 0.9995 0.2003
vt 0.0005 0.2003
vt 0.9995 0.0005
vt 0.0005 0.0005
vt 0.9995 0.9995
vt 0.0005 0.9995
vt 0.9995 0.7997
vt 0.0005 0.7997
vt 0.9995 0.5999
vt 0.0005 0.5999
vt 0.9995 0.4001
vt 0.0005 0.4001
vt 0.9995 0.2003
vt 0.0005 0.2003
vt 0.9995 0.0005
vt 0.0005 0.0005
vt 0.9995 0.9995
vt 0.0005 0.9995
vt 0.9995 0.7997
vt 0.0005 0.7997
vt 0.9995 0.5999
vt 0.0005 0.5999
vt 0.9995 0.4001
vt 0.0005 0.4001
vt 0.9995 0.2003
vt 0.0005 0.2003
vt 0.9995 0.0005
vt 0.0005 0.0005
vt 0.9995 0.9995
vt 0.0005 0.9995
vt 0.9995 0.7997
vt 0.0005 0.7997
vt 0.9995 0.5999
vt 0.0005 0.5999
vt 0.9995 0.4001
vt 0.0005 0.4001
vt 0.9995 0.2003
vt 0.0005 0.2003
vt 0.9995 0.0005
vt 0.0005 0.0005
vt 0.9995 0.9995
vt 0.0005 0.9995
vt 0.9995 0.7997
vt 0.0005 0.7997
vt 0.9995 0.5999
vt 0.0005 0.5999
vt 0.9995 0.4001
vt 0.0005 0.4001
vt 0.9995 0.2003
vt 0.0005 0.2003
vt 0.9995 0.0005
vt 0.0005 0.0005
vt 0.9995 0.9995
vt 0.0005 0.9995
vt 0.9995 0.7997
vt 0.0005 0.7997
vt 0.9995 0.5999
vt 0.0005 0.5999
vt 0.9995 0.4001
vt 0.0005 0.4001
vt 0.9995 0.2003
vt 0.0005 0.2003
vt 0.9995 0.0005
vt 0.0005 0.0005
vt 0.9995 0.9995
vt 0.0005 0.9995
vt 0.9995 0.7997
vt 0.0005 0.7997
vt 0.9995 0.5999
vt 0.0005 0.5999
vt 0.9995 0.4001
vt 0.0005 0.4001
vt 0.9995 0.2003
vt 0.0005 0.2003
vt 0.9995 0.0005
vt 0.0005 0.0005
vt 0.9995 0.9995
vt 0.0005 0.9995
vt 0.9995 0.7997
vt 0.0005 0.7997
vt 0.9995 0.5999
vt 0.0005 0.5999
vt 0.9995 0.4001
vt 0.0005 0.4001
vt 0.9995 0.2003
vt 0.0005 0.2003
vt 0.9995 0.0005
vt 0.0005 0.0005
vt 0.9995 0.9995
vt 0.0005 0.9995
vt 0.9995 0.7997
vt 0.0005 0.7997
vt 0.9995 0.5999
vt 0.0005 0.5999
vt 0.9995 0.4001
vt 0.0005 0.4001
vt 0.9995 0.2003
vt 0.0005 0.2003
vt 0.9995 0.0005
vt 0.0005 0.0005
vt 0.9995 0.9995
vt 0.0005 0.9995
vt 0.9995 0.7997
vt 0.0005 0.7997
vt 0.9995 0.5999
vt 0.0005 0.5999
vt 0.9995 0.4001
vt 0.0005 0.4001
vt 0.9995 0.2003
vt 0.0005 0.2003
vt 0.9995 0.0005
vt 0.0005 0.0005
vt 0.9995 0.9995
vt 0.0005 0.9995
vt 0.9995 0.7997
vt 0.0005 0.7997
vt 0.9995 0.5999
vt 0.0005 0.5999
vt 0.9995 0.4001
vt 0.0005 0.4001
vt 0.9995 0.2003
vt 0.0005 0.2003
vt 0.9995 0.0005
vt 0.0005 0.0005
vt 0.9995 0.9995
vt 0.0005 0.9995
vt 0.9995 0.7997
vt 0.0005 0.7997
vt 0.9995 0.5999
vt 0.0005 0.5999
vt 0.9995 0.4001
vt 0.0005 0.4001
vt 0.9995 0.2003
vt 0.0005 0.2003
vt 0.9995 0.0005
vt 0.0005 0.0005
vt 0.9995 0.9995
vt 0.0005 0.9995
vt 0.9995 0.7997
vt 0.0005 0.7997
vt 0.9995 0.5999
vt 0.0005 0.5999
vt 0.9995 0.4001
vt 0.0005 0.4001
vt 0.9995 0.2003
vt 0.0005 0.2003
vt 0.9995 0.0005
vt 0.0005 0.0005
vt 0.9995 0.9995
vt 0.0005 0.9995
vt 0.9995 0.7997
vt 0.0005 0.7997
vt 0.9995 0.5999
vt 0.0005 0.5999
vt 0.9995 0.4001
vt 0.0005 0.4001
vt 0.9995 0.2003
vt 0.0005 0.2003
vt 0.9995 0.0005
vt 0.0005 0.0005
vt 0.9995 0.9995
vt 0.0005 0.9995
vt 0.9995 0.7997
vt 0.0005 0.7997
vt 0.9995 0.5999
vt 0.0005 0.5999
vt 0.9995 0.4001
vt 0.0005 0.4001
vt 0.9995 0.2003
vt 0.0005 0.2003
vt 0.9995 0.0005
vt 0.0005 0.0005
vt 0.9995 0.9995
vt 0.0005 0.9995
vt 0.9995 0.7997
vt 0.0005 0.7997
vt 0.9995 0.5999
vt 0.0005 0.5999
vt 0.9995 0.4001
vt 0.0005 0.4001
vt 0.9995 0.2003
vt 0.0005 0.2003
vt 0.9995 0.0005
vt 0.0005 0.0005
vt 0.9995 0.9995
vt 0.0005 0.9995
vt 0.9995 0.7997
vt 0.0005 0.7997
vt 0.9995 0.5999
vt 0.0005 0.5999
vt 0.9995 0.4001
vt 0.0005 0.4001
vt 0.9995 0.2003
vt 0.0005 0.2003
vt 0.9995 0.0005
vt 0.0005 0.0005
vt 0.9995 0.9995
vt 0.0005 0.9995
vt 0.9995 0.7997
vt 0.0005 0.7997
vt 0.9995 0.5999
vt 0.0005 0.5999
vt 0.9995 0.4001
vt 0.0005 0.4001
vt 0.9995 0.2003
vt 0.0005 0.2003
vt 0.9995 0.0005
vt 0.0005 0.0005
vt 0.9995 0.9995
vt 0.0005 0.9995
vt 0.9995 0.7997
vt 0.0005 0.7997
vt 0.9995 0.5999
vt 0.0005 0.5999
vt 0.9995 0.4001
vt 0.0005 0.4001
vt 0.9995 0.2003
vt 0.0005 0.2003
vt 0.9995 0.0005
vt 0.0005 0.0005
vt 0.9995 0.9995
vt 0.0005 0.9995
vt 0.9995 0.7997
vt 0.0005 0.7997
vt 0.9995 0.5999
vt 0.0005 0.5999
vt 0.9995 0.4001
vt 0.0005 0.4001
vt 0.9995 0.2003
vt 0.0005 0.2003
vt 0.9995 0.0005
vt 0.0005 0.0005
vt 0.9995 0.9995
vt 0.0005 0.9995
vt 0.9995 0.7997
vt 0.0005 0.7997
vt 0.9995 0.5999
vt 0.0005 0.5999
vt 0.9995 0.4001
vt 0.0005 0.4001
vt 0.9995 0.2003
vt 0.0005 0.2003
vt 0.9995 0.0005
vt 0.0005 0.0005
vt 0.9995 0.9995
vt 0.0005 0.9995
vt 0.9995 0.7997
vt 0.0005 0.7997
vt 0.9995 0.5999
vt 0.0005 0.5999
vt 0.9995 0.4001
vt 0.0005 0.4001
vt 0.9995 0.2003
vt 0.0005 0.2003
vt 0.9995 0.0005
vt 0.0005 0.0005
vt 0.9995 0.9995
vt 0.0005 0.9995
vt 0.9995 0.7997
vt 0.0005 0.7997
vt 0.9995 0.5999
vt 0.0005 0.5999
vt 0.9995 0.4001
vt 0.0005 0.4001
vt 0.9995 0.2003
vt 0.0005 0.2003
vt 0.9995 0.0005
vt 0.0005 0.0005
vt 0.9995 0.9995
vt 0.0005 0.9995
vt 0.9995 0.7997
vt 0.0005 0.7997
vt 0.9995 0.5999
vt 0.0005 0.5999
vt 0.9995 0.4001
vt 0.0005 0.4001
vt 0.9995 0.2003
vt 0.0005 0.2003
vt 0.9995 0.0005
vt 0.0005 0.0005
vt 0.9995 0.9995
vt 0.0005 0.9995
vt 0.9995 0.7997
vt 0.0005 0.7997
vt 0.9995 0.5999
vt 0.0005 0.5999
vt 0.9995 0.4001
vt 0.0005 0.4001
vt 0.9995 0.2003
vt 0.0005 0.2003
vt 0.9995 0.0005
vt 0.0005 0.0005
vt 0.9995 0.9995
vt 0.0005 0.9995
vt 0.9995 0.7997
vt 0.0005 0.7997
vt 0.9995 0.5999
vt 0.0005 0.5999
vt 0.9995 0.4001
vt 0.0005 0.4001
vt 0.9995 0.2003
vt 0.0005 0.2003
vt 0.9995 0.0005
vt 0.0005 0.0005
vt 0.9995 0.9995
vt 0.0005 0.9995
vt 0.9995 0.7997
vt 0.0005 0.7997
vt 0.9995 0.5999
vt 0.0005 0.5999
vt 0.9995 0.4001
vt 0.0005 0.4001
vt 0.9995 0.2003
vt 0.0005 0.2003
vt 0.9995 0.0005
vt 0.0005 0.0005
vt 0.9995 0.9995
vt 0.0005 0.9995
vt 0.9995 0.7997
vt 0.0005 0.7997
vt 0.9995 0.5999
vt 0.0005 0.5999
vt 0.9995 0.4001
vt 0.0005 0.4001
vt 0.9995 0.2003
vt 0.0005 0.2003
vt 0.9995 0.0005
vt 0.0005 0.0005
vt 0.9995 0.9995
vt 0.0005 0.9995
vt 0.9995 0.7997
vt 0.0005 0.7997
vt 0.9995 0.5999
vt 0.0005 0.5999
vt 0.9995 0.4001
vt 0.0005 0.4001
vt 0.9995 0.2003
vt 0.0005 0.2003
vt 0.9995 0.0005
vt 0.0005 0.0005
vt 0.9995 0.9995
vt 0.0005 0.9995
vt 0.9995 0.7997
vt 0.0005 0.7997
vt 0.9995 0.5999
vt 0.0005 0.5999
vt 0.9995 0.4001
vt 0.0005 0.4001
vt 0.9995 0.2003
vt 0.0005 0.2003
vt 0.9995 0.0005
vt 0.0005 0.0005
vt 0.9995 0.9995
vt 0.0005 0.9995
vt 0.9995 0.7997
vt 0.0005 0.7997
vt 0.9995 0.5999
vt 0.0005 0.5999
vt 0.9995 0.4001
vt 0.0005 0.4001
vt 0.9995 0.2003
vt 0.0005 0.2003
vt 0.9995 0.0005
vt 0.0005 0.0005
vt 0.9995 0.9995
vt 0.0005 0.9995
vt 0.9995 0.7997
vt 0.0005 0.7997
vt 0.9995 0.5999
vt 0.0005 0.5999
vt 0.9995 0.4001
vt 0.0005 0.4001
vt 0.9995 0.2003
vt 0.0005 0.2003
vt 0.9995 0.0005
vt 0.0005 0.0005
vt 0.9995 0.9995
vt 0.0005 0.9995
vt 0.9995 0.7997
vt 0.0005 0.7997
vt 0.9995 0.5999
vt 0.0005 0.5999
vt 0.9995 0.4001
vt 0.0005 0.4001
vt 0.9995 0.2003
vt 0.0005 0.2003
vt 0.9995 0.0005
vt 0.0005 0.0005
vt 0.9995 0.9995
vt 0.0005 0.9995
vt 0.9995 0.7997
vt 0.0005 0.7997
vt 0.9995 0.5999
vt 0.0005 0.5999
vt 0.9995 0.4001
vt 0.0005 0.4001
vt 0.9995 0.2003
vt 0.0005 0.2003
vt 0.9995 0.0005
vt 0.0005 0.0005
vt 0.9995 0.9995
vt 0.0005 0.9995
vt 0.9995 0.7997
vt 0.0005 0.7997
vt 0.9995 0.5999
vt 0.0005 0.5999
vt 0.9995 0.4001
vt 0.0005 0.4001
vt 0.9995 0.2003
vt 0.0005 0.2003
vt 0.9995 0.0005
vt 0.0005 0.0005
vt 0.9995 0.9995
vt 0.0005 0.9995
vt 0.9995 0.7997
vt 0.0005 0.7997
vt 0.9995 0.5999
vt 0.0005 0.5999
vt 0.9995 0.4001
vt 0.0005 0.4001
vt 0.9995 0.2003
vt 0.0005 0.2003
vt 0.9995 0.0005
vt 0.0005 0.0005
vt 0.9995 0.9995
vt 0.0005 0.9995
vt 0.9995 0.7997
vt 0.0005 0.7997
vt 0.9995 0.5999
vt 0.0005 0.5999
vt 0.9995 0.4001
vt 0.0005 0.4001
vt 0.9995 0.2003
vt 0.0005 0.2003
vt 0.9995 0.0005
vt 0.0005 0.0005
vt 0.9995 0.9995
vt 0.0005 0.9995
vt 0.9995 0.7997
vt 0.0005 0.7997
vt 0.9995 0.5999
vt 0.0005 0.5999
vt 0.9995 0.4001
vt 0.0005 0.4001
vt 0.9995 0.2003
vt 0.0005 0.2003
vt 0.9995 0.0005
vt 0.0005 0.0005
vt 0.9995 0.9995
vt 0.0005 0.9995
vt 0.9995 0.7997
vt 0.0005 0.7997
vt 0.9995 0.5999
vt 0.0005 0.5999
vt 0.9995 0.4001
vt 0.0005 0.4001
vt 0.9995 0.2003
vt 0.0005 0.2003
vt 0.9995 0.0005
vt 0.0005 0.0005
vt 0.9995 0.9995
vt 0.0005 0.9995
vt 0.9995 0.7997
vt 0.0005 0.7997
vt 0.9995 0.5999
vt 0.0005 0.5999
vt 0.9995 0.4001
vt 0.0005 0.4001
vt 0.9995 0.2003
vt 0.0005 0.2003
vt 0.9995 0.0005
vt 0.0005 0.0005
vt 0.9995 0.9995
vt 0.0005 0.9995
vt 0.9995 0.7997
vt 0.0005 0.7997
vt 0.9995 0.5999
vt 0.0005 0.5999
vt 0.9995 0.4001
vt 0.0005 0.4001
vt 0.9995 0.2003
vt 0.0005 0.2003
vt 0.9995 0.0005
vt 0.0005 0.0005
vt 0.9995 0.9995
vt 0.0005 0.9995
vt 0.9995 0.7997
vt 0.0005 0.7997
vt 0.9995 0.5999
vt 0.0005 0.5999
vt 0.9995 0.4001
vt 0.0005 0.4001
vt 0.9995 0.2003
vt 0.0005 0.2003
vt 0.9995 0.0005
vt 0.0005 0.0005
vt 0.9995 0.9995
vt 0.0005 0.9995
vt 0.9995 0.7997
vt 0.0005 0.7997
vt 0.9995 0.5999
vt 0.0005 0.5999
vt 0.9995 0.4001
vt 0.0005 0.4001
vt 0.9995 0.2003
vt 0.0005 0.2003
vt 0.9995 0.0005
vt 0.0005 0.0005
vt 0.9995 0.9995
vt 0.0005 0.9995
vt 0.9995 0.7997
vt 0.0005 0.7997
vt 0.9995 0.5999
vt 0.0005 0.5999
vt 0.9995 0.4001
vt 0.0005 0.4001
vt 0.9995 0.2003
vt 0.0005 0.2003
vt 0.9995 0.0005
vt 0.0005 0.0005
vt 0.9995 0.9995
vt 0.0005 0.9995
vt 0.9995 0.7997
vt 0.0005 0.7997
vt 0.9995 0.5999
vt 0.0005 0.5999
vt 0.9995 0.4001
vt 0.0005 0.4001
vt 0.9995 0.2003
vt 0.0005 0.2003
vt 0.9995 0.0005
vt 0.0005 0.0005
vt 0.9995 0.9995
vt 0.0005 0.9995
vt 0.9995 0.7997
vt 0.0005 0.7997
vt 0.9995 0.5999
vt 0.0005 0.5999
vt 0.9995 0.4001
vt 0.0005 0.4001
vt 0.9995 0.2003
vt 0.0005 0.2003
vt 0.9995 0.0005
vt 0.0005 0.0005
vt 0.9995 0.9995
vt 0.0005 0.9995
vt 0.9995 0.7997
vt 0.0005 0.7997
vt 0.9995 0.5999
vt 0.0005 0.5999
vt 0.9995 0.4001
vt 0.0005 0.4001
vt 0.9995 0.2003
vt 0.0005 0.2003
vt 0.9995 0.0005
vt 0.0005 0.0005
vt 0.9995 0.9995
vt 0.0005 0.9995
vt 0.9995 0.7997
vt 0.0005 0.7997
vt 0.9995 0.5999
vt 0.0005 0.5999
vt 0.9995 0.4001
vt 0.0005 0.4001
vt 0.9995 0.2003
vt 0.0005 0.2003
vt 0.9995 0.0005
vt 0.0005 0.0005
vt 0.9995 0.9995
vt 0.0005 0.9995
vt 0.9995 0.7997
vt 0.0005 0.7997
vt 0.9995 0.5999
vt 0.0005 0.5999
vt 0.9995 0.4001
vt 0.0005 0.4001
vt 0.9995 0.2003
vt 0.0005 0.2003
vt 0.9995 0.0005
vt 0.0005 0.0005
vt 0.9995 0.9995
vt 0.0005 0.9995
vt 0.9995 0.7997
vt 0.0005 0.7997
vt 0.9995 0.5999
vt 0.0005 0.5999
vt 0.9995 0.4001
vt 0.0005 0.4001
vt 0.9995 0.2003
vt 0.0005 0.2003
vt 0.9995 0.0005
vt 0.0005 0.0005
vt 0.9995 0.9995
vt 0.0005 0.9995
vt 0.9995 0.7997
vt 0.0005 0.7997
vt 0.9995 0.5999
vt 0.0005 0.5999
vt 0.9995 0.4001
vt 0.0005 0.4001
vt 0.9995 0.2003
vt 0.0005 0.2003
vt 0.9995 0.0005
vt 0.0005 0.0005
vt 0.9995 0.9995
vt 0.0005 0.9995
vt 0.9995 0.7997
vt 0.0005 0.7997
vt 0.9995 0.5999
vt 0.0005 0.5999
vt 0.9995 0.4001
vt 0.0005 0.4001
vt 0.9995 0.2003
vt 0.0005 0.2003
vt 0.9995 0.0005
vt 0.0005 0.0005
vt 0.9995 0.9995
vt 0.0005 0.9995
vt 0.9995 0.7997
vt 0.0005 0.7997
vt 0.9995 0.5999
vt 0.0005 0.5999
vt 0.9995 0.4001
vt 0.0005 0.4001
vt 0.9995 0.2003
vt 0.0005 0.2003
vt 0.9995 0.0005
vt 0.0005 0.0005
vt 0.9995 0.9995
vt 0.0005 0.9995
vt 0.9995 0.7997
vt 0.0005 0.7997
vt 0.9995 0.5999
vt 0.0005 0.5999
vt 0.9995 0.4001
vt 0.0005 0.4001
vt 0.9995 0.2003
vt 0.0005 0.2003
vt 0.9995 0.0005
vt 0.0005 0.0005
f 1/1/1 3/3/3 2/2/2
f 4/4/4 2/2/2 3/3/3
f 3/3/3 5/5/5 4/4/4
f 6/6/6 4/4/4 5/5/5
f 5/5/5 7/7/7 6/6/6
f 8/8/8 6/6/6 7/7/7
f 7/7/7 9/9/9 8/8/8
f 10/10/10 8/8/8 9/9/9
f 9/9/9 11/11/11 10/10/10
f 12/12/12 10/10/10 11/11/11
f 13/13/13 15/15/15 14/14/14
f 16/16/16 14/14/14 15/15/15
f 15/15/15 17/17/17 16/16/16
f 18/18/18 16/16/16 17/17/17
f 17/17/17 19/19/19 18/18/18
f 20/20/20 18/18/18 19/19/19
f 19/19/19 21/21/21 20/20/20
f 22/22/22 20/20/20 21/21/21
f 21/21/21 23/23/23 22/22/22
f 24/24/24 22/22/22 23/23/23
f 25/25/25 27/27/27 26/26/26
f 28/28/28 26/26/26 27/27/27
f 27/27/27 29/29/29 28/28/28
f 30/30/30 28/28/28 29/29/29
f 29/29/29 31/31/31 30/30/30
f 32/32/32 30/30/30 31/31/31
f 31/31/31 33/33/33 32/32/32
f 34/34/34 32/32/32 33/33/33
f 33/33/33 35/35/35 34/34/34
f 36/36/36 34/34/34 35/35/35
f 37/37/37 39/39/39 38/38/38
f 40/40/40 38/38/38 39/39/39
f 39/39/39 41/41/41 40/40/40
f 42/42/42 40/40/40 41/41/41
f 41/41/41 43/43/43 42/42/42
f 44/44/44 42/42/42 43/43/43
f 43/43/43 45/45/45 44/44/44
f 46/46/46 44/44/44 45/45/45
f 45/45/45 47/47/47 46/46/46
f 48/48/48 46/46/46 47/47/47
f 49/49/49 51/51/51 50/50/50
f 52/52/52 50/50/50 51/51/51
f 51/51/51 53/53/53 52/52/52
f 54/54/54 52/52/52 53/53/53
f 53/53/53 55/55/55 54/54/54
f 56/56/56 54/54/54 55/55/55
f 55/55/55 57/57/57 56/56/56
f 58/58/58 56/56/56 57/57/57
f 57/57/57 59/59/59 58/58/58
f 60/60/60 58/58/58 59/59/59
f 61/61/61 63/63/63 62/62/62
f 64/64/64 62/62/62 63/63/63
f 63/63/63 65/65/65 64/64/64
f 66/66/66 64/64/64 65/65/65
f 65/65/65 67/67/67 66/66/66
f 68/68/68 66/66/66 67/67/67
f 67/67/67 69/69/69 68/68/68
f 70/70/70 68/68/68 69/69/69
f 69/69/69 71/71/71 70/70/70
f 72/72/72 70/70/70 71/71/71
f 73/73/73 75/75/75 74/74/74
f 76/76/76 74/74/74 75/75/75
f 75/75/75 77/77/77 76/76/76
f 78/78/78 76/76/76 77/77/77
f 77/77/77 79/79/79 78/78/78
f 80/80/80 78/78/78 79/79/79
f 79/79/79 81/81/81 80/80/80
f 82/82/82 80/80/80 81/81/81
f 81/81/81 83/83/83 82/82/82
f 84/84/84 82/82/82 83/83/83
f 85/85/85 87/87/87 86/86/86
f 88/88/88 86/86/86 87/87/87
f 87/87/87 89/89/89 88/88/88
f 90/90/90 88/88/88 89/89/89
f 89/89/89 91/91/91 90/90/90
f 92/92/92 90/90/90 91/91/91
f 91/91/91 93/93/93 92/92/92
f 94/94/94 92/92/92 93/93/93
f 93/93/93 95/95/95 94/94/94
f 96/96/96 94/94/94 95/95/95
f 97/97/97 99/99/99 98/98/98
f 100/100/100 98/98/98 99/99/99
f 99/99/99 101/101/101 100/100/100
f 102/102/102 100/100/100 101/101/101
f 101/101/101 103/103/103 102/102/102
f 104/104/104 102/102/102 103/103/103
f 103/103/103 105/105/105 104/104/104
f 106/106/106 104/104/104 105/105/105
f 105/105/105 107/107/107 106/106/106
f 108/108/108 106/106/106 107/107/107
f 109/109/109 111/111/111 110/110/110
f 112/112/112 110/110/110 111/111/111
f 111/111/111 113/113/113 112/112/112
f 114/114/114 112/112/112 113/113/113
f 113/113/113 115/115/115 114/114/114
f 116/116/116 114/114/114 115/115/115
f 115/115/115 117/117/117 116/116/116
f 118/118/118 116/116/116 117/117/117
f 117/117/117 119/119/119 118/118/118
f 120/120/120 118/118/118 119/119/119
f 121/121/121 123/123/123 122/122/122
f 124/124/124 122/122/122 123/123/123
f 123/123/123 125/125/125 124/124/124
f 126/126/126 124/124/124 125/125/125
f 125/125/125 127/127/127 126/126/126
f 128/128/128 126/126/126 127/127/127
f 127/127/127 129/129/129 128/128/128
f 130/130/130 128/128/128 129/129/129
f 129/129/129 131/131/131 130/130/130
f 132/132/132 130/130/130 131/131/131
f 133/133/133 135/135/135 134/134/134
f 136/136/136 134/134/134 135/135/135
f 135/135/135 137/137/137 136/136/136
f 138/138/138 136/136/136 137/137/137
f 137/137/137 139/139/139 138/138/138
f 140/140/140 138/138/138 139/139/139
f 139/139/139 141/141/141 140/140/140
f 142/142/142 140/140/140 141/141/141
f 141/141/141 143/143/143 142/142/142
f 144/144/144 142/142/142 143/143/143
f 145/145/145 147/147/147 146/146/146
f 148/148/148 146/146/146 147/147/147
f 147/147/147 149/149/149 148/148/148
f 150/150/150 148/148/148 149/149/149
f 149/149/149 151/151/151 150/150/150
f 152/152/152 150/150/150 151/151/151
f 151/151/151 153/153/153 152/152/152
f 154/154/154 152/152/152 153/153/153
f 153/153/153 155/155/155 154/154/154
f 156/156/156 154/154/154 155/155/155
f 157/157/157 159/159/159 158/158/158
f 160/160/160 158/158/158 159/159/159
f 159/159/159 161/161/161 160/160/160
f 162/162/162 160/160/160 161/161/161
f 161/161/161 163/163/163 162/162/162
f 164/164/164 162/162/162 163/163/163
f 163/163/163 165/165/165 164/164/164
f 166/166/166 164/164/164 165/165/165
f 165/165/165 167/167/167 166/166/166
f 168/168/168 166/166/166 167/167/167
f 169/169/169 171/171/171 170/170/170
f 172/172/172 170/170/170 171/171/171
f 171/171/171 173/173/173 172/172/172
f 174/174/174 172/172/172 173/173/173
f 173/173/173 175/175/175 174/174/174
f 176/176/176 174/174/174 175/175/175
f 175/175/175 177/177/177 176/176/176
f 178/178/178 176/176/176 177/177/177
f 177/177/177 179/179/179 178/178/178
f 180/180/180 178/178/178 179/179/179
f 181/181/181 183/183/183 182/182/182
f 184/184/184 182/182/182 183/183/183
f 183/183/183 185/185/185 184/184/184
f 186/186/186 184/184/184 185/185/185
f 185/185/185 187/187/187 186/186/186
f 188/188/188 186/186/186 187/187/187
f 187/187/187 189/189/189 188/188/188
f 190/190/190 188/188/188 189/189/189
f 189/189/189 191/191/191 190/190/190
f 192/192/192 190/190/190 191/191/191
f 193/193/193 195/195/195 194/194/194
f 196/196/196 194/194/194 195/195/195
f 195/195/195 197/197/197 196/196/196
f 198/198/198 196/196/196 197/197/197
f 197/197/197 199/199/199 198/198/198
f 200/200/200 198/198/198 199/199/199
f 199/199/199 201/201/201 200/200/200
f 202/202/202 200/200/200 201/201/201
f 201/201/201 203/203/203 202/202/202
f 204/204/204 202/202/202 203/203/203
f 205/205/205 207/207/207 206/206/206
f 208/208/208 206/206/206 207/207/207
f 207/207/207 209/209/209 208/208/208
f 210/210/210 208/208/208 209/209/209
f 209/209/209 211/211/211 210/210/210
f 212/212/212 210/210/210 211/211/211
f 211/211/211 213/213/213 212/212/212
f 214/214/214 212/212/212 213/213/213
f 213/213/213 215/215/215 214/214/214
f 216/216/216 214/214/214 215/215/215
f 217/217/217 219/219/219 218/218/218
f 220/220/220 218/218/218 219/219/219
f 219/219/219 221/221/221 220/220/220
f 222/222/222 220/220/220 221/221/221
f 221/221/221 223/223/223 222/222/222
f 224/224/224 222/222/222 223/223/223
f 223/223/223 225/225/225 224/224/224
f 226/226/226 224/224/224 225/225/225
f 225/225/225 227/227/227 226/226/226
f 228/228/228 226/226/226 227/227/227
f 229/229/229 231/231/231 230/230/230
f 232/232/232 230/230/230 231/231/231
f 231/231/231 233/233/233 232/232/232
f 234/234/234 232/232/232 233/233/233
f 233/233/233 235/235/235 234/234/234
f 236/236/236 234/234/234 235/235/235
f 235/235/235 237/237/237 236/236/236
f 238/238/238 236/236/236 237/237/237
f 237/237/237 239/239/239 238/238/238
f 240/240/240 238/238/238 239/239/239
f 241/241/241 243/243/243 242/242/242
f 244/244/244 242/242/242 243/243/243
f 243/243/243 245/245/245 244/244/244
f 246/246/246 244/244/244 245/245/245
f 245/245/245 247/247/247 246/246/246
f 248/248/248 246/246/246 247/247/247
f 247/247/247 249/249/249 248/248/248
f 250/250/250 248/248/248 249/249/249
f 249/249/249 251/251/251 250/250/250
f 252/252/252 250/250/250 251/251/251
f 253/253/253 255/255/255 254/254/254
f 256/256/256 254/254/254 255/255/255
f 255/255/255 257/257/257 256/256/256
f 258/258/258 256/256/256 257/257/257
f 257/257/257 259/259/259 258/258/258
f 260/260/260 258/258/258 259/259/259
f 259/259/259 261/261/261 260/260/260
f 262/262/262 260/260/260 261/261/261
f 261/261/261 263/263/263 262/262/262
f 264/264/264 262/262/262 263/263/263
f 265/265/265 267/267/267 266/266/266
f 268/268/268 266/266/266 267/267/267
f 267/267/267 269/269/269 268/268/268
f 270/270/270 268/268/268 269/269/269
f 269/269/269 271/271/271 270/270/270
f 272/272/272 270/270/270 271/271/271
f 271/271/271 273/273/273 272/272/272
f 274/274/274 272/272/272 273/273/273
f 273/273/273 275/275/275 274/274/274
f 276/276/276 274/274/274 275/275/275
f 277/277/277 279/279/279 278/278/278
f 280/280/280 278/278/278 279/279/279
f 279/279/279 281/281/281 280/280/280
f 282/282/282 280/280/280 281/281/281
f 281/281/281 283/283/283 282/282/282
f 284/284/284 282/282/282 283/283/283
f 283/283/283 285/285/285 284/284/284
f 286/286/286 284/284/284 285/285/285
f 285/285/285 287/287/287 286/286/286
f 288/288/288 286/286/286 287/287/287
f 289/289/289 291/291/291 290/290/290
f 292/292/292 290/290/290 291/291/291
f 291/291/291 293/293/293 292/292/292
f 294/294/294 292/292/292 293/293/293
f 293/293/293 295/295/295 294/294/294
f 296/296/296 294/294/294 295/295/295
f 295/295/295 297/297/297 296/296/296
f 298/298/298 296/296/296 297/297/297
f 297/297/297 299/299/299 298/298/298
f 300/300/300 298/298/298 299/299/299
f 301/301/301 303/303/303 302/302/302
f 304/304/304 302/302/302 303/303/303
f 303/303/303 305/305/305 304/304/304
f 306/306/306 304/304/304 305/305/305
f 305/305/305 307/307/307 306/306/306
f 308/308/308 306/306/306 307/307/307
f 307/307/307 309/309/309 308/308/308
f 310/310/310 308/308/308 309/309/309
f 309/309/309 311/311/311 310/310/310
f 312/312/312 310/310/310 311/311/311
f 313/313/313 315/315/315 314/314/314
f 316/316/316 314/314/314 315/315/315
f 315/315/315 317/317/317 316/316/316
f 318/318/318 316/316/316 317/317/317
f 317/317/317 319/319/319 318/318/318
f 320/320/320 318/318/318 319/319/319
f 319/319/319 321/321/321 320/320/320
f 322/322/322 320/320/320 321/321/321
f 321/321/321 323/323/323 322/322/322
f 324/324/324 322/322/322 323/323/323
f 325/325/325 327/327/327 326/326/326
f 328/328/328 326/326/326 327/327/327
f 327/327/327 329/329/329 328/328/328
f 330/330/330 328/328/328 329/329/329
f 329/329/329 331/331/331 330/330/330
f 332/332/332 330/330/330 331/331/331
f 331/331/331 333/333/333 332/332/332
f 334/334/334 332/332/332 333/333/333
f 333/333/333 335/335/335 334/334/334
f 336/336/336 334/334/334 335/335/335
f 337/337/337 339/339/339 338/338/338
f 340/340/340 338/338/338 339/339/339
f 339/339/339 341/341/341 340/340/340
f 342/342/342 340/340/340 341/341/341
f 341/341/341 343/343/343 342/342/342
f 344/344/344 342/342/342 343/343/343
f 343/343/343 345/345/345 344/344/344
f 346/346/346 344/344/344 345/345/345
f 345/345/345 347/347/347 346/346/346
f 348/348/348 346/346/346 347/347/347
f 349/349/349 351/351/351 350/350/350
f 352/352/352 350/350/350 351/351/351
f 351/351/351 353/353/353 352/352/352
f 354/354/354 352/352/352 353/353/353
f 353/353/353 355/355/355 354/354/354
f 356/356/356 354/354/354 355/355/355
f 355/355/355 357/357/357 356/356/356
f 358/358/358 356/356/356 357/357/357
f 357/357/357 359/359/359 358/358/358
f 360/360/360 358/358/358 359/359/359
f 361/361/361 363/363/363 362/362/362
f 364/364/364 362/362/362 363/363/363
f 363/363/363 365/365/365 364/364/364
f 366/366/366 364/364/364 365/365/365
f 365/365/365 367/367/367 366/366/366
f 368/368/368 366/366/366 367/367/367
f 367/367/367 369/369/369 368/368/368
f 370/370/370 368/368/368 369/369/369
f 369/369/369 371/371/371 370/370/370
f 372/372/372 370/370/370 371/371/371
f 373/373/373 375/375/375 374/374/374
f 376/376/376 374/374/374 375/375/375
f 375/375/375 377/377/377 376/376/376
f 378/378/378 376/376/376 377/377/377
f 377/377/377 379/379/379 378/378/378
f 380/380/380 378/378/378 379/379/379
f 379/379/379 381/381/381 380/380/380
f 382/382/382 380/380/380 381/381/381
f 381/381/381 383/383/383 382/382/382
f 384/384/384 382/382/382 383/383/383
f 385/385/385 387/387/387 386/386/386
f 388/388/388 386/386/386 387/387/387
f 387/387/387 389/389/389 388/388/388
f 390/390/390 388/388/388 389/389/389
f 389/389/389 391/391/391 390/390/390
f 392/392/392 390/390/390 391/391/391
f 391/391/391 393/393/393 392/392/392
f 394/394/394 392/392/392 393/393/393
f 393/393/393 395/395/395 394/394/394
f 396/396/396 394/394/394 395/395/395
f 397/397/397 399/399/399 398/398/398
f 400/400/400 398/398/398 399/399/399
f 399/399/399 401/401/401 400/400/400
f 402/402/402 400/400/400 401/401/401
f 401/401/401 403/403/403 402/402/402
f 404/404/404 402/402/402 403/403/403
f 403/403/403 405/405/405 404/404/404
f 406/406/406 404/404/404 405/405/405
f 405/405/405 407/407/407 406/406/406
f 408/408/408 406/406/406 407/407/407
f 409/409/409 411/411/411 410/410/410
f 412/412/412 410/410/410 411/411/411
f 411/411/411 413/413/413 412/412/412
f 414/414/414 412/412/412 413/413/413
f 413/413/413 415/415/415 414/414/414
f 416/416/416 414/414/414 415/415/415
f 415/415/415 417/417/417 416/416/416
f 418/418/418 416/416/416 417/417/417
f 417/417/417 419/419/419 418/418/418
f 420/420/420 418/418/418 419/419/419
f 421/421/421 423/423/423 422/422/422
f 424/424/424 422/422/422 423/423/423
f 423/423/423 425/425/425 424/424/424
f 426/426/426 424/424/424 425/425/425
f 425/425/425 427/427/427 426/426/426
f 428/428/428 426/426/426 427/427/427
f 427/427/427 429/429/429 428/428/428
f 430/430/430 428/428/428 429/429/429
f 429/429/429 431/431/431 430/430/430
f 432/432/432 430/430/430 431/431/431
f 433/433/433 435/435/435 434/434/434
f 436/436/436 434/434/434 435/435/435
f 435/435/435 437/437/437 436/436/436
f 438/438/438 436/436/436 437/437/437
f 437/437/437 439/439/439 438/438/438
f 440/440/440 438/438/438 439/439/439
f 439/439/439 441/441/441 440/440/440
f 442/442/442 440/440/440 441/441/441
f 441/441/441 443/443/443 442/442/442
f 444/444/444 442/442/442 443/443/443
f 445/445/445 447/447/447 446/446/446
f 448/448/448 446/446/446 447/447/447
f 447/447/447 449/449/449 448/448/448
f 450/450/450 448/448/448 449/449/449
f 449/449/449 451/451/451 450/450/450
f 452/452/452 450/450/450 451/451/451
f 451/451/451 453/453/453 452/452/452
f 454/454/454 452/452/452 453/453/453
f 453/453/453 455/455/455 454/454/454
f 456/456/456 454/454/454 455/455/455
f 457/457/457 459/459/459 458/458/458
f 460/460/460 458/458/458 459/459/459
f 459/459/459 461/461/461 460/460/460
f 462/462/462 460/460/460 461/461/461
f 461/461/461 463/463/463 462/462/462
f 464/464/464 462/462/462 463/463/463
f 463/463/463 465/465/465 464/464/464
f 466/466/466 464/464/464 465/465/465
f 465/465/465 467/467/467 466/466/466
f 468/468/468 466/466/466 467/467/467
f 469/469/469 471/471/471 470/470/470
f 472/472/472 470/470/470 471/471/471
f 471/471/471 473/473/473 472/472/472
f 474/474/474 472/472/472 473/473/473
f 473/473/473 475/475/475 474/474/474
f 476/476/476 474/474/474 475/475/475
f 475/475/475 477/477/477 476/476/476
f 478/478/478 476/476/476 477/477/477
f 477/477/477 479/479/479 478/478/478
f 480/480/480 478/478/478 479/479/479
f 481/481/481 483/483/483 482/482/482
f 484/484/484 482/482/482 483/483/483
f 483/483/483 485/485/485 484/484/484
f 486/486/486 484/484/484 485/485/485
f 485/485/485 487/487/487 486/486/486
f 488/488/488 486/486/486 487/487/487
f 487/487/487 489/489/489 488/488/488
f 490/490/490 488/488/488 489/489/489
f 489/489/489 491/491/491 490/490/490
f 492/492/492 490/490/490 491/491/491
f 493/493/493 495/495/495 494/494/494
f 496/496/496 494/494/494 495/495/495
f 495/495/495 497/497/497 496/496/496
f 498/498/498 496/496/496 497/497/497
f 497/497/497 499/499/499 498/498/498
f 500/500/500 498/498/498 499/499/499
f 499/499/499 501/501/501 500/500/500
f 502/502/502 500/500/500 501/501/501
f 501/501/501 503/503/503 502/502/502
f 504/504/504 502/502/502 503/503/503
f 505/505/505 507/507/507 506/506/506
f 508/508/508 506/506/506 507/507/507
f 507/507/507 509/509/509 508/508/508
f 510/510/510 508/508/508 509/509/509
f 509/509/509 511/511/511 510/510/510
f 512/512/512 510/510/510 511/511/511
f 511/511/511 513/513/513 512/512/512
f 514/514/514 512/512/512 513/513/513
f 513/513/513 515/515/515 514/514/514
f 516/516/516 514/514/514 515/515/515
f 517/517/517 519/519/519 518/518/518
f 520/520/520 518/518/518 519/519/519
f 519/519/519 521/521/521 520/520/520
f 522/522/522 520/520/520 521/521/521
f 521/521/521 523/523/523 522/522/522
f 524/524/524 522/522/522 523/523/523
f 523/523/523 525/525/525 524/524/524
f 526/526/526 524/524/524 525/525/525
f 525/525/525 527/527/527 526/526/526
f 528/528/528 526/526/526 527/527/527
f 529/529/529 531/531/531 530/530/530
f 532/532/532 530/530/530 531/531/531
f 531/531/531 533/533/533 532/532/532
f 534/534/534 532/532/532 533/533/533
f 533/533/533 535/535/535 534/534/534
f 536/536/536 534/534/534 535/535/535
f 535/535/535 537/537/537 536/536/536
f 538/538/538 536/536/536 537/537/537
f 537/537/537 539/539/539 538/538/538
f 540/540/540 538/538/538 539/539/539
f 541/541/541 543/543/543 542/542/542
f 544/544/544 542/542/542 543/543/543
f 543/543/543 545/545/545 544/544/544
f 546/546/546 544/544/544 545/545/545
f 545/545/545 547/547/547 546/546/546
f 548/548/548 546/546/546 547/547/547
f 547/547/547 549/549/549 548/548/548
f 550/550/550 548/548/548 549/549/549
f 549/549/549 551/551/551 550/550/550
f 552/552/552 550/550/550 551/551/551
f 553/553/553 555/555/555 554/554/554
f 556/556/556 554/554/554 555/555/555
f 555/555/555 557/557/557 556/556/556
f 558/558/558 556/556/556 557/557/557
f 557/557/557 559/559/559 558/558/558
f 560/560/560 558/558/558 559/559/559
f 559/559/559 561/561/561 560/560/560
f 562/562/562 560/560/560 561/561/561
f 561/561/561 563/563/563 562/562/562
f 564/564/564 562/562/562 563/563/563
f 565/565/565 567/567/567 566/566/566
f 568/568/568 566/566/566 567/567/567
f 567/567/567 569/569/569 568/568/568
f 570/570/570 568/568/568 569/569/569
f 569/569/569 571/571/571 570/570/570
f 572/572/572 570/570/570 571/571/571
f 571/571/571 573/573/573 572/572/572
f 574/574/574 572/572/572 573/573/573
f 573/573/573 575/575/575 574/574/574
f 576/576/576 574/574/574 575/575/575
f 577/577/577 579/579/579 578/578/578
f 580/580/580 578/578/578 579/579/579
f 579/579/579 581/581/581 580/580/580
f 582/582/582 580/580/580 581/581/581
f 581/581/581 583/583/583 582/582/582
f 584/584/584 582/582/582 583/583/583
f 583/583/583 585/585/585 584/584/584
f 586/586/586 584/584/584 585/585/585
f 585/585/585 587/587/587 586/586/586
f 588/588/588 586/586/586 587/587/587
f 589/589/589 591/591/591 590/590/590
f 592/592/592 590/590/590 591/591/591
f 591/591/591 593/593/593 592/592/592
f 594/594/594 592/592/592 593/593/593
f 593/593/593 595/595/595 594/594/594
f 596/596/596 594/594/594 595/595/595
f 595/595/595 597/597/597 596/596/596
f 598/598/598 596/596/596 597/597/597
f 597/597/597 599/599/599 598/598/598
f 600/600/600 598/598/598 599/599/599
f 601/601/601 603/603/603 602/602/602
f 604/604/604 602/602/602 603/603/603
f 603/603/603 605/605/605 604/604/604
f 606/606/606 604/604/604 605/605/605
f 605/605/605 607/607/607 606/606/606
f 608/608/608 606/606/606 607/607/607
f 607/607/607 609/609/609 608/608/608
f 610/610/610 608/608/608 609/609/609
f 609/609/609 611/611/611 610/610/610
f 612/612/612 610/610/610 611/611/611
f 613/613/613 615/615/615 614/614/614
f 616/616/616 614/614/614 615/615/615
f 615/615/615 617/617/617 616/616/616
f 618/618/618 616/616/616 617/617/617
f 617/617/617 619/619/619 618/618/618
f 620/620/620 618/618/618 619/619/619
f 619/619/619 621/621/621 620/620/620
f 622/622/622 620/620/620 621/621/621
f 621/621/621 623/623/623 622/622/622
f 624/624/624 622/622/622 623/623/623
f 625/625/625 627/627/627 626/626/626
f 628/628/628 626/626/626 627/627/627
f 627/627/627 629/629/629 628/628/628
f 630/630/630 628/628/628 629/629/629
f 629/629/629 631/631/631 630/630/630
f 632/632/632 630/630/630 631/631/631
f 631/631/631 633/633/633 632/632/632
f 634/634/634 632/632/632 633/633/633
f 633/633/633 635/635/635 634/634/634
f 636/636/636 634/634/634 635/635/635
f 637/637/637 639/639/639 638/638/638
f 640/640/640 638/638/638 639/639/639
f 639/639/639 641/641/641 640/640/640
f 642/642/642 640/640/640 641/641/641
f 641/641/641 643/643/643 642/642/642
f 644/644/644 642/642/642 643/643/643
f 643/643/643 645/645/645 644/644/644
f 646/646/646 644/644/644 645/645/645
f 645/645/645 647/647/647 646/646/646
f 648/648/648 646/646/646 647/647/647

g ring4
# texture: ring4.jpg
v -346.363 85.8743 -199.9935
v 0.025009 85.8743 -0.006115
v 199.9971 85.8743 -346.4117
v -146.41 85.8742 -546.41
v -199.9471 85.8742 346.3995
v -546.316 85.8742 146.423
v 346.4131 85.8742 199.9812
v 146.4219 85.8742 546.3759
v 546.4041 85.8743 -146.4133
vn 0 1 -0
vn 0 1 -0
vn 0 1 -0
vn 0 1 -0
vn 0 1 -0
vn 0 1 -0
vn 0 1 -0
vn 0 1 -0
vn 0 1 -0
vt 0.0006 0.5
vt 0.5 0.5
vt 0.5 0.9995
vt 0.0005 0.9995
vt 0.5001 0.0005
vt 0.0006 0.0005
vt 0.9995 0.5
vt 0.9995 0.0005
vt 0.9995 0.9995
f 649/649/649 651/651/651 650/650/650
f 651/651/651 649/649/649 652/652/652
f 649/649/649 650/650/650 653/653/653
f 653/653/653 654/654/654 649/649/649
f 655/655/655 653/653/653 650/650/650
f 653/653/653 655/655/655 656/656/656
f 655/655/655 650/650/650 651/651/651
f 651/651/651 657/657/657 655/655/655
