# Inferno01.bmd — MU geometry at action 0 key 6, exported for MU2
# 2 mesh(es)

g ring3
# texture: ring3.jpg
v 219.6512 245.0107 261.2941
v 219.6511 139.1934 261.2943
v 137.7297 245.0107 307.0786
v 137.7296 139.1934 307.0786
v 46.91261 245.0108 330.7346
v 46.91261 139.1935 330.7346
v -46.93479 245.0108 330.7346
v -46.93479 139.1935 330.7346
v -137.7518 245.0108 307.0786
v -137.7519 139.1935 307.0785
v -219.6734 245.0108 261.2943
v -219.6733 139.1935 261.2942
v 193.8714 161.755 226.4548
v 245.4309 222.4492 296.1335
v 121.5642 161.7549 266.8659
v 153.895 222.4492 347.2912
v 41.40559 161.755 287.7457
v 52.41962 222.4493 373.7236
v -41.4278 161.7549 287.7457
v -52.44178 222.4493 373.7236
v -121.5865 161.755 266.8659
v -153.9172 222.4493 347.2913
v -193.8936 161.755 226.4549
v -245.4531 222.4493 296.1336
v 195.5428 226.1111 228.7135
v 243.7595 158.0931 293.8748
v 122.6123 226.1111 269.473
v 152.847 158.093 344.6841
v 41.7626 226.1111 290.5328
v 52.06262 158.0931 370.9365
v -41.78481 226.1112 290.5327
v -52.08478 158.0931 370.9365
v -122.6345 226.1111 269.473
v -152.8692 158.0931 344.6842
v -195.5649 226.1111 228.7136
v -243.7817 158.0931 293.8749
v -158.5864 226.0919 197.7666
v -158.5864 158.1123 197.7666
v -203.4944 226.0919 144.9255
v -203.4944 158.1123 144.9255
v -233.7879 226.0919 79.11838
v -233.788 158.1123 79.11838
v -246.5668 226.0919 6.645884
v -246.5668 158.1123 6.645884
v -240.6075 226.0919 -65.55363
v -240.6075 158.1123 -65.55363
v -216.4807 226.0919 -130.5675
v -216.4807 158.1123 -130.5674
v -143.171 172.6064 170.8286
v -174.0018 211.5979 224.7048
v -181.6535 172.6064 125.5481
v -225.3353 211.5979 164.3029
v -207.6125 172.6064 69.15697
v -259.9634 211.5979 89.07989
v -218.5629 172.6064 7.054075
v -274.5708 211.5979 6.237693
v -213.4563 172.6064 -54.81482
v -267.7588 211.5979 -76.29231
v -192.7816 172.6064 -110.5262
v -240.1797 211.5978 -150.6086
v -144.1704 213.9504 172.575
v -173.0023 170.2539 222.9584
v -183.0695 213.9504 126.8044
v -223.9193 170.2539 163.0466
v -209.3095 213.9504 69.80276
v -258.2664 170.2539 88.43408
v -220.3785 213.9503 7.027576
v -272.7552 170.2539 6.264092
v -215.2166 213.9503 -55.51102
v -265.9985 170.2539 -75.59612
v -194.318 213.9503 -111.8256
v -238.6432 170.2539 -149.3093
v -241.6109 245.0107 -241.155
v -241.611 139.1934 -241.155
v -163.9915 245.0107 -293.9052
v -163.9915 139.1934 -293.9052
v -75.58181 245.0107 -325.3864
v -75.58191 139.1934 -325.3864
v 17.90849 245.0107 -333.5657
v 17.90849 139.1934 -333.5657
v 110.4417 245.0107 -317.9149
v 110.4417 139.1934 -317.9149
v 196.0418 245.0107 -279.4447
v 196.0418 139.1934 -279.4447
v -212.8928 161.7549 -208.6951
v -270.329 222.4493 -273.615
v -144.3829 161.7549 -255.2543
v -183.6002 222.4492 -332.5558
v -66.34909 161.7549 -283.041
v -84.81462 222.4492 -367.7318
v 16.16911 161.7549 -290.2604
v 19.64778 222.4492 -376.8711
v 97.84261 161.7549 -276.4464
v 123.0408 222.4492 -359.3834
v 173.3966 161.7549 -242.4911
v 218.687 222.4492 -316.3983
v -214.7547 226.1111 -210.7995
v -268.4671 158.0931 -271.5105
v -145.6542 226.1111 -257.7603
v -182.3289 158.093 -330.05
v -66.94759 226.1111 -285.7864
v -84.21613 158.093 -364.9865
v 16.2819 226.1111 -293.068
v 19.53498 158.093 -374.0634
v 98.65941 226.111 -279.1349
v 122.2239 158.093 -356.6949
v 174.8648 226.1111 -244.8869
v 217.2189 158.093 -314.0025
v 248.3295 226.0918 -48.60887
v 248.3295 158.1122 -48.60887
v 248.7653 226.0919 20.73602
v 248.7653 158.1122 20.73602
v 229.6715 226.0919 90.61952
v 229.6715 158.1122 90.61952
v 192.8763 226.0919 154.3508
v 192.8763 158.1123 154.3508
v 141.9024 226.0919 205.8282
v 141.9024 158.1123 205.8282
v 81.62997 226.0919 240.1234
v 81.62997 158.1123 240.1233
v 219.2052 172.6063 -37.88187
v 277.4538 211.5978 -59.33588
v 219.5786 172.6063 21.54093
v 277.952 211.5978 19.93121
v 203.2169 172.6063 81.42523
v 256.1262 211.5978 99.81382
v 171.6864 172.6063 136.0375
v 214.0662 211.5978 172.6641
v 128.0061 172.6063 180.1495
v 155.7987 211.5978 231.5072
v 76.35767 172.6063 209.5374
v 86.90229 211.5978 270.7093
v 221.0934 213.9503 -38.57737
v 275.5657 170.2538 -58.64038
v 221.4709 213.9503 21.48873
v 276.0598 170.2538 19.98341
v 204.932 213.9503 82.02133
v 254.4111 170.2538 99.21782
v 173.0602 213.9503 137.2248
v 212.6924 170.2538 171.4768
v 128.907 213.9503 181.8143
v 154.8977 170.2539 229.8424
v 76.69947 213.9503 211.5204
v 86.56049 170.2539 268.7263
v 102.5793 229.1529 31.13377
v 102.5793 155.0512 31.13377
v 83.11163 229.153 63.13788
v 83.11163 155.0512 63.13788
v 58.17142 229.153 86.38008
v 58.17142 155.0512 86.38019
v 28.40053 229.153 100.2625
v 28.40053 155.0512 100.2626
v -5.435366 229.153 104.428
v -5.435366 155.0512 104.428
v -42.46547 229.153 98.76922
v -42.46547 155.0513 98.76922
v 85.4091 170.8506 8.314576
v 119.7495 213.3536 53.95287
v 67.38112 170.8506 37.95189
v 98.84213 213.3536 88.32377
v 44.28532 170.8506 59.47539
v 72.05754 213.3536 113.2849
v 16.71602 170.8506 72.33109
v 40.08494 213.3536 128.194
v -14.61748 170.8506 76.18851
v 3.746843 213.3536 132.6675
v -48.90918 170.8506 70.94821
v -36.02186 213.3536 126.5902
v 86.5223 215.9179 9.793975
v 118.6363 168.2862 52.47347
v 68.40092 215.9179 39.58479
v 97.82233 168.2862 86.69097
v 45.18562 215.9179 61.21959
v 71.15734 168.2862 111.5406
v 17.47363 215.918 74.14189
v 39.32744 168.2862 126.3831
v -14.02217 215.918 78.01931
v 3.151543 168.2863 130.8366
v -48.49138 215.9179 72.75191
v -36.43956 168.2863 124.7865
v -85.86612 229.153 -63.20407
v -85.86612 155.0512 -63.20417
v -56.62643 229.153 -86.61978
v -56.62643 155.0512 -86.61978
v -25.24103 229.153 -99.93039
v -25.24103 155.0512 -99.93039
v 7.482567 229.1529 -102.7933
v 7.482567 155.0512 -102.7933
v 40.70257 229.1529 -95.13502
v 40.70247 155.0512 -95.13502
v 73.56418 229.1529 -77.15242
v 73.56408 155.0512 -77.15242
v -77.53602 170.8506 -35.88857
v -94.19633 213.3536 -90.51967
v -50.45862 170.8506 -57.57258
v -62.79424 213.3536 -115.667
v -21.39432 170.8506 -69.8988
v -29.08774 213.3536 -129.9619
v 8.909276 170.8506 -72.55
v 6.055857 213.3536 -133.0366
v 39.67248 170.8506 -65.45811
v 41.73256 213.3536 -124.8119
v 70.10388 170.8506 -48.80542
v 77.02436 213.3536 -105.4995
v -78.07601 215.918 -37.65947
v -93.65623 168.2863 -88.74877
v -50.85852 215.9179 -59.45578
v -62.39434 168.2862 -113.7838
v -21.64372 215.9179 -71.84579
v -28.83834 168.2862 -128.0149
v 8.816776 215.9179 -74.5107
v 6.148357 168.2862 -131.0758
v 39.73928 215.9179 -67.38212
v 41.66576 168.2862 -122.8879
v 70.32819 215.9179 -50.64322
v 76.80007 168.2862 -103.6617
v -196.0531 12.2553 279.4561
v -196.053 118.0726 279.4562
v -110.4529 12.2553 317.9262
v -110.4529 118.0726 317.9263
v -17.91959 12.2553 333.5771
v -17.91959 118.0726 333.5771
v 75.57071 12.2552 325.3977
v 75.57071 118.0726 325.3977
v 163.9804 12.2552 293.9164
v 163.9805 118.0726 293.9164
v 241.5999 12.2552 241.1662
v 241.5998 118.0726 241.1663
v -173.4078 95.51111 242.5024
v -218.6983 34.8168 316.4097
v -97.85378 95.51111 276.4578
v -123.052 34.8168 359.3948
v -16.1803 95.51111 290.2717
v -19.65884 34.8168 376.8824
v 66.33789 95.51111 283.0524
v 84.80353 34.8168 367.743
v 144.3718 95.51111 255.2656
v 183.5891 34.8168 332.5671
v 212.8817 95.51111 208.7063
v 270.318 34.8168 273.6262
v -174.876 31.15491 244.8982
v -217.2301 99.173 314.014
v -98.67059 31.15491 279.1462
v -122.2351 99.173 356.7063
v -16.29309 31.15491 293.0793
v -19.54614 99.173 374.0748
v 66.93652 31.15491 285.7976
v 84.20493 99.173 364.9978
v 145.6431 31.15491 257.7715
v 182.3178 99.173 330.0613
v 214.7436 31.15491 210.8108
v 268.4562 99.173 271.5218
v 175.2085 31.1741 183.2045
v 175.2085 99.15381 183.2045
v 215.3401 31.1741 126.6504
v 215.3401 99.15381 126.6504
v 239.7829 31.1741 58.4534
v 239.7829 99.15381 58.4534
v 246.1968 31.1741 -14.85711
v 246.1968 99.1537 -14.85711
v 233.9674 31.1741 -86.26249
v 233.9674 99.1537 -86.26249
v 204.266 31.1741 -148.9262
v 204.266 99.1537 -148.9261
v 157.504 84.6597 157.7124
v 192.9131 45.6682 208.6966
v 191.8934 84.6597 109.2503
v 238.7868 45.6682 144.0505
v 212.8388 84.6597 50.81121
v 266.727 45.6682 66.0957
v 218.335 84.6597 -12.00978
v 274.0586 45.6682 -17.70453
v 207.8555 84.6597 -73.19816
v 260.0795 45.6682 -99.32679
v 182.4038 84.6597 -126.8957
v 226.1282 45.6682 -170.9566
v 158.6518 43.3157 159.3651
v 191.7653 87.01221 207.0438
v 193.4135 43.3157 110.3784
v 237.2668 87.01221 142.9224
v 214.5857 43.3157 51.30671
v 264.9802 87.01221 65.6002
v 220.1413 43.3157 -12.19439
v 272.2522 87.01221 -17.5199
v 209.5484 43.3157 -74.04519
v 258.3865 87.01221 -98.4798
v 183.8212 43.3157 -128.324
v 224.7108 87.01221 -169.5283
v 219.6622 12.2553 -261.2832
v 219.6622 118.0726 -261.2832
v 137.7407 12.2553 -307.0675
v 137.7407 118.0726 -307.0675
v 46.92358 12.2553 -330.7235
v 46.92358 118.0726 -330.7235
v -46.92392 12.2552 -330.7235
v -46.92392 118.0726 -330.7235
v -137.7409 12.2552 -307.0674
v -137.7409 118.0726 -307.0674
v -219.6625 12.2552 -261.283
v -219.6624 118.0726 -261.283
v 193.8825 95.51111 -226.4438
v 245.442 34.8168 -296.1226
v 121.5753 95.51111 -266.8548
v 153.9061 34.8168 -347.2802
v 41.4166 95.51111 -287.7346
v 52.43054 34.8168 -373.7125
v -41.41681 95.51111 -287.7346
v -52.43091 34.8168 -373.7126
v -121.5755 95.51111 -266.8547
v -153.9063 34.8168 -347.2802
v -193.8827 95.51111 -226.4436
v -245.4422 34.8168 -296.1223
v 195.5538 31.15491 -228.7025
v 243.7706 99.173 -293.8638
v 122.6234 31.15491 -269.4619
v 152.858 99.173 -344.6732
v 41.77367 31.15491 -290.5217
v 52.07355 99.173 -370.9254
v -41.7739 31.15491 -290.5216
v -52.07385 99.173 -370.9254
v -122.6236 31.15491 -269.4619
v -152.8583 99.173 -344.673
v -195.554 31.15491 -228.7023
v -243.7709 99.173 -293.8636
v -251.6323 31.1741 -26.7683
v -251.6323 99.15381 -26.7683
v -246.0227 31.1741 42.3508
v -246.0227 99.15381 42.3508
v -220.9107 31.1741 110.3042
v -220.9107 99.15381 110.3042
v -178.7008 31.1741 170.5861
v -178.7008 99.1537 170.5861
v -123.4342 31.1741 217.4249
v -123.4342 99.1537 217.4249
v -60.40222 31.1741 246.3363
v -60.40222 99.1537 246.3363
v -221.6839 84.6597 -18.62043
v -281.5807 45.6682 -34.91608
v -216.8769 84.6597 40.60876
v -275.1684 45.6682 44.0928
v -195.3581 84.6597 98.83918
v -246.4635 45.6682 121.7693
v -159.1877 84.6597 150.4957
v -198.214 45.6682 190.6765
v -111.8289 84.6597 190.6326
v -135.0396 45.6682 244.2172
v -57.8157 84.6597 215.4073
v -62.98868 45.6682 277.2654
v -223.6255 43.3157 -19.14872
v -279.6391 87.01221 -34.38782
v -218.7665 43.3157 40.72169
v -273.2788 87.01221 43.97992
v -197.0147 43.3157 99.58247
v -244.8067 87.01221 121.026
v -160.4528 43.3157 151.7981
v -196.9489 87.01221 189.374
v -112.5813 43.3157 192.3696
v -134.2872 87.01221 242.4802
v -57.98341 43.3157 217.4125
v -62.82098 87.01221 275.2602
v -99.48659 28.1131 39.96783
v -99.48659 102.2148 39.96794
v -77.30369 28.1131 70.15353
v -77.30369 102.2148 70.15353
v -50.43266 28.1131 91.13361
v -50.43266 102.2148 91.13361
v -19.56506 28.11301 102.3685
v -19.56506 102.2148 102.3685
v 14.50504 28.11301 103.5691
v 14.50504 102.2148 103.5691
v 50.90113 28.11301 94.70446
v 50.90113 102.2148 94.70446
v -84.3706 86.41541 15.73903
v -114.6027 43.9124 64.19673
v -63.82808 86.4155 43.69232
v -90.77917 43.9124 96.61462
v -38.94428 86.4155 63.12101
v -61.92106 43.9124 119.1463
v -10.35947 86.4155 73.525
v -28.77066 43.9124 131.2121
v 21.19102 86.4155 74.63679
v 7.819046 43.9124 132.5014
v 54.89552 86.4155 66.42767
v 46.90685 43.9124 122.9812
v -85.35059 41.3481 17.30983
v -113.6227 88.9798 62.62583
v -64.70179 41.3481 45.40792
v -89.90556 88.9798 94.89912
v -39.68918 41.3481 64.93711
v -61.17625 88.9798 117.3302
v -10.95628 41.3481 75.3949
v -28.17386 88.9798 129.342
v 20.75762 41.3481 76.51248
v 8.252548 88.9798 130.6256
v 54.63653 41.3481 68.26096
v 47.16573 88.9798 121.148
v 80.01966 28.1131 -70.43524
v 80.01966 102.2148 -70.43524
v 48.85036 28.1131 -91.21343
v 48.85036 102.2148 -91.21343
v 16.42426 28.1131 -101.7379
v 16.42426 102.2148 -101.7379
v -16.42434 28.11301 -101.7378
v -16.42434 102.2148 -101.7378
v -48.85044 28.11301 -91.21339
v -48.85044 102.2148 -91.21339
v -80.01973 28.11301 -70.43518
v -80.01973 102.2148 -70.43518
v 74.10197 86.41541 -42.49764
v 85.93736 43.9124 -98.37284
v 45.23767 86.4155 -61.73911
v 52.46295 43.9124 -120.6876
v 15.20966 86.4155 -71.48531
v 17.63895 43.9124 -131.9904
v -15.20973 86.4155 -71.48531
v -17.63895 43.9124 -131.9904
v -45.23773 86.4155 -61.73909
v -52.46305 43.9124 -120.6876
v -74.10191 86.4155 -42.49757
v -85.93744 43.9124 -98.37278
v 74.48558 41.3481 -44.30883
v 85.55365 88.9798 -96.56164
v 45.47197 41.3481 -63.65002
v 52.22875 88.9798 -118.7767
v 15.28836 41.3481 -73.44672
v 17.56015 88.9798 -130.0291
v -15.28842 41.3481 -73.4466
v -17.56024 88.9798 -130.0291
v -45.47192 41.3481 -63.64998
v -52.22885 88.9798 -118.7767
v -74.48562 41.3481 -44.30877
v -85.55373 88.9798 -96.56148
v 200.9954 100.4298 168.9823
v 200.9955 181.8277 168.9823
v 236.2142 100.4298 105.9658
v 236.2142 181.8277 105.9658
v 254.4113 100.4298 36.10654
v 254.4113 181.8277 36.10654
v 254.4113 100.4298 -36.08376
v 254.4113 181.8277 -36.08376
v 236.2144 100.4298 -105.943
v 236.2144 181.8277 -105.943
v 200.9957 100.4297 -168.9597
v 200.9957 181.8277 -168.9597
v 174.1959 164.4727 149.1517
v 227.795 117.7848 188.813
v 205.2814 164.4727 93.53093
v 267.147 117.7848 118.4008
v 221.3428 164.4727 31.87032
v 287.4797 117.7848 40.34278
v 221.3429 164.4727 -31.84766
v 287.4798 117.7848 -40.31992
v 205.2816 164.4727 -93.5082
v 267.1472 117.7848 -118.3779
v 174.1962 164.4727 -149.1291
v 227.7952 117.7848 -188.7903
v 175.9334 114.968 150.4374
v 226.0574 167.2895 187.5273
v 207.2869 114.968 94.33703
v 265.1416 167.2895 117.5946
v 223.4868 114.968 32.14503
v 285.3358 167.2895 40.06808
v 223.4868 114.9679 -32.12226
v 285.3358 167.2896 -40.04533
v 207.2871 114.968 -94.31437
v 265.1418 167.2896 -117.5717
v 175.9337 114.968 -150.4148
v 226.0577 167.2896 -187.5046
v 152.1284 114.9827 -121.9697
v 152.1284 167.2748 -121.9697
v 111.4813 114.9827 -156.5143
v 111.4813 167.2748 -156.5143
v 60.8604 114.9827 -179.817
v 60.8604 167.2748 -179.817
v 5.11232 114.9827 -189.647
v 5.11232 167.2748 -189.647
v -50.4257 114.9827 -185.0629
v -50.4257 167.2748 -185.0629
v -100.4364 114.9827 -166.5038
v -100.4364 167.2748 -166.5038
v 131.4066 156.1254 -110.1117
v 172.85 126.132 -133.8277
v 96.57558 156.1255 -139.7136
v 126.387 126.132 -173.315
v 53.1978 156.1255 -159.6821
v 68.52312 126.132 -199.9521
v 5.4263 156.1255 -168.1055
v 4.798325 126.132 -211.1885
v -42.16521 156.1255 -164.1774
v -58.68629 126.132 -205.9485
v -85.02011 156.1255 -148.2737
v -115.8527 126.132 -184.734
v 132.7501 124.3224 -110.8805
v 171.5065 157.9351 -133.0589
v 97.54198 124.3224 -140.8028
v 125.4206 157.9351 -172.2258
v 53.69458 124.3224 -160.9875
v 68.02632 157.9351 -198.6467
v 5.405899 124.3224 -169.5022
v 4.818726 157.9351 -209.7919
v -42.7007 124.3224 -165.5314
v -58.15077 157.9351 -204.5945
v -86.01962 124.3224 -149.4557
v -114.8532 157.9351 -183.5521
v -185.5038 100.4298 -185.8348
v -185.5038 181.8277 -185.8348
v -226.0808 100.4298 -126.1276
v -226.0808 181.8277 -126.1276
v -250.2973 100.4298 -58.12016
v -250.2973 181.8277 -58.12016
v -256.5891 100.4297 13.79543
v -256.5891 181.8277 13.79543
v -244.55 100.4297 84.97483
v -244.55 181.8277 84.97483
v -214.9576 100.4297 150.8212
v -214.9576 181.8277 150.8212
v -160.5346 164.4727 -163.744
v -210.4729 117.7848 -207.9257
v -196.3495 164.4727 -111.044
v -255.8121 117.7848 -141.2113
v -217.7239 164.4727 -51.01804
v -282.8707 117.7848 -65.22239
v -223.2773 164.4727 12.45756
v -289.9009 117.7848 15.13332
v -212.6511 164.4727 75.28327
v -276.4489 117.7848 94.6664
v -186.5317 164.4727 133.4018
v -243.3835 117.7848 168.2405
v -162.1534 114.968 -165.1762
v -208.8541 167.2896 -206.4935
v -198.277 114.968 -112.0219
v -253.8846 167.2896 -140.2334
v -219.8356 114.968 -51.47845
v -280.7589 167.2896 -64.76188
v -225.437 114.9679 12.54424
v -287.7412 167.2896 15.04662
v -214.7192 114.968 75.91154
v -274.3809 167.2896 94.03811
v -188.3747 114.968 134.5312
v -241.5406 167.2896 167.1111
v -37.39165 114.9827 191.0426
v -37.39154 167.2748 191.0426
v 15.95067 114.9827 191.3778
v 15.95067 167.2748 191.3778
v 69.70728 114.9827 176.6904
v 69.70728 167.2748 176.6904
v 118.7314 114.9827 148.3863
v 118.7313 167.2747 148.3863
v 158.3294 114.9827 109.1755
v 158.3294 167.2747 109.1755
v 184.7103 114.9827 62.81219
v 184.7103 167.2747 62.81219
v -29.14001 156.1254 168.6392
v -45.64314 126.132 213.4459
v 16.56989 156.1255 168.9265
v 15.33156 126.132 213.8291
v 62.6347 156.1255 156.3405
v 76.77977 126.132 197.04
v 104.6442 156.1255 132.0864
v 132.8185 126.132 164.6862
v 138.5764 156.1255 98.48608
v 178.0823 126.132 119.865
v 161.1826 156.1255 58.75649
v 208.2379 126.132 66.86781
v -29.67502 124.3224 170.0917
v -45.10812 157.9351 211.9933
v 16.52969 124.3224 170.3821
v 15.37166 157.9351 212.3735
v 63.0932 124.3224 157.6599
v 76.32126 157.9351 195.7207
v 105.5575 124.3224 133.1432
v 131.9052 157.9351 163.6295
v 139.857 124.3224 99.17908
v 176.8017 157.9351 119.172
v 162.7079 124.3224 59.01949
v 206.7126 157.9351 66.6049
v 23.94894 112.6281 78.92701
v 23.94904 169.6294 78.92701
v 48.56755 112.6281 63.95182
v 48.56755 169.6294 63.95182
v 66.44627 112.6281 44.76714
v 66.44627 169.6294 44.76714
v 77.12508 112.6281 21.86634
v 77.12508 169.6294 21.86634
v 80.32919 112.6281 -4.161155
v 80.32919 169.6294 -4.161155
v 75.9763 112.6281 -32.64597
v 75.9763 169.6294 -32.64597
v 6.395752 157.4761 65.71909
v 41.50223 124.7814 92.13493
v 29.19376 157.4761 51.85141
v 67.94135 124.7814 76.05222
v 45.75027 157.4761 34.08552
v 87.14226 124.7814 55.44874
v 55.63929 157.4761 12.87833
v 98.61077 124.7814 30.85446
v 58.60649 157.4761 -11.22437
v 102.0519 124.7814 2.902062
v 54.57561 157.4761 -37.60257
v 97.37711 124.7814 -27.68924
v 7.533852 122.8089 66.57539
v 40.36413 159.4486 91.27862
v 30.44986 122.8089 52.63591
v 66.68535 159.4486 75.26773
v 47.09196 122.8089 34.77802
v 85.80045 159.4486 54.75624
v 57.03228 122.8089 13.46103
v 97.21776 159.4486 30.27175
v 60.0149 122.8089 -10.76647
v 100.6436 159.4486 2.444154
v 55.96301 122.8089 -37.28127
v 95.98971 159.4486 -28.01065
v -48.61845 112.6281 -66.03114
v -48.61856 169.6295 -66.03114
v -66.63058 112.6281 -43.53905
v -66.63058 169.6295 -43.53905
v -76.86948 112.6281 -19.39645
v -76.86948 169.6295 -19.39645
v -79.0718 112.6281 5.775643
v -79.0718 169.6294 5.775643
v -73.18083 112.6281 31.32944
v -73.18083 169.6294 31.32944
v -59.34804 112.6281 56.60755
v -59.34804 169.6294 56.60755
v -27.60657 157.4761 -59.62333
v -69.63046 124.7814 -72.43896
v -44.28658 157.4761 -38.79453
v -88.97458 124.7814 -48.28346
v -53.7683 157.4761 -16.43744
v -99.97069 124.7814 -22.35547
v -55.80771 157.4761 6.873059
v -102.3359 124.7814 4.678132
v -50.35243 157.4761 30.53706
v -96.00923 124.7814 32.12173
v -37.54264 157.4761 53.94587
v -81.15355 124.7814 59.26934
v -28.96887 122.8089 -60.03872
v -68.26827 159.4486 -72.02345
v -45.73528 122.8089 -39.10213
v -87.52597 159.4486 -47.97586
v -55.26599 122.8089 -16.62924
v -98.47298 159.4486 -22.16357
v -57.31601 122.8089 6.801957
v -100.8276 159.4486 4.749329
v -51.83242 122.8089 30.58846
v -94.52922 159.4486 32.07033
v -38.95634 122.8089 54.11837
v -79.73984 159.4486 59.09675
vn -0.4879 0 -0.8729
vn -0.4879 0 -0.8729
vn -0.412198 0 -0.911094
vn -0.333098 0 -0.942892
vn -0.169294 0 -0.985566
vn -0.084602 0 -0.996415
vn 0.084601 0 -0.996415
vn 0.169294 0 -0.985566
vn 0.333097 0 -0.942893
vn 0.412197 0 -0.911095
vn 0.4879 0 -0.8729
vn 0.4879 0 -0.8729
vn 0.281388 -0.816965 0.503378
vn 0.281411 -0.816931 0.503419
vn 0.2366 -0.8189 0.5229
vn 0.191195 -0.818879 0.541186
vn 0.097104 -0.818929 0.56562
vn 0.048599 -0.818888 0.571892
vn -0.048599 -0.818888 0.571892
vn -0.097103 -0.818929 0.56562
vn -0.191195 -0.818879 0.541186
vn -0.2366 -0.8189 0.5229
vn -0.281411 -0.816931 0.50342
vn -0.281411 -0.816931 0.50342
vn -0.315086 -0.763465 -0.563774
vn -0.315086 -0.763465 -0.563774
vn -0.265099 -0.765798 -0.585898
vn -0.214195 -0.76578 -0.606384
vn -0.108893 -0.765747 -0.633856
vn -0.054399 -0.765787 -0.640789
vn 0.054399 -0.765787 -0.640789
vn 0.108892 -0.765747 -0.633856
vn 0.214194 -0.76578 -0.606384
vn 0.265099 -0.765798 -0.585898
vn 0.315086 -0.763465 -0.563775
vn 0.315086 -0.763465 -0.563775
vn 0.761989 0 -0.647591
vn 0.761989 0 -0.647591
vn 0.817513 0 -0.57591
vn 0.866713 0 -0.498808
vn 0.940745 0 -0.339116
vn 0.966411 0 -0.257003
vn 0.996031 0 -0.089003
vn 0.999995 0 -0.0031
vn 0.985063 0 0.172193
vn 0.965203 0 0.261501
vn 0.937528 0 0.34791
vn 0.937528 0 0.34791
vn -0.423191 -0.831583 0.359693
vn -0.423191 -0.831583 0.359693
vn -0.456591 -0.829984 0.320394
vn -0.488919 -0.826133 0.280111
vn -0.537599 -0.820698 0.1935
vn -0.554192 -0.819288 0.147098
vn -0.571086 -0.81928 0.051399
vn -0.571386 -0.820679 0.0021
vn -0.555227 -0.82614 -0.096004
vn -0.538675 -0.829961 -0.144893
vn -0.520697 -0.831595 -0.193199
vn -0.520697 -0.831595 -0.193199
vn 0.476113 -0.780721 -0.404711
vn 0.476113 -0.780721 -0.404711
vn 0.513401 -0.778801 -0.360401
vn 0.548989 -0.774284 -0.314794
vn 0.602821 -0.767827 -0.216908
vn 0.621104 -0.766205 -0.164801
vn 0.64001 -0.766212 -0.057501
vn 0.640635 -0.767842 -0.0023
vn 0.623514 -0.774317 0.108002
vn 0.605699 -0.778799 0.1631
vn 0.585824 -0.780733 0.217409
vn 0.585824 -0.780733 0.217409
vn 0.562086 0 0.827079
vn 0.562086 0 0.827079
vn 0.490086 0 0.871674
vn 0.413992 0 0.910281
vn 0.254494 0 0.967075
vn 0.171207 0 0.985235
vn 0.0025 0 0.999997
vn -0.082698 0 0.996575
vn -0.249612 0 0.968346
vn -0.331308 0 0.943523
vn -0.409911 0 0.912126
vn -0.409911 0 0.912126
vn -0.324207 -0.816916 -0.477009
vn -0.324207 -0.816916 -0.477009
vn -0.281296 -0.818889 -0.500293
vn -0.237606 -0.818919 -0.522412
vn -0.146103 -0.818913 -0.555009
vn -0.098199 -0.818888 -0.565491
vn -0.0015 -0.818916 -0.573911
vn 0.047499 -0.818885 -0.571989
vn 0.143297 -0.818881 -0.555787
vn 0.190104 -0.818918 -0.541512
vn 0.236413 -0.816946 -0.52603
vn 0.236413 -0.816946 -0.52603
vn 0.362987 -0.763473 0.534181
vn 0.362987 -0.763473 0.534181
vn 0.315189 -0.765772 0.560579
vn 0.2662 -0.765798 0.585398
vn 0.16369 -0.76575 0.621959
vn 0.110099 -0.765792 0.633593
vn 0.0016 -0.765789 0.64309
vn -0.053199 -0.765788 0.64089
vn -0.160493 -0.765766 0.622772
vn -0.212997 -0.76579 0.606793
vn -0.264788 -0.763466 0.589074
vn -0.264788 -0.763466 0.589074
vn -0.99998 0 0.0063
vn -0.99998 0 0.0063
vn -0.996432 0 -0.084402
vn -0.984552 0 -0.175091
vn -0.938635 0 -0.344913
vn -0.905518 0 -0.424308
vn -0.820189 0 -0.572092
vn -0.768025 0 -0.64042
vn -0.643905 0 -0.765106
vn -0.571273 0 -0.82076
vn -0.494491 0 -0.869183
vn -0.494491 0 -0.869183
vn 0.555389 -0.831583 -0.0035
vn 0.555389 -0.831583 -0.0035
vn 0.555696 -0.829993 0.048099
vn 0.554616 -0.826124 0.099603
vn 0.536193 -0.82069 0.197397
vn 0.519085 -0.819276 0.243593
vn 0.470498 -0.819296 0.327698
vn 0.438999 -0.820698 0.365699
vn 0.363604 -0.82611 0.430505
vn 0.319498 -0.829995 0.457197
vn 0.274698 -0.831593 0.482696
vn 0.274698 -0.831593 0.482696
vn -0.624837 -0.780746 0.0039
vn -0.624837 -0.780746 0.0039
vn -0.62492 -0.778826 -0.053902
vn -0.622886 -0.774283 -0.111797
vn -0.601221 -0.767826 -0.221307
vn -0.581776 -0.766168 -0.272989
vn -0.527296 -0.766194 -0.367297
vn -0.49223 -0.767847 -0.410025
vn -0.408212 -0.774323 -0.483514
vn -0.359121 -0.778845 -0.51423
vn -0.309011 -0.780727 -0.543119
vn -0.309011 -0.780727 -0.543119
vn -0.854363 0 -0.519677
vn -0.854363 0 -0.519677
vn -0.803502 0 -0.595301
vn -0.745503 0 -0.666502
vn -0.601998 0 -0.798497
vn -0.514614 0 -0.857422
vn -0.325991 0 -0.945373
vn -0.224801 0 -0.974405
vn -0.031401 0 -0.999507
vn 0.060498 0 -0.998168
vn 0.151102 0 -0.988518
vn 0.151102 0 -0.988518
vn 0.534171 -0.780457 0.324882
vn 0.534171 -0.780457 0.324882
vn 0.491578 -0.792264 0.361483
vn 0.447298 -0.801496 0.396898
vn 0.35 -0.814499 0.4627
vn 0.296906 -0.817916 0.492809
vn 0.186606 -0.817927 0.544218
vn 0.129396 -0.814477 0.565584
vn 0.0166 -0.801483 0.597787
vn -0.039099 -0.792289 0.608892
vn -0.094399 -0.780494 0.617995
vn -0.094399 -0.780494 0.617995
vn -0.591684 -0.72138 -0.35989
vn -0.591684 -0.72138 -0.35989
vn -0.546196 -0.734894 -0.401997
vn -0.498308 -0.745512 -0.442607
vn -0.391604 -0.760608 -0.517805
vn -0.332503 -0.764606 -0.552104
vn -0.209201 -0.764604 -0.609603
vn -0.145002 -0.76061 -0.632808
vn -0.018801 -0.74552 -0.666218
vn 0.0431 -0.734902 -0.676802
vn 0.104598 -0.721387 -0.684588
vn 0.104598 -0.721387 -0.684588
vn 0.625073 0 0.780566
vn 0.625073 0 0.780566
vn 0.551489 0 0.834182
vn 0.472591 0 0.881282
vn 0.292491 0 0.956268
vn 0.190305 0 0.981725
vn -0.016999 0 0.999856
vn -0.122003 0 0.99253
vn -0.312385 0 0.949956
vn -0.398199 0 0.917299
vn -0.480029 0 0.877253
vn -0.480029 0 0.877253
vn -0.390791 -0.780481 -0.487988
vn -0.390791 -0.780481 -0.487988
vn -0.338292 -0.792281 -0.507788
vn -0.284498 -0.801493 -0.525995
vn -0.170699 -0.814492 -0.554495
vn -0.110503 -0.817923 -0.564616
vn 0.0108 -0.817928 -0.57522
vn 0.0718 -0.814502 -0.575701
vn 0.188897 -0.801489 -0.567392
vn 0.244997 -0.792291 -0.558794
vn 0.300086 -0.780464 -0.548475
vn 0.300086 -0.780464 -0.548475
vn 0.432885 -0.721375 0.540581
vn 0.432885 -0.721375 0.540581
vn 0.3757 -0.734899 0.564599
vn 0.316801 -0.745501 0.586401
vn 0.190903 -0.760609 0.620508
vn 0.123604 -0.764621 0.632517
vn -0.0119 -0.764598 0.644398
vn -0.080197 -0.760575 0.644279
vn -0.210199 -0.745496 0.632497
vn -0.272006 -0.734918 0.621215
vn -0.332406 -0.721413 0.607511
vn -0.332406 -0.721413 0.607511
vn 0.409911 0 -0.912126
vn 0.409911 0 -0.912126
vn 0.331308 0 -0.943523
vn 0.249612 0 -0.968346
vn 0.082698 0 -0.996575
vn -0.0025 0 -0.999997
vn -0.171207 0 -0.985235
vn -0.254494 0 -0.967075
vn -0.413992 0 -0.910281
vn -0.490086 0 -0.871674
vn -0.562086 0 -0.827079
vn -0.562086 0 -0.827079
vn -0.236394 0.81698 0.525987
vn -0.236413 0.816946 0.52603
vn -0.190104 0.818917 0.541512
vn -0.143297 0.818881 0.555787
vn -0.047499 0.818885 0.571989
vn 0.0015 0.818916 0.573911
vn 0.098199 0.818888 0.565491
vn 0.146103 0.818913 0.555009
vn 0.237606 0.818919 0.522412
vn 0.281296 0.818889 0.500293
vn 0.324207 0.816916 0.477009
vn 0.324207 0.816916 0.477009
vn 0.264788 0.763466 -0.589074
vn 0.264788 0.763466 -0.589074
vn 0.212997 0.76579 -0.606793
vn 0.160493 0.765766 -0.622772
vn 0.053199 0.765788 -0.64089
vn -0.0016 0.765789 -0.64309
vn -0.110099 0.765792 -0.633593
vn -0.16369 0.76575 -0.621959
vn -0.2662 0.765798 -0.585398
vn -0.315189 0.765772 -0.560579
vn -0.362987 0.763473 -0.534181
vn -0.362987 0.763473 -0.534181
vn -0.815527 0 -0.578719
vn -0.815527 0 -0.578719
vn -0.864627 0 -0.502415
vn -0.906918 0 -0.421308
vn -0.966703 0 -0.2559
vn -0.985131 0 -0.171805
vn -0.999998 0 -0.0018
vn -0.996458 0 0.084097
vn -0.966305 0 0.257402
vn -0.938711 0 0.344705
vn -0.90363 0 0.428315
vn -0.90363 0 0.428315
vn 0.452906 0.83161 0.321404
vn 0.452906 0.83161 0.321404
vn 0.482786 0.829975 0.279391
vn 0.511425 0.82614 0.236511
vn 0.552405 0.820708 0.145901
vn 0.564898 0.819297 0.098199
vn 0.573388 0.819283 0.0014
vn 0.569389 0.820684 -0.047699
vn 0.544726 0.82614 -0.144107
vn 0.523981 0.82997 -0.191293
vn 0.501885 0.831576 -0.237893
vn 0.501885 0.831576 -0.237893
vn -0.509616 0.780724 -0.361611
vn -0.509616 0.780724 -0.361611
vn -0.542815 0.778821 -0.314308
vn -0.574312 0.774317 -0.265705
vn -0.619419 0.767824 -0.163605
vn -0.6331 0.7662 -0.1101
vn -0.6426 0.7662 -0.0015
vn -0.638421 0.767826 0.053502
vn -0.611784 0.77428 0.161896
vn -0.589136 0.778847 0.215213
vn -0.564635 0.780749 0.267617
vn -0.564635 0.780749 0.267617
vn -0.4879 0 0.8729
vn -0.4879 0 0.8729
vn -0.412197 0 0.911095
vn -0.333097 0 0.942893
vn -0.169294 0 0.985566
vn -0.084601 0 0.996415
vn 0.084602 0 0.996415
vn 0.169295 0 0.985566
vn 0.333098 0 0.942892
vn 0.412198 0 0.911094
vn 0.4879 0 0.8729
vn 0.4879 0 0.8729
vn 0.281388 0.816965 -0.503378
vn 0.281411 0.816931 -0.50342
vn 0.2366 0.8189 -0.5229
vn 0.191195 0.818879 -0.541186
vn 0.097103 0.818929 -0.56562
vn 0.048599 0.818888 -0.571892
vn -0.0486 0.818888 -0.571892
vn -0.097104 0.818929 -0.56562
vn -0.191195 0.818879 -0.541186
vn -0.2366 0.8189 -0.5229
vn -0.281411 0.816931 -0.503419
vn -0.281411 0.816931 -0.503419
vn -0.315086 0.763465 0.563775
vn -0.315086 0.763465 0.563775
vn -0.265099 0.765798 0.585898
vn -0.214194 0.76578 0.606384
vn -0.108892 0.765747 0.633856
vn -0.054399 0.765787 0.640789
vn 0.054399 0.765787 0.640789
vn 0.108893 0.765747 0.633856
vn 0.214195 0.76578 0.606384
vn 0.265099 0.765798 0.585898
vn 0.315086 0.763465 0.563774
vn 0.315086 0.763465 0.563774
vn 0.996722 0 -0.080902
vn 0.996722 0 -0.080902
vn 0.985289 0 -0.170899
vn 0.965558 0 -0.260189
vn 0.905004 0 -0.425403
vn 0.8651 0 -0.5016
vn 0.767204 0 -0.641404
vn 0.709303 0 -0.704904
vn 0.574797 0 -0.818296
vn 0.497603 0 -0.867405
vn 0.41692 0 -0.908944
vn 0.41692 0 -0.908944
vn -0.553587 0.83158 0.044899
vn -0.553587 0.83158 0.044899
vn -0.549396 0.829994 0.0963
vn -0.543815 0.826123 0.147604
vn -0.516979 0.820667 0.24339
vn -0.495886 0.819277 0.287892
vn -0.440181 0.819265 0.367485
vn -0.405503 0.820706 0.402503
vn -0.324711 0.826128 0.460516
vn -0.278402 0.830006 0.483304
vn -0.231503 0.831611 0.504807
vn -0.231503 0.831611 0.504807
vn 0.622824 0.78073 -0.050502
vn 0.622824 0.78073 -0.050502
vn 0.617827 0.778834 -0.108205
vn 0.610788 0.774284 -0.165597
vn 0.579637 0.767849 -0.272818
vn 0.555787 0.766182 -0.322593
vn 0.493283 0.766174 -0.411886
vn 0.454614 0.767823 -0.451414
vn 0.3645 0.7743 -0.5173
vn 0.313 0.7788 -0.5436
vn 0.260503 0.780709 -0.568007
vn 0.260503 0.780709 -0.568007
vn 0.805794 0 -0.592196
vn 0.805794 0 -0.592196
vn 0.748611 0 -0.66301
vn 0.684609 0 -0.72891
vn 0.530071 0 -0.847954
vn 0.437909 0 -0.899019
vn 0.242394 0 -0.970178
vn 0.138999 0 -0.990293
vn -0.055902 0 -0.998436
vn -0.147201 0 -0.989107
vn -0.236602 0 -0.971607
vn -0.236602 0 -0.971607
vn -0.503789 0.780483 0.370192
vn -0.503789 0.780483 0.370192
vn -0.458196 0.792294 0.402897
vn -0.410994 0.801489 0.434394
vn -0.308401 0.814502 0.491401
vn -0.2529 0.8179 0.5168
vn -0.138503 0.817919 0.558413
vn -0.079698 0.814483 0.574688
vn 0.035601 0.801516 0.596912
vn 0.091998 0.792279 0.603184
vn 0.14799 0.780445 0.607457
vn 0.14799 0.780445 0.607457
vn 0.55801 0.721413 -0.410108
vn 0.55801 0.721413 -0.410108
vn 0.509012 0.734917 -0.448111
vn 0.457801 0.745502 -0.484402
vn 0.344993 0.760586 -0.54999
vn 0.2831 0.7646 -0.579
vn 0.155301 0.764607 -0.625506
vn 0.089297 0.760576 -0.643079
vn -0.039301 0.745523 -0.66532
vn -0.101899 0.734888 -0.670489
vn -0.163894 0.721373 -0.672875
vn -0.163894 0.721373 -0.672875
vn -0.554677 0 0.832066
vn -0.554677 0 0.832066
vn -0.476686 0 0.879074
vn -0.394004 0 0.919109
vn -0.208101 0 0.978107
vn -0.103997 0 0.994578
vn 0.103998 0 0.994578
vn 0.208102 0 0.978107
vn 0.394004 0 0.919109
vn 0.476686 0 0.879074
vn 0.554677 0 0.832066
vn 0.554677 0 0.832066
vn 0.34679 0.780477 -0.520185
vn 0.34679 0.780477 -0.520185
vn 0.292782 0.792251 -0.535367
vn 0.237595 0.801485 -0.54879
vn 0.121697 0.81448 -0.567286
vn 0.060801 0.817918 -0.572113
vn -0.060802 0.817918 -0.572113
vn -0.121697 0.81448 -0.567286
vn -0.237596 0.801485 -0.54879
vn -0.292782 0.792251 -0.535367
vn -0.34679 0.780477 -0.520185
vn -0.34679 0.780477 -0.520185
vn -0.384108 0.721416 0.576213
vn -0.384108 0.721416 0.576213
vn -0.325095 0.734889 0.595191
vn -0.264512 0.745535 0.611728
vn -0.136001 0.760608 0.634807
vn -0.068 0.764604 0.640903
vn 0.068001 0.764604 0.640903
vn 0.136002 0.760608 0.634807
vn 0.264513 0.745535 0.611728
vn 0.325095 0.734889 0.595191
vn 0.384108 0.721416 0.576212
vn 0.384108 0.721416 0.576212
vn 0.4879 0 -0.8729
vn 0.4879 0 -0.8729
vn 0.412197 0 -0.911095
vn 0.333097 0 -0.942893
vn 0.169294 0 -0.985566
vn 0.084601 0 -0.996415
vn -0.084602 0 -0.996415
vn -0.169294 0 -0.985566
vn -0.333098 0 -0.942892
vn -0.412198 0 -0.911094
vn -0.4879 0 -0.8729
vn -0.4879 0 -0.8729
vn 0.503378 0.816965 0.281388
vn 0.503378 0.816965 0.281388
vn 0.5229 0.8189 0.2366
vn 0.541186 0.818879 0.191195
vn 0.56562 0.818929 0.097104
vn 0.571892 0.818888 0.0486
vn 0.571892 0.818888 -0.048599
vn 0.56562 0.818929 -0.097103
vn 0.541186 0.818879 -0.191195
vn 0.5229 0.8189 -0.2366
vn 0.50342 0.816931 -0.281411
vn 0.50342 0.816931 -0.281411
vn -0.563774 0.763465 -0.315086
vn -0.563774 0.763465 -0.315086
vn -0.585898 0.765798 -0.2651
vn -0.606384 0.76578 -0.214195
vn -0.633856 0.765747 -0.108893
vn -0.640789 0.765787 -0.0544
vn -0.640789 0.765787 0.054399
vn -0.633856 0.765747 0.108892
vn -0.606384 0.76578 0.214194
vn -0.585898 0.765798 0.265099
vn -0.563775 0.763465 0.315085
vn -0.563775 0.763465 0.315085
vn -0.647591 0 0.761988
vn -0.647591 0 0.761988
vn -0.57591 0 0.817513
vn -0.498808 0 0.866713
vn -0.339117 0 0.940744
vn -0.257003 0 0.966411
vn -0.089003 0 0.996031
vn -0.003101 0 0.999995
vn 0.172193 0 0.985063
vn 0.2615 0 0.965204
vn 0.34791 0 0.937528
vn 0.34791 0 0.937528
vn 0.359693 0.831583 -0.423191
vn 0.359693 0.831583 -0.423191
vn 0.320394 0.829984 -0.456591
vn 0.280112 0.826133 -0.488919
vn 0.1935 0.820698 -0.537599
vn 0.147098 0.819288 -0.554192
vn 0.051399 0.81928 -0.571086
vn 0.0021 0.820679 -0.571385
vn -0.096004 0.82614 -0.555227
vn -0.144901 0.830006 -0.538604
vn -0.193198 0.831595 -0.520697
vn -0.193198 0.831595 -0.520697
vn -0.404711 0.780721 0.476113
vn -0.404711 0.780721 0.476113
vn -0.360401 0.778801 0.513401
vn -0.314794 0.774284 0.548989
vn -0.216908 0.767827 0.602821
vn -0.164802 0.766205 0.621104
vn -0.057501 0.766212 0.64001
vn -0.002301 0.767842 0.640635
vn 0.108002 0.774317 0.623514
vn 0.163099 0.778799 0.605699
vn 0.217409 0.780733 0.585825
vn 0.217409 0.780733 0.585825
vn 0.827079 0 0.562086
vn 0.827079 0 0.562086
vn 0.871674 0 0.490086
vn 0.910281 0 0.413992
vn 0.967074 0 0.254494
vn 0.985235 0 0.171207
vn 0.999997 0 0.002501
vn 0.996575 0 -0.082697
vn 0.968346 0 -0.249611
vn 0.943523 0 -0.331307
vn 0.912126 0 -0.409911
vn 0.912126 0 -0.409911
vn -0.47697 0.81695 -0.32418
vn -0.477009 0.816916 -0.324207
vn -0.500293 0.818889 -0.281297
vn -0.522412 0.818919 -0.237606
vn -0.555009 0.818913 -0.146103
vn -0.565491 0.818888 -0.098199
vn -0.573911 0.818916 -0.0015
vn -0.571989 0.818885 0.047499
vn -0.555787 0.818881 0.143296
vn -0.541512 0.818918 0.190104
vn -0.525987 0.81698 0.236394
vn -0.525987 0.81698 0.236394
vn 0.534181 0.763473 0.362988
vn 0.534181 0.763473 0.362988
vn 0.560579 0.765772 0.315189
vn 0.585398 0.765798 0.2662
vn 0.621959 0.76575 0.16369
vn 0.633593 0.765792 0.110099
vn 0.64309 0.765789 0.0016
vn 0.64089 0.765788 -0.053199
vn 0.622772 0.765766 -0.160492
vn 0.606793 0.765791 -0.212997
vn 0.589074 0.763466 -0.264788
vn 0.589074 0.763466 -0.264788
vn 0.0063 0 -0.99998
vn 0.0063 0 -0.99998
vn -0.084402 0 -0.996432
vn -0.175091 0 -0.984552
vn -0.344912 0 -0.938635
vn -0.424308 0 -0.905518
vn -0.572092 0 -0.82019
vn -0.64042 0 -0.768025
vn -0.765105 0 -0.643905
vn -0.82076 0 -0.571273
vn -0.869183 0 -0.494491
vn -0.869183 0 -0.494491
vn -0.0035 0.831583 0.555389
vn -0.0035 0.831583 0.555389
vn 0.048099 0.829993 0.555696
vn 0.099603 0.826124 0.554616
vn 0.197397 0.82069 0.536193
vn 0.243593 0.819276 0.519085
vn 0.327698 0.819296 0.470498
vn 0.365699 0.820698 0.438999
vn 0.430505 0.82611 0.363605
vn 0.457197 0.829995 0.319498
vn 0.482696 0.831593 0.274698
vn 0.482696 0.831593 0.274698
vn 0.003901 0.780746 -0.624837
vn 0.003901 0.780746 -0.624837
vn -0.053901 0.778826 -0.62492
vn -0.111797 0.774283 -0.622886
vn -0.221307 0.767826 -0.601221
vn -0.272988 0.766168 -0.581776
vn -0.367297 0.766194 -0.527296
vn -0.410025 0.767847 -0.49223
vn -0.483514 0.774323 -0.408213
vn -0.51423 0.778845 -0.359121
vn -0.543119 0.780727 -0.309011
vn -0.543119 0.780727 -0.309011
vn -0.519677 0 -0.854363
vn -0.519677 0 -0.854363
vn -0.595301 0 -0.803503
vn -0.666502 0 -0.745503
vn -0.798497 0 -0.601999
vn -0.857422 0 -0.514614
vn -0.945373 0 -0.325991
vn -0.974405 0 -0.224802
vn -0.999507 0 -0.031401
vn -0.998168 0 0.060497
vn -0.988518 0 0.151102
vn -0.988518 0 0.151102
vn 0.324882 0.780457 0.534171
vn 0.324882 0.780457 0.534171
vn 0.361483 0.792264 0.491578
vn 0.396898 0.801496 0.447298
vn 0.4627 0.814499 0.35
vn 0.492809 0.817916 0.296906
vn 0.544218 0.817927 0.186607
vn 0.565584 0.814477 0.129397
vn 0.597787 0.801483 0.0166
vn 0.608892 0.792289 -0.039099
vn 0.617995 0.780494 -0.094399
vn 0.617995 0.780494 -0.094399
vn -0.35989 0.72138 -0.591684
vn -0.35989 0.72138 -0.591684
vn -0.401996 0.734894 -0.546196
vn -0.442607 0.745512 -0.498308
vn -0.517805 0.760608 -0.391604
vn -0.552104 0.764606 -0.332503
vn -0.609603 0.764604 -0.209201
vn -0.632808 0.76061 -0.145002
vn -0.666218 0.74552 -0.018801
vn -0.676802 0.734902 0.0431
vn -0.684588 0.721387 0.104598
vn -0.684588 0.721387 0.104598
vn 0.780566 0 0.625074
vn 0.780566 0 0.625074
vn 0.834182 0 0.551489
vn 0.881282 0 0.472591
vn 0.956268 0 0.292491
vn 0.981725 0 0.190306
vn 0.999856 0 -0.016999
vn 0.99253 0 -0.122003
vn 0.949956 0 -0.312385
vn 0.917299 0 -0.398199
vn 0.877253 0 -0.480028
vn 0.877253 0 -0.480028
vn -0.487988 0.780481 -0.390791
vn -0.487988 0.780481 -0.390791
vn -0.507788 0.792281 -0.338292
vn -0.525995 0.801493 -0.284498
vn -0.554495 0.814492 -0.170699
vn -0.564616 0.817923 -0.110504
vn -0.57522 0.817928 0.0108
vn -0.575701 0.814502 0.0718
vn -0.567392 0.801489 0.188897
vn -0.558794 0.792291 0.244997
vn -0.548475 0.780464 0.300086
vn -0.548475 0.780464 0.300086
vn 0.540581 0.721375 0.432886
vn 0.540581 0.721375 0.432886
vn 0.564599 0.734899 0.3757
vn 0.586401 0.745501 0.316801
vn 0.620508 0.760609 0.190903
vn 0.632517 0.764621 0.123604
vn 0.644398 0.764598 -0.0119
vn 0.644279 0.760575 -0.080197
vn 0.632497 0.745496 -0.210199
vn 0.621215 0.734918 -0.272006
vn 0.607511 0.721413 -0.332406
vn 0.607511 0.721413 -0.332406
vt 0.9995 0.9995
vt 0.0005 0.9995
vt 0.9995 0.7997
vt 0.0005 0.7997
vt 0.9995 0.5999
vt 0.0005 0.5999
vt 0.9995 0.4001
vt 0.0005 0.4001
vt 0.9995 0.2003
vt 0.0005 0.2003
vt 0.9995 0.0005
vt 0.0005 0.0005
vt 0.9995 0.9995
vt 0.0005 0.9995
vt 0.9995 0.7997
vt 0.0005 0.7997
vt 0.9995 0.5999
vt 0.0005 0.5999
vt 0.9995 0.4001
vt 0.0005 0.4001
vt 0.9995 0.2003
vt 0.0005 0.2003
vt 0.9995 0.0005
vt 0.0005 0.0005
vt 0.9995 0.9995
vt 0.0005 0.9995
vt 0.9995 0.7997
vt 0.0005 0.7997
vt 0.9995 0.5999
vt 0.0005 0.5999
vt 0.9995 0.4001
vt 0.0005 0.4001
vt 0.9995 0.2003
vt 0.0005 0.2003
vt 0.9995 0.0005
vt 0.0005 0.0005
vt 0.9995 0.9995
vt 0.0005 0.9995
vt 0.9995 0.7997
vt 0.0005 0.7997
vt 0.9995 0.5999
vt 0.0005 0.5999
vt 0.9995 0.4001
vt 0.0005 0.4001
vt 0.9995 0.2003
vt 0.0005 0.2003
vt 0.9995 0.0005
vt 0.0005 0.0005
vt 0.9995 0.9995
vt 0.0005 0.9995
vt 0.9995 0.7997
vt 0.0005 0.7997
vt 0.9995 0.5999
vt 0.0005 0.5999
vt 0.9995 0.4001
vt 0.0005 0.4001
vt 0.9995 0.2003
vt 0.0005 0.2003
vt 0.9995 0.0005
vt 0.0005 0.0005
vt 0.9995 0.9995
vt 0.0005 0.9995
vt 0.9995 0.7997
vt 0.0005 0.7997
vt 0.9995 0.5999
vt 0.0005 0.5999
vt 0.9995 0.4001
vt 0.0005 0.4001
vt 0.9995 0.2003
vt 0.0005 0.2003
vt 0.9995 0.0005
vt 0.0005 0.0005
vt 0.9995 0.9995
vt 0.0005 0.9995
vt 0.9995 0.7997
vt 0.0005 0.7997
vt 0.9995 0.5999
vt 0.0005 0.5999
vt 0.9995 0.4001
vt 0.0005 0.4001
vt 0.9995 0.2003
vt 0.0005 0.2003
vt 0.9995 0.0005
vt 0.0005 0.0005
vt 0.9995 0.9995
vt 0.0005 0.9995
vt 0.9995 0.7997
vt 0.0005 0.7997
vt 0.9995 0.5999
vt 0.0005 0.5999
vt 0.9995 0.4001
vt 0.0005 0.4001
vt 0.9995 0.2003
vt 0.0005 0.2003
vt 0.9995 0.0005
vt 0.0005 0.0005
vt 0.9995 0.9995
vt 0.0005 0.9995
vt 0.9995 0.7997
vt 0.0005 0.7997
vt 0.9995 0.5999
vt 0.0005 0.5999
vt 0.9995 0.4001
vt 0.0005 0.4001
vt 0.9995 0.2003
vt 0.0005 0.2003
vt 0.9995 0.0005
vt 0.0005 0.0005
vt 0.9995 0.9995
vt 0.0005 0.9995
vt 0.9995 0.7997
vt 0.0005 0.7997
vt 0.9995 0.5999
vt 0.0005 0.5999
vt 0.9995 0.4001
vt 0.0005 0.4001
vt 0.9995 0.2003
vt 0.0005 0.2003
vt 0.9995 0.0005
vt 0.0005 0.0005
vt 0.9995 0.9995
vt 0.0005 0.9995
vt 0.9995 0.7997
vt 0.0005 0.7997
vt 0.9995 0.5999
vt 0.0005 0.5999
vt 0.9995 0.4001
vt 0.0005 0.4001
vt 0.9995 0.2003
vt 0.0005 0.2003
vt 0.9995 0.0005
vt 0.0005 0.0005
vt 0.9995 0.9995
vt 0.0005 0.9995
vt 0.9995 0.7997
vt 0.0005 0.7997
vt 0.9995 0.5999
vt 0.0005 0.5999
vt 0.9995 0.4001
vt 0.0005 0.4001
vt 0.9995 0.2003
vt 0.0005 0.2003
vt 0.9995 0.0005
vt 0.0005 0.0005
vt 0.9995 0.9995
vt 0.0005 0.9995
vt 0.9995 0.7997
vt 0.0005 0.7997
vt 0.9995 0.5999
vt 0.0005 0.5999
vt 0.9995 0.4001
vt 0.0005 0.4001
vt 0.9995 0.2003
vt 0.0005 0.2003
vt 0.9995 0.0005
vt 0.0005 0.0005
vt 0.9995 0.9995
vt 0.0005 0.9995
vt 0.9995 0.7997
vt 0.0005 0.7997
vt 0.9995 0.5999
vt 0.0005 0.5999
vt 0.9995 0.4001
vt 0.0005 0.4001
vt 0.9995 0.2003
vt 0.0005 0.2003
vt 0.9995 0.0005
vt 0.0005 0.0005
vt 0.9995 0.9995
vt 0.0005 0.9995
vt 0.9995 0.7997
vt 0.0005 0.7997
vt 0.9995 0.5999
vt 0.0005 0.5999
vt 0.9995 0.4001
vt 0.0005 0.4001
vt 0.9995 0.2003
vt 0.0005 0.2003
vt 0.9995 0.0005
vt 0.0005 0.0005
vt 0.9995 0.9995
vt 0.0005 0.9995
vt 0.9995 0.7997
vt 0.0005 0.7997
vt 0.9995 0.5999
vt 0.0005 0.5999
vt 0.9995 0.4001
vt 0.0005 0.4001
vt 0.9995 0.2003
vt 0.0005 0.2003
vt 0.9995 0.0005
vt 0.0005 0.0005
vt 0.9995 0.9995
vt 0.0005 0.9995
vt 0.9995 0.7997
vt 0.0005 0.7997
vt 0.9995 0.5999
vt 0.0005 0.5999
vt 0.9995 0.4001
vt 0.0005 0.4001
vt 0.9995 0.2003
vt 0.0005 0.2003
vt 0.9995 0.0005
vt 0.0005 0.0005
vt 0.9995 0.9995
vt 0.0005 0.9995
vt 0.9995 0.7997
vt 0.0005 0.7997
vt 0.9995 0.5999
vt 0.0005 0.5999
vt 0.9995 0.4001
vt 0.0005 0.4001
vt 0.9995 0.2003
vt 0.0005 0.2003
vt 0.9995 0.0005
vt 0.0005 0.0005
vt 0.9995 0.9995
vt 0.0005 0.9995
vt 0.9995 0.7997
vt 0.0005 0.7997
vt 0.9995 0.5999
vt 0.0005 0.5999
vt 0.9995 0.4001
vt 0.0005 0.4001
vt 0.9995 0.2003
vt 0.0005 0.2003
vt 0.9995 0.0005
vt 0.0005 0.0005
vt 0.9995 0.9995
vt 0.0005 0.9995
vt 0.9995 0.7997
vt 0.0005 0.7997
vt 0.9995 0.5999
vt 0.0005 0.5999
vt 0.9995 0.4001
vt 0.0005 0.4001
vt 0.9995 0.2003
vt 0.0005 0.2003
vt 0.9995 0.0005
vt 0.0005 0.0005
vt 0.9995 0.9995
vt 0.0005 0.9995
vt 0.9995 0.7997
vt 0.0005 0.7997
vt 0.9995 0.5999
vt 0.0005 0.5999
vt 0.9995 0.4001
vt 0.0005 0.4001
vt 0.9995 0.2003
vt 0.0005 0.2003
vt 0.9995 0.0005
vt 0.0005 0.0005
vt 0.9995 0.9995
vt 0.0005 0.9995
vt 0.9995 0.7997
vt 0.0005 0.7997
vt 0.9995 0.5999
vt 0.0005 0.5999
vt 0.9995 0.4001
vt 0.0005 0.4001
vt 0.9995 0.2003
vt 0.0005 0.2003
vt 0.9995 0.0005
vt 0.0005 0.0005
vt 0.9995 0.9995
vt 0.0005 0.9995
vt 0.9995 0.7997
vt 0.0005 0.7997
vt 0.9995 0.5999
vt 0.0005 0.5999
vt 0.9995 0.4001
vt 0.0005 0.4001
vt 0.9995 0.2003
vt 0.0005 0.2003
vt 0.9995 0.0005
vt 0.0005 0.0005
vt 0.9995 0.9995
vt 0.0005 0.9995
vt 0.9995 0.7997
vt 0.0005 0.7997
vt 0.9995 0.5999
vt 0.0005 0.5999
vt 0.9995 0.4001
vt 0.0005 0.4001
vt 0.9995 0.2003
vt 0.0005 0.2003
vt 0.9995 0.0005
vt 0.0005 0.0005
vt 0.9995 0.9995
vt 0.0005 0.9995
vt 0.9995 0.7997
vt 0.0005 0.7997
vt 0.9995 0.5999
vt 0.0005 0.5999
vt 0.9995 0.4001
vt 0.0005 0.4001
vt 0.9995 0.2003
vt 0.0005 0.2003
vt 0.9995 0.0005
vt 0.0005 0.0005
vt 0.9995 0.9995
vt 0.0005 0.9995
vt 0.9995 0.7997
vt 0.0005 0.7997
vt 0.9995 0.5999
vt 0.0005 0.5999
vt 0.9995 0.4001
vt 0.0005 0.4001
vt 0.9995 0.2003
vt 0.0005 0.2003
vt 0.9995 0.0005
vt 0.0005 0.0005
vt 0.9995 0.9995
vt 0.0005 0.9995
vt 0.9995 0.7997
vt 0.0005 0.7997
vt 0.9995 0.5999
vt 0.0005 0.5999
vt 0.9995 0.4001
vt 0.0005 0.4001
vt 0.9995 0.2003
vt 0.0005 0.2003
vt 0.9995 0.0005
vt 0.0005 0.0005
vt 0.9995 0.9995
vt 0.0005 0.9995
vt 0.9995 0.7997
vt 0.0005 0.7997
vt 0.9995 0.5999
vt 0.0005 0.5999
vt 0.9995 0.4001
vt 0.0005 0.4001
vt 0.9995 0.2003
vt 0.0005 0.2003
vt 0.9995 0.0005
vt 0.0005 0.0005
vt 0.9995 0.9995
vt 0.0005 0.9995
vt 0.9995 0.7997
vt 0.0005 0.7997
vt 0.9995 0.5999
vt 0.0005 0.5999
vt 0.9995 0.4001
vt 0.0005 0.4001
vt 0.9995 0.2003
vt 0.0005 0.2003
vt 0.9995 0.0005
vt 0.0005 0.0005
vt 0.9995 0.9995
vt 0.0005 0.9995
vt 0.9995 0.7997
vt 0.0005 0.7997
vt 0.9995 0.5999
vt 0.0005 0.5999
vt 0.9995 0.4001
vt 0.0005 0.4001
vt 0.9995 0.2003
vt 0.0005 0.2003
vt 0.9995 0.0005
vt 0.0005 0.0005
vt 0.9995 0.9995
vt 0.0005 0.9995
vt 0.9995 0.7997
vt 0.0005 0.7997
vt 0.9995 0.5999
vt 0.0005 0.5999
vt 0.9995 0.4001
vt 0.0005 0.4001
vt 0.9995 0.2003
vt 0.0005 0.2003
vt 0.9995 0.0005
vt 0.0005 0.0005
vt 0.9995 0.9995
vt 0.0005 0.9995
vt 0.9995 0.7997
vt 0.0005 0.7997
vt 0.9995 0.5999
vt 0.0005 0.5999
vt 0.9995 0.4001
vt 0.0005 0.4001
vt 0.9995 0.2003
vt 0.0005 0.2003
vt 0.9995 0.0005
vt 0.0005 0.0005
vt 0.9995 0.9995
vt 0.0005 0.9995
vt 0.9995 0.7997
vt 0.0005 0.7997
vt 0.9995 0.5999
vt 0.0005 0.5999
vt 0.9995 0.4001
vt 0.0005 0.4001
vt 0.9995 0.2003
vt 0.0005 0.2003
vt 0.9995 0.0005
vt 0.0005 0.0005
vt 0.9995 0.9995
vt 0.0005 0.9995
vt 0.9995 0.7997
vt 0.0005 0.7997
vt 0.9995 0.5999
vt 0.0005 0.5999
vt 0.9995 0.4001
vt 0.0005 0.4001
vt 0.9995 0.2003
vt 0.0005 0.2003
vt 0.9995 0.0005
vt 0.0005 0.0005
vt 0.9995 0.9995
vt 0.0005 0.9995
vt 0.9995 0.7997
vt 0.0005 0.7997
vt 0.9995 0.5999
vt 0.0005 0.5999
vt 0.9995 0.4001
vt 0.0005 0.4001
vt 0.9995 0.2003
vt 0.0005 0.2003
vt 0.9995 0.0005
vt 0.0005 0.0005
vt 0.9995 0.9995
vt 0.0005 0.9995
vt 0.9995 0.7997
vt 0.0005 0.7997
vt 0.9995 0.5999
vt 0.0005 0.5999
vt 0.9995 0.4001
vt 0.0005 0.4001
vt 0.9995 0.2003
vt 0.0005 0.2003
vt 0.9995 0.0005
vt 0.0005 0.0005
vt 0.9995 0.9995
vt 0.0005 0.9995
vt 0.9995 0.7997
vt 0.0005 0.7997
vt 0.9995 0.5999
vt 0.0005 0.5999
vt 0.9995 0.4001
vt 0.0005 0.4001
vt 0.9995 0.2003
vt 0.0005 0.2003
vt 0.9995 0.0005
vt 0.0005 0.0005
vt 0.9995 0.9995
vt 0.0005 0.9995
vt 0.9995 0.7997
vt 0.0005 0.7997
vt 0.9995 0.5999
vt 0.0005 0.5999
vt 0.9995 0.4001
vt 0.0005 0.4001
vt 0.9995 0.2003
vt 0.0005 0.2003
vt 0.9995 0.0005
vt 0.0005 0.0005
vt 0.9995 0.9995
vt 0.0005 0.9995
vt 0.9995 0.7997
vt 0.0005 0.7997
vt 0.9995 0.5999
vt 0.0005 0.5999
vt 0.9995 0.4001
vt 0.0005 0.4001
vt 0.9995 0.2003
vt 0.0005 0.2003
vt 0.9995 0.0005
vt 0.0005 0.0005
vt 0.9995 0.9995
vt 0.0005 0.9995
vt 0.9995 0.7997
vt 0.0005 0.7997
vt 0.9995 0.5999
vt 0.0005 0.5999
vt 0.9995 0.4001
vt 0.0005 0.4001
vt 0.9995 0.2003
vt 0.0005 0.2003
vt 0.9995 0.0005
vt 0.0005 0.0005
vt 0.9995 0.9995
vt 0.0005 0.9995
vt 0.9995 0.7997
vt 0.0005 0.7997
vt 0.9995 0.5999
vt 0.0005 0.5999
vt 0.9995 0.4001
vt 0.0005 0.4001
vt 0.9995 0.2003
vt 0.0005 0.2003
vt 0.9995 0.0005
vt 0.0005 0.0005
vt 0.9995 0.9995
vt 0.0005 0.9995
vt 0.9995 0.7997
vt 0.0005 0.7997
vt 0.9995 0.5999
vt 0.0005 0.5999
vt 0.9995 0.4001
vt 0.0005 0.4001
vt 0.9995 0.2003
vt 0.0005 0.2003
vt 0.9995 0.0005
vt 0.0005 0.0005
vt 0.9995 0.9995
vt 0.0005 0.9995
vt 0.9995 0.7997
vt 0.0005 0.7997
vt 0.9995 0.5999
vt 0.0005 0.5999
vt 0.9995 0.4001
vt 0.0005 0.4001
vt 0.9995 0.2003
vt 0.0005 0.2003
vt 0.9995 0.0005
vt 0.0005 0.0005
vt 0.9995 0.9995
vt 0.0005 0.9995
vt 0.9995 0.7997
vt 0.0005 0.7997
vt 0.9995 0.5999
vt 0.0005 0.5999
vt 0.9995 0.4001
vt 0.0005 0.4001
vt 0.9995 0.2003
vt 0.0005 0.2003
vt 0.9995 0.0005
vt 0.0005 0.0005
vt 0.9995 0.9995
vt 0.0005 0.9995
vt 0.9995 0.7997
vt 0.0005 0.7997
vt 0.9995 0.5999
vt 0.0005 0.5999
vt 0.9995 0.4001
vt 0.0005 0.4001
vt 0.9995 0.2003
vt 0.0005 0.2003
vt 0.9995 0.0005
vt 0.0005 0.0005
vt 0.9995 0.9995
vt 0.0005 0.9995
vt 0.9995 0.7997
vt 0.0005 0.7997
vt 0.9995 0.5999
vt 0.0005 0.5999
vt 0.9995 0.4001
vt 0.0005 0.4001
vt 0.9995 0.2003
vt 0.0005 0.2003
vt 0.9995 0.0005
vt 0.0005 0.0005
vt 0.9995 0.9995
vt 0.0005 0.9995
vt 0.9995 0.7997
vt 0.0005 0.7997
vt 0.9995 0.5999
vt 0.0005 0.5999
vt 0.9995 0.4001
vt 0.0005 0.4001
vt 0.9995 0.2003
vt 0.0005 0.2003
vt 0.9995 0.0005
vt 0.0005 0.0005
vt 0.9995 0.9995
vt 0.0005 0.9995
vt 0.9995 0.7997
vt 0.0005 0.7997
vt 0.9995 0.5999
vt 0.0005 0.5999
vt 0.9995 0.4001
vt 0.0005 0.4001
vt 0.9995 0.2003
vt 0.0005 0.2003
vt 0.9995 0.0005
vt 0.0005 0.0005
vt 0.9995 0.9995
vt 0.0005 0.9995
vt 0.9995 0.7997
vt 0.0005 0.7997
vt 0.9995 0.5999
vt 0.0005 0.5999
vt 0.9995 0.4001
vt 0.0005 0.4001
vt 0.9995 0.2003
vt 0.0005 0.2003
vt 0.9995 0.0005
vt 0.0005 0.0005
vt 0.9995 0.9995
vt 0.0005 0.9995
vt 0.9995 0.7997
vt 0.0005 0.7997
vt 0.9995 0.5999
vt 0.0005 0.5999
vt 0.9995 0.4001
vt 0.0005 0.4001
vt 0.9995 0.2003
vt 0.0005 0.2003
vt 0.9995 0.0005
vt 0.0005 0.0005
vt 0.9995 0.9995
vt 0.0005 0.9995
vt 0.9995 0.7997
vt 0.0005 0.7997
vt 0.9995 0.5999
vt 0.0005 0.5999
vt 0.9995 0.4001
vt 0.0005 0.4001
vt 0.9995 0.2003
vt 0.0005 0.2003
vt 0.9995 0.0005
vt 0.0005 0.0005
vt 0.9995 0.9995
vt 0.0005 0.9995
vt 0.9995 0.7997
vt 0.0005 0.7997
vt 0.9995 0.5999
vt 0.0005 0.5999
vt 0.9995 0.4001
vt 0.0005 0.4001
vt 0.9995 0.2003
vt 0.0005 0.2003
vt 0.9995 0.0005
vt 0.0005 0.0005
vt 0.9995 0.9995
vt 0.0005 0.9995
vt 0.9995 0.7997
vt 0.0005 0.7997
vt 0.9995 0.5999
vt 0.0005 0.5999
vt 0.9995 0.4001
vt 0.0005 0.4001
vt 0.9995 0.2003
vt 0.0005 0.2003
vt 0.9995 0.0005
vt 0.0005 0.0005
vt 0.9995 0.9995
vt 0.0005 0.9995
vt 0.9995 0.7997
vt 0.0005 0.7997
vt 0.9995 0.5999
vt 0.0005 0.5999
vt 0.9995 0.4001
vt 0.0005 0.4001
vt 0.9995 0.2003
vt 0.0005 0.2003
vt 0.9995 0.0005
vt 0.0005 0.0005
f 1/1/1 3/3/3 2/2/2
f 4/4/4 2/2/2 3/3/3
f 3/3/3 5/5/5 4/4/4
f 6/6/6 4/4/4 5/5/5
f 5/5/5 7/7/7 6/6/6
f 8/8/8 6/6/6 7/7/7
f 7/7/7 9/9/9 8/8/8
f 10/10/10 8/8/8 9/9/9
f 9/9/9 11/11/11 10/10/10
f 12/12/12 10/10/10 11/11/11
f 13/13/13 15/15/15 14/14/14
f 16/16/16 14/14/14 15/15/15
f 15/15/15 17/17/17 16/16/16
f 18/18/18 16/16/16 17/17/17
f 17/17/17 19/19/19 18/18/18
f 20/20/20 18/18/18 19/19/19
f 19/19/19 21/21/21 20/20/20
f 22/22/22 20/20/20 21/21/21
f 21/21/21 23/23/23 22/22/22
f 24/24/24 22/22/22 23/23/23
f 25/25/25 27/27/27 26/26/26
f 28/28/28 26/26/26 27/27/27
f 27/27/27 29/29/29 28/28/28
f 30/30/30 28/28/28 29/29/29
f 29/29/29 31/31/31 30/30/30
f 32/32/32 30/30/30 31/31/31
f 31/31/31 33/33/33 32/32/32
f 34/34/34 32/32/32 33/33/33
f 33/33/33 35/35/35 34/34/34
f 36/36/36 34/34/34 35/35/35
f 37/37/37 39/39/39 38/38/38
f 40/40/40 38/38/38 39/39/39
f 39/39/39 41/41/41 40/40/40
f 42/42/42 40/40/40 41/41/41
f 41/41/41 43/43/43 42/42/42
f 44/44/44 42/42/42 43/43/43
f 43/43/43 45/45/45 44/44/44
f 46/46/46 44/44/44 45/45/45
f 45/45/45 47/47/47 46/46/46
f 48/48/48 46/46/46 47/47/47
f 49/49/49 51/51/51 50/50/50
f 52/52/52 50/50/50 51/51/51
f 51/51/51 53/53/53 52/52/52
f 54/54/54 52/52/52 53/53/53
f 53/53/53 55/55/55 54/54/54
f 56/56/56 54/54/54 55/55/55
f 55/55/55 57/57/57 56/56/56
f 58/58/58 56/56/56 57/57/57
f 57/57/57 59/59/59 58/58/58
f 60/60/60 58/58/58 59/59/59
f 61/61/61 63/63/63 62/62/62
f 64/64/64 62/62/62 63/63/63
f 63/63/63 65/65/65 64/64/64
f 66/66/66 64/64/64 65/65/65
f 65/65/65 67/67/67 66/66/66
f 68/68/68 66/66/66 67/67/67
f 67/67/67 69/69/69 68/68/68
f 70/70/70 68/68/68 69/69/69
f 69/69/69 71/71/71 70/70/70
f 72/72/72 70/70/70 71/71/71
f 73/73/73 75/75/75 74/74/74
f 76/76/76 74/74/74 75/75/75
f 75/75/75 77/77/77 76/76/76
f 78/78/78 76/76/76 77/77/77
f 77/77/77 79/79/79 78/78/78
f 80/80/80 78/78/78 79/79/79
f 79/79/79 81/81/81 80/80/80
f 82/82/82 80/80/80 81/81/81
f 81/81/81 83/83/83 82/82/82
f 84/84/84 82/82/82 83/83/83
f 85/85/85 87/87/87 86/86/86
f 88/88/88 86/86/86 87/87/87
f 87/87/87 89/89/89 88/88/88
f 90/90/90 88/88/88 89/89/89
f 89/89/89 91/91/91 90/90/90
f 92/92/92 90/90/90 91/91/91
f 91/91/91 93/93/93 92/92/92
f 94/94/94 92/92/92 93/93/93
f 93/93/93 95/95/95 94/94/94
f 96/96/96 94/94/94 95/95/95
f 97/97/97 99/99/99 98/98/98
f 100/100/100 98/98/98 99/99/99
f 99/99/99 101/101/101 100/100/100
f 102/102/102 100/100/100 101/101/101
f 101/101/101 103/103/103 102/102/102
f 104/104/104 102/102/102 103/103/103
f 103/103/103 105/105/105 104/104/104
f 106/106/106 104/104/104 105/105/105
f 105/105/105 107/107/107 106/106/106
f 108/108/108 106/106/106 107/107/107
f 109/109/109 111/111/111 110/110/110
f 112/112/112 110/110/110 111/111/111
f 111/111/111 113/113/113 112/112/112
f 114/114/114 112/112/112 113/113/113
f 113/113/113 115/115/115 114/114/114
f 116/116/116 114/114/114 115/115/115
f 115/115/115 117/117/117 116/116/116
f 118/118/118 116/116/116 117/117/117
f 117/117/117 119/119/119 118/118/118
f 120/120/120 118/118/118 119/119/119
f 121/121/121 123/123/123 122/122/122
f 124/124/124 122/122/122 123/123/123
f 123/123/123 125/125/125 124/124/124
f 126/126/126 124/124/124 125/125/125
f 125/125/125 127/127/127 126/126/126
f 128/128/128 126/126/126 127/127/127
f 127/127/127 129/129/129 128/128/128
f 130/130/130 128/128/128 129/129/129
f 129/129/129 131/131/131 130/130/130
f 132/132/132 130/130/130 131/131/131
f 133/133/133 135/135/135 134/134/134
f 136/136/136 134/134/134 135/135/135
f 135/135/135 137/137/137 136/136/136
f 138/138/138 136/136/136 137/137/137
f 137/137/137 139/139/139 138/138/138
f 140/140/140 138/138/138 139/139/139
f 139/139/139 141/141/141 140/140/140
f 142/142/142 140/140/140 141/141/141
f 141/141/141 143/143/143 142/142/142
f 144/144/144 142/142/142 143/143/143
f 145/145/145 147/147/147 146/146/146
f 148/148/148 146/146/146 147/147/147
f 147/147/147 149/149/149 148/148/148
f 150/150/150 148/148/148 149/149/149
f 149/149/149 151/151/151 150/150/150
f 152/152/152 150/150/150 151/151/151
f 151/151/151 153/153/153 152/152/152
f 154/154/154 152/152/152 153/153/153
f 153/153/153 155/155/155 154/154/154
f 156/156/156 154/154/154 155/155/155
f 157/157/157 159/159/159 158/158/158
f 160/160/160 158/158/158 159/159/159
f 159/159/159 161/161/161 160/160/160
f 162/162/162 160/160/160 161/161/161
f 161/161/161 163/163/163 162/162/162
f 164/164/164 162/162/162 163/163/163
f 163/163/163 165/165/165 164/164/164
f 166/166/166 164/164/164 165/165/165
f 165/165/165 167/167/167 166/166/166
f 168/168/168 166/166/166 167/167/167
f 169/169/169 171/171/171 170/170/170
f 172/172/172 170/170/170 171/171/171
f 171/171/171 173/173/173 172/172/172
f 174/174/174 172/172/172 173/173/173
f 173/173/173 175/175/175 174/174/174
f 176/176/176 174/174/174 175/175/175
f 175/175/175 177/177/177 176/176/176
f 178/178/178 176/176/176 177/177/177
f 177/177/177 179/179/179 178/178/178
f 180/180/180 178/178/178 179/179/179
f 181/181/181 183/183/183 182/182/182
f 184/184/184 182/182/182 183/183/183
f 183/183/183 185/185/185 184/184/184
f 186/186/186 184/184/184 185/185/185
f 185/185/185 187/187/187 186/186/186
f 188/188/188 186/186/186 187/187/187
f 187/187/187 189/189/189 188/188/188
f 190/190/190 188/188/188 189/189/189
f 189/189/189 191/191/191 190/190/190
f 192/192/192 190/190/190 191/191/191
f 193/193/193 195/195/195 194/194/194
f 196/196/196 194/194/194 195/195/195
f 195/195/195 197/197/197 196/196/196
f 198/198/198 196/196/196 197/197/197
f 197/197/197 199/199/199 198/198/198
f 200/200/200 198/198/198 199/199/199
f 199/199/199 201/201/201 200/200/200
f 202/202/202 200/200/200 201/201/201
f 201/201/201 203/203/203 202/202/202
f 204/204/204 202/202/202 203/203/203
f 205/205/205 207/207/207 206/206/206
f 208/208/208 206/206/206 207/207/207
f 207/207/207 209/209/209 208/208/208
f 210/210/210 208/208/208 209/209/209
f 209/209/209 211/211/211 210/210/210
f 212/212/212 210/210/210 211/211/211
f 211/211/211 213/213/213 212/212/212
f 214/214/214 212/212/212 213/213/213
f 213/213/213 215/215/215 214/214/214
f 216/216/216 214/214/214 215/215/215
f 217/217/217 219/219/219 218/218/218
f 220/220/220 218/218/218 219/219/219
f 219/219/219 221/221/221 220/220/220
f 222/222/222 220/220/220 221/221/221
f 221/221/221 223/223/223 222/222/222
f 224/224/224 222/222/222 223/223/223
f 223/223/223 225/225/225 224/224/224
f 226/226/226 224/224/224 225/225/225
f 225/225/225 227/227/227 226/226/226
f 228/228/228 226/226/226 227/227/227
f 229/229/229 231/231/231 230/230/230
f 232/232/232 230/230/230 231/231/231
f 231/231/231 233/233/233 232/232/232
f 234/234/234 232/232/232 233/233/233
f 233/233/233 235/235/235 234/234/234
f 236/236/236 234/234/234 235/235/235
f 235/235/235 237/237/237 236/236/236
f 238/238/238 236/236/236 237/237/237
f 237/237/237 239/239/239 238/238/238
f 240/240/240 238/238/238 239/239/239
f 241/241/241 243/243/243 242/242/242
f 244/244/244 242/242/242 243/243/243
f 243/243/243 245/245/245 244/244/244
f 246/246/246 244/244/244 245/245/245
f 245/245/245 247/247/247 246/246/246
f 248/248/248 246/246/246 247/247/247
f 247/247/247 249/249/249 248/248/248
f 250/250/250 248/248/248 249/249/249
f 249/249/249 251/251/251 250/250/250
f 252/252/252 250/250/250 251/251/251
f 253/253/253 255/255/255 254/254/254
f 256/256/256 254/254/254 255/255/255
f 255/255/255 257/257/257 256/256/256
f 258/258/258 256/256/256 257/257/257
f 257/257/257 259/259/259 258/258/258
f 260/260/260 258/258/258 259/259/259
f 259/259/259 261/261/261 260/260/260
f 262/262/262 260/260/260 261/261/261
f 261/261/261 263/263/263 262/262/262
f 264/264/264 262/262/262 263/263/263
f 265/265/265 267/267/267 266/266/266
f 268/268/268 266/266/266 267/267/267
f 267/267/267 269/269/269 268/268/268
f 270/270/270 268/268/268 269/269/269
f 269/269/269 271/271/271 270/270/270
f 272/272/272 270/270/270 271/271/271
f 271/271/271 273/273/273 272/272/272
f 274/274/274 272/272/272 273/273/273
f 273/273/273 275/275/275 274/274/274
f 276/276/276 274/274/274 275/275/275
f 277/277/277 279/279/279 278/278/278
f 280/280/280 278/278/278 279/279/279
f 279/279/279 281/281/281 280/280/280
f 282/282/282 280/280/280 281/281/281
f 281/281/281 283/283/283 282/282/282
f 284/284/284 282/282/282 283/283/283
f 283/283/283 285/285/285 284/284/284
f 286/286/286 284/284/284 285/285/285
f 285/285/285 287/287/287 286/286/286
f 288/288/288 286/286/286 287/287/287
f 289/289/289 291/291/291 290/290/290
f 292/292/292 290/290/290 291/291/291
f 291/291/291 293/293/293 292/292/292
f 294/294/294 292/292/292 293/293/293
f 293/293/293 295/295/295 294/294/294
f 296/296/296 294/294/294 295/295/295
f 295/295/295 297/297/297 296/296/296
f 298/298/298 296/296/296 297/297/297
f 297/297/297 299/299/299 298/298/298
f 300/300/300 298/298/298 299/299/299
f 301/301/301 303/303/303 302/302/302
f 304/304/304 302/302/302 303/303/303
f 303/303/303 305/305/305 304/304/304
f 306/306/306 304/304/304 305/305/305
f 305/305/305 307/307/307 306/306/306
f 308/308/308 306/306/306 307/307/307
f 307/307/307 309/309/309 308/308/308
f 310/310/310 308/308/308 309/309/309
f 309/309/309 311/311/311 310/310/310
f 312/312/312 310/310/310 311/311/311
f 313/313/313 315/315/315 314/314/314
f 316/316/316 314/314/314 315/315/315
f 315/315/315 317/317/317 316/316/316
f 318/318/318 316/316/316 317/317/317
f 317/317/317 319/319/319 318/318/318
f 320/320/320 318/318/318 319/319/319
f 319/319/319 321/321/321 320/320/320
f 322/322/322 320/320/320 321/321/321
f 321/321/321 323/323/323 322/322/322
f 324/324/324 322/322/322 323/323/323
f 325/325/325 327/327/327 326/326/326
f 328/328/328 326/326/326 327/327/327
f 327/327/327 329/329/329 328/328/328
f 330/330/330 328/328/328 329/329/329
f 329/329/329 331/331/331 330/330/330
f 332/332/332 330/330/330 331/331/331
f 331/331/331 333/333/333 332/332/332
f 334/334/334 332/332/332 333/333/333
f 333/333/333 335/335/335 334/334/334
f 336/336/336 334/334/334 335/335/335
f 337/337/337 339/339/339 338/338/338
f 340/340/340 338/338/338 339/339/339
f 339/339/339 341/341/341 340/340/340
f 342/342/342 340/340/340 341/341/341
f 341/341/341 343/343/343 342/342/342
f 344/344/344 342/342/342 343/343/343
f 343/343/343 345/345/345 344/344/344
f 346/346/346 344/344/344 345/345/345
f 345/345/345 347/347/347 346/346/346
f 348/348/348 346/346/346 347/347/347
f 349/349/349 351/351/351 350/350/350
f 352/352/352 350/350/350 351/351/351
f 351/351/351 353/353/353 352/352/352
f 354/354/354 352/352/352 353/353/353
f 353/353/353 355/355/355 354/354/354
f 356/356/356 354/354/354 355/355/355
f 355/355/355 357/357/357 356/356/356
f 358/358/358 356/356/356 357/357/357
f 357/357/357 359/359/359 358/358/358
f 360/360/360 358/358/358 359/359/359
f 361/361/361 363/363/363 362/362/362
f 364/364/364 362/362/362 363/363/363
f 363/363/363 365/365/365 364/364/364
f 366/366/366 364/364/364 365/365/365
f 365/365/365 367/367/367 366/366/366
f 368/368/368 366/366/366 367/367/367
f 367/367/367 369/369/369 368/368/368
f 370/370/370 368/368/368 369/369/369
f 369/369/369 371/371/371 370/370/370
f 372/372/372 370/370/370 371/371/371
f 373/373/373 375/375/375 374/374/374
f 376/376/376 374/374/374 375/375/375
f 375/375/375 377/377/377 376/376/376
f 378/378/378 376/376/376 377/377/377
f 377/377/377 379/379/379 378/378/378
f 380/380/380 378/378/378 379/379/379
f 379/379/379 381/381/381 380/380/380
f 382/382/382 380/380/380 381/381/381
f 381/381/381 383/383/383 382/382/382
f 384/384/384 382/382/382 383/383/383
f 385/385/385 387/387/387 386/386/386
f 388/388/388 386/386/386 387/387/387
f 387/387/387 389/389/389 388/388/388
f 390/390/390 388/388/388 389/389/389
f 389/389/389 391/391/391 390/390/390
f 392/392/392 390/390/390 391/391/391
f 391/391/391 393/393/393 392/392/392
f 394/394/394 392/392/392 393/393/393
f 393/393/393 395/395/395 394/394/394
f 396/396/396 394/394/394 395/395/395
f 397/397/397 399/399/399 398/398/398
f 400/400/400 398/398/398 399/399/399
f 399/399/399 401/401/401 400/400/400
f 402/402/402 400/400/400 401/401/401
f 401/401/401 403/403/403 402/402/402
f 404/404/404 402/402/402 403/403/403
f 403/403/403 405/405/405 404/404/404
f 406/406/406 404/404/404 405/405/405
f 405/405/405 407/407/407 406/406/406
f 408/408/408 406/406/406 407/407/407
f 409/409/409 411/411/411 410/410/410
f 412/412/412 410/410/410 411/411/411
f 411/411/411 413/413/413 412/412/412
f 414/414/414 412/412/412 413/413/413
f 413/413/413 415/415/415 414/414/414
f 416/416/416 414/414/414 415/415/415
f 415/415/415 417/417/417 416/416/416
f 418/418/418 416/416/416 417/417/417
f 417/417/417 419/419/419 418/418/418
f 420/420/420 418/418/418 419/419/419
f 421/421/421 423/423/423 422/422/422
f 424/424/424 422/422/422 423/423/423
f 423/423/423 425/425/425 424/424/424
f 426/426/426 424/424/424 425/425/425
f 425/425/425 427/427/427 426/426/426
f 428/428/428 426/426/426 427/427/427
f 427/427/427 429/429/429 428/428/428
f 430/430/430 428/428/428 429/429/429
f 429/429/429 431/431/431 430/430/430
f 432/432/432 430/430/430 431/431/431
f 433/433/433 435/435/435 434/434/434
f 436/436/436 434/434/434 435/435/435
f 435/435/435 437/437/437 436/436/436
f 438/438/438 436/436/436 437/437/437
f 437/437/437 439/439/439 438/438/438
f 440/440/440 438/438/438 439/439/439
f 439/439/439 441/441/441 440/440/440
f 442/442/442 440/440/440 441/441/441
f 441/441/441 443/443/443 442/442/442
f 444/444/444 442/442/442 443/443/443
f 445/445/445 447/447/447 446/446/446
f 448/448/448 446/446/446 447/447/447
f 447/447/447 449/449/449 448/448/448
f 450/450/450 448/448/448 449/449/449
f 449/449/449 451/451/451 450/450/450
f 452/452/452 450/450/450 451/451/451
f 451/451/451 453/453/453 452/452/452
f 454/454/454 452/452/452 453/453/453
f 453/453/453 455/455/455 454/454/454
f 456/456/456 454/454/454 455/455/455
f 457/457/457 459/459/459 458/458/458
f 460/460/460 458/458/458 459/459/459
f 459/459/459 461/461/461 460/460/460
f 462/462/462 460/460/460 461/461/461
f 461/461/461 463/463/463 462/462/462
f 464/464/464 462/462/462 463/463/463
f 463/463/463 465/465/465 464/464/464
f 466/466/466 464/464/464 465/465/465
f 465/465/465 467/467/467 466/466/466
f 468/468/468 466/466/466 467/467/467
f 469/469/469 471/471/471 470/470/470
f 472/472/472 470/470/470 471/471/471
f 471/471/471 473/473/473 472/472/472
f 474/474/474 472/472/472 473/473/473
f 473/473/473 475/475/475 474/474/474
f 476/476/476 474/474/474 475/475/475
f 475/475/475 477/477/477 476/476/476
f 478/478/478 476/476/476 477/477/477
f 477/477/477 479/479/479 478/478/478
f 480/480/480 478/478/478 479/479/479
f 481/481/481 483/483/483 482/482/482
f 484/484/484 482/482/482 483/483/483
f 483/483/483 485/485/485 484/484/484
f 486/486/486 484/484/484 485/485/485
f 485/485/485 487/487/487 486/486/486
f 488/488/488 486/486/486 487/487/487
f 487/487/487 489/489/489 488/488/488
f 490/490/490 488/488/488 489/489/489
f 489/489/489 491/491/491 490/490/490
f 492/492/492 490/490/490 491/491/491
f 493/493/493 495/495/495 494/494/494
f 496/496/496 494/494/494 495/495/495
f 495/495/495 497/497/497 496/496/496
f 498/498/498 496/496/496 497/497/497
f 497/497/497 499/499/499 498/498/498
f 500/500/500 498/498/498 499/499/499
f 499/499/499 501/501/501 500/500/500
f 502/502/502 500/500/500 501/501/501
f 501/501/501 503/503/503 502/502/502
f 504/504/504 502/502/502 503/503/503
f 505/505/505 507/507/507 506/506/506
f 508/508/508 506/506/506 507/507/507
f 507/507/507 509/509/509 508/508/508
f 510/510/510 508/508/508 509/509/509
f 509/509/509 511/511/511 510/510/510
f 512/512/512 510/510/510 511/511/511
f 511/511/511 513/513/513 512/512/512
f 514/514/514 512/512/512 513/513/513
f 513/513/513 515/515/515 514/514/514
f 516/516/516 514/514/514 515/515/515
f 517/517/517 519/519/519 518/518/518
f 520/520/520 518/518/518 519/519/519
f 519/519/519 521/521/521 520/520/520
f 522/522/522 520/520/520 521/521/521
f 521/521/521 523/523/523 522/522/522
f 524/524/524 522/522/522 523/523/523
f 523/523/523 525/525/525 524/524/524
f 526/526/526 524/524/524 525/525/525
f 525/525/525 527/527/527 526/526/526
f 528/528/528 526/526/526 527/527/527
f 529/529/529 531/531/531 530/530/530
f 532/532/532 530/530/530 531/531/531
f 531/531/531 533/533/533 532/532/532
f 534/534/534 532/532/532 533/533/533
f 533/533/533 535/535/535 534/534/534
f 536/536/536 534/534/534 535/535/535
f 535/535/535 537/537/537 536/536/536
f 538/538/538 536/536/536 537/537/537
f 537/537/537 539/539/539 538/538/538
f 540/540/540 538/538/538 539/539/539
f 541/541/541 543/543/543 542/542/542
f 544/544/544 542/542/542 543/543/543
f 543/543/543 545/545/545 544/544/544
f 546/546/546 544/544/544 545/545/545
f 545/545/545 547/547/547 546/546/546
f 548/548/548 546/546/546 547/547/547
f 547/547/547 549/549/549 548/548/548
f 550/550/550 548/548/548 549/549/549
f 549/549/549 551/551/551 550/550/550
f 552/552/552 550/550/550 551/551/551
f 553/553/553 555/555/555 554/554/554
f 556/556/556 554/554/554 555/555/555
f 555/555/555 557/557/557 556/556/556
f 558/558/558 556/556/556 557/557/557
f 557/557/557 559/559/559 558/558/558
f 560/560/560 558/558/558 559/559/559
f 559/559/559 561/561/561 560/560/560
f 562/562/562 560/560/560 561/561/561
f 561/561/561 563/563/563 562/562/562
f 564/564/564 562/562/562 563/563/563
f 565/565/565 567/567/567 566/566/566
f 568/568/568 566/566/566 567/567/567
f 567/567/567 569/569/569 568/568/568
f 570/570/570 568/568/568 569/569/569
f 569/569/569 571/571/571 570/570/570
f 572/572/572 570/570/570 571/571/571
f 571/571/571 573/573/573 572/572/572
f 574/574/574 572/572/572 573/573/573
f 573/573/573 575/575/575 574/574/574
f 576/576/576 574/574/574 575/575/575
f 577/577/577 579/579/579 578/578/578
f 580/580/580 578/578/578 579/579/579
f 579/579/579 581/581/581 580/580/580
f 582/582/582 580/580/580 581/581/581
f 581/581/581 583/583/583 582/582/582
f 584/584/584 582/582/582 583/583/583
f 583/583/583 585/585/585 584/584/584
f 586/586/586 584/584/584 585/585/585
f 585/585/585 587/587/587 586/586/586
f 588/588/588 586/586/586 587/587/587
f 589/589/589 591/591/591 590/590/590
f 592/592/592 590/590/590 591/591/591
f 591/591/591 593/593/593 592/592/592
f 594/594/594 592/592/592 593/593/593
f 593/593/593 595/595/595 594/594/594
f 596/596/596 594/594/594 595/595/595
f 595/595/595 597/597/597 596/596/596
f 598/598/598 596/596/596 597/597/597
f 597/597/597 599/599/599 598/598/598
f 600/600/600 598/598/598 599/599/599
f 601/601/601 603/603/603 602/602/602
f 604/604/604 602/602/602 603/603/603
f 603/603/603 605/605/605 604/604/604
f 606/606/606 604/604/604 605/605/605
f 605/605/605 607/607/607 606/606/606
f 608/608/608 606/606/606 607/607/607
f 607/607/607 609/609/609 608/608/608
f 610/610/610 608/608/608 609/609/609
f 609/609/609 611/611/611 610/610/610
f 612/612/612 610/610/610 611/611/611
f 613/613/613 615/615/615 614/614/614
f 616/616/616 614/614/614 615/615/615
f 615/615/615 617/617/617 616/616/616
f 618/618/618 616/616/616 617/617/617
f 617/617/617 619/619/619 618/618/618
f 620/620/620 618/618/618 619/619/619
f 619/619/619 621/621/621 620/620/620
f 622/622/622 620/620/620 621/621/621
f 621/621/621 623/623/623 622/622/622
f 624/624/624 622/622/622 623/623/623
f 625/625/625 627/627/627 626/626/626
f 628/628/628 626/626/626 627/627/627
f 627/627/627 629/629/629 628/628/628
f 630/630/630 628/628/628 629/629/629
f 629/629/629 631/631/631 630/630/630
f 632/632/632 630/630/630 631/631/631
f 631/631/631 633/633/633 632/632/632
f 634/634/634 632/632/632 633/633/633
f 633/633/633 635/635/635 634/634/634
f 636/636/636 634/634/634 635/635/635
f 637/637/637 639/639/639 638/638/638
f 640/640/640 638/638/638 639/639/639
f 639/639/639 641/641/641 640/640/640
f 642/642/642 640/640/640 641/641/641
f 641/641/641 643/643/643 642/642/642
f 644/644/644 642/642/642 643/643/643
f 643/643/643 645/645/645 644/644/644
f 646/646/646 644/644/644 645/645/645
f 645/645/645 647/647/647 646/646/646
f 648/648/648 646/646/646 647/647/647

g ring4
# texture: ring4.jpg
v 399.9559 85.8743 0.017774
v -0.0186 85.8743 0.017804
v 0.00353 85.8743 399.9999
v 400 85.8742 399.9998
v -0.04073 85.8742 -399.9643
v 399.9119 85.8742 -399.9643
v -399.9931 85.8742 0.017934
v -399.9932 85.8742 -399.9643
v -399.993 85.8743 399.9999
vn 0 1 -0
vn 0 1 -0
vn 0 1 -0
vn 0 1 -0
vn 0 1 -0
vn 0 1 -0
vn 0 1 -0
vn 0 1 -0
vn 0 1 -0
vt 0.0006 0.5
vt 0.5 0.5
vt 0.5 0.9995
vt 0.0005 0.9995
vt 0.5001 0.0005
vt 0.0006 0.0005
vt 0.9995 0.5
vt 0.9995 0.0005
vt 0.9995 0.9995
f 649/649/649 651/651/651 650/650/650
f 651/651/651 649/649/649 652/652/652
f 649/649/649 650/650/650 653/653/653
f 653/653/653 654/654/654 649/649/649
f 655/655/655 653/653/653 650/650/650
f 653/653/653 655/655/655 656/656/656
f 655/655/655 650/650/650 651/651/651
f 651/651/651 657/657/657 655/655/655
