# Inferno01.bmd — MU geometry at action 0 key 2, exported for MU2
# 2 mesh(es)

g ring3
# texture: ring3.jpg
v 116.4617 245.0107 -320.8706
v 116.4618 139.1934 -320.8706
v 197.0729 245.0107 -272.8167
v 197.073 139.1934 -272.8167
v 262.9682 245.0108 -205.9949
v 262.9682 139.1935 -205.9949
v 309.8919 245.0108 -124.7207
v 309.8919 139.1935 -124.7207
v 334.8138 245.0108 -34.24282
v 334.8138 139.1935 -34.2427
v 336.1242 245.0108 59.59555
v 336.1241 139.1935 59.59552
v 99.17989 161.755 -281.125
v 133.7436 222.4492 -360.6162
v 170.3305 161.7549 -238.7106
v 223.8155 222.4492 -306.9227
v 228.4922 161.755 -179.7312
v 297.4442 222.4493 -232.2586
v 269.909 161.7549 -107.9954
v 349.875 222.4493 -141.446
v 291.9059 161.755 -28.13601
v 377.7217 222.4493 -40.3495
v 293.0625 161.755 54.68932
v 379.1858 222.4493 64.50174
v 100.3003 226.1111 -283.7018
v 132.6232 158.0931 -358.0394
v 172.0642 226.1111 -240.9219
v 222.0817 158.093 -304.7115
v 230.7274 226.1111 -181.4339
v 295.209 158.0931 -230.5559
v 272.5011 226.1112 -109.0797
v 347.2828 158.0931 -140.3616
v 294.6878 226.1111 -28.53197
v 374.9398 158.0931 -39.95355
v 295.8542 226.1111 55.00736
v 376.394 158.0931 64.18362
v 250.5642 226.0919 38.45652
v 250.5642 158.1123 38.45652
v 227.2563 226.0919 103.7685
v 227.2563 158.1123 103.7685
v 185.4125 226.0919 162.907
v 185.4125 158.1123 162.9071
v 129.039 226.0919 210.2101
v 129.039 158.1123 210.2101
v 63.53271 226.0919 241.149
v 63.53271 158.1123 241.149
v -4.834412 226.0919 252.7615
v -4.83429 158.1123 252.7615
v 219.5274 172.6064 38.57545
v 281.6009 211.5979 38.33758
v 199.5546 172.6064 94.54243
v 254.9582 211.5979 112.9947
v 163.698 172.6064 145.2192
v 207.1272 211.5979 180.5949
v 115.3905 172.6064 185.754
v 142.6874 211.5979 234.6664
v 59.25719 172.6064 212.266
v 67.80838 211.5979 270.0321
v 0.67234 172.6064 222.2169
v -10.34095 211.5978 283.3061
v 221.5396 213.9504 38.56771
v 279.5888 170.2539 38.34518
v 201.3506 213.9504 95.14058
v 253.1621 170.2539 112.3964
v 165.1057 213.9504 146.3659
v 205.7194 170.2539 179.4482
v 116.2754 213.9503 187.3396
v 141.8025 170.2539 233.0809
v 59.5344 213.9503 214.1385
v 67.53117 170.2539 268.1595
v 0.315224 213.9503 224.1972
v -9.983986 170.2539 281.3258
v -88.04086 245.0107 329.8187
v -88.0408 139.1934 329.8188
v -172.5335 245.0107 288.9734
v -172.5335 139.1934 288.9734
v -244.0019 245.0107 228.149
v -244.0019 139.1934 228.1491
v -297.8306 245.0107 151.2737
v -297.8306 139.1934 151.2737
v -330.5432 245.0107 63.31221
v -330.5432 139.1934 63.31221
v -340.0271 245.0107 -30.05479
v -340.0271 139.1934 -30.05479
v -74.28883 161.7549 288.7181
v -101.793 222.4493 370.9193
v -148.8653 161.7549 252.6664
v -196.2017 222.4492 325.2804
v -211.9461 161.7549 198.9805
v -276.0577 222.4492 257.3176
v -259.4574 161.7549 131.1274
v -336.2038 222.4492 171.4202
v -288.331 161.7549 53.48909
v -372.7556 222.4492 73.13536
v -296.7017 161.7549 -28.92029
v -383.3525 222.4492 -31.18924
v -75.18035 226.1111 291.3828
v -100.9014 158.0931 368.2546
v -150.3998 226.1111 255.0204
v -194.6672 158.093 322.9265
v -214.0244 226.1111 200.8715
v -273.9795 158.093 255.4266
v -261.9453 226.1111 132.4335
v -333.7159 158.093 170.114
v -291.0676 226.111 54.12595
v -370.0188 158.093 72.49857
v -299.5107 226.1111 -28.99389
v -380.5436 158.093 -31.11575
v -166.2613 226.0918 -190.7552
v -166.2613 158.1122 -190.7552
v -106.4248 226.0919 -225.8051
v -106.4248 158.1122 -225.8051
v -36.357 226.0919 -244.2111
v -36.357 158.1122 -244.2111
v 37.23353 226.0919 -244.2112
v 37.23353 158.1123 -244.2112
v 107.3013 226.0919 -225.8052
v 107.3013 158.1123 -225.8052
v 167.1379 226.0919 -190.7554
v 167.1378 158.1123 -190.7553
v -142.4093 172.6063 -170.8963
v -190.1133 211.5978 -210.6141
v -91.13436 172.6063 -200.9311
v -121.7151 211.5978 -250.6791
v -31.09219 172.6063 -216.7036
v -41.62187 211.5978 -271.7187
v 31.9687 172.6063 -216.7036
v 42.49838 211.5978 -271.7188
v 92.01093 172.6063 -200.9313
v 122.5917 211.5978 -250.6792
v 143.2858 172.6063 -170.8964
v 190.9899 211.5978 -210.6143
v -143.9557 213.9503 -172.1838
v -188.5669 170.2538 -209.3267
v -92.12571 213.9503 -202.5438
v -120.7238 170.2538 -249.0665
v -31.4335 213.9503 -218.487
v -41.28047 170.2538 -269.9354
v 32.31004 213.9503 -218.487
v 42.15705 170.2538 -269.9354
v 93.00224 213.9503 -202.5439
v 121.6004 170.2539 -249.0665
v 144.8322 213.9503 -172.1839
v 189.4435 170.2539 -209.3267
v -24.32704 229.1529 -104.4032
v -24.32704 155.0512 -104.4032
v 13.12317 229.153 -103.5457
v 13.12317 155.0512 -103.5457
v 45.72162 229.153 -93.56799
v 45.72171 155.0512 -93.56804
v 72.62959 229.153 -74.72684
v 72.62968 155.0512 -74.7269
v 93.15498 229.153 -47.50686
v 93.15498 155.0512 -47.50686
v 106.7694 229.153 -12.60845
v 106.7694 155.0513 -12.60845
v -35.50394 170.8506 -78.12374
v -13.15023 213.3536 -130.6826
v -0.82328 170.8506 -77.3297
v 27.06953 213.3536 -129.7617
v 29.36452 170.8506 -68.08992
v 62.07878 213.3536 -119.0461
v 54.28254 170.8506 -50.64206
v 90.97676 213.3536 -98.8116
v 73.28991 170.8506 -25.43516
v 113.02 213.3536 -69.57864
v 85.89755 170.8506 6.882471
v 127.6413 213.3536 -32.09929
v -34.77934 215.9179 -79.82749
v -13.87484 168.2862 -128.9788
v 0.080956 215.9179 -79.02933
v 26.16539 168.2862 -128.0621
v 30.42489 215.9179 -69.7417
v 61.01829 168.2862 -117.3944
v 55.47194 215.918 -52.20356
v 89.78722 168.2862 -97.25013
v 74.57779 215.918 -26.86611
v 111.732 168.2863 -68.14764
v 87.25069 215.9179 5.618788
v 126.2881 168.2863 -30.8357
v -11.80325 229.153 105.9643
v -11.80334 155.0512 105.9643
v -46.7017 229.153 92.34982
v -46.7017 155.0512 92.34982
v -73.92173 229.153 71.82458
v -73.92173 155.0512 71.82458
v -92.76289 229.1529 44.91658
v -92.76289 155.0512 44.91658
v -102.7406 229.1529 12.31808
v -102.7406 155.0512 12.31816
v -103.5981 229.1529 -25.13221
v -103.598 155.0512 -25.13212
v 7.687611 170.8506 85.09244
v -31.29414 213.3536 126.8363
v -24.63 170.8506 72.48474
v -68.7734 213.3536 112.2149
v -49.83696 170.8506 53.47744
v -98.00642 213.3536 90.17168
v -67.28478 170.8506 28.55937
v -118.241 213.3536 61.27381
v -76.52463 170.8506 -1.628302
v -128.9566 213.3536 26.26452
v -77.31868 170.8506 -36.30902
v -129.8775 213.3536 -13.95526
v 6.423965 215.918 86.44554
v -30.03054 168.2863 125.4831
v -26.06094 215.9179 73.77266
v -67.34245 168.2862 110.927
v -51.39841 215.9179 54.66692
v -96.44495 168.2862 88.98221
v -68.93655 215.9179 29.61981
v -116.5891 168.2862 60.2133
v -78.22427 215.9179 -0.72415
v -127.2569 168.2862 25.36039
v -79.02242 215.9179 -35.58437
v -128.1737 168.2862 -14.67992
v 196.0533 12.2553 -279.4559
v 196.0532 118.0726 -279.456
v 110.4531 12.2553 -317.9262
v 110.4531 118.0726 -317.9263
v 17.91983 12.2553 -333.5771
v 17.91983 118.0726 -333.5771
v -75.57047 12.2552 -325.3977
v -75.57047 118.0726 -325.3977
v -163.9802 12.2552 -293.9166
v -163.9803 118.0726 -293.9165
v -241.5997 12.2552 -241.1664
v -241.5996 118.0726 -241.1665
v 173.408 95.51111 -242.5022
v 218.6985 34.8168 -316.4096
v 97.854 95.51111 -276.4576
v 123.0522 34.8168 -359.3948
v 16.18048 95.51111 -290.2717
v 19.65915 34.8168 -376.8824
v -66.33771 95.51111 -283.0524
v -84.80328 34.8168 -367.7432
v -144.3716 95.51111 -255.2657
v -183.5889 34.8168 -332.5673
v -212.8815 95.51111 -208.7065
v -270.3178 34.8168 -273.6264
v 174.8762 31.15491 -244.898
v 217.2303 99.173 -314.0138
v 98.67084 31.15491 -279.1462
v 122.2353 99.173 -356.7063
v 16.29333 31.15491 -293.0793
v 19.54645 99.173 -374.0748
v -66.93628 31.15491 -285.7977
v -84.20468 99.173 -364.9978
v -145.6429 31.15491 -257.7717
v -182.3176 99.173 -330.0615
v -214.7434 31.15491 -210.811
v -268.456 99.173 -271.522
v -175.2084 31.1741 -183.2047
v -175.2084 99.15381 -183.2047
v -215.34 31.1741 -126.6506
v -215.34 99.15381 -126.6506
v -239.7829 31.1741 -58.45359
v -239.7829 99.15381 -58.45359
v -246.1968 31.1741 14.8569
v -246.1968 99.1537 14.8569
v -233.9675 31.1741 86.26229
v -233.9675 99.1537 86.26229
v -204.2661 31.1741 148.926
v -204.2661 99.1537 148.9259
v -157.5038 84.6597 -157.7126
v -192.9129 45.6682 -208.6967
v -191.8934 84.6597 -109.2505
v -238.7867 45.6682 -144.0507
v -212.8388 84.6597 -50.81139
v -266.727 45.6682 -66.09589
v -218.335 84.6597 12.00962
v -274.0586 45.6682 17.70428
v -207.8555 84.6597 73.19802
v -260.0795 45.6682 99.32659
v -182.4039 84.6597 126.8955
v -226.1283 45.6682 170.9564
v -158.6516 43.3157 -159.3653
v -191.7651 87.01221 -207.0439
v -193.4135 43.3157 -110.3786
v -237.2666 87.01221 -142.9226
v -214.5856 43.3157 -51.30687
v -264.9802 87.01221 -65.60041
v -220.1413 43.3157 12.19423
v -272.2522 87.01221 17.51971
v -209.5484 43.3157 74.04502
v -258.3867 87.01221 98.47961
v -183.8214 43.3157 128.3238
v -224.711 87.01221 169.5281
v -219.6624 12.2553 261.283
v -219.6624 118.0726 261.283
v -137.7409 12.2553 307.0674
v -137.7409 118.0726 307.0674
v -46.92383 12.2553 330.7235
v -46.92383 118.0726 330.7235
v 46.92368 12.2552 330.7235
v 46.92368 118.0726 330.7235
v 137.7407 12.2552 307.0675
v 137.7407 118.0726 307.0675
v 219.6623 12.2552 261.2832
v 219.6622 118.0726 261.2832
v -193.8827 95.51111 226.4436
v -245.4422 34.8168 296.1224
v -121.5755 95.51111 266.8547
v -153.9063 34.8168 347.28
v -41.41678 95.51111 287.7346
v -52.43085 34.8168 373.7124
v 41.41661 95.51111 287.7346
v 52.43066 34.8168 373.7126
v 121.5753 95.51111 266.8549
v 153.9061 34.8168 347.2803
v 193.8825 95.51111 226.4438
v 245.442 34.8168 296.1225
v -195.554 31.15491 228.7023
v -243.7708 99.173 293.8636
v -122.6236 31.15491 269.4619
v -152.8582 99.173 344.673
v -41.77393 31.15491 290.5217
v -52.07385 99.173 370.9254
v 41.77371 31.15491 290.5216
v 52.07355 99.173 370.9254
v 122.6234 31.15491 269.462
v 152.8581 99.173 344.6732
v 195.5538 31.15491 228.7025
v 243.7707 99.173 293.8638
v 251.6323 31.1741 26.76851
v 251.6323 99.15381 26.76851
v 246.0227 31.1741 -42.35062
v 246.0227 99.15381 -42.35062
v 220.9108 31.1741 -110.304
v 220.9108 99.15381 -110.304
v 178.701 31.1741 -170.5859
v 178.701 99.1537 -170.5859
v 123.4344 31.1741 -217.4248
v 123.4344 99.1537 -217.4248
v 60.4024 31.1741 -246.3363
v 60.4024 99.1537 -246.3363
v 221.6839 84.6597 18.62057
v 281.5807 45.6682 34.91632
v 216.8769 84.6597 -40.60863
v 275.1684 45.6682 -44.09261
v 195.3581 84.6597 -98.83903
v 246.4635 45.6682 -121.7691
v 159.1879 84.6597 -150.4955
v 198.2142 45.6682 -190.6763
v 111.8291 84.6597 -190.6325
v 135.0398 45.6682 -244.2171
v 57.8159 84.6597 -215.4073
v 62.98892 45.6682 -277.2654
v 223.6255 43.3157 19.14889
v 279.6391 87.01221 34.388
v 218.7665 43.3157 -40.72152
v 273.2788 87.01221 -43.97968
v 197.0148 43.3157 -99.58232
v 244.8068 87.01221 -121.0258
v 160.4529 43.3157 -151.798
v 196.949 87.01221 -189.3738
v 112.5815 43.3157 -192.3695
v 134.2874 87.01221 -242.4801
v 57.98358 43.3157 -217.4125
v 62.82123 87.01221 -275.2601
v 99.48662 28.1131 -39.96777
v 99.48662 102.2148 -39.96786
v 77.30373 28.1131 -70.15348
v 77.30373 102.2148 -70.15348
v 50.43274 28.1131 -91.13358
v 50.43274 102.2148 -91.13358
v 19.56514 28.11301 -102.3685
v 19.56514 102.2148 -102.3685
v -14.50496 28.11301 -103.5691
v -14.50496 102.2148 -103.5691
v -50.90106 28.11301 -94.70452
v -50.90106 102.2148 -94.70452
v 84.37061 86.41541 -15.73897
v 114.6027 43.9124 -64.19667
v 63.82812 86.4155 -43.69228
v 90.77924 43.9124 -96.61457
v 38.94433 86.4155 -63.12099
v 61.92113 43.9124 -119.1463
v 10.35954 86.4155 -73.525
v 28.77075 43.9124 -131.2121
v -21.19097 86.4155 -74.63682
v -7.818947 43.9124 -132.5014
v -54.89547 86.4155 -66.42773
v -46.90675 43.9124 -122.9812
v 85.35061 41.3481 -17.30977
v 113.6227 88.9798 -62.62576
v 64.70183 41.3481 -45.40788
v 89.90564 88.9798 -94.89906
v 39.68923 41.3481 -64.9371
v 61.17635 88.9798 -117.3302
v 10.95634 41.3481 -75.3949
v 28.17395 88.9798 -129.342
v -20.75757 41.3481 -76.51251
v -8.252449 88.9798 -130.6256
v -54.63647 41.3481 -68.26102
v -47.16565 88.9798 -121.148
v -80.01971 28.1131 70.43517
v -80.01971 102.2148 70.43517
v -48.85043 28.1131 91.21337
v -48.85043 102.2148 91.21337
v -16.42433 28.1131 101.7379
v -16.42433 102.2148 101.7379
v 16.42426 28.11301 101.7378
v 16.42426 102.2148 101.7378
v 48.85037 28.11301 91.21342
v 48.85037 102.2148 91.21342
v 80.01968 28.11301 70.43523
v 80.01968 102.2148 70.43523
v -74.10201 86.41541 42.49757
v -85.93742 43.9124 98.37276
v -45.23772 86.4155 61.73908
v -52.46305 43.9124 120.6876
v -15.20972 86.4155 71.48528
v -17.63904 43.9124 131.9904
v 15.20967 86.4155 71.48529
v 17.63885 43.9124 131.9904
v 45.23768 86.4155 61.73911
v 52.46296 43.9124 120.6876
v 74.10188 86.4155 42.49762
v 85.93738 43.9124 98.37283
v -74.48561 41.3481 44.30877
v -85.55373 88.9798 96.56156
v -45.47202 41.3481 63.64997
v -52.22884 88.9798 118.7767
v -15.28843 41.3481 73.44669
v -17.56024 88.9798 130.0291
v 15.28838 41.3481 73.4466
v 17.56016 88.9798 130.0291
v 45.47188 41.3481 63.65001
v 52.22876 88.9798 118.7767
v 74.48559 41.3481 44.30883
v 85.55368 88.9798 96.56152
v -168.9821 100.4298 200.9956
v -168.9821 181.8277 200.9957
v -105.9656 100.4298 236.2143
v -105.9656 181.8277 236.2143
v -36.10632 100.4298 254.4113
v -36.10632 181.8277 254.4113
v 36.08398 100.4298 254.4113
v 36.08398 181.8277 254.4113
v 105.9433 100.4298 236.2144
v 105.9433 181.8277 236.2143
v 168.9599 100.4297 200.9955
v 168.9599 181.8277 200.9955
v -149.1515 164.4727 174.196
v -188.8127 117.7848 227.7952
v -93.53073 164.4727 205.2815
v -118.4005 117.7848 267.1471
v -31.87013 164.4727 221.3429
v -40.34251 117.7848 287.4797
v 31.84787 164.4727 221.3429
v 40.32019 117.7848 287.4798
v 93.50837 164.4727 205.2816
v 118.3782 117.7848 267.1472
v 149.1293 164.4727 174.1961
v 188.7905 117.7848 227.795
v -150.4372 114.968 175.9335
v -187.5271 167.2895 226.0577
v -94.33683 114.968 207.287
v -117.5943 167.2895 265.1417
v -32.14483 114.968 223.4868
v -40.06781 167.2895 285.3358
v 32.12247 114.9679 223.4868
v 40.04559 167.2896 285.3358
v 94.31457 114.968 207.287
v 117.572 167.2896 265.1417
v 150.415 114.968 175.9335
v 187.5048 167.2896 226.0575
v 121.9698 114.9827 152.1283
v 121.9698 167.2748 152.1283
v 156.5144 114.9827 111.4811
v 156.5144 167.2748 111.4811
v 179.8171 114.9827 60.86023
v 179.8171 167.2748 60.86023
v 189.647 114.9827 5.112123
v 189.647 167.2748 5.112123
v 185.0629 114.9827 -50.42588
v 185.0629 167.2748 -50.42588
v 166.5038 114.9827 -100.4366
v 166.5038 167.2748 -100.4366
v 110.1118 156.1254 131.4066
v 133.8279 126.132 172.8499
v 139.7137 156.1255 96.57544
v 173.3151 126.132 126.3868
v 159.6821 156.1255 53.19763
v 199.9521 126.132 68.52292
v 168.1055 156.1255 5.426131
v 211.1885 126.132 4.798117
v 164.1774 156.1255 -42.16537
v 205.9485 126.132 -58.68649
v 148.2737 156.1255 -85.02026
v 184.7339 126.132 -115.8529
v 110.8806 124.3224 132.75
v 133.0591 157.9351 171.5063
v 140.8029 124.3224 97.54184
v 172.226 157.9351 125.4204
v 160.9875 124.3224 53.69443
v 198.6467 157.9351 68.02612
v 169.5022 124.3224 5.40573
v 209.7919 157.9351 4.818518
v 165.5314 124.3224 -42.70087
v 204.5945 157.9351 -58.15098
v 149.4556 124.3224 -86.01976
v 183.552 157.9351 -114.8534
v 185.8346 100.4298 -185.504
v 185.8346 181.8277 -185.504
v 126.1274 100.4298 -226.0809
v 126.1274 181.8277 -226.0809
v 58.11992 100.4298 -250.2973
v 58.11992 181.8277 -250.2973
v -13.79568 100.4297 -256.5891
v -13.79568 181.8277 -256.5891
v -84.97507 100.4297 -244.55
v -84.97507 181.8277 -244.55
v -150.8214 100.4297 -214.9575
v -150.8214 181.8277 -214.9575
v 163.7439 164.4727 -160.5347
v 207.9255 117.7848 -210.4732
v 111.0438 164.4727 -196.3496
v 141.211 117.7848 -255.8122
v 51.01783 164.4727 -217.7239
v 65.22211 117.7848 -282.8707
v -12.45777 164.4727 -223.2773
v -15.13359 117.7848 -289.9009
v -75.28347 164.4727 -212.6511
v -94.66669 117.7848 -276.4489
v -133.402 164.4727 -186.5316
v -168.2408 117.7848 -243.3833
v 165.1761 114.968 -162.1536
v 206.4933 167.2896 -208.8544
v 112.0217 114.968 -198.2771
v 140.2331 167.2896 -253.8848
v 51.47823 114.968 -219.8357
v 64.76161 167.2896 -280.7589
v -12.54447 114.9679 -225.437
v -15.04689 167.2896 -287.7412
v -75.91177 114.968 -214.7192
v -94.03839 167.2896 -274.3808
v -134.5314 114.968 -188.3746
v -167.1114 167.2896 -241.5404
v -191.0426 114.9827 -37.39145
v -191.0426 167.2748 -37.39135
v -191.3778 114.9827 15.95085
v -191.3778 167.2748 15.95085
v -176.6903 114.9827 69.70744
v -176.6903 167.2748 69.70744
v -148.3862 114.9827 118.7315
v -148.3862 167.2747 118.7314
v -109.1753 114.9827 158.3295
v -109.1753 167.2747 158.3295
v -62.81204 114.9827 184.7103
v -62.81204 167.2747 184.7103
v -168.6392 156.1254 -29.13986
v -213.4459 126.132 -45.64295
v -168.9265 156.1255 16.57004
v -213.8291 126.132 15.33176
v -156.3405 156.1255 62.63483
v -197.04 126.132 76.77995
v -132.0863 156.1255 104.6443
v -164.6861 126.132 132.8187
v -98.48595 156.1255 138.5765
v -119.8648 126.132 178.0824
v -58.75635 156.1255 161.1826
v -66.86763 126.132 208.2379
v -170.0917 124.3224 -29.67486
v -211.9934 157.9351 -45.10795
v -170.3821 124.3224 16.52984
v -212.3735 157.9351 15.37186
v -157.6599 124.3224 63.09333
v -195.7207 157.9351 76.32145
v -133.1431 124.3224 105.5576
v -163.6293 157.9351 131.9053
v -99.17896 124.3224 139.8571
v -119.1718 157.9351 176.8018
v -59.01935 124.3224 162.708
v -66.60473 157.9351 206.7126
v -78.92699 112.6281 23.94901
v -78.92699 169.6294 23.94911
v -63.95179 112.6281 48.5676
v -63.95179 169.6294 48.5676
v -44.76708 112.6281 66.4463
v -44.76708 169.6294 66.4463
v -21.86628 112.6281 77.12509
v -21.86628 169.6294 77.12509
v 4.161226 112.6281 80.32919
v 4.161226 169.6294 80.32919
v 32.64602 112.6281 75.97628
v 32.64602 169.6294 75.97628
v -65.7191 157.4761 6.395807
v -92.13489 124.7814 41.50232
v -51.85139 157.4761 29.1938
v -76.05218 124.7814 67.94141
v -34.08548 157.4761 45.7503
v -55.44867 124.7814 87.1423
v -12.87828 157.4761 55.63929
v -30.85437 124.7814 98.61079
v 11.22442 157.4761 58.60648
v -2.901967 124.7814 102.0519
v 37.60262 157.4761 54.57557
v 27.68933 124.7814 97.37708
v -66.5754 122.8089 7.533907
v -91.27859 159.4486 40.36422
v -52.63589 122.8089 30.4499
v -75.26768 159.4486 66.68541
v -34.77798 122.8089 47.092
v -54.75617 159.4486 85.8005
v -13.46098 122.8089 57.03229
v -30.27167 159.4486 97.21779
v 10.76652 122.8089 60.01488
v -2.444067 159.4486 100.6436
v 37.28132 122.8089 55.96297
v 28.01073 159.4486 95.98968
v 66.03108 112.6281 -48.61854
v 66.03108 169.6295 -48.61864
v 43.53898 112.6281 -66.63063
v 43.53898 169.6295 -66.63063
v 19.39638 112.6281 -76.86952
v 19.39638 169.6295 -76.86952
v -5.775726 112.6281 -79.07182
v -5.775726 169.6294 -79.07182
v -31.32952 112.6281 -73.18081
v -31.32952 169.6294 -73.18081
v -56.60762 112.6281 -59.348
v -56.60762 169.6294 -59.348
v 59.62329 157.4761 -27.60663
v 72.43888 124.7814 -69.63054
v 38.79448 157.4761 -44.28662
v 48.28337 124.7814 -88.97463
v 16.43738 157.4761 -53.76832
v 22.35537 124.7814 -99.97073
v -6.873118 157.4761 -55.80771
v -4.678233 124.7814 -102.3359
v -30.53712 157.4761 -50.35241
v -32.12183 124.7814 -96.00921
v -53.94591 157.4761 -37.54259
v -59.26943 124.7814 -81.1535
v 60.03869 122.8089 -28.96894
v 72.02338 159.4486 -68.26834
v 39.10209 122.8089 -45.73532
v 47.97577 159.4486 -87.52603
v 16.62918 122.8089 -55.26602
v 22.16347 159.4486 -98.47302
v -6.802019 122.8089 -57.31601
v -4.749433 159.4486 -100.8276
v -30.58852 122.8089 -51.83241
v -32.07043 159.4486 -94.52921
v -54.11841 122.8089 -38.9563
v -59.09683 159.4486 -79.73979
vn -0.512003 0 0.858984
vn -0.512003 0 0.858984
vn -0.582932 0 0.812521
vn -0.65002 0 0.759917
vn -0.768877 0 0.639396
vn -0.82062 0 0.571475
vn -0.905221 0 0.424941
vn -0.938172 0 0.34617
vn -0.983117 0 0.182976
vn -0.99513 0 0.098574
vn -0.999903 0 0.013917
vn -0.999903 0 0.013917
vn 0.295244 -0.816965 -0.495378
vn 0.295268 -0.816931 -0.495419
vn 0.334544 -0.8189 -0.466352
vn 0.373083 -0.818879 -0.436173
vn 0.441289 -0.818929 -0.366904
vn 0.470973 -0.818888 -0.328034
vn 0.519572 -0.818888 -0.243858
vn 0.538393 -0.818929 -0.198716
vn 0.564278 -0.818879 -0.105014
vn 0.571144 -0.8189 -0.056549
vn 0.57668 -0.816931 -0.008001
vn 0.57668 -0.816931 -0.008001
vn -0.3307 -0.763465 0.55476
vn -0.3307 -0.763465 0.55476
vn -0.374853 -0.765798 0.522532
vn -0.418047 -0.76578 0.48869
vn -0.494489 -0.765747 0.411232
vn -0.52774 -0.765787 0.367506
vn -0.582139 -0.765787 0.273284
vn -0.603382 -0.765747 0.222625
vn -0.632241 -0.76578 0.117695
vn -0.639952 -0.765798 0.063367
vn -0.645786 -0.763465 0.009015
vn -0.645786 -0.763465 0.009015
vn -0.941824 0 -0.336106
vn -0.941824 0 -0.336106
vn -0.907509 0 -0.420032
vn -0.865337 0 -0.501191
vn -0.764056 0 -0.64515
vn -0.705777 0 -0.708434
vn -0.575095 0 -0.818087
vn -0.502683 0 -0.864471
vn -0.343408 0 -0.939186
vn -0.256136 0 -0.966641
vn -0.167465 0 -0.985878
vn -0.167465 0 -0.985878
vn 0.523099 -0.831583 0.186648
vn 0.523099 -0.831583 0.186648
vn 0.505765 -0.829984 0.235222
vn 0.487043 -0.826133 0.283361
vn 0.436375 -0.820698 0.368824
vn 0.404487 -0.819288 0.406395
vn 0.330056 -0.81928 0.468875
vn 0.287512 -0.820679 0.493784
vn 0.194471 -0.82614 0.528843
vn 0.143857 -0.829961 0.538953
vn 0.093034 -0.831595 0.547536
vn 0.093034 -0.831595 0.547536
vn -0.588547 -0.780721 -0.20997
vn -0.588547 -0.780721 -0.20997
vn -0.568816 -0.778801 -0.264418
vn -0.547114 -0.774284 -0.318041
vn -0.489258 -0.767827 -0.413604
vn -0.453274 -0.766205 -0.455491
vn -0.369803 -0.766212 -0.525514
vn -0.32231 -0.767842 -0.553656
vn -0.218224 -0.774317 -0.59398
vn -0.161601 -0.778799 -0.6061
vn -0.104631 -0.780733 -0.616043
vn -0.104631 -0.780733 -0.616043
vn 0.435228 0 -0.90032
vn 0.435228 0 -0.90032
vn 0.509849 0 -0.860264
vn 0.58133 0 -0.813668
vn 0.710264 0 -0.703935
vn 0.767635 0 -0.640887
vn 0.864772 0 -0.502164
vn 0.904408 0 -0.426669
vn 0.963418 0 -0.268003
vn 0.982769 0 -0.184841
vn 0.994879 0 -0.10107
vn 0.994879 0 -0.10107
vn -0.250999 -0.816916 0.519276
vn -0.250999 -0.816916 0.519276
vn -0.292618 -0.818889 0.493757
vn -0.333619 -0.818919 0.466979
vn -0.407601 -0.818913 0.404033
vn -0.44063 -0.818888 0.367788
vn -0.496272 -0.818916 0.288255
vn -0.519107 -0.818885 0.24486
vn -0.552974 -0.818881 0.153795
vn -0.564015 -0.818918 0.106121
vn -0.573762 -0.816946 0.058275
vn -0.573762 -0.816946 0.058275
vn 0.281121 -0.763473 -0.581447
vn 0.281121 -0.763473 -0.581447
vn 0.327882 -0.765772 -0.553251
vn 0.37387 -0.765798 -0.523235
vn 0.456788 -0.76575 -0.452739
vn 0.493658 -0.765792 -0.412146
vn 0.556133 -0.765789 -0.322931
vn 0.581626 -0.765788 -0.274373
vn 0.619583 -0.765766 -0.172396
vn 0.631996 -0.765791 -0.118936
vn 0.642547 -0.763466 -0.065224
vn 0.642547 -0.763466 -0.065224
vn 0.505446 0 0.862858
vn 0.505446 0 0.862858
vn 0.425122 0 0.905136
vn 0.340643 0 0.940193
vn 0.170615 0 0.985338
vn 0.085298 0 0.996356
vn -0.085351 0 0.996351
vn -0.170608 0 0.985339
vn -0.340648 0 0.940191
vn -0.425163 0 0.905117
vn -0.505489 0 0.862833
vn -0.505489 0 0.862833
vn -0.280726 -0.831583 -0.479231
vn -0.280726 -0.831583 -0.479231
vn -0.236193 -0.829993 -0.505296
vn -0.19105 -0.826124 -0.530113
vn -0.097146 -0.82069 -0.563056
vn -0.048585 -0.819276 -0.571337
vn 0.048546 -0.819296 -0.571312
vn 0.097205 -0.820698 -0.563034
vn 0.191026 -0.82611 -0.530143
vn 0.236195 -0.829995 -0.505292
vn 0.280678 -0.831593 -0.479243
vn 0.280678 -0.831593 -0.479243
vn 0.315796 -0.780746 0.539174
vn 0.315796 -0.780746 0.539174
vn 0.26578 -0.778826 0.568148
vn 0.214624 -0.774283 0.595334
vn 0.108953 -0.767826 0.631326
vn 0.054473 -0.766168 0.640327
vn -0.05444 -0.766194 0.6403
vn -0.108977 -0.767847 0.631296
vn -0.214629 -0.774323 0.59528
vn -0.265775 -0.778845 0.568123
vn -0.315849 -0.780727 0.539171
vn -0.315849 -0.780727 0.539171
vn -0.022872 0 0.999739
vn -0.022872 0 0.999739
vn -0.113795 0 0.993504
vn -0.204456 0 0.978876
vn -0.39052 0 0.920595
vn -0.485242 0 0.87438
vn -0.655721 0 0.755003
vn -0.731458 0 0.681886
vn -0.849898 0 0.526947
vn -0.894688 0 0.446692
vn -0.931633 0 0.363401
vn -0.931633 0 0.363401
vn 0.014271 -0.780457 -0.625047
vn 0.014271 -0.780457 -0.625047
vn 0.067265 -0.792264 -0.60646
vn 0.120075 -0.801496 -0.585821
vn 0.22571 -0.814499 -0.534459
vn 0.278332 -0.817916 -0.503533
vn 0.378003 -0.817927 -0.433715
vn 0.425111 -0.814476 -0.394853
vn 0.509399 -0.801483 -0.31327
vn 0.546865 -0.792289 -0.270585
vn 0.582399 -0.780494 -0.227246
vn 0.582399 -0.780494 -0.227246
vn -0.015832 -0.72138 0.692358
vn -0.015832 -0.72138 0.692358
vn -0.075041 -0.734894 0.674018
vn -0.134155 -0.745512 0.652851
vn -0.25263 -0.760608 0.598042
vn -0.311885 -0.764606 0.564008
vn -0.423331 -0.764604 0.485975
vn -0.475527 -0.76061 0.44198
vn -0.567561 -0.74552 0.349391
vn -0.607678 -0.734902 0.301076
vn -0.645169 -0.721387 0.25171
vn -0.645169 -0.721387 0.25171
vn 0.363453 0 -0.931612
vn 0.363453 0 -0.931612
vn 0.446679 0 -0.894695
vn 0.526917 0 -0.849917
vn 0.681907 0 -0.731439
vn 0.755046 0 -0.655672
vn 0.8744 0 -0.485207
vn 0.920558 0 -0.390607
vn 0.978878 0 -0.204445
vn 0.993504 0 -0.113799
vn 0.999738 0 -0.02291
vn 0.999738 0 -0.02291
vn -0.227215 -0.780481 0.582429
vn -0.227215 -0.780481 0.582429
vn -0.270611 -0.792281 0.546864
vn -0.313276 -0.801493 0.50938
vn -0.394857 -0.814492 0.425077
vn -0.43372 -0.817923 0.378007
vn -0.503555 -0.817928 0.278257
vn -0.534472 -0.814502 0.22567
vn -0.585825 -0.801489 0.120107
vn -0.606428 -0.792291 0.067223
vn -0.625036 -0.780464 0.014355
vn -0.625036 -0.780464 0.014355
vn 0.251714 -0.721375 -0.64518
vn 0.251714 -0.721375 -0.64518
vn 0.301107 -0.734899 -0.607665
vn 0.349437 -0.745501 -0.567558
vn 0.441924 -0.760609 -0.47558
vn 0.485974 -0.764621 -0.423302
vn 0.564015 -0.764598 -0.311894
vn 0.59806 -0.760575 -0.252687
vn 0.652858 -0.745496 -0.134211
vn 0.673991 -0.734918 -0.075043
vn 0.692323 -0.721413 -0.015884
vn 0.692323 -0.721413 -0.015884
vn -0.409912 0 0.912125
vn -0.409912 0 0.912125
vn -0.331308 0 0.943523
vn -0.249612 0 0.968346
vn -0.082698 0 0.996575
vn 0.0025 0 0.999997
vn 0.171206 0 0.985235
vn 0.254493 0 0.967075
vn 0.413991 0 0.910281
vn 0.490085 0 0.871675
vn 0.562085 0 0.827079
vn 0.562085 0 0.827079
vn 0.236394 0.81698 -0.525987
vn 0.236414 0.816946 -0.52603
vn 0.190104 0.818918 -0.541511
vn 0.143297 0.818881 -0.555787
vn 0.047499 0.818885 -0.571989
vn -0.0015 0.818916 -0.573911
vn -0.098198 0.818888 -0.565491
vn -0.146102 0.818913 -0.555009
vn -0.237606 0.818919 -0.522413
vn -0.281296 0.818889 -0.500293
vn -0.324206 0.816916 -0.47701
vn -0.324206 0.816916 -0.47701
vn -0.264788 0.763466 0.589073
vn -0.264788 0.763466 0.589073
vn -0.212998 0.765791 0.606792
vn -0.160493 0.765766 0.622772
vn -0.053199 0.765788 0.64089
vn 0.0016 0.765789 0.64309
vn 0.110099 0.765792 0.633594
vn 0.163689 0.76575 0.621959
vn 0.266199 0.765798 0.585399
vn 0.315188 0.765772 0.56058
vn 0.362987 0.763473 0.534181
vn 0.362987 0.763473 0.534181
vn 0.815527 0 0.578719
vn 0.815527 0 0.578719
vn 0.864626 0 0.502416
vn 0.906918 0 0.421309
vn 0.966703 0 0.255901
vn 0.985131 0 0.171806
vn 0.999999 0 0.0018
vn 0.996458 0 -0.084096
vn 0.966305 0 -0.257401
vn 0.938712 0 -0.344704
vn 0.90363 0 -0.428314
vn 0.90363 0 -0.428314
vn -0.452906 0.83161 -0.321404
vn -0.452906 0.83161 -0.321404
vn -0.482785 0.829975 -0.279392
vn -0.511425 0.82614 -0.236512
vn -0.552405 0.820708 -0.145902
vn -0.564898 0.819297 -0.0982
vn -0.573388 0.819283 -0.0014
vn -0.569389 0.820684 0.047699
vn -0.544726 0.82614 0.144107
vn -0.523981 0.82997 0.191293
vn -0.501885 0.831576 0.237893
vn -0.501885 0.831576 0.237893
vn 0.509615 0.780724 0.361611
vn 0.509615 0.780724 0.361611
vn 0.542815 0.778821 0.314309
vn 0.574312 0.774317 0.265706
vn 0.619419 0.767824 0.163605
vn 0.6331 0.7662 0.1101
vn 0.6426 0.7662 0.0015
vn 0.638421 0.767826 -0.053502
vn 0.611784 0.77428 -0.161896
vn 0.589136 0.778847 -0.215213
vn 0.564635 0.780749 -0.267616
vn 0.564635 0.780749 -0.267616
vn 0.4879 0 -0.8729
vn 0.4879 0 -0.8729
vn 0.412198 0 -0.911094
vn 0.333098 0 -0.942892
vn 0.169295 0 -0.985566
vn 0.084602 0 -0.996415
vn -0.084601 0 -0.996415
vn -0.169294 0 -0.985566
vn -0.333097 0 -0.942893
vn -0.412197 0 -0.911095
vn -0.4879 0 -0.8729
vn -0.4879 0 -0.8729
vn -0.281388 0.816965 0.503378
vn -0.281411 0.816931 0.503419
vn -0.2366 0.8189 0.5229
vn -0.191195 0.818879 0.541186
vn -0.097104 0.818929 0.56562
vn -0.0486 0.818888 0.571892
vn 0.048599 0.818888 0.571892
vn 0.097103 0.818929 0.56562
vn 0.191195 0.818879 0.541186
vn 0.2366 0.8189 0.5229
vn 0.281411 0.816931 0.50342
vn 0.281411 0.816931 0.50342
vn 0.315086 0.763465 -0.563774
vn 0.315086 0.763465 -0.563774
vn 0.265099 0.765798 -0.585898
vn 0.214195 0.76578 -0.606384
vn 0.108893 0.765747 -0.633856
vn 0.054399 0.765787 -0.640789
vn -0.054399 0.765787 -0.640789
vn -0.108892 0.765747 -0.633856
vn -0.214194 0.76578 -0.606384
vn -0.265099 0.765798 -0.585898
vn -0.315086 0.763465 -0.563775
vn -0.315086 0.763465 -0.563775
vn -0.996722 0 0.080901
vn -0.996722 0 0.080901
vn -0.985289 0 0.170898
vn -0.965558 0 0.260188
vn -0.905005 0 0.425402
vn -0.8651 0 0.5016
vn -0.767204 0 0.641403
vn -0.709304 0 0.704903
vn -0.574798 0 0.818296
vn -0.497603 0 0.867405
vn -0.41692 0 0.908943
vn -0.41692 0 0.908943
vn 0.553587 0.83158 -0.044899
vn 0.553587 0.83158 -0.044899
vn 0.549396 0.829994 -0.096299
vn 0.543815 0.826123 -0.147604
vn 0.516979 0.820667 -0.24339
vn 0.495886 0.819277 -0.287892
vn 0.440182 0.819265 -0.367484
vn 0.405503 0.820706 -0.402503
vn 0.324711 0.826128 -0.460516
vn 0.278402 0.830006 -0.483304
vn 0.231503 0.831611 -0.504807
vn 0.231503 0.831611 -0.504807
vn -0.622824 0.78073 0.050502
vn -0.622824 0.78073 0.050502
vn -0.617827 0.778834 0.108204
vn -0.610788 0.774284 0.165596
vn -0.579637 0.767849 0.272817
vn -0.555787 0.766182 0.322592
vn -0.493283 0.766174 0.411886
vn -0.454614 0.767823 0.451413
vn -0.3645 0.7743 0.5173
vn -0.313 0.7788 0.5436
vn -0.260503 0.780709 0.568007
vn -0.260503 0.780709 0.568007
vn -0.805794 0 0.592195
vn -0.805794 0 0.592195
vn -0.748611 0 0.663009
vn -0.68461 0 0.72891
vn -0.530071 0 0.847953
vn -0.43791 0 0.899019
vn -0.242395 0 0.970178
vn -0.138999 0 0.990293
vn 0.055902 0 0.998436
vn 0.147201 0 0.989107
vn 0.236601 0 0.971607
vn 0.236601 0 0.971607
vn 0.503789 0.780483 -0.370192
vn 0.503789 0.780483 -0.370192
vn 0.458197 0.792294 -0.402897
vn 0.410995 0.801489 -0.434394
vn 0.308401 0.814502 -0.491401
vn 0.2529 0.8179 -0.5168
vn 0.138504 0.817919 -0.558413
vn 0.079699 0.814483 -0.574688
vn -0.0356 0.801516 -0.596912
vn -0.091997 0.792279 -0.603184
vn -0.147989 0.780445 -0.607457
vn -0.147989 0.780445 -0.607457
vn -0.55801 0.721413 0.410107
vn -0.55801 0.721413 0.410107
vn -0.509012 0.734917 0.448111
vn -0.457801 0.745502 0.484401
vn -0.344994 0.760586 0.54999
vn -0.2831 0.7646 0.579
vn -0.155302 0.764607 0.625506
vn -0.089297 0.760576 0.643079
vn 0.039301 0.745523 0.66532
vn 0.101898 0.734888 0.670489
vn 0.163894 0.721373 0.672875
vn 0.163894 0.721373 0.672875
vn 0.554677 0 -0.832066
vn 0.554677 0 -0.832066
vn 0.476686 0 -0.879074
vn 0.394004 0 -0.919109
vn 0.208102 0 -0.978107
vn 0.103998 0 -0.994578
vn -0.103997 0 -0.994578
vn -0.208101 0 -0.978107
vn -0.394004 0 -0.919109
vn -0.476686 0 -0.879074
vn -0.554677 0 -0.832066
vn -0.554677 0 -0.832066
vn -0.34679 0.780477 0.520185
vn -0.34679 0.780477 0.520185
vn -0.292782 0.792251 0.535367
vn -0.237596 0.801485 0.54879
vn -0.121697 0.81448 0.567286
vn -0.060802 0.817918 0.572113
vn 0.060801 0.817918 0.572113
vn 0.121697 0.81448 0.567286
vn 0.237595 0.801485 0.54879
vn 0.292782 0.792251 0.535367
vn 0.34679 0.780477 0.520185
vn 0.34679 0.780477 0.520185
vn 0.384108 0.721416 -0.576212
vn 0.384108 0.721416 -0.576212
vn 0.325095 0.734889 -0.595191
vn 0.264513 0.745535 -0.611728
vn 0.136002 0.760608 -0.634807
vn 0.068001 0.764604 -0.640903
vn -0.068 0.764604 -0.640903
vn -0.136001 0.760608 -0.634807
vn -0.264512 0.745535 -0.611728
vn -0.325095 0.734889 -0.595191
vn -0.384108 0.721416 -0.576213
vn -0.384108 0.721416 -0.576213
vn -0.999903 0 0.013917
vn -0.999903 0 0.013917
vn -0.99513 0 0.098574
vn -0.983117 0 0.182976
vn -0.938172 0 0.34617
vn -0.905221 0 0.424941
vn -0.82062 0 0.571475
vn -0.768877 0 0.639396
vn -0.65002 0 0.759917
vn -0.582932 0 0.812521
vn -0.512003 0 0.858984
vn -0.512003 0 0.858984
vn -0.281388 0.816965 0.503378
vn -0.281388 0.816965 0.503378
vn -0.2366 0.8189 0.5229
vn -0.191195 0.818879 0.541186
vn -0.097103 0.818929 0.56562
vn -0.048599 0.818888 0.571892
vn 0.048599 0.818888 0.571892
vn 0.097104 0.818929 0.56562
vn 0.191195 0.818879 0.541186
vn 0.2366 0.8189 0.5229
vn 0.281411 0.816931 0.503419
vn 0.281411 0.816931 0.503419
vn 0.315086 0.763465 -0.563775
vn 0.315086 0.763465 -0.563775
vn 0.265099 0.765798 -0.585898
vn 0.214194 0.76578 -0.606384
vn 0.108892 0.765747 -0.633856
vn 0.054399 0.765787 -0.640789
vn -0.054399 0.765787 -0.640789
vn -0.108893 0.765747 -0.633856
vn -0.214195 0.76578 -0.606384
vn -0.265099 0.765798 -0.585898
vn -0.315086 0.763465 -0.563774
vn -0.315086 0.763465 -0.563774
vn -0.761989 0 -0.64759
vn -0.761989 0 -0.64759
vn -0.817514 0 -0.575909
vn -0.866713 0 -0.498807
vn -0.940745 0 -0.339116
vn -0.966411 0 -0.257003
vn -0.996031 0 -0.089002
vn -0.999995 0 -0.0031
vn -0.985063 0 0.172194
vn -0.965203 0 0.261501
vn -0.937528 0 0.347911
vn -0.937528 0 0.347911
vn 0.423192 0.831583 0.359693
vn 0.423192 0.831583 0.359693
vn 0.456591 0.829984 0.320394
vn 0.48892 0.826133 0.280111
vn 0.537599 0.820698 0.193499
vn 0.554192 0.819288 0.147098
vn 0.571086 0.81928 0.051399
vn 0.571386 0.820679 0.0021
vn 0.555227 0.82614 -0.096005
vn 0.538604 0.830006 -0.144901
vn 0.520697 0.831595 -0.193199
vn 0.520697 0.831595 -0.193199
vn -0.476113 0.780721 -0.404711
vn -0.476113 0.780721 -0.404711
vn -0.513401 0.778801 -0.3604
vn -0.548989 0.774284 -0.314793
vn -0.602821 0.767827 -0.216907
vn -0.621104 0.766205 -0.164801
vn -0.64001 0.766212 -0.057501
vn -0.640635 0.767842 -0.0023
vn -0.623514 0.774317 0.108003
vn -0.605699 0.778799 0.1631
vn -0.585824 0.780733 0.217409
vn -0.585824 0.780733 0.217409
vn -0.562085 0 0.827079
vn -0.562085 0 0.827079
vn -0.490085 0 0.871675
vn -0.413991 0 0.910281
vn -0.254493 0 0.967075
vn -0.171206 0 0.985235
vn -0.0025 0 0.999997
vn 0.082698 0 0.996575
vn 0.249612 0 0.968346
vn 0.331308 0 0.943523
vn 0.409912 0 0.912125
vn 0.409912 0 0.912125
vn 0.32418 0.81695 -0.476971
vn 0.324206 0.816916 -0.47701
vn 0.281296 0.818889 -0.500293
vn 0.237606 0.818919 -0.522412
vn 0.146102 0.818913 -0.555009
vn 0.098198 0.818888 -0.565491
vn 0.0015 0.818916 -0.573911
vn -0.047499 0.818885 -0.571989
vn -0.143297 0.818881 -0.555787
vn -0.190104 0.818918 -0.541512
vn -0.236394 0.81698 -0.525987
vn -0.236394 0.81698 -0.525987
vn -0.362987 0.763473 0.534181
vn -0.362987 0.763473 0.534181
vn -0.315188 0.765772 0.56058
vn -0.266199 0.765798 0.585399
vn -0.163689 0.76575 0.621959
vn -0.110099 0.765792 0.633594
vn -0.0016 0.765789 0.64309
vn 0.053199 0.765788 0.64089
vn 0.160493 0.765766 0.622772
vn 0.212998 0.76579 0.606792
vn 0.264788 0.763466 0.589073
vn 0.264788 0.763466 0.589073
vn 0.99998 0 0.0063
vn 0.99998 0 0.0063
vn 0.996432 0 -0.084403
vn 0.984552 0 -0.175092
vn 0.938635 0 -0.344913
vn 0.905518 0 -0.424309
vn 0.820189 0 -0.572093
vn 0.768024 0 -0.640421
vn 0.643905 0 -0.765106
vn 0.571272 0 -0.820761
vn 0.49449 0 -0.869183
vn 0.49449 0 -0.869183
vn -0.555389 0.831583 -0.0035
vn -0.555389 0.831583 -0.0035
vn -0.555696 0.829993 0.0481
vn -0.554616 0.826124 0.099603
vn -0.536193 0.82069 0.197398
vn -0.519085 0.819276 0.243593
vn -0.470498 0.819296 0.327699
vn -0.438999 0.820698 0.365699
vn -0.363604 0.82611 0.430505
vn -0.319498 0.829995 0.457197
vn -0.274697 0.831593 0.482696
vn -0.274697 0.831593 0.482696
vn 0.624837 0.780746 0.0039
vn 0.624837 0.780746 0.0039
vn 0.62492 0.778826 -0.053902
vn 0.622886 0.774283 -0.111798
vn 0.60122 0.767826 -0.221308
vn 0.581776 0.766168 -0.272989
vn 0.527295 0.766194 -0.367297
vn 0.49223 0.767847 -0.410025
vn 0.408212 0.774323 -0.483515
vn 0.359121 0.778845 -0.51423
vn 0.30901 0.780727 -0.543119
vn 0.30901 0.780727 -0.543119
vn 0.854362 0 -0.519678
vn 0.854362 0 -0.519678
vn 0.803502 0 -0.595302
vn 0.745503 0 -0.666503
vn 0.601998 0 -0.798498
vn 0.514613 0 -0.857423
vn 0.32599 0 -0.945373
vn 0.224801 0 -0.974405
vn 0.0314 0 -0.999507
vn -0.060498 0 -0.998168
vn -0.151103 0 -0.988518
vn -0.151103 0 -0.988518
vn -0.534171 0.780457 0.324882
vn -0.534171 0.780457 0.324882
vn -0.491577 0.792264 0.361484
vn -0.447298 0.801496 0.396898
vn -0.35 0.814499 0.4627
vn -0.296906 0.817916 0.49281
vn -0.186606 0.817927 0.544218
vn -0.129396 0.814477 0.565584
vn -0.016599 0.801483 0.597787
vn 0.0391 0.792289 0.608892
vn 0.094399 0.780494 0.617995
vn 0.094399 0.780494 0.617995
vn 0.591684 0.72138 -0.35989
vn 0.591684 0.72138 -0.35989
vn 0.546195 0.734894 -0.401997
vn 0.498308 0.745512 -0.442607
vn 0.391604 0.760608 -0.517805
vn 0.332503 0.764606 -0.552105
vn 0.209201 0.764604 -0.609603
vn 0.145002 0.76061 -0.632809
vn 0.0188 0.74552 -0.666218
vn -0.0431 0.734902 -0.676802
vn -0.104598 0.721387 -0.684588
vn -0.104598 0.721387 -0.684588
vn -0.625073 0 0.780567
vn -0.625073 0 0.780567
vn -0.551488 0 0.834183
vn -0.47259 0 0.881282
vn -0.29249 0 0.956269
vn -0.190305 0 0.981725
vn 0.017 0 0.999856
vn 0.122004 0 0.99253
vn 0.312386 0 0.949955
vn 0.3982 0 0.917299
vn 0.480029 0 0.877253
vn 0.480029 0 0.877253
vn 0.39079 0.780481 -0.487988
vn 0.39079 0.780481 -0.487988
vn 0.338292 0.792281 -0.507788
vn 0.284497 0.801493 -0.525995
vn 0.170698 0.814492 -0.554495
vn 0.110503 0.817923 -0.564616
vn -0.010801 0.817928 -0.57522
vn -0.0718 0.814502 -0.575701
vn -0.188898 0.801489 -0.567392
vn -0.244998 0.792291 -0.558794
vn -0.300086 0.780464 -0.548475
vn -0.300086 0.780464 -0.548475
vn -0.432885 0.721375 0.540582
vn -0.432885 0.721375 0.540582
vn -0.3757 0.734899 0.5646
vn -0.3168 0.745501 0.586401
vn -0.190902 0.760609 0.620508
vn -0.123603 0.764621 0.632517
vn 0.0119 0.764598 0.644398
vn 0.080198 0.760575 0.644279
vn 0.210199 0.745496 0.632497
vn 0.272007 0.734918 0.621215
vn 0.332406 0.721413 0.607511
vn 0.332406 0.721413 0.607511
vt 0.9995 0.9995
vt 0.0005 0.9995
vt 0.9995 0.7997
vt 0.0005 0.7997
vt 0.9995 0.5999
vt 0.0005 0.5999
vt 0.9995 0.4001
vt 0.0005 0.4001
vt 0.9995 0.2003
vt 0.0005 0.2003
vt 0.9995 0.0005
vt 0.0005 0.0005
vt 0.9995 0.9995
vt 0.0005 0.9995
vt 0.9995 0.7997
vt 0.0005 0.7997
vt 0.9995 0.5999
vt 0.0005 0.5999
vt 0.9995 0.4001
vt 0.0005 0.4001
vt 0.9995 0.2003
vt 0.0005 0.2003
vt 0.9995 0.0005
vt 0.0005 0.0005
vt 0.9995 0.9995
vt 0.0005 0.9995
vt 0.9995 0.7997
vt 0.0005 0.7997
vt 0.9995 0.5999
vt 0.0005 0.5999
vt 0.9995 0.4001
vt 0.0005 0.4001
vt 0.9995 0.2003
vt 0.0005 0.2003
vt 0.9995 0.0005
vt 0.0005 0.0005
vt 0.9995 0.9995
vt 0.0005 0.9995
vt 0.9995 0.7997
vt 0.0005 0.7997
vt 0.9995 0.5999
vt 0.0005 0.5999
vt 0.9995 0.4001
vt 0.0005 0.4001
vt 0.9995 0.2003
vt 0.0005 0.2003
vt 0.9995 0.0005
vt 0.0005 0.0005
vt 0.9995 0.9995
vt 0.0005 0.9995
vt 0.9995 0.7997
vt 0.0005 0.7997
vt 0.9995 0.5999
vt 0.0005 0.5999
vt 0.9995 0.4001
vt 0.0005 0.4001
vt 0.9995 0.2003
vt 0.0005 0.2003
vt 0.9995 0.0005
vt 0.0005 0.0005
vt 0.9995 0.9995
vt 0.0005 0.9995
vt 0.9995 0.7997
vt 0.0005 0.7997
vt 0.9995 0.5999
vt 0.0005 0.5999
vt 0.9995 0.4001
vt 0.0005 0.4001
vt 0.9995 0.2003
vt 0.0005 0.2003
vt 0.9995 0.0005
vt 0.0005 0.0005
vt 0.9995 0.9995
vt 0.0005 0.9995
vt 0.9995 0.7997
vt 0.0005 0.7997
vt 0.9995 0.5999
vt 0.0005 0.5999
vt 0.9995 0.4001
vt 0.0005 0.4001
vt 0.9995 0.2003
vt 0.0005 0.2003
vt 0.9995 0.0005
vt 0.0005 0.0005
vt 0.9995 0.9995
vt 0.0005 0.9995
vt 0.9995 0.7997
vt 0.0005 0.7997
vt 0.9995 0.5999
vt 0.0005 0.5999
vt 0.9995 0.4001
vt 0.0005 0.4001
vt 0.9995 0.2003
vt 0.0005 0.2003
vt 0.9995 0.0005
vt 0.0005 0.0005
vt 0.9995 0.9995
vt 0.0005 0.9995
vt 0.9995 0.7997
vt 0.0005 0.7997
vt 0.9995 0.5999
vt 0.0005 0.5999
vt 0.9995 0.4001
vt 0.0005 0.4001
vt 0.9995 0.2003
vt 0.0005 0.2003
vt 0.9995 0.0005
vt 0.0005 0.0005
vt 0.9995 0.9995
vt 0.0005 0.9995
vt 0.9995 0.7997
vt 0.0005 0.7997
vt 0.9995 0.5999
vt 0.0005 0.5999
vt 0.9995 0.4001
vt 0.0005 0.4001
vt 0.9995 0.2003
vt 0.0005 0.2003
vt 0.9995 0.0005
vt 0.0005 0.0005
vt 0.9995 0.9995
vt 0.0005 0.9995
vt 0.9995 0.7997
vt 0.0005 0.7997
vt 0.9995 0.5999
vt 0.0005 0.5999
vt 0.9995 0.4001
vt 0.0005 0.4001
vt 0.9995 0.2003
vt 0.0005 0.2003
vt 0.9995 0.0005
vt 0.0005 0.0005
vt 0.9995 0.9995
vt 0.0005 0.9995
vt 0.9995 0.7997
vt 0.0005 0.7997
vt 0.9995 0.5999
vt 0.0005 0.5999
vt 0.9995 0.4001
vt 0.0005 0.4001
vt 0.9995 0.2003
vt 0.0005 0.2003
vt 0.9995 0.0005
vt 0.0005 0.0005
vt 0.9995 0.9995
vt 0.0005 0.9995
vt 0.9995 0.7997
vt 0.0005 0.7997
vt 0.9995 0.5999
vt 0.0005 0.5999
vt 0.9995 0.4001
vt 0.0005 0.4001
vt 0.9995 0.2003
vt 0.0005 0.2003
vt 0.9995 0.0005
vt 0.0005 0.0005
vt 0.9995 0.9995
vt 0.0005 0.9995
vt 0.9995 0.7997
vt 0.0005 0.7997
vt 0.9995 0.5999
vt 0.0005 0.5999
vt 0.9995 0.4001
vt 0.0005 0.4001
vt 0.9995 0.2003
vt 0.0005 0.2003
vt 0.9995 0.0005
vt 0.0005 0.0005
vt 0.9995 0.9995
vt 0.0005 0.9995
vt 0.9995 0.7997
vt 0.0005 0.7997
vt 0.9995 0.5999
vt 0.0005 0.5999
vt 0.9995 0.4001
vt 0.0005 0.4001
vt 0.9995 0.2003
vt 0.0005 0.2003
vt 0.9995 0.0005
vt 0.0005 0.0005
vt 0.9995 0.9995
vt 0.0005 0.9995
vt 0.9995 0.7997
vt 0.0005 0.7997
vt 0.9995 0.5999
vt 0.0005 0.5999
vt 0.9995 0.4001
vt 0.0005 0.4001
vt 0.9995 0.2003
vt 0.0005 0.2003
vt 0.9995 0.0005
vt 0.0005 0.0005
vt 0.9995 0.9995
vt 0.0005 0.9995
vt 0.9995 0.7997
vt 0.0005 0.7997
vt 0.9995 0.5999
vt 0.0005 0.5999
vt 0.9995 0.4001
vt 0.0005 0.4001
vt 0.9995 0.2003
vt 0.0005 0.2003
vt 0.9995 0.0005
vt 0.0005 0.0005
vt 0.9995 0.9995
vt 0.0005 0.9995
vt 0.9995 0.7997
vt 0.0005 0.7997
vt 0.9995 0.5999
vt 0.0005 0.5999
vt 0.9995 0.4001
vt 0.0005 0.4001
vt 0.9995 0.2003
vt 0.0005 0.2003
vt 0.9995 0.0005
vt 0.0005 0.0005
vt 0.9995 0.9995
vt 0.0005 0.9995
vt 0.9995 0.7997
vt 0.0005 0.7997
vt 0.9995 0.5999
vt 0.0005 0.5999
vt 0.9995 0.4001
vt 0.0005 0.4001
vt 0.9995 0.2003
vt 0.0005 0.2003
vt 0.9995 0.0005
vt 0.0005 0.0005
vt 0.9995 0.9995
vt 0.0005 0.9995
vt 0.9995 0.7997
vt 0.0005 0.7997
vt 0.9995 0.5999
vt 0.0005 0.5999
vt 0.9995 0.4001
vt 0.0005 0.4001
vt 0.9995 0.2003
vt 0.0005 0.2003
vt 0.9995 0.0005
vt 0.0005 0.0005
vt 0.9995 0.9995
vt 0.0005 0.9995
vt 0.9995 0.7997
vt 0.0005 0.7997
vt 0.9995 0.5999
vt 0.0005 0.5999
vt 0.9995 0.4001
vt 0.0005 0.4001
vt 0.9995 0.2003
vt 0.0005 0.2003
vt 0.9995 0.0005
vt 0.0005 0.0005
vt 0.9995 0.9995
vt 0.0005 0.9995
vt 0.9995 0.7997
vt 0.0005 0.7997
vt 0.9995 0.5999
vt 0.0005 0.5999
vt 0.9995 0.4001
vt 0.0005 0.4001
vt 0.9995 0.2003
vt 0.0005 0.2003
vt 0.9995 0.0005
vt 0.0005 0.0005
vt 0.9995 0.9995
vt 0.0005 0.9995
vt 0.9995 0.7997
vt 0.0005 0.7997
vt 0.9995 0.5999
vt 0.0005 0.5999
vt 0.9995 0.4001
vt 0.0005 0.4001
vt 0.9995 0.2003
vt 0.0005 0.2003
vt 0.9995 0.0005
vt 0.0005 0.0005
vt 0.9995 0.9995
vt 0.0005 0.9995
vt 0.9995 0.7997
vt 0.0005 0.7997
vt 0.9995 0.5999
vt 0.0005 0.5999
vt 0.9995 0.4001
vt 0.0005 0.4001
vt 0.9995 0.2003
vt 0.0005 0.2003
vt 0.9995 0.0005
vt 0.0005 0.0005
vt 0.9995 0.9995
vt 0.0005 0.9995
vt 0.9995 0.7997
vt 0.0005 0.7997
vt 0.9995 0.5999
vt 0.0005 0.5999
vt 0.9995 0.4001
vt 0.0005 0.4001
vt 0.9995 0.2003
vt 0.0005 0.2003
vt 0.9995 0.0005
vt 0.0005 0.0005
vt 0.9995 0.9995
vt 0.0005 0.9995
vt 0.9995 0.7997
vt 0.0005 0.7997
vt 0.9995 0.5999
vt 0.0005 0.5999
vt 0.9995 0.4001
vt 0.0005 0.4001
vt 0.9995 0.2003
vt 0.0005 0.2003
vt 0.9995 0.0005
vt 0.0005 0.0005
vt 0.9995 0.9995
vt 0.0005 0.9995
vt 0.9995 0.7997
vt 0.0005 0.7997
vt 0.9995 0.5999
vt 0.0005 0.5999
vt 0.9995 0.4001
vt 0.0005 0.4001
vt 0.9995 0.2003
vt 0.0005 0.2003
vt 0.9995 0.0005
vt 0.0005 0.0005
vt 0.9995 0.9995
vt 0.0005 0.9995
vt 0.9995 0.7997
vt 0.0005 0.7997
vt 0.9995 0.5999
vt 0.0005 0.5999
vt 0.9995 0.4001
vt 0.0005 0.4001
vt 0.9995 0.2003
vt 0.0005 0.2003
vt 0.9995 0.0005
vt 0.0005 0.0005
vt 0.9995 0.9995
vt 0.0005 0.9995
vt 0.9995 0.7997
vt 0.0005 0.7997
vt 0.9995 0.5999
vt 0.0005 0.5999
vt 0.9995 0.4001
vt 0.0005 0.4001
vt 0.9995 0.2003
vt 0.0005 0.2003
vt 0.9995 0.0005
vt 0.0005 0.0005
vt 0.9995 0.9995
vt 0.0005 0.9995
vt 0.9995 0.7997
vt 0.0005 0.7997
vt 0.9995 0.5999
vt 0.0005 0.5999
vt 0.9995 0.4001
vt 0.0005 0.4001
vt 0.9995 0.2003
vt 0.0005 0.2003
vt 0.9995 0.0005
vt 0.0005 0.0005
vt 0.9995 0.9995
vt 0.0005 0.9995
vt 0.9995 0.7997
vt 0.0005 0.7997
vt 0.9995 0.5999
vt 0.0005 0.5999
vt 0.9995 0.4001
vt 0.0005 0.4001
vt 0.9995 0.2003
vt 0.0005 0.2003
vt 0.9995 0.0005
vt 0.0005 0.0005
vt 0.9995 0.9995
vt 0.0005 0.9995
vt 0.9995 0.7997
vt 0.0005 0.7997
vt 0.9995 0.5999
vt 0.0005 0.5999
vt 0.9995 0.4001
vt 0.0005 0.4001
vt 0.9995 0.2003
vt 0.0005 0.2003
vt 0.9995 0.0005
vt 0.0005 0.0005
vt 0.9995 0.9995
vt 0.0005 0.9995
vt 0.9995 0.7997
vt 0.0005 0.7997
vt 0.9995 0.5999
vt 0.0005 0.5999
vt 0.9995 0.4001
vt 0.0005 0.4001
vt 0.9995 0.2003
vt 0.0005 0.2003
vt 0.9995 0.0005
vt 0.0005 0.0005
vt 0.9995 0.9995
vt 0.0005 0.9995
vt 0.9995 0.7997
vt 0.0005 0.7997
vt 0.9995 0.5999
vt 0.0005 0.5999
vt 0.9995 0.4001
vt 0.0005 0.4001
vt 0.9995 0.2003
vt 0.0005 0.2003
vt 0.9995 0.0005
vt 0.0005 0.0005
vt 0.9995 0.9995
vt 0.0005 0.9995
vt 0.9995 0.7997
vt 0.0005 0.7997
vt 0.9995 0.5999
vt 0.0005 0.5999
vt 0.9995 0.4001
vt 0.0005 0.4001
vt 0.9995 0.2003
vt 0.0005 0.2003
vt 0.9995 0.0005
vt 0.0005 0.0005
vt 0.9995 0.9995
vt 0.0005 0.9995
vt 0.9995 0.7997
vt 0.0005 0.7997
vt 0.9995 0.5999
vt 0.0005 0.5999
vt 0.9995 0.4001
vt 0.0005 0.4001
vt 0.9995 0.2003
vt 0.0005 0.2003
vt 0.9995 0.0005
vt 0.0005 0.0005
vt 0.9995 0.9995
vt 0.0005 0.9995
vt 0.9995 0.7997
vt 0.0005 0.7997
vt 0.9995 0.5999
vt 0.0005 0.5999
vt 0.9995 0.4001
vt 0.0005 0.4001
vt 0.9995 0.2003
vt 0.0005 0.2003
vt 0.9995 0.0005
vt 0.0005 0.0005
vt 0.9995 0.9995
vt 0.0005 0.9995
vt 0.9995 0.7997
vt 0.0005 0.7997
vt 0.9995 0.5999
vt 0.0005 0.5999
vt 0.9995 0.4001
vt 0.0005 0.4001
vt 0.9995 0.2003
vt 0.0005 0.2003
vt 0.9995 0.0005
vt 0.0005 0.0005
vt 0.9995 0.9995
vt 0.0005 0.9995
vt 0.9995 0.7997
vt 0.0005 0.7997
vt 0.9995 0.5999
vt 0.0005 0.5999
vt 0.9995 0.4001
vt 0.0005 0.4001
vt 0.9995 0.2003
vt 0.0005 0.2003
vt 0.9995 0.0005
vt 0.0005 0.0005
vt 0.9995 0.9995
vt 0.0005 0.9995
vt 0.9995 0.7997
vt 0.0005 0.7997
vt 0.9995 0.5999
vt 0.0005 0.5999
vt 0.9995 0.4001
vt 0.0005 0.4001
vt 0.9995 0.2003
vt 0.0005 0.2003
vt 0.9995 0.0005
vt 0.0005 0.0005
vt 0.9995 0.9995
vt 0.0005 0.9995
vt 0.9995 0.7997
vt 0.0005 0.7997
vt 0.9995 0.5999
vt 0.0005 0.5999
vt 0.9995 0.4001
vt 0.0005 0.4001
vt 0.9995 0.2003
vt 0.0005 0.2003
vt 0.9995 0.0005
vt 0.0005 0.0005
vt 0.9995 0.9995
vt 0.0005 0.9995
vt 0.9995 0.7997
vt 0.0005 0.7997
vt 0.9995 0.5999
vt 0.0005 0.5999
vt 0.9995 0.4001
vt 0.0005 0.4001
vt 0.9995 0.2003
vt 0.0005 0.2003
vt 0.9995 0.0005
vt 0.0005 0.0005
vt 0.9995 0.9995
vt 0.0005 0.9995
vt 0.9995 0.7997
vt 0.0005 0.7997
vt 0.9995 0.5999
vt 0.0005 0.5999
vt 0.9995 0.4001
vt 0.0005 0.4001
vt 0.9995 0.2003
vt 0.0005 0.2003
vt 0.9995 0.0005
vt 0.0005 0.0005
vt 0.9995 0.9995
vt 0.0005 0.9995
vt 0.9995 0.7997
vt 0.0005 0.7997
vt 0.9995 0.5999
vt 0.0005 0.5999
vt 0.9995 0.4001
vt 0.0005 0.4001
vt 0.9995 0.2003
vt 0.0005 0.2003
vt 0.9995 0.0005
vt 0.0005 0.0005
vt 0.9995 0.9995
vt 0.0005 0.9995
vt 0.9995 0.7997
vt 0.0005 0.7997
vt 0.9995 0.5999
vt 0.0005 0.5999
vt 0.9995 0.4001
vt 0.0005 0.4001
vt 0.9995 0.2003
vt 0.0005 0.2003
vt 0.9995 0.0005
vt 0.0005 0.0005
vt 0.9995 0.9995
vt 0.0005 0.9995
vt 0.9995 0.7997
vt 0.0005 0.7997
vt 0.9995 0.5999
vt 0.0005 0.5999
vt 0.9995 0.4001
vt 0.0005 0.4001
vt 0.9995 0.2003
vt 0.0005 0.2003
vt 0.9995 0.0005
vt 0.0005 0.0005
vt 0.9995 0.9995
vt 0.0005 0.9995
vt 0.9995 0.7997
vt 0.0005 0.7997
vt 0.9995 0.5999
vt 0.0005 0.5999
vt 0.9995 0.4001
vt 0.0005 0.4001
vt 0.9995 0.2003
vt 0.0005 0.2003
vt 0.9995 0.0005
vt 0.0005 0.0005
vt 0.9995 0.9995
vt 0.0005 0.9995
vt 0.9995 0.7997
vt 0.0005 0.7997
vt 0.9995 0.5999
vt 0.0005 0.5999
vt 0.9995 0.4001
vt 0.0005 0.4001
vt 0.9995 0.2003
vt 0.0005 0.2003
vt 0.9995 0.0005
vt 0.0005 0.0005
vt 0.9995 0.9995
vt 0.0005 0.9995
vt 0.9995 0.7997
vt 0.0005 0.7997
vt 0.9995 0.5999
vt 0.0005 0.5999
vt 0.9995 0.4001
vt 0.0005 0.4001
vt 0.9995 0.2003
vt 0.0005 0.2003
vt 0.9995 0.0005
vt 0.0005 0.0005
vt 0.9995 0.9995
vt 0.0005 0.9995
vt 0.9995 0.7997
vt 0.0005 0.7997
vt 0.9995 0.5999
vt 0.0005 0.5999
vt 0.9995 0.4001
vt 0.0005 0.4001
vt 0.9995 0.2003
vt 0.0005 0.2003
vt 0.9995 0.0005
vt 0.0005 0.0005
vt 0.9995 0.9995
vt 0.0005 0.9995
vt 0.9995 0.7997
vt 0.0005 0.7997
vt 0.9995 0.5999
vt 0.0005 0.5999
vt 0.9995 0.4001
vt 0.0005 0.4001
vt 0.9995 0.2003
vt 0.0005 0.2003
vt 0.9995 0.0005
vt 0.0005 0.0005
vt 0.9995 0.9995
vt 0.0005 0.9995
vt 0.9995 0.7997
vt 0.0005 0.7997
vt 0.9995 0.5999
vt 0.0005 0.5999
vt 0.9995 0.4001
vt 0.0005 0.4001
vt 0.9995 0.2003
vt 0.0005 0.2003
vt 0.9995 0.0005
vt 0.0005 0.0005
vt 0.9995 0.9995
vt 0.0005 0.9995
vt 0.9995 0.7997
vt 0.0005 0.7997
vt 0.9995 0.5999
vt 0.0005 0.5999
vt 0.9995 0.4001
vt 0.0005 0.4001
vt 0.9995 0.2003
vt 0.0005 0.2003
vt 0.9995 0.0005
vt 0.0005 0.0005
vt 0.9995 0.9995
vt 0.0005 0.9995
vt 0.9995 0.7997
vt 0.0005 0.7997
vt 0.9995 0.5999
vt 0.0005 0.5999
vt 0.9995 0.4001
vt 0.0005 0.4001
vt 0.9995 0.2003
vt 0.0005 0.2003
vt 0.9995 0.0005
vt 0.0005 0.0005
f 1/1/1 3/3/3 2/2/2
f 4/4/4 2/2/2 3/3/3
f 3/3/3 5/5/5 4/4/4
f 6/6/6 4/4/4 5/5/5
f 5/5/5 7/7/7 6/6/6
f 8/8/8 6/6/6 7/7/7
f 7/7/7 9/9/9 8/8/8
f 10/10/10 8/8/8 9/9/9
f 9/9/9 11/11/11 10/10/10
f 12/12/12 10/10/10 11/11/11
f 13/13/13 15/15/15 14/14/14
f 16/16/16 14/14/14 15/15/15
f 15/15/15 17/17/17 16/16/16
f 18/18/18 16/16/16 17/17/17
f 17/17/17 19/19/19 18/18/18
f 20/20/20 18/18/18 19/19/19
f 19/19/19 21/21/21 20/20/20
f 22/22/22 20/20/20 21/21/21
f 21/21/21 23/23/23 22/22/22
f 24/24/24 22/22/22 23/23/23
f 25/25/25 27/27/27 26/26/26
f 28/28/28 26/26/26 27/27/27
f 27/27/27 29/29/29 28/28/28
f 30/30/30 28/28/28 29/29/29
f 29/29/29 31/31/31 30/30/30
f 32/32/32 30/30/30 31/31/31
f 31/31/31 33/33/33 32/32/32
f 34/34/34 32/32/32 33/33/33
f 33/33/33 35/35/35 34/34/34
f 36/36/36 34/34/34 35/35/35
f 37/37/37 39/39/39 38/38/38
f 40/40/40 38/38/38 39/39/39
f 39/39/39 41/41/41 40/40/40
f 42/42/42 40/40/40 41/41/41
f 41/41/41 43/43/43 42/42/42
f 44/44/44 42/42/42 43/43/43
f 43/43/43 45/45/45 44/44/44
f 46/46/46 44/44/44 45/45/45
f 45/45/45 47/47/47 46/46/46
f 48/48/48 46/46/46 47/47/47
f 49/49/49 51/51/51 50/50/50
f 52/52/52 50/50/50 51/51/51
f 51/51/51 53/53/53 52/52/52
f 54/54/54 52/52/52 53/53/53
f 53/53/53 55/55/55 54/54/54
f 56/56/56 54/54/54 55/55/55
f 55/55/55 57/57/57 56/56/56
f 58/58/58 56/56/56 57/57/57
f 57/57/57 59/59/59 58/58/58
f 60/60/60 58/58/58 59/59/59
f 61/61/61 63/63/63 62/62/62
f 64/64/64 62/62/62 63/63/63
f 63/63/63 65/65/65 64/64/64
f 66/66/66 64/64/64 65/65/65
f 65/65/65 67/67/67 66/66/66
f 68/68/68 66/66/66 67/67/67
f 67/67/67 69/69/69 68/68/68
f 70/70/70 68/68/68 69/69/69
f 69/69/69 71/71/71 70/70/70
f 72/72/72 70/70/70 71/71/71
f 73/73/73 75/75/75 74/74/74
f 76/76/76 74/74/74 75/75/75
f 75/75/75 77/77/77 76/76/76
f 78/78/78 76/76/76 77/77/77
f 77/77/77 79/79/79 78/78/78
f 80/80/80 78/78/78 79/79/79
f 79/79/79 81/81/81 80/80/80
f 82/82/82 80/80/80 81/81/81
f 81/81/81 83/83/83 82/82/82
f 84/84/84 82/82/82 83/83/83
f 85/85/85 87/87/87 86/86/86
f 88/88/88 86/86/86 87/87/87
f 87/87/87 89/89/89 88/88/88
f 90/90/90 88/88/88 89/89/89
f 89/89/89 91/91/91 90/90/90
f 92/92/92 90/90/90 91/91/91
f 91/91/91 93/93/93 92/92/92
f 94/94/94 92/92/92 93/93/93
f 93/93/93 95/95/95 94/94/94
f 96/96/96 94/94/94 95/95/95
f 97/97/97 99/99/99 98/98/98
f 100/100/100 98/98/98 99/99/99
f 99/99/99 101/101/101 100/100/100
f 102/102/102 100/100/100 101/101/101
f 101/101/101 103/103/103 102/102/102
f 104/104/104 102/102/102 103/103/103
f 103/103/103 105/105/105 104/104/104
f 106/106/106 104/104/104 105/105/105
f 105/105/105 107/107/107 106/106/106
f 108/108/108 106/106/106 107/107/107
f 109/109/109 111/111/111 110/110/110
f 112/112/112 110/110/110 111/111/111
f 111/111/111 113/113/113 112/112/112
f 114/114/114 112/112/112 113/113/113
f 113/113/113 115/115/115 114/114/114
f 116/116/116 114/114/114 115/115/115
f 115/115/115 117/117/117 116/116/116
f 118/118/118 116/116/116 117/117/117
f 117/117/117 119/119/119 118/118/118
f 120/120/120 118/118/118 119/119/119
f 121/121/121 123/123/123 122/122/122
f 124/124/124 122/122/122 123/123/123
f 123/123/123 125/125/125 124/124/124
f 126/126/126 124/124/124 125/125/125
f 125/125/125 127/127/127 126/126/126
f 128/128/128 126/126/126 127/127/127
f 127/127/127 129/129/129 128/128/128
f 130/130/130 128/128/128 129/129/129
f 129/129/129 131/131/131 130/130/130
f 132/132/132 130/130/130 131/131/131
f 133/133/133 135/135/135 134/134/134
f 136/136/136 134/134/134 135/135/135
f 135/135/135 137/137/137 136/136/136
f 138/138/138 136/136/136 137/137/137
f 137/137/137 139/139/139 138/138/138
f 140/140/140 138/138/138 139/139/139
f 139/139/139 141/141/141 140/140/140
f 142/142/142 140/140/140 141/141/141
f 141/141/141 143/143/143 142/142/142
f 144/144/144 142/142/142 143/143/143
f 145/145/145 147/147/147 146/146/146
f 148/148/148 146/146/146 147/147/147
f 147/147/147 149/149/149 148/148/148
f 150/150/150 148/148/148 149/149/149
f 149/149/149 151/151/151 150/150/150
f 152/152/152 150/150/150 151/151/151
f 151/151/151 153/153/153 152/152/152
f 154/154/154 152/152/152 153/153/153
f 153/153/153 155/155/155 154/154/154
f 156/156/156 154/154/154 155/155/155
f 157/157/157 159/159/159 158/158/158
f 160/160/160 158/158/158 159/159/159
f 159/159/159 161/161/161 160/160/160
f 162/162/162 160/160/160 161/161/161
f 161/161/161 163/163/163 162/162/162
f 164/164/164 162/162/162 163/163/163
f 163/163/163 165/165/165 164/164/164
f 166/166/166 164/164/164 165/165/165
f 165/165/165 167/167/167 166/166/166
f 168/168/168 166/166/166 167/167/167
f 169/169/169 171/171/171 170/170/170
f 172/172/172 170/170/170 171/171/171
f 171/171/171 173/173/173 172/172/172
f 174/174/174 172/172/172 173/173/173
f 173/173/173 175/175/175 174/174/174
f 176/176/176 174/174/174 175/175/175
f 175/175/175 177/177/177 176/176/176
f 178/178/178 176/176/176 177/177/177
f 177/177/177 179/179/179 178/178/178
f 180/180/180 178/178/178 179/179/179
f 181/181/181 183/183/183 182/182/182
f 184/184/184 182/182/182 183/183/183
f 183/183/183 185/185/185 184/184/184
f 186/186/186 184/184/184 185/185/185
f 185/185/185 187/187/187 186/186/186
f 188/188/188 186/186/186 187/187/187
f 187/187/187 189/189/189 188/188/188
f 190/190/190 188/188/188 189/189/189
f 189/189/189 191/191/191 190/190/190
f 192/192/192 190/190/190 191/191/191
f 193/193/193 195/195/195 194/194/194
f 196/196/196 194/194/194 195/195/195
f 195/195/195 197/197/197 196/196/196
f 198/198/198 196/196/196 197/197/197
f 197/197/197 199/199/199 198/198/198
f 200/200/200 198/198/198 199/199/199
f 199/199/199 201/201/201 200/200/200
f 202/202/202 200/200/200 201/201/201
f 201/201/201 203/203/203 202/202/202
f 204/204/204 202/202/202 203/203/203
f 205/205/205 207/207/207 206/206/206
f 208/208/208 206/206/206 207/207/207
f 207/207/207 209/209/209 208/208/208
f 210/210/210 208/208/208 209/209/209
f 209/209/209 211/211/211 210/210/210
f 212/212/212 210/210/210 211/211/211
f 211/211/211 213/213/213 212/212/212
f 214/214/214 212/212/212 213/213/213
f 213/213/213 215/215/215 214/214/214
f 216/216/216 214/214/214 215/215/215
f 217/217/217 219/219/219 218/218/218
f 220/220/220 218/218/218 219/219/219
f 219/219/219 221/221/221 220/220/220
f 222/222/222 220/220/220 221/221/221
f 221/221/221 223/223/223 222/222/222
f 224/224/224 222/222/222 223/223/223
f 223/223/223 225/225/225 224/224/224
f 226/226/226 224/224/224 225/225/225
f 225/225/225 227/227/227 226/226/226
f 228/228/228 226/226/226 227/227/227
f 229/229/229 231/231/231 230/230/230
f 232/232/232 230/230/230 231/231/231
f 231/231/231 233/233/233 232/232/232
f 234/234/234 232/232/232 233/233/233
f 233/233/233 235/235/235 234/234/234
f 236/236/236 234/234/234 235/235/235
f 235/235/235 237/237/237 236/236/236
f 238/238/238 236/236/236 237/237/237
f 237/237/237 239/239/239 238/238/238
f 240/240/240 238/238/238 239/239/239
f 241/241/241 243/243/243 242/242/242
f 244/244/244 242/242/242 243/243/243
f 243/243/243 245/245/245 244/244/244
f 246/246/246 244/244/244 245/245/245
f 245/245/245 247/247/247 246/246/246
f 248/248/248 246/246/246 247/247/247
f 247/247/247 249/249/249 248/248/248
f 250/250/250 248/248/248 249/249/249
f 249/249/249 251/251/251 250/250/250
f 252/252/252 250/250/250 251/251/251
f 253/253/253 255/255/255 254/254/254
f 256/256/256 254/254/254 255/255/255
f 255/255/255 257/257/257 256/256/256
f 258/258/258 256/256/256 257/257/257
f 257/257/257 259/259/259 258/258/258
f 260/260/260 258/258/258 259/259/259
f 259/259/259 261/261/261 260/260/260
f 262/262/262 260/260/260 261/261/261
f 261/261/261 263/263/263 262/262/262
f 264/264/264 262/262/262 263/263/263
f 265/265/265 267/267/267 266/266/266
f 268/268/268 266/266/266 267/267/267
f 267/267/267 269/269/269 268/268/268
f 270/270/270 268/268/268 269/269/269
f 269/269/269 271/271/271 270/270/270
f 272/272/272 270/270/270 271/271/271
f 271/271/271 273/273/273 272/272/272
f 274/274/274 272/272/272 273/273/273
f 273/273/273 275/275/275 274/274/274
f 276/276/276 274/274/274 275/275/275
f 277/277/277 279/279/279 278/278/278
f 280/280/280 278/278/278 279/279/279
f 279/279/279 281/281/281 280/280/280
f 282/282/282 280/280/280 281/281/281
f 281/281/281 283/283/283 282/282/282
f 284/284/284 282/282/282 283/283/283
f 283/283/283 285/285/285 284/284/284
f 286/286/286 284/284/284 285/285/285
f 285/285/285 287/287/287 286/286/286
f 288/288/288 286/286/286 287/287/287
f 289/289/289 291/291/291 290/290/290
f 292/292/292 290/290/290 291/291/291
f 291/291/291 293/293/293 292/292/292
f 294/294/294 292/292/292 293/293/293
f 293/293/293 295/295/295 294/294/294
f 296/296/296 294/294/294 295/295/295
f 295/295/295 297/297/297 296/296/296
f 298/298/298 296/296/296 297/297/297
f 297/297/297 299/299/299 298/298/298
f 300/300/300 298/298/298 299/299/299
f 301/301/301 303/303/303 302/302/302
f 304/304/304 302/302/302 303/303/303
f 303/303/303 305/305/305 304/304/304
f 306/306/306 304/304/304 305/305/305
f 305/305/305 307/307/307 306/306/306
f 308/308/308 306/306/306 307/307/307
f 307/307/307 309/309/309 308/308/308
f 310/310/310 308/308/308 309/309/309
f 309/309/309 311/311/311 310/310/310
f 312/312/312 310/310/310 311/311/311
f 313/313/313 315/315/315 314/314/314
f 316/316/316 314/314/314 315/315/315
f 315/315/315 317/317/317 316/316/316
f 318/318/318 316/316/316 317/317/317
f 317/317/317 319/319/319 318/318/318
f 320/320/320 318/318/318 319/319/319
f 319/319/319 321/321/321 320/320/320
f 322/322/322 320/320/320 321/321/321
f 321/321/321 323/323/323 322/322/322
f 324/324/324 322/322/322 323/323/323
f 325/325/325 327/327/327 326/326/326
f 328/328/328 326/326/326 327/327/327
f 327/327/327 329/329/329 328/328/328
f 330/330/330 328/328/328 329/329/329
f 329/329/329 331/331/331 330/330/330
f 332/332/332 330/330/330 331/331/331
f 331/331/331 333/333/333 332/332/332
f 334/334/334 332/332/332 333/333/333
f 333/333/333 335/335/335 334/334/334
f 336/336/336 334/334/334 335/335/335
f 337/337/337 339/339/339 338/338/338
f 340/340/340 338/338/338 339/339/339
f 339/339/339 341/341/341 340/340/340
f 342/342/342 340/340/340 341/341/341
f 341/341/341 343/343/343 342/342/342
f 344/344/344 342/342/342 343/343/343
f 343/343/343 345/345/345 344/344/344
f 346/346/346 344/344/344 345/345/345
f 345/345/345 347/347/347 346/346/346
f 348/348/348 346/346/346 347/347/347
f 349/349/349 351/351/351 350/350/350
f 352/352/352 350/350/350 351/351/351
f 351/351/351 353/353/353 352/352/352
f 354/354/354 352/352/352 353/353/353
f 353/353/353 355/355/355 354/354/354
f 356/356/356 354/354/354 355/355/355
f 355/355/355 357/357/357 356/356/356
f 358/358/358 356/356/356 357/357/357
f 357/357/357 359/359/359 358/358/358
f 360/360/360 358/358/358 359/359/359
f 361/361/361 363/363/363 362/362/362
f 364/364/364 362/362/362 363/363/363
f 363/363/363 365/365/365 364/364/364
f 366/366/366 364/364/364 365/365/365
f 365/365/365 367/367/367 366/366/366
f 368/368/368 366/366/366 367/367/367
f 367/367/367 369/369/369 368/368/368
f 370/370/370 368/368/368 369/369/369
f 369/369/369 371/371/371 370/370/370
f 372/372/372 370/370/370 371/371/371
f 373/373/373 375/375/375 374/374/374
f 376/376/376 374/374/374 375/375/375
f 375/375/375 377/377/377 376/376/376
f 378/378/378 376/376/376 377/377/377
f 377/377/377 379/379/379 378/378/378
f 380/380/380 378/378/378 379/379/379
f 379/379/379 381/381/381 380/380/380
f 382/382/382 380/380/380 381/381/381
f 381/381/381 383/383/383 382/382/382
f 384/384/384 382/382/382 383/383/383
f 385/385/385 387/387/387 386/386/386
f 388/388/388 386/386/386 387/387/387
f 387/387/387 389/389/389 388/388/388
f 390/390/390 388/388/388 389/389/389
f 389/389/389 391/391/391 390/390/390
f 392/392/392 390/390/390 391/391/391
f 391/391/391 393/393/393 392/392/392
f 394/394/394 392/392/392 393/393/393
f 393/393/393 395/395/395 394/394/394
f 396/396/396 394/394/394 395/395/395
f 397/397/397 399/399/399 398/398/398
f 400/400/400 398/398/398 399/399/399
f 399/399/399 401/401/401 400/400/400
f 402/402/402 400/400/400 401/401/401
f 401/401/401 403/403/403 402/402/402
f 404/404/404 402/402/402 403/403/403
f 403/403/403 405/405/405 404/404/404
f 406/406/406 404/404/404 405/405/405
f 405/405/405 407/407/407 406/406/406
f 408/408/408 406/406/406 407/407/407
f 409/409/409 411/411/411 410/410/410
f 412/412/412 410/410/410 411/411/411
f 411/411/411 413/413/413 412/412/412
f 414/414/414 412/412/412 413/413/413
f 413/413/413 415/415/415 414/414/414
f 416/416/416 414/414/414 415/415/415
f 415/415/415 417/417/417 416/416/416
f 418/418/418 416/416/416 417/417/417
f 417/417/417 419/419/419 418/418/418
f 420/420/420 418/418/418 419/419/419
f 421/421/421 423/423/423 422/422/422
f 424/424/424 422/422/422 423/423/423
f 423/423/423 425/425/425 424/424/424
f 426/426/426 424/424/424 425/425/425
f 425/425/425 427/427/427 426/426/426
f 428/428/428 426/426/426 427/427/427
f 427/427/427 429/429/429 428/428/428
f 430/430/430 428/428/428 429/429/429
f 429/429/429 431/431/431 430/430/430
f 432/432/432 430/430/430 431/431/431
f 433/433/433 435/435/435 434/434/434
f 436/436/436 434/434/434 435/435/435
f 435/435/435 437/437/437 436/436/436
f 438/438/438 436/436/436 437/437/437
f 437/437/437 439/439/439 438/438/438
f 440/440/440 438/438/438 439/439/439
f 439/439/439 441/441/441 440/440/440
f 442/442/442 440/440/440 441/441/441
f 441/441/441 443/443/443 442/442/442
f 444/444/444 442/442/442 443/443/443
f 445/445/445 447/447/447 446/446/446
f 448/448/448 446/446/446 447/447/447
f 447/447/447 449/449/449 448/448/448
f 450/450/450 448/448/448 449/449/449
f 449/449/449 451/451/451 450/450/450
f 452/452/452 450/450/450 451/451/451
f 451/451/451 453/453/453 452/452/452
f 454/454/454 452/452/452 453/453/453
f 453/453/453 455/455/455 454/454/454
f 456/456/456 454/454/454 455/455/455
f 457/457/457 459/459/459 458/458/458
f 460/460/460 458/458/458 459/459/459
f 459/459/459 461/461/461 460/460/460
f 462/462/462 460/460/460 461/461/461
f 461/461/461 463/463/463 462/462/462
f 464/464/464 462/462/462 463/463/463
f 463/463/463 465/465/465 464/464/464
f 466/466/466 464/464/464 465/465/465
f 465/465/465 467/467/467 466/466/466
f 468/468/468 466/466/466 467/467/467
f 469/469/469 471/471/471 470/470/470
f 472/472/472 470/470/470 471/471/471
f 471/471/471 473/473/473 472/472/472
f 474/474/474 472/472/472 473/473/473
f 473/473/473 475/475/475 474/474/474
f 476/476/476 474/474/474 475/475/475
f 475/475/475 477/477/477 476/476/476
f 478/478/478 476/476/476 477/477/477
f 477/477/477 479/479/479 478/478/478
f 480/480/480 478/478/478 479/479/479
f 481/481/481 483/483/483 482/482/482
f 484/484/484 482/482/482 483/483/483
f 483/483/483 485/485/485 484/484/484
f 486/486/486 484/484/484 485/485/485
f 485/485/485 487/487/487 486/486/486
f 488/488/488 486/486/486 487/487/487
f 487/487/487 489/489/489 488/488/488
f 490/490/490 488/488/488 489/489/489
f 489/489/489 491/491/491 490/490/490
f 492/492/492 490/490/490 491/491/491
f 493/493/493 495/495/495 494/494/494
f 496/496/496 494/494/494 495/495/495
f 495/495/495 497/497/497 496/496/496
f 498/498/498 496/496/496 497/497/497
f 497/497/497 499/499/499 498/498/498
f 500/500/500 498/498/498 499/499/499
f 499/499/499 501/501/501 500/500/500
f 502/502/502 500/500/500 501/501/501
f 501/501/501 503/503/503 502/502/502
f 504/504/504 502/502/502 503/503/503
f 505/505/505 507/507/507 506/506/506
f 508/508/508 506/506/506 507/507/507
f 507/507/507 509/509/509 508/508/508
f 510/510/510 508/508/508 509/509/509
f 509/509/509 511/511/511 510/510/510
f 512/512/512 510/510/510 511/511/511
f 511/511/511 513/513/513 512/512/512
f 514/514/514 512/512/512 513/513/513
f 513/513/513 515/515/515 514/514/514
f 516/516/516 514/514/514 515/515/515
f 517/517/517 519/519/519 518/518/518
f 520/520/520 518/518/518 519/519/519
f 519/519/519 521/521/521 520/520/520
f 522/522/522 520/520/520 521/521/521
f 521/521/521 523/523/523 522/522/522
f 524/524/524 522/522/522 523/523/523
f 523/523/523 525/525/525 524/524/524
f 526/526/526 524/524/524 525/525/525
f 525/525/525 527/527/527 526/526/526
f 528/528/528 526/526/526 527/527/527
f 529/529/529 531/531/531 530/530/530
f 532/532/532 530/530/530 531/531/531
f 531/531/531 533/533/533 532/532/532
f 534/534/534 532/532/532 533/533/533
f 533/533/533 535/535/535 534/534/534
f 536/536/536 534/534/534 535/535/535
f 535/535/535 537/537/537 536/536/536
f 538/538/538 536/536/536 537/537/537
f 537/537/537 539/539/539 538/538/538
f 540/540/540 538/538/538 539/539/539
f 541/541/541 543/543/543 542/542/542
f 544/544/544 542/542/542 543/543/543
f 543/543/543 545/545/545 544/544/544
f 546/546/546 544/544/544 545/545/545
f 545/545/545 547/547/547 546/546/546
f 548/548/548 546/546/546 547/547/547
f 547/547/547 549/549/549 548/548/548
f 550/550/550 548/548/548 549/549/549
f 549/549/549 551/551/551 550/550/550
f 552/552/552 550/550/550 551/551/551
f 553/553/553 555/555/555 554/554/554
f 556/556/556 554/554/554 555/555/555
f 555/555/555 557/557/557 556/556/556
f 558/558/558 556/556/556 557/557/557
f 557/557/557 559/559/559 558/558/558
f 560/560/560 558/558/558 559/559/559
f 559/559/559 561/561/561 560/560/560
f 562/562/562 560/560/560 561/561/561
f 561/561/561 563/563/563 562/562/562
f 564/564/564 562/562/562 563/563/563
f 565/565/565 567/567/567 566/566/566
f 568/568/568 566/566/566 567/567/567
f 567/567/567 569/569/569 568/568/568
f 570/570/570 568/568/568 569/569/569
f 569/569/569 571/571/571 570/570/570
f 572/572/572 570/570/570 571/571/571
f 571/571/571 573/573/573 572/572/572
f 574/574/574 572/572/572 573/573/573
f 573/573/573 575/575/575 574/574/574
f 576/576/576 574/574/574 575/575/575
f 577/577/577 579/579/579 578/578/578
f 580/580/580 578/578/578 579/579/579
f 579/579/579 581/581/581 580/580/580
f 582/582/582 580/580/580 581/581/581
f 581/581/581 583/583/583 582/582/582
f 584/584/584 582/582/582 583/583/583
f 583/583/583 585/585/585 584/584/584
f 586/586/586 584/584/584 585/585/585
f 585/585/585 587/587/587 586/586/586
f 588/588/588 586/586/586 587/587/587
f 589/589/589 591/591/591 590/590/590
f 592/592/592 590/590/590 591/591/591
f 591/591/591 593/593/593 592/592/592
f 594/594/594 592/592/592 593/593/593
f 593/593/593 595/595/595 594/594/594
f 596/596/596 594/594/594 595/595/595
f 595/595/595 597/597/597 596/596/596
f 598/598/598 596/596/596 597/597/597
f 597/597/597 599/599/599 598/598/598
f 600/600/600 598/598/598 599/599/599
f 601/601/601 603/603/603 602/602/602
f 604/604/604 602/602/602 603/603/603
f 603/603/603 605/605/605 604/604/604
f 606/606/606 604/604/604 605/605/605
f 605/605/605 607/607/607 606/606/606
f 608/608/608 606/606/606 607/607/607
f 607/607/607 609/609/609 608/608/608
f 610/610/610 608/608/608 609/609/609
f 609/609/609 611/611/611 610/610/610
f 612/612/612 610/610/610 611/611/611
f 613/613/613 615/615/615 614/614/614
f 616/616/616 614/614/614 615/615/615
f 615/615/615 617/617/617 616/616/616
f 618/618/618 616/616/616 617/617/617
f 617/617/617 619/619/619 618/618/618
f 620/620/620 618/618/618 619/619/619
f 619/619/619 621/621/621 620/620/620
f 622/622/622 620/620/620 621/621/621
f 621/621/621 623/623/623 622/622/622
f 624/624/624 622/622/622 623/623/623
f 625/625/625 627/627/627 626/626/626
f 628/628/628 626/626/626 627/627/627
f 627/627/627 629/629/629 628/628/628
f 630/630/630 628/628/628 629/629/629
f 629/629/629 631/631/631 630/630/630
f 632/632/632 630/630/630 631/631/631
f 631/631/631 633/633/633 632/632/632
f 634/634/634 632/632/632 633/633/633
f 633/633/633 635/635/635 634/634/634
f 636/636/636 634/634/634 635/635/635
f 637/637/637 639/639/639 638/638/638
f 640/640/640 638/638/638 639/639/639
f 639/639/639 641/641/641 640/640/640
f 642/642/642 640/640/640 641/641/641
f 641/641/641 643/643/643 642/642/642
f 644/644/644 642/642/642 643/643/643
f 643/643/643 645/645/645 644/644/644
f 646/646/646 644/644/644 645/645/645
f 645/645/645 647/647/647 646/646/646
f 648/648/648 646/646/646 647/647/647

g ring4
# texture: ring4.jpg
v -199.9626 85.8743 -346.3809
v 0.024717 85.8743 0.007209
v 346.4083 85.8743 -200.0031
v 146.4099 85.8742 -546.4102
v -346.3589 85.8742 200.0175
v -546.3352 85.8742 -146.3515
v 200.0121 85.8742 346.3952
v -146.3825 85.8742 546.3865
v 546.4066 85.8743 146.404
vn 0 1 -0
vn 0 1 -0
vn 0 1 -0
vn 0 1 -0
vn 0 1 -0
vn 0 1 -0
vn 0 1 -0
vn 0 1 -0
vn 0 1 -0
vt 0.0006 0.5
vt 0.5 0.5
vt 0.5 0.9995
vt 0.0005 0.9995
vt 0.5001 0.0005
vt 0.0006 0.0005
vt 0.9995 0.5
vt 0.9995 0.0005
vt 0.9995 0.9995
f 649/649/649 651/651/651 650/650/650
f 651/651/651 649/649/649 652/652/652
f 649/649/649 650/650/650 653/653/653
f 653/653/653 654/654/654 649/649/649
f 655/655/655 653/653/653 650/650/650
f 653/653/653 655/655/655 656/656/656
f 655/655/655 650/650/650 651/651/651
f 651/651/651 657/657/657 655/655/655
