# Inferno01.bmd — MU geometry at action 0 key 8, exported for MU2
# 2 mesh(es)

g ring3
# texture: ring3.jpg
v -116.4619 245.0107 320.8705
v -116.462 139.1934 320.8705
v -197.0731 245.0107 272.8166
v -197.0732 139.1934 272.8165
v -262.9684 245.0108 205.9947
v -262.9684 139.1935 205.9947
v -309.892 245.0108 124.7205
v -309.892 139.1935 124.7205
v -334.8138 245.0108 34.24262
v -334.8138 139.1935 34.2425
v -336.1241 245.0108 -59.59579
v -336.124 139.1935 -59.59573
v -99.18008 161.755 281.1249
v -133.7439 222.4492 360.6161
v -170.3306 161.7549 238.7106
v -223.8157 222.4492 306.9225
v -228.4924 161.755 179.731
v -297.4444 222.4493 232.2584
v -269.9091 161.7549 107.9952
v -349.8751 222.4493 141.4458
v -291.906 161.755 28.13587
v -377.7217 222.4493 40.34928
v -293.0625 161.755 -54.68951
v -379.1858 222.4493 -64.50201
v -100.3005 226.1111 283.7017
v -132.6235 158.0931 358.0393
v -172.0644 226.1111 240.9218
v -222.0819 158.093 304.7114
v -230.7276 226.1111 181.4338
v -295.2092 158.0931 230.5557
v -272.5012 226.1112 109.0795
v -347.2829 158.0931 140.3614
v -294.6878 226.1111 28.5318
v -374.9398 158.0931 39.95331
v -295.8542 226.1111 -55.0075
v -376.394 158.0931 -64.18387
v -250.5642 226.0919 -38.45666
v -250.5642 158.1123 -38.45666
v -227.2563 226.0919 -103.7686
v -227.2563 158.1123 -103.7686
v -185.4124 226.0919 -162.9072
v -185.4124 158.1123 -162.9072
v -129.0388 226.0919 -210.2102
v -129.0388 158.1123 -210.2102
v -63.53259 226.0919 -241.1491
v -63.53259 158.1123 -241.1491
v 4.834564 226.0919 -252.7615
v 4.834442 158.1123 -252.7616
v -219.5274 172.6064 -38.57559
v -281.601 211.5979 -38.33773
v -199.5545 172.6064 -94.54257
v -254.9581 211.5979 -112.9948
v -163.6979 172.6064 -145.2193
v -207.1271 211.5979 -180.595
v -115.3904 172.6064 -185.754
v -142.6873 211.5979 -234.6665
v -59.25705 172.6064 -212.2661
v -67.80823 211.5979 -270.0321
v -0.672211 172.6064 -222.2169
v 10.34109 211.5978 -283.3061
v -221.5396 213.9504 -38.56784
v -279.5887 170.2539 -38.34536
v -201.3505 213.9504 -95.1407
v -253.1621 170.2539 -112.3966
v -165.1057 213.9504 -146.366
v -205.7193 170.2539 -179.4483
v -116.2753 213.9503 -187.3396
v -141.8024 170.2539 -233.081
v -59.53427 213.9503 -214.1386
v -67.53101 170.2539 -268.1596
v -0.315094 213.9503 -224.1972
v 9.984192 170.2539 -281.3258
v 88.04108 245.0107 -329.8187
v 88.04105 139.1934 -329.8188
v 172.5337 245.0107 -288.9733
v 172.5337 139.1934 -288.9733
v 244.0021 245.0107 -228.1489
v 244.0021 139.1934 -228.149
v 297.8307 245.0107 -151.2735
v 297.8307 139.1934 -151.2735
v 330.5433 245.0107 -63.31201
v 330.5433 139.1934 -63.31201
v 340.0271 245.0107 30.05499
v 340.0271 139.1934 30.05499
v 74.289 161.7549 -288.7181
v 101.7932 222.4493 -370.9193
v 148.8654 161.7549 -252.6664
v 196.2018 222.4492 -325.2803
v 211.9462 161.7549 -198.9804
v 276.0579 222.4492 -257.3174
v 259.4575 161.7549 -131.1273
v 336.2039 222.4492 -171.42
v 288.331 161.7549 -53.48892
v 372.7556 222.4492 -73.13513
v 296.7017 161.7549 28.92047
v 383.3525 222.4492 31.18946
v 75.18057 226.1111 -291.3828
v 100.9016 158.0931 -368.2546
v 150.4 226.1111 -255.0203
v 194.6674 158.093 -322.9265
v 214.0246 226.1111 -200.8714
v 273.9796 158.093 -255.4264
v 261.9453 226.1111 -132.4333
v 333.716 158.093 -170.1138
v 291.0677 226.111 -54.12579
v 370.0189 158.093 -72.49832
v 299.5107 226.1111 28.99405
v 380.5435 158.093 31.116
v 166.2612 226.0918 190.7553
v 166.2612 158.1122 190.7553
v 106.4247 226.0919 225.8052
v 106.4247 158.1122 225.8052
v 36.35684 226.0919 244.2112
v 36.35684 158.1122 244.2112
v -37.23367 226.0919 244.2112
v -37.23367 158.1123 244.2112
v -107.3014 226.0919 225.8051
v -107.3014 158.1123 225.8051
v -167.138 226.0919 190.7553
v -167.138 158.1123 190.7552
v 142.4092 172.6063 170.8964
v 190.1132 211.5978 210.6142
v 91.13423 172.6063 200.9312
v 121.715 211.5978 250.6792
v 31.09207 172.6063 216.7037
v 41.6217 211.5978 271.7188
v -31.96881 172.6063 216.7036
v -42.4986 211.5978 271.7188
v -92.01106 172.6063 200.9312
v -122.5919 211.5978 250.6792
v -143.2859 172.6063 170.8963
v -190.9901 211.5978 210.6141
v 143.9556 213.9503 172.1839
v 188.5668 170.2538 209.3268
v 92.12558 213.9503 202.5438
v 120.7237 170.2538 249.0666
v 31.43338 213.9503 218.487
v 41.2803 170.2538 269.9355
v -32.31015 213.9503 218.487
v -42.15726 170.2538 269.9354
v -93.00238 213.9503 202.5438
v -121.6006 170.2539 249.0665
v -144.8324 213.9503 172.1838
v -189.4436 170.2539 209.3266
v 24.32698 229.1529 104.4032
v 24.32698 155.0512 104.4032
v -13.12323 229.153 103.5457
v -13.12323 155.0512 103.5457
v -45.72166 229.153 93.56796
v -45.72176 155.0512 93.56801
v -72.62962 229.153 74.7268
v -72.62971 155.0512 74.72686
v -93.15501 229.153 47.50681
v -93.15501 155.0512 47.50681
v -106.7694 229.153 12.60839
v -106.7694 155.0513 12.60839
v 35.50388 170.8506 78.12376
v 13.15015 213.3536 130.6826
v 0.823227 170.8506 77.3297
v -27.06961 213.3536 129.7617
v -29.36457 170.8506 68.0899
v -62.07887 213.3536 119.0461
v -54.28258 170.8506 50.64203
v -90.97682 213.3536 98.81153
v -73.28993 170.8506 25.43513
v -113.02 213.3536 69.57857
v -85.89755 170.8506 -6.882513
v -127.6413 213.3536 32.0992
v 34.77929 215.9179 79.82752
v 13.87477 168.2862 128.9788
v -0.081001 215.9179 79.02933
v -26.16548 168.2862 128.0621
v -30.42494 215.9179 69.74168
v -61.01835 168.2862 117.3943
v -55.47198 215.918 52.20354
v -89.78728 168.2862 97.25008
v -74.5778 215.918 26.86606
v -111.7321 168.2863 68.14757
v -87.2507 215.9179 -5.618841
v -126.2881 168.2863 30.83562
v 11.80331 229.153 -105.9643
v 11.80339 155.0512 -105.9643
v 46.70176 229.153 -92.34982
v 46.70176 155.0512 -92.34982
v 73.92177 229.153 -71.82454
v 73.92177 155.0512 -71.82454
v 92.76292 229.1529 -44.91652
v 92.76292 155.0512 -44.91652
v 102.7406 229.1529 -12.31801
v 102.7406 155.0512 -12.3181
v 103.598 229.1529 25.13228
v 103.598 155.0512 25.13219
v -7.687561 170.8506 -85.09245
v 31.2942 213.3536 -126.8362
v 24.63004 170.8506 -72.48473
v 68.77348 213.3536 -112.2149
v 49.83699 170.8506 -53.4774
v 98.00647 213.3536 -90.17163
v 67.28481 170.8506 -28.55931
v 118.241 213.3536 -61.27372
v 76.52463 170.8506 1.628344
v 128.9566 213.3536 -26.26443
v 77.31866 170.8506 36.30907
v 129.8774 213.3536 13.95535
v -6.423904 215.918 -86.44554
v 30.03064 168.2863 -125.483
v 26.06099 215.9179 -73.77264
v 67.34253 168.2862 -110.9269
v 51.39845 215.9179 -54.66689
v 96.44501 168.2862 -88.98213
v 68.93656 215.9179 -29.61976
v 116.5892 168.2862 -60.21322
v 78.22426 215.9179 0.724199
v 127.2569 168.2862 -25.3603
v 79.0224 215.9179 35.58442
v 128.1737 168.2862 14.68001
v 279.456 12.2553 196.0532
v 279.4561 118.0726 196.0531
v 317.9262 12.2553 110.453
v 317.9263 118.0726 110.453
v 333.5771 12.2553 17.9197
v 333.5771 118.0726 17.9197
v 325.3977 12.2552 -75.5706
v 325.3977 118.0726 -75.5706
v 293.9165 12.2552 -163.9803
v 293.9165 118.0726 -163.9804
v 241.1663 12.2552 -241.5998
v 241.1664 118.0726 -241.5997
v 242.5023 95.51111 173.4079
v 316.4097 34.8168 218.6984
v 276.4577 95.51111 97.8539
v 359.3948 34.8168 123.0521
v 290.2717 95.51111 16.1804
v 376.8824 34.8168 19.659
v 283.0524 95.51111 -66.3378
v 367.7431 34.8168 -84.8034
v 255.2657 95.51111 -144.3717
v 332.5672 34.8168 -183.589
v 208.7064 95.51111 -212.8816
v 273.6263 34.8168 -270.3179
v 244.8981 31.15491 174.8761
v 314.0139 99.173 217.2302
v 279.1462 31.15491 98.6707
v 356.7063 99.173 122.2352
v 293.0793 31.15491 16.2932
v 374.0748 99.173 19.5463
v 285.7977 31.15491 -66.9364
v 364.9978 99.173 -84.2048
v 257.7716 31.15491 -145.643
v 330.0614 99.173 -182.3177
v 210.8109 31.15491 -214.7435
v 271.5219 99.173 -268.4561
v 183.2046 31.1741 -175.2085
v 183.2046 99.15381 -175.2085
v 126.6505 31.1741 -215.3401
v 126.6505 99.15381 -215.3401
v 58.4535 31.1741 -239.7829
v 58.4535 99.15381 -239.7829
v -14.857 31.1741 -246.1968
v -14.857 99.1537 -246.1968
v -86.2624 31.1741 -233.9675
v -86.2624 99.1537 -233.9675
v -148.9261 31.1741 -204.2661
v -148.926 99.1537 -204.2661
v 157.7125 84.6597 -157.5039
v 208.6967 45.6682 -192.913
v 109.2504 84.6597 -191.8934
v 144.0506 45.6682 -238.7868
v 50.8113 84.6597 -212.8388
v 66.0958 45.6682 -266.727
v -12.0097 84.6597 -218.335
v -17.7044 45.6682 -274.0586
v -73.1981 84.6597 -207.8555
v -99.3267 45.6682 -260.0795
v -126.8956 84.6597 -182.4039
v -170.9565 45.6682 -226.1283
v 159.3652 43.3157 -158.6517
v 207.0439 87.01221 -191.7652
v 110.3785 43.3157 -193.4135
v 142.9225 87.01221 -237.2667
v 51.3068 43.3157 -214.5857
v 65.6003 87.01221 -264.9802
v -12.1943 43.3157 -220.1413
v -17.5198 87.01221 -272.2522
v -74.0451 43.3157 -209.5484
v -98.4797 87.01221 -258.3866
v -128.3239 43.3157 -183.8213
v -169.5282 87.01221 -224.7109
v -261.2831 12.2553 -219.6623
v -261.2831 118.0726 -219.6623
v -307.0675 12.2553 -137.7408
v -307.0675 118.0726 -137.7408
v -330.7235 12.2553 -46.9237
v -330.7235 118.0726 -46.9237
v -330.7235 12.2552 46.9238
v -330.7235 118.0726 46.9238
v -307.0674 12.2552 137.7408
v -307.0674 118.0726 137.7408
v -261.2831 12.2552 219.6624
v -261.2831 118.0726 219.6623
v -226.4437 95.51111 -193.8826
v -296.1225 34.8168 -245.4421
v -266.8548 95.51111 -121.5754
v -347.2801 34.8168 -153.9062
v -287.7346 95.51111 -41.4167
v -373.7125 34.8168 -52.4307
v -287.7346 95.51111 41.4167
v -373.7126 34.8168 52.4308
v -266.8548 95.51111 121.5754
v -347.2802 34.8168 153.9062
v -226.4437 95.51111 193.8826
v -296.1224 34.8168 245.4421
v -228.7024 31.15491 -195.5539
v -293.8637 99.173 -243.7707
v -269.4619 31.15491 -122.6235
v -344.6731 99.173 -152.8581
v -290.5217 31.15491 -41.7738
v -370.9254 99.173 -52.0737
v -290.5216 31.15491 41.7738
v -370.9254 99.173 52.0737
v -269.4619 31.15491 122.6235
v -344.6731 99.173 152.8582
v -228.7024 31.15491 195.5539
v -293.8637 99.173 243.7708
v -26.7684 31.1741 251.6323
v -26.7684 99.15381 251.6323
v 42.3507 31.1741 246.0227
v 42.3507 99.15381 246.0227
v 110.3041 31.1741 220.9108
v 110.3041 99.15381 220.9108
v 170.586 31.1741 178.7009
v 170.586 99.1537 178.7009
v 217.4249 31.1741 123.4343
v 217.4249 99.1537 123.4343
v 246.3363 31.1741 60.4023
v 246.3363 99.1537 60.4023
v -18.6205 84.6597 221.6839
v -34.9162 45.6682 281.5807
v 40.6087 84.6597 216.8769
v 44.0927 45.6682 275.1684
v 98.8391 84.6597 195.3581
v 121.7692 45.6682 246.4635
v 150.4956 84.6597 159.1878
v 190.6764 45.6682 198.2141
v 190.6326 84.6597 111.829
v 244.2172 45.6682 135.0397
v 215.4073 84.6597 57.8158
v 277.2654 45.6682 62.9888
v -19.1488 43.3157 223.6255
v -34.3879 87.01221 279.6391
v 40.7216 43.3157 218.7665
v 43.9798 87.01221 273.2788
v 99.5824 43.3157 197.0148
v 121.0259 87.01221 244.8068
v 151.7981 43.3157 160.4529
v 189.3739 87.01221 196.949
v 192.3696 43.3157 112.5814
v 242.4802 87.01221 134.2873
v 217.4125 43.3157 57.9835
v 275.2602 87.01221 62.8211
v 39.9678 28.1131 99.4866
v 39.9679 102.2148 99.4866
v 70.1535 28.1131 77.3037
v 70.1535 102.2148 77.3037
v 91.1336 28.1131 50.4327
v 91.1336 102.2148 50.4327
v 102.3685 28.11301 19.5651
v 102.3685 102.2148 19.5651
v 103.5691 28.11301 -14.505
v 103.5691 102.2148 -14.505
v 94.7045 28.11301 -50.9011
v 94.7045 102.2148 -50.9011
v 15.739 86.41541 84.3706
v 64.1967 43.9124 114.6027
v 43.6923 86.4155 63.8281
v 96.6146 43.9124 90.7792
v 63.121 86.4155 38.9443
v 119.1463 43.9124 61.9211
v 73.525 86.4155 10.3595
v 131.2121 43.9124 28.7707
v 74.6368 86.4155 -21.191
v 132.5014 43.9124 -7.819
v 66.4277 86.4155 -54.8955
v 122.9812 43.9124 -46.9068
v 17.3098 41.3481 85.3506
v 62.6258 88.9798 113.6227
v 45.4079 41.3481 64.7018
v 94.8991 88.9798 89.9056
v 64.9371 41.3481 39.6892
v 117.3302 88.9798 61.1763
v 75.3949 41.3481 10.9563
v 129.342 88.9798 28.1739
v 76.5125 41.3481 -20.7576
v 130.6256 88.9798 -8.2525
v 68.261 41.3481 -54.6365
v 121.148 88.9798 -47.1657
v -70.4352 28.1131 -80.0197
v -70.4352 102.2148 -80.0197
v -91.2134 28.1131 -48.8504
v -91.2134 102.2148 -48.8504
v -101.7379 28.1131 -16.4243
v -101.7379 102.2148 -16.4243
v -101.7378 28.11301 16.4243
v -101.7378 102.2148 16.4243
v -91.2134 28.11301 48.8504
v -91.2134 102.2148 48.8504
v -70.4352 28.11301 80.0197
v -70.4352 102.2148 80.0197
v -42.4976 86.41541 -74.102
v -98.3728 43.9124 -85.9374
v -61.7391 86.4155 -45.2377
v -120.6876 43.9124 -52.463
v -71.4853 86.4155 -15.2097
v -131.9904 43.9124 -17.639
v -71.4853 86.4155 15.2097
v -131.9904 43.9124 17.6389
v -61.7391 86.4155 45.2377
v -120.6876 43.9124 52.463
v -42.4976 86.4155 74.1019
v -98.3728 43.9124 85.9374
v -44.3088 41.3481 -74.4856
v -96.5616 88.9798 -85.5537
v -63.65 41.3481 -45.472
v -118.7767 88.9798 -52.2288
v -73.4467 41.3481 -15.2884
v -130.0291 88.9798 -17.5602
v -73.4466 41.3481 15.2884
v -130.0291 88.9798 17.5602
v -63.65 41.3481 45.4719
v -118.7767 88.9798 52.2288
v -44.3088 41.3481 74.4856
v -96.5615 88.9798 85.5537
v -200.9954 100.4298 -168.9823
v -200.9955 181.8277 -168.9822
v -236.2142 100.4298 -105.9658
v -236.2142 181.8277 -105.9658
v -254.4113 100.4298 -36.1065
v -254.4113 181.8277 -36.1065
v -254.4113 100.4298 36.08379
v -254.4113 181.8277 36.08379
v -236.2144 100.4298 105.9431
v -236.2143 181.8277 105.9431
v -200.9957 100.4297 168.9597
v -200.9957 181.8277 168.9597
v -174.1959 164.4727 -149.1517
v -227.795 117.7848 -188.8129
v -205.2815 164.4727 -93.53088
v -267.147 117.7848 -118.4007
v -221.3429 164.4727 -31.87029
v -287.4797 117.7848 -40.34272
v -221.3429 164.4727 31.84769
v -287.4798 117.7848 40.31997
v -205.2816 164.4727 93.50822
v -267.1472 117.7848 118.378
v -174.1962 164.4727 149.1291
v -227.7952 117.7848 188.7903
v -175.9334 114.968 -150.4373
v -226.0575 167.2895 -187.5273
v -207.287 114.968 -94.33698
v -265.1417 167.2895 -117.5945
v -223.4868 114.968 -32.14498
v -285.3358 167.2895 -40.068
v -223.4868 114.9679 32.12231
v -285.3358 167.2896 40.0454
v -207.287 114.968 94.31441
v -265.1417 167.2896 117.5718
v -175.9337 114.968 150.4148
v -226.0577 167.2896 187.5046
v -152.1283 114.9827 121.9697
v -152.1283 167.2748 121.9697
v -111.4813 114.9827 156.5144
v -111.4813 167.2748 156.5144
v -60.86035 114.9827 179.8171
v -60.86035 167.2748 179.8171
v -5.112259 114.9827 189.647
v -5.112259 167.2748 189.647
v 50.42575 114.9827 185.0629
v 50.42575 167.2748 185.0629
v 100.4364 114.9827 166.5038
v 100.4364 167.2748 166.5038
v -131.4066 156.1254 110.1117
v -172.8499 126.132 133.8277
v -96.57553 156.1255 139.7137
v -126.3869 126.132 173.315
v -53.19775 156.1255 159.6821
v -68.52306 126.132 199.9521
v -5.426254 156.1255 168.1055
v -4.798264 126.132 211.1885
v 42.16525 156.1255 164.1774
v 58.68633 126.132 205.9485
v 85.02014 156.1255 148.2737
v 115.8527 126.132 184.7339
v -132.75 124.3224 110.8805
v -171.5064 157.9351 133.0589
v -97.54193 124.3224 140.8029
v -125.4205 157.9351 172.2259
v -53.69455 124.3224 160.9875
v -68.02626 157.9351 198.6467
v -5.405853 124.3224 169.5022
v -4.818665 157.9351 209.7919
v 42.70074 124.3224 165.5314
v 58.15085 157.9351 204.5945
v 86.01965 124.3224 149.4556
v 114.8532 157.9351 183.552
v 185.5038 100.4298 185.8348
v 185.5038 181.8277 185.8348
v 226.0808 100.4298 126.1276
v 226.0808 181.8277 126.1276
v 250.2973 100.4298 58.12008
v 250.2973 181.8277 58.12008
v 256.5891 100.4297 -13.79551
v 256.5891 181.8277 -13.79551
v 244.55 100.4297 -84.97491
v 244.55 181.8277 -84.97491
v 214.9576 100.4297 -150.8212
v 214.9576 181.8277 -150.8212
v 160.5346 164.4727 163.744
v 210.473 117.7848 207.9256
v 196.3495 164.4727 111.044
v 255.8121 117.7848 141.2112
v 217.7239 164.4727 51.01798
v 282.8706 117.7848 65.22231
v 223.2773 164.4727 -12.45762
v 289.9009 117.7848 -15.1334
v 212.6511 164.4727 -75.28333
v 276.4489 117.7848 -94.66651
v 186.5317 164.4727 -133.4018
v 243.3834 117.7848 -168.2406
v 162.1534 114.968 165.1761
v 208.8542 167.2896 206.4934
v 198.277 114.968 112.0219
v 253.8846 167.2896 140.2333
v 219.8357 114.968 51.47837
v 280.7589 167.2896 64.76183
v 225.437 114.9679 -12.54433
v 287.7412 167.2896 -15.04673
v 214.7192 114.968 -75.91163
v 274.3808 167.2896 -94.03819
v 188.3746 114.968 -134.5312
v 241.5406 167.2896 -167.1112
v 37.39159 114.9827 -191.0426
v 37.39148 167.2748 -191.0426
v -15.95073 114.9827 -191.3778
v -15.95073 167.2748 -191.3778
v -69.70731 114.9827 -176.6903
v -69.70731 167.2748 -176.6903
v -118.7314 114.9827 -148.3862
v -118.7313 167.2747 -148.3862
v -158.3295 114.9827 -109.1755
v -158.3295 167.2747 -109.1755
v -184.7103 114.9827 -62.81219
v -184.7103 167.2747 -62.81219
v 29.13997 156.1254 -168.6392
v 45.64311 126.132 -213.4459
v -16.56993 156.1255 -168.9265
v -15.33162 126.132 -213.8291
v -62.63473 156.1255 -156.3405
v -76.77983 126.132 -197.04
v -104.6442 156.1255 -132.0863
v -132.8185 126.132 -164.6861
v -138.5765 156.1255 -98.48605
v -178.0823 126.132 -119.865
v -161.1826 156.1255 -58.75646
v -208.2379 126.132 -66.86779
v 29.67497 124.3224 -170.0917
v 45.10811 157.9351 -211.9934
v -16.52974 124.3224 -170.3821
v -15.37172 157.9351 -212.3735
v -63.09323 124.3224 -157.6599
v -76.32133 157.9351 -195.7207
v -105.5575 124.3224 -133.1431
v -131.9052 157.9351 -163.6294
v -139.8571 124.3224 -99.17907
v -176.8018 157.9351 -119.172
v -162.708 124.3224 -59.01946
v -206.7126 157.9351 -66.60485
v -23.94896 112.6281 -78.92701
v -23.94906 169.6294 -78.92701
v -48.56757 112.6281 -63.95183
v -48.56757 169.6294 -63.95183
v -66.44627 112.6281 -44.76714
v -66.44627 169.6294 -44.76714
v -77.12508 112.6281 -21.86634
v -77.12508 169.6294 -21.86634
v -80.32919 112.6281 4.161164
v -80.32919 169.6294 4.161164
v -75.9763 112.6281 32.64596
v -75.9763 169.6294 32.64596
v -6.395771 157.4761 -65.71911
v -41.50225 124.7814 -92.13493
v -29.19377 157.4761 -51.85141
v -67.94136 124.7814 -76.05223
v -45.75028 157.4761 -34.08552
v -87.14227 124.7814 -55.44875
v -55.63929 157.4761 -12.87833
v -98.61078 124.7814 -30.85445
v -58.60649 157.4761 11.22437
v -102.0519 124.7814 -2.902045
v -54.57561 157.4761 37.60257
v -97.37709 124.7814 27.68925
v -7.533871 122.8089 -66.57541
v -40.36416 159.4486 -91.27862
v -30.44987 122.8089 -52.63591
v -66.68536 159.4486 -75.26773
v -47.09198 122.8089 -34.77803
v -85.80046 159.4486 -54.75623
v -57.03228 122.8089 -13.46103
v -97.21778 159.4486 -30.27174
v -60.01489 122.8089 10.76647
v -100.6436 159.4486 -2.444137
v -55.96301 122.8089 37.28127
v -95.98969 159.4486 28.01066
v 48.61848 112.6281 66.03111
v 48.61858 169.6295 66.03111
v 66.63058 112.6281 43.53902
v 66.63058 169.6295 43.53902
v 76.86949 112.6281 19.39642
v 76.86949 169.6295 19.39642
v 79.07182 112.6281 -5.775672
v 79.07182 169.6294 -5.775672
v 73.18081 112.6281 -31.32948
v 73.18081 169.6294 -31.32948
v 59.34803 112.6281 -56.60758
v 59.34803 169.6294 -56.60758
v 27.60658 157.4761 59.6233
v 69.63048 124.7814 72.43893
v 44.28659 157.4761 38.7945
v 88.97459 124.7814 48.28342
v 53.7683 157.4761 16.43741
v 99.9707 124.7814 22.35542
v 55.80771 157.4761 -6.873088
v 102.3359 124.7814 -4.678176
v 50.35241 157.4761 -30.53709
v 96.00921 124.7814 -32.12177
v 37.54263 157.4761 -53.94589
v 81.15353 124.7814 -59.26937
v 28.96889 122.8089 60.0387
v 68.26829 159.4486 72.02342
v 45.73529 122.8089 39.1021
v 87.52599 159.4486 47.97581
v 55.266 122.8089 16.62921
v 98.473 159.4486 22.16352
v 57.31601 122.8089 -6.801986
v 100.8276 159.4486 -4.749366
v 51.83242 122.8089 -30.58848
v 94.52922 159.4486 -32.07037
v 38.95633 122.8089 -54.11839
v 79.73982 159.4486 -59.09678
vn 0.512003 0 -0.858983
vn 0.512003 0 -0.858983
vn 0.582932 0 -0.812521
vn 0.65002 0 -0.759917
vn 0.768878 0 -0.639396
vn 0.82062 0 -0.571474
vn 0.905221 0 -0.424941
vn 0.938172 0 -0.34617
vn 0.983118 0 -0.182975
vn 0.99513 0 -0.098574
vn 0.999903 0 -0.013916
vn 0.999903 0 -0.013916
vn -0.295245 -0.816965 0.495378
vn -0.295269 -0.816931 0.495419
vn -0.334545 -0.8189 0.466351
vn -0.373083 -0.818879 0.436173
vn -0.44129 -0.818929 0.366904
vn -0.470973 -0.818888 0.328034
vn -0.519573 -0.818888 0.243858
vn -0.538393 -0.818929 0.198716
vn -0.564278 -0.818879 0.105013
vn -0.571144 -0.8189 0.056548
vn -0.576679 -0.816931 0.008001
vn -0.576679 -0.816931 0.008001
vn 0.3307 -0.763465 -0.554759
vn 0.3307 -0.763465 -0.554759
vn 0.374853 -0.765798 -0.522532
vn 0.418047 -0.76578 -0.48869
vn 0.494489 -0.765747 -0.411232
vn 0.52774 -0.765787 -0.367506
vn 0.582139 -0.765787 -0.273284
vn 0.603382 -0.765747 -0.222624
vn 0.632241 -0.76578 -0.117694
vn 0.639952 -0.765798 -0.063366
vn 0.645786 -0.763465 -0.009015
vn 0.645786 -0.763465 -0.009015
vn 0.941824 0 0.336107
vn 0.941824 0 0.336107
vn 0.907509 0 0.420033
vn 0.865336 0 0.501192
vn 0.764055 0 0.645151
vn 0.705776 0 0.708435
vn 0.575094 0 0.818087
vn 0.502682 0 0.864471
vn 0.343408 0 0.939187
vn 0.256135 0 0.966641
vn 0.167465 0 0.985878
vn 0.167465 0 0.985878
vn -0.523099 -0.831583 -0.186648
vn -0.523099 -0.831583 -0.186648
vn -0.505765 -0.829984 -0.235223
vn -0.487043 -0.826133 -0.283361
vn -0.436375 -0.820698 -0.368825
vn -0.404487 -0.819288 -0.406396
vn -0.330056 -0.81928 -0.468876
vn -0.287511 -0.820679 -0.493785
vn -0.194471 -0.82614 -0.528843
vn -0.143856 -0.829961 -0.538953
vn -0.093033 -0.831595 -0.547536
vn -0.093033 -0.831595 -0.547536
vn 0.588546 -0.780721 0.20997
vn 0.588546 -0.780721 0.20997
vn 0.568816 -0.778801 0.264418
vn 0.547114 -0.774284 0.318042
vn 0.489258 -0.767827 0.413605
vn 0.453274 -0.766205 0.455492
vn 0.369802 -0.766212 0.525515
vn 0.32231 -0.767842 0.553656
vn 0.218224 -0.774317 0.59398
vn 0.161601 -0.778799 0.606101
vn 0.10463 -0.780733 0.616043
vn 0.10463 -0.780733 0.616043
vn -0.435229 0 0.90032
vn -0.435229 0 0.90032
vn -0.509849 0 0.860264
vn -0.581331 0 0.813667
vn -0.710265 0 0.703935
vn -0.767636 0 0.640886
vn -0.864773 0 0.502164
vn -0.904408 0 0.426669
vn -0.963418 0 0.268003
vn -0.982769 0 0.18484
vn -0.994879 0 0.101069
vn -0.994879 0 0.101069
vn 0.250999 -0.816916 -0.519276
vn 0.250999 -0.816916 -0.519276
vn 0.292619 -0.818889 -0.493756
vn 0.33362 -0.818919 -0.466979
vn 0.407601 -0.818913 -0.404033
vn 0.440631 -0.818888 -0.367788
vn 0.496272 -0.818916 -0.288255
vn 0.519107 -0.818885 -0.244859
vn 0.552974 -0.818881 -0.153795
vn 0.564015 -0.818918 -0.106121
vn 0.573762 -0.816946 -0.058275
vn 0.573762 -0.816946 -0.058275
vn -0.281121 -0.763473 0.581447
vn -0.281121 -0.763473 0.581447
vn -0.327882 -0.765772 0.553251
vn -0.37387 -0.765798 0.523235
vn -0.456788 -0.76575 0.452739
vn -0.493659 -0.765792 0.412145
vn -0.556133 -0.765789 0.322931
vn -0.581626 -0.765788 0.274373
vn -0.619583 -0.765766 0.172395
vn -0.631996 -0.765791 0.118935
vn -0.642547 -0.763466 0.065223
vn -0.642547 -0.763466 0.065223
vn -0.505446 0 -0.862858
vn -0.505446 0 -0.862858
vn -0.425121 0 -0.905137
vn -0.340642 0 -0.940193
vn -0.170614 0 -0.985338
vn -0.085297 0 -0.996356
vn 0.085352 0 -0.996351
vn 0.170608 0 -0.985339
vn 0.340649 0 -0.940191
vn 0.425163 0 -0.905117
vn 0.50549 0 -0.862833
vn 0.50549 0 -0.862833
vn 0.280725 -0.831583 0.479231
vn 0.280725 -0.831583 0.479231
vn 0.236192 -0.829993 0.505296
vn 0.191049 -0.826124 0.530113
vn 0.097145 -0.82069 0.563056
vn 0.048585 -0.819276 0.571337
vn -0.048546 -0.819296 0.571312
vn -0.097205 -0.820698 0.563034
vn -0.191026 -0.82611 0.530143
vn -0.236195 -0.829995 0.505292
vn -0.280678 -0.831593 0.479243
vn -0.280678 -0.831593 0.479243
vn -0.315796 -0.780746 -0.539174
vn -0.315796 -0.780746 -0.539174
vn -0.26578 -0.778826 -0.568148
vn -0.214624 -0.774283 -0.595334
vn -0.108952 -0.767826 -0.631326
vn -0.054473 -0.766168 -0.640327
vn 0.054441 -0.766194 -0.6403
vn 0.108977 -0.767847 -0.631296
vn 0.21463 -0.774323 -0.59528
vn 0.265776 -0.778845 -0.568123
vn 0.315849 -0.780727 -0.53917
vn 0.315849 -0.780727 -0.53917
vn 0.022872 0 -0.999738
vn 0.022872 0 -0.999738
vn 0.113795 0 -0.993504
vn 0.204457 0 -0.978876
vn 0.39052 0 -0.920594
vn 0.485243 0 -0.874379
vn 0.655722 0 -0.755003
vn 0.731459 0 -0.681886
vn 0.849898 0 -0.526947
vn 0.894688 0 -0.446691
vn 0.931633 0 -0.3634
vn 0.931633 0 -0.3634
vn -0.014271 -0.780457 0.625046
vn -0.014271 -0.780457 0.625046
vn -0.067265 -0.792264 0.60646
vn -0.120075 -0.801496 0.585821
vn -0.22571 -0.814499 0.534459
vn -0.278333 -0.817916 0.503533
vn -0.378004 -0.817927 0.433715
vn -0.425112 -0.814476 0.394852
vn -0.509399 -0.801483 0.313269
vn -0.546866 -0.792289 0.270585
vn -0.582399 -0.780494 0.227245
vn -0.582399 -0.780494 0.227245
vn 0.015832 -0.72138 -0.692358
vn 0.015832 -0.72138 -0.692358
vn 0.075042 -0.734894 -0.674018
vn 0.134155 -0.745512 -0.652851
vn 0.252631 -0.760608 -0.598042
vn 0.311885 -0.764606 -0.564008
vn 0.423331 -0.764604 -0.485975
vn 0.475527 -0.76061 -0.44198
vn 0.567561 -0.74552 -0.349391
vn 0.607678 -0.734902 -0.301075
vn 0.645169 -0.721387 -0.251709
vn 0.645169 -0.721387 -0.251709
vn -0.363454 0 0.931612
vn -0.363454 0 0.931612
vn -0.446679 0 0.894694
vn -0.526918 0 0.849916
vn -0.681908 0 0.731438
vn -0.755047 0 0.655671
vn -0.8744 0 0.485206
vn -0.920558 0 0.390607
vn -0.978878 0 0.204444
vn -0.993504 0 0.113799
vn -0.999738 0 0.022909
vn -0.999738 0 0.022909
vn 0.227215 -0.780481 -0.582429
vn 0.227215 -0.780481 -0.582429
vn 0.270611 -0.792281 -0.546864
vn 0.313277 -0.801493 -0.509379
vn 0.394857 -0.814492 -0.425077
vn 0.43372 -0.817923 -0.378006
vn 0.503555 -0.817928 -0.278256
vn 0.534472 -0.814502 -0.22567
vn 0.585825 -0.801489 -0.120106
vn 0.606428 -0.792291 -0.067223
vn 0.625036 -0.780464 -0.014355
vn 0.625036 -0.780464 -0.014355
vn -0.251715 -0.721375 0.64518
vn -0.251715 -0.721375 0.64518
vn -0.301108 -0.734899 0.607665
vn -0.349438 -0.745501 0.567558
vn -0.441924 -0.760609 0.47558
vn -0.485974 -0.764621 0.423302
vn -0.564015 -0.764598 0.311893
vn -0.59806 -0.760575 0.252686
vn -0.652858 -0.745496 0.134211
vn -0.673991 -0.734918 0.075043
vn -0.692323 -0.721413 0.015883
vn -0.692323 -0.721413 0.015883
vn -0.912125 0 -0.409911
vn -0.912125 0 -0.409911
vn -0.943523 0 -0.331308
vn -0.968346 0 -0.249612
vn -0.996575 0 -0.082698
vn -0.999997 0 0.0025
vn -0.985235 0 0.171206
vn -0.967075 0 0.254493
vn -0.910281 0 0.413991
vn -0.871674 0 0.490086
vn -0.827079 0 0.562086
vn -0.827079 0 0.562086
vn 0.525987 0.81698 0.236394
vn 0.52603 0.816946 0.236413
vn 0.541512 0.818918 0.190104
vn 0.555787 0.818881 0.143297
vn 0.571989 0.818885 0.047499
vn 0.573911 0.818916 -0.0015
vn 0.565491 0.818888 -0.098199
vn 0.555009 0.818913 -0.146102
vn 0.522412 0.818919 -0.237606
vn 0.500293 0.818889 -0.281296
vn 0.47701 0.816916 -0.324206
vn 0.47701 0.816916 -0.324206
vn -0.589074 0.763466 -0.264788
vn -0.589074 0.763466 -0.264788
vn -0.606793 0.765791 -0.212997
vn -0.622772 0.765766 -0.160493
vn -0.64089 0.765788 -0.053199
vn -0.64309 0.765789 0.0016
vn -0.633594 0.765792 0.110099
vn -0.621959 0.76575 0.163689
vn -0.585399 0.765798 0.266199
vn -0.56058 0.765772 0.315189
vn -0.534181 0.763473 0.362987
vn -0.534181 0.763473 0.362987
vn -0.578719 0 0.815527
vn -0.578719 0 0.815527
vn -0.502415 0 0.864627
vn -0.421308 0 0.906918
vn -0.255901 0 0.966703
vn -0.171805 0 0.985131
vn -0.0018 0 0.999999
vn 0.084096 0 0.996458
vn 0.257401 0 0.966305
vn 0.344704 0 0.938711
vn 0.428314 0 0.90363
vn 0.428314 0 0.90363
vn 0.321404 0.83161 -0.452906
vn 0.321404 0.83161 -0.452906
vn 0.279392 0.829975 -0.482786
vn 0.236511 0.82614 -0.511425
vn 0.145901 0.820708 -0.552405
vn 0.0982 0.819297 -0.564898
vn 0.0014 0.819283 -0.573388
vn -0.047699 0.820684 -0.569389
vn -0.144107 0.82614 -0.544726
vn -0.191293 0.82997 -0.523981
vn -0.237893 0.831576 -0.501885
vn -0.237893 0.831576 -0.501885
vn -0.361611 0.780724 0.509616
vn -0.361611 0.780724 0.509616
vn -0.314309 0.778821 0.542815
vn -0.265706 0.774317 0.574312
vn -0.163605 0.767824 0.619419
vn -0.1101 0.7662 0.6331
vn -0.0015 0.7662 0.6426
vn 0.053502 0.767826 0.638421
vn 0.161896 0.77428 0.611784
vn 0.215213 0.778847 0.589136
vn 0.267617 0.780749 0.564635
vn 0.267617 0.780749 0.564635
vn 0.8729 0 0.4879
vn 0.8729 0 0.4879
vn 0.911095 0 0.412198
vn 0.942893 0 0.333097
vn 0.985566 0 0.169294
vn 0.996415 0 0.084601
vn 0.996415 0 -0.084601
vn 0.985566 0 -0.169294
vn 0.942893 0 -0.333097
vn 0.911095 0 -0.412198
vn 0.8729 0 -0.4879
vn 0.8729 0 -0.4879
vn -0.503378 0.816965 -0.281388
vn -0.503419 0.816931 -0.281411
vn -0.5229 0.8189 -0.2366
vn -0.541186 0.818879 -0.191195
vn -0.56562 0.818929 -0.097103
vn -0.571892 0.818888 -0.048599
vn -0.571892 0.818888 0.048599
vn -0.56562 0.818929 0.097103
vn -0.541186 0.818879 0.191195
vn -0.5229 0.8189 0.2366
vn -0.503419 0.816931 0.281411
vn -0.503419 0.816931 0.281411
vn 0.563775 0.763465 0.315086
vn 0.563775 0.763465 0.315086
vn 0.585898 0.765798 0.265099
vn 0.606384 0.76578 0.214194
vn 0.633856 0.765747 0.108893
vn 0.640789 0.765787 0.054399
vn 0.640789 0.765787 -0.054399
vn 0.633856 0.765747 -0.108893
vn 0.606384 0.76578 -0.214194
vn 0.585898 0.765798 -0.265099
vn 0.563775 0.763465 -0.315086
vn 0.563775 0.763465 -0.315086
vn -0.080902 0 -0.996722
vn -0.080902 0 -0.996722
vn -0.170898 0 -0.985289
vn -0.260189 0 -0.965558
vn -0.425402 0 -0.905004
vn -0.5016 0 -0.8651
vn -0.641403 0 -0.767204
vn -0.704903 0 -0.709303
vn -0.818296 0 -0.574797
vn -0.867405 0 -0.497603
vn -0.908943 0 -0.41692
vn -0.908943 0 -0.41692
vn 0.044899 0.83158 0.553587
vn 0.044899 0.83158 0.553587
vn 0.096299 0.829994 0.549396
vn 0.147604 0.826123 0.543815
vn 0.24339 0.820667 0.516979
vn 0.287892 0.819277 0.495886
vn 0.367485 0.819265 0.440181
vn 0.402503 0.820706 0.405503
vn 0.460516 0.826128 0.324711
vn 0.483304 0.830006 0.278402
vn 0.504807 0.831611 0.231503
vn 0.504807 0.831611 0.231503
vn -0.050502 0.78073 -0.622824
vn -0.050502 0.78073 -0.622824
vn -0.108205 0.778834 -0.617827
vn -0.165597 0.774284 -0.610788
vn -0.272817 0.767849 -0.579637
vn -0.322592 0.766182 -0.555787
vn -0.411886 0.766174 -0.493283
vn -0.451414 0.767823 -0.454614
vn -0.5173 0.7743 -0.3645
vn -0.5436 0.7788 -0.313
vn -0.568007 0.780709 -0.260503
vn -0.568007 0.780709 -0.260503
vn -0.592196 0 -0.805794
vn -0.592196 0 -0.805794
vn -0.66301 0 -0.748611
vn -0.72891 0 -0.68461
vn -0.847953 0 -0.530071
vn -0.899019 0 -0.437909
vn -0.970178 0 -0.242395
vn -0.990293 0 -0.138999
vn -0.998436 0 0.055902
vn -0.989107 0 0.147201
vn -0.971607 0 0.236602
vn -0.971607 0 0.236602
vn 0.370192 0.780483 0.503789
vn 0.370192 0.780483 0.503789
vn 0.402897 0.792294 0.458197
vn 0.434394 0.801489 0.410995
vn 0.491401 0.814502 0.308401
vn 0.5168 0.8179 0.2529
vn 0.558413 0.817919 0.138503
vn 0.574688 0.814483 0.079698
vn 0.596912 0.801516 -0.035601
vn 0.603184 0.792279 -0.091998
vn 0.607457 0.780445 -0.14799
vn 0.607457 0.780445 -0.14799
vn -0.410107 0.721413 -0.55801
vn -0.410107 0.721413 -0.55801
vn -0.448111 0.734917 -0.509012
vn -0.484401 0.745502 -0.457801
vn -0.54999 0.760586 -0.344994
vn -0.579 0.7646 -0.2831
vn -0.625506 0.764607 -0.155301
vn -0.643079 0.760576 -0.089297
vn -0.66532 0.745523 0.039301
vn -0.670489 0.734888 0.101898
vn -0.672875 0.721373 0.163894
vn -0.672875 0.721373 0.163894
vn 0.832066 0 0.554677
vn 0.832066 0 0.554677
vn 0.879074 0 0.476686
vn 0.919109 0 0.394004
vn 0.978107 0 0.208102
vn 0.994578 0 0.103998
vn 0.994578 0 -0.103998
vn 0.978107 0 -0.208102
vn 0.919109 0 -0.394004
vn 0.879074 0 -0.476686
vn 0.832066 0 -0.554677
vn 0.832066 0 -0.554677
vn -0.520185 0.780477 -0.34679
vn -0.520185 0.780477 -0.34679
vn -0.535367 0.792251 -0.292782
vn -0.54879 0.801485 -0.237596
vn -0.567286 0.81448 -0.121697
vn -0.572113 0.817918 -0.060801
vn -0.572113 0.817918 0.060801
vn -0.567286 0.81448 0.121697
vn -0.54879 0.801485 0.237596
vn -0.535367 0.792251 0.292782
vn -0.520185 0.780477 0.34679
vn -0.520185 0.780477 0.34679
vn 0.576212 0.721416 0.384108
vn 0.576212 0.721416 0.384108
vn 0.595191 0.734889 0.325095
vn 0.611728 0.745535 0.264512
vn 0.634807 0.760608 0.136001
vn 0.640903 0.764604 0.068
vn 0.640903 0.764604 -0.068
vn 0.634807 0.760608 -0.136001
vn 0.611728 0.745535 -0.264512
vn 0.595191 0.734889 -0.325095
vn 0.576212 0.721416 -0.384108
vn 0.576212 0.721416 -0.384108
vn 0.999903 0 -0.013916
vn 0.999903 0 -0.013916
vn 0.99513 0 -0.098574
vn 0.983118 0 -0.182975
vn 0.938172 0 -0.34617
vn 0.905221 0 -0.424941
vn 0.82062 0 -0.571474
vn 0.768878 0 -0.639396
vn 0.65002 0 -0.759917
vn 0.582932 0 -0.812521
vn 0.512003 0 -0.858983
vn 0.512003 0 -0.858983
vn -0.503378 0.816965 -0.281388
vn -0.503378 0.816965 -0.281388
vn -0.5229 0.8189 -0.2366
vn -0.541186 0.818879 -0.191195
vn -0.56562 0.818929 -0.097104
vn -0.571892 0.818888 -0.0486
vn -0.571892 0.818888 0.048599
vn -0.56562 0.818929 0.097103
vn -0.541186 0.818879 0.191195
vn -0.5229 0.8189 0.2366
vn -0.50342 0.816931 0.281411
vn -0.50342 0.816931 0.281411
vn 0.563774 0.763465 0.315086
vn 0.563774 0.763465 0.315086
vn 0.585898 0.765798 0.265099
vn 0.606384 0.76578 0.214195
vn 0.633856 0.765747 0.108893
vn 0.640789 0.765787 0.054399
vn 0.640789 0.765787 -0.054399
vn 0.633856 0.765747 -0.108892
vn 0.606384 0.76578 -0.214194
vn 0.585898 0.765798 -0.265099
vn 0.563775 0.763465 -0.315086
vn 0.563775 0.763465 -0.315086
vn 0.647591 0 -0.761989
vn 0.647591 0 -0.761989
vn 0.57591 0 -0.817513
vn 0.498808 0 -0.866713
vn 0.339116 0 -0.940744
vn 0.257003 0 -0.966411
vn 0.089003 0 -0.996031
vn 0.0031 0 -0.999995
vn -0.172193 0 -0.985063
vn -0.261501 0 -0.965203
vn -0.34791 0 -0.937528
vn -0.34791 0 -0.937528
vn -0.359693 0.831583 0.423191
vn -0.359693 0.831583 0.423191
vn -0.320394 0.829984 0.456591
vn -0.280111 0.826133 0.488919
vn -0.1935 0.820698 0.537599
vn -0.147098 0.819288 0.554192
vn -0.051399 0.81928 0.571086
vn -0.0021 0.820679 0.571386
vn 0.096004 0.82614 0.555227
vn 0.144901 0.830006 0.538604
vn 0.193199 0.831595 0.520697
vn 0.193199 0.831595 0.520697
vn 0.404711 0.780721 -0.476113
vn 0.404711 0.780721 -0.476113
vn 0.360401 0.778801 -0.513401
vn 0.314794 0.774284 -0.548989
vn 0.216908 0.767827 -0.602821
vn 0.164801 0.766205 -0.621104
vn 0.057501 0.766212 -0.64001
vn 0.0023 0.767842 -0.640635
vn -0.108002 0.774317 -0.623514
vn -0.1631 0.778799 -0.605699
vn -0.217409 0.780733 -0.585824
vn -0.217409 0.780733 -0.585824
vn -0.827079 0 -0.562086
vn -0.827079 0 -0.562086
vn -0.871674 0 -0.490086
vn -0.910281 0 -0.413992
vn -0.967075 0 -0.254494
vn -0.985235 0 -0.171207
vn -0.999997 0 -0.0025
vn -0.996575 0 0.082698
vn -0.968346 0 0.249612
vn -0.943523 0 0.331308
vn -0.912126 0 0.409911
vn -0.912126 0 0.409911
vn 0.47697 0.81695 0.32418
vn 0.477009 0.816916 0.324207
vn 0.500293 0.818889 0.281296
vn 0.522412 0.818919 0.237606
vn 0.555009 0.818913 0.146103
vn 0.565491 0.818888 0.098199
vn 0.573911 0.818916 0.0015
vn 0.571989 0.818885 -0.047499
vn 0.555787 0.818881 -0.143297
vn 0.541512 0.818917 -0.190104
vn 0.525987 0.81698 -0.236394
vn 0.525987 0.81698 -0.236394
vn -0.534181 0.763473 -0.362987
vn -0.534181 0.763473 -0.362987
vn -0.560579 0.765772 -0.315189
vn -0.585398 0.765798 -0.2662
vn -0.621959 0.76575 -0.16369
vn -0.633593 0.765792 -0.110099
vn -0.64309 0.765789 -0.0016
vn -0.64089 0.765788 0.053199
vn -0.622772 0.765766 0.160493
vn -0.606793 0.76579 0.212997
vn -0.589074 0.763466 0.264788
vn -0.589074 0.763466 0.264788
vn -0.0063 0 0.99998
vn -0.0063 0 0.99998
vn 0.084402 0 0.996432
vn 0.175091 0 0.984552
vn 0.344912 0 0.938635
vn 0.424308 0 0.905518
vn 0.572092 0 0.820189
vn 0.64042 0 0.768025
vn 0.765105 0 0.643905
vn 0.82076 0 0.571273
vn 0.869183 0 0.494491
vn 0.869183 0 0.494491
vn 0.0035 0.831584 -0.555389
vn 0.0035 0.831584 -0.555389
vn -0.048099 0.829993 -0.555696
vn -0.099603 0.826124 -0.554616
vn -0.197397 0.82069 -0.536193
vn -0.243593 0.819276 -0.519085
vn -0.327698 0.819296 -0.470498
vn -0.365699 0.820698 -0.438999
vn -0.430505 0.82611 -0.363605
vn -0.457197 0.829995 -0.319498
vn -0.482696 0.831593 -0.274698
vn -0.482696 0.831593 -0.274698
vn -0.0039 0.780746 0.624837
vn -0.0039 0.780746 0.624837
vn 0.053902 0.778826 0.62492
vn 0.111797 0.774283 0.622886
vn 0.221307 0.767826 0.601221
vn 0.272989 0.766168 0.581776
vn 0.367297 0.766194 0.527296
vn 0.410025 0.767847 0.49223
vn 0.483514 0.774323 0.408213
vn 0.51423 0.778845 0.359121
vn 0.543119 0.780727 0.309011
vn 0.543119 0.780727 0.309011
vn 0.519677 0 0.854363
vn 0.519677 0 0.854363
vn 0.595301 0 0.803502
vn 0.666502 0 0.745503
vn 0.798497 0 0.601998
vn 0.857422 0 0.514614
vn 0.945373 0 0.325991
vn 0.974405 0 0.224801
vn 0.999507 0 0.031401
vn 0.998168 0 -0.060498
vn 0.988518 0 -0.151103
vn 0.988518 0 -0.151103
vn -0.324882 0.780457 -0.534171
vn -0.324882 0.780457 -0.534171
vn -0.361483 0.792264 -0.491578
vn -0.396898 0.801496 -0.447298
vn -0.4627 0.814499 -0.35
vn -0.492809 0.817916 -0.296906
vn -0.544218 0.817927 -0.186606
vn -0.565584 0.814477 -0.129397
vn -0.597787 0.801483 -0.0166
vn -0.608892 0.792289 0.039099
vn -0.617995 0.780494 0.094399
vn -0.617995 0.780494 0.094399
vn 0.35989 0.72138 0.591684
vn 0.35989 0.72138 0.591684
vn 0.401997 0.734894 0.546196
vn 0.442607 0.745512 0.498308
vn 0.517805 0.760608 0.391604
vn 0.552104 0.764606 0.332503
vn 0.609603 0.764604 0.209201
vn 0.632808 0.76061 0.145002
vn 0.666218 0.74552 0.018801
vn 0.676802 0.734902 -0.0431
vn 0.684588 0.721387 -0.104598
vn 0.684588 0.721387 -0.104598
vn -0.780566 0 -0.625073
vn -0.780566 0 -0.625073
vn -0.834182 0 -0.551489
vn -0.881282 0 -0.472591
vn -0.956268 0 -0.292491
vn -0.981725 0 -0.190305
vn -0.999856 0 0.016999
vn -0.99253 0 0.122003
vn -0.949956 0 0.312385
vn -0.917299 0 0.398199
vn -0.877253 0 0.480029
vn -0.877253 0 0.480029
vn 0.487988 0.780481 0.390791
vn 0.487988 0.780481 0.390791
vn 0.507788 0.792281 0.338292
vn 0.525995 0.801493 0.284498
vn 0.554495 0.814492 0.170699
vn 0.564616 0.817923 0.110503
vn 0.57522 0.817928 -0.0108
vn 0.575701 0.814502 -0.0718
vn 0.567392 0.801489 -0.188897
vn 0.558794 0.792291 -0.244997
vn 0.548475 0.780464 -0.300086
vn 0.548475 0.780464 -0.300086
vn -0.540581 0.721375 -0.432885
vn -0.540581 0.721375 -0.432885
vn -0.564599 0.7349 -0.3757
vn -0.586401 0.745501 -0.316801
vn -0.620508 0.760609 -0.190903
vn -0.632517 0.764621 -0.123604
vn -0.644398 0.764598 0.0119
vn -0.644279 0.760575 0.080197
vn -0.632497 0.745496 0.210199
vn -0.621215 0.734918 0.272006
vn -0.607511 0.721413 0.332406
vn -0.607511 0.721413 0.332406
vt 0.9995 0.9995
vt 0.0005 0.9995
vt 0.9995 0.7997
vt 0.0005 0.7997
vt 0.9995 0.5999
vt 0.0005 0.5999
vt 0.9995 0.4001
vt 0.0005 0.4001
vt 0.9995 0.2003
vt 0.0005 0.2003
vt 0.9995 0.0005
vt 0.0005 0.0005
vt 0.9995 0.9995
vt 0.0005 0.9995
vt 0.9995 0.7997
vt 0.0005 0.7997
vt 0.9995 0.5999
vt 0.0005 0.5999
vt 0.9995 0.4001
vt 0.0005 0.4001
vt 0.9995 0.2003
vt 0.0005 0.2003
vt 0.9995 0.0005
vt 0.0005 0.0005
vt 0.9995 0.9995
vt 0.0005 0.9995
vt 0.9995 0.7997
vt 0.0005 0.7997
vt 0.9995 0.5999
vt 0.0005 0.5999
vt 0.9995 0.4001
vt 0.0005 0.4001
vt 0.9995 0.2003
vt 0.0005 0.2003
vt 0.9995 0.0005
vt 0.0005 0.0005
vt 0.9995 0.9995
vt 0.0005 0.9995
vt 0.9995 0.7997
vt 0.0005 0.7997
vt 0.9995 0.5999
vt 0.0005 0.5999
vt 0.9995 0.4001
vt 0.0005 0.4001
vt 0.9995 0.2003
vt 0.0005 0.2003
vt 0.9995 0.0005
vt 0.0005 0.0005
vt 0.9995 0.9995
vt 0.0005 0.9995
vt 0.9995 0.7997
vt 0.0005 0.7997
vt 0.9995 0.5999
vt 0.0005 0.5999
vt 0.9995 0.4001
vt 0.0005 0.4001
vt 0.9995 0.2003
vt 0.0005 0.2003
vt 0.9995 0.0005
vt 0.0005 0.0005
vt 0.9995 0.9995
vt 0.0005 0.9995
vt 0.9995 0.7997
vt 0.0005 0.7997
vt 0.9995 0.5999
vt 0.0005 0.5999
vt 0.9995 0.4001
vt 0.0005 0.4001
vt 0.9995 0.2003
vt 0.0005 0.2003
vt 0.9995 0.0005
vt 0.0005 0.0005
vt 0.9995 0.9995
vt 0.0005 0.9995
vt 0.9995 0.7997
vt 0.0005 0.7997
vt 0.9995 0.5999
vt 0.0005 0.5999
vt 0.9995 0.4001
vt 0.0005 0.4001
vt 0.9995 0.2003
vt 0.0005 0.2003
vt 0.9995 0.0005
vt 0.0005 0.0005
vt 0.9995 0.9995
vt 0.0005 0.9995
vt 0.9995 0.7997
vt 0.0005 0.7997
vt 0.9995 0.5999
vt 0.0005 0.5999
vt 0.9995 0.4001
vt 0.0005 0.4001
vt 0.9995 0.2003
vt 0.0005 0.2003
vt 0.9995 0.0005
vt 0.0005 0.0005
vt 0.9995 0.9995
vt 0.0005 0.9995
vt 0.9995 0.7997
vt 0.0005 0.7997
vt 0.9995 0.5999
vt 0.0005 0.5999
vt 0.9995 0.4001
vt 0.0005 0.4001
vt 0.9995 0.2003
vt 0.0005 0.2003
vt 0.9995 0.0005
vt 0.0005 0.0005
vt 0.9995 0.9995
vt 0.0005 0.9995
vt 0.9995 0.7997
vt 0.0005 0.7997
vt 0.9995 0.5999
vt 0.0005 0.5999
vt 0.9995 0.4001
vt 0.0005 0.4001
vt 0.9995 0.2003
vt 0.0005 0.2003
vt 0.9995 0.0005
vt 0.0005 0.0005
vt 0.9995 0.9995
vt 0.0005 0.9995
vt 0.9995 0.7997
vt 0.0005 0.7997
vt 0.9995 0.5999
vt 0.0005 0.5999
vt 0.9995 0.4001
vt 0.0005 0.4001
vt 0.9995 0.2003
vt 0.0005 0.2003
vt 0.9995 0.0005
vt 0.0005 0.0005
vt 0.9995 0.9995
vt 0.0005 0.9995
vt 0.9995 0.7997
vt 0.0005 0.7997
vt 0.9995 0.5999
vt 0.0005 0.5999
vt 0.9995 0.4001
vt 0.0005 0.4001
vt 0.9995 0.2003
vt 0.0005 0.2003
vt 0.9995 0.0005
vt 0.0005 0.0005
vt 0.9995 0.9995
vt 0.0005 0.9995
vt 0.9995 0.7997
vt 0.0005 0.7997
vt 0.9995 0.5999
vt 0.0005 0.5999
vt 0.9995 0.4001
vt 0.0005 0.4001
vt 0.9995 0.2003
vt 0.0005 0.2003
vt 0.9995 0.0005
vt 0.0005 0.0005
vt 0.9995 0.9995
vt 0.0005 0.9995
vt 0.9995 0.7997
vt 0.0005 0.7997
vt 0.9995 0.5999
vt 0.0005 0.5999
vt 0.9995 0.4001
vt 0.0005 0.4001
vt 0.9995 0.2003
vt 0.0005 0.2003
vt 0.9995 0.0005
vt 0.0005 0.0005
vt 0.9995 0.9995
vt 0.0005 0.9995
vt 0.9995 0.7997
vt 0.0005 0.7997
vt 0.9995 0.5999
vt 0.0005 0.5999
vt 0.9995 0.4001
vt 0.0005 0.4001
vt 0.9995 0.2003
vt 0.0005 0.2003
vt 0.9995 0.0005
vt 0.0005 0.0005
vt 0.9995 0.9995
vt 0.0005 0.9995
vt 0.9995 0.7997
vt 0.0005 0.7997
vt 0.9995 0.5999
vt 0.0005 0.5999
vt 0.9995 0.4001
vt 0.0005 0.4001
vt 0.9995 0.2003
vt 0.0005 0.2003
vt 0.9995 0.0005
vt 0.0005 0.0005
vt 0.9995 0.9995
vt 0.0005 0.9995
vt 0.9995 0.7997
vt 0.0005 0.7997
vt 0.9995 0.5999
vt 0.0005 0.5999
vt 0.9995 0.4001
vt 0.0005 0.4001
vt 0.9995 0.2003
vt 0.0005 0.2003
vt 0.9995 0.0005
vt 0.0005 0.0005
vt 0.9995 0.9995
vt 0.0005 0.9995
vt 0.9995 0.7997
vt 0.0005 0.7997
vt 0.9995 0.5999
vt 0.0005 0.5999
vt 0.9995 0.4001
vt 0.0005 0.4001
vt 0.9995 0.2003
vt 0.0005 0.2003
vt 0.9995 0.0005
vt 0.0005 0.0005
vt 0.9995 0.9995
vt 0.0005 0.9995
vt 0.9995 0.7997
vt 0.0005 0.7997
vt 0.9995 0.5999
vt 0.0005 0.5999
vt 0.9995 0.4001
vt 0.0005 0.4001
vt 0.9995 0.2003
vt 0.0005 0.2003
vt 0.9995 0.0005
vt 0.0005 0.0005
vt 0.9995 0.9995
vt 0.0005 0.9995
vt 0.9995 0.7997
vt 0.0005 0.7997
vt 0.9995 0.5999
vt 0.0005 0.5999
vt 0.9995 0.4001
vt 0.0005 0.4001
vt 0.9995 0.2003
vt 0.0005 0.2003
vt 0.9995 0.0005
vt 0.0005 0.0005
vt 0.9995 0.9995
vt 0.0005 0.9995
vt 0.9995 0.7997
vt 0.0005 0.7997
vt 0.9995 0.5999
vt 0.0005 0.5999
vt 0.9995 0.4001
vt 0.0005 0.4001
vt 0.9995 0.2003
vt 0.0005 0.2003
vt 0.9995 0.0005
vt 0.0005 0.0005
vt 0.9995 0.9995
vt 0.0005 0.9995
vt 0.9995 0.7997
vt 0.0005 0.7997
vt 0.9995 0.5999
vt 0.0005 0.5999
vt 0.9995 0.4001
vt 0.0005 0.4001
vt 0.9995 0.2003
vt 0.0005 0.2003
vt 0.9995 0.0005
vt 0.0005 0.0005
vt 0.9995 0.9995
vt 0.0005 0.9995
vt 0.9995 0.7997
vt 0.0005 0.7997
vt 0.9995 0.5999
vt 0.0005 0.5999
vt 0.9995 0.4001
vt 0.0005 0.4001
vt 0.9995 0.2003
vt 0.0005 0.2003
vt 0.9995 0.0005
vt 0.0005 0.0005
vt 0.9995 0.9995
vt 0.0005 0.9995
vt 0.9995 0.7997
vt 0.0005 0.7997
vt 0.9995 0.5999
vt 0.0005 0.5999
vt 0.9995 0.4001
vt 0.0005 0.4001
vt 0.9995 0.2003
vt 0.0005 0.2003
vt 0.9995 0.0005
vt 0.0005 0.0005
vt 0.9995 0.9995
vt 0.0005 0.9995
vt 0.9995 0.7997
vt 0.0005 0.7997
vt 0.9995 0.5999
vt 0.0005 0.5999
vt 0.9995 0.4001
vt 0.0005 0.4001
vt 0.9995 0.2003
vt 0.0005 0.2003
vt 0.9995 0.0005
vt 0.0005 0.0005
vt 0.9995 0.9995
vt 0.0005 0.9995
vt 0.9995 0.7997
vt 0.0005 0.7997
vt 0.9995 0.5999
vt 0.0005 0.5999
vt 0.9995 0.4001
vt 0.0005 0.4001
vt 0.9995 0.2003
vt 0.0005 0.2003
vt 0.9995 0.0005
vt 0.0005 0.0005
vt 0.9995 0.9995
vt 0.0005 0.9995
vt 0.9995 0.7997
vt 0.0005 0.7997
vt 0.9995 0.5999
vt 0.0005 0.5999
vt 0.9995 0.4001
vt 0.0005 0.4001
vt 0.9995 0.2003
vt 0.0005 0.2003
vt 0.9995 0.0005
vt 0.0005 0.0005
vt 0.9995 0.9995
vt 0.0005 0.9995
vt 0.9995 0.7997
vt 0.0005 0.7997
vt 0.9995 0.5999
vt 0.0005 0.5999
vt 0.9995 0.4001
vt 0.0005 0.4001
vt 0.9995 0.2003
vt 0.0005 0.2003
vt 0.9995 0.0005
vt 0.0005 0.0005
vt 0.9995 0.9995
vt 0.0005 0.9995
vt 0.9995 0.7997
vt 0.0005 0.7997
vt 0.9995 0.5999
vt 0.0005 0.5999
vt 0.9995 0.4001
vt 0.0005 0.4001
vt 0.9995 0.2003
vt 0.0005 0.2003
vt 0.9995 0.0005
vt 0.0005 0.0005
vt 0.9995 0.9995
vt 0.0005 0.9995
vt 0.9995 0.7997
vt 0.0005 0.7997
vt 0.9995 0.5999
vt 0.0005 0.5999
vt 0.9995 0.4001
vt 0.0005 0.4001
vt 0.9995 0.2003
vt 0.0005 0.2003
vt 0.9995 0.0005
vt 0.0005 0.0005
vt 0.9995 0.9995
vt 0.0005 0.9995
vt 0.9995 0.7997
vt 0.0005 0.7997
vt 0.9995 0.5999
vt 0.0005 0.5999
vt 0.9995 0.4001
vt 0.0005 0.4001
vt 0.9995 0.2003
vt 0.0005 0.2003
vt 0.9995 0.0005
vt 0.0005 0.0005
vt 0.9995 0.9995
vt 0.0005 0.9995
vt 0.9995 0.7997
vt 0.0005 0.7997
vt 0.9995 0.5999
vt 0.0005 0.5999
vt 0.9995 0.4001
vt 0.0005 0.4001
vt 0.9995 0.2003
vt 0.0005 0.2003
vt 0.9995 0.0005
vt 0.0005 0.0005
vt 0.9995 0.9995
vt 0.0005 0.9995
vt 0.9995 0.7997
vt 0.0005 0.7997
vt 0.9995 0.5999
vt 0.0005 0.5999
vt 0.9995 0.4001
vt 0.0005 0.4001
vt 0.9995 0.2003
vt 0.0005 0.2003
vt 0.9995 0.0005
vt 0.0005 0.0005
vt 0.9995 0.9995
vt 0.0005 0.9995
vt 0.9995 0.7997
vt 0.0005 0.7997
vt 0.9995 0.5999
vt 0.0005 0.5999
vt 0.9995 0.4001
vt 0.0005 0.4001
vt 0.9995 0.2003
vt 0.0005 0.2003
vt 0.9995 0.0005
vt 0.0005 0.0005
vt 0.9995 0.9995
vt 0.0005 0.9995
vt 0.9995 0.7997
vt 0.0005 0.7997
vt 0.9995 0.5999
vt 0.0005 0.5999
vt 0.9995 0.4001
vt 0.0005 0.4001
vt 0.9995 0.2003
vt 0.0005 0.2003
vt 0.9995 0.0005
vt 0.0005 0.0005
vt 0.9995 0.9995
vt 0.0005 0.9995
vt 0.9995 0.7997
vt 0.0005 0.7997
vt 0.9995 0.5999
vt 0.0005 0.5999
vt 0.9995 0.4001
vt 0.0005 0.4001
vt 0.9995 0.2003
vt 0.0005 0.2003
vt 0.9995 0.0005
vt 0.0005 0.0005
vt 0.9995 0.9995
vt 0.0005 0.9995
vt 0.9995 0.7997
vt 0.0005 0.7997
vt 0.9995 0.5999
vt 0.0005 0.5999
vt 0.9995 0.4001
vt 0.0005 0.4001
vt 0.9995 0.2003
vt 0.0005 0.2003
vt 0.9995 0.0005
vt 0.0005 0.0005
vt 0.9995 0.9995
vt 0.0005 0.9995
vt 0.9995 0.7997
vt 0.0005 0.7997
vt 0.9995 0.5999
vt 0.0005 0.5999
vt 0.9995 0.4001
vt 0.0005 0.4001
vt 0.9995 0.2003
vt 0.0005 0.2003
vt 0.9995 0.0005
vt 0.0005 0.0005
vt 0.9995 0.9995
vt 0.0005 0.9995
vt 0.9995 0.7997
vt 0.0005 0.7997
vt 0.9995 0.5999
vt 0.0005 0.5999
vt 0.9995 0.4001
vt 0.0005 0.4001
vt 0.9995 0.2003
vt 0.0005 0.2003
vt 0.9995 0.0005
vt 0.0005 0.0005
vt 0.9995 0.9995
vt 0.0005 0.9995
vt 0.9995 0.7997
vt 0.0005 0.7997
vt 0.9995 0.5999
vt 0.0005 0.5999
vt 0.9995 0.4001
vt 0.0005 0.4001
vt 0.9995 0.2003
vt 0.0005 0.2003
vt 0.9995 0.0005
vt 0.0005 0.0005
vt 0.9995 0.9995
vt 0.0005 0.9995
vt 0.9995 0.7997
vt 0.0005 0.7997
vt 0.9995 0.5999
vt 0.0005 0.5999
vt 0.9995 0.4001
vt 0.0005 0.4001
vt 0.9995 0.2003
vt 0.0005 0.2003
vt 0.9995 0.0005
vt 0.0005 0.0005
vt 0.9995 0.9995
vt 0.0005 0.9995
vt 0.9995 0.7997
vt 0.0005 0.7997
vt 0.9995 0.5999
vt 0.0005 0.5999
vt 0.9995 0.4001
vt 0.0005 0.4001
vt 0.9995 0.2003
vt 0.0005 0.2003
vt 0.9995 0.0005
vt 0.0005 0.0005
vt 0.9995 0.9995
vt 0.0005 0.9995
vt 0.9995 0.7997
vt 0.0005 0.7997
vt 0.9995 0.5999
vt 0.0005 0.5999
vt 0.9995 0.4001
vt 0.0005 0.4001
vt 0.9995 0.2003
vt 0.0005 0.2003
vt 0.9995 0.0005
vt 0.0005 0.0005
vt 0.9995 0.9995
vt 0.0005 0.9995
vt 0.9995 0.7997
vt 0.0005 0.7997
vt 0.9995 0.5999
vt 0.0005 0.5999
vt 0.9995 0.4001
vt 0.0005 0.4001
vt 0.9995 0.2003
vt 0.0005 0.2003
vt 0.9995 0.0005
vt 0.0005 0.0005
vt 0.9995 0.9995
vt 0.0005 0.9995
vt 0.9995 0.7997
vt 0.0005 0.7997
vt 0.9995 0.5999
vt 0.0005 0.5999
vt 0.9995 0.4001
vt 0.0005 0.4001
vt 0.9995 0.2003
vt 0.0005 0.2003
vt 0.9995 0.0005
vt 0.0005 0.0005
vt 0.9995 0.9995
vt 0.0005 0.9995
vt 0.9995 0.7997
vt 0.0005 0.7997
vt 0.9995 0.5999
vt 0.0005 0.5999
vt 0.9995 0.4001
vt 0.0005 0.4001
vt 0.9995 0.2003
vt 0.0005 0.2003
vt 0.9995 0.0005
vt 0.0005 0.0005
vt 0.9995 0.9995
vt 0.0005 0.9995
vt 0.9995 0.7997
vt 0.0005 0.7997
vt 0.9995 0.5999
vt 0.0005 0.5999
vt 0.9995 0.4001
vt 0.0005 0.4001
vt 0.9995 0.2003
vt 0.0005 0.2003
vt 0.9995 0.0005
vt 0.0005 0.0005
vt 0.9995 0.9995
vt 0.0005 0.9995
vt 0.9995 0.7997
vt 0.0005 0.7997
vt 0.9995 0.5999
vt 0.0005 0.5999
vt 0.9995 0.4001
vt 0.0005 0.4001
vt 0.9995 0.2003
vt 0.0005 0.2003
vt 0.9995 0.0005
vt 0.0005 0.0005
vt 0.9995 0.9995
vt 0.0005 0.9995
vt 0.9995 0.7997
vt 0.0005 0.7997
vt 0.9995 0.5999
vt 0.0005 0.5999
vt 0.9995 0.4001
vt 0.0005 0.4001
vt 0.9995 0.2003
vt 0.0005 0.2003
vt 0.9995 0.0005
vt 0.0005 0.0005
vt 0.9995 0.9995
vt 0.0005 0.9995
vt 0.9995 0.7997
vt 0.0005 0.7997
vt 0.9995 0.5999
vt 0.0005 0.5999
vt 0.9995 0.4001
vt 0.0005 0.4001
vt 0.9995 0.2003
vt 0.0005 0.2003
vt 0.9995 0.0005
vt 0.0005 0.0005
vt 0.9995 0.9995
vt 0.0005 0.9995
vt 0.9995 0.7997
vt 0.0005 0.7997
vt 0.9995 0.5999
vt 0.0005 0.5999
vt 0.9995 0.4001
vt 0.0005 0.4001
vt 0.9995 0.2003
vt 0.0005 0.2003
vt 0.9995 0.0005
vt 0.0005 0.0005
vt 0.9995 0.9995
vt 0.0005 0.9995
vt 0.9995 0.7997
vt 0.0005 0.7997
vt 0.9995 0.5999
vt 0.0005 0.5999
vt 0.9995 0.4001
vt 0.0005 0.4001
vt 0.9995 0.2003
vt 0.0005 0.2003
vt 0.9995 0.0005
vt 0.0005 0.0005
vt 0.9995 0.9995
vt 0.0005 0.9995
vt 0.9995 0.7997
vt 0.0005 0.7997
vt 0.9995 0.5999
vt 0.0005 0.5999
vt 0.9995 0.4001
vt 0.0005 0.4001
vt 0.9995 0.2003
vt 0.0005 0.2003
vt 0.9995 0.0005
vt 0.0005 0.0005
vt 0.9995 0.9995
vt 0.0005 0.9995
vt 0.9995 0.7997
vt 0.0005 0.7997
vt 0.9995 0.5999
vt 0.0005 0.5999
vt 0.9995 0.4001
vt 0.0005 0.4001
vt 0.9995 0.2003
vt 0.0005 0.2003
vt 0.9995 0.0005
vt 0.0005 0.0005
f 1/1/1 3/3/3 2/2/2
f 4/4/4 2/2/2 3/3/3
f 3/3/3 5/5/5 4/4/4
f 6/6/6 4/4/4 5/5/5
f 5/5/5 7/7/7 6/6/6
f 8/8/8 6/6/6 7/7/7
f 7/7/7 9/9/9 8/8/8
f 10/10/10 8/8/8 9/9/9
f 9/9/9 11/11/11 10/10/10
f 12/12/12 10/10/10 11/11/11
f 13/13/13 15/15/15 14/14/14
f 16/16/16 14/14/14 15/15/15
f 15/15/15 17/17/17 16/16/16
f 18/18/18 16/16/16 17/17/17
f 17/17/17 19/19/19 18/18/18
f 20/20/20 18/18/18 19/19/19
f 19/19/19 21/21/21 20/20/20
f 22/22/22 20/20/20 21/21/21
f 21/21/21 23/23/23 22/22/22
f 24/24/24 22/22/22 23/23/23
f 25/25/25 27/27/27 26/26/26
f 28/28/28 26/26/26 27/27/27
f 27/27/27 29/29/29 28/28/28
f 30/30/30 28/28/28 29/29/29
f 29/29/29 31/31/31 30/30/30
f 32/32/32 30/30/30 31/31/31
f 31/31/31 33/33/33 32/32/32
f 34/34/34 32/32/32 33/33/33
f 33/33/33 35/35/35 34/34/34
f 36/36/36 34/34/34 35/35/35
f 37/37/37 39/39/39 38/38/38
f 40/40/40 38/38/38 39/39/39
f 39/39/39 41/41/41 40/40/40
f 42/42/42 40/40/40 41/41/41
f 41/41/41 43/43/43 42/42/42
f 44/44/44 42/42/42 43/43/43
f 43/43/43 45/45/45 44/44/44
f 46/46/46 44/44/44 45/45/45
f 45/45/45 47/47/47 46/46/46
f 48/48/48 46/46/46 47/47/47
f 49/49/49 51/51/51 50/50/50
f 52/52/52 50/50/50 51/51/51
f 51/51/51 53/53/53 52/52/52
f 54/54/54 52/52/52 53/53/53
f 53/53/53 55/55/55 54/54/54
f 56/56/56 54/54/54 55/55/55
f 55/55/55 57/57/57 56/56/56
f 58/58/58 56/56/56 57/57/57
f 57/57/57 59/59/59 58/58/58
f 60/60/60 58/58/58 59/59/59
f 61/61/61 63/63/63 62/62/62
f 64/64/64 62/62/62 63/63/63
f 63/63/63 65/65/65 64/64/64
f 66/66/66 64/64/64 65/65/65
f 65/65/65 67/67/67 66/66/66
f 68/68/68 66/66/66 67/67/67
f 67/67/67 69/69/69 68/68/68
f 70/70/70 68/68/68 69/69/69
f 69/69/69 71/71/71 70/70/70
f 72/72/72 70/70/70 71/71/71
f 73/73/73 75/75/75 74/74/74
f 76/76/76 74/74/74 75/75/75
f 75/75/75 77/77/77 76/76/76
f 78/78/78 76/76/76 77/77/77
f 77/77/77 79/79/79 78/78/78
f 80/80/80 78/78/78 79/79/79
f 79/79/79 81/81/81 80/80/80
f 82/82/82 80/80/80 81/81/81
f 81/81/81 83/83/83 82/82/82
f 84/84/84 82/82/82 83/83/83
f 85/85/85 87/87/87 86/86/86
f 88/88/88 86/86/86 87/87/87
f 87/87/87 89/89/89 88/88/88
f 90/90/90 88/88/88 89/89/89
f 89/89/89 91/91/91 90/90/90
f 92/92/92 90/90/90 91/91/91
f 91/91/91 93/93/93 92/92/92
f 94/94/94 92/92/92 93/93/93
f 93/93/93 95/95/95 94/94/94
f 96/96/96 94/94/94 95/95/95
f 97/97/97 99/99/99 98/98/98
f 100/100/100 98/98/98 99/99/99
f 99/99/99 101/101/101 100/100/100
f 102/102/102 100/100/100 101/101/101
f 101/101/101 103/103/103 102/102/102
f 104/104/104 102/102/102 103/103/103
f 103/103/103 105/105/105 104/104/104
f 106/106/106 104/104/104 105/105/105
f 105/105/105 107/107/107 106/106/106
f 108/108/108 106/106/106 107/107/107
f 109/109/109 111/111/111 110/110/110
f 112/112/112 110/110/110 111/111/111
f 111/111/111 113/113/113 112/112/112
f 114/114/114 112/112/112 113/113/113
f 113/113/113 115/115/115 114/114/114
f 116/116/116 114/114/114 115/115/115
f 115/115/115 117/117/117 116/116/116
f 118/118/118 116/116/116 117/117/117
f 117/117/117 119/119/119 118/118/118
f 120/120/120 118/118/118 119/119/119
f 121/121/121 123/123/123 122/122/122
f 124/124/124 122/122/122 123/123/123
f 123/123/123 125/125/125 124/124/124
f 126/126/126 124/124/124 125/125/125
f 125/125/125 127/127/127 126/126/126
f 128/128/128 126/126/126 127/127/127
f 127/127/127 129/129/129 128/128/128
f 130/130/130 128/128/128 129/129/129
f 129/129/129 131/131/131 130/130/130
f 132/132/132 130/130/130 131/131/131
f 133/133/133 135/135/135 134/134/134
f 136/136/136 134/134/134 135/135/135
f 135/135/135 137/137/137 136/136/136
f 138/138/138 136/136/136 137/137/137
f 137/137/137 139/139/139 138/138/138
f 140/140/140 138/138/138 139/139/139
f 139/139/139 141/141/141 140/140/140
f 142/142/142 140/140/140 141/141/141
f 141/141/141 143/143/143 142/142/142
f 144/144/144 142/142/142 143/143/143
f 145/145/145 147/147/147 146/146/146
f 148/148/148 146/146/146 147/147/147
f 147/147/147 149/149/149 148/148/148
f 150/150/150 148/148/148 149/149/149
f 149/149/149 151/151/151 150/150/150
f 152/152/152 150/150/150 151/151/151
f 151/151/151 153/153/153 152/152/152
f 154/154/154 152/152/152 153/153/153
f 153/153/153 155/155/155 154/154/154
f 156/156/156 154/154/154 155/155/155
f 157/157/157 159/159/159 158/158/158
f 160/160/160 158/158/158 159/159/159
f 159/159/159 161/161/161 160/160/160
f 162/162/162 160/160/160 161/161/161
f 161/161/161 163/163/163 162/162/162
f 164/164/164 162/162/162 163/163/163
f 163/163/163 165/165/165 164/164/164
f 166/166/166 164/164/164 165/165/165
f 165/165/165 167/167/167 166/166/166
f 168/168/168 166/166/166 167/167/167
f 169/169/169 171/171/171 170/170/170
f 172/172/172 170/170/170 171/171/171
f 171/171/171 173/173/173 172/172/172
f 174/174/174 172/172/172 173/173/173
f 173/173/173 175/175/175 174/174/174
f 176/176/176 174/174/174 175/175/175
f 175/175/175 177/177/177 176/176/176
f 178/178/178 176/176/176 177/177/177
f 177/177/177 179/179/179 178/178/178
f 180/180/180 178/178/178 179/179/179
f 181/181/181 183/183/183 182/182/182
f 184/184/184 182/182/182 183/183/183
f 183/183/183 185/185/185 184/184/184
f 186/186/186 184/184/184 185/185/185
f 185/185/185 187/187/187 186/186/186
f 188/188/188 186/186/186 187/187/187
f 187/187/187 189/189/189 188/188/188
f 190/190/190 188/188/188 189/189/189
f 189/189/189 191/191/191 190/190/190
f 192/192/192 190/190/190 191/191/191
f 193/193/193 195/195/195 194/194/194
f 196/196/196 194/194/194 195/195/195
f 195/195/195 197/197/197 196/196/196
f 198/198/198 196/196/196 197/197/197
f 197/197/197 199/199/199 198/198/198
f 200/200/200 198/198/198 199/199/199
f 199/199/199 201/201/201 200/200/200
f 202/202/202 200/200/200 201/201/201
f 201/201/201 203/203/203 202/202/202
f 204/204/204 202/202/202 203/203/203
f 205/205/205 207/207/207 206/206/206
f 208/208/208 206/206/206 207/207/207
f 207/207/207 209/209/209 208/208/208
f 210/210/210 208/208/208 209/209/209
f 209/209/209 211/211/211 210/210/210
f 212/212/212 210/210/210 211/211/211
f 211/211/211 213/213/213 212/212/212
f 214/214/214 212/212/212 213/213/213
f 213/213/213 215/215/215 214/214/214
f 216/216/216 214/214/214 215/215/215
f 217/217/217 219/219/219 218/218/218
f 220/220/220 218/218/218 219/219/219
f 219/219/219 221/221/221 220/220/220
f 222/222/222 220/220/220 221/221/221
f 221/221/221 223/223/223 222/222/222
f 224/224/224 222/222/222 223/223/223
f 223/223/223 225/225/225 224/224/224
f 226/226/226 224/224/224 225/225/225
f 225/225/225 227/227/227 226/226/226
f 228/228/228 226/226/226 227/227/227
f 229/229/229 231/231/231 230/230/230
f 232/232/232 230/230/230 231/231/231
f 231/231/231 233/233/233 232/232/232
f 234/234/234 232/232/232 233/233/233
f 233/233/233 235/235/235 234/234/234
f 236/236/236 234/234/234 235/235/235
f 235/235/235 237/237/237 236/236/236
f 238/238/238 236/236/236 237/237/237
f 237/237/237 239/239/239 238/238/238
f 240/240/240 238/238/238 239/239/239
f 241/241/241 243/243/243 242/242/242
f 244/244/244 242/242/242 243/243/243
f 243/243/243 245/245/245 244/244/244
f 246/246/246 244/244/244 245/245/245
f 245/245/245 247/247/247 246/246/246
f 248/248/248 246/246/246 247/247/247
f 247/247/247 249/249/249 248/248/248
f 250/250/250 248/248/248 249/249/249
f 249/249/249 251/251/251 250/250/250
f 252/252/252 250/250/250 251/251/251
f 253/253/253 255/255/255 254/254/254
f 256/256/256 254/254/254 255/255/255
f 255/255/255 257/257/257 256/256/256
f 258/258/258 256/256/256 257/257/257
f 257/257/257 259/259/259 258/258/258
f 260/260/260 258/258/258 259/259/259
f 259/259/259 261/261/261 260/260/260
f 262/262/262 260/260/260 261/261/261
f 261/261/261 263/263/263 262/262/262
f 264/264/264 262/262/262 263/263/263
f 265/265/265 267/267/267 266/266/266
f 268/268/268 266/266/266 267/267/267
f 267/267/267 269/269/269 268/268/268
f 270/270/270 268/268/268 269/269/269
f 269/269/269 271/271/271 270/270/270
f 272/272/272 270/270/270 271/271/271
f 271/271/271 273/273/273 272/272/272
f 274/274/274 272/272/272 273/273/273
f 273/273/273 275/275/275 274/274/274
f 276/276/276 274/274/274 275/275/275
f 277/277/277 279/279/279 278/278/278
f 280/280/280 278/278/278 279/279/279
f 279/279/279 281/281/281 280/280/280
f 282/282/282 280/280/280 281/281/281
f 281/281/281 283/283/283 282/282/282
f 284/284/284 282/282/282 283/283/283
f 283/283/283 285/285/285 284/284/284
f 286/286/286 284/284/284 285/285/285
f 285/285/285 287/287/287 286/286/286
f 288/288/288 286/286/286 287/287/287
f 289/289/289 291/291/291 290/290/290
f 292/292/292 290/290/290 291/291/291
f 291/291/291 293/293/293 292/292/292
f 294/294/294 292/292/292 293/293/293
f 293/293/293 295/295/295 294/294/294
f 296/296/296 294/294/294 295/295/295
f 295/295/295 297/297/297 296/296/296
f 298/298/298 296/296/296 297/297/297
f 297/297/297 299/299/299 298/298/298
f 300/300/300 298/298/298 299/299/299
f 301/301/301 303/303/303 302/302/302
f 304/304/304 302/302/302 303/303/303
f 303/303/303 305/305/305 304/304/304
f 306/306/306 304/304/304 305/305/305
f 305/305/305 307/307/307 306/306/306
f 308/308/308 306/306/306 307/307/307
f 307/307/307 309/309/309 308/308/308
f 310/310/310 308/308/308 309/309/309
f 309/309/309 311/311/311 310/310/310
f 312/312/312 310/310/310 311/311/311
f 313/313/313 315/315/315 314/314/314
f 316/316/316 314/314/314 315/315/315
f 315/315/315 317/317/317 316/316/316
f 318/318/318 316/316/316 317/317/317
f 317/317/317 319/319/319 318/318/318
f 320/320/320 318/318/318 319/319/319
f 319/319/319 321/321/321 320/320/320
f 322/322/322 320/320/320 321/321/321
f 321/321/321 323/323/323 322/322/322
f 324/324/324 322/322/322 323/323/323
f 325/325/325 327/327/327 326/326/326
f 328/328/328 326/326/326 327/327/327
f 327/327/327 329/329/329 328/328/328
f 330/330/330 328/328/328 329/329/329
f 329/329/329 331/331/331 330/330/330
f 332/332/332 330/330/330 331/331/331
f 331/331/331 333/333/333 332/332/332
f 334/334/334 332/332/332 333/333/333
f 333/333/333 335/335/335 334/334/334
f 336/336/336 334/334/334 335/335/335
f 337/337/337 339/339/339 338/338/338
f 340/340/340 338/338/338 339/339/339
f 339/339/339 341/341/341 340/340/340
f 342/342/342 340/340/340 341/341/341
f 341/341/341 343/343/343 342/342/342
f 344/344/344 342/342/342 343/343/343
f 343/343/343 345/345/345 344/344/344
f 346/346/346 344/344/344 345/345/345
f 345/345/345 347/347/347 346/346/346
f 348/348/348 346/346/346 347/347/347
f 349/349/349 351/351/351 350/350/350
f 352/352/352 350/350/350 351/351/351
f 351/351/351 353/353/353 352/352/352
f 354/354/354 352/352/352 353/353/353
f 353/353/353 355/355/355 354/354/354
f 356/356/356 354/354/354 355/355/355
f 355/355/355 357/357/357 356/356/356
f 358/358/358 356/356/356 357/357/357
f 357/357/357 359/359/359 358/358/358
f 360/360/360 358/358/358 359/359/359
f 361/361/361 363/363/363 362/362/362
f 364/364/364 362/362/362 363/363/363
f 363/363/363 365/365/365 364/364/364
f 366/366/366 364/364/364 365/365/365
f 365/365/365 367/367/367 366/366/366
f 368/368/368 366/366/366 367/367/367
f 367/367/367 369/369/369 368/368/368
f 370/370/370 368/368/368 369/369/369
f 369/369/369 371/371/371 370/370/370
f 372/372/372 370/370/370 371/371/371
f 373/373/373 375/375/375 374/374/374
f 376/376/376 374/374/374 375/375/375
f 375/375/375 377/377/377 376/376/376
f 378/378/378 376/376/376 377/377/377
f 377/377/377 379/379/379 378/378/378
f 380/380/380 378/378/378 379/379/379
f 379/379/379 381/381/381 380/380/380
f 382/382/382 380/380/380 381/381/381
f 381/381/381 383/383/383 382/382/382
f 384/384/384 382/382/382 383/383/383
f 385/385/385 387/387/387 386/386/386
f 388/388/388 386/386/386 387/387/387
f 387/387/387 389/389/389 388/388/388
f 390/390/390 388/388/388 389/389/389
f 389/389/389 391/391/391 390/390/390
f 392/392/392 390/390/390 391/391/391
f 391/391/391 393/393/393 392/392/392
f 394/394/394 392/392/392 393/393/393
f 393/393/393 395/395/395 394/394/394
f 396/396/396 394/394/394 395/395/395
f 397/397/397 399/399/399 398/398/398
f 400/400/400 398/398/398 399/399/399
f 399/399/399 401/401/401 400/400/400
f 402/402/402 400/400/400 401/401/401
f 401/401/401 403/403/403 402/402/402
f 404/404/404 402/402/402 403/403/403
f 403/403/403 405/405/405 404/404/404
f 406/406/406 404/404/404 405/405/405
f 405/405/405 407/407/407 406/406/406
f 408/408/408 406/406/406 407/407/407
f 409/409/409 411/411/411 410/410/410
f 412/412/412 410/410/410 411/411/411
f 411/411/411 413/413/413 412/412/412
f 414/414/414 412/412/412 413/413/413
f 413/413/413 415/415/415 414/414/414
f 416/416/416 414/414/414 415/415/415
f 415/415/415 417/417/417 416/416/416
f 418/418/418 416/416/416 417/417/417
f 417/417/417 419/419/419 418/418/418
f 420/420/420 418/418/418 419/419/419
f 421/421/421 423/423/423 422/422/422
f 424/424/424 422/422/422 423/423/423
f 423/423/423 425/425/425 424/424/424
f 426/426/426 424/424/424 425/425/425
f 425/425/425 427/427/427 426/426/426
f 428/428/428 426/426/426 427/427/427
f 427/427/427 429/429/429 428/428/428
f 430/430/430 428/428/428 429/429/429
f 429/429/429 431/431/431 430/430/430
f 432/432/432 430/430/430 431/431/431
f 433/433/433 435/435/435 434/434/434
f 436/436/436 434/434/434 435/435/435
f 435/435/435 437/437/437 436/436/436
f 438/438/438 436/436/436 437/437/437
f 437/437/437 439/439/439 438/438/438
f 440/440/440 438/438/438 439/439/439
f 439/439/439 441/441/441 440/440/440
f 442/442/442 440/440/440 441/441/441
f 441/441/441 443/443/443 442/442/442
f 444/444/444 442/442/442 443/443/443
f 445/445/445 447/447/447 446/446/446
f 448/448/448 446/446/446 447/447/447
f 447/447/447 449/449/449 448/448/448
f 450/450/450 448/448/448 449/449/449
f 449/449/449 451/451/451 450/450/450
f 452/452/452 450/450/450 451/451/451
f 451/451/451 453/453/453 452/452/452
f 454/454/454 452/452/452 453/453/453
f 453/453/453 455/455/455 454/454/454
f 456/456/456 454/454/454 455/455/455
f 457/457/457 459/459/459 458/458/458
f 460/460/460 458/458/458 459/459/459
f 459/459/459 461/461/461 460/460/460
f 462/462/462 460/460/460 461/461/461
f 461/461/461 463/463/463 462/462/462
f 464/464/464 462/462/462 463/463/463
f 463/463/463 465/465/465 464/464/464
f 466/466/466 464/464/464 465/465/465
f 465/465/465 467/467/467 466/466/466
f 468/468/468 466/466/466 467/467/467
f 469/469/469 471/471/471 470/470/470
f 472/472/472 470/470/470 471/471/471
f 471/471/471 473/473/473 472/472/472
f 474/474/474 472/472/472 473/473/473
f 473/473/473 475/475/475 474/474/474
f 476/476/476 474/474/474 475/475/475
f 475/475/475 477/477/477 476/476/476
f 478/478/478 476/476/476 477/477/477
f 477/477/477 479/479/479 478/478/478
f 480/480/480 478/478/478 479/479/479
f 481/481/481 483/483/483 482/482/482
f 484/484/484 482/482/482 483/483/483
f 483/483/483 485/485/485 484/484/484
f 486/486/486 484/484/484 485/485/485
f 485/485/485 487/487/487 486/486/486
f 488/488/488 486/486/486 487/487/487
f 487/487/487 489/489/489 488/488/488
f 490/490/490 488/488/488 489/489/489
f 489/489/489 491/491/491 490/490/490
f 492/492/492 490/490/490 491/491/491
f 493/493/493 495/495/495 494/494/494
f 496/496/496 494/494/494 495/495/495
f 495/495/495 497/497/497 496/496/496
f 498/498/498 496/496/496 497/497/497
f 497/497/497 499/499/499 498/498/498
f 500/500/500 498/498/498 499/499/499
f 499/499/499 501/501/501 500/500/500
f 502/502/502 500/500/500 501/501/501
f 501/501/501 503/503/503 502/502/502
f 504/504/504 502/502/502 503/503/503
f 505/505/505 507/507/507 506/506/506
f 508/508/508 506/506/506 507/507/507
f 507/507/507 509/509/509 508/508/508
f 510/510/510 508/508/508 509/509/509
f 509/509/509 511/511/511 510/510/510
f 512/512/512 510/510/510 511/511/511
f 511/511/511 513/513/513 512/512/512
f 514/514/514 512/512/512 513/513/513
f 513/513/513 515/515/515 514/514/514
f 516/516/516 514/514/514 515/515/515
f 517/517/517 519/519/519 518/518/518
f 520/520/520 518/518/518 519/519/519
f 519/519/519 521/521/521 520/520/520
f 522/522/522 520/520/520 521/521/521
f 521/521/521 523/523/523 522/522/522
f 524/524/524 522/522/522 523/523/523
f 523/523/523 525/525/525 524/524/524
f 526/526/526 524/524/524 525/525/525
f 525/525/525 527/527/527 526/526/526
f 528/528/528 526/526/526 527/527/527
f 529/529/529 531/531/531 530/530/530
f 532/532/532 530/530/530 531/531/531
f 531/531/531 533/533/533 532/532/532
f 534/534/534 532/532/532 533/533/533
f 533/533/533 535/535/535 534/534/534
f 536/536/536 534/534/534 535/535/535
f 535/535/535 537/537/537 536/536/536
f 538/538/538 536/536/536 537/537/537
f 537/537/537 539/539/539 538/538/538
f 540/540/540 538/538/538 539/539/539
f 541/541/541 543/543/543 542/542/542
f 544/544/544 542/542/542 543/543/543
f 543/543/543 545/545/545 544/544/544
f 546/546/546 544/544/544 545/545/545
f 545/545/545 547/547/547 546/546/546
f 548/548/548 546/546/546 547/547/547
f 547/547/547 549/549/549 548/548/548
f 550/550/550 548/548/548 549/549/549
f 549/549/549 551/551/551 550/550/550
f 552/552/552 550/550/550 551/551/551
f 553/553/553 555/555/555 554/554/554
f 556/556/556 554/554/554 555/555/555
f 555/555/555 557/557/557 556/556/556
f 558/558/558 556/556/556 557/557/557
f 557/557/557 559/559/559 558/558/558
f 560/560/560 558/558/558 559/559/559
f 559/559/559 561/561/561 560/560/560
f 562/562/562 560/560/560 561/561/561
f 561/561/561 563/563/563 562/562/562
f 564/564/564 562/562/562 563/563/563
f 565/565/565 567/567/567 566/566/566
f 568/568/568 566/566/566 567/567/567
f 567/567/567 569/569/569 568/568/568
f 570/570/570 568/568/568 569/569/569
f 569/569/569 571/571/571 570/570/570
f 572/572/572 570/570/570 571/571/571
f 571/571/571 573/573/573 572/572/572
f 574/574/574 572/572/572 573/573/573
f 573/573/573 575/575/575 574/574/574
f 576/576/576 574/574/574 575/575/575
f 577/577/577 579/579/579 578/578/578
f 580/580/580 578/578/578 579/579/579
f 579/579/579 581/581/581 580/580/580
f 582/582/582 580/580/580 581/581/581
f 581/581/581 583/583/583 582/582/582
f 584/584/584 582/582/582 583/583/583
f 583/583/583 585/585/585 584/584/584
f 586/586/586 584/584/584 585/585/585
f 585/585/585 587/587/587 586/586/586
f 588/588/588 586/586/586 587/587/587
f 589/589/589 591/591/591 590/590/590
f 592/592/592 590/590/590 591/591/591
f 591/591/591 593/593/593 592/592/592
f 594/594/594 592/592/592 593/593/593
f 593/593/593 595/595/595 594/594/594
f 596/596/596 594/594/594 595/595/595
f 595/595/595 597/597/597 596/596/596
f 598/598/598 596/596/596 597/597/597
f 597/597/597 599/599/599 598/598/598
f 600/600/600 598/598/598 599/599/599
f 601/601/601 603/603/603 602/602/602
f 604/604/604 602/602/602 603/603/603
f 603/603/603 605/605/605 604/604/604
f 606/606/606 604/604/604 605/605/605
f 605/605/605 607/607/607 606/606/606
f 608/608/608 606/606/606 607/607/607
f 607/607/607 609/609/609 608/608/608
f 610/610/610 608/608/608 609/609/609
f 609/609/609 611/611/611 610/610/610
f 612/612/612 610/610/610 611/611/611
f 613/613/613 615/615/615 614/614/614
f 616/616/616 614/614/614 615/615/615
f 615/615/615 617/617/617 616/616/616
f 618/618/618 616/616/616 617/617/617
f 617/617/617 619/619/619 618/618/618
f 620/620/620 618/618/618 619/619/619
f 619/619/619 621/621/621 620/620/620
f 622/622/622 620/620/620 621/621/621
f 621/621/621 623/623/623 622/622/622
f 624/624/624 622/622/622 623/623/623
f 625/625/625 627/627/627 626/626/626
f 628/628/628 626/626/626 627/627/627
f 627/627/627 629/629/629 628/628/628
f 630/630/630 628/628/628 629/629/629
f 629/629/629 631/631/631 630/630/630
f 632/632/632 630/630/630 631/631/631
f 631/631/631 633/633/633 632/632/632
f 634/634/634 632/632/632 633/633/633
f 633/633/633 635/635/635 634/634/634
f 636/636/636 634/634/634 635/635/635
f 637/637/637 639/639/639 638/638/638
f 640/640/640 638/638/638 639/639/639
f 639/639/639 641/641/641 640/640/640
f 642/642/642 640/640/640 641/641/641
f 641/641/641 643/643/643 642/642/642
f 644/644/644 642/642/642 643/643/643
f 643/643/643 645/645/645 644/644/644
f 646/646/646 644/644/644 645/645/645
f 645/645/645 647/647/647 646/646/646
f 648/648/648 646/646/646 647/647/647

g ring4
# texture: ring4.jpg
v 199.9624 85.8743 346.381
v -0.024717 85.8743 -0.007205
v -346.4084 85.8743 200.0028
v -146.4102 85.8742 546.41
v 346.3589 85.8742 -200.0173
v 546.3351 85.8742 146.3519
v -200.0119 85.8742 -346.3953
v 146.3828 85.8742 -546.3864
v -546.4065 85.8743 -146.4044
vn 0 1 -0
vn 0 1 -0
vn 0 1 -0
vn 0 1 -0
vn 0 1 -0
vn 0 1 -0
vn 0 1 -0
vn 0 1 -0
vn 0 1 -0
vt 0.0006 0.5
vt 0.5 0.5
vt 0.5 0.9995
vt 0.0005 0.9995
vt 0.5001 0.0005
vt 0.0006 0.0005
vt 0.9995 0.5
vt 0.9995 0.0005
vt 0.9995 0.9995
f 649/649/649 651/651/651 650/650/650
f 651/651/651 649/649/649 652/652/652
f 649/649/649 650/650/650 653/653/653
f 653/653/653 654/654/654 649/649/649
f 655/655/655 653/653/653 650/650/650
f 653/653/653 655/655/655 656/656/656
f 655/655/655 650/650/650 651/651/651
f 651/651/651 657/657/657 655/655/655
