# Inferno01.bmd — MU geometry at action 0 key 7, exported for MU2
# 2 mesh(es)

g ring3
# texture: ring3.jpg
v 59.57639 245.0107 336.113
v 59.57629 139.1934 336.113
v -34.2619 245.0107 334.8027
v -34.26196 139.1934 334.8027
v -124.7398 245.0108 309.8808
v -124.7398 139.1935 309.8808
v -206.0141 245.0108 262.9572
v -206.0141 139.1935 262.9572
v -272.8359 245.0108 197.062
v -272.8359 139.1935 197.0618
v -320.8899 245.0108 116.4507
v -320.8898 139.1935 116.4507
v 54.67007 161.755 293.0514
v 64.4826 222.4492 379.1747
v -28.15529 161.7549 291.8947
v -40.36868 222.4492 377.7106
v -108.0146 161.755 269.8978
v -141.4651 222.4493 349.864
v -179.7504 161.7549 228.4812
v -232.2778 222.4493 297.4333
v -238.73 161.755 170.3194
v -306.9419 222.4493 223.8044
v -281.1443 161.755 99.16885
v -360.6354 222.4493 133.7326
v 54.98819 226.1111 295.8431
v 64.16446 158.0931 376.3829
v -28.55113 226.1111 294.6766
v -39.97275 158.093 374.9288
v -109.099 226.1111 272.4901
v -140.3807 158.0931 347.2718
v -181.4531 226.1112 230.7163
v -230.575 158.0931 295.1981
v -240.9411 226.1111 172.0532
v -304.7307 158.0931 222.0706
v -283.721 226.1111 100.2893
v -358.0586 158.0931 132.6122
v -236.2232 226.0919 91.97772
v -236.2232 158.1123 91.97772
v -248.694 226.0919 23.76193
v -248.694 158.1123 23.76193
v -242.0254 226.0919 -48.37542
v -242.0255 158.1123 -48.37548
v -216.856 226.0919 -117.5279
v -216.856 158.1123 -117.5279
v -175.5954 226.0919 -177.0749
v -175.5954 158.1123 -177.0749
v -122.1939 226.0919 -221.3152
v -122.1941 158.1123 -221.3151
v -209.4041 172.6064 76.35632
v -263.0424 211.5979 107.5991
v -220.0906 172.6064 17.90105
v -277.2976 211.5979 29.62274
v -214.3762 172.6064 -43.91458
v -269.6748 211.5979 -52.83627
v -192.8081 172.6064 -103.1725
v -240.9041 211.5979 -131.8834
v -157.4512 172.6064 -154.1992
v -193.7398 211.5979 -199.9505
v -111.6907 172.6064 -192.1094
v -132.6974 211.5978 -250.5208
v -211.1428 213.9504 77.36914
v -261.3036 170.2539 106.5864
v -221.945 213.9504 18.28104
v -275.4431 170.2539 29.24283
v -216.1687 213.9504 -44.20379
v -267.8823 170.2539 -52.54704
v -194.3672 213.9503 -104.1032
v -239.345 170.2539 -130.9528
v -158.6276 213.9503 -155.6823
v -192.5634 170.2539 -198.4675
v -112.3715 213.9503 -194.0029
v -132.0164 170.2539 -248.6273
v -88.66364 245.0107 -329.6519
v -88.6637 139.1934 -329.6519
v 4.931824 245.0107 -336.5251
v 4.931824 139.1934 -336.5251
v 97.23747 245.0107 -319.5838
v 97.2374 139.1934 -319.5839
v 182.2921 245.0107 -279.9221
v 182.2921 139.1934 -279.9221
v 254.6028 245.0107 -220.1015
v 254.6028 139.1934 -220.1015
v 309.4996 245.0107 -143.9853
v 309.4996 139.1934 -143.9853
v -80.02295 161.7549 -287.1817
v -97.30423 222.4493 -372.1221
v 2.587952 161.7549 -293.2482
v 7.275513 222.4492 -379.802
v 84.06052 161.7549 -278.2952
v 110.4143 222.4492 -360.8724
v 159.1331 161.7549 -243.2883
v 205.4511 222.4492 -316.5561
v 222.9574 161.7549 -190.4883
v 286.2482 222.4492 -249.7148
v 271.4114 161.7549 -123.3051
v 347.5877 222.4492 -164.6655
v -80.58319 226.1111 -289.9351
v -96.74408 158.0931 -369.3686
v 2.73996 226.1111 -296.054
v 7.123627 158.093 -376.9962
v 84.91492 226.1111 -280.9721
v 109.56 158.093 -358.1957
v 160.6346 226.1111 -245.6634
v 203.9495 158.093 -314.1809
v 225.009 226.111 -192.4082
v 284.1965 158.093 -247.7949
v 273.8808 226.1111 -124.6458
v 345.1183 158.093 -163.3246
v 239.3641 226.0918 82.06824
v 239.3641 158.1122 82.06824
v 205.0691 226.0919 142.3406
v 205.0691 158.1122 142.3406
v 153.5916 226.0919 193.3146
v 153.5916 158.1122 193.3146
v 89.86035 226.0919 230.11
v 89.86035 158.1123 230.11
v 19.97693 226.0919 249.2037
v 19.97693 158.1123 249.2037
v -49.36809 226.0919 248.7679
v -49.36804 158.1123 248.7679
v 208.7782 172.6063 76.79597
v 269.95 211.5978 87.34054
v 179.3902 172.6063 128.4443
v 230.7479 211.5978 156.237
v 135.2784 172.6063 172.1248
v 171.9049 211.5978 214.5044
v 80.66605 172.6063 203.6552
v 99.05463 211.5978 256.5646
v 20.78174 172.6063 220.017
v 19.17203 211.5978 278.3904
v -38.64104 172.6063 219.6436
v -60.09508 211.5978 277.8922
v 210.7612 213.9503 77.13774
v 267.9672 170.2538 86.99883
v 181.0551 213.9503 129.3453
v 229.0831 170.2538 155.3361
v 136.4657 213.9503 173.4986
v 170.7176 170.2538 213.1308
v 81.26212 213.9503 205.3704
v 98.45856 170.2538 254.8495
v 20.72957 213.9503 221.9093
v 19.22412 170.2539 276.4982
v -39.33652 213.9503 221.5318
v -59.39957 170.2539 276.004
v 73.26941 229.1529 78.2523
v 73.26941 155.0512 78.2523
v 40.40784 229.153 96.23483
v 40.40784 155.0512 96.23483
v 7.187881 229.153 103.8931
v 7.187828 155.0512 103.8932
v -25.53567 229.153 101.0301
v -25.53572 155.0512 101.0302
v -56.92117 229.153 87.71961
v -56.92117 155.0512 87.71961
v -86.1608 229.153 64.30392
v -86.1608 155.0513 64.30392
v 69.80917 170.8506 49.9052
v 76.72969 213.3536 106.5993
v 39.37782 170.8506 66.55786
v 41.43791 213.3536 125.9117
v 8.61451 170.8506 73.64986
v 5.7612 213.3536 134.1364
v -21.68906 170.8506 70.99858
v -29.38243 213.3536 131.0617
v -50.75337 170.8506 58.67245
v -63.08891 213.3536 116.7669
v -77.8307 170.8506 36.98838
v -94.49097 213.3536 91.6194
v 70.03352 215.9179 51.74299
v 76.50533 168.2862 104.7615
v 39.44453 215.9179 68.4819
v 41.37114 168.2862 123.9878
v 8.522087 215.9179 75.61053
v 5.853775 168.2862 132.1757
v -21.93835 215.918 72.94557
v -29.133 168.2862 129.1147
v -51.15322 215.918 60.55561
v -62.68899 168.2863 114.8836
v -78.37074 215.9179 38.75933
v -93.95086 168.2863 89.8485
v -42.76019 229.153 -97.6694
v -42.76015 155.0512 -97.66948
v -5.730019 229.153 -103.3282
v -5.730019 155.0512 -103.3282
v 28.10583 229.153 -99.16277
v 28.10583 155.0512 -99.16277
v 57.87675 229.1529 -85.28031
v 57.87675 155.0512 -85.28031
v 82.81697 229.1529 -62.03804
v 82.81689 155.0512 -62.03809
v 102.2847 229.1529 -30.03386
v 102.2846 155.0512 -30.03392
v -49.20387 170.8506 -69.84842
v -36.31657 213.3536 -125.4905
v -14.91215 170.8506 -75.08864
v 3.452095 213.3536 -131.5677
v 16.42138 170.8506 -71.23129
v 39.79023 213.3536 -127.0942
v 43.99067 170.8506 -58.3755
v 71.76285 213.3536 -112.1851
v 67.08644 170.8506 -36.85215
v 98.54742 213.3536 -87.22401
v 85.11446 170.8506 -7.214788
v 119.4548 213.3536 -52.85307
v -48.78606 215.918 -71.65207
v -36.73428 168.2863 -123.6868
v -14.31688 215.9179 -76.91948
v 2.856819 168.2862 -129.7368
v 17.17889 215.9179 -73.04214
v 39.03272 168.2862 -125.2833
v 44.89091 215.9179 -60.11976
v 70.86255 168.2862 -110.4408
v 68.10629 215.9179 -38.48497
v 97.52757 168.2862 -85.59117
v 86.22762 215.9179 -8.694212
v 118.3417 168.2862 -51.37364
v 58.97473 12.2553 336.2358
v 58.97485 118.0726 336.2358
v 146.7057 12.2553 302.9098
v 146.7058 118.0726 302.9099
v 223.2035 12.2553 248.5457
v 223.2035 118.0726 248.5457
v 283.5274 12.2552 176.6544
v 283.5274 118.0726 176.6544
v 323.782 12.2552 91.87872
v 323.782 118.0726 91.87865
v 341.3672 12.2552 -0.306561
v 341.3672 118.0726 -0.306454
v 48.85716 95.51111 294.0929
v 69.09238 34.8168 378.3785
v 126.292 95.51111 264.6783
v 167.1196 34.8168 341.1414
v 193.8118 95.51111 216.6943
v 252.5951 34.8168 280.3971
v 247.0562 95.51111 153.2403
v 319.9987 34.8168 200.0685
v 282.5863 95.51111 78.41384
v 364.9776 34.8168 105.3434
v 298.1077 95.51111 -2.952358
v 384.6266 34.8168 2.339351
v 49.51308 31.15491 296.8252
v 68.43646 99.173 375.6463
v 127.6155 31.15491 267.1569
v 165.7961 99.173 338.6628
v 195.7174 31.15491 218.7594
v 250.6895 99.173 278.3321
v 249.4207 31.15491 154.7583
v 317.6342 99.173 198.5506
v 285.2572 31.15491 79.28684
v 362.3068 99.173 104.4705
v 300.9124 31.15491 -2.780831
v 381.8221 99.173 2.16782
v 253.4363 31.1741 5.65406
v 253.4363 99.15381 5.65406
v 241.8239 31.1741 -62.71306
v 241.8239 99.15381 -62.71306
v 210.8849 31.1741 -128.2193
v 210.8849 99.15381 -128.2193
v 163.5819 31.1741 -184.5929
v 163.5819 99.1537 -184.5929
v 104.4433 31.1741 -226.4368
v 104.4433 99.1537 -226.4368
v 39.13124 31.1741 -249.7446
v 39.13132 99.1537 -249.7445
v 222.8917 84.6597 0.147453
v 283.9809 45.6682 11.16072
v 212.9408 84.6597 -58.43747
v 270.7069 45.6682 -66.98867
v 186.4288 84.6597 -114.5708
v 235.3412 45.6682 -141.8677
v 145.894 84.6597 -162.8783
v 181.2698 45.6682 -206.3076
v 95.21713 84.6597 -198.7349
v 113.6694 45.6682 -254.1385
v 39.25027 84.6597 -218.7078
v 39.01232 45.6682 -280.7814
v 224.8719 43.3157 0.504486
v 282.0006 87.01221 10.80362
v 214.8134 43.3157 -58.71464
v 268.8344 87.01221 -66.71146
v 188.0144 43.3157 -115.4556
v 233.7557 87.01221 -140.9829
v 147.0407 43.3157 -164.2861
v 180.123 87.01221 -204.8998
v 95.81528 43.3157 -200.5309
v 113.0712 87.01221 -252.3426
v 39.24255 43.3157 -220.72
v 39.02002 87.01221 -278.7691
v -29.43041 12.2553 -340.0798
v -29.43041 118.0726 -340.0798
v -119.7321 12.2553 -314.527
v -119.7321 118.0726 -314.527
v -200.6768 12.2553 -267.0369
v -200.6768 118.0726 -267.0369
v -267.037 12.2552 -200.6766
v -267.037 118.0726 -200.6766
v -314.5269 12.2552 -119.732
v -314.5269 118.0726 -119.732
v -340.0798 12.2552 -29.43025
v -340.0798 118.0726 -29.43032
v -23.02421 95.51111 -297.2156
v -35.83652 34.8168 -382.944
v -102.7281 95.51111 -274.6616
v -136.7361 34.8168 -354.3922
v -174.1731 95.51111 -232.7451
v -227.1806 34.8168 -301.3287
v -232.7451 95.51111 -174.173
v -301.3289 34.8168 -227.1805
v -274.6617 95.51111 -102.728
v -354.3923 34.8168 -136.736
v -297.2156 95.51111 -23.02413
v -382.9439 34.8168 -35.83635
v -23.43958 31.15491 -299.9945
v -35.42114 99.173 -380.1649
v -103.8305 31.15491 -277.2462
v -135.6337 99.173 -351.8076
v -175.8914 31.15491 -234.9684
v -225.4622 99.173 -299.1055
v -234.9684 31.15491 -175.8912
v -299.1056 99.173 -225.4622
v -277.2463 31.15491 -103.8304
v -351.8078 99.173 -135.6336
v -299.9945 31.15491 -23.43948
v -380.165 99.173 -35.42099
v -196.859 31.1741 159.0028
v -196.859 99.15381 159.0028
v -144.0178 31.1741 203.9108
v -144.0178 99.15381 203.9108
v -78.21072 31.1741 234.2043
v -78.21072 99.15381 234.2043
v -5.738071 31.1741 246.9831
v -5.738071 99.1537 246.9831
v 66.46142 31.1741 241.0238
v 66.46142 99.1537 241.0238
v 131.4752 31.1741 216.8969
v 131.4752 99.1537 216.8969
v -169.9209 84.6597 143.5875
v -223.7971 45.6682 174.4182
v -124.6404 84.6597 182.0698
v -163.3952 45.6682 225.7517
v -68.2492 84.6597 208.0289
v -88.17215 45.6682 260.3799
v -6.146278 84.6597 218.9792
v -5.329926 45.6682 274.9871
v 55.72258 84.6597 213.8727
v 77.20017 45.6682 268.1751
v 111.434 84.6597 193.1979
v 151.5165 45.6682 240.596
v -171.6673 43.3157 144.5869
v -222.0506 87.01221 173.4188
v -125.8967 43.3157 183.4858
v -162.1389 87.01221 224.3358
v -68.89509 43.3157 209.7259
v -87.52628 87.01221 258.6828
v -6.119835 43.3157 220.7948
v -5.356377 87.01221 273.1716
v 56.4188 43.3157 215.6329
v 76.50397 87.01221 266.4148
v 112.7334 43.3157 194.7344
v 150.2172 87.01221 239.0595
v -42.08614 28.1131 98.60915
v -42.08607 102.2148 98.60923
v -5.055943 28.1131 104.268
v -5.055943 102.2148 104.268
v 28.77989 28.1131 100.1025
v 28.77989 102.2148 100.1025
v 58.55085 28.11301 86.22005
v 58.55085 102.2148 86.22005
v 83.491 28.11301 62.97781
v 83.491 102.2148 62.97781
v 102.9587 28.11301 30.97367
v 102.9587 102.2148 30.97367
v -48.52987 86.41541 70.78818
v -35.64241 43.9124 126.4303
v -14.23815 86.4155 76.0284
v 4.126266 43.9124 132.5074
v 17.09552 86.4155 72.17106
v 40.46434 43.9124 128.034
v 44.66476 86.4155 59.3153
v 72.43702 43.9124 113.1249
v 67.76048 86.4155 37.79188
v 99.22153 43.9124 88.16376
v 85.78845 86.4155 8.154482
v 120.129 43.9124 53.7927
v -48.11211 41.3481 72.59187
v -36.06024 88.9798 124.6265
v -13.64284 41.3481 77.85931
v 3.530951 88.9798 130.6767
v 17.85297 41.3481 73.98196
v 39.70681 88.9798 126.2231
v 45.56497 41.3481 61.05951
v 71.53666 88.9798 111.3805
v 68.78035 41.3481 39.42466
v 98.20164 88.9798 86.53083
v 86.90166 41.3481 9.633965
v 119.0158 88.9798 52.31337
v 6.777241 28.1131 -106.3877
v 6.777241 102.2148 -106.3877
v -29.95518 28.1131 -99.04007
v -29.95518 102.2148 -99.04007
v -60.32584 28.1131 -83.55329
v -60.32584 102.2148 -83.55329
v -83.55323 28.11301 -60.32575
v -83.55323 102.2148 -60.32575
v -99.04007 28.11301 -29.95516
v -99.04007 102.2148 -29.95516
v -106.3877 28.11301 6.777279
v -106.3877 102.2148 6.777279
v 22.34767 86.41541 -82.44837
v -8.793184 43.9124 -130.327
v -11.66826 86.4155 -75.64403
v -48.2421 43.9124 -122.436
v -39.79287 86.4155 -61.30262
v -80.85867 43.9124 -105.804
v -61.30263 86.4155 -39.79285
v -105.8039 43.9124 -80.85872
v -75.64403 86.4155 -11.66824
v -122.436 43.9124 -48.24205
v -82.4483 86.4155 22.34763
v -130.327 43.9124 -8.793139
v 21.3382 41.3481 -84.00033
v -7.783785 88.9798 -128.7749
v -12.8538 41.3481 -77.16091
v -47.05649 88.9798 -120.9192
v -41.12414 41.3481 -62.74519
v -79.52754 88.9798 -104.3614
v -62.74513 41.3481 -41.12405
v -104.3614 88.9798 -79.52751
v -77.16084 41.3481 -12.85385
v -120.9192 88.9798 -47.05646
v -84.00033 41.3481 21.33824
v -128.7749 88.9798 -7.783669
v 168.9822 100.4298 -200.9955
v 168.9822 181.8277 -200.9956
v 105.9657 100.4298 -236.2143
v 105.9657 181.8277 -236.2143
v 36.1064 100.4298 -254.4113
v 36.1064 181.8277 -254.4113
v -36.0839 100.4298 -254.4113
v -36.0839 181.8277 -254.4113
v -105.9432 100.4298 -236.2144
v -105.9432 181.8277 -236.2143
v -168.9598 100.4297 -200.9956
v -168.9598 181.8277 -200.9956
v 149.1516 164.4727 -174.196
v 188.8128 117.7848 -227.7951
v 93.5308 164.4727 -205.2815
v 118.4006 117.7848 -267.1471
v 31.8702 164.4727 -221.3429
v 40.3426 117.7848 -287.4797
v -31.8478 164.4727 -221.3429
v -40.3201 117.7848 -287.4798
v -93.5083 164.4727 -205.2816
v -118.3781 117.7848 -267.1472
v -149.1292 164.4727 -174.1961
v -188.7904 117.7848 -227.7951
v 150.4373 114.968 -175.9335
v 187.5272 167.2895 -226.0576
v 94.3369 114.968 -207.287
v 117.5944 167.2895 -265.1417
v 32.1449 114.968 -223.4868
v 40.0679 167.2895 -285.3358
v -32.1224 114.9679 -223.4868
v -40.0455 167.2896 -285.3358
v -94.3145 114.968 -207.287
v -117.5719 167.2896 -265.1417
v -150.4149 114.968 -175.9336
v -187.5047 167.2896 -226.0576
v -121.9698 114.9827 -152.1283
v -121.9698 167.2748 -152.1283
v -156.5144 114.9827 -111.4812
v -156.5144 167.2748 -111.4812
v -179.8171 114.9827 -60.8603
v -179.8171 167.2748 -60.8603
v -189.647 114.9827 -5.1122
v -189.647 167.2748 -5.1122
v -185.0629 114.9827 50.4258
v -185.0629 167.2748 50.4258
v -166.5038 114.9827 100.4365
v -166.5038 167.2748 100.4365
v -110.1118 156.1254 -131.4066
v -133.8278 126.132 -172.8499
v -139.7137 156.1255 -96.5755
v -173.3151 126.132 -126.3869
v -159.6821 156.1255 -53.1977
v -199.9521 126.132 -68.523
v -168.1055 156.1255 -5.4262
v -211.1885 126.132 -4.7982
v -164.1774 156.1255 42.1653
v -205.9485 126.132 58.6864
v -148.2737 156.1255 85.0202
v -184.7339 126.132 115.8528
v -110.8806 124.3224 -132.75
v -133.059 157.9351 -171.5064
v -140.8029 124.3224 -97.5419
v -172.2259 157.9351 -125.4205
v -160.9875 124.3224 -53.6945
v -198.6467 157.9351 -68.0262
v -169.5022 124.3224 -5.4058
v -209.7919 157.9351 -4.8186
v -165.5314 124.3224 42.7008
v -204.5945 157.9351 58.1509
v -149.4556 124.3224 86.0197
v -183.552 157.9351 114.8533
v -185.8347 100.4298 185.5039
v -185.8347 181.8277 185.5039
v -126.1275 100.4298 226.0809
v -126.1275 181.8277 226.0809
v -58.12 100.4298 250.2973
v -58.12 181.8277 250.2973
v 13.7956 100.4297 256.5891
v 13.7956 181.8277 256.5891
v 84.975 100.4297 244.55
v 84.975 181.8277 244.55
v 150.8213 100.4297 214.9575
v 150.8213 181.8277 214.9575
v -163.7439 164.4727 160.5347
v -207.9256 117.7848 210.4731
v -111.0439 164.4727 196.3496
v -141.2111 117.7848 255.8122
v -51.0179 164.4727 217.7239
v -65.2222 117.7848 282.8707
v 12.4577 164.4727 223.2773
v 15.1335 117.7848 289.9009
v 75.2834 164.4727 212.6511
v 94.6666 117.7848 276.4489
v 133.4019 164.4727 186.5316
v 168.2407 117.7848 243.3834
v -165.1761 114.968 162.1535
v -206.4934 167.2896 208.8543
v -112.0218 114.968 198.2771
v -140.2332 167.2896 253.8847
v -51.4783 114.968 219.8357
v -64.7617 167.2896 280.7589
v 12.5444 114.9679 225.437
v 15.0468 167.2896 287.7412
v 75.9117 114.968 214.7192
v 94.0383 167.2896 274.3808
v 134.5313 114.968 188.3746
v 167.1113 167.2896 241.5405
v 191.0426 114.9827 37.3915
v 191.0426 167.2748 37.3914
v 191.3778 114.9827 -15.9508
v 191.3778 167.2748 -15.9508
v 176.6903 114.9827 -69.7074
v 176.6903 167.2748 -69.7074
v 148.3862 114.9827 -118.7315
v 148.3862 167.2747 -118.7314
v 109.1754 114.9827 -158.3295
v 109.1754 167.2747 -158.3295
v 62.8121 114.9827 -184.7103
v 62.8121 167.2747 -184.7103
v 168.6392 156.1254 29.1399
v 213.4459 126.132 45.643
v 168.9265 156.1255 -16.57
v 213.8291 126.132 -15.3317
v 156.3405 156.1255 -62.6348
v 197.04 126.132 -76.7799
v 132.0863 156.1255 -104.6443
v 164.6861 126.132 -132.8186
v 98.486 156.1255 -138.5765
v 119.8649 126.132 -178.0824
v 58.7564 156.1255 -161.1826
v 66.8677 126.132 -208.2379
v 170.0917 124.3224 29.6749
v 211.9934 157.9351 45.108
v 170.3821 124.3224 -16.5298
v 212.3735 157.9351 -15.3718
v 157.6599 124.3224 -63.0933
v 195.7207 157.9351 -76.3214
v 133.1431 124.3224 -105.5576
v 163.6294 157.9351 -131.9053
v 99.179 124.3224 -139.8571
v 119.1719 157.9351 -176.8018
v 59.0194 124.3224 -162.708
v 66.6048 157.9351 -206.7126
v 78.927 112.6281 -23.949
v 78.927 169.6294 -23.9491
v 63.9518 112.6281 -48.5676
v 63.9518 169.6294 -48.5676
v 44.7671 112.6281 -66.4463
v 44.7671 169.6294 -66.4463
v 21.8663 112.6281 -77.1251
v 21.8663 169.6294 -77.1251
v -4.1612 112.6281 -80.3292
v -4.1612 169.6294 -80.3292
v -32.646 112.6281 -75.9763
v -32.646 169.6294 -75.9763
v 65.7191 157.4761 -6.3958
v 92.1349 124.7814 -41.5023
v 51.8514 157.4761 -29.1938
v 76.0522 124.7814 -67.9414
v 34.0855 157.4761 -45.7503
v 55.4487 124.7814 -87.1423
v 12.8783 157.4761 -55.6393
v 30.8544 124.7814 -98.6108
v -11.2244 157.4761 -58.6065
v 2.902 124.7814 -102.0519
v -37.6026 157.4761 -54.5756
v -27.6893 124.7814 -97.3771
v 66.5754 122.8089 -7.5339
v 91.2786 159.4486 -40.3642
v 52.6359 122.8089 -30.4499
v 75.2677 159.4486 -66.6854
v 34.778 122.8089 -47.092
v 54.7562 159.4486 -85.8005
v 13.461 122.8089 -57.0323
v 30.2717 159.4486 -97.2178
v -10.7665 122.8089 -60.0149
v 2.4441 159.4486 -100.6436
v -37.2813 122.8089 -55.963
v -28.0107 159.4486 -95.9897
v -66.0311 112.6281 48.6185
v -66.0311 169.6295 48.6186
v -43.539 112.6281 66.6306
v -43.539 169.6295 66.6306
v -19.3964 112.6281 76.8695
v -19.3964 169.6295 76.8695
v 5.7757 112.6281 79.0718
v 5.7757 169.6294 79.0718
v 31.3295 112.6281 73.1808
v 31.3295 169.6294 73.1808
v 56.6076 112.6281 59.348
v 56.6076 169.6294 59.348
v -59.6233 157.4761 27.6066
v -72.4389 124.7814 69.6305
v -38.7945 157.4761 44.2866
v -48.2834 124.7814 88.9746
v -16.4374 157.4761 53.7683
v -22.3554 124.7814 99.9707
v 6.8731 157.4761 55.8077
v 4.6782 124.7814 102.3359
v 30.5371 157.4761 50.3524
v 32.1218 124.7814 96.0092
v 53.9459 157.4761 37.5426
v 59.2694 124.7814 81.1535
v -60.0387 122.8089 28.9689
v -72.0234 159.4486 68.2683
v -39.1021 122.8089 45.7353
v -47.9758 159.4486 87.526
v -16.6292 122.8089 55.266
v -22.1635 159.4486 98.473
v 6.802 122.8089 57.316
v 4.7494 159.4486 100.8276
v 30.5885 122.8089 51.8324
v 32.0704 159.4486 94.5292
v 54.1184 122.8089 38.9563
v 59.0968 159.4486 79.7398
vn 0.013916 0 -0.999903
vn 0.013916 0 -0.999903
vn 0.098573 0 -0.99513
vn 0.182975 0 -0.983118
vn 0.34617 0 -0.938172
vn 0.42494 0 -0.905221
vn 0.571474 0 -0.82062
vn 0.639396 0 -0.768878
vn 0.759917 0 -0.65002
vn 0.812521 0 -0.582932
vn 0.858983 0 -0.512004
vn 0.858983 0 -0.512004
vn -0.008 -0.816965 0.576632
vn -0.008001 -0.816931 0.576679
vn -0.056548 -0.8189 0.571144
vn -0.105013 -0.818879 0.564278
vn -0.198716 -0.818929 0.538393
vn -0.243858 -0.818888 0.519573
vn -0.328034 -0.818888 0.470973
vn -0.366904 -0.818929 0.44129
vn -0.436173 -0.818879 0.373083
vn -0.466351 -0.8189 0.334545
vn -0.495419 -0.816931 0.295269
vn -0.495419 -0.816931 0.295269
vn 0.009015 -0.763465 -0.645786
vn 0.009015 -0.763465 -0.645786
vn 0.063366 -0.765798 -0.639952
vn 0.117694 -0.76578 -0.632241
vn 0.222624 -0.765747 -0.603382
vn 0.273284 -0.765787 -0.58214
vn 0.367506 -0.765787 -0.52774
vn 0.411232 -0.765747 -0.49449
vn 0.48869 -0.76578 -0.418047
vn 0.522532 -0.765798 -0.374853
vn 0.554759 -0.763465 -0.3307
vn 0.554759 -0.763465 -0.3307
vn 0.983697 0 -0.179836
vn 0.983697 0 -0.179836
vn 0.995942 0 -0.089996
vn 0.999999 0 0.001376
vn 0.984267 0 0.176689
vn 0.965438 0 0.260634
vn 0.90709 0 0.420937
vn 0.867571 0 0.497313
vn 0.766993 0 0.641655
vn 0.70514 0 0.709068
vn 0.637968 0 0.770063
vn 0.637968 0 0.770063
vn -0.546341 -0.831583 0.099907
vn -0.546341 -0.831583 0.099907
vn -0.555616 -0.829984 0.049174
vn -0.563472 -0.826133 -0.001876
vn -0.562324 -0.820698 -0.101224
vn -0.553494 -0.819288 -0.149705
vn -0.520274 -0.81928 -0.24103
vn -0.495885 -0.820679 -0.283874
vn -0.432838 -0.82614 -0.360756
vn -0.39406 -0.829961 -0.394819
vn -0.354337 -0.831595 -0.427663
vn -0.354337 -0.831595 -0.427663
vn 0.614681 -0.780721 -0.112434
vn 0.614681 -0.780721 -0.112434
vn 0.624818 -0.778801 -0.055416
vn 0.632835 -0.774284 0.001875
vn 0.630512 -0.767827 0.113563
vn 0.620293 -0.766205 0.16783
vn 0.583015 -0.766212 0.270208
vn 0.555957 -0.767842 0.318326
vn 0.485978 -0.774317 0.405289
vn 0.443001 -0.778799 0.444098
vn 0.398634 -0.780733 0.481194
vn 0.398634 -0.780733 0.481194
vn 0.073241 0 0.997314
vn 0.073241 0 0.997314
vn -0.01141 0 0.999935
vn -0.096613 0 0.995322
vn -0.263139 0 0.964758
vn -0.344349 0 0.938842
vn -0.497833 0 0.867273
vn -0.569906 0 0.82171
vn -0.700343 0 0.713807
vn -0.758682 0 0.651461
vn -0.811056 0 0.584968
vn -0.811056 0 0.584968
vn -0.042266 -0.816916 -0.575206
vn -0.042266 -0.816916 -0.575206
vn 0.006537 -0.818889 -0.573915
vn 0.055434 -0.818919 -0.571225
vn 0.150976 -0.818913 -0.553703
vn 0.197703 -0.818888 -0.538829
vn 0.285657 -0.818916 -0.497772
vn 0.32713 -0.818885 -0.471608
vn 0.401992 -0.818881 -0.409678
vn 0.435391 -0.818917 -0.373911
vn 0.467755 -0.816946 -0.337349
vn 0.467755 -0.816946 -0.337349
vn 0.047266 -0.763473 0.644108
vn 0.047266 -0.763473 0.644108
vn -0.007328 -0.765772 0.643071
vn -0.062164 -0.765798 0.64007
vn -0.16922 -0.76575 0.620477
vn -0.221448 -0.765792 0.603758
vn -0.32016 -0.765789 0.557733
vn -0.366516 -0.765788 0.528427
vn -0.450377 -0.765766 0.45909
vn -0.487857 -0.76579 0.418999
vn -0.52385 -0.763466 0.377759
vn -0.52385 -0.763466 0.377759
vn -0.869158 0 -0.494534
vn -0.869158 0 -0.494534
vn -0.820734 0 -0.571311
vn -0.765102 0 -0.64391
vn -0.640425 0 -0.768021
vn -0.572048 0 -0.820221
vn -0.424259 0 -0.905541
vn -0.344919 0 -0.938633
vn -0.175085 0 -0.984553
vn -0.084356 0 -0.996436
vn 0.00635 0 -0.99998
vn 0.00635 0 -0.99998
vn 0.482731 -0.831583 0.274663
vn 0.482731 -0.831583 0.274663
vn 0.457197 -0.829993 0.319503
vn 0.43051 -0.826124 0.363567
vn 0.365658 -0.82069 0.439048
vn 0.327744 -0.819276 0.4705
vn 0.243614 -0.819296 0.519044
vn 0.197335 -0.820698 0.536204
vn 0.099638 -0.82611 0.554631
vn 0.048095 -0.829995 0.555694
vn -0.003453 -0.831593 0.555376
vn -0.003453 -0.831593 0.555376
vn -0.543075 -0.780746 -0.309041
vn -0.543075 -0.780746 -0.309041
vn -0.514246 -0.778826 -0.35914
vn -0.483537 -0.774283 -0.408263
vn -0.410019 -0.767826 -0.492268
vn -0.367339 -0.766168 -0.527303
vn -0.273003 -0.766194 -0.581736
vn -0.221271 -0.767847 -0.601207
vn -0.111765 -0.774323 -0.622842
vn -0.053893 -0.778845 -0.624897
vn 0.003948 -0.780727 -0.62486
vn 0.003948 -0.780727 -0.62486
vn -0.480061 0 -0.877235
vn -0.480061 0 -0.877235
vn -0.398203 0 -0.917298
vn -0.312373 0 -0.94996
vn -0.122097 0 -0.992518
vn -0.016957 0 -0.999856
vn 0.19037 0 -0.981712
vn 0.292519 0 -0.95626
vn 0.47256 0 -0.881299
vn 0.551477 0 -0.83419
vn 0.625118 0 -0.780531
vn 0.625118 0 -0.780531
vn 0.300164 -0.780457 0.548442
vn 0.300164 -0.780457 0.548442
vn 0.244977 -0.792264 0.558842
vn 0.188922 -0.801496 0.567373
vn 0.071759 -0.814499 0.57571
vn 0.010723 -0.817916 0.575238
vn -0.110503 -0.817927 0.56461
vn -0.170731 -0.814477 0.554508
vn -0.284518 -0.801483 0.525999
vn -0.338307 -0.792289 0.507766
vn -0.39075 -0.780494 0.488
vn -0.39075 -0.780494 0.488
vn -0.332468 -0.72138 -0.607516
vn -0.332468 -0.72138 -0.607516
vn -0.272021 -0.734894 -0.621237
vn -0.210244 -0.745512 -0.632463
vn -0.080237 -0.760608 -0.644235
vn -0.011904 -0.764606 -0.644388
vn 0.123628 -0.764604 -0.632532
vn 0.190829 -0.76061 -0.620529
vn 0.316827 -0.74552 -0.586362
vn 0.375727 -0.734902 -0.564578
vn 0.432878 -0.721387 -0.540571
vn 0.432878 -0.721387 -0.540571
vn 0.151046 0 0.988527
vn 0.151046 0 0.988527
vn 0.060512 0 0.998168
vn -0.031366 0 0.999508
vn -0.22483 0 0.974398
vn -0.326054 0 0.945351
vn -0.514649 0 0.857401
vn -0.601923 0 0.798554
vn -0.745511 0 0.666493
vn -0.8035 0 0.595305
vn -0.854343 0 0.519709
vn -0.854343 0 0.519709
vn -0.094441 -0.780481 -0.618005
vn -0.094441 -0.780481 -0.618005
vn -0.039076 -0.792281 -0.608903
vn 0.016616 -0.801493 -0.597774
vn 0.129418 -0.814492 -0.565556
vn 0.186609 -0.817923 -0.544223
vn 0.296963 -0.817928 -0.492755
vn 0.350031 -0.814502 -0.462672
vn 0.447286 -0.801489 -0.396927
vn 0.491571 -0.792291 -0.361431
vn 0.53412 -0.780464 -0.32495
vn 0.53412 -0.780464 -0.32495
vn 0.104599 -0.721375 0.6846
vn 0.104599 -0.721375 0.6846
vn 0.043066 -0.734899 0.676807
vn -0.018843 -0.745501 0.666238
vn -0.144927 -0.760609 0.632827
vn -0.209215 -0.764621 0.609578
vn -0.332505 -0.764598 0.552115
vn -0.391592 -0.760575 0.517863
vn -0.498286 -0.745496 0.442659
vn -0.546172 -0.734918 0.401985
vn -0.591628 -0.721413 0.359917
vn -0.591628 -0.721413 0.359917
vn -0.355119 0 -0.934821
vn -0.355119 0 -0.934821
vn -0.432901 0 -0.901441
vn -0.508222 0 -0.861226
vn -0.646209 0 -0.763161
vn -0.708872 0 -0.705337
vn -0.817728 0 -0.575605
vn -0.863779 0 -0.503871
vn -0.936402 0 -0.35093
vn -0.96291 0 -0.269824
vn -0.982288 0 -0.187378
vn -0.982288 0 -0.187378
vn 0.204773 0.81698 0.539085
vn 0.20479 0.816946 0.539129
vn 0.248483 0.818918 0.51733
vn 0.291675 0.818881 0.494327
vn 0.370871 0.818885 0.438044
vn 0.406877 0.818916 0.404756
vn 0.4693 0.818887 0.330426
vn 0.495761 0.818913 0.289141
vn 0.537414 0.818919 0.201389
vn 0.552667 0.818889 0.154854
vn 0.566545 0.816916 0.108048
vn 0.566545 0.816916 0.108048
vn -0.229305 0.763466 -0.603771
vn -0.229305 0.763466 -0.603771
vn -0.278455 0.76579 -0.579679
vn -0.326881 0.765766 -0.553852
vn -0.41556 0.765788 -0.490795
vn -0.455865 0.765789 -0.453602
vn -0.52587 0.765792 -0.370167
vn -0.555537 0.76575 -0.324046
vn -0.602171 0.765798 -0.225708
vn -0.619262 0.765772 -0.173518
vn -0.634394 0.763473 -0.121052
vn -0.634394 0.763473 -0.121052
vn -0.985881 0 0.167449
vn -0.985881 0 0.167449
vn -0.966645 0 0.256122
vn -0.939197 0 0.343378
vn -0.864511 0 0.502613
vn -0.818078 0 0.575108
vn -0.708378 0 0.705833
vn -0.645137 0 0.764067
vn -0.50127 0 0.865291
vn -0.420026 0 0.907512
vn -0.336099 0 0.941827
vn -0.336099 0 0.941827
vn 0.54752 0.83161 -0.092986
vn 0.54752 0.83161 -0.092986
vn 0.538941 0.829975 -0.143821
vn 0.528871 0.82614 -0.194393
vn 0.493777 0.820708 -0.287442
vn 0.468881 0.819297 -0.330006
vn 0.406436 0.819283 -0.404457
vn 0.36889 0.820684 -0.436347
vn 0.283281 0.82614 -0.487079
vn 0.235246 0.82997 -0.505775
vn 0.186671 0.831576 -0.523102
vn 0.186671 0.831576 -0.523102
vn -0.61605 0.780724 0.104655
vn -0.61605 0.780724 0.104655
vn -0.606078 0.778821 0.161578
vn -0.593982 0.774316 0.218218
vn -0.553682 0.767824 0.322309
vn -0.525522 0.7662 0.369817
vn -0.455448 0.7662 0.453326
vn -0.4136 0.767826 0.489264
vn -0.318119 0.77428 0.547075
vn -0.264403 0.778847 0.56876
vn -0.210024 0.780749 0.588491
vn -0.210024 0.780749 0.588491
vn 0.272236 0 0.96223
vn 0.272236 0 0.96223
vn 0.352774 0 0.935709
vn 0.431191 0 0.902261
vn 0.577191 0 0.816609
vn 0.64475 0 0.764394
vn 0.764394 0 0.64475
vn 0.816609 0 0.577191
vn 0.902261 0 0.43119
vn 0.935709 0 0.352773
vn 0.962231 0 0.272236
vn 0.962231 0 0.272236
vn -0.156971 0.816965 -0.554913
vn -0.156984 0.816931 -0.554959
vn -0.202445 0.8189 -0.537047
vn -0.247481 0.818879 -0.517872
vn -0.331291 0.818929 -0.468616
vn -0.370024 0.818888 -0.438754
vn -0.438754 0.818888 -0.370024
vn -0.468616 0.818929 -0.331291
vn -0.517872 0.818879 -0.247481
vn -0.537047 0.8189 -0.202445
vn -0.554959 0.816931 -0.156984
vn -0.554959 0.816931 -0.156984
vn 0.17585 0.763465 0.621448
vn 0.17585 0.763465 0.621448
vn 0.226839 0.765798 0.601746
vn 0.27732 0.76578 0.580237
vn 0.371206 0.765747 0.525203
vn 0.414641 0.765787 0.491572
vn 0.491572 0.765787 0.41464
vn 0.525203 0.765747 0.371205
vn 0.580237 0.76578 0.27732
vn 0.601746 0.765798 0.226839
vn 0.621448 0.763465 0.175849
vn 0.621448 0.763465 0.175849
vn 0.647583 0 -0.761995
vn 0.647583 0 -0.761995
vn 0.575861 0 -0.817548
vn 0.498771 0 -0.866734
vn 0.33913 0 -0.94074
vn 0.257033 0 -0.966403
vn 0.088954 0 -0.996036
vn 0.003111 0 -0.999995
vn -0.17218 0 -0.985066
vn -0.26149 0 -0.965206
vn -0.347913 0 -0.937527
vn -0.347913 0 -0.937527
vn -0.359697 0.83158 0.423194
vn -0.359697 0.83158 0.423194
vn -0.320388 0.829994 0.456576
vn -0.280163 0.826123 0.488907
vn -0.193457 0.820667 0.537662
vn -0.147074 0.819277 0.554215
vn -0.051404 0.819265 0.571106
vn -0.002121 0.820706 0.571347
vn 0.096028 0.826128 0.555239
vn 0.144887 0.830006 0.538607
vn 0.193255 0.831611 0.52065
vn 0.193255 0.831611 0.52065
vn 0.404693 0.78073 -0.476114
vn 0.404693 0.78073 -0.476114
vn 0.360357 0.778834 -0.513382
vn 0.314798 0.774284 -0.548987
vn 0.216954 0.767849 -0.602776
vn 0.164893 0.766182 -0.621108
vn 0.057556 0.766174 -0.640051
vn 0.002263 0.767823 -0.640658
vn -0.108046 0.7743 -0.623527
vn -0.163059 0.7788 -0.605708
vn -0.217438 0.780709 -0.585845
vn -0.217438 0.780709 -0.585845
vn 0.151037 0 -0.988528
vn 0.151037 0 -0.988528
vn 0.060529 0 -0.998166
vn -0.031325 0 -0.999509
vn -0.224777 0 -0.97441
vn -0.326054 0 -0.945351
vn -0.514621 0 -0.857418
vn -0.601956 0 -0.79853
vn -0.74553 0 -0.666472
vn -0.803491 0 -0.595317
vn -0.854332 0 -0.519727
vn -0.854332 0 -0.519727
vn -0.094467 0.780483 0.617998
vn -0.094467 0.780483 0.617998
vn -0.039103 0.792294 0.608885
vn 0.016546 0.801489 0.59778
vn 0.129401 0.814502 0.565546
vn 0.186606 0.8179 0.54426
vn 0.296921 0.817919 0.492794
vn 0.350011 0.814483 0.462721
vn 0.447254 0.801516 0.396907
vn 0.491568 0.792279 0.361463
vn 0.534182 0.780445 0.324893
vn 0.534182 0.780445 0.324893
vn 0.104583 0.721413 -0.684563
vn 0.104583 0.721413 -0.684563
vn 0.043064 0.734917 -0.676788
vn -0.018809 0.745502 -0.666238
vn -0.144954 0.760586 -0.632849
vn -0.209233 0.7646 -0.609597
vn -0.332485 0.764607 -0.552114
vn -0.391583 0.760576 -0.517868
vn -0.498243 0.745523 -0.442662
vn -0.546161 0.734888 -0.402054
vn -0.591685 0.721373 -0.359904
vn -0.591685 0.721373 -0.359904
vn 0.196143 0 0.980575
vn 0.196143 0 0.980575
vn 0.284532 0 0.958667
vn 0.371305 0 0.928511
vn 0.544476 0 0.838776
vn 0.629735 0 0.77681
vn 0.77681 0 0.629735
vn 0.838776 0 0.544476
vn 0.928511 0 0.371305
vn 0.958667 0 0.284531
vn 0.980575 0 0.196143
vn 0.980575 0 0.196143
vn -0.122609 0.780477 -0.613044
vn -0.122609 0.780477 -0.613044
vn -0.171534 0.792251 -0.58559
vn -0.220048 0.801485 -0.556058
vn -0.315079 0.81448 -0.487184
vn -0.361552 0.817918 -0.447538
vn -0.447538 0.817918 -0.361552
vn -0.487184 0.81448 -0.315079
vn -0.556058 0.801485 -0.220047
vn -0.58559 0.792251 -0.171533
vn -0.613044 0.780477 -0.122609
vn -0.613044 0.780477 -0.122609
vn 0.135838 0.721416 0.679049
vn 0.135838 0.721416 0.679049
vn 0.190987 0.734889 0.65074
vn 0.245519 0.745535 0.619596
vn 0.352709 0.760608 0.545044
vn 0.405104 0.764604 0.501271
vn 0.501271 0.764604 0.405104
vn 0.545044 0.760608 0.352708
vn 0.619596 0.745535 0.245519
vn 0.65074 0.734889 0.190987
vn 0.679049 0.721416 0.135838
vn 0.679049 0.721416 0.135838
vn 0.858983 0 -0.512004
vn 0.858983 0 -0.512004
vn 0.812521 0 -0.582932
vn 0.759917 0 -0.65002
vn 0.639396 0 -0.768878
vn 0.571474 0 -0.82062
vn 0.42494 0 -0.905221
vn 0.34617 0 -0.938172
vn 0.182975 0 -0.983118
vn 0.098573 0 -0.99513
vn 0.013916 0 -0.999903
vn 0.013916 0 -0.999903
vn 0.281388 0.816965 -0.503378
vn 0.281388 0.816965 -0.503378
vn 0.2366 0.8189 -0.5229
vn 0.191195 0.818879 -0.541186
vn 0.097103 0.818929 -0.56562
vn 0.048599 0.818888 -0.571892
vn -0.048599 0.818888 -0.571892
vn -0.097103 0.818929 -0.56562
vn -0.191195 0.818879 -0.541186
vn -0.2366 0.8189 -0.5229
vn -0.281411 0.816931 -0.503419
vn -0.281411 0.816931 -0.503419
vn -0.315086 0.763465 0.563775
vn -0.315086 0.763465 0.563775
vn -0.265099 0.765798 0.585898
vn -0.214194 0.76578 0.606384
vn -0.108893 0.765747 0.633856
vn -0.054399 0.765787 0.640789
vn 0.054399 0.765787 0.640789
vn 0.108893 0.765747 0.633856
vn 0.214194 0.76578 0.606384
vn 0.265099 0.765798 0.585898
vn 0.315086 0.763465 0.563775
vn 0.315086 0.763465 0.563775
vn 0.761989 0 0.64759
vn 0.761989 0 0.64759
vn 0.817514 0 0.57591
vn 0.866713 0 0.498807
vn 0.940745 0 0.339116
vn 0.966411 0 0.257003
vn 0.996031 0 0.089003
vn 0.999995 0 0.0031
vn 0.985063 0 -0.172194
vn 0.965203 0 -0.261501
vn 0.937528 0 -0.34791
vn 0.937528 0 -0.34791
vn -0.423191 0.831583 -0.359693
vn -0.423191 0.831583 -0.359693
vn -0.456591 0.829984 -0.320394
vn -0.48892 0.826133 -0.280111
vn -0.537599 0.820698 -0.1935
vn -0.554192 0.819288 -0.147098
vn -0.571086 0.81928 -0.051399
vn -0.571386 0.820679 -0.0021
vn -0.555227 0.82614 0.096005
vn -0.538604 0.830006 0.144901
vn -0.520697 0.831595 0.193199
vn -0.520697 0.831595 0.193199
vn 0.476113 0.780721 0.404711
vn 0.476113 0.780721 0.404711
vn 0.513401 0.778801 0.360401
vn 0.548989 0.774284 0.314794
vn 0.602821 0.767827 0.216908
vn 0.621104 0.766205 0.164801
vn 0.64001 0.766212 0.057501
vn 0.640635 0.767842 0.0023
vn 0.623514 0.774317 -0.108002
vn 0.605699 0.778799 -0.1631
vn 0.585824 0.780733 -0.217409
vn 0.585824 0.780733 -0.217409
vn 0.562086 0 -0.827079
vn 0.562086 0 -0.827079
vn 0.490086 0 -0.871674
vn 0.413991 0 -0.910281
vn 0.254493 0 -0.967075
vn 0.171206 0 -0.985235
vn 0.0025 0 -0.999997
vn -0.082698 0 -0.996575
vn -0.249612 0 -0.968346
vn -0.331308 0 -0.943523
vn -0.409911 0 -0.912125
vn -0.409911 0 -0.912125
vn -0.32418 0.81695 0.476971
vn -0.324206 0.816916 0.47701
vn -0.281296 0.818889 0.500293
vn -0.237606 0.818919 0.522412
vn -0.146102 0.818913 0.555009
vn -0.098199 0.818888 0.565491
vn -0.0015 0.818916 0.573911
vn 0.047499 0.818885 0.571989
vn 0.143297 0.818881 0.555787
vn 0.190104 0.818918 0.541512
vn 0.236394 0.81698 0.525987
vn 0.236394 0.81698 0.525987
vn 0.362987 0.763473 -0.534181
vn 0.362987 0.763473 -0.534181
vn 0.315189 0.765772 -0.56058
vn 0.266199 0.765798 -0.585399
vn 0.163689 0.76575 -0.621959
vn 0.110099 0.765792 -0.633594
vn 0.0016 0.765789 -0.64309
vn -0.053199 0.765788 -0.64089
vn -0.160493 0.765766 -0.622772
vn -0.212997 0.765791 -0.606793
vn -0.264788 0.763466 -0.589074
vn -0.264788 0.763466 -0.589074
vn -0.99998 0 -0.0063
vn -0.99998 0 -0.0063
vn -0.996432 0 0.084403
vn -0.984552 0 0.175092
vn -0.938635 0 0.344913
vn -0.905518 0 0.424308
vn -0.820189 0 0.572092
vn -0.768025 0 0.64042
vn -0.643905 0 0.765106
vn -0.571273 0 0.820761
vn -0.49449 0 0.869183
vn -0.49449 0 0.869183
vn 0.555389 0.831583 0.0035
vn 0.555389 0.831583 0.0035
vn 0.555696 0.829993 -0.0481
vn 0.554616 0.826124 -0.099603
vn 0.536193 0.82069 -0.197398
vn 0.519085 0.819276 -0.243593
vn 0.470498 0.819296 -0.327698
vn 0.438999 0.820698 -0.365699
vn 0.363604 0.82611 -0.430505
vn 0.319498 0.829995 -0.457197
vn 0.274698 0.831593 -0.482696
vn 0.274698 0.831593 -0.482696
vn -0.624837 0.780746 -0.0039
vn -0.624837 0.780746 -0.0039
vn -0.62492 0.778826 0.053902
vn -0.622886 0.774283 0.111798
vn -0.601221 0.767826 0.221308
vn -0.581776 0.766168 0.272989
vn -0.527296 0.766194 0.367297
vn -0.49223 0.767847 0.410025
vn -0.408212 0.774323 0.483515
vn -0.359121 0.778845 0.51423
vn -0.309011 0.780727 0.543119
vn -0.309011 0.780727 0.543119
vn -0.854363 0 0.519677
vn -0.854363 0 0.519677
vn -0.803502 0 0.595302
vn -0.745503 0 0.666503
vn -0.601998 0 0.798498
vn -0.514613 0 0.857422
vn -0.325991 0 0.945373
vn -0.224801 0 0.974405
vn -0.0314 0 0.999507
vn 0.060498 0 0.998168
vn 0.151103 0 0.988518
vn 0.151103 0 0.988518
vn 0.534171 0.780457 -0.324882
vn 0.534171 0.780457 -0.324882
vn 0.491577 0.792264 -0.361483
vn 0.447298 0.801496 -0.396898
vn 0.35 0.814499 -0.4627
vn 0.296906 0.817916 -0.492809
vn 0.186606 0.817927 -0.544218
vn 0.129396 0.814477 -0.565584
vn 0.0166 0.801483 -0.597787
vn -0.039099 0.792289 -0.608892
vn -0.094399 0.780494 -0.617995
vn -0.094399 0.780494 -0.617995
vn -0.591684 0.72138 0.35989
vn -0.591684 0.72138 0.35989
vn -0.546196 0.734894 0.401997
vn -0.498308 0.745512 0.442607
vn -0.391604 0.760608 0.517805
vn -0.332503 0.764606 0.552105
vn -0.209201 0.764604 0.609603
vn -0.145002 0.76061 0.632809
vn -0.018801 0.74552 0.666218
vn 0.0431 0.734902 0.676802
vn 0.104598 0.721387 0.684588
vn 0.104598 0.721387 0.684588
vn 0.625073 0 -0.780566
vn 0.625073 0 -0.780566
vn 0.551489 0 -0.834183
vn 0.472591 0 -0.881282
vn 0.29249 0 -0.956269
vn 0.190305 0 -0.981725
vn -0.016999 0 -0.999856
vn -0.122004 0 -0.99253
vn -0.312385 0 -0.949956
vn -0.3982 0 -0.917299
vn -0.480029 0 -0.877253
vn -0.480029 0 -0.877253
vn -0.390791 0.780481 0.487988
vn -0.390791 0.780481 0.487988
vn -0.338292 0.792281 0.507788
vn -0.284497 0.801493 0.525995
vn -0.170698 0.814492 0.554495
vn -0.110503 0.817923 0.564616
vn 0.0108 0.817928 0.57522
vn 0.0718 0.814502 0.575701
vn 0.188897 0.801489 0.567392
vn 0.244997 0.792291 0.558794
vn 0.300086 0.780464 0.548475
vn 0.300086 0.780464 0.548475
vn 0.432885 0.721375 -0.540582
vn 0.432885 0.721375 -0.540582
vn 0.3757 0.734899 -0.5646
vn 0.3168 0.745501 -0.586401
vn 0.190902 0.760609 -0.620508
vn 0.123603 0.764621 -0.632517
vn -0.0119 0.764598 -0.644398
vn -0.080197 0.760575 -0.644279
vn -0.210199 0.745496 -0.632497
vn -0.272007 0.734918 -0.621215
vn -0.332406 0.721413 -0.607511
vn -0.332406 0.721413 -0.607511
vt 0.9995 0.9995
vt 0.0005 0.9995
vt 0.9995 0.7997
vt 0.0005 0.7997
vt 0.9995 0.5999
vt 0.0005 0.5999
vt 0.9995 0.4001
vt 0.0005 0.4001
vt 0.9995 0.2003
vt 0.0005 0.2003
vt 0.9995 0.0005
vt 0.0005 0.0005
vt 0.9995 0.9995
vt 0.0005 0.9995
vt 0.9995 0.7997
vt 0.0005 0.7997
vt 0.9995 0.5999
vt 0.0005 0.5999
vt 0.9995 0.4001
vt 0.0005 0.4001
vt 0.9995 0.2003
vt 0.0005 0.2003
vt 0.9995 0.0005
vt 0.0005 0.0005
vt 0.9995 0.9995
vt 0.0005 0.9995
vt 0.9995 0.7997
vt 0.0005 0.7997
vt 0.9995 0.5999
vt 0.0005 0.5999
vt 0.9995 0.4001
vt 0.0005 0.4001
vt 0.9995 0.2003
vt 0.0005 0.2003
vt 0.9995 0.0005
vt 0.0005 0.0005
vt 0.9995 0.9995
vt 0.0005 0.9995
vt 0.9995 0.7997
vt 0.0005 0.7997
vt 0.9995 0.5999
vt 0.0005 0.5999
vt 0.9995 0.4001
vt 0.0005 0.4001
vt 0.9995 0.2003
vt 0.0005 0.2003
vt 0.9995 0.0005
vt 0.0005 0.0005
vt 0.9995 0.9995
vt 0.0005 0.9995
vt 0.9995 0.7997
vt 0.0005 0.7997
vt 0.9995 0.5999
vt 0.0005 0.5999
vt 0.9995 0.4001
vt 0.0005 0.4001
vt 0.9995 0.2003
vt 0.0005 0.2003
vt 0.9995 0.0005
vt 0.0005 0.0005
vt 0.9995 0.9995
vt 0.0005 0.9995
vt 0.9995 0.7997
vt 0.0005 0.7997
vt 0.9995 0.5999
vt 0.0005 0.5999
vt 0.9995 0.4001
vt 0.0005 0.4001
vt 0.9995 0.2003
vt 0.0005 0.2003
vt 0.9995 0.0005
vt 0.0005 0.0005
vt 0.9995 0.9995
vt 0.0005 0.9995
vt 0.9995 0.7997
vt 0.0005 0.7997
vt 0.9995 0.5999
vt 0.0005 0.5999
vt 0.9995 0.4001
vt 0.0005 0.4001
vt 0.9995 0.2003
vt 0.0005 0.2003
vt 0.9995 0.0005
vt 0.0005 0.0005
vt 0.9995 0.9995
vt 0.0005 0.9995
vt 0.9995 0.7997
vt 0.0005 0.7997
vt 0.9995 0.5999
vt 0.0005 0.5999
vt 0.9995 0.4001
vt 0.0005 0.4001
vt 0.9995 0.2003
vt 0.0005 0.2003
vt 0.9995 0.0005
vt 0.0005 0.0005
vt 0.9995 0.9995
vt 0.0005 0.9995
vt 0.9995 0.7997
vt 0.0005 0.7997
vt 0.9995 0.5999
vt 0.0005 0.5999
vt 0.9995 0.4001
vt 0.0005 0.4001
vt 0.9995 0.2003
vt 0.0005 0.2003
vt 0.9995 0.0005
vt 0.0005 0.0005
vt 0.9995 0.9995
vt 0.0005 0.9995
vt 0.9995 0.7997
vt 0.0005 0.7997
vt 0.9995 0.5999
vt 0.0005 0.5999
vt 0.9995 0.4001
vt 0.0005 0.4001
vt 0.9995 0.2003
vt 0.0005 0.2003
vt 0.9995 0.0005
vt 0.0005 0.0005
vt 0.9995 0.9995
vt 0.0005 0.9995
vt 0.9995 0.7997
vt 0.0005 0.7997
vt 0.9995 0.5999
vt 0.0005 0.5999
vt 0.9995 0.4001
vt 0.0005 0.4001
vt 0.9995 0.2003
vt 0.0005 0.2003
vt 0.9995 0.0005
vt 0.0005 0.0005
vt 0.9995 0.9995
vt 0.0005 0.9995
vt 0.9995 0.7997
vt 0.0005 0.7997
vt 0.9995 0.5999
vt 0.0005 0.5999
vt 0.9995 0.4001
vt 0.0005 0.4001
vt 0.9995 0.2003
vt 0.0005 0.2003
vt 0.9995 0.0005
vt 0.0005 0.0005
vt 0.9995 0.9995
vt 0.0005 0.9995
vt 0.9995 0.7997
vt 0.0005 0.7997
vt 0.9995 0.5999
vt 0.0005 0.5999
vt 0.9995 0.4001
vt 0.0005 0.4001
vt 0.9995 0.2003
vt 0.0005 0.2003
vt 0.9995 0.0005
vt 0.0005 0.0005
vt 0.9995 0.9995
vt 0.0005 0.9995
vt 0.9995 0.7997
vt 0.0005 0.7997
vt 0.9995 0.5999
vt 0.0005 0.5999
vt 0.9995 0.4001
vt 0.0005 0.4001
vt 0.9995 0.2003
vt 0.0005 0.2003
vt 0.9995 0.0005
vt 0.0005 0.0005
vt 0.9995 0.9995
vt 0.0005 0.9995
vt 0.9995 0.7997
vt 0.0005 0.7997
vt 0.9995 0.5999
vt 0.0005 0.5999
vt 0.9995 0.4001
vt 0.0005 0.4001
vt 0.9995 0.2003
vt 0.0005 0.2003
vt 0.9995 0.0005
vt 0.0005 0.0005
vt 0.9995 0.9995
vt 0.0005 0.9995
vt 0.9995 0.7997
vt 0.0005 0.7997
vt 0.9995 0.5999
vt 0.0005 0.5999
vt 0.9995 0.4001
vt 0.0005 0.4001
vt 0.9995 0.2003
vt 0.0005 0.2003
vt 0.9995 0.0005
vt 0.0005 0.0005
vt 0.9995 0.9995
vt 0.0005 0.9995
vt 0.9995 0.7997
vt 0.0005 0.7997
vt 0.9995 0.5999
vt 0.0005 0.5999
vt 0.9995 0.4001
vt 0.0005 0.4001
vt 0.9995 0.2003
vt 0.0005 0.2003
vt 0.9995 0.0005
vt 0.0005 0.0005
vt 0.9995 0.9995
vt 0.0005 0.9995
vt 0.9995 0.7997
vt 0.0005 0.7997
vt 0.9995 0.5999
vt 0.0005 0.5999
vt 0.9995 0.4001
vt 0.0005 0.4001
vt 0.9995 0.2003
vt 0.0005 0.2003
vt 0.9995 0.0005
vt 0.0005 0.0005
vt 0.9995 0.9995
vt 0.0005 0.9995
vt 0.9995 0.7997
vt 0.0005 0.7997
vt 0.9995 0.5999
vt 0.0005 0.5999
vt 0.9995 0.4001
vt 0.0005 0.4001
vt 0.9995 0.2003
vt 0.0005 0.2003
vt 0.9995 0.0005
vt 0.0005 0.0005
vt 0.9995 0.9995
vt 0.0005 0.9995
vt 0.9995 0.7997
vt 0.0005 0.7997
vt 0.9995 0.5999
vt 0.0005 0.5999
vt 0.9995 0.4001
vt 0.0005 0.4001
vt 0.9995 0.2003
vt 0.0005 0.2003
vt 0.9995 0.0005
vt 0.0005 0.0005
vt 0.9995 0.9995
vt 0.0005 0.9995
vt 0.9995 0.7997
vt 0.0005 0.7997
vt 0.9995 0.5999
vt 0.0005 0.5999
vt 0.9995 0.4001
vt 0.0005 0.4001
vt 0.9995 0.2003
vt 0.0005 0.2003
vt 0.9995 0.0005
vt 0.0005 0.0005
vt 0.9995 0.9995
vt 0.0005 0.9995
vt 0.9995 0.7997
vt 0.0005 0.7997
vt 0.9995 0.5999
vt 0.0005 0.5999
vt 0.9995 0.4001
vt 0.0005 0.4001
vt 0.9995 0.2003
vt 0.0005 0.2003
vt 0.9995 0.0005
vt 0.0005 0.0005
vt 0.9995 0.9995
vt 0.0005 0.9995
vt 0.9995 0.7997
vt 0.0005 0.7997
vt 0.9995 0.5999
vt 0.0005 0.5999
vt 0.9995 0.4001
vt 0.0005 0.4001
vt 0.9995 0.2003
vt 0.0005 0.2003
vt 0.9995 0.0005
vt 0.0005 0.0005
vt 0.9995 0.9995
vt 0.0005 0.9995
vt 0.9995 0.7997
vt 0.0005 0.7997
vt 0.9995 0.5999
vt 0.0005 0.5999
vt 0.9995 0.4001
vt 0.0005 0.4001
vt 0.9995 0.2003
vt 0.0005 0.2003
vt 0.9995 0.0005
vt 0.0005 0.0005
vt 0.9995 0.9995
vt 0.0005 0.9995
vt 0.9995 0.7997
vt 0.0005 0.7997
vt 0.9995 0.5999
vt 0.0005 0.5999
vt 0.9995 0.4001
vt 0.0005 0.4001
vt 0.9995 0.2003
vt 0.0005 0.2003
vt 0.9995 0.0005
vt 0.0005 0.0005
vt 0.9995 0.9995
vt 0.0005 0.9995
vt 0.9995 0.7997
vt 0.0005 0.7997
vt 0.9995 0.5999
vt 0.0005 0.5999
vt 0.9995 0.4001
vt 0.0005 0.4001
vt 0.9995 0.2003
vt 0.0005 0.2003
vt 0.9995 0.0005
vt 0.0005 0.0005
vt 0.9995 0.9995
vt 0.0005 0.9995
vt 0.9995 0.7997
vt 0.0005 0.7997
vt 0.9995 0.5999
vt 0.0005 0.5999
vt 0.9995 0.4001
vt 0.0005 0.4001
vt 0.9995 0.2003
vt 0.0005 0.2003
vt 0.9995 0.0005
vt 0.0005 0.0005
vt 0.9995 0.9995
vt 0.0005 0.9995
vt 0.9995 0.7997
vt 0.0005 0.7997
vt 0.9995 0.5999
vt 0.0005 0.5999
vt 0.9995 0.4001
vt 0.0005 0.4001
vt 0.9995 0.2003
vt 0.0005 0.2003
vt 0.9995 0.0005
vt 0.0005 0.0005
vt 0.9995 0.9995
vt 0.0005 0.9995
vt 0.9995 0.7997
vt 0.0005 0.7997
vt 0.9995 0.5999
vt 0.0005 0.5999
vt 0.9995 0.4001
vt 0.0005 0.4001
vt 0.9995 0.2003
vt 0.0005 0.2003
vt 0.9995 0.0005
vt 0.0005 0.0005
vt 0.9995 0.9995
vt 0.0005 0.9995
vt 0.9995 0.7997
vt 0.0005 0.7997
vt 0.9995 0.5999
vt 0.0005 0.5999
vt 0.9995 0.4001
vt 0.0005 0.4001
vt 0.9995 0.2003
vt 0.0005 0.2003
vt 0.9995 0.0005
vt 0.0005 0.0005
vt 0.9995 0.9995
vt 0.0005 0.9995
vt 0.9995 0.7997
vt 0.0005 0.7997
vt 0.9995 0.5999
vt 0.0005 0.5999
vt 0.9995 0.4001
vt 0.0005 0.4001
vt 0.9995 0.2003
vt 0.0005 0.2003
vt 0.9995 0.0005
vt 0.0005 0.0005
vt 0.9995 0.9995
vt 0.0005 0.9995
vt 0.9995 0.7997
vt 0.0005 0.7997
vt 0.9995 0.5999
vt 0.0005 0.5999
vt 0.9995 0.4001
vt 0.0005 0.4001
vt 0.9995 0.2003
vt 0.0005 0.2003
vt 0.9995 0.0005
vt 0.0005 0.0005
vt 0.9995 0.9995
vt 0.0005 0.9995
vt 0.9995 0.7997
vt 0.0005 0.7997
vt 0.9995 0.5999
vt 0.0005 0.5999
vt 0.9995 0.4001
vt 0.0005 0.4001
vt 0.9995 0.2003
vt 0.0005 0.2003
vt 0.9995 0.0005
vt 0.0005 0.0005
vt 0.9995 0.9995
vt 0.0005 0.9995
vt 0.9995 0.7997
vt 0.0005 0.7997
vt 0.9995 0.5999
vt 0.0005 0.5999
vt 0.9995 0.4001
vt 0.0005 0.4001
vt 0.9995 0.2003
vt 0.0005 0.2003
vt 0.9995 0.0005
vt 0.0005 0.0005
vt 0.9995 0.9995
vt 0.0005 0.9995
vt 0.9995 0.7997
vt 0.0005 0.7997
vt 0.9995 0.5999
vt 0.0005 0.5999
vt 0.9995 0.4001
vt 0.0005 0.4001
vt 0.9995 0.2003
vt 0.0005 0.2003
vt 0.9995 0.0005
vt 0.0005 0.0005
vt 0.9995 0.9995
vt 0.0005 0.9995
vt 0.9995 0.7997
vt 0.0005 0.7997
vt 0.9995 0.5999
vt 0.0005 0.5999
vt 0.9995 0.4001
vt 0.0005 0.4001
vt 0.9995 0.2003
vt 0.0005 0.2003
vt 0.9995 0.0005
vt 0.0005 0.0005
vt 0.9995 0.9995
vt 0.0005 0.9995
vt 0.9995 0.7997
vt 0.0005 0.7997
vt 0.9995 0.5999
vt 0.0005 0.5999
vt 0.9995 0.4001
vt 0.0005 0.4001
vt 0.9995 0.2003
vt 0.0005 0.2003
vt 0.9995 0.0005
vt 0.0005 0.0005
vt 0.9995 0.9995
vt 0.0005 0.9995
vt 0.9995 0.7997
vt 0.0005 0.7997
vt 0.9995 0.5999
vt 0.0005 0.5999
vt 0.9995 0.4001
vt 0.0005 0.4001
vt 0.9995 0.2003
vt 0.0005 0.2003
vt 0.9995 0.0005
vt 0.0005 0.0005
vt 0.9995 0.9995
vt 0.0005 0.9995
vt 0.9995 0.7997
vt 0.0005 0.7997
vt 0.9995 0.5999
vt 0.0005 0.5999
vt 0.9995 0.4001
vt 0.0005 0.4001
vt 0.9995 0.2003
vt 0.0005 0.2003
vt 0.9995 0.0005
vt 0.0005 0.0005
vt 0.9995 0.9995
vt 0.0005 0.9995
vt 0.9995 0.7997
vt 0.0005 0.7997
vt 0.9995 0.5999
vt 0.0005 0.5999
vt 0.9995 0.4001
vt 0.0005 0.4001
vt 0.9995 0.2003
vt 0.0005 0.2003
vt 0.9995 0.0005
vt 0.0005 0.0005
vt 0.9995 0.9995
vt 0.0005 0.9995
vt 0.9995 0.7997
vt 0.0005 0.7997
vt 0.9995 0.5999
vt 0.0005 0.5999
vt 0.9995 0.4001
vt 0.0005 0.4001
vt 0.9995 0.2003
vt 0.0005 0.2003
vt 0.9995 0.0005
vt 0.0005 0.0005
vt 0.9995 0.9995
vt 0.0005 0.9995
vt 0.9995 0.7997
vt 0.0005 0.7997
vt 0.9995 0.5999
vt 0.0005 0.5999
vt 0.9995 0.4001
vt 0.0005 0.4001
vt 0.9995 0.2003
vt 0.0005 0.2003
vt 0.9995 0.0005
vt 0.0005 0.0005
vt 0.9995 0.9995
vt 0.0005 0.9995
vt 0.9995 0.7997
vt 0.0005 0.7997
vt 0.9995 0.5999
vt 0.0005 0.5999
vt 0.9995 0.4001
vt 0.0005 0.4001
vt 0.9995 0.2003
vt 0.0005 0.2003
vt 0.9995 0.0005
vt 0.0005 0.0005
vt 0.9995 0.9995
vt 0.0005 0.9995
vt 0.9995 0.7997
vt 0.0005 0.7997
vt 0.9995 0.5999
vt 0.0005 0.5999
vt 0.9995 0.4001
vt 0.0005 0.4001
vt 0.9995 0.2003
vt 0.0005 0.2003
vt 0.9995 0.0005
vt 0.0005 0.0005
vt 0.9995 0.9995
vt 0.0005 0.9995
vt 0.9995 0.7997
vt 0.0005 0.7997
vt 0.9995 0.5999
vt 0.0005 0.5999
vt 0.9995 0.4001
vt 0.0005 0.4001
vt 0.9995 0.2003
vt 0.0005 0.2003
vt 0.9995 0.0005
vt 0.0005 0.0005
vt 0.9995 0.9995
vt 0.0005 0.9995
vt 0.9995 0.7997
vt 0.0005 0.7997
vt 0.9995 0.5999
vt 0.0005 0.5999
vt 0.9995 0.4001
vt 0.0005 0.4001
vt 0.9995 0.2003
vt 0.0005 0.2003
vt 0.9995 0.0005
vt 0.0005 0.0005
vt 0.9995 0.9995
vt 0.0005 0.9995
vt 0.9995 0.7997
vt 0.0005 0.7997
vt 0.9995 0.5999
vt 0.0005 0.5999
vt 0.9995 0.4001
vt 0.0005 0.4001
vt 0.9995 0.2003
vt 0.0005 0.2003
vt 0.9995 0.0005
vt 0.0005 0.0005
vt 0.9995 0.9995
vt 0.0005 0.9995
vt 0.9995 0.7997
vt 0.0005 0.7997
vt 0.9995 0.5999
vt 0.0005 0.5999
vt 0.9995 0.4001
vt 0.0005 0.4001
vt 0.9995 0.2003
vt 0.0005 0.2003
vt 0.9995 0.0005
vt 0.0005 0.0005
vt 0.9995 0.9995
vt 0.0005 0.9995
vt 0.9995 0.7997
vt 0.0005 0.7997
vt 0.9995 0.5999
vt 0.0005 0.5999
vt 0.9995 0.4001
vt 0.0005 0.4001
vt 0.9995 0.2003
vt 0.0005 0.2003
vt 0.9995 0.0005
vt 0.0005 0.0005
vt 0.9995 0.9995
vt 0.0005 0.9995
vt 0.9995 0.7997
vt 0.0005 0.7997
vt 0.9995 0.5999
vt 0.0005 0.5999
vt 0.9995 0.4001
vt 0.0005 0.4001
vt 0.9995 0.2003
vt 0.0005 0.2003
vt 0.9995 0.0005
vt 0.0005 0.0005
vt 0.9995 0.9995
vt 0.0005 0.9995
vt 0.9995 0.7997
vt 0.0005 0.7997
vt 0.9995 0.5999
vt 0.0005 0.5999
vt 0.9995 0.4001
vt 0.0005 0.4001
vt 0.9995 0.2003
vt 0.0005 0.2003
vt 0.9995 0.0005
vt 0.0005 0.0005
vt 0.9995 0.9995
vt 0.0005 0.9995
vt 0.9995 0.7997
vt 0.0005 0.7997
vt 0.9995 0.5999
vt 0.0005 0.5999
vt 0.9995 0.4001
vt 0.0005 0.4001
vt 0.9995 0.2003
vt 0.0005 0.2003
vt 0.9995 0.0005
vt 0.0005 0.0005
vt 0.9995 0.9995
vt 0.0005 0.9995
vt 0.9995 0.7997
vt 0.0005 0.7997
vt 0.9995 0.5999
vt 0.0005 0.5999
vt 0.9995 0.4001
vt 0.0005 0.4001
vt 0.9995 0.2003
vt 0.0005 0.2003
vt 0.9995 0.0005
vt 0.0005 0.0005
vt 0.9995 0.9995
vt 0.0005 0.9995
vt 0.9995 0.7997
vt 0.0005 0.7997
vt 0.9995 0.5999
vt 0.0005 0.5999
vt 0.9995 0.4001
vt 0.0005 0.4001
vt 0.9995 0.2003
vt 0.0005 0.2003
vt 0.9995 0.0005
vt 0.0005 0.0005
f 1/1/1 3/3/3 2/2/2
f 4/4/4 2/2/2 3/3/3
f 3/3/3 5/5/5 4/4/4
f 6/6/6 4/4/4 5/5/5
f 5/5/5 7/7/7 6/6/6
f 8/8/8 6/6/6 7/7/7
f 7/7/7 9/9/9 8/8/8
f 10/10/10 8/8/8 9/9/9
f 9/9/9 11/11/11 10/10/10
f 12/12/12 10/10/10 11/11/11
f 13/13/13 15/15/15 14/14/14
f 16/16/16 14/14/14 15/15/15
f 15/15/15 17/17/17 16/16/16
f 18/18/18 16/16/16 17/17/17
f 17/17/17 19/19/19 18/18/18
f 20/20/20 18/18/18 19/19/19
f 19/19/19 21/21/21 20/20/20
f 22/22/22 20/20/20 21/21/21
f 21/21/21 23/23/23 22/22/22
f 24/24/24 22/22/22 23/23/23
f 25/25/25 27/27/27 26/26/26
f 28/28/28 26/26/26 27/27/27
f 27/27/27 29/29/29 28/28/28
f 30/30/30 28/28/28 29/29/29
f 29/29/29 31/31/31 30/30/30
f 32/32/32 30/30/30 31/31/31
f 31/31/31 33/33/33 32/32/32
f 34/34/34 32/32/32 33/33/33
f 33/33/33 35/35/35 34/34/34
f 36/36/36 34/34/34 35/35/35
f 37/37/37 39/39/39 38/38/38
f 40/40/40 38/38/38 39/39/39
f 39/39/39 41/41/41 40/40/40
f 42/42/42 40/40/40 41/41/41
f 41/41/41 43/43/43 42/42/42
f 44/44/44 42/42/42 43/43/43
f 43/43/43 45/45/45 44/44/44
f 46/46/46 44/44/44 45/45/45
f 45/45/45 47/47/47 46/46/46
f 48/48/48 46/46/46 47/47/47
f 49/49/49 51/51/51 50/50/50
f 52/52/52 50/50/50 51/51/51
f 51/51/51 53/53/53 52/52/52
f 54/54/54 52/52/52 53/53/53
f 53/53/53 55/55/55 54/54/54
f 56/56/56 54/54/54 55/55/55
f 55/55/55 57/57/57 56/56/56
f 58/58/58 56/56/56 57/57/57
f 57/57/57 59/59/59 58/58/58
f 60/60/60 58/58/58 59/59/59
f 61/61/61 63/63/63 62/62/62
f 64/64/64 62/62/62 63/63/63
f 63/63/63 65/65/65 64/64/64
f 66/66/66 64/64/64 65/65/65
f 65/65/65 67/67/67 66/66/66
f 68/68/68 66/66/66 67/67/67
f 67/67/67 69/69/69 68/68/68
f 70/70/70 68/68/68 69/69/69
f 69/69/69 71/71/71 70/70/70
f 72/72/72 70/70/70 71/71/71
f 73/73/73 75/75/75 74/74/74
f 76/76/76 74/74/74 75/75/75
f 75/75/75 77/77/77 76/76/76
f 78/78/78 76/76/76 77/77/77
f 77/77/77 79/79/79 78/78/78
f 80/80/80 78/78/78 79/79/79
f 79/79/79 81/81/81 80/80/80
f 82/82/82 80/80/80 81/81/81
f 81/81/81 83/83/83 82/82/82
f 84/84/84 82/82/82 83/83/83
f 85/85/85 87/87/87 86/86/86
f 88/88/88 86/86/86 87/87/87
f 87/87/87 89/89/89 88/88/88
f 90/90/90 88/88/88 89/89/89
f 89/89/89 91/91/91 90/90/90
f 92/92/92 90/90/90 91/91/91
f 91/91/91 93/93/93 92/92/92
f 94/94/94 92/92/92 93/93/93
f 93/93/93 95/95/95 94/94/94
f 96/96/96 94/94/94 95/95/95
f 97/97/97 99/99/99 98/98/98
f 100/100/100 98/98/98 99/99/99
f 99/99/99 101/101/101 100/100/100
f 102/102/102 100/100/100 101/101/101
f 101/101/101 103/103/103 102/102/102
f 104/104/104 102/102/102 103/103/103
f 103/103/103 105/105/105 104/104/104
f 106/106/106 104/104/104 105/105/105
f 105/105/105 107/107/107 106/106/106
f 108/108/108 106/106/106 107/107/107
f 109/109/109 111/111/111 110/110/110
f 112/112/112 110/110/110 111/111/111
f 111/111/111 113/113/113 112/112/112
f 114/114/114 112/112/112 113/113/113
f 113/113/113 115/115/115 114/114/114
f 116/116/116 114/114/114 115/115/115
f 115/115/115 117/117/117 116/116/116
f 118/118/118 116/116/116 117/117/117
f 117/117/117 119/119/119 118/118/118
f 120/120/120 118/118/118 119/119/119
f 121/121/121 123/123/123 122/122/122
f 124/124/124 122/122/122 123/123/123
f 123/123/123 125/125/125 124/124/124
f 126/126/126 124/124/124 125/125/125
f 125/125/125 127/127/127 126/126/126
f 128/128/128 126/126/126 127/127/127
f 127/127/127 129/129/129 128/128/128
f 130/130/130 128/128/128 129/129/129
f 129/129/129 131/131/131 130/130/130
f 132/132/132 130/130/130 131/131/131
f 133/133/133 135/135/135 134/134/134
f 136/136/136 134/134/134 135/135/135
f 135/135/135 137/137/137 136/136/136
f 138/138/138 136/136/136 137/137/137
f 137/137/137 139/139/139 138/138/138
f 140/140/140 138/138/138 139/139/139
f 139/139/139 141/141/141 140/140/140
f 142/142/142 140/140/140 141/141/141
f 141/141/141 143/143/143 142/142/142
f 144/144/144 142/142/142 143/143/143
f 145/145/145 147/147/147 146/146/146
f 148/148/148 146/146/146 147/147/147
f 147/147/147 149/149/149 148/148/148
f 150/150/150 148/148/148 149/149/149
f 149/149/149 151/151/151 150/150/150
f 152/152/152 150/150/150 151/151/151
f 151/151/151 153/153/153 152/152/152
f 154/154/154 152/152/152 153/153/153
f 153/153/153 155/155/155 154/154/154
f 156/156/156 154/154/154 155/155/155
f 157/157/157 159/159/159 158/158/158
f 160/160/160 158/158/158 159/159/159
f 159/159/159 161/161/161 160/160/160
f 162/162/162 160/160/160 161/161/161
f 161/161/161 163/163/163 162/162/162
f 164/164/164 162/162/162 163/163/163
f 163/163/163 165/165/165 164/164/164
f 166/166/166 164/164/164 165/165/165
f 165/165/165 167/167/167 166/166/166
f 168/168/168 166/166/166 167/167/167
f 169/169/169 171/171/171 170/170/170
f 172/172/172 170/170/170 171/171/171
f 171/171/171 173/173/173 172/172/172
f 174/174/174 172/172/172 173/173/173
f 173/173/173 175/175/175 174/174/174
f 176/176/176 174/174/174 175/175/175
f 175/175/175 177/177/177 176/176/176
f 178/178/178 176/176/176 177/177/177
f 177/177/177 179/179/179 178/178/178
f 180/180/180 178/178/178 179/179/179
f 181/181/181 183/183/183 182/182/182
f 184/184/184 182/182/182 183/183/183
f 183/183/183 185/185/185 184/184/184
f 186/186/186 184/184/184 185/185/185
f 185/185/185 187/187/187 186/186/186
f 188/188/188 186/186/186 187/187/187
f 187/187/187 189/189/189 188/188/188
f 190/190/190 188/188/188 189/189/189
f 189/189/189 191/191/191 190/190/190
f 192/192/192 190/190/190 191/191/191
f 193/193/193 195/195/195 194/194/194
f 196/196/196 194/194/194 195/195/195
f 195/195/195 197/197/197 196/196/196
f 198/198/198 196/196/196 197/197/197
f 197/197/197 199/199/199 198/198/198
f 200/200/200 198/198/198 199/199/199
f 199/199/199 201/201/201 200/200/200
f 202/202/202 200/200/200 201/201/201
f 201/201/201 203/203/203 202/202/202
f 204/204/204 202/202/202 203/203/203
f 205/205/205 207/207/207 206/206/206
f 208/208/208 206/206/206 207/207/207
f 207/207/207 209/209/209 208/208/208
f 210/210/210 208/208/208 209/209/209
f 209/209/209 211/211/211 210/210/210
f 212/212/212 210/210/210 211/211/211
f 211/211/211 213/213/213 212/212/212
f 214/214/214 212/212/212 213/213/213
f 213/213/213 215/215/215 214/214/214
f 216/216/216 214/214/214 215/215/215
f 217/217/217 219/219/219 218/218/218
f 220/220/220 218/218/218 219/219/219
f 219/219/219 221/221/221 220/220/220
f 222/222/222 220/220/220 221/221/221
f 221/221/221 223/223/223 222/222/222
f 224/224/224 222/222/222 223/223/223
f 223/223/223 225/225/225 224/224/224
f 226/226/226 224/224/224 225/225/225
f 225/225/225 227/227/227 226/226/226
f 228/228/228 226/226/226 227/227/227
f 229/229/229 231/231/231 230/230/230
f 232/232/232 230/230/230 231/231/231
f 231/231/231 233/233/233 232/232/232
f 234/234/234 232/232/232 233/233/233
f 233/233/233 235/235/235 234/234/234
f 236/236/236 234/234/234 235/235/235
f 235/235/235 237/237/237 236/236/236
f 238/238/238 236/236/236 237/237/237
f 237/237/237 239/239/239 238/238/238
f 240/240/240 238/238/238 239/239/239
f 241/241/241 243/243/243 242/242/242
f 244/244/244 242/242/242 243/243/243
f 243/243/243 245/245/245 244/244/244
f 246/246/246 244/244/244 245/245/245
f 245/245/245 247/247/247 246/246/246
f 248/248/248 246/246/246 247/247/247
f 247/247/247 249/249/249 248/248/248
f 250/250/250 248/248/248 249/249/249
f 249/249/249 251/251/251 250/250/250
f 252/252/252 250/250/250 251/251/251
f 253/253/253 255/255/255 254/254/254
f 256/256/256 254/254/254 255/255/255
f 255/255/255 257/257/257 256/256/256
f 258/258/258 256/256/256 257/257/257
f 257/257/257 259/259/259 258/258/258
f 260/260/260 258/258/258 259/259/259
f 259/259/259 261/261/261 260/260/260
f 262/262/262 260/260/260 261/261/261
f 261/261/261 263/263/263 262/262/262
f 264/264/264 262/262/262 263/263/263
f 265/265/265 267/267/267 266/266/266
f 268/268/268 266/266/266 267/267/267
f 267/267/267 269/269/269 268/268/268
f 270/270/270 268/268/268 269/269/269
f 269/269/269 271/271/271 270/270/270
f 272/272/272 270/270/270 271/271/271
f 271/271/271 273/273/273 272/272/272
f 274/274/274 272/272/272 273/273/273
f 273/273/273 275/275/275 274/274/274
f 276/276/276 274/274/274 275/275/275
f 277/277/277 279/279/279 278/278/278
f 280/280/280 278/278/278 279/279/279
f 279/279/279 281/281/281 280/280/280
f 282/282/282 280/280/280 281/281/281
f 281/281/281 283/283/283 282/282/282
f 284/284/284 282/282/282 283/283/283
f 283/283/283 285/285/285 284/284/284
f 286/286/286 284/284/284 285/285/285
f 285/285/285 287/287/287 286/286/286
f 288/288/288 286/286/286 287/287/287
f 289/289/289 291/291/291 290/290/290
f 292/292/292 290/290/290 291/291/291
f 291/291/291 293/293/293 292/292/292
f 294/294/294 292/292/292 293/293/293
f 293/293/293 295/295/295 294/294/294
f 296/296/296 294/294/294 295/295/295
f 295/295/295 297/297/297 296/296/296
f 298/298/298 296/296/296 297/297/297
f 297/297/297 299/299/299 298/298/298
f 300/300/300 298/298/298 299/299/299
f 301/301/301 303/303/303 302/302/302
f 304/304/304 302/302/302 303/303/303
f 303/303/303 305/305/305 304/304/304
f 306/306/306 304/304/304 305/305/305
f 305/305/305 307/307/307 306/306/306
f 308/308/308 306/306/306 307/307/307
f 307/307/307 309/309/309 308/308/308
f 310/310/310 308/308/308 309/309/309
f 309/309/309 311/311/311 310/310/310
f 312/312/312 310/310/310 311/311/311
f 313/313/313 315/315/315 314/314/314
f 316/316/316 314/314/314 315/315/315
f 315/315/315 317/317/317 316/316/316
f 318/318/318 316/316/316 317/317/317
f 317/317/317 319/319/319 318/318/318
f 320/320/320 318/318/318 319/319/319
f 319/319/319 321/321/321 320/320/320
f 322/322/322 320/320/320 321/321/321
f 321/321/321 323/323/323 322/322/322
f 324/324/324 322/322/322 323/323/323
f 325/325/325 327/327/327 326/326/326
f 328/328/328 326/326/326 327/327/327
f 327/327/327 329/329/329 328/328/328
f 330/330/330 328/328/328 329/329/329
f 329/329/329 331/331/331 330/330/330
f 332/332/332 330/330/330 331/331/331
f 331/331/331 333/333/333 332/332/332
f 334/334/334 332/332/332 333/333/333
f 333/333/333 335/335/335 334/334/334
f 336/336/336 334/334/334 335/335/335
f 337/337/337 339/339/339 338/338/338
f 340/340/340 338/338/338 339/339/339
f 339/339/339 341/341/341 340/340/340
f 342/342/342 340/340/340 341/341/341
f 341/341/341 343/343/343 342/342/342
f 344/344/344 342/342/342 343/343/343
f 343/343/343 345/345/345 344/344/344
f 346/346/346 344/344/344 345/345/345
f 345/345/345 347/347/347 346/346/346
f 348/348/348 346/346/346 347/347/347
f 349/349/349 351/351/351 350/350/350
f 352/352/352 350/350/350 351/351/351
f 351/351/351 353/353/353 352/352/352
f 354/354/354 352/352/352 353/353/353
f 353/353/353 355/355/355 354/354/354
f 356/356/356 354/354/354 355/355/355
f 355/355/355 357/357/357 356/356/356
f 358/358/358 356/356/356 357/357/357
f 357/357/357 359/359/359 358/358/358
f 360/360/360 358/358/358 359/359/359
f 361/361/361 363/363/363 362/362/362
f 364/364/364 362/362/362 363/363/363
f 363/363/363 365/365/365 364/364/364
f 366/366/366 364/364/364 365/365/365
f 365/365/365 367/367/367 366/366/366
f 368/368/368 366/366/366 367/367/367
f 367/367/367 369/369/369 368/368/368
f 370/370/370 368/368/368 369/369/369
f 369/369/369 371/371/371 370/370/370
f 372/372/372 370/370/370 371/371/371
f 373/373/373 375/375/375 374/374/374
f 376/376/376 374/374/374 375/375/375
f 375/375/375 377/377/377 376/376/376
f 378/378/378 376/376/376 377/377/377
f 377/377/377 379/379/379 378/378/378
f 380/380/380 378/378/378 379/379/379
f 379/379/379 381/381/381 380/380/380
f 382/382/382 380/380/380 381/381/381
f 381/381/381 383/383/383 382/382/382
f 384/384/384 382/382/382 383/383/383
f 385/385/385 387/387/387 386/386/386
f 388/388/388 386/386/386 387/387/387
f 387/387/387 389/389/389 388/388/388
f 390/390/390 388/388/388 389/389/389
f 389/389/389 391/391/391 390/390/390
f 392/392/392 390/390/390 391/391/391
f 391/391/391 393/393/393 392/392/392
f 394/394/394 392/392/392 393/393/393
f 393/393/393 395/395/395 394/394/394
f 396/396/396 394/394/394 395/395/395
f 397/397/397 399/399/399 398/398/398
f 400/400/400 398/398/398 399/399/399
f 399/399/399 401/401/401 400/400/400
f 402/402/402 400/400/400 401/401/401
f 401/401/401 403/403/403 402/402/402
f 404/404/404 402/402/402 403/403/403
f 403/403/403 405/405/405 404/404/404
f 406/406/406 404/404/404 405/405/405
f 405/405/405 407/407/407 406/406/406
f 408/408/408 406/406/406 407/407/407
f 409/409/409 411/411/411 410/410/410
f 412/412/412 410/410/410 411/411/411
f 411/411/411 413/413/413 412/412/412
f 414/414/414 412/412/412 413/413/413
f 413/413/413 415/415/415 414/414/414
f 416/416/416 414/414/414 415/415/415
f 415/415/415 417/417/417 416/416/416
f 418/418/418 416/416/416 417/417/417
f 417/417/417 419/419/419 418/418/418
f 420/420/420 418/418/418 419/419/419
f 421/421/421 423/423/423 422/422/422
f 424/424/424 422/422/422 423/423/423
f 423/423/423 425/425/425 424/424/424
f 426/426/426 424/424/424 425/425/425
f 425/425/425 427/427/427 426/426/426
f 428/428/428 426/426/426 427/427/427
f 427/427/427 429/429/429 428/428/428
f 430/430/430 428/428/428 429/429/429
f 429/429/429 431/431/431 430/430/430
f 432/432/432 430/430/430 431/431/431
f 433/433/433 435/435/435 434/434/434
f 436/436/436 434/434/434 435/435/435
f 435/435/435 437/437/437 436/436/436
f 438/438/438 436/436/436 437/437/437
f 437/437/437 439/439/439 438/438/438
f 440/440/440 438/438/438 439/439/439
f 439/439/439 441/441/441 440/440/440
f 442/442/442 440/440/440 441/441/441
f 441/441/441 443/443/443 442/442/442
f 444/444/444 442/442/442 443/443/443
f 445/445/445 447/447/447 446/446/446
f 448/448/448 446/446/446 447/447/447
f 447/447/447 449/449/449 448/448/448
f 450/450/450 448/448/448 449/449/449
f 449/449/449 451/451/451 450/450/450
f 452/452/452 450/450/450 451/451/451
f 451/451/451 453/453/453 452/452/452
f 454/454/454 452/452/452 453/453/453
f 453/453/453 455/455/455 454/454/454
f 456/456/456 454/454/454 455/455/455
f 457/457/457 459/459/459 458/458/458
f 460/460/460 458/458/458 459/459/459
f 459/459/459 461/461/461 460/460/460
f 462/462/462 460/460/460 461/461/461
f 461/461/461 463/463/463 462/462/462
f 464/464/464 462/462/462 463/463/463
f 463/463/463 465/465/465 464/464/464
f 466/466/466 464/464/464 465/465/465
f 465/465/465 467/467/467 466/466/466
f 468/468/468 466/466/466 467/467/467
f 469/469/469 471/471/471 470/470/470
f 472/472/472 470/470/470 471/471/471
f 471/471/471 473/473/473 472/472/472
f 474/474/474 472/472/472 473/473/473
f 473/473/473 475/475/475 474/474/474
f 476/476/476 474/474/474 475/475/475
f 475/475/475 477/477/477 476/476/476
f 478/478/478 476/476/476 477/477/477
f 477/477/477 479/479/479 478/478/478
f 480/480/480 478/478/478 479/479/479
f 481/481/481 483/483/483 482/482/482
f 484/484/484 482/482/482 483/483/483
f 483/483/483 485/485/485 484/484/484
f 486/486/486 484/484/484 485/485/485
f 485/485/485 487/487/487 486/486/486
f 488/488/488 486/486/486 487/487/487
f 487/487/487 489/489/489 488/488/488
f 490/490/490 488/488/488 489/489/489
f 489/489/489 491/491/491 490/490/490
f 492/492/492 490/490/490 491/491/491
f 493/493/493 495/495/495 494/494/494
f 496/496/496 494/494/494 495/495/495
f 495/495/495 497/497/497 496/496/496
f 498/498/498 496/496/496 497/497/497
f 497/497/497 499/499/499 498/498/498
f 500/500/500 498/498/498 499/499/499
f 499/499/499 501/501/501 500/500/500
f 502/502/502 500/500/500 501/501/501
f 501/501/501 503/503/503 502/502/502
f 504/504/504 502/502/502 503/503/503
f 505/505/505 507/507/507 506/506/506
f 508/508/508 506/506/506 507/507/507
f 507/507/507 509/509/509 508/508/508
f 510/510/510 508/508/508 509/509/509
f 509/509/509 511/511/511 510/510/510
f 512/512/512 510/510/510 511/511/511
f 511/511/511 513/513/513 512/512/512
f 514/514/514 512/512/512 513/513/513
f 513/513/513 515/515/515 514/514/514
f 516/516/516 514/514/514 515/515/515
f 517/517/517 519/519/519 518/518/518
f 520/520/520 518/518/518 519/519/519
f 519/519/519 521/521/521 520/520/520
f 522/522/522 520/520/520 521/521/521
f 521/521/521 523/523/523 522/522/522
f 524/524/524 522/522/522 523/523/523
f 523/523/523 525/525/525 524/524/524
f 526/526/526 524/524/524 525/525/525
f 525/525/525 527/527/527 526/526/526
f 528/528/528 526/526/526 527/527/527
f 529/529/529 531/531/531 530/530/530
f 532/532/532 530/530/530 531/531/531
f 531/531/531 533/533/533 532/532/532
f 534/534/534 532/532/532 533/533/533
f 533/533/533 535/535/535 534/534/534
f 536/536/536 534/534/534 535/535/535
f 535/535/535 537/537/537 536/536/536
f 538/538/538 536/536/536 537/537/537
f 537/537/537 539/539/539 538/538/538
f 540/540/540 538/538/538 539/539/539
f 541/541/541 543/543/543 542/542/542
f 544/544/544 542/542/542 543/543/543
f 543/543/543 545/545/545 544/544/544
f 546/546/546 544/544/544 545/545/545
f 545/545/545 547/547/547 546/546/546
f 548/548/548 546/546/546 547/547/547
f 547/547/547 549/549/549 548/548/548
f 550/550/550 548/548/548 549/549/549
f 549/549/549 551/551/551 550/550/550
f 552/552/552 550/550/550 551/551/551
f 553/553/553 555/555/555 554/554/554
f 556/556/556 554/554/554 555/555/555
f 555/555/555 557/557/557 556/556/556
f 558/558/558 556/556/556 557/557/557
f 557/557/557 559/559/559 558/558/558
f 560/560/560 558/558/558 559/559/559
f 559/559/559 561/561/561 560/560/560
f 562/562/562 560/560/560 561/561/561
f 561/561/561 563/563/563 562/562/562
f 564/564/564 562/562/562 563/563/563
f 565/565/565 567/567/567 566/566/566
f 568/568/568 566/566/566 567/567/567
f 567/567/567 569/569/569 568/568/568
f 570/570/570 568/568/568 569/569/569
f 569/569/569 571/571/571 570/570/570
f 572/572/572 570/570/570 571/571/571
f 571/571/571 573/573/573 572/572/572
f 574/574/574 572/572/572 573/573/573
f 573/573/573 575/575/575 574/574/574
f 576/576/576 574/574/574 575/575/575
f 577/577/577 579/579/579 578/578/578
f 580/580/580 578/578/578 579/579/579
f 579/579/579 581/581/581 580/580/580
f 582/582/582 580/580/580 581/581/581
f 581/581/581 583/583/583 582/582/582
f 584/584/584 582/582/582 583/583/583
f 583/583/583 585/585/585 584/584/584
f 586/586/586 584/584/584 585/585/585
f 585/585/585 587/587/587 586/586/586
f 588/588/588 586/586/586 587/587/587
f 589/589/589 591/591/591 590/590/590
f 592/592/592 590/590/590 591/591/591
f 591/591/591 593/593/593 592/592/592
f 594/594/594 592/592/592 593/593/593
f 593/593/593 595/595/595 594/594/594
f 596/596/596 594/594/594 595/595/595
f 595/595/595 597/597/597 596/596/596
f 598/598/598 596/596/596 597/597/597
f 597/597/597 599/599/599 598/598/598
f 600/600/600 598/598/598 599/599/599
f 601/601/601 603/603/603 602/602/602
f 604/604/604 602/602/602 603/603/603
f 603/603/603 605/605/605 604/604/604
f 606/606/606 604/604/604 605/605/605
f 605/605/605 607/607/607 606/606/606
f 608/608/608 606/606/606 607/607/607
f 607/607/607 609/609/609 608/608/608
f 610/610/610 608/608/608 609/609/609
f 609/609/609 611/611/611 610/610/610
f 612/612/612 610/610/610 611/611/611
f 613/613/613 615/615/615 614/614/614
f 616/616/616 614/614/614 615/615/615
f 615/615/615 617/617/617 616/616/616
f 618/618/618 616/616/616 617/617/617
f 617/617/617 619/619/619 618/618/618
f 620/620/620 618/618/618 619/619/619
f 619/619/619 621/621/621 620/620/620
f 622/622/622 620/620/620 621/621/621
f 621/621/621 623/623/623 622/622/622
f 624/624/624 622/622/622 623/623/623
f 625/625/625 627/627/627 626/626/626
f 628/628/628 626/626/626 627/627/627
f 627/627/627 629/629/629 628/628/628
f 630/630/630 628/628/628 629/629/629
f 629/629/629 631/631/631 630/630/630
f 632/632/632 630/630/630 631/631/631
f 631/631/631 633/633/633 632/632/632
f 634/634/634 632/632/632 633/633/633
f 633/633/633 635/635/635 634/634/634
f 636/636/636 634/634/634 635/635/635
f 637/637/637 639/639/639 638/638/638
f 640/640/640 638/638/638 639/639/639
f 639/639/639 641/641/641 640/640/640
f 642/642/642 640/640/640 641/641/641
f 641/641/641 643/643/643 642/642/642
f 644/644/644 642/642/642 643/643/643
f 643/643/643 645/645/645 644/644/644
f 646/646/646 644/644/644 645/645/645
f 645/645/645 647/647/647 646/646/646
f 648/648/648 646/646/646 647/647/647

g ring4
# texture: ring4.jpg
v 346.3631 85.8743 199.9934
v -0.025009 85.8743 0.006119
v -199.9969 85.8743 346.4119
v 146.4103 85.8742 546.4101
v 199.9469 85.8742 -346.3996
v 546.3161 85.8742 -146.4233
v -346.4131 85.8742 -199.9811
v -146.4221 85.8742 -546.3759
v -546.4041 85.8743 146.4136
vn 0 1 -0
vn 0 1 -0
vn 0 1 -0
vn 0 1 -0
vn 0 1 -0
vn 0 1 -0
vn 0 1 -0
vn 0 1 -0
vn 0 1 -0
vt 0.0006 0.5
vt 0.5 0.5
vt 0.5 0.9995
vt 0.0005 0.9995
vt 0.5001 0.0005
vt 0.0006 0.0005
vt 0.9995 0.5
vt 0.9995 0.0005
vt 0.9995 0.9995
f 649/649/649 651/651/651 650/650/650
f 651/651/651 649/649/649 652/652/652
f 649/649/649 650/650/650 653/653/653
f 653/653/653 654/654/654 649/649/649
f 655/655/655 653/653/653 650/650/650
f 653/653/653 655/655/655 656/656/656
f 655/655/655 650/650/650 651/651/651
f 651/651/651 657/657/657 655/655/655
