# Inferno01.bmd — MU geometry at action 0 key 0, exported for MU2
# 2 mesh(es)

g ring3
# texture: ring3.jpg
v -219.6511 245.0107 -261.2942
v -219.651 139.1934 -261.2943
v -137.7296 245.0107 -307.0786
v -137.7295 139.1934 -307.0786
v -46.9125 245.0108 -330.7346
v -46.9125 139.1935 -330.7346
v 46.9349 245.0108 -330.7346
v 46.9349 139.1935 -330.7346
v 137.7519 245.0108 -307.0786
v 137.752 139.1935 -307.0785
v 219.6735 245.0108 -261.2942
v 219.6734 139.1935 -261.2941
v -193.8713 161.755 -226.4549
v -245.4308 222.4492 -296.1336
v -121.5641 161.7549 -266.8659
v -153.8949 222.4492 -347.2913
v -41.4055 161.755 -287.7457
v -52.4195 222.4493 -373.7236
v 41.4279 161.7549 -287.7457
v 52.4419 222.4493 -373.7236
v 121.5866 161.755 -266.8659
v 153.9173 222.4493 -347.2912
v 193.8937 161.755 -226.4548
v 245.4532 222.4493 -296.1335
v -195.5427 226.1111 -228.7136
v -243.7594 158.0931 -293.8749
v -122.6122 226.1111 -269.473
v -152.8469 158.093 -344.6842
v -41.7625 226.1111 -290.5328
v -52.0625 158.0931 -370.9365
v 41.7849 226.1112 -290.5327
v 52.0849 158.0931 -370.9365
v 122.6346 226.1111 -269.473
v 152.8693 158.0931 -344.6841
v 195.565 226.1111 -228.7135
v 243.7818 158.0931 -293.8748
v 158.5865 226.0919 -197.7666
v 158.5865 158.1123 -197.7666
v 203.4944 226.0919 -144.9254
v 203.4944 158.1123 -144.9254
v 233.7879 226.0919 -79.1183
v 233.788 158.1123 -79.1183
v 246.5668 226.0919 -6.6458
v 246.5668 158.1123 -6.6458
v 240.6075 226.0919 65.5537
v 240.6075 158.1123 65.5537
v 216.4806 226.0919 130.5676
v 216.4807 158.1123 130.5675
v 143.1711 172.6064 -170.8285
v 174.0019 211.5979 -224.7047
v 181.6535 172.6064 -125.548
v 225.3354 211.5979 -164.3028
v 207.6125 172.6064 -69.1569
v 259.9634 211.5979 -89.0798
v 218.5629 172.6064 -7.054
v 274.5708 211.5979 -6.2376
v 213.4563 172.6064 54.8149
v 267.7588 211.5979 76.2924
v 192.7816 172.6064 110.5263
v 240.1797 211.5978 150.6087
v 144.1705 213.9504 -172.575
v 173.0024 170.2539 -222.9583
v 183.0695 213.9504 -126.8043
v 223.9193 170.2539 -163.0465
v 209.3095 213.9504 -69.8027
v 258.2664 170.2539 -88.434
v 220.3785 213.9503 -7.0275
v 272.7552 170.2539 -6.264
v 215.2166 213.9503 55.5111
v 265.9985 170.2539 75.5962
v 194.318 213.9503 111.8257
v 238.6432 170.2539 149.3094
v 241.6108 245.0107 241.1551
v 241.6109 139.1934 241.1551
v 163.9914 245.0107 293.9052
v 163.9914 139.1934 293.9052
v 75.5817 245.0107 325.3864
v 75.5818 139.1934 325.3864
v -17.9086 245.0107 333.5657
v -17.9086 139.1934 333.5657
v -110.4418 245.0107 317.9149
v -110.4418 139.1934 317.9149
v -196.0419 245.0107 279.4446
v -196.0419 139.1934 279.4446
v 212.8927 161.7549 208.6952
v 270.3289 222.4493 273.6151
v 144.3828 161.7549 255.2544
v 183.6001 222.4492 332.5559
v 66.349 161.7549 283.041
v 84.8145 222.4492 367.7318
v -16.1692 161.7549 290.2604
v -19.6479 222.4492 376.8711
v -97.8427 161.7549 276.4464
v -123.0409 222.4492 359.3834
v -173.3967 161.7549 242.491
v -218.6871 222.4492 316.3983
v 214.7546 226.1111 210.7996
v 268.467 158.0931 271.5106
v 145.6541 226.1111 257.7603
v 182.3288 158.093 330.0501
v 66.9475 226.1111 285.7864
v 84.216 158.093 364.9865
v -16.282 226.1111 293.068
v -19.5351 158.093 374.0634
v -98.6595 226.111 279.1349
v -122.224 158.093 356.6949
v -174.8649 226.1111 244.8868
v -217.219 158.093 314.0024
v -248.3295 226.0918 48.6088
v -248.3295 158.1122 48.6088
v -248.7653 226.0919 -20.7361
v -248.7653 158.1122 -20.7361
v -229.6715 226.0919 -90.6196
v -229.6715 158.1122 -90.6196
v -192.8763 226.0919 -154.3509
v -192.8763 158.1123 -154.3509
v -141.9023 226.0919 -205.8283
v -141.9023 158.1123 -205.8283
v -81.6299 226.0919 -240.1234
v -81.6299 158.1123 -240.1233
v -219.2052 172.6063 37.8818
v -277.4538 211.5978 59.3358
v -219.5786 172.6063 -21.541
v -277.952 211.5978 -19.9313
v -203.2169 172.6063 -81.4253
v -256.1262 211.5978 -99.8139
v -171.6864 172.6063 -136.0376
v -214.0661 211.5978 -172.6642
v -128.006 172.6063 -180.1495
v -155.7986 211.5978 -231.5072
v -76.3576 172.6063 -209.5374
v -86.9022 211.5978 -270.7093
v -221.0934 213.9503 38.5773
v -275.5657 170.2538 58.6403
v -221.4709 213.9503 -21.4888
v -276.0598 170.2538 -19.9835
v -204.932 213.9503 -82.0214
v -254.4111 170.2538 -99.2179
v -173.0602 213.9503 -137.2249
v -212.6923 170.2538 -171.4769
v -128.9069 213.9503 -181.8143
v -154.8976 170.2539 -229.8424
v -76.6994 213.9503 -211.5204
v -86.5604 170.2539 -268.7263
v -102.5793 229.1529 -31.1338
v -102.5793 155.0512 -31.1338
v -83.1116 229.153 -63.1379
v -83.1116 155.0512 -63.1379
v -58.1714 229.153 -86.3801
v -58.1714 155.0512 -86.3802
v -28.4005 229.153 -100.2625
v -28.4005 155.0512 -100.2626
v 5.4354 229.153 -104.428
v 5.4354 155.0512 -104.428
v 42.4655 229.153 -98.7692
v 42.4655 155.0513 -98.7692
v -85.4091 170.8506 -8.3146
v -119.7495 213.3536 -53.9529
v -67.3811 170.8506 -37.9519
v -98.8421 213.3536 -88.3238
v -44.2853 170.8506 -59.4754
v -72.0575 213.3536 -113.2849
v -16.716 170.8506 -72.3311
v -40.0849 213.3536 -128.194
v 14.6175 170.8506 -76.1885
v -3.7468 213.3536 -132.6675
v 48.9092 170.8506 -70.9482
v 36.0219 213.3536 -126.5902
v -86.5223 215.9179 -9.794
v -118.6363 168.2862 -52.4735
v -68.4009 215.9179 -39.5848
v -97.8223 168.2862 -86.691
v -45.1856 215.9179 -61.2196
v -71.1573 168.2862 -111.5406
v -17.4736 215.918 -74.1419
v -39.3274 168.2862 -126.3831
v 14.0222 215.918 -78.0193
v -3.1515 168.2863 -130.8366
v 48.4914 215.9179 -72.7519
v 36.4396 168.2863 -124.7865
v 85.8661 229.153 63.2041
v 85.8661 155.0512 63.2042
v 56.6264 229.153 86.6198
v 56.6264 155.0512 86.6198
v 25.241 229.153 99.9304
v 25.241 155.0512 99.9304
v -7.4826 229.1529 102.7933
v -7.4826 155.0512 102.7933
v -40.7026 229.1529 95.135
v -40.7025 155.0512 95.135
v -73.5642 229.1529 77.1524
v -73.5641 155.0512 77.1524
v 77.536 170.8506 35.8886
v 94.1963 213.3536 90.5197
v 50.4586 170.8506 57.5726
v 62.7942 213.3536 115.667
v 21.3943 170.8506 69.8988
v 29.0877 213.3536 129.9619
v -8.9093 170.8506 72.55
v -6.0559 213.3536 133.0366
v -39.6725 170.8506 65.4581
v -41.7326 213.3536 124.8119
v -70.1039 170.8506 48.8054
v -77.0244 213.3536 105.4995
v 78.076 215.918 37.6595
v 93.6562 168.2863 88.7488
v 50.8585 215.9179 59.4558
v 62.3943 168.2862 113.7838
v 21.6437 215.9179 71.8458
v 28.8383 168.2862 128.0149
v -8.8168 215.9179 74.5107
v -6.1484 168.2862 131.0758
v -39.7393 215.9179 67.3821
v -41.6658 168.2862 122.8879
v -70.3282 215.9179 50.6432
v -76.8001 168.2862 103.6617
v 279.456 12.2553 196.0532
v 279.4561 118.0726 196.0531
v 317.9262 12.2553 110.453
v 317.9263 118.0726 110.453
v 333.5771 12.2553 17.9197
v 333.5771 118.0726 17.9197
v 325.3977 12.2552 -75.5706
v 325.3977 118.0726 -75.5706
v 293.9165 12.2552 -163.9803
v 293.9165 118.0726 -163.9804
v 241.1663 12.2552 -241.5998
v 241.1664 118.0726 -241.5997
v 242.5023 95.51111 173.4079
v 316.4097 34.8168 218.6984
v 276.4577 95.51111 97.8539
v 359.3948 34.8168 123.0521
v 290.2717 95.51111 16.1804
v 376.8824 34.8168 19.659
v 283.0524 95.51111 -66.3378
v 367.7431 34.8168 -84.8034
v 255.2657 95.51111 -144.3717
v 332.5672 34.8168 -183.589
v 208.7064 95.51111 -212.8816
v 273.6263 34.8168 -270.3179
v 244.8981 31.15491 174.8761
v 314.0139 99.173 217.2302
v 279.1462 31.15491 98.6707
v 356.7063 99.173 122.2352
v 293.0793 31.15491 16.2932
v 374.0748 99.173 19.5463
v 285.7977 31.15491 -66.9364
v 364.9978 99.173 -84.2048
v 257.7716 31.15491 -145.643
v 330.0614 99.173 -182.3177
v 210.8109 31.15491 -214.7435
v 271.5219 99.173 -268.4561
v 183.2046 31.1741 -175.2085
v 183.2046 99.15381 -175.2085
v 126.6505 31.1741 -215.3401
v 126.6505 99.15381 -215.3401
v 58.4535 31.1741 -239.7829
v 58.4535 99.15381 -239.7829
v -14.857 31.1741 -246.1968
v -14.857 99.1537 -246.1968
v -86.2624 31.1741 -233.9675
v -86.2624 99.1537 -233.9675
v -148.9261 31.1741 -204.2661
v -148.926 99.1537 -204.2661
v 157.7125 84.6597 -157.5039
v 208.6967 45.6682 -192.913
v 109.2504 84.6597 -191.8934
v 144.0506 45.6682 -238.7868
v 50.8113 84.6597 -212.8388
v 66.0958 45.6682 -266.727
v -12.0097 84.6597 -218.335
v -17.7044 45.6682 -274.0586
v -73.1981 84.6597 -207.8555
v -99.3267 45.6682 -260.0795
v -126.8956 84.6597 -182.4039
v -170.9565 45.6682 -226.1283
v 159.3652 43.3157 -158.6517
v 207.0439 87.01221 -191.7652
v 110.3785 43.3157 -193.4135
v 142.9225 87.01221 -237.2667
v 51.3068 43.3157 -214.5857
v 65.6003 87.01221 -264.9802
v -12.1943 43.3157 -220.1413
v -17.5198 87.01221 -272.2522
v -74.0451 43.3157 -209.5484
v -98.4797 87.01221 -258.3866
v -128.3239 43.3157 -183.8213
v -169.5282 87.01221 -224.7109
v -261.2831 12.2553 -219.6623
v -261.2831 118.0726 -219.6623
v -307.0675 12.2553 -137.7408
v -307.0675 118.0726 -137.7408
v -330.7235 12.2553 -46.9237
v -330.7235 118.0726 -46.9237
v -330.7235 12.2552 46.9238
v -330.7235 118.0726 46.9238
v -307.0674 12.2552 137.7408
v -307.0674 118.0726 137.7408
v -261.2831 12.2552 219.6624
v -261.2831 118.0726 219.6623
v -226.4437 95.51111 -193.8826
v -296.1225 34.8168 -245.4421
v -266.8548 95.51111 -121.5754
v -347.2801 34.8168 -153.9062
v -287.7346 95.51111 -41.4167
v -373.7125 34.8168 -52.4307
v -287.7346 95.51111 41.4167
v -373.7126 34.8168 52.4308
v -266.8548 95.51111 121.5754
v -347.2802 34.8168 153.9062
v -226.4437 95.51111 193.8826
v -296.1224 34.8168 245.4421
v -228.7024 31.15491 -195.5539
v -293.8637 99.173 -243.7707
v -269.4619 31.15491 -122.6235
v -344.6731 99.173 -152.8581
v -290.5217 31.15491 -41.7738
v -370.9254 99.173 -52.0737
v -290.5216 31.15491 41.7738
v -370.9254 99.173 52.0737
v -269.4619 31.15491 122.6235
v -344.6731 99.173 152.8582
v -228.7024 31.15491 195.5539
v -293.8637 99.173 243.7708
v -26.7684 31.1741 251.6323
v -26.7684 99.15381 251.6323
v 42.3507 31.1741 246.0227
v 42.3507 99.15381 246.0227
v 110.3041 31.1741 220.9108
v 110.3041 99.15381 220.9108
v 170.586 31.1741 178.7009
v 170.586 99.1537 178.7009
v 217.4249 31.1741 123.4343
v 217.4249 99.1537 123.4343
v 246.3363 31.1741 60.4023
v 246.3363 99.1537 60.4023
v -18.6205 84.6597 221.6839
v -34.9162 45.6682 281.5807
v 40.6087 84.6597 216.8769
v 44.0927 45.6682 275.1684
v 98.8391 84.6597 195.3581
v 121.7692 45.6682 246.4635
v 150.4956 84.6597 159.1878
v 190.6764 45.6682 198.2141
v 190.6326 84.6597 111.829
v 244.2172 45.6682 135.0397
v 215.4073 84.6597 57.8158
v 277.2654 45.6682 62.9888
v -19.1488 43.3157 223.6255
v -34.3879 87.01221 279.6391
v 40.7216 43.3157 218.7665
v 43.9798 87.01221 273.2788
v 99.5824 43.3157 197.0148
v 121.0259 87.01221 244.8068
v 151.7981 43.3157 160.4529
v 189.3739 87.01221 196.949
v 192.3696 43.3157 112.5814
v 242.4802 87.01221 134.2873
v 217.4125 43.3157 57.9835
v 275.2602 87.01221 62.8211
v 39.9678 28.1131 99.4866
v 39.9679 102.2148 99.4866
v 70.1535 28.1131 77.3037
v 70.1535 102.2148 77.3037
v 91.1336 28.1131 50.4327
v 91.1336 102.2148 50.4327
v 102.3685 28.11301 19.5651
v 102.3685 102.2148 19.5651
v 103.5691 28.11301 -14.505
v 103.5691 102.2148 -14.505
v 94.7045 28.11301 -50.9011
v 94.7045 102.2148 -50.9011
v 15.739 86.41541 84.3706
v 64.1967 43.9124 114.6027
v 43.6923 86.4155 63.8281
v 96.6146 43.9124 90.7792
v 63.121 86.4155 38.9443
v 119.1463 43.9124 61.9211
v 73.525 86.4155 10.3595
v 131.2121 43.9124 28.7707
v 74.6368 86.4155 -21.191
v 132.5014 43.9124 -7.819
v 66.4277 86.4155 -54.8955
v 122.9812 43.9124 -46.9068
v 17.3098 41.3481 85.3506
v 62.6258 88.9798 113.6227
v 45.4079 41.3481 64.7018
v 94.8991 88.9798 89.9056
v 64.9371 41.3481 39.6892
v 117.3302 88.9798 61.1763
v 75.3949 41.3481 10.9563
v 129.342 88.9798 28.1739
v 76.5125 41.3481 -20.7576
v 130.6256 88.9798 -8.2525
v 68.261 41.3481 -54.6365
v 121.148 88.9798 -47.1657
v -70.4352 28.1131 -80.0197
v -70.4352 102.2148 -80.0197
v -91.2134 28.1131 -48.8504
v -91.2134 102.2148 -48.8504
v -101.7379 28.1131 -16.4243
v -101.7379 102.2148 -16.4243
v -101.7378 28.11301 16.4243
v -101.7378 102.2148 16.4243
v -91.2134 28.11301 48.8504
v -91.2134 102.2148 48.8504
v -70.4352 28.11301 80.0197
v -70.4352 102.2148 80.0197
v -42.4976 86.41541 -74.102
v -98.3728 43.9124 -85.9374
v -61.7391 86.4155 -45.2377
v -120.6876 43.9124 -52.463
v -71.4853 86.4155 -15.2097
v -131.9904 43.9124 -17.639
v -71.4853 86.4155 15.2097
v -131.9904 43.9124 17.6389
v -61.7391 86.4155 45.2377
v -120.6876 43.9124 52.463
v -42.4976 86.4155 74.1019
v -98.3728 43.9124 85.9374
v -44.3088 41.3481 -74.4856
v -96.5616 88.9798 -85.5537
v -63.65 41.3481 -45.472
v -118.7767 88.9798 -52.2288
v -73.4467 41.3481 -15.2884
v -130.0291 88.9798 -17.5602
v -73.4466 41.3481 15.2884
v -130.0291 88.9798 17.5602
v -63.65 41.3481 45.4719
v -118.7767 88.9798 52.2288
v -44.3088 41.3481 74.4856
v -96.5615 88.9798 85.5537
v 168.9822 100.4298 -200.9955
v 168.9822 181.8277 -200.9956
v 105.9657 100.4298 -236.2143
v 105.9657 181.8277 -236.2143
v 36.1064 100.4298 -254.4113
v 36.1064 181.8277 -254.4113
v -36.0839 100.4298 -254.4113
v -36.0839 181.8277 -254.4113
v -105.9432 100.4298 -236.2144
v -105.9432 181.8277 -236.2143
v -168.9598 100.4297 -200.9956
v -168.9598 181.8277 -200.9956
v 149.1516 164.4727 -174.196
v 188.8128 117.7848 -227.7951
v 93.5308 164.4727 -205.2815
v 118.4006 117.7848 -267.1471
v 31.8702 164.4727 -221.3429
v 40.3426 117.7848 -287.4797
v -31.8478 164.4727 -221.3429
v -40.3201 117.7848 -287.4798
v -93.5083 164.4727 -205.2816
v -118.3781 117.7848 -267.1472
v -149.1292 164.4727 -174.1961
v -188.7904 117.7848 -227.7951
v 150.4373 114.968 -175.9335
v 187.5272 167.2895 -226.0576
v 94.3369 114.968 -207.287
v 117.5944 167.2895 -265.1417
v 32.1449 114.968 -223.4868
v 40.0679 167.2895 -285.3358
v -32.1224 114.9679 -223.4868
v -40.0455 167.2896 -285.3358
v -94.3145 114.968 -207.287
v -117.5719 167.2896 -265.1417
v -150.4149 114.968 -175.9336
v -187.5047 167.2896 -226.0576
v -121.9698 114.9827 -152.1283
v -121.9698 167.2748 -152.1283
v -156.5144 114.9827 -111.4812
v -156.5144 167.2748 -111.4812
v -179.8171 114.9827 -60.8603
v -179.8171 167.2748 -60.8603
v -189.647 114.9827 -5.1122
v -189.647 167.2748 -5.1122
v -185.0629 114.9827 50.4258
v -185.0629 167.2748 50.4258
v -166.5038 114.9827 100.4365
v -166.5038 167.2748 100.4365
v -110.1118 156.1254 -131.4066
v -133.8278 126.132 -172.8499
v -139.7137 156.1255 -96.5755
v -173.3151 126.132 -126.3869
v -159.6821 156.1255 -53.1977
v -199.9521 126.132 -68.523
v -168.1055 156.1255 -5.4262
v -211.1885 126.132 -4.7982
v -164.1774 156.1255 42.1653
v -205.9485 126.132 58.6864
v -148.2737 156.1255 85.0202
v -184.7339 126.132 115.8528
v -110.8806 124.3224 -132.75
v -133.059 157.9351 -171.5064
v -140.8029 124.3224 -97.5419
v -172.2259 157.9351 -125.4205
v -160.9875 124.3224 -53.6945
v -198.6467 157.9351 -68.0262
v -169.5022 124.3224 -5.4058
v -209.7919 157.9351 -4.8186
v -165.5314 124.3224 42.7008
v -204.5945 157.9351 58.1509
v -149.4556 124.3224 86.0197
v -183.552 157.9351 114.8533
v -185.8347 100.4298 185.5039
v -185.8347 181.8277 185.5039
v -126.1275 100.4298 226.0809
v -126.1275 181.8277 226.0809
v -58.12 100.4298 250.2973
v -58.12 181.8277 250.2973
v 13.7956 100.4297 256.5891
v 13.7956 181.8277 256.5891
v 84.975 100.4297 244.55
v 84.975 181.8277 244.55
v 150.8213 100.4297 214.9575
v 150.8213 181.8277 214.9575
v -163.7439 164.4727 160.5347
v -207.9256 117.7848 210.4731
v -111.0439 164.4727 196.3496
v -141.2111 117.7848 255.8122
v -51.0179 164.4727 217.7239
v -65.2222 117.7848 282.8707
v 12.4577 164.4727 223.2773
v 15.1335 117.7848 289.9009
v 75.2834 164.4727 212.6511
v 94.6666 117.7848 276.4489
v 133.4019 164.4727 186.5316
v 168.2407 117.7848 243.3834
v -165.1761 114.968 162.1535
v -206.4934 167.2896 208.8543
v -112.0218 114.968 198.2771
v -140.2332 167.2896 253.8847
v -51.4783 114.968 219.8357
v -64.7617 167.2896 280.7589
v 12.5444 114.9679 225.437
v 15.0468 167.2896 287.7412
v 75.9117 114.968 214.7192
v 94.0383 167.2896 274.3808
v 134.5313 114.968 188.3746
v 167.1113 167.2896 241.5405
v 191.0426 114.9827 37.3915
v 191.0426 167.2748 37.3914
v 191.3778 114.9827 -15.9508
v 191.3778 167.2748 -15.9508
v 176.6903 114.9827 -69.7074
v 176.6903 167.2748 -69.7074
v 148.3862 114.9827 -118.7315
v 148.3862 167.2747 -118.7314
v 109.1754 114.9827 -158.3295
v 109.1754 167.2747 -158.3295
v 62.8121 114.9827 -184.7103
v 62.8121 167.2747 -184.7103
v 168.6392 156.1254 29.1399
v 213.4459 126.132 45.643
v 168.9265 156.1255 -16.57
v 213.8291 126.132 -15.3317
v 156.3405 156.1255 -62.6348
v 197.04 126.132 -76.7799
v 132.0863 156.1255 -104.6443
v 164.6861 126.132 -132.8186
v 98.486 156.1255 -138.5765
v 119.8649 126.132 -178.0824
v 58.7564 156.1255 -161.1826
v 66.8677 126.132 -208.2379
v 170.0917 124.3224 29.6749
v 211.9934 157.9351 45.108
v 170.3821 124.3224 -16.5298
v 212.3735 157.9351 -15.3718
v 157.6599 124.3224 -63.0933
v 195.7207 157.9351 -76.3214
v 133.1431 124.3224 -105.5576
v 163.6294 157.9351 -131.9053
v 99.179 124.3224 -139.8571
v 119.1719 157.9351 -176.8018
v 59.0194 124.3224 -162.708
v 66.6048 157.9351 -206.7126
v 78.927 112.6281 -23.949
v 78.927 169.6294 -23.9491
v 63.9518 112.6281 -48.5676
v 63.9518 169.6294 -48.5676
v 44.7671 112.6281 -66.4463
v 44.7671 169.6294 -66.4463
v 21.8663 112.6281 -77.1251
v 21.8663 169.6294 -77.1251
v -4.1612 112.6281 -80.3292
v -4.1612 169.6294 -80.3292
v -32.646 112.6281 -75.9763
v -32.646 169.6294 -75.9763
v 65.7191 157.4761 -6.3958
v 92.1349 124.7814 -41.5023
v 51.8514 157.4761 -29.1938
v 76.0522 124.7814 -67.9414
v 34.0855 157.4761 -45.7503
v 55.4487 124.7814 -87.1423
v 12.8783 157.4761 -55.6393
v 30.8544 124.7814 -98.6108
v -11.2244 157.4761 -58.6065
v 2.902 124.7814 -102.0519
v -37.6026 157.4761 -54.5756
v -27.6893 124.7814 -97.3771
v 66.5754 122.8089 -7.5339
v 91.2786 159.4486 -40.3642
v 52.6359 122.8089 -30.4499
v 75.2677 159.4486 -66.6854
v 34.778 122.8089 -47.092
v 54.7562 159.4486 -85.8005
v 13.461 122.8089 -57.0323
v 30.2717 159.4486 -97.2178
v -10.7665 122.8089 -60.0149
v 2.4441 159.4486 -100.6436
v -37.2813 122.8089 -55.963
v -28.0107 159.4486 -95.9897
v -66.0311 112.6281 48.6185
v -66.0311 169.6295 48.6186
v -43.539 112.6281 66.6306
v -43.539 169.6295 66.6306
v -19.3964 112.6281 76.8695
v -19.3964 169.6295 76.8695
v 5.7757 112.6281 79.0718
v 5.7757 169.6294 79.0718
v 31.3295 112.6281 73.1808
v 31.3295 169.6294 73.1808
v 56.6076 112.6281 59.348
v 56.6076 169.6294 59.348
v -59.6233 157.4761 27.6066
v -72.4389 124.7814 69.6305
v -38.7945 157.4761 44.2866
v -48.2834 124.7814 88.9746
v -16.4374 157.4761 53.7683
v -22.3554 124.7814 99.9707
v 6.8731 157.4761 55.8077
v 4.6782 124.7814 102.3359
v 30.5371 157.4761 50.3524
v 32.1218 124.7814 96.0092
v 53.9459 157.4761 37.5426
v 59.2694 124.7814 81.1535
v -60.0387 122.8089 28.9689
v -72.0234 159.4486 68.2683
v -39.1021 122.8089 45.7353
v -47.9758 159.4486 87.526
v -16.6292 122.8089 55.266
v -22.1635 159.4486 98.473
v 6.802 122.8089 57.316
v 4.7494 159.4486 100.8276
v 30.5885 122.8089 51.8324
v 32.0704 159.4486 94.5292
v 54.1184 122.8089 38.9563
v 59.0968 159.4486 79.7398
vn 0.4879 0 0.8729
vn 0.4879 0 0.8729
vn 0.412198 0 0.911095
vn 0.333097 0 0.942893
vn 0.169294 0 0.985566
vn 0.084601 0 0.996415
vn -0.084601 0 0.996415
vn -0.169294 0 0.985566
vn -0.333097 0 0.942893
vn -0.412198 0 0.911095
vn -0.4879 0 0.8729
vn -0.4879 0 0.8729
vn -0.281388 -0.816965 -0.503378
vn -0.281411 -0.816931 -0.503419
vn -0.2366 -0.8189 -0.5229
vn -0.191195 -0.818879 -0.541186
vn -0.097103 -0.818929 -0.56562
vn -0.048599 -0.818888 -0.571892
vn 0.048599 -0.818888 -0.571892
vn 0.097103 -0.818929 -0.56562
vn 0.191195 -0.818879 -0.541186
vn 0.2366 -0.8189 -0.5229
vn 0.281411 -0.816931 -0.503419
vn 0.281411 -0.816931 -0.503419
vn 0.315086 -0.763465 0.563775
vn 0.315086 -0.763465 0.563775
vn 0.265099 -0.765798 0.585898
vn 0.214194 -0.76578 0.606384
vn 0.108893 -0.765747 0.633856
vn 0.054399 -0.765787 0.640789
vn -0.054399 -0.765787 0.640789
vn -0.108893 -0.765747 0.633856
vn -0.214194 -0.76578 0.606384
vn -0.265099 -0.765798 0.585898
vn -0.315086 -0.763465 0.563775
vn -0.315086 -0.763465 0.563775
vn -0.761989 0 0.64759
vn -0.761989 0 0.64759
vn -0.817514 0 0.57591
vn -0.866713 0 0.498807
vn -0.940745 0 0.339116
vn -0.966411 0 0.257003
vn -0.996031 0 0.089003
vn -0.999995 0 0.0031
vn -0.985063 0 -0.172194
vn -0.965203 0 -0.261501
vn -0.937528 0 -0.34791
vn -0.937528 0 -0.34791
vn 0.423191 -0.831583 -0.359693
vn 0.423191 -0.831583 -0.359693
vn 0.456591 -0.829984 -0.320394
vn 0.48892 -0.826133 -0.280111
vn 0.537599 -0.820698 -0.1935
vn 0.554192 -0.819288 -0.147098
vn 0.571086 -0.81928 -0.051399
vn 0.571386 -0.820679 -0.0021
vn 0.555227 -0.82614 0.096005
vn 0.538675 -0.829961 0.144893
vn 0.520697 -0.831595 0.193199
vn 0.520697 -0.831595 0.193199
vn -0.476113 -0.780721 0.404711
vn -0.476113 -0.780721 0.404711
vn -0.513401 -0.778801 0.360401
vn -0.548989 -0.774284 0.314794
vn -0.602821 -0.767827 0.216908
vn -0.621104 -0.766205 0.164801
vn -0.64001 -0.766212 0.057501
vn -0.640635 -0.767842 0.0023
vn -0.623514 -0.774317 -0.108002
vn -0.605699 -0.778799 -0.1631
vn -0.585824 -0.780733 -0.217409
vn -0.585824 -0.780733 -0.217409
vn -0.562086 0 -0.827079
vn -0.562086 0 -0.827079
vn -0.490086 0 -0.871674
vn -0.413991 0 -0.910281
vn -0.254493 0 -0.967075
vn -0.171206 0 -0.985235
vn -0.0025 0 -0.999997
vn 0.082698 0 -0.996575
vn 0.249612 0 -0.968346
vn 0.331308 0 -0.943523
vn 0.409911 0 -0.912125
vn 0.409911 0 -0.912125
vn 0.324206 -0.816916 0.47701
vn 0.324206 -0.816916 0.47701
vn 0.281296 -0.818889 0.500293
vn 0.237606 -0.818919 0.522412
vn 0.146102 -0.818913 0.555009
vn 0.098199 -0.818888 0.565491
vn 0.0015 -0.818916 0.573911
vn -0.047499 -0.818885 0.571989
vn -0.143297 -0.818881 0.555787
vn -0.190104 -0.818918 0.541512
vn -0.236413 -0.816946 0.52603
vn -0.236413 -0.816946 0.52603
vn -0.362987 -0.763473 -0.534181
vn -0.362987 -0.763473 -0.534181
vn -0.315189 -0.765772 -0.56058
vn -0.266199 -0.765798 -0.585399
vn -0.163689 -0.76575 -0.621959
vn -0.110099 -0.765792 -0.633594
vn -0.0016 -0.765789 -0.64309
vn 0.053199 -0.765788 -0.64089
vn 0.160493 -0.765766 -0.622772
vn 0.212997 -0.765791 -0.606793
vn 0.264788 -0.763466 -0.589074
vn 0.264788 -0.763466 -0.589074
vn 0.99998 0 -0.0063
vn 0.99998 0 -0.0063
vn 0.996432 0 0.084403
vn 0.984552 0 0.175092
vn 0.938635 0 0.344913
vn 0.905518 0 0.424308
vn 0.820189 0 0.572092
vn 0.768025 0 0.64042
vn 0.643905 0 0.765106
vn 0.571273 0 0.820761
vn 0.49449 0 0.869183
vn 0.49449 0 0.869183
vn -0.555389 -0.831583 0.0035
vn -0.555389 -0.831583 0.0035
vn -0.555696 -0.829993 -0.0481
vn -0.554616 -0.826124 -0.099603
vn -0.536193 -0.82069 -0.197398
vn -0.519085 -0.819276 -0.243593
vn -0.470498 -0.819296 -0.327698
vn -0.438999 -0.820698 -0.365699
vn -0.363604 -0.82611 -0.430505
vn -0.319498 -0.829995 -0.457197
vn -0.274698 -0.831593 -0.482696
vn -0.274698 -0.831593 -0.482696
vn 0.624837 -0.780746 -0.0039
vn 0.624837 -0.780746 -0.0039
vn 0.62492 -0.778826 0.053902
vn 0.622886 -0.774283 0.111798
vn 0.601221 -0.767826 0.221308
vn 0.581776 -0.766168 0.272989
vn 0.527296 -0.766194 0.367297
vn 0.49223 -0.767847 0.410025
vn 0.408212 -0.774323 0.483515
vn 0.359121 -0.778845 0.51423
vn 0.309011 -0.780727 0.543119
vn 0.309011 -0.780727 0.543119
vn 0.854363 0 0.519677
vn 0.854363 0 0.519677
vn 0.803502 0 0.595302
vn 0.745503 0 0.666503
vn 0.601998 0 0.798498
vn 0.514613 0 0.857422
vn 0.325991 0 0.945373
vn 0.224801 0 0.974405
vn 0.0314 0 0.999507
vn -0.060498 0 0.998168
vn -0.151103 0 0.988518
vn -0.151103 0 0.988518
vn -0.534171 -0.780457 -0.324882
vn -0.534171 -0.780457 -0.324882
vn -0.491577 -0.792264 -0.361483
vn -0.447298 -0.801496 -0.396898
vn -0.35 -0.814499 -0.4627
vn -0.296906 -0.817916 -0.492809
vn -0.186606 -0.817927 -0.544218
vn -0.129396 -0.814477 -0.565584
vn -0.0166 -0.801483 -0.597787
vn 0.039099 -0.792289 -0.608892
vn 0.094399 -0.780494 -0.617995
vn 0.094399 -0.780494 -0.617995
vn 0.591684 -0.72138 0.35989
vn 0.591684 -0.72138 0.35989
vn 0.546196 -0.734894 0.401997
vn 0.498308 -0.745512 0.442607
vn 0.391604 -0.760608 0.517805
vn 0.332503 -0.764606 0.552105
vn 0.209201 -0.764604 0.609603
vn 0.145002 -0.76061 0.632809
vn 0.018801 -0.74552 0.666218
vn -0.0431 -0.734902 0.676802
vn -0.104598 -0.721387 0.684588
vn -0.104598 -0.721387 0.684588
vn -0.625073 0 -0.780566
vn -0.625073 0 -0.780566
vn -0.551489 0 -0.834183
vn -0.472591 0 -0.881282
vn -0.29249 0 -0.956269
vn -0.190305 0 -0.981725
vn 0.016999 0 -0.999856
vn 0.122004 0 -0.99253
vn 0.312385 0 -0.949956
vn 0.3982 0 -0.917299
vn 0.480029 0 -0.877253
vn 0.480029 0 -0.877253
vn 0.390791 -0.780481 0.487988
vn 0.390791 -0.780481 0.487988
vn 0.338292 -0.792281 0.507788
vn 0.284497 -0.801493 0.525995
vn 0.170698 -0.814492 0.554495
vn 0.110503 -0.817923 0.564616
vn -0.0108 -0.817928 0.57522
vn -0.0718 -0.814502 0.575701
vn -0.188897 -0.801489 0.567392
vn -0.244997 -0.792291 0.558794
vn -0.300086 -0.780464 0.548475
vn -0.300086 -0.780464 0.548475
vn -0.432885 -0.721375 -0.540582
vn -0.432885 -0.721375 -0.540582
vn -0.3757 -0.734899 -0.5646
vn -0.3168 -0.745501 -0.586401
vn -0.190902 -0.760609 -0.620508
vn -0.123603 -0.764621 -0.632517
vn 0.0119 -0.764598 -0.644398
vn 0.080197 -0.760575 -0.644279
vn 0.210199 -0.745496 -0.632497
vn 0.272007 -0.734918 -0.621215
vn 0.332406 -0.721413 -0.607511
vn 0.332406 -0.721413 -0.607511
vn -0.912125 0 -0.409911
vn -0.912125 0 -0.409911
vn -0.943523 0 -0.331308
vn -0.968346 0 -0.249612
vn -0.996575 0 -0.082698
vn -0.999997 0 0.0025
vn -0.985235 0 0.171206
vn -0.967075 0 0.254493
vn -0.910281 0 0.413991
vn -0.871674 0 0.490086
vn -0.827079 0 0.562086
vn -0.827079 0 0.562086
vn 0.525987 0.81698 0.236394
vn 0.52603 0.816946 0.236413
vn 0.541512 0.818918 0.190104
vn 0.555787 0.818881 0.143297
vn 0.571989 0.818885 0.047499
vn 0.573911 0.818916 -0.0015
vn 0.565491 0.818888 -0.098199
vn 0.555009 0.818913 -0.146102
vn 0.522412 0.818919 -0.237606
vn 0.500293 0.818889 -0.281296
vn 0.47701 0.816916 -0.324206
vn 0.47701 0.816916 -0.324206
vn -0.589074 0.763466 -0.264788
vn -0.589074 0.763466 -0.264788
vn -0.606793 0.765791 -0.212997
vn -0.622772 0.765766 -0.160493
vn -0.64089 0.765788 -0.053199
vn -0.64309 0.765789 0.0016
vn -0.633594 0.765792 0.110099
vn -0.621959 0.76575 0.163689
vn -0.585399 0.765798 0.266199
vn -0.56058 0.765772 0.315189
vn -0.534181 0.763473 0.362987
vn -0.534181 0.763473 0.362987
vn -0.578719 0 0.815527
vn -0.578719 0 0.815527
vn -0.502415 0 0.864627
vn -0.421308 0 0.906918
vn -0.255901 0 0.966703
vn -0.171805 0 0.985131
vn -0.0018 0 0.999999
vn 0.084096 0 0.996458
vn 0.257401 0 0.966305
vn 0.344704 0 0.938711
vn 0.428314 0 0.90363
vn 0.428314 0 0.90363
vn 0.321404 0.83161 -0.452906
vn 0.321404 0.83161 -0.452906
vn 0.279392 0.829975 -0.482786
vn 0.236511 0.82614 -0.511425
vn 0.145901 0.820708 -0.552405
vn 0.0982 0.819297 -0.564898
vn 0.0014 0.819283 -0.573388
vn -0.047699 0.820684 -0.569389
vn -0.144107 0.82614 -0.544726
vn -0.191293 0.82997 -0.523981
vn -0.237893 0.831576 -0.501885
vn -0.237893 0.831576 -0.501885
vn -0.361611 0.780724 0.509616
vn -0.361611 0.780724 0.509616
vn -0.314309 0.778821 0.542815
vn -0.265706 0.774317 0.574312
vn -0.163605 0.767824 0.619419
vn -0.1101 0.7662 0.6331
vn -0.0015 0.7662 0.6426
vn 0.053502 0.767826 0.638421
vn 0.161896 0.77428 0.611784
vn 0.215213 0.778847 0.589136
vn 0.267617 0.780749 0.564635
vn 0.267617 0.780749 0.564635
vn 0.8729 0 0.4879
vn 0.8729 0 0.4879
vn 0.911095 0 0.412198
vn 0.942893 0 0.333097
vn 0.985566 0 0.169294
vn 0.996415 0 0.084601
vn 0.996415 0 -0.084601
vn 0.985566 0 -0.169294
vn 0.942893 0 -0.333097
vn 0.911095 0 -0.412198
vn 0.8729 0 -0.4879
vn 0.8729 0 -0.4879
vn -0.503378 0.816965 -0.281388
vn -0.503419 0.816931 -0.281411
vn -0.5229 0.8189 -0.2366
vn -0.541186 0.818879 -0.191195
vn -0.56562 0.818929 -0.097103
vn -0.571892 0.818888 -0.048599
vn -0.571892 0.818888 0.048599
vn -0.56562 0.818929 0.097103
vn -0.541186 0.818879 0.191195
vn -0.5229 0.8189 0.2366
vn -0.503419 0.816931 0.281411
vn -0.503419 0.816931 0.281411
vn 0.563775 0.763465 0.315086
vn 0.563775 0.763465 0.315086
vn 0.585898 0.765798 0.265099
vn 0.606384 0.76578 0.214194
vn 0.633856 0.765747 0.108893
vn 0.640789 0.765787 0.054399
vn 0.640789 0.765787 -0.054399
vn 0.633856 0.765747 -0.108893
vn 0.606384 0.76578 -0.214194
vn 0.585898 0.765798 -0.265099
vn 0.563775 0.763465 -0.315086
vn 0.563775 0.763465 -0.315086
vn -0.080902 0 -0.996722
vn -0.080902 0 -0.996722
vn -0.170898 0 -0.985289
vn -0.260189 0 -0.965558
vn -0.425402 0 -0.905004
vn -0.5016 0 -0.8651
vn -0.641403 0 -0.767204
vn -0.704903 0 -0.709303
vn -0.818296 0 -0.574797
vn -0.867405 0 -0.497603
vn -0.908943 0 -0.41692
vn -0.908943 0 -0.41692
vn 0.044899 0.83158 0.553587
vn 0.044899 0.83158 0.553587
vn 0.096299 0.829994 0.549396
vn 0.147604 0.826123 0.543815
vn 0.24339 0.820667 0.516979
vn 0.287892 0.819277 0.495886
vn 0.367485 0.819265 0.440181
vn 0.402503 0.820706 0.405503
vn 0.460516 0.826128 0.324711
vn 0.483304 0.830006 0.278402
vn 0.504807 0.831611 0.231503
vn 0.504807 0.831611 0.231503
vn -0.050502 0.78073 -0.622824
vn -0.050502 0.78073 -0.622824
vn -0.108205 0.778834 -0.617827
vn -0.165597 0.774284 -0.610788
vn -0.272817 0.767849 -0.579637
vn -0.322592 0.766182 -0.555787
vn -0.411886 0.766174 -0.493283
vn -0.451414 0.767823 -0.454614
vn -0.5173 0.7743 -0.3645
vn -0.5436 0.7788 -0.313
vn -0.568007 0.780709 -0.260503
vn -0.568007 0.780709 -0.260503
vn -0.592196 0 -0.805794
vn -0.592196 0 -0.805794
vn -0.66301 0 -0.748611
vn -0.72891 0 -0.68461
vn -0.847953 0 -0.530071
vn -0.899019 0 -0.437909
vn -0.970178 0 -0.242395
vn -0.990293 0 -0.138999
vn -0.998436 0 0.055902
vn -0.989107 0 0.147201
vn -0.971607 0 0.236602
vn -0.971607 0 0.236602
vn 0.370192 0.780483 0.503789
vn 0.370192 0.780483 0.503789
vn 0.402897 0.792294 0.458197
vn 0.434394 0.801489 0.410995
vn 0.491401 0.814502 0.308401
vn 0.5168 0.8179 0.2529
vn 0.558413 0.817919 0.138503
vn 0.574688 0.814483 0.079698
vn 0.596912 0.801516 -0.035601
vn 0.603184 0.792279 -0.091998
vn 0.607457 0.780445 -0.14799
vn 0.607457 0.780445 -0.14799
vn -0.410107 0.721413 -0.55801
vn -0.410107 0.721413 -0.55801
vn -0.448111 0.734917 -0.509012
vn -0.484401 0.745502 -0.457801
vn -0.54999 0.760586 -0.344994
vn -0.579 0.7646 -0.2831
vn -0.625506 0.764607 -0.155301
vn -0.643079 0.760576 -0.089297
vn -0.66532 0.745523 0.039301
vn -0.670489 0.734888 0.101898
vn -0.672875 0.721373 0.163894
vn -0.672875 0.721373 0.163894
vn 0.832066 0 0.554677
vn 0.832066 0 0.554677
vn 0.879074 0 0.476686
vn 0.919109 0 0.394004
vn 0.978107 0 0.208102
vn 0.994578 0 0.103998
vn 0.994578 0 -0.103998
vn 0.978107 0 -0.208102
vn 0.919109 0 -0.394004
vn 0.879074 0 -0.476686
vn 0.832066 0 -0.554677
vn 0.832066 0 -0.554677
vn -0.520185 0.780477 -0.34679
vn -0.520185 0.780477 -0.34679
vn -0.535367 0.792251 -0.292782
vn -0.54879 0.801485 -0.237596
vn -0.567286 0.81448 -0.121697
vn -0.572113 0.817918 -0.060801
vn -0.572113 0.817918 0.060801
vn -0.567286 0.81448 0.121697
vn -0.54879 0.801485 0.237596
vn -0.535367 0.792251 0.292782
vn -0.520185 0.780477 0.34679
vn -0.520185 0.780477 0.34679
vn 0.576212 0.721416 0.384108
vn 0.576212 0.721416 0.384108
vn 0.595191 0.734889 0.325095
vn 0.611728 0.745535 0.264512
vn 0.634807 0.760608 0.136001
vn 0.640903 0.764604 0.068
vn 0.640903 0.764604 -0.068
vn 0.634807 0.760608 -0.136001
vn 0.611728 0.745535 -0.264512
vn 0.595191 0.734889 -0.325095
vn 0.576212 0.721416 -0.384108
vn 0.576212 0.721416 -0.384108
vn -0.4879 0 0.8729
vn -0.4879 0 0.8729
vn -0.412198 0 0.911095
vn -0.333097 0 0.942893
vn -0.169294 0 0.985566
vn -0.084601 0 0.996415
vn 0.084601 0 0.996415
vn 0.169294 0 0.985566
vn 0.333097 0 0.942893
vn 0.412198 0 0.911095
vn 0.4879 0 0.8729
vn 0.4879 0 0.8729
vn 0.281388 0.816965 -0.503378
vn 0.281388 0.816965 -0.503378
vn 0.2366 0.8189 -0.5229
vn 0.191195 0.818879 -0.541186
vn 0.097103 0.818929 -0.56562
vn 0.048599 0.818888 -0.571892
vn -0.048599 0.818888 -0.571892
vn -0.097103 0.818929 -0.56562
vn -0.191195 0.818879 -0.541186
vn -0.2366 0.8189 -0.5229
vn -0.281411 0.816931 -0.503419
vn -0.281411 0.816931 -0.503419
vn -0.315086 0.763465 0.563775
vn -0.315086 0.763465 0.563775
vn -0.265099 0.765798 0.585898
vn -0.214194 0.76578 0.606384
vn -0.108893 0.765747 0.633856
vn -0.054399 0.765787 0.640789
vn 0.054399 0.765787 0.640789
vn 0.108893 0.765747 0.633856
vn 0.214194 0.76578 0.606384
vn 0.265099 0.765798 0.585898
vn 0.315086 0.763465 0.563775
vn 0.315086 0.763465 0.563775
vn 0.761989 0 0.64759
vn 0.761989 0 0.64759
vn 0.817514 0 0.57591
vn 0.866713 0 0.498807
vn 0.940745 0 0.339116
vn 0.966411 0 0.257003
vn 0.996031 0 0.089003
vn 0.999995 0 0.0031
vn 0.985063 0 -0.172194
vn 0.965203 0 -0.261501
vn 0.937528 0 -0.34791
vn 0.937528 0 -0.34791
vn -0.423191 0.831583 -0.359693
vn -0.423191 0.831583 -0.359693
vn -0.456591 0.829984 -0.320394
vn -0.48892 0.826133 -0.280111
vn -0.537599 0.820698 -0.1935
vn -0.554192 0.819288 -0.147098
vn -0.571086 0.81928 -0.051399
vn -0.571386 0.820679 -0.0021
vn -0.555227 0.82614 0.096005
vn -0.538604 0.830006 0.144901
vn -0.520697 0.831595 0.193199
vn -0.520697 0.831595 0.193199
vn 0.476113 0.780721 0.404711
vn 0.476113 0.780721 0.404711
vn 0.513401 0.778801 0.360401
vn 0.548989 0.774284 0.314794
vn 0.602821 0.767827 0.216908
vn 0.621104 0.766205 0.164801
vn 0.64001 0.766212 0.057501
vn 0.640635 0.767842 0.0023
vn 0.623514 0.774317 -0.108002
vn 0.605699 0.778799 -0.1631
vn 0.585824 0.780733 -0.217409
vn 0.585824 0.780733 -0.217409
vn 0.562086 0 -0.827079
vn 0.562086 0 -0.827079
vn 0.490086 0 -0.871674
vn 0.413991 0 -0.910281
vn 0.254493 0 -0.967075
vn 0.171206 0 -0.985235
vn 0.0025 0 -0.999997
vn -0.082698 0 -0.996575
vn -0.249612 0 -0.968346
vn -0.331308 0 -0.943523
vn -0.409911 0 -0.912125
vn -0.409911 0 -0.912125
vn -0.32418 0.81695 0.476971
vn -0.324206 0.816916 0.47701
vn -0.281296 0.818889 0.500293
vn -0.237606 0.818919 0.522412
vn -0.146102 0.818913 0.555009
vn -0.098199 0.818888 0.565491
vn -0.0015 0.818916 0.573911
vn 0.047499 0.818885 0.571989
vn 0.143297 0.818881 0.555787
vn 0.190104 0.818918 0.541512
vn 0.236394 0.81698 0.525987
vn 0.236394 0.81698 0.525987
vn 0.362987 0.763473 -0.534181
vn 0.362987 0.763473 -0.534181
vn 0.315189 0.765772 -0.56058
vn 0.266199 0.765798 -0.585399
vn 0.163689 0.76575 -0.621959
vn 0.110099 0.765792 -0.633594
vn 0.0016 0.765789 -0.64309
vn -0.053199 0.765788 -0.64089
vn -0.160493 0.765766 -0.622772
vn -0.212997 0.765791 -0.606793
vn -0.264788 0.763466 -0.589074
vn -0.264788 0.763466 -0.589074
vn -0.99998 0 -0.0063
vn -0.99998 0 -0.0063
vn -0.996432 0 0.084403
vn -0.984552 0 0.175092
vn -0.938635 0 0.344913
vn -0.905518 0 0.424308
vn -0.820189 0 0.572092
vn -0.768025 0 0.64042
vn -0.643905 0 0.765106
vn -0.571273 0 0.820761
vn -0.49449 0 0.869183
vn -0.49449 0 0.869183
vn 0.555389 0.831583 0.0035
vn 0.555389 0.831583 0.0035
vn 0.555696 0.829993 -0.0481
vn 0.554616 0.826124 -0.099603
vn 0.536193 0.82069 -0.197398
vn 0.519085 0.819276 -0.243593
vn 0.470498 0.819296 -0.327698
vn 0.438999 0.820698 -0.365699
vn 0.363604 0.82611 -0.430505
vn 0.319498 0.829995 -0.457197
vn 0.274698 0.831593 -0.482696
vn 0.274698 0.831593 -0.482696
vn -0.624837 0.780746 -0.0039
vn -0.624837 0.780746 -0.0039
vn -0.62492 0.778826 0.053902
vn -0.622886 0.774283 0.111798
vn -0.601221 0.767826 0.221308
vn -0.581776 0.766168 0.272989
vn -0.527296 0.766194 0.367297
vn -0.49223 0.767847 0.410025
vn -0.408212 0.774323 0.483515
vn -0.359121 0.778845 0.51423
vn -0.309011 0.780727 0.543119
vn -0.309011 0.780727 0.543119
vn -0.854363 0 0.519677
vn -0.854363 0 0.519677
vn -0.803502 0 0.595302
vn -0.745503 0 0.666503
vn -0.601998 0 0.798498
vn -0.514613 0 0.857422
vn -0.325991 0 0.945373
vn -0.224801 0 0.974405
vn -0.0314 0 0.999507
vn 0.060498 0 0.998168
vn 0.151103 0 0.988518
vn 0.151103 0 0.988518
vn 0.534171 0.780457 -0.324882
vn 0.534171 0.780457 -0.324882
vn 0.491577 0.792264 -0.361483
vn 0.447298 0.801496 -0.396898
vn 0.35 0.814499 -0.4627
vn 0.296906 0.817916 -0.492809
vn 0.186606 0.817927 -0.544218
vn 0.129396 0.814477 -0.565584
vn 0.0166 0.801483 -0.597787
vn -0.039099 0.792289 -0.608892
vn -0.094399 0.780494 -0.617995
vn -0.094399 0.780494 -0.617995
vn -0.591684 0.72138 0.35989
vn -0.591684 0.72138 0.35989
vn -0.546196 0.734894 0.401997
vn -0.498308 0.745512 0.442607
vn -0.391604 0.760608 0.517805
vn -0.332503 0.764606 0.552105
vn -0.209201 0.764604 0.609603
vn -0.145002 0.76061 0.632809
vn -0.018801 0.74552 0.666218
vn 0.0431 0.734902 0.676802
vn 0.104598 0.721387 0.684588
vn 0.104598 0.721387 0.684588
vn 0.625073 0 -0.780566
vn 0.625073 0 -0.780566
vn 0.551489 0 -0.834183
vn 0.472591 0 -0.881282
vn 0.29249 0 -0.956269
vn 0.190305 0 -0.981725
vn -0.016999 0 -0.999856
vn -0.122004 0 -0.99253
vn -0.312385 0 -0.949956
vn -0.3982 0 -0.917299
vn -0.480029 0 -0.877253
vn -0.480029 0 -0.877253
vn -0.390791 0.780481 0.487988
vn -0.390791 0.780481 0.487988
vn -0.338292 0.792281 0.507788
vn -0.284497 0.801493 0.525995
vn -0.170698 0.814492 0.554495
vn -0.110503 0.817923 0.564616
vn 0.0108 0.817928 0.57522
vn 0.0718 0.814502 0.575701
vn 0.188897 0.801489 0.567392
vn 0.244997 0.792291 0.558794
vn 0.300086 0.780464 0.548475
vn 0.300086 0.780464 0.548475
vn 0.432885 0.721375 -0.540582
vn 0.432885 0.721375 -0.540582
vn 0.3757 0.734899 -0.5646
vn 0.3168 0.745501 -0.586401
vn 0.190902 0.760609 -0.620508
vn 0.123603 0.764621 -0.632517
vn -0.0119 0.764598 -0.644398
vn -0.080197 0.760575 -0.644279
vn -0.210199 0.745496 -0.632497
vn -0.272007 0.734918 -0.621215
vn -0.332406 0.721413 -0.607511
vn -0.332406 0.721413 -0.607511
vt 0.9995 0.9995
vt 0.0005 0.9995
vt 0.9995 0.7997
vt 0.0005 0.7997
vt 0.9995 0.5999
vt 0.0005 0.5999
vt 0.9995 0.4001
vt 0.0005 0.4001
vt 0.9995 0.2003
vt 0.0005 0.2003
vt 0.9995 0.0005
vt 0.0005 0.0005
vt 0.9995 0.9995
vt 0.0005 0.9995
vt 0.9995 0.7997
vt 0.0005 0.7997
vt 0.9995 0.5999
vt 0.0005 0.5999
vt 0.9995 0.4001
vt 0.0005 0.4001
vt 0.9995 0.2003
vt 0.0005 0.2003
vt 0.9995 0.0005
vt 0.0005 0.0005
vt 0.9995 0.9995
vt 0.0005 0.9995
vt 0.9995 0.7997
vt 0.0005 0.7997
vt 0.9995 0.5999
vt 0.0005 0.5999
vt 0.9995 0.4001
vt 0.0005 0.4001
vt 0.9995 0.2003
vt 0.0005 0.2003
vt 0.9995 0.0005
vt 0.0005 0.0005
vt 0.9995 0.9995
vt 0.0005 0.9995
vt 0.9995 0.7997
vt 0.0005 0.7997
vt 0.9995 0.5999
vt 0.0005 0.5999
vt 0.9995 0.4001
vt 0.0005 0.4001
vt 0.9995 0.2003
vt 0.0005 0.2003
vt 0.9995 0.0005
vt 0.0005 0.0005
vt 0.9995 0.9995
vt 0.0005 0.9995
vt 0.9995 0.7997
vt 0.0005 0.7997
vt 0.9995 0.5999
vt 0.0005 0.5999
vt 0.9995 0.4001
vt 0.0005 0.4001
vt 0.9995 0.2003
vt 0.0005 0.2003
vt 0.9995 0.0005
vt 0.0005 0.0005
vt 0.9995 0.9995
vt 0.0005 0.9995
vt 0.9995 0.7997
vt 0.0005 0.7997
vt 0.9995 0.5999
vt 0.0005 0.5999
vt 0.9995 0.4001
vt 0.0005 0.4001
vt 0.9995 0.2003
vt 0.0005 0.2003
vt 0.9995 0.0005
vt 0.0005 0.0005
vt 0.9995 0.9995
vt 0.0005 0.9995
vt 0.9995 0.7997
vt 0.0005 0.7997
vt 0.9995 0.5999
vt 0.0005 0.5999
vt 0.9995 0.4001
vt 0.0005 0.4001
vt 0.9995 0.2003
vt 0.0005 0.2003
vt 0.9995 0.0005
vt 0.0005 0.0005
vt 0.9995 0.9995
vt 0.0005 0.9995
vt 0.9995 0.7997
vt 0.0005 0.7997
vt 0.9995 0.5999
vt 0.0005 0.5999
vt 0.9995 0.4001
vt 0.0005 0.4001
vt 0.9995 0.2003
vt 0.0005 0.2003
vt 0.9995 0.0005
vt 0.0005 0.0005
vt 0.9995 0.9995
vt 0.0005 0.9995
vt 0.9995 0.7997
vt 0.0005 0.7997
vt 0.9995 0.5999
vt 0.0005 0.5999
vt 0.9995 0.4001
vt 0.0005 0.4001
vt 0.9995 0.2003
vt 0.0005 0.2003
vt 0.9995 0.0005
vt 0.0005 0.0005
vt 0.9995 0.9995
vt 0.0005 0.9995
vt 0.9995 0.7997
vt 0.0005 0.7997
vt 0.9995 0.5999
vt 0.0005 0.5999
vt 0.9995 0.4001
vt 0.0005 0.4001
vt 0.9995 0.2003
vt 0.0005 0.2003
vt 0.9995 0.0005
vt 0.0005 0.0005
vt 0.9995 0.9995
vt 0.0005 0.9995
vt 0.9995 0.7997
vt 0.0005 0.7997
vt 0.9995 0.5999
vt 0.0005 0.5999
vt 0.9995 0.4001
vt 0.0005 0.4001
vt 0.9995 0.2003
vt 0.0005 0.2003
vt 0.9995 0.0005
vt 0.0005 0.0005
vt 0.9995 0.9995
vt 0.0005 0.9995
vt 0.9995 0.7997
vt 0.0005 0.7997
vt 0.9995 0.5999
vt 0.0005 0.5999
vt 0.9995 0.4001
vt 0.0005 0.4001
vt 0.9995 0.2003
vt 0.0005 0.2003
vt 0.9995 0.0005
vt 0.0005 0.0005
vt 0.9995 0.9995
vt 0.0005 0.9995
vt 0.9995 0.7997
vt 0.0005 0.7997
vt 0.9995 0.5999
vt 0.0005 0.5999
vt 0.9995 0.4001
vt 0.0005 0.4001
vt 0.9995 0.2003
vt 0.0005 0.2003
vt 0.9995 0.0005
vt 0.0005 0.0005
vt 0.9995 0.9995
vt 0.0005 0.9995
vt 0.9995 0.7997
vt 0.0005 0.7997
vt 0.9995 0.5999
vt 0.0005 0.5999
vt 0.9995 0.4001
vt 0.0005 0.4001
vt 0.9995 0.2003
vt 0.0005 0.2003
vt 0.9995 0.0005
vt 0.0005 0.0005
vt 0.9995 0.9995
vt 0.0005 0.9995
vt 0.9995 0.7997
vt 0.0005 0.7997
vt 0.9995 0.5999
vt 0.0005 0.5999
vt 0.9995 0.4001
vt 0.0005 0.4001
vt 0.9995 0.2003
vt 0.0005 0.2003
vt 0.9995 0.0005
vt 0.0005 0.0005
vt 0.9995 0.9995
vt 0.0005 0.9995
vt 0.9995 0.7997
vt 0.0005 0.7997
vt 0.9995 0.5999
vt 0.0005 0.5999
vt 0.9995 0.4001
vt 0.0005 0.4001
vt 0.9995 0.2003
vt 0.0005 0.2003
vt 0.9995 0.0005
vt 0.0005 0.0005
vt 0.9995 0.9995
vt 0.0005 0.9995
vt 0.9995 0.7997
vt 0.0005 0.7997
vt 0.9995 0.5999
vt 0.0005 0.5999
vt 0.9995 0.4001
vt 0.0005 0.4001
vt 0.9995 0.2003
vt 0.0005 0.2003
vt 0.9995 0.0005
vt 0.0005 0.0005
vt 0.9995 0.9995
vt 0.0005 0.9995
vt 0.9995 0.7997
vt 0.0005 0.7997
vt 0.9995 0.5999
vt 0.0005 0.5999
vt 0.9995 0.4001
vt 0.0005 0.4001
vt 0.9995 0.2003
vt 0.0005 0.2003
vt 0.9995 0.0005
vt 0.0005 0.0005
vt 0.9995 0.9995
vt 0.0005 0.9995
vt 0.9995 0.7997
vt 0.0005 0.7997
vt 0.9995 0.5999
vt 0.0005 0.5999
vt 0.9995 0.4001
vt 0.0005 0.4001
vt 0.9995 0.2003
vt 0.0005 0.2003
vt 0.9995 0.0005
vt 0.0005 0.0005
vt 0.9995 0.9995
vt 0.0005 0.9995
vt 0.9995 0.7997
vt 0.0005 0.7997
vt 0.9995 0.5999
vt 0.0005 0.5999
vt 0.9995 0.4001
vt 0.0005 0.4001
vt 0.9995 0.2003
vt 0.0005 0.2003
vt 0.9995 0.0005
vt 0.0005 0.0005
vt 0.9995 0.9995
vt 0.0005 0.9995
vt 0.9995 0.7997
vt 0.0005 0.7997
vt 0.9995 0.5999
vt 0.0005 0.5999
vt 0.9995 0.4001
vt 0.0005 0.4001
vt 0.9995 0.2003
vt 0.0005 0.2003
vt 0.9995 0.0005
vt 0.0005 0.0005
vt 0.9995 0.9995
vt 0.0005 0.9995
vt 0.9995 0.7997
vt 0.0005 0.7997
vt 0.9995 0.5999
vt 0.0005 0.5999
vt 0.9995 0.4001
vt 0.0005 0.4001
vt 0.9995 0.2003
vt 0.0005 0.2003
vt 0.9995 0.0005
vt 0.0005 0.0005
vt 0.9995 0.9995
vt 0.0005 0.9995
vt 0.9995 0.7997
vt 0.0005 0.7997
vt 0.9995 0.5999
vt 0.0005 0.5999
vt 0.9995 0.4001
vt 0.0005 0.4001
vt 0.9995 0.2003
vt 0.0005 0.2003
vt 0.9995 0.0005
vt 0.0005 0.0005
vt 0.9995 0.9995
vt 0.0005 0.9995
vt 0.9995 0.7997
vt 0.0005 0.7997
vt 0.9995 0.5999
vt 0.0005 0.5999
vt 0.9995 0.4001
vt 0.0005 0.4001
vt 0.9995 0.2003
vt 0.0005 0.2003
vt 0.9995 0.0005
vt 0.0005 0.0005
vt 0.9995 0.9995
vt 0.0005 0.9995
vt 0.9995 0.7997
vt 0.0005 0.7997
vt 0.9995 0.5999
vt 0.0005 0.5999
vt 0.9995 0.4001
vt 0.0005 0.4001
vt 0.9995 0.2003
vt 0.0005 0.2003
vt 0.9995 0.0005
vt 0.0005 0.0005
vt 0.9995 0.9995
vt 0.0005 0.9995
vt 0.9995 0.7997
vt 0.0005 0.7997
vt 0.9995 0.5999
vt 0.0005 0.5999
vt 0.9995 0.4001
vt 0.0005 0.4001
vt 0.9995 0.2003
vt 0.0005 0.2003
vt 0.9995 0.0005
vt 0.0005 0.0005
vt 0.9995 0.9995
vt 0.0005 0.9995
vt 0.9995 0.7997
vt 0.0005 0.7997
vt 0.9995 0.5999
vt 0.0005 0.5999
vt 0.9995 0.4001
vt 0.0005 0.4001
vt 0.9995 0.2003
vt 0.0005 0.2003
vt 0.9995 0.0005
vt 0.0005 0.0005
vt 0.9995 0.9995
vt 0.0005 0.9995
vt 0.9995 0.7997
vt 0.0005 0.7997
vt 0.9995 0.5999
vt 0.0005 0.5999
vt 0.9995 0.4001
vt 0.0005 0.4001
vt 0.9995 0.2003
vt 0.0005 0.2003
vt 0.9995 0.0005
vt 0.0005 0.0005
vt 0.9995 0.9995
vt 0.0005 0.9995
vt 0.9995 0.7997
vt 0.0005 0.7997
vt 0.9995 0.5999
vt 0.0005 0.5999
vt 0.9995 0.4001
vt 0.0005 0.4001
vt 0.9995 0.2003
vt 0.0005 0.2003
vt 0.9995 0.0005
vt 0.0005 0.0005
vt 0.9995 0.9995
vt 0.0005 0.9995
vt 0.9995 0.7997
vt 0.0005 0.7997
vt 0.9995 0.5999
vt 0.0005 0.5999
vt 0.9995 0.4001
vt 0.0005 0.4001
vt 0.9995 0.2003
vt 0.0005 0.2003
vt 0.9995 0.0005
vt 0.0005 0.0005
vt 0.9995 0.9995
vt 0.0005 0.9995
vt 0.9995 0.7997
vt 0.0005 0.7997
vt 0.9995 0.5999
vt 0.0005 0.5999
vt 0.9995 0.4001
vt 0.0005 0.4001
vt 0.9995 0.2003
vt 0.0005 0.2003
vt 0.9995 0.0005
vt 0.0005 0.0005
vt 0.9995 0.9995
vt 0.0005 0.9995
vt 0.9995 0.7997
vt 0.0005 0.7997
vt 0.9995 0.5999
vt 0.0005 0.5999
vt 0.9995 0.4001
vt 0.0005 0.4001
vt 0.9995 0.2003
vt 0.0005 0.2003
vt 0.9995 0.0005
vt 0.0005 0.0005
vt 0.9995 0.9995
vt 0.0005 0.9995
vt 0.9995 0.7997
vt 0.0005 0.7997
vt 0.9995 0.5999
vt 0.0005 0.5999
vt 0.9995 0.4001
vt 0.0005 0.4001
vt 0.9995 0.2003
vt 0.0005 0.2003
vt 0.9995 0.0005
vt 0.0005 0.0005
vt 0.9995 0.9995
vt 0.0005 0.9995
vt 0.9995 0.7997
vt 0.0005 0.7997
vt 0.9995 0.5999
vt 0.0005 0.5999
vt 0.9995 0.4001
vt 0.0005 0.4001
vt 0.9995 0.2003
vt 0.0005 0.2003
vt 0.9995 0.0005
vt 0.0005 0.0005
vt 0.9995 0.9995
vt 0.0005 0.9995
vt 0.9995 0.7997
vt 0.0005 0.7997
vt 0.9995 0.5999
vt 0.0005 0.5999
vt 0.9995 0.4001
vt 0.0005 0.4001
vt 0.9995 0.2003
vt 0.0005 0.2003
vt 0.9995 0.0005
vt 0.0005 0.0005
vt 0.9995 0.9995
vt 0.0005 0.9995
vt 0.9995 0.7997
vt 0.0005 0.7997
vt 0.9995 0.5999
vt 0.0005 0.5999
vt 0.9995 0.4001
vt 0.0005 0.4001
vt 0.9995 0.2003
vt 0.0005 0.2003
vt 0.9995 0.0005
vt 0.0005 0.0005
vt 0.9995 0.9995
vt 0.0005 0.9995
vt 0.9995 0.7997
vt 0.0005 0.7997
vt 0.9995 0.5999
vt 0.0005 0.5999
vt 0.9995 0.4001
vt 0.0005 0.4001
vt 0.9995 0.2003
vt 0.0005 0.2003
vt 0.9995 0.0005
vt 0.0005 0.0005
vt 0.9995 0.9995
vt 0.0005 0.9995
vt 0.9995 0.7997
vt 0.0005 0.7997
vt 0.9995 0.5999
vt 0.0005 0.5999
vt 0.9995 0.4001
vt 0.0005 0.4001
vt 0.9995 0.2003
vt 0.0005 0.2003
vt 0.9995 0.0005
vt 0.0005 0.0005
vt 0.9995 0.9995
vt 0.0005 0.9995
vt 0.9995 0.7997
vt 0.0005 0.7997
vt 0.9995 0.5999
vt 0.0005 0.5999
vt 0.9995 0.4001
vt 0.0005 0.4001
vt 0.9995 0.2003
vt 0.0005 0.2003
vt 0.9995 0.0005
vt 0.0005 0.0005
vt 0.9995 0.9995
vt 0.0005 0.9995
vt 0.9995 0.7997
vt 0.0005 0.7997
vt 0.9995 0.5999
vt 0.0005 0.5999
vt 0.9995 0.4001
vt 0.0005 0.4001
vt 0.9995 0.2003
vt 0.0005 0.2003
vt 0.9995 0.0005
vt 0.0005 0.0005
vt 0.9995 0.9995
vt 0.0005 0.9995
vt 0.9995 0.7997
vt 0.0005 0.7997
vt 0.9995 0.5999
vt 0.0005 0.5999
vt 0.9995 0.4001
vt 0.0005 0.4001
vt 0.9995 0.2003
vt 0.0005 0.2003
vt 0.9995 0.0005
vt 0.0005 0.0005
vt 0.9995 0.9995
vt 0.0005 0.9995
vt 0.9995 0.7997
vt 0.0005 0.7997
vt 0.9995 0.5999
vt 0.0005 0.5999
vt 0.9995 0.4001
vt 0.0005 0.4001
vt 0.9995 0.2003
vt 0.0005 0.2003
vt 0.9995 0.0005
vt 0.0005 0.0005
vt 0.9995 0.9995
vt 0.0005 0.9995
vt 0.9995 0.7997
vt 0.0005 0.7997
vt 0.9995 0.5999
vt 0.0005 0.5999
vt 0.9995 0.4001
vt 0.0005 0.4001
vt 0.9995 0.2003
vt 0.0005 0.2003
vt 0.9995 0.0005
vt 0.0005 0.0005
vt 0.9995 0.9995
vt 0.0005 0.9995
vt 0.9995 0.7997
vt 0.0005 0.7997
vt 0.9995 0.5999
vt 0.0005 0.5999
vt 0.9995 0.4001
vt 0.0005 0.4001
vt 0.9995 0.2003
vt 0.0005 0.2003
vt 0.9995 0.0005
vt 0.0005 0.0005
vt 0.9995 0.9995
vt 0.0005 0.9995
vt 0.9995 0.7997
vt 0.0005 0.7997
vt 0.9995 0.5999
vt 0.0005 0.5999
vt 0.9995 0.4001
vt 0.0005 0.4001
vt 0.9995 0.2003
vt 0.0005 0.2003
vt 0.9995 0.0005
vt 0.0005 0.0005
vt 0.9995 0.9995
vt 0.0005 0.9995
vt 0.9995 0.7997
vt 0.0005 0.7997
vt 0.9995 0.5999
vt 0.0005 0.5999
vt 0.9995 0.4001
vt 0.0005 0.4001
vt 0.9995 0.2003
vt 0.0005 0.2003
vt 0.9995 0.0005
vt 0.0005 0.0005
vt 0.9995 0.9995
vt 0.0005 0.9995
vt 0.9995 0.7997
vt 0.0005 0.7997
vt 0.9995 0.5999
vt 0.0005 0.5999
vt 0.9995 0.4001
vt 0.0005 0.4001
vt 0.9995 0.2003
vt 0.0005 0.2003
vt 0.9995 0.0005
vt 0.0005 0.0005
vt 0.9995 0.9995
vt 0.0005 0.9995
vt 0.9995 0.7997
vt 0.0005 0.7997
vt 0.9995 0.5999
vt 0.0005 0.5999
vt 0.9995 0.4001
vt 0.0005 0.4001
vt 0.9995 0.2003
vt 0.0005 0.2003
vt 0.9995 0.0005
vt 0.0005 0.0005
vt 0.9995 0.9995
vt 0.0005 0.9995
vt 0.9995 0.7997
vt 0.0005 0.7997
vt 0.9995 0.5999
vt 0.0005 0.5999
vt 0.9995 0.4001
vt 0.0005 0.4001
vt 0.9995 0.2003
vt 0.0005 0.2003
vt 0.9995 0.0005
vt 0.0005 0.0005
vt 0.9995 0.9995
vt 0.0005 0.9995
vt 0.9995 0.7997
vt 0.0005 0.7997
vt 0.9995 0.5999
vt 0.0005 0.5999
vt 0.9995 0.4001
vt 0.0005 0.4001
vt 0.9995 0.2003
vt 0.0005 0.2003
vt 0.9995 0.0005
vt 0.0005 0.0005
vt 0.9995 0.9995
vt 0.0005 0.9995
vt 0.9995 0.7997
vt 0.0005 0.7997
vt 0.9995 0.5999
vt 0.0005 0.5999
vt 0.9995 0.4001
vt 0.0005 0.4001
vt 0.9995 0.2003
vt 0.0005 0.2003
vt 0.9995 0.0005
vt 0.0005 0.0005
vt 0.9995 0.9995
vt 0.0005 0.9995
vt 0.9995 0.7997
vt 0.0005 0.7997
vt 0.9995 0.5999
vt 0.0005 0.5999
vt 0.9995 0.4001
vt 0.0005 0.4001
vt 0.9995 0.2003
vt 0.0005 0.2003
vt 0.9995 0.0005
vt 0.0005 0.0005
vt 0.9995 0.9995
vt 0.0005 0.9995
vt 0.9995 0.7997
vt 0.0005 0.7997
vt 0.9995 0.5999
vt 0.0005 0.5999
vt 0.9995 0.4001
vt 0.0005 0.4001
vt 0.9995 0.2003
vt 0.0005 0.2003
vt 0.9995 0.0005
vt 0.0005 0.0005
vt 0.9995 0.9995
vt 0.0005 0.9995
vt 0.9995 0.7997
vt 0.0005 0.7997
vt 0.9995 0.5999
vt 0.0005 0.5999
vt 0.9995 0.4001
vt 0.0005 0.4001
vt 0.9995 0.2003
vt 0.0005 0.2003
vt 0.9995 0.0005
vt 0.0005 0.0005
f 1/1/1 3/3/3 2/2/2
f 4/4/4 2/2/2 3/3/3
f 3/3/3 5/5/5 4/4/4
f 6/6/6 4/4/4 5/5/5
f 5/5/5 7/7/7 6/6/6
f 8/8/8 6/6/6 7/7/7
f 7/7/7 9/9/9 8/8/8
f 10/10/10 8/8/8 9/9/9
f 9/9/9 11/11/11 10/10/10
f 12/12/12 10/10/10 11/11/11
f 13/13/13 15/15/15 14/14/14
f 16/16/16 14/14/14 15/15/15
f 15/15/15 17/17/17 16/16/16
f 18/18/18 16/16/16 17/17/17
f 17/17/17 19/19/19 18/18/18
f 20/20/20 18/18/18 19/19/19
f 19/19/19 21/21/21 20/20/20
f 22/22/22 20/20/20 21/21/21
f 21/21/21 23/23/23 22/22/22
f 24/24/24 22/22/22 23/23/23
f 25/25/25 27/27/27 26/26/26
f 28/28/28 26/26/26 27/27/27
f 27/27/27 29/29/29 28/28/28
f 30/30/30 28/28/28 29/29/29
f 29/29/29 31/31/31 30/30/30
f 32/32/32 30/30/30 31/31/31
f 31/31/31 33/33/33 32/32/32
f 34/34/34 32/32/32 33/33/33
f 33/33/33 35/35/35 34/34/34
f 36/36/36 34/34/34 35/35/35
f 37/37/37 39/39/39 38/38/38
f 40/40/40 38/38/38 39/39/39
f 39/39/39 41/41/41 40/40/40
f 42/42/42 40/40/40 41/41/41
f 41/41/41 43/43/43 42/42/42
f 44/44/44 42/42/42 43/43/43
f 43/43/43 45/45/45 44/44/44
f 46/46/46 44/44/44 45/45/45
f 45/45/45 47/47/47 46/46/46
f 48/48/48 46/46/46 47/47/47
f 49/49/49 51/51/51 50/50/50
f 52/52/52 50/50/50 51/51/51
f 51/51/51 53/53/53 52/52/52
f 54/54/54 52/52/52 53/53/53
f 53/53/53 55/55/55 54/54/54
f 56/56/56 54/54/54 55/55/55
f 55/55/55 57/57/57 56/56/56
f 58/58/58 56/56/56 57/57/57
f 57/57/57 59/59/59 58/58/58
f 60/60/60 58/58/58 59/59/59
f 61/61/61 63/63/63 62/62/62
f 64/64/64 62/62/62 63/63/63
f 63/63/63 65/65/65 64/64/64
f 66/66/66 64/64/64 65/65/65
f 65/65/65 67/67/67 66/66/66
f 68/68/68 66/66/66 67/67/67
f 67/67/67 69/69/69 68/68/68
f 70/70/70 68/68/68 69/69/69
f 69/69/69 71/71/71 70/70/70
f 72/72/72 70/70/70 71/71/71
f 73/73/73 75/75/75 74/74/74
f 76/76/76 74/74/74 75/75/75
f 75/75/75 77/77/77 76/76/76
f 78/78/78 76/76/76 77/77/77
f 77/77/77 79/79/79 78/78/78
f 80/80/80 78/78/78 79/79/79
f 79/79/79 81/81/81 80/80/80
f 82/82/82 80/80/80 81/81/81
f 81/81/81 83/83/83 82/82/82
f 84/84/84 82/82/82 83/83/83
f 85/85/85 87/87/87 86/86/86
f 88/88/88 86/86/86 87/87/87
f 87/87/87 89/89/89 88/88/88
f 90/90/90 88/88/88 89/89/89
f 89/89/89 91/91/91 90/90/90
f 92/92/92 90/90/90 91/91/91
f 91/91/91 93/93/93 92/92/92
f 94/94/94 92/92/92 93/93/93
f 93/93/93 95/95/95 94/94/94
f 96/96/96 94/94/94 95/95/95
f 97/97/97 99/99/99 98/98/98
f 100/100/100 98/98/98 99/99/99
f 99/99/99 101/101/101 100/100/100
f 102/102/102 100/100/100 101/101/101
f 101/101/101 103/103/103 102/102/102
f 104/104/104 102/102/102 103/103/103
f 103/103/103 105/105/105 104/104/104
f 106/106/106 104/104/104 105/105/105
f 105/105/105 107/107/107 106/106/106
f 108/108/108 106/106/106 107/107/107
f 109/109/109 111/111/111 110/110/110
f 112/112/112 110/110/110 111/111/111
f 111/111/111 113/113/113 112/112/112
f 114/114/114 112/112/112 113/113/113
f 113/113/113 115/115/115 114/114/114
f 116/116/116 114/114/114 115/115/115
f 115/115/115 117/117/117 116/116/116
f 118/118/118 116/116/116 117/117/117
f 117/117/117 119/119/119 118/118/118
f 120/120/120 118/118/118 119/119/119
f 121/121/121 123/123/123 122/122/122
f 124/124/124 122/122/122 123/123/123
f 123/123/123 125/125/125 124/124/124
f 126/126/126 124/124/124 125/125/125
f 125/125/125 127/127/127 126/126/126
f 128/128/128 126/126/126 127/127/127
f 127/127/127 129/129/129 128/128/128
f 130/130/130 128/128/128 129/129/129
f 129/129/129 131/131/131 130/130/130
f 132/132/132 130/130/130 131/131/131
f 133/133/133 135/135/135 134/134/134
f 136/136/136 134/134/134 135/135/135
f 135/135/135 137/137/137 136/136/136
f 138/138/138 136/136/136 137/137/137
f 137/137/137 139/139/139 138/138/138
f 140/140/140 138/138/138 139/139/139
f 139/139/139 141/141/141 140/140/140
f 142/142/142 140/140/140 141/141/141
f 141/141/141 143/143/143 142/142/142
f 144/144/144 142/142/142 143/143/143
f 145/145/145 147/147/147 146/146/146
f 148/148/148 146/146/146 147/147/147
f 147/147/147 149/149/149 148/148/148
f 150/150/150 148/148/148 149/149/149
f 149/149/149 151/151/151 150/150/150
f 152/152/152 150/150/150 151/151/151
f 151/151/151 153/153/153 152/152/152
f 154/154/154 152/152/152 153/153/153
f 153/153/153 155/155/155 154/154/154
f 156/156/156 154/154/154 155/155/155
f 157/157/157 159/159/159 158/158/158
f 160/160/160 158/158/158 159/159/159
f 159/159/159 161/161/161 160/160/160
f 162/162/162 160/160/160 161/161/161
f 161/161/161 163/163/163 162/162/162
f 164/164/164 162/162/162 163/163/163
f 163/163/163 165/165/165 164/164/164
f 166/166/166 164/164/164 165/165/165
f 165/165/165 167/167/167 166/166/166
f 168/168/168 166/166/166 167/167/167
f 169/169/169 171/171/171 170/170/170
f 172/172/172 170/170/170 171/171/171
f 171/171/171 173/173/173 172/172/172
f 174/174/174 172/172/172 173/173/173
f 173/173/173 175/175/175 174/174/174
f 176/176/176 174/174/174 175/175/175
f 175/175/175 177/177/177 176/176/176
f 178/178/178 176/176/176 177/177/177
f 177/177/177 179/179/179 178/178/178
f 180/180/180 178/178/178 179/179/179
f 181/181/181 183/183/183 182/182/182
f 184/184/184 182/182/182 183/183/183
f 183/183/183 185/185/185 184/184/184
f 186/186/186 184/184/184 185/185/185
f 185/185/185 187/187/187 186/186/186
f 188/188/188 186/186/186 187/187/187
f 187/187/187 189/189/189 188/188/188
f 190/190/190 188/188/188 189/189/189
f 189/189/189 191/191/191 190/190/190
f 192/192/192 190/190/190 191/191/191
f 193/193/193 195/195/195 194/194/194
f 196/196/196 194/194/194 195/195/195
f 195/195/195 197/197/197 196/196/196
f 198/198/198 196/196/196 197/197/197
f 197/197/197 199/199/199 198/198/198
f 200/200/200 198/198/198 199/199/199
f 199/199/199 201/201/201 200/200/200
f 202/202/202 200/200/200 201/201/201
f 201/201/201 203/203/203 202/202/202
f 204/204/204 202/202/202 203/203/203
f 205/205/205 207/207/207 206/206/206
f 208/208/208 206/206/206 207/207/207
f 207/207/207 209/209/209 208/208/208
f 210/210/210 208/208/208 209/209/209
f 209/209/209 211/211/211 210/210/210
f 212/212/212 210/210/210 211/211/211
f 211/211/211 213/213/213 212/212/212
f 214/214/214 212/212/212 213/213/213
f 213/213/213 215/215/215 214/214/214
f 216/216/216 214/214/214 215/215/215
f 217/217/217 219/219/219 218/218/218
f 220/220/220 218/218/218 219/219/219
f 219/219/219 221/221/221 220/220/220
f 222/222/222 220/220/220 221/221/221
f 221/221/221 223/223/223 222/222/222
f 224/224/224 222/222/222 223/223/223
f 223/223/223 225/225/225 224/224/224
f 226/226/226 224/224/224 225/225/225
f 225/225/225 227/227/227 226/226/226
f 228/228/228 226/226/226 227/227/227
f 229/229/229 231/231/231 230/230/230
f 232/232/232 230/230/230 231/231/231
f 231/231/231 233/233/233 232/232/232
f 234/234/234 232/232/232 233/233/233
f 233/233/233 235/235/235 234/234/234
f 236/236/236 234/234/234 235/235/235
f 235/235/235 237/237/237 236/236/236
f 238/238/238 236/236/236 237/237/237
f 237/237/237 239/239/239 238/238/238
f 240/240/240 238/238/238 239/239/239
f 241/241/241 243/243/243 242/242/242
f 244/244/244 242/242/242 243/243/243
f 243/243/243 245/245/245 244/244/244
f 246/246/246 244/244/244 245/245/245
f 245/245/245 247/247/247 246/246/246
f 248/248/248 246/246/246 247/247/247
f 247/247/247 249/249/249 248/248/248
f 250/250/250 248/248/248 249/249/249
f 249/249/249 251/251/251 250/250/250
f 252/252/252 250/250/250 251/251/251
f 253/253/253 255/255/255 254/254/254
f 256/256/256 254/254/254 255/255/255
f 255/255/255 257/257/257 256/256/256
f 258/258/258 256/256/256 257/257/257
f 257/257/257 259/259/259 258/258/258
f 260/260/260 258/258/258 259/259/259
f 259/259/259 261/261/261 260/260/260
f 262/262/262 260/260/260 261/261/261
f 261/261/261 263/263/263 262/262/262
f 264/264/264 262/262/262 263/263/263
f 265/265/265 267/267/267 266/266/266
f 268/268/268 266/266/266 267/267/267
f 267/267/267 269/269/269 268/268/268
f 270/270/270 268/268/268 269/269/269
f 269/269/269 271/271/271 270/270/270
f 272/272/272 270/270/270 271/271/271
f 271/271/271 273/273/273 272/272/272
f 274/274/274 272/272/272 273/273/273
f 273/273/273 275/275/275 274/274/274
f 276/276/276 274/274/274 275/275/275
f 277/277/277 279/279/279 278/278/278
f 280/280/280 278/278/278 279/279/279
f 279/279/279 281/281/281 280/280/280
f 282/282/282 280/280/280 281/281/281
f 281/281/281 283/283/283 282/282/282
f 284/284/284 282/282/282 283/283/283
f 283/283/283 285/285/285 284/284/284
f 286/286/286 284/284/284 285/285/285
f 285/285/285 287/287/287 286/286/286
f 288/288/288 286/286/286 287/287/287
f 289/289/289 291/291/291 290/290/290
f 292/292/292 290/290/290 291/291/291
f 291/291/291 293/293/293 292/292/292
f 294/294/294 292/292/292 293/293/293
f 293/293/293 295/295/295 294/294/294
f 296/296/296 294/294/294 295/295/295
f 295/295/295 297/297/297 296/296/296
f 298/298/298 296/296/296 297/297/297
f 297/297/297 299/299/299 298/298/298
f 300/300/300 298/298/298 299/299/299
f 301/301/301 303/303/303 302/302/302
f 304/304/304 302/302/302 303/303/303
f 303/303/303 305/305/305 304/304/304
f 306/306/306 304/304/304 305/305/305
f 305/305/305 307/307/307 306/306/306
f 308/308/308 306/306/306 307/307/307
f 307/307/307 309/309/309 308/308/308
f 310/310/310 308/308/308 309/309/309
f 309/309/309 311/311/311 310/310/310
f 312/312/312 310/310/310 311/311/311
f 313/313/313 315/315/315 314/314/314
f 316/316/316 314/314/314 315/315/315
f 315/315/315 317/317/317 316/316/316
f 318/318/318 316/316/316 317/317/317
f 317/317/317 319/319/319 318/318/318
f 320/320/320 318/318/318 319/319/319
f 319/319/319 321/321/321 320/320/320
f 322/322/322 320/320/320 321/321/321
f 321/321/321 323/323/323 322/322/322
f 324/324/324 322/322/322 323/323/323
f 325/325/325 327/327/327 326/326/326
f 328/328/328 326/326/326 327/327/327
f 327/327/327 329/329/329 328/328/328
f 330/330/330 328/328/328 329/329/329
f 329/329/329 331/331/331 330/330/330
f 332/332/332 330/330/330 331/331/331
f 331/331/331 333/333/333 332/332/332
f 334/334/334 332/332/332 333/333/333
f 333/333/333 335/335/335 334/334/334
f 336/336/336 334/334/334 335/335/335
f 337/337/337 339/339/339 338/338/338
f 340/340/340 338/338/338 339/339/339
f 339/339/339 341/341/341 340/340/340
f 342/342/342 340/340/340 341/341/341
f 341/341/341 343/343/343 342/342/342
f 344/344/344 342/342/342 343/343/343
f 343/343/343 345/345/345 344/344/344
f 346/346/346 344/344/344 345/345/345
f 345/345/345 347/347/347 346/346/346
f 348/348/348 346/346/346 347/347/347
f 349/349/349 351/351/351 350/350/350
f 352/352/352 350/350/350 351/351/351
f 351/351/351 353/353/353 352/352/352
f 354/354/354 352/352/352 353/353/353
f 353/353/353 355/355/355 354/354/354
f 356/356/356 354/354/354 355/355/355
f 355/355/355 357/357/357 356/356/356
f 358/358/358 356/356/356 357/357/357
f 357/357/357 359/359/359 358/358/358
f 360/360/360 358/358/358 359/359/359
f 361/361/361 363/363/363 362/362/362
f 364/364/364 362/362/362 363/363/363
f 363/363/363 365/365/365 364/364/364
f 366/366/366 364/364/364 365/365/365
f 365/365/365 367/367/367 366/366/366
f 368/368/368 366/366/366 367/367/367
f 367/367/367 369/369/369 368/368/368
f 370/370/370 368/368/368 369/369/369
f 369/369/369 371/371/371 370/370/370
f 372/372/372 370/370/370 371/371/371
f 373/373/373 375/375/375 374/374/374
f 376/376/376 374/374/374 375/375/375
f 375/375/375 377/377/377 376/376/376
f 378/378/378 376/376/376 377/377/377
f 377/377/377 379/379/379 378/378/378
f 380/380/380 378/378/378 379/379/379
f 379/379/379 381/381/381 380/380/380
f 382/382/382 380/380/380 381/381/381
f 381/381/381 383/383/383 382/382/382
f 384/384/384 382/382/382 383/383/383
f 385/385/385 387/387/387 386/386/386
f 388/388/388 386/386/386 387/387/387
f 387/387/387 389/389/389 388/388/388
f 390/390/390 388/388/388 389/389/389
f 389/389/389 391/391/391 390/390/390
f 392/392/392 390/390/390 391/391/391
f 391/391/391 393/393/393 392/392/392
f 394/394/394 392/392/392 393/393/393
f 393/393/393 395/395/395 394/394/394
f 396/396/396 394/394/394 395/395/395
f 397/397/397 399/399/399 398/398/398
f 400/400/400 398/398/398 399/399/399
f 399/399/399 401/401/401 400/400/400
f 402/402/402 400/400/400 401/401/401
f 401/401/401 403/403/403 402/402/402
f 404/404/404 402/402/402 403/403/403
f 403/403/403 405/405/405 404/404/404
f 406/406/406 404/404/404 405/405/405
f 405/405/405 407/407/407 406/406/406
f 408/408/408 406/406/406 407/407/407
f 409/409/409 411/411/411 410/410/410
f 412/412/412 410/410/410 411/411/411
f 411/411/411 413/413/413 412/412/412
f 414/414/414 412/412/412 413/413/413
f 413/413/413 415/415/415 414/414/414
f 416/416/416 414/414/414 415/415/415
f 415/415/415 417/417/417 416/416/416
f 418/418/418 416/416/416 417/417/417
f 417/417/417 419/419/419 418/418/418
f 420/420/420 418/418/418 419/419/419
f 421/421/421 423/423/423 422/422/422
f 424/424/424 422/422/422 423/423/423
f 423/423/423 425/425/425 424/424/424
f 426/426/426 424/424/424 425/425/425
f 425/425/425 427/427/427 426/426/426
f 428/428/428 426/426/426 427/427/427
f 427/427/427 429/429/429 428/428/428
f 430/430/430 428/428/428 429/429/429
f 429/429/429 431/431/431 430/430/430
f 432/432/432 430/430/430 431/431/431
f 433/433/433 435/435/435 434/434/434
f 436/436/436 434/434/434 435/435/435
f 435/435/435 437/437/437 436/436/436
f 438/438/438 436/436/436 437/437/437
f 437/437/437 439/439/439 438/438/438
f 440/440/440 438/438/438 439/439/439
f 439/439/439 441/441/441 440/440/440
f 442/442/442 440/440/440 441/441/441
f 441/441/441 443/443/443 442/442/442
f 444/444/444 442/442/442 443/443/443
f 445/445/445 447/447/447 446/446/446
f 448/448/448 446/446/446 447/447/447
f 447/447/447 449/449/449 448/448/448
f 450/450/450 448/448/448 449/449/449
f 449/449/449 451/451/451 450/450/450
f 452/452/452 450/450/450 451/451/451
f 451/451/451 453/453/453 452/452/452
f 454/454/454 452/452/452 453/453/453
f 453/453/453 455/455/455 454/454/454
f 456/456/456 454/454/454 455/455/455
f 457/457/457 459/459/459 458/458/458
f 460/460/460 458/458/458 459/459/459
f 459/459/459 461/461/461 460/460/460
f 462/462/462 460/460/460 461/461/461
f 461/461/461 463/463/463 462/462/462
f 464/464/464 462/462/462 463/463/463
f 463/463/463 465/465/465 464/464/464
f 466/466/466 464/464/464 465/465/465
f 465/465/465 467/467/467 466/466/466
f 468/468/468 466/466/466 467/467/467
f 469/469/469 471/471/471 470/470/470
f 472/472/472 470/470/470 471/471/471
f 471/471/471 473/473/473 472/472/472
f 474/474/474 472/472/472 473/473/473
f 473/473/473 475/475/475 474/474/474
f 476/476/476 474/474/474 475/475/475
f 475/475/475 477/477/477 476/476/476
f 478/478/478 476/476/476 477/477/477
f 477/477/477 479/479/479 478/478/478
f 480/480/480 478/478/478 479/479/479
f 481/481/481 483/483/483 482/482/482
f 484/484/484 482/482/482 483/483/483
f 483/483/483 485/485/485 484/484/484
f 486/486/486 484/484/484 485/485/485
f 485/485/485 487/487/487 486/486/486
f 488/488/488 486/486/486 487/487/487
f 487/487/487 489/489/489 488/488/488
f 490/490/490 488/488/488 489/489/489
f 489/489/489 491/491/491 490/490/490
f 492/492/492 490/490/490 491/491/491
f 493/493/493 495/495/495 494/494/494
f 496/496/496 494/494/494 495/495/495
f 495/495/495 497/497/497 496/496/496
f 498/498/498 496/496/496 497/497/497
f 497/497/497 499/499/499 498/498/498
f 500/500/500 498/498/498 499/499/499
f 499/499/499 501/501/501 500/500/500
f 502/502/502 500/500/500 501/501/501
f 501/501/501 503/503/503 502/502/502
f 504/504/504 502/502/502 503/503/503
f 505/505/505 507/507/507 506/506/506
f 508/508/508 506/506/506 507/507/507
f 507/507/507 509/509/509 508/508/508
f 510/510/510 508/508/508 509/509/509
f 509/509/509 511/511/511 510/510/510
f 512/512/512 510/510/510 511/511/511
f 511/511/511 513/513/513 512/512/512
f 514/514/514 512/512/512 513/513/513
f 513/513/513 515/515/515 514/514/514
f 516/516/516 514/514/514 515/515/515
f 517/517/517 519/519/519 518/518/518
f 520/520/520 518/518/518 519/519/519
f 519/519/519 521/521/521 520/520/520
f 522/522/522 520/520/520 521/521/521
f 521/521/521 523/523/523 522/522/522
f 524/524/524 522/522/522 523/523/523
f 523/523/523 525/525/525 524/524/524
f 526/526/526 524/524/524 525/525/525
f 525/525/525 527/527/527 526/526/526
f 528/528/528 526/526/526 527/527/527
f 529/529/529 531/531/531 530/530/530
f 532/532/532 530/530/530 531/531/531
f 531/531/531 533/533/533 532/532/532
f 534/534/534 532/532/532 533/533/533
f 533/533/533 535/535/535 534/534/534
f 536/536/536 534/534/534 535/535/535
f 535/535/535 537/537/537 536/536/536
f 538/538/538 536/536/536 537/537/537
f 537/537/537 539/539/539 538/538/538
f 540/540/540 538/538/538 539/539/539
f 541/541/541 543/543/543 542/542/542
f 544/544/544 542/542/542 543/543/543
f 543/543/543 545/545/545 544/544/544
f 546/546/546 544/544/544 545/545/545
f 545/545/545 547/547/547 546/546/546
f 548/548/548 546/546/546 547/547/547
f 547/547/547 549/549/549 548/548/548
f 550/550/550 548/548/548 549/549/549
f 549/549/549 551/551/551 550/550/550
f 552/552/552 550/550/550 551/551/551
f 553/553/553 555/555/555 554/554/554
f 556/556/556 554/554/554 555/555/555
f 555/555/555 557/557/557 556/556/556
f 558/558/558 556/556/556 557/557/557
f 557/557/557 559/559/559 558/558/558
f 560/560/560 558/558/558 559/559/559
f 559/559/559 561/561/561 560/560/560
f 562/562/562 560/560/560 561/561/561
f 561/561/561 563/563/563 562/562/562
f 564/564/564 562/562/562 563/563/563
f 565/565/565 567/567/567 566/566/566
f 568/568/568 566/566/566 567/567/567
f 567/567/567 569/569/569 568/568/568
f 570/570/570 568/568/568 569/569/569
f 569/569/569 571/571/571 570/570/570
f 572/572/572 570/570/570 571/571/571
f 571/571/571 573/573/573 572/572/572
f 574/574/574 572/572/572 573/573/573
f 573/573/573 575/575/575 574/574/574
f 576/576/576 574/574/574 575/575/575
f 577/577/577 579/579/579 578/578/578
f 580/580/580 578/578/578 579/579/579
f 579/579/579 581/581/581 580/580/580
f 582/582/582 580/580/580 581/581/581
f 581/581/581 583/583/583 582/582/582
f 584/584/584 582/582/582 583/583/583
f 583/583/583 585/585/585 584/584/584
f 586/586/586 584/584/584 585/585/585
f 585/585/585 587/587/587 586/586/586
f 588/588/588 586/586/586 587/587/587
f 589/589/589 591/591/591 590/590/590
f 592/592/592 590/590/590 591/591/591
f 591/591/591 593/593/593 592/592/592
f 594/594/594 592/592/592 593/593/593
f 593/593/593 595/595/595 594/594/594
f 596/596/596 594/594/594 595/595/595
f 595/595/595 597/597/597 596/596/596
f 598/598/598 596/596/596 597/597/597
f 597/597/597 599/599/599 598/598/598
f 600/600/600 598/598/598 599/599/599
f 601/601/601 603/603/603 602/602/602
f 604/604/604 602/602/602 603/603/603
f 603/603/603 605/605/605 604/604/604
f 606/606/606 604/604/604 605/605/605
f 605/605/605 607/607/607 606/606/606
f 608/608/608 606/606/606 607/607/607
f 607/607/607 609/609/609 608/608/608
f 610/610/610 608/608/608 609/609/609
f 609/609/609 611/611/611 610/610/610
f 612/612/612 610/610/610 611/611/611
f 613/613/613 615/615/615 614/614/614
f 616/616/616 614/614/614 615/615/615
f 615/615/615 617/617/617 616/616/616
f 618/618/618 616/616/616 617/617/617
f 617/617/617 619/619/619 618/618/618
f 620/620/620 618/618/618 619/619/619
f 619/619/619 621/621/621 620/620/620
f 622/622/622 620/620/620 621/621/621
f 621/621/621 623/623/623 622/622/622
f 624/624/624 622/622/622 623/623/623
f 625/625/625 627/627/627 626/626/626
f 628/628/628 626/626/626 627/627/627
f 627/627/627 629/629/629 628/628/628
f 630/630/630 628/628/628 629/629/629
f 629/629/629 631/631/631 630/630/630
f 632/632/632 630/630/630 631/631/631
f 631/631/631 633/633/633 632/632/632
f 634/634/634 632/632/632 633/633/633
f 633/633/633 635/635/635 634/634/634
f 636/636/636 634/634/634 635/635/635
f 637/637/637 639/639/639 638/638/638
f 640/640/640 638/638/638 639/639/639
f 639/639/639 641/641/641 640/640/640
f 642/642/642 640/640/640 641/641/641
f 641/641/641 643/643/643 642/642/642
f 644/644/644 642/642/642 643/643/643
f 643/643/643 645/645/645 644/644/644
f 646/646/646 644/644/644 645/645/645
f 645/645/645 647/647/647 646/646/646
f 648/648/648 646/646/646 647/647/647

g ring4
# texture: ring4.jpg
v -399.9559 85.8743 -0.0179
v 0.0186 85.8743 -0.0178
v -0.0034 85.8743 -399.9999
v -399.9999 85.8742 -399.9999
v 0.0406 85.8742 399.9643
v -399.912 85.8742 399.9642
v 399.9931 85.8742 -0.0178
v 399.9931 85.8742 399.9644
v 399.9931 85.8743 -399.9998
vn 0 1 -0
vn 0 1 -0
vn 0 1 -0
vn 0 1 -0
vn 0 1 -0
vn 0 1 -0
vn 0 1 -0
vn 0 1 -0
vn 0 1 -0
vt 0.0006 0.5
vt 0.5 0.5
vt 0.5 0.9995
vt 0.0005 0.9995
vt 0.5001 0.0005
vt 0.0006 0.0005
vt 0.9995 0.5
vt 0.9995 0.0005
vt 0.9995 0.9995
f 649/649/649 651/651/651 650/650/650
f 651/651/651 649/649/649 652/652/652
f 649/649/649 650/650/650 653/653/653
f 653/653/653 654/654/654 649/649/649
f 655/655/655 653/653/653 650/650/650
f 653/653/653 655/655/655 656/656/656
f 655/655/655 650/650/650 651/651/651
f 651/651/651 657/657/657 655/655/655
