# Inferno01.bmd — MU geometry at action 0 key 5, exported for MU2
# 2 mesh(es)

g ring3
# texture: ring3.jpg
v 320.8705 245.0107 116.462
v 320.8705 139.1934 116.4621
v 272.8166 245.0107 197.0732
v 272.8166 139.1934 197.0732
v 205.9947 245.0108 262.9684
v 205.9947 139.1935 262.9684
v 124.7204 245.0108 309.892
v 124.7204 139.1935 309.892
v 34.24258 245.0108 334.8139
v 34.24246 139.1935 334.8138
v -59.59579 245.0108 336.1242
v -59.59576 139.1935 336.1241
v 281.1249 161.755 99.18015
v 360.6161 222.4492 133.7439
v 238.7105 161.7549 170.3306
v 306.9225 222.4492 223.8157
v 179.731 161.755 228.4924
v 232.2584 222.4493 297.4445
v 107.9952 161.7549 269.909
v 141.4457 222.4493 349.8752
v 28.1358 161.755 291.9059
v 40.34921 222.4493 377.7217
v -54.68951 161.755 293.0625
v -64.50204 222.4493 379.1858
v 283.7017 226.1111 100.3005
v 358.0393 158.0931 132.6235
v 240.9218 226.1111 172.0644
v 304.7114 158.093 222.0819
v 181.4338 226.1111 230.7276
v 230.5556 158.0931 295.2093
v 109.0795 226.1112 272.5012
v 140.3613 158.0931 347.283
v 28.53174 226.1111 294.6877
v 39.95331 158.0931 374.9399
v -55.00757 226.1111 295.8542
v -64.18393 158.0931 376.394
v -38.45667 226.0919 250.5642
v -38.45667 158.1123 250.5642
v -103.7686 226.0919 227.2563
v -103.7686 158.1123 227.2563
v -162.9071 226.0919 185.4124
v -162.9072 158.1123 185.4124
v -210.2102 226.0919 129.0388
v -210.2102 158.1123 129.0388
v -241.1491 226.0919 63.53254
v -241.1491 158.1123 63.53254
v -252.7615 226.0919 -4.834623
v -252.7616 158.1123 -4.834471
v -38.57559 172.6064 219.5274
v -38.33777 211.5979 281.601
v -94.5426 172.6064 199.5545
v -112.9949 211.5979 254.9581
v -145.2193 172.6064 163.6979
v -180.5951 211.5979 207.127
v -185.7541 172.6064 115.3904
v -234.6665 211.5979 142.6873
v -212.2661 172.6064 59.25702
v -270.0321 211.5979 67.80818
v -222.2169 172.6064 0.672182
v -283.3061 211.5978 -10.34115
v -38.56784 213.9504 221.5396
v -38.34537 170.2539 279.5888
v -95.14076 213.9504 201.3505
v -112.3966 170.2539 253.162
v -146.366 213.9504 165.1056
v -179.4483 170.2539 205.7192
v -187.3397 213.9503 116.2752
v -233.081 170.2539 141.8023
v -214.1386 213.9503 59.53424
v -268.1596 170.2539 67.53099
v -224.1972 213.9503 0.31505
v -281.3258 170.2539 -9.98419
v -329.8187 245.0107 -88.04114
v -329.8187 139.1934 -88.04108
v -288.9733 245.0107 -172.5338
v -288.9733 139.1934 -172.5338
v -228.1489 245.0107 -244.0021
v -228.1489 139.1934 -244.0021
v -151.2735 245.0107 -297.8307
v -151.2735 139.1934 -297.8307
v -63.31197 245.0107 -330.5433
v -63.31197 139.1934 -330.5433
v 30.05502 245.0107 -340.0271
v 30.05502 139.1934 -340.0271
v -288.7181 161.7549 -74.28903
v -370.9193 222.4493 -101.7933
v -252.6664 161.7549 -148.8654
v -325.2803 222.4492 -196.2019
v -198.9804 161.7549 -211.9462
v -257.3174 222.4492 -276.0579
v -131.1272 161.7549 -259.4575
v -171.4199 222.4492 -336.2039
v -53.48889 161.7549 -288.331
v -73.13507 222.4492 -372.7556
v 28.92053 161.7549 -296.7018
v 31.18954 222.4492 -383.3525
v -291.3827 226.1111 -75.18057
v -368.2546 158.0931 -100.9016
v -255.0203 226.1111 -150.4
v -322.9264 158.093 -194.6675
v -200.8714 226.1111 -214.0247
v -255.4264 158.093 -273.9797
v -132.4333 226.1111 -261.9454
v -170.1137 158.093 -333.716
v -54.12575 226.111 -291.0677
v -72.49829 158.093 -370.0189
v 28.99411 226.1111 -299.5107
v 31.11603 158.093 -380.5436
v 190.7553 226.0918 -166.2612
v 190.7553 158.1122 -166.2612
v 225.8052 226.0919 -106.4246
v 225.8052 158.1122 -106.4246
v 244.2112 226.0919 -36.35682
v 244.2112 158.1122 -36.35682
v 244.2112 226.0919 37.23371
v 244.2112 158.1123 37.23371
v 225.8051 226.0919 107.3015
v 225.8051 158.1123 107.3015
v 190.7552 226.0919 167.1381
v 190.7552 158.1123 167.138
v 170.8964 172.6063 -142.4092
v 210.6142 211.5978 -190.1132
v 200.9312 172.6063 -91.13422
v 250.6792 211.5978 -121.7149
v 216.7037 172.6063 -31.09202
v 271.7188 211.5978 -41.62165
v 216.7036 172.6063 31.96887
v 271.7188 211.5978 42.49863
v 200.9312 172.6063 92.01109
v 250.6791 211.5978 122.5919
v 170.8963 172.6063 143.286
v 210.6141 211.5978 190.9901
v 172.1839 213.9503 -143.9556
v 209.3269 170.2538 -188.5668
v 202.5439 213.9503 -92.12556
v 249.0667 170.2538 -120.7236
v 218.487 213.9503 -31.43333
v 269.9355 170.2538 -41.28025
v 218.487 213.9503 32.31021
v 269.9354 170.2538 42.15726
v 202.5438 213.9503 93.00241
v 249.0664 170.2539 121.6006
v 172.1838 213.9503 144.8324
v 209.3266 170.2539 189.4437
v 104.4032 229.1529 -24.32697
v 104.4032 155.0512 -24.32697
v 103.5457 229.153 13.12325
v 103.5457 155.0512 13.12325
v 93.56795 229.153 45.72168
v 93.56801 155.0512 45.72178
v 74.72679 229.153 72.62963
v 74.72684 155.0512 72.62974
v 47.50679 229.153 93.15501
v 47.50679 155.0512 93.15501
v 12.60838 229.153 106.7694
v 12.60838 155.0513 106.7694
v 78.12378 170.8506 -35.50388
v 130.6826 213.3536 -13.15014
v 77.3297 170.8506 -0.823217
v 129.7617 213.3536 27.06963
v 68.0899 170.8506 29.36458
v 119.0461 213.3536 62.07889
v 50.64202 170.8506 54.28259
v 98.81154 213.3536 90.97684
v 25.43511 170.8506 73.28994
v 69.57856 213.3536 113.0201
v -6.88253 170.8506 85.89755
v 32.0992 213.3536 127.6413
v 79.82751 215.9179 -34.77928
v 128.9788 168.2862 -13.87474
v 79.02932 215.9179 0.081019
v 128.0621 168.2862 26.16548
v 69.74168 215.9179 30.42495
v 117.3943 168.2862 61.01838
v 52.20352 215.918 55.47199
v 97.25006 168.2862 89.78729
v 26.86605 215.918 74.57781
v 68.14755 168.2863 111.7321
v -5.618858 215.9179 87.2507
v 30.8356 168.2863 126.2881
v -105.9643 229.153 -11.80333
v -105.9643 155.0512 -11.8034
v -92.34979 229.153 -46.70178
v -92.34979 155.0512 -46.70178
v -71.82453 229.153 -73.92178
v -71.82453 155.0512 -73.92178
v -44.91651 229.1529 -92.76292
v -44.91651 155.0512 -92.76292
v -12.31799 229.1529 -102.7406
v -12.31808 155.0512 -102.7406
v 25.13229 229.1529 -103.598
v 25.13222 155.0512 -103.598
v -85.09245 170.8506 7.687555
v -126.8362 213.3536 -31.29425
v -72.48473 170.8506 -24.63006
v -112.2149 213.3536 -68.77348
v -53.4774 170.8506 -49.837
v -90.17162 213.3536 -98.0065
v -28.55931 170.8506 -67.28481
v -61.27372 213.3536 -118.241
v 1.628357 170.8506 -76.52464
v -26.26443 213.3536 -128.9566
v 36.30907 170.8506 -77.31866
v 13.95535 213.3536 -129.8775
v -86.44555 215.918 6.423899
v -125.483 168.2863 -30.03064
v -73.77265 215.9179 -26.06099
v -110.9269 168.2862 -67.34254
v -54.66689 215.9179 -51.39845
v -88.98213 168.2862 -96.44502
v -29.61976 215.9179 -68.93657
v -60.21321 168.2862 -116.5892
v 0.724213 215.9179 -78.22426
v -25.36028 168.2862 -127.257
v 35.58443 215.9179 -79.02238
v 14.68002 168.2862 -128.1737
v -336.2358 12.2553 58.97482
v -336.2358 118.0726 58.975
v -302.9098 12.2553 146.7059
v -302.9099 118.0726 146.7059
v -248.5457 12.2553 223.2036
v -248.5457 118.0726 223.2036
v -176.6543 12.2552 283.5275
v -176.6543 118.0726 283.5275
v -91.8786 12.2552 323.782
v -91.87854 118.0726 323.782
v 0.306671 12.2552 341.3672
v 0.30658 118.0726 341.3672
v -294.0929 95.51111 48.85723
v -378.3785 34.8168 69.09252
v -264.6782 95.51111 126.2921
v -341.1414 34.8168 167.1197
v -216.6943 95.51111 193.8119
v -280.397 34.8168 252.5952
v -153.2402 95.51111 247.0562
v -200.0685 34.8168 319.9988
v -78.41376 95.51111 282.5864
v -105.3434 34.8168 364.9776
v 2.952454 95.51111 298.1077
v -2.339233 34.8168 384.6266
v -296.8251 31.15491 49.51315
v -375.6462 99.173 68.43661
v -267.1568 31.15491 127.6156
v -338.6627 99.173 165.7963
v -218.7593 31.15491 195.7174
v -278.332 99.173 250.6896
v -154.7582 31.15491 249.4207
v -198.5505 99.173 317.6343
v -79.28677 31.15491 285.2573
v -104.4704 99.173 362.3068
v 2.780914 31.15491 300.9124
v -2.167694 99.173 381.8221
v -5.653992 31.1741 253.4363
v -5.653992 99.15381 253.4363
v 62.71313 31.1741 241.8238
v 62.71313 99.15381 241.8238
v 128.2194 31.1741 210.8849
v 128.2194 99.15381 210.8849
v 184.593 31.1741 163.5819
v 184.593 99.1537 163.5819
v 226.4368 31.1741 104.4431
v 226.4368 99.1537 104.4431
v 249.7446 31.1741 39.13116
v 249.7445 99.1537 39.13125
v -0.1474 84.6597 222.8916
v -11.16061 45.6682 283.981
v 58.43753 84.6597 212.9408
v 66.98872 45.6682 270.7069
v 114.5708 84.6597 186.4287
v 141.8678 45.6682 235.3412
v 162.8784 84.6597 145.894
v 206.3077 45.6682 181.2697
v 198.735 84.6597 95.21703
v 254.1386 45.6682 113.6693
v 218.7078 84.6597 39.25018
v 280.7814 45.6682 39.01223
v -0.504425 43.3157 224.8719
v -10.80353 87.01221 282.0006
v 58.71472 43.3157 214.8134
v 66.71156 87.01221 268.8344
v 115.4557 43.3157 188.0143
v 140.983 87.01221 233.7556
v 164.2861 43.3157 147.0406
v 204.8998 87.01221 180.1229
v 200.5309 43.3157 95.81521
v 252.3426 87.01221 113.0711
v 220.72 43.3157 39.24246
v 278.7692 87.01221 39.01992
v 340.0798 12.2553 -29.43048
v 340.0798 118.0726 -29.43048
v 314.5269 12.2553 -119.7322
v 314.5269 118.0726 -119.7322
v 267.0368 12.2553 -200.6769
v 267.0368 118.0726 -200.6769
v 200.6765 12.2552 -267.0371
v 200.6765 118.0726 -267.0371
v 119.7319 12.2552 -314.527
v 119.7319 118.0726 -314.527
v 29.43011 12.2552 -340.0798
v 29.43018 118.0726 -340.0798
v 297.2156 95.51111 -23.02433
v 382.944 34.8168 -35.83664
v 274.6616 95.51111 -102.7282
v 354.3922 34.8168 -136.7362
v 232.745 95.51111 -174.1731
v 301.3286 34.8168 -227.1807
v 174.1729 95.51111 -232.7452
v 227.1804 34.8168 -301.329
v 102.7279 95.51111 -274.6617
v 136.7359 34.8168 -354.3924
v 23.02405 95.51111 -297.2156
v 35.83618 34.8168 -382.944
v 299.9945 31.15491 -23.43967
v 380.1649 99.173 -35.4213
v 277.2462 31.15491 -103.8306
v 351.8076 99.173 -135.6339
v 234.9683 31.15491 -175.8914
v 299.1054 99.173 -225.4624
v 175.8912 31.15491 -234.9684
v 225.4621 99.173 -299.1057
v 103.8303 31.15491 -277.2463
v 135.6335 99.173 -351.8079
v 23.43939 31.15491 -299.9945
v 35.42084 99.173 -380.165
v -159.0029 31.1741 -196.8589
v -159.0029 99.15381 -196.8589
v -203.9109 31.1741 -144.0178
v -203.9109 99.15381 -144.0178
v -234.2043 31.1741 -78.21061
v -234.2043 99.15381 -78.21061
v -246.9831 31.1741 -5.73798
v -246.9831 99.1537 -5.73798
v -241.0238 31.1741 66.46149
v -241.0238 99.1537 66.46149
v -216.8969 31.1741 131.4753
v -216.8969 99.1537 131.4753
v -143.5876 84.6597 -169.9208
v -174.4182 45.6682 -223.797
v -182.0699 84.6597 -124.6404
v -225.7518 45.6682 -163.3951
v -208.0289 84.6597 -68.24912
v -260.3799 45.6682 -88.17207
v -218.9792 84.6597 -6.146214
v -274.9871 45.6682 -5.329807
v -213.8726 84.6597 55.72265
v -268.1751 45.6682 77.20026
v -193.1979 84.6597 111.4341
v -240.596 45.6682 151.5166
v -144.587 43.3157 -171.6673
v -173.4189 87.01221 -222.0506
v -183.4858 43.3157 -125.8966
v -224.3358 87.01221 -162.1388
v -209.7259 43.3157 -68.89503
v -258.6828 87.01221 -87.52619
v -220.7948 43.3157 -6.119785
v -273.1716 87.01221 -5.356297
v -215.6329 43.3157 56.41888
v -266.4148 87.01221 76.50405
v -194.7343 43.3157 112.7334
v -239.0595 87.01221 150.2172
v -98.60919 28.1131 -42.08612
v -98.60925 102.2148 -42.08605
v -104.268 28.1131 -5.05592
v -104.268 102.2148 -5.05592
v -100.1025 28.1131 28.77992
v -100.1025 102.2148 28.77992
v -86.22005 28.11301 58.55088
v -86.22005 102.2148 58.55088
v -62.9778 28.11301 83.49102
v -62.9778 102.2148 83.49102
v -30.97363 28.11301 102.9587
v -30.97363 102.2148 102.9587
v -70.7882 86.41541 -48.52984
v -126.4303 43.9124 -35.64235
v -76.02841 86.4155 -14.23813
v -132.5074 43.9124 4.126308
v -72.17107 86.4155 17.09553
v -128.034 43.9124 40.46438
v -59.31528 86.4155 44.66478
v -113.1249 43.9124 72.43706
v -37.79185 86.4155 67.7605
v -88.16373 43.9124 99.22155
v -8.154457 86.4155 85.78844
v -53.79268 43.9124 120.129
v -72.5919 41.3481 -48.11209
v -124.6265 88.9798 -36.0602
v -77.85933 41.3481 -13.64282
v -130.6767 88.9798 3.531002
v -73.98197 41.3481 17.85299
v -126.2232 88.9798 39.70686
v -61.05949 41.3481 45.56499
v -111.3805 88.9798 71.53669
v -39.42464 41.3481 68.78036
v -86.53081 88.9798 98.20168
v -9.633942 41.3481 86.90165
v -52.31332 88.9798 119.0158
v 106.3877 28.1131 6.777218
v 106.3877 102.2148 6.777218
v 99.04004 28.1131 -29.95523
v 99.04004 102.2148 -29.95523
v 83.55327 28.1131 -60.32587
v 83.55327 102.2148 -60.32587
v 60.32572 28.11301 -83.55326
v 60.32572 102.2148 -83.55326
v 29.95511 28.11301 -99.04009
v 29.95511 102.2148 -99.04009
v -6.777321 28.11301 -106.3877
v -6.777321 102.2148 -106.3877
v 82.44837 86.41541 22.34764
v 130.327 43.9124 -8.793232
v 75.64401 86.4155 -11.6683
v 122.4359 43.9124 -48.24215
v 61.3026 86.4155 -39.7929
v 105.8039 43.9124 -80.85871
v 39.79283 86.4155 -61.30265
v 80.85867 43.9124 -105.804
v 11.66821 86.4155 -75.64404
v 48.24202 43.9124 -122.436
v -22.34766 86.4155 -82.4483
v 8.793091 43.9124 -130.327
v 84.00034 41.3481 21.33818
v 128.775 88.9798 -7.783848
v 77.1609 41.3481 -12.85383
v 120.9191 88.9798 -47.05653
v 62.74516 41.3481 -41.12417
v 104.3614 88.9798 -79.52759
v 41.12402 41.3481 -62.74515
v 79.52747 88.9798 -104.3614
v 12.85381 41.3481 -77.16085
v 47.0564 88.9798 -120.9192
v -21.33826 41.3481 -84.00034
v 7.78363 88.9798 -128.7749
v -168.9821 100.4298 200.9956
v -168.9821 181.8277 200.9957
v -105.9656 100.4298 236.2143
v -105.9656 181.8277 236.2143
v -36.10632 100.4298 254.4113
v -36.10632 181.8277 254.4113
v 36.08398 100.4298 254.4113
v 36.08398 181.8277 254.4113
v 105.9433 100.4298 236.2144
v 105.9433 181.8277 236.2143
v 168.9599 100.4297 200.9955
v 168.9599 181.8277 200.9955
v -149.1515 164.4727 174.196
v -188.8127 117.7848 227.7952
v -93.53073 164.4727 205.2815
v -118.4005 117.7848 267.1471
v -31.87013 164.4727 221.3429
v -40.34251 117.7848 287.4797
v 31.84787 164.4727 221.3429
v 40.32019 117.7848 287.4798
v 93.50837 164.4727 205.2816
v 118.3782 117.7848 267.1472
v 149.1293 164.4727 174.1961
v 188.7905 117.7848 227.795
v -150.4372 114.968 175.9335
v -187.5271 167.2895 226.0577
v -94.33683 114.968 207.287
v -117.5943 167.2895 265.1417
v -32.14483 114.968 223.4868
v -40.06781 167.2895 285.3358
v 32.12247 114.9679 223.4868
v 40.04559 167.2896 285.3358
v 94.31457 114.968 207.287
v 117.572 167.2896 265.1417
v 150.415 114.968 175.9335
v 187.5048 167.2896 226.0575
v 121.9698 114.9827 152.1283
v 121.9698 167.2748 152.1283
v 156.5144 114.9827 111.4811
v 156.5144 167.2748 111.4811
v 179.8171 114.9827 60.86023
v 179.8171 167.2748 60.86023
v 189.647 114.9827 5.112123
v 189.647 167.2748 5.112123
v 185.0629 114.9827 -50.42588
v 185.0629 167.2748 -50.42588
v 166.5038 114.9827 -100.4366
v 166.5038 167.2748 -100.4366
v 110.1118 156.1254 131.4066
v 133.8279 126.132 172.8499
v 139.7137 156.1255 96.57544
v 173.3151 126.132 126.3868
v 159.6821 156.1255 53.19763
v 199.9521 126.132 68.52292
v 168.1055 156.1255 5.426131
v 211.1885 126.132 4.798117
v 164.1774 156.1255 -42.16537
v 205.9485 126.132 -58.68649
v 148.2737 156.1255 -85.02026
v 184.7339 126.132 -115.8529
v 110.8806 124.3224 132.75
v 133.0591 157.9351 171.5063
v 140.8029 124.3224 97.54184
v 172.226 157.9351 125.4204
v 160.9875 124.3224 53.69443
v 198.6467 157.9351 68.02612
v 169.5022 124.3224 5.40573
v 209.7919 157.9351 4.818518
v 165.5314 124.3224 -42.70087
v 204.5945 157.9351 -58.15098
v 149.4556 124.3224 -86.01976
v 183.552 157.9351 -114.8534
v 185.8346 100.4298 -185.504
v 185.8346 181.8277 -185.504
v 126.1274 100.4298 -226.0809
v 126.1274 181.8277 -226.0809
v 58.11992 100.4298 -250.2973
v 58.11992 181.8277 -250.2973
v -13.79568 100.4297 -256.5891
v -13.79568 181.8277 -256.5891
v -84.97507 100.4297 -244.55
v -84.97507 181.8277 -244.55
v -150.8214 100.4297 -214.9575
v -150.8214 181.8277 -214.9575
v 163.7439 164.4727 -160.5347
v 207.9255 117.7848 -210.4732
v 111.0438 164.4727 -196.3496
v 141.211 117.7848 -255.8122
v 51.01783 164.4727 -217.7239
v 65.22211 117.7848 -282.8707
v -12.45777 164.4727 -223.2773
v -15.13359 117.7848 -289.9009
v -75.28347 164.4727 -212.6511
v -94.66669 117.7848 -276.4489
v -133.402 164.4727 -186.5316
v -168.2408 117.7848 -243.3833
v 165.1761 114.968 -162.1536
v 206.4933 167.2896 -208.8544
v 112.0217 114.968 -198.2771
v 140.2331 167.2896 -253.8848
v 51.47823 114.968 -219.8357
v 64.76161 167.2896 -280.7589
v -12.54447 114.9679 -225.437
v -15.04689 167.2896 -287.7412
v -75.91177 114.968 -214.7192
v -94.03839 167.2896 -274.3808
v -134.5314 114.968 -188.3746
v -167.1114 167.2896 -241.5404
v -191.0426 114.9827 -37.39145
v -191.0426 167.2748 -37.39135
v -191.3778 114.9827 15.95085
v -191.3778 167.2748 15.95085
v -176.6903 114.9827 69.70744
v -176.6903 167.2748 69.70744
v -148.3862 114.9827 118.7315
v -148.3862 167.2747 118.7314
v -109.1753 114.9827 158.3295
v -109.1753 167.2747 158.3295
v -62.81204 114.9827 184.7103
v -62.81204 167.2747 184.7103
v -168.6392 156.1254 -29.13986
v -213.4459 126.132 -45.64295
v -168.9265 156.1255 16.57004
v -213.8291 126.132 15.33176
v -156.3405 156.1255 62.63483
v -197.04 126.132 76.77995
v -132.0863 156.1255 104.6443
v -164.6861 126.132 132.8187
v -98.48595 156.1255 138.5765
v -119.8648 126.132 178.0824
v -58.75635 156.1255 161.1826
v -66.86763 126.132 208.2379
v -170.0917 124.3224 -29.67486
v -211.9934 157.9351 -45.10795
v -170.3821 124.3224 16.52984
v -212.3735 157.9351 15.37186
v -157.6599 124.3224 63.09333
v -195.7207 157.9351 76.32145
v -133.1431 124.3224 105.5576
v -163.6293 157.9351 131.9053
v -99.17896 124.3224 139.8571
v -119.1718 157.9351 176.8018
v -59.01935 124.3224 162.708
v -66.60473 157.9351 206.7126
v -78.92699 112.6281 23.94901
v -78.92699 169.6294 23.94911
v -63.95179 112.6281 48.5676
v -63.95179 169.6294 48.5676
v -44.76708 112.6281 66.4463
v -44.76708 169.6294 66.4463
v -21.86628 112.6281 77.12509
v -21.86628 169.6294 77.12509
v 4.161226 112.6281 80.32919
v 4.161226 169.6294 80.32919
v 32.64602 112.6281 75.97628
v 32.64602 169.6294 75.97628
v -65.7191 157.4761 6.395807
v -92.13489 124.7814 41.50232
v -51.85139 157.4761 29.1938
v -76.05218 124.7814 67.94141
v -34.08548 157.4761 45.7503
v -55.44867 124.7814 87.1423
v -12.87828 157.4761 55.63929
v -30.85437 124.7814 98.61079
v 11.22442 157.4761 58.60648
v -2.901967 124.7814 102.0519
v 37.60262 157.4761 54.57557
v 27.68933 124.7814 97.37708
v -66.5754 122.8089 7.533907
v -91.27859 159.4486 40.36422
v -52.63589 122.8089 30.4499
v -75.26768 159.4486 66.68541
v -34.77798 122.8089 47.092
v -54.75617 159.4486 85.8005
v -13.46098 122.8089 57.03229
v -30.27167 159.4486 97.21779
v 10.76652 122.8089 60.01488
v -2.444067 159.4486 100.6436
v 37.28132 122.8089 55.96297
v 28.01073 159.4486 95.98968
v 66.03108 112.6281 -48.61854
v 66.03108 169.6295 -48.61864
v 43.53898 112.6281 -66.63063
v 43.53898 169.6295 -66.63063
v 19.39638 112.6281 -76.86952
v 19.39638 169.6295 -76.86952
v -5.775726 112.6281 -79.07182
v -5.775726 169.6294 -79.07182
v -31.32952 112.6281 -73.18081
v -31.32952 169.6294 -73.18081
v -56.60762 112.6281 -59.348
v -56.60762 169.6294 -59.348
v 59.62329 157.4761 -27.60663
v 72.43888 124.7814 -69.63054
v 38.79448 157.4761 -44.28662
v 48.28337 124.7814 -88.97463
v 16.43738 157.4761 -53.76832
v 22.35537 124.7814 -99.97073
v -6.873118 157.4761 -55.80771
v -4.678233 124.7814 -102.3359
v -30.53712 157.4761 -50.35241
v -32.12183 124.7814 -96.00921
v -53.94591 157.4761 -37.54259
v -59.26943 124.7814 -81.1535
v 60.03869 122.8089 -28.96894
v 72.02338 159.4486 -68.26834
v 39.10209 122.8089 -45.73532
v 47.97577 159.4486 -87.52603
v 16.62918 122.8089 -55.26602
v 22.16347 159.4486 -98.47302
v -6.802019 122.8089 -57.31601
v -4.749433 159.4486 -100.8276
v -30.58852 122.8089 -51.83241
v -32.07043 159.4486 -94.52921
v -54.11841 122.8089 -38.9563
v -59.09683 159.4486 -79.73979
vn -0.858983 0 -0.512004
vn -0.858983 0 -0.512004
vn -0.812521 0 -0.582932
vn -0.759917 0 -0.65002
vn -0.639396 0 -0.768878
vn -0.571474 0 -0.82062
vn -0.42494 0 -0.905221
vn -0.34617 0 -0.938172
vn -0.182975 0 -0.983118
vn -0.098573 0 -0.99513
vn -0.013916 0 -0.999903
vn -0.013916 0 -0.999903
vn 0.495378 -0.816965 0.295245
vn 0.495419 -0.816931 0.295269
vn 0.466351 -0.8189 0.334545
vn 0.436173 -0.818879 0.373083
vn 0.366904 -0.818929 0.44129
vn 0.328034 -0.818888 0.470973
vn 0.243858 -0.818888 0.519573
vn 0.198716 -0.818929 0.538393
vn 0.105013 -0.818879 0.564278
vn 0.056548 -0.8189 0.571144
vn 0.008001 -0.816931 0.576679
vn 0.008001 -0.816931 0.576679
vn -0.554759 -0.763465 -0.3307
vn -0.554759 -0.763465 -0.3307
vn -0.522532 -0.765798 -0.374853
vn -0.48869 -0.76578 -0.418047
vn -0.411232 -0.765747 -0.49449
vn -0.367506 -0.765787 -0.52774
vn -0.273284 -0.765787 -0.58214
vn -0.222624 -0.765747 -0.603382
vn -0.117694 -0.76578 -0.632241
vn -0.063366 -0.765798 -0.639952
vn -0.009015 -0.763465 -0.645786
vn -0.009015 -0.763465 -0.645786
vn 0.336107 0 -0.941824
vn 0.336107 0 -0.941824
vn 0.420033 0 -0.907509
vn 0.501192 0 -0.865336
vn 0.645151 0 -0.764055
vn 0.708435 0 -0.705776
vn 0.818087 0 -0.575094
vn 0.864471 0 -0.502682
vn 0.939187 0 -0.343407
vn 0.966641 0 -0.256135
vn 0.985878 0 -0.167465
vn 0.985878 0 -0.167465
vn -0.186648 -0.831583 0.523099
vn -0.186648 -0.831583 0.523099
vn -0.235223 -0.829984 0.505765
vn -0.283361 -0.826133 0.487043
vn -0.368825 -0.820698 0.436375
vn -0.406396 -0.819288 0.404487
vn -0.468876 -0.81928 0.330055
vn -0.493785 -0.820679 0.287511
vn -0.528843 -0.82614 0.194471
vn -0.538953 -0.829961 0.143856
vn -0.547536 -0.831595 0.093033
vn -0.547536 -0.831595 0.093033
vn 0.209971 -0.780721 -0.588547
vn 0.209971 -0.780721 -0.588547
vn 0.264418 -0.778801 -0.568816
vn 0.318042 -0.774284 -0.547114
vn 0.413605 -0.767827 -0.489258
vn 0.455492 -0.766205 -0.453274
vn 0.525515 -0.766212 -0.369802
vn 0.553656 -0.767842 -0.322309
vn 0.59398 -0.774317 -0.218224
vn 0.606101 -0.778799 -0.161601
vn 0.616043 -0.780733 -0.10463
vn 0.616043 -0.780733 -0.10463
vn 0.90032 0 0.435229
vn 0.90032 0 0.435229
vn 0.860264 0 0.50985
vn 0.813667 0 0.581331
vn 0.703935 0 0.710265
vn 0.640886 0 0.767636
vn 0.502163 0 0.864773
vn 0.426669 0 0.904408
vn 0.268003 0 0.963418
vn 0.18484 0 0.982769
vn 0.101069 0 0.994879
vn 0.101069 0 0.994879
vn -0.519276 -0.816916 -0.250999
vn -0.519276 -0.816916 -0.250999
vn -0.493756 -0.818889 -0.292619
vn -0.466979 -0.818919 -0.33362
vn -0.404033 -0.818913 -0.407601
vn -0.367788 -0.818888 -0.440631
vn -0.288255 -0.818916 -0.496272
vn -0.244859 -0.818885 -0.519107
vn -0.153795 -0.818881 -0.552974
vn -0.106121 -0.818917 -0.564015
vn -0.058275 -0.816946 -0.573762
vn -0.058275 -0.816946 -0.573762
vn 0.581447 -0.763473 0.281121
vn 0.581447 -0.763473 0.281121
vn 0.553251 -0.765772 0.327882
vn 0.523235 -0.765798 0.37387
vn 0.452739 -0.76575 0.456788
vn 0.412145 -0.765792 0.493659
vn 0.322931 -0.765789 0.556133
vn 0.274373 -0.765788 0.581626
vn 0.172395 -0.765766 0.619583
vn 0.118935 -0.76579 0.631997
vn 0.065223 -0.763466 0.642547
vn 0.065223 -0.763466 0.642547
vn -0.862858 0 0.505446
vn -0.862858 0 0.505446
vn -0.905137 0 0.425121
vn -0.940193 0 0.340642
vn -0.985338 0 0.170614
vn -0.996356 0 0.085297
vn -0.996351 0 -0.085352
vn -0.985339 0 -0.170608
vn -0.940191 0 -0.340649
vn -0.905117 0 -0.425163
vn -0.862833 0 -0.50549
vn -0.862833 0 -0.50549
vn 0.479231 -0.831583 -0.280725
vn 0.479231 -0.831583 -0.280725
vn 0.505296 -0.829993 -0.236192
vn 0.530113 -0.826124 -0.191049
vn 0.563056 -0.820689 -0.097145
vn 0.571337 -0.819276 -0.048585
vn 0.571312 -0.819296 0.048546
vn 0.563034 -0.820698 0.097205
vn 0.530143 -0.82611 0.191026
vn 0.505292 -0.829995 0.236196
vn 0.479243 -0.831593 0.280678
vn 0.479243 -0.831593 0.280678
vn -0.539174 -0.780746 0.315796
vn -0.539174 -0.780746 0.315796
vn -0.568148 -0.778826 0.26578
vn -0.595334 -0.774283 0.214624
vn -0.631326 -0.767826 0.108952
vn -0.640327 -0.766168 0.054473
vn -0.6403 -0.766194 -0.054441
vn -0.631296 -0.767847 -0.108977
vn -0.59528 -0.774323 -0.21463
vn -0.568123 -0.778845 -0.265776
vn -0.53917 -0.780727 -0.315849
vn -0.53917 -0.780727 -0.315849
vn -0.999739 0 -0.022873
vn -0.999739 0 -0.022873
vn -0.993504 0 -0.113795
vn -0.978876 0 -0.204457
vn -0.920594 0 -0.39052
vn -0.874379 0 -0.485243
vn -0.755003 0 -0.655722
vn -0.681886 0 -0.731459
vn -0.526947 0 -0.849898
vn -0.446691 0 -0.894688
vn -0.3634 0 -0.931633
vn -0.3634 0 -0.931633
vn 0.625046 -0.780457 0.014271
vn 0.625046 -0.780457 0.014271
vn 0.60646 -0.792264 0.067265
vn 0.585821 -0.801496 0.120075
vn 0.534459 -0.814499 0.22571
vn 0.503533 -0.817916 0.278333
vn 0.433715 -0.817927 0.378004
vn 0.394852 -0.814477 0.425112
vn 0.313269 -0.801483 0.509399
vn 0.270585 -0.792289 0.546866
vn 0.227245 -0.780494 0.582399
vn 0.227245 -0.780494 0.582399
vn -0.692358 -0.72138 -0.015832
vn -0.692358 -0.72138 -0.015832
vn -0.674018 -0.734894 -0.075042
vn -0.652851 -0.745512 -0.134155
vn -0.598042 -0.760608 -0.252631
vn -0.564008 -0.764606 -0.311885
vn -0.485975 -0.764604 -0.423331
vn -0.44198 -0.76061 -0.475527
vn -0.349391 -0.74552 -0.567562
vn -0.301075 -0.734902 -0.607678
vn -0.251709 -0.721387 -0.645169
vn -0.251709 -0.721387 -0.645169
vn 0.931612 0 0.363454
vn 0.931612 0 0.363454
vn 0.894694 0 0.446679
vn 0.849916 0 0.526918
vn 0.731438 0 0.681908
vn 0.655671 0 0.755047
vn 0.485206 0 0.8744
vn 0.390606 0 0.920558
vn 0.204444 0 0.978878
vn 0.113798 0 0.993504
vn 0.022909 0 0.999738
vn 0.022909 0 0.999738
vn -0.582429 -0.780481 -0.227215
vn -0.582429 -0.780481 -0.227215
vn -0.546864 -0.792281 -0.270612
vn -0.509379 -0.801493 -0.313277
vn -0.425076 -0.814492 -0.394858
vn -0.378006 -0.817923 -0.43372
vn -0.278256 -0.817928 -0.503555
vn -0.22567 -0.814502 -0.534472
vn -0.120106 -0.801489 -0.585825
vn -0.067223 -0.792291 -0.606429
vn -0.014355 -0.780464 -0.625036
vn -0.014355 -0.780464 -0.625036
vn 0.64518 -0.721375 0.251715
vn 0.64518 -0.721375 0.251715
vn 0.607665 -0.734899 0.301108
vn 0.567558 -0.745501 0.349438
vn 0.47558 -0.760609 0.441924
vn 0.423302 -0.76462 0.485974
vn 0.311893 -0.764598 0.564015
vn 0.252686 -0.760575 0.59806
vn 0.134211 -0.745496 0.652858
vn 0.075043 -0.734918 0.673991
vn 0.015883 -0.721413 0.692323
vn 0.015883 -0.721413 0.692323
vn 0.934821 0 -0.355119
vn 0.934821 0 -0.355119
vn 0.901441 0 -0.432902
vn 0.861226 0 -0.508222
vn 0.763161 0 -0.646209
vn 0.705337 0 -0.708873
vn 0.575605 0 -0.817728
vn 0.503871 0 -0.863779
vn 0.350929 0 -0.936402
vn 0.269824 0 -0.96291
vn 0.187378 0 -0.982288
vn 0.187378 0 -0.982288
vn -0.539085 0.81698 0.204773
vn -0.539129 0.816946 0.20479
vn -0.51733 0.818918 0.248483
vn -0.494327 0.818881 0.291675
vn -0.438044 0.818885 0.370871
vn -0.404756 0.818916 0.406878
vn -0.330426 0.818888 0.4693
vn -0.289141 0.818913 0.495761
vn -0.201389 0.818919 0.537414
vn -0.154854 0.818889 0.552667
vn -0.108048 0.816916 0.566545
vn -0.108048 0.816916 0.566545
vn 0.603771 0.763466 -0.229305
vn 0.603771 0.763466 -0.229305
vn 0.579679 0.76579 -0.278456
vn 0.553852 0.765766 -0.326881
vn 0.490795 0.765788 -0.41556
vn 0.453602 0.765789 -0.455865
vn 0.370166 0.765792 -0.52587
vn 0.324046 0.76575 -0.555538
vn 0.225708 0.765798 -0.602171
vn 0.173517 0.765772 -0.619262
vn 0.121052 0.763473 -0.634394
vn 0.121052 0.763473 -0.634394
vn -0.167449 0 -0.985881
vn -0.167449 0 -0.985881
vn -0.256122 0 -0.966644
vn -0.343378 0 -0.939197
vn -0.502614 0 -0.864511
vn -0.575108 0 -0.818077
vn -0.705833 0 -0.708378
vn -0.764068 0 -0.645136
vn -0.865291 0 -0.50127
vn -0.907512 0 -0.420026
vn -0.941827 0 -0.336099
vn -0.941827 0 -0.336099
vn 0.092986 0.83161 0.54752
vn 0.092986 0.83161 0.54752
vn 0.143822 0.829975 0.538941
vn 0.194393 0.82614 0.528871
vn 0.287442 0.820708 0.493777
vn 0.330006 0.819297 0.468881
vn 0.404457 0.819283 0.406436
vn 0.436347 0.820684 0.36889
vn 0.487079 0.82614 0.28328
vn 0.505776 0.82997 0.235246
vn 0.523102 0.831576 0.186671
vn 0.523102 0.831576 0.186671
vn -0.104655 0.780724 -0.61605
vn -0.104655 0.780724 -0.61605
vn -0.161579 0.778821 -0.606078
vn -0.218218 0.774317 -0.593982
vn -0.32231 0.767824 -0.553682
vn -0.369817 0.7662 -0.525522
vn -0.453327 0.7662 -0.455447
vn -0.489264 0.767825 -0.4136
vn -0.547075 0.77428 -0.318119
vn -0.568761 0.778847 -0.264403
vn -0.588491 0.780749 -0.210024
vn -0.588491 0.780749 -0.210024
vn -0.96223 0 0.272237
vn -0.96223 0 0.272237
vn -0.935709 0 0.352774
vn -0.902261 0 0.431191
vn -0.816609 0 0.577192
vn -0.764394 0 0.64475
vn -0.644749 0 0.764394
vn -0.577191 0 0.816609
vn -0.43119 0 0.902261
vn -0.352773 0 0.935709
vn -0.272236 0 0.962231
vn -0.272236 0 0.962231
vn 0.554913 0.816965 -0.156971
vn 0.554959 0.816931 -0.156984
vn 0.537047 0.8189 -0.202445
vn 0.517871 0.818879 -0.247481
vn 0.468616 0.818929 -0.331292
vn 0.438753 0.818888 -0.370024
vn 0.370024 0.818888 -0.438754
vn 0.331291 0.818929 -0.468617
vn 0.247481 0.818879 -0.517872
vn 0.202444 0.8189 -0.537047
vn 0.156984 0.816931 -0.554959
vn 0.156984 0.816931 -0.554959
vn -0.621448 0.763465 0.17585
vn -0.621448 0.763465 0.17585
vn -0.601746 0.765798 0.226839
vn -0.580237 0.76578 0.27732
vn -0.525203 0.765747 0.371206
vn -0.491572 0.765787 0.414641
vn -0.41464 0.765787 0.491573
vn -0.371205 0.765747 0.525203
vn -0.27732 0.76578 0.580237
vn -0.226839 0.765798 0.601746
vn -0.175849 0.763465 0.621448
vn -0.175849 0.763465 0.621448
vn 0.761996 0 0.647582
vn 0.761996 0 0.647582
vn 0.817548 0 0.575861
vn 0.866734 0 0.498771
vn 0.94074 0 0.33913
vn 0.966403 0 0.257033
vn 0.996036 0 0.088954
vn 0.999995 0 0.003111
vn 0.985066 0 -0.17218
vn 0.965206 0 -0.26149
vn 0.937527 0 -0.347914
vn 0.937527 0 -0.347914
vn -0.423194 0.83158 -0.359697
vn -0.423194 0.83158 -0.359697
vn -0.456576 0.829994 -0.320388
vn -0.488907 0.826123 -0.280163
vn -0.537662 0.820667 -0.193456
vn -0.554215 0.819277 -0.147074
vn -0.571106 0.819265 -0.051404
vn -0.571347 0.820706 -0.002121
vn -0.555239 0.826128 0.096029
vn -0.538607 0.830006 0.144888
vn -0.520649 0.831611 0.193255
vn -0.520649 0.831611 0.193255
vn 0.476114 0.78073 0.404693
vn 0.476114 0.78073 0.404693
vn 0.513382 0.778834 0.360357
vn 0.548987 0.774284 0.314797
vn 0.602776 0.767849 0.216954
vn 0.621108 0.766182 0.164893
vn 0.640051 0.766174 0.057556
vn 0.640658 0.767823 0.002262
vn 0.623527 0.7743 -0.108046
vn 0.605708 0.7788 -0.163059
vn 0.585845 0.780709 -0.217438
vn 0.585845 0.780709 -0.217438
vn 0.988528 0 0.151037
vn 0.988528 0 0.151037
vn 0.998167 0 0.060529
vn 0.999509 0 -0.031326
vn 0.97441 0 -0.224777
vn 0.945351 0 -0.326054
vn 0.857418 0 -0.514621
vn 0.798529 0 -0.601956
vn 0.666472 0 -0.74553
vn 0.595317 0 -0.803491
vn 0.519727 0 -0.854333
vn 0.519727 0 -0.854333
vn -0.617998 0.780483 -0.094467
vn -0.617998 0.780483 -0.094467
vn -0.608885 0.792294 -0.039102
vn -0.59778 0.801489 0.016546
vn -0.565545 0.814502 0.129401
vn -0.54426 0.8179 0.186606
vn -0.492794 0.817919 0.296921
vn -0.462721 0.814483 0.350011
vn -0.396907 0.801516 0.447254
vn -0.361463 0.792279 0.491568
vn -0.324893 0.780445 0.534182
vn -0.324893 0.780445 0.534182
vn 0.684562 0.721413 0.104583
vn 0.684562 0.721413 0.104583
vn 0.676788 0.734917 0.043064
vn 0.666238 0.745502 -0.018809
vn 0.632849 0.760586 -0.144955
vn 0.609597 0.7646 -0.209233
vn 0.552114 0.764607 -0.332485
vn 0.517868 0.760576 -0.391583
vn 0.442662 0.745523 -0.498243
vn 0.402054 0.734888 -0.546161
vn 0.359904 0.721373 -0.591685
vn 0.359904 0.721373 -0.591685
vn -0.980575 0 0.196144
vn -0.980575 0 0.196144
vn -0.958667 0 0.284532
vn -0.928511 0 0.371306
vn -0.838776 0 0.544477
vn -0.77681 0 0.629736
vn -0.629735 0 0.77681
vn -0.544476 0 0.838777
vn -0.371305 0 0.928511
vn -0.284531 0 0.958667
vn -0.196143 0 0.980575
vn -0.196143 0 0.980575
vn 0.613044 0.780477 -0.122609
vn 0.613044 0.780477 -0.122609
vn 0.585589 0.792251 -0.171534
vn 0.556058 0.801485 -0.220048
vn 0.487184 0.81448 -0.315079
vn 0.447538 0.817918 -0.361552
vn 0.361552 0.817918 -0.447538
vn 0.315079 0.81448 -0.487185
vn 0.220047 0.801485 -0.556059
vn 0.171533 0.792251 -0.58559
vn 0.122608 0.780477 -0.613044
vn 0.122608 0.780477 -0.613044
vn -0.679049 0.721416 0.135838
vn -0.679049 0.721416 0.135838
vn -0.65074 0.734889 0.190987
vn -0.619596 0.745535 0.245519
vn -0.545043 0.760608 0.352709
vn -0.50127 0.764604 0.405104
vn -0.405103 0.764604 0.501271
vn -0.352708 0.760608 0.545044
vn -0.245519 0.745535 0.619596
vn -0.190986 0.734889 0.65074
vn -0.135838 0.721416 0.679049
vn -0.135838 0.721416 0.679049
vn -0.013916 0 -0.999903
vn -0.013916 0 -0.999903
vn -0.098573 0 -0.99513
vn -0.182975 0 -0.983118
vn -0.34617 0 -0.938172
vn -0.42494 0 -0.905221
vn -0.571474 0 -0.82062
vn -0.639396 0 -0.768878
vn -0.759917 0 -0.65002
vn -0.812521 0 -0.582932
vn -0.858983 0 -0.512004
vn -0.858983 0 -0.512004
vn -0.281388 0.816965 0.503378
vn -0.281388 0.816965 0.503378
vn -0.2366 0.8189 0.5229
vn -0.191195 0.818879 0.541186
vn -0.097103 0.818929 0.56562
vn -0.048599 0.818888 0.571892
vn 0.048599 0.818888 0.571892
vn 0.097104 0.818929 0.56562
vn 0.191195 0.818879 0.541186
vn 0.2366 0.8189 0.5229
vn 0.281411 0.816931 0.503419
vn 0.281411 0.816931 0.503419
vn 0.315086 0.763465 -0.563775
vn 0.315086 0.763465 -0.563775
vn 0.265099 0.765798 -0.585898
vn 0.214194 0.76578 -0.606384
vn 0.108892 0.765747 -0.633856
vn 0.054399 0.765787 -0.640789
vn -0.054399 0.765787 -0.640789
vn -0.108893 0.765747 -0.633856
vn -0.214195 0.76578 -0.606384
vn -0.265099 0.765798 -0.585898
vn -0.315086 0.763465 -0.563774
vn -0.315086 0.763465 -0.563774
vn -0.761989 0 -0.64759
vn -0.761989 0 -0.64759
vn -0.817514 0 -0.575909
vn -0.866713 0 -0.498807
vn -0.940745 0 -0.339116
vn -0.966411 0 -0.257003
vn -0.996031 0 -0.089002
vn -0.999995 0 -0.0031
vn -0.985063 0 0.172194
vn -0.965203 0 0.261501
vn -0.937528 0 0.347911
vn -0.937528 0 0.347911
vn 0.423192 0.831583 0.359693
vn 0.423192 0.831583 0.359693
vn 0.456591 0.829984 0.320394
vn 0.48892 0.826133 0.280111
vn 0.537599 0.820698 0.193499
vn 0.554192 0.819288 0.147098
vn 0.571086 0.81928 0.051399
vn 0.571386 0.820679 0.0021
vn 0.555227 0.82614 -0.096005
vn 0.538604 0.830006 -0.144901
vn 0.520697 0.831595 -0.193199
vn 0.520697 0.831595 -0.193199
vn -0.476113 0.780721 -0.404711
vn -0.476113 0.780721 -0.404711
vn -0.513401 0.778801 -0.3604
vn -0.548989 0.774284 -0.314793
vn -0.602821 0.767827 -0.216907
vn -0.621104 0.766205 -0.164801
vn -0.64001 0.766212 -0.057501
vn -0.640635 0.767842 -0.0023
vn -0.623514 0.774317 0.108003
vn -0.605699 0.778799 0.1631
vn -0.585824 0.780733 0.217409
vn -0.585824 0.780733 0.217409
vn -0.562085 0 0.827079
vn -0.562085 0 0.827079
vn -0.490085 0 0.871675
vn -0.413991 0 0.910281
vn -0.254493 0 0.967075
vn -0.171206 0 0.985235
vn -0.0025 0 0.999997
vn 0.082698 0 0.996575
vn 0.249612 0 0.968346
vn 0.331308 0 0.943523
vn 0.409912 0 0.912125
vn 0.409912 0 0.912125
vn 0.32418 0.81695 -0.476971
vn 0.324206 0.816916 -0.47701
vn 0.281296 0.818889 -0.500293
vn 0.237606 0.818919 -0.522412
vn 0.146102 0.818913 -0.555009
vn 0.098198 0.818888 -0.565491
vn 0.0015 0.818916 -0.573911
vn -0.047499 0.818885 -0.571989
vn -0.143297 0.818881 -0.555787
vn -0.190104 0.818918 -0.541512
vn -0.236394 0.81698 -0.525987
vn -0.236394 0.81698 -0.525987
vn -0.362987 0.763473 0.534181
vn -0.362987 0.763473 0.534181
vn -0.315188 0.765772 0.56058
vn -0.266199 0.765798 0.585399
vn -0.163689 0.76575 0.621959
vn -0.110099 0.765792 0.633594
vn -0.0016 0.765789 0.64309
vn 0.053199 0.765788 0.64089
vn 0.160493 0.765766 0.622772
vn 0.212998 0.76579 0.606792
vn 0.264788 0.763466 0.589073
vn 0.264788 0.763466 0.589073
vn 0.99998 0 0.0063
vn 0.99998 0 0.0063
vn 0.996432 0 -0.084403
vn 0.984552 0 -0.175092
vn 0.938635 0 -0.344913
vn 0.905518 0 -0.424309
vn 0.820189 0 -0.572093
vn 0.768024 0 -0.640421
vn 0.643905 0 -0.765106
vn 0.571272 0 -0.820761
vn 0.49449 0 -0.869183
vn 0.49449 0 -0.869183
vn -0.555389 0.831583 -0.0035
vn -0.555389 0.831583 -0.0035
vn -0.555696 0.829993 0.0481
vn -0.554616 0.826124 0.099603
vn -0.536193 0.82069 0.197398
vn -0.519085 0.819276 0.243593
vn -0.470498 0.819296 0.327699
vn -0.438999 0.820698 0.365699
vn -0.363604 0.82611 0.430505
vn -0.319498 0.829995 0.457197
vn -0.274697 0.831593 0.482696
vn -0.274697 0.831593 0.482696
vn 0.624837 0.780746 0.0039
vn 0.624837 0.780746 0.0039
vn 0.62492 0.778826 -0.053902
vn 0.622886 0.774283 -0.111798
vn 0.60122 0.767826 -0.221308
vn 0.581776 0.766168 -0.272989
vn 0.527295 0.766194 -0.367297
vn 0.49223 0.767847 -0.410025
vn 0.408212 0.774323 -0.483515
vn 0.359121 0.778845 -0.51423
vn 0.30901 0.780727 -0.543119
vn 0.30901 0.780727 -0.543119
vn 0.854362 0 -0.519678
vn 0.854362 0 -0.519678
vn 0.803502 0 -0.595302
vn 0.745503 0 -0.666503
vn 0.601998 0 -0.798498
vn 0.514613 0 -0.857423
vn 0.32599 0 -0.945373
vn 0.224801 0 -0.974405
vn 0.0314 0 -0.999507
vn -0.060498 0 -0.998168
vn -0.151103 0 -0.988518
vn -0.151103 0 -0.988518
vn -0.534171 0.780457 0.324882
vn -0.534171 0.780457 0.324882
vn -0.491577 0.792264 0.361484
vn -0.447298 0.801496 0.396898
vn -0.35 0.814499 0.4627
vn -0.296906 0.817916 0.49281
vn -0.186606 0.817927 0.544218
vn -0.129396 0.814477 0.565584
vn -0.016599 0.801483 0.597787
vn 0.0391 0.792289 0.608892
vn 0.094399 0.780494 0.617995
vn 0.094399 0.780494 0.617995
vn 0.591684 0.72138 -0.35989
vn 0.591684 0.72138 -0.35989
vn 0.546195 0.734894 -0.401997
vn 0.498308 0.745512 -0.442607
vn 0.391604 0.760608 -0.517805
vn 0.332503 0.764606 -0.552105
vn 0.209201 0.764604 -0.609603
vn 0.145002 0.76061 -0.632809
vn 0.0188 0.74552 -0.666218
vn -0.0431 0.734902 -0.676802
vn -0.104598 0.721387 -0.684588
vn -0.104598 0.721387 -0.684588
vn -0.625073 0 0.780567
vn -0.625073 0 0.780567
vn -0.551488 0 0.834183
vn -0.47259 0 0.881282
vn -0.29249 0 0.956269
vn -0.190305 0 0.981725
vn 0.017 0 0.999856
vn 0.122004 0 0.99253
vn 0.312386 0 0.949955
vn 0.3982 0 0.917299
vn 0.480029 0 0.877253
vn 0.480029 0 0.877253
vn 0.39079 0.780481 -0.487988
vn 0.39079 0.780481 -0.487988
vn 0.338292 0.792281 -0.507788
vn 0.284497 0.801493 -0.525995
vn 0.170698 0.814492 -0.554495
vn 0.110503 0.817923 -0.564616
vn -0.010801 0.817928 -0.57522
vn -0.0718 0.814502 -0.575701
vn -0.188898 0.801489 -0.567392
vn -0.244998 0.792291 -0.558794
vn -0.300086 0.780464 -0.548475
vn -0.300086 0.780464 -0.548475
vn -0.432885 0.721375 0.540582
vn -0.432885 0.721375 0.540582
vn -0.3757 0.734899 0.5646
vn -0.3168 0.745501 0.586401
vn -0.190902 0.760609 0.620508
vn -0.123603 0.764621 0.632517
vn 0.0119 0.764598 0.644398
vn 0.080198 0.760575 0.644279
vn 0.210199 0.745496 0.632497
vn 0.272007 0.734918 0.621215
vn 0.332406 0.721413 0.607511
vn 0.332406 0.721413 0.607511
vt 0.9995 0.9995
vt 0.0005 0.9995
vt 0.9995 0.7997
vt 0.0005 0.7997
vt 0.9995 0.5999
vt 0.0005 0.5999
vt 0.9995 0.4001
vt 0.0005 0.4001
vt 0.9995 0.2003
vt 0.0005 0.2003
vt 0.9995 0.0005
vt 0.0005 0.0005
vt 0.9995 0.9995
vt 0.0005 0.9995
vt 0.9995 0.7997
vt 0.0005 0.7997
vt 0.9995 0.5999
vt 0.0005 0.5999
vt 0.9995 0.4001
vt 0.0005 0.4001
vt 0.9995 0.2003
vt 0.0005 0.2003
vt 0.9995 0.0005
vt 0.0005 0.0005
vt 0.9995 0.9995
vt 0.0005 0.9995
vt 0.9995 0.7997
vt 0.0005 0.7997
vt 0.9995 0.5999
vt 0.0005 0.5999
vt 0.9995 0.4001
vt 0.0005 0.4001
vt 0.9995 0.2003
vt 0.0005 0.2003
vt 0.9995 0.0005
vt 0.0005 0.0005
vt 0.9995 0.9995
vt 0.0005 0.9995
vt 0.9995 0.7997
vt 0.0005 0.7997
vt 0.9995 0.5999
vt 0.0005 0.5999
vt 0.9995 0.4001
vt 0.0005 0.4001
vt 0.9995 0.2003
vt 0.0005 0.2003
vt 0.9995 0.0005
vt 0.0005 0.0005
vt 0.9995 0.9995
vt 0.0005 0.9995
vt 0.9995 0.7997
vt 0.0005 0.7997
vt 0.9995 0.5999
vt 0.0005 0.5999
vt 0.9995 0.4001
vt 0.0005 0.4001
vt 0.9995 0.2003
vt 0.0005 0.2003
vt 0.9995 0.0005
vt 0.0005 0.0005
vt 0.9995 0.9995
vt 0.0005 0.9995
vt 0.9995 0.7997
vt 0.0005 0.7997
vt 0.9995 0.5999
vt 0.0005 0.5999
vt 0.9995 0.4001
vt 0.0005 0.4001
vt 0.9995 0.2003
vt 0.0005 0.2003
vt 0.9995 0.0005
vt 0.0005 0.0005
vt 0.9995 0.9995
vt 0.0005 0.9995
vt 0.9995 0.7997
vt 0.0005 0.7997
vt 0.9995 0.5999
vt 0.0005 0.5999
vt 0.9995 0.4001
vt 0.0005 0.4001
vt 0.9995 0.2003
vt 0.0005 0.2003
vt 0.9995 0.0005
vt 0.0005 0.0005
vt 0.9995 0.9995
vt 0.0005 0.9995
vt 0.9995 0.7997
vt 0.0005 0.7997
vt 0.9995 0.5999
vt 0.0005 0.5999
vt 0.9995 0.4001
vt 0.0005 0.4001
vt 0.9995 0.2003
vt 0.0005 0.2003
vt 0.9995 0.0005
vt 0.0005 0.0005
vt 0.9995 0.9995
vt 0.0005 0.9995
vt 0.9995 0.7997
vt 0.0005 0.7997
vt 0.9995 0.5999
vt 0.0005 0.5999
vt 0.9995 0.4001
vt 0.0005 0.4001
vt 0.9995 0.2003
vt 0.0005 0.2003
vt 0.9995 0.0005
vt 0.0005 0.0005
vt 0.9995 0.9995
vt 0.0005 0.9995
vt 0.9995 0.7997
vt 0.0005 0.7997
vt 0.9995 0.5999
vt 0.0005 0.5999
vt 0.9995 0.4001
vt 0.0005 0.4001
vt 0.9995 0.2003
vt 0.0005 0.2003
vt 0.9995 0.0005
vt 0.0005 0.0005
vt 0.9995 0.9995
vt 0.0005 0.9995
vt 0.9995 0.7997
vt 0.0005 0.7997
vt 0.9995 0.5999
vt 0.0005 0.5999
vt 0.9995 0.4001
vt 0.0005 0.4001
vt 0.9995 0.2003
vt 0.0005 0.2003
vt 0.9995 0.0005
vt 0.0005 0.0005
vt 0.9995 0.9995
vt 0.0005 0.9995
vt 0.9995 0.7997
vt 0.0005 0.7997
vt 0.9995 0.5999
vt 0.0005 0.5999
vt 0.9995 0.4001
vt 0.0005 0.4001
vt 0.9995 0.2003
vt 0.0005 0.2003
vt 0.9995 0.0005
vt 0.0005 0.0005
vt 0.9995 0.9995
vt 0.0005 0.9995
vt 0.9995 0.7997
vt 0.0005 0.7997
vt 0.9995 0.5999
vt 0.0005 0.5999
vt 0.9995 0.4001
vt 0.0005 0.4001
vt 0.9995 0.2003
vt 0.0005 0.2003
vt 0.9995 0.0005
vt 0.0005 0.0005
vt 0.9995 0.9995
vt 0.0005 0.9995
vt 0.9995 0.7997
vt 0.0005 0.7997
vt 0.9995 0.5999
vt 0.0005 0.5999
vt 0.9995 0.4001
vt 0.0005 0.4001
vt 0.9995 0.2003
vt 0.0005 0.2003
vt 0.9995 0.0005
vt 0.0005 0.0005
vt 0.9995 0.9995
vt 0.0005 0.9995
vt 0.9995 0.7997
vt 0.0005 0.7997
vt 0.9995 0.5999
vt 0.0005 0.5999
vt 0.9995 0.4001
vt 0.0005 0.4001
vt 0.9995 0.2003
vt 0.0005 0.2003
vt 0.9995 0.0005
vt 0.0005 0.0005
vt 0.9995 0.9995
vt 0.0005 0.9995
vt 0.9995 0.7997
vt 0.0005 0.7997
vt 0.9995 0.5999
vt 0.0005 0.5999
vt 0.9995 0.4001
vt 0.0005 0.4001
vt 0.9995 0.2003
vt 0.0005 0.2003
vt 0.9995 0.0005
vt 0.0005 0.0005
vt 0.9995 0.9995
vt 0.0005 0.9995
vt 0.9995 0.7997
vt 0.0005 0.7997
vt 0.9995 0.5999
vt 0.0005 0.5999
vt 0.9995 0.4001
vt 0.0005 0.4001
vt 0.9995 0.2003
vt 0.0005 0.2003
vt 0.9995 0.0005
vt 0.0005 0.0005
vt 0.9995 0.9995
vt 0.0005 0.9995
vt 0.9995 0.7997
vt 0.0005 0.7997
vt 0.9995 0.5999
vt 0.0005 0.5999
vt 0.9995 0.4001
vt 0.0005 0.4001
vt 0.9995 0.2003
vt 0.0005 0.2003
vt 0.9995 0.0005
vt 0.0005 0.0005
vt 0.9995 0.9995
vt 0.0005 0.9995
vt 0.9995 0.7997
vt 0.0005 0.7997
vt 0.9995 0.5999
vt 0.0005 0.5999
vt 0.9995 0.4001
vt 0.0005 0.4001
vt 0.9995 0.2003
vt 0.0005 0.2003
vt 0.9995 0.0005
vt 0.0005 0.0005
vt 0.9995 0.9995
vt 0.0005 0.9995
vt 0.9995 0.7997
vt 0.0005 0.7997
vt 0.9995 0.5999
vt 0.0005 0.5999
vt 0.9995 0.4001
vt 0.0005 0.4001
vt 0.9995 0.2003
vt 0.0005 0.2003
vt 0.9995 0.0005
vt 0.0005 0.0005
vt 0.9995 0.9995
vt 0.0005 0.9995
vt 0.9995 0.7997
vt 0.0005 0.7997
vt 0.9995 0.5999
vt 0.0005 0.5999
vt 0.9995 0.4001
vt 0.0005 0.4001
vt 0.9995 0.2003
vt 0.0005 0.2003
vt 0.9995 0.0005
vt 0.0005 0.0005
vt 0.9995 0.9995
vt 0.0005 0.9995
vt 0.9995 0.7997
vt 0.0005 0.7997
vt 0.9995 0.5999
vt 0.0005 0.5999
vt 0.9995 0.4001
vt 0.0005 0.4001
vt 0.9995 0.2003
vt 0.0005 0.2003
vt 0.9995 0.0005
vt 0.0005 0.0005
vt 0.9995 0.9995
vt 0.0005 0.9995
vt 0.9995 0.7997
vt 0.0005 0.7997
vt 0.9995 0.5999
vt 0.0005 0.5999
vt 0.9995 0.4001
vt 0.0005 0.4001
vt 0.9995 0.2003
vt 0.0005 0.2003
vt 0.9995 0.0005
vt 0.0005 0.0005
vt 0.9995 0.9995
vt 0.0005 0.9995
vt 0.9995 0.7997
vt 0.0005 0.7997
vt 0.9995 0.5999
vt 0.0005 0.5999
vt 0.9995 0.4001
vt 0.0005 0.4001
vt 0.9995 0.2003
vt 0.0005 0.2003
vt 0.9995 0.0005
vt 0.0005 0.0005
vt 0.9995 0.9995
vt 0.0005 0.9995
vt 0.9995 0.7997
vt 0.0005 0.7997
vt 0.9995 0.5999
vt 0.0005 0.5999
vt 0.9995 0.4001
vt 0.0005 0.4001
vt 0.9995 0.2003
vt 0.0005 0.2003
vt 0.9995 0.0005
vt 0.0005 0.0005
vt 0.9995 0.9995
vt 0.0005 0.9995
vt 0.9995 0.7997
vt 0.0005 0.7997
vt 0.9995 0.5999
vt 0.0005 0.5999
vt 0.9995 0.4001
vt 0.0005 0.4001
vt 0.9995 0.2003
vt 0.0005 0.2003
vt 0.9995 0.0005
vt 0.0005 0.0005
vt 0.9995 0.9995
vt 0.0005 0.9995
vt 0.9995 0.7997
vt 0.0005 0.7997
vt 0.9995 0.5999
vt 0.0005 0.5999
vt 0.9995 0.4001
vt 0.0005 0.4001
vt 0.9995 0.2003
vt 0.0005 0.2003
vt 0.9995 0.0005
vt 0.0005 0.0005
vt 0.9995 0.9995
vt 0.0005 0.9995
vt 0.9995 0.7997
vt 0.0005 0.7997
vt 0.9995 0.5999
vt 0.0005 0.5999
vt 0.9995 0.4001
vt 0.0005 0.4001
vt 0.9995 0.2003
vt 0.0005 0.2003
vt 0.9995 0.0005
vt 0.0005 0.0005
vt 0.9995 0.9995
vt 0.0005 0.9995
vt 0.9995 0.7997
vt 0.0005 0.7997
vt 0.9995 0.5999
vt 0.0005 0.5999
vt 0.9995 0.4001
vt 0.0005 0.4001
vt 0.9995 0.2003
vt 0.0005 0.2003
vt 0.9995 0.0005
vt 0.0005 0.0005
vt 0.9995 0.9995
vt 0.0005 0.9995
vt 0.9995 0.7997
vt 0.0005 0.7997
vt 0.9995 0.5999
vt 0.0005 0.5999
vt 0.9995 0.4001
vt 0.0005 0.4001
vt 0.9995 0.2003
vt 0.0005 0.2003
vt 0.9995 0.0005
vt 0.0005 0.0005
vt 0.9995 0.9995
vt 0.0005 0.9995
vt 0.9995 0.7997
vt 0.0005 0.7997
vt 0.9995 0.5999
vt 0.0005 0.5999
vt 0.9995 0.4001
vt 0.0005 0.4001
vt 0.9995 0.2003
vt 0.0005 0.2003
vt 0.9995 0.0005
vt 0.0005 0.0005
vt 0.9995 0.9995
vt 0.0005 0.9995
vt 0.9995 0.7997
vt 0.0005 0.7997
vt 0.9995 0.5999
vt 0.0005 0.5999
vt 0.9995 0.4001
vt 0.0005 0.4001
vt 0.9995 0.2003
vt 0.0005 0.2003
vt 0.9995 0.0005
vt 0.0005 0.0005
vt 0.9995 0.9995
vt 0.0005 0.9995
vt 0.9995 0.7997
vt 0.0005 0.7997
vt 0.9995 0.5999
vt 0.0005 0.5999
vt 0.9995 0.4001
vt 0.0005 0.4001
vt 0.9995 0.2003
vt 0.0005 0.2003
vt 0.9995 0.0005
vt 0.0005 0.0005
vt 0.9995 0.9995
vt 0.0005 0.9995
vt 0.9995 0.7997
vt 0.0005 0.7997
vt 0.9995 0.5999
vt 0.0005 0.5999
vt 0.9995 0.4001
vt 0.0005 0.4001
vt 0.9995 0.2003
vt 0.0005 0.2003
vt 0.9995 0.0005
vt 0.0005 0.0005
vt 0.9995 0.9995
vt 0.0005 0.9995
vt 0.9995 0.7997
vt 0.0005 0.7997
vt 0.9995 0.5999
vt 0.0005 0.5999
vt 0.9995 0.4001
vt 0.0005 0.4001
vt 0.9995 0.2003
vt 0.0005 0.2003
vt 0.9995 0.0005
vt 0.0005 0.0005
vt 0.9995 0.9995
vt 0.0005 0.9995
vt 0.9995 0.7997
vt 0.0005 0.7997
vt 0.9995 0.5999
vt 0.0005 0.5999
vt 0.9995 0.4001
vt 0.0005 0.4001
vt 0.9995 0.2003
vt 0.0005 0.2003
vt 0.9995 0.0005
vt 0.0005 0.0005
vt 0.9995 0.9995
vt 0.0005 0.9995
vt 0.9995 0.7997
vt 0.0005 0.7997
vt 0.9995 0.5999
vt 0.0005 0.5999
vt 0.9995 0.4001
vt 0.0005 0.4001
vt 0.9995 0.2003
vt 0.0005 0.2003
vt 0.9995 0.0005
vt 0.0005 0.0005
vt 0.9995 0.9995
vt 0.0005 0.9995
vt 0.9995 0.7997
vt 0.0005 0.7997
vt 0.9995 0.5999
vt 0.0005 0.5999
vt 0.9995 0.4001
vt 0.0005 0.4001
vt 0.9995 0.2003
vt 0.0005 0.2003
vt 0.9995 0.0005
vt 0.0005 0.0005
vt 0.9995 0.9995
vt 0.0005 0.9995
vt 0.9995 0.7997
vt 0.0005 0.7997
vt 0.9995 0.5999
vt 0.0005 0.5999
vt 0.9995 0.4001
vt 0.0005 0.4001
vt 0.9995 0.2003
vt 0.0005 0.2003
vt 0.9995 0.0005
vt 0.0005 0.0005
vt 0.9995 0.9995
vt 0.0005 0.9995
vt 0.9995 0.7997
vt 0.0005 0.7997
vt 0.9995 0.5999
vt 0.0005 0.5999
vt 0.9995 0.4001
vt 0.0005 0.4001
vt 0.9995 0.2003
vt 0.0005 0.2003
vt 0.9995 0.0005
vt 0.0005 0.0005
vt 0.9995 0.9995
vt 0.0005 0.9995
vt 0.9995 0.7997
vt 0.0005 0.7997
vt 0.9995 0.5999
vt 0.0005 0.5999
vt 0.9995 0.4001
vt 0.0005 0.4001
vt 0.9995 0.2003
vt 0.0005 0.2003
vt 0.9995 0.0005
vt 0.0005 0.0005
vt 0.9995 0.9995
vt 0.0005 0.9995
vt 0.9995 0.7997
vt 0.0005 0.7997
vt 0.9995 0.5999
vt 0.0005 0.5999
vt 0.9995 0.4001
vt 0.0005 0.4001
vt 0.9995 0.2003
vt 0.0005 0.2003
vt 0.9995 0.0005
vt 0.0005 0.0005
vt 0.9995 0.9995
vt 0.0005 0.9995
vt 0.9995 0.7997
vt 0.0005 0.7997
vt 0.9995 0.5999
vt 0.0005 0.5999
vt 0.9995 0.4001
vt 0.0005 0.4001
vt 0.9995 0.2003
vt 0.0005 0.2003
vt 0.9995 0.0005
vt 0.0005 0.0005
vt 0.9995 0.9995
vt 0.0005 0.9995
vt 0.9995 0.7997
vt 0.0005 0.7997
vt 0.9995 0.5999
vt 0.0005 0.5999
vt 0.9995 0.4001
vt 0.0005 0.4001
vt 0.9995 0.2003
vt 0.0005 0.2003
vt 0.9995 0.0005
vt 0.0005 0.0005
vt 0.9995 0.9995
vt 0.0005 0.9995
vt 0.9995 0.7997
vt 0.0005 0.7997
vt 0.9995 0.5999
vt 0.0005 0.5999
vt 0.9995 0.4001
vt 0.0005 0.4001
vt 0.9995 0.2003
vt 0.0005 0.2003
vt 0.9995 0.0005
vt 0.0005 0.0005
vt 0.9995 0.9995
vt 0.0005 0.9995
vt 0.9995 0.7997
vt 0.0005 0.7997
vt 0.9995 0.5999
vt 0.0005 0.5999
vt 0.9995 0.4001
vt 0.0005 0.4001
vt 0.9995 0.2003
vt 0.0005 0.2003
vt 0.9995 0.0005
vt 0.0005 0.0005
vt 0.9995 0.9995
vt 0.0005 0.9995
vt 0.9995 0.7997
vt 0.0005 0.7997
vt 0.9995 0.5999
vt 0.0005 0.5999
vt 0.9995 0.4001
vt 0.0005 0.4001
vt 0.9995 0.2003
vt 0.0005 0.2003
vt 0.9995 0.0005
vt 0.0005 0.0005
vt 0.9995 0.9995
vt 0.0005 0.9995
vt 0.9995 0.7997
vt 0.0005 0.7997
vt 0.9995 0.5999
vt 0.0005 0.5999
vt 0.9995 0.4001
vt 0.0005 0.4001
vt 0.9995 0.2003
vt 0.0005 0.2003
vt 0.9995 0.0005
vt 0.0005 0.0005
vt 0.9995 0.9995
vt 0.0005 0.9995
vt 0.9995 0.7997
vt 0.0005 0.7997
vt 0.9995 0.5999
vt 0.0005 0.5999
vt 0.9995 0.4001
vt 0.0005 0.4001
vt 0.9995 0.2003
vt 0.0005 0.2003
vt 0.9995 0.0005
vt 0.0005 0.0005
vt 0.9995 0.9995
vt 0.0005 0.9995
vt 0.9995 0.7997
vt 0.0005 0.7997
vt 0.9995 0.5999
vt 0.0005 0.5999
vt 0.9995 0.4001
vt 0.0005 0.4001
vt 0.9995 0.2003
vt 0.0005 0.2003
vt 0.9995 0.0005
vt 0.0005 0.0005
vt 0.9995 0.9995
vt 0.0005 0.9995
vt 0.9995 0.7997
vt 0.0005 0.7997
vt 0.9995 0.5999
vt 0.0005 0.5999
vt 0.9995 0.4001
vt 0.0005 0.4001
vt 0.9995 0.2003
vt 0.0005 0.2003
vt 0.9995 0.0005
vt 0.0005 0.0005
vt 0.9995 0.9995
vt 0.0005 0.9995
vt 0.9995 0.7997
vt 0.0005 0.7997
vt 0.9995 0.5999
vt 0.0005 0.5999
vt 0.9995 0.4001
vt 0.0005 0.4001
vt 0.9995 0.2003
vt 0.0005 0.2003
vt 0.9995 0.0005
vt 0.0005 0.0005
vt 0.9995 0.9995
vt 0.0005 0.9995
vt 0.9995 0.7997
vt 0.0005 0.7997
vt 0.9995 0.5999
vt 0.0005 0.5999
vt 0.9995 0.4001
vt 0.0005 0.4001
vt 0.9995 0.2003
vt 0.0005 0.2003
vt 0.9995 0.0005
vt 0.0005 0.0005
vt 0.9995 0.9995
vt 0.0005 0.9995
vt 0.9995 0.7997
vt 0.0005 0.7997
vt 0.9995 0.5999
vt 0.0005 0.5999
vt 0.9995 0.4001
vt 0.0005 0.4001
vt 0.9995 0.2003
vt 0.0005 0.2003
vt 0.9995 0.0005
vt 0.0005 0.0005
f 1/1/1 3/3/3 2/2/2
f 4/4/4 2/2/2 3/3/3
f 3/3/3 5/5/5 4/4/4
f 6/6/6 4/4/4 5/5/5
f 5/5/5 7/7/7 6/6/6
f 8/8/8 6/6/6 7/7/7
f 7/7/7 9/9/9 8/8/8
f 10/10/10 8/8/8 9/9/9
f 9/9/9 11/11/11 10/10/10
f 12/12/12 10/10/10 11/11/11
f 13/13/13 15/15/15 14/14/14
f 16/16/16 14/14/14 15/15/15
f 15/15/15 17/17/17 16/16/16
f 18/18/18 16/16/16 17/17/17
f 17/17/17 19/19/19 18/18/18
f 20/20/20 18/18/18 19/19/19
f 19/19/19 21/21/21 20/20/20
f 22/22/22 20/20/20 21/21/21
f 21/21/21 23/23/23 22/22/22
f 24/24/24 22/22/22 23/23/23
f 25/25/25 27/27/27 26/26/26
f 28/28/28 26/26/26 27/27/27
f 27/27/27 29/29/29 28/28/28
f 30/30/30 28/28/28 29/29/29
f 29/29/29 31/31/31 30/30/30
f 32/32/32 30/30/30 31/31/31
f 31/31/31 33/33/33 32/32/32
f 34/34/34 32/32/32 33/33/33
f 33/33/33 35/35/35 34/34/34
f 36/36/36 34/34/34 35/35/35
f 37/37/37 39/39/39 38/38/38
f 40/40/40 38/38/38 39/39/39
f 39/39/39 41/41/41 40/40/40
f 42/42/42 40/40/40 41/41/41
f 41/41/41 43/43/43 42/42/42
f 44/44/44 42/42/42 43/43/43
f 43/43/43 45/45/45 44/44/44
f 46/46/46 44/44/44 45/45/45
f 45/45/45 47/47/47 46/46/46
f 48/48/48 46/46/46 47/47/47
f 49/49/49 51/51/51 50/50/50
f 52/52/52 50/50/50 51/51/51
f 51/51/51 53/53/53 52/52/52
f 54/54/54 52/52/52 53/53/53
f 53/53/53 55/55/55 54/54/54
f 56/56/56 54/54/54 55/55/55
f 55/55/55 57/57/57 56/56/56
f 58/58/58 56/56/56 57/57/57
f 57/57/57 59/59/59 58/58/58
f 60/60/60 58/58/58 59/59/59
f 61/61/61 63/63/63 62/62/62
f 64/64/64 62/62/62 63/63/63
f 63/63/63 65/65/65 64/64/64
f 66/66/66 64/64/64 65/65/65
f 65/65/65 67/67/67 66/66/66
f 68/68/68 66/66/66 67/67/67
f 67/67/67 69/69/69 68/68/68
f 70/70/70 68/68/68 69/69/69
f 69/69/69 71/71/71 70/70/70
f 72/72/72 70/70/70 71/71/71
f 73/73/73 75/75/75 74/74/74
f 76/76/76 74/74/74 75/75/75
f 75/75/75 77/77/77 76/76/76
f 78/78/78 76/76/76 77/77/77
f 77/77/77 79/79/79 78/78/78
f 80/80/80 78/78/78 79/79/79
f 79/79/79 81/81/81 80/80/80
f 82/82/82 80/80/80 81/81/81
f 81/81/81 83/83/83 82/82/82
f 84/84/84 82/82/82 83/83/83
f 85/85/85 87/87/87 86/86/86
f 88/88/88 86/86/86 87/87/87
f 87/87/87 89/89/89 88/88/88
f 90/90/90 88/88/88 89/89/89
f 89/89/89 91/91/91 90/90/90
f 92/92/92 90/90/90 91/91/91
f 91/91/91 93/93/93 92/92/92
f 94/94/94 92/92/92 93/93/93
f 93/93/93 95/95/95 94/94/94
f 96/96/96 94/94/94 95/95/95
f 97/97/97 99/99/99 98/98/98
f 100/100/100 98/98/98 99/99/99
f 99/99/99 101/101/101 100/100/100
f 102/102/102 100/100/100 101/101/101
f 101/101/101 103/103/103 102/102/102
f 104/104/104 102/102/102 103/103/103
f 103/103/103 105/105/105 104/104/104
f 106/106/106 104/104/104 105/105/105
f 105/105/105 107/107/107 106/106/106
f 108/108/108 106/106/106 107/107/107
f 109/109/109 111/111/111 110/110/110
f 112/112/112 110/110/110 111/111/111
f 111/111/111 113/113/113 112/112/112
f 114/114/114 112/112/112 113/113/113
f 113/113/113 115/115/115 114/114/114
f 116/116/116 114/114/114 115/115/115
f 115/115/115 117/117/117 116/116/116
f 118/118/118 116/116/116 117/117/117
f 117/117/117 119/119/119 118/118/118
f 120/120/120 118/118/118 119/119/119
f 121/121/121 123/123/123 122/122/122
f 124/124/124 122/122/122 123/123/123
f 123/123/123 125/125/125 124/124/124
f 126/126/126 124/124/124 125/125/125
f 125/125/125 127/127/127 126/126/126
f 128/128/128 126/126/126 127/127/127
f 127/127/127 129/129/129 128/128/128
f 130/130/130 128/128/128 129/129/129
f 129/129/129 131/131/131 130/130/130
f 132/132/132 130/130/130 131/131/131
f 133/133/133 135/135/135 134/134/134
f 136/136/136 134/134/134 135/135/135
f 135/135/135 137/137/137 136/136/136
f 138/138/138 136/136/136 137/137/137
f 137/137/137 139/139/139 138/138/138
f 140/140/140 138/138/138 139/139/139
f 139/139/139 141/141/141 140/140/140
f 142/142/142 140/140/140 141/141/141
f 141/141/141 143/143/143 142/142/142
f 144/144/144 142/142/142 143/143/143
f 145/145/145 147/147/147 146/146/146
f 148/148/148 146/146/146 147/147/147
f 147/147/147 149/149/149 148/148/148
f 150/150/150 148/148/148 149/149/149
f 149/149/149 151/151/151 150/150/150
f 152/152/152 150/150/150 151/151/151
f 151/151/151 153/153/153 152/152/152
f 154/154/154 152/152/152 153/153/153
f 153/153/153 155/155/155 154/154/154
f 156/156/156 154/154/154 155/155/155
f 157/157/157 159/159/159 158/158/158
f 160/160/160 158/158/158 159/159/159
f 159/159/159 161/161/161 160/160/160
f 162/162/162 160/160/160 161/161/161
f 161/161/161 163/163/163 162/162/162
f 164/164/164 162/162/162 163/163/163
f 163/163/163 165/165/165 164/164/164
f 166/166/166 164/164/164 165/165/165
f 165/165/165 167/167/167 166/166/166
f 168/168/168 166/166/166 167/167/167
f 169/169/169 171/171/171 170/170/170
f 172/172/172 170/170/170 171/171/171
f 171/171/171 173/173/173 172/172/172
f 174/174/174 172/172/172 173/173/173
f 173/173/173 175/175/175 174/174/174
f 176/176/176 174/174/174 175/175/175
f 175/175/175 177/177/177 176/176/176
f 178/178/178 176/176/176 177/177/177
f 177/177/177 179/179/179 178/178/178
f 180/180/180 178/178/178 179/179/179
f 181/181/181 183/183/183 182/182/182
f 184/184/184 182/182/182 183/183/183
f 183/183/183 185/185/185 184/184/184
f 186/186/186 184/184/184 185/185/185
f 185/185/185 187/187/187 186/186/186
f 188/188/188 186/186/186 187/187/187
f 187/187/187 189/189/189 188/188/188
f 190/190/190 188/188/188 189/189/189
f 189/189/189 191/191/191 190/190/190
f 192/192/192 190/190/190 191/191/191
f 193/193/193 195/195/195 194/194/194
f 196/196/196 194/194/194 195/195/195
f 195/195/195 197/197/197 196/196/196
f 198/198/198 196/196/196 197/197/197
f 197/197/197 199/199/199 198/198/198
f 200/200/200 198/198/198 199/199/199
f 199/199/199 201/201/201 200/200/200
f 202/202/202 200/200/200 201/201/201
f 201/201/201 203/203/203 202/202/202
f 204/204/204 202/202/202 203/203/203
f 205/205/205 207/207/207 206/206/206
f 208/208/208 206/206/206 207/207/207
f 207/207/207 209/209/209 208/208/208
f 210/210/210 208/208/208 209/209/209
f 209/209/209 211/211/211 210/210/210
f 212/212/212 210/210/210 211/211/211
f 211/211/211 213/213/213 212/212/212
f 214/214/214 212/212/212 213/213/213
f 213/213/213 215/215/215 214/214/214
f 216/216/216 214/214/214 215/215/215
f 217/217/217 219/219/219 218/218/218
f 220/220/220 218/218/218 219/219/219
f 219/219/219 221/221/221 220/220/220
f 222/222/222 220/220/220 221/221/221
f 221/221/221 223/223/223 222/222/222
f 224/224/224 222/222/222 223/223/223
f 223/223/223 225/225/225 224/224/224
f 226/226/226 224/224/224 225/225/225
f 225/225/225 227/227/227 226/226/226
f 228/228/228 226/226/226 227/227/227
f 229/229/229 231/231/231 230/230/230
f 232/232/232 230/230/230 231/231/231
f 231/231/231 233/233/233 232/232/232
f 234/234/234 232/232/232 233/233/233
f 233/233/233 235/235/235 234/234/234
f 236/236/236 234/234/234 235/235/235
f 235/235/235 237/237/237 236/236/236
f 238/238/238 236/236/236 237/237/237
f 237/237/237 239/239/239 238/238/238
f 240/240/240 238/238/238 239/239/239
f 241/241/241 243/243/243 242/242/242
f 244/244/244 242/242/242 243/243/243
f 243/243/243 245/245/245 244/244/244
f 246/246/246 244/244/244 245/245/245
f 245/245/245 247/247/247 246/246/246
f 248/248/248 246/246/246 247/247/247
f 247/247/247 249/249/249 248/248/248
f 250/250/250 248/248/248 249/249/249
f 249/249/249 251/251/251 250/250/250
f 252/252/252 250/250/250 251/251/251
f 253/253/253 255/255/255 254/254/254
f 256/256/256 254/254/254 255/255/255
f 255/255/255 257/257/257 256/256/256
f 258/258/258 256/256/256 257/257/257
f 257/257/257 259/259/259 258/258/258
f 260/260/260 258/258/258 259/259/259
f 259/259/259 261/261/261 260/260/260
f 262/262/262 260/260/260 261/261/261
f 261/261/261 263/263/263 262/262/262
f 264/264/264 262/262/262 263/263/263
f 265/265/265 267/267/267 266/266/266
f 268/268/268 266/266/266 267/267/267
f 267/267/267 269/269/269 268/268/268
f 270/270/270 268/268/268 269/269/269
f 269/269/269 271/271/271 270/270/270
f 272/272/272 270/270/270 271/271/271
f 271/271/271 273/273/273 272/272/272
f 274/274/274 272/272/272 273/273/273
f 273/273/273 275/275/275 274/274/274
f 276/276/276 274/274/274 275/275/275
f 277/277/277 279/279/279 278/278/278
f 280/280/280 278/278/278 279/279/279
f 279/279/279 281/281/281 280/280/280
f 282/282/282 280/280/280 281/281/281
f 281/281/281 283/283/283 282/282/282
f 284/284/284 282/282/282 283/283/283
f 283/283/283 285/285/285 284/284/284
f 286/286/286 284/284/284 285/285/285
f 285/285/285 287/287/287 286/286/286
f 288/288/288 286/286/286 287/287/287
f 289/289/289 291/291/291 290/290/290
f 292/292/292 290/290/290 291/291/291
f 291/291/291 293/293/293 292/292/292
f 294/294/294 292/292/292 293/293/293
f 293/293/293 295/295/295 294/294/294
f 296/296/296 294/294/294 295/295/295
f 295/295/295 297/297/297 296/296/296
f 298/298/298 296/296/296 297/297/297
f 297/297/297 299/299/299 298/298/298
f 300/300/300 298/298/298 299/299/299
f 301/301/301 303/303/303 302/302/302
f 304/304/304 302/302/302 303/303/303
f 303/303/303 305/305/305 304/304/304
f 306/306/306 304/304/304 305/305/305
f 305/305/305 307/307/307 306/306/306
f 308/308/308 306/306/306 307/307/307
f 307/307/307 309/309/309 308/308/308
f 310/310/310 308/308/308 309/309/309
f 309/309/309 311/311/311 310/310/310
f 312/312/312 310/310/310 311/311/311
f 313/313/313 315/315/315 314/314/314
f 316/316/316 314/314/314 315/315/315
f 315/315/315 317/317/317 316/316/316
f 318/318/318 316/316/316 317/317/317
f 317/317/317 319/319/319 318/318/318
f 320/320/320 318/318/318 319/319/319
f 319/319/319 321/321/321 320/320/320
f 322/322/322 320/320/320 321/321/321
f 321/321/321 323/323/323 322/322/322
f 324/324/324 322/322/322 323/323/323
f 325/325/325 327/327/327 326/326/326
f 328/328/328 326/326/326 327/327/327
f 327/327/327 329/329/329 328/328/328
f 330/330/330 328/328/328 329/329/329
f 329/329/329 331/331/331 330/330/330
f 332/332/332 330/330/330 331/331/331
f 331/331/331 333/333/333 332/332/332
f 334/334/334 332/332/332 333/333/333
f 333/333/333 335/335/335 334/334/334
f 336/336/336 334/334/334 335/335/335
f 337/337/337 339/339/339 338/338/338
f 340/340/340 338/338/338 339/339/339
f 339/339/339 341/341/341 340/340/340
f 342/342/342 340/340/340 341/341/341
f 341/341/341 343/343/343 342/342/342
f 344/344/344 342/342/342 343/343/343
f 343/343/343 345/345/345 344/344/344
f 346/346/346 344/344/344 345/345/345
f 345/345/345 347/347/347 346/346/346
f 348/348/348 346/346/346 347/347/347
f 349/349/349 351/351/351 350/350/350
f 352/352/352 350/350/350 351/351/351
f 351/351/351 353/353/353 352/352/352
f 354/354/354 352/352/352 353/353/353
f 353/353/353 355/355/355 354/354/354
f 356/356/356 354/354/354 355/355/355
f 355/355/355 357/357/357 356/356/356
f 358/358/358 356/356/356 357/357/357
f 357/357/357 359/359/359 358/358/358
f 360/360/360 358/358/358 359/359/359
f 361/361/361 363/363/363 362/362/362
f 364/364/364 362/362/362 363/363/363
f 363/363/363 365/365/365 364/364/364
f 366/366/366 364/364/364 365/365/365
f 365/365/365 367/367/367 366/366/366
f 368/368/368 366/366/366 367/367/367
f 367/367/367 369/369/369 368/368/368
f 370/370/370 368/368/368 369/369/369
f 369/369/369 371/371/371 370/370/370
f 372/372/372 370/370/370 371/371/371
f 373/373/373 375/375/375 374/374/374
f 376/376/376 374/374/374 375/375/375
f 375/375/375 377/377/377 376/376/376
f 378/378/378 376/376/376 377/377/377
f 377/377/377 379/379/379 378/378/378
f 380/380/380 378/378/378 379/379/379
f 379/379/379 381/381/381 380/380/380
f 382/382/382 380/380/380 381/381/381
f 381/381/381 383/383/383 382/382/382
f 384/384/384 382/382/382 383/383/383
f 385/385/385 387/387/387 386/386/386
f 388/388/388 386/386/386 387/387/387
f 387/387/387 389/389/389 388/388/388
f 390/390/390 388/388/388 389/389/389
f 389/389/389 391/391/391 390/390/390
f 392/392/392 390/390/390 391/391/391
f 391/391/391 393/393/393 392/392/392
f 394/394/394 392/392/392 393/393/393
f 393/393/393 395/395/395 394/394/394
f 396/396/396 394/394/394 395/395/395
f 397/397/397 399/399/399 398/398/398
f 400/400/400 398/398/398 399/399/399
f 399/399/399 401/401/401 400/400/400
f 402/402/402 400/400/400 401/401/401
f 401/401/401 403/403/403 402/402/402
f 404/404/404 402/402/402 403/403/403
f 403/403/403 405/405/405 404/404/404
f 406/406/406 404/404/404 405/405/405
f 405/405/405 407/407/407 406/406/406
f 408/408/408 406/406/406 407/407/407
f 409/409/409 411/411/411 410/410/410
f 412/412/412 410/410/410 411/411/411
f 411/411/411 413/413/413 412/412/412
f 414/414/414 412/412/412 413/413/413
f 413/413/413 415/415/415 414/414/414
f 416/416/416 414/414/414 415/415/415
f 415/415/415 417/417/417 416/416/416
f 418/418/418 416/416/416 417/417/417
f 417/417/417 419/419/419 418/418/418
f 420/420/420 418/418/418 419/419/419
f 421/421/421 423/423/423 422/422/422
f 424/424/424 422/422/422 423/423/423
f 423/423/423 425/425/425 424/424/424
f 426/426/426 424/424/424 425/425/425
f 425/425/425 427/427/427 426/426/426
f 428/428/428 426/426/426 427/427/427
f 427/427/427 429/429/429 428/428/428
f 430/430/430 428/428/428 429/429/429
f 429/429/429 431/431/431 430/430/430
f 432/432/432 430/430/430 431/431/431
f 433/433/433 435/435/435 434/434/434
f 436/436/436 434/434/434 435/435/435
f 435/435/435 437/437/437 436/436/436
f 438/438/438 436/436/436 437/437/437
f 437/437/437 439/439/439 438/438/438
f 440/440/440 438/438/438 439/439/439
f 439/439/439 441/441/441 440/440/440
f 442/442/442 440/440/440 441/441/441
f 441/441/441 443/443/443 442/442/442
f 444/444/444 442/442/442 443/443/443
f 445/445/445 447/447/447 446/446/446
f 448/448/448 446/446/446 447/447/447
f 447/447/447 449/449/449 448/448/448
f 450/450/450 448/448/448 449/449/449
f 449/449/449 451/451/451 450/450/450
f 452/452/452 450/450/450 451/451/451
f 451/451/451 453/453/453 452/452/452
f 454/454/454 452/452/452 453/453/453
f 453/453/453 455/455/455 454/454/454
f 456/456/456 454/454/454 455/455/455
f 457/457/457 459/459/459 458/458/458
f 460/460/460 458/458/458 459/459/459
f 459/459/459 461/461/461 460/460/460
f 462/462/462 460/460/460 461/461/461
f 461/461/461 463/463/463 462/462/462
f 464/464/464 462/462/462 463/463/463
f 463/463/463 465/465/465 464/464/464
f 466/466/466 464/464/464 465/465/465
f 465/465/465 467/467/467 466/466/466
f 468/468/468 466/466/466 467/467/467
f 469/469/469 471/471/471 470/470/470
f 472/472/472 470/470/470 471/471/471
f 471/471/471 473/473/473 472/472/472
f 474/474/474 472/472/472 473/473/473
f 473/473/473 475/475/475 474/474/474
f 476/476/476 474/474/474 475/475/475
f 475/475/475 477/477/477 476/476/476
f 478/478/478 476/476/476 477/477/477
f 477/477/477 479/479/479 478/478/478
f 480/480/480 478/478/478 479/479/479
f 481/481/481 483/483/483 482/482/482
f 484/484/484 482/482/482 483/483/483
f 483/483/483 485/485/485 484/484/484
f 486/486/486 484/484/484 485/485/485
f 485/485/485 487/487/487 486/486/486
f 488/488/488 486/486/486 487/487/487
f 487/487/487 489/489/489 488/488/488
f 490/490/490 488/488/488 489/489/489
f 489/489/489 491/491/491 490/490/490
f 492/492/492 490/490/490 491/491/491
f 493/493/493 495/495/495 494/494/494
f 496/496/496 494/494/494 495/495/495
f 495/495/495 497/497/497 496/496/496
f 498/498/498 496/496/496 497/497/497
f 497/497/497 499/499/499 498/498/498
f 500/500/500 498/498/498 499/499/499
f 499/499/499 501/501/501 500/500/500
f 502/502/502 500/500/500 501/501/501
f 501/501/501 503/503/503 502/502/502
f 504/504/504 502/502/502 503/503/503
f 505/505/505 507/507/507 506/506/506
f 508/508/508 506/506/506 507/507/507
f 507/507/507 509/509/509 508/508/508
f 510/510/510 508/508/508 509/509/509
f 509/509/509 511/511/511 510/510/510
f 512/512/512 510/510/510 511/511/511
f 511/511/511 513/513/513 512/512/512
f 514/514/514 512/512/512 513/513/513
f 513/513/513 515/515/515 514/514/514
f 516/516/516 514/514/514 515/515/515
f 517/517/517 519/519/519 518/518/518
f 520/520/520 518/518/518 519/519/519
f 519/519/519 521/521/521 520/520/520
f 522/522/522 520/520/520 521/521/521
f 521/521/521 523/523/523 522/522/522
f 524/524/524 522/522/522 523/523/523
f 523/523/523 525/525/525 524/524/524
f 526/526/526 524/524/524 525/525/525
f 525/525/525 527/527/527 526/526/526
f 528/528/528 526/526/526 527/527/527
f 529/529/529 531/531/531 530/530/530
f 532/532/532 530/530/530 531/531/531
f 531/531/531 533/533/533 532/532/532
f 534/534/534 532/532/532 533/533/533
f 533/533/533 535/535/535 534/534/534
f 536/536/536 534/534/534 535/535/535
f 535/535/535 537/537/537 536/536/536
f 538/538/538 536/536/536 537/537/537
f 537/537/537 539/539/539 538/538/538
f 540/540/540 538/538/538 539/539/539
f 541/541/541 543/543/543 542/542/542
f 544/544/544 542/542/542 543/543/543
f 543/543/543 545/545/545 544/544/544
f 546/546/546 544/544/544 545/545/545
f 545/545/545 547/547/547 546/546/546
f 548/548/548 546/546/546 547/547/547
f 547/547/547 549/549/549 548/548/548
f 550/550/550 548/548/548 549/549/549
f 549/549/549 551/551/551 550/550/550
f 552/552/552 550/550/550 551/551/551
f 553/553/553 555/555/555 554/554/554
f 556/556/556 554/554/554 555/555/555
f 555/555/555 557/557/557 556/556/556
f 558/558/558 556/556/556 557/557/557
f 557/557/557 559/559/559 558/558/558
f 560/560/560 558/558/558 559/559/559
f 559/559/559 561/561/561 560/560/560
f 562/562/562 560/560/560 561/561/561
f 561/561/561 563/563/563 562/562/562
f 564/564/564 562/562/562 563/563/563
f 565/565/565 567/567/567 566/566/566
f 568/568/568 566/566/566 567/567/567
f 567/567/567 569/569/569 568/568/568
f 570/570/570 568/568/568 569/569/569
f 569/569/569 571/571/571 570/570/570
f 572/572/572 570/570/570 571/571/571
f 571/571/571 573/573/573 572/572/572
f 574/574/574 572/572/572 573/573/573
f 573/573/573 575/575/575 574/574/574
f 576/576/576 574/574/574 575/575/575
f 577/577/577 579/579/579 578/578/578
f 580/580/580 578/578/578 579/579/579
f 579/579/579 581/581/581 580/580/580
f 582/582/582 580/580/580 581/581/581
f 581/581/581 583/583/583 582/582/582
f 584/584/584 582/582/582 583/583/583
f 583/583/583 585/585/585 584/584/584
f 586/586/586 584/584/584 585/585/585
f 585/585/585 587/587/587 586/586/586
f 588/588/588 586/586/586 587/587/587
f 589/589/589 591/591/591 590/590/590
f 592/592/592 590/590/590 591/591/591
f 591/591/591 593/593/593 592/592/592
f 594/594/594 592/592/592 593/593/593
f 593/593/593 595/595/595 594/594/594
f 596/596/596 594/594/594 595/595/595
f 595/595/595 597/597/597 596/596/596
f 598/598/598 596/596/596 597/597/597
f 597/597/597 599/599/599 598/598/598
f 600/600/600 598/598/598 599/599/599
f 601/601/601 603/603/603 602/602/602
f 604/604/604 602/602/602 603/603/603
f 603/603/603 605/605/605 604/604/604
f 606/606/606 604/604/604 605/605/605
f 605/605/605 607/607/607 606/606/606
f 608/608/608 606/606/606 607/607/607
f 607/607/607 609/609/609 608/608/608
f 610/610/610 608/608/608 609/609/609
f 609/609/609 611/611/611 610/610/610
f 612/612/612 610/610/610 611/611/611
f 613/613/613 615/615/615 614/614/614
f 616/616/616 614/614/614 615/615/615
f 615/615/615 617/617/617 616/616/616
f 618/618/618 616/616/616 617/617/617
f 617/617/617 619/619/619 618/618/618
f 620/620/620 618/618/618 619/619/619
f 619/619/619 621/621/621 620/620/620
f 622/622/622 620/620/620 621/621/621
f 621/621/621 623/623/623 622/622/622
f 624/624/624 622/622/622 623/623/623
f 625/625/625 627/627/627 626/626/626
f 628/628/628 626/626/626 627/627/627
f 627/627/627 629/629/629 628/628/628
f 630/630/630 628/628/628 629/629/629
f 629/629/629 631/631/631 630/630/630
f 632/632/632 630/630/630 631/631/631
f 631/631/631 633/633/633 632/632/632
f 634/634/634 632/632/632 633/633/633
f 633/633/633 635/635/635 634/634/634
f 636/636/636 634/634/634 635/635/635
f 637/637/637 639/639/639 638/638/638
f 640/640/640 638/638/638 639/639/639
f 639/639/639 641/641/641 640/640/640
f 642/642/642 640/640/640 641/641/641
f 641/641/641 643/643/643 642/642/642
f 644/644/644 642/642/642 643/643/643
f 643/643/643 645/645/645 644/644/644
f 646/646/646 644/644/644 645/645/645
f 645/645/645 647/647/647 646/646/646
f 648/648/648 646/646/646 647/647/647

g ring4
# texture: ring4.jpg
v 346.381 85.8743 -199.9624
v -0.007207 85.8743 0.024719
v 200.0028 85.8743 346.4085
v 546.4101 85.8742 146.4103
v -200.0172 85.8742 -346.359
v 146.352 85.8742 -546.3352
v -346.3953 85.8742 200.0119
v -546.3864 85.8742 -146.3829
v -146.4044 85.8743 546.4066
vn 0 1 -0
vn 0 1 -0
vn 0 1 -0
vn 0 1 -0
vn 0 1 -0
vn 0 1 -0
vn 0 1 -0
vn 0 1 -0
vn 0 1 -0
vt 0.0006 0.5
vt 0.5 0.5
vt 0.5 0.9995
vt 0.0005 0.9995
vt 0.5001 0.0005
vt 0.0006 0.0005
vt 0.9995 0.5
vt 0.9995 0.0005
vt 0.9995 0.9995
f 649/649/649 651/651/651 650/650/650
f 651/651/651 649/649/649 652/652/652
f 649/649/649 650/650/650 653/653/653
f 653/653/653 654/654/654 649/649/649
f 655/655/655 653/653/653 650/650/650
f 653/653/653 655/655/655 656/656/656
f 655/655/655 650/650/650 651/651/651
f 651/651/651 657/657/657 655/655/655
