# Inferno01.bmd — MU geometry at action 0 key 4, exported for MU2
# 2 mesh(es)

g ring3
# texture: ring3.jpg
v 336.113 245.0107 -59.57638
v 336.113 139.1934 -59.57623
v 334.8027 245.0107 34.26194
v 334.8026 139.1934 34.262
v 309.8808 245.0108 124.7399
v 309.8808 139.1935 124.7399
v 262.9572 245.0108 206.0141
v 262.9572 139.1935 206.0141
v 197.062 245.0108 272.8359
v 197.0618 139.1935 272.836
v 116.4507 245.0108 320.8899
v 116.4507 139.1935 320.8898
v 293.0514 161.755 -54.67004
v 379.1746 222.4492 -64.48251
v 291.8947 161.7549 28.15534
v 377.7105 222.4492 40.36872
v 269.8979 161.755 108.0146
v 349.8639 222.4493 141.4651
v 228.4812 161.7549 179.7505
v 297.4332 222.4493 232.2778
v 170.3194 161.755 238.73
v 223.8044 222.4493 306.9419
v 99.16879 161.755 281.1443
v 133.7325 222.4493 360.6355
v 295.8431 226.1111 -54.98816
v 376.3828 158.0931 -64.1644
v 294.6766 226.1111 28.55118
v 374.9288 158.093 39.97278
v 272.4901 226.1111 109.099
v 347.2717 158.0931 140.3808
v 230.7163 226.1112 181.4531
v 295.198 158.0931 230.5751
v 172.0532 226.1111 240.9412
v 222.0706 158.0931 304.7307
v 100.2892 226.1111 283.721
v 132.6122 158.0931 358.0587
v 91.97768 226.0919 236.2233
v 91.97768 158.1123 236.2233
v 23.76187 226.0919 248.694
v 23.76187 158.1123 248.694
v -48.37549 226.0919 242.0254
v -48.37552 158.1123 242.0255
v -117.528 226.0919 216.856
v -117.528 158.1123 216.856
v -177.0749 226.0919 175.5954
v -177.0749 158.1123 175.5954
v -221.3152 226.0919 122.1939
v -221.3151 158.1123 122.194
v 76.35628 172.6064 209.4041
v 107.5991 211.5979 263.0424
v 17.90103 172.6064 220.0905
v 29.62271 211.5979 277.2976
v -43.91458 172.6064 214.3762
v -52.8363 211.5979 269.6749
v -103.1725 172.6064 192.808
v -131.8835 211.5979 240.9041
v -154.1992 172.6064 157.4511
v -199.9506 211.5979 193.7397
v -192.1094 172.6064 111.6906
v -250.5208 211.5978 132.6974
v 77.36909 213.9504 211.1428
v 106.5864 170.2539 261.3036
v 18.28101 213.9504 221.945
v 29.24277 170.2539 275.4431
v -44.20383 213.9504 216.1687
v -52.54709 170.2539 267.8823
v -104.1033 213.9503 194.3672
v -130.9528 170.2539 239.3449
v -155.6823 213.9503 158.6275
v -198.4675 170.2539 192.5634
v -194.0029 213.9503 112.3715
v -248.6273 170.2539 132.0164
v -329.6519 245.0107 88.66357
v -329.6519 139.1934 88.66364
v -336.5251 245.0107 -4.931852
v -336.5251 139.1934 -4.931852
v -319.5838 245.0107 -97.23752
v -319.5838 139.1934 -97.23746
v -279.9221 245.0107 -182.2921
v -279.9221 139.1934 -182.2921
v -220.1015 245.0107 -254.6028
v -220.1015 139.1934 -254.6028
v -143.9852 245.0107 -309.4996
v -143.9852 139.1934 -309.4996
v -287.1817 161.7549 80.02289
v -372.1221 222.4493 97.30417
v -293.2482 161.7549 -2.588011
v -379.8019 222.4492 -7.275572
v -278.2952 161.7549 -84.06055
v -360.8724 222.4492 -110.4144
v -243.2883 161.7549 -159.1331
v -316.556 222.4492 -205.4511
v -190.4883 161.7549 -222.9574
v -249.7147 222.4492 -286.2482
v -123.3051 161.7549 -271.4114
v -164.6654 222.4492 -347.5877
v -289.9351 226.1111 80.58313
v -369.3686 158.0931 96.74402
v -296.054 226.1111 -2.739958
v -376.9962 158.093 -7.123686
v -280.972 226.1111 -84.91495
v -358.1956 158.093 -109.56
v -245.6634 226.1111 -160.6346
v -314.1809 158.093 -203.9496
v -192.4082 226.111 -225.0091
v -247.7949 158.093 -284.1965
v -124.6458 226.1111 -273.8809
v -163.3246 158.093 -345.1183
v 82.06827 226.0918 -239.3641
v 82.06827 158.1122 -239.3641
v 142.3406 226.0919 -205.069
v 142.3406 158.1122 -205.069
v 193.3146 226.0919 -153.5916
v 193.3146 158.1122 -153.5916
v 230.1099 226.0919 -89.86035
v 230.1099 158.1123 -89.86035
v 249.2037 226.0919 -19.97687
v 249.2037 158.1123 -19.97687
v 248.7679 226.0919 49.36814
v 248.7679 158.1123 49.36805
v 76.79596 172.6063 -208.7782
v 87.34055 211.5978 -269.95
v 128.4444 172.6063 -179.3902
v 156.237 211.5978 -230.7478
v 172.1248 172.6063 -135.2784
v 214.5045 211.5978 -171.9049
v 203.6552 172.6063 -80.66603
v 256.5646 211.5978 -99.0546
v 220.017 172.6063 -20.78174
v 278.3904 211.5978 -19.17193
v 219.6435 172.6063 38.64106
v 277.8922 211.5978 60.0951
v 77.13779 213.9503 -210.7612
v 86.99884 170.2538 -267.9671
v 129.3453 213.9503 -181.055
v 155.3361 170.2538 -229.0831
v 173.4986 213.9503 -136.4656
v 213.1308 170.2538 -170.7175
v 205.3704 213.9503 -81.26208
v 254.8495 170.2538 -98.4585
v 221.9093 213.9503 -20.72952
v 276.4982 170.2539 -19.22406
v 221.5318 213.9503 39.33655
v 276.004 170.2539 59.3996
v 78.25231 229.1529 -73.26939
v 78.25231 155.0512 -73.26939
v 96.23483 229.153 -40.40781
v 96.23483 155.0512 -40.40781
v 103.8931 229.153 -7.187864
v 103.8932 155.0512 -7.187819
v 101.0301 229.153 25.53568
v 101.0302 155.0512 25.53575
v 87.71961 229.153 56.92119
v 87.71961 155.0512 56.92119
v 64.30389 229.153 86.1608
v 64.30389 155.0513 86.1608
v 49.9052 170.8506 -69.80917
v 106.5993 213.3536 -76.72968
v 66.55786 170.8506 -39.3778
v 125.9117 213.3536 -41.43788
v 73.64986 170.8506 -8.6145
v 134.1364 213.3536 -5.761198
v 70.99857 170.8506 21.68906
v 131.0617 213.3536 29.38245
v 58.67244 170.8506 50.75338
v 116.7668 213.3536 63.08892
v 36.98834 170.8506 77.83071
v 91.61938 213.3536 94.49097
v 51.743 215.9179 -70.03352
v 104.7615 168.2862 -76.50533
v 68.4819 215.9179 -39.44453
v 123.9878 168.2862 -41.37111
v 75.61053 215.9179 -8.522085
v 132.1757 168.2862 -5.853743
v 72.94557 215.918 21.93837
v 129.1147 168.2862 29.13301
v 60.55561 215.918 51.15323
v 114.8836 168.2863 62.68901
v 38.7593 215.9179 78.37074
v 89.84849 168.2863 93.95086
v -97.66942 229.153 42.76019
v -97.66949 155.0512 42.76014
v -103.3282 229.153 5.729998
v -103.3282 155.0512 5.729998
v -99.16277 229.153 -28.10583
v -99.16277 155.0512 -28.10583
v -85.28031 229.1529 -57.87677
v -85.28031 155.0512 -57.87677
v -62.03804 229.1529 -82.81699
v -62.03809 155.0512 -82.81689
v -30.03384 229.1529 -102.2847
v -30.03388 155.0512 -102.2846
v -69.84843 170.8506 49.20387
v -125.4905 213.3536 36.31656
v -75.08864 170.8506 14.91214
v -131.5677 213.3536 -3.452116
v -71.23129 170.8506 -16.42138
v -127.0942 213.3536 -39.79025
v -58.3755 170.8506 -43.99067
v -112.1852 213.3536 -71.76286
v -36.85214 170.8506 -67.08644
v -87.224 213.3536 -98.54743
v -7.214775 170.8506 -85.11446
v -52.85305 213.3536 -119.4548
v -71.65207 215.918 48.78606
v -123.6868 168.2863 36.73426
v -76.91948 215.9179 14.31687
v -129.7368 168.2862 -2.85684
v -73.04214 215.9179 -17.1789
v -125.2833 168.2862 -39.03273
v -60.11976 215.9179 -44.89091
v -110.4408 168.2862 -70.86257
v -38.48497 215.9179 -68.10629
v -85.59117 168.2862 -97.52759
v -8.694199 215.9179 -86.22762
v -51.3736 168.2862 -118.3417
v -279.4561 12.2553 -196.0531
v -279.4561 118.0726 -196.053
v -317.9262 12.2553 -110.4529
v -317.9263 118.0726 -110.4529
v -333.5771 12.2553 -17.9196
v -333.5771 118.0726 -17.9196
v -325.3977 12.2552 75.57069
v -325.3977 118.0726 75.57069
v -293.9164 12.2552 163.9804
v -293.9164 118.0726 163.9805
v -241.1662 12.2552 241.5999
v -241.1663 118.0726 241.5998
v -242.5024 95.51111 -173.4078
v -316.4098 34.8168 -218.6983
v -276.4577 95.51111 -97.85382
v -359.3948 34.8168 -123.052
v -290.2717 95.51111 -16.18031
v -376.8824 34.8168 -19.65889
v -283.0524 95.51111 66.33788
v -367.7431 34.8168 84.8035
v -255.2657 95.51111 144.3718
v -332.5671 34.8168 183.5891
v -208.7063 95.51111 212.8817
v -273.6262 34.8168 270.318
v -244.8982 31.15491 -174.876
v -314.0139 99.173 -217.2301
v -279.1462 31.15491 -98.67062
v -356.7063 99.173 -122.2351
v -293.0793 31.15491 -16.29311
v -374.0748 99.173 -19.54619
v -285.7977 31.15491 66.93648
v -364.9978 99.173 84.20491
v -257.7715 31.15491 145.6431
v -330.0613 99.173 182.3178
v -210.8108 31.15491 214.7436
v -271.5218 99.173 268.4562
v -183.2045 31.1741 175.2086
v -183.2045 99.15381 175.2086
v -126.6504 31.1741 215.3401
v -126.6504 99.15381 215.3401
v -58.45342 31.1741 239.7829
v -58.45342 99.15381 239.7829
v 14.85708 31.1741 246.1968
v 14.85708 99.1537 246.1968
v 86.26247 31.1741 233.9675
v 86.26247 99.1537 233.9675
v 148.9262 31.1741 204.2661
v 148.9261 99.1537 204.2661
v -157.7124 84.6597 157.504
v -208.6966 45.6682 192.9131
v -109.2503 84.6597 191.8934
v -144.0505 45.6682 238.7868
v -50.81123 84.6597 212.8388
v -66.09572 45.6682 266.727
v 12.00977 84.6597 218.335
v 17.70449 45.6682 274.0586
v 73.19817 84.6597 207.8555
v 99.32678 45.6682 260.0795
v 126.8957 84.6597 182.4039
v 170.9566 45.6682 226.1282
v -159.3652 43.3157 158.6517
v -207.0438 87.01221 191.7653
v -110.3784 43.3157 193.4135
v -142.9224 87.01221 237.2667
v -51.30673 43.3157 214.5857
v -65.60022 87.01221 264.9802
v 12.19437 43.3157 220.1413
v 17.51989 87.01221 272.2522
v 74.04517 43.3157 209.5484
v 98.47978 87.01221 258.3866
v 128.324 43.3157 183.8213
v 169.5283 87.01221 224.7108
v 261.2832 12.2553 219.6622
v 261.2832 118.0726 219.6622
v 307.0675 12.2553 137.7407
v 307.0675 118.0726 137.7407
v 330.7235 12.2553 46.92358
v 330.7235 118.0726 46.92358
v 330.7235 12.2552 -46.92392
v 330.7235 118.0726 -46.92392
v 307.0674 12.2552 -137.7409
v 307.0674 118.0726 -137.7409
v 261.2831 12.2552 -219.6625
v 261.2831 118.0726 -219.6624
v 226.4438 95.51111 193.8825
v 296.1226 34.8168 245.442
v 266.8548 95.51111 121.5753
v 347.2802 34.8168 153.9061
v 287.7346 95.51111 41.4166
v 373.7125 34.8168 52.43057
v 287.7346 95.51111 -41.4168
v 373.7126 34.8168 -52.43093
v 266.8548 95.51111 -121.5755
v 347.2802 34.8168 -153.9063
v 226.4436 95.51111 -193.8827
v 296.1223 34.8168 -245.4422
v 228.7025 31.15491 195.5538
v 293.8638 99.173 243.7706
v 269.4619 31.15491 122.6234
v 344.6732 99.173 152.858
v 290.5217 31.15491 41.7737
v 370.9254 99.173 52.07357
v 290.5216 31.15491 -41.7739
v 370.9254 99.173 -52.07383
v 269.4619 31.15491 -122.6236
v 344.673 99.173 -152.8583
v 228.7023 31.15491 -195.554
v 293.8636 99.173 -243.7709
v 26.76832 31.1741 -251.6323
v 26.76832 99.15381 -251.6323
v -42.35078 31.1741 -246.0227
v -42.35078 99.15381 -246.0227
v -110.3042 31.1741 -220.9108
v -110.3042 99.15381 -220.9108
v -170.5861 31.1741 -178.7008
v -170.5861 99.1537 -178.7008
v -217.4249 31.1741 -123.4342
v -217.4249 99.1537 -123.4342
v -246.3363 31.1741 -60.40223
v -246.3363 99.1537 -60.40223
v 18.62043 84.6597 -221.6839
v 34.91611 45.6682 -281.5807
v -40.60877 84.6597 -216.8769
v -44.09279 45.6682 -275.1684
v -98.83916 84.6597 -195.3581
v -121.7693 45.6682 -246.4635
v -150.4957 84.6597 -159.1878
v -190.6765 45.6682 -198.214
v -190.6326 84.6597 -111.829
v -244.2172 45.6682 -135.0396
v -215.4073 84.6597 -57.81574
v -277.2654 45.6682 -62.98872
v 19.14873 43.3157 -223.6255
v 34.38781 87.01221 -279.6391
v -40.72167 43.3157 -218.7665
v -43.97989 87.01221 -273.2788
v -99.58246 43.3157 -197.0148
v -121.026 87.01221 -244.8067
v -151.7981 43.3157 -160.4529
v -189.374 87.01221 -196.9489
v -192.3696 43.3157 -112.5814
v -242.4802 87.01221 -134.2872
v -217.4125 43.3157 -57.98344
v -275.2602 87.01221 -62.82101
v -39.96783 28.1131 -99.4866
v -39.96793 102.2148 -99.4866
v -70.15353 28.1131 -77.3037
v -70.15353 102.2148 -77.3037
v -91.13361 28.1131 -50.43268
v -91.13361 102.2148 -50.43268
v -102.3685 28.11301 -19.56507
v -102.3685 102.2148 -19.56507
v -103.5691 28.11301 14.50503
v -103.5691 102.2148 14.50503
v -94.70448 28.11301 50.90112
v -94.70448 102.2148 50.90112
v -15.73903 86.41541 -84.37061
v -64.19674 43.9124 -114.6027
v -43.69232 86.4155 -63.82809
v -96.61463 43.9124 -90.77918
v -63.12101 86.4155 -38.94429
v -119.1463 43.9124 -61.92107
v -73.525 86.4155 -10.35948
v -131.2121 43.9124 -28.77067
v -74.6368 86.4155 21.19102
v -132.5014 43.9124 7.819036
v -66.42768 86.4155 54.89552
v -122.9812 43.9124 46.90683
v -17.30983 41.3481 -85.35061
v -62.62584 88.9798 -113.6227
v -45.40792 41.3481 -64.7018
v -94.89913 88.9798 -89.90559
v -64.93712 41.3481 -39.68919
v -117.3302 88.9798 -61.17627
v -75.3949 41.3481 -10.95628
v -129.342 88.9798 -28.17387
v -76.51249 41.3481 20.75762
v -130.6256 88.9798 8.252535
v -68.26099 41.3481 54.63652
v -121.148 88.9798 47.16573
v 70.43523 28.1131 80.01966
v 70.43523 102.2148 80.01966
v 91.21342 28.1131 48.85036
v 91.21342 102.2148 48.85036
v 101.7379 28.1131 16.42426
v 101.7379 102.2148 16.42426
v 101.7378 28.11301 -16.42434
v 101.7378 102.2148 -16.42434
v 91.21339 28.11301 -48.85044
v 91.21339 102.2148 -48.85044
v 70.43518 28.11301 -80.01974
v 70.43518 102.2148 -80.01974
v 42.49762 86.41541 74.10197
v 98.37283 43.9124 85.93736
v 61.73912 86.4155 45.23767
v 120.6876 43.9124 52.46296
v 71.48531 86.4155 15.20967
v 131.9904 43.9124 17.63895
v 71.48529 86.4155 -15.20973
v 131.9904 43.9124 -17.63895
v 61.73909 86.4155 -45.23773
v 120.6876 43.9124 -52.46305
v 42.49758 86.4155 -74.10193
v 98.37277 43.9124 -85.93745
v 44.30882 41.3481 74.48557
v 96.56163 88.9798 85.55366
v 63.65002 41.3481 45.47197
v 118.7767 88.9798 52.22876
v 73.44671 41.3481 15.28837
v 130.0291 88.9798 17.56015
v 73.44659 41.3481 -15.28843
v 130.0291 88.9798 -17.56025
v 63.64999 41.3481 -45.47193
v 118.7767 88.9798 -52.22885
v 44.30878 41.3481 -74.48563
v 96.56147 88.9798 -85.55375
v -200.9954 100.4298 -168.9823
v -200.9955 181.8277 -168.9822
v -236.2142 100.4298 -105.9658
v -236.2142 181.8277 -105.9658
v -254.4113 100.4298 -36.1065
v -254.4113 181.8277 -36.1065
v -254.4113 100.4298 36.08379
v -254.4113 181.8277 36.08379
v -236.2144 100.4298 105.9431
v -236.2143 181.8277 105.9431
v -200.9957 100.4297 168.9597
v -200.9957 181.8277 168.9597
v -174.1959 164.4727 -149.1517
v -227.795 117.7848 -188.8129
v -205.2815 164.4727 -93.53088
v -267.147 117.7848 -118.4007
v -221.3429 164.4727 -31.87029
v -287.4797 117.7848 -40.34272
v -221.3429 164.4727 31.84769
v -287.4798 117.7848 40.31997
v -205.2816 164.4727 93.50822
v -267.1472 117.7848 118.378
v -174.1962 164.4727 149.1291
v -227.7952 117.7848 188.7903
v -175.9334 114.968 -150.4373
v -226.0575 167.2895 -187.5273
v -207.287 114.968 -94.33698
v -265.1417 167.2895 -117.5945
v -223.4868 114.968 -32.14498
v -285.3358 167.2895 -40.068
v -223.4868 114.9679 32.12231
v -285.3358 167.2896 40.0454
v -207.287 114.968 94.31441
v -265.1417 167.2896 117.5718
v -175.9337 114.968 150.4148
v -226.0577 167.2896 187.5046
v -152.1283 114.9827 121.9697
v -152.1283 167.2748 121.9697
v -111.4813 114.9827 156.5144
v -111.4813 167.2748 156.5144
v -60.86035 114.9827 179.8171
v -60.86035 167.2748 179.8171
v -5.112259 114.9827 189.647
v -5.112259 167.2748 189.647
v 50.42575 114.9827 185.0629
v 50.42575 167.2748 185.0629
v 100.4364 114.9827 166.5038
v 100.4364 167.2748 166.5038
v -131.4066 156.1254 110.1117
v -172.8499 126.132 133.8277
v -96.57553 156.1255 139.7137
v -126.3869 126.132 173.315
v -53.19775 156.1255 159.6821
v -68.52306 126.132 199.9521
v -5.426254 156.1255 168.1055
v -4.798264 126.132 211.1885
v 42.16525 156.1255 164.1774
v 58.68633 126.132 205.9485
v 85.02014 156.1255 148.2737
v 115.8527 126.132 184.7339
v -132.75 124.3224 110.8805
v -171.5064 157.9351 133.0589
v -97.54193 124.3224 140.8029
v -125.4205 157.9351 172.2259
v -53.69455 124.3224 160.9875
v -68.02626 157.9351 198.6467
v -5.405853 124.3224 169.5022
v -4.818665 157.9351 209.7919
v 42.70074 124.3224 165.5314
v 58.15085 157.9351 204.5945
v 86.01965 124.3224 149.4556
v 114.8532 157.9351 183.552
v 185.5038 100.4298 185.8348
v 185.5038 181.8277 185.8348
v 226.0808 100.4298 126.1276
v 226.0808 181.8277 126.1276
v 250.2973 100.4298 58.12008
v 250.2973 181.8277 58.12008
v 256.5891 100.4297 -13.79551
v 256.5891 181.8277 -13.79551
v 244.55 100.4297 -84.97491
v 244.55 181.8277 -84.97491
v 214.9576 100.4297 -150.8212
v 214.9576 181.8277 -150.8212
v 160.5346 164.4727 163.744
v 210.473 117.7848 207.9256
v 196.3495 164.4727 111.044
v 255.8121 117.7848 141.2112
v 217.7239 164.4727 51.01798
v 282.8706 117.7848 65.22231
v 223.2773 164.4727 -12.45762
v 289.9009 117.7848 -15.1334
v 212.6511 164.4727 -75.28333
v 276.4489 117.7848 -94.66651
v 186.5317 164.4727 -133.4018
v 243.3834 117.7848 -168.2406
v 162.1534 114.968 165.1761
v 208.8542 167.2896 206.4934
v 198.277 114.968 112.0219
v 253.8846 167.2896 140.2333
v 219.8357 114.968 51.47837
v 280.7589 167.2896 64.76183
v 225.437 114.9679 -12.54433
v 287.7412 167.2896 -15.04673
v 214.7192 114.968 -75.91163
v 274.3808 167.2896 -94.03819
v 188.3746 114.968 -134.5312
v 241.5406 167.2896 -167.1112
v 37.39159 114.9827 -191.0426
v 37.39148 167.2748 -191.0426
v -15.95073 114.9827 -191.3778
v -15.95073 167.2748 -191.3778
v -69.70731 114.9827 -176.6903
v -69.70731 167.2748 -176.6903
v -118.7314 114.9827 -148.3862
v -118.7313 167.2747 -148.3862
v -158.3295 114.9827 -109.1755
v -158.3295 167.2747 -109.1755
v -184.7103 114.9827 -62.81219
v -184.7103 167.2747 -62.81219
v 29.13997 156.1254 -168.6392
v 45.64311 126.132 -213.4459
v -16.56993 156.1255 -168.9265
v -15.33162 126.132 -213.8291
v -62.63473 156.1255 -156.3405
v -76.77983 126.132 -197.04
v -104.6442 156.1255 -132.0863
v -132.8185 126.132 -164.6861
v -138.5765 156.1255 -98.48605
v -178.0823 126.132 -119.865
v -161.1826 156.1255 -58.75646
v -208.2379 126.132 -66.86779
v 29.67497 124.3224 -170.0917
v 45.10811 157.9351 -211.9934
v -16.52974 124.3224 -170.3821
v -15.37172 157.9351 -212.3735
v -63.09323 124.3224 -157.6599
v -76.32133 157.9351 -195.7207
v -105.5575 124.3224 -133.1431
v -131.9052 157.9351 -163.6294
v -139.8571 124.3224 -99.17907
v -176.8018 157.9351 -119.172
v -162.708 124.3224 -59.01946
v -206.7126 157.9351 -66.60485
v -23.94896 112.6281 -78.92701
v -23.94906 169.6294 -78.92701
v -48.56757 112.6281 -63.95183
v -48.56757 169.6294 -63.95183
v -66.44627 112.6281 -44.76714
v -66.44627 169.6294 -44.76714
v -77.12508 112.6281 -21.86634
v -77.12508 169.6294 -21.86634
v -80.32919 112.6281 4.161164
v -80.32919 169.6294 4.161164
v -75.9763 112.6281 32.64596
v -75.9763 169.6294 32.64596
v -6.395771 157.4761 -65.71911
v -41.50225 124.7814 -92.13493
v -29.19377 157.4761 -51.85141
v -67.94136 124.7814 -76.05223
v -45.75028 157.4761 -34.08552
v -87.14227 124.7814 -55.44875
v -55.63929 157.4761 -12.87833
v -98.61078 124.7814 -30.85445
v -58.60649 157.4761 11.22437
v -102.0519 124.7814 -2.902045
v -54.57561 157.4761 37.60257
v -97.37709 124.7814 27.68925
v -7.533871 122.8089 -66.57541
v -40.36416 159.4486 -91.27862
v -30.44987 122.8089 -52.63591
v -66.68536 159.4486 -75.26773
v -47.09198 122.8089 -34.77803
v -85.80046 159.4486 -54.75623
v -57.03228 122.8089 -13.46103
v -97.21778 159.4486 -30.27174
v -60.01489 122.8089 10.76647
v -100.6436 159.4486 -2.444137
v -55.96301 122.8089 37.28127
v -95.98969 159.4486 28.01066
v 48.61848 112.6281 66.03111
v 48.61858 169.6295 66.03111
v 66.63058 112.6281 43.53902
v 66.63058 169.6295 43.53902
v 76.86949 112.6281 19.39642
v 76.86949 169.6295 19.39642
v 79.07182 112.6281 -5.775672
v 79.07182 169.6294 -5.775672
v 73.18081 112.6281 -31.32948
v 73.18081 169.6294 -31.32948
v 59.34803 112.6281 -56.60758
v 59.34803 169.6294 -56.60758
v 27.60658 157.4761 59.6233
v 69.63048 124.7814 72.43893
v 44.28659 157.4761 38.7945
v 88.97459 124.7814 48.28342
v 53.7683 157.4761 16.43741
v 99.9707 124.7814 22.35542
v 55.80771 157.4761 -6.873088
v 102.3359 124.7814 -4.678176
v 50.35241 157.4761 -30.53709
v 96.00921 124.7814 -32.12177
v 37.54263 157.4761 -53.94589
v 81.15353 124.7814 -59.26937
v 28.96889 122.8089 60.0387
v 68.26829 159.4486 72.02342
v 45.73529 122.8089 39.1021
v 87.52599 159.4486 47.97581
v 55.266 122.8089 16.62921
v 98.473 159.4486 22.16352
v 57.31601 122.8089 -6.801986
v 100.8276 159.4486 -4.749366
v 51.83242 122.8089 -30.58848
v 94.52922 159.4486 -32.07037
v 38.95633 122.8089 -54.11839
v 79.73982 159.4486 -59.09678
vn -0.999903 0 -0.013916
vn -0.999903 0 -0.013916
vn -0.99513 0 -0.098574
vn -0.983118 0 -0.182975
vn -0.938172 0 -0.34617
vn -0.905221 0 -0.424941
vn -0.82062 0 -0.571474
vn -0.768878 0 -0.639396
vn -0.65002 0 -0.759917
vn -0.582932 0 -0.812521
vn -0.512003 0 -0.858983
vn -0.512003 0 -0.858983
vn 0.576632 -0.816965 0.008
vn 0.576679 -0.816931 0.008001
vn 0.571144 -0.8189 0.056548
vn 0.564278 -0.818879 0.105013
vn 0.538393 -0.818929 0.198716
vn 0.519573 -0.818888 0.243858
vn 0.470973 -0.818888 0.328034
vn 0.44129 -0.818929 0.366904
vn 0.373083 -0.818879 0.436173
vn 0.334545 -0.8189 0.466351
vn 0.295269 -0.816931 0.495419
vn 0.295269 -0.816931 0.495419
vn -0.645786 -0.763465 -0.009015
vn -0.645786 -0.763465 -0.009015
vn -0.639952 -0.765798 -0.063366
vn -0.632241 -0.76578 -0.117694
vn -0.603382 -0.765747 -0.222624
vn -0.582139 -0.765787 -0.273284
vn -0.52774 -0.765787 -0.367506
vn -0.494489 -0.765747 -0.411232
vn -0.418047 -0.76578 -0.48869
vn -0.374853 -0.765798 -0.522532
vn -0.3307 -0.763465 -0.554759
vn -0.3307 -0.763465 -0.554759
vn -0.179836 0 -0.983697
vn -0.179836 0 -0.983697
vn -0.089996 0 -0.995942
vn 0.001376 0 -0.999999
vn 0.176689 0 -0.984267
vn 0.260634 0 -0.965438
vn 0.420937 0 -0.90709
vn 0.497313 0 -0.867571
vn 0.641656 0 -0.766993
vn 0.709068 0 -0.70514
vn 0.770063 0 -0.637968
vn 0.770063 0 -0.637968
vn 0.099907 -0.831583 0.546341
vn 0.099907 -0.831583 0.546341
vn 0.049174 -0.829984 0.555616
vn -0.001876 -0.826133 0.563472
vn -0.101224 -0.820698 0.562324
vn -0.149706 -0.819288 0.553493
vn -0.24103 -0.81928 0.520274
vn -0.283874 -0.820679 0.495884
vn -0.360756 -0.82614 0.432838
vn -0.394819 -0.829961 0.39406
vn -0.427663 -0.831595 0.354337
vn -0.427663 -0.831595 0.354337
vn -0.112434 -0.780721 -0.614681
vn -0.112434 -0.780721 -0.614681
vn -0.055416 -0.778801 -0.624818
vn 0.001875 -0.774284 -0.632835
vn 0.113563 -0.767827 -0.630512
vn 0.16783 -0.766205 -0.620293
vn 0.270208 -0.766212 -0.583015
vn 0.318326 -0.767842 -0.555956
vn 0.40529 -0.774317 -0.485977
vn 0.444098 -0.778799 -0.443001
vn 0.481194 -0.780733 -0.398634
vn 0.481194 -0.780733 -0.398634
vn 0.997314 0 -0.073241
vn 0.997314 0 -0.073241
vn 0.999935 0 0.01141
vn 0.995322 0 0.096613
vn 0.964758 0 0.26314
vn 0.938842 0 0.344349
vn 0.867273 0 0.497833
vn 0.82171 0 0.569906
vn 0.713806 0 0.700343
vn 0.651461 0 0.758682
vn 0.584968 0 0.811056
vn 0.584968 0 0.811056
vn -0.575206 -0.816916 0.042266
vn -0.575206 -0.816916 0.042266
vn -0.573915 -0.818889 -0.006537
vn -0.571225 -0.818919 -0.055434
vn -0.553703 -0.818913 -0.150976
vn -0.538829 -0.818887 -0.197703
vn -0.497772 -0.818916 -0.285657
vn -0.471608 -0.818885 -0.32713
vn -0.409678 -0.818881 -0.401992
vn -0.373911 -0.818918 -0.435391
vn -0.337349 -0.816946 -0.467755
vn -0.337349 -0.816946 -0.467755
vn 0.644108 -0.763473 -0.047266
vn 0.644108 -0.763473 -0.047266
vn 0.64307 -0.765772 0.007328
vn 0.64007 -0.765798 0.062164
vn 0.620477 -0.76575 0.16922
vn 0.603758 -0.765792 0.221448
vn 0.557733 -0.765789 0.32016
vn 0.528427 -0.765788 0.366517
vn 0.45909 -0.765766 0.450377
vn 0.418999 -0.76579 0.487857
vn 0.377759 -0.763466 0.52385
vn 0.377759 -0.763466 0.52385
vn -0.494534 0 0.869158
vn -0.494534 0 0.869158
vn -0.571311 0 0.820734
vn -0.64391 0 0.765101
vn -0.768021 0 0.640425
vn -0.820221 0 0.572047
vn -0.905541 0 0.424259
vn -0.938633 0 0.344919
vn -0.984553 0 0.175085
vn -0.996436 0 0.084356
vn -0.99998 0 -0.00635
vn -0.99998 0 -0.00635
vn 0.274663 -0.831583 -0.482731
vn 0.274663 -0.831583 -0.482731
vn 0.319503 -0.829993 -0.457197
vn 0.363567 -0.826124 -0.43051
vn 0.439048 -0.820689 -0.365658
vn 0.4705 -0.819276 -0.327744
vn 0.519044 -0.819296 -0.243614
vn 0.536204 -0.820698 -0.197335
vn 0.554631 -0.82611 -0.099638
vn 0.555694 -0.829995 -0.048095
vn 0.555376 -0.831593 0.003453
vn 0.555376 -0.831593 0.003453
vn -0.309041 -0.780746 0.543075
vn -0.309041 -0.780746 0.543075
vn -0.35914 -0.778826 0.514246
vn -0.408263 -0.774283 0.483537
vn -0.492268 -0.767826 0.410019
vn -0.527303 -0.766168 0.367339
vn -0.581736 -0.766194 0.273003
vn -0.601207 -0.767847 0.221271
vn -0.622842 -0.774323 0.111765
vn -0.624897 -0.778845 0.053893
vn -0.62486 -0.780727 -0.003948
vn -0.62486 -0.780727 -0.003948
vn -0.877235 0 0.480061
vn -0.877235 0 0.480061
vn -0.917298 0 0.398203
vn -0.94996 0 0.312373
vn -0.992518 0 0.122097
vn -0.999856 0 0.016957
vn -0.981712 0 -0.19037
vn -0.95626 0 -0.292519
vn -0.881299 0 -0.47256
vn -0.83419 0 -0.551477
vn -0.780531 0 -0.625118
vn -0.780531 0 -0.625118
vn 0.548442 -0.780457 -0.300164
vn 0.548442 -0.780457 -0.300164
vn 0.558842 -0.792264 -0.244977
vn 0.567373 -0.801496 -0.188922
vn 0.57571 -0.814499 -0.071759
vn 0.575238 -0.817916 -0.010723
vn 0.56461 -0.817927 0.110503
vn 0.554508 -0.814476 0.170731
vn 0.525999 -0.801483 0.284518
vn 0.507766 -0.792289 0.338307
vn 0.488 -0.780494 0.39075
vn 0.488 -0.780494 0.39075
vn -0.607516 -0.72138 0.332468
vn -0.607516 -0.72138 0.332468
vn -0.621237 -0.734894 0.272021
vn -0.632463 -0.745512 0.210244
vn -0.644235 -0.760608 0.080236
vn -0.644388 -0.764606 0.011904
vn -0.632532 -0.764604 -0.123628
vn -0.620529 -0.76061 -0.190829
vn -0.586362 -0.74552 -0.316827
vn -0.564578 -0.734902 -0.375727
vn -0.540571 -0.721387 -0.432878
vn -0.540571 -0.721387 -0.432878
vn 0.988527 0 -0.151046
vn 0.988527 0 -0.151046
vn 0.998168 0 -0.060512
vn 0.999508 0 0.031366
vn 0.974398 0 0.22483
vn 0.945351 0 0.326054
vn 0.857401 0 0.51465
vn 0.798554 0 0.601923
vn 0.666493 0 0.745511
vn 0.595305 0 0.8035
vn 0.519709 0 0.854344
vn 0.519709 0 0.854344
vn -0.618005 -0.780481 0.09444
vn -0.618005 -0.780481 0.09444
vn -0.608903 -0.792281 0.039076
vn -0.597774 -0.801493 -0.016616
vn -0.565556 -0.814492 -0.129418
vn -0.544223 -0.817923 -0.186609
vn -0.492755 -0.817928 -0.296963
vn -0.462672 -0.814502 -0.350031
vn -0.396927 -0.801489 -0.447286
vn -0.361431 -0.792291 -0.491571
vn -0.32495 -0.780464 -0.53412
vn -0.32495 -0.780464 -0.53412
vn 0.6846 -0.721375 -0.104599
vn 0.6846 -0.721375 -0.104599
vn 0.676807 -0.734899 -0.043066
vn 0.666238 -0.745501 0.018843
vn 0.632827 -0.760609 0.144928
vn 0.609578 -0.764621 0.209215
vn 0.552115 -0.764598 0.332505
vn 0.517863 -0.760575 0.391592
vn 0.442659 -0.745496 0.498286
vn 0.401985 -0.734918 0.546172
vn 0.359917 -0.721413 0.591628
vn 0.359917 -0.721413 0.591628
vn 0.912126 0 0.409911
vn 0.912126 0 0.409911
vn 0.943523 0 0.331308
vn 0.968346 0 0.249612
vn 0.996575 0 0.082698
vn 0.999997 0 -0.0025
vn 0.985235 0 -0.171207
vn 0.967075 0 -0.254494
vn 0.910281 0 -0.413992
vn 0.871674 0 -0.490086
vn 0.827079 0 -0.562086
vn 0.827079 0 -0.562086
vn -0.525987 0.81698 -0.236394
vn -0.52603 0.816946 -0.236413
vn -0.541512 0.818918 -0.190104
vn -0.555787 0.818881 -0.143297
vn -0.571989 0.818885 -0.047499
vn -0.573911 0.818916 0.0015
vn -0.565491 0.818888 0.098199
vn -0.555009 0.818913 0.146103
vn -0.522412 0.818919 0.237606
vn -0.500293 0.818889 0.281296
vn -0.477009 0.816916 0.324207
vn -0.477009 0.816916 0.324207
vn 0.589074 0.763466 0.264788
vn 0.589074 0.763466 0.264788
vn 0.606793 0.76579 0.212997
vn 0.622772 0.765766 0.160493
vn 0.64089 0.765788 0.053199
vn 0.64309 0.765789 -0.0016
vn 0.633593 0.765792 -0.110099
vn 0.621959 0.76575 -0.16369
vn 0.585398 0.765798 -0.2662
vn 0.560579 0.765772 -0.315189
vn 0.534181 0.763473 -0.362987
vn 0.534181 0.763473 -0.362987
vn 0.578719 0 -0.815527
vn 0.578719 0 -0.815527
vn 0.502415 0 -0.864627
vn 0.421308 0 -0.906918
vn 0.255901 0 -0.966703
vn 0.171805 0 -0.985131
vn 0.0018 0 -0.999999
vn -0.084097 0 -0.996458
vn -0.257402 0 -0.966305
vn -0.344705 0 -0.938711
vn -0.428315 0 -0.90363
vn -0.428315 0 -0.90363
vn -0.321404 0.83161 0.452906
vn -0.321404 0.83161 0.452906
vn -0.279391 0.829975 0.482786
vn -0.236511 0.82614 0.511425
vn -0.145901 0.820708 0.552405
vn -0.098199 0.819297 0.564898
vn -0.0014 0.819283 0.573388
vn 0.047699 0.820684 0.569389
vn 0.144107 0.82614 0.544726
vn 0.191293 0.82997 0.523981
vn 0.237893 0.831576 0.501885
vn 0.237893 0.831576 0.501885
vn 0.361611 0.780724 -0.509616
vn 0.361611 0.780724 -0.509616
vn 0.314308 0.778821 -0.542815
vn 0.265706 0.774317 -0.574312
vn 0.163605 0.767824 -0.619419
vn 0.1101 0.7662 -0.6331
vn 0.0015 0.7662 -0.6426
vn -0.053502 0.767826 -0.638421
vn -0.161896 0.77428 -0.611784
vn -0.215213 0.778847 -0.589136
vn -0.267617 0.780749 -0.564635
vn -0.267617 0.780749 -0.564635
vn -0.8729 0 -0.4879
vn -0.8729 0 -0.4879
vn -0.911095 0 -0.412197
vn -0.942893 0 -0.333097
vn -0.985566 0 -0.169294
vn -0.996415 0 -0.084601
vn -0.996415 0 0.084602
vn -0.985566 0 0.169294
vn -0.942892 0 0.333098
vn -0.911094 0 0.412198
vn -0.8729 0 0.4879
vn -0.8729 0 0.4879
vn 0.503378 0.816965 0.281388
vn 0.50342 0.816931 0.281411
vn 0.5229 0.8189 0.2366
vn 0.541186 0.818879 0.191195
vn 0.56562 0.818929 0.097103
vn 0.571892 0.818888 0.048599
vn 0.571892 0.818888 -0.048599
vn 0.56562 0.818929 -0.097104
vn 0.541186 0.818879 -0.191195
vn 0.5229 0.8189 -0.2366
vn 0.503419 0.816931 -0.281411
vn 0.503419 0.816931 -0.281411
vn -0.563775 0.763465 -0.315086
vn -0.563775 0.763465 -0.315086
vn -0.585898 0.765798 -0.265099
vn -0.606384 0.76578 -0.214194
vn -0.633856 0.765747 -0.108892
vn -0.640789 0.765787 -0.054399
vn -0.640789 0.765787 0.054399
vn -0.633856 0.765747 0.108893
vn -0.606384 0.76578 0.214195
vn -0.585898 0.765798 0.265099
vn -0.563774 0.763465 0.315086
vn -0.563774 0.763465 0.315086
vn 0.080902 0 0.996722
vn 0.080902 0 0.996722
vn 0.170898 0 0.985289
vn 0.260189 0 0.965558
vn 0.425402 0 0.905004
vn 0.5016 0 0.8651
vn 0.641404 0 0.767204
vn 0.704904 0 0.709303
vn 0.818296 0 0.574797
vn 0.867405 0 0.497603
vn 0.908944 0 0.41692
vn 0.908944 0 0.41692
vn -0.044899 0.83158 -0.553587
vn -0.044899 0.83158 -0.553587
vn -0.0963 0.829994 -0.549396
vn -0.147604 0.826123 -0.543815
vn -0.24339 0.820667 -0.516979
vn -0.287892 0.819277 -0.495886
vn -0.367485 0.819265 -0.440181
vn -0.402503 0.820706 -0.405503
vn -0.460516 0.826128 -0.324711
vn -0.483304 0.830006 -0.278402
vn -0.504807 0.831611 -0.231503
vn -0.504807 0.831611 -0.231503
vn 0.050502 0.78073 0.622824
vn 0.050502 0.78073 0.622824
vn 0.108205 0.778834 0.617827
vn 0.165597 0.774284 0.610788
vn 0.272818 0.767849 0.579637
vn 0.322593 0.766182 0.555787
vn 0.411886 0.766174 0.493283
vn 0.451414 0.767823 0.454614
vn 0.5173 0.7743 0.3645
vn 0.5436 0.7788 0.313
vn 0.568007 0.780709 0.260503
vn 0.568007 0.780709 0.260503
vn 0.592196 0 0.805794
vn 0.592196 0 0.805794
vn 0.66301 0 0.748611
vn 0.72891 0 0.684609
vn 0.847954 0 0.530071
vn 0.899019 0 0.437909
vn 0.970178 0 0.242394
vn 0.990293 0 0.138999
vn 0.998436 0 -0.055902
vn 0.989107 0 -0.147201
vn 0.971607 0 -0.236602
vn 0.971607 0 -0.236602
vn -0.370192 0.780483 -0.503789
vn -0.370192 0.780483 -0.503789
vn -0.402897 0.792294 -0.458196
vn -0.434394 0.801489 -0.410994
vn -0.491401 0.814502 -0.308401
vn -0.5168 0.8179 -0.2529
vn -0.558413 0.817919 -0.138503
vn -0.574688 0.814483 -0.079698
vn -0.596912 0.801516 0.035601
vn -0.603184 0.792279 0.091998
vn -0.607457 0.780445 0.14799
vn -0.607457 0.780445 0.14799
vn 0.410108 0.721413 0.55801
vn 0.410108 0.721413 0.55801
vn 0.448111 0.734917 0.509012
vn 0.484402 0.745502 0.457801
vn 0.54999 0.760586 0.344993
vn 0.579 0.7646 0.2831
vn 0.625506 0.764607 0.155301
vn 0.643079 0.760576 0.089297
vn 0.66532 0.745523 -0.039301
vn 0.670489 0.734888 -0.101899
vn 0.672875 0.721373 -0.163894
vn 0.672875 0.721373 -0.163894
vn -0.832066 0 -0.554677
vn -0.832066 0 -0.554677
vn -0.879074 0 -0.476686
vn -0.919109 0 -0.394004
vn -0.978107 0 -0.208101
vn -0.994578 0 -0.103997
vn -0.994578 0 0.103998
vn -0.978107 0 0.208102
vn -0.919109 0 0.394004
vn -0.879074 0 0.476686
vn -0.832066 0 0.554677
vn -0.832066 0 0.554677
vn 0.520185 0.780477 0.34679
vn 0.520185 0.780477 0.34679
vn 0.535367 0.792251 0.292782
vn 0.54879 0.801485 0.237595
vn 0.567286 0.81448 0.121697
vn 0.572113 0.817918 0.060801
vn 0.572113 0.817918 -0.060802
vn 0.567286 0.81448 -0.121697
vn 0.54879 0.801485 -0.237596
vn 0.535367 0.792251 -0.292782
vn 0.520185 0.780477 -0.34679
vn 0.520185 0.780477 -0.34679
vn -0.576213 0.721416 -0.384108
vn -0.576213 0.721416 -0.384108
vn -0.595191 0.734889 -0.325095
vn -0.611728 0.745535 -0.264512
vn -0.634807 0.760608 -0.136001
vn -0.640903 0.764604 -0.068
vn -0.640903 0.764604 0.068001
vn -0.634807 0.760608 0.136002
vn -0.611728 0.745535 0.264512
vn -0.595191 0.734889 0.325095
vn -0.576212 0.721416 0.384108
vn -0.576212 0.721416 0.384108
vn -0.512003 0 -0.858983
vn -0.512003 0 -0.858983
vn -0.582932 0 -0.812521
vn -0.65002 0 -0.759917
vn -0.768878 0 -0.639396
vn -0.82062 0 -0.571474
vn -0.905221 0 -0.424941
vn -0.938172 0 -0.34617
vn -0.983118 0 -0.182975
vn -0.99513 0 -0.098574
vn -0.999903 0 -0.013916
vn -0.999903 0 -0.013916
vn -0.503378 0.816965 -0.281388
vn -0.503378 0.816965 -0.281388
vn -0.5229 0.8189 -0.2366
vn -0.541186 0.818879 -0.191195
vn -0.56562 0.818929 -0.097104
vn -0.571892 0.818888 -0.0486
vn -0.571892 0.818888 0.048599
vn -0.56562 0.818929 0.097103
vn -0.541186 0.818879 0.191195
vn -0.5229 0.8189 0.2366
vn -0.50342 0.816931 0.281411
vn -0.50342 0.816931 0.281411
vn 0.563774 0.763465 0.315086
vn 0.563774 0.763465 0.315086
vn 0.585898 0.765798 0.265099
vn 0.606384 0.76578 0.214195
vn 0.633856 0.765747 0.108893
vn 0.640789 0.765787 0.054399
vn 0.640789 0.765787 -0.054399
vn 0.633856 0.765747 -0.108892
vn 0.606384 0.76578 -0.214194
vn 0.585898 0.765798 -0.265099
vn 0.563775 0.763465 -0.315086
vn 0.563775 0.763465 -0.315086
vn 0.647591 0 -0.761989
vn 0.647591 0 -0.761989
vn 0.57591 0 -0.817513
vn 0.498808 0 -0.866713
vn 0.339116 0 -0.940744
vn 0.257003 0 -0.966411
vn 0.089003 0 -0.996031
vn 0.0031 0 -0.999995
vn -0.172193 0 -0.985063
vn -0.261501 0 -0.965203
vn -0.34791 0 -0.937528
vn -0.34791 0 -0.937528
vn -0.359693 0.831583 0.423191
vn -0.359693 0.831583 0.423191
vn -0.320394 0.829984 0.456591
vn -0.280111 0.826133 0.488919
vn -0.1935 0.820698 0.537599
vn -0.147098 0.819288 0.554192
vn -0.051399 0.81928 0.571086
vn -0.0021 0.820679 0.571386
vn 0.096004 0.82614 0.555227
vn 0.144901 0.830006 0.538604
vn 0.193199 0.831595 0.520697
vn 0.193199 0.831595 0.520697
vn 0.404711 0.780721 -0.476113
vn 0.404711 0.780721 -0.476113
vn 0.360401 0.778801 -0.513401
vn 0.314794 0.774284 -0.548989
vn 0.216908 0.767827 -0.602821
vn 0.164801 0.766205 -0.621104
vn 0.057501 0.766212 -0.64001
vn 0.0023 0.767842 -0.640635
vn -0.108002 0.774317 -0.623514
vn -0.1631 0.778799 -0.605699
vn -0.217409 0.780733 -0.585824
vn -0.217409 0.780733 -0.585824
vn -0.827079 0 -0.562086
vn -0.827079 0 -0.562086
vn -0.871674 0 -0.490086
vn -0.910281 0 -0.413992
vn -0.967075 0 -0.254494
vn -0.985235 0 -0.171207
vn -0.999997 0 -0.0025
vn -0.996575 0 0.082698
vn -0.968346 0 0.249612
vn -0.943523 0 0.331308
vn -0.912126 0 0.409911
vn -0.912126 0 0.409911
vn 0.47697 0.81695 0.32418
vn 0.477009 0.816916 0.324207
vn 0.500293 0.818889 0.281296
vn 0.522412 0.818919 0.237606
vn 0.555009 0.818913 0.146103
vn 0.565491 0.818888 0.098199
vn 0.573911 0.818916 0.0015
vn 0.571989 0.818885 -0.047499
vn 0.555787 0.818881 -0.143297
vn 0.541512 0.818917 -0.190104
vn 0.525987 0.81698 -0.236394
vn 0.525987 0.81698 -0.236394
vn -0.534181 0.763473 -0.362987
vn -0.534181 0.763473 -0.362987
vn -0.560579 0.765772 -0.315189
vn -0.585398 0.765798 -0.2662
vn -0.621959 0.76575 -0.16369
vn -0.633593 0.765792 -0.110099
vn -0.64309 0.765789 -0.0016
vn -0.64089 0.765788 0.053199
vn -0.622772 0.765766 0.160493
vn -0.606793 0.76579 0.212997
vn -0.589074 0.763466 0.264788
vn -0.589074 0.763466 0.264788
vn -0.0063 0 0.99998
vn -0.0063 0 0.99998
vn 0.084402 0 0.996432
vn 0.175091 0 0.984552
vn 0.344912 0 0.938635
vn 0.424308 0 0.905518
vn 0.572092 0 0.820189
vn 0.64042 0 0.768025
vn 0.765105 0 0.643905
vn 0.82076 0 0.571273
vn 0.869183 0 0.494491
vn 0.869183 0 0.494491
vn 0.0035 0.831584 -0.555389
vn 0.0035 0.831584 -0.555389
vn -0.048099 0.829993 -0.555696
vn -0.099603 0.826124 -0.554616
vn -0.197397 0.82069 -0.536193
vn -0.243593 0.819276 -0.519085
vn -0.327698 0.819296 -0.470498
vn -0.365699 0.820698 -0.438999
vn -0.430505 0.82611 -0.363605
vn -0.457197 0.829995 -0.319498
vn -0.482696 0.831593 -0.274698
vn -0.482696 0.831593 -0.274698
vn -0.0039 0.780746 0.624837
vn -0.0039 0.780746 0.624837
vn 0.053902 0.778826 0.62492
vn 0.111797 0.774283 0.622886
vn 0.221307 0.767826 0.601221
vn 0.272989 0.766168 0.581776
vn 0.367297 0.766194 0.527296
vn 0.410025 0.767847 0.49223
vn 0.483514 0.774323 0.408213
vn 0.51423 0.778845 0.359121
vn 0.543119 0.780727 0.309011
vn 0.543119 0.780727 0.309011
vn 0.519677 0 0.854363
vn 0.519677 0 0.854363
vn 0.595301 0 0.803502
vn 0.666502 0 0.745503
vn 0.798497 0 0.601998
vn 0.857422 0 0.514614
vn 0.945373 0 0.325991
vn 0.974405 0 0.224801
vn 0.999507 0 0.031401
vn 0.998168 0 -0.060498
vn 0.988518 0 -0.151103
vn 0.988518 0 -0.151103
vn -0.324882 0.780457 -0.534171
vn -0.324882 0.780457 -0.534171
vn -0.361483 0.792264 -0.491578
vn -0.396898 0.801496 -0.447298
vn -0.4627 0.814499 -0.35
vn -0.492809 0.817916 -0.296906
vn -0.544218 0.817927 -0.186606
vn -0.565584 0.814477 -0.129397
vn -0.597787 0.801483 -0.0166
vn -0.608892 0.792289 0.039099
vn -0.617995 0.780494 0.094399
vn -0.617995 0.780494 0.094399
vn 0.35989 0.72138 0.591684
vn 0.35989 0.72138 0.591684
vn 0.401997 0.734894 0.546196
vn 0.442607 0.745512 0.498308
vn 0.517805 0.760608 0.391604
vn 0.552104 0.764606 0.332503
vn 0.609603 0.764604 0.209201
vn 0.632808 0.76061 0.145002
vn 0.666218 0.74552 0.018801
vn 0.676802 0.734902 -0.0431
vn 0.684588 0.721387 -0.104598
vn 0.684588 0.721387 -0.104598
vn -0.780566 0 -0.625073
vn -0.780566 0 -0.625073
vn -0.834182 0 -0.551489
vn -0.881282 0 -0.472591
vn -0.956268 0 -0.292491
vn -0.981725 0 -0.190305
vn -0.999856 0 0.016999
vn -0.99253 0 0.122003
vn -0.949956 0 0.312385
vn -0.917299 0 0.398199
vn -0.877253 0 0.480029
vn -0.877253 0 0.480029
vn 0.487988 0.780481 0.390791
vn 0.487988 0.780481 0.390791
vn 0.507788 0.792281 0.338292
vn 0.525995 0.801493 0.284498
vn 0.554495 0.814492 0.170699
vn 0.564616 0.817923 0.110503
vn 0.57522 0.817928 -0.0108
vn 0.575701 0.814502 -0.0718
vn 0.567392 0.801489 -0.188897
vn 0.558794 0.792291 -0.244997
vn 0.548475 0.780464 -0.300086
vn 0.548475 0.780464 -0.300086
vn -0.540581 0.721375 -0.432885
vn -0.540581 0.721375 -0.432885
vn -0.564599 0.7349 -0.3757
vn -0.586401 0.745501 -0.316801
vn -0.620508 0.760609 -0.190903
vn -0.632517 0.764621 -0.123604
vn -0.644398 0.764598 0.0119
vn -0.644279 0.760575 0.080197
vn -0.632497 0.745496 0.210199
vn -0.621215 0.734918 0.272006
vn -0.607511 0.721413 0.332406
vn -0.607511 0.721413 0.332406
vt 0.9995 0.9995
vt 0.0005 0.9995
vt 0.9995 0.7997
vt 0.0005 0.7997
vt 0.9995 0.5999
vt 0.0005 0.5999
vt 0.9995 0.4001
vt 0.0005 0.4001
vt 0.9995 0.2003
vt 0.0005 0.2003
vt 0.9995 0.0005
vt 0.0005 0.0005
vt 0.9995 0.9995
vt 0.0005 0.9995
vt 0.9995 0.7997
vt 0.0005 0.7997
vt 0.9995 0.5999
vt 0.0005 0.5999
vt 0.9995 0.4001
vt 0.0005 0.4001
vt 0.9995 0.2003
vt 0.0005 0.2003
vt 0.9995 0.0005
vt 0.0005 0.0005
vt 0.9995 0.9995
vt 0.0005 0.9995
vt 0.9995 0.7997
vt 0.0005 0.7997
vt 0.9995 0.5999
vt 0.0005 0.5999
vt 0.9995 0.4001
vt 0.0005 0.4001
vt 0.9995 0.2003
vt 0.0005 0.2003
vt 0.9995 0.0005
vt 0.0005 0.0005
vt 0.9995 0.9995
vt 0.0005 0.9995
vt 0.9995 0.7997
vt 0.0005 0.7997
vt 0.9995 0.5999
vt 0.0005 0.5999
vt 0.9995 0.4001
vt 0.0005 0.4001
vt 0.9995 0.2003
vt 0.0005 0.2003
vt 0.9995 0.0005
vt 0.0005 0.0005
vt 0.9995 0.9995
vt 0.0005 0.9995
vt 0.9995 0.7997
vt 0.0005 0.7997
vt 0.9995 0.5999
vt 0.0005 0.5999
vt 0.9995 0.4001
vt 0.0005 0.4001
vt 0.9995 0.2003
vt 0.0005 0.2003
vt 0.9995 0.0005
vt 0.0005 0.0005
vt 0.9995 0.9995
vt 0.0005 0.9995
vt 0.9995 0.7997
vt 0.0005 0.7997
vt 0.9995 0.5999
vt 0.0005 0.5999
vt 0.9995 0.4001
vt 0.0005 0.4001
vt 0.9995 0.2003
vt 0.0005 0.2003
vt 0.9995 0.0005
vt 0.0005 0.0005
vt 0.9995 0.9995
vt 0.0005 0.9995
vt 0.9995 0.7997
vt 0.0005 0.7997
vt 0.9995 0.5999
vt 0.0005 0.5999
vt 0.9995 0.4001
vt 0.0005 0.4001
vt 0.9995 0.2003
vt 0.0005 0.2003
vt 0.9995 0.0005
vt 0.0005 0.0005
vt 0.9995 0.9995
vt 0.0005 0.9995
vt 0.9995 0.7997
vt 0.0005 0.7997
vt 0.9995 0.5999
vt 0.0005 0.5999
vt 0.9995 0.4001
vt 0.0005 0.4001
vt 0.9995 0.2003
vt 0.0005 0.2003
vt 0.9995 0.0005
vt 0.0005 0.0005
vt 0.9995 0.9995
vt 0.0005 0.9995
vt 0.9995 0.7997
vt 0.0005 0.7997
vt 0.9995 0.5999
vt 0.0005 0.5999
vt 0.9995 0.4001
vt 0.0005 0.4001
vt 0.9995 0.2003
vt 0.0005 0.2003
vt 0.9995 0.0005
vt 0.0005 0.0005
vt 0.9995 0.9995
vt 0.0005 0.9995
vt 0.9995 0.7997
vt 0.0005 0.7997
vt 0.9995 0.5999
vt 0.0005 0.5999
vt 0.9995 0.4001
vt 0.0005 0.4001
vt 0.9995 0.2003
vt 0.0005 0.2003
vt 0.9995 0.0005
vt 0.0005 0.0005
vt 0.9995 0.9995
vt 0.0005 0.9995
vt 0.9995 0.7997
vt 0.0005 0.7997
vt 0.9995 0.5999
vt 0.0005 0.5999
vt 0.9995 0.4001
vt 0.0005 0.4001
vt 0.9995 0.2003
vt 0.0005 0.2003
vt 0.9995 0.0005
vt 0.0005 0.0005
vt 0.9995 0.9995
vt 0.0005 0.9995
vt 0.9995 0.7997
vt 0.0005 0.7997
vt 0.9995 0.5999
vt 0.0005 0.5999
vt 0.9995 0.4001
vt 0.0005 0.4001
vt 0.9995 0.2003
vt 0.0005 0.2003
vt 0.9995 0.0005
vt 0.0005 0.0005
vt 0.9995 0.9995
vt 0.0005 0.9995
vt 0.9995 0.7997
vt 0.0005 0.7997
vt 0.9995 0.5999
vt 0.0005 0.5999
vt 0.9995 0.4001
vt 0.0005 0.4001
vt 0.9995 0.2003
vt 0.0005 0.2003
vt 0.9995 0.0005
vt 0.0005 0.0005
vt 0.9995 0.9995
vt 0.0005 0.9995
vt 0.9995 0.7997
vt 0.0005 0.7997
vt 0.9995 0.5999
vt 0.0005 0.5999
vt 0.9995 0.4001
vt 0.0005 0.4001
vt 0.9995 0.2003
vt 0.0005 0.2003
vt 0.9995 0.0005
vt 0.0005 0.0005
vt 0.9995 0.9995
vt 0.0005 0.9995
vt 0.9995 0.7997
vt 0.0005 0.7997
vt 0.9995 0.5999
vt 0.0005 0.5999
vt 0.9995 0.4001
vt 0.0005 0.4001
vt 0.9995 0.2003
vt 0.0005 0.2003
vt 0.9995 0.0005
vt 0.0005 0.0005
vt 0.9995 0.9995
vt 0.0005 0.9995
vt 0.9995 0.7997
vt 0.0005 0.7997
vt 0.9995 0.5999
vt 0.0005 0.5999
vt 0.9995 0.4001
vt 0.0005 0.4001
vt 0.9995 0.2003
vt 0.0005 0.2003
vt 0.9995 0.0005
vt 0.0005 0.0005
vt 0.9995 0.9995
vt 0.0005 0.9995
vt 0.9995 0.7997
vt 0.0005 0.7997
vt 0.9995 0.5999
vt 0.0005 0.5999
vt 0.9995 0.4001
vt 0.0005 0.4001
vt 0.9995 0.2003
vt 0.0005 0.2003
vt 0.9995 0.0005
vt 0.0005 0.0005
vt 0.9995 0.9995
vt 0.0005 0.9995
vt 0.9995 0.7997
vt 0.0005 0.7997
vt 0.9995 0.5999
vt 0.0005 0.5999
vt 0.9995 0.4001
vt 0.0005 0.4001
vt 0.9995 0.2003
vt 0.0005 0.2003
vt 0.9995 0.0005
vt 0.0005 0.0005
vt 0.9995 0.9995
vt 0.0005 0.9995
vt 0.9995 0.7997
vt 0.0005 0.7997
vt 0.9995 0.5999
vt 0.0005 0.5999
vt 0.9995 0.4001
vt 0.0005 0.4001
vt 0.9995 0.2003
vt 0.0005 0.2003
vt 0.9995 0.0005
vt 0.0005 0.0005
vt 0.9995 0.9995
vt 0.0005 0.9995
vt 0.9995 0.7997
vt 0.0005 0.7997
vt 0.9995 0.5999
vt 0.0005 0.5999
vt 0.9995 0.4001
vt 0.0005 0.4001
vt 0.9995 0.2003
vt 0.0005 0.2003
vt 0.9995 0.0005
vt 0.0005 0.0005
vt 0.9995 0.9995
vt 0.0005 0.9995
vt 0.9995 0.7997
vt 0.0005 0.7997
vt 0.9995 0.5999
vt 0.0005 0.5999
vt 0.9995 0.4001
vt 0.0005 0.4001
vt 0.9995 0.2003
vt 0.0005 0.2003
vt 0.9995 0.0005
vt 0.0005 0.0005
vt 0.9995 0.9995
vt 0.0005 0.9995
vt 0.9995 0.7997
vt 0.0005 0.7997
vt 0.9995 0.5999
vt 0.0005 0.5999
vt 0.9995 0.4001
vt 0.0005 0.4001
vt 0.9995 0.2003
vt 0.0005 0.2003
vt 0.9995 0.0005
vt 0.0005 0.0005
vt 0.9995 0.9995
vt 0.0005 0.9995
vt 0.9995 0.7997
vt 0.0005 0.7997
vt 0.9995 0.5999
vt 0.0005 0.5999
vt 0.9995 0.4001
vt 0.0005 0.4001
vt 0.9995 0.2003
vt 0.0005 0.2003
vt 0.9995 0.0005
vt 0.0005 0.0005
vt 0.9995 0.9995
vt 0.0005 0.9995
vt 0.9995 0.7997
vt 0.0005 0.7997
vt 0.9995 0.5999
vt 0.0005 0.5999
vt 0.9995 0.4001
vt 0.0005 0.4001
vt 0.9995 0.2003
vt 0.0005 0.2003
vt 0.9995 0.0005
vt 0.0005 0.0005
vt 0.9995 0.9995
vt 0.0005 0.9995
vt 0.9995 0.7997
vt 0.0005 0.7997
vt 0.9995 0.5999
vt 0.0005 0.5999
vt 0.9995 0.4001
vt 0.0005 0.4001
vt 0.9995 0.2003
vt 0.0005 0.2003
vt 0.9995 0.0005
vt 0.0005 0.0005
vt 0.9995 0.9995
vt 0.0005 0.9995
vt 0.9995 0.7997
vt 0.0005 0.7997
vt 0.9995 0.5999
vt 0.0005 0.5999
vt 0.9995 0.4001
vt 0.0005 0.4001
vt 0.9995 0.2003
vt 0.0005 0.2003
vt 0.9995 0.0005
vt 0.0005 0.0005
vt 0.9995 0.9995
vt 0.0005 0.9995
vt 0.9995 0.7997
vt 0.0005 0.7997
vt 0.9995 0.5999
vt 0.0005 0.5999
vt 0.9995 0.4001
vt 0.0005 0.4001
vt 0.9995 0.2003
vt 0.0005 0.2003
vt 0.9995 0.0005
vt 0.0005 0.0005
vt 0.9995 0.9995
vt 0.0005 0.9995
vt 0.9995 0.7997
vt 0.0005 0.7997
vt 0.9995 0.5999
vt 0.0005 0.5999
vt 0.9995 0.4001
vt 0.0005 0.4001
vt 0.9995 0.2003
vt 0.0005 0.2003
vt 0.9995 0.0005
vt 0.0005 0.0005
vt 0.9995 0.9995
vt 0.0005 0.9995
vt 0.9995 0.7997
vt 0.0005 0.7997
vt 0.9995 0.5999
vt 0.0005 0.5999
vt 0.9995 0.4001
vt 0.0005 0.4001
vt 0.9995 0.2003
vt 0.0005 0.2003
vt 0.9995 0.0005
vt 0.0005 0.0005
vt 0.9995 0.9995
vt 0.0005 0.9995
vt 0.9995 0.7997
vt 0.0005 0.7997
vt 0.9995 0.5999
vt 0.0005 0.5999
vt 0.9995 0.4001
vt 0.0005 0.4001
vt 0.9995 0.2003
vt 0.0005 0.2003
vt 0.9995 0.0005
vt 0.0005 0.0005
vt 0.9995 0.9995
vt 0.0005 0.9995
vt 0.9995 0.7997
vt 0.0005 0.7997
vt 0.9995 0.5999
vt 0.0005 0.5999
vt 0.9995 0.4001
vt 0.0005 0.4001
vt 0.9995 0.2003
vt 0.0005 0.2003
vt 0.9995 0.0005
vt 0.0005 0.0005
vt 0.9995 0.9995
vt 0.0005 0.9995
vt 0.9995 0.7997
vt 0.0005 0.7997
vt 0.9995 0.5999
vt 0.0005 0.5999
vt 0.9995 0.4001
vt 0.0005 0.4001
vt 0.9995 0.2003
vt 0.0005 0.2003
vt 0.9995 0.0005
vt 0.0005 0.0005
vt 0.9995 0.9995
vt 0.0005 0.9995
vt 0.9995 0.7997
vt 0.0005 0.7997
vt 0.9995 0.5999
vt 0.0005 0.5999
vt 0.9995 0.4001
vt 0.0005 0.4001
vt 0.9995 0.2003
vt 0.0005 0.2003
vt 0.9995 0.0005
vt 0.0005 0.0005
vt 0.9995 0.9995
vt 0.0005 0.9995
vt 0.9995 0.7997
vt 0.0005 0.7997
vt 0.9995 0.5999
vt 0.0005 0.5999
vt 0.9995 0.4001
vt 0.0005 0.4001
vt 0.9995 0.2003
vt 0.0005 0.2003
vt 0.9995 0.0005
vt 0.0005 0.0005
vt 0.9995 0.9995
vt 0.0005 0.9995
vt 0.9995 0.7997
vt 0.0005 0.7997
vt 0.9995 0.5999
vt 0.0005 0.5999
vt 0.9995 0.4001
vt 0.0005 0.4001
vt 0.9995 0.2003
vt 0.0005 0.2003
vt 0.9995 0.0005
vt 0.0005 0.0005
vt 0.9995 0.9995
vt 0.0005 0.9995
vt 0.9995 0.7997
vt 0.0005 0.7997
vt 0.9995 0.5999
vt 0.0005 0.5999
vt 0.9995 0.4001
vt 0.0005 0.4001
vt 0.9995 0.2003
vt 0.0005 0.2003
vt 0.9995 0.0005
vt 0.0005 0.0005
vt 0.9995 0.9995
vt 0.0005 0.9995
vt 0.9995 0.7997
vt 0.0005 0.7997
vt 0.9995 0.5999
vt 0.0005 0.5999
vt 0.9995 0.4001
vt 0.0005 0.4001
vt 0.9995 0.2003
vt 0.0005 0.2003
vt 0.9995 0.0005
vt 0.0005 0.0005
vt 0.9995 0.9995
vt 0.0005 0.9995
vt 0.9995 0.7997
vt 0.0005 0.7997
vt 0.9995 0.5999
vt 0.0005 0.5999
vt 0.9995 0.4001
vt 0.0005 0.4001
vt 0.9995 0.2003
vt 0.0005 0.2003
vt 0.9995 0.0005
vt 0.0005 0.0005
vt 0.9995 0.9995
vt 0.0005 0.9995
vt 0.9995 0.7997
vt 0.0005 0.7997
vt 0.9995 0.5999
vt 0.0005 0.5999
vt 0.9995 0.4001
vt 0.0005 0.4001
vt 0.9995 0.2003
vt 0.0005 0.2003
vt 0.9995 0.0005
vt 0.0005 0.0005
vt 0.9995 0.9995
vt 0.0005 0.9995
vt 0.9995 0.7997
vt 0.0005 0.7997
vt 0.9995 0.5999
vt 0.0005 0.5999
vt 0.9995 0.4001
vt 0.0005 0.4001
vt 0.9995 0.2003
vt 0.0005 0.2003
vt 0.9995 0.0005
vt 0.0005 0.0005
vt 0.9995 0.9995
vt 0.0005 0.9995
vt 0.9995 0.7997
vt 0.0005 0.7997
vt 0.9995 0.5999
vt 0.0005 0.5999
vt 0.9995 0.4001
vt 0.0005 0.4001
vt 0.9995 0.2003
vt 0.0005 0.2003
vt 0.9995 0.0005
vt 0.0005 0.0005
vt 0.9995 0.9995
vt 0.0005 0.9995
vt 0.9995 0.7997
vt 0.0005 0.7997
vt 0.9995 0.5999
vt 0.0005 0.5999
vt 0.9995 0.4001
vt 0.0005 0.4001
vt 0.9995 0.2003
vt 0.0005 0.2003
vt 0.9995 0.0005
vt 0.0005 0.0005
vt 0.9995 0.9995
vt 0.0005 0.9995
vt 0.9995 0.7997
vt 0.0005 0.7997
vt 0.9995 0.5999
vt 0.0005 0.5999
vt 0.9995 0.4001
vt 0.0005 0.4001
vt 0.9995 0.2003
vt 0.0005 0.2003
vt 0.9995 0.0005
vt 0.0005 0.0005
vt 0.9995 0.9995
vt 0.0005 0.9995
vt 0.9995 0.7997
vt 0.0005 0.7997
vt 0.9995 0.5999
vt 0.0005 0.5999
vt 0.9995 0.4001
vt 0.0005 0.4001
vt 0.9995 0.2003
vt 0.0005 0.2003
vt 0.9995 0.0005
vt 0.0005 0.0005
vt 0.9995 0.9995
vt 0.0005 0.9995
vt 0.9995 0.7997
vt 0.0005 0.7997
vt 0.9995 0.5999
vt 0.0005 0.5999
vt 0.9995 0.4001
vt 0.0005 0.4001
vt 0.9995 0.2003
vt 0.0005 0.2003
vt 0.9995 0.0005
vt 0.0005 0.0005
vt 0.9995 0.9995
vt 0.0005 0.9995
vt 0.9995 0.7997
vt 0.0005 0.7997
vt 0.9995 0.5999
vt 0.0005 0.5999
vt 0.9995 0.4001
vt 0.0005 0.4001
vt 0.9995 0.2003
vt 0.0005 0.2003
vt 0.9995 0.0005
vt 0.0005 0.0005
vt 0.9995 0.9995
vt 0.0005 0.9995
vt 0.9995 0.7997
vt 0.0005 0.7997
vt 0.9995 0.5999
vt 0.0005 0.5999
vt 0.9995 0.4001
vt 0.0005 0.4001
vt 0.9995 0.2003
vt 0.0005 0.2003
vt 0.9995 0.0005
vt 0.0005 0.0005
vt 0.9995 0.9995
vt 0.0005 0.9995
vt 0.9995 0.7997
vt 0.0005 0.7997
vt 0.9995 0.5999
vt 0.0005 0.5999
vt 0.9995 0.4001
vt 0.0005 0.4001
vt 0.9995 0.2003
vt 0.0005 0.2003
vt 0.9995 0.0005
vt 0.0005 0.0005
vt 0.9995 0.9995
vt 0.0005 0.9995
vt 0.9995 0.7997
vt 0.0005 0.7997
vt 0.9995 0.5999
vt 0.0005 0.5999
vt 0.9995 0.4001
vt 0.0005 0.4001
vt 0.9995 0.2003
vt 0.0005 0.2003
vt 0.9995 0.0005
vt 0.0005 0.0005
vt 0.9995 0.9995
vt 0.0005 0.9995
vt 0.9995 0.7997
vt 0.0005 0.7997
vt 0.9995 0.5999
vt 0.0005 0.5999
vt 0.9995 0.4001
vt 0.0005 0.4001
vt 0.9995 0.2003
vt 0.0005 0.2003
vt 0.9995 0.0005
vt 0.0005 0.0005
vt 0.9995 0.9995
vt 0.0005 0.9995
vt 0.9995 0.7997
vt 0.0005 0.7997
vt 0.9995 0.5999
vt 0.0005 0.5999
vt 0.9995 0.4001
vt 0.0005 0.4001
vt 0.9995 0.2003
vt 0.0005 0.2003
vt 0.9995 0.0005
vt 0.0005 0.0005
vt 0.9995 0.9995
vt 0.0005 0.9995
vt 0.9995 0.7997
vt 0.0005 0.7997
vt 0.9995 0.5999
vt 0.0005 0.5999
vt 0.9995 0.4001
vt 0.0005 0.4001
vt 0.9995 0.2003
vt 0.0005 0.2003
vt 0.9995 0.0005
vt 0.0005 0.0005
vt 0.9995 0.9995
vt 0.0005 0.9995
vt 0.9995 0.7997
vt 0.0005 0.7997
vt 0.9995 0.5999
vt 0.0005 0.5999
vt 0.9995 0.4001
vt 0.0005 0.4001
vt 0.9995 0.2003
vt 0.0005 0.2003
vt 0.9995 0.0005
vt 0.0005 0.0005
vt 0.9995 0.9995
vt 0.0005 0.9995
vt 0.9995 0.7997
vt 0.0005 0.7997
vt 0.9995 0.5999
vt 0.0005 0.5999
vt 0.9995 0.4001
vt 0.0005 0.4001
vt 0.9995 0.2003
vt 0.0005 0.2003
vt 0.9995 0.0005
vt 0.0005 0.0005
f 1/1/1 3/3/3 2/2/2
f 4/4/4 2/2/2 3/3/3
f 3/3/3 5/5/5 4/4/4
f 6/6/6 4/4/4 5/5/5
f 5/5/5 7/7/7 6/6/6
f 8/8/8 6/6/6 7/7/7
f 7/7/7 9/9/9 8/8/8
f 10/10/10 8/8/8 9/9/9
f 9/9/9 11/11/11 10/10/10
f 12/12/12 10/10/10 11/11/11
f 13/13/13 15/15/15 14/14/14
f 16/16/16 14/14/14 15/15/15
f 15/15/15 17/17/17 16/16/16
f 18/18/18 16/16/16 17/17/17
f 17/17/17 19/19/19 18/18/18
f 20/20/20 18/18/18 19/19/19
f 19/19/19 21/21/21 20/20/20
f 22/22/22 20/20/20 21/21/21
f 21/21/21 23/23/23 22/22/22
f 24/24/24 22/22/22 23/23/23
f 25/25/25 27/27/27 26/26/26
f 28/28/28 26/26/26 27/27/27
f 27/27/27 29/29/29 28/28/28
f 30/30/30 28/28/28 29/29/29
f 29/29/29 31/31/31 30/30/30
f 32/32/32 30/30/30 31/31/31
f 31/31/31 33/33/33 32/32/32
f 34/34/34 32/32/32 33/33/33
f 33/33/33 35/35/35 34/34/34
f 36/36/36 34/34/34 35/35/35
f 37/37/37 39/39/39 38/38/38
f 40/40/40 38/38/38 39/39/39
f 39/39/39 41/41/41 40/40/40
f 42/42/42 40/40/40 41/41/41
f 41/41/41 43/43/43 42/42/42
f 44/44/44 42/42/42 43/43/43
f 43/43/43 45/45/45 44/44/44
f 46/46/46 44/44/44 45/45/45
f 45/45/45 47/47/47 46/46/46
f 48/48/48 46/46/46 47/47/47
f 49/49/49 51/51/51 50/50/50
f 52/52/52 50/50/50 51/51/51
f 51/51/51 53/53/53 52/52/52
f 54/54/54 52/52/52 53/53/53
f 53/53/53 55/55/55 54/54/54
f 56/56/56 54/54/54 55/55/55
f 55/55/55 57/57/57 56/56/56
f 58/58/58 56/56/56 57/57/57
f 57/57/57 59/59/59 58/58/58
f 60/60/60 58/58/58 59/59/59
f 61/61/61 63/63/63 62/62/62
f 64/64/64 62/62/62 63/63/63
f 63/63/63 65/65/65 64/64/64
f 66/66/66 64/64/64 65/65/65
f 65/65/65 67/67/67 66/66/66
f 68/68/68 66/66/66 67/67/67
f 67/67/67 69/69/69 68/68/68
f 70/70/70 68/68/68 69/69/69
f 69/69/69 71/71/71 70/70/70
f 72/72/72 70/70/70 71/71/71
f 73/73/73 75/75/75 74/74/74
f 76/76/76 74/74/74 75/75/75
f 75/75/75 77/77/77 76/76/76
f 78/78/78 76/76/76 77/77/77
f 77/77/77 79/79/79 78/78/78
f 80/80/80 78/78/78 79/79/79
f 79/79/79 81/81/81 80/80/80
f 82/82/82 80/80/80 81/81/81
f 81/81/81 83/83/83 82/82/82
f 84/84/84 82/82/82 83/83/83
f 85/85/85 87/87/87 86/86/86
f 88/88/88 86/86/86 87/87/87
f 87/87/87 89/89/89 88/88/88
f 90/90/90 88/88/88 89/89/89
f 89/89/89 91/91/91 90/90/90
f 92/92/92 90/90/90 91/91/91
f 91/91/91 93/93/93 92/92/92
f 94/94/94 92/92/92 93/93/93
f 93/93/93 95/95/95 94/94/94
f 96/96/96 94/94/94 95/95/95
f 97/97/97 99/99/99 98/98/98
f 100/100/100 98/98/98 99/99/99
f 99/99/99 101/101/101 100/100/100
f 102/102/102 100/100/100 101/101/101
f 101/101/101 103/103/103 102/102/102
f 104/104/104 102/102/102 103/103/103
f 103/103/103 105/105/105 104/104/104
f 106/106/106 104/104/104 105/105/105
f 105/105/105 107/107/107 106/106/106
f 108/108/108 106/106/106 107/107/107
f 109/109/109 111/111/111 110/110/110
f 112/112/112 110/110/110 111/111/111
f 111/111/111 113/113/113 112/112/112
f 114/114/114 112/112/112 113/113/113
f 113/113/113 115/115/115 114/114/114
f 116/116/116 114/114/114 115/115/115
f 115/115/115 117/117/117 116/116/116
f 118/118/118 116/116/116 117/117/117
f 117/117/117 119/119/119 118/118/118
f 120/120/120 118/118/118 119/119/119
f 121/121/121 123/123/123 122/122/122
f 124/124/124 122/122/122 123/123/123
f 123/123/123 125/125/125 124/124/124
f 126/126/126 124/124/124 125/125/125
f 125/125/125 127/127/127 126/126/126
f 128/128/128 126/126/126 127/127/127
f 127/127/127 129/129/129 128/128/128
f 130/130/130 128/128/128 129/129/129
f 129/129/129 131/131/131 130/130/130
f 132/132/132 130/130/130 131/131/131
f 133/133/133 135/135/135 134/134/134
f 136/136/136 134/134/134 135/135/135
f 135/135/135 137/137/137 136/136/136
f 138/138/138 136/136/136 137/137/137
f 137/137/137 139/139/139 138/138/138
f 140/140/140 138/138/138 139/139/139
f 139/139/139 141/141/141 140/140/140
f 142/142/142 140/140/140 141/141/141
f 141/141/141 143/143/143 142/142/142
f 144/144/144 142/142/142 143/143/143
f 145/145/145 147/147/147 146/146/146
f 148/148/148 146/146/146 147/147/147
f 147/147/147 149/149/149 148/148/148
f 150/150/150 148/148/148 149/149/149
f 149/149/149 151/151/151 150/150/150
f 152/152/152 150/150/150 151/151/151
f 151/151/151 153/153/153 152/152/152
f 154/154/154 152/152/152 153/153/153
f 153/153/153 155/155/155 154/154/154
f 156/156/156 154/154/154 155/155/155
f 157/157/157 159/159/159 158/158/158
f 160/160/160 158/158/158 159/159/159
f 159/159/159 161/161/161 160/160/160
f 162/162/162 160/160/160 161/161/161
f 161/161/161 163/163/163 162/162/162
f 164/164/164 162/162/162 163/163/163
f 163/163/163 165/165/165 164/164/164
f 166/166/166 164/164/164 165/165/165
f 165/165/165 167/167/167 166/166/166
f 168/168/168 166/166/166 167/167/167
f 169/169/169 171/171/171 170/170/170
f 172/172/172 170/170/170 171/171/171
f 171/171/171 173/173/173 172/172/172
f 174/174/174 172/172/172 173/173/173
f 173/173/173 175/175/175 174/174/174
f 176/176/176 174/174/174 175/175/175
f 175/175/175 177/177/177 176/176/176
f 178/178/178 176/176/176 177/177/177
f 177/177/177 179/179/179 178/178/178
f 180/180/180 178/178/178 179/179/179
f 181/181/181 183/183/183 182/182/182
f 184/184/184 182/182/182 183/183/183
f 183/183/183 185/185/185 184/184/184
f 186/186/186 184/184/184 185/185/185
f 185/185/185 187/187/187 186/186/186
f 188/188/188 186/186/186 187/187/187
f 187/187/187 189/189/189 188/188/188
f 190/190/190 188/188/188 189/189/189
f 189/189/189 191/191/191 190/190/190
f 192/192/192 190/190/190 191/191/191
f 193/193/193 195/195/195 194/194/194
f 196/196/196 194/194/194 195/195/195
f 195/195/195 197/197/197 196/196/196
f 198/198/198 196/196/196 197/197/197
f 197/197/197 199/199/199 198/198/198
f 200/200/200 198/198/198 199/199/199
f 199/199/199 201/201/201 200/200/200
f 202/202/202 200/200/200 201/201/201
f 201/201/201 203/203/203 202/202/202
f 204/204/204 202/202/202 203/203/203
f 205/205/205 207/207/207 206/206/206
f 208/208/208 206/206/206 207/207/207
f 207/207/207 209/209/209 208/208/208
f 210/210/210 208/208/208 209/209/209
f 209/209/209 211/211/211 210/210/210
f 212/212/212 210/210/210 211/211/211
f 211/211/211 213/213/213 212/212/212
f 214/214/214 212/212/212 213/213/213
f 213/213/213 215/215/215 214/214/214
f 216/216/216 214/214/214 215/215/215
f 217/217/217 219/219/219 218/218/218
f 220/220/220 218/218/218 219/219/219
f 219/219/219 221/221/221 220/220/220
f 222/222/222 220/220/220 221/221/221
f 221/221/221 223/223/223 222/222/222
f 224/224/224 222/222/222 223/223/223
f 223/223/223 225/225/225 224/224/224
f 226/226/226 224/224/224 225/225/225
f 225/225/225 227/227/227 226/226/226
f 228/228/228 226/226/226 227/227/227
f 229/229/229 231/231/231 230/230/230
f 232/232/232 230/230/230 231/231/231
f 231/231/231 233/233/233 232/232/232
f 234/234/234 232/232/232 233/233/233
f 233/233/233 235/235/235 234/234/234
f 236/236/236 234/234/234 235/235/235
f 235/235/235 237/237/237 236/236/236
f 238/238/238 236/236/236 237/237/237
f 237/237/237 239/239/239 238/238/238
f 240/240/240 238/238/238 239/239/239
f 241/241/241 243/243/243 242/242/242
f 244/244/244 242/242/242 243/243/243
f 243/243/243 245/245/245 244/244/244
f 246/246/246 244/244/244 245/245/245
f 245/245/245 247/247/247 246/246/246
f 248/248/248 246/246/246 247/247/247
f 247/247/247 249/249/249 248/248/248
f 250/250/250 248/248/248 249/249/249
f 249/249/249 251/251/251 250/250/250
f 252/252/252 250/250/250 251/251/251
f 253/253/253 255/255/255 254/254/254
f 256/256/256 254/254/254 255/255/255
f 255/255/255 257/257/257 256/256/256
f 258/258/258 256/256/256 257/257/257
f 257/257/257 259/259/259 258/258/258
f 260/260/260 258/258/258 259/259/259
f 259/259/259 261/261/261 260/260/260
f 262/262/262 260/260/260 261/261/261
f 261/261/261 263/263/263 262/262/262
f 264/264/264 262/262/262 263/263/263
f 265/265/265 267/267/267 266/266/266
f 268/268/268 266/266/266 267/267/267
f 267/267/267 269/269/269 268/268/268
f 270/270/270 268/268/268 269/269/269
f 269/269/269 271/271/271 270/270/270
f 272/272/272 270/270/270 271/271/271
f 271/271/271 273/273/273 272/272/272
f 274/274/274 272/272/272 273/273/273
f 273/273/273 275/275/275 274/274/274
f 276/276/276 274/274/274 275/275/275
f 277/277/277 279/279/279 278/278/278
f 280/280/280 278/278/278 279/279/279
f 279/279/279 281/281/281 280/280/280
f 282/282/282 280/280/280 281/281/281
f 281/281/281 283/283/283 282/282/282
f 284/284/284 282/282/282 283/283/283
f 283/283/283 285/285/285 284/284/284
f 286/286/286 284/284/284 285/285/285
f 285/285/285 287/287/287 286/286/286
f 288/288/288 286/286/286 287/287/287
f 289/289/289 291/291/291 290/290/290
f 292/292/292 290/290/290 291/291/291
f 291/291/291 293/293/293 292/292/292
f 294/294/294 292/292/292 293/293/293
f 293/293/293 295/295/295 294/294/294
f 296/296/296 294/294/294 295/295/295
f 295/295/295 297/297/297 296/296/296
f 298/298/298 296/296/296 297/297/297
f 297/297/297 299/299/299 298/298/298
f 300/300/300 298/298/298 299/299/299
f 301/301/301 303/303/303 302/302/302
f 304/304/304 302/302/302 303/303/303
f 303/303/303 305/305/305 304/304/304
f 306/306/306 304/304/304 305/305/305
f 305/305/305 307/307/307 306/306/306
f 308/308/308 306/306/306 307/307/307
f 307/307/307 309/309/309 308/308/308
f 310/310/310 308/308/308 309/309/309
f 309/309/309 311/311/311 310/310/310
f 312/312/312 310/310/310 311/311/311
f 313/313/313 315/315/315 314/314/314
f 316/316/316 314/314/314 315/315/315
f 315/315/315 317/317/317 316/316/316
f 318/318/318 316/316/316 317/317/317
f 317/317/317 319/319/319 318/318/318
f 320/320/320 318/318/318 319/319/319
f 319/319/319 321/321/321 320/320/320
f 322/322/322 320/320/320 321/321/321
f 321/321/321 323/323/323 322/322/322
f 324/324/324 322/322/322 323/323/323
f 325/325/325 327/327/327 326/326/326
f 328/328/328 326/326/326 327/327/327
f 327/327/327 329/329/329 328/328/328
f 330/330/330 328/328/328 329/329/329
f 329/329/329 331/331/331 330/330/330
f 332/332/332 330/330/330 331/331/331
f 331/331/331 333/333/333 332/332/332
f 334/334/334 332/332/332 333/333/333
f 333/333/333 335/335/335 334/334/334
f 336/336/336 334/334/334 335/335/335
f 337/337/337 339/339/339 338/338/338
f 340/340/340 338/338/338 339/339/339
f 339/339/339 341/341/341 340/340/340
f 342/342/342 340/340/340 341/341/341
f 341/341/341 343/343/343 342/342/342
f 344/344/344 342/342/342 343/343/343
f 343/343/343 345/345/345 344/344/344
f 346/346/346 344/344/344 345/345/345
f 345/345/345 347/347/347 346/346/346
f 348/348/348 346/346/346 347/347/347
f 349/349/349 351/351/351 350/350/350
f 352/352/352 350/350/350 351/351/351
f 351/351/351 353/353/353 352/352/352
f 354/354/354 352/352/352 353/353/353
f 353/353/353 355/355/355 354/354/354
f 356/356/356 354/354/354 355/355/355
f 355/355/355 357/357/357 356/356/356
f 358/358/358 356/356/356 357/357/357
f 357/357/357 359/359/359 358/358/358
f 360/360/360 358/358/358 359/359/359
f 361/361/361 363/363/363 362/362/362
f 364/364/364 362/362/362 363/363/363
f 363/363/363 365/365/365 364/364/364
f 366/366/366 364/364/364 365/365/365
f 365/365/365 367/367/367 366/366/366
f 368/368/368 366/366/366 367/367/367
f 367/367/367 369/369/369 368/368/368
f 370/370/370 368/368/368 369/369/369
f 369/369/369 371/371/371 370/370/370
f 372/372/372 370/370/370 371/371/371
f 373/373/373 375/375/375 374/374/374
f 376/376/376 374/374/374 375/375/375
f 375/375/375 377/377/377 376/376/376
f 378/378/378 376/376/376 377/377/377
f 377/377/377 379/379/379 378/378/378
f 380/380/380 378/378/378 379/379/379
f 379/379/379 381/381/381 380/380/380
f 382/382/382 380/380/380 381/381/381
f 381/381/381 383/383/383 382/382/382
f 384/384/384 382/382/382 383/383/383
f 385/385/385 387/387/387 386/386/386
f 388/388/388 386/386/386 387/387/387
f 387/387/387 389/389/389 388/388/388
f 390/390/390 388/388/388 389/389/389
f 389/389/389 391/391/391 390/390/390
f 392/392/392 390/390/390 391/391/391
f 391/391/391 393/393/393 392/392/392
f 394/394/394 392/392/392 393/393/393
f 393/393/393 395/395/395 394/394/394
f 396/396/396 394/394/394 395/395/395
f 397/397/397 399/399/399 398/398/398
f 400/400/400 398/398/398 399/399/399
f 399/399/399 401/401/401 400/400/400
f 402/402/402 400/400/400 401/401/401
f 401/401/401 403/403/403 402/402/402
f 404/404/404 402/402/402 403/403/403
f 403/403/403 405/405/405 404/404/404
f 406/406/406 404/404/404 405/405/405
f 405/405/405 407/407/407 406/406/406
f 408/408/408 406/406/406 407/407/407
f 409/409/409 411/411/411 410/410/410
f 412/412/412 410/410/410 411/411/411
f 411/411/411 413/413/413 412/412/412
f 414/414/414 412/412/412 413/413/413
f 413/413/413 415/415/415 414/414/414
f 416/416/416 414/414/414 415/415/415
f 415/415/415 417/417/417 416/416/416
f 418/418/418 416/416/416 417/417/417
f 417/417/417 419/419/419 418/418/418
f 420/420/420 418/418/418 419/419/419
f 421/421/421 423/423/423 422/422/422
f 424/424/424 422/422/422 423/423/423
f 423/423/423 425/425/425 424/424/424
f 426/426/426 424/424/424 425/425/425
f 425/425/425 427/427/427 426/426/426
f 428/428/428 426/426/426 427/427/427
f 427/427/427 429/429/429 428/428/428
f 430/430/430 428/428/428 429/429/429
f 429/429/429 431/431/431 430/430/430
f 432/432/432 430/430/430 431/431/431
f 433/433/433 435/435/435 434/434/434
f 436/436/436 434/434/434 435/435/435
f 435/435/435 437/437/437 436/436/436
f 438/438/438 436/436/436 437/437/437
f 437/437/437 439/439/439 438/438/438
f 440/440/440 438/438/438 439/439/439
f 439/439/439 441/441/441 440/440/440
f 442/442/442 440/440/440 441/441/441
f 441/441/441 443/443/443 442/442/442
f 444/444/444 442/442/442 443/443/443
f 445/445/445 447/447/447 446/446/446
f 448/448/448 446/446/446 447/447/447
f 447/447/447 449/449/449 448/448/448
f 450/450/450 448/448/448 449/449/449
f 449/449/449 451/451/451 450/450/450
f 452/452/452 450/450/450 451/451/451
f 451/451/451 453/453/453 452/452/452
f 454/454/454 452/452/452 453/453/453
f 453/453/453 455/455/455 454/454/454
f 456/456/456 454/454/454 455/455/455
f 457/457/457 459/459/459 458/458/458
f 460/460/460 458/458/458 459/459/459
f 459/459/459 461/461/461 460/460/460
f 462/462/462 460/460/460 461/461/461
f 461/461/461 463/463/463 462/462/462
f 464/464/464 462/462/462 463/463/463
f 463/463/463 465/465/465 464/464/464
f 466/466/466 464/464/464 465/465/465
f 465/465/465 467/467/467 466/466/466
f 468/468/468 466/466/466 467/467/467
f 469/469/469 471/471/471 470/470/470
f 472/472/472 470/470/470 471/471/471
f 471/471/471 473/473/473 472/472/472
f 474/474/474 472/472/472 473/473/473
f 473/473/473 475/475/475 474/474/474
f 476/476/476 474/474/474 475/475/475
f 475/475/475 477/477/477 476/476/476
f 478/478/478 476/476/476 477/477/477
f 477/477/477 479/479/479 478/478/478
f 480/480/480 478/478/478 479/479/479
f 481/481/481 483/483/483 482/482/482
f 484/484/484 482/482/482 483/483/483
f 483/483/483 485/485/485 484/484/484
f 486/486/486 484/484/484 485/485/485
f 485/485/485 487/487/487 486/486/486
f 488/488/488 486/486/486 487/487/487
f 487/487/487 489/489/489 488/488/488
f 490/490/490 488/488/488 489/489/489
f 489/489/489 491/491/491 490/490/490
f 492/492/492 490/490/490 491/491/491
f 493/493/493 495/495/495 494/494/494
f 496/496/496 494/494/494 495/495/495
f 495/495/495 497/497/497 496/496/496
f 498/498/498 496/496/496 497/497/497
f 497/497/497 499/499/499 498/498/498
f 500/500/500 498/498/498 499/499/499
f 499/499/499 501/501/501 500/500/500
f 502/502/502 500/500/500 501/501/501
f 501/501/501 503/503/503 502/502/502
f 504/504/504 502/502/502 503/503/503
f 505/505/505 507/507/507 506/506/506
f 508/508/508 506/506/506 507/507/507
f 507/507/507 509/509/509 508/508/508
f 510/510/510 508/508/508 509/509/509
f 509/509/509 511/511/511 510/510/510
f 512/512/512 510/510/510 511/511/511
f 511/511/511 513/513/513 512/512/512
f 514/514/514 512/512/512 513/513/513
f 513/513/513 515/515/515 514/514/514
f 516/516/516 514/514/514 515/515/515
f 517/517/517 519/519/519 518/518/518
f 520/520/520 518/518/518 519/519/519
f 519/519/519 521/521/521 520/520/520
f 522/522/522 520/520/520 521/521/521
f 521/521/521 523/523/523 522/522/522
f 524/524/524 522/522/522 523/523/523
f 523/523/523 525/525/525 524/524/524
f 526/526/526 524/524/524 525/525/525
f 525/525/525 527/527/527 526/526/526
f 528/528/528 526/526/526 527/527/527
f 529/529/529 531/531/531 530/530/530
f 532/532/532 530/530/530 531/531/531
f 531/531/531 533/533/533 532/532/532
f 534/534/534 532/532/532 533/533/533
f 533/533/533 535/535/535 534/534/534
f 536/536/536 534/534/534 535/535/535
f 535/535/535 537/537/537 536/536/536
f 538/538/538 536/536/536 537/537/537
f 537/537/537 539/539/539 538/538/538
f 540/540/540 538/538/538 539/539/539
f 541/541/541 543/543/543 542/542/542
f 544/544/544 542/542/542 543/543/543
f 543/543/543 545/545/545 544/544/544
f 546/546/546 544/544/544 545/545/545
f 545/545/545 547/547/547 546/546/546
f 548/548/548 546/546/546 547/547/547
f 547/547/547 549/549/549 548/548/548
f 550/550/550 548/548/548 549/549/549
f 549/549/549 551/551/551 550/550/550
f 552/552/552 550/550/550 551/551/551
f 553/553/553 555/555/555 554/554/554
f 556/556/556 554/554/554 555/555/555
f 555/555/555 557/557/557 556/556/556
f 558/558/558 556/556/556 557/557/557
f 557/557/557 559/559/559 558/558/558
f 560/560/560 558/558/558 559/559/559
f 559/559/559 561/561/561 560/560/560
f 562/562/562 560/560/560 561/561/561
f 561/561/561 563/563/563 562/562/562
f 564/564/564 562/562/562 563/563/563
f 565/565/565 567/567/567 566/566/566
f 568/568/568 566/566/566 567/567/567
f 567/567/567 569/569/569 568/568/568
f 570/570/570 568/568/568 569/569/569
f 569/569/569 571/571/571 570/570/570
f 572/572/572 570/570/570 571/571/571
f 571/571/571 573/573/573 572/572/572
f 574/574/574 572/572/572 573/573/573
f 573/573/573 575/575/575 574/574/574
f 576/576/576 574/574/574 575/575/575
f 577/577/577 579/579/579 578/578/578
f 580/580/580 578/578/578 579/579/579
f 579/579/579 581/581/581 580/580/580
f 582/582/582 580/580/580 581/581/581
f 581/581/581 583/583/583 582/582/582
f 584/584/584 582/582/582 583/583/583
f 583/583/583 585/585/585 584/584/584
f 586/586/586 584/584/584 585/585/585
f 585/585/585 587/587/587 586/586/586
f 588/588/588 586/586/586 587/587/587
f 589/589/589 591/591/591 590/590/590
f 592/592/592 590/590/590 591/591/591
f 591/591/591 593/593/593 592/592/592
f 594/594/594 592/592/592 593/593/593
f 593/593/593 595/595/595 594/594/594
f 596/596/596 594/594/594 595/595/595
f 595/595/595 597/597/597 596/596/596
f 598/598/598 596/596/596 597/597/597
f 597/597/597 599/599/599 598/598/598
f 600/600/600 598/598/598 599/599/599
f 601/601/601 603/603/603 602/602/602
f 604/604/604 602/602/602 603/603/603
f 603/603/603 605/605/605 604/604/604
f 606/606/606 604/604/604 605/605/605
f 605/605/605 607/607/607 606/606/606
f 608/608/608 606/606/606 607/607/607
f 607/607/607 609/609/609 608/608/608
f 610/610/610 608/608/608 609/609/609
f 609/609/609 611/611/611 610/610/610
f 612/612/612 610/610/610 611/611/611
f 613/613/613 615/615/615 614/614/614
f 616/616/616 614/614/614 615/615/615
f 615/615/615 617/617/617 616/616/616
f 618/618/618 616/616/616 617/617/617
f 617/617/617 619/619/619 618/618/618
f 620/620/620 618/618/618 619/619/619
f 619/619/619 621/621/621 620/620/620
f 622/622/622 620/620/620 621/621/621
f 621/621/621 623/623/623 622/622/622
f 624/624/624 622/622/622 623/623/623
f 625/625/625 627/627/627 626/626/626
f 628/628/628 626/626/626 627/627/627
f 627/627/627 629/629/629 628/628/628
f 630/630/630 628/628/628 629/629/629
f 629/629/629 631/631/631 630/630/630
f 632/632/632 630/630/630 631/631/631
f 631/631/631 633/633/633 632/632/632
f 634/634/634 632/632/632 633/633/633
f 633/633/633 635/635/635 634/634/634
f 636/636/636 634/634/634 635/635/635
f 637/637/637 639/639/639 638/638/638
f 640/640/640 638/638/638 639/639/639
f 639/639/639 641/641/641 640/640/640
f 642/642/642 640/640/640 641/641/641
f 641/641/641 643/643/643 642/642/642
f 644/644/644 642/642/642 643/643/643
f 643/643/643 645/645/645 644/644/644
f 646/646/646 644/644/644 645/645/645
f 645/645/645 647/647/647 646/646/646
f 648/648/648 646/646/646 647/647/647

g ring4
# texture: ring4.jpg
v 199.9934 85.8743 -346.3631
v 0.006117 85.8743 0.025011
v 346.4118 85.8743 199.997
v 546.41 85.8742 -146.4102
v -346.3996 85.8742 -199.947
v -146.4232 85.8742 -546.316
v -199.9811 85.8742 346.4131
v -546.3759 85.8742 146.4221
v 146.4135 85.8743 546.4041
vn 0 1 -0
vn 0 1 -0
vn 0 1 -0
vn 0 1 -0
vn 0 1 -0
vn 0 1 -0
vn 0 1 -0
vn 0 1 -0
vn 0 1 -0
vt 0.0006 0.5
vt 0.5 0.5
vt 0.5 0.9995
vt 0.0005 0.9995
vt 0.5001 0.0005
vt 0.0006 0.0005
vt 0.9995 0.5
vt 0.9995 0.0005
vt 0.9995 0.9995
f 649/649/649 651/651/651 650/650/650
f 651/651/651 649/649/649 652/652/652
f 649/649/649 650/650/650 653/653/653
f 653/653/653 654/654/654 649/649/649
f 655/655/655 653/653/653 650/650/650
f 653/653/653 655/655/655 656/656/656
f 655/655/655 650/650/650 651/651/651
f 651/651/651 657/657/657 655/655/655
